<?xml version="1.0" encoding="UTF-8" standalone="no"?><!DOCTYPE svg PUBLIC "-//W3C//DTD SVG 1.1//EN" "http://www.w3.org/Graphics/SVG/1.1/DTD/svg11.dtd"><svg width="100%" height="100%" viewBox="0 0 3932 5514" version="1.1" xmlns="http://www.w3.org/2000/svg" xmlns:xlink="http://www.w3.org/1999/xlink" xml:space="preserve" xmlns:serif="http://www.serif.com/" style="fill-rule:evenodd;clip-rule:evenodd;stroke-linejoin:round;stroke-miterlimit:2;"><g id="Coffee-to-go-03-Mr" serif:id="Coffee to go-03-Mr"><path d="M2844.91,756.399c63.033,-147.8 314.485,-727.233 468.685,-739.095c123.837,-9.526 519.068,142.704 588.271,214.15c24.396,25.188 -65.253,189.72 -102.765,175.538c-70.066,-26.488 -337.559,-201.404 -448.436,-127.486c-96.159,64.106 -194.634,343.155 -254.285,448.885c-25.958,46.009 -41.336,78.525 -94.96,88.879c-69.317,13.385 -126.426,-50.623 -156.51,-60.871Z" style="fill:#f8bcc4;"/><path d="M2829.58,749.861c-1.819,4.265 -1.779,9.095 0.11,13.329c1.889,4.234 5.457,7.49 9.846,8.985c14.375,4.897 34.987,22.992 60.505,37.91c29.982,17.527 65.624,31.064 104.539,23.55c59.35,-11.46 77.586,-46.132 106.316,-97.055c35.845,-63.534 85.711,-189.547 140.652,-294.068c35.017,-66.618 71.534,-124.586 108.362,-149.139c19.387,-12.924 44.364,-16.601 72.228,-14.9c30.521,1.862 64.306,10.316 98.688,22.111c107.523,36.887 220.416,106.133 262.381,121.998c8.373,3.165 18.264,2.598 28.895,-2.787c15.079,-7.639 33.552,-27.22 50.214,-51.881c23.485,-34.759 43.998,-79.298 49.03,-108.322c3.221,-18.585 -0.538,-32.537 -7.509,-39.733c-35.426,-36.576 -153.93,-94.573 -279.801,-141.463c-125.645,-46.806 -258.437,-82.577 -321.72,-77.709c-21.208,1.631 -44.264,12.093 -68.116,30.48c-32.256,24.865 -66.757,64.595 -101.508,113.413c-131.48,184.705 -268.756,501.274 -313.112,605.281Zm1059.44,-507.693c0.119,0.785 0.34,2.468 0.327,3.645c-0.057,5.283 -1.334,11.732 -3.364,18.94c-7.079,25.133 -23.347,57.953 -41.283,84.5c-9.593,14.198 -19.616,26.597 -29.042,34.723c-2.994,2.58 -5.858,4.686 -8.615,6.083c-0.857,0.434 -2.23,0.874 -2.81,1.047c-42.708,-16.457 -155.329,-85.255 -262.586,-122.051c-45.157,-15.492 -89.452,-25.328 -127.668,-24.206c-27.677,0.812 -52.356,7.323 -72.555,20.789c-40.099,26.733 -81.25,88.83 -119.377,161.364c-54.774,104.205 -104.442,229.858 -140.179,293.199c-23.191,41.105 -35.695,71.454 -83.604,80.705c-36.992,7.143 -69.774,-11.524 -96.102,-28.746c-13.424,-8.782 -25.48,-17.332 -35.798,-23.537c49.347,-115.132 178.948,-409.757 303.488,-584.712c32.512,-45.673 64.525,-83.081 94.703,-106.344c17.771,-13.7 34.521,-22.43 50.322,-23.645c60.555,-4.658 187.296,30.922 307.527,75.711c118.998,44.329 231.807,97.642 266.616,132.535Z" style="fill:#7e4021;"/><path d="M3228.16,54.477c-6.699,29.478 -0.651,66.198 14.322,102.248c21.656,52.142 61.679,102.769 103.116,127.179c7.925,4.669 18.15,2.025 22.819,-5.9c4.669,-7.926 2.025,-18.151 -5.9,-22.82c-36.095,-21.264 -70.387,-65.824 -89.252,-111.245c-12.042,-28.994 -17.988,-58.368 -12.601,-82.076c2.038,-8.97 -3.589,-17.907 -12.559,-19.945c-8.97,-2.039 -17.907,3.589 -19.945,12.559Z" style="fill:#7e4021;"/><path d="M3295.43,21.729c-12.734,27.416 -14.526,64.588 -7.451,102.977c10.234,55.526 38.743,113.423 74.135,145.985c6.77,6.228 17.322,5.788 23.55,-0.981c6.228,-6.77 5.789,-17.322 -0.981,-23.55c-30.829,-28.364 -55.008,-79.128 -63.922,-127.496c-5.691,-30.875 -5.341,-60.843 4.9,-82.893c3.875,-8.343 0.248,-18.262 -8.094,-22.137c-8.343,-3.875 -18.262,-0.247 -22.137,8.095Z" style="fill:#7e4021;"/><path d="M3369.26,15.124c-16.474,21.705 -25.935,55.331 -27.544,92.45c-2.324,53.589 11.449,114.254 39.325,153.664c5.312,7.51 15.721,9.294 23.231,3.982c7.51,-5.312 9.294,-15.721 3.982,-23.231c-24.087,-34.054 -35.244,-86.664 -33.236,-132.971c1.278,-29.481 7.709,-56.502 20.793,-73.741c5.562,-7.327 4.128,-17.791 -3.199,-23.352c-7.327,-5.562 -17.791,-4.128 -23.352,3.199Z" style="fill:#7e4021;"/><path d="M3896.5,225.074c25.764,14.874 23.505,67.091 -5.041,116.533c-28.546,49.443 -72.637,77.508 -98.4,62.633c-25.764,-14.874 -23.504,-67.091 5.041,-116.533c28.546,-49.443 72.637,-77.508 98.4,-62.633Z" style="fill:#eb9ba5;"/><path d="M3904.83,210.64c-17.315,-9.997 -41.015,-7.808 -64.95,7.261c-19.854,12.5 -40.303,33.907 -56.218,61.472c-15.914,27.565 -24.229,55.978 -25.127,79.423c-1.083,28.262 8.871,49.881 26.186,59.878c17.316,9.997 41.015,7.808 64.95,-7.261c19.854,-12.5 40.303,-33.907 56.218,-61.472c15.914,-27.565 24.229,-55.978 25.127,-79.423c1.083,-28.262 -8.871,-49.881 -26.186,-59.878Zm-16.667,28.867c3.66,2.114 5.882,5.932 7.382,10.522c2.677,8.194 2.85,18.531 1.118,29.954c-2.51,16.556 -9.148,35.116 -19.642,53.291c-10.493,18.175 -23.247,33.204 -36.33,43.656c-9.027,7.211 -18.065,12.23 -26.5,14.008c-4.725,0.997 -9.143,0.982 -12.803,-1.132c-3.66,-2.113 -5.882,-5.931 -7.382,-10.521c-2.677,-8.194 -2.85,-18.531 -1.118,-29.954c2.51,-16.557 9.149,-35.116 19.642,-53.291c10.493,-18.175 23.247,-33.204 36.33,-43.656c9.027,-7.211 18.065,-12.23 26.5,-14.009c4.725,-0.996 9.143,-0.981 12.803,1.132l0,0Z" style="fill:#7e4021;"/><path d="M3476.97,1148.74c15.17,-10.576 42.509,-190.853 31.889,-231.781c-25.495,-98.254 -146.084,-310.025 -893.54,-515.119c-648.059,-177.82 -906.868,-63.007 -942.987,-40.448c-104.413,65.213 -134.943,258.411 -129.501,267.825c55.385,95.808 351.471,220.182 515.861,272.287c174.659,55.36 351.426,107.657 529.552,150.713c267.207,64.587 663.02,161.537 888.726,96.523Z" style="fill:#fff;"/><path d="M3481.58,1164.75c1.757,-0.506 3.419,-1.298 4.919,-2.343c2.39,-1.667 5.321,-4.593 7.914,-9.293c2.719,-4.931 5.813,-13.303 8.794,-24.23c15.016,-55.038 30.625,-182.035 21.781,-216.116c-13.263,-51.114 -50.564,-132.318 -182.457,-226.855c-127.723,-91.547 -346.256,-196.83 -722.805,-300.15c-657.086,-180.297 -919.604,-61.386 -956.226,-38.512c-35.803,22.361 -63.761,58.54 -84.682,98.041c-30.323,57.257 -45.92,121.244 -51.121,156.264c-1.976,13.306 -2.393,22.961 -1.92,27.422c0.438,4.136 1.669,6.927 2.622,8.576c17.576,30.403 57.61,64.048 110.381,97.011c117.485,73.387 298.73,146.009 414.873,182.822c175.028,55.477 352.17,107.878 530.672,151.025c269.736,65.198 669.413,161.967 897.255,96.338Zm-15.204,-30.363c-224.56,61.005 -611.896,-34.969 -874.22,-98.376c-177.749,-42.964 -354.141,-95.156 -528.432,-150.399c-114.002,-36.135 -291.965,-107.284 -407.285,-179.318c-45.336,-28.319 -80.92,-56.283 -97.43,-82.533c0.421,-5.062 2.068,-22.522 5.957,-40.747c12.98,-60.825 46.878,-164.2 116.192,-207.491c35.616,-22.245 290.711,-132.959 929.747,42.385c370.908,101.773 586.397,204.922 712.207,295.098c121.639,87.187 157.379,160.994 169.612,208.134c7.129,27.475 -4.418,120.358 -16.475,177.14c-2.743,12.92 -5.528,23.942 -8.212,31.813c-0.495,1.45 -1.118,3.013 -1.661,4.294Z" style="fill:#7e4021;"/><path d="M1574.12,514.031c181.951,-46.03 516.606,-55.123 997.371,83.618c526.122,151.83 921.407,359.979 1054.99,613.826c79.307,150.703 58.6,244.194 -17.917,272.517c-34.243,12.674 266.72,-371.474 -938.703,-783.332c-338.298,-115.586 -743.21,-199.948 -1097.32,-124.938c-247.549,52.438 -342.514,165.864 -335.016,131.275c24.358,-112.363 140.605,-143.386 336.589,-192.966Z" style="fill:#ffe6d8;"/><path d="M1570.04,497.873c-99.405,25.148 -178.535,45.756 -235.956,74.158c-61.756,30.547 -99.545,70.14 -112.833,131.435c-3.164,14.594 3.729,21.451 9.423,24.437c3.98,2.086 11.538,3.704 22.004,-1.09c28.099,-12.871 127.34,-93.27 323.331,-134.786c351.271,-74.409 752.887,9.744 1088.47,124.405c377.038,128.822 605.78,254.663 743.133,366.57c133.623,108.867 179.239,203.392 190.895,273.513c9.799,58.956 -4.564,99.917 -8.243,116.034c-2.25,9.853 -0.468,16.35 1.155,19.24c2.362,4.208 5.777,6.903 10.151,8.306c3.064,0.982 7.326,1.548 12.786,-0.473c83.247,-30.814 113.164,-131.95 26.881,-295.909c-54.54,-103.638 -151.555,-200.07 -283.021,-288.089c-194.376,-130.138 -464.513,-242.338 -782.1,-333.988c-484.94,-139.946 -822.549,-130.193 -1006.08,-83.763l-0.001,0Zm2059.19,955.377l0.637,-3.061c13.075,-65.58 20.177,-209.597 -194.569,-387.585c-138.553,-114.837 -371.552,-244.981 -760.036,-377.715c-341.008,-116.513 -749.217,-201.082 -1106.16,-125.472c-161.361,34.181 -258.963,93.802 -306.204,122.941c15.604,-35.338 44.69,-60.032 85.966,-80.449c55.788,-27.594 132.773,-47.288 229.353,-71.72l-0,-0.001c180.371,-45.63 512.071,-54.062 988.662,83.474c313.758,90.546 580.766,201.092 772.798,329.661c126.14,84.453 219.738,176.474 272.068,275.914c37.625,71.497 52.231,129.229 47.65,172.64c-2.812,26.642 -13.315,47.238 -30.164,61.373Z" style="fill:#7e4021;"/><path d="M1555.27,571.428c181.951,-46.03 516.606,-55.122 997.372,83.619c526.121,151.83 921.406,359.979 1054.99,613.826c79.307,150.703 24.971,252.346 -51.547,280.669c-75.727,28.03 -173.237,-16.489 -173.237,-16.489c-0,0 105.775,-330.804 -1020.76,-588.681c-1027.02,-235.097 -975.594,66.947 -975.594,66.947c-0,0 -197.249,-111.166 -167.82,-246.925c24.359,-112.363 140.605,-143.385 336.589,-192.966Z" style="fill:#ffe6d8;"/><path d="M1551.18,555.271c-99.405,25.148 -178.536,45.756 -235.956,74.158c-61.757,30.547 -99.546,70.139 -112.834,131.434c-12.888,59.455 12.951,114.911 49.775,159.684c52.403,63.712 126.15,105.292 126.15,105.292c5.6,3.156 12.516,2.81 17.773,-0.889c5.257,-3.699 7.919,-10.091 6.84,-16.428c-0,-0 -8.213,-63.182 92.415,-103.359c114.223,-45.606 355.292,-60.772 863.03,55.456c558.142,127.765 811.4,272.664 924.732,386.554c105.381,105.9 83.868,180.804 83.868,180.804c-2.571,8.04 1.274,16.732 8.953,20.238c-0,-0 104.693,47.032 185.945,16.957c83.129,-30.77 146.671,-140.335 60.51,-304.061c-54.539,-103.638 -151.555,-200.07 -283.021,-288.089c-194.376,-130.138 -464.513,-242.338 -782.1,-333.989c-484.94,-139.945 -822.549,-130.192 -1006.08,-83.762l-0,-0Zm8.175,32.315c180.371,-45.631 512.071,-54.062 988.662,83.474c313.759,90.545 580.766,201.092 772.799,329.66c126.14,84.453 219.737,176.475 272.067,275.914c72.474,137.719 27.342,231.395 -42.583,257.277c-54.815,20.29 -121.898,-0.871 -148.673,-11.123c3.202,-30.82 -1.622,-105.396 -94.894,-199.128c-115.413,-115.981 -372.532,-265.423 -940.922,-395.534c-519.282,-118.87 -766.008,-100.563 -882.828,-53.92c-63.592,25.39 -91.281,59.552 -103.64,86.683c-3.534,7.758 -5.863,15.054 -7.372,21.611c-24.178,-16.27 -63.139,-45.531 -94.062,-83.128c-30.445,-37.015 -53.598,-82.292 -42.942,-131.447c11.071,-51.069 43.582,-83.167 95.035,-108.618c55.789,-27.595 132.773,-47.288 229.353,-71.721l-0,0Z" style="fill:#7e4021;"/><path d="M1482.08,1685.98c-14.666,-8.901 -282.883,252.394 -448.465,275.359c-106.329,14.747 -229.087,-101.145 -283.67,-151.784c-26.955,-25.007 -54.806,-66.91 -87.287,-85.05c-50.33,-28.109 -145.479,24.819 -139.283,90.44c1.496,15.852 20.768,44.43 24.602,50.52c112.024,177.932 338.475,313.079 481.308,297.117c227.866,-25.465 444.932,-202.945 491.974,-290.73" style="fill:#ffdab8;"/><path d="M1483.59,1702.57c5.087,-0.464 9.895,-3.251 12.745,-7.947c4.773,-7.864 2.264,-18.123 -5.6,-22.896c-3.389,-2.057 -9.109,-4.055 -17.053,-1.305c-6.232,2.157 -19.714,11.099 -38.173,25.389c-48.619,37.637 -138.991,113.922 -231.99,172.846c-60.085,38.071 -121.111,69.085 -172.186,76.168c-39.203,5.437 -80.67,-9.019 -119.728,-30.559c-62.236,-34.322 -118.249,-87.184 -150.316,-116.934c-27.824,-25.814 -56.969,-68.659 -90.496,-87.383c-29.782,-16.633 -72.981,-10.805 -107.661,10.404c-34.802,21.283 -60.021,57.188 -56.342,96.154c1.701,18.016 22.733,50.911 27.091,57.833c68.83,109.325 179.801,202.927 289.193,256.746c74.471,36.639 148.326,54.731 208.07,48.054c234.037,-26.154 456.497,-209.258 504.813,-299.421c4.345,-8.108 1.29,-18.218 -6.818,-22.563c-8.108,-4.344 -18.218,-1.289 -22.562,6.819c-45.769,85.408 -257.44,257.263 -479.135,282.038c-54.522,6.093 -121.691,-11.4 -189.653,-44.836c-104.256,-51.293 -210.101,-140.404 -275.7,-244.597c-2.193,-3.483 -9.707,-14.668 -15.657,-26.335c-3.093,-6.065 -6.012,-12.158 -6.457,-16.871c-2.517,-26.663 16.735,-50.021 40.548,-64.584c23.936,-14.639 53.461,-21.219 74.016,-9.739c31.435,17.556 57.992,58.515 84.079,82.717c33.432,31.017 92.004,85.904 156.89,121.687c45.692,25.198 94.543,40.748 140.404,34.387c54.899,-7.613 120.864,-40.107 185.448,-81.027c94.005,-59.562 185.408,-136.601 234.554,-174.646c11.936,-9.241 24.163,-17.316 27.676,-19.599Z" style="fill:#7e4021;"/><path d="M689.147,1638.14c-28.967,-11.31 -173.08,32.519 -230.868,171.408c-7.454,17.916 -4.804,45.397 7.491,61.078c3.358,4.282 7.632,7.559 12.581,9.899c41.204,19.484 101.071,7.209 162.397,-32.033c67.556,-43.229 147.405,-171.693 48.399,-210.352Z" style="fill:#fff;"/><path d="M695.209,1622.62c-10.529,-4.111 -33.772,-3.795 -62.824,5.426c-59.164,18.777 -146.716,72.29 -189.494,175.104c-9.494,22.819 -5.896,57.794 9.764,77.765c4.965,6.333 11.253,11.222 18.571,14.682c45.191,21.369 111.246,9.978 178.505,-33.061c43.934,-28.113 92.279,-89.756 101.055,-143.406c3.313,-20.259 1.243,-39.501 -7.379,-56.097c-8.631,-16.612 -23.86,-30.91 -48.198,-40.413Zm-12.124,31.05c15.267,5.962 25.329,14.31 30.743,24.731c8.518,16.396 5.772,36.755 -2.007,57.306c-14.81,39.127 -48.851,78.784 -80.056,98.752c-55.403,35.452 -109.065,48.606 -146.29,31.004c-2.579,-1.22 -4.84,-2.885 -6.59,-5.117c-8.93,-11.389 -10.632,-31.378 -5.218,-44.391c38.124,-91.629 116.075,-139.403 168.802,-156.138c12.719,-4.037 23.852,-6.246 32.398,-6.644c3.504,-0.163 6.328,-0.24 8.218,0.497Z" style="fill:#7e4021;"/><path d="M1394.7,989.131c-26.943,77.804 -352.183,2188.94 -307.505,2387.46c27.057,120.226 345.317,280.788 648.404,358.498c323.901,83.047 635.261,76.806 709.82,-2.29c131.536,-139.543 722.467,-1712.73 939.16,-2205.6c101.686,-231.287 -577.684,-494.146 -909.331,-583.825c-331.646,-89.678 -1003.42,-176.961 -1080.55,45.754Z" style="fill:#cc967f;"/><path d="M1378.96,983.678c-18.897,54.57 -184.527,1107.39 -266.681,1802.42c-35.473,300.099 -54.865,534.031 -41.335,594.15c8.73,38.792 44.624,82.32 100.834,125.344c123.285,94.366 345.194,190.644 559.691,245.64c229.424,58.823 452.655,73.076 591.809,49.061c63.518,-10.962 110.171,-30.491 134.277,-56.064c39.92,-42.349 122.297,-214.913 223.098,-449.65c232.485,-541.389 567.519,-1415.69 719.192,-1760.67c33.094,-75.274 -6.821,-154.972 -93.183,-230.414c-187.293,-163.61 -592.973,-312.911 -827.054,-376.208c-234.097,-63.3 -636.287,-125.055 -883.188,-79.597c-112.188,20.655 -192.723,64.554 -217.46,135.986l0,0.001Zm31.498,10.907c21.541,-62.205 94.302,-96.125 191.998,-114.112c242.799,-44.703 638.243,16.744 868.451,78.993c230.224,62.254 629.618,208.22 813.825,369.134c72.871,63.656 112.523,128.38 84.599,191.894c-151.697,345.036 -486.786,1219.46 -719.306,1760.93c-98.487,229.345 -177.723,398.562 -216.725,439.939c-28.037,29.743 -92.199,46.874 -177.979,53.711c-135.439,10.796 -323.266,-6.826 -515.573,-56.133c-209.826,-53.798 -427.109,-147.51 -547.71,-239.821c-48.318,-36.983 -81.07,-72.846 -88.574,-106.192c-13.277,-58.993 7.11,-288.445 41.918,-582.919c81.832,-692.303 246.253,-1741.07 265.076,-1795.43Z" style="fill:#7e4021;"/><path d="M1193.99,2721.14c-4.21,35.678 -10.096,70.934 -16.256,106.314c-1.578,9.063 4.498,17.701 13.56,19.279c9.062,1.578 17.701,-4.498 19.279,-13.561c6.265,-35.982 12.239,-71.84 16.521,-108.125c1.078,-9.135 -5.463,-17.427 -14.599,-18.505c-9.135,-1.078 -17.427,5.463 -18.505,14.598Z" style="fill:#7e4021;"/><path d="M1168.82,2886.86c-3.886,25.041 -8.793,49.974 -13.253,74.92c-1.619,9.055 4.418,17.72 13.473,19.339c9.055,1.619 17.721,-4.418 19.34,-13.473c4.505,-25.196 9.454,-50.381 13.379,-75.674c1.411,-9.09 -4.823,-17.615 -13.913,-19.025c-9.09,-1.411 -17.615,4.823 -19.026,13.913Z" style="fill:#7e4021;"/><path d="M3198.24,1974.64c0,0 -417.778,-192.497 -884.295,-321.124c-484.865,-133.684 -1007.07,-143.437 -1007.07,-143.437l-143.399,990.943c0,0 509.62,3.818 911.174,109.209c423.947,111.268 744.649,308.773 744.649,308.773l378.943,-944.364Z" style="fill:#ffdab8;"/><path d="M3213.71,1980.85c3.307,-8.241 -0.428,-17.628 -8.493,-21.344c-0,0 -418.979,-193.057 -886.84,-322.054c-486.849,-134.231 -1011.19,-144.034 -1011.19,-144.034c-8.4,-0.157 -15.603,5.962 -16.806,14.277l-143.399,990.943c-0.689,4.766 0.716,9.597 3.854,13.249c3.137,3.652 7.701,5.768 12.516,5.805c0,-0 507.327,3.747 907.068,108.662c421.368,110.592 740.14,306.844 740.14,306.844c4.185,2.577 9.294,3.176 13.961,1.637c4.667,-1.54 8.417,-5.06 10.247,-9.621l378.943,-944.364Zm-36.877,2.392c0,0 -313.786,781.987 -365.753,911.493c-71.658,-41.787 -363.008,-203.725 -732.199,-300.622c-357.327,-93.783 -799.837,-107.538 -896.196,-109.456c18.207,-125.818 122.344,-845.451 138.561,-957.518c87.688,2.727 553.083,22.459 988.271,142.447c414.358,114.245 790.156,279.019 867.316,313.656l0,0Z" style="fill:#7e4021;"/><path d="M2390.76,2110.14c64.144,-24.778 51.136,-89.503 70.895,-144.661c26.098,-72.854 96.561,-68.648 116.034,-167.869c19.034,-96.982 -56.516,-178.007 -5.639,-222.553c100.49,-87.987 217.296,-309.293 32.274,-389.917c-51.007,-22.227 -96.278,-8.765 -140.215,7.741c-151.505,56.916 -48.84,135.901 -98.163,217.999c-32.103,53.435 -104.094,77.586 -111.479,148.457c-6.143,58.963 50.317,102.787 40.8,157.832c-8.397,48.562 -63.907,81.732 -91.606,119.182c-102.861,139.075 -14.292,351.583 187.099,273.789Z" style="fill:#fff;"/><path d="M2396.77,2125.69c38.064,-14.704 53.562,-40.98 62.15,-72.044c7.132,-25.797 8.692,-55.361 18.43,-82.544c11.913,-33.258 34.519,-48.461 55.804,-67.14c25.61,-22.475 50.197,-48.638 60.894,-103.139c10.059,-51.251 -4.288,-98.349 -15.015,-138.456c-3.773,-14.108 -7.039,-27.224 -7.985,-39.229c-1.092,-13.859 1.068,-25.98 11.985,-35.539c52.412,-45.891 108.978,-126.612 128.417,-206.31c12.282,-50.354 9.815,-100.277 -15.564,-141.777c-16.951,-27.717 -44.18,-51.904 -84.9,-69.648c-55.542,-24.203 -104.891,-10.556 -152.734,7.418c-51.02,19.166 -75.65,41.539 -87.624,64.59c-12.189,23.466 -11.539,48.528 -9.042,74.778c2.6,27.343 7.689,56.334 -9.923,85.649c-15.273,25.423 -40.32,43.605 -62.142,64.135c-25.789,24.262 -47.475,51.333 -51.627,91.179c-3.406,32.693 9.748,61.4 23.23,89.353c10.616,22.01 21.879,43.334 17.724,67.366c-3.648,21.099 -18.152,38.473 -34.131,55.02c-18.912,19.585 -40.209,37.834 -54.452,57.091c-67.091,90.712 -57.912,210.132 6.37,272.911c43.275,42.261 111.707,60.494 200.135,26.336l-0,-0Zm-12.012,-31.094c-72.69,28.079 -129.26,15.651 -164.833,-19.09c-53.986,-52.723 -59.205,-153.06 -2.86,-229.241c13.456,-18.194 33.763,-35.255 51.631,-53.758c20.801,-21.542 38.249,-45.03 42.998,-72.496c5.362,-31.017 -6.845,-59.118 -20.546,-87.526c-10.834,-22.463 -22.837,-45.145 -20.1,-71.417c3.233,-31.027 21.233,-51.464 41.313,-70.356c24.046,-22.622 51.046,-43.233 67.876,-71.246c21.848,-36.367 17.758,-72.051 14.532,-105.971c-1.873,-19.698 -3.707,-38.649 5.44,-56.257c9.362,-18.023 29.875,-33.766 69.765,-48.752c40.033,-15.039 81.221,-28.316 127.696,-8.064c33.289,14.506 55.922,33.822 69.778,56.48c20.831,34.063 21.699,75.159 11.618,116.489c-17.831,73.108 -69.913,147.033 -117.991,189.129c-25.145,22.017 -27.204,50.825 -19.839,85.641c8.559,40.457 31.034,90.546 20.103,146.242c-10.684,54.437 -38.654,74.496 -64.074,96.487c-20.557,17.784 -39.718,36.649 -51.296,68.971c-10.021,27.976 -11.837,58.354 -19.177,84.903c-5.884,21.284 -15.953,39.757 -42.033,49.832l-0.001,-0Z" style="fill:#7e4021;"/><path d="M1658.33,1946.94c94.868,-0.243 51.136,-89.503 70.895,-144.661c26.097,-72.854 96.56,-68.648 116.034,-167.869c19.034,-96.982 -56.516,-178.007 -5.639,-222.554c100.49,-87.987 217.295,-309.292 32.273,-389.917c-51.007,-22.226 -96.278,-8.764 -140.214,7.741c-151.505,56.917 -48.84,135.901 -98.163,217.999c-32.104,53.436 -104.095,77.587 -111.479,148.458c-6.144,58.963 50.316,102.787 40.799,157.832c-8.396,48.561 -63.907,81.731 -91.605,119.182c-102.862,139.075 -28.795,274.341 187.099,273.789Z" style="fill:#fff;"/><path d="M1658.37,1963.6c29.553,-0.075 47.984,-8.109 59.884,-19.653c12.229,-11.863 18.069,-28.107 20.243,-46.828c1.761,-15.166 1.152,-32.11 1.319,-48.841c0.142,-14.198 0.749,-28.246 5.097,-40.385c11.914,-33.258 34.52,-48.462 55.804,-67.14c25.611,-22.475 50.198,-48.638 60.895,-103.14c10.058,-51.25 -4.289,-98.349 -15.015,-138.455c-3.773,-14.108 -7.04,-27.224 -7.985,-39.23c-1.092,-13.858 1.068,-25.98 11.985,-35.538c52.412,-45.891 108.978,-126.612 128.417,-206.31c12.281,-50.355 9.815,-100.277 -15.565,-141.778c-16.95,-27.716 -44.179,-51.904 -84.9,-69.648c-55.542,-24.202 -104.891,-10.555 -152.734,7.418c-51.019,19.167 -75.65,41.54 -87.623,64.591c-12.19,23.466 -11.539,48.528 -9.043,74.778c2.601,27.343 7.69,56.334 -9.922,85.649c-15.274,25.423 -40.321,43.605 -62.143,64.135c-25.788,24.262 -47.474,51.333 -51.626,91.179c-3.407,32.693 9.748,61.399 23.23,89.352c10.615,22.011 21.878,43.335 17.723,67.367c-3.648,21.098 -18.152,38.472 -34.131,55.02c-18.912,19.585 -40.208,37.834 -54.451,57.091c-56.493,76.382 -62.49,151.97 -26.632,208.135c34.917,54.688 111.719,92.527 227.173,92.231Zm-0.085,-33.333c-100.447,0.257 -168.615,-29.257 -198.992,-76.836c-29.436,-46.105 -21.039,-107.675 25.336,-170.376c13.455,-18.193 33.763,-35.254 51.63,-53.757c20.802,-21.542 38.249,-45.03 42.998,-72.496c5.363,-31.017 -6.844,-59.118 -20.546,-87.526c-10.834,-22.464 -22.837,-45.145 -20.099,-71.418c3.233,-31.027 21.232,-51.463 41.313,-70.355c24.046,-22.622 51.045,-43.233 67.875,-71.246c21.849,-36.367 17.759,-72.051 14.533,-105.971c-1.873,-19.698 -3.707,-38.65 5.439,-56.257c9.362,-18.023 29.875,-33.767 69.766,-48.753c40.032,-15.039 81.221,-28.315 127.696,-8.064c33.289,14.506 55.921,33.823 69.778,56.481c20.831,34.063 21.698,75.159 11.618,116.489c-17.832,73.107 -69.913,147.033 -117.992,189.129c-25.145,22.016 -27.204,50.825 -19.838,85.641c8.559,40.457 31.033,90.545 20.102,146.242c-10.684,54.436 -38.654,74.496 -64.074,96.487c-20.556,17.784 -39.717,36.648 -51.296,68.971c-8.466,23.635 -6.584,53.07 -7.141,79.954c-0.364,17.545 -0.866,34.035 -12.046,44.068c-7.286,6.539 -18.772,9.549 -36.06,9.593l-0,-0Z" style="fill:#7e4021;"/><path d="M2237.76,2103.73c7.047,5.626 14.679,-125.258 61.855,-201.751c31.64,-51.302 110.945,-71.665 133.434,-138.55c19.261,-57.282 -13.048,-123.368 0.825,-178.571c20.609,-82.013 101.89,-147.224 111.977,-221.414c17.236,-126.772 -67.167,-176.03 -81.738,-170.556c-151.505,56.916 -48.84,135.901 -98.163,217.999c-32.103,53.435 -104.094,77.586 -111.479,148.457c-6.143,58.963 50.317,102.787 40.8,157.832c-8.397,48.562 -63.907,81.732 -91.606,119.182c-74.36,100.54 -45.343,203.959 34.095,267.372Z" style="fill:#7e4021;"/><path d="M2227.36,2116.75c5.378,4.293 10.915,4.741 16.347,2.915c3.004,-1.01 8.602,-3.863 11.79,-12.208c2.848,-7.452 6.528,-30.795 12.496,-60.792c8.21,-41.27 21.337,-96.269 45.806,-135.943c14.781,-23.967 41.09,-40.268 65.937,-58.828c29.273,-21.867 56.73,-46.345 69.109,-83.159c10.427,-31.011 7.427,-64.391 3.165,-97.504c-3.66,-28.447 -8.426,-56.643 -1.974,-82.317c9.844,-39.174 34.512,-74.158 57.589,-108.385c25.68,-38.086 49.377,-75.413 54.738,-114.846c13.289,-97.739 -29.564,-153.202 -61.203,-175.881c-11.236,-8.054 -21.584,-12.214 -28.635,-13.463c-6.02,-1.066 -10.869,-0.339 -14.275,0.941c-51.02,19.166 -75.65,41.539 -87.624,64.59c-12.189,23.466 -11.539,48.528 -9.042,74.778c2.6,27.343 7.689,56.334 -9.923,85.649c-15.273,25.423 -40.32,43.605 -62.142,64.135c-25.789,24.262 -47.475,51.333 -51.627,91.179c-3.406,32.693 9.748,61.4 23.23,89.353c10.616,22.01 21.879,43.334 17.724,67.366c-3.648,21.099 -18.152,38.473 -34.131,55.02c-18.912,19.585 -40.209,37.834 -54.452,57.091c-80.742,109.169 -49.158,221.454 37.097,290.309Zm240.055,-907.289c2.35,0.911 9.141,3.717 14.325,7.433c25.815,18.504 58.436,64.551 47.594,144.298c-4.726,34.759 -26.711,67.131 -49.347,100.702c-25.237,37.43 -51.514,76.056 -62.279,118.896c-7.421,29.529 -2.969,61.977 1.242,94.695c3.61,28.052 7.133,56.355 -1.7,82.627c-10.112,30.072 -33.55,49.215 -57.463,67.077c-28.339,21.169 -57.501,40.699 -74.36,68.035c-31.983,51.858 -50.132,138.216 -57.36,179.284c-56.83,-58.4 -72.28,-143.396 -11.004,-226.245c13.456,-18.194 33.763,-35.255 51.631,-53.758c20.801,-21.542 38.249,-45.03 42.998,-72.496c5.362,-31.017 -6.845,-59.118 -20.546,-87.526c-10.834,-22.463 -22.837,-45.145 -20.1,-71.417c3.233,-31.027 21.233,-51.464 41.313,-70.356c24.046,-22.622 51.046,-43.233 67.876,-71.246c21.848,-36.367 17.758,-72.051 14.532,-105.971c-1.873,-19.698 -3.707,-38.649 5.44,-56.257c9.159,-17.634 28.994,-33.085 67.208,-47.775Z" style="fill:#7e4021;"/><path d="M1513.44,1903.98c8.026,4.11 6.562,-88.714 53.739,-165.207c31.639,-51.301 110.944,-71.664 133.434,-138.549c19.261,-57.282 -13.048,-123.368 0.824,-178.571c20.61,-82.013 101.89,-147.224 111.977,-221.414c17.236,-126.772 -67.166,-176.031 -81.737,-170.557c-151.505,56.917 -48.84,135.901 -98.163,217.999c-32.104,53.436 -104.095,77.587 -111.479,148.458c-6.144,58.963 50.316,102.787 40.799,157.832c-8.396,48.561 -63.907,81.731 -91.605,119.182c-74.361,100.54 -54.861,181.108 42.211,230.827Z" style="fill:#7e4021;"/><path d="M1505.85,1918.81c5.438,2.785 10.628,2.628 15.615,0.282c2.88,-1.355 6.597,-4 9.222,-9.535c2.098,-4.422 4.34,-15.973 7.142,-32.268c5.397,-31.381 15.136,-83.71 43.543,-129.771c14.781,-23.966 41.091,-40.267 65.937,-58.827c29.274,-21.867 56.731,-46.345 69.109,-83.159c10.428,-31.012 7.427,-64.391 3.166,-97.505c-3.661,-28.447 -8.427,-56.642 -1.975,-82.316c9.845,-39.174 34.512,-74.159 57.59,-108.385c25.679,-38.086 49.377,-75.413 54.738,-114.846c13.289,-97.739 -29.564,-153.202 -61.204,-175.881c-11.236,-8.054 -21.584,-12.214 -28.635,-13.463c-6.02,-1.067 -10.868,-0.339 -14.275,0.94c-51.019,19.167 -75.65,41.54 -87.623,64.591c-12.19,23.466 -11.539,48.528 -9.043,74.778c2.601,27.343 7.69,56.334 -9.922,85.649c-15.274,25.423 -40.321,43.605 -62.143,64.135c-25.788,24.262 -47.474,51.333 -51.626,91.179c-3.407,32.693 9.748,61.399 23.23,89.352c10.615,22.011 21.878,43.335 17.723,67.367c-3.648,21.098 -18.152,38.472 -34.131,55.02c-18.912,19.585 -40.208,37.834 -54.451,57.091c-40.715,55.049 -54.578,104.997 -46.13,147.622c8.581,43.304 40.146,80.293 94.143,107.95Zm229.138,-872.552c2.35,0.911 9.141,3.717 14.326,7.433c25.815,18.504 58.436,64.551 47.593,144.298c-4.725,34.759 -26.711,67.13 -49.346,100.702c-25.237,37.429 -51.514,76.056 -62.28,118.896c-7.421,29.529 -2.968,61.977 1.242,94.695c3.61,28.052 7.134,56.355 -1.7,82.626c-10.111,30.072 -33.55,49.216 -57.462,67.078c-28.34,21.169 -57.501,40.699 -74.36,68.035c-31.035,50.32 -42.127,107.336 -48.023,141.619c-0.447,2.603 -0.911,5.202 -1.363,7.672c-32.868,-20.399 -53.341,-45.314 -59.211,-74.932c-6.981,-35.227 6.584,-75.826 40.233,-121.321c13.455,-18.193 33.763,-35.254 51.63,-53.757c20.802,-21.542 38.249,-45.03 42.998,-72.496c5.363,-31.017 -6.844,-59.118 -20.546,-87.526c-10.834,-22.464 -22.837,-45.145 -20.099,-71.418c3.233,-31.027 21.232,-51.463 41.313,-70.355c24.046,-22.622 51.045,-43.233 67.875,-71.246c21.849,-36.367 17.759,-72.051 14.533,-105.971c-1.873,-19.698 -3.707,-38.65 5.439,-56.257c9.16,-17.634 28.994,-33.085 67.208,-47.775Z" style="fill:#7e4021;"/><path d="M1921.23,1960.47c-14.336,4.477 -32.174,-0.903 -42.032,-3.134c-198.572,-44.929 -187.777,-162.681 -319.091,-165.441c-137.017,-2.88 -277.361,291.244 -154.187,400.711c93.86,83.414 277.849,-111.762 463.683,27.674" style="fill:#ffdab8;"/><path d="M1916.27,1944.56c-11.417,3.565 -25.535,-1.704 -33.386,-3.48c-115.062,-26.035 -157.128,-77.743 -199.928,-115.235c-32.326,-28.317 -65.021,-49.406 -122.491,-50.614c-30.891,-0.649 -62.1,11.642 -90.885,33.434c-40.372,30.563 -76.192,80.021 -99.475,134.95c-39.732,93.731 -41.712,202.38 24.752,261.448c22.07,19.613 48.24,26.547 77.957,25.725c26.449,-0.731 55.96,-7.831 87.737,-16.483c86.888,-23.66 192.714,-60.486 299.057,19.305c7.358,5.521 17.813,4.029 23.334,-3.328c5.521,-7.358 4.029,-17.814 -3.328,-23.334c-116.662,-87.534 -232.502,-50.761 -327.821,-24.806c-28.959,7.886 -55.797,14.659 -79.9,15.326c-20.837,0.576 -39.418,-3.569 -54.893,-17.321c-56.718,-50.407 -50.111,-143.536 -16.205,-223.523c20.896,-49.297 52.673,-93.953 88.905,-121.383c22.286,-16.871 46.148,-27.187 70.065,-26.684c60.524,1.272 87.875,29.887 123.399,62.518c40.115,36.849 89.011,79.131 192.364,102.516c11.87,2.686 33.415,8.178 50.678,2.787c8.781,-2.742 13.683,-12.097 10.941,-20.877c-2.742,-8.781 -12.097,-13.683 -20.877,-10.941Z" style="fill:#7e4021;"/><path d="M1812.81,2280.01c27.209,20.46 74.321,19.673 105.546,14.221c9.061,-1.582 15.134,-10.223 13.552,-19.284c-1.582,-9.062 -10.224,-15.134 -19.285,-13.552c-14.962,2.612 -34.558,4.42 -52.518,1.823c-10.239,-1.481 -19.964,-4.304 -27.367,-9.925c0.293,0.223 1.285,1.093 1.285,1.093c-0,-0 -8.618,-5.865 -12.214,-6.195c-4.391,-0.403 -8.426,0.709 -12.011,3.418c-7.338,5.547 -8.792,16.008 -3.245,23.346c1.7,2.25 3.863,3.947 6.257,5.055Z" style="fill:#7e4021;"/><path d="M1964.71,1981.27c-2.699,8.787 2.24,18.115 11.027,20.821c5.544,1.707 10.372,0.702 14.619,-2.172c2.541,-1.72 5.652,-4.703 7.125,-10.125c0.693,-2.547 1.008,-8.759 0.117,-16.283c-1.41,-11.896 -4.835,-28.65 -5.318,-30.222c-9.825,-32.009 -30.395,-57.765 -60.152,-73.057c-8.182,-4.204 -18.237,-0.975 -22.442,7.207c-4.204,8.181 -0.975,18.237 7.206,22.441c21.611,11.105 36.387,29.944 43.522,53.19c0.407,1.323 3.422,22.124 4.296,28.2Zm19.999,-11.271c-3.024,-0.786 -5.82,-0.706 -8.412,0.078c2.674,-0.73 5.56,-0.798 8.412,-0.078Z" style="fill:#7e4021;"/><path d="M1592.41,1813c15.279,4.395 23.883,19.069 29.501,36.586c10.393,32.406 9.25,75.251 3.137,105.204c-1.839,9.013 3.985,17.824 12.998,19.663c9.013,1.839 17.823,-3.985 19.662,-12.998c7.093,-34.753 8.003,-84.45 -4.056,-122.048c-9.353,-29.165 -26.591,-51.126 -52.028,-58.441c-8.84,-2.543 -18.082,2.57 -20.624,11.41c-2.543,8.84 2.57,18.082 11.41,20.624Z" style="fill:#7e4021;"/><path d="M1564.12,2204.06c12.675,-17.604 22.941,-36.098 33.283,-55.212c4.377,-8.091 1.362,-18.213 -6.728,-22.59c-8.09,-4.377 -18.212,-1.363 -22.59,6.728c-9.938,18.368 -19.731,36.166 -32.051,53.038c-1.062,1.454 -2.935,4.505 -3.611,6.337c-1.373,3.725 -1.248,7.008 -0.796,9.347c0.77,3.986 2.711,7.105 5.454,9.506c2.654,2.324 6.506,4.604 12.529,4.138c6.862,-0.53 12.435,-5.154 14.51,-11.292Zm-11.47,-21.42c-1.594,-0.452 -3.446,-0.689 -5.61,-0.522c1.942,-0.15 3.832,0.04 5.61,0.522Z" style="fill:#7e4021;"/><path d="M1547.14,1866.19c15.623,1.009 14.613,38.911 11.787,67.56c-3.202,32.449 -12.227,90.339 -34.646,147.479c-19.55,49.828 -62.319,75.102 -89.665,19.68c-31.926,-64.706 77.092,-237.007 112.524,-234.719Z" style="fill:#7e4021;"/><path d="M1548.21,1849.56c-5.799,-0.374 -12.865,1.189 -20.548,5.584c-11.155,6.382 -25.294,19.926 -39.619,38.241c-26.451,33.82 -54.555,84.24 -67.8,129.367c-9.837,33.517 -10.982,64.444 -0.577,85.534c14.847,30.091 34.577,40.74 52.767,40.657c11.497,-0.052 23.155,-4.486 33.883,-13.022c13.184,-10.49 25.231,-27.588 33.476,-48.603c23.097,-58.867 32.418,-118.5 35.717,-151.929c2.232,-22.619 2.75,-50.326 -2.758,-65.321c-4.831,-13.15 -13.723,-19.809 -24.541,-20.508Zm-5.887,36.014c0.444,1.862 0.862,3.936 1.045,5.727c1.245,12.189 0.275,27.57 -1.032,40.815c-3.104,31.468 -11.833,87.614 -33.574,143.028c-4.943,12.597 -11.513,23.414 -19.098,31.009c-5.49,5.498 -11.252,9.429 -17.382,9.457c-8.651,0.039 -15.663,-7.763 -22.723,-22.073c-6.265,-12.697 -4.899,-30.476 -0.314,-50.117c8.014,-34.324 27.187,-73.517 47.754,-105.145c13.394,-20.598 27.328,-37.981 39.273,-48.334c1.809,-1.568 4.068,-3.118 6.051,-4.367Z" style="fill:#7e4021;"/><path d="M1826.69,3321.67c373.047,99.957 651.045,273.917 620.415,388.23c-30.63,114.312 -358.364,125.967 -731.41,26.01c-373.046,-99.958 -651.045,-273.918 -620.415,-388.231c30.63,-114.312 358.364,-125.967 731.41,-26.009Z" style="fill:#e3b198;"/><path d="M1831.01,3305.57c-207.289,-55.543 -400.756,-76.808 -538.058,-65.655c-70.1,5.695 -125.963,20.033 -162.572,41.942c-27.409,16.403 -44.686,37.228 -51.192,61.508c-6.506,24.28 -1.956,50.953 13.579,78.863c20.75,37.278 61.96,77.627 119.821,117.609c113.331,78.31 291.51,156.627 498.799,212.17c207.29,55.543 400.756,76.809 538.058,65.655c70.101,-5.695 125.964,-20.033 162.573,-41.942c27.409,-16.403 44.686,-37.227 51.192,-61.508c6.506,-24.28 1.955,-50.953 -13.58,-78.863c-20.75,-37.278 -61.959,-77.627 -119.821,-117.609c-113.33,-78.31 -291.51,-156.627 -498.799,-212.17l-0,-0Zm-8.627,32.197c167.338,44.839 315.396,104.644 424.479,167.253c75.183,43.151 131.668,87.335 162.239,128.934c18.899,25.717 27.766,49.782 21.911,71.631c-5.854,21.849 -25.565,38.257 -54.791,51.079c-47.275,20.74 -118.284,30.762 -204.97,30.541c-125.773,-0.321 -283.898,-22.557 -451.236,-67.395c-167.339,-44.838 -315.397,-104.644 -424.48,-167.253c-75.183,-43.151 -131.667,-87.335 -162.238,-128.934c-18.9,-25.717 -27.766,-49.782 -21.912,-71.631c5.855,-21.849 25.565,-38.256 54.791,-51.078c47.275,-20.741 118.284,-30.763 204.97,-30.542c125.773,0.321 283.898,22.557 451.237,67.395l-0,0Z" style="fill:#7e4021;"/><path d="M552.807,1792.52c0.004,-0.536 206.039,-94.723 245.886,-309.97c10.477,-56.594 2.443,-115.363 -37.44,-159.306c-43.022,-47.401 -76.923,-27.802 -97.703,-47.4c-61.619,-58.114 -78.059,-150.548 -176.725,-171.838c-7.047,-1.52 -14.159,-2.042 -21.33,-1.044c-26.064,3.625 -47.322,21.405 -55.394,46.254c-5.566,17.136 -7.846,37.004 -1.829,54.325c2.032,5.851 -72.251,-8.108 -110.816,5.644c-48.719,17.372 -44.924,79.033 -51.081,80.904c-7.972,2.422 -57.652,-30.225 -94.284,16.648c-29.727,38.039 -8.746,67.254 -19.393,78.353c-1.292,1.347 -69.258,-29.317 -99.829,41.752c-98.059,227.962 288.477,470.442 519.938,365.678Z" style="fill:#fff;"/><path d="M388.309,1187.59c-7.765,-0.384 -17.506,-0.823 -26.758,-1.124c-23.711,-0.773 -50.652,0.23 -69.693,7.02c-27.255,9.719 -41.598,30.288 -49.489,50.515c-3.323,8.516 -5.892,18.456 -7.59,26.035c-21.138,-5.316 -66.532,-11.038 -95.82,26.439c-18.028,23.067 -20.625,43.479 -20.384,59.787c0.039,2.678 0.126,5.739 0.23,8.634c-16.402,-2.82 -41.053,-3.822 -63.613,9.702c-14.096,8.45 -27.653,22.456 -37.633,45.658c-41.985,97.604 -2.481,198.123 77.7,275.918c116.945,113.463 319.879,176.952 464.42,111.529c0.44,-0.199 0.868,-0.415 1.281,-0.654c0.5,-0.252 2.765,-1.395 5.36,-2.747c35.004,-18.245 211.555,-117.737 248.762,-318.718c11.423,-61.707 1.999,-125.629 -41.488,-173.541c-29.517,-32.523 -55.24,-37.539 -76.26,-41.128c-8.708,-1.487 -16.443,-1.626 -22.349,-7.196c-30.056,-28.347 -48.894,-65.212 -72.449,-97.438c-26.432,-36.161 -58.192,-66.914 -112.195,-78.566c-8.967,-1.935 -18.019,-2.53 -27.142,-1.261c-32.452,4.514 -58.9,26.675 -68.949,57.613c-4.443,13.675 -6.926,28.812 -5.941,43.523Zm157.409,589.842c-133.183,60.138 -319.521,-0.663 -427.247,-105.182c-69.637,-67.563 -106.755,-154.054 -70.292,-238.822c6.528,-15.176 14.931,-24.713 24.151,-30.24c21.888,-13.121 46.798,-4.329 53.685,-2.445c11.207,3.067 17.645,-3.004 18.71,-4.115c5.972,-6.226 8.406,-15.039 7.89,-26.892c-0.531,-12.203 -4.557,-30.772 12.608,-52.736c22.943,-29.358 52.759,-17.24 66.83,-12.842c9.081,2.839 15.946,2.857 19.168,1.878c2.961,-0.9 5.974,-2.599 8.6,-5.719c1.827,-2.171 4.28,-6.937 5.844,-14.171c1.697,-7.85 3.604,-21.403 9.667,-34.527c5.004,-10.83 13.126,-21.531 27.722,-26.736c19.046,-6.792 47.651,-5.719 69.614,-4.574c17.965,0.937 32.337,1.753 37.229,0.799c7.998,-1.562 11.527,-6.298 13.142,-9.405c2.113,-4.062 2.732,-8.579 0.977,-13.631c-4.843,-13.941 -2.544,-29.914 1.936,-43.707c6.094,-18.759 22.162,-32.158 41.84,-34.896c5.218,-0.726 10.389,-0.278 15.518,0.829c44.663,9.638 70.455,35.746 92.315,65.653c24.736,33.842 44.927,72.25 76.49,102.018c8.596,8.107 18.61,11.811 30.315,14.143c17.358,3.458 40.087,3.252 66.482,32.333c36.28,39.974 42.923,93.589 33.393,145.071c-34.519,186.464 -198.916,278.3 -231.392,295.227c-2.336,1.217 -4.09,2.114 -5.195,2.689Z" style="fill:#7e4021;"/><path d="M708.487,1273.81c-56.161,-10.333 -97.123,-1.194 -111.556,1.912c-48.886,10.521 -108.565,26.823 -156.39,56.19c-33.789,20.749 -61.711,47.977 -77.109,83.634c-11.297,26.161 -11.361,48.978 -4.545,68.141c6.807,19.141 20.73,34.881 38.923,46.554c33.461,21.469 81.675,28.868 120.01,20.23c31.19,-7.028 59.965,-19.293 87.514,-35.309c7.952,-4.624 10.655,-14.833 6.031,-22.786c-4.623,-7.952 -14.833,-10.655 -22.785,-6.032c-24.592,14.298 -50.244,25.335 -78.088,31.609c-30.234,6.813 -68.291,1.165 -94.681,-15.767c-11.733,-7.528 -21.128,-17.325 -25.518,-29.669c-4.383,-12.323 -3.524,-26.933 3.741,-43.756c15.994,-37.037 48.995,-62.38 86.545,-80.843c39.943,-19.641 85.203,-31.395 123.365,-39.609c12.746,-2.742 48.917,-10.841 98.511,-1.716c9.047,1.665 17.743,-4.329 19.407,-13.375c1.665,-9.047 -4.329,-17.743 -13.375,-19.408Z" style="fill:#7e4021;"/><path d="M118.379,1399.42c6.155,4.243 63.272,43.634 68.207,47.687c28.88,23.716 67.018,57.027 90.52,95.164c14.184,23.015 23.078,47.771 19.294,73.184c-1,6.714 -2.918,11.506 -6.691,14.147c-6.987,4.892 -17.197,3.251 -28.454,0.265c-38.595,-10.241 -86.736,-45.272 -100.086,-61.18c-5.913,-7.046 -16.434,-7.966 -23.48,-2.053c-7.046,5.913 -7.967,16.434 -2.053,23.48c15.639,18.637 71.855,59.974 117.071,71.971c22.294,5.915 42.279,4.513 56.119,-5.176c10.107,-7.075 17.865,-18.558 20.544,-36.545c4.925,-33.081 -5.423,-65.622 -23.886,-95.581c-25.466,-41.323 -66.451,-77.739 -97.743,-103.436c-5.111,-4.197 -48.315,-37.495 -69.333,-49.239c-6.751,-3.773 -12.314,-5.579 -15.446,-5.924c-3.526,-0.388 -6.401,0.163 -8.636,0.969c-8.653,3.121 -13.144,12.68 -10.023,21.333c2.255,6.251 7.869,10.33 14.076,10.934Z" style="fill:#7e4021;"/><path d="M235.57,1301.44c4.362,4.552 50.659,52.881 54.659,57.265c25.499,27.947 50.711,53.082 64.948,76.326c-2.135,15.119 -2.936,43.931 13.738,68.778c8.048,13.111 17.592,21.15 26.296,27.942c6.801,5.306 13.92,8.259 13.831,18.234c-0.1,11.252 -9.631,16.628 -20.35,20.078c-22.564,7.262 -53.08,5.158 -65.048,-0.955c-8.192,-4.185 -18.24,-0.931 -22.424,7.261c-4.185,8.191 -0.931,18.239 7.261,22.424c16.643,8.502 59.044,13.1 90.423,3c25.272,-8.133 43.234,-24.982 43.47,-51.511c0.148,-16.637 -6.005,-26.64 -15.221,-35.368c-8.181,-7.748 -20.679,-13.487 -29.983,-28.792c-0.144,-0.236 -0.293,-0.469 -0.448,-0.697c-13.277,-19.577 -8.443,-48.425 -8.399,-48.684c1.414,-4.358 0.976,-9.143 -1.27,-13.204c-14.572,-26.342 -42.991,-55.285 -72.2,-87.299c-4.502,-4.935 -47.324,-52.328 -59.244,-61.529c-6.28,-4.847 -11.829,-5.077 -14.058,-4.913c-9.174,0.678 -16.071,8.676 -15.394,17.849c0.455,6.162 4.213,11.297 9.413,13.795Z" style="fill:#7e4021;"/><path d="M172.796,1603.61c-2.71,1.266 -6.58,1.36 -10.461,1.654c-6.719,0.509 -13.563,0.787 -18.786,1.763c-9.042,1.69 -15.011,10.403 -13.321,19.445c1.69,9.042 10.403,15.011 19.445,13.321c5.285,-0.988 12.555,-0.965 19.228,-1.646c6.812,-0.695 13.163,-2.075 18.008,-4.339c8.333,-3.894 11.937,-13.822 8.042,-22.156c-3.894,-8.333 -13.822,-11.937 -22.155,-8.042Z" style="fill:#7e4021;"/><path d="M398.059,1222.87c3.427,3.306 15.96,15.406 17.168,16.645c23.254,23.839 42.843,50.074 59.44,78.902c4.59,7.972 14.788,10.718 22.76,6.128c7.972,-4.589 10.718,-14.788 6.128,-22.759c-17.997,-31.26 -39.252,-59.697 -64.466,-85.546c-1.783,-1.828 -15.911,-16.897 -23.279,-21.855c-9.235,-6.216 -17.548,-3.977 -21.17,-1.899c-7.977,4.58 -10.736,14.775 -6.156,22.752c2.192,3.818 5.67,6.441 9.575,7.632Zm11.562,-0.662l-0.093,0.038l0.069,-0.027l0.024,-0.011Zm0.833,-0.392l-0.168,0.08l0.147,-0.069l0.021,-0.011Z" style="fill:#7e4021;"/><path d="M534.054,1544.42c0.232,-0.804 0.407,-1.635 0.518,-2.49c1.279,-9.826 -4.646,-13.919 -5.33,-14.54c-1.612,-1.462 -21.294,-10.95 -27.095,7.338c-0.179,0.567 -1.506,6.363 -1.695,7.58c-1.003,6.456 -1.054,13.048 -0.629,19.553c1.043,15.987 2.461,32.839 6.007,48.469c2.035,8.97 10.97,14.601 19.941,12.566c8.971,-2.036 14.601,-10.971 12.566,-19.942c-3.164,-13.947 -4.321,-28.998 -5.252,-43.265c-0.266,-4.078 -0.324,-8.214 0.305,-12.262c0.061,-0.393 0.475,-2.196 0.664,-3.007Zm-6.53,9.063c-1.296,0.897 -2.721,1.614 -4.232,2.117c1.354,-0.432 2.79,-1.093 4.232,-2.117Zm-19.915,-0.71c-4.375,-3.522 -6.869,-9.172 -6.092,-15.145c-1.027,7.89 2.129,12.488 6.092,15.145Z" style="fill:#7e4021;"/><path d="M2636.25,4291.18c-27.375,19.183 -33.839,67.176 -34.036,99.32c-0.24,39.177 -16.371,68.66 -35.575,102.367c-41.396,72.66 -174.332,93.344 -171.115,189.335c2.34,69.834 74.508,118.908 138.565,119.843c23.925,0.349 34.792,-8.232 43.452,-5.207c0.65,0.227 -0.603,25.839 -0.536,27.837c0.583,17.391 8.623,42.095 4.438,58.803c-1.831,7.311 -107.415,53.035 -120.418,61.472c-80.978,52.543 -137.02,134.253 -137.38,232.819c-0.512,139.943 109.16,274.275 254.03,274.744c112.074,0.363 334.363,-98.336 403.072,-192.662c117.411,-161.189 152.524,-600.838 21.95,-765.74c-38.845,-49.056 -96.451,-79.951 -160.305,-79.065c-10.931,0.152 -40.858,-2.197 -48.032,-3.318c-6.219,-0.972 -49.043,-196.978 -158.11,-120.548Z" style="fill:#a8b54b;"/><path d="M2560.56,4815.82c-0.132,4.721 -0.229,8.742 -0.206,9.415c0.31,9.251 2.521,20.458 4.181,31.563c0.929,6.221 1.829,12.398 1.458,17.867c-22.711,14.075 -102.837,49.04 -114.034,56.306c-85.725,55.623 -144.593,142.394 -144.975,246.739c-0.544,148.755 116.651,290.973 270.643,291.472c57.834,0.187 144.214,-24.794 224.891,-62.382c81.027,-37.752 156.096,-88.247 191.706,-137.135c72.037,-98.895 114.603,-300.114 107.629,-481.836c-4.7,-122.472 -32.092,-235.876 -86.084,-304.062c-42.044,-53.097 -104.49,-86.343 -173.602,-85.384c-7.707,0.107 -25.444,-1.104 -36.703,-2.162c-7.144,-19.173 -21.907,-62.882 -46.165,-95.298c-17.994,-24.046 -41.193,-41.769 -69.159,-43.878c-18.646,-1.407 -39.85,3.951 -63.448,20.488l-0.001,-0c-13.569,9.509 -23.376,24.461 -29.815,41.853c-8.474,22.89 -11.194,50.043 -11.322,71.014c-0.222,36.135 -15.677,63.128 -33.39,94.218c-19.56,34.333 -61.362,55.647 -97.279,80.456c-42.863,29.607 -77.827,63.559 -76.013,117.688c2.634,78.585 82.896,134.898 154.98,135.95c11.036,0.161 19.677,-1.281 26.708,-2.892Zm85.261,-510.989c15.668,-10.98 29.431,-15.481 41.812,-14.547c13.99,1.055 25.647,9.008 35.697,19.555c11.865,12.452 21.424,28.6 29.137,44.355c14.736,30.099 23.197,59.09 26.564,64.885c4.185,7.204 9.932,8.676 12.762,9.118c7.593,1.186 39.268,3.677 50.836,3.516c58.595,-0.813 111.362,27.73 147.007,72.746c50.468,63.736 74.515,170.171 78.908,284.649c6.667,173.703 -32.405,366.4 -101.263,460.932c-33.099,45.439 -103.528,91.456 -178.841,126.545c-75.664,35.252 -156.465,59.439 -210.705,59.263c-135.749,-0.439 -237.897,-126.884 -237.418,-258.016c0.34,-92.788 53.555,-169.436 129.785,-218.899c10.303,-6.685 79.333,-36.915 107.443,-52.482c7.787,-4.312 13.088,-8.14 15.243,-10.393c3.029,-3.166 4.263,-6.272 4.828,-8.528c2.114,-8.439 2.033,-18.486 0.798,-28.918c-1.411,-11.913 -4.409,-24.463 -4.745,-34.493c-0.062,-1.83 0.93,-23.13 0.654,-27.539c-0.728,-11.62 -9.711,-14.926 -11.279,-15.474c-5.181,-1.81 -10.744,-2.031 -17.302,-0.781c-6.937,1.323 -16.261,5.278 -31.404,5.057c-56.034,-0.818 -120.104,-42.649 -122.151,-103.737c-1.403,-41.873 28.484,-66.24 61.643,-89.144c40.098,-27.697 85.46,-53.052 107.297,-91.382c20.694,-36.324 37.5,-68.296 37.759,-110.515c0.108,-17.602 2.137,-40.432 9.25,-59.645c3.954,-10.679 9.353,-20.29 17.685,-26.128l-0,-0Z" style="fill:#7e4021;"/><path d="M2913.33,4458.5c0.311,0.426 3.731,5.143 5.41,8.382c5.141,9.925 9.415,21.927 12.219,27.712c50.366,103.915 72.855,212.531 74.517,327.809c0.132,9.198 7.707,16.558 16.905,16.425c9.198,-0.132 16.557,-7.707 16.425,-16.905c-1.733,-120.232 -25.321,-233.487 -77.851,-341.868c-3.455,-7.128 -9.142,-23.143 -15.805,-34.24c-4.452,-7.415 -9.684,-12.984 -14.614,-15.854c-7.95,-4.628 -18.161,-1.932 -22.789,6.017c-4.543,7.802 -2.03,17.784 5.583,22.522Z" style="fill:#7e4021;"/><path d="M2971.03,5087.65c-0.705,2.392 -6.251,21.231 -7.5,25.809c-24.872,91.196 -71.229,173.029 -136.013,241.532c-6.32,6.683 -6.026,17.24 0.658,23.561c6.683,6.32 17.24,6.025 23.561,-0.658c68.572,-72.509 117.626,-159.134 143.953,-255.664c1.408,-5.162 6.501,-17.857 8.097,-27.624c1.36,-8.323 0.204,-15.493 -2.246,-20.079c-4.335,-8.113 -14.442,-11.18 -22.555,-6.845c-7.27,3.885 -10.488,12.404 -7.955,19.968Z" style="fill:#7e4021;"/><path d="M2792.32,4968.53c1.384,1.136 2.979,2.063 4.752,2.718c12.133,4.488 17.899,-3.992 18.676,-4.923c2.508,-3.004 3.899,-6.565 3.873,-10.787c-0.015,-2.289 -0.187,-7.376 -5.378,-12.161c-0.149,-0.137 -1.067,-0.793 -1.925,-1.399c-21.33,-18.866 -47.485,-32.659 -73.082,-44.565c-52.975,-24.64 -108.364,-31.93 -165.9,-22.935c-9.088,1.421 -15.313,9.953 -13.892,19.041c1.421,9.088 9.953,15.313 19.041,13.892c50.872,-7.953 99.853,-1.56 146.693,20.226c22.912,10.657 46.496,22.747 65.513,39.709c0.241,0.216 0.923,0.701 1.629,1.184Z" style="fill:#7e4021;"/><path d="M2574.37,4811.35c21.543,-5.225 43.699,-21.673 62.892,-41.276c25.969,-26.525 46.734,-58.274 53.512,-67.409c5.481,-7.387 3.934,-17.834 -3.453,-23.315c-7.387,-5.482 -17.835,-3.934 -23.316,3.453c-6.421,8.653 -25.963,38.827 -50.561,63.951c-14.521,14.832 -30.633,28.249 -46.932,32.203c-8.94,2.168 -14.437,11.186 -12.268,20.126c2.168,8.939 11.186,14.436 20.126,12.267Z" style="fill:#7e4021;"/><path d="M2771.85,4517.47c37.708,-40.147 34.375,-88.716 36.304,-102.539c1.272,-9.11 -5.092,-17.539 -14.203,-18.81c-9.11,-1.272 -17.539,5.092 -18.81,14.202c-1.574,11.274 3.17,51.58 -27.588,84.326c-6.297,6.705 -5.967,17.261 0.738,23.559c6.705,6.297 17.261,5.967 23.559,-0.738Z" style="fill:#7e4021;"/><path d="M1556.59,3462.62c-79.804,226.225 -78.672,241.097 -80.699,248.562c-71.079,261.756 258.125,418.914 309.142,451.584c89.298,57.183 730.081,395.05 764.454,343.972c39.33,-58.443 92.786,-108.048 35.782,-138.517c-60.699,-32.443 -441.863,-234.563 -553.067,-303.757c-138.949,-86.458 -271.068,-154.385 -251.963,-423.489c0.75,-10.564 -3.273,-49.632 -2.048,-60.83" style="fill:#e3b198;"/><path d="M2537.38,4494.93c-2.393,0.119 -8.122,0.296 -12.939,-0.373c-13.644,-1.896 -31.914,-6.921 -53.755,-14.281c-183.507,-61.838 -605.603,-286.043 -676.658,-331.544c-25.175,-16.121 -119.091,-62.812 -197.843,-137.91c-75.679,-72.17 -137.91,-171.14 -104.203,-295.27c2.018,-7.43 0.905,-22.228 80.332,-247.386c3.06,-8.674 -1.498,-18.201 -10.173,-21.261c-8.674,-3.061 -18.202,1.498 -21.262,10.172c-80.18,227.292 -79.029,242.239 -81.065,249.739c-30.023,110.563 7.128,203.563 66.513,277.437c85.815,106.753 218.586,172.609 249.725,192.55c71.822,45.992 498.503,272.556 683.99,335.062c35.127,11.837 62.382,17.682 78.067,16.643c12.869,-0.851 20.916,-6.079 25.212,-12.463c20.172,-29.974 43.806,-57.79 55.248,-81.911c7.455,-15.716 10.087,-30.398 6.892,-43.563c-3.303,-13.609 -12.636,-26.52 -32.329,-37.046c-60.593,-32.388 -441.107,-234.136 -552.118,-303.21c-80.869,-50.318 -159.897,-93.535 -205.742,-176.945c-30.291,-55.112 -45.748,-127.728 -38.401,-231.213c0.742,-10.454 -3.317,-49.116 -2.105,-60.197c1,-9.144 -5.612,-17.38 -14.756,-18.38c-9.144,-1.001 -17.38,5.611 -18.38,14.755c-1.237,11.313 2.749,50.789 1.991,61.462c-7.937,111.799 9.714,190.089 42.44,249.629c48.68,88.57 131.472,135.76 217.343,189.191c111.397,69.314 493.211,271.805 554.015,304.305c8.825,4.717 14.169,9.413 15.649,15.511c1.587,6.539 -0.913,13.609 -4.616,21.415c-10.547,22.234 -32.294,47.574 -51.072,75.082Z" style="fill:#7e4021;"/><path d="M1248.02,5120.68c-34.659,-12.871 -79.429,-40.685 -97.429,-53.01c-48.203,-33.004 -91.289,-72.882 -129.725,-116.807c-90.984,-103.976 -205.96,-374.868 -375.04,-331.545c-41.933,10.745 -77.316,40.038 -98.992,77.458c-210.773,363.854 548.949,801.365 839.872,799.585c63.62,-0.389 146.389,-10.892 179.854,-66.876c76.358,-127.742 -176.951,-256.222 -318.54,-308.805Z" style="fill:#ffe6d8;"/><path d="M1253.82,5105.06c-33.387,-12.399 -76.475,-39.265 -93.815,-51.138c-47.048,-32.213 -89.083,-71.158 -126.599,-114.03c-54.768,-62.589 -118.298,-185.393 -196.923,-264.291c-56.741,-56.938 -121.345,-91.244 -194.795,-72.424c-46.238,11.847 -85.376,43.988 -109.278,85.249c-88.013,151.936 -16.689,316.926 123.339,459.197c204.438,207.713 553.695,366.493 731.057,365.409c40.146,-0.246 87.505,-4.558 126.601,-20.496c28.218,-11.504 52.215,-28.998 67.456,-54.496c34.597,-57.877 11.982,-116.522 -40.916,-169.111c-71.583,-71.164 -199.316,-131.629 -286.127,-163.869Zm-11.604,31.248c83.097,30.861 205.709,88.14 274.23,156.261c40.518,40.281 62.305,84.037 35.806,128.369c-14.61,24.441 -40.359,38.404 -69.023,46.85c-31.33,9.231 -66.269,11.725 -96.627,11.911c-171.746,1.05 -509.131,-154.322 -707.097,-355.459c-128.246,-130.301 -198.86,-279.953 -118.252,-419.106c19.452,-33.58 51.078,-60.025 88.708,-69.667c61.818,-15.839 115.157,15.743 162.911,63.663c78.113,78.384 141.037,200.531 195.449,262.713c39.357,44.976 83.495,85.788 132.852,119.583c18.66,12.777 65.112,41.538 101.043,54.882Z" style="fill:#7e4021;"/><path d="M888.118,5058.07c0,17.503 -14.21,31.713 -31.713,31.713c-17.502,0 -31.713,-14.21 -31.713,-31.713c0,-17.503 14.211,-31.713 31.713,-31.713c17.503,-0 31.713,14.21 31.713,31.713Z" style="fill:#7e4021;"/><path d="M1438.46,5284.81c-0,17.502 -14.21,31.713 -31.713,31.713c-17.503,-0 -31.713,-14.211 -31.713,-31.713c-0,-17.503 14.21,-31.713 31.713,-31.713c17.503,-0 31.713,14.21 31.713,31.713Z" style="fill:#7e4021;"/><path d="M787.262,4893.86c-0,17.503 -14.21,31.713 -31.713,31.713c-17.503,-0 -31.713,-14.21 -31.713,-31.713c-0,-17.503 14.21,-31.713 31.713,-31.713c17.503,-0 31.713,14.21 31.713,31.713Z" style="fill:#7e4021;"/><path d="M1106.83,5316.93c-0,17.503 -14.21,31.713 -31.713,31.713c-17.503,-0 -31.713,-14.21 -31.713,-31.713c-0,-17.503 14.21,-31.713 31.713,-31.713c17.503,-0 31.713,14.21 31.713,31.713Z" style="fill:#7e4021;"/><path d="M1273.18,5266.84c0,17.502 -14.21,31.713 -31.713,31.713c-17.503,-0 -31.713,-14.211 -31.713,-31.713c0,-17.503 14.21,-31.713 31.713,-31.713c17.503,-0 31.713,14.21 31.713,31.713Z" style="fill:#7e4021;"/><path d="M1410.95,5404.22c0,17.503 -14.21,31.713 -31.713,31.713c-17.503,-0 -31.713,-14.21 -31.713,-31.713c0,-17.503 14.21,-31.713 31.713,-31.713c17.503,-0 31.713,14.21 31.713,31.713Z" style="fill:#7e4021;"/><path d="M878.086,4773.25c-0,17.503 -14.21,31.713 -31.713,31.713c-17.503,-0 -31.713,-14.21 -31.713,-31.713c-0,-17.503 14.21,-31.713 31.713,-31.713c17.503,-0 31.713,14.21 31.713,31.713Z" style="fill:#7e4021;"/><path d="M1252.99,5404.45c0,17.134 -14.21,31.044 -31.713,31.044c-17.502,0 -31.713,-13.91 -31.713,-31.044c0,-17.134 14.211,-31.044 31.713,-31.044c17.503,-0 31.713,13.91 31.713,31.044Z" style="fill:#7e4021;"/><path d="M1030.52,5075.16c0,17.503 -14.21,31.713 -31.713,31.713c-17.503,-0 -31.713,-14.21 -31.713,-31.713c0,-17.503 14.21,-31.713 31.713,-31.713c17.503,-0 31.713,14.21 31.713,31.713Z" style="fill:#7e4021;"/><path d="M1211.77,5137.45c-0,17.502 -14.21,31.713 -31.713,31.713c-17.503,-0 -31.713,-14.211 -31.713,-31.713c-0,-17.503 14.21,-31.713 31.713,-31.713c17.503,-0 31.713,14.21 31.713,31.713Z" style="fill:#7e4021;"/><path d="M699.275,5039.66c-0,17.503 -14.21,31.713 -31.713,31.713c-17.503,0 -31.713,-14.21 -31.713,-31.713c-0,-17.503 14.21,-31.713 31.713,-31.713c17.503,-0 31.713,14.21 31.713,31.713Z" style="fill:#7e4021;"/><path d="M888.374,5243.55c-0,17.503 -14.21,31.713 -31.713,31.713c-17.503,-0 -31.713,-14.21 -31.713,-31.713c-0,-17.503 14.21,-31.713 31.713,-31.713c17.503,-0 31.713,14.21 31.713,31.713Z" style="fill:#7e4021;"/><path d="M951.872,4959.9c-0,17.503 -14.21,31.713 -31.713,31.713c-17.503,-0 -31.713,-14.21 -31.713,-31.713c-0,-17.503 14.21,-31.713 31.713,-31.713c17.503,-0 31.713,14.21 31.713,31.713Z" style="fill:#7e4021;"/><path d="M1571.56,5392.06c0,17.503 -14.21,31.713 -31.713,31.713c-17.503,-0 -31.713,-14.21 -31.713,-31.713c0,-17.503 14.21,-31.713 31.713,-31.713c17.503,-0 31.713,14.21 31.713,31.713Z" style="fill:#7e4021;"/><path d="M733.818,4730.1c-0,17.503 -14.211,31.713 -31.713,31.713c-17.503,-0 -31.714,-14.21 -31.714,-31.713c0,-17.503 14.211,-31.713 31.714,-31.713c17.502,-0 31.713,14.21 31.713,31.713Z" style="fill:#7e4021;"/><path d="M1081.43,5183.15c0,17.503 -14.21,31.713 -31.713,31.713c-17.503,-0 -31.713,-14.21 -31.713,-31.713c0,-17.503 14.21,-31.713 31.713,-31.713c17.503,-0 31.713,14.21 31.713,31.713Z" style="fill:#7e4021;"/><path d="M640.952,4827.76c0,17.503 -14.21,31.713 -31.713,31.713c-17.503,-0 -31.713,-14.21 -31.713,-31.713c0,-17.503 14.21,-31.713 31.713,-31.713c17.503,-0 31.713,14.21 31.713,31.713Z" style="fill:#7e4021;"/><path d="M612.539,4950.26c-0,17.502 -14.21,31.713 -31.713,31.713c-17.503,-0 -31.713,-14.211 -31.713,-31.713c-0,-17.503 14.21,-31.713 31.713,-31.713c17.503,-0 31.713,14.21 31.713,31.713Z" style="fill:#7e4021;"/><path d="M760.065,5161.1c0,17.503 -14.21,31.713 -31.713,31.713c-17.503,0 -31.713,-14.21 -31.713,-31.713c0,-17.503 14.21,-31.713 31.713,-31.713c17.503,0 31.713,14.21 31.713,31.713Z" style="fill:#7e4021;"/><path d="M516.902,4767.62c1.803,-0.671 -6.045,-66.717 31.804,-165.251c41.847,-108.939 138.161,-176.431 257.362,-167.484c199.328,14.961 324.35,204.775 399.086,370.984c14.903,33.144 30.189,99.209 62.481,121.304c1.835,1.256 -8.469,-36.66 -10.153,-41.843c-10.505,-32.327 -23.708,-75.226 -0.43,-105.235c47.117,-60.743 155.086,-48.703 215.553,-20.892c58.787,27.038 244.127,110.639 192.734,195.465c-19.032,31.412 -56.094,51.227 -91.058,58.571c-4.622,0.971 -32.603,2.064 -31.187,7.27c9.916,36.462 49.384,53.304 64.982,125.234c33.889,156.275 -29.793,259.622 -29.584,257.951c8.42,-67.416 -13.317,-79.997 -25.787,-96.305c-36.326,-47.505 -85.839,-88.003 -139.603,-112.852c-111.91,-51.722 -238.678,-101.132 -333.077,-182.619c-89.667,-77.403 -204.54,-331.69 -341.617,-387.852c-69.864,-28.623 -190.489,2.764 -221.506,143.554Z" style="fill:#a8b54b;"/><path d="M500.54,4764.5c-0.147,-6.491 -1.012,-80.584 32.608,-168.106c44.557,-115.997 147.244,-187.654 274.167,-178.128c205.506,15.425 335.987,209.409 413.039,380.769c2.369,5.269 4.746,11.372 7.197,18.001c0.722,-16.965 5.465,-33.146 16.331,-47.155c21.472,-27.681 53.783,-42.572 89.539,-47.876c50.313,-7.463 107.375,4.224 146.149,22.057c36.259,16.677 119.204,54.54 168.467,100.795c38.47,36.122 56.311,77.589 31.556,118.448c-21.362,35.26 -62.64,58.002 -101.886,66.246c-1.432,0.3 -6.555,1.013 -11.838,1.71c3.699,6.106 8.295,11.918 13.132,18.246c16.141,21.116 35.297,46.283 45.363,92.705c31.931,147.247 -19.455,249.548 -29.777,267.273c-4.384,7.528 -9.438,9.52 -9.859,9.689c-7.149,2.878 -12.468,0.689 -16.217,-2.115c-2.921,-2.186 -7.662,-6.586 -6.557,-15.43c3.661,-29.314 1.369,-46.749 -3.797,-58.585c-5.275,-12.085 -13.155,-18.29 -18.691,-25.53c-34.706,-45.387 -81.99,-84.106 -133.357,-107.847c-113.272,-52.352 -241.426,-102.652 -336.975,-185.132c-45.539,-39.31 -97.764,-123.321 -155.723,-204.851c-55.075,-77.473 -115.169,-153.091 -181.322,-180.194c-63.144,-25.871 -170.877,4.468 -198.911,131.717l-0.025,-0.022c-2.235,8.694 -8.977,11.512 -10.439,12.056c-5.719,2.128 -12.143,0.961 -16.748,-3.043c-4.485,-3.9 -6.545,-9.884 -5.426,-15.698Zm1088.84,566.804c-0.222,-0.54 -0.447,-1.071 -0.676,-1.594c-6.607,-15.138 -15.828,-23.375 -22.762,-32.444c-37.946,-49.623 -89.689,-91.9 -145.851,-117.857c-110.547,-51.092 -235.929,-99.611 -329.179,-180.107c-53.22,-45.941 -115.117,-155.1 -185.649,-246.896c-49.521,-64.451 -103.415,-120.357 -160.539,-143.761c-56.124,-22.994 -142.815,-11.725 -198.507,56.668c4.314,-17.32 10.149,-36.412 18.045,-56.966c39.135,-101.883 129.076,-165.208 240.556,-156.841c193.154,14.497 312.711,200.138 385.132,361.199c8.978,19.967 18.114,51.827 30.974,78.918c9.932,20.923 22.272,39.026 37.296,49.306c4.078,2.79 7.928,3.161 11.05,2.87c3.586,-0.336 6.874,-1.692 9.747,-4.321c1.613,-1.476 6.005,-5.726 5.453,-14.124c-0.381,-5.786 -9.477,-40.055 -11.14,-45.174c-4.9,-15.077 -10.548,-32.591 -12.138,-49.863c-1.313,-14.268 0.058,-28.445 9.026,-40.006c16.222,-20.914 41.076,-31.326 68.091,-35.333c43.842,-6.503 93.542,3.828 127.329,19.368c34.284,15.768 113.001,51.077 159.579,94.811c25.456,23.902 42.244,49.84 25.864,76.875c-16.701,27.567 -49.546,44.452 -80.229,50.897c-4.149,0.872 -24.979,2.391 -32.369,5.731c-11.801,5.334 -13.504,14.76 -11.475,22.224c4.528,16.649 14.087,29.925 25.507,44.866c13.871,18.146 30.619,39.633 39.27,79.526c16.479,75.992 8.936,138.872 -2.405,182.028Z" style="fill:#7e4021;"/><path d="M1318.38,4950.6c-31.319,-17.137 -47.965,-48.573 -57.853,-82.68c-2.562,-8.834 -11.814,-13.928 -20.649,-11.366c-8.834,2.561 -13.928,11.814 -11.366,20.648c12.391,42.741 34.619,81.164 73.866,102.64c8.07,4.416 18.206,1.449 22.622,-6.62c4.415,-8.07 1.449,-18.206 -6.62,-22.622Z" style="fill:#7e4021;"/><path d="M1490.04,5017.24c4.456,2.352 8.871,4.795 13.272,7.247c11.642,6.487 29.008,19.985 39.565,28.145c7.277,5.625 17.753,4.284 23.379,-2.993c5.626,-7.278 4.285,-17.754 -2.993,-23.38c-11.64,-8.997 -30.89,-23.738 -43.727,-30.89c-4.621,-2.575 -9.258,-5.139 -13.936,-7.608c-8.136,-4.294 -18.226,-1.175 -22.52,6.96c-4.293,8.135 -1.175,18.225 6.96,22.519Z" style="fill:#7e4021;"/><path d="M561.925,4621.03c10.676,-11.43 27.201,-20.016 45.33,-26.624c29.391,-10.713 63.133,-15.866 87.094,-16.345c9.197,-0.184 16.515,-7.8 16.331,-16.997c-0.184,-9.196 -7.8,-16.514 -16.997,-16.33c-46.001,0.92 -122.892,17.971 -156.118,53.543c-6.279,6.722 -5.919,17.278 0.804,23.557c6.722,6.278 17.277,5.918 23.556,-0.804Z" style="fill:#7e4021;"/><path d="M784.126,4560.34c-5.296,-3.142 -12.14,-3.216 -17.637,0.38c-0.885,0.579 -15.255,19.604 1.423,28.752c1.931,1.059 12.103,6.142 14.173,7.257c8.512,4.585 16.625,9.815 24.847,14.889c7.828,4.831 18.105,2.398 22.936,-5.43c4.831,-7.827 2.398,-18.105 -5.429,-22.936c-8.779,-5.418 -17.457,-10.974 -26.546,-15.87c-1.888,-1.016 -12.253,-6.275 -13.767,-7.042Z" style="fill:#7e4021;"/><path d="M1024.86,4821.76c-0.845,-2.323 -2.223,-4.491 -4.128,-6.313c-6.646,-6.36 -17.205,-6.127 -23.564,0.52c-2.457,2.568 -6.867,8.478 -3.621,17.618c1.096,3.086 9.554,15.323 10.241,16.314c29.511,42.54 60.004,83.969 96.699,120.703c6.501,6.507 17.062,6.513 23.57,0.012c6.508,-6.501 6.513,-17.062 0.012,-23.57c-35.286,-35.324 -64.514,-75.238 -92.892,-116.145l-6.317,-9.139Z" style="fill:#7e4021;"/><path d="M1346.46,5115.78c122.553,52.225 195.7,97.738 249.131,174.888c5.237,7.562 15.628,9.449 23.19,4.212c7.562,-5.237 9.45,-15.628 4.213,-23.191c-56.67,-81.826 -133.484,-131.183 -263.466,-186.574c-8.463,-3.607 -18.261,0.336 -21.867,8.798c-3.606,8.463 0.337,18.261 8.799,21.867Z" style="fill:#7e4021;"/><path d="M1159.73,4978.68c-4.099,-5.115 -11.027,-7.534 -17.702,-5.575c-3.092,0.907 -20.13,12.197 -8.017,26.838c1.247,1.507 8.745,8.735 9.27,9.202c5.422,4.834 10.954,9.419 16.77,13.774c16.183,12.118 31.79,23.696 49.517,33.494c8.051,4.45 18.2,1.527 22.649,-6.524c4.45,-8.051 1.527,-18.199 -6.524,-22.649c-16.367,-9.047 -30.722,-19.815 -45.662,-31.003c-5.054,-3.784 -9.857,-7.772 -14.568,-11.973c-0.28,-0.249 -4.583,-4.458 -5.733,-5.584Z" style="fill:#7e4021;"/><path d="M1748.59,3538.81c-74.078,226.024 -150.067,608.361 -305.805,1195.08c-7.05,26.56 -1.238,-14.886 164.239,95.144c31.653,21.047 232.963,-871.355 330.723,-1237.98" style="fill:#e3b198;"/><path d="M1604,4807.11c-79.394,-51.588 -124.768,-68.995 -143.598,-74.645c154.593,-583.005 230.24,-963.333 304.024,-1188.46c2.865,-8.742 -1.906,-18.164 -10.647,-21.029c-8.741,-2.865 -18.163,1.906 -21.028,10.647c-74.136,226.199 -150.219,608.822 -306.077,1196c-1.562,5.885 -2.345,9.63 -2.366,12.136c-0.037,4.383 1.114,7.803 2.985,10.779c1.932,3.073 4.876,6.115 10.432,8.32c9.531,3.784 46.43,6.503 160.069,82.064c5.245,3.488 11.02,4.303 17.372,1.832c2.881,-1.121 6.458,-3.341 9.919,-7.591c3.193,-3.92 7.221,-11.02 11.578,-21.227c56.674,-132.775 229.037,-889.995 317.186,-1220.58c2.37,-8.888 -2.922,-18.028 -11.81,-20.398c-8.888,-2.37 -18.028,2.922 -20.398,11.81c-78.165,293.136 -222.547,922.594 -293.378,1151.88c-8.305,26.882 -15.551,48.142 -21.55,62.52c-0.841,2.018 -1.784,4.053 -2.713,5.943Z" style="fill:#7e4021;"/><path d="M2932.29,2436.27c92.383,78.334 210.401,186.899 243.046,278.095c36.177,101.067 -52.163,244.929 -90.571,308.713c-18.967,31.499 -54.29,67.33 -65.405,102.834c-17.223,55.014 54.043,137.33 117.011,117.847c15.21,-4.706 39.244,-29.415 44.421,-34.413c151.266,-146.041 237.252,-395.342 192.42,-531.893c-71.521,-217.844 -289.637,-394.032 -385.187,-422.13" style="fill:#ffdab8;"/><path d="M2921.51,2448.99c90.238,76.515 206.247,181.921 238.133,271c13.339,37.263 7.667,80.81 -5.431,123.447c-20.871,67.94 -61.162,133.578 -83.726,171.051c-19.579,32.514 -55.559,69.805 -67.032,106.453c-10.191,32.553 4.347,73.648 32.199,103.258c27.95,29.714 68.253,47.059 105.643,35.49c17.288,-5.349 45.187,-32.664 51.071,-38.345c92.941,-89.73 161.874,-217.497 192.187,-335.582c20.637,-80.39 23.244,-156.383 4.492,-213.5c-73.458,-223.744 -298.182,-404.062 -396.32,-432.92c-8.825,-2.595 -18.097,2.462 -20.692,11.287c-2.595,8.825 2.463,18.097 11.288,20.692c92.963,27.337 304.47,199.394 374.054,411.339c17.113,52.124 13.724,121.451 -5.108,194.813c-28.891,112.542 -94.476,234.373 -183.053,319.891c-2.961,2.858 -12.373,12.501 -22.577,20.711c-5.304,4.268 -10.672,8.371 -15.195,9.77c-25.584,7.916 -52.385,-6.152 -71.51,-26.484c-19.224,-20.438 -31.702,-47.993 -24.668,-70.461c10.757,-34.361 45.42,-68.732 63.777,-99.217c23.525,-39.068 65.275,-107.626 87.034,-178.458c15.322,-49.878 20.555,-100.877 4.951,-144.469c-33.403,-93.314 -153.431,-205.037 -247.96,-285.19c-7.016,-5.949 -17.542,-5.083 -23.49,1.933c-5.949,7.016 -5.083,17.542 1.933,23.491Z" style="fill:#7e4021;"/><path d="M2940.78,3097.2c-9.605,29.576 42.541,170.894 184.559,220.496c18.32,6.398 45.601,2.153 60.538,-11.035c4.08,-3.601 7.102,-8.059 9.15,-13.135c17.052,-42.27 1.313,-101.32 -41.434,-160.257c-47.089,-64.924 -179.985,-137.158 -212.813,-36.069Z" style="fill:#fff;"/><path d="M2924.93,3092.05c-3.491,10.75 -1.822,33.936 9.074,62.401c22.191,57.97 80.71,142.258 185.842,178.976c23.332,8.15 58.038,2.522 77.064,-14.274c6.033,-5.326 10.547,-11.888 13.576,-19.395c18.701,-46.359 3.483,-111.638 -43.399,-176.277c-30.624,-42.222 -94.977,-86.896 -149.047,-92.533c-20.418,-2.129 -39.506,1.058 -55.572,10.632c-16.082,9.584 -29.468,25.62 -37.538,50.47Zm31.704,10.295c5.062,-15.588 12.81,-26.119 22.898,-32.13c15.873,-9.459 36.356,-7.903 57.326,-1.334c39.922,12.507 81.494,44.181 103.245,74.171c38.618,53.244 54.875,106.049 39.47,144.235c-1.067,2.646 -2.598,5 -4.724,6.877c-10.85,9.579 -30.706,12.442 -44.012,7.794c-93.694,-32.724 -145.925,-107.76 -165.702,-159.424c-4.771,-12.462 -7.625,-23.448 -8.519,-31.956c-0.367,-3.489 -0.609,-6.303 0.018,-8.233Z" style="fill:#7e4021;"/><path d="M3100.3,3203.07c-84.111,-106.298 -200.199,-196.419 -414.263,-150.637c-43.329,9.267 -106.344,21.559 -124.651,64.076c-25.316,58.796 -1.686,75.155 -15.16,100.342c-39.954,74.685 -124.858,114.753 -119.572,215.551c0.378,7.2 1.737,14.2 4.577,20.859c10.324,24.207 33.049,40.068 59.145,41.352c17.995,0.885 37.767,-2.116 52.908,-12.459c5.115,-3.493 11.092,71.854 34.462,105.473c29.522,42.47 88.038,22.663 91.456,28.115c4.425,7.06 -14.076,63.555 40.754,86.637c44.494,18.73 67.197,-9.169 80.697,-1.799c1.638,0.894 -10.161,74.518 66.433,85.415c245.684,34.951 388.119,-399.796 243.214,-582.925Z" style="fill:#fff;"/><path d="M2533.11,3505.59c1.662,7.595 3.789,17.111 5.92,26.119c5.463,23.087 13.485,48.825 25.024,65.424c16.516,23.759 40.122,32.216 61.71,34.536c9.088,0.977 19.355,0.854 27.113,0.509c0.405,21.792 6.767,67.1 50.605,85.555c26.984,11.359 47.363,8.521 63.039,4.019c2.574,-0.74 5.506,-1.625 8.273,-2.484c1.572,16.569 7.06,40.622 26.018,58.854c11.847,11.393 28.913,20.809 53.92,24.366c104.963,14.932 193.072,-49.054 250.163,-145.35c83.562,-140.946 99.081,-349.901 8.468,-464.417l-0,0c-87.468,-110.541 -208.211,-204.203 -430.818,-156.593c-27.293,5.837 -61.959,13.033 -89.529,27.324c-21.083,10.929 -38.127,25.98 -46.945,46.459c-14.224,33.034 -14.525,54.18 -13.336,70.572c0.801,11.038 3.886,18.97 -1.212,28.499c-19.488,36.43 -50.135,64.263 -75.07,95.434c-27.979,34.977 -49.343,73.682 -46.449,128.852c0.48,9.161 2.276,18.052 5.889,26.525c12.854,30.138 41.166,49.86 73.656,51.459c14.362,0.707 29.621,-0.859 43.561,-5.662Zm554.113,-292.185c83.275,105.241 65.794,297.202 -11.001,426.734c-49.815,84.023 -125.209,142.377 -216.796,129.348c-16.355,-2.327 -27.76,-7.94 -35.508,-15.391c-18.394,-17.689 -16.431,-44.031 -16.415,-51.172c0.025,-11.618 -7.52,-16.242 -8.871,-16.98c-7.572,-4.133 -16.715,-4.174 -28.02,-0.573c-11.637,3.708 -28.504,12.455 -54.197,1.64c-34.341,-14.457 -30.452,-46.406 -29.892,-61.137c0.362,-9.507 -1.418,-16.137 -3.207,-18.991c-1.643,-2.622 -4.072,-5.085 -7.771,-6.803c-2.573,-1.194 -7.815,-2.314 -15.206,-1.929c-8.02,0.417 -21.601,2.126 -35.853,-0.29c-11.763,-1.994 -24.217,-7.03 -33.062,-19.754c-11.542,-16.604 -17.996,-44.492 -22.642,-65.989c-3.799,-17.583 -6.774,-31.667 -8.977,-36.139c-3.6,-7.31 -9.095,-9.476 -12.517,-10.221c-4.474,-0.975 -8.995,-0.39 -13.411,2.627c-12.187,8.324 -28.205,10.287 -42.689,9.574c-19.701,-0.969 -36.84,-12.969 -44.634,-31.243c-2.066,-4.846 -2.988,-9.954 -3.263,-15.194c-2.393,-45.628 16.052,-77.356 39.192,-106.284c26.185,-32.734 57.967,-62.277 78.432,-100.533c7.137,-13.341 7.059,-24.722 5.765,-38.668c-1.297,-13.989 -3.445,-31.701 10.007,-62.943c7.487,-17.388 24.729,-27.853 43.916,-35.661c22.536,-9.17 48.1,-14.257 68.913,-18.709c205.519,-43.955 316.953,42.626 397.707,144.681l0,-0Z" style="fill:#7e4021;"/><path d="M2551.93,3242.19c30.639,-26.321 78.676,-41.062 111.074,-46.534c9.07,-1.532 15.19,-10.14 13.658,-19.21c-1.532,-9.07 -10.14,-15.19 -19.21,-13.658c-37.199,6.283 -92.064,23.897 -127.242,54.117c-6.978,5.994 -7.776,16.526 -1.782,23.503c5.994,6.978 16.525,7.776 23.502,1.782Z" style="fill:#7e4021;"/><path d="M2941.03,3342.16c-3.81,7.467 -39.744,77.844 -44.132,85.108c-4.756,7.873 -2.226,18.127 5.648,22.883c7.873,4.757 18.127,2.226 22.883,-5.648c4.49,-7.432 35.616,-60.692 45.321,-85.814c3.12,-8.076 4.109,-14.522 3.845,-18.035c-0.283,-3.756 -1.466,-6.667 -2.86,-8.886c-4.894,-7.788 -15.191,-10.138 -22.98,-5.244c-5.491,3.451 -8.279,9.588 -7.725,15.636Z" style="fill:#7e4021;"/><path d="M2904.67,3290.35c1.897,-1.194 3.579,-2.794 4.911,-4.771c8.913,-13.235 -1.817,-22.074 -3.148,-23.121c-2.554,-2.009 -9.992,-7.078 -19.586,-0.787c-1.073,0.704 -7.197,7.092 -9.924,9.16c-4.741,3.595 -9.677,6.931 -14.801,9.957c-19.04,11.242 -38.48,21.874 -57.808,32.609c-8.042,4.466 -10.945,14.62 -6.479,22.662c4.466,8.042 14.621,10.945 22.662,6.479c19.586,-10.877 39.281,-21.656 58.573,-33.047c6.229,-3.678 12.23,-7.729 17.993,-12.099c1.637,-1.241 5.31,-4.782 7.607,-7.042Zm-23.209,-22.649c-0.597,0.986 -1.023,1.907 -1.321,2.751c0.347,-0.942 0.787,-1.863 1.321,-2.751Z" style="fill:#7e4021;"/></g></svg>