<?xml version="1.0" encoding="UTF-8" standalone="no"?><!DOCTYPE svg PUBLIC "-//W3C//DTD SVG 1.1//EN" "http://www.w3.org/Graphics/SVG/1.1/DTD/svg11.dtd"><svg width="100%" height="100%" viewBox="0 0 3393 4918" version="1.1" xmlns="http://www.w3.org/2000/svg" xmlns:xlink="http://www.w3.org/1999/xlink" xml:space="preserve" xmlns:serif="http://www.serif.com/" style="fill-rule:evenodd;clip-rule:evenodd;stroke-linejoin:round;stroke-miterlimit:2;"><g id="Apron"><path d="M1005.23,471.992c-2.1,-15.247 22.701,21.879 29.024,35.911c22.542,50.034 27.527,106.671 43.014,159.014c43.086,145.62 148.802,238.775 300.173,266.687c42.436,7.825 86.736,5.974 128.857,-3.052c134.235,-28.765 254.628,-94.691 392.585,-116.925c89.788,-14.47 575.363,-13.339 643.176,86.121c4.916,7.21 -56.352,207.225 -67.435,222.286c-6.065,8.243 -32.115,-3.539 -38.759,-6.013c-105.267,-39.195 -206.52,-96.209 -320.339,-106.657c-373.056,-34.241 -668.046,286.557 -1053.15,11.748c-162.371,-115.866 -193.914,-273.827 -191.852,-459.372c0.144,-13.028 -10.3,-64.623 -1.388,-75.02c10.884,-12.698 119.233,-11.062 136.095,-14.728Z" style="fill:#f6a292;"/><path d="M993.962,456.67c-23.279,1.929 -81.694,2.211 -111.117,7.6c-13.712,2.512 -22.839,7.489 -26.366,11.604c-4.317,5.035 -7.619,15.646 -7.616,29.177c0.005,19.491 5.093,47.414 4.992,56.504c-2.125,191.278 31.449,353.677 198.837,473.124c197.534,140.959 371.889,129.597 544.767,86.954c166.772,-41.138 331.946,-112.615 516.542,-95.672c112.342,10.312 212.145,66.992 316.047,105.679c5.359,1.996 21.781,8.901 33.487,9.814c11.243,0.877 19.812,-3.156 24.511,-9.542c2.147,-2.918 6.202,-11.413 10.883,-23.924c15.629,-41.767 44.325,-135.074 55.258,-179.846c3.153,-12.913 4.78,-22.372 4.816,-26.482c0.05,-5.784 -1.885,-9.408 -3.175,-11.301c-9.467,-13.884 -25.631,-26.506 -47.458,-37.262c-29.215,-14.396 -69.156,-25.954 -114.979,-34.905c-173.717,-33.935 -433.563,-31.269 -497.162,-21.019c-138.244,22.28 -258.912,88.258 -393.425,117.082c-39.993,8.57 -82.052,10.388 -122.342,2.959c-144.799,-26.701 -245.999,-115.728 -287.215,-255.026c-15.698,-53.057 -20.949,-110.414 -43.8,-161.131c-4.536,-10.068 -17.574,-30.728 -25.744,-39.826c-4.194,-4.669 -8.266,-7.235 -10.787,-8.223c-8.216,-3.221 -14.443,-0.779 -18.954,3.662Zm8.694,32.444c5.419,7.691 13.887,20.058 16.4,25.636c22.235,49.35 26.952,105.268 42.228,156.896c44.957,151.942 155.19,249.224 313.133,278.349c44.58,8.22 91.121,6.336 135.372,-3.147c133.955,-28.705 254.073,-94.579 391.744,-116.766c62.104,-10.009 315.832,-12.312 485.467,20.825c42.467,8.295 79.561,18.748 106.636,32.09c13.515,6.661 24.392,13.823 31.499,22.06c-4.695,26.697 -30.326,112.533 -48.631,166.401c-5.51,16.214 -9.996,29.357 -13.001,36.243c-1.487,-0.256 -3.16,-0.587 -4.416,-0.947c-7.272,-2.089 -14.425,-5.241 -17.408,-6.352c-106.634,-39.704 -209.336,-97.052 -324.632,-107.634c-188.46,-17.299 -357.308,54.502 -527.572,96.501c-164.157,40.493 -329.85,52.126 -517.421,-81.723c-157.355,-112.287 -186.866,-265.808 -184.868,-445.62c0.089,-8.005 -3.64,-30.233 -4.734,-49.028c-0.27,-4.637 0.057,-10.632 0.314,-14.189c4.325,-1.008 12.349,-2.743 19.232,-3.514c32.806,-3.675 81.36,-4.219 100.658,-6.081Z" style="fill:#7e4021;"/><path d="M961.44,403.631c13.358,-13.48 -1.098,-128.339 -6.322,-146.583c-82.695,-288.765 -486.647,-276.473 -626.712,-173.32c-460.558,339.183 -219.613,684.44 -90.863,1079.4c76.539,234.793 33.437,449.58 -55.567,549.265c-14.514,16.256 -62.635,45.679 -67.384,67.052c-9.901,44.551 131.708,168.449 167.546,187.512c48.006,25.535 124.331,-117.153 141.591,-145.085c347.216,-561.907 -241.606,-967.075 -95.871,-1369.99c54.074,-149.5 267.137,-321.603 418.179,-163.084c72.53,76.121 14.341,147.871 135.207,135.631c26.461,-2.679 55.73,-10.418 80.196,-20.797Z" style="fill:#f6a292;"/><path d="M967.949,418.974c1.995,-0.846 3.805,-2.073 5.33,-3.612c2.694,-2.719 5.393,-7.013 7.138,-13.09c2.115,-7.362 3.201,-18.992 3.202,-32.799c0.003,-41.161 -8.672,-103.719 -12.479,-117.013c-43.329,-151.306 -170.281,-224.415 -305.291,-245.508c-133.68,-20.886 -274.659,9.839 -347.327,63.356c-141.727,104.377 -218.291,209.636 -253.03,316.343c-34.836,107.002 -27.67,215.777 -0.418,327.538c35.419,145.253 104.987,295.702 156.623,454.102c74.248,227.766 34.187,436.299 -52.153,532.999c-10.048,11.254 -36.434,28.825 -52.94,45.642c-9.764,9.948 -16.337,20.143 -18.282,28.895c-1.77,7.964 -0.875,17.701 3.193,28.594c4.557,12.204 13.308,26.563 24.892,41.698c41.978,54.845 121.899,121.718 147.905,135.551c19.711,10.484 43.827,3.538 67.286,-16.964c41.229,-36.031 83.854,-113.918 96.31,-134.075c177.056,-286.534 116.278,-533.074 28.991,-759.376c-42.602,-110.45 -91.528,-215.932 -120.68,-318.892c-28.303,-99.964 -37.903,-197.455 -2.689,-294.813c25.801,-71.331 89.575,-148.016 164.871,-187.998c72.493,-38.494 156.186,-42.076 225.57,30.742c34.111,35.8 36.864,70.874 45.92,95.257c5.043,13.578 11.734,24.582 22.554,32.698c14.541,10.907 37.937,17.069 80.478,12.761c28.054,-2.841 59.087,-11.032 85.026,-22.036Zm-19.401,-28.099c-21.589,8.453 -46.375,14.682 -68.983,16.972c-29.999,3.037 -46.865,1.428 -57.118,-6.263c-9.673,-7.255 -12.195,-19.294 -16.297,-33.315c-7.588,-25.936 -16.634,-58 -48.047,-90.969c-81.658,-85.701 -180.017,-82.492 -265.335,-37.188c-82.514,43.814 -152.309,127.931 -180.583,206.101c-59.678,164.992 -0.484,330.559 71.021,506.412c102.976,253.249 231.108,529.112 26.345,860.484c-10.137,16.405 -40.973,73.328 -74.262,110.779c-9.896,11.134 -19.875,20.517 -29.624,25.831c-5.618,3.062 -10.87,5.091 -15.7,2.522c-24.168,-12.856 -98.075,-75.41 -137.088,-126.381c-7.836,-10.239 -14.229,-19.946 -18.261,-28.644c-2.588,-5.584 -4.616,-10.283 -3.754,-14.158c0.489,-2.202 2.217,-4.37 4.176,-6.816c3.297,-4.115 7.592,-8.333 12.294,-12.565c16.769,-15.092 38.105,-30.138 47.077,-40.186c91.669,-102.669 137.811,-323.707 58.98,-565.531c-51.364,-157.566 -120.698,-307.179 -155.931,-451.668c-25.736,-105.545 -33.168,-208.271 -0.27,-309.322c32.994,-101.346 106.494,-200.689 241.101,-299.822c67.399,-49.637 198.427,-76.634 322.414,-57.263c122.657,19.164 239.027,84.291 278.392,221.752c3.507,12.247 11.193,69.913 11.191,107.834c-0,7.663 -1.101,16.789 -1.738,21.404Z" style="fill:#7e4021;"/><path d="M586.692,640.884c68.105,28.99 136.473,138.687 181.728,209.545c180.249,282.227 200.356,557.975 310.899,644.701c85.417,67.015 537.483,-133.02 603.411,-219.7c86.531,-113.769 -167.624,-584.559 -218.463,-669.343c-89.885,-149.904 -226.645,-292.079 -226.653,-292.562c-0.024,-1.415 221.097,-22.924 232.258,-18.444c47.193,18.943 124.455,119.922 152.577,157.869c326.909,441.133 322.116,821.775 507.335,1301.93c108.215,280.534 232.557,553.004 389.797,809.698c299.118,488.311 670.578,787.081 855.544,1300.46c4.584,12.725 -61.524,233.146 -279.229,276.87c-154.782,31.086 -230.3,315.037 -638.883,448.819c-294.593,96.458 -244.305,157.779 -540.195,259.19c-180.469,61.853 -372.779,65.887 -557.635,22.187c-74.942,-17.717 -195.787,-44.026 -245.766,-110.063c-93.542,-123.598 39.789,-834.171 51.336,-1009.34c25.125,-381.167 3.855,-778.317 -42.961,-1157.28c-45.417,-367.638 -216.773,-661.235 -323.74,-1006.93c-52.126,-168.465 -45.374,-358.753 -140.835,-507.241c-84.028,-130.707 -164.649,-171.132 -169.788,-191.373c-14.769,-58.17 46.491,-245.316 99.263,-249.002Z" style="fill:#fabea8;"/><path d="M593.22,625.548c-2.425,-1.032 -5.06,-1.474 -7.689,-1.291c-9.329,0.652 -19.046,4.726 -28.52,12.365c-10.914,8.802 -21.962,22.8 -32.198,40.242c-21.938,37.383 -40.861,91.188 -50.106,137.414c-6.533,32.663 -7.987,61.768 -3.432,79.709c1.097,4.323 3.705,9.41 8.45,14.983c4.382,5.147 11.087,11.363 19.754,18.988c30.118,26.498 86.125,72.726 143.719,162.314c46.575,72.448 67.965,155.181 84.32,240.262c16.876,87.791 28.37,178.081 54.612,262.893c106.67,344.738 277.83,637.431 323.121,1004.05c46.689,377.931 67.928,774.002 42.871,1154.13c-8.089,122.714 -75.862,507.982 -83.71,770.523c-2.057,68.802 0.02,129.331 8.119,174.917c5.864,33.008 15.162,58.626 27.597,75.056c21.547,28.471 55.083,50.415 93.018,67.332c53.783,23.982 116.395,38.063 162.203,48.892c187.919,44.425 383.412,40.238 566.873,-22.64c149.982,-51.403 212.223,-92.656 274.304,-133.272c60.342,-39.477 120.534,-78.322 265.673,-125.845c248.777,-81.456 376.008,-217.578 471.811,-320.413c60.035,-64.441 106.111,-116.044 165.168,-127.905c182.061,-36.564 262.852,-191.176 285.372,-258.435c5.032,-15.03 7.208,-26.211 7.433,-31.579c0.171,-4.089 -0.526,-7.034 -1.178,-8.845c-185.366,-514.491 -557.248,-814.155 -857.012,-1303.52c-156.711,-255.831 -280.607,-527.399 -388.459,-806.991c-185.808,-481.685 -181.546,-863.324 -509.495,-1305.86c-20.04,-27.042 -64.637,-85.487 -106.044,-124.758c-19.247,-18.253 -38.083,-32.381 -53.715,-38.656c-2.598,-1.042 -13.963,-2.13 -30.903,-1.343c-52.734,2.451 -174.522,14.132 -203.428,17.735c-6.182,0.771 -9.798,1.803 -10.473,2.084c-10.085,4.197 -10.381,12.44 -10.326,15.716c0.013,0.763 -0.452,5.168 3.848,10.382c0.287,0.348 1.835,2.045 4.525,4.941c22.752,24.499 140.523,151.899 220.65,285.53c35.277,58.831 169.399,305.117 217.223,486.3c11.87,44.971 18.448,85.756 16.278,118.266c-1.262,18.897 -5.347,34.726 -14.01,46.116c-13.046,17.152 -42.421,38.646 -80.989,61.899c-94.297,56.853 -242.647,121.662 -357.625,150.196c-40.897,10.149 -77.407,15.742 -105.383,14.297c-15.36,-0.794 -27.79,-3.382 -35.86,-9.714c-42.346,-33.222 -69.973,-95.9 -99.962,-175.86c-47.296,-126.105 -98.284,-294.196 -207.179,-464.7c-27.529,-43.103 -63.547,-100.345 -102.829,-145.62c-27.691,-31.916 -57.212,-57.858 -86.417,-70.29Zm872.146,-314.281c16.996,7.496 37.667,26.379 58.446,48.146c34.61,36.257 68.63,81.038 85.246,103.46c325.871,439.731 320.546,819.377 505.177,1298.01c108.578,281.477 233.366,554.849 391.134,812.406c297.935,486.38 668.173,784.06 853.076,1294.66c-1.122,4.852 -6.312,26.105 -15.726,47.546c-30.159,68.69 -104.561,180.847 -250.104,210.077c-64.772,13.009 -117.151,67.188 -182.994,137.864c-93.01,99.837 -216.271,232.375 -457.794,311.457c-149.454,48.935 -211.415,88.979 -273.55,129.629c-60.395,39.513 -120.955,79.626 -266.862,129.633c-177.479,60.828 -366.605,64.711 -548.398,21.734c-44.123,-10.431 -104.491,-23.796 -156.295,-46.897c-32.456,-14.473 -61.58,-32.645 -80.015,-57.004c-10.016,-13.234 -16.633,-34.183 -21.357,-60.77c-7.782,-43.806 -9.596,-101.977 -7.62,-168.091c7.836,-262.136 75.577,-646.801 83.653,-769.326c25.194,-382.201 3.892,-780.429 -43.05,-1160.41c-45.543,-368.658 -217.096,-663.16 -324.359,-1009.82c-25.884,-83.653 -37.077,-172.739 -53.722,-259.331c-17.166,-89.301 -40.13,-175.956 -89.015,-251.996c-60.047,-93.402 -118.339,-141.687 -149.74,-169.314c-6.109,-5.375 -11.114,-9.869 -14.751,-13.745c-1.294,-1.378 -2.881,-3.487 -3.326,-4.091c-3.484,-14.682 -1.274,-38.05 3.973,-64.281c8.546,-42.731 25.889,-92.523 46.169,-127.08c6.673,-11.372 13.593,-21.023 20.685,-27.887c3.574,-3.458 6.927,-6.308 10.37,-7.606l0.001,-0c23.766,11.465 47.28,33.437 69.841,59.44c38.209,44.039 73.138,99.792 99.914,141.718c107.405,168.169 157.413,334.085 204.062,458.464c32.641,87.031 64.507,154.219 110.596,190.379c12.432,9.754 31.055,15.555 54.716,16.778c30.551,1.578 70.472,-4.151 115.131,-15.234c117.925,-29.265 270.095,-95.692 366.808,-154.002c43.294,-26.102 75.665,-51.012 90.309,-70.266c12.106,-15.915 18.975,-37.67 20.738,-64.075c2.366,-35.442 -4.367,-79.966 -17.308,-128.994c-48.665,-184.369 -184.966,-435.067 -220.864,-494.934c-68.534,-114.296 -164.036,-224.162 -206.687,-271.3c46.885,-4.848 132.948,-12.701 174.851,-14.649c7.75,-0.36 16.091,-0.324 18.641,-0.3Z" style="fill:#7e4021;"/><path d="M2254.8,4647.96c-1.241,7.141 2.319,14.533 9.167,17.843c5.777,2.793 11.442,2.487 16.943,-1.426c0.9,-0.64 6.656,-4.588 7.178,-14.129c0.514,-9.383 -0.797,-58.265 -1.243,-61.222c-3.768,-25.012 -9.066,-49.885 -15.484,-74.344c-24.154,-92.045 -72.409,-175.011 -119.175,-257.167c-4.55,-7.994 -14.735,-10.79 -22.729,-6.239c-7.994,4.55 -10.79,14.735 -6.24,22.729c45.337,79.645 92.487,159.906 115.902,249.138c6.117,23.309 11.174,47.012 14.765,70.849c0.374,2.483 0.863,48.815 0.916,53.968Zm7.819,-11.435l-0.074,0.049l0.224,-0.137l-0.15,0.088Zm15.045,-1.097c-5.025,-2.186 -9.965,-1.986 -14.78,0.942c4.379,-2.525 9.831,-3.022 14.78,-0.942Z" style="fill:#7e4021;"/><path d="M2061.21,4153.69c0.063,3.442 1.191,6.894 3.45,9.83c5.609,7.291 16.081,8.656 23.372,3.047c1.798,-1.383 7.69,-6.391 6.413,-16.468c-0.796,-6.28 -9.19,-34.336 -9.712,-36.49c-6.307,-26.013 -12.865,-51.962 -19.402,-77.917c-2.247,-8.92 -11.313,-14.338 -20.233,-12.092c-8.92,2.247 -14.338,11.313 -12.091,20.233c6.513,25.86 13.047,51.714 19.331,77.63c0.432,1.782 7.677,27.917 8.872,32.227Z" style="fill:#7e4021;"/><path d="M3044.6,4160.61c1.158,-7.032 2.967,-18.558 3.22,-23.266c1.182,-22.039 -0.551,-44.423 -3.307,-66.279c-7.886,-62.545 -21.84,-123.983 -50.912,-180.272c-4.221,-8.173 -14.284,-11.382 -22.456,-7.16c-8.173,4.221 -11.382,14.283 -7.16,22.456c27.264,52.789 40.06,110.489 47.456,169.146c2.509,19.894 4.17,40.263 3.093,60.323c-0.338,6.299 -3.357,19.974 -4.021,26.857c-0.465,4.824 0.111,8.435 0.669,10.254c1.424,4.635 4.095,7.377 6.516,9.1c3.461,2.464 7.398,3.567 11.888,3.029c2.539,-0.305 8.357,-1.273 13.395,-8.852c3.131,-4.711 3.548,-10.439 1.619,-15.336Zm-28.668,-4.104l-0.057,0.078l0.118,-0.151l-0.061,0.073Z" style="fill:#7e4021;"/><path d="M2925.11,3796.13c-1.969,-1.984 -9.75,-9.944 -14.527,-16.347c-10.841,-14.531 -21.317,-31.45 -25.003,-36.154c-5.673,-7.241 -16.158,-8.514 -23.398,-2.841c-7.241,5.674 -8.514,16.158 -2.841,23.399c5.639,7.197 26.874,41.921 41.752,55.431c7.716,7.007 15.464,9.595 20.898,9.461c9.196,-0.225 16.479,-7.873 16.254,-17.069c-0.192,-7.845 -5.787,-14.298 -13.135,-15.88Z" style="fill:#7e4021;"/><path d="M2129.59,4718.56c-4.961,6.787 -4.102,16.375 2.259,22.154c5.253,4.773 10.292,5.229 14.001,4.901c4.321,-0.383 8.304,-2.158 11.604,-5.852c1.797,-2.012 3.85,-5.357 4.767,-10.127c0.829,-4.307 0.484,-12.565 0.933,-16.606c6.662,-59.973 -13.853,-134.59 -44.475,-185.394c-4.748,-7.878 -15,-10.419 -22.878,-5.67c-7.878,4.748 -10.419,15 -5.67,22.878c27.187,45.107 45.809,111.258 39.894,164.506c-0.207,1.858 -0.351,5.931 -0.435,9.21Zm24.119,-2.996l0.555,0.479c-0.185,-0.168 -0.37,-0.328 -0.555,-0.479Z" style="fill:#7e4021;"/><path d="M1978.93,3864.99c0.937,6.459 5.646,12.04 12.358,13.76c0.603,0.155 23.984,-1.737 20.362,-20.133c-0.885,-4.491 -5.968,-27.434 -7.226,-34.035c-4.923,-25.825 -7.426,-52.081 -10.235,-78.197c-8.952,-83.226 -15.87,-166.827 -18.073,-250.527c-0.242,-9.195 -7.904,-16.464 -17.099,-16.222c-9.196,0.242 -16.465,7.904 -16.223,17.099c2.226,84.597 9.205,169.096 18.253,253.215c2.905,27.012 5.541,54.163 10.633,80.874c1.23,6.449 6.924,32.666 7.25,34.166Zm-0.118,-3.678l-0,0.003l0.001,-0.011l-0.001,0.008Zm4.896,-10.556c-2.082,2.052 -3.649,4.677 -4.427,7.712c-0.168,0.655 -0.294,1.311 -0.376,1.966c0.657,-5.402 3.339,-8.245 4.803,-9.678Zm0.077,-0.077l-0.005,0.004l0.053,-0.049l-0.048,0.045Zm14.921,-4.414c-5.317,-1.135 -10.112,0.054 -14.305,3.845c3.794,-3.341 9.041,-4.906 14.305,-3.845Z" style="fill:#7e4021;"/><path d="M1166.24,4693.64c-0.89,-4.429 -2.161,-10.612 -2.814,-13.315c-5.113,-21.168 -7.539,-43.096 -9.762,-64.724c-4.018,-39.093 -3.811,-78.283 -0.074,-117.383c0.875,-9.156 -5.849,-17.301 -15.006,-18.176c-9.156,-0.876 -17.301,5.848 -18.176,15.005c-3.947,41.291 -4.146,82.678 0.098,123.962c2.375,23.109 5.055,46.526 10.519,69.143c1.265,5.236 2.992,16.531 4.983,22.044c1.765,4.886 4.388,8.022 6.333,9.673c4.879,4.141 10.123,4.948 15.236,3.792c3.468,-0.784 8.668,-2.752 12.38,-9.978c3.54,-6.891 1.807,-15.111 -3.717,-20.043Z" style="fill:#7e4021;"/><path d="M1135.01,4422.32c-4.329,6.1 -4.128,14.589 0.97,20.509c6.002,6.971 16.534,7.757 23.505,1.755c3.167,-2.728 7.429,-9.655 9.326,-20.421c3.889,-22.082 3.444,-69.596 4.687,-82.248c0.899,-9.155 -5.804,-17.317 -14.958,-18.216c-9.155,-0.899 -17.317,5.803 -18.216,14.957c-1.26,12.826 -4.996,78.077 -5.314,83.664Z" style="fill:#7e4021;"/><path d="M1218.9,1790.52c-5.412,44.628 73.207,381.047 266.891,452.308c193.623,71.238 399.342,-107.229 424.118,-295.391c7.866,-59.741 -58.443,-387.876 -131.189,-413.114c-56.689,-19.667 -161.344,24.79 -213.289,40.544c-115.69,35.086 -340.324,164.465 -346.531,215.653Z" style="fill:#fff;"/><path d="M1202.36,1788.51c-2.811,23.184 15.193,122.429 60.064,224.861c44.974,102.665 116.774,207.992 217.618,245.095c102.322,37.647 207.941,9.861 291.152,-52.743c82.273,-61.899 142.299,-157.798 155.245,-256.114c5.647,-42.885 -25.281,-220.786 -70.353,-332.455c-11.986,-29.697 -25.036,-54.798 -38.443,-71.924c-10.799,-13.796 -22.266,-22.774 -33.454,-26.656c-25.066,-8.696 -58.624,-6.738 -93.535,0.681c-47.87,10.174 -98.559,30.108 -130.054,39.66c-82.451,25.005 -219.28,96.995 -296.107,155.848c-20.696,15.854 -37.151,30.888 -47.503,43.842c-8.898,11.136 -13.605,21.457 -14.63,29.905Zm33.091,4.013c0.466,-3.843 3.532,-8.044 7.58,-13.109c9.058,-11.336 23.621,-24.316 41.733,-38.19c74.092,-56.758 205.994,-126.295 285.51,-150.411c30.839,-9.353 80.436,-28.99 127.31,-38.952c28.254,-6.005 55.393,-8.833 75.68,-1.795c6.275,2.177 12.075,7.973 18.132,15.711c11.875,15.17 23.162,37.548 33.779,63.853c42.831,106.115 73.582,274.876 68.216,315.628c-11.83,89.846 -67.051,177.262 -142.237,233.828c-74.249,55.861 -168.301,81.689 -259.602,48.097c-92.841,-34.158 -157.191,-132.669 -198.596,-227.187c-41.507,-94.752 -60.105,-186.027 -57.505,-207.473Z" style="fill:#7e4021;"/><path d="M1548.43,1786.42c3.038,6.649 -8.883,-11.681 -14.132,-16.768c-10.57,-10.243 -23.912,-18.217 -38.32,-21.518c-39.177,-8.978 -81.335,35.583 -84.743,71.872c-13.862,147.615 177.044,201.143 217.63,187.383c60.339,-20.458 129.155,-219.704 53.257,-284.918c-55.984,-48.104 -117.2,-5.11 -133.692,63.949Z" style="fill:#eb7e6c;"/><path d="M1541.91,1754.01c-12.031,-10.536 -26.627,-18.555 -42.209,-22.126c-20.127,-4.612 -41.01,1.166 -58.933,13.477c-25.017,17.186 -43.682,47.058 -46.126,73.083c-9.103,96.929 61.246,157.644 129.555,186.771c46.535,19.843 91.864,24.11 110.02,17.954c14.623,-4.958 30.178,-17.972 44.137,-37.229c18.335,-25.292 34.675,-61.629 44.389,-100.156c9.822,-38.955 12.8,-80.083 5.031,-114.298c-5.664,-24.942 -16.984,-46.361 -34.79,-61.66c-27.479,-23.611 -56.172,-28.64 -81.782,-21.587c-28.685,7.899 -54.196,32.209 -69.292,65.771Zm23.681,32.531c8.877,-33.075 29.09,-59.178 54.461,-66.165c16.134,-4.444 33.897,-0.142 51.209,14.732c15.961,13.714 23.731,34.743 26.49,58.439c3.06,26.297 -0.207,55.84 -7.329,84.088c-8.597,34.097 -22.829,66.357 -39.056,88.741c-9.084,12.532 -18.336,21.998 -27.852,25.225c-4.929,1.671 -12.794,1.565 -22.459,0.538c-17.778,-1.889 -40.55,-7.679 -63.784,-17.586c-56.528,-24.104 -116.975,-72.779 -109.442,-152.992c1.366,-14.547 10.915,-30.521 23.632,-42.19c11.701,-10.736 26.344,-18.307 40.794,-14.996c11.47,2.629 22.029,9.087 30.444,17.242c4.357,4.222 13.252,17.153 14.979,18.659c8.457,7.373 16.351,3.778 19.304,2.137c1.337,-0.743 9.588,-5.794 8.608,-15.874l0.001,0.002Zm-32.722,5.845l0.045,0.107l-0.081,-0.213l0.036,0.106Z" style="fill:#7e4021;"/><path d="M1286.16,1750.94c0.867,-3.892 0.349,-8.105 -1.773,-11.842c-4.543,-7.999 -14.724,-10.806 -22.723,-6.264c-3.931,2.233 -7.371,6.052 -8.685,11.928c-0.902,4.034 0.343,11.892 0.649,13.454c6.368,32.555 14.946,64.714 25.726,96.083c31.374,91.295 99.498,232.823 182.115,289.049c131.743,89.658 292.222,-13.864 344.872,-143.211c55.11,-135.388 12.86,-336.766 -53.342,-464.077c-4.243,-8.161 -14.315,-11.342 -22.476,-7.098c-8.161,4.244 -11.341,14.315 -7.097,22.476c62.246,119.706 103.859,308.832 52.042,436.132c-45.384,111.494 -181.685,205.504 -295.245,128.22c-77.55,-52.777 -139.895,-186.628 -169.345,-272.324c-10.282,-29.921 -18.463,-60.597 -24.537,-91.649l-0.181,-0.877Z" style="fill:#7e4021;"/><path d="M2189.08,1906.82c17.218,-5.596 -5.563,48.202 -14.327,64.045c-24.166,43.682 -53.9,87.836 -85.691,126.204c-90.124,108.77 -210.568,201.5 -332.894,270.694c-199.822,113.031 -427.641,170.281 -617.522,301.546c-184.931,127.844 -301.117,319.037 -429.76,497.932c-102.425,142.434 -189.19,161.65 -65.849,286.949c10.528,10.696 49.398,58.354 66.512,54.404c4.731,-1.092 7.895,-3.333 11.113,-6.966c163.855,-184.997 160.047,-402.517 404.217,-585.344c41.483,-31.061 86.528,-57.9 132.03,-82.601c177.509,-96.362 366.8,-170.228 548.024,-259.747c143.99,-71.128 526.877,-294.286 519.515,-435.75c-4.073,-78.277 -86.538,-231.366 -135.368,-231.366Z" style="fill:#f6a292;"/><path d="M2177.75,1919.04c-2.664,-2.467 -4.531,-5.805 -5.135,-9.617c-1.282,-8.097 3.514,-15.925 11.311,-18.459c6.648,-2.161 11.867,-1.276 15.886,0.593c5.401,1.366 11.015,3.759 16.732,7.219c11.256,6.811 23.39,18.082 35.386,32.606c43.266,52.379 86.169,148.462 89.16,205.933c2.388,45.901 -31.426,100.76 -86.639,155.74c-120.333,119.824 -340.317,245.521 -442.14,295.819c-181.032,89.425 -370.133,163.192 -547.453,259.451c-44.795,24.318 -89.154,50.717 -129.992,81.296c-119.57,89.529 -178.282,187.665 -227.302,285.955c-50.691,101.641 -91.453,203.416 -174.428,297.097c-5.71,6.447 -11.449,10.219 -19.842,12.156c-8.446,1.949 -20.943,-1.446 -33.605,-10.844c-18.664,-13.852 -40.875,-40.328 -48.533,-48.108c-40.354,-40.994 -59.22,-72.142 -64.055,-99.064c-4.909,-27.337 3.455,-51.445 21.718,-77.817c23.128,-33.398 63.439,-71.564 106.532,-131.491c129.751,-180.434 247.292,-372.967 433.815,-501.911c190.292,-131.55 418.537,-189.066 618.793,-302.342c120.606,-68.222 239.41,-159.581 328.266,-266.822c31.144,-37.586 60.268,-80.845 83.941,-123.638c4.763,-8.61 14.48,-29.794 17.584,-43.752Zm30.408,14.774c5.922,5.022 11.977,11.417 18.073,18.796c39.234,47.5 78.858,134.32 81.57,186.437c0.955,18.356 -6.188,38.146 -18.587,59c-13.713,23.063 -33.864,47.072 -58.283,71.388c-117.898,117.4 -333.62,240.272 -433.383,289.553c-181.416,89.614 -370.897,163.579 -548.593,260.042c-46.21,25.085 -91.94,52.364 -134.068,83.908c-124.601,93.297 -186.07,195.335 -237.152,297.761c-49.411,99.075 -88.672,198.557 -169.552,289.873c-0.357,0.403 -0.678,0.777 -1.039,1.082c-2.54,-1.502 -9.723,-5.886 -14.403,-9.977c-15.546,-13.588 -31.654,-32.91 -37.83,-39.184c-38.646,-39.26 -55.815,-65.942 -55.842,-90.736c-0.026,-24.35 16.583,-45.203 39.825,-72.634c22.889,-27.013 52.481,-58.993 83.52,-102.157c127.536,-177.355 242.367,-367.209 425.707,-493.952c189.468,-130.981 416.862,-187.964 616.25,-300.749c124.046,-70.168 246.131,-164.268 337.522,-274.567c32.438,-39.149 62.783,-84.199 87.441,-128.77c4.917,-8.889 13.906,-28.823 18.824,-45.114Z" style="fill:#7e4021;"/><path d="M1056.27,2307.52c-11.225,6.217 -106.916,179.967 -167.141,229.347c-56.759,46.539 -155.008,94.853 -220.243,129.345c-160.52,84.872 -313.958,124.763 -465.908,200.176c-57.664,28.619 -193.495,122.42 -185.841,190.345c15.257,22.655 81.327,91.78 105.576,87.939c27.123,-4.297 107.524,-107.35 209.914,-151.452c117.126,-50.448 288.259,-94.667 404.446,-145.451c86.958,-38.008 171.95,-81.154 244.483,-140.9c65.418,-53.884 97.235,-137.95 110.117,-192.528c13.384,-56.704 -8.937,-148.332 -35.403,-206.821Z" style="fill:#f6a292;"/><path d="M1071.45,2300.65c-1.918,-4.24 -5.523,-7.485 -9.941,-8.949c-4.418,-1.464 -9.247,-1.014 -13.318,1.241c-1.464,0.811 -3.56,2.27 -5.881,4.768c-3.175,3.418 -8.732,11.21 -15.908,22.195c-31.541,48.277 -100.61,165.346 -147.844,204.075c-56.019,45.932 -153.081,93.456 -217.466,127.499c-160.385,84.801 -313.706,124.631 -465.527,199.981c-41.843,20.767 -123.283,74.779 -165.724,129.386c-20.657,26.578 -31.973,53.765 -29.27,77.755c0.301,2.665 1.24,5.219 2.738,7.443c11.281,16.75 48.803,57.607 79.12,79.188c16.914,12.04 32.885,17.487 42.887,15.902c4.965,-0.786 11.284,-3.331 18.507,-8.04c7.609,-4.961 16.975,-12.646 27.827,-22.164c38.43,-33.707 97.641,-92.284 167.566,-122.402c117.151,-50.458 288.317,-94.692 404.528,-145.486c88.376,-38.628 174.689,-82.588 248.404,-143.307c68.555,-56.469 102.242,-144.369 115.742,-201.564c14.068,-59.602 -8.621,-156.043 -36.44,-217.521Zm-19.234,41.042c19.859,53.863 33.999,123.204 23.232,168.822c-12.264,51.96 -42.212,132.191 -104.492,183.492c-71.351,58.772 -155.021,101.104 -240.562,138.493c-116.163,50.773 -287.262,94.977 -404.364,145.415c-73.422,31.624 -136.007,92.563 -176.36,127.956c-7.96,6.981 -14.973,12.89 -20.971,17.187c-3.387,2.426 -5.949,4.512 -8.16,5.065c-0.606,-0.16 -2.973,-0.804 -4.507,-1.483c-4.332,-1.917 -9.155,-4.92 -14.272,-8.563c-25.147,-17.9 -55.933,-50.552 -68.282,-67.115c-0.004,-9.366 3.575,-19.218 9.125,-29.353c7.534,-13.756 18.799,-27.736 32.009,-41.386c41.601,-42.986 102.301,-82.292 135.772,-98.903c152.077,-75.478 305.634,-115.428 466.288,-200.372c66.086,-34.942 165.522,-84.045 223.021,-131.19c43.114,-35.352 104.381,-132.747 140.971,-190.352c3.934,-6.193 7.917,-12.27 11.552,-17.713Z" style="fill:#7e4021;"/><path d="M1248.93,315.435c-29.429,-1.163 -100.364,10.68 -123.181,13.635c-64.896,8.404 -117.897,19.523 -182.217,31.922c-105.201,20.279 -198.898,86.539 -264.096,166.554c-14.395,17.667 -98.627,111.17 -92.918,114.184c111.878,59.075 176.215,209.948 182.134,207.482c51.959,-21.649 128.125,-305.527 131.257,-359.11c1.626,-27.828 4.06,-59.94 -4.925,-86.894c-0.165,-0.495 -3.61,-8.663 -2.111,-8.913c4.215,-0.702 14.844,7.602 18.176,9.616c96.69,58.464 212.028,91.544 323.89,104.602c30.471,3.557 166.104,19.901 167.977,9.731c3.025,-16.419 -57.937,-91.064 -73.812,-111.825c-28.722,-37.563 -45.737,-58.573 -80.174,-90.984Z" style="fill:#f6a292;"/><path d="M916.773,426.592c95.64,54.465 207.526,85.786 316.232,98.475c24.75,2.889 117.841,13.996 155.059,13.073c11.948,-0.296 20.051,-2.809 23.231,-4.924c5.056,-3.364 7.233,-7.735 8.01,-11.953c0.634,-3.439 0.54,-8.023 -1.054,-13.468c-1.893,-6.463 -6.423,-15.535 -12.776,-25.796c-18.165,-29.337 -51.847,-70.944 -63.133,-85.704c-29.364,-38.402 -46.784,-59.861 -81.991,-92.997c-2.926,-2.754 -6.749,-4.359 -10.765,-4.517c-30.093,-1.189 -102.648,10.739 -125.98,13.76c-65.256,8.451 -118.554,19.617 -183.231,32.085c-109.033,21.019 -206.289,89.462 -273.861,172.392c-13.226,16.232 -83.967,95.367 -93.781,113.236c-8.092,14.733 1.676,23.931 6,26.214c97.721,51.599 157.334,176.003 172.613,198.494c4.139,6.092 8.309,8.668 10.261,9.512c5.206,2.252 9.719,1.678 13.453,0.123c8.326,-3.47 17.618,-11.434 26.651,-23.852c10.715,-14.73 21.957,-36.357 32.931,-61.954c41.203,-96.106 79.668,-249.475 81.903,-287.717c1.194,-20.432 2.573,-43.004 0.228,-64.482Zm-40.645,-28.008l0.065,0.402c0.497,2.755 2.46,8.132 3.031,9.662c8.271,24.972 5.55,54.717 4.045,80.482c-2.15,36.773 -39.643,184.11 -79.264,276.527c-9.81,22.881 -19.672,42.313 -29.25,55.48c-0.966,1.328 -1.903,2.591 -2.824,3.768c-22.347,-37.661 -78.095,-136.464 -161.563,-188.646c20.469,-24.416 71.878,-85.779 81.987,-98.185c47.801,-58.666 111.418,-109.79 183.773,-139.49Zm503.065,104.482c-36.012,-2.539 -121.51,-8.678 -142.324,-11.107c-109.538,-12.787 -222.518,-45.061 -317.198,-102.31c-1.331,-0.804 -3.674,-2.41 -6.383,-4.155c10.971,-3.235 22.114,-5.962 33.397,-8.137c63.962,-12.33 116.667,-23.401 181.202,-31.758c20.86,-2.702 82.844,-13.162 114.314,-13.575l-0,-0c30.579,29.228 46.918,49.544 73.661,84.518c10.939,14.306 43.667,54.571 61.273,83.005c0.695,1.123 1.386,2.309 2.058,3.519Z" style="fill:#7e4021;"/><path d="M932.069,324.162c-8.31,-5.467 -57.449,16.173 -59.158,16.9c-21.464,9.13 -67.119,21.166 -75.325,43.732c-14.66,40.314 41.751,84.704 57.988,117.177c8.115,16.23 9.887,38.528 20.31,53.12c5.213,7.298 14.656,10.115 23.256,10.035c27.721,-0.259 59.421,-21.282 81.182,-36.595c16.594,-11.677 48.12,-32.833 51.017,-54.803c2.06,-15.619 -82.34,-138.428 -99.27,-149.566Z" style="fill:#f6a292;"/><path d="M941.23,310.238c-3.841,-2.527 -11.274,-4.532 -21.032,-2.936c-18.162,2.973 -52.341,17.798 -53.811,18.423c-13.245,5.634 -35.41,12.429 -52.874,21.908c-15.381,8.348 -27.131,19.201 -31.59,31.465c-7.526,20.697 -1.784,42.469 10.741,63.526c14.427,24.254 38.402,47.598 48.003,66.8c3.637,7.275 5.727,15.953 8.202,24.405c3.304,11.286 7.214,22.215 13.453,30.949c8.376,11.727 23.154,17.143 36.973,17.014c30.79,-0.288 66.449,-22.623 90.619,-39.631c10.664,-7.504 27.008,-18.759 39.11,-31.569c10.171,-10.766 17.274,-22.818 18.839,-34.685c0.403,-3.054 0.072,-8.142 -2.324,-14.622c-2.804,-7.58 -8.998,-19.413 -17.224,-33.19c-17.97,-30.099 -45.807,-70.364 -65.034,-94.542c-9.66,-12.148 -17.801,-20.519 -22.051,-23.315Zm-15.63,30.196c2.881,2.929 6.806,7.849 11.591,13.865c18.482,23.242 45.231,61.952 62.504,90.883c6.632,11.109 13.146,24.971 14.708,28.353c-1.371,4.957 -5.284,9.588 -9.609,14.166c-10.496,11.11 -24.815,20.691 -34.063,27.2c-19.357,13.621 -47.09,33.329 -71.747,33.559c-3.401,0.032 -7.476,-0.171 -9.537,-3.056c-4.185,-5.859 -6.372,-13.373 -8.588,-20.942c-3.046,-10.404 -5.901,-20.99 -10.378,-29.945c-8.416,-16.832 -27.06,-36.888 -41.885,-57.826c-6.164,-8.705 -11.621,-17.553 -14.622,-26.466c-2.235,-6.638 -3.078,-13.264 -0.725,-19.736c2.111,-5.803 8.886,-9.609 16.165,-13.56c16.499,-8.955 37.508,-15.208 50.02,-20.53c0.889,-0.378 15.094,-6.638 29.238,-11.48c5.471,-1.873 13.152,-3.655 16.928,-4.485Z" style="fill:#7e4021;"/></g></svg>