<?xml version="1.0" encoding="UTF-8" standalone="no"?><!DOCTYPE svg PUBLIC "-//W3C//DTD SVG 1.1//EN" "http://www.w3.org/Graphics/SVG/1.1/DTD/svg11.dtd"><svg width="100%" height="100%" viewBox="0 0 4678 2219" version="1.1" xmlns="http://www.w3.org/2000/svg" xmlns:xlink="http://www.w3.org/1999/xlink" xml:space="preserve" xmlns:serif="http://www.serif.com/" style="fill-rule:evenodd;clip-rule:evenodd;stroke-linejoin:round;stroke-miterlimit:2;"><g id="Baking-tray" serif:id="Baking tray"><path d="M434.321,561.932c148.346,-32.5 2508.35,-586.645 2750.88,-542.834c152.97,27.633 294.21,118.371 427.13,219.265c98.694,74.913 263.154,63.825 478.697,239.068c288.763,234.772 174.676,275.758 365.445,441.459c148.679,129.142 198.093,170.226 204.6,263.438c11.405,163.375 -960.215,403.952 -1170.94,457.846c-399.801,102.253 -1762.11,521.75 -2034.16,558.317c-72.112,9.692 -146.612,-5.597 -213.421,-33.107c-53.946,-22.213 -195.725,-151.391 -364.589,-323.061c-130.144,-132.306 -422.504,-177.093 -599.37,-407.161c-211.963,-275.722 -79.205,-350.854 -162.449,-467.904c-67.233,-94.538 -105.612,-164.24 -98.543,-191.494c40.008,-154.261 277.375,-183.303 416.726,-213.832Z" style="fill:#e4faff;"/><path d="M430.754,545.651c-84.719,18.561 -205.119,36.844 -296.698,82.051c-64.843,32.008 -115.372,77.475 -132.594,143.877c-2.704,10.425 -1.214,25.865 5.941,45.425c13.415,36.671 46.94,92.12 95.153,159.913c30.891,43.437 28.955,80.831 29.013,126.222c0.098,75.592 2.812,171.786 133.804,342.181c90.071,117.165 209.354,187.41 322.885,244.95c109.644,55.57 213.809,98.669 277.817,163.741c171.157,174.001 315.447,304.27 370.126,326.785c69.48,28.609 146.992,44.293 221.987,34.213c272.307,-36.601 1635.91,-456.341 2036.07,-558.688c147.908,-37.829 669.645,-167.47 965.469,-297.987c77.843,-34.344 140.264,-68.986 177.094,-101.882c28.83,-25.749 42.52,-51.665 40.871,-75.285c-4.185,-59.952 -24.507,-99.997 -74.858,-152.175c-31.567,-32.713 -75.486,-70.61 -135.439,-122.685c-92.949,-80.734 -111.505,-131.18 -142.123,-189.946c-32.061,-61.537 -76.406,-132.078 -223.737,-251.862c-131.403,-106.834 -244.067,-145.612 -334.877,-175.902c-57.603,-19.214 -106.091,-34.54 -144.257,-63.51c-135.068,-102.523 -278.803,-194.31 -434.244,-222.39c-49.251,-8.897 -184.561,5.886 -370.646,36.466c-733.346,120.513 -2268.04,480.479 -2386.76,506.488l0,0Zm7.134,32.562c118.634,-25.991 1652.22,-385.731 2385.03,-506.158c180.456,-29.655 311.554,-45.184 359.315,-36.556c150.499,27.187 289.243,116.876 420.016,216.139c40.79,30.961 92.301,48.045 153.864,68.58c87.939,29.332 197.147,66.687 324.396,170.144c170.047,138.253 197.851,207.955 233.253,276.789c24.788,48.198 53.115,95.997 131.776,164.322c58.991,51.239 102.251,88.477 133.311,120.665c43.59,45.172 61.97,79.449 65.593,131.351c1.089,15.605 -10.776,31.09 -29.824,48.103c-34.956,31.222 -94.462,63.648 -168.344,96.245c-294.216,129.807 -813.17,258.567 -960.274,296.19c-399.433,102.16 -1760.45,521.412 -2032.26,557.945c-69.229,9.305 -140.717,-5.589 -204.855,-31.999c-53.214,-21.912 -192.481,-149.997 -359.053,-319.337c-53.197,-54.081 -132.712,-94.184 -220.792,-137.487c-127.213,-62.542 -272.832,-132.322 -377.247,-268.145c-123.364,-160.472 -126.806,-250.718 -126.897,-321.908c-0.068,-52.463 0.521,-95.293 -35.183,-145.498c-39.561,-55.628 -69.019,-102.437 -84.691,-136.798c-4.804,-10.533 -8.264,-19.769 -10.148,-27.62c-1.301,-5.421 -2.034,-9.838 -1.154,-13.232c14.786,-57.007 59.416,-94.877 115.083,-122.356c89.183,-44.024 206.576,-61.305 289.078,-79.379l-0,-0Z" style="fill:#7e4021;"/><path d="M4448.62,890.433c-43.846,-35.432 -134.287,-105.251 -161.486,-127.44c-7.128,-5.815 -17.636,-4.749 -23.45,2.379c-5.815,7.127 -4.749,17.635 2.379,23.45c27.22,22.205 117.727,92.078 161.607,127.537c7.154,5.781 17.657,4.667 23.438,-2.488c5.782,-7.154 4.667,-17.657 -2.488,-23.438Z" style="fill:#7e4021;"/><path d="M4204.09,1341.76c72.016,-33.914 186.79,-74.161 254.903,-110.919c18.84,-10.167 34.291,-20.192 44.855,-29.692c8.978,-8.075 14.774,-16.192 17.517,-23.721c3.149,-8.643 -1.312,-18.216 -9.955,-21.365c-8.642,-3.149 -18.216,1.311 -21.365,9.954c-1.245,3.417 -4.412,6.683 -8.487,10.347c-9.013,8.106 -22.322,16.468 -38.396,25.143c-67.666,36.517 -181.729,76.404 -253.274,110.096c-8.322,3.919 -11.896,13.857 -7.977,22.179c3.919,8.322 13.857,11.897 22.179,7.978Z" style="fill:#7e4021;"/><path d="M3584.54,238.089c191.709,178.59 336.068,287.011 538.987,462.436c6.959,6.016 17.493,5.25 23.509,-1.708c6.015,-6.959 5.25,-17.493 -1.709,-23.509c-202.565,-175.119 -346.691,-283.33 -538.066,-461.609c-6.73,-6.27 -17.285,-5.896 -23.555,0.834c-6.27,6.731 -5.896,17.286 0.834,23.556Z" style="fill:#7e4021;"/><path d="M117.552,997.194c103.918,141.686 182.01,242.708 276.527,352.634c5.997,6.975 16.529,7.769 23.504,1.771c6.975,-5.997 7.768,-16.528 1.771,-23.503c-93.973,-109.294 -171.603,-209.745 -274.923,-350.616c-5.44,-7.417 -15.879,-9.023 -23.297,-3.582c-7.417,5.44 -9.022,15.879 -3.582,23.296Z" style="fill:#7e4021;"/><path d="M455.709,1417.96c2.126,2.316 9.962,10.843 10.866,11.743c12.221,12.183 24.396,24.384 36.93,36.247c6.681,6.324 17.238,6.034 23.561,-0.647c6.324,-6.68 6.034,-17.238 -0.647,-23.561c-12.324,-11.666 -24.294,-23.666 -36.311,-35.646c-1.517,-1.511 -12.813,-14.197 -16.671,-16.559c-4.876,-2.986 -9.196,-2.962 -11.834,-2.596c-9.111,1.267 -15.48,9.692 -14.214,18.803c0.743,5.347 3.952,9.75 8.32,12.216Z" style="fill:#7e4021;"/><path d="M740.92,731.858c203.142,-57.779 2112.52,-499.35 2325.46,-460.884c234.03,42.276 355.055,195.969 542.386,328.737c119.933,85.001 668.434,509.362 645.153,659.511c-22.031,142.093 -793.164,315.738 -978.176,363.057c-351.022,89.777 -1547.11,458.091 -1785.98,490.196c-63.314,8.51 -128.724,-4.914 -187.382,-29.067c-152.652,-62.856 -1001.28,-1039.27 -970.455,-1158.13c35.128,-135.439 288.524,-159.155 408.996,-193.421Z" style="fill:#c5e8f0;"/><path d="M736.361,715.827c-72.8,20.707 -193.752,37.745 -286.541,77.401c-66.683,28.499 -118.774,69.05 -134.029,127.867c-2.41,9.295 -1.527,22.703 3.871,39.545c9.961,31.079 35.567,77.448 72.785,133.87c144.89,219.655 467.272,597.675 689.701,821.998c97.306,98.134 176.373,166.865 213.885,182.312c61.329,25.253 129.751,39.071 195.948,30.173c239.114,-32.139 1436.5,-400.696 1787.89,-490.567c129.889,-33.221 547.792,-128.614 794.439,-231.686c65.005,-27.165 118.307,-55.033 152.092,-82.305c25.969,-20.963 40.853,-42.45 43.986,-62.659c3.208,-20.69 -2.323,-46.071 -16.039,-74.612c-18.441,-38.372 -51.808,-83.53 -94.372,-131.596c-161.691,-182.59 -457.173,-409.636 -541.575,-469.455c-189.446,-134.267 -312.388,-288.787 -549.06,-331.541c-43.358,-7.832 -155.853,3.322 -309.67,27.552c-604.913,95.289 -1860.64,387.435 -2023.31,433.703l-0,0Zm9.119,32.062c162.355,-46.179 1415.64,-337.734 2019.38,-432.838c148.347,-23.368 256.741,-35.23 298.557,-27.676c231.388,41.799 350.496,194.664 535.712,325.934c83.503,59.182 375.924,283.711 535.894,464.358c40.148,45.338 71.889,87.742 89.283,123.935c10.175,21.173 15.523,39.719 13.144,55.067c-2.156,13.9 -14.123,27.41 -31.985,41.829c-31.947,25.789 -82.536,51.798 -144.007,77.486c-245.204,102.469 -660.716,197.122 -789.845,230.148c-350.654,89.683 -1545.45,457.753 -1784.07,489.825c-60.43,8.123 -122.829,-4.907 -178.815,-27.96c-31.156,-12.829 -91.696,-65.348 -168.332,-140.546c-183.502,-180.061 -454.438,-489.827 -627.957,-721.47c-73.581,-98.229 -129.602,-182.166 -153.375,-235.814c-4.667,-10.533 -8.036,-19.768 -9.873,-27.598c-1.265,-5.394 -1.995,-9.774 -1.131,-13.105c12.849,-49.539 58.699,-81.581 114.863,-105.584c91.473,-39.094 210.793,-55.578 282.56,-75.991l0,0Z" style="fill:#7e4021;"/><path d="M343.821,948.715c-8.299,-6.319 -18.404,-20.916 -29.404,-38.793c-28.415,-46.179 -59.952,-113.869 -71.286,-140.856c-3.562,-8.481 -13.34,-12.474 -21.82,-8.912c-8.481,3.562 -12.475,13.339 -8.913,21.82c11.702,27.863 44.291,97.738 73.629,145.416c13.752,22.349 27.227,39.947 37.602,47.846c7.319,5.572 17.785,4.154 23.357,-3.165c5.572,-7.319 4.154,-17.784 -3.165,-23.356Z" style="fill:#7e4021;"/><path d="M3048.19,249.109c-2.205,1.575 -4.054,3.711 -5.31,6.324c-3.984,8.291 -0.487,18.257 7.804,22.241c7.447,3.578 13.608,2.283 18.928,-1.362c2.361,-1.617 4.71,-4.035 6.556,-7.402c1.436,-2.617 3.735,-9.71 4.078,-10.782c26.897,-43.537 53.498,-89.513 74.069,-136.369c3.697,-8.423 -0.139,-18.263 -8.561,-21.961c-8.423,-3.698 -18.263,0.138 -21.961,8.561c-20.038,45.642 -46.031,90.392 -72.229,132.777c-1.015,1.643 -2.371,5.161 -3.374,7.973Zm15.949,-1.91l0.17,0.066l-0.022,-0.009l-0.148,-0.057Z" style="fill:#7e4021;"/></g></svg>