<?xml version="1.0" encoding="UTF-8" standalone="no"?><!DOCTYPE svg PUBLIC "-//W3C//DTD SVG 1.1//EN" "http://www.w3.org/Graphics/SVG/1.1/DTD/svg11.dtd"><svg width="100%" height="100%" viewBox="0 0 2491 1784" version="1.1" xmlns="http://www.w3.org/2000/svg" xmlns:xlink="http://www.w3.org/1999/xlink" xml:space="preserve" xmlns:serif="http://www.serif.com/" style="fill-rule:evenodd;clip-rule:evenodd;stroke-linejoin:round;stroke-miterlimit:2;"><g id="Baking-cup" serif:id="Baking cup"><path d="M622.09,1476.44c-168.328,-136.877 -618.734,-1151.5 -604.281,-1170.2c204.142,-264.099 393.844,-179.082 597.788,-199.224c103.323,-10.204 195.662,-101.704 302.147,-88.69c117.22,14.327 232.048,114.548 349.349,112.992c8.518,-0.113 17.288,-1.781 25.471,-3.739c92.323,-22.094 172.39,-85.197 269.899,-92.844c124.315,-9.75 218.554,149.974 346.077,146.432c177.553,-4.932 235.069,-65.8 362.502,-27.11c48.805,14.817 216.653,67.396 202.02,131.115c-62.893,212.368 -387.766,953.407 -493.234,1096.68c-129.572,176.02 -289.363,255.973 -742.554,247.403c-198.906,-3.762 -427.598,-0.279 -615.184,-152.817Z" style="fill:#ffe6d8;"/><path d="M611.575,1489.38c190.783,155.136 423.089,152.724 625.384,156.549c461.981,8.737 624.206,-74.752 756.291,-254.186c105.972,-143.959 432.6,-888.447 495.793,-1101.83c0.098,-0.331 0.186,-0.665 0.263,-1.002c5.662,-24.655 -7.535,-49.18 -33.737,-70.322c-48.983,-39.522 -144.383,-69.755 -179.685,-80.472c-66.957,-20.329 -115.542,-14.725 -170.715,-3.168c-51.73,10.836 -109.62,27.136 -197.091,29.565c-60.293,1.675 -112.22,-36.38 -164.265,-72.567c-58.333,-40.559 -116.776,-78.986 -182.654,-73.82c-50.681,3.975 -96.899,22.133 -142.374,42.397c-42.806,19.075 -84.929,40.044 -130.1,50.854c-7.012,1.678 -14.515,3.186 -21.813,3.282c-56.291,0.747 -111.839,-23.44 -167.527,-49.02c-59.623,-27.386 -119.352,-56.488 -179.579,-63.849c-56.317,-6.883 -109.049,13.197 -161.206,37.021c-47.618,21.751 -94.713,46.699 -144.601,51.626c-81.27,8.026 -160.27,-0.763 -238.829,2.703c-122.345,5.399 -243.817,39.014 -370.508,202.914c-1.755,2.271 -4.225,6.582 -3.758,13.601c0.35,5.271 3.629,17.64 10.11,35.806c44.892,125.828 245.054,573.528 413.248,873.189c73.256,130.515 141.03,233.06 187.353,270.728l-0,-0Zm-576.297,-1178.42c116.734,-148.302 228.481,-179.534 341.321,-184.513c79.154,-3.493 158.751,5.255 240.636,-2.832c53.436,-5.277 104.17,-31.18 155.174,-54.478c46.465,-21.223 93.143,-40.386 143.313,-34.254c56.993,6.965 113.288,35.137 169.71,61.053c60.357,27.724 120.872,52.869 181.882,52.06c9.737,-0.129 19.774,-1.956 29.129,-4.195c47.153,-11.284 91.225,-32.913 135.91,-52.825c42.016,-18.722 84.586,-35.94 131.413,-39.612c58.442,-4.584 109.269,31.974 161.018,67.956c58.037,40.353 116.985,80.387 184.219,78.52c90.081,-2.502 149.726,-19.102 203,-30.261c49.832,-10.438 93.721,-15.922 154.197,2.438c28.534,8.663 98.879,30.443 147.467,59.996c14.746,8.968 27.432,18.541 35.646,28.867c5.659,7.112 9.195,14.368 7.601,22.136c-63.006,212.116 -385.638,948.508 -490.508,1090.97c-127.06,172.607 -284.412,249.023 -728.816,240.619c-195.518,-3.698 -420.594,0.855 -604.985,-149.084l-0,-0c-39.519,-32.135 -94.5,-114.033 -155.705,-219.745c-145.644,-251.55 -323.441,-637.027 -402.556,-828.158c-20.523,-49.582 -35.016,-92.406 -39.066,-104.659Z" style="fill:#7e4021;"/><path d="M16.876,312.86c16.079,-30.698 75.999,-70.113 105.893,-86.751c273.086,-151.991 288.884,38.004 492.828,17.863c103.323,-10.205 195.662,-101.704 302.147,-88.69c117.22,14.326 232.048,114.547 349.349,112.991c8.518,-0.113 17.288,-1.78 25.471,-3.739c92.323,-22.093 172.39,-85.196 269.899,-92.844c124.315,-9.749 218.554,149.974 346.077,146.432c177.553,-4.932 154.026,-140.087 406.835,-85.159c10.494,2.28 154.929,29.806 154.929,39.88c-0,127.916 -385.008,1102.69 -490.476,1245.97c-129.572,176.02 -289.363,255.974 -742.554,247.403c-198.906,-3.762 -427.598,-0.279 -615.184,-152.817c-168.328,-136.877 -574.285,-1075.11 -605.214,-1300.54Z" style="fill:#fff;"/><path d="M2.112,305.126c-1.608,3.071 -2.219,6.566 -1.748,9.999c21.767,158.649 227.894,668.612 407.894,1007.42c78.138,147.074 151.892,261.968 203.317,303.784c190.782,155.137 423.089,152.724 625.384,156.55c461.981,8.737 624.206,-74.753 756.291,-254.186c74.178,-100.768 286.355,-610.743 406.76,-951.839c52.284,-148.114 86.96,-264.942 86.96,-304.008c0,-3.877 -1.13,-8.535 -5.405,-12.921c-2.663,-2.733 -9.978,-7.03 -21.157,-10.708c-37.761,-12.425 -132.998,-30.691 -141.495,-32.537c-158.92,-34.53 -213.563,2.992 -272.072,39.365c-35.136,21.842 -71.737,43.558 -138.763,45.42c-60.293,1.675 -112.22,-36.38 -164.265,-72.568c-58.333,-40.559 -116.776,-78.986 -182.654,-73.819c-50.681,3.975 -96.899,22.132 -142.374,42.396c-42.806,19.075 -84.929,40.045 -130.1,50.854c-7.012,1.678 -14.515,3.186 -21.813,3.283c-56.291,0.747 -111.839,-23.441 -167.527,-49.02c-59.623,-27.387 -119.352,-56.489 -179.579,-63.85c-56.317,-6.883 -109.049,13.198 -161.206,37.022c-47.618,21.75 -94.713,46.699 -144.601,51.626c-77.684,7.672 -126.605,-17.097 -174.102,-39.81c-39.477,-18.877 -78.11,-36.381 -128.383,-37.492c-49.743,-1.1 -111.269,13.853 -196.81,61.462c-31.965,17.791 -95.359,60.756 -112.552,93.58Zm2451.02,-23.28c-4.424,44.583 -37.653,151.051 -84.551,283.91c-119.268,337.876 -328.695,843.356 -402.172,943.173c-127.06,172.607 -284.412,249.024 -728.816,240.619c-195.518,-3.697 -420.594,0.856 -604.985,-149.084c-49.572,-40.31 -119.587,-151.785 -194.91,-293.561c-175.986,-331.251 -377.982,-827.573 -403.475,-990.652l-0,-0c6.297,-9.53 16.958,-19.655 28.909,-29.57c22.746,-18.871 50.458,-36.387 67.746,-46.009c78.311,-43.586 134.324,-58.27 179.862,-57.263c45.009,0.995 79.398,17.339 114.74,34.239c52.259,24.99 106.286,51.351 191.758,42.91c53.436,-5.278 104.17,-31.181 155.174,-54.478c46.465,-21.224 93.143,-40.386 143.313,-34.255c56.993,6.966 113.288,35.137 169.71,61.054c60.357,27.724 120.872,52.869 181.882,52.059c9.737,-0.129 19.774,-1.956 29.129,-4.195c47.153,-11.284 91.225,-32.912 135.91,-52.824c42.016,-18.723 84.586,-35.94 131.413,-39.613c58.442,-4.583 109.269,31.975 161.018,67.956c58.037,40.354 116.985,80.388 184.219,78.52c75.016,-2.083 116.112,-25.985 155.436,-50.431c53.182,-33.061 102.947,-66.486 247.397,-35.101c8.588,1.866 109.443,20.738 141.293,32.596Z" style="fill:#7e4021;"/><circle cx="500.653" cy="889.546" r="167.372" style="fill:#fabea8;"/><path d="M45.748,360.171c87.49,-29.641 182.586,17.325 212.227,104.815c29.641,87.49 -17.325,182.586 -104.815,212.227c-5.466,-0.984 -90.581,-241.013 -107.412,-317.042Z" style="fill:#badcbe;"/><circle cx="897.232" cy="493.99" r="167.372" style="fill:#fee4a8;"/><circle cx="1112.75" cy="1015.56" r="167.372" style="fill:#badcbe;"/><circle cx="723.766" cy="1450.2" r="167.372" style="fill:#fee4a8;"/><circle cx="1521.17" cy="655.187" r="167.372" style="fill:#e5bdff;"/><circle cx="2150.35" cy="567.972" r="167.372" style="fill:#fabea8;"/><circle cx="1914.84" cy="1058.71" r="167.372" style="fill:#fee4a8;"/><circle cx="1487.63" cy="1378.12" r="167.372" style="fill:#fabea8;"/><path d="M236.753,178.897c-1.623,-8.584 -9.685,-14.533 -18.466,-13.42c-2.903,0.368 -17.701,4.294 -14.173,20.46c0.509,2.333 5.005,14.887 13.126,35.958c75.78,196.637 475.778,1193.21 580.942,1501.19c2.973,8.705 12.454,13.36 21.159,10.387c8.705,-2.972 13.359,-12.453 10.386,-21.158c-105.249,-308.23 -505.542,-1305.61 -581.384,-1502.41c-5.902,-15.315 -10.727,-28.619 -11.59,-31.011Zm-1.695,11.002c-2.464,4.582 -7.03,7.943 -12.579,8.647c4.979,-0.631 9.63,-2.944 12.579,-8.647Z" style="fill:#7e4021;"/><path d="M587.123,253.779c38.213,158.069 90.947,423.731 133.408,566.884c99.914,336.855 164.556,576.384 250.266,917.365c2.242,8.921 11.305,14.343 20.226,12.1c8.921,-2.242 14.344,-11.305 12.101,-20.226c-85.836,-341.484 -150.575,-581.366 -250.636,-918.718c-42.336,-142.734 -94.864,-407.631 -132.965,-565.238c-2.162,-8.941 -11.176,-14.445 -20.117,-12.284c-8.941,2.162 -14.445,11.175 -12.283,20.117Z" style="fill:#7e4021;"/><path d="M887.68,174.083c82.081,508.246 146.863,1071.11 223.994,1580.18c1.378,9.095 9.881,15.36 18.976,13.982c9.095,-1.378 15.36,-9.881 13.982,-18.976c-77.148,-509.172 -141.947,-1072.15 -224.045,-1580.5c-1.466,-9.081 -10.029,-15.262 -19.11,-13.796c-9.081,1.467 -15.263,10.03 -13.797,19.111Z" style="fill:#7e4021;"/><path d="M1260.14,273.746l-0.016,0.011l0.01,0.228l-0.013,0.523c-0.003,6.159 -0.018,37.153 -0.018,38.11c-0.002,29.227 -0.003,58.455 -0.004,87.683c-0.005,122.437 -0.008,244.876 -0.012,367.313c-0.011,328.682 -0.045,657.647 -0.004,986.317c0.001,9.198 7.47,16.665 16.669,16.664c9.199,-0.001 16.666,-7.47 16.665,-16.668c-0.042,-328.668 -0.008,-657.632 0.003,-986.312c0.005,-122.437 0.007,-244.875 0.012,-367.313c0.001,-29.227 0.002,-58.455 0.005,-87.682c-0,-0.957 0.014,-31.937 0.017,-38.093l-0.011,-0.46c0.012,-0.299 0.015,-0.601 0.009,-0.904l-0.054,-0.035c-0.676,-9.189 -8.294,-9.488 -16.068,-7.272c-8.305,-2.46 -16.792,-2.378 -17.19,7.89Z" style="fill:#7e4021;"/><path d="M1587.04,174.39c-15.3,127.259 -55.95,426.528 -70.767,553.844c-39.388,338.445 -67.78,684.015 -95.487,1023.43c-0.748,9.168 6.087,17.219 15.256,17.967c9.168,0.749 17.219,-6.087 17.967,-15.255c27.676,-339.031 56.029,-684.217 95.373,-1022.28c14.814,-127.288 55.457,-426.489 70.753,-553.719c1.098,-9.133 -5.425,-17.439 -14.558,-18.537c-9.133,-1.098 -17.439,5.425 -18.537,14.558Z" style="fill:#7e4021;"/><path d="M1893.87,329.075c-67.539,304.267 -231.917,1098.21 -316.729,1398.32c-2.502,8.852 2.653,18.069 11.505,20.571c8.852,2.502 18.07,-2.654 20.571,-11.506c84.925,-300.504 249.565,-1095.49 317.194,-1400.16c1.993,-8.98 -3.679,-17.889 -12.659,-19.882c-8.98,-1.993 -17.889,3.679 -19.882,12.659Z" style="fill:#7e4021;"/><path d="M2238.47,236.766c-35.466,148.424 -386.132,1139.84 -475.302,1447.44c-2.561,8.835 2.532,18.087 11.367,20.648c8.835,2.561 18.087,-2.532 20.648,-11.367c89.263,-307.919 440.205,-1300.39 475.708,-1448.97c2.137,-8.947 -3.391,-17.946 -12.337,-20.084c-8.947,-2.137 -17.946,3.391 -20.084,12.337Z" style="fill:#7e4021;"/></g></svg>