<?xml version="1.0" encoding="UTF-8" standalone="no"?><!DOCTYPE svg PUBLIC "-//W3C//DTD SVG 1.1//EN" "http://www.w3.org/Graphics/SVG/1.1/DTD/svg11.dtd"><svg width="100%" height="100%" viewBox="0 0 3612 1089" version="1.1" xmlns="http://www.w3.org/2000/svg" xmlns:xlink="http://www.w3.org/1999/xlink" xml:space="preserve" xmlns:serif="http://www.serif.com/" style="fill-rule:evenodd;clip-rule:evenodd;stroke-linejoin:round;stroke-miterlimit:2;"><g id="Bow-02"><path d="M621.914,529.915c-6.26,1.245 -44.47,-3.86 -116.803,13.972c-76.544,18.869 -112.499,51.207 -182.438,86.964c-72.313,36.971 -147.298,64.146 -253.915,56.44c-29.503,-2.133 52.596,124.151 47.128,148.572c-6.321,28.232 -102.915,199.953 -98.114,204.333c13.028,11.888 64.342,-29.88 73.181,-35.739c148.412,-98.395 300.657,-230.348 482.106,-252.077c6.496,-0.778 80.305,11.64 82.966,4.55c9.807,-26.125 -39.624,-202.681 -34.111,-227.015Z" style="fill:#f6a7bc;"/><path d="M99.444,832.93c-6.865,26.95 -83.83,164.551 -95.788,195.182c-2.466,6.318 -2.822,10.878 -2.672,12.87c0.428,5.709 3.05,9.242 5.553,11.526c4.383,3.999 10.119,6.369 17.201,6.47c5.641,0.08 12.752,-1.538 20.45,-4.819c21.073,-8.981 49.492,-31.514 55.974,-35.811c146.329,-97.014 295.976,-227.995 474.878,-249.42c5.087,-0.609 52.315,7.305 72.346,6.839c8.65,-0.201 14.669,-2.449 17.419,-4.336c3.579,-2.457 5.652,-5.523 6.824,-8.643c1.689,-4.501 2.689,-12.064 2.213,-22.034c-0.802,-16.772 -5.225,-42.816 -10.823,-71.232c-8.063,-40.93 -18.52,-87.006 -22.931,-115.947c-1.456,-9.549 -2.679,-16.625 -1.919,-19.977c1.247,-5.505 -0.377,-11.267 -4.315,-15.311c-3.938,-4.043 -9.655,-5.819 -15.191,-4.718c-6.3,1.252 -44.745,-3.81 -117.541,14.135c-77.993,19.227 -114.773,51.874 -186.036,88.308c-69.82,35.696 -142.184,62.096 -245.127,54.656c-9.332,-0.675 -15.406,2.993 -19.493,8.351c-3.525,4.621 -5.973,12.582 -4.017,23.5c3.59,20.036 24.045,60.025 39.153,93.082c5.408,11.832 10.05,22.673 12.503,31.046c0.664,2.266 1.198,5.411 1.339,6.283Zm541.21,-91.041c-7.874,-0.364 -19.501,-1.032 -28.652,-2.081c-19.387,-2.223 -37.699,-4.363 -40.925,-3.977c-183.996,22.035 -338.838,154.958 -489.334,254.735c-4.444,2.946 -19.893,15.27 -35.557,24.855c25.809,-52.338 81.193,-154.606 85.964,-175.917c1.398,-6.243 0.004,-17.398 -5.008,-31.108c-8.327,-22.783 -25.841,-56.362 -37.698,-83.446c-2.838,-6.483 -5.477,-14.172 -7.39,-20.188c102.681,4.621 176.722,-22.524 248.206,-59.071c68.615,-35.08 103.745,-67.11 178.84,-85.622c45.68,-11.261 77.666,-13.285 96.51,-13.583l0,0c0.355,3.692 0.86,7.747 1.525,12.112c4.465,29.294 15.018,75.938 23.179,117.366c4.51,22.893 8.289,44.135 9.743,59.666c0.212,2.271 0.433,4.366 0.597,6.259Z" style="fill:#7e4021;"/><path d="M2070.62,745.043c5.256,5.259 -73.315,77.504 -77.419,80.355c-134.495,93.445 -354.511,172.07 -510.848,73.662c-26.09,-16.422 128.748,-62.589 186.114,-82.428c58.085,-20.087 118.026,-33.953 176.242,-53.633c48.749,-16.48 117.103,-68.667 128.477,-55.142c16.307,19.389 52.268,47.654 97.434,37.186Z" style="fill:#f6a7bc;"/><path d="M2082.41,733.261c-4.067,-4.07 -9.946,-5.754 -15.551,-4.455c-37.633,8.723 -67.328,-15.521 -80.915,-31.676c-5.379,-6.397 -15.586,-10.48 -30.296,-6.364c-25.052,7.01 -77.01,43.17 -116.274,56.444c-58.253,19.693 -118.23,33.571 -176.353,53.671c-47.077,16.28 -157.925,50.42 -186.767,71.82c-9.7,7.198 -13.177,15.267 -13.474,21.014c-0.357,6.904 2.047,14.006 10.696,19.45c65.683,41.345 142.006,53.237 219.062,45.984c112.918,-10.629 227.371,-62.533 310.175,-120.064c3.942,-2.739 72.049,-65.683 81.584,-82.294c6.623,-11.538 1.62,-20.021 -1.887,-23.53Zm-117.831,-10.009c14.506,15.56 38.664,33.719 68.864,39.111c-20.279,20.44 -47.603,47.856 -49.75,49.348c-78.59,54.603 -187.106,104.163 -294.278,114.251c-63.979,6.022 -127.497,-2.073 -183.441,-32.39c0.602,-0.335 1.202,-0.654 1.794,-0.956c39.673,-20.193 126.506,-46.523 166.148,-60.232c58.049,-20.075 117.953,-33.928 176.133,-53.596c29.935,-10.12 67.166,-33.253 94.618,-47.265c6.94,-3.542 15.586,-6.747 19.912,-8.271Z" style="fill:#7e4021;"/><path d="M2141.74,716.665c-8.212,12.328 75.248,76.789 84.734,83.092c105.472,70.084 229.809,100.1 352.702,121.984c179.564,31.975 364.512,36.288 542.555,75.885c78.405,17.437 246.815,86.678 321.831,71.924c67.309,-13.238 -38.541,-113.955 -28.061,-126.706c24.965,-30.375 210.586,-181.157 175.267,-211.844c-15.411,-13.389 -352.861,-0.316 -404.694,-6.326c-131.017,-15.189 -256.212,-57.502 -385.926,-78.036c-101.301,-16.036 -205.54,0.248 -306.598,10.596c-98.73,10.109 -313.872,-49.905 -351.81,59.431Z" style="fill:#f6a7bc;"/><path d="M2126.46,709.893c-1.583,3.279 -2.322,7.105 -1.789,11.525c0.543,4.502 3.138,10.971 8.542,18.092c18.377,24.217 76.054,68.823 84.039,74.128c107.389,71.358 233.878,102.23 359.004,124.512c179.332,31.933 364.046,36.2 541.859,75.745c46.926,10.436 126.166,39.5 198.218,57.883c50.998,13.011 98.669,20.376 130.447,14.126c17.298,-3.402 26.77,-11.512 31.732,-20.954c6.582,-12.523 4.911,-30.107 -3.576,-48.905c-8.413,-18.632 -23.004,-39.22 -33.707,-55.418c-2.814,-4.258 -5.747,-9.383 -7.689,-12.909c30.677,-31.997 140.955,-125.473 169.584,-177.821c12.564,-22.972 10.318,-41.277 -1.423,-51.478c-2.138,-1.858 -6.585,-4.456 -13.782,-5.896c-7.78,-1.556 -21.549,-2.706 -39.536,-3.4c-95.598,-3.688 -319.068,3.786 -360.388,-1.004c-130.786,-15.163 -255.753,-57.445 -385.239,-77.942c-102.72,-16.261 -208.428,-0.016 -310.902,10.477c-59.194,6.061 -160.267,-13.125 -239.842,-5.827c-59.907,5.493 -107.89,26.217 -125.552,75.066Zm1451.17,35.027c-0.514,1.8 -1.224,3.961 -2.056,5.689c-3.402,7.062 -8.822,15.065 -15.54,23.727c-43.939,56.65 -139.971,136.707 -157.41,157.926c-3.749,4.561 -6.357,12.093 -2.818,22.32c4.151,11.998 22.624,36.029 36.673,59.889c5.689,9.662 10.625,19.237 12.415,27.722c0.592,2.804 1.28,5.355 0.052,7.35c-1.358,2.205 -4.425,2.833 -8.602,3.654c-28.235,5.553 -70.46,-2.157 -115.773,-13.718c-72.413,-18.474 -152.062,-47.634 -199.223,-58.122c-178.273,-39.648 -363.454,-44.008 -543.252,-76.025c-120.659,-21.486 -242.843,-50.646 -346.399,-119.457c-5.759,-3.826 -39.783,-29.931 -62.215,-51.67c-5.617,-5.443 -11.549,-12.692 -14.387,-16.271c14.431,-34.421 51.942,-45.877 95.958,-49.913c79.692,-7.309 180.913,11.863 240.194,5.793c99.642,-10.203 202.411,-26.526 302.294,-10.714c129.942,20.57 255.366,62.914 386.612,78.13c41.613,4.825 266.667,-2.512 362.942,1.202c11.636,0.449 23.812,1.708 30.535,2.488Z" style="fill:#7e4021;"/><path d="M807.911,617.473c-48.416,-23.868 -70.444,-66.315 -68.977,-106.77c2.802,-77.261 33.362,-122.745 71.142,-140.288c245.213,-113.862 589.355,-52.623 806.493,68.398c9.511,5.301 12.441,6.964 21.861,12.343c57.21,32.667 290.105,141.638 289.362,144.418c-0.45,1.68 -259.622,-15.933 -333.888,-7.137c-81.067,9.602 -178.261,27.712 -258.654,42.159c-63.965,11.495 -149.454,48.939 -214.907,36.58c-29.323,-5.537 -53.261,-36.379 -74.287,-55.303c-50.928,-45.836 -153.036,-113.403 -238.145,5.6Z" style="fill:#f3859b;"/><path d="M800.542,632.422c7.32,3.609 16.178,1.386 20.926,-5.253c22.771,-31.839 46.566,-49.134 70.424,-56.039c56.472,-16.344 110.762,24.103 143.015,53.131c12.874,11.588 26.863,27.507 42.423,39.647c12.343,9.63 25.678,16.956 39.921,19.645c28.15,5.316 59.76,2.33 91.945,-4.277c44.761,-9.19 90.741,-25.4 129.002,-32.276c80.087,-14.392 176.908,-32.446 257.666,-42.012c66.317,-7.855 281.229,5.675 323.874,7.212c6.858,0.248 10.941,-0.162 11.742,-0.349c9.521,-2.216 11.646,-9.104 12.413,-11.971c0.903,-3.379 1.617,-8.863 -3.108,-14.8c-0.672,-0.845 -4.325,-4.234 -11.568,-8.071c-37.639,-19.941 -231.119,-110.975 -282.523,-140.326c-9.485,-5.416 -12.435,-7.091 -22.011,-12.428c-221.196,-123.283 -571.83,-184.946 -821.626,-68.956c-41.939,19.474 -77.668,69.035 -80.779,154.8c-1.676,46.217 22.952,95.055 78.264,122.323Zm1050.61,-56.87c-83.322,-4.036 -210.59,-9.425 -259.213,-3.666c-81.375,9.639 -178.941,27.804 -259.64,42.306c-32.291,5.803 -70.025,18.115 -107.936,27.457c-35.101,8.649 -70.339,14.926 -100.931,9.15c-11.879,-2.243 -22.411,-10.061 -32.358,-18.785c-12.223,-10.719 -23.407,-23.11 -33.872,-32.529c-39.052,-35.147 -106.205,-80.164 -174.581,-60.374c-26.515,7.674 -53.576,24.901 -79.239,56.759l-0,0c-33.336,-21.077 -48.927,-53.369 -47.796,-84.563c2.494,-68.77 27.877,-110.16 61.505,-125.775c240.631,-111.735 578.28,-50.92 791.36,67.839c9.445,5.265 12.355,6.917 21.711,12.258c37.046,21.154 147.633,74.26 220.99,109.923Z" style="fill:#7e4021;"/><path d="M848.352,576.191c0.051,-0.811 0.615,-9.331 2.106,-15.581c5.83,-24.439 20.182,-57.592 25.15,-67.916c3.988,-8.289 0.497,-18.257 -7.792,-22.245c-8.289,-3.989 -18.257,-0.497 -22.245,7.792c-5.457,11.34 -21.133,47.79 -27.537,74.634c-3.687,15.459 -3.612,28.608 -0.632,35.665c3.579,8.474 13.364,12.448 21.838,8.87c8.268,-3.492 12.253,-12.894 9.112,-21.219Z" style="fill:#7e4021;"/><path d="M2098.02,604.376c14.27,-3.508 28.463,-7.272 42.561,-11.423c23.362,-6.879 46.217,-14.879 69.025,-23.406c84.333,-31.532 168.545,-62.794 251.468,-97.96c117.775,-49.945 161.415,-51.251 271.89,-115.983c58.909,-34.517 114.677,-132.583 238.848,-179.665c80.648,-30.579 149.018,18.76 157.773,30.289c46.291,-24.383 129.556,-78.737 160.785,-83.891c-78.945,-83.933 -253.162,-112.539 -338.005,-103.24c-388.863,42.623 -596.987,334.096 -854.345,585.279Z" style="fill:#f3859b;"/><path d="M2086.37,592.449c-5.379,5.25 -6.578,13.451 -2.927,20.022c3.65,6.57 11.247,9.884 18.547,8.09c14.515,-3.568 28.951,-7.398 43.291,-11.62c23.743,-6.991 46.973,-15.116 70.154,-23.783c84.558,-31.616 168.993,-62.967 252.138,-98.227c118.629,-50.307 162.533,-51.746 273.809,-116.947c24.558,-14.389 48.768,-39.174 77.05,-67.118c39.311,-38.841 87.331,-84.062 159.281,-111.343c50.466,-19.135 95.538,-3.106 120.733,11.675c9.355,5.488 15.823,10.431 17.858,13.11c4.929,6.491 13.829,8.465 21.04,4.666c27.825,-14.656 68.986,-40.116 104.219,-59.258c21.355,-11.602 40.136,-21.057 51.513,-22.935c6.074,-1.002 11.101,-5.271 13.074,-11.103c1.972,-5.831 0.57,-12.275 -3.648,-16.76c-82.263,-87.46 -263.552,-118.079 -351.961,-108.388c-197.982,21.7 -350.045,106.546 -485.279,218.142c-133.156,109.881 -249.875,245.856 -378.892,371.777Zm68.866,-21.481c110.747,-111.931 214.624,-228.353 331.242,-324.586c130.384,-107.593 276.814,-189.795 467.694,-210.717c74.884,-8.208 222.649,13.719 304.583,80.101c-4.953,2.207 -10.203,4.718 -15.671,7.485c-34.344,17.38 -78.755,44.861 -110.964,62.656c-4.447,-3.55 -10.081,-7.515 -16.807,-11.461c-31.174,-18.287 -86.977,-37.767 -149.418,-14.091c-77.055,29.217 -128.79,77.203 -170.891,118.799c-25.992,25.682 -47.904,48.846 -70.474,62.07c-109.674,64.262 -153.049,65.437 -269.971,115.019c-82.701,35.072 -166.691,66.245 -250.798,97.693c-16.095,6.017 -32.213,11.771 -48.525,17.032Z" style="fill:#7e4021;"/><path d="M3117.89,175.193c-79.12,-54.653 -227.746,-56.031 -321.137,12.533c-7.415,5.444 -9.015,15.884 -3.572,23.298c5.444,7.415 15.884,9.016 23.299,3.572c82.156,-60.316 212.863,-60.055 282.465,-11.977c7.568,5.228 17.957,3.328 23.185,-4.24c5.228,-7.569 3.328,-17.958 -4.24,-23.186Z" style="fill:#7e4021;"/><path d="M2089.58,608.071c8.276,9.459 32.68,40.512 42.887,47.787c22.168,15.801 51.497,24.419 77.242,33.346c78.013,27.052 677.21,-127.903 776.472,-146.979c83.437,-16.036 190.28,-43.996 257.883,-128.528c44.39,-55.505 79.565,-218.055 48.372,-287.715c-32.407,-23.223 -131.839,59.544 -242.012,116.722c-171.502,89.007 -352.638,111.506 -533.267,179.313c-138.345,51.933 -306.925,96.708 -427.577,186.054Z" style="fill:#facad0;"/><path d="M2079.66,594.677c-3.742,2.771 -6.154,6.98 -6.653,11.609c-0.498,4.629 0.962,9.255 4.028,12.759c8.772,10.027 34.937,42.673 45.756,50.385c23.414,16.689 54.263,26.092 81.455,35.521c8.259,2.864 21.448,4.362 38.764,4.03c34.943,-0.67 89.155,-8.144 152.998,-19.584c209.248,-37.492 523.81,-117.447 593.317,-130.805c86.765,-16.675 197.453,-46.581 267.754,-134.486c27.983,-34.99 53.105,-110.26 61.147,-180.854c5.49,-48.19 2.842,-94.104 -10.581,-124.081c-1.206,-2.693 -3.105,-5.017 -5.503,-6.736c-6.557,-4.699 -14.637,-7.193 -24.285,-7.128c-10.308,0.069 -23.046,3.318 -37.65,9.485c-47.565,20.086 -119.893,72.861 -197.462,113.118c-170.898,88.694 -351.455,110.936 -531.448,178.503c-139.711,52.447 -309.794,98.036 -431.637,188.264Zm34.15,16.553c118.244,-81.698 277.611,-124.212 409.202,-173.61c181.266,-68.045 362.981,-90.802 535.088,-180.123c66.133,-34.323 128.401,-77.857 174.635,-102.178c13.974,-7.351 26.28,-12.89 36.615,-15.413c3.924,-0.959 7.332,-1.879 10.119,-1.567c9.405,25.692 10.027,62.611 5.638,101.14c-7.266,63.785 -28.776,132.192 -54.061,163.808c-64.908,81.162 -167.903,107.175 -248.012,122.57c-69.46,13.35 -383.801,93.263 -592.905,130.73c-53.04,9.503 -99.212,16.271 -132.651,18.41c-19.576,1.252 -34.205,1.271 -42.311,-1.54c-24.297,-8.425 -52.107,-16.258 -73.028,-31.17c-6.399,-4.562 -18.603,-19.185 -28.329,-31.057l-0,-0Z" style="fill:#7e4021;"/><path d="M1998.98,647.923c-34.033,-114.916 -437.57,-60.007 -641.696,-39.394c-107.028,10.807 -385.21,99.677 -553.186,11.486c-71.923,-37.76 -63.904,-163.25 -8.35,-242.066c-43.521,6.974 -91.793,42.384 -121.648,72.103c-133.102,132.495 -54.302,359.142 135.704,430.01c156.037,58.2 377.626,55.136 539.851,29.129c231.328,-37.085 672.075,-184.448 649.325,-261.268Z" style="fill:#facad0;"/><path d="M2014.96,643.191c-5.133,-17.334 -16.63,-31.85 -33.904,-43.479c-22.235,-14.97 -54.87,-25.25 -94.583,-31.346c-144.312,-22.149 -386.839,9.037 -530.863,23.58c-64.081,6.471 -189.64,41.033 -316.045,48.6c-81.299,4.867 -163.036,-1.327 -227.72,-35.287c-24.141,-12.675 -36.864,-37.558 -41.279,-66.572c-7.31,-48.034 7.934,-107.338 38.805,-151.136c3.862,-5.478 4.065,-12.737 0.517,-18.424c-3.548,-5.687 -10.158,-8.695 -16.777,-7.634c-46.665,7.477 -98.757,44.881 -130.769,76.747c-141.353,140.707 -60.145,382.177 141.637,457.438c158.489,59.114 383.54,56.385 548.314,29.969c163.417,-26.198 430.367,-107.012 567.969,-179.684c37.395,-19.749 65.528,-39.251 80.655,-56.749c14.127,-16.34 18.122,-32.252 14.043,-46.023Zm-31.961,9.465c0.545,1.84 -0.171,3.73 -1.142,5.791c-1.372,2.915 -3.486,5.878 -6.156,8.966c-13.24,15.315 -38.276,31.79 -71.005,49.075c-135.097,71.348 -397.238,150.525 -557.68,176.246c-159.675,25.599 -377.803,28.997 -531.388,-28.287c-178.235,-66.479 -254.627,-278.296 -129.769,-402.583c18.985,-18.899 45.84,-40.543 73.859,-54.373c-20.147,43.854 -28.553,93.848 -22.106,136.211c6.108,40.14 25.34,73.535 58.738,91.07c69.697,36.592 157.607,44.292 245.207,39.048c126.942,-7.599 253.048,-42.211 317.402,-48.709c141.751,-14.314 380.423,-45.597 522.458,-23.797c28.599,4.389 53.079,10.877 71.548,20.464c15.217,7.898 26.113,17.639 30.034,30.878Z" style="fill:#7e4021;"/><path d="M2129.64,608.901c-18.086,-27.258 -127.514,-22.699 -172.781,4.373c-8.737,5.225 -20.752,54.499 -4.182,100.259c14.696,40.588 57.189,78.313 65.193,81.55c26.9,10.881 131.505,-13.433 153.363,-44.715c24.009,-34.36 -8.298,-91.287 -41.593,-141.467Z" style="fill:#facad0;"/><path d="M2143.52,599.686c-7.233,-10.9 -24.557,-19.852 -48.11,-23.453c-44.606,-6.82 -112.83,2.234 -147.113,22.737c-4.469,2.673 -11.349,11.028 -15.357,25.029c-6.148,21.475 -8.941,59.309 4.058,95.209c11.237,31.034 37.136,60.691 54.792,76.812c9.106,8.314 16.666,13.237 19.823,14.514c5.464,2.21 13.249,3.634 22.715,3.829c17.534,0.36 42.149,-3.233 66.414,-9.726c36.595,-9.792 71.742,-26.972 84.145,-44.722c12.242,-17.52 14.023,-39.526 7.806,-63.86c-7.711,-30.185 -28.114,-64.629 -49.173,-96.369Zm-118.866,180.146c-0.982,-0.719 -6.109,-4.521 -10.388,-8.428c-14.672,-13.397 -36.588,-37.757 -45.926,-63.545c-7.921,-21.876 -8.416,-44.664 -6.021,-61.724c1.117,-7.951 4.319,-17.039 5.368,-19.863c29.755,-16.429 85.801,-22.728 122.685,-17.089c7.278,1.113 13.749,2.682 18.938,4.897c2.795,1.193 5.23,2.221 6.434,4.036c18.895,28.477 37.735,59.106 44.653,86.189c3.539,13.854 4.136,26.543 -2.834,36.517c-3.221,4.61 -9.131,8.702 -16.284,12.735c-13.489,7.605 -31.231,14.084 -49.153,18.88c-18.056,4.831 -36.314,7.945 -50.751,8.524c-7.008,0.281 -12.872,0.228 -16.721,-1.129Z" style="fill:#7e4021;"/></g></svg>