<?xml version="1.0" encoding="UTF-8" standalone="no"?><!DOCTYPE svg PUBLIC "-//W3C//DTD SVG 1.1//EN" "http://www.w3.org/Graphics/SVG/1.1/DTD/svg11.dtd"><svg width="100%" height="100%" viewBox="0 0 2947 3459" version="1.1" xmlns="http://www.w3.org/2000/svg" xmlns:xlink="http://www.w3.org/1999/xlink" xml:space="preserve" xmlns:serif="http://www.serif.com/" style="fill-rule:evenodd;clip-rule:evenodd;stroke-linejoin:round;stroke-miterlimit:2;"><g id="Bow-01"><path d="M1448.86,1018.88c-0.526,-12.442 -4.081,-24.403 -8.223,-36.074c-11.262,-31.734 -26.04,-62.892 -45.306,-90.561c-57.496,-82.577 -149.93,-167.087 -235.708,-218.118c-160.93,-95.74 -334.614,-122.755 -495.495,-240.892c-95.841,-70.378 -171.516,-194.101 -172.435,-283.448c-0.33,-32.141 16.634,-73.159 26.644,-92.674c-58.823,36.162 -111.641,83.091 -123.16,95.563c-22.965,24.866 -44.022,52.695 -51.635,86.947c-38.927,175.138 260.298,397.941 392.031,471.214c98.045,54.535 226.11,131.119 318.007,194.965c130.679,90.789 259.039,148.573 395.28,113.078Z" style="fill:#facad0;"/><path d="M1453.06,1035.01c7.596,-1.979 12.781,-8.99 12.45,-16.833c-0.597,-14.11 -4.471,-27.709 -9.168,-40.944c-11.756,-33.125 -27.225,-65.628 -47.335,-94.51c-58.757,-84.388 -153.205,-170.769 -240.865,-222.919c-160.464,-95.462 -333.737,-122.207 -494.152,-240.002c-91.547,-67.224 -164.755,-184.841 -165.633,-270.186c-0.303,-29.48 15.627,-66.996 24.807,-84.896c3.412,-6.651 1.978,-14.76 -3.508,-19.837c-5.486,-5.078 -13.682,-5.882 -20.05,-1.967c-60.539,37.217 -114.819,85.617 -126.674,98.453c-24.935,26.997 -47.396,57.45 -55.662,94.639c-16.533,74.383 22.679,157.5 86.68,234.679c91.812,110.715 233.259,210.073 313.519,254.716c97.61,54.293 225.111,130.526 316.599,194.087c135.084,93.85 268.159,152.211 408.992,115.52Zm-22.741,-28.874c-126.314,26.713 -245.549,-29.482 -367.232,-114.021c-92.305,-64.129 -220.933,-141.065 -319.415,-195.842c-77.818,-43.285 -215.045,-139.517 -304.063,-246.864c-56.556,-68.2 -94.409,-140.438 -79.799,-206.169c6.96,-31.316 26.612,-56.521 47.609,-79.255c8.192,-8.87 37.943,-35.637 75.721,-63.122c-4.829,16.354 -8.273,33.679 -8.114,49.096c0.96,93.351 79.1,223.18 179.235,296.71c161.348,118.48 335.442,145.765 496.839,241.782c83.896,49.912 174.317,132.553 230.552,213.319c18.42,26.456 32.508,56.269 43.276,86.611c2.07,5.832 4.022,11.735 5.391,17.755l0,-0Z" style="fill:#7e4021;"/><path d="M510.437,69.923c1.128,-2.613 2.941,-4.938 4.611,-7.237c4.62,-6.359 10.484,-11.974 16.401,-17.108c18.171,-15.765 41.069,-25.984 65.062,-27.979c65.254,-5.426 128.786,38.918 177.686,76.902c94.368,73.304 186.193,153.585 261.861,246.368c66.315,81.315 121.315,171.342 180.736,257.606c33.878,49.184 64.477,99.957 90.267,153.895c3.816,7.98 51.256,87.62 65.352,108.804c0.237,0.356 -112.925,-143.29 -286.901,-227.582c-67.004,-32.464 -214.726,-82.703 -237.976,-101.781c-16.667,-13.676 -33.963,-67.523 -46.755,-88.7c-36.176,-59.888 -80.617,-115.666 -130.682,-164.511c-33.629,-32.809 -70.374,-63.74 -110.287,-88.664c-7.425,-4.637 -47.406,-27.598 -63.908,-33.834c-6.798,-14.836 3.284,-60.104 14.533,-86.179Z" style="fill:#f6a7bc;"/><path d="M495.134,63.321c-8.529,19.768 -16.392,49.734 -17.844,71.439c-0.806,12.041 0.604,22.045 3.463,28.285c1.828,3.989 5.155,7.097 9.26,8.648c15.755,5.953 53.882,27.953 60.971,32.379c38.906,24.295 74.697,54.477 107.476,86.458c49.058,47.862 92.607,102.516 128.055,161.198c7.48,12.384 16.453,36.272 26.014,56.247c7.816,16.33 16.467,30.182 24.434,36.72c7.587,6.226 27.182,15.856 53.112,26.745c55.383,23.257 141.472,54.525 188.17,77.15c153.517,74.381 258.724,195.913 278.064,219.218c1.893,2.281 2.945,3.601 3.12,3.818c0.752,0.928 1.234,1.369 1.306,1.44c9.051,8.889 18.261,3.507 19.686,2.726c4.432,-2.428 9.972,-7.147 8.473,-17.099c-0.101,-0.672 -0.278,-3.254 -2.606,-6.751c-13.834,-20.792 -60.446,-98.929 -64.191,-106.762c-26.168,-54.728 -57.202,-106.254 -91.578,-156.159c-59.675,-86.634 -114.946,-177.022 -181.545,-258.686c-76.459,-93.753 -169.198,-174.925 -264.553,-248.996c-51.937,-40.344 -119.984,-86.112 -189.291,-80.349c-27.501,2.286 -53.775,13.93 -74.603,31.998c-6.863,5.955 -13.603,12.526 -18.962,19.901c-2.386,3.283 -4.821,6.7 -6.431,10.432Zm792.627,687.446c-49.618,-43.879 -116.184,-93.996 -194.982,-132.174c-47.108,-22.824 -133.929,-54.425 -189.798,-77.886c-21.75,-9.134 -38.509,-16.558 -44.873,-21.78c-5.368,-4.405 -10.247,-14.342 -15.512,-25.343c-10.059,-21.015 -19.679,-46.062 -27.549,-59.09c-36.904,-61.093 -82.237,-117.996 -133.309,-167.823c-34.478,-33.638 -72.177,-65.319 -113.099,-90.872c-6.705,-4.188 -38.846,-22.615 -58.589,-31.754c-0.164,-4.042 0.545,-9.246 1.312,-14.961c2.321,-17.3 8.149,-38.12 14.378,-52.558c0.646,-1.496 1.835,-2.727 2.792,-4.044c3.881,-5.342 8.868,-10.002 13.839,-14.315c15.515,-13.46 35.035,-22.255 55.521,-23.959c61.205,-5.089 120.215,37.828 166.081,73.456c93.38,72.536 184.293,151.926 259.168,243.738c66.032,80.967 120.761,170.633 179.927,256.528c31.536,45.782 60.199,92.955 84.693,142.837Z" style="fill:#7e4021;"/><path d="M1595.14,1057.3c59.231,-31.306 238.112,-106.549 343.21,-110.749c203.284,-8.122 403.271,83.87 604.613,104.539c65.372,6.711 128.472,5.376 193.316,-5.121c27.466,-4.447 93.477,-23.081 93.157,-20.817c-3.183,22.568 -148.71,108.017 -167.776,118.251c-216.654,116.298 -469.283,69.877 -701.618,39.554c-55.329,-7.222 -341.084,-28.371 -377.078,-48.573c-7.815,-4.386 -10.823,-64.929 12.176,-77.084Z" style="fill:#facad0;"/><path d="M1587.35,1042.56c-9.843,5.201 -17.409,15.588 -21.73,28.878c-4.947,15.216 -5.877,34.354 -4.396,48.401c0.899,8.524 2.818,15.423 4.833,19.481c2.501,5.036 5.864,7.974 8.748,9.593c11.551,6.483 46.997,13.78 92.772,20.016c99.876,13.607 251.563,25.493 290.306,30.549c235.684,30.761 491.881,76.579 711.658,-41.395c15.554,-8.35 113.603,-65.859 153.881,-100.285c8.455,-7.227 14.619,-13.769 17.924,-18.841c2.786,-4.276 4.132,-8.224 4.592,-11.482c0.497,-3.524 -1.945,-21.376 -20.466,-18.94c-10.765,1.416 -67.009,16.953 -91.858,20.976c-63.38,10.261 -125.056,11.554 -188.951,4.995c-202.112,-20.749 -402.92,-112.766 -606.98,-104.613c-107.246,4.285 -289.892,80.722 -350.333,112.667Zm1183.48,13.279c-44.444,31.057 -105.273,66.55 -117.055,72.874c-213.532,114.622 -462.591,67.599 -691.578,37.712c-38.718,-5.053 -190.308,-16.926 -290.12,-30.524c-35.035,-4.773 -63.328,-9.214 -76.458,-14.057c-0.735,-6.451 -2.222,-22.936 0.114,-34.062c0.909,-4.331 2.157,-8.441 4.012,-11.832c0.89,-1.627 1.752,-3.165 3.181,-3.92l-0,-0c58.021,-30.666 233.136,-104.717 336.088,-108.83c202.506,-8.092 401.672,83.875 602.245,104.465c66.848,6.862 131.373,5.486 197.682,-5.249c7.667,-1.241 19.388,-3.734 31.889,-6.577Z" style="fill:#7e4021;"/><path d="M2825.55,1033.35c16.994,-12.9 36.731,-41.283 48.471,-54.977c35.494,-41.401 60.048,-94.948 54.703,-150.51c-6.352,-66.036 -38.801,-133.345 -78.551,-185.697c-13.765,-18.129 -29.996,-34.413 -47.614,-48.809c-5.739,-4.69 -27.483,-19.964 -27.246,-19.723c16.417,16.688 42.655,46.32 56.777,66.586c41.821,60.02 58.928,134.822 40.109,205.984c-12.803,48.413 -39.802,92.531 -70.102,131.969c-13.089,17.038 -55.999,63.527 -55.143,64.497c28.115,2.5 63.244,-7.663 78.596,-9.32Z" style="fill:#f3859b;"/><path d="M2827.33,1049.92c3.011,-0.325 5.877,-1.465 8.289,-3.296c17.811,-13.521 38.741,-43.051 51.046,-57.404c38.385,-44.773 64.421,-102.867 58.64,-162.954c-6.639,-69.018 -40.322,-139.463 -81.867,-194.179c-14.558,-19.174 -31.709,-36.411 -50.342,-51.637c-5.38,-4.396 -24.25,-17.741 -27.793,-20.179c-2.715,-1.869 -4.556,-2.394 -4.699,-2.442c-6.605,-2.216 -10.994,-0.024 -12.991,1.014c-3.578,1.86 -5.985,4.583 -7.491,7.906c-0.873,1.927 -4.888,10.248 3.301,18.572c15.891,16.153 41.315,44.81 54.983,64.426c39.031,56.015 55.234,125.78 37.671,192.195c-12.241,46.287 -38.236,88.37 -67.205,126.076c-11.781,15.334 -47.717,54.525 -54.163,62.918c-8.753,11.396 -1.31,21.571 -0.264,22.757c2.824,3.203 6.77,5.199 11.023,5.577c29.269,2.603 65.879,-7.626 81.862,-9.35Zm67.136,-294.313c9.02,24.169 15.278,49.096 17.659,73.851c4.91,51.038 -18.162,100.036 -50.766,138.067c-10.455,12.194 -27.356,36.814 -42.737,49.994l-0,0c-8.478,1.441 -20.429,4.236 -33.33,6.306c11.68,-13.38 24.364,-28.146 30.013,-35.499c31.63,-41.17 59.632,-87.323 72.997,-137.862c8.307,-31.411 10.093,-63.496 6.164,-94.857Z" style="fill:#7e4021;"/><path d="M2788.82,583.881c-16.705,-10.768 -45.892,-30.833 -70.279,-25.629c-44.281,9.45 -138.249,48.719 -195.408,82.328c-94.59,55.619 -182.823,122.257 -259.22,201.188c-15.94,16.467 -112.444,124.194 -112.444,124.194c-0,0 -134.849,-23.464 -185.138,-20.323c-39.56,2.471 -118.158,16.538 -156.851,25.051c-17.709,3.896 -34.287,10.88 -51.442,16.529c-1.172,0.386 -3.665,1.365 -4.586,-0.035c-5.636,-8.562 34.222,-62.893 38.943,-69.043c50.371,-65.631 115.722,-120.794 180.769,-171.24c161.076,-124.922 354.336,-226.922 561.398,-237.686c86.205,-4.481 186.855,18.059 254.258,74.666Z" style="fill:#f6a7bc;"/><path d="M2779.79,597.89c7.394,4.766 17.22,2.965 22.442,-4.115c5.223,-7.079 4.044,-16.999 -2.693,-22.656c-70.509,-59.216 -175.665,-83.236 -265.843,-78.548c-210.446,10.94 -407.037,114.196 -570.746,241.159c-66.16,51.311 -132.543,107.509 -183.777,174.263c-4.018,5.236 -31.794,43.395 -39.742,63.071c-4.73,11.709 -2.756,20.946 0.1,25.284c3.024,4.595 7.363,7.229 12.63,8.017c3.609,0.54 8.453,-0.447 11.091,-1.315c16.617,-5.473 32.654,-12.308 49.809,-16.082c38.068,-8.376 115.388,-22.264 154.309,-24.695c49.237,-3.076 181.242,20.109 181.242,20.109c5.663,0.986 11.435,-1.017 15.271,-5.299c-0,-0 96.127,-107.319 112.005,-123.724c75.353,-77.851 162.397,-143.554 255.693,-198.412c55.722,-32.764 147.271,-71.183 190.439,-80.395c8.889,-1.897 18.519,1.506 27.584,5.67c11.646,5.351 22.362,12.624 30.186,17.668Zm-88.228,-49.661c-49.887,15.288 -127.047,48.684 -176.877,77.984c-95.884,56.379 -185.306,123.953 -262.748,203.963c-13.561,14.011 -85.224,93.826 -106.758,117.834c-31.589,-5.201 -136.53,-21.714 -179.887,-19.006c-40.199,2.511 -120.075,16.758 -159.394,25.409c-7.814,1.719 -15.42,4.009 -22.947,6.523c9.511,-14.932 20.38,-29.671 22.665,-32.648c49.509,-64.507 113.828,-118.634 177.762,-168.217c158.444,-122.88 348.371,-223.624 552.049,-234.212c50.335,-2.616 105.882,4.259 156.135,22.37Z" style="fill:#7e4021;"/><path d="M1472.17,1026.65c46.082,43.46 26.302,81.196 20.481,88.387c-11.662,14.405 -25.265,27.307 -39.375,39.28c-52.444,44.502 -96.548,64.806 -165.373,69.586c-148.71,10.329 -307.728,-20.837 -507.343,70.23c-149.882,68.377 -351.806,192.041 -351.806,192.041c0,-0 61.028,-60.689 115.466,-100.427c258.193,-188.472 804.471,-475.553 927.95,-359.097Z" style="fill:#f6a7bc;"/><path d="M1483.61,1014.53c-17.122,-16.148 -41.084,-26.05 -70.857,-29.772c-40.301,-5.037 -92.036,1.237 -150.819,16.342c-220.923,56.767 -545.401,238.238 -727.535,371.19c-55.34,40.396 -117.392,102.071 -117.392,102.071c-5.995,5.962 -6.576,15.468 -1.352,22.116c5.224,6.648 14.599,8.33 21.809,3.915c-0,-0 200.893,-123.059 350.018,-191.091c197.313,-90.016 354.586,-58.556 501.581,-68.766c72.812,-5.058 119.519,-26.425 175.001,-73.505c14.899,-12.641 29.233,-26.292 41.546,-41.502c4.657,-5.753 16.702,-26.024 11.771,-53.955c-2.928,-16.584 -11.879,-36.396 -33.77,-57.043l-0.001,0Zm-891.391,357.568c183.812,-127.4 475.166,-286.592 678.011,-338.714c53.962,-13.866 101.393,-20.174 138.389,-15.55c21.76,2.72 39.607,9.144 52.121,20.946l0,0c34.768,32.79 23.354,60.35 18.962,65.775c-11.011,13.601 -23.882,25.755 -37.205,37.059c-49.405,41.924 -90.906,61.164 -155.743,65.668c-150.427,10.448 -311.188,-20.425 -513.107,71.692c-57.589,26.273 -122.824,60.664 -181.428,93.124Z" style="fill:#7e4021;"/><path d="M428.754,1486.18c-351.98,423.931 -436.362,848.499 -406.042,1094.41c46.529,-180.005 241.178,-548.338 502.269,-902.442c113.724,-154.239 234.396,-292.083 366.581,-424.184c-192.529,48.657 -467.311,237.506 -462.808,232.217Z" style="fill:#f3859b;"/><path d="M422.243,1470.84c0.978,-0.596 2.625,-1.609 4.268,-2.648c43.407,-27.454 285.91,-186.145 460.967,-230.386c7.272,-1.838 14.875,1.408 18.578,7.931c3.703,6.522 2.592,14.715 -2.713,20.016c-131.595,131.511 -251.732,268.736 -364.948,422.286c-259.492,351.937 -453.303,717.819 -499.547,896.722c-2.003,7.75 -9.233,12.981 -17.221,12.46c-7.988,-0.521 -14.477,-6.647 -15.457,-14.592c-30.662,-248.688 53.804,-678.374 409.761,-1107.1l0.003,0.002l0.129,-0.159c1.739,-2.042 3.865,-3.562 6.18,-4.537Zm17.358,28.38c1.361,-0.778 2.943,-1.727 4.729,-2.857c37.538,-23.743 226.868,-148.102 388.72,-206.746c-114.679,118.303 -220.791,242.075 -321.484,378.64c-226.971,307.83 -403.774,626.494 -477.854,824.281c-2.799,-248.485 97.558,-620.913 405.889,-993.318Zm4.321,-19.955c2.531,5.559 1.891,12.295 -2.177,17.35c5.853,-7.146 4.157,-13.551 2.177,-17.35Z" style="fill:#7e4021;"/><path d="M21.631,2527.33c-0.256,-0.483 -10.118,121.381 2.206,195.098c16.206,96.936 45.757,190.097 86.677,279.338c34.078,74.318 250.684,454.406 339.839,439.168c21.963,-3.754 45.164,-93.092 59.723,-95.308c55.621,-8.469 206.925,2.686 229.381,-33.721c22.769,-36.916 -134.871,-76.226 -221.231,-130.149c-41.942,-26.189 -488.455,-299.443 -496.595,-654.426Z" style="fill:#f6a7bc;"/><path d="M516.99,3361.5c40.778,-5.092 122.614,-2.031 176.402,-11.44c16.265,-2.845 30.213,-6.88 40.465,-12.187c9.103,-4.713 15.709,-10.611 19.785,-17.22c7.083,-11.484 6.522,-23.121 -1.47,-34.914c-4.84,-7.142 -13.439,-14.718 -25.274,-22.151c-43.986,-27.621 -139.381,-58.217 -199.845,-95.971c-24.868,-15.527 -193.699,-118.901 -326.492,-274.922c-87.161,-102.408 -159.1,-227.599 -162.268,-365.748c-0.059,-2.593 -0.723,-5.136 -1.938,-7.427c-3.379,-6.37 -8.423,-8.1 -12.256,-8.675c-4.033,-0.604 -8.482,-0.024 -12.832,3.429c-0.995,0.79 -4.481,3.189 -5.893,9.36c-0.069,0.299 -0.4,2.247 -0.685,5.664c-1.71,20.486 -8.621,128.101 2.709,195.877c16.449,98.391 46.431,192.956 87.966,283.537c24.115,52.589 138.655,256.631 236.114,369.044c26.162,30.176 51.302,53.857 73.2,67.067c17.997,10.857 34.564,14.917 48.483,12.538c6.352,-1.085 13.331,-5.015 19.726,-12.403c8.532,-9.856 17.309,-27.617 25.308,-45.428c6.26,-13.939 15.915,-32.536 18.795,-38.03Zm-480.622,-674.989c30.855,83.613 81.504,160.459 138.809,227.789c135.969,159.753 308.759,265.693 334.222,281.592c60.44,37.739 155.803,68.314 199.772,95.925c4.687,2.944 8.697,5.809 11.823,8.678c1.214,1.114 2.556,2.795 3.366,3.871c-2.054,2.318 -5.456,3.906 -9.426,5.581c-7.421,3.131 -16.754,5.436 -27.286,7.278c-55.577,9.722 -141.225,6.007 -180.081,11.923c-4.752,0.723 -10.726,3.599 -16.109,10.336c-5.203,6.512 -11.296,18.765 -17.572,32.736c-6.84,15.227 -14.181,32.725 -21.742,44.722c-1.838,2.916 -4.995,6.529 -6.089,7.75c-7.116,0.601 -15.115,-2.955 -24.159,-8.411c-19.603,-11.826 -41.812,-33.347 -65.232,-60.36c-95.358,-109.99 -207.405,-309.648 -231,-361.103c-40.306,-87.9 -69.426,-179.659 -85.388,-275.139c-1.716,-10.263 -2.99,-21.48 -3.908,-33.168Z" style="fill:#7e4021;"/><path d="M1470.79,1104.28c-12.15,1.004 -24.899,17.192 -32.175,25.241c-20.425,22.595 -34.824,49.576 -36.874,80.442c-5.228,78.696 49.267,149.89 96,207.392c197.382,242.871 440.018,436.284 585.82,719.065c43.011,83.418 82.639,173.144 105.882,264.451c7.99,31.387 11.725,62.238 12.668,94.55c0.062,2.124 1.503,45.319 2.872,40.997c12.079,-38.114 33.472,-105.595 38.447,-134.525c67.719,-393.802 -167.156,-765.155 -430.333,-1035.19c-50.461,-51.777 -98.083,-106.23 -141.736,-163.91c-76.075,-100.523 -118.607,-105.287 -200.571,-98.513Z" style="fill:#f6a7bc;"/><path d="M1469.42,1087.67c-7.819,0.646 -16.079,4.585 -23.581,10.647c-7.71,6.229 -14.773,14.705 -19.585,20.028c-22.949,25.386 -38.836,55.834 -41.14,90.513c-5.504,82.863 50.489,158.462 99.696,219.009c196.655,241.976 438.675,434.451 583.941,716.19c42.441,82.315 81.609,170.827 104.543,260.925c7.684,30.183 11.254,59.853 12.161,90.925c0.062,2.127 1.869,41.231 3.24,45.532c3.073,9.64 10.502,11.292 13.583,11.76c3.254,0.494 6.529,0.097 9.783,-1.472c2.194,-1.058 6.625,-3.369 8.813,-10.274c12.276,-38.734 33.928,-107.335 38.984,-136.736c68.63,-399.096 -168.107,-775.98 -434.822,-1049.65c-49.978,-51.28 -97.147,-105.207 -140.382,-162.335c-40.491,-53.504 -72.502,-81.032 -104.85,-94.775c-32.743,-13.909 -66.226,-13.939 -110.384,-10.29l0,-0Zm745.663,1359.05c-2.134,-16.691 -5.232,-33.254 -9.485,-49.964c-23.551,-92.516 -63.64,-183.454 -107.22,-267.977c-146.339,-283.822 -389.592,-478.173 -587.7,-721.938c-44.261,-54.461 -97.255,-121.243 -92.304,-195.776c1.797,-27.053 14.706,-50.567 32.607,-70.37c3.375,-3.733 7.987,-9.384 13.195,-14.187c2.675,-2.467 5.096,-5.382 7.989,-5.621c37.809,-3.125 66.571,-4.16 94.605,7.75c28.428,12.077 55.72,37.19 91.304,84.21c44.072,58.234 92.145,113.212 143.091,165.485c259.638,266.405 492.651,632.226 425.842,1020.73c-1.943,11.302 -6.447,28.58 -11.924,47.655Z" style="fill:#7e4021;"/><path d="M1446.35,985.764c-2.382,13.984 -7.334,27.591 -12.116,40.889c-7.799,21.688 -65.43,130.669 -24.619,139.254c47.197,9.928 90.046,-26.905 143.626,-8.605c16.035,5.476 43.677,26.132 60.296,14.136c17.073,-12.323 17.125,-43.17 17.693,-61.589c0.6,-19.472 7.839,-57.989 -2.412,-76.084c-12.49,-22.048 -178.526,-71.14 -182.468,-48.001Z" style="fill:#facad0;"/><path d="M1429.92,982.965c-2.218,13.021 -6.917,25.666 -11.37,38.048c-5.654,15.723 -36.122,75.911 -39.682,113.559c-2.454,25.959 6.915,43.353 27.316,47.644c26.083,5.487 51.033,-1.28 76.796,-7.558c20.381,-4.967 41.449,-9.585 64.875,-1.584c9.784,3.341 23.844,12.177 37.156,16.126c14.091,4.18 27.546,3.5 38.281,-4.248c9.76,-7.045 16.145,-18 19.725,-30.686c4.137,-14.66 4.496,-31.735 4.872,-43.904c0.364,-11.827 3.118,-30.598 3.046,-47.677c-0.062,-14.453 -2.346,-27.833 -7.615,-37.134c-1.728,-3.051 -4.73,-6.611 -9.29,-10.128c-6.312,-4.87 -16.754,-10.526 -29.778,-16.139c-39.819,-17.161 -105.205,-35.145 -138.082,-36.188c-12.51,-0.397 -21.711,2.088 -26.669,5.392c-5.57,3.711 -8.595,8.687 -9.581,14.477Zm31.185,13.877c5.113,0 13.857,0.209 21.487,1.389c34.335,5.314 84.252,20.432 113.997,34.125c8.065,3.712 16.734,9.442 18.115,10.369c2.575,5.146 2.865,12.431 2.898,20.102c0.071,16.661 -2.675,34.969 -3.031,46.508c-0.261,8.476 -0.325,19.818 -2.366,30.452c-1.376,7.169 -3.126,14.314 -8.422,18.137c-1.42,1.025 -3.2,0.598 -5.012,0.316c-3.083,-0.478 -6.271,-1.551 -9.469,-2.816c-11.257,-4.453 -22.463,-11.09 -30.674,-13.895c-30.157,-10.299 -57.301,-5.65 -83.54,0.743c-20.857,5.082 -40.926,11.767 -62.043,7.325c-0.783,-0.165 -0.629,-1.074 -0.791,-1.847c-0.232,-1.098 -0.355,-2.283 -0.413,-3.539c-0.274,-6.014 0.904,-13.169 2.764,-20.872c8.377,-34.684 30.717,-78.269 35.312,-91.046c4.163,-11.577 8.389,-23.39 11.188,-35.451Z" style="fill:#7e4021;"/><path d="M1830.34,2974.38c114.754,-96.659 295.846,-265.244 371.197,-428.734c59.051,-128.123 51.014,-213.361 51.074,-212.463c4.436,66.45 20.046,137.005 17.166,203.56c-6.327,146.177 -54.243,289.262 -122.881,417.644c-80.766,151.067 -190.833,293.098 -333.132,390.691c-12.974,8.897 -38.455,32.344 -56.41,26.042c-29.573,-10.38 -10.061,-120.173 -30.228,-142.137c-20.5,-22.325 -134.51,-23.613 -167.655,-29.711c-5.306,-0.976 -20.882,-1.4 -18.738,-10.29c4.247,-17.612 258.828,-188.677 289.607,-214.602Z" style="fill:#f6a7bc;"/><path d="M2252.7,2325.06c7.357,-2.291 14.72,-1.978 16.385,6.799c0.102,0.091 0.155,0.164 0.158,0.214c4.475,67.045 20.093,138.242 17.187,205.392c-6.435,148.661 -55.029,294.218 -124.834,424.781c-82.009,153.391 -193.915,297.483 -338.403,396.577c-8.234,5.647 -21.312,16.711 -34.493,23.316c-12.764,6.397 -25.83,8.581 -36.864,4.708c-6.991,-2.454 -12.914,-7.354 -17.422,-14.811c-4.343,-7.184 -7.447,-17.419 -9.294,-29.53c-3.454,-22.649 -2.95,-53.031 -5.04,-77.082c-0.601,-6.92 -1.411,-13.24 -2.734,-18.495c-0.705,-2.801 -1.178,-5.238 -2.495,-6.672c-1.695,-1.846 -4.79,-2.992 -8.48,-4.365c-5.973,-2.221 -13.309,-4.057 -21.462,-5.667c-42.567,-8.407 -105.289,-10.299 -128.452,-14.56c-5.4,-0.994 -17.753,-2.843 -23.827,-7.546c-6.923,-5.36 -10.584,-12.732 -8.097,-23.043c0.543,-2.252 1.859,-5.571 4.866,-9.332c4.162,-5.205 14.721,-14.595 29.84,-26.464c68.21,-53.543 235.787,-166.943 260.366,-187.647c113.288,-95.424 292.409,-261.56 366.798,-422.962c51.191,-111.07 50.415,-188.589 49.715,-202.37l-0.006,-0.226l-0.128,-1.781c-0.004,-0.052 0.042,-0.134 0.137,-0.24c0.545,-9.79 8.567,-10.726 16.579,-8.994Zm-2.333,138.085c2.406,24.551 3.795,48.974 2.761,72.878c-6.22,143.693 -53.456,284.307 -120.928,410.507c-79.524,148.742 -187.751,288.712 -327.861,384.804c-6.294,4.317 -15.597,12.199 -25.53,18.201c-3.788,2.29 -7.649,4.319 -11.436,5.392c-1.34,0.381 -2.629,0.8 -3.835,0.621c-0.526,-0.926 -2.15,-3.883 -2.855,-6.112c-2.373,-7.504 -3.522,-17.208 -4.315,-27.755c-1.938,-25.78 -1.532,-55.98 -5.299,-76.413c-2.275,-12.346 -6.425,-21.849 -11.665,-27.556c-7.663,-8.346 -25.265,-15.692 -48.037,-20.189c-38.934,-7.689 -94.67,-9.973 -121.822,-13.559c3.225,-2.768 6.749,-5.695 10.276,-8.464c68.455,-53.735 236.591,-167.595 261.259,-188.372c116.218,-97.893 299.282,-268.926 375.596,-434.505c15.092,-32.745 25.929,-62.795 33.691,-89.478Z" style="fill:#7e4021;"/></g></svg>