<?xml version="1.0" encoding="UTF-8" standalone="no"?><!DOCTYPE svg PUBLIC "-//W3C//DTD SVG 1.1//EN" "http://www.w3.org/Graphics/SVG/1.1/DTD/svg11.dtd"><svg width="100%" height="100%" viewBox="0 0 1183 1241" version="1.1" xmlns="http://www.w3.org/2000/svg" xmlns:xlink="http://www.w3.org/1999/xlink" xml:space="preserve" xmlns:serif="http://www.serif.com/" style="fill-rule:evenodd;clip-rule:evenodd;stroke-linejoin:round;stroke-miterlimit:2;"><g id="Candy-star" serif:id="Candy star"><path d="M38.977,490.629c-16.555,-23.239 -29.398,-60.671 -16.309,-104.602c8.147,-27.345 30.899,-101.314 59.302,-98.597l275.569,87.826c13.968,1.336 28.044,-0.961 40.862,-6.668c12.818,-5.707 23.943,-14.63 32.297,-25.904l158.378,-213.755c16.986,-22.926 45.79,-33.828 73.699,-27.896c27.909,5.932 49.788,27.608 55.981,55.46l57.743,259.693c3.046,13.697 9.58,26.374 18.969,36.801c9.389,10.428 21.313,18.251 34.617,22.712l252.234,84.572c27.053,9.071 77.751,-29.029 81.471,-0.74c11.819,89.881 -43.037,118.094 -67.613,132.591l-229.139,135.167c-12.085,7.129 -22.123,17.261 -29.138,29.412c-7.016,12.152 -10.772,25.91 -10.903,39.941c0,-0 34.111,171.909 31.307,227.679c-3.295,65.544 -46.63,86.445 -77.64,96.814c-27.06,9.048 -67.633,-6.668 -89.015,-25.561l-187.615,-155.14c-10.514,-9.291 -23.252,-15.706 -36.977,-18.623c-13.724,-2.917 -27.97,-2.238 -41.355,1.973l-253.772,79.84c-27.218,8.562 -56.929,0.452 -76.021,-20.752c-19.092,-21.203 -24.052,-51.599 -12.691,-77.772l105.929,-244.037c5.586,-12.871 7.752,-26.968 6.285,-40.923c-1.467,-13.954 -6.515,-27.293 -14.656,-38.721l-141.799,-190.79Z" style="fill:#f6a7bc;"/><path d="M25.402,500.299c0.065,0.091 0.131,0.182 0.198,0.272c0,-0 137.321,184.765 141.692,190.647c3.196,4.51 5.787,9.389 7.727,14.514c1.959,5.176 3.254,10.602 3.838,16.151c0.583,5.548 0.444,11.125 -0.396,16.595c-0.84,5.469 -2.381,10.83 -4.603,15.948c0,0 -105.928,244.037 -105.928,244.037c-6.98,16.08 -8.946,33.457 -6.235,50.071c2.711,16.613 10.099,32.464 21.829,45.491c11.729,13.026 26.72,22.031 42.96,26.464c16.239,4.433 33.726,4.294 50.447,-0.967c0,-0 253.773,-79.839 253.773,-79.839c5.322,-1.675 10.815,-2.647 16.343,-2.911c5.527,-0.263 11.088,0.181 16.545,1.341c5.457,1.16 10.719,3.016 15.661,5.505c4.942,2.489 9.564,5.612 13.745,9.306c0.137,0.12 0.275,0.239 0.415,0.355l187.417,154.975c14.379,12.629 36.208,24.072 58.054,29.205c16.642,3.911 33.269,4.096 47.065,-0.517c20.357,-6.807 45.161,-17.936 63.433,-40.139c13.681,-16.624 23.948,-39.429 25.568,-71.645c1.041,-20.709 -2.707,-56.905 -8.107,-94.791c-8.511,-59.702 -20.907,-123.748 -23.145,-135.175c0.172,-5.034 0.93,-10.011 2.247,-14.836c1.457,-5.338 3.599,-10.49 6.389,-15.321c2.789,-4.832 6.18,-9.263 10.074,-13.194c3.894,-3.931 8.293,-7.362 13.098,-10.197c0,0 229.139,-135.167 229.139,-135.167c17.047,-10.056 46.684,-26.453 63.941,-61.068c10.629,-21.32 16.778,-49.65 11.728,-88.051c-1.129,-8.593 -4.693,-14.289 -9.164,-18.232c-4.775,-4.211 -11.068,-6.671 -18.849,-6.887c-10.173,-0.282 -24.847,4.516 -39.664,8.825c-9.007,2.619 -18.044,5.744 -25.019,3.405c-0,0 -252.235,-84.572 -252.235,-84.572c-5.29,-1.774 -10.306,-4.216 -14.932,-7.252c-4.627,-3.035 -8.864,-6.664 -12.598,-10.81c-3.733,-4.146 -6.899,-8.74 -9.434,-13.658c-2.535,-4.919 -4.439,-10.162 -5.65,-15.609c-0,0 -57.744,-259.693 -57.744,-259.693c-3.805,-17.111 -12.428,-32.325 -24.386,-44.172c-11.959,-11.847 -27.253,-20.328 -44.399,-23.972c-17.146,-3.645 -34.567,-2.118 -50.311,3.841c-15.743,5.959 -29.809,16.35 -40.245,30.434c0,0 -158.378,213.756 -158.378,213.756c-3.321,4.482 -7.194,8.498 -11.51,11.96c-4.317,3.462 -9.077,6.371 -14.174,8.64c-5.097,2.27 -10.444,3.861 -15.905,4.752c-4.911,0.801 -9.914,1.037 -14.911,0.69c-23.702,-7.553 -273.775,-87.254 -273.775,-87.254c-1.129,-0.36 -2.294,-0.598 -3.474,-0.711c-15.086,-1.443 -30.946,8.921 -43.303,28.137c-15.846,24.639 -28.01,63.669 -33.559,82.292c-6.622,22.226 -7.355,42.988 -4.51,61.507c3.556,23.155 12.745,42.823 23.217,57.524Zm1122.38,65.782c3.004,27.782 -1.141,48.63 -9.031,64.456c-13.573,27.225 -37.637,39.321 -51.045,47.23c0,-0 -229.139,135.167 -229.139,135.167c-7.28,4.294 -13.943,9.493 -19.842,15.448c-5.9,5.955 -11.036,12.666 -15.262,19.986c-4.226,7.32 -7.47,15.123 -9.678,23.21c-2.207,8.087 -3.378,16.456 -3.457,24.908c-0.01,1.141 0.096,2.28 0.318,3.4c0,-0 13.93,70.199 23.194,135.185c5.038,35.346 8.787,69.093 7.815,88.413c-1.174,23.361 -8.094,40.083 -18.015,52.138c-13.795,16.763 -32.895,24.568 -48.265,29.707c-10.68,3.571 -24.023,1.6 -36.796,-2.539c-13.713,-4.443 -26.837,-11.7 -35.897,-19.706c-0.136,-0.12 -0.274,-0.238 -0.415,-0.354l-187.416,-154.975c-6.273,-5.512 -13.204,-10.179 -20.608,-13.908c-7.486,-3.77 -15.456,-6.581 -23.724,-8.339c-8.267,-1.757 -16.691,-2.431 -25.064,-2.031c-8.373,0.399 -16.695,1.872 -24.758,4.409c0,-0 -253.772,79.839 -253.772,79.839c-10.496,3.302 -21.473,3.39 -31.667,0.607c-10.193,-2.782 -19.603,-8.435 -26.966,-16.612c-7.362,-8.177 -12,-18.126 -13.702,-28.555c-1.702,-10.428 -0.467,-21.336 3.914,-31.429c-0,-0 105.928,-244.037 105.928,-244.037c3.365,-7.753 5.7,-15.876 6.973,-24.161c1.272,-8.285 1.483,-16.734 0.599,-25.14c-0.883,-8.405 -2.846,-16.626 -5.813,-24.465c-2.967,-7.84 -6.94,-15.3 -11.844,-22.184c-0.065,-0.091 -0.131,-0.182 -0.198,-0.272l-141.694,-190.649c-7.831,-11.035 -14.664,-25.78 -17.326,-43.113c-2.171,-14.131 -1.545,-29.969 3.509,-46.929c3.691,-12.389 10.467,-34.734 19.489,-54.63c4.712,-10.391 9.953,-20.128 15.852,-26.854c1.406,-1.603 2.823,-3.004 4.307,-4.083c0.488,-0.355 0.901,-0.8 1.356,-1.037c0,-0.001 272.833,86.954 272.833,86.954c1.13,0.36 2.294,0.598 3.474,0.711c8.414,0.805 16.86,0.515 25.133,-0.835c8.273,-1.35 16.373,-3.76 24.095,-7.198c7.721,-3.438 14.933,-7.844 21.472,-13.089c6.539,-5.245 12.405,-11.328 17.437,-18.119c0,-0 158.378,-213.755 158.378,-213.755c6.551,-8.841 15.38,-15.364 25.262,-19.104c9.882,-3.741 20.818,-4.699 31.58,-2.412c10.763,2.288 20.363,7.611 27.87,15.048c7.506,7.437 12.919,16.986 15.307,27.727c0,0 57.744,259.694 57.744,259.694c1.834,8.25 4.72,16.194 8.56,23.645c3.841,7.451 8.636,14.409 14.292,20.69c5.656,6.282 12.075,11.778 19.084,16.377c7.008,4.598 14.607,8.298 22.62,10.985c0,-0 252.235,84.572 252.235,84.572c10.081,3.38 22.616,2.616 35.558,-0.49c9.893,-2.373 20.12,-6.002 29.077,-8.34c1.857,-0.484 4.181,-0.88 6.129,-1.162Z" style="fill:#7e4021;"/><path d="M59.838,382.722c-16.554,-23.239 -18.022,-54.002 -3.756,-78.712c14.267,-24.71 41.642,-38.82 70.045,-36.103l264.826,25.332c13.968,1.336 28.044,-0.961 40.862,-6.668c12.818,-5.707 23.944,-14.63 32.297,-25.904l158.378,-213.755c16.986,-22.926 45.79,-33.828 73.699,-27.896c27.909,5.932 49.788,27.608 55.981,55.46l57.744,259.693c3.045,13.697 9.579,26.374 18.968,36.801c9.389,10.428 21.313,18.251 34.617,22.712l252.235,84.572c27.052,9.071 46.322,33.095 49.304,61.472c2.983,28.376 -10.871,55.882 -35.446,70.379l-229.139,135.167c-12.086,7.129 -22.123,17.261 -29.139,29.412c-7.016,12.152 -10.771,25.91 -10.902,39.941l-2.489,266.024c-0.267,28.531 -17.161,54.282 -43.227,65.887c-26.066,11.605 -56.507,6.93 -77.888,-11.963l-199.359,-176.156c-10.515,-9.291 -23.253,-15.706 -36.977,-18.623c-13.725,-2.917 -27.971,-2.238 -41.355,1.973l-253.773,79.84c-27.217,8.562 -56.928,0.452 -76.02,-20.752c-19.092,-21.203 -24.052,-51.599 -12.691,-77.772l105.928,-244.037c5.587,-12.871 7.752,-26.968 6.285,-40.923c-1.466,-13.954 -6.515,-27.292 -14.656,-38.721l-154.352,-216.68Z" style="fill:#f9bfcf;"/><path d="M46.264,392.392l154.351,216.68c3.237,4.544 5.86,9.468 7.818,14.643c1.959,5.176 3.255,10.602 3.838,16.151c0.583,5.548 0.444,11.125 -0.396,16.595c-0.84,5.469 -2.381,10.83 -4.603,15.948c0,0 -105.928,244.037 -105.928,244.037c-6.98,16.08 -8.946,33.457 -6.235,50.071c2.711,16.613 10.1,32.464 21.829,45.491c11.729,13.026 26.721,22.031 42.96,26.464c16.239,4.433 33.726,4.294 50.448,-0.967c-0,-0 253.772,-79.839 253.772,-79.839c5.322,-1.675 10.816,-2.647 16.343,-2.911c5.527,-0.263 11.088,0.181 16.545,1.341c5.458,1.16 10.719,3.016 15.661,5.505c4.942,2.489 9.565,5.612 13.746,9.306c-0,-0 199.359,176.155 199.359,176.155c13.136,11.607 29.055,18.847 45.693,21.403c16.638,2.555 33.996,0.426 50.01,-6.703c16.014,-7.13 29.21,-18.605 38.444,-32.68c9.234,-14.075 14.506,-30.749 14.67,-48.277c0,-0 2.488,-266.024 2.488,-266.024c0.053,-5.579 0.825,-11.104 2.283,-16.442c1.457,-5.338 3.598,-10.49 6.388,-15.321c2.79,-4.832 6.18,-9.263 10.074,-13.194c3.895,-3.93 8.293,-7.362 13.099,-10.197c-0,0 229.139,-135.167 229.139,-135.167c15.098,-8.906 26.902,-21.809 34.474,-36.843c7.572,-15.034 10.912,-32.2 9.079,-49.633c-1.832,-17.434 -8.667,-33.53 -19.2,-46.662c-10.532,-13.131 -24.761,-23.297 -41.381,-28.87c-0,0 -252.235,-84.572 -252.235,-84.572c-5.29,-1.774 -10.305,-4.216 -14.932,-7.252c-4.626,-3.035 -8.864,-6.664 -12.597,-10.81c-3.733,-4.146 -6.899,-8.74 -9.434,-13.658c-2.535,-4.919 -4.44,-10.162 -5.651,-15.608c-0,-0 -57.744,-259.694 -57.744,-259.694c-3.804,-17.111 -12.428,-32.325 -24.386,-44.172c-11.959,-11.847 -27.253,-20.328 -44.399,-23.972c-17.146,-3.645 -34.567,-2.118 -50.311,3.841c-15.743,5.959 -29.809,16.35 -40.244,30.434c-0,0 -158.378,213.756 -158.378,213.756c-3.322,4.482 -7.195,8.498 -11.511,11.96c-4.317,3.462 -9.077,6.371 -14.174,8.64c-5.097,2.27 -10.444,3.861 -15.905,4.752c-5.461,0.891 -11.037,1.082 -16.591,0.551c0,0 -264.826,-25.332 -264.826,-25.332c-17.45,-1.669 -34.584,1.83 -49.547,9.543c-14.962,7.712 -27.754,19.637 -36.518,34.818c-8.765,15.18 -12.697,32.221 -11.894,49.035c0.802,16.814 6.338,33.402 16.509,47.68Zm27.149,-19.34c-6.384,-8.962 -9.859,-19.375 -10.363,-29.929c-0.503,-10.554 1.964,-21.251 7.466,-30.78c5.502,-9.529 13.531,-17.014 22.923,-21.855c9.392,-4.841 20.148,-7.038 31.101,-5.99c-0,-0 264.826,25.332 264.826,25.332c8.414,0.805 16.86,0.515 25.133,-0.835c8.274,-1.35 16.374,-3.76 24.095,-7.198c7.721,-3.438 14.933,-7.844 21.472,-13.089c6.539,-5.245 12.406,-11.328 17.437,-18.119c0,-0 158.378,-213.755 158.378,-213.755c6.551,-8.841 15.38,-15.364 25.262,-19.104c9.883,-3.741 20.818,-4.699 31.581,-2.412c10.763,2.288 20.363,7.611 27.869,15.048c7.507,7.437 12.919,16.987 15.308,27.727c-0,0 57.743,259.694 57.743,259.694c1.835,8.25 4.72,16.194 8.561,23.645c3.84,7.451 8.636,14.409 14.291,20.69c5.656,6.282 12.075,11.778 19.084,16.377c7.009,4.598 14.607,8.298 22.621,10.985c-0,-0 252.234,84.572 252.234,84.572c10.433,3.498 19.364,9.88 25.976,18.122c6.611,8.243 10.902,18.347 12.052,29.29c1.15,10.943 -0.946,21.718 -5.699,31.155c-4.753,9.437 -12.163,17.536 -21.64,23.127c-0,-0 -229.139,135.167 -229.139,135.167c-7.28,4.294 -13.943,9.493 -19.843,15.448c-5.899,5.955 -11.036,12.666 -15.262,19.986c-4.226,7.32 -7.47,15.123 -9.677,23.21c-2.208,8.087 -3.378,16.456 -3.457,24.908c-0,0 -2.489,266.024 -2.489,266.024c-0.103,11.003 -3.412,21.469 -9.208,30.304c-5.796,8.835 -14.08,16.038 -24.132,20.513c-10.052,4.475 -20.947,5.812 -31.391,4.208c-10.444,-1.605 -20.437,-6.149 -28.682,-13.435c-0,0 -199.36,-176.155 -199.36,-176.155c-6.333,-5.597 -13.337,-10.327 -20.823,-14.098c-7.487,-3.77 -15.457,-6.581 -23.724,-8.339c-8.268,-1.757 -16.692,-2.431 -25.065,-2.031c-8.373,0.399 -16.695,1.872 -24.757,4.409c-0,-0 -253.773,79.839 -253.773,79.839c-10.496,3.302 -21.473,3.39 -31.666,0.607c-10.194,-2.782 -19.604,-8.435 -26.967,-16.612c-7.362,-8.177 -12,-18.126 -13.702,-28.555c-1.701,-10.428 -0.467,-21.336 3.914,-31.429c0,-0 105.928,-244.037 105.928,-244.037c3.366,-7.753 5.701,-15.876 6.973,-24.161c1.273,-8.285 1.483,-16.734 0.6,-25.14c-0.884,-8.405 -2.846,-16.626 -5.814,-24.465c-2.967,-7.84 -6.94,-15.3 -11.843,-22.184c-0,0 -154.352,-216.68 -154.352,-216.68Z" style="fill:#7e4021;"/></g></svg>