<?xml version="1.0" encoding="UTF-8" standalone="no"?><!DOCTYPE svg PUBLIC "-//W3C//DTD SVG 1.1//EN" "http://www.w3.org/Graphics/SVG/1.1/DTD/svg11.dtd"><svg width="100%" height="100%" viewBox="0 0 1357 1234" version="1.1" xmlns="http://www.w3.org/2000/svg" xmlns:xlink="http://www.w3.org/1999/xlink" xml:space="preserve" xmlns:serif="http://www.serif.com/" style="fill-rule:evenodd;clip-rule:evenodd;stroke-linejoin:round;stroke-miterlimit:2;"><g id="Candy-heart" serif:id="Candy heart"><path d="M823.974,286.034c-91.332,-203.18 -180.208,-295.333 -411.644,-262.159c-252.129,36.139 -421.857,338.734 -391.812,576.053c23.327,184.248 204.315,450.13 349.753,561.712c110.041,84.424 243.924,54.277 370.122,24.49c257.976,-60.89 558.859,-177.097 596.65,-462.228c14.631,-110.396 -39.471,-350.445 -128.398,-427.579c-91.751,-79.582 -176.72,-96.053 -384.671,-10.289Z" style="fill:#c5e8f0;"/><path d="M832.513,264.576c-54.683,-118.362 -110.534,-197.643 -194.631,-236.404c-58.652,-27.033 -131.366,-34.635 -227.917,-20.796c-130.805,18.75 -240.567,106.146 -313.4,220.108c-72.318,113.157 -108.059,252.283 -92.581,374.537c23.778,187.819 207.885,459.097 356.142,572.842c114.237,87.644 253.085,58.411 384.096,27.488c130.772,-30.866 272.351,-75.931 386.094,-149.236c116.3,-74.951 203.662,-179.238 223.249,-327.023c9.021,-68.064 -7.04,-184.139 -41.345,-283.188c-23.346,-67.408 -55.342,-126.808 -92.655,-159.171c-39.027,-33.852 -77.044,-56.699 -122.595,-66.412c-63.959,-13.637 -143.633,-1.057 -264.457,47.255Zm-23.74,28.291c3.69,8.21 13.234,12.006 21.556,8.574c198.582,-81.9 279.778,-68.525 367.395,7.472c33.83,29.344 61.831,83.783 82.999,144.9c32.465,93.736 48.335,203.487 39.798,267.899c-18.204,137.345 -100.178,233.728 -208.262,303.385c-110.64,71.304 -248.491,114.788 -375.695,144.812c-121.388,28.652 -250.301,59.715 -356.148,-21.493c-142.619,-109.419 -320.489,-369.905 -343.363,-550.582c-14.568,-115.065 19.533,-245.896 87.6,-352.4c67.552,-105.701 168.718,-187.671 290.042,-205.061c88.598,-12.7 155.413,-6.735 209.234,18.071c81.195,37.424 132.097,117.081 184.844,234.423Z" style="fill:#7e4021;"/><path d="M708.784,222.945c-17.973,-129.207 -155.03,-215.189 -302.822,-203.383c-253.897,20.283 -410.345,286.759 -380.3,524.077c23.327,184.248 129.017,340.517 274.455,452.099c110.041,84.424 243.924,54.277 370.122,24.49c257.976,-60.89 558.859,-177.097 596.65,-462.228c29.727,-224.297 -148.601,-503.943 -558.105,-335.055Z" style="fill:#e4faff;"/><path d="M721.398,199.966c-30.002,-125.82 -167.758,-208.921 -316.763,-197.017c-263.336,21.036 -426.67,296.642 -395.508,542.784c23.893,188.717 131.878,348.939 280.845,463.228c114.237,87.644 253.085,58.411 384.095,27.488c130.773,-30.866 272.352,-75.931 386.095,-149.236c116.3,-74.951 203.662,-179.238 223.249,-327.023c18.718,-141.23 -41.782,-303.063 -185.508,-371.895c-90.978,-43.57 -216.056,-50.236 -376.505,11.671Zm-29.122,25.276c0.711,5.106 3.744,9.596 8.216,12.161c4.473,2.565 9.88,2.916 14.647,0.95c158.012,-65.168 280.288,-62.176 368.366,-19.994c130.19,62.349 183.817,209.523 166.861,337.451c-18.203,137.345 -100.177,233.728 -208.261,303.385c-110.64,71.304 -248.491,114.788 -375.695,144.812c-121.389,28.652 -250.301,59.715 -356.148,-21.493c-141.91,-108.875 -245.305,-261.19 -268.065,-440.968c-28.929,-228.497 120.634,-485.841 365.092,-505.37c138.562,-11.069 268.137,67.928 284.987,189.066Z" style="fill:#7e4021;"/></g></svg>