<?xml version="1.0" encoding="UTF-8" standalone="no"?><!DOCTYPE svg PUBLIC "-//W3C//DTD SVG 1.1//EN" "http://www.w3.org/Graphics/SVG/1.1/DTD/svg11.dtd"><svg width="100%" height="100%" viewBox="0 0 1567 1345" version="1.1" xmlns="http://www.w3.org/2000/svg" xmlns:xlink="http://www.w3.org/1999/xlink" xml:space="preserve" xmlns:serif="http://www.serif.com/" style="fill-rule:evenodd;clip-rule:evenodd;stroke-linejoin:round;stroke-miterlimit:2;"><g id="Chocolate-piece" serif:id="Chocolate piece"><path d="M27.48,669.424c88.874,-139.418 550.003,-502.701 721.207,-487.415c149.177,13.319 339.433,162.548 465.508,240.032c45.26,27.816 227.482,50.606 308.834,113.209c28.273,21.756 30.662,83.835 23.326,124.287c-18.837,103.865 -190.551,274.716 -252.585,332.95c-89.111,83.651 -290.611,314.3 -414.202,334.515c-153.485,25.105 -809.268,-352.122 -854.455,-536.983c-4.404,-18.019 -16.054,-91.697 2.367,-120.595Z" style="fill:#a76544;"/><path d="M13.426,660.465c-8.703,13.653 -12.513,35.603 -12.672,58.588c-0.212,30.871 5.375,63.49 8.169,74.924c9.561,39.113 44.236,86.876 96.055,137.237c74.228,72.14 183.688,151.021 298.12,220.292c133.532,80.832 273.822,148.554 372.544,177.631c44.96,13.242 81.895,18.357 106.617,14.313c51.605,-8.44 116.677,-51.254 181.593,-106.108c93.525,-79.029 187.719,-182.382 241.325,-232.704c37.61,-35.306 115.1,-111.596 175.201,-189.635c41.532,-53.929 74.484,-108.976 82.376,-152.492c4.759,-26.239 5.639,-60.894 -0.945,-89.502c-5.026,-21.835 -14.617,-40.196 -28.615,-50.968c-42.103,-32.398 -110.135,-54.907 -173.668,-72.503c-59.452,-16.465 -114.686,-28.226 -136.604,-41.697c-75.87,-46.628 -174.935,-119.13 -274.349,-172.581c-68.248,-36.696 -136.775,-64.349 -198.404,-69.852c-53.559,-4.782 -134.687,24.886 -224.021,74.2c-202.399,111.729 -449.731,322.041 -512.722,420.857l0,-0Zm28.108,17.917c61.432,-96.369 303.334,-300.629 500.723,-409.591c82.006,-45.269 155.783,-74.571 204.948,-70.181c57.712,5.153 121.672,31.645 185.583,66.008c98.824,53.135 197.26,125.27 272.68,171.622c18.898,11.614 60.53,22.816 109.287,35.747c67.972,18.026 150.757,40.032 198.11,76.471c8.624,6.637 13.364,18.576 16.46,32.028c5.596,24.316 4.676,53.774 0.631,76.076c-7.178,39.577 -38.216,89.057 -75.987,138.103c-58.855,76.421 -134.775,151.096 -171.606,185.67c-53.327,50.061 -146.986,152.928 -240.025,231.546c-59.462,50.245 -118.191,90.942 -165.46,98.673c-28.946,4.734 -76.665,-6.556 -135.107,-27.685c-92.123,-33.307 -209.171,-91.935 -321.412,-159.879c-112.103,-67.861 -219.432,-145.008 -292.15,-215.68c-46.146,-44.848 -78.392,-86.416 -86.906,-121.248c-2.49,-10.19 -7.406,-39.267 -7.216,-66.779c0.11,-15.942 1.411,-31.432 7.447,-40.901l0,0Z" style="fill:#7e4021;"/><path d="M852.99,1236.14c0.61,24.093 0.942,48.639 7.838,71.964c2.608,8.821 11.887,13.865 20.708,11.257c8.821,-2.608 13.866,-11.887 11.258,-20.708c-6.068,-20.521 -5.945,-42.16 -6.482,-63.356c-0.232,-9.196 -7.887,-16.473 -17.083,-16.24c-9.195,0.233 -16.472,7.888 -16.239,17.083Z" style="fill:#7e4021;"/><path d="M31.759,649.846c84.617,-142.042 547.148,-575.274 718.352,-559.988c149.177,13.32 339.434,162.549 465.509,240.032c60.989,37.483 309.889,161.343 328.584,223.908c30.221,101.141 -186.975,288.305 -249.009,346.538c-89.111,83.652 -290.611,314.301 -414.202,334.516c-168.446,27.551 -941.883,-429.483 -849.234,-585.006Z" style="fill:#c48464;"/><path d="M17.44,641.316c-13.607,22.841 -13.26,51.016 0.55,82.822c17.621,40.584 58.14,88.452 113.347,138.239c145.647,131.347 394.17,278.642 570.994,348.502c78.848,31.151 144.218,46.494 181.352,40.421c51.605,-8.441 116.677,-51.254 181.593,-106.109c93.525,-79.028 187.72,-182.382 241.326,-232.703c44.014,-41.318 164.889,-146.857 223.067,-241.513c27.562,-44.844 40.662,-87.951 30.504,-121.949c-2.8,-9.37 -9.385,-20.065 -19.557,-31.32c-12.857,-14.224 -31.788,-30.004 -54.348,-46.292c-83.771,-60.481 -219.056,-129.378 -261.922,-155.723c-75.87,-46.629 -174.934,-119.13 -274.348,-172.582c-68.249,-36.695 -136.775,-64.349 -198.405,-69.851c-53.763,-4.801 -135.548,31.227 -225.289,90.03c-202.205,132.496 -448.99,377.522 -508.864,478.028Zm28.637,17.059c58.591,-98.351 300.626,-337.55 498.496,-467.206c81.725,-53.55 155.095,-89.081 204.056,-84.71c57.712,5.153 121.673,31.646 185.583,66.009c98.825,53.134 197.261,125.27 272.681,171.622c42.518,26.131 176.771,94.359 259.863,154.35c20.347,14.69 37.535,28.788 49.131,41.618c6.13,6.782 10.66,12.865 12.348,18.512c3.968,13.279 2.294,28.341 -2.78,44.512c-8.785,27.999 -27.755,58.7 -51.238,89.518c-61.36,80.526 -153.581,160.994 -190.429,195.585c-53.328,50.06 -146.986,152.927 -240.026,231.546c-59.461,50.245 -118.191,90.941 -165.459,98.672c-33.615,5.499 -92.348,-10.326 -163.724,-38.525c-173.69,-68.622 -417.852,-213.235 -560.918,-342.255c-50.851,-45.859 -88.865,-89.379 -105.095,-126.76c-8.761,-20.179 -11.122,-37.996 -2.489,-52.488Z" style="fill:#7e4021;"/><path d="M114.622,517.936c72.702,-122.041 485.212,-406.8 632.309,-393.667c128.171,11.444 291.637,139.66 399.96,206.233c33.595,20.647 160.983,27.668 232.634,75.889c40.109,26.993 43.917,97.198 49.682,116.49c25.966,86.9 -141.321,250.469 -194.62,300.503c-76.563,71.873 -269.016,267.283 -375.204,284.651c-124.693,20.395 -635.238,-268.27 -723.286,-434.038c-14.146,-26.634 -32.494,-137.564 -21.475,-156.061Z" style="fill:#a76544;"/><path d="M100.303,509.406c-4.176,7.011 -6.568,24.385 -5.211,46.388c2.651,42.987 15.811,106.299 26.286,126.021c53.765,101.224 261.566,248.463 447.224,344.785c74.048,38.417 144.467,68.811 199.868,85.237c39.5,11.712 71.951,16.188 93.603,12.646c33.707,-5.513 75.858,-27.512 120.219,-58.319c98.514,-68.413 209.731,-179.964 263.702,-230.628c38.049,-35.718 132.876,-128.325 177.374,-210.979c21.168,-39.318 30.625,-76.938 21.808,-106.448c-3.51,-11.746 -6.397,-42.072 -16.863,-70.387c-8.097,-21.903 -20.591,-42.444 -39.483,-55.158c-44.605,-30.019 -109.883,-45.071 -162.615,-56.599c-31.501,-6.887 -58.104,-11.984 -70.598,-19.662c-65.218,-40.083 -150.377,-102.401 -235.834,-148.349c-58.944,-31.692 -118.143,-55.533 -171.37,-60.285c-60.911,-5.439 -166.253,37.185 -274.99,99.913c-160.353,92.503 -328.724,227.3 -373.12,301.824l0,-0Zm28.915,16.601c43.256,-72.007 206.427,-200.463 360.861,-289.552c101.339,-58.46 198.603,-100.654 255.37,-95.585c49.31,4.402 103.942,27.083 158.548,56.443c84.868,45.631 169.399,107.583 234.167,147.388c14.383,8.84 44.667,15.9 80.932,23.828c48.914,10.694 109.747,23.843 151.123,51.689c16.878,11.358 25.377,32.257 31.004,51.896c6.708,23.415 9.123,45.861 12.015,55.539c3.356,11.232 2.35,24.039 -1.27,37.812c-6.314,24.02 -20.602,50.45 -38.516,77.003c-46.916,69.538 -118.81,139.23 -150.272,168.765c-45.703,42.902 -132.886,130.078 -218.16,196.665c-54.511,42.565 -107.808,77.062 -148.327,83.689c-18.251,2.985 -45.454,-1.836 -78.747,-11.708c-53.786,-15.948 -122.104,-45.57 -193.994,-82.868c-108.447,-56.264 -224.939,-130.001 -312.073,-201.295c-56.538,-46.26 -100.684,-91.172 -121.062,-129.538c-9.33,-17.565 -20.093,-74.15 -22.454,-112.436c-0.486,-7.873 -0.607,-14.943 -0.205,-20.673c0.19,-2.705 0.915,-6.356 1.06,-7.062Z" style="fill:#7e4021;"/><path d="M116.816,498.401c72.702,-122.041 470.104,-494.269 617.201,-481.135c128.171,11.444 291.637,139.659 399.96,206.232c52.401,32.205 266.253,138.625 282.315,192.38c25.966,86.899 -160.647,247.708 -213.946,297.742c-76.563,71.872 -249.689,270.043 -355.877,287.412c-144.727,23.671 -809.256,-369.008 -729.653,-502.631Z" style="fill:#c48464;"/><path d="M102.497,489.871c-12.041,20.214 -11.885,45.148 0.336,73.296c15.238,35.094 50.227,76.528 97.968,119.581c125.32,113.016 339.155,239.759 491.301,299.869c68.271,26.973 124.904,40.122 157.057,34.863c44.644,-7.302 100.999,-44.236 157.159,-91.691c80.39,-67.929 161.359,-156.764 207.435,-200.018c37.9,-35.578 141.955,-126.481 192.051,-207.988c24.098,-39.208 35.339,-76.952 26.457,-106.677c-2.484,-8.313 -8.285,-17.826 -17.31,-27.812c-11.135,-12.319 -27.523,-25.995 -47.062,-40.102c-72.023,-52 -188.331,-111.243 -225.186,-133.893c-65.218,-40.082 -150.378,-102.4 -235.835,-148.348c-58.943,-31.692 -118.142,-55.534 -171.369,-60.286c-46.532,-4.155 -117.392,26.835 -195.061,77.728c-174.038,114.039 -386.407,324.972 -437.941,411.478l0,-0Zm28.637,17.06c50.25,-84.352 257.87,-289.458 427.573,-400.657c69.653,-45.641 132.099,-76.133 173.828,-72.408c49.31,4.403 103.942,27.084 158.548,56.444c84.867,45.63 169.399,107.582 234.167,147.388c36.507,22.436 151.783,81.01 223.126,132.519c17.327,12.51 31.972,24.504 41.846,35.429c4.983,5.513 8.73,10.413 10.101,15.003c3.288,11.001 1.825,23.474 -2.378,36.871c-7.48,23.836 -23.659,49.956 -43.651,76.192c-52.632,69.073 -131.748,138.086 -163.355,167.756c-45.798,42.993 -126.231,131.341 -206.135,198.86c-50.705,42.846 -100.718,77.663 -141.026,84.255c-28.633,4.684 -78.628,-8.946 -139.428,-32.967c-149.012,-58.872 -358.486,-182.933 -481.225,-293.622c-43.384,-39.125 -75.869,-76.211 -89.716,-108.102c-7.173,-16.522 -9.343,-31.097 -2.275,-42.961Z" style="fill:#7e4021;"/><path d="M819.537,392.029c5.245,-30.319 -13.973,-105.493 -97.719,-124.67c-64.809,-14.84 -119.161,12.834 -160.728,62.746c-60.823,73.037 -19.154,311.576 74.971,356.345c94.834,45.106 354.035,-47.448 385.868,-136.533c38.109,-106.649 -93.591,-207.229 -202.392,-157.888Z" style="fill:#7e4021;"/><path d="M835.938,368.377c-5.373,-40.757 -33.935,-99.755 -110.4,-117.264c-71.354,-16.339 -131.49,13.373 -177.255,68.327c-13.756,16.518 -23.269,40.363 -28.205,68.603c-6.859,39.238 -5.126,87.308 4.037,134.042c9.186,46.849 25.841,92.307 48.251,126.299c16.083,24.395 35.257,42.996 56.536,53.117c24.914,11.85 60.125,15.569 99.837,12.196c56.163,-4.772 121.753,-23.357 177.873,-49.096c65.331,-29.965 117.243,-70.545 131.012,-109.076c17.392,-48.674 4.099,-96.303 -26.436,-132.256c-39.805,-46.869 -109.24,-73.28 -175.25,-54.892l0,0Zm-32.824,20.811c-1.052,6.083 1.344,12.25 6.228,16.026c4.884,3.776 11.456,4.543 17.078,1.994c58.153,-26.372 123.602,-4.466 159.361,37.639c22.99,27.068 33.548,62.816 20.453,99.461c-4.318,12.084 -13.871,24.021 -26.697,35.765c-21.605,19.782 -52.312,38.401 -86.822,54.229c-52.636,24.142 -114.12,41.706 -166.797,46.181c-32.849,2.79 -62.091,0.718 -82.699,-9.084c-16.371,-7.787 -30.65,-22.594 -43.023,-41.362c-20.274,-30.752 -35.061,-71.983 -43.371,-114.366c-8.332,-42.499 -10.15,-86.205 -3.912,-121.888c3.795,-21.707 10.411,-40.315 20.985,-53.012c37.368,-44.873 85.936,-70.507 144.2,-57.165c71.667,16.41 89.505,79.636 85.016,105.582Z" style="fill:#7e4021;"/><path d="M816.864,444.833c4.29,-24.802 -11.43,-86.294 -79.934,-101.98c-53.014,-12.139 -97.475,10.497 -131.476,51.326c-49.753,59.744 -15.668,254.87 61.326,291.491c77.575,36.897 289.602,-38.813 315.641,-111.685c31.174,-87.239 -76.557,-169.513 -165.557,-129.152Z" style="fill:#a76544;"/><path d="M832.748,421.695c-5.648,-34.098 -30.058,-80.882 -92.098,-95.088c-59.56,-13.639 -109.804,11.036 -148.003,56.907c-11.542,13.86 -19.587,33.841 -23.729,57.536c-5.668,32.42 -4.258,72.139 3.313,110.753c7.594,38.729 21.388,76.298 39.914,104.399c13.494,20.467 29.623,36.028 47.476,44.519c20.772,9.88 50.117,13.072 83.227,10.259c46.258,-3.929 100.286,-19.225 146.508,-40.425c54.337,-24.922 97.309,-58.915 108.76,-90.961c14.619,-40.91 3.496,-80.952 -22.168,-111.17c-32.611,-38.398 -89.018,-60.344 -143.2,-46.729l0,0Zm-32.307,20.297c-1.052,6.083 1.344,12.25 6.228,16.026c4.885,3.776 11.456,4.543 17.078,1.993c46.272,-20.983 98.34,-3.512 126.794,29.99c18.118,21.334 26.506,49.494 16.186,78.376c-3.391,9.49 -10.958,18.816 -21.031,28.04c-17.474,15.999 -42.324,31.037 -70.236,43.839c-42.74,19.603 -92.661,33.877 -135.433,37.511c-26.246,2.229 -49.623,0.684 -66.088,-7.148c-12.945,-6.157 -24.18,-17.924 -33.964,-32.765c-16.39,-24.86 -28.315,-58.202 -35.033,-92.465c-6.741,-34.379 -8.235,-69.734 -3.189,-98.599c3,-17.162 8.149,-31.907 16.508,-41.945c29.804,-35.789 68.479,-56.387 114.949,-45.746c56.427,12.921 70.765,62.464 67.231,82.893Z" style="fill:#7e4021;"/><path d="M1204.48,352.92c-0.651,-0.209 -1.322,-0.375 -2.01,-0.501c-9.05,-1.65 -17.736,4.357 -19.387,13.406c-0.101,0.559 -1.88,15.279 12.451,19.207c2.485,0.681 15.454,3.824 24.435,7.723c16.136,7.006 32.345,14.63 47.337,23.857c7.834,4.821 18.108,2.374 22.929,-5.46c4.821,-7.834 2.375,-18.108 -5.459,-22.929c-16.33,-10.05 -33.956,-18.413 -51.531,-26.044c-10.106,-4.387 -27.089,-8.826 -28.765,-9.259Z" style="fill:#7e4021;"/><path d="M1316.16,445.54c1.572,2.907 3.598,6.495 4.784,8.044c5.595,7.301 16.065,8.687 23.367,3.093c7.301,-5.595 8.687,-16.065 3.093,-23.367c-2.148,-2.803 -4.663,-9.176 -6.957,-12.172c-2.805,-3.661 -6.002,-5.744 -8.626,-6.811c-3.79,-1.54 -7.518,-1.706 -11.128,-0.798c-3.662,0.921 -7.878,2.981 -11.206,8.355c-4.843,7.82 -2.426,18.102 5.395,22.945c0.418,0.259 0.844,0.497 1.278,0.711Zm17.111,-1.265c1.625,-1.052 3.171,-2.606 4.555,-4.841c-1.217,1.965 -2.777,3.589 -4.555,4.841Z" style="fill:#7e4021;"/><path d="M822.966,1004.99c-15.556,25.593 -16.932,79.343 14.81,110.616c6.553,6.456 17.114,6.378 23.57,-0.175c6.455,-6.552 6.377,-17.113 -0.176,-23.569c-19.976,-19.681 -19.51,-53.452 -9.72,-69.558c4.778,-7.86 2.275,-18.121 -5.585,-22.899c-7.86,-4.778 -18.121,-2.275 -22.899,5.585Z" style="fill:#7e4021;"/></g></svg>