<?xml version="1.0" encoding="UTF-8" standalone="no"?><!DOCTYPE svg PUBLIC "-//W3C//DTD SVG 1.1//EN" "http://www.w3.org/Graphics/SVG/1.1/DTD/svg11.dtd"><svg width="100%" height="100%" viewBox="0 0 2045 2949" version="1.1" xmlns="http://www.w3.org/2000/svg" xmlns:xlink="http://www.w3.org/1999/xlink" xml:space="preserve" xmlns:serif="http://www.serif.com/" style="fill-rule:evenodd;clip-rule:evenodd;stroke-linejoin:round;stroke-miterlimit:2;"><g id="Chocolate"><path d="M1589.35,2914.98c32.829,-170.628 249.799,-1435.26 270.774,-1607.67c13.353,-109.758 170.654,-997.534 149.288,-1042.69c-13.644,-28.839 -90.399,-43.064 -111.625,-48.688c-101.779,-26.967 -1345.2,-206.021 -1380.98,-179.821c-13.179,9.651 -49.678,118.234 -67.47,228.457c-19.806,122.697 -20.29,247.765 -20.29,247.765c0,-0 -53.5,151.411 -69.273,229.867c-17.422,86.658 -35.26,290.079 -35.26,290.079c0,0 -46.599,138.815 -65.302,229.673c-10.066,48.904 -38.863,207.266 -36.587,311.831c-16.173,99.262 -58.342,210.859 -77.814,325.751c-12.387,73.087 -1.763,148.329 -13.999,219.927c-19.578,114.56 -66.829,223.011 -82.175,313.536c-24.197,142.745 -11.584,240.448 -10.091,243.683c10.251,22.21 927.03,122.602 1296.89,186.73c66.742,11.572 189.567,28.586 253.917,51.569Z" style="fill:#c48464;"/><path d="M1578.13,2946.37c9.16,3.272 19.293,2.379 27.74,-2.445c8.447,-4.823 14.366,-13.096 16.204,-22.648c32.875,-170.869 250.126,-1437.29 271.13,-1609.94c10.685,-87.821 113.505,-673.651 143.266,-927.594c5.426,-46.299 8.41,-82.017 8.252,-102.504c-0.121,-15.523 -2.826,-25.885 -5.188,-30.876c-6.672,-14.104 -21.257,-27.593 -41.227,-37.673c-30.793,-15.544 -75.985,-24.74 -91.992,-28.981c-81.774,-21.666 -897.322,-141.292 -1238.68,-174.722c-70.895,-6.943 -122.109,-10.012 -143.573,-8.284c-14.295,1.15 -22.984,5.602 -26.96,8.514c-4.853,3.554 -13.295,13.166 -20.965,29.862c-17.344,37.753 -44.901,128.381 -59.719,220.176c-17.699,109.647 -20.285,221.148 -20.654,247.246c-9.642,27.714 -54.363,157.912 -68.68,229.128c-16.206,80.609 -32.835,260.978 -35.436,289.816c-7.618,23.021 -47.913,146.313 -65.095,229.785c-10.206,49.58 -39.025,209.068 -37.323,316.127c-16.506,98.461 -58.027,208.918 -77.295,322.606c-12.384,73.072 -1.757,148.298 -13.991,219.881c-19.581,114.577 -66.835,223.044 -82.182,313.581c-20.112,118.639 -15.576,207.338 -12.231,239.79c1.478,14.346 4.19,22.244 4.739,23.432c2.133,4.622 6.321,11.394 15.878,16.657c4.967,2.735 17.293,6.939 36.438,10.908c159.455,33.06 935.987,120.276 1269.14,178.04c65.275,11.318 185.465,27.64 248.401,50.117Zm11.211,-31.391c32.829,-170.628 249.799,-1435.26 270.774,-1607.67c13.353,-109.758 170.654,-997.534 149.288,-1042.69c-13.644,-28.839 -90.399,-43.064 -111.625,-48.688c-101.779,-26.967 -1345.2,-206.021 -1380.98,-179.821c-13.179,9.651 -49.678,118.234 -67.47,228.457c-19.806,122.697 -20.29,247.765 -20.29,247.765c0,-0 -53.5,151.411 -69.273,229.867c-17.422,86.658 -35.26,290.079 -35.26,290.079c0,0 -46.599,138.815 -65.302,229.673c-10.066,48.904 -38.863,207.266 -36.587,311.831c-16.173,99.262 -58.342,210.859 -77.814,325.751c-12.387,73.087 -1.763,148.329 -13.999,219.927c-19.578,114.56 -66.829,223.011 -82.175,313.536c-24.197,142.745 -11.584,240.448 -10.091,243.683c10.251,22.21 927.03,122.602 1296.89,186.73c66.742,11.572 189.567,28.586 253.917,51.569Z" style="fill:#7e4021;"/><path d="M429.802,509.912c74.761,-63.946 244.285,-40.753 366.495,5.923c73.167,27.944 70.328,44.904 105.495,53.746c8.806,2.214 79.943,-28.184 187.386,-26.436c81.324,1.323 184.648,3.021 263.722,45.917c45.621,24.748 64.007,52.935 92.908,49.937c37.869,-3.928 89.145,-11.301 117.542,-13.331c99.336,-7.1 204.018,4.373 299.829,37.476c32.652,11.281 85.907,46.848 89.057,55.432c-11.678,6.283 -68.185,30.55 -102.628,33.287c-101.067,8.034 -205.286,-9.441 -299.663,-45.147c-26.979,-10.207 -74.764,-32.579 -110.435,-47.49c-27.224,-11.379 -52.105,13.375 -102.487,26.754c-87.327,23.189 -187.775,-4.293 -266.832,-25.938c-104.448,-28.597 -165.672,-81.078 -174.753,-81.22c-36.265,-0.568 -37.31,24.525 -115.629,27.235c-257.053,8.894 -350.007,-96.145 -350.007,-96.145Z" style="fill:#a76544;"/><path d="M322.048,1025.48c76.273,-62.134 262.999,-33.095 384.054,16.5c72.475,29.692 69.229,46.579 104.174,56.263c8.75,2.425 80.597,-26.257 187.967,-21.931c81.268,3.274 184.522,7.452 262.544,52.234c45.014,25.836 62.717,54.455 91.682,52.152c37.952,-3.018 89.391,-9.158 117.828,-10.506c99.479,-4.714 203.855,9.269 298.843,44.661c32.373,12.062 84.758,48.897 87.702,57.554c-11.826,6 -68.899,28.904 -103.398,30.814c-101.23,5.606 -205,-14.365 -298.493,-52.326c-26.726,-10.852 -73.96,-34.365 -109.263,-50.127c-26.943,-12.029 -52.411,12.121 -103.1,24.286c-87.858,21.086 -187.618,-8.798 -266.133,-32.335c-103.731,-31.095 -163.678,-85.03 -172.752,-85.39c-36.242,-1.438 -37.889,23.623 -116.25,24.452c-257.192,2.722 -365.405,-106.301 -365.405,-106.301Z" style="fill:#a76544;"/><path d="M132.254,2112.16c76.274,-62.133 262.999,-33.094 384.054,16.501c72.476,29.692 69.23,46.578 104.174,56.262c8.75,2.425 80.597,-26.257 187.967,-21.931c81.269,3.274 184.523,7.453 262.544,52.234c45.014,25.836 62.718,54.456 91.682,52.152c37.953,-3.018 89.392,-9.158 117.829,-10.505c99.478,-4.715 203.855,9.268 298.843,44.66c32.372,12.062 84.758,48.897 87.701,57.554c-11.826,6.001 -68.898,28.904 -103.398,30.815c-101.23,5.605 -205,-14.366 -298.493,-52.327c-26.725,-10.851 -73.96,-34.364 -109.263,-50.126c-26.943,-12.03 -52.411,12.12 -103.099,24.285c-87.858,21.087 -187.619,-8.798 -266.133,-32.334c-103.731,-31.096 -163.678,-85.031 -172.753,-85.391c-36.241,-1.438 -37.888,23.623 -116.25,24.452c-257.192,2.722 -365.405,-106.301 -365.405,-106.301Z" style="fill:#a76544;"/><path d="M213.017,1563.85c76.273,-62.134 262.999,-33.095 384.054,16.5c72.475,29.692 69.229,46.579 104.174,56.263c8.75,2.425 80.597,-26.257 187.967,-21.931c81.268,3.274 184.523,7.452 262.544,52.233c45.014,25.836 62.718,54.456 91.682,52.153c37.953,-3.018 89.392,-9.158 117.828,-10.506c99.479,-4.714 203.855,9.269 298.843,44.661c32.373,12.062 84.759,48.897 87.702,57.554c-11.826,6 -68.898,28.904 -103.398,30.814c-101.23,5.606 -205,-14.366 -298.493,-52.326c-26.726,-10.852 -73.96,-34.365 -109.263,-50.127c-26.943,-12.029 -52.411,12.12 -103.1,24.286c-87.858,21.086 -187.618,-8.798 -266.132,-32.335c-103.732,-31.096 -163.679,-85.03 -172.753,-85.391c-36.241,-1.437 -37.889,23.623 -116.25,24.453c-257.192,2.722 -365.405,-106.301 -365.405,-106.301Z" style="fill:#a76544;"/><path d="M1401.36,640.352c-10.219,18.059 -57.326,76.39 -86.518,170.242c-25.128,80.791 -56.236,183.548 -35.405,274.458c6.01,26.229 15.102,46.007 21.181,62.662c4.155,11.384 7.481,20.546 3.139,30.009c-16.202,35.305 -40.3,82.524 -51.479,109.263c-39.858,95.336 -61.344,201.397 -56.671,305.117c1.626,36.098 7.118,69.586 18.614,103.899c3.394,10.133 5.713,19.398 8.294,26.684c2.503,7.069 5.458,12.713 8.893,16.739c5.971,6.997 16.5,7.831 23.497,1.86c6.997,-5.971 7.831,-16.5 1.86,-23.497c-1.784,-2.091 -2.65,-5.513 -3.924,-9.5c-2.106,-6.595 -4.185,-14.434 -7.013,-22.875c-10.489,-31.308 -15.438,-61.874 -16.922,-94.81c-4.452,-98.846 16.141,-199.902 54.126,-290.76c11.073,-26.486 34.972,-73.246 51.02,-108.218c6.649,-14.488 6.139,-28.724 1.332,-45.001c-5.264,-17.825 -16.568,-38.955 -23.456,-69.017c-19.53,-85.232 11.184,-181.368 34.744,-257.113c25.064,-80.584 64.193,-133.67 79.025,-156.227c6.351,-9.658 8.72,-16.728 8.872,-19.755c0.859,-17.185 -2.075,-27.924 -6.517,-40.531c-5.333,-15.131 -13.187,-33.658 -16.77,-78.135c-6.109,-75.841 6.153,-167.421 36.033,-239.679c19.012,-45.975 44.936,-84.169 78.611,-103.848c7.942,-4.641 10.622,-14.857 5.981,-22.799c-4.641,-7.942 -14.857,-10.621 -22.799,-5.98c-39.167,22.888 -70.484,66.417 -92.596,119.889c-31.805,76.91 -44.958,174.37 -38.455,255.094c3.326,41.294 10.014,62.5 15.568,78.182c4.224,11.926 7.984,19.813 7.735,33.647Z" style="fill:#d49973;"/><path d="M1211.95,1726.34l-0.107,0.207c-9.625,17.469 -57.338,76.009 -86.8,170.732c-25.129,80.791 -56.237,183.549 -35.406,274.458c6.01,26.229 15.102,46.007 21.181,62.662c4.156,11.385 7.481,20.547 3.139,30.009c-16.201,35.306 -40.3,82.525 -51.478,109.263c-39.859,95.337 -61.344,201.398 -56.672,305.117c1.613,35.805 22.93,89.338 34.332,123.371c2.922,8.723 12.376,13.432 21.098,10.51c8.722,-2.923 13.431,-12.376 10.509,-21.098c-10.582,-31.587 -31.143,-81.052 -32.64,-114.283c-4.452,-98.846 16.141,-199.902 54.126,-290.759c11.074,-26.486 34.973,-73.246 51.021,-108.219c6.648,-14.488 6.138,-28.724 1.331,-45c-5.264,-17.825 -16.567,-38.956 -23.456,-69.018c-19.529,-85.232 11.185,-181.367 34.744,-257.113c25.064,-80.583 64.193,-133.67 79.025,-156.227c6.351,-9.658 8.721,-16.728 8.872,-19.755c0.459,-9.187 -6.626,-17.018 -15.813,-17.478c-8.09,-0.404 -15.128,5.041 -17.006,12.621Z" style="fill:#d49973;"/><path d="M862.785,566.058c-10.219,18.059 -57.326,76.389 -86.518,170.242c-25.128,80.791 -56.236,183.548 -35.405,274.458c6.01,26.228 15.102,46.006 21.181,62.662c4.155,11.384 7.481,20.546 3.139,30.008c-16.202,35.306 -40.3,82.525 -51.479,109.264c-39.858,95.336 -61.344,201.397 -56.671,305.116c1.624,36.067 11.45,70.811 22.935,105.094c6.553,19.562 12.667,30.942 19.504,38.954c5.971,6.997 16.499,7.83 23.497,1.859c6.997,-5.971 7.83,-16.499 1.859,-23.496c-4.848,-5.682 -8.606,-14.034 -13.253,-27.906c-10.499,-31.338 -19.758,-63.036 -21.243,-96.005c-4.452,-98.846 16.141,-199.902 54.126,-290.759c11.073,-26.486 34.972,-73.246 51.021,-108.218c6.648,-14.489 6.138,-28.724 1.331,-45.001c-5.264,-17.825 -16.568,-38.955 -23.456,-69.017c-19.53,-85.233 11.184,-181.368 34.744,-257.113c25.064,-80.584 64.193,-133.67 79.025,-156.228c6.351,-9.658 8.72,-16.728 8.872,-19.754c0.859,-17.185 -2.075,-27.924 -6.517,-40.531c-5.333,-15.131 -13.187,-33.658 -16.77,-78.135c-6.106,-75.797 6.324,-166.374 36.329,-237.831c19.107,-45.503 45.141,-83.287 78.825,-102.972c7.942,-4.641 10.622,-14.857 5.981,-22.799c-4.641,-7.942 -14.857,-10.621 -22.799,-5.98c-39.157,22.882 -70.529,65.949 -92.741,118.846c-31.973,76.143 -45.327,172.644 -38.82,253.413c3.326,41.294 10.014,62.5 15.568,78.181c4.224,11.927 7.984,19.813 7.735,33.648Z" style="fill:#d49973;"/><path d="M673.381,1652.04l-0.107,0.206c-9.625,17.47 -57.338,76.009 -86.8,170.733c-25.129,80.791 -56.237,183.548 -35.406,274.458c6.01,26.229 15.102,46.007 21.181,62.662c4.156,11.385 7.481,20.546 3.139,30.009c-16.201,35.305 -40.299,82.524 -51.478,109.263c-39.859,95.337 -61.344,201.398 -56.672,305.117c1.612,35.787 23.898,90.764 35.294,124.781c2.923,8.723 12.376,13.431 21.098,10.509c8.722,-2.922 13.431,-12.375 10.509,-21.097c-10.587,-31.604 -32.104,-82.445 -33.602,-115.693c-4.452,-98.846 16.141,-199.902 54.126,-290.759c11.074,-26.487 34.973,-73.247 51.021,-108.219c6.648,-14.488 6.138,-28.724 1.331,-45.001c-5.264,-17.824 -16.567,-38.955 -23.456,-69.017c-19.529,-85.232 11.185,-181.367 34.744,-257.113c25.064,-80.583 64.193,-133.67 79.025,-156.227c6.351,-9.658 8.721,-16.728 8.872,-19.755c0.459,-9.187 -6.626,-17.019 -15.813,-17.478c-8.09,-0.404 -15.128,5.041 -17.006,12.621Z" style="fill:#d49973;"/><path d="M884.462,604.06c18.413,9.606 78.319,54.672 173.098,80.622c81.606,22.343 185.37,49.907 275.511,25.971c26.704,-7.091 47.382,-19.835 64.91,-29.474c5.762,-3.168 11.096,-5.957 16.212,-7.784c4.602,-1.643 8.85,-2.627 13.118,-0.844c35.946,15.025 54.21,39.192 108.866,58.45c97.343,34.297 203.149,54.258 306.522,46.042c36.049,-2.866 66.102,-14.537 100.027,-27.212c8.617,-3.22 12.999,-12.829 9.779,-21.446c-3.219,-8.617 -12.829,-12.999 -21.445,-9.779c-30.904,11.546 -58.164,22.598 -91.002,25.208c-98.76,7.85 -199.805,-11.486 -292.804,-44.252c-53.82,-18.963 -71.691,-42.97 -107.088,-57.765c-15.203,-6.355 -30.586,-3.624 -47.89,4.766c-17.832,8.646 -38.763,24.173 -67.76,31.873c-84.512,22.442 -181.644,-4.957 -258.153,-25.904c-81.396,-22.286 -135.793,-59.571 -158.846,-73.621c-9.87,-6.015 -17.017,-8.141 -20.047,-8.189c-17.373,-0.272 -28.077,3.459 -40.61,8.738c-14.725,6.202 -32.742,14.824 -76.69,18.555c-58.449,4.962 -149.418,-3.609 -224.645,-29.911c-47.74,-16.692 -89.3,-40.183 -110.099,-73.125c-4.911,-7.778 -15.212,-10.105 -22.99,-5.195c-7.778,4.911 -10.106,15.213 -5.196,22.991c24.243,38.397 71.637,67.338 127.283,86.795c79.851,27.919 176.425,36.926 238.467,31.659c41.692,-3.539 62.858,-11.062 78.463,-17.524c11.665,-4.831 19.289,-9.362 33.009,-9.645Z" style="fill:#7e4021;"/><path d="M791.892,1133.2c18.177,10.045 76.985,56.536 171.113,84.753c81.046,24.295 184.118,54.343 274.809,32.577c27.667,-6.641 47.84,-21.203 64.622,-32.76c5.343,-3.679 10.236,-6.997 14.978,-9.248c3.45,-1.638 6.619,-2.915 10.025,-1.394c35.455,15.829 85.737,57.58 112.578,68.478c95.742,38.874 202.019,59.266 305.684,53.526c36.048,-1.996 70.689,-12.179 104.852,-24.017c8.691,-3.012 13.302,-12.513 10.291,-21.205c-3.012,-8.692 -12.514,-13.303 -21.205,-10.291c-31.228,10.821 -62.829,20.406 -95.781,22.23c-98.795,5.471 -200.057,-14.08 -291.301,-51.127c-26.611,-10.805 -76.377,-52.338 -111.528,-68.032c-15.874,-7.087 -31.064,-3.242 -47.97,7.31c-16.026,10.002 -34.715,27.322 -63.025,34.117c-85.026,20.407 -181.473,-9.315 -257.457,-32.093c-80.837,-24.233 -134.324,-62.813 -157.033,-77.412c-9.723,-6.251 -16.817,-8.548 -19.845,-8.668c-17.361,-0.689 -28.152,2.784 -40.808,7.76c-14.87,5.848 -33.088,14.035 -77.113,16.71c-58.696,3.566 -155.517,-7.63 -234.965,-36.114c-50.349,-18.051 -93.93,-42.58 -113.953,-76.048c-4.723,-7.894 -14.966,-10.468 -22.86,-5.745c-7.893,4.722 -10.468,14.965 -5.745,22.859c23.293,38.932 72.738,69.313 131.309,90.312c83.928,30.09 186.23,41.775 248.236,38.008c41.765,-2.538 63.105,-9.551 78.861,-15.636c11.778,-4.549 19.508,-8.896 33.231,-8.85Z" style="fill:#7e4021;"/><path d="M602.098,2219.88c18.177,10.046 76.985,56.536 171.114,84.754c81.045,24.295 184.118,54.342 274.808,32.576c26.165,-6.28 45.849,-15.575 62.441,-21.826c11.341,-4.272 20.468,-7.692 29.974,-3.447c35.471,15.836 82.936,39.447 109.788,50.35c95.742,38.874 202.019,59.265 305.685,53.525c36.047,-1.996 70.688,-12.179 104.851,-24.017c8.691,-3.011 13.303,-12.513 10.291,-21.205c-3.012,-8.691 -12.513,-13.302 -21.205,-10.291c-31.228,10.821 -62.829,20.406 -95.78,22.231c-98.795,5.47 -200.058,-14.08 -291.302,-51.128c-26.599,-10.8 -73.602,-34.216 -108.738,-49.903c-14.556,-6.499 -28.786,-5.842 -45.012,-0.867c-17.77,5.447 -38.783,16.968 -68.772,24.165c-85.027,20.407 -181.473,-9.315 -257.458,-32.093c-80.837,-24.233 -134.324,-62.813 -157.033,-77.412c-9.723,-6.25 -16.817,-8.547 -19.845,-8.667c-17.361,-0.689 -28.151,2.783 -40.808,7.76c-14.869,5.847 -33.087,14.035 -77.112,16.709c-58.696,3.567 -155.517,-7.629 -234.965,-36.113c-50.35,-18.052 -93.931,-42.581 -113.954,-76.049c-4.723,-7.893 -14.966,-10.468 -22.859,-5.745c-7.894,4.723 -10.468,14.966 -5.746,22.859c23.293,38.933 72.739,69.314 131.309,90.312c83.928,30.09 186.23,41.776 248.236,38.008c41.766,-2.537 63.105,-9.55 78.861,-15.636c11.778,-4.549 19.508,-8.896 33.231,-8.85Z" style="fill:#7e4021;"/><path d="M702.416,1654.32c10.129,12.613 64.347,75.866 151.559,102.009c81.045,24.295 184.118,54.343 274.808,32.576c31.762,-7.623 60.407,-27.556 84.163,-39.753c6.164,-3.165 11.87,-5.752 17.173,-6.927c2.648,-0.586 5.086,-0.967 7.262,0.037c8.402,3.876 14.647,11.547 22.459,20.036c15.563,16.915 34.883,37.302 71.271,51.735c96.013,38.08 201.938,59.212 305.559,53.475c36.975,-2.048 98.174,-19.897 132.315,-44.454c7.467,-5.372 9.169,-15.795 3.798,-23.263c-5.371,-7.467 -15.795,-9.169 -23.262,-3.798c-29.571,21.27 -82.669,36.459 -114.694,38.232c-98.839,5.473 -199.844,-14.855 -291.426,-51.178c-30.253,-11.998 -46.092,-29.255 -59.031,-43.318c-11.193,-12.165 -20.986,-22.181 -33.026,-27.735c-14.621,-6.745 -32.935,-3.117 -53.623,7.505c-21.737,11.161 -47.654,30.018 -76.717,36.994c-85.027,20.406 -181.474,-9.316 -257.458,-32.093c-78.636,-23.573 -117.176,-71.802 -133.906,-90.239c-4.327,-4.769 -7.826,-8.025 -10.308,-9.688c-4.016,-2.691 -7.69,-3.502 -10.569,-3.616c-17.27,-0.685 -32.379,5.608 -50.023,14.553c-20.726,10.507 -46.206,24.72 -89.993,27.38c-58.696,3.566 -155.516,-7.63 -234.965,-36.114c-50.349,-18.051 -93.93,-42.58 -113.953,-76.048c-4.723,-7.894 -14.966,-10.468 -22.86,-5.746c-7.893,4.723 -10.468,14.966 -5.745,22.86c23.293,38.932 72.738,69.313 131.309,90.312c83.928,30.09 186.23,41.775 248.236,38.008c50.079,-3.043 79.34,-18.904 103.044,-30.922c10.234,-5.188 18.965,-9.861 28.603,-10.82Z" style="fill:#7e4021;"/><path d="M1000.97,79.358c61.345,76.91 8.907,276.311 -41.932,396.849c-30.438,72.165 -47.29,68.745 -57.334,103.588c-2.515,8.725 25.426,80.863 19.994,188.183c-4.111,81.231 -9.353,184.436 -54.936,261.992c-26.298,44.745 -55.099,62.153 -53.094,91.14c2.627,37.982 8.237,89.481 9.291,117.93c3.69,99.522 -11.368,203.749 -47.737,298.367c-12.394,32.247 -56.331,113.951 -65.018,116.805c-5.878,-11.887 -21.629,-98.893 -23.184,-133.411c-4.562,-101.282 16.477,-204.841 55.399,-297.937c11.126,-26.613 35.125,-73.603 51.25,-108.741c12.306,-26.818 -11.58,-52.534 -23.223,-103.345c-20.18,-88.07 10.731,-187.517 35.075,-265.785c32.163,-103.406 86.713,-162.794 87.166,-171.864c1.811,-36.225 -16.961,-38.383 -23.253,-116.496c-10.511,-130.471 20.092,-326.148 111.143,-379.356l20.393,2.081Z" style="fill:#7e4021;"/><path d="M702.894,1659.81c1.812,-36.224 19.061,-28.176 9.018,6.667c-2.515,8.724 25.425,80.862 19.993,188.182c-4.111,81.231 -9.353,184.436 -54.935,261.993c-26.299,44.745 -55.099,62.153 -53.095,91.14c2.627,37.981 8.237,89.481 9.292,117.93c3.689,99.522 -11.368,203.748 -47.737,298.367c-12.395,32.246 -54.103,125.893 -62.79,128.747c-5.878,-11.886 -23.857,-110.836 -25.412,-145.353c-4.563,-101.283 16.477,-204.841 55.399,-297.938c11.126,-26.613 35.124,-73.602 51.249,-108.741c12.306,-26.818 -11.58,-52.533 -23.222,-103.344c-20.18,-88.071 10.73,-187.518 35.075,-265.786c32.162,-103.405 86.712,-162.793 87.165,-171.864Z" style="fill:#7e4021;"/><path d="M1536.22,155.02c61.344,76.91 8.906,276.311 -41.933,396.848c-30.437,72.166 -47.29,68.746 -57.333,103.589c-2.515,8.725 25.425,80.863 19.993,188.183c-4.111,81.23 -9.353,184.436 -54.936,261.992c-26.298,44.745 -55.098,62.153 -53.094,91.14c2.627,37.981 8.237,89.481 9.292,117.93c3.689,99.522 -11.368,203.749 -47.737,298.367c-12.395,32.247 -56.332,113.951 -65.019,116.805c-5.878,-11.887 -21.628,-98.893 -23.183,-133.411c-4.563,-101.282 16.477,-204.841 55.398,-297.938c11.127,-26.612 35.125,-73.602 51.25,-108.741c12.306,-26.817 -11.58,-52.533 -23.222,-103.344c-20.18,-88.07 10.73,-187.518 35.074,-265.785c32.163,-103.406 86.713,-162.794 87.166,-171.864c1.812,-36.225 -16.96,-38.383 -23.253,-116.496c-10.511,-130.471 20.092,-326.148 111.143,-379.356l20.394,2.081Z" style="fill:#7e4021;"/><path d="M1238.14,1735.47c1.67,-3.666 9.152,-14.32 9.017,6.667c-2.515,8.724 25.426,80.862 19.994,188.182c-4.112,81.231 -9.353,184.436 -54.936,261.993c-26.299,44.745 -55.099,62.153 -53.094,91.14c2.627,37.981 8.236,89.481 9.291,117.93c3.689,99.522 -11.368,203.748 -47.737,298.367c-12.395,32.246 -56.494,125.083 -65.181,127.937c-5.878,-11.887 -21.466,-110.026 -23.021,-144.543c-4.562,-101.283 16.477,-204.841 55.399,-297.938c11.126,-26.613 35.125,-73.602 51.249,-108.741c12.307,-26.818 -11.579,-52.533 -23.222,-103.344c-20.18,-88.071 10.731,-187.518 35.075,-265.786c32.163,-103.405 86.712,-162.793 87.166,-171.864Z" style="fill:#7e4021;"/><path d="M1806.74,1736.19c-10.322,64.046 -40.295,234.106 -56.649,352.26c-56.325,406.936 -154.532,837.184 -154.532,837.184c-0,0 -40.015,-2.418 -41.753,-10.686c-7.121,-33.862 -24.051,-114.092 -25.606,-148.61c-4.562,-101.282 -6.292,-190.02 42.06,-278.587c38.061,-69.718 68.871,-82.833 84.996,-117.971c12.306,-26.818 -23.42,-54.251 -43.63,-113.465c-29.185,-85.509 10.731,-187.517 35.075,-265.785c18.352,-59.003 46.957,-114.959 81.51,-171.095c14.472,-23.512 -7.338,-91.691 -10.217,-139.777c-6.059,-101.204 13.748,-206.029 55.399,-297.938c21.516,-47.479 38.715,-64.427 52.521,-87.085c15.354,-25.197 -18.124,-96.485 -24.819,-148.182c-10.905,-84.216 11.056,-164.336 35.4,-242.604c32.162,-103.405 72.843,-168.605 73.296,-177.676c1.811,-36.224 -3.091,-32.571 -9.384,-110.683c-9.248,-114.802 33.268,-297.067 104.148,-371.466c1.085,-1.139 19.534,25.827 16.354,59.539c-5.663,60.023 -13.241,174.284 -33.794,312.26c-17.108,114.852 -157.769,980.107 -180.375,1120.37Z" style="fill:#d49973;"/><path d="M1893.22,723.747c-0.907,2.044 -4.576,10.25 -8.34,17.914c-14.36,29.238 -41.437,83.738 -64.298,157.238c-25.05,80.536 -47.235,163.038 -36.013,249.695c4.076,31.482 17.84,70.147 24.912,101.547c2.059,9.141 3.528,17.569 3.732,24.839c0.125,4.434 0.131,8.258 -1.529,10.983c-14.081,23.108 -31.526,40.454 -53.47,88.878c-42.751,94.337 -63.074,201.934 -56.855,305.813c1.744,29.137 10.319,65.587 13.785,95.207c1.02,8.723 1.586,16.773 1.199,23.694c-0.253,4.519 -0.638,8.404 -2.324,11.143c-35.311,57.368 -64.476,114.584 -83.231,174.882c-25.273,81.254 -65.232,187.346 -34.933,276.119c10.508,30.786 24.945,53.362 35.26,71.676c3.456,6.136 6.403,11.68 8.284,16.905c1.618,4.497 2.556,8.527 0.711,12.548c-5.746,12.522 -13.738,21.796 -23.247,32.523c-16.607,18.734 -37.541,41.022 -61.23,84.414c-49.886,91.377 -48.788,182.827 -44.081,287.323c1.583,35.136 18.697,116.822 25.946,151.29c1.15,5.468 5.457,12.124 14.661,16.135c12.866,5.607 42.396,7.758 42.396,7.758c8.14,0.491 15.44,-4.978 17.255,-12.928c-0,0 98.371,-430.98 154.792,-838.608c16.337,-118.031 46.283,-287.913 56.594,-351.893c22.61,-140.284 163.295,-1005.69 180.406,-1120.56c20.611,-138.37 28.222,-252.956 33.902,-313.151c3.517,-37.283 -15.607,-67.549 -20.217,-72.269c-11.004,-11.266 -21.931,-3.339 -24.798,-0.331c-73.375,77.019 -118.267,265.455 -108.693,384.3c6.077,75.426 10.976,73.086 9.424,106.919Zm108.141,-449.894c2.369,7.898 3.95,17.618 2.957,28.144c-5.647,59.852 -13.191,173.788 -33.686,311.371c-17.105,114.831 -157.742,979.935 -180.344,1120.17c-10.333,64.113 -40.333,234.35 -56.704,352.627c-50.006,361.279 -133.081,740.963 -150.858,820.588l-14.089,-2.285c-7.629,-36.272 -22.357,-107.187 -23.785,-138.88c-4.418,-98.069 -6.779,-184.094 40.038,-269.85c21.985,-40.27 41.504,-60.889 56.917,-78.275c11.838,-13.354 21.445,-25.143 28.599,-40.732c6.946,-15.136 4.578,-30.575 -4.426,-48.803c-9.337,-18.905 -26.749,-42.337 -38.578,-76.996c-13.655,-40.006 -10.75,-83.878 -1.979,-126.896c9.258,-45.406 25.173,-89.905 37.195,-128.556c17.949,-57.709 45.993,-112.405 79.788,-167.309c5.689,-9.243 8.085,-23.593 7.17,-41.08c-1.631,-31.174 -12.926,-74.731 -14.943,-108.429c-5.899,-98.529 13.393,-200.583 53.942,-290.062c21.088,-46.534 38.043,-63.086 51.574,-85.293c6.167,-10.121 7.788,-25.67 4.92,-44.527c-4.983,-32.756 -22.772,-78.392 -27.443,-114.467c-10.59,-81.776 11.147,-159.514 34.785,-235.514c25.394,-81.642 56.212,-139.134 67.735,-163.455c4.379,-9.243 6.157,-15.617 6.293,-18.338c1.846,-36.931 -3.002,-33.219 -9.417,-112.854c-8.237,-102.243 25.335,-260.156 84.339,-340.299Z" style="fill:#7e4021;"/></g></svg>