<?xml version="1.0" encoding="UTF-8" standalone="no"?><!DOCTYPE svg PUBLIC "-//W3C//DTD SVG 1.1//EN" "http://www.w3.org/Graphics/SVG/1.1/DTD/svg11.dtd"><svg width="100%" height="100%" viewBox="0 0 3354 2390" version="1.1" xmlns="http://www.w3.org/2000/svg" xmlns:xlink="http://www.w3.org/1999/xlink" xml:space="preserve" xmlns:serif="http://www.serif.com/" style="fill-rule:evenodd;clip-rule:evenodd;stroke-linejoin:round;stroke-miterlimit:2;"><g id="Dough-in-bowl" serif:id="Dough in bowl"><ellipse cx="1677.15" cy="675.487" rx="1617.91" ry="616.169" style="fill:#f6a7bc;"/><path d="M1677.15,42.651c-421.761,-0 -806.217,61.398 -1095.3,161.841c-202.702,70.43 -358.764,160.344 -449.118,261.392c-58.76,65.716 -90.164,136.356 -90.164,209.603c-0,73.248 31.404,143.888 90.166,209.605c90.354,101.047 246.416,190.96 449.116,261.39c289.082,100.443 673.538,161.841 1095.3,161.841c421.76,0 806.216,-61.398 1095.3,-161.841c202.702,-70.43 358.765,-160.345 449.118,-261.392c58.761,-65.716 90.164,-136.356 90.164,-209.603c0,-73.248 -31.404,-143.888 -90.166,-209.605c-90.353,-101.047 -246.415,-190.96 -449.116,-261.39c-289.082,-100.443 -673.538,-161.841 -1095.3,-161.841Zm-0,33.333c417.535,0 798.172,60.558 1084.36,159.995c162.044,56.303 293.639,124.952 383.942,202.29c84.859,72.675 132.947,152.609 132.947,237.218c0,84.61 -48.088,164.544 -132.949,237.22c-90.303,77.337 -221.897,145.985 -383.94,202.288c-286.186,99.436 -666.823,159.995 -1084.36,159.995c-417.536,-0 -798.173,-60.559 -1084.36,-159.995c-162.044,-56.303 -293.638,-124.952 -383.942,-202.29c-84.859,-72.675 -132.947,-152.609 -132.947,-237.218c0,-84.61 48.089,-164.544 132.949,-237.22c90.304,-77.337 221.897,-145.985 383.94,-202.288c286.186,-99.437 666.823,-159.995 1084.36,-159.995Z" style="fill:#7e4021;"/><path d="M258.068,971.486c-44.499,-30.853 370.034,-216.648 737.65,-146.427c218.067,41.654 343.596,-76.474 579.729,-226.258c940.922,-596.844 1596.71,317.535 1537.33,360.909c-269.934,197.187 -811.786,331.946 -1435.63,331.946c-611.347,0 -1143.95,-129.413 -1419.08,-320.17Z" style="fill:#ffe6d8;"/><path d="M248.572,985.183c131.158,90.937 320.152,168.275 548.174,224.39c253.771,62.451 556.053,98.75 880.403,98.75c329.434,0 636.103,-37.446 892.302,-101.707c232.597,-58.341 423.747,-138.912 553.16,-233.447c7.259,-5.303 12.71,-16.239 9.583,-33.359c-2.907,-15.923 -13.645,-40.668 -32.421,-70.926c-81.8,-131.819 -319.057,-379.153 -661.371,-461.116c-243.521,-58.308 -540.301,-33.369 -871.882,176.959c-131.396,83.347 -228.204,156.972 -326.119,198.175c-74.385,31.302 -149.373,43.394 -241.556,25.786c-162.623,-31.063 -334.297,-12.908 -472.5,20.214c-130.234,31.213 -230.845,75.997 -267.41,104.971c-11.619,9.207 -17.786,18.079 -19.75,24.675c-3.238,10.869 -0.326,19.901 9.387,26.635l-0,-0Zm2851.02,-36.504c-126.609,91.48 -312.597,169.006 -538.251,225.605c-253.869,63.677 -557.757,100.706 -884.193,100.706c-321.413,-0 -620.965,-35.899 -872.438,-97.785c-218.543,-53.782 -400.642,-127.088 -528.724,-213.659c2.57,-2.435 5.852,-5.319 9.166,-7.653c47.185,-33.225 171.888,-83.053 324.564,-110.392c118.375,-21.197 253.572,-28.77 382.874,-4.072c99.502,19.007 180.448,5.984 260.739,-27.803c99.339,-41.802 197.739,-116.192 331.044,-200.751c321.909,-204.192 609.85,-229.297 846.266,-172.69c331.55,79.385 561.583,318.602 640.81,446.276c13.197,21.268 22.108,39.202 26.23,52.529c1.007,3.257 1.621,7.355 1.913,9.689Z" style="fill:#7e4021;"/><path d="M1719.76,2372.55c487.882,6.166 1021.17,-281.867 1315.94,-766.971c168.48,-277.26 232.483,-588.813 259.361,-930.09c-25.442,343.52 -724.963,616.169 -1617.91,616.169c-892.951,0 -1617.91,-276.096 -1617.91,-616.169c15.959,410.294 52.551,686.062 270.63,993.621c328.259,462.949 875.39,696.938 1389.89,703.44Z" style="fill:#facad0;"/><path d="M3278.43,674.458l0.022,-0.28l33.237,2.54l-0.007,0.077l0.001,0c-13.286,168.697 -35.621,330.169 -74.983,483.879c-40.908,159.746 -100.198,311.124 -186.749,453.558c-143.461,236.087 -342.83,425.981 -566.06,558.691c-240.453,142.949 -508.58,219.523 -764.338,216.291l-0,-0c-264.708,-3.346 -537.972,-66.357 -786.167,-189.23c-238.894,-118.269 -454.554,-291.979 -617.112,-521.235c-90.273,-127.314 -149.802,-249.263 -189.777,-377.324c-55.951,-179.245 -73.478,-370.54 -83.13,-605.83c-0.529,-6.682 -0.794,-13.384 -0.794,-20.108l33.321,-0.648l0.746,18.627c6.29,77.96 53.387,151.731 132.213,219.239c90.304,77.338 221.898,145.987 383.942,202.29c286.186,99.436 666.823,159.995 1084.36,159.995c420.115,-0 797.212,-60.54 1080.68,-160.633c160.518,-56.679 290.847,-125.932 381.438,-204.203c83.407,-72.065 132.849,-151.442 139.157,-235.696Zm-13.752,142.176c-13.457,115.681 -32.587,227.67 -60.27,335.771c-40.089,156.551 -98.124,304.932 -182.944,444.517c-140.553,231.303 -335.901,417.328 -554.607,547.349c-234.983,139.697 -496.942,214.771 -746.883,211.612l-0,0c-259.87,-3.284 -528.14,-65.144 -771.799,-185.772c-234.07,-115.881 -445.434,-286.015 -604.709,-510.643c-88.044,-124.17 -146.162,-243.077 -185.15,-367.975c-45.095,-144.468 -64.674,-296.9 -75.498,-474.42c13.432,23.18 30.124,45.879 49.921,68.019c90.354,101.047 246.416,190.96 449.116,261.39c289.082,100.443 673.538,161.841 1095.3,161.841c424.444,0 805.389,-61.41 1091.78,-162.535c165.103,-58.298 298.953,-129.905 392.132,-210.412c43.641,-37.706 78.436,-77.441 103.612,-118.742Z" style="fill:#7e4021;"/><path d="M481.455,1559.53c3.761,14.036 -4.581,28.485 -18.617,32.245c-14.035,3.761 -28.484,-4.581 -32.245,-18.616c-3.761,-14.036 4.581,-28.485 18.617,-32.245c14.036,-3.761 28.484,4.581 32.245,18.616Z" style="fill:#7e4021;"/><path d="M566.997,1756.85c3.761,14.036 -4.581,28.485 -18.616,32.245c-14.036,3.761 -28.485,-4.581 -32.246,-18.616c-3.76,-14.036 4.581,-28.485 18.617,-32.246c14.036,-3.76 28.484,4.582 32.245,18.617Z" style="fill:#7e4021;"/><path d="M586.898,1481.01c3.761,14.036 -4.581,28.485 -18.616,32.245c-14.036,3.761 -28.485,-4.581 -32.245,-18.616c-3.761,-14.036 4.581,-28.485 18.616,-32.246c14.036,-3.76 28.485,4.582 32.245,18.617Z" style="fill:#7e4021;"/><path d="M382.325,1647.9c3.761,14.036 -4.581,28.485 -18.616,32.246c-14.036,3.76 -28.485,-4.582 -32.245,-18.617c-3.761,-14.036 4.581,-28.485 18.616,-32.245c14.036,-3.761 28.485,4.581 32.245,18.616Z" style="fill:#7e4021;"/><path d="M342.478,1544.49c3.761,14.036 -4.581,28.484 -18.616,32.245c-14.036,3.761 -28.485,-4.581 -32.245,-18.617c-3.761,-14.035 4.581,-28.484 18.616,-32.245c14.036,-3.761 28.485,4.581 32.245,18.617Z" style="fill:#7e4021;"/><path d="M404.401,1467.63c3.761,14.035 -4.581,28.484 -18.616,32.245c-14.036,3.761 -28.485,-4.581 -32.245,-18.617c-3.761,-14.036 4.581,-28.484 18.616,-32.245c14.036,-3.761 28.485,4.581 32.245,18.617Z" style="fill:#7e4021;"/><path d="M267.708,1120.51c3.76,14.036 -4.581,28.484 -18.617,32.245c-14.036,3.761 -28.484,-4.581 -32.245,-18.617c-3.761,-14.035 4.581,-28.484 18.616,-32.245c14.036,-3.761 28.485,4.581 32.246,18.617Z" style="fill:#7e4021;"/><path d="M301.404,1412.86c3.761,14.036 -4.581,28.485 -18.617,32.245c-14.036,3.761 -28.484,-4.581 -32.245,-18.616c-3.761,-14.036 4.581,-28.485 18.616,-32.246c14.036,-3.76 28.485,4.582 32.246,18.617Z" style="fill:#7e4021;"/><path d="M225.856,1361.86c-0,14.53 -11.797,26.328 -26.328,26.328c-14.531,-0 -26.328,-11.798 -26.328,-26.328c-0,-14.531 11.797,-26.328 26.328,-26.328c14.531,-0 26.328,11.797 26.328,26.328Z" style="fill:#7e4021;"/><path d="M347.671,1319.84c3.761,14.035 -4.581,28.484 -18.617,32.245c-14.036,3.761 -28.484,-4.581 -32.245,-18.617c-3.761,-14.036 4.581,-28.484 18.616,-32.245c14.036,-3.761 28.485,4.581 32.246,18.617Z" style="fill:#7e4021;"/><path d="M320.886,1208.18c3.761,14.036 -4.581,28.485 -18.616,32.245c-14.036,3.761 -28.485,-4.581 -32.246,-18.616c-3.761,-14.036 4.581,-28.485 18.617,-32.245c14.036,-3.761 28.484,4.581 32.245,18.616Z" style="fill:#7e4021;"/><path d="M468.085,1312.22c6.075,13.2 0.291,28.849 -12.909,34.924c-13.2,6.076 -28.849,0.292 -34.924,-12.908c-6.075,-13.2 -0.291,-28.849 12.909,-34.924c13.2,-6.076 28.849,-0.292 34.924,12.908Z" style="fill:#7e4021;"/><path d="M127.12,940.447c0.038,60.105 17.175,155.014 21.664,178.099c1.756,9.03 10.512,14.935 19.541,13.179c9.03,-1.755 14.935,-10.511 13.18,-19.541c-4.33,-22.266 -21.015,-113.787 -21.052,-171.758c-0.005,-9.199 -7.478,-16.662 -16.677,-16.656c-9.198,0.005 -16.662,7.478 -16.656,16.677Z" style="fill:#7e4021;"/><path d="M196.261,1185.03c0.228,-1.357 0.291,-2.765 0.168,-4.199c-0.787,-9.165 -8.866,-15.967 -18.031,-15.18c-5.416,0.465 -15.685,3.688 -15.774,17.99c-0.055,8.797 13.178,53.927 22.028,97.954c1.813,9.018 10.607,14.868 19.625,13.055c9.018,-1.812 14.868,-10.606 13.055,-19.624c-7.509,-37.358 -19.046,-82.202 -21.071,-89.996Zm-6.762,10.792c-2.348,1.684 -5.165,2.775 -8.25,3.04c3.031,-0.26 5.814,-1.215 8.25,-3.04Z" style="fill:#7e4021;"/><path d="M1677.15,34.317c-422.818,0 -808.228,61.609 -1098.03,162.304c-204.329,70.995 -361.516,161.85 -452.595,263.708c-60.291,67.427 -92.285,140.004 -92.285,215.158c-0,75.155 31.995,147.732 92.287,215.159c91.079,101.858 248.266,192.713 452.593,263.707c289.806,100.695 675.216,162.303 1098.03,162.303c422.817,0 808.227,-61.608 1098.03,-162.303c204.329,-70.995 361.517,-161.85 452.595,-263.708c60.291,-67.427 92.286,-140.004 92.286,-215.158c-0,-75.155 -31.996,-147.732 -92.288,-215.16c-91.078,-101.857 -248.265,-192.712 -452.593,-263.706c-289.806,-100.695 -675.216,-162.304 -1098.03,-162.304Zm-0,50c416.479,0 796.161,60.349 1081.62,159.534c160.889,55.902 291.597,123.961 381.256,200.747c82.692,70.819 130.035,148.441 130.035,230.889c-0,82.449 -47.343,160.071 -130.037,230.89c-89.659,76.786 -220.367,144.845 -381.254,200.746c-285.462,99.185 -665.144,159.533 -1081.62,159.533c-416.479,0 -796.162,-60.348 -1081.62,-159.533c-160.888,-55.902 -291.597,-123.961 -381.256,-200.747c-82.692,-70.82 -130.034,-148.441 -130.034,-230.889c-0,-82.449 47.343,-160.071 130.036,-230.89c89.659,-76.786 220.367,-144.845 381.254,-200.746c285.462,-99.185 665.145,-159.534 1081.62,-159.534Z" style="fill:#fff;"/><path d="M1677.15,0.984c-427.043,0 -816.272,62.449 -1108.97,164.15c-210.837,73.256 -372.524,167.874 -466.503,272.977c-66.411,74.271 -100.771,154.592 -100.771,237.376c0,82.784 34.36,163.106 100.773,237.378c93.979,105.102 255.665,199.719 466.501,272.975c292.702,101.701 681.931,164.15 1108.97,164.15c427.042,-0 816.271,-62.449 1108.97,-164.15c210.836,-73.256 372.523,-167.874 466.502,-272.977c66.412,-74.272 100.771,-154.592 100.771,-237.376c0,-82.785 -34.36,-163.106 -100.772,-237.378c-93.98,-105.102 -255.666,-199.719 -466.501,-272.975c-292.703,-101.701 -681.932,-164.15 -1108.97,-164.15Zm-0,33.333c-422.818,0 -808.228,61.609 -1098.03,162.304c-204.329,70.995 -361.516,161.85 -452.595,263.708c-60.291,67.427 -92.285,140.004 -92.285,215.158c-0,75.155 31.995,147.732 92.287,215.159c91.079,101.858 248.266,192.713 452.593,263.707c289.806,100.695 675.216,162.303 1098.03,162.303c422.817,0 808.227,-61.608 1098.03,-162.303c204.329,-70.995 361.517,-161.85 452.595,-263.708c60.291,-67.427 92.286,-140.004 92.286,-215.158c-0,-75.155 -31.996,-147.732 -92.288,-215.16c-91.078,-101.857 -248.265,-192.712 -452.593,-263.706c-289.806,-100.695 -675.216,-162.304 -1098.03,-162.304Zm-0,50c416.479,0 796.161,60.349 1081.62,159.534c160.889,55.902 291.597,123.961 381.256,200.747c82.692,70.819 130.035,148.441 130.035,230.889c-0,82.449 -47.343,160.071 -130.037,230.89c-89.659,76.786 -220.367,144.845 -381.254,200.746c-285.462,99.185 -665.144,159.533 -1081.62,159.533c-416.479,0 -796.162,-60.348 -1081.62,-159.533c-160.888,-55.902 -291.597,-123.961 -381.256,-200.747c-82.692,-70.82 -130.034,-148.441 -130.034,-230.889c-0,-82.449 47.343,-160.071 130.036,-230.89c89.659,-76.786 220.367,-144.845 381.254,-200.746c285.462,-99.185 665.145,-159.534 1081.62,-159.534Zm-0,33.334c412.253,-0 788.117,59.508 1070.68,157.687c156.266,54.295 283.43,119.998 370.514,194.578c74.027,63.398 118.383,131.762 118.383,205.571c0,73.81 -44.356,142.174 -118.385,205.573c-87.083,74.579 -214.247,140.281 -370.512,194.576c-282.566,98.179 -658.43,157.687 -1070.68,157.687c-412.254,0 -788.118,-59.508 -1070.68,-157.687c-156.267,-54.295 -283.431,-119.998 -370.515,-194.578c-74.027,-63.399 -118.383,-131.762 -118.383,-205.571c-0,-73.81 44.357,-142.174 118.385,-205.573c87.084,-74.579 214.248,-140.281 370.513,-194.576c282.565,-98.179 658.429,-157.687 1070.68,-157.687Z" style="fill:#7e4021;"/></g></svg>