<?xml version="1.0" encoding="UTF-8" standalone="no"?><!DOCTYPE svg PUBLIC "-//W3C//DTD SVG 1.1//EN" "http://www.w3.org/Graphics/SVG/1.1/DTD/svg11.dtd"><svg width="100%" height="100%" viewBox="0 0 3905 2825" version="1.1" xmlns="http://www.w3.org/2000/svg" xmlns:xlink="http://www.w3.org/1999/xlink" xml:space="preserve" xmlns:serif="http://www.serif.com/" style="fill-rule:evenodd;clip-rule:evenodd;stroke-linejoin:round;stroke-miterlimit:2;"><g id="Dough-sheet" serif:id="Dough sheet"><path d="M1953.79,42.939c-122.848,58.144 -141.446,104.154 -303.723,162.841c-264.942,95.817 -458.616,48.336 -712.251,153.602c-94.112,39.06 -186.078,99.29 -248.506,181.021c-95.851,125.489 -43.899,284.109 -127.428,411.86c-142.403,217.792 -377.405,341.196 -487.088,589.904c-154.069,349.354 12.877,715.574 354.895,866.595c159.684,70.509 335.016,99.82 497.21,164.149c164.347,65.181 313.798,202.541 491.057,228.061c317.507,45.711 662.575,-152.612 963.06,-228.061c389.224,-97.731 847.491,-113.093 1174.45,-370.179c278.333,-218.853 245.397,-526.642 244.536,-844.364c-0.751,-277.334 164.898,-595.867 44.461,-863.816c-50.699,-112.795 -157.406,-192.789 -269.744,-237.986c-268.805,-108.149 -554.105,-61.801 -833.249,-98.648c-263.867,-34.83 -597.381,-205.048 -787.678,-114.979Z" style="fill:#ffe6d8;"/><path d="M1946.66,27.874c-122.286,57.879 -140.726,103.814 -302.261,162.233c-131.091,47.409 -244.575,59.25 -356.637,72.377c-114.682,13.434 -227.902,28.201 -356.335,81.505c-96.759,40.158 -191.178,102.267 -255.362,186.297c-49.823,65.229 -61.804,138.878 -71.612,213.013c-9.111,68.865 -16.188,138.158 -56.521,199.844c-70.543,107.889 -164.15,192.283 -253.577,280.622c-91.724,90.609 -179.08,185.307 -234.81,311.677c-157.946,358.144 12.789,733.746 363.412,888.566c159.877,70.595 335.406,99.989 497.798,164.395c81.468,32.311 159.195,82.602 238.572,127.888c81.911,46.732 165.58,88.123 256.254,101.178c161.189,23.206 329.429,-15.131 495.453,-69.246c163.141,-53.176 324.143,-121.51 474.041,-159.148c194.539,-48.847 406.333,-77.101 610.346,-125.275c206.472,-48.755 404.958,-117.922 570.345,-247.966c171.133,-134.562 227.81,-301.744 245.28,-484.437c11.416,-119.376 5.967,-245.427 5.621,-373.074c-0.374,-137.734 40.768,-285.667 66.855,-432.466c26.864,-151.17 37.735,-301.103 -23.859,-438.138c-52.453,-116.697 -162.501,-199.855 -278.725,-246.615c-270.13,-108.682 -556.769,-62.681 -837.288,-99.709c-157.973,-20.853 -340.943,-90.42 -503.074,-123.26c-112.325,-22.751 -214.986,-27.619 -293.916,9.739l0,0Zm14.26,30.129c73.309,-34.697 168.713,-28.329 273.039,-7.198c162.844,32.984 346.66,102.692 505.328,123.636c277.768,36.666 561.729,-10.029 829.209,97.587c108.452,43.634 211.818,120.463 260.764,229.357c58.843,130.914 47.107,274.222 21.443,418.64c-26.441,148.788 -67.748,298.788 -67.369,438.388c0.342,126.531 5.846,251.479 -5.47,369.811c-16.626,173.869 -69.835,333.344 -232.702,461.407c-161.569,127.042 -355.696,194.098 -557.402,241.728c-204.166,48.211 -416.117,76.503 -610.803,125.387c-150.587,37.811 -312.362,106.364 -476.253,159.784c-161.008,52.481 -324.054,90.451 -480.373,67.946c-86.584,-12.466 -166.27,-52.514 -244.486,-97.138c-80.751,-46.07 -159.923,-97.05 -242.801,-129.92c-161.998,-64.25 -337.133,-93.479 -496.623,-163.903c-333.413,-147.221 -496.57,-504.058 -346.377,-844.623c53.952,-122.337 138.939,-213.696 227.737,-301.413c91.096,-89.988 186.191,-176.192 258.05,-286.095c43.197,-66.066 51.909,-139.957 61.667,-213.713c9.061,-68.487 19.029,-136.891 65.057,-197.152c60.672,-79.431 150.186,-137.782 241.65,-175.743c125.202,-51.963 235.637,-66.089 347.436,-79.185c114.42,-13.403 230.244,-25.73 364.095,-74.138c163.018,-58.955 181.775,-105.039 305.184,-163.45l0,0Z" style="fill:#7e4021;"/><circle cx="2076.73" cy="1861.64" r="25" style="fill:#fff;"/><path d="M3017.54,1301.37c-6.899,11.949 -22.201,16.049 -34.15,9.15c-11.95,-6.899 -16.05,-22.201 -9.151,-34.15c6.899,-11.95 22.201,-16.05 34.151,-9.151c11.949,6.899 16.049,22.201 9.15,34.151Z" style="fill:#fff;"/><circle cx="1977.17" cy="2007.94" r="25" style="fill:#fff;"/><path d="M2854.94,1378.58c-6.899,11.95 -22.201,16.05 -34.151,9.151c-11.949,-6.899 -16.049,-22.201 -9.15,-34.151c6.899,-11.949 22.201,-16.049 34.15,-9.15c11.95,6.899 16.05,22.201 9.151,34.15Z" style="fill:#fff;"/><circle cx="2098.84" cy="2065.42" r="25" style="fill:#fff;"/><path d="M2863.53,1275.8c-6.899,11.95 -22.202,16.05 -34.151,9.151c-11.949,-6.899 -16.05,-22.201 -9.151,-34.151c6.899,-11.949 22.202,-16.049 34.151,-9.15c11.949,6.899 16.049,22.201 9.151,34.15Z" style="fill:#fff;"/><circle cx="1868.23" cy="2191.92" r="25" style="fill:#fff;"/><path d="M2977.03,1113.84c-6.899,11.949 -22.202,16.05 -34.151,9.151c-11.949,-6.899 -16.05,-22.202 -9.151,-34.151c6.899,-11.949 22.202,-16.049 34.151,-9.151c11.949,6.899 16.05,22.202 9.151,34.151Z" style="fill:#fff;"/><path d="M2804.33,839.002c-6.899,11.95 -22.201,16.05 -34.151,9.151c-11.949,-6.899 -16.049,-22.201 -9.15,-34.151c6.899,-11.949 22.201,-16.049 34.15,-9.15c11.95,6.899 16.05,22.201 9.151,34.15Z" style="fill:#fff;"/><path d="M2950.43,664.131c-6.899,11.949 -22.201,16.049 -34.151,9.15c-11.949,-6.899 -16.049,-22.201 -9.15,-34.15c6.899,-11.95 22.201,-16.05 34.15,-9.151c11.95,6.899 16.05,22.201 9.151,34.151Z" style="fill:#fff;"/><circle cx="1669.38" cy="1944.18" r="25" style="fill:#fff;"/><path d="M3183.25,964.494c-6.899,11.95 -22.201,16.05 -34.151,9.151c-11.949,-6.899 -16.049,-22.201 -9.15,-34.151c6.899,-11.949 22.201,-16.049 34.15,-9.15c11.95,6.899 16.05,22.201 9.151,34.15Z" style="fill:#fff;"/><circle cx="1652.65" cy="1770.67" r="25" style="fill:#fff;"/><path d="M3495.45,1280.69c-6.899,11.949 -22.202,16.049 -34.151,9.15c-11.949,-6.899 -16.049,-22.201 -9.151,-34.15c6.899,-11.95 22.202,-16.05 34.151,-9.151c11.949,6.899 16.05,22.201 9.151,34.151Z" style="fill:#fff;"/><path d="M3774.45,965.617c-3.752,16.622 -7.375,33.273 -11.135,49.894c-8.344,36.88 -15.55,73.888 -22.007,111.141c-1.571,9.063 4.512,17.697 13.575,19.268c9.064,1.571 17.698,-4.512 19.269,-13.575c6.36,-36.696 13.456,-73.15 21.675,-109.479c3.788,-16.745 7.437,-33.519 11.217,-50.264c0.138,-0.61 0.303,-1.79 0.445,-2.983c2.731,-5.455 2.353,-12.219 -1.545,-17.438c-4.358,-5.835 -9.343,-6.77 -12.669,-6.995c-4.819,-0.326 -9.488,1.077 -13.465,5.279c-1.213,1.283 -2.533,3.064 -3.527,5.511c-0.686,1.687 -1.656,8.386 -1.833,9.641Zm7.425,9.306l0.107,0.084l-0.408,-0.345l0.301,0.261Zm-0.374,-0.324c-0.821,-0.732 -1.58,-1.557 -2.263,-2.471c0.737,0.987 1.499,1.8 2.263,2.471Z" style="fill:#7e4021;"/><path d="M3761.89,1201.13c2.323,-7.817 -1.397,-16.365 -9.021,-19.869c-3.651,-1.679 -18.853,-5.067 -23.241,11.151c-0.747,2.762 -2.162,17.773 -2.261,19.068c-1.2,15.788 -2.17,31.597 -3.306,47.391c-0.66,9.175 6.254,17.159 15.428,17.819c9.175,0.66 17.16,-6.253 17.82,-15.428c1.133,-15.748 2.099,-31.512 3.296,-47.255c0.057,-0.759 1.031,-10.374 1.285,-12.877Zm-9.02,10.409c-4.264,1.963 -9.327,2.121 -13.922,0.009c4.538,2.086 9.194,2.27 13.922,-0.009Z" style="fill:#7e4021;"/><path d="M120.115,1670.96c-1.103,-2.323 0.02,-6.012 0.861,-10.709c1.493,-8.342 4.511,-18.404 8.459,-29.461c19.743,-55.3 62.349,-133.506 73.398,-152.908c4.551,-7.994 1.757,-18.179 -6.236,-22.731c-7.994,-4.551 -18.179,-1.757 -22.731,6.236c-11.427,20.067 -55.404,100.999 -75.824,158.195c-6.736,18.869 -10.878,35.454 -11.275,47.119c-0.261,7.681 1.036,13.921 3.237,18.556c3.945,8.309 13.895,11.852 22.204,7.907c8.309,-3.946 11.852,-13.895 7.907,-22.204Z" style="fill:#7e4021;"/><path d="M243.698,1412.12c3.478,-4.38 20.083,-25.299 22.132,-27.957c5.615,-7.286 4.259,-17.76 -3.027,-23.375c-7.286,-5.616 -17.76,-4.259 -23.375,3.027c-2.663,3.454 -20.574,23.336 -25.984,33.813c-5.061,9.799 -2.94,17.926 -0.401,21.919c4.936,7.762 15.245,10.057 23.007,5.121c4.527,-2.879 7.195,-7.585 7.648,-12.548Zm-2.124,-9.789c-0.129,-0.228 -0.264,-0.451 -0.403,-0.67l0.403,0.67Z" style="fill:#7e4021;"/><path d="M837.886,2483.22c78.051,11.752 234.066,35.445 456.321,212.122c45.849,36.447 110.712,49.842 180.883,50.43c100.203,0.838 211.345,-23.998 288.01,-37.026c9.069,-1.541 15.18,-10.155 13.639,-19.224c-1.541,-9.068 -10.155,-15.18 -19.223,-13.639c-75.114,12.765 -183.972,37.378 -282.147,36.556c-62.081,-0.519 -119.857,-10.946 -160.42,-43.191c-229.853,-182.717 -391.38,-206.836 -472.1,-218.99c-9.096,-1.37 -17.593,4.903 -18.962,13.999c-1.37,9.096 4.903,17.593 13.999,18.963Z" style="fill:#fff;"/><path d="M1831.83,2689.94c17.589,-4.598 52.763,-13.809 83.913,-25.03c39.225,-14.13 81.659,-28.683 123.379,-51.099c8.103,-4.354 11.146,-14.468 6.793,-22.571c-4.354,-8.103 -14.468,-11.146 -22.57,-6.793c-40.189,21.594 -81.114,35.491 -118.899,49.102c-30.082,10.837 -64.059,19.701 -81.046,24.141c-8.9,2.326 -14.236,11.44 -11.91,20.34c2.326,8.899 11.44,14.236 20.34,11.91Z" style="fill:#fff;"/></g></svg>