<?xml version="1.0" encoding="UTF-8" standalone="no"?><!DOCTYPE svg PUBLIC "-//W3C//DTD SVG 1.1//EN" "http://www.w3.org/Graphics/SVG/1.1/DTD/svg11.dtd"><svg width="100%" height="100%" viewBox="0 0 1936 1641" version="1.1" xmlns="http://www.w3.org/2000/svg" xmlns:xlink="http://www.w3.org/1999/xlink" xml:space="preserve" xmlns:serif="http://www.serif.com/" style="fill-rule:evenodd;clip-rule:evenodd;stroke-linejoin:round;stroke-miterlimit:2;"><g id="Egg-Half-01"><path d="M522.038,61.945c438.386,-162.691 1067.62,399.234 1379.25,896.078c11.227,17.899 -363.806,152.359 -363.806,152.359l-474.368,-114.521l-236.954,316.91l-325.525,-10.574c-0,0 -439.668,339.649 -445.664,293.985c-75.806,-577.246 39.819,-1375.68 467.064,-1534.24Z" style="fill:#ffe6d8;"/><path d="M510.441,30.694c-200.492,74.405 -337.777,281.793 -418.278,544.427c-95.809,312.579 -112.577,703.005 -70.239,1025.4c2.165,16.49 11.285,26.802 26.74,31.449c6.336,1.905 15.749,2.766 27.751,-0.417c10.126,-2.687 24.919,-9.131 42.922,-19.011c103.963,-57.052 341.663,-237.961 392.145,-276.643c-0.001,0.001 313.599,10.187 313.599,10.187c10.885,0.353 21.256,-4.633 27.778,-13.355l223.795,-299.312c0,0 453.008,109.365 453.008,109.365c6.321,1.526 12.951,1.17 19.072,-1.025c0,-0 245.882,-88.251 335.536,-131.977c21.71,-10.588 35.877,-20.484 40.904,-26.186c14.992,-17.004 10.953,-32.767 4.355,-43.286c-174.488,-278.186 -447.306,-576.369 -731.376,-759.958c-237.181,-153.286 -482.772,-225.715 -687.712,-149.659l-0,0Zm11.597,31.251c438.386,-162.691 1067.62,399.234 1379.25,896.078c11.227,17.899 -363.806,152.359 -363.806,152.359l-474.368,-114.521l-236.954,316.91l-325.525,-10.574c-0,0 -439.668,339.649 -445.664,293.985c-75.806,-577.246 39.819,-1375.68 467.064,-1534.24Z" style="fill:#7e4021;"/><path d="M59.556,1605.91c161.653,16.47 464.798,-154.064 464.798,-154.064l353.315,10.943l395.245,-261.507l327.003,0.279c-0,0 273.047,-184.739 301.374,-243.54c11.227,17.899 -363.806,152.359 -363.806,152.359l-474.368,-114.521l-236.954,316.91l-325.525,-10.574c-0,0 -273.616,227.178 -441.082,303.715Z" style="fill:#ebccb8;"/><path d="M1873.29,939.951c5.727,-8.896 15.417,-14.613 26.144,-15.21c12.117,-0.675 23.643,5.289 30.092,15.57c6.598,10.519 10.637,26.282 -4.355,43.286c-0.616,0.699 -1.37,1.461 -2.259,2.278c-15.447,20.866 -45.626,49.848 -82.531,80.13c-90.898,74.583 -221.788,163.166 -221.788,163.166c-5.523,3.737 -12.039,5.731 -18.708,5.726c0,-0 -316.958,-0.271 -316.958,-0.271l-386.868,255.964c-5.749,3.804 -12.535,5.731 -19.425,5.518c0,-0 -344.202,-10.66 -344.202,-10.661c-31.553,17.165 -148.719,79.066 -268.455,118.955c-74.288,24.749 -149.659,40.595 -207.803,34.672c-14.968,-1.525 -27.059,-12.889 -29.509,-27.734c-2.451,-14.845 5.348,-29.491 19.032,-35.745c53.078,-24.258 117.046,-64.172 179.271,-106.827c131.133,-89.891 254.373,-192.216 254.373,-192.216c6.271,-5.206 14.231,-7.935 22.376,-7.67c-0,-0 308.154,10.009 308.154,10.009c45.728,-61.157 226.547,-302.991 226.547,-302.991c7.983,-10.677 21.559,-15.57 34.518,-12.442c0,0 397.095,95.867 464.655,112.176c45.207,-16.329 241.944,-87.968 319.452,-125.771c6.653,-3.245 14.037,-7.445 18.247,-9.912Zm24.961,23.437c2.722,-2.299 3.82,-4.116 3.037,-5.365c-0.813,1.687 -1.828,3.478 -3.037,5.365c-36.264,30.65 -360.769,146.994 -360.769,146.994l-474.368,-114.521l-236.954,316.91l-325.525,-10.574c-0,0 -273.616,227.178 -441.082,303.715c161.653,16.47 464.798,-154.064 464.798,-154.064l353.315,10.943l395.245,-261.507l327.003,0.279c-0,0 257.599,-174.287 298.337,-238.175Z" style="fill:#7e4021;"/><path d="M492.486,181.823c15.44,-20.311 44.807,-34.088 75.851,-44.055c49.507,-15.896 103.97,-21.201 122.416,-20.36c9.189,0.419 16.99,-6.701 17.409,-15.89c0.419,-9.189 -6.701,-16.99 -15.89,-17.409c-20.201,-0.921 -79.908,4.513 -134.125,21.921c-38.108,12.236 -73.245,30.688 -92.197,55.621c-5.567,7.323 -4.141,17.787 3.182,23.354c7.323,5.567 17.788,4.141 23.354,-3.182Z" style="fill:#7e4021;"/><path d="M765.347,116.13c19.502,0.021 73.874,15.24 84.646,18.022c8.906,2.301 18.005,-3.062 20.305,-11.968c2.301,-8.907 -3.062,-18.005 -11.968,-20.306c-11.811,-3.05 -71.564,-19.058 -92.946,-19.082c-9.198,-0.01 -16.675,7.45 -16.685,16.648c-0.01,9.199 7.45,16.675 16.648,16.686Z" style="fill:#7e4021;"/></g></svg>