<?xml version="1.0" encoding="UTF-8" standalone="no"?><!DOCTYPE svg PUBLIC "-//W3C//DTD SVG 1.1//EN" "http://www.w3.org/Graphics/SVG/1.1/DTD/svg11.dtd"><svg width="100%" height="100%" viewBox="0 0 1808 2350" version="1.1" xmlns="http://www.w3.org/2000/svg" xmlns:xlink="http://www.w3.org/1999/xlink" xml:space="preserve" xmlns:serif="http://www.serif.com/" style="fill-rule:evenodd;clip-rule:evenodd;stroke-linejoin:round;stroke-miterlimit:2;"><g id="Egg-Small"><path d="M904.177,17.591c489.637,0 887.16,938.526 887.16,1428.16c-0,489.637 -397.523,887.159 -887.16,887.159c-489.636,0 -887.159,-397.522 -887.159,-887.159c0,-489.636 397.523,-1428.16 887.159,-1428.16Z" style="fill:#f7bf9a;"/><path d="M904.177,0.925c-215.666,-0 -415.147,176.263 -570.928,418.965c-203.145,316.495 -332.897,744.624 -332.897,1025.86c-0,249.418 101.245,475.376 264.847,638.979c163.603,163.602 389.561,264.847 638.978,264.847c249.418,-0 475.376,-101.245 638.979,-264.847c163.602,-163.603 264.847,-389.561 264.847,-638.979c0,-281.239 -129.752,-709.368 -332.897,-1025.86c-155.781,-242.702 -355.262,-418.965 -570.929,-418.965Zm0,33.333c206.022,-0 394.063,171.789 542.877,403.637c199.612,310.991 327.616,731.51 327.616,1007.86c-0,240.219 -97.516,457.84 -255.084,615.408c-157.568,157.568 -375.19,255.085 -615.409,255.085c-240.218,-0 -457.84,-97.517 -615.408,-255.085c-157.568,-157.568 -255.084,-375.189 -255.084,-615.408c0,-276.348 128.004,-696.867 327.616,-1007.86c148.814,-231.848 336.855,-403.637 542.876,-403.637Z" style="fill:#7e4021;"/><path d="M1499.86,1967.61c15.452,-13.611 28.457,-29.497 41.359,-45.477c46.622,-57.749 80.736,-112.728 106.551,-182.428c3.195,-8.626 -1.215,-18.223 -9.84,-21.418c-8.626,-3.195 -18.223,1.215 -21.418,9.841c-24.499,66.147 -56.983,118.261 -101.229,173.066c-11.718,14.514 -23.422,29.041 -37.456,41.403c-6.902,6.081 -7.57,16.621 -1.49,23.524c6.081,6.902 16.621,7.569 23.523,1.489Z" style="fill:#7e4021;"/><path d="M1673.35,1667.92c8.865,-27.343 14.158,-55.98 15.569,-84.656c0.452,-9.188 -6.641,-17.014 -15.828,-17.466c-9.188,-0.452 -17.013,6.641 -17.465,15.828c-1.267,25.749 -6.024,51.462 -13.984,76.014c-2.837,8.75 1.963,18.157 10.714,20.994c8.75,2.837 18.157,-1.964 20.994,-10.714Z" style="fill:#7e4021;"/></g></svg>