<?xml version="1.0" encoding="UTF-8" standalone="no"?><!DOCTYPE svg PUBLIC "-//W3C//DTD SVG 1.1//EN" "http://www.w3.org/Graphics/SVG/1.1/DTD/svg11.dtd"><svg width="100%" height="100%" viewBox="0 0 2116 1846" version="1.1" xmlns="http://www.w3.org/2000/svg" xmlns:xlink="http://www.w3.org/1999/xlink" xml:space="preserve" xmlns:serif="http://www.serif.com/" style="fill-rule:evenodd;clip-rule:evenodd;stroke-linejoin:round;stroke-miterlimit:2;"><g id="Egg-Half-02"><path d="M207.368,191.163l505.896,188.182l292.179,-189.473l412.346,160.44l225.539,-89.046l275.536,429.327l163.54,48.634c-0,0 -22.5,226.757 -46.931,317.937c-145.456,542.847 -704.27,865.478 -1247.12,720.023c-542.846,-145.456 -865.478,-704.27 -720.023,-1247.12c27.507,-102.657 139.035,-338.907 139.035,-338.907Z" style="fill:#ffe6d8;"/><path d="M218.989,159.921c-16.227,-6.036 -34.374,1.356 -41.765,17.012c0,0 -48.537,102.821 -89.682,202.675c-21.922,53.203 -41.701,105.614 -51.406,141.835c-75.109,280.31 -29.371,564.742 105.228,797.874c134.599,233.132 358.056,414.959 638.365,490.067c280.31,75.109 564.742,29.371 797.874,-105.228c233.132,-134.599 414.959,-358.055 490.067,-638.365c8.595,-32.076 17.032,-80.424 24.319,-130.21c13.749,-93.942 23.585,-193.063 23.585,-193.063c1.578,-15.902 -8.352,-30.686 -23.669,-35.241c0,-0 -114.069,-33.923 -151.674,-45.106c-0,0 -268.85,-418.909 -268.85,-418.909c-8.601,-13.402 -25.481,-18.848 -40.294,-13l-213.387,84.248c-0,-0 -400.17,-155.703 -400.17,-155.703c-9.987,-3.886 -21.233,-2.733 -30.224,3.097l-278.123,180.359c0,-0 -490.194,-182.342 -490.194,-182.342Zm-11.621,31.242l505.896,188.182l292.179,-189.473l412.346,160.44l225.539,-89.046l275.536,429.327l163.54,48.634c-0,0 -22.5,226.757 -46.931,317.937c-145.456,542.847 -704.27,865.478 -1247.12,720.023c-542.846,-145.456 -865.478,-704.27 -720.023,-1247.12c27.507,-102.657 139.035,-338.907 139.035,-338.907Z" style="fill:#7e4021;"/><path d="M207.368,191.163l505.896,188.182l292.179,-189.473l412.346,160.44l225.539,-89.046l275.536,429.327l163.54,48.634l-59.157,-166.339l-189.814,-122.325l-159.307,-331.826l-246.71,76.132l-364.351,-161.37l-384.154,178.649l-268.632,-73.879l-202.911,52.894Z" style="fill:#ebccb8;"/><path d="M198.959,158.908c-14.076,3.669 -24.147,16.043 -24.882,30.571c-0.735,14.528 8.036,27.855 21.669,32.926l505.896,188.182c9.879,3.675 20.914,2.461 29.758,-3.274c0,-0 219.157,-142.12 277.86,-180.188c0,-0 396.442,154.252 396.442,154.252c7.827,3.045 16.515,3.024 24.327,-0.061l200.049,-78.981c-0,-0 260.733,406.262 260.733,406.262c4.314,6.721 10.897,11.67 18.551,13.947l163.54,48.634c12.029,3.577 25.047,0.095 33.684,-9.009c8.637,-9.104 11.429,-22.287 7.224,-34.111l-59.157,-166.339c-2.467,-6.937 -7.161,-12.862 -13.35,-16.85l-181.896,-117.223c-24.881,-51.825 -155.231,-323.336 -155.231,-323.336c-7.144,-14.882 -24.105,-22.292 -39.879,-17.425l-234.789,72.454c-0,0 -352.944,-156.318 -352.944,-156.318c-8.791,-3.893 -18.836,-3.801 -27.554,0.253l-373.059,173.489c-0,-0 -256.833,-70.634 -256.833,-70.634c-5.639,-1.551 -11.587,-1.591 -17.247,-0.116c0,0 -202.912,52.895 -202.912,52.895Zm8.409,32.255l505.896,188.182l292.179,-189.473l412.346,160.44l225.539,-89.046l275.536,429.327l163.54,48.634l-59.157,-166.339l-189.814,-122.325l-159.307,-331.826l-246.71,76.132l-364.351,-161.37l-384.154,178.649l-268.632,-73.879l-202.911,52.894Z" style="fill:#7e4021;"/><path d="M1951.38,1004.9c-14.42,58.034 -33.009,121.278 -55.248,177.358c-3.391,8.551 0.798,18.246 9.349,21.637c8.551,3.391 18.246,-0.798 21.637,-9.349c22.773,-57.428 41.845,-122.179 56.611,-181.608c2.218,-8.927 -3.229,-17.975 -12.156,-20.193c-8.927,-2.219 -17.975,3.228 -20.193,12.155Z" style="fill:#7e4021;"/><path d="M1865.63,1248.98c-3.323,7.165 -7.186,14.091 -11.1,20.946c-11.68,20.456 -24.195,40.552 -37.806,59.78c-5.314,7.508 -3.534,17.919 3.974,23.233c7.508,5.315 17.919,3.534 23.233,-3.974c14.234,-20.109 27.332,-41.118 39.547,-62.512c4.378,-7.669 8.674,-15.433 12.392,-23.449c3.87,-8.345 0.236,-18.262 -8.109,-22.132c-8.345,-3.87 -18.261,-0.237 -22.131,8.108Z" style="fill:#7e4021;"/></g></svg>