<?xml version="1.0" encoding="UTF-8" standalone="no"?><!DOCTYPE svg PUBLIC "-//W3C//DTD SVG 1.1//EN" "http://www.w3.org/Graphics/SVG/1.1/DTD/svg11.dtd"><svg width="100%" height="100%" viewBox="0 0 1268 3902" version="1.1" xmlns="http://www.w3.org/2000/svg" xmlns:xlink="http://www.w3.org/1999/xlink" xml:space="preserve" xmlns:serif="http://www.serif.com/" style="fill-rule:evenodd;clip-rule:evenodd;stroke-linejoin:round;stroke-miterlimit:2;"><g id="Flavor-drops" serif:id="Flavor drops"><path d="M331.637,799.132c-56.293,14.349 -108.982,34.351 -102.624,156.811c8.835,170.158 -3.644,366.582 -14.125,398.025c-8.594,25.783 -21.494,42.953 -21.139,73.102c0.213,18.105 4.106,51.91 18.744,64.875c96.019,85.045 727.487,106.736 801.202,16.64c20.903,-25.547 18.215,-77.142 12.728,-102.389c-4.911,-22.598 -26.954,-31.933 -30.647,-51.591c-4.429,-23.579 3.619,-65.095 4.073,-89.88c1.724,-94.084 33.548,-370.246 -42.561,-441.363c-88.48,-82.676 -502.883,-55.524 -625.651,-24.23Z" style="fill:#ffce7b;"/><path d="M327.52,782.981c-31.446,8.016 -61.521,18.323 -83.211,43.016c-21.4,24.362 -35.444,63.316 -31.94,130.81c8.698,167.527 -2.973,360.933 -13.292,391.891c-9.215,27.643 -22.374,46.243 -21.993,78.568c0.142,12.069 1.811,30.409 6.592,46.267c3.851,12.775 9.907,23.927 17.767,30.889c21.496,19.04 67.836,35.989 128.888,48.594c134.934,27.858 344.029,37.932 497.41,24.383c57.336,-5.065 107,-13.483 142.483,-25.314c26.812,-8.94 46.068,-20.354 56.371,-32.946c10.123,-12.373 16.1,-29.629 18.694,-48.034c3.516,-24.938 1.021,-51.88 -2.579,-68.449c-3.103,-14.276 -11.139,-24.638 -19.461,-34.26c-4.613,-5.334 -9.799,-9.983 -11.093,-16.868c-4.263,-22.697 3.92,-62.64 4.357,-86.497c1.217,-66.407 17.121,-222.774 0.342,-335.214c-7.796,-52.246 -23.227,-95.309 -48.188,-118.633c-28.281,-26.426 -87.41,-43.585 -160.431,-51.988c-161.948,-18.637 -393.687,1.602 -480.716,23.785l-0,0Zm8.233,32.301c84.847,-21.628 310.786,-41.141 468.672,-22.971c64.057,7.372 116.675,20.047 141.484,43.228c10.472,9.786 18.278,24.256 24.484,41.706c10.388,29.207 15.896,66.348 18.624,106.24c7.073,103.398 -4.802,224.773 -5.832,280.935c-0.471,25.712 -8.384,68.801 -3.789,93.262c2.019,10.748 7.625,19.466 14.567,27.763c5.992,7.162 13.856,13.624 16.174,24.29c2.983,13.729 5.058,36.053 2.145,56.717c-1.691,11.999 -4.886,23.513 -11.486,31.579c-10.286,12.572 -33.564,21.482 -64.851,29.236c-52.895,13.108 -127.478,20.228 -208.871,22.213c-143.411,3.499 -307.863,-9.041 -413.179,-34.259c-42.119,-10.086 -74.389,-21.614 -90.351,-35.752c-3.854,-3.413 -6.065,-9.294 -7.954,-15.557c-3.826,-12.691 -5.062,-27.381 -5.175,-37.038c-0.33,-27.976 12.31,-43.711 20.285,-67.635c10.643,-31.93 23.929,-231.37 14.958,-404.16c-2.855,-54.973 6.264,-87.241 23.695,-107.084c17.139,-19.513 41.551,-26.379 66.4,-32.713l0,-0Z" style="fill:#7e4021;"/><path d="M232.954,1366.11c15.063,2.543 30.094,5.284 45.208,7.523c40.853,6.052 82.009,10.342 123.189,13.346c104.796,7.643 209.527,0.094 314.343,-3.974c91.005,-3.532 183.2,-3.605 273.987,-10.302c9.174,-0.677 16.072,-8.674 15.395,-17.848c-0.676,-9.174 -8.674,-16.072 -17.847,-15.395c-90.403,6.669 -182.209,6.72 -272.828,10.237c-103.577,4.02 -207.068,11.59 -310.625,4.037c-40.358,-2.944 -80.692,-7.143 -120.729,-13.074c-14.892,-2.207 -29.701,-4.912 -44.543,-7.418c-9.071,-1.531 -17.678,4.589 -19.209,13.659c-1.532,9.07 4.589,17.678 13.659,19.209Z" style="fill:#7e4021;"/><path d="M344.851,791.382c25.573,-60.143 43.161,-127.597 45.122,-193.511c4.818,-162.018 -58.175,-599.444 240.17,-579.754c235.566,15.546 203.53,388.049 217.202,577.784c4.914,68.189 24.041,145.707 53.104,190.726c1.866,2.89 -90.822,-14.57 -156.578,-18.116c-123.595,-6.664 -276.395,5.559 -399.02,22.871Z" style="fill:#edaf5f;"/><path d="M329.513,784.86c-2.352,5.531 -1.543,11.899 2.115,16.668c3.659,4.768 9.602,7.197 15.553,6.357c121.634,-17.172 273.196,-29.342 395.792,-22.731c59.187,3.191 140.192,17.653 154.441,18.407c9.661,0.511 14.323,-4.405 15.463,-5.68c2.989,-3.345 4.246,-7.107 4.267,-11.087c0.014,-2.797 -0.593,-5.956 -2.692,-9.207c-27.851,-43.141 -45.774,-117.539 -50.483,-182.884c-8.284,-114.95 -0.346,-296.297 -43.733,-426.406c-30.92,-92.723 -87.287,-160.098 -188.995,-166.811c-128.678,-8.492 -195.296,61.48 -228.912,160.163c-47.296,138.845 -26.092,337.406 -29.016,435.726c-1.899,63.868 -19.021,129.21 -43.8,187.485Zm540.96,-18.909c-32.817,-4.757 -86.982,-11.994 -125.705,-14.082c-115.223,-6.213 -255.627,3.819 -373.864,19.165c20.46,-54.881 33.994,-114.366 35.728,-172.668c2.858,-96.102 -18.979,-290.256 27.25,-425.969c28.736,-84.357 85.165,-144.909 195.164,-137.65c86.747,5.725 133.197,65.011 159.568,144.095c42.55,127.598 33.984,305.525 42.108,418.257c4.157,57.686 18.346,121.706 39.751,168.852Z" style="fill:#7e4021;"/><path d="M547.314,123.605c4.204,-1.289 7.892,-4.232 10.011,-8.473c4.111,-8.229 0.769,-18.248 -7.46,-22.359c-4.12,-2.058 -10.164,-3.081 -16.984,0.31c-4.694,2.334 -12.426,10.16 -14.073,11.722c-44.481,42.18 -53.504,91.414 -61.493,149.622c-1.251,9.113 5.132,17.527 14.245,18.778c9.113,1.251 17.528,-5.133 18.779,-14.246c6.902,-50.291 12.974,-93.523 51.405,-129.966l5.57,-5.388Z" style="fill:#7e4021;"/><path d="M450.19,321.786c-10.187,24.079 -6.254,64.252 -7.506,90.128c-0.445,9.188 6.654,17.008 15.841,17.453c9.188,0.444 17.009,-6.654 17.453,-15.842c0.594,-12.274 -0.231,-27.955 -0.014,-43.423c0.181,-12.947 0.881,-25.769 4.925,-35.33c3.584,-8.471 -0.385,-18.259 -8.856,-21.843c-8.472,-3.584 -18.26,0.385 -21.843,8.857Z" style="fill:#7e4021;"/><path d="M469.496,1338.26c-0.333,-0.508 -0.647,-1.022 -0.895,-1.492c-2.174,-4.11 -4.016,-9.192 -5.663,-14.719c-7.113,-23.879 -10.129,-55.297 -11.06,-64.601c-11.229,-112.296 -1.654,-225.568 -11.738,-337.82c-1.599,-17.799 -5.878,-73.295 -23.159,-102.775c-10.752,-18.343 -26.048,-28.155 -45.427,-25.227c-18.872,2.851 -32.634,16.726 -41.398,35.992c-10.09,22.182 -13.573,51.639 -15.517,67.969c-12.603,105.869 -6.38,215.385 -4.701,321.666c0.509,32.195 1.045,64.393 1.717,96.586c0.194,9.273 0.357,18.556 0.763,27.822c0.088,2.022 1.151,6.421 2.055,9.839c-1.622,7.104 1.59,14.706 8.307,18.347c6.646,3.603 11.744,2.413 15,1.171c4.53,-1.729 8.209,-4.969 10.133,-10.453c0.775,-2.207 1.447,-5.789 0.643,-10.305c-0.462,-2.602 -2.528,-9.557 -2.86,-10.666c-0.378,-8.81 -0.531,-17.635 -0.715,-26.45c-0.67,-32.137 -1.206,-64.279 -1.713,-96.418c-1.656,-104.804 -7.958,-212.801 4.471,-317.199c1.659,-13.934 4.149,-39.179 12.759,-58.107c3.714,-8.166 8.037,-15.627 16.035,-16.835c3.701,-0.559 6.312,1.739 8.654,4.653c3.218,4.004 5.772,9.251 7.994,15.071c10.273,26.907 12.552,64.867 13.759,78.301c10.094,112.364 0.53,225.748 11.77,338.155c1.207,12.061 5.918,57.496 16.945,84.132c7.562,18.265 19.748,28.294 31.577,28.898c7.716,0.394 15.165,-2.191 21.961,-8.026c6.291,-5.402 12.316,-14.354 17.359,-25.754c15.66,-35.406 24.084,-97.393 25.686,-111.377c13.049,-113.908 2.563,-229.469 15.188,-343.479c1.541,-13.916 3.541,-42.726 12.14,-64.702c3.757,-9.601 7.864,-18.563 16.438,-20.005c1.136,-0.191 1.834,0.801 2.669,1.663c1.298,1.339 2.468,2.994 3.587,4.856c3.408,5.669 6.137,12.963 8.477,20.999c9.973,34.258 12.102,81.004 12.387,91.898c2.907,111.176 -9.378,223.232 4.391,334.071c2.071,16.671 4.679,57.189 15.884,83.551c6.654,15.654 16.616,26.763 28.786,31.018c8.353,2.92 16.607,2.105 24.627,-2.214c7.537,-4.059 15.268,-12.167 22.073,-23.384c20.208,-33.313 35.526,-97.315 38.372,-110.058c24.45,-109.461 18.011,-222.338 35.821,-332.638c2.328,-14.415 6.09,-45.221 15.475,-69.273c2.634,-6.754 5.675,-12.936 9.455,-17.711c1.295,-1.636 2.628,-3.125 4.109,-4.256c0.647,1.111 1.333,2.386 1.804,3.508c2.082,4.955 3.798,11.01 5.282,17.606c7.083,31.473 8.505,74.31 8.612,82.036c1.49,108.022 -15.106,216.868 -2.74,324.635c1.819,15.847 6.675,64.555 20.381,93.433c8.549,18.011 21.194,28.881 35.416,30.194c15.968,1.474 31.764,-9.803 43.064,-31.326c18.011,-34.304 28.1,-95.788 31.621,-112.346c26.357,-123.933 18.369,-265.346 24.906,-391.181c0.477,-9.186 -6.593,-17.031 -15.78,-17.508c-9.186,-0.478 -17.031,6.593 -17.508,15.779c-6.45,124.154 1.783,263.699 -24.222,385.976c-2.82,13.262 -9.811,57.458 -22.381,89.993c-3.596,9.308 -7.544,17.595 -12.22,23.331c-0.944,1.159 -1.903,2.188 -2.915,3.023c-0.536,0.442 -0.878,1.124 -1.501,1.067c-1.771,-0.163 -2.689,-2.013 -3.968,-3.729c-3.526,-4.732 -6.277,-11.217 -8.676,-18.385c-8.65,-25.846 -11.697,-59.891 -13.101,-72.121c-12.239,-106.659 4.428,-214.383 2.954,-321.294c-0.136,-9.879 -2.518,-72.092 -14.118,-105.838c-4.081,-11.874 -9.707,-20.758 -15.669,-25.594c-7.129,-5.784 -15.148,-7.706 -24.005,-5.379c-13.681,3.594 -25.192,14.512 -33.604,30.25c-14.724,27.549 -20.549,71.039 -23.578,89.796c-17.705,109.647 -11.141,221.873 -35.445,330.686c-2.583,11.563 -16.003,69.807 -34.34,100.035c-1.904,3.139 -3.841,5.926 -5.859,8.192c-0.756,0.849 -1.948,1.853 -2.763,2.502c-1.55,-1.05 -2.741,-2.778 -3.954,-4.651c-2.993,-4.618 -5.252,-10.49 -7.146,-16.853c-6.867,-23.068 -8.458,-52.01 -10.07,-64.981c-13.635,-109.764 -1.269,-220.736 -4.148,-330.833c-0.367,-14.047 -3.983,-81.948 -20.387,-119.026c-10.418,-23.548 -26.819,-35.546 -45.582,-32.391c-19.363,3.256 -33.468,19.049 -41.952,40.73c-9.738,24.887 -12.485,57.421 -14.23,73.18c-12.62,113.968 -2.129,229.487 -15.174,343.354c-1.461,12.756 -8.768,69.389 -23.054,101.687c-1.985,4.488 -4.065,8.435 -6.376,11.488l-0.195,0.241Zm-132.227,1.61l0.52,0.233l-0.166,-0.084l-0.354,-0.149Zm-2.76,-0.905c0.848,0.196 1.688,0.461 2.512,0.801c-0.872,-0.364 -1.71,-0.624 -2.512,-0.801Z" style="fill:#7e4021;"/><path d="M271.882,1529.09c-12.344,37.653 -34.53,65.426 -60.208,90.861c-44.632,44.211 -106.414,58.248 -138.542,116.661c-91.589,166.527 -45.489,1492.55 -39.28,1667.96c12.646,357.247 23.667,399.965 413.928,461.395c168.444,26.515 377.493,32.354 540.249,-29.648c259.69,-98.929 270.816,-200.711 260.569,-455.606c-5.837,-145.196 -15.453,-1521.55 -99.841,-1643.66c-32.11,-46.464 -74.087,-65.594 -120.561,-93.914c-26.086,-15.896 -65.71,-67.698 -78.547,-95.767c-92.016,11.847 -243.806,20.618 -322.217,19.801c-118.93,-1.239 -238.487,-21.049 -355.55,-38.076Z" style="fill:#d89370;"/><path d="M274.281,1512.6c-8.018,-1.167 -15.712,3.602 -18.236,11.3c-11.46,34.955 -32.262,60.601 -56.1,84.213c-21.491,21.288 -47.223,35.154 -71.338,50.887c-27.271,17.793 -52.584,37.776 -70.078,69.583c-11.581,21.056 -21.488,59.597 -29.214,111.633c-11.066,74.533 -18.366,177.826 -22.886,296.329c-17.488,458.462 6.416,1145.71 10.767,1268.62c3.192,90.175 6.337,160.498 15.333,216.234c9.487,58.782 25.656,101.997 53.938,135.547c28.283,33.552 68.872,57.696 128.625,77.105c56.745,18.431 131.428,32.852 230.096,48.383c171.109,26.934 383.443,32.446 548.774,-30.537c107.695,-41.027 173.787,-83.116 214.092,-135.059c60.311,-77.725 63.556,-178.616 57.198,-336.791c-4.674,-116.25 -11.807,-1021.06 -57.699,-1440.91c-6.971,-63.775 -14.863,-116.495 -23.727,-153.818c-6.476,-27.272 -13.859,-46.889 -21.358,-57.741c-33.559,-48.561 -77.027,-69.072 -125.6,-98.671c-24.031,-14.644 -60.237,-62.608 -72.062,-88.465c-3.037,-6.641 -10.043,-10.531 -17.285,-9.599c-91.359,11.762 -242.064,20.476 -319.915,19.665c-118.189,-1.231 -236.992,-20.982 -353.325,-37.903Zm8.581,34.941c113.516,16.655 229.251,35.094 344.396,36.294c75.76,0.789 219.534,-7.303 312.924,-18.497c17.612,31.222 54.352,76.801 79.341,92.029c44.377,27.042 84.862,44.79 115.522,89.157c6.004,8.687 11.165,24.661 16.35,46.492c8.627,36.33 16.236,87.659 23.022,149.738c45.819,419.182 52.862,1322.56 57.528,1438.63c5.938,147.702 6.092,242.438 -50.226,315.018c-37.447,48.259 -99.565,86.226 -199.623,124.343c-160.181,61.022 -365.946,54.854 -531.725,28.759c-96.462,-15.184 -169.505,-29.139 -224.982,-47.158c-52.47,-17.043 -88.6,-37.423 -113.436,-66.886c-24.837,-29.464 -38.185,-67.751 -46.517,-119.375c-8.823,-54.668 -11.797,-123.653 -14.928,-212.101c-4.342,-122.667 -28.224,-808.59 -10.77,-1266.17c4.464,-117.051 11.619,-219.083 22.549,-292.704c6.939,-46.735 15.048,-81.553 25.449,-100.464c14.633,-26.606 36.274,-42.847 59.085,-57.729c25.966,-16.942 53.441,-32.2 76.582,-55.123c24.417,-24.186 45.725,-50.453 59.459,-84.254l-0,-0Z" style="fill:#7e4021;"/><path d="M480.263,1578.88c-0.432,39.519 5.253,132.285 4.49,171.797c-2.279,118.018 -7.368,667.349 -3.318,785.375c9.687,282.233 -10.73,574.848 23.398,855.37c3.532,29.037 15.937,55.279 28.623,81.137c11.046,22.514 22.39,44.671 25.46,68.964c2.808,22.223 -6.294,44.809 -13.222,67.323c-8.803,28.609 -14.58,57.015 -3.37,84.232c16.64,40.399 52.6,62.57 96.064,59.193c42.748,-3.322 77.853,-37.891 92.695,-76.523c12.474,-32.468 4.769,-57.221 -6.311,-80.612c-8.102,-17.107 -19.126,-32.953 -18.03,-52.867c0.749,-13.599 9.018,-24.594 17.473,-35.634c11.618,-15.17 24.135,-30.151 30.153,-47.187c22.351,-63.281 22.703,-135.281 24.736,-201.46c7.356,-239.37 -15.984,-479.341 -19.006,-718.814c-1.783,-141.271 -2.165,-810.365 -9.926,-974.189c-0.435,-9.188 -8.248,-16.294 -17.436,-15.859c-9.188,0.435 -16.295,8.248 -15.86,17.437c7.751,163.629 8.11,831.928 9.891,973.031c3.016,238.993 26.361,478.481 19.02,717.37c-1.931,62.843 -1.625,131.291 -22.85,191.382c-4.9,13.875 -15.724,25.667 -25.186,38.022c-12.628,16.488 -23.173,33.757 -24.291,54.068c-1.172,21.274 6.642,39.493 15.59,57.56c9.601,19.384 21.373,38.583 10.917,65.797c-10.454,27.212 -34.05,52.905 -64.161,55.245c-28.359,2.203 -51.804,-12.295 -62.661,-38.654c-8.23,-19.983 -2.055,-40.73 4.408,-61.735c8.338,-27.097 17.813,-54.558 14.433,-81.305c-3.527,-27.91 -15.914,-53.601 -28.604,-79.467c-11.049,-22.522 -22.383,-45.19 -25.46,-70.481c-34.013,-279.575 -13.519,-571.206 -23.173,-852.487c-4.041,-117.757 1.057,-665.839 3.331,-783.588c0.764,-39.577 -4.918,-132.494 -4.486,-172.077c0.1,-9.198 -7.286,-16.747 -16.484,-16.847c-9.198,-0.101 -16.747,7.285 -16.847,16.483Z" style="fill:#7e4021;"/><path d="M213.119,1713.42c-18.221,-7.498 -34.374,-2.195 -47.828,11.206c-22.182,22.097 -35.445,71.405 -37.225,88.849c-0.933,9.152 5.738,17.339 14.889,18.273c9.151,0.934 17.339,-5.738 18.272,-14.889c1.199,-11.747 8.648,-42.039 21.742,-61.38c2.725,-4.025 5.645,-7.549 8.98,-9.925c2.507,-1.786 5.321,-2.611 8.485,-1.309c8.507,3.5 18.255,-0.564 21.755,-9.07c3.501,-8.507 -0.564,-18.255 -9.07,-21.755Z" style="fill:#7e4021;"/><path d="M110.314,1890.76c1.652,5.343 0.035,13.699 -1.705,22.76c-3.578,18.634 -9.878,39.312 -11.577,50.921c-1.332,9.101 4.976,17.572 14.078,18.904c9.102,1.332 17.572,-4.976 18.904,-14.078c1.958,-13.378 10.149,-38.941 12.974,-59.279c1.608,-11.575 1.4,-21.866 -0.828,-29.074c-2.717,-8.788 -12.058,-13.717 -20.846,-11c-8.788,2.717 -13.717,12.058 -11,20.846Z" style="fill:#7e4021;"/><path d="M1210.36,3407.77c3.04,-4.725 3.621,-10.875 0.996,-16.297c-4.009,-8.279 -13.985,-11.747 -22.264,-7.738c-3.646,1.765 -7.505,5.167 -9.789,10.95c-2.041,5.167 -2.507,15.885 -2.985,19.853c-5.928,49.251 -6.555,97.698 -25.085,144.464c-3.388,8.552 0.804,18.246 9.356,21.634c8.551,3.389 18.245,-0.803 21.634,-9.355c19.608,-49.488 20.917,-100.642 27.19,-152.76c0.219,-1.82 0.729,-8.031 0.947,-10.751Z" style="fill:#7e4021;"/><path d="M1116.83,3623.18c-0.974,1.163 -2.508,3.004 -3.103,3.76c-9.672,12.291 -21.273,22.663 -33.311,32.593c-28.615,23.603 -59.655,39.447 -94.433,51.979c-8.654,3.119 -13.148,12.676 -10.03,21.33c3.119,8.654 12.677,13.148 21.33,10.03c38.458,-13.859 72.701,-31.525 104.343,-57.625c13.881,-11.449 27.144,-23.522 38.296,-37.693c1.205,-1.531 4.454,-5.411 4.849,-5.997c7.546,-11.193 -0.748,-19.925 -2.067,-21.23c-0.587,-0.58 -12.218,-11.346 -23.86,0.39c-0.762,0.769 -1.434,1.593 -2.014,2.463Zm13.723,25.934c2.817,0.272 7.324,-0.252 11.956,-4.921c-3.288,3.314 -7.627,4.957 -11.956,4.921Z" style="fill:#7e4021;"/><path d="M992.497,2275.15c-0,-195.276 -165.862,-353.816 -370.157,-353.816c-204.295,0 -370.157,158.54 -370.157,353.816l0,717.448c0,195.276 165.862,353.816 370.157,353.816c204.295,0 370.157,-158.54 370.157,-353.816l-0,-717.448Z" style="fill:#ffe6d8;"/><path d="M1009.16,2275.15c0,-103.828 -44.675,-197.775 -116.718,-265.115c-69.696,-65.145 -165.022,-105.367 -270.105,-105.367c-105.084,-0 -200.41,40.222 -270.105,105.367c-72.043,67.34 -116.718,161.287 -116.718,265.115c-0,0 -0,717.448 -0,717.448c-0,103.828 44.675,197.776 116.718,265.115c69.695,65.145 165.021,105.368 270.105,105.368c105.083,-0 200.409,-40.223 270.105,-105.368c72.043,-67.339 116.718,-161.287 116.718,-265.115c0,-0 0,-717.448 0,-717.448Zm-33.333,0l-0,717.448c-0,94.313 -40.706,179.595 -106.147,240.763c-63.813,59.647 -151.128,96.386 -247.343,96.386c-96.215,0 -183.53,-36.739 -247.343,-96.386c-65.441,-61.168 -106.147,-146.45 -106.147,-240.763l-0,-717.448c-0,-94.312 40.706,-179.595 106.147,-240.763c63.813,-59.647 151.128,-96.386 247.343,-96.386c96.215,0 183.53,36.739 247.343,96.386c65.441,61.168 106.147,146.451 106.147,240.763Z" style="fill:#7e4021;"/></g></svg>