<?xml version="1.0" encoding="UTF-8" standalone="no"?><!DOCTYPE svg PUBLIC "-//W3C//DTD SVG 1.1//EN" "http://www.w3.org/Graphics/SVG/1.1/DTD/svg11.dtd"><svg width="100%" height="100%" viewBox="0 0 2524 3734" version="1.1" xmlns="http://www.w3.org/2000/svg" xmlns:xlink="http://www.w3.org/1999/xlink" xml:space="preserve" xmlns:serif="http://www.serif.com/" style="fill-rule:evenodd;clip-rule:evenodd;stroke-linejoin:round;stroke-miterlimit:2;"><g id="Flour-canister" serif:id="Flour canister"><path d="M173.278,1152.85c-0.065,30.201 -8.904,1264.4 -21.419,1957.74c-7.781,431.105 236.092,483.688 485.756,550.451c286.878,76.714 1127.84,73.463 1411.94,-6.282c237.103,-66.551 378.807,-193.843 395.247,-469.338c18.27,-306.168 21.627,-2076.69 21.627,-2076.69c0,-0 -245.243,213.333 -714.058,226.184c-465.426,12.758 -1263.07,59.478 -1579.1,-182.068Z" style="fill:#fcd2b8;"/><path d="M183.399,1139.6c-5.032,-3.846 -11.81,-4.508 -17.491,-1.707c-5.681,2.801 -9.283,8.579 -9.297,14.913c-0.065,30.198 -8.902,1264.23 -21.416,1957.48c-3.207,177.688 35.856,292.762 99.414,371.535c94.711,117.385 245.359,154.313 398.701,195.318c288.667,77.192 1134.88,73.906 1420.75,-6.336c121.975,-34.237 219.199,-84.48 288.256,-161.213c69.333,-77.039 110.633,-180.888 119.124,-323.179c18.278,-306.31 21.657,-2077.65 21.657,-2077.65c0.012,-6.536 -3.798,-12.476 -9.744,-15.192c-5.945,-2.715 -12.93,-1.704 -17.861,2.586c-0,0 -241.788,209.44 -703.576,222.099c-278.635,7.638 -676.604,27.545 -1018.51,-9.865c-224.956,-24.615 -425.534,-73.641 -550.013,-168.785Zm6.346,45.424c129.274,85.938 323.514,132.804 540.041,156.496c343.427,37.577 743.169,17.723 1023.05,10.051c383.933,-10.525 619.994,-153.974 696.861,-208.995c-0.574,246.368 -4.759,1760.9 -21.525,2041.85c-7.948,133.204 -45.721,230.748 -110.626,302.867c-65.18,72.425 -157.36,119.103 -272.487,151.418c-282.332,79.247 -1118.05,82.462 -1403.13,6.227c-146.257,-39.11 -291.035,-72.087 -381.369,-184.047c-59.806,-74.123 -95.047,-182.805 -92.029,-350.002c11.464,-635.103 19.843,-1723.96 21.222,-1925.86Z" style="fill:#7e4021;"/><path d="M607.879,1881.24c-28.223,32.167 -32.841,275.627 -33.284,323.248c-0.682,73.21 -10.364,378.328 49.738,426.783c52.443,42.28 136.825,57.539 199.883,74.907c325.29,89.596 679.359,116.854 999.685,-2.256c42.227,-15.702 110.826,-45.569 134.973,-87.613c44.507,-77.493 38.738,-265.857 37.509,-350.716c-1.03,-71.057 0.192,-290.168 -50.808,-344.278c-49.616,-52.641 -302.154,18.624 -515.653,13.132c-305.103,-7.85 -768.125,-114.657 -822.043,-53.207Z" style="fill:#fff;"/><path d="M595.351,1870.25c-3.571,4.07 -7.157,10.395 -10.211,18.86c-5.359,14.859 -9.831,37.838 -13.342,65.002c-11.155,86.295 -13.556,216.621 -13.869,250.222c-0.482,51.684 -5.308,217.969 12.569,329.852c4.811,30.114 11.322,56.432 19.776,76.007c6.614,15.316 14.664,26.852 23.599,34.055c54.098,43.614 140.869,60.084 205.918,78.001c328.62,90.513 686.313,117.627 1009.92,-2.703c26.307,-9.782 62.439,-24.926 92.576,-44.851c21.679,-14.333 40.221,-31.243 51.042,-50.083c18.712,-32.582 29.427,-83.696 34.917,-139.149c7.901,-79.817 5.548,-168.755 4.803,-220.11c-0.729,-50.311 -0.452,-173.995 -17.848,-262.455c-8.115,-41.264 -20.651,-75.14 -37.496,-93.012c-7.765,-8.239 -19.121,-14.559 -33.964,-18.596c-18.297,-4.976 -42.617,-6.677 -71.48,-5.975c-104.509,2.545 -272.752,36.31 -421.908,32.472c-213.383,-5.489 -504.073,-59.461 -677.762,-70.27c-46.315,-2.882 -84.605,-2.659 -111.449,1.988c-22.139,3.832 -37.495,11.293 -45.789,20.745Zm25.056,21.984c4.654,-5.303 13.996,-7.734 26.419,-9.885c24.974,-4.323 60.602,-4.245 103.692,-1.563c173.999,10.828 465.213,64.824 678.975,70.324c149.743,3.852 318.657,-29.916 423.577,-32.471c21.068,-0.513 39.388,0.235 54.182,3.049c11.585,2.204 20.723,5.255 26.194,11.061c13.758,14.596 22.419,42.88 29.046,76.581c17.001,86.45 16.513,207.338 17.226,256.506c0.731,50.476 3.121,137.893 -4.645,216.343c-4.956,50.06 -13.759,96.419 -30.651,125.832c-8.498,14.795 -23.496,27.623 -40.52,38.878c-27.915,18.456 -61.444,32.353 -85.81,41.414c-317.046,117.89 -667.49,90.488 -989.45,1.809c-61.069,-16.82 -143.06,-30.868 -193.848,-71.814c-5.491,-4.427 -9.854,-11.909 -13.918,-21.32c-7.562,-17.511 -13.158,-41.113 -17.462,-68.052c-17.575,-109.991 -12.627,-273.471 -12.153,-324.281c0.308,-33.068 2.617,-161.333 13.595,-246.259c2.711,-20.969 5.912,-39.197 9.828,-52.401c1.855,-6.254 3.431,-11.138 5.723,-13.751Z" style="fill:#7e4021;"/><path d="M1421.02,2111.1c3.383,-7.344 0.994,-16.27 -5.959,-20.864c-5.873,-3.88 -11.252,-3.503 -15.914,-1.603c-2.917,1.189 -6.012,3.318 -8.326,7.191c-0.902,1.508 -1.9,3.759 -2.453,6.617c-0.519,2.681 -0.6,7.244 -0.705,8.582c-1.105,14.011 -1.123,28.074 -1.457,42.117c-0.757,31.803 -1.663,63.601 -2.364,95.405c-0.806,36.585 -10.751,175.165 10.237,259.314c6.047,24.246 14.819,44.273 26.274,57.471c9.449,10.886 20.763,17.634 33.896,19.712c46.501,7.36 79.857,-25.284 100.698,-81.181c41.245,-110.626 36.272,-315.221 42.619,-371.075c1.038,-9.14 -5.539,-17.404 -14.678,-18.442c-9.14,-1.039 -17.404,5.538 -18.442,14.678c-6.211,54.652 -0.375,254.95 -40.732,363.194c-14.154,37.963 -32.673,64.901 -64.254,59.903c-7.266,-1.15 -12.746,-6.285 -17.514,-13.337c-6.709,-9.925 -11.641,-23.416 -15.525,-38.989c-20.273,-81.285 -10.032,-215.174 -9.253,-250.514c0.7,-31.785 1.606,-63.563 2.362,-95.346c0.319,-13.434 0.306,-26.887 1.363,-40.29l0.127,-2.543Zm-23.533,7.443c3.205,1.915 6.252,2.485 9.095,2.244c-3.095,0.139 -6.253,-0.584 -9.095,-2.244Z" style="fill:#7e4021;"/><path d="M1701.34,2324.37c1.9,-1.241 4.178,-2.647 6.237,-3.715c9.034,-4.69 20.632,-9.731 32.735,-15.798c42.529,-21.317 88.257,-54.807 76.507,-118.698c-2.576,-14.007 -14.941,-32.799 -33.215,-50.295c-24.954,-23.892 -60.359,-46.018 -88.254,-52.196c-27.831,-6.163 -49.374,1.823 -57.885,26.507c-7.217,20.93 -11.154,63.368 -12.57,114.999c-3.167,115.462 4.857,278.681 5.781,338.712c0.142,9.198 7.724,16.55 16.921,16.408c9.198,-0.141 16.55,-7.724 16.408,-16.921c-0.92,-59.778 -8.943,-222.309 -5.789,-337.285c1.293,-47.129 4.173,-85.942 10.761,-105.046c1.752,-5.081 6.296,-6.167 11.523,-5.918c7.123,0.339 15.242,2.828 23.742,6.495c21.839,9.419 45.571,26.748 61.997,44.021c9.193,9.666 16.381,18.851 17.797,26.549c8.448,45.934 -28.084,67.543 -58.661,82.869c-17.834,8.939 -34.561,15.895 -44.37,22.544c-7.448,5.048 -11.982,10.632 -14.06,15.828c-1.093,2.732 -1.916,6.718 -0.904,11.926c1.048,5.399 5.82,15.955 13.934,29.595c33.484,56.285 126.186,180.877 141.246,206.695c4.635,7.945 14.849,10.633 22.794,5.998c7.946,-4.635 10.634,-14.848 5.999,-22.794c-15.078,-25.847 -107.869,-150.592 -141.391,-206.942c-2.832,-4.76 -5.458,-9.843 -7.283,-13.538Z" style="fill:#7e4021;"/><path d="M959.803,2110.58c-0.287,2.192 -1.672,13.141 -2.306,24.048c-0.675,11.615 -1.24,23.238 -1.807,34.857c-2.125,43.548 -3.694,87.1 -4.815,130.681c-0.438,16.993 -8.189,160.412 -5.289,222.443c0.692,14.794 2.301,25.653 4.185,30.7c1.622,4.346 3.892,7.118 5.817,8.832c7.444,6.631 23.982,12.318 44.977,15.236c40.334,5.604 98.865,4.3 118.791,2.577c9.164,-0.792 15.961,-8.876 15.169,-18.04c-0.792,-9.164 -8.876,-15.961 -18.04,-15.169c-18.675,1.615 -73.531,2.868 -111.332,-2.384c-7.446,-1.035 -14.178,-2.31 -19.702,-3.948c-1.813,-0.537 -3.466,-1.009 -4.849,-1.563c-0.522,-3.833 -1.401,-11.009 -1.719,-17.797c-2.869,-61.359 4.882,-203.221 5.314,-220.03c1.115,-43.325 2.674,-86.621 4.787,-129.913c0.562,-11.516 1.121,-23.036 1.79,-34.547c0.683,-11.746 2.191,-22.366 2.292,-23.54c0.554,-6.49 -2.118,-9.797 -2.459,-10.344c-4.536,-7.278 -10.767,-8.521 -16.55,-7.677c-0.917,0.133 -11.09,0.832 -13.859,12.821c-0.212,0.921 -0.344,1.843 -0.395,2.757Zm4.302,12.195c2.202,2.436 5.145,4.243 8.583,5.037c0.961,0.222 1.922,0.356 2.875,0.402c-4.029,-0.057 -8.079,-1.445 -11.458,-5.439Zm16.371,4.964c3.194,-0.633 10.024,-2.986 12.201,-12.417c-1.456,6.307 -6.322,10.946 -12.201,12.417Z" style="fill:#7e4021;"/><path d="M797.647,2561.8l-0.013,-0.447c-0.155,-5.77 -0.584,-35.435 -0.853,-52.264c-0.678,-42.418 -0.084,-84.686 1.426,-127.082c2.451,-68.839 5.162,-137.643 7.813,-206.47c0.301,-7.825 -2.061,-27.483 -1.508,-44.168c0.127,-3.846 1.015,-8.935 1.588,-11.865c3.515,-0.449 9.579,-1.121 14.712,-1.196c29.436,-0.425 74.332,4.414 86.749,5.552c9.16,0.84 17.278,-5.916 18.118,-15.076c0.84,-9.16 -5.915,-17.279 -15.076,-18.118c-14.906,-1.367 -74.384,-7.607 -103.245,-5.087c-11.93,1.041 -20.246,4.551 -23.907,7.792c-5.751,5.092 -10.223,14.935 -11.619,27.612c-2.003,18.197 1.238,43.955 0.879,53.271c-2.652,68.86 -5.364,137.696 -7.816,206.567c-1.531,42.969 -2.13,85.809 -1.443,128.801c0.271,16.945 0.705,46.814 0.86,52.623c0.403,15.046 15.371,17.16 15.6,17.175c9.179,0.608 17.124,-6.35 17.732,-15.528c0.047,-0.706 0.049,-1.404 0.003,-2.092Z" style="fill:#7e4021;"/><path d="M804.402,2246.43c3.294,-0.249 7.606,-0.564 9.451,-0.658c4.691,-0.238 9.376,-0.065 14.062,0.198c22.548,1.262 43.371,3.973 64.674,11.074c8.727,2.909 18.173,-1.814 21.082,-10.541c2.909,-8.727 -1.814,-18.173 -10.541,-21.082c-24.17,-8.057 -47.767,-11.3 -73.351,-12.733c-5.871,-0.328 -11.741,-0.505 -17.617,-0.206c-4.263,0.216 -13.664,0.656 -18.264,1.532c-4.399,0.837 -7.384,2.526 -8.889,3.638c-7.456,5.514 -8.151,12.398 -6.23,18.683c0.82,2.679 2.765,8.085 10.757,11.305c5.057,2.037 10.531,1.413 14.866,-1.21Zm-1.687,-29.396c-0.232,-0.108 -0.473,-0.213 -0.724,-0.314l0.724,0.314Z" style="fill:#7e4021;"/><path d="M1282.81,2102.8c-48.637,-27.708 -88.328,-5.086 -107.171,23.287c-20.388,30.7 -34.017,66.651 -41.034,102.563c-10.274,52.586 -15.469,199.244 21.01,285.733c17.836,42.288 45.697,70.58 84.463,73.787c30.918,2.558 53.726,-12.176 69.685,-34.345c14.029,-19.489 22.443,-45.015 26.374,-67.223c15.554,-87.868 5.434,-184.703 -2.073,-273.118c-2.033,-23.945 -9.901,-52.553 -20.995,-74.535c-8.526,-16.894 -19.3,-29.906 -30.259,-36.149Zm-16.499,28.963c6.5,3.703 11.942,12.183 17,22.205c9.278,18.382 15.839,42.312 17.539,62.336c7.27,85.622 17.526,179.395 2.464,264.488c-3.124,17.648 -9.456,38.071 -20.605,53.559c-9.22,12.809 -22.018,22.077 -39.882,20.599c-17.019,-1.408 -30.228,-10.983 -40.795,-25.181c-12.439,-16.712 -21.243,-39.455 -27.621,-64.857c-20.266,-80.705 -15.338,-187.658 -7.091,-229.87c6.189,-31.678 18.102,-63.434 36.086,-90.514c11.028,-16.605 34.439,-28.981 62.905,-12.765Z" style="fill:#7e4021;"/><path d="M2238.64,3477.05l1.686,-0.877c17.05,-9.754 30.869,-25.493 44.153,-39.648c42.187,-44.953 73.428,-96.731 92.583,-155.262c2.861,-8.742 -1.914,-18.163 -10.656,-21.024c-8.742,-2.861 -18.163,1.914 -21.024,10.656c-17.623,53.848 -46.398,101.463 -85.209,142.819c-11.078,11.805 -22.182,25.392 -36.399,33.525c0.099,-0.057 0.663,-0.358 0.663,-0.358c0,-0 -8.104,5.272 -9.181,6.646c-6.171,7.866 -3.905,14.98 -0.824,19.634c5.078,7.67 15.428,9.775 23.098,4.697c0.385,-0.255 0.756,-0.523 1.11,-0.808Z" style="fill:#7e4021;"/><path d="M2354.58,3184.37c-4.245,6.229 -3.833,14.786 1.467,20.598c5.599,6.141 11.218,6.662 14.741,6.509c5.4,-0.234 10.387,-2.489 14.009,-8.093c1.386,-2.144 3.003,-5.96 3.344,-11.24c0.387,-5.975 -1.133,-17.579 -0.714,-23.076c1.331,-17.472 1.744,-34.992 2.381,-52.5c0.334,-9.193 -6.858,-16.927 -16.05,-17.262c-9.193,-0.334 -16.927,6.858 -17.261,16.05c-0.621,17.068 -1.01,34.148 -2.307,51.181c-0.278,3.644 0.082,12.14 0.39,17.833Z" style="fill:#7e4021;"/><path d="M179.688,1158.71c-51.398,-38.226 -99.29,-245.012 1.415,-325.392c21.061,-16.811 -74.283,-202.6 12.578,-333.38c54.795,-82.5 142.658,-140.352 234.22,-174.138c326.228,-120.38 950.549,-128.298 1298.03,-108.063c169.498,9.87 479.337,64.269 616.03,176.199c181.109,148.299 189.326,258.137 133.662,451.635c-14.485,50.353 55.748,91.938 21.08,237.936c-68.15,286.994 -939.534,309.181 -1158.3,298.482c-299.839,-14.664 -888.913,-22.621 -1158.72,-223.279Z" style="fill:#ffe6d8;"/><path d="M167.436,822.992c-51.921,43.99 -66.85,119.659 -60.683,190.281c3.672,42.047 14.633,82.075 28.599,111.735c10.263,21.795 22.454,38.199 34.39,47.077l0,-0c109.669,81.563 271.097,132.206 445.012,164.075c257.498,47.185 542.385,53.652 722.837,62.477c154.207,7.542 630.405,-1.351 925.798,-106.367c132.157,-46.984 228.04,-114.404 249.532,-204.912c21.956,-92.461 4,-145.244 -10.535,-184.159c-7.708,-20.637 -15.608,-36.108 -10.743,-53.019c28.822,-100.19 40.466,-178.778 22.1,-251.458c-18.443,-72.99 -67.045,-140.566 -161.22,-217.68c-138.88,-113.721 -453.41,-169.914 -625.62,-179.943c-349.298,-20.34 -976.841,-11.942 -1304.77,109.066c-94.805,34.983 -185.598,95.131 -242.333,180.553c-63.63,95.803 -35.42,219.711 -19.372,291.529c3.014,13.492 5.53,24.961 6.63,33.78c0.288,2.311 0.367,5.142 0.38,6.965Zm22.198,322.345c-8.624,-6.413 -16.71,-18.782 -24.125,-34.529c-12.549,-26.651 -22.249,-62.655 -25.549,-100.435c-5.324,-60.964 5.395,-127.197 51.54,-164.028c3.819,-3.049 6.98,-7.589 8.461,-14.168c1.46,-6.485 1.026,-16.894 -1.397,-30.378c-5.359,-29.821 -19.758,-79.262 -24.155,-134.185c-4.17,-52.077 0.6,-109.438 33.155,-158.454c52.854,-79.577 137.788,-135.133 226.107,-167.723c324.525,-119.751 945.624,-127.19 1291.29,-107.061c166.787,9.713 471.933,62.316 606.44,172.456c86.935,71.186 132.995,132.677 150.021,200.056c17.104,67.689 5.025,140.768 -21.817,234.076c-6.726,23.382 0.894,45.365 11.551,73.898c13.006,34.822 28.977,82.059 9.33,164.795c-9.396,39.57 -35.82,73.364 -73.924,102.7c-40.242,30.982 -93.323,56.812 -154.343,78.506c-291.296,103.559 -760.936,111.917 -913.004,104.48c-179.355,-8.771 -462.523,-15.072 -718.457,-61.97c-168.372,-30.854 -324.954,-79.072 -431.128,-158.035l0,-0.001Z" style="fill:#7e4021;"/><path d="M1232.88,352.971c-2.631,-2.93 134.179,-9.036 137.598,4.659c17.322,69.371 131.7,62.18 115.576,138.107c-18.581,87.505 -361.334,92.715 -372.734,4.3c-8.847,-68.614 119.56,-86.572 119.56,-147.066Z" style="fill:#edaf5f;"/><path d="M1216.19,353.92c-0.37,10.124 -6.629,18.16 -14.698,25.797c-11.269,10.666 -26.274,20.1 -40.95,29.867c-16.768,11.16 -33.117,22.745 -44.796,36.03c-14.021,15.948 -21.835,34.272 -18.962,56.554c2.416,18.737 15.033,35.109 36.364,47.558c25.81,15.064 65.456,24.864 109.459,28.794c75.267,6.724 163.203,-3.488 213.225,-28.714c25.943,-13.083 42.293,-30.701 46.52,-50.607c9.92,-46.716 -17.932,-69.321 -53.304,-89.458c-13.637,-7.764 -28.32,-15.244 -40.566,-24.986c-10.074,-8.014 -18.46,-17.627 -21.84,-31.163c-1.01,-4.048 -3.418,-8.342 -8.452,-11.777c-3.403,-2.323 -9.607,-4.756 -18.12,-6.217c-32.002,-5.492 -109.591,-2.571 -126.516,-0.065c-7.955,1.177 -11.869,4.825 -12.871,5.901c-3.266,3.508 -4.347,7.277 -4.497,10.719c-0.026,0.586 -0.026,1.176 0.004,1.768l-0,-0.001Zm140.396,15.288c12.26,34.316 45.535,52.173 75.97,69.501c22.15,12.61 43.402,24.312 37.189,53.566c-1.483,6.984 -6.548,12.836 -13.487,18.231c-9.197,7.149 -21.577,13.103 -36.008,18.112c-47.23,16.392 -115.271,22.008 -174.677,16.701c-38.365,-3.427 -73.12,-11.248 -95.623,-24.382c-10.893,-6.357 -18.872,-13.463 -20.106,-23.032c-1.551,-12.027 3.368,-21.674 10.936,-30.282c9.909,-11.271 24.003,-20.821 38.23,-30.289c19.928,-13.262 40.103,-26.362 53.198,-41.537c7.471,-8.657 12.853,-17.995 15.492,-28.229c18.983,-1.476 56.132,-2.619 84.236,-1.234c8.876,0.437 19.283,1.992 24.65,2.874Zm-110.793,-26.765c2.207,2.67 3.254,5.471 3.588,8.231c-0.419,-3.011 -1.655,-5.861 -3.588,-8.231Z" style="fill:#7e4021;"/><path d="M1285.62,75.475c-11.753,-25.647 -62.716,-75.132 -129.113,-53.244c-51.382,16.938 -74.223,62.043 -77.177,118.678c-4.323,82.875 144.313,248.354 230.658,241.634c86.995,-6.771 215.815,-191.511 192.403,-274.056c-28.027,-98.82 -167.993,-118.637 -216.771,-33.012Z" style="fill:#ffce7b;"/><path d="M1285.92,46.51c-25.007,-28.75 -74.263,-60.009 -134.632,-40.108c-58.198,19.185 -85.257,69.491 -88.603,133.639c-0.98,18.789 4.582,41.418 15.521,65.387c15.131,33.154 40.521,69.34 70.257,101.257c29.866,32.056 64.105,59.766 96.436,76.134c23.635,11.966 46.5,17.887 66.381,16.34c19.916,-1.55 41.919,-10.83 63.887,-26.112c30.209,-21.013 60.797,-53.451 86.077,-89.558c25.282,-36.11 45.233,-75.857 54.589,-111.186c6.822,-25.758 7.965,-49.417 2.591,-68.364c-15.932,-56.174 -63.5,-90.104 -114.197,-97.612c-43.236,-6.402 -88.444,6.418 -118.307,40.183l0,0Zm-15.452,35.909c2.604,5.683 8.171,9.431 14.417,9.707c6.246,0.275 12.121,-2.968 15.216,-8.401c20.791,-36.498 61.229,-50.053 99.243,-44.424c38.488,5.7 74.917,31.088 87.012,73.733c3.991,14.072 2.321,31.605 -2.745,50.735c-8.475,32.001 -26.772,67.893 -49.673,100.602c-22.904,32.713 -50.436,62.274 -77.805,81.312c-16.418,11.42 -32.556,19.085 -47.44,20.243c-14.658,1.141 -31.312,-4.024 -48.738,-12.846c-29.26,-14.813 -60.075,-40.107 -87.103,-69.117c-27.159,-29.151 -50.502,-62.094 -64.321,-92.375c-8.362,-18.321 -13.307,-35.449 -12.558,-49.81c2.563,-49.13 21.179,-89.025 65.751,-103.718c55.834,-18.406 98.86,22.792 108.744,44.359Z" style="fill:#7e4021;"/><path d="M169.851,825.118c5.988,36.993 27.527,181.711 315.742,284.431c389.058,138.66 1154.53,164.857 1558.67,60.976c115.109,-29.587 215.073,-65.723 291.068,-114.105c78.698,-50.103 132.079,-113.399 151.708,-195.5c2.139,-8.946 -3.387,-17.946 -12.334,-20.085c-8.946,-2.139 -17.946,3.388 -20.085,12.334c-17.647,73.81 -66.44,130.089 -137.19,175.132c-73.453,46.764 -170.208,81.343 -281.465,109.94c-399.087,102.582 -1154.99,76.835 -1539.18,-60.091c-265.459,-94.61 -288.513,-224.286 -294.028,-258.359c-1.47,-9.08 -10.036,-15.259 -19.116,-13.789c-9.081,1.47 -15.259,10.035 -13.789,19.116Z" style="fill:#7e4021;"/><path d="M2428.3,502.745c28.777,80.585 -21.706,208.001 -177.701,278.512c-192.796,87.144 -456.097,76.475 -657.566,83.642c-9.193,0.327 -16.39,8.056 -16.063,17.248c0.327,9.193 8.055,16.391 17.248,16.064c205.365,-7.305 473.587,2.25 670.11,-86.58c177.07,-80.036 228.028,-228.624 195.364,-320.096c-3.093,-8.663 -12.638,-13.184 -21.301,-10.091c-8.662,3.094 -13.184,12.638 -10.091,21.301Z" style="fill:#7e4021;"/><path d="M554.034,733.768c-94.398,-17.028 -203.55,-87.704 -249.636,-141.389c-36.872,-42.951 -53.447,-86.455 -54.979,-143.202c-0.248,-9.195 -7.915,-16.459 -17.111,-16.21c-9.195,0.248 -16.459,7.915 -16.21,17.11c1.755,64.999 20.774,114.816 63.008,164.014c49.672,57.863 167.266,134.128 269.01,152.481c9.053,1.633 17.728,-4.39 19.361,-13.443c1.633,-9.052 -4.391,-17.728 -13.443,-19.361Z" style="fill:#7e4021;"/><path d="M253.839,635.216c-10.862,-49.69 -46.228,-138.452 -47.855,-137.644c-1.092,0.541 -36.743,22.038 -48.475,30.551c-12.566,9.118 -111.187,68.899 -122.644,59.546c-5.807,-4.741 22.731,-33.518 25.672,-36.691c15.631,-16.87 102.115,-82.363 104.301,-97.617c2.269,-15.831 -70.156,-83.45 -83.533,-94.634c-5.892,-4.925 -29.149,-19.909 -25.993,-30.153c6.705,-21.766 94.909,25.958 105.84,33.697c3.222,2.281 20.511,18.308 24.986,13.732c7.835,-8.012 16.774,-132.915 19.588,-150.072c0.991,-6.042 3.879,-47.538 15.337,-44.174c30.763,9.033 34.302,102.877 35.454,127.697c0.207,4.46 -3.141,43.31 2.099,45.207c2.83,1.024 30.446,-28.274 42.056,-38.333c38.447,-33.31 81.55,-61.128 123.668,-89.496c5.535,-3.729 31.426,-26.951 38.811,-23.119c6.39,3.316 -23.07,41.38 -25.448,44.654c-30.032,41.344 -65.31,77.979 -102.356,113.058c-2.445,2.316 -37.169,30.443 -34.947,33.79c1.169,1.761 122.041,-5.135 159.364,4.054c5.497,1.353 29.503,4.818 31.32,11.824c2.405,9.272 -36.763,15.661 -41.388,16.951c-74.056,20.655 -169.355,32.018 -180.349,49.635c-10.128,16.229 26.075,218.81 14.992,216.673c-11.587,-2.235 -28.651,-50.679 -30.5,-59.136Z" style="fill:#fff;"/><path d="M160.604,323.802c-25.692,-13.443 -68.442,-32.981 -91.091,-34.116c-26.154,-1.311 -40.736,11.8 -46.057,29.075c-3.643,11.824 -1.874,26.248 8.228,39.818c7.691,10.331 23.063,21.393 28.241,25.722c7.912,6.614 44.993,46.291 63.1,65.783c-23.811,20.762 -76.45,66.918 -86.939,78.238c-2.981,3.217 -25.882,27.865 -31.491,40.404c-9.481,21.194 -0.76,36.641 9.19,44.764c6.857,5.598 24.262,12.069 47.841,3.984c34.079,-11.686 104.589,-54.484 115.46,-62.372c2.79,-2.024 7.508,-5.115 12.862,-8.511c10.864,28.717 25.738,70.179 31.327,95.744c1.841,8.424 16.05,48.613 28.951,65.818c8.995,11.995 19.754,17.377 27.802,18.929c11.026,2.126 39.006,-0.681 41.555,-35.399c1.926,-26.242 -17.446,-145.863 -18.686,-193.547c8.553,-2.798 22.271,-7.066 34.3,-9.818c36.207,-8.285 82.963,-16.872 123.455,-28.166c4.761,-1.328 37.433,-8.519 48.942,-16.787c16.32,-11.723 19.266,-27.105 15.756,-40.64c-2.12,-8.175 -7.491,-17.126 -18.069,-23.716c-9.856,-6.139 -31.571,-10.636 -37.549,-12.107c-17.24,-4.245 -51.476,-5.404 -84.493,-5.503c29.334,-29.197 57.027,-59.844 81.433,-93.442c1.927,-2.653 19.455,-25.742 26.548,-39.781c4.55,-9.007 6.086,-16.994 6.165,-21.97c0.259,-16.45 -7.897,-26.38 -18.881,-32.08c-7.829,-4.063 -19.708,-6.356 -33.738,-0.92c-12.56,4.867 -33.794,22.44 -39.048,25.979c-39.794,26.803 -80.391,53.202 -117.363,83.908c-1.875,-25.333 -5.88,-60.749 -14.939,-85.798c-9.389,-25.959 -25.629,-42.432 -42.962,-47.521c-15.807,-4.641 -30.769,-0.629 -42.215,15.053c-3.934,5.39 -7.735,13.768 -10.205,23.519c-3.195,12.617 -4.594,28.484 -5.202,32.191c-1.585,9.662 -7.905,64.877 -12.228,103.265Zm93.235,311.414c-10.862,-49.69 -46.228,-138.452 -47.855,-137.644c-1.092,0.541 -36.743,22.038 -48.475,30.551c-12.566,9.118 -111.187,68.899 -122.644,59.546c-5.807,-4.741 22.731,-33.518 25.672,-36.691c15.631,-16.87 102.115,-82.363 104.301,-97.617c2.269,-15.831 -70.156,-83.45 -83.533,-94.634c-5.892,-4.925 -29.149,-19.909 -25.993,-30.153c6.705,-21.766 94.909,25.958 105.84,33.697c3.222,2.281 20.511,18.308 24.986,13.732c7.835,-8.012 16.774,-132.915 19.588,-150.072c0.991,-6.042 3.879,-47.538 15.337,-44.174c30.763,9.033 34.302,102.877 35.454,127.697c0.207,4.46 -3.141,43.31 2.099,45.207c2.83,1.024 30.446,-28.274 42.056,-38.333c38.447,-33.31 81.55,-61.128 123.668,-89.496c5.535,-3.729 31.426,-26.951 38.811,-23.119c6.39,3.316 -23.07,41.38 -25.448,44.654c-30.032,41.344 -65.31,77.979 -102.356,113.058c-2.445,2.316 -37.169,30.443 -34.947,33.79c1.169,1.761 122.041,-5.135 159.364,4.054c5.497,1.353 29.503,4.818 31.32,11.824c2.405,9.272 -36.763,15.661 -41.388,16.951c-74.056,20.655 -169.355,32.018 -180.349,49.635c-10.128,16.229 26.075,218.81 14.992,216.673c-11.587,-2.235 -28.651,-50.679 -30.5,-59.136Z" style="fill:#7e4021;"/><path d="M2269.68,445.685l6.623,2.702c8.677,5.096 16.545,11.564 24.282,17.951c21.258,17.552 44.199,40.507 51.802,67.087c2.53,8.844 11.763,13.97 20.607,11.441c8.844,-2.53 13.971,-11.764 11.441,-20.608c-9.371,-32.763 -36.425,-61.99 -62.628,-83.624c-9.279,-7.661 -18.805,-15.301 -29.246,-21.358c-1.603,-0.93 -10.58,-4.623 -12.249,-5.191c-13.11,-4.468 -19.814,7.016 -20.208,7.739c-2.251,4.126 -4.653,11.102 1.985,18.838c2.091,2.437 4.736,4.121 7.591,5.023Zm20.021,-8.539c2.133,-4.183 3.989,-10.845 -2.316,-18.192c4.469,5.208 5.157,12.392 2.316,18.192Z" style="fill:#7e4021;"/><path d="M2352.32,585.91c-0.618,3.062 -1.597,7.626 -2.238,9.428c-3.526,9.918 -8.137,19.385 -12.554,28.926c-3.865,8.348 -0.225,18.262 8.122,22.127c8.347,3.864 18.262,0.225 22.127,-8.123c4.846,-10.468 9.844,-20.882 13.713,-31.765c2.037,-5.729 4.816,-21.274 4.678,-23.577c-0.661,-11.064 -8.637,-14.188 -11.88,-15.168c-1.798,-0.543 -15.276,-4.055 -20.955,11.107c-0.871,2.324 -1.188,4.721 -1.013,7.045Zm31.057,7.127l-0.249,0.42l0.072,-0.11l0.177,-0.31Zm0.431,-0.797l-0.279,0.53l0.147,-0.258l0.132,-0.272Zm0.375,-0.793l-0.214,0.463l0.158,-0.326l0.056,-0.137Z" style="fill:#7e4021;"/></g></svg>