<?xml version="1.0" encoding="UTF-8" standalone="no"?><!DOCTYPE svg PUBLIC "-//W3C//DTD SVG 1.1//EN" "http://www.w3.org/Graphics/SVG/1.1/DTD/svg11.dtd"><svg width="100%" height="100%" viewBox="0 0 2618 3556" version="1.1" xmlns="http://www.w3.org/2000/svg" xmlns:xlink="http://www.w3.org/1999/xlink" xml:space="preserve" xmlns:serif="http://www.serif.com/" style="fill-rule:evenodd;clip-rule:evenodd;stroke-linejoin:round;stroke-miterlimit:2;"><g id="Flour-bag" serif:id="Flour bag"><path d="M306.625,285.356c-58.064,51.864 -141.654,85.423 -181.815,167.953c-136.159,279.802 -76.974,1417.66 -78.234,1766.6c-0.975,269.746 -72.197,763.14 8.95,947.473c68.516,155.638 431.039,361.251 582.446,371.039c95.758,6.191 199.875,-36.076 293.212,-54.394c209.052,-41.027 416.821,-79.042 628.028,-103.554c203.502,-23.618 741.743,-55.281 919.913,-179.258c142.04,-98.836 124.319,-1651.8 116.105,-2266.2c-1.849,-138.308 11.648,-322.795 -22.787,-458.711c-25.102,-99.08 -97.497,-181.407 -166.579,-243.932c-121.051,-109.562 -142.653,-175.76 -298.206,-212.971c-54.881,-13.128 -543.099,31.202 -616.569,42.311c-258.797,39.131 -1153.57,13.642 -1219.09,56.824c-32.97,21.729 22.602,134.853 34.629,166.824Z" style="fill:#eb7e6c;"/><path d="M286.729,280.488c-26.911,22.338 -58.27,41.647 -87.804,64.071c-35.191,26.719 -67.801,57.685 -89.102,101.457c-41.434,85.147 -65.578,248.533 -78.351,445.242c-29.404,452.834 -0.68,1084.15 -1.563,1328.59c-0.584,161.798 -26.458,404.085 -29.535,611.831c-2.095,141.443 6.759,267.138 39.898,342.417c28.303,64.292 104.622,137.392 196.7,201.954c136.537,95.734 307.182,173.007 399.925,179.002c97.127,6.279 202.825,-36.091 297.497,-54.671c208.623,-40.943 415.965,-78.892 626.739,-103.354c122.317,-14.196 365.35,-31.32 578.761,-69.553c144.828,-25.946 276.075,-62.009 348.751,-112.58c13.264,-9.229 26.232,-28.76 37.211,-58.287c14.403,-38.736 26.768,-96.011 37.17,-167.654c68.011,-468.421 55.448,-1562.01 48.869,-2054.16c-1.864,-139.481 11.431,-325.515 -23.296,-462.582c-25.92,-102.31 -100.217,-187.633 -171.551,-252.196c-123.755,-112.01 -146.484,-178.781 -305.512,-216.823c-11.597,-2.774 -41.5,-3.472 -82.556,-2.156c-156,5 -481.393,35.277 -540.383,44.197c-206.76,31.263 -820.006,21.12 -1090.53,37.934c-48.554,3.017 -86.334,6.959 -109.242,12.038c-12.259,2.718 -20.969,6.101 -25.997,9.415c-14.15,9.326 -20.225,29.531 -16.677,55.727c5.185,38.282 28.864,91.811 40.582,120.145l0,0Zm30.999,17.297c5.134,-4.585 6.92,-11.855 4.496,-18.298c-7.095,-18.861 -29.702,-66.411 -39.572,-106.078c-2.892,-11.623 -4.719,-22.451 -4.228,-31.334c0.229,-4.144 0.084,-7.874 2.744,-9.627c4.144,-2.731 12.653,-4.522 24.598,-6.612c22.225,-3.89 54.51,-6.927 94.365,-9.404c271.253,-16.859 886.135,-6.898 1093.45,-38.245c51.258,-7.75 305.069,-31.699 471.502,-40.899c69.177,-3.823 122.784,-5.489 138.698,-1.682c152.08,36.38 172.552,102.004 290.9,209.118c66.83,60.488 137.323,139.819 161.607,235.669c34.143,134.765 20.445,317.704 22.278,454.841c6.562,490.892 19.311,1581.7 -48.527,2048.93c-9.975,68.704 -21.614,123.679 -35.426,160.827c-7.834,21.07 -15.54,35.956 -25.006,42.542c-69.86,48.612 -196.372,82.189 -335.59,107.13c-212.658,38.098 -454.84,55.107 -576.725,69.253c-211.64,24.562 -419.837,62.644 -629.316,103.755c-92.004,18.057 -194.538,60.219 -288.927,54.117c-88.947,-5.75 -251.993,-81.217 -382.939,-173.031c-86.245,-60.471 -158.819,-127.872 -185.329,-188.091c-31.779,-72.188 -39.085,-192.858 -37.076,-328.494c3.079,-207.872 28.953,-450.307 29.538,-612.204c0.882,-244.066 -27.866,-874.408 1.493,-1326.55c12.411,-191.136 34.8,-350.082 75.061,-432.816c18.861,-38.759 48.126,-65.836 79.286,-89.495c33.538,-25.464 69.297,-47.106 98.646,-73.322Z" style="fill:#7e4021;"/><path d="M1761.45,1123.33c351.413,0 620.419,366.606 600.346,818.161c-20.072,451.555 -321.67,818.161 -673.082,818.161c-351.413,0 -620.419,-366.606 -600.346,-818.161c20.072,-451.555 321.67,-818.161 673.082,-818.161Z" style="fill:#f7bf9a;"/><path d="M1761.45,1106.67c-194.403,0 -374.291,108.678 -501.794,281.982c-108.101,146.934 -178.524,340.313 -187.939,552.106c-9.373,210.873 43.355,403.505 137.52,550.311c112.367,175.184 283.646,285.257 479.477,285.257c194.403,-0 374.291,-108.677 501.793,-281.982c108.102,-146.933 178.525,-340.313 187.939,-552.106c9.374,-210.873 -43.355,-403.505 -137.519,-550.311c-112.367,-175.184 -283.646,-285.257 -479.477,-285.257Zm0,33.334c184.615,-0 345.488,104.769 451.419,269.92c90.817,141.587 141.317,327.458 132.277,530.834c-9.102,204.756 -76.979,391.781 -181.488,533.833c-120.844,164.254 -290.693,268.402 -474.944,268.402c-184.615,-0 -345.488,-104.77 -451.42,-269.921c-90.816,-141.586 -141.317,-327.458 -132.276,-530.834c9.101,-204.756 76.978,-391.781 181.488,-533.833c120.844,-164.254 290.693,-268.401 474.944,-268.401Z" style="fill:#7e4021;"/><path d="M2274.3,1310.95c-26.097,-14.127 -98.033,25.875 -120.458,43.234c-46.651,36.113 -95.99,70.315 -128.329,120.805c-69.617,108.691 27.054,129.391 106.423,72.219c53.409,-38.472 105.003,-94.513 133.761,-154.155c11.405,-23.653 32.753,-69.03 8.603,-82.103Z" style="fill:#ffeeda;"/><path d="M2282.24,1296.3c-10.667,-5.774 -26.926,-6.345 -45.329,-1.668c-33.708,8.566 -76.475,33.382 -93.266,46.38c-48.149,37.273 -98.782,72.883 -132.161,124.995c-33.831,52.82 -30.66,89.246 -14.119,108.644c10.963,12.855 28.737,20.161 50.646,20.227c27.307,0.084 61.816,-11.193 93.673,-34.14c55.555,-40.018 109.118,-98.4 139.032,-160.439c7.507,-15.569 18.62,-39.832 20.843,-59.758c2.195,-19.666 -3.63,-35.748 -19.319,-44.241Zm-15.868,29.314c1.956,1.059 2.103,3.247 2.252,5.482c0.268,4.018 -0.421,8.492 -1.511,13.133c-3.463,14.738 -11.148,30.654 -16.422,41.592c-27.603,57.246 -77.227,110.944 -128.49,147.87c-27.855,20.065 -57.902,29.897 -80.306,27.53c-9.308,-0.984 -17.122,-3.965 -20.959,-10.767c-3.1,-5.494 -3.433,-12.833 -1.584,-21.943c2.512,-12.373 9.064,-27.136 20.202,-44.525c31.3,-48.869 79.344,-81.663 124.496,-116.615c12.602,-9.756 41.922,-27.101 68.622,-36.594c8.175,-2.906 16.066,-5.081 23.054,-5.847c4.215,-0.462 7.938,-0.782 10.646,0.684l0,0Z" style="fill:#7e4021;"/><path d="M2277.62,1532.4c-19.66,-22.229 -100.958,-9.358 -127.98,-0.753c-56.214,17.899 -114.296,33.082 -162.005,69.399c-102.704,78.18 -19.017,130.813 75.157,104.368c63.372,-17.795 131.07,-52.714 178.558,-98.856c18.833,-18.299 54.464,-53.588 36.27,-74.158Z" style="fill:#ffeeda;"/><path d="M2290.11,1521.36c-8.036,-9.086 -23.111,-15.204 -42,-17.13c-34.601,-3.529 -83.288,5.095 -103.521,11.538c-58.02,18.475 -117.801,34.534 -167.043,72.018c-49.91,37.993 -59.44,73.294 -50.564,97.192c5.882,15.838 20.067,28.801 40.622,36.387c25.618,9.453 61.902,10.711 99.7,0.097c65.918,-18.51 136.27,-54.952 185.667,-102.949c12.396,-12.045 31.164,-31.017 40.094,-48.968c8.813,-17.717 8.865,-34.822 -2.955,-48.185Zm-24.968,22.084c1.473,1.666 0.86,3.771 0.233,5.921c-1.128,3.866 -3.311,7.832 -5.929,11.816c-8.312,12.653 -20.995,24.963 -29.704,33.425c-45.58,44.289 -110.625,77.684 -171.45,94.764c-33.05,9.281 -64.647,8.198 -84.876,-1.717c-8.404,-4.12 -14.719,-9.602 -15.988,-17.308c-1.025,-6.225 1.181,-13.232 6.046,-21.153c6.608,-10.759 17.831,-22.375 34.262,-34.882c46.176,-35.151 102.559,-49.456 156.967,-66.781c15.186,-4.835 48.679,-11.059 77.015,-10.807c8.676,0.077 16.834,0.744 23.661,2.424c4.117,1.013 7.723,1.991 9.763,4.298l0,-0Z" style="fill:#7e4021;"/><path d="M2046.58,1332.82c-29.064,-5.993 -86.393,53.069 -102.853,76.162c-34.242,48.04 -71.609,95.027 -88,152.703c-35.282,124.158 63.249,116.075 122.739,38.428c40.031,-52.25 73.254,-120.797 83.574,-186.202c4.093,-25.937 11.435,-75.545 -15.46,-81.091Z" style="fill:#ffeeda;"/><path d="M2049.95,1316.5c-11.881,-2.45 -27.612,1.696 -43.881,11.485c-29.802,17.932 -63.586,54.035 -75.91,71.326c-35.342,49.584 -73.543,98.292 -90.459,157.821c-17.147,60.336 -3.597,94.297 17.839,108.096c14.206,9.144 33.332,11.008 54.329,4.748c26.168,-7.802 55.954,-28.559 79.832,-59.724c41.64,-54.35 76.073,-125.707 86.807,-193.74c2.694,-17.073 6.331,-43.51 2.709,-63.23c-3.575,-19.462 -13.794,-33.179 -31.266,-36.782l-0,-0Zm-6.732,32.646c2.178,0.449 2.95,2.502 3.738,4.598c1.417,3.77 2.049,8.253 2.344,13.011c0.939,15.11 -1.826,32.567 -3.719,44.562c-9.905,62.776 -41.918,128.512 -80.341,178.663c-20.878,27.25 -46.809,45.336 -68.942,49.536c-9.196,1.745 -17.538,1.146 -23.175,-4.259c-4.554,-4.366 -6.992,-11.296 -7.85,-20.552c-1.166,-12.572 0.846,-28.598 6.49,-48.461c15.864,-55.823 52.398,-101.088 85.54,-147.585c9.25,-12.978 32.316,-38.048 55.14,-54.843c6.987,-5.142 13.915,-9.502 20.385,-12.253c3.902,-1.659 7.374,-3.039 10.39,-2.417Z" style="fill:#7e4021;"/><path d="M2107.26,1672.03c-18.033,-23.568 -100.039,-16.5 -127.604,-9.834c-57.342,13.865 -116.355,24.887 -166.522,57.727c-107.992,70.694 -28.252,129.134 67.562,109.439c64.474,-13.253 134.48,-43.28 185.123,-85.936c20.084,-16.916 58.129,-49.587 41.441,-71.396Z" style="fill:#ffeeda;"/><path d="M2120.5,1661.9c-7.372,-9.633 -21.974,-16.806 -40.679,-20.068c-34.263,-5.974 -83.439,-0.828 -104.079,4.163c-59.185,14.311 -119.955,26.088 -171.733,59.983c-52.48,34.354 -64.491,68.89 -57.334,93.358c4.744,16.215 17.973,30.153 37.938,39.178c24.882,11.247 60.985,15.077 99.441,7.172c67.066,-13.786 139.827,-45.143 192.505,-89.514c13.22,-11.134 33.287,-28.726 43.468,-45.999c10.048,-17.046 11.314,-34.104 0.473,-48.273Zm-26.473,20.257c1.351,1.766 0.59,3.823 -0.188,5.922c-1.399,3.777 -3.858,7.577 -6.752,11.366c-9.189,12.031 -22.714,23.41 -32.002,31.233c-48.608,40.942 -115.859,69.637 -177.742,82.358c-33.626,6.912 -65.066,3.589 -84.54,-7.737c-8.091,-4.705 -14.001,-10.622 -14.72,-18.399c-0.581,-6.282 2.117,-13.114 7.532,-20.67c7.355,-10.263 19.374,-21.053 36.651,-32.363c48.554,-31.785 105.81,-42.053 161.31,-55.473c15.491,-3.745 49.341,-7.576 77.589,-5.314c8.648,0.692 16.738,1.936 23.428,4.096c4.035,1.303 7.563,2.535 9.434,4.981Z" style="fill:#7e4021;"/><path d="M1840.94,1997.48c-18.033,-23.568 -100.039,-16.499 -127.604,-9.834c-57.342,13.866 -116.356,24.888 -166.522,57.728c-107.992,70.694 -28.252,129.133 67.561,109.438c64.475,-13.253 134.481,-43.279 185.124,-85.935c20.084,-16.917 58.129,-49.588 41.441,-71.397Z" style="fill:#ffeeda;"/><path d="M1854.18,1987.35c-7.371,-9.634 -21.973,-16.806 -40.678,-20.068c-34.263,-5.975 -83.44,-0.829 -104.079,4.162c-59.185,14.311 -119.955,26.088 -171.733,59.983c-52.481,34.355 -64.491,68.89 -57.334,93.358c4.743,16.215 17.973,30.153 37.938,39.178c24.882,11.248 60.985,15.078 99.441,7.173c67.066,-13.786 139.827,-45.144 192.505,-89.514c13.22,-11.135 33.287,-28.727 43.468,-45.999c10.048,-17.047 11.314,-34.105 0.472,-48.273Zm-26.472,20.256c1.351,1.766 0.59,3.823 -0.188,5.923c-1.4,3.776 -3.858,7.577 -6.752,11.366c-9.19,12.031 -22.715,23.41 -32.002,31.232c-48.608,40.942 -115.859,69.637 -177.742,82.358c-33.626,6.912 -65.066,3.59 -84.54,-7.736c-8.092,-4.706 -14.002,-10.623 -14.72,-18.399c-0.581,-6.282 2.117,-13.115 7.532,-20.671c7.354,-10.262 19.373,-21.053 36.651,-32.363c48.554,-31.785 105.81,-42.052 161.31,-55.472c15.491,-3.746 49.341,-7.577 77.588,-5.315c8.649,0.692 16.739,1.937 23.429,4.097c4.035,1.303 7.562,2.534 9.434,4.98Z" style="fill:#7e4021;"/><path d="M1968.31,1806.57c-20.125,-21.809 -101.133,-7.226 -127.968,1.947c-55.823,19.082 -113.573,35.487 -160.505,72.803c-101.03,80.329 -16.252,131.185 77.343,102.759c62.982,-19.129 129.929,-55.468 176.433,-102.603c18.442,-18.692 53.32,-54.725 34.697,-74.906Z" style="fill:#ffeeda;"/><path d="M1980.56,1795.27c-8.226,-8.915 -23.427,-14.713 -42.352,-16.241c-34.668,-2.797 -83.162,6.852 -103.255,13.72c-57.617,19.696 -117.046,37.013 -165.486,75.528c-49.098,39.037 -57.88,74.531 -48.502,98.237c6.215,15.71 20.671,28.372 41.381,35.522c25.812,8.911 62.114,9.403 99.68,-2.007c65.513,-19.897 135.08,-57.816 183.453,-106.844c12.139,-12.304 30.503,-31.668 39.052,-49.803c8.437,-17.899 8.128,-35.001 -3.971,-48.112Zm-24.497,22.606c1.508,1.634 0.94,3.752 0.358,5.915c-1.046,3.889 -3.145,7.9 -5.678,11.939c-8.043,12.825 -20.464,25.4 -28.992,34.044c-44.636,45.24 -108.961,80.001 -169.412,98.361c-32.848,9.976 -64.46,9.56 -84.893,0.074c-8.49,-3.942 -14.92,-9.29 -16.35,-16.967c-1.156,-6.202 0.902,-13.254 5.598,-21.276c6.379,-10.896 17.354,-22.746 33.518,-35.598c45.424,-36.117 101.493,-51.608 155.523,-70.077c15.08,-5.155 48.435,-12.084 76.77,-12.43c8.675,-0.107 16.846,0.388 23.706,1.924c4.138,0.926 7.764,1.828 9.852,4.091Z" style="fill:#7e4021;"/><path d="M1701.99,2132.02c-20.125,-21.809 -101.132,-7.225 -127.967,1.948c-55.823,19.082 -113.573,35.486 -160.505,72.802c-101.031,80.33 -16.252,131.186 77.343,102.759c62.982,-19.128 129.929,-55.468 176.433,-102.602c18.442,-18.692 53.32,-54.725 34.696,-74.907Z" style="fill:#ffeeda;"/><path d="M1714.24,2120.72c-8.227,-8.914 -23.427,-14.713 -42.352,-16.24c-34.668,-2.797 -83.162,6.851 -103.255,13.72c-57.617,19.695 -117.046,37.013 -165.486,75.528c-49.098,39.037 -57.88,74.531 -48.502,98.237c6.215,15.709 20.671,28.371 41.381,35.521c25.812,8.911 62.114,9.403 99.68,-2.006c65.512,-19.898 135.08,-57.816 183.453,-106.845c12.139,-12.304 30.502,-31.667 39.052,-49.803c8.437,-17.899 8.128,-35.001 -3.971,-48.112l-0,0Zm-24.497,22.606c1.508,1.634 0.94,3.753 0.358,5.915c-1.046,3.889 -3.145,7.9 -5.678,11.939c-8.043,12.825 -20.464,25.4 -28.992,34.044c-44.636,45.24 -108.961,80.001 -169.412,98.361c-32.848,9.976 -64.46,9.56 -84.894,0.074c-8.489,-3.941 -14.919,-9.289 -16.35,-16.967c-1.156,-6.202 0.902,-13.254 5.599,-21.275c6.379,-10.896 17.354,-22.747 33.518,-35.598c45.424,-36.117 101.493,-51.609 155.523,-70.078c15.08,-5.155 48.434,-12.084 76.77,-12.43c8.675,-0.106 16.845,0.389 23.706,1.924c4.138,0.926 7.764,1.828 9.852,4.091Z" style="fill:#7e4021;"/><path d="M1899.7,1471.96c-29.666,-0.788 -75.714,67.435 -87.856,93.064c-25.26,53.313 -53.781,106.14 -59.772,165.799c-12.898,128.428 82.676,103.142 127.583,16.243c30.219,-58.476 50.869,-131.797 49.525,-197.997c-0.532,-26.253 -2.029,-76.379 -29.48,-77.109Z" style="fill:#ffeeda;"/><path d="M1900.14,1455.3c-12.126,-0.322 -26.883,6.527 -41.177,19.024c-26.184,22.893 -53.091,64.375 -62.183,83.565c-26.071,55.026 -55.11,109.693 -61.294,171.269c-6.267,62.412 13.043,93.461 36.573,103.274c15.592,6.503 34.748,4.974 54.316,-4.881c24.389,-12.282 50.06,-37.954 68.084,-72.832c31.434,-60.826 52.78,-137.127 51.383,-205.988c-0.351,-17.28 -1.42,-43.945 -8.454,-62.72c-6.942,-18.531 -19.414,-30.237 -37.248,-30.711Zm-0.885,33.322c2.223,0.059 3.344,1.944 4.488,3.869c2.058,3.462 3.468,7.764 4.596,12.396c3.581,14.709 3.93,32.381 4.176,44.521c1.29,63.54 -18.664,133.881 -47.668,190.008c-15.761,30.497 -38.107,52.861 -59.156,60.888c-8.746,3.336 -17.063,4.213 -23.563,-0.116c-5.25,-3.497 -8.869,-9.891 -11.342,-18.851c-3.359,-12.171 -4.197,-28.301 -2.133,-48.848c5.799,-57.742 33.802,-108.727 58.25,-160.328c6.824,-14.402 25.121,-43.138 44.636,-63.686c5.975,-6.29 12.027,-11.8 17.913,-15.646c3.549,-2.32 6.725,-4.289 9.803,-4.207Z" style="fill:#7e4021;"/><path d="M1633.38,1797.42c-29.665,-0.789 -75.713,67.435 -87.856,93.063c-25.259,53.314 -53.78,106.14 -59.772,165.799c-12.897,128.428 82.677,103.143 127.584,16.244c30.219,-58.476 50.869,-131.798 49.525,-197.998c-0.533,-26.253 -2.029,-76.379 -29.481,-77.108Z" style="fill:#ffeeda;"/><path d="M1633.83,1780.76c-12.126,-0.322 -26.883,6.526 -41.177,19.024c-26.184,22.893 -53.091,64.375 -62.183,83.564c-26.071,55.027 -55.11,109.694 -61.294,171.27c-6.268,62.411 13.043,93.46 36.572,103.273c15.593,6.503 34.749,4.975 54.317,-4.88c24.388,-12.283 50.06,-37.954 68.084,-72.833c31.433,-60.826 52.78,-137.127 51.382,-205.987c-0.35,-17.281 -1.419,-43.946 -8.453,-62.721c-6.942,-18.53 -19.414,-30.236 -37.248,-30.71l0,-0Zm-0.885,33.321c2.223,0.059 3.344,1.944 4.488,3.869c2.057,3.462 3.468,7.764 4.596,12.396c3.581,14.709 3.93,32.381 4.176,44.521c1.289,63.54 -18.664,133.882 -47.669,190.008c-15.76,30.497 -38.106,52.862 -59.155,60.889c-8.746,3.335 -17.063,4.212 -23.563,-0.117c-5.251,-3.497 -8.869,-9.89 -11.342,-18.851c-3.359,-12.171 -4.197,-28.301 -2.133,-48.847c5.799,-57.743 33.802,-108.728 58.25,-160.329c6.824,-14.402 25.121,-43.137 44.636,-63.685c5.974,-6.291 12.027,-11.801 17.912,-15.647c3.55,-2.319 6.725,-4.288 9.804,-4.207Z" style="fill:#7e4021;"/><path d="M1743.22,1626.45c-29.612,1.945 -69.189,74.115 -78.922,100.752c-20.247,55.411 -43.788,110.638 -44.265,170.595c-1.028,129.07 91.815,95.099 128.537,4.437c24.711,-61.009 38.528,-135.919 31.099,-201.714c-2.945,-26.093 -9.047,-75.869 -36.449,-74.07Z" style="fill:#ffeeda;"/><path d="M1742.13,1609.82c-12.105,0.795 -26.169,8.972 -39.253,22.732c-23.966,25.205 -46.943,68.986 -54.231,88.931c-20.898,57.192 -44.784,114.298 -45.277,176.182c-0.499,62.723 21.586,91.864 45.918,99.471c16.125,5.041 35.059,1.756 53.638,-9.857c23.154,-14.474 46.355,-42.399 61.094,-78.787c25.704,-63.46 39.94,-141.401 32.214,-209.841c-1.939,-17.175 -5.457,-43.629 -14.188,-61.677c-8.618,-17.813 -22.113,-28.322 -39.915,-27.154l-0,0Zm2.184,33.262c2.219,-0.146 3.509,1.628 4.825,3.44c2.367,3.258 4.167,7.411 5.717,11.92c4.919,14.318 6.892,31.882 8.254,43.948c7.13,63.152 -6.268,135.031 -29.986,193.588c-12.887,31.818 -33.081,56.143 -53.303,66.073c-8.402,4.125 -16.603,5.764 -23.473,2.051c-5.55,-2.999 -9.742,-9.032 -13.028,-17.727c-4.465,-11.81 -6.783,-27.795 -6.619,-48.445c0.462,-58.031 23.657,-111.376 43.254,-165.007c5.469,-14.969 21.045,-45.266 38.587,-67.522c5.37,-6.814 10.89,-12.857 16.397,-17.228c3.321,-2.636 6.302,-4.889 9.375,-5.091Z" style="fill:#7e4021;"/><path d="M1476.91,1951.91c-29.612,1.944 -69.189,74.115 -78.922,100.751c-20.247,55.412 -43.788,110.638 -44.265,170.595c-1.028,129.07 91.815,95.099 128.537,4.437c24.71,-61.008 38.527,-135.918 31.099,-201.714c-2.946,-26.093 -9.047,-75.868 -36.449,-74.069Z" style="fill:#ffeeda;"/><path d="M1475.82,1935.28c-12.105,0.795 -26.169,8.972 -39.253,22.731c-23.966,25.205 -46.944,68.987 -54.231,88.931c-20.898,57.192 -44.785,114.299 -45.277,176.182c-0.5,62.724 21.586,91.864 45.918,99.471c16.125,5.041 35.059,1.757 53.637,-9.857c23.155,-14.473 46.356,-42.398 61.095,-78.787c25.704,-63.46 39.94,-141.401 32.214,-209.841c-1.939,-17.175 -5.457,-43.628 -14.189,-61.677c-8.617,-17.813 -22.113,-28.322 -39.914,-27.153l-0,-0Zm2.183,33.262c2.219,-0.146 3.51,1.628 4.826,3.439c2.367,3.258 4.167,7.412 5.716,11.921c4.92,14.317 6.892,31.882 8.255,43.948c7.129,63.152 -6.268,135.03 -29.986,193.587c-12.888,31.818 -33.081,56.143 -53.303,66.073c-8.402,4.126 -16.603,5.764 -23.474,2.052c-5.55,-3 -9.741,-9.033 -13.028,-17.728c-4.464,-11.81 -6.782,-27.795 -6.618,-48.444c0.462,-58.031 23.656,-111.376 43.253,-165.008c5.47,-14.969 21.046,-45.265 38.588,-67.521c5.37,-6.814 10.89,-12.858 16.397,-17.229c3.321,-2.636 6.302,-4.889 9.374,-5.09l0,-0Z" style="fill:#7e4021;"/><path d="M1987.21,1819.68c3.732,-2.552 30.541,-20.89 31.902,-21.888c88.304,-64.77 173.657,-133.566 252.357,-209.821c4.955,-4.801 5.08,-12.721 0.279,-17.676c-4.801,-4.954 -12.721,-5.079 -17.675,-0.279c-77.881,75.462 -162.362,143.521 -249.747,207.617c-1.554,1.14 -29.045,19.077 -34.228,23.722c-6.325,5.667 -4.953,12.097 -4.486,13.731c1.895,6.633 8.819,10.48 15.453,8.585c2.495,-0.713 4.596,-2.138 6.145,-3.991Z" style="fill:#7e4021;"/><path d="M1378.88,2296.13c-54.856,58.602 -178.106,227.021 -219.365,324.153c-3.597,8.466 0.357,18.259 8.824,21.856c8.466,3.596 18.26,-0.358 21.856,-8.824c40.033,-94.246 159.794,-257.544 213.02,-314.405c6.286,-6.716 5.938,-17.271 -0.778,-23.558c-6.715,-6.286 -17.271,-5.937 -23.557,0.778Z" style="fill:#7e4021;"/><path d="M301.726,120.138c-0.354,-1.718 -0.992,-3.407 -1.926,-5.004c-8.136,-13.911 -21.057,-7.576 -22.464,-6.84c-2.728,1.426 -10.705,6.211 -8.707,17.73c0.243,1.403 3.769,10.643 5.651,13.95c3.243,5.701 7.184,11.055 10.916,16.436c11.261,16.236 23.698,31.793 36.746,46.624c36.977,42.031 79.809,80.141 125.003,113.103c71.811,52.375 171.899,96.68 220.466,174.192c13.051,20.83 17.072,39.985 13.936,57.22c-3.148,17.298 -13.288,32.383 -27.007,45.121c-30.159,28.001 -77.382,44.772 -116.585,46.447c-9.19,0.393 -16.332,8.173 -15.94,17.363c0.393,9.19 8.173,16.333 17.364,15.94c46.398,-1.983 102.147,-22.182 137.841,-55.323c19.208,-17.834 32.714,-39.362 37.121,-63.58c4.419,-24.282 -0.096,-51.541 -18.484,-80.887c-50.724,-80.954 -154.069,-128.723 -229.07,-183.425c-43.24,-31.536 -84.24,-67.975 -119.618,-108.188c-12.205,-13.873 -23.849,-28.416 -34.382,-43.603c-3.17,-4.572 -6.579,-9.079 -9.334,-13.922c-0.364,-0.64 -1.021,-2.147 -1.527,-3.354Zm-30.296,12.476l-0.403,-0.651c0.136,0.232 0.27,0.449 0.403,0.651Z" style="fill:#7e4021;"/><path d="M1202.25,583.523c382.251,-14.734 834.53,0.641 1205.89,-83.44c8.971,-2.032 14.606,-10.964 12.575,-19.936c-2.032,-8.971 -10.965,-14.606 -19.936,-12.575c-369.478,83.656 -819.493,67.983 -1199.81,82.643c-9.192,0.354 -16.366,8.104 -16.012,17.296c0.354,9.192 8.104,16.367 17.296,16.012Z" style="fill:#7e4021;"/><path d="M119.713,482.4c36.301,65.329 126.68,97.125 195.54,110.172c9.038,1.712 17.766,-4.235 19.479,-13.273c1.712,-9.038 -4.235,-17.765 -13.273,-19.478c-60.245,-11.415 -140.85,-36.456 -172.609,-93.612c-4.468,-8.04 -14.623,-10.941 -22.664,-6.473c-8.04,4.468 -10.941,14.623 -6.473,22.664Z" style="fill:#7e4021;"/><path d="M719.2,895.736c3.287,93.811 -0.201,425.627 1.561,519.481c5.141,273.858 17.471,911.608 16.335,1185.49c-0.038,9.199 7.399,16.698 16.597,16.736c9.199,0.038 16.698,-7.399 16.736,-16.597c1.137,-274.06 -11.196,-912.221 -16.34,-1186.26c-1.764,-93.951 1.715,-426.113 -1.576,-520.022c-0.322,-9.193 -8.047,-16.395 -17.24,-16.073c-9.193,0.322 -16.395,8.047 -16.073,17.24Z" style="fill:#7e4021;"/><path d="M736.005,2788.07c-0.575,8.479 -0.933,16.963 -1.314,25.452c-1.368,30.545 -2.896,61.082 -3.918,91.642c-2.775,82.979 -5.084,165.958 -6.85,248.964c-0.196,9.196 7.112,16.821 16.308,17.017c9.197,0.196 16.822,-7.112 17.018,-16.308c1.763,-82.871 4.068,-165.715 6.839,-248.559c1.018,-30.434 2.541,-60.845 3.903,-91.264c0.377,-8.419 0.729,-16.832 1.306,-25.24c0.074,-1.079 -0.057,-3.311 -0.213,-5.33c2.219,-6.51 0.232,-13.993 -5.48,-18.481c-5.651,-4.438 -10.679,-4.201 -14.068,-3.569c-4.55,0.849 -8.564,3.221 -11.424,7.859c-1.2,1.945 -2.592,5.154 -2.71,9.525c-0.053,1.954 0.506,7.374 0.603,8.292Zm8.941,5.418l0.069,0.038l-0.429,-0.257l0.36,0.219Zm-0.636,-0.387l0.065,0.039l-0.608,-0.406l0.543,0.367Zm-0.617,-0.417l-0.68,-0.507c0.228,0.179 0.454,0.348 0.68,0.507Z" style="fill:#7e4021;"/><path d="M140.57,3072.53c23.852,1.004 54.495,-13.408 75.22,-22.916c84.633,-38.827 130.117,-94.561 154.767,-211.817c23.38,-111.212 27.697,-280.384 31.023,-549.086c0.114,-9.197 -7.261,-16.757 -16.459,-16.871c-9.198,-0.114 -16.758,7.261 -16.872,16.459c-3.287,265.538 -7.208,432.737 -30.312,542.641c-21.835,103.861 -61.081,153.985 -136.046,188.377c-16.641,7.634 -40.767,20.716 -59.918,19.909c-9.191,-0.387 -16.966,6.761 -17.353,15.951c-0.387,9.19 6.76,16.966 15.95,17.353Z" style="fill:#7e4021;"/><path d="M331.142,2852.43c-7.751,23.94 -8.79,63.37 -9.419,77.696c-7.444,169.37 68.539,241.33 199.034,337.755c7.398,5.466 17.843,3.898 23.309,-3.5c5.467,-7.398 3.898,-17.843 -3.5,-23.309c-120.111,-88.751 -192.394,-153.59 -185.542,-309.482c0.558,-12.692 0.964,-47.684 7.831,-68.892c2.833,-8.752 -1.971,-18.157 -10.722,-20.991c-8.752,-2.833 -18.157,1.971 -20.991,10.723Z" style="fill:#7e4021;"/><path d="M322.262,278.34c-0.672,-4.41 -3.105,-8.54 -7.08,-11.249c-7.6,-5.181 -17.978,-3.217 -23.159,4.383c-2.119,3.109 -3.475,6.995 -3.122,11.839c0.277,3.809 2.884,11.061 9.888,19.327c19.454,22.964 79.772,71.369 122.745,89.673c8.462,3.604 18.26,-0.34 21.864,-8.803c3.605,-8.463 -0.339,-18.26 -8.802,-21.865c-30.646,-13.052 -70.954,-43.126 -95.343,-65.418c-7.197,-6.578 -14.391,-14.831 -16.991,-17.887Zm-2.134,11.021l-0.063,0.109l0.015,-0.024l0.048,-0.085Z" style="fill:#7e4021;"/></g></svg>