<?xml version="1.0" encoding="UTF-8" standalone="no"?><!DOCTYPE svg PUBLIC "-//W3C//DTD SVG 1.1//EN" "http://www.w3.org/Graphics/SVG/1.1/DTD/svg11.dtd"><svg width="100%" height="100%" viewBox="0 0 2819 3845" version="1.1" xmlns="http://www.w3.org/2000/svg" xmlns:xlink="http://www.w3.org/1999/xlink" xml:space="preserve" xmlns:serif="http://www.serif.com/" style="fill-rule:evenodd;clip-rule:evenodd;stroke-linejoin:round;stroke-miterlimit:2;"><g id="Flour-sack" serif:id="Flour sack"><path d="M610.002,141.003c-68.493,91.101 145.963,332.086 275.178,427.197c89.949,66.209 218.37,285.442 206.887,351.739c-16.705,96.444 -351.323,126.554 -519.915,440.004c-209.027,388.623 -96.146,748.587 -211.898,1041.53c-86.838,219.768 -470.658,977.301 -300.303,1224.17c216.021,313.047 580.038,166.167 906.071,171.366c359.954,5.741 806.952,55.91 1185.97,13.914c307.05,-34.023 566.746,-57.726 643.549,-322.985c67.678,-233.742 -374.932,-924.078 -545.655,-1865.5c-87.939,-484.919 -519.106,-707.085 -744.159,-764.831c-140.633,-180.589 299.83,-912.434 -135.144,-769.849c-157.805,51.729 -292.602,-24.992 -445.055,-63.063c-107.476,-26.839 -244.41,21.718 -315.522,116.304Z" style="fill:#ebccb8;"/><path d="M596.68,130.987c-23.538,31.308 -20.532,78.153 2.885,131.219c48.687,110.331 183.409,251.458 275.735,319.417c61.243,45.079 140.44,163.361 178.844,252.229c15.247,35.28 24.604,65.322 21.5,83.243c-1.914,11.053 -9.999,20.474 -21.597,30.148c-14.465,12.068 -34.246,23.751 -57.677,36.347c-116.675,62.727 -318.88,145.321 -438.897,368.458c-105.786,196.678 -130.346,386.045 -142.873,563.365c-12.25,173.377 -12.568,334.975 -69.846,479.934c-60.991,154.353 -267.778,573.172 -327.861,895.486c-26.643,142.925 -23.716,267.388 29.34,344.275c111.592,161.714 261.152,205.161 425.178,208.324c158.778,3.061 331.31,-32.359 494.345,-29.759c360.591,5.751 808.383,55.884 1188.07,13.814c155.097,-17.186 298.191,-32.004 412.254,-75.784c117.801,-45.215 205.402,-120.75 245.468,-259.13c20.911,-72.22 -4.058,-187.001 -55.996,-338.151c-117.485,-341.907 -369.949,-876.991 -489.269,-1534.95c-88.67,-488.953 -520.236,-715.465 -750.607,-776.487c-12.91,-18.929 -19.172,-43.929 -21.373,-72.993c-2.574,-33.987 0.604,-73.273 6.927,-115.481c19.623,-130.972 69.253,-289.108 80.915,-407.735c7.051,-71.719 -0.712,-129.784 -31.913,-162.532c-31.593,-33.161 -88.784,-43.804 -184.842,-12.316c-75.705,24.816 -145.894,18.543 -215.438,1.778c-72.439,-17.463 -144.207,-46.15 -220.388,-65.174c-113.362,-28.309 -257.875,22.692 -332.882,122.458l0,0Zm26.643,20.031c67.218,-89.406 196.573,-135.518 298.163,-110.149c76.271,19.047 148.128,47.755 220.652,65.239c75.42,18.181 151.532,24.404 233.633,-2.509c40.929,-13.416 73.575,-18.872 99.4,-17.175c22.496,1.479 39.199,8.501 50.926,20.809c12.197,12.803 18.983,30.816 22.462,52.451c3.882,24.144 3.487,52.539 0.411,83.828c-11.615,118.145 -61.164,275.617 -80.707,406.057c-13.876,92.616 -11.563,172.216 24.31,218.282c2.267,2.91 5.435,4.987 9.008,5.903c221.259,56.773 645.445,274.917 731.902,751.662c119.693,660.021 372.69,1196.86 490.543,1539.84c48.922,142.374 75.198,250.021 55.502,318.048c-36.736,126.879 -117.385,195.824 -225.395,237.281c-111.749,42.892 -252.028,56.936 -403.98,73.773c-378.343,41.922 -824.549,-8.281 -1183.87,-14.012c-162.999,-2.6 -335.492,32.821 -494.235,29.76c-153.497,-2.959 -293.956,-42.594 -398.385,-193.928c-49.158,-71.238 -48.692,-186.811 -24.006,-319.234c59.681,-320.16 265.51,-736.024 326.093,-889.346c58.473,-147.983 59.59,-312.838 72.095,-489.834c12.226,-173.053 35.739,-357.979 138.98,-549.925c116.013,-215.692 312.542,-294.254 425.324,-354.887c31.213,-16.781 56.369,-32.441 72.754,-48.734c13.101,-13.03 21.037,-26.745 23.581,-41.432c3.786,-21.861 -5.147,-59.117 -23.746,-102.156c-40.564,-93.863 -124.997,-218.237 -189.683,-265.85c-88.574,-65.197 -218.29,-200.182 -264.999,-306.029c-9.325,-21.133 -15.281,-40.963 -16.391,-58.674c-0.945,-15.087 1.668,-28.436 9.653,-39.057l0,0Z" style="fill:#7e4021;"/><path d="M2592.38,3630.36c12.409,-6.205 24.239,-13.451 35.585,-21.421c36.03,-25.309 63.507,-50.517 77.966,-93.24c2.949,-8.713 -1.73,-18.181 -10.444,-21.13c-8.713,-2.949 -18.181,1.731 -21.13,10.444c-11.998,35.452 -35.654,55.648 -65.552,76.65c-9.993,7.02 -20.404,13.418 -31.333,18.884c-8.228,4.114 -11.567,14.133 -7.453,22.361c4.114,8.227 14.134,11.566 22.361,7.452Z" style="fill:#7e4021;"/><path d="M592.379,174.711c5.218,5.428 11.605,9.859 17.879,13.947c15.218,9.919 31.678,17.393 48.915,23.084c57.19,18.882 115.421,23.072 175.243,19.859c75.608,-4.061 150.391,-29.243 226.418,-22.177c71.539,6.648 150.889,42.202 227.255,58.622c83.01,17.849 162.433,14.016 227.008,-61.121c21.876,-25.454 46.396,-66.374 42.579,-102.181c-0.976,-9.146 -9.193,-15.781 -18.34,-14.806c-9.147,0.976 -15.781,9.193 -14.806,18.34c2.91,27.298 -18.036,57.515 -34.713,76.921c-55.239,64.274 -123.712,65.527 -194.721,50.258c-77.651,-16.696 -158.435,-52.463 -231.177,-59.224c-77.646,-7.215 -154.075,17.935 -231.29,22.083c-55.636,2.988 -109.818,-0.666 -163.006,-18.227c-14.496,-4.786 -28.366,-11.015 -41.165,-19.356c-4.18,-2.725 -8.57,-5.505 -12.047,-9.122c-6.375,-6.632 -16.934,-6.84 -23.566,-0.466c-6.632,6.375 -6.84,16.934 -0.466,23.566Z" style="fill:#7e4021;"/><path d="M2723.7,3452.03c10.218,-37.265 16.349,-102.776 -27.321,-188.461c-4.177,-8.195 -14.222,-11.458 -22.417,-7.281c-8.196,4.177 -11.458,14.222 -7.281,22.417c38.154,74.863 33.8,131.952 24.872,164.511c-2.432,8.871 2.795,18.048 11.666,20.48c8.871,2.433 18.048,-2.794 20.481,-11.666Z" style="fill:#7e4021;"/><path d="M1491.6,832.948c-3.484,3.936 -22.281,25.117 -24.94,27.19c-64.238,50.041 -147.407,72.309 -228.196,67.897c-45.657,-2.493 -100.743,-7.997 -143.97,-25.077c-8.555,-3.381 -18.245,0.82 -21.625,9.375c-3.381,8.555 0.821,18.245 9.376,21.626c46.382,18.327 105.411,24.684 154.402,27.36c88.718,4.845 179.955,-19.932 250.497,-74.885c4.072,-3.172 30.79,-31.176 34.795,-39.144c3.996,-7.951 1.724,-14.128 0.062,-17.138c-4.444,-8.053 -14.591,-10.983 -22.645,-6.539c-3.817,2.107 -6.483,5.495 -7.756,9.335Z" style="fill:#7e4021;"/><path d="M1013.71,283.932c1.068,-1.827 1.801,-3.891 2.106,-6.117c1.248,-9.114 -5.138,-17.526 -14.251,-18.774c-8.288,-1.135 -19.868,2.943 -21.376,19.526c-1.248,13.718 6.541,49.725 7.207,51.631c6.064,17.332 14.314,33.811 23.032,49.936c26.647,49.288 64.931,89.876 98.659,134.199c34.668,45.558 62.296,96.412 86.389,148.235c3.877,8.341 13.798,11.965 22.139,8.087c8.341,-3.878 11.965,-13.798 8.087,-22.139c-25.098,-53.986 -53.974,-106.908 -90.089,-154.369c-32.685,-42.953 -70.039,-82.101 -95.863,-129.866c-7.878,-14.571 -15.411,-29.427 -20.89,-45.09c-0.41,-1.174 -4.036,-27.214 -5.15,-35.259Zm-13.304,8.254c-1.102,0.072 -2.228,0.036 -3.364,-0.12c1.164,0.159 2.285,0.198 3.364,0.12Z" style="fill:#7e4021;"/><path d="M1246.01,739.119c-0.045,-0.338 -0.105,-0.676 -0.175,-1.013c-1.875,-9.006 -10.708,-14.796 -19.713,-12.921c-0.12,0.025 -15.706,5.01 -12.855,20.105c0.755,3.999 4.676,24.051 4.984,25.766c1.624,9.053 10.294,15.085 19.348,13.461c9.054,-1.625 15.086,-10.295 13.461,-19.349c-0.311,-1.734 -5.039,-26.064 -5.039,-26.064l-0.011,0.015Z" style="fill:#7e4021;"/><path d="M1303.48,346.285c-0.716,3.423 -1.738,8.587 -1.905,10.747c-0.74,9.568 -0.958,19.157 -0.99,28.75c-0.084,25.413 1.328,50.827 3.346,76.152c5.896,73.991 31.407,148.83 29.119,223.213c-0.283,9.195 6.952,16.889 16.146,17.172c9.194,0.282 16.888,-6.953 17.171,-16.147c2.325,-75.59 -23.216,-151.694 -29.208,-226.886c-1.945,-24.408 -3.322,-48.901 -3.241,-73.394c0.029,-8.772 0.214,-17.541 0.891,-26.29c0.191,-2.47 1.662,-7.868 2.144,-10.553c0.519,-2.891 0.476,-5.076 0.38,-6.114c-0.89,-9.618 -7.269,-12.958 -10.962,-14.304c-2.262,-0.824 -13.856,-4.809 -20.984,8.563c-1.543,2.895 -2.144,6.042 -1.907,9.091Zm28.305,10.631l-0.221,0.208l0.081,-0.07l0.14,-0.138Zm2.111,-2.539c-0.614,0.909 -1.306,1.742 -2.064,2.493c0.701,-0.666 1.403,-1.483 2.064,-2.493Zm0.414,-0.647l-0.351,0.552l0.242,-0.363l0.109,-0.189Z" style="fill:#7e4021;"/><path d="M1217.21,944.963c-3.396,1.653 -8.477,4.086 -12.014,5.646c-6.609,2.913 -12.705,6.193 -16.829,9.771c-37.923,32.901 -133.259,127.785 -161.533,207.58c-14.127,39.869 -12.054,76.354 14.228,102.895c11.976,12.094 24.452,17.676 36.752,18.821c17.479,1.627 35.527,-6.073 52.554,-21.451c38.183,-34.488 73.042,-110.407 92.066,-160.833c2.896,16.065 6.372,32.292 10.371,48.093c-0.29,5.547 -0.681,11.11 -1.192,16.699c-10.774,117.933 -45.367,228.485 -85.342,339.265c-3.123,8.652 1.367,18.212 10.02,21.334c8.652,3.122 18.212,-1.368 21.334,-10.02c34.611,-95.912 65.119,-191.698 80.391,-291.98c4.198,9.357 8.633,17.923 13.284,25.463c15.201,24.64 33.612,38.863 52.235,40.502c13.631,1.201 28.4,-3.562 43.348,-17.951c37.065,-35.679 33.653,-96.532 10.314,-156.11c-22.649,-57.818 -62.578,-114.058 -90.817,-140.245c-10.568,-9.801 -20.183,-15.705 -27.195,-17.769c-2.322,-0.683 -4.529,-1.061 -6.612,-1.181c0.119,-0.865 0.216,-1.658 0.261,-2.274c0.244,-3.327 -0.262,-5.786 -0.603,-6.99c-0.213,-0.75 -0.456,-1.453 -0.725,-2.112l0.004,-0.04c0.394,-4.352 -0.368,-9.105 -3.347,-14.153c-4.675,-7.922 -14.902,-10.558 -22.824,-5.883c-4.818,2.843 -7.681,7.739 -8.129,12.923Zm44.227,61.41c1.536,49.299 6.918,97.153 4.841,146.544c8.745,33.38 20.032,64.171 33.392,85.828c4.862,7.883 9.931,14.438 15.376,19.071c3.683,3.134 7.383,5.373 11.413,5.727c5.635,0.497 11.127,-2.811 17.307,-8.761c19.043,-18.33 21.005,-46.076 15.434,-75.893c-9.585,-51.299 -42.442,-108.609 -72.035,-146.022c-8.014,-10.13 -18.072,-19.734 -25.728,-26.494Zm-48.08,-22.95c-1.19,0.661 -2.258,1.365 -3.146,2.135c-30.607,26.554 -101.346,95.656 -137.666,162.2c-11.222,20.561 -19.167,40.758 -20.771,59.217c-1.337,15.393 2.035,29.38 12.974,40.426c5.376,5.429 10.634,8.571 16.155,9.085c5.537,0.516 10.989,-1.552 16.479,-4.896c10.242,-6.238 20.13,-16.787 29.693,-29.519c39.764,-52.938 71.723,-142.683 77.156,-165.496c2.933,-12.314 5.809,-24.781 8.203,-37.308c-0.426,-13.311 -0.086,-25.419 0.923,-35.844Z" style="fill:#7e4021;"/><path d="M968.377,1700.73c8.446,-331.837 94.33,-457.332 263.795,-722.301c4.957,-7.749 2.689,-18.064 -5.06,-23.02c-7.749,-4.957 -18.065,-2.689 -23.021,5.06c-173.404,271.127 -260.394,399.863 -269.037,739.412c-0.234,9.196 7.042,16.852 16.237,17.086c9.196,0.234 16.852,-7.042 17.086,-16.237Z" style="fill:#7e4021;"/></g></svg>