<?xml version="1.0" encoding="UTF-8" standalone="no"?><!DOCTYPE svg PUBLIC "-//W3C//DTD SVG 1.1//EN" "http://www.w3.org/Graphics/SVG/1.1/DTD/svg11.dtd"><svg width="100%" height="100%" viewBox="0 0 1618 1594" version="1.1" xmlns="http://www.w3.org/2000/svg" xmlns:xlink="http://www.w3.org/1999/xlink" xml:space="preserve" xmlns:serif="http://www.serif.com/" style="fill-rule:evenodd;clip-rule:evenodd;stroke-linejoin:round;stroke-miterlimit:2;"><g id="Flower-Smile-02"><path d="M866.779,472.496c26.494,-121.545 130.658,-321.889 232.079,-389.532c87.331,-58.245 191.373,-64.56 208.197,58.889c15.029,110.28 -112.871,234.998 -181.126,317.175c-24.428,29.41 -49.771,57.922 -75.444,86.24c-3.374,3.722 -22.829,19.71 -22.144,25.421c0.815,6.795 11.937,-6.717 17.668,-10.457c12.28,-8.011 24.809,-15.652 37.358,-23.231c35.991,-21.735 72.61,-42.826 110.095,-61.883c84.941,-43.182 188.944,-72.194 284.692,-60.262c42.663,5.316 97.917,24.645 116.634,67.527c27.668,63.39 -42.353,119.078 -90.677,143.968c-118.882,61.233 -257.648,69.319 -388.215,86.111l-249.117,-239.966Z" style="fill:#fff;"/><path d="M1112.87,500.163c8.725,-10.067 17.36,-20.222 25.885,-30.486c41.416,-49.864 104.436,-115.304 145.031,-183.697c28.843,-48.594 46.267,-98.833 39.788,-146.377c-7.742,-56.806 -32.771,-88.965 -64.968,-103.732c-46.319,-21.245 -111.178,-5.33 -168.99,33.227c-104.21,69.503 -211.895,274.962 -239.116,399.848c-1.232,5.653 0.555,11.54 4.722,15.553l249.116,239.966c3.641,3.507 8.676,5.172 13.689,4.527c132.454,-17.034 273.121,-25.707 393.721,-87.824c31.401,-16.174 70.983,-44.677 91.375,-79.463c15.22,-25.963 20.364,-55.245 6.945,-85.989c-20.994,-48.098 -81.996,-71.436 -129.848,-77.399c-98.957,-12.332 -206.517,17.315 -294.306,61.944c-24.698,12.556 -49.025,25.985 -73.044,39.902Zm-227.729,-33.127c28.725,-118.878 126.803,-306.068 222.97,-370.206c46.994,-31.342 98.947,-47.93 136.599,-30.661c23.784,10.909 40.117,35.973 45.836,77.935c5.544,40.681 -10.745,83.283 -35.424,124.862c-39.688,66.863 -101.519,130.665 -142.009,179.413c-24.274,29.225 -49.46,57.555 -74.971,85.695c-2.929,3.231 -16.824,15.174 -21.965,22.917c-4.021,6.056 -4.844,11.806 -4.379,15.683c0.811,6.762 4.053,10.506 7.101,12.849c3.205,2.464 7.02,3.837 11.529,3.707c2.894,-0.084 6.826,-0.976 10.991,-3.614c4.019,-2.546 9.988,-9.001 13.703,-11.425c12.117,-7.906 24.482,-15.444 36.866,-22.923c35.644,-21.525 71.907,-42.42 109.032,-61.293c82.094,-41.734 182.539,-70.113 275.078,-58.58c19.596,2.442 42.103,8.039 61.841,18.013c17.959,9.075 33.757,21.721 41.579,39.642c11.126,25.492 1.606,49.232 -14.55,69.304c-18.606,23.116 -46.104,41.653 -68.484,53.18c-114.757,59.108 -248.414,67.517 -374.768,83.388c0,0 -236.575,-227.886 -236.575,-227.886l-0,-0Z" style="fill:#7e4121;"/><path d="M1026.94,688.984c120.94,-29.129 346.653,-22.695 451.736,39.105c90.484,53.215 141.513,144.104 37.738,213.049c-92.705,61.59 -260.697,0.834 -364.407,-24.782c-37.116,-9.168 -73.823,-19.552 -110.499,-30.316c-4.821,-1.414 -27.69,-11.956 -32.531,-8.851c-5.761,3.695 11.248,7.816 17.112,11.345c12.562,7.56 24.9,15.506 37.19,23.498c35.248,22.92 70.191,46.685 103.679,72.118c75.886,57.629 147.326,138.59 178.317,229.966c13.809,40.714 20.495,98.869 -9.943,134.404c-44.994,52.53 -125.632,13.779 -169.095,-18.866c-106.924,-80.309 -174.681,-201.678 -246.7,-311.873l107.403,-328.797Z" style="fill:#fff;"/><path d="M1109.29,922.526c12.863,3.464 25.766,6.811 38.719,10.01c62.93,15.544 149.294,43.741 228.542,50.47c56.307,4.781 109.117,-1.433 149.085,-27.986c47.753,-31.726 65.788,-68.268 65.046,-103.683c-1.067,-50.947 -43.658,-102.386 -103.558,-137.614c-107.971,-63.5 -339.823,-70.872 -464.088,-40.943c-5.624,1.355 -10.144,5.529 -11.94,11.028l-107.403,328.798c-1.569,4.804 -0.873,10.062 1.892,14.293c73.06,111.788 142.173,234.612 250.641,316.082c28.243,21.213 71.148,44.415 111.344,47.607c30.001,2.383 58.597,-5.749 80.419,-31.226c34.14,-39.857 28.557,-104.932 13.069,-150.599c-32.03,-94.439 -105.591,-178.325 -184.021,-237.886c-22.065,-16.757 -44.753,-32.8 -67.747,-48.351Zm-69.437,-219.401c119.513,-25.957 330.734,-19.268 430.373,39.331c48.691,28.635 86.263,68.166 87.13,109.579c0.548,26.161 -14.891,51.785 -50.166,75.221c-34.198,22.72 -79.641,26.627 -127.818,22.536c-77.476,-6.578 -161.848,-34.421 -223.369,-49.617c-36.883,-9.11 -73.358,-19.431 -109.803,-30.127c-4.184,-1.228 -20.99,-8.529 -30.199,-9.781c-7.203,-0.979 -12.737,0.785 -16.024,2.894c-5.733,3.677 -7.689,8.227 -8.469,11.991c-0.821,3.958 -0.394,7.99 1.688,11.992c1.337,2.568 3.853,5.718 8.043,8.317c4.043,2.508 12.455,5.066 16.255,7.353c12.397,7.461 24.571,15.304 36.699,23.191c34.908,22.699 69.518,46.23 102.685,71.418c73.342,55.698 142.66,133.733 172.613,222.046c6.342,18.701 11.114,41.397 10.74,63.509c-0.341,20.119 -4.837,39.849 -17.558,54.7c-18.094,21.124 -43.61,22.902 -68.717,17.11c-28.914,-6.671 -57.583,-23.342 -77.711,-38.46c-103.214,-77.523 -169.035,-194.153 -238.388,-300.958c-0,0.001 101.995,-312.244 101.995,-312.244l0.001,-0.001Z" style="fill:#7e4121;"/><path d="M957.684,1003.61c58.262,109.912 108.106,330.147 74.35,447.289c-29.067,100.868 -104.428,172.877 -196.993,89.484c-82.691,-74.496 -65.576,-252.316 -66.529,-359.138c-0.34,-38.23 0.598,-76.366 1.913,-114.566c0.173,-5.021 4.702,-29.792 0.491,-33.71c-5.01,-4.662 -4.776,12.837 -6.738,19.394c-4.201,14.046 -8.833,27.972 -13.521,41.862c-13.445,39.837 -27.784,79.588 -44.098,118.346c-36.97,87.823 -97.644,177.138 -178.456,229.859c-36.007,23.49 -90.677,44.414 -132.66,23.76c-62.061,-30.534 -44.559,-118.27 -23.736,-168.481c51.227,-123.523 151.957,-219.309 240.805,-316.447l345.172,22.348Z" style="fill:#fff;"/><path d="M751.924,1141.4c-0.161,13.321 -0.197,26.651 -0.078,39.993c0.579,64.818 -5.279,155.48 7.892,233.915c9.358,55.729 28.497,105.34 64.147,137.457c42.595,38.374 82.473,46.765 116.592,37.248c49.086,-13.691 88.33,-67.726 107.572,-134.5c34.684,-120.362 -15.776,-346.777 -75.639,-459.709c-2.71,-5.112 -7.876,-8.453 -13.649,-8.826l-345.172,-22.349c-5.044,-0.326 -9.964,1.654 -13.375,5.383c-90.132,98.542 -191.935,196.003 -243.902,321.311c-13.531,32.628 -25.347,79.951 -18.453,119.68c5.146,29.652 20.127,55.332 50.227,70.14c47.089,23.168 108.737,1.593 149.124,-24.756c83.521,-54.488 146.501,-146.583 184.71,-237.351c10.749,-25.537 20.652,-51.499 30.004,-77.636Zm195.27,-121.768c54.836,109.317 100.832,315.578 68.825,426.651c-15.641,54.278 -44.598,100.493 -84.497,111.623c-25.204,7.03 -53.861,-1.56 -85.326,-29.906c-30.503,-27.481 -45.578,-70.528 -53.585,-118.212c-12.876,-76.681 -6.867,-165.324 -7.433,-228.693c-0.338,-37.989 0.597,-75.884 1.904,-113.844c0.15,-4.358 3.047,-22.451 1.971,-31.683c-0.84,-7.22 -3.925,-12.142 -6.783,-14.802c-4.987,-4.64 -9.88,-5.404 -13.721,-5.225c-4.037,0.189 -7.837,1.604 -11.195,4.615c-2.156,1.933 -4.582,5.153 -6.059,9.857c-1.425,4.539 -1.813,13.323 -3.084,17.572c-4.147,13.862 -8.72,27.602 -13.346,41.31c-13.315,39.453 -27.51,78.824 -43.668,117.208c-35.73,84.881 -94.097,171.413 -172.2,222.367c-16.539,10.79 -37.338,21.05 -58.85,26.181c-19.572,4.669 -39.801,5.215 -57.346,-3.417c-24.958,-12.279 -33.019,-36.553 -33.646,-62.312c-0.722,-29.665 8.304,-61.576 17.947,-84.829c49.45,-119.238 146.071,-211.971 232.297,-305.685c50.831,3.292 327.795,21.224 327.795,21.224l-0,0Z" style="fill:#7e4121;"/><path d="M606.043,1038.09c-91.991,83.742 -292.938,186.739 -414.794,183.144c-104.926,-3.096 -193.401,-58.204 -135.62,-168.585c51.617,-98.607 228.114,-126.206 331.35,-153.667c36.947,-9.829 74.12,-18.394 111.45,-26.611c4.906,-1.08 30.026,-2.847 32.775,-7.899c3.271,-6.011 -13.622,-1.437 -20.46,-1.708c-14.65,-0.581 -29.29,-1.608 -43.909,-2.698c-41.928,-3.125 -83.996,-7.139 -125.591,-13.313c-94.255,-13.992 -195.843,-50.574 -266.988,-115.754c-31.7,-29.042 -65.55,-76.8 -55.973,-122.598c14.157,-67.701 103.492,-72.545 157.301,-64.85c132.378,18.933 250.186,92.708 366.351,154.637l64.108,339.902Z" style="fill:#fff;"/><path d="M421.453,873.018c-12.943,3.154 -25.864,6.431 -38.758,9.861c-62.642,16.663 -151.917,33.514 -224.621,65.758c-51.657,22.91 -94.957,53.774 -117.211,96.286c-26.588,50.793 -24.809,91.505 -7.114,122.191c25.457,44.145 87.548,68.734 157.009,70.783c125.205,3.694 331.985,-101.434 426.504,-187.478c4.278,-3.895 6.231,-9.729 5.158,-15.414c0,0 -64.107,-339.902 -64.107,-339.902c-0.936,-4.967 -4.077,-9.24 -8.537,-11.618c-117.845,-62.824 -237.542,-137.222 -371.832,-156.428c-34.966,-5.001 -83.742,-4.689 -120.512,11.859c-27.444,12.351 -48.597,33.243 -55.463,66.078c-10.742,51.368 25.472,105.723 61.028,138.298c73.53,67.365 178.385,105.49 275.8,119.951c27.406,4.068 55.015,7.21 82.656,9.775Zm166.463,158.896c-92.266,80.275 -280.632,176.073 -396.175,172.665c-56.463,-1.666 -108.423,-18.233 -129.116,-54.117c-13.071,-22.667 -11.87,-52.559 7.77,-90.08c19.041,-36.375 56.994,-61.671 101.193,-81.274c71.078,-31.523 158.435,-47.725 219.676,-64.016c36.714,-9.766 73.654,-18.275 110.748,-26.44c4.259,-0.938 22.504,-2.626 31.179,-5.961c6.785,-2.609 10.786,-6.819 12.653,-10.249c3.255,-5.983 2.78,-10.913 1.652,-14.588c-1.185,-3.864 -3.5,-7.193 -7.252,-9.698c-2.408,-1.608 -6.129,-3.158 -11.052,-3.42c-4.751,-0.252 -13.356,1.554 -17.788,1.378c-14.457,-0.573 -28.903,-1.589 -43.33,-2.664c-41.525,-3.096 -83.188,-7.064 -124.383,-13.179c-91.096,-13.523 -189.416,-48.562 -258.176,-111.557c-14.561,-13.34 -29.667,-30.938 -39.981,-50.5c-9.385,-17.799 -14.94,-37.257 -10.937,-56.398c5.693,-27.225 27.203,-41.064 51.999,-48.071c28.555,-8.069 61.708,-7.255 86.629,-3.691c127.784,18.276 241.614,88.829 353.812,149.069c8.554,45.357 51.635,273.777 60.879,322.79l0,0.001Z" style="fill:#7e4121;"/><path d="M528.788,693.244c-103.97,-68.302 -253.661,-237.359 -280.453,-356.288c-23.069,-102.406 8.33,-201.797 129.606,-173.251c108.339,25.501 178.921,189.607 231.17,282.784c18.699,33.347 36.231,67.227 53.465,101.344c2.265,4.484 10.217,28.377 15.794,29.785c6.636,1.675 -1.992,-13.551 -3.428,-20.243c-3.078,-14.335 -5.72,-28.77 -8.296,-43.203c-7.389,-41.39 -13.953,-83.135 -18.306,-124.96c-9.864,-94.776 0.333,-202.267 45.794,-287.375c20.256,-37.921 58.107,-82.575 104.848,-84.677c69.096,-3.106 95.982,82.224 101.896,136.258c14.549,132.931 -27.644,265.374 -58.772,393.283l-313.318,146.543Z" style="fill:#fff;"/><path d="M642.829,473.43c-6.27,-11.753 -12.655,-23.455 -19.181,-35.093c-31.704,-56.538 -70.205,-138.827 -119.501,-201.241c-35.025,-44.346 -75.68,-78.62 -122.387,-89.614c-55.806,-13.136 -94.8,-1.298 -120.127,23.466c-36.436,35.626 -44.829,101.879 -29.557,169.671c27.528,122.198 180.733,296.376 287.561,366.555c4.836,3.176 10.972,3.618 16.212,1.167l313.318,-146.543c4.579,-2.141 7.938,-6.244 9.133,-11.156c31.577,-129.757 73.905,-264.185 59.146,-399.037c-3.843,-35.112 -16.263,-82.281 -41.428,-113.787c-18.782,-23.515 -44.274,-38.814 -77.785,-37.308c-52.427,2.357 -96.08,50.94 -118.8,93.474c-46.985,87.961 -57.865,199 -47.67,296.953c2.868,27.558 6.684,55.082 11.066,82.493Zm-112.557,200.72c-100.681,-69.429 -240.274,-228.089 -265.678,-340.857c-12.414,-55.106 -9.275,-109.552 20.343,-138.512c18.709,-18.293 47.962,-24.556 89.186,-14.853c39.964,9.407 73.897,39.885 103.866,77.828c48.193,61.018 85.59,141.611 116.585,196.885c18.581,33.136 36,66.804 53.126,100.706c1.966,3.893 8.134,21.146 13.52,28.721c4.212,5.924 9.285,8.754 13.071,9.71c6.604,1.667 11.261,-0.018 14.541,-2.024c3.449,-2.108 6.098,-5.177 7.593,-9.434c0.959,-2.732 1.536,-6.721 0.566,-11.555c-0.936,-4.665 -4.823,-12.551 -5.754,-16.888c-3.037,-14.146 -5.642,-28.392 -8.184,-42.634c-7.318,-40.991 -13.825,-82.334 -18.136,-123.756c-9.533,-91.6 -0.02,-195.542 43.918,-277.798c9.304,-17.418 22.597,-36.422 38.983,-51.274c14.91,-13.512 32.378,-23.727 51.912,-24.605c27.787,-1.249 46.536,16.149 59.484,38.426c14.91,25.655 22.358,57.971 25.097,82.996c14.044,128.318 -26.017,256.107 -56.494,379.754c-0,-0.001 -297.545,139.165 -297.545,139.165l-0,-0.001Z" style="fill:#7e4121;"/><path d="M788.87,446.937c179.086,-2.655 326.638,140.584 329.294,319.671c2.656,179.086 -140.583,326.638 -319.67,329.294c-179.087,2.656 -326.639,-140.584 -329.295,-319.67c-2.655,-179.087 140.584,-326.639 319.671,-329.295Z" style="fill:#ffce7b;"/><path d="M788.622,430.273c-188.284,2.792 -338.88,157.922 -336.087,346.206c2.792,188.284 157.922,338.88 346.206,336.088c188.284,-2.792 338.88,-157.922 336.088,-346.207c-2.792,-188.284 -157.922,-338.88 -346.206,-336.087l-0.001,-0Zm0.495,33.329c169.889,-2.519 309.863,133.364 312.382,303.253c2.52,169.889 -133.363,309.863 -303.252,312.382c-169.889,2.52 -309.863,-133.363 -312.383,-303.252c-2.519,-169.889 133.364,-309.863 303.253,-312.383l-0,0Z" style="fill:#7e4021;"/><path d="M948.378,797.896c-0.089,14.162 -1.826,28.603 -5.352,43.056c-22.404,91.821 -109.006,150.32 -193.901,129.606c-84.896,-20.714 -134.823,-112.525 -112.419,-204.346c0.838,-3.434 1.765,-6.822 2.779,-10.16c2.672,-8.802 -2.304,-18.118 -11.106,-20.79c-8.802,-2.672 -18.118,2.304 -20.79,11.106c-1.191,3.924 -2.282,7.906 -3.267,11.943c-26.928,110.366 34.86,219.733 136.902,244.63c102.041,24.898 207.257,-43.722 234.185,-154.088c4.156,-17.034 6.196,-34.055 6.302,-50.747c0.058,-9.198 -7.363,-16.713 -16.561,-16.771c-9.198,-0.058 -16.714,7.362 -16.772,16.561Z" style="fill:#7e4021;"/><path d="M598.645,748.165c0.324,0.49 0.633,0.931 0.826,1.16c0.499,0.594 1.008,1.178 1.507,1.771c2.347,2.791 4.92,5.263 7.801,7.504c9.5,7.384 20.519,8.594 31.905,6.085c8.983,-1.979 14.669,-10.879 12.69,-19.862c-1.979,-8.983 -10.879,-14.669 -19.862,-12.69c-1.499,0.33 -3.023,1.122 -4.274,0.15c-1.016,-0.79 -1.925,-1.661 -2.753,-2.645c-0.496,-0.59 -1.002,-1.172 -1.499,-1.762c0.406,0.483 1.534,2.187 1.534,2.187c0,-0 -4.822,-5.753 -5.522,-6.228c-4.689,-3.188 -9.082,-3.224 -12.404,-2.612c-4.856,0.895 -9.842,3.427 -12.534,10.39c-0.508,1.313 -1.511,3.892 -0.999,8.095c0.392,3.218 1.679,6.11 3.584,8.457Zm29.594,-11.488c0.252,4.057 -0.987,7.904 -3.272,10.964c1.489,-1.781 3.716,-5.143 3.272,-10.964Z" style="fill:#7e4021;"/><path d="M989.049,805.312c2.772,-1.206 5.246,-3.18 7.076,-5.856c3.477,-5.083 3.024,-9.048 2.893,-10.753c-0.345,-4.494 -2.199,-7.799 -4.654,-10.331c-2.829,-2.918 -7.443,-6.073 -14.764,-4.834c-0.788,0.134 -6.943,2.859 -6.943,2.859c0,-0 1.769,-0.983 2.355,-1.226c-0.712,0.295 -1.429,0.578 -2.141,0.874c-1.189,0.492 -2.396,0.846 -3.662,1.08c-1.558,0.287 -2.546,-1.119 -3.725,-2.102c-7.062,-5.894 -17.581,-4.946 -23.475,2.116c-5.894,7.063 -4.945,17.581 2.117,23.475c8.951,7.47 19.289,11.472 31.122,9.292c3.59,-0.661 7.011,-1.67 10.381,-3.066c0.716,-0.297 1.437,-0.582 2.153,-0.878c0.276,-0.115 0.754,-0.365 1.267,-0.65Zm-23.334,-14.733c0.038,4.396 1.631,7.647 3.84,10.124c-2.402,-2.883 -3.722,-6.467 -3.84,-10.124Zm0.272,-3.593c0.407,-2.211 1.274,-4.374 2.624,-6.348c-1.801,2.634 -2.383,4.841 -2.624,6.348Z" style="fill:#7e4021;"/><path d="M628.929,733.285c-1.095,-1.662 -2.32,-3.395 -3.686,-5.187c-5.577,-7.315 -16.043,-8.727 -23.359,-3.15c-7.315,5.577 -8.727,16.043 -3.15,23.359c4.788,6.28 6.36,10.177 6.653,11.486c0.899,4.02 2.216,5.81 2.26,5.88c1.695,2.718 3.638,4.243 5.144,5.209c1.367,0.876 11.766,3.441 18.9,-0.531c0.636,-0.494 1.271,-1.046 1.908,-1.667c0.332,-0.323 1.457,-2.525 5.264,-3.579c8.865,-2.455 14.068,-11.645 11.613,-20.51c-2.455,-8.865 -11.645,-14.069 -20.51,-11.614l-1.037,0.304Zm-23.775,22.55c-0.021,0.3 -0.032,0.644 -0.032,1.032l0.032,-1.032Zm0.017,-0.281l-0.011,0.188l0.09,-0.933l-0.079,0.745Z" style="fill:#7e4021;"/><path d="M962.891,816.39c4.347,2.664 9.45,2.53 14.819,-3.862c0.862,-1.027 4.053,-3.762 11.195,-7.131c8.319,-3.925 11.887,-13.866 7.962,-22.185c-3.925,-8.319 -13.865,-11.887 -22.185,-7.962c-2.038,0.961 -3.923,1.935 -5.661,2.906l-0.78,-0.747c-6.737,-6.262 -17.292,-5.876 -23.554,0.862c-6.262,6.738 -5.876,17.292 0.862,23.555c2.893,2.689 2.878,5.161 3.024,5.601c3.572,10.785 11.975,11.594 15.915,11.598l-1.597,-2.635Zm17.104,-20.354l-0.224,-0.692c2.231,3.644 2.769,8.47 -0.479,14.709c2.176,-4.181 2.458,-9.035 0.884,-13.374l-0.181,-0.643Z" style="fill:#7e4021;"/><path d="M967.653,640.283c-16.778,4.477 -17.388,38.405 -2.427,40.191c24.45,2.919 18.287,-44.424 2.427,-40.191Z" style="fill:#7e4021;"/><path d="M963.355,624.18c-8.25,2.201 -14.833,7.573 -19.283,14.981c-5.114,8.511 -7.161,19.97 -5.8,29.938c2.102,15.402 11.919,26.365 24.978,27.924c27.357,3.267 39.008,-24.108 33.687,-47.307c-4.333,-18.887 -19.135,-29.392 -33.582,-25.536Z" style="fill:#7e4021;"/><path d="M648.175,599.464c-17.152,2.709 -21.285,36.39 -6.591,39.721c24.015,5.445 22.805,-42.283 6.591,-39.721Z" style="fill:#7e4021;"/><path d="M645.575,583.001c-8.434,1.333 -15.54,5.991 -20.736,12.896c-5.971,7.934 -9.198,19.117 -8.881,29.173c0.491,15.537 9.115,27.461 21.941,30.369c26.869,6.092 41.302,-19.923 38.421,-43.549c-2.346,-19.235 -15.976,-31.222 -30.745,-28.889l-0,0Z" style="fill:#7e4021;"/></g></svg>