<?xml version="1.0" encoding="UTF-8" standalone="no"?><!DOCTYPE svg PUBLIC "-//W3C//DTD SVG 1.1//EN" "http://www.w3.org/Graphics/SVG/1.1/DTD/svg11.dtd"><svg width="100%" height="100%" viewBox="0 0 917 902" version="1.1" xmlns="http://www.w3.org/2000/svg" xmlns:xlink="http://www.w3.org/1999/xlink" xml:space="preserve" xmlns:serif="http://www.serif.com/" style="fill-rule:evenodd;clip-rule:evenodd;stroke-linejoin:round;stroke-miterlimit:2;"><g id="Flower-02"><path d="M607.301,843.63c81.724,-110.599 -37.855,-270.276 -31.374,-265.987c25.528,16.897 32.492,54.479 73.13,92.015c44.294,40.914 108.145,89.421 179.761,53.034c62.296,-31.651 80.933,-110.459 65.521,-150.807c-35.071,-91.806 -146.692,-132.755 -233.473,-150.63c-1.932,-0.398 -8.955,-0.698 -9.747,-3.22c-1.618,-5.149 20.775,-1.768 72.79,0.944c45.747,2.386 181.237,-44.15 149.213,-152.957c-39.693,-134.861 -148.562,-63.106 -211.183,-30.136c-28.348,14.924 -85.678,64.127 -83.595,62.22c77.278,-70.741 113.035,-171.15 41.322,-243.843c-61.856,-62.702 -145.317,-40.829 -170.194,31.231c-16.984,49.195 -10.818,70.465 -2.431,121.475c0.473,2.878 6.256,23.223 1.432,24.618c-0.349,0.101 -92.57,-173.726 -219.11,-136.575c-98.313,28.863 -68.327,149.259 -28.929,180.03c17.463,13.639 35.841,26.368 54.94,37.617c8.824,5.197 23.263,12.211 26.8,15.019c-23.384,-4.037 -222.847,-62.947 -260.419,54.9c-25.337,79.468 68.595,152.378 126.763,151.005c36.897,-0.871 72.184,-10.549 107.726,-19.525c0.525,-0.132 9.016,-2.492 8.895,-0.996c-1.794,22.046 -235.158,72.73 -173.881,221.641c42.59,103.5 182.218,86.657 233.497,-14.216c12.844,-25.265 21.629,-52.398 32.588,-78.539c0.667,-1.592 11.971,-20.496 11.861,-19.774c-17.173,112.232 23.476,213.444 76.363,245.333c49.322,29.74 129.274,20.051 161.734,-23.877Z" style="fill:#fff;"/><path d="M423.731,166.281c-16.873,-20.767 -38.665,-43.441 -64.292,-61.057c-37.926,-26.069 -83.918,-41.134 -134.771,-26.204c-69.157,20.303 -84.839,78.849 -75.803,130.541c5.938,33.964 23.101,64.394 41.31,78.616c3.201,2.5 6.432,4.971 9.692,7.406c-25.046,-2.871 -52.687,-4.086 -78.925,-0.951c-51.771,6.185 -97.854,28.897 -115.067,82.883c-14.639,45.919 4.197,90.235 36.077,122.581c31.06,31.512 74.214,50.922 106.959,50.149c5.952,-0.14 11.863,-0.499 17.748,-1.039c-65.117,37.825 -129.465,97.912 -90.814,191.839c48.081,116.843 205.877,100.872 263.767,-13.005c3.729,-7.335 7.124,-14.823 10.325,-22.399c3.357,37.821 12.661,72.355 25.809,101.007c15.934,34.721 37.678,60.94 61.215,75.132c33.258,20.054 78.872,24.474 117.951,13.883c26.961,-7.307 50.693,-21.693 65.793,-42.128l-0,-0c32.368,-43.805 36.513,-94.513 28.28,-141.378c-1.502,-8.551 -3.42,-16.966 -5.642,-25.164c48.507,43.618 117.17,89.098 193.025,50.558c42.084,-21.382 66.711,-61.7 75.74,-100.489c6.193,-26.609 4.943,-52.426 -2.2,-71.124c-25.164,-65.873 -87.078,-107.79 -152.937,-133.823c24.801,-5.266 54.829,-16.439 80.273,-34.268c41.051,-28.765 70.337,-73.775 51.866,-136.531c-13.746,-46.704 -35.714,-71.197 -60.237,-82.617c-23.321,-10.861 -49.807,-10.103 -76.52,-2.771c-33.621,9.227 -67.692,28.963 -94.378,43.191c27.382,-60.223 24.526,-124.894 -26.444,-176.561c-35.628,-36.114 -77.72,-47.175 -114.244,-39.528c-37.07,7.761 -69.027,34.901 -83.57,77.025c-12.493,36.186 -13.499,58.208 -9.986,86.226Zm170.165,667.444c-13.747,18.605 -37.841,29.407 -63.431,32.961c-26.418,3.669 -54.727,-0.449 -76.292,-13.452c-18.774,-11.32 -35.422,-32.794 -48.131,-60.489c-20.333,-44.308 -30.116,-104.312 -20.363,-168.05c0.562,-3.676 -0.145,-6.319 -0.734,-8.013c-2.839,-8.162 -8.589,-11.455 -16.329,-11.185c-0.868,0.03 -8.053,-0.243 -13.426,7.559c-2.023,2.937 -12.527,20.799 -13.218,22.449c-10.801,25.766 -19.415,52.527 -32.074,77.43c-44.677,87.885 -166.12,105.6 -203.227,15.426c-22.282,-54.147 1.092,-93.105 35.054,-121.713c25.064,-21.114 55.724,-36.942 80.783,-49.15c24.454,-11.914 44.016,-21.196 51.267,-27.935c5.602,-5.207 7.613,-10.688 7.975,-15.149c0.569,-6.995 -2.103,-12.636 -8.813,-16.31c-1.99,-1.09 -5.55,-2.425 -10.269,-2.167c-3.498,0.192 -9.965,1.826 -10.505,1.962c-34.334,8.671 -68.394,18.181 -104.038,19.022c-25.425,0.6 -58.317,-15.757 -82.433,-40.224c-23.296,-23.636 -38.756,-55.503 -28.058,-89.056c12.847,-40.297 48.62,-55.294 87.262,-59.911c65.773,-7.859 140.833,14.022 154.443,16.372c7.505,1.295 14.934,-2.662 18.046,-9.613c3.113,-6.952 1.116,-15.129 -4.849,-19.865c-3.801,-3.017 -19.219,-10.74 -28.703,-16.326c-18.475,-10.881 -36.249,-23.198 -53.14,-36.391c-13.311,-10.396 -24.652,-33.258 -28.992,-58.086c-6.38,-36.492 3.536,-78.484 52.357,-92.818c40.256,-11.818 76.476,1.054 106.498,21.691c48.409,33.275 81.441,86.727 90.75,102.544c1.863,3.167 2.95,5.071 3.174,5.414c7.013,10.738 17.5,7.27 18.623,6.946c6.137,-1.775 12.021,-6.6 13.571,-16.165c1.21,-7.468 -2.717,-24.309 -3.187,-27.168c-7.824,-47.587 -14.105,-67.439 1.739,-113.332c10.335,-29.936 32.546,-49.762 58.891,-55.277c26.891,-5.63 57.453,3.723 83.684,30.312c64.83,65.716 29.15,155.893 -40.711,219.844c-5.036,4.61 1.472,42.232 23.019,24.2c7.749,-6.485 54.956,-46.407 79.595,-59.379c24.258,-12.772 55.614,-31.698 87.051,-41.279c20.205,-6.159 40.416,-8.649 58.046,-0.438c17.968,8.368 32.26,27.59 42.332,61.811c13.554,46.052 -8.893,78.713 -39.018,99.821c-32.062,22.467 -72.73,32.862 -93.338,31.787c-44.537,-2.322 -68.811,-4.386 -75.842,-2.584c-6.819,1.748 -10.231,5.568 -12.108,8.76c-2.447,4.161 -3.36,8.945 -1.608,14.521c1.253,3.986 3.882,7.771 8.358,10.499c3.719,2.267 11.389,3.525 13.926,4.048c41.874,8.625 89.772,22.728 131.401,45.839c39.666,22.02 73.741,52.205 89.865,94.415c5.188,13.58 5.371,32.347 0.873,51.672c-7.009,30.112 -25.703,61.729 -58.373,78.328c-64.431,32.736 -121.054,-13.609 -160.904,-50.418c-23.048,-21.289 -34.486,-42.708 -45.282,-59.796c-9.004,-14.251 -17.882,-25.881 -29.957,-33.874c-4.695,-3.107 -8.645,-2.979 -10.829,-2.791c-5.408,0.466 -9.331,2.985 -12.146,6.902c-1.693,2.358 -3.455,5.84 -3.107,10.941c0.069,1.015 0.695,5.03 4.014,10.693c8.007,13.662 42.328,67.143 53.097,128.435c6.733,38.33 4.215,79.973 -22.259,115.8Z" style="fill:#7e4021;"/><path d="M604.295,562.742c61.123,-71.679 34.927,-172.162 8.762,-213.041c-16.823,-26.283 -41.855,-46.497 -68.049,-63.657c-125.492,-82.214 -293.49,4.927 -286.855,160.148c9.961,233.035 262.926,214.138 346.142,116.55Z" style="fill:#facad0;"/><path d="M616.977,573.556c66.811,-78.348 38.717,-188.157 10.118,-232.84c-18.081,-28.248 -44.801,-50.17 -72.953,-68.613c-136.82,-89.636 -319.875,5.568 -312.641,174.801c3.243,75.86 30.889,126.824 69.502,158.553c45.103,37.061 105.948,48.003 163.548,39.911c57.258,-8.045 110.97,-34.923 142.426,-71.812Zm-25.364,-21.628c-26.796,31.424 -72.923,53.577 -121.7,60.43c-48.436,6.806 -99.82,-1.49 -137.748,-32.655c-32.557,-26.753 -54.627,-70.26 -57.361,-134.223c-6.036,-141.209 146.907,-220.287 261.071,-145.495c24.235,15.878 47.579,34.383 63.145,58.701c23.731,37.076 48.03,128.231 -7.407,193.242Z" style="fill:#7e4021;"/></g></svg>