<?xml version="1.0" encoding="UTF-8" standalone="no"?><!DOCTYPE svg PUBLIC "-//W3C//DTD SVG 1.1//EN" "http://www.w3.org/Graphics/SVG/1.1/DTD/svg11.dtd"><svg width="100%" height="100%" viewBox="0 0 639 650" version="1.1" xmlns="http://www.w3.org/2000/svg" xmlns:xlink="http://www.w3.org/1999/xlink" xml:space="preserve" xmlns:serif="http://www.serif.com/" style="fill-rule:evenodd;clip-rule:evenodd;stroke-linejoin:round;stroke-miterlimit:2;"><g id="Flower-01"><path d="M465.479,427.437c64.848,17.132 139.733,7.219 153.502,-72.549c8.003,-46.365 -1.212,-80.101 -19.997,-103.263c-17.681,-21.801 -44.137,-34.472 -74.295,-39.01c-28.16,-4.237 -59.579,-1.35 -89.508,7.386c43.487,-58.18 66.823,-144.535 -12.745,-184.869c-41.968,-21.274 -76.922,-22.379 -104.58,-11.23c-26.035,10.495 -45.92,32.059 -59.12,59.553c-12.324,25.671 -18.797,56.552 -19.241,87.727c-42.833,-58.663 -118.519,-106.343 -180.453,-42.14c-32.666,33.864 -43.994,66.951 -41.464,96.664c2.382,27.969 17.151,53.313 39.553,74.009c20.916,19.323 48.532,34.584 78.2,44.169c-68.659,23.705 -136.475,82.04 -93.304,160.105c22.77,41.175 51.068,61.724 80.213,68.037c27.434,5.942 55.999,-0.729 82.364,-16.06c24.616,-14.315 47.318,-36.227 65.197,-61.769c2.484,72.593 38.317,154.556 125.621,136.23c46.048,-9.666 74.005,-30.677 88.603,-56.68c13.741,-24.477 15.758,-53.741 8.851,-83.447c-4.957,-21.315 -14.534,-42.867 -27.397,-62.863Z" style="fill:#facad0;"/><path d="M496.714,450.126c63.521,6.637 125.424,-15.543 138.69,-92.403c9.05,-52.429 -2.234,-90.406 -23.475,-116.596c-20.22,-24.932 -50.272,-39.803 -84.76,-44.993c-18.161,-2.733 -37.58,-2.76 -57.162,-0.328c32.234,-62.174 35.756,-137.121 -40.036,-175.54c-47.455,-24.056 -87.071,-24.429 -118.347,-11.822c-29.772,12.001 -52.818,36.357 -67.912,67.798c-7.949,16.556 -13.681,35.11 -17.11,54.542c-49.958,-49.08 -120.561,-74.469 -179.555,-13.313c-36.938,38.292 -48.936,76.05 -46.075,109.649c2.723,31.984 19.231,61.169 44.849,84.837c13.49,12.462 29.541,23.393 47.107,32.381c-61.593,33.33 -106.607,93.357 -65.486,167.716c25.748,46.56 58.313,69.122 91.27,76.261c31.373,6.795 64.12,-0.409 94.27,-17.941c15.876,-9.233 31.04,-21.363 44.793,-35.513c13.761,68.668 57.911,129.333 141.071,111.877c52.069,-10.93 83.205,-35.428 99.712,-64.832c15.714,-27.991 18.451,-61.41 10.551,-95.38c-2.825,-12.152 -7.022,-24.382 -12.395,-36.4l-0,-0Zm-26.978,-38.803c-6.648,-1.756 -13.692,0.751 -17.736,6.312c-4.045,5.561 -4.258,13.036 -0.538,18.819c11.795,18.336 20.635,38.075 25.18,57.621c5.916,25.442 4.619,50.55 -7.15,71.513c-12.69,22.605 -37.464,40.125 -77.494,48.528c-75.464,15.84 -103.393,-57.741 -105.54,-120.489c-0.245,-7.165 -5.045,-13.371 -11.919,-15.409c-6.874,-2.038 -14.28,0.548 -18.392,6.421c-16.452,23.505 -37.269,43.746 -59.922,56.919c-22.58,13.131 -46.96,19.268 -70.457,14.179c-25.336,-5.488 -49.362,-24.021 -69.156,-59.814c-37.315,-67.477 24.811,-115.795 84.158,-136.285c6.777,-2.34 11.298,-8.752 11.227,-15.921c-0.072,-7.169 -4.72,-13.489 -11.543,-15.693c-27.301,-8.82 -52.766,-22.769 -72.013,-40.551c-19.186,-17.726 -32.217,-39.226 -34.256,-63.181c-2.199,-25.83 8.455,-54.241 36.852,-83.679c53.534,-55.496 117.974,-10.309 154.998,40.397c4.228,5.79 11.685,8.228 18.517,6.053c6.831,-2.175 11.506,-8.475 11.608,-15.644c0.409,-28.688 6.26,-57.127 17.601,-80.75c11.305,-23.548 28.028,-42.321 50.326,-51.309c24.043,-9.692 54.331,-7.856 90.813,10.637c68.777,34.864 44.52,109.737 6.932,160.026c-4.293,5.742 -4.432,13.587 -0.345,19.478c4.086,5.891 11.482,8.508 18.364,6.499c27.542,-8.039 56.445,-10.803 82.358,-6.904c25.829,3.887 48.688,14.355 63.831,33.027c16.329,20.135 23.474,49.625 16.517,89.931c-11.795,68.333 -77.269,73.945 -132.821,59.269Z" style="fill:#7e4021;"/><path d="M421.551,450.423c89.348,-89.088 42.266,-170.696 13.162,-208.737c-82.69,-108.081 -234.681,-60.109 -275.773,51.77c-57.333,156.096 134.675,284.531 262.611,156.967Z" style="fill:#fee4a8;"/><path d="M433.319,462.225c39.452,-39.337 54.311,-77.606 56.478,-111.752c3.246,-51.134 -22.603,-93.76 -41.847,-118.915c-91.294,-119.326 -259.288,-67.368 -304.655,56.151c-38.095,103.718 23.279,196.376 109.024,223.42c56.855,17.932 124.635,7.298 181,-48.904Zm-23.536,-23.604c-45.984,45.85 -101.055,55.347 -147.438,40.718c-69.113,-21.797 -118.466,-96.538 -87.761,-180.137c36.817,-100.239 172.805,-144.225 246.892,-47.389c15.68,20.495 37.7,54.885 35.055,96.548c-1.76,27.719 -14.721,58.326 -46.748,90.26Z" style="fill:#7e4021;"/></g></svg>