<?xml version="1.0" encoding="UTF-8" standalone="no"?><!DOCTYPE svg PUBLIC "-//W3C//DTD SVG 1.1//EN" "http://www.w3.org/Graphics/SVG/1.1/DTD/svg11.dtd"><svg width="100%" height="100%" viewBox="0 0 3300 4694" version="1.1" xmlns="http://www.w3.org/2000/svg" xmlns:xlink="http://www.w3.org/1999/xlink" xml:space="preserve" xmlns:serif="http://www.serif.com/" style="fill-rule:evenodd;clip-rule:evenodd;stroke-linejoin:round;stroke-miterlimit:2;"><g id="Hand-mixer" serif:id="Hand mixer"><path d="M746.502,2219.55c-52.669,311.459 -413.846,2144.41 -443.977,2347.44c-2.368,15.952 8.661,30.825 24.613,33.192c15.952,2.368 30.825,-8.661 33.193,-24.613c30.116,-202.937 391.149,-2034.97 443.792,-2346.28c2.689,-15.901 -8.037,-30.994 -23.938,-33.683c-15.901,-2.689 -30.994,8.038 -33.683,23.939Z" style="fill:#c5e8f0;"/><path d="M730.069,2216.77c-52.677,311.503 -413.895,2144.71 -444.031,2347.77c-3.717,25.051 13.603,48.408 38.654,52.126c25.051,3.717 48.407,-13.603 52.125,-38.654c30.112,-202.907 391.104,-2034.68 443.74,-2345.94c4.223,-24.971 -12.622,-48.672 -37.593,-52.895c-24.971,-4.223 -48.672,12.622 -52.895,37.593Zm32.867,5.558c1.155,-6.831 7.639,-11.44 14.47,-10.284c6.831,1.155 11.439,7.639 10.284,14.47c-52.651,311.349 -413.725,2143.64 -443.846,2346.61c-1.017,6.853 -7.406,11.591 -14.259,10.574c-6.853,-1.017 -11.591,-7.406 -10.574,-14.259c30.127,-203.008 391.263,-2035.69 443.925,-2347.11Z" style="fill:#7e4021;"/><path d="M936.717,2204.5c-15.493,46.29 -33.667,120.237 -92.976,115.385c-70.907,-5.801 -225.065,-26.284 -195.334,-130.129c1.455,-5.082 8.678,-34.17 15.102,-36.916c14.669,-6.27 50.929,8.845 65.126,12.298c60.717,14.767 145.698,38.393 208.082,39.362Z" style="fill:#edaf5f;"/><path d="M952.522,2209.79c1.687,-5.04 0.868,-10.583 -2.203,-14.921c-3.072,-4.338 -8.028,-6.951 -13.343,-7.034c-61.294,-0.952 -144.747,-24.382 -204.403,-38.892c-10.235,-2.489 -31.634,-10.757 -48.717,-13.343c-10.727,-1.624 -20.257,-0.924 -26.898,1.915c-3.586,1.533 -8.177,5.131 -11.795,11.422c-5.792,10.072 -11.479,31.689 -12.779,36.232c-14.357,50.148 6.438,84.339 42.481,107.589c46.976,30.301 122.889,40.087 167.517,43.738c29.997,2.454 51.853,-10.644 68.318,-31.459c20.668,-26.13 31.985,-65.857 41.822,-95.247Zm-279.57,-41.813l0.857,0.053c3.437,0.153 7.277,0.82 11.255,1.705c14.856,3.304 31.181,9.542 39.632,11.597c54.812,13.332 129.091,33.586 189.478,38.673l0,0c-5.749,17.697 -12.458,36.866 -21.887,52.928c-10.566,17.997 -24.636,32.186 -47.187,30.341c-40.461,-3.31 -109.576,-11.056 -152.166,-38.528c-23.668,-15.266 -37.932,-37.474 -28.504,-70.403c0.75,-2.619 3.087,-11.925 6.06,-20.339c0.671,-1.9 1.673,-4.252 2.462,-6.027Z" style="fill:#7e4021;"/><path d="M1040.46,146.951c8.269,-48.108 14.978,-123.96 74.335,-128.189c70.964,-5.057 226.444,-8.27 212.861,98.89c-0.665,5.245 -3.378,35.092 -9.309,38.784c-13.544,8.43 -51.682,-0.992 -66.239,-2.244c-62.257,-5.357 -149.843,-15.776 -211.648,-7.241Z" style="fill:#fff;"/><path d="M1024.04,144.128c-0.901,5.238 0.752,10.592 4.448,14.412c3.696,3.82 8.992,5.648 14.257,4.921c60.725,-8.385 146.772,2.073 207.941,7.336c10.494,0.903 32.902,5.819 50.18,5.775c10.849,-0.028 20.162,-2.17 26.294,-5.986c3.311,-2.061 7.3,-6.316 9.919,-13.084c4.192,-10.836 6.523,-33.067 7.117,-37.754c6.559,-51.749 -19.196,-82.378 -58.358,-99.872c-51.04,-22.8 -127.558,-20.921 -172.222,-17.739c-30.021,2.14 -49.629,18.411 -62.735,41.489c-16.452,28.971 -21.591,69.957 -26.841,100.502Zm282.677,-1.216l-0.856,0.078c-3.42,0.372 -7.316,0.297 -11.383,0.028c-15.185,-1.005 -32.27,-4.686 -40.935,-5.432c-56.202,-4.835 -132.698,-13.551 -193.157,-9.39l0,0c2.99,-18.365 6.704,-38.332 13.579,-55.642c7.704,-19.395 19.451,-35.559 42.02,-37.168c40.494,-2.885 109.983,-5.747 156.257,14.925c25.715,11.487 43.192,31.265 38.885,65.245c-0.342,2.703 -1.236,12.256 -2.894,21.025c-0.375,1.98 -1.007,4.457 -1.516,6.331Z" style="fill:#7e4021;"/><path d="M1416.54,184.723c-0.173,0.448 6.204,-22.087 9.879,-34.017c5.039,-16.363 11.43,-32.96 25.884,-43.354c26.301,-18.913 91.551,-2.556 106.907,26.013c7.651,14.233 7.311,32.649 4.752,48.127c-0.798,4.825 -3.631,37.366 -8.515,39.847c-7.787,3.954 -137.125,-41.23 -138.907,-36.616Z" style="fill:#fff;"/><path d="M1418.76,201.341c19.21,3.757 87.713,26.749 118.197,34.132c8.351,2.023 14.632,2.868 17.747,2.764c3.764,-0.127 6.482,-1.12 8.289,-2.038c3.275,-1.663 8.225,-6.048 10.95,-14.223c3.49,-10.471 5.777,-33.621 6.462,-37.765c3.128,-18.914 2.834,-41.344 -6.514,-58.737c-9.458,-17.594 -33.542,-32.582 -60.047,-39.105c-26.7,-6.571 -54.956,-4.281 -71.272,7.452c-17.485,12.574 -25.985,32.185 -32.082,51.979c-3.356,10.898 -8.935,30.515 -9.889,33.998c-0.328,1.199 -0.456,1.912 -0.479,2.042c-2.667,15.182 11.637,18.937 13.212,19.245c0.486,0.096 2.656,0.529 5.426,0.256Zm125.452,1.653c-25.308,-6.029 -78.581,-23.501 -106.631,-31.243c1.676,-5.815 3.466,-11.919 4.766,-16.139c3.984,-12.937 8.259,-26.511 19.686,-34.728c9.995,-7.187 27.489,-6.173 43.845,-2.147c16.546,4.072 32.748,11.536 38.652,22.519c5.954,11.077 4.98,25.472 2.989,37.517c-0.431,2.602 -1.452,13.273 -3.07,22.93l-0.237,1.291Zm-112.502,-11.364c0.137,-0.3 0.262,-0.602 0.378,-0.903l-0.378,0.903Zm-18.015,-23.443c-4.113,0.541 -9.306,2.706 -12.321,9.62c1.532,-3.451 4.259,-6.825 9.337,-8.817c0.656,-0.258 1.658,-0.57 2.984,-0.803Z" style="fill:#7e4021;"/><path d="M1612.6,241.682c-0.173,0.448 6.204,-22.087 9.878,-34.017c5.04,-16.363 11.43,-32.96 25.884,-43.354c26.302,-18.913 91.551,-2.556 106.908,26.013c7.65,14.233 7.311,32.649 4.752,48.127c-0.798,4.825 -3.631,37.366 -8.515,39.847c-7.787,3.954 -137.126,-41.23 -138.907,-36.616Z" style="fill:#fff;"/><path d="M1614.82,258.3c19.21,3.757 87.713,26.749 118.196,34.132c8.352,2.023 14.633,2.868 17.748,2.764c3.763,-0.127 6.482,-1.12 8.289,-2.038c3.275,-1.663 8.225,-6.048 10.95,-14.223c3.49,-10.471 5.777,-33.621 6.462,-37.765c3.128,-18.914 2.834,-41.344 -6.515,-58.736c-9.457,-17.595 -33.541,-32.582 -60.047,-39.106c-26.699,-6.571 -54.955,-4.281 -71.271,7.452c-17.485,12.574 -25.986,32.185 -32.082,51.979c-3.357,10.898 -8.935,30.515 -9.889,33.998c-0.329,1.199 -0.457,1.912 -0.479,2.042c-2.667,15.182 11.636,18.937 13.211,19.246c0.487,0.095 2.657,0.528 5.427,0.255Zm125.452,1.653c-25.308,-6.029 -78.582,-23.501 -106.631,-31.243c1.675,-5.815 3.466,-11.919 4.765,-16.139c3.985,-12.936 8.259,-26.511 19.687,-34.728c9.994,-7.187 27.489,-6.173 43.844,-2.147c16.547,4.072 32.749,11.536 38.653,22.519c5.953,11.077 4.98,25.472 2.988,37.517c-0.43,2.602 -1.451,13.273 -3.069,22.93l-0.237,1.291Zm-112.503,-11.364c0.137,-0.3 0.262,-0.602 0.379,-0.903l-0.379,0.903Zm-30.717,-12.911l-0,0l-0,0Zm12.703,-10.532c-4.114,0.541 -9.307,2.706 -12.321,9.62c1.532,-3.451 4.258,-6.825 9.337,-8.817c0.656,-0.258 1.657,-0.57 2.984,-0.803Z" style="fill:#7e4021;"/><path d="M559.073,3336.86c-3.975,-0.664 -11.18,-0.19 -20.842,2.736c-15.011,4.546 -39.385,15.085 -68.477,29.762c-56.725,28.62 -131.974,73.079 -190.081,117.615c-40.584,31.105 -72.769,62.656 -86.303,88.965c-73.554,142.992 -132.638,350.174 -169.16,515.436c-19.493,88.206 -35.847,198.364 -9.537,287.628c17.692,60.029 60.627,103.972 118.882,126.239c63.083,24.113 186.484,58.851 296.992,69.315c76.811,7.273 147.506,2.151 189.751,-23.848c40.616,-24.997 75.967,-76.083 104.41,-135.948c40.958,-86.205 68.347,-190.357 80.69,-253.392c27.04,-138.083 40.633,-274.01 37.978,-379.596c-1.83,-72.745 -11.633,-131.472 -29.332,-167.723c-31.899,-65.335 -83.56,-145.606 -138.519,-202.529c-38.778,-40.165 -79.657,-68.518 -116.452,-74.66Zm-4.472,33.058c30.974,5.593 64.353,30.998 96.944,64.755c52.626,54.508 102,131.437 132.545,194c16.228,33.237 24.286,87.241 25.963,153.937c2.604,103.574 -10.842,236.9 -37.367,372.352c-11.957,61.064 -38.408,161.984 -78.085,245.493c-25.314,53.279 -55.627,99.618 -91.775,121.865c-37.597,23.139 -100.775,25.524 -169.137,19.051c-107.248,-10.156 -227.01,-43.864 -288.233,-67.266c-48.321,-18.47 -84.134,-54.734 -98.81,-104.527c-24.793,-84.119 -8.257,-187.889 10.112,-271.012c35.946,-162.654 93.86,-366.644 166.254,-507.38c11.943,-23.219 41.122,-50.305 76.938,-77.757c56.492,-43.297 129.67,-86.487 184.819,-114.31c32.032,-16.161 67.224,-28.309 69.832,-29.201Z" style="fill:#7e4021;"/><path d="M555.042,3331.54c-8.316,-1.074 -17.106,1.177 -25.813,7.46c-8.497,6.131 -17.479,16.88 -26.096,31.15c-28.731,47.579 -56.686,137.622 -69.79,190.716c-61.536,249.325 -156.355,708.487 -168.419,879.944c-2.728,38.77 27.3,88.955 57.179,123.337c13.719,15.787 27.179,28.251 36.654,34.964c6.131,4.345 11.393,6.658 14.931,7.461c10.571,2.397 21.383,-0.189 31.823,-8.227c10.37,-7.984 20.932,-22.501 30.607,-41.251c33.036,-64.02 59.606,-180.425 63.901,-201.159c52.569,-253.745 117.441,-504 161.082,-759.928c21.191,-124.269 -21.358,-200.586 -58.673,-236.733c-18.5,-17.922 -36.675,-26.351 -47.386,-27.734Zm-3.839,33.125c6.648,1.078 16.818,7.687 28.033,18.55c32.573,31.555 67.504,98.71 49.006,207.188c-43.575,255.54 -108.374,505.41 -160.863,758.769c-4.111,19.847 -29.262,131.357 -60.883,192.637c-5.985,11.598 -12.06,21.274 -18.429,27.569c-1.709,1.689 -3.381,3.092 -5.111,4.026c-0.486,0.262 -0.927,0.579 -1.392,0.665c-2.458,-1.914 -21.112,-16.609 -34.301,-31.786c-15.217,-17.512 -30.988,-39.599 -40.61,-61.615c-5.678,-12.993 -9.298,-25.865 -8.478,-37.519c11.987,-170.363 106.387,-626.561 167.53,-874.296c12.459,-50.48 38.645,-136.235 65.962,-181.472c5.011,-8.298 9.929,-15.106 14.904,-19.587c1.485,-1.338 4.064,-2.812 4.632,-3.129Z" style="fill:#7e4021;"/><path d="M988.041,2295.64c-52.67,311.46 -413.847,2144.41 -443.978,2347.44c-2.367,15.952 8.662,30.825 24.614,33.192c15.952,2.367 30.825,-8.662 33.192,-24.614c30.117,-202.936 391.149,-2034.97 443.793,-2346.28c2.689,-15.901 -8.038,-30.993 -23.939,-33.682c-15.901,-2.689 -30.993,8.037 -33.682,23.938Z" style="fill:#c5e8f0;"/><path d="M971.607,2292.86c-52.677,311.503 -413.894,2144.71 -444.03,2347.77c-3.718,25.051 13.602,48.407 38.653,52.125c25.051,3.718 48.407,-13.602 52.125,-38.653c30.112,-202.908 391.104,-2034.68 443.74,-2345.94c4.223,-24.97 -12.622,-48.672 -37.593,-52.894c-24.97,-4.223 -48.672,12.622 -52.895,37.592Zm32.867,5.558c1.155,-6.831 7.639,-11.439 14.47,-10.284c6.831,1.155 11.44,7.639 10.284,14.47c-52.65,311.35 -413.724,2143.64 -443.845,2346.61c-1.017,6.853 -7.407,11.591 -14.26,10.574c-6.853,-1.017 -11.591,-7.407 -10.574,-14.26c30.127,-203.008 391.263,-2035.69 443.925,-2347.11Z" style="fill:#7e4021;"/><path d="M1178.26,2280.6c-15.493,46.289 -33.667,120.236 -92.975,115.385c-70.908,-5.801 -225.066,-26.284 -195.335,-130.129c1.455,-5.083 8.678,-34.17 15.102,-36.916c14.67,-6.27 50.929,8.845 65.126,12.297c60.717,14.768 145.698,38.393 208.082,39.363Z" style="fill:#edaf5f;"/><path d="M1194.06,2285.89c1.687,-5.041 0.869,-10.584 -2.203,-14.922c-3.072,-4.338 -8.028,-6.95 -13.343,-7.033c-61.293,-0.952 -144.747,-24.383 -204.402,-38.892c-10.235,-2.49 -31.634,-10.758 -48.717,-13.344c-10.728,-1.623 -20.258,-0.923 -26.899,1.916c-3.586,1.532 -8.177,5.131 -11.794,11.422c-5.793,10.072 -11.479,31.689 -12.78,36.231c-14.357,50.148 6.438,84.34 42.482,107.589c46.976,30.302 122.889,40.088 167.517,43.739c29.997,2.454 51.852,-10.645 68.317,-31.46c20.669,-26.129 31.985,-65.856 41.822,-95.246Zm-279.57,-41.813l0.858,0.053c3.436,0.153 7.276,0.82 11.254,1.705c14.856,3.303 31.181,9.542 39.632,11.597c54.812,13.331 129.091,33.586 189.479,38.673l-0,-0c-5.75,17.697 -12.458,36.866 -21.888,52.927c-10.565,17.998 -24.635,32.186 -47.186,30.341c-40.462,-3.309 -109.577,-11.055 -152.167,-38.527c-23.667,-15.267 -37.931,-37.474 -28.504,-70.403c0.75,-2.619 3.087,-11.925 6.06,-20.34c0.672,-1.899 1.674,-4.252 2.462,-6.026Z" style="fill:#7e4021;"/><path d="M800.611,3412.95c-3.974,-0.663 -11.18,-0.189 -20.842,2.737c-15.011,4.546 -39.385,15.085 -68.476,29.762c-56.726,28.619 -131.974,73.079 -190.082,117.615c-40.584,31.105 -72.769,62.655 -86.303,88.965c-73.554,142.992 -132.637,350.173 -169.159,515.435c-19.493,88.206 -35.847,198.365 -9.538,287.629c17.693,60.028 60.628,103.972 118.882,126.239c63.084,24.113 186.485,58.85 296.992,69.315c76.811,7.273 147.507,2.15 189.751,-23.849c40.616,-24.997 75.968,-76.083 104.411,-135.948c40.958,-86.204 68.346,-190.356 80.69,-253.392c27.04,-138.082 40.632,-274.009 37.977,-379.595c-1.829,-72.745 -11.632,-131.473 -29.332,-167.724c-31.899,-65.335 -83.56,-145.605 -138.518,-202.528c-38.779,-40.165 -79.658,-68.518 -116.452,-74.661l-0.001,0Zm-4.472,33.058c30.974,5.593 64.353,30.999 96.944,64.755c52.627,54.508 102,131.438 132.545,194.001c16.228,33.237 24.286,87.241 25.963,153.937c2.605,103.574 -10.842,236.9 -37.366,372.351c-11.958,61.064 -38.409,161.985 -78.086,245.494c-25.314,53.278 -55.627,99.618 -91.774,121.864c-37.598,23.139 -100.775,25.525 -169.137,19.052c-107.248,-10.156 -227.011,-43.864 -288.234,-67.266c-48.321,-18.47 -84.134,-54.734 -98.809,-104.527c-24.794,-84.119 -8.258,-187.89 10.112,-271.012c35.945,-162.654 93.859,-366.645 166.253,-507.38c11.944,-23.22 41.122,-50.306 76.939,-77.757c56.492,-43.298 129.67,-86.487 184.818,-114.311c32.032,-16.16 67.224,-28.308 69.832,-29.201Z" style="fill:#7e4021;"/><path d="M796.58,3407.64c-8.316,-1.074 -17.106,1.178 -25.813,7.46c-8.497,6.131 -17.479,16.881 -26.096,31.151c-28.731,47.579 -56.686,137.622 -69.79,190.715c-61.535,249.326 -156.355,708.488 -168.418,879.944c-2.728,38.771 27.299,88.955 57.178,123.338c13.719,15.787 27.18,28.25 36.654,34.964c6.132,4.344 11.393,6.658 14.932,7.46c10.57,2.398 21.382,-0.189 31.822,-8.227c10.371,-7.984 20.932,-22.5 30.608,-41.25c33.035,-64.021 59.605,-180.425 63.901,-201.16c52.569,-253.744 117.44,-503.999 161.082,-759.928c21.19,-124.268 -21.358,-200.586 -58.673,-236.733c-18.501,-17.921 -36.675,-26.35 -47.387,-27.734l0,0Zm-3.839,33.125c6.649,1.078 16.818,7.687 28.033,18.551c32.574,31.554 67.505,98.71 49.007,207.188c-43.576,255.54 -108.374,505.41 -160.863,758.769c-4.112,19.847 -29.263,131.357 -60.883,192.636c-5.986,11.599 -12.06,21.275 -18.43,27.57c-1.708,1.689 -3.381,3.091 -5.111,4.026c-0.485,0.262 -0.927,0.579 -1.392,0.664c-2.458,-1.913 -21.111,-16.609 -34.3,-31.786c-15.218,-17.511 -30.989,-39.598 -40.611,-61.614c-5.678,-12.993 -9.297,-25.866 -8.477,-37.519c11.986,-170.363 106.386,-626.561 167.529,-874.296c12.459,-50.481 38.645,-136.235 65.962,-181.472c5.011,-8.299 9.93,-15.106 14.904,-19.587c1.486,-1.339 4.064,-2.813 4.632,-3.13Z" style="fill:#7e4021;"/><path d="M851.89,276.194c-23.417,51.223 -49.744,129.751 -68.065,182.723c-40.496,117.082 -82.733,233.43 -125.044,349.868c-93.06,256.098 -300.793,761.312 -264.925,1028.27c16.516,122.924 94.289,221.859 197.501,287.061c337.298,213.079 1210.1,305.276 1633.62,357.848c184.988,22.963 372.823,63.699 559.925,46.431c131.967,-12.18 282.334,-56.142 378.076,-153.955c145.02,-148.158 121.97,-459.665 114.203,-647.151c-9.343,-225.549 -10.433,-667.415 -154.485,-854.23c-57.995,-75.211 -144.89,-129.845 -229.334,-170.405c-172.047,-82.637 -364.737,-124.63 -544.384,-187.852c-359.686,-126.581 -920.443,-404.3 -1303.05,-362.043c-69.865,7.716 -154.993,38.03 -194.036,123.433Zm912.2,559.678c-74.737,11.658 -104.797,50.006 -122.075,100.473c-11.066,32.321 -10.669,68.272 -11.091,102.309c-1.306,105.257 46.537,190.61 132.518,250.639c159.305,111.222 713.154,267.792 905.902,214.794c47.296,-13.005 83.424,-48.816 108.155,-90.022c31.192,-51.969 35.626,-122.997 30.849,-181.971c-4.848,-59.844 -36.331,-159.852 -155.3,-192.993c-211.421,-58.893 -706.219,-231.734 -888.958,-203.229Z" style="fill:#ffce7b;"/><path d="M836.733,269.264c-23.609,51.642 -50.188,130.799 -68.66,184.205c-40.467,117.001 -82.675,233.267 -124.957,349.624c-55.958,153.995 -153.255,397.88 -214.402,626.129c-41.329,154.273 -65.954,301.555 -51.376,410.054c17.184,127.898 97.729,231.093 205.118,298.933c338.752,213.997 1215.12,307.498 1640.47,360.297c186.165,23.109 375.216,63.865 563.51,46.487c135.676,-12.522 290.021,-58.33 388.454,-158.893c60.22,-61.523 93.033,-149.953 109.602,-246.649c24.146,-140.912 14.044,-299.394 9.344,-412.85c-5.629,-135.863 -8.337,-349.902 -40.791,-539.911c-22.065,-129.187 -58.152,-247.296 -117.149,-323.806c-59.556,-77.236 -148.598,-133.6 -235.316,-175.251c-172.59,-82.898 -365.853,-125.129 -546.068,-188.55c-216.021,-76.023 -504.511,-206.478 -783.454,-289.567c-188.117,-56.034 -371.992,-90.437 -526.96,-73.321c-74.853,8.267 -165.533,41.569 -207.363,133.069Zm30.315,13.86c36.256,-79.307 115.83,-106.632 180.708,-113.797c151.119,-16.691 330.339,17.493 513.784,72.136c278.4,82.926 566.304,213.188 781.905,289.063c179.08,63.022 371.198,104.778 542.701,187.154c82.171,39.467 166.918,92.372 223.351,165.558c56.246,72.942 89.652,185.902 110.689,309.064c32.198,188.516 34.759,400.883 40.343,535.679c4.62,111.527 14.842,267.323 -8.893,405.841c-15.352,89.591 -44.773,171.958 -100.569,228.961c-93.051,95.064 -239.439,137.181 -367.696,149.018c-185.912,17.158 -372.531,-23.558 -556.341,-46.375c-421.694,-52.345 -1290.93,-143.239 -1626.77,-355.398c-99.036,-62.564 -174.036,-157.239 -189.884,-275.19c-14.117,-105.069 10.516,-247.595 50.538,-396.99c60.88,-227.252 157.82,-470.048 213.533,-623.371c42.341,-116.519 84.607,-232.948 125.131,-350.112c18.171,-52.539 44.247,-130.438 67.472,-181.241Zm894.474,536.28c-82.88,12.928 -116.114,55.577 -135.275,111.543c-11.631,33.972 -11.545,71.724 -11.989,107.5c-1.377,111.047 48.933,201.181 139.643,264.512c96.686,67.504 336.9,151.942 555.835,196.775c147.417,30.189 285.256,42.082 364.027,20.423c51.457,-14.149 91.119,-52.684 118.027,-97.515c32.91,-54.833 38.211,-129.67 33.17,-191.894c-5.221,-64.451 -39.312,-172.01 -167.44,-207.702c-148.256,-41.298 -435.624,-138.487 -657.485,-183.314c-97.297,-19.659 -182.316,-29.094 -238.513,-20.328l-0,0Zm5.137,32.935c71.673,-11.179 192.232,9.777 324.454,41.988c202.079,49.228 430.729,125.527 557.462,160.83c109.81,30.589 138.686,123.046 143.161,178.283c4.514,55.724 0.946,122.942 -28.527,172.048c-22.556,37.581 -55.149,70.668 -98.284,82.528c-75.428,20.74 -207.339,7.97 -348.502,-20.937c-213.937,-43.81 -448.961,-125.489 -543.441,-191.451c-81.251,-56.728 -126.627,-137.299 -125.393,-236.768c0.401,-32.297 -0.306,-66.447 10.194,-97.116c15.396,-44.969 42.281,-79.017 108.876,-89.405l0,0Z" style="fill:#7e4021;"/><path d="M2486.61,2035.68c54.116,-79.607 131.653,-148.74 200.739,-214.626c165.026,-157.384 408.414,-252.218 575.209,-284.545c2.999,-34.127 0.701,-103.635 -8.769,-142.312c-215.608,30.306 -466.584,130.317 -667.421,321.852c-74.562,71.11 -157.411,146.499 -215.817,232.417l116.059,87.214Z" style="fill:#c5e8f0;"/><path d="M2476.6,2049.01c3.643,2.738 8.249,3.864 12.745,3.117c4.495,-0.747 8.489,-3.302 11.051,-7.071c53.468,-78.653 130.201,-146.839 198.459,-211.935c162.615,-155.084 402.519,-248.389 566.877,-280.244c7.3,-1.415 12.78,-7.495 13.431,-14.903c3.114,-35.428 0.648,-107.582 -9.182,-147.734c-2.035,-8.312 -10.034,-13.732 -18.509,-12.541c-218.576,30.723 -473.001,132.123 -676.603,326.295c-75.391,71.9 -159.043,148.236 -218.098,235.108c-5.003,7.358 -3.343,17.348 3.77,22.694l116.059,87.214Zm6.266,-36.988l-89.431,-67.204c57.075,-79.584 134.496,-149.998 204.439,-216.701c193.283,-184.333 433.659,-282.699 642.756,-315.121c5.686,33.262 7.431,79.324 6.112,109.697c-168.7,35.046 -407.581,130.557 -570.892,286.306c-65.748,62.702 -138.947,128.414 -192.984,203.023l-0,0Z" style="fill:#7e4021;"/><path d="M2735.01,2205.75c40.884,-59.295 97.807,-111.911 148.644,-161.909c173.946,-171.077 264.484,-225.021 396.941,-208.095c-0.288,-16.22 -3.549,-165.321 -6.237,-165.047c-159.106,16.254 -346.886,100.909 -514.965,266.216c-55.571,54.655 -117.131,112.779 -161.822,177.597l137.439,91.238Z" style="fill:#f6a292;"/><path d="M2725.79,2219.64c7.573,5.028 17.779,3.059 22.939,-4.425c40.296,-58.443 96.504,-110.208 146.609,-159.487c168.367,-165.591 254.934,-219.829 383.142,-203.446c4.801,0.614 9.632,-0.89 13.236,-4.12c3.604,-3.23 5.627,-7.868 5.541,-12.707c-0.261,-14.727 -2.99,-138.035 -5.502,-162.348c-0.915,-8.855 -4.671,-13.296 -5.564,-14.184c-4.374,-4.35 -9.173,-5.245 -13.528,-4.8c-162.135,16.563 -353.68,102.46 -524.959,270.914c-56.302,55.373 -118.577,114.348 -163.857,180.019c-2.538,3.681 -3.49,8.227 -2.643,12.617c0.847,4.39 3.422,8.256 7.147,10.729l137.439,91.238Zm533.704,-530.416c1.697,30.527 3.308,95.07 4.042,127.995c-126.689,-10.109 -220.552,46.544 -391.571,214.744c-47.727,46.939 -100.655,96.234 -141.153,151.002l-109.669,-72.804c43.046,-58.441 99.073,-111.336 149.935,-161.359c159.092,-156.469 336,-239.622 488.416,-259.578Z" style="fill:#7e4021;"/><path d="M2586.12,2106.35c46.942,-68.638 122.172,-117.91 181.433,-175.172c165.531,-159.948 346.643,-234.959 507.145,-251.575c-1.783,-0.783 -5.655,-143.794 -9.042,-140.345c-167.924,28.561 -415.337,124.093 -584.611,287.657c-64.355,62.185 -133.055,143.953 -184.034,218.493l89.109,60.942Z" style="fill:#facad0;"/><path d="M3290.86,1675.53l-0.089,-0.863c-1.745,-19.624 -4.782,-116.089 -7.604,-134.824c-1.423,-9.44 -6.594,-13.501 -7.995,-14.444c-3.994,-2.69 -8.086,-3.3 -12.069,-2.657c-0.46,0.075 -0.927,0.167 -1.397,0.281c-170.429,29.231 -420.794,126.241 -592.24,291.904c-65.115,62.92 -134.629,145.65 -186.21,221.07c-5.196,7.598 -3.25,17.969 4.348,23.166l89.109,60.942c7.598,5.197 17.969,3.25 23.166,-4.348c46.318,-67.725 120.785,-116.096 179.257,-172.596c162.35,-156.874 339.863,-230.685 497.281,-246.982c7.523,-0.779 13.579,-6.527 14.749,-14c0.356,-2.269 0.233,-4.524 -0.306,-6.649Zm-39.343,-116.779c1.945,27.089 3.825,79.613 5.24,106.143c-159.496,20.173 -337.623,96.639 -500.783,254.296c-56.09,54.198 -126.091,101.548 -173.843,164.238l-61.855,-42.304c49.22,-69.853 112.675,-144.561 172.353,-202.226c161.113,-155.679 394.146,-248.69 558.888,-280.147Zm25.541,-7.338c-1.719,1.625 -3.521,2.677 -5.302,3.351c1.957,-0.767 3.757,-1.902 5.302,-3.351Z" style="fill:#7e4021;"/><path d="M2626.31,1772.53c160.139,30.261 265.584,184.842 235.322,344.981c-30.261,160.139 -184.842,265.583 -344.981,235.322c-160.139,-30.261 -265.583,-184.842 -235.322,-344.981c30.261,-160.139 184.842,-265.583 344.981,-235.322Z" style="fill:#fee4a8;"/><path d="M2629.4,1756.15c-169.178,-31.969 -332.483,79.427 -364.453,248.604c-31.969,169.178 79.427,332.484 248.604,364.453c169.178,31.969 332.484,-79.426 364.453,-248.604c31.969,-169.178 -79.426,-332.483 -248.604,-364.453l-0,0Zm-6.189,32.754c151.1,28.553 250.593,174.409 222.039,325.51c-28.553,151.1 -174.409,250.593 -325.509,222.039c-151.101,-28.553 -250.593,-174.409 -222.04,-325.509c28.553,-151.101 174.409,-250.593 325.51,-222.04l-0,-0Z" style="fill:#7d3f21;"/><path d="M2705.41,2095.9c-2.379,12.55 -6.265,25.079 -11.741,37.328c-34.746,77.729 -120.937,115.601 -192.803,83.476c-71.866,-32.126 -101.128,-121.607 -66.382,-199.336c1.302,-2.912 2.675,-5.767 4.116,-8.564c4.214,-8.177 0.996,-18.236 -7.18,-22.45c-8.177,-4.214 -18.237,-0.996 -22.45,7.181c-1.722,3.341 -3.362,6.752 -4.917,10.229c-42.536,95.156 -4.769,204.043 83.209,243.371c87.979,39.328 194.302,-5.148 236.839,-100.304c6.559,-14.674 11.209,-29.687 14.059,-44.721c1.714,-9.038 -4.233,-17.766 -13.27,-19.48c-9.038,-1.713 -17.766,4.233 -19.48,13.27Z" style="fill:#7d3f21;"/><path d="M2400.68,1995.07c0.219,0.509 0.43,0.966 0.57,1.213c0.35,0.613 0.71,1.219 1.059,1.832c1.697,2.975 3.655,5.694 5.938,8.25c7.607,8.519 17.673,11.571 28.732,11.175c9.193,-0.329 16.389,-8.059 16.06,-17.252c-0.329,-9.193 -8.06,-16.389 -17.252,-16.06c-0.961,0.035 -2.016,0.675 -2.677,-0.065c-0.709,-0.794 -1.319,-1.638 -1.846,-2.562c-0.348,-0.61 -0.706,-1.213 -1.053,-1.822c0.318,0.557 1.132,2.469 1.132,2.469c-0,-0 -3.692,-6.476 -4.29,-7.066c-4.038,-3.98 -8.352,-4.806 -11.73,-4.802c-4.938,0.005 -10.298,1.599 -14.199,7.962c-0.735,1.2 -2.186,3.553 -2.439,7.777c-0.194,3.232 0.549,6.304 1.995,8.951Zm31.186,-5.958c-0.486,4.071 -2.427,7.658 -5.265,10.263c1.781,-1.467 4.646,-4.375 5.265,-10.263Z" style="fill:#7d3f21;"/><path d="M2742.43,2110.94c2.938,-0.687 5.722,-2.183 8.001,-4.482c4.332,-4.372 4.6,-8.352 4.778,-10.051c0.47,-4.483 -0.759,-8.067 -2.718,-11c-2.257,-3.38 -6.227,-7.313 -13.651,-7.413c-0.793,-0.01 -7.286,1.539 -7.286,1.539c0,0 1.947,-0.66 2.576,-0.795c-0.685,0.147 -1.373,0.283 -2.059,0.43c-1.041,0.224 -2.076,0.332 -3.141,0.334c-0.992,0.001 -1.219,-1.213 -1.833,-1.951c-5.886,-7.07 -16.404,-8.031 -23.473,-2.145c-7.069,5.885 -8.03,16.403 -2.145,23.472c7.081,8.505 16.068,13.97 27.489,13.957c3.427,-0.004 6.759,-0.358 10.107,-1.078c0.69,-0.148 1.382,-0.284 2.072,-0.433c0.278,-0.06 0.758,-0.207 1.283,-0.384Zm-20.299,-18.782c-0.797,4.432 0.222,7.982 2.004,10.856c-1.909,-3.324 -2.578,-7.168 -2.004,-10.856Zm0.878,-3.333c0.796,-2.124 2.047,-4.117 3.746,-5.832c-2.277,2.298 -3.244,4.389 -3.746,5.832Z" style="fill:#7d3f21;"/><path d="M2432.49,1984.41c-0.613,-1.388 -1.295,-2.83 -2.054,-4.323c-4.168,-8.2 -14.209,-11.473 -22.409,-7.304c-8.2,4.168 -11.473,14.209 -7.305,22.409c2.836,5.58 3.756,9.136 3.911,10.773c0.048,0.513 0.014,0.784 0.015,0.809c0.377,7.476 4.439,10.568 5.27,11.344c1.186,1.107 10.936,5.496 18.665,2.889c0.718,-0.372 1.442,-0.801 2.181,-1.297c0.305,-0.205 1.474,-1.813 4.594,-2.092c9.162,-0.819 15.936,-8.922 15.117,-18.084c-0.815,-9.129 -8.863,-15.887 -17.985,-15.124Zm-27.374,17.532c-0.075,0.292 -0.149,0.628 -0.218,1.01l0.218,-1.01Zm0.066,-0.273l-0.044,0.184l0.257,-0.905l-0.213,0.721Z" style="fill:#7d3f21;"/><path d="M2716.01,2115.1c3.769,3.829 8.908,5.162 15.677,0.164c1.323,-0.976 4.586,-2.663 10.635,-4.27c8.89,-2.363 14.19,-11.498 11.827,-20.388c-2.363,-8.89 -11.498,-14.19 -20.388,-11.827c-1.618,0.43 -3.148,0.884 -4.591,1.353c-5.515,-7.307 -15.917,-8.796 -23.264,-3.316c-7.373,5.5 -8.893,15.952 -3.393,23.325c1.873,2.511 1.454,4.454 1.505,4.819c1.57,11.241 9.688,13.543 13.56,14.257l-1.568,-4.117Zm20.981,-15.537l-0.118,-0.891c1.54,3.986 1.201,8.831 -3.118,14.385c2.871,-3.692 4.028,-8.374 3.292,-12.893l-0.056,-0.601Z" style="fill:#7d3f21;"/><path d="M2746.14,1989.47c-15.78,0.808 -22.747,30.889 -9.771,35.311c21.208,7.229 24.688,-36.074 9.771,-35.311Z" style="fill:#7d3f21;"/><path d="M2745.6,1979.07c-6.515,0.334 -12.265,3.35 -16.769,8.179c-5.463,5.856 -8.968,14.566 -9.568,22.658c-0.868,11.708 4.337,21.533 13.739,24.737c20.267,6.908 32.952,-12.659 32.659,-31.154c-0.23,-14.514 -8.874,-24.992 -20.061,-24.42Zm-1.32,22.087c0.291,1.961 0.57,4.725 0.243,6.665c-0.31,1.836 -0.839,3.638 -1.653,5.185c-0.553,1.051 -1.283,2.084 -2.457,2.045c-0.157,-0.781 -0.457,-2.477 -0.374,-3.605c0.225,-3.037 1.295,-6.291 3.078,-8.814c0.365,-0.516 0.744,-1.033 1.163,-1.476Z" style="fill:#7d3f21;"/><path d="M2469.53,1892.65c-15.778,-0.837 -25.834,28.356 -13.387,34.104c20.341,9.393 28.303,-33.313 13.387,-34.104Z" style="fill:#7d3f21;"/><path d="M2470.08,1882.24c-6.515,-0.346 -12.547,2.057 -17.529,6.391c-6.042,5.257 -10.434,13.555 -11.871,21.541c-2.08,11.554 2.076,21.867 11.094,26.031c19.439,8.977 34.089,-9.165 35.72,-27.591c1.28,-14.459 -6.229,-25.779 -17.414,-26.372Zm-3.609,21.83c0.086,1.98 0.076,4.758 -0.451,6.653c-0.499,1.795 -1.212,3.532 -2.183,4.986c-0.66,0.987 -1.492,1.939 -2.656,1.778c-0.075,-0.793 -0.198,-2.51 0.003,-3.624c0.539,-2.997 1.941,-6.122 3.977,-8.446c0.417,-0.475 0.847,-0.95 1.31,-1.347Z" style="fill:#7d3f21;"/><path d="M536.776,1528.54c-1.809,3.147 -2.604,6.906 -2.018,10.771c2.363,15.584 14.798,16.058 17.261,16.031c3.969,-0.043 11.24,-1.129 15.289,-10.144c0.548,-1.22 1.421,-3.886 2.002,-7.624c0.965,-6.213 1.982,-19.066 3.268,-24.633c3.765,-16.307 7.905,-32.547 11.955,-48.785c12.46,-49.957 26.479,-99.613 40.118,-149.258c39.614,-144.184 91.505,-285.056 151.673,-421.879c3.703,-8.42 -0.127,-18.263 -8.547,-21.965c-8.42,-3.703 -18.263,0.127 -21.966,8.547c-60.821,138.308 -113.258,280.717 -153.302,426.466c-13.709,49.899 -27.795,99.81 -40.319,150.023c-4.097,16.426 -8.282,32.855 -12.091,49.351c-1.048,4.539 -2.527,16.346 -3.323,23.099Zm30.72,4.629l0.028,0.121l-0.01,-0.05l-0.018,-0.071Z" style="fill:#7e4021;"/><path d="M804.131,783.342c2.122,-18.31 15.57,-39.959 22.144,-57.191c3.278,-8.594 -1.038,-18.233 -9.632,-21.512c-8.595,-3.279 -18.234,1.037 -21.513,9.632c-7.454,19.54 -21.704,44.469 -24.111,65.232c-1.059,9.137 5.499,17.416 14.636,18.475c9.138,1.059 17.416,-5.499 18.476,-14.636Z" style="fill:#7e4021;"/><path d="M1727.49,1241.02c-49.538,-14.206 -96.957,-61.925 -130.251,-99.407c-6.109,-6.877 -16.652,-7.501 -23.529,-1.392c-6.877,6.109 -7.501,16.652 -1.392,23.529c37.058,41.719 90.845,93.5 145.983,109.312c8.842,2.536 18.08,-2.584 20.615,-11.427c2.536,-8.842 -2.584,-18.079 -11.426,-20.615Z" style="fill:#7e4021;"/><path d="M2673.89,1062.75c9.156,3.394 42.302,14.779 51.661,17.512c42.843,12.512 82.422,33.513 114.055,65.312c6.487,6.521 17.048,6.549 23.57,0.061c6.521,-6.487 6.549,-17.048 0.061,-23.57c-35.632,-35.819 -80.081,-59.706 -128.342,-73.8c-8.953,-2.615 -40.659,-13.523 -49.418,-16.77c-8.625,-3.198 -18.223,1.209 -21.421,9.834c-3.197,8.625 1.209,18.223 9.834,21.421Z" style="fill:#7e4021;"/></g></svg>