<?xml version="1.0" encoding="UTF-8" standalone="no"?><!DOCTYPE svg PUBLIC "-//W3C//DTD SVG 1.1//EN" "http://www.w3.org/Graphics/SVG/1.1/DTD/svg11.dtd"><svg width="100%" height="100%" viewBox="0 0 3517 2759" version="1.1" xmlns="http://www.w3.org/2000/svg" xmlns:xlink="http://www.w3.org/1999/xlink" xml:space="preserve" xmlns:serif="http://www.serif.com/" style="fill-rule:evenodd;clip-rule:evenodd;stroke-linejoin:round;stroke-miterlimit:2;"><g id="Measuring-spoons" serif:id="Measuring spoons"><path d="M3480.07,238.547c70.965,-132.983 -146.555,-245.826 -355.449,-216.36c-314.943,44.424 -1195.76,480.042 -1472.2,515.299c-353.036,45.025 -599.123,-77.566 -868.363,-69.559c-236.565,7.035 -727.152,136.245 -765.108,649.28c-35.769,483.481 509.531,943.186 1133.73,626.341c521.278,-264.604 312.414,-731.184 715.722,-907.464c308.606,-134.886 1439.17,-274.279 1611.67,-597.537Zm-264.467,-50.472c-22.77,-23.134 -80.922,-16.308 -130.553,3.934c-49.631,20.241 -90.741,53.9 -79.429,84.432c26.495,71.512 288.523,-8.568 209.982,-88.366Z" style="fill:#e4faff;"/><path d="M3494.77,246.394c32.418,-60.749 13.206,-118.075 -38.087,-162.535c-70.189,-60.836 -203.816,-96.594 -334.394,-78.175c-158.273,22.325 -458.831,142.668 -754.456,262.138c-292.489,118.203 -580.074,235.601 -717.524,253.131c-174.647,22.274 -322.835,2.975 -460.664,-20.789c-140.451,-24.216 -270.36,-52.933 -406.086,-48.897c-241.817,7.191 -742.435,140.284 -781.233,664.711c-36.568,494.282 519.752,966.355 1157.89,642.431c265.66,-134.851 345.614,-320.882 410.192,-495.947c61.791,-167.508 107.993,-325.146 304.661,-411.106c215.913,-94.372 834.399,-190.876 1245.18,-351.151c180.72,-70.511 321.418,-154.313 374.515,-253.811Zm-29.408,-15.694c-26.442,49.55 -76.724,94.228 -143.174,135.463c-103.049,63.946 -244.56,118.915 -400.055,167.612c-393.133,123.12 -874.946,205.973 -1060.41,287.038c-206.642,90.32 -257.66,254.109 -322.584,430.113c-62.137,168.447 -138.389,348.007 -394.007,477.76c-610.253,309.768 -1144.53,-137.567 -1109.56,-610.249c37.113,-501.646 517.669,-626.972 748.982,-633.851c133.515,-3.97 261.269,24.605 399.431,48.427c140.783,24.273 292.156,43.757 470.545,21.005c138.989,-17.726 430.032,-135.765 725.797,-255.291c292.63,-118.26 589.952,-237.938 746.622,-260.037c120.096,-16.94 243.351,14.405 307.905,70.358c38.537,33.402 54.868,76.012 30.512,121.652Zm-237.885,-54.316c-11.639,-11.825 -30.173,-18.473 -52.69,-19.4c-28.489,-1.173 -63.937,6.501 -96.035,19.592c-32.792,13.374 -61.925,32.484 -77.519,52.561c-13.446,17.311 -17.689,35.7 -11.245,53.095c6.555,17.691 22.728,29.79 45.642,35.198c42.073,9.929 109.408,-3.252 155.622,-28.564c19.725,-10.804 35.625,-23.861 45.024,-37.772c7.652,-11.328 11.317,-23.371 10.511,-35.634c-0.834,-12.704 -6.465,-26.026 -19.31,-39.076l-0,-0Zm-23.757,23.382c6.009,6.105 9.415,11.935 9.806,17.878c0.446,6.801 -3.053,13.127 -8.271,19.227c-7.199,8.415 -17.729,16.03 -30.016,22.76c-33.963,18.602 -81.129,30.08 -116.638,27.578c-10.326,-0.728 -19.566,-2.598 -26.82,-6.221c-4.902,-2.448 -8.797,-5.646 -10.536,-10.337c-2.611,-7.049 0.864,-14.052 6.313,-21.067c12.728,-16.387 37.016,-31.226 63.782,-42.143c27.46,-11.199 57.704,-18.155 82.076,-17.152c12.734,0.524 23.722,2.79 30.304,9.477l0,0Z" style="fill:#7e4021;"/><path d="M945.703,604.557c51.428,4.73 122.251,10.882 185.556,30.672c40.184,12.561 77.366,30.542 103.623,57.931c6.365,6.64 16.924,6.863 23.565,0.497c6.64,-6.366 6.863,-16.925 0.497,-23.565c-29.926,-31.217 -71.939,-52.361 -117.739,-66.679c-65.67,-20.529 -139.1,-27.143 -192.449,-32.049c-9.16,-0.843 -17.281,5.91 -18.123,15.07c-0.843,9.16 5.91,17.28 15.07,18.123Z" style="fill:#7e4021;"/><path d="M1868.39,836.084c-295.2,109.472 -258.379,100.073 -506.364,411.055c-138.56,173.76 -364.508,389.095 -751.944,334.411c-362.119,-51.111 -527.661,-287.742 -591.14,-464.343c-35.769,483.481 509.531,943.186 1133.73,626.341c521.278,-264.604 312.414,-731.184 715.722,-907.464Z" style="fill:#c5e8f0;"/><path d="M1875.07,851.356c8.265,-3.613 12.156,-13.145 8.78,-21.509c-3.376,-8.365 -12.793,-12.526 -21.25,-9.389c-299.236,110.968 -262.224,101.056 -513.599,416.289c-135.78,170.273 -356.926,381.886 -736.585,328.3c-353.826,-49.94 -515.76,-280.921 -577.785,-453.477c-2.662,-7.406 -10.14,-11.94 -17.937,-10.876c-7.797,1.063 -13.788,7.436 -14.368,15.284c-36.568,494.282 519.752,966.355 1157.89,642.431c265.66,-134.851 345.614,-320.882 410.192,-495.947c61.791,-167.508 107.993,-325.146 304.661,-411.106Zm-151.927,59.251c-97.144,91.433 -136.917,212.663 -184.007,340.319c-62.137,168.447 -138.389,348.007 -394.007,477.76c-575.986,292.375 -1084.29,-89.718 -1110.15,-530.994c81.837,166.953 251.695,355.042 572.783,400.361c395.212,55.782 625.962,-163.275 767.304,-340.523c190.788,-239.256 210.471,-286.481 348.081,-346.923l-0,-0Z" style="fill:#7e4021;"/><path d="M273.981,840.208c173.852,-178.026 366.969,-235.725 535.717,-241.862c9.193,-0.334 16.385,-8.069 16.05,-17.261c-0.334,-9.193 -8.069,-16.384 -17.261,-16.05c-175.855,6.395 -377.18,66.36 -558.354,251.884c-6.427,6.581 -6.302,17.142 0.279,23.569c6.581,6.427 17.142,6.301 23.569,-0.28Z" style="fill:#7e4021;"/><path d="M3482.21,191.982c25.109,-135.248 -195.226,-173.504 -368.854,-90.322c-261.774,125.41 -908.112,747.056 -1138.91,853.883c-294.749,136.427 -542.624,97.56 -774.667,178.695c-203.881,71.288 -595.114,318.851 -486.808,775.665c102.068,430.498 703.135,680.24 1158.92,232.622c380.637,-373.814 70.387,-722.217 372.718,-986.688c231.339,-202.369 1176.57,-635.088 1237.6,-963.855Zm-243.999,28.943c-26.183,-13.855 -74.897,8.103 -112.501,39.386c-37.605,31.283 -64.1,71.892 -45.847,95.34c42.751,54.919 248.664,-86.935 158.348,-134.726Z" style="fill:#e5bdff;"/><path d="M3498.59,195.025c11.607,-62.52 -21.214,-107.679 -78.766,-132.522c-78.125,-33.723 -204.725,-28.07 -313.676,24.126c-131.617,63.055 -360.087,250.624 -584.488,436.094c-221.795,183.316 -439.527,364.607 -554.222,417.695c-145.664,67.421 -279.773,91.418 -406.106,108.694c-128.968,17.635 -249.997,28.461 -367.062,69.393c-208.841,73.023 -608.465,327.315 -497.524,795.243c104.566,441.036 719.873,699.243 1186.82,240.668c194.337,-190.852 212.721,-375.05 220.694,-545.46c7.597,-162.364 4.249,-311.922 151.319,-440.574c161.847,-141.58 673.344,-395.902 986.574,-648.495c138.144,-111.401 237.608,-223.423 256.44,-324.862Zm-32.773,-6.085c-9.317,50.183 -40.664,102.662 -86.923,156.616c-71.975,83.945 -179.859,170.664 -301.617,255.788c-308.171,215.451 -704.595,420.309 -843.648,541.949c-155.263,135.82 -154.649,292.696 -162.669,464.106c-7.643,163.363 -24.452,340.274 -210.753,523.235c-444.632,436.662 -1031.46,195.386 -1131.03,-224.576c-105.671,-445.701 277.171,-686.533 476.092,-756.088c114.978,-40.202 233.908,-50.511 360.576,-67.832c129.302,-17.682 266.504,-42.464 415.591,-111.47c116.103,-53.739 336.939,-236.685 561.457,-422.251c221.911,-183.413 447.497,-369.371 577.654,-431.727c99.403,-47.622 214.785,-54.351 286.063,-23.583c42.053,18.153 67.685,50.15 59.204,95.833Zm-219.818,17.253c-13.663,-7.229 -31.99,-7.991 -52.25,-2.482c-25.283,6.875 -54.217,23.415 -78.705,43.787c-25.065,20.852 -45.293,45.745 -53.4,67.7c-7.128,19.301 -5.636,36.951 5.06,50.691c10.853,13.941 28.68,20.257 50.664,18.608c39.625,-2.972 94.997,-33.163 128.472,-68.167c14.366,-15.023 24.711,-30.98 29.111,-45.86c3.635,-12.296 3.481,-24.103 -0.711,-34.841c-4.333,-11.099 -13.094,-21.421 -28.241,-29.436Zm-15.59,29.463c6.534,3.458 10.911,7.308 12.78,12.096c2.133,5.461 0.813,11.549 -1.883,17.907c-3.886,9.163 -10.855,18.534 -19.557,27.633c-24.241,25.349 -61.824,48.167 -93.17,55.715c-8.977,2.162 -17.336,3.081 -24.48,1.954c-4.548,-0.718 -8.51,-2.231 -11.092,-5.548c-3.919,-5.035 -2.706,-11.595 -0.094,-18.668c6.489,-17.573 23.387,-36.932 43.449,-53.621c20.637,-17.169 44.827,-31.454 66.134,-37.248c10.811,-2.939 20.622,-4.078 27.913,-0.22Z" style="fill:#7e4021;"/><path d="M1378.37,1210c45.965,-10.034 109.163,-24.176 169.584,-24.397c38.165,-0.14 75.224,5.193 105.41,21.678c8.073,4.409 18.207,1.434 22.616,-6.639c4.409,-8.073 1.434,-18.207 -6.639,-22.616c-34.84,-19.027 -77.46,-25.918 -121.509,-25.757c-62.899,0.231 -128.722,14.719 -176.572,25.165c-8.987,1.962 -14.69,10.851 -12.728,19.838c1.962,8.986 10.851,14.69 19.838,12.728Z" style="fill:#7e4021;"/><path d="M2244.61,1155.84c-226.677,176.565 -197.231,158.244 -327.318,497.122c-72.685,189.348 -209.948,438.94 -562.095,498.093c-329.135,55.287 -538.349,-104.988 -642.227,-241.149c102.068,430.498 703.135,680.24 1158.92,232.622c380.637,-373.814 70.387,-722.217 372.718,-986.688Z" style="fill:#c094dd;"/><path d="M2255.58,1168.38c6.789,-5.939 7.621,-16.201 1.878,-23.157c-5.743,-6.955 -15.977,-8.079 -23.093,-2.536c-230.073,179.21 -200.6,160.342 -332.636,504.297c-71.086,185.184 -204.894,429.778 -549.296,487.629c-320.876,53.9 -524.944,-102.076 -626.215,-234.821c-4.773,-6.257 -13.271,-8.322 -20.384,-4.955c-7.112,3.368 -10.899,11.252 -9.084,18.909c104.566,441.036 719.873,699.243 1186.82,240.668c194.337,-190.852 212.721,-375.05 220.694,-545.46c7.597,-162.364 4.249,-311.922 151.319,-440.574Zm-122.094,98.949c-55.492,104.517 -56.841,218.646 -62.522,340.068c-7.643,163.363 -24.452,340.274 -210.753,523.235c-417.155,409.678 -959.474,222.616 -1107.13,-148.886c118.087,121.037 316.56,234.171 604.878,185.74c359.892,-60.454 500.609,-315.043 574.894,-508.556c97.86,-254.928 103.824,-304.797 200.637,-391.602l-0,0.001Z" style="fill:#7e4021;"/><path d="M859.85,1599.3c102.009,-202.372 253.821,-305.569 398.654,-357.29c8.663,-3.093 13.185,-12.638 10.091,-21.301c-3.093,-8.662 -12.638,-13.184 -21.301,-10.09c-151.53,54.112 -310.483,161.946 -417.209,373.677c-4.141,8.214 -0.834,18.244 7.381,22.385c8.214,4.14 18.244,0.833 22.384,-7.381Z" style="fill:#7e4021;"/><path d="M3471.24,150.879c-15.412,-124.587 -217.65,-97.174 -345.798,23.027c-193.204,181.224 -584.291,900.128 -755.666,1056.65c-218.859,199.893 -445.226,234.361 -624.76,368.873c-157.745,118.188 -429.934,441.351 -209.862,808.959c207.394,346.431 799.141,398.135 1072.38,-116.866c228.19,-430.087 -137.715,-647.743 52.468,-961.127c145.525,-239.797 848.7,-876.664 811.235,-1179.52Zm-204.315,92.397c-26.597,-4.841 -62.93,27.682 -87.03,65.259c-24.099,37.577 -35.964,80.207 -13.624,95.579c52.324,36.004 192.398,-144.138 100.654,-160.838Z" style="fill:#facad0;"/><path d="M3487.78,148.833c-7.216,-58.335 -48.684,-89.036 -106.334,-94.87c-77.586,-7.852 -186.656,32.045 -267.406,107.787c-97.192,91.166 -244.397,317.401 -388.617,540.702c-142.386,220.461 -281.772,438.06 -366.886,515.798c-108.038,98.674 -217.988,156.423 -323.025,206.199c-107.44,50.915 -209.837,93.723 -300.489,161.642c-161.951,121.339 -440.108,453.45 -214.169,830.858c212.957,355.723 820.834,411.199 1101.41,-117.616c116.734,-220.018 81.957,-385.665 41.871,-536.421c-38.017,-142.973 -82.146,-271.83 10.122,-423.87c101.805,-167.754 476.751,-529.905 679.677,-835.941c89.738,-135.335 145.441,-260.576 133.85,-354.268Zm-33.081,4.093c5.692,46.013 -7.109,100.048 -32.377,159.457c-39.455,92.768 -109.368,197.823 -191.768,305.317c-208.804,272.39 -497.31,559.887 -584.798,704.049c-97.915,161.345 -54.183,298.004 -13.839,449.729c38.273,143.939 72.353,302.163 -39.102,512.232c-265.915,501.189 -841.529,453.257 -1043.36,116.117c-214.205,-357.808 52.015,-672.022 205.556,-787.059c88.881,-66.594 189.434,-108.276 294.776,-158.197c107.745,-51.059 220.407,-110.49 331.23,-211.708c86.26,-78.785 228.105,-298.898 372.408,-522.326c142.468,-220.588 287.409,-444.417 383.421,-534.475c73.028,-68.5 171.078,-106.036 241.244,-98.935c40.855,4.135 71.496,24.459 76.61,65.799Zm-184.789,73.953c-14.189,-2.583 -30.723,1.836 -47.192,12.442c-20.255,13.044 -41.04,35.562 -56.852,60.216c-16.217,25.286 -27.024,52.791 -28.039,74.33c-0.911,19.326 5.507,34.696 18.996,43.977c13.653,9.395 31.38,10.085 50.574,2.385c33.92,-13.608 74.127,-55.421 93.761,-95.409c15.329,-31.219 16.96,-61.427 2.304,-79.592c-7.013,-8.694 -17.746,-15.472 -33.552,-18.349l-0,-0Zm-5.969,32.794c6.219,1.132 10.818,3.064 13.578,6.485c3.136,3.887 3.532,9.19 2.978,15.047c-0.842,8.889 -4.282,18.785 -9.26,28.924c-13.991,28.494 -40.174,58.459 -65.158,73.535c-7.032,4.243 -13.865,7.288 -20.226,8.251c-3.762,0.569 -7.272,0.438 -10.134,-1.531c-6.288,-4.327 -5.454,-12.985 -3.661,-22.71c2.852,-15.461 11.083,-33.327 21.867,-50.141c13.107,-20.438 30.05,-39.374 46.84,-50.187c8.238,-5.305 16.078,-8.964 23.176,-7.673Z" style="fill:#7e4021;"/><path d="M1922,1617.41c37.154,-21.35 88.138,-51.015 140.542,-67.819c32.922,-10.556 66.381,-16.117 96.958,-10.134c9.027,1.766 17.791,-4.129 19.557,-13.156c1.766,-9.028 -4.129,-17.791 -13.156,-19.557c-35.781,-7.001 -75.012,-1.247 -113.537,11.106c-54.764,17.56 -108.145,48.347 -146.972,70.659c-7.975,4.583 -10.73,14.779 -6.146,22.755c4.583,7.975 14.779,10.73 22.754,6.146Z" style="fill:#7e4021;"/><path d="M2660.01,1330.39c-148.577,216.061 -128.006,192.01 -147.832,522.681c-11.078,184.763 -61.745,439.729 -351.829,588.201c-271.128,138.771 -497.303,56.96 -625.19,-32.889c207.394,346.431 799.141,398.135 1072.38,-116.866c228.19,-430.087 -137.715,-647.743 52.468,-961.127Z" style="fill:#f6a7bc;"/><path d="M2674.26,1339.04c4.679,-7.711 2.375,-17.746 -5.199,-22.643c-7.575,-4.897 -17.671,-2.88 -22.782,4.553c-151.017,219.608 -130.584,195.027 -150.736,531.127c-10.811,180.309 -59.693,429.468 -342.786,574.362c-263.673,134.955 -483.645,55.689 -608.015,-31.69c-6.439,-4.524 -15.164,-3.928 -20.928,1.43c-5.764,5.357 -6.995,14.016 -2.953,20.768c212.957,355.723 820.834,411.199 1101.41,-117.616c116.734,-220.018 81.957,-385.665 41.871,-536.421c-38.017,-142.973 -82.146,-271.83 10.122,-423.87Zm-83.026,126.725c-16.617,103.441 12.844,200.987 40.69,305.711c38.273,143.939 72.353,302.163 -39.102,512.232c-247.822,467.089 -764.634,457.238 -997.188,180.835c136.352,70.875 337.986,111.502 572.311,-8.431c297.075,-152.051 349.527,-412.825 360.872,-602.04c14.543,-242.554 6.722,-291.138 62.418,-388.308l-0.001,0.001Z" style="fill:#7e4021;"/><path d="M1578.83,2097.93c32.929,-203.719 136.346,-335.037 247.86,-419.746c7.325,-5.564 8.755,-16.028 3.191,-23.353c-5.564,-7.325 -16.029,-8.755 -23.354,-3.191c-117.177,89.011 -226.002,226.906 -260.604,440.971c-1.467,9.081 4.713,17.645 13.794,19.113c9.081,1.468 17.645,-4.713 19.113,-13.794Z" style="fill:#7e4021;"/><path d="M3481,122.011c-47.73,-104.15 -216.132,-24.587 -294.512,115.293c-118.171,210.894 -260.39,944.101 -366.373,1127.49c-135.35,234.204 -322.801,326.551 -441.946,493.038c-104.686,146.283 -252.476,502.427 40.261,761.634c275.874,244.274 804.957,126.246 900.816,-397.094c80.054,-437.051 -298.255,-525.621 -219.119,-850.666c60.553,-248.72 496.897,-996.524 380.873,-1249.69Zm-152.307,136.672c-24.474,3.115 -47.126,41.421 -57.742,80.753c-10.616,39.331 -9.195,79.69 14.476,86.91c55.442,16.91 127.686,-178.406 43.266,-167.663Z" style="fill:#fee4a8;"/><path d="M3496.15,115.068c-22.661,-49.446 -67.784,-65.023 -120.272,-54.067c-69.983,14.608 -154.316,79.61 -203.932,168.156c-59.481,106.153 -125.294,343.667 -189.294,577.812c-63.108,230.883 -124.366,458.462 -176.969,549.485c-66.731,115.469 -146.393,195.896 -223.97,268.048c-79.525,73.964 -156.884,139.488 -217.1,223.631c-107.744,150.555 -258.522,517.032 42.767,783.811c283.982,251.454 829.581,132.153 928.258,-406.569c41.042,-224.065 -34.975,-358.903 -111.546,-479.283c-72.249,-113.585 -146.054,-213.208 -107.773,-370.443c42.358,-173.987 268.803,-592.332 361.044,-914.476c40.912,-142.88 54.784,-267.556 18.787,-346.105Zm-30.303,13.887c17.538,38.27 21.221,88.556 15.632,146.907c-8.762,91.478 -40.625,202.013 -82.658,318.106c-106.648,294.565 -278.479,624.241 -314.89,773.795c-40.855,167.812 34.926,274.993 112.035,396.219c72.786,114.428 145.897,242.4 106.884,455.387c-93.042,507.961 -605.606,624.715 -873.373,387.619c-284.186,-251.636 -139.385,-597.447 -37.757,-739.456c58.929,-82.345 134.869,-146.239 212.694,-218.621c79.772,-74.194 161.511,-157.043 230.129,-275.778c53.38,-92.366 116.223,-323.084 180.263,-557.375c63.148,-231.03 127.53,-465.566 186.22,-570.307c44.441,-79.311 118.979,-138.735 181.663,-151.82c35.963,-7.506 67.632,1.446 83.158,35.324Zm-139.26,113.195c-13.37,1.702 -26.889,10.247 -38.569,24.341c-14.144,17.067 -26.138,42.584 -33.16,68.602c-7.218,26.741 -9.023,53.929 -3.92,73.146c4.678,17.618 14.87,29.548 29.625,34.048c14.896,4.544 30.996,0.218 46.007,-12.125c25.983,-21.364 49.689,-69.202 55.808,-109.745c4.838,-32.055 -2.423,-59.296 -20.557,-71.315c-8.743,-5.795 -20.267,-8.857 -35.234,-6.952l-0,0Zm4.208,33.067c5.937,-0.756 10.503,-0.301 13.594,2.424c3.464,3.054 4.866,8 5.677,13.663c1.028,7.181 0.667,15.426 -0.648,24.138c-4.284,28.384 -18.663,61.368 -36.086,81.184c-4.808,5.468 -9.754,9.888 -14.873,12.404c-2.761,1.357 -5.485,2.194 -8.172,1.374c-2.59,-0.79 -4.108,-3.014 -5.338,-5.643c-1.579,-3.377 -2.523,-7.423 -3.082,-11.894c-1.758,-14.078 0.476,-31.686 5.173,-49.088c5.717,-21.181 15.128,-42.124 26.643,-56.018c5.434,-6.557 10.892,-11.753 17.112,-12.544l-0,-0Z" style="fill:#7e4021;"/><path d="M2538.17,1825.71c26.387,-28.748 62.487,-68.524 103.364,-97.517c25.524,-18.105 52.866,-32.077 80.886,-35.268c9.14,-1.041 15.715,-9.307 14.674,-18.446c-1.041,-9.14 -9.307,-15.715 -18.446,-14.673c-33.29,3.791 -66.075,19.689 -96.399,41.198c-42.897,30.427 -80.945,71.997 -108.636,102.167c-6.22,6.776 -5.768,17.328 1.008,23.548c6.777,6.22 17.329,5.768 23.549,-1.009Z" style="fill:#7e4021;"/><path d="M3100.12,1371.71c-69.747,228.91 -58.475,202.317 15.368,495.474c41.259,163.801 67.414,399.588 -144.068,608.675c-197.663,195.425 -416.98,186.553 -552.997,143.611c275.874,244.274 804.957,126.246 900.816,-397.094c80.054,-437.051 -298.255,-525.621 -219.119,-850.666Z" style="fill:#ffce7b;"/><path d="M3116.32,1375.65c2.133,-8.764 -3.093,-17.636 -11.792,-20.018c-8.7,-2.382 -17.716,2.589 -20.345,11.217c-71.002,233.028 -60.022,205.973 15.149,504.403c40.169,159.476 66.274,389.187 -139.624,592.752c-191.707,189.537 -404.342,181.218 -536.261,139.569c-7.504,-2.369 -15.643,0.833 -19.52,7.681c-3.878,6.847 -2.438,15.474 3.454,20.691c283.982,251.454 829.581,132.153 928.258,-406.569c41.042,-224.065 -34.975,-358.903 -111.546,-479.283c-72.249,-113.585 -146.054,-213.208 -107.773,-370.443Zm-38.922,140.842c15.734,91.199 66.853,166.186 118.569,247.491c72.786,114.428 145.897,242.4 106.884,455.387c-86.069,469.887 -531.126,605.015 -809.317,434.953c137.744,22.2 321.321,-0.231 489.61,-166.615c217.067,-214.609 190.86,-456.471 148.511,-624.598c-52.637,-208.973 -73.159,-252.485 -54.257,-346.62l-0,0.002Z" style="fill:#7e4021;"/><path d="M2372.34,2337.11c-27.404,-185.861 26.259,-328.255 99.766,-432.421c5.304,-7.515 3.508,-17.923 -4.008,-23.226c-7.516,-5.304 -17.923,-3.508 -23.227,4.007c-77.607,109.977 -134.44,260.273 -105.508,456.502c1.342,9.101 9.819,15.399 18.919,14.058c9.1,-1.342 15.399,-9.82 14.058,-18.92Z" style="fill:#7e4021;"/></g></svg>