<?xml version="1.0" encoding="UTF-8" standalone="no"?><!DOCTYPE svg PUBLIC "-//W3C//DTD SVG 1.1//EN" "http://www.w3.org/Graphics/SVG/1.1/DTD/svg11.dtd"><svg width="100%" height="100%" viewBox="0 0 2581 4070" version="1.1" xmlns="http://www.w3.org/2000/svg" xmlns:xlink="http://www.w3.org/1999/xlink" xml:space="preserve" xmlns:serif="http://www.serif.com/" style="fill-rule:evenodd;clip-rule:evenodd;stroke-linejoin:round;stroke-miterlimit:2;"><g id="Milk-Jar" serif:id="Milk Jar"><path d="M860.998,494.522c-322.423,-132.053 -627.213,122.924 -659.207,385.063c-25.035,205.111 16.214,378.465 60.469,542.626c43.224,160.34 89.514,311.667 75.803,476.195c-4.037,48.448 -41.88,126.195 -89.095,220.509c-73.239,146.296 -169.56,330.627 -208.456,506.633c-95.074,430.215 -35.957,952.933 345.619,1223.07c231.524,163.907 586.231,229.742 926.361,220.371c340.428,-9.38 665.901,-94.196 838.671,-228.717c563.305,-438.597 489.194,-1195.45 245.886,-1741.74c-89.74,-201.491 -225.463,-360.278 -345.533,-524.213c-117.727,-160.735 -220.315,-326.459 -246.246,-544.65c-38.774,-326.25 116.558,-542.954 228.056,-672.411c49.842,-57.871 91.064,-99.249 104.783,-125.451c16.291,-31.114 25.672,-56.916 28.123,-78.214c2.906,-25.26 -3.245,-45.156 -18.17,-61.187c-24.97,-26.82 -62.404,-42.225 -102.91,-48.978c-57.971,-9.664 -122,-1.785 -160.265,11.179c-121.401,41.128 -241.809,84.61 -471.396,5.555c-296.566,-102.118 -504.673,-62.699 -647.926,35.904c-18.49,12.727 -28.648,32.534 -31.491,57.689c-2.437,21.561 0.638,47.44 7.726,75.529c21.651,85.799 80.935,193.961 114.881,257.089c1.466,2.727 2.911,5.458 4.317,8.154Zm26.966,49.133c5.259,2.708 11.559,2.425 16.554,-0.742c4.995,-3.168 7.938,-8.746 7.732,-14.657c-0.136,-3.882 -3.41,-13.865 -10.518,-27.918c-21.497,-42.503 -77.955,-138.767 -110.972,-227.029c-15.654,-41.845 -26.218,-81.691 -23.885,-112.399c1.226,-16.143 6.025,-29.432 17.589,-37.391c136.647,-94.056 335.286,-129.253 618.174,-31.845c240.08,82.669 365.995,37.507 492.944,-5.501c34.4,-11.654 91.974,-18.558 144.089,-9.87c32.885,5.482 63.722,17.038 83.995,38.812c8.401,9.023 11.087,20.444 9.451,34.663c-2.092,18.178 -10.634,40.006 -24.538,66.562c-13.085,24.989 -52.975,63.968 -100.51,119.159c-115.713,134.353 -276.14,359.513 -235.9,698.099c26.666,224.368 131.396,395.127 252.455,560.413c118.717,162.086 253.248,318.858 341.976,518.078c237.656,533.606 314.305,1273.47 -235.916,1701.88c-168.652,131.315 -486.795,212.541 -819.11,221.697c-332.613,9.165 -679.775,-53.971 -906.183,-214.256c-370.554,-262.333 -424.659,-770.881 -332.331,-1188.67c38.314,-173.374 133.57,-354.795 205.715,-498.904c49.707,-99.291 88.256,-181.658 92.506,-232.663c14.037,-168.44 -32.585,-323.487 -76.837,-487.639c-43.222,-160.332 -84.016,-329.586 -59.566,-529.912c31.081,-254.654 338.893,-501.731 653.086,-339.968Zm10.752,426.039c-50.717,-62.025 -108.425,-140.623 -179.806,-179.36c-49.14,-26.668 -89.348,-27.671 -121.675,-13.735c-31.884,13.745 -56.655,42.82 -74.54,79.812c-33.207,68.683 -43,164.899 -38.612,226.322c9.295,130.141 38.541,265.849 64.892,353.626c11.507,38.334 28.275,85.246 48.892,121.956c15.052,26.802 32.499,48.206 50.954,58.935c12.193,7.089 27.219,6.659 43.957,-3.09c16.959,-9.878 37.109,-30.749 58.029,-58.81c76.244,-102.27 167.693,-302.084 177.598,-354.191c10.666,-56.11 33.356,-154.365 -29.689,-231.465l0,-0Zm-25.805,21.1c55.492,67.863 32.135,154.752 22.747,204.14c-9.531,50.142 -98.206,242.08 -171.575,340.493c-14.901,19.988 -29.021,36.02 -41.745,45.654c-4.016,3.04 -7.784,5.382 -11.37,6.727c-2.029,0.761 -3.822,1.539 -5.393,0.626c-14.312,-8.321 -26.972,-25.657 -38.644,-46.441c-19.468,-34.665 -35.164,-79.02 -46.03,-115.218c-25.814,-85.988 -54.463,-218.929 -63.57,-346.417c-4.059,-56.824 4.653,-145.897 35.374,-209.438c14.08,-29.122 32.625,-52.89 57.726,-63.711c24.661,-10.631 55.093,-7.921 92.579,12.422c67.785,36.785 121.74,112.265 169.901,171.163l0,0Z" style="fill:#7e4021;"/><path d="M2129.14,166.171c-16.844,35.518 -48.494,67.605 -83.92,78.694c-97.894,30.643 -365.297,43.25 -620.207,-19.415c-207.119,-50.917 -445.102,-115.183 -661.722,-105.846c-9.19,0.396 -16.33,8.179 -15.934,17.369c0.396,9.19 8.179,16.33 17.369,15.933c213.575,-9.205 448.123,54.712 652.33,104.913c262.258,64.472 537.405,50.384 638.122,18.858c43.647,-13.663 83.327,-52.462 104.08,-96.223c3.941,-8.312 0.393,-18.26 -7.918,-22.201c-8.311,-3.941 -18.259,-0.394 -22.2,7.918Z" style="fill:#7e4021;"/><path d="M463.344,2022.77c167.231,100.996 1491.39,125.227 1760.7,0.919c314.536,674.337 369.465,1332.91 -145.192,1733.63c-315.602,245.733 -1189.88,306.971 -1613.18,7.297c-347.624,-246.1 -399.955,-722.739 -313.34,-1114.68c34.743,-157.21 163.184,-442.374 311.012,-627.171Z" style="fill:#fff;"/><path d="M471.96,2008.5c-7.156,-4.322 -16.408,-2.673 -21.631,3.855c-149.423,186.792 -279.154,475.08 -314.271,633.987c-87.988,398.15 -33.152,881.873 319.984,1131.88c214.209,151.648 542.376,212.607 857.068,203.937c314.99,-8.679 616.125,-87.217 775.985,-211.686c520.732,-405.449 468.306,-1071.53 150.057,-1753.83c-3.88,-8.319 -13.755,-11.934 -22.089,-8.088c-160.504,74.085 -698.275,94.061 -1138.64,77.314c-205.83,-7.828 -390.434,-23.819 -505.494,-46.533c-47,-9.278 -81.944,-19.342 -100.973,-30.834Zm-4.029,35.35c61.622,27.716 210.044,50.061 397.357,63.771c325.443,23.82 769.68,23.947 1071.77,-8.034c120.555,-12.763 218.759,-30.86 278.644,-54.272c304.87,661.283 357.785,1305.75 -147.089,1698.85c-155.743,121.263 -449.548,196.211 -756.425,204.666c-307.175,8.463 -627.798,-49.796 -836.89,-197.822c-342.114,-242.199 -391.938,-711.752 -306.696,-1097.48c33.706,-152.519 156.656,-426.736 299.325,-609.685Z" style="fill:#7e4021;"/><ellipse cx="1341.04" cy="2028.14" rx="881.192" ry="123.181" style="fill:#fff;"/><path d="M1341.04,1888.3c-249.023,-0 -474.146,14.446 -634.956,37.629c-98.657,14.223 -173.48,31.944 -215.591,51.39c-17.436,8.051 -29.804,16.747 -37.107,25.316c-7.073,8.298 -10.205,16.95 -10.205,25.512c-0,8.562 3.132,17.214 10.204,25.511c7.304,8.57 19.671,17.266 37.107,25.317c42.111,19.446 116.935,37.167 215.592,51.39c160.81,23.183 385.933,37.629 634.956,37.629c249.022,0 474.146,-14.446 634.955,-37.629c98.657,-14.223 173.48,-31.944 215.592,-51.39c17.435,-8.051 29.803,-16.747 37.107,-25.316c7.072,-8.298 10.204,-16.95 10.204,-25.512c0,-8.562 -3.132,-17.214 -10.204,-25.511c-7.303,-8.57 -19.671,-17.266 -37.107,-25.317c-42.111,-19.446 -116.934,-37.167 -215.592,-51.39c-160.809,-23.183 -385.933,-37.629 -634.955,-37.629Zm-0,33.333c203.942,0 391.742,9.727 540.88,26.056c125.73,13.766 223.708,32.078 280.06,53.389c14.855,5.618 26.595,11.325 34.788,17.329c2.997,2.196 5.438,4.354 7.171,6.607c0.833,1.083 1.626,2.019 1.626,3.133c0,1.114 -0.793,2.05 -1.626,3.133c-1.733,2.253 -4.174,4.411 -7.171,6.607c-8.193,6.004 -19.933,11.711 -34.788,17.329c-56.352,21.311 -154.33,39.623 -280.06,53.389c-149.138,16.329 -336.938,26.056 -540.88,26.056c-203.942,-0 -391.743,-9.727 -540.88,-26.056c-125.731,-13.766 -223.709,-32.078 -280.061,-53.389c-14.854,-5.618 -26.594,-11.325 -34.788,-17.329c-2.997,-2.196 -5.438,-4.354 -7.17,-6.607c-0.833,-1.083 -1.627,-2.019 -1.627,-3.133c0,-1.114 0.794,-2.05 1.627,-3.133c1.732,-2.253 4.173,-4.412 7.17,-6.607c8.194,-6.004 19.934,-11.711 34.788,-17.329c56.352,-21.311 154.33,-39.623 280.061,-53.389c149.137,-16.329 336.938,-26.056 540.88,-26.056Z" style="fill:#7e4021;"/><path d="M579.015,1709.38c-7.839,19.378 -20.344,36.296 -33.61,52.293c-20.047,24.175 -47.189,39.065 -73.933,54.666c-7.946,4.635 -10.633,14.849 -5.999,22.794c4.635,7.946 14.849,10.634 22.795,5.999c30.117,-17.569 60.22,-34.957 82.796,-62.181c15.448,-18.628 29.727,-38.511 38.855,-61.078c-0.042,0.103 -0.165,0.389 -0.165,0.389c-0,0 3.202,-9.244 2.941,-12.689c-0.52,-6.844 -4.059,-11.449 -9.141,-14.179c-8.103,-4.352 -18.216,-1.307 -22.569,6.797c-1.232,2.294 -1.871,4.749 -1.97,7.189Z" style="fill:#7e4021;"/><path d="M881.04,540.576c18.07,12.436 33.461,28.105 48.366,44.141c51.307,55.205 89.715,122.396 112.728,193.99c2.815,8.757 12.21,13.582 20.967,10.767c8.758,-2.815 13.582,-12.21 10.767,-20.967c-24.497,-76.215 -65.428,-147.716 -120.046,-206.482c-16.564,-17.823 -33.803,-35.088 -53.885,-48.908c-7.578,-5.215 -17.964,-3.297 -23.179,4.281c-5.214,7.578 -3.296,17.964 4.282,23.178Z" style="fill:#7e4021;"/><path d="M925.073,635.133c-7.519,-11.059 -15.565,-21.907 -24.771,-31.632c-28.183,-29.771 -71.704,-48.581 -111.547,-55.052c-9.08,-1.474 -17.648,4.7 -19.123,13.78c-1.474,9.08 4.7,17.648 13.78,19.123c33.01,5.36 69.333,20.4 92.683,45.065c7.979,8.429 14.896,17.874 21.413,27.459c5.173,7.606 15.547,9.583 23.154,4.411c7.607,-5.173 9.583,-15.548 4.411,-23.154Z" style="fill:#7e4021;"/><path d="M727.179,563.922c7.547,3.099 16.429,0.253 20.679,-6.984c4.659,-7.932 2.001,-18.154 -5.93,-22.812c-1.575,-0.925 -5.757,-2.575 -11.905,-3.605c-14.03,-2.351 -44.464,-4.411 -55.408,-2.651c-9.082,1.461 -15.269,10.02 -13.808,19.102c1.46,9.082 10.02,15.269 19.102,13.809c9.436,-1.518 44.951,2.853 47.27,3.141Z" style="fill:#7e4021;"/><path d="M2329.33,3174.35c-2.345,17.762 -7.053,39.175 -9.745,52.87c-9.015,45.873 -21.897,90.696 -44.63,131.726c-4.458,8.046 -1.545,18.198 6.501,22.656c8.046,4.458 18.198,1.545 22.656,-6.502c24.425,-44.083 38.494,-92.164 48.181,-141.452c2.796,-14.228 7.648,-36.481 10.084,-54.935c1.204,-9.12 -5.222,-17.501 -14.342,-18.705c-9.119,-1.204 -17.501,5.222 -18.705,14.342Z" style="fill:#7e4021;"/><path d="M2244.72,3420.43c-8.714,15.265 -23.164,41.051 -37.822,54.96c-6.672,6.331 -6.949,16.889 -0.618,23.562c6.332,6.673 16.889,6.95 23.562,0.618c16.792,-15.933 33.844,-45.127 43.826,-62.614c4.561,-7.989 1.777,-18.177 -6.211,-22.737c-7.989,-4.561 -18.177,-1.777 -22.737,6.211Z" style="fill:#7e4021;"/></g></svg>