<?xml version="1.0" encoding="UTF-8" standalone="no"?><!DOCTYPE svg PUBLIC "-//W3C//DTD SVG 1.1//EN" "http://www.w3.org/Graphics/SVG/1.1/DTD/svg11.dtd"><svg width="100%" height="100%" viewBox="0 0 1393 3820" version="1.1" xmlns="http://www.w3.org/2000/svg" xmlns:xlink="http://www.w3.org/1999/xlink" xml:space="preserve" xmlns:serif="http://www.serif.com/" style="fill-rule:evenodd;clip-rule:evenodd;stroke-linejoin:round;stroke-miterlimit:2;"><g id="Milk-Bottle"><path d="M296.896,391.481c-75.744,18.836 -118.87,-76.224 -115.61,-127.597c5.157,-81.285 73.011,-139.006 139.31,-175.233c208.336,-113.838 483.885,-73.163 706.871,-12.451c144.948,39.464 213.884,195.763 84.643,298.751c-72.118,57.469 -135.447,1.092 -251.467,-12.666c-175.201,-20.774 -464.811,4.592 -563.747,29.196Z" style="fill:#c5e8f0;"/><path d="M300.918,407.655c97.886,-24.343 384.423,-49.373 557.762,-28.819c57.363,6.802 101.678,24.238 140.589,32.772c44.418,9.742 82.525,8.813 123.228,-23.622c56.958,-45.388 78.305,-100.503 74.006,-152.689c-6.357,-77.178 -70.185,-149.457 -164.657,-175.179c-226.896,-61.775 -507.254,-101.927 -719.242,13.907c-71.039,38.818 -142.425,101.706 -147.951,188.804c-1.823,28.721 9.055,69.737 31.24,100.857c23.75,33.314 59.694,55.242 105.025,43.969Zm-8.045,-32.348c-30.416,7.564 -53.901,-8.617 -69.837,-30.971c-17.498,-24.544 -26.554,-56.744 -25.117,-79.396c4.789,-75.479 69.106,-128.024 130.669,-161.663c204.683,-111.843 475.423,-70.643 694.501,-10.996c79.468,21.636 134.846,80.832 140.193,145.753c3.505,42.546 -15.122,86.879 -61.558,123.883c-31.416,25.034 -61.031,24.651 -95.313,17.132c-39.789,-8.727 -85.149,-26.359 -143.806,-33.314c-177.061,-20.996 -469.744,4.706 -569.732,29.572Z" style="fill:#7e4021;"/><path d="M296.896,391.481c-41.025,667.8 -241.881,621.238 -259.127,1122.7c-31.7,921.769 -32.681,2089.47 44.991,2205.75c71.378,106.859 1103.6,112.155 1231.48,5.029c96.879,-81.157 64.497,-1326 9.079,-2247.94c-32.039,-533.001 -259.434,-501.296 -275.79,-1076.85c-50.559,2.098 -105.879,-28.285 -186.885,-37.891c-175.201,-20.774 -468.948,-8.313 -563.747,29.196Z" style="fill:#fff;"/><path d="M290.764,375.983c-6.013,2.379 -10.107,8.022 -10.504,14.476c-20.329,330.931 -80.183,484.877 -137.17,618.199c-58.184,136.122 -113.252,251.23 -121.978,504.953c-22.207,645.758 -29.331,1412.12 -4.956,1853.73c7.371,133.542 17.682,237.616 31.22,300.117c6.355,29.338 13.801,50.165 21.525,61.728c7.738,11.585 24.267,23.074 49.118,32.667c49.068,18.943 133.741,33.507 236.496,43.128c236.391,22.133 569.615,18.933 779.132,-10.805c93.601,-13.286 163.162,-32.874 191.295,-56.442c7.373,-6.176 14.723,-17.321 20.945,-33.718c11.772,-31.024 21.283,-83.669 28.4,-153.819c39.59,-390.239 10.06,-1335.67 -34.333,-2074.18c-16.209,-269.666 -81.75,-396.503 -145.396,-528.697c-62.13,-129.049 -122.292,-263.359 -130.37,-547.623c-0.127,-4.456 -2.033,-8.676 -5.294,-11.716c-3.26,-3.04 -7.603,-4.648 -12.057,-4.463c-23.69,0.983 -48.44,-5.949 -76.812,-13.946c-31.011,-8.742 -65.933,-18.924 -107.42,-23.843c-177.726,-21.075 -475.675,-7.801 -571.841,30.248Zm22.078,27.44c102.484,-34.142 378.827,-44.391 545.838,-24.587c47.69,5.655 86.287,18.735 120.265,27.781c18.526,4.932 35.813,8.685 52.432,9.904c10.033,280.461 70.65,415.453 133.148,545.265c62.151,129.09 126.327,252.902 142.156,516.237c44.278,736.596 73.93,1679.58 34.443,2068.81c-5.796,57.124 -13.019,102.072 -22.033,132.305c-4.879,16.363 -9.406,27.894 -15.555,33.045c-25.576,21.426 -89.481,36.914 -174.573,48.991c-207.422,29.441 -537.314,32.532 -771.341,10.62c-85.066,-7.965 -157.347,-19.179 -206.102,-33.768c-15.305,-4.58 -28.17,-9.448 -38.181,-14.712c-7.764,-4.083 -13.64,-8.031 -16.72,-12.642c-8.592,-12.862 -15.495,-39.866 -22.075,-78.576c-10.632,-62.548 -18.886,-153.918 -25.105,-266.591c-24.336,-440.903 -17.185,-1206.03 4.987,-1850.75c8.52,-247.742 62.503,-360.085 119.315,-492.998c57.378,-134.239 117.768,-288.984 139.101,-618.336l-0,0Z" style="fill:#7e4021;"/><path d="M1310.56,3574.89c1.166,-7.18 -2.508,-14.554 -9.427,-17.769c-1.194,-0.555 -20.647,-4.683 -23.487,12.475c-0.114,0.687 -0.505,4.213 -0.514,4.301c-0.241,2.575 -0.512,5.148 -0.812,7.717c-0.952,8.144 -2.39,16.243 -3.935,24.292c-4.704,24.504 -9.918,48.946 -18.303,72.477c-3.087,8.665 1.441,18.207 10.106,21.294c8.665,3.088 18.206,-1.44 21.294,-10.105c8.955,-25.131 14.615,-51.212 19.638,-77.381c1.699,-8.848 3.261,-17.754 4.308,-26.706c0.329,-2.821 0.627,-5.646 0.892,-8.474l0.24,-2.121Zm-1.763,5.217c-4.136,7.736 -13.66,10.985 -21.713,7.242c4.51,2.096 9.232,2.281 14.156,-0.051c1.907,-0.903 5.182,-2.672 7.557,-7.191Zm0.387,-0.77l-0.06,0.121l0.058,-0.115l0.002,-0.006Z" style="fill:#7e4021;"/><path d="M1210.81,3655.06c-1.215,4.243 -8.429,29.4 -9.999,34.057c-2.938,8.717 1.753,18.179 10.47,21.117c8.717,2.938 18.179,-1.753 21.117,-10.47c2.045,-6.065 10.927,-34.889 11.693,-41.432c1.121,-9.559 -4.149,-14.447 -6.004,-15.98c-7.091,-5.859 -17.605,-4.859 -23.465,2.232c-2.535,3.069 -3.786,6.779 -3.812,10.476Z" style="fill:#7e4021;"/><path d="M308.255,797.562c-22.317,73.748 -49.966,156.592 -78.922,228.016c-3.456,8.525 0.659,18.252 9.184,21.708c8.525,3.456 18.251,-0.66 21.707,-9.184c29.321,-72.326 57.338,-156.207 79.936,-230.886c2.664,-8.804 -2.321,-18.115 -11.125,-20.779c-8.805,-2.664 -18.116,2.321 -20.78,11.125Z" style="fill:#7e4021;"/><path d="M199.605,1079.82c-8.46,18.89 -31.345,58.034 -34.137,66.747c-2.807,8.76 2.027,18.151 10.787,20.957c8.76,2.807 18.15,-2.026 20.957,-10.786c2.655,-8.286 24.769,-45.329 32.815,-63.292c3.76,-8.396 -0.004,-18.264 -8.399,-22.024c-8.395,-3.76 -18.263,0.003 -22.023,8.398Z" style="fill:#7e4021;"/><path d="M1038.37,168.295c30.252,15.402 49.096,49.875 51.54,65.238c1.446,9.084 9.994,15.286 19.079,13.841c9.084,-1.446 15.286,-9.994 13.841,-19.079c-3.333,-20.949 -28.082,-68.701 -69.336,-89.705c-8.197,-4.173 -18.24,-0.907 -22.414,7.291c-4.174,8.197 -0.907,18.24 7.29,22.414Z" style="fill:#7e4021;"/><path d="M1077.46,286.68c-0.455,4.775 -4.979,9.027 -9.558,13.41c-10.39,9.944 -24.247,18.144 -30.783,21.57c-8.147,4.27 -11.294,14.352 -7.024,22.499c4.271,8.147 14.353,11.295 22.5,7.024c9.645,-5.056 31.74,-18.546 44.94,-33.931c7.516,-8.759 12.24,-18.308 13.108,-27.408c0.873,-9.157 -5.853,-17.3 -15.01,-18.173c-9.157,-0.873 -17.3,5.852 -18.173,15.009Z" style="fill:#7e4021;"/><path d="M505.012,2352.64c25.823,-0.952 49.018,58.76 51.766,133.262c2.748,74.501 -15.985,135.76 -41.808,136.713c-25.822,0.952 -49.018,-58.76 -51.766,-133.262c-2.748,-74.501 15.986,-135.76 41.808,-136.713Z" style="fill:#7e4021;"/><path d="M504.398,2335.99c-12.359,0.456 -24.81,8.035 -34.513,23.781c-15.307,24.842 -25.411,73.95 -23.336,130.202c2.075,56.252 15.769,104.482 32.865,128.128c10.837,14.989 23.812,21.63 36.171,21.174c12.358,-0.456 24.809,-8.035 34.512,-23.781c15.308,-24.842 25.412,-73.949 23.337,-130.202c-2.075,-56.252 -15.769,-104.482 -32.866,-128.128c-10.836,-14.989 -23.812,-21.63 -36.17,-21.174Zm1.228,33.311c1.944,-0.072 3.254,1.884 5.025,3.805c2.895,3.14 5.585,7.303 8.152,12.253c11.696,22.553 19.78,59.406 21.32,101.162c1.54,41.756 -3.806,79.105 -13.81,102.458c-2.195,5.126 -4.57,9.476 -7.226,12.82c-1.625,2.046 -2.788,4.094 -4.731,4.165c-1.943,0.072 -3.254,-1.884 -5.025,-3.805c-2.895,-3.14 -5.584,-7.303 -8.151,-12.253c-11.697,-22.553 -19.78,-59.406 -21.321,-101.162c-1.54,-41.756 3.807,-79.105 13.81,-102.458c2.196,-5.125 4.571,-9.476 7.227,-12.82c1.625,-2.046 2.787,-4.094 4.73,-4.165Z" style="fill:#7e4021;"/><path d="M865.399,2339.35c25.822,-0.952 49.018,58.76 51.766,133.262c2.748,74.501 -15.985,135.76 -41.808,136.713c-25.823,0.952 -49.018,-58.76 -51.766,-133.262c-2.748,-74.501 15.985,-135.76 41.808,-136.713Z" style="fill:#7e4021;"/><path d="M864.784,2322.69c-12.358,0.456 -24.809,8.035 -34.512,23.781c-15.308,24.842 -25.412,73.949 -23.337,130.202c2.075,56.252 15.77,104.482 32.866,128.128c10.836,14.989 23.812,21.63 36.17,21.174c12.359,-0.456 24.81,-8.035 34.513,-23.781c15.307,-24.842 25.411,-73.95 23.336,-130.202c-2.075,-56.252 -15.769,-104.482 -32.865,-128.128c-10.837,-14.989 -23.812,-21.63 -36.171,-21.174Zm1.229,33.311c1.943,-0.072 3.254,1.884 5.025,3.805c2.895,3.14 5.584,7.303 8.151,12.253c11.697,22.553 19.781,59.406 21.321,101.162c1.54,41.756 -3.806,79.105 -13.81,102.458c-2.196,5.125 -4.571,9.476 -7.227,12.82c-1.624,2.046 -2.787,4.094 -4.73,4.165c-1.944,0.072 -3.254,-1.884 -5.025,-3.805c-2.895,-3.14 -5.584,-7.303 -8.152,-12.253c-11.696,-22.553 -19.78,-59.406 -21.32,-101.162c-1.54,-41.756 3.806,-79.105 13.81,-102.458c2.195,-5.125 4.571,-9.476 7.226,-12.82c1.625,-2.046 2.788,-4.094 4.731,-4.165Z" style="fill:#7e4021;"/><path d="M908.641,2634.3c-51.438,-16.68 -479.876,-69.351 -521.17,127.726c-23.795,113.566 155.961,155.892 220.739,164.992c113.073,15.887 343.074,6.13 393.692,-100.861c42.707,-90.269 -5.654,-163.449 -93.261,-191.857Z" style="fill:#facad0;"/><path d="M913.782,2618.45c-31.622,-10.254 -202.292,-34.133 -342.913,-7.7c-98.787,18.568 -181.877,62.752 -199.71,147.862c-11.022,52.604 14.617,92.494 55.416,121.516c55.138,39.222 138.766,57.702 179.316,63.399c69.573,9.775 182.308,10.01 272.581,-15.006c63.936,-17.719 116.437,-48.607 138.496,-95.233c19.152,-40.48 21.539,-77.942 11.738,-110.306c-14.558,-48.07 -56.571,-85.61 -114.924,-104.532l-0,-0Zm-10.282,31.707c46.778,15.169 81.633,43.952 93.303,82.486c7.684,25.372 5.048,54.655 -9.966,86.39c-18.438,38.972 -63.826,62.555 -117.267,77.365c-85.786,23.773 -192.926,23.409 -259.041,14.12c-37.183,-5.224 -114.073,-21.587 -164.632,-57.552c-29.67,-21.106 -50.128,-49.264 -42.113,-87.518c15.204,-72.562 89.02,-106.108 173.243,-121.939c133.874,-25.164 296.369,-3.113 326.473,6.648l0,0Z" style="fill:#7e4021;"/><path d="M526.155,2745.04c13.331,-7.697 34.284,3.602 46.763,25.215c12.478,21.613 11.786,45.409 -1.544,53.105c-13.331,7.697 -34.284,-3.602 -46.763,-25.215c-12.478,-21.613 -11.786,-45.409 1.544,-53.105Z" style="fill:#7e4021;"/><path d="M517.822,2730.6c-9.354,5.401 -15.773,14.927 -17.973,27.313c-2.442,13.751 0.607,31.721 10.328,48.559c9.722,16.838 23.76,28.464 36.89,33.224c11.826,4.288 23.286,3.493 32.64,-1.908c9.354,-5.401 15.773,-14.927 17.973,-27.313c2.442,-13.751 -0.607,-31.721 -10.329,-48.559c-9.721,-16.838 -23.76,-28.464 -36.889,-33.224c-11.826,-4.288 -23.286,-3.493 -32.64,1.908l-0,-0Zm16.667,28.867c2.155,-1.244 4.719,0.377 7.457,1.853c6.132,3.307 12.018,9.433 16.538,17.262c4.52,7.83 6.883,15.99 6.68,22.954c-0.09,3.109 0.032,6.14 -2.124,7.385c-2.156,1.244 -4.719,-0.377 -7.457,-1.853c-6.132,-3.307 -12.018,-9.433 -16.538,-17.262c-4.52,-7.83 -6.883,-15.99 -6.68,-22.954c0.09,-3.109 -0.032,-6.14 2.124,-7.385l-0,0Z" style="fill:#7e4021;"/><path d="M887.421,2745.04c-13.331,-7.697 -34.284,3.602 -46.763,25.215c-12.478,21.613 -11.786,45.409 1.544,53.105c13.331,7.697 34.284,-3.602 46.763,-25.215c12.478,-21.613 11.786,-45.409 -1.544,-53.105Z" style="fill:#7e4021;"/><path d="M895.754,2730.6c-9.354,-5.401 -20.814,-6.196 -32.64,-1.908c-13.129,4.76 -27.168,16.386 -36.889,33.224c-9.722,16.838 -12.771,34.808 -10.329,48.559c2.2,12.386 8.619,21.912 17.973,27.313c9.354,5.401 20.814,6.196 32.64,1.908c13.13,-4.76 27.168,-16.386 36.89,-33.224c9.721,-16.838 12.77,-34.808 10.328,-48.559c-2.2,-12.386 -8.619,-21.912 -17.973,-27.313l0,-0Zm-16.667,28.867c2.156,1.245 2.034,4.276 2.125,7.385c0.202,6.964 -2.161,15.124 -6.681,22.954c-4.52,7.829 -10.406,13.955 -16.538,17.262c-2.738,1.476 -5.301,3.097 -7.457,1.853c-2.156,-1.245 -2.034,-4.276 -2.124,-7.385c-0.203,-6.964 2.16,-15.124 6.68,-22.954c4.521,-7.829 10.406,-13.955 16.538,-17.262c2.738,-1.476 5.302,-3.097 7.457,-1.853Z" style="fill:#7e4021;"/><path d="M909.97,2177.45c76.147,-67.898 69.953,-156.892 84.741,-165.591c44.511,-26.183 124.538,188.535 43.33,267.548c-75.783,73.736 -185.278,-50.947 -128.071,-101.957Z" style="fill:#f7bf9a;"/><path d="M898.878,2165.01c-29.164,26.005 -26.728,66.961 -4.251,100.819c31.602,47.606 100.714,78.378 155.037,25.523c25.607,-24.915 37.634,-61.557 39.634,-101.125c2.829,-55.985 -14.302,-117.623 -35.768,-155.307c-10.632,-18.665 -22.793,-31.713 -33.887,-37.505c-11.677,-6.097 -23.028,-6.012 -33.382,0.078c-3.515,2.068 -7.015,5.473 -9.831,10.78c-2.928,5.52 -5.514,14.652 -8.356,26.455c-7.541,31.316 -19.258,85.754 -69.196,130.282Zm105.916,-137.722c1.593,0.927 3.173,2.21 4.783,3.739c5.124,4.864 10.148,11.893 14.989,20.391c18.949,33.265 33.939,87.706 31.441,137.126c-1.551,30.704 -9.718,59.584 -29.588,78.918c-36.627,35.636 -82.714,12.029 -104.021,-20.069c-12.812,-19.299 -17.96,-42.68 -1.336,-57.504c56.668,-50.528 70.862,-111.821 79.419,-147.357c1.33,-5.527 3.154,-11.575 4.313,-15.244Z" style="fill:#7e4021;"/><path d="M480.543,2177.45c-76.147,-67.898 -69.953,-156.892 -84.741,-165.591c-44.511,-26.183 -124.538,188.535 -43.33,267.548c75.784,73.736 185.278,-50.947 128.071,-101.957Z" style="fill:#f7bf9a;"/><path d="M491.635,2165.01c-49.938,-44.528 -61.655,-98.966 -69.196,-130.282c-2.842,-11.803 -5.427,-20.935 -8.356,-26.455c-2.816,-5.307 -6.316,-8.712 -9.831,-10.78c-10.354,-6.09 -21.705,-6.175 -33.382,-0.078c-11.094,5.792 -23.255,18.84 -33.887,37.505c-21.466,37.684 -38.597,99.322 -35.768,155.307c2,39.568 14.027,76.21 39.634,101.125c54.323,52.855 123.435,22.083 155.038,-25.523c22.476,-33.858 24.912,-74.814 -4.252,-100.819l-0,0Zm-105.916,-137.722c1.159,3.669 2.983,9.717 4.313,15.244c8.557,35.536 22.751,96.829 79.419,147.357l-0,0.001c16.624,14.823 11.476,38.204 -1.336,57.503c-21.307,32.098 -67.394,55.705 -104.021,20.069c-19.87,-19.334 -28.036,-48.214 -29.588,-78.918c-2.498,-49.42 12.492,-103.861 31.441,-137.126c4.841,-8.498 9.865,-15.527 14.989,-20.391c1.61,-1.529 3.19,-2.812 4.783,-3.739Z" style="fill:#7e4021;"/><path d="M998.748,2322.97c0.424,0.568 0.884,1.108 1.377,1.618c50.045,51.771 98.29,69.812 140.324,69.113c64.047,-1.064 115.238,-46.286 140.542,-91.218c11.291,-20.05 17.387,-40.033 17.919,-56.005c0.468,-14.033 -3.282,-25.552 -10.096,-33.546c-5.131,-6.018 -13.256,-10.448 -24.359,-12.062c-10.904,-1.584 -25.625,-0.513 -42.335,2.751c-58.603,11.448 -144.503,49.421 -162.655,61.401c-1.956,1.291 -24.826,12.334 -40.604,21.516c-9.088,5.288 -16.14,10.515 -18.785,13.618c-7.962,9.336 -5.062,17.808 -1.328,22.814Zm265.005,-88.011c2.708,3.594 2.285,9.273 1.352,15.773c-1.53,10.654 -6.153,22.955 -13.159,35.394c-20.3,36.048 -60.669,73.393 -112.051,74.247c-31.179,0.518 -65.859,-12.6 -102.52,-46.029c16.304,-9.35 38.486,-20.205 40.45,-21.501c16.803,-11.089 96.44,-45.911 150.685,-56.507c10.543,-2.059 20.021,-3.213 27.668,-2.81c2.866,0.152 6.755,1.202 7.575,1.433Z" style="fill:#7e4021;"/><path d="M390.388,2324.59c0.493,-0.51 0.953,-1.05 1.377,-1.618c3.734,-5.006 6.634,-13.478 -1.328,-22.814c-2.645,-3.103 -9.697,-8.33 -18.784,-13.618c-15.779,-9.182 -38.649,-20.225 -40.604,-21.516c-18.153,-11.98 -104.053,-49.953 -162.655,-61.401c-16.711,-3.264 -31.432,-4.335 -42.336,-2.751c-11.102,1.614 -19.228,6.044 -24.358,12.062c-6.814,7.994 -10.565,19.513 -10.097,33.546c0.532,15.972 6.628,35.955 17.919,56.005c25.304,44.932 76.495,90.154 140.542,91.218c42.034,0.699 90.279,-17.342 140.324,-69.113Zm-37.25,-10.244c-36.661,33.429 -71.341,46.547 -102.52,46.029c-51.382,-0.854 -91.751,-38.199 -112.051,-74.247c-7.006,-12.439 -11.629,-24.74 -13.159,-35.394c-0.933,-6.5 -1.356,-12.179 1.352,-15.773c0.82,-0.231 4.709,-1.281 7.575,-1.433c7.647,-0.403 17.125,0.751 27.668,2.81c54.245,10.596 133.882,45.418 150.685,56.507c1.964,1.296 24.146,12.151 40.45,21.501Z" style="fill:#7e4021;"/></g></svg>