<?xml version="1.0" encoding="UTF-8" standalone="no"?><!DOCTYPE svg PUBLIC "-//W3C//DTD SVG 1.1//EN" "http://www.w3.org/Graphics/SVG/1.1/DTD/svg11.dtd"><svg width="100%" height="100%" viewBox="0 0 2580 4058" version="1.1" xmlns="http://www.w3.org/2000/svg" xmlns:xlink="http://www.w3.org/1999/xlink" xml:space="preserve" xmlns:serif="http://www.serif.com/" style="fill-rule:evenodd;clip-rule:evenodd;stroke-linejoin:round;stroke-miterlimit:2;"><g id="Oil-Jar" serif:id="Oil Jar"><path d="M1707.58,487.591c8.976,-32.14 24.927,-75.876 28.041,-93.005c7.913,-43.52 36.463,-91.769 50.818,-137.477c16.804,-53.504 16,-103.597 -40.195,-142.276c-142.923,-98.376 -411.568,-125.375 -579.071,-100.176c-75.151,11.306 -151.392,48.552 -227.868,45.409c-13.933,-0.573 -31.562,-6.469 -51.141,-13.886c-32.794,-12.423 -70.311,-29.35 -105.33,-38.814c-45.075,-12.181 -86.251,-11.101 -112.844,17.461c-12.013,12.903 -17.385,29.955 -18.17,48.306c-1,23.352 5.561,48.863 11.34,67.218c28.97,92.023 79.743,173.8 111.326,264.394c57.23,164.159 40.499,449.166 0.98,611.003c-52.341,214.351 -155.174,380.848 -266.821,543.448c-113.308,165.02 -235.644,326.059 -325.318,527.401c-243.308,546.296 -317.419,1303.15 245.887,1741.74c172.77,134.521 498.243,219.337 838.671,228.717c340.13,9.371 694.837,-56.464 926.361,-220.371c381.576,-270.136 440.693,-792.854 345.619,-1223.07c-38.896,-176.006 -135.217,-360.337 -208.456,-506.633c-47.215,-94.314 -85.058,-172.061 -89.095,-220.509c-13.711,-164.528 32.579,-315.856 75.803,-476.195c44.255,-164.161 85.503,-337.516 60.469,-542.627c-32.386,-265.347 -344.285,-523.354 -671.006,-380.063l0,0Zm-39.453,28.735c-0.206,5.911 2.736,11.489 7.732,14.656c4.995,3.168 11.295,3.45 16.554,0.743c314.193,-161.763 622.005,85.314 653.085,339.968c24.451,200.326 -16.343,369.58 -59.565,529.911c-44.252,164.153 -90.874,319.2 -76.837,487.64c4.25,51.004 42.799,133.372 92.506,232.663c72.144,144.109 167.401,325.53 205.715,498.903c92.328,417.79 38.223,926.338 -332.331,1188.67c-226.408,160.285 -573.57,223.421 -906.183,214.256c-332.315,-9.156 -650.458,-90.382 -819.11,-221.697c-550.221,-428.409 -473.572,-1168.28 -235.916,-1701.88c88.795,-199.369 210.15,-358.693 322.348,-522.095c113.859,-165.823 218.344,-335.809 271.723,-554.409c40.74,-166.839 57.112,-460.651 -1.886,-629.883c-31.472,-90.275 -82.139,-171.732 -111.007,-263.43c-4.057,-12.887 -8.797,-29.918 -9.745,-46.629c-0.764,-13.458 0.533,-26.888 9.177,-36.172c18.666,-20.049 48.111,-16.546 79.751,-7.996c33.999,9.188 70.379,25.746 102.217,37.807c23.51,8.906 44.851,15.332 61.581,16.019c78.541,3.228 157.016,-34.14 234.196,-45.751c160.535,-24.152 418.235,0.387 555.213,94.671c41.173,28.34 39.604,65.628 27.292,104.83c-14.759,46.994 -43.676,96.758 -51.811,141.502c-4.482,24.648 -33.823,102.609 -34.699,127.703Zm13.534,441.438c-63.045,77.1 -40.355,175.355 -29.689,231.465c9.904,52.107 101.353,251.921 177.597,354.191c20.921,28.061 41.071,48.932 58.029,58.809c16.739,9.75 31.765,10.18 43.958,3.091c18.455,-10.729 35.902,-32.134 50.954,-58.935c20.616,-36.71 37.384,-83.623 48.892,-121.956c26.35,-87.778 55.596,-223.485 64.892,-353.627c4.387,-61.422 -5.406,-157.638 -38.612,-226.321c-17.885,-36.992 -42.656,-66.067 -74.541,-79.812c-32.326,-13.936 -72.534,-12.933 -121.674,13.735c-71.381,38.737 -129.089,117.335 -179.806,179.36l-0,-0Zm25.804,21.1c48.162,-58.898 102.117,-134.378 169.901,-171.163c37.487,-20.343 67.919,-23.053 92.58,-12.422c25.1,10.821 43.646,34.589 57.726,63.711c30.721,63.541 39.432,152.614 35.374,209.438c-9.107,127.488 -37.757,260.429 -63.57,346.417c-10.866,36.198 -26.562,80.553 -46.03,115.218c-11.672,20.784 -24.333,38.12 -38.644,46.44c-1.571,0.914 -3.365,0.136 -5.393,-0.625c-3.586,-1.345 -7.354,-3.687 -11.37,-6.727c-12.725,-9.635 -26.844,-25.666 -41.746,-45.654c-73.368,-98.413 -162.043,-290.351 -171.574,-340.493c-9.388,-49.388 -32.745,-136.277 22.746,-204.14l0,0Z" style="fill:#7e4021;"/><path d="M2242.02,2179.16c-167.231,100.997 -1692.36,116.37 -1961.67,-7.938c-222.296,499.117 -293.49,1173.44 221.168,1574.16c315.602,245.732 1189.88,306.971 1613.18,7.297c347.624,-246.1 399.954,-722.739 313.34,-1114.68c-34.743,-157.21 -119.558,-326.406 -186.024,-458.844Z" style="fill:#ffce7b;"/><path d="M2256.91,2171.69c-2.085,-4.153 -5.808,-7.247 -10.272,-8.537c-4.464,-1.289 -9.263,-0.656 -13.241,1.746c-19.035,11.496 -56.754,21.347 -108.603,30.415c-81.524,14.26 -196.694,25.523 -330.346,33.534c-365.093,21.882 -867.648,19.389 -1200.84,-13.87c-140.629,-14.037 -250.702,-33.231 -306.276,-58.883c-4.049,-1.869 -8.678,-2.037 -12.851,-0.468c-4.174,1.57 -7.545,4.746 -9.359,8.82c-225.153,505.531 -295.119,1188.22 226.154,1594.09c159.859,124.469 460.995,203.007 775.985,211.685c314.692,8.671 642.859,-52.288 857.068,-203.936c353.135,-250.002 407.972,-733.725 319.984,-1131.88c-35.031,-158.516 -120.384,-329.186 -187.402,-462.723Zm-22.374,29.736c64.689,128.997 144.054,290.067 177.228,440.18c85.241,385.724 35.418,855.277 -306.697,1097.48c-209.091,148.026 -529.714,206.285 -836.889,197.822c-306.877,-8.455 -600.682,-83.403 -756.425,-204.666c-502.938,-391.594 -437.018,-1048.17 -222.753,-1539.32c61.199,23.43 167.903,41.917 301.296,55.232c334.666,33.407 839.44,35.955 1206.15,13.975c157.898,-9.464 290.311,-23.518 372.879,-41.523c27.076,-5.904 49.043,-12.378 65.215,-19.172l-0,0Z" style="fill:#7e4021;"/><ellipse cx="1258.69" cy="2176.77" rx="979.347" ry="138.837" style="fill:#edaf5f;"/><path d="M1258.69,2021.27c-276.877,-0 -527.162,16.298 -705.852,42.454c-109.501,16.028 -192.494,35.974 -239.089,57.886c-19.018,8.944 -32.503,18.566 -40.426,28.083c-7.343,8.82 -10.646,17.983 -10.646,27.081c-0,9.097 3.303,18.261 10.645,27.08c7.924,9.517 21.408,19.14 40.427,28.083c46.594,21.912 129.588,41.858 239.089,57.886c178.69,26.156 428.975,42.455 705.852,42.455c276.878,-0 527.163,-16.299 705.853,-42.455c109.501,-16.028 192.494,-35.974 239.089,-57.886c19.018,-8.943 32.502,-18.565 40.426,-28.083c7.342,-8.819 10.646,-17.983 10.646,-27.08c-0,-9.097 -3.304,-18.261 -10.646,-27.08c-7.923,-9.518 -21.408,-19.14 -40.426,-28.084c-46.595,-21.912 -129.588,-41.858 -239.089,-57.886c-178.69,-26.156 -428.975,-42.454 -705.853,-42.454Zm0,33.333c226.889,-0 435.807,10.983 601.663,29.417c140.009,15.561 249.054,36.28 311.651,60.368c16.642,6.404 29.774,12.924 38.922,19.767c5.921,4.43 10.445,7.946 10.445,12.619c-0,4.672 -4.524,8.188 -10.445,12.618c-9.148,6.844 -22.28,13.364 -38.922,19.767c-62.598,24.088 -171.643,44.808 -311.651,60.369c-165.856,18.433 -374.774,29.417 -601.663,29.417c-226.889,-0 -435.806,-10.984 -601.662,-29.417c-140.009,-15.561 -249.054,-36.281 -311.652,-60.369c-16.642,-6.404 -29.774,-12.923 -38.921,-19.767c-5.922,-4.43 -10.445,-7.946 -10.445,-12.618c-0,-4.673 4.523,-8.189 10.445,-12.619c9.148,-6.844 22.28,-13.363 38.922,-19.767c62.598,-24.088 171.642,-44.807 311.651,-60.368c165.856,-18.434 374.773,-29.417 601.662,-29.417Z" style="fill:#7e4021;"/><path d="M2001.36,1697.45c-0.099,-2.44 -0.738,-4.895 -1.97,-7.19c-4.353,-8.103 -14.466,-11.148 -22.569,-6.796c-5.082,2.73 -8.621,7.335 -9.141,14.179c-0.262,3.445 2.941,12.689 2.941,12.689c0,0 -0.124,-0.287 -0.165,-0.389c9.128,22.566 23.407,42.45 38.855,61.078c22.576,27.224 52.679,44.612 82.796,62.181c7.946,4.635 18.16,1.947 22.794,-5.999c4.635,-7.945 1.947,-18.159 -5.998,-22.794c-26.744,-15.601 -53.886,-30.491 -73.933,-54.666c-13.266,-15.997 -25.771,-32.916 -33.61,-52.293Z" style="fill:#7e4021;"/><path d="M1680.43,501.187c-20.082,13.82 -37.321,31.085 -53.885,48.908c-54.618,58.766 -95.549,130.267 -120.046,206.482c-2.815,8.757 2.009,18.152 10.767,20.967c8.757,2.815 18.152,-2.01 20.967,-10.767c23.012,-71.595 61.421,-138.785 112.728,-193.99c14.905,-16.037 30.296,-31.705 48.366,-44.141c7.578,-5.215 9.496,-15.6 4.281,-23.178c-5.214,-7.578 -15.6,-9.496 -23.178,-4.281Z" style="fill:#7e4021;"/><path d="M1682.86,641.946c6.517,-9.585 13.435,-19.03 21.414,-27.459c23.35,-24.665 59.673,-39.705 92.683,-45.065c9.08,-1.475 15.254,-10.043 13.78,-19.123c-1.475,-9.08 -10.043,-15.254 -19.123,-13.78c-39.844,6.471 -83.364,25.281 -111.547,55.052c-9.207,9.725 -17.252,20.573 -24.771,31.632c-5.173,7.606 -3.196,17.981 4.411,23.153c7.606,5.173 17.981,3.196 23.153,-4.41Z" style="fill:#7e4021;"/><path d="M1853.19,551.992c2.319,-0.288 37.834,-4.659 47.27,-3.141c9.082,1.46 17.641,-4.727 19.102,-13.809c1.461,-9.082 -4.727,-17.641 -13.809,-19.102c-10.943,-1.76 -41.378,0.3 -55.407,2.651c-6.148,1.03 -10.331,2.68 -11.905,3.605c-7.932,4.658 -10.589,14.88 -5.931,22.811c4.251,7.237 13.132,10.084 20.68,6.985Z" style="fill:#7e4021;"/><path d="M217.999,3166.78c2.436,18.455 7.288,40.708 10.084,54.936c9.686,49.288 23.756,97.369 48.181,141.452c4.458,8.047 14.609,10.96 22.655,6.502c8.047,-4.458 10.96,-14.61 6.502,-22.656c-22.733,-41.03 -35.615,-85.853 -44.631,-131.726c-2.691,-13.695 -7.399,-35.108 -9.744,-52.87c-1.204,-9.12 -9.586,-15.546 -18.705,-14.342c-9.12,1.204 -15.546,9.585 -14.342,18.704Z" style="fill:#7e4021;"/><path d="M306.706,3425.02c9.982,17.487 27.034,46.681 43.826,62.614c6.672,6.331 17.23,6.054 23.562,-0.618c6.331,-6.673 6.054,-17.231 -0.619,-23.562c-14.658,-13.909 -29.107,-39.695 -37.821,-54.96c-4.56,-7.988 -14.748,-10.772 -22.737,-6.211c-7.988,4.56 -10.772,14.748 -6.211,22.737Z" style="fill:#7e4021;"/><path d="M820.046,288.254c14.931,6.04 29.897,19.629 46.394,32.094c20.058,15.156 41.973,28.802 66.571,32.126c22.269,3.009 47.542,-3.736 72.958,-14.756c33.109,-14.355 66.698,-35.956 93.221,-44.915c142.446,-48.115 321.365,-62.963 466.89,-18.187c8.792,2.706 18.126,-2.236 20.831,-11.028c2.705,-8.792 -2.237,-18.126 -11.028,-20.831c-151.899,-46.738 -338.675,-31.757 -487.361,18.466c-22.956,7.754 -51.1,24.437 -79.726,38.45c-24.713,12.098 -49.645,22.697 -71.321,19.768c-18.985,-2.566 -35.459,-13.991 -50.94,-25.688c-19.041,-14.387 -36.756,-29.429 -53.99,-36.4c-8.527,-3.449 -18.251,0.673 -21.7,9.201c-3.449,8.527 0.673,18.251 9.201,21.7Z" style="fill:#7e4021;"/></g></svg>