<?xml version="1.0" encoding="UTF-8" standalone="no"?><!DOCTYPE svg PUBLIC "-//W3C//DTD SVG 1.1//EN" "http://www.w3.org/Graphics/SVG/1.1/DTD/svg11.dtd"><svg width="100%" height="100%" viewBox="0 0 1992 1715" version="1.1" xmlns="http://www.w3.org/2000/svg" xmlns:xlink="http://www.w3.org/1999/xlink" xml:space="preserve" xmlns:serif="http://www.serif.com/" style="fill-rule:evenodd;clip-rule:evenodd;stroke-linejoin:round;stroke-miterlimit:2;"><g id="Orange"><path d="M1920.66,701.433c-11.455,32.691 -100.595,184.276 -119.38,213.308c-58.216,89.969 -138.552,172.079 -231.382,226.387c-240.916,140.944 -568.895,104.394 -812.225,-6.892c-277.803,-127.052 -436.806,-400.589 -312.688,-696.292c49.793,-118.627 137.723,-219.296 247.55,-285.664c21.038,-12.713 203.668,-86.834 168.223,-101.351c-373.036,-152.79 -830.082,235.803 -842.954,630.487c-21.829,669.335 736.097,1226.08 1425.59,938.625c288.495,-120.275 675.189,-574.848 477.268,-918.608Z" style="fill:#ffdab8;"/><path d="M1935.11,693.117c-3.251,-5.647 -9.497,-8.882 -15.986,-8.279c-6.489,0.604 -12.031,4.934 -14.186,11.084c-11.271,32.164 -99.161,181.201 -117.644,209.764c-56.829,87.826 -135.187,168.043 -225.805,221.057c-236.367,138.281 -558.143,101.52 -796.878,-7.664c-269.37,-123.196 -424.603,-387.956 -304.251,-674.684c48.433,-115.387 133.975,-213.295 240.802,-277.85c17.123,-10.347 139.209,-61.151 168.995,-88.43c9.893,-9.061 12.46,-18.445 11.654,-24.738c-0.861,-6.717 -4.502,-13.683 -14.729,-17.871c-192.019,-78.648 -405.845,-18.895 -573.138,112.247c-166.353,130.406 -286.202,331.098 -292.791,533.12c-22.187,680.326 747.847,1246.72 1448.66,954.552c176.243,-73.477 388.613,-269.354 486.675,-490.008c66.424,-149.462 80.524,-310.051 -1.377,-452.3Zm-1096.4,-632.856c-1.226,0.894 -2.474,1.759 -3.692,2.542c-42.743,27.496 -136.41,66.338 -151.097,75.213c-112.826,68.18 -203.145,171.611 -254.298,293.478c-127.885,304.678 34.89,586.991 321.124,717.898c247.926,113.388 582.106,149.728 827.573,6.122c95.042,-55.603 177.355,-139.606 236.959,-231.719c15.317,-23.672 76.545,-127.597 106.154,-184.899l-0,-0c58.853,125.299 42.089,263.609 -15.407,392.984c-94.563,212.777 -299.09,401.924 -469.042,472.778c-678.168,282.731 -1423.99,-264.355 -1402.52,-922.699c6.283,-192.662 121.394,-383.608 280.04,-507.973c153.15,-120.055 347.328,-178.36 524.202,-113.725Z" style="fill:#7e4021;"/><path d="M1920.66,701.433c-11.455,32.691 -100.595,184.276 -119.38,213.308c-58.216,89.969 -138.552,172.079 -231.382,226.387c-240.916,140.944 -568.895,104.394 -812.225,-6.892c-277.803,-127.052 -436.806,-400.589 -312.688,-696.292c49.793,-118.627 137.723,-219.296 247.55,-285.664c21.038,-12.713 200.305,-80.427 168.223,-101.351c122.628,231.593 16.794,458.529 373.048,628.893c351.623,168.149 361.188,-33.99 686.854,21.611Z" style="fill:#fabea8;"/><path d="M845.108,56.644c-2.297,-6.274 -0.626,-13.42 4.417,-18.024c5.612,-5.123 13.978,-5.802 20.342,-1.651c7.32,4.774 10.485,10.759 11.216,17.035c45.217,90.348 57.953,179.822 77.611,265.554c29.258,127.591 75.28,246.226 282.307,345.228c204.891,97.981 290.182,66.601 393.956,37.403c73.09,-20.564 154.856,-40.004 288.512,-17.184c4.837,0.825 9.065,3.741 11.555,7.969c2.491,4.229 2.991,9.34 1.369,13.971c-11.64,33.218 -102.028,187.351 -121.116,216.85c-59.604,92.113 -141.917,176.116 -236.959,231.719c-245.467,143.606 -579.647,107.266 -827.573,-6.122c-286.234,-130.907 -449.009,-413.22 -321.124,-717.898c51.153,-121.867 141.472,-225.298 254.298,-293.478c14.681,-8.872 106.676,-44.558 149.567,-72.356c4.105,-2.661 8.618,-6.399 11.622,-9.016Zm15.081,31.002c36.781,81.425 48.282,162.027 66.015,239.362c31.158,135.881 79.938,262.415 300.416,367.85c181.429,86.761 274.699,77.395 364.533,54.108c81.374,-21.094 159.822,-55.069 305.491,-34.422c-25.26,51.272 -93.344,166.401 -109.353,191.142c-56.829,87.826 -135.187,168.043 -225.805,221.057c-236.367,138.281 -558.143,101.52 -796.878,-7.664c-269.37,-123.196 -424.603,-387.956 -304.251,-674.684c48.433,-115.387 133.975,-213.295 240.802,-277.85c9.949,-6.012 55.858,-24.41 97.372,-44.301c24.27,-11.628 47.046,-23.902 61.658,-34.598Z" style="fill:#7e4021;"/><path d="M1920.66,701.433c-11.455,32.691 33.661,317.245 -225.311,545.791c-396.136,349.596 -1335.68,219.553 -1449.31,-397.841c-164.101,-891.616 650.168,-783.937 614.723,-798.454c-373.036,-152.79 -830.082,235.803 -842.954,630.487c-21.829,669.335 736.097,1226.08 1425.59,938.625c288.495,-120.275 675.189,-574.848 477.268,-918.608Z" style="fill:#f6a292;"/><path d="M1935.11,693.117c-3.251,-5.647 -9.497,-8.882 -15.986,-8.279c-6.489,0.604 -12.031,4.934 -14.186,11.084c-2.538,7.243 -3.181,25.604 -3.902,52.439c-2.539,94.536 -14.578,307.985 -216.708,486.367c-194.54,171.684 -522.683,224.733 -815.972,159.923c-292.038,-64.534 -550.357,-246.38 -605.923,-548.285c-57.679,-313.391 6.885,-500.626 113.528,-612.211c159.718,-167.121 410.781,-164.069 471.96,-164.75c10.021,-0.111 16.33,-0.78 18.345,-1.398c5.796,-1.78 8.443,-5.261 9.826,-7.53c2.386,-3.913 3.018,-8.038 2.082,-12.35c-0.548,-2.527 -2.204,-8.981 -11.092,-12.621c-192.019,-78.648 -405.845,-18.895 -573.138,112.247c-166.353,130.406 -286.202,331.098 -292.791,533.12c-22.187,680.326 747.847,1246.72 1448.66,954.552c176.243,-73.477 388.613,-269.354 486.675,-490.008c66.424,-149.462 80.524,-310.051 -1.377,-452.3Zm-1175.27,-653.576c-109.618,8.96 -284.56,42.445 -407.978,171.583c-111.81,116.993 -182.686,312.701 -122.212,641.275c58.065,315.49 326.334,507.362 631.512,574.8c303.927,67.161 643.625,10.433 845.221,-167.479c199.662,-176.204 223.061,-384.823 227.347,-491.564c43.722,117.362 25.349,244.346 -27.704,363.724c-94.563,212.777 -299.09,401.924 -469.042,472.778c-678.168,282.731 -1423.99,-264.355 -1402.52,-922.699c6.283,-192.662 121.394,-383.608 280.04,-507.973c130.661,-102.425 291.185,-159.905 445.332,-134.445Z" style="fill:#7e4021;"/><path d="M1528.66,884.525c0.899,8.957 8.797,15.618 17.824,14.94c9.173,-0.689 16.061,-8.696 15.372,-17.869c-0.339,-4.516 -3.893,-13.383 -5.898,-18.075c1.907,-4.632 1.711,-10.07 -1.001,-14.73c-4.628,-7.95 -14.839,-10.647 -22.789,-6.019c-8.928,5.197 -11.982,12.927 -10.526,22.696c0.54,3.622 2.091,7.889 4.081,12.221c1.016,2.211 2.768,6.429 2.937,6.836Zm20.813,-13.276l-0.536,0.331c0.185,-0.107 0.363,-0.217 0.536,-0.331Z" style="fill:#7e4021;"/><path d="M1241.83,961.66c-0.247,0.93 -1.851,6.938 -2.045,7.528c-2.872,8.739 1.891,18.165 10.63,21.037c8.739,2.872 18.165,-1.892 21.037,-10.631c0.284,-0.863 2.457,-8.741 2.831,-10.307c0.828,-3.465 0.438,-5.644 0.394,-6.02c-0.643,-5.567 -3.366,-8.556 -5.112,-10.205c-3.436,-3.245 -7.414,-4.637 -11.788,-4.547c-7.871,0.162 -14.361,5.766 -15.947,13.145Z" style="fill:#7e4021;"/><path d="M1181.82,879.012c6.962,-5.379 8.57,-15.344 3.505,-22.664c-1.615,-2.334 -11.233,-12.873 -23.565,-3.981c-0.88,0.634 -4.914,4.399 -5.175,4.651c-6.614,6.393 -6.794,16.953 -0.402,23.567c6.393,6.614 16.953,6.794 23.567,0.401l2.07,-1.974Zm-9.781,3.476l-0.031,0.001l0.024,0l0.007,-0.001Zm-1.04,-0.004c-5.066,-0.193 -9.982,-2.684 -13.085,-7.169c2.698,3.899 6.742,7.019 13.085,7.169Z" style="fill:#7e4021;"/><path d="M965.195,975.281l-8.524,6.774c-7.168,5.765 -8.306,16.265 -2.54,23.433c5.765,7.167 16.265,8.305 23.433,2.54c0.82,-0.66 8.153,-6.416 9.577,-7.644c9.448,-8.146 5.055,-18.456 4.767,-19.16c-3.488,-8.511 -13.229,-12.591 -21.741,-9.103c-1.887,0.773 -3.555,1.853 -4.972,3.16Z" style="fill:#7e4021;"/><path d="M844.255,809.637c7.288,-1.663 12.795,-8.124 12.942,-15.933c0.173,-9.197 -7.153,-16.804 -16.35,-16.977c-4.477,-0.085 -10.464,2.684 -14.104,4.547c-8.188,4.191 -11.433,14.242 -7.242,22.43c4.192,8.188 14.243,11.433 22.431,7.242c0.537,-0.275 1.576,-0.873 2.323,-1.309Z" style="fill:#7e4021;"/><path d="M671.148,830.693c-1.209,0.307 -3.946,1.007 -4.201,1.092c-8.722,2.925 -13.427,12.381 -10.502,21.102c2.814,8.389 11.671,13.063 20.104,10.798l-0.014,0.004l0.192,-0.049l0.205,-0.063c1.47,-0.403 6.559,-1.827 7.637,-2.351c6.414,-3.116 8.184,-8.097 8.861,-10.395c2.602,-8.823 -2.449,-18.098 -11.271,-20.7c-3.774,-1.113 -7.63,-0.826 -11.011,0.562Z" style="fill:#7e4021;"/><path d="M605.444,569.052c-1.02,0.075 -2.468,0.19 -2.966,0.26c-9.107,1.291 -15.454,9.732 -14.164,18.84c1.291,9.108 9.733,15.454 18.84,14.164c-0.14,0.02 -0.484,0.058 -0.484,0.058c-0,-0 6.024,-0.507 8.449,-1.256c3.225,-0.997 5.678,-2.617 7.394,-4.221c6.722,-6.279 7.082,-16.834 0.803,-23.556c-4.696,-5.028 -11.785,-6.496 -17.872,-4.289Z" style="fill:#7e4021;"/><path d="M851.754,518.392c1.786,3.085 4.573,5.62 8.129,7.064c5.592,2.271 10.952,1.553 15.679,-1.645c2.722,-1.841 5.881,-5.173 7.017,-10.383c0.753,-3.455 0.601,-8.653 -2.603,-13.369c-1.983,-2.919 -5.218,-6.185 -11.215,-7.361c-9.026,-1.771 -17.792,4.119 -19.563,13.146c-0.89,4.533 0.153,9.001 2.556,12.548Zm7.168,5.95c1.007,0.449 2.141,0.814 3.422,1.066c-1.201,-0.236 -2.346,-0.595 -3.422,-1.066Zm-5.463,-25.124c4.53,-5.331 12.136,-7.42 18.966,-4.646c-6.838,-2.777 -13.963,-1.76 -18.966,4.646Z" style="fill:#7e4021;"/><path d="M782.705,419.006c-1.312,-0.14 -2.846,-0.29 -3.531,-0.309c-9.196,-0.25 -16.864,7.013 -17.113,16.208c-0.25,9.196 7.013,16.864 16.208,17.113c2.609,0.071 9.24,0.27 10.253,0.013c8.445,-2.137 11.084,-8.051 12.113,-12.008c0.953,-3.662 0.936,-7.857 -1.598,-12.376c-0.75,-1.338 -2.474,-4.701 -7.888,-7.189c-2.738,-1.258 -5.642,-1.711 -8.444,-1.452Zm-14.058,22.593c0.859,2.853 2.976,6.57 8.583,9.147c-4.106,-1.887 -7.079,-5.236 -8.583,-9.147Z" style="fill:#7e4021;"/><path d="M748.693,340.971c0.978,0.227 7.642,1.759 9.398,1.78c2.644,0.031 4.767,-0.489 6.35,-1.07c6.219,-2.283 9.346,-6.669 10.622,-11.817c0.765,-3.084 1.57,-8.286 -2.984,-14.462c-3.646,-4.945 -9.516,-7.292 -15.219,-6.674c-1.73,-0.402 -3.631,-0.805 -4.567,-0.885c-9.165,-0.787 -17.244,6.015 -18.031,15.18c-0.766,8.913 5.647,16.801 14.431,17.948Zm-6.153,-11.468c0.353,1.515 1.016,3.173 2.185,4.924c-1.017,-1.548 -1.743,-3.212 -2.185,-4.924Z" style="fill:#7e4021;"/><path d="M596.44,331.228c-9.086,-0.376 -16.823,6.635 -17.319,15.743c-0.499,9.185 6.552,17.048 15.737,17.548l0.146,0.005c3.013,0.952 6.329,1.058 9.59,0.122c8.842,-2.539 13.959,-11.778 11.421,-20.619c-0.925,-3.221 -2.805,-6.469 -6.336,-9.055c-1.508,-1.103 -3.756,-2.338 -6.66,-3.03c-1.905,-0.454 -5.694,-0.67 -6.579,-0.714Zm-0.189,-0.01l0.418,0.017c-0.088,-0.005 -0.418,-0.017 -0.418,-0.017Z" style="fill:#7e4021;"/><path d="M1032.28,641.114c4.228,-1.726 7.733,-5.173 9.393,-9.807c1.595,-4.454 1.066,-8.155 0.068,-11.054c-1.49,-4.327 -4.393,-8.007 -9.64,-10.08c-1.502,-0.593 -5.732,-2.346 -11.822,-0.177c-1.1,0.391 -7.194,3.604 -7.603,3.837c-7.989,4.558 -10.776,14.746 -6.218,22.736c4.558,7.989 14.746,10.776 22.736,6.218l3.086,-1.673Zm-22.29,-20.111c-1.893,6.143 -0.145,10.808 2.391,14.309c-2.853,-4.036 -3.873,-9.278 -2.391,-14.309Z" style="fill:#7e4021;"/><path d="M512.999,749.426l-1.394,0.667c-8.153,4.259 -11.316,14.336 -7.057,22.489c4.182,8.006 13.973,11.199 22.042,7.276c0.551,-0.312 4.908,-2.783 5.273,-3.086c5.308,-4.4 5.821,-9.324 5.992,-11.584c0.313,-4.125 -0.787,-7.69 -2.942,-10.785c-1.477,-2.12 -5.822,-8.571 -16.264,-6.944c-2.047,0.319 -3.949,0.998 -5.65,1.967Zm9.085,31.146l0.827,-0.065c-0.838,0.089 -1.575,0.103 -2.213,0.076l0.546,0.012c0.28,-0.008 0.56,-0.015 0.84,-0.023Zm-2.276,-0.039l0.225,0.016l-0.225,-0.016Zm3.127,-0.028c0.271,-0.028 0.553,-0.065 0.845,-0.11l-0.845,0.11Zm-5.429,-0.328l0.159,0.032l-0.375,-0.084l0.216,0.052Zm-5.912,-2.65c1.383,1.006 3.169,1.977 5.509,2.552c-1.991,-0.508 -3.858,-1.379 -5.509,-2.552Zm14.996,2.331l-0.057,0.033c0,-0 0.418,-0.207 0.504,-0.252l-0.447,0.219Zm-18.025,-5.077l0.182,0.198l-0.282,-0.319l0.1,0.121Zm-3.237,-5.81c0.629,2.067 1.658,3.969 3.13,5.682c-1.38,-1.638 -2.458,-3.557 -3.13,-5.682Zm-0.059,-0.185l0.058,0.182l-0.128,-0.443l0.07,0.261Z" style="fill:#7e4021;"/><path d="M1358.93,802.081l-0.184,0.74c-1.985,8.981 3.696,17.885 12.678,19.87c8.982,1.985 17.885,-3.696 19.87,-12.678c0.489,-2.211 0.986,-7.942 0.847,-8.854c-1.238,-8.141 -6.423,-11.436 -10.248,-12.983c-3.358,-1.358 -7.278,-1.857 -11.788,-0.273c-1.538,0.54 -5.258,1.691 -8.563,6.766c-1.502,2.306 -2.359,4.847 -2.612,7.412Zm29.972,11.597c-2.144,2.905 -5.083,4.926 -8.317,5.956c2.222,-0.566 5.436,-1.943 8.317,-5.956Z" style="fill:#7e4021;"/><path d="M1370.47,1093.98c-0.436,0.572 -0.801,1.098 -1.001,1.482c-4.244,8.161 -1.063,18.233 7.098,22.476c8.161,4.244 18.233,1.063 22.476,-7.098c-0.628,1.208 -3.206,4.223 -3.206,4.223c0,-0 5.709,-18.858 2.962,-22.722c-1.561,-2.198 -3.906,-4.592 -7.994,-6.076c-7.856,-2.851 -16.472,0.579 -20.335,7.715Zm2.223,19.06c1.504,1.749 3.609,3.422 6.738,4.558c-2.682,-0.973 -4.963,-2.566 -6.738,-4.558Z" style="fill:#7e4021;"/><path d="M1179.06,1082.11l0.537,0.017c0.275,0.022 0.549,0.044 0.824,0.066l0.772,0.096c0.272,0.045 0.544,0.089 0.816,0.134l0.633,0.136l1.081,0.329c-0.936,-0.298 -1.879,-0.508 -2.821,-0.631c-1.004,-0.125 -2.035,-0.155 -3.081,-0.087l1.239,-0.06c-7.21,-0.173 -13.975,4.392 -16.27,11.61c-2.788,8.766 2.066,18.146 10.832,20.934c2.844,0.904 3.182,0.987 6.37,0.778c9.18,-0.599 16.145,-8.538 15.546,-17.717c-0.491,-7.519 -5.907,-13.553 -12.896,-15.156c-1.388,-0.427 -2.054,-0.522 -3.582,-0.449Z" style="fill:#7e4021;"/><path d="M1164.31,1104.39l-0.218,0.965c-1.83,9.015 4.004,17.819 13.019,19.649c9.015,1.829 17.819,-4.005 19.648,-13.02c0.1,-0.492 0.883,-5.608 0.81,-6.886c-0.376,-6.615 -3.859,-10.167 -5.954,-11.925c-7.045,-5.914 -17.567,-4.995 -23.481,2.05c-2.264,2.697 -3.526,5.904 -3.824,9.167Z" style="fill:#7e4021;"/><path d="M751.574,1011.02c-1.302,0.967 -3.359,2.538 -4.161,3.328c-6.556,6.452 -6.64,17.013 -0.188,23.569c6.425,6.528 16.923,6.639 23.482,0.27l0.652,-0.405l-0.629,0.383l0.065,-0.06l-0.069,0.062c-0.234,0.139 -0.368,0.202 -0.402,0.22l-0.184,0.094c-0.565,-2.758 -7.407,-34.919 -17.09,-28.555c-0.518,0.341 -1.011,0.705 -1.476,1.094Zm15.56,28.753c-3.113,0.967 -6.401,0.977 -9.455,0.113c2.312,0.766 5.549,1.185 9.455,-0.113Zm3.497,-1.539l-0.486,0.269l0.035,0.166l0.522,-0.479l-0.071,0.044Z" style="fill:#7e4021;"/><path d="M1230.88,1608.18c3.518,0.494 7.218,-0.131 10.539,-2.024c7.991,-4.556 10.78,-14.743 6.224,-22.734c-2.046,-3.588 -6.063,-8.007 -13.901,-8.778c-2.56,-0.251 -7.456,0.172 -13.07,1.542c-7.495,1.829 -17.415,5.209 -18.881,5.556c-32.221,7.621 -65.028,13.083 -97.67,18.529c-9.073,1.514 -15.21,10.11 -13.697,19.183c1.514,9.073 10.11,15.21 19.183,13.696c33.375,-5.568 66.912,-11.178 99.857,-18.97c1.492,-0.353 17.059,-4.763 21.416,-6Zm-10.504,-5.82l0.186,0.223l-0.186,-0.223Zm-0.541,-0.672l0.136,0.168l-0.254,-0.336l0.118,0.168Zm-0.607,-0.867l0.157,0.224l-0.208,-0.308l0.051,0.084Z" style="fill:#7e4021;"/><path d="M1019.94,1613.54c-1.822,0.153 -7.269,0.565 -11.147,0.432c-11.451,-0.393 -23.877,-2.093 -28.355,-2.218c-9.195,-0.256 -16.868,7.001 -17.125,16.196c-0.256,9.195 7.001,16.868 16.196,17.125c6.013,0.168 25.869,2.973 39.418,2.116c11.439,-0.724 19.837,-4.994 23.593,-9.462c5.92,-7.04 5.01,-17.562 -2.03,-23.482c-5.99,-5.037 -14.501,-5.13 -20.55,-0.707Z" style="fill:#7e4021;"/><path d="M1010.66,545.146c8.437,0.417 15.993,-5.623 17.286,-14.151c1.117,-7.375 -1.492,-11.908 -3.852,-14.766c-2.93,-3.547 -6.911,-5.912 -12.247,-6.341c-2.656,-0.214 -6.621,0.176 -11.108,2.324c-3.971,1.902 -10.442,7.234 -14.232,8.745c-14.64,5.838 -29.293,11.624 -44.011,17.262c-43.241,16.566 -86.5,33.063 -129.632,49.915c-8.568,3.347 -12.806,13.021 -9.459,21.589c3.348,8.568 13.021,12.806 21.589,9.458c43.064,-16.824 86.255,-33.295 129.427,-49.834c14.859,-5.693 29.652,-11.534 44.432,-17.427c2.556,-1.019 7.96,-4.33 11.807,-6.774Zm-15.761,-18.432l0.09,-0.713c-0.037,0.242 -0.067,0.48 -0.09,0.713Z" style="fill:#7e4021;"/><path d="M1129.23,643.589c-2.576,2.623 -22.088,22.523 -25.704,26.882c-22.927,27.641 -45.601,55.873 -67.17,84.589c-5.525,7.355 -4.039,17.811 3.316,23.336c7.355,5.524 17.811,4.038 23.336,-3.317c21.248,-28.288 43.588,-56.098 66.174,-83.327c3.646,-4.396 18.931,-18.45 25.355,-26.333c4.081,-5.007 5.842,-9.559 6.291,-11.981c1.678,-9.044 -4.303,-17.749 -13.347,-19.427c-7.717,-1.431 -15.187,2.713 -18.251,9.578Z" style="fill:#7e4021;"/><path d="M1282.31,718.022c1.166,2.149 1.347,5.232 1.517,8.758c0.274,5.658 -0.152,12.152 -0.924,18.95c-2.614,23.016 -9.168,49.094 -11.192,61.928c-1.433,9.086 4.78,17.626 13.866,19.059c9.087,1.433 17.627,-4.78 19.06,-13.866c2.445,-15.503 11.124,-49.693 12.426,-75.713c0.729,-14.59 -1.163,-27.102 -5.453,-35.011c-4.387,-8.085 -14.512,-11.088 -22.598,-6.702c-8.085,4.387 -11.088,14.512 -6.702,22.597Z" style="fill:#7e4021;"/></g></svg>