<?xml version="1.0" encoding="UTF-8" standalone="no"?><!DOCTYPE svg PUBLIC "-//W3C//DTD SVG 1.1//EN" "http://www.w3.org/Graphics/SVG/1.1/DTD/svg11.dtd"><svg width="100%" height="100%" viewBox="0 0 3244 1826" version="1.1" xmlns="http://www.w3.org/2000/svg" xmlns:xlink="http://www.w3.org/1999/xlink" xml:space="preserve" xmlns:serif="http://www.serif.com/" style="fill-rule:evenodd;clip-rule:evenodd;stroke-linejoin:round;stroke-miterlimit:2;"><g id="Pile-of-Flour" serif:id="Pile of Flour"><path d="M2215.44,1175.39c-10.425,-105.679 357.25,-414.651 426.744,-413.654c97.022,1.393 162.499,108.105 226.656,161.934c70.957,59.535 360.561,252.803 358.075,350.967c-2.034,80.375 -193.071,102.141 -247.527,108.505c-91.161,10.652 -183.124,8.727 -274.653,12.671c-163.085,7.026 -478.87,-114.744 -489.295,-220.423Z" style="fill:#fff;"/><path d="M2198.85,1177.03c3.482,35.293 35.86,73.585 86.76,107.747c109.279,73.342 302.91,132.729 419.838,127.691c91.935,-3.961 184.305,-2.068 275.871,-12.768c39.325,-4.595 147.574,-17.444 209.775,-52.9c31.64,-18.036 51.731,-42.212 52.479,-71.737c0.358,-14.168 -3.97,-30.084 -12.668,-47.07c-11.436,-22.336 -30.634,-47.076 -54.698,-72.626c-89.214,-94.722 -246.735,-202.574 -296.658,-244.461c-31.909,-26.772 -64.112,-66.728 -100.435,-100.131c-39.613,-36.428 -84.07,-64.944 -136.695,-65.7c-14.189,-0.203 -39.816,9.828 -71.448,29.012c-65.934,39.988 -163.455,118.81 -241.698,198.05c-45.214,45.789 -83.983,91.776 -106.916,130.533c-17.197,29.061 -25.429,54.872 -23.507,74.36Zm33.172,-3.272c-1.414,-14.334 6.374,-32.739 19.022,-54.113c21.828,-36.888 58.913,-80.505 101.948,-124.088c76.19,-77.161 171.06,-154.03 235.265,-192.969c24.152,-14.648 42.85,-24.338 53.684,-24.183c44.399,0.638 81.188,26.172 114.61,56.906c36.71,33.759 69.324,74.074 101.573,101.131c49.417,41.462 205.508,148.017 293.817,241.779c21.584,22.917 39.037,44.93 49.294,64.964c5.766,11.261 9.253,21.641 9.015,31.034c-0.293,11.567 -6.54,21.178 -15.838,29.62c-11.626,10.554 -27.81,19.138 -46.008,26.407c-59.203,23.649 -139.079,32.621 -170.954,36.346c-90.757,10.605 -182.314,8.648 -273.437,12.573c-111.39,4.8 -295.723,-52.197 -399.827,-122.066c-21.449,-14.396 -39.418,-29.293 -52.327,-44.385c-11.202,-13.098 -18.563,-26.05 -19.837,-38.956Z" style="fill:#7e4021;"/><path d="M367.737,999.95c-430.15,181.685 -387.097,306.846 -274.356,414.16c120.608,114.802 317.064,177.722 423.649,323.064c67.63,92.224 198.309,74.75 297.659,60.191c148.322,-21.737 289.346,-87.349 438.729,-98.28c161.272,-11.8 319.659,64.423 482.462,64.423c216.039,-0 407.127,-98.01 616.479,-128.845c159.52,-23.495 326.924,17.933 482.462,-22.571c42.828,-11.153 111.293,-23.988 124.612,-74.768c22.47,-85.665 -236.654,-302.655 -412.713,-519.33c-190.185,-234.058 -505.374,-580.847 -575.439,-700.843c-115.797,-198.318 -379.023,-473.852 -672.646,-153.017c-248.905,271.974 -653.382,718.6 -930.898,835.816Z" style="fill:#fff;"/><path d="M361.252,984.597c-157.804,66.653 -252.882,126.23 -304.881,179.792c-37.577,38.707 -53.634,75.04 -55.642,108.917c-3.294,55.588 32.115,106.191 81.161,152.876c61.079,58.138 141.258,103.289 219.767,152.157c75.698,47.118 149.888,97.722 201.932,168.691c36.796,50.176 90.461,71.058 148.722,76.868c54.895,5.474 113.864,-2.579 164.794,-10.043c147.926,-21.679 288.545,-87.246 437.53,-98.147c79.039,-5.784 157.347,10.21 235.867,27.443c81.282,17.838 162.781,37.023 245.378,37.023c216.867,0 408.754,-98.069 618.908,-129.022c78.802,-11.607 159.554,-7.065 239.812,-4.736c82.825,2.403 165.128,2.454 244.421,-18.196c26.979,-7.025 63.55,-14.973 91.59,-31.494c21.668,-12.767 38.459,-30.453 44.943,-55.173c3.412,-13.007 2.238,-28.455 -3.815,-45.96c-7.609,-22.008 -23.203,-48.094 -44.901,-77.226c-79.668,-106.965 -243.784,-259.018 -367.183,-410.883c-189.649,-233.399 -504.113,-579.078 -573.981,-698.736c-49.777,-85.251 -126.335,-184.296 -220.473,-246.351c-64.486,-42.509 -137.164,-67.743 -215.154,-60.783c-82.732,7.384 -171.988,51.048 -263.707,151.268c-247.5,270.438 -649.138,715.161 -925.088,831.715l0,0Zm12.97,30.707c279.083,-117.878 686.397,-566.408 936.708,-839.918c84.455,-92.282 165.9,-133.772 242.08,-140.57c70.328,-6.276 135.695,17.079 193.845,55.411c89.817,59.207 162.541,153.991 210.034,235.328c70.262,120.334 386.176,468.232 576.896,702.95c123.085,151.478 286.854,303.08 366.32,409.773c19.222,25.808 33.39,48.711 40.131,68.207c3.515,10.168 5.057,19.056 3.076,26.611c-5.361,20.437 -22.578,32.48 -42.006,41.294c-23.239,10.544 -50.066,16.203 -70.686,21.573c-76.244,19.855 -155.412,19.444 -235.053,17.133c-82.209,-2.385 -164.919,-6.81 -245.637,5.078c-208.549,30.717 -398.839,128.667 -614.05,128.667c-80.206,-0 -159.302,-18.926 -238.232,-36.249c-81.692,-17.929 -163.213,-34.146 -245.446,-28.129c-149.782,10.96 -291.212,76.616 -439.93,98.411c-48.42,7.096 -104.464,15.06 -156.654,9.855c-48.824,-4.869 -94.312,-21.362 -125.148,-63.411c-54.54,-74.372 -131.871,-127.9 -211.198,-177.278c-76.518,-47.629 -154.87,-91.338 -214.4,-148.002c-41.152,-39.171 -73.631,-80.119 -70.868,-126.761c1.627,-27.459 15.825,-56.295 46.284,-87.67c50.054,-51.559 142.029,-108.143 293.934,-172.303l0,-0Z" style="fill:#7e4021;"/><path d="M2725.16,1720.14c-58.014,53.551 -443.636,64.435 -345.011,-56.672c25.292,-31.057 116.783,-126.224 181.883,-119.794c52.928,5.227 236.382,108.847 163.128,176.466Z" style="fill:#fff;"/><path d="M2736.47,1732.39c36.895,-34.057 25.663,-75.729 -9.671,-113.461c-44.904,-47.952 -129.245,-88.492 -163.122,-91.838c-29.299,-2.894 -63.711,11.477 -95.844,33.23c-44.416,30.068 -84.868,73.305 -100.601,92.625c-19.728,24.225 -22.969,45.071 -17.292,61.778c5.527,16.265 20.675,30.155 43.821,39.882c60.482,25.419 180.955,25.277 262.274,9.151c37.463,-7.43 66.835,-18.813 80.435,-31.367l0,-0Zm-22.609,-24.494c-5.244,4.841 -13.977,8.921 -24.934,12.796c-19.45,6.88 -45.296,12.27 -73.831,15.905c-71.725,9.138 -160.479,7.428 -208.42,-12.72c-12.53,-5.267 -22.183,-11.073 -25.175,-19.878c-2.846,-8.375 1.688,-17.86 11.578,-30.004c14.616,-17.948 52.177,-58.138 93.44,-86.071c24.99,-16.917 51.096,-29.911 73.881,-27.661c29.637,2.927 102.787,39.502 142.069,81.45c20.838,22.253 33.151,46.098 11.392,66.183Z" style="fill:#7e4021;"/></g></svg>