<?xml version="1.0" encoding="UTF-8" standalone="no"?><!DOCTYPE svg PUBLIC "-//W3C//DTD SVG 1.1//EN" "http://www.w3.org/Graphics/SVG/1.1/DTD/svg11.dtd"><svg width="100%" height="100%" viewBox="0 0 3527 4273" version="1.1" xmlns="http://www.w3.org/2000/svg" xmlns:xlink="http://www.w3.org/1999/xlink" xml:space="preserve" xmlns:serif="http://www.serif.com/" style="fill-rule:evenodd;clip-rule:evenodd;stroke-linejoin:round;stroke-miterlimit:2;"><g id="Piping-bag" serif:id="Piping bag"><path d="M229.4,3680.52c214.52,-430.326 312.469,-876.811 499.736,-1587.03c241.611,-916.322 952.07,-1075.69 1328.65,-851.3c376.584,224.386 613.605,965.325 -151.416,1531.24c-516.249,381.885 -968.036,679.392 -1406.46,1117.79c-111.113,111.106 -358.849,-33.492 -270.513,-210.693Z" style="fill:#fac9cf;"/><path d="M214.484,3673.08c-46.88,94.04 -8.028,179.823 58.835,229.558c71.697,53.332 175.148,63.583 238.378,0.356c175.999,-175.989 354.162,-329.205 537.803,-474.313c273.189,-215.867 558.489,-413.809 866.785,-641.865c319.071,-236.027 465.763,-502.433 501.974,-749.728c52.219,-356.619 -125.439,-674.265 -351.938,-809.224c-229.24,-136.592 -579.692,-134.86 -877.627,87.672c-200.17,149.509 -376.859,398.938 -475.674,773.697c-101.934,386.593 -177.379,694.996 -259.599,965.183c-68.491,225.071 -141.667,423.541 -238.937,618.664l-0,0Zm29.832,14.872c98.086,-196.76 171.929,-396.873 240.994,-623.831c82.323,-270.527 157.88,-579.312 259.942,-966.389c96.427,-365.704 268.056,-609.593 463.389,-755.49c285.431,-213.192 620.999,-216.602 840.617,-85.743c216.993,129.295 386.046,434.108 336.019,775.76c-35.184,240.285 -178.788,498.422 -488.816,727.758c-308.599,228.281 -594.17,426.431 -867.627,642.51c-184.636,145.895 -363.754,299.954 -540.706,476.896c-51.71,51.707 -136.281,40.084 -194.915,-3.53c-54.792,-40.757 -87.314,-110.878 -48.897,-187.941l-0,-0Z" style="fill:#7e4021;"/><path d="M997.199,1718.87c30.028,-68.123 108.926,-165.868 129.328,-189.7c5.983,-6.987 5.166,-17.517 -1.821,-23.5c-6.988,-5.982 -17.518,-5.166 -23.5,1.822c-21.267,24.841 -103.209,126.926 -134.509,197.933c-3.71,8.417 0.111,18.263 8.528,21.973c8.417,3.71 18.263,-0.111 21.974,-8.528Z" style="fill:#7e4021;"/><path d="M1175.35,1470.56c2.497,-2.717 6.753,-7.311 8.501,-9.041c11.284,-11.167 22.49,-22.413 33.742,-33.612c6.52,-6.489 6.545,-17.05 0.056,-23.57c-6.489,-6.52 -17.05,-6.545 -23.57,-0.056c-11.23,11.177 -22.413,22.401 -33.675,33.545c-3.943,3.902 -13.592,14.573 -14.667,16.317c-6.471,10.503 -0.026,18.213 1.939,20.316c0.967,1.035 11.321,11.288 23.874,0.704c1.58,-1.333 2.85,-2.897 3.8,-4.603Zm-24.597,-21.433l-0.01,0.008l0.148,-0.107l-0.138,0.099Z" style="fill:#7e4021;"/><path d="M1975.39,1267.96c3.642,-79.771 77.901,-249.674 93.337,-292.635c84.699,-235.734 181.041,-475.593 318.583,-686.078c62.487,-95.625 147.941,-229.212 264.29,-265.7c109.413,-34.312 135.291,89.302 229.157,107.1c159.167,30.179 523.226,-183.836 616.616,102.612c61.966,190.061 -129.733,251.644 -172.017,391.063c-22.943,75.649 154.269,107.063 54.385,284.302c-47.505,84.294 -131.817,151.284 -215.148,197.387c-215.702,119.338 -464.797,154.136 -689.748,251.081c-39.979,17.23 -114.083,57.666 -158.744,70.773c-153.422,45.026 -345.706,-50.521 -340.711,-159.905Z" style="fill:#fac9cf;"/><path d="M1958.74,1267.2c-2.232,48.9 29.45,96.175 80.881,131.061c72.654,49.282 184.283,74.032 281.173,45.596c45.18,-13.259 120.204,-54.03 160.647,-71.459c225.451,-97.16 475.04,-132.201 691.22,-251.804c85.923,-47.537 172.617,-116.871 221.6,-203.788c32.732,-58.082 37.401,-102.009 29.726,-137.025c-7.669,-34.986 -28.085,-61.481 -48,-84.621c-11.431,-13.283 -22.632,-25.278 -29.78,-37.599c-5.207,-8.977 -8.043,-18.043 -4.902,-28.402c20.529,-67.686 78,-115.999 122.145,-170.938c48.748,-60.667 82.989,-128.236 49.769,-230.129c-20.128,-61.736 -52.255,-101.66 -91.617,-126.671c-57.807,-36.731 -132.153,-40.944 -209.752,-32.129c-73.857,8.39 -150.693,28.324 -217.6,39.685c-42.175,7.161 -80.165,11.026 -110.389,5.295c-43.731,-8.292 -70.966,-42.204 -100.671,-69.076c-36.091,-32.648 -74.645,-56.974 -136.578,-37.552c-119.806,37.572 -208.911,174.02 -273.254,272.486c-138.249,211.566 -235.182,452.614 -320.316,689.56c-15.684,43.651 -90.601,216.457 -94.302,297.51l0,-0Zm33.299,1.52c3.584,-78.488 77.185,-245.489 92.373,-287.759c84.264,-234.523 180.014,-473.194 316.85,-682.597c36.928,-56.512 81.901,-126.561 136.804,-181.261c35.195,-35.065 74.443,-63.83 118.521,-77.653c47.484,-14.891 76.57,5.434 104.241,30.466c34.056,30.808 66.686,67.599 116.824,77.106c33.443,6.341 75.511,2.742 122.178,-5.182c66.353,-11.267 142.538,-31.107 215.783,-39.428c114.54,-13.011 222.284,2.188 265.915,136.013c28.745,88.169 -1.88,146.421 -44.062,198.917c-46.784,58.223 -106.303,110.409 -128.059,182.143c-6.037,19.903 -2.038,37.553 7.967,54.802c8.064,13.901 20.451,27.631 33.348,42.617c16.578,19.263 34.32,40.89 40.704,70.014c6.378,29.096 0.994,65.26 -26.205,113.523c-46.027,81.673 -127.958,146.317 -208.697,190.986c-215.222,119.073 -463.824,153.63 -688.275,250.359c-39.515,17.03 -112.698,57.132 -156.842,70.087c-87.216,25.596 -187.674,3.164 -253.074,-41.198c-40.612,-27.547 -68.057,-63.341 -66.294,-101.955l0,0Z" style="fill:#7e4021;"/><path d="M3324.71,583.234c-10.037,17.356 -27.319,47.801 -37.554,65.039c-32.775,55.208 -102.114,83.9 -196.974,120.68c-8.577,3.325 -12.84,12.988 -9.515,21.564c3.326,8.577 12.988,12.84 21.565,9.515c103.703,-40.208 177.756,-74.389 213.587,-134.742c10.286,-17.326 27.659,-47.925 37.747,-65.369c4.605,-7.963 1.878,-18.167 -6.085,-22.772c-7.963,-4.604 -18.166,-1.878 -22.771,6.085Z" style="fill:#7e4021;"/><path d="M2995.31,814.475c-3.047,2.999 -8.458,4.98 -13.833,7.113c-8.162,3.237 -16.59,6.124 -22.37,9.043c-35.074,17.715 -69.341,36.172 -102.476,57.323c-7.754,4.949 -10.031,15.262 -5.081,23.016c4.949,7.754 15.262,10.03 23.016,5.081c32.191,-20.548 65.494,-38.456 99.569,-55.666c6.268,-3.166 16.031,-6.164 24.628,-9.874c8.057,-3.476 15.226,-7.651 19.928,-12.279c6.557,-6.452 6.641,-17.013 0.189,-23.569c-6.453,-6.556 -17.014,-6.641 -23.57,-0.188Z" style="fill:#7e4021;"/><path d="M229.382,3679.27c-39.29,86.451 -248.973,495.734 -207.363,527.355c26.654,20.255 54.88,-26.014 70.266,-17.89c15.385,8.124 -21.269,69.255 22.046,66.634c46.742,-2.828 207.715,-199.154 399.35,-377.722c83.412,-77.724 -243.13,-288.961 -284.299,-198.377Z" style="fill:#e4faff;"/><path d="M77.83,4211.48c-0.56,4.386 -1.136,9.044 -1.555,12.704c-1.708,14.945 0.523,28.749 8.293,37.269c5.939,6.512 15.28,11.486 30.77,10.548c7.596,-0.459 17.676,-4.058 29.531,-11.57c13.763,-8.72 31.119,-23.082 51.448,-41.93c75.438,-69.946 194.57,-203.656 328.726,-328.664c22.153,-20.643 24.184,-48.18 10.172,-78.381c-16.805,-36.224 -59.038,-77.339 -107.683,-109.959c-48.331,-32.41 -102.757,-56.4 -143.111,-60.43c-34.038,-3.398 -59.222,7.121 -70.212,31.303c-31.596,69.523 -172.65,346.812 -206.457,471.192c-6.743,24.808 -9.099,44.365 -7.019,56.302c1.657,9.505 5.888,15.989 11.202,20.027c19.739,15 40.305,8.178 58.54,-3.701c2.174,-1.416 4.783,-3.083 7.355,-4.71Zm31.541,27.046c-0.174,-1.157 -0.441,-3.214 -0.414,-4.631c0.089,-4.718 0.918,-9.842 1.715,-14.796c1.855,-11.53 3.036,-22.464 1.299,-29.402c-1.852,-7.399 -5.964,-12.567 -11.904,-15.704c-6.296,-3.324 -13.397,-3.868 -21.224,-1.337c-5.83,1.886 -12.581,6.069 -19.7,10.959c-4.849,3.332 -10.005,7.042 -15.387,9.528c-3.255,1.503 -6.664,2.763 -10.027,1.19c-0.199,-1.578 -0.531,-4.702 -0.425,-7.091c0.401,-9.076 2.804,-20.92 6.614,-34.937c33.456,-123.086 173.37,-397.344 204.637,-466.143c5.497,-12.095 19.53,-13.626 36.555,-11.926c36.15,3.609 84.561,25.912 127.857,54.946c42.982,28.822 81.162,64.296 96.011,96.302c7.1,15.305 8.567,29.505 -2.659,39.966c-134.132,124.986 -253.241,258.674 -328.666,328.608c-18.465,17.12 -34.124,30.295 -46.625,38.216c-5.662,3.588 -10.076,6.235 -13.703,6.455c-1.321,0.08 -2.955,-0.077 -3.954,-0.203Z" style="fill:#7e4021;"/><path d="M451.248,3911.29c0.254,3.056 0.825,8.843 1.604,10.622c1.347,3.079 3.241,5.162 5.011,6.587c5.068,4.082 10.89,5.307 17.669,2.227c7.912,-3.595 11.661,-12.62 8.838,-20.666c-0.043,-1.543 -0.102,-3.367 -0.139,-3.612c-1.046,-6.927 -3.237,-13.524 -6.181,-19.868c-6.732,-14.507 -15.962,-27.888 -25.404,-40.734c-25.553,-34.765 -62.944,-54.475 -101.376,-71.68c-8.396,-3.759 -18.264,0.006 -22.022,8.401c-3.759,8.396 0.006,18.264 8.401,22.022c33.179,14.854 66.079,30.986 88.139,60.999c8.137,11.071 16.224,22.52 22.025,35.022c1.587,3.421 2.857,6.95 3.435,10.68Zm-0.073,-0.906l-0.077,-1.022c-0,0 0.035,0.505 0.077,1.022Zm26.458,-8.856c-4.341,-3.24 -9.331,-3.837 -14.995,-1.523c5.101,-1.974 10.652,-1.26 14.995,1.523Z" style="fill:#7e4021;"/><path d="M2685.98,280.249l-0,-0.001c-0,0 -0.481,0.535 -1.043,1.156c-6.943,7.677 -41.836,46.094 -43.633,48.061c-41.676,45.624 -80.907,93.555 -120.004,141.385c-104.759,128.158 -197.819,262.793 -281.465,405.529c-4.651,7.937 -1.983,18.156 5.953,22.807c7.936,4.65 18.155,1.983 22.806,-5.953c82.77,-141.243 174.852,-274.471 278.514,-401.286c38.711,-47.358 77.543,-94.827 118.807,-140.001c1.801,-1.971 36.783,-40.486 43.745,-48.183c0.834,-0.923 1.33,-1.478 1.42,-1.581c1.403,-1.619 1.92,-2.716 2.026,-2.908c2.849,-5.191 2.107,-9.183 1.804,-10.906c-0.821,-4.676 -3.173,-7.913 -6.135,-10.234c-6.992,-5.478 -17.008,-4.48 -22.795,2.115Z" style="fill:#7e4021;"/><path d="M2177.35,994.333c-68.325,131.037 -129.061,320.835 -144.517,373.83c-2.575,8.831 2.503,18.091 11.334,20.667c8.83,2.575 18.091,-2.503 20.666,-11.334c15.204,-52.129 74.866,-238.857 142.074,-367.751c4.253,-8.157 1.083,-18.232 -7.073,-22.484c-8.156,-4.253 -18.231,-1.084 -22.484,7.072Z" style="fill:#7e4021;"/><path d="M2211.36,1428.75c-0.494,-0.794 -1.064,-1.554 -1.709,-2.273c-1.896,-2.115 -3.01,-2.992 -3.205,-3.143c-5.242,-4.075 -9.726,-3.588 -11.371,-3.476c-5.974,0.406 -10.015,3.27 -12.768,7.429c-0.344,0.52 -6.863,9.638 0.874,19.62c1.22,1.574 10.507,12.428 13.224,17.186c8.314,14.559 15.72,29.44 22.265,44.878c18.668,44.029 34.921,90.039 44.302,136.982c1.802,9.02 10.589,14.88 19.609,13.077c9.021,-1.802 14.88,-10.589 13.078,-19.609c-9.823,-49.154 -26.753,-97.36 -46.3,-143.462c-7.058,-16.647 -15.042,-32.695 -24.007,-48.395c-2.517,-4.408 -10.389,-14.339 -13.992,-18.814Z" style="fill:#7e4021;"/><path d="M2089.38,1421.19c4.807,9.957 4.012,23.708 2.108,37.242c-3.551,25.243 -12.367,50.007 -13.83,57.904c-1.676,9.045 4.307,17.749 13.352,19.424c9.044,1.676 17.748,-4.307 19.423,-13.352c1.499,-8.088 10.427,-33.477 14.064,-59.333c2.889,-20.537 2.196,-41.265 -5.098,-56.375c-3.998,-8.284 -13.97,-11.763 -22.254,-7.765c-8.284,3.999 -11.763,13.971 -7.765,22.255Z" style="fill:#7e4021;"/><path d="M1827.31,1381.24c12.825,-7.295 46.908,-11.806 52.93,-12.075c54.245,-2.422 107.442,-0.454 155.462,24.88c8.135,4.293 18.225,1.172 22.518,-6.963c4.292,-8.136 1.172,-18.226 -6.964,-22.518c-53.337,-28.14 -112.251,-31.389 -172.503,-28.699c-7.752,0.346 -51.418,7.011 -67.925,16.402c-7.995,4.548 -10.794,14.732 -6.246,22.727c4.548,7.996 14.732,10.794 22.728,6.246Z" style="fill:#7e4021;"/><path d="M1891.69,1205.98c-4.91,-1.823 -10.601,-1.307 -15.241,1.883c-7.581,5.21 -9.505,15.595 -4.294,23.176c0.166,0.241 3.036,4.757 10.873,7.156c11.225,3.436 67.221,19.481 83.249,26.748c8.378,3.798 18.263,0.08 22.062,-8.297c3.798,-8.378 0.08,-18.264 -8.297,-22.062c-16.812,-7.623 -75.483,-24.658 -87.257,-28.262l-1.095,-0.342Z" style="fill:#7e4021;"/><path d="M2125.67,1413.84c31.937,-56.651 110.366,-180.276 145.389,-235.067c108.072,-169.074 267.943,-314.756 424.887,-439.246c7.207,-5.717 8.417,-16.209 2.7,-23.416c-5.716,-7.206 -16.208,-8.416 -23.415,-2.7c-159.766,126.73 -322.242,275.295 -432.258,447.409c-35.257,55.157 -114.189,179.621 -146.34,236.65c-4.517,8.013 -1.679,18.186 6.334,22.704c8.013,4.517 18.186,1.679 22.703,-6.334Z" style="fill:#7e4021;"/><path d="M2915.86,624.073c0.848,-0.469 1.683,-0.942 2.098,-1.205c43.269,-27.406 90.861,-48.747 136.765,-71.227c8.262,-4.045 11.684,-14.037 7.639,-22.298c-4.046,-8.261 -14.037,-11.684 -22.298,-7.638c-46.988,23.009 -95.652,44.951 -139.942,73.003c-1.893,1.199 -6.41,3.718 -7.736,4.927c-1.908,1.739 -3.055,3.498 -3.773,4.881c-3.611,6.948 -2.183,12.868 1.294,17.66c1.706,2.351 5.099,6.559 13.039,6.991c5.034,0.274 9.672,-1.72 12.914,-5.094Zm-10.242,-28.121c1.655,0.176 3.233,0.591 4.7,1.211c-1.272,-0.566 -2.816,-1.022 -4.7,-1.211Z" style="fill:#7e4021;"/><path d="M2214.1,1434.51c36.839,-59.286 97.879,-110.328 156.8,-147.458c7.782,-4.904 10.119,-15.203 5.215,-22.986c-4.904,-7.782 -15.204,-10.119 -22.986,-5.215c-63.013,39.708 -127.945,94.663 -167.342,158.066c-4.855,7.813 -2.453,18.098 5.36,22.953c7.813,4.855 18.098,2.453 22.953,-5.36Z" style="fill:#7e4021;"/></g></svg>