<?xml version="1.0" encoding="UTF-8" standalone="no"?><!DOCTYPE svg PUBLIC "-//W3C//DTD SVG 1.1//EN" "http://www.w3.org/Graphics/SVG/1.1/DTD/svg11.dtd"><svg width="100%" height="100%" viewBox="0 0 945 2377" version="1.1" xmlns="http://www.w3.org/2000/svg" xmlns:xlink="http://www.w3.org/1999/xlink" xml:space="preserve" xmlns:serif="http://www.serif.com/" style="fill-rule:evenodd;clip-rule:evenodd;stroke-linejoin:round;stroke-miterlimit:2;"><g id="Plant-02"><path d="M520.778,2357.8c-65.471,-657.812 -114.324,-1302.29 -22.416,-1959.62c1.274,-9.11 -5.088,-17.541 -14.198,-18.814c-9.11,-1.274 -17.541,5.088 -18.814,14.198c-92.279,659.99 -43.477,1307.07 22.258,1967.54c0.911,9.153 9.082,15.845 18.236,14.934c9.153,-0.911 15.845,-9.082 14.934,-18.235Z" style="fill:#7e4021;"/><path d="M587.372,390.708c1.768,22.938 228.233,143.657 236.33,51.338c7.475,-85.218 -178.82,-110.678 -199.007,-137.215c-0.148,-0.194 54.187,-3.879 69.937,-5.547c33.964,-3.599 160.16,-17.789 142.164,-78.908c-22.716,-77.149 -202.397,-9.955 -227.642,-11.317c-1.879,-0.101 100.823,-118.553 52.604,-178.349c-43.098,-53.446 -124.104,69.208 -141.218,106.62c-0.62,1.354 -7.107,19.604 -8.078,19.396c-0.796,-0.172 -16.659,-57.999 -57.358,-94.976c-31.21,-28.355 -85.32,-43.139 -108.301,-18.178c-64.778,70.36 89.904,174.35 87.968,177.065c-1.574,2.207 -92.618,-1.947 -139.947,5.206c-43.268,6.539 -92.653,35.174 -61.874,87.586c37.795,64.359 183.209,25.274 182.964,25.429c-21.54,13.599 -38.378,35.741 -53.512,55.763c-20.925,27.685 -91.126,146.905 -20.031,161.437c59.925,12.25 106.17,-102.109 129.729,-140.805c0.906,-1.488 15.152,-25.742 16.675,-24.941c1.698,0.892 -40.481,202.917 48.851,207.333c93.512,4.622 67.704,-155.584 49.746,-206.937Z" style="fill:#fff;"/><path d="M513.336,115.108c-9.907,-20.463 -25.18,-45.847 -47.024,-65.693c-21.436,-19.475 -52.376,-33.205 -79.326,-35.023c-21.199,-1.43 -40.029,4.406 -52.444,17.891c-28.865,31.351 -24.18,68.04 -4.355,102.39c15.434,26.74 40.436,51.859 60.789,70.088c-30.897,0.044 -71.75,0.538 -98.642,4.602c-20.907,3.16 -42.966,11.03 -59.001,23.301c-12.415,9.501 -21.366,21.607 -24.94,35.934c-3.733,14.961 -1.839,32.795 10.185,53.27c16.177,27.548 48.239,40.505 83.533,44.088c21.029,2.135 43.077,1.072 62.337,-1.073c-5.355,6.544 -10.443,13.207 -15.342,19.688c-13.398,17.727 -45.519,70.717 -52.851,113.544c-3.599,21.025 -1.164,39.907 8.505,53.427c7.066,9.88 17.941,17.507 34.274,20.845c29.547,6.04 57.432,-10.8 80.873,-38.745c17.072,-20.351 32.018,-46.445 44.362,-69.322c-1.175,23.97 -0.798,50.192 3.432,73.327c7.808,42.701 28.957,74.66 69.103,76.644c46.919,2.319 70.944,-27.24 80.177,-69.112c7.35,-33.329 4.502,-74.996 -1.465,-109.478c31.65,19.116 77.338,40.627 117.912,50.917c25.481,6.463 49.121,8.354 66.82,3.905c22.622,-5.686 37.7,-20.149 40.057,-47.021c3.544,-40.402 -27.223,-71.338 -69.874,-93.69c-25.678,-13.456 -55.318,-24.127 -80.898,-33.305c2.704,-0.237 5.036,-0.457 6.855,-0.65c21.436,-2.27 77.729,-8.845 115.3,-27.394c31.958,-15.777 50.757,-39.983 41.096,-72.795c-11.114,-37.745 -51.208,-50.948 -99.381,-48.863c-36.116,1.563 -76.497,10.803 -106.508,17.883c12.622,-19.07 27.156,-44.005 35.935,-69.408c11.833,-34.241 12.779,-69.143 -8.098,-95.032c-7.638,-9.472 -16.25,-14.961 -25.241,-17.61c-12.912,-3.804 -27.108,-1.712 -41.535,5.591c-36.231,18.342 -75.706,73.486 -94.62,106.879Zm89.871,270.398c1.633,1.556 7.826,7.327 13.968,11.65c27.475,19.336 79.437,45.736 124.447,57.152c15.852,4.02 30.749,6.222 43.129,5.094c7.662,-0.699 14.224,-2.391 18.252,-7.15c2.43,-2.871 3.668,-6.78 4.097,-11.662c1.396,-15.917 -7.039,-28.669 -19.537,-39.715c-15.513,-13.71 -37.144,-24.66 -59.474,-34.088c-33.827,-14.281 -69.349,-24.971 -91.094,-34.657c-12.676,-5.646 -21.432,-11.775 -25.565,-17.208c-3.74,-4.916 -4.303,-10.086 -2.549,-15.354c0.651,-1.957 2.542,-8.304 11.285,-10.78c0.262,-0.074 1.848,-0.485 4.609,-0.72c8.792,-0.751 53.996,-3.864 68.101,-5.358c19.321,-2.047 70.191,-7.417 104.056,-24.136c15.724,-7.763 28.629,-17.346 23.876,-33.491c-2.978,-10.112 -10.364,-16.15 -19.938,-19.811c-12.75,-4.875 -28.839,-5.908 -46.026,-5.165c-40.296,1.744 -86.14,13.781 -115.095,20.501c-14.918,3.462 -26.169,5.381 -31.492,5.094c-4.758,-0.257 -8.248,-2.21 -10.898,-4.857c-2.705,-2.701 -5.331,-6.758 -4.849,-13.091c0.055,-0.717 0.8,-5.653 5.623,-12.091c8.487,-11.329 39.118,-50.546 53.192,-91.27c7.85,-22.716 11.309,-46.047 -2.541,-63.221c-7.16,-8.88 -16.356,-7.97 -25.773,-3.203c-9.896,5.01 -19.938,13.571 -29.638,23.579c-26.304,27.138 -49.574,65.002 -57.677,82.715c-0.617,1.348 -6.712,17.738 -8.663,20.852c-6.068,9.69 -15.071,8.551 -18.075,7.905c-0.773,-0.167 -9.095,-1.784 -12.888,-12.38c-3.257,-9.1 -18.253,-55.736 -52.173,-86.554c-16.017,-14.552 -39.017,-25.078 -59.154,-26.436c-10.204,-0.688 -19.703,0.72 -25.679,7.211c-17.786,19.318 -12.223,41.983 -0.007,63.15c22.926,39.722 69.515,75.029 82.72,86.169c6.831,5.764 8.884,11.116 9.193,12.376c1.446,5.897 -0.214,10.372 -2.63,13.759c-0.887,1.244 -5.35,6.82 -15.573,7.446c-16.146,0.99 -93.315,-1.807 -135.452,4.561c-13.035,1.97 -26.748,6.175 -37.889,12.867c-8.945,5.372 -16.38,12.215 -18.691,21.478c-2.002,8.021 0.14,17.344 6.587,28.322c11.04,18.8 34.069,25.359 58.155,27.804c42.249,4.29 89.035,-5.951 102.538,-9.162c2.416,-0.574 3.839,-0.942 4.081,-0.998c12.641,-2.945 17.934,7.353 18.152,7.72c2.564,4.323 3.403,9.272 1.05,14.917c-0.729,1.748 -2.204,4.977 -6.486,7.681c-19.878,12.55 -35.148,33.242 -49.114,51.72c-11.712,15.495 -40.179,61.632 -46.588,99.069c-1.899,11.094 -2.338,21.278 2.763,28.411c2.779,3.886 7.414,6.265 13.836,7.578c18.418,3.765 34.049,-10.09 48.66,-27.509c27.955,-33.326 49.642,-82.88 63.495,-105.634c0.93,-1.528 14.521,-23.879 18.431,-27.712c8.343,-8.18 16.895,-5.07 20.233,-3.316c1.264,0.664 9.985,5.192 8.845,17.356c-0.546,5.83 -5.849,35.44 -7.754,70.4c-1.499,27.501 -1.015,58.525 6.34,82.965c5.655,18.79 15.217,33.767 34.49,34.72c27.904,1.379 40.49,-18.097 45.981,-42.999c10.378,-47.061 -2.663,-112.831 -12.79,-141.791l0.073,-0.015c-0.561,-1.594 -0.866,-3.015 -0.958,-4.206c-0.643,-8.346 5.005,-15.875 13.198,-17.592c8.193,-1.718 16.389,2.909 19.152,10.811l0.102,0.299Z" style="fill:#7e4021;"/><path d="M439.251,335.127c-74.59,-99.118 74.64,-212.346 148.796,-111.266c77.533,105.681 -74.697,209.733 -148.796,111.266Z" style="fill:#ffce7b;"/><path d="M425.933,345.149c60.98,81.032 166.929,45.12 193.768,-26.166c11.497,-30.535 9.114,-67.729 -18.216,-104.981c-87.46,-119.214 -263.523,14.246 -175.552,131.147Zm26.635,-20.043c-61.208,-81.337 61.188,-174.332 122.041,-91.386c19.191,26.158 21.97,52.076 13.897,73.517c-18.821,49.988 -93.178,74.69 -135.938,17.869l-0,-0Z" style="fill:#7e4021;"/><path d="M749.722,842.859c1.256,16.295 162.132,102.052 167.885,36.469c5.309,-60.537 -127.031,-78.623 -141.372,-97.474c-0.105,-0.138 38.494,-2.756 49.682,-3.941c24.128,-2.556 113.775,-12.637 100.991,-56.055c-16.137,-54.805 -143.779,-7.072 -161.713,-8.039c-1.334,-0.072 71.623,-84.218 37.37,-126.696c-30.616,-37.967 -88.162,49.164 -100.32,75.741c-0.44,0.962 -5.048,13.926 -5.737,13.778c-0.567,-0.121 -11.835,-41.201 -40.747,-67.468c-22.171,-20.144 -60.61,-30.646 -76.935,-12.914c-46.017,49.982 63.866,123.855 62.491,125.784c-1.118,1.567 -65.794,-1.384 -99.415,3.698c-30.737,4.645 -65.82,24.987 -43.955,62.219c26.849,45.72 130.149,17.955 129.974,18.065c-15.301,9.661 -27.263,25.389 -38.013,39.613c-14.865,19.667 -64.734,104.358 -14.23,114.682c42.569,8.702 75.421,-72.537 92.157,-100.026c0.643,-1.056 10.764,-18.286 11.845,-17.717c1.207,0.633 -28.757,144.148 34.704,147.285c66.429,3.284 48.095,-110.524 35.338,-147.004Z" style="fill:#fff;"/><path d="M697.189,637.539c-7.43,-13.752 -17.596,-29.232 -30.22,-40.701c-16.012,-14.548 -39.141,-24.765 -59.273,-26.123c-16.653,-1.123 -31.378,3.663 -41.131,14.256c-22.112,24.017 -18.91,52.105 -3.723,78.419c8.974,15.547 22.403,30.355 34.961,42.422c-20.289,0.324 -43.641,1.221 -58.392,3.45c-15.643,2.365 -32.127,8.31 -44.125,17.492c-9.724,7.442 -16.668,16.971 -19.467,28.192c-2.903,11.634 -1.594,25.533 7.756,41.455c12.238,20.838 36.317,30.967 63.015,33.677c11.315,1.149 23.038,1.023 34.037,0.246l-4.016,5.265c-9.762,12.916 -33.109,51.551 -38.451,82.756c-2.803,16.377 -0.658,31.044 6.874,41.575c5.64,7.888 14.268,14.065 27.306,16.73c22.609,4.621 44.18,-7.769 62.116,-29.151c8.266,-9.854 15.844,-21.584 22.615,-33.217c0.115,11.512 0.934,23.128 2.891,33.828c5.997,32.799 22.762,56.875 53.599,58.399c14.954,0.74 26.774,-3.049 36.143,-9.624c13.135,-9.218 21.64,-24.543 25.766,-43.253c4.651,-21.091 3.704,-46.778 0.528,-69.606c22.065,12.367 50.592,25.127 76.293,31.645c18.999,4.818 36.634,6.093 49.83,2.776c18.121,-4.555 30.201,-16.138 32.089,-37.662c2.678,-30.534 -19.972,-54.36 -52.206,-71.253c-12.277,-6.434 -25.818,-11.984 -38.912,-16.916c19.311,-2.67 47.571,-7.918 68.117,-18.061c25.067,-12.376 39.265,-31.668 31.687,-57.404c-6.76,-22.959 -26.389,-34.696 -52.836,-37.584c-26.547,-2.898 -60.633,3.418 -87.653,9.553c7.34,-12.033 14.763,-26.089 19.688,-40.343c8.985,-25.997 9.294,-52.46 -6.556,-72.116c-6.141,-7.615 -13.097,-11.981 -20.325,-14.11c-10.268,-3.025 -21.577,-1.512 -33.05,4.296c-23.98,12.139 -50.003,46.272 -64.975,70.692Zm67.931,198.949c1.925,1.642 8.539,7.172 14.583,11.042c20.183,12.925 52.443,28.643 80.782,35.83c10.666,2.706 20.683,4.25 29.013,3.491c4.024,-0.367 7.604,-0.892 9.72,-3.391c1.153,-1.362 1.582,-3.271 1.786,-5.588c0.855,-9.749 -4.612,-17.408 -12.267,-24.174c-10.668,-9.427 -25.574,-16.902 -40.93,-23.385c-24.063,-10.159 -49.329,-17.767 -64.798,-24.657c-9.987,-4.449 -16.783,-9.431 -20.038,-13.711c-3.74,-4.917 -4.303,-10.086 -2.55,-15.354c0.651,-1.957 2.541,-8.303 11.282,-10.778c0.238,-0.067 1.673,-0.464 4.179,-0.677c6.233,-0.532 38.28,-2.738 48.279,-3.797c13.419,-1.422 48.771,-5.062 72.291,-16.674c8.859,-4.373 17.146,-9.004 14.468,-18.099c-1.662,-5.645 -5.913,-8.885 -11.257,-10.928c-8.519,-3.258 -19.28,-3.853 -30.764,-3.356c-28.318,1.226 -60.529,9.72 -80.878,14.443c-11.231,2.606 -19.716,3.953 -23.723,3.737c-4.756,-0.257 -8.244,-2.21 -10.892,-4.855c-2.703,-2.699 -5.329,-6.753 -4.847,-13.082c0.05,-0.654 0.544,-5.242 4.944,-11.116c5.91,-7.889 27.288,-35.164 37.087,-63.519c5.002,-14.475 7.825,-29.361 -0.999,-40.305c-3.422,-4.243 -7.871,-3.277 -12.372,-0.998c-6.613,3.347 -13.286,9.115 -19.768,15.802c-18.131,18.707 -34.198,44.745 -39.926,57.149c-0.572,1.475 -5.275,13.55 -6.575,15.626c-6.016,9.606 -14.969,8.413 -17.947,7.772c-0.752,-0.161 -8.995,-1.578 -12.685,-11.887c-2.238,-6.253 -12.452,-38.36 -35.764,-59.54c-10.593,-9.624 -25.782,-16.637 -39.101,-17.536c-5.663,-0.382 -11.049,-0.027 -14.365,3.576c-11.036,11.987 -6.956,26.045 0.624,39.178c15.968,27.666 48.497,52.178 57.694,59.937c6.174,5.209 7.827,10.193 8.106,11.332c1.443,5.883 -0.216,10.347 -2.626,13.725c-0.844,1.183 -4.977,6.71 -14.697,7.305c-11.42,0.7 -65.996,-1.309 -95.797,3.195c-8.649,1.308 -17.759,4.065 -25.151,8.506c-5.198,3.122 -9.737,6.905 -11.08,12.288c-1.172,4.696 0.384,10.08 4.158,16.506c7.101,12.093 22.145,15.821 37.638,17.394c29.353,2.98 61.855,-4.171 71.237,-6.402c21.197,-5.04 15.822,29.481 15.625,29.606c-13.64,8.611 -24.032,22.89 -33.615,35.569c-8.076,10.685 -27.77,42.467 -32.188,68.281c-1.578,9.213 -1.793,18.021 8,20.023c4.514,0.923 8.766,-0.351 12.841,-2.634c6.09,-3.412 11.709,-8.901 17.061,-15.281c19.694,-23.478 34.921,-58.418 44.681,-74.449c0.694,-1.14 10.919,-17.762 13.837,-20.622c8.24,-8.079 16.701,-4.914 19.997,-3.182c1.536,0.807 9.613,4.82 8.91,16.214c-0.152,2.47 -2.317,14.956 -4.05,31.751c-2.417,23.416 -4.297,56.212 3.747,79.118c3.447,9.815 8.705,17.793 19.166,18.31c17.077,0.844 24.352,-11.524 27.712,-26.764c7.181,-32.56 -1.922,-78.056 -8.928,-98.093l0.087,-0.018c-0.582,-1.621 -0.883,-3.048 -0.972,-4.203c-0.643,-8.346 5.005,-15.874 13.198,-17.592c7.887,-1.654 15.777,2.572 18.817,9.941Z" style="fill:#7e4021;"/><path d="M644.499,803.375c-52.987,-70.411 53.023,-150.846 105.703,-79.041c55.077,75.074 -53.064,148.991 -105.703,79.041Z" style="fill:#ffce7b;"/><path d="M631.182,813.397c45.957,61.07 125.796,33.935 146.024,-19.789c8.662,-23.008 7.027,-51.063 -13.566,-79.133c-65.984,-89.939 -198.826,10.728 -132.458,98.922l0,0Zm26.634,-20.043c-39.605,-52.63 39.572,-112.832 78.948,-59.161c12.454,16.977 14.485,33.754 9.246,47.669c-12.209,32.426 -60.456,48.351 -88.194,11.492l0,-0Z" style="fill:#7e4021;"/><path d="M284.239,870.34c16.081,-2.919 84.896,-171.739 19.069,-170.739c-60.762,0.924 -65.188,134.421 -82.47,150.618c-0.127,0.119 -6.687,-38.008 -9.013,-49.016c-5.016,-23.738 -24.232,-111.88 -66.111,-94.713c-52.862,21.67 7.703,143.746 8.579,161.685c0.065,1.335 -91.116,-62.613 -129.859,-24.186c-34.629,34.347 57.942,82.658 85.625,92.027c1.002,0.34 14.371,3.595 14.294,4.296c-0.063,0.575 -39.771,15.995 -62.937,47.447c-17.764,24.119 -24.271,63.432 -4.959,77.853c54.436,40.652 116.656,-76.225 118.715,-75.054c1.674,0.951 5.368,65.589 13.869,98.512c7.772,30.099 31.603,62.912 66.397,37.346c42.727,-31.394 4.52,-131.304 4.647,-131.141c11.178,14.23 28.05,24.517 43.301,33.753c21.087,12.77 110.444,53.696 115.537,2.399c4.292,-43.237 -79.886,-67.589 -108.946,-81.419c-1.117,-0.531 -19.293,-8.832 -18.838,-9.967c0.507,-1.265 146.337,13.83 142.952,-49.617c-3.542,-66.416 -114.871,-36.513 -149.852,-20.084Z" style="fill:#fff;"/><path d="M224.691,782.612c-4.636,-18.936 -12.753,-46.51 -24.949,-65.907c-14.88,-23.666 -35.525,-35.812 -60.349,-25.636c-22.146,9.078 -31.808,29.806 -31.97,56.41c-0.162,26.704 9.614,59.963 18.487,86.212c-12.722,-6.068 -27.465,-12.011 -42.149,-15.45c-26.781,-6.272 -53.136,-3.866 -71.064,13.915c-6.945,6.889 -10.575,14.255 -11.952,21.663c-1.957,10.525 0.707,21.619 7.661,32.436c14.533,22.61 51.154,44.997 76.98,57.387c-12.918,8.8 -27.275,20.5 -37.389,34.233c-12.83,17.419 -20.622,41.473 -19.91,61.638c0.59,16.681 6.859,30.837 18.397,39.453c26.157,19.534 53.769,13.47 78.387,-4.335c14.546,-10.52 27.899,-25.396 38.615,-39.125c2.402,20.149 5.688,43.287 9.418,57.731c3.955,15.319 11.559,31.106 21.923,42.1c8.399,8.91 18.589,14.84 30.038,16.475c11.871,1.694 25.562,-1.032 40.442,-11.965c19.474,-14.309 27.081,-39.3 27.04,-66.135c-0.017,-11.373 -1.343,-23.022 -3.244,-33.883l5.649,3.455c13.849,8.387 54.673,27.651 86.261,29.766c16.579,1.11 30.949,-2.528 40.652,-11.099c7.268,-6.42 12.528,-15.635 13.843,-28.878c2.279,-22.963 -12.257,-43.15 -35.365,-58.8c-10.649,-7.213 -23.094,-13.548 -35.359,-19.092c11.439,-1.294 22.909,-3.299 33.353,-6.342c32.011,-9.328 54.242,-28.472 52.597,-59.303c-0.797,-14.951 -5.777,-26.321 -13.278,-34.966c-10.516,-12.121 -26.632,-19.01 -45.667,-21.197c-21.456,-2.464 -46.911,1.11 -69.293,6.609c10.04,-23.216 19.809,-52.9 23.658,-79.134c2.846,-19.393 2.307,-37.066 -2.346,-49.853c-6.388,-17.558 -19.148,-28.387 -40.753,-28.058c-30.648,0.465 -52.027,25.438 -65.526,59.234c-5.142,12.872 -9.275,26.91 -12.838,40.441Zm51.632,73.064c1.437,-2.083 6.26,-9.229 9.49,-15.638c10.787,-21.402 23.116,-55.103 27.361,-84.029c1.598,-10.888 2.107,-21.01 0.498,-29.218c-0.777,-3.965 -1.666,-7.473 -4.369,-9.321c-1.473,-1.007 -3.416,-1.239 -5.742,-1.204c-9.785,0.149 -16.843,6.372 -22.789,14.68c-8.284,11.578 -14.191,27.172 -19.066,43.111c-7.64,24.978 -12.617,50.891 -17.886,66.984c-3.401,10.391 -7.661,17.661 -11.585,21.339c-4.507,4.224 -9.591,5.314 -15.012,4.11c-2.012,-0.447 -8.519,-1.677 -11.877,-10.118c-0.091,-0.23 -0.632,-1.617 -1.102,-4.087c-1.168,-6.146 -6.647,-37.798 -8.725,-47.636c-2.79,-13.203 -10.035,-47.996 -23.996,-70.202c-5.259,-8.363 -10.715,-16.132 -19.487,-12.536c-5.445,2.232 -8.232,6.792 -9.717,12.318c-2.367,8.808 -1.856,19.573 -0.184,30.945c4.122,28.044 15.873,59.215 22.656,78.972c3.744,10.905 5.953,19.208 6.149,23.216c0.232,4.756 -1.353,8.426 -3.713,11.332c-2.408,2.966 -6.171,5.993 -12.516,6.162c-0.656,0.018 -5.27,-0.003 -11.565,-3.779c-8.452,-5.069 -37.775,-23.54 -66.985,-30.38c-14.911,-3.492 -30.009,-4.774 -39.99,5.125c-3.87,3.839 -2.453,8.166 0.275,12.409c4.008,6.235 10.429,12.282 17.746,18.044c20.466,16.118 48.014,29.432 60.939,33.858c1.526,0.418 14.02,3.859 16.218,4.939c10.173,4.999 9.903,14.028 9.571,17.055c-0.084,0.765 -0.648,9.11 -10.524,13.837c-5.991,2.868 -36.882,16.319 -55.56,41.679c-8.488,11.524 -13.908,27.352 -13.436,40.692c0.2,5.673 1.106,10.994 5.029,13.924c13.055,9.749 26.621,4.249 38.908,-4.637c25.883,-18.72 46.932,-53.591 53.707,-63.534c4.549,-6.676 9.337,-8.831 10.441,-9.226c5.705,-2.037 10.315,-0.845 13.923,1.206c1.263,0.718 7.184,4.264 8.773,13.871c1.867,11.288 5.463,65.783 12.998,94.965c2.187,8.469 5.864,17.249 11.038,24.147c3.639,4.85 7.867,8.978 13.36,9.762c4.79,0.684 9.987,-1.415 15.993,-5.828c11.301,-8.304 13.468,-23.65 13.444,-39.223c-0.044,-29.504 -10.49,-61.102 -13.67,-70.205c-7.187,-20.57 27.703,-18.762 27.848,-18.578c9.964,12.685 25.233,21.559 38.828,29.793c11.456,6.937 45.089,23.269 71.22,25.019c9.326,0.625 18.11,-0.064 19.097,-10.011c0.456,-4.584 -1.247,-8.683 -3.936,-12.503c-4.018,-5.708 -10.054,-10.735 -16.949,-15.405c-25.373,-17.184 -61.69,-28.749 -78.637,-36.814c-1.205,-0.574 -18.788,-9.041 -21.932,-11.65c-8.88,-7.369 -6.6,-16.11 -5.215,-19.567c0.645,-1.61 3.81,-10.055 15.216,-10.525c2.472,-0.101 15.114,0.772 31.999,0.775c23.54,0.004 56.356,-1.487 78.316,-11.837c9.411,-4.435 16.807,-10.483 16.249,-20.942c-0.91,-17.073 -13.959,-23.042 -29.463,-24.823c-33.124,-3.805 -77.448,9.913 -96.661,18.936l-0.027,-0.085c-1.553,0.745 -2.942,1.192 -4.081,1.398c-8.236,1.496 -16.304,-3.351 -18.852,-11.325c-2.453,-7.676 0.941,-15.958 7.959,-19.737Z" style="fill:#7e4021;"/><path d="M255.749,979.056c-64.609,59.925 -155.487,-37.282 -89.459,-97.044c69.032,-62.483 153.645,37.512 89.459,97.044Z" style="fill:#ffce7b;"/><path d="M267.083,991.275c56.038,-51.974 20.862,-128.611 -34.653,-143.226c-23.775,-6.258 -51.513,-1.756 -77.325,21.606c-82.702,74.855 31.052,196.679 111.978,121.62Zm-22.667,-24.439c-48.293,44.791 -116.295,-27.798 -66.942,-72.467c15.611,-14.13 32.091,-17.87 46.47,-14.084c33.507,8.82 54.294,55.181 20.472,86.551Z" style="fill:#7e4021;"/><path d="M584.723,1611.87c16.303,1.146 124.703,-145.432 60.671,-160.73c-59.106,-14.121 -96.385,114.142 -117.134,125.566c-0.152,0.084 2.913,-38.482 3.38,-49.724c1.006,-24.241 4.168,-114.398 -40.654,-108.113c-56.578,7.934 -28.06,141.192 -31.644,158.79c-0.267,1.31 -72.816,-83.188 -119.854,-55.527c-42.043,24.723 35.718,94.413 60.226,110.333c0.888,0.576 13.037,7.035 12.789,7.695c-0.203,0.542 -42.49,5.67 -72.71,30.422c-23.174,18.981 -39.194,55.466 -24.045,74.213c42.701,52.843 131.875,-45.032 133.581,-43.389c1.387,1.336 -11.007,64.882 -10.906,98.885c0.093,31.085 15.075,68.769 55.109,52.595c49.16,-19.861 36.827,-126.114 36.911,-125.925c7.315,16.551 21.121,30.688 33.616,43.407c17.277,17.585 93.749,79.324 111.36,30.877c14.845,-40.835 -60.704,-85.234 -85.445,-105.817c-0.951,-0.791 -16.512,-13.326 -15.791,-14.313c0.804,-1.1 138.381,49.565 150.781,-12.751c12.98,-65.231 -102.286,-63.768 -140.241,-56.494Z" style="fill:#fff;"/><path d="M440.361,1537.23c-10.828,-9.024 -23.644,-18.426 -37.023,-25.387c-24.401,-12.696 -50.533,-16.878 -72.299,-4.079c-8.432,4.959 -13.77,11.2 -16.935,18.038c-4.497,9.715 -4.657,21.123 -0.593,33.323c8.496,25.5 38.448,56.243 60.411,74.63c-14.692,5.336 -31.494,13.125 -44.689,23.932c-16.737,13.708 -30.232,35.09 -34.525,54.806c-3.551,16.309 -0.974,31.576 8.077,42.776c20.518,25.392 48.772,26.34 77.027,15.171c16.694,-6.599 33.309,-17.714 47.086,-28.369c-2.652,20.118 -5.186,43.35 -5.141,58.268c0.047,15.821 3.513,32.998 10.838,46.212c5.937,10.709 14.346,18.974 25.036,23.387c11.083,4.576 25.024,5.317 42.144,-1.6c22.406,-9.052 35.953,-31.388 42.545,-57.401c2.795,-11.025 4.388,-22.639 5.23,-33.633l4.62,4.743c11.347,11.549 46.144,40.305 76.23,50.16c15.79,5.173 30.613,5.199 42.134,-0.708c8.628,-4.425 16.003,-12.054 20.549,-24.561c7.884,-21.688 -1.212,-44.841 -19.736,-65.717c-8.537,-9.62 -19.03,-18.834 -29.545,-27.237c11.404,1.573 23.015,2.464 33.886,2.097c33.324,-1.128 59.596,-14.185 65.622,-44.465c2.922,-14.685 0.906,-26.933 -4.226,-37.164c-7.194,-14.344 -21.108,-25.001 -39.012,-31.824c-20.182,-7.691 -45.73,-10.518 -68.777,-10.72c15.466,-20.016 32.267,-46.365 42.48,-70.834c7.551,-18.088 11.395,-35.346 10.047,-48.886c-1.851,-18.593 -11.539,-32.238 -32.555,-37.259c-29.812,-7.123 -56.699,11.792 -78.132,41.203c-8.163,11.202 -15.637,23.784 -22.434,36.014c0.187,-19.494 -0.864,-48.218 -7.888,-70.028c-8.569,-26.609 -25.573,-43.48 -52.142,-39.755c-23.701,3.324 -38.187,21.021 -44.918,46.76c-6.757,25.836 -5.502,60.479 -3.392,88.107Zm140.315,58.474c1.906,-1.663 8.346,-7.396 13.06,-12.808c15.742,-18.072 36.017,-47.681 47.278,-74.661c4.239,-10.155 7.234,-19.837 7.703,-28.189c0.227,-4.034 0.233,-7.653 -1.93,-10.111c-1.179,-1.34 -3.004,-2.045 -5.266,-2.586c-9.518,-2.274 -17.896,2.012 -25.71,8.593c-10.889,9.172 -20.466,22.822 -29.129,37.062c-13.575,22.315 -24.802,46.195 -33.884,60.487c-5.864,9.228 -11.788,15.22 -16.499,17.814c-5.411,2.979 -10.608,2.778 -15.562,0.272c-1.84,-0.93 -7.841,-3.73 -9.009,-12.739c-0.032,-0.245 -0.213,-1.723 -0.057,-4.233c0.387,-6.244 2.9,-38.268 3.317,-48.315c0.559,-13.482 2.138,-48.986 -5.903,-73.953c-3.028,-9.404 -6.396,-18.28 -15.785,-16.963c-5.827,0.817 -9.655,4.547 -12.459,9.534c-4.47,7.95 -6.635,18.507 -7.826,29.94c-2.936,28.192 0.747,61.301 2.438,82.122c0.933,11.491 1.021,20.082 0.221,24.014c-0.951,4.667 -3.394,7.831 -6.398,10.064c-3.067,2.278 -7.462,4.282 -13.651,2.877c-0.64,-0.145 -5.106,-1.305 -10.273,-6.519c-6.937,-7.001 -30.786,-32.145 -57.4,-45.992c-13.585,-7.069 -27.898,-12.042 -40.016,-4.916c-4.699,2.763 -4.394,7.306 -2.8,12.091c2.343,7.032 7.07,14.479 12.736,21.871c15.848,20.676 39.252,40.384 50.683,47.867c1.375,0.782 12.631,7.204 14.494,8.794c8.621,7.358 6.129,16.039 5.059,18.891c-0.27,0.721 -2.879,8.667 -13.617,10.807c-6.514,1.298 -39.77,6.698 -64.137,26.656c-11.073,9.069 -20.235,23.066 -23.075,36.11c-1.208,5.546 -1.646,10.925 1.432,14.734c10.241,12.673 24.745,10.696 38.847,5.122c29.706,-11.742 58.72,-40.33 67.743,-48.291c6.057,-5.345 11.229,-6.249 12.397,-6.359c6.031,-0.565 10.203,1.73 13.193,4.609c1.046,1.008 5.907,5.907 5.073,15.609c-0.981,11.399 -10.964,65.092 -10.874,95.231c0.026,8.748 1.419,18.163 4.729,26.126c2.326,5.6 5.404,10.644 10.532,12.761c4.473,1.847 10.028,1.097 16.937,-1.695c13.003,-5.253 18.895,-19.588 22.721,-34.684c7.248,-28.6 4.935,-61.799 4.103,-71.406c-1.88,-21.707 31.481,-11.333 31.575,-11.119c6.521,14.754 19.123,27.126 30.261,38.463c9.386,9.554 37.941,33.691 62.829,41.844c8.882,2.91 17.564,4.413 20.979,-4.98c1.574,-4.33 0.937,-8.723 -0.725,-13.088c-2.482,-6.524 -7.089,-12.887 -12.617,-19.116c-20.339,-22.922 -52.671,-43.103 -67.099,-55.106c-1.026,-0.854 -15.971,-13.404 -18.373,-16.709c-6.784,-9.334 -2.414,-17.241 -0.217,-20.248c1.023,-1.4 6.176,-8.802 17.344,-6.438c2.421,0.512 14.455,4.483 30.815,8.658c22.81,5.821 54.976,12.486 78.813,7.884c10.214,-1.972 18.876,-6.004 20.92,-16.277c3.337,-16.768 -7.832,-25.777 -22.415,-31.334c-31.157,-11.873 -77.495,-9.533 -98.342,-5.538l-0.005,-0.09c-1.689,0.339 -3.145,0.428 -4.3,0.347c-8.351,-0.587 -14.971,-7.277 -15.469,-15.633c-0.48,-8.044 4.856,-15.23 12.59,-17.158Z" style="fill:#7e4021;"/><path d="M530.25,1710.17c-77.415,42.1 -141.451,-74.55 -62.703,-116.141c82.333,-43.485 139.609,74.318 62.703,116.141Z" style="fill:#ffce7b;"/><path d="M538.212,1724.82c67.144,-36.514 51.999,-119.467 1.817,-147.347c-21.491,-11.94 -49.482,-14.432 -80.266,1.826c-98.635,52.096 -18.516,198.253 78.449,145.521Zm-15.925,-29.283c-57.864,31.467 -105.817,-55.675 -46.956,-86.763c18.618,-9.833 35.512,-9.384 48.509,-2.163c30.288,16.827 38.973,66.887 -1.553,88.926Z" style="fill:#7e4021;"/><path d="M416.195,1075.55c-1.648,6.064 0.222,12.811 5.341,17.124c5.15,4.34 9.786,4.331 12.655,4.076c3.98,-0.353 7.366,-1.92 10.196,-4.642c1.842,-1.772 3.672,-4.271 4.641,-7.878c0.287,-1.07 0.226,-5.541 0.157,-8.192c1.874,-5.981 3.956,-11.897 6.244,-17.73c8.177,-20.857 17.427,-41.187 27.172,-61.35c29.32,-60.657 65.183,-118.885 114.211,-165.631c6.657,-6.347 6.909,-16.906 0.561,-23.563c-6.348,-6.658 -16.906,-6.909 -23.563,-0.562c-51.927,49.51 -90.167,111.005 -121.22,175.25c-10.116,20.93 -19.706,42.038 -28.195,63.688c-2.864,7.305 -5.442,14.724 -7.731,22.229c-0.425,1.393 -0.499,4.488 -0.469,7.181Zm22.76,-10.889c1.435,0.623 2.802,1.463 4.059,2.522c-1.414,-1.191 -2.783,-1.987 -4.059,-2.522Z" style="fill:#7e4021;"/><path d="M445.353,1388.48c-1.189,-0.88 -1.809,-2.837 -2.836,-4.968c-2.144,-4.447 -4.093,-9.918 -5.93,-15.799c-6.37,-20.4 -11.258,-45.199 -15.078,-56.078c-35.344,-100.656 -72.38,-199.868 -122.509,-294.333c-4.312,-8.125 -14.41,-11.221 -22.535,-6.909c-8.126,4.312 -11.222,14.409 -6.91,22.534c49.344,92.984 85.714,190.674 120.503,289.752c4.434,12.626 10.294,44.109 18.29,65.49c4.827,12.906 11.138,22.634 17.167,27.099c7.393,5.474 17.839,3.917 23.313,-3.475c5.474,-7.392 3.917,-17.838 -3.475,-23.313Z" style="fill:#7e4021;"/></g></svg>