<?xml version="1.0" encoding="UTF-8" standalone="no"?><!DOCTYPE svg PUBLIC "-//W3C//DTD SVG 1.1//EN" "http://www.w3.org/Graphics/SVG/1.1/DTD/svg11.dtd"><svg width="100%" height="100%" viewBox="0 0 3573 1231" version="1.1" xmlns="http://www.w3.org/2000/svg" xmlns:xlink="http://www.w3.org/1999/xlink" xml:space="preserve" xmlns:serif="http://www.serif.com/" style="fill-rule:evenodd;clip-rule:evenodd;stroke-linejoin:round;stroke-miterlimit:2;"><g id="Rainbow-cream" serif:id="Rainbow cream"><path d="M3555.77,685.698c-418.858,-636.225 -1205.21,-481.063 -2018.7,-292.067c-233.093,54.153 -469.009,135.373 -712.946,166.417c-569.463,72.473 -805.313,-127.534 -806.622,-118.955c-8.057,52.775 91.472,166.364 125.14,200.729c486.216,496.286 1262.26,682.064 1898.38,508.616c541.719,-147.71 892.977,-526.124 1514.75,-464.74Z" style="fill:#facad0;"/><path d="M3554.14,702.284c6.394,0.631 12.581,-2.468 15.903,-7.967c3.322,-5.499 3.188,-12.418 -0.345,-17.784c-212.671,-323.037 -518.411,-445.595 -874.472,-462.973c-352.011,-17.18 -753.577,68.967 -1161.92,163.836c-232.554,54.029 -467.905,135.146 -711.278,166.119c-505.782,64.368 -744.97,-88.504 -788.675,-113.664c-8.462,-4.87 -14.302,-5.753 -16.148,-5.68c-5.432,0.217 -9.068,2.536 -11.634,5.206c-2.275,2.366 -3.949,5.351 -4.537,9.201c-2.821,18.48 4.567,43.651 18.884,70.494c29.384,55.096 86.63,119.715 110.827,144.414c490.392,500.547 1273.09,687.969 1914.67,513.031c271.76,-74.1 495.807,-205.927 729.834,-311.671c230.748,-104.263 471.345,-182.924 778.896,-152.562Zm-3515.08,-230.609c80.164,45.123 325.354,163.68 787.177,104.906c244.5,-31.116 480.982,-112.437 714.614,-166.716c405.145,-94.126 803.5,-180.057 1152.75,-163.011c334.419,16.321 623.473,127.549 828.667,419.225l-0,0c-297.55,-21.948 -533.858,55.869 -760.751,158.391c-232.476,105.043 -454.918,236.279 -724.877,309.888c-630.651,171.959 -1400.05,-12.176 -1882.09,-504.2c-22.939,-23.413 -77.371,-84.543 -105.226,-136.772c-4.03,-7.556 -7.582,-14.844 -10.271,-21.711Z" style="fill:#7e4021;"/><path d="M3555.77,685.698c-736.189,-398.871 -1701.07,93.267 -2333.22,150.891c-745.091,67.921 -1203.74,-404.075 -1205.05,-395.496c-8.057,52.775 91.472,166.364 125.14,200.729c486.216,496.286 1262.26,682.064 1898.38,508.616c541.719,-147.71 892.977,-526.124 1514.75,-464.74Z" style="fill:#e5bdff;"/><path d="M3554.14,702.284c7.896,0.78 15.247,-4.115 17.572,-11.701c2.326,-7.586 -1.019,-15.759 -7.995,-19.539c-371.512,-201.287 -800.664,-178.57 -1216.76,-97.445c-411.66,80.261 -810.308,217.622 -1125.92,246.393c-663.67,60.498 -1097.69,-311.9 -1178.81,-380.78c-7.381,-6.268 -12.25,-10.256 -14.421,-11.677c-3.953,-2.587 -7.114,-3.02 -8.654,-3.157c-4.607,-0.41 -8.054,0.948 -10.648,2.624c-3.775,2.441 -6.642,6.066 -7.483,11.576c-2.821,18.48 4.567,43.651 18.884,70.494c29.384,55.096 86.63,119.715 110.827,144.414c490.392,500.547 1273.09,687.969 1914.67,513.031c271.76,-74.1 495.807,-205.927 729.834,-311.671c230.748,-104.263 471.345,-182.924 778.896,-152.562Zm-3509.04,-217.12c125.691,103.941 551.947,425.181 1178.97,368.023c316.536,-28.854 716.405,-166.374 1129.27,-246.871c380.879,-74.259 773.019,-100.067 1119.93,57.018l-0.001,-0c-274.761,-10.487 -497.456,64.306 -711.754,161.136c-232.476,105.043 -454.918,236.279 -724.877,309.888c-630.651,171.959 -1400.05,-12.176 -1882.09,-504.2c-22.939,-23.413 -77.371,-84.543 -105.226,-136.772c-1.482,-2.778 -2.899,-5.52 -4.227,-8.222Z" style="fill:#7e4021;"/><path d="M3555.77,685.698c-681.169,-299.303 -1611.14,564.474 -2587.47,312.535c-611.57,-157.815 -950.276,-560.591 -950.802,-557.14c-8.057,52.775 91.472,166.364 125.14,200.729c486.216,496.286 1262.26,682.064 1898.38,508.616c541.719,-147.71 892.977,-526.124 1514.75,-464.74Z" style="fill:#e4faff;"/><path d="M3554.14,702.284c8.154,0.805 15.684,-4.436 17.76,-12.363c2.077,-7.926 -1.916,-16.186 -9.418,-19.482c-173.25,-76.125 -362.289,-78.721 -563.963,-43.16c-198.977,35.085 -410.408,107.322 -631.077,181.119c-436.754,146.06 -910.054,298.828 -1394.97,173.697c-545.753,-140.83 -872.384,-478.351 -932.628,-541.962c-7.79,-8.225 -12.471,-12.575 -13.312,-13.107c-7.072,-4.474 -12.711,-2.422 -15.192,-1.432c-5.202,2.076 -9.239,5.957 -10.311,12.984c-2.821,18.48 4.567,43.651 18.884,70.494c29.384,55.096 86.63,119.715 110.827,144.414c490.392,500.547 1273.09,687.969 1914.67,513.031c271.76,-74.1 495.807,-205.927 729.834,-311.671c230.748,-104.263 471.345,-182.924 778.896,-152.562Zm-3499.64,-199.623c114.935,113.08 428.567,387.567 909.65,511.71c491.412,126.808 971.261,-26.343 1413.87,-174.361c219.012,-73.242 428.813,-145.083 626.295,-179.904c151.853,-26.776 296.329,-31.662 431.923,2.322l-0.003,-0.001c-257.887,-2.754 -470.126,69.602 -674.71,162.043c-232.476,105.043 -454.918,236.279 -724.877,309.888c-630.651,171.959 -1400.05,-12.176 -1882.09,-504.2c-21.592,-22.039 -71.09,-77.496 -100.058,-127.497Z" style="fill:#7e4021;"/><path d="M3555.77,685.698c-418.858,-636.225 -1205.21,-481.063 -2018.7,-292.067c-233.093,54.153 -469.009,135.373 -712.946,166.417c-569.463,72.473 -805.313,-127.534 -806.622,-118.955c-3.652,23.922 347.532,328.146 1056.46,234.522c458.19,-60.51 1010.14,-274.07 1475.09,-279.933c644.237,-8.124 854.563,194.123 1006.72,290.016Z" style="fill:#fabea8;"/><path d="M3546.89,699.798c6.639,4.184 15.296,3.17 20.788,-2.433c5.493,-5.603 6.334,-14.278 2.019,-20.832c-212.671,-323.037 -518.411,-445.595 -874.472,-462.973c-352.011,-17.18 -753.577,68.967 -1161.92,163.836c-232.554,54.029 -467.905,135.146 -711.278,166.119c-505.782,64.368 -744.97,-88.504 -788.675,-113.664c-8.462,-4.87 -14.302,-5.753 -16.148,-5.68c-5.432,0.217 -9.068,2.536 -11.634,5.206c-2.275,2.366 -3.949,5.351 -4.537,9.201c-0.503,3.294 -0.29,8.45 3.116,14.682c4.439,8.121 18.632,23.952 43.465,43.495c112.101,88.221 454.315,271.217 1028.54,195.383c457.591,-60.43 1008.78,-273.935 1473.12,-279.791c638.425,-8.051 846.839,192.423 997.622,287.451Zm-58.382,-79.139c-152.778,-103.411 -389.315,-248.583 -939.661,-241.642c-465.551,5.87 -1018.27,219.486 -1477.06,280.075c-466.59,61.619 -776.389,-50.563 -930.04,-139.492c126.393,48.46 347.906,99.816 684.485,56.981c244.5,-31.116 480.982,-112.437 714.614,-166.716c405.145,-94.126 803.5,-180.057 1152.75,-163.011c316.469,15.445 592.314,115.882 794.907,373.805Z" style="fill:#7e4021;"/><path d="M3555.77,685.698c-418.858,-636.225 -1205.21,-481.063 -2018.7,-292.067c-233.093,54.153 -469.009,135.373 -712.946,166.417c-569.463,72.473 -814.772,-121.94 -806.622,-118.955c151.067,55.331 547.199,92.64 991.243,-31.805c509.935,-142.91 1011.15,-385.213 1476.08,-391.655c745.882,-10.334 1056.54,570.344 1070.94,668.065Z" style="fill:#fee4a8;"/><path d="M3541.85,694.863c4.298,6.528 12.555,9.193 19.859,6.408c7.303,-2.785 11.69,-10.271 10.55,-18.004c-4.477,-30.375 -35.947,-106.108 -99.563,-196.511c-145.318,-206.504 -458.498,-493.125 -988.1,-485.788c-466.239,6.46 -968.985,248.961 -1480.35,392.272c-439.471,123.163 -831.501,86.964 -981.013,32.203c-5.08,-1.86 -8.749,-0.923 -10.665,-0.352c-4.866,1.451 -7.954,4.425 -9.921,8.064c-1.677,3.103 -3.119,7.566 -1.083,13.438c0.291,0.839 2.931,6.331 11.283,12.482c39.516,29.103 293.071,183.724 813.38,117.506c244.5,-31.116 480.982,-112.437 714.614,-166.716c405.145,-94.126 803.5,-180.057 1152.75,-163.011c345.203,16.848 642.069,134.821 848.255,448.009Zm-3395.42,-205.311c196.485,32.052 516.932,33.838 866.807,-64.215c508.505,-142.51 1008.19,-384.615 1471.82,-391.039c514.633,-7.13 819.167,270.973 960.378,471.642c12.49,17.748 23.702,34.862 33.659,51.083l-0.001,-0.002c-205.085,-234.541 -475.623,-328.416 -783.875,-343.461c-352.011,-17.18 -753.577,68.967 -1161.92,163.836c-232.554,54.029 -467.905,135.146 -711.278,166.119c-332.564,42.324 -552.953,-7.182 -675.585,-53.963Z" style="fill:#7e4021;"/></g></svg>