<?xml version="1.0" encoding="UTF-8" standalone="no"?><!DOCTYPE svg PUBLIC "-//W3C//DTD SVG 1.1//EN" "http://www.w3.org/Graphics/SVG/1.1/DTD/svg11.dtd"><svg width="100%" height="100%" viewBox="0 0 3713 2262" version="1.1" xmlns="http://www.w3.org/2000/svg" xmlns:xlink="http://www.w3.org/1999/xlink" xml:space="preserve" xmlns:serif="http://www.serif.com/" style="fill-rule:evenodd;clip-rule:evenodd;stroke-linejoin:round;stroke-miterlimit:2;"><g id="Rolling-pin" serif:id="Rolling pin"><path d="M679.211,1336.52c60.53,-36.524 535.826,-279.973 696.428,-364.053c290.82,-152.253 573.447,-317.789 869.603,-459.991c259.739,-124.716 614.007,-425.003 841.244,-51.084c62.629,103.055 81.656,315.956 -39.623,397.561c-101.943,68.595 -939.299,582.209 -1333.26,812.699c-179.439,104.983 -492.697,323.09 -689.838,358.051c-181.734,32.228 -402.832,-138.065 -441.57,-343.68c-27.375,-145.3 -10.884,-284.397 97.013,-349.503Z" style="fill:#fcd2b8;"/><path d="M670.601,1322.25c-113.493,68.483 -133.576,214.023 -104.781,366.859c24.119,128.023 116.132,243.023 226.805,307.178c74.668,43.283 157.711,63.365 234.053,49.826c198.618,-35.223 514.562,-254.307 695.344,-360.075c394.223,-230.645 1232.13,-744.616 1334.14,-813.257c52.316,-35.201 80.945,-92.754 91.516,-156.621c15.37,-92.857 -7.676,-198.792 -46.954,-263.424c-59.402,-97.747 -127.493,-150.991 -199.879,-174.499c-72.355,-23.498 -149.401,-17.235 -227.497,5.719c-150.271,44.165 -304.733,150.79 -435.325,213.495c-296.33,142.285 -579.128,307.908 -870.119,460.25c-160.809,84.188 -636.701,327.978 -697.308,364.549l-0,0Zm17.221,28.54c60.452,-36.477 535.152,-279.586 695.548,-363.558c290.649,-152.163 573.104,-317.613 869.086,-459.732c129.147,-62.011 281.688,-167.887 430.296,-211.564c71.343,-20.968 141.704,-27.461 207.802,-5.996c66.067,21.456 127.473,70.895 181.69,160.107c35.876,59.035 56.592,155.855 42.553,240.67c-9.034,54.58 -32.53,104.326 -77.238,134.409c-101.875,68.548 -938.676,581.805 -1332.37,812.141c-178.094,104.196 -488.666,321.326 -684.331,356.025c-69.046,12.245 -143.985,-6.697 -211.517,-45.844c-102.626,-59.49 -188.398,-165.796 -210.764,-284.51c-25.957,-137.774 -13.063,-270.414 89.245,-332.148l-0,0Z" style="fill:#7e4021;"/><path d="M2834.36,382.459c54.197,23.843 101.045,50.041 136.965,99.023c5.439,7.418 15.878,9.023 23.296,3.584c7.418,-5.44 9.023,-15.879 3.584,-23.296c-39.583,-53.977 -90.699,-83.548 -150.422,-109.822c-8.42,-3.704 -18.263,0.125 -21.967,8.544c-3.704,8.42 0.124,18.263 8.544,21.967Z" style="fill:#7e4021;"/><path d="M3002.15,542.473c1.851,5.423 14.419,42.316 18.53,55.678c2.706,8.792 12.04,13.733 20.832,11.028c8.791,-2.705 13.733,-12.039 11.028,-20.831c-4.809,-15.629 -17.177,-53.875 -20.542,-60.916c-6.794,-14.217 -20.566,-10.071 -22.964,-8.925c-8.299,3.965 -11.818,13.923 -7.852,22.223c0.29,0.608 0.612,1.19 0.968,1.743Zm7.114,6.212c5.37,2.659 10.195,1.784 14.141,-0.102c-4.641,2.218 -9.801,2.095 -14.141,0.102Z" style="fill:#7e4021;"/><path d="M2991.48,341.683c52.75,-32.126 111.166,-68.46 158.538,-108.832c134.771,-114.856 310.027,-334.119 487.677,-136.656c24.62,27.365 45.748,59.811 53.549,96.182c43.76,204.034 -271.619,284.956 -414.119,315.435c-76.004,16.257 -134.617,59.388 -144.843,57.073c-1.673,-0.379 -17.808,-61.964 -51.088,-118.029c-25.957,-43.728 -66.92,-80.625 -89.714,-105.173Z" style="fill:#e4ac87;"/><path d="M2982.82,327.449c-4.274,2.603 -7.153,6.989 -7.84,11.947c-0.686,4.957 0.891,9.961 4.296,13.628c22.212,23.921 62.301,59.728 87.595,102.339c29.288,49.338 44.882,103.098 48.924,113.617c3.856,10.036 11.411,11.842 12.816,12.16c3.817,0.865 11.73,0.256 22.31,-4.586c22.1,-10.114 70.433,-39.767 129.699,-52.444c87.212,-18.654 237.757,-56.225 334.718,-127.935c68.842,-50.915 111.226,-118.634 92.211,-207.293c-8.409,-39.207 -30.914,-74.335 -57.454,-103.835c-47.78,-53.107 -95.709,-77.667 -142.525,-83.495c-46.875,-5.835 -93.039,7.207 -137.668,31.167c-83.863,45.025 -162.49,129.328 -230.685,187.447c-46.722,39.818 -104.372,75.598 -156.397,107.283Zm159.322,215.267c-7.803,-22.514 -24.676,-67.422 -46.607,-104.367c-21.846,-36.802 -53.939,-68.986 -77.668,-93.26l0,0c48.564,-29.847 100.194,-63.097 142.971,-99.553c66.575,-56.737 142.961,-139.494 224.832,-183.448c38.238,-20.53 77.619,-32.458 117.782,-27.458c40.22,5.007 80.815,27.087 121.862,72.712c22.7,25.231 42.45,54.996 49.643,88.53c15.993,74.57 -21.538,130.679 -79.44,173.503c-93.153,68.894 -238.081,104.218 -321.869,122.139c-53.444,11.432 -109.075,39.212 -131.506,51.202Z" style="fill:#7e4021;"/><path d="M890.415,1798c-52.749,32.127 -280.106,190.702 -327.478,231.075c-134.771,114.856 -310.027,334.119 -487.677,136.656c-24.62,-27.365 -45.748,-59.812 -53.549,-96.182c-43.76,-204.034 271.619,-284.956 414.119,-315.435c76.004,-16.257 212.156,-73.929 282.471,-103.021c55.65,-23.026 129.405,-64.348 181.77,-9.73c38.412,40.065 55.929,116.693 -9.656,156.637Z" style="fill:#e4ac87;"/><path d="M899.085,1812.23c76.423,-46.546 57.777,-135.72 13.016,-182.407c-30.699,-32.02 -67.497,-36.543 -104.948,-29.06c-32.995,6.592 -66.48,23.031 -95.224,34.924c-69.609,28.801 -204.344,86.03 -279.585,102.124c-87.212,18.654 -237.757,56.225 -334.718,127.935c-68.842,50.915 -111.226,118.634 -92.211,207.293c8.409,39.207 30.914,74.335 57.454,103.834c47.779,53.108 95.709,77.668 142.525,83.496c46.875,5.835 93.039,-7.207 137.668,-31.167c83.863,-45.025 162.49,-129.329 230.685,-187.447c47.061,-40.106 272.936,-197.61 325.338,-229.525l-0,-0Zm-17.339,-28.469c-53.097,32.338 -281.935,191.985 -329.62,232.624c-66.575,56.737 -142.961,139.493 -224.832,183.448c-38.238,20.53 -77.619,32.458 -117.782,27.458c-40.22,-5.007 -80.815,-27.087 -121.862,-72.712c-22.7,-25.231 -42.45,-54.996 -49.643,-88.53c-15.993,-74.57 21.538,-130.679 79.44,-173.503c93.153,-68.895 238.081,-104.218 321.869,-122.139c76.767,-16.42 214.336,-74.534 285.356,-103.919c26.907,-11.133 58.125,-26.867 89.011,-33.038c26.432,-5.281 52.69,-3.157 74.357,19.442c32.07,33.449 48.46,97.521 -6.294,130.869l-0,-0Z" style="fill:#7e4021;"/><path d="M632.61,1401.84c40.714,-38.453 93.624,-46.856 147.201,-38.412c84.409,13.304 170.702,67.901 219.219,120.919c6.21,6.786 16.761,7.254 23.547,1.044c6.786,-6.21 7.254,-16.761 1.044,-23.547c-52.785,-57.682 -146.787,-116.869 -238.621,-131.343c-63.919,-10.074 -126.704,1.229 -175.278,47.106c-6.687,6.316 -6.989,16.873 -0.673,23.56c6.316,6.688 16.874,6.989 23.561,0.673Z" style="fill:#7e4021;"/><path d="M1115.07,1813.01c1.678,17.337 2.386,34.774 2.009,52.188c-1.135,52.373 -0.562,109.178 -66.366,141.344c-8.264,4.04 -11.694,14.029 -7.655,22.293c4.04,8.264 14.029,11.694 22.293,7.654c80.322,-39.262 83.669,-106.642 85.053,-170.569c0.406,-18.727 -0.352,-37.477 -2.155,-56.12c-0.886,-9.156 -9.039,-15.87 -18.195,-14.984c-9.156,0.886 -15.87,9.038 -14.984,18.194Z" style="fill:#7e4021;"/></g></svg>