<?xml version="1.0" encoding="UTF-8" standalone="no"?><!DOCTYPE svg PUBLIC "-//W3C//DTD SVG 1.1//EN" "http://www.w3.org/Graphics/SVG/1.1/DTD/svg11.dtd"><svg width="100%" height="100%" viewBox="0 0 1337 4617" version="1.1" xmlns="http://www.w3.org/2000/svg" xmlns:xlink="http://www.w3.org/1999/xlink" xml:space="preserve" xmlns:serif="http://www.serif.com/" style="fill-rule:evenodd;clip-rule:evenodd;stroke-linejoin:round;stroke-miterlimit:2;"><g id="Spatula"><path d="M697.078,2400.33c4.437,0.709 5.914,217.724 60.955,305.951c89.429,143.35 271.057,54.372 431.087,248.011c134.077,162.234 178.108,784.966 70.177,1049.91c-128.921,316.467 -534.151,635.473 -750.65,592.049c-239.512,-48.04 -272.611,-816.11 -267.841,-1333.4c2.777,-301.105 151.357,-361.976 158.831,-495.951c4.992,-89.476 -36.75,-279.723 -12.613,-325.985c53.365,-102.281 278.178,-106.754 310.054,-40.578Z" style="fill:#ffce7b;"/><path d="M711.811,2392.89l0.282,0.21c-6.499,-13.493 -18.898,-25.108 -36.084,-33.85c-22.004,-11.192 -52.385,-17.944 -85.78,-19.331c-48.735,-2.023 -103.915,7.269 -147.601,28.945c-30.857,15.311 -56.02,36.814 -70.38,64.337c-8.085,15.495 -10.609,45.351 -8.849,82.404c3.654,76.913 23.068,188.154 19.598,250.362c-2.84,50.9 -27.749,90.438 -56.035,138.165c-45.734,77.168 -101.116,173.603 -102.821,358.561c-3.356,363.867 12.285,851.178 104.314,1127.39c24.443,73.365 54.443,132.144 90.389,170.793c25.694,27.625 54.54,45.297 86.525,51.713c89.807,18.012 211.336,-22.779 332.908,-100.816c178.549,-114.609 357.914,-308.489 436.455,-501.287c65.559,-160.928 76.289,-452.216 44.622,-695.001c-21.356,-163.736 -62.464,-305.354 -117.387,-371.812c-82.936,-100.354 -171.293,-127.773 -250.679,-148.378c-72.254,-18.754 -136.931,-30.219 -179.114,-97.836c-18.886,-30.273 -30.812,-76.562 -38.979,-123.304c-12.771,-73.103 -15.883,-147.529 -18.25,-169.273c-0.593,-5.447 -1.925,-9.413 -3.134,-11.996Zm-30.242,13.711l0.239,1.892c4.065,37.346 11.355,225.296 62.085,306.613c38.289,61.376 91.933,83.632 154.007,100.707c84.317,23.192 185.303,36.483 278.373,149.099c52.338,63.33 89.677,198.858 110.028,354.888c30.894,236.862 21.52,521.113 -42.439,678.114c-76.164,186.962 -250.447,374.671 -423.591,485.812c-112.891,72.464 -224.953,112.911 -308.346,96.184c-32.239,-6.466 -59.939,-27.991 -84.354,-60.593c-26.304,-35.125 -48.518,-82.818 -67.492,-139.766c-91.138,-273.544 -105.93,-756.205 -102.607,-1116.55c1.627,-176.367 54.556,-268.289 98.166,-341.873c31.277,-52.774 57.5,-97.021 60.64,-153.303c3.518,-63.057 -15.879,-175.838 -19.583,-253.801c-1.393,-29.329 -1.294,-53.138 5.105,-65.403c11.256,-21.572 31.458,-37.896 55.644,-49.896c38.877,-19.29 88.032,-27.301 131.402,-25.5c28.009,1.163 53.596,6.35 72.05,15.737c9.375,4.769 16.811,10.418 20.673,17.64Zm5.029,6.683c1.966,1.599 4.295,2.741 6.821,3.308c-2.221,-0.478 -4.584,-1.434 -6.821,-3.308Z" style="fill:#7e4021;"/><path d="M1178.46,3014.07c-48.016,-50.342 -90.164,-95.04 -154.31,-126.381c-8.265,-4.038 -18.254,-0.606 -22.292,7.659c-4.038,8.265 -0.606,18.253 7.659,22.291c60.371,29.496 99.632,72.058 144.822,119.437c6.348,6.657 16.907,6.907 23.563,0.558c6.657,-6.349 6.906,-16.907 0.558,-23.564Z" style="fill:#7e4021;"/><path d="M957.019,2900.12c3.667,2.117 8.137,2.846 12.552,1.688c8.897,-2.334 14.226,-11.453 11.892,-20.35c-0.701,-2.676 -2.059,-5.283 -4.283,-7.564c-1.756,-1.801 -7.615,-4.617 -7.615,-4.617c-0,-0 0.85,0.31 1.116,0.423c-15.618,-6.619 -32.374,-11.057 -48.478,-16.324c-8.743,-2.859 -18.162,1.918 -21.022,10.66c-2.859,8.743 1.918,18.163 10.661,21.022c14.991,4.903 30.611,8.959 45.177,15.062Z" style="fill:#7e4021;"/><path d="M696.657,2396.55c-26.932,-33.325 -71.912,-51.521 -173.452,-35.862c-132.971,20.505 -142.294,96.528 -142.615,95.714c-9.893,-78.751 -49.822,-250.228 -60.324,-306.172c-73.491,-391.507 -543.429,-2065.59 -143.268,-2131.38c405.595,-66.685 462.655,2106.02 519.659,2377.7Zm-444.338,-1844.54c22.301,-3.78 27.176,-44.219 21.019,-82.753c-6.157,-38.535 -23.348,-75.164 -45.179,-71.322c-54.812,9.644 -19.735,161.514 24.16,154.075Z" style="fill:#ffe6d8;"/><path d="M683.694,2407.03c4.84,5.99 13.154,7.883 20.11,4.58c6.957,-3.302 10.745,-10.941 9.164,-18.478c-39.916,-190.246 -79.929,-1312.3 -239.468,-1945.53c-41.737,-165.656 -92.003,-298.233 -151.897,-373.549c-43.723,-54.98 -93.071,-80.57 -147.308,-71.652c-53.171,8.742 -92.949,42.531 -120.796,97.03c-38.629,75.598 -54.039,192.952 -52.582,334.985c5.546,540.313 251.439,1444.38 302.969,1718.89c10.467,55.763 50.307,226.678 60.167,305.174c0.174,1.389 0.523,2.749 1.037,4.051c3.243,8.201 9.393,9.945 13.572,10.433c4.094,0.478 10.381,0.216 15.449,-6.798c0.193,-0.267 1.909,-2.712 3.14,-7.694c2.627,-10.633 21.631,-64.832 128.494,-81.311c92.154,-14.212 133.507,-0.378 157.949,29.866Zm-294.252,-1.728c-15.372,-86.764 -44.107,-211.862 -52.795,-258.143c-51.358,-273.597 -296.871,-1174.57 -302.398,-1713.08c-1.389,-135.38 12.114,-247.419 48.932,-319.476c22.452,-43.94 53.652,-72.257 96.521,-79.306c43.111,-7.088 81.058,15.808 115.811,59.509c57.812,72.697 105.378,201.049 145.663,360.945c149.813,594.622 194.036,1620.58 231.923,1899.96l-0,-0c-31.344,-16.551 -77.763,-23.002 -152.434,-11.486c-71.441,11.017 -110.18,37.206 -131.223,61.082Zm-134.338,-1836.86c14.462,-2.451 25.675,-13.145 31.76,-30.614c6.356,-18.244 7.102,-45.102 2.932,-71.201c-4.173,-26.118 -13.248,-51.308 -24.835,-66.466c-11.273,-14.747 -25.295,-21.174 -39.69,-18.641c-16.744,2.946 -28.554,13.95 -35.305,30.591c-7.625,18.794 -8.215,46.046 -3.105,72.436c5.029,25.973 15.456,50.92 28.063,65.938c11.881,14.152 26.133,20.338 40.18,17.957l0,0Zm-5.57,-32.864c-1.21,0.205 -2.28,-0.487 -3.399,-1.216c-1.993,-1.299 -3.859,-3.139 -5.681,-5.309c-9.669,-11.517 -17.01,-30.923 -20.867,-50.843c-3.22,-16.628 -3.995,-33.718 -0.748,-47.178c1.991,-8.252 4.902,-15.397 12.208,-16.683c1.579,-0.278 2.723,1.06 4.059,2.288c2.587,2.376 4.905,5.626 7.089,9.406c6.925,11.986 11.95,28.729 14.685,45.843c2.736,17.123 3.187,34.667 0.31,48.352c-0.915,4.355 -2.137,8.251 -3.893,11.405c-1.025,1.84 -1.922,3.623 -3.763,3.935Z" style="fill:#7e4021;"/><path d="M519.659,1389.5c-0.128,1.477 -0.708,8.399 -0.495,10.025c0.466,3.552 1.796,6.051 2.938,7.7c3.615,5.219 8.477,7.304 13.972,7.265c2.697,-0.019 8.677,-0.143 13.976,-7.397c3.066,-4.197 3.88,-9.354 2.668,-14.024c0.17,-1.999 0.314,-4.173 0.247,-5.17c-0.393,-5.853 -0.984,-11.681 -1.603,-17.511c-1.4,-13.17 -2.784,-26.342 -4.168,-39.514c-0.557,-5.298 -1.113,-10.597 -1.669,-15.896c-5.777,-55.054 -12.267,-110.046 -20.351,-164.854c-1.342,-9.1 -9.82,-15.399 -18.92,-14.056c-9.1,1.342 -15.399,9.82 -14.056,18.92c8.016,54.347 14.448,108.877 20.175,163.469c0.556,5.3 1.113,10.601 1.67,15.901c1.386,13.185 2.771,26.369 4.172,39.552c0.551,5.191 1.084,10.38 1.444,15.59Zm4.155,-2.945l-0.105,0.135l0.456,-0.534l-0.351,0.399Zm2.803,-2.649c-0.791,0.568 -1.599,1.28 -2.391,2.18c0.735,-0.815 1.536,-1.542 2.391,-2.18Z" style="fill:#7e4021;"/><path d="M488.081,1088.18c-0.154,4.709 1.68,9.451 5.434,12.866c6.804,6.191 17.353,5.693 23.544,-1.111c0.647,-0.711 5.204,-6.021 4.101,-15.943c-1.76,-15.837 -14.783,-90.74 -15.895,-97.055c-1.595,-9.06 -10.245,-15.12 -19.304,-13.525c-9.059,1.595 -15.119,10.245 -13.524,19.305c1.088,6.179 13.871,79.462 15.594,94.958l0.05,0.505Z" style="fill:#7e4021;"/></g></svg>