<?xml version="1.0" encoding="UTF-8" standalone="no"?><!DOCTYPE svg PUBLIC "-//W3C//DTD SVG 1.1//EN" "http://www.w3.org/Graphics/SVG/1.1/DTD/svg11.dtd"><svg width="100%" height="100%" viewBox="0 0 839 1697" version="1.1" xmlns="http://www.w3.org/2000/svg" xmlns:xlink="http://www.w3.org/1999/xlink" xml:space="preserve" xmlns:serif="http://www.serif.com/" style="fill-rule:evenodd;clip-rule:evenodd;stroke-linejoin:round;stroke-miterlimit:2;"><g id="Steam"><path d="M321.811,1660.5l0.066,-0.127c21.54,-41.646 32.979,-89.563 34.578,-136.241c2.881,-84.145 -31.659,-144.766 -70.432,-203.451c-35.656,-53.967 -75.191,-106.085 -85.95,-177.092c-13.321,-87.918 11.047,-167.968 36.508,-247.636c26.89,-84.143 55.009,-167.89 47.62,-258.835c-9.69,-119.263 -66.162,-175.039 -123.657,-187.258c-88.756,-18.862 -188.263,64.965 -151.88,197.501c2.435,8.871 11.613,14.095 20.484,11.66c8.87,-2.435 14.095,-11.613 11.66,-20.484c-28.121,-102.44 44.205,-170.651 112.807,-156.072c47.409,10.076 89.372,59.01 97.362,157.352c7.027,86.487 -20.575,165.97 -46.148,245.988c-27.002,84.493 -51.84,169.536 -37.713,262.777c11.54,76.161 52.852,132.59 91.096,190.474c35.128,53.168 67.54,107.7 64.929,183.935c-1.432,41.814 -11.577,84.763 -30.871,122.069c-1.216,2.351 -3.594,7.85 -3.926,9.991c-0.405,2.6 -0.179,4.777 0.189,6.447c1.351,6.124 5.021,9.777 9.685,11.825c2.97,1.305 7.916,2.92 14.624,-0.46c4.999,-2.518 8.181,-7.218 8.969,-12.363Zm-18.156,-19.101c-1.497,0.119 -3.181,0.498 -5.03,1.327c1.635,-0.722 3.331,-1.159 5.03,-1.327Z" style="fill:#7e4021;"/><path d="M466.725,1245c-8.508,-1.85 -15.187,-8.935 -21.251,-16.586c-8.092,-10.211 -14.634,-22.103 -20.015,-31.148c-59.097,-99.338 -42.19,-189.725 -10.496,-279.229c33.855,-95.61 83.869,-190.463 87.402,-292.944c4.008,-116.214 -54.962,-218.569 -96.796,-323.154c-39.54,-98.849 -25.364,-226.534 90.483,-261.89c54.143,-16.524 128.465,-2.465 152.227,54.395c13.126,31.408 9.539,66.045 -7.354,95.293c-16.935,29.32 -36.567,44.589 -56.476,49.665c-28.628,7.301 -56.571,-6.498 -72.854,-24.124c-5.823,-6.303 -10.182,-13.089 -12.115,-19.687c-1.119,-3.823 -1.599,-7.512 0.241,-10.477c1.797,-2.896 5.331,-4.663 10.154,-6.041c8.845,-2.527 13.974,-11.759 11.447,-20.604c-2.527,-8.845 -11.76,-13.974 -20.604,-11.447c-18.681,5.338 -28.73,16.076 -33.066,28.317c-4.136,11.674 -2.94,25.655 3.683,39.651c14.987,31.67 59.328,64.129 107.313,59.208c31.111,-3.19 64.435,-21.551 91.142,-67.789c22.122,-38.301 26.434,-83.688 9.245,-124.818c-30.314,-72.538 -123.641,-94.504 -192.713,-73.423c-136.256,41.584 -158.207,189.887 -111.702,306.151c40.143,100.358 98.277,198.108 94.432,309.625c-3.417,99.095 -52.774,190.516 -85.511,282.966c-34.898,98.557 -51.803,198.015 13.271,307.398c7.352,12.359 16.835,29.233 28.722,42.042c9.816,10.577 21.3,18.437 34.109,21.222c8.989,1.954 17.873,-3.757 19.827,-12.745c1.954,-8.989 -3.757,-17.873 -12.745,-19.827Z" style="fill:#7e4021;"/><path d="M683.876,1676.05c0.395,-2.812 3.678,-25.734 8.44,-48.258c14.98,-70.86 41.025,-187.677 28.577,-241.297c-23.188,-99.889 -74.686,-177.866 -110.324,-258.576c-33.626,-76.151 -52.318,-154.963 -13.451,-259.903c3.195,-8.625 -1.215,-18.222 -9.841,-21.417c-8.626,-3.195 -18.223,1.214 -21.417,9.84c-42.608,115.04 -22.646,201.464 14.216,284.945c34.849,78.922 85.673,154.973 108.347,252.648c11.715,50.463 -14.622,160.178 -28.72,226.866c-4.536,21.456 -7.926,38.759 -8.879,48.918c-0.758,8.079 0.284,13.673 1.429,16.456c3.501,8.506 13.25,12.57 21.756,9.069c7.694,-3.167 11.753,-11.445 9.867,-19.291Z" style="fill:#7e4021;"/><path d="M617.618,762.794c17.938,-17.106 28.118,-49.32 31.364,-85.612c4.459,-49.861 -2.959,-107.196 -11.754,-135.18c-2.758,-8.775 -12.122,-13.661 -20.897,-10.903c-8.775,2.758 -13.661,12.122 -10.903,20.897c7.95,25.296 14.384,77.146 10.353,122.217c-2.415,27.005 -7.819,51.729 -21.167,64.458c-6.657,6.348 -6.908,16.906 -0.56,23.563c6.348,6.657 16.907,6.908 23.564,0.56Z" style="fill:#7e4021;"/><path d="M88.809,1010.33c4.524,-5.466 5.202,-13.451 1.134,-19.711c-3.986,-6.133 -9.293,-7.804 -14.346,-7.781c-3.586,0.016 -9.09,0.954 -13.681,6.899c-1.204,1.56 -3.182,5.118 -4.932,10.166c-3.945,11.381 -9.492,34.502 -10.006,37.413c-11.433,64.794 -5.348,131.145 10.028,194.844c2.158,8.942 11.17,14.449 20.112,12.291c8.941,-2.158 14.449,-11.17 12.29,-20.112c-14.302,-59.253 -20.239,-120.959 -9.604,-181.23c0.416,-2.358 7.162,-26.268 9.005,-32.779Zm-26.265,-0.755c2.406,3.356 5.274,5.132 8.241,5.96c-3.209,-1.045 -6.119,-3.066 -8.241,-5.96Z" style="fill:#7e4021;"/><path d="M745.736,993.008c-12.687,-11.503 -17.154,-28.529 -17.359,-48.458c-0.243,-23.587 5.651,-50.918 14.5,-79.627c28.523,-92.537 86.89,-198.25 93.419,-246.491c11.102,-82.033 -14.272,-155.833 -52.381,-226.855c-4.35,-8.105 -14.461,-11.154 -22.567,-6.805c-8.105,4.349 -11.155,14.461 -6.805,22.566c34.748,64.758 58.844,131.825 48.721,206.624c-6.395,47.249 -64.304,150.507 -92.241,241.143c-12.079,39.188 -18.654,76.223 -14.91,106.228c2.863,22.946 11.557,42.156 27.233,56.369c6.814,6.179 17.363,5.663 23.542,-1.152c6.178,-6.814 5.662,-17.363 -1.152,-23.542Z" style="fill:#7e4021;"/></g></svg>