<?xml version="1.0" encoding="UTF-8" standalone="no"?><!DOCTYPE svg PUBLIC "-//W3C//DTD SVG 1.1//EN" "http://www.w3.org/Graphics/SVG/1.1/DTD/svg11.dtd"><svg width="100%" height="100%" viewBox="0 0 2008 5279" version="1.1" xmlns="http://www.w3.org/2000/svg" xmlns:xlink="http://www.w3.org/1999/xlink" xml:space="preserve" xmlns:serif="http://www.serif.com/" style="fill-rule:evenodd;clip-rule:evenodd;stroke-linejoin:round;stroke-miterlimit:2;"><g id="Wheat-02"><path d="M1703.3,940.306c41.168,21.029 53.317,148.671 50.828,192.778c-5.178,91.754 -5.531,185.272 -41.795,271.346c-78.066,185.293 -189.961,79.48 -186.631,-72.859c2.241,-102.511 28.635,-218.199 79.807,-307.755c20.293,-35.516 59.696,-102.97 97.791,-83.51Z" style="fill:#ffeeda;"/><path d="M1710.88,925.464c-21.339,-10.901 -43.43,-4.394 -63.525,13.001c-22.866,19.794 -43.384,54.445 -56.319,77.082c-52.492,91.866 -79.7,210.504 -81.998,315.66c-1.288,58.887 13.892,111.189 37.207,144.875c17.651,25.503 40.196,40.723 63.983,43.199c20.334,2.116 42.245,-4.703 63.669,-24.375c18.438,-16.93 36.985,-44.11 53.793,-84.005c37.012,-87.85 37.791,-183.232 43.076,-276.878c1.82,-32.255 -3.908,-107.266 -22.228,-156.909c-9.263,-25.102 -22.435,-43.874 -37.658,-51.65Zm-15.163,29.685c5.687,2.905 10.071,9.191 14.234,16.937c5.487,10.208 9.949,22.94 13.637,36.757c11.657,43.685 15.33,97.915 13.897,123.302c-5.071,89.862 -4.997,181.515 -40.513,265.814c-14.418,34.223 -29.804,57.871 -45.62,72.395c-12.834,11.785 -25.492,17.041 -37.673,15.773c-15.233,-1.586 -28.722,-12.685 -40.026,-29.016c-20.112,-29.057 -32.401,-74.379 -31.29,-125.176c2.183,-99.867 27.763,-212.605 77.615,-299.851c11.417,-19.982 29.009,-50.944 49.193,-68.416c8.64,-7.48 17.371,-13.206 26.546,-8.519Z" style="fill:#7e4021;"/><path d="M1416.13,1131.5c45.885,5.616 101.121,121.327 113.928,163.607c26.64,87.954 58.418,175.908 53.912,269.201c-9.699,200.832 -151.123,139.87 -200.301,-4.351c-33.092,-97.049 -48.025,-214.766 -30.712,-316.448c6.865,-40.324 20.712,-117.206 63.173,-112.009Z" style="fill:#ffeeda;"/><path d="M1418.15,1114.95c-23.785,-2.911 -42.299,10.785 -55.2,34.022c-14.679,26.442 -22.053,66.031 -26.429,91.733c-17.759,104.305 -2.578,225.072 31.368,324.624c19.01,55.75 51.225,99.661 84.688,123.293c25.335,17.892 51.735,24.447 74.927,18.604c19.824,-4.994 38.062,-18.921 51.429,-44.753c11.504,-22.232 19.591,-54.127 21.68,-97.368c4.598,-95.218 -27.419,-185.068 -54.609,-274.836c-9.366,-30.92 -40.5,-99.403 -74.751,-139.739c-17.319,-20.396 -36.135,-33.503 -53.103,-35.58l-0,-0Zm-4.049,33.086c6.339,0.776 12.614,5.175 19.184,11.021c8.658,7.704 17.221,18.129 25.428,29.84c25.948,37.026 48.018,86.699 55.389,111.035c26.091,86.139 57.629,172.196 53.216,263.565c-1.791,37.092 -8.122,64.586 -17.99,83.657c-8.008,15.475 -18.091,24.757 -29.967,27.749c-14.851,3.741 -31.332,-2.052 -47.555,-13.509c-28.866,-20.386 -55.969,-58.732 -72.367,-106.823c-32.239,-94.545 -46.923,-209.212 -30.057,-308.271c3.863,-22.687 9.754,-57.808 22.712,-81.148c5.546,-9.991 11.78,-18.367 22.006,-17.116l0.001,0Z" style="fill:#7e4021;"/><path d="M1876.22,1251.9c33.346,32.017 8.136,157.733 -6.977,199.244c-31.441,86.354 -58.77,175.791 -118.335,247.735c-128.224,154.875 -204.816,21.268 -157.658,-123.626c31.733,-97.502 90.394,-200.648 165.237,-271.623c29.681,-28.146 86.875,-81.357 117.733,-51.73Z" style="fill:#ffeeda;"/><path d="M1887.77,1239.88c-17.285,-16.596 -40.313,-16.742 -64.574,-5.887c-27.606,12.351 -57.252,39.605 -76.17,57.546c-76.774,72.806 -137.066,178.541 -169.618,278.558c-18.229,56.01 -18.791,110.467 -6.191,149.449c9.539,29.512 26.731,50.592 48.792,59.828c18.858,7.895 41.804,7.69 67.994,-4.961c22.54,-10.888 48.143,-31.558 75.75,-64.903c60.793,-73.429 89.069,-164.527 121.158,-252.662c11.052,-30.357 27.218,-103.829 24.007,-156.647c-1.624,-26.707 -8.817,-48.482 -21.148,-60.321Zm-23.086,24.045c4.607,4.423 6.99,11.707 8.74,20.325c2.307,11.357 2.905,24.835 2.447,39.129c-1.447,45.19 -13.583,98.172 -22.282,122.065c-30.792,84.574 -57.175,172.348 -115.511,242.808c-23.683,28.605 -45.239,46.806 -64.574,56.146c-15.689,7.579 -29.325,8.958 -40.622,4.228c-14.127,-5.914 -23.839,-20.434 -29.948,-39.333c-10.869,-33.626 -9.554,-80.565 6.171,-128.88c30.915,-94.986 87.945,-195.543 160.858,-264.687c16.699,-15.836 42.479,-40.404 66.847,-51.307c10.431,-4.667 20.442,-7.63 27.874,-0.494Z" style="fill:#7e4021;"/><path d="M1358.96,1461.73c46.227,0.225 114.584,108.703 132.235,149.2c36.718,84.246 78.54,167.892 84.947,261.074c13.795,200.592 -133.775,156.544 -199.441,19.045c-44.187,-92.526 -72.75,-207.698 -67.417,-310.705c2.114,-40.85 6.898,-118.822 49.676,-118.614Z" style="fill:#ffeeda;"/><path d="M1359.04,1445.06c-23.962,-0.117 -40.752,15.645 -50.854,40.229c-11.495,27.973 -14.2,68.152 -15.548,94.189c-5.47,105.665 23.695,223.836 69.022,318.749c25.384,53.151 62.501,93.005 98.493,112.572c27.249,14.815 54.233,18.245 76.585,9.737c19.106,-7.273 35.595,-23.233 45.857,-50.448c8.832,-23.422 13.144,-56.042 10.174,-99.232c-6.54,-95.103 -48.821,-180.606 -86.297,-266.589c-12.908,-29.616 -51.819,-94 -90.541,-130.065c-19.58,-18.236 -39.797,-29.059 -56.891,-29.142l-0,-0Zm-0.162,33.333c6.386,0.031 13.132,3.668 20.339,8.707c9.497,6.641 19.218,15.996 28.735,26.67c30.09,33.747 57.804,80.506 67.963,103.815c35.961,82.508 77.323,164.298 83.599,255.558c2.548,37.049 -0.532,65.093 -8.108,85.184c-6.148,16.304 -15.08,26.699 -26.526,31.056c-14.313,5.448 -31.357,1.617 -48.806,-7.869c-31.047,-16.879 -62.438,-51.803 -84.334,-97.652c-43.048,-90.139 -71.008,-202.31 -65.813,-302.66c1.19,-22.983 2.944,-58.551 13.091,-83.244c4.343,-10.57 9.557,-19.616 19.86,-19.565l-0,-0Z" style="fill:#7e4021;"/><path d="M1288.52,1778.26c46.227,0.225 114.584,108.702 132.235,149.2c36.718,84.245 78.54,167.892 84.947,261.073c13.795,200.593 -133.775,156.545 -199.441,19.045c-44.188,-92.526 -72.75,-207.697 -67.417,-310.704c2.114,-40.85 6.898,-118.822 49.676,-118.614Z" style="fill:#ffeeda;"/><path d="M1288.6,1761.59c-23.962,-0.116 -40.752,15.645 -50.854,40.229c-11.495,27.974 -14.2,68.153 -15.548,94.19c-5.47,105.664 23.695,223.836 69.022,318.749c25.384,53.151 62.501,93.004 98.493,112.572c27.249,14.814 54.233,18.244 76.585,9.736c19.106,-7.272 35.595,-23.232 45.857,-50.447c8.832,-23.422 13.144,-56.043 10.174,-99.232c-6.54,-95.104 -48.821,-180.606 -86.297,-266.59c-12.908,-29.615 -51.819,-94 -90.541,-130.064c-19.58,-18.236 -39.797,-29.06 -56.891,-29.143l-0,0Zm-0.162,33.333c6.386,0.031 13.132,3.668 20.339,8.708c9.497,6.641 19.218,15.996 28.735,26.67c30.09,33.746 57.804,80.505 67.963,103.815c35.961,82.508 77.323,164.298 83.599,255.558c2.548,37.048 -0.532,65.092 -8.108,85.184c-6.148,16.304 -15.08,26.699 -26.526,31.056c-14.313,5.447 -31.357,1.617 -48.806,-7.87c-31.047,-16.879 -62.438,-51.802 -84.334,-97.651c-43.048,-90.139 -71.008,-202.311 -65.813,-302.661c1.19,-22.983 2.944,-58.551 13.091,-83.243c4.343,-10.57 9.557,-19.616 19.86,-19.566l-0,0Z" style="fill:#7e4021;"/><path d="M1218.08,2094.79c46.227,0.225 114.584,108.703 132.235,149.2c36.718,84.246 78.54,167.892 84.947,261.074c13.795,200.592 -133.775,156.544 -199.441,19.045c-44.188,-92.526 -72.75,-207.698 -67.417,-310.705c2.114,-40.85 6.898,-118.822 49.676,-118.614Z" style="fill:#ffeeda;"/><path d="M1218.16,2078.12c-23.962,-0.117 -40.752,15.645 -50.854,40.229c-11.495,27.973 -14.2,68.152 -15.548,94.189c-5.47,105.665 23.695,223.836 69.022,318.749c25.384,53.151 62.501,93.005 98.493,112.572c27.249,14.815 54.233,18.245 76.585,9.737c19.106,-7.273 35.595,-23.233 45.857,-50.447c8.832,-23.422 13.144,-56.043 10.174,-99.233c-6.54,-95.103 -48.821,-180.606 -86.297,-266.589c-12.908,-29.616 -51.819,-94 -90.541,-130.065c-19.58,-18.236 -39.797,-29.059 -56.891,-29.142l-0,-0Zm-0.162,33.333c6.386,0.031 13.132,3.668 20.339,8.707c9.497,6.641 19.218,15.996 28.735,26.67c30.09,33.747 57.803,80.506 67.963,103.815c35.961,82.508 77.323,164.298 83.599,255.558c2.548,37.049 -0.532,65.093 -8.108,85.184c-6.148,16.304 -15.08,26.699 -26.526,31.056c-14.313,5.448 -31.357,1.617 -48.806,-7.869c-31.047,-16.879 -62.438,-51.802 -84.334,-97.652c-43.048,-90.139 -71.008,-202.31 -65.813,-302.66c1.19,-22.983 2.944,-58.551 13.091,-83.244c4.343,-10.569 9.557,-19.615 19.86,-19.565l-0,-0Z" style="fill:#7e4021;"/><path d="M1162.92,2415.23c42.822,0.208 106.142,100.694 122.493,138.207c34.013,78.039 72.753,155.523 78.689,241.84c12.778,185.813 -123.92,145.011 -184.747,17.641c-40.932,-85.709 -67.39,-192.395 -62.451,-287.813c1.959,-37.84 6.39,-110.068 46.016,-109.875Z" style="fill:#ffeeda;"/><path d="M1163,2398.56c-22.703,-0.11 -38.678,14.736 -48.249,38.027c-10.698,26.033 -13.239,63.422 -14.493,87.653c-5.077,98.076 21.983,207.762 64.055,295.858c23.642,49.504 58.235,86.603 91.757,104.827c25.603,13.92 50.965,17.082 71.966,9.089c17.982,-6.845 33.533,-21.833 43.191,-47.445c8.228,-21.819 12.267,-52.206 9.501,-92.439c-6.068,-88.239 -45.268,-167.578 -80.039,-247.355c-11.997,-27.527 -48.168,-87.368 -84.159,-120.89c-18.41,-17.146 -37.458,-27.246 -53.53,-27.325l-0,0Zm-0.163,33.333c5.706,0.028 11.705,3.342 18.144,7.845c8.728,6.103 17.658,14.706 26.405,24.516c27.779,31.155 53.367,74.32 62.746,95.84c33.256,76.301 71.537,151.928 77.341,236.323c2.344,34.093 -0.463,59.902 -7.435,78.391c-5.544,14.701 -13.538,24.124 -23.859,28.053c-12.963,4.934 -28.384,1.371 -44.187,-7.221c-28.578,-15.536 -57.445,-47.705 -77.6,-89.907c-39.792,-83.322 -65.648,-187.008 -60.845,-279.77c1.096,-21.177 2.686,-53.954 12.035,-76.707c3.814,-9.28 8.209,-17.407 17.255,-17.363l0,0Z" style="fill:#7e4021;"/><path d="M1111.83,2712.05c39.666,0.193 98.322,93.276 113.468,128.025c31.507,72.29 67.393,144.065 72.891,224.022c11.837,172.124 -114.789,134.327 -171.136,16.342c-37.916,-79.395 -62.425,-178.221 -57.849,-266.609c1.815,-35.052 5.919,-101.958 42.626,-101.78Z" style="fill:#ffeeda;"/><path d="M1111.91,2695.39c-21.535,-0.105 -36.757,13.892 -45.836,35.986c-9.959,24.236 -12.348,59.04 -13.515,81.598c-4.714,91.046 20.397,192.872 59.454,274.653c22.028,46.126 54.284,80.673 85.518,97.654c24.078,13.091 47.937,16.006 67.687,8.488c16.939,-6.448 31.623,-20.537 40.721,-44.664c7.668,-20.334 11.455,-48.65 8.877,-86.146c-5.631,-81.879 -41.976,-155.51 -74.241,-229.537c-11.155,-25.592 -44.786,-81.226 -78.248,-112.391c-17.326,-16.137 -35.291,-25.568 -50.417,-25.641l-0,-0Zm-0.162,33.333c5.075,0.024 10.381,3.04 16.109,7.045c8.016,5.605 16.213,13.51 24.247,22.52c25.638,28.754 49.258,68.591 57.914,88.453c30.75,70.551 66.177,140.47 71.543,218.505c2.156,31.355 -0.399,55.094 -6.811,72.098c-4.984,13.217 -12.11,21.74 -21.389,25.272c-11.712,4.458 -25.63,1.143 -39.908,-6.62c-26.29,-14.293 -52.82,-43.91 -71.361,-82.734c-36.777,-77.007 -60.683,-172.833 -56.245,-258.564c1.01,-19.505 2.448,-49.698 11.059,-70.653c3.323,-8.088 6.958,-15.361 14.842,-15.322l-0,-0Z" style="fill:#7e4021;"/><path d="M1064.5,2987.01c36.744,0.178 91.079,86.403 105.108,118.593c29.187,66.963 62.429,133.45 67.522,207.516c10.964,159.443 -106.333,124.431 -158.528,15.138c-35.123,-73.545 -57.826,-165.09 -53.587,-246.966c1.681,-32.47 5.483,-94.447 39.485,-94.281Z" style="fill:#ffeeda;"/><path d="M1064.58,2970.35c-20.455,-0.099 -34.978,13.111 -43.601,34.096c-9.275,22.572 -11.523,54.981 -12.61,75.99c-4.377,84.534 18.929,179.079 55.192,255.011c20.534,42.996 50.624,75.18 79.739,91.009c22.666,12.322 45.132,15.007 63.724,7.931c15.973,-6.08 29.853,-19.336 38.433,-42.088c7.149,-18.959 10.702,-45.357 8.298,-80.316c-5.225,-75.989 -38.927,-144.332 -68.87,-213.033c-10.374,-23.8 -41.653,-75.535 -72.772,-104.518c-16.322,-15.202 -33.283,-24.012 -47.533,-24.082l-0,0Zm-0.163,33.333c4.492,0.022 9.157,2.761 14.225,6.304c7.357,5.145 14.875,12.404 22.247,20.673c23.656,26.53 45.452,63.284 53.439,81.609c28.429,65.226 61.211,129.856 66.173,202.001c1.981,28.818 -0.34,50.639 -6.234,66.268c-4.465,11.842 -10.787,19.531 -19.101,22.696c-10.554,4.017 -23.078,0.932 -35.944,-6.063c-24.171,-13.141 -48.535,-40.394 -65.582,-76.089c-33.983,-71.159 -56.084,-159.703 -51.983,-238.922c0.93,-17.955 2.227,-45.754 10.154,-65.044c2.87,-6.985 5.799,-13.466 12.606,-13.433l0,0Z" style="fill:#7e4021;"/><path d="M1020.66,3241.72c34.037,0.166 84.368,80.038 97.364,109.856c27.036,62.03 57.829,123.618 62.547,192.228c10.157,147.695 -98.499,115.263 -146.848,14.022c-32.535,-68.126 -53.566,-152.927 -49.639,-228.77c1.557,-30.078 5.079,-87.489 36.576,-87.336Z" style="fill:#ffeeda;"/><path d="M1020.74,3225.05c-19.453,-0.095 -33.329,12.388 -41.53,32.345c-8.642,21.03 -10.758,51.221 -11.772,70.795c-4.064,78.501 17.569,166.301 51.244,236.815c19.15,40.098 47.234,70.091 74.387,84.853c21.357,11.612 42.533,14.084 60.052,7.416c26.706,-10.165 48.9,-44.476 44.076,-114.618c-4.85,-70.531 -36.102,-133.976 -63.895,-197.743c-9.65,-22.141 -38.751,-70.265 -67.699,-97.227c-15.393,-14.336 -31.425,-22.571 -44.863,-22.636l0,-0Zm-0.162,33.333c3.95,0.019 8.021,2.501 12.479,5.618c6.746,4.717 13.635,11.379 20.395,18.96c21.819,24.47 41.926,58.368 49.293,75.27c26.278,60.292 56.612,120.024 61.198,186.712c1.82,26.469 -0.285,46.514 -5.698,60.869c-3.985,10.568 -9.563,17.485 -16.982,20.309c-9.481,3.609 -20.715,0.736 -32.273,-5.548c-22.208,-12.073 -44.566,-37.137 -60.228,-69.933c-31.396,-65.74 -51.824,-147.54 -48.035,-220.727c0.855,-16.52 2.022,-42.1 9.315,-59.848c2.451,-5.965 4.723,-11.71 10.536,-11.682l0,-0Z" style="fill:#7e4021;"/><path d="M1802.61,1531.28c28.882,36.095 -12.521,157.445 -32.923,196.629c-42.442,81.512 -81.211,166.616 -149.656,230.171c-147.342,136.814 -205.841,-5.647 -140.175,-143.146c44.188,-92.526 115.81,-187.134 199.277,-247.733c33.1,-24.032 96.75,-69.322 123.477,-35.921Z" style="fill:#ffeeda;"/><path d="M1815.62,1520.87c-14.971,-18.71 -37.783,-21.86 -63.253,-14.265c-28.982,8.643 -61.932,31.795 -83.029,47.112c-85.62,62.163 -159.197,159.125 -204.524,254.037c-25.384,53.151 -33.049,107.07 -25.645,147.362c5.606,30.505 19.899,53.648 40.566,65.685c17.666,10.289 40.443,13.081 68.06,3.956c23.768,-7.853 51.849,-25.004 83.573,-54.461c69.857,-64.866 109.781,-151.494 153.099,-234.687c14.92,-28.655 40.537,-99.388 44.247,-152.173c1.876,-26.691 -2.414,-49.218 -13.094,-62.566l0,0Zm-26.026,20.826c3.99,4.987 5.401,12.52 6.012,21.293c0.804,11.56 -0.362,25.001 -2.681,39.113c-7.333,44.614 -26.281,95.559 -38.024,118.113c-41.567,79.831 -79.181,163.41 -146.214,225.654c-27.213,25.269 -50.961,40.501 -71.349,47.238c-16.545,5.466 -30.244,5.054 -40.827,-1.11c-13.234,-7.708 -20.968,-23.372 -24.558,-42.906c-6.387,-34.757 1.044,-81.123 22.94,-126.972c43.048,-90.139 112.715,-182.392 194.028,-241.428c18.623,-13.521 47.389,-34.514 72.972,-42.143c10.951,-3.265 21.264,-4.896 27.701,3.148Z" style="fill:#7e4021;"/><path d="M1732.17,1847.81c28.882,36.095 -12.521,157.445 -32.923,196.628c-42.442,81.512 -81.211,166.616 -149.656,230.171c-147.342,136.814 -205.841,-5.646 -140.175,-143.146c44.188,-92.526 115.81,-187.133 199.276,-247.732c33.101,-24.032 96.751,-69.323 123.478,-35.921Z" style="fill:#ffeeda;"/><path d="M1745.18,1837.4c-14.971,-18.71 -37.783,-21.861 -63.253,-14.265c-28.982,8.643 -61.932,31.794 -83.029,47.112c-85.62,62.162 -159.197,159.124 -204.524,254.037c-25.384,53.151 -33.049,107.069 -25.645,147.362c5.606,30.505 19.899,53.648 40.566,65.684c17.666,10.289 40.443,13.081 68.06,3.957c23.768,-7.853 51.849,-25.004 83.573,-54.462c69.857,-64.865 109.781,-151.493 153.099,-234.686c14.92,-28.655 40.537,-99.388 44.247,-152.174c1.876,-26.691 -2.414,-49.218 -13.094,-62.565l0,-0Zm-26.026,20.826c3.99,4.986 5.401,12.519 6.012,21.292c0.804,11.561 -0.362,25.001 -2.681,39.113c-7.333,44.615 -26.281,95.56 -38.024,118.113c-41.567,79.831 -79.181,163.411 -146.214,225.655c-27.213,25.269 -50.961,40.501 -71.349,47.237c-16.545,5.467 -30.244,5.054 -40.827,-1.11c-13.234,-7.707 -20.968,-23.371 -24.558,-42.905c-6.387,-34.757 1.043,-81.123 22.94,-126.972c43.048,-90.139 112.715,-182.392 194.028,-241.429c18.623,-13.52 47.389,-34.513 72.972,-42.142c10.951,-3.266 21.264,-4.897 27.701,3.148Z" style="fill:#7e4021;"/><path d="M1661.73,2164.34c28.882,36.095 -12.521,157.446 -32.923,196.629c-42.442,81.512 -81.212,166.616 -149.657,230.171c-147.341,136.814 -205.84,-5.647 -140.174,-143.146c44.188,-92.526 115.81,-187.133 199.276,-247.733c33.101,-24.032 96.751,-69.322 123.478,-35.921Z" style="fill:#ffeeda;"/><path d="M1674.74,2153.93c-14.971,-18.71 -37.783,-21.86 -63.253,-14.265c-28.982,8.643 -61.932,31.795 -83.029,47.112c-85.62,62.163 -159.197,159.125 -204.524,254.037c-25.384,53.151 -33.049,107.07 -25.645,147.362c5.606,30.505 19.899,53.648 40.566,65.685c17.666,10.289 40.443,13.081 68.06,3.956c23.768,-7.853 51.849,-25.004 83.573,-54.461c69.857,-64.866 109.781,-151.494 153.099,-234.687c14.92,-28.655 40.537,-99.388 44.247,-152.173c1.876,-26.691 -2.414,-49.218 -13.094,-62.566l0,0Zm-26.027,20.826c3.991,4.987 5.402,12.52 6.013,21.293c0.804,11.56 -0.362,25.001 -2.681,39.113c-7.333,44.614 -26.281,95.559 -38.024,118.113c-41.567,79.831 -79.181,163.41 -146.214,225.654c-27.213,25.269 -50.961,40.501 -71.349,47.238c-16.545,5.466 -30.244,5.054 -40.827,-1.11c-13.234,-7.708 -20.968,-23.372 -24.558,-42.906c-6.387,-34.756 1.043,-81.123 22.94,-126.972c43.048,-90.139 112.715,-182.392 194.028,-241.428c18.623,-13.521 47.389,-34.513 72.972,-42.143c10.951,-3.265 21.264,-4.896 27.7,3.148Z" style="fill:#7e4021;"/><path d="M1573.89,2479.66c26.753,33.435 -11.599,145.845 -30.498,182.141c-39.315,75.507 -75.228,154.341 -138.63,213.213c-136.486,126.734 -190.675,-5.23 -129.847,-132.599c40.932,-85.709 107.277,-173.346 184.594,-229.481c30.662,-22.262 89.623,-64.215 114.381,-33.274Z" style="fill:#ffeeda;"/><path d="M1586.9,2469.24c-14.184,-17.727 -35.772,-20.82 -59.903,-13.624c-26.972,8.043 -57.648,29.569 -77.283,43.824c-79.47,57.698 -147.77,147.689 -189.842,235.785c-23.642,49.504 -30.751,99.729 -23.855,137.256c5.267,28.662 18.749,50.375 38.167,61.685c16.626,9.683 38.059,12.357 64.049,3.769c22.142,-7.315 48.314,-23.273 77.866,-50.714c64.814,-60.184 101.882,-140.542 142.073,-217.729c13.868,-26.635 37.675,-92.38 41.123,-141.443c1.764,-25.096 -2.353,-46.26 -12.395,-58.809Zm-26.027,20.825c3.565,4.456 4.758,11.204 5.303,19.042c0.74,10.625 -0.338,22.978 -2.47,35.947c-6.77,41.188 -24.258,88.222 -35.1,109.043c-38.44,73.826 -73.197,151.135 -135.188,208.697c-25.042,23.253 -46.88,37.292 -65.642,43.491c-14.919,4.929 -27.273,4.635 -36.816,-0.923c-11.985,-6.981 -18.907,-21.214 -22.158,-38.905c-5.88,-31.993 0.995,-74.665 21.149,-116.867c39.793,-83.322 104.183,-168.605 179.347,-223.176c17.16,-12.459 43.653,-31.825 67.225,-38.855c9.615,-2.867 18.698,-4.557 24.35,2.506Z" style="fill:#7e4021;"/><path d="M1492.52,2771.74c24.783,30.972 -10.744,135.1 -28.251,168.722c-36.418,69.944 -69.685,142.97 -128.416,197.505c-126.431,117.397 -176.627,-4.845 -120.281,-122.83c37.917,-79.395 99.374,-160.575 170.995,-212.574c28.402,-20.621 83.019,-59.484 105.953,-30.823Z" style="fill:#ffeeda;"/><path d="M1505.53,2761.33c-13.454,-16.815 -33.909,-19.856 -56.799,-13.03c-25.11,7.489 -53.68,27.508 -71.959,40.779c-73.774,53.562 -137.186,137.097 -176.242,218.878c-22.029,46.126 -28.623,92.928 -22.197,127.895c4.953,26.955 17.683,47.343 35.944,57.979c15.662,9.122 35.85,11.686 60.334,3.597c20.634,-6.818 45.038,-21.671 72.579,-47.245c60.143,-55.846 94.565,-130.395 131.859,-202.02c12.894,-24.763 35.023,-85.889 38.229,-131.503c1.661,-23.619 -2.297,-43.519 -11.748,-55.33Zm-26.026,20.826c3.17,3.963 4.16,9.985 4.646,16.957c0.679,9.758 -0.317,21.102 -2.275,33.014c-6.248,38.014 -22.385,81.425 -32.391,100.641c-35.544,68.263 -67.656,139.764 -124.975,192.988c-23.031,21.386 -43.1,34.32 -60.356,40.021c-13.412,4.432 -24.52,4.247 -33.1,-0.75c-10.829,-6.307 -16.999,-19.215 -19.936,-35.2c-5.409,-29.431 0.951,-68.681 19.492,-107.505c36.777,-77.007 96.279,-155.834 165.747,-206.269c15.804,-11.475 40.191,-29.335 61.901,-35.809c8.379,-2.499 16.321,-4.244 21.247,1.912Z" style="fill:#7e4021;"/><path d="M1417.14,3042.3c22.957,28.69 -9.952,125.147 -26.169,156.292c-33.735,64.791 -64.551,132.436 -118.955,182.953c-117.116,108.748 -163.614,-4.488 -111.419,-113.78c35.123,-73.545 92.052,-148.745 158.396,-196.913c26.31,-19.102 76.903,-55.101 98.147,-28.552Z" style="fill:#ffeeda;"/><path d="M1430.15,3031.89c-12.78,-15.971 -32.183,-18.962 -53.925,-12.479c-23.385,6.974 -50.004,25.598 -67.028,37.957c-68.497,49.731 -127.381,127.285 -163.644,203.217c-20.534,42.997 -26.651,86.629 -20.661,119.223c4.663,25.374 16.696,44.535 33.886,54.547c14.769,8.602 33.803,11.065 56.892,3.436c19.239,-6.356 42.004,-20.186 67.682,-44.029c55.816,-51.828 87.787,-120.998 122.398,-187.47c11.991,-23.028 32.567,-79.875 35.548,-122.295c1.564,-22.25 -2.245,-40.98 -11.148,-52.107Zm-26.027,20.826c2.806,3.507 3.608,8.856 4.038,15.026c0.623,8.955 -0.298,19.366 -2.094,30.297c-5.765,35.074 -20.65,75.128 -29.883,92.859c-32.86,63.109 -62.521,129.231 -115.513,178.437c-21.168,19.655 -39.599,31.566 -55.459,36.806c-12.016,3.97 -21.971,3.887 -29.658,-0.59c-9.758,-5.684 -15.231,-17.364 -17.878,-31.768c-4.972,-27.059 0.91,-63.138 17.956,-98.833c33.984,-71.158 88.958,-144.003 153.149,-190.608c14.549,-10.563 36.985,-27.028 56.97,-32.988c7.237,-2.158 14.119,-3.953 18.372,1.362Z" style="fill:#7e4021;"/><path d="M1347.32,3292.93c21.266,26.576 -9.219,115.926 -24.241,144.777c-31.25,60.017 -59.796,122.679 -110.192,169.474c-108.487,100.736 -151.559,-4.158 -103.21,-105.398c32.536,-68.127 85.271,-137.786 146.727,-182.405c24.372,-17.695 71.237,-51.042 90.916,-26.448Z" style="fill:#ffeeda;"/><path d="M1360.33,3282.52c-12.153,-15.189 -30.584,-18.136 -51.261,-11.969c-21.787,6.497 -46.599,23.828 -62.46,35.343c-63.609,46.183 -118.299,118.196 -151.974,188.709c-19.15,40.098 -24.825,80.794 -19.239,111.191c4.394,23.909 15.782,41.933 31.979,51.367c24.693,14.381 65.329,10.076 116.85,-37.764c51.808,-48.106 81.508,-112.292 113.634,-173.99c11.154,-21.422 30.291,-74.305 33.065,-113.766c1.475,-20.983 -2.198,-38.629 -10.594,-49.121Zm-26.026,20.826c2.468,3.084 3.096,7.81 3.474,13.236c0.571,8.212 -0.279,17.758 -1.927,27.781c-5.317,32.351 -19.043,69.296 -27.558,85.649c-30.375,58.337 -57.765,119.474 -106.749,164.958c-19.443,18.054 -36.356,29.016 -50.923,33.829c-10.724,3.543 -19.61,3.553 -26.47,-0.442c-8.766,-5.106 -13.593,-15.649 -15.97,-28.588c-4.569,-24.862 0.871,-58.005 16.533,-90.801c31.396,-65.739 82.176,-133.044 141.479,-176.1c13.386,-9.719 34.014,-24.891 52.402,-30.374c6.18,-1.843 12.077,-3.688 15.709,0.852Z" style="fill:#7e4021;"/><path d="M1358.65,3291.87c1.943,-10.86 12.531,-24.653 24.802,-39.205c21.268,-25.222 48.407,-51.509 59.122,-67.34c112.603,-166.369 192.894,-346.247 268.516,-531.654c2.606,-6.388 -0.465,-13.69 -6.853,-16.295c-6.388,-2.606 -13.69,0.465 -16.295,6.853c-74.964,183.794 -154.448,362.162 -266.072,527.083c-10.4,15.366 -36.887,40.755 -57.53,65.237c-15.673,18.586 -27.817,37.047 -30.299,50.918c-1.215,6.791 3.312,13.291 10.103,14.506c6.791,1.215 13.291,-3.312 14.506,-10.103Z" style="fill:#7e4021;"/><path d="M1513.41,1271.84c-1.148,4.58 0.362,9.62 4.276,12.775c4.477,3.609 8.35,3.168 10.806,2.646c3.48,-0.74 6.455,-2.685 8.44,-6.229c1.062,-1.897 1.512,-9.041 1.512,-9.041c-0,-0 0.039,0.404 0.048,0.54c-0.786,-11.95 -0.064,-23.977 0.346,-35.932c1.118,-32.642 2.114,-65.277 3.787,-97.898c4.809,-93.782 13.18,-187.181 25.303,-280.295c36.084,-277.17 98.095,-547.434 154.91,-820.727c1.404,-6.754 -2.94,-13.378 -9.694,-14.782c-6.755,-1.405 -13.379,2.939 -14.783,9.694c-56.943,273.91 -119.059,544.791 -155.224,822.588c-12.207,93.76 -20.637,187.808 -25.48,282.242c-1.68,32.762 -2.682,65.538 -3.805,98.322c-0.411,12.008 -1.062,24.085 -0.442,36.097Zm11.622,-9.44c2.92,-0.122 5.894,0.776 8.345,2.753c-3.168,-2.554 -6.016,-3.018 -8.345,-2.753Z" style="fill:#7e4021;"/><path d="M1738.06,1334.26c34.304,-74.501 47.889,-163.821 66.691,-242.864c85.143,-357.929 92.855,-712.764 99.165,-1077.81c0.119,-6.898 -5.384,-12.595 -12.282,-12.714c-6.898,-0.119 -12.595,5.384 -12.714,12.282c-6.279,363.224 -13.771,716.308 -98.49,1072.45c-18.434,77.495 -31.446,165.151 -65.078,238.193c-2.886,6.267 -0.14,13.697 6.126,16.583c6.267,2.885 13.697,0.14 16.582,-6.127Z" style="fill:#7e4021;"/><path d="M1251.1,2901.52c-1.421,1.354 -2.54,3.065 -3.207,5.053c-2.192,6.542 1.34,13.632 7.881,15.824c2.432,0.815 5.585,1.191 9.283,-0.504c0.939,-0.431 4.49,-2.709 8.043,-8.338c13.997,-22.178 74.53,-137.171 82.319,-153.374c2.774,-5.771 5.536,-11.547 8.255,-17.344c2.851,-6.079 5.661,-12.177 8.455,-18.282c103.683,-226.528 166.102,-456.383 220.937,-698.498c1.524,-6.728 -2.702,-13.428 -9.43,-14.952c-6.729,-1.524 -13.429,2.702 -14.953,9.43c-54.449,240.412 -116.333,468.681 -219.286,693.616c-2.761,6.034 -5.539,12.061 -8.357,18.069c-2.685,5.725 -5.413,11.431 -8.153,17.13c-7.66,15.935 -67.163,129.05 -80.929,150.862c-0.273,0.433 -0.603,0.929 -0.858,1.308Zm11.894,-3.044c-1.83,-0.514 -4.026,-0.722 -6.519,0.007c2.076,-0.567 4.317,-0.604 6.519,-0.007Z" style="fill:#7e4021;"/><path d="M1321.66,2603c1.287,-23.194 2.983,-46.373 4.776,-69.532c6.136,-79.251 12.244,-158.499 19.503,-237.656c22.049,-240.417 51.353,-480.938 103.265,-716.877c1.482,-6.737 -2.785,-13.411 -9.522,-14.894c-6.738,-1.482 -13.412,2.785 -14.894,9.522c-52.136,236.958 -81.601,478.511 -103.744,719.966c-7.271,79.274 -13.388,158.64 -19.533,238.009c-1.807,23.34 -3.515,46.7 -4.813,70.076c-0.382,6.888 4.899,12.791 11.788,13.173c6.888,0.383 12.791,-4.899 13.174,-11.787Z" style="fill:#7e4021;"/><path d="M1541.36,1962.03c0.786,-25.519 1.982,-51.013 3.277,-76.483c4.427,-87.114 8.827,-174.225 14.386,-261.21c16.887,-264.249 41.067,-528.451 88.068,-787.114c1.233,-6.788 -3.277,-13.3 -10.064,-14.534c-6.788,-1.233 -13.3,3.277 -14.534,10.064c-47.172,259.609 -71.471,524.774 -88.419,789.989c-5.566,87.094 -9.972,174.314 -14.405,261.536c-1.303,25.636 -2.506,51.296 -3.297,76.983c-0.213,6.895 5.213,12.666 12.109,12.878c6.896,0.213 12.667,-5.213 12.879,-12.109Z" style="fill:#7e4021;"/><path d="M1143.32,3393.83c-0.29,1.083 -0.433,2.222 -0.414,3.397c0.113,6.898 5.806,12.406 12.704,12.293c1.475,-0.024 11.495,-1.597 12.591,-12.921c0.928,-9.588 0.557,-57.615 0.568,-60.996c0.188,-60.392 2.372,-120.907 5.041,-181.233c6.695,-151.312 25.11,-301.051 57.497,-449.001c1.475,-6.739 -2.799,-13.409 -9.538,-14.884c-6.74,-1.475 -13.409,2.799 -14.884,9.538c-32.692,149.348 -51.292,300.5 -58.05,453.242c-2.685,60.668 -4.877,121.526 -5.066,182.26c-0.01,3.098 -0.411,53.54 -0.449,58.305Zm11.067,-9.264c-1.995,0.145 -4.04,0.747 -6.001,2.117c1.735,-1.184 3.785,-1.941 6.001,-2.117Z" style="fill:#7e4021;"/><path d="M1506.16,2755.37c28.72,-49.913 87.184,-148.587 113.834,-199.674c79.84,-153.05 135.269,-311.521 178.991,-478.189c1.751,-6.674 -2.246,-13.513 -8.919,-15.263c-6.673,-1.751 -13.512,2.246 -15.263,8.919c-43.242,164.842 -98.009,321.598 -176.974,472.97c-26.531,50.858 -84.747,149.08 -113.338,198.769c-3.44,5.98 -1.379,13.628 4.601,17.069c5.98,3.44 13.628,1.379 17.068,-4.601Z" style="fill:#7e4021;"/><path d="M1736.04,1848.59c138.504,-150.955 235.586,-547.462 271.311,-743.201c1.239,-6.787 -3.265,-13.303 -10.052,-14.542c-6.787,-1.238 -13.303,3.266 -14.541,10.053c-35.104,192.331 -129.047,582.462 -265.139,730.789c-4.664,5.083 -4.324,12.997 0.759,17.661c5.084,4.664 12.998,4.324 17.662,-0.76Z" style="fill:#7e4021;"/><path d="M1856.07,1236.65c-1.686,4.635 -0.519,10.036 3.365,13.546c4.313,3.898 9.255,4.856 14.92,1.389c0.526,-0.322 4.295,-2.363 5.863,-8.407c1.454,-5.603 7.397,-35.921 10.486,-54.841c8.237,-50.451 15.797,-101.014 22.619,-151.676c18.879,-140.185 31.486,-281.322 37.603,-422.632c0.299,-6.893 -5.055,-12.731 -11.947,-13.029c-6.893,-0.298 -12.731,5.055 -13.029,11.948c-6.085,140.556 -18.625,280.939 -37.403,420.377c-6.791,50.431 -14.317,100.763 -22.516,150.984c-2.815,17.238 -9.321,49.206 -9.961,52.341Zm19.604,-5.448c-3.983,-3.351 -8.5,-4.187 -13.618,-1.374c4.304,-2.234 9.677,-1.818 13.618,1.374Z" style="fill:#7e4021;"/><path d="M1710.47,935.816c5.137,-39.109 10.827,-78.128 16.252,-117.197c17.647,-127.08 36.813,-253.948 57.414,-380.584c1.107,-6.809 -3.522,-13.237 -10.331,-14.345c-6.81,-1.107 -13.237,3.522 -14.345,10.331c-20.632,126.827 -39.827,253.887 -57.5,381.159c-5.434,39.13 -11.132,78.21 -16.277,117.38c-0.899,6.84 3.925,13.123 10.766,14.021c6.84,0.899 13.123,-3.925 14.021,-10.765Z" style="fill:#7e4021;"/><path d="M1425.16,1119.91c4.73,-209.966 3.829,-415.229 36.931,-625.611c1.072,-6.815 -3.59,-13.219 -10.405,-14.291c-6.815,-1.072 -13.219,3.59 -14.291,10.405c-33.278,211.502 -32.474,417.851 -37.229,628.934c-0.156,6.897 5.318,12.623 12.215,12.778c6.897,0.156 12.623,-5.318 12.779,-12.215Z" style="fill:#7e4021;"/><path d="M1360.86,1449.37c-53.495,-197.496 -47.832,-415.763 -46.171,-618.654c0.057,-6.899 -5.498,-12.546 -12.397,-12.602c-6.899,-0.057 -12.546,5.498 -12.602,12.397c-1.679,205.111 -7.04,425.739 47.04,625.395c1.803,6.659 8.674,10.601 15.333,8.797c6.659,-1.804 10.601,-8.674 8.797,-15.333Z" style="fill:#7e4021;"/><path d="M1260.6,1770.55c-0.494,2.59 -0.174,5.354 1.09,7.893c3.076,6.175 10.587,8.691 16.762,5.615c1.591,-0.792 7.299,-4.396 7.213,-13.279c-0.105,-10.728 -8.332,-60.654 -8.651,-63.608c-18.156,-168.157 -28.682,-337.142 -23.738,-506.316c0.202,-6.896 -5.233,-12.658 -12.129,-12.86c-6.896,-0.201 -12.658,5.234 -12.86,12.13c-4.978,170.314 5.593,340.439 23.871,509.73c0.291,2.691 7.662,55.152 8.442,60.695Zm4.672,-7.601l-0.025,0.021l0.16,-0.119l-0.135,0.098Zm0.502,-0.366l-0.052,0.038l0.304,-0.203l-0.252,0.165Zm0.507,-0.332l-0.053,0.035l0.377,-0.225l-0.324,0.19Zm0.479,-0.281l0.546,-0.289c-0.182,0.09 -0.365,0.186 -0.546,0.289Z" style="fill:#7e4021;"/><path d="M1211.27,2099.73c1.145,-45.751 -15.237,-98.769 -20.228,-144.475c-14.942,-136.824 -28.276,-273.914 -33.598,-411.486c-0.267,-6.894 -6.081,-12.274 -12.974,-12.008c-6.894,0.267 -12.274,6.081 -12.008,12.974c5.345,138.156 18.722,275.83 33.727,413.234c4.878,44.663 21.208,96.428 20.089,141.135c-0.172,6.897 5.287,12.636 12.184,12.809c6.897,0.172 12.636,-5.287 12.808,-12.183Z" style="fill:#7e4021;"/><path d="M1104.45,2705.25c-0.219,-2.765 -0.599,-6.856 -1.005,-8.514c-14.024,-57.363 -25.39,-115.1 -35.616,-173.264c-20.526,-116.746 -33.709,-234.658 -40.767,-352.952c-0.411,-6.887 -6.336,-12.144 -13.222,-11.733c-6.887,0.41 -12.144,6.335 -11.734,13.222c7.115,119.246 20.409,238.106 41.1,355.792c10.321,58.704 21.8,116.977 35.954,174.872c0.438,1.792 0.422,5.941 0.642,7.958c0.264,2.432 0.868,4.159 1.23,4.977c2.65,5.975 7.337,7.219 10.38,7.502c2.067,0.192 10.682,0.8 13.551,-9.862c0.741,-2.756 0.499,-5.547 -0.513,-7.998Zm-23.349,0.586l-0.055,0.181l0.16,-0.456l-0.105,0.275Zm1.509,-2.945c-0.514,0.702 -0.995,1.56 -1.383,2.616c0.361,-0.941 0.827,-1.816 1.383,-2.616Z" style="fill:#7e4021;"/><path d="M1036.31,3216.02l-2.058,-8.901c-4.755,-19.716 -8.632,-39.589 -11.759,-59.628c-8.945,-57.327 -15.924,-115.006 -22.095,-172.688c-16.802,-157.061 -28.245,-313.689 -29.971,-471.67c-0.075,-6.898 -5.737,-12.438 -12.635,-12.362c-6.899,0.075 -12.438,5.737 -12.363,12.636c1.735,158.779 13.224,316.2 30.111,474.055c6.213,58.082 13.245,116.16 22.252,173.883c3.232,20.714 7.242,41.255 12.156,61.635c0.262,1.085 2.784,12.544 4.005,15.092c2.288,4.773 5.88,6.289 7.66,6.876c3.786,1.249 7.361,0.801 10.721,-1.343c1.616,-1.031 4.599,-3.135 5.674,-8.372c0.678,-3.304 -0.017,-6.573 -1.698,-9.213Zm-21.578,0.822c-0.495,0.897 -0.933,2 -1.213,3.364c0.247,-1.205 0.66,-2.333 1.213,-3.364Z" style="fill:#7e4021;"/><path d="M1137.7,3650.02c0.698,-1.881 1.059,-3.922 1.021,-6.047c-0.168,-9.197 -7.77,-16.528 -16.967,-16.361c-1.087,0.02 -12.133,0.3 -15.83,12.276c-0.95,3.077 -4.585,18.472 -4.776,19.112c-16.786,56.368 -31.375,113.408 -47.134,170.07c-132.45,476.228 -251.401,958.311 -407.975,1427.37c-2.912,8.725 1.807,18.174 10.532,21.086c8.726,2.913 18.174,-1.807 21.087,-10.532c156.753,-469.595 275.869,-952.221 408.471,-1428.99c15.705,-56.468 30.237,-113.314 46.966,-169.488c0.173,-0.581 4.02,-16.128 4.605,-18.494Z" style="fill:#7e4021;"/><path d="M1077.77,3817.92c-9.445,26.578 37.924,64.036 27.77,88.713c-7.174,17.436 -31.466,31.277 -45.155,43.405c-5.919,5.245 -22.362,26.044 -31.34,25.657c-5.866,-0.253 -40.096,-90.428 -34.743,-100.07c12.523,-22.563 64.051,-40.335 83.468,-57.705Z" style="fill:#ffeeda;"/><path d="M1093.47,3823.51c2.55,-7.179 -0.091,-15.173 -6.415,-19.419c-6.325,-4.246 -14.724,-3.663 -20.402,1.416c-11.075,9.907 -33.29,19.699 -51.74,30.783c-15.828,9.508 -29.061,20.215 -35.189,31.255c-1.795,3.235 -3.509,10.733 -1.639,21.149c3.762,20.958 19.843,64.953 29.626,84.8c3.693,7.493 7.341,12.357 9.386,14.185c4.111,3.675 8.221,4.547 11.225,4.676c5.575,0.24 13.078,-2.174 20.428,-7.773c8.621,-6.568 18.371,-18.24 22.682,-22.06c8.25,-7.309 20.328,-15.244 30.231,-24.2c8.547,-7.73 15.554,-16.27 19.285,-25.338c5.726,-13.915 0.899,-31.224 -9.009,-48.77c-5.054,-8.951 -11.171,-18.163 -15.3,-27.073c-2.275,-4.91 -4.667,-9.418 -3.169,-13.631Zm-28.994,23.148c3.311,8.123 8.168,16.553 13.12,24.868c4.196,7.045 8.454,13.993 11.014,20.602c1.157,2.987 2.537,5.681 1.512,8.173c-2.655,6.453 -8.896,11.877 -15.322,17.174c-8.843,7.289 -18.5,13.92 -25.472,20.097c-2.793,2.474 -7.835,8.191 -13.369,13.76l-25.027,-70.673c6.178,-7.846 18.397,-14.429 30.647,-21.278c7.731,-4.322 15.605,-8.56 22.897,-12.723Z" style="fill:#7e4021;"/><path d="M724.819,5056.63c0.962,-0.306 68.124,-476.748 88.397,-738.853c3.536,-45.711 98.022,-936.07 -70.676,-726.398c-23.938,29.752 -158.525,152.372 -148.425,190.663c13.887,52.645 72.847,452.01 80.337,653.761c7.716,207.815 31.78,478.23 50.367,620.827Z" style="fill:#ebccb8;"/><path d="M708.292,5058.79c0.638,4.898 3.416,9.261 7.584,11.911c4.168,2.65 9.297,3.315 14.003,1.815c1.006,-0.32 8.843,-2.05 11.22,-12.248c0.225,-0.966 1.075,-6.108 2.369,-14.886c11.783,-79.892 68.09,-490.047 86.365,-726.314c2.49,-32.18 49.54,-480.609 19.507,-674.438c-4.997,-32.255 -12.31,-57.877 -21.763,-74.402c-8.586,-15.01 -19.431,-23.576 -31.204,-26.378c-8.59,-2.044 -18.054,-1.263 -28.352,3.5c-11.216,5.188 -24.201,15.856 -38.467,33.587c-16.82,20.905 -88.021,87.527 -125.776,138.779c-10.755,14.6 -18.906,28.165 -23.099,39.369c-3.983,10.643 -4.599,19.933 -2.679,27.214c13.809,52.352 72.348,449.501 79.797,650.128c7.735,208.33 31.862,479.414 50.495,622.363Zm18.288,-133.67c-14.876,-145.377 -29.723,-335.076 -35.472,-489.93c-7.533,-202.875 -66.913,-604.454 -80.877,-657.393c-0.771,-2.924 1.267,-6.527 3.372,-11.079c3.743,-8.094 9.716,-17.326 17.013,-27.232c37.469,-50.864 108.216,-116.906 124.909,-137.654c8.607,-10.697 16.252,-18.191 23.313,-22.511c3.721,-2.277 6.842,-3.752 9.817,-3.044c1.952,0.465 3.552,1.883 5.167,3.655c3.082,3.383 5.733,8.021 8.219,13.633c6.175,13.941 10.789,33.127 14.359,56.169c29.691,191.627 -17.34,634.949 -19.801,666.763c-13.612,175.982 -48.399,448.74 -70.019,608.623Z" style="fill:#7e4021;"/><path d="M677.378,3679.53c3.024,13.204 4.668,26.809 6.914,40.151c5.64,33.51 9.493,67.317 13.267,101.079c10.52,94.087 18.46,188.15 23.12,282.713c14.051,285.157 4.303,570.572 -21.617,854.689c-0.836,9.161 5.923,17.276 15.083,18.112c9.161,0.836 17.277,-5.923 18.112,-15.083c26.062,-285.669 35.843,-572.644 21.715,-859.359c-4.694,-95.252 -12.689,-190.002 -23.286,-284.776c-3.843,-34.373 -7.781,-68.791 -13.524,-102.908c-2.453,-14.573 -4.283,-29.434 -7.698,-43.824c-0.554,-2.335 -2.105,-6.935 -3.455,-9.175c-2.14,-3.551 -4.879,-5.58 -7.02,-6.702c-3.849,-2.018 -7.721,-2.383 -11.485,-1.573c-3.508,0.755 -7.82,2.536 -11.111,7.995c-3.62,6.005 -3.005,13.388 0.985,18.661Zm24.852,1.947l-0.043,0.04l0.026,-0.023l0.017,-0.017Zm0.683,-0.694l-0.449,0.463l0.224,-0.221l0.225,-0.242Zm0.007,-0.008c0.707,-0.757 1.388,-1.647 2.021,-2.697c-0.593,0.983 -1.271,1.883 -2.021,2.697Z" style="fill:#7e4021;"/><path d="M798.131,3560.76c0.676,-1.03 -18.841,7.48 -20.047,8.67c-25.715,25.359 -51.747,49.729 -75.645,76.952c-52.37,59.654 -105.09,118.952 -157.128,178.913c-131.622,151.661 -265.028,301.631 -394.767,454.932c-41.287,48.784 -78.821,105.855 -124.307,150.748c-1.111,1.096 -3.418,3.537 -5.564,2.899c-9.706,-2.881 1.201,-36.807 2.443,-41.826c27.835,-112.562 72.825,-222.502 119.241,-328.436c47.316,-107.986 100.001,-214.908 158.662,-317.21c118.598,-206.829 254.882,-266.226 497.112,-185.642Z" style="fill:#ffe6d8;"/><path d="M788.053,3582.99c-24.864,24.472 -49.992,48.071 -73.089,74.381c-52.349,59.63 -105.048,118.904 -157.066,178.841c-131.576,151.609 -264.938,301.526 -394.632,454.775c-41.601,49.156 -79.489,106.608 -125.322,151.843c-1.942,1.917 -5.665,5.045 -9.374,6.464c-4.142,1.586 -8.448,1.795 -12.64,0.551c-7.344,-2.18 -13.148,-7.811 -15.169,-17.572c-0.95,-4.588 -0.931,-10.804 -0.016,-17.416c1.537,-11.119 5.449,-23.816 6.191,-26.817c28.062,-113.476 73.362,-224.33 120.156,-331.124c47.555,-108.532 100.511,-215.992 159.469,-318.812c61.611,-107.446 128.377,-176.03 210.638,-207.854c81.681,-31.599 179.247,-27.195 303.851,13.917c4.672,0.768 7.475,3.403 8.537,4.406c3.216,3.04 4.961,6.778 5.203,11.229c0.143,2.633 -0.155,6.185 -2.732,10.104c-2.491,3.791 -6.326,6.291 -10.547,7.165l-13.458,5.919Zm-30.02,-17.243c-23.251,22.754 -46.539,45.05 -68.119,69.633c-52.391,59.677 -105.131,118.999 -157.19,178.984c-131.668,151.713 -265.119,301.735 -394.902,455.089c-32.868,38.836 -63.296,83 -97.356,121.947c27.681,-110.036 71.757,-217.493 117.157,-321.106c47.076,-107.44 99.49,-213.824 157.855,-315.609c56.987,-99.383 117.66,-163.911 193.748,-193.347c68.399,-26.461 148.753,-24.371 248.807,4.409Z" style="fill:#7e4021;"/><path d="M640.98,3526.98c-1.382,1.773 -9.453,12.053 -17.672,21.214c-50.218,55.977 -174.631,180.207 -189.762,198.234c-96.114,114.508 -175.129,242 -256.274,367.174c-54.236,83.664 -118.43,167.007 -152.548,261.841c-3.114,8.655 1.385,18.211 10.041,21.324c8.655,3.114 18.211,-1.385 21.325,-10.04c33.259,-92.448 96.281,-173.434 149.152,-254.993c80.403,-124.028 158.601,-250.416 253.835,-363.876c15.071,-17.955 139.026,-141.652 189.043,-197.404c11.018,-12.281 18.66,-21.666 21.554,-26.428c2.261,-3.721 3.081,-6.765 3.362,-8.643c1.363,-9.097 -4.917,-17.589 -14.014,-18.952c-7.888,-1.181 -15.321,3.383 -18.042,10.549Z" style="fill:#7e4021;"/></g></svg>