<?xml version="1.0" encoding="UTF-8" standalone="no"?><!DOCTYPE svg PUBLIC "-//W3C//DTD SVG 1.1//EN" "http://www.w3.org/Graphics/SVG/1.1/DTD/svg11.dtd"><svg width="100%" height="100%" viewBox="0 0 1926 4627" version="1.1" xmlns="http://www.w3.org/2000/svg" xmlns:xlink="http://www.w3.org/1999/xlink" xml:space="preserve" xmlns:serif="http://www.serif.com/" style="fill-rule:evenodd;clip-rule:evenodd;stroke-linejoin:round;stroke-miterlimit:2;"><g id="Wooden-spoon" serif:id="Wooden spoon"><g><path d="M861.215,4591.57c221.463,-49.493 442.725,-275.921 486.629,-533.893c97.611,-573.56 -132.406,-652.482 -144.736,-1029.95c-11.906,-364.497 200.661,-971.692 278.512,-1334.78c204.092,-951.878 595.393,-1606.26 347.137,-1672.94c-150.895,-40.53 -283.894,450.242 -742.559,2139.93c-64.974,239.359 -153.946,566.932 -299.577,772.07c-200.08,281.838 -974.647,581.045 -716.893,1263.68c66.931,177.259 361.139,492.058 791.487,395.883Z" style="fill:#e4ac87;"/><path d="M864.85,4607.84c227.158,-50.766 454.392,-282.758 499.424,-547.362c59.322,-348.575 -0.863,-516.779 -61.168,-678.157c-39.114,-104.67 -78.48,-206.344 -83.34,-355.133c-11.871,-363.42 200.529,-968.725 278.15,-1330.74c142.953,-666.729 377.608,-1187.62 420.383,-1463.02c20.099,-129.405 -3.512,-207.565 -85.219,-229.511c-27.651,-7.427 -55.058,-1.112 -83.142,23.422c-24.134,21.083 -49.364,56.874 -76.304,110.154c-119.946,237.215 -281.941,833.409 -603.52,2018.09c-64.517,237.676 -152.477,563.094 -297.083,766.789c-99.707,140.45 -342.79,284.972 -528.602,479.682c-190.545,199.67 -322.013,450.684 -190.293,799.53c68.582,181.633 369.746,504.809 810.714,406.261l0,-0Zm-7.27,-32.531c-419.728,93.801 -706.981,-212.62 -772.26,-385.505c-126.034,-333.786 0.904,-573.691 183.224,-764.742c187.053,-196.011 431.294,-342.011 531.668,-483.399c146.655,-206.581 236.64,-536.309 302.071,-777.352c320.551,-1180.89 481.535,-1775.32 601.098,-2011.78c24.383,-48.222 46.644,-81.01 68.487,-100.091c17.896,-15.634 34.945,-21.066 52.566,-16.333c37.94,10.19 57.751,36.995 64.598,78.083c5.138,30.832 3.332,69.028 -3.672,114.119c-42.722,275.056 -277.261,795.248 -420.037,1461.15c-78.08,364.163 -290.814,973.248 -278.873,1338.82c5.004,153.184 45.162,257.949 85.431,365.712c58.77,157.269 117.344,321.198 59.532,660.896c-42.774,251.339 -258.064,472.203 -473.833,520.424l-0,0Z" style="fill:#7e4021;"/><path d="M985.472,4351.51c-0.968,0.388 -1.91,0.875 -2.817,1.463c-8.86,5.739 -7.765,13.162 -7.728,14.543c0.138,5.111 2.193,9.273 6.153,12.49c1.706,1.387 6.256,4.994 13.976,3.376c1.284,-0.269 8.295,-3.533 9.161,-4.206c20.617,-16.034 38.418,-36.423 55.213,-56.259c32.377,-38.24 61.93,-79.085 87.879,-121.945c81.537,-134.671 121.009,-294.007 108.935,-451.111c-15.021,-195.448 -106.306,-334.165 -236.868,-407.811c-130.099,-73.383 -299.886,-82.196 -473.688,-16.266c-8.6,3.262 -12.934,12.894 -9.672,21.494c3.263,8.601 12.894,12.935 21.495,9.672c163.441,-61.999 323.145,-54.876 445.489,14.134c121.879,68.747 205.987,198.88 220.009,381.332c11.544,150.206 -26.257,302.533 -104.214,431.293c-25.04,41.357 -53.561,80.768 -84.805,117.669c-14.857,17.547 -30.439,35.706 -48.518,50.132Zm19.35,25.745c-1.102,1.412 -2.457,2.666 -4.044,3.694c2.106,-1.364 3.321,-2.709 4.044,-3.694Zm3.536,-11.137c0.096,1.917 -0.14,3.834 -0.693,5.661c0.663,-2.038 0.825,-3.935 0.693,-5.661Zm-15.441,-15.777c4.081,0.297 8.015,2.088 10.926,5.19c-2.216,-2.581 -5.677,-5.025 -10.926,-5.19Z" style="fill:#7e4021;"/><path d="M454.451,3389.76c-28.826,28.336 -63.229,52.51 -92.355,81.421c-6.529,6.48 -6.568,17.042 -0.088,23.57c6.48,6.529 17.042,6.568 23.57,0.088c29.088,-28.873 63.452,-53.009 92.24,-81.307c6.56,-6.449 6.651,-17.01 0.202,-23.57c-6.448,-6.56 -17.009,-6.65 -23.569,-0.202Z" style="fill:#7e4021;"/><path d="M302.997,3522.45c-30.337,30.875 -55.236,63.755 -78.079,101.582c-4.755,7.874 -2.223,18.127 5.651,22.883c7.874,4.755 18.128,2.222 22.883,-5.652c21.46,-35.535 44.822,-66.446 73.322,-95.451c6.447,-6.561 6.354,-17.122 -0.207,-23.569c-6.561,-6.447 -17.123,-6.354 -23.57,0.207Z" style="fill:#7e4021;"/></g></g></svg>