<?xml version="1.0" encoding="UTF-8" standalone="no"?><!DOCTYPE svg PUBLIC "-//W3C//DTD SVG 1.1//EN" "http://www.w3.org/Graphics/SVG/1.1/DTD/svg11.dtd"><svg width="100%" height="100%" viewBox="0 0 3432 1639" version="1.1" xmlns="http://www.w3.org/2000/svg" xmlns:xlink="http://www.w3.org/1999/xlink" xml:space="preserve" xmlns:serif="http://www.serif.com/" style="fill-rule:evenodd;clip-rule:evenodd;stroke-linejoin:round;stroke-miterlimit:2;"><g id="Wood-scoop" serif:id="Wood scoop"><path d="M1078.54,124.011c-94.56,52.689 -290.734,118.311 -396.959,86.852c-139.021,-41.171 -249.719,-222.993 -400.771,-189.595c-253.717,56.098 -356.285,420.597 -164.722,599.024c175.152,163.142 397.923,-33.908 583.904,58.646c146.579,72.946 203.88,257.924 346.515,344.686c192.272,116.955 420.785,171.651 630.358,249.217c230.239,85.215 453.001,190.246 689.005,259.581c316.901,93.101 799.621,196.633 1001.99,-161.309c43.029,-76.108 52.61,-173.435 44.015,-258.971c-45.734,-455.169 -674.277,-630.874 -1028.08,-768.379c-387.993,-150.792 -910.554,-439.681 -1305.25,-219.752Z" style="fill:#fcd2b8;"/><path d="M1070.43,109.452c-55.558,30.957 -146.95,66.436 -233.633,83.242c-56.07,10.871 -110.109,14.145 -150.48,2.189c-67.823,-20.086 -128.432,-74.967 -190.814,-120.267c-67.968,-49.357 -137.996,-87.374 -218.288,-69.621c-132.981,29.402 -226.78,139.204 -261.803,265.457c-35.036,126.296 -11.12,268.484 89.319,362.036c91.974,85.667 196.171,78.193 302.069,60.024c97.342,-16.701 196,-43.327 285.77,1.347c71.004,35.336 120.004,98.202 168.907,162.346c51.737,67.86 103.274,137.194 176.371,181.658c193.177,117.505 422.677,172.678 633.235,250.608c230.597,85.348 453.721,190.499 690.092,259.942c159.999,47.005 361.889,96.442 549.291,89.149c191.356,-7.446 367.576,-73.713 471.906,-258.246c44.68,-79.028 55.014,-180.022 46.09,-268.84c-18.783,-186.937 -132.665,-328.384 -286.583,-439.354c-226.016,-162.951 -538.675,-259.968 -752.045,-342.894c-233.67,-90.815 -516.037,-231.334 -790.062,-281.694c-185.928,-34.169 -368.054,-26.952 -529.342,62.918l0,-0Zm16.225,29.118c193.548,-107.846 418.486,-90.002 642.561,-27.647c227.935,63.429 455.007,173.158 648.543,248.375c211.195,82.08 520.913,177.572 744.626,338.862c145.901,105.19 255.106,238.449 272.91,415.648c8.265,82.255 -0.562,175.914 -41.94,249.103c-98.04,173.408 -264.365,234.346 -444.186,241.343c-183.775,7.152 -381.695,-41.727 -538.598,-87.823c-235.637,-69.227 -458.037,-174.138 -687.918,-259.221c-208.587,-77.201 -436.113,-131.42 -627.482,-247.826c-69.538,-42.298 -117.968,-108.833 -167.186,-173.389c-52.051,-68.273 -104.989,-134.368 -180.564,-171.978c-96.214,-47.881 -201.928,-22.258 -306.257,-4.358c-95.773,16.432 -190.534,25.913 -273.714,-51.563c-91.124,-84.876 -111.705,-214.15 -79.918,-328.734c31.799,-114.628 116.142,-215.125 236.879,-241.82c70.764,-15.646 131.604,20.546 191.506,64.046c65.486,47.555 129.736,104.17 200.935,125.256c44.609,13.211 104.332,10.586 166.29,-1.426c90.358,-17.519 185.599,-54.578 243.513,-86.848l0,-0Z" style="fill:#7e4021;"/><path d="M3256.54,1381.38c86.004,-103.312 98.431,-217.176 73.321,-311.596c-43.19,-162.413 -117.472,-263.193 -328.297,-388.58c-238.839,-142.048 -537.858,-230.153 -793.737,-331.96c-178.344,-70.958 -472.234,-181.459 -655.79,-201.091c-148.784,-15.913 -385.558,20.178 -462.721,170.064c-106.637,207.136 225.928,406.387 365.377,477.641c173.639,88.723 353.245,164.405 520.418,265.53c318.91,192.912 934.718,736.476 1281.43,319.992Z" style="fill:#f7bf9a;"/><path d="M3269.35,1392.04c90.116,-108.251 102.929,-227.608 76.619,-326.542c-44.257,-166.425 -119.851,-270.137 -335.884,-398.622c-239.568,-142.481 -539.437,-231.004 -796.096,-333.121c-179.518,-71.425 -475.414,-182.416 -660.179,-202.177c-91.633,-9.801 -215.767,-0.282 -317.532,42.051c-69.864,29.063 -129.154,73.582 -161.78,136.956c-45.841,89.045 -17.584,176.984 44.128,255.056c87.65,110.886 243.341,201.55 328.485,245.055c173.284,88.542 352.543,164.031 519.374,264.949c192.241,116.289 492.078,359.031 776.258,444.535c195.185,58.726 383.059,44.296 526.607,-128.14l0,0Zm-25.618,-21.326c-133.821,160.752 -309.426,172.293 -491.385,117.546c-281.535,-84.708 -578.157,-325.93 -768.609,-441.136c-167.514,-101.331 -347.467,-177.206 -521.46,-266.111c-82.196,-41.998 -232.887,-128.997 -317.502,-236.043c-53.133,-67.219 -80.111,-142.46 -40.641,-219.127c29.105,-56.536 82.621,-95.51 144.946,-121.437c96.518,-40.15 214.277,-48.979 301.184,-39.684c182.349,19.503 474.231,129.513 651.401,200.005c255.099,101.496 553.269,189.184 791.38,330.798c205.616,122.29 278.586,220.139 320.71,378.539c23.908,89.906 11.868,198.277 -70.024,296.65l-0,-0Z" style="fill:#7e4021;"/><path d="M3194.79,992.975c33.632,27.517 48.299,77.062 53.208,118.403c1.085,9.135 9.382,15.67 18.516,14.585c9.135,-1.084 15.67,-9.381 14.585,-18.515c-5.85,-49.263 -25.125,-107.482 -65.201,-140.271c-7.119,-5.825 -17.628,-4.774 -23.453,2.345c-5.825,7.119 -4.774,17.628 2.345,23.453Z" style="fill:#7e4021;"/><path d="M3251.59,1170.43c1.348,11.29 0.665,21.99 -1.711,33.134c-1.918,8.997 3.828,17.858 12.824,19.776c8.997,1.919 17.858,-3.828 19.776,-12.824c3.158,-14.81 4.001,-29.033 2.209,-44.038c-1.091,-9.134 -9.391,-15.664 -18.525,-14.573c-9.134,1.091 -15.664,9.391 -14.573,18.525Z" style="fill:#7e4021;"/><path d="M1006.8,140.642c-32.036,17.251 -69.519,57.626 -103.495,104.885c-49.895,69.402 -92.579,153.295 -101.854,195.03c-1.995,8.98 3.675,17.89 12.654,19.885c8.98,1.996 17.89,-3.674 19.886,-12.654c8.711,-39.199 49.516,-117.619 96.379,-182.803c30.53,-42.466 63.448,-79.493 92.234,-94.994c8.099,-4.362 11.134,-14.478 6.773,-22.577c-4.362,-8.099 -14.478,-11.133 -22.577,-6.772Z" style="fill:#7e4021;"/><path d="M779.413,598.959c-2.262,55.388 -2.558,114.173 12.384,167.963c2.462,8.863 11.657,14.06 20.52,11.598c8.863,-2.462 14.06,-11.656 11.598,-20.519c-14.025,-50.488 -13.32,-105.694 -11.197,-157.682c0.376,-9.191 -6.781,-16.958 -15.972,-17.333c-9.191,-0.375 -16.958,6.782 -17.333,15.973Z" style="fill:#7e4021;"/></g></svg>