<?xml version="1.0" encoding="UTF-8" standalone="no"?><!DOCTYPE svg PUBLIC "-//W3C//DTD SVG 1.1//EN" "http://www.w3.org/Graphics/SVG/1.1/DTD/svg11.dtd"><svg width="100%" height="100%" viewBox="0 0 4639 3371" version="1.1" xmlns="http://www.w3.org/2000/svg" xmlns:xlink="http://www.w3.org/1999/xlink" xml:space="preserve" xmlns:serif="http://www.serif.com/" style="fill-rule:evenodd;clip-rule:evenodd;stroke-linejoin:round;stroke-miterlimit:2;"><g id="Challah-Face"><path d="M3555.68,92.35c11.468,-9.433 49.081,-20.838 62.909,-23.6c26.782,-5.349 53.675,-9.86 80.823,-12.904c83.473,-9.359 166.909,-9.504 250.341,1.251c244.627,31.534 433.796,153.294 490.474,398.9c4.96,21.495 11.929,89.041 -2.008,110.249c-2.361,3.593 -138.244,-108.844 -200.203,-149.733c-87.733,-57.897 -410.885,-143.954 -444.872,-157.549c-62.651,-25.06 -176.977,-122.314 -237.464,-166.614Z" style="fill:#e4a57c;"/><path d="M3545.09,79.479c-3.975,3.27 -6.217,8.194 -6.072,13.34c0.145,5.146 2.659,9.936 6.812,12.977c61.354,44.936 177.572,143.223 241.122,168.643c33.746,13.498 354.77,98.497 441.882,155.985c55.77,36.805 171.428,131.569 195.723,147.535c8.956,5.885 16.046,4.928 17.708,4.5c4.586,-1.182 7.719,-3.772 9.88,-7.06c5.318,-8.092 8.877,-21.319 10.196,-36.847c2.573,-30.298 -2.183,-70.299 -5.876,-86.303c-58.383,-252.992 -252.599,-379.2 -504.583,-411.682c-84.761,-10.927 -169.526,-10.792 -254.329,-1.283c-27.62,3.096 -54.983,7.68 -82.231,13.122c-15.49,3.094 -57.385,16.505 -70.232,27.073Zm883.814,460.56c-39.682,-29.796 -133.281,-105.476 -181.71,-137.436c-88.354,-58.308 -413.635,-145.422 -447.862,-159.113c-54.938,-21.975 -149.985,-100.553 -212.274,-148.374l-0.001,0c12.859,-4.673 27.564,-8.578 34.794,-10.022c26.316,-5.256 52.741,-9.694 79.416,-12.685c82.143,-9.21 164.251,-9.366 246.353,1.217c237.272,30.586 421.391,147.898 476.365,386.119c2.799,12.127 6.22,39.846 5.725,64.385c-0.113,5.585 -0.309,11.002 -0.806,15.909Z" style="fill:#7e4021;"/><path d="M3798,263.198c94.826,-0.637 190.501,14.986 286.41,48.301c482.795,167.708 631.284,766.291 482.898,1209.99c-54.497,162.957 -156.752,326.467 -278.918,446.725c-167.889,165.265 -523.949,282.726 -523.949,282.726c-0,0 -283.039,344.412 -475.439,468.961c-48.561,31.436 -99.725,59.35 -151.936,84.213c-190.566,90.746 -511.754,95.401 -511.754,95.401c-0,0 -196.617,190.176 -341.562,230.849c-226.553,63.574 -591.452,-14.919 -591.452,-14.919c0,0 -286.391,211.639 -562.203,235.168c-170.261,14.524 -401.236,-19.468 -519.41,-156.059c-43.454,-50.226 -126.81,-159.984 -126.81,-159.984c0,-0 -98.218,-31.451 -142.121,-50.842c-153.132,-67.633 -246.927,-217.363 -290.524,-374.737c-79.662,-287.559 -19.6,-606.437 165.322,-835.461c100.063,-123.928 252.308,-231.699 405.715,-279.915c118.244,-37.165 207.881,-41.812 207.881,-41.812c0,-0 61.918,-190.858 266.925,-335.773c178.248,-125.999 361.201,-94.3 401.477,-118.465c27.662,-16.598 45.321,-233.003 287.041,-403.528c257.493,-181.653 614.03,-233.682 614.03,-233.682c0,0 157.193,-199.029 441.157,-301.147c257.493,-92.598 784.549,-36.427 957.222,203.987Z" style="fill:#e4a57c;"/><path d="M1489.18,983.724c-11.117,6.101 -33.292,7.08 -62.879,9.672c-80.805,7.08 -210.955,18.621 -338.851,109.027c-180.888,127.866 -252.812,290.826 -269.288,333.584c-27.833,2.489 -105.179,11.627 -200.895,41.711c-156.408,49.16 -311.664,158.993 -413.684,285.344c-188.231,233.123 -249.504,557.678 -168.417,850.382c44.907,162.102 142.119,315.867 299.852,385.533c38.446,16.98 118.051,43.126 138.76,49.849c15.689,20.572 85.678,111.994 124.301,156.636c121.457,140.386 358.438,176.688 533.431,161.76c256.154,-21.852 521.403,-203.328 564.59,-233.981c52.941,10.611 381.536,72.274 592.151,13.173c134.379,-37.708 312.588,-201.019 343.863,-230.384c46.957,-1.297 335.103,-12.574 512.116,-96.866c52.862,-25.172 104.66,-53.441 153.827,-85.269c182.131,-117.901 445.024,-431.164 476.201,-468.679c42.384,-14.487 367.078,-128.859 525.822,-285.122c123.969,-122.032 227.731,-287.954 283.032,-453.316c151.047,-451.66 -1.781,-1060.31 -493.235,-1231.02c-94.905,-32.967 -189.589,-48.923 -283.471,-49.238c-71.982,-95.165 -198.256,-162.083 -341.338,-201.712c-217.289,-60.181 -472.922,-57.741 -629.932,-1.278c-261.607,94.078 -417.328,269.175 -444.363,301.351c-49.546,8.074 -374.702,66.167 -614.792,235.543c-173.09,122.109 -233.936,267.164 -264.531,349.062c-7.489,20.046 -13.041,36.128 -18.059,46.822c-1.391,2.964 -3.605,6.476 -4.211,7.419Zm2295.28,-710.804c3.154,4.392 8.242,6.98 13.649,6.944c92.979,-0.624 186.788,14.712 280.829,47.379c474.138,164.7 618.286,753.217 472.561,1188.96c-53.693,160.553 -154.44,321.65 -274.804,440.133c-165.754,163.164 -517.478,278.777 -517.478,278.777c-2.997,0.988 -5.652,2.807 -7.655,5.245c-0,0 -280.693,341.957 -471.62,465.552c-47.955,31.044 -98.485,58.604 -150.044,83.156c-187.967,89.508 -504.831,93.785 -504.831,93.785c-4.24,0.061 -8.297,1.736 -11.345,4.685c-0,-0 -192.398,186.912 -334.478,226.781c-223.49,62.714 -583.444,-15.166 -583.444,-15.166c-4.678,-1.006 -9.562,0.047 -13.41,2.891c-0,-0 -282.006,208.786 -553.715,231.965c-165.531,14.121 -390.498,-17.561 -505.389,-150.357c-43.228,-49.966 -126.141,-159.16 -126.141,-159.16c-2.07,-2.726 -4.93,-4.749 -8.19,-5.793c-0,0 -97.081,-31.051 -140.47,-50.215c-148.532,-65.601 -238.91,-211.296 -281.196,-363.94c-78.237,-282.415 -19.386,-595.615 162.227,-820.542c98.106,-121.503 247.34,-227.212 397.745,-274.485c115.902,-36.429 203.747,-41.068 203.747,-41.068c6.898,-0.357 12.86,-4.932 14.991,-11.501c-0,-0 60.706,-185.941 260.691,-327.306c121.652,-85.993 245.66,-96.306 322.52,-103.041c37.273,-3.265 64.582,-6.745 77.912,-14.743c3.317,-1.99 6.804,-5.178 10.078,-9.937c4.335,-6.301 8.949,-16.628 14.191,-30.391c25.859,-67.886 74.524,-230.342 263.804,-363.873c254.455,-179.509 606.83,-230.808 606.83,-230.808c4.214,-0.615 8.033,-2.82 10.673,-6.162c-0,0 154.624,-195.428 433.717,-295.794c151.981,-54.655 399.425,-56.218 609.755,2.035c138.534,38.369 261.162,102.528 328.29,195.991Z" style="fill:#7e4021;"/><path d="M332.977,2857.94c-63.052,-30.416 -134.134,-131.95 -145.919,-156.907c-3.928,-8.318 -13.87,-11.882 -22.187,-7.954c-8.318,3.928 -11.882,13.87 -7.954,22.188c13.007,27.545 91.985,139.125 161.577,172.695c8.285,3.997 18.256,0.515 22.253,-7.77c3.996,-8.285 0.515,-18.256 -7.77,-22.252Z" style="fill:#7e4021;"/><path d="M162.764,2637.72c-15.049,-35.217 -32.666,-100.647 -34.73,-118.743c-1.042,-9.139 -9.308,-15.713 -18.447,-14.671c-9.14,1.042 -15.714,9.308 -14.672,18.447c2.225,19.507 20.975,90.104 37.196,128.065c3.615,8.458 13.417,12.391 21.875,8.777c8.459,-3.615 12.392,-13.417 8.778,-21.875Z" style="fill:#7e4021;"/><path d="M4481.71,1498.63c-0.83,3.516 -3.16,13.368 -3.289,13.85c-22.11,82.531 -65.767,158.924 -116.73,226.874c-5.519,7.359 -4.026,17.814 3.333,23.334c7.359,5.519 17.814,4.025 23.333,-3.334c53.489,-71.318 99.056,-151.627 122.262,-238.248c0.188,-0.704 3.318,-11.823 4.276,-18.213c0.542,-3.621 0.455,-6.587 0.183,-8.337c-1.455,-9.347 -7.635,-12.847 -12.362,-14.167c-8.859,-2.474 -18.061,2.71 -20.535,11.569c-0.626,2.24 -0.762,4.502 -0.471,6.672Zm11.256,13.623c0.259,0.088 0.521,0.167 0.785,0.241l-0.785,-0.241Zm-5.038,-2.712c1.52,1.227 3.191,2.097 4.952,2.683c-1.837,-0.621 -3.501,-1.538 -4.952,-2.683Zm-0.126,-0.099l0.017,0.013l-0.055,-0.045l0.038,0.032Z" style="fill:#7e4021;"/><path d="M4317.06,1819.3c-0.975,1.645 -3.726,6.171 -6.215,9.299c-15.146,19.036 -43.203,43.888 -49.136,50.171c-6.316,6.687 -6.014,17.244 0.673,23.56c6.688,6.316 17.245,6.015 23.561,-0.673c7.183,-7.605 44.678,-41.187 57.707,-61.594c6.382,-9.997 7.634,-19.041 6.281,-24.674c-2.148,-8.944 -11.154,-14.462 -20.098,-12.314c-7.647,1.836 -12.79,8.686 -12.773,16.225Z" style="fill:#7e4021;"/><path d="M1695.95,3097.53c-95.53,-95.637 -179.995,-212.374 -198.981,-350.116c-24.471,-177.53 39.841,-244.474 99.8,-308.032c44.1,-46.745 85.423,-92.195 94.89,-170.637c15.612,-129.351 -38.976,-227.308 -89.827,-323.676c-35.772,-67.792 -69.624,-134.705 -70.596,-213.06c-0.97,-78.148 31.144,-167.185 124.607,-279.774c96.612,-116.382 233.449,-191.789 382.018,-216.879c230.28,-38.888 375.844,47.665 505.755,238.763c264.601,389.226 308.427,971.519 58.092,1419.87c-4.485,8.031 -1.605,18.193 6.427,22.677c8.031,4.484 18.192,1.605 22.677,-6.427c256.505,-459.396 211.493,-1056.04 -59.629,-1454.86c-138.269,-203.392 -293.778,-294.281 -538.873,-252.891c-156.413,26.414 -300.402,105.93 -402.114,228.456c-100.47,121.029 -133.334,217.473 -132.291,301.478c1.04,83.797 36.19,155.703 74.446,228.203c47.854,90.688 100.906,182.399 86.215,304.126c-8.459,70.088 -46.64,109.99 -86.043,151.757c-65.292,69.211 -135.222,142.14 -108.576,335.458c19.985,144.988 107.863,268.452 208.42,369.121c6.501,6.508 17.062,6.514 23.57,0.013c6.508,-6.501 6.514,-17.062 0.013,-23.57Z" style="fill:#7e4021;"/><path d="M2372.49,1261.03c-0.846,-40.738 4.818,-78.415 20.834,-115.188c32.749,-75.194 85.136,-141.787 143.743,-198.508c196.789,-190.453 488.351,-315.818 758.574,-218.286c95.674,34.532 181.638,100.045 251.622,172.69c328.956,341.462 331.211,913.026 200.152,1344.56c-2.673,8.801 2.302,18.117 11.104,20.79c8.802,2.673 18.118,-2.302 20.791,-11.104c134.3,-442.208 129.051,-1027.47 -208.041,-1377.38c-73.451,-76.243 -163.898,-144.674 -264.311,-180.916c-282.274,-101.882 -587.507,26.739 -793.072,225.687c-61.704,59.717 -116.644,129.983 -151.123,209.15c-17.968,41.256 -24.548,83.485 -23.599,129.19c0.191,9.196 7.813,16.508 17.009,16.317c9.197,-0.191 16.508,-7.813 16.317,-17.009Z" style="fill:#7e4021;"/><path d="M2394.24,378.139c25.364,-3.898 81.035,-2.633 106.657,-2.851c67.792,-0.577 135.714,2.275 203.119,9.633c219.649,23.978 455.035,90.038 607.332,259.62c30.851,34.353 64.633,75.758 76.671,121.503c2.341,8.896 11.464,14.217 20.36,11.876c8.895,-2.341 14.217,-11.463 11.876,-20.359c-13.348,-50.723 -49.898,-97.202 -84.106,-135.292c-157.774,-175.681 -400.968,-245.644 -628.515,-270.484c-68.7,-7.5 -137.926,-10.417 -207.021,-9.829c-26.771,0.227 -84.933,-0.837 -111.436,3.236c-9.092,1.397 -15.339,9.913 -13.942,19.005c1.397,9.092 9.913,15.339 19.005,13.942Z" style="fill:#7e4021;"/><path d="M2219.69,1198.93c-45.482,-89.229 -138.794,-146.124 -250.225,-179.36c-162.273,-48.4 -362.849,-47.05 -500.594,-29.375c-9.124,1.17 -15.581,9.528 -14.41,18.652c1.17,9.124 9.528,15.581 18.652,14.41c133.951,-17.188 329.021,-18.812 486.825,28.256c101.955,30.41 188.44,80.912 230.054,162.554c4.177,8.196 14.222,11.458 22.418,7.281c8.195,-4.178 11.457,-14.223 7.28,-22.418Z" style="fill:#7e4021;"/><path d="M1529.33,1662.9c-49.854,-72.023 -157.162,-139.542 -222.333,-159.557c-154.889,-47.566 -323.042,-82.183 -486.01,-67.245c-9.16,0.84 -15.915,8.959 -15.075,18.119c0.839,9.16 8.958,15.915 18.118,15.075c158.687,-14.546 322.361,19.6 473.181,65.916c59.972,18.417 158.835,80.387 204.711,146.663c5.236,7.564 15.627,9.454 23.19,4.219c7.563,-5.236 9.453,-15.627 4.218,-23.19Z" style="fill:#7e4021;"/><path d="M497.61,3028.1c-18.481,-39.88 -29.408,-74.765 -37.175,-118.003c-19.661,-109.457 -9.284,-222.051 27.371,-327.043c112.206,-321.393 484.222,-494.701 802.189,-363.814c53.714,22.111 104.67,54.045 149.366,90.799c26.497,21.789 55.285,66.692 87.534,92.547c26.869,21.541 55.955,30.992 87.138,15.724c8.262,-4.045 11.685,-14.036 7.64,-22.297c-4.045,-8.262 -14.036,-11.685 -22.298,-7.64c-24.519,12.005 -45.712,-4.556 -66.1,-24.89c-26.282,-26.211 -50.366,-60.79 -72.742,-79.19c-47.225,-38.833 -101.097,-72.516 -157.849,-95.877c-335.443,-138.081 -727.976,44.594 -846.349,383.651c-38.546,110.409 -49.384,228.819 -28.708,343.923c8.301,46.215 19.986,83.5 39.739,126.126c3.868,8.346 13.784,11.981 22.13,8.114c8.346,-3.868 11.982,-13.784 8.114,-22.13Z" style="fill:#7e4021;"/><path d="M3156.6,494.992c4.292,-7.813 16.044,-19.592 30.383,-32.832c36.169,-33.397 89.112,-74.035 100.273,-79.725c159.37,-81.242 345.069,-102.425 522.441,-102.425c9.198,-0 16.666,-7.469 16.666,-16.667c0,-9.199 -7.468,-16.667 -16.666,-16.667c-182.555,0 -373.553,22.446 -537.58,106.062c-11.953,6.093 -69.011,49.165 -107.747,84.932c-17.765,16.403 -31.668,31.593 -36.985,41.272c-4.429,8.062 -1.48,18.204 6.583,22.632c8.062,4.429 18.203,1.48 22.632,-6.582Z" style="fill:#7e4021;"/><path d="M1905.01,1858.05c-26.307,10.244 -65.843,13.59 -92.177,3.352c-8.573,-3.333 -18.24,0.922 -21.573,9.495c-3.333,8.574 0.922,18.24 9.495,21.573c31.654,12.306 78.447,9.842 111.512,-1.592c13.8,35.658 43.868,131.056 97.762,219.456c28.974,47.524 111.135,131.411 195.943,141.61c144.82,17.415 279.767,-111.454 277.665,-246.182c-1.29,-82.673 -30.982,-155.05 -66.246,-245.496c-3.068,-7.869 -41.44,-89.622 -48.585,-107.846l-0.363,-0.972c-1.295,-5.973 -5.843,-11.011 -12.164,-12.626c-8.912,-2.276 -17.996,3.113 -20.272,12.025c-0.255,1 -1.198,6.181 1.765,13.74c7.142,18.215 45.496,99.923 48.563,107.787c33.63,86.257 62.743,155.065 63.973,233.908c1.817,116.496 -115.134,227.625 -240.357,212.567c-74.614,-8.973 -145.97,-84.055 -171.461,-125.867c-51.886,-85.106 -81.035,-176.919 -94.848,-213.25c-2.877,-7.566 -5.278,-13.075 -7.075,-16.204c-2.267,-3.947 -4.698,-6.229 -6.416,-7.471c-2.394,-1.731 -6.546,-3.929 -12.661,-3.009c-2.119,0.319 -10.187,3.954 -12.48,5.002Z" style="fill:#7e4021;"/><path d="M3253.25,1286.36c-2.35,0.914 -10.579,4.168 -12.285,5.466c-4.92,3.745 -6.236,8.255 -6.663,11.178c-0.306,2.098 -0.363,5.432 0.888,9.807c0.993,3.47 3.271,9.031 6.693,16.366c16.434,35.223 61.979,120.106 86.869,216.624c12.229,47.418 16.363,150.916 -29.192,210.687c-76.453,100.311 -237.654,106.763 -319.947,24.286c-55.695,-55.819 -84.764,-124.646 -123.199,-208.871c-3.505,-7.679 -35.387,-92.124 -43.476,-109.938c-3.356,-7.393 -7.73,-10.327 -8.625,-10.84c-7.978,-4.578 -18.172,-1.817 -22.75,6.162c-3.247,5.658 -2.802,12.431 0.58,17.522l0.444,0.937c8.093,17.824 39.995,102.312 43.502,109.995c40.302,88.317 71.527,160.046 129.927,218.577c95.172,95.385 281.637,88.386 370.055,-27.624c51.779,-67.937 48.858,-185.321 34.959,-239.217c-25.854,-100.253 -73.329,-188.293 -89.29,-223.037c31.24,-15.75 65.613,-47.597 78.842,-78.876c3.584,-8.472 -0.385,-18.259 -8.857,-21.842c-8.472,-3.583 -18.26,0.386 -21.843,8.858c-11.006,26.022 -40.954,52.048 -66.632,63.78Z" style="fill:#7e4021;"/><path d="M2679.4,2067.33c-2.772,-3.185 -6.745,-5.323 -11.281,-5.673c-9.818,-0.756 -14.204,3.863 -15.707,5.487c-3.045,3.289 -4.423,7.063 -4.494,11.177c-0.057,3.272 0.605,8.343 5.659,13.002c1.248,1.151 3.991,3.108 8.068,4.964c8.29,3.772 25.772,9.505 33.69,10.765c23.711,3.773 48.103,4.389 71.574,2.259c69.297,-6.29 116.436,-60.077 132.946,-127.551c2.187,-8.935 -3.293,-17.964 -12.228,-20.15c-8.935,-2.187 -17.964,3.292 -20.15,12.227c-13.045,53.311 -48.83,97.308 -103.581,102.277c-20.765,1.885 -42.345,1.357 -63.322,-1.982c-4.314,-0.686 -14.873,-4.459 -21.174,-6.802Zm-12.52,27.611l0.166,-0.004l-0.45,-0l0.284,0.004Zm-0.544,-0.009l-0.778,-0.04c0.265,0.021 0.525,0.035 0.778,0.04Zm1.173,-0.007l-0.01,0.001l0.01,-0.001Z" style="fill:#7e4021;"/><path d="M2367.94,2331.36c-54.455,23.277 -113.361,69.92 -117.102,133.61c-5.178,88.166 107.021,93.034 232.574,35.166c73.73,-33.982 161.172,-131.807 101.786,-178.09c-57.613,-44.9 -161.531,-14.507 -217.258,9.314Z" style="fill:#facad0;"/><path d="M3270.18,1948.2c54.639,-22.84 129.14,-32.591 177.43,9.105c66.847,57.719 -7.841,141.588 -136.831,191.322c-75.75,29.206 -206.846,23.762 -198.663,-51.083c7.938,-72.611 102.148,-125.971 158.064,-149.344Z" style="fill:#facad0;"/><path d="M1938.61,1937.45c5.824,-4.701 7.93,-12.935 4.62,-20.018c-3.895,-8.333 -13.823,-11.936 -22.156,-8.042c-1.935,0.905 -6.938,5.019 -12.861,12.946c-12.124,16.227 -40.676,55.668 -89.83,69.678c-8.846,2.521 -13.982,11.75 -11.46,20.596c2.521,8.847 11.75,13.982 20.597,11.46c65.077,-18.548 100.502,-73.649 111.076,-86.604l0.014,-0.016Z" style="fill:#7e4021;"/><path d="M3286.79,1365.79l0.02,0.001c16.661,1.442 80.867,14.427 139.517,-19.327c7.973,-4.588 10.72,-14.786 6.132,-22.758c-4.589,-7.973 -14.786,-10.72 -22.759,-6.132c-44.299,25.495 -92.484,18.493 -112.57,15.882c-9.813,-1.276 -16.251,-0.553 -18.248,0.204c-8.6,3.264 -12.933,12.895 -9.67,21.496c2.774,7.309 10.147,11.536 17.578,10.634Z" style="fill:#7e4021;"/><path d="M1940.62,1967.36c-8.079,50.738 -33.019,88.235 -65.76,115.23c-7.097,5.852 -8.108,16.365 -2.256,23.462c5.851,7.098 16.364,8.109 23.462,2.257c38.562,-31.795 67.956,-75.948 77.473,-135.707c1.447,-9.084 -4.754,-17.634 -13.838,-19.08c-9.084,-1.447 -17.634,4.754 -19.081,13.838Z" style="fill:#7e4021;"/><path d="M3287.66,1415.33c49.495,34.814 101.647,44.496 151.322,38.991c9.143,-1.014 15.743,-9.259 14.729,-18.401c-1.013,-9.143 -9.258,-15.743 -18.401,-14.73c-42.176,4.674 -86.45,-3.565 -128.473,-33.124c-7.523,-5.292 -17.928,-3.48 -23.22,4.044c-5.293,7.523 -3.481,17.928 4.043,23.22Z" style="fill:#7e4021;"/><path d="M4094.36,980.32c39.196,-17.008 433.979,250.04 289.428,343.469c-133.431,86.242 -336.94,-197.536 -398.033,-207.647c-0.448,-0.074 40.666,92.337 51.597,119.645c23.573,58.889 109.814,278.407 -6.159,301.912c-146.388,29.668 -192.027,-323.674 -216.176,-363.942c-1.797,-2.998 -107.137,268.446 -247.171,241.18c-125.162,-24.371 5.91,-263.84 52.48,-324.415c1.687,-2.193 26.02,-28.686 24.835,-30.097c-0.973,-1.16 -109.688,22.99 -205.727,-11.737c-73.648,-26.631 -144.89,-102.642 -123.854,-162.041c59.296,-167.433 364.304,-3.725 367.08,-9.259c2.258,-4.501 -83.59,-150.38 -112.927,-234.298c-26.82,-76.718 -22.671,-182.659 90.099,-177.617c138.479,6.192 200.526,278.873 200.567,278.336c3.633,-47.17 25.37,-94.037 45.109,-136.264c27.293,-58.388 162.105,-277.134 247.677,-173.018c72.127,87.757 -75.496,262.953 -118.583,335.223c-1.656,2.778 -29.112,47.221 -26.476,49.027c2.939,2.014 298.032,-242.6 382.823,-99.758c88.759,149.525 -196.686,246.211 -296.589,261.301Z" style="fill:#fff;"/><path d="M3858.13,677.233c-13.531,-39.821 -34.671,-91.969 -63.913,-135.88c-33.838,-50.814 -78.718,-90.074 -133.641,-92.53c-39.335,-1.759 -67.091,8.815 -86.131,25.881c-18.05,16.18 -28.537,38.569 -32.799,63.876c-5.854,34.747 0.176,75.179 12.353,110.011c20.525,58.712 68.497,147.607 95.037,197.802c-46.936,-19.136 -127.342,-49.17 -198.831,-51.827c-67.08,-2.493 -126.258,18.528 -150.336,86.517c-10.003,28.244 -3.43,59.814 14.832,89.357c24.839,40.182 71.433,76.698 119.064,93.921c62.438,22.577 130.018,21.388 172.151,17.592c-29.286,38.774 -87.996,141.106 -103.455,222.601c-12.118,63.879 2.269,115.073 62.199,126.742c55.91,10.887 107.521,-19.601 149.895,-64.927c44.07,-47.14 78.228,-109.761 97.644,-148.896c0.74,2.771 1.503,5.66 2.295,8.656c14.67,55.533 35.85,144.609 69.262,215.021c16.77,35.34 36.729,66.045 60.078,86.495c25.908,22.69 55.957,33.423 90.669,26.388c54.926,-11.132 74.025,-57.889 72.407,-116.263c-2.108,-76.018 -39.547,-171.856 -54.086,-208.177c-5.522,-13.795 -18.724,-44.161 -30.412,-70.884c44.506,37.342 106.882,101.324 171.785,145.896c68.396,46.97 139.946,71.116 198.637,33.182c35.999,-23.268 45.124,-55.187 36.312,-91.191c-7.605,-31.071 -30.246,-65.948 -61.136,-100.141c-60.208,-66.645 -151.524,-131.556 -211.312,-162.973c66.083,-18.319 152.211,-52.428 207.746,-99.525c55.049,-46.684 81.201,-105.445 40.836,-173.445c-34.602,-58.293 -99.421,-62.615 -169.241,-40.598c-63.322,19.966 -130.649,61.192 -177.451,92.966c29.865,-45.904 83.836,-118.116 111.86,-186.975c23.309,-57.272 28.075,-112.462 -4.388,-151.96c-16.904,-20.567 -35.631,-30.491 -54.855,-33.093c-27.249,-3.688 -56.506,8.054 -84.474,29.575c-62.097,47.783 -119.355,143.761 -136.323,180.06c-11.375,24.335 -23.278,50.185 -32.278,76.746Zm239.543,285.672c60.048,-10.229 177.198,-46.691 245.212,-104.37c41.793,-35.443 64.377,-79.382 33.732,-131.008c-21.588,-36.367 -59.784,-41.509 -101.983,-33.219c-47.996,9.43 -101.076,36.203 -146.326,63.374c-55.982,33.616 -100.193,68.154 -109.33,74.137c-10.644,6.969 -19.047,1.548 -20.273,0.708c-3.225,-2.21 -9.953,-8.628 -6.499,-20.239c2.734,-9.19 26.476,-48.383 28.079,-51.073c25.575,-42.896 88.55,-122.345 119.289,-197.875c18.127,-44.542 25.982,-87.512 0.735,-118.23c-10.481,-12.752 -21.655,-19.613 -33.574,-21.226c-19.468,-2.634 -39.695,7.586 -59.676,22.961c-57.763,44.447 -110.67,133.992 -126.453,167.758c-18.919,40.473 -40.109,85.275 -43.59,130.485c-0.389,5.05 -2.555,7.864 -3.759,9.324c-3.891,4.719 -8.659,6.291 -13.679,6.044c-0.426,-0.021 -12.008,0.099 -15.317,-12.469c-0.117,-0.443 -0.742,-3.077 -1.886,-7.504c-6.61,-25.579 -31.1,-113.376 -75.902,-180.655c-27.594,-41.436 -62.599,-75.702 -107.386,-77.705c-28.331,-1.267 -48.68,5.11 -62.393,17.403c-12.519,11.221 -19.222,27.038 -22.178,44.591c-4.976,29.54 0.597,63.861 10.949,93.473c26.25,75.088 98.103,200.028 110.556,227.536c2.181,4.816 3.028,8.259 3.217,9.838c0.553,4.606 -0.649,7.839 -1.681,9.896c-1.951,3.888 -6.309,10.013 -16.597,9.286c-3.03,-0.214 -17.184,-5.628 -38.229,-14.346c-47.286,-19.586 -137.439,-55.04 -212.001,-51.907c-44.362,1.864 -83.045,18.022 -99.44,64.318c-6.828,19.279 -0.702,40.535 11.764,60.701c21.249,34.374 61.3,65.369 102.046,80.102c82.993,30.01 175.866,13.885 194.288,11.24c5.237,-0.751 8.408,-0.322 9.174,-0.159c5.065,1.076 7.784,3.731 9.365,5.616c2.026,2.414 7.171,10.046 1.293,20.194c-3.27,5.645 -24.078,28.689 -25.682,30.776c-27.041,35.173 -83.633,132.62 -98.328,210.085c-8.139,42.91 -4.436,79.973 35.821,87.811c44.92,8.747 85.129,-18.556 119.174,-54.972c55.878,-59.77 94.679,-145.907 106.166,-170.21c2.662,-5.631 4.657,-8.966 5.353,-9.848c1.627,-2.059 3.22,-3.204 4.32,-3.898c5.384,-3.393 10.207,-2.97 13.867,-1.839c3.583,1.108 6.945,3.283 9.399,7.375c4.748,7.917 10.638,26.789 17.412,52.431c14.27,54.022 34.646,140.748 67.149,209.244c14.618,30.807 31.571,57.882 51.925,75.709c17.797,15.587 38.241,23.628 62.086,18.795c37.882,-7.678 46.823,-42.41 45.707,-82.67c-1.993,-71.886 -37.962,-162.367 -51.711,-196.713c-9.812,-24.512 -44.012,-101.614 -50.426,-116.736c-1.379,-3.25 -1.926,-5.258 -1.998,-5.597c-1.899,-8.892 2.828,-13.535 4.255,-15.027c3.838,-4.012 8.672,-5.931 14.767,-4.922c12.773,2.114 31.479,13.586 53.533,31.938c44,36.616 106.194,100.945 171.058,145.49c29.261,20.095 58.987,36.153 87.772,42.931c26.038,6.132 51.188,4.414 73.901,-10.266c21.821,-14.105 27.37,-33.446 22.028,-55.271c-6.549,-26.758 -26.89,-56.274 -53.492,-85.72c-58.992,-65.299 -149.247,-128.97 -205.974,-157.874c-12.303,-6.269 -22.896,-10.859 -31.08,-13.253c-2.217,-0.648 -4.974,-1.131 -6.342,-1.348c-1.034,0.167 -2.042,0.325 -3.032,0.474c-8.277,1.25 -16.198,-3.833 -18.508,-11.879c-2.311,-8.046 1.705,-16.557 9.384,-19.89c2.652,-1.151 5.967,-1.975 9.949,-2.126Z" style="fill:#7d3f21;"/><path d="M3874.53,785.364c-227.486,-36.433 -283.863,306.87 -53.531,340.889c240.816,35.568 279.524,-304.696 53.531,-340.889Z" style="fill:#ffce7b;"/><path d="M3877.17,768.907c-249.461,-39.952 -311.183,336.528 -58.602,373.834c79.051,11.676 137.997,-14.289 175.392,-56.549c87.283,-98.64 56.364,-289.554 -116.79,-317.285l-0,-0Zm-5.271,32.914c143.235,22.939 169.299,180.686 97.098,262.282c-30.956,34.984 -80.119,55.328 -145.558,45.662c-208.083,-30.733 -157.052,-340.858 48.46,-307.944l-0,-0Z" style="fill:#7d3f21;"/><path d="M3751.64,1002.14c7.86,12.916 18.383,24.263 30.837,32.897c46.628,32.328 96.483,20.535 133.335,-15.965c6.535,-6.474 6.586,-17.035 0.113,-23.57c-6.473,-6.536 -17.035,-6.587 -23.57,-0.114c-25.167,24.927 -59.042,34.333 -90.886,12.255c-8.634,-5.986 -15.904,-13.876 -21.354,-22.832c-4.782,-7.858 -15.044,-10.355 -22.902,-5.573c-7.858,4.782 -10.355,15.044 -5.573,22.902Z" style="fill:#7d3f21;"/><path d="M3818.79,892.069c0.821,-1.899 1.295,-3.985 1.346,-6.181c0.213,-9.196 -7.08,-16.835 -16.276,-17.048c-4.865,-0.112 -7.151,1.257 -8.701,2.123c-1.977,1.104 -5.94,2.219 -8.123,10.724c-2.889,11.254 -5.643,22.545 -8.528,33.799c-2.285,8.91 3.094,17.999 12.005,20.284c8.91,2.284 17.999,-3.095 20.284,-12.006c2.705,-10.553 5.295,-21.139 7.993,-31.695Zm-9.092,8.895c-2.039,0.825 -4.274,1.255 -6.61,1.201c3.161,0.073 5.178,-0.536 6.61,-1.201Z" style="fill:#7d3f21;"/><path d="M3920.37,908.778c0.821,-1.9 1.295,-3.986 1.346,-6.181c0.213,-9.196 -7.081,-16.835 -16.277,-17.048c-4.865,-0.113 -7.15,1.256 -8.701,2.122c-1.977,1.104 -5.939,2.219 -8.123,10.724c-2.889,11.254 -5.642,22.545 -8.528,33.799c-2.284,8.91 3.095,17.999 12.005,20.284c8.911,2.284 18,-3.095 20.284,-12.005c2.706,-10.553 5.296,-21.139 7.994,-31.695Zm-9.092,8.894c-2.039,0.825 -4.275,1.255 -6.61,1.201c3.161,0.073 5.178,-0.536 6.61,-1.201Z" style="fill:#7d3f21;"/></g></svg>