<?xml version="1.0" encoding="UTF-8" standalone="no"?><!DOCTYPE svg PUBLIC "-//W3C//DTD SVG 1.1//EN" "http://www.w3.org/Graphics/SVG/1.1/DTD/svg11.dtd"><svg width="100%" height="100%" viewBox="0 0 3423 5506" version="1.1" xmlns="http://www.w3.org/2000/svg" xmlns:xlink="http://www.w3.org/1999/xlink" xml:space="preserve" xmlns:serif="http://www.serif.com/" style="fill-rule:evenodd;clip-rule:evenodd;stroke-linejoin:round;stroke-miterlimit:2;"><g id="Chocolate-Character"><path d="M341.823,2464.8c-44.555,-231.574 -74.674,-467.918 -103.141,-701.901c-18.123,-148.963 -231.608,-1353.84 -202.611,-1415.12c18.517,-39.14 122.689,-58.446 151.496,-66.079c138.133,-36.599 1825.69,-279.607 1874.24,-244.049c17.886,13.097 67.423,160.465 91.57,310.057c26.879,166.523 27.536,336.263 27.536,336.263c-0,-0 71.47,205.728 94.017,311.972c24.793,116.832 54.742,389.022 54.742,389.022c-0,-0 56.356,193.066 81.738,316.376c53.81,261.406 42.342,424.435 35.136,440.048c-13.913,30.144 -1258.15,166.393 -1760.12,253.427c-90.58,15.706 -257.277,38.797 -344.612,69.989Z" style="fill:#c48464;"/><path d="M309.09,2471.1c1.838,9.552 7.757,17.825 16.204,22.649c8.447,4.823 18.58,5.717 27.74,2.445c85.921,-30.686 249.982,-53.085 339.096,-68.536c452.052,-78.38 1505.71,-196.702 1722.08,-241.561c24.202,-5.018 39.847,-10.118 46.127,-13.576c9.883,-5.442 14.276,-12.386 16.482,-17.165c2.697,-5.843 7.494,-28.037 8.806,-65.327c2.503,-71.172 -3.126,-208.708 -41.558,-395.411c-23.791,-115.577 -74.548,-291.94 -81.576,-316.195c-3.304,-29.598 -31.449,-278.679 -54.946,-389.402c-20.703,-97.556 -82.065,-277.953 -93.345,-310.792c-0.387,-30.925 -3.51,-184.685 -27.908,-335.835c-19.901,-123.29 -56.819,-245.039 -80.114,-295.746c-9.155,-19.929 -18.875,-31.65 -24.669,-35.893c-4.485,-3.284 -14.384,-7.995 -30.51,-9.293c-28.815,-2.319 -97.564,1.905 -192.74,11.225c-462.761,45.319 -1568.37,207.417 -1679.23,236.79c-21.315,5.647 -81.532,17.754 -122.535,38.452c-24.343,12.287 -42.422,28.4 -50.556,45.592c-2.819,5.958 -5.753,18.375 -5.896,36.905c-0.213,27.51 3.832,75.469 11.118,137.638c40.39,344.634 179.932,1139.68 194.432,1258.86c28.559,234.742 58.798,471.849 103.497,704.173Zm32.733,-6.297c-44.555,-231.574 -74.674,-467.918 -103.141,-701.901c-18.123,-148.963 -231.608,-1353.84 -202.611,-1415.12c18.517,-39.14 122.689,-58.446 151.496,-66.079c138.133,-36.599 1825.69,-279.607 1874.24,-244.049c17.886,13.097 67.423,160.465 91.57,310.057c26.879,166.523 27.536,336.263 27.536,336.263c-0,-0 71.47,205.728 94.017,311.972c24.793,116.832 54.742,389.022 54.742,389.022c-0,-0 56.356,193.066 81.738,316.376c53.81,261.406 42.342,424.435 35.136,440.048c-13.913,30.144 -1258.15,166.393 -1760.12,253.427c-90.58,15.706 -257.277,38.797 -344.612,69.989Z" style="fill:#7e4021;"/><path d="M2179.88,680.68c-101.463,-86.787 -331.538,-55.309 -497.401,8.038c-99.301,37.925 -95.447,60.942 -143.175,72.943c-11.951,3.005 -108.497,-38.251 -254.317,-35.879c-110.372,1.796 -250.602,4.101 -357.92,62.319c-61.916,33.588 -86.868,71.842 -126.092,67.773c-51.395,-5.331 -120.987,-15.337 -159.527,-18.092c-134.818,-9.637 -276.89,5.935 -406.922,50.861c-44.316,15.311 -116.592,63.582 -120.868,75.232c15.85,8.527 92.54,41.461 139.286,45.177c137.166,10.903 278.611,-12.814 406.697,-61.273c36.615,-13.853 101.468,-44.217 149.881,-64.453c36.947,-15.443 70.716,18.152 139.093,36.309c118.519,31.472 254.846,-5.826 362.141,-35.202c141.754,-38.812 224.847,-110.037 237.171,-110.23c49.219,-0.771 50.637,33.285 156.93,36.963c348.868,12.071 475.023,-130.486 475.023,-130.486Z" style="fill:#a76544;"/><path d="M2326.13,1380.4c-103.517,-84.327 -356.938,-44.915 -521.232,22.394c-98.362,40.298 -93.957,63.216 -141.383,76.359c-11.876,3.291 -109.385,-35.636 -255.105,-29.765c-110.297,4.444 -250.432,10.115 -356.321,70.891c-61.092,35.064 -85.119,73.907 -124.43,70.781c-51.508,-4.096 -121.32,-12.43 -159.914,-14.259c-135.011,-6.398 -276.669,12.579 -405.585,60.613c-43.935,16.37 -115.032,66.362 -119.027,78.112c16.05,8.143 93.508,39.228 140.33,41.82c137.388,7.608 278.222,-19.497 405.109,-71.016c36.272,-14.728 100.378,-46.639 148.291,-68.031c36.566,-16.326 71.131,16.449 139.925,32.96c119.239,28.618 254.632,-11.941 361.191,-43.884c140.782,-42.203 222.141,-115.402 234.457,-115.891c49.186,-1.952 51.422,32.061 157.772,33.186c349.057,3.694 495.922,-144.27 495.922,-144.27Z" style="fill:#a76544;"/><path d="M855.383,859.136c-0.622,-20.444 4.683,-31.783 10.809,-49.079c7.43,-20.979 16.356,-49.352 20.806,-104.597c8.756,-108.686 -8.937,-239.907 -51.758,-343.457c-29.456,-71.232 -70.997,-129.356 -123.172,-159.846c-7.942,-4.641 -18.158,-1.962 -22.799,5.98c-4.641,7.942 -1.961,18.158 5.981,22.799c46.684,27.281 82.831,80.07 109.187,143.805c40.897,98.898 57.698,224.239 49.335,328.042c-4.931,61.217 -15.738,86.718 -23.078,107.544c-5.781,16.404 -9.632,30.372 -8.514,52.732c0.184,3.673 3.362,12.116 11.069,23.837c20.271,30.828 73.708,103.401 107.963,213.532c32.254,103.701 74.009,235.358 47.271,352.047c-9.383,40.952 -24.756,69.744 -31.927,94.026c-6.078,20.581 -6.898,38.585 1.508,56.905c21.808,47.523 54.279,111.067 69.326,147.059c51.888,124.11 79.996,262.155 73.914,397.178c-2.041,45.297 -14.708,88.861 -29.133,131.919c-6.647,19.842 -12.168,31.719 -19.103,39.846c-5.971,6.997 -5.138,17.526 1.859,23.497c6.997,5.971 17.526,5.138 23.497,-1.86c8.924,-10.457 16.8,-25.362 25.354,-50.895c15.411,-46.002 28.645,-92.612 30.825,-141.007c6.302,-139.896 -22.699,-282.946 -76.459,-411.535c-15.153,-36.245 -47.823,-100.248 -69.784,-148.104c-6.539,-14.249 -2.179,-28.108 4.078,-45.252c8.183,-22.417 20.447,-49.029 28.537,-84.332c28.038,-122.367 -14.11,-260.645 -47.934,-369.392c-31.204,-100.322 -77.56,-170.776 -102.811,-208.317c-6.602,-9.814 -13.139,-20.313 -14.847,-23.075Z" style="fill:#d49973;"/><path d="M1586.33,758.305c-0.621,-20.444 4.683,-31.782 10.809,-49.079c7.431,-20.979 16.356,-49.352 20.806,-104.597c8.76,-108.73 -9.199,-238.642 -52.241,-341.145c-29.591,-70.47 -71.215,-127.976 -123.381,-158.461c-7.942,-4.641 -18.158,-1.961 -22.799,5.981c-4.641,7.941 -1.961,18.157 5.98,22.798c46.694,27.287 82.98,79.511 109.466,142.588c41.075,97.816 58.109,221.804 49.75,325.562c-4.932,61.217 -15.739,86.718 -23.078,107.544c-5.781,16.404 -9.632,30.372 -8.514,52.732c0.183,3.673 3.361,12.116 11.069,23.837c20.27,30.829 73.707,103.401 107.962,213.532c32.255,103.701 74.009,235.358 47.272,352.047c-9.384,40.952 -24.756,69.744 -31.928,94.026c-6.078,20.581 -6.898,38.586 1.509,56.905c21.807,47.523 54.278,111.067 69.326,147.059c51.887,124.11 79.995,262.155 73.913,397.178c-2.04,45.297 -14.708,88.862 -29.132,131.919c-6.648,19.843 -12.169,31.719 -19.104,39.846c-5.971,6.997 -5.138,17.526 1.86,23.497c6.997,5.971 17.525,5.138 23.496,-1.86c8.924,-10.457 16.801,-25.362 25.354,-50.895c15.412,-46.002 28.646,-92.612 30.826,-141.007c6.301,-139.896 -22.699,-282.946 -76.46,-411.535c-15.153,-36.245 -47.823,-100.248 -69.784,-148.104c-6.538,-14.249 -2.179,-28.108 4.079,-45.252c8.182,-22.417 20.447,-49.029 28.536,-84.332c28.039,-122.367 -14.11,-260.645 -47.934,-369.392c-31.204,-100.322 -77.559,-170.776 -102.811,-208.316c-6.602,-9.815 -13.138,-20.314 -14.847,-23.076Z" style="fill:#d49973;"/><path d="M1561.62,802.483c20.339,0.133 31.336,6.542 48.289,13.562c20.826,8.623 49.078,18.629 104.716,23.352c83.56,7.094 213.627,-5.053 321.174,-42.655c74.11,-25.912 137.391,-64.218 169.677,-115.355c4.911,-7.778 2.583,-18.08 -5.195,-22.991c-7.778,-4.911 -18.08,-2.583 -22.991,5.195c-28.842,45.682 -86.289,78.538 -152.493,101.685c-102.922,35.986 -227.385,47.696 -307.353,40.907c-60.682,-5.151 -85.557,-17.065 -105.889,-25.629c-16.271,-6.853 -30.157,-11.745 -52.711,-11.392c-3.678,0.058 -12.224,2.945 -24.203,10.245c-31.505,19.201 -105.868,70.118 -217.109,100.575c-104.747,28.679 -237.758,65.894 -353.462,35.169c-40.605,-10.782 -68.854,-27.133 -92.875,-35.133c-20.36,-6.781 -38.326,-8.218 -56.923,-0.445c-48.244,20.165 -112.864,50.437 -149.351,64.242c-125.816,47.6 -264.744,70.956 -399.479,60.247c-45.141,-3.588 -82.637,-18.698 -125.118,-34.57c-8.616,-3.22 -18.226,1.162 -21.445,9.779c-3.22,8.617 1.162,18.226 9.779,21.446c45.502,17.001 85.791,32.73 134.143,36.573c139.597,11.096 283.558,-12.98 413.916,-62.299c36.742,-13.901 101.828,-44.357 150.41,-64.663c14.465,-6.046 28.166,-1.214 45.085,5.628c22.123,8.947 48.299,22.117 83.304,31.412c121.333,32.219 260.975,-5.162 370.819,-35.236c101.333,-27.744 173.335,-71.656 211.72,-95.606c10.028,-6.256 20.736,-12.425 23.565,-14.043Z" style="fill:#7e4021;"/><path d="M1687.11,1520.66c20.336,-0.356 31.485,5.787 48.601,12.398c21.027,8.122 49.511,17.447 105.246,20.833c83.562,5.077 221.426,-10.695 334.532,-51.246c78.022,-27.972 144.082,-68.16 175.11,-120.022c4.723,-7.894 2.149,-18.137 -5.745,-22.86c-7.894,-4.722 -18.137,-2.148 -22.859,5.746c-27.759,46.397 -87.955,80.734 -157.756,105.759c-108.626,38.944 -241.008,54.227 -321.26,49.351c-60.789,-3.694 -85.942,-15.007 -106.474,-23.08c-16.431,-6.461 -30.431,-11.018 -52.97,-10.124c-3.675,0.146 -12.149,3.237 -23.95,10.823c-31.035,19.952 -104.154,72.638 -214.632,105.757c-104.028,31.184 -236.108,71.581 -352.516,43.642c-40.852,-9.805 -69.485,-25.473 -93.692,-32.894c-20.517,-6.29 -38.512,-7.296 -56.917,0.922c-47.746,21.317 -111.621,53.131 -147.766,67.807c-124.637,50.606 -262.965,77.291 -397.918,69.818c-45.274,-2.507 -88.705,-15.622 -131.612,-30.49c-8.691,-3.012 -18.193,1.6 -21.204,10.291c-3.012,8.692 1.599,18.193 10.291,21.205c45.841,15.884 92.312,29.598 140.682,32.276c139.824,7.743 283.165,-19.782 412.301,-72.215c36.399,-14.779 100.735,-46.788 148.815,-68.255c14.316,-6.391 28.129,-1.889 45.207,4.544c22.332,8.414 48.816,20.952 84.034,29.404c122.072,29.298 260.777,-11.424 369.866,-44.126c100.639,-30.168 171.567,-75.796 209.365,-100.659c9.875,-6.496 20.433,-12.92 23.221,-14.605Z" style="fill:#7e4021;"/><path d="M1404.7,96.339c-83.256,104.38 -12.088,375.004 56.911,538.596c41.309,97.941 64.18,93.3 77.811,140.589c3.414,11.841 -34.507,109.745 -27.135,255.398c5.58,110.245 12.694,250.314 74.558,355.572c35.692,60.727 74.78,84.353 72.059,123.693c-3.566,51.548 -11.179,121.442 -12.61,160.053c-5.007,135.07 15.428,276.525 64.788,404.939c16.822,43.764 76.452,154.652 88.242,158.525c7.978,-16.132 29.354,-134.216 31.464,-181.062c6.192,-137.459 -22.362,-278.007 -75.186,-404.357c-15.101,-36.118 -47.671,-99.891 -69.555,-147.581c-16.702,-36.396 15.715,-71.297 31.516,-140.257c27.388,-119.528 -14.563,-254.496 -47.602,-360.72c-43.651,-140.34 -117.685,-220.941 -118.3,-233.251c-2.459,-49.163 23.018,-52.093 31.559,-158.105c14.265,-177.074 -27.269,-442.643 -150.842,-514.857l-27.678,2.825Z" style="fill:#7e4021;"/><path d="M678.27,199.026c-83.256,104.38 -12.088,375.004 56.911,538.596c41.309,97.942 64.181,93.3 77.811,140.589c3.414,11.841 -34.507,109.746 -27.135,255.398c5.58,110.245 12.694,250.314 74.558,355.572c35.692,60.727 74.78,84.353 72.059,123.694c-3.565,51.547 -11.179,121.442 -12.61,160.052c-5.007,135.07 15.428,276.525 64.788,404.939c16.822,43.764 76.452,154.652 88.242,158.526c7.978,-16.133 29.354,-134.217 31.464,-181.063c6.192,-137.459 -22.362,-278.007 -75.186,-404.356c-15.101,-36.119 -47.671,-99.892 -69.555,-147.582c-16.702,-36.396 15.715,-71.297 31.517,-140.257c27.388,-119.528 -14.564,-254.496 -47.603,-360.72c-43.651,-140.34 -117.685,-220.941 -118.3,-233.251c-2.458,-49.163 23.018,-52.092 31.559,-158.105c14.265,-177.074 -27.269,-442.643 -150.842,-514.857l-27.678,2.825Z" style="fill:#7e4021;"/><path d="M338.798,2457.7c-0,-0 54.307,-3.282 56.666,-14.504c9.665,-45.956 33.995,-128.114 36.105,-174.961c6.192,-137.459 -22.362,-278.007 -75.186,-404.356c-15.1,-36.118 -47.671,-99.892 -69.555,-147.582c-16.702,-36.396 15.716,-71.297 31.517,-140.257c27.388,-119.528 -14.564,-254.496 -47.603,-360.72c-43.651,-140.34 -117.684,-220.94 -118.3,-233.251c-2.458,-49.163 23.019,-52.092 31.559,-158.105c12.552,-155.807 -36.705,-380.724 -132.901,-481.696c-1.474,-1.547 -22.484,-3.622 -18.168,42.131c7.686,81.463 23.466,239.279 51.36,426.538c23.219,155.875 57.002,331.362 81.382,507.501c76.444,552.287 173.124,1139.26 173.124,1139.26Z" style="fill:#d49973;"/><path d="M168.999,978.983c-0.622,-20.444 4.682,-31.783 10.809,-49.079c7.43,-20.98 16.355,-49.353 20.806,-104.598c12.893,-160.042 -38.637,-390.814 -137.447,-494.531c-1.646,-1.727 -6.958,-5.967 -15.329,-5.77c-9.063,0.213 -36.719,5.63 -31.499,60.963c7.702,81.633 23.516,239.778 51.468,427.429c23.212,155.822 56.986,331.25 81.358,507.33c76.472,552.492 173.188,1139.68 173.188,1139.68c1.388,8.429 8.924,14.443 17.45,13.928c0,0 38.677,-2.703 55.521,-10.044c10.19,-4.441 15.177,-11.611 16.45,-17.666c9.811,-46.649 34.303,-130.088 36.445,-177.641c6.302,-139.895 -22.699,-282.946 -76.459,-411.535c-15.153,-36.244 -47.823,-100.247 -69.784,-148.104c-6.539,-14.249 -2.179,-28.108 4.078,-45.251c8.183,-22.418 20.447,-49.029 28.537,-84.332c28.038,-122.367 -14.11,-260.646 -47.934,-369.393c-31.204,-100.322 -77.56,-170.776 -102.812,-208.316c-6.601,-9.814 -13.138,-20.313 -14.846,-23.075Zm-119.578,-613.592c86.652,103.026 129.718,311.38 117.967,457.239c-4.931,61.217 -15.738,86.717 -23.078,107.544c-5.781,16.404 -9.632,30.371 -8.514,52.732c0.184,3.673 3.362,12.115 11.069,23.837c20.271,30.828 73.708,103.4 107.962,213.531c32.255,103.702 74.01,235.358 47.272,352.048c-9.383,40.951 -24.756,69.744 -31.927,94.025c-6.078,20.581 -6.898,38.586 1.508,56.906c21.808,47.523 54.279,111.067 69.326,147.059c51.888,124.109 79.996,262.155 73.914,397.177c-1.999,44.36 -24.414,120.826 -34.598,166.891c-0.554,0.2 -1.132,0.399 -1.643,0.557c-3.564,1.1 -7.748,1.996 -12.013,2.751c-4.751,0.842 -9.598,1.502 -13.931,2.005l-0,0c-15.641,-95.678 -101.383,-623.812 -170.552,-1123.54c-24.388,-176.198 -58.179,-351.745 -81.406,-507.671c-27.836,-186.869 -43.582,-344.356 -51.252,-425.649c-0.678,-7.192 -0.677,-12.911 -0.104,-17.446Z" style="fill:#7e4021;"/><path d="M1494.32,3324.9c-3.476,98.036 -108.731,1467.45 -113.727,1623.44c-2.722,85.001 -160.332,107.247 -182.17,-3.147c-12.116,-61.248 68.064,-1527.56 66.843,-1589.98" style="fill:#c48464;"/><path d="M1477.66,3324.31c-3.476,98.04 -108.733,1467.5 -113.729,1623.5c-0.852,26.604 -21.984,44.561 -47.064,51.952c-39.739,11.713 -91.267,-3.049 -102.098,-57.8c-12.095,-61.137 68.376,-1524.76 67.156,-1587.07c-0.18,-9.197 -7.793,-16.518 -16.99,-16.338c-9.196,0.18 -16.517,7.793 -16.337,16.99c1.224,62.539 -78.667,1531.53 -66.529,1592.89c15.375,77.723 87.808,99.932 144.222,83.305c39.028,-11.503 69.631,-41.458 70.956,-82.859c4.996,-155.99 110.25,-1525.36 113.725,-1623.39c0.326,-9.193 -6.873,-16.921 -16.066,-17.246c-9.192,-0.326 -16.92,6.872 -17.246,16.065Z" style="fill:#7e4021;"/><path d="M1560.81,3318.1c10.344,97.551 155.418,1468.04 171.345,1623.3c8.678,84.6 167.461,95.735 181.501,-15.919c7.789,-61.947 -138.895,-1549.16 -142.056,-1611.52" style="fill:#c48464;"/><path d="M1544.23,3319.86c10.344,97.548 155.413,1467.99 171.339,1623.24c4.227,41.207 36.856,68.941 76.595,77.677c57.441,12.628 128.137,-14.607 138.022,-93.217c7.804,-62.059 -138.78,-1551.98 -141.946,-1614.45c-0.466,-9.186 -8.303,-16.267 -17.489,-15.801c-9.187,0.465 -16.268,8.302 -15.802,17.489c3.155,62.246 149.94,1546.76 142.164,1608.6c-5.777,45.94 -41.456,66.477 -76.459,66.969c-33.906,0.476 -68.467,-16.954 -71.926,-50.672c-15.927,-155.266 -161.006,-1525.8 -171.35,-1623.35c-0.97,-9.147 -9.184,-15.786 -18.332,-14.816c-9.147,0.97 -15.786,9.184 -14.816,18.331Z" style="fill:#7e4021;"/><path d="M1196.11,4930.77c0.698,-11.229 -45.412,-26.821 -86.726,7.937c-25.62,21.555 -16.23,49.607 -43.162,74.234c-78.226,71.531 -133.485,207.625 -115.656,317.556c15.455,95.294 190.708,142.773 269.74,154.045c49.946,7.125 98.799,4.214 148.287,-4.707c78.529,-14.157 171.048,-56.189 186.453,-118.022c45.136,-181.163 -69.627,-314.386 -59.002,-356.74c4.98,-19.851 -17.358,-53.495 -38.854,-63.11c-35.794,-16.011 -57.547,-3.945 -64.101,-5.169c-14.487,-2.705 -2.893,55.875 -61.673,78.169c-65.04,24.669 -138.775,-28.421 -135.306,-84.193Z" style="fill:#fabea8;"/><path d="M1394.18,4920.11c-9.456,-1.107 -17.394,2.959 -22.669,14.896c-2.077,4.698 -3.828,11.995 -6.507,20.48c-4.588,14.532 -13.083,33.873 -39.499,43.892c-32.797,12.439 -68.155,1.029 -90.621,-19.956c-14.026,-13.101 -23.232,-30.06 -22.14,-47.619c0.49,-7.879 -5.207,-20.097 -21.163,-26.357c-19.385,-7.606 -57.712,-9.122 -92.926,20.506c-12.876,10.832 -18.928,22.83 -23.464,35.476c-4.586,12.788 -6.53,26.697 -20.216,39.211c-81.894,74.885 -139.526,217.439 -120.861,332.524c6.908,42.595 41.262,77.594 87.002,103.921c63.327,36.45 147.928,56.98 196.837,63.956c51.734,7.379 102.338,4.435 153.597,-4.805c49.46,-8.916 104.142,-28.534 143.52,-56.688c28.552,-20.415 49.113,-45.468 56.149,-73.707c32.704,-131.266 -15.002,-238.315 -43.211,-305.71c-5.577,-13.324 -10.332,-24.961 -13.279,-34.795c-2.009,-6.704 -3.557,-12.072 -2.519,-16.209c2.797,-11.149 0.365,-25.559 -6.582,-39.507c-9.139,-18.35 -25.749,-35.767 -41.633,-42.872c-34.282,-15.335 -65.783,-7.717 -69.815,-6.637Zm-214.813,16.728c0.722,24.6 13.041,48.522 32.764,66.944c30.995,28.952 79.945,43.925 125.195,26.763c34.03,-12.907 48.512,-35.889 56.296,-55.949c2.791,-7.194 5.586,-16.41 7.135,-21.751l1.248,-0.219c8.346,-1.617 24.647,-6.067 48.38,4.549c9.913,4.434 19.702,15.853 25.406,27.305c2.955,5.932 5.277,11.794 4.088,16.536c-1.806,7.197 -1.546,16.272 1.064,27.07c2.927,12.109 8.897,27.19 16.317,44.915c26.295,62.822 72.1,162.419 41.614,284.781c-5.289,21.229 -21.727,39.302 -43.192,54.65c-35.646,25.486 -85.272,42.927 -130.046,50.998c-47.716,8.602 -94.818,11.48 -142.976,4.611c-45.93,-6.551 -125.446,-25.617 -184.916,-59.847c-36.13,-20.796 -65.27,-46.722 -70.726,-80.367c-16.994,-104.778 35.893,-234.411 110.452,-302.589c16.031,-14.66 21.626,-30.121 26.651,-45.343c3.304,-10.005 5.969,-20.003 15.993,-28.437c15.97,-13.436 32.74,-17.77 45.894,-17.394c4.624,0.132 10.166,1.72 13.359,2.774Zm211.474,16.461c-0.267,-0.03 -0.537,-0.072 -0.811,-0.123l0.811,0.123Z" style="fill:#7e4021;"/><path d="M1914.95,4910.93c-1.484,-11.153 43.418,-29.941 87.068,1.833c27.07,19.705 19.671,48.346 48.264,71.023c83.052,65.867 147.723,197.749 137.649,308.66c-8.732,96.143 -180.222,155.8 -258.269,172.589c-49.323,10.611 -98.26,11.134 -148.251,5.707c-79.329,-8.612 -174.569,-44.051 -194.274,-104.651c-57.733,-177.549 47.4,-318.495 33.83,-360c-6.36,-19.453 13.563,-54.581 34.331,-65.68c34.583,-18.483 57.128,-7.972 63.58,-9.653c14.262,-3.715 6.807,55.534 67.006,73.65c66.61,20.045 136.439,-38.087 129.066,-93.478Z" style="fill:#fabea8;"/><path d="M1716.62,4914.19c-4.099,-0.795 -36.057,-6.183 -69.178,11.518c-15.346,8.202 -30.694,26.742 -38.523,45.688c-5.952,14.401 -7.367,28.946 -3.794,39.872c1.325,4.053 0.158,9.517 -1.376,16.345c-2.25,10.017 -6.176,21.958 -10.805,35.641c-23.412,69.207 -63.49,179.34 -21.658,307.988c9,27.676 31.267,51.225 61.182,69.586c41.255,25.323 97.179,41.056 147.143,46.48c51.781,5.622 102.466,5.008 153.555,-5.982c48.3,-10.39 131.252,-36.805 191.866,-77.607c43.78,-29.471 75.593,-66.794 79.497,-109.769c10.545,-116.111 -56.946,-254.27 -143.892,-323.226c-14.529,-11.523 -17.445,-25.261 -22.917,-37.696c-5.411,-12.297 -12.29,-23.84 -25.894,-33.743c-37.206,-27.083 -75.332,-22.883 -94.135,-13.936c-15.479,7.365 -20.304,19.952 -19.263,27.777c2.321,17.439 -5.672,35.002 -18.745,49.055c-20.938,22.509 -55.408,36.372 -88.997,26.264c-27.054,-8.141 -36.885,-26.838 -42.481,-41.013c-3.268,-8.276 -5.526,-15.432 -7.927,-19.973c-6.1,-11.537 -14.304,-15.036 -23.658,-13.269Zm-4.265,33.116c1.92,5.219 5.354,14.216 8.644,21.197c9.171,19.464 25.23,41.373 60.081,51.861c46.343,13.946 94.122,-4.424 123.01,-35.48c18.381,-19.76 28.992,-44.487 27.986,-69.077c3.112,-1.275 8.528,-3.248 13.132,-3.704c13.095,-1.298 30.127,1.849 47.001,14.132c10.591,7.71 13.951,17.496 17.948,27.245c6.081,14.831 12.747,29.862 29.767,43.361c79.158,62.779 141.009,188.383 131.408,294.094c-3.083,33.946 -30.332,61.853 -64.914,85.132c-56.922,38.317 -134.905,62.914 -180.262,72.671c-47.558,10.231 -94.745,10.665 -142.947,5.432c-45.231,-4.911 -95.958,-18.827 -133.304,-41.75c-22.489,-13.804 -40.154,-30.68 -46.919,-51.486c-38.995,-119.921 -0.29,-222.486 21.533,-286.998c6.158,-18.202 11.055,-33.664 13.126,-45.949c1.846,-10.955 1.469,-20.025 -0.837,-27.078c-1.52,-4.647 0.386,-10.657 2.917,-16.782c4.886,-11.824 13.851,-23.902 23.428,-29.02c22.93,-12.255 39.503,-8.959 47.941,-7.932l1.261,0.131Zm9.923,-0.243l0.801,-0.179c-0.27,0.07 -0.537,0.131 -0.801,0.179Z" style="fill:#7e4021;"/><path d="M1098.65,4993.59c-1.619,-8.214 -9.2,-14.079 -17.737,-13.364c-4.27,0.358 -19.413,5.389 -14.575,22.036c1.464,5.036 13.936,29.912 14.847,31.413c0.641,1.056 1.278,2.116 1.942,3.158c0.699,1.097 1.422,2.178 2.147,3.258c19.677,29.292 46.981,48.171 79.572,60.949c8.564,3.358 18.243,-0.869 21.6,-9.432c3.358,-8.564 -0.869,-18.243 -9.433,-21.601c-26.128,-10.244 -48.293,-25.019 -64.069,-48.504c-0.575,-0.856 -1.151,-1.712 -1.706,-2.583c-0.533,-0.837 -1.042,-1.691 -1.557,-2.54c-0.614,-1.011 -9.294,-19.153 -11.031,-22.79Zm-3.171,13.445c-2.759,3.563 -6.944,6.003 -11.784,6.408c4.884,-0.409 8.867,-2.463 11.784,-6.408Z" style="fill:#7e4021;"/><path d="M2016.58,4966.75c-1.478,3.75 -8.864,22.456 -9.405,23.508c-0.455,0.883 -0.902,1.77 -1.376,2.643c-0.492,0.907 -1.006,1.802 -1.52,2.697c-14.089,24.533 -35.163,40.826 -60.509,52.879c-8.307,3.95 -11.844,13.901 -7.894,22.208c3.95,8.308 13.902,11.845 22.209,7.895c31.613,-15.033 57.526,-35.782 75.1,-66.382c0.647,-1.128 1.293,-2.257 1.913,-3.4c0.589,-1.087 1.15,-2.188 1.716,-3.287c0.803,-1.562 11.499,-27.251 12.606,-32.377c3.658,-16.946 -11.8,-20.902 -16.085,-20.959c-8.565,-0.114 -15.717,6.268 -16.755,14.575Zm4.106,13.189c3.186,3.732 7.304,5.501 12.204,5.566c-4.856,-0.064 -9.202,-2.205 -12.204,-5.566Z" style="fill:#7e4021;"/><path d="M1398.48,5096.94c3.345,-1.678 6.836,-3.082 10.26,-4.616c8.574,-3.842 16.811,-8.245 25.1,-12.588c26.393,-13.828 52.361,-27.931 72.031,-50.013c6.119,-6.868 5.51,-17.412 -1.359,-23.531c-6.868,-6.118 -17.412,-5.509 -23.531,1.359c-16.994,19.078 -39.808,30.712 -62.61,42.658c-7.686,4.028 -15.311,8.133 -23.262,11.696c-4.75,2.128 -9.58,4.108 -14.147,6.575c-6.339,3.424 -7.362,7.361 -7.977,8.967c-1.255,3.28 -1.305,6.207 -0.872,8.769c0.693,4.106 2.747,7.624 6.014,10.252c2.493,2.005 6.306,3.269 8.091,3.535c5.395,0.803 9.426,-0.889 12.262,-3.063Zm3.913,-4.097c-0.586,0.826 -1.359,1.781 -2.329,2.725c1.104,-0.971 1.827,-1.911 2.329,-2.725Zm-13.001,-25.974c-11.708,-0.627 -15.694,9.346 -15.86,9.709c2.904,-6.339 9.295,-9.987 15.86,-9.709Zm14.094,9.004l0.052,0.101l-0.017,-0.037l-0.035,-0.064Zm-0.488,-0.884l0.132,0.23l-0.077,-0.142l-0.055,-0.088Zm-12.778,-8.065l0.059,0.006l-0.027,-0.004l-0.032,-0.002Z" style="fill:#7e4021;"/><path d="M1723.89,5090.54c2.779,2.047 6.834,3.639 12.413,2.713c0.889,-0.148 5.29,-1.386 8.044,-3.681c4.32,-3.6 6.52,-8.572 5.945,-14.477c-0.206,-2.112 -0.801,-4.502 -2.343,-7.05c-0.816,-1.348 -2.338,-4.337 -7.728,-6.777c-4.73,-2.141 -9.687,-3.777 -14.574,-5.567c-8.181,-2.996 -16.075,-6.557 -24.026,-10.035c-23.584,-10.317 -47.157,-20.322 -65.448,-38.16c-6.585,-6.423 -17.146,-6.29 -23.568,0.295c-6.423,6.585 -6.29,17.146 0.295,23.568c21.171,20.647 48.064,32.894 75.362,44.836c8.574,3.751 17.099,7.565 25.922,10.796c3.234,1.185 6.517,2.256 9.706,3.539Zm17.013,-28.689c-2.608,-1.361 -5.927,-2.181 -9.964,-1.497c3.422,-0.548 6.908,-0.002 9.964,1.497Zm-10.927,-1.313l-0.031,0.008l0.067,-0.015l-0.036,0.007Z" style="fill:#7e4021;"/><path d="M1566.39,5180.18c-249.569,-239.713 -533.307,-63.453 -606.818,-5.816c-7.239,5.675 -8.508,16.16 -2.833,23.399c5.676,7.239 16.161,8.508 23.4,2.832c68.221,-53.488 331.552,-218.836 563.16,3.625c6.634,6.372 17.194,6.159 23.566,-0.475c6.372,-6.634 6.159,-17.193 -0.475,-23.565Z" style="fill:#7e4021;"/><path d="M1587.8,5208.06c215.431,-238.16 489.713,-91.694 561.519,-43.123c7.619,5.154 17.989,3.152 23.143,-4.467c5.154,-7.619 3.152,-17.989 -4.467,-23.143c-77.374,-52.338 -372.777,-208.258 -604.915,48.372c-6.171,6.822 -5.642,17.37 1.18,23.541c6.821,6.171 17.37,5.642 23.54,-1.18Z" style="fill:#7e4021;"/><path d="M2018.65,2358.37c11.862,-12.394 338.567,170.578 504.452,149.905c106.522,-13.276 195.102,-156.991 234.719,-220.031c19.564,-31.132 35.621,-78.815 62.3,-104.744c41.34,-40.177 146.945,-13.679 157.945,51.309c2.657,15.699 -8.561,48.292 -10.688,55.166c-62.155,200.863 -245.912,390.015 -388.009,411.565c-226.692,34.379 -482.297,-80.872 -550.457,-153.492" style="fill:#edaf5f;"/><path d="M2021.5,2374.79c3.985,1.296 17.885,5.932 31.806,11.768c57.318,24.029 165.546,74.786 271.763,107.988c72.975,22.811 145.102,37.124 200.101,30.269c45.945,-5.726 89.107,-33.389 126.72,-69.555c53.413,-51.357 95.784,-119.534 120.049,-158.146c18.934,-30.129 33.985,-76.566 59.805,-101.66c16.884,-16.409 47.106,-17.694 74.015,-9.75c26.771,7.904 51.412,25.483 55.881,51.889c0.79,4.668 -0.452,11.309 -1.87,17.968c-2.727,12.808 -7.091,25.558 -8.307,29.489c-36.396,117.621 -115.571,231.091 -203,307.619c-56.992,49.887 -117.344,84.169 -171.586,92.395c-220.553,33.448 -469.491,-77.767 -535.805,-148.42c-6.295,-6.707 -16.852,-7.041 -23.559,-0.746c-6.707,6.295 -7.041,16.851 -0.746,23.558c70.006,74.586 332.277,193.874 565.108,158.564c59.437,-9.014 126.092,-45.604 188.543,-100.269c91.735,-80.298 174.699,-199.432 212.888,-322.847c2.418,-7.813 14.22,-45.032 11.2,-62.874c-6.532,-38.59 -40.185,-66.745 -79.309,-78.295c-38.987,-11.51 -82.223,-5.959 -106.685,17.815c-27.539,26.764 -44.601,75.693 -64.796,107.828c-23.274,37.036 -63.697,102.594 -114.93,151.854c-32.152,30.915 -68.464,55.611 -107.739,60.506c-51.167,6.377 -118.141,-7.785 -186.033,-29.007c-105.08,-32.847 -212.116,-83.142 -268.82,-106.914c-21.529,-9.025 -36.866,-14.174 -43.443,-14.644c-8.386,-0.601 -13.394,2.811 -16.135,5.675c-6.36,6.645 -6.129,17.204 0.517,23.564c3.969,3.799 9.334,5.247 14.367,4.378Z" style="fill:#7e4021;"/><path d="M2772.19,2106.94c25.053,-18.422 175.6,-13.386 267.365,105.814c11.837,15.376 16.391,42.607 8.573,60.935c-2.136,5.006 -5.416,9.278 -9.59,12.819c-34.758,29.485 -95.761,33.123 -165.154,11.09c-76.443,-24.271 -186.821,-127.692 -101.194,-190.658Z" style="fill:#fff;"/><path d="M2762.32,2093.51c-21.049,15.478 -32.059,33.23 -36.096,51.51c-4.034,18.262 -1.053,37.384 7.392,56.096c22.362,49.55 85.014,96.58 134.727,112.364c76.107,24.164 142.859,18.072 180.979,-14.266c6.174,-5.236 10.981,-11.586 14.139,-18.988c9.957,-23.344 4.38,-58.058 -10.697,-77.642c-67.93,-88.24 -166.349,-117.268 -228.357,-120.093c-30.448,-1.388 -52.981,4.323 -62.087,11.019l-0,0Zm19.747,26.854c1.635,-1.202 4.382,-1.857 7.809,-2.607c8.358,-1.828 19.683,-2.575 33.014,-1.968c55.262,2.518 142.921,28.489 203.461,107.129c8.598,11.169 12.128,30.916 6.449,44.229c-1.112,2.609 -2.865,4.803 -5.041,6.648c-31.4,26.637 -86.638,27.819 -149.329,7.915c-35.31,-11.211 -78.455,-40.707 -102.887,-74.667c-12.833,-17.838 -20.755,-36.792 -16.77,-54.834c2.532,-11.467 10.09,-22.135 23.294,-31.845Z" style="fill:#7e4021;"/><path id="Hand-08-OK" d="M3054.86,1751.1c5.225,-35.843 22.331,-66.711 16.789,-105.37c-16.293,-113.668 -143.527,-123.743 -210.303,-113.122c-47.835,7.608 -107.2,22.626 -127.318,70.356c-27.898,66.188 29.75,80.492 138.575,72.867c70.143,-4.914 117.365,62.731 76.643,143.594c-28.823,57.234 -57.542,72.13 -93.003,58.182c-58.919,-23.174 -26.567,-163.834 -145.956,-209.684c-29.55,-11.348 -84.273,38.405 -84.534,146.746c-0.302,124.938 117.327,298.77 214.898,354.091c52.875,29.98 125.252,69.003 245.963,40.915c144.558,-33.637 253.59,-149.827 299.357,-305.723c33.203,-113.098 1.098,-208.304 -34.211,-208.374c-20.12,-0.04 -61.546,91.09 -74.353,104.779c-4.608,4.926 -47.917,88.974 -44.694,83.048c68.23,-125.476 225.736,-375.873 155.946,-471.202c-51.624,-70.514 -149.357,0.351 -160.607,75.289c-28.257,188.237 -82.869,333.913 -81.646,330.809c68.12,-172.957 137.377,-559.601 -6.093,-570.829c-104.727,-8.196 -122.555,106.664 -105.376,168.005c26.039,92.971 -12.32,132.222 5.49,155.641c59.898,78.762 14.83,158.812 14.433,179.982Z" style="fill:#fff;"/><path d="M3020.1,1540.4c-9.179,-5.362 -18.907,-9.822 -28.962,-13.492c-45.029,-16.435 -96.782,-16.424 -132.415,-10.756c-25.321,4.027 -53.661,10.137 -78.366,21.435c-27.189,12.434 -49.972,31.101 -61.692,58.907c-9.599,22.773 -10.235,40.913 -4.868,55.024c-12.719,-3.93 -28.401,-1.682 -44.026,8.774c-28.955,19.377 -60.488,70.656 -60.69,154.34c-0.157,65.161 29.954,143.241 73.311,212.075c43.184,68.56 99.349,127.819 150.034,156.556c55.445,31.436 131.382,72.102 257.961,42.649c150.229,-34.957 264.008,-155.248 311.571,-317.261c24.852,-84.655 14.42,-159.904 -6.386,-197.479c-9.732,-17.574 -22.299,-27.773 -34.839,-31.065c23.592,-49.547 43.728,-99.412 54.139,-144.006c12.74,-54.568 10.569,-101.859 -12.77,-133.739c-31.708,-43.31 -77.431,-44.003 -117.099,-21.561c-16.451,9.307 -31.711,22.814 -44.088,38.723c-0.129,-28.979 -2.245,-55.924 -6.776,-79.616c-12.236,-63.987 -42.491,-105.132 -92.531,-109.048c-119.053,-9.317 -142.255,119.384 -122.725,189.116c16.786,59.935 4.96,96.31 1.217,120.424Zm162.933,91.846c21.444,-101.221 32.775,-210.725 18.366,-286.078c-8.821,-46.127 -26.319,-79.253 -62.391,-82.076c-90.433,-7.077 -102.861,93.926 -88.026,146.894c16.625,59.364 8.701,98.143 3.699,125.055c-1.119,6.019 -2.098,11.323 -2.413,16.065c-0.231,3.482 -0.448,6.471 1.42,8.927c13.792,18.135 22.575,36.325 27.822,53.973c2.932,8.747 5.174,18.189 6.632,28.363c2.757,19.235 0.655,36.758 -3.184,53.801c-0.449,2.553 -0.934,5.059 -1.443,7.511c-2.946,14.17 -6.997,26.138 -9.552,34.994c-1.033,4.541 -1.932,9.142 -2.615,13.833c-1.269,8.705 -9.085,14.925 -17.853,14.207c-8.768,-0.719 -15.468,-8.128 -15.303,-16.924c0.041,-2.212 0.479,-5.011 1.202,-8.334c2.937,-16.147 7.847,-31.44 11.719,-47.006c0.397,-1.592 0.782,-3.188 1.147,-4.789c3.304,-19.167 4.299,-41.735 -2.612,-65.491c-12.25,-35.238 -39.248,-55.748 -69.939,-66.95c-39.355,-14.364 -84.607,-14.103 -115.75,-9.149c-22.514,3.58 -47.773,8.784 -69.739,18.829c-19.483,8.91 -36.44,21.615 -44.839,41.54c-5.503,13.056 -7.578,23.098 -4.163,30.886c2.139,4.877 6.601,8.237 12.491,11.021c8.634,4.08 19.925,6.563 33.509,8.053c21.701,2.38 48.737,2.014 80.215,-0.191c41.979,-2.942 76.905,16.22 95.438,47.825c17.851,30.443 20.731,73.275 -2.744,119.891c-19.927,39.568 -40.914,60.582 -62.458,68.385c-16.151,5.849 -33.153,5.039 -51.532,-2.19c-15.476,-6.087 -26.584,-17.914 -35.023,-34.114c-6.859,-13.165 -12.004,-29.494 -17.294,-47.253c-13.616,-45.706 -27.923,-103.079 -93.513,-128.268c-2.516,-0.966 -5.439,-0.463 -8.541,0.643c-5.296,1.888 -10.746,5.707 -16.116,11.104c-20.136,20.235 -37.093,60.436 -37.236,119.48c-0.144,59.777 28.408,131.082 68.183,194.229c39.948,63.422 91.382,118.74 138.269,145.324c50.305,28.522 119.122,65.903 233.966,39.18c138.885,-32.317 243.171,-144.406 287.142,-294.185c18.698,-63.689 15.789,-121.325 2.945,-157.264c-3.703,-10.359 -8.126,-18.736 -13.246,-24.423c-1.964,-2.182 -3.799,-4.079 -5.83,-4.897c-2.187,2.194 -7.46,7.646 -11.072,12.666c-12.439,17.288 -26.16,42.136 -37.035,61.05c-21.631,39.432 -42.411,75.599 -58.386,104.978c-13.002,23.91 -50.291,25.659 -29.181,-16.216c4.946,-9.811 42.706,-81.524 47.062,-86.18c1.245,-1.33 2.759,-3.409 4.495,-6.079c35.496,-63.986 74.397,-137.875 98.111,-205.31c11.707,-33.289 19.695,-64.908 21.309,-92.777c1.441,-24.878 -2.061,-46.53 -13.94,-62.756c-19.919,-27.208 -48.87,-26.338 -73.789,-12.24c-28.116,15.906 -51.99,47.534 -56.888,80.157c-8.878,59.143 -20.335,114.123 -31.871,161.712c-14.338,65.322 -32.548,126.516 -50.75,172.731c-1.221,3.099 -2.54,4.387 -2.653,4.526c-7.223,8.785 -15.433,6.295 -18.888,4.959c-3.814,-1.475 -9.499,-4.688 -10.541,-13.611c-0.026,-0.228 -0.743,-2.918 0.816,-7.419c0.073,-0.211 0.516,-1.427 1.286,-3.585c5.547,-15.56 28.86,-82.69 51.105,-177.037Zm-407.986,58.541c31.201,32.611 43.782,74.738 54.718,111.45c4.624,15.52 8.917,29.864 14.911,41.369c4.415,8.474 9.567,15.311 17.662,18.495c28.372,11.159 48.958,-4.378 72.017,-50.168c17.249,-34.252 16.878,-65.668 3.762,-88.037c-12.434,-21.205 -36.19,-33.408 -64.354,-31.435c-40.037,2.805 -73.458,2.59 -98.716,-1.674Z" style="fill:#7e4021;"/><path d="M193,1484.63c15.142,137.932 216.634,1747.64 379.502,1955.08c169.523,215.917 1936.72,-184.458 2020.01,-255.817c80.195,-68.705 7.746,-215.165 -1.953,-322.092c-10.732,-118.326 -62.439,-387.861 -62.439,-387.861c-0,0 -3.098,-201.099 -15.217,-326.41c-25.689,-265.648 -84.733,-418.041 -96.224,-430.834c-9.074,-10.102 -199.559,229.636 -478.411,171.789c-397.663,-82.495 -360.481,12.583 -497.769,92.56c-73.957,43.083 -446.795,-238.028 -512.243,-185.071c-115.515,93.469 -224.958,-100.037 -275.494,-50.905c-134.353,130.62 -367.113,-256.394 -459.763,-260.437Z" style="fill:#edaf5f;"/><path d="M1424.43,1951.82c-1.302,0.036 -10.206,0.217 -16.372,-0.919c-14.588,-2.689 -32.015,-8.669 -51.454,-16.617c-64.995,-26.573 -149.612,-74.543 -225.953,-113.354c-64.102,-32.588 -123.085,-58.456 -162.107,-63.761c-27.034,-3.675 -47.692,1.916 -61.251,12.887c-29.749,24.071 -59.018,20.8 -85.877,9.336c-23.081,-9.852 -44.716,-25.009 -64.457,-38.34c-25.535,-17.243 -48.998,-31.382 -68.471,-35.662c-22.567,-4.961 -42.194,-0.523 -58.957,15.774c-21.833,21.227 -47.736,20.646 -75.013,9.926c-24.121,-9.481 -49.034,-26.144 -74.171,-46.176c-73.277,-58.394 -147.046,-144.518 -203.752,-191.745c-31.629,-26.341 -60.489,-40.899 -82.138,-41.844c-9.718,-0.424 -19.136,3.418 -25.785,10.519c-6.648,7.101 -9.863,16.751 -8.802,26.42c10.622,96.764 112.768,916.274 229.078,1470.58c51.202,244.016 107.042,437.385 157.34,501.447c23.97,30.53 73.777,53.522 145.284,65.062c93.004,15.011 225.861,13.672 379.017,1.023c468.594,-38.702 1130.41,-182.234 1406.38,-263.798c75.77,-22.393 124.364,-42.351 137.231,-53.375c40.165,-34.411 52.058,-83.622 48.323,-139.788c-4.491,-67.537 -32.925,-146.233 -38.766,-210.629c-10.171,-112.149 -56.789,-359.009 -62.356,-388.277c-0.439,-25.235 -3.959,-208.734 -15.318,-326.192c-18.348,-189.731 -53.537,-322.809 -76.921,-390.076c-12.253,-35.244 -23.383,-55.036 -27.683,-59.823c-5.388,-5.999 -26.895,-20.589 -53.275,-0.167c-37.766,29.237 -206.115,210.767 -443.164,161.591c-165.826,-34.4 -259.206,-38.15 -320.621,-26.168c-50.821,9.916 -81.975,29.995 -112.15,54.736c-24.893,20.41 -48.939,44.63 -87.843,67.411Zm-1231.43,-467.193c15.142,137.932 216.634,1747.64 379.502,1955.08c169.523,215.917 1936.72,-184.458 2020.01,-255.817c80.195,-68.705 7.746,-215.165 -1.953,-322.092c-10.732,-118.326 -62.439,-387.861 -62.439,-387.861c-0,0 -3.098,-201.099 -15.217,-326.41c-25.689,-265.648 -84.733,-418.041 -96.224,-430.834c-9.074,-10.102 -199.559,229.636 -478.411,171.789c-397.663,-82.495 -360.481,12.583 -497.769,92.56c-73.957,43.083 -446.795,-238.028 -512.243,-185.071c-115.515,93.469 -224.958,-100.037 -275.494,-50.905c-134.353,130.62 -367.113,-256.394 -459.763,-260.437Z" style="fill:#7e4021;"/><path d="M2254.15,2717.08c-98.358,-33.076 -171.928,21.907 -201.955,69.78c-79.789,127.206 133.044,138.566 201.487,112.667c138.233,-52.306 63.083,-161.392 0.468,-182.447Z" style="fill:#ffce7b;"/><path d="M1119.94,2929.58c79.713,-66.438 168.198,-41.817 213.519,-8.061c120.426,89.694 -73.859,177.33 -147.037,177.965c-147.791,1.282 -117.228,-127.61 -66.482,-169.904Z" style="fill:#ffce7b;"/><path d="M2037.67,2087.76c-295.315,57.159 -312.271,457.817 -119.281,612.407c64.126,51.367 124.725,-45.092 232.702,-69.691c98.709,-22.488 196.77,51.691 243.591,-6.822c175.182,-218.931 6.918,-606.334 -357.012,-535.894Z" style="fill:#fff;"/><path d="M2034.51,2071.4c-155.57,30.111 -238.164,150.39 -256.106,283.809c-17.796,132.332 28.734,277.196 129.572,357.969c31.342,25.106 61.921,22.409 95.865,6.894c40.847,-18.671 87.452,-58.875 150.959,-73.343c57.121,-13.013 113.948,8.31 160.08,14.642c38.378,5.269 70.281,0.869 92.822,-27.301c128.716,-160.86 80.984,-408.404 -90.382,-517.071c-73.109,-46.361 -168.731,-67.679 -282.81,-45.599Zm6.335,32.726c104.28,-20.184 191.795,-1.355 258.624,41.023c155.156,98.389 198.746,322.451 82.206,468.095c-10.606,13.256 -24.949,16.879 -41.489,16.774c-13.651,-0.086 -28.641,-2.644 -44.611,-5.792c-44.788,-8.831 -96.419,-21.79 -148.179,-9.998c-55.759,12.703 -99.442,43.632 -137.308,65.082c-29.903,16.94 -55.121,28.8 -81.273,7.852c-92.152,-73.816 -133.638,-206.576 -117.375,-327.511c16.117,-119.847 89.659,-228.477 229.405,-255.525l-0,-0Z" style="fill:#7e4021;"/><path d="M1071.25,2268.83c-295.316,57.159 -312.272,457.817 -119.282,612.407c64.126,51.367 124.726,-45.093 232.703,-69.692c98.708,-22.487 196.769,51.692 243.59,-6.821c175.182,-218.932 6.919,-606.334 -357.011,-535.894Z" style="fill:#fff;"/><path d="M1068.08,2252.46c-155.57,30.111 -238.163,150.389 -256.106,283.808c-17.796,132.333 28.734,277.197 129.572,357.97c31.342,25.106 61.922,22.409 95.865,6.894c40.847,-18.671 87.452,-58.875 150.96,-73.343c57.12,-13.013 113.947,8.31 160.079,14.642c38.379,5.269 70.281,0.869 92.822,-27.301c128.716,-160.86 80.984,-408.404 -90.382,-517.071c-73.109,-46.361 -168.731,-67.68 -282.809,-45.599l-0.001,-0Zm6.335,32.726c104.28,-20.184 191.795,-1.355 258.624,41.023c155.156,98.389 198.746,322.451 82.206,468.095c-10.606,13.255 -24.949,16.878 -41.489,16.774c-13.651,-0.086 -28.64,-2.644 -44.611,-5.793c-44.788,-8.83 -96.419,-21.789 -148.179,-9.997c-55.759,12.703 -99.442,43.632 -137.308,65.082c-29.903,16.94 -55.121,28.8 -81.273,7.852c-92.152,-73.816 -133.638,-206.576 -117.375,-327.511c16.117,-119.847 89.659,-228.477 229.405,-255.525l-0,-0Z" style="fill:#7e4021;"/><path d="M960.513,2402.08c-14.034,52.542 4.958,131.442 84.97,183.953c10.218,6.706 58.546,-54.681 70.812,-48.946c11.751,5.494 -12.767,78.545 1.087,82.561c103.881,30.107 193.588,7.213 257.199,-46.696c80.762,-68.443 51.26,-133.977 51.26,-133.977c0,0 -22.06,-66.83 -71.149,-112.623c-47.157,-43.991 -120.291,-66.921 -173.327,-71.402c-77.366,-6.536 -194.242,47.506 -220.852,147.13Z" style="fill:#7e4021;"/><path d="M1100.43,2566.83c-0.823,7.341 -1.744,15.243 -2.557,21.438c-1.759,13.421 -1.934,25.4 0.119,32.083c2.684,8.738 8.248,13.42 14.751,15.305c110.142,31.922 205.169,7.169 272.614,-49.99c86.739,-73.509 59.38,-144.959 56.001,-152.818c-2.897,-8.321 -26.586,-73.243 -75.297,-118.683c-49.899,-46.549 -127.174,-71.081 -183.293,-75.822c-83.603,-7.063 -209.602,51.781 -238.357,159.436l-0,0c-15.383,57.592 4.225,144.63 91.928,202.188c4.116,2.702 9.332,4.088 15.713,2.749c6.636,-1.392 18.348,-9.367 30.43,-20.317c5.068,-4.592 11.787,-10.364 17.948,-15.569Zm29.73,39.057c0.395,-6.054 1.2,-16.709 2.371,-24.484c2.781,-18.474 4.742,-37.15 2.252,-45.526c-2.173,-7.312 -6.558,-11.611 -11.428,-13.888c-5.311,-2.483 -13.301,-3.05 -22.573,1.868c-8.371,4.44 -20.343,15.057 -31.985,25.839c-6.781,6.279 -13.488,12.552 -19.184,17.005c-0.433,0.338 -0.907,0.69 -1.389,1.034c-67.003,-47.354 -83.911,-115.294 -71.609,-161.354l0,-0c24.465,-91.594 132.217,-140.832 203.347,-134.823c49.952,4.22 118.945,25.548 163.362,66.982c46.042,42.95 66.691,105.659 66.691,105.659c0.181,0.55 0.391,1.09 0.629,1.618c-0,-0 22.769,55.43 -46.838,114.42c-58.11,49.246 -139.475,70.499 -233.646,45.65Z" style="fill:#7e4021;"/><path d="M1909.74,2219.56c-14.034,52.541 4.958,131.442 84.97,183.953c10.218,6.706 58.546,-54.682 70.812,-48.946c11.751,5.493 -12.767,78.545 1.087,82.56c103.881,30.108 193.588,7.213 257.199,-46.696c80.762,-68.443 51.26,-133.976 51.26,-133.976c0,-0 -22.06,-66.831 -71.149,-112.623c-47.157,-43.991 -120.291,-66.922 -173.327,-71.402c-77.366,-6.536 -194.242,47.505 -220.852,147.13Z" style="fill:#7e4021;"/><path d="M2049.65,2384.31c-0.822,7.342 -1.744,15.243 -2.556,21.438c-1.759,13.421 -1.934,25.401 0.119,32.083c2.684,8.738 8.248,13.421 14.751,15.305c110.142,31.923 205.169,7.169 272.614,-49.989c86.739,-73.509 59.379,-144.959 56.001,-152.818c-2.897,-8.322 -26.586,-73.243 -75.297,-118.683c-49.899,-46.549 -127.174,-71.082 -183.293,-75.823c-83.603,-7.063 -209.602,51.781 -238.357,159.437c-15.383,57.591 4.225,144.63 91.928,202.188c4.116,2.701 9.331,4.088 15.713,2.749c6.636,-1.393 18.348,-9.368 30.43,-20.317c5.068,-4.592 11.787,-10.365 17.947,-15.57Zm29.731,39.058c0.395,-6.054 1.2,-16.709 2.371,-24.484c2.781,-18.474 4.742,-37.15 2.252,-45.527c-2.173,-7.311 -6.558,-11.61 -11.429,-13.887c-5.31,-2.483 -13.3,-3.051 -22.572,1.867c-8.371,4.441 -20.343,15.057 -31.985,25.839c-6.781,6.28 -13.488,12.552 -19.184,17.006c-0.433,0.338 -0.907,0.69 -1.389,1.034c-67.003,-47.355 -83.911,-115.295 -71.609,-161.355c24.465,-91.594 132.217,-140.832 203.347,-134.823c49.952,4.22 118.945,25.548 163.361,66.982c46.043,42.951 66.692,105.66 66.692,105.66c0.181,0.55 0.391,1.089 0.629,1.617c-0,0 22.769,55.43 -46.838,114.42c-58.11,49.247 -139.475,70.5 -233.646,45.651Z" style="fill:#7e4021;"/><path d="M1587.86,2779.11c11.688,20.561 26.574,39.984 64.497,56.896c26.746,11.928 54.533,8.425 78.838,-4.838c34.038,-18.575 60.764,-56.879 66.185,-94.547c1.31,-9.105 -5.018,-17.561 -14.123,-18.871c-9.104,-1.311 -17.56,5.018 -18.87,14.122c-3.36,23.343 -17.898,46.906 -37.248,62.135c-17.754,13.973 -39.91,21.053 -61.205,11.556c-28.756,-12.824 -40.233,-27.335 -49.094,-42.925c-4.546,-7.997 -14.729,-10.799 -22.726,-6.254c-7.997,4.546 -10.799,14.729 -6.254,22.726Z" style="fill:#7e4021;"/><path d="M474.237,2301.46c-36.359,25.127 -98.887,69.887 -131.733,99.396c-85.156,76.504 -175.47,160.704 -165.91,308.752c5.374,83.22 102.658,187.342 98.428,143.725c-9.432,-97.236 60.327,-131.326 60.772,-135.528c7.535,-71.164 116.393,-140.462 177.139,-170.835" style="fill:#edaf5f;"/><path d="M320.168,2709.47c-16.029,12.487 -62.889,48.768 -62.699,126.21c-0.597,-0.565 -1.179,-1.142 -1.739,-1.721c-25.528,-26.392 -59.524,-79.28 -62.504,-125.43c-9.166,-141.939 78.775,-221.933 160.417,-295.28c32.424,-29.13 94.177,-73.279 130.07,-98.083c7.567,-5.229 9.465,-15.619 4.236,-23.186c-5.23,-7.567 -15.619,-9.466 -23.187,-4.236c-36.826,25.449 -100.129,70.821 -133.396,100.709c-88.672,79.662 -181.359,168.063 -171.404,322.224c3.236,50.107 36.997,107.482 65.691,139.842c14.196,16.01 27.88,25.94 36.411,28.542c7.899,2.408 14.328,1.025 19.112,-1.895c5.761,-3.516 11.84,-10.962 10.435,-25.447c-7.574,-78.085 42.388,-110.398 52.685,-118.839c6.637,-5.441 7.842,-11.15 8.072,-13.325c2.66,-25.119 20.405,-49.513 43.238,-72.013c37.516,-36.97 89.547,-68.053 124.78,-85.67c8.228,-4.114 11.568,-14.133 7.454,-22.361c-4.114,-8.227 -14.133,-11.567 -22.361,-7.453c-37.662,18.831 -93.167,52.222 -133.27,91.742c-26.925,26.532 -46.728,56.047 -52.041,85.67Z" style="fill:#7e4021;"/><path d="M352.376,2673.95c-0.812,-1.187 -5.866,-8.682 -8.252,-14.413c-7.154,-17.191 -12.046,-39.056 -14.612,-47.51c-2.672,-8.802 -11.988,-13.778 -20.79,-11.106c-8.802,2.672 -13.778,11.987 -11.106,20.789c3.251,10.71 10.24,41.143 20.222,60.321c6.63,12.739 15.491,20.981 23.894,23.479c8.817,2.621 18.104,-2.409 20.725,-11.227c2.505,-8.427 -1.98,-17.283 -10.081,-20.333Z" style="fill:#7e4021;"/><path d="M342.675,2680.37c-6.494,-1.94 -15.555,-2.301 -25.275,-1.656c-10.552,0.701 -22.134,2.564 -29.998,2.236c-9.19,-0.383 -16.963,6.768 -17.346,15.958c-0.383,9.191 6.768,16.964 15.959,17.347c7.522,0.313 18.021,-0.938 28.32,-1.862c7.13,-0.639 14.131,-1.478 18.801,-0.084c8.814,2.633 18.107,-2.386 20.739,-11.2c2.632,-8.814 -2.386,-18.107 -11.2,-20.739Z" style="fill:#7e4021;"/><path d="M395.427,3151.68c-95.896,-143.964 -179.957,-328.06 -60.461,-425.666c91.716,-74.915 190.375,-95.276 309.537,-161.604c73.518,-40.921 122.069,-11.467 137.875,11.469c40.475,58.731 -46.786,130.681 -77.629,156.455c-1.371,1.145 -19.553,14.641 -18.458,14.77c35.087,4.115 75.117,13.442 110.549,15.843c107.189,7.264 184.522,2.408 264.76,31.962c45.779,16.862 78.373,82.02 21.508,117.703c-70.971,44.534 -311.234,26.763 -319.289,25.28c-3.072,-0.565 -11.645,-4.056 -9.092,-2.256c16.754,11.812 266.098,80.62 359.25,128.033c113.342,57.691 97.409,187.498 -40.923,172.852c-85.425,-9.044 -264.42,-143.049 -343.626,-156.785c-5.454,-0.946 8.883,6.609 13.37,9.851c7.705,5.568 15.289,11.303 22.814,17.11c21.771,16.8 43.361,34.059 64.223,51.972c56.674,48.66 202.108,164.116 135.937,238.237c-70.425,78.885 -166.293,-35.775 -246.263,-119.732c-46.001,-48.295 -131.52,-132.439 -137.896,-140.726c-0.931,-1.209 133.56,193.313 92.412,265.791c-32.185,56.69 -84.906,26.608 -117.514,-12.056c-18.976,-22.502 -48.273,-67.343 -61.35,-93.444c-28.016,-55.914 -65.031,-92.962 -99.734,-145.059Z" style="fill:#fff;"/><path d="M660.985,3240.95c16.875,17.11 33.271,33.878 46.456,47.721c49.399,51.862 105.099,114.645 157.09,139.398c40.715,19.384 79.606,18.099 113.674,-20.061c31.602,-35.4 25.131,-78.741 -1.162,-121.671c-33.362,-54.469 -99.179,-108.489 -134.572,-138.791c15.789,8.692 32.029,17.836 48.334,26.908c67.601,37.614 136.295,73.964 180.494,78.643c81.127,8.589 124.638,-28.422 132.974,-72.797c8.149,-43.377 -17.759,-98.409 -82.736,-131.482c-54.435,-27.707 -161.723,-62.74 -245.639,-89.581c35.393,0.162 74.437,-0.937 110.196,-4.666c43.942,-4.582 83.011,-13.494 105.872,-27.84c21.669,-13.597 32.683,-30.889 36.514,-48.558c8.666,-39.964 -21.663,-84.368 -61.12,-98.902c-81.657,-30.077 -160.307,-25.558 -269.393,-32.95c-22.926,-1.554 -47.788,-6.046 -71.972,-10.115c21.216,-18.174 52.868,-47.448 70.095,-79.394c15.967,-29.608 20.051,-61.311 0.012,-90.389c-18.344,-26.618 -74.385,-64.064 -159.705,-16.574c-120.161,66.884 -219.489,87.716 -311.974,163.26c-52.411,42.809 -69.578,100.611 -64.02,164.882c7.814,90.344 62.031,194.173 121.153,282.93c34.3,51.493 71.014,88.021 98.704,143.286c13.537,27.018 43.867,73.43 63.511,96.722c15.425,18.292 35.014,34.664 55.04,43.02c15.524,6.477 31.397,8.299 46.376,4.022c15.708,-4.485 30.955,-15.702 43.332,-37.501c12.877,-22.683 12.348,-55.648 2.64,-91.705c-6.81,-25.294 -17.903,-52.299 -30.174,-77.815Zm-251.687,-98.508c-46.845,-70.326 -91.006,-150.354 -108.656,-224.821c-16.487,-69.562 -9.661,-134.157 44.868,-178.697c90.947,-74.287 188.935,-94.178 307.099,-159.949c61.757,-34.376 102.768,-12.904 116.046,6.363c12.345,17.914 7.932,37.412 -1.904,55.653c-18.276,33.891 -55.21,63.949 -72.69,78.556c-1.338,1.118 -17.339,13.226 -19.682,15.711c-8.101,8.591 -4.07,17.289 -2.928,19.493c2.169,4.186 5.878,8.085 12.899,8.908c35.343,4.145 75.672,13.5 111.363,15.919c105.293,7.135 181.309,1.941 260.126,30.972c24.643,9.077 45.477,35.599 40.065,60.559c-2.202,10.154 -9.202,19.573 -21.655,27.387c-19.722,12.376 -53.706,18.969 -91.612,22.921c-93.434,9.743 -210.285,1.101 -215.802,0.086c-1.602,-0.295 -5.008,-1.666 -6.731,-2.159c-2.731,-0.781 -4.847,-0.893 -5.866,-0.883c-9.232,0.089 -13.138,5.731 -14.913,9.318c-1.122,2.268 -6.283,12.963 5.798,21.48c3.784,2.668 17.893,8.378 39.177,15.487c74.851,24.999 248.13,76.12 322.117,113.778c48.383,24.627 71.164,63.322 65.096,95.622c-5.884,31.322 -39.442,51.866 -96.705,45.803c-41.226,-4.364 -104.741,-39.539 -167.796,-74.623c-67.26,-37.424 -133.961,-74.938 -174.736,-82.01c-13.812,-2.395 -18.187,7.075 -19.438,10.071c-1.615,3.872 -2.649,9.502 1.529,15.856c0.818,1.245 2.665,3.523 5.84,5.775c3.14,2.227 9.986,6.025 12.83,8.08c7.563,5.465 15.006,11.096 22.393,16.796c21.541,16.623 42.905,33.698 63.548,51.422c33.083,28.405 97.502,79.96 129.639,132.431c17.763,29.001 26.071,58.148 4.722,82.062c-28.778,32.234 -62.748,22.495 -97.699,-1.45c-41.919,-28.719 -84.87,-77.532 -124.063,-118.678c-45.592,-47.866 -130.435,-131.18 -136.755,-139.394c-3.815,-4.959 -7.722,-5.587 -8.217,-5.743c-0.815,-0.256 -30.711,7.017 -18.932,25.045c0.16,0.244 1.41,2.077 3.521,5.261c12.169,18.357 54.139,83.444 77.903,146.378c7.577,20.063 13.308,39.872 15.329,57.739c1.713,15.142 0.977,28.703 -4.895,39.045c-6.938,12.22 -14.691,19.392 -23.496,21.907c-10.251,2.927 -21.101,-0.434 -31.568,-6.226c-12.916,-7.147 -25.117,-18.279 -35.215,-30.253c-18.31,-21.712 -46.572,-64.981 -59.19,-90.165c-28.341,-56.564 -65.658,-94.13 -100.764,-146.833Zm160.296,5.576c-0.529,-0.591 -0.927,-1.062 -1.191,-1.405c0.389,0.505 0.784,0.975 1.191,1.405Z" style="fill:#7e4021;"/><path d="M462.702,2900.72c-2.283,-4.392 -6.494,-7.726 -11.734,-8.701c-3.892,-0.723 -7.105,-0.032 -9.732,1.117c-3.611,1.581 -6.591,4.212 -8.479,8.343c-0.345,0.754 -3.905,7.273 0.913,15.648c1.577,2.741 10.864,16.763 12.376,18.649c14.071,17.555 29.929,33.834 45.635,49.915c6.428,6.58 16.989,6.704 23.569,0.277c6.58,-6.428 6.705,-16.988 0.277,-23.569c-14.948,-15.304 -30.079,-30.762 -43.472,-47.471c-1.077,-1.344 -8.262,-12.509 -9.353,-14.208Zm-9.796,23.587c-2.248,0.711 -4.678,0.95 -7.149,0.623c2.718,0.37 5.091,0.046 7.149,-0.623Zm-7.2,0.617l-0.831,-0.133c0.28,0.052 0.557,0.097 0.831,0.133Zm8.008,-0.894l-0.438,0.155l0.31,-0.103l0.128,-0.052Zm8.714,-7.422c-1.792,3.171 -4.57,5.64 -7.847,7.074l0.017,-0.007c3.224,-1.411 5.944,-3.659 7.83,-7.067Z" style="fill:#7e4021;"/><path d="M514.108,2856.49c-1.088,-2.531 -2.823,-4.825 -5.166,-6.616c-7.307,-5.588 -17.776,-4.192 -23.363,3.114c-3.585,4.687 -4.749,10.236 -2.75,16.42c1.314,4.065 7.397,10.456 9.325,12.161c21.005,18.579 46.36,32.307 70.812,45.644c8.075,4.404 18.207,1.424 22.612,-6.651c4.405,-8.075 1.425,-18.208 -6.651,-22.613c-22.282,-12.154 -45.547,-24.417 -64.689,-41.348l-0.13,-0.111Z" style="fill:#7e4021;"/><path d="M193,1484.63c5.685,51.781 17.723,273.129 130.608,240.959c66.504,-18.952 113.935,115.753 171.514,125.247c103.293,17.033 83.841,96.278 174.335,116.384c67.998,15.107 67.95,-96.529 101.43,-67.084c65.665,57.752 260.71,79.251 450.96,102.534c93.282,11.416 262.781,152.611 368.69,164.079c168.948,18.295 289.814,-122.88 420.369,-135.983c55.614,-5.582 216.452,56.134 289.98,60.647c68.222,4.188 49.939,-38.709 96.847,-59.694c34.047,-15.23 95.484,21.637 122.24,18.587c84.808,-9.666 -91.802,-320.819 -103.293,-333.612c-9.074,-10.102 -199.559,229.636 -478.411,171.789c-397.663,-82.495 -360.481,12.583 -497.769,92.56c-73.957,43.083 -446.795,-238.028 -512.243,-185.071c-115.515,93.469 -224.958,-100.037 -275.494,-50.905c-134.353,130.62 -367.113,-256.394 -459.763,-260.437Z" style="fill:#fff;"/><path d="M766.2,1938.15c30.384,19.739 75.092,35.968 129.348,48.765c89.627,21.138 206.804,34.713 322.25,48.842c43.577,5.333 104.359,42.274 167.213,77.927c71.663,40.649 145.528,80.096 201.938,86.205c91.43,9.9 170.138,-22.19 243.363,-59.688c63.717,-32.628 122.444,-70.098 183.923,-76.269c19.799,-1.987 54.404,6.643 93.205,16.731c67.599,17.575 145.798,41.221 191.404,44.021c51.887,3.185 69.984,-13.905 84.923,-33.412c6.987,-9.124 10.89,-21.66 27.578,-29.125c3.497,-1.565 7.757,-0.928 12.263,-0.407c9.11,1.052 18.808,3.736 28.345,6.616c28.068,8.474 55.441,16.933 71.795,15.069c24.103,-2.747 39.296,-15.769 47.313,-36.626c6.804,-17.7 6.655,-45.434 -1.462,-78.374c-24.888,-100.995 -119.623,-264.545 -128.12,-274.005c-5.388,-5.999 -26.895,-20.589 -53.275,-0.167c-37.766,29.237 -206.115,210.767 -443.164,161.591c-165.826,-34.4 -259.206,-38.15 -320.621,-26.168c-50.821,9.916 -81.975,29.995 -112.15,54.736c-24.893,20.41 -48.939,44.63 -87.843,67.411c-1.302,0.036 -10.206,0.217 -16.372,-0.919c-14.588,-2.689 -32.015,-8.669 -51.454,-16.617c-64.995,-26.573 -149.612,-74.543 -225.953,-113.354c-64.102,-32.588 -123.085,-58.456 -162.107,-63.761c-27.034,-3.675 -47.692,1.916 -61.251,12.887c-29.749,24.071 -59.018,20.8 -85.877,9.336c-23.081,-9.852 -44.716,-25.009 -64.457,-38.34c-25.535,-17.243 -48.998,-31.382 -68.471,-35.662c-22.567,-4.961 -42.194,-0.523 -58.957,15.774c-21.833,21.227 -47.736,20.646 -75.013,9.926c-24.121,-9.481 -49.034,-26.144 -74.171,-46.176c-73.277,-58.394 -147.046,-144.518 -203.752,-191.745c-31.629,-26.341 -60.489,-40.899 -82.138,-41.844c-9.718,-0.424 -19.136,3.418 -25.785,10.519c-6.648,7.101 -9.863,16.751 -8.802,26.42c3.603,32.822 10.354,129.982 40.352,195.237c26.458,57.556 69.416,92.127 132.526,74.142c6.794,-1.936 12.723,1.512 18.73,5.645c12.496,8.597 24.108,21.915 35.742,35.728c17.509,20.787 34.752,42.793 52.245,58.283c16.202,14.345 33.179,23.611 50.237,26.423c50.541,8.334 63.922,36.527 83.38,60.013c20.015,24.159 43.604,45.902 89.149,56.022c43.806,9.732 70.943,-11.262 90.149,-39.244c4.412,-6.429 9.589,-15.046 13.824,-22.366Zm-573.2,-453.52c5.685,51.781 17.723,273.129 130.608,240.959c66.504,-18.952 113.935,115.753 171.514,125.247c103.293,17.033 83.841,96.278 174.335,116.384c67.998,15.107 67.95,-96.529 101.43,-67.084c65.665,57.752 260.71,79.251 450.96,102.534c93.282,11.416 262.781,152.611 368.69,164.079c168.948,18.295 289.814,-122.88 420.369,-135.983c55.614,-5.582 216.452,56.134 289.98,60.647c68.222,4.188 49.939,-38.709 96.847,-59.694c34.047,-15.23 95.484,21.637 122.24,18.587c84.808,-9.666 -91.802,-320.819 -103.293,-333.612c-9.074,-10.102 -199.559,229.636 -478.411,171.789c-397.663,-82.495 -360.481,12.583 -497.769,92.56c-73.957,43.083 -446.795,-238.028 -512.243,-185.071c-115.515,93.469 -224.958,-100.037 -275.494,-50.905c-134.353,130.62 -367.113,-256.394 -459.763,-260.437Z" style="fill:#7e4021;"/><path d="M762.114,1932.6c0.897,1.265 1.991,2.42 3.272,3.426c7.235,5.679 17.721,4.416 23.401,-2.819c2.871,-3.658 4.315,-8.138 3.325,-13.527c-0.393,-2.137 -1.4,-5.141 -3.792,-8.08c-1.347,-1.656 -4.954,-4.661 -4.954,-4.661c-0,-0 0.474,0.395 0.591,0.498c-7.389,-6.556 -14.647,-13.312 -21.697,-20.23c-15.687,-15.395 -30.072,-31.913 -44.268,-48.671c-5.945,-7.019 -16.47,-7.89 -23.489,-1.945c-7.019,5.946 -7.891,16.471 -1.945,23.49c14.856,17.539 29.936,34.805 46.354,50.917c7.448,7.309 15.116,14.446 22.921,21.372l0.281,0.23Z" style="fill:#7e4021;"/><path d="M1423.56,1988.25c20.422,5.398 41.41,8.335 62,12.939c44.867,10.031 88.927,26.475 126.113,54.002c7.393,5.473 17.839,3.914 23.312,-3.479c5.473,-7.393 3.914,-17.839 -3.479,-23.312c-40.928,-30.297 -89.291,-48.701 -138.673,-59.741c-20.451,-4.573 -41.315,-7.418 -61.581,-12.85c-1.223,-0.327 -3.501,-0.464 -5.594,-0.513c-1.749,-0.814 -3.67,-1.335 -5.705,-1.496c-9.17,-0.725 -17.203,6.132 -17.928,15.302c-0.641,8.108 2.852,13.114 8.132,16.501c2.222,1.426 9.915,2.312 13.403,2.647Zm11.536,-20.466c0.163,1 0.233,2.028 0.205,3.073c0.033,-1.094 -0.039,-2.116 -0.205,-3.073Zm-0.081,-0.466l0.006,0.026l-0.003,-0.014l-0.003,-0.012Z" style="fill:#7e4021;"/><path d="M347.202,1756c0.542,0.82 4.119,6.211 5.686,7.991c2.96,3.36 6.164,5.025 8.487,5.795c4.764,1.58 9.114,1.059 13.03,-0.848c3.212,-1.564 7.263,-4.416 9.232,-11.122c2.266,-7.72 -1.324,-15.779 -8.166,-19.411c-1.541,-2.178 -3.401,-4.695 -4.463,-5.739c-6.156,-6.055 -12.116,-12.306 -18.276,-18.356c-17.868,-17.549 -32.573,-36.673 -45.853,-57.858c-4.886,-7.794 -15.18,-10.155 -22.974,-5.269c-7.793,4.886 -10.154,15.18 -5.269,22.974c14.683,23.422 30.983,44.532 50.739,63.934c6.009,5.903 11.828,11.996 17.827,17.909Zm4.69,-8.318c-0.085,0.241 -0.164,0.49 -0.24,0.747l0.24,-0.747Zm0.218,-0.594l-0.087,0.239l0.115,-0.306l-0.028,0.067Z" style="fill:#7e4021;"/><path d="M2448.71,2067.51c7.098,4.667 16.726,3.247 22.145,-3.513c3.64,-4.543 4.119,-8.877 3.815,-12.398c-0.3,-3.472 -1.558,-6.731 -4.026,-9.639c-1.492,-1.759 -3.693,-3.642 -6.854,-4.963c-1.437,-0.6 -5.552,-1.46 -7.037,-1.759c-4.093,-1.51 -8.201,-2.956 -12.227,-4.647c-14.835,-6.235 -29.274,-13.51 -43.342,-21.304c-43.979,-24.367 -85.091,-48.085 -134.5,-60.204c-8.933,-2.192 -17.965,3.282 -20.157,12.216c-2.191,8.934 3.283,17.966 12.217,20.157c46.454,11.395 84.935,34.078 126.286,56.988c15.117,8.376 30.641,16.178 46.582,22.877c4.734,1.989 9.562,3.688 14.373,5.472c0.582,0.216 1.629,0.479 2.725,0.717Zm-5.414,-22.06l-0.069,0.131l0.109,-0.201l-0.04,0.07Zm0.331,-0.57l-0.125,0.216l0.276,-0.451l-0.151,0.235Zm0.367,-0.573l-0.099,0.154l0.354,-0.517l-0.255,0.363Zm0.357,-0.509l0.493,-0.647c-0.173,0.216 -0.338,0.432 -0.493,0.647Z" style="fill:#7e4021;"/><path d="M2009.06,2025.34l-0.221,0.2c-6.657,6.349 -6.907,16.907 -0.559,23.564c1.541,1.616 13.626,11.03 24.542,-0.323c2.582,-2.685 14.114,-17.664 14.868,-18.638c8.342,-10.783 16.015,-23.04 25.714,-32.642c6.918,-6.848 16.039,-7.201 25.312,-6.856c14.436,0.535 29.525,3.454 42.879,2.763c9.186,-0.475 16.258,-8.319 15.783,-17.505c-0.475,-9.186 -8.319,-16.259 -17.505,-15.784c-12.437,0.644 -26.476,-2.286 -39.921,-2.785c-18.615,-0.691 -36.111,2.73 -49.999,16.478c-10.723,10.616 -19.404,24.012 -28.627,35.934l-12.266,15.594Z" style="fill:#7e4021;"/><path d="M2070.3,1960.57l-0.49,-0.088c-17.208,-3.387 -90.225,-25.218 -98.067,-27.637c-8.79,-2.71 -18.127,2.225 -20.838,11.015c-2.711,8.79 2.225,18.127 11.015,20.838c8.11,2.502 83.655,24.987 101.453,28.49c6.687,1.316 11.04,0.221 12.327,-0.233c8.674,-3.061 13.232,-12.588 10.171,-21.263c-2.397,-6.792 -8.758,-11.06 -15.571,-11.122Z" style="fill:#7e4021;"/><path d="M2441.31,2108.5l0.05,0.269c1.81,8.52 3.396,17.113 4.887,25.693c3.427,19.724 6.515,39.483 9.673,59.25c1.452,9.083 10.005,15.279 19.088,13.828c9.083,-1.452 15.279,-10.005 13.828,-19.088c-3.183,-19.916 -6.295,-39.824 -9.748,-59.697c-1.562,-8.987 -3.226,-17.987 -5.122,-26.912c-0.465,-2.188 -2.544,-7.466 -3.072,-8.224c-4.494,-6.46 -10.324,-7.338 -14.455,-7.153c-3.495,0.156 -7.1,1.273 -10.435,4.284c-1.278,1.153 -4.332,3.735 -5.325,9.825c-0.449,2.75 -0.195,5.453 0.631,7.925Zm26.582,7.473c-1.947,1.65 -4.265,2.848 -6.777,3.469c2.303,-0.491 4.611,-1.544 6.777,-3.469Zm3.636,-4.327c0.774,-1.252 1.62,-3.074 2.049,-5.705c-0.338,2.073 -1.045,3.994 -2.049,5.705Z" style="fill:#7e4021;"/><path d="M2463.25,2252.47c0.318,5.045 2.569,40.877 2.722,45.178c0.329,9.192 8.059,16.389 17.251,16.061c9.193,-0.329 16.39,-8.059 16.061,-17.251c-0.189,-5.292 -1.475,-43.201 -3.646,-52.308c-1.505,-6.311 -4.816,-9.548 -6.494,-10.896c-7.172,-5.759 -17.671,-4.613 -23.431,2.56c-3.904,4.861 -4.635,11.251 -2.463,16.656Z" style="fill:#7e4021;"/><path d="M2592.51,3201.2c21.421,-18.352 64.647,159.034 43.317,210.939c-18.851,45.874 -84.264,-15.218 -185.399,-9.628c-41.012,2.267 -83.773,80.091 -135.26,88.607c-35.919,5.942 -114.752,-46.514 -154.818,-39.128c-46.72,8.613 -86.155,90.185 -136.46,101.402c-39.957,8.909 -126.948,-53.208 -168.681,-44.324c-63.218,13.459 -111.598,90.285 -175.223,106.107c-36.506,9.078 -108.829,-53.482 -145.443,-45.392c-37.752,8.341 -74.481,86.725 -111.014,95.925c-46.9,11.811 -128.064,-61.477 -172.822,-53.194c-59.943,11.093 -74.453,80.587 -125.693,96.856c-53.608,17.02 -127.714,-75.529 -176.032,-74.534c-58.894,1.213 -63.824,79.504 -120.141,76.301c-51.411,-2.924 -92.726,-79.668 -142.903,-94.181c-32.644,-9.442 -98.045,73.913 -113.389,53.983c-55.033,-71.482 -25.671,-246.554 -0.05,-213.922c169.523,215.916 1936.72,-184.458 2020.01,-255.817Z" style="fill:#daa357;"/><path d="M2581.67,3188.54c-11.059,9.474 -53.754,24.151 -118.872,43.397c-274.004,80.98 -931.085,223.492 -1396.33,261.917c-148.274,12.246 -276.896,13.978 -366.935,-0.554c-55.287,-8.923 -95.391,-22.973 -113.924,-46.578c-5.876,-7.483 -12.499,-10.034 -18.382,-10.353c-7.692,-0.417 -16.93,3.317 -24.003,14.709c-10.348,16.666 -19.22,58.683 -18.51,104.537c0.705,45.477 10.691,94.395 34.63,125.488c5.431,7.055 12.78,10.221 22.041,9.501c6.707,-0.521 15.549,-4.054 25.27,-10.306c15.836,-10.186 36.078,-28.19 54.658,-39.528c4.969,-3.032 9.749,-5.553 14.238,-6.972c2.12,-0.669 4.035,-1.332 5.758,-0.834c22.898,6.623 43.265,28.142 64.283,47.643c26.11,24.227 53.156,45.509 82.304,47.167c28.435,1.617 46.953,-12.296 63.143,-30.786c7.583,-8.662 14.628,-18.361 22.598,-26.913c9.173,-9.845 19.654,-18.248 35.689,-18.579c9.125,-0.188 19.215,4.468 30.174,10.55c20.712,11.495 43.294,28.773 65.637,42.384c29.691,18.088 59.496,28.894 84.921,20.822c28.644,-9.095 47.69,-32.265 67.284,-55.513c15.1,-17.916 30.575,-36.061 56.399,-40.84c6.628,-1.227 14.282,0.385 22.648,3.003c16.203,5.071 34.285,14.378 52.497,23.448c20.094,10.006 40.338,19.731 58.623,24.656c14.613,3.936 28.229,4.848 40.091,1.861c9.495,-2.391 19.181,-8.062 28.705,-16.198c11.599,-9.908 23.298,-23.68 34.989,-37.472c8.791,-10.372 17.586,-20.746 26.462,-28.996c6.856,-6.372 13.443,-11.613 20.384,-13.147c4.942,-1.092 10.792,0.215 17.276,2.169c13.629,4.108 29.041,11.899 44.488,19.556c17.278,8.566 34.594,16.984 49.819,21.391c12.822,3.711 24.529,4.602 34.286,2.176c34.061,-8.47 64.369,-32.731 94.295,-57.214c25.804,-21.11 51.195,-42.553 80.376,-48.765c6.262,-1.333 13.851,-0.142 22.275,1.934c16.114,3.971 34.51,11.684 52.856,19.322c19.988,8.321 39.92,16.568 57.144,20.89c13.936,3.497 26.454,4.397 36.563,2.143c27.925,-6.227 53.552,-31.001 77.963,-56.394c10.514,-10.938 20.888,-21.83 31.46,-30.47c8.669,-7.085 17.271,-12.726 26.432,-14.415c6.105,-1.125 13.371,-0.131 21.342,1.67c14.957,3.38 31.815,9.933 48.518,16.48c18.21,7.137 36.245,14.287 51.775,18.243c12.565,3.2 23.822,4.287 32.881,2.789c28.635,-4.737 55.468,-27.776 80.22,-50.916c10.613,-9.922 20.879,-19.695 30.971,-27.085c7.642,-5.596 14.864,-9.999 22.269,-10.409c58.782,-3.249 105.035,17.161 136.634,24.086c17.5,3.835 31.711,3.618 42.485,-1.562c8.684,-4.174 15.885,-11.301 20.776,-23.202c7.547,-18.366 8.565,-50.901 4.622,-86.044c-5.629,-50.174 -20.594,-105.749 -34.076,-129.54c-12.784,-22.557 -29.862,-23.137 -40.122,-14.347Zm11.297,31.964c2.159,3.922 4.893,9.263 6.806,14.285c10.789,28.328 20.827,73.514 24.077,112.664c1.99,23.969 1.836,45.521 -3.436,58.348c-4.16,10.123 -13.296,7.503 -25.293,4.873c-33.641,-7.373 -83.029,-28.266 -145.609,-24.807c-19.503,1.078 -40.088,15.22 -60.787,34.02c-12.785,11.612 -25.95,24.801 -39.72,35.688c-11.704,9.253 -23.699,16.971 -36.554,19.097c-5.309,0.878 -11.85,-0.329 -19.214,-2.205c-14.36,-3.657 -30.999,-10.375 -47.837,-16.975c-32.466,-12.725 -65.8,-24.001 -88.068,-19.896c-26.196,4.83 -51.224,28.917 -75.88,54.565c-19.567,20.355 -38.801,41.969 -61.186,46.961c-5.875,1.31 -13.098,0.092 -21.197,-1.94c-15.823,-3.97 -34.082,-11.687 -52.445,-19.332c-20.005,-8.329 -40.12,-16.584 -57.692,-20.914c-14.036,-3.459 -26.757,-4.393 -37.19,-2.172c-34.039,7.246 -64.444,30.944 -94.543,55.568c-25.976,21.252 -51.667,43.314 -81.233,50.666c-4.848,1.206 -10.601,-0.003 -16.973,-1.847c-13.557,-3.924 -28.896,-11.61 -44.283,-19.237c-17.218,-8.535 -34.48,-17.027 -49.673,-21.606c-12.735,-3.838 -24.38,-4.947 -34.087,-2.802c-9.839,2.174 -19.795,7.682 -29.536,15.706c-11.898,9.801 -23.789,23.56 -35.546,37.432c-8.844,10.434 -17.624,20.919 -26.408,29.321c-6.787,6.493 -13.239,11.875 -19.999,13.578c-9.012,2.269 -19.591,-0.202 -31.047,-4.107c-14.256,-4.86 -29.483,-12.363 -44.667,-19.924c-19.885,-9.903 -39.709,-19.886 -57.401,-25.422c-14.234,-4.454 -27.392,-6.055 -38.669,-3.968c-34.124,6.315 -55.868,28.46 -75.821,52.135c-15.46,18.343 -29.282,38.049 -51.883,45.224c-9.908,3.146 -20.677,0.499 -31.944,-4.134c-14.303,-5.882 -29.083,-15.296 -43.755,-25.097c-19.375,-12.942 -38.547,-26.563 -56.14,-35.33c-14.099,-7.027 -27.495,-10.997 -39.493,-10.75c-35.087,0.723 -55.022,22.961 -73.65,45.987c-12.252,15.144 -23.133,31.592 -45.2,30.337c-22.272,-1.266 -41.574,-19.81 -61.525,-38.322c-25.039,-23.232 -50.414,-47.338 -77.694,-55.229c-9.056,-2.62 -19.853,-1.455 -31.437,3.431c-18.568,7.832 -40.646,26.144 -59.386,40.075c-5.315,3.95 -10.314,7.487 -14.826,10.076c-0.804,0.461 -1.753,0.931 -2.665,1.345c-27.093,-40.593 -27.959,-110.829 -20.235,-155.393c1.429,-8.241 4.196,-16.892 6.511,-23.261c24.612,23.031 67.62,39.62 125.689,48.992c92.017,14.85 223.462,13.381 374.991,0.866c467.476,-38.61 1127.71,-181.802 1403.03,-263.171c58.748,-17.363 100.564,-32.645 120.722,-43.399Zm9.845,-6.211l0.545,-0.439l-0.097,0.081c-0.148,0.125 -0.298,0.244 -0.448,0.358Z" style="fill:#7e4021;"/></g></svg>