<?xml version="1.0" encoding="UTF-8" standalone="no"?><!DOCTYPE svg PUBLIC "-//W3C//DTD SVG 1.1//EN" "http://www.w3.org/Graphics/SVG/1.1/DTD/svg11.dtd"><svg width="100%" height="100%" viewBox="0 0 3063 2944" version="1.1" xmlns="http://www.w3.org/2000/svg" xmlns:xlink="http://www.w3.org/1999/xlink" xml:space="preserve" xmlns:serif="http://www.serif.com/" style="fill-rule:evenodd;clip-rule:evenodd;stroke-linejoin:round;stroke-miterlimit:2;"><g id="Cream-roll" serif:id="Cream roll"><path d="M2878.25,2441.04c97.885,-210.671 39.276,-336.344 60.369,-578.766c24.332,-279.656 -48.431,-609.064 -272.257,-740.32c-89.225,-52.324 -198.283,-85.791 -276.173,-155.114c-86.231,-76.745 -96.93,-185.718 -213.35,-262.749c-147.102,-97.332 -250.448,-66.225 -345.467,-131.929c-91.667,-63.387 -89.247,-150.899 -218.583,-240.739c-105.215,-73.085 -221.706,-23.785 -314.012,-65.742c-72.962,-33.165 -69.539,-108.358 -185.931,-147.792c-102.688,-34.791 -181.081,-18.768 -279.579,-33.542c-70.912,-10.637 -131.034,-57.615 -203.469,-65.723c-217.785,-24.379 -430.447,236.123 -522.209,402c-69.118,124.945 -132.953,324.846 -52.953,460.232c23.471,39.719 71.549,66.248 88.199,108.63c27.192,69.215 17.634,133.132 77.812,190.869c73.809,70.816 155.538,48.828 184.569,93.988c75.558,117.535 55.905,212.422 175.545,339.001c105.311,111.419 245.609,76.16 326.913,176.226c85.838,105.647 13.598,222.139 102.501,366.075c81.241,131.53 162.236,98.168 237.011,164.988c64.927,58.02 68.65,184.183 176.526,286.489c126.024,119.517 238.869,40.067 346.98,162.841c94.343,107.14 190.913,158.215 283.712,157.209c417.765,-4.532 694.827,-208.458 823.846,-486.132Z" style="fill:#f7bf9a;"/><path d="M2893.36,2448.06c50.177,-107.991 60.308,-194.183 60.534,-284.457c0.219,-87.645 -9.173,-179.241 1.325,-299.887c24.877,-285.922 -51.589,-621.945 -280.43,-756.142c-88.309,-51.786 -196.433,-84.576 -273.524,-153.187c-41.789,-37.192 -65.015,-82.384 -92.16,-127.421c-29.169,-48.394 -62.447,-96.664 -123.074,-136.778c-75.687,-50.079 -140.076,-67.217 -197.807,-80.186c-53.912,-12.111 -101.722,-19.982 -147.376,-51.552c-43.841,-30.315 -64.88,-66.66 -90.726,-105.907c-27.972,-42.475 -60.885,-88.31 -127.829,-134.811c-55.535,-38.576 -113.911,-45.341 -170.719,-47.51c-51.57,-1.97 -101.675,0.387 -145.904,-19.717c-33.86,-15.391 -49.504,-41.058 -70.679,-66.928c-24.386,-29.795 -54.594,-60.4 -116.801,-81.476c-103.76,-35.154 -182.929,-19.311 -282.454,-34.24c-34.048,-5.107 -65.444,-19.124 -97.084,-32.652c-34.441,-14.725 -69.146,-28.914 -107.004,-33.152c-91.088,-10.196 -181.543,26.585 -263.169,86.313c-119.106,87.153 -219.476,222.951 -275.477,324.183c-42.483,76.795 -82.884,181.275 -90.812,282.494c-5.436,69.39 4.385,137.239 38.094,194.284c12.438,21.05 31.213,38.764 49.269,56.672c15.346,15.22 30.265,30.483 37.765,49.574c13.349,33.98 17.573,66.687 25.95,97.958c9.263,34.577 23.169,67.502 55.836,98.844c46.817,44.918 96.403,55.021 135.406,65.825c20.122,5.574 37.182,10.37 46.682,25.148c36.994,57.545 50.496,109.624 69.577,162.732c20.145,56.069 46.035,113.277 107.876,178.706c54.96,58.147 118.8,78.486 179.757,96.878c55.167,16.645 107.932,31.147 146.333,78.409c40.449,49.784 42.837,102.363 46.402,159.212c3.932,62.71 8.642,130.293 54.854,205.111c51.6,83.542 103.039,104.33 153.086,122.804c29.645,10.943 58.868,20.714 87,45.854c24.334,21.745 39.033,53.987 54.932,90.648c26.211,60.437 54.576,132.294 121.231,195.506c66.05,62.641 128.451,73.579 188.701,84.506c54.102,9.811 106.358,19.476 157.238,77.257c98.37,111.711 199.643,163.909 296.402,162.859c425.522,-4.615 707.365,-212.944 838.779,-495.774l0,-0Zm-30.229,-14.046c-126.623,272.518 -398.904,472.042 -808.912,476.489c-88.841,0.964 -180.704,-48.988 -271.023,-151.557c-57.231,-64.994 -115.452,-76.99 -176.307,-88.027c-54.706,-9.921 -111.738,-19.016 -171.712,-75.893c-62.797,-59.555 -88.893,-127.643 -113.587,-184.583c-18.038,-41.592 -35.695,-77.57 -63.302,-102.24c-31.688,-28.317 -64.276,-39.944 -97.668,-52.27c-44.507,-16.429 -90.381,-34.755 -136.269,-109.05c-42.692,-69.118 -46.313,-131.747 -49.946,-189.68c-4,-63.793 -8.41,-122.281 -53.8,-178.145c-42.904,-52.806 -100.937,-70.706 -162.574,-89.303c-55.846,-16.85 -114.81,-34.591 -165.161,-87.862c-69.628,-73.666 -90.428,-136.372 -111.908,-199.289c-15.17,-44.434 -30.676,-88.97 -61.73,-137.277c-13.73,-21.358 -36.742,-31.191 -65.823,-39.247c-34.787,-9.636 -79.472,-17.692 -121.228,-57.754c-33.324,-31.973 -43.085,-66.197 -51.298,-102.101c-6.109,-26.708 -11.338,-54.324 -22.54,-82.836c-9.15,-23.292 -26.594,-42.483 -45.317,-61.053c-16.014,-15.883 -33.013,-31.292 -44.045,-49.962c-30.292,-51.264 -38.444,-112.367 -33.56,-174.724c7.551,-96.4 46.288,-195.822 86.748,-268.961c54.113,-97.82 150.904,-229.204 265.994,-313.418c74.504,-54.517 156.636,-89.394 239.777,-80.087c34.577,3.87 66.151,17.225 97.608,30.675c34.257,14.647 68.378,29.437 105.243,34.967c97.47,14.62 175.086,-1.582 276.703,32.846c65.565,22.213 90.43,56.78 114.792,87.391c18.902,23.752 37.7,45.292 69.591,59.788c48.077,21.853 102.368,20.539 158.425,22.68c50.818,1.94 103.294,7.068 152.974,41.577c75.268,52.283 104.339,103.924 134.91,150.014c22.142,33.382 45.066,64.028 83.703,90.745c39.872,27.571 81.042,39.144 126.088,49.339c62.805,14.214 133.598,25.837 219.661,82.781c55.794,36.917 86.075,81.65 112.918,126.186c28.868,47.895 54.107,95.562 98.548,135.114c78.691,70.035 188.681,104.18 278.823,157.041c86.588,50.777 149.569,132.411 192.746,229.169c65.867,147.605 85.698,330.289 71.338,495.33c-10.596,121.775 -1.229,214.227 -1.45,302.692c-0.215,85.835 -9.721,167.815 -57.43,270.495l-0,-0Z" style="fill:#7e4021;"/><path d="M86.193,640.095c-2.944,12.988 -8.803,38.97 -9.328,42.27c-6.341,39.886 -3.393,77.172 8.958,115.652c2.812,8.758 12.205,13.587 20.963,10.775c8.759,-2.811 13.587,-12.204 10.776,-20.963c-10.705,-33.348 -13.273,-65.662 -7.777,-100.23c0.499,-3.134 6.12,-27.799 8.917,-40.135c2.033,-8.971 -3.599,-17.905 -12.57,-19.939c-8.971,-2.034 -17.905,3.599 -19.939,12.57Z" style="fill:#7e4021;"/><path d="M113.088,864.174c1.028,1.249 1.559,3.393 2.342,5.461c1.757,4.637 3.462,9.39 5.254,12.779c4.298,8.133 14.39,11.246 22.523,6.948c8.133,-4.298 11.246,-14.39 6.948,-22.523c-3.488,-6.598 -6.842,-18.394 -11.329,-23.846c-5.845,-7.103 -16.357,-8.124 -23.46,-2.278c-7.102,5.845 -8.123,16.357 -2.278,23.459Z" style="fill:#7e4021;"/><path d="M1305.78,2375.11c-5.357,-17.939 -9.463,-36.268 -12.715,-54.698c-11.277,-63.903 -7.828,-126.76 6.51,-189.846c2.039,-8.97 -3.589,-17.907 -12.559,-19.946c-8.969,-2.039 -17.907,3.589 -19.945,12.558c-15.333,67.465 -18.892,134.689 -6.832,203.027c3.475,19.693 7.878,39.274 13.601,58.443c2.632,8.814 11.925,13.833 20.739,11.201c8.814,-2.632 13.833,-11.925 11.201,-20.739Z" style="fill:#7e4021;"/><path d="M1737.49,2419.71c-0.483,-1.822 -1.109,-4.164 -1.396,-5.152c-9.114,-31.331 -13.467,-64.117 -16.937,-96.504c-7.501,-70.008 -2.132,-140.721 7.069,-210.309c1.206,-9.119 -5.219,-17.501 -14.338,-18.707c-9.119,-1.206 -17.502,5.219 -18.707,14.338c-9.548,72.206 -14.951,145.587 -7.168,218.229c3.678,34.327 8.414,69.056 18.074,102.263c1.05,3.612 4.08,12.759 4.922,13.973c5.34,7.701 12.316,7.665 16.29,7.065c2.463,-0.372 14.229,-2.256 14.291,-17.036c0.012,-2.961 -0.75,-5.746 -2.1,-8.16Zm-31.187,6.851l-0.005,0.109l0.021,-0.253l-0.016,0.144Z" style="fill:#7e4021;"/><path d="M1713.76,1994.06c-5.459,6.191 -5.596,15.633 -0.005,21.999c6.07,6.911 16.609,7.593 23.521,1.523c2.261,-1.987 6.363,-7.837 10.221,-16.865c9.635,-22.548 25.151,-72.064 30.133,-82.806c3.87,-8.345 0.237,-18.262 -8.108,-22.132c-8.345,-3.87 -18.262,-0.237 -22.132,8.108c-4.447,9.588 -17.206,49.432 -26.897,74.658c-2.485,6.468 -6.074,14.123 -6.733,15.515Z" style="fill:#7e4021;"/><path d="M1341.27,1374.13c165.836,-186.656 407.024,-307.302 655.322,-355.36c9.031,-1.748 14.944,-10.499 13.196,-19.53c-1.747,-9.031 -10.499,-14.944 -19.53,-13.196c-255.421,49.437 -503.314,173.937 -673.907,365.947c-6.11,6.876 -5.487,17.42 1.39,23.529c6.876,6.11 17.419,5.487 23.529,-1.39Z" style="fill:#7e4021;"/><path d="M1849.49,569.087c-23.708,-5.569 -51.908,-2.192 -75.69,-0.247c-49.105,4.018 -97.055,15.69 -144.133,29.929c-137.267,41.517 -259.652,122.97 -351.344,233.267c-5.881,7.073 -4.912,17.59 2.161,23.471c7.074,5.88 17.591,4.912 23.471,-2.162c87.523,-105.282 204.337,-183.041 335.362,-222.67c44.821,-13.557 90.449,-24.787 137.201,-28.612c20.534,-1.68 44.88,-5.335 65.35,-0.526c8.955,2.103 17.933,-3.459 20.036,-12.414c2.104,-8.955 -3.459,-17.933 -12.414,-20.036Z" style="fill:#7e4021;"/><path d="M427.868,1278.89c-4.866,-46.294 16.549,-98.086 21.436,-106.236c13.849,-23.096 38.162,-48.001 56.601,-61.595c7.404,-5.458 8.983,-15.901 3.525,-23.305c-5.458,-7.404 -15.901,-8.984 -23.305,-3.525c-21.325,15.721 -49.392,44.572 -65.409,71.282c-5.839,9.739 -31.813,71.547 -25.999,126.863c0.962,9.148 9.169,15.794 18.318,14.833c9.148,-0.961 15.794,-9.169 14.833,-18.317Z" style="fill:#7e4021;"/><path d="M851.75,71.966c-23.637,2.61 -57.199,12.429 -135.031,48.132c-93.149,42.729 -177.195,103.028 -249.513,175.346c-6.504,6.504 -6.504,17.066 0,23.57c6.504,6.505 17.066,6.505 23.57,0c69.524,-69.524 150.29,-127.54 239.841,-168.618c72.079,-33.064 102.901,-42.881 124.791,-45.298c9.143,-1.009 15.746,-9.252 14.737,-18.395c-1.01,-9.143 -9.252,-15.746 -18.395,-14.737Z" style="fill:#7e4021;"/><path d="M2816.74,1870.48c-22.201,-66.688 -59.556,-291.535 -265.086,-344.135c-141.037,-36.095 -288.863,28.946 -402.87,109.258c-747.475,526.561 -169.54,1628.22 632.444,822.573c100.954,-101.414 212.582,-223.81 259.778,-362.103c38.863,-113.877 -164.918,-47.33 -224.266,-225.593Z" style="fill:#fff;"/><path d="M2832.56,1865.22c-11.265,-33.835 -26.529,-107.737 -64.892,-179.908c-39.752,-74.786 -103.819,-147.454 -211.876,-175.109c-145.738,-37.297 -298.793,28.79 -416.6,111.78c-460.031,324.07 -426.89,861.048 -152.076,1059.85c183.297,132.596 476.719,118.826 805.93,-211.888c102.651,-103.119 215.751,-227.862 263.739,-368.48c7.965,-23.337 7.056,-40.786 1.138,-54.522c-8.431,-19.572 -28.498,-32.613 -55.747,-43.584c-52.651,-21.2 -136.133,-37.557 -169.616,-138.134Zm-31.627,10.53c37.735,113.346 129.457,134.633 188.793,158.524c17.565,7.073 32.149,13.235 37.584,25.851c3.324,7.718 2.403,17.458 -2.072,30.57c-46.402,135.969 -156.558,256.018 -255.815,355.728c-312.384,313.811 -588.842,334.216 -762.77,208.398c-261.023,-188.822 -285.21,-697.78 151.736,-1005.59c110.207,-77.636 252.802,-141.629 389.139,-106.737c97.473,24.946 154.848,91 190.707,158.461c37.247,70.074 51.761,141.94 62.698,174.793Z" style="fill:#7e4021;"/><path d="M3021.87,2048.43c-53.959,34.364 -139.276,78.326 -205.391,78.326c-42.912,0 -87.192,-11.862 -123.508,-34.791c-80.219,-50.649 -99.171,-127.032 -121.287,-195.986c-24.923,-77.706 -53.434,-146.738 -153.749,-173.035c-8.898,-2.332 -18.016,2.998 -20.349,11.896c-2.332,8.898 2.998,18.016 11.896,20.348c86.473,22.668 108.977,83.988 130.461,150.971c24.29,75.734 47.126,158.363 135.232,213.991c41.559,26.24 92.197,39.94 141.304,39.94c71.708,-0 164.773,-46.273 223.296,-83.544c7.759,-4.941 10.047,-15.252 5.106,-23.011c-4.942,-7.758 -15.252,-10.046 -23.011,-5.105Z" style="fill:#7e4021;"/><path d="M1933.77,1873.52c20.889,-9.429 63.287,-19.384 86.064,-22.015c58.772,-6.788 131.416,1.607 181.483,34.878c73.234,48.667 97.011,118.99 129.004,184.688c35.014,71.899 78.467,139.018 191.302,174.333c8.779,2.747 18.137,-2.149 20.884,-10.928c2.748,-8.779 -2.149,-18.137 -10.928,-20.884c-101.33,-31.714 -139.845,-92.547 -171.289,-157.116c-34.465,-70.771 -61.634,-145.429 -140.524,-197.855c-56.268,-37.392 -137.707,-47.858 -203.757,-40.229c-25.407,2.935 -72.652,14.229 -95.954,24.747c-8.384,3.785 -12.118,13.664 -8.333,22.048c3.784,8.384 13.664,12.118 22.048,8.333Z" style="fill:#7e4021;"/><path d="M3024.99,2060.51c-23.11,17.711 -42.253,41.911 -61.379,63.555c-38.794,43.9 -75.896,89.258 -117.286,130.807c-80.33,80.641 -212.181,161.678 -344.627,180.548c-86.089,12.265 -172.488,-1.979 -244.257,-61.425c-7.084,-5.868 -17.599,-4.88 -23.467,2.204c-5.867,7.084 -4.88,17.599 2.204,23.467c79.454,65.811 174.914,82.333 270.221,68.754c139.647,-19.896 278.844,-104.998 363.542,-190.023c41.859,-42.021 79.415,-87.862 118.648,-132.259c17.737,-20.071 35.246,-42.746 56.677,-59.17c7.301,-5.596 8.686,-16.066 3.091,-23.367c-5.596,-7.301 -16.066,-8.686 -23.367,-3.091Z" style="fill:#7e4021;"/><path d="M1786.08,2242.2c5.811,55.902 37.143,114.836 66.186,161.372c72.945,116.882 190.313,197.566 327.056,218.975c9.088,1.423 17.621,-4.8 19.044,-13.888c1.423,-9.088 -4.8,-17.621 -13.888,-19.044c-127.114,-19.902 -236.126,-95.04 -303.933,-203.691c-26.548,-42.538 -55.998,-96.072 -61.31,-147.17c-0.952,-9.15 -9.152,-15.806 -18.301,-14.854c-9.149,0.951 -15.805,9.151 -14.854,18.3Z" style="fill:#7e4021;"/><path d="M2146.07,2243.22c-0.907,-1.537 -4.711,-8.077 -7.384,-13.808c-11.929,-25.573 -28.449,-68.439 -45.372,-92.847c-58.571,-84.476 -164.958,-98.405 -265.382,-66.17c-8.759,2.811 -13.587,12.204 -10.776,20.963c2.812,8.758 12.205,13.587 20.963,10.775c85.912,-27.576 177.695,-18.843 227.801,53.425c16,23.076 31.279,63.767 42.557,87.945c4.104,8.799 7.879,15.735 10.952,19.834c2.935,3.915 5.948,6.31 8.392,7.651c8.065,4.425 18.204,1.471 22.629,-6.593c3.993,-7.277 1.978,-16.243 -4.38,-21.175Z" style="fill:#7e4021;"/><path d="M2491.91,2085.78c-30.832,-53.169 47.584,-47.964 99.335,-26.843c44.016,17.965 194.348,131.087 119.829,164.197c-18.466,8.205 -57.631,-49.178 -99.187,-77.657c-66.911,-45.855 -104.547,-33.089 -119.977,-59.697Z" style="fill:#facad0;"/><path d="M2477.5,2094.15c8.271,14.262 20.649,21.058 39.048,26.841c19.572,6.151 47.773,12.097 85.925,38.243c28.821,19.751 56.413,53.609 76.69,69.313c15.181,11.756 29.099,14.087 38.687,9.827c16.934,-7.524 25.486,-18.468 28.784,-30.551c3.093,-11.331 1.36,-24.491 -5.158,-38.418c-22.86,-48.844 -111.027,-112.463 -143.925,-125.889c-35.097,-14.325 -81.209,-20.797 -104.823,-11.802c-12.766,4.862 -20.784,13.46 -23.509,25.015c-2.186,9.272 -0.79,21.778 8.281,37.421Zm229.36,112.532c-2.699,-1.726 -10.24,-6.693 -15.496,-11.466c-19.731,-17.918 -44.501,-45.97 -70.047,-63.478c-35.431,-24.282 -63.095,-33.079 -83.96,-39.292c-7.32,-2.179 -13.694,-3.968 -19.154,-6.161c-5.091,-2.044 -9.194,-4.248 -11.867,-8.857c-3.281,-5.657 -5.463,-9.697 -4.673,-13.051c0.177,-0.75 1.147,-0.737 1.922,-1.093c2.522,-1.156 5.606,-1.812 9.046,-2.231c19.947,-2.428 49.095,3.844 72.324,13.324c24.924,10.172 85.878,52.785 115.534,91.907c6.041,7.969 10.749,15.689 13.057,22.941c1.324,4.158 2.041,7.996 0.366,11.289c-1.279,2.514 -3.707,4.439 -7.052,6.168Z" style="fill:#7e4021;"/><path d="M2313.48,1961.73c60.579,10.384 28.389,-61.31 -9.435,-102.465c-32.17,-35.003 -190.567,-136.523 -195.65,-55.138c-1.26,20.167 66.17,36.895 107.339,65.93c66.289,46.751 67.43,86.476 97.746,91.673Z" style="fill:#facad0;"/><path d="M2310.67,1978.16c17.823,3.055 30.032,0.008 37.963,-5.271c9.883,-6.578 15.149,-17.088 15.261,-30.749c0.207,-25.269 -21.92,-66.239 -47.572,-94.15c-24.044,-26.161 -114.386,-86.65 -168.134,-91.067c-15.325,-1.26 -28.265,1.699 -37.809,8.545c-10.178,7.3 -17.458,19.128 -18.613,37.623c-0.654,10.471 6.378,22.706 22.686,32.841c21.783,13.538 63.131,27.611 91.683,47.748c37.797,26.657 53.193,51.021 65.775,67.225c11.829,15.233 22.511,24.47 38.76,27.255Zm-185.369,-175.806c0.456,-3.737 1.415,-6.684 3.326,-8.758c2.504,-2.717 6.35,-3.382 10.709,-3.589c7.602,-0.362 16.478,1.362 26.053,4.249c47.001,14.174 108.175,56.47 126.391,76.29c16.978,18.474 33.008,43.613 37.679,63.156c0.806,3.371 1.265,6.49 1.06,9.256c-0.064,0.851 0.286,1.756 -0.356,2.183c-2.868,1.909 -7.415,1.27 -13.861,0.165l-0,-0c-5.251,-0.9 -8.746,-3.979 -12.435,-8.039c-3.957,-4.354 -7.854,-9.707 -12.447,-15.81c-13.091,-17.394 -30.972,-40.261 -66.074,-65.017c-25.308,-17.85 -60.231,-31.298 -83.899,-43.553c-6.305,-3.265 -13.588,-8.604 -16.146,-10.533Z" style="fill:#7e4021;"/><path d="M2081.61,1905.12c61.524,21.456 129.363,94.1 149.018,134.004c41.931,85.128 -38.485,123.505 -121.7,94.676c-186.979,-64.778 -217.608,-295.043 -27.318,-228.68Z" style="fill:#fff;"/><path d="M2087.1,1889.38c-66.202,-23.087 -109.077,-11.939 -131.186,12.423c-21.329,23.501 -25.578,61.672 -10.725,102.708c19.918,55.029 74.134,115.881 158.286,145.035c57.635,19.967 113.731,9.401 139.233,-21.389c18.115,-21.871 23.504,-54.516 2.874,-96.399c-20.895,-42.42 -93.079,-119.568 -158.482,-142.378l-0,0Zm-10.977,31.475c57.646,20.103 121.14,88.243 139.556,125.632c12.925,26.241 12.707,46.705 1.357,60.408c-6.763,8.166 -16.983,13.616 -29.053,16.722c-20.929,5.385 -47.091,3.615 -73.597,-5.568c-72.911,-25.26 -120.596,-77.204 -137.854,-124.882c-9.936,-27.452 -10.203,-53.241 4.065,-68.963c16.038,-17.671 47.505,-20.097 95.526,-3.349l0,-0Z" style="fill:#7e4021;"/><path d="M2492.28,2186.6c61.525,21.457 129.364,94.101 149.019,134.005c41.931,85.128 -38.485,123.504 -121.7,94.675c-186.979,-64.777 -217.608,-295.043 -27.319,-228.68Z" style="fill:#fff;"/><path d="M2497.76,2170.86c-66.202,-23.087 -109.078,-11.939 -131.186,12.422c-21.329,23.502 -25.578,61.673 -10.725,102.709c19.917,55.029 74.134,115.881 158.285,145.035c57.636,19.967 113.732,9.4 139.233,-21.389c18.115,-21.872 23.504,-54.516 2.874,-96.399c-20.894,-42.42 -93.078,-119.569 -158.481,-142.378l-0,0Zm-10.977,31.474c57.646,20.104 121.14,88.244 139.556,125.632c12.925,26.241 12.706,46.706 1.357,60.409c-6.764,8.166 -16.984,13.616 -29.053,16.722c-20.929,5.385 -47.091,3.615 -73.597,-5.568c-72.911,-25.26 -120.597,-77.204 -137.854,-124.883c-9.936,-27.452 -10.203,-53.241 4.065,-68.962c16.037,-17.671 47.505,-20.097 95.526,-3.35l0,0Z" style="fill:#7e4021;"/><path d="M2081.61,1905.12c61.524,21.456 -41.325,196.083 -65.714,173.537c-97.353,-89.992 -86.454,-226.605 65.714,-173.537Z" style="fill:#7e4021;"/><path d="M2087.1,1889.38c-70.974,-24.751 -115.129,-10.238 -135.855,18.153c-13.028,17.847 -17.746,42.259 -13.309,69.508c5.935,36.453 28.463,78.554 66.648,113.853c6.401,5.917 14.48,8.029 24.071,5.376c9.802,-2.711 23.706,-13.687 37.011,-30.913c26.467,-34.265 53.563,-92.934 51.858,-130.459c-1.018,-22.398 -10.832,-38.685 -30.424,-45.518l-0,0Zm-64.342,172.794c-32.511,-31.696 -51.078,-68.764 -52.974,-99.781c-0.984,-16.106 2.6,-30.361 12.452,-39.879c16.655,-16.091 47.582,-17.808 93.887,-1.659l0,-0c7.817,2.726 8.52,11.078 8.09,20.582c-1.116,24.636 -15.245,57.303 -31.155,83.369c-8.404,13.769 -17.345,25.7 -25.439,33.412c-1.485,1.414 -3.349,2.856 -4.861,3.956Z" style="fill:#7e4021;"/><path d="M2492.28,2186.6c61.525,21.457 -41.324,196.083 -65.713,173.538c-97.353,-89.992 -86.454,-226.605 65.713,-173.538Z" style="fill:#7e4021;"/><path d="M2497.76,2170.86c-70.974,-24.752 -115.13,-10.238 -135.855,18.153c-13.029,17.846 -17.746,42.259 -13.309,69.508c5.935,36.453 28.462,78.554 66.648,113.853c6.401,5.916 14.48,8.028 24.071,5.376c9.801,-2.711 23.705,-13.688 37.011,-30.913c26.467,-34.265 53.563,-92.934 51.858,-130.459c-1.018,-22.398 -10.833,-38.685 -30.424,-45.518l-0,0Zm-64.342,172.794c-32.511,-31.697 -51.078,-68.764 -52.974,-99.781c-0.984,-16.106 2.6,-30.361 12.452,-39.879c16.655,-16.091 47.581,-17.808 93.887,-1.66l0,0c7.817,2.727 8.52,11.079 8.09,20.583c-1.116,24.636 -15.245,57.303 -31.155,83.369c-8.404,13.769 -17.345,25.7 -25.439,33.411c-1.485,1.415 -3.349,2.857 -4.861,3.957Z" style="fill:#7e4021;"/><path d="M2289.81,2253.1l-8.483,5.602c-6.25,2.438 -13.682,3.287 -19.915,0.75c-16.17,-6.582 -23.242,-28.225 -18.347,-44.311c2.678,-8.8 -2.292,-18.119 -11.092,-20.797c-8.8,-2.678 -18.119,2.292 -20.797,11.092c-9.48,31.15 6.356,72.143 37.669,84.889c14.544,5.921 32.079,4.751 46.377,-1.287c1.263,-0.534 17.611,-11.217 19.793,-13.867c4.607,-5.598 4.201,-10.931 3.71,-13.76c-0.887,-5.106 -3.565,-9.303 -8.816,-12.019c-6.901,-3.571 -15.154,-1.841 -20.099,3.708Zm-4.181,12.296c0.178,5.77 2.888,10.161 8.145,13.147c-4.847,-2.857 -7.757,-7.851 -8.145,-13.147Z" style="fill:#7e4021;"/><path d="M2592.82,941.761c14.776,-60.065 4.456,-128.959 -69.313,-140.398c-42.879,-6.649 -73.841,2.379 -94.902,20.064c-19.824,16.647 -31.091,41.241 -34.801,69.121c-3.463,26.032 -0.306,54.957 8.22,82.416c-54.331,-39.182 -134.325,-59.339 -170.263,14.664c-18.955,39.033 -19.424,71.28 -8.708,96.608c10.087,23.841 30.285,41.837 55.844,53.575c23.865,10.96 52.441,16.442 81.194,16.36c-53.417,40.42 -96.19,110.959 -36.014,167.056c31.739,29.588 62.426,39.511 89.785,36.711c25.752,-2.637 48.888,-16.655 67.618,-37.637c17.489,-19.59 31.126,-45.294 39.496,-72.802c22.939,62.936 77.797,124.549 149.099,83.512c37.608,-21.644 56.11,-48.06 61.472,-75.034c5.048,-25.39 -1.553,-51.624 -16.105,-75.693c-13.587,-22.473 -34.149,-43.06 -57.983,-59.144c66.898,-3.434 141.91,-37.765 123.637,-117.978c-9.639,-42.307 -29.452,-67.755 -53.659,-80.806c-22.786,-12.285 -49.801,-13.684 -77.084,-6.847c-19.576,4.906 -39.298,14.076 -57.533,26.252Z" style="fill:#fff;"/><path d="M2614.72,910.496c4.447,-58.533 -17.666,-114.594 -88.661,-125.603c-48.96,-7.592 -84.127,3.577 -108.174,23.77c-22.91,19.239 -36.316,47.466 -40.604,79.687c-2.149,16.151 -1.987,33.331 0.272,50.654c-57.991,-28.003 -126.611,-29.03 -160.786,41.343c-21.644,44.568 -21.301,81.464 -9.065,110.384c11.657,27.552 34.699,48.66 64.237,62.226c14.807,6.8 31.276,11.693 48.498,14.624c-43.806,47.203 -64.951,112.492 -7.727,165.837c36.241,33.784 71.609,44.297 102.847,41.1c29.761,-3.047 56.708,-18.869 78.355,-43.117c10.85,-12.156 20.367,-26.46 28.229,-42.06c32.247,55.742 88.441,95.139 156.246,56.115c42.94,-24.713 63.383,-55.431 69.505,-86.229c5.833,-29.343 -1.372,-59.75 -18.19,-87.566c-8.43,-13.943 -19.306,-27.243 -31.908,-39.342c62.758,-14.444 116.927,-56.58 99.55,-132.859c-11.005,-48.307 -34.36,-76.873 -62,-91.775c-26.333,-14.197 -57.515,-16.245 -89.044,-8.343c-10.555,2.645 -21.156,6.414 -31.58,11.154l-0,-0Zm-38.087,27.283c-1.642,6.678 0.985,13.678 6.614,17.627c5.63,3.948 13.107,4.034 18.825,0.216c16.594,-11.08 34.516,-19.482 52.331,-23.947c23.036,-5.773 45.883,-5.022 65.122,5.351c20.777,11.202 37.046,33.526 45.318,69.838c15.587,68.419 -51.179,94.703 -108.24,97.631c-7.16,0.368 -13.283,5.273 -15.204,12.18c-1.92,6.908 0.792,14.27 6.735,18.28c21.772,14.692 40.632,33.424 53.043,53.953c12.287,20.322 18.283,42.382 14.022,63.82c-4.603,23.151 -21.161,45.261 -53.439,63.838c-60.819,35.003 -105.561,-21.092 -125.127,-74.774c-2.455,-6.736 -8.943,-11.147 -16.11,-10.953c-7.167,0.194 -13.406,4.949 -15.494,11.808c-7.646,25.128 -20.008,48.659 -35.984,66.555c-15.815,17.716 -35.139,29.93 -56.883,32.156c-23.481,2.403 -49.481,-6.927 -76.723,-32.322c-51.328,-47.848 -10.856,-107.098 34.707,-141.574c5.717,-4.326 8.027,-11.824 5.735,-18.618c-2.291,-6.793 -8.67,-11.36 -15.84,-11.34c-26.265,0.075 -52.39,-4.827 -74.19,-14.839c-21.581,-9.911 -38.933,-24.793 -47.45,-44.923c-9.198,-21.738 -7.919,-49.332 8.35,-82.833c30.654,-63.122 99.18,-41.847 145.523,-8.426c5.815,4.193 13.66,4.198 19.48,0.012c5.821,-4.187 8.312,-11.626 6.185,-18.473c-7.789,-25.084 -10.78,-51.496 -7.615,-75.276c3.132,-23.541 12.258,-44.5 28.997,-58.556c18.076,-15.179 44.828,-22.064 81.63,-16.357c62.304,9.661 68.162,69.217 55.682,119.946Z" style="fill:#7e4021;"/><path d="M2560.06,1034.34c-46.315,-44.89 -87.616,-20.113 -106.805,-4.905c-54.521,43.208 -28.674,120.475 28.868,140.502c80.285,27.941 144.254,-71.32 77.937,-135.597Z" style="fill:#fee4a8;"/><path d="M2571.66,1022.38c-22.291,-21.605 -43.86,-29.297 -62.904,-30.18c-28.482,-1.32 -52.039,13.234 -65.852,24.181c-65.619,52.003 -35.514,145.201 33.742,169.304c58.292,20.287 109.444,-14.903 123.73,-63.051c9.433,-31.79 3.075,-69.441 -28.716,-100.254Zm-23.199,23.936c21.264,20.609 26.268,45.573 19.959,66.836c-9.325,31.429 -42.768,54.294 -80.818,41.052c-45.832,-15.951 -67.42,-77.284 -23.994,-111.699c9.215,-7.303 24.602,-17.888 43.604,-17.007c12.612,0.585 26.487,6.51 41.249,20.818Z" style="fill:#7e4021;"/><path d="M858.72,461.959c-32.45,-20.215 -69.115,-31.407 -118.303,-34.192c-245.91,-13.92 -407.993,311.595 -177.379,460.141c333.698,214.946 552.212,-266.139 295.682,-425.949Z" style="fill:#fff;"/><path d="M867.532,447.813c-34.624,-21.57 -73.688,-33.715 -126.173,-36.686c-261.96,-14.828 -433.013,332.551 -187.346,490.793c106.317,68.482 201.752,69.414 275.731,34.013c86.246,-41.272 143.87,-133.09 155.725,-229.692c11.924,-97.16 -22.104,-198.727 -117.937,-258.428l0,-0Zm-17.625,28.292c83.738,52.167 112.896,141.178 102.477,226.076c-10.487,85.456 -60.733,167.174 -137.028,203.684c-65.342,31.268 -149.389,28.518 -243.292,-31.968c-215.565,-138.853 -62.451,-442.501 167.411,-429.49c45.892,2.598 80.157,12.838 110.432,31.698l0,0Z" style="fill:#7e4021;"/><path d="M1628.88,1200.54c-32.449,-20.215 -69.114,-31.408 -118.302,-34.192c-245.91,-13.92 -407.993,311.594 -177.379,460.141c333.698,214.946 552.211,-266.139 295.681,-425.949Z" style="fill:#fff;"/><path d="M1637.69,1186.39c-34.624,-21.57 -73.688,-33.715 -126.173,-36.686c-261.961,-14.828 -433.013,332.55 -187.346,490.792c106.316,68.483 201.752,69.415 275.731,34.013c86.246,-41.271 143.87,-133.089 155.725,-229.691c11.924,-97.16 -22.104,-198.728 -117.937,-258.428Zm-17.625,28.292c83.738,52.166 112.896,141.178 102.477,226.076c-10.488,85.456 -60.733,167.174 -137.028,203.683c-65.342,31.268 -149.389,28.519 -243.293,-31.968c-215.564,-138.852 -62.45,-442.5 167.412,-429.489c45.892,2.598 80.157,12.838 110.432,31.698Z" style="fill:#7e4021;"/><path d="M956.855,561.632c-7.853,-17.054 -131.681,-19.98 -250.554,62.165c-18.047,12.472 25.157,61.174 8.733,79.963c-12.992,14.861 -79.651,-17.75 -86.968,-7.375c-54.468,77.238 -56.684,187.032 -39.993,197.447c193.281,120.595 471.931,-108.192 368.782,-332.2Z" style="fill:#7e4021;"/><path d="M702.078,690.878c-1.791,-0.012 -4.053,-0.085 -5.862,-0.33c-13.936,-1.888 -31.627,-7.64 -44.979,-10.607c-9.756,-2.167 -17.973,-2.734 -23.062,-1.73c-6.547,1.292 -10.925,4.593 -13.729,8.569c-40.504,57.436 -53.787,131.825 -52.043,175.08c0.611,15.143 3.221,26.939 6.61,34.029c2.846,5.953 6.589,9.806 10.237,12.083c103.058,64.301 228.986,36.362 315.289,-38.418c86.251,-74.734 132.421,-195.523 77.455,-314.893c-1.507,-3.271 -4.057,-6.636 -8.149,-9.533c-4.369,-3.093 -11.688,-6.133 -21.805,-7.887c-41.569,-7.207 -145.196,3.73 -245.214,72.845c-7.238,5.002 -10.987,12.091 -11.606,21.064c-0.5,7.256 1.723,16.625 5.489,26.638c3.311,8.802 7.786,18.418 10.202,27.194c0.524,1.906 0.941,3.751 1.144,5.511l0.023,0.385Zm241.164,-118.884c45.755,103.525 4.26,207.564 -70.531,272.368c-74.959,64.951 -183.855,91.208 -273.684,36.642c-0.708,-2.731 -2.98,-12.125 -3.318,-20.487c-1.485,-36.844 9.419,-99.268 42.311,-149.143c0.895,0.114 1.832,0.255 2.659,0.414c7.028,1.349 15.705,3.796 24.545,6.096c15.571,4.053 31.617,7.325 42.381,6.248c8.931,-0.893 15.607,-4.404 19.977,-9.403c6.199,-7.091 8.692,-16.224 7.714,-26.833c-0.906,-9.824 -5.244,-21.483 -9.782,-32.725c-2.091,-5.18 -4.181,-10.262 -5.63,-14.938c-0.441,-1.425 -0.827,-3.355 -1.078,-4.793c78.422,-53.178 158.503,-68.214 202.384,-66.769c9.121,0.301 18.615,2.463 22.052,3.323Z" style="fill:#7e4021;"/><path d="M1709.59,1269.89c-10.305,-15.695 -133.188,-0.154 -238.507,98.772c-15.99,15.019 33.983,56.747 20.539,77.772c-10.634,16.63 -81.406,-5.695 -87.096,5.654c-42.363,84.486 -28.209,193.387 -10.154,201.2c209.08,90.478 450.566,-177.243 315.218,-383.398Z" style="fill:#7e4021;"/><path d="M1476.89,1435.62c-1.773,0.255 -4.02,0.519 -5.846,0.546c-14.062,0.208 -32.412,-2.847 -46.057,-3.792c-9.969,-0.69 -18.18,-0.028 -23.062,1.722c-6.282,2.252 -10.12,6.168 -12.301,10.518c-31.502,62.825 -33.563,138.363 -25.398,180.876c2.858,14.884 7.195,26.159 11.602,32.666c3.701,5.463 7.975,8.716 11.922,10.424c111.482,48.243 231.848,1.868 306.056,-84.927c74.165,-86.742 101.838,-213.058 29.713,-322.914c-1.977,-3.011 -4.999,-5.959 -9.477,-8.215c-4.781,-2.408 -12.471,-4.324 -22.736,-4.552c-42.179,-0.938 -143.023,25.303 -231.637,108.538c-6.413,6.024 -9.065,13.592 -8.341,22.557c0.586,7.25 4.179,16.184 9.394,25.525c4.584,8.211 10.441,17.053 14.136,25.372c0.802,1.806 1.489,3.568 1.952,5.278l0.08,0.378Zm220.778,-153.462c60.657,95.56 35.113,204.617 -29.197,279.834c-64.455,75.386 -168.228,117.562 -265.179,76.976c-1.107,-2.595 -4.753,-11.545 -6.331,-19.764c-6.954,-36.212 -5.465,-99.564 19.636,-153.78c0.902,-0.021 1.85,-0.02 2.691,0.014c7.15,0.288 16.095,1.415 25.179,2.374c16.001,1.69 32.355,2.536 42.839,-0.131c8.698,-2.213 14.777,-6.678 18.354,-12.273c5.074,-7.935 6.181,-17.337 3.634,-27.682c-2.358,-9.579 -8.384,-20.463 -14.545,-30.904c-2.839,-4.811 -5.662,-9.525 -7.791,-13.933c-0.649,-1.344 -1.317,-3.195 -1.78,-4.58c69.631,-64.26 146.582,-91.05 190.189,-96.153c9.064,-1.061 18.775,-0.337 22.301,0.002Z" style="fill:#7e4021;"/><path d="M981.993,702.791c33.516,-12.859 85.735,-1.334 111.199,20.852c6.935,6.043 17.472,5.318 23.514,-1.617c6.043,-6.936 5.318,-17.472 -1.617,-23.515c-33.197,-28.924 -101.34,-43.606 -145.036,-26.842c-8.588,3.295 -12.885,12.943 -9.591,21.531c3.295,8.588 12.943,12.886 21.531,9.591Z" style="fill:#7e4021;"/><path d="M1752.15,1441.37c33.516,-12.859 85.735,-1.334 111.199,20.852c6.935,6.042 17.471,5.318 23.514,-1.618c6.043,-6.935 5.318,-17.472 -1.617,-23.514c-33.198,-28.925 -101.34,-43.606 -145.036,-26.842c-8.588,3.295 -12.886,12.943 -9.591,21.531c3.295,8.588 12.943,12.885 21.531,9.591Z" style="fill:#7e4021;"/><path d="M443.279,667.467c-33.516,12.859 -85.735,1.334 -111.199,-20.852c-6.935,-6.043 -17.472,-5.318 -23.514,1.617c-6.043,6.936 -5.318,17.472 1.617,23.515c33.197,28.924 101.34,43.606 145.036,26.842c8.588,-3.295 12.885,-12.943 9.591,-21.531c-3.295,-8.588 -12.943,-12.886 -21.531,-9.591Z" style="fill:#7e4021;"/><path d="M1213.44,1406.05c-33.516,12.858 -85.735,1.334 -111.199,-20.852c-6.935,-6.043 -17.472,-5.318 -23.515,1.617c-6.042,6.935 -5.318,17.472 1.618,23.515c33.197,28.924 101.34,43.605 145.036,26.841c8.588,-3.295 12.885,-12.942 9.59,-21.53c-3.295,-8.589 -12.942,-12.886 -21.53,-9.591Z" style="fill:#7e4021;"/><path d="M964.953,585.18c26.814,-23.867 79.738,-31.529 111.397,-19.767c8.622,3.204 18.224,-1.196 21.428,-9.818c3.203,-8.623 -1.196,-18.224 -9.819,-21.428c-41.274,-15.335 -110.21,-5.002 -145.168,26.115c-6.871,6.116 -7.484,16.659 -1.368,23.53c6.116,6.871 16.659,7.484 23.53,1.368Z" style="fill:#7e4021;"/><path d="M1735.11,1323.76c26.814,-23.868 79.738,-31.53 111.397,-19.767c8.622,3.204 18.224,-1.196 21.427,-9.819c3.204,-8.622 -1.195,-18.224 -9.818,-21.427c-41.274,-15.335 -110.21,-5.002 -145.168,26.114c-6.871,6.116 -7.484,16.66 -1.368,23.531c6.115,6.871 16.659,7.484 23.53,1.368Z" style="fill:#7e4021;"/><path d="M460.319,785.078c-26.814,23.867 -79.738,31.529 -111.397,19.767c-8.622,-3.204 -18.224,1.196 -21.428,9.818c-3.203,8.623 1.196,18.224 9.819,21.428c41.274,15.335 110.21,5.002 145.168,-26.115c6.871,-6.116 7.484,-16.659 1.368,-23.53c-6.116,-6.871 -16.659,-7.484 -23.53,-1.368Z" style="fill:#7e4021;"/><path d="M1230.48,1523.66c-26.815,23.868 -79.738,31.53 -111.397,19.767c-8.623,-3.203 -18.224,1.196 -21.428,9.819c-3.203,8.622 1.196,18.224 9.819,21.428c41.273,15.335 110.21,5.002 145.168,-26.115c6.871,-6.116 7.484,-16.66 1.368,-23.531c-6.116,-6.871 -16.659,-7.484 -23.53,-1.368Z" style="fill:#7e4021;"/><path d="M911.937,494.498c9.347,-34.66 49.415,-70.075 82.342,-77.588c8.968,-2.046 14.587,-10.988 12.541,-19.956c-2.046,-8.968 -10.988,-14.588 -19.956,-12.542c-42.928,9.795 -94.925,56.22 -107.111,101.407c-2.395,8.881 2.871,18.036 11.753,20.431c8.881,2.395 18.036,-2.871 20.431,-11.752Z" style="fill:#7e4021;"/><path d="M1682.1,1233.08c9.347,-34.66 49.415,-70.075 82.341,-77.588c8.968,-2.046 14.588,-10.988 12.542,-19.956c-2.046,-8.969 -10.989,-14.588 -19.957,-12.542c-42.927,9.795 -94.924,56.22 -107.11,101.406c-2.395,8.882 2.871,18.037 11.753,20.432c8.881,2.395 18.036,-2.871 20.431,-11.752Z" style="fill:#7e4021;"/><path d="M519.911,868.903c-9.347,34.66 -49.415,70.074 -82.341,77.587c-8.968,2.046 -14.588,10.989 -12.542,19.957c2.046,8.968 10.988,14.588 19.957,12.541c42.927,-9.794 94.924,-56.219 107.11,-101.406c2.395,-8.881 -2.871,-18.036 -11.753,-20.431c-8.881,-2.396 -18.036,2.87 -20.431,11.752Z" style="fill:#7e4021;"/><path d="M1290.07,1607.48c-9.347,34.66 -49.415,70.075 -82.342,77.588c-8.968,2.046 -14.587,10.988 -12.541,19.956c2.046,8.968 10.988,14.588 19.956,12.542c42.928,-9.795 94.925,-56.22 107.11,-101.407c2.396,-8.881 -2.87,-18.036 -11.752,-20.431c-8.881,-2.395 -18.036,2.871 -20.431,11.752Z" style="fill:#7e4021;"/><path d="M806.314,429.465c-6.038,-35.387 15.502,-84.333 42.25,-104.952c7.285,-5.616 8.64,-16.09 3.024,-23.375c-5.616,-7.286 -16.09,-8.641 -23.375,-3.025c-34.872,26.882 -62.629,90.824 -54.758,136.958c1.547,9.068 10.165,15.173 19.233,13.626c9.067,-1.547 15.173,-10.165 13.626,-19.232Z" style="fill:#7e4021;"/><path d="M1576.48,1168.04c-6.038,-35.386 15.501,-84.332 42.249,-104.951c7.286,-5.616 8.641,-16.091 3.025,-23.376c-5.616,-7.285 -16.09,-8.64 -23.376,-3.024c-34.871,26.882 -62.628,90.823 -54.757,136.958c1.547,9.067 10.165,15.173 19.233,13.626c9.067,-1.547 15.173,-10.165 13.626,-19.233Z" style="fill:#7e4021;"/><path d="M621.713,931.497c6.038,35.387 -15.501,84.332 -42.249,104.952c-7.286,5.616 -8.641,16.09 -3.025,23.375c5.616,7.285 16.09,8.64 23.376,3.024c34.871,-26.881 62.628,-90.823 54.757,-136.957c-1.547,-9.068 -10.165,-15.174 -19.233,-13.626c-9.067,1.547 -15.173,10.164 -13.626,19.232Z" style="fill:#7e4021;"/><path d="M1391.87,1670.08c6.038,35.386 -15.502,84.332 -42.25,104.951c-7.285,5.616 -8.64,16.09 -3.024,23.376c5.616,7.285 16.09,8.64 23.375,3.024c34.872,-26.882 62.629,-90.823 54.758,-136.958c-1.547,-9.067 -10.165,-15.173 -19.233,-13.626c-9.067,1.547 -15.173,10.165 -13.626,19.233Z" style="fill:#7e4021;"/><path d="M681.17,419.811c-18.64,-30.68 -16.631,-84.118 0.649,-113.135c4.706,-7.904 2.111,-18.141 -5.793,-22.848c-7.903,-4.706 -18.141,-2.11 -22.847,5.793c-22.528,37.831 -24.798,107.5 -0.497,147.498c4.777,7.861 15.037,10.366 22.898,5.589c7.861,-4.776 10.366,-15.036 5.59,-22.897Z" style="fill:#7e4021;"/><path d="M1451.33,1158.39c-18.64,-30.679 -16.631,-84.117 0.649,-113.135c4.706,-7.903 2.11,-18.141 -5.793,-22.847c-7.903,-4.706 -18.141,-2.111 -22.847,5.793c-22.528,37.831 -24.798,107.5 -0.497,147.497c4.776,7.862 15.037,10.366 22.898,5.59c7.861,-4.776 10.366,-15.037 5.59,-22.898Z" style="fill:#7e4021;"/><path d="M744.102,950.447c18.64,30.68 16.631,84.118 -0.649,113.135c-4.706,7.904 -2.111,18.141 5.793,22.848c7.903,4.706 18.141,2.11 22.847,-5.793c22.528,-37.831 24.798,-107.5 0.497,-147.498c-4.777,-7.861 -15.037,-10.366 -22.898,-5.589c-7.862,4.776 -10.366,15.036 -5.59,22.897Z" style="fill:#7e4021;"/><path d="M1514.26,1689.03c18.64,30.679 16.631,84.117 -0.649,113.135c-4.706,7.903 -2.111,18.141 5.793,22.847c7.903,4.707 18.141,2.111 22.847,-5.792c22.528,-37.831 24.798,-107.501 0.496,-147.498c-4.776,-7.861 -15.036,-10.366 -22.897,-5.59c-7.862,4.777 -10.366,15.037 -5.59,22.898Z" style="fill:#7e4021;"/><path d="M989.148,1203.29c4.126,10.894 15.945,19.211 22.023,24.162c122.433,99.735 189.157,36.808 253.666,115.656c67.312,82.273 -45.109,308.672 -170.87,285.845c-95.831,-17.394 -64.7,-223.099 -238.735,-269.843" style="fill:#f7bf9a;"/><path d="M973.562,1209.2c5.212,13.763 19.404,24.927 27.083,31.182c64.449,52.501 114.21,62.245 156.374,69.184c36.012,5.927 65.915,8.653 94.919,44.104c11.254,13.755 16.039,32.474 16.385,53.237c0.579,34.661 -11.337,74.737 -31.103,110.478c-31.804,57.506 -83.804,105.428 -140.277,95.177c-14.826,-2.691 -25.474,-11.575 -34.499,-23.771c-10.969,-14.822 -19.517,-34.189 -28.43,-55.339c-30.139,-71.516 -63.806,-160.71 -174.459,-190.43c-8.884,-2.386 -18.034,2.889 -20.42,11.773c-2.386,8.883 2.89,18.033 11.773,20.419c98.195,26.374 125.644,107.719 152.389,171.183c10.047,23.841 19.988,45.514 32.352,62.222c14.309,19.337 31.834,32.474 55.341,36.741c69.301,12.579 136.372,-41.275 175.399,-111.843c22.728,-41.095 35.929,-87.314 35.263,-127.167c-0.483,-28.914 -8.244,-54.632 -23.915,-73.787c-28.935,-35.367 -58.135,-45.532 -91.704,-51.873c-42.921,-8.109 -94.12,-8.954 -164.336,-66.152c-4.483,-3.652 -13.919,-9.106 -16.962,-17.142c-3.258,-8.603 -12.887,-12.942 -21.489,-9.685c-8.602,3.258 -12.942,12.887 -9.684,21.489Z" style="fill:#7e4021;"/><path d="M844.609,1425.88c2.26,1.088 4.8,1.675 7.475,1.629c9.198,-0.161 16.534,-7.758 16.374,-16.955c-0.078,-4.456 -1.677,-8.287 -4.678,-11.469c-2.38,-2.523 -11.887,-5.638 -11.887,-5.638c0,0 1.39,0.256 1.772,0.356c-6.396,-1.679 -12.196,-5.963 -17.518,-11.046c-9.884,-9.442 -17.898,-21.914 -23.3,-31.998c-4.344,-8.108 -14.454,-11.164 -22.562,-6.82c-8.108,4.345 -11.164,14.454 -6.82,22.562c11.971,22.344 34.874,52.133 61.144,59.379Z" style="fill:#7e4021;"/><path d="M958.225,1189.51l18.418,-10.329c16.531,-6.254 33.946,-6.223 50.009,1.171c8.355,3.847 18.262,0.186 22.109,-8.17c3.846,-8.356 0.185,-18.262 -8.171,-22.109c-24.506,-11.28 -51.083,-11.55 -76.285,-1.865c-1.411,0.542 -17.269,8.506 -25.005,13.671c-3.846,2.569 -6.392,5.13 -7.532,6.658c-3.311,4.44 -3.716,8.674 -3.505,11.69c0.356,5.087 2.529,9.483 7.265,12.775c7.32,5.087 17.308,3.488 22.697,-3.492Zm2.374,-16.159l0.076,0.212l-0.01,-0.034l-0.066,-0.178Zm-5.347,-7.206c2.465,1.907 4.257,4.39 5.317,7.125c-0.963,-2.709 -2.679,-5.116 -5.317,-7.125Z" style="fill:#7e4021;"/><path d="M1253.84,1309.51c-17.599,-12.725 -40.491,-13 -64.06,-4.281c-29.297,10.839 -59.824,35.625 -78.004,57c-5.959,7.007 -5.109,17.535 1.898,23.494c7.007,5.96 17.535,5.109 23.494,-1.898c15.006,-17.644 39.996,-38.387 64.178,-47.333c12.101,-4.477 23.926,-6.504 32.962,0.03c7.454,5.39 17.882,3.714 23.271,-3.74c5.39,-7.454 3.715,-17.882 -3.739,-23.272Z" style="fill:#7e4021;"/><path d="M1007.84,1536.32c-3.24,5.355 -3.314,12.323 0.382,17.873c3.333,5.005 7.487,6.618 10.938,7.271c3.571,0.675 7.213,0.282 10.815,-1.565c1.591,-0.816 3.299,-2.003 4.887,-3.764c1.448,-1.608 3.789,-6.327 4.472,-8.741c4.36,-15.43 10.484,-29.769 16.876,-44.469c3.668,-8.435 -0.202,-18.262 -8.638,-21.93c-8.436,-3.668 -18.262,0.203 -21.93,8.639c-6.717,15.446 -13.087,30.558 -17.802,46.686Zm21.083,-6.563c2.519,1.124 4.784,2.887 6.531,5.233c-2.016,-2.751 -4.308,-4.313 -6.531,-5.233Z" style="fill:#7e4021;"/><path d="M1225.68,1386.58c-8.09,-9.055 -30.747,9.695 -46.885,25.127c-18.278,17.479 -49.303,50.685 -73.462,91.71c-21.067,35.775 -16.035,73.978 30.883,64.157c54.779,-11.466 107.813,-160.456 89.464,-180.994Z" style="fill:#7e4021;"/><path d="M1238.11,1375.48c-6.522,-7.3 -16.162,-10.128 -28.2,-6.237c-12.176,3.936 -29.473,17.839 -42.633,30.423c-18.99,18.16 -51.204,52.675 -76.304,95.297c-9.262,15.728 -14.073,31.94 -14.174,45.561c-0.086,11.559 3.102,21.58 9.046,29.237c9.313,11.995 26.369,19.869 53.787,14.13c18.582,-3.89 37.821,-19.819 54.219,-42.76c21.477,-30.044 39.039,-71.832 47.131,-104.562c4.474,-18.098 5.951,-33.726 4.461,-43.922c-1.122,-7.678 -3.939,-13.368 -7.333,-17.167Zm-25.509,29.594c-0.695,11.921 -4.558,28.086 -10.478,45.396c-9.333,27.289 -23.848,57.32 -40.723,78.327c-9.165,11.41 -18.542,20.363 -28.597,22.468c-10.215,2.138 -17.158,2.524 -20.628,-1.945c-2.378,-3.064 -2.379,-7.512 -1.784,-12.391c0.953,-7.818 4.266,-16.495 9.304,-25.051c23.218,-39.426 53.053,-71.323 70.62,-88.121c6.805,-6.508 14.848,-13.714 22.286,-18.683Z" style="fill:#7e4021;"/></g></svg>