<?xml version="1.0" encoding="UTF-8" standalone="no"?><!DOCTYPE svg PUBLIC "-//W3C//DTD SVG 1.1//EN" "http://www.w3.org/Graphics/SVG/1.1/DTD/svg11.dtd"><svg width="100%" height="100%" viewBox="0 0 4013 3566" version="1.1" xmlns="http://www.w3.org/2000/svg" xmlns:xlink="http://www.w3.org/1999/xlink" xml:space="preserve" xmlns:serif="http://www.serif.com/" style="fill-rule:evenodd;clip-rule:evenodd;stroke-linejoin:round;stroke-miterlimit:2;"><g id="Croissant-Smile"><path d="M2655.74,963.67c-36.142,-47.985 -76.607,-83.175 -119.059,-108.601c704.536,65.362 1076.06,206.224 989.117,577.453c-92.437,394.703 -1.873,669.073 -89.11,935.781c-109.591,335.045 -790.882,217.268 -764.839,169.502c240.167,-440.507 147.9,-1356.39 -16.109,-1574.13Z" style="fill:#f7bf9a;"/><path d="M2642.42,973.697c64.54,85.686 116.895,281.513 142.436,513.095c38.577,349.778 15.098,781.215 -127.648,1043.04c-4.795,8.794 -4.467,19.005 5.517,28.999c8.661,8.669 30.991,19.201 63.844,27.961c100.63,26.833 307.272,45.522 475.782,-2.794c115.759,-33.191 213.345,-97.928 250.169,-210.508c44.163,-135.016 43.616,-271.941 43.432,-425.094c-0.181,-150.147 0.19,-316.182 46.066,-512.068c22.774,-97.245 15.067,-179.366 -20.153,-248.973c-35.005,-69.183 -97.486,-126.239 -186.049,-172.994c-171.443,-90.509 -442.512,-142.94 -797.603,-175.883c-7.748,-0.718 -14.962,4.02 -17.381,11.415c-2.419,7.396 0.602,15.481 7.277,19.479c40.769,24.418 79.6,58.247 114.311,104.33Zm48.462,1563.86c141.557,-267.522 166.014,-701.644 127.107,-1054.42c-26.383,-239.213 -82.277,-440.986 -148.944,-529.496c-22.488,-29.856 -46.596,-54.936 -71.792,-75.929c319.065,32.602 564.426,82.405 723.001,166.121c81.518,43.035 139.648,94.885 171.868,158.565c32.006,63.255 38.137,137.952 17.441,226.323c-46.562,198.816 -47.128,367.317 -46.945,519.709c0.18,149.384 1.296,282.998 -41.779,414.691c-33.315,101.85 -122.949,158.802 -227.675,188.829c-162.215,46.51 -361.137,28.459 -458.007,2.628c-18.248,-4.865 -36.133,-13.049 -44.275,-17.018Z" style="fill:#7e4021;"/><path d="M3436.68,2368.3c216.419,-128.491 477.814,42.932 543.256,-223.15c77.004,-313.091 -132.026,-533.278 -442.194,-832.61c-14.242,34.277 -1.881,76.975 -11.952,119.979c-92.437,394.703 -1.873,669.073 -89.11,935.781Z" style="fill:#f7bf9a;"/><path d="M3420.84,2363.12c-2.159,6.599 -0,13.845 5.418,18.187c5.418,4.342 12.961,4.87 18.931,1.325c105.703,-62.757 222.554,-51.361 320.806,-57.677c64.402,-4.14 121.27,-15.756 164.23,-54.359c28.886,-25.957 51.809,-64.185 65.897,-121.465c39.662,-161.262 5.938,-298.647 -77.918,-434.212c-82.015,-132.589 -212.638,-263.58 -368.887,-414.37c-3.965,-3.827 -9.566,-5.446 -14.961,-4.326c-5.396,1.12 -9.889,4.834 -12.004,9.923c-7.936,19.101 -8.873,40.491 -8.816,63.154c0.048,19.096 0.756,39.228 -3.972,59.42c-46.562,198.816 -47.128,367.317 -46.945,519.709c0.18,149.384 1.296,282.998 -41.779,414.691Zm42.951,-27.638c32.793,-122.807 32.328,-248.285 32.162,-387.093c-0.181,-150.147 0.19,-316.182 46.066,-512.068c5.342,-22.812 4.905,-45.531 4.851,-67.105c-0.021,-8.265 -0.032,-16.337 0.573,-24.12c144.516,139.939 265.372,262.811 342.413,387.358c78.95,127.635 111.239,256.888 73.897,408.716c-12.089,49.154 -31.019,82.357 -55.808,104.632c-37.553,33.744 -87.792,42.269 -144.089,45.888c-91.984,5.914 -199.26,-1.504 -300.065,43.792l-0,0Z" style="fill:#7e4021;"/><path d="M2150.96,2708.58c67.635,31.819 -204.5,545.835 -514.854,491.265c-294.08,-51.709 -550.278,-479.516 -1072.24,-649.124c-210.351,-68.352 115.163,-788.935 336.543,-945.294c117.268,168.809 271.816,161.124 540.357,411.94c199.367,186.207 496.616,590.736 710.191,691.213Z" style="fill:#f7bf9a;"/><path d="M2158.06,2693.49c-84.038,-39.536 -180.998,-127.228 -279.945,-229.588c-151.085,-156.296 -306.182,-346.848 -425.964,-458.725c-135.513,-126.567 -242.236,-187.949 -329.902,-238.948c-84.596,-49.213 -151.041,-88.119 -208.144,-170.32c-2.534,-3.649 -6.421,-6.134 -10.796,-6.905c-4.376,-0.771 -8.878,0.237 -12.507,2.8c-157.365,111.146 -367.237,502.67 -405.316,751.613c-8.447,55.224 -8.439,103.65 1.652,140.967c11.232,41.54 34.661,70.181 71.585,82.179c310.953,101.042 526.716,294.689 712.8,444.28c127.475,102.475 241.686,184.305 361.702,205.407c91.206,16.038 179.414,-14.157 257.383,-67.483c113.917,-77.913 205.81,-205.225 252.649,-302.507c24.627,-51.147 36.559,-94.636 34.545,-119.492c-1.408,-17.384 -9.063,-28.254 -19.742,-33.278Zm-14.862,29.841c0.218,0.522 0.709,1.773 0.899,2.67c0.698,3.3 0.766,7.277 0.436,11.839c-1.62,22.424 -12.835,55.591 -31.309,93.96c-44.795,93.034 -132.49,214.942 -241.433,289.453c-70.605,48.29 -150.202,76.69 -232.794,62.168c-115.248,-20.265 -224.178,-100.153 -346.589,-198.558c-188.745,-151.729 -407.985,-347.515 -723.384,-450.002c-26.184,-8.508 -41.743,-29.72 -49.709,-59.178c-9.106,-33.678 -8.502,-77.387 -0.879,-127.226c35.862,-234.451 227.606,-600.034 378.393,-719.523c57.832,77.253 124.472,117.133 208.658,166.107c86.06,50.065 190.882,110.249 323.911,234.497c119.458,111.572 274.076,301.66 424.75,457.531c101.96,105.477 202.377,195.269 289.05,236.262Z" style="fill:#7e4021;"/><path d="M2024.06,2706.1c61.521,-69.99 147.744,27.727 169.906,42.32c89.177,58.722 178.459,116.218 274.346,163.652c110.827,54.825 236.917,111.959 361.077,124.883c64.62,6.726 130.802,1.761 194.455,-10.688c51.637,-10.1 320.114,-112.174 261.899,44.948c-22.164,59.822 -75.573,108.569 -126.885,144.006c-55.445,38.291 -124.312,86.797 -193.834,90.8c-178.164,10.258 -695.18,-205.329 -843.503,-315.411c-58.36,-43.314 -203.954,-163.357 -97.461,-284.51Z" style="fill:#7e4021;"/><path d="M2011.55,2695.09c-59.336,67.505 -48.714,134.679 -14.858,191.032c31.627,52.64 84.529,95.321 114.904,117.865c89.782,66.635 313.367,171.807 516.776,242.872c136.987,47.86 264.989,79.977 337.618,75.795c72.43,-4.17 144.583,-53.833 202.347,-93.725c53.99,-37.286 109.721,-88.986 133.043,-151.93c14.437,-38.965 10.348,-65.045 -2.231,-81.782c-12.682,-16.875 -35.665,-25.772 -64.713,-27.26c-71.018,-3.639 -182.217,35.773 -213.783,41.947c-62.042,12.135 -126.546,17.024 -189.531,10.468c-122.246,-12.725 -246.293,-69.264 -355.412,-123.245c-95.273,-47.13 -183.965,-104.288 -272.57,-162.632c-13.775,-9.071 -51.752,-48.688 -93.447,-63.632c-32.937,-11.805 -67.936,-10.138 -98.143,24.227Zm25.036,22.007c24.39,-27.747 53.814,-20.817 79.199,-6.938c31.521,17.234 58.113,44.991 69.023,52.175c89.749,59.098 179.62,116.933 276.122,164.671c112.535,55.67 240.667,113.398 366.741,126.521c66.256,6.896 134.116,1.856 199.38,-10.908c30.398,-5.946 137.289,-44.875 205.679,-41.371c17.442,0.893 32.157,3.864 39.772,13.996c7.723,10.276 6.485,26.251 -2.379,50.175c-21.008,56.701 -72.094,102.495 -120.728,136.083c-53.127,36.69 -118.705,84.039 -185.321,87.875c-69.902,4.024 -192.864,-27.922 -324.708,-73.985c-199.836,-69.817 -419.699,-172.706 -507.904,-238.171c-27.985,-20.77 -77.059,-59.766 -106.197,-108.265c-26.907,-44.785 -35.836,-98.209 11.321,-151.858Z" style="fill:#7e4021;"/><path d="M2712.67,2463.99c61.52,-69.989 147.743,27.728 169.906,42.321c89.176,58.721 178.458,116.218 274.345,163.652c110.827,54.825 236.917,111.959 361.077,124.883c64.621,6.726 130.802,1.761 194.455,-10.688c51.637,-10.1 320.115,-112.174 261.9,44.948c-22.165,59.822 -75.574,108.569 -126.886,144.006c-55.445,38.291 -124.312,86.797 -193.834,90.8c-178.163,10.257 -695.18,-205.329 -843.502,-315.411c-58.36,-43.314 -203.954,-163.357 -97.461,-284.511Z" style="fill:#7e4021;"/><path d="M2700.15,2452.99c-59.337,67.505 -48.715,134.679 -14.858,191.032c31.626,52.64 84.529,95.321 114.904,117.865c89.782,66.635 313.366,171.807 516.776,242.872c136.987,47.859 264.989,79.976 337.617,75.795c72.43,-4.17 144.584,-53.833 202.347,-93.725c53.99,-37.286 109.722,-88.986 133.043,-151.93c14.437,-38.966 10.348,-65.045 -2.231,-81.782c-12.682,-16.875 -35.665,-25.772 -64.713,-27.26c-71.018,-3.639 -182.217,35.773 -213.783,41.947c-62.042,12.134 -126.546,17.024 -189.53,10.468c-122.247,-12.725 -246.294,-69.265 -355.413,-123.245c-95.272,-47.13 -183.964,-104.288 -272.569,-162.633c-13.776,-9.071 -51.753,-48.687 -93.448,-63.632c-32.936,-11.805 -67.936,-10.137 -98.142,24.228Zm25.036,22.007c24.389,-27.747 53.814,-20.818 79.199,-6.938c31.521,17.234 58.113,44.991 69.023,52.175c89.748,59.098 179.62,116.932 276.121,164.671c112.536,55.67 240.668,113.398 366.742,126.521c66.256,6.896 134.115,1.856 199.379,-10.909c30.399,-5.945 137.289,-44.875 205.68,-41.37c17.441,0.893 32.157,3.863 39.771,13.996c7.723,10.276 6.486,26.251 -2.379,50.175c-21.008,56.701 -72.093,102.495 -120.728,136.083c-53.127,36.69 -118.705,84.039 -185.321,87.875c-69.902,4.024 -192.863,-27.923 -324.707,-73.985c-199.837,-69.817 -419.699,-172.706 -507.904,-238.171c-27.985,-20.77 -77.059,-59.767 -106.197,-108.265c-26.907,-44.786 -35.836,-98.209 11.321,-151.858Z" style="fill:#7e4021;"/><path d="M563.87,2550.72c15.108,314.961 110.878,907.637 476.952,993.198c208.005,48.616 396.531,-271.432 595.285,-344.074c-294.08,-51.709 -550.278,-479.516 -1072.24,-649.124Z" style="fill:#f7bf9a;"/><path d="M569.02,2534.87c-5.208,-1.692 -10.915,-0.718 -15.267,2.606c-4.352,3.324 -6.793,8.574 -6.531,14.044c9.151,190.769 47.839,482.416 156.97,703.906c74.413,151.029 181.645,269.385 332.837,304.722c87.776,20.516 172.738,-19.736 255.944,-82.083c117.017,-87.681 230.902,-219.456 348.855,-262.567c7.083,-2.588 11.545,-9.61 10.881,-17.121c-0.664,-7.512 -6.289,-13.641 -13.716,-14.947c-115.248,-20.265 -224.178,-100.153 -346.589,-198.558c-188.745,-151.729 -407.985,-347.515 -723.384,-450.002Zm12.799,39.437c298.602,102.944 508.259,290.687 689.7,436.545c110.419,88.764 210.886,162.038 313.795,193.772c-85.38,45.754 -169.48,128.269 -254.155,200.013c-47.859,40.552 -95.926,77.511 -144.804,101.254c-46.425,22.552 -93.486,33.077 -141.74,21.799c-141.668,-33.112 -240.796,-145.48 -310.523,-286.996c-102.528,-208.092 -141.282,-479.386 -152.273,-666.387l0,-0Z" style="fill:#7e4021;"/><path d="M1465.06,1960.6c-14.496,-2.407 -223.345,-8.558 -346.339,-46.608c-60.912,-18.845 -125.993,-44.263 -185.524,-67.142c-29.399,-11.298 -64.892,-35.745 -96.497,-39.823c-48.974,-6.318 -107.771,66.075 -81.942,116.279c6.239,12.128 30.666,28.713 35.655,32.334c145.752,105.798 356.447,144.098 476.927,169.399c127.621,26.801 219.199,1.248 247.313,-24.215c30.631,-27.743 -2.784,-132.455 -49.593,-140.224Z" style="fill:#e4ac87;"/><path d="M1467.79,1944.16c-14.403,-2.391 -221.939,-8.282 -344.142,-46.089c-60.568,-18.738 -125.276,-44.027 -184.471,-66.776c-30.505,-11.724 -67.549,-36.565 -100.344,-40.796c-29.731,-3.836 -63.153,14.873 -84.513,43.508c-21.446,28.75 -30.124,66.326 -14.382,96.926c7.234,14.061 34.901,33.999 40.685,38.197c147.752,107.249 361.16,146.574 483.293,172.222c79.538,16.703 145.601,13.643 192.031,2.958c33.468,-7.701 57.265,-19.692 69.895,-31.131c15.596,-14.126 20.767,-43.47 14.401,-74.78c-5.053,-24.856 -16.627,-50.72 -31.77,-68.62c-11.811,-13.962 -25.925,-23.17 -40.683,-25.619Zm-5.458,32.883c6.182,1.026 11.786,4.994 16.992,10.222c10.213,10.255 18.413,25.447 23.789,41.308c5.338,15.752 7.936,32.241 6.126,45.508c-0.812,5.949 -2.241,11.192 -5.774,14.392c-9.862,8.932 -28.86,17.339 -54.993,23.353c-42.968,9.888 -104.099,12.362 -177.705,-3.096c-118.828,-24.954 -326.81,-62.229 -470.563,-166.576c-2.829,-2.054 -12.292,-8.497 -20.669,-15.818c-4.138,-3.616 -8.208,-7.254 -9.956,-10.652c-10.089,-19.612 -2.285,-43.32 11.459,-61.746c13.832,-18.542 34.279,-32.863 53.53,-30.379c30.417,3.924 64.358,27.977 92.651,38.85c59.867,23.008 125.321,48.556 186.577,67.507c123.784,38.295 333.946,44.706 348.536,47.127Z" style="fill:#7e4021;"/><path d="M830.248,1729.92c-26.636,0.234 -127.266,80.989 -128.974,209.833c-0.22,16.62 10.64,37.628 25.412,46.179c4.034,2.336 8.476,3.58 13.157,3.864c38.969,2.368 82.662,-26.462 118.925,-77.199c39.947,-55.893 62.518,-183.475 -28.52,-182.677Z" style="fill:#fff;"/><path d="M830.102,1713.26c-9.966,0.087 -28.97,7.798 -49.724,24.87c-41.436,34.084 -94.493,105.16 -95.769,201.408c-0.291,21.929 14.236,49.54 33.726,60.824c6.29,3.641 13.2,5.633 20.497,6.076c43.372,2.635 93.136,-27.675 133.495,-84.144c26.315,-36.819 45.304,-102.083 35.062,-148.126c-3.937,-17.699 -11.99,-32.774 -24.51,-43.548c-12.534,-10.787 -29.7,-17.562 -52.777,-17.36Zm0.292,33.332c13.34,-0.117 23.497,3.058 30.742,9.293c11.522,9.916 15.481,26.365 15.828,44.44c0.677,35.334 -13.558,77.125 -31.756,102.586c-32.174,45.018 -69.778,72.356 -104.355,70.255c-2.064,-0.125 -4.038,-0.622 -5.817,-1.652c-10.052,-5.819 -17.247,-20.224 -17.097,-31.534c1.116,-84.134 47.394,-146.313 83.615,-176.107c8.634,-7.102 16.595,-12.302 23.117,-15.274c2.351,-1.071 4.228,-1.994 5.723,-2.007Z" style="fill:#7e4021;"/><path d="M527.733,1511.75c17.578,3.111 1.572,-77.401 99.082,-84.625c139.089,-10.304 231.501,222.281 194.154,381.685c-26.859,114.635 -149.697,156.453 -234.202,182.728c-54.823,17.046 -246.112,2.569 -275.292,-66.307c-18.49,-43.642 1.613,-43.245 0.671,-75.512c-0.403,-13.788 -18.14,-31.573 -17.743,-61.572c0.432,-32.649 38.301,-49.846 23.075,-50.825c-50.99,-3.281 -94.938,-5.428 -205.856,-37.595c-64.814,-18.797 -120.343,-82.355 -82.151,-138.692c62.182,-91.726 298.819,26.265 349.82,50.572c-0,-0 -20.012,-19.941 -24.764,-24.696c-33.34,-33.356 -61.279,-74.602 -87.385,-111.932c-18.93,-27.068 -42.94,-62.397 -47.033,-95.794c-3.79,-30.934 3.058,-66.826 31.753,-84.402c97.649,-59.811 215.575,121.111 257.228,193.267c-0,-0 17.332,23.468 18.643,23.7Z" style="fill:#fff;"/><path d="M309.802,1561.69c-55.096,-23.126 -126.938,-48.43 -186.145,-51.424c-46.935,-2.373 -86.273,9.394 -107.981,41.415c-23.38,34.488 -18.605,71.201 2.466,102.154c19.212,28.223 52.66,51.405 88.838,61.897c93.872,27.223 140.597,33.293 183.518,36.477c-6.51,10.154 -12.592,23.003 -12.76,35.715c-0.237,17.841 4.746,32.09 10.021,43.889c3.357,7.508 7.575,13.172 7.727,18.391c0.403,13.8 -4.098,20.529 -6.319,28.561c-3.266,11.806 -4.663,25.526 6.962,52.966c5.774,13.629 16.412,25.769 30.939,36.07c19.037,13.498 45.106,24.033 73.915,31.557c70.009,18.286 156.184,18.835 190.732,8.093c43.466,-13.515 96.732,-31.162 142.643,-60.036c48.23,-30.332 88.325,-72.865 102.838,-134.805c23.387,-99.818 -1.915,-227.145 -57.305,-310.702c-39.034,-58.885 -92.928,-95.953 -154.307,-91.406c-68.767,5.094 -89.055,41.842 -99.103,69.122l-0.912,2.512l-2.589,-3.362c-25.929,-44.787 -79.788,-128.6 -140.128,-175.718c-45.43,-35.475 -94.622,-50.095 -139.695,-22.487c-34.413,21.078 -44.137,63.542 -39.59,100.641c4.4,35.91 29.563,74.214 49.917,103.319c17.588,25.15 36.026,52.015 56.318,77.161Zm215.027,-33.53c10.537,1.864 19.97,-2.489 25.981,-16.913c4.271,-10.246 6.949,-31.547 23.948,-47.754c10.67,-10.171 27.229,-17.818 53.289,-19.749c49.896,-3.696 92.329,28.713 124.061,76.581c50.755,76.566 74.063,193.215 52.633,284.681c-12.346,52.695 -47.098,88.388 -88.129,114.192c-43.349,27.263 -93.754,43.662 -134.794,56.423c-31.24,9.713 -109.107,8.021 -172.412,-8.514c-20.626,-5.387 -39.702,-12.364 -54.941,-21.282c-12.92,-7.561 -23.05,-16.255 -27.644,-27.097c-10.117,-23.881 -5.495,-30.89 -2.038,-41.6c2.372,-7.347 4.376,-15.784 4.022,-27.897c-0.215,-7.372 -3.512,-15.805 -8.107,-25.589c-4.283,-9.119 -9.828,-20.329 -9.63,-35.277c0.178,-13.441 9.866,-22.864 15.617,-29.081c5.657,-6.115 9.18,-11.325 10.148,-14.335c2.201,-6.845 0.622,-12.346 -2.864,-16.821c-2.219,-2.849 -6.497,-6.867 -15.421,-7.441c-50.106,-3.223 -93.288,-5.36 -202.284,-36.97c-28.637,-8.304 -55.36,-26.299 -70.567,-48.639c-13.35,-19.61 -17.243,-42.843 -2.43,-64.693c9.9,-14.605 25.641,-22.037 44.359,-25.217c21.775,-3.7 47.336,-1.682 74.032,3.412c84.87,16.195 180.431,63.758 210.462,78.07c7.331,3.494 16.112,1.196 20.791,-5.44c4.68,-6.637 3.896,-15.679 -1.856,-21.411c-0,-0 -19.993,-19.922 -24.74,-24.672c-32.657,-32.673 -59.944,-73.136 -85.515,-109.702c-17.507,-25.033 -40.363,-57.383 -44.148,-88.27c-3.036,-24.779 0.93,-54.082 23.915,-68.161c33.06,-20.25 68.448,-5.686 101.77,20.334c57.342,44.777 108.051,125.013 132.319,167.052c0.312,0.542 0.655,1.066 1.027,1.569c-0,-0 15.085,20.295 19.112,24.544c4.354,4.594 8.669,5.426 10.034,5.667Z" style="fill:#7e4021;"/><path d="M551.303,1507.87c4.165,-7.464 1.99,-17.016 -5.219,-21.898c-7.617,-5.157 -17.988,-3.161 -23.145,4.456c-2.753,4.066 -5.734,14.726 -6.814,28.405c-1.928,24.395 -0.632,60.273 0.979,67.907c11.935,56.553 34.577,130.279 84.303,165.64c80.912,57.539 141.924,-35.129 136.951,-107.463c-0.63,-9.177 -8.593,-16.115 -17.77,-15.484c-9.177,0.631 -16.115,8.593 -15.484,17.77c1.425,20.736 -4.331,44.297 -15.439,62.472c-8.674,14.193 -20.549,25.378 -35.642,26.794c-10.091,0.946 -21.187,-2.641 -33.299,-11.254c-43.281,-30.779 -60.617,-96.134 -71.005,-145.357c-1.385,-6.565 -2.022,-37.422 -0.365,-58.399c0.425,-5.38 1.719,-12.377 1.949,-13.589Z" style="fill:#7e4021;"/><path d="M571.792,2010.03c16.562,-7.412 36.565,-23.87 50.748,-35.343c37.6,-30.417 43.315,-88.963 16.467,-128.112c-16.321,-23.798 -46.36,-37.052 -83.434,-41.663c-75.967,-9.448 -182.797,16.317 -232.666,30.048c-8.869,2.442 -14.086,11.625 -11.644,20.493c2.441,8.869 11.624,14.087 20.493,11.645c40.603,-11.18 120.903,-31.147 188.465,-30.935c21.228,0.066 41.137,2.108 57.861,7.376c14.281,4.499 26.129,11.236 33.435,21.888c17.446,25.44 14.492,63.579 -9.942,83.345c-12.209,9.877 -29.142,24.452 -43.399,30.832c-8.396,3.758 -12.162,13.625 -8.405,22.021c3.758,8.396 13.625,12.162 22.021,8.405Z" style="fill:#7e4021;"/><path d="M574.666,1832.15c6.914,-3.996 13.459,-8.961 19.43,-14.247c18.267,-16.171 29.615,-38.958 22.339,-63.686c-8.716,-29.62 -35.633,-47.322 -72.6,-54.621c-72.815,-14.377 -186.376,11.254 -227.597,26.488c-8.628,3.189 -13.044,12.783 -9.856,21.411c3.189,8.628 12.783,13.044 21.411,9.856c32.746,-12.102 114.719,-31.536 179.97,-28.445c20.19,0.957 38.701,4.007 53.174,10.631c11.46,5.244 20.179,12.734 23.52,24.09c3.435,11.671 -3.834,21.685 -12.456,29.318c-4.317,3.821 -9.016,7.456 -14.014,10.344c-7.964,4.603 -10.693,14.806 -6.09,22.77c4.602,7.964 14.805,10.693 22.769,6.091Z" style="fill:#7e4021;"/><path d="M2657.94,1443.42c5.728,-13.532 112.339,-193.226 146.044,-317.481c16.692,-61.537 30.064,-130.114 42.61,-192.644c6.195,-30.88 4.547,-73.946 18.023,-102.824c20.881,-44.747 113.503,-55.654 142.081,-6.961c6.903,11.762 7.834,41.273 8.222,47.425c11.333,179.745 -69.112,378.21 -112.241,493.516c-45.684,122.14 -116.292,185.811 -152.849,195.925c-39.832,11.02 -110.387,-73.261 -91.89,-116.956Z" style="fill:#e4ac87;"/><path d="M2642.59,1436.93c-5.832,13.776 -5.611,30.627 -0.141,48.077c7.013,22.373 22.662,45.995 40.951,63.57c23.038,22.138 50.591,33.48 70.872,27.869c16.423,-4.543 39.29,-18.225 63.712,-42.369c33.88,-33.497 71.832,-87.658 100.304,-163.78c43.72,-116.888 124.752,-318.193 113.264,-500.404c-0.45,-7.132 -2.479,-41.175 -10.482,-54.812c-17.419,-29.679 -53.802,-42.465 -89.566,-39.742c-35.622,2.712 -69.316,20.926 -81.992,48.091c-13.983,29.965 -12.833,74.552 -19.261,106.594c-12.475,62.176 -25.756,130.369 -42.354,191.558c-33.488,123.457 -139.616,301.903 -145.307,315.348Zm30.696,12.994c5.765,-13.619 112.86,-194.561 146.782,-319.615c16.786,-61.884 30.248,-130.845 42.865,-193.728c5.962,-29.719 3.816,-71.263 16.785,-99.055c8.208,-17.59 31.251,-27.194 54.316,-28.95c22.921,-1.745 47.124,4.356 58.288,23.377c1.934,3.295 2.828,8.681 3.667,14.112c1.699,10.994 2.076,22.436 2.296,25.925c11.177,177.28 -68.681,372.904 -111.218,486.629c-26.349,70.446 -61.164,120.755 -92.518,151.753c-19.07,18.854 -36.342,30.4 -49.166,33.948c-4.594,1.271 -9.787,-0.33 -15.246,-2.828c-12.175,-5.573 -24.712,-16.596 -35.159,-29.537c-10.519,-13.032 -18.96,-28.091 -22.154,-42.207c-1.629,-7.196 -1.98,-14.054 0.462,-19.824Z" style="fill:#7e4021;"/><path d="M2802.94,783.752c14.457,-22.372 136.537,-64.136 246.277,3.397c14.156,8.712 26.086,29.131 25.401,46.186c-0.187,4.657 -1.514,9.076 -3.78,13.181c-18.862,34.183 -66.603,55.653 -128.871,59.12c-68.594,3.819 -188.437,-45.417 -139.027,-121.884Z" style="fill:#fff;"/><path d="M2788.95,774.706c-12.526,19.384 -15.993,37.51 -13.592,53.871c2.398,16.343 10.82,31.216 23.661,44.015c33.407,33.301 98.696,52.2 143.883,49.685c69.301,-3.859 121.543,-29.665 142.537,-67.709c3.532,-6.4 5.549,-13.303 5.84,-20.565c0.904,-22.502 -14.641,-49.554 -33.319,-61.048c-81.977,-50.448 -170.414,-43.684 -221.385,-26.933c-25.53,8.391 -42.216,20.314 -47.625,28.684Zm27.997,18.091c0.811,-1.255 2.595,-2.346 4.759,-3.759c6.001,-3.918 14.655,-7.858 25.276,-11.349c44.556,-14.643 121.849,-20.444 193.508,23.655c9.634,5.928 17.949,19.716 17.483,31.322c-0.083,2.054 -0.72,3.987 -1.719,5.798c-16.736,30.329 -59.958,47.455 -115.205,50.531c-31.248,1.74 -74.167,-8.61 -103.648,-28.098c-15.082,-9.969 -26.856,-22.119 -29.063,-37.159c-1.387,-9.458 1.369,-19.736 8.609,-30.941Z" style="fill:#7e4021;"/><path d="M2780.62,411.44c-6.784,16.513 -66.218,-40.108 -124.521,38.385c-83.163,111.962 63.814,314.53 218.445,368.321c111.203,38.684 212.285,-42.682 279.717,-99.992c43.747,-37.18 133.925,-206.499 91.371,-268.018c-26.963,-38.981 -37.39,-21.789 -64.139,-39.858c-11.43,-7.722 -16.956,-32.224 -42.508,-47.949c-27.807,-17.113 -62.605,5.666 -55.281,-7.719c24.526,-44.824 46.24,-83.094 78.45,-193.999c18.821,-64.807 -5.135,-145.733 -73.165,-143.635c-110.763,3.416 -137.787,266.453 -144.559,322.542c-0,0 -6.13,-27.578 -7.602,-34.137c-10.325,-46.017 -30.206,-91.696 -47.76,-133.73c-12.729,-30.48 -29.715,-69.672 -55.733,-91.008c-24.098,-19.762 -58.08,-33.192 -88.287,-18.365c-102.794,50.458 -13.113,246.918 25.534,320.728c-0,-0 10.544,27.202 10.038,28.434Z" style="fill:#fff;"/><path d="M2939.47,254.104c-10.377,-30.601 -23.197,-60.556 -35.024,-88.876c-13.686,-32.772 -32.568,-74.532 -60.544,-97.473c-28.9,-23.7 -69.973,-38.221 -106.199,-20.438c-47.448,23.29 -61.434,72.666 -55.792,130.029c7.495,76.191 49.454,166.552 73.403,212.431l1.452,3.983l-2.61,-0.575c-28.42,-6.117 -70.321,-8.654 -111.437,46.702c-36.7,49.408 -34.243,114.773 -5.403,179.266c40.923,91.517 134.921,181.051 231.751,214.734c60.086,20.902 117.476,9.806 168.915,-14.692c48.966,-23.321 92.388,-58.864 127.072,-88.342c27.568,-23.43 73.237,-96.509 95.272,-165.431c9.067,-28.361 14.125,-56.02 12.915,-79.325c-0.923,-17.784 -5.482,-33.268 -13.903,-45.442c-16.953,-24.509 -29.289,-30.673 -41.01,-34.236c-7.972,-2.424 -16.066,-2.224 -27.506,-9.952c-4.326,-2.922 -6.852,-9.517 -11.397,-16.372c-7.142,-10.772 -16.51,-22.609 -31.705,-31.96c-10.828,-6.663 -24.936,-8.405 -36.997,-8.342c20.288,-37.957 40.175,-80.673 67.435,-174.534c10.506,-36.173 8.832,-76.835 -4.721,-108.171c-14.864,-34.368 -43.316,-58.055 -84.963,-56.771c-38.667,1.193 -69.665,28.12 -92.787,69.034c-29.168,51.611 -46.255,125.837 -56.217,184.753Zm-143.434,163.669c0.526,-1.282 2.134,-5.372 0.584,-11.509c-1.433,-5.676 -10.499,-29.282 -10.499,-29.282c-0.226,-0.583 -0.485,-1.153 -0.775,-1.707c-22.516,-43.003 -63.139,-128.787 -70.262,-201.192c-4.138,-42.074 2.506,-79.761 37.307,-96.844c24.197,-11.877 51.071,0.461 70.375,16.291c24.061,19.732 39.15,56.356 50.921,84.543c17.195,41.174 36.764,85.883 46.878,130.957c1.47,6.553 7.594,34.105 7.594,34.105c1.762,7.926 8.98,13.43 17.091,13.03c8.11,-0.4 14.752,-6.587 15.725,-14.649c3.988,-33.027 14.973,-139.203 46.729,-219.557c9.989,-25.276 21.969,-47.946 36.751,-64.357c12.707,-14.107 27.411,-23.424 45.047,-23.967c26.385,-0.814 43.924,14.911 53.341,36.685c10.727,24.804 11.62,57.009 3.304,85.643c-31.652,108.983 -52.964,146.6 -77.065,190.647c-4.293,7.845 -3.189,13.609 -1.971,17.009c1.913,5.339 5.714,9.618 12.674,11.423c3.061,0.794 9.347,0.608 17.541,-0.897c8.33,-1.529 21.475,-4.667 32.923,2.378c12.732,7.835 19.232,18.519 24.641,27.018c5.804,9.12 11.161,16.419 17.273,20.548c10.042,6.783 18.241,9.607 25.717,11.537c10.895,2.813 19.29,2.662 34.044,23.992c6.699,9.683 8.62,22.894 8.089,37.855c-0.626,17.645 -4.946,37.493 -11.437,57.798c-19.925,62.322 -60.181,128.997 -85.109,150.183c-32.749,27.832 -73.584,61.627 -119.818,83.646c-43.761,20.842 -92.512,31.087 -143.63,13.305c-88.727,-30.866 -174.775,-113 -212.274,-196.859c-23.443,-52.427 -28.101,-105.618 1.733,-145.783c15.581,-20.978 30.905,-30.871 45.208,-34.437c22.789,-5.682 42.215,3.46 53.155,5.338c15.401,2.644 24.128,-2.993 28.195,-12.891Z" style="fill:#7e4021;"/><path d="M2764.72,429.271c1.146,0.455 7.748,3.108 12.52,5.629c18.605,9.83 44.327,26.888 49.13,31.572c36.015,35.125 81.935,84.756 84.762,137.79c0.791,14.84 -2.119,26.133 -8.321,34.15c-9.275,11.989 -25.081,16.031 -41.712,15.76c-21.298,-0.348 -44.28,-8.1 -61.031,-20.404c-7.413,-5.446 -17.853,-3.848 -23.299,3.565c-5.445,7.414 -3.848,17.854 3.566,23.299c58.434,42.924 169.367,41.001 164.083,-58.144c-3.247,-60.93 -53.397,-119.524 -94.774,-159.879c-5.586,-5.448 -35.196,-25.75 -56.832,-37.181c-12.133,-6.41 -22.732,-9.6 -27.64,-9.451c-9.195,0.278 -16.433,7.969 -16.155,17.163c0.264,8.703 7.168,15.653 15.703,16.131Z" style="fill:#7e4021;"/><path d="M3159.48,687.615c-13.022,8.626 -34.397,15.126 -49.276,20.15c-29.775,10.056 -63.57,-7.866 -75.718,-36.221c-5.086,-11.873 -4.433,-25.487 -0.588,-39.958c4.503,-16.946 13.437,-34.854 24.746,-52.82c35.989,-57.179 95.843,-114.313 127.022,-142.623c6.81,-6.184 7.319,-16.733 1.136,-23.543c-6.184,-6.81 -16.733,-7.319 -23.543,-1.136c-38.295,34.771 -117.248,111.209 -149.937,180.431c-15.952,33.783 -20.839,66.251 -9.476,92.776c18.694,43.635 71.203,70.15 117.024,54.675c17.283,-5.837 41.893,-13.922 57.019,-23.943c7.669,-5.08 9.77,-15.43 4.69,-23.098c-5.08,-7.669 -15.431,-9.77 -23.099,-4.69Z" style="fill:#7e4021;"/><path d="M3010.66,593.066c-5.116,2.676 -10.702,4.699 -16.24,6.299c-11.062,3.196 -23.412,3.975 -31.432,-5.174c-7.802,-8.901 -9.461,-20.276 -7.756,-32.763c2.154,-15.77 9.487,-33.037 19.488,-50.603c32.321,-56.768 92.619,-115.602 120.371,-136.781c7.313,-5.581 8.719,-16.048 3.138,-23.36c-5.581,-7.313 -16.048,-8.719 -23.361,-3.138c-34.934,26.661 -117.377,108.857 -144.215,178.055c-13.626,35.132 -13.083,67.343 7.269,90.562c16.991,19.384 42.313,21.997 65.75,15.226c7.661,-2.214 15.359,-5.084 22.435,-8.784c8.151,-4.263 11.308,-14.342 7.045,-22.493c-4.263,-8.151 -14.341,-11.308 -22.492,-7.046Z" style="fill:#7e4021;"/><path d="M2655.74,963.67c-169.142,-224.561 -432.949,-168.921 -552.003,-143.548c-187.229,39.901 -1399.5,472.933 -1203.32,785.301c109.318,174.062 271.816,161.124 540.357,411.94c199.367,186.207 496.616,590.736 710.191,691.213c140.834,66.256 345.564,41.632 430.696,-45.737c349.521,-358.704 255.871,-1457.81 74.078,-1699.17Z" style="fill:#f7bf9a;"/><path d="M2669.05,953.642c-174.429,-231.579 -446.015,-175.986 -568.79,-149.821c-131.906,28.111 -769.287,250.174 -1072.14,488.67c-66.708,52.532 -117.35,106.096 -143.979,158.393c-28.619,56.203 -30.556,111.309 2.161,163.403c56.274,89.603 125.903,131.469 216.356,182.817c87.009,49.394 193.764,108.241 326.739,232.439c119.458,111.572 274.076,301.66 424.75,457.531c102.226,105.752 202.9,195.737 289.722,236.583c87.675,41.247 199.199,48.738 293.484,28.398c64.114,-13.831 120.205,-40.598 156.244,-77.584c177.136,-181.791 243.491,-550.798 241.011,-905.339c-2.477,-354.203 -73.512,-693.288 -165.557,-815.49Zm-26.625,20.055c89.748,119.154 156.434,450.3 158.849,795.668c2.414,345.03 -59.167,704.929 -231.552,881.843c-32.066,32.909 -82.352,55.957 -139.399,68.264c-87.457,18.866 -190.939,12.283 -272.265,-25.977c-84.038,-39.536 -180.998,-127.228 -279.945,-229.588c-151.085,-156.296 -306.182,-346.848 -425.964,-458.725c-135.567,-126.617 -244.331,-186.709 -333.036,-237.066c-85.261,-48.401 -151.54,-87.097 -204.584,-171.557c-26.137,-41.617 -23.548,-85.65 -0.685,-130.55c24.851,-48.805 72.644,-98.305 134.898,-147.33c298.972,-235.439 928.251,-454.506 1058.47,-482.257c115.334,-24.579 371.359,-80.269 535.217,137.275Z" style="fill:#7e4021;"/><path d="M2574.77,1736.7c14.521,31.797 25.701,66.615 32.959,104.064c46.739,241.173 -86.116,500.933 -297.36,579.267c-208.535,77.33 -414.606,-54.272 -460.745,-292.351c-1.727,-8.913 -3.208,-17.852 -4.449,-26.805c-1.262,-9.112 -9.684,-15.485 -18.795,-14.223c-9.112,1.262 -15.485,9.684 -14.223,18.796c1.322,9.544 2.901,19.072 4.743,28.574c50.432,260.231 277.122,401.787 505.059,317.263c225.227,-83.519 368.327,-359.726 318.494,-616.863c-7.781,-40.153 -19.793,-77.477 -35.362,-111.569c-3.821,-8.367 -13.717,-12.058 -22.084,-8.237c-8.368,3.821 -12.058,13.717 -8.237,22.084Z" style="fill:#7e4021;"/><path d="M1784.68,2106.61c0.918,0.49 1.846,0.952 2.338,1.124c1.628,0.571 3.27,1.108 4.898,1.678c6.466,2.262 13.062,3.694 20.01,4.346c20.146,1.891 38.251,-7.84 54.078,-23.474c6.543,-6.465 6.608,-17.026 0.143,-23.57c-6.465,-6.544 -17.026,-6.608 -23.57,-0.144c-8.293,8.193 -16.98,14.991 -27.536,14c-4.208,-0.395 -8.204,-1.252 -12.119,-2.622c-1.625,-0.568 -3.262,-1.104 -4.886,-1.673c0.617,0.216 2.392,1.093 2.392,1.093c-0,-0 -8.735,-3.261 -9.763,-3.284c-5.383,-0.119 -9.112,2.014 -11.747,4.463c-3.15,2.928 -5.715,7.069 -5.292,13.357c0.103,1.533 0.339,4.36 2.63,7.967c2.061,3.245 5.06,5.536 8.424,6.739Zm20.211,-23.768c1.723,3.093 2.357,6.53 2.002,9.84c0.369,-2.294 0.372,-5.704 -2.002,-9.84Z" style="fill:#7e4021;"/><path d="M2631.61,1698.95c1.661,-2.177 2.804,-4.795 3.223,-7.695c0.59,-4.091 -0.271,-6.601 -0.675,-7.816c-2,-6.016 -5.947,-8.729 -9.535,-10.193c-4.097,-1.671 -10.358,-2.863 -16.966,2.614c-0.616,0.511 -5.065,6.812 -5.065,6.812c0,-0 0.618,-0.981 0.845,-1.286c-1.201,1.617 -2.426,3.215 -3.627,4.832c-3.223,4.335 -6.724,8.245 -10.621,11.866c-8.622,8.013 -18.597,9.03 -28.556,7.699c-9.117,-1.219 -17.509,5.194 -18.728,14.311c-1.219,9.118 5.194,17.51 14.312,18.729c19.531,2.611 38.753,-0.605 55.664,-16.322c5.385,-5.005 10.227,-10.406 14.681,-16.398c1.204,-1.62 2.43,-3.22 3.633,-4.84c0.315,-0.424 0.895,-1.402 1.415,-2.313Zm-29.928,-10.683c-0.063,1.29 0.036,2.371 0.197,3.258c-0.171,-1.061 -0.241,-2.151 -0.197,-3.258Zm0.003,-0.098c0.023,-0.554 0.075,-1.113 0.156,-1.674c-0.086,0.593 -0.138,1.15 -0.156,1.674Z" style="fill:#7e4021;"/><path d="M1823.83,2089.77c-6.663,-4.481 -15.177,-9.266 -25.824,-13.678c-8.497,-3.522 -18.256,0.518 -21.777,9.016c-3.522,8.498 0.518,18.256 9.016,21.778c22.566,9.352 30.461,18.559 31.593,20.138c2.869,4.001 5.518,5.058 5.702,5.159c3.216,1.77 6.046,2.082 8.165,2.066c1.445,-0.011 10.176,-2.347 14.49,-8.436c0.563,-1.043 1.066,-2.209 1.496,-3.523c0.705,-2.155 1.871,-13.419 14.855,-27.501c6.236,-6.763 5.808,-17.315 -0.955,-23.551c-6.762,-6.236 -17.315,-5.808 -23.55,0.955c-5.831,6.323 -10.085,12.265 -13.211,17.577Zm-8.574,21.038l-0.115,0.472c-1.742,4.266 -1.647,9.101 0.327,13.334c-3.07,-6.583 -1.411,-11.448 -0.212,-13.806Zm7.42,-7.916l-0.155,0.092l0.371,-0.2l-0.216,0.108Zm1.007,-0.506l-0.385,0.193l0.669,-0.311l-0.284,0.118Zm1.912,-0.722l-0.426,0.138l-0.474,0.161l-0.688,0.288l0.887,-0.352l0.789,-0.259l-0.088,0.024Z" style="fill:#7e4021;"/><path d="M2585.24,1712.93c-4.927,-2.521 -10.756,-4.737 -17.454,-6.053c-9.026,-1.774 -17.794,4.115 -19.567,13.141c-1.773,9.026 4.115,17.793 13.141,19.567c14.103,2.77 18.403,10.638 19.603,11.827c8.888,8.816 17.277,4.954 21.322,2.285l-1.384,-0.777c4.046,-0.65 7.353,-3.563 8.65,-10.373c0.446,-2.342 4.017,-17.072 21.622,-42.907c5.18,-7.602 3.214,-17.978 -4.387,-23.158c-7.602,-5.18 -17.979,-3.215 -23.159,4.387c-8.451,12.402 -14.334,23.291 -18.387,32.061Zm18.278,13.684l-0.097,-0.103c3.062,2.194 6.608,6.356 6.341,13.867c0.181,-5.074 -1.958,-9.885 -5.694,-13.146l-0.55,-0.618Zm-6.893,-3.111c-4.889,-1.191 -9.025,-0.016 -12.573,2.294l-0.072,0.045c3.787,-2.48 8.351,-3.275 12.645,-2.339Z" style="fill:#7e4021;"/><path d="M2477.12,1501.9c-31.43,31.899 -1.231,106.174 32.16,90.244c54.571,-26.036 -2.448,-120.399 -32.16,-90.244Z" style="fill:#7e4021;"/><path d="M2465.25,1490.2c-24.04,24.399 -21.406,68.174 -4.971,94.961c13.586,22.143 35.067,32.096 56.18,22.023c43.327,-20.671 37.096,-73.478 13.806,-104.129c-18.771,-24.703 -46.002,-32.151 -65.015,-12.855Zm23.744,23.395c1.317,-1.336 2.954,-0.661 4.497,0.159c3.683,1.958 7.131,5.385 10.233,9.468c6.709,8.829 11.653,20.846 11.626,32.207c-0.02,8.771 -3.608,17.073 -13.244,21.67c-2.141,1.022 -4.19,0.321 -6.017,-0.944c-2.829,-1.959 -5.265,-4.95 -7.398,-8.427c-9.357,-15.249 -13.383,-40.243 0.303,-54.133Z" style="fill:#7e4021;"/><path d="M1761.59,1836.29c-33.866,28.566 -11.368,106.969 22.891,94.737c55.991,-19.99 9.124,-121.741 -22.891,-94.737Z" style="fill:#7e4021;"/><path d="M1750.85,1823.55c-25.76,21.729 -27.54,65.96 -14.066,94.713c11.218,23.937 31.612,36.206 53.307,28.461c44.261,-15.802 43.671,-69.55 23.859,-103.002c-16.114,-27.208 -42.517,-37.534 -63.1,-20.172Zm21.492,25.48c1.207,-1.018 2.461,-0.048 3.681,0.806c3.47,2.431 6.559,6.335 9.246,10.872c5.816,9.82 9.558,22.699 8.428,34.324c-0.854,8.787 -4.994,16.793 -14.814,20.299c-2.036,0.727 -3.784,-0.288 -5.333,-1.666c-2.64,-2.35 -4.786,-5.714 -6.582,-9.546c-4.165,-8.887 -6.191,-20.212 -5.236,-30.985c0.823,-9.279 3.752,-18.32 10.61,-24.104Z" style="fill:#7e4021;"/><path d="M1846.67,1005.27c23.584,-9.92 56.275,-23.952 80.516,-32.971c58.136,-21.631 118.887,-38.388 180.226,-47.884c9.091,-1.407 15.328,-9.93 13.921,-19.02c-1.408,-9.091 -9.93,-15.328 -19.021,-13.921c-63.556,9.84 -126.512,27.171 -186.75,49.584c-24.63,9.164 -57.853,23.407 -81.816,33.486c-8.479,3.567 -12.467,13.346 -8.901,21.825c3.567,8.48 13.346,12.468 21.825,8.901Z" style="fill:#7e4021;"/><path d="M2225.45,898.139c5.623,-0.901 11.26,-1.712 16.89,-2.57c19.002,-2.897 38.174,-4.477 57.296,-6.357c9.155,-0.899 15.857,-9.062 14.957,-18.217c-0.9,-9.154 -9.063,-15.856 -18.217,-14.956c-19.711,1.937 -39.471,3.591 -59.059,6.577c-5.713,0.871 -11.434,1.695 -17.141,2.61c-9.082,1.455 -15.275,10.011 -13.819,19.094c1.455,9.082 10.011,15.275 19.093,13.819Z" style="fill:#7e4021;"/><path d="M1030.84,3490.21c19.241,4.073 36.149,-2.451 46.833,-14.643c7.452,-8.504 11.968,-19.933 11.783,-33.028c-0.342,-24.081 -17.902,-57.066 -71.391,-81.121c-35.679,-16.046 -75.568,-20.061 -109.771,-15.88c-32.585,3.984 -59.999,15.659 -75.164,30.528c-13.497,13.233 -18.706,29.061 -14.301,45.726c2.351,8.893 11.479,14.205 20.373,11.854c8.893,-2.35 14.205,-11.479 11.854,-20.372c-1.017,-3.848 0.366,-7.384 2.89,-10.61c4.483,-5.729 11.879,-10.447 20.926,-14.383c32.505,-14.139 84.962,-16.502 129.521,3.538c23.518,10.576 38.29,22.585 46.012,34.61c5.497,8.558 7.064,16.665 4.665,23.014c-2.455,6.496 -9.425,9.829 -17.325,8.156c-8.999,-1.905 -17.852,3.854 -19.758,12.853c-1.905,8.999 3.854,17.852 12.853,19.758Z" style="fill:#7e4021;"/><path d="M3823.8,2304.35c38.995,-48.76 95.842,-140.891 81.754,-267.98c-1.014,-9.143 -9.259,-15.743 -18.402,-14.729c-9.142,1.013 -15.742,9.259 -14.728,18.401c12.805,115.524 -39.21,199.166 -74.657,243.489c-5.745,7.184 -4.577,17.681 2.607,23.426c7.184,5.745 17.68,4.577 23.426,-2.607Z" style="fill:#7e4021;"/><path d="M733.663,3089.44c-29.933,-24.467 -61.809,-36.4 -81.992,-74.586c-4.298,-8.133 -14.391,-11.246 -22.523,-6.947c-8.132,4.298 -11.245,14.39 -6.947,22.523c22.568,42.697 56.897,57.461 90.367,84.819c7.122,5.821 17.63,4.765 23.452,-2.357c5.821,-7.122 4.765,-17.631 -2.357,-23.452Z" style="fill:#7e4021;"/><path d="M1741.92,3098.85c-70.418,14.795 -130.332,-0.918 -201.944,-40.357c-8.057,-4.437 -18.202,-1.498 -22.639,6.559c-4.438,8.057 -1.499,18.202 6.559,22.639c79.667,43.875 146.539,60.239 224.878,43.78c9.002,-1.891 14.775,-10.735 12.883,-19.737c-1.891,-9.002 -10.735,-14.775 -19.737,-12.884Z" style="fill:#7e4021;"/><path d="M1471.73,3016.58c-17.936,-11.407 -68.02,-45.211 -84.906,-58.09c-7.314,-5.578 -17.781,-4.169 -23.36,3.145c-5.578,7.314 -4.169,17.781 3.145,23.359c17.352,13.234 68.803,47.992 87.234,59.713c7.761,4.936 18.071,2.642 23.007,-5.12c4.936,-7.762 2.642,-18.071 -5.12,-23.007Z" style="fill:#7e4021;"/><path d="M3381.72,2194.92c-1.255,18.807 -3.443,37.546 -6.164,56.194c-8.16,55.909 -29.906,109.547 -68.791,150.862c-6.304,6.699 -5.984,17.255 0.714,23.56c6.699,6.304 17.255,5.984 23.56,-0.714c43.58,-46.304 68.356,-106.234 77.501,-168.894c2.847,-19.508 5.127,-39.113 6.44,-58.789c0.612,-9.178 -6.342,-17.127 -15.52,-17.739c-9.179,-0.613 -17.127,6.342 -17.74,15.52Z" style="fill:#7e4021;"/><path d="M3248.26,2460.8c-15.747,9.42 -32.722,16.993 -49.253,24.914c-8.295,3.975 -11.803,13.937 -7.828,22.232c3.975,8.296 13.937,11.803 22.232,7.828c17.452,-8.362 35.337,-16.424 51.961,-26.368c7.894,-4.722 10.469,-14.964 5.747,-22.858c-4.722,-7.894 -14.965,-10.47 -22.859,-5.748Z" style="fill:#7e4021;"/><path d="M3909.12,1912.84c-12.7,-57.79 -9.46,-112.898 -11.514,-161.787c-1.493,-35.53 -5.774,-67.994 -18.988,-96.374c-3.882,-8.339 -13.804,-11.957 -22.144,-8.074c-8.339,3.882 -11.957,13.805 -8.074,22.144c14.512,31.169 15.86,68.101 16.599,108.698c0.803,44.158 0.538,92.374 11.564,142.547c1.974,8.985 10.871,14.676 19.856,12.702c8.984,-1.975 14.675,-10.872 12.701,-19.856Z" style="fill:#7e4021;"/><path d="M1288.19,3454.72c-6.165,-14.653 -21.458,-41.667 -31.224,-54.181c-27.909,-35.762 -64.006,-65.364 -101.782,-90.117c-60.83,-39.859 -121.87,-55.446 -182.7,-74.076c-57.264,-17.538 -114.354,-37.945 -170.468,-87.824c-6.875,-6.112 -17.418,-5.492 -23.53,1.384c-6.111,6.875 -5.491,17.418 1.385,23.529c60.268,53.572 121.348,75.946 182.851,94.783c57.936,17.743 116.258,32.123 174.193,70.085c34.751,22.771 68.098,49.845 93.773,82.744c8.393,10.755 21.478,34.006 26.777,46.6c3.567,8.478 13.347,12.466 21.826,8.899c8.478,-3.568 12.466,-13.348 8.899,-21.826Z" style="fill:#7e4021;"/></g></svg>