<?xml version="1.0" encoding="UTF-8" standalone="no"?><!DOCTYPE svg PUBLIC "-//W3C//DTD SVG 1.1//EN" "http://www.w3.org/Graphics/SVG/1.1/DTD/svg11.dtd"><svg width="100%" height="100%" viewBox="0 0 4930 6047" version="1.1" xmlns="http://www.w3.org/2000/svg" xmlns:xlink="http://www.w3.org/1999/xlink" xml:space="preserve" xmlns:serif="http://www.serif.com/" style="fill-rule:evenodd;clip-rule:evenodd;stroke-linejoin:round;stroke-miterlimit:2;"><g id="Dream-donut-Character" serif:id="Dream donut-Character"><path d="M3633.66,3071.48c-119.52,-290.791 194.738,-277.762 248.097,-466.677c42.45,-150.29 -41.963,-298.475 -20.128,-448.43c21.456,-147.351 127.755,-224.74 181.016,-352.43c51.855,-124.319 -84.768,-266.99 -91.773,-391.76c-8.634,-153.767 128.549,-173.265 173.976,-293.102c20.672,-54.535 -20.742,-115.435 2.832,-171.233c12.635,-29.906 68.533,-50.606 103.148,-4.387c162.993,217.633 -102.689,321.042 -58.457,508.756c17.134,72.712 58.826,137.505 69.139,212.419c29.268,212.606 -162.696,287.184 -200.718,472.791c-29.228,142.684 73.273,281.684 47.704,432.389c-2.569,15.141 -6.02,30.057 -10.405,44.777c-48.506,162.826 -210.055,227.061 -271.946,376.9c-25.736,62.306 -157.663,116.049 -172.485,79.987Z" style="fill:#fee4a8;"/><path d="M3618.25,3077.82c3.483,8.473 9.974,14.726 19.304,18.409c9.326,3.682 22.44,4.578 37.701,2.11c29.466,-4.765 68.555,-21.816 99.249,-45.004c21.548,-16.279 38.858,-35.643 47.05,-55.475c30.095,-72.861 84.778,-124.634 137.476,-178.261c56.049,-57.037 109.953,-116.033 135.039,-200.244c4.578,-15.367 8.182,-30.939 10.864,-46.747c13.191,-77.748 -6.164,-152.533 -25.537,-226.227c-18.114,-68.905 -36.37,-136.78 -22.271,-205.605c18.502,-90.322 75.034,-153.309 122.807,-219.901c51.434,-71.695 93.428,-147.118 78.094,-258.508c-10.385,-75.438 -52.174,-140.748 -69.427,-213.969c-10.186,-43.228 -2.268,-81.574 12.6,-117.952c15.936,-38.992 39.668,-75.809 59.67,-113.584c25.895,-48.906 45.513,-99.391 38.781,-156.874c-4.495,-38.385 -20.697,-80.074 -55.477,-126.514c-44.283,-59.128 -115.677,-30.367 -131.841,7.891c-13.053,30.896 -8.933,63.177 -3.592,95.31c4.333,26.072 9.816,52.002 0.528,76.502c-21.796,57.5 -66.163,90.479 -103.488,127.977c-41.952,42.147 -76.2,89.041 -71.544,171.968c3.6,64.11 39.935,133.013 69.274,201.664c26.686,62.442 47.992,124.644 23.757,182.745c-26.195,62.802 -65.58,113.146 -100.908,165.996c-37.235,55.704 -70.095,114.063 -81.218,190.449c-11.173,76.734 4.497,153.042 17.871,229.367c12.637,72.116 23.236,144.268 2.711,216.934c-12.392,43.873 -40.246,75.801 -72.85,103.565c-34.986,29.793 -75.418,54.865 -110.453,83.128c-37.764,30.464 -69.314,64.66 -83.806,110.456c-14.387,45.466 -12.237,102.847 19.636,180.394Zm30.685,-13.032c-26.676,-65.035 -30.818,-113.702 -19.92,-152.677c16.499,-59.004 66.505,-94.929 117.66,-131.628c63.409,-45.492 128.709,-91.778 151.127,-171.146c21.925,-77.624 11.542,-154.71 -1.957,-231.747c-12.761,-72.83 -28.38,-145.591 -17.718,-218.811c10.333,-70.966 41.35,-124.976 75.944,-176.728c36.501,-54.604 76.895,-106.8 103.961,-171.688c27.622,-66.221 6.545,-137.507 -23.87,-208.676c-27.761,-64.958 -63.239,-129.773 -66.645,-190.434c-3.977,-70.841 26.049,-110.579 61.887,-146.583c40.466,-40.653 87.403,-77.34 111.033,-139.677c11.386,-30.037 6.497,-61.82 1.185,-93.784c-4.305,-25.902 -9.107,-51.966 1.416,-76.871c9.112,-21.569 49.49,-34.217 74.455,-0.882c30.417,40.614 45.119,76.839 49.05,110.409c5.908,50.448 -12.406,94.479 -35.132,137.398c-20.516,38.746 -44.723,76.579 -61.068,116.572c-17.414,42.607 -26.119,87.579 -14.189,138.208c17.013,72.204 58.609,136.48 68.85,210.87c13.934,101.216 -25.42,169.385 -72.157,234.532c-50.398,70.251 -108.858,137.355 -128.377,232.641c-15.13,73.859 3.25,146.826 22.688,220.769c18.179,69.153 37.289,139.22 24.911,212.177c-2.456,14.475 -5.754,28.735 -9.946,42.806c-23.42,78.616 -74.543,133.15 -126.868,186.397c-55.676,56.657 -112.714,111.921 -144.51,188.899c-6.22,15.06 -19.971,29.243 -36.334,41.604c-26.171,19.771 -59.353,34.632 -84.477,38.695c-6.014,0.972 -11.466,1.326 -16.069,0.737c-1.389,-0.177 -2.669,-0.435 -3.808,-0.846c-0.349,-0.126 -0.863,-0.395 -1.122,-0.536Z" style="fill:#7e4021;"/><path d="M4018.88,911.781c7.533,-27.255 117.914,-108.351 250.528,-74.822c17.106,4.325 35.679,21.216 40.405,38.708c1.29,4.777 1.35,9.674 0.36,14.552c-8.243,40.617 -49.775,77.535 -111.743,100.834c-68.264,25.667 -205.297,13.881 -179.55,-79.272Z" style="fill:#fff;"/><path d="M4002.82,907.34c-6.447,23.325 -4.25,42.55 3.288,58.165c7.529,15.598 20.636,27.823 37.502,36.599c44.189,22.993 115.953,21.37 160.689,4.55c68.562,-25.779 113.092,-68.181 122.212,-113.12c1.511,-7.447 1.366,-14.922 -0.605,-22.214c-6.148,-22.756 -30.155,-44.893 -52.409,-50.519c-98.702,-24.955 -185.811,9.868 -231.946,42.912c-22.925,16.42 -35.945,33.548 -38.731,43.627Zm32.128,8.881c0.451,-1.63 1.965,-3.441 3.823,-5.698c4.877,-5.93 12.454,-12.737 22.19,-19.71c40.645,-29.112 117.408,-59.681 204.365,-37.696c11.959,3.024 25.097,14.669 28.401,26.897c0.611,2.262 0.585,4.581 0.116,6.89c-7.367,36.304 -45.889,67.724 -101.275,88.549c-31.273,11.758 -78.298,14.933 -114.556,4.504c-18.751,-5.393 -34.754,-14.168 -41.885,-28.942c-4.505,-9.332 -5.031,-20.856 -1.179,-34.794Z" style="fill:#7e4021;"/><path d="M4328.09,780.639c33.777,-76.673 -16.184,-188.87 32.301,-292.069c29.543,-62.88 40.184,-90.889 78.749,-153.519c41.429,-67.281 11.431,-134.178 -16.605,-149.378c-50.365,-27.305 -95.476,12.542 -96.995,8.551c9.836,-41.705 -10.099,-80.345 -48.705,-96.03c-69.498,-28.235 -106.457,36.593 -108.943,36.194c-12.512,-42.952 -18.677,-93.929 -71.362,-96.94c-52.114,-2.979 -74.424,29.129 -87.913,77.689c5.257,-70.317 -37.603,-108.872 -86.48,-95.113c-107.697,30.318 -21.828,359.004 -74.243,473.161c-33.384,72.709 -137.094,-154.905 -209.381,-77.5c-83.959,89.902 130.484,275.033 215.596,346.135c105.808,88.391 155.127,173.144 308.15,149.262c53.609,-8.366 130.028,-49.171 165.831,-130.443Z" style="fill:#fff;"/><path d="M4344.62,167.957c-1.837,-37.833 -24.625,-70.217 -61.511,-85.204c-50.238,-20.41 -86.179,0.009 -107.026,18.673c-3.811,-13.555 -8.05,-26.787 -14.044,-38.223c-12.31,-23.486 -31.096,-40.483 -64.557,-42.395c-25.302,-1.446 -44.718,4.32 -60.074,15.054c-7.63,5.334 -14.277,12.007 -20.094,19.864c-4.868,-12.474 -11.623,-22.96 -19.658,-31.263c-20.382,-21.064 -49.225,-29.155 -80.034,-20.482c-20.525,5.778 -35.864,19.685 -46.745,40.322c-9.347,17.728 -15.381,40.834 -18.888,67.549c-9.075,69.12 -1.551,163.947 -1.971,246.157c-0.264,51.55 -3.347,97.901 -17.269,128.221c-1.011,2.203 -1.89,3.948 -3.192,4.936c-0.632,0.479 -1.288,-0.36 -2.117,-0.646c-1.853,-0.638 -3.771,-1.621 -5.785,-2.823c-8.923,-5.327 -18.818,-14.382 -29.501,-24.676c-27.859,-26.845 -60.18,-61.139 -91.132,-74.101c-26.073,-10.92 -51.566,-9.371 -74.689,15.389c-29.738,31.844 -29.653,73.669 -9.61,119.08c40.515,91.793 165.763,200.314 226.702,251.221c42.435,35.451 75.819,70.306 110.41,97.851c55.136,43.906 113.171,70.356 210.995,55.089c57.673,-9.001 139.996,-52.759 178.513,-140.192c17.821,-40.453 14.363,-90.211 12.034,-143.534c-2.096,-47.98 -2.918,-99.174 20.1,-148.167c29.221,-62.196 39.71,-89.919 77.855,-151.867c32.927,-53.473 25.596,-106.761 7.629,-139.822c-8.594,-15.814 -19.824,-27.168 -30.481,-32.946c-31.219,-16.926 -64.417,-10.694 -85.86,-3.065Zm-31.781,605.962c-33.089,75.111 -103.604,112.964 -153.149,120.696c-85.803,13.391 -136.729,-9.719 -185.09,-48.23c-34.408,-27.399 -67.594,-62.093 -109.805,-97.356c-50.189,-41.928 -146.301,-124.042 -197.206,-202.237c-15.81,-24.285 -27.239,-48.024 -30.589,-69.932c-2.855,-18.669 0.591,-35.769 13.695,-49.8c15.235,-16.314 32.516,-11.662 49.795,-0.886c23.697,14.777 47.329,40.416 68.535,60.85c16.526,15.925 32.032,28.816 44.972,34.044c10.312,4.166 19.765,4.342 28.101,0.985c7.815,-3.147 15.325,-9.676 20.944,-21.914c13.316,-29.002 18.635,-71.012 19.944,-118.67c1.855,-67.509 -3.891,-146.864 -1.753,-214.143c1.129,-35.529 4.377,-67.541 12.653,-92.085c6.683,-19.822 16.239,-34.52 32.768,-39.173c38.638,-10.877 69.499,22.24 65.343,77.826c-0.639,8.549 5.311,16.188 13.755,17.662c8.445,1.473 16.63,-3.699 18.924,-11.958c6.899,-24.835 15.655,-45.108 31.83,-56.415c9.947,-6.954 22.683,-10.033 39.074,-9.096c23.726,1.356 34.294,16.39 41.451,34.59c6.179,15.711 9.996,33.674 14.86,50.372c1.801,6.183 7.003,10.775 13.362,11.795c1.897,0.305 9.998,1.072 17.141,-7.369c6.966,-8.232 36.457,-50.849 88.168,-29.84c30.832,12.527 46.612,43.456 38.757,76.763c-0.765,3.243 -0.54,6.642 0.646,9.757c1.856,4.874 5.227,8.228 10.235,10.012c2.477,0.883 6.926,1.885 12.877,-0.329c3.57,-1.329 12.331,-6.914 24.47,-11.57c14.545,-5.579 35.186,-9.794 57.046,2.057c8.575,4.65 16.733,16.107 22.197,30.895c9.303,25.177 9.733,60.055 -11.841,95.092c-38.985,63.311 -49.777,91.606 -79.641,155.171c-25.468,54.206 -25.552,110.71 -23.233,163.796c2.086,47.746 6.721,92.419 -9.236,128.64Z" style="fill:#7e4021;"/><path d="M3998.99,84.457c-7.549,19.032 -16.592,76.315 -19.599,90.706c-20.03,95.834 -51.071,179.915 -32.363,277.333c1.735,9.034 10.478,14.959 19.511,13.225c9.034,-1.735 14.959,-10.478 13.225,-19.511c-17.836,-92.874 13.16,-172.865 32.255,-264.228c2.823,-13.507 10.87,-67.371 17.956,-85.235c3.391,-8.55 -0.797,-18.246 -9.348,-21.637c-8.55,-3.392 -18.246,0.797 -21.637,9.347Z" style="fill:#7e4021;"/><path d="M4154.56,117.824c-5.065,13.888 -16.447,29.571 -22.285,43.957c-42.182,103.949 -71.865,184.75 -73.021,298.553c-0.093,9.199 7.299,16.742 16.497,16.835c9.198,0.094 16.742,-7.298 16.835,-16.496c1.109,-109.202 30.1,-186.612 70.576,-286.358c5.978,-14.732 17.526,-30.847 22.714,-45.07c3.152,-8.641 -1.305,-18.216 -9.947,-21.368c-8.642,-3.152 -18.217,1.305 -21.369,9.947Z" style="fill:#7e4021;"/><path d="M3940.06,473.073c6.743,-1.415 13.518,-2.413 20.377,-3.074c22.983,-2.214 47.007,-1.956 69.951,0.396c62.947,6.454 125.302,38.211 167.329,85.476c6.112,6.874 16.656,7.493 23.53,1.38c6.874,-6.112 7.492,-16.655 1.38,-23.529c-47.432,-53.344 -117.796,-89.202 -188.839,-96.486c-25.108,-2.575 -51.398,-2.84 -76.548,-0.416c-8.087,0.779 -16.075,1.962 -24.026,3.631c-9.003,1.889 -14.778,10.731 -12.889,19.734c1.89,9.002 10.732,14.777 19.735,12.888Z" style="fill:#7e4021;"/><path d="M4315.2,181.968c-16.899,22.018 -41.998,69.757 -55.502,93.931c-49.616,88.821 -69.358,124.207 -98.756,221.739c-2.655,8.807 2.34,18.113 11.147,20.767c8.808,2.655 18.113,-2.34 20.768,-11.147c28.526,-94.636 47.799,-128.919 95.942,-215.103c12.906,-23.105 36.693,-68.848 52.844,-89.892c5.6,-7.297 4.223,-17.769 -3.074,-23.369c-7.297,-5.601 -17.769,-4.223 -23.369,3.074Z" style="fill:#7e4021;"/><path d="M2131.34,3753.71c-106.151,56.383 -343.425,46.359 -483.348,-61.543c-188.733,-145.541 -283.788,-300.489 -424.102,-456.938c-62.613,-69.813 -420.564,-578.051 -514.222,-568.441c-92.202,9.461 -638.744,548.492 -689.575,725.145c-23.596,82.001 107.878,420.997 447.855,382.351c322.335,-36.64 435.281,-449.547 438.19,-446.756c152.269,146.126 349.246,372.735 578.461,547.131c199.094,151.478 421.866,152.137 656.248,103.417" style="fill:#e4a57c;"/><path d="M912.78,3357.18c150.022,146.619 340.991,362.803 561.725,530.746c203.228,154.623 430.482,156.203 669.731,106.47c9.006,-1.872 14.798,-10.703 12.926,-19.709c-1.872,-9.007 -10.704,-14.798 -19.71,-12.926c-229.516,47.709 -447.804,47.97 -642.764,-100.363c-228.668,-173.979 -425.108,-400.116 -577.013,-545.892c-3.994,-3.832 -8.647,-5.215 -13.852,-4.499c-2.639,0.363 -6.385,1.357 -9.949,5.146c-0.729,0.775 -4.016,6.294 -7.705,16.606c-13.718,38.347 -61.608,172.973 -159.265,281.464c-63.868,70.953 -149.229,130.817 -260.842,143.504c-228.382,25.961 -358.62,-125.822 -408.501,-246.121c-20.375,-49.136 -27.929,-92.562 -21.455,-115.061c10.309,-35.825 42.091,-86.869 86.125,-145.583c105.808,-141.081 282.367,-323.941 418.471,-444.268c49.558,-43.814 93.68,-79.297 126.961,-101.248c19.386,-12.787 34.173,-21.097 43.703,-22.075c8.568,-0.879 19.489,5.25 33.122,14.48c26.068,17.65 58.257,48.085 93.567,85.698c141.217,150.428 329.623,413.973 373.424,462.811c140.997,157.21 236.681,312.759 426.332,459.008c86.713,66.869 209.521,97.679 317.658,98.781c73.001,0.744 139.277,-12.128 183.686,-35.717c8.124,-4.315 11.216,-14.413 6.901,-22.537c-4.315,-8.124 -14.414,-11.216 -22.537,-6.901c-40.512,21.518 -101.116,32.502 -167.71,31.823c-101.255,-1.031 -216.448,-29.232 -297.643,-91.845c-187.814,-144.833 -282.24,-299.18 -421.872,-454.868c-43.856,-48.9 -232.54,-312.75 -373.936,-463.369c-43.891,-46.754 -83.583,-82.732 -113.304,-99.225c-16.057,-8.91 -30.089,-12.427 -41.091,-11.298c-9.832,1.009 -24.242,6.573 -41.975,16.977c-35.532,20.846 -87.683,61.768 -147.365,114.532c-137.612,121.661 -316.078,306.596 -423.059,449.242c-47.162,62.883 -80.45,117.995 -91.491,156.364c-7.684,26.703 -1.485,78.73 22.696,137.047c54.076,130.414 195.472,294.617 443.058,266.473c100.545,-11.429 181.567,-57.92 245.713,-117.537c115.778,-107.603 175.966,-258.167 197.24,-316.13Z" style="fill:#7e4021;"/><path d="M923.767,3337.21c-0.614,-14.963 -0.16,-29.894 -1.165,-44.86c-2.378,-35.4 -7.804,-70.09 -16.104,-104.586c-2.152,-8.944 -11.16,-14.458 -20.103,-12.306c-8.943,2.152 -14.457,11.16 -12.305,20.103c7.858,32.662 13.002,65.506 15.254,99.023c0.985,14.676 0.515,29.319 1.117,43.992c0.377,9.191 8.145,16.347 17.336,15.97c9.191,-0.377 16.347,-8.145 15.97,-17.336Z" style="fill:#7e4021;"/><path d="M4251.61,2122.64c-374.784,-413.629 -944.135,-595.29 -1207.86,-639.329c-563.919,-94.169 -1012.98,-35.579 -1377.74,304.634c-185.197,172.734 -347.418,535.689 -364.942,759.002c-42.607,542.954 290.841,1067.45 935.35,1482.01c651.457,419.026 1729.32,644.154 2191.01,-85.658c422.274,-667.499 290.275,-1306.26 -175.815,-1820.66Z" style="fill:#fee4a8;"/><path d="M4263.96,2111.45c-377.785,-416.942 -951.628,-600.185 -1217.46,-644.577c-569.793,-95.15 -1023.29,-34.872 -1391.86,308.885c-187.854,175.212 -352.415,543.369 -370.19,769.886c-43.02,548.226 292.184,1078.75 942.95,1497.33c328.036,210.998 763.467,373.062 1174.97,390.62c414.647,17.691 804.88,-111.086 1039.14,-481.384c426.931,-674.862 293.682,-1320.68 -177.549,-1840.76l-0.001,-0Zm-24.701,22.382c460.949,508.726 591.697,1140.42 174.081,1800.56c-227.435,359.513 -606.978,483.078 -1009.55,465.902c-405.713,-17.311 -834.94,-177.323 -1158.36,-385.352c-638.252,-410.533 -969.943,-929.002 -927.75,-1466.69c17.272,-220.108 177.154,-577.862 359.694,-748.117c360.963,-336.67 805.584,-393.571 1363.63,-300.383c261.613,43.687 826.472,223.764 1198.25,634.081l0,0Z" style="fill:#7e4021;"/><path d="M1381.29,2221.77c7.411,12.642 20.165,35.309 24.472,49.3c10.563,34.321 15.241,70.564 18.243,106.231c6.769,80.439 30.356,118.956 58.946,152.793c25.969,30.735 56.948,56.958 82.174,112.671c3.794,8.38 13.677,12.102 22.057,8.308c8.38,-3.794 12.103,-13.677 8.308,-22.057c-21.745,-48.026 -47.176,-75.917 -70.852,-102.076c-31.993,-35.348 -60.255,-67.325 -67.417,-152.434c-3.2,-38.03 -8.337,-76.648 -19.601,-113.242c-4.908,-15.947 -19.126,-41.94 -27.572,-56.35c-4.652,-7.936 -14.871,-10.602 -22.807,-5.951c-7.936,4.652 -10.602,14.871 -5.951,22.807Z" style="fill:#7e4021;"/><path d="M1601.83,2708.76c12.718,52.416 45.279,107.226 84.637,143.442c6.769,6.229 17.321,5.79 23.55,-0.979c6.228,-6.769 5.79,-17.321 -0.979,-23.55c-34.786,-32.009 -63.574,-80.446 -74.814,-126.773c-2.169,-8.939 -11.188,-14.436 -20.127,-12.267c-8.939,2.169 -14.436,11.187 -12.267,20.127Z" style="fill:#7e4021;"/><path d="M2632.54,3589.02c11.385,7.661 25.418,12.809 39.783,17.8c11.754,4.085 23.774,8.049 33.907,14.408c45.997,28.869 85.876,62.434 128.523,89.981c44.928,29.02 92.843,51.505 152.945,56.586c9.166,0.775 17.237,-6.038 18.012,-15.203c0.775,-9.166 -6.038,-17.237 -15.204,-18.012c-54.154,-4.578 -97.185,-25.223 -137.668,-51.371c-42.764,-27.623 -82.764,-61.266 -128.888,-90.214c-12.199,-7.656 -26.535,-12.744 -40.687,-17.661c-11.543,-4.011 -22.966,-7.814 -32.115,-13.97c-7.632,-5.135 -17.997,-3.108 -23.132,4.524c-5.135,7.632 -3.108,17.997 4.524,23.132Z" style="fill:#7e4021;"/><path d="M3081.94,3742.85c-2.807,-0.589 -5.802,-0.456 -8.714,0.528c-7.852,2.653 -9.926,8.258 -10.794,11.567c-0.248,0.947 -2.065,18.319 14.113,20.813c3.487,0.538 23.165,2.605 28.678,3.469c16.572,2.597 33.063,5.688 49.626,8.345c9.083,1.457 17.64,-4.734 19.097,-13.816c1.457,-9.083 -4.734,-17.639 -13.817,-19.096c-16.603,-2.664 -33.134,-5.762 -49.746,-8.364c-5.149,-0.807 -25.651,-3.131 -28.443,-3.446Zm12.447,21.537c-1.588,4.803 -5.333,8.827 -10.489,10.569c7.105,-2.4 9.47,-7.223 10.489,-10.569Zm-4.975,-17.868c6.424,5.272 6.499,11.482 5.456,16.082c0.602,-2.824 0.474,-5.839 -0.516,-8.77c-0.995,-2.945 -2.735,-5.429 -4.94,-7.312Z" style="fill:#7e4021;"/><path d="M3774.15,3920.64c62.179,3.606 125.062,25.547 188.552,46.164c66.633,21.639 133.902,41.847 201.482,40.999c9.198,-0.115 16.571,-7.676 16.456,-16.874c-0.115,-9.198 -7.677,-16.572 -16.874,-16.456c-64.023,0.803 -127.643,-18.872 -190.769,-39.372c-66.27,-21.521 -132.015,-43.974 -196.917,-47.739c-9.183,-0.532 -17.071,6.491 -17.604,15.674c-0.533,9.183 6.491,17.071 15.674,17.604Z" style="fill:#7e4021;"/><path d="M4269.84,3995.18c48.269,-6.647 149.822,-46.597 175.915,-63.127c7.77,-4.922 10.083,-15.228 5.16,-22.998c-4.923,-7.771 -15.228,-10.083 -22.998,-5.16c-24.117,15.278 -118.011,52.12 -162.624,58.263c-9.113,1.255 -15.492,9.672 -14.237,18.785c1.255,9.112 9.672,15.492 18.784,14.237Z" style="fill:#7e4021;"/><path d="M4197.26,4197.99c44.406,-34.26 -571.964,341.306 -1753.77,-349.469c-1199.4,-701.062 -1133.83,-1411.04 -1142.42,-1301.58c-42.607,542.954 290.841,1067.45 935.35,1482.01c559.233,359.706 1432.68,576.527 1960.84,169.037Z" style="fill:#e4a57c;"/><path d="M4207.44,4211.19c6.602,-5.094 7.962,-10.089 8.291,-11.508c0.986,-4.254 0.275,-7.821 -1.082,-10.792c-1.534,-3.354 -4.059,-6.334 -8.238,-8.265c-1.723,-0.796 -4.181,-1.631 -7.539,-1.564c-1.435,0.028 -6.236,0.97 -13.933,3.892c-77.491,29.411 -677.937,267.9 -1733.04,-348.817c-1070.63,-625.793 -1126.29,-1257.63 -1132.67,-1298.82c-1.494,-9.647 -7.097,-13.062 -8.104,-13.695c-5.056,-3.176 -10.09,-3.341 -15.017,-1.401c-2.469,0.972 -7.509,3.204 -9.881,10.624c-0.364,1.14 -1.081,5.966 -1.775,14.804c-43.02,548.226 292.184,1078.75 942.95,1497.33c337.941,217.369 789.857,382.79 1212.18,391.813c283.478,6.056 553.626,-58.31 767.858,-223.597Zm-2892.88,-1539.02c67.745,227.473 300.593,711.488 1120.52,1190.74c870.584,508.864 1436.98,442.602 1661.35,383.696c-191.549,114.893 -419.128,159.915 -656.133,154.851c-416.32,-8.894 -861.722,-172.243 -1194.86,-386.522c-589.043,-378.881 -916.974,-849.696 -930.871,-1342.77Z" style="fill:#7e4021;"/><path d="M4251.61,2122.64c-374.784,-413.629 -944.135,-595.29 -1207.86,-639.329c-563.919,-94.169 -1012.98,-35.579 -1377.74,304.634c-94.139,87.803 -339.637,645.264 1162.74,1477.56c1385.17,767.366 1779.27,311.421 1799.71,240.832c146.658,-506.578 -13.677,-982.889 -376.844,-1383.7Z" style="fill:#e4a57c;"/><path d="M4263.96,2111.45c-377.785,-416.942 -951.628,-600.185 -1217.46,-644.577c-569.793,-95.15 -1023.29,-34.872 -1391.86,308.885c-39.535,36.875 -106.258,152.288 -69.027,333.867c53.623,261.522 326.308,667.026 1235.06,1170.46c837.649,464.047 1316.17,482.447 1569.04,408.981c121.508,-35.302 192.294,-91.994 226.875,-132.65c16.434,-19.32 25.059,-35.695 27.881,-45.443c148.317,-512.312 -13.225,-994.178 -380.503,-1399.52l-0.001,-0Zm-24.701,22.382c359.058,396.273 518.184,867.027 373.186,1367.87c-2.877,9.937 -14.759,28.123 -36.693,49.621c-36.076,35.36 -98.528,77.604 -195.344,105.732c-248.916,72.318 -719.03,50.664 -1543.59,-406.129c-746.156,-413.361 -1059.06,-757.561 -1172.94,-1010.24c-109.879,-243.783 -31.612,-398.486 13.497,-440.559c360.963,-336.67 805.584,-393.571 1363.63,-300.383c261.613,43.687 826.472,223.764 1198.25,634.081l0,-0Z" style="fill:#7e4021;"/><path d="M3092.2,4367.33c119.424,-13.604 277.027,63.971 367.73,215.61c122.342,204.535 154.067,383.526 227.359,580.484c32.706,87.889 179.726,691.893 270.4,717.24c89.264,24.954 795.209,-276.55 907.187,-422.326c51.979,-67.669 53.749,-431.263 -276.772,-519.773c-313.37,-83.918 -569.648,258.967 -571.332,255.305c-88.197,-191.729 -188.531,-474.721 -337.981,-720.929c-129.811,-213.854 -311.839,-357.63 -605.36,-316.025" style="fill:#e4a57c;"/><path d="M4021.45,5163.84c-85.925,-191.366 -184.484,-462.457 -328.405,-699.555c-133.296,-219.596 -320.543,-366.6 -621.946,-323.878c-9.107,1.291 -15.454,9.733 -14.163,18.841c1.291,9.107 9.734,15.453 18.841,14.162c285.639,-40.487 462.449,100.061 588.774,308.172c149.093,245.619 249.1,527.976 337.086,719.246c2.314,5.029 6.138,8.019 11.243,9.258c2.589,0.629 6.439,1.075 11.143,-1.146c0.962,-0.455 6.041,-4.387 13.249,-12.632c26.805,-30.662 120.659,-138.407 251.257,-203.611c85.411,-42.643 186.763,-67.098 295.271,-38.04c222.029,59.458 287.654,248.384 290.028,378.593c0.969,53.184 -7.9,96.361 -22.163,114.928c-22.708,29.563 -70.972,65.427 -133.445,103.942c-150.115,92.546 -381.364,198.067 -552.071,260.21c-62.159,22.627 -116.209,39.492 -155.215,47.734c-22.722,4.802 -39.525,7.121 -48.751,4.542c-8.295,-2.319 -16.214,-12.021 -25.521,-25.601c-17.796,-25.969 -36.607,-66.076 -55.694,-114.005c-76.337,-191.686 -155.172,-505.912 -178.051,-567.395c-73.649,-197.917 -105.739,-377.697 -228.677,-583.228c-94.537,-158.047 -259.448,-237.793 -383.919,-223.614c-9.14,1.041 -15.714,9.307 -14.673,18.446c1.041,9.14 9.306,15.715 18.446,14.674c114.377,-13.03 264.669,62.374 351.539,207.605c121.747,203.54 153.108,381.742 226.043,577.742c22.908,61.561 101.89,376.172 178.324,568.103c23.725,59.577 47.489,107.588 69.108,133.818c11.68,14.17 23.45,22.58 34.101,25.558c9.519,2.661 24.965,2.758 45.276,-0.431c40.698,-6.389 104.21,-25.376 179.066,-52.626c172.6,-62.831 406.383,-169.585 558.162,-263.158c66.91,-41.25 118.065,-80.347 142.387,-112.01c16.927,-22.037 30.206,-72.72 29.055,-135.842c-2.573,-141.157 -74.033,-345.727 -314.733,-410.184c-97.748,-26.176 -190.166,-12.577 -271.685,19.415c-147.135,57.743 -258.268,175.817 -299.287,221.967Z" style="fill:#7e4021;"/><path d="M4024.68,5160.25c-13.06,13.26 -40.963,58.978 -46.58,81.175c-2.256,8.918 3.152,17.989 12.07,20.246c8.918,2.256 17.989,-3.152 20.246,-12.07c4.568,-18.056 27.389,-55.174 38.012,-65.96c6.455,-6.553 6.375,-17.114 -0.178,-23.569c-6.554,-6.455 -17.115,-6.375 -23.57,0.178Z" style="fill:#7e4021;"/><path d="M4887.4,5511.05c77.498,-212.281 -35.069,-460.199 -188.358,-474.423c-265.725,-24.658 -258.283,268.588 -348.322,388.984c-148.317,198.321 -364.296,186.727 -410.486,344.388c-47.512,162.174 194.546,335.486 462.626,224.752c264.842,-109.397 423.791,-317.297 484.54,-483.701Z" style="fill:#fee4a8;"/><path d="M4903.06,5516.77c48.35,-132.44 25.444,-278.209 -34.959,-376.838c-41.745,-68.163 -101.42,-113.762 -167.515,-119.896c-141.858,-13.163 -210.998,58.191 -256.492,149.243c-42.148,84.354 -62.186,186.81 -106.718,246.355c-87.327,116.769 -198.922,158.884 -283.724,207.709c-61.581,35.454 -109.659,74.566 -129.408,141.975c-20.777,70.916 8.066,144.149 70.15,198.309c88.919,77.57 246.936,115.886 414.833,46.533c270.034,-111.542 431.893,-323.723 493.833,-493.39Zm-31.312,-11.431c-59.558,163.143 -215.597,366.76 -475.247,474.013c-153.799,63.529 -298.742,30.213 -380.194,-40.844c-51.499,-44.926 -77.308,-104.993 -60.074,-163.818c21.802,-74.419 84.843,-107.642 158.769,-146.914c80.161,-42.583 173.156,-90.672 249.069,-192.178c45.508,-60.852 66.768,-165.216 109.841,-251.42c39.725,-79.505 99.726,-142.445 223.594,-130.951c56.538,5.246 106.46,45.807 142.169,104.114c55.777,91.075 76.721,225.701 32.073,347.998Z" style="fill:#7e4021;"/><path d="M4589.19,3095.72c1.877,44.938 -8.88,173.09 -15.856,217.601c-1.425,9.088 4.797,17.622 13.885,19.047c9.087,1.424 17.622,-4.798 19.046,-13.885c7.186,-45.85 18.162,-177.864 16.229,-224.154c-0.384,-9.19 -8.157,-16.34 -17.347,-15.956c-9.191,0.383 -16.341,8.157 -15.957,17.347Z" style="fill:#7e4021;"/><path d="M4571.33,3390.69c-0.052,28.295 -15.311,65.416 -21.505,93.573c-1.977,8.984 3.712,17.882 12.696,19.858c8.984,1.977 17.882,-3.712 19.858,-12.696c6.653,-30.239 22.229,-70.288 22.284,-100.674c0.017,-9.199 -7.438,-16.681 -16.636,-16.697c-9.199,-0.017 -16.68,7.437 -16.697,16.636Z" style="fill:#7e4021;"/><path d="M2621.91,1619.13c-1.007,8.964 -9.103,15.424 -18.067,14.417c-8.964,-1.008 -15.425,-9.103 -14.417,-18.068c1.007,-8.964 9.103,-15.424 18.067,-14.417c8.964,1.008 15.424,9.103 14.417,18.068Z" style="fill:#fff;"/><path d="M3500.75,1926.04c-9.001,0.593 -16.79,-6.234 -17.382,-15.236c-0.592,-9.001 6.235,-16.79 15.236,-17.382c9.001,-0.592 16.79,6.235 17.382,15.236c0.592,9.001 -6.235,16.79 -15.236,17.382Z" style="fill:#fff;"/><path d="M3612.11,2225.18c-9.002,0.592 -16.79,-6.235 -17.383,-15.236c-0.592,-9.002 6.235,-16.79 15.236,-17.383c9.002,-0.592 16.79,6.235 17.383,15.236c0.592,9.002 -6.235,16.79 -15.236,17.383Z" style="fill:#fff;"/><path d="M3049.82,2144.19c-9.001,0.592 -16.79,-6.235 -17.382,-15.236c-0.593,-9.001 6.234,-16.79 15.236,-17.382c9.001,-0.592 16.79,6.235 17.382,15.236c0.592,9.001 -6.235,16.79 -15.236,17.382Z" style="fill:#fff;"/><path d="M3123.02,1582.91c2.495,8.668 11.559,13.681 20.228,11.185c8.669,-2.495 13.681,-11.559 11.185,-20.227c-2.495,-8.669 -11.559,-13.681 -20.227,-11.186c-8.669,2.495 -13.681,11.559 -11.186,20.228Z" style="fill:#fff;"/><path d="M2803.36,1947.65c2.496,8.669 11.559,13.681 20.228,11.186c8.669,-2.495 13.681,-11.559 11.186,-20.228c-2.496,-8.669 -11.559,-13.681 -20.228,-11.185c-8.669,2.495 -13.681,11.559 -11.186,20.227Z" style="fill:#fff;"/><path d="M2646.37,1539.5c-3.837,8.164 -13.58,11.676 -21.744,7.839c-8.164,-3.838 -11.677,-13.581 -7.839,-21.745c3.837,-8.164 13.58,-11.676 21.744,-7.839c8.164,3.838 11.677,13.581 7.839,21.745Z" style="fill:#fff;"/><path d="M3014.16,1694.55c-8.713,-2.335 -13.891,-11.305 -11.557,-20.018c2.335,-8.713 11.305,-13.892 20.018,-11.557c8.713,2.335 13.892,11.304 11.557,20.018c-2.335,8.713 -11.304,13.891 -20.018,11.557Z" style="fill:#fff;"/><path d="M2524.47,1743.91c-8.714,-2.334 -13.892,-11.304 -11.558,-20.017c2.335,-8.714 11.305,-13.892 20.018,-11.557c8.713,2.334 13.892,11.304 11.557,20.017c-2.334,8.714 -11.304,13.892 -20.017,11.557Z" style="fill:#fff;"/><path d="M3162.94,1728.44c5.151,7.405 15.346,9.235 22.751,4.084c7.405,-5.151 9.235,-15.345 4.084,-22.75c-5.151,-7.406 -15.345,-9.236 -22.751,-4.085c-7.405,5.152 -9.235,15.346 -4.084,22.751Z" style="fill:#fff;"/><path d="M4110.34,2084.13c-7.135,-12.658 -2.651,-28.728 10.008,-35.863c12.659,-7.135 28.728,-2.65 35.863,10.009c7.135,12.658 2.65,28.728 -10.008,35.863c-12.659,7.135 -28.729,2.65 -35.863,-10.009Z" style="fill:#fff;"/><path d="M2967.78,1966.25c-7.134,-12.658 -2.65,-28.728 10.009,-35.863c12.659,-7.135 28.728,-2.65 35.863,10.009c7.135,12.658 2.65,28.728 -10.008,35.863c-12.659,7.134 -28.729,2.65 -35.864,-10.009Z" style="fill:#fff;"/><path d="M3585.39,1745.87c-7.135,-12.659 -2.65,-28.729 10.009,-35.863c12.658,-7.135 28.728,-2.65 35.863,10.008c7.134,12.659 2.65,28.728 -10.009,35.863c-12.659,7.135 -28.728,2.65 -35.863,-10.008Z" style="fill:#fff;"/><path d="M3696.74,2045.01c-7.135,-12.659 -2.651,-28.728 10.008,-35.863c12.659,-7.135 28.728,-2.65 35.863,10.008c7.135,12.659 2.65,28.729 -10.008,35.864c-12.659,7.134 -28.729,2.65 -35.863,-10.009Z" style="fill:#fff;"/><path d="M2528.62,1495.57c3.647,14.065 -4.812,28.446 -18.878,32.093c-14.066,3.647 -28.446,-4.812 -32.093,-18.878c-3.647,-14.066 4.812,-28.446 18.877,-32.093c14.066,-3.647 28.447,4.812 32.094,18.878Z" style="fill:#fff;"/><path d="M2849.46,1599.81c-7.135,-12.659 -2.65,-28.729 10.008,-35.863c12.659,-7.135 28.729,-2.651 35.863,10.008c7.135,12.659 2.651,28.728 -10.008,35.863c-12.659,7.135 -28.728,2.65 -35.863,-10.008Z" style="fill:#fff;"/><path d="M2980.7,1554.64c-7.134,-12.659 -2.65,-28.728 10.009,-35.863c12.659,-7.135 28.728,-2.65 35.863,10.008c7.135,12.659 2.65,28.729 -10.008,35.863c-12.659,7.135 -28.729,2.65 -35.864,-10.008Z" style="fill:#fff;"/><path d="M2638.09,1773.39c-7.135,-12.659 -2.651,-28.729 10.008,-35.863c12.659,-7.135 28.728,-2.65 35.863,10.008c7.135,12.659 2.65,28.729 -10.008,35.863c-12.659,7.135 -28.729,2.65 -35.863,-10.008Z" style="fill:#fff;"/><path d="M3272.74,1603.91c-7.135,-12.659 -2.651,-28.729 10.008,-35.863c12.659,-7.135 28.728,-2.651 35.863,10.008c7.135,12.659 2.65,28.728 -10.008,35.863c-12.659,7.135 -28.729,2.65 -35.863,-10.008Z" style="fill:#fff;"/><path d="M3519.93,2103.13c-7.135,-12.658 -2.651,-28.728 10.008,-35.863c12.659,-7.135 28.728,-2.65 35.863,10.009c7.135,12.658 2.65,28.728 -10.008,35.863c-12.659,7.134 -28.729,2.65 -35.863,-10.009Z" style="fill:#fff;"/><path d="M2929.85,2354.46c-7.135,-12.659 -2.65,-28.729 10.008,-35.863c12.659,-7.135 28.729,-2.651 35.864,10.008c7.134,12.659 2.65,28.728 -10.009,35.863c-12.659,7.135 -28.728,2.65 -35.863,-10.008Z" style="fill:#fff;"/><path d="M3766.31,1841.01c-7.134,-12.658 -2.65,-28.728 10.009,-35.863c12.658,-7.135 28.728,-2.65 35.863,10.009c7.135,12.658 2.65,28.728 -10.009,35.863c-12.658,7.135 -28.728,2.65 -35.863,-10.009Z" style="fill:#fff;"/><path d="M3877.66,2140.15c-7.135,-12.659 -2.65,-28.729 10.008,-35.863c12.659,-7.135 28.729,-2.651 35.864,10.008c7.134,12.659 2.65,28.728 -10.009,35.863c-12.659,7.135 -28.728,2.65 -35.863,-10.008Z" style="fill:#fff;"/><path d="M3463.82,1776.98c-7.135,-12.659 -2.65,-28.729 10.008,-35.863c12.659,-7.135 28.729,-2.651 35.863,10.008c7.135,12.659 2.65,28.728 -10.008,35.863c-12.659,7.135 -28.728,2.65 -35.863,-10.008Z" style="fill:#fff;"/><path d="M3777.91,1978.17c-7.135,-12.659 -2.65,-28.729 10.009,-35.864c12.658,-7.134 28.728,-2.65 35.863,10.009c7.134,12.659 2.65,28.728 -10.009,35.863c-12.658,7.135 -28.728,2.65 -35.863,-10.008Z" style="fill:#fff;"/><path d="M3889.27,2277.31c-7.135,-12.659 -2.65,-28.728 10.008,-35.863c12.659,-7.135 28.729,-2.65 35.863,10.008c7.135,12.659 2.65,28.729 -10.008,35.863c-12.659,7.135 -28.729,2.65 -35.863,-10.008Z" style="fill:#fff;"/><path d="M3097.19,1903.37c-7.135,-12.658 -2.65,-28.728 10.009,-35.863c12.658,-7.135 28.728,-2.65 35.863,10.009c7.134,12.658 2.65,28.728 -10.009,35.863c-12.658,7.134 -28.728,2.65 -35.863,-10.009Z" style="fill:#fff;"/><path d="M2796.68,1823.54c-7.135,-12.658 -2.65,-28.728 10.008,-35.863c12.659,-7.135 28.729,-2.65 35.863,10.009c7.135,12.658 2.65,28.728 -10.008,35.863c-12.659,7.135 -28.728,2.65 -35.863,-10.009Z" style="fill:#fff;"/><path d="M2889.35,1775.88c-7.135,-12.659 -2.65,-28.729 10.008,-35.863c12.659,-7.135 28.729,-2.651 35.864,10.008c7.134,12.659 2.65,28.728 -10.009,35.863c-12.659,7.135 -28.728,2.65 -35.863,-10.008Z" style="fill:#fff;"/><path d="M2269.65,1790.84c-7.135,-12.659 -2.65,-28.729 10.009,-35.864c12.658,-7.134 28.728,-2.65 35.863,10.009c7.135,12.659 2.65,28.728 -10.009,35.863c-12.658,7.135 -28.728,2.65 -35.863,-10.008Z" style="fill:#fff;"/><path d="M3601.86,1969.34c-9.169,-11.273 -7.46,-27.869 3.813,-37.038c11.273,-9.168 27.87,-7.459 37.038,3.814c9.168,11.273 7.46,27.869 -3.814,37.038c-11.273,9.168 -27.869,7.459 -37.037,-3.814Z" style="fill:#fff;"/><path d="M3738.63,2283.77c-9.168,-11.273 -7.459,-27.869 3.814,-37.038c11.273,-9.168 27.869,-7.459 37.037,3.814c9.169,11.273 7.46,27.869 -3.813,37.038c-11.273,9.168 -27.869,7.459 -37.038,-3.814Z" style="fill:#fff;"/><path d="M2715.78,2014.76c-9.168,-11.273 -7.459,-27.869 3.814,-37.037c11.273,-9.169 27.869,-7.46 37.038,3.813c9.168,11.273 7.459,27.869 -3.814,37.038c-11.273,9.168 -27.869,7.46 -37.038,-3.814Z" style="fill:#fff;"/><path d="M3658.21,1831.19c-1.593,8.879 4.321,17.381 13.2,18.975c8.878,1.594 17.381,-4.32 18.975,-13.199c1.594,-8.879 -4.321,-17.381 -13.199,-18.975c-8.879,-1.594 -17.382,4.32 -18.976,13.199Z" style="fill:#fff;"/><path d="M3769.57,2130.33c-1.594,8.879 4.321,17.381 13.199,18.975c8.879,1.594 17.382,-4.32 18.976,-13.199c1.593,-8.879 -4.321,-17.381 -13.2,-18.975c-8.879,-1.594 -17.381,4.32 -18.975,13.199Z" style="fill:#fff;"/><path d="M3866.31,2023.46c-1.594,8.878 4.321,17.381 13.199,18.975c8.879,1.594 17.382,-4.321 18.976,-13.199c1.594,-8.879 -4.321,-17.382 -13.2,-18.976c-8.878,-1.593 -17.381,4.321 -18.975,13.2Z" style="fill:#fff;"/><path d="M2371.02,1878.79c-1.594,8.879 4.32,17.382 13.199,18.975c8.879,1.594 17.381,-4.32 18.975,-13.199c1.594,-8.879 -4.321,-17.381 -13.199,-18.975c-8.879,-1.594 -17.382,4.321 -18.975,13.199Z" style="fill:#fff;"/><path d="M2754.2,1524.17c-3.837,8.164 -13.581,11.676 -21.744,7.839c-8.164,-3.837 -11.677,-13.581 -7.839,-21.745c3.837,-8.164 13.58,-11.676 21.744,-7.839c8.164,3.838 11.677,13.581 7.839,21.745Z" style="fill:#fff;"/><path d="M3470.55,1676c5.151,7.405 15.345,9.235 22.751,4.084c7.405,-5.151 9.235,-15.346 4.084,-22.751c-5.151,-7.405 -15.346,-9.235 -22.751,-4.084c-7.405,5.151 -9.235,15.345 -4.084,22.751Z" style="fill:#fff;"/><path d="M3149.06,2024.17c-7.405,5.151 -9.235,15.345 -4.084,22.751c5.151,7.405 15.345,9.235 22.751,4.084c7.405,-5.151 9.235,-15.346 4.084,-22.751c-5.151,-7.405 -15.346,-9.235 -22.751,-4.084Z" style="fill:#fff;"/><path d="M3811.51,2328.95c-7.405,5.151 -9.235,15.345 -4.084,22.75c5.151,7.406 15.346,9.236 22.751,4.085c7.405,-5.151 9.235,-15.346 4.084,-22.751c-5.151,-7.405 -15.345,-9.235 -22.751,-4.084Z" style="fill:#fff;"/><path d="M3194.2,2171.19c-7.405,5.152 -9.236,15.346 -4.084,22.751c5.151,7.406 15.345,9.236 22.75,4.084c7.406,-5.151 9.236,-15.345 4.085,-22.75c-5.152,-7.406 -15.346,-9.236 -22.751,-4.085Z" style="fill:#fff;"/><path d="M3322.86,1703.25c-8.713,-2.334 -13.892,-11.304 -11.557,-20.017c2.335,-8.714 11.304,-13.892 20.018,-11.558c8.713,2.335 13.891,11.305 11.557,20.018c-2.335,8.714 -11.305,13.892 -20.018,11.557Z" style="fill:#fff;"/><path d="M3544.39,1977.5c2.335,-8.714 11.305,-13.892 20.018,-11.557c8.713,2.334 13.892,11.304 11.557,20.017c-2.335,8.714 -11.304,13.892 -20.017,11.557c-8.714,-2.334 -13.892,-11.304 -11.558,-20.017Z" style="fill:#fff;"/><path d="M2555.91,1890.53c2.335,-8.713 11.305,-13.891 20.018,-11.557c8.713,2.335 13.892,11.305 11.557,20.018c-2.335,8.713 -11.304,13.892 -20.018,11.557c-8.713,-2.335 -13.891,-11.304 -11.557,-20.018Z" style="fill:#fff;"/><path d="M3582.73,2311.68c2.335,-8.713 11.305,-13.892 20.018,-11.557c8.713,2.335 13.892,11.304 11.557,20.018c-2.335,8.713 -11.304,13.892 -20.018,11.557c-8.713,-2.335 -13.892,-11.304 -11.557,-20.018Z" style="fill:#fff;"/><path d="M3020.44,2230.69c2.335,-8.714 11.305,-13.892 20.018,-11.558c8.713,2.335 13.892,11.305 11.557,20.018c-2.334,8.713 -11.304,13.892 -20.017,11.557c-8.714,-2.334 -13.892,-11.304 -11.558,-20.017Z" style="fill:#fff;"/><path d="M4045.46,2268.66c-7.405,5.151 -9.236,15.345 -4.084,22.751c5.151,7.405 15.345,9.235 22.75,4.084c7.406,-5.151 9.236,-15.345 4.085,-22.751c-5.152,-7.405 -15.346,-9.235 -22.751,-4.084Z" style="fill:#fff;"/><path d="M2781.07,2338.08c-7.405,5.152 -9.236,15.346 -4.084,22.751c5.151,7.406 15.345,9.236 22.75,4.084c7.406,-5.151 9.236,-15.345 4.085,-22.75c-5.152,-7.406 -15.346,-9.236 -22.751,-4.085Z" style="fill:#fff;"/><path d="M4245.98,2227.76c-7.405,5.151 -9.235,15.345 -4.084,22.75c5.151,7.406 15.345,9.236 22.751,4.085c7.405,-5.151 9.235,-15.346 4.084,-22.751c-5.151,-7.405 -15.346,-9.235 -22.751,-4.084Z" style="fill:#fff;"/><path d="M3945.8,1910.52c-3.837,8.164 -13.58,11.676 -21.744,7.839c-8.164,-3.837 -11.677,-13.581 -7.839,-21.744c3.837,-8.164 13.581,-11.677 21.744,-7.839c8.164,3.837 11.677,13.58 7.839,21.744Z" style="fill:#fff;"/><path d="M3685.13,2089.99c-3.838,8.164 -13.581,11.677 -21.745,7.839c-8.164,-3.837 -11.676,-13.58 -7.839,-21.744c3.837,-8.164 13.581,-11.677 21.745,-7.839c8.163,3.837 11.676,13.581 7.839,21.744Z" style="fill:#fff;"/><path d="M3389.69,2013.83c-6.892,-5.82 -7.763,-16.14 -1.944,-23.033c5.82,-6.892 16.14,-7.763 23.033,-1.944c6.892,5.82 7.763,16.141 1.944,23.033c-5.82,6.892 -16.14,7.764 -23.033,1.944Z" style="fill:#fff;"/><path d="M2146.39,1606.77c-6.892,-5.82 -7.763,-16.14 -1.944,-23.033c5.82,-6.892 16.14,-7.763 23.033,-1.944c6.892,5.82 7.763,16.14 1.944,23.033c-5.82,6.892 -16.14,7.763 -23.033,1.944Z" style="fill:#fff;"/><path d="M2688.36,2120.02c7.405,-5.151 17.599,-3.322 22.751,4.084c5.151,7.405 3.321,17.599 -4.084,22.751c-7.405,5.151 -17.599,3.321 -22.751,-4.084c-5.151,-7.405 -3.322,-17.599 4.084,-22.751Z" style="fill:#fff;"/><path d="M3396.83,2174.97c7.405,-5.152 17.599,-3.322 22.751,4.083c5.151,7.405 3.321,17.6 -4.084,22.751c-7.405,5.152 -17.599,3.322 -22.751,-4.083c-5.151,-7.405 -3.321,-17.6 4.084,-22.751Z" style="fill:#fff;"/><path d="M2834.54,2093.97c7.405,-5.151 17.599,-3.321 22.751,4.084c5.151,7.405 3.322,17.599 -4.084,22.751c-7.405,5.151 -17.599,3.321 -22.751,-4.084c-5.151,-7.405 -3.321,-17.599 4.084,-22.751Z" style="fill:#fff;"/><path d="M2915.17,2147.47c7.405,-5.152 17.6,-3.322 22.751,4.083c5.152,7.406 3.322,17.6 -4.083,22.751c-7.405,5.152 -17.6,3.322 -22.751,-4.083c-5.152,-7.405 -3.322,-17.6 4.083,-22.751Z" style="fill:#fff;"/><path d="M3268.88,2281.08c7.405,-5.151 17.599,-3.321 22.75,4.084c5.152,7.405 3.322,17.599 -4.083,22.751c-7.405,5.151 -17.6,3.321 -22.751,-4.084c-5.151,-7.405 -3.322,-17.599 4.084,-22.751Z" style="fill:#fff;"/><path d="M3900.59,2372.03c7.405,-5.151 17.6,-3.322 22.751,4.084c5.151,7.405 3.322,17.599 -4.084,22.75c-7.405,5.152 -17.599,3.322 -22.75,-4.083c-5.152,-7.405 -3.322,-17.6 4.083,-22.751Z" style="fill:#fff;"/><path d="M2880.85,2212.77c7.405,-5.151 17.599,-3.321 22.75,4.084c5.152,7.405 3.322,17.599 -4.083,22.751c-7.405,5.151 -17.6,3.321 -22.751,-4.084c-5.151,-7.405 -3.322,-17.599 4.084,-22.751Z" style="fill:#fff;"/><path d="M2148.48,1637.04c7.405,-5.151 17.599,-3.321 22.751,4.084c5.151,7.405 3.321,17.599 -4.084,22.751c-7.405,5.151 -17.599,3.321 -22.751,-4.084c-5.151,-7.405 -3.321,-17.599 4.084,-22.751Z" style="fill:#fff;"/><path d="M3089.31,2446.77c7.406,-5.152 17.6,-3.322 22.751,4.083c5.152,7.405 3.322,17.6 -4.083,22.751c-7.405,5.152 -17.6,3.322 -22.751,-4.083c-5.151,-7.405 -3.322,-17.6 4.083,-22.751Z" style="fill:#fff;"/><path d="M2390.74,1556.22c7.406,-5.151 17.6,-3.322 22.751,4.084c5.152,7.405 3.322,17.599 -4.083,22.75c-7.405,5.152 -17.6,3.322 -22.751,-4.083c-5.151,-7.405 -3.322,-17.6 4.083,-22.751Z" style="fill:#fff;"/><path d="M4057.16,2209.66c-3.837,8.164 -13.581,11.677 -21.745,7.839c-8.163,-3.837 -11.676,-13.58 -7.839,-21.744c3.838,-8.164 13.581,-11.677 21.745,-7.839c8.164,3.837 11.676,13.581 7.839,21.744Z" style="fill:#fff;"/><path d="M3291.39,1802.45c5.151,7.406 15.345,9.236 22.751,4.085c7.405,-5.152 9.235,-15.346 4.084,-22.751c-5.151,-7.405 -15.346,-9.235 -22.751,-4.084c-7.405,5.151 -9.235,15.345 -4.084,22.75Z" style="fill:#fff;"/><path d="M3429.04,1888.61c-7.405,5.151 -9.235,15.345 -4.084,22.751c5.151,7.405 15.345,9.235 22.751,4.084c7.405,-5.151 9.235,-15.346 4.084,-22.751c-5.151,-7.405 -15.346,-9.235 -22.751,-4.084Z" style="fill:#fff;"/><path d="M3727.03,1933.68c-7.405,5.151 -9.235,15.345 -4.084,22.75c5.151,7.406 15.345,9.236 22.751,4.084c7.405,-5.151 9.235,-15.345 4.084,-22.75c-5.151,-7.406 -15.346,-9.236 -22.751,-4.084Z" style="fill:#fff;"/><path d="M3437.1,2085.91c-7.405,5.151 -9.235,15.345 -4.084,22.751c5.151,7.405 15.345,9.235 22.751,4.084c7.405,-5.151 9.235,-15.346 4.084,-22.751c-5.151,-7.405 -15.346,-9.235 -22.751,-4.084Z" style="fill:#fff;"/><path d="M3587.83,1864.72c-7.406,5.152 -9.236,15.346 -4.085,22.751c5.152,7.405 15.346,9.235 22.751,4.084c7.405,-5.151 9.236,-15.345 4.084,-22.75c-5.151,-7.406 -15.345,-9.236 -22.75,-4.085Z" style="fill:#fff;"/><path d="M2794.51,1642.92c-7.405,5.151 -9.235,15.345 -4.084,22.75c5.151,7.406 15.345,9.236 22.751,4.084c7.405,-5.151 9.235,-15.345 4.084,-22.75c-5.151,-7.406 -15.346,-9.236 -22.751,-4.084Z" style="fill:#fff;"/><path d="M2432.41,2057.22c-7.405,5.151 -9.235,15.345 -4.084,22.75c5.151,7.406 15.345,9.236 22.751,4.085c7.405,-5.152 9.235,-15.346 4.084,-22.751c-5.151,-7.405 -15.346,-9.235 -22.751,-4.084Z" style="fill:#fff;"/><path d="M2993.83,1852.61c-8.713,-2.335 -13.892,-11.305 -11.557,-20.018c2.334,-8.714 11.304,-13.892 20.017,-11.557c8.714,2.334 13.892,11.304 11.558,20.017c-2.335,8.714 -11.305,13.892 -20.018,11.558Z" style="fill:#fff;"/><path d="M2383.4,1641.36c-8.713,-2.335 -13.892,-11.304 -11.557,-20.018c2.335,-8.713 11.304,-13.892 20.018,-11.557c8.713,2.335 13.892,11.305 11.557,20.018c-2.335,8.713 -11.305,13.892 -20.018,11.557Z" style="fill:#fff;"/><path d="M3248.72,1696.84c5.151,7.405 15.345,9.235 22.751,4.084c7.405,-5.151 9.235,-15.346 4.084,-22.751c-5.151,-7.405 -15.345,-9.235 -22.751,-4.084c-7.405,5.151 -9.235,15.345 -4.084,22.751Z" style="fill:#fff;"/><path d="M3806.11,2196.74c-7.406,5.151 -9.236,15.345 -4.085,22.751c5.152,7.405 15.346,9.235 22.751,4.084c7.406,-5.151 9.236,-15.346 4.084,-22.751c-5.151,-7.405 -15.345,-9.235 -22.75,-4.084Z" style="fill:#fff;"/><path d="M3824.5,2085.18c-7.405,5.151 -9.236,15.346 -4.084,22.751c5.151,7.405 15.345,9.235 22.75,4.084c7.406,-5.151 9.236,-15.345 4.085,-22.751c-5.152,-7.405 -15.346,-9.235 -22.751,-4.084Z" style="fill:#fff;"/><path d="M3127.01,1806.27c-7.406,5.151 -9.236,15.346 -4.085,22.751c5.152,7.405 15.346,9.235 22.751,4.084c7.405,-5.151 9.235,-15.345 4.084,-22.751c-5.151,-7.405 -15.345,-9.235 -22.75,-4.084Z" style="fill:#fff;"/><path d="M3964.28,2042.02c-7.405,5.151 -9.235,15.345 -4.084,22.75c5.151,7.406 15.345,9.236 22.751,4.084c7.405,-5.151 9.235,-15.345 4.084,-22.75c-5.151,-7.406 -15.346,-9.236 -22.751,-4.084Z" style="fill:#fff;"/><path d="M3419.34,1811.49c-3.059,-8.486 -12.432,-12.892 -20.918,-9.833c-8.486,3.059 -12.893,12.432 -9.834,20.918c3.059,8.486 12.433,12.893 20.919,9.834c8.486,-3.059 12.892,-12.433 9.833,-20.919Z" style="fill:#fff;"/><path d="M3249.99,1912.52c8.486,-3.059 12.892,-12.432 9.833,-20.919c-3.059,-8.486 -12.432,-12.892 -20.918,-9.833c-8.486,3.059 -12.892,12.432 -9.833,20.918c3.059,8.487 12.432,12.893 20.918,9.834Z" style="fill:#fff;"/><path d="M3300.39,2077.88c8.989,-0.758 15.671,-8.672 14.913,-17.661c-0.759,-8.988 -8.672,-15.67 -17.661,-14.912c-8.989,0.758 -15.671,8.672 -14.912,17.661c0.758,8.988 8.671,15.67 17.66,14.912Z" style="fill:#fff;"/><path d="M2057.1,1670.82c8.989,-0.759 15.671,-8.672 14.913,-17.661c-0.759,-8.989 -8.672,-15.671 -17.661,-14.912c-8.989,0.758 -15.671,8.672 -14.912,17.66c0.758,8.989 8.671,15.671 17.66,14.913Z" style="fill:#fff;"/><path d="M2217.46,3291.69c-248.904,-192.073 29.767,-337.918 -18.48,-528.203c-38.383,-151.38 -185.579,-237.506 -241.647,-378.287c-55.094,-138.338 -1.731,-258.509 -19.451,-395.722c-17.252,-133.591 -206.905,-188.836 -275.357,-293.387c-84.361,-128.85 24.694,-214.327 4.116,-340.822c-9.364,-57.565 -75.681,-89.599 -83.164,-149.709c-4.011,-32.216 34.049,-78.092 87.136,-55.373c249.972,106.98 71.59,329.375 203.752,469.824c51.195,54.404 119.697,89.67 166.086,149.391c131.65,169.488 2.693,330.057 62.569,509.808c46.029,138.182 204.298,207.309 257.507,350.608c5.346,14.397 9.815,29.041 13.377,43.98c39.406,165.265 -68.382,301.668 -47.062,462.378" style="fill:#fee4a8;"/><path d="M2227.64,3278.49c-55.825,-43.079 -83.828,-83.228 -93.896,-122.502c-15.213,-59.348 10.131,-115.463 36.082,-172.823c32.168,-71.102 65.577,-143.836 45.307,-223.779c-19.824,-78.188 -67.359,-139.754 -117.568,-199.721c-47.466,-56.692 -97.373,-111.895 -124.75,-180.637c-26.534,-66.625 -26.677,-128.908 -22.594,-191.023c4.308,-65.539 13.193,-130.939 4.189,-200.666c-9.19,-71.161 -63.086,-122.358 -125.011,-168.784c-56.519,-42.375 -119.652,-80.768 -152.932,-131.599c-38.866,-59.361 -32.731,-108.788 -19.696,-157.888c14.717,-55.439 37.023,-110.679 26.319,-176.48c-5.158,-31.706 -25.283,-56.786 -45.866,-81.811c-16.68,-20.28 -33.87,-40.451 -37.21,-67.281c-2.892,-23.235 25.752,-54.377 64.04,-37.991c46.649,19.964 77.493,43.985 97.683,71.092c30.34,40.735 36.495,88.024 38.273,136.556c1.606,43.812 -0.441,88.681 5.4,131.488c6.222,45.606 21.169,88.905 56.816,126.787c50.836,54.023 118.997,88.89 165.061,148.193c62.675,80.689 62.678,159.402 54.776,239.189c-8.52,86.039 -25.596,173.383 5.143,265.662c23.826,71.529 76.227,125.53 130.033,179.848c50.319,50.799 101.903,101.923 127.662,171.295c5.111,13.763 9.384,27.762 12.789,42.044c19.026,79.793 2.019,152.582 -16.672,224.858c-19.889,76.905 -41.653,153.283 -30.7,235.846c1.21,9.119 9.595,15.54 18.714,14.33c9.118,-1.209 15.54,-9.595 14.33,-18.713c-10.367,-78.148 11.103,-150.326 29.927,-223.117c20.022,-77.42 37.205,-155.464 16.825,-240.935c-3.719,-15.597 -8.383,-30.886 -13.964,-45.916c-27.451,-73.928 -81.605,-129.016 -135.23,-183.151c-50.139,-50.616 -99.887,-100.269 -122.09,-166.923c-29.137,-87.472 -11.672,-170.287 -3.596,-251.843c8.696,-87.808 7.353,-174.122 -61.623,-262.922c-46.713,-60.139 -115.557,-95.804 -167.11,-150.589c-30.435,-32.343 -42.751,-69.511 -48.064,-108.449c-5.695,-41.736 -3.55,-85.487 -5.116,-128.202c-2.026,-55.301 -10.28,-108.832 -44.851,-155.248c-23.086,-30.994 -57.961,-58.997 -111.301,-81.825c-67.915,-29.065 -115.364,31.54 -110.233,72.754c4.144,33.283 23.852,59.179 44.544,84.337c16.789,20.413 34.502,40.127 38.709,65.989c9.873,60.694 -12.06,111.439 -25.635,162.575c-15.259,57.476 -21.471,115.211 24.025,184.7c35.172,53.721 101.091,95.226 160.825,140.01c54.331,40.734 103.884,83.948 111.947,146.383c8.715,67.486 -0.222,130.777 -4.392,194.211c-4.395,66.858 -3.672,133.829 24.888,205.542c28.691,72.041 80.416,130.291 130.16,189.703c47.002,56.136 92.257,113.322 110.815,186.514c11.205,44.191 3.047,85.769 -11.307,126.115c-15.402,43.295 -37.882,85.224 -54.092,127.218c-17.472,45.264 -27.697,90.654 -17.349,137.56c10.273,46.569 40.825,95.187 107.202,146.408c7.282,5.62 17.757,4.27 23.377,-3.012c5.619,-7.283 4.269,-17.758 -3.013,-23.377Z" style="fill:#7e4021;"/><path d="M1471.21,1228.73c-7.104,-27.369 47.941,-152.791 179.552,-190.061c16.977,-4.808 41.507,0.534 54.346,13.32c3.506,3.491 6.006,7.702 7.588,12.422c13.17,39.297 -4.339,92.035 -46.355,143.197c-46.285,56.359 -170.852,114.669 -195.131,21.122Z" style="fill:#fff;"/><path d="M1455.08,1232.91c6.079,23.423 17.594,38.974 31.929,48.728c14.32,9.744 31.783,13.777 50.777,12.944c49.766,-2.182 111.104,-39.469 141.437,-76.404c46.487,-56.606 63.85,-115.592 49.278,-159.07c-2.415,-7.205 -6.278,-13.606 -11.631,-18.936c-16.702,-16.633 -48.561,-23.801 -70.647,-17.546c-97.956,27.739 -155.982,101.451 -179.415,153.136c-11.643,25.683 -14.356,47.026 -11.728,57.148Zm32.264,-8.374c-0.425,-1.637 -0.019,-3.962 0.461,-6.846c1.26,-7.573 4.418,-17.257 9.362,-28.164c20.644,-45.535 71.839,-110.389 158.138,-134.828c11.868,-3.361 29.069,0.156 38.044,9.093c1.66,1.653 2.798,3.675 3.546,5.909c11.772,35.123 -5.879,81.595 -43.432,127.323c-21.204,25.819 -60.342,52.081 -96.957,61.179c-18.935,4.704 -37.181,5.107 -50.745,-4.122c-8.566,-5.83 -14.784,-15.546 -18.417,-29.544Z" style="fill:#7e4021;"/><path d="M1385.09,1217.57c-80.285,-23.954 -133.37,-134.708 -243.39,-164.648c-67.037,-18.242 -95.265,-28.286 -167.957,-39.495c-78.091,-12.04 -109.606,-78.235 -103.017,-109.438c11.837,-56.055 71.418,-64.595 69.362,-68.339c-38.138,-19.531 -54.652,-59.752 -41.583,-99.32c23.526,-71.23 96.851,-57.374 98.159,-59.527c-24.608,-37.361 -59.441,-75.088 -27.597,-117.168c31.5,-41.623 70.412,-37.811 116.139,-16.62c-56.965,-41.559 -58.559,-99.186 -16.409,-127.499c92.876,-62.385 287.586,215.996 408.499,250.043c77.012,21.686 -29.154,-204.793 76.643,-209.696c122.878,-5.696 124.934,277.598 123.941,388.496c-1.235,137.866 31.361,230.348 -85.982,331.426c-41.11,35.411 -121.706,67.177 -206.808,41.785Z" style="fill:#fff;"/><path d="M966.251,661.679c-27.724,3.785 -66.566,17.93 -83.572,69.42c-12.487,37.805 -2.586,76.146 25.04,102.06c-19.705,11.389 -45.963,32.636 -53.3,67.382c-2.505,11.862 -1.133,27.772 5.343,44.564c13.54,35.109 49.378,75.221 111.442,84.791c71.9,11.086 99.812,21.06 166.12,39.104c52.231,14.214 90.691,48.011 125.878,80.698c39.105,36.325 74.764,71.201 117.122,83.839c91.554,27.316 178.225,-7.033 222.451,-45.129c75.015,-64.617 92.474,-125.958 94.758,-196.403c1.433,-44.195 -3.483,-92.208 -2.987,-147.5c0.711,-79.402 -0.789,-245.117 -44.453,-335.455c-21.601,-44.691 -53.403,-71.857 -96.926,-69.84c-33.842,1.568 -51.541,19.982 -60.118,46.916c-10.182,31.974 -5.005,78.814 -2.61,117.428c0.708,11.412 1.116,22.012 0.508,31.042c-0.46,6.84 -0.74,12.564 -3.585,15.845c-0.188,0.218 -0.506,-0.083 -0.857,-0.092c-1.404,-0.038 -2.957,-0.348 -4.692,-0.836c-32.115,-9.043 -69.417,-36.729 -108.851,-69.93c-62.89,-52.95 -130.241,-120.125 -188.768,-158.001c-22.621,-14.639 -44.129,-25.015 -63.689,-29.383c-22.769,-5.084 -43.301,-2.412 -61.001,9.477c-26.569,17.847 -39.096,45.058 -36.259,74.231c1.118,11.501 4.728,23.44 11.075,35.231c-9.754,-0.661 -19.144,0.079 -28.151,2.434c-18.126,4.741 -35.098,15.793 -50.392,36.002c-20.225,26.725 -19.452,52.047 -9.539,76.641c4.826,11.976 12.158,23.778 20.013,35.464Zm423.604,539.916c-37.928,-11.316 -68.952,-43.793 -103.966,-76.319c-38.932,-36.165 -82.023,-72.714 -139.813,-88.44c-67.766,-18.44 -96.31,-28.554 -169.793,-39.885c-40.666,-6.27 -66.953,-29.198 -80.102,-52.597c-7.723,-13.744 -11.164,-27.382 -9.148,-36.926c5.137,-24.329 21.722,-37.32 35.396,-44.783c11.413,-6.229 21.344,-9.282 24.668,-11.141c5.543,-3.098 7.663,-7.136 8.595,-9.594c1.887,-4.971 1.516,-9.711 -0.994,-14.284c-1.604,-2.922 -4.046,-5.295 -7.013,-6.814c-30.458,-15.598 -43.791,-47.659 -33.355,-79.259c17.506,-53.001 69.075,-47.849 79.859,-47.82c11.057,0.029 15.722,-6.639 16.72,-8.281c3.343,-5.504 3.216,-12.442 -0.326,-17.82c-9.567,-14.525 -20.776,-29.072 -28.739,-43.959c-9.224,-17.244 -13.827,-35.034 0.513,-53.984c9.907,-13.091 20.505,-20.797 32.247,-23.868c19.093,-4.994 40.208,1.474 63.594,12.311c7.777,3.605 17.021,0.722 21.37,-6.665c4.349,-7.387 2.386,-16.869 -4.539,-21.921c-45.032,-32.852 -50.259,-77.817 -16.938,-100.199c14.254,-9.575 31.641,-7.329 51.069,0.424c24.057,9.601 50.545,27.87 78.337,50.031c52.63,41.967 109.349,97.762 161.97,140.093c37.148,29.884 72.593,53.053 103.311,61.703c12.963,3.65 22.801,2.161 30.263,-1.752c7.957,-4.174 13.948,-11.489 17.457,-22.043c4.403,-13.243 4.631,-33.407 3.211,-56.312c-1.824,-29.392 -6.039,-64.006 -1.94,-91.631c2.989,-20.143 10.643,-36.319 32.941,-37.353c19.178,-0.888 34.435,7.566 46.805,21.838c14.515,16.747 25.191,40.835 33.444,68.612c26.574,89.441 26.841,215.853 26.255,281.249c-0.493,55 4.429,102.757 3.003,146.718c-2.003,61.789 -17.4,115.552 -83.197,172.229c-37.993,32.727 -112.515,61.909 -191.165,38.442Z" style="fill:#7e4021;"/><path d="M1057.36,547.359c18.197,6.178 64.438,34.95 76.555,41.553c81.962,44.656 162.972,72.879 222.155,146.642c5.756,7.175 16.255,8.326 23.429,2.57c7.175,-5.756 8.327,-16.255 2.57,-23.43c-62.078,-77.373 -146.233,-108.212 -232.206,-155.053c-12.909,-7.034 -62.4,-37.264 -81.787,-43.846c-8.71,-2.957 -18.183,1.713 -21.14,10.424c-2.957,8.71 1.713,18.182 10.424,21.14Z" style="fill:#7e4021;"/><path d="M981.096,687.162c14.194,5.265 33.952,6.911 49.046,11.903c102.201,33.803 179.947,61.88 263.841,131.795c7.066,5.889 17.584,4.933 23.473,-2.134c5.889,-7.066 4.933,-17.584 -2.133,-23.473c-87.429,-72.861 -168.207,-102.608 -274.714,-137.835c-14.74,-4.875 -34.06,-6.368 -47.921,-11.509c-8.624,-3.199 -18.223,1.206 -21.422,9.831c-3.199,8.624 1.206,18.223 9.83,21.422Z" style="fill:#7e4021;"/><path d="M1381.85,696.369c-6.423,4.975 -12.5,10.293 -18.334,15.947c-18.142,17.586 -34.975,37.782 -49.284,58.574c-40.485,58.831 -58.767,135.66 -48.871,206.353c1.276,9.11 9.707,15.47 18.817,14.195c9.11,-1.275 15.47,-9.707 14.195,-18.816c-8.768,-62.637 7.447,-130.708 43.319,-182.835c13.075,-19 28.446,-37.466 45.024,-53.536c4.948,-4.796 10.098,-9.31 15.545,-13.529c7.273,-5.633 8.604,-16.11 2.971,-23.382c-5.633,-7.273 -16.11,-8.604 -23.382,-2.971Z" style="fill:#7e4021;"/><path d="M935.781,853.116c26.494,1.334 76.748,12.857 102.709,17.998c96.839,19.175 135.439,26.709 226.005,66.303c8.428,3.685 18.262,-0.166 21.947,-8.595c3.685,-8.428 -0.167,-18.262 -8.595,-21.947c-93.336,-40.805 -133.08,-48.698 -232.882,-68.46c-27.163,-5.379 -79.787,-17.194 -107.508,-18.59c-9.187,-0.462 -17.021,6.621 -17.484,15.808c-0.462,9.187 6.621,17.021 15.808,17.483Z" style="fill:#7e4021;"/><path d="M4370.73,2299.77c-101.33,-13.857 -247.982,39.363 -303.915,81.151c-119.322,89.147 -34.23,200.14 102.686,219.15c307.645,42.716 514.633,-257.441 201.229,-300.301Z" style="fill:#fff;"/><path d="M4372.99,2283.25c-105.4,-14.414 -257.968,40.846 -316.148,84.312c-54.721,40.883 -70.2,86.626 -61.122,127.171c13.044,58.261 81.266,109.312 171.491,121.84c135.102,18.758 251.489,-26.269 316.945,-87.498c47.014,-43.979 67.833,-96.67 55.549,-141.846c-12.871,-47.334 -63.137,-89.814 -166.715,-103.979l-0,0Zm-4.516,33.026c84.496,11.555 128.566,41.086 139.066,79.7c9.527,35.036 -9.693,74.647 -46.155,108.756c-59.748,55.889 -166.27,95.947 -289.59,78.824c-45.671,-6.341 -85.234,-23.456 -111.862,-46.968c-16.294,-14.388 -27.645,-31.091 -31.685,-49.138c-6.76,-30.193 7.796,-62.74 48.545,-93.184c53.686,-40.11 194.421,-91.29 291.681,-77.99l-0,0Z" style="fill:#7e4021;"/><path d="M3595.8,2400.62c-101.33,-13.858 -247.982,39.362 -303.914,81.15c-119.323,89.147 -34.231,200.14 102.685,219.151c307.645,42.715 514.633,-257.442 201.229,-300.301Z" style="fill:#fff;"/><path d="M3598.06,2384.1c-105.4,-14.414 -257.968,40.845 -316.148,84.311c-54.721,40.883 -70.2,86.626 -61.122,127.171c13.044,58.261 81.266,109.312 171.491,121.84c135.102,18.758 251.489,-26.268 316.945,-87.498c47.015,-43.979 67.833,-96.669 55.549,-141.845c-12.871,-47.335 -63.137,-89.815 -166.715,-103.979Zm-4.516,33.025c84.496,11.556 128.566,41.086 139.066,79.7c9.527,35.037 -9.693,74.648 -46.155,108.756c-59.748,55.89 -166.27,95.947 -289.59,78.824c-45.671,-6.341 -85.234,-23.456 -111.861,-46.968c-16.295,-14.388 -27.646,-31.091 -31.686,-49.138c-6.76,-30.193 7.796,-62.74 48.545,-93.184c53.686,-40.11 194.421,-91.29 291.681,-77.99l-0,0Z" style="fill:#7e4021;"/><path d="M4370.73,2299.77c-101.33,-13.857 -82.003,303.655 -31.824,289.516c200.289,-56.438 282.441,-255.243 31.824,-289.516Z" style="fill:#7e4021;"/><path d="M4372.99,2283.25c-28.278,-3.867 -50.213,10.434 -65.454,37.247c-28.274,49.741 -31.623,148.142 -19.413,212.949c5.827,30.926 15.952,54.439 26.797,64.368c8.773,8.031 18.48,10.332 28.508,7.507c76.218,-21.477 136.02,-62.823 169.285,-108.171c23.942,-32.639 34.356,-67.577 29.223,-99.566c-8.29,-51.656 -58.104,-99.176 -168.946,-114.334Zm-36.035,289.251c-1.17,-1.468 -3.276,-4.252 -4.528,-6.723c-8.433,-16.643 -14.091,-45.375 -16.559,-77.566c-3.789,-49.403 0.147,-107.005 16.69,-143.441c8.154,-17.957 18.911,-30.82 35.916,-28.495l-0,0c89.697,12.267 133.841,44.788 140.549,86.589c3.864,24.074 -5.169,50.006 -23.188,74.569c-29.299,39.943 -82.106,75.732 -148.88,95.067Z" style="fill:#7e4021;"/><path d="M3595.8,2400.62c-101.33,-13.858 -82.003,303.654 -31.824,289.515c200.289,-56.438 282.441,-255.243 31.824,-289.515Z" style="fill:#7e4021;"/><path d="M3598.06,2384.1c-28.278,-3.868 -50.213,10.434 -65.454,37.246c-28.274,49.741 -31.623,148.142 -19.413,212.949c5.827,30.926 15.952,54.44 26.797,64.368c8.773,8.031 18.48,10.333 28.508,7.507c76.218,-21.477 136.02,-62.822 169.285,-108.171c23.942,-32.639 34.356,-67.577 29.223,-99.566c-8.29,-51.655 -58.104,-99.175 -168.946,-114.333Zm-36.035,289.25c-1.17,-1.467 -3.276,-4.251 -4.528,-6.723c-8.432,-16.642 -14.09,-45.375 -16.559,-77.566c-3.789,-49.403 0.147,-107.005 16.69,-143.44c8.154,-17.958 18.911,-30.821 35.916,-28.496c89.697,12.267 133.841,44.788 140.549,86.59c3.864,24.074 -5.169,50.005 -23.187,74.569c-29.3,39.943 -82.107,75.731 -148.881,95.066Z" style="fill:#7e4021;"/><path d="M3906.57,2697.71c24.668,1.967 47.966,-6.533 69.27,-18.771c18.63,-10.701 35.651,-24.22 50.712,-33.888c4.999,-3.21 9.713,-5.955 14.18,-7.777c3.109,-1.268 5.837,-2.505 8.389,-1.585c1.344,0.485 2.37,1.69 3.506,3.228c3.566,4.831 3.197,10.899 1.956,16.91c-1.867,9.031 -6.302,18.084 -10.733,25.632c-11.582,19.733 -29.25,31.993 -49.205,42.314c-8.171,4.226 -11.373,14.291 -7.147,22.461c4.226,8.17 14.291,11.373 22.461,7.147c25.641,-13.263 47.755,-29.692 62.639,-55.049c7.526,-12.823 14.524,-28.924 15.873,-44.109c1.126,-12.675 -1.426,-24.806 -9.025,-35.101c-17.936,-24.299 -41.945,-20.711 -70.902,-2.122c-14.655,9.408 -31.179,22.622 -49.307,33.035c-15.454,8.878 -32.122,15.874 -50.017,14.447c-9.17,-0.731 -17.208,6.119 -17.939,15.289c-0.732,9.169 6.119,17.208 15.289,17.939Z" style="fill:#7e4021;"/><path d="M3374.64,2751.89c220.952,-276.943 717.836,54.535 437.87,379.971c-68.763,79.931 -186.235,98.395 -288.229,92.834" style="fill:#e4a57c;"/><path d="M3387.67,2762.28c99.979,-125.315 259.976,-117.747 370.061,-42.828c73.166,49.793 124.716,129.503 121.306,220.71c-2.148,57.454 -26.122,119.173 -79.16,180.825c-65.434,76.062 -177.629,92.353 -274.687,87.061c-9.185,-0.501 -17.048,6.55 -17.549,15.734c-0.501,9.185 6.55,17.049 15.734,17.55c106.934,5.831 229.679,-14.806 301.772,-98.607c58.949,-68.523 84.813,-137.461 87.2,-201.317c3.846,-102.889 -53.325,-193.343 -135.862,-249.513c-123.47,-84.028 -302.737,-90.955 -414.872,49.596c-5.736,7.191 -4.556,17.686 2.634,23.423c7.191,5.737 17.686,4.556 23.423,-2.634Z" style="fill:#7e4021;"/><path d="M3877.64,2822.61c-1.785,-0.047 80.24,17.467 142.131,-10.198c74.497,-33.299 86.733,-75.72 92.357,-78.255c5.58,-2.515 -13.291,61.27 45.276,172.914c47.386,90.329 184.091,115.091 123.772,261.794c-55.085,133.971 -304.468,192.104 -478.947,-19.45c161.596,-155.962 78.21,-317.724 75.411,-326.805Z" style="fill:#7e4021;"/><path d="M3882.33,2806.62l0.506,0.108c11.636,2.37 78.46,13.564 130.13,-9.531c54.564,-24.39 72.788,-53.952 80.475,-66.059c4.751,-7.483 9.289,-11.028 11.836,-12.176c6.912,-3.115 12.531,-1.678 17.222,1.741c2.451,1.786 6.015,5.175 7.12,12.008c1.492,9.219 -8.582,69.166 42.54,166.618c18.075,34.454 50.144,58.567 77.998,84.457c28.996,26.952 53.71,55.69 60.762,94.988c4.713,26.266 1.675,57.496 -14.333,96.428c-17.994,43.765 -54.786,80.341 -102.949,103.542c-108.488,52.26 -275.883,36.943 -404.269,-118.725c-5.537,-6.712 -4.977,-16.554 1.283,-22.597c153.19,-147.847 73.712,-301.293 71.058,-309.902l1.527,1.159c-2.193,-5.935 -1.191,-12.037 -1.108,-12.244c0.79,-1.978 4.101,-10.798 15.946,-10.486c1.467,0.039 2.895,0.268 4.256,0.671Zm215.796,-27.808c3.788,31.481 14.711,79.187 44.515,136.002c19.835,37.809 54.255,64.976 84.822,93.388c23.584,21.921 44.911,44.496 50.646,76.459c3.812,21.242 0.594,46.38 -12.352,77.866c-15.056,36.618 -46.288,66.774 -86.587,86.186c-95.182,45.851 -239.83,31.484 -354.277,-98.394c121.956,-126.315 96.308,-253.964 78.41,-307.221c31.066,2.85 81.445,3.223 123.265,-15.47c33.023,-14.761 56.181,-33.203 71.558,-48.816Zm-212.17,29.369c2.416,1.385 4.465,3.37 5.929,5.786c-0.895,-1.593 -2.567,-3.921 -5.929,-5.786Z" style="fill:#7e4021;"/><path d="M3802.23,3149.41c36.127,-34.867 62.004,-75.071 89.555,-140.925c63.259,-151.211 421.267,82.851 389.392,160.375c-55.085,133.971 -304.468,192.104 -478.947,-19.45Z" style="fill:#eb7e6c;"/><path d="M3790.65,3137.42c-6.26,6.043 -6.82,15.885 -1.283,22.597c128.386,155.668 295.781,170.985 404.269,118.725c48.163,-23.201 84.955,-59.777 102.949,-103.542c6.395,-15.551 3.064,-36.222 -10.915,-58.749c-25.491,-41.076 -87.393,-92.221 -155.741,-128.291c-59.366,-31.331 -123.464,-51.009 -172.322,-45.044c-36.916,4.507 -66.017,22.638 -81.204,58.939c-26.44,63.2 -51.082,101.904 -85.753,135.365Zm34.194,12.842c32.013,-33.799 56.534,-73.73 82.31,-135.342c12.936,-30.921 41.565,-40.964 75.887,-39.418c39.858,1.796 86.959,18.721 131.33,42.138c53.901,28.445 103.811,66.623 131.704,100.797c8.361,10.244 14.67,19.987 18.065,28.929c2.18,5.743 3.386,10.853 1.616,15.159c-15.056,36.618 -46.288,66.774 -86.587,86.186c-95.195,45.857 -239.871,31.48 -354.325,-98.449l0,0Z" style="fill:#7e4021;"/><path d="M4263.33,3294.51c-2.278,1.085 -4.34,2.708 -5.986,4.84c-5.71,7.399 -3.373,13.631 -2.465,16.073c1.654,4.445 4.727,7.91 9.78,9.804c2.019,0.757 5.659,1.862 10.694,0.351c1.096,-0.329 10.714,-6.176 12.581,-7.567c8.409,-6.264 16.192,-13.688 23.698,-20.983c19.062,-18.523 35.558,-37.4 48.26,-60.867c4.379,-8.09 1.366,-18.213 -6.724,-22.591c-8.09,-4.379 -18.212,-1.366 -22.591,6.724c-11.053,20.422 -25.586,36.709 -42.175,52.829c-6.473,6.29 -13.129,12.754 -20.379,18.155c-0.59,0.439 -3.4,2.354 -4.693,3.232Zm23.69,12.604c0.638,4.319 -0.414,8.879 -3.288,12.604c4.046,-5.243 3.816,-9.858 3.288,-12.604Z" style="fill:#7e4021;"/><path d="M4160.31,2662.17c220.952,-276.943 717.837,54.535 437.87,379.971" style="fill:#e4a57c;"/><path d="M4173.34,2672.57c99.979,-125.315 259.976,-117.747 370.061,-42.828c73.166,49.793 124.716,129.503 121.306,220.71c-2.148,57.454 -26.122,119.173 -79.159,180.824c-5.999,6.974 -5.208,17.505 1.765,23.504c6.973,5.999 17.505,5.208 23.504,-1.765c58.949,-68.523 84.813,-137.461 87.2,-201.317c3.846,-102.889 -53.325,-193.343 -135.862,-249.514c-123.47,-84.027 -302.736,-90.954 -414.871,49.597c-5.737,7.191 -4.557,17.686 2.634,23.423c7.19,5.736 17.685,4.556 23.422,-2.634Z" style="fill:#7e4021;"/></g></svg>