<?xml version="1.0" encoding="UTF-8" standalone="no"?><!DOCTYPE svg PUBLIC "-//W3C//DTD SVG 1.1//EN" "http://www.w3.org/Graphics/SVG/1.1/DTD/svg11.dtd"><svg width="100%" height="100%" viewBox="0 0 3100 5609" version="1.1" xmlns="http://www.w3.org/2000/svg" xmlns:xlink="http://www.w3.org/1999/xlink" xml:space="preserve" xmlns:serif="http://www.serif.com/" style="fill-rule:evenodd;clip-rule:evenodd;stroke-linejoin:round;stroke-miterlimit:2;"><g id="Flour-sack-Character" serif:id="Flour sack-Character"><path d="M957.242,4386.3c27.375,19.183 33.839,67.177 34.036,99.321c0.241,39.176 16.372,68.66 35.575,102.366c41.396,72.661 174.333,93.345 171.116,189.335c-2.341,69.834 -74.509,118.909 -138.566,119.844c-23.924,0.349 -34.792,-8.232 -43.452,-5.207c-0.65,0.227 0.603,25.839 0.536,27.836c-0.583,17.392 -8.623,42.095 -4.438,58.804c1.831,7.311 107.415,53.034 120.419,61.472c80.977,52.542 137.019,134.252 137.38,232.819c0.512,139.943 -109.16,274.274 -254.031,274.743c-112.073,0.363 -334.363,-98.335 -403.071,-192.662c-117.412,-161.188 -152.524,-600.838 -21.95,-765.74c38.844,-49.056 96.451,-79.95 160.304,-79.064c10.931,0.151 40.859,-2.198 48.032,-3.319c6.219,-0.971 49.043,-196.978 158.11,-120.548Z" style="fill:#c5e8f0;"/><path d="M788.035,4491.34c-11.259,1.059 -28.997,2.269 -36.704,2.163c-69.112,-0.959 -131.558,32.286 -173.602,85.383c-53.992,68.187 -81.384,181.59 -86.084,304.063c-6.974,181.722 35.593,382.941 107.629,481.836c35.61,48.887 110.679,99.383 191.707,137.134c80.677,37.588 167.057,62.569 224.89,62.382c153.993,-0.499 271.187,-142.717 270.643,-291.471c-0.382,-104.346 -59.249,-191.116 -144.974,-246.74c-11.198,-7.266 -91.323,-42.231 -114.035,-56.306c-0.371,-5.468 0.529,-11.645 1.459,-17.867c1.659,-11.105 3.87,-22.311 4.18,-31.562c0.023,-0.674 -0.073,-4.695 -0.206,-9.415c7.031,1.61 15.673,3.052 26.708,2.891c72.084,-1.052 152.346,-57.365 154.98,-135.95c1.814,-54.128 -33.15,-88.08 -76.013,-117.687c-35.917,-24.809 -77.719,-46.124 -97.279,-80.456c-17.712,-31.09 -33.168,-58.083 -33.389,-94.219c-0.129,-20.971 -2.849,-48.124 -11.323,-71.014c-6.439,-17.392 -16.245,-32.344 -29.815,-41.853c-23.598,-16.536 -44.803,-21.894 -63.449,-20.488c-27.966,2.11 -51.165,19.832 -69.159,43.878c-24.257,32.416 -39.02,76.125 -46.164,95.298Zm159.643,-91.39c8.331,5.839 13.731,15.45 17.684,26.128c7.113,19.213 9.142,42.044 9.25,59.646c0.259,42.219 17.065,74.19 37.76,110.514c21.837,38.33 67.198,63.685 107.296,91.382c33.159,22.904 63.047,47.271 61.643,89.145c-2.047,61.088 -66.117,102.919 -122.151,103.737c-15.143,0.221 -24.466,-3.734 -31.404,-5.057c-6.558,-1.251 -12.12,-1.029 -17.302,0.781c-1.568,0.548 -10.551,3.853 -11.278,15.473c-0.276,4.41 0.715,25.709 0.654,27.539c-0.336,10.031 -3.335,22.581 -4.745,34.494c-1.236,10.432 -1.317,20.479 0.797,28.917c0.565,2.256 1.8,5.362 4.829,8.529c2.155,2.252 7.455,6.08 15.242,10.393c28.111,15.567 97.14,45.797 107.443,52.482c76.23,49.462 129.446,126.111 129.785,218.899c0.48,131.132 -101.668,257.576 -237.418,258.016c-54.24,0.175 -135.041,-24.011 -210.705,-59.264c-75.313,-35.089 -145.742,-81.105 -178.841,-126.545c-68.857,-94.531 -107.929,-287.229 -101.263,-460.932c4.393,-114.477 28.441,-220.913 78.908,-284.648c35.645,-45.016 88.412,-73.559 147.007,-72.746c11.569,0.16 43.244,-2.33 50.836,-3.517c2.831,-0.442 8.577,-1.913 12.762,-9.117c3.367,-5.795 11.829,-34.787 26.564,-64.886c7.714,-15.755 17.273,-31.903 29.137,-44.355c10.05,-10.547 21.707,-18.5 35.698,-19.555c12.38,-0.934 26.143,3.567 41.812,14.547Z" style="fill:#7e4021;"/><path d="M680.168,4553.62c7.613,-4.738 10.127,-14.719 5.584,-22.521c-4.629,-7.95 -14.84,-10.646 -22.789,-6.018c-4.93,2.871 -10.162,8.44 -14.614,15.854c-6.663,11.097 -12.35,27.112 -15.805,34.241c-52.53,108.381 -76.118,221.635 -77.851,341.868c-0.133,9.197 7.227,16.772 16.424,16.905c9.198,0.132 16.773,-7.227 16.906,-16.425c1.661,-115.278 24.151,-223.895 74.516,-327.81c2.804,-5.784 7.078,-17.787 12.22,-27.711c1.678,-3.24 5.099,-7.957 5.409,-8.383Z" style="fill:#7e4021;"/><path d="M622.466,5182.77c2.534,-7.564 -0.685,-16.083 -7.955,-19.967c-8.113,-4.336 -18.219,-1.268 -22.554,6.845c-2.451,4.586 -3.607,11.755 -2.247,20.079c1.596,9.767 6.69,22.462 8.098,27.624c26.327,96.529 75.38,183.155 143.953,255.664c6.32,6.683 16.877,6.978 23.561,0.657c6.683,-6.32 6.977,-16.878 0.657,-23.561c-64.784,-68.503 -111.14,-150.335 -136.013,-241.531c-1.248,-4.578 -6.795,-23.417 -7.5,-25.81Z" style="fill:#7e4021;"/><path d="M780.93,5037.31c-0.947,0.692 -1.938,1.426 -2.085,1.57c-7.354,7.252 -5.06,14.746 -3.855,17.874c1.084,2.811 2.859,5.324 5.572,7.353c1.862,1.392 5.599,4.03 12.138,3.18c0.583,-0.076 1.827,-0.223 3.724,-0.924c1.772,-0.656 3.366,-1.581 4.75,-2.717c0.705,-0.484 1.388,-0.969 1.631,-1.186c19.017,-16.962 42.6,-29.051 65.513,-39.708c46.839,-21.787 95.82,-28.179 146.693,-20.226c9.088,1.421 17.62,-4.804 19.041,-13.893c1.42,-9.088 -4.805,-17.62 -13.893,-19.041c-57.536,-8.994 -112.925,-1.704 -165.899,22.936c-25.698,11.952 -51.959,25.807 -73.33,44.782Zm14.719,-2.468c-1.51,-0.625 -4.838,-1.677 -9.896,-0.043c3.333,-1.026 6.771,-0.949 9.896,0.043Z" style="fill:#7e4021;"/><path d="M1026.99,4874.07c-16.3,-3.954 -32.411,-17.371 -46.932,-32.202c-24.599,-25.125 -44.141,-55.299 -50.561,-63.952c-5.482,-7.387 -15.929,-8.934 -23.316,-3.453c-7.388,5.481 -8.935,15.929 -3.454,23.316c6.778,9.135 27.543,40.884 53.512,67.408c19.193,19.603 41.35,36.051 62.893,41.277c8.939,2.168 17.957,-3.329 20.126,-12.268c2.168,-8.939 -3.329,-17.957 -12.268,-20.126Z" style="fill:#7e4021;"/><path d="M845.947,4589.77c-30.757,-32.746 -26.014,-73.052 -27.587,-84.326c-1.272,-9.111 -9.701,-15.474 -18.811,-14.203c-9.11,1.272 -15.474,9.701 -14.203,18.811c1.93,13.822 -1.404,62.392 36.305,102.539c6.297,6.704 16.853,7.035 23.558,0.737c6.705,-6.297 7.036,-16.854 0.738,-23.558Z" style="fill:#7e4021;"/><path d="M1957.11,3334.22c79.804,226.225 158.46,464.621 160.487,472.085c71.079,261.756 -258.125,418.914 -309.142,451.584c-89.297,57.183 -730.081,395.05 -764.454,343.973c-39.33,-58.444 -92.786,-108.048 -35.781,-138.517c60.698,-32.444 441.862,-234.563 553.066,-303.757c138.95,-86.458 271.068,-154.385 251.963,-423.489c-0.75,-10.564 -28.383,-148.252 -29.607,-159.449c-0,-0 143.686,-326.854 173.468,-242.43Z" style="fill:#d3af98;"/><path d="M1972.83,3328.67c-5.668,-16.066 -15.171,-22.736 -24.684,-24.553c-8.682,-1.659 -19.444,0.951 -30.74,9.733c-16.68,12.967 -37.584,41.871 -58.139,76.39c-45.344,76.149 -90.881,179.696 -90.881,179.696c-1.176,2.676 -1.628,5.614 -1.31,8.52c1.22,11.153 28.803,148.294 29.551,158.817c7.346,103.485 -8.11,176.1 -38.402,231.213c-45.845,83.41 -124.873,126.626 -205.742,176.945c-111.011,69.074 -491.525,270.822 -552.118,303.209c-19.693,10.526 -29.025,23.437 -32.328,37.047c-3.195,13.164 -0.564,27.846 6.892,43.563c11.442,24.121 35.076,51.937 55.247,81.911c4.296,6.384 12.343,11.611 25.213,12.463c15.684,1.038 42.939,-4.807 78.066,-16.644c185.488,-62.506 612.169,-289.069 683.99,-335.061c31.14,-19.941 163.91,-85.798 249.725,-192.55c59.385,-73.874 96.537,-166.874 66.514,-277.437c-2.032,-7.483 -80.853,-246.478 -160.854,-473.262Zm-31.975,9.78c0.205,0.445 0.394,0.895 0.54,1.309c79.606,225.665 158.098,463.462 160.12,470.908c33.708,124.131 -28.523,223.1 -104.203,295.27c-78.751,75.099 -172.668,121.789 -197.843,137.911c-71.055,45.501 -493.151,269.706 -676.658,331.544c-21.841,7.36 -40.11,12.385 -53.755,14.28c-4.817,0.669 -10.546,0.492 -12.938,0.373c-18.779,-27.507 -40.526,-52.847 -51.073,-75.081c-3.703,-7.807 -6.202,-14.877 -4.615,-21.415c1.48,-6.099 6.823,-10.795 15.648,-15.512c60.804,-32.499 442.618,-234.99 554.015,-304.304c85.872,-53.432 168.663,-100.622 217.344,-189.191c32.725,-59.541 50.376,-137.831 42.439,-249.63c-0.7,-9.862 -24.688,-130.097 -29.035,-155.936c11.545,-25.882 72.281,-159.83 118.801,-219.366c4.06,-5.197 7.99,-9.785 11.762,-13.603c2.969,-3.006 6.957,-5.877 9.451,-7.557Z" style="fill:#7e4021;"/><path d="M2552.04,2046.89c-47.822,6.399 -177.499,-161.53 -187.776,-215.962c-3.182,-16.858 363.181,-62.214 442.843,-209.181c51.154,-94.374 -14.236,-250.016 -42.476,-318.908c-13.947,-34.021 -43.397,-74.816 -48.973,-111.599c-8.639,-56.996 74.336,-127.491 133.6,-98.642c14.317,6.969 34.305,35.051 38.66,40.779c127.247,167.384 174.244,426.876 109.13,555.002c-103.878,204.403 -346.292,345.3 -445.008,358.511Z" style="fill:#d3af98;"/><path d="M2554.25,2063.41c101.389,-13.569 350.964,-157.541 457.655,-367.479c27.236,-53.593 36.238,-129.096 28.091,-211.692c-11.967,-121.326 -60.627,-258.103 -138.811,-360.947c-4.95,-6.511 -28.362,-37.758 -44.633,-45.679c-35.191,-17.13 -77.666,-6.129 -109.817,18.979c-32.038,25.021 -52.668,63.421 -47.556,97.147c5.755,37.968 35.634,80.306 50.029,115.423c16.592,40.473 46.411,111.485 56.687,181.811c6.448,44.135 5.418,88.038 -13.442,122.833c-24.014,44.304 -76.242,78.092 -135.313,105.049c-93.087,42.48 -203.696,67.025 -259.936,81.837c-22.175,5.841 -36.931,11.197 -41.676,14.804c-7.96,6.05 -8.642,13.228 -7.642,18.525c2.395,12.682 10.336,31.045 22.346,51.875c25.999,45.093 71.081,103.279 110.835,139.74c15.594,14.302 30.525,25.332 43.299,31.523c11.294,5.474 21.519,7.37 29.884,6.251l-0,-0Zm-170.151,-224.05c5.828,-1.9 13.816,-4.385 21.595,-6.434c57.411,-15.121 170.26,-40.381 265.285,-83.746c66.34,-30.275 123.81,-69.733 150.779,-119.489c22.064,-40.705 24.663,-91.906 17.12,-143.537c-10.713,-73.32 -41.53,-147.439 -58.827,-189.635c-13.497,-32.926 -42.519,-72.177 -47.915,-107.776c-3.529,-23.278 13.003,-48.61 35.116,-65.879c21.999,-17.181 50.631,-27.002 74.711,-15.28c4.256,2.072 8.936,6.946 13.529,11.972c8.833,9.668 16.666,20.633 19.157,23.909c74.513,98.016 120.769,228.417 132.175,344.046c7.434,75.376 0.22,144.41 -24.635,193.318c-101.065,198.868 -336.318,336.689 -432.361,349.542l0,0c-4.382,0.587 -9.565,-2.195 -15.782,-5.807c-9.308,-5.409 -19.634,-13.576 -30.448,-23.494c-32.167,-29.502 -67.977,-74.114 -93.019,-113.056c-11.868,-18.457 -21.402,-35.446 -26.48,-48.654Z" style="fill:#7e4021;"/><path d="M2625.5,1185.71c-0.415,-31.094 91.24,-150.631 241.577,-155.952c19.392,-0.687 44.193,11.447 54.555,28.466c2.83,4.648 4.397,9.801 4.85,15.257c3.77,45.422 -28.75,97.163 -87.032,140.798c-64.204,48.068 -212.53,77.708 -213.95,-28.569Z" style="fill:#fff;"/><path d="M2608.84,1185.93c0.349,26.125 8.386,45.406 20.909,59.321c12.51,13.903 29.799,22.599 49.931,26.613c53.314,10.627 128.01,-12.986 169.763,-44.246c63.921,-47.857 97.788,-105.701 93.654,-155.519c-0.67,-8.068 -3.039,-15.671 -7.224,-22.545c-13.199,-21.677 -44.681,-37.33 -69.381,-36.455c-111.289,3.939 -192.144,67.117 -230.506,115.915c-18.837,23.962 -27.297,45.613 -27.146,56.916Zm33.331,-0.446c-0.028,-2.029 1.037,-4.645 2.42,-7.869c3.374,-7.862 9.353,-17.509 17.601,-28c34.188,-43.49 106.297,-99.693 205.48,-103.204c14.085,-0.499 32.203,8.115 39.73,20.478c1.474,2.422 2.239,5.124 2.475,7.967c3.406,41.036 -27.758,86.658 -80.411,126.078c-29.657,22.204 -78.744,40.147 -120.579,40.27c-21.974,0.065 -42,-4.514 -54.36,-18.25c-7.855,-8.729 -12.138,-21.082 -12.356,-37.47Z" style="fill:#7e4021;"/><path d="M2330.71,799.613c3.938,20.466 -90.324,3.19 -97.051,117.141c-9.595,162.54 274.273,285.817 459.694,239.432c133.345,-33.358 218.923,-150.518 229.589,-289.926c5.628,-73.567 -32.443,-293.462 -113.353,-326.32c-51.268,-20.82 -50.453,2.64 -88.134,2.104c-16.102,-0.229 -37.173,-20.623 -72.185,-19.634c-38.104,1.076 -47.537,41.521 -58.925,27.824c-38.643,-46.475 -131.43,0.269 -145.667,74.354c-0,0 -23.628,-23.011 -29.261,-28.475c-39.52,-38.335 -92.216,-106.872 -122.222,-150.779c-109.358,-160.024 -185.309,-154.04 -240.701,-106.889c-101.799,86.652 165.267,392.461 250.224,439.821c0,-0 27.698,19.821 27.992,21.347Z" style="fill:#fff;"/><path d="M2301.86,798.426c-2.613,0.969 -5.255,1.962 -7.669,2.892c-30.99,11.945 -72.529,35.812 -77.172,114.454c-4.156,70.41 41.165,134.863 111.545,182.628c101.141,68.643 253.403,102.83 368.831,73.954c140.371,-35.115 230.935,-158.069 242.163,-304.822c4.07,-53.201 -13.844,-180.502 -53.711,-263.721c-18.649,-38.928 -42.619,-68.197 -69.989,-79.312c-31.287,-12.706 -46.794,-11.009 -60.116,-7.109c-9.563,2.8 -17.545,8.224 -34.052,7.989c-6.374,-0.09 -13.436,-4.963 -22.665,-8.924c-13.548,-5.815 -29.881,-11.28 -50.227,-10.705c-20.843,0.588 -35.223,9.932 -45.846,19.587c-2.198,1.997 -4.801,4.506 -7.054,6.728c-19.546,-17.382 -46.606,-21.019 -74.053,-13.083c-33.793,9.772 -67.872,37.653 -84.756,74.959c-4.327,-4.211 -8.195,-7.972 -10.07,-9.791c-38.839,-37.674 -90.577,-105.069 -120.065,-148.219c-70.003,-102.435 -128.704,-139.248 -176.006,-142.934c-34.119,-2.658 -63.684,10.986 -89.26,32.756c-35.237,29.996 -35.784,82.503 -11.577,143.136c50.028,125.304 201.775,288.142 263.513,323.383l8.236,6.154Zm45.215,-1.962c-0.266,-1.383 -1.208,-5.735 -5.94,-10.087c-4.983,-4.583 -28.72,-21.665 -28.72,-21.665c-0.509,-0.364 -1.037,-0.699 -1.584,-1.004c-57.841,-32.244 -202.15,-187.923 -249.762,-307.179c-9.539,-23.891 -15.169,-46.173 -14.686,-65.494c0.403,-16.175 5.288,-30.004 16.912,-39.899c18.739,-15.952 40.064,-26.854 65.063,-24.906c41.378,3.224 89.839,38.902 151.075,128.508c30.522,44.664 84.176,114.342 124.378,153.338c5.628,5.459 29.236,28.452 29.236,28.452c4.391,4.277 10.776,5.798 16.623,3.961c5.848,-1.837 10.216,-6.736 11.373,-12.755c7.316,-38.071 38.855,-67.707 70.061,-76.73c17.559,-5.077 35.25,-3.552 46.423,9.886c4.539,5.459 9.398,7.683 13.926,8.5c6.089,1.098 12.893,-0.345 19.847,-5.906c3.839,-3.069 8.321,-8.255 14.069,-13.478c5.692,-5.173 13.203,-10.621 24.369,-10.936c17.956,-0.507 31.542,5.888 42.574,10.869c11.086,5.006 20.606,8.652 28.904,8.77c13.739,0.196 23.269,-2.222 31.558,-5.036c12.939,-4.391 21.366,-10.139 50.542,1.709c10.561,4.289 20.019,12.739 28.788,23.726c15.138,18.968 27.797,45.247 38.276,74.35c27.022,75.049 39.212,168.781 35.942,211.531c-10.105,132.063 -90.696,243.428 -217.016,275.028c-107.076,26.787 -248.201,-5.522 -342.024,-69.198c-59.6,-40.449 -100.507,-93.457 -96.987,-153.083c1.848,-31.315 10.841,-51.291 22.858,-64.281c18.96,-20.494 44.159,-24.195 56.262,-29.454c15.123,-6.571 19.793,-16.449 17.66,-27.537Z" style="fill:#7e4021;"/><path d="M2432.16,606.388c-0.256,0.988 -0.461,1.921 -0.506,2.481c-0.588,7.353 -0.967,14.766 -1.191,22.137c-0.484,15.961 -0.587,31.975 -0.169,47.937c1.245,47.54 6.886,94.187 17.687,140.51c2.088,8.958 11.057,14.535 20.015,12.447c8.959,-2.089 14.536,-11.058 12.447,-20.016c-10.285,-44.114 -15.641,-88.54 -16.827,-133.814c-0.402,-15.335 -0.3,-30.719 0.165,-46.053c0.207,-6.823 0.555,-13.684 1.1,-20.489c-0.071,0.885 -0.677,3.338 -0.677,3.338c-0,-0 1.772,-8.866 1.424,-10.824c-0.442,-2.487 -1.36,-4.573 -2.506,-6.324c-1.871,-2.857 -4.412,-5.017 -7.727,-6.373c-2.488,-1.017 -5.857,-1.85 -10.339,-0.81c-7.568,1.757 -12.729,8.424 -12.896,15.853Zm7.385,14.218c2.966,2.284 7.077,3.785 13.048,2.399c-4.675,1.086 -9.352,0.084 -13.048,-2.399Z" style="fill:#7e4021;"/><path d="M2527.55,1038.47c12.434,0.618 20.499,8.148 26.916,15.3c6.297,7.017 11.349,14.125 15.984,18.717c6.534,6.475 17.095,6.426 23.57,-0.108c6.474,-6.534 6.426,-17.095 -0.109,-23.57c-5.595,-5.545 -11.77,-14.932 -20.217,-23.125c-11.048,-10.715 -25.225,-19.548 -44.49,-20.506c-9.187,-0.456 -17.016,6.632 -17.473,15.819c-0.457,9.187 6.632,17.017 15.819,17.473Z" style="fill:#7e4021;"/><path d="M2325.49,824.606c0.983,-0.208 9.874,-2.062 16.67,-2.702c24.744,-2.328 61.196,-2.075 68.973,-0.556c58.256,11.385 135.557,30.913 172.634,81.431c10.751,14.648 15.224,28.189 14.251,40.543c-1.454,18.486 -14.743,33.344 -31.945,44.214c-21.496,13.584 -49.517,20.872 -74.294,19.542c-9.185,-0.493 -17.043,6.564 -17.536,15.749c-0.493,9.185 6.563,17.043 15.749,17.536c82.451,4.428 187.548,-66.155 120.647,-157.307c-41.755,-56.892 -127.506,-81.601 -193.113,-94.422c-8.85,-1.73 -50.332,-2.566 -78.489,0.083c-15.286,1.439 -27.198,4.812 -31.701,7.96c-7.539,5.271 -9.38,15.671 -4.109,23.21c5.055,7.228 14.825,9.218 22.263,4.719Z" style="fill:#7e4021;"/><path d="M2798.96,744.689c20.882,45.761 17.156,104.102 5.116,126.253c-9.696,17.84 -32.965,40.958 -60.595,22.612c-13.052,-8.666 -21.524,-22.855 -27.24,-40.093c-6.522,-19.669 -9.309,-43.156 -9.764,-68.24c-1.434,-79.13 20.521,-173.537 32.903,-221.29c2.309,-8.905 -3.046,-18.008 -11.95,-20.317c-8.904,-2.308 -18.007,3.046 -20.316,11.95c-12.882,49.681 -35.457,147.937 -33.965,230.261c1.091,60.175 16.167,111.776 51.894,135.499c48.56,32.243 91.279,-3.11 108.32,-34.464c14.87,-27.359 21.713,-99.49 -4.078,-156.009c-3.819,-8.369 -13.713,-12.063 -22.082,-8.244c-8.368,3.819 -12.062,13.713 -8.243,22.082Z" style="fill:#7e4021;"/><path d="M2829.87,755.542c-6.687,0.462 -12.715,4.965 -14.79,11.753c-2.689,8.797 2.269,18.122 11.066,20.811c4.217,1.29 9.74,1.327 15.809,-1.203c8.252,-3.439 20.424,-14.729 24.386,-17.887c7.192,-5.735 8.375,-16.23 2.64,-23.422c-5.735,-7.192 -16.23,-8.375 -23.422,-2.641l-15.689,12.589Z" style="fill:#7e4021;"/><path d="M2673.99,831.19c-3.375,6.047 -7.644,11.752 -12.15,16.998c-9.459,11.013 -22.092,20.033 -36.87,15.924c-14.096,-3.92 -23.61,-14.458 -30.304,-28.524c-8.119,-17.059 -12.111,-38.965 -13.605,-62.91c-4.775,-76.513 16.584,-173.044 30.209,-211.681c3.059,-8.675 -1.5,-18.201 -10.175,-21.261c-8.675,-3.059 -18.202,1.501 -21.261,10.176c-16.965,48.11 -44.795,180.363 -26.841,264.63c8.918,41.857 29.262,72.291 63.047,81.685c27.894,7.755 53.234,-5.534 71.087,-26.32c5.945,-6.922 11.517,-14.494 15.97,-22.472c4.483,-8.032 1.601,-18.193 -6.431,-22.676c-8.032,-4.483 -18.193,-1.601 -22.676,6.431Z" style="fill:#7e4021;"/><path d="M18.828,406.965c-30.221,109.897 257.788,255.21 412.914,296.181c107.985,28.521 307.986,185.221 321.67,251.1c19.906,95.834 -214.745,368.296 -284.206,601.865c-90.633,304.76 33.914,807.487 33.914,1122.47c0,236.302 49.963,1207.34 345.955,1255.86c343.821,56.364 539.266,-143.144 844.397,-258.121c336.877,-126.939 769.332,-136.072 1041.89,-402.769c55.43,-54.238 165.371,-142.598 167.311,-274.113c1.576,-106.889 -406.537,-1439.03 -814.299,-1817.33c-361.288,-335.188 -952.135,-425.451 -973.155,-437.847c-197.156,-116.272 -56.457,-958.773 -408.597,-666.318c-127.754,106.101 -281.313,84.284 -437.089,104.902c-109.819,14.534 -219.327,110.015 -250.705,224.116Z" style="fill:#ebccb8;"/><path d="M1122.93,729.45c-20.793,-12.549 -36.962,-34.516 -50.535,-62.478c-14.884,-30.663 -26.365,-68.368 -35.995,-109.947c-29.88,-129.018 -41.837,-294.328 -74.584,-408.94c-19.798,-69.292 -48.356,-120.441 -89.408,-139.432c-41.569,-19.231 -98.67,-8.112 -176.435,56.473c-61.288,50.9 -128.871,70.859 -199.71,80.824c-73.787,10.379 -151.076,10.073 -228.918,20.376c-115.833,15.331 -231.492,115.87 -264.588,236.219c-10.386,37.768 9.625,80.23 50.905,120.978c85.825,84.719 262.983,166.463 373.823,195.737c73.523,19.419 190.646,100.321 259.021,168.858c27.145,27.209 46.888,51.71 50.586,69.517c1.957,9.42 0.537,20.893 -2.917,34.174c-6.072,23.347 -18.603,51.338 -35.027,82.857c-66.931,128.449 -197.006,312.224 -245.918,476.694c-36.743,123.552 -38.878,279.189 -27.869,441.927c16.266,240.459 61.091,496.612 61.091,685.293c0,166.358 24.836,694.766 141.715,1013.6c30.82,84.072 68.193,153.764 112.703,199.442c31.481,32.308 66.644,52.902 105.508,59.273c175.603,28.788 313.344,-7.567 446.117,-66c129.72,-57.089 254.592,-135.598 406.852,-192.971c168.003,-63.306 359.857,-97.166 543.673,-148.52c187.025,-52.251 365.698,-122.608 503.997,-257.933c57.601,-56.362 170.304,-149.116 172.32,-285.78c0.636,-43.17 -64.227,-284.479 -169.465,-582.716c-157.229,-445.576 -404.117,-1018.81 -650.164,-1247.08c-291.527,-270.466 -731.056,-383.221 -906.135,-423.748c-36.532,-8.456 -68.187,-16.102 -70.643,-16.696Zm-1088.03,-318.066c29.659,-107.852 133.016,-198.274 236.821,-212.013c77.934,-10.315 155.313,-10.021 229.187,-20.413c76.824,-10.806 149.898,-32.989 216.363,-88.189c33.135,-27.519 61.492,-44.591 86.134,-52.502c21.466,-6.891 39.58,-6.499 55.009,0.639c16.049,7.424 28.98,21.682 40.166,40.525c12.483,21.029 22.55,47.582 31.187,77.812c32.615,114.147 44.402,278.808 74.162,407.303c21.13,91.235 52.532,164.415 102.825,194.075c1.832,1.081 6.521,2.942 14.064,4.89c12.19,3.147 34.671,8.034 65.24,15.11c172.081,39.833 604.447,149.875 890.981,415.709c243.268,225.693 485.948,793.188 641.401,1233.73c103.218,292.511 168.193,528.791 167.569,571.132c-0.913,61.892 -27.551,113.51 -60.17,156.156c-34.105,44.588 -74.858,79.603 -102.132,106.291c-134.259,131.371 -308.093,198.929 -489.654,249.654c-184.771,51.621 -377.582,85.797 -546.457,149.431c-152.871,57.604 -278.286,136.337 -408.527,193.655c-127.188,55.975 -259.079,91.192 -427.297,63.615c-40.605,-6.657 -75.764,-32.864 -106.849,-72.371c-33.058,-42.015 -61.236,-98.851 -85.457,-164.923c-115.55,-315.202 -139.678,-837.657 -139.678,-1002.12c-0,-189.297 -44.849,-446.298 -61.168,-687.543c-10.715,-158.398 -9.201,-309.919 26.562,-430.175c48.334,-162.526 177.389,-343.862 243.529,-470.793c17.795,-34.15 31.147,-64.573 37.726,-89.87c4.981,-19.149 6.115,-35.761 3.294,-49.343c-4.512,-21.722 -26.511,-53.089 -59.625,-86.281c-72.219,-72.389 -196.451,-157.032 -274.107,-177.543c-106.336,-28.085 -276.581,-105.956 -358.918,-187.232c-16.439,-16.227 -29.266,-32.48 -36.806,-48.544c-6.423,-13.685 -8.899,-27.06 -5.375,-39.872Z" style="fill:#7e4021;"/><path d="M2345.47,5215.8c34.66,-12.872 79.429,-40.685 97.43,-53.01c48.202,-33.004 91.289,-72.883 129.725,-116.807c90.984,-103.976 205.959,-374.868 375.039,-331.545c41.934,10.744 77.316,40.037 98.993,77.457c210.773,363.855 -548.95,801.365 -839.873,799.586c-63.619,-0.389 -146.389,-10.893 -179.853,-66.877c-76.359,-127.742 176.95,-256.221 318.539,-308.804Z" style="fill:#fff;"/><path d="M2339.67,5200.18c-86.81,32.239 -214.543,92.704 -286.126,163.869c-52.899,52.589 -75.513,111.233 -40.917,169.111c15.241,25.498 39.239,42.991 67.456,54.495c39.097,15.939 86.455,20.251 126.601,20.496c177.362,1.085 526.619,-157.695 731.058,-365.409c140.027,-142.271 211.352,-307.261 123.338,-459.197c-23.901,-41.261 -63.04,-73.401 -109.277,-85.248c-73.451,-18.821 -138.055,15.485 -194.796,72.423c-78.624,78.898 -142.154,201.702 -196.923,264.291c-37.515,42.872 -79.551,81.817 -126.598,114.031c-17.34,11.873 -60.428,38.738 -93.816,51.138l-0,-0Zm11.605,31.248c35.931,-13.344 82.382,-42.105 101.043,-54.882c49.357,-33.795 93.495,-74.607 132.851,-119.584c54.412,-62.182 117.337,-184.328 195.449,-262.712c47.755,-47.921 101.093,-79.503 162.911,-63.663c37.63,9.641 69.256,36.087 88.708,69.666c80.608,139.154 9.995,288.806 -118.252,419.107c-197.965,201.136 -535.351,356.509 -707.097,355.458c-30.358,-0.185 -65.297,-2.68 -96.626,-11.911c-28.664,-8.445 -54.414,-22.408 -69.024,-46.85c-26.499,-44.331 -4.711,-88.088 35.807,-128.369c68.521,-68.12 191.133,-125.4 274.23,-156.26l-0,-0Z" style="fill:#7e4021;"/><path d="M2983.85,4891.63l1.03,0.045l1.279,0.041l1.005,0.082c1.366,0.182 2.789,0.502 4.468,0.967c-2.25,-0.624 -4.512,-0.984 -6.752,-1.09c-1.66,-0.033 -3.345,0.074 -5.041,0.321c1.501,-0.219 2.795,-0.346 4.011,-0.366c-13.915,-0.253 -26.79,8.886 -30.674,22.911c-4.603,16.622 5.154,33.854 21.776,38.457c5.305,1.469 8.444,1.641 13.913,0.843c17.067,-2.491 28.9,-18.369 26.41,-35.436c-2.129,-14.586 -14.038,-25.35 -28.111,-26.607c-1.107,-0.145 -2.176,-0.2 -3.314,-0.168Z" style="fill:#7e4021;"/><path d="M2920.38,4809.61c-0.02,-0.037 -0.039,-0.075 -0.058,-0.112c-7.947,-15.308 -26.826,-21.284 -42.134,-13.338c-15.307,7.947 -21.284,26.826 -13.338,42.134c0.02,0.037 0.039,0.074 0.058,0.111c7.947,15.308 26.826,21.284 42.134,13.338c15.307,-7.946 21.284,-26.826 13.338,-42.133Z" style="fill:#7e4021;"/><path d="M2812.51,5001.7c7.778,13.29 24.398,19.109 38.993,13.008c15.913,-6.652 23.432,-24.972 16.78,-40.885c-1.998,-4.78 -5.448,-9.551 -9.574,-12.88c-13.424,-10.829 -33.115,-8.722 -43.944,4.701c-8.547,10.596 -9.035,25.095 -2.255,36.056Z" style="fill:#7e4021;"/><path d="M2934.57,5164.73l0.519,-0.161c16.38,-5.399 25.295,-23.082 19.896,-39.462c-5.399,-16.38 -23.082,-25.296 -39.462,-19.896c-1.743,0.574 -3.34,1.123 -4.998,1.904c-15.6,7.354 -22.296,25.991 -14.941,41.592c6.949,14.741 23.971,21.531 38.986,16.023Z" style="fill:#7e4021;"/><path d="M2687.6,5024.49l-0.234,-0.113c-15.783,-6.954 -34.243,0.213 -41.198,15.996c-6.954,15.784 0.213,34.244 15.997,41.198c-0.593,-0.261 -1.606,-0.766 -1.606,-0.766c0,-0 3.809,1.796 6.348,2.497c16.624,4.593 33.85,-5.175 38.443,-21.799c4.206,-15.224 -3.63,-30.951 -17.75,-37.013Z" style="fill:#7e4021;"/><path d="M2760.17,5176.44c12.175,-11.58 13.013,-30.847 1.729,-43.454c-11.504,-12.851 -31.276,-13.945 -44.127,-2.442c-1.136,1.016 -2.156,2.037 -3.145,3.184c-11.269,13.057 -9.816,32.807 3.241,44.075c12.4,10.7 30.834,9.93 42.302,-1.363Zm0.632,-0.628l-0.231,0.23l0.173,-0.166l0.058,-0.064Z" style="fill:#7e4021;"/><path d="M2743.41,4837.3c-0.862,0.221 -11.31,2.944 -15.32,5.872c-2.782,2.032 -5.732,4.717 -8.462,9.288c-8.843,14.808 -4.001,34.01 10.807,42.853c8.809,5.261 19.173,5.678 27.987,2.034c12.941,-5.213 21.225,-18.707 19.275,-33.162c-2.268,-16.806 -17.53,-28.692 -34.287,-26.885Zm23.666,54.666l-0.108,0.092l0.062,-0.051l0.046,-0.041Zm5.315,-6.048c-1.406,2.096 -3.029,3.97 -4.824,5.607c1.622,-1.448 3.255,-3.239 4.824,-5.607Zm-28.981,-48.618l0.057,-0.015c-0,-0 -0.586,0.064 -0.918,0.109l0.861,-0.094Z" style="fill:#7e4021;"/><path d="M2745.85,5308.26c-2.152,-0.785 -4.083,-1.137 -6.48,-1.2c-12.543,-1.219 -25.11,5.278 -31.03,17.234c-7.654,15.456 -1.32,34.218 14.136,41.872c6.381,3.16 9.568,3.772 16.673,3.363c17.219,-0.989 30.395,-15.772 29.406,-32.991c-0.784,-13.651 -10.238,-24.761 -22.705,-28.278Zm-6.48,-1.2c-1.139,-0.041 -2.383,-0.009 -3.806,0.072c2.13,-0.122 4.223,-0.028 6.256,0.266c2.849,0.498 5.672,1.412 8.392,2.759c-1.641,-0.813 -3.041,-1.439 -4.362,-1.897c-1.312,-0.374 -2.657,-0.664 -4.03,-0.862c-0.815,-0.146 -1.633,-0.258 -2.45,-0.338Z" style="fill:#7e4021;"/><path d="M2553.33,5245.35c-15.934,-5.531 -33.486,2.637 -39.462,18.515c-6.075,16.142 2.098,34.18 18.24,40.255c1.854,0.698 3.685,1.256 5.609,1.739c16.729,4.2 33.72,-5.971 37.92,-22.699c4.166,-16.596 -5.812,-33.451 -22.307,-37.81Z" style="fill:#7e4021;"/><path d="M2575.72,5196.32c6.201,5.013 11.704,5.836 16.232,5.98l0.115,0.011l0.691,0.032c1.581,0.089 3.17,0.053 4.749,-0.102c2.713,-0.178 5.872,-0.755 9.539,-2.497c3.129,-1.37 6.08,-3.286 8.716,-5.747c12.608,-11.769 13.289,-31.56 1.52,-44.168c-9.129,-9.781 -16.972,-9.977 -22.842,-9.996c-4.469,-0.015 -10.447,0.214 -18.378,5.878c-14.035,10.025 -17.291,29.558 -7.266,43.593c1.976,2.766 4.321,5.114 6.924,7.016Zm-2.968,-2.667c1.005,1.002 1.993,1.888 2.968,2.667c4.786,3.52 10.437,5.554 16.232,5.98l0.01,0.001l0.101,0.001c-7.032,-0.53 -13.903,-3.428 -19.311,-8.649Zm34.294,6.091c1.674,-0.789 3.453,-1.824 5.343,-3.174c-4.74,3.385 -10.106,5.256 -15.521,5.703l0.639,-0.032c3.262,-0.316 6.486,-1.145 9.539,-2.497Z" style="fill:#7e4021;"/><path d="M2358.28,5392.12c1.042,-0.187 0.54,-0.091 1.506,-0.289c16.895,-3.468 27.795,-20.001 24.327,-36.896c-3.468,-16.895 -20.001,-27.796 -36.896,-24.327c0.01,-0.002 0.005,-0.002 0.016,-0.004c-16.976,3.049 -28.283,19.306 -25.234,36.282c3.048,16.975 19.306,28.283 36.281,25.234Z" style="fill:#7e4021;"/><path d="M2550,5412.21c0.069,-2.292 -0.157,-4.667 -0.795,-7.231c-1.59,-7.098 -5.656,-13.671 -11.973,-18.309c-13.902,-10.209 -33.476,-7.21 -43.684,6.692c-3.366,4.583 -4.831,8.871 -5.575,12.844c-1.034,5.523 -0.99,11.024 1.946,18.042c6.657,15.911 24.979,23.424 40.89,16.768c11.96,-5.004 19.175,-16.6 19.191,-28.806Zm-4.501,15.772l-0.571,0.915l0.153,-0.221l0.418,-0.694Zm2.778,-5.915c-0.649,1.88 -1.487,3.718 -2.519,5.485c1.113,-1.88 1.922,-3.709 2.519,-5.485Zm0.928,-17.088c-0.384,-1.543 -0.917,-3.152 -1.629,-4.853c1.239,2.961 1.987,6.005 2.28,9.042l0.026,0.32l0.056,0.804l0.043,1.319c-0.007,0.501 -0.015,1.002 -0.023,1.503l-0.068,1.081l0.057,-0.543l0.053,-1.442l-0.029,-1.444l-0.033,-0.474l-0.006,-0.182l-0.05,-0.622l-0.018,-0.251l-0.008,-0.069c-0.121,-1.41 -0.338,-2.809 -0.651,-4.189Z" style="fill:#7e4021;"/><path d="M2382.75,5470.78l-0.109,-0.041l-0.045,-0.015l-0.054,-0.019l-0.13,-0.04c-12.516,-4.281 -26.891,-0.243 -35.196,10.94c-10.283,13.846 -7.39,33.436 6.456,43.72c7.105,5.276 14.455,5.938 14.455,5.938c0,0 -0.479,-0.069 -0.828,-0.13c16.996,2.93 33.174,-8.49 36.104,-25.487c2.642,-15.327 -6.386,-29.989 -20.653,-34.866Zm-2.891,-0.833c-0.639,-0.159 -1.287,-0.292 -1.943,-0.405c-0.436,-0.075 -1.035,-0.162 -1.035,-0.162c0,-0 1.153,0.103 2.978,0.567Z" style="fill:#7e4021;"/><path d="M2446.49,5232.17l0.017,-0.553c-0.004,-0.372 -0.009,-0.744 -0.013,-1.116l-0.046,-0.702l-0.001,-0.023l-0.003,-0.047l-0.02,-0.299l-0.023,-0.227c-1.159,-15.545 -13.798,-28.133 -29.754,-28.848c-17.231,-0.772 -31.846,12.589 -32.619,29.819c-0.099,2.22 -0.049,3.186 0.175,5.147c1.962,17.135 17.467,29.454 34.603,27.491c15.804,-1.81 27.51,-15.139 27.684,-30.642Zm-0.089,-2.967l-0.104,-0.993c0.112,0.975 0.177,1.944 0.192,2.904c0.014,0.615 0.005,1.235 -0.023,1.859l0.024,-0.803l0.01,-0.77l-0.011,-0.286l-0.041,-1.315l-0.004,-0.07l-0.043,-0.526Z" style="fill:#7e4021;"/><path d="M2174.37,5408.36c0.328,0.138 0.635,0.301 0.962,0.44c15.87,6.753 34.238,-0.649 40.991,-16.519c6.753,-15.87 -0.649,-34.237 -16.519,-40.991c-0.389,-0.165 -0.758,-0.354 -1.148,-0.518c-15.892,-6.702 -34.235,0.759 -40.937,16.651c-6.702,15.892 0.759,34.235 16.651,40.937Z" style="fill:#7e4021;"/><path d="M2221.62,5528.32l0.187,-0.048l-0.023,0.004l-0.164,0.044c-0.447,0.117 -1.602,0.411 -2.405,0.563c0.817,-0.155 1.62,-0.34 2.405,-0.563Zm-8.655,-61.384l-0.141,-0.003l-0.263,0.007l-0.228,0.003l-0.113,0.007c-9.308,0.197 -18.431,4.539 -24.412,12.584c-10.291,13.84 -7.41,33.432 6.431,43.723c10.531,7.83 26.855,5.137 27.545,5.019c15.488,-4.287 25.367,-19.835 22.325,-35.909c-2.866,-15.144 -16.237,-25.662 -31.144,-25.431Z" style="fill:#7e4021;"/><path d="M2048.32,5456.3c-16.001,2.862 -27.294,17.694 -25.521,34.102c1.853,17.148 17.279,29.565 34.426,27.712c0.984,-0.107 2.632,-0.406 3.363,-0.546c16.692,-3.261 27.752,-19.351 24.748,-36.156c-3.036,-16.978 -19.284,-28.298 -36.262,-25.263l-0.754,0.151Zm12.268,61.268l-0.515,0.106c0.301,-0.054 0.883,-0.173 0.883,-0.173l-0.368,0.067Z" style="fill:#7e4021;"/><path d="M2895.85,5258.65c0.135,-16.856 -13.215,-30.864 -30.166,-31.447c-17.237,-0.592 -31.712,12.922 -32.305,30.159c-0.085,2.487 0.021,5.107 0.447,7.573c2.938,16.995 19.121,28.408 36.116,25.47c15.534,-2.685 26.404,-16.435 25.908,-31.755Z" style="fill:#7e4021;"/><path d="M3014.09,5013.36c-0.821,0.015 -9.062,0.2 -12.77,1.332c-16.496,5.034 -25.802,22.514 -20.767,39.01c4.271,13.997 17.503,22.817 31.494,22.088c17.003,0.17 31.076,-13.355 31.525,-30.417c0.446,-16.928 -12.684,-31.084 -29.482,-32.013l0.067,-0.002c-0,-0 -0.68,-0.038 -1.001,-0.047l0.934,0.049Z" style="fill:#7e4021;"/><path d="M3076.59,4862.74c-1.803,-0.672 6.045,-66.718 -31.804,-165.251c-41.846,-108.94 -138.16,-176.431 -257.362,-167.485c-199.328,14.961 -324.349,204.775 -399.085,370.985c-14.903,33.143 -30.189,99.209 -62.481,121.304c-1.835,1.255 8.468,-36.66 10.153,-41.844c10.504,-32.327 23.707,-75.225 0.43,-105.234c-47.117,-60.743 -155.087,-48.704 -215.554,-20.893c-58.786,27.039 -244.126,110.639 -192.733,195.465c19.031,31.413 56.093,51.227 91.058,58.571c4.621,0.971 32.602,2.064 31.186,7.27c-9.916,36.462 -49.384,53.305 -64.982,125.235c-33.888,156.274 29.793,259.621 29.585,257.95c-8.421,-67.416 13.317,-79.997 25.786,-96.304c36.326,-47.505 85.84,-88.003 139.604,-112.852c111.909,-51.723 238.677,-101.132 333.077,-182.62c89.667,-77.403 204.54,-331.69 341.617,-387.851c69.863,-28.624 190.489,2.764 221.505,143.554Z" style="fill:#c5e8f0;"/><path d="M2365.95,4912.16c2.451,-6.629 4.828,-12.733 7.197,-18.001c77.052,-171.361 207.533,-365.345 413.039,-380.769c126.923,-9.527 229.61,62.131 274.167,178.127c33.62,87.522 32.756,161.615 32.609,168.106c1.119,5.814 -0.941,11.799 -5.427,15.699c-4.604,4.003 -11.029,5.171 -16.748,3.043c-1.462,-0.544 -8.204,-3.362 -10.439,-12.057l-0.025,0.022c-28.033,-127.248 -135.767,-157.587 -198.911,-131.717c-66.152,27.103 -126.247,102.722 -181.322,180.195c-57.959,81.53 -110.184,165.54 -155.723,204.85c-95.549,82.481 -223.702,132.78 -336.975,185.133c-51.367,23.74 -98.65,62.46 -133.356,107.847c-5.536,7.239 -13.417,13.444 -18.692,25.529c-5.166,11.837 -7.458,29.271 -3.796,58.585c1.105,8.845 -3.636,13.245 -6.558,15.43c-3.748,2.804 -9.068,4.993 -16.216,2.116c-0.422,-0.17 -5.475,-2.161 -9.859,-9.69c-10.322,-17.725 -61.709,-120.025 -29.778,-267.272c10.067,-46.423 29.223,-71.589 45.364,-92.706c4.836,-6.327 9.432,-12.139 13.132,-18.246c-5.284,-0.696 -10.407,-1.409 -11.838,-1.71c-39.247,-8.243 -80.524,-30.985 -101.887,-66.246c-24.755,-40.858 -6.914,-82.326 31.556,-118.447c49.263,-46.256 132.208,-84.118 168.468,-100.795c38.773,-17.834 95.835,-29.52 146.148,-22.057c35.756,5.304 68.067,20.194 89.539,47.875c10.867,14.009 15.609,30.19 16.331,47.156Zm681.332,-151.723c-55.692,-68.394 -142.383,-79.663 -198.507,-56.669c-57.124,23.405 -111.018,79.31 -160.54,143.762c-70.531,91.796 -132.429,200.955 -185.649,246.896c-93.25,80.495 -218.632,129.014 -329.179,180.107c-56.161,25.957 -107.905,68.233 -145.85,117.857c-6.935,9.068 -16.156,17.306 -22.763,32.443c-0.228,0.523 -0.454,1.055 -0.675,1.595c-11.342,-43.156 -18.885,-106.037 -2.406,-182.028c8.651,-39.894 25.399,-61.38 39.27,-79.527c11.421,-14.94 20.979,-28.217 25.507,-44.866c2.03,-7.463 0.327,-16.89 -11.475,-22.223c-7.39,-3.34 -28.219,-4.86 -32.368,-5.731c-30.684,-6.445 -63.528,-23.331 -80.23,-50.897c-16.38,-27.036 0.409,-52.974 25.864,-76.875c46.578,-43.735 125.296,-79.043 159.579,-94.812c33.787,-15.54 83.487,-25.871 127.329,-19.368c27.015,4.007 51.869,14.42 68.092,35.334c8.967,11.561 10.339,25.738 9.025,40.005c-1.589,17.273 -7.238,34.786 -12.137,49.864c-1.664,5.119 -10.76,39.387 -11.14,45.174c-0.552,8.398 3.84,12.648 5.453,14.124c2.872,2.629 6.161,3.985 9.746,4.32c3.122,0.292 6.972,-0.079 11.05,-2.869c15.025,-10.28 27.364,-28.384 37.296,-49.307c12.861,-27.09 21.996,-58.95 30.974,-78.917c72.422,-161.062 191.978,-346.702 385.133,-361.2c111.48,-8.367 201.42,54.958 240.556,156.841c7.895,20.554 13.731,39.646 18.045,56.967Z" style="fill:#7e4021;"/><path d="M2291.12,5074.96c39.247,-21.477 61.475,-59.899 73.867,-102.64c2.561,-8.835 -2.532,-18.087 -11.367,-20.649c-8.835,-2.561 -18.087,2.532 -20.648,11.367c-9.889,34.107 -26.534,65.542 -57.853,82.68c-8.07,4.416 -11.036,14.552 -6.62,22.621c4.415,8.07 14.552,11.036 22.621,6.621Z" style="fill:#7e4021;"/><path d="M2087.9,5082.88c-4.678,2.469 -9.316,5.034 -13.936,7.608c-12.838,7.153 -32.088,21.893 -43.728,30.891c-7.277,5.626 -8.618,16.101 -2.993,23.379c5.626,7.278 16.102,8.619 23.38,2.993c10.556,-8.16 27.922,-21.658 39.565,-28.144c4.4,-2.452 8.816,-4.896 13.271,-7.247c8.135,-4.294 11.254,-14.385 6.96,-22.52c-4.294,-8.135 -14.384,-11.253 -22.519,-6.96Z" style="fill:#7e4021;"/><path d="M3055.93,4693.4c-33.226,-35.573 -110.117,-52.624 -156.118,-53.543c-9.197,-0.184 -16.812,7.133 -16.996,16.33c-0.184,9.197 7.133,16.812 16.33,16.996c23.962,0.479 57.703,5.632 87.094,16.345c18.13,6.609 34.654,15.195 45.33,26.625c6.279,6.722 16.834,7.082 23.557,0.803c6.722,-6.279 7.082,-16.834 0.803,-23.556Z" style="fill:#7e4021;"/><path d="M2809.37,4655.46c-1.513,0.768 -11.879,6.026 -13.766,7.043c-9.089,4.896 -17.767,10.452 -26.546,15.87c-7.828,4.831 -10.261,15.108 -5.43,22.936c4.831,7.828 15.109,10.261 22.937,5.43c8.221,-5.075 16.334,-10.304 24.846,-14.889c2.07,-1.115 12.243,-6.198 14.174,-7.258c4.277,-2.346 5.817,-5.041 6.08,-5.429c3.05,-4.484 3.107,-8.545 2.765,-11.375c-0.591,-4.889 -2.89,-8.982 -7.423,-11.948c-5.497,-3.596 -12.34,-3.521 -17.637,-0.38Z" style="fill:#7e4021;"/><path d="M2568.63,4916.87l-6.316,9.138c-28.379,40.907 -57.607,80.822 -92.893,116.145c-6.501,6.508 -6.496,17.07 0.012,23.571c6.508,6.5 17.069,6.495 23.57,-0.013c36.696,-36.733 67.188,-78.163 96.699,-120.703c0.687,-0.99 9.145,-13.227 10.241,-16.313c3.246,-9.141 -1.163,-15.051 -3.621,-17.619c-6.359,-6.646 -16.918,-6.879 -23.564,-0.52c-1.905,1.823 -3.283,3.99 -4.128,6.314Z" style="fill:#7e4021;"/><path d="M2233.97,5180.23c-129.982,55.391 -206.797,104.748 -263.466,186.575c-5.238,7.562 -3.35,17.953 4.212,23.191c7.562,5.237 17.954,3.349 23.191,-4.213c53.431,-77.15 126.577,-122.662 249.131,-174.888c8.462,-3.606 12.404,-13.404 8.798,-21.866c-3.606,-8.463 -13.404,-12.405 -21.866,-8.799Z" style="fill:#7e4021;"/><path d="M2433.77,5073.79c-1.151,1.126 -5.454,5.336 -5.733,5.585c-4.712,4.2 -9.515,8.188 -14.568,11.973c-14.941,11.187 -29.296,21.956 -45.663,31.002c-8.051,4.45 -10.974,14.599 -6.524,22.65c4.45,8.05 14.599,10.974 22.649,6.524c17.728,-9.799 33.335,-21.377 49.517,-33.495c5.816,-4.355 11.348,-8.939 16.771,-13.773c0.524,-0.468 8.023,-7.696 9.269,-9.202c7.567,-9.146 2.536,-17.815 1.644,-19.323c-2.077,-3.513 -5.161,-6.195 -9.66,-7.515c-6.676,-1.959 -13.604,0.459 -17.702,5.574Z" style="fill:#7e4021;"/><path d="M1813.25,3535.31c74.079,226.025 181.724,706.98 337.462,1293.7c7.049,26.559 1.238,-14.886 -164.239,95.144c-31.654,21.047 -264.62,-969.975 -362.379,-1336.6" style="fill:#ebccb8;"/><path d="M2133.09,4827.58c-18.752,5.627 -63.84,22.918 -142.653,74.033c-6.158,-14.726 -18.094,-44.559 -28.504,-78.125c-78.933,-254.525 -243.569,-947.081 -321.736,-1240.23c-2.37,-8.888 -11.51,-14.18 -20.398,-11.81c-8.888,2.37 -14.18,11.51 -11.81,20.398c88.127,330.496 286.097,1167.54 347.893,1316.28c4.571,11.003 8.697,18.744 11.946,23.068c3.293,4.383 6.684,6.798 9.359,8.068c6.865,3.258 13.021,2.412 18.513,-1.24c113.638,-75.561 150.537,-78.28 160.068,-82.063c5.557,-2.206 8.501,-5.248 10.433,-8.321c1.87,-2.975 3.022,-6.395 2.984,-10.779c-0.021,-2.505 -0.804,-6.251 -2.366,-12.135c-155.849,-587.138 -263.601,-1068.43 -337.732,-1294.62c-2.865,-8.741 -12.287,-13.512 -21.028,-10.647c-8.741,2.865 -13.512,12.288 -10.647,21.029c73.788,225.14 180.875,703.41 335.678,1287.08Z" style="fill:#7e4021;"/><path d="M2772.12,3115.52c9.261,-10.331 17.601,-21.417 25.224,-32.999c24.208,-36.779 40.499,-70.32 38.246,-115.367c-0.459,-9.188 -8.291,-16.273 -17.478,-15.814c-9.187,0.459 -16.273,8.291 -15.814,17.478c1.869,37.381 -12.709,64.857 -32.797,95.376c-6.715,10.202 -14.045,19.978 -22.202,29.077c-6.14,6.85 -5.563,17.396 1.286,23.535c6.85,6.14 17.396,5.564 23.535,-1.286Z" style="fill:#7e4021;"/><path d="M14.826,444.79c6.847,3.131 14.416,4.905 21.753,6.402c17.798,3.632 35.853,4.534 53.975,3.492c60.128,-3.455 115.824,-20.957 170.28,-45.93c68.825,-31.561 129.121,-82.463 202.426,-103.831c68.975,-20.106 155.839,-16.2 232.896,-28.992c83.761,-13.906 156.218,-46.657 188.662,-140.267c10.992,-31.713 18.759,-78.779 2.05,-110.678c-4.268,-8.148 -14.349,-11.299 -22.497,-7.03c-8.149,4.268 -11.299,14.348 -7.031,22.497c12.738,24.318 4.363,60.119 -4.017,84.295c-27.753,80.076 -90.975,106.405 -162.626,118.299c-78.354,13.008 -166.63,9.43 -236.766,29.875c-74.864,21.823 -136.703,73.3 -206.991,105.533c-50.645,23.225 -102.379,39.737 -158.298,42.951c-15.241,0.876 -30.43,0.18 -45.398,-2.874c-4.889,-0.998 -9.994,-1.97 -14.557,-4.056c-8.365,-3.825 -18.262,-0.139 -22.087,8.226c-3.826,8.366 -0.139,18.263 8.226,22.088Z" style="fill:#7e4021;"/><path d="M2783.67,2891.1c0.458,3.573 2.075,7.02 4.84,9.736c6.563,6.446 17.124,6.351 23.57,-0.211c0.336,-0.342 6.413,-6.606 3.877,-17.93c-3.351,-14.962 -22.271,-89.004 -29.286,-110.299c-2.878,-8.737 -12.307,-13.494 -21.044,-10.616c-8.737,2.878 -13.494,12.308 -10.616,21.045c6.815,20.687 25.163,92.62 28.418,107.155l0.241,1.12Z" style="fill:#7e4021;"/><path d="M1742.26,2242.05c61.111,88.641 128.367,102.528 170.888,77.558c42.325,-24.854 65.818,-92.467 37.183,-178.078c-2.917,-8.724 -12.369,-13.437 -21.092,-10.52c-8.724,2.918 -13.437,12.369 -10.519,21.093c13.77,41.171 14.069,77.329 4.338,103.988c-5.708,15.637 -14.85,27.762 -26.789,34.773c-14.611,8.58 -33.09,9.01 -53.158,0.329c-23.593,-10.206 -48.721,-32.256 -73.408,-68.063c-5.221,-7.573 -15.608,-9.483 -23.182,-4.262c-7.573,5.221 -9.482,15.609 -4.261,23.182Z" style="fill:#7e4021;"/><path d="M1108.4,1637.79c4.39,-104.902 118.544,-158.381 209.106,-62.603c102.396,108.292 36.811,173.339 62.061,258.748c18.603,62.924 126.607,105.975 152.289,157.405c39.659,79.42 -7.578,159.144 6.884,229.903c17.445,85.354 107.111,127.156 54.91,212.514c-43.925,71.823 -147.952,65.321 -209.123,-44.279c-57.279,-102.627 -81.634,-139.108 -82.875,-223.684c-0.198,-13.506 80.957,-113.372 71.037,-127.345c-21.596,-30.42 -145.455,-16.439 -155.318,-28.071c-58.342,-68.807 -25.968,-128.443 -31.785,-179.91c-8.06,-71.299 -80.49,-113.728 -77.186,-192.678Z" style="fill:#7e4021;"/><path d="M1797.22,1367.71c4.389,-104.902 118.544,-158.381 209.106,-62.603c102.396,108.292 36.811,173.339 62.061,258.748c18.603,62.924 126.607,105.975 152.289,157.405c39.659,79.42 -7.578,159.144 6.884,229.903c17.445,85.354 107.111,127.156 54.91,212.514c-43.925,71.823 -147.952,65.321 -209.123,-44.279c-57.279,-102.627 -81.634,-139.108 -82.875,-223.684c-0.198,-13.506 80.957,-113.372 71.037,-127.345c-21.597,-30.42 -145.456,-16.439 -155.319,-28.071c-58.341,-68.807 -25.967,-128.443 -31.784,-179.91c-8.06,-71.299 -80.49,-113.728 -77.186,-192.678Z" style="fill:#7e4021;"/><g id="Arm-07-Point"></g><path d="M1492.29,3143.7c-4.071,38.832 -25.407,110.328 -56.726,135.144c-40.989,32.478 -117.602,27.419 -139.085,78.917c-36.084,86.499 50.185,192.381 142.573,172.875c84.473,-17.835 72.548,-124.444 138.44,-160.118c51.932,-28.116 118.398,-6.648 173.589,-30.734c74.397,-32.467 137.942,-88.545 204.306,-134.289c72.909,-50.255 150.113,-94.192 219.531,-149.443c93.214,-74.189 223.906,-195.14 160.277,-329.109c-13.53,-28.485 -40.259,-51.503 -67.28,-66.712c-143.789,-80.935 -326.029,68.069 -440,143.935c-124.985,83.197 -318.633,177.45 -335.625,339.534Z" style="fill:#e4ac87;"/><path d="M1475.71,3141.97c-2.302,21.957 -10.5,54.987 -23.034,82.957c-7.642,17.051 -16.671,32.307 -27.467,40.861c-19.115,15.146 -46.758,21.01 -71.906,29.621c-31.682,10.849 -59.588,25.686 -72.21,55.942c-20.456,49.037 -6.823,103.675 25.61,143.181c32.462,39.543 83.366,63.486 135.788,52.418c48.119,-10.159 69.786,-44.549 87.803,-82.534c14.297,-30.141 25.345,-63.11 55.129,-79.235c23.721,-12.843 50.867,-13.822 78.28,-14.88c32.084,-1.238 64.535,-2.358 94.04,-15.234c75.367,-32.891 139.87,-89.502 207.099,-135.842c73.223,-50.472 150.733,-94.637 220.451,-150.126c47.869,-38.099 105.216,-88.347 142.572,-146.128c39.505,-61.106 56.937,-130.415 22.38,-203.171c-14.968,-31.515 -44.264,-57.259 -74.159,-74.086c-61.78,-34.774 -130.141,-30.8 -197.801,-7.373c-95.826,33.179 -190.255,105.792 -259.609,151.958c-75.772,50.438 -176.399,105.068 -248.582,175.94c-50.476,49.56 -87.18,107.017 -94.384,175.731Zm33.152,3.475c8.042,-76.714 58.678,-136.87 121.304,-188.197c65.724,-53.867 144.899,-97.876 206.98,-139.201c67.412,-44.873 158.902,-115.958 252.045,-148.208c58.32,-20.193 117.293,-25.051 170.545,4.923c24.147,13.592 48.309,33.883 60.4,59.339c29.073,61.213 12.974,119.362 -20.264,170.772c-35.386,54.734 -89.992,102.055 -135.337,138.145c-69.119,55.013 -146.016,98.723 -218.611,148.762c-65.499,45.148 -128.086,100.691 -201.514,132.736c-25.686,11.21 -54.061,11.399 -81.992,12.477c-32.602,1.258 -64.654,3.602 -92.865,18.875c-36.114,19.552 -52.041,57.716 -69.376,94.263c-13.615,28.703 -28.211,56.528 -64.572,64.205c-39.967,8.438 -78.389,-10.806 -103.138,-40.954c-24.779,-30.183 -36.238,-71.734 -20.61,-109.197c8.865,-21.252 29.992,-29.62 52.245,-37.24c28.777,-9.854 59.934,-17.699 81.808,-35.031c14.261,-11.299 27.091,-30.832 37.184,-53.355c14.066,-31.387 23.184,-68.474 25.768,-93.114Z" style="fill:#7e4021;"/><path d="M2333.7,2730.93c-14.316,-53.013 -49.605,-83.777 -87.057,-97.571c-60.777,-22.385 -109.075,-21.989 -195.339,16.683c-92.235,41.349 -181.095,111.753 -264.921,166.591c-58.993,38.592 -154.122,103.741 -198.795,154.742c-22.903,26.147 -46.839,66.542 -55.854,107.124c-6.485,29.192 -5.261,58.45 7.81,83.402c18.83,35.944 54.19,47.847 94.446,45.587c52.464,-2.945 113.392,-30.707 144.829,-47.297c61.849,-32.641 121.082,-69.762 185.236,-97.948c74.806,-32.865 209.621,-71.536 294.499,-138.192c61.293,-48.135 97.512,-110.3 75.146,-193.121Zm-32.18,8.691c18.402,68.143 -13.122,118.61 -63.554,158.214c-82.706,64.95 -214.428,101.866 -287.319,133.891c-64.884,28.506 -124.833,65.972 -187.386,98.985c-28.509,15.045 -83.562,40.826 -131.139,43.496c-26.447,1.485 -50.68,-4.16 -63.051,-27.774c-9.502,-18.139 -9.511,-39.484 -4.797,-60.705c7.783,-35.034 28.616,-69.818 48.388,-92.389c43.072,-49.173 135.091,-111.603 191.969,-148.812c82.421,-53.918 169.62,-123.413 260.309,-164.068c75.204,-33.714 117.197,-35.336 170.183,-15.821c28.685,10.565 55.432,34.378 66.397,74.983Z" style="fill:#7e4021;"/><path d="M1471.73,3167.06c-1.696,14.204 2.476,35.447 9.992,57.06c10.672,30.688 27.655,62.184 38.605,74.193c6.198,6.797 16.748,7.283 23.545,1.085c6.797,-6.197 7.284,-16.748 1.086,-23.545c-9.2,-10.089 -22.786,-36.899 -31.752,-62.682c-5.577,-16.036 -9.636,-31.619 -8.378,-42.158c1.091,-9.134 -5.439,-17.435 -14.573,-18.526c-9.134,-1.09 -17.435,5.44 -18.525,14.573Z" style="fill:#7e4021;"/><path d="M1563.89,3338.95c16.737,12.82 35.031,25.653 55.035,32.771c8.666,3.083 18.206,-1.449 21.289,-10.115c3.084,-8.666 -1.448,-18.206 -10.114,-21.29c-16.775,-5.969 -31.906,-17.079 -45.941,-27.829c-7.303,-5.593 -17.773,-4.206 -23.366,3.097c-5.594,7.302 -4.206,17.772 3.097,23.366Z" style="fill:#7e4021;"/><path d="M1001.11,3460.43c0.47,-0.032 93.796,-200.451 285.169,-222.453c38.737,-4.454 94.739,-11.919 121.957,18.388c37.64,41.911 22.535,62.196 40.851,79.411c54.312,51.046 136.376,60.589 160.305,146.128c1.71,6.11 2.545,12.329 2.048,18.681c-1.803,23.087 -16.295,42.702 -37.694,51.109c-14.757,5.797 -32.088,8.853 -47.622,4.485c-5.247,-1.475 10.951,63.035 0.915,97.639c-12.679,43.715 -67.042,43.649 -68.359,49.156c-1.706,7.131 29.604,49.04 -9.628,83.701c-31.837,28.128 -58.612,11.246 -67.797,21.187c-1.115,1.206 29.422,59.282 -31.385,89.901c-195.044,98.214 -428.519,-228.469 -348.76,-437.333Z" style="fill:#fff;"/><path d="M986.608,3452.23c-0.409,0.717 -0.764,1.471 -1.065,2.257c-50.074,131.128 16.668,306.996 123.096,404.224c73.234,66.904 164.471,96.369 248.73,53.941c20.32,-10.232 32.154,-23.207 38.987,-36.34c10.371,-19.932 8.921,-40.847 5.844,-55.387c1.794,-0.049 3.59,-0.11 5.22,-0.184c14.681,-0.668 32.9,-4.107 52.67,-21.573c31.125,-27.498 25.015,-66.399 19.29,-85.726c6.318,-1.871 14.122,-4.474 20.836,-7.571c17.812,-8.217 35.551,-22.299 42.833,-47.407c5.015,-17.292 4.503,-41.295 2.544,-62.333c-0.677,-7.28 -1.485,-14.904 -2.199,-21.276c12.51,-0.244 25.109,-3.191 36.449,-7.646c27.359,-10.748 45.91,-35.807 48.216,-65.323c0.65,-8.317 -0.375,-16.468 -2.613,-24.469c-13.252,-47.371 -42.247,-73.98 -75.803,-95.532c-29.454,-18.919 -62.737,-33.437 -89.139,-58.251c-6.627,-6.228 -6.127,-13.449 -8.456,-22.467c-3.67,-14.213 -9.943,-32.034 -31.409,-55.935c-13.413,-14.936 -32.259,-22.924 -53.39,-26.184c-27.182,-4.193 -58.313,-0.449 -82.871,2.374c-179.762,20.667 -277.151,191.496 -295.085,225.614c-1.288,2.449 -2.387,4.606 -2.685,5.194Zm29.775,14.953c0.55,-1.061 1.356,-2.623 2.415,-4.638c16.433,-31.261 104.677,-189.071 269.388,-208.008c18.502,-2.127 41.123,-5.067 62.373,-3.763c17.643,1.083 34.487,4.712 45.28,16.731c19.649,21.878 22.781,36.98 25.582,48.798c2.937,12.394 6.228,22.197 16.255,31.62c27.911,26.233 62.815,42.009 93.953,62.008c27.038,17.366 51.038,38.297 61.716,76.466c1.18,4.219 1.825,8.506 1.482,12.892c-1.301,16.658 -11.732,30.829 -27.172,36.895c-11.486,4.512 -24.927,7.353 -37.017,3.953c-5.127,-1.441 -9.579,-0.553 -13.491,1.79c-2.966,1.777 -7.456,5.517 -8.519,13.494c-0.588,4.412 0.868,17.184 2.669,33.148c2.142,18.987 4.631,43.737 -0.262,60.61c-3.625,12.498 -12.216,19.82 -21.042,24.562c-11.05,5.938 -22.698,8.277 -29.408,10.157c-6.719,1.882 -11.038,4.518 -12.976,6.36c-2.927,2.781 -4.423,5.863 -5.136,8.842c-0.737,3.082 -0.44,9.546 2.741,17.914c4.434,11.668 16.45,36.284 -7.194,57.174c-17.852,15.772 -33.928,13.193 -44.364,13.368c-11.103,0.186 -19.159,3.067 -24.639,8.998c-1.031,1.115 -6.735,7.799 -3.049,18.653c1.954,5.753 10.84,26.457 0.818,45.72c-4.209,8.089 -11.892,15.65 -24.408,21.953c-71.78,36.144 -148.87,8.215 -211.257,-48.779c-96.786,-88.42 -159.798,-247.509 -114.738,-366.918Z" style="fill:#7e4021;"/><path d="M1456.96,3344.92c-35.389,-14.323 -82.841,-13.348 -113.511,-8.467" style="fill:#fff;"/><path d="M1463.21,3329.47c-38.164,-15.446 -89.31,-14.742 -122.384,-9.478c-9.084,1.446 -15.285,9.995 -13.839,19.08c1.446,9.084 9.995,15.285 19.079,13.839c28.266,-4.498 72.023,-5.743 104.639,7.457c8.526,3.451 18.251,-0.67 21.702,-9.197c3.45,-8.526 -0.67,-18.251 -9.197,-21.701Z" style="fill:#7e4021;"/><path d="M1140.83,3554.65c-1.902,7.912 58.445,60.381 65.518,66.365" style="fill:#fff;"/><path d="M1156.93,3550.36c-1.531,-5.711 -6.06,-10.429 -12.209,-11.907c-8.944,-2.15 -17.95,3.366 -20.1,12.31c-0.602,2.506 -0.796,5.588 0.12,9.176c0.809,3.167 3.541,8.568 8.677,14.743c15.217,18.294 56.305,54.109 62.162,59.065c7.023,5.942 17.548,5.064 23.489,-1.958c5.941,-7.023 5.064,-17.548 -1.959,-23.489c-5.615,-4.752 -54.352,-52.256 -60.18,-57.94Z" style="fill:#7e4021;"/><path d="M1174.33,3483.59c-2.74,-2.096 6.242,2.979 9.513,4.076c5.499,1.844 11.098,3.387 16.773,4.586c19.164,4.049 38.49,7.475 57.753,11.016" style="fill:#fff;"/><path d="M1170.2,3499.74c2.599,1.257 6.625,3.154 8.339,3.728c6.107,2.049 12.325,3.761 18.629,5.092c19.306,4.079 38.777,7.534 58.184,11.101c9.047,1.663 17.742,-4.332 19.405,-13.379c1.663,-9.047 -4.332,-17.742 -13.379,-19.405c-19.118,-3.515 -38.301,-6.912 -57.321,-10.93c-5.048,-1.067 -10.027,-2.441 -14.919,-4.082c-2.887,-0.968 -9.876,-4.599 -10.98,-4.887c-11.092,-2.894 -16.514,4.287 -18.291,7.003c-0.923,1.413 -8.298,13.187 4.334,22.848c1.841,1.409 3.883,2.373 5.999,2.911Zm14.956,-28.817c1.194,1.019 2.212,2.177 3.042,3.432c-0.668,-1.069 -1.633,-2.248 -3.042,-3.432Z" style="fill:#7e4021;"/><path d="M1087.84,3243.88c34.484,47.339 30.4,220.852 -116.16,332.67c-33.269,25.383 -79.509,26.976 -105.192,-2.6c-30.215,-34.795 -30.52,-110.541 -7.021,-196.611c25.887,-94.815 151.684,-238.735 228.373,-133.459Z" style="fill:#fff;"/><path d="M1101.31,3234.06c-18.354,-25.197 -39.382,-38.002 -61.011,-42.197c-21.534,-4.177 -44.059,0.268 -66.012,11.313c-59.012,29.689 -114.318,109.037 -130.899,169.766c-14.745,54.009 -20.307,104.154 -15.749,143.47c3.356,28.943 12.306,52.385 26.264,68.458c31.238,35.973 87.421,35.796 127.886,4.923c107.857,-82.289 141.996,-196.526 140.531,-274.633c-0.679,-36.154 -9.263,-64.975 -21.009,-81.1l-0.001,-0Zm-26.942,19.627c12.245,16.81 17.737,51.73 13.122,93.711c-7.408,67.393 -42.372,152.151 -125.92,215.894c-26.085,19.901 -62.362,22.912 -82.499,-0.277c-10.215,-11.764 -15.864,-29.259 -18.32,-50.442c-4.159,-35.871 1.34,-81.575 14.794,-130.851c14.483,-53.049 62.175,-122.835 113.723,-148.769c14.901,-7.497 30.067,-11.202 44.683,-8.367c14.521,2.817 28.094,12.185 40.417,29.101Z" style="fill:#7e4021;"/><path d="M863.212,2382.87c13.124,16.423 -226.561,293.029 -228.428,497.875c-1.199,131.541 158.952,262.503 229.078,320.874c34.631,28.825 89.937,56.083 117.091,92.704c42.076,56.746 -7.283,180.705 -88.007,183.497c-19.5,0.674 -57.263,-18.253 -65.267,-21.954c-233.86,-108.159 -433.721,-362.112 -436.787,-538.209c-4.89,-280.932 176.663,-572.647 275.951,-643.625" style="fill:#ebccb8;"/><path d="M846.614,2384.34c-1.884,3.675 -8.322,15.961 -15.992,27.988c-33.045,51.818 -101.916,148.628 -152.096,253.397c-34.338,71.691 -59.791,147.123 -60.408,214.867c-0.51,55.978 25.842,112.092 63.146,162.97c53.491,72.953 129.144,135.248 171.936,170.865c33.721,28.068 87.924,54.163 114.365,89.822c17.893,24.131 14.821,62.569 0.218,95.256c-14.545,32.554 -41.224,60.475 -75.413,61.657c-6.166,0.213 -14.557,-2.427 -22.913,-5.41c-15.251,-5.445 -30.162,-12.878 -34.781,-15.014c-137.564,-63.623 -263.085,-178.751 -342.175,-297.924c-51.777,-78.017 -83.764,-157.636 -84.944,-225.448c-4.783,-274.724 171.885,-560.367 268.979,-629.776c7.483,-5.35 9.215,-15.768 3.866,-23.251c-5.349,-7.483 -15.768,-9.216 -23.251,-3.866c-101.482,72.546 -287.921,370.333 -282.923,657.473c1.272,73.066 34.711,159.238 90.499,243.3c82.255,123.943 212.887,243.577 355.956,309.746c8.896,4.114 51.166,24.233 72.839,23.483c46.54,-1.609 84.895,-37.058 104.694,-81.373c19.741,-44.185 20.312,-96.087 -3.875,-128.707c-27.869,-37.584 -84.275,-66.004 -119.816,-95.587c-41.361,-34.427 -114.677,-94.443 -166.379,-164.956c-32.825,-44.768 -57.145,-93.7 -56.696,-142.956c0.577,-63.358 25.024,-133.723 57.138,-200.772c49.497,-103.341 117.544,-198.762 150.139,-249.873c12.728,-19.959 20.128,-34.525 21.303,-41.358c1.322,-7.683 -1.051,-12.991 -3.798,-16.429c-5.742,-7.186 -16.238,-8.358 -23.424,-2.615c-4.526,3.616 -6.666,9.119 -6.194,14.491Z" style="fill:#7e4021;"/><path d="M1093.02,726.518c-1.794,4.94 -11.491,31.547 -13.204,34.452c-41.353,70.147 -110.52,121.42 -187.276,147.005c-43.379,14.46 -96.633,29.585 -143.112,29.585c-9.199,-0 -16.667,7.468 -16.667,16.667c-0,9.198 7.468,16.666 16.667,16.666c49.872,0 107.107,-15.779 153.652,-31.295c84.292,-28.097 160.039,-84.668 205.451,-161.7c2.622,-4.446 17.179,-40.309 17.975,-49.191c0.795,-8.863 -3.588,-13.773 -6.239,-15.962c-7.094,-5.856 -17.607,-4.852 -23.464,2.241c-2.776,3.362 -4.011,7.493 -3.783,11.532Z" style="fill:#7e4021;"/><path d="M446.81,391.537c0.322,-2.092 0.245,-4.28 -0.29,-6.463c-2.188,-8.934 -11.218,-14.411 -20.153,-12.223c-8.125,1.99 -17.396,10.038 -12.705,26.015c3.881,13.217 24.357,43.842 25.677,45.369c12.009,13.892 25.738,26.186 39.771,37.979c42.896,36.046 93.417,59.726 141.072,88.553c48.984,29.631 93.368,66.773 134.819,106.116c6.671,6.333 17.229,6.057 23.562,-0.615c6.332,-6.671 6.057,-17.229 -0.615,-23.562c-43.181,-40.985 -89.484,-79.593 -140.513,-110.46c-46.183,-27.937 -95.31,-50.619 -136.88,-85.551c-12.681,-10.657 -25.147,-21.705 -35.998,-34.258c-0.814,-0.941 -13.755,-23.827 -17.747,-30.9Zm-9.34,12.566c-0.999,0.472 -2.059,0.851 -3.173,1.124c1.141,-0.279 2.198,-0.655 3.173,-1.124Z" style="fill:#7e4021;"/><path d="M830.131,729.507c-0.167,-0.298 -0.346,-0.59 -0.536,-0.878c-5.052,-7.687 -15.395,-9.825 -23.082,-4.773c-0.102,0.068 -12.766,10.432 -4.567,23.423c2.172,3.441 13.188,20.65 14.104,22.131c4.838,7.823 15.118,10.247 22.941,5.409c7.824,-4.838 10.247,-15.118 5.409,-22.941c-0.926,-1.499 -14.265,-22.389 -14.265,-22.389l-0.004,0.018Z" style="fill:#7e4021;"/><path d="M739.221,343.039c0.591,3.447 1.539,8.626 2.177,10.696c2.828,9.17 6.149,18.168 9.645,27.102c9.261,23.665 19.914,46.782 31.097,69.594c32.674,66.647 83.902,126.875 109.109,196.894c3.116,8.655 12.672,13.152 21.327,10.036c8.655,-3.116 13.152,-12.672 10.036,-21.327c-25.616,-71.155 -77.337,-132.548 -110.542,-200.277c-10.779,-21.985 -21.06,-44.259 -29.986,-67.068c-3.197,-8.168 -6.247,-16.391 -8.833,-24.777c-0.73,-2.368 -1.345,-7.928 -1.883,-10.602c-0.58,-2.881 -1.423,-4.897 -1.893,-5.826c-4.363,-8.619 -11.524,-9.381 -15.453,-9.275c-2.406,0.065 -14.653,0.619 -16.368,15.675c-0.372,3.259 0.225,6.407 1.567,9.155Zm30.231,-0.514l-0.129,0.275l0.05,-0.095l0.079,-0.18Zm1.03,-3.137c-0.236,1.071 -0.575,2.099 -1.003,3.077c0.407,-0.877 0.76,-1.895 1.003,-3.077Zm0.148,-0.754l-0.124,0.642l0.092,-0.426l0.032,-0.216Z" style="fill:#7e4021;"/><path d="M878.993,931.53c-2.551,2.786 -6.383,6.916 -9.099,9.666c-5.076,5.139 -9.54,10.43 -12.061,15.272c-23.179,44.535 -76.975,167.815 -73.947,252.417c1.513,42.271 16.848,75.441 51.046,90.467c15.582,6.847 29.236,7.454 41.096,3.998c16.853,-4.91 30.809,-18.704 40.993,-39.263c22.838,-46.107 27.359,-129.524 26.521,-183.412c8.597,13.876 17.793,27.69 27.319,40.917c1.768,5.264 3.449,10.583 5.028,15.968c33.318,113.64 41.773,229.169 45.304,346.888c0.276,9.194 7.965,16.435 17.159,16.159c9.194,-0.276 16.435,-7.964 16.159,-17.159c-3.057,-101.92 -9.884,-202.215 -32.533,-301.092c7.343,7.159 14.615,13.496 21.713,18.799c23.191,17.331 45.541,23.792 63.463,18.473c13.119,-3.893 25.104,-13.75 33.719,-32.625c21.36,-46.803 -4.177,-102.145 -47.776,-148.977c-42.312,-45.449 -100.115,-83.08 -136.001,-97.058c-13.431,-5.231 -24.542,-7.189 -31.822,-6.532c-2.411,0.218 -4.602,0.678 -6.584,1.332c-0.207,-0.848 -0.408,-1.622 -0.592,-2.211c-0.996,-3.184 -2.37,-5.285 -3.13,-6.279c-0.474,-0.62 -0.958,-1.185 -1.451,-1.698l-0.01,-0.039c-1.233,-4.192 -3.689,-8.332 -8.314,-11.932c-7.259,-5.65 -17.74,-4.343 -23.39,2.916c-3.435,4.414 -4.298,10.019 -2.81,15.005Zm10.55,37.186c-0.864,1.052 -1.599,2.099 -2.142,3.142c-18.707,35.943 -59.102,126.205 -68.426,201.44c-2.881,23.246 -2.849,44.951 2.443,62.707c4.413,14.807 12.69,26.576 26.923,32.83c6.994,3.073 13.039,4.063 18.363,2.512c5.339,-1.555 9.65,-5.482 13.527,-10.609c7.233,-9.565 12.552,-23.01 16.767,-38.365c17.528,-63.847 14.27,-159.057 10.94,-182.27c-1.798,-12.53 -3.704,-25.182 -6.082,-37.712c-5.287,-12.223 -9.42,-23.609 -12.313,-33.675Zm53.149,3.675c19.546,45.284 42.136,87.813 58.355,134.511c20.4,27.83 42.212,52.319 62.597,67.552c7.419,5.544 14.542,9.777 21.308,12.085c4.577,1.561 8.841,2.284 12.719,1.133c5.424,-1.609 9.315,-6.704 12.877,-14.508c10.974,-24.046 2.602,-50.572 -13.536,-76.255c-27.766,-44.187 -79.384,-85.412 -120.656,-109.332c-11.175,-6.477 -24.059,-11.712 -33.664,-15.186Z" style="fill:#7e4021;"/><path d="M925.305,1725.85c-114.09,-311.722 -80.333,-459.997 -20.098,-768.702c1.762,-9.028 -4.138,-17.788 -13.166,-19.55c-9.029,-1.761 -17.789,4.138 -19.55,13.166c-61.635,315.88 -95.23,467.576 21.512,786.543c3.161,8.638 12.741,13.084 21.379,9.922c8.638,-3.161 13.085,-12.741 9.923,-21.379Z" style="fill:#7e4021;"/></g></svg>