<?xml version="1.0" encoding="UTF-8" standalone="no"?><!DOCTYPE svg PUBLIC "-//W3C//DTD SVG 1.1//EN" "http://www.w3.org/Graphics/SVG/1.1/DTD/svg11.dtd"><svg width="100%" height="100%" viewBox="0 0 3578 3189" version="1.1" xmlns="http://www.w3.org/2000/svg" xmlns:xlink="http://www.w3.org/1999/xlink" xml:space="preserve" xmlns:serif="http://www.serif.com/" style="fill-rule:evenodd;clip-rule:evenodd;stroke-linejoin:round;stroke-miterlimit:2;"><g id="Marble-Cake-Character" serif:id="Marble Cake-Character"><path d="M30.841,1935.79c19.393,-64.166 76.641,-241.406 97.293,-305.173c42.774,-132.073 86.948,-263.604 131.978,-394.923c82.284,-239.96 155.892,-609.393 343.325,-792.502c68.809,-67.221 152.05,-54.081 168.506,-66.221c82.299,-78.235 135.577,-176.73 254.353,-207.272c87.22,-22.428 180.176,8.728 255.973,52.507c11.15,6.44 34.599,32.703 45.696,34.922c3.347,0.67 44.135,-83.354 48.668,-90.03c48.155,-70.91 94.721,-115.902 183.647,-134.967c39.337,-8.434 105.366,-2.016 156.114,29.292c60.758,37.484 96.09,106.505 101.701,105.914c20.403,-2.148 63.316,-157.672 225.652,-150.33c158.319,7.159 178.922,160.949 207.057,169.286c7.455,2.209 125.333,-113.367 260.06,-77.523c13.829,3.408 27.399,7.57 40.618,12.88c15.383,6.178 29.889,13.942 43.344,23.653c43.673,31.52 72.181,84.423 94.488,132.382c4.704,10.115 11.764,31.331 11.764,31.331c0,0 27.189,3.98 40.495,7.307c74.342,18.585 133.309,47.418 179.194,112.197c133.535,188.52 215.063,466.259 325.18,673.31c69.059,129.85 311.899,632.458 314.312,776.068c12.494,743.375 -1044.1,1200.92 -1652.49,1276.41c-374.137,46.429 -776.509,2.422 -1122.59,-151.825c-409.242,-182.399 -850.485,-569.964 -754.343,-1066.7Z" style="fill:#c48464;"/><path d="M1819.04,141.553c-15.932,-22.24 -52.125,-68.542 -93.895,-94.312c-54.717,-33.757 -125.945,-40.497 -168.359,-31.404c-93.764,20.103 -143.165,67.133 -193.94,141.901c-3.119,4.591 -28.714,53.527 -40.567,76.266l-1.207,-0.985c-11.051,-9.365 -23.233,-21.064 -30.467,-25.242c-79.445,-45.887 -177.042,-77.724 -268.459,-54.217c-62.535,16.08 -107.963,49.826 -148.455,90.072c-37.884,37.655 -71.321,81.121 -111.681,119.774c-1,0.316 -3.262,0.995 -4.975,1.338c-4.9,0.98 -10.96,1.743 -17.917,2.659c-36.868,4.854 -95.785,13.517 -147.328,63.871c-76.457,74.693 -134.58,179.643 -181.888,294.53c-69.716,169.305 -116.092,360.239 -165.556,504.487c-45.06,131.409 -89.265,263.031 -132.068,395.194c-20.673,63.832 -77.978,241.255 -97.391,305.486c-0.164,0.544 -0.301,1.097 -0.409,1.655c-97.654,504.547 348.242,899.82 763.921,1085.09c348.81,155.464 754.34,199.937 1131.43,153.142c367.555,-45.613 897.542,-229.794 1260.03,-531.452c244.065,-203.106 412.147,-459.4 407.065,-761.783c-0.743,-44.217 -23.273,-121.708 -56.954,-211.968c-76.842,-205.924 -210.798,-480.432 -259.308,-571.646c-110.428,-207.636 -192.383,-486.065 -326.295,-675.118c-48.396,-68.323 -110.341,-99.13 -188.751,-118.732c-8.538,-2.135 -22.567,-4.538 -32.067,-6.067c-2.619,-7.393 -6.283,-17.324 -9.123,-23.431c-23.458,-50.433 -53.92,-105.721 -99.847,-138.868c-14.556,-10.506 -30.243,-18.92 -46.885,-25.604c-13.9,-5.583 -28.164,-9.974 -42.704,-13.562c-119.705,-31.758 -227.154,48.758 -262.066,73.171c-0.262,-0.369 -0.511,-0.735 -0.737,-1.087c-4.168,-6.494 -8.614,-15.184 -13.862,-25.098c-27.591,-52.133 -74.762,-133.867 -193.825,-139.251c-121.82,-5.509 -181.338,73.792 -213.33,123.103c-4.054,6.249 -8.488,12.797 -12.13,18.09Zm-1772,1798.24c19.608,-64.777 76.403,-240.608 96.947,-304.04c42.744,-131.982 86.888,-263.423 131.887,-394.652c49.277,-143.703 95.395,-333.942 164.848,-502.607c45.47,-110.425 100.87,-211.586 174.359,-283.379c44.79,-43.757 96.348,-50.448 128.385,-54.666c18.636,-2.454 32.137,-5.469 38.369,-10.066c0.556,-0.41 1.087,-0.855 1.588,-1.332c41.241,-39.205 75.224,-83.473 113.764,-121.779c36.416,-36.196 77.015,-66.969 133.257,-81.431c83.023,-21.349 171.337,9.126 243.486,50.798c7.39,4.268 20.333,17.915 31.129,26.33c7.446,5.805 14.562,9.489 19.635,10.503c2.358,0.472 11.929,1.259 19.044,-9.061c9.099,-13.2 42.595,-81.933 46.68,-87.949c45.535,-67.051 89.265,-110.006 173.353,-128.034c36.26,-7.774 97.091,-1.679 143.869,27.18c53.011,32.705 85.66,90.55 95.704,101.299c6.562,7.022 13.295,7.343 16.493,7.006c3.901,-0.411 8.336,-1.999 12.82,-5.711c4.132,-3.421 9.235,-9.942 15.099,-18.9c24.866,-37.99 73.952,-131.129 195.236,-125.645c102.586,4.64 142.096,76.626 165.869,121.544c8.461,15.987 15.396,29.041 21.844,36.456c5.02,5.774 10.309,9.12 15.361,10.617c2.607,0.772 6.969,1.473 12.612,-0.899c3.089,-1.298 9.607,-5.63 18.774,-12.166c36.158,-25.779 127.383,-91.4 229.123,-64.331c0.1,0.026 0.199,0.052 0.299,0.076c13.07,3.221 25.9,7.144 38.394,12.162c14.122,5.673 27.448,12.787 39.801,21.702c41.42,29.895 67.974,80.412 89.13,125.897c4.437,9.541 11.062,29.565 11.062,29.565c1.988,5.973 7.172,10.316 13.4,11.228c0,0 26.097,3.792 38.867,6.985c70.274,17.568 126.261,44.427 169.635,105.661c133.158,187.988 214.26,465.037 324.066,671.503c48.171,90.576 181.203,363.162 257.509,567.648c31.953,85.631 54.149,158.925 54.854,200.874c4.913,292.318 -159.117,539.256 -395.058,735.602c-357.518,297.519 -880.304,479.007 -1242.82,523.993c-371.186,46.063 -770.401,2.523 -1113.75,-150.508c-202.392,-90.206 -412.781,-231.032 -560.601,-410.835c-146.154,-177.775 -231.034,-393.807 -184.325,-636.637l0,-0.001Z" style="fill:#7e4021;"/><path d="M332.718,1243.41c-29.385,65.96 -43.224,142.535 -66.969,210.92c-3.017,8.69 1.588,18.194 10.278,21.211c8.689,3.018 18.194,-1.588 21.211,-10.277c23.442,-67.513 36.918,-143.171 65.928,-208.289c3.743,-8.402 -0.039,-18.263 -8.442,-22.007c-8.402,-3.743 -18.263,0.04 -22.006,8.442Z" style="fill:#7e4021;"/><path d="M238.156,1533.47c-1.339,3.315 -3.502,8.69 -4.336,10.846c-3.176,8.212 -6.35,16.404 -9.41,24.661c-8.936,24.118 -18.309,48.075 -27.319,72.165c-3.222,8.616 1.157,18.227 9.773,21.449c8.615,3.222 18.226,-1.157 21.449,-9.773c9.021,-24.122 18.406,-48.11 27.354,-72.259c3.005,-8.11 6.124,-16.155 9.242,-24.22c1.817,-4.697 6.599,-16.809 6.894,-18.666c1.824,-11.479 -6,-16.192 -8.954,-17.686c-1.518,-0.768 -13.986,-6.652 -22.372,6.975c-1.261,2.049 -2.025,4.266 -2.321,6.508Zm29.112,13.138l-0.228,0.256l0.109,-0.115l0.119,-0.141Zm0.581,-0.708l-0.352,0.436l0.229,-0.271l0.123,-0.165Zm0.511,-0.697l-0.312,0.429l0.252,-0.338l0.06,-0.091Z" style="fill:#7e4021;"/><path d="M2955,2695.09c2.421,-1.207 5.437,-2.764 6.674,-3.598c6.495,-4.378 12.615,-9.373 18.843,-14.117c16.534,-12.596 32.526,-25.919 48.485,-39.234c48.871,-40.775 96.3,-84.019 139.333,-130.964c6.215,-6.781 5.756,-17.332 -1.024,-23.548c-6.781,-6.216 -17.333,-5.757 -23.548,1.024c-42.032,45.853 -88.381,88.067 -136.116,127.894c-15.581,12.999 -31.188,26.015 -47.331,38.313c-5.717,4.355 -11.311,8.973 -17.274,12.992c-1.833,1.236 -6.348,3.001 -8.429,4.231c-3.517,2.078 -5.53,4.487 -6.492,5.917c-4.999,7.433 -3.522,13.99 0.193,19.236c1.588,2.241 4.972,6.66 13.254,7.231c5.262,0.362 10.125,-1.764 13.432,-5.377Zm-9.057,-27.597l0.222,0.043l-0.036,-0.008l-0.186,-0.035Zm-1.069,-0.177l0.606,0.089l-0.064,-0.013l-0.542,-0.076Zm-0.18,-0.025c-0.271,-0.033 -0.549,-0.059 -0.836,-0.079l0.836,0.079Z" style="fill:#7e4021;"/><path d="M3216.08,2450.11c39.771,-25.162 75.688,-81.851 102.506,-119.241c5.361,-7.475 3.645,-17.896 -3.83,-23.257c-7.475,-5.361 -17.896,-3.645 -23.257,3.829c-24.658,34.38 -56.672,87.364 -93.24,110.5c-7.774,4.918 -10.092,15.222 -5.174,22.995c4.918,7.774 15.222,10.092 22.995,5.174Z" style="fill:#7e4021;"/><path d="M1172.91,847.339c2.584,5.823 75.543,44.758 90.631,52.304c25.815,12.911 52.286,30.546 66.228,56.571c3.184,5.943 7.41,29.385 14.803,31.065c28.497,6.477 85.71,-74.861 185.243,-33.95c70.843,29.118 78.999,102.239 111.446,169.159c2.511,5.179 7.276,21.625 14.49,21.892c51.503,-82.399 109.616,-138.051 157.831,-161.479c127.609,-62.007 206.895,36.741 228.239,92.674c6.597,0.455 37.339,-144.864 112.163,-195.731c63.575,-43.219 135.284,-57.098 214.417,-36.078c2.437,0.647 6.266,-39.968 6.763,-48.823c2.895,-51.63 20.413,-93.466 54,-132.499c4.899,-5.694 22.257,-16.061 14.803,-16.992c-42.43,17.899 -82.415,30.087 -122.178,27.938c-89.832,-4.856 -171.118,-48.345 -261.245,-55.147c-51.153,-3.861 -102.887,27.88 -156.58,24.394c-116.401,-7.559 -143.545,-52.176 -268.124,-2.502c-61.573,24.551 -132.078,22.826 -190.669,47.641c-45.585,19.307 -84.698,61.379 -127.182,87.047c-48.321,29.194 -94.725,48.434 -145.079,72.516Z" style="fill:#9d5e3e;"/><path d="M1165.72,832.304c-8.137,3.891 -11.702,13.551 -8.043,21.796c0.947,2.133 5.799,8.162 15.18,14.203c20.879,13.445 70.926,40.093 83.23,46.246c22.831,11.418 46.662,26.519 58.991,49.535c2.198,4.102 4.853,16.675 8.776,24.408c4.493,8.856 11.181,13.711 17.025,15.04c6.035,1.371 12.836,0.949 20.372,-1.502c7.314,-2.379 15.818,-6.94 25.469,-12.553c29.707,-17.277 73.782,-46.618 136.76,-20.733c31.226,12.835 48.333,35.668 61.513,62.366c14.933,30.252 25.066,65.226 41.272,98.65c2.053,4.236 5.718,14.766 10.431,20.903c5.224,6.803 11.9,10.131 18.439,10.373c5.962,0.221 11.588,-2.763 14.75,-7.822c49.407,-79.046 104.73,-132.848 150.982,-155.322c114.875,-55.82 186.17,33.273 205.384,83.625c2.316,6.068 7.945,10.238 14.425,10.685c3.222,0.222 13.435,-1.039 19.113,-13.885c6.222,-14.075 19.935,-63.366 44.379,-110.327c15.144,-29.095 34.375,-57.495 59.188,-74.363c59.526,-40.467 126.674,-53.434 200.767,-33.753c4.6,1.222 15.549,1.927 20.585,-11.049c2.66,-6.854 6.602,-44.12 7.097,-52.949c2.678,-47.763 18.922,-86.451 49.993,-122.561c3.012,-3.501 10.988,-8.767 14.418,-12.391c3.515,-3.714 5.147,-7.448 5.764,-10.057c1.292,-5.461 0.129,-10.125 -2.556,-14.071c-2.081,-3.06 -5.768,-6.93 -13.389,-7.882c-2.903,-0.363 -5.85,0.044 -8.545,1.181c-39.899,16.832 -77.41,28.674 -114.801,26.653c-89.713,-4.85 -170.882,-48.331 -260.889,-55.124c-27.409,-2.069 -55.025,5.064 -82.929,12.583c-24.275,6.541 -48.799,13.423 -73.826,11.798c-45.52,-2.956 -77.066,-11.779 -106.344,-18.11c-47.648,-10.304 -89.745,-14.856 -169.033,16.759c-61.682,24.594 -132.3,22.916 -190.996,47.775c-46.283,19.602 -86.166,62.068 -129.301,88.129c-47.838,28.902 -93.8,47.904 -143.651,71.746Zm1228.84,-151.518c-21.873,33.765 -33.632,70.359 -36.036,113.223c-0.238,4.239 -1.93,18.613 -3.264,29.533c-77.296,-16.039 -147.715,-0.262 -210.645,42.519c-29.061,19.756 -52.277,52.462 -70.015,86.539c-15.48,29.74 -26.781,60.377 -34.636,82.734c-37.214,-58.937 -117.153,-124.039 -233.665,-67.424c-45.842,22.276 -100.637,72.194 -150.639,146.057c-15.895,-33.115 -25.996,-67.669 -40.778,-97.612c-16.721,-33.872 -39.112,-62.158 -78.73,-78.442c-66.051,-27.148 -115.297,-6.114 -150.897,13.904c-10.459,5.881 -19.576,11.634 -27.478,15.581c-1.915,0.957 -3.729,1.795 -5.458,2.442c-1.102,-2.817 -2.434,-6.35 -3.184,-8.767c-1.7,-5.484 -3.343,-10.246 -4.674,-12.73c-15.554,-29.034 -44.663,-49.203 -73.464,-63.607c-9.338,-4.67 -41.599,-21.691 -64.315,-34.857c40.865,-19.01 79.731,-36.506 119.926,-60.791c41.834,-25.275 80.176,-66.954 125.064,-85.965c58.487,-24.771 128.879,-22.999 190.342,-47.507c70.206,-27.993 107.451,-24.265 149.642,-15.141c30.616,6.62 63.628,15.703 111.229,18.793c28.666,1.862 56.855,-5.383 84.659,-12.876c24.175,-6.514 48.002,-13.322 71.747,-11.53c90.245,6.811 171.649,50.308 261.599,55.17c24.309,1.314 48.724,-2.302 73.67,-9.246Z" style="fill:#7e4021;"/><path d="M1643.83,1132.05c-1.105,2.602 -15.214,35.97 -21.869,57.602c-12.319,40.045 -21.882,80.806 -29.644,121.969c-23.086,122.425 -31.209,247.574 -22.851,371.889c14.84,220.752 69.522,518.796 182.768,769.095c76.317,168.677 179.329,315.624 313.987,403.924c7.692,5.044 18.033,2.894 23.077,-4.798c5.044,-7.692 2.894,-18.032 -4.798,-23.077c-129.768,-85.093 -228.351,-227.238 -301.897,-389.79c-111.547,-246.543 -165.261,-540.15 -179.879,-757.59c-8.168,-121.503 -0.215,-243.82 22.349,-363.476c7.531,-39.939 16.795,-79.491 28.748,-118.345c6.649,-21.613 19.02,-50.062 21.115,-55.412c2.534,-6.47 1.04,-10.73 0.903,-11.247c-1.472,-5.555 -4.81,-8.514 -7.996,-10.291c-3.802,-2.12 -8.612,-3.269 -14.474,-0.852c-4.745,1.955 -8.106,5.855 -9.539,10.399Zm8.164,19.771c3.546,1.885 7.941,2.878 13.219,0.973c-4.492,1.573 -9.257,1.1 -13.219,-0.973Zm-0.385,-0.205l0.15,0.08l-0.455,-0.257l0.305,0.177Zm-7.536,-8.827l0.238,0.622c1.417,3.438 3.855,6.15 6.82,7.928c-2.744,-1.627 -5.523,-4.179 -7.058,-8.55Zm-0.157,-0.444l0.033,0.096l-0.059,-0.184l0.026,0.088Z" style="fill:#7e4021;"/><path d="M2027.1,1079.99c-0.378,4.467 -0.776,10.661 -0.37,13.311c2.675,17.497 6.41,34.853 10.162,52.145c8.369,38.573 18.323,76.774 28.691,114.854c31.348,115.13 69.254,228.055 114.99,338.29c144.946,349.357 344.8,723.426 679.584,924.82c7.882,4.741 18.131,2.192 22.873,-5.691c4.742,-7.882 2.192,-18.131 -5.69,-22.873c-328.722,-197.747 -523.657,-565.999 -665.978,-909.03c-45.193,-108.926 -82.641,-220.511 -113.617,-334.273c-10.216,-37.52 -20.032,-75.158 -28.278,-113.165c-3.572,-16.464 -7.148,-32.985 -9.711,-49.642c0.124,-1.12 1.161,-10.572 1.159,-13.992c-0.001,-4.802 -1.307,-8.384 -2.512,-10.525c-2.863,-5.086 -7.062,-7.667 -11.844,-8.605c-3.5,-0.686 -8.819,-0.949 -14.872,3.823c-6.319,4.981 -8.061,13.629 -4.587,20.553Zm23.675,6.706l-0.056,0.033l0.034,-0.019l0.022,-0.014Zm0.803,-0.528l-0.211,0.141l0.166,-0.108l0.045,-0.033Z" style="fill:#7e4021;"/><path d="M2355.87,849.274c1.328,3.648 3.16,8.399 4.311,10.363c26.419,45.089 63.921,84.033 94.589,126.2c66.285,91.143 137.871,180.085 207.706,268.571c223.787,283.552 453.883,567.096 742.457,787.611c7.309,5.585 17.778,4.185 23.363,-3.124c5.585,-7.308 4.185,-17.777 -3.124,-23.362c-286.359,-218.821 -514.461,-500.401 -736.53,-781.776c-69.565,-88.144 -140.885,-176.734 -206.915,-267.525c-30.028,-41.289 -66.917,-79.297 -92.786,-123.446c-1.769,-3.02 -3.351,-10.001 -5.063,-13.363c-2.182,-4.284 -5.025,-6.902 -7.223,-8.312c-4.35,-2.793 -8.814,-3.365 -13.189,-2.427c-3.593,0.77 -8.345,2.665 -11.978,8.941c-4.265,7.366 -2.253,16.655 4.382,21.649Zm24.078,-4.317c0.132,-0.202 0.261,-0.412 0.387,-0.63l-0.387,0.63Z" style="fill:#7e4021;"/><path d="M2425.33,683.944c4.025,-4.884 10.51,-12.142 14.212,-14.877c14.973,-11.061 32.356,-18.861 49.529,-25.819c52.223,-21.158 104.158,-26.922 160.199,-26.922c173.029,0 357.252,77.558 459.444,216.653c5.446,7.413 15.886,9.01 23.299,3.563c7.413,-5.446 9.01,-15.886 3.564,-23.299c-108.247,-147.336 -303.026,-230.25 -486.307,-230.25c-60.439,0 -116.395,6.543 -172.715,29.361c-19.742,7.998 -39.607,17.187 -56.818,29.902c-7.772,5.741 -24.059,25.013 -25.838,28.177c-5.848,10.401 0.295,17.773 2.088,19.742c0.993,1.09 12.682,11.738 25.399,-0.41c1.772,-1.692 3.09,-3.683 3.944,-5.821Z" style="fill:#7e4021;"/><path d="M1371.48,992.261c7.278,-3.586 11.038,-12.06 8.494,-20.019c-1.137,-3.554 -11.234,-18.57 -26.585,-8.126c-7.582,5.16 -43.416,38.092 -45.743,40.355c-40.002,38.892 -77.241,80.756 -111.776,124.549c-91.626,116.189 -163.884,244.562 -212.677,384.467c-151.603,434.7 -56.156,906.14 201.625,1278.93c5.232,7.566 15.622,9.461 23.188,4.23c7.566,-5.232 9.461,-15.622 4.229,-23.188c-251.767,-364.095 -345.635,-824.435 -197.567,-1249c47.568,-136.395 118.049,-261.528 207.376,-374.802c33.63,-42.645 69.885,-83.418 108.839,-121.291c1.944,-1.89 35.455,-31.559 40.597,-36.109Zm-22.964,-9.031c1.861,5.134 5.367,8.75 11.066,10.126c-4.935,-1.393 -9.139,-5.035 -11.066,-10.126Z" style="fill:#7e4021;"/><path d="M1188.56,837.428c-7.449,-6.392 -18.494,-10.136 -30.793,-11.506c-13.569,-1.512 -28.8,-0.327 -38.644,-0.372c-154.749,-0.709 -283.164,112.983 -365.931,234.317c-214.461,314.397 -379.183,818.12 -345.745,1202.65c0.797,9.164 8.884,15.957 18.048,15.161c9.164,-0.797 15.957,-8.884 15.16,-18.048c-32.839,-377.652 129.451,-872.212 340.074,-1180.98c76.832,-112.635 194.588,-220.427 338.241,-219.768c7.632,0.035 18.745,-0.81 29.544,-0.269c7.056,0.353 14.176,0.538 18.34,4.111c6.981,5.99 17.512,5.185 23.502,-1.796c5.99,-6.981 5.185,-17.511 -1.796,-23.501Z" style="fill:#7e4021;"/><path d="M761.406,398.581c100.105,-5.599 203.242,27.862 282.675,92.127c36.57,29.586 65.52,66.692 89.916,106.661c4.793,7.852 15.058,10.335 22.909,5.543c7.852,-4.793 10.335,-15.058 5.543,-22.91c-26.383,-43.223 -57.855,-83.213 -97.402,-115.208c-85.841,-69.45 -197.321,-105.545 -305.503,-99.494c-9.184,0.513 -16.223,8.387 -15.71,17.571c0.514,9.184 8.387,16.224 17.572,15.71Z" style="fill:#7e4021;"/><path d="M1755.92,1269.87c3.609,8.267 -0.172,17.909 -8.438,21.519c-8.267,3.61 -17.91,-0.171 -21.52,-8.438c-3.609,-8.267 0.171,-17.91 8.438,-21.519c8.267,-3.61 17.91,0.171 21.52,8.438Z" style="fill:#fff;"/><path d="M1359.9,1181c-5.014,7.5 -2.996,17.658 4.504,22.672c7.499,5.013 17.658,2.995 22.671,-4.504c5.014,-7.499 2.996,-17.658 -4.504,-22.671c-7.499,-5.014 -17.658,-2.996 -22.671,4.503Z" style="fill:#fff;"/><path d="M2146.12,1078.16c-7.499,5.013 -17.658,2.995 -22.671,-4.504c-5.014,-7.499 -2.996,-17.658 4.503,-22.671c7.499,-5.014 17.658,-2.996 22.672,4.503c5.013,7.499 2.995,17.658 -4.504,22.672Z" style="fill:#fff;"/><path d="M1143.71,922.058c5.946,6.783 16.281,7.463 23.064,1.517c6.784,-5.946 7.464,-16.281 1.518,-23.064c-5.946,-6.784 -16.281,-7.464 -23.065,-1.518c-6.783,5.946 -7.463,16.281 -1.517,23.065Z" style="fill:#fff;"/><path d="M906.182,1150.7c5.946,6.783 16.281,7.463 23.065,1.517c6.784,-5.946 7.464,-16.281 1.518,-23.064c-5.946,-6.784 -16.281,-7.464 -23.065,-1.518c-6.784,5.946 -7.464,16.281 -1.518,23.065Z" style="fill:#fff;"/><path d="M2171.78,987.943c6.495,6.26 16.85,6.069 23.11,-0.426c6.26,-6.496 6.069,-16.851 -0.427,-23.111c-6.495,-6.26 -16.851,-6.068 -23.11,0.427c-6.26,6.495 -6.069,16.851 0.427,23.11Z" style="fill:#fff;"/><path d="M2707.56,669.507c0.167,9.019 7.625,16.206 16.644,16.039c9.019,-0.166 16.206,-7.624 16.039,-16.643c-0.166,-9.019 -7.624,-16.206 -16.643,-16.04c-9.019,0.167 -16.206,7.624 -16.04,16.644Z" style="fill:#fff;"/><path d="M851.479,481.353c-7.894,4.366 -17.848,1.501 -22.213,-6.394c-4.365,-7.894 -1.5,-17.847 6.394,-22.212c7.894,-4.365 17.847,-1.5 22.212,6.394c4.366,7.894 1.501,17.847 -6.393,22.212Z" style="fill:#fff;"/><path d="M1229.86,379.048c-8.669,-2.495 -13.681,-11.559 -11.186,-20.228c2.496,-8.668 11.559,-13.681 20.228,-11.185c8.669,2.495 13.681,11.559 11.186,20.227c-2.496,8.669 -11.559,13.681 -20.228,11.186Z" style="fill:#fff;"/><path d="M1717.93,1223.88c0.758,8.989 -5.924,16.902 -14.912,17.661c-8.989,0.759 -16.903,-5.923 -17.661,-14.912c-0.759,-8.989 5.923,-16.902 14.911,-17.661c8.989,-0.759 16.903,5.923 17.662,14.912Z" style="fill:#fff;"/><path d="M1405.41,1142.45c-2.335,8.714 2.844,17.683 11.557,20.018c8.713,2.335 17.683,-2.844 20.018,-11.557c2.334,-8.714 -2.844,-17.683 -11.558,-20.018c-8.713,-2.335 -17.683,2.844 -20.017,11.557Z" style="fill:#fff;"/><path d="M1689.44,1689.96c-1.594,8.879 4.321,17.381 13.2,18.974c8.879,1.594 17.381,-4.321 18.975,-13.199c1.593,-8.879 -4.321,-17.381 -13.2,-18.975c-8.879,-1.594 -17.381,4.321 -18.975,13.2Z" style="fill:#fff;"/><path d="M2133.32,1139.06c-8.713,2.335 -17.683,-2.843 -20.018,-11.557c-2.334,-8.713 2.844,-17.683 11.558,-20.017c8.713,-2.335 17.683,2.843 20.017,11.557c2.335,8.713 -2.844,17.683 -11.557,20.017Z" style="fill:#fff;"/><path d="M1038.87,932.813c7.812,4.51 17.817,1.83 22.327,-5.982c4.51,-7.813 1.83,-17.817 -5.982,-22.327c-7.813,-4.511 -17.817,-1.83 -22.327,5.982c-4.511,7.812 -1.83,17.817 5.982,22.327Z" style="fill:#fff;"/><path d="M801.336,1161.45c7.812,4.51 17.816,1.83 22.327,-5.982c4.51,-7.813 1.829,-17.817 -5.983,-22.327c-7.812,-4.511 -17.816,-1.83 -22.327,5.982c-4.51,7.812 -1.829,17.817 5.983,22.327Z" style="fill:#fff;"/><path d="M2279.12,1094.02c8.164,3.838 17.907,0.326 21.745,-7.838c3.837,-8.164 0.325,-17.907 -7.839,-21.745c-8.163,-3.838 -17.907,-0.325 -21.744,7.838c-3.838,8.164 -0.326,17.908 7.838,21.745Z" style="fill:#fff;"/><path d="M1151.08,1462.37c8.164,3.838 17.907,0.325 21.745,-7.838c3.837,-8.164 0.325,-17.907 -7.839,-21.745c-8.163,-3.838 -17.907,-0.325 -21.744,7.838c-3.838,8.164 -0.326,17.908 7.838,21.745Z" style="fill:#fff;"/><path d="M2708.46,820.415c3.059,8.486 12.432,12.893 20.918,9.834c8.486,-3.059 12.893,-12.433 9.834,-20.919c-3.059,-8.486 -12.433,-12.892 -20.919,-9.833c-8.486,3.059 -12.892,12.432 -9.833,20.918Z" style="fill:#fff;"/><path d="M919.038,514.174c-8.878,1.593 -17.381,-4.321 -18.975,-13.2c-1.594,-8.878 4.321,-17.381 13.199,-18.975c8.879,-1.594 17.382,4.321 18.976,13.199c1.593,8.879 -4.321,17.382 -13.2,18.976Z" style="fill:#fff;"/><path d="M1073.39,283.178c-7.405,-5.152 -9.235,-15.346 -4.084,-22.751c5.151,-7.405 15.345,-9.236 22.751,-4.084c7.405,5.151 9.235,15.345 4.084,22.75c-5.151,7.406 -15.346,9.236 -22.751,4.085Z" style="fill:#fff;"/><path d="M1722.65,372.199c-5.82,-6.893 -4.949,-17.213 1.943,-23.033c6.893,-5.82 17.213,-4.949 23.033,1.943c5.82,6.893 4.949,17.213 -1.943,23.033c-6.893,5.82 -17.213,4.949 -23.033,-1.943Z" style="fill:#fff;"/><path d="M2013.12,138.566c-5.819,-6.893 -4.949,-17.213 1.944,-23.033c6.892,-5.82 17.213,-4.949 23.032,1.943c5.82,6.893 4.949,17.213 -1.943,23.033c-6.892,5.82 -17.213,4.949 -23.033,-1.943Z" style="fill:#fff;"/><path d="M1759.56,1199.86c0.759,8.988 -5.923,16.902 -14.912,17.661c-8.989,0.758 -16.902,-5.923 -17.661,-14.912c-0.759,-8.989 5.923,-16.903 14.912,-17.661c8.989,-0.759 16.902,5.923 17.661,14.912Z" style="fill:#fff;"/><path d="M1367.33,1105.35c-2.334,8.713 2.844,17.683 11.557,20.017c8.714,2.335 17.683,-2.844 20.018,-11.557c2.335,-8.713 -2.844,-17.683 -11.557,-20.018c-8.713,-2.334 -17.683,2.844 -20.018,11.558Z" style="fill:#fff;"/><path d="M1163.8,1312.33c-2.335,8.714 2.844,17.683 11.557,20.018c8.713,2.335 17.683,-2.844 20.018,-11.557c2.334,-8.713 -2.844,-17.683 -11.558,-20.018c-8.713,-2.334 -17.683,2.844 -20.017,11.557Z" style="fill:#fff;"/><path d="M2242.07,1367.42c-8.713,2.335 -17.683,-2.844 -20.018,-11.557c-2.334,-8.713 2.844,-17.683 11.558,-20.018c8.713,-2.334 17.683,2.844 20.017,11.558c2.335,8.713 -2.843,17.683 -11.557,20.017Z" style="fill:#fff;"/><path d="M1114.03,1735.76c-8.713,2.335 -17.683,-2.844 -20.017,-11.557c-2.335,-8.713 2.843,-17.683 11.557,-20.018c8.713,-2.334 17.683,2.844 20.017,11.558c2.335,8.713 -2.843,17.683 -11.557,20.017Z" style="fill:#fff;"/><path d="M972.638,1000.15c7.812,4.51 17.816,1.829 22.327,-5.983c4.51,-7.812 1.829,-17.816 -5.983,-22.327c-7.812,-4.51 -17.816,-1.829 -22.327,5.983c-4.51,7.812 -1.829,17.816 5.983,22.327Z" style="fill:#fff;"/><path d="M735.109,1228.79c7.812,4.51 17.816,1.829 22.326,-5.983c4.511,-7.812 1.83,-17.816 -5.982,-22.327c-7.812,-4.51 -17.817,-1.829 -22.327,5.983c-4.51,7.812 -1.83,17.816 5.983,22.327Z" style="fill:#fff;"/><path d="M2519.29,894.799c8.164,3.838 17.908,0.325 21.745,-7.838c3.838,-8.164 0.326,-17.908 -7.838,-21.745c-8.164,-3.838 -17.907,-0.326 -21.745,7.838c-3.838,8.164 -0.325,17.907 7.838,21.745Z" style="fill:#fff;"/><path d="M2515.53,460.827c3.059,8.486 12.432,12.892 20.918,9.833c8.487,-3.059 12.893,-12.432 9.834,-20.918c-3.059,-8.486 -12.432,-12.893 -20.919,-9.834c-8.486,3.059 -12.892,12.433 -9.833,20.919Z" style="fill:#fff;"/><path d="M1780.1,1054.27c-3.838,8.164 -0.326,17.907 7.838,21.745c8.164,3.837 17.907,0.325 21.745,-7.839c3.838,-8.163 0.325,-17.907 -7.838,-21.744c-8.164,-3.838 -17.908,-0.326 -21.745,7.838Z" style="fill:#fff;"/><path d="M1017.79,576.633c-8.879,1.594 -17.381,-4.321 -18.975,-13.199c-1.594,-8.879 4.32,-17.382 13.199,-18.976c8.879,-1.594 17.381,4.321 18.975,13.2c1.594,8.878 -4.32,17.381 -13.199,18.975Z" style="fill:#fff;"/><path d="M1241.19,487.31c-7.406,-5.151 -9.236,-15.345 -4.084,-22.751c5.151,-7.405 15.345,-9.235 22.75,-4.084c7.406,5.151 9.236,15.345 4.085,22.751c-5.152,7.405 -15.346,9.235 -22.751,4.084Z" style="fill:#fff;"/><path d="M1707.46,279.181c-5.819,-6.892 -4.949,-17.213 1.944,-23.033c6.892,-5.819 17.213,-4.949 23.032,1.944c5.82,6.892 4.949,17.213 -1.943,23.032c-6.892,5.82 -17.213,4.949 -23.033,-1.943Z" style="fill:#fff;"/><path d="M2408.73,277.454c-5.82,-6.893 -4.949,-17.213 1.943,-23.033c6.892,-5.82 17.213,-4.949 23.032,1.943c5.82,6.893 4.949,17.213 -1.943,23.033c-6.892,5.82 -17.213,4.949 -23.032,-1.943Z" style="fill:#fff;"/><path d="M2681.76,386.534c-5.82,-6.892 -4.949,-17.212 1.944,-23.032c6.892,-5.82 17.212,-4.949 23.032,1.943c5.82,6.892 4.949,17.213 -1.943,23.033c-6.892,5.819 -17.213,4.949 -23.033,-1.944Z" style="fill:#fff;"/><path d="M1660.68,1390.6c0.759,8.989 -5.923,16.902 -14.911,17.661c-8.989,0.759 -16.903,-5.923 -17.662,-14.912c-0.758,-8.989 5.924,-16.902 14.912,-17.661c8.989,-0.759 16.903,5.923 17.661,14.912Z" style="fill:#fff;"/><path d="M1706.85,1581.14c0.758,8.989 -5.923,16.903 -14.912,17.661c-8.989,0.759 -16.902,-5.923 -17.661,-14.912c-0.759,-8.988 5.923,-16.902 14.912,-17.661c8.988,-0.758 16.902,5.923 17.661,14.912Z" style="fill:#fff;"/><path d="M1412.3,1035.6c-2.334,8.713 2.844,17.683 11.558,20.017c8.713,2.335 17.683,-2.844 20.017,-11.557c2.335,-8.713 -2.844,-17.683 -11.557,-20.018c-8.713,-2.334 -17.683,2.844 -20.018,11.558Z" style="fill:#fff;"/><path d="M2491.72,798.73c-8.714,2.335 -17.683,-2.844 -20.018,-11.557c-2.335,-8.714 2.844,-17.683 11.557,-20.018c8.713,-2.335 17.683,2.844 20.018,11.557c2.335,8.713 -2.844,17.683 -11.557,20.018Z" style="fill:#fff;"/><path d="M1926.47,1149.05c-2.335,-8.713 2.844,-17.683 11.557,-20.018c8.713,-2.334 17.683,2.844 20.018,11.558c2.334,8.713 -2.844,17.683 -11.558,20.017c-8.713,2.335 -17.683,-2.844 -20.017,-11.557Z" style="fill:#fff;"/><path d="M1102.09,942.653c7.812,4.511 17.817,1.83 22.327,-5.982c4.51,-7.812 1.83,-17.817 -5.983,-22.327c-7.812,-4.51 -17.816,-1.83 -22.326,5.982c-4.511,7.813 -1.83,17.817 5.982,22.327Z" style="fill:#fff;"/><path d="M864.557,1171.29c7.812,4.511 17.816,1.83 22.327,-5.982c4.51,-7.812 1.829,-17.817 -5.983,-22.327c-7.812,-4.51 -17.816,-1.83 -22.327,5.982c-4.51,7.813 -1.829,17.817 5.983,22.327Z" style="fill:#fff;"/><path d="M2507.67,723.13c8.164,3.837 17.907,0.325 21.745,-7.839c3.837,-8.163 0.325,-17.907 -7.839,-21.744c-8.163,-3.838 -17.907,-0.326 -21.744,7.838c-3.838,8.164 -0.326,17.907 7.838,21.745Z" style="fill:#fff;"/><path d="M1968.83,1172.49c-3.838,8.164 -0.325,17.907 7.838,21.745c8.164,3.837 17.908,0.325 21.745,-7.839c3.838,-8.163 0.325,-17.907 -7.838,-21.744c-8.164,-3.838 -17.907,-0.326 -21.745,7.838Z" style="fill:#fff;"/><path d="M747.712,472.726c-8.879,1.593 -17.382,-4.321 -18.976,-13.2c-1.594,-8.879 4.321,-17.381 13.2,-18.975c8.878,-1.594 17.381,4.321 18.975,13.199c1.594,8.879 -4.321,17.382 -13.199,18.976Z" style="fill:#fff;"/><path d="M1164.55,403.767c-7.405,-5.151 -9.235,-15.345 -4.084,-22.751c5.151,-7.405 15.345,-9.235 22.751,-4.084c7.405,5.151 9.235,15.345 4.084,22.751c-5.151,7.405 -15.346,9.235 -22.751,4.084Z" style="fill:#fff;"/><path d="M1879.37,1110.34c0.759,8.989 -5.923,16.903 -14.912,17.661c-8.988,0.759 -16.902,-5.923 -17.661,-14.911c-0.758,-8.989 5.923,-16.903 14.912,-17.662c8.989,-0.758 16.903,5.924 17.661,14.912Z" style="fill:#fff;"/><path d="M1295.23,1113.29c-2.335,8.714 2.844,17.683 11.557,20.018c8.714,2.335 17.683,-2.844 20.018,-11.557c2.335,-8.714 -2.844,-17.683 -11.557,-20.018c-8.714,-2.335 -17.683,2.844 -20.018,11.557Z" style="fill:#fff;"/><path d="M2289.32,1487.45c-8.713,2.334 -17.683,-2.844 -20.017,-11.558c-2.335,-8.713 2.844,-17.682 11.557,-20.017c8.713,-2.335 17.683,2.844 20.018,11.557c2.334,8.713 -2.844,17.683 -11.558,20.018Z" style="fill:#fff;"/><path d="M983.755,1894.84c-8.714,2.335 -17.683,-2.843 -20.018,-11.557c-2.335,-8.713 2.844,-17.683 11.557,-20.017c8.713,-2.335 17.683,2.843 20.018,11.557c2.335,8.713 -2.844,17.683 -11.557,20.017Z" style="fill:#fff;"/><path d="M992.382,1927.04l0.584,-0.156c25.899,-6.94 41.64,-34.203 34.543,-60.687c-7.096,-26.483 -34.359,-42.223 -60.842,-35.127c-26.484,7.096 -42.224,34.359 -35.128,60.843c7.097,26.483 34.359,42.223 60.843,35.127Zm-17.534,-64.305c9.529,-2.404 18.685,2.96 21.086,11.923c2.427,9.057 -2.956,18.38 -12.013,20.807c-9.057,2.427 -18.38,-2.956 -20.807,-12.013c-2.401,-8.963 2.845,-18.186 11.734,-20.717Z" style="fill:none;"/><path d="M962.175,1098.78c7.812,4.51 17.816,1.83 22.326,-5.982c4.511,-7.813 1.83,-17.817 -5.982,-22.327c-7.812,-4.511 -17.817,-1.83 -22.327,5.982c-4.51,7.812 -1.83,17.817 5.983,22.327Z" style="fill:#fff;"/><path d="M724.645,1327.42c7.812,4.51 17.817,1.83 22.327,-5.982c4.511,-7.813 1.83,-17.817 -5.982,-22.327c-7.812,-4.511 -17.817,-1.83 -22.327,5.982c-4.51,7.812 -1.83,17.817 5.982,22.327Z" style="fill:#fff;"/><path d="M2546.84,807.912c8.163,3.837 17.907,0.325 21.744,-7.839c3.838,-8.163 0.326,-17.907 -7.838,-21.744c-8.164,-3.838 -17.907,-0.326 -21.745,7.838c-3.837,8.164 -0.325,17.907 7.839,21.745Z" style="fill:#fff;"/><path d="M1917.29,1204.17c-3.838,8.164 -0.326,17.907 7.838,21.745c8.164,3.837 17.907,0.325 21.745,-7.838c3.838,-8.164 0.325,-17.908 -7.838,-21.745c-8.164,-3.838 -17.908,-0.326 -21.745,7.838Z" style="fill:#fff;"/><path d="M938.059,670.14c-8.879,1.594 -17.381,-4.321 -18.975,-13.199c-1.594,-8.879 4.32,-17.382 13.199,-18.976c8.879,-1.593 17.381,4.321 18.975,13.2c1.594,8.878 -4.32,17.381 -13.199,18.975Z" style="fill:#fff;"/><path d="M554.399,628.357c2.334,-8.713 11.304,-13.892 20.017,-11.557c8.714,2.335 13.892,11.304 11.558,20.018c-2.335,8.713 -11.305,13.892 -20.018,11.557c-8.713,-2.335 -13.892,-11.305 -11.557,-20.018Z" style="fill:#fff;"/><path d="M1790.08,1337.73c0.759,8.989 -5.923,16.902 -14.912,17.661c-8.989,0.759 -16.902,-5.923 -17.661,-14.912c-0.759,-8.989 5.923,-16.902 14.912,-17.661c8.989,-0.759 16.902,5.923 17.661,14.912Z" style="fill:#fff;"/><path d="M1250.42,1182.68c-2.335,8.714 2.844,17.683 11.557,20.018c8.714,2.335 17.683,-2.844 20.018,-11.557c2.335,-8.714 -2.844,-17.683 -11.557,-20.018c-8.714,-2.335 -17.683,2.844 -20.018,11.557Z" style="fill:#fff;"/><path d="M2203.18,1405.77c-8.713,2.335 -17.683,-2.844 -20.017,-11.557c-2.335,-8.714 2.844,-17.683 11.557,-20.018c8.713,-2.335 17.683,2.844 20.018,11.557c2.334,8.714 -2.844,17.683 -11.558,20.018Z" style="fill:#fff;"/><path d="M1075.14,1774.12c-8.713,2.335 -17.683,-2.844 -20.017,-11.557c-2.335,-8.714 2.844,-17.683 11.557,-20.018c8.713,-2.335 17.683,2.844 20.018,11.557c2.334,8.714 -2.844,17.683 -11.558,20.018Z" style="fill:#fff;"/><path d="M886.486,1088.22c7.812,4.51 17.816,1.83 22.326,-5.982c4.511,-7.813 1.83,-17.817 -5.982,-22.327c-7.812,-4.511 -17.817,-1.83 -22.327,5.982c-4.51,7.812 -1.83,17.817 5.983,22.327Z" style="fill:#fff;"/><path d="M617.942,1451.92c7.812,4.51 17.817,1.83 22.327,-5.983c4.51,-7.812 1.83,-17.816 -5.983,-22.326c-7.812,-4.511 -17.816,-1.83 -22.326,5.982c-4.511,7.812 -1.83,17.816 5.982,22.327Z" style="fill:#fff;"/><path d="M2234.8,927.196c8.164,3.838 17.908,0.325 21.745,-7.838c3.838,-8.164 0.326,-17.908 -7.838,-21.745c-8.164,-3.838 -17.907,-0.325 -21.745,7.838c-3.838,8.164 -0.325,17.907 7.838,21.745Z" style="fill:#fff;"/><path d="M2792.5,728.333c3.059,8.486 12.432,12.892 20.918,9.833c8.487,-3.059 12.893,-12.432 9.834,-20.918c-3.059,-8.486 -12.432,-12.892 -20.919,-9.833c-8.486,3.059 -12.892,12.432 -9.833,20.918Z" style="fill:#fff;"/><path d="M816.511,545.511c-8.879,1.594 -17.381,-4.32 -18.975,-13.199c-1.594,-8.879 4.32,-17.381 13.199,-18.975c8.879,-1.594 17.381,4.32 18.975,13.199c1.594,8.879 -4.32,17.381 -13.199,18.975Z" style="fill:#fff;"/><path d="M1151.45,268.219c-7.406,-5.151 -9.236,-15.346 -4.084,-22.751c5.151,-7.405 15.345,-9.235 22.75,-4.084c7.406,5.151 9.236,15.345 4.084,22.75c-5.151,7.406 -15.345,9.236 -22.75,4.085Z" style="fill:#fff;"/><path d="M638.333,495.693c2.335,-8.713 11.304,-13.892 20.018,-11.557c8.713,2.335 13.892,11.304 11.557,20.018c-2.335,8.713 -11.304,13.892 -20.018,11.557c-8.713,-2.335 -13.892,-11.304 -11.557,-20.018Z" style="fill:#fff;"/><path d="M1456.99,183.644c2.335,-8.714 11.305,-13.892 20.018,-11.557c8.713,2.334 13.892,11.304 11.557,20.017c-2.334,8.714 -11.304,13.892 -20.017,11.557c-8.714,-2.334 -13.892,-11.304 -11.558,-20.017Z" style="fill:#fff;"/><path d="M2393.42,145.549c8.713,-2.335 17.683,2.844 20.018,11.557c2.334,8.714 -2.844,17.683 -11.557,20.018c-8.714,2.335 -17.683,-2.844 -20.018,-11.557c-2.335,-8.714 2.844,-17.683 11.557,-20.018Z" style="fill:#fff;"/><path d="M2625.84,391.865c8.714,-2.335 17.683,2.844 20.018,11.557c2.335,8.713 -2.844,17.683 -11.557,20.018c-8.714,2.334 -17.683,-2.844 -20.018,-11.558c-2.335,-8.713 2.844,-17.683 11.557,-20.017Z" style="fill:#fff;"/><path d="M1660.99,1451.37c0.759,8.989 -5.923,16.902 -14.912,17.661c-8.988,0.759 -16.902,-5.923 -17.661,-14.912c-0.758,-8.989 5.923,-16.902 14.912,-17.661c8.989,-0.759 16.903,5.923 17.661,14.912Z" style="fill:#fff;"/><path d="M1658.38,1609.37c0.759,8.989 -5.923,16.903 -14.912,17.662c-8.988,0.758 -16.902,-5.924 -17.661,-14.912c-0.758,-8.989 5.923,-16.903 14.912,-17.661c8.989,-0.759 16.903,5.923 17.661,14.911Z" style="fill:#fff;"/><path d="M1262.65,1291.47c-2.335,8.713 2.844,17.682 11.557,20.017c8.713,2.335 17.683,-2.844 20.018,-11.557c2.334,-8.713 -2.844,-17.683 -11.558,-20.018c-8.713,-2.334 -17.682,2.844 -20.017,11.558Z" style="fill:#fff;"/><path d="M2194.75,1286.11c-8.714,2.335 -17.683,-2.843 -20.018,-11.557c-2.335,-8.713 2.844,-17.683 11.557,-20.018c8.713,-2.334 17.683,2.844 20.018,11.558c2.334,8.713 -2.844,17.683 -11.557,20.017Z" style="fill:#fff;"/><path d="M1066.7,1654.45c-8.714,2.335 -17.683,-2.844 -20.018,-11.557c-2.335,-8.713 2.844,-17.683 11.557,-20.018c8.713,-2.334 17.683,2.844 20.018,11.558c2.335,8.713 -2.844,17.683 -11.557,20.017Z" style="fill:#fff;"/><path d="M1156.95,968.783c7.812,4.511 17.816,1.83 22.327,-5.982c4.51,-7.812 1.83,-17.817 -5.983,-22.327c-7.812,-4.51 -17.816,-1.83 -22.326,5.983c-4.511,7.812 -1.83,17.816 5.982,22.326Z" style="fill:#fff;"/><path d="M1060.84,1025.29c7.812,4.511 17.817,1.83 22.327,-5.982c4.51,-7.812 1.83,-17.817 -5.983,-22.327c-7.812,-4.51 -17.816,-1.83 -22.326,5.982c-4.511,7.813 -1.83,17.817 5.982,22.327Z" style="fill:#fff;"/><path d="M2424.31,830.243c8.164,3.838 17.907,0.325 21.745,-7.838c3.838,-8.164 0.325,-17.907 -7.838,-21.745c-8.164,-3.838 -17.908,-0.325 -21.745,7.838c-3.838,8.164 -0.325,17.908 7.838,21.745Z" style="fill:#fff;"/><path d="M1903.88,1020.54c-3.838,8.164 -0.326,17.907 7.838,21.745c8.164,3.837 17.907,0.325 21.745,-7.839c3.837,-8.163 0.325,-17.907 -7.839,-21.744c-8.163,-3.838 -17.907,-0.326 -21.744,7.838Z" style="fill:#fff;"/><path d="M732.446,514.632c-8.879,1.594 -17.381,-4.32 -18.975,-13.199c-1.594,-8.879 4.321,-17.381 13.199,-18.975c8.879,-1.594 17.382,4.32 18.975,13.199c1.594,8.879 -4.32,17.381 -13.199,18.975Z" style="fill:#fff;"/><path d="M1549.65,288.286c-8.879,1.594 -17.382,-4.32 -18.975,-13.199c-1.594,-8.879 4.32,-17.381 13.199,-18.975c8.879,-1.594 17.381,4.32 18.975,13.199c1.594,8.879 -4.32,17.381 -13.199,18.975Z" style="fill:#fff;"/><path d="M1886.78,262.846c-5.82,-6.893 -4.949,-17.213 1.943,-23.033c6.892,-5.82 17.213,-4.949 23.033,1.943c5.82,6.893 4.949,17.213 -1.944,23.033c-6.892,5.82 -17.212,4.949 -23.032,-1.943Z" style="fill:#fff;"/><path d="M2338.45,324.102c-5.82,-6.893 -4.949,-17.213 1.944,-23.033c6.892,-5.82 17.212,-4.949 23.032,1.943c5.82,6.893 4.949,17.213 -1.943,23.033c-6.892,5.82 -17.213,4.949 -23.033,-1.943Z" style="fill:#fff;"/><path d="M1471.55,685.612c1.316,-6.39 5.374,-20.787 5.873,-22.677c5.943,-22.546 9.601,-45.606 11.215,-68.857c4.646,-66.9 -15.865,-125.044 -46.529,-183.404c-4.278,-8.143 -14.363,-11.28 -22.506,-7.002c-8.143,4.279 -11.28,14.363 -7.002,22.506c27.717,52.751 46.983,105.12 42.784,165.591c-1.469,21.16 -4.785,42.149 -10.195,62.669c-0.681,2.584 -6.766,25.238 -7.059,29.441c-0.659,9.455 4.964,13.837 6.927,15.256c4.139,2.992 8.951,4.162 14.61,2.467c7.227,-2.165 11.897,-8.809 11.882,-15.99Zm-7.376,-13.81c1.609,1.079 3.036,2.44 4.194,4.04c-1.244,-1.773 -2.707,-3.069 -4.194,-4.04Zm-4.148,-2.014c-2.986,-1.012 -6.284,-1.208 -9.925,-0.117c3.37,-1.01 6.812,-0.9 9.925,0.117Z" style="fill:#7e4021;"/><path d="M1790.19,167.121c14.277,72.82 -9.431,174.759 -9.431,250.436c-0,9.198 7.468,16.667 16.666,16.667c9.199,-0 16.667,-7.469 16.667,-16.667c-0,-77.605 23.449,-182.173 8.809,-256.849c-1.77,-9.026 -10.535,-14.918 -19.562,-13.148c-9.027,1.769 -14.919,10.535 -13.149,19.561Z" style="fill:#7e4021;"/><path d="M2073.27,606.828c-8.774,-87.782 41.295,-205.503 84.661,-288.465c4.262,-8.152 1.103,-18.23 -7.049,-22.491c-8.152,-4.262 -18.23,-1.103 -22.492,7.049c-46.11,88.212 -97.618,213.886 -88.288,307.223c0.915,9.153 9.089,15.841 18.242,14.926c9.153,-0.915 15.841,-9.089 14.926,-18.242Z" style="fill:#7e4021;"/><path d="M2270.47,658.488c0.05,1.553 0.324,3.123 0.838,4.671c1.561,4.7 3.617,6.407 3.915,6.721c4.056,4.272 8.318,5.02 11.225,5.172c3.643,0.189 6.981,-0.72 10.018,-2.715c1.083,-0.711 9.069,-5.464 7.307,-16.627c-0.067,-0.421 -0.709,-3.739 -0.967,-5.066c7.747,-55.656 50.865,-107.157 86.948,-146.915c85.735,-94.467 178.624,-170.651 308.561,-182.619c9.16,-0.843 15.911,-8.965 15.068,-18.125c-0.844,-9.159 -8.966,-15.911 -18.125,-15.067c-138.675,12.772 -238.688,92.59 -330.187,193.409c-40.592,44.725 -87.457,103.761 -95.517,166.444c-0.272,2.118 0.421,7.421 0.916,10.717Zm32.173,-6.67l-0,0.006c0.106,0.272 0.206,0.548 0.299,0.828l-0.299,-0.834Zm-8.515,-9.028c3.773,1.744 6.887,4.889 8.505,9.011l0.001,-0.01c-2.111,-5.579 -5.686,-7.969 -8.506,-9.001Z" style="fill:#7e4021;"/><path d="M3264.57,2055.89c-115.299,-18.339 -186.662,56.395 -211.042,115.113c-64.783,156.025 173.472,128.905 244.575,87.397c143.604,-83.833 39.867,-190.835 -33.533,-202.51Z" style="fill:#e4ac87;"/><path d="M2086.97,2418.47c80.13,-84.908 182.274,-69.276 237.428,-37.65c146.555,84.037 -58.713,207.995 -140.37,218.521c-164.918,21.26 -148.069,-126.818 -97.058,-180.871Z" style="fill:#e4ac87;"/><path d="M1940.73,1749.81c-288.204,99.751 -247.726,504.324 -31.838,631.79c71.736,42.355 118.716,-63.158 223.562,-103.344c95.846,-36.736 204.916,23.645 243.512,-41.804c144.412,-244.881 -80.069,-609.568 -435.236,-486.642Z" style="fill:#fff;"/><path d="M1935.28,1734.06c-151.718,52.512 -217.306,184.999 -216.169,321.391c1.128,135.295 68.573,273.939 181.309,340.501c34.973,20.649 65.202,13.559 96.965,-6.833c38.33,-24.609 79.352,-71.658 141.035,-95.3c55.493,-21.269 115.62,-8.027 162.854,-8.291c39.186,-0.22 70.511,-9.174 89.049,-40.61c106.038,-179.809 22.658,-421.261 -164.815,-505.683c-79.985,-36.019 -178.962,-43.685 -290.228,-5.175l-0,0Zm10.902,31.5c101.835,-35.246 192.434,-28.897 265.639,4.069c169.971,76.541 245.929,295.334 149.79,458.357c-8.782,14.893 -22.714,20.623 -39.404,22.902c-13.727,1.875 -29.153,1.459 -45.65,0.59c-46.192,-2.434 -99.84,-8.036 -150.067,11.215c-54.119,20.743 -93.505,58.043 -128.417,84.995c-27.668,21.359 -51.361,36.886 -80.706,19.56c-103.153,-60.904 -163.891,-188.279 -164.923,-312.075c-1.023,-122.699 57.252,-242.373 193.738,-289.613l0,0Z" style="fill:#7e4021;"/><path d="M2957.12,1443.41c-288.205,99.751 -247.727,504.324 -31.838,631.79c71.735,42.354 118.716,-63.158 223.562,-103.344c95.846,-36.736 204.915,23.645 243.512,-41.804c144.411,-244.881 -80.07,-609.569 -435.236,-486.642Z" style="fill:#fff;"/><path d="M2951.66,1427.66c-151.718,52.512 -217.305,184.999 -216.168,321.391c1.128,135.295 68.573,273.939 181.308,340.501c34.973,20.649 65.203,13.559 96.966,-6.834c38.329,-24.608 79.352,-71.657 141.034,-95.299c55.493,-21.269 115.62,-8.027 162.854,-8.292c39.186,-0.219 70.511,-9.173 89.05,-40.609c106.038,-179.809 22.657,-421.261 -164.816,-505.683c-79.985,-36.019 -178.962,-43.685 -290.228,-5.175l0,0Zm10.903,31.5c101.834,-35.246 192.433,-28.897 265.638,4.069c169.971,76.541 245.929,295.334 149.79,458.357c-8.782,14.893 -22.714,20.623 -39.403,22.902c-13.728,1.875 -29.154,1.459 -45.651,0.59c-46.191,-2.434 -99.84,-8.036 -150.066,11.215c-54.12,20.743 -93.506,58.043 -128.418,84.995c-27.667,21.359 -51.361,36.886 -80.706,19.56c-103.153,-60.904 -163.891,-188.279 -164.923,-312.075c-1.023,-122.699 57.252,-242.373 193.739,-289.613l-0,0Z" style="fill:#7e4021;"/><path d="M2093.05,1796.35c-58.071,20.316 -119.773,88.295 -117.956,196.547c0.232,13.824 88.402,19.95 90.846,35.072c2.34,14.485 -81.584,38.051 -76.521,53.564c53.712,164.58 150.826,192.622 325.461,188.367c105.095,-2.56 132.359,-223.633 56.334,-360.649c-42.614,-76.802 -168.057,-151.423 -278.164,-112.901Z" style="fill:#7e4021;"/><path d="M3109.44,1489.95c-58.07,20.316 -119.772,88.295 -117.956,196.547c0.232,13.824 88.402,19.95 90.846,35.072c2.341,14.485 -81.583,38.051 -76.521,53.564c53.712,164.58 159.626,203.951 333.091,183.325c104.431,-12.418 130.176,-218.214 48.705,-355.607c-44.799,-75.549 -168.058,-151.423 -278.165,-112.901Z" style="fill:#7e4021;"/><path d="M1837.37,1795.07c-1.832,-2.938 -4.598,-7.261 -5.95,-8.903c-6.079,-7.38 -12.251,-14.69 -18.435,-21.981c-20.08,-23.674 -40.072,-47.465 -60.906,-70.48c-6.173,-6.819 -16.721,-7.344 -23.541,-1.171c-6.819,6.173 -7.344,16.722 -1.171,23.541c20.594,22.75 40.349,46.271 60.197,69.671c6.08,7.169 12.149,14.355 18.125,21.611c1.57,1.906 4.213,6.805 5.723,9.064c1.707,2.551 3.351,4.142 4.198,4.846c7.126,5.926 13.777,4.151 17.46,2.558c2.345,-1.015 13.199,-5.954 9.438,-20.424c-0.872,-3.356 -2.71,-6.208 -5.138,-8.332Zm-27.396,15.507l0.052,0.231l-0.117,-0.648l0.065,0.417Zm-0.208,-4.328c-0.121,1.118 -0.109,2.392 0.13,3.827c-0.195,-1.288 -0.236,-2.57 -0.13,-3.827Z" style="fill:#7e4021;"/><path d="M3071.53,1394.9c-0.579,3.175 -0.244,6.55 1.162,9.721c6.058,13.668 17.628,10.782 20.096,10.117c3.874,-1.044 10.185,-3.793 12.078,-12.865c0.224,-1.079 0.522,-3.347 0.27,-6.407c-0.222,-2.708 -1.201,-8.187 -1.158,-10.656c0.164,-9.399 0.444,-18.8 0.744,-28.196c0.979,-30.668 1.811,-61.374 3.779,-91.996c0.59,-9.18 -6.384,-17.112 -15.563,-17.702c-9.18,-0.59 -17.112,6.384 -17.702,15.564c-1.991,30.98 -2.839,62.044 -3.831,93.07c-0.305,9.556 -0.589,19.119 -0.756,28.679c-0.037,2.126 0.488,7.232 0.881,10.671Zm30.887,-5.271l0.312,0.58l-0.103,-0.213l-0.209,-0.367Zm-2.321,-3.151c0.864,0.919 1.631,1.948 2.279,3.078c-0.712,-1.269 -1.492,-2.275 -2.279,-3.078Z" style="fill:#7e4021;"/><path d="M1758,1891.41c2.505,2.615 5.879,4.432 9.743,4.961c14.532,1.99 18.401,-8.638 19.3,-11.359c1.306,-3.954 2.193,-10.278 -3.573,-16.656c-0.888,-0.982 -2.874,-2.81 -6.029,-4.559c-3.65,-2.023 -11.458,-5.455 -14.851,-7.159c-9.122,-4.58 -18.285,-9.079 -27.439,-13.594c-28.231,-13.924 -56.892,-26.971 -84.781,-41.582c-8.148,-4.268 -18.229,-1.119 -22.498,7.03c-4.268,8.148 -1.119,18.229 7.029,22.497c28.129,14.736 57.031,27.906 85.505,41.95c9.084,4.48 18.176,8.944 27.227,13.489c2.04,1.024 6.984,3.379 10.367,4.982Zm9.727,-28.064l-0.068,0.013l0.207,-0.029l-0.139,0.016Zm2.662,-0.148l-0.663,-0.006c-0.277,0.011 -0.555,0.023 -0.832,0.034l-0.627,0.057c0.658,-0.077 1.364,-0.108 2.122,-0.085Zm0.306,0.01l0.535,0.032l-0.221,-0.023l-0.314,-0.009Z" style="fill:#7e4021;"/><path d="M3201.41,1415.73c1.651,-3.358 4.056,-8.279 5.016,-10.349c4.258,-9.19 8.599,-18.342 12.923,-27.501c13.554,-28.71 27.987,-57.003 40.84,-86.04c3.723,-8.411 -0.083,-18.263 -8.495,-21.986c-8.411,-3.724 -18.263,0.083 -21.986,8.494c-12.743,28.79 -27.064,56.836 -40.502,85.302c-4.358,9.23 -8.732,18.454 -13.024,27.715c-1.596,3.444 -5.573,10.99 -7.172,14.844c-1.382,3.332 -1.799,5.998 -1.884,7.32c-0.546,8.581 4.084,12.98 7.566,15.263c2.397,1.571 12.038,7.484 22.177,-3.115c2.696,-2.819 4.206,-6.341 4.541,-9.947Zm-27.726,-13.976l-0.158,0.154l0.398,-0.358l-0.24,0.204Zm2.188,-1.655l-0.526,0.345c-0.224,0.164 -0.449,0.328 -0.673,0.491l-0.515,0.417c0.574,-0.495 1.149,-0.907 1.714,-1.253Zm0.462,-0.287l-0.119,0.074l0.181,-0.106l-0.062,0.032Z" style="fill:#7e4021;"/><path d="M1886.64,1756.69c-3.701,8.099 -0.354,17.755 7.668,21.794c8.216,4.137 18.245,0.825 22.381,-7.391c2.061,-4.092 3.321,-9.628 3.534,-15.887c0.283,-8.294 -1.438,-18.572 -1.344,-24.452c0.453,-28.104 0.352,-56.534 -0.607,-84.627c-0.314,-9.193 -8.033,-16.402 -17.226,-16.088c-9.193,0.314 -16.402,8.032 -16.088,17.226c0.941,27.537 1.036,55.405 0.592,82.953c-0.072,4.472 0.794,11.338 1.22,18.112c0.18,2.859 -0.09,7.674 -0.13,8.36Z" style="fill:#7e4021;"/><path d="M3005.77,1408.04c-0.459,-0.513 -3.666,-4.114 -5.304,-6.464c-3.881,-5.569 -7.475,-11.482 -10.314,-14.939c-17.487,-21.291 -34.751,-43.167 -51.148,-65.311c-5.474,-7.392 -15.92,-8.95 -23.312,-3.476c-7.393,5.474 -8.951,15.92 -3.477,23.313c16.728,22.59 34.339,44.91 52.178,66.631c3.732,4.544 8.78,13.661 14.161,19.978c4.061,4.768 8.492,8.318 12.651,10.24c8.351,3.858 18.263,0.211 22.121,-8.139c3.767,-8.153 0.379,-17.795 -7.556,-21.833Z" style="fill:#7e4021;"/><path d="M2570.85,2157.41c13.668,19.654 30.457,37.866 70.238,51.435c28.03,9.561 55.693,3.482 78.957,-12.104c32.604,-21.845 56.029,-62.905 58.037,-101.37c0.48,-9.186 -6.589,-17.033 -15.775,-17.513c-9.186,-0.479 -17.033,6.589 -17.513,15.775c-1.25,23.935 -13.791,49.123 -31.972,66.319c-16.706,15.8 -38.513,25.006 -60.973,17.345c-30.28,-10.329 -43.229,-23.958 -53.632,-38.918c-5.252,-7.552 -15.647,-9.42 -23.199,-4.168c-7.552,5.251 -9.42,15.646 -4.168,23.199Z" style="fill:#7e4021;"/><path d="M1076.74,2137.75c81.725,-110.599 -37.854,-270.276 -31.374,-265.986c25.528,16.896 32.492,54.478 73.13,92.014c44.294,40.914 108.145,89.421 179.762,53.034c62.295,-31.651 80.933,-110.459 65.52,-150.806c-35.071,-91.807 -146.692,-132.756 -233.473,-150.631c-1.932,-0.398 -8.954,-0.698 -9.747,-3.22c-1.618,-5.149 20.775,-1.768 72.791,0.945c45.747,2.385 181.236,-44.151 149.212,-152.958c-39.692,-134.861 -148.562,-63.105 -211.183,-30.136c-28.348,14.925 -85.678,64.128 -83.595,62.22c77.278,-70.74 113.035,-171.15 41.322,-243.843c-61.856,-62.701 -145.316,-40.828 -170.194,31.231c-16.984,49.195 -10.818,70.465 -2.431,121.475c0.473,2.878 6.257,23.223 1.432,24.619c-0.349,0.1 -92.57,-173.727 -219.11,-136.576c-98.313,28.863 -68.326,149.259 -28.929,180.031c17.463,13.639 35.841,26.367 54.941,37.616c8.823,5.197 23.263,12.212 26.799,15.019c-23.384,-4.036 -222.846,-62.947 -260.419,54.9c-25.337,79.469 68.596,152.378 126.763,151.005c36.898,-0.871 72.185,-10.549 107.726,-19.524c0.525,-0.133 9.017,-2.492 8.895,-0.996c-1.793,22.045 -235.158,72.73 -173.881,221.64c42.59,103.5 182.218,86.657 233.498,-14.215c12.843,-25.266 21.629,-52.398 32.587,-78.54c0.667,-1.592 11.971,-20.495 11.861,-19.774c-17.173,112.232 23.476,213.444 76.363,245.333c49.323,29.74 129.275,20.051 161.734,-23.877Z" style="fill:#fff;"/><path d="M893.17,1460.4c-16.874,-20.767 -38.666,-43.441 -64.293,-61.056c-37.926,-26.07 -83.918,-41.135 -134.771,-26.205c-69.156,20.304 -84.839,78.849 -75.802,130.541c5.937,33.964 23.1,64.395 41.309,78.617c3.201,2.5 6.432,4.97 9.692,7.405c-25.045,-2.871 -52.687,-4.086 -78.925,-0.951c-51.771,6.186 -97.854,28.897 -115.066,82.884c-14.64,45.918 4.196,90.234 36.076,122.58c31.06,31.512 74.215,50.922 106.96,50.149c5.951,-0.14 11.863,-0.498 17.747,-1.039c-65.117,37.825 -129.465,97.912 -90.814,191.84c48.081,116.842 205.877,100.871 263.768,-13.005c3.728,-7.335 7.124,-14.824 10.324,-22.4c3.357,37.821 12.661,72.355 25.81,101.007c15.933,34.721 37.678,60.94 61.214,75.132c33.259,20.054 78.873,24.474 117.952,13.883c26.96,-7.306 50.692,-21.693 65.792,-42.128c32.369,-43.805 36.514,-94.513 28.28,-141.377c-1.502,-8.552 -3.42,-16.966 -5.641,-25.165c48.507,43.618 117.17,89.098 193.024,50.558c42.085,-21.382 66.711,-61.7 75.74,-100.488c6.194,-26.61 4.943,-52.426 -2.2,-71.125c-25.164,-65.872 -87.078,-107.79 -152.936,-133.822c24.8,-5.267 54.829,-16.44 80.272,-34.269c41.052,-28.765 70.337,-73.775 51.866,-136.531c-13.745,-46.704 -35.714,-71.196 -60.236,-82.617c-23.321,-10.861 -49.808,-10.102 -76.52,-2.771c-33.622,9.228 -67.693,28.963 -94.379,43.191c27.383,-60.223 24.526,-124.893 -26.444,-176.56c-35.627,-36.115 -77.72,-47.175 -114.244,-39.529c-37.07,7.761 -69.026,34.901 -83.569,77.025c-12.493,36.186 -13.499,58.209 -9.986,86.226Zm170.165,667.445c-13.748,18.604 -37.842,29.406 -63.432,32.96c-26.418,3.669 -54.727,-0.448 -76.292,-13.452c-18.773,-11.32 -35.421,-32.794 -48.131,-60.489c-20.333,-44.308 -30.116,-104.312 -20.363,-168.05c0.562,-3.676 -0.144,-6.318 -0.734,-8.013c-2.839,-8.161 -8.589,-11.455 -16.329,-11.185c-0.868,0.031 -8.052,-0.243 -13.425,7.559c-2.023,2.937 -12.527,20.799 -13.219,22.449c-10.801,25.766 -19.414,52.528 -32.074,77.43c-44.677,87.885 -166.12,105.6 -203.227,15.426c-22.282,-54.147 1.093,-93.105 35.054,-121.713c25.065,-21.113 55.724,-36.941 80.783,-49.15c24.454,-11.913 44.016,-21.196 51.267,-27.935c5.603,-5.207 7.613,-10.688 7.976,-15.149c0.569,-6.994 -2.104,-12.636 -8.813,-16.31c-1.991,-1.089 -5.551,-2.425 -10.27,-2.167c-3.498,0.192 -9.965,1.826 -10.505,1.962c-34.334,8.671 -68.394,18.181 -104.038,19.022c-25.425,0.6 -58.316,-15.756 -82.432,-40.224c-23.296,-23.636 -38.757,-55.502 -28.059,-89.056c12.848,-40.297 48.62,-55.294 87.262,-59.911c65.774,-7.858 140.833,14.023 154.443,16.372c7.505,1.296 14.934,-2.662 18.047,-9.613c3.112,-6.952 1.116,-15.129 -4.849,-19.864c-3.802,-3.018 -19.219,-10.741 -28.704,-16.327c-18.475,-10.881 -36.248,-23.198 -53.14,-36.391c-13.31,-10.396 -24.652,-33.258 -28.992,-58.086c-6.379,-36.492 3.536,-78.484 52.357,-92.817c40.257,-11.819 76.476,1.053 106.499,21.69c48.409,33.276 81.44,86.727 90.749,102.544c1.864,3.167 2.951,5.071 3.174,5.414c7.013,10.738 17.501,7.271 18.623,6.946c6.138,-1.775 12.022,-6.6 13.571,-16.164c1.21,-7.469 -2.717,-24.31 -3.187,-27.169c-7.824,-47.587 -14.105,-67.439 1.739,-113.332c10.335,-29.936 32.547,-49.761 58.891,-55.277c26.891,-5.629 57.454,3.723 83.684,30.312c64.83,65.716 29.151,155.894 -40.71,219.845c-5.036,4.61 1.471,42.232 23.019,24.199c7.748,-6.484 54.955,-46.407 79.594,-59.379c24.258,-12.771 55.615,-31.698 87.052,-41.279c20.205,-6.158 40.415,-8.648 58.045,-0.438c17.969,8.368 32.26,27.591 42.332,61.812c13.554,46.052 -8.893,78.712 -39.017,99.821c-32.063,22.466 -72.731,32.861 -93.339,31.787c-44.536,-2.323 -68.811,-4.387 -75.841,-2.585c-6.819,1.748 -10.232,5.568 -12.109,8.76c-2.446,4.161 -3.36,8.945 -1.608,14.521c1.253,3.986 3.882,7.771 8.358,10.5c3.72,2.267 11.39,3.525 13.927,4.047c41.874,8.625 89.771,22.729 131.4,45.839c39.666,22.021 73.741,52.205 89.866,94.415c5.187,13.58 5.371,32.347 0.872,51.673c-7.009,30.112 -25.702,61.728 -58.373,78.327c-64.431,32.736 -121.053,-13.609 -160.903,-50.418c-23.049,-21.289 -34.487,-42.708 -45.283,-59.795c-9.004,-14.252 -17.882,-25.882 -29.957,-33.874c-4.695,-3.108 -8.644,-2.98 -10.829,-2.792c-5.407,0.466 -9.331,2.985 -12.145,6.902c-1.694,2.358 -3.456,5.841 -3.108,10.942c0.069,1.014 0.695,5.029 4.015,10.692c8.007,13.662 42.328,67.143 53.096,128.435c6.734,38.33 4.215,79.974 -22.258,115.801Z" style="fill:#7e4021;"/><path d="M1073.73,1856.87c61.124,-71.68 34.928,-172.163 8.762,-213.041c-16.823,-26.284 -41.855,-46.497 -68.048,-63.657c-125.492,-82.215 -293.491,4.926 -286.856,160.147c9.961,233.036 262.926,214.138 346.142,116.551Z" style="fill:#facad0;"/><path d="M1086.41,1867.68c66.811,-78.349 38.718,-188.158 10.118,-232.84c-18.081,-28.249 -44.801,-50.17 -72.953,-68.614c-136.82,-89.635 -319.874,5.568 -312.64,174.801c3.242,75.86 30.888,126.824 69.501,158.553c45.104,37.062 105.949,48.003 163.548,39.911c57.259,-8.045 110.97,-34.923 142.426,-71.811Zm-25.364,-21.629c-26.796,31.424 -72.923,53.578 -121.7,60.431c-48.436,6.805 -99.819,-1.49 -137.747,-32.656c-32.557,-26.753 -54.628,-70.26 -57.362,-134.223c-6.035,-141.209 146.907,-220.287 261.071,-145.494c24.235,15.877 47.58,34.382 63.145,58.701c23.731,37.075 48.03,128.23 -7.407,193.241l0,0Z" style="fill:#7e4021;"/></g></svg>