<?xml version="1.0" encoding="UTF-8" standalone="no"?><!DOCTYPE svg PUBLIC "-//W3C//DTD SVG 1.1//EN" "http://www.w3.org/Graphics/SVG/1.1/DTD/svg11.dtd"><svg width="100%" height="100%" viewBox="0 0 3873 4847" version="1.1" xmlns="http://www.w3.org/2000/svg" xmlns:xlink="http://www.w3.org/1999/xlink" xml:space="preserve" xmlns:serif="http://www.serif.com/" style="fill-rule:evenodd;clip-rule:evenodd;stroke-linejoin:round;stroke-miterlimit:2;"><g id="Pizza-Mrs"><path d="M3226.47,792.182c154.776,-235.058 433.678,-112.557 428.002,-122.026c-84.801,-141.471 -236.629,-232.738 -406.138,-243.531c-185.563,-11.815 -97.579,-165.133 -322.638,-237.813c-174.119,-56.23 -307.481,17.318 -414.7,22.479c-124.027,5.969 -142.913,-81.693 -268.758,-135.067c-140.467,-59.574 -335.531,11.214 -480.675,92.304c-87.524,48.899 -284.814,-58.654 -424.664,81.433c-235.108,235.505 -63.512,410.797 -7.153,482.847c-61.565,294.133 1327.68,1082.43 1919.18,540.192c-0,0 -186.297,-231.997 -22.459,-480.818Z" style="fill:#f7bf9a;"/><path d="M3240.39,801.348c133.185,-202.268 362.961,-126.023 403.536,-115.672c5.425,1.384 9.129,1.734 10.772,1.664c5.011,-0.211 8.171,-2.16 10.116,-3.699c3.53,-2.792 5.468,-6.319 6.166,-10.376c0.527,-3.067 0.519,-7.12 -2.213,-11.678c-87.577,-146.101 -244.317,-240.449 -419.374,-251.595c-84.582,-5.386 -106.536,-43.453 -133.275,-88.024c-30.852,-51.424 -66.941,-110.794 -185.301,-149.017c-107.784,-34.807 -200.425,-21.722 -281.191,-4.288c-51.201,11.053 -97.355,23.955 -139.431,25.98c-56.946,2.741 -89.675,-16.244 -122.692,-41.81c-36.904,-28.575 -74.175,-64.562 -138.758,-91.953c-58.889,-24.976 -126.905,-28.425 -197.095,-17.731c-102.364,15.594 -209.473,61.25 -298.216,110.829c-15.359,8.581 -34.66,11.249 -56.551,11.684c-24.457,0.487 -51.906,-2.031 -81.037,-4.306c-93.469,-7.303 -202.768,-11.293 -290.742,76.83c-98.532,98.698 -128.003,187.723 -125.176,263.348c4.035,107.939 75.314,189.657 112.159,235.814c-4.843,37.167 9.107,81.196 40.361,128.703c46.634,70.882 132.061,151.059 243.311,229.269c256.871,180.582 651.853,351.576 1016.88,376.903c246.143,17.078 478.636,-32.092 647.548,-186.937c6.474,-5.934 7.232,-15.874 1.733,-22.721c0,-0 -178.693,-222.54 -21.534,-461.217Zm377.184,-156.872c-85.182,-20.017 -282.309,-47.827 -405.024,138.54c-147.347,223.776 -22.583,434.478 14.044,487.607c-161.357,140.939 -380.426,184.389 -611.644,168.347c-359.009,-24.91 -747.388,-193.316 -1000.02,-370.919c-107.108,-75.297 -189.738,-152.078 -234.634,-220.321c-27.508,-41.812 -40.898,-79.685 -34.237,-111.508c1.006,-4.807 -0.159,-9.814 -3.185,-13.683c-32.477,-41.519 -105.749,-118.266 -109.636,-222.251c-2.569,-68.736 25.9,-148.844 115.456,-238.552c79.848,-79.983 179.721,-73.776 264.555,-67.148c63.286,4.944 119.165,9.317 156.443,-11.51c85.43,-47.729 188.436,-91.964 286.978,-106.976c63.748,-9.712 125.576,-7.218 179.06,15.466c61.263,25.983 96.358,60.514 131.365,87.621c38.894,30.117 77.62,51.978 144.702,48.749c43.699,-2.103 91.686,-15.213 144.862,-26.692c75.801,-16.362 162.757,-29.242 263.915,3.426c106.7,34.457 139.148,88.086 166.96,134.445c19.064,31.776 36.676,60.177 69.045,79.522c21.734,12.99 50.206,22.041 90.696,24.619c149.844,9.54 285.451,84.017 370.299,201.218Z" style="fill:#7e4021;"/><path d="M2481.23,462.101c1.252,-3.527 2.949,-8.261 3.744,-10.325c7.521,-19.522 17.487,-38.415 29.043,-55.841c30.55,-46.067 75.194,-73.569 126.025,-92.866c8.599,-3.265 12.931,-12.897 9.666,-21.497c-3.265,-8.599 -12.897,-12.931 -21.497,-9.666c-57.455,21.812 -107.442,53.536 -141.974,105.607c-12.886,19.432 -23.981,40.51 -32.368,62.28c-1.767,4.587 -5.663,14.584 -6.79,19.851c-1.011,4.723 -0.532,8.425 0.037,10.481c2.153,7.785 7.378,11.237 13.337,12.371c3.057,0.581 8.773,1.184 15.282,-4.38c4.768,-4.077 6.668,-10.27 5.495,-16.015Z" style="fill:#7e4021;"/><path d="M2715.17,273.514c14.463,-3.813 30.055,-4.174 44.818,-5.447c9.164,-0.79 15.963,-8.872 15.173,-18.037c-0.79,-9.164 -8.872,-15.963 -18.036,-15.173c-18.295,1.577 -37.643,2.353 -55.32,7.806c-3.575,1.103 -8.728,5.352 -10.495,8.244c-2.242,3.667 -2.564,7.09 -2.523,9.223c0.118,5.985 2.821,10.239 6.86,13.188c2.616,1.911 7.001,4.467 14.01,2.713c2.038,-0.51 3.893,-1.376 5.513,-2.517Zm-1.99,-28.492c-2.459,-1.377 -5.911,-2.497 -10.669,-1.533c3.749,-0.714 7.477,-0.101 10.669,1.533Z" style="fill:#7e4021;"/><path d="M1673.12,522.215c-30.976,26.41 -109.406,41.931 -131.122,41.287c-9.194,-0.273 -16.881,6.971 -17.153,16.165c-0.273,9.195 6.97,16.881 16.165,17.154c25.501,0.756 117.361,-18.227 153.737,-49.241c6.999,-5.968 7.837,-16.496 1.869,-23.496c-5.968,-6.999 -16.496,-7.837 -23.496,-1.869Z" style="fill:#7e4021;"/><path d="M1474.98,565.536c-8.363,-0.487 -16.642,-0.787 -24.99,-1.702c-9.144,-1.003 -17.381,5.607 -18.383,14.751c-1.003,9.144 5.607,17.381 14.751,18.383c8.916,0.978 17.756,1.326 26.688,1.845c9.183,0.533 17.072,-6.489 17.605,-15.672c0.534,-9.183 -6.488,-17.072 -15.671,-17.605Z" style="fill:#7e4021;"/><path d="M1604.39,4243.3c-61.354,9.653 -262.743,78.503 -318.995,104.022c-95.233,43.203 -415.867,195.953 -411.939,319.977c4.762,150.339 343.365,171.155 447.709,159.407c108.073,-12.167 243.722,-34.392 323.761,-120.837c15.707,-16.965 67.559,-82.865 67.559,-82.865c-0,0 -4.315,43.003 1.028,47.938c33.706,31.124 193.064,-1.765 228.55,-40.342c29.622,-32.201 30.973,-170.022 22.42,-207.553c-52.653,-231.049 -130.308,-219.179 -360.093,-179.747Z" style="fill:#fff;"/><path d="M1695.7,4670.85c1.536,6.114 4.288,10.284 6.513,12.339c7.266,6.709 18.611,11.807 33.166,14.422c17.513,3.147 40.362,3.038 64.82,0.249c35.423,-4.04 74.333,-13.61 104.598,-25.813c22.131,-8.924 39.792,-19.564 49.54,-30.161c10.354,-11.256 18.639,-33.246 23.642,-60.178c10.452,-56.265 9.007,-134.951 2.761,-162.362c-22.286,-97.795 -50.08,-153.848 -89.442,-183.972c-30.672,-23.474 -68.671,-32.124 -118.128,-30.966c-45.603,1.068 -101.612,10.46 -171.482,22.449l0,0c-62.315,9.852 -266.205,79.446 -323.172,105.29c-67.531,30.636 -246.827,115.849 -347.033,207.194c-46.741,42.607 -75.977,87.466 -74.678,128.489c2.103,66.388 60.936,112.192 140.837,139.674c111.049,38.195 261.354,42.977 325.394,35.767c111.685,-12.573 251.414,-36.743 334.127,-126.076c7.665,-8.279 23.839,-28.065 38.537,-46.345Zm32.507,-9.841l0.868,-36.338c0.74,-7.373 -3.477,-14.349 -10.35,-17.121c-6.872,-2.771 -14.75,-0.672 -19.332,5.151c0,0 -51.179,65.095 -66.689,81.847c-77.367,83.559 -208.932,103.839 -313.397,115.599c-61.172,6.887 -204.747,2.321 -310.824,-34.164c-33.91,-11.664 -63.933,-26.526 -85.593,-45.719c-19.513,-17.29 -31.964,-38.107 -32.768,-63.489c-1.058,-33.4 25.761,-68.11 63.816,-102.8c97.631,-88.997 272.554,-171.624 338.349,-201.472c55.501,-25.179 254.166,-93.212 314.701,-102.736c0.076,-0.012 0.152,-0.025 0.228,-0.038c67.95,-11.66 122.394,-20.958 166.735,-21.997c40.514,-0.949 71.963,4.883 97.089,24.113c35.036,26.814 57.363,77.859 77.2,164.908c5.728,25.133 6.551,97.275 -3.034,148.867c-3.585,19.3 -7.981,35.633 -15.402,43.699c-7.287,7.922 -20.927,15.142 -37.472,21.813c-27.747,11.188 -63.434,19.905 -95.91,23.609c-20.808,2.373 -40.248,2.739 -55.148,0.062c-5.137,-0.923 -9.64,-2.011 -13.067,-3.794Z" style="fill:#7e4021;"/><path d="M1718.56,4642.44c11.409,-16.595 32.268,-29.819 50.518,-37.09c43.588,-17.364 89.761,-32.169 127.866,-52.233c41.911,-22.069 74.231,-50.643 86.544,-93.203c2.556,-8.836 -2.542,-18.086 -11.378,-20.642c-8.837,-2.556 -18.086,2.542 -20.642,11.378c-9.793,33.849 -36.721,55.42 -70.054,72.972c-37.136,19.555 -82.193,33.839 -124.672,50.762c-23.886,9.515 -50.718,27.453 -65.65,49.172c-5.211,7.58 -3.288,17.965 4.292,23.176c7.58,5.211 17.965,3.288 23.176,-4.292Z" style="fill:#7e4021;"/><path d="M1648.49,3027.31c-13.354,38.511 -44.275,116.23 -56.522,155.106c-33.327,105.793 -62.123,212.942 -88.783,320.589c-4.397,17.755 -15.543,65.209 -16.823,71.151c-28.587,132.749 -42.157,271.992 -29.875,407.493c10.671,117.728 52.83,239.501 8.226,292.949c-33.814,40.518 -73.241,29.579 -146.978,86.862c-148.487,115.352 -165.755,207.01 68.622,179.976c79.401,-9.159 545.238,-164.524 459.09,-279.37c-29.749,-39.66 -85.136,-45.922 -105.058,-93.217c-54.494,-129.367 -49.47,-334.228 -47.424,-471.021c3.416,-228.432 96.896,-389.369 141.66,-606.875c0,-0 -181.108,-78.142 -186.135,-63.643Z" style="fill:#e4a57c;"/><path d="M1632.75,3021.85c-13.392,38.622 -44.389,116.57 -56.671,155.558c-33.432,106.124 -62.321,213.606 -89.065,321.59c-4.428,17.879 -15.65,65.666 -16.938,71.649c-28.938,134.381 -42.614,275.34 -30.181,412.506c6.387,70.466 24.112,142.381 27.636,200.158c2.049,33.608 -0.078,61.999 -15.607,80.608c-14.945,17.908 -31.412,23.998 -52.009,32.388c-24.344,9.915 -53.877,22.066 -92.397,51.991c-46.436,36.073 -80.37,70.115 -98.794,99.069c-14.63,22.989 -19.809,43.71 -16.621,60.572c3.503,18.532 16.405,34.211 42.12,43.935c29.782,11.262 79.973,14.663 154.051,6.119c56.679,-6.538 306.483,-86.07 421.116,-173.41c26.6,-20.267 46.131,-41.239 55.794,-61.58c11.543,-24.302 10.651,-48.211 -6.397,-70.938c-16.159,-21.542 -38.977,-34.401 -60.764,-47.909c-17.145,-10.63 -33.752,-21.563 -42.268,-41.777c-53.709,-127.505 -48.135,-329.479 -46.119,-464.302c3.4,-227.294 96.779,-387.342 141.321,-603.764c1.593,-7.739 -2.467,-15.533 -9.722,-18.663c0,-0 -117.643,-50.665 -167.3,-63.431c-14.782,-3.8 -25.681,-3.485 -30.162,-1.706c-6.066,2.408 -9.378,6.594 -11.023,11.337Zm27.81,21.3c33.464,6.546 122.052,43.655 154.944,57.711c-45.953,211.933 -135.833,371.816 -139.197,596.718c-2.076,138.762 -6.55,346.51 48.729,477.74c11.409,27.083 32.452,42.925 55.422,57.166c18.325,11.362 38.073,21.463 51.664,39.582c8.797,11.727 8.909,24.094 2.953,36.633c-7.838,16.499 -24.311,32.93 -45.887,49.369c-110.187,83.953 -350.252,160.526 -404.734,166.81c-66.549,7.676 -111.686,5.934 -138.441,-4.184c-12,-4.537 -19.522,-10.3 -21.157,-18.948c-1.949,-10.31 3.045,-22.429 11.99,-36.485c16.925,-26.598 48.464,-57.502 91.121,-90.641c42.636,-33.122 73.443,-42.44 98.246,-53.137c19.567,-8.44 35.879,-17.726 51.303,-36.208c20.157,-24.153 25.946,-60.372 23.286,-103.994c-3.54,-58.058 -21.292,-130.329 -27.71,-201.138c-12.131,-133.835 1.335,-271.362 29.57,-402.48c1.271,-5.9 12.342,-53.022 16.708,-70.653c26.577,-107.31 55.279,-214.125 88.502,-319.587c11.193,-35.531 38.041,-103.598 52.688,-144.274Zm3.684,-10.38l-0,0l-0,0Z" style="fill:#7e4021;"/><path d="M2517.67,3865.53c-9.433,61.389 -4.985,274.175 2.249,335.52c12.246,103.855 144.337,447.102 263.698,481.019c144.687,41.113 281.519,-273.353 287.826,-378.167c7.243,-120.343 -42.675,-234.028 -100.736,-336.536c-11.394,-20.117 -35.956,-59.311 -35.956,-59.311c-0,0 13.775,-4.901 20.099,-8.494c39.89,-22.663 -2.34,-229.958 -28.321,-275.483c-21.686,-38.001 -86.753,-60.83 -125.11,-64.077c-236.127,-19.99 -251.546,74.62 -283.749,305.529Z" style="fill:#fff;"/><path d="M2501.18,3863.12c-9.535,62.365 -5.137,277.76 2.189,339.885c8.736,74.086 77.077,267.811 159.162,389.175c37.2,55 77.945,94.959 116.533,105.924c63.696,18.099 127.431,-23.658 179.72,-90.976c73.466,-94.58 125.397,-237.391 129.298,-302.221c7.437,-123.578 -43.25,-240.489 -102.871,-345.752c-6.646,-11.736 -17.726,-29.895 -25.906,-43.153c1.399,-0.668 2.688,-1.325 3.781,-1.946c7.73,-4.393 14.302,-12.531 18.488,-24.544c4.367,-12.536 6.436,-30.247 6.329,-50.928c-0.385,-74.347 -28.009,-189.668 -46.896,-222.764c-10.038,-17.589 -27.817,-32.692 -48.728,-44.336c-29.295,-16.314 -64.579,-25.981 -89.452,-28.087c-100.247,-8.487 -162.771,3.903 -204.19,35.813c-31.839,24.53 -51.919,60.801 -66.117,110.108c-13.222,45.914 -21.554,103.642 -31.34,173.802l0,0Zm32.965,4.944c0.012,-0.076 0.023,-0.153 0.034,-0.229c9.53,-68.335 17.497,-124.582 30.372,-169.293c11.906,-41.344 27.732,-72.358 54.43,-92.926c36.631,-28.222 92.375,-36.51 181.034,-29.005c21.155,1.791 51.131,10.12 76.047,23.995c15.231,8.482 28.682,18.923 35.994,31.735c17.485,30.64 42.158,137.588 42.514,206.415c0.071,13.737 -0.807,25.858 -3.153,35.295c-0.737,2.966 -1.603,5.611 -2.697,7.852c-0.651,1.334 -1.098,2.601 -2.101,3.17c-5.481,3.114 -17.452,7.283 -17.452,7.283c-4.762,1.693 -8.497,5.456 -10.157,10.229c-1.659,4.773 -1.063,10.042 1.62,14.324c0,-0 24.305,38.772 35.577,58.674c56.5,99.754 105.65,210.212 98.602,327.321c-3.668,60.947 -53.284,194.861 -122.349,283.776c-22.303,28.713 -46.599,52.719 -72.256,67.461c-23.211,13.337 -47.45,18.883 -72.029,11.899c-33.032,-9.387 -66.189,-45.452 -98.033,-92.535c-79.01,-116.817 -145.261,-303.093 -153.669,-374.404c-7.137,-60.525 -11.634,-270.468 -2.328,-331.037Z" style="fill:#7e4021;"/><path d="M1626.84,2909.62c18.193,36.476 52.128,112.927 71.355,148.866c52.322,97.803 108.781,193.314 167.091,287.646c9.617,15.559 35.746,56.711 39.099,61.78c74.906,113.263 164.955,220.333 270.407,306.306c91.621,74.696 207.884,136.086 275.309,236.041c61.744,91.534 72.344,223.804 153.499,300.975c24.088,22.905 57.674,38.166 90.787,26.517c5.86,-2.062 11.643,-4.792 16.763,-8.336c65.718,-45.492 74.804,-159.551 75.859,-230.847c1.391,-94.048 2.57,-387.587 -139.77,-406.313c-49.153,-6.467 -92.36,28.748 -140.101,9.917c-130.585,-51.507 -273.518,-198.352 -369.874,-295.47c-160.907,-162.179 -210.585,-341.541 -334.769,-525.638c0,0 -182.504,74.824 -175.655,88.556Z" style="fill:#e4a57c;"/><path d="M1611.93,2917.06c18.244,36.581 52.29,113.246 71.573,149.289c52.486,98.108 109.118,193.92 167.61,288.547c9.685,15.668 35.998,57.106 39.374,62.211c75.827,114.655 167.03,223 273.778,310.029c90.399,73.701 205.497,133.822 272.023,232.445c30.177,44.736 47.651,99.519 67.702,152.456c21.417,56.545 45.761,110.988 88.129,151.276c28.51,27.11 68.611,43.948 107.803,30.161c7.25,-2.55 14.384,-5.97 20.718,-10.354c29.101,-20.145 48.592,-52.147 61.075,-88.694c17.493,-51.219 21.308,-111.364 21.963,-155.61c0.85,-57.47 1.405,-188.058 -29.426,-287.471c-22.341,-72.039 -61.806,-127.322 -124.835,-135.614c-26.699,-3.512 -51.847,3.808 -76.739,9.937c-19.587,4.822 -39.016,9.05 -59.421,1.001c-128.704,-50.765 -269.189,-195.985 -364.158,-291.704c-160.105,-161.371 -209.218,-340.041 -332.783,-523.22c-4.418,-6.55 -12.828,-9.098 -20.139,-6.101c0,0 -118.482,48.67 -162.332,75.24c-13.053,7.91 -20.449,15.922 -22.311,20.369c-2.52,6.019 -1.845,11.315 0.396,15.807Zm34.673,-4.985c28.08,-19.346 116.555,-56.723 149.603,-70.407c119.368,181.049 170.81,357.101 329.231,516.774c97.743,98.516 243.125,246.987 375.59,299.236c27.338,10.783 53.378,6.818 79.62,0.356c20.937,-5.154 41.966,-12.208 64.422,-9.254c50.856,6.69 79.319,54.313 97.346,112.439c29.714,95.812 28.752,221.715 27.933,277.104c-0.611,41.309 -3.845,97.509 -20.178,145.329c-10.068,29.48 -25.029,55.811 -48.502,72.06c-3.906,2.704 -8.337,4.745 -12.807,6.318c-27.042,9.512 -54.102,-4.168 -73.772,-22.873c-38.787,-36.883 -60.32,-87.161 -79.927,-138.927c-20.974,-55.374 -39.673,-112.493 -71.24,-159.29c-68.324,-101.288 -185.752,-163.947 -278.594,-239.639c-104.156,-84.915 -193.052,-190.71 -267.038,-302.582c-3.329,-5.033 -29.273,-45.899 -38.823,-61.349c-58.127,-94.038 -114.414,-189.248 -166.572,-286.744c-17.573,-32.848 -47.456,-99.638 -66.292,-138.551Z" style="fill:#7e4021;"/><path d="M2948.61,3896.74c-26.057,-26.311 -28.773,-66.349 -36.864,-104.612c-11.237,-53.139 -30.33,-121.277 -61.513,-172.792c-22.458,-37.102 -51.334,-65.599 -87.055,-76.509c-8.797,-2.687 -18.121,2.274 -20.808,11.072c-2.686,8.797 2.275,18.121 11.072,20.808c28.402,8.674 50.418,32.39 68.275,61.89c29.289,48.386 46.862,112.515 57.417,162.427c9.449,44.686 15.361,90.444 45.792,121.172c6.473,6.536 17.034,6.587 23.57,0.114c6.536,-6.472 6.587,-17.034 0.114,-23.57Z" style="fill:#7e4021;"/><path d="M3206.34,813.542c86.617,-174.19 385.921,-258.628 448.129,-143.386c138.975,257.458 72.178,593.291 -352.814,727.594c-73.3,23.163 -309.242,188.631 -499.93,419.861c-156.521,189.801 -709.077,948.201 -873.106,1280.26c-113.788,230.35 -352.318,454.603 -280.22,224.618c236.781,-755.303 943.077,-1523.83 1534.58,-2066.08c-0,0 -89.676,-215.55 23.358,-442.867Z" style="fill:#e4a57c;"/><path d="M3191.41,806.122c-101.197,203.512 -44.631,397.889 -27.963,445.588c-591.782,543.632 -1294.48,1311.47 -1530.96,2065.79c-11.269,35.948 -15.139,61.744 -13.837,78.697c1.292,16.809 7.638,27.206 15.685,33.059c12.062,8.772 32.321,8.62 57.117,-5.712c65.602,-37.921 182.172,-176.73 252.102,-318.295c163.623,-331.234 714.888,-1087.7 871.022,-1277.04c187.941,-227.901 419.848,-391.743 492.093,-414.573c218.558,-69.067 344.428,-190.668 398.376,-327.388c54.243,-137.469 35.943,-290.889 -35.918,-424.015c-27.7,-51.316 -96.685,-70.03 -176.801,-58.046c-112.741,16.865 -246.642,92.778 -300.917,201.929l-0.001,-0Zm29.847,14.841c49.665,-99.878 172.839,-168.371 276.002,-183.803c33.38,-4.993 64.645,-4.421 90.443,2.957c23.166,6.625 41.731,18.758 52.095,37.956c67.114,124.332 84.903,267.558 34.243,395.946c-50.955,129.136 -170.979,242.603 -377.413,307.838c-74.356,23.498 -314.332,190.59 -507.766,425.151c-156.909,190.27 -710.755,950.601 -875.191,1283.48c-66.616,134.855 -176.405,268.075 -238.898,304.199c-5.682,3.284 -10.834,5.679 -15.435,6.888c-1.413,0.372 -2.74,0.623 -3.983,0.686c-0.514,0.026 -0.999,0.399 -1.328,0.106c-1.01,-0.901 -1.19,-2.521 -1.574,-4.443c-0.616,-3.084 -0.816,-6.741 -0.688,-10.992c0.426,-14.226 4.483,-33.782 12.532,-59.459c235.988,-752.772 940.419,-1518.35 1529.94,-2058.78c5.171,-4.74 6.82,-12.211 4.126,-18.688c-0,0 -86.616,-208.815 22.893,-429.044l0,0Z" style="fill:#7e4021;"/><path d="M3568.47,783.056c-30.34,-15.018 -80.986,-11.724 -101.197,-8.577c-108.821,16.944 -198.278,78.034 -195.154,189.367c3.144,112.083 71.754,131.512 81.571,212.732c9.985,82.6 -8.07,152.371 -0.175,236.178c6.974,74.034 58.729,72.039 74.743,133.724c28.168,108.5 -26.9,230.447 21.395,336.237c5.884,12.888 14.029,24.626 26.639,31.673c100.473,56.147 116.827,-194.438 117.043,-240.903c0.345,-74.188 -14.798,-174.03 23.388,-241.637c26.194,-46.377 77.881,-72.773 86.943,-128.79c14.227,-87.947 -43.171,-148.912 -59.465,-229.366c-14.447,-71.329 -4.12,-111.505 -8.463,-183.825c-2.79,-46.477 -31.918,-89.315 -67.268,-106.813Z" style="fill:#ffce7b;"/><path d="M3575.86,768.119c-33.344,-16.504 -88.943,-13.567 -111.156,-10.109c-117.592,18.31 -212.625,85.996 -209.25,206.303c1.687,60.104 20.817,95.401 40.95,126.525c17.426,26.939 36.179,50.043 40.736,87.74c9.966,82.447 -8.103,152.089 -0.223,235.741c3.971,42.15 20.549,62.724 38.554,81.474c14.026,14.606 29.549,27.517 36.651,54.875c13.633,52.513 6.734,108.286 2.66,163.725c-4.416,60.085 -5.628,119.753 19.706,175.246c7.357,16.115 17.902,30.488 33.67,39.3c20.022,11.189 37.64,12.48 52.939,7.622c14.734,-4.679 27.719,-15.522 38.49,-31.244c40.967,-59.798 50.253,-197.833 50.411,-231.753c0.172,-36.996 -3.529,-80.388 -2.502,-122.961c0.962,-39.841 5.914,-79.006 23.735,-110.557c12.502,-22.136 31.271,-39.355 47.813,-57.873c19.419,-21.737 35.994,-45.065 41.071,-76.451c7.647,-47.277 -3.574,-87.36 -19.279,-126.378c-14.236,-35.367 -32.365,-69.757 -40.304,-108.959c-14.265,-70.429 -3.873,-110.107 -8.161,-181.514c-3.16,-52.635 -36.479,-100.937 -76.511,-120.752l-0,0Zm-14.787,29.874c30.668,15.18 55.604,52.554 58.025,92.875c4.397,73.232 -5.865,113.906 8.763,186.134c8.355,41.252 27.072,77.572 42.052,114.788c13.511,33.566 23.875,67.938 17.296,108.609c-3.984,24.632 -17.784,42.508 -33.023,59.567c-18.116,20.279 -38.288,39.446 -51.979,63.687c-16.421,29.073 -23.925,63.623 -26.734,99.803c-3.952,50.891 1.4,105.078 1.192,149.953c-0.126,26.977 -5.681,125.088 -31.258,187.501c-5.374,13.114 -11.576,24.564 -19.057,32.96c-5.67,6.362 -11.953,10.891 -19.466,11.826c-6.741,0.839 -14.131,-1.197 -22.466,-5.855c-9.453,-5.283 -15.196,-14.384 -19.607,-24.046c-22.963,-50.298 -20.788,-104.498 -16.785,-158.959c4.344,-59.107 10.895,-118.556 -3.64,-174.544c-7.289,-28.076 -20.881,-44.679 -35.319,-59.742c-16.777,-17.502 -35.275,-32.205 -38.963,-71.357c-7.91,-83.963 10.132,-153.862 0.129,-236.615c-4.282,-35.418 -18.528,-60.177 -34.649,-84.815c-20.785,-31.763 -45.041,-63.372 -46.809,-126.385c-2.872,-102.366 81.001,-156.851 181.058,-172.431c18.212,-2.836 63.902,-6.486 91.24,7.046l-0,0Z" style="fill:#7e4021;"/><path d="M1312.07,487.252c-10.862,-49.69 -46.228,-138.452 -47.855,-137.645c-1.092,0.542 -36.743,22.039 -48.474,30.551c-12.566,9.118 -111.188,68.9 -122.645,59.546c-5.807,-4.74 22.731,-33.517 25.672,-36.691c15.631,-16.869 102.115,-82.363 104.301,-97.616c2.27,-15.831 -70.156,-83.451 -83.533,-94.634c-5.891,-4.926 -29.148,-19.909 -25.993,-30.154c6.705,-21.765 94.909,25.959 105.84,33.698c3.222,2.281 20.511,18.308 24.986,13.731c7.835,-8.012 16.774,-132.915 19.588,-150.071c0.991,-6.042 3.879,-47.539 15.337,-44.174c30.763,9.033 34.302,102.877 35.454,127.697c0.208,4.46 -3.141,43.31 2.099,45.206c2.83,1.025 30.446,-28.274 42.056,-38.332c38.448,-33.311 81.55,-61.129 123.668,-89.497c5.535,-3.728 31.426,-26.951 38.811,-23.118c6.39,3.315 -23.07,41.379 -25.448,44.654c-30.032,41.343 -65.31,77.978 -102.356,113.058c-2.445,2.315 -37.169,30.443 -34.947,33.79c1.169,1.761 122.042,-5.135 159.364,4.053c5.497,1.354 29.504,4.819 31.32,11.824c2.405,9.273 -36.763,15.662 -41.387,16.952c-74.057,20.655 -169.356,32.017 -180.35,49.634c-10.128,16.23 26.075,218.81 14.992,216.673c-11.587,-2.234 -28.651,-50.679 -30.5,-59.135Z" style="fill:#fff;"/><path d="M1218.83,175.837c-25.692,-13.442 -68.442,-32.981 -91.091,-34.116c-26.154,-1.31 -40.736,11.801 -46.057,29.075c-3.642,11.825 -1.874,26.249 8.228,39.818c7.691,10.332 23.063,21.394 28.241,25.722c7.912,6.615 44.993,46.292 63.1,65.783c-23.811,20.762 -76.45,66.918 -86.939,78.239c-2.98,3.217 -25.882,27.864 -31.491,40.403c-9.481,21.195 -0.76,36.641 9.19,44.765c6.857,5.598 24.262,12.069 47.841,3.984c34.079,-11.687 104.589,-54.485 115.46,-62.372c2.79,-2.025 7.508,-5.116 12.862,-8.511c10.865,28.717 25.738,70.178 31.327,95.743c1.841,8.425 16.05,48.613 28.951,65.819c8.995,11.994 19.754,17.377 27.802,18.929c11.026,2.126 39.006,-0.681 41.555,-35.399c1.926,-26.242 -17.446,-145.863 -18.686,-193.547c8.554,-2.799 22.271,-7.066 34.3,-9.818c36.208,-8.285 82.963,-16.873 123.455,-28.166c4.761,-1.328 37.433,-8.52 48.942,-16.787c16.32,-11.723 19.267,-27.105 15.756,-40.641c-2.12,-8.175 -7.491,-17.126 -18.069,-23.715c-9.856,-6.139 -31.571,-10.636 -37.548,-12.107c-17.241,-4.245 -51.476,-5.404 -84.494,-5.504c29.335,-29.197 57.028,-59.843 81.433,-93.441c1.927,-2.654 19.455,-25.742 26.548,-39.781c4.55,-9.007 6.086,-16.994 6.165,-21.97c0.259,-16.45 -7.897,-26.381 -18.88,-32.08c-7.83,-4.063 -19.709,-6.356 -33.738,-0.92c-12.561,4.867 -33.795,22.439 -39.049,25.978c-39.794,26.803 -80.391,53.203 -117.363,83.908c-1.874,-25.332 -5.88,-60.749 -14.939,-85.797c-9.388,-25.959 -25.629,-42.432 -42.961,-47.521c-15.808,-4.642 -30.769,-0.629 -42.216,15.053c-3.934,5.389 -7.735,13.768 -10.205,23.518c-3.195,12.617 -4.594,28.484 -5.202,32.191c-1.585,9.663 -7.905,64.878 -12.228,103.265Zm93.235,311.415c-10.862,-49.69 -46.228,-138.452 -47.855,-137.645c-1.092,0.542 -36.743,22.039 -48.474,30.551c-12.566,9.118 -111.188,68.9 -122.645,59.546c-5.807,-4.74 22.731,-33.517 25.672,-36.691c15.631,-16.869 102.115,-82.363 104.301,-97.616c2.27,-15.831 -70.156,-83.451 -83.533,-94.634c-5.891,-4.926 -29.148,-19.909 -25.993,-30.154c6.705,-21.765 94.909,25.959 105.84,33.698c3.222,2.281 20.511,18.308 24.986,13.731c7.835,-8.012 16.774,-132.915 19.588,-150.071c0.991,-6.042 3.879,-47.539 15.337,-44.174c30.763,9.033 34.302,102.877 35.454,127.697c0.208,4.46 -3.141,43.31 2.099,45.206c2.83,1.025 30.446,-28.274 42.056,-38.332c38.448,-33.311 81.55,-61.129 123.668,-89.497c5.535,-3.728 31.426,-26.951 38.811,-23.118c6.39,3.315 -23.07,41.379 -25.448,44.654c-30.032,41.343 -65.31,77.978 -102.356,113.058c-2.445,2.315 -37.169,30.443 -34.947,33.79c1.169,1.761 122.042,-5.135 159.364,4.053c5.497,1.354 29.504,4.819 31.32,11.824c2.405,9.273 -36.763,15.662 -41.387,16.952c-74.057,20.655 -169.356,32.017 -180.35,49.634c-10.128,16.23 26.075,218.81 14.992,216.673c-11.587,-2.234 -28.651,-50.679 -30.5,-59.135Z" style="fill:#7e4021;"/><path d="M3503.44,1276.15c0.388,30.522 -1.106,63.786 -1.802,70.742c-0.915,9.153 5.773,17.327 14.926,18.243c9.153,0.915 17.327,-5.773 18.242,-14.926c0.876,-8.754 3.014,-57.043 1.492,-92.74c-0.729,-17.097 -2.555,-31.564 -5.201,-38.905c-4.059,-11.256 -11.952,-14.87 -17.672,-15.41c-4.903,-0.463 -11.286,0.573 -17.253,7.463c-3.539,4.087 -8.578,13.696 -13.933,31.24c-3.08,10.089 -9.741,24.301 -19.084,33.787c-5.668,5.755 -12.66,9.825 -20.718,4.659c-2.593,-1.662 -4.132,-4.422 -5.362,-7.55c-2.015,-5.127 -2.95,-11.213 -3.369,-17.678c-1.541,-23.783 4.145,-51.991 6.125,-67.017c1.305,-9.904 2.674,-19.824 4.468,-29.655l1.269,-4.734c3.524,-7.244 1.356,-16.184 -5.454,-20.939c-4.737,-3.308 -9.969,-4.121 -15.739,-1.828c-2.02,0.802 -5.743,2.565 -8.508,7.481c-1.084,1.927 -4.228,13.307 -4.267,13.516c-1.936,10.542 -3.417,21.181 -4.817,31.804c-2.171,16.478 -8.031,47.446 -6.34,73.528c1.465,22.603 9.143,41.608 24.005,51.135c19.709,12.634 37.77,9.492 53.078,-1.307c10.356,-7.306 19.246,-18.986 25.914,-30.909Zm-72.744,-113.095l-0.306,0.002l0.125,0.002l0.181,-0.004Zm-0.49,-0.001c-3.181,-0.064 -6.375,-1.039 -9.175,-2.994c2.87,2.004 5.94,2.957 9.175,2.994Z" style="fill:#7e4021;"/><path d="M3525.05,915.168c-0.203,1.097 -0.426,2.209 -0.64,3.143c-1.394,6.078 -2.84,12.266 -3.121,16.653c-1.552,24.276 -8.943,42.266 -19.353,53.066c-5.308,5.507 -11.267,8.968 -17.322,9.629c-6.468,0.705 -12.649,-2.283 -17.394,-8.368c-7.019,-9 -10.965,-23.333 -10.965,-42.902c-0,-9.198 -7.468,-16.666 -16.667,-16.666c-9.199,-0 -16.667,7.468 -16.667,16.666c0,63.036 34.487,87.768 65.306,84.407c29.187,-3.183 62.511,-34.034 66.328,-93.704c0.244,-3.817 1.981,-9.458 3.081,-14.651c1.271,-6.007 1.857,-11.677 1.418,-15.748c-0.852,-7.915 -4.745,-13.121 -9.681,-16.154c-3.528,-2.168 -8.099,-3.617 -14.177,-2.694c-9.094,1.383 -15.355,9.888 -13.973,18.982c0.486,3.202 1.856,6.053 3.827,8.341Z" style="fill:#7e4021;"/><path d="M482.621,1730.99c-0.275,-0.282 58.417,-156.177 -32.321,-289.124c-23.857,-34.954 -58.5,-61.453 -102.076,-63.715c-47.006,-2.439 -54.538,25.352 -75.534,25.894c-62.26,1.608 -118.73,-38.099 -181.238,1.916c-4.465,2.858 -8.446,6.271 -11.67,10.506c-11.72,15.397 -13.598,35.688 -4.934,52.835c5.974,11.824 15.079,23.371 27.193,29.29c4.092,2 -41.897,33.206 -54.892,60.363c-16.416,34.307 17.513,64.51 15.27,68.677c-2.904,5.394 -45.74,14.102 -40.565,57.538c4.2,35.248 30.284,39.619 30.48,50.927c0.024,1.372 -51.324,20.59 -30.45,73.508c66.956,169.742 394.261,95.971 460.737,-78.615Z" style="fill:#fff;"/><path d="M76.868,1500.54c-3.564,3.217 -7.484,6.796 -11.055,10.118c-13.179,12.261 -27.077,27.263 -33.698,41.099c-9.83,20.544 -6.524,39.987 0.288,55.66c2.135,4.912 4.986,10.05 7.597,14.383c-14.962,9.863 -38.762,31.2 -34.695,65.338c2.707,22.726 12.522,35.474 21.64,44.387l1.291,1.245c-9.931,8.221 -22.009,21.012 -26.051,36.921c-3.162,12.442 -3.044,27.673 4.195,46.026c29.347,74.398 103.571,107.467 187.657,106.487c121.494,-1.417 262.061,-74.725 304.16,-185.288c0.163,-0.426 0.307,-0.857 0.428,-1.293c0.147,-0.439 0.721,-2.163 1.355,-4.153c8.924,-28.015 49.912,-173.253 -35.914,-299.003c-26.789,-39.25 -66.048,-68.425 -114.979,-70.964c-28.425,-1.475 -44.873,6.36 -57.431,14.476c-4.211,2.721 -7.897,5.5 -11.483,7.876c-2.576,1.708 -4.854,3.446 -7.914,3.525c-30.094,0.777 -58.753,-8.677 -87.478,-13.244c-33.54,-5.332 -67.037,-4.799 -102.315,17.784c-6.119,3.917 -11.527,8.644 -15.946,14.449c-15.626,20.528 -18.099,47.584 -6.548,70.445c4.295,8.5 9.977,16.783 16.896,23.726Zm390.092,224.736c-37.766,98.81 -164.663,162.33 -273.311,163.596c-69.396,0.81 -132.041,-23.987 -156.261,-85.386c-4.033,-10.225 -4.658,-18.654 -2.896,-25.586c4.217,-16.599 20.467,-23.978 24.638,-26.338c9.815,-5.552 9.894,-14.264 9.868,-15.758c-0.128,-7.407 -3.749,-14.373 -11.236,-21.283c-6.096,-5.626 -17.118,-12.528 -19.358,-31.327c-2.918,-24.495 17.204,-32.392 25.866,-36.89c7.344,-3.814 11.436,-8.197 12.824,-10.776c1.435,-2.665 2.364,-5.919 2.036,-9.894c-0.203,-2.47 -1.489,-6.988 -4.973,-12.436c-3.066,-4.792 -8.915,-12.532 -12.417,-22.154c-2.64,-7.249 -3.881,-15.861 0.444,-24.899c6.202,-12.961 21.264,-26.653 32.912,-37.073c10.244,-9.165 18.407,-16.532 20.546,-19.684c4.448,-6.558 3.559,-12.257 2.544,-15.507c-1.351,-4.331 -4.067,-7.941 -8.828,-10.267c-8.9,-4.349 -15.245,-13.145 -19.635,-21.833c-5.776,-11.432 -4.493,-24.957 3.321,-35.223c2.03,-2.667 4.582,-4.765 7.394,-6.564c27.23,-17.432 53.22,-17.054 79.109,-12.938c30.702,4.881 61.408,14.477 93.573,13.646c9.545,-0.246 17.428,-3.734 25.467,-9.061c10.298,-6.825 21.397,-18.27 48.773,-16.849c38.224,1.983 68.247,25.805 89.174,56.466c77.503,113.555 39.743,244.797 31.685,270.095c-0.54,1.695 -0.967,3.011 -1.259,3.923Z" style="fill:#7e4021;"/><path d="M292.591,1376.06c-35.384,24.207 -52.373,50.743 -58.418,60.033c-20.298,31.194 -43.215,71.124 -53.068,111.714c-7.097,29.233 -7.489,58.814 3.285,86.24c8.153,20.756 20.782,33.39 35.133,40.272c14.331,6.872 30.73,8.005 47.263,4.456c29.668,-6.37 59.774,-28.274 75.889,-53.57c12.875,-20.211 21.712,-41.926 27.903,-64.993c2.385,-8.884 -2.892,-18.033 -11.776,-20.418c-8.884,-2.385 -18.033,2.892 -20.418,11.776c-5.305,19.765 -12.791,38.408 -23.823,55.725c-11.653,18.293 -33.318,34.283 -54.772,38.889c-9.029,1.938 -18.027,1.831 -25.853,-1.922c-7.805,-3.743 -14.086,-11.113 -18.521,-22.402c-10.466,-26.645 -6.344,-55.899 3.33,-83.97c10.542,-30.593 27.889,-59.83 43.367,-83.616c5.104,-7.844 19.427,-30.266 49.3,-50.703c7.592,-5.194 9.539,-15.574 4.345,-23.166c-5.194,-7.592 -15.574,-9.539 -23.166,-4.345Z" style="fill:#7e4021;"/><path d="M54.339,1754.98c6.507,-1.159 54.16,-9.631 58.658,-10.057c26.945,-2.551 63.545,-4.959 95.085,2.644c18.276,4.406 34.88,12.118 45.466,26.511c2.069,2.814 3.471,5.12 3.052,7.453c-0.917,5.093 -6.445,8.312 -12.569,11.839c-24.656,14.203 -66.578,20.709 -81.315,19.369c-9.161,-0.833 -17.275,5.928 -18.108,15.089c-0.833,9.16 5.928,17.274 15.089,18.107c15.137,1.376 53.631,-3.506 83.607,-15.409c13.842,-5.496 25.882,-12.56 33.857,-20.663c7.207,-7.324 11.487,-15.634 12.562,-24.538c1.131,-9.369 -1.115,-19.837 -9.323,-30.997c-15.178,-20.637 -38.3,-32.848 -64.506,-39.166c-35.179,-8.48 -75.986,-6.269 -106.039,-3.424c-4.902,0.464 -45.192,5.555 -62.456,10.378c-6.265,1.75 -10.616,4.06 -12.689,5.71c-2.678,2.131 -4.26,4.471 -5.242,6.542c-3.941,8.312 -0.391,18.259 7.92,22.199c5.704,2.704 12.178,1.881 16.951,-1.587Z" style="fill:#7e4021;"/><path d="M63.439,1643.53c5.761,0.148 52.959,1.369 57.197,1.578c26.84,1.323 52.165,1.334 71.246,5.724c7.683,9.847 22.61,24.737 44.24,29.11c11.574,2.798 21.201,2.046 29.691,1.028c2.66,-0.319 5.155,-0.673 7.543,-0.782c1.918,-0.087 3.699,0.048 5.437,1.829c4.382,4.492 1.911,10.335 -0.975,15.912c-7.446,14.392 -23.108,28.231 -31.858,31.031c-8.761,2.803 -13.598,12.192 -10.794,20.953c2.803,8.761 12.192,13.598 20.953,10.794c13.751,-4.4 39.603,-24.843 51.305,-47.46c9.904,-19.142 10.268,-39.092 -4.771,-54.507c-9.606,-9.846 -19.037,-12.144 -29.53,-11.895c-7.968,0.189 -17.098,3.685 -29.396,0.641c-0.268,-0.066 -0.538,-0.126 -0.809,-0.179c-15.059,-2.941 -26.088,-18.178 -26.678,-19.009c-2.09,-3.941 -5.699,-6.908 -10.045,-8.175c-21.514,-6.269 -51.698,-6.72 -83.918,-8.308c-4.966,-0.244 -52.435,-2.768 -63.556,-1.375c-7.453,0.933 -11.275,4.607 -12.662,6.205c-6.032,6.945 -5.29,17.481 1.655,23.512c4.473,3.885 10.436,4.96 15.725,3.373Z" style="fill:#7e4021;"/><path d="M182.338,1827.81c-0.604,1.647 -2.302,3.191 -3.795,4.917c-3.354,3.876 -6.887,7.707 -9.183,11.034c-5.225,7.57 -3.32,17.959 4.251,23.184c7.57,5.224 17.959,3.32 23.183,-4.251c2.188,-3.17 5.911,-6.814 8.959,-10.528c3.539,-4.314 6.377,-8.783 7.878,-12.873c3.169,-8.636 -1.27,-18.22 -9.906,-21.388c-8.635,-3.169 -18.219,1.27 -21.387,9.905Z" style="fill:#7e4021;"/><path d="M107.91,1518.3c3.801,-0.038 15.163,-0.151 16.33,-0.132c24.112,0.383 47.564,3.869 70.802,10.212c8.874,2.422 18.045,-2.816 20.467,-11.69c2.422,-8.874 -2.816,-18.045 -11.69,-20.467c-25.944,-7.082 -52.129,-10.957 -79.05,-11.384c-1.418,-0.023 -10.753,-0.419 -17.662,-0.022c-5.401,0.31 -9.897,1.406 -12.186,2.443c-6.338,2.871 -8.914,7.597 -9.974,11.46c-2.433,8.871 2.794,18.049 11.664,20.482c3.908,1.072 7.875,0.658 11.299,-0.902Z" style="fill:#7e4021;"/><path d="M348.085,1609.02c-0.382,-0.69 -0.82,-1.358 -1.312,-2.002c-6.013,-7.868 -13.098,-6.595 -14.02,-6.553c-2.174,0.099 -22.827,7.231 -14.058,24.291c0.223,0.435 2.802,4.589 3.396,5.408c3.011,4.149 6.619,7.855 10.452,11.242c9,7.952 18.663,16.154 28.804,22.593c7.766,4.931 18.073,2.63 23.004,-5.136c4.931,-7.765 2.63,-18.073 -5.136,-23.003c-8.684,-5.515 -16.894,-12.624 -24.601,-19.433c-2.011,-1.777 -3.965,-3.664 -5.545,-5.841c-0.139,-0.192 -0.699,-1.1 -0.984,-1.566Zm-12.748,24.686c-5.604,0.604 -11.381,-1.647 -15.05,-6.448c4.851,6.346 10.354,7.372 15.05,6.448Zm14.705,-14.334c-0.28,2.079 -0.951,4.105 -1.997,5.959c0.919,-1.575 1.7,-3.53 1.997,-5.959Z" style="fill:#7e4021;"/><path d="M676.889,1710.35c-22.856,-0.663 -111.795,65.348 -117.436,175.816c-0.728,14.25 7.907,32.623 20.301,40.437c3.385,2.134 7.155,3.346 11.161,3.741c33.352,3.294 71.766,-20.02 104.517,-62.368c36.079,-46.65 59.576,-155.36 -18.543,-157.626Z" style="fill:#fff;"/><path d="M677.372,1693.69c-8.831,-0.256 -26,5.774 -44.957,20.203c-37.03,28.185 -85.349,88.046 -89.607,171.423c-0.999,19.553 11.051,44.663 28.057,55.385c5.589,3.524 11.797,5.576 18.412,6.229c37.741,3.728 82.277,-20.836 119.339,-68.757c24.117,-31.183 42.733,-87.383 35.332,-127.797c-2.9,-15.84 -9.578,-29.471 -20.329,-39.454c-10.764,-9.995 -25.755,-16.637 -46.247,-17.232Zm-0.967,33.32c10.759,0.312 18.881,3.091 24.533,8.338c9.109,8.459 11.658,22.08 11.383,36.861c-0.555,29.844 -13.902,64.662 -30.073,85.571c-28.45,36.787 -60.722,58.84 -89.695,55.978c-1.397,-0.138 -2.729,-0.509 -3.91,-1.253c-7.781,-4.907 -13.002,-16.542 -12.546,-25.489c3.641,-71.278 44.85,-122.504 76.507,-146.598c6.31,-4.804 12.187,-8.487 17.245,-10.91c2.791,-1.338 4.934,-2.545 6.556,-2.498l0,-0Z" style="fill:#7e4021;"/><path d="M1201.45,1465.35c-67.63,10.229 -90.609,268.144 -190.338,339.999c-64.04,46.142 -183.674,13.02 -236.561,-1.128c-26.118,-6.987 -58.627,-24.647 -85.975,-25.27c-42.377,-0.966 -86.024,66.148 -59.437,106.67c6.423,9.789 28.775,21.738 33.36,24.378c133.987,77.136 327.638,87.123 414.988,27.641c139.351,-94.893 219.42,-284.878 219.815,-358.11c0.191,-35.477 1.669,-128.931 -95.852,-114.18Z" style="fill:#e4a57c;"/><path d="M1198.96,1448.87c-11.499,1.739 -22.396,8.011 -32.371,18.796c-11.568,12.508 -22.316,31.817 -32.525,55.443c-21.688,50.193 -41.903,121.084 -69.667,180.595c-17.221,36.914 -37.107,69.448 -63.024,88.122c-22.89,16.492 -53.881,21.023 -85.671,20.469c-51.852,-0.905 -106.008,-15.927 -136.841,-24.175c-27.262,-7.294 -61.355,-25.182 -89.902,-25.833c-26.476,-0.603 -54.194,18.793 -70.295,45.937c-16.173,27.266 -20.143,61.108 -3.457,86.539c7.616,11.607 33.542,26.549 38.98,29.679c83.02,47.795 188.206,70.689 278.569,68.038c61.961,-1.817 117.003,-15.793 154.115,-41.065c144.484,-98.388 226.691,-295.867 227.1,-371.796c0.087,-16.055 0.223,-43.11 -7.207,-67.939c-5.616,-18.764 -15.465,-36.187 -31.591,-48.231c-16.945,-12.658 -41.162,-19.881 -76.213,-14.579l0,-0Zm4.985,32.958c23.468,-3.55 39.935,-0.148 51.281,8.327c13.158,9.827 18.989,25.68 22.113,41.225c3.66,18.215 3.362,36.458 3.299,48.059c-0.38,70.535 -78.309,253.026 -212.529,344.424c-32.768,22.314 -81.621,33.693 -136.33,35.298c-84.642,2.483 -183.198,-18.839 -260.961,-63.607c-2.577,-1.483 -11.156,-6.081 -18.895,-11.52c-3.587,-2.521 -7.173,-5.008 -8.846,-7.557c-9.907,-15.1 -5.347,-35.058 4.256,-51.247c9.677,-16.315 24.953,-29.981 40.866,-29.618c26.151,0.596 57.074,18.028 82.048,24.709c32.632,8.729 89.997,24.345 144.874,25.302c39.364,0.686 77.393,-6.331 105.737,-26.753c25.829,-18.609 47.208,-48.534 65.306,-83.803c25.453,-49.6 44.733,-109.919 63.43,-160.539c11.704,-31.687 22.983,-59.412 35.853,-77.284c5.891,-8.18 11.44,-14.348 18.498,-15.416l0,0Z" style="fill:#7e4021;"/><path d="M391.701,1218.68c-8.143,48.131 -26.199,157.911 -33.983,206.107c-16.222,100.432 -65.221,402.354 -49.753,502.839c9.36,60.812 61.962,66.875 62.564,115.524c2.805,227.024 -34.247,300.811 -18.3,426.789c11.584,91.514 293.207,159.363 365.948,35.629c37.75,-64.215 72.545,-335.138 96.119,-405.549c13.415,-40.067 66.11,-40.626 86.556,-80.999c39.041,-77.094 119.217,-625.7 105.491,-718.176c-3.302,-22.249 -9.382,-99.9 -141.439,-163.016c-123.042,-58.807 -418.255,-75.423 -473.203,80.852Z" style="fill:#ffeeda;"/><path d="M375.978,1213.15c-0.315,0.894 -0.552,1.814 -0.711,2.748c-8.147,48.16 -26.213,158.005 -34.003,206.23c-16.388,101.459 -65.398,406.518 -49.772,508.031c5.332,34.642 22.538,53.934 38.939,71.249c11.505,12.147 23.192,22.505 23.432,41.946c2.818,228.023 -34.186,302.144 -18.169,428.676c2.292,18.104 12.569,35.784 29.53,51.539c22.122,20.551 56.085,38.234 95.044,50.03c57.336,17.36 125.409,22.038 180.63,6.299c39.2,-11.172 72.038,-32.531 91.647,-65.886c15.622,-26.574 31.208,-87.235 45.305,-155.281c20.283,-97.908 38.213,-211.496 52.251,-253.422c5.346,-15.969 19.386,-23.169 33.26,-31.295c20.067,-11.754 40.574,-24.193 52.359,-47.466c15.914,-31.424 39.009,-139.616 59.529,-264.293c30.542,-185.57 55.907,-407.757 47.58,-463.86c-3.541,-23.857 -9.131,-107.926 -150.738,-175.606c-76.307,-36.471 -216.661,-57.422 -329.018,-33.314c-78.604,16.867 -143.255,55.872 -167.095,123.675Zm31.912,9.752c20.511,-56.383 76.346,-86.71 142.176,-100.835c105.048,-22.541 236.308,-3.302 307.651,30.797c122.512,58.553 129.077,129.784 132.14,150.425c8.144,54.868 -17.629,272.066 -47.499,453.553c-19.754,120.028 -41.055,224.394 -56.375,254.646c-10.799,21.324 -32.592,29.084 -50.231,40.256c-16.613,10.523 -30.586,23.048 -37.26,42.982c-14.252,42.566 -32.69,157.84 -53.283,257.243c-13.154,63.496 -26.822,120.353 -41.4,145.15c-15.307,26.038 -41.447,42.001 -72.048,50.723c-49.48,14.102 -110.458,9.409 -161.833,-6.146c-33.515,-10.147 -62.987,-24.87 -82.018,-42.549c-10.478,-9.733 -17.731,-20.12 -19.146,-31.303c-15.877,-125.424 21.223,-198.877 18.43,-424.902c-0.299,-24.168 -10.433,-40.091 -23.828,-55.071c-14.347,-16.044 -33.948,-30.425 -38.929,-62.783c-15.309,-99.457 33.678,-398.241 49.734,-497.645c7.703,-47.69 25.469,-155.716 33.718,-204.538l0.001,-0.003Z" style="fill:#7e4021;"/><path d="M744.432,2108.16c2.887,-1.82 5.241,-4.544 6.589,-7.96c3.514,-8.912 -0.664,-14.053 -1.896,-15.792c-3.666,-5.176 -9.337,-8.932 -18.203,-6.388c-0.832,0.238 -7.661,4.706 -7.661,4.706c-0,-0 2.627,-2.206 3.517,-2.713c0.334,-0.191 1.102,-0.505 1.102,-0.505c0,-0 -6.134,0.614 -8.577,0.94c-9.467,1.262 -19.171,2.067 -28.705,2.537c-28.939,1.424 -58.523,-2.944 -86.787,-8.856c-9.003,-1.884 -17.842,3.897 -19.726,12.901c-1.883,9.004 3.898,17.843 12.902,19.726c31.013,6.487 63.496,11.085 95.25,9.522c10.453,-0.515 21.092,-1.405 31.472,-2.789c5.804,-0.774 14.345,-1.535 19.577,-4.518c0.273,-0.155 0.686,-0.453 1.146,-0.811Zm-25.163,-10.374c0.69,3.204 2.132,5.578 3.817,7.396c-1.881,-2.107 -3.192,-4.66 -3.817,-7.396Zm-0.393,-2.81c-0.131,-2.32 0.228,-4.704 1.136,-7.006c-1.247,3.161 -1.255,5.526 -1.136,7.006Z" style="fill:#7e4021;"/><path d="M704.873,2300.99l-0.017,0.102c-1.852,10.655 -13.569,60.694 -14.68,64.704c-2.455,8.865 2.749,18.055 11.614,20.51c8.865,2.455 18.055,-2.748 20.51,-11.613c1.166,-4.208 13.454,-56.712 15.397,-67.893c1.514,-8.706 -2.032,-13.713 -2.516,-14.407c-5.259,-7.547 -15.655,-9.405 -23.203,-4.146c-4.367,3.043 -6.829,7.807 -7.105,12.743Z" style="fill:#7e4021;"/><path d="M678.227,2424.07c-1.265,4.021 -5.751,18.293 -6.232,20.013c-2.476,8.859 2.705,18.062 11.564,20.539c8.859,2.477 18.062,-2.705 20.539,-11.564c0.686,-2.454 6.594,-18.335 7.538,-25.927c1.147,-9.224 -2.83,-15.194 -5.642,-17.782c-6.767,-6.231 -17.319,-5.795 -23.55,0.972c-3.549,3.854 -4.935,8.937 -4.217,13.749Z" style="fill:#7e4021;"/><path d="M391.701,1218.68c-10.103,77.797 58.774,159.798 230.225,193.564c249.872,49.21 384.651,-16.337 384.528,-109.977c-1.645,-22.431 -9.493,-101.323 -141.55,-164.439c-123.042,-58.807 -418.255,-75.423 -473.203,80.852Z" style="fill:#ebccb8;"/><path d="M375.978,1213.15c-0.386,1.096 -0.656,2.23 -0.805,3.382c-10.846,83.523 59.462,175.811 243.533,212.063c155.191,30.563 267.432,17.213 332.416,-18.375c48.152,-26.37 72.055,-64.882 71.999,-107.977c-0.001,-0.399 -0.015,-0.798 -0.045,-1.197c-1.771,-24.151 -8.803,-110.302 -150.985,-178.257c-76.307,-36.471 -216.661,-57.422 -329.018,-33.314c-78.604,16.867 -143.255,55.872 -167.095,123.675Zm32.043,9.396c20.616,-56.155 76.354,-86.383 142.045,-100.479c105.048,-22.541 236.308,-3.302 307.651,30.797c120.762,57.717 130.418,128.522 132.069,150.005c-0.195,31.578 -19.341,58.764 -54.675,78.115c-60.572,33.172 -165.308,43.394 -309.964,14.905c-81.853,-16.12 -139.425,-43.286 -175.123,-76.175c-32.17,-29.638 -45.755,-63.675 -42.004,-97.165l0.001,-0.003Z" style="fill:#7e4021;"/><path d="M534.552,1218.85c-5.645,43.468 32.839,89.285 128.634,108.151c139.612,27.495 214.917,-9.128 214.849,-61.448c-0.919,-12.533 -5.304,-56.613 -79.089,-91.878c-68.748,-32.857 -233.693,-42.141 -264.394,45.175Z" style="fill:#ffe6d8;"/><path d="M518.829,1213.32c-0.386,1.096 -0.656,2.23 -0.805,3.382c-6.39,49.202 33.507,105.294 141.942,126.649c89.036,17.535 153.403,9.386 190.685,-11.032c29.686,-16.257 44.085,-40.222 44.051,-66.79c-0.001,-0.399 -0.016,-0.799 -0.045,-1.197c-1.046,-14.254 -4.611,-65.59 -88.524,-105.696c-43.73,-20.901 -124.158,-32.985 -188.548,-19.169c-46.627,10.006 -84.614,33.632 -98.756,73.853Zm32.061,9.382c10.93,-28.544 39.981,-43.41 73.689,-50.643c57.081,-12.248 128.413,-1.876 167.18,16.652c62.497,29.87 68.649,65.884 69.605,77.433c-0.222,15.048 -9.851,27.699 -26.724,36.939c-32.871,18.002 -89.732,23.023 -168.233,7.563c-44.025,-8.67 -75.085,-23.065 -94.285,-40.755c-15.677,-14.443 -22.751,-30.866 -21.233,-47.186l0.001,-0.003Z" style="fill:#7e4021;"/><path d="M622.869,1175.72c-4.332,33.702 15.912,68.018 68.889,79.978c77.207,17.43 120.249,-12.88 121.631,-53.258c-0.173,-9.648 -1.424,-43.55 -41.666,-68.764c-37.494,-23.492 -129.341,-26.179 -148.854,42.044Z" style="fill:#fff;"/><path d="M606.845,1171.14c-0.23,0.806 -0.4,1.628 -0.507,2.459c-5.248,40.834 17.56,83.868 81.749,98.36c91.765,20.716 140.316,-20.955 141.959,-68.946c0.01,-0.289 0.012,-0.579 0.007,-0.869c-0.207,-11.553 -1.294,-52.396 -49.48,-82.588c-21.428,-13.426 -58.319,-21.32 -92.709,-15.697c-36.223,5.923 -69.273,26.214 -81.019,67.281Zm32.412,7.942c8.09,-26.31 30.394,-38.469 53.986,-42.326c25.786,-4.216 53.564,0.98 69.631,11.047c31.689,19.855 33.648,46.182 33.842,54.481c-0.636,14.138 -8.808,26.275 -23.251,33.604c-17.989,9.129 -44.3,11.172 -78.037,3.556c-41.14,-9.288 -58.891,-34.221 -56.172,-60.358l0.001,-0.004Z" style="fill:#7e4021;"/><path d="M754.08,658.75c2.139,-17.083 17.744,-29.216 34.827,-27.077c17.083,2.139 29.216,17.745 27.077,34.828l-61.719,492.922c-2.139,17.083 -17.744,29.215 -34.827,27.076c-17.083,-2.139 -29.216,-17.744 -27.077,-34.827l61.719,-492.922Z" style="fill:#eb7e6c;"/><path d="M721.005,654.608l-61.719,492.922c-2.213,17.67 2.95,34.577 13.089,47.619c10.139,13.041 25.252,22.213 42.921,24.425c17.67,2.213 34.577,-2.95 47.619,-13.089c13.041,-10.139 22.213,-25.251 24.425,-42.921c0,-0 61.719,-492.922 61.719,-492.922c2.213,-17.67 -2.95,-34.577 -13.089,-47.618c-10.139,-13.042 -25.252,-22.214 -42.921,-24.426c-17.67,-2.212 -34.577,2.95 -47.619,13.089c-13.041,10.139 -22.213,25.252 -24.425,42.921Zm33.075,4.142c2.139,-17.083 17.744,-29.216 34.827,-27.077c17.083,2.139 29.216,17.745 27.077,34.828l-61.719,492.922c-2.139,17.083 -17.744,29.215 -34.827,27.076c-17.083,-2.139 -29.216,-17.744 -27.077,-34.827l61.719,-492.922Z" style="fill:#7e4021;"/><path d="M379.725,1290.62c-26.756,-10.569 -113.056,-19.857 -155.099,0.507c-35.582,17.234 -54.985,66.447 -47.447,94.639c17.55,5.88 61.877,13.178 61.923,12.872c8.71,-57.833 81.169,-60.976 128.45,-42.719l12.173,-65.299Z" style="fill:#ffeeda;"/><path d="M396.109,1293.67c1.462,-7.844 -2.84,-15.624 -10.261,-18.555c-17.21,-6.799 -57.358,-13.436 -96.494,-12.676c-26.959,0.523 -53.364,4.659 -71.994,13.683c-25.288,12.248 -44.043,37.833 -52.78,63.795c-6.08,18.068 -7.231,36.205 -3.502,50.149c1.444,5.403 5.503,9.721 10.806,11.498c16.588,5.558 55.938,12.391 63.68,13.453c15.628,2.145 19.93,-13.318 20.019,-13.902c3.195,-21.218 18.562,-31.92 36.989,-36.127c22.019,-5.026 48.249,-1.53 68.977,6.474c4.622,1.784 9.798,1.42 14.125,-0.994c4.327,-2.415 7.355,-6.629 8.263,-11.5l12.172,-65.298Zm-169.316,86.011c-10.143,-1.819 -24.112,-4.476 -34.619,-7.032c-0.06,-6.82 1.426,-14.457 3.999,-22.101c6.015,-17.874 18.307,-35.994 35.718,-44.427c15.005,-7.268 36.396,-9.934 58.11,-10.355c26.173,-0.509 52.917,2.435 70.596,6.514l-0,-0l-5.99,32.132c-22.536,-5.599 -47.622,-6.905 -69.453,-1.921c-26.658,6.085 -48.686,20.968 -58.361,47.19Z" style="fill:#7e4021;"/><path d="M301.52,1919.3c1.044,12.79 -128.74,23.062 -168.457,-25.087c-25.74,-31.204 -19.571,-42.555 -17.493,-50.695c38.485,-19.897 66.207,-13.045 66.162,-12.738c-7.291,49.796 70.854,41.385 121.177,35.349c-0,0 -3.043,32.912 -1.389,53.171Z" style="fill:#ffeeda;"/><path d="M318.131,1917.94c-1.564,-19.158 1.374,-50.28 1.374,-50.28c0.463,-5.013 -1.364,-9.967 -4.972,-13.479c-3.608,-3.511 -8.61,-5.203 -13.609,-4.604c-23.873,2.864 -54.337,6.489 -77.976,3.294c-14.35,-1.939 -26.824,-5.341 -24.725,-19.681c0.124,-0.842 1.275,-15.348 -13.399,-18.874c-5.641,-1.356 -36.24,-6.633 -76.908,14.393c-4.226,2.185 -7.317,6.072 -8.494,10.682c-1.14,4.462 -2.888,9.676 -2.664,17.007c0.306,10.022 4.155,25.028 23.448,48.417c14.801,17.944 39.972,29.634 67.826,35.778c38.565,8.505 81.934,6.814 103.839,1.888c9.732,-2.189 16.35,-5.634 19.527,-8.45c5.687,-5.041 7.161,-10.844 6.733,-16.091Zm-152.638,-71.345c0.842,4.249 2.242,8.101 4.075,11.598c6.042,11.528 17.244,19.682 32.372,24.236c22.199,6.681 54.419,5.277 83.003,2.453c-0.373,7.521 -0.648,16.185 -0.526,24.264c-11.876,1.772 -38.895,5.13 -61.646,3.069c-29.617,-2.684 -61.383,-9.859 -76.851,-28.611c-11.609,-14.073 -15.66,-22.195 -15.844,-28.225c-0.003,-0.101 -0.005,-0.2 -0.006,-0.299c14.037,-6.047 26.768,-7.979 35.423,-8.485Z" style="fill:#7e4021;"/><path d="M3048.08,980.336c-40.468,-146.091 -267.741,12.477 -496.121,-115.226c-188.278,-105.278 -113.601,-240.131 -243.884,-198.754c-379.597,120.558 -332.272,-165.782 -566.915,-27.318c-277.965,164.029 -378.689,-62.621 -411.423,93.77c-61.565,294.133 -178.137,556.194 -200.378,863.293c-57.331,791.618 291.96,1626.91 474.837,1808.53c105.07,104.347 238.375,-362.594 349.274,-577.843c362.527,-703.649 614.713,-990.769 1227.48,-1574.3c-109.236,-10.495 -76.648,-69.19 -132.87,-272.149Z" style="fill:#eb7e6c;"/><path d="M3064.15,975.887c-18.477,-66.703 -69.581,-80.516 -142.726,-79.107c-93.889,1.809 -227.476,28.626 -361.323,-46.217c-108.973,-60.933 -126.097,-132.606 -149.932,-171.199c-10.585,-17.138 -22.584,-28.878 -39.81,-34.245c-15.724,-4.9 -36.752,-4.357 -67.321,5.352c-219.783,69.802 -291.236,-1.92 -362.157,-41.469c-27.05,-15.085 -54.122,-25.785 -87.293,-25.385c-32.205,0.388 -70.584,11.381 -120.89,41.067c-160.48,94.699 -259.596,53.783 -319.989,38.63c-25.863,-6.489 -46.206,-7.725 -62.103,0.712c-15.804,8.387 -29.129,26.93 -37.174,65.367c-61.72,294.871 -178.391,557.635 -200.688,865.504c-40.349,557.134 119.542,1135.8 282.225,1495.48c70.459,155.779 141.747,270.717 197.491,326.078c38.717,38.451 82.843,20.314 126.123,-40.25c82.549,-115.514 171.769,-390.504 249.711,-541.785c361.521,-701.697 613.091,-987.953 1224.16,-1569.87c4.725,-4.499 6.39,-11.343 4.259,-17.511c-2.13,-6.167 -7.664,-10.524 -14.159,-11.148c-23.246,-2.234 -39.143,-6.387 -50.366,-15.027c-10.664,-8.209 -16.524,-20.394 -21.593,-37.118c-12.512,-41.278 -18.385,-106.574 -46.443,-207.863l0,-0Zm-32.123,8.899c28.163,101.669 34.107,167.2 46.666,208.633c7.467,24.634 17.453,41.771 33.16,53.863c8.903,6.854 19.824,12.138 33.686,15.942c-597.174,569.95 -848.098,859.557 -1206.88,1555.93c-77.317,150.067 -165.313,423.084 -247.199,537.671c-12.669,17.728 -24.973,31.443 -37.225,39.495c-6.752,4.437 -13.254,7.067 -19.777,6.581c-6.385,-0.476 -12.399,-4.025 -18.513,-10.097c-53.982,-53.611 -122.375,-165.306 -190.608,-316.163c-160.93,-355.806 -319.264,-928.206 -279.35,-1479.34c22.185,-306.329 138.657,-567.688 200.068,-861.083c5.058,-24.163 10.239,-37.48 20.173,-42.752c9.837,-5.22 22.364,-1.84 38.366,2.176c65.135,16.342 171.962,59.881 345.041,-42.254c43.552,-25.7 76.471,-36.108 104.352,-36.444c41.794,-0.504 71.522,21.485 107.664,43.302c67.584,40.798 153.974,84.715 351.474,21.991c25.972,-8.249 41.666,-9.513 53.039,-2.76c11.939,7.089 18.393,21.341 27.246,38.795c22.125,43.622 51.944,106.317 150.42,161.381c140.21,78.401 279.881,52.346 378.233,50.45c55.046,-1.061 96.055,4.48 109.961,54.678l-0,0.001Z" style="fill:#7e4021;"/><path d="M2923.22,1359.27c126.134,-165.697 131.805,-449.982 -563.282,-364.234c-256.04,31.585 -417.82,-238.187 -560.611,-197.879c-412.52,116.447 -504.196,80.43 -510.786,104.674c-62.256,229.052 -141.28,447.07 -159.183,694.269c-57.331,791.618 291.96,1626.91 474.837,1808.53c105.07,104.347 170.044,-392.075 280.942,-607.324c333.591,-647.483 846.653,-1186.56 1038.08,-1438.04Z" style="fill:#ffce7b;"/><path d="M2936.49,1369.37c67.796,-89.06 100.62,-210.226 25.692,-297.37c-29.572,-34.394 -76.326,-63.876 -145.665,-83.455c-99.485,-28.092 -247.051,-36.144 -458.612,-10.046c-149.281,18.416 -265.108,-69.905 -364.24,-133.996c-35.056,-22.665 -68.14,-42.534 -99.768,-54.754c-34.315,-13.258 -67.148,-17.644 -99.09,-8.627c-328.882,92.838 -453.14,88.378 -493.045,95.273c-19.623,3.391 -26.713,11.565 -29.296,21.069c-62.537,230.085 -141.739,449.124 -159.723,697.437c-40.349,557.134 119.542,1135.8 282.225,1495.48c70.459,155.779 141.747,270.717 197.491,326.078c13.174,13.083 26.278,18.629 38.635,19.049c12.045,0.41 23.975,-3.981 35.43,-13.517c13.148,-10.946 26.181,-29.566 38.633,-54.361c62.11,-123.683 117.198,-412.057 194.804,-562.688c333.044,-646.422 845.412,-1184.51 1036.53,-1435.57Zm-1632.98,-459.067c3.932,-0.745 12.997,-2.353 21.827,-3.163c55.55,-5.095 187.936,-11.911 478.521,-93.938c25.176,-7.107 50.976,-2.809 78.022,7.64c29.731,11.487 60.729,30.348 93.683,51.653c104.9,67.821 228.451,158.574 386.419,139.087c205.492,-25.35 348.841,-18.244 445.472,9.042c61.405,17.339 103.261,42.65 129.449,73.108c64.482,74.994 31.404,178.804 -26.94,255.448c-191.744,251.884 -705.501,791.954 -1039.64,1440.5c-77.651,150.717 -132.815,439.242 -194.96,562.995c-9.501,18.918 -18.92,33.7 -28.92,42.622c-4.718,4.209 -9.245,7.07 -14.222,6.901c-5.39,-0.183 -10.532,-3.679 -16.28,-9.387c-53.982,-53.611 -122.375,-165.306 -190.608,-316.163c-160.93,-355.806 -319.264,-928.206 -279.35,-1479.34c17.716,-244.61 95.723,-460.476 157.525,-687.006Z" style="fill:#7e4021;"/><path d="M1464.24,2304.29c0.782,-2.276 -7.048,12.761 -12.658,17.098c-11.634,8.995 -22.778,12.622 -35.209,12.129c-31.052,-1.233 -45.976,-36.625 -47.997,-63.16c-13.16,-172.843 292.909,-196.289 326.001,-30.828c11.589,57.947 -20.523,103.744 -80.72,80.218c-2.404,-0.939 -15.014,-9.219 -16.668,-6.132c-9.894,18.469 16.857,70.663 -5.964,109.373c-13.28,22.526 -38.94,24.26 -64.406,25.298c-72.935,2.975 -63.087,-97.971 -62.379,-143.996Z" style="fill:#ffeeda;"/><path d="M1446.9,2343.87c0.119,24.882 2.019,52.605 10.521,74.34c11.129,28.447 31.973,48.273 69.87,46.727c31.268,-1.275 61.778,-5.828 78.084,-33.486c13.371,-22.681 13.048,-49.203 10.003,-72.868c-0.988,-7.681 -2.223,-14.986 -3.07,-21.582c28.236,9.781 51.29,6.258 68.15,-4.646c25.936,-16.774 38.787,-53.437 30.255,-96.096c-18.274,-91.369 -110.856,-132.28 -198.114,-124.788c-88.076,7.563 -168.184,63.81 -160.848,160.149c1.457,19.143 8.792,42.008 22.258,57.647c10.441,12.126 24.327,20.212 41.696,20.901c10.902,0.433 21.082,-1.452 31.195,-6.298Zm173.289,-39.468c-2.006,-1.049 -14.135,-7.299 -18.806,-7.939c-9.876,-1.353 -15.944,3.404 -19.092,9.28c-2.67,4.984 -4.161,11.339 -4.262,18.909c-0.1,7.477 1.166,16.638 2.666,26.739c2.875,19.358 7.624,43.356 -4.035,63.131c-5.351,9.077 -14.014,12.627 -23.528,14.565c-8.604,1.753 -17.918,2.166 -27.199,2.545c-26.669,1.087 -37.028,-18.075 -41.831,-40.466c-6.131,-28.59 -3.679,-62.761 -3.235,-84.896l-0.001,0.007c1.109,-6.886 -2.27,-10.848 -2.997,-11.872c-3.865,-5.44 -9.236,-8.071 -16.553,-6.752c-1.814,0.327 -5.623,1.083 -9.378,5.178c-0.444,0.483 -2.569,3.6 -5.154,7.719c-1.616,2.574 -3.534,6.205 -5.403,7.651c-8.076,6.243 -15.725,9.002 -24.354,8.66c-9.731,-0.386 -16.569,-6.686 -21.498,-14.407c-6.384,-9.998 -9.721,-22.596 -10.541,-33.365c-5.826,-76.513 60.512,-118.4 130.463,-124.406c70.766,-6.077 147.756,24.013 162.576,98.113c5.38,26.902 0.684,50.991 -15.672,61.569c-10.308,6.667 -24.61,6.8 -42.166,0.037Zm-172.664,1.83c-0.227,-2.047 -0.037,-4.501 0.947,-7.363c-0.572,1.662 -0.877,3.405 -0.904,5.162l-0.043,2.201Z" style="fill:#7e4021;"/><path d="M1689.66,2795.15c1.815,-1.579 -12.485,7.528 -19.512,8.479c-14.573,1.972 -26.037,-0.458 -36.556,-7.101c-26.276,-16.593 -21.504,-54.706 -9.986,-78.697c75.023,-156.266 351.81,-23.537 297.738,136.303c-18.936,55.978 -69.644,79.584 -110.014,29.111c-1.613,-2.016 -8.393,-15.491 -11.369,-13.644c-17.803,11.048 -20.733,69.624 -59.852,91.737c-22.764,12.868 -45.852,1.54 -68.426,-10.293c-64.651,-33.892 -5.649,-116.39 17.977,-155.895Z" style="fill:#ffeeda;"/><path d="M1654.86,2820.76c-12.337,21.608 -24.553,46.567 -28.057,69.641c-4.587,30.199 3.552,57.792 37.145,75.402c27.717,14.53 56.415,25.841 84.365,10.041c22.921,-12.956 35.902,-36.086 45.098,-58.104c2.984,-7.145 5.567,-14.089 8.131,-20.224c19.564,22.587 41.29,31.063 61.343,30.05c30.848,-1.558 60.309,-26.884 74.25,-68.094c29.859,-88.264 -29.864,-169.985 -109.178,-207.126c-80.057,-37.488 -177.556,-28.83 -219.373,58.269c-8.309,17.307 -13.39,40.776 -9.547,61.053c2.979,15.722 10.961,29.667 25.659,38.949c9.225,5.825 18.983,9.283 30.164,10.143Zm169.808,52.464c-1.213,-1.911 -8.592,-13.389 -12.318,-16.279c-7.876,-6.109 -15.51,-5.023 -21.174,-1.509c-4.804,2.982 -9.272,7.74 -13.145,14.246c-3.825,6.425 -7.309,14.991 -11.061,24.489c-7.189,18.202 -15.075,41.359 -35.06,52.655c-9.173,5.186 -18.45,3.928 -27.658,0.85c-8.328,-2.784 -16.601,-7.083 -24.828,-11.396c-23.639,-12.392 -23.03,-34.167 -15.993,-55.959c8.985,-27.826 28.194,-56.192 39.646,-75.14l-0.005,0.005c4.404,-5.408 3.459,-10.529 3.341,-11.779c-0.627,-6.644 -3.963,-11.608 -10.959,-14.125c-1.735,-0.624 -5.411,-1.873 -10.711,-0.205c-0.626,0.197 -4.024,1.834 -8.323,4.108c-2.686,1.422 -6.163,3.608 -8.505,3.925c-10.114,1.369 -18.119,-0.066 -25.421,-4.677c-8.234,-5.2 -11.006,-14.075 -11.415,-23.226c-0.529,-11.851 2.88,-24.429 7.554,-34.165c33.212,-69.176 111.605,-72.282 175.188,-42.508c64.324,30.121 115.954,94.674 91.739,166.257c-8.792,25.987 -24.904,44.502 -44.357,45.484c-12.26,0.62 -24.713,-6.416 -36.535,-21.051Zm-150.447,-84.747c0.827,-1.887 2.218,-3.917 4.501,-5.903c-1.326,1.154 -2.461,2.51 -3.363,4.019l-1.138,1.884Z" style="fill:#7e4021;"/><path d="M1680.77,734.079c-3.545,-0.017 6.504,-3.161 10.028,-3.537c6.463,-0.688 13.147,0.919 19.291,2.76c21.132,6.33 42.323,16.791 60.575,29.084c47.105,31.725 80.001,83.912 98.98,136.715c7.217,20.077 15.015,51.225 -3.566,67.983c-23.206,20.929 -64.908,-5.414 -85.923,-17.497c-71.846,-41.31 -99.552,-133.556 -99.385,-215.508Z" style="fill:#badcbe;"/><path d="M1664.13,739.147c1.007,86.367 32.311,181.533 107.716,224.889c13.722,7.89 35.68,21.082 56.401,25.681c18.255,4.052 35.641,1.783 48.991,-10.257c10.748,-9.693 15.783,-22.537 16.82,-36.533c1.246,-16.839 -3.709,-35.491 -8.732,-49.464c-20.145,-56.047 -55.355,-111.226 -105.353,-144.901c-19.613,-13.209 -42.396,-24.423 -65.103,-31.226c-8.215,-2.461 -17.198,-4.287 -25.839,-3.367c-3.345,0.357 -10.67,2.324 -14.119,3.751c-3.24,1.341 -5.302,3.01 -6.272,3.93c-3.583,3.399 -4.7,7.05 -5.105,9.789c-0.398,2.694 -0.22,5.27 0.595,7.708Zm33.527,8.172c2.603,0.41 5.182,1.21 7.647,1.948c19.557,5.859 39.156,15.565 56.048,26.942c44.211,29.777 74.793,78.97 92.606,128.529c3.107,8.643 6.468,19.641 6.923,30.31c0.314,7.338 -0.466,14.697 -5.967,19.659c-7.186,6.48 -17.327,3.639 -27.207,0.245c-14.878,-5.11 -29.446,-14.179 -39.246,-19.813c-62.972,-36.208 -88.244,-115.061 -90.804,-187.82Zm-14.86,-29.779l0.231,0.03l-0.094,-0.015l-0.137,-0.015Zm-0.918,-0.087l0.532,0.043l-0.133,-0.015l-0.399,-0.028Zm-0.225,-0.016l-0.807,-0.024c0.277,0.001 0.546,0.009 0.807,0.024Z" style="fill:#7e4021;"/><path d="M1799.3,2336.58c-3.356,17.68 0.069,47.885 9.758,73.162c7.537,19.663 18.969,36.014 30.749,44.827c62.234,46.555 137.671,6.325 164.349,-56.872c13.872,-32.86 15.913,-86.803 -2.026,-124.145c-15.267,-31.782 -42.427,-53.542 -84.052,-52.222c-50.027,1.588 -105.649,46.093 -118.778,115.25Zm72.86,13.832c5.803,-30.565 26.16,-54.256 48.27,-54.958c11.188,-0.355 15.414,9.348 18.026,18.917c4.97,18.209 3.416,40.18 -2.623,54.484c-8.887,21.052 -30.872,41.838 -51.603,26.33c-2.897,-2.168 -4.069,-7.15 -5.923,-11.986c-4.379,-11.424 -7.664,-24.796 -6.147,-32.787Z" style="fill:#9964bb;"/><path d="M1782.93,2333.47c-3.77,19.86 -0.314,53.841 10.57,82.235c8.818,23.007 22.544,41.897 36.328,52.208c71.609,53.568 158.99,8.981 189.687,-63.736c15.402,-36.487 17.561,-96.381 -2.358,-137.844c-18.074,-37.625 -50.326,-63.227 -99.604,-61.663c-56.318,1.787 -119.843,50.946 -134.623,128.8Zm32.748,6.217c11.479,-60.465 59.194,-100.313 102.933,-101.7c33.972,-1.078 56.04,16.841 68.5,42.78c15.959,33.221 14.035,81.213 1.695,110.446c-22.663,53.684 -86.145,89.555 -139.012,50.008c-9.777,-7.314 -18.913,-21.126 -25.169,-37.446c-8.494,-22.161 -11.889,-48.588 -8.947,-64.088Zm40.112,7.615c-1.93,10.165 1.388,27.328 6.958,41.86c3.123,8.148 6.621,15.715 11.503,19.366c16.87,12.62 34.242,10.821 49.213,1.236c11.845,-7.584 22.006,-20.875 27.728,-34.429c7.244,-17.161 9.309,-43.509 3.346,-65.355c-4.658,-17.066 -14.678,-31.819 -34.633,-31.186c-28.362,0.9 -56.672,29.3 -64.115,68.508Zm64.05,-35.113c0.655,1.466 1.996,4.572 2.541,6.568c3.978,14.574 2.934,32.166 -1.898,43.614c-3.166,7.498 -8.44,15.125 -14.993,19.32c-2.912,1.865 -6.222,2.752 -9.518,1.198c-0.552,-1.517 -1.469,-4.014 -2.099,-5.658c-3.19,-8.323 -6.44,-17.89 -5.335,-23.712c2.308,-12.157 7.38,-23.008 14.204,-30.829c4.969,-5.695 10.757,-9.878 17.098,-10.501Z" style="fill:#7e4021;"/><path d="M1665.45,1892.58c107.8,-50.982 250.971,34.487 307.239,197.744c29.044,84.267 -242.622,128.082 -307.239,-197.744Z" style="fill:#badcbe;"/><path d="M1658.33,1877.51c-6.908,3.267 -10.709,10.813 -9.223,18.309c48.188,242.977 208.037,289.197 286.849,266.55c42.613,-12.246 64.207,-43.502 52.496,-77.48c-35.532,-103.093 -104.458,-176.311 -178.046,-207.123c-51.177,-21.428 -104.734,-22.646 -152.076,-0.256Zm26.279,25.135c35.807,-12.895 75.152,-9.946 112.923,5.868c66.252,27.74 127.416,94.422 159.406,187.238c3.331,9.665 -0.908,18.164 -9.043,24.463c-11.81,9.144 -30.402,14.202 -52.093,14.075c-71.664,-0.421 -172.467,-58.271 -211.193,-231.644l-0,0Z" style="fill:#7e4021;"/><path d="M1471.28,2570.6c63.408,58.485 125.727,297.036 -15.933,487.896c-65.448,88.178 -129.074,-317.327 15.933,-487.896Z" style="fill:#badcbe;"/><path d="M1482.58,2558.34c-3.335,-3.076 -7.78,-4.66 -12.309,-4.385c-4.529,0.275 -8.75,2.384 -11.689,5.841c-42.373,49.843 -68.006,118.769 -80.977,190.365c-19.198,105.969 -10.738,217.546 9.046,279.16c6.734,20.972 15.09,36.616 23.71,45.679c9.055,9.52 19.065,13.247 28.876,12.441c9.366,-0.771 19.831,-6.003 29.493,-19.021c88.171,-118.794 100.25,-255.38 81.532,-358.761c-12.848,-70.956 -40.594,-126.335 -67.682,-151.319Zm-10.46,38.21c18.997,25.469 36.072,67.851 45.342,119.048c17.37,95.934 6.322,222.718 -75.499,332.956c-1.633,2.2 -4.163,4.39 -5.253,5.29c-0.748,-0.572 -2.033,-1.606 -2.816,-2.495c-5.857,-6.649 -10.893,-17.854 -15.506,-32.219c-18.639,-58.049 -26.07,-163.189 -7.983,-263.027c10.621,-58.629 30.003,-115.518 61.715,-159.553Z" style="fill:#7e4021;"/><path d="M1771.93,1991.95c1.598,2.442 3.859,4.494 6.676,5.855c8.283,4.001 18.256,0.525 22.257,-7.758c1.643,-3.4 3.608,-9.897 -1.474,-17.357c-2.493,-3.658 -17.851,-15.722 -18.874,-16.538c-53.977,-43.065 -113.134,-74.922 -177.458,-99.356c-8.599,-3.266 -18.232,1.063 -21.499,9.662c-3.266,8.599 1.063,18.233 9.663,21.499c61.064,23.196 117.263,53.368 168.505,94.251l12.204,9.742Zm-1.81,-14.636c-0.578,1.6 -0.945,3.386 -0.93,5.364c0.01,-1.793 0.311,-3.604 0.93,-5.364Zm0.234,-0.649l-0.108,0.3l0.192,-0.491l-0.084,0.191Z" style="fill:#7e4021;"/><path d="M1449.87,2693.82c-0.961,2.648 -1.259,5.575 -0.733,8.545c1.604,9.058 10.26,15.109 19.317,13.506c3.698,-0.655 10.096,-2.835 13.153,-11.276c1.351,-3.73 2.127,-21.215 2.183,-22.387c2.907,-60.295 -4.778,-118.528 -20.372,-176.624c-2.385,-8.884 -11.533,-14.161 -20.417,-11.776c-8.885,2.384 -14.161,11.533 -11.777,20.417c14.691,54.729 22.01,109.577 19.272,166.378l-0.626,13.217Zm5.522,-7.571l-0.001,0.001l0.036,-0.027l-0.035,0.026Zm5.394,-2.759c-1.657,0.473 -3.341,1.234 -4.954,2.427c1.474,-1.061 3.14,-1.892 4.954,-2.427Zm0.658,-0.189l-0.307,0.088l0.513,-0.131l-0.206,0.043Z" style="fill:#7e4021;"/><path d="M1300.72,2003.73c-73.949,36.492 -97.032,125.365 -46.259,164.758c85.012,65.957 390.277,-82.273 240.999,-176.288c-44.324,-27.915 -114.184,-28.22 -194.74,11.53Zm45.787,53.308c-31.142,15.367 -35.645,41.022 -22.518,53.645c28.441,27.349 133.802,-20.722 116.251,-57.019c-12.182,-25.195 -59.81,-13.366 -93.733,3.374Z" style="fill:#9964bb;"/><path d="M1293.34,1988.78c-50.279,24.811 -79.304,71.356 -82.454,113.973c-2.271,30.721 8.467,59.591 33.354,78.899c23.297,18.076 60.863,23.386 102.481,17.524c57.772,-8.138 123.467,-36.925 163.939,-72.852c30.703,-27.256 46.73,-59.079 40.641,-89.235c-4.085,-20.231 -18.063,-40.794 -46.964,-58.996c-48.002,-30.231 -123.757,-32.362 -210.997,10.687l-0,0Zm14.75,29.892c73.879,-36.456 137.833,-37.974 178.483,-12.373c18.875,11.888 29.386,24.175 32.054,37.387c4.041,20.017 -9.716,39.618 -30.096,57.709c-36.129,32.072 -94.888,57.509 -146.46,64.773c-31.285,4.407 -59.885,2.736 -77.398,-10.852c-15.733,-12.207 -21.98,-30.684 -20.544,-50.106c2.41,-32.6 25.499,-67.558 63.961,-86.537l0,-0.001Zm31.037,23.415c-45.45,22.428 -45.853,62.184 -26.696,80.605c9.706,9.334 25.364,13.783 43.742,12.476c21.924,-1.56 48.137,-10.98 68.006,-23.912c14.822,-9.647 26.051,-21.418 31.112,-32.908c4.74,-10.759 4.941,-21.62 -0.051,-31.943c-7.517,-15.546 -22.967,-23.485 -43.128,-23.926c-21.899,-0.478 -50.249,8.389 -72.985,19.608Zm14.75,29.893c17.972,-8.869 40.196,-16.554 57.507,-16.175c6.033,0.132 11.597,0.458 13.847,5.11c1.021,2.112 -0.346,4.176 -1.72,6.359c-3.633,5.77 -10.009,11.16 -17.515,16.045c-15.271,9.939 -35.338,17.401 -52.188,18.599c-7.499,0.534 -14.312,0.556 -18.272,-3.252c-2.113,-2.032 -2.205,-5.214 -1.118,-8.405c2.289,-6.718 8.906,-13.074 19.459,-18.281Z" style="fill:#7e4021;"/><path d="M2295.68,1038.2c-2.406,-0.01 14.349,2.574 20.259,6.494c12.255,8.128 19.27,17.515 22.796,29.446c8.808,29.802 -19.914,55.305 -44.393,65.743c-159.453,67.988 -279.981,-214.325 -133.921,-298.818c51.152,-29.59 104.837,-13.892 101.897,50.671c-0.117,2.58 -3.908,17.18 -0.452,17.755c20.668,3.436 61.501,-38.664 105.492,-29.488c25.598,5.34 35.482,29.082 44.647,52.865c26.247,68.114 -72.512,91.217 -116.325,105.332Z" style="fill:#ffeeda;"/><path d="M2338.73,1041.9c23.524,-8.106 49.168,-18.812 67.019,-33.845c23.364,-19.677 35.443,-45.786 21.805,-81.178c-11.253,-29.201 -25.366,-56.631 -56.796,-63.187c-25.774,-5.377 -50.786,3.45 -72.219,13.936c-6.956,3.403 -13.478,6.919 -19.451,9.84c0.191,-29.881 -10.552,-50.582 -26.293,-63.045c-24.217,-19.172 -63.065,-19.565 -100.722,2.219c-80.656,46.658 -89.656,147.475 -54.529,227.701c35.456,80.978 114.456,138.77 203.332,100.875c17.66,-7.53 36.957,-21.821 47.441,-39.597c8.129,-13.783 11.325,-29.531 6.398,-46.201c-3.092,-10.462 -8.147,-19.498 -15.985,-27.518Zm-93.046,-151.425c-0.349,2.237 -2.371,15.731 -1.476,20.36c1.891,9.787 8.346,14.005 14.921,15.099c5.578,0.927 12.075,0.297 19.276,-2.039c7.113,-2.307 15.382,-6.449 24.465,-11.114c17.409,-8.942 38.609,-21.148 61.081,-16.46c10.316,2.152 16.46,9.215 21.352,17.602c4.424,7.584 7.807,16.273 11.147,24.94c9.597,24.906 -5.221,40.872 -24.883,52.613c-25.105,14.991 -58.252,23.646 -79.357,30.337l0.008,-0.002c-6.878,1.162 -9.545,5.634 -10.28,6.652c-3.91,5.408 -4.677,11.339 -1.077,17.845c0.892,1.613 2.832,4.977 7.916,7.218c0.6,0.264 4.235,1.275 8.966,2.401c2.956,0.703 7.011,1.352 8.981,2.659c8.506,5.641 13.577,11.999 16.025,20.28c2.76,9.339 -1.009,17.839 -6.737,24.987c-7.418,9.258 -18.276,16.465 -28.21,20.701c-70.587,30.097 -131.564,-19.269 -159.724,-83.582c-28.488,-65.064 -24.726,-147.639 40.686,-185.478c23.747,-13.737 48.068,-17.029 63.34,-4.938c9.625,7.62 14.345,21.121 13.58,39.919Zm57.201,162.925c-1.865,0.872 -4.25,1.481 -7.276,1.468c1.758,0.007 3.505,-0.264 5.179,-0.803l2.097,-0.665Z" style="fill:#7e4021;"/><path d="M3324.16,2261.39c68.272,-19.732 176.855,44.648 241.772,53.405c66.741,9.003 132.489,-13.372 198.709,3.541c21.746,5.555 49.834,13.773 56.1,37.804c12.719,58.547 -61.467,58.641 -58.764,60.579c33.356,0.887 101.472,6.147 93.68,81.266c-6.028,58.104 -85.469,43.208 -85.663,45.159c29.851,17.962 86.857,66.406 40.713,131.674c-30.471,43.097 -69.738,13.498 -94.526,-4.584c37.818,39.508 60.524,107.803 -11.728,134.428c-98.964,36.467 -197.958,-161.657 -293.395,-140.194c-92.774,20.864 -99.557,238.026 -220.796,181.782c-86.897,-40.311 36.996,-179.628 41.806,-256.711c6.686,-107.156 -99.517,-151.226 -51.109,-261.691c16.959,-38.7 80.52,-100.721 143.201,-66.458Z" style="fill:#fff;"/><path d="M3814.71,2557.8c2.094,-0.396 4.191,-0.86 6.278,-1.397c24.677,-6.35 47.637,-21.887 51.248,-56.702c2.87,-27.668 -3.251,-47.488 -13.487,-61.889c-9.45,-13.294 -22.685,-22.168 -37.233,-27.848c4.83,-4.543 8.978,-9.938 12.006,-16.301c5.023,-10.557 7.227,-23.947 3.508,-41.064c-0.048,-0.223 -0.102,-0.446 -0.159,-0.667c-3.558,-13.644 -11.835,-23.87 -22.746,-31.526c-13.14,-9.221 -30.488,-14.423 -45.357,-18.221c-34.887,-8.91 -69.638,-7.694 -104.468,-5.213c-31.925,2.274 -63.91,5.651 -96.138,1.303c-38.327,-5.17 -92.052,-30.268 -143.466,-45.146c-35.415,-10.248 -69.866,-15.599 -98.557,-9.414c-35.262,-16.465 -70.45,-8.68 -99.52,9.384c-28.978,18.007 -51.415,46.36 -60.923,68.056c-26.819,61.199 -11.435,104.052 10.353,146.401c18.391,35.747 42.513,70.832 39.386,120.943c-1.054,16.888 -8.687,36.952 -18.101,58.35c-15.722,35.736 -36.609,74.611 -47.203,108.901c-14.415,46.656 -10.141,85.548 33.119,105.616c21.891,10.156 40.752,12.508 57.258,9.762c36.443,-6.064 62.623,-38.836 85.305,-78.598c13.98,-24.506 27.035,-51.41 42.344,-73.439c12.985,-18.685 27.225,-34.018 46.56,-38.366c19.835,-4.461 39.611,3.437 59.769,15.896c23.564,14.564 47.232,35.641 71.065,56.19c25.514,21.998 51.23,43.389 76.914,57.029c29.175,15.493 58.515,21.231 87.752,10.457c26.685,-9.833 42.416,-24.817 50.712,-41.543c7.956,-16.039 9.194,-34.082 5.285,-52.237c-1.002,-4.654 -2.351,-9.318 -4.003,-13.948c21.024,4.257 42.974,-1.071 62.107,-28.133c37.775,-53.431 17.847,-97.596 -9.608,-126.636Zm-498.542,-281.789c3.859,2.11 8.396,2.608 12.621,1.387c31.399,-9.075 71.923,2.263 112.206,15.806c44.898,15.094 89.435,33.616 122.711,38.105c34.514,4.656 68.772,1.347 102.962,-1.088c31.284,-2.228 62.517,-3.742 93.851,4.261c9.614,2.455 20.679,5.362 29.985,10.449c6.359,3.476 12.029,7.918 14.028,15.1c1.688,8.02 1.254,14.342 -1.11,19.309c-3.651,7.674 -11.263,11.71 -18.356,14.473c-10.779,4.198 -21.409,5.262 -24.973,5.964c-12.142,2.389 -14.298,12.072 -14.636,14.15c-0.805,4.955 -0.282,11.248 6.81,16.334c2.709,1.942 5.938,3.027 9.269,3.116c10.609,0.282 25.098,0.963 39.133,4.77c11.795,3.2 23.483,8.528 30.911,18.978c6.44,9.06 9.306,21.731 7.501,39.137c-1.814,17.483 -14.008,24.671 -26.4,27.859c-16.553,4.26 -33.971,2.403 -39.806,2.195c-15.651,-0.561 -19.254,13.072 -19.464,15.176c-0.637,6.408 2.474,12.61 7.992,15.93c24.59,14.795 73.707,54.008 35.697,107.771c-6.07,8.585 -12.279,13.337 -18.983,14.744c-6.794,1.425 -13.639,-0.426 -20.23,-3.217c-11.856,-5.019 -22.88,-13.387 -31.881,-19.954c-6.975,-5.088 -16.681,-4.007 -22.366,2.491c-5.685,6.498 -5.467,16.262 0.504,22.499c11.595,12.113 21.649,27.266 27.001,42.912c4.608,13.467 5.852,27.322 -0.077,39.274c-5.183,10.448 -15.706,18.935 -32.376,25.078c-20.248,7.461 -40.388,2.11 -60.593,-8.62c-23.693,-12.582 -47.246,-32.542 -70.781,-52.834c-30.539,-26.331 -61.055,-53.172 -91.163,-68.179c-23.034,-11.48 -46.022,-16.295 -68.752,-11.183c-22.07,4.963 -40.361,18.807 -56.156,37.98c-20.471,24.85 -36.845,59.078 -54.387,89.829c-9.255,16.223 -18.817,31.415 -29.88,43.103c-9.264,9.789 -19.491,17.059 -31.943,19.131c-10.919,1.816 -23.278,-0.4 -37.76,-7.119c-26.303,-12.202 -24.063,-37.17 -15.298,-65.538c10.253,-33.186 30.65,-70.732 45.866,-105.317c11.211,-25.483 19.604,-49.587 20.859,-69.699c3.559,-57.048 -22.077,-97.572 -43.014,-138.268c-17.54,-34.092 -31.054,-68.504 -9.464,-117.771c7.452,-17.004 25.275,-39.011 47.986,-53.124c20.969,-13.029 46.529,-19.299 71.956,-5.4Z" style="fill:#7e4021;"/><path d="M3303.2,2270.15c-0.696,5.362 -2.276,16.471 -4.667,27.559c-5.46,25.313 -18.481,46.783 -33.142,67.81c-5.261,7.545 -3.406,17.943 4.139,23.204c7.546,5.261 17.943,3.406 23.204,-4.139c17.209,-24.681 31.974,-50.134 38.383,-79.847c3.339,-15.483 5.325,-27.394 5.734,-34.475c0.361,-6.242 -0.584,-10.602 -1.54,-13.005c-2.192,-5.511 -5.876,-8.366 -9.411,-9.94c-4.273,-1.902 -9.455,-2.545 -15.412,0.505c-8.153,4.175 -11.403,14.159 -7.288,22.328Zm21.565,7.773c-2.352,1.033 -4.832,1.478 -7.263,1.387c2.234,0.184 4.653,-0.203 7.263,-1.387Z" style="fill:#7e4021;"/><path d="M3479.18,2423.61c6.877,3.056 15.209,1.132 19.984,-5.104c5.592,-7.304 4.203,-17.774 -3.1,-23.366c-0.633,-0.484 -3.213,-2.213 -7.903,-3.653c-13.603,-4.176 -74.641,-19.485 -83.561,-22.597c-8.685,-3.03 -18.197,1.562 -21.227,10.247c-3.029,8.685 1.562,18.197 10.247,21.226c9.051,3.158 70.958,18.754 84.76,22.99l0.8,0.257Z" style="fill:#7e4021;"/><path d="M3433.2,2457.5c-5.556,0.353 -11.942,-2.501 -18.328,-5.4c-9.176,-4.165 -18.129,-9.211 -25.2,-12.266c-8.444,-3.65 -18.262,0.243 -21.911,8.686c-3.649,8.444 0.243,18.262 8.687,21.911c8.502,3.675 19.723,10.216 30.788,14.657c9.795,3.931 19.585,6.219 28.082,5.678c9.18,-0.585 16.159,-8.513 15.574,-17.693c-0.585,-9.18 -8.512,-16.158 -17.692,-15.573Z" style="fill:#7e4021;"/><path d="M3739.52,2667.7c-112.29,-95.895 -167.482,-91.048 -242.617,-134.629c-7.956,-4.615 -18.164,-1.902 -22.779,6.055c-4.615,7.957 -1.902,18.164 6.055,22.779c73.511,42.64 127.83,37.32 237.694,131.143c6.995,5.974 17.524,5.145 23.497,-1.85c5.974,-6.995 5.145,-17.524 -1.85,-23.498Z" style="fill:#7e4021;"/><path d="M3814.03,2556.84c-42.505,-37.8 -91.832,-51.957 -140.934,-62.723c-44.473,-9.75 -88.712,-16.374 -125.706,-39.873c-7.765,-4.932 -18.073,-2.632 -23.005,5.132c-4.932,7.765 -2.632,18.073 5.132,23.005c40.241,25.561 88.064,33.69 136.44,44.296c43.747,9.592 88.052,21.394 125.922,55.072c6.873,6.113 17.417,5.495 23.529,-1.379c6.113,-6.874 5.496,-17.417 -1.378,-23.53Z" style="fill:#7e4021;"/><path d="M3766.85,2399.07c-21.685,2.079 -42.007,3.732 -59.297,4.64c-39.202,2.057 -76.782,-3.234 -113.901,-15.974c-8.701,-2.987 -18.189,1.652 -21.175,10.353c-2.986,8.7 1.653,18.188 10.353,21.174c41.215,14.147 82.943,20.019 126.47,17.734c17.709,-0.929 38.523,-2.616 60.732,-4.746c9.157,-0.879 15.878,-9.026 15,-18.182c-0.878,-9.157 -9.025,-15.878 -18.182,-14.999Z" style="fill:#7e4021;"/><path d="M3265.63,2207.03c19.168,30.65 9.088,137.304 -86.024,199.759c-21.591,14.178 -50.13,13.143 -64.653,-6.187c-17.087,-22.741 -13.972,-69.39 4.25,-121.359c20.072,-57.248 103.8,-140.375 146.427,-72.213Z" style="fill:#fff;"/><path d="M3279.76,2198.2c-11.242,-17.977 -25.006,-27.534 -39.479,-31.419c-14.379,-3.861 -29.856,-2.064 -45.248,4.361c-39.104,16.323 -78.199,64.487 -91.559,102.594c-11.745,33.496 -17.427,64.975 -16.305,90.043c0.87,19.46 5.909,35.463 14.458,46.842c19.613,26.104 57.969,29.253 87.126,10.107c72.114,-47.354 98.789,-118.353 101.368,-167.965c1.245,-23.939 -3.348,-43.35 -10.361,-54.563Zm-28.262,17.675c6.274,10.032 7.433,30.105 3.127,53.744c-7.256,39.83 -31.714,88.802 -84.168,123.246c-14.043,9.221 -32.735,10.305 -42.181,-2.267c-5.121,-6.816 -7.286,-16.652 -7.807,-28.309c-0.967,-21.604 4.339,-48.658 14.461,-77.524c9.037,-25.777 32.444,-57.35 58.351,-74.836c12.832,-8.66 26.118,-14.241 38.356,-10.955c7.481,2.008 14.051,7.609 19.861,16.901Z" style="fill:#7e4021;"/><path d="M2809.3,1758.47c8.031,10.193 110.937,221.365 192.718,300.338c40.502,39.111 87.864,78.651 130.9,114.977c21.252,17.939 55.272,34.998 71.876,57.718c25.73,35.203 -5.263,111.504 -55.1,112.884c-12.039,0.333 -35.267,-11.51 -40.191,-13.828c-143.885,-67.754 -263.18,-214.48 -334.026,-296.934c-36.048,-41.954 -84.327,-88.908 -97.807,-123.449" style="fill:#e4a57c;"/><path d="M2796.21,1768.79c8.08,10.256 111.94,222.546 194.232,302.012c40.761,39.362 88.415,79.165 131.726,115.724c20.348,17.175 53.274,33.064 69.171,54.816c9.751,13.341 7.23,34.465 -0.926,52.388c-8.097,17.792 -22.432,33.482 -41.179,34.001c-3.182,0.089 -7.457,-1.484 -11.757,-3.052c-9.159,-3.341 -18.101,-7.889 -20.873,-9.194c-141.649,-66.701 -258.739,-211.543 -328.485,-292.717c-34.776,-40.474 -81.917,-85.324 -94.922,-118.646c-3.345,-8.569 -13.017,-12.811 -21.586,-9.467c-8.569,3.345 -12.811,13.017 -9.467,21.586c13.957,35.759 63.373,84.816 100.693,128.251c71.947,83.735 193.447,232.344 339.567,301.15c5.813,2.738 33.539,15.804 47.752,15.41c31.099,-0.861 57.165,-24.001 70.596,-53.515c13.372,-29.385 13.485,-63.992 -2.501,-85.864c-17.312,-23.687 -52.424,-41.916 -74.582,-60.619c-42.76,-36.094 -89.829,-75.369 -130.072,-114.23c-81.271,-78.48 -183.224,-288.534 -191.204,-298.663c-5.693,-7.226 -16.181,-8.47 -23.406,-2.777c-7.226,5.692 -8.47,16.18 -2.777,23.406Z" style="fill:#7e4021;"/><path d="M1267.35,1526.56c106.374,-23.004 176.643,42.884 202.357,96.282c68.328,141.89 -154.829,128.91 -223.147,93.934c-137.977,-70.638 -46.928,-175.573 20.79,-190.216Z" style="fill:#eb7e6c;"/><path d="M2382.09,1803.43c-78.953,-74.906 -173.222,-55.099 -222.93,-22.824c-132.085,85.762 65.353,190.574 141.899,196.17c154.596,11.3 131.292,-125.66 81.031,-173.346Z" style="fill:#eb7e6c;"/><path d="M2741.18,1374.73c7.888,-22.659 70.294,-29.559 82.335,-33.956c76.467,-27.918 495.609,-184.978 519.87,-54.069c4.91,26.492 -12.664,48.453 -35.629,59.235c-53.268,25.009 -120.385,2.588 -178.247,16.156c-74.453,17.459 -303.582,116.215 -353.326,114.631c-23.152,-0.738 -42.892,-79.339 -35.003,-101.997Z" style="fill:#ffeeda;"/><path d="M2725.44,1369.25c-2.193,6.296 -3.166,15.825 -2.43,27.01c1.436,21.833 8.948,51.041 19.212,70.248c9.22,17.253 22.151,26.517 33.431,26.877c15.924,0.507 49.211,-8.07 89.966,-21.603c88.647,-29.434 215.853,-81.302 267.695,-93.459c27.581,-6.468 57.377,-4.1 86.616,-3.354c33.33,0.851 65.965,-0.353 94.909,-13.943c29.722,-13.954 51.288,-43.071 44.933,-77.358c-4.702,-25.372 -20.474,-42.721 -44.92,-53.168c-20.715,-8.853 -48.382,-12.498 -80.376,-11.786c-138.11,3.071 -362.465,86.612 -416.677,106.404c-8.604,3.142 -42.356,7.698 -64.622,17.986c-14.167,6.545 -24.151,15.844 -27.737,26.146Zm52.853,90.828c-0.857,-0.887 -2.846,-3.008 -3.956,-4.685c-2.658,-4.016 -5.075,-9.022 -7.261,-14.52c-5.391,-13.559 -9.249,-29.972 -10.545,-43.591c-0.675,-7.091 -0.949,-13.229 0.389,-17.072c0.517,-1.487 2.225,-2.287 3.897,-3.394c4.072,-2.697 9.255,-4.889 14.799,-6.833c20.913,-7.332 46.362,-10.905 53.615,-13.553c52.843,-19.293 271.362,-101.397 405.986,-104.391c26.449,-0.588 49.411,1.794 66.536,9.113c13.395,5.724 22.668,14.687 25.244,28.59c3.468,18.709 -10.106,33.497 -26.324,41.111c-24.325,11.42 -51.881,11.509 -79.892,10.794c-32.103,-0.82 -64.795,-2.878 -95.077,4.223c-52.391,12.285 -181.003,64.531 -270.589,94.277c-34.335,11.401 -62.369,19.739 -76.822,19.931Z" style="fill:#7e4021;"/><path d="M1820.78,1324.05c8.461,-14.518 34.414,-43.181 69.519,-27.736c35.257,15.512 26.669,90.377 49.87,183.162c40.097,160.361 155.129,258.127 310.136,315.62c177.409,65.803 347.667,11.706 451.76,-157.509c68.784,-111.818 257.279,-357.504 245.956,-393.894c-8.984,-28.874 -439.455,-198.112 -826.619,-100.755c-66.324,16.678 -151.438,22.711 -227.718,-7.125c-42.037,-16.442 -80.186,-49.031 -163.456,-114.621c-288.938,-227.59 -754.671,-346.831 -748.876,-314.792c3.884,21.473 7.484,199.002 15.567,387.464c7.388,172.251 60.594,304.55 187.016,398.365c158.663,117.741 471.765,115.07 636.845,-168.179Z" style="fill:#fff;"/><path d="M1835.18,1332.44c5.959,-10.225 23.683,-31.751 48.407,-20.873c3.788,1.667 6.388,4.855 8.617,8.895c3.483,6.311 5.852,14.388 7.914,23.85c7.396,33.941 9.911,83.333 23.882,139.205c41.505,165.991 160.061,267.692 320.509,327.204c185.25,68.711 363.058,12.291 471.751,-164.404c55.177,-89.696 187.112,-265.342 231.891,-350.677c8.811,-16.792 14.374,-30.574 16.19,-40.087c1.329,-6.961 0.902,-12.61 -0.406,-16.813c-1.143,-3.675 -4.494,-9.284 -11.861,-14.915c-8.735,-6.678 -25.698,-15.971 -49.689,-26.344c-128.942,-55.751 -471.048,-149.667 -785.047,-70.709c-63.37,15.935 -144.702,22.024 -217.583,-6.482c-41.012,-16.042 -77.974,-48.202 -159.214,-112.193c-233.621,-184.018 -581.619,-297.908 -708.467,-319.542c-21.065,-3.592 -36.644,-4.593 -45.439,-3.504c-19.474,2.411 -23.406,14.788 -21.683,24.313c3.861,21.349 7.279,197.849 15.316,385.212c7.628,177.858 63.198,314.167 193.735,411.035c164.637,122.174 489.881,120.743 661.177,-173.171l0,-0Zm-835.962,-613.875c7.019,0.343 17.136,1.124 27.252,2.849c124.165,21.176 464.765,132.743 693.445,312.868c85.301,67.19 124.636,100.208 167.698,117.051c79.678,31.165 168.574,25.187 237.854,7.766c305.463,-76.812 638.252,14.742 763.689,68.978c16.216,7.011 28.833,13.332 37.258,18.56c1.72,1.067 3.488,2.322 4.843,3.326c-0.579,2.431 -1.556,6.132 -2.756,9.192c-5.515,14.063 -16.108,33.296 -29.849,55.864c-55.856,91.739 -162.644,235.577 -210.783,313.833c-99.491,161.736 -262.201,213.51 -431.768,150.616c-149.566,-55.476 -261.074,-149.304 -299.764,-304.037c-13.87,-55.47 -16.307,-104.518 -23.65,-138.216c-6.341,-29.099 -17.474,-48.151 -35.676,-56.159c-45.499,-20.018 -79.664,15.783 -90.63,34.6l-0,-0c-158.866,272.585 -459.824,276.495 -612.514,163.187c-122.307,-90.761 -173.149,-219.051 -180.297,-385.695c-7.115,-165.904 -10.899,-323.379 -14.352,-374.583Z" style="fill:#7e4021;"/><path d="M1697.29,1184.22c-61.872,-175.327 -493.052,-347.868 -563.879,-280.694c-80.452,76.302 -47.834,310.99 30.328,414.518c73.348,97.149 207.283,136.322 315.062,117.415c131.405,-23.051 265.903,-116.885 218.489,-251.239Z" style="fill:#7e4021;"/><path d="M1713,1178.67c-18.231,-51.66 -66.361,-103.582 -128.673,-149.309c-90.544,-66.445 -210.764,-120.449 -305.543,-144.139c-42.001,-10.498 -79.198,-15.014 -107.052,-12.537c-22.174,1.971 -39.1,8.598 -49.797,18.744c-34.863,33.065 -51.441,93.167 -51.788,161.064c-0.499,97.638 31.577,211.076 80.284,275.589c77.14,102.174 217.89,143.674 331.242,123.789c69.019,-12.107 138.723,-43.068 185.073,-88.379c48.707,-47.615 72.423,-110.667 46.254,-184.822Zm-31.434,11.092c21.245,60.199 1.419,111.241 -38.121,149.894c-41.897,40.958 -105.144,68.439 -167.531,79.383c-102.205,17.929 -229.326,-18.916 -298.88,-111.042c-45.088,-59.72 -74.016,-164.951 -73.554,-255.333c0.293,-57.455 11.892,-109.07 41.393,-137.049c6.305,-5.979 16.743,-8.566 29.811,-9.728c24.996,-2.223 58.326,2.253 96.017,11.674c91.172,22.788 206.807,74.758 293.905,138.674c56.118,41.181 100.542,87.003 116.96,133.527Z" style="fill:#7e4021;"/><path d="M2109.38,1257.04c103.309,-69.103 517.725,-33.325 571.526,68.475c37.555,71.061 -59.293,328.974 -205.449,366.329c-118.48,30.281 -208.228,16.008 -311.758,-70.848c-102.743,-86.196 -198.403,-267.579 -54.319,-363.956Z" style="fill:#7e4021;"/><path d="M2100.12,1243.19c-79.173,52.958 -92.808,129.154 -72.205,204.068c19.614,71.318 71.333,141.42 125.078,186.509c108.459,90.991 202.477,105.95 326.597,74.227c92.381,-23.61 167.37,-129.708 202.988,-227.905c14.214,-39.185 22.221,-76.953 23.047,-107.327c0.618,-22.697 -2.899,-41.638 -9.978,-55.031c-9.875,-18.686 -29.865,-35.983 -57.766,-50.609c-37.697,-19.76 -90.413,-35.377 -148.649,-45.983c-86.046,-15.671 -184.219,-20.546 -262.618,-12.851c-54.721,5.371 -100.071,17.227 -126.494,34.902l-0,-0Zm18.533,27.706c23.166,-15.496 63.241,-24.725 111.217,-29.434c75.645,-7.424 170.366,-2.65 253.39,12.471c54.476,9.921 103.882,24.227 139.146,42.712c20.742,10.874 36.429,22.769 43.771,36.661c4.94,9.347 6.558,22.709 6.127,38.55c-0.746,27.429 -8.226,61.481 -21.061,96.867c-32.006,88.235 -96.898,185.761 -179.907,206.976c-112.84,28.84 -198.317,15.253 -296.919,-67.469c-48.998,-41.106 -96.481,-104.793 -114.362,-169.811c-16.892,-61.42 -6.314,-124.104 58.598,-167.523l-0,-0Z" style="fill:#7e4021;"/><path d="M1871.51,1609.21c1.972,-0.556 -4.288,-24.76 -4.754,-25.97c-5.462,-14.181 -13.261,-35.489 -29.19,-40.8c-13.447,-4.484 -25.771,12.583 -26.261,12.507c-2.784,-0.431 -11.759,-22.267 -19.931,-26.479c-20.192,-10.405 -59.311,27.37 -63.79,46.487c-2.585,11.031 -10.204,74.61 44.793,90.162c55.988,15.833 97.1,-19.51 99.133,-55.907Z" style="fill:#eb7e6c;"/><path d="M1887.9,1613.24c0.253,-1.004 0.442,-2.089 0.555,-3.26c0.545,-5.632 -5.604,-31.321 -6.149,-32.735c-3.721,-9.66 -8.573,-22.147 -15.624,-31.962c-6.262,-8.716 -14.211,-15.446 -23.846,-18.659c-9.498,-3.167 -18.774,-1.405 -26.72,2.845l-1.215,0.693c-1.551,-2.405 -3.122,-4.698 -4.477,-6.43c-3.676,-4.698 -7.735,-8.186 -11.419,-10.084c-12.47,-6.426 -30.094,-3.558 -46.622,7.215c-19.839,12.932 -37.709,36.114 -41.029,50.285c-1.523,6.496 -4.643,28.469 0.831,51.105c5.864,24.252 20.952,49.084 55.653,58.897c67.136,18.985 115.532,-24.254 120.062,-67.91Zm-104.867,-70.152c1.55,2.416 9.405,14.645 12.066,18.617c4.841,7.223 10.947,9.288 13.652,9.707c1.192,0.185 8.574,1.624 15.264,-5.591c0.753,-0.813 2.535,-2.97 5.032,-5.028c0.958,-0.789 3.114,-1.961 3.811,-2.331c3.979,1.593 6.517,5.565 8.906,9.575c3.986,6.694 6.81,14.343 9.194,20.558l4.038,18.34c-0.061,0.443 -0.104,0.89 -0.13,1.341c-1.571,28.138 -34.673,53.039 -77.957,40.799c-20.295,-5.739 -28.895,-20.473 -32.325,-34.656c-3.82,-15.8 -1.838,-31.133 -0.776,-35.667c2.056,-8.775 14.493,-21.957 26.777,-29.964c3.037,-1.979 6.092,-3.622 9.064,-4.629c1.244,-0.421 2.371,-1.136 3.384,-1.071Zm76.408,54.627c2.2,-2.415 4.843,-3.788 7.538,-4.549c-2.947,0.832 -5.527,2.429 -7.538,4.549Z" style="fill:#7e4021;"/><path d="M1901.52,1587.95c-69.586,11.693 -122.601,11.119 -184.11,-47.392c-6.664,-6.34 -17.222,-6.076 -23.562,0.589c-6.34,6.665 -6.077,17.223 0.588,23.563c71.142,67.675 132.122,69.636 212.607,56.113c9.072,-1.524 15.199,-10.127 13.675,-19.198c-1.525,-9.071 -10.127,-15.199 -19.198,-13.675Z" style="fill:#7e4021;"/><path d="M1687.35,1524.73c2.526,15.202 -7.421,25.344 -17.395,30.135c-8.292,3.982 -11.791,13.947 -7.808,22.239c3.982,8.292 13.947,11.791 22.239,7.808c21.442,-10.298 41.277,-32.968 35.846,-65.646c-1.508,-9.074 -10.099,-15.217 -19.174,-13.709c-9.074,1.508 -15.216,10.099 -13.708,19.173Z" style="fill:#7e4021;"/><path d="M1934.73,1622.62c-2.946,-2.904 -4.815,-6.387 -5.878,-10.383c-2.984,-11.222 -2.363,-20.846 3.427,-30.944c4.575,-7.98 1.811,-18.173 -6.169,-22.749c-7.98,-4.575 -18.173,-1.811 -22.748,6.169c-10.506,18.324 -12.139,35.729 -6.723,56.091c2.625,9.873 7.412,18.379 14.69,25.554c6.55,6.458 17.111,6.382 23.569,-0.168c6.458,-6.551 6.383,-17.112 -0.168,-23.57Z" style="fill:#7e4021;"/></g></svg>