<?xml version="1.0" encoding="UTF-8" standalone="no"?><!DOCTYPE svg PUBLIC "-//W3C//DTD SVG 1.1//EN" "http://www.w3.org/Graphics/SVG/1.1/DTD/svg11.dtd"><svg width="100%" height="100%" viewBox="0 0 2644 1733" version="1.1" xmlns="http://www.w3.org/2000/svg" xmlns:xlink="http://www.w3.org/1999/xlink" xml:space="preserve" xmlns:serif="http://www.serif.com/" style="fill-rule:evenodd;clip-rule:evenodd;stroke-linejoin:round;stroke-miterlimit:2;"><g id="Swiss-roll-Slice-Smile" serif:id="Swiss roll-Slice-Smile"><path d="M2539.07,719.683c65.19,-301.432 -359.881,-511.081 -588.799,-590.987c-490.469,-171.201 -969.553,-136.404 -1432.48,47.851c-304.328,121.128 -763.199,380.959 -310.217,694.561c174.502,120.809 911.481,203.803 1282.95,158.752c305.402,-37.038 1009.07,-127.65 1048.55,-310.177Z" style="fill:#ffdab8;"/><path d="M2555.36,723.206c27.304,-126.25 -26.578,-237.461 -117.545,-330.413c-132.117,-135 -342.802,-231.226 -482.052,-279.832c-494.457,-172.594 -977.443,-137.653 -1444.14,48.1c-129.518,51.551 -286.543,128.099 -391.251,222.859c-72.809,65.891 -120.292,140.874 -119.745,221.87c0.579,85.939 55.221,180.552 197.455,279.021c53.499,37.038 158.564,71.097 289.926,98.69c301.557,63.341 743.078,94.611 1004.52,62.905c214.768,-26.047 625.549,-78.659 866.315,-170.662c63.821,-24.388 115.924,-51.71 150.146,-81.726c25.128,-22.04 40.965,-45.828 46.368,-70.812Zm-32.58,-7.047c-4.071,18.824 -16.836,36.193 -35.768,52.799c-31.868,27.951 -80.633,52.938 -140.065,75.649c-238.553,91.157 -645.635,142.901 -858.43,168.708c-258.617,31.364 -695.354,0.221 -993.654,-62.436c-125.72,-26.407 -226.603,-58.027 -277.805,-93.474c-129.56,-89.696 -182.568,-173.558 -183.096,-251.84c-0.487,-72.275 43.81,-138.133 108.78,-196.93c101.959,-92.272 255.093,-166.406 381.21,-216.603c459.164,-182.756 934.347,-217.409 1420.83,-47.6c135.453,47.281 340.699,140.356 469.214,271.675c82.788,84.594 133.637,185.155 108.788,300.052Z" style="fill:#7e4021;"/><path d="M2539.07,719.683c10.479,-48.452 8.29,-94.533 -3.714,-138.084c155.495,381.826 98.912,760.16 -71.183,896.367c-425.753,340.93 -1970.62,304.713 -2305.68,-42.141c-99.49,-102.991 -143.935,-335.675 -137.606,-794.486c14.038,72.073 70.226,149.144 186.685,229.769c174.502,120.809 911.481,203.803 1282.95,158.752c305.402,-37.038 1009.07,-127.65 1048.55,-310.177Z" style="fill:#ffe6d8;"/><path d="M2522.78,716.159c-4.071,18.824 -16.836,36.193 -35.768,52.799c-31.868,27.951 -80.633,52.938 -140.065,75.649c-238.553,91.157 -645.635,142.901 -858.43,168.708c-258.617,31.364 -695.354,0.221 -993.654,-62.436c-125.72,-26.407 -226.603,-58.027 -277.805,-93.474c-111.543,-77.223 -166.366,-150.221 -179.812,-219.253c-1.633,-8.383 -9.339,-14.175 -17.845,-13.413c-8.507,0.761 -15.061,7.83 -15.179,16.37c-3.825,277.264 10.948,472.523 44.872,606.785c23.357,92.437 56.019,156.661 97.412,199.511c55.011,56.947 141.612,106.06 250.395,146.407c160.166,59.405 368.881,100.268 593.758,121.468c336.499,31.724 709.228,19.479 1009.01,-39.745c202.044,-39.915 371.126,-101.446 474.917,-184.559c70.554,-56.497 122.843,-152.856 149.188,-273.861c38.7,-177.751 21.758,-409.153 -72.986,-641.802c-3.328,-8.173 -12.449,-12.335 -20.803,-9.493c-8.354,2.841 -13.045,11.701 -10.701,20.207c11.314,41.044 13.367,84.471 3.492,130.132Zm32.58,7.047c1.703,-7.875 3.09,-15.691 4.17,-23.446c56.366,186.625 62.974,366.52 31.678,510.264c-24.467,112.378 -71.929,202.464 -137.453,254.933c-100.57,80.533 -264.771,139.201 -460.542,177.877c-296.936,58.661 -666.125,70.682 -999.426,39.26c-221.656,-20.897 -427.422,-60.981 -585.294,-119.535c-103.243,-38.292 -185.804,-84.267 -238.013,-138.313c-38.199,-39.544 -67.514,-99.214 -89.068,-184.517c-29.88,-118.257 -44.39,-284.54 -44.452,-513.585c30.754,51.113 82.573,104.286 161.125,158.667c53.499,37.038 158.564,71.097 289.926,98.69c301.557,63.341 743.078,94.611 1004.52,62.905c214.768,-26.047 625.549,-78.659 866.315,-170.662c63.821,-24.388 115.924,-51.71 150.146,-81.726c25.128,-22.04 40.965,-45.828 46.368,-70.812Z" style="fill:#7e4021;"/><path d="M1460.81,1311c-83.73,31.671 -165.026,44.341 -204.566,37.053c-96.584,-17.804 -223.07,-106.34 -301.742,-2.311c-23.67,31.299 -26.824,69.715 -15.988,106.65c68.894,234.82 569.616,240.913 687.259,58.879c83.231,-128.786 -36.559,-248.839 -164.963,-200.271Z" style="fill:#f6a7bc;"/><path d="M1454.92,1295.41c-80.14,30.312 -157.804,43.226 -195.648,36.25c-48.162,-8.878 -103.767,-35.431 -157.151,-46.756c-59.863,-12.699 -116.915,-7.387 -160.906,50.783c-26.959,35.648 -31.029,79.329 -18.688,121.395c14.849,50.609 48.081,91.533 93.132,122.773c64.99,45.069 154.959,69.887 247.299,74.937c91.811,5.021 185.855,-9.447 259.514,-41.955c50.909,-22.467 92.17,-53.629 117.305,-92.521c37.192,-57.548 37.265,-113.621 15.78,-156.615c-32.243,-64.525 -114.528,-100.862 -200.637,-68.291l-0,-0Zm11.793,31.177c67.978,-25.712 133.572,1.075 159.027,52.014c16.98,33.98 15.436,78.139 -13.958,123.622c-21.923,33.922 -58.365,60.523 -102.768,80.119c-69.308,30.588 -157.848,43.891 -244.235,39.166c-71.761,-3.924 -142.087,-20.288 -198.596,-50.006c-54.244,-28.527 -95.692,-69.341 -111.67,-123.804c-9.331,-31.804 -7.093,-64.954 13.288,-91.905c34.684,-45.862 80.206,-48.294 127.402,-38.281c53.673,11.386 109.603,38.003 158.026,46.929c41.236,7.601 126.161,-4.825 213.483,-37.854l0.001,0Z" style="fill:#7e4021;"/><path d="M1050.22,1441.95c35.927,20.023 73.289,39.755 114.003,50.364c111.91,29.162 234.1,8.469 340.313,-32.382c8.585,-3.302 12.875,-12.954 9.573,-21.539c-3.302,-8.586 -12.954,-12.875 -21.539,-9.573c-99.879,38.415 -214.706,58.661 -319.941,31.238c-37.963,-9.892 -72.683,-28.555 -106.182,-47.225c-8.035,-4.478 -18.194,-1.59 -22.672,6.444c-4.478,8.035 -1.59,18.194 6.445,22.673Z" style="fill:#7e4021;"/><path d="M778.762,1131.12c-6.686,19.42 -9.758,40.944 -12.235,61.247c-1.52,12.461 -2.823,24.954 -3.274,37.503c-0.662,18.432 14.434,76.042 42.12,43.671c22.17,-25.922 1.522,-224.13 -26.611,-142.421Z" style="fill:#7e4021;"/><path d="M763.004,1125.7c-7.061,20.507 -10.406,43.216 -13.021,64.655c-1.577,12.932 -2.918,25.899 -3.386,38.923c-0.496,13.831 6.592,45.141 19.428,59.358c7.191,7.966 15.945,11.846 25.414,11.197c7.74,-0.531 17.086,-4.329 26.6,-15.454c5.989,-7.002 11.034,-23.386 12.586,-44.55c3.009,-41.032 -3.598,-101.849 -14.315,-125.703c-5.507,-12.258 -13.774,-17.764 -20.313,-18.951c-5.368,-0.974 -11.039,-0.124 -16.715,3.93c-4.785,3.418 -11.038,11.376 -16.278,26.595Zm28.132,22.072c1.326,5.366 2.539,11.1 3.287,16.493c3.379,24.355 4.635,53.325 2.789,75.275c-0.561,6.664 -1.394,12.623 -2.606,17.473c-0.617,2.466 -0.92,4.556 -1.899,5.701c-0.802,0.938 -1.834,1.89 -2.698,2.631l-0.419,-0.546c-1.662,-2.375 -3.048,-5.282 -4.258,-8.36c-3.643,-9.271 -5.634,-20.094 -5.423,-25.965c0.434,-12.075 1.7,-24.094 3.162,-36.083c1.87,-15.331 4.036,-31.413 8.065,-46.619Z" style="fill:#7e4021;"/><path d="M1734.94,1131.12c-6.686,19.42 -9.759,40.944 -12.235,61.247c-1.52,12.461 -2.823,24.954 -3.274,37.503c-0.662,18.432 14.434,76.042 42.12,43.671c22.17,-25.922 1.522,-224.13 -26.611,-142.421Z" style="fill:#7e4021;"/><path d="M1719.18,1125.7c-7.061,20.507 -10.406,43.216 -13.021,64.655c-1.577,12.932 -2.918,25.899 -3.386,38.923c-0.496,13.831 6.592,45.141 19.428,59.358c7.191,7.966 15.945,11.846 25.414,11.197c7.74,-0.531 17.086,-4.329 26.6,-15.454c5.989,-7.002 11.034,-23.386 12.586,-44.55c3.009,-41.032 -3.598,-101.849 -14.315,-125.703c-5.507,-12.258 -13.774,-17.764 -20.313,-18.951c-5.368,-0.974 -11.039,-0.124 -16.715,3.93c-4.785,3.418 -11.038,11.376 -16.278,26.595Zm28.132,22.072c1.326,5.366 2.539,11.1 3.287,16.493c3.379,24.355 4.635,53.325 2.789,75.275c-0.561,6.664 -1.394,12.623 -2.606,17.473c-0.617,2.466 -0.92,4.556 -1.899,5.701c-0.802,0.938 -1.834,1.89 -2.698,2.631l-0.419,-0.546c-1.662,-2.375 -3.048,-5.282 -4.258,-8.36c-3.643,-9.271 -5.634,-20.094 -5.423,-25.965c0.434,-12.075 1.7,-24.094 3.162,-36.083c1.87,-15.331 4.036,-31.413 8.065,-46.619Z" style="fill:#7e4021;"/><path d="M2509.74,889.387c-0.186,-0.966 -0.466,-1.926 -0.838,-2.873c-3.368,-8.56 -13.051,-12.776 -21.611,-9.408c-0.714,0.28 -13.437,6.242 -9.941,20.188c0.885,3.527 6.063,20.945 6.409,22.412c12.051,51.111 16.208,106.265 9.588,158.398c-1.159,9.125 5.309,17.475 14.434,18.633c9.125,1.159 17.475,-5.309 18.633,-14.434c7.115,-56.031 2.741,-115.315 -10.212,-170.247c-0.333,-1.412 -5.839,-20.512 -6.462,-22.669Z" style="fill:#7e4021;"/><path d="M2509.8,1194.81c6.017,-5.987 6.603,-15.695 1.103,-22.383c-5.842,-7.105 -16.354,-8.13 -23.459,-2.288c-5.076,4.174 -10.694,14.932 -13.969,29.561c-5.077,22.677 -7.478,56.789 -10.351,67.396c-2.405,8.879 2.851,18.04 11.73,20.444c8.879,2.405 18.039,-2.851 20.444,-11.73c2.554,-9.431 4.909,-36.752 8.814,-59.183c1.502,-8.629 5.187,-20.257 5.688,-21.817Z" style="fill:#7e4021;"/><path d="M2344.92,425.025c72.879,-175.366 -431.139,-302.266 -563.56,-318.016c-196.068,-23.321 -534.18,-1.606 -751.665,64.35c-174.539,52.932 -628.223,228.016 -561.834,471.893c100.708,369.947 1399.7,364.465 1621.91,57.567c113.352,-156.555 -529.304,-236.48 -699.74,-164.892c-211.71,88.924 100.558,143.466 163.941,136.942c8.779,-0.904 91.492,-9.585 77.657,18.813c-50.935,104.551 -667.154,60.217 -694.079,-89.627c-13.359,-74.347 61.503,-112.772 120.421,-142.216c122.103,-61.02 517.458,-166.006 789.817,-65.175c109.202,40.428 223.383,104.716 344.053,96.671c44.748,-2.983 128.443,-7.031 153.079,-66.31Z" style="fill:#fff;"/><path d="M1613.21,689.577c-4.478,5.343 -11.442,9.856 -20.045,14.101c-14.169,6.99 -32.55,12.537 -54.007,16.88c-67.961,13.757 -165.453,14.987 -261.883,5.129c-96.127,-9.828 -191.252,-30.627 -254.772,-61.704c-37.394,-18.296 -63.903,-38.989 -68.555,-64.875c-5.542,-30.845 7.766,-54.029 28.02,-72.765c23.295,-21.549 55.334,-37.546 83.447,-51.595c120.062,-60 508.776,-163.599 776.58,-64.454c111.313,41.21 227.945,105.871 350.948,97.671c28.288,-1.886 71.293,-4.478 106.822,-19.499c26.501,-11.203 48.923,-29.094 60.539,-57.045c24.684,-59.396 -6.326,-115.154 -69.964,-162.79c-133.673,-100.058 -412.81,-166.967 -507.017,-178.172c-197.844,-23.532 -539.016,-1.603 -758.471,64.951c-106.089,32.173 -313.88,109.099 -448.692,218.693c-94.389,76.732 -152.64,169.74 -124.387,273.527c17.129,62.922 66.21,116.204 138.652,159.015c103.836,61.365 256.396,101.772 425.913,121.628c252.346,29.558 542.348,13.861 763.01,-43.464c150.511,-39.101 268.91,-98.245 323.916,-174.216c40.232,-55.565 5.953,-106.295 -75.577,-143.149c-98.046,-44.32 -265.512,-71.168 -410.028,-74.322c-97.672,-2.131 -184.922,6.787 -234.088,27.438c-33.31,13.991 -54.537,27.557 -66.626,39.903c-10.872,11.104 -15.454,22.042 -16.122,32.072c-1.09,16.378 8.441,32.455 27.807,45.66c52.888,36.062 187.047,55.37 227.043,51.253c4.133,-0.426 25.672,-2.72 44.551,-1.527c4.638,0.293 9.098,0.787 12.986,1.656Zm716.313,-270.948c-10.313,24.817 -33.573,37.322 -58.354,44.686c-28.31,8.412 -59.042,9.964 -80.443,11.39c-118.338,7.89 -230.067,-56.024 -337.158,-95.671c-276.913,-102.516 -678.909,3.856 -803.054,65.896c-30.804,15.395 -65.656,33.332 -91.181,56.943c-28.567,26.426 -46.01,59.626 -38.193,103.13c6.121,34.064 37.506,64.846 86.713,88.921c66.356,32.465 165.614,54.657 266.032,64.923c117.217,11.984 235.92,7.664 305.534,-14.114c34.787,-10.883 58.079,-27.056 67.187,-45.751c4.065,-8.344 3.915,-15.467 1.893,-21.386c-2.624,-7.682 -9.36,-14.497 -20.323,-18.381c-22.264,-7.89 -69.118,-3.625 -75.917,-2.925c-30.343,3.123 -120.212,-8.645 -177.206,-31.562c-13.091,-5.265 -24.369,-11.043 -32.352,-17.574c-4.685,-3.832 -8.501,-7.345 -8.629,-11.867c-0.139,-4.942 3.946,-9.413 10.49,-15.049c10.666,-9.186 27.581,-18.723 51.917,-28.945c46.279,-19.438 128.517,-26.852 220.453,-24.845c139.896,3.052 302.113,28.467 397.025,71.37c25.221,11.401 45.489,23.871 58.556,37.765c7.846,8.342 12.939,17.004 13.781,26.375c0.834,9.276 -2.632,18.871 -10.029,29.087c-51.654,71.341 -163.958,124.783 -305.299,161.501c-217.113,56.404 -502.462,71.703 -750.75,42.62c-164.24,-19.238 -312.228,-57.763 -412.832,-117.217c-63.853,-37.735 -108.35,-83.613 -123.448,-139.074c-24.859,-91.321 30.198,-171.391 113.25,-238.907c131.342,-106.773 333.982,-181.315 437.34,-212.66c215.516,-65.358 550.567,-86.859 744.86,-63.749c91.182,10.845 361.599,74.913 490.979,171.758c49.121,36.769 78.211,77.465 59.158,123.312Z" style="fill:#7e4021;"/><path d="M2344.92,425.025c21.111,-50.799 -76.433,42.422 -339.945,-67.855c-317.53,-132.883 -573.446,-89.896 -800.821,-45.573c-179.019,34.896 -537.371,181.827 -409.463,326.21c186.74,210.793 953.868,237.395 1027.07,42.915c38.264,-101.661 -345.569,-180.984 -431.726,-144.795c-211.71,88.924 100.558,143.466 163.941,136.942c8.779,-0.904 91.492,-9.585 77.657,18.813c-50.935,104.551 -667.154,60.217 -694.079,-89.627c-13.359,-74.347 61.503,-112.772 120.421,-142.216c122.103,-61.02 517.458,-166.006 789.817,-65.175c109.202,40.428 223.383,104.716 344.053,96.671c44.748,-2.983 128.443,-7.031 153.079,-66.31Z" style="fill:#f6a7bc;"/><path d="M1613.21,689.577c-4.478,5.343 -11.442,9.856 -20.045,14.101c-14.169,6.99 -32.55,12.537 -54.007,16.88c-67.961,13.757 -165.453,14.987 -261.883,5.129c-96.127,-9.828 -191.252,-30.627 -254.772,-61.704c-37.394,-18.296 -63.903,-38.989 -68.555,-64.875c-5.542,-30.845 7.766,-54.029 28.02,-72.765c23.295,-21.549 55.334,-37.546 83.447,-51.595c120.062,-60 508.776,-163.599 776.58,-64.454c111.313,41.21 227.945,105.871 350.948,97.671c28.288,-1.886 71.293,-4.478 106.822,-19.499c26.501,-11.203 48.923,-29.094 60.539,-57.045c7.189,-17.298 2.968,-27.297 -2.327,-32.545c-4.361,-4.323 -13.462,-7.898 -28.703,-6.682c-37.132,2.964 -137.809,24.955 -317.871,-50.398c-321.356,-134.484 -580.329,-91.414 -810.444,-46.558c-109.596,21.364 -284.94,84.17 -379.59,162.585c-41.216,34.147 -67.241,71.783 -70.082,109.709c-2.003,26.748 6.873,54.181 30.922,81.327c54.008,60.964 154.65,107.739 273.762,138.035c175.195,44.561 390.338,54.299 549.801,26.585c70.031,-12.172 129.489,-31.682 170.848,-58.201c29.998,-19.234 50.812,-42.334 60.73,-68.685c7.823,-20.786 3.473,-41.037 -11.283,-60.024c-11.996,-15.435 -31.618,-30.235 -56.586,-43.511c-75.443,-40.114 -201.578,-68.033 -291.698,-72.16c-40.833,-1.87 -74.606,1.427 -94.212,9.662c-33.31,13.991 -54.537,27.557 -66.626,39.903c-10.872,11.104 -15.454,22.042 -16.122,32.072c-1.09,16.378 8.441,32.455 27.807,45.66c52.888,36.062 187.047,55.37 227.043,51.253c4.133,-0.426 25.672,-2.72 44.551,-1.527c4.638,0.293 9.098,0.787 12.986,1.656Zm712.538,-263.361c-11.561,19.861 -32.464,30.527 -54.579,37.099c-28.31,8.412 -59.042,9.964 -80.443,11.39c-118.338,7.89 -230.067,-56.024 -337.158,-95.671c-276.913,-102.516 -678.909,3.856 -803.054,65.896c-30.804,15.395 -65.656,33.332 -91.181,56.943c-28.567,26.426 -46.01,59.626 -38.193,103.13c6.121,34.064 37.506,64.846 86.713,88.921c66.356,32.465 165.614,54.657 266.032,64.923c117.217,11.984 235.92,7.664 305.534,-14.114c34.787,-10.883 58.079,-27.056 67.187,-45.751c4.065,-8.344 3.915,-15.467 1.893,-21.386c-2.624,-7.682 -9.36,-14.497 -20.323,-18.381c-22.264,-7.89 -69.118,-3.625 -75.917,-2.925c-30.343,3.123 -120.212,-8.645 -177.206,-31.562c-13.091,-5.265 -24.369,-11.043 -32.352,-17.574c-4.685,-3.832 -8.501,-7.345 -8.629,-11.867c-0.139,-4.942 3.946,-9.413 10.49,-15.049c10.666,-9.186 27.581,-18.723 51.917,-28.945c16.581,-6.964 45.246,-8.678 79.779,-7.097c85.73,3.926 205.806,30.133 277.574,68.294c20.096,10.685 36.26,22.11 45.916,34.534c6.899,8.877 10.063,18.109 6.405,27.827c-7.65,20.325 -24.387,37.531 -47.525,52.366c-38.342,24.584 -93.642,42.137 -158.564,53.421c-155.426,27.012 -365.116,17.384 -535.876,-26.048c-111.525,-28.367 -206.461,-70.754 -257.028,-127.834c-16.883,-19.058 -24.039,-37.956 -22.633,-56.734c2.275,-30.366 25.109,-59.191 58.108,-86.53c90.877,-75.29 259.475,-135.024 364.702,-155.536c224.636,-43.789 477.493,-86.693 791.198,44.589c162.346,67.94 263.385,60.41 313.524,54.979c4.758,-0.515 9.523,-0.956 13.689,-1.308Z" style="fill:#7e4021;"/></g></svg>