<?xml version="1.0" encoding="UTF-8" standalone="no"?><!DOCTYPE svg PUBLIC "-//W3C//DTD SVG 1.1//EN" "http://www.w3.org/Graphics/SVG/1.1/DTD/svg11.dtd"><svg width="100%" height="100%" viewBox="0 0 3471 5093" version="1.1" xmlns="http://www.w3.org/2000/svg" xmlns:xlink="http://www.w3.org/1999/xlink" xml:space="preserve" xmlns:serif="http://www.serif.com/" style="fill-rule:evenodd;clip-rule:evenodd;stroke-linejoin:round;stroke-miterlimit:2;"><g id="Toast-Mrs"><path d="M293.069,1319.58c36.637,60.647 72.628,132.542 87.126,205.526c20.688,104.145 24.002,271.497 36.999,419.339c8.394,95.482 51.451,185.894 58.412,283.344c21.675,303.462 -48.856,624.977 277.926,797.98c292.471,154.837 735.579,108.987 1051.41,71.13c212.235,-25.439 413.088,-86.403 607.435,-174.293c440.156,-199.051 418.222,-389.658 399.226,-815.174c-3.872,-86.736 20.143,-171.072 17.429,-257.906c-4.152,-132.864 -59.059,-283.287 -20.02,-411.002c66.209,-216.601 315.286,-463.337 38.924,-906.667c-486.986,-781.208 -3191.73,-266.493 -2554.87,787.723Z" style="fill:#c48464;"/><path d="M278.803,1328.2c35.693,59.083 70.921,129.054 85.045,200.156c20.599,103.698 23.802,270.342 36.743,417.55c8.386,95.393 51.436,185.714 58.39,283.072c8.678,121.488 2.604,245.867 13.106,362.468c16.23,180.194 71.472,342.021 273.647,449.055c295.213,156.289 742.399,111.16 1061.19,72.949c213.937,-25.644 416.412,-87.061 612.319,-175.656c180.097,-81.445 284.118,-162.107 343.401,-256.719c88.435,-141.136 77.201,-314.665 65.607,-574.384c-3.869,-86.662 20.149,-170.924 17.438,-257.684c-2.093,-66.968 -16.904,-138.371 -26.346,-209.116c-9.039,-67.735 -13.234,-134.859 5.606,-196.493c19.679,-64.38 55.758,-131.406 89.102,-205.613c80.284,-178.674 145.809,-397.469 -51.973,-714.743c-119.026,-190.937 -367.499,-307.068 -668.442,-356.619c-446.207,-73.469 -1007.68,-1.569 -1423.31,180.201c-327.586,143.264 -564.076,355.496 -588.374,616.509c-10.498,112.773 18.257,234.972 96.849,365.067l0,0Zm28.531,-17.236c-74.255,-122.917 -102.108,-238.191 -92.19,-344.741c23.341,-250.742 253.846,-451.433 568.541,-589.059c410.152,-179.373 964.217,-250.351 1404.54,-177.851c290.078,47.762 530.843,157.319 645.571,341.362c189.125,303.388 126.625,512.594 49.855,683.448c-33.966,75.591 -70.528,143.95 -90.575,209.531c-20.199,66.081 -16.46,138.025 -6.768,210.647c9.29,69.611 24.009,139.852 26.069,205.747c2.715,86.909 -21.297,171.319 -17.421,258.13c11.201,250.901 24.879,418.854 -60.553,555.198c-56.628,90.374 -156.862,166.25 -328.89,244.046c-192.789,87.185 -392.02,147.696 -602.551,172.931c-312.872,37.502 -751.903,84.073 -1041.63,-69.312c-189.965,-100.569 -240.795,-253.275 -256.045,-422.585c-10.485,-116.403 -4.393,-240.571 -13.056,-361.853c-6.967,-97.541 -50.032,-188.044 -58.434,-283.616c-13.052,-148.475 -16.477,-316.536 -37.253,-421.126c-14.872,-74.866 -51.626,-148.686 -89.209,-210.897l0,0Z" style="fill:#7e4021;"/><path d="M2081.75,2987.05c-63.194,102.243 -68.685,339.665 29.85,486.335c132.906,197.834 281.317,302.804 428.269,453.034c65.575,67.038 382.286,215.894 409.441,368.689c24.094,135.577 -204.104,545.96 -440.956,711.714c-83.313,58.305 -286.18,107.619 -413.399,25.246c-102.154,-66.145 -175.106,-205.012 -142.352,-386.519c57.61,-319.256 477.011,-404.998 474.415,-408.083c-135.87,-161.486 -349.134,-372.839 -508.19,-612.954c-138.154,-208.56 -124.265,-430.899 -60.344,-661.6" style="fill:#c48464;"/><path d="M2397.86,4228.89c-52.925,15.567 -180.856,57.069 -289.262,142.522c-80.922,63.789 -150.868,151.856 -172.399,271.174c-34.22,189.635 42.967,334.362 149.696,403.469c66.79,43.246 153.339,52.473 234.224,42.687c80.129,-9.694 154.458,-37.944 197.79,-68.268c168.12,-117.655 332.154,-356.697 406.935,-536.785c33.184,-79.914 48.462,-148.796 40.873,-191.5c-11.43,-64.318 -70.472,-128.855 -142.996,-186.601c-102.737,-81.804 -231.836,-150.851 -270.939,-190.826c-146.238,-149.499 -294.09,-253.803 -426.35,-450.674c-57.177,-85.11 -77.796,-201.898 -72.214,-303.005c3.672,-66.496 18.59,-126.253 42.707,-165.273c4.836,-7.825 2.41,-18.104 -5.414,-22.94c-7.825,-4.837 -18.104,-2.41 -22.94,5.414c-26.438,42.775 -43.611,108.068 -47.635,180.962c-5.962,107.978 16.763,232.536 77.827,323.431c133.554,198.796 282.522,304.432 430.19,455.394c39.587,40.47 169.996,110.777 274.005,193.593c65.31,52.003 120.647,108.437 130.94,166.358c6.868,38.643 -8.81,100.569 -38.839,172.883c-72.713,175.108 -231.791,407.858 -395.263,522.259c-39.983,27.981 -108.743,53.541 -182.681,62.486c-73.181,8.854 -151.674,1.552 -212.103,-37.575c-97.581,-63.183 -166.296,-196.189 -135.01,-369.57c19.949,-110.546 85.258,-191.816 160.231,-250.914c114.636,-90.365 252.102,-129.361 291.263,-140.546c10.53,-3.007 16.252,-5.927 17.073,-6.604c4.015,-3.309 5.251,-6.982 5.786,-9.592c1.054,-5.147 -0.022,-9.88 -3.586,-14.116c-135.545,-161.1 -348.372,-371.887 -507.048,-611.428c-135.286,-204.23 -120.771,-422.035 -58.177,-647.945c2.456,-8.865 -2.747,-18.056 -11.611,-20.512c-8.865,-2.456 -18.056,2.747 -20.512,11.611c-65.249,235.491 -78.512,462.363 62.511,675.254c153.17,231.23 356.423,435.907 492.928,595.177Z" style="fill:#7e4021;"/><path d="M1552.67,2987.05c63.194,102.243 68.685,339.665 -29.85,486.335c-132.907,197.834 -281.317,302.804 -428.27,453.034c-65.575,67.038 -382.286,215.894 -409.44,368.689c-24.094,135.577 204.104,545.96 440.955,711.714c83.314,58.305 291.984,109.152 413.4,25.246c100.118,-69.189 175.105,-205.012 142.352,-386.519c-57.61,-319.256 -477.011,-404.998 -474.415,-408.083c135.87,-161.486 349.133,-372.839 508.189,-612.954c138.155,-208.56 124.266,-430.899 60.344,-661.6" style="fill:#c48464;"/><path d="M1236.56,4228.9c136.51,-159.277 339.763,-363.954 492.933,-595.184c141.023,-212.891 127.76,-439.763 62.511,-675.254c-2.456,-8.864 -11.647,-14.067 -20.512,-11.611c-8.864,2.456 -14.067,11.647 -11.611,20.512c62.594,225.91 77.108,443.715 -58.177,647.945c-158.676,239.541 -371.503,450.328 -507.049,611.428c-3.563,4.236 -4.639,8.969 -3.585,14.116c0.535,2.61 1.771,6.283 5.785,9.592c0.821,0.677 6.543,3.597 17.074,6.604c39.161,11.185 176.626,50.181 291.262,140.546c74.973,59.098 140.283,140.368 160.231,250.914c31.319,173.559 -39.692,303.69 -135.426,369.849c-45.786,31.641 -104.842,42.532 -164.124,41.201c-90.667,-2.035 -182.192,-32.763 -230.244,-66.391c-163.471,-114.401 -322.549,-347.151 -395.263,-522.259c-30.028,-72.314 -45.706,-134.24 -38.838,-172.883c10.293,-57.921 65.63,-114.355 130.94,-166.358c104.009,-82.816 234.418,-153.123 274.005,-193.593c147.668,-150.962 296.636,-256.598 430.19,-455.394c61.064,-90.895 83.789,-215.453 77.827,-323.431c-4.025,-72.894 -21.197,-138.187 -47.635,-180.962c-4.836,-7.824 -15.115,-10.251 -22.94,-5.414c-7.825,4.836 -10.251,15.115 -5.414,22.94c24.117,39.02 39.035,98.777 42.706,165.273c5.583,101.107 -15.036,217.895 -72.214,303.005c-132.259,196.871 -280.112,301.175 -426.349,450.674c-39.103,39.975 -168.202,109.022 -270.94,190.826c-72.523,57.746 -131.565,122.283 -142.995,186.601c-7.59,42.704 7.688,111.586 40.873,191.5c74.781,180.088 238.815,419.13 406.935,536.785c51.925,36.338 150.633,70.206 248.608,72.406c66.48,1.492 132.477,-11.621 183.823,-47.104c104.502,-72.218 183.466,-213.734 149.279,-403.19c-17.97,-99.585 -69.653,-177.398 -133.331,-237.514c-114.934,-108.504 -269.106,-158.732 -328.335,-176.175Z" style="fill:#7e4021;"/><path d="M2414.97,4252.39c14.603,1.559 29.245,2.046 43.826,3.988c33.298,4.435 65.736,11.713 97.815,21.688c8.784,2.731 18.133,-2.183 20.864,-10.967c2.731,-8.783 -2.183,-18.132 -10.967,-20.863c-33.88,-10.535 -68.142,-18.215 -103.311,-22.899c-14.869,-1.981 -29.797,-2.502 -44.689,-4.092c-9.146,-0.976 -17.365,5.657 -18.341,14.804c-0.977,9.146 5.657,17.365 14.803,18.341Z" style="fill:#7e4021;"/><path d="M1215.91,4219.24c-14.891,1.59 -29.82,2.111 -44.688,4.092c-35.169,4.684 -69.431,12.364 -103.312,22.899c-8.783,2.731 -13.697,12.08 -10.966,20.863c2.731,8.784 12.08,13.698 20.864,10.967c32.078,-9.975 64.516,-17.253 97.815,-21.688c14.581,-1.942 29.223,-2.429 43.825,-3.988c9.147,-0.976 15.78,-9.195 14.804,-18.341c-0.977,-9.147 -9.195,-15.78 -18.342,-14.804Z" style="fill:#7e4021;"/><path d="M387.888,1294.33c36.638,60.647 72.629,132.542 87.127,205.526c20.687,104.144 24.001,271.496 36.998,419.338c8.394,95.482 51.451,185.894 58.412,283.344c21.676,303.462 -48.856,624.978 277.927,797.98c292.47,154.838 735.579,108.988 1051.41,71.131c212.234,-25.439 413.087,-86.404 607.435,-174.293c440.156,-199.052 418.222,-389.658 399.225,-815.174c-3.872,-86.737 20.143,-171.072 17.43,-257.907c-4.152,-132.864 -59.06,-283.286 -20.021,-411.002c66.21,-216.6 315.287,-463.337 38.925,-906.667c-486.986,-781.207 -3191.73,-266.493 -2554.87,787.724Z" style="fill:#fcd2b8;"/><path d="M373.623,1302.95c35.692,59.083 70.921,129.053 85.045,200.155c20.598,103.698 23.801,270.342 36.743,417.551c8.386,95.393 51.436,185.713 58.39,283.072c8.677,121.488 2.603,245.867 13.105,362.467c16.231,180.195 71.473,342.021 273.648,449.055c295.213,156.29 742.398,111.161 1061.19,72.949c213.937,-25.643 416.412,-87.06 612.319,-175.655c180.097,-81.445 284.118,-162.107 343.402,-256.72c88.434,-141.135 77.201,-314.664 65.606,-574.383c-3.868,-86.663 20.149,-170.924 17.438,-257.684c-2.093,-66.969 -16.903,-138.372 -26.345,-209.116c-9.04,-67.735 -13.235,-134.859 5.605,-196.494c19.679,-64.379 55.758,-131.405 89.102,-205.612c80.285,-178.675 145.809,-397.469 -51.972,-714.744c-119.026,-190.937 -367.499,-307.068 -668.443,-356.619c-446.206,-73.469 -1007.68,-1.568 -1423.31,180.202c-327.587,143.264 -564.077,355.495 -588.374,616.509c-10.498,112.772 18.257,234.972 96.849,365.067l-0,-0Zm28.531,-17.236c-74.255,-122.917 -102.109,-238.192 -92.19,-344.742c23.341,-250.741 253.846,-451.432 568.54,-589.058c410.153,-179.373 964.217,-250.351 1404.54,-177.851c290.077,47.762 530.842,157.319 645.57,341.362c189.125,303.388 126.626,512.594 49.855,683.448c-33.966,75.591 -70.528,143.95 -90.574,209.53c-20.2,66.081 -16.46,138.026 -6.768,210.647c9.29,69.612 24.009,139.852 26.068,205.748c2.716,86.909 -21.296,171.318 -17.421,258.129c11.201,250.902 24.879,418.855 -60.553,555.198c-56.627,90.374 -156.861,166.25 -328.89,244.047c-192.788,87.184 -392.019,147.696 -602.551,172.931c-312.871,37.501 -751.902,84.073 -1041.63,-69.312c-189.964,-100.57 -240.795,-253.275 -256.045,-422.586c-10.484,-116.402 -4.393,-240.57 -13.056,-361.852c-6.967,-97.541 -50.031,-188.045 -58.433,-283.616c-13.053,-148.476 -16.478,-316.536 -37.254,-421.126c-14.872,-74.867 -51.626,-148.686 -89.208,-210.897l-0,-0Z" style="fill:#7e4021;"/><path d="M721.281,398.197c106.441,-44.67 250.561,-21.22 343.427,47.737c148.193,110.039 189.466,336.396 354.365,422.415c68.459,35.712 149.413,44.45 225.406,42.291c95.016,-2.698 219.117,-18.976 290.003,-85.041c170.048,-158.48 -98.328,-312.052 -40.093,-466.058c26.699,-70.608 156.214,-173.318 135.458,-168.372c-46.155,10.999 -82.703,18.43 -141.525,-15.204c-94.519,-54.044 -145.59,-141.166 -237.042,-153.598c-148.054,-20.127 -233.553,19.586 -396.253,77.838c-156.007,55.856 -396.619,203.726 -533.746,297.992Z" style="fill:#f6a292;"/><path d="M711.839,384.462c-7.041,4.841 -9.281,14.223 -5.186,21.722c4.095,7.5 13.198,10.688 21.077,7.381c101.376,-42.544 238.596,-19.925 327.042,45.75c72.409,53.767 118.295,136.262 166.624,215.512c51.067,83.74 104.831,163.887 189.969,208.299c70.963,37.018 154.814,46.412 233.587,44.174c98.698,-2.803 227.261,-20.884 300.894,-89.508c37.36,-34.819 55.074,-69.646 60.628,-104.081c8.119,-50.334 -10.422,-100.497 -35.189,-150.246c-19.014,-38.196 -41.546,-76.22 -55.663,-114.222c-12.868,-34.638 -18.732,-69.195 -5.644,-103.808c16.148,-42.704 72.027,-97.194 105.774,-130.813c17.29,-17.224 29.194,-30.357 31.291,-35.063c4.649,-10.434 0.059,-17.221 -4.311,-20.979c-2.7,-2.322 -7.938,-5.723 -16.748,-3.624c-42.183,10.052 -75.63,17.279 -129.389,-13.459c-46.342,-26.498 -81.943,-61.22 -117.258,-90.725c-38.519,-32.184 -76.905,-58.271 -125.812,-64.92c-150.942,-20.519 -238.243,19.274 -404.115,78.662c-157.104,56.248 -399.48,205.02 -537.571,299.948Zm1274.92,-168.147c-3.579,3.656 -7.248,7.383 -10.866,11.034c-36.094,36.423 -82.023,86.439 -97.095,126.297c-16.029,42.392 -10.184,84.781 5.576,127.205c14.51,39.06 37.526,78.21 57.07,117.469c21.505,43.197 39.171,86.378 32.121,130.084c-4.557,28.258 -19.788,56.429 -50.447,85.003c-68.141,63.506 -187.777,77.979 -279.114,80.573c-73.213,2.08 -151.268,-6.002 -217.223,-40.408c-79.763,-41.608 -129.084,-117.647 -176.927,-196.101c-50.581,-82.943 -99.427,-168.645 -175.211,-224.918c-72.027,-53.483 -173.507,-80.679 -266.6,-72.205l0,0c137.528,-89.288 323.991,-198.405 452.601,-244.452c159.527,-57.116 243.222,-96.749 388.39,-77.014c42.546,5.784 75.42,29.472 108.93,57.47c36.713,30.674 73.907,66.535 122.084,94.082c43.028,24.602 75.06,29.171 106.711,25.881Z" style="fill:#7e4021;"/><path d="M1939.51,244.015c0.611,-3.821 -32.876,-3.612 -43.343,-5.994c-29.241,-6.652 -57.452,-18.152 -82.918,-33.992c-33.967,-21.127 -60.105,-52.287 -95.165,-71.793c-3.206,-1.783 -27.747,-17.477 -31.361,-12.769c-0.806,1.05 0.688,3.372 1.142,4.186c10.458,18.757 25.55,35.411 37.194,53.509c23.863,37.089 74.364,152.478 128.161,153.175c10.6,0.138 76.521,-75.121 86.29,-86.322Z" style="fill:#ffe6d8;"/><path d="M1952.07,254.969c2.053,-2.354 3.403,-5.238 3.896,-8.322c0.967,-6.046 -0.326,-13.414 -9.247,-18.289c-2.535,-1.386 -8.365,-3.057 -15.921,-3.842c-9.945,-1.033 -24.739,-1.336 -30.935,-2.746c-27.44,-6.243 -53.915,-17.029 -77.813,-31.893c-34.196,-21.27 -60.567,-52.568 -95.865,-72.206c-2.997,-1.667 -22.194,-13.247 -31.82,-15.192c-10.296,-2.08 -17.248,2.13 -20.863,6.838c-2.29,2.983 -3.624,6.573 -3.68,10.685c-0.052,3.851 2.279,9.604 3.485,11.767c10.627,19.059 25.903,36.021 37.735,54.411c17.053,26.504 47.688,92.013 83.218,129.275c18.482,19.384 38.744,31.288 58.743,31.548c2.561,0.033 6.075,-0.483 10.143,-2.514c3.176,-1.586 7.749,-4.784 13.081,-9.394c23.106,-19.978 67.859,-70.971 75.843,-80.126Zm-215.121,-90.054c22.644,17.512 43.007,38.035 67.496,53.267c27.034,16.815 56.981,29.028 88.024,36.091c2.787,0.634 8.161,1.303 14.089,1.911c-18.478,20.655 -44.014,48.245 -56.414,57.204c-6.324,-0.959 -12.465,-4.381 -18.589,-8.997c-9.237,-6.963 -18.113,-16.727 -26.612,-27.761c-28.144,-36.539 -51.708,-86.477 -65.868,-108.486l-2.126,-3.229Z" style="fill:#7e4021;"/><path d="M1255.03,100.205c-67.317,24.102 104.931,-15.825 207.93,100.497c56.755,64.095 52.525,173.2 118.233,206.583c41.528,21.098 112.553,-2.569 150.489,74.016c131.674,265.832 244.545,174.492 257.179,139.593c11.743,-32.44 -112.389,-27.333 -324.653,-381.311c-103.017,-171.794 -258.016,-193.798 -316.911,-172.772c-28.278,10.095 -58.622,21.348 -92.267,33.394Z" style="fill:#ffe6d8;"/><path d="M1249.41,84.514c-9.804,3.509 -15.555,6.304 -18.108,8.128c-2.893,2.066 -4.564,4.222 -5.602,5.953c-3.091,5.154 -3.116,10.024 -1.665,14.458c1.157,3.534 3.689,8.02 10.015,10.879c4.378,1.979 20.217,3.385 42.897,6.203c44.169,5.488 119.188,20.242 173.532,81.616c32.821,37.066 43.882,90.029 61.639,133.195c13.911,33.817 31.754,62.074 61.523,77.198c18.029,9.159 41.071,11.039 64.998,14.725c28.415,4.376 58.546,12.345 78.105,51.83c48.113,97.134 94.427,148.12 134.086,172.411c44.46,27.233 82.218,23.198 109.028,10.279c24.499,-11.806 39.942,-31.757 44.671,-44.822c4.57,-12.625 1.842,-23.751 -13.997,-36.705c-32.17,-26.313 -144.242,-79.035 -312.033,-358.85c-108.981,-181.739 -274.504,-202.14 -336.809,-179.898c-28.282,10.097 -58.63,21.352 -92.28,33.4Zm722.442,533.659c-4.017,7.534 -13.459,16.92 -26.465,23.188c-19.005,9.158 -45.628,10.629 -77.146,-8.676c-36.318,-22.244 -77.568,-69.831 -121.627,-158.781c-25.965,-52.419 -65.179,-64.17 -102.9,-69.98c-20.164,-3.106 -39.781,-3.779 -54.975,-11.498c-29.254,-14.863 -41.658,-47.439 -54.347,-82.576c-14.948,-41.392 -29.191,-86.581 -58.957,-120.197c-52.552,-59.35 -121.986,-80.584 -171.932,-89.263c17.251,-6.277 33.643,-12.26 49.395,-17.883c55.49,-19.81 199.951,3.784 297.013,165.648c150.829,251.527 258.061,324.24 304.593,356.648c7.042,4.905 14.153,10.707 17.348,13.37Z" style="fill:#7e4021;"/><path d="M1930.54,717.603c-11.806,2.789 -24.121,2.21 -36.081,0.766c-21.856,-2.64 -43.336,-7.783 -64.239,-14.662c-54.991,-18.098 -95.57,-56.372 -130.533,-101.06c-14.244,-18.205 -27.142,-38.254 -45.873,-52.298c-9.323,-6.99 -59.832,-40.258 -68.848,-22.846c-15.847,30.608 29.946,92.652 49.35,112.083c65.382,65.474 203.223,96.705 296.224,78.017Z" style="fill:#ffe6d8;"/><path d="M1926.72,735.254c2.569,-0.36 5.123,-0.832 7.656,-1.43c8.852,-2.091 14.393,-10.893 12.451,-19.779c-1.942,-8.885 -10.649,-14.573 -19.566,-12.782c-1.941,0.39 -3.902,0.758 -5.882,1.093c-8.239,1.103 -16.68,0.461 -24.918,-0.534c-20.764,-2.508 -41.168,-7.411 -61.026,-13.947c-51.773,-17.038 -89.701,-53.426 -122.618,-95.498c-15.138,-19.349 -29.094,-40.437 -49.001,-55.363c-7.299,-5.472 -37.312,-25.069 -58.036,-29.821c-17.087,-3.918 -29.79,1.407 -35.61,12.647c-6.513,12.58 -6.552,29.022 -1.121,46.615c10.051,32.561 38.717,70.126 53.478,84.908c67.091,67.186 206.614,100.605 304.193,83.891Zm-328.292,-195.336c-0.227,2.172 -0.07,4.516 0.251,6.958c0.87,6.617 3.287,13.752 6.475,20.977c10.725,24.299 30.221,49.203 40.96,59.957c29.503,29.545 74.594,51.614 123.263,64.718c-31.875,-20.93 -58.667,-48.75 -82.813,-79.611c-13.35,-17.063 -25.189,-36.071 -42.745,-49.234c-5.059,-3.793 -23.505,-16.188 -39.233,-22.059c-1.84,-0.687 -4.206,-1.279 -6.158,-1.706Z" style="fill:#7e4021;"/><path d="M957.974,248.213c-51.526,30.178 262.277,68.451 403.177,299.7c60.748,99.701 70.396,151.904 111.271,210.559c71.116,102.049 151.867,152.742 172.057,152.168c95.016,-2.698 219.117,-18.976 290.003,-85.041c83.011,-77.363 -290.41,30.476 -407.814,-221.203c-85.035,-182.291 -250.647,-380.562 -471.841,-409.259c-61.854,30.682 -80.473,43.482 -96.853,53.076Z" style="fill:#ffe6d8;"/><path d="M949.551,233.831c-12.037,7.05 -14.591,16.013 -13.777,23.642c0.406,3.806 1.829,7.851 4.858,11.877c3.134,4.166 9.019,9.049 17.834,13.971c57.447,32.083 277.686,91.472 388.452,273.264c61.008,100.127 70.78,152.51 111.83,211.416c51.541,73.96 108.125,121.711 144.514,143.594c19.04,11.45 34.034,15.923 41.69,15.705c98.698,-2.803 227.261,-20.884 300.894,-89.508c17.697,-16.494 18.981,-30.475 15.512,-39.164c-2.113,-5.292 -6.263,-10.296 -13.306,-14.113c-8.025,-4.349 -22.124,-7.535 -40.867,-9.793c-43.639,-5.257 -116.554,-7.727 -188.64,-30.71c-69.239,-22.076 -137.941,-63.419 -176.773,-146.662c-87.214,-186.962 -257.938,-389.309 -484.801,-418.741c-3.271,-0.425 -6.595,0.131 -9.551,1.597c-62.501,31.004 -81.317,43.931 -97.869,53.625Zm975.359,577.777c-0.585,0.63 -1.19,1.239 -1.791,1.799c-68.141,63.506 -187.777,77.979 -279.114,80.573c-1.489,0.043 -3.526,-0.911 -6.238,-2.003c-4.859,-1.956 -10.693,-4.959 -17.326,-8.948c-33.904,-20.388 -86.324,-65.177 -134.345,-134.086c-40.7,-58.404 -50.224,-110.428 -110.712,-209.702c-100.824,-165.475 -287.732,-235.006 -373.049,-271.983c-9.781,-4.239 -18.118,-7.999 -24.653,-11.444c14.458,-8.758 35.238,-21.145 79.979,-43.472c213.021,30.281 371.686,222.85 453.903,399.1c73.482,157.523 242.188,181.707 347.427,191.945c23.699,2.305 43.922,3.916 58.579,6.487c2.415,0.423 5.006,1.071 7.34,1.734Z" style="fill:#7e4021;"/><path d="M1747.69,901.437c-0.057,0.595 173.026,-31.043 305.642,-106.208c128.85,-73.032 250.932,-130.078 321.193,-305.46c87.41,-218.188 -16.695,-390.931 -82.142,-428.947c-44.763,-26.001 -110.736,20.457 -148.1,42.185c-91.143,53 -320.919,185.557 -317.773,306.548c2.827,108.736 117.154,186.012 119.125,294.054c1.352,74.102 -118.412,179.128 -197.945,197.828Z" style="fill:#f6a292;"/><path d="M1743.88,885.213c-6.95,1.634 -12.087,7.514 -12.774,14.621c-0.523,5.409 0.956,10.799 6.721,15.036c1.116,0.82 4.215,3.329 10.168,3.24c0.474,-0.007 3.132,-0.245 7.678,-1.081c29.698,-5.461 184.454,-38.476 305.882,-107.301c132.041,-74.84 256.445,-134.035 328.446,-313.761c63.72,-159.053 29.238,-294.892 -20.278,-375.675c-22.166,-36.162 -47.607,-61.477 -68.964,-73.882c-21.824,-12.676 -47.736,-12.173 -73.947,-4.169c-33.511,10.233 -67.611,32.814 -90.902,46.358c-55.406,32.219 -161.305,93.559 -236.528,163.871c-53.502,50.009 -90.888,105.206 -89.528,157.519c1.492,57.37 31.642,106.745 62.435,155.724c27.541,43.807 55.757,87.216 56.687,138.2c0.481,26.336 -17.312,56.553 -42.093,85.014c-39.496,45.362 -97.952,85.693 -143.003,96.286Zm122.703,-30.519c16.467,-13.532 31.966,-28.404 45.44,-43.879c31.003,-35.608 50.882,-74.56 50.281,-107.51c-1.041,-57.059 -30.973,-106.306 -61.795,-155.333c-27.572,-43.855 -55.997,-87.482 -57.333,-138.85c-1.157,-44.486 33.47,-89.773 78.968,-132.3c73.268,-68.485 176.556,-128.026 230.522,-159.407c21.546,-12.529 52.881,-33.828 83.881,-43.294c16.804,-5.131 33.478,-7.014 47.469,1.113c17.912,10.404 38.697,32.149 57.287,62.478c45.581,74.361 76.41,199.449 17.756,345.859c-68.521,171.039 -188.281,225.935 -313.941,297.158c-57.795,32.758 -123.418,57.088 -178.535,73.965Z" style="fill:#7e4021;"/><path d="M2144.29,103.007c51.099,31.634 90.545,109.075 115.65,236.767c30.562,155.447 0.563,268.404 -4.884,324.64c22.917,-21.872 45.439,-45.354 65.388,-73.689c9.486,-13.473 49.4,-148.35 -1.625,-324.793c-38.91,-134.549 -96.083,-205.408 -111.658,-198.236c-23.709,10.918 -46.065,25.744 -62.871,35.311Z" style="fill:#ffe6d8;"/><path d="M2136.04,88.522c-5.111,2.91 -8.311,8.298 -8.419,14.178c-0.108,5.88 2.891,11.382 7.891,14.478c48.546,30.053 84.219,104.498 108.069,225.811c30.109,153.14 0.247,264.417 -5.119,319.818c-0.672,6.931 3.037,13.549 9.299,16.595c6.263,3.045 13.759,1.876 18.797,-2.931c23.673,-22.594 46.902,-46.882 67.509,-76.152c3.268,-4.642 10.355,-21.615 16.15,-48.878c12.112,-56.979 21.349,-163.087 -15.392,-290.139c-32.584,-112.675 -78.532,-182.106 -103.504,-201.758c-12.934,-10.178 -24.381,-10.098 -31.136,-6.987c-24.18,11.134 -47.005,26.209 -64.145,35.965Zm73.381,-3.458c2.299,1.785 6.191,4.965 9.08,8.118c23.687,25.85 58.079,86.698 84.302,177.38c34.694,119.968 26.245,220.146 14.809,273.948c-4.298,20.221 -8.377,33.177 -10.801,36.62c-8.973,12.745 -18.492,24.468 -28.337,35.49c9.457,-63.747 21.564,-159.264 -2.185,-280.061c-22.837,-116.154 -58.323,-192.044 -102.288,-231.855l0,0c10.894,-6.54 22.916,-13.571 35.42,-19.64Z" style="fill:#7e4021;"/><path d="M1915.67,260.113c-30.586,27.94 114.278,10.35 143.048,264.723c16.693,147.594 -41.272,250.954 -59.693,295.444c33.36,-18.909 66.267,-36.745 97.938,-55.842c111.333,-154.173 92.13,-432.052 -70.258,-589.315c-37.952,25.297 -77.339,54.209 -111.035,84.99Z" style="fill:#ffe6d8;"/><path d="M1904.43,247.808c-8.3,7.581 -10.017,14.866 -9.586,20.839c0.424,5.875 3.306,12.315 10.762,18.302c12.818,10.292 51.805,24.13 85.402,75.905c22.431,34.566 42.336,85.925 51.15,163.855c16.232,143.523 -40.619,243.933 -58.531,287.195c-2.722,6.574 -0.97,14.151 4.361,18.864c5.331,4.712 13.066,5.52 19.256,2.011c33.494,-18.983 66.529,-36.895 98.326,-56.068c1.923,-1.159 3.592,-2.695 4.906,-4.516c115.423,-159.837 96.178,-448.003 -72.175,-611.044c-5.634,-5.457 -14.311,-6.246 -20.838,-1.896c-38.641,25.755 -78.726,55.214 -113.033,86.553Zm29.674,18.158c28.004,-24.787 59.506,-48.215 90.519,-69.343c146.724,151.998 163.65,409.369 60.787,555.314c-16.746,10.033 -33.83,19.732 -51.137,29.445c23.807,-56.29 53.883,-144.577 41.007,-258.419c-18.191,-160.841 -81.559,-217.945 -121.475,-244.701c-7.539,-5.053 -14.259,-8.986 -19.701,-12.296Z" style="fill:#7e4021;"/><path d="M1068.61,1415.24c-44.888,12.848 -85.054,36.905 -127.857,79.194c-213.983,211.418 -51.765,624.838 271.678,537.522c468.019,-126.344 211.05,-718.29 -143.821,-616.716Z" style="fill:#fff;"/><path d="M1064.02,1399.22c-47.352,13.553 -89.833,38.751 -134.984,83.361c-225.42,222.716 -52.994,657.451 287.735,565.469c147.534,-39.828 225.833,-124.468 254.035,-219.474c32.882,-110.772 -2.844,-236.818 -79.853,-325.726c-77.376,-89.334 -195.879,-141.142 -326.933,-103.63l0,-0Zm9.173,32.046c117.355,-33.59 223.276,13.412 292.564,93.407c69.657,80.421 102.837,194.22 73.094,294.417c-25.477,85.826 -97.489,160.799 -230.768,196.779c-306.16,82.649 -458.169,-309.456 -255.62,-509.576c40.454,-39.969 78.304,-62.883 120.73,-75.027l-0,0Z" style="fill:#7e4021;"/><path d="M2368.5,1322.22c-44.889,12.849 -85.054,36.905 -127.857,79.194c-213.984,211.418 -51.765,624.838 271.678,537.523c468.019,-126.345 211.049,-718.29 -143.821,-616.717Z" style="fill:#fff;"/><path d="M2363.91,1306.19c-47.352,13.554 -89.833,38.751 -134.985,83.361c-225.419,222.717 -52.993,657.451 287.735,565.47c147.535,-39.828 225.834,-124.469 254.036,-219.474c32.882,-110.773 -2.844,-236.819 -79.853,-325.727c-77.377,-89.333 -195.879,-141.141 -326.933,-103.63l-0,0Zm9.173,32.047c117.355,-33.591 223.276,13.412 292.564,93.407c69.657,80.42 102.837,194.22 73.094,294.417c-25.477,85.826 -97.489,160.799 -230.768,196.778c-306.16,82.65 -458.17,-309.455 -255.62,-509.576c40.454,-39.968 78.304,-62.883 120.729,-75.026l0.001,-0Z" style="fill:#7e4021;"/><path d="M1191.17,1410.62c-22.672,-3.441 -108.804,120.916 -104.825,297.342c0.604,26.785 79.298,15.413 87.436,44.785c6.438,23.232 -71.591,69.336 -65.92,83.767c42.219,107.429 152.737,183.414 174.568,173.38c252.809,-116.196 206.523,-554.084 -91.259,-599.274Z" style="fill:#7e4021;"/><path d="M1157,1756.07c-0.815,1.507 -2.444,4.382 -3.956,6.306c-8.292,10.55 -22.067,22.201 -33.742,32.741c-11.282,10.186 -20.733,19.765 -24.669,26.737c-4.558,8.073 -4.437,15.275 -2.282,20.759c31.061,79.037 97.314,141.867 142.13,168.842c15.303,9.211 28.576,14.355 37.751,15.613c7.133,0.978 12.896,-0.068 17.16,-2.028c133.276,-61.256 188.531,-206.904 170.403,-343.598c-18.119,-136.626 -109.215,-263.485 -266.123,-287.297l0,-0c-4.902,-0.744 -11.276,0.065 -18.38,4.162c-8.209,4.736 -19.397,15.463 -31.125,32.063c-34.085,48.246 -77.372,149.823 -74.483,277.971c0.216,9.572 4.456,17.201 12.243,23.132c6.733,5.129 17.296,8.879 29.439,11.625c11.309,2.556 24.24,4.481 34.916,7.942c3.161,1.025 6.083,2.164 8.531,3.635c0.783,0.471 1.604,0.853 2.187,1.395Zm34.711,-328.49c138.997,22.551 218.89,136.462 235.04,258.244c16.182,122.021 -31.298,252.755 -149.601,308.145c-2.62,-0.831 -15.513,-5.074 -25.479,-11.073c-39.436,-23.737 -97.226,-78.25 -126.096,-147.076c1.111,-1.378 2.536,-3.073 3.827,-4.4c6.143,-6.312 14.526,-13.581 22.873,-21.111c14.229,-12.838 28.058,-26.599 34.035,-38.012c4.575,-8.735 5.483,-16.968 3.535,-23.998c-2.81,-10.14 -9.875,-18.015 -20.376,-23.618c-10.357,-5.527 -24.8,-8.789 -38.943,-11.633c-7.65,-1.539 -15.171,-2.986 -21.449,-5.011c-2.047,-0.66 -4.69,-1.954 -6.106,-2.684c-2.145,-117.8 37.008,-211.286 68.421,-255.749c7.322,-10.364 17.433,-19.504 20.319,-22.024Z" style="fill:#7e4021;"/><path d="M2481.23,1316.65c-22.671,-3.441 -108.804,120.916 -104.825,297.342c0.604,26.785 79.298,15.413 87.436,44.785c6.438,23.232 -71.591,69.336 -65.92,83.767c42.219,107.429 152.737,183.414 174.568,173.38c252.809,-116.196 206.523,-554.084 -91.259,-599.274Z" style="fill:#7e4021;"/><path d="M2447.05,1662.09c-0.815,1.507 -2.444,4.382 -3.956,6.306c-8.292,10.55 -22.067,22.201 -33.742,32.741c-11.281,10.186 -20.733,19.765 -24.668,26.737c-4.558,8.073 -4.437,15.275 -2.282,20.759c31.061,79.037 97.313,141.867 142.129,168.842c15.303,9.211 28.576,14.355 37.752,15.613c7.133,0.977 12.895,-0.068 17.159,-2.028c133.277,-61.256 188.531,-206.905 170.403,-343.599c-18.119,-136.626 -109.214,-263.485 -266.123,-287.296c-4.902,-0.744 -11.276,0.065 -18.379,4.162c-8.21,4.736 -19.398,15.463 -31.126,32.063c-34.085,48.246 -77.372,149.823 -74.482,277.97c0.216,9.573 4.455,17.202 12.242,23.133c6.733,5.128 17.296,8.879 29.439,11.624c11.309,2.557 24.24,4.481 34.916,7.943c3.161,1.025 6.083,2.164 8.531,3.635c0.783,0.471 1.604,0.853 2.187,1.395Zm34.711,-328.491c138.997,22.552 218.89,136.463 235.04,258.245c16.182,122.021 -31.297,252.755 -149.601,308.145c-2.62,-0.831 -15.513,-5.074 -25.479,-11.073c-39.436,-23.737 -97.226,-78.25 -126.096,-147.076c1.112,-1.378 2.536,-3.073 3.827,-4.4c6.143,-6.312 14.526,-13.581 22.873,-21.111c14.229,-12.838 28.058,-26.599 34.036,-38.012c4.574,-8.735 5.482,-16.968 3.534,-23.998c-2.81,-10.141 -9.875,-18.015 -20.376,-23.618c-10.356,-5.527 -24.8,-8.789 -38.943,-11.633c-7.65,-1.539 -15.171,-2.986 -21.448,-5.011c-2.047,-0.66 -4.691,-1.955 -6.107,-2.684c-2.145,-117.8 37.008,-211.286 68.421,-255.749c7.322,-10.364 17.433,-19.504 20.319,-22.025Z" style="fill:#7e4021;"/><path d="M1384.33,1499.43c16.229,-42.024 70.873,-80.974 112.954,-86.014c9.134,-1.094 15.661,-9.397 14.567,-18.53c-1.094,-9.133 -9.397,-15.66 -18.53,-14.567c-52.266,6.259 -119.929,54.908 -140.086,107.102c-3.314,8.581 0.962,18.238 9.543,21.552c8.581,3.314 18.238,-0.962 21.552,-9.543Z" style="fill:#7e4021;"/><path d="M2684.22,1406.4c16.229,-42.024 70.873,-80.975 112.954,-86.014c9.133,-1.094 15.66,-9.397 14.567,-18.531c-1.094,-9.133 -9.397,-15.66 -18.53,-14.566c-52.266,6.259 -119.929,54.907 -140.087,107.102c-3.313,8.581 0.963,18.238 9.544,21.552c8.581,3.314 18.238,-0.962 21.552,-9.543Z" style="fill:#7e4021;"/><path d="M918.058,1961.29c-16.23,42.023 -70.874,80.974 -112.955,86.014c-9.133,1.093 -15.66,9.396 -14.567,18.53c1.094,9.133 9.397,15.66 18.531,14.566c52.266,-6.259 119.929,-54.907 140.086,-107.102c3.314,-8.581 -0.963,-18.238 -9.544,-21.551c-8.58,-3.314 -18.238,0.962 -21.551,9.543Z" style="fill:#7e4021;"/><path d="M2217.95,1868.26c-16.229,42.024 -70.873,80.975 -112.954,86.014c-9.133,1.094 -15.661,9.397 -14.567,18.53c1.094,9.134 9.397,15.661 18.53,14.567c52.266,-6.259 119.929,-54.907 140.086,-107.102c3.314,-8.581 -0.962,-18.238 -9.543,-21.552c-8.581,-3.314 -18.238,0.962 -21.552,9.543Z" style="fill:#7e4021;"/><path d="M1263.56,1419.86c0.34,-45.047 37.705,-100.787 75.294,-120.365c8.158,-4.249 11.332,-14.323 7.083,-22.481c-4.249,-8.158 -14.322,-11.332 -22.481,-7.083c-46.686,24.316 -92.806,93.727 -93.229,149.677c-0.069,9.199 7.342,16.723 16.54,16.793c9.199,0.069 16.723,-7.342 16.793,-16.541Z" style="fill:#7e4021;"/><path d="M2563.45,1326.84c0.341,-45.047 37.706,-100.788 75.295,-120.366c8.158,-4.249 11.332,-14.322 7.083,-22.48c-4.249,-8.159 -14.323,-11.332 -22.481,-7.083c-46.687,24.316 -92.806,93.727 -93.229,149.677c-0.07,9.198 7.342,16.723 16.54,16.792c9.198,0.07 16.723,-7.342 16.792,-16.54Z" style="fill:#7e4021;"/><path d="M1038.83,2040.86c-0.341,45.048 -37.706,100.788 -75.295,120.366c-8.158,4.249 -11.332,14.322 -7.083,22.481c4.25,8.158 14.323,11.332 22.481,7.083c46.687,-24.316 92.806,-93.728 93.229,-149.678c0.07,-9.198 -7.342,-16.722 -16.54,-16.792c-9.198,-0.069 -16.723,7.342 -16.792,16.54Z" style="fill:#7e4021;"/><path d="M2338.72,1947.83c-0.341,45.047 -37.706,100.788 -75.295,120.365c-8.158,4.25 -11.332,14.323 -7.083,22.481c4.249,8.159 14.323,11.332 22.481,7.083c46.687,-24.316 92.806,-93.727 93.229,-149.677c0.07,-9.198 -7.342,-16.723 -16.54,-16.792c-9.199,-0.07 -16.723,7.342 -16.792,16.54Z" style="fill:#7e4021;"/><path d="M1138.57,1395.67c-24.404,-37.866 -23.701,-104.968 -2.991,-141.945c4.495,-8.025 1.629,-18.19 -6.397,-22.685c-8.025,-4.495 -18.19,-1.629 -22.685,6.396c-25.723,45.927 -26.256,129.261 4.055,176.291c4.983,7.732 15.306,9.964 23.038,4.981c7.732,-4.984 9.963,-15.307 4.98,-23.038Z" style="fill:#7e4021;"/><path d="M2438.46,1302.64c-24.405,-37.865 -23.702,-104.967 -2.991,-141.944c4.495,-8.026 1.629,-18.191 -6.397,-22.686c-8.025,-4.495 -18.191,-1.628 -22.686,6.397c-25.723,45.926 -26.256,129.261 4.056,176.291c4.983,7.732 15.306,9.963 23.038,4.98c7.732,-4.983 9.963,-15.306 4.98,-23.038Z" style="fill:#7e4021;"/><path d="M1162.99,2053.48c24.405,37.866 23.702,104.968 2.991,141.945c-4.495,8.025 -1.629,18.19 6.397,22.685c8.025,4.495 18.19,1.629 22.685,-6.397c25.723,-45.926 26.256,-129.261 -4.055,-176.291c-4.983,-7.732 -15.306,-9.963 -23.038,-4.98c-7.732,4.983 -9.963,15.306 -4.98,23.038Z" style="fill:#7e4021;"/><path d="M2462.88,1960.45c24.404,37.865 23.701,104.967 2.991,141.944c-4.495,8.026 -1.629,18.191 6.397,22.686c8.025,4.495 18.19,1.628 22.685,-6.397c25.723,-45.926 26.256,-129.261 -4.055,-176.291c-4.983,-7.732 -15.306,-9.963 -23.038,-4.98c-7.732,4.983 -9.963,15.306 -4.98,23.038Z" style="fill:#7e4021;"/><path d="M994.271,1439.23c-38.026,-24.154 -65.507,-85.375 -62.198,-127.627c0.718,-9.171 -6.144,-17.199 -15.314,-17.917c-9.171,-0.718 -17.199,6.144 -17.918,15.314c-4.109,52.479 30.328,128.367 77.557,158.367c7.765,4.932 18.073,2.632 23.005,-5.133c4.932,-7.764 2.632,-18.072 -5.132,-23.004Z" style="fill:#7e4021;"/><path d="M2294.16,1346.21c-38.027,-24.154 -65.507,-85.374 -62.198,-127.627c0.718,-9.17 -6.144,-17.198 -15.315,-17.917c-9.17,-0.718 -17.199,6.144 -17.917,15.315c-4.11,52.479 30.328,128.367 77.557,158.366c7.765,4.932 18.073,2.632 23.005,-5.132c4.932,-7.765 2.632,-18.073 -5.132,-23.005Z" style="fill:#7e4021;"/><path d="M1301.95,2011.38c38.026,24.154 65.506,85.374 62.197,127.627c-0.718,9.17 6.144,17.199 15.315,17.917c9.17,0.718 17.199,-6.144 17.917,-15.315c4.11,-52.478 -30.328,-128.366 -77.557,-158.366c-7.765,-4.932 -18.073,-2.632 -23.005,5.132c-4.932,7.765 -2.632,18.073 5.133,23.005Z" style="fill:#7e4021;"/><path d="M2601.84,1918.35c38.026,24.153 65.507,85.374 62.198,127.626c-0.718,9.171 6.144,17.199 15.314,17.917c9.171,0.719 17.199,-6.144 17.918,-15.314c4.11,-52.479 -30.328,-128.367 -77.557,-158.366c-7.765,-4.932 -18.073,-2.633 -23.005,5.132c-4.932,7.765 -2.632,18.073 5.132,23.005Z" style="fill:#7e4021;"/><path d="M884.33,1545.23c-44.247,-8.46 -92.335,-55.265 -104.811,-95.769c-2.708,-8.791 -12.044,-13.73 -20.835,-11.022c-8.791,2.708 -13.73,12.044 -11.022,20.835c15.497,50.307 75.452,108.189 130.408,118.696c9.035,1.728 17.773,-4.205 19.5,-13.24c1.727,-9.035 -4.205,-17.772 -13.24,-19.5Z" style="fill:#7e4021;"/><path d="M2184.22,1452.2c-44.248,-8.46 -92.335,-55.266 -104.812,-95.769c-2.708,-8.791 -12.043,-13.73 -20.834,-11.022c-8.791,2.708 -13.73,12.044 -11.022,20.835c15.497,50.306 75.452,108.189 130.408,118.696c9.035,1.727 17.772,-4.205 19.5,-13.24c1.727,-9.035 -4.206,-17.773 -13.24,-19.5Z" style="fill:#7e4021;"/><path d="M1418.06,1915.49c44.247,8.459 92.334,55.265 104.811,95.769c2.708,8.791 12.044,13.729 20.834,11.021c8.791,-2.708 13.73,-12.043 11.022,-20.834c-15.497,-50.307 -75.451,-108.189 -130.408,-118.697c-9.035,-1.727 -17.772,4.206 -19.5,13.241c-1.727,9.035 4.206,17.772 13.241,19.5Z" style="fill:#7e4021;"/><path d="M2717.95,1822.46c44.248,8.46 92.335,55.266 104.812,95.769c2.708,8.791 12.043,13.73 20.834,11.022c8.791,-2.708 13.73,-12.044 11.022,-20.835c-15.497,-50.306 -75.452,-108.189 -130.408,-118.696c-9.035,-1.728 -17.772,4.205 -19.5,13.24c-1.727,9.035 4.205,17.773 13.24,19.5Z" style="fill:#7e4021;"/><path d="M1128.07,3034.95c223.382,207.051 565.197,295.802 782.625,243.076c260.957,-63.282 490.322,-230.087 596.565,-482.258c338.552,-803.568 -697.278,-1649.07 -1350.06,-962.11c-167.015,175.761 -245.32,411.905 -252.875,647.636c-6.536,203.929 80.515,420.9 223.742,553.656Z" style="fill:#9fcba4;"/><path d="M1116.74,3047.18c227.675,211.03 576.276,300.789 797.882,247.049c266.062,-64.52 499.676,-234.881 607.997,-491.984c172.471,-409.368 -4.709,-829.542 -308.574,-1059.76c-304.549,-230.734 -735.625,-271.053 -1068.92,79.697c-169.864,178.758 -249.767,418.83 -257.451,658.582c-6.687,208.65 82.527,430.584 229.07,566.413l0,0.001Zm22.66,-24.448c-139.912,-129.683 -224.798,-341.69 -218.414,-540.898c7.426,-231.709 84.133,-463.927 248.299,-636.689c319.48,-336.208 732.708,-297.257 1024.63,-76.089c292.606,221.687 464.066,626.047 297.984,1020.25c-104.164,247.238 -329.28,410.487 -585.133,472.532c-213.249,51.713 -548.278,-36.03 -767.367,-239.102l-0,-0.001Z" style="fill:#7e4021;"/><path d="M1190.69,3030.89c217.329,201.441 549.884,287.788 761.42,236.49c253.887,-61.568 477.038,-223.853 580.402,-469.192c329.38,-781.796 -678.386,-1604.39 -1313.48,-936.042c-162.49,170.998 -238.674,400.745 -246.024,630.088c-6.359,198.405 78.333,409.496 217.68,538.656Z" style="fill:#badcbe;"/><path d="M1179.36,3043.11c221.623,205.421 560.963,292.776 776.678,240.464c258.991,-62.805 486.391,-228.647 591.834,-478.918c167.885,-398.482 -4.572,-807.486 -300.357,-1031.58c-296.469,-224.612 -716.108,-263.858 -1040.56,77.586c-165.339,173.997 -243.121,407.67 -250.6,641.035c-6.51,203.126 80.346,419.18 223.008,551.413l0,0Zm22.66,-24.447c-136.031,-126.086 -218.559,-332.215 -212.352,-525.898c7.221,-225.322 81.807,-451.142 241.448,-619.142c310.637,-326.902 712.427,-289.024 996.27,-73.978c284.526,215.565 451.262,608.755 289.767,992.069c-101.286,240.406 -320.188,399.136 -568.97,459.466c-207.358,50.284 -533.127,-35.054 -746.163,-232.516l-0,-0.001Z" style="fill:#7e4021;"/><path d="M2045.86,2246.94c0.077,-0.656 -13.586,52.286 -44.846,99.24c-32.298,48.512 -98.432,47.917 -119.544,-2.74c-30.435,-73.024 106.704,-105.928 164.39,-96.5Z" style="fill:#fff;"/><path d="M2061.8,2251.77l0.001,-0.003c0,-0 -0.16,0.561 -0.317,1.11c-2.555,8.927 -17.129,58.266 -46.603,102.538c-40.219,60.412 -122.511,57.518 -148.801,-5.564c-15.71,-37.693 1.487,-67.781 34.574,-88.724c41.732,-26.416 110.332,-36.774 147.888,-30.637l-6.005,4.53c9.437,2.184 19.986,12.875 19.871,13.854c-0.115,0.989 -0.318,1.958 -0.608,2.896Zm-38.209,10.184c-6.531,18.66 -18.406,47.876 -36.456,74.989c-24.387,36.629 -74.346,38.334 -90.287,0.085c-8.646,-20.746 3.423,-36.209 21.634,-47.736c28.791,-18.224 72.738,-27.433 105.109,-27.338Zm36.93,-7.111c-1.122,2.094 -2.695,3.942 -4.631,5.402c-3.427,2.585 -7.711,3.742 -11.956,3.248c3.283,0.459 11.628,0.845 16.587,-8.65Zm0.341,-0.668l-0.035,0.074l0.027,-0.052l0.008,-0.022Z" style="fill:#7e4021;"/><path d="M1501.2,2324.91c-0.607,0.262 52.074,-14.377 108.367,-10.782c58.162,3.714 90.714,61.286 57.4,104.898c-48.024,62.869 -145.088,-39.444 -165.767,-94.116Z" style="fill:#fff;"/><path d="M1497.41,2308.69l-0.004,0.001c0,-0 0.566,-0.143 1.12,-0.281c9.009,-2.251 59.025,-14.299 112.102,-10.91c72.428,4.626 111.068,77.339 69.583,131.648c-24.789,32.452 -59.444,32.602 -94.125,14.42c-43.742,-22.933 -87.013,-77.163 -100.476,-112.757l6.925,2.936c-2.826,-9.265 1.157,-23.745 2.062,-24.136c0.915,-0.394 1.855,-0.703 2.813,-0.921Zm27.924,27.998c19.425,-3.674 50.664,-7.998 83.17,-5.922c43.916,2.804 70.371,45.218 45.217,78.148c-13.643,17.861 -33.069,15.139 -52.157,5.132c-30.178,-15.821 -60.127,-49.277 -76.23,-77.358Zm-24.623,-28.427c2.374,-0.075 4.761,0.363 6.993,1.309c3.953,1.676 7.097,4.808 8.791,8.731c-1.243,-3.073 -5.082,-10.493 -15.784,-10.04Zm-0.726,0.035l-0.023,0.003l0.081,-0.006l-0.058,0.003Z" style="fill:#7e4021;"/><path d="M1841.06,2724.51c0.53,0.395 -38.488,-37.909 -63.521,-88.458c-25.864,-52.226 7.719,-109.203 62.145,-102.158c78.458,10.155 38.384,145.372 1.376,190.616Z" style="fill:#fff;"/><path d="M1828.9,2735.91l0.003,0.003c-0,0 -0.407,-0.419 -0.803,-0.829c-6.454,-6.677 -41.896,-43.968 -65.499,-91.629c-32.209,-65.037 11.443,-134.857 79.219,-126.084c40.498,5.242 57.956,35.179 59.55,74.304c2.011,49.349 -23.319,113.938 -47.412,143.394l-0.92,-7.465c-6.61,7.079 -21.143,10.87 -21.933,10.281c-0.799,-0.594 -1.537,-1.255 -2.205,-1.975Zm-1.629,-2.033l0.015,0.019l-0.046,-0.068l0.031,0.049Zm0.41,-19.3c-2.039,2.613 -6.545,9.647 -0.803,18.689c-1.252,-2.019 -2.066,-4.305 -2.362,-6.711c-0.525,-4.261 0.615,-8.55 3.165,-11.978Zm11.504,-16.849c-12.894,-14.985 -32.258,-39.878 -46.713,-69.066c-19.529,-39.434 3.974,-83.553 45.069,-78.233c22.29,2.885 29.646,21.069 30.524,42.603c1.387,34.046 -12.612,76.71 -28.88,104.696Z" style="fill:#7e4021;"/><path d="M2018.34,2161.99c0.515,-0.413 -46.391,27.682 -101.619,39.156c-57.062,11.855 -103.726,-35.013 -83.182,-85.902c29.617,-73.36 150.354,-0.477 184.801,46.746Z" style="fill:#fff;"/><path d="M2026.3,2176.63l0.004,-0.002c-0,0 -0.508,0.288 -1.005,0.568c-8.089,4.561 -53.113,29.452 -105.187,40.271c-71.058,14.763 -127.61,-45.088 -102.026,-108.46c15.287,-37.867 48.659,-47.21 86.921,-38.884c48.261,10.502 104.373,51.303 126.799,82.047l-7.456,-0.993c5.184,8.183 5.186,23.201 4.418,23.818c-0.777,0.623 -1.602,1.17 -2.468,1.635Zm-34.353,-19.583c-17.753,8.698 -46.725,21.157 -78.616,27.783c-43.085,8.951 -79.848,-24.92 -64.336,-63.345c8.414,-20.841 27.866,-23.373 48.925,-18.791c33.295,7.245 71.049,31.553 94.027,54.353Zm13.402,15.382c2.014,2.632 7.685,8.767 17.883,5.491c-2.27,0.702 -4.687,0.913 -7.09,0.593c-4.256,-0.567 -8.118,-2.752 -10.793,-6.084Zm18.595,5.254l-0.077,0.028l0.055,-0.018l0.022,-0.01Z" style="fill:#7e4021;"/><path d="M1441.39,2391.22c-0.615,-0.239 47.17,26.336 84.721,68.427c38.797,43.49 21.54,107.336 -32.803,114.989c-78.34,11.031 -75.59,-129.972 -51.918,-183.416Z" style="fill:#fff;"/><path d="M1429.02,2391.42c4.494,-8.581 17.5,-16.092 18.418,-15.734c0.928,0.361 1.814,0.802 2.649,1.319l-0.003,-0.002c0,-0 0.503,0.296 0.995,0.586c7.994,4.724 52.062,31.271 87.468,70.959c48.314,54.157 24.758,133.058 -42.915,142.587c-40.437,5.695 -65.215,-18.535 -77.135,-55.834c-15.036,-47.045 -7.757,-116.041 7.655,-150.835l2.868,6.954Zm21.285,25.127c16.409,11.026 41.685,29.886 63.369,54.192c29.294,32.837 18.343,81.611 -22.69,87.389c-22.256,3.134 -34.175,-12.446 -40.736,-32.975c-10.373,-32.457 -8.2,-77.306 0.057,-108.606Zm2.434,-37.53c1.743,1.614 3.134,3.602 4.059,5.844c1.637,3.968 1.676,8.406 0.127,12.388c1.272,-3.06 3.75,-11.038 -4.186,-18.232Zm-0.561,-0.498l0.063,0.052l-0.043,-0.038l-0.02,-0.014Z" style="fill:#7e4021;"/><path d="M1928.38,2743.16c0.101,0.653 -0.777,-54.017 16.9,-107.583c18.264,-55.345 82.185,-72.323 115.984,-29.086c48.724,62.328 -74.764,130.448 -132.884,136.669Z" style="fill:#fff;"/><path d="M1911.72,2742.73l0,0.004c0,-0 0.005,-0.584 0.011,-1.155c0.094,-9.285 1.05,-60.723 17.718,-111.229c22.744,-68.92 102.852,-87.97 144.942,-34.128c25.15,32.172 16.555,65.745 -9.787,94.718c-33.224,36.544 -96.615,64.738 -134.454,68.788l4.588,-5.961c-9.678,0.398 -22.686,-7.109 -22.835,-8.083c-0.151,-0.984 -0.213,-1.972 -0.183,-2.954Zm0.268,-2.591l-0.002,0.023l0.014,-0.08l-0.012,0.057Zm13.846,-13.453c-3.287,0.428 -11.435,2.272 -13.697,12.742c0.527,-2.317 1.553,-4.516 3.032,-6.437c2.618,-3.403 6.442,-5.655 10.665,-6.305Zm20.022,-3.916c1.344,-19.723 5.04,-51.043 15.247,-81.974c13.79,-41.789 61.506,-56.691 87.026,-24.045c13.842,17.707 6.309,35.819 -8.189,51.766c-22.921,25.212 -62.849,45.754 -94.084,54.253Z" style="fill:#7e4021;"/><path d="M2136.96,2280.09c-0.41,-0.518 27.365,46.579 38.462,101.884c11.466,57.141 -35.719,103.485 -86.467,82.594c-73.157,-30.116 0.548,-150.354 48.005,-184.478Z" style="fill:#fff;"/><path d="M2126.18,2274.01c8.217,-5.128 23.235,-5.027 23.847,-4.254c0.617,0.781 1.159,1.609 1.617,2.478l-0.001,-0.004c-0,0 0.284,0.511 0.561,1.009c4.506,8.12 29.089,53.313 39.552,105.459c14.278,71.157 -45.957,127.3 -109.153,101.285c-37.761,-15.545 -46.876,-48.981 -38.29,-87.185c10.831,-48.188 52.014,-104.02 82.91,-126.237l-1.043,7.449Zm5.648,32.443c8.577,17.812 20.838,46.868 27.246,78.803c8.658,43.145 -25.464,79.677 -63.782,63.903c-20.783,-8.556 -23.183,-28.025 -18.457,-49.052c7.472,-33.245 32.036,-70.832 54.993,-93.654Zm21.085,-31.142c0.687,2.274 0.882,4.693 0.546,7.094c-0.596,4.252 -2.807,8.099 -6.158,10.751c2.646,-1.996 8.819,-7.625 5.612,-17.845Zm-0.231,-0.713l0.028,0.077l-0.018,-0.056l-0.01,-0.021Z" style="fill:#7e4021;"/><path d="M1484.36,2229.44c-0.244,0.613 26.657,-46.989 69.003,-84.252c43.753,-38.5 107.481,-20.808 114.762,33.587c10.497,78.413 -130.484,74.701 -183.765,50.665Z" style="fill:#fff;"/><path d="M1470.2,2220.65l-0.002,0.003c0,0 0.3,-0.501 0.593,-0.99c4.779,-7.962 31.626,-51.848 71.554,-86.983c54.485,-47.944 133.224,-23.85 142.292,43.887c5.418,40.475 -18.98,65.087 -56.36,76.753c-47.147,14.714 -116.09,6.965 -150.778,-8.684l6.972,-2.821c-8.549,-4.552 -15.972,-17.609 -15.608,-18.525c0.368,-0.925 0.814,-1.809 1.337,-2.64Zm39.543,0.052c11.138,-16.333 30.17,-41.48 54.623,-62.997c33.036,-29.07 81.734,-17.786 87.232,23.285c2.982,22.277 -12.679,34.089 -33.252,40.51c-32.526,10.152 -77.36,7.672 -108.603,-0.798Zm-38.001,-2.152l-0.014,0.019l0.053,-0.062l-0.039,0.043Zm18.749,-4.599c-3.051,-1.294 -11.013,-3.826 -18.26,4.062c1.626,-1.733 3.623,-3.11 5.871,-4.02c3.98,-1.61 8.417,-1.618 12.389,-0.042Z" style="fill:#7e4021;"/><path d="M1766.79,2786.83c0.653,-0.096 -54.021,0.409 -107.466,-17.633c-55.218,-18.641 -71.76,-82.677 -28.294,-116.18c62.66,-48.298 129.936,75.652 135.76,133.813Z" style="fill:#fff;"/><path d="M1766.25,2803.48l0.004,0.001c0,-0 -0.584,-0.009 -1.154,-0.019c-9.284,-0.157 -60.715,-1.465 -111.106,-18.476c-68.763,-23.214 -87.267,-103.45 -33.139,-145.172c32.343,-24.929 65.857,-16.106 94.65,10.433c36.316,33.473 64.077,97.055 67.869,134.92l-5.93,-4.628c0.333,9.68 -7.263,22.636 -8.239,22.779c-0.985,0.145 -1.973,0.199 -2.955,0.162Zm-2.589,-0.285l0.023,0.002l-0.08,-0.015l0.057,0.013Zm-13.358,-13.937c0.406,3.289 2.194,11.45 12.648,13.783c-2.313,-0.542 -4.505,-1.583 -6.416,-3.075c-3.384,-2.642 -5.611,-6.481 -6.232,-10.708Zm-3.779,-20.049c-19.714,-1.478 -51.008,-5.387 -81.869,-15.805c-41.693,-14.075 -56.27,-61.892 -23.45,-87.189c17.801,-13.721 35.861,-6.064 51.709,8.542c25.054,23.093 45.324,63.16 53.61,94.452Z" style="fill:#7e4021;"/><path d="M2906.39,644.035c18.137,38.121 37.84,76.874 45.949,118.524c1.758,9.029 10.515,14.932 19.544,13.174c9.029,-1.757 14.933,-10.515 13.175,-19.544c-8.642,-44.389 -29.238,-85.847 -48.568,-126.475c-3.952,-8.307 -13.904,-11.842 -22.211,-7.89c-8.306,3.952 -11.841,13.904 -7.889,22.211Z" style="fill:#7e4021;"/><path d="M2997.58,829.772c-0.229,-1.824 -0.77,-3.638 -1.641,-5.371c-6.885,-13.69 -19.206,-9.027 -20.993,-8.347c-3.343,1.272 -10.843,4.917 -10.754,15.771c0.007,0.909 1.281,6.975 1.971,9.274c0.832,2.768 1.69,5.527 2.417,8.325c2.285,8.803 3.719,17.773 4.594,26.82c2.827,29.241 4.798,58.979 3.83,88.358c-0.303,9.194 6.915,16.904 16.108,17.207c9.194,0.303 16.904,-6.915 17.207,-16.109c1.016,-30.81 -1.002,-61.998 -3.967,-92.664c-1.043,-10.791 -2.782,-21.487 -5.508,-31.988c-0.832,-3.205 -1.804,-6.368 -2.756,-9.538l-0.508,-1.738Zm-30.506,11.204l0.201,0.292l-0.251,-0.374l0.05,0.082Zm-0.455,-0.743l0.261,0.426l-0.297,-0.492l0.036,0.066Z" style="fill:#7e4021;"/><path d="M357.856,890.772c-10.434,82.629 7.01,164.385 9.147,175.508c1.736,9.033 10.479,14.958 19.512,13.223c9.034,-1.736 14.958,-10.479 13.223,-19.513c-2.01,-10.46 -18.623,-87.335 -8.811,-165.042c1.152,-9.126 -5.321,-17.471 -14.447,-18.623c-9.126,-1.153 -17.471,5.321 -18.624,14.447Z" style="fill:#7e4021;"/><path d="M377.877,1121.23c8.764,38.484 22.719,87.613 48.967,116.633c6.171,6.822 16.719,7.351 23.541,1.181c6.822,-6.17 7.351,-16.719 1.181,-23.541c-22.763,-25.167 -33.588,-68.3 -41.188,-101.674c-2.042,-8.969 -10.982,-14.592 -19.951,-12.55c-8.969,2.042 -14.592,10.982 -12.55,19.951Z" style="fill:#7e4021;"/><path d="M421.587,990.937c1.293,24.459 12.852,96.57 32.234,123.741c5.342,7.488 15.759,9.231 23.248,3.889c7.488,-5.342 9.231,-15.759 3.889,-23.247c-16.568,-23.225 -24.979,-85.236 -26.084,-106.142c-0.486,-9.186 -8.338,-16.25 -17.523,-15.764c-9.186,0.485 -16.25,8.337 -15.764,17.523Z" style="fill:#7e4021;"/><path d="M2421.88,2670.53c149.717,-30.95 316.919,-94.485 302.414,-230.077c-11.132,-104.072 -60.515,-178.155 -94.238,-293.875c-20.805,-71.394 -69.627,-83.032 -93.811,-78.429c-61.928,11.786 -51.756,111.225 -48.373,146.589c0.151,1.571 3.199,21.35 2.431,20.75c-24.617,-19.206 -55.578,-38.206 -79.347,-58.705c-71.906,-62.013 -117.512,-113.101 -186.318,-144.358c-39.257,-17.834 -100.223,2.887 -86.633,60.644c16.96,72.084 179.06,210.148 185.046,214.22c2.282,1.552 9.841,4.683 7.119,4.229c-17.872,-2.981 -217.384,-114.597 -305.403,-142.647c-107.097,-34.13 -177.707,57.382 -81.636,134.098c59.328,47.375 255.106,74.302 313.437,114.864c4.017,2.793 -9.69,-1.362 -14.525,-2.111c-8.303,-1.285 -16.633,-2.389 -24.972,-3.413c-24.123,-2.96 -48.418,-5.519 -72.661,-7.215c-65.858,-4.608 -229.013,-22.352 -233.448,65.353c-4.721,93.342 126.775,80.799 229.206,77.684c58.92,-1.792 164.955,-1.576 174.111,-2.826c1.337,-0.183 -204.05,38.583 -223.197,109.712c-14.977,55.635 36.856,69.468 81.374,65.412c25.908,-2.36 72.18,-12.356 96.615,-20.643c52.345,-17.754 98.63,-18.056 152.809,-29.256Z" style="fill:#fff;"/><path d="M2229.19,2243.78c-67.702,-34.28 -150.535,-75.234 -199.359,-90.793c-62.429,-19.895 -113.695,-0.839 -135.882,32.039c-22.756,33.72 -18.651,85.098 38.785,130.963c30.832,24.62 96.863,44.597 163.022,63.019c9.56,2.662 19.122,5.291 28.559,7.909c-42.72,-3.077 -104.934,-6.544 -152.221,5.125c-44.12,10.887 -75.611,34.777 -77.775,77.559c-2.335,46.182 21.811,71.748 60.308,85.148c48.245,16.793 122.538,11.968 186.05,10.037c13.873,-0.422 30.331,-0.74 47.537,-0.992c-20.117,7.616 -39.94,16.442 -57.028,26.419c-29.015,16.941 -50.095,37.805 -56.195,60.467c-5.926,22.012 -3.162,39.008 4.133,51.948c6.972,12.367 18.406,21.378 32.618,27.122c18.044,7.291 40.858,9.22 62.229,7.273c26.938,-2.454 75.05,-12.841 100.456,-21.458c51.658,-17.521 97.363,-17.665 150.83,-28.718c92.629,-19.148 191.533,-50.925 252.778,-103.057c43.919,-37.385 69.269,-84.956 62.834,-145.114c-11.238,-105.058 -60.766,-179.948 -94.809,-296.765c-24.585,-84.364 -84.35,-95.578 -112.928,-90.139c-31.435,5.982 -49.071,28.942 -57.634,58.196c-8.594,29.36 -7.523,65.295 -5.639,90.057c-16.633,-11.658 -33.653,-23.481 -48.016,-35.867c-73.345,-63.255 -120.125,-115.029 -190.309,-146.912c-34.67,-15.75 -82.442,-6.319 -102.296,24.944c-8.805,13.866 -12.777,32.068 -7.454,54.693c5.513,23.429 24.656,53.603 49.662,84.051c17.586,21.413 37.979,43.119 57.744,62.846Zm189.319,410.424c-54.891,11.348 -101.755,11.807 -154.788,29.794c-23.464,7.958 -67.896,17.563 -92.775,19.829c-13.55,1.235 -27.888,0.681 -40.233,-2.788c-9.651,-2.712 -18.164,-6.998 -22.552,-14.78c-3.77,-6.688 -4.045,-15.538 -0.983,-26.914c2.639,-9.801 10.399,-18.42 20.522,-26.586c12.256,-9.887 28.025,-18.692 45.094,-26.529c53.872,-24.734 120.493,-39.537 139.49,-43.508c3.313,-0.692 5.242,-1.069 5.495,-1.124c3.03,-0.654 4.47,-1.653 4.676,-1.769c9.951,-5.593 8.89,-14.163 8.189,-17.737c-0.784,-3.996 -2.845,-8.587 -8.735,-11.615c-0.462,-0.237 -3.682,-2.536 -9.881,-1.69c-9.065,1.238 -114.036,0.907 -172.364,2.681c-50.066,1.522 -107.24,5.547 -151.316,-2.413c-35.768,-6.46 -62.611,-20.747 -60.738,-57.77c1.386,-27.407 24.206,-39.906 52.47,-46.881c52.605,-12.981 124.867,-5.368 163.169,-2.688c23.955,1.676 47.96,4.207 71.795,7.132c8.165,1.002 16.322,2.082 24.452,3.341c3.061,0.474 9.715,2.336 13.069,2.886c3.73,0.611 6.561,0.281 7.976,-0.02c7.421,-1.582 10.632,-6.307 12.201,-10.189c1.209,-2.992 4.786,-12.764 -6.656,-20.721c-30.142,-20.959 -95.607,-38.932 -161.389,-57.249c-61.146,-17.026 -122.667,-34.2 -151.163,-56.955c-38.687,-30.892 -47.282,-63.557 -31.955,-86.27c15.883,-23.535 53.441,-33.166 98.131,-18.924c69.843,22.258 210.404,97.691 272.934,128.436c18.065,8.883 30.69,14.087 34.787,14.77c14.537,2.424 18.351,-8.81 19.144,-11.205c1.258,-3.796 2.447,-10.55 -4.052,-17.095c-0.702,-0.707 -2.246,-2.09 -4.681,-3.423c-1.348,-0.737 -4.259,-1.94 -5.414,-2.725c-4.088,-2.781 -82.681,-69.751 -135.222,-133.726c-21.155,-25.759 -38.311,-50.709 -42.975,-70.531c-2.831,-12.033 -1.537,-21.814 3.146,-29.189c11.623,-18.303 40.073,-21.685 60.371,-12.464c67.428,30.631 111.859,81.034 182.326,141.805c23.965,20.669 55.159,39.859 79.979,59.225c3.64,2.839 7.264,3.555 10.369,3.539c4.336,-0.021 8.561,-1.458 12.17,-5.353c1.169,-1.262 4.344,-4.705 4.499,-11.331c0.071,-3.049 -2.477,-20.783 -2.625,-22.334c-1.902,-19.886 -6.464,-61.404 3.023,-93.813c4.935,-16.86 13.758,-31.368 31.875,-34.816c19.809,-3.77 57.653,8.244 74.694,66.72c33.403,114.623 82.64,187.9 93.667,290.984c6.536,61.096 -28.987,105.301 -81.887,138.375c-57.175,35.746 -134.419,58.536 -207.329,73.608Z" style="fill:#7e4021;"/><path d="M2534.95,2469.08c-1.748,0.392 -12.927,2.893 -14.406,3.065c-18.736,2.179 -37.787,2.495 -56.629,2.831c-9.198,0.165 -16.531,7.765 -16.367,16.962c0.164,9.197 7.764,16.531 16.961,16.366c19.927,-0.355 40.072,-0.744 59.887,-3.049c2.153,-0.251 16.921,-3.34 19.656,-4.095c9.285,-2.564 11.313,-9.697 11.597,-10.473c1.56,-4.266 1.289,-8.231 -0.169,-11.894c-1.061,-2.663 -2.861,-5.413 -6.137,-7.633c-4.391,-2.975 -9.699,-3.572 -14.393,-2.08Z" style="fill:#7e4021;"/><path d="M2530.32,2409.25c-22.321,-1.272 -44.334,-7.96 -65.674,-14.096c-8.84,-2.542 -18.081,2.572 -20.623,11.412c-2.542,8.841 2.572,18.082 11.412,20.624c23.796,6.842 48.411,13.984 73.301,15.358c2.443,0.135 10.814,-0.198 14.417,-2.068c5.721,-2.97 8.761,-7.701 9.499,-13.506c1.16,-9.125 -5.307,-17.476 -14.432,-18.636c-2.764,-0.351 -5.457,-0.003 -7.9,0.912Z" style="fill:#7e4021;"/><path d="M2711.92,2327.7c-37.495,19.449 -90.722,132.746 -32.135,252.095c13.3,27.093 42.628,43.008 68.726,32.189c30.702,-12.729 55.285,-61.515 67.829,-124.628c13.819,-69.526 -21.032,-202.909 -104.42,-159.656Z" style="fill:#fff;"/><path d="M2704.25,2312.9c-13.361,6.93 -29.013,23.368 -41.647,47.549c-26.585,50.879 -41.704,137.195 2.225,226.684c17.288,35.218 56.145,54.305 90.07,40.241c14.918,-6.185 29.023,-18.968 41.101,-37.48c15.864,-24.31 28.687,-59.021 36.692,-99.295c9.068,-45.62 -1.435,-116.302 -30.659,-155.394c-11.271,-15.077 -25.248,-25.748 -41.437,-30.248c-16.283,-4.526 -35.119,-3.067 -56.345,7.943Zm15.348,29.589c12.132,-6.293 22.763,-8.003 32.07,-5.416c9.4,2.613 17.122,9.336 23.666,18.09c24.221,32.401 32.179,91.127 24.663,128.938c-7.048,35.462 -17.945,66.171 -31.913,87.578c-7.811,11.969 -16.306,20.904 -25.952,24.902c-18.286,7.581 -38.063,-5.153 -47.382,-24.136c-32.72,-66.655 -28.143,-131.271 -11.571,-176.218c10.023,-27.185 23.754,-47.168 36.419,-53.738Z" style="fill:#7e4021;"/><path d="M2807.78,2093.83c104.54,11.049 454.336,53.002 426.035,191.287c-33.787,165.095 -359.308,109.136 -441.233,128.524c-34.663,8.203 -65.168,33.828 -66.946,74.151c-0.911,20.675 10.371,42.91 53.115,60.086c220.976,88.792 652.054,-37.981 673.768,-242.03c32.038,-301.064 -500.751,-389.407 -642.094,-420.705" style="fill:#fcd2b8;"/><path d="M2806.03,2110.41c61.814,6.533 210.676,23.85 313.821,66.238c32.457,13.339 60.288,29.019 78.523,48.066c15.594,16.289 23.618,35.064 19.115,57.068c-12.168,59.459 -67.826,85.116 -133.202,97.965c-109.145,21.451 -246.281,6.024 -295.541,17.681c-41.632,9.852 -77.623,41.207 -79.758,89.636c-1.129,25.596 10.631,55.02 63.551,76.284c136.196,54.726 350.152,30.469 504.292,-43.554c105.997,-50.904 183.06,-125.693 192.263,-212.177c13.539,-127.225 -66.884,-219.453 -179.639,-285.29c-161.758,-94.45 -389.736,-134.476 -475.425,-153.451c-8.981,-1.988 -17.887,3.689 -19.875,12.67c-1.989,8.981 3.688,17.887 12.669,19.875c83.923,18.584 307.397,57.187 465.823,149.692c100.705,58.801 175.393,139.348 163.301,252.977c-8.168,76.761 -79.466,140.475 -173.547,185.656c-145.969,70.099 -348.458,94.497 -477.434,42.673c-32.628,-13.111 -43.374,-28.105 -42.678,-43.887c1.42,-32.22 26.435,-52.112 54.133,-58.666c49.05,-11.608 185.613,3.948 294.294,-17.411c79.854,-15.695 144.566,-51.362 159.429,-123.99c9.878,-48.265 -17.752,-87.661 -67.472,-117.807c-101.633,-61.623 -298.556,-85.514 -373.139,-93.397c-9.148,-0.967 -17.36,5.675 -18.327,14.823c-0.966,9.147 5.675,17.359 14.823,18.326Z" style="fill:#7e4021;"/><path d="M1079.77,2805.78c-151.798,-18.179 -323.773,-67.346 -320.787,-203.68c2.291,-104.64 45.232,-182.634 69.048,-300.79c14.694,-72.898 62.356,-88.624 86.843,-86.082c62.703,6.506 60.976,106.45 60.596,141.973c-0.017,1.578 -1.382,21.544 -0.667,20.882c22.904,-21.22 52.148,-42.77 74.098,-65.205c66.405,-67.872 107.527,-122.634 173.443,-159.598c37.608,-21.089 100.108,-5.598 91.451,53.102c-10.803,73.26 -160.648,224.537 -166.268,229.101c-2.142,1.739 -9.409,5.497 -6.735,4.815c17.556,-4.481 206.914,-132.569 292.245,-167.962c103.827,-43.065 181.924,42.148 92.684,126.714c-55.109,52.222 -247.908,95.609 -302.601,140.958c-3.766,3.123 9.541,-2.176 14.295,-3.331c8.164,-1.983 16.371,-3.788 24.594,-5.513c23.786,-4.989 47.778,-9.593 71.791,-13.334c65.232,-10.161 226.302,-41.638 238.138,45.377c12.598,92.609 -119.488,91.23 -221.815,96.789c-58.861,3.198 -164.498,12.379 -173.727,11.908c-1.347,-0.069 206.582,21.189 231.676,90.444c19.627,54.169 -30.85,72.337 -75.551,72.06c-26.015,-0.161 -72.967,-6.208 -98.015,-12.4c-53.66,-13.263 -99.804,-9.65 -154.736,-16.228Z" style="fill:#fff;"/><path d="M992.177,2341.02c-0.217,-24.833 -2.188,-60.729 -13.235,-89.257c-11.006,-28.425 -30.52,-49.811 -62.348,-53.114c-28.936,-3.003 -87.539,13.225 -104.902,99.367c-24.042,119.277 -67.06,198.086 -69.373,303.718c-1.325,60.488 27.958,105.744 74.881,139.281c65.434,46.766 166.67,70.065 260.587,81.312l0,0c54.21,6.492 99.764,2.771 152.718,15.86c26.044,6.438 74.863,12.719 101.912,12.886c21.458,0.133 44.028,-3.718 61.39,-12.51c13.676,-6.924 24.307,-16.871 30.208,-29.783c6.174,-13.51 7.491,-30.679 -0.275,-52.111c-7.995,-22.065 -30.763,-41.072 -61.107,-55.498c-17.871,-8.497 -38.369,-15.614 -59.058,-21.502c17.166,-1.204 33.592,-2.279 47.451,-3.032c63.448,-3.446 137.883,-4.921 184.535,-25.734c37.225,-16.608 59.124,-44.124 52.891,-89.943c-5.774,-42.446 -39.172,-63.587 -84.056,-70.704c-48.103,-7.628 -109.802,1.087 -152.108,7.766c9.181,-3.407 18.487,-6.835 27.788,-10.296c64.364,-23.951 128.468,-49.44 157.108,-76.58c53.352,-50.557 53.097,-102.098 27.572,-133.773c-24.888,-30.884 -77.582,-45.536 -138.105,-20.433c-47.334,19.632 -126.406,67.443 -190.967,107.326c18.026,-21.328 36.51,-44.68 52.222,-67.504c22.342,-32.453 38.865,-64.138 42.377,-87.95c3.391,-22.993 -2.106,-40.794 -12.053,-53.866c-22.426,-29.472 -70.825,-34.829 -104.039,-16.204c-67.236,37.704 -109.47,93.249 -177.204,162.479c-13.263,13.557 -29.223,26.776 -44.81,39.799Zm89.574,448.21c-73.924,-8.852 -152.819,-25.028 -212.811,-55.811c-55.508,-28.482 -94.641,-69.525 -93.296,-130.955c2.27,-103.647 45.134,-180.826 68.725,-297.862c12.035,-59.708 48.727,-74.879 68.784,-72.798c18.343,1.904 28.362,15.614 34.705,31.995c12.193,31.491 11.159,73.246 10.945,93.222c-0.016,1.557 -1.055,19.444 -0.726,22.476c1.269,11.71 10.494,14.272 12.906,14.833c4.591,1.068 9.962,0.781 15.146,-4.022c23.093,-21.395 52.553,-43.155 74.685,-65.776c65.074,-66.513 105.084,-120.492 169.681,-156.716c19.445,-10.904 48.079,-9.94 61.208,7.315c5.29,6.952 7.406,16.589 5.603,28.818c-2.971,20.145 -17.956,46.457 -36.856,73.912c-46.943,68.19 -119.591,141.566 -123.43,144.682c-1.084,0.88 -3.883,2.325 -5.163,3.174c-2.314,1.534 -3.735,3.043 -4.375,3.807c-5.923,7.071 -4.166,13.7 -2.593,17.376c0.993,2.319 5.744,13.191 20.024,9.546c4.025,-1.027 16.164,-7.28 33.414,-17.659c59.706,-35.924 193.383,-122.973 261.095,-151.057c43.325,-17.97 81.563,-11.55 99.379,10.558c17.193,21.335 11.391,54.61 -24.545,88.663c-26.47,25.084 -86.318,47.398 -145.805,69.534c-63.998,23.815 -127.708,47.259 -155.97,70.692c-10.728,8.896 -6.337,18.331 -4.879,21.21c1.891,3.735 5.49,8.172 13.019,9.12c1.435,0.181 4.283,0.27 7.948,-0.654c3.296,-0.831 9.769,-3.25 12.779,-3.981c7.994,-1.942 16.03,-3.708 24.081,-5.397c23.503,-4.93 47.208,-9.482 70.935,-13.178c37.939,-5.909 109.298,-19.605 162.812,-11.119c28.752,4.559 52.548,15.084 56.247,42.275c4.996,36.732 -20.542,53.238 -55.635,62.699c-43.246,11.659 -100.555,12.484 -150.57,15.201c-58.27,3.165 -162.837,12.371 -171.973,11.905c-6.248,-0.319 -9.263,2.244 -9.703,2.52c-0.724,0.453 -14.611,27.91 6.746,30.659c0.257,0.034 2.211,0.246 5.571,0.656c19.265,2.35 86.899,11.466 142.67,31.556c17.671,6.365 34.128,13.805 47.176,22.62c10.777,7.282 19.238,15.213 22.696,24.756c4.013,11.076 4.487,19.918 1.296,26.9c-3.713,8.126 -11.833,13.117 -21.221,16.635c-12.007,4.5 -26.247,6.265 -39.853,6.18c-24.981,-0.154 -70.066,-5.967 -94.119,-11.912c-54.365,-13.439 -101.099,-9.933 -156.753,-16.598l-0,0Zm95.91,-100.686c-0.938,0.027 -1.649,0.028 -2.116,0.004c0.736,0.037 1.442,0.038 2.116,-0.004Z" style="fill:#7e4021;"/><path d="M950.075,2614.62c-4.804,-1.09 -10.042,-0.047 -14.165,3.289c-3.077,2.489 -4.638,5.382 -5.47,8.125c-1.144,3.773 -1.078,7.747 0.837,11.866c0.349,0.749 2.973,7.685 12.441,9.454c2.789,0.522 17.765,2.351 19.933,2.419c19.938,0.62 40.044,-0.695 59.929,-2.026c9.179,-0.614 16.131,-8.564 15.517,-17.743c-0.614,-9.178 -8.564,-16.13 -17.742,-15.516c-18.803,1.258 -37.814,2.554 -56.667,1.967c-1.488,-0.046 -12.838,-1.592 -14.613,-1.835Zm7.44,28.659l-0.641,0.546c0.222,-0.18 0.436,-0.361 0.641,-0.546Zm4.208,-5.88c-0.92,2.174 -2.317,4.178 -4.17,5.845c2.048,-1.828 3.343,-3.844 4.17,-5.845Zm0.314,-0.793l-0.171,0.442l0.126,-0.309l0.045,-0.133Zm0.001,-11.478c1.26,3.431 1.337,7.162 0.295,10.598l0.007,-0.021c1.024,-3.378 1.078,-6.918 -0.302,-10.577Z" style="fill:#7e4021;"/><path d="M949.625,2554.61c-2.512,-0.705 -5.224,-0.824 -7.949,-0.24c-8.994,1.927 -14.732,10.794 -12.804,19.789c1.226,5.722 4.655,10.179 10.607,12.654c3.748,1.559 12.117,1.183 14.539,0.842c24.686,-3.474 48.609,-12.673 71.74,-21.502c8.594,-3.281 12.908,-12.921 9.628,-21.515c-3.281,-8.594 -12.921,-12.907 -21.515,-9.627c-20.745,7.918 -42.112,16.443 -64.246,19.599Z" style="fill:#7e4021;"/><path d="M761.777,2488.7c39.006,16.208 101.623,124.598 53.339,248.474c-10.961,28.12 -38.839,46.458 -65.758,37.885c-31.669,-10.087 -60.289,-56.619 -78.126,-118.446c-19.648,-68.107 3.799,-203.96 90.545,-167.913Z" style="fill:#fff;"/><path d="M768.173,2473.31c-22.081,-9.176 -40.974,-9.036 -56.815,-3.149c-15.75,5.852 -28.775,17.667 -38.731,33.643c-25.813,41.424 -30.301,112.74 -17.408,157.43c11.382,39.453 27.095,72.955 44.957,95.837c13.601,17.424 28.737,28.969 44.124,33.869c34.992,11.145 72.096,-11.159 86.344,-47.713c36.204,-92.883 13.84,-177.612 -16.952,-226.06c-14.634,-23.026 -31.62,-38.081 -45.519,-43.857Zm-12.791,30.781c13.175,5.475 28.547,24.226 40.833,50.466c20.313,43.384 30.338,107.382 3.372,176.565c-7.68,19.703 -26.309,34.065 -45.171,28.057c-9.95,-3.169 -19.17,-11.353 -27.964,-22.619c-15.729,-20.149 -29.184,-49.826 -39.206,-84.566c-10.686,-37.039 -7.723,-96.228 13.671,-130.56c5.781,-9.277 12.907,-16.629 22.052,-20.028c9.055,-3.365 19.792,-2.559 32.413,2.685Z" style="fill:#7e4021;"/><path d="M601.049,2263.57c-103.231,19.85 -402.79,91.447 -362.897,226.844c47.627,161.646 367.25,78.36 450.522,90.75c35.232,5.243 67.795,28.196 72.976,68.225c2.657,20.523 -6.705,43.633 -47.843,64.362c-212.677,107.161 -652.931,17.296 -691.822,-184.186c-57.383,-297.275 438.691,-424.156 576.881,-467.294" style="fill:#fcd2b8;"/><path d="M597.902,2247.2c-63.126,12.139 -198.212,43.477 -287.457,96.241c-65.977,39.007 -106.315,90.471 -88.28,151.681c20.952,71.111 88.448,101.178 169.344,110.063c110.097,12.093 244.856,-14.957 294.712,-7.538c28.153,4.189 54.76,21.893 58.9,53.878c2.028,15.666 -7.411,31.516 -38.814,47.339c-124.132,62.546 -327.958,55.358 -479.332,-2.146c-97.565,-37.063 -173.995,-94.52 -188.626,-170.315c-21.647,-112.145 41.559,-197.913 131.934,-263.865c142.104,-103.699 351.58,-158.772 433.55,-184.361c8.78,-2.741 13.684,-12.095 10.943,-20.876c-2.741,-8.78 -12.096,-13.684 -20.876,-10.943c-83.859,26.178 -297.887,83.165 -443.266,189.254c-101.281,73.91 -169.273,171.431 -145.014,297.109c16.484,85.395 99.595,153.4 209.518,195.157c159.847,60.723 375.088,66.801 506.168,0.754c50.932,-25.664 60.162,-55.977 56.873,-81.386c-6.223,-48.075 -44.737,-76.273 -87.053,-82.57c-50.069,-7.45 -185.409,19.519 -295.978,7.375c-66.228,-7.274 -123.856,-28.133 -141.009,-86.35c-13.888,-47.137 22.462,-83.528 73.271,-113.567c85.888,-50.779 216.035,-80.518 276.786,-92.2c9.034,-1.737 14.957,-10.481 13.22,-19.514c-1.737,-9.033 -10.481,-14.957 -19.514,-13.22Z" style="fill:#7e4021;"/></g></svg>