<?xml version="1.0" encoding="UTF-8" standalone="no"?><!DOCTYPE svg PUBLIC "-//W3C//DTD SVG 1.1//EN" "http://www.w3.org/Graphics/SVG/1.1/DTD/svg11.dtd"><svg width="100%" height="100%" viewBox="0 0 2571 2499" version="1.1" xmlns="http://www.w3.org/2000/svg" xmlns:xlink="http://www.w3.org/1999/xlink" xml:space="preserve" xmlns:serif="http://www.serif.com/" style="fill-rule:evenodd;clip-rule:evenodd;stroke-linejoin:round;stroke-miterlimit:2;"><g id="Biscuit-01"><path d="M883.079,86.838c-420.901,155.957 -632.147,376.145 -754.231,670.973c-128.468,310.242 -148.617,545.745 -47.001,896.913c200.238,691.992 1010.83,971.863 1652.49,754.6c852.663,-288.712 1071.36,-1310.71 506.377,-2012.64c-308.975,-383.866 -961.909,-456.469 -1357.63,-309.842Zm884.057,922.995c-58.615,8.03 -125.311,72.004 -151.527,176.868c-48.76,195.039 -22.279,414.854 -288.327,426.591c-257.205,11.347 -373.114,-270.146 -251.062,-489.709c117.908,-212.109 395.081,-285.18 690.916,-113.75Z" style="fill:#ffdab8;"/><path d="M877.288,71.21c-426.458,158.015 -640.143,381.504 -763.839,680.225c-130.044,314.05 -150.475,552.442 -47.612,907.921c202.89,701.157 1023.69,985.895 1673.84,765.755c863.882,-292.511 1086.44,-1327.72 514.016,-2038.88c-313.293,-389.229 -975.154,-463.695 -1376.4,-315.02l-0.001,-0Zm11.582,31.256c390.193,-144.578 1034.2,-73.838 1338.86,304.664c557.552,692.694 342.704,1701.5 -498.74,1986.41c-633.152,214.386 -1433.54,-60.619 -1631.13,-743.447c-100.369,-346.857 -80.501,-579.47 46.389,-885.904c120.473,-290.935 329.279,-507.823 744.624,-661.721l0,0Zm880.528,923.88c7.053,-0.966 12.714,-6.306 14.09,-13.291c1.376,-6.985 -1.836,-14.073 -7.996,-17.642c-305.826,-177.221 -591.949,-99.201 -713.839,120.072c-128.486,231.137 -4.399,526.403 266.364,514.458c84.907,-3.746 141.585,-28.035 181.04,-64.936c39.31,-36.766 61.646,-86.499 76.721,-142.971c18.986,-71.121 26.474,-153.189 46,-231.292c24.133,-96.533 83.662,-157.007 137.62,-164.398Zm-44.111,-20.482c-51.939,25.567 -103.321,86.692 -125.847,176.795c-19.482,77.928 -26.924,159.818 -45.867,230.78c-13.372,50.09 -32.417,94.612 -67.285,127.223c-34.723,32.475 -85.017,52.683 -159.74,55.98c-243.652,10.749 -351.381,-256.968 -235.761,-464.961c109.466,-196.922 361.376,-267.524 634.5,-125.817l0,-0Z" style="fill:#7e4021;"/><path d="M2176.48,868.519c-7.175,-2.818 -16.177,-6.523 -26.485,-10.069c-33.105,-11.388 -78.514,-20.448 -121.95,0.369c-58.31,27.945 -88.653,80.619 -90.878,136.906c-35.946,-14.637 -106.89,-30.798 -206.684,7.968c-8.575,3.331 -12.832,12.996 -9.501,21.571c3.331,8.574 12.996,12.831 21.571,9.5c116.876,-45.402 188.385,-6.556 201.467,1.545c2.672,1.654 4.254,2.487 4.513,2.598c11.079,4.76 17.435,-2.346 19.236,-4.441c2.709,-3.149 4.662,-7.349 3.88,-13.112c-7.209,-53.103 16.387,-106.397 70.802,-132.475c25.121,-12.04 51.116,-10.598 73.397,-5.609c24.833,5.56 45.528,15.555 57.097,19.514c9.03,3.091 15.79,2.814 19.333,1.671c6.626,-2.136 10.699,-6.515 12.376,-13.169c7.206,-28.601 19.89,-55.052 40.58,-86.586c19.219,-29.292 53.445,-49.011 89.627,-56.824c35.821,-7.735 73.886,-3.909 101.535,15.608c7.515,5.305 17.923,3.511 23.227,-4.004c5.305,-7.515 3.51,-17.923 -4.004,-23.228c-34.855,-24.603 -82.637,-30.709 -127.793,-20.958c-44.794,9.672 -86.67,34.857 -110.462,71.12c-19.528,29.764 -32.489,55.551 -40.884,82.105Z" style="fill:#7e4021;"/><path d="M1941.5,1030.39c99.816,294.78 -25.555,561.741 -170.589,690.08c-160.751,142.248 -389.545,198.971 -595.312,169.498c-204.181,-29.246 -386.008,-143.62 -454.326,-345.313c-265.25,-783.087 734.692,-1254 1292.4,-665.654c6.328,6.676 16.886,6.958 23.562,0.63c6.676,-6.328 6.958,-16.886 0.63,-23.562c-582.636,-614.644 -1625.27,-118.808 -1348.16,699.28c58.081,171.472 192.829,284.197 355.594,338.243c242.042,80.371 546.04,30.293 747.705,-148.158c152.56,-135 285.067,-415.658 180.071,-725.735c-2.95,-8.712 -12.419,-13.391 -21.132,-10.44c-8.712,2.95 -13.391,12.419 -10.44,21.131Z" style="fill:#7e4021;"/><path d="M2169.89,892.31c6.2,7.188 13.8,24.782 22.286,48.801c21.682,61.368 45.734,162.386 51.457,253.962c8.367,133.868 5.223,309.189 -34.81,436.623c-80.966,257.732 -299.558,433.609 -553.439,518.097c-254.785,84.79 -545.421,77.726 -770.022,-32.288c-394.048,-193.012 -536.833,-542.936 -517.612,-896.383c15.996,-294.135 122.055,-550.019 457.624,-754.157c407.115,-247.661 1076.92,-165.626 1447.27,270.903c5.951,7.014 16.478,7.878 23.492,1.927c7.014,-5.951 7.877,-16.477 1.926,-23.492c-381.241,-449.361 -1070.93,-532.757 -1490.02,-277.815c-347.391,211.329 -457.025,476.327 -473.584,780.824c-19.904,366.014 128.174,728.253 536.233,928.128c231.956,113.616 532.082,121.547 795.211,33.981c264.034,-87.867 490.51,-271.695 574.714,-539.735c41.143,-130.968 44.876,-311.111 36.277,-448.692c-5.927,-94.831 -30.843,-199.438 -53.296,-262.987c-10.429,-29.519 -20.854,-50.635 -28.475,-59.469c-6.008,-6.966 -16.541,-7.743 -23.506,-1.734c-6.966,6.008 -7.743,16.541 -1.734,23.506Z" style="fill:#7e4021;"/><circle cx="438.73" cy="1296.55" r="25.018" style="fill:#fff;"/><circle cx="2048.81" cy="1422.62" r="25.018" style="fill:#fff;"/><circle cx="1630.75" cy="1565.48" r="25.018" style="fill:#fff;"/><circle cx="504.185" cy="412.629" r="25.018" style="fill:#fff;"/><path d="M937.162,1177.71c-8.694,19.33 -14.758,55.928 -15.875,84.597c-1.34,34.378 -1.41,82.588 6.926,125.378c1.759,9.029 10.517,14.931 19.546,13.173c9.029,-1.759 14.931,-10.518 13.172,-19.546c-7.825,-40.169 -7.594,-85.435 -6.336,-117.707c0.952,-24.44 5.555,-55.743 12.967,-72.221c3.773,-8.389 0.026,-18.263 -8.363,-22.037c-8.389,-3.773 -18.263,-0.026 -22.037,8.363Z" style="fill:#7e4021;"/><path d="M948.857,1461.02c8.486,24.418 19.849,49.495 37.021,69.119c6.057,6.923 16.595,7.626 23.518,1.568c6.923,-6.057 7.625,-16.595 1.568,-23.518c-14.385,-16.44 -23.512,-37.656 -30.621,-58.112c-3.02,-8.689 -12.526,-13.291 -21.215,-10.271c-8.689,3.019 -13.291,12.525 -10.271,21.214Z" style="fill:#7e4021;"/><path d="M1777.2,1485.64c-4.278,-25.18 -6.019,-67.537 -19.555,-90.794c-13.536,-23.257 -37.29,-30.074 -52.846,-33.597c16.584,-3.376 39.31,-10.34 52.846,-33.597c13.536,-23.256 16.074,-63.588 19.555,-90.794c3.571,24.916 6.018,67.538 19.554,90.794c13.537,23.257 36.997,28.753 52.846,33.597c-15.703,4.844 -39.309,10.34 -52.846,33.597c-13.536,23.257 -13.281,64.188 -19.554,90.794Z" style="fill:#fff;"/><path d="M394.499,782.842c-5.855,-34.467 -8.238,-92.445 -26.767,-124.278c-18.528,-31.834 -51.042,-41.165 -72.335,-45.988c22.7,-4.621 53.807,-14.153 72.335,-45.987c18.529,-31.833 22.003,-87.039 26.767,-124.278c4.889,34.105 8.238,92.445 26.766,124.278c18.528,31.834 50.64,39.357 72.335,45.987c-21.494,6.631 -53.807,14.154 -72.335,45.988c-18.528,31.833 -18.179,87.859 -26.766,124.278Z" style="fill:#fff;"/><circle cx="277.21" cy="1418.83" r="25.018" style="fill:#fff;"/><circle cx="189.709" cy="1363.49" r="25.018" style="fill:#7e4021;"/><circle cx="1750.95" cy="1547.5" r="16.344" style="fill:#fff;"/><path d="M1824.68,1155.08c3.761,-14.036 18.21,-22.378 32.246,-18.617c14.035,3.761 22.377,18.209 18.616,32.245c-3.761,14.036 -18.209,22.378 -32.245,18.617c-14.036,-3.761 -22.377,-18.21 -18.617,-32.245Z" style="fill:#7e4021;"/><path d="M252.947,775.208c3.761,-14.036 18.21,-22.377 32.245,-18.617c14.036,3.761 22.378,18.21 18.617,32.246c-3.761,14.035 -18.209,22.377 -32.245,18.616c-14.036,-3.761 -22.378,-18.209 -18.617,-32.245Z" style="fill:#7e4021;"/><circle cx="570.257" cy="756.292" r="16.344" style="fill:#fff;"/><circle cx="243.287" cy="1598.08" r="16.344" style="fill:#fff;"/><circle cx="646.964" cy="652.81" r="25.018" style="fill:#7e4021;"/></g></svg>