<?xml version="1.0" encoding="UTF-8" standalone="no"?><!DOCTYPE svg PUBLIC "-//W3C//DTD SVG 1.1//EN" "http://www.w3.org/Graphics/SVG/1.1/DTD/svg11.dtd"><svg width="100%" height="100%" viewBox="0 0 3358 2943" version="1.1" xmlns="http://www.w3.org/2000/svg" xmlns:xlink="http://www.w3.org/1999/xlink" xml:space="preserve" xmlns:serif="http://www.serif.com/" style="fill-rule:evenodd;clip-rule:evenodd;stroke-linejoin:round;stroke-miterlimit:2;"><g id="Challah-02"><path d="M195.818,1156.98c14.547,45.878 -44.429,143.919 -61.755,168.694c-60.731,86.845 -106.309,198.197 -114.688,304.067c-27.444,346.802 181.589,706.423 469.193,889.073c44.688,28.38 91.495,52.666 140.87,71.8c202.808,78.594 380.477,84.384 560.208,91.618c92.23,3.712 380.384,184.806 581.853,222.73c125.588,23.64 256.895,28.75 382.935,5.301c145.756,-27.118 290.972,-91.065 412.973,-174.763c139.934,-96.001 270.801,-316.569 326.074,-343.742c104.418,-51.335 282.955,-183.314 365.106,-364.143c110.027,-242.189 102.403,-526.654 18.633,-775.348c-63.835,-189.51 -191.049,-227.368 -206.814,-297.954c-27.234,-121.933 -89.496,-300.37 -150.422,-413.786c-173.843,-323.615 -562.197,-408.459 -902.083,-410.563c-93.687,-0.58 -251.399,11.771 -295.493,-11.821c-152.428,-81.558 -247.996,-111.239 -452.227,-97.085c-97.939,6.788 -193.739,38.592 -277.404,89.63c-140.174,85.512 -198.07,218.009 -308.404,300.052c-36.965,27.487 -94.384,36.898 -136.373,54.453c-130.896,54.725 -261.613,138.616 -335.069,263.268c-76.034,129.028 -59.615,294.473 -17.113,428.519Z" style="fill:#f7bf9a;"/><path d="M179.931,1162.02c4.947,15.601 -1.354,38.103 -10.143,61.07c-14.929,39.016 -39.374,78.722 -49.383,93.034c-62.366,89.184 -109.04,203.584 -117.644,312.305c-27.914,352.731 184.35,718.683 476.872,904.456c45.61,28.966 93.389,53.743 143.783,73.272c204.759,79.349 384.099,85.427 565.56,92.73c35.693,1.437 101.448,31.049 180.3,67.554c123.435,57.146 277.087,131.927 399.14,154.902c127.599,24.019 261.009,29.132 389.067,5.307c148,-27.535 295.473,-92.417 419.353,-177.405c85.198,-58.449 167.298,-162.2 231.29,-241.968c24.86,-30.988 46.916,-58.237 65.308,-77.376c10.72,-11.155 19.78,-19.438 27.4,-23.185c106.692,-52.452 288.987,-187.437 372.927,-372.205c111.761,-246.007 104.344,-534.948 19.253,-787.562c-39.463,-117.156 -102.267,-178.173 -149.839,-223.861c-27.888,-26.783 -50.79,-46.825 -56.503,-72.406c-27.515,-123.19 -90.452,-303.455 -152.005,-418.04c-176.809,-329.136 -570.979,-417.202 -916.663,-419.343c-65.294,-0.404 -161.822,5.542 -228.921,1.064c-25.859,-1.726 -46.969,-4.577 -58.812,-10.914c-155.467,-83.183 -252.94,-113.452 -461.243,-99.015c-100.592,6.971 -198.999,39.607 -284.93,92.028c-71.749,43.77 -122.559,99.434 -169.432,154.784c-44.944,53.073 -86.087,105.856 -140.238,146.122c-35.956,26.736 -92.013,35.374 -132.857,52.45c-134.124,56.075 -267.731,142.458 -342.999,270.184c-78.436,133.104 -62.487,303.736 -18.641,442.018Zm31.774,-10.075c-41.16,-129.812 -58.047,-290.069 15.585,-415.02c71.645,-121.579 199.47,-202.978 327.139,-256.353c43.135,-18.034 101.915,-28.219 139.889,-56.455c56.183,-41.777 99.155,-96.265 145.786,-151.329c44.702,-52.787 92.927,-106.127 161.353,-147.869c81.397,-49.656 174.592,-80.628 269.876,-87.232c200.161,-13.872 293.822,15.221 443.212,95.153c14.615,7.82 40.409,12.653 72.318,14.782c67.689,4.518 165.067,-1.398 230.935,-0.99c334.088,2.069 716.626,83.688 887.504,401.784c60.297,112.246 121.885,288.856 148.838,409.532c6.9,30.893 32.267,56.837 65.946,89.182c44.77,42.997 104.2,100.203 141.339,210.459c82.45,244.774 90.28,524.763 -18.012,763.135c-80.362,176.89 -255.142,305.863 -357.285,356.079c-17.779,8.74 -43.416,35.572 -73.857,72.431c-65.438,79.233 -157.539,206.147 -254.292,272.525c-120.123,82.409 -263.082,145.42 -406.593,172.12c-124.023,23.074 -253.226,17.968 -376.804,-5.294c-119.711,-22.534 -270.235,-96.343 -391.302,-152.393c-84.15,-38.958 -154.873,-69.078 -192.964,-70.611c-178.002,-7.165 -353.999,-12.668 -554.855,-90.505c-48.357,-18.74 -94.192,-42.535 -137.958,-70.329c-282.687,-179.527 -488.488,-532.817 -461.513,-873.689c8.153,-103.02 52.636,-211.324 111.732,-295.831c12.632,-18.064 46.448,-73.556 60.448,-121.594c6.829,-23.435 8.709,-45.37 3.535,-61.688Z" style="fill:#7e4021;"/><path d="M1852.79,1776.63c70.893,40.181 165.619,55.834 288.556,31.606c9.025,-1.779 14.909,-10.55 13.13,-19.575c-1.779,-9.025 -10.55,-14.908 -19.575,-13.129c-113.134,22.296 -200.435,9.076 -265.675,-27.901c-8.003,-4.536 -18.182,-1.721 -22.718,6.282c-4.535,8.002 -1.721,18.182 6.282,22.717Z" style="fill:#7e4021;"/><path d="M2231.6,1780.89c23.364,-3.905 63.827,-20.599 95.827,-45.149c22.696,-17.412 40.925,-38.829 47.736,-61.737c2.622,-8.818 -2.408,-18.104 -11.225,-20.726c-8.817,-2.622 -18.104,2.408 -20.726,11.225c-5.019,16.883 -19.349,31.959 -36.075,44.791c-27.129,20.813 -61.225,35.408 -81.032,38.719c-9.073,1.517 -15.208,10.114 -13.691,19.187c1.516,9.072 10.114,15.207 19.186,13.69Z" style="fill:#7e4021;"/><path d="M151.653,2004.3c5.724,16.39 12.749,32.326 19.732,48.21c23.715,53.936 52.8,106.439 86.365,154.849c5.241,7.56 15.633,9.442 23.193,4.201c7.559,-5.241 9.441,-15.634 4.2,-23.193c-32.355,-46.666 -60.384,-97.282 -83.244,-149.273c-6.633,-15.088 -13.339,-30.214 -18.776,-45.783c-3.032,-8.684 -12.545,-13.273 -21.229,-10.24c-8.685,3.032 -13.273,12.545 -10.241,21.229Z" style="fill:#7e4021;"/><path d="M334.199,2264.3c-0.269,-0.751 -0.597,-1.489 -0.983,-2.212c-4.342,-8.109 -14.451,-11.168 -22.561,-6.826c-3.807,2.039 -14.141,11.009 -5.976,24.991c5.928,10.151 46.738,55.255 50.113,58.833c6.311,6.693 16.868,7.003 23.56,0.692c6.693,-6.311 7.002,-16.868 0.691,-23.56c-2.807,-2.978 -39.192,-45.336 -44.844,-51.918Zm-0.944,13.446c-1.496,2.838 -3.826,5.275 -6.865,6.903c2.977,-1.594 5.333,-3.846 6.865,-6.903Zm0.046,-0.092l-0.041,0.082l0.021,-0.039l0.02,-0.043Z" style="fill:#7e4021;"/><path d="M1201.58,2697.89c94.508,-32.523 203.586,-96.075 288.901,-147.719c122.392,-74.087 247.458,-186.706 313.017,-315.034c67.146,-131.434 73.024,-279.165 -46.302,-420.281c-65.317,-77.244 -162.229,-138.718 -254.627,-178.29c-234.614,-100.482 -425.316,-23.695 -604.377,27.622c-102.254,29.305 -200.498,50.132 -301.473,18.954c-67.085,-20.714 -135.171,-64.438 -206.605,-143.08c-87.094,-95.884 -154.674,-251.85 -177.543,-379.92c-1.617,-9.056 -10.282,-15.095 -19.337,-13.478c-9.056,1.617 -15.095,10.282 -13.478,19.337c23.876,133.703 94.76,296.373 185.684,396.473c76.429,84.142 149.669,130.356 221.445,152.518c107.316,33.135 211.814,12.385 320.49,-18.76c172.487,-49.433 356.071,-125.817 582.071,-29.025c87.841,37.621 180.201,95.737 242.297,169.172c108.903,128.79 103.352,263.639 42.071,383.594c-62.868,123.06 -183.226,230.636 -300.594,301.682c-83.454,50.517 -190.041,112.902 -282.487,144.716c-8.698,2.993 -13.329,12.485 -10.336,21.183c2.993,8.698 12.485,13.33 21.183,10.336Z" style="fill:#7e4021;"/><path d="M2371.76,1168.6c75.624,7.114 183.673,-19.242 246.282,-58.979c106.268,-67.445 190.228,-193.848 229.922,-332.047c39.85,-138.746 34.962,-289.022 -34.634,-403.081c-4.791,-7.853 -15.056,-10.338 -22.908,-5.547c-7.852,4.792 -10.338,15.056 -5.546,22.909c64.99,106.512 68.263,246.952 31.05,376.517c-37.371,130.109 -115.699,249.608 -215.746,313.105c-57.273,36.351 -156.119,60.444 -225.298,53.936c-9.158,-0.862 -17.293,5.874 -18.155,15.032c-0.861,9.159 5.875,17.293 15.033,18.155Z" style="fill:#7e4021;"/><path d="M666.243,1693.48c-37.237,-41.527 -70.415,-88.804 -97.09,-137.481c-3,-5.475 -5.954,-10.976 -8.85,-16.507c-43.6,-83.28 -78.884,-170.836 -98.16,-263.052c-70.739,-338.423 121.92,-658.055 472.418,-692.219c103.04,-10.044 219.007,9.554 309.47,61.19c56.07,32.005 89.794,67.681 107.15,106.859c20.185,45.564 18.112,95.412 5.453,148.092c-13.37,55.641 -38.573,114.265 -64.239,174.445c-77.128,180.841 -155.86,374.604 32.225,545.134c6.815,6.179 17.364,5.663 23.542,-1.152c6.179,-6.815 5.662,-17.363 -1.152,-23.542c-174.942,-158.614 -95.693,-339.158 -23.954,-507.363c26.435,-61.983 52.218,-122.426 65.989,-179.734c14.482,-60.27 15.705,-117.253 -7.388,-169.382c-19.74,-44.559 -57.328,-85.904 -121.101,-122.306c-96.257,-54.943 -219.59,-76.104 -329.229,-65.417c-371.244,36.186 -576.739,373.76 -501.812,732.215c19.905,95.231 56.232,185.69 101.257,271.692c2.993,5.718 6.047,11.406 9.149,17.066c27.885,50.886 62.577,100.304 101.505,143.716c6.141,6.848 16.687,7.423 23.535,1.282c6.849,-6.141 7.423,-16.687 1.282,-23.536Z" style="fill:#7e4021;"/><path d="M684.883,393.777c-21.689,66.22 -22.237,170.627 7.533,234.868c3.868,8.346 13.784,11.982 22.13,8.114c8.346,-3.868 11.982,-13.784 8.114,-22.13c-26.676,-57.564 -25.535,-151.139 -6.099,-210.476c2.863,-8.742 -1.91,-18.163 -10.651,-21.026c-8.742,-2.864 -18.163,1.909 -21.027,10.65Z" style="fill:#7e4021;"/><path d="M2859.68,2390.96c-2.617,0.958 -23.007,8.301 -46.287,13.502c-125.832,28.114 -444.674,66.661 -687.028,32.218c-191.413,-27.203 -336.741,-98.024 -279.649,-266.954c24.033,-71.111 94.975,-131.22 180.027,-184.721c133.086,-83.717 301.175,-150.096 394.456,-209.106c149.263,-94.424 217.305,-252.499 298.656,-407.788c78.236,-149.343 169.531,-295.946 367.341,-373.799c8.56,-3.369 12.774,-13.053 9.405,-21.613c-3.369,-8.559 -13.053,-12.774 -21.612,-9.405c-206.58,81.305 -302.957,233.386 -384.661,389.349c-78.589,150.017 -142.754,303.868 -286.949,395.086c-93.263,58.999 -261.324,125.36 -394.384,209.061c-92.381,58.111 -167.754,125.025 -193.858,202.263c-64.446,190.691 90.469,279.922 306.538,310.629c246.571,35.042 570.965,-4.085 698.986,-32.688c23.664,-5.288 40.942,-10.353 50.349,-14.476c7.776,-3.409 12.143,-7.427 14.083,-10.18c5.299,-7.519 3.496,-17.926 -4.023,-23.225c-6.728,-4.741 -15.77,-3.796 -21.39,1.847Z" style="fill:#7e4021;"/><path d="M1712.5,133.5c23.416,17.508 54.976,57.044 66.691,72.266c37.053,48.145 64.728,102.234 87.797,158.281c59.53,144.63 45.162,319.198 -64.813,440.17c-6.188,6.807 -5.685,17.356 1.121,23.544c6.806,6.187 17.356,5.685 23.544,-1.121c118.782,-130.662 135.27,-319.067 70.972,-475.281c-24.193,-58.778 -53.346,-115.431 -92.205,-165.923c-12.794,-16.624 -47.573,-59.511 -73.146,-78.632c-7.366,-5.509 -17.82,-4 -23.328,3.367c-5.508,7.367 -4,17.82 3.367,23.329Z" style="fill:#7e4021;"/><path d="M1375.36,961.458c62.312,-50.531 194.349,-95.063 269.973,-110.842c191.113,-39.876 373.325,23.65 526.772,137.433c111.86,82.946 227.846,202.489 290.415,334.845c61.09,129.229 70.738,270.868 -28.027,401.34c-5.552,7.334 -4.105,17.796 3.229,23.348c7.334,5.552 17.796,4.105 23.348,-3.229c107.242,-141.67 97.919,-295.385 31.586,-435.705c-64.856,-137.194 -184.748,-261.397 -300.696,-347.374c-161.136,-119.485 -352.746,-185.162 -553.436,-143.288c-79.688,16.627 -218.498,64.335 -284.16,117.582c-7.144,5.793 -8.241,16.298 -2.447,23.442c5.794,7.145 16.298,8.242 23.443,2.448Z" style="fill:#7e4021;"/></g></svg>