<?xml version="1.0" encoding="UTF-8" standalone="no"?><!DOCTYPE svg PUBLIC "-//W3C//DTD SVG 1.1//EN" "http://www.w3.org/Graphics/SVG/1.1/DTD/svg11.dtd"><svg width="100%" height="100%" viewBox="0 0 4640 3370" version="1.1" xmlns="http://www.w3.org/2000/svg" xmlns:xlink="http://www.w3.org/1999/xlink" xml:space="preserve" xmlns:serif="http://www.serif.com/" style="fill-rule:evenodd;clip-rule:evenodd;stroke-linejoin:round;stroke-miterlimit:2;"><g id="Challah-01"><path d="M1083.66,91.924c-11.468,-9.433 -49.081,-20.838 -62.908,-23.6c-26.783,-5.349 -53.676,-9.86 -80.823,-12.904c-83.474,-9.359 -166.91,-9.504 -250.342,1.251c-244.627,31.534 -433.795,153.294 -490.474,398.9c-4.96,21.495 -11.928,89.041 2.008,110.249c2.362,3.593 138.244,-108.844 200.203,-149.733c87.733,-57.897 410.886,-143.954 444.872,-157.549c62.652,-25.06 176.977,-122.314 237.464,-166.614Z" style="fill:#e4a57c;"/><path d="M1093.51,105.371c4.153,-3.042 6.667,-7.832 6.812,-12.978c0.145,-5.146 -2.096,-10.07 -6.072,-13.34c-12.846,-10.568 -54.741,-23.979 -70.232,-27.073c-27.248,-5.442 -54.611,-10.026 -82.23,-13.122c-84.803,-9.509 -169.569,-9.644 -254.33,1.283c-251.983,32.482 -446.2,158.69 -504.583,411.682c-3.693,16.004 -8.449,56.005 -5.876,86.303c1.319,15.528 4.878,28.755 10.196,36.847c2.161,3.288 5.294,5.878 9.88,7.06c1.663,0.428 8.752,1.385 17.708,-4.5c24.295,-15.966 139.953,-110.73 195.723,-147.535c87.112,-57.488 408.136,-142.487 441.882,-155.985c63.55,-25.42 179.768,-123.707 241.122,-168.642Zm-883.074,434.242c-0.497,-4.907 -0.693,-10.324 -0.805,-15.909c-0.496,-24.539 2.926,-52.258 5.724,-64.385c54.974,-238.221 239.094,-355.533 476.365,-386.119c82.102,-10.583 164.21,-10.427 246.354,-1.217c26.674,2.991 53.099,7.429 79.415,12.685c7.23,1.444 21.935,5.349 34.794,10.022l-0,0c-62.289,47.822 -157.337,126.399 -212.274,148.374c-34.228,13.691 -359.509,100.805 -447.863,159.113c-48.429,31.96 -142.028,107.64 -181.71,137.436Z" style="fill:#7e4021;"/><path d="M841.34,262.772c-94.826,-0.637 -190.501,14.986 -286.41,48.301c-482.795,167.708 -631.284,766.291 -482.898,1209.99c54.497,162.957 156.752,326.467 278.919,446.725c167.888,165.265 523.948,282.726 523.948,282.726c0,0 283.039,344.412 475.439,468.961c48.561,31.436 99.725,59.35 151.936,84.213c190.567,90.746 511.754,95.401 511.754,95.401c0,0 196.618,190.176 341.562,230.849c226.553,63.574 591.452,-14.919 591.452,-14.919c0,0 286.391,211.639 562.203,235.168c170.261,14.525 401.236,-19.468 519.41,-156.059c43.454,-50.226 126.81,-159.984 126.81,-159.984c-0,-0 98.218,-31.451 142.121,-50.842c153.133,-67.633 246.928,-217.363 290.524,-374.737c79.662,-287.559 19.6,-606.437 -165.322,-835.461c-100.063,-123.928 -252.308,-231.699 -405.715,-279.915c-118.243,-37.165 -207.881,-41.812 -207.881,-41.812c-0,-0 -61.918,-190.858 -266.925,-335.773c-178.247,-125.999 -361.201,-94.3 -401.477,-118.465c-27.662,-16.598 -45.321,-233.003 -287.04,-403.528c-257.494,-181.653 -614.031,-233.682 -614.031,-233.682c-0,0 -157.192,-199.029 -441.157,-301.147c-257.493,-92.598 -784.549,-36.427 -957.222,203.987Z" style="fill:#e4a57c;"/><path d="M3150.16,983.298c-0.606,-0.943 -2.82,-4.455 -4.21,-7.419c-5.019,-10.694 -10.571,-26.776 -18.06,-46.822c-30.595,-81.898 -91.441,-226.953 -264.531,-349.062c-240.09,-169.376 -565.246,-227.469 -614.792,-235.543c-27.034,-32.176 -182.755,-207.273 -444.363,-301.351c-157.01,-56.463 -412.643,-58.903 -629.932,1.278c-143.082,39.629 -269.355,106.547 -341.337,201.712l-0,-0c-93.883,0.315 -188.567,16.271 -283.472,49.238c-491.454,170.716 -644.282,779.363 -493.235,1231.02c55.301,165.362 159.064,331.284 283.033,453.316c158.743,156.263 483.437,270.635 525.821,285.122c31.178,37.515 294.07,350.778 476.201,468.679c49.167,31.828 100.966,60.097 153.828,85.269c177.012,84.292 465.158,95.569 512.116,96.866c31.274,29.365 209.483,192.676 343.862,230.384c210.616,59.101 539.21,-2.562 592.151,-13.173c43.187,30.653 308.436,212.129 564.591,233.981c174.992,14.928 411.973,-21.374 533.43,-161.76c38.623,-44.642 108.612,-136.064 124.301,-156.636c20.708,-6.723 100.315,-32.869 138.76,-49.849c157.734,-69.666 254.945,-223.431 299.852,-385.533c81.087,-292.704 19.814,-617.259 -168.417,-850.382c-102.02,-126.351 -257.276,-236.184 -413.684,-285.344c-95.716,-30.084 -173.062,-39.222 -200.895,-41.711c-16.476,-42.758 -88.399,-205.718 -269.288,-333.584c-127.896,-90.406 -258.046,-101.947 -338.851,-109.027c-29.587,-2.592 -51.762,-3.57 -62.879,-9.672Zm-2308.93,-703.86c5.407,0.036 10.495,-2.552 13.649,-6.944c67.128,-93.463 189.756,-157.622 328.291,-195.991c210.329,-58.253 457.773,-56.69 609.754,-2.035c279.094,100.366 433.718,295.794 433.718,295.794c2.639,3.342 6.458,5.547 10.672,6.162c0,0 352.375,51.299 606.83,230.808c189.28,133.531 237.945,295.987 263.804,363.873c5.243,13.763 9.857,24.09 14.191,30.391c3.274,4.759 6.761,7.947 10.078,9.937c13.33,7.998 40.639,11.478 77.912,14.743c76.86,6.735 200.869,17.048 322.52,103.041c199.986,141.365 260.691,327.306 260.691,327.306c2.132,6.569 8.094,11.144 14.991,11.501c-0,0 87.845,4.639 203.747,41.068c150.405,47.273 299.64,152.982 397.745,274.485c181.613,224.927 240.464,538.127 162.227,820.542c-42.286,152.644 -132.664,298.339 -281.195,363.94c-43.39,19.164 -140.471,50.215 -140.471,50.215c-3.26,1.044 -6.12,3.067 -8.19,5.793c0,-0 -82.913,109.194 -126.141,159.16c-114.891,132.796 -339.858,164.478 -505.389,150.357c-271.709,-23.179 -553.715,-231.965 -553.715,-231.965c-3.848,-2.844 -8.732,-3.897 -13.41,-2.89c0,-0 -359.954,77.88 -583.444,15.165c-142.08,-39.869 -334.478,-226.781 -334.478,-226.781c-3.048,-2.949 -7.105,-4.624 -11.345,-4.685c-0,-0 -316.864,-4.277 -504.83,-93.785c-51.56,-24.552 -102.089,-52.112 -150.045,-83.156c-190.927,-123.595 -471.619,-465.552 -471.619,-465.552c-2.004,-2.438 -4.658,-4.257 -7.655,-5.245c-0,-0 -351.725,-115.613 -517.479,-278.777c-120.364,-118.483 -221.111,-279.58 -274.804,-440.133c-145.724,-435.746 -1.576,-1024.26 472.561,-1188.96c94.041,-32.667 187.85,-48.003 280.829,-47.379Z" style="fill:#7e4021;"/><path d="M4320.85,2887.53c69.592,-33.57 148.57,-145.149 161.578,-172.695c3.928,-8.318 0.363,-18.26 -7.954,-22.188c-8.318,-3.928 -18.26,-0.364 -22.188,7.954c-11.785,24.957 -82.867,126.491 -145.919,156.907c-8.285,3.996 -11.766,13.967 -7.77,22.252c3.997,8.285 13.968,11.767 22.253,7.77Z" style="fill:#7e4021;"/><path d="M4507.23,2650.39c16.221,-37.961 34.972,-108.558 37.196,-128.065c1.042,-9.139 -5.532,-17.405 -14.671,-18.447c-9.14,-1.042 -17.406,5.532 -18.448,14.671c-2.063,18.096 -19.681,83.526 -34.729,118.743c-3.615,8.458 0.318,18.26 8.777,21.875c8.458,3.614 18.26,-0.319 21.875,-8.777Z" style="fill:#7e4021;"/><path d="M157.627,1498.2c0.291,-2.17 0.155,-4.432 -0.471,-6.672c-2.474,-8.859 -11.675,-14.043 -20.535,-11.569c-4.727,1.32 -10.907,4.82 -12.362,14.167c-0.272,1.75 -0.359,4.716 0.183,8.337c0.958,6.39 4.088,17.509 4.276,18.213c23.206,86.621 68.773,166.93 122.262,238.248c5.519,7.359 15.974,8.853 23.333,3.334c7.359,-5.52 8.853,-15.975 3.333,-23.334c-50.963,-67.95 -94.619,-144.343 -116.73,-226.874c-0.129,-0.482 -2.458,-10.334 -3.289,-13.85Zm-11.256,13.623l-0.784,0.241c0.263,-0.074 0.525,-0.153 0.784,-0.241Zm5.039,-2.712c-1.451,1.145 -3.115,2.063 -4.953,2.683c1.761,-0.588 3.433,-1.456 4.953,-2.683Zm0.163,-0.131l-0.055,0.045l0.017,-0.013l0.038,-0.032Z" style="fill:#7e4021;"/><path d="M322.283,1818.87c0.017,-7.539 -5.126,-14.389 -12.773,-16.225c-8.944,-2.148 -17.95,3.37 -20.098,12.314c-1.352,5.633 -0.101,14.677 6.282,24.674c13.028,20.407 50.523,53.989 57.706,61.594c6.316,6.688 16.873,6.989 23.561,0.673c6.687,-6.316 6.989,-16.873 0.673,-23.56c-5.933,-6.283 -33.989,-31.135 -49.136,-50.171c-2.489,-3.128 -5.239,-7.654 -6.215,-9.299Z" style="fill:#7e4021;"/><path d="M2966.97,3120.66c100.557,-100.669 188.435,-224.133 208.42,-369.121c26.646,-193.318 -43.284,-266.247 -108.576,-335.458c-39.402,-41.767 -77.584,-81.669 -86.043,-151.757c-14.691,-121.727 38.361,-213.438 86.215,-304.126c38.256,-72.5 73.407,-144.406 74.446,-228.203c1.043,-84.005 -31.821,-180.449 -132.29,-301.478c-101.712,-122.526 -245.702,-202.042 -402.115,-228.456c-245.095,-41.39 -400.603,49.499 -538.873,252.891c-271.122,398.819 -316.134,995.459 -59.628,1454.86c4.484,8.032 14.645,10.911 22.677,6.427c8.031,-4.484 10.911,-14.646 6.426,-22.677c-250.335,-448.346 -206.509,-1030.64 58.092,-1419.86c129.912,-191.099 275.475,-277.652 505.755,-238.764c148.57,25.09 285.406,100.498 382.018,216.879c93.463,112.589 125.577,201.626 124.608,279.774c-0.973,78.355 -34.825,145.268 -70.597,213.06c-50.851,96.368 -105.438,194.325 -89.827,323.676c9.467,78.442 50.79,123.892 94.89,170.637c59.96,63.558 124.271,130.502 99.801,308.032c-18.986,137.742 -103.452,254.479 -198.982,350.116c-6.501,6.508 -6.495,17.069 0.013,23.57c6.508,6.501 17.069,6.495 23.57,-0.013Z" style="fill:#7e4021;"/><path d="M2300.17,1261.3c0.95,-45.705 -5.631,-87.934 -23.599,-129.19c-34.479,-79.166 -89.419,-149.433 -151.122,-209.15c-205.566,-198.948 -510.798,-327.569 -793.073,-225.687c-100.413,36.242 -190.859,104.673 -264.31,180.916c-337.093,349.907 -342.342,935.167 -208.041,1377.38c2.673,8.802 11.989,13.777 20.79,11.104c8.802,-2.673 13.777,-11.989 11.104,-20.79c-131.059,-431.536 -128.804,-1003.1 200.152,-1344.56c69.984,-72.645 155.948,-138.158 251.622,-172.69c270.223,-97.532 561.785,27.833 758.574,218.286c58.607,56.721 110.994,123.314 143.744,198.509c16.015,36.772 21.679,74.449 20.833,115.187c-0.191,9.196 7.12,16.818 16.317,17.009c9.196,0.191 16.818,-7.12 17.009,-16.317Z" style="fill:#7e4021;"/><path d="M2250.16,344.766c-26.502,-4.073 -84.665,-3.009 -111.436,-3.236c-69.094,-0.588 -138.321,2.329 -207.021,9.829c-227.547,24.84 -470.741,94.803 -628.514,270.484c-34.208,38.09 -70.759,84.569 -84.107,135.292c-2.341,8.896 2.981,18.018 11.877,20.359c8.895,2.341 18.018,-2.98 20.359,-11.876c12.038,-45.745 45.82,-87.15 76.671,-121.503c152.297,-169.582 387.683,-235.642 607.332,-259.62c67.405,-7.358 135.327,-10.21 203.119,-9.633c25.622,0.218 81.293,-1.047 106.657,2.851c9.092,1.397 17.608,-4.85 19.005,-13.942c1.397,-9.092 -4.85,-17.608 -13.942,-19.005Z" style="fill:#7e4021;"/><path d="M2449.35,1213.64c41.615,-81.642 128.099,-132.144 230.054,-162.554c157.804,-47.068 352.874,-45.444 486.825,-28.256c9.124,1.171 17.482,-5.286 18.653,-14.41c1.17,-9.124 -5.287,-17.482 -14.41,-18.652c-137.746,-17.675 -338.322,-19.025 -500.595,29.375c-111.431,33.236 -204.743,90.131 -250.225,179.36c-4.177,8.195 -0.915,18.24 7.28,22.418c8.196,4.177 18.241,0.915 22.418,-7.281Z" style="fill:#7e4021;"/><path d="M3137.42,1681.45c45.876,-66.276 144.739,-128.246 204.711,-146.663c150.82,-46.316 314.495,-80.462 473.181,-65.916c9.16,0.84 17.279,-5.915 18.119,-15.075c0.839,-9.16 -5.916,-17.279 -15.076,-18.119c-162.968,-14.938 -331.121,19.679 -486.009,67.245c-65.172,20.015 -172.48,87.534 -222.334,159.557c-5.235,7.563 -3.345,17.954 4.218,23.19c7.564,5.235 17.955,3.345 23.19,-4.219Z" style="fill:#7e4021;"/><path d="M4171.97,3041.69c19.754,-42.626 31.438,-79.911 39.739,-126.126c20.676,-115.104 9.838,-233.514 -28.708,-343.923c-118.372,-339.057 -510.906,-521.732 -846.348,-383.651c-56.752,23.361 -110.625,57.044 -157.849,95.877c-22.376,18.4 -46.46,52.979 -72.742,79.19c-20.389,20.334 -41.582,36.895 -66.101,24.89c-8.262,-4.045 -18.253,-0.622 -22.298,7.64c-4.045,8.261 -0.622,18.252 7.64,22.297c31.183,15.268 60.27,5.817 87.139,-15.724c32.248,-25.855 61.036,-70.758 87.533,-92.547c44.697,-36.754 95.652,-68.688 149.366,-90.799c317.967,-130.887 689.984,42.421 802.189,363.814c36.656,104.992 47.032,217.586 27.371,327.043c-7.766,43.238 -18.693,78.123 -37.175,118.003c-3.868,8.346 -0.232,18.262 8.114,22.13c8.346,3.867 18.262,0.232 22.13,-8.114Z" style="fill:#7e4021;"/><path d="M1511.95,478.516c-5.318,-9.679 -19.221,-24.869 -36.986,-41.272c-38.736,-35.767 -95.794,-78.839 -107.747,-84.932c-164.027,-83.616 -355.025,-106.062 -537.579,-106.062c-9.199,0 -16.667,7.468 -16.667,16.667c0,9.198 7.468,16.667 16.667,16.667c177.372,-0 363.07,21.183 522.441,102.425c11.161,5.69 64.103,46.328 100.272,79.725c14.339,13.24 26.091,25.019 30.383,32.832c4.429,8.062 14.57,11.011 22.633,6.583c8.062,-4.429 11.012,-14.571 6.583,-22.633Z" style="fill:#7e4021;"/></g></svg>