<?xml version="1.0" encoding="UTF-8" standalone="no"?><!DOCTYPE svg PUBLIC "-//W3C//DTD SVG 1.1//EN" "http://www.w3.org/Graphics/SVG/1.1/DTD/svg11.dtd"><svg width="100%" height="100%" viewBox="0 0 3277 2879" version="1.1" xmlns="http://www.w3.org/2000/svg" xmlns:xlink="http://www.w3.org/1999/xlink" xml:space="preserve" xmlns:serif="http://www.serif.com/" style="fill-rule:evenodd;clip-rule:evenodd;stroke-linejoin:round;stroke-miterlimit:2;"><g id="Cherry-pie-Slice" serif:id="Cherry pie-Slice"><path d="M1418.17,218.841c-37.402,-63.512 -68.609,-194.285 -251.181,-201.98c-82.75,-3.488 -197.667,52.879 -217.219,149.739c-19.576,96.976 55.997,148.733 54.534,159.761c-2.432,18.351 -43.71,58.365 -59.551,189.434c-10.098,83.548 30.841,158.251 68.043,198.588c112.815,122.32 212.971,55.671 249.753,71.272c23.913,10.142 22.607,118.768 143.137,189.904c101.642,59.99 225.717,7.272 236.674,20.236c19.673,23.279 67.04,136.121 152.915,177.806c114.011,55.341 267.579,28.952 287.741,48.7c50.847,49.803 164.843,216.929 372.48,224.057c202.12,6.937 278.026,-188.905 278.026,-188.905c0,-0 247.278,100.705 268.741,-142.529c8.902,-100.88 -82.881,-197.556 -169.148,-212.208c-73.693,-12.516 -146.349,-5.497 -146.349,-5.497c0,0 33.616,-161.883 -71.428,-242.859c-180.168,-138.889 -349.958,12.981 -360.075,-9.164c-16.476,-36.062 -19.105,-158.872 -150.023,-236.156c-164.374,-97.034 -301.339,13.704 -315.447,-21.514c-53.023,-132.358 -187.266,-206.664 -371.623,-168.685Z" style="fill:#ebccb8;"/><path d="M986.401,328.514c-1.643,3.637 -4.515,8.167 -7.755,14.271c-14.462,27.247 -38.953,76.015 -50.434,171.01c-10.771,89.109 32.659,168.866 72.337,211.887c84.655,91.787 162.648,84.346 215.356,77.338c10.055,-1.337 19.072,-2.682 26.895,-3.107c4.765,-0.259 8.903,-0.386 12.263,0.723c0.515,0.715 1.687,2.397 2.36,3.652c2.686,5.005 5.259,11.632 8.267,19.42c16.25,42.067 42.568,113.7 131.529,166.205c75.114,44.332 161.732,31.278 210.971,23.599c9.098,-1.419 19.706,-2.469 24.525,-2.912c9.921,14.078 25.388,44.48 47.558,76.653c26.559,38.543 62.177,79.23 107.729,101.341c82.04,39.823 183.915,39.019 244.82,41.59c11.955,0.505 22.185,1.14 30.135,2.381c3.539,0.552 7.999,1.924 9.003,2.242c52.542,51.866 170.432,220.912 382.969,228.207c178.765,6.137 264.262,-137.586 287.451,-184.773c17.987,5.787 50.128,14.425 86.131,16.209c38.166,1.891 80.413,-4.026 115.542,-27.642c37.51,-25.216 67.778,-70.648 74.817,-150.419c4.839,-54.842 -17.293,-108.68 -52.756,-150.66c-35.261,-41.741 -83.572,-71.524 -130.204,-79.444c-51.303,-8.713 -102.118,-8.232 -129.668,-7.004c2.645,-23.738 4.737,-64.492 -4.043,-107.767c-9.396,-46.307 -31.158,-95.262 -76.68,-130.354c-132.957,-102.495 -260.492,-55.579 -328.742,-25.74c-10.887,4.76 -22.699,9.548 -30.073,12.477c-3.062,-10.219 -5.994,-23.795 -10.294,-39.427c-15.475,-56.268 -46.028,-136.719 -142.692,-193.782c-120.438,-71.097 -226.753,-36.493 -284.807,-21.458c-7.615,1.973 -14.273,3.575 -19.885,4.369c-1.64,0.231 -3.655,0.31 -5.142,0.329c-55.514,-134.292 -190.832,-211.766 -377.062,-177.746l0,0c-37.214,-69.315 -76.938,-192.294 -259.126,-199.973c-44.328,-1.868 -97.318,12.127 -141.799,39.73c-45.411,28.179 -81.766,70.391 -92.459,123.363c-17.005,84.242 40.93,152.193 52.963,165.212Zm417.413,-101.216c3.617,6.143 10.741,9.305 17.724,7.867c174.72,-35.994 302.537,33.119 352.788,158.559c4.007,10 11.635,15.824 23.624,17.324c9.016,1.128 22.398,-1.167 39.318,-5.549c52.872,-13.693 149.817,-46.857 259.505,17.894c86.62,51.134 113.63,123.495 127.498,173.916c6.595,23.98 10.653,43.465 15.837,54.813c3.03,6.633 8.371,10.982 16.979,11.862c5.573,0.569 15.541,-1.725 28.729,-7.323c51.701,-21.945 182.398,-94.677 319.352,10.898c38.513,29.69 56.414,71.406 64.363,110.583c12.296,60.603 0.922,115.689 0.922,115.689c-1.077,5.186 0.375,10.575 3.912,14.517c3.537,3.943 8.737,5.97 14.009,5.461c0,-0 70.474,-6.802 141.955,5.339c39.636,6.732 80.35,32.613 110.321,68.092c29.771,35.241 49.078,80.18 45.016,126.219c-5.839,66.174 -29.093,104.768 -60.21,125.686c-28.92,19.442 -63.875,23.569 -95.295,22.012c-49.208,-2.438 -90.347,-19.14 -90.347,-19.14c-4.14,-1.686 -8.782,-1.638 -12.886,0.132c-4.104,1.769 -7.326,5.113 -8.941,9.281c0,-0 -71.401,184.81 -261.914,178.271c-201.929,-6.932 -311.94,-170.872 -361.39,-219.307c-3.348,-3.279 -8.451,-6.324 -15.554,-8.397c-9.858,-2.876 -25.394,-4.293 -44.901,-5.116c-57.589,-2.432 -154.095,-0.618 -231.67,-38.274c-40.324,-19.573 -71.326,-56.149 -94.837,-90.268c-25.457,-36.943 -42.624,-71.467 -52.627,-83.302c-2.571,-3.043 -6.392,-5.775 -12.034,-7.118c-4.608,-1.098 -12.038,-1.176 -21.77,0.007c-38.649,4.698 -129.771,28.936 -207.128,-16.72c-79.781,-47.086 -102.805,-111.784 -117.378,-149.51c-4.437,-11.485 -8.316,-20.82 -12.342,-27.233c-4.588,-7.308 -9.889,-11.823 -15.381,-14.152c-12.999,-5.513 -32.725,-3.634 -57.549,-0.334c-45.631,6.067 -113.172,12.568 -186.46,-66.894c-34.725,-37.651 -73.174,-107.302 -63.748,-185.288c10.697,-88.503 33.311,-133.997 46.785,-159.382c7.308,-13.769 11.851,-23.14 12.742,-29.861c0.41,-3.09 0.155,-6.986 -1.852,-11.45c-1.394,-3.1 -4.38,-7.474 -8.752,-12.825c-16.329,-19.989 -58.344,-63.888 -44.115,-134.379c8.859,-43.888 39.738,-78.289 77.361,-101.636c38.554,-23.925 84.397,-36.369 122.819,-34.749c173.639,7.318 201.95,133.381 237.522,193.785Z" style="fill:#7e4021;"/><path d="M1366.07,729.262c-0.142,2.733 -0.642,12.6 -0.584,13.69c1.165,21.899 4.537,43.576 9.788,64.865c16.94,68.685 64.555,109.304 133.801,120.006c9.091,1.405 17.612,-4.835 19.017,-13.926c1.404,-9.09 -4.835,-17.611 -13.926,-19.016c-55.003,-8.501 -93.073,-40.488 -106.529,-95.046c-4.702,-19.066 -7.753,-38.475 -8.831,-58.085c0.11,-2.095 0.756,-14.952 0.293,-17.71c-1.106,-6.591 -4.833,-9.819 -6.84,-11.28c-7.438,-5.412 -17.871,-3.769 -23.283,3.669c-2.8,3.847 -3.712,8.495 -2.906,12.833Z" style="fill:#7e4021;"/><path d="M1605.68,922.962c31.548,2.751 59.072,-14.741 73.539,-24.707c7.575,-5.219 9.488,-15.605 4.27,-23.181c-5.219,-7.575 -15.606,-9.488 -23.181,-4.269c-10.273,7.078 -29.327,20.904 -51.732,18.95c-9.164,-0.799 -17.253,5.992 -18.052,15.155c-0.799,9.164 5.992,17.253 15.156,18.052Z" style="fill:#7e4021;"/><path d="M1294.49,382.45c0.013,-24.785 11.487,-50.212 28.132,-73.058c26.047,-35.749 65.074,-65.307 98.493,-75.59c8.792,-2.705 13.734,-12.039 11.029,-20.831c-2.705,-8.792 -12.04,-13.734 -20.831,-11.028c-39.084,12.025 -85.171,46.012 -115.632,87.82c-21.026,28.859 -34.508,61.362 -34.524,92.67c-0.005,9.198 7.46,16.67 16.658,16.675c9.199,0.004 16.671,-7.46 16.675,-16.658Z" style="fill:#7e4021;"/><path d="M1849.85,525.917c34.991,-58.101 96.716,-48.008 122.446,-40.785c8.857,2.486 18.065,-2.686 20.551,-11.543c2.486,-8.856 -2.686,-18.064 -11.542,-20.55c-33.777,-9.481 -114.077,-20.59 -160.01,55.681c-4.746,7.88 -2.201,18.131 5.679,22.876c7.88,4.746 18.13,2.201 22.876,-5.679Z" style="fill:#7e4021;"/><path d="M2037.53,516.709l28.175,24.955l-0.248,-0.359c5.152,7.034 14.97,8.939 22.415,4.174c7.748,-4.959 10.011,-15.275 5.053,-23.023c-0.684,-1.067 -6.179,-7.067 -13.462,-13.82c-9.899,-9.177 -23.129,-20.134 -28.112,-22.54c-9.206,-4.445 -15.953,-0.862 -19.007,1.479c-7.3,5.596 -8.683,16.067 -3.087,23.367c2.178,2.841 5.093,4.785 8.273,5.767Z" style="fill:#7e4021;"/><path d="M1964.62,1077.19c25.537,-5.635 49.182,-16.271 70.746,-31.389c44.255,-31.026 66.562,-77.058 72.144,-129.779c0.969,-9.148 -5.671,-17.361 -14.819,-18.329c-9.147,-0.969 -17.36,5.672 -18.329,14.819c-4.544,42.923 -22.101,80.735 -58.131,105.995c-18.679,13.096 -39.219,22.186 -61.474,26.704c-10.43,2.117 -12.76,8.078 -12.94,8.387c-2.961,5.108 -2.831,9.938 -1.14,14.34c1.119,2.912 3.698,8.4 11.834,10.272c0.367,0.084 2.961,0.527 6.712,0.273c1.913,-0.13 3.729,-0.578 5.397,-1.293Z" style="fill:#7e4021;"/><path d="M2562.32,989.788c-1.274,0.394 -15.444,4.794 -17.899,5.975c-10.107,4.863 -9.981,13.875 -9.845,16.272c0.523,9.184 8.403,16.216 17.587,15.693c2.508,-0.143 4.856,-0.834 6.931,-1.954c2.459,-0.775 14.524,-4.583 15.603,-5.03c15.322,-6.348 30.198,-14.414 44.473,-22.801c48.241,-28.345 84.736,-65.464 90.131,-123.463c0.852,-9.159 -5.892,-17.287 -15.051,-18.139c-9.16,-0.852 -17.287,5.892 -18.139,15.051c-4.325,46.497 -35.154,75.088 -73.827,97.811c-12.839,7.544 -26.19,14.848 -39.964,20.585Zm3.614,29.121l-0.287,0.508l0.081,-0.132l0.206,-0.376Zm1.925,-6.954c-0.126,2.489 -0.805,4.848 -1.922,6.947c1.331,-2.435 1.84,-4.798 1.922,-6.947Zm0.022,-0.839l-0.012,0.607l0.017,-0.397l-0.005,-0.21Z" style="fill:#7e4021;"/><path d="M1033.68,441.222c-1.003,2.118 -2.331,5.018 -2.727,6.278c-1.744,5.544 -3.178,11.127 -4.287,16.834c-2.426,12.481 -4.144,25.183 -4.931,37.875c-2.844,45.842 6.867,89.404 25.607,131.101c3.771,8.39 13.644,12.14 22.034,8.369c8.39,-3.771 12.141,-13.644 8.37,-22.034c-16.497,-36.706 -25.245,-75.016 -22.742,-115.372c0.698,-11.253 2.232,-22.513 4.383,-33.579c0.85,-4.371 1.945,-8.648 3.274,-12.894c0.569,-1.34 4.073,-9.624 4.23,-10.668c1.4,-9.323 -3.78,-14.062 -7.02,-16.303c-2.008,-1.389 -12.006,-8.191 -22.141,2.707c-2.082,2.239 -3.43,4.899 -4.05,7.686Zm26.874,16.505l-0.022,0.018l0.008,-0.006l0.014,-0.012Zm0.85,-0.753l-0.212,0.196l0.13,-0.113l0.082,-0.083Z" style="fill:#7e4021;"/><path d="M2169.76,1182.4c0.557,1.447 1.197,2.99 1.624,3.662c13.016,20.485 29.726,39.195 45.88,57.191c32.382,36.078 69.884,66.433 111.651,91.053c7.924,4.672 18.15,2.03 22.821,-5.894c4.671,-7.924 2.03,-18.15 -5.894,-22.821c-38.815,-22.88 -73.678,-51.076 -103.772,-84.604c-14.92,-16.621 -30.47,-33.807 -42.502,-52.724c-1.099,-2.271 -2.533,-5.145 -2.93,-5.577c-4.926,-5.363 -10.445,-5.897 -14.845,-5.222c-3.508,0.538 -7.315,2.065 -10.535,6.108c-0.955,1.198 -2.779,3.525 -3.484,7.975c-0.616,3.889 0.17,7.68 1.986,10.853Zm20.346,7.347c-1.705,0.647 -3.53,1.019 -5.415,1.064c1.836,0.008 3.643,-0.337 5.415,-1.064Zm10.425,-12.101c-0.584,2.738 -1.822,5.188 -3.521,7.21c1.313,-1.433 2.801,-3.663 3.521,-7.21Zm-0.891,-9.235c0.727,1.489 1.291,2.684 1.291,2.684c-0,-0 -0.822,-1.857 -1.291,-2.684Z" style="fill:#7e4021;"/><path d="M2417.48,1332.88c-5.081,-2.853 -11.516,-2.953 -16.843,0.294c-7.854,4.789 -10.343,15.053 -5.554,22.907c1.346,2.208 3.454,4.631 6.881,6.565c2.709,1.529 8.417,3.321 16.373,4.099c24.509,2.395 81.236,-0.262 88.228,-0.977c9.15,-0.936 15.82,-9.125 14.884,-18.276c-0.936,-9.151 -9.125,-15.82 -18.276,-14.884c-6.698,0.685 -77.68,0.316 -85.693,0.272Z" style="fill:#7e4021;"/><path d="M2734.38,1186.27c8.774,12.698 28.367,21.001 42.332,26.165c50.642,18.726 100.805,10.253 137.841,-30.075c6.222,-6.775 5.773,-17.327 -1.002,-23.549c-6.775,-6.222 -17.327,-5.773 -23.549,1.002c-27.287,29.713 -64.417,35.155 -101.729,21.358c-5.052,-1.868 -11.261,-4.06 -16.985,-6.97c-3.73,-1.896 -7.416,-3.887 -9.484,-6.88c-5.23,-7.568 -15.619,-9.467 -23.187,-4.237c-7.567,5.229 -9.466,15.618 -4.237,23.186Z" style="fill:#7e4021;"/><path d="M2937.88,1095.27c-1.308,-20.518 -7.224,-39.753 -15.807,-58.357c-3.853,-8.353 -13.763,-12.005 -22.116,-8.152c-8.352,3.854 -12.005,13.763 -8.151,22.116c6.849,14.845 11.764,30.141 12.808,46.514c0.585,9.18 8.514,16.157 17.694,15.572c9.179,-0.585 16.157,-8.513 15.572,-17.693Z" style="fill:#7e4021;"/><path d="M3001.8,1148.66c51.337,581.249 -155.757,1237.93 -236.006,1300.64c-492.14,384.564 -2648.92,456.189 -2527.63,391.113c236.767,-127.035 2194.13,-229.311 2400.66,-505.227c157.253,-210.083 93.627,-1048.8 93.627,-1048.8c0,-0 227.748,46.046 269.348,-137.725Z" style="fill:#d3af98;"/><path d="M3018.4,1147.19c-0.723,-8.177 -7.292,-14.611 -15.482,-15.163c-8.191,-0.551 -15.563,4.943 -17.376,12.95c-18.928,83.618 -80.495,114.636 -137.041,125.065c-58.836,10.851 -112.748,0.002 -112.748,0.002c-5.117,-1.034 -10.423,0.389 -14.336,3.845c-3.913,3.456 -5.981,8.546 -5.586,13.752c0,0 31.081,409.231 -4.002,726.523c-14.702,132.968 -40.414,249.666 -86.349,311.032c-23.505,31.401 -71.346,59.761 -136.983,86.744c-103.054,42.366 -249.045,79.826 -417.829,113.702c-462.631,92.853 -1095.51,158.298 -1490.42,219.707c-172.003,26.747 -299.462,53.277 -349.968,80.376c-8.893,4.771 -12.123,10.91 -13.165,15.193c-1.531,6.291 -0.412,12.705 5.474,18.506c2.179,2.147 5.665,4.563 10.837,6.502c6.231,2.336 16.562,4.547 30.729,6.275c186.336,22.73 1122.59,-15.722 1819.93,-160.056c301.071,-62.315 557.713,-144.804 691.97,-249.714c10.767,-8.414 24.015,-26.074 38.122,-52.32c19.245,-35.807 41.197,-88.515 63.47,-154.198c85.703,-252.745 176.912,-699.333 140.754,-1108.72Zm-2737.67,1693.47c61.551,-20.986 168.85,-41.255 304.64,-62.371c395.293,-61.468 1028.78,-127.019 1491.86,-219.963c171.273,-34.375 319.369,-72.562 423.943,-115.553c72.783,-29.921 124.931,-62.779 150.994,-97.599c48.418,-64.683 77.299,-187.189 92.796,-327.344c30.677,-277.451 11.245,-624.61 5.536,-712.012c23.191,2.561 62.517,4.667 104.05,-2.992c49.621,-9.152 102.13,-31.912 135.575,-82.816l0,-0c20.463,384.434 -64.248,789.878 -144.044,1025.2c-21.533,63.502 -42.657,114.503 -61.263,149.121c-11.129,20.704 -20.792,35.198 -29.285,41.835c-116.76,91.238 -328.507,164.128 -580.957,222.136c-594.592,136.627 -1413.99,188.545 -1767.27,186.675c-54.542,-0.289 -97.64,-1.669 -126.572,-4.319Z" style="fill:#7e4021;"/><path d="M2455.5,1446.36c56.883,1.952 -2241.94,709.05 -2433.79,289.231c-76.355,-167.087 721.25,-1221.59 982.596,-1409.23c15.037,-10.795 -43.71,58.365 -59.551,189.434c-10.098,83.548 30.841,158.251 68.043,198.588c112.815,122.32 212.971,55.671 249.753,71.272c23.913,10.142 22.607,118.768 143.137,189.904c101.642,59.99 225.717,7.272 236.674,20.236c19.673,23.279 67.04,136.121 152.915,177.806c114.011,55.341 267.579,28.952 287.741,48.7c50.847,49.803 164.843,216.929 372.48,224.057Z" style="fill:#d3af98;"/><path d="M2456.07,1429.7c-201.929,-6.932 -311.94,-170.872 -361.39,-219.307c-3.348,-3.279 -8.451,-6.324 -15.554,-8.397c-9.858,-2.876 -25.394,-4.293 -44.901,-5.116c-57.589,-2.432 -154.095,-0.618 -231.67,-38.274c-40.324,-19.573 -71.326,-56.149 -94.837,-90.268c-25.457,-36.943 -42.624,-71.467 -52.627,-83.302c-2.571,-3.043 -6.392,-5.775 -12.034,-7.118c-4.608,-1.098 -12.038,-1.176 -21.77,0.007c-38.649,4.698 -129.771,28.936 -207.128,-16.72c-79.781,-47.086 -102.805,-111.784 -117.378,-149.51c-4.437,-11.485 -8.316,-20.82 -12.342,-27.233c-4.588,-7.308 -9.889,-11.823 -15.381,-14.152c-12.999,-5.513 -32.725,-3.634 -57.549,-0.334c-45.631,6.067 -113.172,12.568 -186.46,-66.894c-34.725,-37.651 -73.174,-107.302 -63.748,-185.288c12.323,-101.958 51.506,-165.337 59.136,-181.257c5.183,-10.813 1.501,-18.24 0.208,-20.228c-1.764,-2.712 -4.094,-4.724 -6.96,-6.08c-2.462,-1.165 -9.791,-4.09 -19.099,2.593c-183.855,132.001 -632.146,690.602 -858.039,1071.65c-68.586,115.695 -116.66,215.325 -131.513,282.097c-7.268,32.678 -6.464,58.479 1.517,75.945c22.4,49.018 70.705,84.693 140.165,107.785c97.875,32.538 239.034,40.662 404.261,31.587c634.197,-34.833 1627.29,-321.107 1860.7,-399.83c32.907,-11.098 51.899,-19.292 55.064,-21.911c4.544,-3.76 5.727,-7.843 6.188,-10.395c0.818,-4.524 -0.102,-8.552 -2.416,-12.146c-1.618,-2.515 -5.435,-7.596 -14.447,-7.905Zm-1494.36,-1047.2c-13.074,32.464 -26.893,76.648 -33.497,131.29c-10.771,89.109 32.659,168.866 72.337,211.887c84.655,91.787 162.648,84.346 215.356,77.338c10.055,-1.337 19.072,-2.682 26.895,-3.107c4.765,-0.259 8.903,-0.386 12.263,0.723c0.515,0.715 1.687,2.397 2.36,3.652c2.686,5.005 5.259,11.632 8.267,19.42c16.25,42.067 42.568,113.7 131.529,166.205c75.114,44.332 161.732,31.278 210.971,23.599c9.098,-1.419 19.706,-2.469 24.525,-2.912c9.921,14.078 25.388,44.48 47.558,76.653c26.559,38.543 62.177,79.23 107.729,101.341c82.04,39.823 183.915,39.019 244.82,41.59c11.955,0.505 22.185,1.14 30.135,2.381c3.539,0.552 7.999,1.924 9.003,2.242c46.709,46.109 145.043,184.79 315.582,220.162c-254.882,84.206 -1218.74,359.602 -1838.39,393.636c-160.161,8.796 -297.043,1.605 -391.917,-29.935c-59.042,-19.629 -101.323,-48.343 -120.363,-90.008c-8.027,-17.565 -3.337,-46.169 8.551,-83.468c20.078,-62.992 62.793,-147.557 119.801,-243.721c204.46,-344.895 592.352,-837.18 796.485,-1018.97Z" style="fill:#7e4021;"/><path d="M2455.5,1446.36c56.917,0.071 -2241.94,709.05 -2433.79,289.231c3.144,100.834 -36.46,533.419 113.552,603.844c132.656,62.277 2324.54,-134.9 2598.49,-501.596c41.677,-55.788 3.527,-429.439 -1.951,-580.818c50.847,49.803 -106.806,172.372 -276.298,189.339Z" style="fill:#eb7e6c;"/><path d="M2717.19,1300.84c-0.875,-15.792 -1.58,-30.312 -2.047,-43.213c-0.247,-6.815 3.683,-13.093 9.921,-15.848c6.238,-2.756 13.525,-1.434 18.397,3.338c16.722,16.379 19.256,38.697 7.531,63.276c6.543,114.51 20.761,289.47 18.415,408.33c-0.726,36.768 -3.062,68.32 -7.547,91.415c-3.511,18.084 -8.694,31.563 -14.758,39.679c-45.117,60.393 -140.305,117.075 -269.734,168.155c-189.409,74.751 -452.931,138.943 -735.393,191.169c-563.705,104.228 -1202.93,160.957 -1476.91,160.33c-72.106,-0.165 -120.094,-5.063 -136.887,-12.946c-48.781,-22.901 -80.575,-80.166 -99.16,-153.419c-40.321,-158.917 -21.75,-393.859 -23.967,-464.993c-0.248,-7.932 5.133,-14.939 12.86,-16.747c7.727,-1.809 15.658,2.082 18.957,9.301c19.039,41.662 61.318,70.353 120.356,89.946c94.874,31.486 231.758,38.59 391.92,29.697c631.228,-35.049 1619.63,-320.696 1851.94,-398.304c18.971,-6.338 35.859,-12.778 42.611,-15.402c2.629,-2.648 6.158,-4.426 10.145,-4.825c113.293,-11.341 221.476,-71.191 259.277,-122.933c1.48,-2.025 2.842,-4.027 4.072,-6.006Zm2.891,48.254c7.054,112.042 18.078,261.628 15.999,366.971c-0.68,34.473 -2.737,64.065 -6.942,85.718c-2.282,11.751 -4.8,20.81 -8.74,26.085c-42.545,56.95 -133.216,108.93 -255.267,157.098c-187.808,74.119 -449.142,137.612 -729.216,189.398c-491.348,90.849 -1040.29,145.526 -1352.68,157.354c-92.857,3.516 -164.62,3.272 -207.421,-1.03c-15.927,-1.601 -27.311,-3.449 -33.463,-6.337c-21.071,-9.892 -37.585,-28.216 -50.969,-51.891c-21.994,-38.908 -35.289,-91.803 -43.483,-149.31c-16.724,-117.374 -11.818,-253.617 -9.925,-335.468c26.064,26.525 62.776,47.307 108.759,62.568c97.876,32.482 239.037,40.516 404.267,31.342c634.184,-35.213 1627.25,-321.999 1860.65,-399.971c26.417,-8.825 43.833,-15.684 51.196,-19.283c105.728,-12.025 205.934,-63.424 257.238,-113.244Zm-265.835,113.891l0.201,0.008l-0.451,-0.034l0.25,0.026Zm-1.151,-0.122l0.455,0.048l-0.521,-0.064l-0.743,-0.129l0.809,0.145Zm-1.072,-0.192l0.205,0.036l-0.493,-0.11l0.288,0.074Z" style="fill:#7e4021;"/><path d="M2589.42,2386.39c-85.267,72.37 -445.449,142.673 -980.141,228.026c-550.658,87.901 -1142.34,136.344 -1379.55,225.5c-155.23,-68.842 -196.466,-584.48 -150.503,-557.958c8.866,5.116 24.084,76.548 165.064,72.205c632.186,-19.474 2311.89,-205.405 2489.46,-516.322c35.999,121.128 0.266,425.823 -144.331,548.549Z" style="fill:#fabea8;"/><path d="M2600.2,2399.09c74.821,-63.505 122.118,-173.762 145.412,-284.14c23.181,-109.844 22.648,-219.489 4.11,-281.864c-1.901,-6.396 -7.435,-11.042 -14.064,-11.808c-6.629,-0.766 -13.076,2.496 -16.385,8.291c-20.149,35.282 -61.176,68.367 -118.07,100.177c-89.327,49.945 -217.062,95.601 -368.396,136.971c-593.406,162.218 -1547.36,257.175 -1989.03,270.78c-58.368,1.798 -93.448,-9.854 -114.967,-24.378c-20.702,-13.973 -28.243,-30.29 -32.756,-37.045c-3.036,-4.544 -6.122,-7.188 -8.498,-8.558c-5.025,-2.9 -9.858,-3.611 -14.309,-3.051c-4.594,0.577 -9.065,2.55 -13.06,6.498c-2.814,2.78 -5.648,6.985 -7.865,12.851c-3.128,8.275 -5.503,21.359 -6.625,38.267c-5.717,86.102 18.124,282.331 76.401,411.577c26.478,58.723 60.6,103.625 100.874,121.486c3.996,1.772 8.529,1.904 12.621,0.366c236.638,-88.944 826.964,-136.951 1376.31,-224.643c375.272,-59.905 664.794,-112.486 834.065,-163.489c75.384,-22.714 127.581,-45.668 154.233,-68.288l-0,-0Zm-2519.88,-86.492c6.563,8.663 15.92,18.755 29.839,28.15c25.26,17.049 66.125,32.177 134.642,30.067c443.393,-13.659 1401.07,-109.093 1996.79,-271.945c154.443,-42.219 284.711,-89.058 375.873,-140.029c46.376,-25.93 82.818,-53.178 107.842,-81.33c9.114,60.191 5.676,145.306 -12.315,230.557c-21.723,102.934 -64.591,206.386 -134.367,265.608l-0,0c-24.509,20.802 -72.955,40.898 -142.28,61.786c-168.38,50.735 -456.406,102.899 -829.703,162.488c-546.794,87.285 -1133.89,136.069 -1376,223.853c-15.213,-8.218 -29.002,-21.518 -41.695,-38.279c-23.343,-30.822 -42.613,-73.066 -58.303,-119.852c-40.055,-119.445 -56.411,-268.342 -51.694,-339.382c0.26,-3.913 0.764,-7.924 1.366,-11.692Z" style="fill:#7e4021;"/><path d="M2984.46,2167.02c6.144,-16.526 -28.318,-51.707 -38.587,-58.912c-50.976,-35.769 -133.748,-39.476 -190.599,-18.712c-228.694,83.528 -210.45,439.374 -16.039,545.946c187.493,102.78 498.273,0.675 519.347,-231.737c12.757,-140.687 -132.282,-288.389 -274.122,-236.585Z" style="fill:#eb7e6c;"/><path d="M2997.83,2145.48c-0.679,-1.612 -1.448,-3.239 -2.308,-4.873c-9.946,-18.885 -31.832,-40.354 -40.077,-46.139c-55.079,-38.647 -144.463,-43.158 -205.89,-20.723c-121.342,44.319 -177.925,160.407 -177.632,280.027c0.29,118.701 56.94,240.078 159.3,296.189c97.892,53.663 227.955,54.252 336.31,10.677c109.548,-44.056 196.522,-132.843 207.646,-255.524c6.836,-75.385 -28.272,-152.788 -84.422,-204.267c-52.22,-47.875 -122.23,-73.235 -192.927,-55.367Zm-29.395,16.972c-1.65,5.766 -0.071,12.022 4.205,16.323c4.584,4.611 11.43,6.135 17.537,3.904c64.798,-23.666 130.181,-1.151 178.054,42.738c48.64,44.593 79.673,111.385 73.751,176.687c-9.95,109.732 -88.901,188.202 -186.886,227.607c-99.177,39.885 -218.249,40.138 -307.85,-8.979c-92.052,-50.461 -141.729,-160.294 -141.99,-267.041c-0.259,-105.829 48.382,-209.426 155.735,-248.635c52.276,-19.093 128.434,-16.191 175.309,16.699c5.32,3.733 18.04,16.276 26.316,28.705c2.691,4.042 5.323,10.704 5.819,11.992Z" style="fill:#7e4021;"/><path d="M2984.76,2162.1c28.768,-91.308 46.555,-205.53 103.903,-283.724c42.399,-57.811 46.205,-56.003 73.101,-56.447c30.011,-0.496 96.451,22.618 30.094,89.312c-78.706,79.106 -150.876,156.876 -207.098,250.859Z" style="fill:#9d5e3e;"/><path d="M2968.86,2157.09c-2.54,8.062 1.357,16.749 9.067,20.212c7.711,3.463 16.793,0.606 21.132,-6.648c55.522,-92.813 126.884,-169.539 204.61,-247.659c33.622,-33.793 37.043,-60.124 30.555,-77.871c-4.42,-12.089 -13.838,-21.595 -25.68,-28.185c-15.029,-8.363 -33.913,-11.894 -47.059,-11.677c-13.698,0.226 -22.6,0.625 -31.916,4.975c-12.233,5.712 -25.999,19.624 -54.349,58.28c-58.373,79.592 -77.078,195.634 -106.36,288.573Zm58.879,-87.851c17.365,-64.676 37.34,-130.532 74.36,-181.008c22.535,-30.727 31.85,-43.251 41.573,-47.791c5.323,-2.486 10.537,-1.72 18.363,-1.849c8.462,-0.14 20.627,2.092 30.301,7.475c4.63,2.577 8.853,5.776 10.581,10.503c1.366,3.738 0.828,8.196 -1.307,13.539c-3.383,8.465 -10.349,18.098 -21.571,29.376c-54.984,55.264 -106.775,109.919 -152.3,169.755l-0,-0Z" style="fill:#7e4021;"/><path d="M3032.91,2237.84c22.184,-2.205 41.597,5.254 60.84,15.707c8.083,4.391 18.21,1.394 22.601,-6.689c4.391,-8.083 1.394,-18.21 -6.689,-22.601c-25.238,-13.71 -50.955,-22.479 -80.049,-19.587c-9.154,0.91 -15.846,9.08 -14.936,18.234c0.91,9.153 9.08,15.846 18.233,14.936Z" style="fill:#7e4021;"/><path d="M3136.34,2284.89c13.12,9.351 20.632,20.492 24.862,29.749c3.823,8.367 13.719,12.056 22.086,8.233c8.367,-3.823 12.055,-13.719 8.233,-22.086c-6.111,-13.373 -16.882,-29.534 -35.836,-43.041c-7.491,-5.339 -17.907,-3.591 -23.245,3.9c-5.339,7.491 -3.591,17.907 3.9,23.245Z" style="fill:#7e4021;"/><path d="M524.041,714.739c-16.526,-6.144 -51.707,28.318 -58.912,38.587c-35.769,50.977 -39.476,133.748 -18.712,190.6c83.527,228.694 439.374,210.449 545.946,16.038c102.78,-187.492 0.674,-498.272 -231.737,-519.346c-140.687,-12.757 -288.39,132.282 -236.585,274.121Z" style="fill:#eb7e6c;"/><path d="M502.497,701.368c-1.612,0.679 -3.239,1.448 -4.873,2.309c-18.885,9.946 -40.354,31.832 -46.139,40.076c-38.647,55.08 -43.158,144.463 -20.723,205.89c44.319,121.343 160.407,177.926 280.027,177.633c118.701,-0.29 240.078,-56.941 296.189,-159.3c53.663,-97.892 54.252,-227.956 10.676,-336.311c-44.055,-109.547 -132.842,-196.522 -255.523,-207.646c-75.385,-6.835 -152.788,28.272 -204.267,84.423c-47.875,52.219 -73.235,122.23 -55.367,192.926Zm16.972,29.396c5.766,1.65 12.022,0.071 16.323,-4.206c4.611,-4.584 6.135,-11.43 3.904,-17.537c-23.666,-64.797 -1.151,-130.181 42.738,-178.053c44.593,-48.64 111.385,-79.673 176.687,-73.752c109.731,9.95 188.202,88.902 227.607,186.887c39.885,99.177 40.138,218.249 -8.979,307.85c-50.462,92.052 -160.294,141.729 -267.041,141.99c-105.829,0.259 -209.427,-48.383 -248.635,-155.735c-19.093,-52.276 -16.191,-128.435 16.699,-175.309c3.733,-5.32 16.275,-18.04 28.705,-26.316c4.042,-2.691 10.704,-5.324 11.992,-5.819Z" style="fill:#7e4021;"/><path d="M519.119,714.443c-91.308,-28.768 -205.53,-46.555 -283.724,-103.903c-57.811,-42.398 -56.003,-46.205 -56.447,-73.1c-0.496,-30.011 22.618,-96.452 89.312,-30.095c79.106,78.706 156.876,150.877 250.859,207.098Z" style="fill:#9d5e3e;"/><path d="M514.111,730.34c8.062,2.54 16.748,-1.357 20.212,-9.068c3.463,-7.71 0.606,-16.792 -6.648,-21.132c-92.813,-55.521 -169.539,-126.884 -247.66,-204.61c-33.792,-33.621 -60.123,-37.042 -77.87,-30.554c-12.089,4.42 -21.595,13.838 -28.185,25.679c-8.363,15.029 -11.894,33.914 -11.677,47.06c0.226,13.697 0.625,22.599 4.975,31.916c5.712,12.232 19.624,25.998 58.28,54.349c79.592,58.373 195.634,77.078 288.573,106.36Zm-87.851,-58.879c-64.676,-17.366 -130.532,-37.341 -181.008,-74.36c-30.727,-22.535 -43.251,-31.85 -47.791,-41.573c-2.486,-5.324 -1.72,-10.537 -1.849,-18.364c-0.14,-8.461 2.092,-20.627 7.475,-30.3c2.577,-4.63 5.776,-8.853 10.503,-10.581c3.738,-1.367 8.196,-0.829 13.538,1.307c8.466,3.383 18.099,10.349 29.377,21.57c55.264,54.985 109.919,106.775 169.754,152.301l0.001,0Z" style="fill:#7e4021;"/><path d="M594.855,666.292c-2.205,-22.183 5.254,-41.596 15.707,-60.839c4.391,-8.083 1.394,-18.211 -6.689,-22.602c-8.083,-4.39 -18.21,-1.393 -22.601,6.69c-13.71,25.238 -22.479,50.954 -19.587,80.049c0.91,9.153 9.08,15.846 18.234,14.936c9.153,-0.91 15.846,-9.08 14.936,-18.234Z" style="fill:#7e4021;"/><path d="M641.912,562.86c9.351,-13.121 20.492,-20.633 29.749,-24.863c8.367,-3.823 12.056,-13.719 8.233,-22.085c-3.823,-8.367 -13.719,-12.056 -22.086,-8.233c-13.373,6.111 -29.534,16.882 -43.041,35.835c-5.339,7.491 -3.591,17.907 3.9,23.246c7.491,5.338 17.906,3.591 23.245,-3.9Z" style="fill:#7e4021;"/><path d="M1070.49,965.786c6.641,-17.693 -30.182,-55.519 -41.165,-63.277c-54.523,-38.51 -143.234,-42.759 -204.242,-20.691c-245.417,88.771 -227.045,470.266 -19.01,585.149c200.631,110.794 534.098,2.382 557.462,-246.672c14.142,-150.76 -140.834,-309.566 -293.045,-254.509Z" style="fill:#eb7e6c;"/><path d="M1084.18,944.155c-0.8,-2.011 -1.735,-4.046 -2.805,-6.094c-10.507,-20.101 -33.691,-42.991 -42.434,-49.165c-58.617,-41.402 -153.937,-46.476 -219.526,-22.751c-129.712,46.919 -190.463,170.718 -190.547,298.444c-0.084,126.808 59.986,256.685 169.149,316.967c104.454,57.683 243.473,58.717 359.434,12.5c117.155,-46.693 210.39,-141.204 222.678,-272.204c7.545,-80.42 -29.685,-163.124 -89.432,-218.243c-55.766,-51.446 -130.737,-78.765 -206.517,-59.454Zm-29.605,16.71c-1.815,5.843 -0.277,12.246 4.061,16.636c4.569,4.624 11.411,6.17 17.524,3.958c69.977,-25.312 140.442,-0.854 191.935,46.65c52.258,48.21 85.445,120.29 78.847,190.63c-11.075,118.054 -96.254,202.274 -201.832,244.353c-106.772,42.554 -234.802,42.397 -330.979,-10.715c-98.873,-54.601 -152.006,-172.912 -151.93,-287.766c0.075,-113.935 52.846,-225.268 168.552,-267.12c56.428,-20.411 138.528,-16.987 188.958,18.632c5.751,4.062 19.498,17.682 28.421,31.174c2.111,3.192 3.944,6.364 5.212,9.394c0.562,1.345 1.08,3.513 1.231,4.174Z" style="fill:#7e4021;"/><path d="M1070.83,960.512c31.14,-97.778 50.587,-220.154 112.319,-303.78c45.64,-61.826 49.714,-59.876 78.545,-60.263c32.17,-0.431 103.311,24.567 31.961,95.835c-84.629,84.532 -162.248,167.654 -222.825,268.208Z" style="fill:#9d5e3e;"/><path d="M1054.94,955.454c-2.565,8.054 1.305,16.752 9.005,20.24c7.7,3.487 16.79,0.658 21.152,-6.582c59.874,-99.386 136.681,-181.466 220.327,-265.016c35.64,-35.599 39.529,-63.337 32.731,-82.112c-4.601,-12.708 -14.479,-22.702 -26.891,-29.66c-15.889,-8.906 -35.879,-12.707 -49.803,-12.52c-14.471,0.194 -23.882,0.55 -33.739,5.116c-13.041,6.04 -27.684,20.857 -57.991,61.914c-62.761,85.02 -83.131,209.213 -114.791,308.62Zm59.526,-88.764c19.261,-71.278 41.022,-144.437 82.083,-200.06c24.467,-33.144 34.655,-46.588 45.182,-51.464c5.858,-2.713 11.577,-1.916 20.177,-2.031c9.239,-0.124 22.514,2.356 33.057,8.266c5.213,2.922 9.915,6.594 11.848,11.931c1.537,4.246 0.98,9.309 -1.461,15.364c-3.7,9.174 -11.271,19.617 -23.485,31.816c-60.572,60.503 -117.549,120.33 -167.4,186.177l-0.001,0.001Z" style="fill:#7e4021;"/><path d="M1122.07,1040.66c24.035,-2.314 45.046,5.794 65.853,17.181c8.069,4.416 18.205,1.451 22.621,-6.619c4.416,-8.069 1.45,-18.205 -6.619,-22.621c-26.792,-14.663 -54.102,-24.1 -85.049,-21.12c-9.157,0.881 -15.875,9.03 -14.993,18.187c0.882,9.156 9.031,15.874 18.187,14.992Z" style="fill:#7e4021;"/><path d="M1233.6,1091.66c14.242,10.216 22.373,22.364 26.944,32.45c3.797,8.378 13.682,12.098 22.06,8.301c8.378,-3.797 12.098,-13.681 8.301,-22.06c-6.438,-14.207 -17.814,-31.385 -37.876,-45.776c-7.474,-5.362 -17.895,-3.647 -23.257,3.827c-5.362,7.475 -3.647,17.896 3.828,23.258Z" style="fill:#7e4021;"/><path d="M2465.83,1572.3c3.761,-14.036 18.21,-22.378 32.245,-18.617c14.036,3.761 22.378,18.21 18.617,32.245c-3.761,14.036 -18.209,22.378 -32.245,18.617c-14.036,-3.761 -22.378,-18.209 -18.617,-32.245Z" style="fill:#7e4021;"/><path d="M2326.16,2388.18c3.761,-14.035 18.21,-22.377 32.245,-18.616c14.036,3.76 22.378,18.209 18.617,32.245c-3.761,14.035 -18.209,22.377 -32.245,18.616c-14.036,-3.76 -22.378,-18.209 -18.617,-32.245Z" style="fill:#7e4021;"/><path d="M2512.87,1480.38c3.76,-14.035 18.209,-22.377 32.245,-18.616c14.035,3.761 22.377,18.209 18.617,32.245c-3.761,14.036 -18.21,22.377 -32.246,18.617c-14.035,-3.761 -22.377,-18.21 -18.616,-32.246Z" style="fill:#7e4021;"/><path d="M2623.58,1449.96c3.76,-14.036 18.209,-22.378 32.245,-18.617c14.035,3.761 22.377,18.209 18.616,32.245c-3.76,14.036 -18.209,22.378 -32.245,18.617c-14.035,-3.761 -22.377,-18.21 -18.616,-32.245Z" style="fill:#7e4021;"/><path d="M2632.57,1534.95c3.76,-14.035 18.209,-22.377 32.245,-18.616c14.036,3.761 22.377,18.209 18.617,32.245c-3.761,14.036 -18.21,22.377 -32.246,18.617c-14.035,-3.761 -22.377,-18.21 -18.616,-32.246Z" style="fill:#7e4021;"/><path d="M2444.42,2333.12c3.761,-14.035 18.21,-22.377 32.245,-18.616c14.036,3.761 22.378,18.209 18.617,32.245c-3.761,14.036 -18.209,22.377 -32.245,18.617c-14.036,-3.761 -22.378,-18.21 -18.617,-32.246Z" style="fill:#7e4021;"/><path d="M2670.22,1619.39c3.761,-14.036 18.209,-22.378 32.245,-18.617c14.036,3.761 22.378,18.209 18.617,32.245c-3.761,14.036 -18.209,22.378 -32.245,18.617c-14.036,-3.761 -22.378,-18.21 -18.617,-32.245Z" style="fill:#7e4021;"/><path d="M2518.42,2174.69c3.761,-14.036 18.209,-22.378 32.245,-18.617c14.036,3.761 22.378,18.21 18.617,32.245c-3.761,14.036 -18.21,22.378 -32.245,18.617c-14.036,-3.761 -22.378,-18.209 -18.617,-32.245Z" style="fill:#7e4021;"/><path d="M2575.52,1605.54c3.761,-14.036 18.209,-22.378 32.245,-18.617c14.036,3.761 22.378,18.209 18.617,32.245c-3.761,14.036 -18.21,22.378 -32.245,18.617c-14.036,-3.761 -22.378,-18.21 -18.617,-32.245Z" style="fill:#7e4021;"/><path d="M2375.11,1537.9c3.761,-14.035 18.209,-22.377 32.245,-18.616c14.036,3.76 22.378,18.209 18.617,32.245c-3.761,14.035 -18.21,22.377 -32.245,18.617c-14.036,-3.761 -22.378,-18.21 -18.617,-32.246Z" style="fill:#7e4021;"/><path d="M2537.68,2286.81c3.761,-14.036 18.21,-22.378 32.246,-18.617c14.035,3.761 22.377,18.21 18.616,32.246c-3.761,14.035 -18.209,22.377 -32.245,18.616c-14.036,-3.761 -22.378,-18.209 -18.617,-32.245Z" style="fill:#7e4021;"/><path d="M2635.21,1708.76c3.761,-14.036 18.209,-22.378 32.245,-18.617c14.036,3.761 22.377,18.21 18.617,32.245c-3.761,14.036 -18.21,22.378 -32.246,18.617c-14.035,-3.761 -22.377,-18.209 -18.616,-32.245Z" style="fill:#7e4021;"/><path d="M2647.02,1992.89c3.761,-14.036 18.209,-22.378 32.245,-18.617c14.036,3.761 22.378,18.209 18.617,32.245c-3.761,14.036 -18.21,22.378 -32.245,18.617c-14.036,-3.761 -22.378,-18.21 -18.617,-32.245Z" style="fill:#7e4021;"/><path d="M2631.47,1828.27c3.761,-14.035 18.209,-22.377 32.245,-18.616c14.036,3.76 22.378,18.209 18.617,32.245c-3.761,14.035 -18.21,22.377 -32.245,18.616c-14.036,-3.76 -22.378,-18.209 -18.617,-32.245Z" style="fill:#7e4021;"/><path d="M2620.99,2127.42c3.761,-14.036 18.21,-22.377 32.246,-18.617c14.035,3.761 22.377,18.21 18.616,32.246c-3.76,14.035 -18.209,22.377 -32.245,18.616c-14.035,-3.761 -22.377,-18.209 -18.617,-32.245Z" style="fill:#7e4021;"/><path d="M2548.64,1766.18c3.761,-14.036 18.209,-22.378 32.245,-18.617c14.036,3.761 22.378,18.209 18.617,32.245c-3.761,14.036 -18.21,22.378 -32.245,18.617c-14.036,-3.761 -22.378,-18.21 -18.617,-32.245Z" style="fill:#7e4021;"/><path d="M2560.45,2050.31c3.761,-14.036 18.21,-22.378 32.245,-18.617c14.036,3.761 22.378,18.21 18.617,32.245c-3.761,14.036 -18.209,22.378 -32.245,18.617c-14.036,-3.761 -22.378,-18.209 -18.617,-32.245Z" style="fill:#7e4021;"/><path d="M2513.07,1879.21c3.761,-14.036 18.21,-22.378 32.246,-18.617c14.035,3.761 22.377,18.21 18.616,32.245c-3.761,14.036 -18.209,22.378 -32.245,18.617c-14.036,-3.761 -22.377,-18.209 -18.617,-32.245Z" style="fill:#7e4021;"/><path d="M2464.44,2064.95c3.761,-14.035 18.209,-22.377 32.245,-18.616c14.036,3.761 22.378,18.209 18.617,32.245c-3.761,14.036 -18.209,22.378 -32.245,18.617c-14.036,-3.761 -22.378,-18.21 -18.617,-32.246Z" style="fill:#7e4021;"/><path d="M2414.66,2248.09c1.339,-14.469 14.172,-25.129 28.641,-23.791c14.47,1.339 25.13,14.173 23.791,28.642c-1.338,14.469 -14.172,25.129 -28.641,23.79c-14.469,-1.338 -25.13,-14.172 -23.791,-28.641Z" style="fill:#7e4021;"/><path d="M2503.7,1664.61c1.339,-14.469 14.173,-25.13 28.642,-23.791c14.469,1.339 25.129,14.172 23.79,28.641c-1.338,14.469 -14.172,25.13 -28.641,23.791c-14.469,-1.338 -25.129,-14.172 -23.791,-28.641Z" style="fill:#7e4021;"/><path d="M131.919,2111.88c0.749,-2.006 1.12,-4.191 1.031,-6.463c-0.362,-9.191 -8.117,-16.36 -17.309,-15.999c-7.399,0.291 -17.803,5.455 -17.575,20.868c0.161,10.898 8.64,38.105 9.286,40.175c16.902,54.17 51.293,100.365 104.472,123.41c21.364,9.257 43.937,15.137 66.927,18.422c9.106,1.3 17.555,-5.036 18.856,-14.143c1.301,-9.106 -5.036,-17.555 -14.142,-18.856c-20.051,-2.864 -39.754,-7.934 -58.387,-16.009c-44.049,-19.087 -71.905,-57.883 -85.906,-102.753c-0.415,-1.332 -5.579,-21.95 -7.253,-28.652Zm-10.842,10.161c-1.312,0.392 -2.695,0.628 -4.127,0.685c1.459,-0.058 2.834,-0.285 4.127,-0.685Zm0.611,-0.199l-0.147,0.048l0.144,-0.047l0.003,-0.001Z" style="fill:#7e4021;"/><path d="M375.924,2297.2c22.952,-5.152 47.057,-4.956 70.46,-6.612c9.176,-0.649 16.098,-8.625 15.449,-17.801c-0.649,-9.176 -8.625,-16.098 -17.801,-15.449c-25.055,1.773 -50.837,1.822 -75.409,7.338c-8.975,2.014 -14.626,10.937 -12.612,19.912c2.015,8.975 10.938,14.626 19.913,12.612Z" style="fill:#7e4021;"/><path d="M175.619,2440.88c1.134,-7.496 -2.998,-15.059 -10.345,-17.968c-5.318,-2.105 -9.546,-1.289 -12.788,0.032c-3.178,1.294 -5.884,3.426 -7.907,6.588c-0.974,1.523 -1.841,3.4 -2.336,5.68c-0.45,2.075 -0.065,7.034 0.254,9.47c6.307,48.265 19.316,97.152 32.858,143.797c2.565,8.833 11.819,13.923 20.653,11.359c8.834,-2.565 13.924,-11.819 11.359,-20.653c-13.027,-44.871 -25.635,-91.87 -31.748,-138.305Zm-20.993,13.574l0.807,0.206c0.273,0.055 0.545,0.111 0.817,0.166l0.769,0.116c-0.765,-0.094 -1.563,-0.251 -2.393,-0.488Zm-0.238,-0.066l0.226,0.062l-0.741,-0.23l0.515,0.168Zm-0.601,-0.196l-0.783,-0.287c0.264,0.105 0.525,0.201 0.783,0.287Z" style="fill:#7e4021;"/><path d="M236.823,2672.29c-0.207,-0.948 -0.505,-1.89 -0.893,-2.816c-3.556,-8.484 -13.331,-12.484 -21.814,-8.928c-1.73,0.725 -13.865,7.579 -9.127,21.797c2.223,6.67 16.649,38.829 18.168,42.098c3.876,8.342 13.796,11.967 22.138,8.091c8.342,-3.876 11.967,-13.796 8.091,-22.138c-1.298,-2.793 -14.717,-33.834 -16.563,-38.104Zm-1.775,11.851c-1.753,3.102 -4.51,5.665 -8.046,7.147c3.121,-1.309 6.018,-3.483 8.046,-7.147Z" style="fill:#7e4021;"/><path d="M123.607,1681.77l0.158,-0.784c6.407,-40.073 22.936,-79.596 38.459,-116.788c3.544,-8.489 -0.472,-18.257 -8.961,-21.801c-8.488,-3.543 -18.257,0.473 -21.8,8.961c-16.517,39.573 -33.796,81.727 -40.614,124.365c0.023,-0.141 0.101,-0.557 0.101,-0.557c0,0 -1.233,8.078 -0.658,11.201c1.092,5.927 4.448,9.736 8.114,11.981c7.844,4.806 18.113,2.339 22.919,-5.505c2.111,-3.446 2.818,-7.359 2.282,-11.073Z" style="fill:#7e4021;"/><path d="M203.455,1488.35c0.871,-4.616 3.836,-9.229 6.845,-13.837c4.441,-6.799 9.388,-13.382 12.804,-19.263c4.619,-7.954 1.912,-18.163 -6.042,-22.782c-7.955,-4.62 -18.163,-1.913 -22.783,6.042c-7.405,12.75 -20.796,28.897 -23.58,43.665c-1.704,9.04 4.252,17.762 13.291,19.466c9.039,1.704 17.762,-4.252 19.465,-13.291Z" style="fill:#7e4021;"/></g></svg>