<?xml version="1.0" encoding="UTF-8" standalone="no"?><!DOCTYPE svg PUBLIC "-//W3C//DTD SVG 1.1//EN" "http://www.w3.org/Graphics/SVG/1.1/DTD/svg11.dtd"><svg width="100%" height="100%" viewBox="0 0 2554 1768" version="1.1" xmlns="http://www.w3.org/2000/svg" xmlns:xlink="http://www.w3.org/1999/xlink" xml:space="preserve" xmlns:serif="http://www.serif.com/" style="fill-rule:evenodd;clip-rule:evenodd;stroke-linejoin:round;stroke-miterlimit:2;"><g id="Cookie-Pink"><path d="M1859.73,645.069c-976.625,-159.932 -1746.96,96.756 -1770.48,514c-4.131,73.272 15.895,257.034 60.669,330.926c279.196,460.767 2571.85,322.669 2338.44,-512.44c-67.388,-241.101 -388.244,-293.121 -628.628,-332.486Z" style="fill:#facad0;"/><path d="M1862.43,628.621c-590.002,-96.619 -1105.18,-41.63 -1428.08,108.09c-220.558,102.267 -352.025,249.243 -361.731,421.42c-4.251,75.417 16.972,264.446 63.056,340.501c51.895,85.644 170.438,152.454 329.724,197.434c362.268,102.3 936.949,95.348 1385.52,-28.6c215.176,-59.456 401.362,-145.959 522.105,-259.563c123.788,-116.47 179.919,-261.219 131.393,-434.835c-28.216,-100.949 -98.491,-170.569 -189.237,-220.003c-131.601,-71.689 -306.787,-100.541 -452.75,-124.444l-0,0Zm-5.387,32.895c119.053,19.496 258.066,41.986 375.626,89.593c113.677,46.035 207.372,115.468 239.645,230.932c44.84,160.428 -7.747,293.962 -122.132,401.585c-117.43,110.487 -298.869,193.886 -508.141,251.711c-442.766,122.344 -1010,129.627 -1367.58,28.651c-149.222,-42.139 -261.659,-102.397 -310.275,-182.63c-43.463,-71.729 -62.293,-250.224 -58.283,-321.351c9.111,-161.62 135.437,-297.058 342.472,-393.055c318.488,-147.676 826.724,-200.735 1408.67,-105.436l0,0Z" style="fill:#7e4021;"/><path d="M1862.19,510.43c-1148.13,-188.018 -2009.54,350.26 -1709.81,844.926c279.196,460.767 2651.34,254.525 2304.52,-480.131c-106.872,-226.382 -354.326,-325.43 -594.71,-364.795Z" style="fill:#f6a7bc;"/><path d="M1864.89,493.982c-694.834,-113.786 -1285.34,37.364 -1581.44,283.294c-202.995,168.599 -269.668,381.485 -145.31,586.717c51.931,85.703 173.169,150.42 336.246,192.295c370.486,95.134 958.709,76.529 1405.97,-45.909c214.753,-58.789 397.064,-141.712 508.31,-246.761c115.236,-108.817 156.209,-241.101 83.316,-395.508c-109.237,-231.39 -361.387,-333.892 -607.089,-374.128l-0,0Zm-5.387,32.895c235.069,38.495 477.824,134.087 582.333,355.463c65.835,139.457 28.02,258.761 -76.059,357.043c-108.07,102.05 -285.601,181.734 -494.225,238.845c-441.831,120.951 -1022.89,139.753 -1388.88,45.774c-152.556,-39.173 -267.448,-97.109 -316.029,-177.283c-115.432,-190.502 -50.326,-387.302 138.1,-543.801c291.027,-241.714 871.838,-387.876 1554.76,-276.041l0,0Z" style="fill:#7e4021;"/><path d="M122.871,1013.49c-3.067,-9.09 -81.14,4.377 -102.304,92.305c-15.242,63.32 18.351,124.257 59.408,153.117c106.81,75.081 274.739,199.637 776.582,252.286c408.548,42.86 1406,-77.382 1650.4,-460.213c28.454,-44.571 41.725,-110.452 16.191,-161.088c-62.784,-124.503 -272.07,45.322 -345.777,79.172c-71.579,32.873 -146.946,60.137 -222.834,81.093c-200.652,55.408 -417.719,75.869 -624.73,90.286c-317.304,22.098 -895.758,-39.44 -1206.93,-126.958Z" style="fill:#fff;"/><path d="M131.269,998.53c-0.587,-0.393 -1.211,-0.769 -1.876,-1.124c-3.386,-1.809 -9.392,-3.461 -17.509,-2.874c-25.527,1.845 -88.083,26.602 -107.521,107.36c-16.981,70.545 20.285,138.499 66.027,170.652c107.906,75.851 277.441,202.038 784.428,255.226c246.6,25.871 706.491,-7.21 1088.05,-121.096c257.262,-76.788 478.674,-190.92 578.14,-346.724c31.35,-49.106 45.157,-121.772 17.024,-177.56c-29.17,-57.846 -84.803,-63.636 -147.458,-44.071c-81.605,25.484 -175.552,95.117 -220.156,115.601c-70.769,32.502 -145.284,59.455 -220.314,80.174c-199.595,55.116 -415.531,75.384 -621.452,89.725c-314.498,21.902 -886.755,-38.76 -1197.38,-125.289Zm-16.818,29.335c1.212,0.715 2.523,1.276 3.908,1.666c312.638,87.929 893.81,149.742 1212.6,127.54c208.102,-14.492 426.301,-35.147 628.01,-90.847c76.746,-21.192 152.964,-48.767 225.353,-82.012c43.845,-20.136 135.963,-89.025 216.18,-114.075c45.252,-14.13 86.692,-14.517 107.759,27.262c22.937,45.484 10.202,104.578 -15.357,144.615c-96.055,150.461 -311.137,258.565 -559.578,332.719c-377,112.527 -831.376,145.448 -1075.03,119.886c-496.699,-52.109 -663.021,-175.034 -768.737,-249.345c-36.371,-25.567 -66.291,-79.488 -52.789,-135.582c11.543,-47.955 42.166,-70.714 64.261,-78.735c4.993,-1.813 10.775,-2.737 13.42,-3.092Z" style="fill:#7e4021;"/><path d="M1843.04,181.675c-979.383,-142.064 -1744.9,128.655 -1760.79,546.258c-2.791,73.336 20.589,256.701 66.705,329.763c287.567,455.589 2577.32,275.632 2328.68,-555.074c-71.782,-239.83 -393.534,-285.979 -634.597,-320.947Z" style="fill:#f6a7bc;"/><path d="M1845.43,165.181c-591.669,-85.824 -1105.76,-21.433 -1425.87,134.161c-218.653,106.279 -347.413,255.632 -353.972,427.958c-2.873,75.482 21.8,264.091 69.266,339.292c53.451,84.682 173.195,149.315 333.276,191.378c364.076,95.665 938.534,78.215 1384.77,-53.907c214.054,-63.377 398.629,-153.267 517.276,-269.058c121.64,-118.712 175.117,-264.461 123.427,-437.162c-30.055,-100.417 -101.59,-168.742 -193.224,-216.509c-132.889,-69.273 -308.573,-94.921 -454.948,-116.153Zm-4.785,32.988c119.389,17.318 258.789,37.264 377.2,82.716c114.499,43.951 209.447,111.661 243.824,226.516c47.763,159.581 -2.376,294.054 -114.776,403.748c-115.391,112.615 -295.277,199.314 -503.457,260.953c-440.458,130.411 -1007.47,148.056 -1366.83,53.629c-149.967,-39.406 -263.485,-97.6 -313.559,-176.931c-44.767,-70.923 -66.854,-249.044 -64.144,-320.233c6.156,-161.759 129.988,-299.483 335.234,-399.246c315.737,-153.469 822.919,-215.804 1406.51,-131.152l0,0Z" style="fill:#7e4021;"/><path d="M1843.04,47.014c-1151.37,-167.012 -2002.81,386.913 -1694.09,876.02c287.567,455.59 2655.55,206.048 2295.36,-522.15c-110.99,-224.392 -360.212,-318.903 -601.275,-353.87Z" style="fill:#facad0;"/><path d="M1845.43,30.52c-696.796,-101.074 -1284.44,60.838 -1576.01,312.137c-199.882,172.279 -262.654,386.347 -134.568,589.273c53.488,84.741 175.888,147.231 339.703,186.121c372.162,88.35 959.947,59.002 1404.9,-71.587c213.644,-62.702 394.41,-148.942 503.717,-256.005c113.229,-110.904 151.779,-243.915 76.077,-396.964c-113.445,-229.356 -367.426,-327.234 -613.822,-362.975l-0,-0Zm-4.785,32.988c235.733,34.194 480.193,125.335 588.729,344.765c68.372,138.231 32.743,258.206 -69.523,358.372c-106.188,104.008 -282.233,186.922 -489.78,247.835c-439.547,129.002 -1020.17,158.416 -1387.81,71.139c-153.246,-36.381 -269.177,-92.207 -319.214,-171.481c-118.894,-188.362 -57.394,-386.318 128.142,-546.232c286.562,-246.991 864.607,-403.739 1549.46,-304.398l0,-0Z" style="fill:#7e4021;"/><path d="M2402.41,526.008c0.238,1.847 1.564,12.88 0.744,21.351c-3.503,36.158 -20.811,89.435 -27.861,100.617c-4.905,7.781 -2.571,18.081 5.211,22.987c7.781,4.905 18.081,2.571 22.987,-5.211c8.087,-12.828 28.822,-73.698 32.841,-115.179c1.173,-12.108 0.892,-22.747 -0.934,-30.621c-2,-8.624 -5.971,-14.853 -10.832,-18.796c-7.144,-5.796 -17.648,-4.701 -23.443,2.443c-5.466,6.737 -4.803,16.465 1.287,22.409Z" style="fill:#7e4021;"/><path d="M2339.57,700.488l-24.25,21.73c-6.875,6.111 -7.495,16.654 -1.384,23.53c6.112,6.875 16.655,7.495 23.53,1.384c3.461,-3.077 22.69,-18.077 29.559,-27.449c5.326,-7.266 5.929,-14.257 4.994,-18.607c-1.933,-8.993 -10.804,-14.724 -19.798,-12.791c-6.396,1.375 -11.143,6.261 -12.651,12.203Z" style="fill:#7e4021;"/><path d="M425.763,541.246c1.042,-0.744 2.013,-1.625 2.888,-2.636c6.016,-6.958 5.252,-17.492 -1.705,-23.509c-3.583,-3.098 -11.831,-7.89 -21.655,-0.435c-3.706,2.813 -17.204,21.355 -17.956,22.566c-15.299,24.625 -25.332,53.543 -27.907,82.421c-1.201,13.459 -0.653,26.969 1.838,40.254c3.406,18.166 10.489,35.659 18.123,52.405c3.816,8.37 13.709,12.067 22.079,8.252c8.37,-3.816 12.067,-13.709 8.251,-22.079c-6.525,-14.313 -12.779,-29.194 -15.691,-44.721c-1.927,-10.28 -2.328,-20.736 -1.399,-31.151c2.119,-23.758 10.432,-47.53 23.02,-67.79c0.383,-0.616 7.908,-10.643 10.114,-13.577Zm-9.427,3.121c-3.962,0.073 -7.963,-1.259 -11.194,-4.052c2.902,2.509 6.562,4.273 11.194,4.052Z" style="fill:#7e4021;"/><path d="M416.919,792.606c1.969,0.586 3.793,2.761 5.871,4.634c4.444,4.004 8.735,8.325 12.2,11.005c7.277,5.627 17.753,4.287 23.38,-2.99c5.627,-7.277 4.287,-17.753 -2.989,-23.38c-3.699,-2.86 -8.388,-7.901 -13.185,-11.936c-5.275,-4.437 -10.822,-7.809 -15.764,-9.28c-8.816,-2.626 -18.105,2.401 -20.73,11.217c-2.625,8.816 2.401,18.105 11.217,20.73Z" style="fill:#7e4021;"/><path d="M2438.99,936.499c-0.066,2.555 -0.27,9.919 -0.401,11.127c-6.738,62.064 -51.285,106.509 -97.797,143.138c-7.227,5.691 -8.474,16.178 -2.783,23.405c5.691,7.227 16.179,8.474 23.406,2.783c53.415,-42.065 102.575,-94.454 110.312,-165.729c0.265,-2.436 1.061,-14.446 0.334,-19.957c-0.986,-7.477 -5.03,-11.657 -7.343,-13.364c-7.401,-5.462 -17.845,-3.887 -23.306,3.514c-3.324,4.504 -4.042,10.134 -2.422,15.083Z" style="fill:#7e4021;"/><path d="M2284.94,1136.12c-3.171,1.178 -7.149,2.746 -8.923,3.772c-15.629,9.04 -31.616,17.507 -47.498,26.092c-8.092,4.374 -11.111,14.495 -6.737,22.587c4.374,8.093 14.495,11.111 22.587,6.737c16.165,-8.738 32.432,-17.361 48.338,-26.562c3.153,-1.824 9.847,-3.358 13.204,-5.29c3.909,-2.247 6.42,-5.079 7.889,-7.604c1.867,-3.21 2.626,-6.568 2.465,-10.001c-0.176,-3.778 -1.373,-8.135 -5.552,-12.345c-6.48,-6.528 -17.042,-6.567 -23.57,-0.087c-0.843,0.838 -1.578,1.743 -2.203,2.701Zm1.258,19.944l0.163,0.176l-0.392,-0.46l0.229,0.284Zm-2.013,-2.963c0.429,0.849 0.978,1.7 1.674,2.542c-0.644,-0.805 -1.202,-1.655 -1.674,-2.542Z" style="fill:#7e4021;"/><path d="M1744.95,141.235c-579.4,-76.653 -1068.04,46.363 -1310.47,236.945c-168.263,132.272 -220.331,296.881 -112.507,452.683c51.893,74.983 181.822,127.43 353.125,155.314c389.135,63.343 993.295,6.024 1339.25,-151.235c221.23,-100.565 336.902,-242.958 242.483,-417.059c-94.633,-174.497 -306.339,-249.456 -511.877,-276.648l-0,0Zm-4.372,33.046c194.913,25.786 397.206,94.017 486.948,259.493c85.092,156.903 -27.599,280.192 -226.976,370.822c-340.996,155.006 -936.542,211.115 -1320.1,148.681c-97.354,-15.847 -180.921,-39.283 -242.776,-70.966c-39.262,-20.11 -69.575,-43.369 -88.294,-70.417c-97.316,-140.617 -46.166,-288.128 105.697,-407.508c237.744,-186.892 717.321,-305.274 1285.5,-230.105l0,-0Z" style="fill:#7e4021;"/><path d="M1510.82,742.377c-57.733,75.504 -465.503,-31.085 -534.155,-64.109c-170.806,-82.164 -223.527,-192.755 -112.225,-248.622c90.429,-45.39 212.607,11.616 263.98,0.055c77.084,-17.347 49.487,-84.878 107.664,-121.213c61.449,-38.379 189.407,-16.871 260.732,39.577c142.944,113.129 69.156,322.184 14.004,394.312Z" style="fill:#f3859b;"/><path d="M1524.06,752.5c28.873,-37.759 62.805,-111.293 70.629,-190.26c7.998,-80.715 -11.041,-166.709 -87.53,-227.244c-45.274,-35.83 -112.051,-58.536 -172.322,-62.052c-41.833,-2.44 -80.51,4.5 -107.582,21.408c-26.784,16.728 -38.173,38.893 -47.395,61.116c-10.093,24.323 -16.257,49.232 -55.099,57.973c-8.771,1.974 -19.959,1.328 -32.865,-0.213c-22.546,-2.692 -49.59,-8.473 -78.384,-12.728c-51.554,-7.618 -108.258,-9.989 -156.549,14.25c-39.07,19.612 -59.986,45.778 -65.961,74.288c-5.958,28.426 2.858,60.277 27.003,92.337c28.798,38.237 80.135,77.615 151.435,111.913c48.814,23.481 266.367,83.786 412.649,91.424c39.105,2.042 73.293,0.26 98.349,-6.485c20.056,-5.398 34.838,-14.239 43.622,-25.727Zm-26.479,-20.247c-5.075,6.637 -14.22,10.668 -25.808,13.787c-22.398,6.029 -52.988,7.209 -87.946,5.384c-141.743,-7.401 -352.638,-65.422 -399.937,-88.175c-49.385,-23.756 -88.597,-49.874 -116.301,-76.397c-34.574,-33.101 -51.375,-65.754 -43.058,-94.617c5.387,-18.694 21.375,-34.637 47.386,-47.693c51.038,-25.619 112.872,-15.514 164.576,-6.518c39.297,6.837 73.549,12.896 95.586,7.937c45.776,-10.302 60.72,-35.217 72.607,-63.237c8.795,-20.735 14.663,-44.133 40.227,-60.1c22.088,-13.795 53.851,-18.394 87.982,-16.403c53.673,3.131 113.261,23.006 153.578,54.913c66.455,52.595 81.994,127.692 75.045,197.819c-7.121,71.875 -37.658,138.932 -63.937,173.3Z" style="fill:#7e4021;"/></g></svg>