<?xml version="1.0" encoding="UTF-8" standalone="no"?><!DOCTYPE svg PUBLIC "-//W3C//DTD SVG 1.1//EN" "http://www.w3.org/Graphics/SVG/1.1/DTD/svg11.dtd"><svg width="100%" height="100%" viewBox="0 0 2608 2608" version="1.1" xmlns="http://www.w3.org/2000/svg" xmlns:xlink="http://www.w3.org/1999/xlink" xml:space="preserve" xmlns:serif="http://www.serif.com/" style="fill-rule:evenodd;clip-rule:evenodd;stroke-linejoin:round;stroke-miterlimit:2;"><g id="Cracker-02"><path d="M1146.42,262.141c0,-134.947 70.65,-244.507 157.672,-244.507c87.021,-0 157.671,109.56 157.671,244.507c39.674,-128.952 139.396,-212.766 222.551,-187.051c83.155,25.716 118.456,151.287 78.781,280.238c75.824,-111.498 195.757,-162.12 267.657,-112.973c71.9,49.147 68.715,179.57 -7.108,291.069c105.235,-84.139 234.722,-97.07 288.979,-28.859c54.257,68.211 12.869,191.899 -92.366,276.037c125.296,-49.302 252.832,-23.393 284.625,57.821c31.792,81.214 -44.121,187.176 -169.418,236.477c134.225,-10.084 248.478,52.362 254.981,139.363c6.503,87.001 -97.191,165.822 -231.415,175.906c131.226,30.029 222.044,123.464 202.68,208.521c-19.364,85.058 -141.624,129.734 -272.851,99.706c116.568,67.473 175.882,183.595 132.371,259.151c-43.511,75.556 -173.474,82.118 -290.042,14.645c91.552,98.923 114.09,227.414 50.299,286.755c-63.791,59.342 -189.909,27.207 -281.461,-71.716c58.401,121.583 42.162,251.025 -36.242,288.879c-78.403,37.854 -189.471,-30.123 -247.872,-151.706c20.061,133.44 -33.513,252.333 -119.562,265.336c-86.049,13.003 -172.197,-84.776 -192.258,-218.216c-20.062,133.44 -106.21,231.219 -192.259,218.216c-86.049,-13.003 -139.623,-131.896 -119.562,-265.336c-58.401,121.583 -169.469,189.56 -247.872,151.706c-78.404,-37.854 -94.643,-167.296 -36.242,-288.879c-91.552,98.923 -217.67,131.058 -281.461,71.716c-63.791,-59.341 -41.253,-187.832 50.299,-286.755c-116.568,67.473 -246.531,60.911 -290.042,-14.645c-43.51,-75.556 15.803,-191.678 132.371,-259.151c-131.226,30.028 -253.487,-14.648 -272.851,-99.706c-19.364,-85.057 71.454,-178.492 202.68,-208.521c-134.224,-10.084 -237.918,-88.905 -231.415,-175.906c6.503,-87.001 120.756,-149.447 254.981,-139.363c-125.296,-49.301 -201.21,-155.263 -169.418,-236.477c31.793,-81.214 159.329,-107.123 284.626,-57.821c-105.236,-84.138 -146.624,-207.826 -92.367,-276.037c54.257,-68.211 183.744,-55.28 288.979,28.859c-75.823,-111.499 -79.008,-241.922 -7.108,-291.069c71.9,-49.147 191.833,1.475 267.657,112.973c-39.675,-128.951 -4.374,-254.522 78.781,-280.238c83.155,-25.715 182.877,58.099 222.551,187.051Z" style="fill:#f7bf9a;"/><path d="M1135.96,192.598c-22.257,-42.826 -51.126,-77.801 -82.551,-101.762c-42.97,-32.765 -90.855,-45.155 -134.465,-31.668c-43.587,13.479 -76.178,50.734 -93.268,102.042c-12.512,37.562 -16.714,82.791 -11.028,130.775c-33.878,-34.367 -71.771,-59.267 -108.864,-72.876c-50.68,-18.594 -100.062,-16.281 -137.759,9.486c-37.664,25.745 -57.846,70.94 -59.108,124.978c-0.925,39.622 8.364,84.127 27.93,128.339c-42.517,-22.855 -86.09,-35.459 -125.568,-37.491c-53.858,-2.772 -100.333,14.026 -128.764,49.769c-28.404,35.71 -34.404,84.825 -19.751,136.801c10.761,38.171 32.74,77.994 64.471,114.495c-47.394,-9.291 -92.782,-8.455 -131.133,1.29c-52.236,13.273 -91.673,43.042 -108.321,85.571c-16.639,42.502 -7.94,91.186 21.318,136.509c21.51,33.32 54.24,64.904 95.322,90.422c-48.056,5.125 -91.211,19.347 -125.009,40.012c-45.98,28.112 -74.891,68.193 -78.295,113.73c-3.403,45.531 19.221,89.479 60.501,124.144c30.351,25.489 70.917,46.003 117.683,58.251c-44.423,19.098 -81.488,45.444 -107.712,75.183c-35.664,40.444 -51.501,87.28 -41.368,131.792c10.138,44.53 44.695,79.85 94.355,100.779c36.485,15.377 81.259,22.989 129.526,20.879c-36.819,31.363 -64.482,67.474 -80.798,103.625c-22.203,49.195 -23.569,98.645 -0.795,138.191c22.793,39.58 66.232,63.128 119.878,68.442c39.357,3.898 84.34,-2.056 129.802,-18.314c-25.935,40.815 -41.743,83.457 -46.714,122.793c-6.774,53.603 6.462,101.29 39.868,132.365c33.437,31.105 81.907,40.771 134.77,29.969c38.718,-7.911 79.909,-26.877 118.534,-55.813c-12.764,46.619 -15.334,91.991 -8.538,131.017c9.276,53.268 35.959,94.961 77.042,114.796c41.114,19.851 90.3,14.756 137.657,-11.215c34.644,-18.998 68.399,-49.274 96.78,-88.305c1.514,48.28 12.388,92.36 30.335,127.625c24.53,48.198 62.304,80.178 107.419,86.996c45.127,6.819 90.637,-12.587 128.255,-51.409c27.509,-28.389 50.854,-67.285 66.494,-112.956c15.639,45.671 38.984,84.567 66.493,112.956c37.618,38.822 83.128,58.228 128.255,51.409c45.115,-6.818 82.89,-38.798 107.419,-86.996c17.947,-35.265 28.821,-79.345 30.335,-127.625c28.381,39.031 62.136,69.307 96.78,88.305c47.357,25.971 96.543,31.066 137.657,11.215c41.083,-19.835 67.766,-61.528 77.042,-114.796c6.796,-39.026 4.227,-84.398 -8.538,-131.017c38.626,28.936 79.816,47.902 118.534,55.813c52.863,10.802 101.333,1.136 134.77,-29.969c33.406,-31.075 46.642,-78.762 39.868,-132.365c-4.971,-39.335 -20.778,-81.977 -46.714,-122.793c45.462,16.258 90.446,22.212 129.802,18.314c53.646,-5.314 97.086,-28.862 119.878,-68.442c22.774,-39.546 21.408,-88.996 -0.795,-138.191c-16.316,-36.151 -43.979,-72.262 -80.798,-103.625c48.267,2.11 93.041,-5.502 129.526,-20.879c49.66,-20.929 84.217,-56.249 94.355,-100.779c10.133,-44.512 -5.704,-91.348 -41.368,-131.792c-26.224,-29.739 -63.288,-56.085 -107.712,-75.183c46.766,-12.248 87.332,-32.762 117.683,-58.251c41.28,-34.665 63.904,-78.613 60.501,-124.144c-3.404,-45.537 -32.315,-85.618 -78.294,-113.73c-33.798,-20.665 -76.954,-34.887 -125.01,-40.012c41.082,-25.518 73.812,-57.102 95.322,-90.422c29.258,-45.323 37.957,-94.007 21.319,-136.509c-16.649,-42.529 -56.086,-72.298 -108.321,-85.571c-38.352,-9.745 -83.739,-10.581 -131.134,-1.29c31.731,-36.5 53.71,-76.324 64.471,-114.495c14.654,-51.976 8.653,-101.091 -19.751,-136.801c-28.431,-35.743 -74.906,-52.541 -128.764,-49.769c-39.478,2.032 -83.051,14.636 -125.567,37.491c19.565,-44.212 28.854,-88.717 27.929,-128.339c-1.262,-54.038 -21.444,-99.233 -59.108,-124.978c-37.697,-25.767 -87.079,-28.08 -137.759,-9.486c-37.093,13.609 -74.986,38.509 -108.864,72.876c5.686,-47.984 1.484,-93.213 -11.028,-130.775c-17.09,-51.308 -49.681,-88.563 -93.268,-102.042c-43.61,-13.487 -91.495,-1.097 -134.465,31.668c-31.425,23.961 -60.294,58.936 -82.551,101.763c-8.675,-47.503 -25.977,-89.456 -48.96,-121.64c-31.424,-44.006 -73.537,-69.992 -119.17,-69.992c-45.633,0 -87.747,25.986 -119.171,69.992c-22.983,32.184 -40.285,74.137 -48.96,121.64l0,-0.001Zm-5.47,74.444c2.425,7.883 10.251,12.806 18.407,11.58c8.156,-1.226 14.189,-8.234 14.189,-16.481c-0,-68.104 18.718,-129.46 48.96,-171.811c24.502,-34.31 56.465,-56.03 92.045,-56.03c35.579,0 67.543,21.72 92.044,56.03c30.242,42.351 48.96,103.707 48.96,171.811c0,8.247 6.033,15.255 14.189,16.481c8.156,1.226 15.982,-3.697 18.408,-11.58c20.021,-65.075 55.943,-118.171 97.291,-149.699c33.493,-25.539 70.415,-36.842 104.406,-26.33c33.999,10.514 58.16,40.709 71.491,80.731c16.459,49.412 16.312,113.589 -3.715,178.683c-2.425,7.882 1.279,16.353 8.712,19.924c7.434,3.571 16.362,1.169 20.999,-5.651c38.27,-56.275 88.216,-96.398 137.003,-114.298c39.498,-14.491 78.087,-14.37 107.467,5.712c29.391,20.09 43.609,56.068 44.594,98.237c1.216,52.091 -17.791,113.397 -56.079,169.7c-4.637,6.819 -3.591,16.003 2.46,21.604c6.052,5.601 15.289,5.935 21.729,0.786c53.13,-42.479 112.675,-66.059 164.566,-68.73c41.983,-2.161 78.8,9.368 100.963,37.229c22.171,27.874 25.193,66.437 13.755,107.006c-14.138,50.15 -50.329,103.138 -103.486,145.638c-6.439,5.149 -8.147,14.231 -4.017,21.367c4.129,7.135 12.855,10.179 20.527,7.16c63.28,-24.899 127.135,-29.829 177.512,-17.028c40.734,10.35 72.508,32.25 85.491,65.415c12.986,33.174 4.553,70.904 -18.284,106.279c-28.246,43.755 -78.413,83.706 -141.717,108.614c-7.67,3.018 -11.982,11.191 -10.144,19.227c1.839,8.035 9.276,13.52 17.496,12.902c67.808,-5.094 130.291,9.075 174.67,36.209c35.871,21.932 59.786,52.25 62.442,87.776c2.655,35.528 -16.486,69.083 -48.697,96.133c-39.85,33.465 -99.534,56.816 -167.347,61.911c-8.22,0.618 -14.754,7.152 -15.371,15.372c-0.618,8.22 4.866,15.656 12.902,17.495c66.3,15.171 121.847,47.181 156.28,86.228c27.833,31.565 41.776,67.608 33.867,102.347c-7.907,34.732 -36.065,61.137 -74.799,77.461c-47.914,20.194 -111.798,24.865 -178.083,9.697c-8.036,-1.839 -16.209,2.473 -19.227,10.145c-3.018,7.671 0.025,16.396 7.16,20.526c58.889,34.087 102.555,81.083 123.986,128.565c17.331,38.401 20.067,76.976 2.291,107.845c-17.77,30.857 -52.453,47.762 -94.278,51.905c-51.713,5.122 -114.11,-9.296 -172.972,-43.368c-7.135,-4.13 -16.219,-2.422 -21.367,4.018c-5.148,6.44 -4.814,15.676 0.786,21.728c46.239,49.961 74.148,107.754 80.681,159.452c5.286,41.835 -3.429,79.526 -29.501,103.779c-26.062,24.244 -64.192,30.136 -105.393,21.717c-50.909,-10.402 -106.271,-42.616 -152.485,-92.551c-5.601,-6.052 -14.787,-7.098 -21.605,-2.461c-6.819,4.638 -9.221,13.565 -5.651,20.998c29.486,61.384 39.169,124.834 30.232,176.158c-7.238,41.56 -26.642,75.021 -58.696,90.496c-32.043,15.471 -70.227,9.818 -107.136,-10.424c-45.576,-24.994 -88.993,-72.13 -118.467,-133.489c-3.571,-7.434 -12.042,-11.139 -19.925,-8.713c-7.882,2.425 -12.806,10.251 -11.58,18.407c10.126,67.35 0.735,130.824 -22.879,177.223c-19.129,37.587 -47.508,63.839 -82.691,69.156c-35.179,5.316 -70.012,-11.383 -99.337,-41.647c-36.199,-37.357 -63.826,-95.228 -73.95,-162.567c-1.226,-8.157 -8.234,-14.189 -16.481,-14.189c-8.248,-0 -15.256,6.032 -16.482,14.189c-10.124,67.339 -37.751,125.21 -73.95,162.567c-29.325,30.264 -64.158,46.963 -99.337,41.647c-35.183,-5.317 -63.562,-31.569 -82.691,-69.156c-23.614,-46.399 -33.005,-109.873 -22.879,-177.223c1.226,-8.156 -3.698,-15.982 -11.58,-18.407c-7.883,-2.426 -16.354,1.279 -19.925,8.713c-29.473,61.359 -72.891,108.495 -118.467,133.489c-36.909,20.242 -75.093,25.895 -107.136,10.424c-32.053,-15.475 -51.458,-48.936 -58.695,-90.496c-8.938,-51.324 0.745,-114.774 30.231,-176.158c3.57,-7.433 1.168,-16.36 -5.651,-20.998c-6.818,-4.637 -16.003,-3.591 -21.605,2.461c-46.214,49.935 -101.576,82.149 -152.484,92.551c-41.202,8.419 -79.332,2.527 -105.393,-21.717c-26.072,-24.253 -34.788,-61.944 -29.502,-103.779c6.533,-51.698 34.442,-109.491 80.681,-159.452c5.6,-6.052 5.934,-15.288 0.786,-21.728c-5.148,-6.44 -14.232,-8.148 -21.367,-4.018c-58.862,34.072 -121.259,48.49 -172.972,43.368c-41.825,-4.143 -76.508,-21.048 -94.278,-51.905c-17.776,-30.869 -15.039,-69.444 2.292,-107.845c21.43,-47.482 65.096,-94.478 123.985,-128.565c7.135,-4.13 10.178,-12.855 7.16,-20.526c-3.018,-7.672 -11.191,-11.984 -19.227,-10.145c-66.285,15.168 -130.169,10.497 -178.083,-9.697c-38.734,-16.324 -66.892,-42.729 -74.799,-77.461c-7.908,-34.739 6.034,-70.782 33.868,-102.347c34.432,-39.047 89.979,-71.057 156.279,-86.228c8.036,-1.839 13.52,-9.275 12.902,-17.495c-0.617,-8.22 -7.151,-14.754 -15.371,-15.372c-67.813,-5.095 -127.496,-28.446 -167.347,-61.911c-32.211,-27.05 -51.352,-60.605 -48.696,-96.133c2.655,-35.526 26.57,-65.844 62.441,-87.776c44.379,-27.134 106.862,-41.303 174.67,-36.209c8.221,0.618 15.657,-4.867 17.496,-12.902c1.838,-8.036 -2.474,-16.209 -10.144,-19.227c-63.304,-24.908 -113.471,-64.859 -141.717,-108.614c-22.837,-35.375 -31.27,-73.105 -18.284,-106.279c12.983,-33.165 44.757,-55.065 85.491,-65.415c50.377,-12.801 114.232,-7.871 177.512,17.028c7.672,3.019 16.398,-0.025 20.528,-7.16c4.129,-7.136 2.422,-16.218 -4.018,-21.367c-53.157,-42.5 -89.348,-95.488 -103.486,-145.638c-11.438,-40.569 -8.416,-79.132 13.755,-107.006c22.163,-27.861 58.981,-39.39 100.963,-37.229c51.891,2.671 111.436,26.251 164.566,68.73c6.44,5.149 15.677,4.815 21.729,-0.786c6.051,-5.601 7.097,-14.785 2.46,-21.604c-38.288,-56.303 -57.295,-117.609 -56.078,-169.7c0.984,-42.169 15.202,-78.147 44.593,-98.237c29.38,-20.082 67.969,-20.203 107.467,-5.712c48.787,17.9 98.733,58.023 137.003,114.298c4.637,6.82 13.565,9.222 20.999,5.651c7.433,-3.571 11.138,-12.042 8.712,-19.924c-20.027,-65.094 -20.174,-129.271 -3.715,-178.683c13.331,-40.022 37.492,-70.217 71.491,-80.731c33.991,-10.512 70.913,0.791 104.406,26.33c41.348,31.528 77.27,84.624 97.292,149.699Z" style="fill:#7e4021;"/><circle cx="833.821" cy="1159.99" r="78.935" style="fill:#e4a57c;"/><path d="M833.821,1064.38c-26.382,-0 -50.284,10.707 -67.59,28.012c-17.305,17.305 -28.012,41.207 -28.012,67.59c0,26.382 10.707,50.285 28.012,67.59c17.306,17.305 41.208,28.012 67.59,28.012c26.383,0 50.285,-10.707 67.59,-28.012c17.306,-17.305 28.012,-41.208 28.012,-67.59c0,-26.383 -10.706,-50.285 -28.012,-67.59c-17.305,-17.305 -41.207,-28.012 -67.59,-28.012Zm0,33.333c17.183,0 32.749,6.978 44.02,18.249c11.271,11.271 18.249,26.837 18.249,44.02c0,17.183 -6.978,32.749 -18.249,44.02c-11.271,11.271 -26.837,18.249 -44.02,18.249c-17.183,-0 -32.748,-6.978 -44.019,-18.249c-11.271,-11.271 -18.249,-26.837 -18.249,-44.02c-0,-17.183 6.978,-32.749 18.249,-44.02c11.271,-11.271 26.836,-18.249 44.019,-18.249Z" style="fill:#7e4021;"/><circle cx="1785.18" cy="1505.32" r="78.935" style="fill:#e4a57c;"/><path d="M1785.18,1600.92c26.382,0 50.284,-10.707 67.59,-28.012c17.305,-17.305 28.012,-41.207 28.012,-67.59c-0,-26.382 -10.707,-50.284 -28.012,-67.59c-17.306,-17.305 -41.208,-28.012 -67.59,-28.012c-26.383,0 -50.285,10.707 -67.59,28.012c-17.305,17.306 -28.012,41.208 -28.012,67.59c-0,26.383 10.707,50.285 28.012,67.59c17.305,17.305 41.207,28.012 67.59,28.012Zm-0,-33.333c-17.183,0 -32.749,-6.978 -44.02,-18.249c-11.271,-11.271 -18.249,-26.837 -18.249,-44.02c0,-17.183 6.978,-32.748 18.249,-44.019c11.271,-11.271 26.837,-18.25 44.02,-18.25c17.183,0 32.748,6.979 44.019,18.25c11.271,11.271 18.25,26.836 18.25,44.019c-0,17.183 -6.979,32.749 -18.25,44.02c-11.271,11.271 -26.836,18.249 -44.019,18.249Z" style="fill:#7e4021;"/><circle cx="1322.37" cy="1309.01" r="78.935" style="fill:#e4a57c;"/><path d="M1322.37,1213.4c-26.383,-0 -50.285,10.707 -67.59,28.012c-17.306,17.305 -28.013,41.207 -28.013,67.59c0,26.382 10.707,50.285 28.013,67.59c17.305,17.305 41.207,28.012 67.59,28.012c26.382,0 50.284,-10.707 67.59,-28.012c17.305,-17.305 28.012,-41.208 28.012,-67.59c-0,-26.383 -10.707,-50.285 -28.012,-67.59c-17.306,-17.305 -41.208,-28.012 -67.59,-28.012Zm-0,33.333c17.183,0 32.748,6.978 44.019,18.249c11.271,11.271 18.249,26.837 18.249,44.02c0,17.183 -6.978,32.749 -18.249,44.02c-11.271,11.271 -26.836,18.249 -44.019,18.249c-17.184,-0 -32.749,-6.978 -44.02,-18.249c-11.271,-11.271 -18.249,-26.837 -18.249,-44.02c-0,-17.183 6.978,-32.749 18.249,-44.02c11.271,-11.271 26.836,-18.249 44.02,-18.249Z" style="fill:#7e4021;"/><circle cx="1268.83" cy="867.985" r="78.935" style="fill:#e4a57c;"/><path d="M1268.83,772.383c-26.383,-0 -50.285,10.707 -67.59,28.012c-17.306,17.305 -28.012,41.207 -28.012,67.59c-0,26.382 10.706,50.284 28.012,67.59c17.305,17.305 41.207,28.012 67.59,28.012c26.382,-0 50.284,-10.707 67.59,-28.012c17.305,-17.306 28.012,-41.208 28.012,-67.59c-0,-26.383 -10.707,-50.285 -28.012,-67.59c-17.306,-17.305 -41.208,-28.012 -67.59,-28.012Zm-0,33.333c17.183,0 32.748,6.978 44.019,18.249c11.271,11.271 18.249,26.837 18.249,44.02c0,17.183 -6.978,32.749 -18.249,44.02c-11.271,11.271 -26.836,18.249 -44.019,18.249c-17.183,-0 -32.749,-6.978 -44.02,-18.249c-11.271,-11.271 -18.249,-26.837 -18.249,-44.02c-0,-17.183 6.978,-32.749 18.249,-44.02c11.271,-11.271 26.837,-18.249 44.02,-18.249Z" style="fill:#7e4021;"/><circle cx="1350.17" cy="1797.32" r="78.935" style="fill:#e4a57c;"/><path d="M1350.17,1892.92c26.383,0 50.285,-10.706 67.59,-28.012c17.306,-17.305 28.012,-41.207 28.012,-67.59c0,-26.382 -10.706,-50.284 -28.012,-67.59c-17.305,-17.305 -41.207,-28.012 -67.59,-28.012c-26.382,0 -50.284,10.707 -67.59,28.012c-17.305,17.306 -28.012,41.208 -28.012,67.59c0,26.383 10.707,50.285 28.012,67.59c17.306,17.306 41.208,28.012 67.59,28.012Zm0,-33.333c-17.183,0 -32.748,-6.978 -44.019,-18.249c-11.271,-11.271 -18.249,-26.837 -18.249,-44.02c-0,-17.183 6.978,-32.748 18.249,-44.019c11.271,-11.271 26.836,-18.249 44.019,-18.249c17.183,-0 32.749,6.978 44.02,18.249c11.271,11.271 18.249,26.836 18.249,44.019c0,17.183 -6.978,32.749 -18.249,44.02c-11.271,11.271 -26.837,18.249 -44.02,18.249Z" style="fill:#7e4021;"/><circle cx="1730.15" cy="1068.4" r="78.935" style="fill:#e4a57c;"/><path d="M1730.15,972.795c-26.383,-0 -50.285,10.706 -67.59,28.012c-17.306,17.305 -28.013,41.207 -28.013,67.59c0,26.382 10.707,50.284 28.013,67.59c17.305,17.305 41.207,28.012 67.59,28.012c26.382,-0 50.284,-10.707 67.589,-28.012c17.306,-17.306 28.013,-41.208 28.013,-67.59c-0,-26.383 -10.707,-50.285 -28.013,-67.59c-17.305,-17.306 -41.207,-28.012 -67.589,-28.012Zm-0,33.333c17.183,-0 32.748,6.978 44.019,18.249c11.271,11.271 18.249,26.837 18.249,44.02c0,17.183 -6.978,32.748 -18.249,44.019c-11.271,11.271 -26.836,18.249 -44.019,18.249c-17.184,0 -32.749,-6.978 -44.02,-18.249c-11.271,-11.271 -18.249,-26.836 -18.249,-44.019c-0,-17.183 6.978,-32.749 18.249,-44.02c11.271,-11.271 26.836,-18.249 44.02,-18.249Z" style="fill:#7e4021;"/><circle cx="888.85" cy="1596.91" r="78.935" style="fill:#e4a57c;"/><path d="M888.85,1692.51c26.382,-0 50.284,-10.707 67.589,-28.013c17.306,-17.305 28.013,-41.207 28.013,-67.59c-0,-26.382 -10.707,-50.284 -28.013,-67.589c-17.305,-17.306 -41.207,-28.013 -67.589,-28.013c-26.383,0 -50.285,10.707 -67.59,28.013c-17.306,17.305 -28.013,41.207 -28.013,67.589c0,26.383 10.707,50.285 28.013,67.59c17.305,17.306 41.207,28.013 67.59,28.013Zm-0,-33.334c-17.184,0 -32.749,-6.978 -44.02,-18.249c-11.271,-11.271 -18.249,-26.836 -18.249,-44.02c-0,-17.183 6.978,-32.748 18.249,-44.019c11.271,-11.271 26.836,-18.249 44.02,-18.249c17.183,-0 32.748,6.978 44.019,18.249c11.271,11.271 18.249,26.836 18.249,44.019c0,17.184 -6.978,32.749 -18.249,44.02c-11.271,11.271 -26.836,18.249 -44.019,18.249Z" style="fill:#7e4021;"/></g></svg>