<?xml version="1.0" encoding="UTF-8" standalone="no"?><!DOCTYPE svg PUBLIC "-//W3C//DTD SVG 1.1//EN" "http://www.w3.org/Graphics/SVG/1.1/DTD/svg11.dtd"><svg width="100%" height="100%" viewBox="0 0 2157 2395" version="1.1" xmlns="http://www.w3.org/2000/svg" xmlns:xlink="http://www.w3.org/1999/xlink" xml:space="preserve" xmlns:serif="http://www.serif.com/" style="fill-rule:evenodd;clip-rule:evenodd;stroke-linejoin:round;stroke-miterlimit:2;"><g id="Cracker-01"><path d="M458.932,2165.8l3.511,-0c2.222,63.394 24.669,119.75 58.543,158.14c30.021,34.023 68.991,54.139 111.306,54.139c42.315,-0 81.286,-20.116 111.306,-54.139c18.01,-20.412 32.79,-45.901 43.017,-74.827c10.227,28.926 25.007,54.415 43.017,74.827c30.021,34.023 68.992,54.139 111.306,54.139c42.315,-0 81.286,-20.116 111.306,-54.139c18.01,-20.412 32.791,-45.901 43.017,-74.827c10.227,28.926 25.007,54.415 43.017,74.827c30.021,34.023 68.992,54.139 111.306,54.139c42.315,-0 81.286,-20.116 111.306,-54.139c18.01,-20.412 32.791,-45.901 43.017,-74.827c10.227,28.926 25.007,54.415 43.017,74.827c30.021,34.023 68.992,54.139 111.306,54.139c42.315,-0 81.286,-20.116 111.306,-54.139c30.41,-34.464 51.611,-83.407 57.237,-138.931c12.722,24.625 29.944,48.467 51.507,70.03c47.813,47.813 106.825,74.281 160.698,77.647c45.286,2.831 87.066,-10.502 116.987,-40.423c29.922,-29.921 43.254,-71.701 40.424,-116.987c-3.367,-53.873 -29.835,-112.885 -77.648,-160.698c-10.978,-10.977 -22.546,-20.83 -34.509,-29.538c40.082,-9.592 75.186,-27.543 101.713,-50.949c34.024,-30.021 54.14,-68.991 54.14,-111.306c-0,-42.315 -20.116,-81.286 -54.14,-111.306c-20.411,-18.01 -45.901,-32.79 -74.826,-43.017c28.925,-10.227 54.415,-25.007 74.826,-43.017c34.024,-30.021 54.14,-68.991 54.14,-111.306c-0,-42.315 -20.116,-81.286 -54.14,-111.306c-20.411,-18.01 -45.901,-32.79 -74.826,-43.017c28.925,-10.227 54.415,-25.007 74.826,-43.017c34.024,-30.021 54.14,-68.991 54.14,-111.306c-0,-42.315 -20.116,-81.286 -54.14,-111.306c-20.411,-18.01 -45.901,-32.79 -74.826,-43.017c28.925,-10.227 54.415,-25.007 74.826,-43.017c34.024,-30.021 54.14,-68.991 54.14,-111.306c-0,-42.315 -20.116,-81.286 -54.14,-111.306c-21.115,-18.632 -47.666,-33.806 -77.826,-44.057c30.16,-10.251 56.711,-25.425 77.826,-44.057c34.024,-30.02 54.14,-68.991 54.14,-111.306c-0,-42.315 -20.116,-81.286 -54.14,-111.306c-29.153,-25.724 -68.668,-44.859 -113.754,-53.549c13.411,-9.403 26.358,-20.226 38.574,-32.442c47.813,-47.813 74.281,-106.825 77.648,-160.698c2.83,-45.285 -10.502,-87.066 -40.424,-116.987c-29.921,-29.921 -71.701,-43.254 -116.987,-40.423c-53.873,3.367 -112.885,29.834 -160.698,77.647c-17.642,17.643 -32.379,36.811 -44.125,56.69c-6.411,-53.306 -27.215,-100.215 -56.643,-133.566c-30.02,-34.024 -68.991,-54.14 -111.306,-54.14c-42.314,0 -81.285,20.116 -111.306,54.14c-18.01,20.411 -32.79,45.901 -43.017,74.826c-10.226,-28.925 -25.007,-54.415 -43.017,-74.826c-30.02,-34.024 -68.991,-54.14 -111.306,-54.14c-42.314,0 -81.285,20.116 -111.306,54.14c-18.01,20.411 -32.79,45.901 -43.017,74.826c-10.226,-28.925 -25.007,-54.415 -43.017,-74.826c-30.02,-34.024 -68.991,-54.14 -111.306,-54.14c-42.314,0 -81.285,20.116 -111.306,54.14c-18.01,20.411 -32.79,45.901 -43.017,74.826c-10.227,-28.925 -25.007,-54.415 -43.017,-74.826c-30.02,-34.024 -68.991,-54.14 -111.306,-54.14c-42.315,0 -81.285,20.116 -111.306,54.14c-32.931,37.321 -59.719,90.489 -59.719,90.489c-0,0 -77.562,-98.901 -223.874,-106.974c-45.305,-2.5 -87.066,10.502 -116.987,40.423l-0,-0c-29.922,29.921 -43.254,71.701 -40.424,116.987c3.367,53.873 29.835,112.885 77.648,160.698c17.638,17.638 36.8,32.371 56.66,44.108c-57.092,5.025 -107.487,26.494 -142.736,57.597c-34.023,30.02 -54.139,68.991 -54.139,111.306c-0,42.315 20.116,81.286 54.139,111.306c21.115,18.632 47.666,33.806 77.826,44.057c-30.16,10.251 -56.711,25.425 -77.826,44.057c-34.023,30.02 -54.139,68.991 -54.139,111.306c-0,42.315 20.116,81.285 54.139,111.306c20.411,18.01 45.901,32.79 74.826,43.017c-28.925,10.227 -54.415,25.007 -74.826,43.017c-34.023,30.02 -54.139,68.991 -54.139,111.306c-0,42.315 20.116,81.285 54.139,111.306c20.411,18.01 45.901,32.79 74.826,43.017c-28.925,10.227 -54.415,25.007 -74.826,43.017c-34.023,30.02 -54.139,68.991 -54.139,111.306c-0,42.315 20.116,81.285 54.139,111.306c20.411,18.01 45.901,32.79 74.826,43.017c-28.925,10.227 -54.415,25.007 -74.826,43.017c-34.023,30.02 -54.139,68.991 -54.139,111.306c-0,42.315 20.116,81.285 54.139,111.306c31.914,28.16 76.243,48.423 126.714,55.734c-15.656,10.351 -30.762,22.616 -44.891,36.744c-47.813,47.813 -74.281,106.825 -77.647,160.698c-2.831,45.286 10.502,87.066 40.423,116.987l-0,0.001c29.921,29.921 71.701,43.253 116.987,40.423c53.873,-3.367 112.885,-29.835 160.698,-77.648c30.586,-30.586 52.437,-65.754 65.094,-101.23Z" style="fill:#f7bf9a;"/><path d="M108.62,83.639l0,0l0,0.001c-1.405,1.405 -2.52,3.02 -3.32,4.762c0.655,-1.579 1.732,-3.174 3.32,-4.762l0,-0c-33.234,33.234 -48.415,79.511 -45.272,129.812c3.589,57.43 31.527,120.473 82.497,171.443c8.05,8.051 16.402,15.528 24.984,22.426c-43.511,10.19 -81.589,29.661 -110.302,54.997c-37.791,33.344 -59.779,76.803 -59.779,123.803c0,47 21.988,90.459 59.779,123.803c13.535,11.943 29.139,22.583 46.408,31.56c-17.269,8.977 -32.873,19.617 -46.408,31.56c-37.791,33.344 -59.779,76.803 -59.779,123.803c0,47 21.988,90.458 59.779,123.803c13.016,11.485 27.944,21.765 44.429,30.52c-16.485,8.755 -31.413,19.035 -44.429,30.52c-37.791,33.344 -59.779,76.803 -59.779,123.803c0,47 21.988,90.458 59.779,123.803c13.016,11.485 27.944,21.765 44.429,30.52c-16.485,8.755 -31.413,19.035 -44.429,30.52c-37.791,33.344 -59.779,76.803 -59.779,123.803c0,47 21.988,90.458 59.779,123.803c13.016,11.485 27.944,21.765 44.429,30.52c-16.485,8.755 -31.413,19.035 -44.429,30.52c-37.791,33.344 -59.779,76.803 -59.779,123.803c0,47 21.988,90.458 59.779,123.803c26.103,23.033 59.936,41.22 98.557,51.99c-5.964,5.114 -11.803,10.517 -17.492,16.206c-50.97,50.97 -78.907,114.013 -82.497,171.443c-3.143,50.301 12.038,96.578 45.272,129.813l0.001,-0l-0,-0c-0.424,0.423 0.327,0.996 1.625,1.6c33.109,32.121 78.701,46.765 128.187,43.672c57.43,-3.589 120.473,-31.527 171.443,-82.497c18.63,-18.63 34.19,-38.873 46.599,-59.859c9.78,45.879 29.83,86.049 56.267,116.011c33.345,37.79 76.803,59.778 123.803,59.778c47.001,0 90.459,-21.988 123.804,-59.778c11.484,-13.016 21.764,-27.945 30.519,-44.429c8.756,16.484 19.035,31.413 30.52,44.429c33.345,37.79 76.803,59.778 123.803,59.778c47.001,0 90.459,-21.988 123.804,-59.778c11.484,-13.016 21.764,-27.945 30.519,-44.429c8.756,16.484 19.035,31.413 30.52,44.429c33.345,37.79 76.803,59.778 123.803,59.778c47.001,0 90.459,-21.988 123.804,-59.778c11.484,-13.016 21.764,-27.945 30.519,-44.429c8.756,16.484 19.035,31.413 30.52,44.429c33.345,37.79 76.803,59.778 123.803,59.778c47.001,0 90.459,-21.988 123.804,-59.778c24.154,-27.375 42.979,-63.259 53.511,-104.249c9.137,12.513 19.46,24.616 30.95,36.106c50.97,50.97 114.013,78.907 171.443,82.497c50.301,3.143 96.578,-12.038 129.813,-45.273c33.234,-33.234 48.415,-79.511 45.272,-129.812c-3.589,-57.43 -31.527,-120.473 -82.497,-171.443c-3.741,-3.741 -7.546,-7.358 -11.41,-10.85c30.044,-10.946 56.525,-26.533 77.857,-45.355c37.79,-33.345 59.778,-76.803 59.778,-123.803c0,-47 -21.988,-90.459 -59.778,-123.803c-13.016,-11.485 -27.945,-21.765 -44.43,-30.52c16.485,-8.755 31.414,-19.035 44.43,-30.52c37.79,-33.345 59.778,-76.803 59.778,-123.803c0,-47 -21.988,-90.459 -59.778,-123.803c-13.016,-11.485 -27.945,-21.765 -44.43,-30.52c16.485,-8.755 31.414,-19.035 44.43,-30.52c37.79,-33.345 59.778,-76.803 59.778,-123.803c0,-47 -21.988,-90.459 -59.778,-123.803c-13.016,-11.485 -27.945,-21.765 -44.43,-30.52c16.485,-8.755 31.414,-19.035 44.43,-30.52c37.79,-33.345 59.778,-76.803 59.778,-123.803c0,-47 -21.988,-90.459 -59.778,-123.803c-13.535,-11.943 -29.139,-22.583 -46.409,-31.56c17.27,-8.977 32.874,-19.617 46.409,-31.56c37.79,-33.344 59.778,-76.803 59.778,-123.803c0,-47 -21.988,-90.459 -59.778,-123.803c-23.718,-20.927 -53.808,-37.855 -88.075,-48.851c4.636,-4.11 9.19,-8.396 13.652,-12.858c50.97,-50.97 78.908,-114.013 82.497,-171.443c3.143,-50.3 -12.038,-96.578 -45.272,-129.812c-33.235,-33.235 -79.512,-48.416 -129.813,-45.272c-57.43,3.589 -120.473,31.526 -171.443,82.496c-8.453,8.453 -16.274,17.237 -23.456,26.273c-10.618,-40.216 -29.239,-75.429 -53.029,-102.391c-33.345,-37.791 -76.803,-59.779 -123.804,-59.779c-47,-0 -90.458,21.988 -123.803,59.779c-11.485,13.015 -21.765,27.944 -30.52,44.429c-8.755,-16.485 -19.035,-31.414 -30.519,-44.429c-33.345,-37.791 -76.803,-59.779 -123.804,-59.779c-47,-0 -90.458,21.988 -123.803,59.779c-11.485,13.015 -21.765,27.944 -30.52,44.429c-8.755,-16.485 -19.035,-31.414 -30.519,-44.429c-33.345,-37.791 -76.803,-59.779 -123.804,-59.779c-47,-0 -90.458,21.988 -123.803,59.779c-11.485,13.015 -21.765,27.944 -30.52,44.429c-8.755,-16.485 -19.035,-31.414 -30.519,-44.429c-33.345,-37.791 -76.803,-59.779 -123.804,-59.779c-47,-0 -90.458,21.988 -123.803,59.779c-20.944,23.736 -39.513,53.631 -50.77,73.257c-31.131,-30.346 -105.457,-89.069 -219.408,-95.357c-50.28,-2.774 -96.483,12.072 -129.691,45.279Zm7.533,2237.28c6.741,0 12.818,-4.061 15.398,-10.288c2.579,-6.228 1.153,-13.397 -3.613,-18.164c-26.608,-26.608 -38.091,-63.891 -35.574,-104.162c3.144,-50.316 28.142,-105.297 72.798,-149.952c13.313,-13.314 27.546,-24.874 42.298,-34.627c5.768,-3.814 8.583,-10.794 7.072,-17.542c-1.51,-6.749 -7.031,-11.864 -13.875,-12.855c-47.001,-6.809 -88.356,-25.513 -118.076,-51.737c-30.256,-26.697 -48.5,-61.179 -48.5,-98.809c0,-37.63 18.244,-72.112 48.5,-98.809c18.91,-16.686 42.556,-30.326 69.355,-39.801c6.659,-2.354 11.111,-8.65 11.111,-15.713c-0,-7.063 -4.452,-13.359 -11.111,-15.714c-26.799,-9.474 -50.445,-23.114 -69.355,-39.8c-30.256,-26.697 -48.5,-61.179 -48.5,-98.809c0,-37.63 18.244,-72.112 48.5,-98.809c18.91,-16.686 42.556,-30.326 69.355,-39.801c6.659,-2.354 11.111,-8.65 11.111,-15.713c-0,-7.063 -4.452,-13.359 -11.111,-15.714c-26.799,-9.474 -50.445,-23.115 -69.355,-39.8c-30.256,-26.697 -48.5,-61.179 -48.5,-98.809c0,-37.63 18.244,-72.112 48.5,-98.809c18.91,-16.686 42.556,-30.326 69.355,-39.801c6.659,-2.354 11.111,-8.65 11.111,-15.713c-0,-7.063 -4.452,-13.359 -11.111,-15.714c-26.799,-9.474 -50.445,-23.115 -69.355,-39.8c-30.256,-26.697 -48.5,-61.179 -48.5,-98.809c0,-37.63 18.244,-72.112 48.5,-98.809c19.57,-17.268 44.21,-31.274 72.162,-40.774c6.759,-2.297 11.304,-8.642 11.304,-15.78c-0,-7.138 -4.545,-13.483 -11.304,-15.78c-27.952,-9.501 -52.592,-23.506 -72.162,-40.774c-30.256,-26.697 -48.5,-61.179 -48.5,-98.809c0,-37.63 18.244,-72.112 48.5,-98.809c32.866,-28.999 79.939,-48.806 133.171,-53.492c7.213,-0.635 13.191,-5.855 14.792,-12.917c1.602,-7.062 -1.54,-14.35 -7.774,-18.034c-18.703,-11.053 -36.744,-24.934 -53.355,-41.544c-44.656,-44.656 -69.654,-99.637 -72.798,-149.953c-2.373,-37.955 7.691,-73.257 31.138,-99.468c3.985,-0.424 7.522,-1.608 4.436,-4.694c-0,-0 -0,-0 -0,-0c26.635,-26.636 63.954,-37.793 104.284,-35.567c138.207,7.626 211.677,100.618 211.677,100.618c3.519,4.488 9.089,6.865 14.765,6.3c5.675,-0.564 10.668,-3.992 13.234,-9.085c-0,-0 25.695,-51.107 57.332,-86.962c26.697,-30.256 61.18,-48.5 98.809,-48.5c37.63,0 72.112,18.244 98.809,48.5c16.686,18.91 30.326,42.556 39.801,69.355c2.354,6.659 8.65,11.111 15.713,11.111c7.063,-0 13.359,-4.452 15.714,-11.111c9.475,-26.799 23.115,-50.445 39.8,-69.355c26.697,-30.256 61.18,-48.5 98.809,-48.5c37.63,0 72.112,18.244 98.809,48.5c16.686,18.91 30.326,42.556 39.801,69.355c2.354,6.659 8.65,11.111 15.713,11.111c7.063,-0 13.359,-4.452 15.714,-11.111c9.475,-26.799 23.115,-50.445 39.801,-69.355c26.696,-30.256 61.179,-48.5 98.808,-48.5c37.63,0 72.112,18.244 98.809,48.5c16.686,18.91 30.326,42.556 39.801,69.355c2.354,6.659 8.65,11.111 15.713,11.111c7.063,-0 13.359,-4.452 15.714,-11.111c9.475,-26.799 23.115,-50.445 39.801,-69.355c26.696,-30.256 61.179,-48.5 98.808,-48.5c37.63,0 72.112,18.244 98.809,48.5c27.419,31.075 46.619,74.861 52.593,124.529c0.853,7.093 6.131,12.853 13.122,14.321c6.991,1.468 14.14,-1.682 17.774,-7.833c11.062,-18.721 24.946,-36.767 41.562,-53.383c44.655,-44.655 99.636,-69.653 149.952,-72.798c40.271,-2.517 77.554,8.966 104.162,35.574c26.609,26.608 38.091,63.891 35.574,104.163c-3.144,50.315 -28.142,105.296 -72.798,149.952c-11.515,11.514 -23.717,21.717 -36.358,30.581c-5.478,3.841 -8.128,10.586 -6.73,17.13c1.398,6.543 6.574,11.615 13.144,12.882c41.942,8.084 78.762,25.751 105.882,49.68c30.256,26.697 48.5,61.179 48.5,98.809c-0,37.63 -18.244,72.112 -48.5,98.809c-19.57,17.268 -44.21,31.273 -72.162,40.774c-6.758,2.297 -11.303,8.642 -11.303,15.78c-0,7.138 4.545,13.483 11.303,15.78c27.952,9.5 52.592,23.506 72.162,40.774c30.256,26.697 48.5,61.179 48.5,98.809c-0,37.63 -18.244,72.112 -48.5,98.809c-18.91,16.685 -42.556,30.326 -69.355,39.8c-6.659,2.355 -11.111,8.651 -11.111,15.714c0,7.063 4.452,13.359 11.111,15.713c26.799,9.475 50.445,23.115 69.355,39.801c30.256,26.697 48.5,61.179 48.5,98.809c-0,37.63 -18.244,72.112 -48.5,98.809c-18.91,16.685 -42.556,30.326 -69.355,39.8c-6.659,2.355 -11.111,8.651 -11.111,15.714c0,7.063 4.452,13.359 11.111,15.713c26.799,9.475 50.445,23.115 69.355,39.801c30.256,26.697 48.5,61.179 48.5,98.809c-0,37.63 -18.244,72.112 -48.5,98.809c-18.91,16.686 -42.556,30.326 -69.355,39.8c-6.659,2.355 -11.111,8.651 -11.111,15.714c0,7.063 4.452,13.359 11.111,15.713c26.799,9.475 50.445,23.115 69.355,39.801c30.256,26.697 48.5,61.179 48.5,98.809c-0,37.63 -18.244,72.112 -48.5,98.809c-24.649,21.749 -57.321,38.324 -94.565,47.237c-6.324,1.514 -11.191,6.568 -12.465,12.945c-1.273,6.377 1.278,12.913 6.536,16.74c11.278,8.208 22.183,17.498 32.532,27.847c44.656,44.656 69.654,99.637 72.798,149.953c2.517,40.271 -8.966,77.554 -35.574,104.162c-26.608,26.608 -63.891,38.091 -104.162,35.574c-50.316,-3.144 -105.297,-28.142 -149.953,-72.798c-20.292,-20.293 -36.512,-42.721 -48.484,-65.895c-3.385,-6.553 -10.675,-10.102 -17.921,-8.724c-7.246,1.378 -12.725,7.355 -13.468,14.693c-5.245,51.756 -24.807,97.46 -53.153,129.585c-26.697,30.256 -61.179,48.499 -98.809,48.499c-37.629,0 -72.112,-18.243 -98.808,-48.499c-16.686,-18.911 -30.326,-42.557 -39.801,-69.355c-2.355,-6.659 -8.651,-11.111 -15.714,-11.111c-7.063,-0 -13.359,4.452 -15.713,11.111c-9.475,26.798 -23.115,50.444 -39.801,69.355c-26.697,30.256 -61.179,48.499 -98.809,48.499c-37.629,0 -72.112,-18.243 -98.808,-48.499c-16.686,-18.911 -30.326,-42.557 -39.801,-69.355c-2.355,-6.659 -8.651,-11.111 -15.714,-11.111c-7.063,-0 -13.359,4.452 -15.713,11.111c-9.475,26.798 -23.115,50.444 -39.801,69.355c-26.697,30.256 -61.179,48.499 -98.809,48.499c-37.629,0 -72.112,-18.243 -98.809,-48.499c-16.685,-18.911 -30.325,-42.557 -39.8,-69.355c-2.355,-6.659 -8.651,-11.111 -15.714,-11.111c-7.063,-0 -13.359,4.452 -15.713,11.111c-9.475,26.798 -23.115,50.444 -39.801,69.355c-26.697,30.256 -61.179,48.499 -98.809,48.499c-37.629,0 -72.112,-18.243 -98.809,-48.499c-31.616,-35.832 -52.31,-88.527 -54.384,-147.697c-0.314,-8.972 -7.678,-16.083 -16.656,-16.083c-0,0 -3.511,0 -3.511,0c-7.046,0 -13.33,4.43 -15.698,11.066c-11.887,33.319 -32.455,66.32 -61.181,95.046c-44.656,44.656 -99.637,69.654 -149.953,72.798c-40.271,2.517 -77.554,-8.965 -104.162,-35.574c4.766,4.767 6.192,11.936 3.613,18.164c-2.58,6.227 -8.657,10.288 -15.398,10.288l-0,0Zm16.038,-2213.71l-0,-0c-1.53,1.53 -3.01,3.095 -4.436,4.694c-3.492,0.387 -7.33,0.188 -7.349,0.187l-0,0c4.42,0 8.659,-1.756 11.785,-4.881Zm-11.785,4.881l-0.001,0l0,0l0.001,0Zm11.785,-4.881l-0,-0l-11.785,4.881l-0,0l-0,0l-0,0l-0,0l-0,0l-0,0l-0,0c0.036,-0.023 10.284,-6.382 11.785,-4.881Zm-11.786,4.881c-0.017,-0.07 -8.159,-32.077 -11.785,-28.452l0,0.001l11.785,28.451l0,0Z" style="fill:#7e4021;"/><circle cx="649.234" cy="730.956" r="78.935" style="fill:#e4a57c;"/><path d="M649.234,635.354c-26.383,-0 -50.285,10.707 -67.59,28.012c-17.306,17.305 -28.013,41.207 -28.013,67.59c0,26.382 10.707,50.284 28.013,67.59c17.305,17.305 41.207,28.012 67.59,28.012c26.382,-0 50.284,-10.707 67.59,-28.012c17.305,-17.306 28.012,-41.208 28.012,-67.59c-0,-26.383 -10.707,-50.285 -28.012,-67.59c-17.306,-17.305 -41.208,-28.012 -67.59,-28.012Zm-0,33.333c17.183,-0 32.748,6.978 44.019,18.249c11.271,11.271 18.249,26.837 18.249,44.02c0,17.183 -6.978,32.748 -18.249,44.019c-11.271,11.271 -26.836,18.25 -44.019,18.25c-17.184,-0 -32.749,-6.979 -44.02,-18.25c-11.271,-11.271 -18.249,-26.836 -18.249,-44.019c-0,-17.183 6.978,-32.749 18.249,-44.02c11.271,-11.271 26.836,-18.249 44.02,-18.249Z" style="fill:#7e4021;"/><circle cx="1515.85" cy="1213.23" r="78.935" style="fill:#e4a57c;"/><path d="M1515.85,1308.83c26.383,-0 50.285,-10.707 67.59,-28.012c17.306,-17.306 28.012,-41.208 28.012,-67.59c0,-26.383 -10.706,-50.285 -28.012,-67.59c-17.305,-17.305 -41.207,-28.012 -67.59,-28.012c-26.382,-0 -50.284,10.707 -67.59,28.012c-17.305,17.305 -28.012,41.207 -28.012,67.59c0,26.382 10.707,50.284 28.012,67.59c17.306,17.305 41.208,28.012 67.59,28.012Zm0,-33.333c-17.183,-0 -32.748,-6.978 -44.019,-18.249c-11.271,-11.272 -18.249,-26.837 -18.249,-44.02c-0,-17.183 6.978,-32.749 18.249,-44.02c11.271,-11.271 26.836,-18.249 44.019,-18.249c17.183,0 32.749,6.978 44.02,18.249c11.271,11.271 18.249,26.837 18.249,44.02c0,17.183 -6.978,32.748 -18.249,44.02c-11.271,11.271 -26.837,18.249 -44.02,18.249Z" style="fill:#7e4021;"/><circle cx="1515.85" cy="1714.23" r="78.935" style="fill:#e4a57c;"/><path d="M1515.85,1809.84c26.383,-0 50.285,-10.707 67.59,-28.012c17.306,-17.306 28.012,-41.208 28.012,-67.59c0,-26.383 -10.706,-50.285 -28.012,-67.59c-17.305,-17.305 -41.207,-28.012 -67.59,-28.012c-26.382,-0 -50.284,10.707 -67.59,28.012c-17.305,17.305 -28.012,41.207 -28.012,67.59c0,26.382 10.707,50.284 28.012,67.59c17.306,17.305 41.208,28.012 67.59,28.012Zm0,-33.333c-17.183,-0 -32.748,-6.978 -44.019,-18.25c-11.271,-11.271 -18.249,-26.836 -18.249,-44.019c-0,-17.183 6.978,-32.749 18.249,-44.02c11.271,-11.271 26.836,-18.249 44.019,-18.249c17.183,0 32.749,6.978 44.02,18.249c11.271,11.271 18.249,26.837 18.249,44.02c0,17.183 -6.978,32.748 -18.249,44.019c-11.271,11.272 -26.837,18.25 -44.02,18.25Z" style="fill:#7e4021;"/><circle cx="1097.4" cy="930.751" r="78.935" style="fill:#e4a57c;"/><path d="M1097.4,835.149c-26.383,0 -50.285,10.707 -67.59,28.013c-17.306,17.305 -28.012,41.207 -28.012,67.589c-0,26.383 10.706,50.285 28.012,67.59c17.305,17.306 41.207,28.013 67.59,28.013c26.382,-0 50.284,-10.707 67.59,-28.013c17.305,-17.305 28.012,-41.207 28.012,-67.59c-0,-26.382 -10.707,-50.284 -28.012,-67.589c-17.306,-17.306 -41.208,-28.013 -67.59,-28.013Zm-0,33.334c17.183,-0 32.748,6.978 44.019,18.249c11.271,11.271 18.249,26.836 18.249,44.019c0,17.184 -6.978,32.749 -18.249,44.02c-11.271,11.271 -26.836,18.249 -44.019,18.249c-17.183,0 -32.749,-6.978 -44.02,-18.249c-11.271,-11.271 -18.249,-26.836 -18.249,-44.02c-0,-17.183 6.978,-32.748 18.249,-44.019c11.271,-11.271 26.837,-18.249 44.02,-18.249Z" style="fill:#7e4021;"/><circle cx="1097.4" cy="489.731" r="78.935" style="fill:#e4a57c;"/><path d="M1097.4,394.129c-26.383,0 -50.285,10.707 -67.59,28.012c-17.306,17.306 -28.012,41.208 -28.012,67.59c-0,26.383 10.706,50.285 28.012,67.59c17.305,17.306 41.207,28.012 67.59,28.012c26.382,0 50.284,-10.706 67.59,-28.012c17.305,-17.305 28.012,-41.207 28.012,-67.59c-0,-26.382 -10.707,-50.284 -28.012,-67.59c-17.306,-17.305 -41.208,-28.012 -67.59,-28.012Zm-0,33.334c17.183,-0 32.748,6.978 44.019,18.249c11.271,11.271 18.249,26.836 18.249,44.019c0,17.183 -6.978,32.749 -18.249,44.02c-11.271,11.271 -26.836,18.249 -44.019,18.249c-17.183,0 -32.749,-6.978 -44.02,-18.249c-11.271,-11.271 -18.249,-26.837 -18.249,-44.02c-0,-17.183 6.978,-32.748 18.249,-44.019c11.271,-11.271 26.837,-18.249 44.02,-18.249Z" style="fill:#7e4021;"/><circle cx="1097.4" cy="1419.07" r="78.935" style="fill:#e4a57c;"/><path d="M1097.4,1514.67c26.382,0 50.284,-10.707 67.59,-28.012c17.305,-17.305 28.012,-41.208 28.012,-67.59c-0,-26.383 -10.707,-50.285 -28.012,-67.59c-17.306,-17.305 -41.208,-28.012 -67.59,-28.012c-26.383,-0 -50.285,10.707 -67.59,28.012c-17.306,17.305 -28.012,41.207 -28.012,67.59c-0,26.382 10.706,50.285 28.012,67.59c17.305,17.305 41.207,28.012 67.59,28.012Zm-0,-33.333c-17.183,-0 -32.749,-6.978 -44.02,-18.249c-11.271,-11.271 -18.249,-26.837 -18.249,-44.02c-0,-17.183 6.978,-32.749 18.249,-44.02c11.271,-11.271 26.837,-18.249 44.02,-18.249c17.183,0 32.748,6.978 44.019,18.249c11.271,11.271 18.249,26.837 18.249,44.02c0,17.183 -6.978,32.749 -18.249,44.02c-11.271,11.271 -26.836,18.249 -44.019,18.249Z" style="fill:#7e4021;"/><circle cx="1097.4" cy="1920.07" r="78.935" style="fill:#e4a57c;"/><path d="M1097.4,2015.67c26.382,-0 50.284,-10.707 67.59,-28.012c17.305,-17.305 28.012,-41.208 28.012,-67.59c-0,-26.383 -10.707,-50.285 -28.012,-67.59c-17.306,-17.305 -41.208,-28.012 -67.59,-28.012c-26.383,-0 -50.285,10.707 -67.59,28.012c-17.306,17.305 -28.012,41.207 -28.012,67.59c-0,26.382 10.706,50.285 28.012,67.59c17.305,17.305 41.207,28.012 67.59,28.012Zm-0,-33.333c-17.183,-0 -32.749,-6.978 -44.02,-18.249c-11.271,-11.271 -18.249,-26.837 -18.249,-44.02c-0,-17.183 6.978,-32.749 18.249,-44.02c11.271,-11.271 26.837,-18.249 44.02,-18.249c17.183,0 32.748,6.978 44.019,18.249c11.271,11.271 18.249,26.837 18.249,44.02c0,17.183 -6.978,32.749 -18.249,44.02c-11.271,11.271 -26.836,18.249 -44.019,18.249Z" style="fill:#7e4021;"/><circle cx="1515.85" cy="731.247" r="78.935" style="fill:#e4a57c;"/><path d="M1515.85,635.645c-26.382,0 -50.284,10.707 -67.59,28.013c-17.305,17.305 -28.012,41.207 -28.012,67.589c0,26.383 10.707,50.285 28.012,67.59c17.306,17.306 41.208,28.013 67.59,28.013c26.383,-0 50.285,-10.707 67.59,-28.013c17.306,-17.305 28.012,-41.207 28.012,-67.59c0,-26.382 -10.706,-50.284 -28.012,-67.589c-17.305,-17.306 -41.207,-28.013 -67.59,-28.013Zm0,33.334c17.183,-0 32.749,6.978 44.02,18.249c11.271,11.271 18.249,26.836 18.249,44.019c0,17.184 -6.978,32.749 -18.249,44.02c-11.271,11.271 -26.837,18.249 -44.02,18.249c-17.183,0 -32.748,-6.978 -44.019,-18.249c-11.271,-11.271 -18.249,-26.836 -18.249,-44.02c-0,-17.183 6.978,-32.748 18.249,-44.019c11.271,-11.271 26.836,-18.249 44.019,-18.249Z" style="fill:#7e4021;"/><circle cx="649.234" cy="1218.65" r="78.935" style="fill:#e4a57c;"/><path d="M649.234,1314.26c26.382,0 50.284,-10.707 67.59,-28.012c17.305,-17.305 28.012,-41.207 28.012,-67.59c-0,-26.383 -10.707,-50.285 -28.012,-67.59c-17.306,-17.305 -41.208,-28.012 -67.59,-28.012c-26.383,-0 -50.285,10.707 -67.59,28.012c-17.306,17.305 -28.013,41.207 -28.013,67.59c0,26.383 10.707,50.285 28.013,67.59c17.305,17.305 41.207,28.012 67.59,28.012Zm-0,-33.333c-17.184,-0 -32.749,-6.978 -44.02,-18.249c-11.271,-11.271 -18.249,-26.837 -18.249,-44.02c-0,-17.183 6.978,-32.749 18.249,-44.02c11.271,-11.271 26.836,-18.249 44.02,-18.249c17.183,0 32.748,6.978 44.019,18.249c11.271,11.271 18.249,26.837 18.249,44.02c0,17.183 -6.978,32.749 -18.249,44.02c-11.271,11.271 -26.836,18.249 -44.019,18.249Z" style="fill:#7e4021;"/><circle cx="649.234" cy="1719.66" r="78.935" style="fill:#e4a57c;"/><path d="M649.234,1815.26c26.382,0 50.284,-10.707 67.59,-28.012c17.305,-17.305 28.012,-41.207 28.012,-67.59c-0,-26.383 -10.707,-50.285 -28.012,-67.59c-17.306,-17.305 -41.208,-28.012 -67.59,-28.012c-26.383,-0 -50.285,10.707 -67.59,28.012c-17.306,17.305 -28.013,41.207 -28.013,67.59c0,26.383 10.707,50.285 28.013,67.59c17.305,17.305 41.207,28.012 67.59,28.012Zm-0,-33.333c-17.184,-0 -32.749,-6.978 -44.02,-18.249c-11.271,-11.271 -18.249,-26.837 -18.249,-44.02c-0,-17.183 6.978,-32.749 18.249,-44.02c11.271,-11.271 26.836,-18.249 44.02,-18.249c17.183,0 32.748,6.978 44.019,18.249c11.271,11.271 18.249,26.837 18.249,44.02c0,17.183 -6.978,32.749 -18.249,44.02c-11.271,11.271 -26.836,18.249 -44.019,18.249Z" style="fill:#7e4021;"/></g></svg>