<?xml version="1.0" encoding="UTF-8" standalone="no"?><!DOCTYPE svg PUBLIC "-//W3C//DTD SVG 1.1//EN" "http://www.w3.org/Graphics/SVG/1.1/DTD/svg11.dtd"><svg width="100%" height="100%" viewBox="0 0 3355 2892" version="1.1" xmlns="http://www.w3.org/2000/svg" xmlns:xlink="http://www.w3.org/1999/xlink" xml:space="preserve" xmlns:serif="http://www.serif.com/" style="fill-rule:evenodd;clip-rule:evenodd;stroke-linejoin:round;stroke-miterlimit:2;"><g id="Donut-Heart-02"><path d="M238.517,2699.12c187.931,180.627 849.821,265.374 1648.71,40.916c300.777,-84.507 587.153,-203.019 850.313,-345.779c654.741,-355.186 777.08,-1249.7 351.315,-1576.32c-345.92,-265.367 -818.237,-9.304 -1010.88,-98.503c-209.053,-96.8 -88.849,-415.958 -498.789,-631.223c-278.515,-146.252 -716.804,-42.956 -911.275,76.956c-380.484,234.609 -609.241,740.8 -638.953,1190.76c-39.934,604.742 27.908,1168.6 209.555,1343.19Zm599.482,-841.542c99.492,215.682 911.113,7.993 1045.6,-64.964c292.269,-241.281 114.794,-437.936 -351.12,-443.534c-249.627,-2.999 -240.852,-333.892 -407.057,-329.504c-334.964,8.845 -276.728,641.863 -287.424,838.002Z" style="fill:#c48464;"/><path d="M226.968,2711.14c76.856,73.869 230.885,133.034 440.755,161.576c309.615,42.106 742.025,18.79 1224.01,-116.631c301.993,-84.849 589.528,-203.837 853.752,-347.174c398.578,-216.222 602.652,-629.461 608.865,-997.015c4.178,-247.129 -81.084,-473.486 -255.353,-607.174c-211.455,-162.213 -469.058,-134.558 -683.868,-105.009c-83.477,11.483 -160.261,23.127 -224.813,22.912c-40.767,-0.135 -76.434,-4.924 -105.335,-18.306c-79.42,-36.775 -107.623,-108.199 -139.213,-192.723c-50.96,-136.353 -107.594,-306.204 -358.83,-438.132c-283.536,-148.889 -729.795,-44.548 -927.772,77.526c-384.78,237.258 -616.788,748.807 -646.836,1203.85c-24.073,364.557 -9.051,714.322 46.148,973.698c37.501,176.209 94.097,311.106 168.489,382.606l-0,0Zm23.098,-24.033c-70.926,-68.17 -123.229,-197.509 -158.983,-365.511c-54.682,-256.94 -69.338,-603.431 -45.491,-964.564c29.377,-444.876 254.883,-945.709 631.07,-1177.67c190.966,-117.751 621.285,-220.003 894.78,-76.387c240.691,126.391 294.282,289.659 343.103,420.29c34.933,93.468 68.606,170.634 156.431,211.301c32.744,15.161 73.041,21.238 119.23,21.392c65.883,0.218 144.268,-11.504 229.467,-23.224c206.881,-28.458 455.386,-57.792 659.036,98.435c166.345,127.608 246.301,344.271 242.314,580.163c-6.034,356.979 -204.321,758.277 -591.432,968.278c-262.095,142.182 -547.313,260.218 -846.873,344.383c-476.68,133.93 -904.297,157.335 -1210.5,115.693c-200.678,-27.292 -348.659,-81.946 -422.149,-152.579l0,-0.001Zm571.291,-830.433c-0.148,2.714 0.37,5.422 1.508,7.889c13.455,29.168 38.146,51.806 72.009,68.32c46.794,22.819 111.865,34.009 186.94,36.231c284.199,8.41 714.593,-110.234 809.733,-161.846c0.944,-0.512 1.836,-1.114 2.664,-1.797c124.141,-102.484 165.362,-199.009 142.205,-276.377c-14.181,-47.381 -52.498,-88.943 -113.559,-121.245c-86.204,-45.603 -219.08,-73.374 -390.177,-75.43c-83.811,-1.007 -136.218,-41.97 -176.421,-93.384c-28.327,-36.227 -50.783,-77.552 -73.389,-114.865c-41.685,-68.803 -85.387,-123.165 -157.887,-121.251c-141.668,3.741 -218.51,111.368 -258.412,254.495c-56.948,204.273 -38.757,480.867 -45.214,599.26Zm33.506,-2.535c5.714,-119.282 -11.762,-388.411 43.817,-587.774c35.576,-127.611 100.873,-226.789 227.183,-230.124c36.195,-0.956 62.554,16.955 85.594,43.481c25.887,29.802 47.577,70.051 71.939,110.447c52.571,87.169 117.087,173.997 248.884,175.581c164.362,1.975 292.18,27.756 374.99,71.563c51.617,27.306 85.225,61.286 97.213,101.339c9.789,32.708 4.775,69.047 -15.269,108.116c-21.344,41.604 -59.339,85.841 -114.958,131.95c-95.886,50.911 -514.593,165.27 -791.456,157.077c-58.267,-1.724 -110.134,-8.854 -151.016,-23.536c-35.901,-12.893 -63.079,-31.373 -76.92,-58.119l-0.001,-0.001Z" style="fill:#7e4021;"/><path d="M215.934,2587.97c46.227,67.861 102.085,99.685 179.864,128.302c8.633,3.176 18.22,-1.254 21.396,-9.887c3.177,-8.632 -1.253,-18.22 -9.886,-21.396c-70.624,-25.984 -121.85,-54.167 -163.825,-115.785c-5.179,-7.603 -15.555,-9.57 -23.158,-4.392c-7.602,5.179 -9.57,15.556 -4.391,23.158Z" style="fill:#7e4021;"/><path d="M447.031,2738.11c0.723,0.87 1.406,1.587 1.938,1.948c8.469,5.744 21.897,7.769 31.618,9.612c15.337,2.907 30.906,5.212 46.384,7.209c9.123,1.177 17.486,-5.274 18.663,-14.397c1.177,-9.123 -5.274,-17.485 -14.397,-18.662c-14.83,-1.914 -29.748,-4.115 -44.442,-6.901c-5.554,-1.052 -13.458,-1.039 -18.527,-4.075c-0.572,-0.708 -0.987,-1.2 -1.086,-1.267c-5.579,-3.768 -10.721,-3.35 -14.8,-1.933c-3.654,1.269 -7.831,3.796 -10.12,9.846c-0.244,0.646 -1.86,3.56 -0.758,9.171c0.753,3.831 2.766,7.097 5.527,9.449Zm25.713,-5.18c-2.941,6.27 -7.677,8.496 -12.399,8.996l0.725,-0.123c5.252,-1.032 9.441,-4.431 11.674,-8.873Zm0.881,-2.091c0.484,-1.123 1.51,-3.905 0.588,-8.603c0.584,2.977 0.336,5.926 -0.588,8.603Zm-4.82,-17.322c1.855,2.316 4.606,5.882 4.606,5.882c-0,0 -2.683,-3.847 -4.606,-5.882Z" style="fill:#7e4021;"/><path d="M2945.92,2113.63c-2.602,2.997 -18.262,21.016 -19.597,22.281c-26.915,25.515 -55.76,50.701 -86.054,72.085c-7.515,5.305 -9.309,15.713 -4.005,23.228c5.305,7.515 15.713,9.309 23.228,4.004c31.589,-22.298 61.699,-48.521 89.764,-75.126c1.751,-1.66 20.773,-22.859 24.005,-27.31c5.694,-7.843 3.127,-14.71 2.672,-16.012c-1.693,-4.851 -4.912,-8.09 -9.417,-9.941c-7.704,-3.165 -16.421,-0.128 -20.596,6.791Zm7.146,23.697c0.256,0.121 0.517,0.236 0.783,0.345l-0.783,-0.345Zm-7.081,-6.352c1.701,2.818 4.055,4.942 7.078,6.35c-3.026,-1.426 -5.438,-3.667 -7.078,-6.35Zm-0.161,-0.265l0.021,0.035l-0.099,-0.175l0.078,0.14Zm-0.824,-1.585l0.058,0.116l-0.155,-0.348l0.097,0.232Zm-1.471,-6.284c0.054,2.221 0.553,4.099 1.212,5.669c-0.727,-1.792 -1.145,-3.71 -1.212,-5.669Z" style="fill:#7e4021;"/><path d="M2799.77,2282.91c6.134,0.153 12.123,-3.103 15.173,-8.897c4.284,-8.14 1.153,-18.227 -6.987,-22.511c-3.452,-1.817 -11.62,-3.344 -21.985,0.906c-15.572,6.384 -46.865,26.912 -52.832,30.025c-8.156,4.255 -11.322,14.331 -7.067,22.486c4.254,8.156 14.33,11.322 22.485,7.067c3.995,-2.084 19.418,-12.063 33.761,-20.292c6.232,-3.576 14.745,-7.543 17.452,-8.784Z" style="fill:#7e4021;"/><path d="M837.999,1857.58c22.746,41.962 -17.553,-211.22 7.706,-426.973c23.591,-201.493 109.195,-363.933 224.282,-398.344c259.699,-77.649 117.583,328.285 544.139,324.859c491.187,-3.945 497.498,273.335 269.474,435.494c387.202,-25.333 438.234,-459.72 220.646,-626.639c-176.782,-135.615 -416.117,-10.378 -516.606,-50.34c-150.783,-59.963 -96.498,-230.72 -210.2,-336.563c-120.097,-111.797 -370.598,-80.202 -510.413,53.306c-280.205,267.564 -136.663,826.633 -29.028,1025.2Z" style="fill:#c48464;"/><path d="M823.346,1865.52c7.561,13.949 18.258,13.908 22.739,12.867c3.791,-0.881 7.687,-2.944 10.787,-7.396c1.899,-2.727 4.429,-9.467 4.889,-20.284c2.132,-50.087 -19.651,-246.068 0.498,-418.164c13.79,-117.785 49.041,-221.97 99.486,-293.636c32.104,-45.609 70.201,-77.876 113.016,-90.678c35,-10.464 61.845,-11.671 83.542,-5.292c24.527,7.211 41.897,24.155 57.288,45.844c17.348,24.445 32.034,54.738 49.291,86.109c26.229,47.678 58.135,97.586 111.078,135.542c52.934,37.949 127.005,64.248 238.3,63.354c119.885,-0.962 210.227,14.951 274.762,42.261c60.945,25.792 98.11,61.472 114.002,102.545c32.234,83.31 -22.476,184.626 -129.083,260.44c-6.074,4.319 -8.541,12.146 -6.044,19.168c2.498,7.022 9.354,11.532 16.791,11.045c121.254,-7.933 210.768,-54.649 270.761,-120.373c140.523,-153.945 118.541,-413.687 -41.058,-536.121c-109.964,-84.356 -243.065,-72.656 -354.621,-57.709c-42.313,5.669 -81.32,11.697 -114.295,12.168c-19.885,0.283 -37.379,-1.376 -51.676,-7.062c-69.761,-27.742 -91.199,-81.807 -109.233,-140.486c-20.298,-66.045 -36.561,-137.673 -95.77,-192.79c-50.851,-47.336 -123.614,-70.871 -202.303,-72.446c-115.658,-2.315 -243.964,42.812 -330.976,125.898c-115.203,110.006 -161.345,267.71 -167.41,430.705c-8.977,241.239 69.743,493.663 135.239,614.491Zm3.691,-68.71c-56.699,-129.177 -113.195,-340.975 -105.62,-544.542c5.736,-154.162 48.159,-303.791 157.12,-407.837c80.766,-77.122 199.932,-118.827 307.289,-116.679c69.988,1.401 135.031,21.417 180.258,63.519c54.494,50.727 67.938,117.398 86.619,178.184c20.946,68.153 47.753,129.446 128.778,161.667c42.12,16.75 107.544,7.03 182.716,-3.042c103.656,-13.888 227.729,-27.264 329.905,51.119c145.023,111.252 164.417,347.315 36.728,487.2c-45.058,49.362 -108.497,86.563 -191.105,102.366c88.689,-81.147 126.036,-180.402 94.386,-262.201c-18.581,-48.024 -60.839,-91.058 -132.098,-121.215c-67.67,-28.637 -162.311,-45.904 -288.02,-44.895c-97.961,0.787 -164.691,-20.541 -212.802,-53.068c-72.962,-49.328 -103.224,-123.565 -135.797,-181.5c-24.656,-43.855 -51.045,-78.858 -92.161,-93.157c-27.565,-9.586 -62.123,-10.159 -108.021,3.564c-49.255,14.727 -93.792,50.957 -130.725,103.427c-53.11,75.452 -90.817,184.94 -105.335,308.947c-15.799,134.945 -6.191,284.441 -2.115,368.143Z" style="fill:#7e4021;"/><path d="M268.805,2056.18c96.908,7.037 68.125,453.422 254.427,448.749c121.813,-3.055 115.141,-307.404 323.332,-329.724c256.355,-27.484 315.728,390.125 485.995,323.819c99.32,-38.677 56.084,238.742 215.946,220.836c142.861,-16.001 145.363,-414.498 335.878,-379.349c237.993,43.908 166.47,-213.269 327.829,-150.617c192.449,74.724 -49.159,-328.782 151.375,-356.496c149.012,-20.593 57.866,303.702 220.793,300.421c164.698,-3.317 159.236,-292.349 98.806,-517.846c-63.185,-235.776 167.145,-221.197 125.396,-43.166c-24.21,103.243 4.259,322.408 178.082,260.129c114.983,-41.197 -9.696,-337.718 137.56,-282.965c258.678,96.183 249.128,-513.778 -35.37,-732.026c-345.92,-265.367 -818.237,-9.304 -1010.88,-98.503c-209.053,-96.8 -88.849,-415.958 -498.789,-631.223c-278.515,-146.252 -716.804,-42.956 -911.275,76.956c-380.484,234.609 -609.241,740.8 -638.953,1190.76c-17.609,266.664 -14.439,511.115 7.56,710.365c27.891,252.61 100.518,-19.685 232.283,-10.118Zm569.194,-198.599c99.492,215.682 848.808,-16.667 1045.6,-64.964c331.449,-81.343 460.076,-546.306 166.623,-631.095c-49.795,-14.388 -61.045,95.621 -174.071,36.856c-96.119,-49.976 -92.891,103.389 -167.494,93.003c-75.819,-10.554 -55.557,-163.817 -156.736,-162.155c-172.975,2.843 -185.955,-329.369 -251.599,-265.632c-41.217,40.02 -67.371,73.16 -105.864,70.908c-86.344,-5.051 -69.468,-197.539 -155.623,-191.234c-94.518,6.916 -60.311,151.888 -146.851,225.025c-86.865,73.411 -143.795,55.623 -166.372,148.162c-14.766,60.518 50.651,120.029 48.619,209.612c-3.337,147.091 19.854,436.318 63.767,531.514Z" style="fill:#fff;"/><path d="M267.598,2072.8c5.524,0.401 10.016,3.845 14.301,8.747c6.509,7.447 12.052,18.025 17.27,30.767c17.849,43.586 30.458,110.422 47.166,176.703c17.563,69.673 39.805,138.592 75.267,182.221c26.157,32.182 59.263,51.423 102.048,50.349c29.195,-0.732 52.594,-15.242 72.763,-39.267c17.581,-20.942 32.808,-49.512 48.259,-81.008c21.692,-44.215 44.013,-94.495 76.326,-135.273c30.396,-38.359 69.905,-68.108 127.343,-74.265c71.525,-7.669 126.373,22.413 172.653,65.927c49.094,46.159 88.782,107.186 127.498,158.147c27.463,36.148 54.631,67.366 83.65,86.282c32.223,21.004 66.772,27.879 106.465,12.422c7.077,-2.756 12.896,-3.43 17.89,-1.408c5.533,2.241 9.749,7.164 13.76,13.309c7.503,11.493 13.451,27.053 19.444,44.238c12.607,36.155 25.069,78.869 46.54,111.261c24.037,36.262 58.519,60.696 114.119,54.468c32.978,-3.693 60.042,-24.211 83.092,-55.687c30.575,-41.751 54.502,-103.54 80.405,-163.084c20.389,-46.868 41.97,-92.334 70.177,-123.827c25.295,-28.242 56.147,-44.522 97.325,-36.924c64.785,11.952 108.426,2.676 140.311,-15.788c31.785,-18.405 52.089,-46.407 69.476,-74.071c10.773,-17.139 20.338,-34.057 31.649,-47.448c9.215,-10.911 19.544,-19.369 33.748,-22.016c13.168,-2.454 29.147,-0.103 49.637,7.853c38.61,14.992 63.356,11.804 78.6,0.48c10.156,-7.546 17.099,-19.144 20.793,-34.403c4.317,-17.836 4.195,-41.505 1.913,-68.255c-4.31,-50.529 -16.208,-113.14 -12.045,-165.178c2.19,-27.37 8.631,-51.685 25.246,-68.077c10.595,-10.453 25.333,-17.347 45.182,-20.09c28.841,-3.986 45.955,8.921 57.534,30.177c14.289,26.232 21.301,63.113 29.043,100.418c8.469,40.808 17.687,82.09 35.136,113.047c19.685,34.925 49.106,57.899 97.134,56.932c73.552,-1.481 118.109,-52.531 139.099,-131.135c28.807,-107.876 12.507,-269.48 -24.531,-407.688c-14.508,-54.138 -12.972,-93.895 -1.9,-120.538c9.154,-22.025 24.915,-33.939 41.797,-35.295c36.782,-2.956 70.442,39.542 53.175,113.176c-12.761,54.418 -11.519,139.378 15.699,202.536c14.546,33.754 36.454,61.343 66.578,76.445c30.082,15.08 68.755,18.162 117.652,0.643c33.008,-11.826 50.63,-40.398 59.074,-77.376c10.743,-47.049 6.321,-108.514 10.545,-155.708c1.24,-13.853 3.215,-26.333 6.976,-36.454c2.701,-7.266 6.108,-13.211 11.752,-16.453c8.564,-4.92 20.587,-3.436 37.784,2.958c47.102,17.514 86.361,13.687 117.803,-4.827c44.957,-26.473 74.529,-85.337 85.729,-161.641c26.517,-180.647 -47.589,-459.879 -222.95,-594.404c-211.455,-162.213 -469.058,-134.558 -683.868,-105.009c-83.477,11.483 -160.261,23.127 -224.813,22.912c-40.767,-0.135 -76.434,-4.924 -105.335,-18.306c-79.42,-36.775 -107.623,-108.199 -139.213,-192.723c-50.96,-136.353 -107.594,-306.204 -358.83,-438.132c-283.536,-148.889 -729.795,-44.548 -927.772,77.526c-384.78,237.258 -616.788,748.807 -646.836,1203.85c-17.681,267.763 -14.465,513.221 7.625,713.293c4.388,39.74 9.992,67.063 16.542,84.886c8.46,23.019 20.087,33.047 31.272,36.301c8.087,2.352 16.831,1.661 26.14,-2.33c9.369,-4.018 19.856,-11.938 31.126,-22.377c18.777,-17.391 40.706,-42.313 66.101,-62.251c22.483,-17.652 47.725,-31.64 76.461,-29.554l-0,0Zm2.414,-33.246c-44.068,-3.2 -82.67,20.812 -115.304,49.889c-24.306,21.656 -45.127,45.858 -62.778,59.753c-3.654,2.876 -7.089,5.25 -10.391,6.805c-1.683,0.793 -3.07,1.869 -4.491,1.293c-3.12,-1.265 -4.843,-5.27 -7.344,-10.984c-6.867,-15.692 -12.196,-41.809 -16.616,-81.844c-21.909,-198.429 -25.032,-441.873 -7.496,-707.438c29.377,-444.876 254.883,-945.709 631.07,-1177.67c190.966,-117.751 621.285,-220.003 894.78,-76.387c240.691,126.391 294.282,289.659 343.103,420.29c34.933,93.468 68.606,170.634 156.431,211.301c32.744,15.161 73.041,21.238 119.23,21.392c65.883,0.218 144.268,-11.504 229.467,-23.224c206.881,-28.458 455.386,-57.792 659.036,98.435c166.038,127.373 235.367,392.072 210.259,563.115c-9.45,64.378 -31.732,115.423 -69.663,137.758c-23.815,14.024 -53.595,15.573 -89.272,2.307c-29.951,-11.136 -51.089,-9.186 -66.004,-0.618c-9.823,5.642 -17.435,14.348 -23.001,25.78c-6.728,13.818 -10.453,32.14 -12.325,53.06c-4.102,45.837 0.593,105.562 -9.841,151.259c-5.677,24.861 -15.628,45.465 -37.82,53.416c-38.017,13.621 -68.082,12.662 -91.471,0.938c-23.345,-11.703 -39.631,-33.679 -50.904,-59.838c-24.42,-56.666 -25.307,-132.909 -13.858,-181.734c24.514,-104.539 -36.078,-158.209 -88.299,-154.012c-22.4,1.8 -44.474,13.681 -60.096,37.204c-20.33,30.611 -30.039,83.196 -9.327,160.483c35.478,132.389 52.117,287.126 24.524,390.46c-16.614,62.214 -49.351,105.236 -107.566,106.409c-33.437,0.673 -53.72,-15.659 -67.425,-39.973c-15.941,-28.283 -23.799,-66.171 -31.536,-103.453c-8.464,-40.785 -16.787,-80.911 -32.409,-109.59c-18.333,-33.655 -45.704,-53.562 -91.369,-47.252c-28.28,3.909 -48.935,14.489 -64.03,29.381c-21.921,21.628 -32.173,53.037 -35.062,89.148c-4.301,53.759 7.607,118.469 12.06,170.669c1.63,19.115 2.258,36.399 0.241,50.48c-1.427,9.964 -3.611,18.128 -9.613,22.587c-3.448,2.562 -8.076,3.437 -13.912,3.27c-8.809,-0.251 -19.564,-2.947 -32.745,-8.065c-37.922,-14.724 -64.951,-13.347 -86.079,-3.843c-20.72,9.321 -36.181,27.174 -50.433,48.807c-20.894,31.716 -39.098,72.766 -79.871,94.678c-26.425,14.201 -62.337,19.736 -114.455,10.121c-54.08,-9.978 -94.983,10.374 -128.203,47.465c-30.31,33.84 -54.005,82.407 -75.913,132.769c-24.854,57.134 -47.395,116.626 -76.732,156.687c-16.894,23.069 -35.739,39.548 -59.909,42.255c-40.318,4.516 -65.195,-13.465 -82.625,-39.759c-19.996,-30.166 -31.109,-70.149 -42.85,-103.819c-6.993,-20.054 -14.25,-38.071 -23.004,-51.483c-8.184,-12.538 -17.872,-21.413 -29.162,-25.985c-11.831,-4.791 -25.732,-5.286 -42.498,1.243c-28.414,11.065 -53.1,5.75 -76.167,-9.286c-26.272,-17.125 -50.446,-45.795 -75.309,-78.522c-39.771,-52.349 -80.776,-114.85 -131.207,-162.267c-53.245,-50.063 -116.751,-83.608 -199.04,-74.786c-67.478,7.234 -114.207,41.643 -149.916,86.707c-33.792,42.645 -57.441,95.054 -80.126,141.294c-14.132,28.807 -27.782,55.103 -43.862,74.257c-13.494,16.074 -28.537,26.887 -48.07,27.377c-38.586,0.967 -65.954,-21.337 -87.223,-54.589c-36.095,-56.431 -54.912,-143.034 -72.796,-218.974c-12.589,-53.457 -24.784,-101.901 -40.969,-132.788c-13.779,-26.296 -31.401,-40.877 -51.814,-42.36l-0,0Zm552.853,-174.995c13.489,29.242 37.297,51.457 69.583,67.354c44.691,22.005 106.385,31.839 177.919,32.542c268.161,2.639 678.759,-121.677 817.206,-155.655c206.631,-50.711 337.193,-245.085 342.885,-411.364c3.912,-114.312 -49.839,-215.59 -175.608,-251.929c-14.893,-4.303 -27.523,-1.457 -39.484,5.615c-8.905,5.265 -17.458,13.32 -26.68,21.832c-10.523,9.713 -22.123,20.39 -38.536,24.485c-16.509,4.119 -37.419,1.169 -66.309,-13.852c-24.027,-12.492 -43.226,-14.022 -59.092,-9.853c-22.771,5.983 -39.545,24.952 -54.28,47.05c-9.705,14.556 -18.636,30.381 -29.688,41.854c-7.958,8.262 -17.128,14 -29.825,12.233c-13.918,-1.938 -23,-11.013 -30.595,-22.634c-9.867,-15.099 -17.127,-34.329 -25.265,-53.136c-19.748,-45.642 -44.884,-87.504 -103.448,-86.542c-30.127,0.495 -54.627,-10.822 -75.09,-28.577c-31.191,-27.064 -53.324,-68.383 -71.478,-108.31c-19.503,-42.896 -34.512,-84.468 -49.519,-108.488c-11.13,-17.814 -23.837,-27.065 -35.999,-28.238c-9.495,-0.917 -20.008,2.162 -30.849,12.687c-20.133,19.549 -36.539,37.468 -52.66,50.174c-12.99,10.238 -25.471,16.94 -40.621,16.054c-16.027,-0.938 -26.71,-11.373 -35.55,-25.226c-11.308,-17.72 -19.396,-40.901 -27.632,-63.679c-9.191,-25.418 -18.577,-50.37 -31.171,-68.64c-15.439,-22.398 -35.473,-35.721 -63.459,-33.674c-45.234,3.31 -66.934,31.804 -81.987,71.898c-9.436,25.133 -16.268,55.136 -27.232,84.341c-9.994,26.622 -23.508,52.678 -47.174,72.679c-42.444,35.87 -77.662,49.319 -104.939,65.245c-31.532,18.41 -54.115,39.427 -66.867,91.696c-6.703,27.472 0.335,54.881 12.028,84.244c14.728,36.983 37.283,77.724 36.121,128.941c-3.384,149.149 20.767,442.345 65.295,538.873Zm493.554,-992.325c0.601,0.402 2.448,1.674 3.522,2.778c5.488,5.647 10.583,14.678 16.031,25.746c22.729,46.173 47.745,123.906 90.503,178.385c31.267,39.839 71.664,67.633 125.721,66.745c29.225,-0.48 45.453,15.739 57.565,36.336c9.738,16.561 17.004,35.817 24.844,53.722c16.043,36.64 35.724,66.924 71.755,71.94c36.712,5.11 59.706,-19.544 79.728,-49.995c8.142,-12.383 15.922,-25.523 25.043,-36.088c6.932,-8.03 14.503,-14.641 24.557,-16.364c9.047,-1.552 19.619,0.882 32.776,7.723c38.929,20.241 67.509,22.169 89.755,16.619c22.342,-5.574 38.751,-19.111 53.075,-32.333c6.103,-5.633 11.752,-11.143 17.555,-15.334c5.14,-3.711 10.248,-6.462 16.748,-4.584c108.993,31.492 154.938,119.702 151.547,218.766c-5.264,153.787 -126.409,333.231 -317.516,380.132c-137.065,33.638 -543.449,157.308 -808.933,154.696c-55.063,-0.542 -103.888,-6.499 -142.514,-20.294c-35.37,-12.632 -61.887,-31.702 -75.048,-60.233l-0,-0c-43.299,-93.865 -65.529,-379.122 -62.239,-524.155c1.076,-47.417 -15.31,-86.973 -30.401,-122.586c-12.709,-29.994 -25.271,-56.475 -18.689,-83.454c11.988,-49.134 35.318,-62.783 68.349,-80.144c25.731,-13.523 56.66,-28.874 92.59,-59.239c45.898,-38.79 60.684,-96.161 75.62,-145.22c5.254,-17.261 10.549,-33.328 17.964,-46.55c9.172,-16.357 21.907,-27.766 43.725,-29.362c15.098,-1.105 25.253,7.264 33.582,19.347c11.172,16.206 19.117,38.51 27.269,61.057c11.095,30.684 22.583,61.729 39.633,82.385c13.695,16.59 30.767,27.163 52.95,28.461c23.346,1.366 43.183,-7.374 63.2,-23.15c16.883,-13.306 34.163,-31.967 55.247,-52.439c1.176,-1.141 2.297,-2.082 3.415,-2.778c0.305,-0.19 0.777,-0.408 1.071,-0.536Z" style="fill:#7e4021;"/><path d="M1702.86,2241.49c-12.969,8.376 -43.599,31.697 -82.4,45.526c-13.235,4.717 -27.809,-2.198 -32.526,-15.433c-4.717,-13.234 2.198,-27.808 15.433,-32.525c33.969,-12.107 60.516,-33.004 71.87,-40.337c11.802,-7.623 27.573,-4.23 35.196,7.573c7.623,11.802 4.229,27.573 -7.573,35.196Z" style="fill:#d7eefb;"/><path d="M1720.95,2269.49c27.256,-17.604 35.093,-54.025 17.488,-81.281c-17.604,-27.257 -54.025,-35.093 -81.281,-17.489c-10.297,6.651 -34.17,25.959 -64.976,36.939c-30.564,10.893 -46.534,44.551 -35.641,75.115c10.894,30.564 44.552,46.534 75.115,35.641c41.967,-14.957 75.268,-39.865 89.295,-48.925Zm-18.085,-28c-12.969,8.376 -43.599,31.697 -82.4,45.526c-13.235,4.717 -27.809,-2.198 -32.526,-15.433c-4.717,-13.234 2.198,-27.808 15.433,-32.525c33.969,-12.107 60.516,-33.004 71.87,-40.337c11.802,-7.623 27.573,-4.23 35.196,7.573c7.623,11.802 4.229,27.573 -7.573,35.196Z" style="fill:#7e4021;"/><path d="M1673.3,615.996c-7.088,13.715 -22.07,49.178 -48.861,80.468c-9.138,10.672 -25.222,11.918 -35.894,2.78c-10.673,-9.138 -11.918,-25.221 -2.78,-35.894c23.454,-27.392 36.099,-58.722 42.304,-70.729c6.451,-12.482 21.821,-17.379 34.303,-10.928c12.482,6.451 17.378,21.821 10.928,34.303Z" style="fill:#facad0;"/><path d="M1702.91,631.3c14.897,-28.826 3.589,-64.323 -25.236,-79.22c-28.825,-14.897 -64.322,-3.589 -79.219,25.237c-5.628,10.889 -16.742,39.512 -38.012,64.354c-21.104,24.647 -18.227,61.79 6.42,82.893c24.647,21.103 61.791,18.226 82.894,-6.421c28.976,-33.841 45.487,-72.009 53.153,-86.843Zm-29.612,-15.304c-7.088,13.715 -22.07,49.178 -48.861,80.468c-9.138,10.672 -25.222,11.918 -35.894,2.78c-10.673,-9.138 -11.918,-25.221 -2.78,-35.894c23.454,-27.392 36.099,-58.722 42.304,-70.729c6.451,-12.482 21.821,-17.379 34.303,-10.928c12.482,6.451 17.378,21.821 10.928,34.303Z" style="fill:#7e4021;"/><path d="M1855.81,747.27c-13.731,7.058 -46.51,27.248 -86.485,37.187c-13.635,3.39 -27.457,-4.927 -30.847,-18.562c-3.39,-13.635 4.927,-27.457 18.562,-30.847c34.996,-8.701 63.474,-26.881 75.494,-33.06c12.496,-6.423 27.856,-1.493 34.279,11.003c6.423,12.496 1.493,27.856 -11.003,34.279Z" style="fill:#fee4a8;"/><path d="M1871.05,776.916c28.858,-14.833 40.245,-50.305 25.411,-79.163c-14.833,-28.858 -50.305,-40.245 -79.163,-25.411c-10.902,5.603 -36.561,22.466 -68.299,30.358c-31.488,7.829 -50.697,39.75 -42.867,71.238c7.829,31.489 39.75,50.697 71.238,42.868c43.236,-10.75 78.829,-32.256 93.68,-39.89Zm-15.238,-29.646c-13.731,7.058 -46.51,27.248 -86.485,37.187c-13.635,3.39 -27.457,-4.927 -30.847,-18.562c-3.39,-13.635 4.927,-27.457 18.562,-30.847c34.996,-8.701 63.474,-26.881 75.494,-33.06c12.496,-6.423 27.856,-1.493 34.279,11.003c6.423,12.496 1.493,27.856 -11.003,34.279Z" style="fill:#7e4021;"/><path d="M300.815,970.291c8.596,12.824 32.437,43.051 46.927,81.611c4.942,13.152 -1.723,27.842 -14.875,32.785c-13.152,4.942 -27.843,-1.723 -32.785,-14.876c-12.685,-33.757 -34.032,-59.944 -41.558,-71.17c-7.823,-11.671 -4.7,-27.497 6.971,-35.32c11.67,-7.824 27.497,-4.7 35.32,6.97Z" style="fill:#facad0;"/><path d="M328.503,951.731c-18.067,-26.952 -54.617,-34.165 -81.569,-16.098c-26.952,18.067 -34.165,54.616 -16.098,81.568c6.825,10.182 26.539,33.722 38.043,64.336c11.414,30.373 45.34,45.766 75.713,34.353c30.374,-11.414 45.767,-45.34 34.353,-75.713c-15.672,-41.705 -41.145,-74.576 -50.442,-88.446l-0,-0Zm-27.688,18.56c8.596,12.824 32.437,43.051 46.927,81.611c4.942,13.152 -1.723,27.842 -14.875,32.785c-13.152,4.942 -27.843,-1.723 -32.785,-14.876c-12.685,-33.757 -34.032,-59.944 -41.558,-71.17c-7.823,-11.671 -4.7,-27.497 6.971,-35.32c11.67,-7.824 27.497,-4.7 35.32,6.97Z" style="fill:#7e4021;"/><path d="M304.14,1867.6c15.174,2.847 53.447,7.004 91.116,23.671c12.849,5.685 18.665,20.732 12.98,33.581c-5.685,12.848 -20.732,18.664 -33.58,12.979c-32.978,-14.591 -66.62,-17.698 -79.905,-20.19c-13.809,-2.591 -22.916,-15.906 -20.325,-29.715c2.59,-13.809 15.905,-22.917 29.714,-20.326Z" style="fill:#fee4a8;"/><path d="M310.287,1834.84c-31.891,-5.984 -62.64,15.05 -68.623,46.94c-5.984,31.891 15.05,62.64 46.941,68.623c12.047,2.261 42.656,4.679 72.564,17.912c29.672,13.129 64.421,-0.303 77.55,-29.975c13.129,-29.673 -0.303,-64.422 -29.975,-77.55c-40.742,-18.027 -82.045,-22.871 -98.457,-25.95Zm-6.147,32.761c15.174,2.847 53.447,7.004 91.116,23.671c12.849,5.685 18.665,20.732 12.98,33.581c-5.685,12.848 -20.732,18.664 -33.58,12.979c-32.978,-14.591 -66.62,-17.698 -79.905,-20.19c-13.809,-2.591 -22.916,-15.906 -20.325,-29.715c2.59,-13.809 15.905,-22.917 29.714,-20.326Z" style="fill:#7e4021;"/><path d="M2031.94,1967.11c12.66,-8.836 42.434,-33.24 80.715,-48.451c13.057,-5.188 27.87,1.2 33.058,14.257c5.189,13.057 -1.2,27.87 -14.257,33.058c-33.513,13.317 -59.295,35.152 -70.378,42.887c-11.522,8.041 -27.404,5.215 -35.445,-6.307c-8.041,-11.521 -5.215,-27.403 6.307,-35.444Z" style="fill:#fee4a8;"/><path d="M2012.86,1939.78c-26.608,18.57 -33.134,55.248 -14.564,81.856c18.569,26.608 55.248,33.134 81.856,14.564c10.051,-7.015 33.218,-27.167 63.61,-39.243c30.154,-11.982 44.907,-46.191 32.926,-76.345c-11.982,-30.154 -46.191,-44.907 -76.345,-32.925c-41.403,16.451 -73.79,42.537 -87.483,52.093Zm19.077,27.335c12.66,-8.836 42.434,-33.24 80.715,-48.451c13.057,-5.188 27.87,1.2 33.058,14.257c5.189,13.057 -1.2,27.87 -14.257,33.058c-33.513,13.317 -59.295,35.152 -70.378,42.887c-11.522,8.041 -27.404,5.215 -35.445,-6.307c-8.041,-11.521 -5.215,-27.403 6.307,-35.444Z" style="fill:#7e4021;"/><path d="M2766.86,1208.06c-10.396,11.413 -34.046,41.79 -68.023,65.08c-11.588,7.943 -27.446,4.984 -35.39,-6.605c-7.944,-11.589 -4.984,-27.447 6.605,-35.39c29.744,-20.389 50.067,-47.379 59.169,-57.371c9.461,-10.386 25.575,-11.138 35.962,-1.677c10.387,9.462 11.139,25.576 1.677,35.963Z" style="fill:#fee4a8;"/><path d="M2791.51,1230.5c21.85,-23.987 20.114,-61.201 -3.873,-83.051c-23.988,-21.85 -61.202,-20.115 -83.052,3.873c-8.254,9.061 -26.397,33.832 -53.373,52.323c-26.763,18.345 -33.597,54.967 -15.252,81.73c18.345,26.764 54.967,33.598 81.731,15.253c36.747,-25.189 62.574,-57.783 73.819,-70.128Zm-24.643,-22.446c-10.396,11.413 -34.046,41.79 -68.023,65.08c-11.588,7.943 -27.446,4.984 -35.39,-6.605c-7.944,-11.589 -4.984,-27.447 6.605,-35.39c29.744,-20.389 50.067,-47.379 59.169,-57.371c9.461,-10.386 25.575,-11.138 35.962,-1.677c10.387,9.462 11.139,25.576 1.677,35.963Z" style="fill:#7e4021;"/><path d="M880.645,444.848c10.405,-11.406 34.077,-41.765 68.07,-65.03c11.595,-7.935 27.451,-4.964 35.386,6.631c7.935,11.594 4.964,27.45 -6.63,35.385c-29.76,20.367 -50.103,47.342 -59.212,57.327c-9.469,10.38 -25.583,11.12 -35.963,1.651c-10.38,-9.469 -11.12,-25.584 -1.651,-35.964Z" style="fill:#fee4a8;"/><path d="M856.019,422.384c-21.868,23.971 -20.159,61.187 3.812,83.054c23.972,21.867 61.187,20.159 83.054,-3.812c8.261,-9.056 26.423,-33.813 53.412,-52.284c26.776,-18.326 33.638,-54.943 15.312,-81.72c-18.326,-26.776 -54.943,-33.637 -81.72,-15.312c-36.766,25.162 -62.617,57.737 -73.87,70.074Zm24.626,22.464c10.405,-11.406 34.077,-41.765 68.07,-65.03c11.595,-7.935 27.451,-4.964 35.386,6.631c7.935,11.594 4.964,27.45 -6.63,35.385c-29.76,20.367 -50.103,47.342 -59.212,57.327c-9.469,10.38 -25.583,11.12 -35.963,1.651c-10.38,-9.469 -11.12,-25.584 -1.651,-35.964Z" style="fill:#7e4021;"/><path d="M2354.44,1199.42c-10.397,11.414 -34.046,41.791 -68.023,65.08c-11.589,7.944 -27.447,4.984 -35.39,-6.604c-7.944,-11.589 -4.985,-27.447 6.604,-35.391c29.745,-20.389 50.068,-47.378 59.17,-57.37c9.461,-10.387 25.575,-11.138 35.962,-1.677c10.387,9.461 11.138,25.575 1.677,35.962Z" style="fill:#d7eefb;"/><path d="M2379.09,1221.87c21.849,-23.988 20.114,-61.202 -3.874,-83.052c-23.987,-21.85 -61.201,-20.114 -83.051,3.873c-8.254,9.062 -26.398,33.833 -53.373,52.323c-26.763,18.345 -33.598,54.968 -15.252,81.731c18.345,26.763 54.967,33.598 81.73,15.252c36.748,-25.189 62.575,-57.783 73.82,-70.127Zm-24.643,-22.447c-10.397,11.414 -34.046,41.791 -68.023,65.08c-11.589,7.944 -27.447,4.984 -35.39,-6.604c-7.944,-11.589 -4.985,-27.447 6.604,-35.391c29.745,-20.389 50.068,-47.378 59.17,-57.37c9.461,-10.387 25.575,-11.138 35.962,-1.677c10.387,9.461 11.138,25.575 1.677,35.962Z" style="fill:#7e4021;"/><path d="M752.748,745.693c-14.744,4.577 -50.521,18.795 -91.612,21.671c-14.016,0.981 -26.192,-9.601 -27.173,-23.617c-0.981,-14.015 9.601,-26.191 23.617,-27.172c35.974,-2.518 67.166,-15.499 80.074,-19.506c13.419,-4.166 27.694,3.347 31.86,16.765c4.165,13.418 -3.347,27.694 -16.766,31.859Z" style="fill:#facad0;"/><path d="M762.63,777.528c30.989,-9.619 48.338,-42.588 38.718,-73.576c-9.619,-30.989 -42.587,-48.338 -73.576,-38.718c-11.706,3.634 -39.895,15.805 -72.52,18.089c-32.368,2.266 -56.807,30.384 -54.541,62.752c2.266,32.368 30.384,56.807 62.752,54.541c44.444,-3.111 83.22,-18.138 99.167,-23.088Zm-9.882,-31.835c-14.744,4.577 -50.521,18.795 -91.612,21.671c-14.016,0.981 -26.192,-9.601 -27.173,-23.617c-0.981,-14.015 9.601,-26.191 23.617,-27.172c35.974,-2.518 67.166,-15.499 80.074,-19.506c13.419,-4.166 27.694,3.347 31.86,16.765c4.165,13.418 -3.347,27.694 -16.766,31.859Z" style="fill:#7e4021;"/><path d="M342.303,1426.87c15.175,2.847 53.447,7.004 91.117,23.671c12.848,5.685 18.664,20.732 12.979,33.58c-5.684,12.849 -20.731,18.665 -33.58,12.98c-32.978,-14.592 -66.62,-17.698 -79.904,-20.191c-13.809,-2.591 -22.917,-15.905 -20.326,-29.714c2.591,-13.809 15.905,-22.917 29.714,-20.326Z" style="fill:#badcbe;"/><path d="M348.45,1394.11c-31.89,-5.983 -62.639,15.05 -68.623,46.941c-5.983,31.891 15.05,62.64 46.941,68.623c12.047,2.26 42.657,4.679 72.564,17.912c29.672,13.128 64.422,-0.303 77.55,-29.976c13.129,-29.672 -0.302,-64.421 -29.975,-77.55c-40.742,-18.026 -82.045,-22.871 -98.457,-25.95Zm-6.147,32.762c15.175,2.847 53.447,7.004 91.117,23.671c12.848,5.685 18.664,20.732 12.979,33.58c-5.684,12.849 -20.731,18.665 -33.58,12.98c-32.978,-14.592 -66.62,-17.698 -79.904,-20.191c-13.809,-2.591 -22.917,-15.905 -20.326,-29.714c2.591,-13.809 15.905,-22.917 29.714,-20.326Z" style="fill:#7e4021;"/><path d="M882.77,2013.49c15.055,-3.425 51.822,-14.838 93.013,-14.534c14.049,0.104 25.372,11.595 25.268,25.644c-0.104,14.05 -11.595,25.372 -25.644,25.268c-36.061,-0.266 -68.162,10.268 -81.341,13.267c-13.7,3.117 -27.353,-5.475 -30.47,-19.175c-3.117,-13.7 5.475,-27.353 19.174,-30.47Z" style="fill:#facad0;"/><path d="M875.375,1980.99c-31.638,7.199 -51.48,38.73 -44.282,70.368c7.198,31.639 38.729,51.481 70.368,44.283c11.952,-2.72 40.996,-12.679 73.699,-12.437c32.447,0.239 58.984,-25.908 59.223,-58.355c0.24,-32.446 -25.908,-58.983 -58.354,-59.222c-44.551,-0.329 -84.372,11.659 -100.653,15.363l-0.001,0Zm7.395,32.503c15.055,-3.425 51.822,-14.838 93.013,-14.534c14.049,0.104 25.372,11.595 25.268,25.644c-0.104,14.05 -11.595,25.372 -25.644,25.268c-36.061,-0.266 -68.162,10.268 -81.341,13.267c-13.7,3.117 -27.353,-5.475 -30.47,-19.175c-3.117,-13.7 5.475,-27.353 19.174,-30.47Z" style="fill:#7e4021;"/><path d="M1756.87,962.235c8.541,12.861 32.252,43.191 46.575,81.812c4.886,13.174 -1.843,27.835 -15.016,32.721c-13.173,4.885 -27.835,-1.843 -32.72,-15.017c-12.54,-33.811 -33.774,-60.09 -41.251,-71.349c-7.773,-11.704 -4.582,-27.517 7.122,-35.29c11.704,-7.772 27.517,-4.581 35.29,7.123Z" style="fill:#badcbe;"/><path d="M1784.63,943.794c-17.95,-27.029 -54.469,-34.4 -81.498,-16.449c-27.029,17.951 -34.4,54.469 -16.449,81.498c6.781,10.211 26.393,33.836 37.766,64.499c11.282,30.423 45.141,45.962 75.564,34.679c30.422,-11.283 45.961,-45.142 34.678,-75.564c-15.492,-41.772 -40.823,-74.753 -50.061,-88.663l0,-0Zm-27.767,18.441c8.541,12.861 32.252,43.191 46.575,81.812c4.886,13.174 -1.843,27.835 -15.016,32.721c-13.173,4.885 -27.835,-1.843 -32.72,-15.017c-12.54,-33.811 -33.774,-60.09 -41.251,-71.349c-7.773,-11.704 -4.582,-27.517 7.122,-35.29c11.704,-7.772 27.517,-4.581 35.29,7.123Z" style="fill:#7e4021;"/><path d="M414.577,1206.76c14.53,-5.218 49.649,-20.988 90.576,-25.662c13.959,-1.594 26.586,8.445 28.18,22.405c1.594,13.959 -8.445,26.586 -22.404,28.18c-35.829,4.091 -66.423,18.426 -79.143,22.994c-13.223,4.749 -27.814,-2.131 -32.563,-15.354c-4.749,-13.223 2.131,-27.814 15.354,-32.563Z" style="fill:#fee4a8;"/><path d="M403.31,1175.39c-30.537,10.967 -46.426,44.663 -35.459,75.201c10.967,30.537 44.664,46.426 75.201,35.459c11.536,-4.143 39.166,-17.537 71.658,-21.248c32.238,-3.681 55.422,-32.842 51.741,-65.08c-3.681,-32.238 -32.842,-55.422 -65.08,-51.741c-44.264,5.055 -82.345,21.765 -98.061,27.409Zm11.267,31.371c14.53,-5.218 49.649,-20.988 90.576,-25.662c13.959,-1.594 26.586,8.445 28.18,22.405c1.594,13.959 -8.445,26.586 -22.404,28.18c-35.829,4.091 -66.423,18.426 -79.143,22.994c-13.223,4.749 -27.814,-2.131 -32.563,-15.354c-4.749,-13.223 2.131,-27.814 15.354,-32.563Z" style="fill:#7e4021;"/><path d="M607.388,1814.15c6.453,-14.025 19.797,-50.137 45.128,-82.62c8.64,-11.079 24.65,-13.059 35.729,-4.419c11.079,8.64 13.06,24.649 4.42,35.729c-22.176,28.437 -33.375,60.312 -39.024,72.591c-5.873,12.764 -21.003,18.358 -33.767,12.486c-12.764,-5.873 -18.358,-21.003 -12.486,-33.767Z" style="fill:#fee4a8;"/><path d="M577.106,1800.22c-13.562,29.477 -0.641,64.419 28.836,77.982c29.476,13.562 64.419,0.641 77.981,-28.835c5.123,-11.136 14.916,-40.237 35.027,-66.026c19.954,-25.587 15.38,-62.56 -10.207,-82.513c-25.587,-19.953 -62.559,-15.38 -82.513,10.207c-27.397,35.132 -42.144,74.016 -49.124,89.185l0,0Zm30.282,13.933c6.453,-14.025 19.797,-50.137 45.128,-82.62c8.64,-11.079 24.65,-13.059 35.729,-4.419c11.079,8.64 13.06,24.649 4.42,35.729c-22.176,28.437 -33.375,60.312 -39.024,72.591c-5.873,12.764 -21.003,18.358 -33.767,12.486c-12.764,-5.873 -18.358,-21.003 -12.486,-33.767Z" style="fill:#7e4021;"/><path d="M1202.82,2193.91c-5.49,-14.43 -21.916,-49.247 -27.357,-90.078c-1.856,-13.927 7.945,-26.741 21.872,-28.596c13.926,-1.856 26.74,7.944 28.596,21.871c4.763,35.746 19.669,66.065 24.475,78.698c4.996,13.131 -1.608,27.849 -14.74,32.845c-13.132,4.996 -27.849,-1.608 -32.846,-14.74Z" style="fill:#badcbe;"/><path d="M1171.66,2205.76c11.538,30.327 45.527,45.58 75.853,34.042c30.327,-11.539 45.58,-45.527 34.042,-75.854c-4.359,-11.456 -18.27,-38.829 -22.589,-71.246c-4.286,-32.163 -33.877,-54.796 -66.04,-50.511c-32.163,4.286 -54.796,33.877 -50.51,66.04c5.884,44.162 23.306,81.923 29.244,97.529Zm31.154,-11.853c-5.49,-14.43 -21.916,-49.247 -27.357,-90.078c-1.856,-13.927 7.945,-26.741 21.872,-28.596c13.926,-1.856 26.74,7.944 28.596,21.871c4.763,35.746 19.669,66.065 24.475,78.698c4.996,13.131 -1.608,27.849 -14.74,32.845c-13.132,4.996 -27.849,-1.608 -32.846,-14.74Z" style="fill:#7e4021;"/><path d="M2445.82,933.652c8.541,12.861 32.251,43.191 46.575,81.813c4.885,13.173 -1.843,27.834 -15.016,32.72c-13.174,4.885 -27.835,-1.843 -32.721,-15.016c-12.539,-33.812 -33.773,-60.09 -41.251,-71.349c-7.773,-11.704 -4.581,-27.517 7.123,-35.29c11.704,-7.773 27.517,-4.582 35.29,7.122Z" style="fill:#badcbe;"/><path d="M2473.58,915.211c-17.951,-27.029 -54.469,-34.4 -81.498,-16.449c-27.03,17.951 -34.4,54.469 -16.449,81.499c6.781,10.21 26.393,33.835 37.765,64.499c11.283,30.422 45.142,45.961 75.565,34.678c30.422,-11.283 45.961,-45.142 34.678,-75.564c-15.492,-41.772 -40.823,-74.753 -50.061,-88.663l0,0Zm-27.767,18.441c8.541,12.861 32.251,43.191 46.575,81.813c4.885,13.173 -1.843,27.834 -15.016,32.72c-13.174,4.885 -27.835,-1.843 -32.721,-15.016c-12.539,-33.812 -33.773,-60.09 -41.251,-71.349c-7.773,-11.704 -4.581,-27.517 7.123,-35.29c11.704,-7.773 27.517,-4.582 35.29,7.122Z" style="fill:#7e4021;"/><path d="M551.559,530.961c14.53,-5.218 49.649,-20.989 90.576,-25.662c13.959,-1.594 26.586,8.445 28.18,22.404c1.594,13.96 -8.445,26.587 -22.404,28.181c-35.829,4.091 -66.423,18.426 -79.143,22.994c-13.223,4.749 -27.814,-2.131 -32.563,-15.354c-4.749,-13.223 2.131,-27.814 15.354,-32.563Z" style="fill:#d7eefb;"/><path d="M540.292,499.589c-30.537,10.968 -46.426,44.664 -35.459,75.202c10.967,30.537 44.664,46.426 75.201,35.459c11.536,-4.143 39.165,-17.538 71.658,-21.248c32.238,-3.681 55.422,-32.843 51.741,-65.08c-3.681,-32.238 -32.842,-55.422 -65.08,-51.741c-44.264,5.054 -82.346,21.764 -98.061,27.408Zm11.267,31.372c14.53,-5.218 49.649,-20.989 90.576,-25.662c13.959,-1.594 26.586,8.445 28.18,22.404c1.594,13.96 -8.445,26.587 -22.404,28.181c-35.829,4.091 -66.423,18.426 -79.143,22.994c-13.223,4.749 -27.814,-2.131 -32.563,-15.354c-4.749,-13.223 2.131,-27.814 15.354,-32.563Z" style="fill:#7e4021;"/><path d="M166.216,1380.91c6.453,-14.025 19.796,-50.136 45.128,-82.619c8.64,-11.08 24.649,-13.06 35.729,-4.42c11.079,8.64 13.059,24.649 4.419,35.729c-22.176,28.437 -33.374,60.313 -39.023,72.591c-5.873,12.764 -21.003,18.359 -33.767,12.486c-12.764,-5.873 -18.359,-21.003 -12.486,-33.767Z" style="fill:#fee4a8;"/><path d="M135.934,1366.98c-13.562,29.476 -0.642,64.419 28.835,77.981c29.477,13.562 64.419,0.642 77.981,-28.835c5.124,-11.135 14.917,-40.237 35.028,-66.026c19.953,-25.587 15.38,-62.56 -10.207,-82.513c-25.587,-19.953 -62.56,-15.379 -82.513,10.207c-27.397,35.133 -42.144,74.016 -49.124,89.185l0,0.001Zm30.282,13.932c6.453,-14.025 19.796,-50.136 45.128,-82.619c8.64,-11.08 24.649,-13.06 35.729,-4.42c11.079,8.64 13.059,24.649 4.419,35.729c-22.176,28.437 -33.374,60.313 -39.023,72.591c-5.873,12.764 -21.003,18.359 -33.767,12.486c-12.764,-5.873 -18.359,-21.003 -12.486,-33.767Z" style="fill:#7e4021;"/><path d="M513.625,2127.93c-5.49,-14.43 -21.917,-49.247 -27.358,-90.078c-1.855,-13.927 7.945,-26.741 21.872,-28.597c13.927,-1.855 26.74,7.945 28.596,21.872c4.763,35.746 19.669,66.065 24.475,78.698c4.997,13.131 -1.608,27.849 -14.74,32.845c-13.131,4.996 -27.849,-1.609 -32.845,-14.74Z" style="fill:#d7eefb;"/><path d="M482.47,2139.79c11.539,30.326 45.527,45.58 75.854,34.042c30.326,-11.539 45.579,-45.528 34.041,-75.854c-4.359,-11.456 -18.269,-38.829 -22.589,-71.247c-4.285,-32.163 -33.877,-54.795 -66.04,-50.51c-32.163,4.286 -54.795,33.877 -50.51,66.04c5.884,44.162 23.306,81.923 29.244,97.529Zm31.155,-11.853c-5.49,-14.43 -21.917,-49.247 -27.358,-90.078c-1.855,-13.927 7.945,-26.741 21.872,-28.597c13.927,-1.855 26.74,7.945 28.596,21.872c4.763,35.746 19.669,66.065 24.475,78.698c4.997,13.131 -1.608,27.849 -14.74,32.845c-13.131,4.996 -27.849,-1.609 -32.845,-14.74Z" style="fill:#7e4021;"/><path d="M2747.54,963.68c-15.065,-3.376 -53.169,-8.869 -90.232,-26.843c-12.642,-6.131 -17.928,-21.372 -11.797,-34.014c6.13,-12.642 21.371,-17.928 34.013,-11.797c32.448,15.736 65.961,20.017 79.15,22.973c13.709,3.072 22.346,16.697 19.274,30.407c-3.073,13.71 -16.698,22.347 -30.408,19.274Z" style="fill:#fee4a8;"/><path d="M2740.25,996.207c31.662,7.095 63.128,-12.85 70.223,-44.512c7.095,-31.662 -12.85,-63.128 -44.512,-70.223c-11.96,-2.68 -42.466,-6.168 -71.893,-20.438c-29.195,-14.159 -64.392,-1.951 -78.551,27.244c-14.158,29.195 -1.951,64.393 27.245,78.551c40.086,19.441 81.195,25.727 97.488,29.378Zm7.289,-32.527c-15.065,-3.376 -53.169,-8.869 -90.232,-26.843c-12.642,-6.131 -17.928,-21.372 -11.797,-34.014c6.13,-12.642 21.371,-17.928 34.013,-11.797c32.448,15.736 65.961,20.017 79.15,22.973c13.709,3.072 22.346,16.697 19.274,30.407c-3.073,13.71 -16.698,22.347 -30.408,19.274Z" style="fill:#7e4021;"/><path d="M1330.28,358.873c-6.88,13.821 -21.325,49.506 -47.641,81.197c-8.975,10.809 -25.038,12.297 -35.847,3.322c-10.809,-8.976 -12.298,-25.039 -3.322,-35.848c23.038,-27.744 35.208,-59.261 41.232,-71.36c6.261,-12.578 21.556,-17.706 34.134,-11.445c12.577,6.262 17.705,21.557 11.444,34.134Z" style="fill:#facad0;"/><path d="M1360.12,373.728c14.46,-29.047 2.618,-64.369 -26.429,-78.829c-29.047,-14.46 -64.369,-2.617 -78.83,26.43c-5.462,10.973 -16.143,39.76 -37.036,64.92c-20.728,24.963 -17.291,62.058 7.672,82.787c24.963,20.729 62.058,17.291 82.787,-7.671c28.462,-34.276 44.395,-72.689 51.836,-87.637Zm-29.84,-14.855c-6.88,13.821 -21.325,49.506 -47.641,81.197c-8.975,10.809 -25.038,12.297 -35.847,3.322c-10.809,-8.976 -12.298,-25.039 -3.322,-35.848c23.038,-27.744 35.208,-59.261 41.232,-71.36c6.261,-12.578 21.556,-17.706 34.134,-11.445c12.577,6.262 17.705,21.557 11.444,34.134Z" style="fill:#7e4021;"/><path d="M789.776,332.899c-14.656,4.851 -50.161,19.734 -91.191,23.378c-13.995,1.243 -26.366,-9.111 -27.609,-23.105c-1.243,-13.995 9.11,-26.366 23.105,-27.609c35.921,-3.19 66.865,-16.751 79.696,-20.999c13.338,-4.415 27.752,2.829 32.167,16.168c4.415,13.338 -2.829,27.751 -16.168,32.167Z" style="fill:#badcbe;"/><path d="M800.251,364.543c30.804,-10.196 47.534,-43.483 37.338,-74.286c-10.197,-30.804 -43.484,-47.534 -74.287,-37.338c-11.637,3.852 -39.593,16.548 -72.169,19.441c-32.32,2.87 -56.23,31.44 -53.36,63.76c2.87,32.32 31.44,56.23 63.76,53.359c44.377,-3.94 82.866,-19.688 98.718,-24.936Zm-10.475,-31.644c-14.656,4.851 -50.161,19.734 -91.191,23.378c-13.995,1.243 -26.366,-9.111 -27.609,-23.105c-1.243,-13.995 9.11,-26.366 23.105,-27.609c35.921,-3.19 66.865,-16.751 79.696,-20.999c13.338,-4.415 27.752,2.829 32.167,16.168c4.415,13.338 -2.829,27.751 -16.168,32.167Z" style="fill:#7e4021;"/><path d="M2591.93,1760.45c-9.517,12.156 -30.837,44.211 -62.984,69.968c-10.965,8.785 -26.999,7.015 -35.784,-3.949c-8.785,-10.965 -7.016,-26.999 3.949,-35.784c28.142,-22.549 46.398,-50.978 54.729,-61.62c8.661,-11.063 24.675,-13.014 35.738,-4.353c11.063,8.661 13.013,24.674 4.352,35.738Z" style="fill:#fee4a8;"/><path d="M2618.18,1781c20.001,-25.549 15.498,-62.53 -10.051,-82.532c-25.55,-20.001 -62.531,-15.497 -82.532,10.052c-7.556,9.651 -23.804,35.705 -49.326,56.154c-25.322,20.289 -29.408,57.319 -9.119,82.64c20.288,25.322 57.318,29.409 82.64,9.12c34.768,-27.858 58.095,-62.286 68.388,-75.434Zm-26.247,-20.547c-9.517,12.156 -30.837,44.211 -62.984,69.968c-10.965,8.785 -26.999,7.015 -35.784,-3.949c-8.785,-10.965 -7.016,-26.999 3.949,-35.784c28.142,-22.549 46.398,-50.978 54.729,-61.62c8.661,-11.063 24.675,-13.014 35.738,-4.353c11.063,8.661 13.013,24.674 4.352,35.738Z" style="fill:#7e4021;"/><path d="M2343.5,1715.94c-15.065,-3.376 -53.169,-8.869 -90.232,-26.843c-12.642,-6.131 -17.928,-21.372 -11.798,-34.014c6.131,-12.642 21.372,-17.928 34.014,-11.797c32.448,15.736 65.96,20.017 79.149,22.973c13.71,3.072 22.347,16.697 19.274,30.407c-3.072,13.71 -16.697,22.346 -30.407,19.274Z" style="fill:#badcbe;"/><path d="M2336.21,1748.47c31.662,7.095 63.128,-12.85 70.223,-44.512c7.095,-31.662 -12.85,-63.128 -44.512,-70.223c-11.961,-2.68 -42.467,-6.168 -71.893,-20.439c-29.195,-14.158 -64.393,-1.95 -78.551,27.245c-14.159,29.195 -1.951,64.393 27.244,78.551c40.087,19.441 81.195,25.726 97.489,29.378Zm7.289,-32.527c-15.065,-3.376 -53.169,-8.869 -90.232,-26.843c-12.642,-6.131 -17.928,-21.372 -11.798,-34.014c6.131,-12.642 21.372,-17.928 34.014,-11.797c32.448,15.736 65.96,20.017 79.149,22.973c13.71,3.072 22.347,16.697 19.274,30.407c-3.072,13.71 -16.697,22.346 -30.407,19.274Z" style="fill:#7e4021;"/><path d="M1429.11,641.745c-13.527,7.441 -45.725,28.544 -85.405,39.603c-13.535,3.772 -27.585,-4.154 -31.357,-17.688c-3.772,-13.535 4.154,-27.585 17.688,-31.357c34.738,-9.681 62.693,-28.654 74.536,-35.168c12.31,-6.771 27.803,-2.275 34.574,10.036c6.772,12.31 2.275,27.803 -10.036,34.574Z" style="fill:#badcbe;"/><path d="M1445.17,670.952c28.43,-15.639 38.815,-51.417 23.177,-79.846c-15.639,-28.43 -51.416,-38.816 -79.846,-23.177c-10.74,5.907 -35.916,23.485 -67.42,32.264c-31.256,8.711 -49.559,41.159 -40.849,72.415c8.711,31.256 41.159,49.56 72.415,40.849c42.917,-11.96 77.892,-34.458 92.523,-42.505Zm-16.066,-29.207c-13.527,7.441 -45.725,28.544 -85.405,39.603c-13.535,3.772 -27.585,-4.154 -31.357,-17.688c-3.772,-13.535 4.154,-27.585 17.688,-31.357c34.738,-9.681 62.693,-28.654 74.536,-35.168c12.31,-6.771 27.803,-2.275 34.574,10.036c6.772,12.31 2.275,27.803 -10.036,34.574Z" style="fill:#7e4021;"/><path d="M2130.56,780.583c12.114,9.571 44.074,31.033 69.688,63.294c8.737,11.003 6.896,27.03 -4.107,35.766c-11.004,8.737 -27.03,6.896 -35.767,-4.107c-22.423,-28.243 -50.771,-46.624 -61.376,-55.003c-11.025,-8.71 -12.904,-24.732 -4.194,-35.756c8.71,-11.025 24.732,-12.904 35.756,-4.194Z" style="fill:#facad0;"/><path d="M2151.22,754.428c-25.46,-20.115 -62.461,-15.775 -82.575,9.685c-20.115,25.46 -15.775,62.461 9.685,82.576c9.618,7.598 35.599,23.961 55.935,49.574c20.176,25.411 57.187,29.662 82.599,9.486c25.411,-20.176 29.662,-57.188 9.486,-82.599c-27.703,-34.892 -62.027,-58.371 -75.13,-68.722l0,-0Zm-20.664,26.155c12.114,9.571 44.074,31.033 69.688,63.294c8.737,11.003 6.896,27.03 -4.107,35.766c-11.004,8.737 -27.03,6.896 -35.767,-4.107c-22.423,-28.243 -50.771,-46.624 -61.376,-55.003c-11.025,-8.71 -12.904,-24.732 -4.194,-35.756c8.71,-11.025 24.732,-12.904 35.756,-4.194Z" style="fill:#7e4021;"/><path d="M327.549,800.471c12.19,-9.474 40.671,-35.375 78.12,-52.532c12.774,-5.852 27.895,-0.233 33.747,12.54c5.852,12.773 0.233,27.895 -12.54,33.747c-32.785,15.02 -57.412,38.15 -68.083,46.444c-11.094,8.622 -27.1,6.616 -35.722,-4.477c-8.622,-11.094 -6.616,-27.1 4.478,-35.722Z" style="fill:#fee4a8;"/><path d="M307.093,774.152c-25.619,19.912 -30.253,56.877 -10.341,82.496c19.912,25.619 56.877,30.253 82.497,10.341c9.678,-7.522 31.778,-28.837 61.51,-42.459c29.499,-13.515 42.476,-48.436 28.961,-77.935c-13.514,-29.498 -48.436,-42.475 -77.934,-28.961c-40.504,18.557 -71.509,46.271 -84.693,56.518Zm20.456,26.319c12.19,-9.474 40.671,-35.375 78.12,-52.532c12.774,-5.852 27.895,-0.233 33.747,12.54c5.852,12.773 0.233,27.895 -12.54,33.747c-32.785,15.02 -57.412,38.15 -68.083,46.444c-11.094,8.622 -27.1,6.616 -35.722,-4.477c-8.622,-11.094 -6.616,-27.1 4.478,-35.722Z" style="fill:#7e4021;"/><path d="M129.664,1714.79c1.776,-15.337 3.24,-53.806 17.226,-92.552c4.77,-13.215 19.372,-20.072 32.588,-15.301c13.215,4.77 20.072,19.372 15.301,32.587c-12.243,33.92 -12.984,67.697 -14.539,81.124c-1.617,13.956 -14.26,23.975 -28.217,22.358c-13.957,-1.616 -23.975,-14.26 -22.359,-28.216Z" style="fill:#fee4a8;"/><path d="M96.552,1710.96c-3.733,32.232 19.404,61.431 51.636,65.164c32.231,3.734 61.43,-19.404 65.164,-51.635c1.41,-12.176 1.677,-42.88 12.781,-73.641c11.016,-30.52 -4.818,-64.242 -35.338,-75.259c-30.519,-11.016 -64.242,4.818 -75.258,35.338c-15.127,41.905 -17.064,83.446 -18.985,100.033Zm33.112,3.836c1.776,-15.337 3.24,-53.806 17.226,-92.552c4.77,-13.215 19.372,-20.072 32.588,-15.301c13.215,4.77 20.072,19.372 15.301,32.587c-12.243,33.92 -12.984,67.697 -14.539,81.124c-1.617,13.956 -14.26,23.975 -28.217,22.358c-13.957,-1.616 -23.975,-14.26 -22.359,-28.216Z" style="fill:#7e4021;"/><path d="M1797.11,2032.74c-12.858,-8.546 -46.469,-27.317 -74.641,-57.369c-9.609,-10.251 -9.088,-26.374 1.162,-35.983c10.251,-9.609 26.374,-9.088 35.983,1.163c24.663,26.309 54.422,42.305 65.678,49.786c11.702,7.778 14.888,23.591 7.11,35.293c-7.777,11.701 -23.59,14.887 -35.292,7.11Z" style="fill:#badcbe;"/><path d="M1778.66,2060.5c27.023,17.96 63.544,10.603 81.505,-16.42c17.96,-27.023 10.602,-63.544 -16.421,-81.505c-10.208,-6.784 -37.443,-20.963 -59.81,-44.822c-22.191,-23.673 -59.426,-24.876 -83.098,-2.685c-23.673,22.191 -24.876,59.426 -2.685,83.099c30.47,32.503 66.603,53.09 80.509,62.333Zm18.451,-27.761c-12.858,-8.546 -46.469,-27.317 -74.641,-57.369c-9.609,-10.251 -9.088,-26.374 1.162,-35.983c10.251,-9.609 26.374,-9.088 35.983,1.163c24.663,26.309 54.422,42.305 65.678,49.786c11.702,7.778 14.888,23.591 7.11,35.293c-7.777,11.701 -23.59,14.887 -35.292,7.11Z" style="fill:#7e4021;"/><path d="M2903.82,1070.37c9.613,-12.081 31.186,-43.966 63.536,-69.468c11.033,-8.698 27.053,-6.802 35.751,4.232c8.698,11.034 6.802,27.054 -4.232,35.752c-28.32,22.325 -46.799,50.609 -55.215,61.185c-8.748,10.994 -24.776,12.818 -35.771,4.07c-10.994,-8.749 -12.817,-24.777 -4.069,-35.771Z" style="fill:#facad0;"/><path d="M2877.74,1049.61c-20.204,25.39 -15.992,62.406 9.398,82.609c25.39,20.203 62.405,15.992 82.609,-9.398c7.632,-9.591 24.084,-35.516 49.768,-55.763c25.481,-20.087 29.86,-57.084 9.773,-82.565c-20.088,-25.482 -57.084,-29.861 -82.566,-9.773c-34.987,27.582 -58.585,61.824 -68.982,74.89Zm26.083,20.755c9.613,-12.081 31.186,-43.966 63.536,-69.468c11.033,-8.698 27.053,-6.802 35.751,4.232c8.698,11.034 6.802,27.054 -4.232,35.752c-28.32,22.325 -46.799,50.609 -55.215,61.185c-8.748,10.994 -24.776,12.818 -35.771,4.07c-10.994,-8.749 -12.817,-24.777 -4.069,-35.771Z" style="fill:#7e4021;"/><path d="M3096.73,1316.15c-12.047,-9.655 -43.857,-31.339 -69.246,-63.777c-8.66,-11.064 -6.708,-27.077 4.356,-35.737c11.064,-8.659 27.077,-6.708 35.737,4.356c22.227,28.398 50.446,46.976 60.993,55.428c10.963,8.786 12.731,24.821 3.945,35.785c-8.787,10.963 -24.821,12.731 -35.785,3.945Z" style="fill:#d7eefb;"/><path d="M3075.88,1342.16c25.319,20.291 62.35,16.209 82.641,-9.111c20.291,-25.32 16.209,-62.35 -9.111,-82.641c-9.565,-7.665 -35.432,-24.208 -55.589,-49.962c-19.999,-25.551 -56.98,-30.059 -82.531,-10.06c-25.551,19.999 -30.059,56.98 -10.06,82.531c27.46,35.084 61.62,58.801 74.65,69.243Zm20.845,-26.011c-12.047,-9.655 -43.857,-31.339 -69.246,-63.777c-8.66,-11.064 -6.708,-27.077 4.356,-35.737c11.064,-8.659 27.077,-6.708 35.737,4.356c22.227,28.398 50.446,46.976 60.993,55.428c10.963,8.786 12.731,24.821 3.945,35.785c-8.787,10.963 -24.821,12.731 -35.785,3.945Z" style="fill:#7e4021;"/><path d="M1962.73,959.732c14.178,6.109 50.604,18.569 83.695,43.101c11.287,8.367 13.657,24.324 5.289,35.61c-8.367,11.287 -24.324,13.657 -35.61,5.29c-28.97,-21.477 -61.109,-31.895 -73.521,-37.243c-12.903,-5.56 -18.865,-20.549 -13.306,-33.453c5.56,-12.903 20.55,-18.865 33.453,-13.305Z" style="fill:#fee4a8;"/><path d="M1975.91,929.12c-29.798,-12.84 -64.415,0.928 -77.255,30.727c-12.84,29.799 0.929,64.416 30.727,77.255c11.257,4.851 40.588,13.931 66.86,33.408c26.066,19.324 62.916,13.85 82.24,-12.215c19.323,-26.066 13.85,-62.916 -12.216,-82.24c-35.789,-26.533 -75.021,-40.328 -90.356,-46.935Zm-13.19,30.612c14.178,6.109 50.604,18.569 83.695,43.101c11.287,8.367 13.657,24.324 5.289,35.61c-8.367,11.287 -24.324,13.657 -35.61,5.29c-28.97,-21.477 -61.109,-31.895 -73.521,-37.243c-12.903,-5.56 -18.865,-20.549 -13.306,-33.453c5.56,-12.903 20.55,-18.865 33.453,-13.305Z" style="fill:#7e4021;"/><path d="M461.37,1006.27c9.322,-12.306 30.13,-44.696 61.862,-70.961c10.824,-8.959 26.884,-7.445 35.843,3.379c8.958,10.823 7.444,26.884 -3.379,35.842c-27.781,22.994 -45.581,51.71 -53.743,62.483c-8.483,11.2 -24.464,13.405 -35.663,4.921c-11.199,-8.484 -13.404,-24.464 -4.92,-35.664Z" style="fill:#badcbe;"/><path d="M434.799,986.147c-19.592,25.864 -14.501,62.769 11.363,82.361c25.864,19.593 62.769,14.501 82.362,-11.363c7.401,-9.771 23.232,-36.08 48.426,-56.932c24.995,-20.689 28.492,-57.78 7.803,-82.775c-20.689,-24.996 -57.779,-28.493 -82.775,-7.804c-34.321,28.408 -57.096,63.202 -67.179,76.513Zm26.571,20.127c9.322,-12.306 30.13,-44.696 61.862,-70.961c10.824,-8.959 26.884,-7.445 35.843,3.379c8.958,10.823 7.444,26.884 -3.379,35.842c-27.781,22.994 -45.581,51.71 -53.743,62.483c-8.483,11.2 -24.464,13.405 -35.663,4.921c-11.199,-8.484 -13.404,-24.464 -4.92,-35.664Z" style="fill:#7e4021;"/><path d="M444.655,1670.84c-2.254,-15.274 -10.797,-52.812 -7.316,-93.857c1.188,-13.999 13.518,-24.401 27.518,-23.214c13.999,1.187 24.401,13.517 23.214,27.517c-3.048,35.933 4.979,68.751 6.952,82.122c2.051,13.899 -7.569,26.849 -21.469,28.9c-13.899,2.051 -26.849,-7.569 -28.899,-21.468Z" style="fill:#facad0;"/><path d="M411.678,1675.7c4.736,32.1 34.642,54.315 66.742,49.579c32.1,-4.736 54.315,-34.642 49.579,-66.742c-1.789,-12.126 -9.478,-41.852 -6.714,-74.439c2.742,-32.331 -21.28,-60.806 -53.612,-63.548c-32.331,-2.742 -60.806,21.28 -63.548,53.611c-3.765,44.393 5.116,85.02 7.553,101.539Zm32.977,-4.865c-2.254,-15.274 -10.797,-52.812 -7.316,-93.857c1.188,-13.999 13.518,-24.401 27.518,-23.214c13.999,1.187 24.401,13.517 23.214,27.517c-3.048,35.933 4.979,68.751 6.952,82.122c2.051,13.899 -7.569,26.849 -21.469,28.9c-13.899,2.051 -26.849,-7.569 -28.899,-21.468Z" style="fill:#7e4021;"/><path d="M1518.25,1980.96c15.093,3.25 53.241,8.423 90.454,26.087c12.693,6.025 18.106,21.221 12.082,33.914c-6.025,12.692 -21.221,18.106 -33.914,12.081c-32.578,-15.464 -66.126,-19.464 -79.339,-22.309c-13.735,-2.958 -22.485,-16.51 -19.528,-30.245c2.957,-13.735 16.51,-22.486 30.245,-19.528Z" style="fill:#facad0;"/><path d="M1525.26,1948.38c-31.72,-6.83 -63.018,13.378 -69.847,45.098c-6.83,31.721 13.378,63.018 45.098,69.848c11.983,2.58 42.517,5.813 72.061,19.836c29.313,13.914 64.407,1.412 78.321,-27.901c13.913,-29.312 1.411,-64.407 -27.901,-78.32c-40.248,-19.104 -81.408,-25.046 -97.732,-28.561Zm-7.016,32.587c15.093,3.25 53.241,8.423 90.454,26.087c12.693,6.025 18.106,21.221 12.082,33.914c-6.025,12.692 -21.221,18.106 -33.914,12.081c-32.578,-15.464 -66.126,-19.464 -79.339,-22.309c-13.735,-2.958 -22.485,-16.51 -19.528,-30.245c2.957,-13.735 16.51,-22.486 30.245,-19.528Z" style="fill:#7e4021;"/><path d="M1616.08,369.345c14.179,6.11 50.605,18.569 83.695,43.101c11.287,8.367 13.657,24.324 5.29,35.611c-8.368,11.286 -24.324,13.656 -35.611,5.289c-28.969,-21.476 -61.108,-31.894 -73.521,-37.243c-12.903,-5.56 -18.865,-20.549 -13.305,-33.452c5.56,-12.903 20.549,-18.865 33.452,-13.306Z" style="fill:#d7eefb;"/><path d="M1629.27,338.733c-29.799,-12.84 -64.416,0.929 -77.256,30.727c-12.839,29.799 0.929,64.416 30.728,77.256c11.256,4.85 40.588,13.931 66.86,33.407c26.065,19.324 62.915,13.851 82.239,-12.215c19.324,-26.066 13.85,-62.916 -12.215,-82.24c-35.79,-26.532 -75.021,-40.327 -90.356,-46.935Zm-13.191,30.612c14.179,6.11 50.605,18.569 83.695,43.101c11.287,8.367 13.657,24.324 5.29,35.611c-8.368,11.286 -24.324,13.656 -35.611,5.289c-28.969,-21.476 -61.108,-31.894 -73.521,-37.243c-12.903,-5.56 -18.865,-20.549 -13.305,-33.452c5.56,-12.903 20.549,-18.865 33.452,-13.306Z" style="fill:#7e4021;"/><path d="M2471.9,1381.1c14.179,6.109 50.605,18.568 83.695,43.1c11.287,8.367 13.657,24.324 5.29,35.611c-8.368,11.286 -24.324,13.656 -35.611,5.289c-28.969,-21.476 -61.108,-31.894 -73.521,-37.243c-12.903,-5.56 -18.865,-20.549 -13.305,-33.452c5.56,-12.903 20.549,-18.865 33.452,-13.305Z" style="fill:#facad0;"/><path d="M2485.09,1350.49c-29.799,-12.84 -64.416,0.929 -77.256,30.727c-12.839,29.799 0.929,64.416 30.728,77.256c11.257,4.85 40.588,13.931 66.86,33.407c26.065,19.324 62.916,13.851 82.239,-12.215c19.324,-26.066 13.85,-62.916 -12.215,-82.24c-35.79,-26.532 -75.021,-40.327 -90.356,-46.935Zm-13.191,30.613c14.179,6.109 50.605,18.568 83.695,43.1c11.287,8.367 13.657,24.324 5.29,35.611c-8.368,11.286 -24.324,13.656 -35.611,5.289c-28.969,-21.476 -61.108,-31.894 -73.521,-37.243c-12.903,-5.56 -18.865,-20.549 -13.305,-33.452c5.56,-12.903 20.549,-18.865 33.452,-13.305Z" style="fill:#7e4021;"/><path d="M1066.35,550.122c13.243,-7.936 44.638,-30.216 83.882,-42.736c13.385,-4.27 27.719,3.13 31.99,16.516c4.27,13.385 -3.131,27.719 -16.516,31.989c-34.356,10.96 -61.59,30.955 -73.183,37.902c-12.052,7.223 -27.7,3.302 -34.922,-8.749c-7.223,-12.052 -3.302,-27.7 8.749,-34.922Z" style="fill:#fee4a8;"/><path d="M1049.21,521.53c-27.832,16.68 -36.886,52.817 -20.206,80.649c16.679,27.832 52.817,36.886 80.649,20.206c10.514,-6.301 35.022,-24.798 66.179,-34.737c30.912,-9.862 48.003,-42.965 38.141,-73.877c-9.861,-30.912 -42.965,-48.003 -73.877,-38.141c-42.444,13.54 -76.563,37.316 -90.886,45.9Zm17.135,28.592c13.243,-7.936 44.638,-30.216 83.882,-42.736c13.385,-4.27 27.719,3.13 31.99,16.516c4.27,13.385 -3.131,27.719 -16.516,31.989c-34.356,10.96 -61.59,30.955 -73.183,37.902c-12.052,7.223 -27.7,3.302 -34.922,-8.749c-7.223,-12.052 -3.302,-27.7 8.749,-34.922Z" style="fill:#7e4021;"/><path d="M1438.26,103.949c-5.853,-1.556 -11.828,-2.586 -17.772,-3.619c-16.707,-2.905 -33.509,-5.394 -50.304,-7.607c-54.057,-7.122 -107.885,-7.822 -162.26,-5.881c-9.193,0.328 -16.39,8.057 -16.062,17.25c0.328,9.193 8.058,16.39 17.251,16.062c52.517,-1.874 104.508,-1.261 156.718,5.617c16.341,2.153 32.691,4.573 48.947,7.399c4.987,0.867 10.009,1.689 14.919,2.994c8.89,2.363 18.026,-2.936 20.389,-11.826c2.363,-8.89 -2.936,-18.026 -11.826,-20.389Z" style="fill:#7e4021;"/><path d="M1111.75,88.767c-19.376,2.341 -38.639,6.079 -57.905,9.619c-9.047,1.663 -15.042,10.358 -13.379,19.405c1.662,9.047 10.357,15.042 19.404,13.38c18.593,-3.417 37.179,-7.053 55.877,-9.311c9.133,-1.103 15.651,-9.413 14.548,-18.545c-1.103,-9.133 -9.413,-15.651 -18.545,-14.548Z" style="fill:#7e4021;"/><path d="M3161.4,1189.1c-0.151,1.181 -1.577,12.402 -1.631,14.569c-0.234,9.322 5.626,13.391 6.832,14.277c7.413,5.446 17.853,3.848 23.299,-3.565c2.247,-3.06 3.295,-6.635 3.226,-10.161c0.228,-1.843 1.482,-12.021 1.526,-12.741c5.1,-82.261 -30.475,-167.105 -73.755,-231.87c-5.111,-7.648 -15.469,-9.708 -23.118,-4.597c-7.648,5.111 -9.707,15.47 -4.596,23.118c39.436,59.013 72.759,136.009 68.217,210.97Z" style="fill:#7e4021;"/><path d="M3059.35,884.015c-21.411,-25.031 -52.244,-40.887 -78.805,-58.15c-7.712,-5.013 -18.044,-2.821 -23.057,4.892c-5.013,7.712 -2.821,18.044 4.892,23.057c23.986,15.59 52.303,29.263 71.639,51.869c5.98,6.99 16.509,7.811 23.499,1.831c6.991,-5.979 7.811,-16.509 1.832,-23.499Z" style="fill:#7e4021;"/></g></svg>