<?xml version="1.0" encoding="UTF-8" standalone="no"?><!DOCTYPE svg PUBLIC "-//W3C//DTD SVG 1.1//EN" "http://www.w3.org/Graphics/SVG/1.1/DTD/svg11.dtd"><svg width="100%" height="100%" viewBox="0 0 3249 3083" version="1.1" xmlns="http://www.w3.org/2000/svg" xmlns:xlink="http://www.w3.org/1999/xlink" xml:space="preserve" xmlns:serif="http://www.serif.com/" style="fill-rule:evenodd;clip-rule:evenodd;stroke-linejoin:round;stroke-miterlimit:2;"><g id="Donut-Pink"><path d="M1620.69,2341.77c126.072,-10.006 -329.795,-264.743 -532.736,-567.124c-107.873,-160.73 -73.618,-388.301 1.575,-481.964c167.082,-208.125 242.976,-95.63 423.303,-124.112c32.173,-5.082 67.672,-14.652 107.605,-31.331c-100.4,8.901 -140.931,-191.4 -439.03,-155.873c-173.559,20.684 -306.129,180.06 -338.454,294.7c-62.796,222.703 13,482.504 165.709,650.598c127.187,139.999 419.166,430.413 612.028,415.106Z" style="fill:#f6a7bc;"/><path d="M1622.01,2358.38c22.452,-1.782 32.558,-11.584 35.769,-21.732c2.87,-9.07 0.512,-22.61 -11.156,-38.53c-23.873,-32.568 -90.753,-86.791 -173.268,-155.577c-120.555,-100.495 -275.011,-233.328 -371.561,-377.187c-103.458,-154.152 -71.383,-372.412 0.732,-462.242c94.592,-117.828 157.657,-127.796 230.168,-121.883c52.364,4.27 109.015,15.444 182.739,3.799c33.314,-5.262 70.079,-15.143 111.428,-32.413c7.586,-3.169 11.728,-11.394 9.758,-19.374c-1.97,-7.981 -9.465,-13.333 -17.653,-12.607c-16.354,1.45 -30.625,-4.364 -45.148,-13.645c-17.284,-11.048 -34.656,-26.822 -54.684,-43.74c-64.396,-54.397 -153.857,-120.585 -339.699,-98.437c-180.716,21.538 -318.864,187.359 -352.522,306.727c-64.307,228.062 13.029,494.188 169.414,666.328c76.948,84.7 213.766,223.944 352.874,318.498c95.582,64.969 192.636,108.378 272.808,102.015l0.001,0Zm1.695,-33.872c-1.373,0.278 -2.903,0.53 -4.333,0.643l0,0c-74.118,5.883 -163.069,-36.291 -251.432,-96.354c-136.809,-92.991 -271.265,-230.045 -346.941,-313.344c-149.034,-164.049 -223.288,-417.525 -162.004,-634.868c30.992,-109.912 157.984,-262.842 324.385,-282.674c171.878,-20.484 254.687,40.492 314.244,90.802c21.291,17.985 39.868,34.618 58.243,46.362c2.65,1.694 5.299,3.291 7.953,4.785c-18.923,5.631 -36.727,9.58 -53.587,12.243c-70.538,11.141 -124.73,-0.012 -174.83,-4.097c-81.186,-6.62 -152.961,2.314 -258.87,134.239c-78.27,97.496 -114.704,334.377 -2.417,501.685c142.801,212.772 409.933,402.334 514.041,500.217c12.574,11.823 22.65,22.191 29.579,31.038c2.361,3.016 4.504,6.634 5.969,9.323Z" style="fill:#7e4021;"/><path d="M2702.51,380.834c-638.917,-521.139 -1416.11,-333.579 -1463.23,-318.258c-143.571,46.685 -282.543,116.644 -411.238,194.962c-403.269,245.41 -739.242,619.213 -800.461,1103.19c-132.107,1044.39 987.794,1893.37 1937.05,1669.15c1639.46,-387.247 1460.73,-2059.45 737.877,-2649.05Zm-1081.82,1960.93c323.617,-25.685 840.695,-648.05 788.15,-1002.74c-38.623,-260.712 -266.87,-465.84 -545.261,-354.781c-129.75,51.761 -166.424,146.192 -243.142,152.993c-100.4,8.901 -140.931,-191.4 -439.03,-155.873c-173.559,20.684 -306.129,180.06 -338.454,294.7c-62.796,222.703 13,482.504 165.709,650.598c127.187,139.999 419.166,430.413 612.028,415.106Z" style="fill:#ebccb8;"/><path d="M2713.05,367.919c-645.724,-526.691 -1431.3,-336.677 -1478.92,-321.193c-144.79,47.081 -284.962,117.592 -414.749,196.574c-407.545,248.013 -746.463,626.227 -808.332,1115.34c-66.798,528.086 182.523,1006.95 568.952,1325.26c386.104,318.048 908.888,475.482 1388.46,362.203c496.696,-117.321 827.885,-351.84 1028.82,-638.182c469.423,-668.97 227.404,-1622.68 -284.234,-2040l-0.001,-0Zm-21.068,25.831c500.359,408.123 737.092,1340.8 278.017,1995.02c-196.999,280.741 -522.212,509.862 -1009.19,624.889c-469.68,110.94 -981.475,-44.007 -1359.61,-355.492c-377.809,-311.216 -622.385,-779.043 -557.076,-1295.35c60.57,-478.847 393.598,-848.238 792.59,-1091.05c127.603,-77.653 265.376,-147.061 407.728,-193.349c46.614,-15.158 815.43,-200.264 1447.54,315.323l0.001,0.001Zm-1069.96,1964.63c165.044,-13.099 380.395,-176.97 546.811,-384.171c166.361,-207.132 283.295,-456.796 256.506,-637.629c-40.172,-271.175 -278.359,-483.334 -567.923,-367.818c-79.983,31.908 -125.723,79.331 -166.397,113.887c-23.489,19.956 -44.73,35.564 -72.041,37.985c-16.354,1.45 -30.625,-4.364 -45.148,-13.645c-17.284,-11.048 -34.656,-26.822 -54.684,-43.74c-64.396,-54.397 -153.857,-120.585 -339.699,-98.437c-180.716,21.538 -318.864,187.359 -352.522,306.727c-64.307,228.062 13.029,494.188 169.414,666.328c76.948,84.7 213.766,223.944 352.874,318.498c95.582,64.969 192.636,108.378 272.808,102.015l0.001,0Zm-2.638,-33.229c-74.118,5.883 -163.069,-36.291 -251.432,-96.354c-136.809,-92.991 -271.265,-230.045 -346.941,-313.344c-149.034,-164.049 -223.288,-417.525 -162.004,-634.868c30.992,-109.912 157.984,-262.842 324.385,-282.674c171.878,-20.484 254.687,40.492 314.244,90.802c21.291,17.985 39.868,34.618 58.243,46.362c21.139,13.511 42.236,20.873 66.043,18.762c34.065,-3.02 61.381,-20.893 90.679,-45.785c38.505,-32.712 81.45,-78.124 157.166,-108.329c267.22,-106.603 485.526,91.492 522.599,341.742c25.756,173.861 -89.575,412.724 -249.522,611.871c-159.891,199.077 -364.886,359.23 -523.46,371.815l0,0Z" style="fill:#7e4021;"/><path d="M451.927,710.676c57.706,-65.069 115.099,-129.259 177.663,-190.061c6.597,-6.411 6.748,-16.971 0.337,-23.568c-6.411,-6.597 -16.971,-6.748 -23.568,-0.337c-63.159,61.38 -121.117,126.162 -179.371,191.849c-6.103,6.882 -5.471,17.425 1.411,23.528c6.882,6.103 17.425,5.471 23.528,-1.411Z" style="fill:#7e4021;"/><path d="M680.429,469.999c2.38,-2.148 6.266,-5.67 7.784,-7.099c5.246,-4.942 10.539,-9.853 15.962,-14.601c17.757,-15.546 36.678,-29.794 55.223,-44.378c7.23,-5.686 8.484,-16.173 2.798,-23.403c-5.686,-7.231 -16.173,-8.485 -23.404,-2.799c-19.004,14.945 -38.377,29.569 -56.575,45.5c-5.727,5.015 -11.321,10.199 -16.862,15.419c-3.184,3 -11.563,10.627 -12.537,11.918c-7.372,9.774 -1.791,17.984 0.009,20.331c0.879,1.147 9.917,12.272 23.345,3.246c1.705,-1.146 3.13,-2.553 4.257,-4.134Zm-20.724,-24.744l-0.666,0.334l-0.729,0.413c0.482,-0.291 0.948,-0.538 1.395,-0.747Zm0.129,-0.064l-0.031,0.015l0.162,-0.071l-0.131,0.056Z" style="fill:#7e4021;"/><path d="M2196.99,2854.42c-3.048,0.314 -6.042,1.476 -8.615,3.522c-11.857,9.426 -5.836,20.101 -4.613,22.181c1.992,3.386 6.421,9.038 16.018,8.192c1.035,-0.092 3.185,-0.439 5.927,-1.465c2.481,-0.928 7.374,-3.286 9.705,-3.88c12.417,-3.164 24.362,-8.23 36.186,-13.091c40.18,-16.517 78.341,-37.479 117.535,-56.144c8.305,-3.954 11.837,-13.908 7.882,-22.213c-3.954,-8.305 -13.908,-11.837 -22.213,-7.882c-38.649,18.405 -76.256,39.122 -115.878,55.409c-10.386,4.27 -20.836,8.841 -31.743,11.62c-2.089,0.533 -6.964,2.443 -10.191,3.751Zm13.368,28.524l-0.486,0.451l0.169,-0.144l0.317,-0.307Zm2.39,-2.918c-0.654,1.019 -1.428,1.976 -2.32,2.85c1.004,-0.966 1.755,-1.93 2.32,-2.85Z" style="fill:#7e4021;"/><path d="M2431.15,2747.06c-8.984,-0.204 -16.557,6.799 -17.006,15.83c-0.456,9.188 6.632,17.017 15.819,17.473c7.784,0.387 19.301,-3.582 31.553,-11.356c20.141,-12.781 44.84,-35.62 55.265,-42.569c7.654,-5.103 9.725,-15.459 4.622,-23.113c-5.102,-7.654 -15.458,-9.725 -23.112,-4.622c-8.976,5.983 -28.496,23.683 -46.624,36.71c-5.225,3.755 -10.297,7.093 -14.879,9.418c-2.005,1.018 -5.204,2.086 -5.638,2.229Z" style="fill:#7e4021;"/><path d="M2530.3,560.699c-276.701,-57.045 -405.822,-412.926 -657.187,-408.665c-180.147,3.053 -246.626,144.628 -462.234,89.543c-122.117,-31.199 -231.48,-59.557 -255.443,91.292c-21.311,134.158 -65.792,212.764 -150.52,264.325c-150.147,91.373 -437.956,46.246 -480.079,226.419c-97.897,418.74 -400.523,282.102 -382.05,587.746c14.735,243.798 244.811,226.075 239.025,485.392c-8.294,371.691 125.779,369.975 266.86,620.986c144.985,257.956 473.663,29.055 671.074,111.72c183.561,76.866 283.45,297.566 509.679,262.182c257.402,-40.259 198.879,-241.389 474.58,-278.345c440.599,-59.06 249.649,-317.767 552.091,-459.029c294.459,-137.533 111.619,-434.049 188.21,-633.658c76.095,-198.315 -209.778,-319.259 -183.016,-658.775c18.172,-230.541 -138.214,-261.39 -330.99,-301.133Zm-909.603,1781.07c323.617,-25.685 840.695,-648.05 788.15,-1002.74c-38.623,-260.712 -266.87,-465.84 -545.261,-354.781c-129.75,51.761 -166.424,146.192 -243.142,152.993c-100.4,8.901 -140.931,-191.4 -439.03,-155.873c-173.559,20.684 -306.129,180.06 -338.454,294.7c-62.796,222.703 13,482.504 165.709,650.598c127.187,139.999 419.166,430.413 612.028,415.106Z" style="fill:#facad0;"/><path d="M2533.66,544.375c-135.197,-27.872 -233.794,-129.558 -329.842,-222.948c-101.684,-98.87 -200.969,-188.261 -330.994,-186.058c-74.721,1.267 -130.66,25.233 -185.104,50.22c-75.705,34.745 -148.368,71.611 -272.721,39.84c-52.906,-13.517 -103.537,-26.251 -146.25,-25.255c-31.743,0.74 -59.43,8.872 -81.538,27.932c-22.918,19.758 -40.243,51.8 -48.241,102.149c-20.334,128.002 -61.884,203.506 -142.724,252.702c-43.571,26.515 -99.216,40.884 -156.744,53.082c-60.061,12.735 -122.168,22.991 -175.895,40.509c-76.87,25.064 -136.746,65.17 -155.005,143.27c-47.475,203.069 -144.596,271.47 -227.604,326.162c-53.875,35.496 -101.726,66.232 -129.718,119.311c-18.924,35.885 -29.066,82.033 -25.135,147.074c7.691,127.256 70.862,186.645 132.077,247.673c55.816,55.646 109.675,112.92 106.921,236.341c-5.108,228.926 42.907,319.721 113.008,411.498c45.134,59.09 100.041,118.488 155.986,218.026c76.431,135.985 200.588,145.425 332.346,129.981c62.366,-7.309 126.366,-20.098 187.09,-25.891c57.916,-5.525 112.749,-4.836 159.73,14.838c90.373,37.844 159.899,111.44 234.927,170.875c79.762,63.185 165.357,110.919 283.765,92.4c134.155,-20.983 186.229,-83.481 240.44,-145.955c49.822,-57.415 101.721,-114.636 233.778,-132.338c229.218,-30.726 293.558,-114.368 340.529,-207.716c43.713,-86.877 69.968,-184.336 216.402,-252.731c154.893,-72.346 184.712,-186.231 185.418,-308.555c0.337,-58.335 -6.138,-118.618 -7.914,-176.834c-1.7,-55.711 0.826,-109.481 19.213,-157.399c32.38,-84.389 4.547,-155.853 -40.365,-234.052c-61.981,-107.921 -157.314,-229.998 -141.597,-429.384c5.783,-73.366 -5.606,-127.581 -29.196,-168.792c-27.813,-48.589 -72.774,-79.596 -129.198,-101.759c-53.423,-20.985 -117.359,-34.097 -185.845,-48.216l-0,0Zm-6.731,32.647c66.457,13.701 128.549,26.231 180.389,46.594c48.841,19.185 88.38,45.234 112.456,87.294c20.887,36.488 30.015,84.653 24.895,149.612c-16.399,208.035 81.252,336.003 145.922,448.605c39.525,68.82 66.645,131.243 38.149,205.509c-38.961,101.538 -12.828,227.691 -13.511,345.982c-0.636,110.22 -26.626,213.36 -166.192,278.547c-125.752,58.735 -169.624,136.831 -206.097,213.537c-25.409,53.439 -46.658,106.306 -93.849,149.845c-47.092,43.449 -119.946,77.156 -247.307,94.228c-143.643,19.255 -200.332,81.077 -254.525,143.53c-49.803,57.394 -97.168,115.591 -220.415,134.868c-107.822,16.864 -185.285,-28.06 -257.916,-85.595c-77.364,-61.286 -149.563,-136.472 -242.75,-175.494c-51.725,-21.66 -112.006,-23.357 -175.77,-17.274c-60.956,5.815 -125.202,18.63 -187.805,25.968c-118.184,13.852 -230.852,8.768 -299.408,-113.207c-56.919,-101.271 -112.635,-161.809 -158.554,-221.928c-66.481,-87.037 -111.017,-173.417 -106.173,-390.521c3.033,-135.897 -55.253,-199.419 -116.712,-260.69c-56.061,-55.89 -115.295,-109.536 -122.338,-226.078c-3.459,-57.218 4.698,-97.944 21.347,-129.514c25.369,-48.105 69.745,-74.855 118.572,-107.026c88.16,-58.085 191.302,-130.736 241.723,-346.407c19.587,-83.778 97.866,-113.008 187.131,-134.083c97.695,-23.065 208.973,-35.393 285.383,-81.892c88.616,-53.928 136.027,-135.633 158.317,-275.948c6.38,-40.164 18.803,-66.37 37.085,-82.132c20.829,-17.956 48.629,-21.613 80.264,-19.306c35.625,2.598 75.793,13.022 117.507,23.679c112.563,28.758 186.21,6.319 255.217,-23.846c64.197,-28.063 123.93,-63.698 211.425,-65.181c121.343,-2.057 212.297,84.36 307.192,176.628c100.53,97.748 204.843,202.523 346.348,231.696l0,0Zm-904.919,1781.36c165.044,-13.099 380.395,-176.97 546.811,-384.171c166.361,-207.132 283.295,-456.796 256.506,-637.629c-40.172,-271.175 -278.359,-483.334 -567.923,-367.818c-79.983,31.908 -125.723,79.331 -166.397,113.887c-23.489,19.956 -44.73,35.564 -72.041,37.985c-16.354,1.45 -30.625,-4.364 -45.148,-13.645c-17.284,-11.048 -34.656,-26.822 -54.684,-43.74c-64.396,-54.397 -153.857,-120.585 -339.699,-98.437c-180.716,21.538 -318.864,187.359 -352.522,306.727c-64.307,228.062 13.029,494.188 169.414,666.328c76.948,84.7 213.766,223.944 352.874,318.498c95.582,64.969 192.636,108.378 272.808,102.015l0.001,0Zm-2.638,-33.229c-74.118,5.883 -163.069,-36.291 -251.432,-96.354c-136.809,-92.991 -271.265,-230.045 -346.941,-313.344c-149.034,-164.049 -223.288,-417.525 -162.004,-634.868c30.992,-109.912 157.984,-262.842 324.385,-282.674c171.878,-20.484 254.687,40.492 314.244,90.802c21.291,17.985 39.868,34.618 58.243,46.362c21.139,13.511 42.236,20.873 66.043,18.762c34.065,-3.02 61.381,-20.893 90.679,-45.785c38.505,-32.712 81.45,-78.124 157.166,-108.329c267.22,-106.603 485.526,91.492 522.599,341.742c25.756,173.861 -89.575,412.724 -249.522,611.871c-159.891,199.077 -364.886,359.23 -523.46,371.815l0,0Z" style="fill:#7e4021;"/><path d="M2487.26,2009.35c2.036,15.526 4.109,54.516 18.885,93.593c5.04,13.329 19.953,20.059 33.281,15.019c13.329,-5.04 20.059,-19.952 15.019,-33.281c-12.935,-34.211 -14.203,-68.453 -15.986,-82.045c-1.853,-14.129 -14.828,-24.095 -28.956,-22.242c-14.129,1.852 -24.096,14.827 -22.243,28.956Z" style="fill:#fff;"/><path d="M2454.21,2013.68c2.2,16.774 4.792,58.828 20.756,101.048c11.546,30.537 45.712,45.955 76.249,34.409c30.537,-11.546 45.955,-45.712 34.409,-76.249c-11.748,-31.07 -12.496,-62.246 -14.114,-74.59c-4.245,-32.37 -33.972,-55.204 -66.342,-50.959c-32.369,4.245 -55.203,33.972 -50.958,66.341Zm33.05,-4.334c2.036,15.526 4.109,54.516 18.885,93.593c5.04,13.329 19.953,20.059 33.281,15.019c13.329,-5.04 20.059,-19.952 15.019,-33.281c-12.935,-34.211 -14.203,-68.453 -15.986,-82.045c-1.853,-14.129 -14.828,-24.095 -28.956,-22.242c-14.129,1.852 -24.096,14.827 -22.243,28.956Z" style="fill:#7e4021;"/><path d="M2236.3,2283.11c15.526,-2.036 54.515,-4.109 93.593,-18.884c13.329,-5.04 20.059,-19.953 15.019,-33.282c-5.04,-13.329 -19.953,-20.058 -33.281,-15.019c-34.211,12.936 -68.453,14.204 -82.045,15.986c-14.129,1.853 -24.095,14.828 -22.242,28.957c1.852,14.129 14.827,24.095 28.956,22.242Z" style="fill:#fff;"/><path d="M2240.63,2316.16c16.774,-2.2 58.828,-4.793 101.048,-20.756c30.537,-11.547 45.955,-45.713 34.409,-76.25c-11.546,-30.537 -45.712,-45.955 -76.249,-34.409c-31.07,11.748 -62.246,12.496 -74.59,14.115c-32.37,4.245 -55.204,33.971 -50.959,66.341c4.245,32.37 33.972,55.204 66.341,50.959Zm-4.334,-33.051c15.526,-2.036 54.515,-4.109 93.593,-18.884c13.329,-5.04 20.059,-19.953 15.019,-33.282c-5.04,-13.329 -19.953,-20.058 -33.281,-15.019c-34.211,12.936 -68.453,14.204 -82.045,15.986c-14.129,1.853 -24.095,14.828 -22.242,28.957c1.852,14.129 14.827,24.095 28.956,22.242Z" style="fill:#7e4021;"/><path d="M673.647,1349.12c12.417,9.538 41.453,35.642 79.534,52.827c12.988,5.861 28.292,0.074 34.153,-12.914c5.861,-12.989 0.075,-28.292 -12.914,-34.153c-33.337,-15.044 -58.447,-38.361 -69.318,-46.711c-11.3,-8.681 -27.523,-6.553 -36.203,4.747c-8.68,11.301 -6.553,27.523 4.748,36.204Z" style="fill:#fff;"/><path d="M653.341,1375.56c13.417,10.305 44.986,38.208 86.129,56.774c29.757,13.429 64.818,0.172 78.247,-29.585c13.428,-29.758 0.171,-64.819 -29.586,-78.247c-30.277,-13.663 -52.85,-35.179 -62.723,-42.763c-25.891,-19.887 -63.057,-15.013 -82.944,10.877c-19.887,25.891 -15.013,63.056 10.877,82.944Zm20.306,-26.435c12.417,9.538 41.453,35.642 79.534,52.827c12.988,5.861 28.292,0.074 34.153,-12.914c5.861,-12.989 0.075,-28.292 -12.914,-34.153c-33.337,-15.044 -58.447,-38.361 -69.318,-46.711c-11.3,-8.681 -27.523,-6.553 -36.203,4.747c-8.68,11.301 -6.553,27.523 4.748,36.204Z" style="fill:#7e4021;"/><path d="M1446.7,497.107c8.055,13.428 25.496,48.361 54.622,78.312c9.934,10.216 26.293,10.445 36.509,0.51c10.216,-9.934 10.445,-26.293 0.51,-36.509c-25.498,-26.221 -40.308,-57.121 -47.36,-68.876c-7.33,-12.22 -23.202,-16.189 -35.422,-8.859c-12.22,7.33 -16.189,23.202 -8.859,35.422Z" style="fill:#fff;"/><path d="M1418.11,514.254c8.702,14.508 27.84,52.044 59.308,84.404c22.761,23.405 60.241,23.929 83.646,1.169c23.405,-22.76 23.929,-60.241 1.169,-83.646c-23.158,-23.813 -36.269,-52.108 -42.673,-62.784c-16.794,-27.996 -53.158,-37.091 -81.154,-20.297c-27.996,16.794 -37.091,53.158 -20.296,81.154Zm28.584,-17.147c8.055,13.428 25.496,48.361 54.622,78.312c9.934,10.216 26.293,10.445 36.509,0.51c10.216,-9.934 10.445,-26.293 0.51,-36.509c-25.498,-26.221 -40.308,-57.121 -47.36,-68.876c-7.33,-12.22 -23.202,-16.189 -35.422,-8.859c-12.22,7.33 -16.189,23.202 -8.859,35.422Z" style="fill:#7e4021;"/><path d="M681.072,1002.93c5.648,14.604 16.881,51.998 40.476,86.475c8.048,11.76 24.129,14.773 35.889,6.725c11.759,-8.048 14.772,-24.129 6.724,-35.889c-20.656,-30.183 -29.984,-63.154 -34.929,-75.939c-5.141,-13.291 -20.104,-19.907 -33.394,-14.766c-13.29,5.14 -19.907,20.104 -14.766,33.394Z" style="fill:#fff;"/><path d="M649.983,1014.95c6.103,15.778 18.564,56.027 44.057,93.276c18.438,26.942 55.281,33.845 82.223,15.407c26.941,-18.438 33.845,-55.281 15.406,-82.223c-18.76,-27.412 -26.857,-57.527 -31.348,-69.138c-11.778,-30.449 -46.06,-45.607 -76.508,-33.83c-30.449,11.777 -45.607,46.059 -33.83,76.508Zm31.089,-12.025c5.648,14.604 16.881,51.998 40.476,86.475c8.048,11.76 24.129,14.773 35.889,6.725c11.759,-8.048 14.772,-24.129 6.724,-35.889c-20.656,-30.183 -29.984,-63.154 -34.929,-75.939c-5.141,-13.291 -20.104,-19.907 -33.394,-14.766c-13.29,5.14 -19.907,20.104 -14.766,33.394Z" style="fill:#7e4021;"/><path d="M2847.68,1882.6c-13.381,-8.13 -45.085,-30.92 -84.809,-43.86c-13.549,-4.413 -28.132,3.004 -32.545,16.553c-4.414,13.549 3.003,28.132 16.552,32.546c34.777,11.327 62.274,31.773 73.989,38.891c12.178,7.4 28.072,3.52 35.472,-8.658c7.399,-12.178 3.519,-28.072 -8.659,-35.472Z" style="fill:#fff;"/><path d="M2864.99,1854.11c-14.458,-8.785 -48.876,-33.087 -91.794,-47.067c-31.042,-10.111 -64.453,6.882 -74.564,37.923c-10.111,31.042 6.882,64.453 37.924,74.564c31.583,10.288 56.364,29.22 67.003,35.685c27.901,16.952 64.316,8.063 81.268,-19.837c16.952,-27.901 8.064,-64.316 -19.837,-81.268Zm-17.309,28.487c-13.381,-8.13 -45.085,-30.92 -84.809,-43.86c-13.549,-4.413 -28.132,3.004 -32.545,16.553c-4.414,13.549 3.003,28.132 16.552,32.546c34.777,11.327 62.274,31.773 73.989,38.891c12.178,7.4 28.072,3.52 35.472,-8.658c7.399,-12.178 3.519,-28.072 -8.659,-35.472Z" style="fill:#7e4021;"/><path d="M2349.5,2314.19c-8.131,13.382 -30.921,45.085 -43.86,84.809c-4.413,13.549 3.004,28.133 16.553,32.546c13.549,4.413 28.132,-3.004 32.546,-16.553c11.327,-34.776 31.773,-62.274 38.891,-73.989c7.4,-12.178 3.52,-28.072 -8.658,-35.471c-12.178,-7.4 -28.072,-3.52 -35.472,8.658Z" style="fill:#fff;"/><path d="M2321.02,2296.88c-8.785,14.458 -33.087,48.876 -47.067,91.794c-10.111,31.042 6.882,64.453 37.923,74.564c31.042,10.111 64.453,-6.882 74.564,-37.923c10.288,-31.584 29.22,-56.364 35.684,-67.004c16.953,-27.9 8.064,-64.315 -19.836,-81.268c-27.901,-16.952 -64.316,-8.063 -81.268,19.837Zm28.487,17.309c-8.131,13.382 -30.921,45.085 -43.86,84.809c-4.413,13.549 3.004,28.133 16.553,32.546c13.549,4.413 28.132,-3.004 32.546,-16.553c11.327,-34.776 31.773,-62.274 38.891,-73.989c7.4,-12.178 3.52,-28.072 -8.658,-35.471c-12.178,-7.4 -28.072,-3.52 -35.472,8.658Z" style="fill:#7e4021;"/><path d="M681.09,2339.62c-15.212,3.713 -53.745,10.016 -90.983,28.956c-12.702,6.46 -17.769,22.016 -11.309,34.718c6.46,12.701 22.017,17.768 34.718,11.308c32.6,-16.581 66.501,-21.567 79.818,-24.817c13.844,-3.379 22.339,-17.362 18.96,-31.205c-3.379,-13.843 -17.361,-22.339 -31.204,-18.96Z" style="fill:#fff;"/><path d="M673.185,2307.24c-16.435,4.011 -57.957,11.164 -98.189,31.626c-29.1,14.801 -40.709,50.441 -25.909,79.541c14.8,29.099 50.441,40.709 79.54,25.908c29.608,-15.058 60.517,-19.193 72.612,-22.146c31.716,-7.741 51.18,-39.775 43.438,-71.491c-7.742,-31.716 -39.776,-51.18 -71.492,-43.438l0,-0Zm7.905,32.382c-15.212,3.713 -53.745,10.016 -90.983,28.956c-12.702,6.46 -17.769,22.016 -11.309,34.718c6.46,12.701 22.017,17.768 34.718,11.308c32.6,-16.581 66.501,-21.567 79.818,-24.817c13.844,-3.379 22.339,-17.362 18.96,-31.205c-3.379,-13.843 -17.361,-22.339 -31.204,-18.96Z" style="fill:#7e4021;"/><path d="M2429.53,1021.79c11.256,10.885 37.144,40.114 73.029,61.507c12.24,7.296 28.101,3.283 35.398,-8.957c7.296,-12.24 3.283,-28.101 -8.957,-35.397c-31.416,-18.728 -53.719,-44.742 -63.573,-54.272c-10.243,-9.906 -26.601,-9.632 -36.508,0.611c-9.906,10.243 -9.632,26.602 0.611,36.508Z" style="fill:#fff;"/><path d="M2406.36,1045.75c12.161,11.761 40.362,43.065 79.133,66.178c28.042,16.717 64.381,7.522 81.098,-20.52c16.717,-28.043 7.522,-64.381 -20.52,-81.098c-28.532,-17.009 -48.52,-40.946 -57.469,-49.601c-23.468,-22.695 -60.946,-22.068 -83.642,1.399c-22.695,23.468 -22.068,60.947 1.4,83.642Zm23.172,-23.961c11.256,10.885 37.144,40.114 73.029,61.507c12.24,7.296 28.101,3.283 35.398,-8.957c7.296,-12.24 3.283,-28.101 -8.957,-35.397c-31.416,-18.728 -53.719,-44.742 -63.573,-54.272c-10.243,-9.906 -26.601,-9.632 -36.508,0.611c-9.906,10.243 -9.632,26.602 0.611,36.508Z" style="fill:#7e4021;"/><path d="M1755.97,2776.55c10.886,-11.255 40.115,-37.143 61.507,-73.029c7.297,-12.239 3.283,-28.101 -8.957,-35.397c-12.239,-7.297 -28.101,-3.283 -35.397,8.956c-18.728,31.416 -44.742,53.719 -54.272,63.573c-9.906,10.244 -9.632,26.602 0.611,36.508c10.244,9.906 26.602,9.633 36.508,-0.611Z" style="fill:#fff;"/><path d="M1779.93,2799.72c11.76,-12.161 43.064,-40.362 66.177,-79.133c16.717,-28.042 7.522,-64.381 -20.52,-81.098c-28.042,-16.717 -64.381,-7.522 -81.098,20.52c-17.009,28.532 -40.946,48.519 -49.601,57.469c-22.695,23.467 -22.068,60.946 1.4,83.642c23.468,22.695 60.946,22.068 83.642,-1.4Zm-23.962,-23.173c10.886,-11.255 40.115,-37.143 61.507,-73.029c7.297,-12.239 3.283,-28.101 -8.957,-35.397c-12.239,-7.297 -28.101,-3.283 -35.397,8.956c-18.728,31.416 -44.742,53.719 -54.272,63.573c-9.906,10.244 -9.632,26.602 0.611,36.508c10.244,9.906 26.602,9.633 36.508,-0.611Z" style="fill:#7e4021;"/><path d="M503.283,1989.04c15.656,-0.262 54.63,2.1 95.131,-8.148c13.814,-3.495 22.192,-17.549 18.697,-31.363c-3.496,-13.814 -17.549,-22.192 -31.363,-18.697c-35.458,8.972 -69.623,6.348 -83.329,6.578c-14.248,0.238 -25.621,11.999 -25.383,26.247c0.238,14.247 11.999,25.621 26.247,25.383Z" style="fill:#fff;"/><path d="M503.841,2022.37c16.915,-0.283 58.991,1.911 102.75,-9.161c31.649,-8.008 50.843,-40.205 42.835,-71.855c-8.009,-31.649 -40.206,-50.843 -71.855,-42.834c-32.202,8.148 -63.262,5.355 -75.709,5.563c-32.643,0.546 -58.701,27.491 -58.155,60.133c0.546,32.643 27.491,58.701 60.134,58.154l-0,0Zm-0.558,-33.328c15.656,-0.262 54.63,2.1 95.131,-8.148c13.814,-3.495 22.192,-17.549 18.697,-31.363c-3.496,-13.814 -17.549,-22.192 -31.363,-18.697c-35.458,8.972 -69.623,6.348 -83.329,6.578c-14.248,0.238 -25.621,11.999 -25.383,26.247c0.238,14.247 11.999,25.621 26.247,25.383Z" style="fill:#7e4021;"/><path d="M1795.93,556.666c3.207,15.327 8.232,54.047 25.929,91.891c6.036,12.909 21.416,18.488 34.324,12.452c12.909,-6.037 18.488,-21.417 12.452,-34.325c-15.493,-33.131 -19.355,-67.179 -22.163,-80.596c-2.919,-13.947 -16.613,-22.901 -30.56,-19.982c-13.948,2.919 -22.902,16.613 -19.982,30.56Z" style="fill:#fff;"/><path d="M1763.3,563.495c3.466,16.559 9.241,58.294 28.361,99.182c13.829,29.574 49.066,42.356 78.639,28.527c29.574,-13.829 42.356,-49.067 28.527,-78.64c-14.071,-30.089 -17.181,-61.119 -19.732,-73.304c-6.688,-31.955 -38.06,-52.468 -70.015,-45.78c-31.954,6.688 -52.468,38.06 -45.78,70.015Zm32.627,-6.829c3.207,15.327 8.232,54.047 25.929,91.891c6.036,12.909 21.416,18.488 34.324,12.452c12.909,-6.037 18.488,-21.417 12.452,-34.325c-15.493,-33.131 -19.355,-67.179 -22.163,-80.596c-2.919,-13.947 -16.613,-22.901 -30.56,-19.982c-13.948,2.919 -22.902,16.613 -19.982,30.56Z" style="fill:#7e4021;"/><path d="M2710.92,2136.8c11.256,10.886 37.144,40.115 73.029,61.507c12.24,7.297 28.102,3.283 35.398,-8.957c7.297,-12.239 3.283,-28.101 -8.956,-35.397c-31.416,-18.728 -53.719,-44.742 -63.573,-54.272c-10.244,-9.906 -26.602,-9.632 -36.508,0.611c-9.906,10.244 -9.633,26.602 0.61,36.508Z" style="fill:#fff;"/><path d="M2687.75,2160.76c12.161,11.76 40.362,43.064 79.133,66.177c28.042,16.717 64.381,7.522 81.098,-20.52c16.717,-28.042 7.522,-64.381 -20.52,-81.098c-28.532,-17.009 -48.519,-40.946 -57.469,-49.601c-23.467,-22.695 -60.946,-22.068 -83.642,1.4c-22.695,23.468 -22.068,60.946 1.4,83.642Zm23.172,-23.962c11.256,10.886 37.144,40.115 73.029,61.507c12.24,7.297 28.102,3.283 35.398,-8.957c7.297,-12.239 3.283,-28.101 -8.956,-35.397c-31.416,-18.728 -53.719,-44.742 -63.573,-54.272c-10.244,-9.906 -26.602,-9.632 -36.508,0.611c-9.906,10.244 -9.633,26.602 0.61,36.508Z" style="fill:#7e4021;"/><path d="M2603.7,2450.95c10.886,-11.256 40.114,-37.144 61.507,-73.029c7.297,-12.24 3.283,-28.101 -8.957,-35.398c-12.24,-7.296 -28.101,-3.283 -35.397,8.957c-18.728,31.416 -44.742,53.719 -54.272,63.573c-9.906,10.243 -9.632,26.602 0.611,36.508c10.243,9.906 26.602,9.632 36.508,-0.611Z" style="fill:#fff;"/><path d="M2627.66,2474.12c11.76,-12.16 43.064,-40.362 66.177,-79.133c16.717,-28.042 7.522,-64.381 -20.52,-81.098c-28.043,-16.716 -64.381,-7.522 -81.098,20.521c-17.009,28.531 -40.946,48.519 -49.601,57.468c-22.695,23.468 -22.068,60.947 1.4,83.642c23.467,22.695 60.946,22.068 83.642,-1.399l-0,-0.001Zm-23.962,-23.172c10.886,-11.256 40.114,-37.144 61.507,-73.029c7.297,-12.24 3.283,-28.101 -8.957,-35.398c-12.24,-7.296 -28.101,-3.283 -35.397,8.957c-18.728,31.416 -44.742,53.719 -54.272,63.573c-9.906,10.243 -9.632,26.602 0.611,36.508c10.243,9.906 26.602,9.632 36.508,-0.611Z" style="fill:#7e4021;"/><path d="M2155.46,729.087c3.208,15.327 8.232,54.047 25.929,91.891c6.036,12.909 21.417,18.488 34.325,12.452c12.908,-6.037 18.487,-21.417 12.451,-34.325c-15.493,-33.131 -19.355,-67.179 -22.163,-80.596c-2.919,-13.947 -16.613,-22.901 -30.56,-19.982c-13.948,2.919 -22.901,16.613 -19.982,30.56Z" style="fill:#fff;"/><path d="M2122.83,735.916c3.466,16.559 9.241,58.294 28.361,99.182c13.829,29.574 49.066,42.356 78.64,28.527c29.573,-13.83 42.355,-49.067 28.526,-78.64c-14.071,-30.089 -17.181,-61.119 -19.731,-73.304c-6.688,-31.955 -38.061,-52.468 -70.016,-45.78c-31.954,6.687 -52.467,38.06 -45.78,70.015Zm32.627,-6.829c3.208,15.327 8.232,54.047 25.929,91.891c6.036,12.909 21.417,18.488 34.325,12.452c12.908,-6.037 18.487,-21.417 12.451,-34.325c-15.493,-33.131 -19.355,-67.179 -22.163,-80.596c-2.919,-13.947 -16.613,-22.901 -30.56,-19.982c-13.948,2.919 -22.901,16.613 -19.982,30.56Z" style="fill:#7e4021;"/><path d="M2501.19,1697.3c-7.82,13.566 -29.873,45.787 -41.892,85.799c-4.099,13.647 3.652,28.055 17.3,32.155c13.647,4.099 28.055,-3.652 32.155,-17.3c10.522,-35.028 30.328,-62.99 37.174,-74.866c7.116,-12.345 2.871,-28.146 -9.475,-35.262c-12.345,-7.117 -28.146,-2.871 -35.262,9.474Z" style="fill:#fff;"/><path d="M2472.32,1680.65c-8.449,14.657 -31.951,49.627 -44.937,92.856c-9.392,31.267 8.367,64.277 39.634,73.669c31.267,9.392 64.277,-8.367 73.669,-39.634c9.556,-31.812 27.911,-57.023 34.129,-67.809c16.304,-28.284 6.577,-64.484 -21.707,-80.788c-28.284,-16.304 -64.484,-6.578 -80.788,21.706Zm28.879,16.647c-7.82,13.566 -29.873,45.787 -41.892,85.799c-4.099,13.647 3.652,28.055 17.3,32.155c13.647,4.099 28.055,-3.652 32.155,-17.3c10.522,-35.028 30.328,-62.99 37.174,-74.866c7.116,-12.345 2.871,-28.146 -9.475,-35.262c-12.345,-7.117 -28.146,-2.871 -35.262,9.474Z" style="fill:#7e4021;"/><path d="M2137.11,2631.12c13.566,7.82 45.787,29.872 85.799,41.891c13.647,4.1 28.055,-3.652 32.155,-17.299c4.099,-13.648 -3.652,-28.056 -17.299,-32.155c-35.029,-10.522 -62.991,-30.328 -74.867,-37.174c-12.345,-7.117 -28.146,-2.871 -35.262,9.474c-7.117,12.346 -2.871,28.146 9.474,35.263Z" style="fill:#fff;"/><path d="M2120.47,2660c14.657,8.448 49.627,31.951 92.856,44.936c31.267,9.392 64.277,-8.367 73.669,-39.634c9.392,-31.266 -8.367,-64.276 -39.634,-73.668c-31.812,-9.557 -57.023,-27.912 -67.809,-34.129c-28.284,-16.304 -64.484,-6.578 -80.788,21.706c-16.304,28.285 -6.578,64.485 21.706,80.789l0,-0Zm16.647,-28.879c13.566,7.82 45.787,29.872 85.799,41.891c13.647,4.1 28.055,-3.652 32.155,-17.299c4.099,-13.648 -3.652,-28.056 -17.299,-32.155c-35.029,-10.522 -62.991,-30.328 -74.867,-37.174c-12.345,-7.117 -28.146,-2.871 -35.262,9.474c-7.117,12.346 -2.871,28.146 9.474,35.263Z" style="fill:#7e4021;"/><path d="M875.625,2155.72c4.063,15.122 11.253,53.499 31.047,90.29c6.751,12.549 22.421,17.256 34.969,10.505c12.549,-6.752 17.256,-22.421 10.505,-34.97c-17.329,-32.209 -23.096,-65.986 -26.653,-79.225c-3.697,-13.761 -17.872,-21.932 -31.634,-18.234c-13.761,3.697 -21.932,17.872 -18.234,31.634Z" style="fill:#fff;"/><path d="M843.433,2164.37c4.39,16.338 12.499,57.684 33.884,97.434c15.468,28.75 51.367,39.534 80.117,24.066c28.75,-15.467 39.534,-51.367 24.067,-80.117c-15.738,-29.252 -20.586,-60.058 -23.816,-72.081c-8.471,-31.529 -40.946,-50.248 -72.475,-41.777c-31.529,8.471 -50.248,40.946 -41.777,72.475Zm32.192,-8.649c4.063,15.122 11.253,53.499 31.047,90.29c6.751,12.549 22.421,17.256 34.969,10.505c12.549,-6.752 17.256,-22.421 10.505,-34.97c-17.329,-32.209 -23.096,-65.986 -26.653,-79.225c-3.697,-13.761 -17.872,-21.932 -31.634,-18.234c-13.761,3.697 -21.932,17.872 -18.234,31.634Z" style="fill:#7e4021;"/><path d="M2733.25,825.605c-7.82,13.566 -29.873,45.787 -41.892,85.799c-4.099,13.647 3.652,28.055 17.3,32.155c13.647,4.099 28.055,-3.652 32.155,-17.299c10.522,-35.029 30.328,-62.991 37.174,-74.867c7.116,-12.345 2.871,-28.146 -9.475,-35.262c-12.345,-7.117 -28.146,-2.871 -35.262,9.474Z" style="fill:#fff;"/><path d="M2704.37,808.958c-8.449,14.657 -31.951,49.627 -44.937,92.856c-9.392,31.267 8.367,64.277 39.634,73.669c31.267,9.392 64.277,-8.367 73.669,-39.634c9.556,-31.812 27.911,-57.023 34.129,-67.809c16.304,-28.284 6.577,-64.484 -21.707,-80.788c-28.284,-16.304 -64.484,-6.578 -80.788,21.706Zm28.879,16.647c-7.82,13.566 -29.873,45.787 -41.892,85.799c-4.099,13.647 3.652,28.055 17.3,32.155c13.647,4.099 28.055,-3.652 32.155,-17.299c10.522,-35.029 30.328,-62.991 37.174,-74.867c7.116,-12.345 2.871,-28.146 -9.475,-35.262c-12.345,-7.117 -28.146,-2.871 -35.262,9.474Z" style="fill:#7e4021;"/><path d="M1292.51,2428.62c13.566,7.82 45.787,29.872 85.799,41.891c13.647,4.1 28.055,-3.652 32.155,-17.299c4.099,-13.648 -3.652,-28.056 -17.3,-32.155c-35.028,-10.522 -62.99,-30.328 -74.866,-37.174c-12.346,-7.117 -28.146,-2.871 -35.262,9.474c-7.117,12.346 -2.871,28.146 9.474,35.263Z" style="fill:#fff;"/><path d="M1275.86,2457.5c14.657,8.448 49.627,31.951 92.856,44.936c31.267,9.392 64.277,-8.367 73.669,-39.634c9.392,-31.266 -8.367,-64.276 -39.634,-73.668c-31.812,-9.557 -57.023,-27.912 -67.809,-34.129c-28.284,-16.304 -64.484,-6.578 -80.788,21.706c-16.304,28.285 -6.578,64.485 21.706,80.789Zm16.647,-28.879c13.566,7.82 45.787,29.872 85.799,41.891c13.647,4.1 28.055,-3.652 32.155,-17.299c4.099,-13.648 -3.652,-28.056 -17.3,-32.155c-35.028,-10.522 -62.99,-30.328 -74.866,-37.174c-12.346,-7.117 -28.146,-2.871 -35.262,9.474c-7.117,12.346 -2.871,28.146 9.474,35.263Z" style="fill:#7e4021;"/><path d="M421.588,1415.3c4.063,15.122 11.253,53.499 31.047,90.29c6.751,12.549 22.421,17.256 34.97,10.505c12.548,-6.751 17.255,-22.421 10.504,-34.97c-17.328,-32.209 -23.095,-65.986 -26.653,-79.224c-3.697,-13.762 -17.872,-21.933 -31.633,-18.235c-13.762,3.698 -21.933,17.872 -18.235,31.634Z" style="fill:#fff;"/><path d="M389.396,1423.95c4.39,16.339 12.499,57.684 33.884,97.434c15.468,28.751 51.367,39.534 80.117,24.067c28.751,-15.468 39.534,-51.367 24.067,-80.117c-15.738,-29.252 -20.585,-60.058 -23.816,-72.082c-8.471,-31.528 -40.946,-50.248 -72.475,-41.777c-31.529,8.472 -50.248,40.947 -41.777,72.475Zm32.192,-8.649c4.063,15.122 11.253,53.499 31.047,90.29c6.751,12.549 22.421,17.256 34.97,10.505c12.548,-6.751 17.255,-22.421 10.504,-34.97c-17.328,-32.209 -23.095,-65.986 -26.653,-79.224c-3.697,-13.762 -17.872,-21.933 -31.633,-18.235c-13.762,3.698 -21.933,17.872 -18.235,31.634Z" style="fill:#7e4021;"/><path d="M2096.74,424.155c-14.086,6.84 -50.42,21.134 -82.822,47.506c-11.052,8.996 -12.722,25.271 -3.726,36.323c8.995,11.052 25.27,12.721 36.322,3.726c28.367,-23.088 60.451,-35.117 72.782,-41.105c12.819,-6.225 18.172,-21.685 11.947,-34.503c-6.225,-12.819 -21.685,-18.172 -34.503,-11.947Z" style="fill:#fff;"/><path d="M2082.18,394.17c-15.219,7.39 -54.295,23.145 -89.303,51.639c-25.32,20.608 -29.145,57.897 -8.537,83.217c20.609,25.32 57.897,29.145 83.217,8.537c25.762,-20.969 55.103,-31.535 66.301,-36.973c29.368,-14.261 41.632,-49.682 27.371,-79.049c-14.261,-29.368 -49.682,-41.632 -79.049,-27.371Zm14.561,29.985c-14.086,6.84 -50.42,21.134 -82.822,47.506c-11.052,8.996 -12.722,25.271 -3.726,36.323c8.995,11.052 25.27,12.721 36.322,3.726c28.367,-23.088 60.451,-35.117 72.782,-41.105c12.819,-6.225 18.172,-21.685 11.947,-34.503c-6.225,-12.819 -21.685,-18.172 -34.503,-11.947Z" style="fill:#7e4021;"/><path d="M2433.41,773.191c15.033,-4.384 53.248,-12.39 89.61,-32.962c12.402,-7.017 16.774,-22.783 9.757,-35.186c-7.017,-12.402 -22.783,-16.774 -35.185,-9.757c-31.833,18.01 -65.479,24.495 -78.639,28.333c-13.68,3.99 -21.547,18.335 -17.557,32.015c3.989,13.68 18.335,21.547 32.014,17.557Z" style="fill:#fff;"/><path d="M2442.74,805.191c16.241,-4.736 57.405,-13.724 96.691,-35.951c28.414,-16.076 38.431,-52.197 22.355,-80.611c-16.076,-28.414 -52.197,-38.431 -80.611,-22.355c-28.911,16.357 -59.606,21.859 -71.558,25.345c-31.341,9.14 -49.365,42.007 -40.225,73.348c9.141,31.341 42.007,49.365 73.348,40.224Zm-9.333,-32c15.033,-4.384 53.248,-12.39 89.61,-32.962c12.402,-7.017 16.774,-22.783 9.757,-35.186c-7.017,-12.402 -22.783,-16.774 -35.185,-9.757c-31.833,18.01 -65.479,24.495 -78.639,28.333c-13.68,3.99 -21.547,18.335 -17.557,32.015c3.989,13.68 18.335,21.547 32.014,17.557Z" style="fill:#7e4021;"/><path d="M1142.64,2595.38c-4.384,-15.032 -12.39,-53.247 -32.962,-89.609c-7.017,-12.402 -22.783,-16.774 -35.186,-9.757c-12.402,7.017 -16.774,22.782 -9.757,35.185c18.01,31.833 24.495,65.479 28.333,78.639c3.99,13.68 18.335,21.547 32.015,17.557c13.68,-3.99 21.547,-18.335 17.557,-32.015Z" style="fill:#fff;"/><path d="M1174.64,2586.05c-4.736,-16.241 -13.723,-57.404 -35.95,-96.69c-16.077,-28.414 -52.197,-38.431 -80.612,-22.355c-28.414,16.076 -38.431,52.197 -22.355,80.611c16.357,28.91 21.859,59.606 25.345,71.558c9.141,31.341 42.007,49.365 73.348,40.224c31.341,-9.14 49.365,-42.007 40.224,-73.348Zm-32,9.333c-4.384,-15.032 -12.39,-53.247 -32.962,-89.609c-7.017,-12.402 -22.783,-16.774 -35.186,-9.757c-12.402,7.017 -16.774,22.782 -9.757,35.185c18.01,31.833 24.495,65.479 28.333,78.639c3.99,13.68 18.335,21.547 32.015,17.557c13.68,-3.99 21.547,-18.335 17.557,-32.015Z" style="fill:#7e4021;"/><path d="M2037.32,208.542c-9.284,12.61 -34.792,42.17 -51.199,80.592c-5.596,13.105 0.501,28.288 13.606,33.884c13.105,5.596 28.288,-0.501 33.884,-13.606c14.363,-33.636 37.163,-59.214 45.291,-70.253c8.449,-11.475 5.992,-27.651 -5.483,-36.099c-11.474,-8.449 -27.65,-5.992 -36.099,5.482Z" style="fill:#fff;"/><path d="M2010.48,188.779c-10.031,13.623 -37.286,45.753 -55.012,87.265c-12.821,30.024 1.146,64.809 31.171,77.629c30.024,12.821 64.808,-1.146 77.629,-31.17c13.044,-30.549 34.097,-53.555 41.478,-63.58c19.357,-26.29 13.729,-63.349 -12.561,-82.706c-26.289,-19.356 -63.348,-13.728 -82.705,12.562Zm26.842,19.763c-9.284,12.61 -34.792,42.17 -51.199,80.592c-5.596,13.105 0.501,28.288 13.606,33.884c13.105,5.596 28.288,-0.501 33.884,-13.606c14.363,-33.636 37.163,-59.214 45.291,-70.253c8.449,-11.475 5.992,-27.651 -5.483,-36.099c-11.474,-8.449 -27.65,-5.992 -36.099,5.482Z" style="fill:#7e4021;"/><path d="M2732.79,1539.36c15.032,-4.384 53.247,-12.39 89.609,-32.963c12.402,-7.016 16.774,-22.782 9.757,-35.185c-7.016,-12.402 -22.782,-16.774 -35.185,-9.757c-31.833,18.01 -65.479,24.495 -78.639,28.333c-13.68,3.99 -21.547,18.335 -17.557,32.015c3.99,13.68 18.335,21.547 32.015,17.557Z" style="fill:#fff;"/><path d="M2742.12,1571.36c16.241,-4.737 57.404,-13.724 96.69,-35.951c28.415,-16.076 38.432,-52.197 22.355,-80.611c-16.076,-28.414 -52.197,-38.431 -80.611,-22.355c-28.91,16.357 -59.606,21.859 -71.558,25.345c-31.341,9.14 -49.365,42.007 -40.224,73.348c9.14,31.341 42.007,49.365 73.348,40.224Zm-9.333,-32c15.032,-4.384 53.247,-12.39 89.609,-32.963c12.402,-7.016 16.774,-22.782 9.757,-35.185c-7.016,-12.402 -22.782,-16.774 -35.185,-9.757c-31.833,18.01 -65.479,24.495 -78.639,28.333c-13.68,3.99 -21.547,18.335 -17.557,32.015c3.99,13.68 18.335,21.547 32.015,17.557Z" style="fill:#7e4021;"/><path d="M2006.26,2429.08c-4.384,-15.033 -12.39,-53.248 -32.963,-89.61c-7.017,-12.402 -22.783,-16.774 -35.185,-9.757c-12.402,7.017 -16.774,22.783 -9.757,35.185c18.01,31.833 24.495,65.479 28.333,78.639c3.989,13.68 18.335,21.547 32.015,17.557c13.68,-3.989 21.547,-18.335 17.557,-32.014Z" style="fill:#fff;"/><path d="M2038.26,2419.75c-4.737,-16.241 -13.724,-57.405 -35.951,-96.691c-16.076,-28.414 -52.197,-38.431 -80.611,-22.355c-28.414,16.076 -38.431,52.197 -22.355,80.611c16.357,28.911 21.859,59.606 25.345,71.558c9.14,31.341 42.006,49.365 73.348,40.225c31.341,-9.141 49.365,-42.007 40.224,-73.348Zm-32,9.333c-4.384,-15.033 -12.39,-53.248 -32.963,-89.61c-7.017,-12.402 -22.783,-16.774 -35.185,-9.757c-12.402,7.017 -16.774,22.783 -9.757,35.185c18.01,31.833 24.495,65.479 28.333,78.639c3.989,13.68 18.335,21.547 32.015,17.557c13.68,-3.989 21.547,-18.335 17.557,-32.014Z" style="fill:#7e4021;"/><path d="M833.785,2000.38c15.575,1.609 53.988,8.606 95.423,3.265c14.133,-1.821 24.128,-14.774 22.307,-28.907c-1.822,-14.133 -14.775,-24.128 -28.908,-22.306c-36.274,4.675 -69.882,-2.008 -83.517,-3.416c-14.175,-1.464 -26.871,8.855 -28.335,23.029c-1.464,14.175 8.855,26.871 23.03,28.335Z" style="fill:#fff;"/><path d="M830.36,2033.54c16.828,1.738 58.342,8.938 103.109,3.168c32.379,-4.173 55.279,-33.849 51.106,-66.228c-4.174,-32.379 -33.85,-55.279 -66.229,-51.105c-32.944,4.246 -63.448,-2.234 -75.832,-3.513c-32.474,-3.354 -61.562,20.288 -64.916,52.762c-3.354,32.474 20.288,61.562 52.762,64.916Zm3.425,-33.157c15.575,1.609 53.988,8.606 95.423,3.265c14.133,-1.821 24.128,-14.774 22.307,-28.907c-1.822,-14.133 -14.775,-24.128 -28.908,-22.306c-36.274,4.675 -69.882,-2.008 -83.517,-3.416c-14.175,-1.464 -26.871,8.855 -28.335,23.029c-1.464,14.175 8.855,26.871 23.03,28.335Z" style="fill:#7e4021;"/><path d="M916.773,728.627c-11.648,10.465 -42.619,34.24 -66.474,68.538c-8.137,11.698 -5.245,27.801 6.453,35.938c11.698,8.137 27.802,5.245 35.938,-6.453c20.884,-30.026 48.397,-50.451 58.594,-59.613c10.6,-9.523 11.474,-25.861 1.95,-36.461c-9.524,-10.599 -25.861,-11.473 -36.461,-1.949Z" style="fill:#fff;"/><path d="M894.495,703.831c-12.584,11.307 -45.788,37.245 -71.561,74.3c-18.642,26.802 -12.017,63.696 14.785,82.337c26.801,18.641 63.695,12.017 82.336,-14.785c18.967,-27.269 44.247,-45.53 53.507,-53.85c24.285,-21.82 26.286,-59.25 4.467,-83.535c-21.819,-24.284 -59.249,-26.286 -83.534,-4.467Zm22.278,24.796c-11.648,10.465 -42.619,34.24 -66.474,68.538c-8.137,11.698 -5.245,27.801 6.453,35.938c11.698,8.137 27.802,5.245 35.938,-6.453c20.884,-30.026 48.397,-50.451 58.594,-59.613c10.6,-9.523 11.474,-25.861 1.95,-36.461c-9.524,-10.599 -25.861,-11.473 -36.461,-1.949Z" style="fill:#7e4021;"/><path d="M1334.82,659.65c-12.266,-9.733 -40.887,-36.291 -78.692,-54.073c-12.895,-6.065 -28.288,-0.52 -34.353,12.375c-6.065,12.894 -0.52,28.287 12.375,34.352c33.096,15.567 57.836,39.276 68.574,47.796c11.162,8.857 27.416,6.986 36.273,-4.177c8.858,-11.163 6.986,-27.416 -4.177,-36.273Z" style="fill:#fff;"/><path d="M1355.54,633.538c-13.252,-10.516 -44.379,-38.912 -85.224,-58.124c-29.542,-13.895 -64.808,-1.192 -78.703,28.35c-13.895,29.542 -1.192,64.808 28.35,78.703c30.058,14.138 52.29,36.007 62.043,43.745c25.574,20.293 62.812,16.004 83.104,-9.57c20.293,-25.574 16.004,-62.812 -9.57,-83.104Zm-20.719,26.112c-12.266,-9.733 -40.887,-36.291 -78.692,-54.073c-12.895,-6.065 -28.288,-0.52 -34.353,12.375c-6.065,12.894 -0.52,28.287 12.375,34.352c33.096,15.567 57.836,39.276 68.574,47.796c11.162,8.857 27.416,6.986 36.273,-4.177c8.858,-11.163 6.986,-27.416 -4.177,-36.273Z" style="fill:#7e4021;"/><path d="M490.969,1141.57c-13.959,7.093 -50.029,22.043 -81.948,48.997c-10.887,9.194 -12.262,25.497 -3.068,36.384c9.194,10.888 25.497,12.262 36.384,3.068c27.944,-23.597 59.805,-36.205 72.026,-42.415c12.704,-6.456 17.776,-22.011 11.32,-34.714c-6.456,-12.704 -22.01,-17.776 -34.714,-11.32Z" style="fill:#fff;"/><path d="M475.868,1111.86c-15.082,7.665 -53.867,24.125 -88.354,53.247c-24.942,21.063 -28.092,58.415 -7.029,83.358c21.064,24.943 58.415,28.092 83.358,7.029c25.378,-21.431 54.523,-32.527 65.622,-38.167c29.104,-14.79 40.725,-50.427 25.934,-79.532c-14.79,-29.104 -50.427,-40.725 -79.531,-25.935Zm15.101,29.717c-13.959,7.093 -50.029,22.043 -81.948,48.997c-10.887,9.194 -12.262,25.497 -3.068,36.384c9.194,10.888 25.497,12.262 36.384,3.068c27.944,-23.597 59.805,-36.205 72.026,-42.415c12.704,-6.456 17.776,-22.011 11.32,-34.714c-6.456,-12.704 -22.01,-17.776 -34.714,-11.32Z" style="fill:#7e4021;"/><path d="M1554.86,817.138c-13.96,7.094 -50.029,22.043 -81.949,48.998c-10.887,9.194 -12.262,25.497 -3.068,36.384c9.194,10.887 25.497,12.262 36.384,3.068c27.944,-23.597 59.806,-36.205 72.027,-42.415c12.703,-6.456 17.775,-22.011 11.32,-34.715c-6.456,-12.703 -22.011,-17.775 -34.714,-11.32Z" style="fill:#fff;"/><path d="M1539.76,787.422c-15.082,7.664 -53.867,24.124 -88.353,53.247c-24.943,21.063 -28.093,58.415 -7.029,83.358c21.063,24.943 58.415,28.092 83.358,7.029c25.378,-21.431 54.522,-32.527 65.621,-38.167c29.104,-14.791 40.725,-50.428 25.935,-79.532c-14.79,-29.104 -50.428,-40.725 -79.532,-25.935Zm15.102,29.716c-13.96,7.094 -50.029,22.043 -81.949,48.998c-10.887,9.194 -12.262,25.497 -3.068,36.384c9.194,10.887 25.497,12.262 36.384,3.068c27.944,-23.597 59.806,-36.205 72.027,-42.415c12.703,-6.456 17.775,-22.011 11.32,-34.715c-6.456,-12.703 -22.011,-17.775 -34.714,-11.32Z" style="fill:#7e4021;"/><path d="M2739.2,1178.01c-13.959,7.093 -50.029,22.043 -81.948,48.997c-10.887,9.194 -12.262,25.497 -3.068,36.384c9.194,10.888 25.497,12.262 36.384,3.068c27.944,-23.597 59.806,-36.205 72.026,-42.415c12.704,-6.456 17.776,-22.011 11.32,-34.714c-6.455,-12.704 -22.01,-17.776 -34.714,-11.32Z" style="fill:#fff;"/><path d="M2724.09,1148.29c-15.082,7.665 -53.867,24.125 -88.353,53.247c-24.943,21.063 -28.093,58.415 -7.029,83.358c21.063,24.943 58.414,28.092 83.357,7.029c25.379,-21.431 54.523,-32.527 65.622,-38.167c29.104,-14.79 40.725,-50.427 25.935,-79.532c-14.791,-29.104 -50.428,-40.725 -79.532,-25.935l-0,0Zm15.101,29.717c-13.959,7.093 -50.029,22.043 -81.948,48.997c-10.887,9.194 -12.262,25.497 -3.068,36.384c9.194,10.888 25.497,12.262 36.384,3.068c27.944,-23.597 59.806,-36.205 72.026,-42.415c12.704,-6.456 17.776,-22.011 11.32,-34.714c-6.455,-12.704 -22.01,-17.776 -34.714,-11.32Z" style="fill:#7e4021;"/><path d="M1644.91,2422.68c7.094,13.959 22.043,50.029 48.998,81.948c9.194,10.887 25.497,12.262 36.384,3.068c10.887,-9.193 12.262,-25.497 3.068,-36.384c-23.597,-27.943 -36.205,-59.805 -42.415,-72.026c-6.456,-12.703 -22.011,-17.776 -34.714,-11.32c-12.704,6.456 -17.776,22.011 -11.321,34.714Z" style="fill:#fff;"/><path d="M1615.19,2437.78c7.665,15.082 24.124,53.867 53.247,88.354c21.063,24.943 58.415,28.092 83.358,7.029c24.943,-21.064 28.092,-58.415 7.029,-83.358c-21.431,-25.378 -32.527,-54.523 -38.167,-65.621c-14.791,-29.105 -50.428,-40.726 -79.532,-25.935c-29.104,14.79 -40.725,50.427 -25.935,79.531Zm29.716,-15.101c7.094,13.959 22.043,50.029 48.998,81.948c9.194,10.887 25.497,12.262 36.384,3.068c10.887,-9.193 12.262,-25.497 3.068,-36.384c-23.597,-27.943 -36.205,-59.805 -42.415,-72.026c-6.456,-12.703 -22.011,-17.776 -34.714,-11.32c-12.704,6.456 -17.776,22.011 -11.321,34.714Z" style="fill:#7e4021;"/><path d="M674.975,1660.28c-4.854,14.887 -19.789,50.963 -23.299,92.593c-1.198,14.2 9.358,26.7 23.558,27.897c14.199,1.197 26.699,-9.359 27.897,-23.558c3.073,-36.445 16.688,-67.89 20.937,-80.923c4.418,-13.547 -2.994,-28.133 -16.542,-32.551c-13.547,-4.418 -28.133,2.995 -32.551,16.542Z" style="fill:#fff;"/><path d="M643.284,1649.95c-5.245,16.084 -21.031,55.148 -24.824,100.126c-2.743,32.532 21.441,61.17 53.973,63.914c32.531,2.743 61.17,-21.442 63.913,-53.973c2.791,-33.099 15.554,-61.553 19.413,-73.389c10.122,-31.039 -6.86,-64.455 -37.898,-74.577c-31.039,-10.121 -64.455,6.861 -74.577,37.899Zm31.691,10.334c-4.854,14.887 -19.789,50.963 -23.299,92.593c-1.198,14.2 9.358,26.7 23.558,27.897c14.199,1.197 26.699,-9.359 27.897,-23.558c3.073,-36.445 16.688,-67.89 20.937,-80.923c4.418,-13.547 -2.994,-28.133 -16.542,-32.551c-13.547,-4.418 -28.133,2.995 -32.551,16.542Z" style="fill:#7e4021;"/></g></svg>