<?xml version="1.0" encoding="UTF-8" standalone="no"?><!DOCTYPE svg PUBLIC "-//W3C//DTD SVG 1.1//EN" "http://www.w3.org/Graphics/SVG/1.1/DTD/svg11.dtd"><svg width="100%" height="100%" viewBox="0 0 3543 2780" version="1.1" xmlns="http://www.w3.org/2000/svg" xmlns:xlink="http://www.w3.org/1999/xlink" xml:space="preserve" xmlns:serif="http://www.serif.com/" style="fill-rule:evenodd;clip-rule:evenodd;stroke-linejoin:round;stroke-miterlimit:2;"><g id="Dream-donut" serif:id="Dream donut"><path d="M2461.24,101.616c-531.386,-170.821 -1115.29,-43.468 -1365.7,50.255c-535.453,200.407 -895.056,475.677 -1040.84,952.692c-74.019,242.19 -33.029,637.63 63.451,839.786c234.58,491.515 785.602,779.018 1551.04,815.781c773.692,37.159 1819.71,-306.804 1854.64,-1169.69c31.95,-789.208 -401.743,-1276.39 -1062.59,-1488.83Z" style="fill:#fee4a8;"/><path d="M2466.34,85.749c-535.642,-172.189 -1124.23,-43.961 -1376.64,50.513c-541.03,202.495 -903.634,481.446 -1050.94,963.43c-75.081,245.665 -33.516,646.779 64.349,851.835c236.856,496.288 792.412,788.131 1565.28,825.251c389.587,18.711 847.713,-58.652 1212.87,-249.199c367.94,-192.003 641.504,-498.643 659.228,-936.46c32.303,-797.913 -406.006,-1290.59 -1074.14,-1505.37l-0.001,-0.001Zm-10.2,31.734c653.556,210.096 1082.63,691.784 1051.04,1472.29c-17.208,425.065 -284.119,721.847 -641.343,908.257c-360.013,187.865 -811.741,263.904 -1195.85,245.456c-758.009,-36.406 -1304.5,-319.568 -1536.8,-806.313c-95.096,-199.256 -135.511,-589.02 -62.554,-827.736c144.268,-472.046 500.87,-743.634 1030.75,-941.954c248.406,-92.972 827.627,-219.45 1354.76,-49.997l0.001,0Z" style="fill:#7e4021;"/><path d="M25.035,1622.63c12.739,7.244 35.118,20.496 45.843,30.459c26.309,24.442 48.482,53.49 68.915,82.878c46.081,66.277 85.767,87.841 127.445,102.849c37.857,13.633 77.797,20.853 127.5,56.489c7.476,5.36 17.897,3.643 23.257,-3.833c5.359,-7.476 3.642,-17.896 -3.834,-23.256c-42.845,-30.72 -78.814,-42.158 -112.397,-52.974c-45.382,-14.616 -85.846,-28.178 -134.603,-98.303c-21.786,-31.335 -45.544,-62.211 -73.596,-88.271c-12.224,-11.356 -37.533,-26.758 -52.053,-35.014c-7.996,-4.547 -18.18,-1.747 -22.726,6.25c-4.547,7.996 -1.747,18.179 6.249,22.726Z" style="fill:#7e4021;"/><path d="M459.522,1934.11c37.221,39.035 92.825,70.221 145.018,81.906c8.977,2.01 17.896,-3.646 19.906,-12.623c2.009,-8.976 -3.647,-17.895 -12.623,-19.905c-46.13,-10.327 -95.28,-37.881 -128.178,-72.381c-6.347,-6.658 -16.906,-6.909 -23.563,-0.561c-6.657,6.348 -6.908,16.907 -0.56,23.564Z" style="fill:#7e4021;"/><path d="M1792.27,2181.08c13.69,0.941 28.418,-1.616 43.353,-4.476c12.222,-2.34 24.614,-4.917 36.569,-4.476c54.269,2.002 105.587,11.131 156.294,13.664c53.42,2.668 106.158,-1.817 160.748,-27.468c8.325,-3.912 11.908,-13.847 7.996,-22.172c-3.912,-8.325 -13.847,-11.908 -22.172,-7.997c-49.188,23.113 -96.776,26.749 -144.909,24.345c-50.847,-2.539 -102.309,-11.675 -156.728,-13.683c-14.393,-0.531 -29.352,2.231 -44.066,5.048c-12.002,2.298 -23.797,4.717 -34.798,3.96c-9.177,-0.631 -17.14,6.307 -17.771,15.484c-0.631,9.177 6.307,17.14 15.484,17.771Z" style="fill:#7e4021;"/><path d="M2258.38,2089.6c-2.725,0.893 -5.253,2.506 -7.283,4.814c-5.473,6.224 -4.467,12.115 -3.564,15.414c0.258,0.945 7.371,16.897 22.628,10.969c3.29,-1.279 21.365,-9.327 26.571,-11.335c15.65,-6.038 31.478,-11.606 47.15,-17.587c8.594,-3.279 12.909,-12.919 9.63,-21.513c-3.28,-8.594 -12.919,-12.909 -21.513,-9.63c-15.711,5.995 -31.576,11.578 -47.264,17.63c-4.863,1.876 -23.779,10.114 -26.355,11.238Zm21.548,12.428c1.025,4.953 -0.205,10.311 -3.799,14.397c4.952,-5.631 4.589,-10.99 3.799,-14.397Zm-13.243,-12.986c8.199,1.353 11.369,6.693 12.766,11.199c-0.891,-2.747 -2.509,-5.295 -4.832,-7.337c-2.334,-2.053 -5.083,-3.335 -7.934,-3.862Z" style="fill:#7e4021;"/><path d="M2946.75,1897.46c55.652,-27.966 121.08,-40.407 186.373,-54.296c68.526,-14.577 136.887,-30.711 194.988,-65.235c7.908,-4.699 10.513,-14.934 5.814,-22.842c-4.698,-7.908 -14.934,-10.513 -22.841,-5.814c-55.044,32.707 -119.978,47.478 -184.897,61.287c-68.151,14.498 -136.316,27.925 -194.404,57.116c-8.219,4.13 -11.539,14.156 -7.409,22.376c4.13,8.219 14.157,11.538 22.376,7.408Z" style="fill:#7e4021;"/><path d="M3413.3,1714.17c38.478,-29.89 106.451,-115.265 120.783,-142.626c4.268,-8.149 1.118,-18.229 -7.03,-22.498c-8.149,-4.268 -18.229,-1.118 -22.498,7.031c-13.247,25.289 -76.14,104.142 -111.704,131.769c-7.264,5.643 -8.581,16.123 -2.938,23.387c5.644,7.264 16.123,8.58 23.387,2.937Z" style="fill:#7e4021;"/><path d="M3451.85,1926.1c21.327,-51.873 -324.682,581.562 -1693.54,574.235c-1389.25,-7.436 -1687.45,-655.079 -1640.16,-555.987c234.58,491.515 785.602,779.018 1551.04,815.781c664.163,31.899 1529.01,-217.055 1782.66,-834.029Z" style="fill:#e4a57c;"/><path d="M3467.26,1932.44c3.171,-7.712 1.851,-12.719 1.426,-14.112c-1.272,-4.177 -3.671,-6.91 -6.333,-8.804c-3.005,-2.139 -6.682,-3.457 -11.266,-3.039c-1.89,0.172 -4.436,0.678 -7.311,2.414c-1.229,0.743 -4.916,3.959 -10.121,10.338c-52.403,64.216 -453.16,570.976 -1675.26,564.434c-1240.09,-6.637 -1604.21,-525.998 -1630.33,-558.478c-6.118,-7.607 -12.678,-7.763 -13.866,-7.807c-5.967,-0.223 -10.409,2.151 -13.706,6.294c-1.653,2.077 -4.9,6.53 -3.245,14.142c0.255,1.168 2.047,5.707 5.865,13.707c236.856,496.288 792.412,788.131 1565.28,825.251c401.35,19.276 875.431,-63.422 1245.69,-266.771c248.527,-136.494 450.298,-327.31 553.185,-577.569Zm-78.43,86.181c-108.439,195.275 -283.018,348.054 -490.802,462.171c-364.991,200.458 -832.395,281.695 -1228.04,262.693c-699.567,-33.599 -1218.97,-277.372 -1477.54,-697.434c172.407,163.125 616.066,465.87 1565.77,470.953c1008.38,5.398 1465.76,-335.185 1630.62,-498.383Z" style="fill:#7e4021;"/><path d="M2461.24,101.616c-531.386,-170.821 -1115.29,-43.468 -1365.7,50.255c-535.453,200.407 -895.056,475.677 -1040.84,952.692c-37.625,123.109 28.498,728.633 1745.74,698.236c1583.28,-28.026 1696.61,-619.938 1679.01,-691.287c-126.28,-512.039 -503.289,-844.368 -1018.21,-1009.9Z" style="fill:#e4a57c;"/><path d="M2466.34,85.749c-535.642,-172.189 -1124.23,-43.961 -1376.64,50.513c-541.03,202.495 -903.634,481.446 -1050.94,963.43c-15.801,51.702 -15.878,185.014 107.154,323.65c177.2,199.674 616.104,414.508 1654.82,396.121c957.45,-16.948 1381.06,-240.273 1563.32,-430.331c87.579,-91.327 120.535,-175.816 130.156,-228.316c4.572,-24.949 3.853,-43.442 1.423,-53.295c-127.71,-517.833 -508.542,-854.371 -1029.29,-1021.77l-0.001,0Zm-10.2,31.734c509.089,163.654 882.273,491.776 1007.12,998.02c2.477,10.043 1.28,31.734 -6.966,61.319c-13.563,48.661 -46.527,116.471 -116.308,189.239c-179.408,187.087 -597.365,403.391 -1539.85,420.074c-852.87,15.097 -1295.95,-126.539 -1520.92,-288.417c-217.049,-156.183 -226.619,-329.293 -208.59,-388.284c144.268,-472.046 500.87,-743.634 1030.75,-941.954c248.406,-92.972 827.627,-219.45 1354.76,-49.997l0.001,0Z" style="fill:#7e4021;"/><path d="M3240.13,775.539c24.095,37.979 78.855,154.34 95.069,196.376c3.31,8.583 12.965,12.863 21.548,9.552c8.582,-3.31 12.862,-12.965 9.552,-21.547c-16.702,-43.301 -73.203,-163.116 -98.022,-202.238c-4.927,-7.767 -15.234,-10.072 -23.001,-5.145c-7.768,4.928 -10.073,15.235 -5.146,23.002Z" style="fill:#7e4021;"/><path d="M3372.15,1039.92c14.103,24.529 19.449,64.307 28.163,91.789c2.78,8.768 12.156,13.63 20.924,10.85c8.769,-2.781 13.63,-12.157 10.85,-20.925c-9.358,-29.514 -15.894,-71.985 -31.039,-98.328c-4.585,-7.975 -14.782,-10.727 -22.756,-6.142c-7.975,4.585 -10.727,14.781 -6.142,22.756Z" style="fill:#7e4021;"/><path d="M798.128,480.415c3.61,8.267 -0.171,17.909 -8.438,21.519c-8.267,3.61 -17.91,-0.171 -21.52,-8.438c-3.609,-8.267 0.172,-17.909 8.438,-21.519c8.267,-3.61 17.91,0.171 21.52,8.438Z" style="fill:#fff;"/><path d="M1712.67,306.789c-7.499,5.013 -17.658,2.995 -22.672,-4.504c-5.013,-7.499 -2.995,-17.658 4.504,-22.671c7.499,-5.014 17.658,-2.996 22.671,4.503c5.014,7.5 2.996,17.658 -4.503,22.672Z" style="fill:#fff;"/><path d="M1958.68,510.175c-7.499,5.013 -17.658,2.995 -22.671,-4.504c-5.014,-7.499 -2.996,-17.658 4.503,-22.672c7.499,-5.013 17.658,-2.995 22.672,4.504c5.013,7.499 2.995,17.658 -4.504,22.672Z" style="fill:#fff;"/><path d="M2773.22,513.867c-7.499,5.013 -17.657,2.995 -22.671,-4.504c-5.014,-7.499 -2.995,-17.658 4.504,-22.671c7.499,-5.014 17.658,-2.996 22.671,4.503c5.014,7.5 2.996,17.658 -4.504,22.672Z" style="fill:#fff;"/><path d="M1213.99,198.493c6.495,6.26 16.85,6.068 23.11,-0.427c6.26,-6.495 6.069,-16.851 -0.427,-23.111c-6.495,-6.259 -16.851,-6.068 -23.11,0.427c-6.26,6.496 -6.069,16.851 0.427,23.111Z" style="fill:#fff;"/><path d="M1119.52,674.2c6.495,6.26 16.851,6.068 23.111,-0.427c6.259,-6.495 6.068,-16.851 -0.427,-23.111c-6.496,-6.259 -16.851,-6.068 -23.111,0.427c-6.259,6.496 -6.068,16.851 0.427,23.111Z" style="fill:#fff;"/><path d="M779.49,399.231c0.758,8.988 -5.923,16.902 -14.912,17.661c-8.989,0.758 -16.903,-5.923 -17.661,-14.912c-0.759,-8.989 5.923,-16.903 14.912,-17.661c8.988,-0.759 16.902,5.923 17.661,14.912Z" style="fill:#fff;"/><path d="M1175.54,349.609c-8.713,2.335 -17.683,-2.844 -20.018,-11.557c-2.334,-8.714 2.844,-17.683 11.558,-20.018c8.713,-2.335 17.683,2.844 20.017,11.557c2.335,8.714 -2.844,17.683 -11.557,20.018Z" style="fill:#fff;"/><path d="M776.126,637.198c-8.713,2.334 -17.683,-2.844 -20.018,-11.558c-2.334,-8.713 2.844,-17.682 11.558,-20.017c8.713,-2.335 17.682,2.844 20.017,11.557c2.335,8.713 -2.844,17.683 -11.557,20.018Z" style="fill:#fff;"/><path d="M1321.33,304.57c8.164,3.837 17.907,0.325 21.745,-7.839c3.837,-8.163 0.325,-17.907 -7.839,-21.745c-8.163,-3.837 -17.907,-0.325 -21.744,7.839c-3.838,8.164 -0.326,17.907 7.838,21.745Z" style="fill:#fff;"/><path d="M2319.64,138.904c-12.508,-7.395 -16.659,-23.554 -9.264,-36.062c7.396,-12.509 23.555,-16.66 36.063,-9.264c12.508,7.395 16.659,23.554 9.264,36.062c-7.395,12.508 -23.555,16.66 -36.063,9.264Z" style="fill:#fff;"/><path d="M2546.44,322.925c-12.508,-7.396 -16.659,-23.555 -9.264,-36.063c7.395,-12.508 23.555,-16.659 36.063,-9.264c12.508,7.395 16.659,23.555 9.264,36.063c-7.396,12.508 -23.555,16.659 -36.063,9.264Z" style="fill:#fff;"/><path d="M1264.11,731.022c-12.508,-7.395 -16.659,-23.554 -9.264,-36.063c7.395,-12.508 23.554,-16.659 36.062,-9.264c12.509,7.396 16.66,23.555 9.264,36.063c-7.395,12.508 -23.554,16.659 -36.062,9.264Z" style="fill:#fff;"/><path d="M1695.89,108.435c-12.508,-7.395 -16.659,-23.554 -9.263,-36.063c7.395,-12.508 23.554,-16.659 36.062,-9.264c12.508,7.396 16.659,23.555 9.264,36.063c-7.395,12.508 -23.554,16.659 -36.063,9.264Z" style="fill:#fff;"/><path d="M1941.89,311.821c-12.508,-7.396 -16.659,-23.555 -9.264,-36.063c7.395,-12.508 23.554,-16.659 36.062,-9.264c12.509,7.395 16.66,23.555 9.264,36.063c-7.395,12.508 -23.554,16.659 -36.062,9.264Z" style="fill:#fff;"/><path d="M655.552,420.058c10.191,10.357 10.056,27.041 -0.302,37.232c-10.358,10.191 -27.041,10.056 -37.232,-0.302c-10.191,-10.358 -10.056,-27.041 0.302,-37.232c10.357,-10.191 27.041,-10.056 37.232,0.302Z" style="fill:#fff;"/><path d="M985.523,349.91c-12.508,-7.395 -16.659,-23.554 -9.264,-36.063c7.396,-12.508 23.555,-16.659 36.063,-9.263c12.508,7.395 16.659,23.554 9.264,36.062c-7.395,12.508 -23.555,16.659 -36.063,9.264Z" style="fill:#fff;"/><path d="M843.275,764.058c-12.509,-7.395 -16.66,-23.554 -9.264,-36.063c7.395,-12.508 23.554,-16.659 36.062,-9.264c12.508,7.396 16.659,23.555 9.264,36.063c-7.395,12.508 -23.554,16.659 -36.062,9.264Z" style="fill:#fff;"/><path d="M1076.6,245.174c-12.508,-7.395 -16.659,-23.555 -9.264,-36.063c7.395,-12.508 23.555,-16.659 36.063,-9.264c12.508,7.396 16.659,23.555 9.264,36.063c-7.396,12.508 -23.555,16.659 -36.063,9.264Z" style="fill:#fff;"/><path d="M889.265,605.918c-12.508,-7.395 -16.659,-23.554 -9.264,-36.063c7.395,-12.508 23.554,-16.659 36.062,-9.264c12.509,7.396 16.66,23.555 9.264,36.063c-7.395,12.508 -23.554,16.659 -36.062,9.264Z" style="fill:#fff;"/><path d="M1354.15,141.823c-12.508,-7.396 -16.659,-23.555 -9.264,-36.063c7.395,-12.508 23.555,-16.659 36.063,-9.264c12.508,7.396 16.659,23.555 9.264,36.063c-7.396,12.508 -23.555,16.659 -36.063,9.264Z" style="fill:#fff;"/><path d="M1817.83,450.565c-12.508,-7.395 -16.659,-23.554 -9.264,-36.062c7.396,-12.509 23.555,-16.66 36.063,-9.264c12.508,7.395 16.659,23.554 9.264,36.062c-7.395,12.508 -23.554,16.66 -36.063,9.264Z" style="fill:#fff;"/><path d="M2632.36,454.258c-12.508,-7.396 -16.659,-23.555 -9.264,-36.063c7.395,-12.508 23.554,-16.659 36.062,-9.264c12.509,7.395 16.66,23.554 9.264,36.063c-7.395,12.508 -23.554,16.659 -36.062,9.264Z" style="fill:#fff;"/><path d="M1959.93,752.26c-12.508,-7.395 -16.659,-23.555 -9.264,-36.063c7.396,-12.508 23.555,-16.659 36.063,-9.264c12.508,7.396 16.659,23.555 9.264,36.063c-7.395,12.508 -23.554,16.659 -36.063,9.264Z" style="fill:#fff;"/><path d="M2774.46,755.952c-12.508,-7.395 -16.659,-23.554 -9.264,-36.062c7.395,-12.509 23.554,-16.66 36.062,-9.264c12.509,7.395 16.66,23.554 9.264,36.062c-7.395,12.508 -23.554,16.659 -36.062,9.264Z" style="fill:#fff;"/><path d="M1900.14,100.374c-12.508,-7.395 -16.659,-23.554 -9.264,-36.062c7.396,-12.509 23.555,-16.66 36.063,-9.264c12.508,7.395 16.659,23.554 9.264,36.062c-7.395,12.508 -23.554,16.66 -36.063,9.264Z" style="fill:#fff;"/><path d="M2146.15,303.76c-12.509,-7.395 -16.66,-23.555 -9.264,-36.063c7.395,-12.508 23.554,-16.659 36.062,-9.264c12.509,7.396 16.66,23.555 9.264,36.063c-7.395,12.508 -23.554,16.659 -36.062,9.264Z" style="fill:#fff;"/><path d="M1354.48,693.971c-12.508,-7.396 -16.659,-23.555 -9.264,-36.063c7.395,-12.508 23.554,-16.659 36.063,-9.264c12.508,7.396 16.659,23.555 9.263,36.063c-7.395,12.508 -23.554,16.659 -36.062,9.264Z" style="fill:#fff;"/><path d="M1586.55,270.557c-12.508,-7.395 -16.659,-23.554 -9.264,-36.062c7.396,-12.508 23.555,-16.659 36.063,-9.264c12.508,7.395 16.659,23.554 9.264,36.062c-7.395,12.509 -23.554,16.66 -36.063,9.264Z" style="fill:#fff;"/><path d="M1978.77,213.351c-12.509,-7.395 -16.66,-23.554 -9.264,-36.062c7.395,-12.508 23.554,-16.66 36.062,-9.264c12.509,7.395 16.66,23.554 9.264,36.062c-7.395,12.509 -23.554,16.66 -36.062,9.264Z" style="fill:#fff;"/><path d="M2224.78,416.737c-12.508,-7.395 -16.659,-23.554 -9.264,-36.063c7.395,-12.508 23.554,-16.659 36.063,-9.264c12.508,7.396 16.659,23.555 9.264,36.063c-7.396,12.508 -23.555,16.659 -36.063,9.264Z" style="fill:#fff;"/><path d="M2506.48,901.739c-12.508,-7.395 -16.659,-23.555 -9.264,-36.063c7.396,-12.508 23.555,-16.659 36.063,-9.264c12.508,7.396 16.659,23.555 9.264,36.063c-7.395,12.508 -23.554,16.659 -36.063,9.264Z" style="fill:#fff;"/><path d="M1351.85,488.937c-12.508,-7.396 -16.659,-23.555 -9.264,-36.063c7.396,-12.508 23.555,-16.659 36.063,-9.264c12.508,7.395 16.659,23.554 9.264,36.063c-7.395,12.508 -23.554,16.659 -36.063,9.264Z" style="fill:#fff;"/><path d="M1005.68,627.469c-12.508,-7.395 -16.659,-23.554 -9.264,-36.062c7.395,-12.509 23.554,-16.66 36.063,-9.264c12.508,7.395 16.659,23.554 9.264,36.062c-7.396,12.509 -23.555,16.66 -36.063,9.264Z" style="fill:#fff;"/><path d="M1108.1,482.447c-12.508,-7.395 -16.659,-23.554 -9.264,-36.063c7.396,-12.508 23.555,-16.659 36.063,-9.263c12.508,7.395 16.659,23.554 9.264,36.062c-7.395,12.508 -23.554,16.659 -36.063,9.264Z" style="fill:#fff;"/><path d="M578.907,805.25c-12.508,-7.395 -16.659,-23.555 -9.264,-36.063c7.396,-12.508 23.555,-16.659 36.063,-9.264c12.508,7.396 16.659,23.555 9.264,36.063c-7.395,12.508 -23.554,16.659 -36.063,9.264Z" style="fill:#fff;"/><path d="M1566.57,371.637c-12.508,-7.395 -16.659,-23.554 -9.264,-36.062c7.396,-12.509 23.555,-16.66 36.063,-9.264c12.508,7.395 16.659,23.554 9.264,36.062c-7.395,12.508 -23.555,16.659 -36.063,9.264Z" style="fill:#fff;"/><path d="M2423.57,350.831c-12.509,-7.396 -16.66,-23.555 -9.264,-36.063c7.395,-12.508 23.554,-16.659 36.062,-9.264c12.509,7.395 16.66,23.555 9.264,36.063c-7.395,12.508 -23.554,16.659 -36.062,9.264Z" style="fill:#fff;"/><path d="M1298.96,604.43c-13.576,-5.179 -20.394,-20.406 -15.216,-33.982c5.179,-13.577 20.406,-20.395 33.983,-15.216c13.576,5.178 20.394,20.405 15.216,33.982c-5.179,13.577 -20.406,20.395 -33.983,15.216Z" style="fill:#fff;"/><path d="M1821.89,293.735c-13.577,-5.178 -20.395,-20.405 -15.217,-33.982c5.179,-13.577 20.406,-20.395 33.983,-15.216c13.576,5.178 20.395,20.405 15.216,33.982c-5.179,13.577 -20.406,20.395 -33.982,15.216Z" style="fill:#fff;"/><path d="M2097.55,497.655c-13.577,-5.179 -20.395,-20.406 -15.216,-33.982c5.179,-13.577 20.406,-20.395 33.982,-15.217c13.577,5.179 20.395,20.406 15.217,33.983c-5.179,13.576 -20.406,20.395 -33.983,15.216Z" style="fill:#fff;"/><path d="M2912.08,501.347c-13.577,-5.178 -20.395,-20.405 -15.217,-33.982c5.179,-13.577 20.406,-20.395 33.983,-15.216c13.576,5.178 20.395,20.405 15.216,33.982c-5.179,13.577 -20.406,20.395 -33.982,15.216Z" style="fill:#fff;"/><path d="M1801.62,145.913c3.059,8.486 12.432,12.892 20.919,9.833c8.486,-3.059 12.892,-12.432 9.833,-20.918c-3.059,-8.486 -12.432,-12.893 -20.918,-9.834c-8.487,3.059 -12.893,12.433 -9.834,20.919Z" style="fill:#fff;"/><path d="M2047.62,349.299c3.059,8.486 12.433,12.892 20.919,9.833c8.486,-3.059 12.892,-12.432 9.833,-20.919c-3.059,-8.486 -12.432,-12.892 -20.918,-9.833c-8.486,3.059 -12.893,12.432 -9.834,20.919Z" style="fill:#fff;"/><path d="M2077.97,208.377c3.059,8.486 12.433,12.892 20.919,9.833c8.486,-3.059 12.892,-12.432 9.833,-20.918c-3.059,-8.487 -12.432,-12.893 -20.918,-9.834c-8.487,3.059 -12.893,12.432 -9.834,20.919Z" style="fill:#fff;"/><path d="M2862.16,352.991c3.059,8.486 12.432,12.892 20.918,9.833c8.487,-3.059 12.893,-12.432 9.834,-20.918c-3.059,-8.486 -12.433,-12.893 -20.919,-9.834c-8.486,3.059 -12.892,12.433 -9.833,20.919Z" style="fill:#fff;"/><path d="M865.206,332.036c0.759,8.989 -5.923,16.902 -14.912,17.661c-8.988,0.759 -16.902,-5.923 -17.661,-14.912c-0.758,-8.988 5.923,-16.902 14.912,-17.661c8.989,-0.758 16.903,5.923 17.661,14.912Z" style="fill:#fff;"/><path d="M1561.5,105.348c8.164,3.838 17.908,0.326 21.745,-7.838c3.838,-8.164 0.326,-17.907 -7.838,-21.745c-8.164,-3.837 -17.907,-0.325 -21.745,7.839c-3.837,8.163 -0.325,17.907 7.838,21.744Z" style="fill:#fff;"/><path d="M1988.69,422.284c-3.837,8.163 -0.325,17.907 7.839,21.744c8.163,3.838 17.907,0.326 21.745,-7.838c3.837,-8.164 0.325,-17.907 -7.839,-21.745c-8.164,-3.837 -17.907,-0.325 -21.745,7.839Z" style="fill:#fff;"/><path d="M2803.23,425.976c-3.838,8.164 -0.326,17.907 7.838,21.745c8.164,3.837 17.907,0.325 21.745,-7.839c3.838,-8.163 0.325,-17.907 -7.838,-21.744c-8.164,-3.838 -17.908,-0.326 -21.745,7.838Z" style="fill:#fff;"/><path d="M2183.25,500.342c-3.837,8.164 -0.325,17.907 7.839,21.745c8.163,3.838 17.907,0.325 21.744,-7.838c3.838,-8.164 0.326,-17.908 -7.838,-21.745c-8.164,-3.838 -17.907,-0.326 -21.745,7.838Z" style="fill:#fff;"/><path d="M2997.79,504.035c-3.838,8.163 -0.326,17.907 7.838,21.744c8.164,3.838 17.907,0.326 21.745,-7.838c3.838,-8.164 0.325,-17.907 -7.838,-21.745c-8.164,-3.837 -17.908,-0.325 -21.745,7.839Z" style="fill:#fff;"/><path d="M1447.22,202.791c-8.714,2.335 -17.683,-2.843 -20.018,-11.557c-2.335,-8.713 2.844,-17.683 11.557,-20.018c8.714,-2.334 17.683,2.844 20.018,11.558c2.335,8.713 -2.844,17.683 -11.557,20.017Z" style="fill:#fff;"/><path d="M1776.2,329.529c-2.335,-8.714 2.844,-17.683 11.557,-20.018c8.713,-2.335 17.683,2.844 20.018,11.557c2.334,8.714 -2.844,17.683 -11.558,20.018c-8.713,2.335 -17.682,-2.844 -20.017,-11.557Z" style="fill:#fff;"/><path d="M1730.49,396.39c-2.335,-8.714 2.844,-17.683 11.557,-20.018c8.713,-2.335 17.683,2.844 20.018,11.557c2.335,8.713 -2.844,17.683 -11.557,20.018c-8.714,2.334 -17.683,-2.844 -20.018,-11.557Z" style="fill:#fff;"/><path d="M2545.02,400.082c-2.334,-8.713 2.844,-17.683 11.558,-20.018c8.713,-2.335 17.683,2.844 20.017,11.557c2.335,8.714 -2.844,17.683 -11.557,20.018c-8.713,2.335 -17.683,-2.844 -20.018,-11.557Z" style="fill:#fff;"/><path d="M1976.5,599.775c-2.334,-8.713 2.844,-17.683 11.557,-20.018c8.714,-2.334 17.683,2.844 20.018,11.558c2.335,8.713 -2.844,17.683 -11.557,20.017c-8.713,2.335 -17.683,-2.843 -20.018,-11.557Z" style="fill:#fff;"/><path d="M2791.03,603.468c-2.335,-8.714 2.844,-17.683 11.557,-20.018c8.713,-2.335 17.683,2.844 20.018,11.557c2.334,8.713 -2.844,17.683 -11.558,20.018c-8.713,2.334 -17.683,-2.844 -20.017,-11.557Z" style="fill:#fff;"/><path d="M2355.72,331.154c-3.838,8.163 -0.326,17.907 7.838,21.745c8.164,3.837 17.907,0.325 21.745,-7.839c3.838,-8.163 0.325,-17.907 -7.838,-21.745c-8.164,-3.837 -17.908,-0.325 -21.745,7.839Z" style="fill:#fff;"/><path d="M2637.42,816.156c-3.837,8.163 -0.325,17.907 7.838,21.744c8.164,3.838 17.908,0.326 21.745,-7.838c3.838,-8.164 0.326,-17.907 -7.838,-21.745c-8.164,-3.837 -17.907,-0.325 -21.745,7.839Z" style="fill:#fff;"/><path d="M2508.93,195.469c-3.837,8.164 -0.325,17.907 7.838,21.745c8.164,3.837 17.908,0.325 21.745,-7.839c3.838,-8.163 0.326,-17.907 -7.838,-21.744c-8.164,-3.838 -17.907,-0.326 -21.745,7.838Z" style="fill:#fff;"/><path d="M2090.34,70.822c0.759,8.989 -5.923,16.902 -14.912,17.661c-8.989,0.759 -16.902,-5.923 -17.661,-14.912c-0.759,-8.989 5.923,-16.902 14.912,-17.661c8.989,-0.759 16.902,5.923 17.661,14.912Z" style="fill:#fff;"/><path d="M1954.33,356.578c0.759,8.989 -5.923,16.902 -14.912,17.661c-8.988,0.759 -16.902,-5.923 -17.661,-14.912c-0.758,-8.988 5.924,-16.902 14.912,-17.661c8.989,-0.758 16.903,5.923 17.661,14.912Z" style="fill:#fff;"/><path d="M1660.39,438.352c-8.878,-1.594 -14.793,-10.096 -13.199,-18.975c1.593,-8.879 10.096,-14.793 18.974,-13.2c8.879,1.594 14.794,10.096 13.2,18.975c-1.593,8.879 -10.096,14.793 -18.975,13.2Z" style="fill:#fff;"/><path d="M2474.92,442.044c-8.879,-1.594 -14.794,-10.096 -13.2,-18.975c1.594,-8.878 10.096,-14.793 18.975,-13.199c8.879,1.593 14.793,10.095 13.2,18.974c-1.594,8.879 -10.096,14.794 -18.975,13.2Z" style="fill:#fff;"/><path d="M1633.56,669.973c3.837,-8.164 13.581,-11.677 21.745,-7.839c8.163,3.837 11.676,13.58 7.839,21.744c-3.838,8.164 -13.581,11.676 -21.745,7.839c-8.164,-3.837 -11.676,-13.581 -7.839,-21.744Z" style="fill:#fff;"/><path d="M2448.1,673.665c3.838,-8.164 13.581,-11.676 21.745,-7.839c8.164,3.837 11.676,13.581 7.839,21.744c-3.837,8.164 -13.581,11.677 -21.745,7.84c-8.163,-3.838 -11.676,-13.581 -7.839,-21.745Z" style="fill:#fff;"/><path d="M1747.14,574.326c3.838,-8.164 13.581,-11.677 21.745,-7.839c8.164,3.837 11.676,13.58 7.839,21.744c-3.837,8.164 -13.581,11.677 -21.745,7.839c-8.163,-3.837 -11.676,-13.581 -7.839,-21.744Z" style="fill:#fff;"/><path d="M2561.67,578.018c3.837,-8.164 13.581,-11.676 21.744,-7.839c8.164,3.837 11.677,13.581 7.839,21.745c-3.837,8.163 -13.58,11.676 -21.744,7.839c-8.164,-3.838 -11.676,-13.581 -7.839,-21.745Z" style="fill:#fff;"/><path d="M1843.72,580.337c3.837,-8.164 13.58,-11.676 21.744,-7.839c8.164,3.837 11.677,13.581 7.839,21.745c-3.837,8.164 -13.581,11.676 -21.744,7.839c-8.164,-3.838 -11.677,-13.581 -7.839,-21.745Z" style="fill:#fff;"/><path d="M2658.25,584.03c3.837,-8.164 13.581,-11.677 21.745,-7.839c8.163,3.837 11.676,13.58 7.839,21.744c-3.838,8.164 -13.581,11.676 -21.745,7.839c-8.164,-3.837 -11.676,-13.581 -7.839,-21.744Z" style="fill:#fff;"/><path d="M2257.05,604.095c3.837,-8.164 13.58,-11.677 21.744,-7.839c8.164,3.837 11.677,13.58 7.839,21.744c-3.837,8.164 -13.58,11.677 -21.744,7.839c-8.164,-3.837 -11.677,-13.58 -7.839,-21.744Z" style="fill:#fff;"/><path d="M3071.58,607.787c3.838,-8.164 13.581,-11.676 21.745,-7.839c8.164,3.837 11.676,13.581 7.839,21.745c-3.838,8.164 -13.581,11.676 -21.745,7.839c-8.164,-3.838 -11.676,-13.581 -7.839,-21.745Z" style="fill:#fff;"/><path d="M2321.1,528.583c3.837,-8.164 13.581,-11.677 21.744,-7.839c8.164,3.837 11.677,13.581 7.839,21.744c-3.837,8.164 -13.58,11.677 -21.744,7.839c-8.164,-3.837 -11.677,-13.58 -7.839,-21.744Z" style="fill:#fff;"/><path d="M2661.18,657.745c3.838,-8.164 13.581,-11.677 21.745,-7.839c8.164,3.837 11.676,13.58 7.839,21.744c-3.838,8.164 -13.581,11.677 -21.745,7.839c-8.164,-3.837 -11.676,-13.58 -7.839,-21.744Z" style="fill:#fff;"/><path d="M2491.86,467.216c3.838,-8.163 13.581,-11.676 21.745,-7.839c8.164,3.838 11.676,13.581 7.839,21.745c-3.837,8.164 -13.581,11.676 -21.745,7.839c-8.164,-3.837 -11.676,-13.581 -7.839,-21.745Z" style="fill:#fff;"/><path d="M2958.71,756.163c3.837,-8.164 13.58,-11.677 21.744,-7.839c8.164,3.837 11.677,13.58 7.839,21.744c-3.837,8.164 -13.581,11.677 -21.744,7.839c-8.164,-3.837 -11.677,-13.581 -7.839,-21.744Z" style="fill:#fff;"/><path d="M2661.26,276.089c3.837,-8.164 13.58,-11.676 21.744,-7.839c8.164,3.837 11.677,13.581 7.839,21.745c-3.837,8.164 -13.581,11.676 -21.744,7.839c-8.164,-3.838 -11.677,-13.581 -7.839,-21.745Z" style="fill:#fff;"/><path d="M2336.35,274.208c0.759,8.988 -5.923,16.902 -14.912,17.661c-8.988,0.758 -16.902,-5.923 -17.661,-14.912c-0.758,-8.989 5.923,-16.903 14.912,-17.661c8.989,-0.759 16.903,5.923 17.661,14.912Z" style="fill:#fff;"/><path d="M1469.57,304.443c8.163,3.838 17.907,0.326 21.745,-7.838c3.837,-8.164 0.325,-17.907 -7.839,-21.745c-8.163,-3.838 -17.907,-0.325 -21.745,7.838c-3.837,8.164 -0.325,17.908 7.839,21.745Z" style="fill:#fff;"/><path d="M1631.86,310.233c-3.837,8.163 -0.325,17.907 7.838,21.744c8.164,3.838 17.908,0.326 21.745,-7.838c3.838,-8.164 0.326,-17.907 -7.838,-21.745c-8.164,-3.837 -17.907,-0.325 -21.745,7.839Z" style="fill:#fff;"/><path d="M1912.46,200.265c-3.838,8.164 -0.325,17.908 7.838,21.745c8.164,3.838 17.908,0.326 21.745,-7.838c3.838,-8.164 0.326,-17.907 -7.838,-21.745c-8.164,-3.837 -17.907,-0.325 -21.745,7.838Z" style="fill:#fff;"/><path d="M1737.49,477.064c-3.837,8.163 -0.325,17.907 7.839,21.744c8.163,3.838 17.907,0.326 21.744,-7.838c3.838,-8.164 0.326,-17.907 -7.838,-21.745c-8.164,-3.837 -17.907,-0.325 -21.745,7.839Z" style="fill:#fff;"/><path d="M1757.42,210.146c-3.837,8.164 -0.325,17.908 7.839,21.745c8.163,3.838 17.907,0.326 21.745,-7.838c3.837,-8.164 0.325,-17.907 -7.839,-21.745c-8.164,-3.838 -17.907,-0.325 -21.745,7.838Z" style="fill:#fff;"/><path d="M1848.32,500.858c-3.837,8.164 -0.325,17.907 7.838,21.745c8.164,3.837 17.908,0.325 21.745,-7.839c3.838,-8.163 0.326,-17.907 -7.838,-21.744c-8.164,-3.838 -17.907,-0.326 -21.745,7.838Z" style="fill:#fff;"/><path d="M959.5,414.719c-3.838,8.164 -0.326,17.908 7.838,21.745c8.164,3.838 17.907,0.326 21.745,-7.838c3.838,-8.164 0.325,-17.907 -7.838,-21.745c-8.164,-3.837 -17.908,-0.325 -21.745,7.838Z" style="fill:#fff;"/><path d="M909.321,840.415c-3.838,8.163 -0.325,17.907 7.838,21.745c8.164,3.837 17.908,0.325 21.745,-7.839c3.838,-8.164 0.326,-17.907 -7.838,-21.745c-8.164,-3.837 -17.907,-0.325 -21.745,7.839Z" style="fill:#fff;"/><path d="M1375.06,780.588c8.164,3.837 17.907,0.325 21.745,-7.839c3.837,-8.163 0.325,-17.907 -7.838,-21.744c-8.164,-3.838 -17.908,-0.326 -21.745,7.838c-3.838,8.164 -0.326,17.907 7.838,21.745Z" style="fill:#fff;"/><path d="M1236.96,496.655c-8.714,2.335 -17.683,-2.844 -20.018,-11.557c-2.335,-8.714 2.844,-17.683 11.557,-20.018c8.713,-2.335 17.683,2.844 20.018,11.557c2.335,8.713 -2.844,17.683 -11.557,20.018Z" style="fill:#fff;"/><path d="M602.684,618.918c-8.713,2.335 -17.683,-2.843 -20.018,-11.557c-2.334,-8.713 2.844,-17.683 11.557,-20.017c8.714,-2.335 17.683,2.843 20.018,11.557c2.335,8.713 -2.844,17.683 -11.557,20.017Z" style="fill:#fff;"/><path d="M1379.81,234.305c8.164,3.837 17.908,0.325 21.745,-7.839c3.838,-8.163 0.326,-17.907 -7.838,-21.744c-8.164,-3.838 -17.907,-0.326 -21.745,7.838c-3.838,8.164 -0.325,17.907 7.838,21.745Z" style="fill:#fff;"/><path d="M2112.47,388.547c-3.837,8.163 -0.325,17.907 7.839,21.744c8.163,3.838 17.907,0.326 21.744,-7.838c3.838,-8.164 0.326,-17.907 -7.838,-21.745c-8.164,-3.837 -17.907,-0.325 -21.745,7.839Z" style="fill:#fff;"/><path d="M2072.62,282.732c-3.837,8.164 -0.325,17.908 7.839,21.745c8.163,3.838 17.907,0.326 21.744,-7.838c3.838,-8.164 0.326,-17.907 -7.838,-21.745c-8.164,-3.838 -17.907,-0.325 -21.745,7.838Z" style="fill:#fff;"/><path d="M2927.01,392.239c-3.838,8.164 -0.326,17.907 7.838,21.745c8.164,3.837 17.907,0.325 21.745,-7.839c3.838,-8.163 0.325,-17.907 -7.838,-21.744c-8.164,-3.838 -17.908,-0.326 -21.745,7.838Z" style="fill:#fff;"/><path d="M2172.1,175.465c-3.838,8.164 -0.326,17.907 7.838,21.745c8.164,3.837 17.907,0.325 21.745,-7.839c3.837,-8.163 0.325,-17.907 -7.839,-21.744c-8.163,-3.838 -17.907,-0.326 -21.744,7.838Z" style="fill:#fff;"/><path d="M1538.15,490.24c-6.892,-5.82 -17.212,-4.949 -23.032,1.943c-5.82,6.893 -4.949,17.213 1.943,23.033c6.892,5.82 17.213,4.949 23.033,-1.943c5.82,-6.893 4.949,-17.213 -1.944,-23.033Z" style="fill:#fff;"/><path d="M1488.75,420.46c5.82,-6.893 4.949,-17.213 -1.943,-23.033c-6.892,-5.82 -17.213,-4.949 -23.033,1.943c-5.819,6.893 -4.949,17.213 1.944,23.033c6.892,5.82 17.212,4.949 23.032,-1.943Z" style="fill:#fff;"/><path d="M1615.08,538.47c7.406,-5.151 9.236,-15.345 4.084,-22.751c-5.151,-7.405 -15.345,-9.235 -22.75,-4.084c-7.406,5.151 -9.236,15.346 -4.084,22.751c5.151,7.405 15.345,9.235 22.75,4.084Z" style="fill:#fff;"/><path d="M2429.61,542.162c7.405,-5.151 9.235,-15.345 4.084,-22.75c-5.151,-7.406 -15.345,-9.236 -22.751,-4.084c-7.405,5.151 -9.235,15.345 -4.084,22.75c5.151,7.406 15.345,9.236 22.751,4.084Z" style="fill:#fff;"/></g></svg>