<?xml version="1.0" encoding="UTF-8" standalone="no"?><!DOCTYPE svg PUBLIC "-//W3C//DTD SVG 1.1//EN" "http://www.w3.org/Graphics/SVG/1.1/DTD/svg11.dtd"><svg width="100%" height="100%" viewBox="0 0 2587 1639" version="1.1" xmlns="http://www.w3.org/2000/svg" xmlns:xlink="http://www.w3.org/1999/xlink" xml:space="preserve" xmlns:serif="http://www.serif.com/" style="fill-rule:evenodd;clip-rule:evenodd;stroke-linejoin:round;stroke-miterlimit:2;"><g id="Macaron-Blue"><path d="M2450.06,626.232c7.166,-2.443 -17.789,-138.959 -18.739,-142.683c-68.803,-269.836 -408.734,-364.915 -648.033,-406.007c-487.479,-83.709 -1621.13,-189.32 -1699.71,517.908c-2.278,20.503 -58.602,26.53 -57.199,65.815c1.78,49.843 82.909,111.436 118.946,135.46c87.811,58.541 163.963,100.179 259.518,135.025c16.397,5.98 5.488,24.453 50.822,32.235c14.961,2.568 38.379,-3.109 53.919,-0.208c16.763,3.129 77.092,-3.048 116.563,0.687c171.454,16.225 177.946,5.772 346.455,19.287c79.915,6.41 111.093,35.557 161.259,31.201c27.006,-2.346 64.903,-57.807 160.388,-36.622c128.012,28.402 190.684,-7.81 323.069,-10.292c28.736,-0.539 25.669,35.958 88.91,24.698c68.833,-12.256 137.667,-51.324 204.866,-55.524c88.961,-5.56 180.929,20.518 272.835,-4.548c79.519,-21.687 148.564,-71.031 227.362,-95.013c38.64,-11.76 135.095,-15.971 155.803,-59.114c18.055,-37.615 -42.21,-118.111 -117.03,-152.305Z" style="fill:#c5e8f0;"/><path d="M67.158,592.302c-0.981,0.871 -4.031,3.527 -6.332,5.031c-4.866,3.181 -10.544,6.352 -16.148,9.898c-19.039,12.049 -35.904,28.275 -34.962,54.629c0.825,23.118 15.389,48.915 36.422,72.733c28.244,31.981 67.491,61.037 89.935,76c89.001,59.334 166.204,101.497 263.053,136.815c1.546,0.564 1.68,2.007 2.389,3.127c1.414,2.237 2.907,4.58 4.784,6.965c6.476,8.228 17.116,17.861 46.539,22.912c8.623,1.48 19.684,0.811 30.827,-0.037c8.13,-0.619 16.319,-1.434 22.853,-0.214c16.978,3.169 78.077,-2.887 118.052,0.896c171.571,16.235 178.067,5.783 346.692,19.308c46.44,3.724 75.856,15.509 102.478,23.324c20.346,5.972 39.276,9.802 61.556,7.867c10.023,-0.871 21.601,-6.879 35.609,-15.243c23.993,-14.326 59.028,-35.179 119.727,-21.712c129.559,28.745 193.006,-7.387 326.992,-9.9c4.176,-0.078 6.839,1.788 9.525,3.83c3.825,2.908 7.562,6.282 12.003,9.447c13.114,9.349 31.348,18.047 69.991,11.166c68.224,-12.147 136.378,-51.135 202.984,-55.298c90.054,-5.629 183.144,20.271 276.18,-5.102c79.675,-21.73 148.877,-71.119 227.83,-95.149c23.25,-7.076 67.367,-11.451 103.431,-23.145c28.877,-9.364 52.567,-23.914 62.545,-44.701c7.125,-14.845 6.324,-34.85 -2.831,-56.681c-16.346,-38.978 -59.718,-85.669 -111.382,-112.648c-1.443,-33.555 -19.607,-133.751 -20.432,-136.989c-28.582,-112.096 -101.901,-195.395 -195.88,-257.44c-137.644,-90.874 -319.882,-135.873 -465.482,-160.875c-294.306,-50.538 -822.678,-108.614 -1215.37,6.405c-266.532,78.068 -470.869,235.377 -503.58,524.781Zm2367.53,27.505c-0.74,1.742 -1.18,3.63 -1.278,5.592c-0.342,6.818 3.509,13.155 9.718,15.992c41.711,19.062 78.623,53.534 97.799,85.673c5.823,9.758 9.976,19.222 11.791,27.888c1.298,6.198 1.529,11.819 -0.657,16.372c-6.594,13.738 -23.69,21.229 -42.776,27.418c-35.859,11.627 -79.736,15.928 -102.854,22.964c-78.645,23.935 -147.532,73.234 -226.895,94.879c-90.777,24.757 -181.622,-1.499 -269.49,3.992c-67.793,4.237 -137.306,43.386 -206.747,55.75c-14.524,2.586 -24.782,2.401 -32.544,0.372c-11.496,-3.006 -17.147,-9.925 -23.434,-14.704c-8.406,-6.391 -17.255,-10.866 -30.323,-10.621c-130.785,2.453 -192.683,38.744 -319.147,10.685c-62.905,-13.957 -103.036,2.468 -131.489,18.33c-8.623,4.806 -16.065,9.565 -22.699,13.239c-4.243,2.35 -7.804,4.42 -11.252,4.719c-22.784,1.979 -41.195,-4.009 -63.045,-10.861c-25.008,-7.843 -53.898,-17.016 -95.44,-20.348c-168.393,-13.506 -174.881,-3.053 -346.217,-19.266c-38.967,-3.688 -98.526,2.611 -115.075,-0.479c-9.006,-1.681 -20.294,-1.108 -31.499,-0.255c-8.192,0.623 -16.32,1.509 -22.658,0.421c-11.971,-2.055 -18.912,-4.623 -23.189,-7.904c-3.818,-2.928 -5.136,-6.286 -6.911,-8.97c-4.129,-6.243 -8.843,-11.315 -17.832,-14.593c-94.26,-34.374 -169.361,-75.486 -255.983,-133.234c-20.801,-13.867 -57.264,-40.69 -83.439,-70.33c-15.251,-17.269 -27.498,-35.096 -28.096,-51.858c-0.297,-8.306 4.337,-13.806 9.766,-18.357c5.488,-4.602 11.916,-8.317 17.822,-11.857c8.013,-4.802 15.24,-9.473 20.086,-14.429c5.538,-5.665 8.679,-11.942 9.434,-18.737c30.616,-275.544 226.553,-423.552 479.972,-497.779c387.838,-113.599 909.687,-55.456 1200.36,-5.543c118.182,20.294 261.252,53.795 383.234,115.662c119.127,60.421 218.284,147.891 251.469,278.037c0.812,3.183 20.014,106.932 19.521,132.14Zm6.086,-7.412l-0.106,0.078l0.285,-0.192l-0.179,0.114Zm0.956,-0.604l-0.253,0.16l0.7,-0.399l-0.447,0.239Zm0.973,-0.52l-0.25,0.133l0.87,-0.412l-0.62,0.279Zm0.848,-0.381c0.373,-0.162 0.749,-0.304 1.126,-0.432l-1.126,0.432Z" style="fill:#7e4021;"/><path d="M140.025,1012.78c-7.166,2.443 17.789,138.959 18.739,142.683c68.803,269.836 408.734,364.915 648.033,406.007c487.479,83.709 1621.13,189.32 1699.71,-517.908c2.278,-20.503 70.695,-30.547 61.243,-107.005c-6.119,-49.497 -86.953,-70.246 -122.99,-94.271c-25.544,-17.029 78.03,176.946 -178.094,251.912c-292.903,85.731 -1206,150.461 -1719.31,39.058c-448.731,-97.387 -401.053,-316.296 -421.829,-320.872c-47.95,-10.561 -82.605,5.298 -102.537,48.091c-26.593,57.095 42.211,118.111 117.031,152.305Z" style="fill:#c5e8f0;"/><path d="M122.19,1022.74c1.485,33.691 19.6,133.613 20.424,136.846c28.582,112.096 101.901,195.395 195.88,257.44c137.644,90.874 319.882,135.873 465.482,160.875c294.306,50.538 822.678,108.614 1215.37,-6.405c266.399,-78.029 470.664,-235.22 503.531,-524.363c0.936,-0.913 3.173,-3.055 4.914,-4.402c4.083,-3.16 8.97,-6.521 14.071,-10.398c22.85,-17.368 49.153,-43.471 42.435,-97.815c-3.014,-24.378 -19.73,-43.836 -42.763,-59.41c-28.092,-18.994 -65.877,-32.253 -87.523,-46.684c-9.497,-6.332 -16.754,-3.913 -21.145,-1.272c-3.132,1.883 -6.024,4.796 -7.776,9.451c-1.214,3.226 -1.817,10.196 -0.613,20.152c2.896,23.952 13.193,78.796 -20.398,130.677c-22.749,35.135 -65.397,68.328 -142.089,90.775c-291.502,85.322 -1200.24,149.637 -1711.09,38.767c-346.335,-75.165 -387.935,-222.867 -400.276,-282.2c-2.65,-12.743 -4.649,-21.972 -7.068,-26.794c-3.739,-7.452 -9.111,-10.695 -14.434,-11.867c-28.112,-6.192 -52.294,-4.165 -72.402,5.208c-20.407,9.512 -36.968,26.661 -48.828,52.122c-13.113,28.155 -8.237,57.178 9.232,84.454c20.977,32.755 61.244,63.132 105.072,84.843Zm-7.399,-195.451c0.87,3.681 2.129,9.157 3.193,14.273c13.242,63.669 54.194,227.329 425.841,307.987c515.762,111.935 1433.22,46.791 1727.53,-39.35c53.933,-15.786 92.629,-36.761 120.382,-59.791c74.167,-61.545 72.524,-138.351 67.87,-180.935c20.062,9.87 43.955,20.198 63.257,33.249c14.391,9.73 26.469,20.655 28.352,35.885c5.502,44.501 -21.623,61.481 -38.502,73.789c-6.488,4.731 -11.925,9.103 -15.522,13.376c-4.307,5.116 -6.633,10.463 -7.243,15.955c-30.616,275.544 -226.553,423.552 -479.972,497.779c-387.838,113.599 -909.687,55.456 -1200.36,5.543c-118.182,-20.294 -261.252,-53.795 -383.234,-115.662c-119.127,-60.421 -218.284,-147.891 -251.469,-278.037c-0.812,-3.183 -20.014,-106.932 -19.521,-132.14c0.74,-1.742 1.18,-3.63 1.278,-5.592c0.342,-6.818 -3.509,-13.155 -9.718,-15.992c-41.824,-19.114 -81.964,-46.787 -101.765,-77.706c-10.873,-16.977 -15.248,-34.878 -7.085,-52.403c8.073,-17.332 18.803,-29.508 32.694,-35.984c12.456,-5.806 27.166,-6.995 43.994,-4.244Zm31.739,200.838c-0.373,0.162 -0.749,0.304 -1.126,0.432l1.126,-0.432Zm1.098,-0.514l-0.87,0.412l0.62,-0.279l0.25,-0.133Zm0.976,-0.547l-0.7,0.399l0.447,-0.239l0.253,-0.16Zm0.809,-0.522l-0.285,0.191l0.179,-0.113l0.106,-0.078Z" style="fill:#7e4021;"/><path d="M2411.28,837.651c38.64,-11.76 103.75,152.034 -119.516,247.454c-266.216,113.777 -1533.43,164.904 -1924.3,-4.238c-255.654,-110.63 -245.749,-299.873 -222.152,-284.142c87.811,58.541 163.963,100.179 259.518,135.025c16.397,5.98 5.488,24.453 50.822,32.235c14.961,2.568 38.379,-3.109 53.919,-0.208c16.763,3.129 77.092,-3.048 116.563,0.687c171.454,16.225 177.946,5.772 346.455,19.287c79.915,6.41 111.093,35.557 161.259,31.201c27.006,-2.346 64.903,-57.807 160.388,-36.622c128.012,28.402 190.684,-7.81 323.069,-10.292c28.736,-0.539 25.669,35.958 88.91,24.698c68.833,-12.256 137.667,-51.324 204.866,-55.524c88.961,-5.56 180.929,20.518 272.835,-4.548c79.519,-21.687 148.564,-71.031 227.362,-95.013Z" style="fill:#e4faff;"/><path d="M2406.43,821.706c-78.645,23.935 -147.532,73.234 -226.895,94.879c-90.777,24.757 -181.622,-1.499 -269.49,3.992c-67.793,4.237 -137.306,43.386 -206.747,55.75c-14.524,2.586 -24.782,2.401 -32.544,0.372c-11.496,-3.006 -17.147,-9.925 -23.434,-14.704c-8.406,-6.391 -17.255,-10.866 -30.323,-10.621c-130.785,2.453 -192.683,38.744 -319.147,10.685c-62.905,-13.957 -103.036,2.468 -131.489,18.33c-8.623,4.806 -16.065,9.565 -22.699,13.239c-4.243,2.35 -7.804,4.42 -11.252,4.719c-22.784,1.979 -41.195,-4.009 -63.045,-10.861c-25.008,-7.843 -53.898,-17.016 -95.44,-20.348c-168.393,-13.506 -174.881,-3.053 -346.217,-19.266c-38.967,-3.688 -98.526,2.611 -115.075,-0.479c-9.006,-1.681 -20.294,-1.108 -31.499,-0.255c-8.192,0.623 -16.32,1.509 -22.658,0.421c-11.971,-2.055 -18.912,-4.623 -23.189,-7.904c-3.818,-2.928 -5.136,-6.286 -6.911,-8.97c-4.129,-6.243 -8.843,-11.315 -17.832,-14.593c-94.26,-34.374 -169.361,-75.486 -255.983,-133.234c-12.391,-8.261 -32.011,-4.497 -36.236,24.341c-6.794,46.377 26.616,195.533 242.524,288.964c196.778,85.152 614.079,115.484 1015.76,109.582c401.717,-5.902 787.674,-48.03 921.709,-105.314c169.517,-72.449 181.923,-183.897 162.042,-238.274c-6.187,-16.92 -15.789,-29.117 -25.347,-35.463c-9.516,-6.317 -19.493,-7.754 -28.581,-4.988Zm-2255.42,-1.248c82.816,54.195 156.717,93.621 248.113,126.95c1.546,0.564 1.68,2.007 2.389,3.127c1.414,2.237 2.907,4.58 4.784,6.965c6.476,8.228 17.116,17.861 46.539,22.912c8.623,1.48 19.684,0.811 30.827,-0.037c8.13,-0.619 16.319,-1.434 22.853,-0.214c16.978,3.169 78.077,-2.887 118.052,0.896c171.571,16.235 178.067,5.783 346.692,19.308c46.44,3.724 75.856,15.509 102.478,23.324c20.346,5.972 39.276,9.802 61.556,7.867c10.023,-0.871 21.601,-6.879 35.609,-15.243c23.993,-14.326 59.028,-35.179 119.727,-21.712c129.559,28.745 193.006,-7.387 326.992,-9.9c4.176,-0.078 6.839,1.788 9.525,3.83c3.825,2.908 7.562,6.282 12.003,9.447c13.114,9.349 31.348,18.047 69.991,11.166c68.224,-12.147 136.378,-51.135 202.984,-55.298c90.054,-5.629 183.144,20.271 276.18,-5.102c79.404,-21.656 148.406,-70.784 227.015,-94.896c0.798,0.515 3.497,2.32 5.004,4.048c3.405,3.904 6.379,9.285 8.727,15.708c16.784,45.904 -0.73,135.015 -143.835,196.175c-132.181,56.493 -512.938,96.816 -909.098,102.637c-396.198,5.82 -807.938,-22.855 -1002.03,-106.845c-170.113,-73.614 -218.062,-182.414 -222.91,-236.797c-0.248,-2.778 -0.269,-5.636 -0.166,-8.316Z" style="fill:#7e4021;"/><path d="M2434.61,607.361c-8.014,1.121 -23.037,3.49 -28.259,6.068c-22.714,11.213 -42.995,22.062 -61.831,39.212c-6.354,5.784 -14.578,6.148 -23.601,5.317c-13.338,-1.228 -28.144,-5.586 -43.487,-9.152c-37.722,-8.766 -77.656,-12.409 -110.916,22.238c-6.371,6.636 -6.155,17.195 0.481,23.565c6.635,6.371 17.195,6.155 23.565,-0.481c16.276,-16.954 35.16,-19.387 53.95,-17.434c15.036,1.562 30.083,5.761 44.307,9.154c30.891,7.368 58.502,9.322 78.141,-8.559c16.445,-14.972 34.316,-24.181 54.146,-33.97c3.122,-1.542 9.887,-1.973 15.19,-2.618c6.523,-0.794 11.874,-1.677 13.455,-2.231c9.635,-3.371 11.082,-10.912 11.424,-14.278c0.222,-2.185 0.597,-16.345 -16.171,-18.736c-3.722,-0.531 -7.335,0.214 -10.394,1.905Zm4.584,30.897l0.053,0.009l-0.119,-0.026l0.066,0.017Z" style="fill:#7e4021;"/><path d="M2152.98,780.222l-0.155,0.035c-8.946,2.141 -14.471,11.142 -12.331,20.088c2.141,8.946 11.141,14.471 20.087,12.331c1.018,-0.244 1.91,-0.477 2.894,-0.842c8.624,-3.201 13.026,-12.801 9.826,-21.425c-3.065,-8.258 -11.998,-12.645 -20.321,-10.187Z" style="fill:#7e4021;"/><path d="M2029.12,759.354c-8.124,-4.012 -18.01,-0.778 -22.179,7.308c-4.215,8.176 -1,18.236 7.176,22.451c1.734,0.894 3.417,1.614 5.323,2.067c8.949,2.127 17.942,-3.411 20.069,-12.361c1.966,-8.271 -2.617,-16.58 -10.389,-19.465Z" style="fill:#7e4021;"/><path d="M1961.48,721.36c6.237,5.066 15.413,5.004 21.596,-0.519c6.86,-6.129 7.454,-16.673 1.326,-23.533c-1.636,-1.832 -2.894,-2.776 -5.007,-4.04c-7.895,-4.721 -18.137,-2.145 -22.859,5.75c-4.556,7.619 -2.315,17.425 4.944,22.342Zm-0.302,-0.254c-0.576,-0.485 -1.121,-1.016 -1.635,-1.592c0.586,0.657 1.056,1.147 1.635,1.592Z" style="fill:#7e4021;"/><path d="M1871.75,791.769c-6.354,-4.47 -15.193,-4.001 -21.046,1.55c-6.674,6.33 -6.953,16.888 -0.623,23.562c1.667,1.757 3.466,2.975 5.597,4.078c8.168,4.23 18.234,1.033 22.464,-7.136c4.098,-7.915 1.223,-17.611 -6.392,-22.054Z" style="fill:#7e4021;"/><path d="M1599.5,766.906c-6.614,-8.586 -17.312,-13.546 -30.442,-14.654c-20.367,-1.719 -47.892,6.355 -60.468,9.709c-8.888,2.37 -14.18,11.51 -11.81,20.398c2.37,8.888 11.511,14.179 20.399,11.809c9.022,-2.406 27.159,-8.157 42.903,-8.796c3.213,-0.13 6.297,-0.046 9.078,0.479c1.543,0.291 3.099,0.314 3.932,1.396c5.614,7.287 16.088,8.646 23.375,3.033c7.287,-5.613 8.646,-16.087 3.033,-23.374Z" style="fill:#7e4021;"/><path d="M1349.49,778.69c-0.121,0.365 -3.141,9.633 -2.015,13.607c0.846,2.985 2.46,6.24 6.338,9.031c7.466,5.372 17.89,3.672 23.263,-3.794c1.544,-2.145 2.503,-4.534 2.907,-6.978c1.266,-6.978 -2.049,-14.268 -8.657,-17.735c-7.751,-4.067 -17.256,-1.418 -21.836,5.869Zm29.349,2.486c-0.963,-2.354 -2.587,-4.768 -5.556,-6.905c2.534,1.824 4.404,4.229 5.556,6.905Zm-29.349,-2.486l0.003,-0.011l-0.073,0.122c-0.212,0.334 -0.41,0.679 -0.596,1.034c0.154,-0.293 0.456,-0.802 0.596,-1.034l0.07,-0.111Z" style="fill:#7e4021;"/><path d="M1383.01,765.365c-17.362,-9.244 -39.08,-10.414 -61.989,-7.811c-27.921,3.172 -57.819,12.216 -80.613,10.713c-36.533,-2.409 -70.146,-18.699 -106.923,-19.274c-29.582,-0.462 -59.284,1.813 -87.654,10.64c-8.783,2.732 -13.696,12.082 -10.963,20.865c2.732,8.784 12.082,13.696 20.865,10.963c24.988,-7.774 51.176,-9.546 77.231,-9.139c36.216,0.566 69.275,16.834 105.251,19.206c20.749,1.368 46.955,-4.737 72.751,-8.913c20.615,-3.337 40.986,-6.023 56.378,2.173c8.119,4.323 18.221,1.241 22.544,-6.878c4.324,-8.12 1.242,-18.221 -6.878,-22.545Z" style="fill:#7e4021;"/><path d="M1170.74,851.012c-6.181,1.522 -11.207,6.539 -12.418,13.203c-1.643,9.051 4.37,17.733 13.421,19.377c3.389,0.615 9.776,-1.12 9.946,-1.167c7.96,-3.299 12.162,-12.239 9.438,-20.565c-2.791,-8.531 -11.828,-13.284 -20.387,-10.848Zm10.928,31.422l0.025,-0.009l-0.004,0l-0.021,0.009c-0.139,0.056 -0.83,0.328 -1.199,0.449c0.409,-0.134 0.809,-0.282 1.199,-0.449Z" style="fill:#7e4021;"/><path d="M1075.05,873.434c5.8,5.221 14.675,5.788 21.148,0.925c7.354,-5.525 8.839,-15.982 3.314,-23.336c-1.575,-2.096 -5.132,-4.576 -5.132,-4.576c-0,0 2.01,1.358 2.993,2.338c-6.511,-6.498 -17.072,-6.488 -23.571,0.023c-6.498,6.511 -6.488,17.072 0.023,23.57c0.336,0.336 0.772,0.705 1.225,1.056Z" style="fill:#7e4021;"/><path d="M988.82,908.063c5.72,-5.626 6.686,-14.735 1.904,-21.494c-5.314,-7.508 -15.724,-9.291 -23.232,-3.977c-4.198,2.97 -6.68,6.361 -7.584,11.61c-1.56,9.065 4.533,17.691 13.599,19.252c5.9,1.015 11.615,-1.212 15.313,-5.391Z" style="fill:#7e4021;"/><path d="M842.444,728.245c-6.382,6.316 -6.61,16.621 -0.434,23.219c6.286,6.715 16.842,7.064 23.557,0.778c2.052,-1.921 4.006,-4.295 5.133,-6.883c3.674,-8.433 -0.189,-18.263 -8.622,-21.937c-7.036,-3.065 -15.044,-0.884 -19.634,4.823Z" style="fill:#7e4021;"/><path d="M653.291,778.714c-8.611,1.947 -14.27,10.347 -12.727,19.135c1.591,9.06 10.238,15.124 19.298,13.533c1.155,-0.203 2.255,-0.531 3.381,-0.858c8.834,-2.561 13.927,-11.813 11.366,-20.648c-2.562,-8.835 -11.814,-13.928 -20.649,-11.367l-0.669,0.205Z" style="fill:#7e4021;"/><path d="M588.842,823.639c5.987,5.597 15.347,6.055 21.881,0.739c7.135,-5.805 8.216,-16.311 2.411,-23.446c-0.951,-1.17 -1.682,-1.851 -2.819,-2.777c-7.133,-5.808 -17.639,-4.733 -23.448,2.399c-5.69,6.988 -4.774,17.214 1.975,23.085Z" style="fill:#7e4021;"/><path d="M472.01,797.912c7.761,3.911 17.345,1.176 21.828,-6.417c4.677,-7.921 2.043,-18.149 -5.878,-22.826c-0.452,-0.267 -1.19,-0.632 -1.664,-0.86c-8.081,-4.048 -17.967,-0.895 -22.197,7.141c-4.285,8.14 -1.154,18.227 6.986,22.512c0.251,0.132 0.635,0.315 0.925,0.45Z" style="fill:#7e4021;"/><path d="M271.859,713.574c-6.763,4.55 -9.335,13.505 -5.69,21.058c3.922,8.13 13.599,11.634 21.786,7.979c0.418,-0.257 5.994,-3.731 7.924,-7.117c4.555,-7.991 1.766,-18.178 -6.225,-22.733c-5.77,-3.29 -12.684,-2.75 -17.795,0.813Zm16.096,29.037l-0.024,0.016c-0,-0 0.324,-0.146 0.491,-0.227l-0.467,0.211Z" style="fill:#7e4021;"/><path d="M744.396,867.577c-0.67,0.21 -1.079,0.375 -1.746,0.746c-7.223,3.506 -11.048,11.842 -8.663,19.778c2.647,8.81 11.948,13.813 20.757,11.166c1.813,-0.544 2.129,-0.628 4.065,-1.786c7.893,-4.722 10.468,-14.965 5.746,-22.859c-4.2,-7.02 -12.765,-9.833 -20.159,-7.045Zm-0,0l-0.424,0.161l-0.271,0.119c-0.358,0.144 -0.708,0.299 -1.051,0.466l-0.954,0.553c0.653,-0.391 1.322,-0.732 2.005,-1.019c0.47,-0.194 0.955,-0.364 1.452,-0.513l-0.757,0.233Z" style="fill:#7e4021;"/><path d="M494.972,863.858c-8.551,-1.4 -16.859,4.045 -18.887,12.605c-2.121,8.951 3.424,17.939 12.375,20.06c1.014,0.24 2.008,0.384 3.046,0.481c9.158,0.855 17.289,-5.886 18.144,-15.045c0.844,-9.036 -5.706,-17.071 -14.678,-18.101Zm0.368,0.06l0.805,0.17c-0.271,-0.064 -0.537,-0.123 -0.805,-0.17Z" style="fill:#7e4021;"/><path d="M142.786,674.967l-0.054,0.023l-0.138,0.066c-8.08,3.648 -11.928,13.064 -8.602,21.374c3.418,8.54 13.126,12.699 21.666,9.281c1.091,-0.437 1.641,-0.684 2.735,-1.339c7.891,-4.727 10.46,-14.972 5.733,-22.863c-4.428,-7.392 -13.698,-10.114 -21.34,-6.542Zm0,0l-0.017,0.008l-0.075,0.038l-0.1,0.043l-0.325,0.154l-0.244,0.137l0.669,-0.334l0.578,-0.249l-0.486,0.203Z" style="fill:#7e4021;"/><path d="M1633.85,877.273c8.856,-1.509 14.958,-9.821 13.684,-18.771c-1.297,-9.107 -9.743,-15.447 -18.85,-14.151c-0.88,0.126 -1.736,0.295 -2.592,0.54c-8.844,2.531 -13.97,11.765 -11.44,20.609c2.397,8.375 10.805,13.415 19.198,11.773Zm0.539,-0.111l-0.203,0.042l0.143,-0.026l0.06,-0.016Z" style="fill:#7e4021;"/><path d="M1505.61,893.08c0.341,-0.005 0.683,-0.009 1.024,-0.012c9.198,-0.074 16.606,-7.602 16.532,-16.8c-0.074,-9.198 -7.602,-16.606 -16.801,-16.532c-0.44,0.004 -0.881,0.008 -1.321,0.016c-9.197,0.156 -16.538,7.75 -16.381,16.947c0.156,9.197 7.749,16.538 16.947,16.381Z" style="fill:#7e4021;"/><path d="M77.223,605.211c10.524,15.278 32.432,26.755 58.269,34.055c33.147,9.366 72.64,12.882 93.385,15.571c9.123,1.182 17.489,-5.264 18.671,-14.386c1.183,-9.122 -5.263,-17.488 -14.386,-18.671c-19.677,-2.551 -57.165,-5.708 -88.606,-14.592c-17.234,-4.869 -32.861,-10.695 -39.881,-20.886c-5.218,-7.575 -15.605,-9.489 -23.18,-4.271c-7.575,5.218 -9.489,15.604 -4.272,23.18Z" style="fill:#7e4021;"/><path d="M326.111,635.475c-4.211,-2.647 -9.558,-3.387 -14.587,-1.549c-8.64,3.157 -13.091,12.735 -9.934,21.374c1.577,4.314 5.033,8.774 11.359,11.311c5.335,2.14 16.762,2.356 19.647,2.521c9.183,0.523 17.064,-6.509 17.587,-15.693c0.522,-9.183 -6.509,-17.064 -15.693,-17.587c-1.047,-0.059 -5.863,-0.269 -8.379,-0.377Z" style="fill:#7e4021;"/><path d="M2346.15,779.442l0.203,0.093l0.149,0.059l0.082,0.036l0.102,0.038c3.355,1.355 7.172,1.628 10.91,0.529c1.45,-0.427 2.799,-1.034 4.027,-1.793c1.381,-0.723 3.256,-2.043 4.944,-4.68c2.615,-3.758 3.665,-8.556 2.556,-13.297c-0.086,-0.087 -12.636,-12.898 -15.702,-13.002c-2.41,-0.083 -4.959,0.317 -7.6,1.545c-1.18,0.549 -5.607,1.84 -8.478,8.977c-3.374,8.387 0.567,17.916 8.807,21.495Zm21.739,-8.19c-1.565,3.342 -4.124,5.94 -7.176,7.582l0.569,-0.255l0.341,-0.175c1.982,-1.217 3.655,-2.821 4.944,-4.68l0.576,-0.961c0.192,-0.374 0.384,-0.749 0.577,-1.123l0.169,-0.388Zm1.232,-10.831l0.002,0.006l-0,0.001l-0.002,-0.007c-0.069,-0.306 -0.15,-0.612 -0.24,-0.917l0.24,0.917Z" style="fill:#7e4021;"/><path d="M2247.43,742.179c0.004,0.013 0.009,0.026 0.013,0.039c3.038,8.682 12.553,13.265 21.236,10.227c8.682,-3.038 13.265,-12.553 10.227,-21.235c-0.004,-0.013 -0.009,-0.026 -0.013,-0.039c-3.038,-8.683 -12.553,-13.266 -21.236,-10.228c-8.682,3.038 -13.265,12.553 -10.227,21.236Z" style="fill:#7e4021;"/><path d="M2498.23,724.703c-0.029,-0.03 -0.058,-0.061 -0.087,-0.092c-6.287,-6.715 -16.842,-7.063 -23.557,-0.776c-6.716,6.286 -7.063,16.842 -0.777,23.557c0.029,0.031 0.058,0.062 0.087,0.093c6.287,6.715 16.843,7.063 23.558,0.776c6.715,-6.287 7.063,-16.842 0.776,-23.558Z" style="fill:#7e4021;"/><path d="M1956.12,854.881l0.027,0.135l0.08,0.29c2.142,8.66 10.791,14.139 19.593,12.292c9.002,-1.889 14.777,-10.731 12.888,-19.734c-0.191,-0.912 -0.063,-0.409 -0.374,-1.511c-2.492,-8.855 -11.704,-14.02 -20.559,-11.527c-8.687,2.445 -13.823,11.359 -11.655,20.055Zm-0,-0l0.086,0.338l0.021,0.087l0.021,0.079l-0.042,-0.166l-0.12,-0.509l0.034,0.171Z" style="fill:#7e4021;"/><path d="M2332.84,503.667c0.262,2.783 1.232,5.535 2.954,7.982c9.584,13.622 21.985,7.237 23.578,6.287c2.913,-1.739 10.141,-6.92 7.785,-18.138c-0.742,-3.53 -11.483,-25.937 -16.388,-34.175c-9.439,-15.852 -19.69,-31.145 -31.187,-45.591c-34.484,-43.325 -78.58,-81.725 -127.239,-108.335c-8.07,-4.414 -18.206,-1.445 -22.619,6.626c-4.414,8.07 -1.445,18.206 6.626,22.62c44.82,24.511 85.388,59.94 117.151,99.848c10.56,13.268 19.958,27.325 28.627,41.885c2.404,4.038 7.82,15.04 10.712,20.991Z" style="fill:#7e4021;"/><path d="M2092.8,243.677c-7.974,-3.059 -65.932,-25.292 -71.047,-27.222c-8.606,-3.248 -18.23,1.102 -21.478,9.709c-3.247,8.606 1.103,18.23 9.709,21.477c5.962,2.25 64.635,27.03 78.322,29.277c10.923,1.794 16.747,-3.972 18.752,-6.679c5.475,-7.392 3.918,-17.838 -3.473,-23.313c-3.235,-2.396 -7.054,-3.445 -10.785,-3.249Zm-11.945,5.978l-0.035,0.044l0.263,-0.304l-0.228,0.26Zm0.639,-0.727l-0.086,0.098l0.302,-0.315l-0.216,0.217Zm0.698,-0.703l-0.123,0.124l0.258,-0.243l-0.135,0.119Zm0.762,-0.675l-0.026,0.024l0.037,-0.032l-0.011,0.008Z" style="fill:#7e4021;"/><path d="M265.26,1166.05c4.602,-7.315 2.837,-17.065 -4.233,-22.272c-7.407,-5.454 -17.848,-3.87 -23.303,3.537c-4.834,6.563 -6.946,15.212 -5.283,25.693c1.535,9.683 6.734,21.818 14.751,34.898c27.055,44.14 86.835,102.453 101.904,112.908c7.558,5.244 17.951,3.366 23.195,-4.191c5.244,-7.558 3.365,-17.951 -4.192,-23.195c-13.711,-9.513 -67.871,-62.78 -92.487,-102.941c-4.574,-7.463 -8.106,-14.342 -9.718,-20.286c-0.363,-1.336 -0.565,-3.356 -0.634,-4.151Z" style="fill:#7e4021;"/><path d="M2327.08,946.628c-0.795,0.31 -1.568,0.62 -1.889,0.771c-47.695,22.36 -95.83,42.048 -147.823,51.899c-9.038,1.712 -14.985,10.44 -13.273,19.478c1.713,9.038 10.441,14.985 19.479,13.272c54.762,-10.376 105.53,-30.917 155.767,-54.468c-0.148,0.069 -0.529,0.231 -0.529,0.231c0,0 9.9,-4.52 12.631,-7.668c3.59,-4.14 4.953,-8.864 4.513,-13.745c-0.826,-9.161 -8.934,-15.929 -18.096,-15.103c-4.3,0.388 -8.073,2.38 -10.78,5.333Z" style="fill:#fff;"/><path d="M2090.32,1013.69c-28.739,5.938 -58.058,10.274 -87.21,13.553c-9.141,1.028 -15.727,9.284 -14.699,18.425c1.028,9.141 9.284,15.727 18.425,14.699c30.162,-3.393 60.495,-7.89 90.229,-14.034c9.008,-1.861 14.81,-10.686 12.949,-19.694c-1.861,-9.009 -10.686,-14.811 -19.694,-12.949Z" style="fill:#fff;"/><path d="M297.36,973.742c8.303,15.429 26.84,28.435 49.331,37.804c29.035,12.095 64.412,18.943 84.047,22.023c9.088,1.426 17.623,-4.795 19.048,-13.882c1.426,-9.088 -4.795,-17.623 -13.882,-19.048c-17.838,-2.799 -50.017,-8.875 -76.395,-19.863c-14.461,-6.024 -27.458,-12.911 -32.796,-22.83c-4.359,-8.1 -14.474,-11.137 -22.575,-6.778c-8.1,4.359 -11.137,14.474 -6.778,22.574Z" style="fill:#fff;"/></g></svg>