<?xml version="1.0" encoding="UTF-8" standalone="no"?><!DOCTYPE svg PUBLIC "-//W3C//DTD SVG 1.1//EN" "http://www.w3.org/Graphics/SVG/1.1/DTD/svg11.dtd"><svg width="100%" height="100%" viewBox="0 0 2579 2676" version="1.1" xmlns="http://www.w3.org/2000/svg" xmlns:xlink="http://www.w3.org/1999/xlink" xml:space="preserve" xmlns:serif="http://www.serif.com/" style="fill-rule:evenodd;clip-rule:evenodd;stroke-linejoin:round;stroke-miterlimit:2;"><g id="Muffin-Vanilla"><path d="M2380.63,1382.2c-14.118,-26.953 -66.729,-61.56 -92.977,-76.169c-239.776,-133.451 -253.646,33.369 -432.714,15.684c-90.72,-8.96 -171.796,-89.299 -265.292,-77.872c-102.922,12.579 -203.744,100.575 -306.737,99.209c-7.479,-0.099 -15.179,-1.563 -22.364,-3.283c-81.062,-19.398 -151.363,-74.804 -236.977,-81.519c-109.152,-8.56 -191.896,131.681 -303.865,128.571c-155.895,-4.33 -135.238,-123 -357.21,-74.772c-9.214,2.002 -136.031,26.17 -136.031,35.015c-0,112.314 338.046,968.19 430.649,1093.99c113.768,154.549 254.067,224.75 651.98,217.225c174.644,-3.303 375.441,-0.245 540.146,-134.177c147.795,-120.181 504.236,-943.971 531.392,-1141.9Z" style="fill:#fff;"/><path d="M2397.14,1384.47c0.471,-3.434 -0.14,-6.929 -1.748,-9.999c-15.232,-29.08 -71.316,-67.237 -99.636,-82.999c-75.547,-42.047 -129.905,-55.192 -173.837,-54.221c-44.462,0.982 -78.642,16.422 -113.555,33.117c-41.414,19.804 -84.056,41.454 -151.789,34.765c-43.586,-4.305 -84.715,-26.152 -126.318,-45.155c-46.143,-21.077 -92.812,-38.763 -142.634,-32.674c-53.078,6.487 -105.731,32.096 -158.277,56.232c-48.611,22.328 -97.08,43.507 -146.217,42.855c-6.259,-0.083 -12.692,-1.387 -18.706,-2.827c-39.54,-9.462 -76.406,-27.833 -113.877,-44.53c-40.139,-17.887 -80.941,-33.887 -125.676,-37.395c-58.296,-4.572 -110.074,29.281 -161.694,65.173c-45.331,31.519 -90.496,64.811 -143.011,63.353c-58.363,-1.622 -90.226,-20.555 -120.82,-39.575c-51.698,-32.138 -99.973,-65.333 -240.392,-34.823c-7.472,1.623 -91.229,17.696 -124.439,28.624c-10.269,3.379 -16.951,7.403 -19.397,9.914c-4.221,4.331 -5.323,8.936 -5.323,12.763c0,34.386 30.45,137.236 76.469,267.604c105.788,299.686 292.252,747.73 357.425,836.265c116.28,157.963 259.015,231.7 665.717,224.009c178.033,-3.367 382.445,-1.379 550.346,-137.91c45.265,-36.807 110.251,-137.895 179.029,-267.353c158.163,-297.7 339.234,-745.812 358.36,-885.213Zm-2153.3,-27.099c24.913,-5.953 115.269,-27.526 122.194,-29.031c125.948,-27.365 169.345,1.733 215.715,30.559c34.783,21.624 71.14,42.743 137.493,44.586c59.457,1.652 111.643,-33.62 162.966,-69.305c45.036,-31.314 89.198,-63.299 140.058,-59.31c40.881,3.206 78.035,18.266 114.716,34.611c39.349,17.534 78.164,36.565 119.686,46.502c8.357,1.999 17.324,3.623 26.022,3.738c53.856,0.715 107.293,-21.421 160.573,-45.895c49.344,-22.665 98.563,-47.343 148.407,-53.435c43.675,-5.338 84.29,11.431 124.74,29.907c44.99,20.55 89.758,43.352 136.891,48.007c75.522,7.458 123.27,-15.784 169.446,-37.865c30.779,-14.718 60.714,-28.998 99.912,-29.864c39.728,-0.878 88.571,11.998 156.89,50.022c15.1,8.404 39.305,23.702 59.173,40.185c10.055,8.342 19.078,16.831 24.549,24.863l0.001,0.001c-22.864,143.841 -199.788,578.273 -353.925,868.397c-65.964,124.159 -127.211,221.829 -170.623,257.13c-161.51,131.333 -358.691,127.205 -529.947,130.444c-389.126,7.359 -526.986,-59.305 -638.242,-210.442c-64.472,-87.583 -248.186,-531.133 -352.837,-827.6c-40.251,-114.028 -69.066,-205.842 -73.858,-246.205Z" style="fill:#7e4021;"/><path d="M2380.63,1382.2c-14.118,-26.953 -66.729,-61.56 -92.977,-76.169c-239.776,-133.451 -253.646,33.369 -432.714,15.684c-90.72,-8.96 -171.796,-89.299 -265.292,-77.872c-102.922,12.579 -203.744,100.575 -306.737,99.209c-7.479,-0.099 -15.179,-1.563 -22.364,-3.283c-81.062,-19.398 -151.363,-74.804 -236.977,-81.519c-109.152,-8.56 -191.896,131.681 -303.865,128.571c-155.895,-4.33 -135.238,-123 -357.21,-74.772c-9.214,2.002 -136.031,26.17 -136.031,35.015c-180.679,16.894 -329.643,-255.954 -70.011,-660.88c472.393,-736.75 1488.47,-978.427 2125.89,-141.207c334.424,439.256 371.978,884.277 98.293,837.223Z" style="fill:#f7bf9a;"/><path d="M238.428,1358.66c11.126,-2.658 119.974,-28.664 127.601,-30.321c125.948,-27.365 169.345,1.733 215.715,30.559c34.783,21.624 71.14,42.743 137.493,44.586c59.457,1.652 111.643,-33.62 162.966,-69.305c45.036,-31.314 89.198,-63.299 140.058,-59.31c40.881,3.206 78.035,18.266 114.716,34.611c39.349,17.534 78.164,36.565 119.686,46.502c8.357,1.999 17.324,3.623 26.022,3.738c53.856,0.715 107.293,-21.421 160.573,-45.895c49.344,-22.665 98.563,-47.343 148.407,-53.435c43.675,-5.338 84.29,11.431 124.74,29.907c44.99,20.55 89.758,43.352 136.891,48.007c75.522,7.458 123.27,-15.784 169.446,-37.865c30.779,-14.718 60.714,-28.998 99.912,-29.864c39.728,-0.878 88.571,11.998 156.89,50.022c15.1,8.404 39.305,23.702 59.173,40.185c11.866,9.845 22.294,19.893 27.145,29.155c2.409,4.599 6.824,7.812 11.94,8.692c60.744,10.443 107.48,-1.845 140.72,-30.668c32.735,-28.385 52.733,-73.601 58.633,-131.951c16.461,-162.791 -77.625,-433.261 -281.562,-701.126c-258.306,-339.277 -578.205,-503.309 -899.47,-530.668c-481.484,-41.005 -966.8,225.514 -1253.7,672.975c-160.301,250.008 -166.99,451.52 -108.332,568.628c41.436,82.723 115.124,125.211 193.924,117.843c4.102,-0.384 7.741,-2.232 10.418,-5.002Zm2152.26,8.251c-19.823,-27.819 -69.01,-61.012 -94.933,-75.44c-75.547,-42.047 -129.905,-55.192 -173.837,-54.221c-44.462,0.982 -78.642,16.422 -113.555,33.117c-41.414,19.804 -84.056,41.454 -151.789,34.765c-43.586,-4.305 -84.715,-26.152 -126.318,-45.155c-46.143,-21.077 -92.812,-38.763 -142.634,-32.674c-53.078,6.487 -105.731,32.096 -158.277,56.232c-48.611,22.328 -97.08,43.507 -146.217,42.855c-6.259,-0.083 -12.692,-1.387 -18.706,-2.827c-39.54,-9.462 -76.406,-27.833 -113.877,-44.53c-40.139,-17.887 -80.941,-33.887 -125.676,-37.395c-58.296,-4.572 -110.074,29.281 -161.694,65.173c-45.331,31.519 -90.496,64.811 -143.011,63.353c-58.363,-1.622 -90.226,-20.555 -120.82,-39.575c-51.698,-32.138 -99.973,-65.333 -240.392,-34.823c-7.472,1.623 -91.229,17.696 -124.439,28.624c-6.319,2.079 -11.279,4.402 -14.73,6.469c-63.757,3.83 -122.221,-32.746 -155.892,-99.969c-55.35,-110.502 -44.672,-299.799 106.589,-535.707c279.966,-436.638 752.977,-697.767 1222.82,-657.754c312.951,26.651 624.154,187.148 875.777,517.647c197.372,259.243 290.849,520.029 274.919,677.581c-4.897,48.433 -20.135,86.559 -47.306,110.12c-25.333,21.966 -60.742,30.515 -105.998,24.134Zm-2147.65,-18.11l-0.008,0.068l0.007,-0.046l0.001,-0.022Zm0.07,-0.89l-0.012,0.169l0.012,-0.14l0,-0.029Z" style="fill:#7e4021;"/><path d="M533.101,774.734c23.008,-4.344 99.581,27.221 102.383,27.363c17.193,0.872 34.669,0.61 51.817,-1.117c2.046,-0.206 4.094,-0.396 6.139,-0.618c24.429,-2.65 50.379,-5.452 74.231,3.709c24.033,9.23 133.704,103.206 118.672,142.163c-37.616,97.486 -324.62,-10.802 -364.945,-62.163c-41.926,-53.399 -28.45,-101.754 11.703,-109.337Z" style="fill:#9d5e3e;"/><path d="M638.348,785.546l-0.238,-0.081c-10.499,-3.71 -45.809,-17.399 -73.31,-23.937c-14.364,-3.414 -27.042,-4.634 -34.791,-3.171c-50.294,9.497 -74.233,69.123 -21.721,136.006c9.377,11.942 30.467,27.132 58.846,41.94c61.778,32.235 158.962,64.685 231.141,65.867c51.163,0.838 90.122,-14.96 103.618,-49.936c2.903,-7.525 3.349,-16.311 1.057,-25.998c-2.528,-10.681 -8.635,-22.942 -17.338,-35.591c-30.589,-44.462 -93.973,-95.223 -111.965,-102.133c-26.36,-10.124 -55.006,-7.648 -82.004,-4.719c-2.003,0.217 -4.008,0.403 -6.011,0.605c-15.646,1.575 -31.578,1.861 -47.284,1.148Zm-102.154,5.565c7.633,-1.441 22.209,2.789 37.3,7.304c21.482,6.428 43.556,14.903 52.375,18.074c4.855,1.745 8.043,2.217 8.771,2.253c18.027,0.914 36.35,0.632 54.331,-1.179c2.089,-0.21 4.179,-0.405 6.267,-0.631c21.862,-2.372 45.113,-5.5 66.458,2.698c15.654,6.012 69.84,51.223 96.455,89.908c5.147,7.481 9.234,14.66 11.457,21.25c1.212,3.593 2.218,6.771 1.186,9.446c-3.975,10.301 -12.178,17.05 -22.879,21.453c-13.377,5.503 -30.258,7.463 -49.094,7.154c-67.573,-1.107 -158.432,-31.913 -216.267,-62.09c-22.885,-11.941 -40.486,-23.342 -48.047,-32.972c-31.526,-40.153 -28.506,-76.966 1.687,-82.668l0,0Z" style="fill:#7e4021;"/><path d="M268.579,524.088c-2.427,1.096 5.133,-0.89 7.709,-0.766c6.93,0.332 13.656,2.038 19.921,5.888c20.878,12.828 40.386,37.842 36.459,69.319c-3.147,25.229 -84.639,179.028 -102.38,194.822c-16.753,14.914 -37.429,16.082 -56.489,8.337c-158.413,-64.371 -14.046,-250.053 94.78,-277.6Z" style="fill:#9d5e3e;"/><path d="M269.345,507.439c-1.598,-0.076 -3.231,0.081 -4.856,0.492c-58.262,14.748 -126.316,71.497 -158.324,133.503c-20.583,39.874 -26.196,81.742 -8.695,116.76c11.663,23.339 33.708,44.165 70.055,58.934c24.938,10.133 51.926,8.185 73.845,-11.329c9.347,-8.321 36.103,-52.625 60.322,-98.545c24.218,-45.917 45.857,-93.37 47.515,-106.662c4.831,-38.724 -18.588,-69.8 -44.273,-85.582c-8.767,-5.387 -18.15,-7.871 -27.848,-8.336c-1.533,-0.073 -5.173,0.391 -7.741,0.765Zm2.767,33.09l4.062,-0.511c3.924,0.257 7.753,1.207 11.31,3.392c16.072,9.876 31.669,28.824 28.646,53.056c-1.49,11.938 -22.17,53.996 -43.921,95.237c-21.75,41.237 -44.61,81.727 -53.004,89.2c-11.587,10.316 -25.948,10.701 -39.132,5.344c-27.02,-10.979 -44.116,-25.605 -52.786,-42.954c-13.002,-26.016 -6.794,-56.946 8.497,-86.569c27.51,-53.292 85.188,-102.712 135.413,-116.091l0.915,-0.104Zm8.3,-4.704c-1.202,1.217 -2.611,2.262 -4.199,3.078c1.919,-0.97 3.256,-2.065 4.199,-3.078Z" style="fill:#7e4021;"/><path d="M1085.9,601.832c1.011,3.819 80.133,45.452 67.689,114.273c-14.343,79.328 -146.927,71.859 -182.713,-10.758c-22.782,-52.594 64.28,-148.566 115.024,-103.515Z" style="fill:#9d5e3e;"/><path d="M1098.29,590.696c-0.408,-0.471 -0.851,-0.911 -1.32,-1.328c-32.001,-28.41 -75.997,-15.708 -107.858,15.744c-17.384,17.16 -30.809,39.458 -36.077,60.988c-3.982,16.275 -3.373,32.191 2.553,45.872c24.632,56.866 89.098,82.963 140.398,74.873c36.907,-5.821 66.906,-28.491 74.009,-67.774c6.606,-36.533 -8.127,-66.736 -27.028,-89.137c-17.092,-20.258 -37.373,-33.721 -44.543,-39.134l-0.134,-0.104Zm-23.504,23.512c2.038,1.847 5.427,4.566 9.94,7.848c9.275,6.744 25.065,18.602 37.323,35.125c10.962,14.774 19.197,33.548 15.144,55.959c-4.372,24.181 -23.681,37.195 -46.4,40.778c-38.136,6.015 -86.307,-12.921 -104.618,-55.195c-3.188,-7.359 -2.904,-15.947 -0.762,-24.701c3.918,-16.012 14.188,-32.426 27.117,-45.188c18.702,-18.462 43.525,-31.216 62.31,-14.539l-0.054,-0.087Z" style="fill:#7e4021;"/><path d="M1767.08,255.337c-2.317,-3.106 -79.322,-31.422 -97.768,-89.891c-21.262,-67.395 82.517,-71.953 143.207,-5.894c38.636,42.054 11.387,129.265 -45.439,95.785Z" style="fill:#9d5e3e;"/><path d="M1757.18,268.748c0.46,0.341 0.938,0.657 1.433,0.949c19.933,11.744 37.403,11.894 51.353,6.106c13.843,-5.743 24.789,-17.957 31.114,-33.881c11.168,-28.116 7.45,-67.8 -16.294,-93.646c-41.476,-45.145 -101.167,-59.834 -136.615,-48.981c-15.008,4.595 -26.345,13.43 -32.719,25.568c-6.122,11.658 -7.95,26.867 -2.041,45.597c7.596,24.078 23.631,43.857 41.478,59.258c24.737,21.346 52.664,34.065 61.752,38.744l0.539,0.286Zm19.333,-27.205c-0.352,-0.255 -0.728,-0.512 -1.132,-0.769c-1.522,-0.966 -5.101,-2.761 -10.16,-5.282c-19.221,-9.579 -66.823,-33.224 -80.021,-75.061c-2.599,-8.236 -2.929,-14.944 -0.237,-20.071c2.44,-4.645 7.222,-7.433 12.966,-9.192c26.801,-8.205 70.952,5.527 102.31,39.66c14.891,16.208 16.866,41.156 9.862,58.789c-2.763,6.956 -6.863,12.889 -12.909,15.398c-5.713,2.37 -12.61,1.076 -20.68,-3.473l0.001,0.001Z" style="fill:#7e4021;"/><path d="M1525.2,330.344c19.929,18.037 41.291,69.464 42.924,95.518c4.649,74.209 -160.684,114.864 -205.874,15.485c-59.033,-129.818 95.615,-171.941 162.95,-111.003Z" style="fill:#9d5e3e;"/><path d="M1536.38,317.987c-26.97,-24.408 -66.073,-34.727 -102.755,-30.993c-37.613,3.829 -72.228,22.382 -89.513,53.52c-14.661,26.412 -17.602,62.509 2.963,107.732c31.006,68.187 110.944,80.251 169.207,59.441c41.684,-14.887 70.755,-46.44 68.473,-82.867c-1.828,-29.178 -26.055,-86.634 -48.375,-106.833Zm-22.367,24.715c17.54,15.874 36.037,61.272 37.474,84.202c1.438,22.968 -20.134,40.005 -46.417,49.392c-43.641,15.588 -104.426,9.227 -127.652,-41.848c-14.858,-32.674 -14.755,-58.673 -4.162,-77.756c12.177,-21.936 37.247,-33.839 63.745,-36.536c27.425,-2.792 56.848,4.296 77.012,22.546Z" style="fill:#7e4021;"/><path d="M2304.17,713.393c38.092,-0.384 247.959,112.42 192.661,190.382c-21.569,30.409 -62.513,14.336 -89.708,9.786c-35.596,-5.955 -77.571,1.883 -111.402,-13.229c-110.709,-49.455 -89.686,-185.949 8.449,-186.939Z" style="fill:#9d5e3e;"/><path d="M2304,696.727c-70.439,0.711 -107.924,59.571 -97.83,119.492c6.404,38.018 32.334,76.808 82.753,99.33c18.841,8.417 39.895,10.737 61.25,11.488c18.434,0.648 37.086,0.1 54.199,2.963c14.155,2.368 31.911,7.607 48.913,8.425c21.962,1.057 42.637,-4.561 57.14,-25.008c14.548,-20.511 15.561,-42.814 6.802,-65.434c-7.427,-19.182 -22.514,-38.798 -41.906,-57.126c-37.995,-35.908 -92.558,-67.382 -130.05,-82.928c-18.284,-7.582 -33.151,-11.284 -41.271,-11.202Zm0.337,33.332c5.595,-0.057 15.567,3.436 28.166,8.661c34.558,14.33 84.9,43.265 119.922,76.363c15.377,14.533 27.828,29.726 33.718,44.936c4.558,11.772 4.665,23.439 -2.907,34.114c-7.07,9.968 -17.642,11.513 -28.349,10.997c-15.662,-0.753 -31.975,-5.825 -45.015,-8.007c-18.483,-3.092 -38.617,-2.699 -58.527,-3.399c-16.99,-0.597 -33.837,-1.914 -48.827,-8.61c-28.838,-12.882 -47.604,-32.33 -57.134,-53.598c-20.695,-46.187 3.441,-100.897 58.953,-101.457Z" style="fill:#7e4021;"/><path d="M1712.8,715.607c16.607,15.003 31.214,38.308 33.907,64.505c0.748,7.281 -66.432,140.474 -75.088,151.43c-25.255,31.965 -72.587,26.638 -105.3,30.848c-23.609,3.039 -48.091,14.605 -71.914,11.327c-23.222,-3.194 -41.016,-21.048 -53.507,-45.228c-64.517,-124.885 188.368,-288.355 271.902,-212.882Z" style="fill:#9d5e3e;"/><path d="M1723.97,703.24c-19.849,-17.934 -47.539,-25.231 -78.858,-23.092c-42.217,2.884 -91.477,23.085 -133.499,53.222c-35.078,25.156 -65.042,57.159 -82.09,91.071c-18.436,36.671 -22.091,75.589 -3.437,111.698c15.22,29.461 37.749,50.197 66.043,54.09c13.928,1.916 28.071,-0.245 42.16,-3.591c11.476,-2.725 22.911,-6.27 34.153,-7.717c16.541,-2.129 36.774,-1.883 56.068,-5.109c23.151,-3.871 44.86,-12.544 60.183,-31.938c7.114,-9.004 52.972,-98.24 70.531,-137.459c3.953,-8.829 6.534,-15.443 7.364,-18.581c0.903,-3.418 0.845,-5.959 0.694,-7.426c-3.134,-30.494 -19.982,-57.703 -39.312,-75.168l-0,-0Zm5.799,75.753l-0.302,0.831c-10.097,26.16 -63.377,131.826 -70.929,141.385c-9.935,12.574 -24.515,17.217 -39.525,19.726c-18.864,3.155 -38.653,2.843 -54.826,4.925c-12.367,1.592 -24.977,5.349 -37.6,8.347c-10.011,2.377 -20.019,4.361 -29.915,2.999c-18.157,-2.498 -31.204,-17.46 -40.971,-36.366c-13.605,-26.336 -9.843,-54.681 3.603,-81.427c14.833,-29.505 41.215,-57.068 71.735,-78.956c36.696,-26.316 79.479,-44.535 116.344,-47.053c21.407,-1.462 40.673,2.312 54.24,14.569l0,0.001c13.283,12 25.178,30.278 28.146,51.019Z" style="fill:#7e4021;"/><path d="M2134.04,597.135c-3.676,12.163 -12.82,22.074 -23.796,31.688c-13.504,11.829 -29.873,22.855 -45.542,34.818c-26.758,20.429 -51.159,43.691 -60.93,75.225c-9.774,31.546 -5.697,72.2 28.575,127.775c4.828,7.83 15.104,10.266 22.934,5.438c7.83,-4.828 10.266,-15.105 5.438,-22.934c-27.092,-43.934 -32.834,-75.476 -25.107,-100.414c7.73,-24.948 28.147,-42.433 49.318,-58.595c19.781,-15.102 40.519,-28.916 55.955,-44.325c12.106,-12.085 21.131,-25.223 25.391,-40.131c2.274,-7.96 1.357,-15.706 -2.29,-23.286c-3.521,-7.316 -10.222,-14.718 -18.416,-21.898c-7.525,-6.593 -16.427,-13.208 -23.274,-20.287c-3.316,-3.43 -6.767,-6.472 -6.979,-10.356c0.958,-1.271 5.681,-7.439 9.568,-11.027c12.195,-11.255 28.53,-22.369 35.317,-28.491c1.782,-1.606 21.73,-18.255 24.264,-20.37c0.435,-0.273 0.858,-0.571 1.271,-0.891c7.271,-5.634 8.6,-16.112 2.966,-23.383c-0.764,-0.985 -11.517,-11.885 -23.877,-2.685c-4.304,3.204 -24.86,20.692 -26.948,22.576c-8.162,7.361 -29.633,21.829 -42.185,35.254c-8.459,9.048 -13.141,18.473 -13.635,25.984c-0.622,9.454 2.384,18.462 8.24,26.912c6.13,8.846 15.833,17.222 25.448,25.202c5.069,4.206 10.075,8.301 14.019,12.453c1.283,1.351 2.437,2.688 3.356,4.052c0.32,0.476 0.718,1.272 0.919,1.696Zm41.528,-124.575c-4.988,0.012 -9.925,-2.208 -13.214,-6.451c2.584,3.334 6.593,6.559 13.214,6.451Z" style="fill:#7e4021;"/><path d="M2089.3,545.907c4.413,1.576 9.46,1.288 13.847,-1.212c7.992,-4.555 10.781,-14.742 6.226,-22.733c-1.501,-2.634 -6.002,-8.31 -16.041,-9.297c-16.663,-1.639 -90.547,7.645 -103.437,8.361c-9.184,0.51 -16.227,8.381 -15.716,17.565c0.51,9.185 8.381,16.227 17.565,15.717c11.578,-0.643 88.999,-7.627 97.556,-8.401Zm-7.51,-5.392l0.002,0.002l-0.032,-0.042l0.03,0.04Zm-0.508,-0.68l0.028,0.038l-0.32,-0.474l0.292,0.436Zm-0.436,-0.652l-0.432,-0.714c0.135,0.237 0.279,0.476 0.432,0.714Z" style="fill:#7e4021;"/><path d="M1684.66,1072.89c-42.012,-23.275 -112.083,-28.961 -154.494,-4.638c-8.224,4.717 -16.795,3.038 -25.308,0.352c-12.982,-4.095 -25.912,-10.976 -38.249,-14.916c-33.613,-10.733 -66.447,-11.189 -99.179,-10.517c-29.658,0.608 -59.212,2.214 -89.216,-4.233c-20.394,-4.382 -40.538,-13.203 -56.556,-26.658c-7.043,-5.916 -17.565,-5.001 -23.481,2.042c-5.917,7.044 -5.002,17.565 2.042,23.482c20.134,16.913 45.356,28.215 70.992,33.724c32.595,7.004 64.683,5.63 96.903,4.969c29.146,-0.598 58.425,-0.613 88.355,8.945c12.373,3.951 25.342,10.845 38.362,14.952c17.496,5.518 35.016,6.468 51.919,-3.227c33.435,-19.176 88.635,-13.469 121.755,4.881c8.047,4.458 18.198,1.544 22.656,-6.502c4.458,-8.046 1.545,-18.198 -6.501,-22.656Z" style="fill:#7e4021;"/><path d="M1316.29,262.891c-36.554,-1.562 -89.639,-15.848 -139.759,-24.255c-36.104,-6.055 -70.786,-9.019 -97.763,-3.686c-37.611,7.434 -65.38,27.367 -91.638,45.984c-32.052,22.725 -61.5,43.498 -112.726,19.856c-8.352,-3.855 -18.262,-0.204 -22.117,8.148c-3.854,8.352 -0.203,18.262 8.149,22.117c55.937,25.817 92.254,12.447 127.107,-10.012c28.856,-18.594 56.182,-45.188 97.689,-53.393c29.941,-5.919 70.518,0.604 110.951,8.449c43.652,8.469 87.132,18.747 118.684,20.095c9.191,0.392 16.971,-6.75 17.363,-15.94c0.393,-9.191 -6.75,-16.971 -15.94,-17.363Z" style="fill:#7e4021;"/><path d="M1090.29,238.608c-6.261,-10.599 -7.158,-21.497 -5.98,-32.785c1.47,-14.084 5.962,-28.697 9.849,-44.123c9.139,-36.269 15.234,-76.192 -12.683,-122.169c-4.774,-7.863 -15.034,-10.37 -22.896,-5.596c-7.863,4.774 -10.37,15.034 -5.596,22.896c27.012,44.488 12.437,82.076 3.919,115.818c-7.436,29.458 -10.829,56.645 4.687,82.912c4.678,7.92 14.907,10.552 22.827,5.874c7.92,-4.679 10.552,-14.907 5.873,-22.827Z" style="fill:#7e4021;"/><path d="M525.19,270.508c-18.899,13.862 -50.93,37.544 -69.05,58.048c-10.492,11.873 -16.397,23.591 -17.039,32.586c-1.232,17.248 2.764,29.615 9.433,38.606c6.935,9.349 17.106,15.449 29.839,18.661c18.915,4.771 44.65,2.692 70.02,0.143c17.425,-1.75 34.643,-3.661 48.511,-2.236c6.326,0.65 11.868,1.413 15.087,5.064c3.051,3.46 2.758,8.916 1.33,16.776c-2.943,16.191 -16.825,30.431 -26.459,43.158c-5.552,7.334 -4.105,17.796 3.229,23.348c7.335,5.552 17.796,4.104 23.348,-3.23c12.556,-16.586 28.842,-36.214 32.678,-57.315c3.879,-21.346 -0.838,-35.386 -9.124,-44.783c-8.11,-9.197 -20.746,-14.54 -36.683,-16.177c-15.79,-1.622 -35.409,0.236 -55.248,2.229c-17.467,1.754 -35.129,3.632 -49.832,2.156c-8.599,-0.862 -16.166,-2.194 -20.146,-7.963c-2.599,-3.768 -3.235,-9.056 -2.734,-16.062c0.134,-1.886 1.727,-3.789 3.373,-6.14c3.209,-4.584 7.669,-9.463 12.773,-14.461c17.195,-16.838 41.341,-34.477 56.409,-45.53c7.417,-5.44 9.022,-15.879 3.582,-23.296c-5.441,-7.418 -15.88,-9.023 -23.297,-3.582Z" style="fill:#7e4021;"/><path d="M568.223,1170.68c3.167,3.646 7.883,5.893 13.08,5.738c9.195,-0.274 16.437,-7.961 16.163,-17.156c-0.211,-7.108 -4.9,-16.208 -18.023,-20.092c-16.767,-4.962 -58.699,-3.029 -63.266,-2.344c-36.031,5.409 -68.345,16.904 -99.269,24.335c-40.694,9.778 -78.784,11.897 -121.055,-25.09c-6.923,-6.058 -17.461,-5.355 -23.518,1.567c-6.057,6.923 -5.355,17.461 1.568,23.518c52.737,46.145 100.023,44.615 150.793,32.415c30.05,-7.221 61.417,-18.525 96.429,-23.781c3.375,-0.506 33.201,-2.323 47.098,0.89Zm-4.005,-9.349l0.003,0.026l-0.005,-0.046l0.002,0.02Z" style="fill:#7e4021;"/><path d="M618.721,1694.72c-11.753,-25.647 -62.716,-75.133 -129.112,-53.245c-51.383,16.939 -74.223,62.043 -77.178,118.679c-4.322,82.874 144.313,248.353 230.658,241.633c86.995,-6.77 215.815,-191.51 192.403,-274.056c-28.027,-98.819 -167.993,-118.636 -216.771,-33.011Z" style="fill:#badcbe;"/><path d="M1193.93,1501.83c-11.753,-25.647 -62.716,-75.132 -129.113,-53.245c-51.382,16.939 -74.223,62.043 -77.177,118.679c-4.323,82.874 144.313,248.353 230.658,241.633c86.995,-6.77 215.815,-191.51 192.403,-274.056c-28.027,-98.819 -167.993,-118.636 -216.771,-33.011Z" style="fill:#f9bfcf;"/><path d="M1504.95,1963.7c-11.753,-25.647 -62.716,-75.132 -129.112,-53.245c-51.383,16.939 -74.223,62.043 -77.178,118.679c-4.322,82.874 144.313,248.353 230.658,241.633c86.995,-6.77 215.815,-191.51 192.404,-274.056c-28.028,-98.819 -167.994,-118.636 -216.772,-33.011Z" style="fill:#e5bdff;"/><path d="M936.469,2234.58c-11.753,-25.647 -62.716,-75.132 -129.113,-53.245c-51.382,16.939 -74.222,62.043 -77.177,118.679c-4.323,82.874 144.313,248.353 230.658,241.633c86.995,-6.77 215.815,-191.51 192.403,-274.056c-28.027,-98.819 -167.993,-118.636 -216.771,-33.011Z" style="fill:#ffce7b;"/><path d="M2048.74,2135.08c-11.753,-25.647 -62.717,-75.132 -129.113,-53.244c-51.382,16.938 -74.223,62.043 -77.177,118.679c-2.429,46.563 43.582,119.507 99.548,173.03c10.582,-14.728 81.418,-135.158 148.323,-280.191c-17.698,8.9 -30.702,22.628 -41.581,41.726Z" style="fill:#f9bfcf;"/><path d="M2016.66,1605.65c-11.753,-25.647 -62.716,-75.132 -129.112,-53.244c-51.383,16.938 -74.223,62.043 -77.178,118.679c-4.322,82.874 144.313,248.353 230.658,241.633c86.995,-6.771 215.815,-191.511 192.404,-274.056c-28.028,-98.82 -167.994,-118.637 -216.772,-33.012Z" style="fill:#ffce7b;"/><path d="M2185.61,1264.04c-0.813,2.25 -5.001,13.782 -10.111,27.04c-66.594,172.8 -418.079,1048.58 -510.495,1319.22c-2.973,8.705 1.681,18.186 10.386,21.158c8.705,2.973 18.186,-1.681 21.159,-10.387c92.331,-270.4 443.521,-1145.37 510.054,-1318.01c7.196,-18.672 11.163,-29.802 11.614,-31.869c3.523,-16.143 -11.276,-20.047 -14.174,-20.415c-8.726,-1.106 -16.741,4.761 -18.433,13.257Zm1.645,11.134c2.947,5.726 7.607,8.045 12.595,8.678c-5.561,-0.705 -10.136,-4.081 -12.595,-8.678Z" style="fill:#7e4021;"/><path d="M1849.51,1322.97c-33.447,138.354 -79.555,370.894 -116.72,496.192c-87.865,296.233 -144.713,506.877 -220.087,806.738c-2.242,8.921 3.18,17.984 12.101,20.227c8.921,2.242 17.984,-3.18 20.227,-12.101c75.247,-299.358 131.999,-509.649 219.717,-805.386c37.288,-125.717 83.603,-359.021 117.162,-497.838c2.162,-8.941 -3.343,-17.955 -12.284,-20.116c-8.941,-2.162 -17.954,3.343 -20.116,12.284Z" style="fill:#7e4021;"/><path d="M1585.14,1255.36c-72.084,446.349 -128.981,940.662 -196.719,1387.73c-1.378,9.094 4.887,17.597 13.982,18.975c9.095,1.378 17.597,-4.887 18.975,-13.982c67.723,-446.968 124.602,-941.167 196.669,-1387.41c1.467,-9.081 -4.715,-17.644 -13.796,-19.111c-9.081,-1.466 -17.644,4.716 -19.111,13.797Z" style="fill:#7e4021;"/><path d="M1273.86,1339.94c-7.813,-2.261 -15.473,-1.98 -16.088,7.342l-0.043,0.028c-0.005,0.29 -0.003,0.578 0.007,0.865l-0.009,0.37c0.003,5.405 0.015,32.606 0.015,33.446c0.002,25.662 0.003,51.325 0.005,76.987c0.004,107.503 0.006,215.007 0.01,322.51c0.01,288.588 0.04,577.426 0.003,866.004c-0.001,9.198 7.466,16.667 16.665,16.668c9.198,0.002 16.667,-7.466 16.668,-16.664c0.037,-288.58 0.007,-577.419 -0.003,-866.01c-0.004,-107.503 -0.006,-215.006 -0.01,-322.509c-0.001,-25.663 -0.002,-51.326 -0.004,-76.988c-0,-0.841 -0.013,-28.055 -0.016,-33.462l-0.011,-0.441l0.008,-0.182l-0.013,-0.008c-0.329,-10.392 -8.848,-10.454 -17.184,-7.956Z" style="fill:#7e4021;"/><path d="M970.905,1264.36c13.43,111.71 49.115,374.41 62.121,486.17c34.543,296.808 59.435,599.865 83.734,897.52c0.748,9.168 8.799,16.003 17.967,15.255c9.168,-0.748 16.004,-8.799 15.256,-17.967c-24.33,-298.033 -49.26,-601.476 -83.847,-898.661c-13.01,-111.789 -48.702,-374.558 -62.136,-486.296c-1.098,-9.133 -9.404,-15.656 -18.537,-14.558c-9.133,1.098 -15.656,9.404 -14.558,18.537Z" style="fill:#7e4021;"/><path d="M702.027,1403.22c59.384,267.531 203.958,965.614 278.531,1229.49c2.502,8.852 11.719,14.007 20.571,11.506c8.852,-2.502 14.008,-11.72 11.506,-20.571c-74.461,-263.477 -218.772,-960.518 -278.067,-1227.65c-1.994,-8.98 -10.902,-14.652 -19.882,-12.659c-8.98,1.994 -14.653,10.903 -12.659,19.883Z" style="fill:#7e4021;"/><path d="M399.573,1322.66c31.174,130.464 339.326,1001.94 417.706,1272.32c2.562,8.835 11.814,13.928 20.649,11.367c8.834,-2.561 13.928,-11.813 11.367,-20.648c-78.288,-270.06 -386.164,-1140.48 -417.302,-1270.79c-2.138,-8.947 -11.137,-14.475 -20.083,-12.337c-8.947,2.138 -14.475,11.137 -12.337,20.084Z" style="fill:#7e4021;"/></g></svg>