<?xml version="1.0" encoding="UTF-8" standalone="no"?><!DOCTYPE svg PUBLIC "-//W3C//DTD SVG 1.1//EN" "http://www.w3.org/Graphics/SVG/1.1/DTD/svg11.dtd"><svg width="100%" height="100%" viewBox="0 0 3569 2764" version="1.1" xmlns="http://www.w3.org/2000/svg" xmlns:xlink="http://www.w3.org/1999/xlink" xml:space="preserve" xmlns:serif="http://www.serif.com/" style="fill-rule:evenodd;clip-rule:evenodd;stroke-linejoin:round;stroke-miterlimit:2;"><g id="Pie"><g><path d="M3477.77,1642.12c58.253,-283.579 -3329.21,-161.487 -3347.02,-65c-23.73,128.574 299.385,878.281 553.372,1027.25c316.813,185.821 1947.94,190 2230.84,12.905c282.09,-176.588 523.39,-783.295 562.801,-975.156Z" style="fill:#e4ac87;"/><path d="M3494.09,1645.47c3.691,-17.969 -1.666,-35.044 -16.751,-50.755c-11.923,-12.418 -30.742,-24.254 -56.124,-34.975c-107.369,-45.351 -340.685,-74.863 -636.41,-91.598c-782.546,-44.286 -2004.99,-1.806 -2469.05,51.57c-95.562,10.991 -159.787,22.987 -183.012,34.253c-12.435,6.032 -17.287,14.161 -18.387,20.126c-3.103,16.808 -1.21,43.396 5.787,77.393c15.148,73.597 53.732,184.828 106.709,306.517c67.841,155.834 159.266,328.918 254.657,461.906c64.78,90.31 131.666,162.173 194.177,198.837c58.18,34.124 159.694,62.623 288.923,84.741c296.438,50.736 740.619,69.41 1134.69,55.923c225.452,-7.716 434.519,-25.965 590.248,-54.663c106.081,-19.549 187.81,-44.273 234.253,-73.346c114.727,-71.819 223.219,-213.269 314.191,-370.047c135.297,-233.167 232.254,-499.833 256.093,-615.882Zm-3347.58,-60.927c2.213,-1.09 5.892,-2.798 9.154,-3.903c27.718,-9.393 84.464,-18.677 163.897,-27.813c462.994,-53.252 1682.62,-95.589 2463.36,-51.405c166.851,9.442 313.605,22.83 428.528,40.941c101.197,15.948 177.278,35.224 219.656,59.16c9.801,5.536 17.616,11.221 23.135,17.291c5.725,6.295 8.668,12.789 7.198,19.949c-23.456,114.184 -119.151,376.44 -252.273,605.859c-87.974,151.613 -192.101,289.071 -303.047,358.523c-44.085,27.597 -121.913,50.262 -222.607,68.819c-154.434,28.459 -361.77,46.478 -585.347,54.13c-391.724,13.407 -833.261,-5.031 -1127.93,-55.465c-124.104,-21.241 -221.809,-47.867 -277.682,-80.638c-59.404,-34.842 -122.394,-103.69 -183.955,-189.513c-94.118,-131.212 -184.245,-302.029 -251.18,-455.782c-44.516,-102.253 -78.772,-196.937 -96.991,-267.342c-10.594,-40.942 -16.012,-73.073 -13.912,-92.811Z" style="fill:#7e4021;"/><path d="M1124.07,2609.03c-7.265,-12.584 -2.947,-28.7 9.637,-35.965c12.584,-7.266 28.699,-2.948 35.965,9.637c7.265,12.584 2.947,28.699 -9.637,35.964c-12.584,7.266 -28.699,2.948 -35.965,-9.636Z" style="fill:#7e4021;"/><path d="M803.104,2278.62c-7.265,-12.584 -2.947,-28.699 9.637,-35.964c12.584,-7.266 28.699,-2.948 35.965,9.636c7.265,12.584 2.947,28.7 -9.637,35.965c-12.584,7.265 -28.699,2.947 -35.965,-9.637Z" style="fill:#7e4021;"/><path d="M986.679,2597.3c-7.265,-12.584 -2.947,-28.699 9.637,-35.964c12.584,-7.266 28.699,-2.948 35.965,9.636c7.265,12.584 2.947,28.7 -9.637,35.965c-12.584,7.265 -28.699,2.947 -35.965,-9.637Z" style="fill:#7e4021;"/><path d="M389.777,2024.27c-7.266,-12.584 -2.948,-28.7 9.637,-35.965c12.584,-7.265 28.699,-2.947 35.964,9.637c7.266,12.584 2.948,28.699 -9.636,35.964c-12.585,7.266 -28.7,2.948 -35.965,-9.636Z" style="fill:#7e4021;"/><path d="M876.545,2502.88c-7.265,-12.584 -2.947,-28.7 9.637,-35.965c12.584,-7.266 28.699,-2.948 35.965,9.637c7.265,12.584 2.947,28.699 -9.637,35.964c-12.584,7.266 -28.699,2.948 -35.965,-9.636Z" style="fill:#7e4021;"/><path d="M780.973,2581.29c-7.266,-12.584 -2.948,-28.7 9.636,-35.965c12.584,-7.266 28.7,-2.948 35.965,9.637c7.266,12.584 2.948,28.699 -9.637,35.964c-12.584,7.266 -28.699,2.948 -35.964,-9.636Z" style="fill:#7e4021;"/><path d="M1055.95,2470.55c-7.265,-12.584 -2.947,-28.699 9.637,-35.965c12.584,-7.265 28.699,-2.947 35.965,9.637c7.265,12.584 2.947,28.7 -9.637,35.965c-12.584,7.265 -28.699,2.947 -35.965,-9.637Z" style="fill:#7e4021;"/><path d="M724.169,2365.22c-7.266,-12.585 -2.948,-28.7 9.637,-35.965c12.584,-7.266 28.699,-2.948 35.964,9.636c7.266,12.585 2.948,28.7 -9.636,35.965c-12.584,7.266 -28.7,2.948 -35.965,-9.636Z" style="fill:#7e4021;"/><path d="M467.967,2122.15c-7.265,-12.584 -2.947,-28.7 9.637,-35.965c12.584,-7.266 28.699,-2.948 35.965,9.637c7.265,12.584 2.947,28.699 -9.637,35.964c-12.584,7.266 -28.699,2.948 -35.965,-9.636Z" style="fill:#7e4021;"/><path d="M944.938,2424.55c-7.265,-12.584 -2.947,-28.699 9.637,-35.965c12.584,-7.265 28.699,-2.947 35.965,9.637c7.265,12.584 2.947,28.699 -9.637,35.965c-12.584,7.265 -28.699,2.947 -35.965,-9.637Z" style="fill:#7e4021;"/><path d="M833.013,2404.47c-7.266,-12.584 -2.948,-28.699 9.636,-35.965c12.584,-7.265 28.7,-2.947 35.965,9.637c7.265,12.584 2.947,28.7 -9.637,35.965c-12.584,7.265 -28.699,2.947 -35.964,-9.637Z" style="fill:#7e4021;"/><path d="M556.767,2184.25c-7.265,-12.584 -2.947,-28.7 9.637,-35.965c12.584,-7.266 28.699,-2.947 35.965,9.637c7.265,12.584 2.947,28.699 -9.637,35.964c-12.584,7.266 -28.699,2.948 -35.965,-9.636Z" style="fill:#7e4021;"/><path d="M688.314,2215.2c-7.266,-12.584 -2.948,-28.699 9.637,-35.965c12.584,-7.265 28.699,-2.947 35.964,9.637c7.266,12.584 2.948,28.699 -9.636,35.965c-12.584,7.265 -28.7,2.947 -35.965,-9.637Z" style="fill:#7e4021;"/><path d="M623.419,2310.12c-7.265,-12.584 -2.947,-28.699 9.637,-35.964c12.584,-7.266 28.7,-2.948 35.965,9.636c7.265,12.584 2.947,28.7 -9.637,35.965c-12.584,7.266 -28.699,2.947 -35.965,-9.637Z" style="fill:#7e4021;"/><path d="M577.106,2432.18c-7.266,-12.584 -2.948,-28.7 9.636,-35.965c12.584,-7.265 28.7,-2.947 35.965,9.637c7.266,12.584 2.947,28.699 -9.637,35.965c-12.584,7.265 -28.699,2.947 -35.964,-9.637Z" style="fill:#7e4021;"/><path d="M730.23,2479.11c-9.285,-11.178 -7.748,-27.79 3.43,-37.075c11.177,-9.285 27.79,-7.748 37.075,3.43c9.285,11.178 7.748,27.79 -3.43,37.075c-11.178,9.285 -27.791,7.748 -37.075,-3.43Z" style="fill:#7e4021;"/><path d="M456.793,2260.82c-9.285,-11.178 -7.748,-27.791 3.43,-37.075c11.177,-9.285 27.79,-7.748 37.075,3.429c9.284,11.178 7.747,27.791 -3.43,37.076c-11.178,9.284 -27.791,7.747 -37.075,-3.43Z" style="fill:#7e4021;"/><path d="M130.719,1455.58c158.329,-85.701 692.219,-434.993 944.202,-531.808c283.155,-108.79 724.309,-177.14 1025.12,-122.755c492.842,89.103 843.69,332.301 1175.77,526.323c146.184,85.411 294.273,137.912 273.625,269.111c-16.217,103.039 -143.315,118.282 -219.616,167.877c-66.095,42.961 38.942,204.678 -116.341,278.775c-116.328,55.509 -244.494,-58.343 -320.853,-49.391c-58.395,6.845 -63.16,145.496 -169.044,192.694c-161.23,71.87 -257.015,-116.88 -327.358,-99.474c-103.482,25.606 -122.962,161.087 -325.048,163.507c-135.946,1.629 -221.904,-129.885 -250.383,-144.482c-78.872,-40.43 -102.698,172.572 -303.614,146.204c-147.428,-19.348 -157.566,-163.387 -203.716,-183.193c-46.626,-20.01 -157.306,162.524 -343.851,84.582c-121.03,-50.569 -105.652,-191.456 -152.836,-213.343c-21.075,-9.775 -114.555,29.408 -174.109,54.156c-317.767,132.054 -331.049,-215.347 -364.691,-224.713c-15.038,-4.187 -183.465,17.95 -239.112,-85.279c-59.435,-110.255 18.141,-188.891 91.856,-228.791Z" style="fill:#fcd2b8;"/><path d="M270.943,1785.81c1.019,1.811 2.463,4.516 3.485,6.921c5.938,13.984 12.445,35.649 21.445,60.271c22.638,61.939 60.731,140.511 137.913,172.841c51.41,21.534 120.695,23.22 215.276,-16.085c41.001,-17.039 98.323,-41.114 136.153,-50.679c7.235,-1.83 13.661,-3.112 18.98,-3.571c2.211,-0.191 5.33,-0.014 5.987,0.028c6.141,3.056 10.054,9.696 14.038,17.78c5.76,11.689 10.591,26.351 16.132,42.34c18.672,53.88 44.827,120.683 122.834,153.276c118.765,49.622 208.693,0.647 272.205,-42.609c23.149,-15.766 42.395,-30.676 58.041,-38.322c3.144,-1.537 6.072,-2.741 8.825,-3.423c1.728,-0.428 3.267,-0.876 4.632,-0.29c6.693,2.873 11.742,9.928 17.352,18.563c7.579,11.668 15.082,26.267 23.914,41.819c29.12,51.279 71.599,111.519 166.854,124.02c128.345,16.844 189.345,-56.934 235.324,-110.253c10.77,-12.489 20.558,-23.703 30.407,-31.608c10.205,-8.191 20.222,-12.305 32.45,-6.037c3.591,1.841 8.122,6.3 14.008,12.051c11.279,11.021 25.828,26.496 43.53,42.956c46.569,43.3 114.235,92.345 200.647,91.31c127.291,-1.525 185.657,-53.131 235.378,-100.143c29.383,-27.782 54.955,-54.32 93.474,-63.851c10.387,-2.57 21.252,2.044 33.378,8.894c15.884,8.972 33.02,22.366 51.801,36.454c62.443,46.84 141.274,99.39 244.961,53.17c67.412,-30.05 97.149,-94.222 122.775,-142.97c7.406,-14.089 14.395,-26.684 22.331,-36.002c5.623,-6.601 11.48,-11.5 19.092,-12.392c13.285,-1.557 28.328,1.477 44.775,6.433c28.097,8.465 59.666,22.703 93.029,34.832c60.232,21.898 125.869,36.399 188.287,6.615c101.329,-48.352 102.204,-130.27 101.043,-198.752c-0.335,-19.788 -0.863,-38.216 1.946,-53.717c2.098,-11.573 5.952,-21.326 15.257,-27.374c37.76,-24.544 88.144,-40.478 131.04,-63.133c48.092,-25.401 86.959,-58.957 95.957,-116.127c11.365,-72.213 -22.579,-123.315 -80.607,-167.57c-53.18,-40.556 -127.337,-75.44 -201.074,-118.522c-333.57,-194.894 -686.153,-438.831 -1181.21,-528.334c-303.429,-54.858 -748.447,13.862 -1034.06,123.599c-252.483,97.006 -787.516,446.837 -946.158,532.707l-0.001,0c-80.729,43.698 -163.684,130.611 -98.593,251.357c30.452,56.49 91.15,79.704 146.904,88.342c36.73,5.691 70.895,5.183 90.747,5.076c3.145,-0.017 6.618,0.046 9.1,0.109Zm-132.29,-315.569c158.015,-85.531 690.762,-434.284 942.246,-530.907c280.692,-107.844 717.982,-175.824 1016.18,-121.912c490.627,88.702 839.739,331.163 1170.32,524.313c72.448,42.328 145.427,76.4 197.676,116.246c47.403,36.151 77.177,76.893 67.893,135.883c-7.22,45.873 -40.007,71.452 -78.596,91.834c-43.783,23.123 -95.099,39.609 -133.639,64.66c-17.138,11.139 -26.026,28.063 -29.89,49.378c-3.15,17.382 -2.851,38.036 -2.475,60.226c0.973,57.457 2.946,127.535 -82.07,168.103c-53.913,25.726 -110.518,11.056 -162.543,-7.858c-33.99,-12.357 -66.177,-26.797 -94.802,-35.421c-21.368,-6.438 -41.012,-9.647 -58.272,-7.624c-12.939,1.517 -24.121,7.418 -34.135,17.014c-11.927,11.43 -22.289,28.77 -32.912,48.977c-22.676,43.136 -47.19,101.444 -106.842,128.035c-89.795,40.026 -157.31,-8.826 -211.387,-49.39c-24.379,-18.287 -46.368,-35.241 -66.331,-44.434c-16.578,-7.635 -32.19,-10.236 -46.857,-6.607c-44.269,10.954 -74.599,40.059 -108.368,71.988c-45.004,42.551 -97.664,89.653 -212.876,91.033c-76.725,0.919 -136.201,-43.944 -177.55,-82.39c-30.883,-28.716 -53.026,-54.106 -65.031,-60.259c-21.855,-11.203 -40.668,-8.525 -58.995,2.9c-14.398,8.976 -28.641,24.469 -44.311,42.64c-40.394,46.843 -92.985,113.769 -205.742,98.971c-81.66,-10.717 -117.243,-63.471 -142.206,-107.43c-11.184,-19.694 -20.456,-37.877 -30.149,-51.075c-8.276,-11.268 -17.18,-19.282 -26.957,-23.478c-9.053,-3.886 -19.619,-3.914 -31.691,0.344c-12.264,4.327 -26.98,13.655 -43.969,25.461c-56.98,39.594 -144.917,110.281 -268.338,58.713c-67.233,-28.091 -88.096,-86.996 -104.189,-133.434c-7.371,-21.27 -13.857,-40.324 -22.065,-54.219c-7.088,-12 -15.627,-20.621 -25.995,-25.43c-8.272,-3.837 -25.176,-3.783 -46.744,1.671c-39.098,9.886 -98.399,34.604 -140.774,52.214c-83.371,34.646 -144.289,35.103 -189.605,16.121c-67.909,-28.446 -99.566,-99.041 -119.485,-153.539c-10.942,-29.94 -18.506,-55.628 -25.549,-69.363c-5.831,-11.372 -13.169,-16.923 -19.185,-18.598c-2.893,-0.806 -10.191,-1.287 -20.783,-1.23c-18.695,0.101 -50.874,0.676 -85.464,-4.683c-46.133,-7.148 -97.468,-24.477 -122.665,-71.219c-53.785,-99.772 18.412,-170.118 85.119,-206.225l-0,-0Z" style="fill:#7e4021;"/><path d="M2357.09,1936.24c-0.825,1.973 -1.28,4.138 -1.28,6.408c-0,9.198 7.468,16.666 16.667,16.666c7.835,0 16.67,-14.786 16.67,-14.786c0,0 -0.47,2.364 -0.799,3.285c23.582,-66.028 88.593,-117.272 161.215,-141.516c72.101,-24.07 152.355,-21.759 207.95,22.131c7.22,5.7 17.709,4.466 23.409,-2.754c5.699,-7.22 4.465,-17.709 -2.754,-23.409c-64.001,-50.527 -156.156,-55.296 -239.16,-27.586c-82.351,27.492 -155.035,86.74 -181.918,161.561Z" style="fill:#7e4021;"/><path d="M529.002,1606.09c14.083,-2.638 28.855,-1.456 42.984,0.114c48.017,5.336 95.026,16.729 126.303,56.166c5.716,7.207 16.208,8.418 23.415,2.702c7.207,-5.716 8.418,-16.208 2.702,-23.415c-37.061,-46.729 -91.843,-62.26 -148.739,-68.582c-17.355,-1.929 -35.501,-2.989 -52.801,0.251c-9.041,1.693 -15.007,10.408 -13.314,19.45c1.693,9.041 10.408,15.007 19.45,13.314Z" style="fill:#7e4021;"/><path d="M258.27,1546.08l0.018,0.022c-0,0 -18.746,-41.578 -23.045,-47.003c-26.515,-33.458 -56.595,-57.461 -100.161,-62.586c-9.135,-1.075 -17.425,5.469 -18.5,14.605c-1.074,9.135 5.47,17.425 14.606,18.5c34.19,4.022 57.121,23.925 77.93,50.184c3.663,4.622 16.328,34.736 18.952,40.371c2.22,4.769 4.846,6.691 5.137,6.926c5.649,4.559 10.935,4.05 14.316,3.249c4.969,-1.178 10.966,-4.205 12.572,-13.333c0.686,-3.898 -0.045,-7.719 -1.825,-10.935Zm-19.193,-7.971c-4.802,1.302 -10.286,4.465 -11.811,13.13c1.14,-6.478 5.886,-11.422 11.811,-13.13Zm13.689,2.043l0.438,0.299l-0.118,-0.089l-0.32,-0.21Zm-0.061,-0.04c-1.811,-1.169 -3.881,-2.003 -6.136,-2.4c-1.922,-0.338 -3.825,-0.332 -5.645,-0.022c3.049,-0.57 7.254,-0.618 11.781,2.422Z" style="fill:#7e4021;"/><path d="M3247.49,1428.75c-39.229,8.304 -81.634,36.742 -97.588,80.961c-10.569,29.294 -10.001,65.786 11.936,108.244c4.222,8.172 14.285,11.379 22.457,7.157c8.172,-4.223 11.379,-14.285 7.157,-22.458c-16.572,-32.073 -18.179,-59.501 -10.195,-81.63c11.876,-32.915 43.935,-53.482 73.136,-59.663c8.999,-1.905 14.759,-10.757 12.854,-19.757c-1.905,-8.999 -10.757,-14.759 -19.757,-12.854Z" style="fill:#7e4021;"/><path d="M2921.43,1812.81c1.591,-42.352 13.268,-69.96 31.265,-87.083c16.294,-15.503 37.373,-22.067 58.69,-24.188c35.102,-3.491 71.115,4.991 92.27,10.894c8.86,2.473 18.06,-2.713 20.533,-11.573c2.472,-8.86 -2.713,-18.061 -11.573,-20.534c-23.955,-6.685 -64.78,-15.91 -104.529,-11.956c-28.583,2.843 -56.52,12.421 -78.368,33.208c-22.871,21.76 -39.576,56.158 -41.598,109.98c-0.345,9.193 6.837,16.936 16.029,17.281c9.193,0.345 16.936,-6.837 17.281,-16.029Z" style="fill:#7e4021;"/><path d="M1754.71,17.335c0.519,0.165 -64.635,101.066 -68.087,104.642c-50.121,51.91 -111.052,96.419 -177.065,125.416c-171.567,75.365 -434.826,153.195 -483.727,363.613c-11.991,51.596 30.324,85.566 27.911,121.111c-13.939,205.38 -73.834,379.481 133.571,529.388c48.77,35.249 101.826,58.184 161.696,65.92c26.65,3.443 76.413,-11.967 99.318,1.246c39.613,22.851 64.476,79.404 99.442,109.815c68.574,59.639 162.307,82.644 251.925,80.868c57.656,-1.142 123.751,-20.691 172.214,-52.249c17.729,-11.545 35.032,-47.923 53.889,-53.12c99.884,-27.526 191.94,56.85 299.074,-74.109c57.566,-70.367 6.459,-140.583 33.751,-205.339c7.23,-17.156 46.394,-25.84 60.534,-38.183c44.792,-39.098 78.704,-93.21 83.646,-153c4.362,-52.781 -2.689,-109.248 -29.904,-155.546c-11.548,-19.646 -52.296,-50.158 -54.734,-71.814c-3.942,-35.027 15.538,-70.61 11.776,-107.262c-6.611,-64.399 -42.373,-74.983 -70.265,-122.653c-21.74,-37.153 -15.226,-80.484 -49.301,-115.069c-103.887,-105.444 -293.297,-116.212 -418.574,-191.582c-47.138,-28.36 -131.631,-100.81 -137.09,-162.093Z" style="fill:#fff;"/><path d="M1739.86,9.788c1.053,-2.08 2.548,-3.944 4.421,-5.448c4.346,-3.49 10.149,-4.576 15.463,-2.895c4.408,1.395 7.973,4.201 10.154,9.01c0.521,1.149 1.625,3.489 1.575,6.876c2.399,21.233 15.898,43.626 33.196,64.833c28.741,35.234 68.668,66.702 95.729,82.983c61.656,37.094 139.174,58.084 213.98,82.981c78.587,26.155 154.161,56.666 207.874,111.184c19.303,19.592 27.435,41.491 33.494,63.923c4.968,18.39 8.224,37.173 18.32,54.427c13.473,23.026 28.965,37.002 41.769,53.092c14.958,18.797 26.96,39.935 30.69,76.276c2.063,20.095 -1.969,39.926 -6.253,59.505c-3.51,16.04 -7.31,31.862 -5.54,47.594c0.69,6.129 6.694,12.654 13,19.895c14.089,16.176 32.239,32.917 39.541,45.338c28.943,49.24 36.785,109.23 32.145,165.364c-5.297,64.085 -41.288,122.278 -89.296,164.184c-7.946,6.937 -22.72,13.229 -36.728,19.814c-5.336,2.508 -10.516,5.092 -14.72,8.021c-1.999,1.393 -3.952,2.518 -4.688,4.265c-12.619,29.943 -6.253,61.191 -4.247,93.045c2.413,38.308 0.051,77.243 -31.962,116.374c-69.445,84.889 -132.986,86.127 -196.048,79.88c-36.905,-3.656 -73.607,-10.698 -111.498,-0.256c-2.404,0.662 -4.512,2.683 -6.833,4.887c-4.034,3.83 -7.975,8.642 -11.919,13.6c-10.104,12.703 -20.405,25.977 -30.47,32.532c-50.933,33.166 -120.385,53.745 -180.979,54.946c-93.675,1.856 -191.514,-22.618 -263.192,-84.957c-18.309,-15.922 -34.122,-38.564 -50.393,-60.342c-14.115,-18.892 -28.446,-37.232 -46.44,-47.611c-9.08,-5.238 -23.576,-3.535 -38.351,-2.132c-19.983,1.899 -40.485,4.825 -54.775,2.978c-62.683,-8.099 -118.262,-32.036 -169.323,-68.942c-130.109,-94.039 -159.577,-197.201 -159.212,-311.053c0.235,-72.931 13.175,-150.439 18.776,-232.971c1.037,-15.275 -8.557,-29.871 -16.102,-46.532c-10.17,-22.459 -18.361,-47.333 -11.415,-77.222c25.503,-109.739 106.225,-185.472 203.618,-243.028c93.962,-55.528 203.316,-94.152 289.64,-132.072c64.053,-28.137 123.145,-71.365 171.778,-121.734c3.016,-3.124 54.307,-82.944 64.217,-98.961l1.004,-1.651Zm9.309,47.377c7.216,15.536 17.491,31.137 29.67,46.068c31.336,38.416 74.87,72.725 104.375,90.476c63.621,38.277 143.447,60.356 220.637,86.046c73.409,24.432 144.483,52.026 194.656,102.952c14.774,14.994 20.422,32.052 25.059,49.221c5.73,21.21 10.086,42.668 21.73,62.568c11.76,20.099 24.763,34.009 36.68,47.732c14.956,17.221 27.892,34.129 31.39,68.206c1.7,16.558 -2.127,32.843 -5.657,48.976c-4.304,19.672 -8.273,39.153 -6.101,58.448c1.262,11.208 9.455,24.817 20.988,38.058c12.653,14.527 29.383,29.183 35.94,40.338c25.485,43.356 31.747,96.3 27.662,145.727c-4.588,55.496 -36.421,105.527 -77.996,141.817c-7.749,6.764 -23.942,11.907 -36.911,18.658c-13.45,7.002 -23.912,15.857 -28.022,25.608c-11.989,28.449 -10.76,57.805 -8.345,87.799c2.978,37.002 8.252,75.324 -22.946,113.46c-59.117,72.262 -113.281,73.133 -166.963,67.815c-40.924,-4.054 -81.622,-10.8 -123.64,0.78c-10.164,2.801 -20.636,11.5 -30.301,22.917c-9.677,11.43 -18.687,26.073 -28.255,32.304c-45.993,29.95 -108.731,48.468 -163.449,49.552c-85.561,1.696 -175.188,-19.842 -240.658,-76.781c-16.658,-14.488 -30.759,-35.328 -45.564,-55.142c-16.961,-22.701 -34.866,-44.062 -56.487,-56.534c-11.483,-6.624 -28.218,-8.404 -46.463,-7.357c-20.759,1.192 -43.848,5.983 -59.047,4.019c-57.058,-7.373 -107.59,-29.306 -154.069,-62.899c-118.777,-85.849 -145.738,-179.995 -145.405,-283.931c0.233,-72.261 13.15,-149.048 18.7,-230.82c1.144,-16.857 -5.465,-33.618 -13.776,-51.334c-9.079,-19.355 -20.742,-40.4 -14.53,-67.133c23.398,-100.681 98.755,-169.071 188.109,-221.876c92.785,-54.833 200.845,-92.806 286.087,-130.251c67.973,-29.858 130.743,-75.647 182.352,-129.099c2.268,-2.35 30.562,-45.472 50.55,-76.388Z" style="fill:#7e4021;"/><path d="M1463.93,1319.1l-0.09,-0.123c-4.233,-5.864 -24.642,-35.939 -25.601,-37.314c-17.807,-25.546 -36.51,-50.347 -53.45,-76.508c-70.596,-109.021 -139.283,-241.056 -124.45,-374.839c3.119,-28.126 9.785,-55.972 20.557,-82.166c34.52,-83.934 101.648,-125.014 173.655,-160.427c77.331,-38.032 160.225,-69.792 220.652,-133.011c60.402,-63.193 77.207,-130.639 80.598,-201.229c3.195,-66.494 -6.046,-135.843 1.367,-206.789c0.956,-9.148 -5.695,-17.352 -14.844,-18.308c-9.149,-0.956 -17.353,5.695 -18.309,14.844c-7.48,71.586 1.715,141.56 -1.509,208.653c-3.026,62.997 -17.493,123.401 -71.399,179.797c-57.71,60.375 -137.413,89.81 -211.266,126.131c-79.177,38.939 -151.816,85.369 -189.773,177.661c-11.954,29.068 -19.398,59.958 -22.859,91.171c-15.671,141.339 55.017,281.451 129.6,396.629c17.147,26.481 36.061,51.596 54.085,77.452c0.97,1.392 21.634,31.826 25.918,37.762c2.069,2.867 3.778,4.19 4.091,4.431c9.966,7.683 17.948,2.099 21.017,-0.522c6.927,-5.919 7.804,-16.305 2.01,-23.295Z" style="fill:#7e4021;"/><path d="M2083.44,1390.85c-37.414,-2.97 -96.567,-30.049 -115.718,-36.195c-45.402,-14.572 -90.597,-30.572 -133.861,-50.745c-82.341,-38.392 -171.057,-96.613 -236.866,-170.815c-64.282,-72.481 -106.742,-160.304 -97.912,-259.909c10.371,-116.998 84.258,-217.813 165.216,-297.895c45.381,-44.89 93.07,-88.488 130.139,-135.881c58.357,-74.61 91.052,-158.398 52.792,-269.588c-14.184,-41.219 -36.921,-78.742 -62.053,-114.097c-5.33,-7.497 -15.743,-9.258 -23.241,-3.928c-7.497,5.329 -9.257,15.743 -3.928,23.24c23.291,32.765 44.558,67.432 57.702,105.631c33.83,98.315 4.072,172.234 -47.528,238.205c-36.235,46.328 -82.964,88.839 -127.325,132.72c-86.397,85.463 -163.91,193.791 -174.978,318.65c-9.667,109.061 35.792,205.607 106.178,284.969c68.859,77.642 161.56,138.738 247.718,178.909c44.529,20.763 91.03,37.274 137.76,52.272c20.361,6.535 83.492,34.528 123.267,37.686c9.17,0.728 17.205,-6.126 17.933,-15.296c0.728,-9.17 -6.125,-17.205 -15.295,-17.933Z" style="fill:#7e4021;"/><path d="M1870.73,153.684c-0.869,-2.161 -2.211,-4.17 -4.016,-5.871c-11.497,-10.829 -21.802,-1.902 -23.152,-0.688c-2.518,2.265 -8.464,8.499 -4.277,18.803c0.439,1.082 5.129,7.554 6.487,10.334c2.182,4.465 3.793,9.22 5.266,13.957c5.365,17.244 8.032,35.232 10.01,53.143c5.66,51.257 3.769,104.165 -4.005,155.106c-10.634,69.688 -50.098,133.055 -84.706,197.195c-37.13,68.816 -68.741,138.484 -61.114,215.795c23.411,237.301 267.06,342.573 478.759,342.402c54.646,-0.044 153.172,-2.829 221.331,-33.861c8.371,-3.811 12.074,-13.703 8.262,-22.074c-3.811,-8.372 -13.703,-12.074 -22.074,-8.263c-63.874,29.081 -156.336,30.823 -207.546,30.865c-195.705,0.158 -423.917,-92.968 -445.56,-312.341c-6.966,-70.618 23.362,-133.837 57.278,-196.694c36.438,-67.533 77.126,-134.621 88.322,-207.996c8.209,-53.793 10.161,-109.665 4.185,-163.792c-2.211,-20.024 -5.316,-40.109 -11.313,-59.387c-1.976,-6.353 -4.219,-12.699 -7.145,-18.688c-0.816,-1.67 -3.326,-5.479 -4.992,-7.945Zm-26.201,18.991c1.19,1.019 2.322,1.72 3.348,2.2c-1.18,-0.583 -2.305,-1.316 -3.348,-2.2Z" style="fill:#7e4021;"/><path d="M2401.84,699.683l-22.89,17.674c-0,0 0.401,-0.226 0.462,-0.262c-23.992,14.052 -51.743,23.228 -78.97,28.212c-80.311,14.701 -172.401,-5.543 -232.229,-63.205c-44.785,-43.162 -73.402,-102.4 -74.739,-164.71c-0.999,-46.532 9.276,-92.157 4.875,-138.836c-8.469,-89.826 -47.835,-164.422 -114.308,-224.446c-6.827,-6.165 -17.375,-5.627 -23.54,1.2c-6.164,6.827 -5.627,17.375 1.201,23.539c60.092,54.262 95.805,121.633 103.461,202.836c4.324,45.87 -5.996,90.696 -5.015,136.422c1.525,71.067 33.855,138.768 84.933,187.996c67.39,64.949 170.901,88.551 261.363,71.992c30.983,-5.671 62.512,-16.247 89.814,-32.237c1.397,-0.818 23.416,-17.536 27.521,-21.057c4.824,-4.137 5.679,-8.27 5.858,-8.941c2.514,-9.452 -1.795,-15.035 -7.334,-18.466c-6.664,-4.127 -15.116,-2.982 -20.463,2.289Z" style="fill:#7e4021;"/><path d="M2323.12,447.805c-0.858,3.398 -3.517,13.855 -3.853,14.69c-7.16,17.778 -20.527,31.393 -35.767,42.692c-38.591,28.608 -81.499,20.445 -120.552,-3.459c-38.19,-23.374 -62.364,-57.402 -82.474,-94.494c-21.557,-39.76 -38.501,-83.034 -60.925,-122.177c-25.062,-43.748 -62.057,-77.821 -103.838,-105.498c-7.669,-5.08 -18.019,-2.978 -23.099,4.69c-5.08,7.669 -2.978,18.019 4.69,23.099c37.443,24.803 70.864,55.074 93.323,94.278c22.296,38.92 39.112,81.962 60.545,121.495c22.881,42.202 50.926,80.443 94.376,107.038c51.105,31.279 107.307,39.241 157.805,1.805c20.191,-14.968 37.35,-33.463 46.836,-57.017c0.754,-1.871 6.74,-23.786 6.47,-28.551c-0.621,-10.949 -8.078,-14.609 -12.538,-15.822c-8.876,-2.413 -18.042,2.834 -20.456,11.71c-0.502,1.849 -0.673,3.711 -0.543,5.521Zm4.043,9.777c2.313,2.791 5.206,4.341 8.211,5.158c-3.313,-0.901 -6.12,-2.742 -8.211,-5.158Z" style="fill:#7e4021;"/><path d="M1066.19,776.912c46.796,-162.639 102.939,-210.369 170.431,-250.194c89.022,-52.529 190.064,-77.467 281.616,-124.317c136.119,-69.655 212.243,-213.218 241.365,-364.045c1.744,-9.031 -4.173,-17.78 -13.205,-19.524c-9.031,-1.744 -17.78,4.173 -19.524,13.205c-27.178,140.759 -96.787,275.685 -223.82,340.691c-92.146,47.153 -193.773,72.412 -283.372,125.282c-72.978,43.063 -134.924,93.825 -185.525,269.685c-2.544,8.84 2.568,18.082 11.408,20.625c8.84,2.544 18.082,-2.568 20.626,-11.408Z" style="fill:#7e4021;"/><path d="M1859.05,542.658c6.499,10.835 20.572,39.023 44.074,63.191c8.016,8.243 21.217,8.428 29.46,0.412c8.243,-8.017 8.428,-21.217 0.412,-29.46c-20.575,-21.158 -32.525,-46.092 -38.215,-55.577c-5.915,-9.86 -18.723,-13.063 -28.583,-7.148c-9.86,5.915 -13.063,18.722 -7.148,28.582Z" style="fill:#f6a7bc;"/><path d="M1830.46,559.805c7.147,11.915 22.918,42.706 48.762,69.283c20.842,21.432 55.163,21.912 76.596,1.07c21.432,-20.842 21.912,-55.163 1.07,-76.596c-18.234,-18.751 -28.485,-41.079 -33.528,-49.485c-15.379,-25.637 -48.678,-33.965 -74.314,-18.586c-25.637,15.379 -33.965,48.678 -18.586,74.314Zm28.585,-17.147c6.499,10.835 20.572,39.023 44.074,63.191c8.016,8.243 21.217,8.428 29.46,0.412c8.243,-8.017 8.428,-21.217 0.412,-29.46c-20.575,-21.158 -32.525,-46.092 -38.215,-55.577c-5.915,-9.86 -18.723,-13.063 -28.583,-7.148c-9.86,5.915 -13.063,18.722 -7.148,28.582Z" style="fill:#7e4021;"/><path d="M1799.14,806.551c-12.258,-3.065 -42.141,-13.046 -75.848,-13.517c-11.497,-0.161 -20.962,9.043 -21.123,20.54c-0.16,11.497 9.043,20.962 20.541,21.123c29.509,0.412 55.59,9.592 66.32,12.276c11.155,2.79 22.476,-4.002 25.266,-15.156c2.79,-11.155 -4.002,-22.476 -15.156,-25.266Z" style="fill:#fed7dc;"/><path d="M1807.23,774.214c-13.479,-3.371 -46.402,-13.992 -83.47,-14.51c-29.892,-0.418 -54.5,23.512 -54.918,53.404c-0.417,29.893 23.512,54.501 53.405,54.919c26.152,0.365 49.189,8.905 58.699,11.283c29.002,7.253 58.437,-10.404 65.69,-39.406c7.254,-29.002 -10.404,-58.437 -39.406,-65.69l0,-0Zm-8.087,32.337c-12.258,-3.065 -42.141,-13.046 -75.848,-13.517c-11.497,-0.161 -20.962,9.043 -21.123,20.54c-0.16,11.497 9.043,20.962 20.541,21.123c29.509,0.412 55.59,9.592 66.32,12.276c11.155,2.79 22.476,-4.002 25.266,-15.156c2.79,-11.155 -4.002,-22.476 -15.156,-25.266Z" style="fill:#7e4021;"/><path d="M1847.27,779.484c9.082,8.783 29.971,32.368 58.927,49.63c9.877,5.888 22.675,2.65 28.563,-7.227c5.888,-9.876 2.649,-22.675 -7.227,-28.563c-25.35,-15.111 -43.346,-36.102 -51.298,-43.792c-8.265,-7.993 -21.465,-7.772 -29.458,0.493c-7.994,8.266 -7.773,21.466 0.493,29.459Z" style="fill:#f9bfcf;"/><path d="M1824.1,803.445c9.988,9.659 33.19,35.319 65.032,54.301c25.679,15.308 58.955,6.888 74.263,-18.791c15.308,-25.678 6.888,-58.954 -18.791,-74.262c-22.465,-13.393 -38.146,-32.307 -45.193,-39.122c-21.49,-20.782 -55.81,-20.208 -76.592,1.282c-20.783,21.49 -20.209,55.81 1.281,76.592Zm23.173,-23.961c9.082,8.783 29.971,32.368 58.927,49.63c9.877,5.888 22.675,2.65 28.563,-7.227c5.888,-9.876 2.649,-22.675 -7.227,-28.563c-25.35,-15.111 -43.346,-36.102 -51.298,-43.792c-8.265,-7.993 -21.465,-7.772 -29.458,0.493c-7.994,8.266 -7.773,21.466 0.493,29.459Z" style="fill:#7e4021;"/><path d="M2255.62,564.245c-12.633,0.211 -44.081,-1.695 -76.762,6.574c-11.147,2.821 -17.907,14.16 -15.086,25.307c2.82,11.147 14.16,17.907 25.307,15.087c28.61,-7.24 56.179,-5.122 67.238,-5.307c11.497,-0.193 20.674,-9.683 20.482,-21.179c-0.192,-11.497 -9.682,-20.675 -21.179,-20.482Z" style="fill:#fed7dc;"/><path d="M2255.06,530.916c-13.892,0.233 -48.442,-1.505 -84.381,7.588c-28.982,7.333 -46.558,36.817 -39.224,65.799c7.333,28.982 36.816,46.558 65.798,39.225c25.356,-6.416 49.818,-4.13 59.62,-4.294c29.891,-0.5 53.753,-25.174 53.253,-55.065c-0.5,-29.891 -25.174,-53.753 -55.066,-53.253Zm0.558,33.329c-12.633,0.211 -44.081,-1.695 -76.762,6.574c-11.147,2.821 -17.907,14.16 -15.086,25.307c2.82,11.147 14.16,17.907 25.307,15.087c28.61,-7.24 56.179,-5.122 67.238,-5.307c11.497,-0.193 20.674,-9.683 20.482,-21.179c-0.192,-11.497 -9.682,-20.675 -21.179,-20.482Z" style="fill:#7e4021;"/><path d="M1522.98,1005.53c9.083,8.784 29.972,32.369 58.928,49.631c9.876,5.887 22.675,2.649 28.563,-7.228c5.887,-9.876 2.649,-22.674 -7.228,-28.562c-25.349,-15.112 -43.346,-36.103 -51.297,-43.792c-8.265,-7.993 -21.465,-7.773 -29.459,0.493c-7.993,8.265 -7.772,21.465 0.493,29.458Z" style="fill:#f6a7bc;"/><path d="M1499.81,1029.49c9.987,9.659 33.19,35.318 65.032,54.3c25.678,15.308 58.954,6.889 74.262,-18.79c15.308,-25.679 6.889,-58.955 -18.79,-74.263c-22.466,-13.392 -38.147,-32.307 -45.193,-39.121c-21.49,-20.783 -55.81,-20.209 -76.593,1.281c-20.782,21.49 -20.208,55.81 1.282,76.593Zm23.172,-23.962c9.083,8.784 29.972,32.369 58.928,49.631c9.876,5.887 22.675,2.649 28.563,-7.228c5.887,-9.876 2.649,-22.674 -7.228,-28.562c-25.349,-15.112 -43.346,-36.103 -51.297,-43.792c-8.265,-7.993 -21.465,-7.773 -29.459,0.493c-7.993,8.265 -7.772,21.465 0.493,29.458Z" style="fill:#7e4021;"/><path d="M1394.57,282.348c-6.31,10.946 -24.104,36.946 -33.803,69.231c-3.308,11.013 2.947,22.639 13.959,25.947c11.013,3.307 22.639,-2.947 25.947,-13.96c8.49,-28.264 24.472,-50.827 29.996,-60.41c5.742,-9.962 2.316,-22.711 -7.646,-28.453c-9.961,-5.743 -22.711,-2.317 -28.453,7.645Z" style="fill:#fed7dc;"/><path d="M1365.69,265.701c-6.939,12.037 -26.183,40.785 -36.848,76.289c-8.6,28.631 7.662,58.859 36.294,67.46c28.631,8.6 58.859,-7.662 67.46,-36.294c7.524,-25.049 22.055,-44.86 26.951,-53.353c14.929,-25.9 6.023,-59.05 -19.878,-73.979c-25.9,-14.93 -59.049,-6.024 -73.979,19.877Zm28.879,16.647c-6.31,10.946 -24.104,36.946 -33.803,69.231c-3.308,11.013 2.947,22.639 13.959,25.947c11.013,3.307 22.639,-2.947 25.947,-13.96c8.49,-28.264 24.472,-50.827 29.996,-60.41c5.742,-9.962 2.316,-22.711 -7.646,-28.453c-9.961,-5.743 -22.711,-2.317 -28.453,7.645Z" style="fill:#7e4021;"/><path d="M1379.37,628.642c12.13,-3.538 42.966,-9.998 72.307,-26.598c10.007,-5.662 13.535,-18.384 7.873,-28.391c-5.662,-10.008 -18.384,-13.536 -28.391,-7.874c-25.686,14.533 -52.836,19.766 -63.455,22.862c-11.038,3.22 -17.386,14.795 -14.167,25.834c3.22,11.038 14.795,17.386 25.833,14.167Z" style="fill:#f9bfcf;"/><path d="M1388.7,660.642c13.339,-3.89 47.123,-11.332 79.388,-29.586c26.019,-14.722 35.192,-47.798 20.471,-73.818c-14.721,-26.019 -47.798,-35.192 -73.817,-20.471c-22.764,12.88 -46.963,17.13 -56.374,19.874c-28.699,8.371 -45.204,38.467 -36.834,67.166c8.37,28.7 38.467,45.205 67.166,36.835l0,-0Zm-9.333,-32c12.13,-3.538 42.966,-9.998 72.307,-26.598c10.007,-5.662 13.535,-18.384 7.873,-28.391c-5.662,-10.008 -18.384,-13.536 -28.391,-7.874c-25.686,14.533 -52.836,19.766 -63.455,22.862c-11.038,3.22 -17.386,14.795 -14.167,25.834c3.22,11.038 14.795,17.386 25.833,14.167Z" style="fill:#7e4021;"/><path d="M1684.32,510.166c-9.398,8.444 -34.389,27.629 -53.638,55.304c-6.566,9.439 -4.232,22.433 5.207,28.999c9.439,6.565 22.433,4.232 28.999,-5.208c16.852,-24.228 39.052,-40.709 47.28,-48.101c8.553,-7.685 9.258,-20.868 1.573,-29.421c-7.685,-8.553 -20.868,-9.258 -29.421,-1.573Z" style="fill:#f6a7bc;"/><path d="M1662.04,485.371c-10.335,9.286 -37.558,30.632 -58.725,61.065c-17.071,24.543 -11.004,58.327 13.539,75.398c24.542,17.07 58.327,11.003 75.397,-13.539c14.934,-21.472 34.901,-35.788 42.193,-42.34c22.238,-19.98 24.071,-54.256 4.09,-76.494c-19.98,-22.238 -54.256,-24.071 -76.494,-4.09Zm22.278,24.795c-9.398,8.444 -34.389,27.629 -53.638,55.304c-6.566,9.439 -4.232,22.433 5.207,28.999c9.439,6.565 22.433,4.232 28.999,-5.208c16.852,-24.228 39.052,-40.709 47.28,-48.101c8.553,-7.685 9.258,-20.868 1.573,-29.421c-7.685,-8.553 -20.868,-9.258 -29.421,-1.573Z" style="fill:#7e4021;"/><path d="M1210.3,787.559c-8.477,-9.369 -27.749,-34.293 -55.49,-53.446c-9.463,-6.533 -22.448,-4.154 -28.981,5.308c-6.533,9.462 -4.154,22.448 5.308,28.981c24.286,16.767 40.844,38.91 48.266,47.112c7.714,8.527 20.899,9.186 29.426,1.471c8.526,-7.714 9.185,-20.899 1.471,-29.426Z" style="fill:#f6a7bc;"/><path d="M1235.02,765.195c-9.322,-10.303 -30.763,-37.451 -61.269,-58.513c-24.602,-16.985 -58.365,-10.801 -75.35,13.801c-16.985,24.602 -10.801,58.365 13.801,75.35c21.523,14.859 35.909,34.776 42.486,42.045c20.057,22.169 54.339,23.882 76.508,3.825c22.168,-20.058 23.882,-54.339 3.824,-76.508Zm-24.717,22.364c-8.477,-9.369 -27.749,-34.293 -55.49,-53.446c-9.463,-6.533 -22.448,-4.154 -28.981,5.308c-6.533,9.462 -4.154,22.448 5.308,28.981c24.286,16.767 40.844,38.91 48.266,47.112c7.714,8.527 20.899,9.186 29.426,1.471c8.526,-7.714 9.185,-20.899 1.471,-29.426Z" style="fill:#7e4021;"/><path d="M1227.88,1113.03c9.339,-8.509 34.196,-27.867 53.253,-55.675c6.499,-9.485 4.076,-22.463 -5.409,-28.962c-9.485,-6.5 -22.462,-4.077 -28.962,5.408c-16.683,24.345 -38.768,40.98 -46.945,48.429c-8.499,7.744 -9.112,20.932 -1.368,29.431c7.744,8.5 20.931,9.113 29.431,1.369Z" style="fill:#f9bfcf;"/><path d="M1250.33,1137.67c10.271,-9.358 37.345,-30.893 58.3,-61.473c16.9,-24.66 10.598,-58.402 -14.062,-75.301c-24.661,-16.899 -58.402,-10.598 -75.302,14.063c-14.784,21.575 -34.651,36.03 -41.897,42.632c-22.099,20.134 -23.693,54.422 -3.559,76.52c20.134,22.099 54.422,23.693 76.52,3.559Zm-22.449,-24.64c9.339,-8.509 34.196,-27.867 53.253,-55.675c6.499,-9.485 4.076,-22.463 -5.409,-28.962c-9.485,-6.5 -22.462,-4.077 -28.962,5.408c-16.683,24.345 -38.768,40.98 -46.945,48.429c-8.499,7.744 -9.112,20.932 -1.368,29.431c7.744,8.5 20.931,9.113 29.431,1.369Z" style="fill:#7e4021;"/><path d="M2148.63,350.796c-11.093,-6.048 -37.508,-23.219 -70.015,-32.147c-11.088,-3.045 -22.562,3.484 -25.607,14.572c-3.045,11.088 3.484,22.562 14.572,25.607c28.458,7.816 51.394,23.257 61.106,28.551c10.095,5.504 22.76,1.776 28.264,-8.319c5.504,-10.096 1.776,-22.76 -8.32,-28.264Z" style="fill:#f9bfcf;"/><path d="M2164.59,321.529c-12.199,-6.65 -41.396,-25.205 -77.143,-35.023c-28.828,-7.918 -58.661,9.059 -66.578,37.887c-7.918,28.828 9.059,58.66 37.887,66.578c25.22,6.927 45.372,20.983 53.979,25.675c26.248,14.31 59.176,4.617 73.485,-21.631c14.31,-26.248 4.618,-59.176 -21.63,-73.486Zm-15.956,29.267c-11.093,-6.048 -37.508,-23.219 -70.015,-32.147c-11.088,-3.045 -22.562,3.484 -25.607,14.572c-3.045,11.088 3.484,22.562 14.572,25.607c28.458,7.816 51.394,23.257 61.106,28.551c10.095,5.504 22.76,1.776 28.264,-8.319c5.504,-10.096 1.776,-22.76 -8.32,-28.264Z" style="fill:#7e4021;"/><path d="M2073.36,1069.91c3.917,-12.013 15.968,-41.123 18.801,-74.714c0.966,-11.458 -7.552,-21.544 -19.009,-22.511c-11.458,-0.966 -21.544,7.552 -22.51,19.01c-2.48,29.407 -13.466,54.781 -16.895,65.297c-3.565,10.931 2.416,22.701 13.348,26.265c10.931,3.565 22.701,-2.416 26.265,-13.347Z" style="fill:#f6a7bc;"/><path d="M2105.05,1080.24c4.308,-13.21 17.21,-45.308 20.325,-82.247c2.512,-29.79 -19.634,-56.015 -49.423,-58.527c-29.79,-2.512 -56.015,19.634 -58.527,49.424c-2.198,26.062 -12.331,48.444 -15.37,57.763c-9.269,28.423 6.282,59.023 34.704,68.291c28.423,9.269 59.023,-6.282 68.291,-34.704l0,-0Zm-31.691,-10.334c3.917,-12.013 15.968,-41.123 18.801,-74.714c0.966,-11.458 -7.552,-21.544 -19.009,-22.511c-11.458,-0.966 -21.544,7.552 -22.51,19.01c-2.48,29.407 -13.466,54.781 -16.895,65.297c-3.565,10.931 2.416,22.701 13.348,26.265c10.931,3.565 22.701,-2.416 26.265,-13.347Z" style="fill:#7e4021;"/><path d="M3102.21,2268.66c-5.029,9.394 -10.634,18.411 -16.588,27.246c-18.886,28.027 -37.147,56.399 -60.887,80.614c-6.439,6.568 -6.335,17.129 0.234,23.569c6.568,6.439 17.129,6.335 23.569,-0.234c25.166,-25.67 44.706,-55.61 64.727,-85.321c6.654,-9.874 12.9,-19.962 18.509,-30.467l3.109,-6.286c0.693,-0.609 1.343,-1.288 1.942,-2.032c5.767,-7.166 4.631,-17.666 -2.535,-23.433c-5.168,-4.159 -11.381,-5.531 -18.555,-1.883c-1.958,0.995 -4.939,3.111 -7.515,6.846c-2.055,2.979 -5.311,9.879 -6.01,11.381Zm11.875,10.154c3.324,2.459 7.051,3.648 11.188,3.083c-3.86,0.338 -7.841,-0.663 -11.188,-3.083Z" style="fill:#7e4021;"/><path d="M2994.52,2460.33c2.296,-1.119 4.365,-2.788 5.998,-4.972c5.511,-7.365 4.005,-17.819 -3.361,-23.329c-5.022,-3.757 -11.419,-5.123 -18.623,-1.578c-3.528,1.736 -10.84,10.088 -10.84,10.088c-0,0 0.505,-0.596 0.662,-0.764c-15.622,16.789 -33.522,31.44 -50.405,46.917c-6.781,6.216 -7.24,16.767 -1.024,23.548c6.216,6.781 16.767,7.24 23.548,1.024c17.533,-16.072 36.063,-31.348 52.285,-48.784c0.187,-0.201 1.002,-1.207 1.76,-2.15Zm-12.548,0.88l0.072,0.02l-0.249,-0.081l0.177,0.061Zm-0.446,-0.153c-1.517,-0.544 -2.979,-1.322 -4.337,-2.337c1.365,1.02 2.81,1.807 4.337,2.337Z" style="fill:#7e4021;"/><path d="M807.495,1148.9c2.473,-1.388 5.453,-3.074 6.792,-3.875c7.986,-4.779 16.127,-9.275 24.274,-13.769c27.891,-15.387 56.204,-29.678 85.3,-42.652c8.401,-3.746 12.18,-13.608 8.434,-22.009c-3.746,-8.402 -13.608,-12.181 -22.009,-8.435c-29.957,13.358 -59.11,28.067 -87.826,43.909c-8.489,4.683 -16.968,9.373 -25.288,14.352c-3.292,1.969 -10.575,5.684 -13.886,8.234c-3.764,2.899 -5.705,6.092 -6.596,8.207c-2.531,6.01 -1.587,11.283 1.19,15.775c1.777,2.873 5.153,7.131 13.006,8.224c6.831,0.95 13.276,-2.39 16.609,-7.961Zm-11.209,-24.922c-0.26,-0.05 -0.528,-0.094 -0.804,-0.132l0.804,0.132Z" style="fill:#7e4021;"/><path d="M981.429,1063.89c5.248,-2.082 29.416,-11.619 50.835,-19.355c8.651,-3.124 13.139,-12.685 10.014,-21.337c-3.124,-8.651 -12.685,-13.138 -21.337,-10.014c-20.396,7.366 -38.414,13.74 -48.819,18.195c-6.878,2.944 -11.363,5.781 -13.287,7.539c-6.405,5.85 -6.534,12.192 -5.759,16.398c1.668,9.046 10.366,15.036 19.413,13.368c3.541,-0.653 6.614,-2.383 8.94,-4.794Zm4.638,-10.128l-0.007,0.07l0.005,-0.031l0.002,-0.039Zm0.066,-1.127l-0.008,0.17l0.01,-0.171l-0.004,-0.313l0.002,0.314Zm-0.039,-1.436l0.028,0.493l-0.003,-0.203l-0.025,-0.29Zm-0.09,-0.963l0.043,0.408l-0.023,-0.276l-0.02,-0.132Z" style="fill:#7e4021;"/></g></g></svg>