<?xml version="1.0" encoding="UTF-8" standalone="no"?><!DOCTYPE svg PUBLIC "-//W3C//DTD SVG 1.1//EN" "http://www.w3.org/Graphics/SVG/1.1/DTD/svg11.dtd"><svg width="100%" height="100%" viewBox="0 0 3546 2545" version="1.1" xmlns="http://www.w3.org/2000/svg" xmlns:xlink="http://www.w3.org/1999/xlink" xml:space="preserve" xmlns:serif="http://www.serif.com/" style="fill-rule:evenodd;clip-rule:evenodd;stroke-linejoin:round;stroke-miterlimit:2;"><g id="Raisin-roll" serif:id="Raisin roll"><path d="M1012.79,231.226c-133.03,71.922 -508.395,152.026 -772.646,459.669c-324.756,378.082 -305.639,960.677 133.335,1365.81c371.312,342.687 1086.39,535.485 1720.65,450.962c601.621,-80.174 1053.16,-291.359 1334.52,-806.997c108.202,-198.294 144.209,-434.33 32.659,-639.189c-86.333,-158.549 -234.535,-280.751 -397.199,-357.542c-44.949,-21.219 -155.267,-56.518 -155.267,-56.518c-0,0 -123.483,-186.248 -261.7,-270.344c-132.903,-80.863 -183.599,-88.334 -312.736,-161.628c-84.37,-47.886 -232.336,-168.741 -496.58,-191.715c-335.563,-29.175 -525.329,45.457 -825.036,207.493Z" style="fill:#e4a57c;"/><path d="M1004.86,216.565c-133.917,72.401 -511.348,153.775 -777.362,463.47c-330.23,384.454 -311.698,976.956 134.674,1388.92c374.266,345.413 1094.85,540.431 1734.15,455.235c607.429,-80.947 1062.87,-294.919 1346.95,-815.533c110.896,-203.231 146.994,-445.184 32.667,-655.144c-88.004,-161.616 -238.91,-286.366 -404.722,-364.643c-39.498,-18.646 -128.801,-48.063 -151.812,-55.544c-20.774,-30.225 -136.117,-192.915 -263.607,-270.485c-133.093,-80.978 -183.85,-88.485 -313.172,-161.884c-85.494,-48.524 -235.601,-170.544 -503.363,-193.824c-339.335,-29.503 -531.331,45.578 -834.407,209.436l-0,-0Zm15.853,29.322c296.339,-160.215 483.875,-234.397 815.667,-205.55c260.725,22.668 406.549,142.357 489.796,189.606c128.952,73.188 179.588,80.624 312.3,161.371c135.554,82.476 256.472,265.316 256.472,265.316c2.094,3.159 5.202,5.509 8.812,6.664c-0,0 108.877,34.777 153.231,55.716c159.516,75.304 305.015,194.96 389.677,350.44c108.773,199.76 72.856,429.878 -32.652,623.236c-278.648,510.661 -726.279,719.059 -1322.09,798.459c-629.215,83.851 -1338.78,-106.728 -1707.14,-446.689c-431.575,-398.304 -451.278,-970.991 -131.995,-1342.7c262.489,-305.591 635.787,-384.425 767.929,-455.867l0,-0Z" style="fill:#7e4021;"/><path d="M3281.47,959.603c-1.914,-3.287 -4.957,-5.937 -8.819,-7.306c-14.505,-5.14 -20.693,5.103 -21.969,7.443c-1.951,3.581 -4.264,10.076 0.993,17.757c0.775,1.132 2.617,3.292 5.589,5.686c4.405,3.548 14.001,10.025 17.75,13.546c9.751,9.155 19.327,18.513 28.921,27.834c32.292,31.374 56.925,67.505 76.966,107.586c4.113,8.228 14.133,11.567 22.36,7.454c8.228,-4.114 11.568,-14.133 7.454,-22.361c-21.731,-43.461 -48.538,-82.568 -83.552,-116.587c-9.729,-9.452 -19.443,-18.941 -29.331,-28.226c-3.023,-2.839 -11.366,-9.126 -16.362,-12.826Zm-18.848,24.462l0.138,0.033l-0.238,-0.065l0.1,0.032Z" style="fill:#7e4021;"/><path d="M3435.09,1197.94c-0.391,-4.498 -2.597,-8.824 -6.46,-11.785c-7.3,-5.596 -17.771,-4.212 -23.367,3.088c-1.625,2.121 -3.419,5.4 -3.521,10.136c-0.053,2.421 2.792,12.205 2.792,12.205c-0,0 -0.222,-0.744 -0.273,-0.948c8.89,35.38 11.209,73.276 12.128,109.593c0.233,9.196 7.888,16.473 17.084,16.24c9.195,-0.233 16.472,-7.888 16.239,-17.083c-0.981,-38.737 -3.641,-79.137 -13.123,-116.873c-0.098,-0.393 -1.011,-3.123 -1.499,-4.573Z" style="fill:#7e4021;"/><path d="M700.329,691.961c2.537,-2.086 4.481,-4.941 5.435,-8.339c2.487,-8.856 -2.684,-18.065 -11.54,-20.552c-4.038,-1.134 -10.783,-1.623 -17.258,4.679c-1.919,1.867 -5.006,6.187 -7.987,11.69c-4.63,8.546 -10.025,20.613 -10.673,21.944c-35.662,73.262 -56.803,154.267 -54.708,235.968c0.236,9.195 7.893,16.469 17.089,16.234c9.195,-0.236 16.469,-7.893 16.234,-17.089c-1.959,-76.371 18.021,-152.041 51.357,-220.524c0.648,-1.333 9.906,-19.746 12.051,-24.011Zm-13.181,3.619c1.156,0.191 2.368,0.261 3.631,0.168c-1.195,0.079 -2.412,0.028 -3.631,-0.168Zm-0.783,-0.135l0.275,0.048l-0.445,-0.09l0.17,0.042Z" style="fill:#7e4021;"/><path d="M617.295,1024.24c1.569,23.139 11.146,46.303 18.074,68.238c2.771,8.771 12.142,13.643 20.913,10.873c8.771,-2.771 13.643,-12.142 10.873,-20.913c-6.154,-19.48 -15.21,-39.903 -16.603,-60.453c-0.622,-9.177 -8.578,-16.123 -17.756,-15.501c-9.177,0.622 -16.123,8.579 -15.501,17.756Z" style="fill:#7e4021;"/><path d="M1000.75,220.114c-164.997,83.425 -369.383,256.218 -441.787,503.312c-48.334,164.947 -38.28,363.13 82.101,590.09c119.427,225.161 395.31,355.556 714.912,407.606c475.266,77.4 1046.19,-17.726 1330.63,-219.692c295.275,-209.654 393.24,-603.768 215.331,-890.572c-4.849,-7.816 -15.132,-10.226 -22.949,-5.377c-7.817,4.849 -10.226,15.132 -5.378,22.949c169.053,272.524 74.272,646.605 -206.302,845.821c-279.12,198.183 -839.613,289.921 -1305.98,213.971c-308.153,-50.185 -575.674,-173.23 -690.823,-390.325c-115.309,-217.397 -125.857,-407.101 -79.56,-565.097c69.54,-237.32 266.37,-402.814 424.84,-482.939c8.208,-4.15 11.503,-14.185 7.353,-22.394c-4.151,-8.209 -14.185,-11.504 -22.394,-7.353Z" style="fill:#7e4021;"/><path d="M1711.48,426.75c-5.265,2.787 -12.325,5.565 -21.393,8.404c-8.779,2.748 -13.675,12.106 -10.927,20.885c2.748,8.778 12.106,13.674 20.885,10.926c20.643,-6.462 33.269,-13.41 40.038,-19.539c8.99,-8.14 11.156,-16.662 10.332,-24.063c-0.647,-5.812 -3.356,-11.645 -8.764,-16.839c-6.568,-6.308 -18.953,-12.318 -34.887,-16.133c-28.92,-6.923 -70.433,-7.826 -100.47,1.29c-22.411,6.802 -38.614,19.498 -44.284,36.577c-3.907,11.772 -3.368,26.289 5.369,43.672c13.85,27.556 40.5,46.369 74.493,56.927c46.315,14.386 106.691,13.46 161.574,1.845c50.044,-10.591 95.383,-30.143 121.961,-53.899c21.572,-19.281 31.531,-41.669 27.377,-64.582c-2.67,-14.733 -11.405,-30.309 -28.827,-45.602c-21.964,-19.281 -59.106,-39.074 -116.007,-57.525c-195.341,-63.343 -467.363,11.33 -612.222,133.724c-101.831,86.038 -141.593,194.805 -60.665,296.825c86.19,108.653 252.016,170.893 436.568,193.655c273.969,33.791 588.374,-18.837 736.812,-125.312c133.57,-95.809 186.67,-258.127 134.889,-413.181c-20.101,-60.194 -54.649,-144.892 -99.806,-191.075c-6.431,-6.577 -16.992,-6.696 -23.569,-0.265c-6.577,6.431 -6.696,16.992 -0.265,23.569c42.036,42.992 73.311,122.296 92.023,178.329c47.067,140.939 -1.29,288.45 -122.701,375.538c-143.635,103.029 -448.197,152.012 -713.303,119.315c-174.833,-21.564 -332.882,-78.357 -414.534,-181.289c-68.608,-86.49 -30.266,-177.707 56.064,-250.648c137.371,-116.066 395.185,-187.546 580.427,-127.477c42.865,13.9 73.515,28.249 94.006,42.788c16.788,11.912 26.233,23.112 28.311,34.576c2.234,12.324 -5.189,23.414 -16.791,33.784c-23.162,20.702 -63.037,36.911 -106.649,46.141c-49.179,10.408 -103.284,11.824 -144.785,-1.067c-24.554,-7.626 -44.594,-20.159 -54.598,-40.063c-3.794,-7.55 -5.257,-13.599 -3.369,-18.617c1.833,-4.87 6.452,-8.081 11.989,-10.819c17.193,-8.501 43.138,-10.404 66.455,-8.696c14.104,1.033 27.296,3.456 37.089,7.021c0.698,0.254 1.427,0.559 2.154,0.9Z" style="fill:#7e4021;"/><path d="M2762.34,1309.96c-46.276,-55.302 -117.868,11.351 -166.988,45.194c-71.6,49.33 -87.202,107.62 -46.36,139.562c82.936,64.863 248.532,-142.708 213.348,-184.756Z" style="fill:#9d5e3e;"/><path d="M2775.12,1299.27c-23.566,-28.163 -52.168,-31.922 -82.154,-23.01c-36.856,10.953 -76.327,43.992 -107.072,65.174c-84.215,58.022 -95.21,128.845 -47.172,166.415c24.541,19.193 54.854,20.153 86.305,8.116c40.754,-15.597 83.812,-53.948 114.521,-93.976c24.622,-32.093 41.081,-65.336 43.824,-88.536c1.712,-14.48 -1.501,-26.116 -8.252,-34.183Zm-25.564,21.391c1.094,1.307 0.972,3.253 0.949,5.423c-0.035,3.257 -0.649,6.874 -1.667,10.785c-4.805,18.464 -18.091,41.83 -35.737,64.83c-26.955,35.136 -64.216,69.444 -99.989,83.135c-19.574,7.492 -38.581,8.704 -53.855,-3.242c-14.557,-11.385 -18.869,-27.52 -13.348,-45.15c6.91,-22.065 26.957,-45.553 58.897,-67.559c23.896,-16.464 53.162,-41.056 82.179,-54.66c22.564,-10.578 45.065,-14.483 62.571,6.438Z" style="fill:#7e4021;"/><path d="M2166.97,1948.56c-7.488,-50.12 -74.843,-36.381 -116.699,-34.084c-61.012,3.348 -91.726,32.587 -78.937,66.707c25.969,69.285 201.329,5.483 195.636,-32.623Z" style="fill:#9d5e3e;"/><path d="M2183.45,1946.1c-4.159,-27.84 -21.288,-41.801 -44.464,-47.956c-26.573,-7.057 -62.974,-1.769 -89.632,-0.307c-76.343,4.19 -109.633,46.505 -93.631,89.198c8.299,22.14 27.388,34.973 52.519,39.622c30.935,5.723 71.855,-1.562 105.793,-14.644c27.525,-10.61 50.305,-25.202 60.834,-38.597c7.336,-9.334 9.846,-18.845 8.581,-27.316Zm-33.123,4.031c-0.31,0.583 -1.042,1.893 -1.666,2.686c-1.92,2.444 -4.544,4.87 -7.657,7.316c-9.625,7.56 -23.44,14.796 -38.958,20.778c-28.183,10.864 -62.05,17.722 -87.74,12.969c-12.629,-2.336 -23.2,-7.418 -27.37,-18.544c-3.782,-10.089 -0.944,-19.407 7.162,-26.5c11.604,-10.153 31.256,-16.298 57.082,-17.715c20.124,-1.105 46.371,-5.136 68.494,-2.691c14.766,1.633 27.867,6.041 30.653,21.701Z" style="fill:#7e4021;"/><path d="M1752.43,1141.21c-24.755,67.728 68.765,96.402 122.633,122.02c78.521,37.342 136.803,21.709 144.044,-29.632c14.705,-104.257 -247.855,-143.882 -266.677,-92.388Z" style="fill:#9d5e3e;"/><path d="M1736.78,1135.49c-12.607,34.49 -1.56,61.139 21.151,82.652c27.914,26.442 76.261,44.105 109.978,60.14c92.356,43.921 159.188,18.031 167.705,-42.356c4.352,-30.849 -9.974,-57.581 -36.123,-78.799c-33.885,-27.496 -88.626,-45.61 -138.646,-52.191c-40.104,-5.276 -77.124,-2.909 -98.587,6.316c-13.396,5.757 -21.866,14.357 -25.478,24.238Zm31.308,11.443c0.585,-1.601 2.331,-2.469 4.222,-3.533c2.838,-1.598 6.277,-2.875 10.173,-3.949c18.393,-5.071 45.272,-5.248 74.013,-1.466c43.906,5.776 92.249,20.891 121.992,45.026c16.275,13.206 26.828,29.06 24.12,48.26c-2.581,18.299 -14.399,30.102 -32.428,34.135c-22.564,5.048 -52.928,-0.569 -87.956,-17.227c-26.206,-12.463 -62.136,-25.511 -88.426,-43.839c-20.443,-14.252 -35.075,-31.786 -25.71,-57.407Z" style="fill:#7e4021;"/><path d="M1391.94,1022.65c37.011,29.998 79.345,-1.484 107.667,-50.667c41.285,-71.692 30.311,-121.904 -18.477,-124.724c-99.072,-5.726 -127.924,143.997 -89.19,175.391Z" style="fill:#9d5e3e;"/><path d="M1381.45,1035.6c24.509,19.865 50.76,19.629 75.592,6.03c21.008,-11.505 41.147,-33.776 57.013,-61.328c50.115,-87.026 27.265,-146.257 -31.959,-149.68c-68.566,-3.963 -109.486,55.02 -120.391,111.946c-4.31,22.501 -3.888,44.42 0.774,61.449c3.769,13.772 10.402,24.638 18.971,31.583Zm20.989,-25.895c-3.828,-3.103 -6.126,-8.336 -7.81,-14.488c-3.517,-12.852 -3.439,-29.397 -0.186,-46.378c8.005,-41.789 35.396,-87.848 85.73,-84.939c9.397,0.543 16.842,3.273 21.619,8.844c5.042,5.881 6.91,14.347 6.546,24.588c-0.642,18.08 -8.348,40.598 -23.169,66.336c-12.457,21.632 -27.644,39.693 -44.138,48.726c-12.668,6.938 -26.089,7.444 -38.592,-2.689Z" style="fill:#7e4021;"/><path d="M2126.58,157.061c23.304,-41.553 -14.887,-77.95 -68.153,-97.542c-77.644,-28.56 -125.276,-9.248 -119.8,39.314c11.12,98.612 163.566,101.715 187.953,58.228Z" style="fill:#9d5e3e;"/><path d="M2141.12,165.214c15.432,-27.517 10.758,-53.349 -6.847,-75.523c-14.893,-18.758 -40.251,-34.839 -70.09,-45.814c-94.251,-34.668 -148.762,-2.126 -142.115,56.823c7.696,68.248 72.751,98.599 130.702,99.715c22.905,0.441 44.437,-3.684 60.432,-11.159c12.936,-6.046 22.523,-14.421 27.918,-24.042Zm-29.073,-16.305c-2.411,4.298 -7.179,7.448 -12.958,10.148c-12.071,5.642 -28.391,8.364 -45.677,8.031c-42.542,-0.819 -92.571,-20.022 -98.22,-70.123c-1.055,-9.353 0.376,-17.153 5.058,-22.803c4.943,-5.965 12.972,-9.238 23.126,-10.612c17.928,-2.426 41.426,1.358 69.3,11.611c23.429,8.617 43.798,20.53 55.491,35.257c8.982,11.312 11.752,24.454 3.88,38.491Z" style="fill:#7e4021;"/><path d="M1281.1,1886.2c-7.473,47.052 40.958,67.973 97.713,67.91c82.73,-0.093 120.728,-34.703 98.776,-78.364c-44.578,-88.662 -188.668,-38.787 -196.489,10.454Z" style="fill:#9d5e3e;"/><path d="M1264.64,1883.59c-4.949,31.157 8.38,53.774 32.574,68.479c20.467,12.441 49.824,18.747 81.617,18.711c100.426,-0.112 140.296,-49.517 113.648,-102.517c-30.851,-61.362 -102.392,-67.309 -157.143,-48.289c-21.642,7.517 -40.413,18.843 -52.83,31.394c-10.043,10.151 -16.136,21.328 -17.866,32.222Zm32.92,5.229c0.773,-4.867 4.156,-9.473 8.642,-14.007c9.371,-9.473 23.739,-17.677 40.071,-23.351c40.194,-13.962 93.777,-13.27 116.425,31.775c4.228,8.41 5.587,16.223 3.15,23.144c-2.571,7.308 -8.97,13.158 -18.02,17.964c-15.979,8.483 -39.334,13.07 -69.034,13.103c-24.963,0.028 -48.197,-4.094 -64.266,-13.862c-12.343,-7.502 -19.492,-18.871 -16.968,-34.766Z" style="fill:#7e4021;"/><path d="M2007.87,1776.03c5.309,-47.345 -44.031,-66.023 -100.723,-63.358c-82.639,3.885 -119.01,40.2 -95.08,82.809c48.595,86.525 190.247,30.097 195.803,-19.451Z" style="fill:#9d5e3e;"/><path d="M2024.44,1777.89c3.515,-31.351 -10.837,-53.333 -35.679,-66.914c-21.016,-11.489 -50.631,-16.443 -82.39,-14.95c-100.314,4.716 -137.878,55.896 -108.828,107.62c33.631,59.883 105.369,62.544 159.191,41.035c21.274,-8.502 39.507,-20.677 51.336,-33.784c9.566,-10.6 15.141,-22.044 16.37,-33.007Zm-33.126,-3.714c-0.549,4.897 -3.717,9.653 -7.991,14.389c-8.926,9.892 -22.903,18.746 -38.958,25.162c-39.511,15.79 -93.07,17.556 -117.759,-26.404c-4.609,-8.207 -6.324,-15.949 -4.208,-22.976c2.234,-7.417 8.358,-13.555 17.178,-18.77c15.573,-9.207 38.693,-14.859 68.36,-16.254c24.936,-1.172 48.334,1.881 64.835,10.901c12.673,6.929 20.336,17.958 18.543,33.952Z" style="fill:#7e4021;"/><path d="M369.988,1148.13c-44.897,-15.937 -74.307,27.861 -84.605,83.674c-15.01,81.357 12.082,125.034 59.017,111.421c95.309,-27.644 72.574,-178.417 25.588,-195.095Z" style="fill:#9d5e3e;"/><path d="M375.563,1132.42c-29.73,-10.553 -54.4,-1.576 -73.275,19.526c-15.967,17.853 -27.526,45.565 -33.295,76.831c-18.221,98.758 23.075,146.977 80.05,130.452c65.962,-19.132 84.868,-88.385 76.163,-145.688c-3.441,-22.65 -11.15,-43.174 -21.224,-57.673c-8.147,-11.727 -18.023,-19.758 -28.418,-23.448l-0.001,-0Zm-11.15,31.413c4.644,1.648 8.555,5.815 12.194,11.054c7.603,10.942 13.047,26.566 15.644,43.66c6.39,42.067 -4.071,94.623 -52.494,108.668c-9.04,2.622 -16.97,2.531 -23.33,-1.127c-6.716,-3.863 -11.3,-11.222 -14.372,-20.997c-5.425,-17.259 -5.671,-41.059 -0.282,-70.266c4.53,-24.548 12.824,-46.64 25.361,-60.656c9.629,-10.766 22.112,-15.72 37.279,-10.336l-0,0Z" style="fill:#7e4021;"/><path d="M2997.68,915.365c-51.043,-18.118 -84.48,31.676 -96.188,95.13c-17.065,92.495 13.736,142.151 67.097,126.675c108.357,-31.429 82.51,-202.843 29.091,-221.805Z" style="fill:#9d5e3e;"/><path d="M3003.26,899.659c-32.803,-11.644 -60.016,-1.714 -80.842,21.57c-17.919,20.034 -30.837,51.156 -37.311,86.242c-20.272,109.876 24.741,164.091 88.129,145.705c73.791,-21.402 94.709,-98.994 84.97,-163.099c-3.854,-25.37 -12.463,-48.368 -23.747,-64.609c-8.953,-12.888 -19.774,-21.754 -31.199,-25.809Zm-11.15,31.413c5.672,2.013 10.528,7.016 14.974,13.415c8.812,12.684 15.157,30.783 18.167,50.597c7.423,48.866 -5.05,109.763 -61.3,126.079c-10.967,3.18 -20.581,2.943 -28.298,-1.496c-8.071,-4.642 -13.685,-13.416 -17.378,-25.165c-6.252,-19.892 -6.598,-47.321 -0.387,-80.983c5.234,-28.369 14.887,-53.869 29.375,-70.067c11.58,-12.947 26.607,-18.855 44.847,-12.38Z" style="fill:#7e4021;"/><path d="M2298.38,1073.4c71.031,-12.424 49.104,-107.752 44.356,-167.212c-6.922,-86.673 -49.601,-129.33 -97.685,-109.93c-97.641,39.393 -0.677,286.589 53.329,277.142Z" style="fill:#9d5e3e;"/><path d="M2301.25,1089.82c36.173,-6.328 53.728,-29.219 61.004,-59.643c8.942,-37.395 0.065,-88.097 -2.907,-125.314c-8.141,-101.944 -63.978,-146.877 -120.534,-124.06c-28.891,11.657 -44.88,37.429 -50.181,70.684c-6.869,43.093 4.815,99.557 24.126,146.167c15.482,37.369 36.042,68.245 54.762,82.22c11.685,8.723 23.367,11.758 33.73,9.946l-0,-0Zm-5.744,-32.835c-1.679,0.293 -3.303,-0.785 -5.171,-1.89c-2.803,-1.659 -5.628,-3.999 -8.506,-6.836c-13.588,-13.393 -27.181,-36.583 -38.277,-63.364c-16.95,-40.912 -28.031,-90.335 -22.002,-128.161c3.299,-20.698 11.753,-37.763 29.735,-45.018c17.138,-6.915 33.269,-2.581 45.776,11.015c15.653,17.017 25.971,46.122 29.059,84.786c2.31,28.927 8.975,66.567 6.247,98.499c-2.121,24.829 -9.989,46.269 -36.861,50.969l0,-0Z" style="fill:#7e4021;"/><path d="M1354.93,350.97c-46.276,-55.303 -117.869,11.351 -166.988,45.193c-71.6,49.331 -87.202,107.62 -46.36,139.562c82.936,64.863 248.532,-142.708 213.348,-184.755Z" style="fill:#9d5e3e;"/><path d="M1367.71,340.274c-23.566,-28.163 -52.168,-31.921 -82.155,-23.009c-36.856,10.953 -76.326,43.991 -107.071,65.174c-84.215,58.022 -95.21,128.845 -47.172,166.415c24.541,19.193 54.854,20.153 86.304,8.116c40.755,-15.598 83.812,-53.948 114.522,-93.976c24.621,-32.093 41.081,-65.336 43.824,-88.537c1.711,-14.48 -1.501,-26.115 -8.252,-34.183Zm-25.564,21.391c1.094,1.308 0.972,3.254 0.949,5.423c-0.035,3.258 -0.649,6.874 -1.667,10.785c-4.805,18.464 -18.092,41.831 -35.737,64.831c-26.956,35.135 -64.217,69.444 -99.989,83.135c-19.575,7.491 -38.581,8.703 -53.855,-3.242c-14.557,-11.385 -18.869,-27.521 -13.348,-45.151c6.91,-22.065 26.957,-45.553 58.897,-67.558c23.896,-16.464 53.162,-41.057 82.179,-54.66c22.564,-10.578 45.065,-14.484 62.571,6.437Z" style="fill:#7e4021;"/><path d="M618.384,1233.81c-51.029,50.95 21.651,116.417 59.673,162.377c55.423,66.995 114.857,77.422 143.092,33.934c57.334,-88.308 -163.968,-235.05 -202.765,-196.311Z" style="fill:#9d5e3e;"/><path d="M606.607,1222.01c-25.986,25.947 -27.22,54.769 -15.711,83.857c14.146,35.753 50.52,72.172 74.319,100.939c65.189,78.799 136.703,83.536 169.913,32.386c16.965,-26.13 15.261,-56.411 0.511,-86.684c-19.114,-39.228 -61.095,-78.754 -103.664,-105.832c-34.129,-21.71 -68.689,-35.189 -92.04,-35.885c-14.575,-0.435 -25.883,3.787 -33.328,11.219Zm23.553,23.589c1.206,-1.205 3.155,-1.254 5.319,-1.422c3.247,-0.25 6.904,0.044 10.889,0.715c18.814,3.166 43.257,14.35 67.717,29.909c37.365,23.768 74.811,57.875 91.588,92.308c9.181,18.842 12.056,37.668 1.497,53.931c-10.063,15.501 -25.759,21.212 -43.805,17.259c-22.586,-4.947 -47.743,-22.855 -72.466,-52.741c-18.498,-22.359 -45.564,-49.353 -61.661,-77.065c-12.517,-21.548 -18.382,-43.62 0.922,-62.894l-0,-0Z" style="fill:#7e4021;"/><path d="M2949.39,1399.49c27.69,48.447 91.33,7.462 133.368,-11.602c61.278,-27.789 81.128,-70.054 54.385,-99.965c-54.306,-60.74 -208.805,74.731 -187.753,111.567Z" style="fill:#9d5e3e;"/><path d="M2934.92,1407.76c14.985,26.219 37.556,33.487 63.122,30.629c29.928,-3.346 64.968,-23.245 91.599,-35.322c75.252,-34.126 92.768,-89.521 59.926,-126.253c-16.956,-18.966 -41.127,-24.307 -68.141,-19.168c-33.766,6.424 -72.529,30.084 -101.906,56.846c-23.743,21.629 -41.15,45.389 -46.547,63.136c-3.642,11.979 -2.535,22.29 1.947,30.132Zm29.212,-16.09c0.009,-0.42 0.051,-1.472 0.177,-2.135c0.421,-2.207 1.296,-4.582 2.464,-7.114c6.022,-13.056 19.045,-28.575 35.195,-43.288c24.818,-22.608 57.162,-43.314 85.688,-48.74c14.523,-2.763 27.946,-1.558 37.062,8.638c8.41,9.406 9.301,20.777 3.465,31.959c-7.987,15.301 -25.938,29.761 -52.309,41.719c-20.285,9.2 -45.712,23.85 -69.479,30.194c-16.729,4.465 -32.745,4.917 -42.263,-11.233Z" style="fill:#7e4021;"/></g></svg>