<?xml version="1.0" encoding="UTF-8" standalone="no"?><!DOCTYPE svg PUBLIC "-//W3C//DTD SVG 1.1//EN" "http://www.w3.org/Graphics/SVG/1.1/DTD/svg11.dtd"><svg width="100%" height="100%" viewBox="0 0 3239 2942" version="1.1" xmlns="http://www.w3.org/2000/svg" xmlns:xlink="http://www.w3.org/1999/xlink" xml:space="preserve" xmlns:serif="http://www.serif.com/" style="fill-rule:evenodd;clip-rule:evenodd;stroke-linejoin:round;stroke-miterlimit:2;"><g id="Strawberry-Tarte" serif:id="Strawberry Tarte"><path d="M980.652,370.065c-830.089,19.595 -1020.16,241.285 -950.229,642.413c62.346,357.609 308.752,655.403 385.164,1010.72c42.913,199.546 -34.721,405.725 18.746,601.77c195.653,717.394 1297.12,-61.266 1644.63,-196.757c142.092,-55.4 286.591,-103.971 433.526,-144.771c239.78,-66.58 540.859,-93.623 663.837,-343.261c75.275,-152.805 47.043,-338.295 -16.226,-489.922c-96.411,-231.055 -312.003,-384.582 -454.005,-585.701c-67.126,-95.071 -115.448,-199.901 -149.025,-311.125c-58.542,-193.92 -66.575,-478.034 -310.021,-525.996c-300.915,-59.285 -574.964,154.936 -844.998,250.474c-137.695,48.717 -276.265,88.73 -421.396,92.156Z" style="fill:#ffce7b;"/><path d="M980.258,353.403c-250.837,5.921 -443.638,30.294 -588.77,72.24c-148.311,42.866 -247.571,104.366 -308.983,182.786c-82.241,105.017 -97.421,241.033 -68.501,406.911c31.439,180.329 109.098,345.644 188.716,510.602c78.371,162.372 158.645,324.397 196.573,500.761c21.121,98.214 12.333,198.065 5.087,297.481c-7.499,102.885 -13.36,205.311 13.874,305.169c32.592,119.503 89.759,198.847 163.557,247.725c109.656,72.626 257.229,77.833 419.288,43.88c393.751,-82.494 874.928,-395.736 1083.91,-477.219c141.57,-55.196 285.537,-103.59 431.931,-144.24c120.38,-33.426 256.125,-57.006 377.232,-103.483c124.519,-47.786 233.617,-119.612 297.097,-248.471c77.389,-157.096 49.249,-347.822 -15.796,-503.706c-48.942,-117.293 -127.956,-215.032 -212.935,-308.848c-83.246,-91.903 -172.22,-180.033 -242.836,-280.048c-66.087,-93.6 -113.627,-196.825 -146.684,-306.328c-29.391,-97.357 -46.194,-217.329 -86.113,-319.007c-41.834,-106.554 -108.561,-193.292 -236.643,-218.526c-153.762,-30.293 -300.739,8.776 -443.692,68.139c-139.604,57.972 -275.336,135.301 -410.086,182.976c-136.02,48.124 -272.866,87.822 -416.231,91.206l0,0Zm0.787,33.324c146.897,-3.468 287.191,-43.796 426.562,-93.105c135.284,-47.864 271.594,-125.415 411.751,-183.617c136.809,-56.811 277.313,-95.209 424.466,-66.218c115.365,22.729 174.378,102.028 212.058,198.003c39.594,100.85 56.078,219.894 85.23,316.458c34.096,112.945 83.201,219.379 151.365,315.921c71.385,101.104 161.209,190.296 245.361,283.2c82.421,90.992 159.409,185.544 206.878,299.306c61.492,147.371 89.818,327.624 16.656,476.139c-59.499,120.778 -162.428,187.292 -279.138,232.082c-120.122,46.099 -254.807,69.331 -374.207,102.485c-147.475,40.95 -292.506,89.698 -435.121,145.302c-208.025,81.107 -686.706,393.536 -1078.64,475.65c-152.217,31.891 -291.049,29.17 -394.045,-39.046c-67.969,-45.017 -119.788,-118.641 -149.805,-228.704c-26.233,-96.187 -20.011,-194.873 -12.788,-293.975c7.476,-102.572 16.048,-205.583 -5.744,-306.914c-38.485,-178.954 -119.619,-343.484 -199.141,-508.241c-78.274,-162.171 -154.99,-324.556 -185.898,-501.838c-27.027,-155.024 -14.952,-282.489 61.906,-380.634c57.913,-73.951 152.137,-130.893 291.995,-171.315c143.037,-41.341 333.086,-65.103 580.302,-70.939l0,0Z" style="fill:#7e4021;"/><path d="M1053.45,2105.12c-20.06,15.674 -38.764,31.996 -60.541,45.709c-47.174,29.705 -94.608,59.208 -143.169,86.609c-73.699,41.584 -152.021,56.718 -219.552,109.137c-116.19,90.189 -168.918,304.342 -38.684,414.1c68.945,58.104 185.665,74.983 267.03,39.521c246.832,-107.578 162.793,-456.531 194.916,-695.076Z" style="fill:#eb7e6c;"/><path d="M1069.97,2107.35c0.904,-6.716 -2.348,-13.31 -8.226,-16.682c-5.879,-3.371 -13.213,-2.847 -18.553,1.325c-19.615,15.325 -37.868,31.331 -59.161,44.738c-46.947,29.562 -94.15,58.929 -142.478,86.198c-74.426,41.994 -153.385,57.55 -221.582,110.486c-61.257,47.55 -105.975,127.671 -118.024,210.478c-12.243,84.145 9.048,170.73 78.82,229.532c73.436,61.889 197.764,79.827 284.429,42.056c129.345,-56.374 173.363,-175.171 187.888,-311.944c13.844,-130.351 0.844,-277.054 16.887,-396.187Zm-37.338,35.608c-9.268,111.279 -0.335,240.671 -12.696,357.058c-13.194,124.237 -50.57,233.701 -168.059,284.907c-76.065,33.152 -185.176,17.333 -249.63,-36.987c-60.463,-50.956 -77.925,-126.325 -67.315,-199.244c10.805,-74.256 50.545,-146.306 105.478,-188.946c66.865,-51.902 144.55,-66.612 217.522,-107.787c48.795,-27.532 96.459,-57.173 143.86,-87.021c10.845,-6.829 20.954,-14.281 30.84,-21.98l0,-0Z" style="fill:#7e4021;"/><path d="M2252.2,1364.18c4.725,3.701 90.472,35.603 105.211,39.167c71.2,17.221 140.383,50.404 204.95,84.329c113.998,59.897 321.42,278.241 446.246,276.746c172.728,-2.069 22.796,-247.422 -33.135,-300.066c-218.294,-205.464 -519.718,-137.186 -723.272,-100.176Z" style="fill:#eb7e6c;"/><path d="M2249.22,1347.78c-6.457,1.174 -11.623,6.027 -13.198,12.398c-1.575,6.371 0.735,13.073 5.901,17.12c1.291,1.011 6.816,3.979 15.302,7.455c25.469,10.433 84.18,31.868 96.269,34.792c69.884,16.902 137.742,49.585 201.116,82.883c67.967,35.711 169.245,128.251 266.272,196.13c68.478,47.906 135.401,83.157 187.926,82.527c41.514,-0.497 66.973,-14.037 81.473,-33.731c14.404,-19.565 18.352,-46.414 13.878,-76.723c-11.759,-79.68 -82.154,-185.368 -117.263,-218.413c-112.422,-105.815 -246.138,-141.431 -378.068,-145.538c-129.34,-4.027 -256.836,22.414 -359.608,41.1Zm62.749,22.333c89.152,-16.334 191.869,-33.352 295.822,-30.116c124.244,3.868 250.387,36.844 356.259,136.493c32.009,30.128 96.412,126.363 107.133,199.008c3.022,20.473 1.985,38.877 -7.745,52.093c-9.637,13.09 -27.438,19.833 -55.029,20.164c-47.339,0.566 -106.703,-33.334 -168.419,-76.51c-98.261,-68.742 -201.045,-162.16 -269.876,-198.325c-65.76,-34.552 -136.268,-68.236 -208.784,-85.774c-6.613,-1.6 -27.883,-9.079 -49.361,-17.033Z" style="fill:#7e4021;"/><path d="M1915.25,603.53c-21.907,-18.633 -19.534,-104.802 -21.798,-132.627c-37.983,-466.971 426.988,-489.734 419.895,-304.133c-2.45,64.104 -64.056,111.578 -111.619,145.68c-89.792,64.379 -224.697,196.692 -286.478,291.08Z" style="fill:#eb7e6c;"/><path d="M1904.45,616.226c3.643,3.099 8.442,4.483 13.177,3.8c4.734,-0.682 8.946,-3.366 11.566,-7.368c60.856,-92.974 193.797,-223.248 282.245,-286.663c29.823,-21.383 64.777,-47.966 88.644,-80.146c17.248,-23.256 28.807,-49.394 29.918,-78.443c2.451,-64.156 -42.873,-107.761 -107.995,-121.365c-138.52,-28.938 -373.094,82.863 -345.166,426.213c1.616,19.873 1.049,68.905 8.15,103.062c3.911,18.817 10.842,33.579 19.461,40.91Zm13.56,-45.899c-1.096,-4.916 -1.983,-10.231 -2.731,-15.753c-4.222,-31.188 -3.873,-68.5 -5.217,-85.022c-21.705,-266.847 126.456,-383.034 249.062,-393.792c74.641,-6.549 140.034,25.805 137.567,90.373c-1.076,28.142 -15.634,52.401 -34.646,73.6c-20.83,23.227 -47.152,42.769 -70.03,59.172c-83.728,60.031 -206.053,178.306 -274.005,271.422Z" style="fill:#7e4021;"/><path d="M1041.52,1025.51c7.474,-3.627 -28.27,-71.546 -30.193,-75.285c-72.1,-140.205 -182.718,-308.469 -342.005,-356.769c-132.468,-40.168 -499.567,37.649 -406.484,159.18c123.104,160.726 501.891,127.212 778.682,272.874Z" style="fill:#eb7e6c;"/><path d="M1033.76,1040.26c4.689,2.467 10.272,2.558 15.039,0.245c3.531,-1.714 6.467,-4.43 8.423,-8.477c1.61,-3.331 2.89,-10.432 0.272,-19.846c-5.636,-20.263 -29.733,-66.448 -31.343,-69.578c-73.986,-143.871 -188.538,-315.534 -351.991,-365.097c-48.126,-14.593 -126.083,-14.622 -202.957,-2.515c-76.97,12.122 -152.692,36.413 -196.523,68.649c-26.353,19.381 -41.691,42.098 -43.3,66.149c-1.117,16.694 4.098,34.532 18.228,52.981c51.211,66.861 144.399,102.532 256.893,129.605c161.044,38.757 362.422,61.138 527.259,147.884Zm-19.614,-46.815c-160.162,-74.037 -347.662,-96.852 -499.845,-133.477c-103.846,-24.992 -190.956,-55.744 -238.229,-117.466c-8.212,-10.721 -12.082,-20.786 -11.433,-30.487c1.04,-15.546 12.756,-28.994 29.79,-41.521c40.515,-29.797 110.813,-51.37 181.96,-62.575c71.243,-11.219 143.497,-12.037 188.099,1.487c155.123,47.038 261.804,211.903 332.02,348.443c0.917,1.783 9.729,18.525 17.638,35.596Z" style="fill:#7e4021;"/><path d="M1034.63,2133.53c-1.144,3.903 -0.869,8.231 1.098,12.149c6.658,13.258 17.665,10.404 20.517,9.549c3.901,-1.169 9.408,-3.969 11.509,-12.019c0.342,-1.309 0.767,-4 0.534,-7.629c-0.231,-3.604 -1.639,-10.834 -1.181,-14.078c4.352,-30.852 15.005,-60.787 28.491,-88.741c38.502,-79.813 91.53,-147.971 136.863,-219.55c47.063,-74.31 85.943,-152.224 94.298,-249.075c5.23,-60.639 -0.463,-126.399 2.394,-190.113c2.696,-60.102 13.006,-118.419 50.344,-167.897c83.853,-111.119 200.55,-121.182 324.055,-88.791c194.74,51.074 406.195,205.479 544.446,262.803c8.497,3.523 18.256,-0.515 21.779,-9.012c3.524,-8.497 -0.515,-18.256 -9.012,-21.779c-139.283,-57.752 -352.563,-212.8 -548.757,-264.255c-137.12,-35.962 -266.021,-22.413 -359.119,100.955c-41.539,55.047 -54.037,119.617 -57.036,186.483c-2.837,63.253 2.889,128.539 -2.304,188.741c-7.86,91.11 -44.976,164.2 -89.249,234.105c-46.003,72.638 -99.652,141.908 -138.725,222.902c-14.971,31.034 -26.643,64.317 -31.475,98.569c-0.466,3.308 0.093,11.497 0.53,16.683Zm30.125,-4.161l0.252,0.42l-0.102,-0.188l-0.15,-0.232Zm-0.549,-0.83l0.323,0.48l-0.267,-0.413l-0.511,-0.676l0.455,0.609Zm-0.771,-0.996l0.266,0.321l-0.105,-0.138l-0.161,-0.183Z" style="fill:#7e4021;"/><path d="M1887.96,584.657c9.424,65.848 13.319,159.49 -20.139,236.741c-43.488,100.41 -104.404,168.49 -159.058,263.628c-4.582,7.976 -1.827,18.172 6.15,22.754c7.976,4.582 18.171,1.826 22.753,-6.15c55.319,-96.295 116.725,-165.353 160.743,-266.984c36.008,-83.139 32.69,-183.844 22.548,-254.711c-1.303,-9.106 -9.754,-15.441 -18.859,-14.138c-9.106,1.303 -15.441,9.754 -14.138,18.86Z" style="fill:#7e4021;"/><path d="M1004.18,1024.89c107.984,75.863 230.832,157.785 305.379,272.09c5.025,7.705 15.36,9.881 23.065,4.856c7.705,-5.025 9.881,-15.36 4.856,-23.065c-76.839,-117.818 -202.835,-202.962 -314.138,-281.156c-7.527,-5.288 -17.931,-3.47 -23.219,4.057c-5.288,7.526 -3.47,17.93 4.057,23.218Z" style="fill:#7e4021;"/><path d="M1975.26,1636.09c124.398,101.842 214.691,240.126 342.771,336.791c7.342,5.541 17.802,4.079 23.343,-3.263c5.542,-7.342 4.08,-17.802 -3.263,-23.343c-127.731,-96.402 -217.676,-234.412 -341.735,-335.977c-7.118,-5.827 -17.627,-4.779 -23.454,2.338c-5.827,7.118 -4.779,17.627 2.338,23.454Z" style="fill:#7e4021;"/><path d="M2370.62,2022.42c19.299,14.691 57.915,44.048 71.251,52.732c7.708,5.02 18.041,2.837 23.061,-4.872c5.019,-7.708 2.836,-18.042 -4.872,-23.061c-12.968,-8.444 -50.484,-37.037 -69.25,-51.322c-7.32,-5.572 -17.785,-4.153 -23.357,3.167c-5.571,7.319 -4.152,17.785 3.167,23.356Z" style="fill:#7e4021;"/><path d="M2462.17,1171.34c61.78,-8.17 134.475,-1.162 194.592,13.649c8.931,2.201 17.969,-3.264 20.17,-12.195c2.2,-8.932 -3.264,-17.97 -12.196,-20.17c-63.927,-15.75 -141.241,-23.017 -206.936,-14.33c-9.119,1.206 -15.544,9.589 -14.338,18.708c1.206,9.119 9.589,15.544 18.708,14.338Z" style="fill:#7e4021;"/><path d="M2736.79,1189.37c13.085,3.066 26.127,11.238 38.606,16.252c8.536,3.429 18.249,-0.717 21.678,-9.253c3.429,-8.536 -0.716,-18.249 -9.252,-21.678c-13.98,-5.616 -28.769,-14.34 -43.427,-17.775c-8.956,-2.098 -17.931,3.469 -20.03,12.425c-2.098,8.956 3.469,17.931 12.425,20.029Z" style="fill:#7e4021;"/><path d="M998.148,2884.07c-0.312,0.25 -0.613,0.515 -0.907,0.794c-28.941,27.467 10.718,35.384 21.394,25.693c2.441,-2.217 19.7,-18.532 25.63,-25.468c14.091,-16.483 23.953,-36.453 34.024,-55.493c23.663,-44.732 40.574,-89.422 48.233,-139.685c24.797,-162.727 -2.925,-324.065 8.892,-487.137c0.665,-9.175 -6.244,-17.163 -15.418,-17.828c-9.175,-0.664 -17.163,6.244 -17.828,15.419c-11.753,162.196 16.064,322.672 -8.599,484.524c-7.082,46.479 -22.863,87.756 -44.744,129.121c-8.937,16.894 -17.393,34.794 -29.897,49.419c-4.172,4.881 -16.095,16.225 -20.78,20.641Z" style="fill:#7e4021;"/><path d="M2952.2,1770.92c16.577,6.509 62.796,28.872 79.855,34.084c35.963,10.989 83.184,18.367 124.341,10.951c29.848,-5.379 56.557,-18.415 74.991,-42.089c5.652,-7.258 4.348,-17.739 -2.91,-23.39c-7.257,-5.652 -17.738,-4.348 -23.39,2.91c-13.331,17.12 -33.018,25.874 -54.602,29.764c-35.99,6.485 -77.242,-0.415 -108.69,-10.024c-16.552,-5.058 -61.327,-26.917 -77.412,-33.233c-8.562,-3.362 -18.243,0.859 -21.605,9.421c-3.362,8.563 0.86,18.244 9.422,21.606Z" style="fill:#7e4021;"/><path d="M2391.55,1224.49c5.378,-7.241 15.625,-8.754 22.866,-3.375c7.242,5.378 8.755,15.624 3.376,22.866c-5.378,7.242 -15.625,8.755 -22.866,3.376c-7.242,-5.379 -8.755,-15.625 -3.376,-22.867Z" style="fill:#fff;"/><path d="M1641.23,1041.28c5.378,-7.241 15.624,-8.754 22.866,-3.375c7.242,5.378 8.755,15.624 3.376,22.866c-5.379,7.242 -15.625,8.755 -22.867,3.376c-7.241,-5.379 -8.754,-15.625 -3.375,-22.867Z" style="fill:#fff;"/><path d="M630.117,1281.49c5.379,-7.242 15.625,-8.755 22.866,-3.376c7.242,5.378 8.755,15.625 3.376,22.866c-5.378,7.242 -15.624,8.755 -22.866,3.376c-7.242,-5.378 -8.755,-15.625 -3.376,-22.866Z" style="fill:#fff;"/><path d="M1920.06,1473.37c-8.221,-3.713 -17.91,-0.054 -21.623,8.167c-3.714,8.221 -0.054,17.91 8.167,21.624c8.221,3.713 17.91,0.053 21.623,-8.168c3.714,-8.221 0.054,-17.91 -8.167,-21.623Z" style="fill:#fff;"/><path d="M1426.01,1512.25c14.266,2.763 23.605,16.588 20.842,30.854c-2.762,14.265 -16.587,23.605 -30.853,20.842c-14.266,-2.762 -23.605,-16.587 -20.842,-30.853c2.762,-14.266 16.587,-23.605 30.853,-20.843Z" style="fill:#fff;"/><path d="M1150.56,1415.13c14.265,2.762 23.605,16.587 20.842,30.853c-2.762,14.266 -16.587,23.605 -30.853,20.843c-14.266,-2.763 -23.605,-16.588 -20.843,-30.854c2.763,-14.265 16.588,-23.605 30.854,-20.842Z" style="fill:#fff;"/><path d="M2023.73,1331.37c14.266,2.762 23.605,16.587 20.843,30.853c-2.763,14.266 -16.588,23.605 -30.854,20.842c-14.266,-2.762 -23.605,-16.587 -20.842,-30.853c2.762,-14.266 16.587,-23.605 30.853,-20.842Z" style="fill:#fff;"/><path d="M1723.69,1222.46c14.266,2.763 23.605,16.588 20.843,30.854c-2.763,14.265 -16.588,23.605 -30.853,20.842c-14.266,-2.763 -23.606,-16.587 -20.843,-30.853c2.763,-14.266 16.587,-23.605 30.853,-20.843Z" style="fill:#fff;"/><path d="M1619.68,534.693c14.266,2.762 23.605,16.587 20.843,30.853c-2.763,14.266 -16.588,23.605 -30.854,20.843c-14.265,-2.763 -23.605,-16.588 -20.842,-30.854c2.762,-14.266 16.587,-23.605 30.853,-20.842Z" style="fill:#fff;"/><path d="M1025.51,1320.31c14.266,2.762 23.605,16.587 20.843,30.853c-2.763,14.266 -16.588,23.605 -30.854,20.842c-14.265,-2.762 -23.605,-16.587 -20.842,-30.853c2.762,-14.266 16.587,-23.605 30.853,-20.842Z" style="fill:#fff;"/><path d="M1516.19,947.804c14.266,2.762 23.605,16.587 20.843,30.853c-2.763,14.266 -16.588,23.605 -30.854,20.842c-14.265,-2.762 -23.605,-16.587 -20.842,-30.853c2.762,-14.266 16.587,-23.605 30.853,-20.842Z" style="fill:#fff;"/><path d="M1834.06,1407.59c14.266,2.763 23.605,16.588 20.842,30.853c-2.762,14.266 -16.587,23.605 -30.853,20.843c-14.266,-2.763 -23.605,-16.588 -20.842,-30.853c2.762,-14.266 16.587,-23.605 30.853,-20.843Z" style="fill:#fff;"/><path d="M1534.02,1298.69c14.266,2.762 23.605,16.587 20.843,30.853c-2.763,14.266 -16.588,23.605 -30.854,20.842c-14.266,-2.762 -23.605,-16.587 -20.842,-30.853c2.762,-14.266 16.587,-23.605 30.853,-20.842Z" style="fill:#fff;"/><path d="M2310.22,757.169c14.266,2.763 23.605,16.588 20.843,30.854c-2.763,14.265 -16.588,23.605 -30.854,20.842c-14.265,-2.762 -23.605,-16.587 -20.842,-30.853c2.763,-14.266 16.587,-23.605 30.853,-20.843Z" style="fill:#fff;"/><path d="M1763.53,1877.26c14.266,2.762 23.605,16.587 20.842,30.853c-2.762,14.266 -16.587,23.605 -30.853,20.842c-14.266,-2.762 -23.605,-16.587 -20.842,-30.853c2.762,-14.266 16.587,-23.605 30.853,-20.842Z" style="fill:#fff;"/><path d="M1422,1218.7c14.266,2.762 23.605,16.587 20.843,30.853c-2.763,14.266 -16.588,23.605 -30.853,20.842c-14.266,-2.762 -23.605,-16.587 -20.843,-30.853c2.763,-14.266 16.588,-23.605 30.853,-20.842Z" style="fill:#fff;"/><path d="M1490.02,1625.79c14.266,2.762 23.605,16.587 20.842,30.853c-2.762,14.266 -16.587,23.605 -30.853,20.842c-14.266,-2.762 -23.605,-16.587 -20.843,-30.853c2.763,-14.266 16.588,-23.605 30.854,-20.842Z" style="fill:#fff;"/><path d="M2485.16,848.536c14.266,2.762 23.605,16.587 20.843,30.853c-2.763,14.266 -16.588,23.605 -30.853,20.842c-14.266,-2.762 -23.605,-16.587 -20.843,-30.853c2.763,-14.266 16.588,-23.605 30.853,-20.842Z" style="fill:#fff;"/><path d="M1256.91,1347.57c14.266,2.763 23.605,16.588 20.843,30.854c-2.763,14.266 -16.588,23.605 -30.854,20.842c-14.265,-2.762 -23.605,-16.587 -20.842,-30.853c2.763,-14.266 16.587,-23.605 30.853,-20.843Z" style="fill:#fff;"/><path d="M1375.12,1912.97c14.528,0.316 26.066,12.366 25.75,26.894c-0.316,14.527 -12.367,26.065 -26.894,25.749c-14.527,-0.315 -26.066,-12.366 -25.75,-26.893c0.316,-14.528 12.367,-26.066 26.894,-25.75Z" style="fill:#fff;"/><path d="M1797.72,1648.27c14.527,0.316 26.065,12.367 25.75,26.894c-0.316,14.528 -12.367,26.066 -26.894,25.75c-14.528,-0.316 -26.066,-12.367 -25.75,-26.894c0.316,-14.527 12.367,-26.065 26.894,-25.75Z" style="fill:#fff;"/><path d="M1911.56,1331.59c-5.733,-6.965 -16.042,-7.966 -23.006,-2.233c-6.965,5.732 -7.966,16.041 -2.233,23.006c5.732,6.965 16.041,7.965 23.006,2.233c6.965,-5.733 7.965,-16.041 2.233,-23.006Z" style="fill:#fff;"/><path d="M1611.51,1222.69c-5.733,-6.965 -16.041,-7.965 -23.006,-2.233c-6.965,5.733 -7.966,16.041 -2.233,23.006c5.732,6.965 16.041,7.966 23.006,2.233c6.965,-5.732 7.966,-16.041 2.233,-23.006Z" style="fill:#fff;"/><path d="M1630.28,1365.62c-5.733,-6.965 -16.042,-7.966 -23.007,-2.233c-6.965,5.732 -7.965,16.041 -2.233,23.006c5.733,6.965 16.042,7.965 23.007,2.233c6.965,-5.733 7.965,-16.041 2.233,-23.006Z" style="fill:#fff;"/><path d="M1947.65,1758.95c-8.979,-0.871 -16.976,5.711 -17.847,14.689c-0.872,8.979 5.71,16.976 14.689,17.847c8.978,0.872 16.975,-5.71 17.847,-14.689c0.871,-8.978 -5.711,-16.975 -14.689,-17.847Z" style="fill:#fff;"/><path d="M1642.5,1134.15c0.871,-8.978 -5.711,-16.975 -14.689,-17.847c-8.979,-0.871 -16.976,5.711 -17.847,14.689c-0.872,8.979 5.71,16.976 14.689,17.847c8.978,0.872 16.975,-5.71 17.847,-14.689Z" style="fill:#fff;"/><path d="M1289.93,727.659c0.871,-8.979 -5.711,-16.976 -14.689,-17.847c-8.979,-0.871 -16.976,5.71 -17.847,14.689c-0.872,8.979 5.71,16.975 14.689,17.847c8.978,0.871 16.975,-5.711 17.847,-14.689Z" style="fill:#fff;"/><path d="M2226.24,1158.94c7.422,-5.126 17.61,-3.263 22.737,4.16c5.126,7.422 3.263,17.61 -4.16,22.737c-7.422,5.126 -17.61,3.263 -22.737,-4.16c-5.126,-7.422 -3.263,-17.61 4.16,-22.737Z" style="fill:#fff;"/><path d="M1934.79,2048.79c5.127,7.422 3.263,17.61 -4.159,22.737c-7.423,5.127 -17.611,3.263 -22.737,-4.159c-5.127,-7.422 -3.263,-17.611 4.159,-22.737c7.422,-5.127 17.61,-3.263 22.737,4.159Z" style="fill:#fff;"/><path d="M1894.39,1071.78c5.126,7.423 3.263,17.611 -4.16,22.738c-7.422,5.126 -17.61,3.263 -22.737,-4.16c-5.126,-7.422 -3.263,-17.61 4.16,-22.737c7.422,-5.127 17.61,-3.263 22.737,4.159Z" style="fill:#fff;"/><path d="M1125.97,1341.99c5.127,7.422 3.263,17.61 -4.159,22.737c-7.423,5.126 -17.611,3.263 -22.738,-4.16c-5.126,-7.422 -3.263,-17.61 4.16,-22.737c7.422,-5.126 17.61,-3.263 22.737,4.16Z" style="fill:#fff;"/><path d="M1457.03,967.8c5.127,7.422 3.263,17.61 -4.159,22.737c-7.422,5.127 -17.61,3.263 -22.737,-4.159c-5.127,-7.422 -3.263,-17.611 4.159,-22.737c7.423,-5.127 17.611,-3.263 22.737,4.159Z" style="fill:#fff;"/><path d="M1503.44,1903.86c0.871,-8.978 -5.711,-16.975 -14.689,-17.847c-8.979,-0.871 -16.976,5.711 -17.847,14.689c-0.871,8.979 5.71,16.976 14.689,17.847c8.978,0.871 16.975,-5.71 17.847,-14.689Z" style="fill:#fff;"/><path d="M1228.72,1522.57c0.872,-8.978 -5.71,-16.975 -14.689,-17.847c-8.978,-0.871 -16.975,5.711 -17.847,14.689c-0.871,8.979 5.711,16.976 14.689,17.847c8.979,0.872 16.976,-5.71 17.847,-14.689Z" style="fill:#fff;"/><path d="M1664.85,1499.33c-3.735,-8.211 -0.101,-17.91 8.111,-21.644c8.211,-3.735 17.909,-0.101 21.644,8.11c3.735,8.211 0.101,17.91 -8.11,21.645c-8.212,3.735 -17.91,0.1 -21.645,-8.111Z" style="fill:#fff;"/><path d="M1696.94,1184.49c-3.735,-8.211 -0.1,-17.91 8.111,-21.645c8.211,-3.734 17.91,-0.1 21.644,8.111c3.735,8.211 0.101,17.91 -8.11,21.645c-8.211,3.735 -17.91,0.1 -21.645,-8.111Z" style="fill:#fff;"/><path d="M1946.31,1008.7c8.898,-1.483 17.326,4.538 18.808,13.436c1.483,8.898 -4.538,17.326 -13.436,18.808c-8.898,1.482 -17.326,-4.538 -18.808,-13.436c-1.482,-8.899 4.538,-17.326 13.436,-18.808Z" style="fill:#fff;"/><path d="M1177.9,1278.91c8.899,-1.483 17.326,4.538 18.808,13.436c1.483,8.898 -4.538,17.326 -13.436,18.808c-8.898,1.482 -17.326,-4.538 -18.808,-13.436c-1.482,-8.899 4.538,-17.326 13.436,-18.808Z" style="fill:#fff;"/><path d="M1976.17,815.895c-0.871,8.978 -8.868,15.56 -17.846,14.689c-8.979,-0.871 -15.561,-8.868 -14.69,-17.846c0.871,-8.979 8.868,-15.561 17.847,-14.69c8.978,0.871 15.56,8.868 14.689,17.847Z" style="fill:#fff;"/><path d="M1195.9,836.908c-0.871,8.978 -8.868,15.561 -17.846,14.689c-8.979,-0.871 -15.561,-8.868 -14.69,-17.846c0.872,-8.979 8.868,-15.561 17.847,-14.69c8.978,0.872 15.561,8.868 14.689,17.847Z" style="fill:#fff;"/><path d="M1366.68,1777.01c-0.871,8.978 -8.868,15.561 -17.846,14.689c-8.979,-0.871 -15.561,-8.868 -14.69,-17.846c0.871,-8.979 8.868,-15.561 17.847,-14.69c8.978,0.872 15.56,8.868 14.689,17.847Z" style="fill:#fff;"/><path d="M1196.33,1007.93c-0.871,8.978 -8.868,15.56 -17.846,14.689c-8.979,-0.871 -15.561,-8.868 -14.69,-17.846c0.871,-8.979 8.868,-15.561 17.847,-14.69c8.978,0.871 15.56,8.868 14.689,17.847Z" style="fill:#fff;"/><path d="M1681.03,804.528c-0.871,8.978 -8.867,15.56 -17.846,14.689c-8.979,-0.871 -15.561,-8.868 -14.69,-17.846c0.872,-8.979 8.868,-15.561 17.847,-14.69c8.978,0.871 15.561,8.868 14.689,17.847Z" style="fill:#fff;"/><path d="M957.516,1206.78c-0.871,8.978 -8.867,15.561 -17.846,14.689c-8.979,-0.871 -15.561,-8.867 -14.69,-17.846c0.872,-8.979 8.868,-15.561 17.847,-14.69c8.978,0.872 15.561,8.868 14.689,17.847Z" style="fill:#fff;"/><path d="M1328.66,1053.07c-0.871,8.979 -8.868,15.561 -17.846,14.69c-8.979,-0.871 -15.561,-8.868 -14.69,-17.847c0.871,-8.978 8.868,-15.56 17.846,-14.689c8.979,0.871 15.561,8.868 14.69,17.846Z" style="fill:#fff;"/><path d="M1293.7,1145.72c-0.871,8.979 -8.868,15.561 -17.846,14.69c-8.979,-0.872 -15.561,-8.868 -14.69,-17.847c0.871,-8.978 8.868,-15.56 17.847,-14.689c8.978,0.871 15.56,8.868 14.689,17.846Z" style="fill:#fff;"/><path d="M797.178,1225.53c-0.872,8.978 -8.868,15.56 -17.847,14.689c-8.978,-0.871 -15.56,-8.868 -14.689,-17.846c0.871,-8.979 8.868,-15.561 17.846,-14.69c8.979,0.871 15.561,8.868 14.69,17.847Z" style="fill:#fff;"/><path d="M1153.48,1260.89c-0.871,8.979 -8.868,15.561 -17.846,14.69c-8.979,-0.872 -15.561,-8.868 -14.69,-17.847c0.871,-8.978 8.868,-15.56 17.847,-14.689c8.978,0.871 15.56,8.868 14.689,17.846Z" style="fill:#fff;"/><path d="M994.84,1091.76c-0.871,8.978 -8.868,15.56 -17.846,14.689c-8.979,-0.871 -15.561,-8.868 -14.69,-17.846c0.872,-8.979 8.868,-15.561 17.847,-14.69c8.978,0.871 15.56,8.868 14.689,17.847Z" style="fill:#fff;"/><path d="M1058.16,1497.83c-0.871,8.979 -8.867,15.561 -17.846,14.69c-8.979,-0.872 -15.561,-8.868 -14.69,-17.847c0.872,-8.978 8.868,-15.561 17.847,-14.689c8.978,0.871 15.561,8.868 14.689,17.846Z" style="fill:#fff;"/><path d="M1364.81,1390.43c-3.735,-8.211 -0.1,-17.91 8.111,-21.645c8.211,-3.735 17.91,-0.1 21.644,8.111c3.735,8.211 0.101,17.91 -8.11,21.644c-8.211,3.735 -17.91,0.101 -21.645,-8.11Z" style="fill:#fff;"/><path d="M2171.03,1070.71c-8.979,-0.871 -16.976,5.711 -17.847,14.689c-0.872,8.979 5.71,16.976 14.689,17.847c8.978,0.871 16.975,-5.71 17.847,-14.689c0.871,-8.978 -5.711,-16.975 -14.689,-17.847Z" style="fill:#fff;"/><path d="M2016.24,1119.79c0.872,-8.978 -5.71,-16.975 -14.689,-17.846c-8.978,-0.872 -16.975,5.71 -17.847,14.688c-0.871,8.979 5.711,16.976 14.689,17.847c8.979,0.872 16.976,-5.71 17.847,-14.689Z" style="fill:#fff;"/><path d="M1788.9,1317.64c0.871,-8.978 -5.711,-16.975 -14.689,-17.847c-8.979,-0.871 -16.976,5.711 -17.847,14.689c-0.872,8.979 5.71,16.976 14.689,17.847c8.978,0.872 16.975,-5.71 17.847,-14.689Z" style="fill:#fff;"/><path d="M1860.69,998.146c0.871,-8.979 -5.711,-16.976 -14.689,-17.847c-8.979,-0.872 -16.976,5.71 -17.847,14.689c-0.872,8.978 5.71,16.975 14.689,17.847c8.978,0.871 16.975,-5.711 17.847,-14.689Z" style="fill:#fff;"/><path d="M1931.6,1256.24c0.871,-8.979 -5.711,-16.976 -14.689,-17.847c-8.979,-0.872 -16.976,5.71 -17.847,14.689c-0.872,8.978 5.71,16.975 14.689,17.847c8.978,0.871 16.975,-5.711 17.847,-14.689Z" style="fill:#fff;"/><path d="M1493.57,833.62c0.871,-8.978 -5.711,-16.975 -14.689,-17.846c-8.979,-0.872 -16.976,5.71 -17.847,14.689c-0.872,8.978 5.71,16.975 14.689,17.846c8.978,0.872 16.975,-5.71 17.847,-14.689Z" style="fill:#fff;"/><path d="M2279.14,1106.61c-8.978,-0.872 -16.975,5.71 -17.847,14.689c-0.871,8.978 5.711,16.975 14.689,17.847c8.979,0.871 16.976,-5.711 17.847,-14.689c0.872,-8.979 -5.71,-16.976 -14.689,-17.847Z" style="fill:#fff;"/><path d="M1537.25,1207.51c0.872,-8.979 -5.71,-16.976 -14.689,-17.847c-8.978,-0.872 -16.975,5.71 -17.847,14.689c-0.871,8.978 5.711,16.975 14.689,17.847c8.979,0.871 16.976,-5.711 17.847,-14.689Z" style="fill:#fff;"/><path d="M1610.34,1293.79c0.872,-8.979 -5.71,-16.976 -14.689,-17.847c-8.978,-0.872 -16.975,5.71 -17.847,14.689c-0.871,8.978 5.711,16.975 14.689,17.846c8.979,0.872 16.976,-5.71 17.847,-14.688Z" style="fill:#fff;"/><path d="M1552.69,1428.24c0.872,-8.979 -5.71,-16.976 -14.689,-17.847c-8.978,-0.872 -16.975,5.71 -17.847,14.689c-0.871,8.978 5.711,16.975 14.689,17.847c8.979,0.871 16.976,-5.711 17.847,-14.689Z" style="fill:#fff;"/><path d="M2207.25,883.545c8.447,3.166 17.875,-1.122 21.041,-9.569c3.166,-8.447 -1.122,-17.875 -9.569,-21.041c-8.447,-3.165 -17.875,1.123 -21.041,9.57c-3.166,8.447 1.122,17.875 9.569,21.04Z" style="fill:#fff;"/><path d="M2113.98,967.883c-3.166,8.447 1.122,17.875 9.569,21.041c8.447,3.165 17.875,-1.123 21.04,-9.57c3.166,-8.447 -1.122,-17.875 -9.569,-21.04c-8.447,-3.166 -17.875,1.122 -21.04,9.569Z" style="fill:#fff;"/><path d="M1955.35,899.18c-5.244,7.34 -3.542,17.557 3.798,22.801c7.34,5.244 17.556,3.542 22.8,-3.798c5.244,-7.34 3.542,-17.556 -3.797,-22.8c-7.34,-5.244 -17.557,-3.543 -22.801,3.797Z" style="fill:#fff;"/><path d="M1081.75,1166.81c-5.244,7.34 -3.542,17.556 3.798,22.8c7.34,5.244 17.556,3.543 22.8,-3.797c5.244,-7.34 3.542,-17.557 -3.797,-22.8c-7.34,-5.244 -17.557,-3.543 -22.801,3.797Z" style="fill:#fff;"/><path d="M34.498,701.609c1.742,31.099 10.945,52.964 25.181,68.896c14.115,15.796 33.516,25.906 57.246,32.475c60.65,16.79 152.886,9.127 244.74,44.273c8.591,3.288 18.235,-1.018 21.522,-9.61c3.287,-8.591 -1.019,-18.234 -9.61,-21.522c-78.304,-29.961 -156.8,-29.95 -216.713,-38.958c-30.902,-4.647 -56.467,-11.117 -72.329,-28.868c-9.968,-11.156 -15.536,-26.776 -16.756,-48.551c-0.515,-9.185 -8.389,-16.223 -17.573,-15.708c-9.184,0.514 -16.223,8.388 -15.708,17.573Z" style="fill:#7e4021;"/></g></svg>