<?xml version="1.0" encoding="UTF-8" standalone="no"?><!DOCTYPE svg PUBLIC "-//W3C//DTD SVG 1.1//EN" "http://www.w3.org/Graphics/SVG/1.1/DTD/svg11.dtd"><svg width="100%" height="100%" viewBox="0 0 3720 1646" version="1.1" xmlns="http://www.w3.org/2000/svg" xmlns:xlink="http://www.w3.org/1999/xlink" xml:space="preserve" xmlns:serif="http://www.serif.com/" style="fill-rule:evenodd;clip-rule:evenodd;stroke-linejoin:round;stroke-miterlimit:2;"><g id="Strawberry-pastry" serif:id="Strawberry pastry"><path d="M1090.96,91.903c98.049,-37.147 207.333,-77.538 313.365,-74.94c85.836,2.104 161.305,53.819 247.457,60.234c107.928,8.037 215.372,-31.253 322.75,-16.209c66.866,9.367 123.445,54.529 191.348,58.219c92.351,5.019 179.673,-39.62 273.642,-35.008c97.354,4.778 214.628,49.222 271.436,133.224c77.28,114.275 -383.114,210.643 -427.2,217.053c-371.075,53.954 -899.377,-86.101 -1192.8,-342.573Z" style="fill:#eb7e6c;"/><path d="M1085.06,76.317c-5.475,2.074 -9.461,6.87 -10.498,12.633c-1.037,5.763 1.026,11.648 5.435,15.501c296.716,259.352 830.923,401.078 1206.16,346.518c31.378,-4.562 270.102,-54.168 383.604,-123.241c58.201,-35.42 83.209,-77.934 55.004,-119.641c-59.604,-88.138 -182.28,-135.521 -284.425,-140.535c-48.483,-2.379 -95.276,7.755 -141.836,18.029c-43.64,9.629 -87.058,19.411 -131.719,16.984c-32.03,-1.741 -61.315,-13.53 -90.552,-25.721c-32.304,-13.47 -64.538,-27.479 -99.388,-32.362c-55.167,-7.729 -110.358,-1.675 -165.613,5.453c-52.656,6.794 -105.37,14.577 -158.211,10.642c-41.625,-3.1 -80.62,-17.339 -119.626,-30.861c-41.997,-14.559 -84.008,-28.32 -128.661,-29.414c-108.135,-2.651 -219.685,38.132 -319.678,76.015Zm38.273,21.189c89.068,-33.347 186.105,-66.197 280.588,-63.881c41.184,1.009 79.825,14.158 118.56,27.586c41.725,14.464 83.542,29.291 128.069,32.607c55.086,4.102 110.058,-3.741 164.951,-10.823c52.293,-6.746 104.513,-12.816 156.724,-5.502c32.017,4.486 61.505,17.741 91.183,30.116c32.744,13.654 65.7,26.291 101.573,28.241c47.69,2.591 94.108,-7.436 140.71,-17.719c43.681,-9.638 87.533,-19.518 133.019,-17.285c92.563,4.542 204.435,46.045 258.447,125.914c9.297,13.748 6.154,27.034 -4.117,39.726c-9.236,11.413 -23.352,22.268 -40.604,32.767c-109.752,66.791 -340.73,114.318 -371.071,118.73c-358.055,52.061 -864.188,-78.471 -1158.03,-320.477l0,0Z" style="fill:#7e4021;"/><path d="M23.781,492.96c-102.232,-233.218 1009.34,-514.456 1208.88,-386.423c71.282,45.735 90.423,147.479 171.427,137.259c71.767,-9.054 74.911,-171.91 170.398,-201.192c322.749,-98.977 220.71,218.88 357.084,223.076c127.931,3.937 72.631,-226.542 275.614,-214.994c209.799,11.936 117.081,270.123 232.834,278.859c125.364,9.461 141.989,-189.488 374.969,-150.347c148.483,24.945 928.115,140.58 885.68,393.779c-32.216,192.224 -527.297,419.723 -680.223,511.622c-142.574,85.678 -858.982,566.743 -998.026,543.467c-202.721,-33.936 -401.126,-222.305 -567.23,-331.383c-136.793,-89.829 -280.258,-170.516 -426.432,-244.091c-171.05,-86.096 -934.471,-398.788 -1004.98,-559.632Z" style="fill:#ffe6d8;"/><path d="M8.517,499.651c9.195,20.978 28.888,44.619 57.358,69.638c39.921,35.082 97.53,73.732 165.299,113.579c259.727,152.713 670.209,324.269 790.091,384.611c145.606,73.289 288.517,153.656 424.778,243.136c82.988,54.497 174.04,128.808 269.671,193.727c97.781,66.379 200.395,122.826 303.955,140.162c18.467,3.091 46.242,-1.177 80.911,-12.441c47.651,-15.482 109.762,-43.929 179.469,-80.138c267.615,-139.011 649.063,-392.995 748.983,-453.041c107.474,-64.585 383.178,-196.035 550.078,-335.194c74.943,-62.486 127.831,-127.298 137.997,-187.958c7.159,-42.715 -6.014,-82.089 -34.944,-118.02c-26.895,-33.402 -67.843,-63.936 -118.03,-91.363c-225.622,-123.295 -641.696,-186 -746.382,-203.588c-147.45,-24.771 -212.952,40.271 -270.158,94.59c-32.524,30.883 -61.209,58.979 -106.318,55.575c-20.948,-1.581 -32.281,-14.7 -40.447,-32.782c-6.828,-15.123 -11.483,-33.435 -16.135,-52.957c-19.943,-83.696 -40.423,-185.396 -176.56,-193.141c-44.557,-2.535 -77.709,5.895 -103.465,20.428c-38.272,21.595 -60.406,57.138 -78.372,93.466c-10.778,21.793 -20.035,43.76 -31.332,62.122c-14.131,22.969 -31.562,39.923 -62.878,38.96c-21.16,-0.651 -34.724,-11.37 -45.203,-26.955c-12.864,-19.132 -21.498,-44.737 -31.357,-71.071c-16.725,-44.676 -36.855,-90.909 -78.079,-118.5c-41.075,-27.492 -103.921,-37.696 -207.845,-5.827c-52.169,15.999 -80.548,67.221 -104.252,116.945c-10.421,21.861 -20.034,43.165 -31.447,59.497c-8.888,12.718 -18.475,22.456 -31.899,24.15c-34.017,4.292 -54.234,-16.41 -74.241,-41.502c-24.88,-31.204 -48.872,-69.365 -86.098,-93.25c-43.751,-28.071 -129.317,-38.563 -236.496,-33.368c-241.548,11.708 -595.812,99.308 -810.617,208.446c-81.422,41.368 -143.007,86.292 -172.687,130.898c-22.544,33.88 -27.892,67.989 -13.348,101.166Zm30.529,-13.382c-9.994,-22.798 -4.921,-46.038 10.57,-69.319c27.369,-41.131 84.954,-81.499 160.035,-119.646c211.224,-107.318 559.61,-193.356 797.132,-204.869c98.141,-4.757 176.82,2.426 216.881,28.129c34.056,21.851 55.275,57.429 78.036,85.976c27.642,34.668 57.479,59.721 104.477,53.792c18.438,-2.326 33.628,-12.086 46.669,-27.265c10.956,-12.753 20.465,-29.587 29.665,-48.176c12.507,-25.268 24.569,-53.995 40.581,-78.515c14.193,-21.735 31.447,-40.222 56.283,-47.838c89.735,-27.519 144.065,-22.079 179.532,1.659c35.316,23.638 51.073,64.212 65.402,102.486c10.844,28.965 20.763,56.94 34.913,77.984c16.536,24.593 38.448,40.645 71.839,41.672c58.737,1.808 85.466,-37.404 109.336,-86.698c28.681,-59.232 53.86,-134.686 165.843,-128.315c115.64,6.579 129.087,96.492 146.027,167.588c6.582,27.619 13.603,52.956 24.91,71.947c13.374,22.463 32.272,37.091 61.59,39.303c55.19,4.166 91.986,-26.856 131.778,-64.64c51.261,-48.674 109.558,-108.087 241.684,-85.89c103.19,17.336 513.519,78.431 735.919,199.966c45.817,25.038 83.499,52.524 108.051,83.017c22.517,27.966 33.605,58.359 28.034,91.605c-9.164,54.676 -58.919,111.544 -126.469,167.866c-165.576,138.055 -439.28,268.152 -545.902,332.225c-99.684,59.904 -480.196,313.349 -747.178,452.032c-67.76,35.197 -128.084,62.967 -174.404,78.016c-27.983,9.092 -50.202,13.762 -65.108,11.267c-99.16,-16.6 -197.109,-71.306 -290.736,-134.865c-95.778,-65.019 -186.981,-139.43 -270.096,-194.011c-137.325,-90.179 -281.346,-171.186 -428.088,-245.047c-119.587,-60.193 -529.098,-231.236 -788.183,-383.572c-65.639,-38.594 -121.524,-75.903 -160.19,-109.883c-23.922,-21.022 -41.107,-40.355 -48.833,-57.981l-0,-0Z" style="fill:#7e4021;"/><path d="M3332.86,291.547c51.111,15.732 -244.801,131.337 -589.473,295.375c-377.708,179.76 -683.159,387.792 -871.348,259.311c-943.777,-644.341 -1646.82,-578.921 -1551.86,-616.344c318.202,-125.402 789.251,-202.419 912.482,-123.352c71.282,45.735 90.423,147.479 171.427,137.259c71.767,-9.054 74.911,-171.91 170.398,-201.192c322.749,-98.977 220.71,218.88 357.084,223.076c127.931,3.937 72.631,-226.542 275.614,-214.994c209.799,11.936 117.081,270.123 232.834,278.859c125.364,9.461 141.989,-189.488 374.969,-150.347c74.65,12.541 308.831,48.005 517.872,112.349Z" style="fill:#ffce7b;"/><path d="M3337.76,275.618c-209.909,-64.611 -445.053,-100.263 -520.014,-112.857c-147.45,-24.771 -212.952,40.271 -270.158,94.59c-32.524,30.883 -61.209,58.979 -106.318,55.575c-20.948,-1.581 -32.281,-14.7 -40.447,-32.782c-6.828,-15.123 -11.483,-33.435 -16.135,-52.957c-19.943,-83.696 -40.423,-185.396 -176.56,-193.141c-44.557,-2.535 -77.709,5.895 -103.465,20.428c-38.272,21.595 -60.406,57.138 -78.372,93.466c-10.778,21.793 -20.035,43.76 -31.332,62.122c-14.131,22.969 -31.562,39.923 -62.878,38.96c-21.16,-0.651 -34.724,-11.37 -45.203,-26.955c-12.864,-19.132 -21.498,-44.737 -31.357,-71.071c-16.725,-44.676 -36.855,-90.909 -78.079,-118.5c-41.075,-27.492 -103.921,-37.696 -207.845,-5.827c-52.169,15.999 -80.548,67.221 -104.252,116.945c-10.421,21.861 -20.034,43.165 -31.447,59.497c-8.888,12.718 -18.475,22.456 -31.899,24.15c-34.017,4.292 -54.234,-16.41 -74.241,-41.502c-24.88,-31.204 -48.872,-69.365 -86.098,-93.25c-38.799,-24.893 -110.27,-36.102 -200.586,-34.562c-202.42,3.451 -502.473,67.948 -727.008,156.436c-7.197,2.836 -11.523,5.925 -13.715,8.215c-3.978,4.159 -5.254,8.521 -5.42,12.375c-0.241,5.615 1.807,14.212 13.649,19.221c11.08,4.685 47.143,9.116 104.957,17.283c220.857,31.197 772.859,126.832 1449.1,588.521c79.121,54.018 177.88,52.826 293.414,18.198c165.521,-49.611 366.987,-167.949 594.494,-276.225c276.959,-131.812 522.466,-232.718 583.348,-275.807c8.609,-6.093 14.204,-11.626 17.088,-15.968c2.798,-4.211 3.969,-8.198 4.245,-11.656c0.714,-8.957 -2.88,-18.432 -17.468,-22.922Zm-28.505,26.201c-6.659,4.546 -15.11,9.973 -24.02,14.831c-91.043,49.643 -308.107,140.569 -549.013,255.223c-225.743,107.436 -425.502,225.167 -589.739,274.393c-104.306,31.263 -193.618,34.971 -265.049,-13.797c-747.748,-510.507 -1345.09,-577.49 -1517.39,-601.456c215.953,-79.632 489.564,-136.532 677.596,-139.737c81.804,-1.395 146.876,6.741 182.017,29.288c34.056,21.851 55.275,57.429 78.036,85.976c27.642,34.668 57.479,59.721 104.477,53.792c18.438,-2.326 33.628,-12.086 46.669,-27.265c10.956,-12.753 20.465,-29.587 29.665,-48.176c12.507,-25.268 24.569,-53.995 40.581,-78.515c14.193,-21.735 31.447,-40.222 56.283,-47.838c89.735,-27.519 144.065,-22.079 179.532,1.659c35.316,23.638 51.073,64.212 65.402,102.486c10.844,28.965 20.763,56.94 34.913,77.984c16.536,24.593 38.448,40.645 71.839,41.672c58.737,1.808 85.466,-37.404 109.336,-86.698c28.681,-59.232 53.86,-134.686 165.843,-128.315c115.64,6.579 129.087,96.492 146.027,167.588c6.582,27.619 13.603,52.956 24.91,71.947c13.374,22.463 32.272,37.091 61.59,39.303c55.19,4.166 91.986,-26.856 131.778,-64.64c51.261,-48.674 109.558,-108.087 241.684,-85.89c72.125,12.117 293.799,45.683 497.031,106.185Z" style="fill:#7e4021;"/><path d="M2319.08,466.29c7.499,-5.014 17.658,-2.996 22.672,4.504c5.013,7.499 2.995,17.657 -4.504,22.671c-7.499,5.013 -17.658,2.995 -22.671,-4.504c-5.014,-7.499 -2.996,-17.658 4.503,-22.671Z" style="fill:#fff;"/><path d="M2073.07,262.904c7.499,-5.013 17.658,-2.995 22.671,4.504c5.014,7.499 2.996,17.658 -4.503,22.671c-7.5,5.014 -17.658,2.996 -22.672,-4.503c-5.013,-7.5 -2.995,-17.658 4.504,-22.672Z" style="fill:#fff;"/><path d="M1258.53,259.212c7.5,-5.014 17.658,-2.996 22.672,4.503c5.013,7.5 2.995,17.658 -4.504,22.672c-7.499,5.013 -17.658,2.995 -22.671,-4.504c-5.014,-7.499 -2.996,-17.658 4.503,-22.671Z" style="fill:#fff;"/><path d="M2001.09,773.001c-6.495,-6.26 -16.85,-6.069 -23.11,0.427c-6.26,6.495 -6.068,16.85 0.427,23.11c6.495,6.26 16.851,6.069 23.11,-0.427c6.26,-6.495 6.069,-16.85 -0.427,-23.11Z" style="fill:#fff;"/><path d="M2856.22,423.47c8.713,-2.335 17.683,2.844 20.018,11.557c2.334,8.713 -2.844,17.683 -11.558,20.018c-8.713,2.334 -17.683,-2.844 -20.017,-11.557c-2.335,-8.714 2.843,-17.683 11.557,-20.018Z" style="fill:#fff;"/><path d="M2710.42,468.509c-8.164,-3.838 -17.907,-0.325 -21.745,7.838c-3.838,8.164 -0.325,17.908 7.838,21.745c8.164,3.838 17.908,0.326 21.745,-7.838c3.838,-8.164 0.326,-17.907 -7.838,-21.745Z" style="fill:#fff;"/><path d="M1771.9,619.7c12.508,7.396 16.659,23.555 9.264,36.063c-7.396,12.508 -23.555,16.659 -36.063,9.264c-12.508,-7.395 -16.659,-23.554 -9.264,-36.063c7.395,-12.508 23.555,-16.659 36.063,-9.264Z" style="fill:#fff;"/><path d="M1485.31,450.154c12.508,7.395 16.659,23.554 9.264,36.063c-7.396,12.508 -23.555,16.659 -36.063,9.264c-12.508,-7.396 -16.659,-23.555 -9.264,-36.063c7.396,-12.508 23.555,-16.659 36.063,-9.264Z" style="fill:#fff;"/><path d="M2335.86,664.644c12.509,7.395 16.66,23.554 9.264,36.062c-7.395,12.509 -23.554,16.66 -36.062,9.264c-12.509,-7.395 -16.66,-23.554 -9.264,-36.062c7.395,-12.509 23.554,-16.66 36.062,-9.264Z" style="fill:#fff;"/><path d="M2089.86,461.258c12.508,7.395 16.659,23.554 9.264,36.063c-7.395,12.508 -23.554,16.659 -36.063,9.264c-12.508,-7.396 -16.659,-23.555 -9.264,-36.063c7.396,-12.508 23.555,-16.659 36.063,-9.264Z" style="fill:#fff;"/><path d="M3211.4,290.65c12.508,7.395 16.659,23.554 9.264,36.062c-7.395,12.509 -23.554,16.66 -36.062,9.264c-12.509,-7.395 -16.66,-23.554 -9.264,-36.062c7.395,-12.508 23.554,-16.659 36.062,-9.264Z" style="fill:#fff;"/><path d="M2213.92,322.513c12.508,7.396 16.659,23.555 9.263,36.063c-7.395,12.508 -23.554,16.659 -36.062,9.264c-12.508,-7.395 -16.659,-23.554 -9.264,-36.063c7.395,-12.508 23.554,-16.659 36.063,-9.264Z" style="fill:#fff;"/><path d="M1399.39,318.821c12.508,7.395 16.659,23.555 9.264,36.063c-7.395,12.508 -23.554,16.659 -36.063,9.264c-12.508,-7.396 -16.659,-23.555 -9.264,-36.063c7.396,-12.508 23.555,-16.659 36.063,-9.264Z" style="fill:#fff;"/><path d="M1986.71,132.846c12.509,7.395 16.66,23.554 9.264,36.063c-7.395,12.508 -23.554,16.659 -36.062,9.263c-12.509,-7.395 -16.66,-23.554 -9.264,-36.062c7.395,-12.508 23.554,-16.659 36.062,-9.264Z" style="fill:#fff;"/><path d="M782.72,172.747c12.509,7.395 16.66,23.554 9.264,36.062c-7.395,12.509 -23.554,16.66 -36.062,9.264c-12.509,-7.395 -16.66,-23.554 -9.264,-36.062c7.395,-12.508 23.554,-16.659 36.062,-9.264Z" style="fill:#fff;"/><path d="M2064.02,695.877c12.508,7.395 16.659,23.554 9.264,36.062c-7.395,12.509 -23.554,16.66 -36.063,9.264c-12.508,-7.395 -16.659,-23.554 -9.263,-36.062c7.395,-12.508 23.554,-16.659 36.062,-9.264Z" style="fill:#fff;"/><path d="M1885.6,469.319c12.508,7.395 16.659,23.554 9.264,36.062c-7.395,12.509 -23.554,16.66 -36.063,9.264c-12.508,-7.395 -16.659,-23.554 -9.263,-36.062c7.395,-12.508 23.554,-16.659 36.062,-9.264Z" style="fill:#fff;"/><path d="M2445.2,502.521c12.509,7.396 16.66,23.555 9.264,36.063c-7.395,12.508 -23.554,16.659 -36.062,9.264c-12.508,-7.395 -16.659,-23.555 -9.264,-36.063c7.395,-12.508 23.554,-16.659 36.062,-9.264Z" style="fill:#fff;"/><path d="M2093.26,566.02c12.508,7.396 16.659,23.555 9.264,36.063c-7.396,12.508 -23.555,16.659 -36.063,9.264c-12.508,-7.395 -16.659,-23.554 -9.264,-36.063c7.395,-12.508 23.555,-16.659 36.063,-9.264Z" style="fill:#fff;"/><path d="M1806.98,356.342c12.508,7.395 16.659,23.554 9.264,36.062c-7.395,12.509 -23.555,16.66 -36.063,9.264c-12.508,-7.395 -16.659,-23.554 -9.264,-36.062c7.396,-12.509 23.555,-16.66 36.063,-9.264Z" style="fill:#fff;"/><path d="M2679.9,284.142c12.509,7.395 16.66,23.555 9.264,36.063c-7.395,12.508 -23.554,16.659 -36.062,9.264c-12.508,-7.396 -16.659,-23.555 -9.264,-36.063c7.395,-12.508 23.554,-16.659 36.062,-9.264Z" style="fill:#fff;"/><path d="M2923.65,290.632c12.508,7.395 16.659,23.554 9.263,36.062c-7.395,12.508 -23.554,16.659 -36.062,9.264c-12.508,-7.395 -16.659,-23.554 -9.264,-36.062c7.395,-12.509 23.554,-16.66 36.063,-9.264Z" style="fill:#fff;"/><path d="M2465.18,401.442c12.508,7.395 16.659,23.554 9.264,36.062c-7.396,12.508 -23.555,16.659 -36.063,9.264c-12.508,-7.395 -16.659,-23.554 -9.264,-36.063c7.395,-12.508 23.554,-16.659 36.063,-9.263Z" style="fill:#fff;"/><path d="M1608.18,422.248c12.508,7.395 16.659,23.554 9.264,36.063c-7.395,12.508 -23.554,16.659 -36.062,9.264c-12.509,-7.396 -16.66,-23.555 -9.264,-36.063c7.395,-12.508 23.554,-16.659 36.062,-9.264Z" style="fill:#fff;"/><path d="M2209.86,479.343c13.577,5.179 20.395,20.406 15.217,33.983c-5.179,13.577 -20.406,20.395 -33.983,15.216c-13.577,-5.179 -20.395,-20.406 -15.216,-33.982c5.179,-13.577 20.406,-20.395 33.982,-15.217Z" style="fill:#fff;"/><path d="M1119.67,271.731c13.577,5.179 20.395,20.406 15.216,33.983c-5.178,13.576 -20.405,20.395 -33.982,15.216c-13.577,-5.179 -20.395,-20.406 -15.216,-33.982c5.179,-13.577 20.406,-20.395 33.982,-15.217Z" style="fill:#fff;"/><path d="M2203.7,726.596c-3.059,-8.486 -12.432,-12.892 -20.919,-9.833c-8.486,3.059 -12.892,12.432 -9.833,20.918c3.059,8.487 12.432,12.893 20.918,9.834c8.487,-3.059 12.893,-12.433 9.834,-20.919Z" style="fill:#fff;"/><path d="M1984.12,423.78c-3.059,-8.486 -12.432,-12.892 -20.918,-9.833c-8.486,3.059 -12.892,12.432 -9.833,20.918c3.059,8.486 12.432,12.893 20.918,9.834c8.486,-3.059 12.892,-12.433 9.833,-20.919Z" style="fill:#fff;"/><path d="M1983.99,621.969c-3.059,-8.486 -12.432,-12.892 -20.918,-9.833c-8.486,3.059 -12.893,12.432 -9.834,20.918c3.059,8.486 12.433,12.892 20.919,9.833c8.486,-3.059 12.892,-12.432 9.833,-20.918Z" style="fill:#fff;"/><path d="M1262.6,401.864c-3.059,-8.486 -12.432,-12.892 -20.919,-9.833c-8.486,3.059 -12.892,12.432 -9.833,20.918c3.059,8.487 12.432,12.893 20.918,9.834c8.487,-3.059 12.893,-12.433 9.834,-20.919Z" style="fill:#fff;"/><path d="M2470.25,667.73c-8.163,-3.837 -17.907,-0.325 -21.744,7.839c-3.838,8.163 -0.326,17.907 7.838,21.745c8.164,3.837 17.907,0.325 21.745,-7.839c3.837,-8.164 0.325,-17.907 -7.839,-21.745Z" style="fill:#fff;"/><path d="M2043.06,350.795c3.837,-8.164 0.325,-17.907 -7.839,-21.745c-8.164,-3.837 -17.907,-0.325 -21.745,7.839c-3.837,8.163 -0.325,17.907 7.839,21.744c8.163,3.838 17.907,0.326 21.745,-7.838Z" style="fill:#fff;"/><path d="M1228.52,347.103c3.838,-8.164 0.325,-17.907 -7.838,-21.745c-8.164,-3.838 -17.908,-0.325 -21.745,7.838c-3.838,8.164 -0.325,17.908 7.838,21.745c8.164,3.838 17.907,0.325 21.745,-7.838Z" style="fill:#fff;"/><path d="M1848.5,272.737c3.837,-8.164 0.325,-17.908 -7.839,-21.745c-8.163,-3.838 -17.907,-0.326 -21.745,7.838c-3.837,8.164 -0.325,17.907 7.839,21.745c8.163,3.837 17.907,0.325 21.745,-7.838Z" style="fill:#fff;"/><path d="M1033.96,269.044c3.838,-8.164 0.325,-17.907 -7.838,-21.745c-8.164,-3.837 -17.908,-0.325 -21.745,7.839c-3.838,8.163 -0.325,17.907 7.838,21.745c8.164,3.837 17.907,0.325 21.745,-7.839Z" style="fill:#fff;"/><path d="M2584.53,570.287c8.713,-2.334 17.683,2.844 20.018,11.558c2.335,8.713 -2.844,17.682 -11.557,20.017c-8.714,2.335 -17.683,-2.844 -20.018,-11.557c-2.335,-8.713 2.844,-17.683 11.557,-20.018Z" style="fill:#fff;"/><path d="M2255.55,443.55c2.335,8.713 -2.844,17.683 -11.557,20.018c-8.713,2.334 -17.683,-2.844 -20.018,-11.558c-2.335,-8.713 2.844,-17.683 11.557,-20.017c8.714,-2.335 17.683,2.844 20.018,11.557Z" style="fill:#fff;"/><path d="M2301.26,376.689c2.335,8.714 -2.844,17.683 -11.557,20.018c-8.714,2.335 -17.683,-2.844 -20.018,-11.557c-2.335,-8.714 2.844,-17.683 11.557,-20.018c8.714,-2.335 17.683,2.844 20.018,11.557Z" style="fill:#fff;"/><path d="M1486.73,372.997c2.335,8.713 -2.843,17.683 -11.557,20.018c-8.713,2.334 -17.683,-2.844 -20.017,-11.558c-2.335,-8.713 2.843,-17.683 11.557,-20.017c8.713,-2.335 17.683,2.843 20.017,11.557Z" style="fill:#fff;"/><path d="M1924.27,131.803c2.335,8.714 -2.844,17.683 -11.557,20.018c-8.714,2.335 -17.683,-2.844 -20.018,-11.557c-2.335,-8.713 2.844,-17.683 11.557,-20.018c8.714,-2.334 17.683,2.844 20.018,11.557Z" style="fill:#fff;"/><path d="M1240.72,169.611c2.335,8.713 -2.844,17.683 -11.557,20.018c-8.713,2.335 -17.683,-2.844 -20.018,-11.557c-2.334,-8.714 2.844,-17.683 11.557,-20.018c8.714,-2.335 17.683,2.844 20.018,11.557Z" style="fill:#fff;"/><path d="M1676.03,441.925c3.838,-8.164 0.325,-17.907 -7.838,-21.745c-8.164,-3.838 -17.907,-0.325 -21.745,7.838c-3.838,8.164 -0.325,17.908 7.838,21.745c8.164,3.838 17.908,0.326 21.745,-7.838Z" style="fill:#fff;"/><path d="M1068.81,203.184c3.837,-8.164 0.325,-17.907 -7.839,-21.745c-8.163,-3.837 -17.907,-0.325 -21.745,7.839c-3.837,8.163 -0.325,17.907 7.839,21.744c8.163,3.838 17.907,0.326 21.745,-7.838Z" style="fill:#fff;"/><path d="M1522.83,577.61c3.837,-8.164 0.325,-17.908 -7.839,-21.745c-8.163,-3.838 -17.907,-0.325 -21.744,7.838c-3.838,8.164 -0.326,17.907 7.838,21.745c8.164,3.838 17.907,0.325 21.745,-7.838Z" style="fill:#fff;"/><path d="M1886.03,688.412c-0.759,-8.989 5.923,-16.902 14.912,-17.661c8.989,-0.759 16.902,5.923 17.661,14.912c0.759,8.989 -5.923,16.902 -14.912,17.661c-8.989,0.759 -16.902,-5.923 -17.661,-14.912Z" style="fill:#fff;"/><path d="M2077.42,416.501c-0.759,-8.989 5.923,-16.903 14.911,-17.661c8.989,-0.759 16.903,5.923 17.661,14.911c0.759,8.989 -5.923,16.903 -14.911,17.662c-8.989,0.758 -16.903,-5.924 -17.661,-14.912Z" style="fill:#fff;"/><path d="M2371.36,334.727c8.879,1.594 14.794,10.096 13.2,18.975c-1.593,8.879 -10.096,14.793 -18.974,13.2c-8.879,-1.594 -14.794,-10.096 -13.2,-18.975c1.593,-8.879 10.096,-14.794 18.974,-13.2Z" style="fill:#fff;"/><path d="M1556.83,331.035c8.879,1.593 14.793,10.096 13.2,18.974c-1.594,8.879 -10.096,14.794 -18.975,13.2c-8.879,-1.593 -14.793,-10.096 -13.2,-18.975c1.594,-8.878 10.096,-14.793 18.975,-13.199Z" style="fill:#fff;"/><path d="M2464.27,163.162c-3.837,8.164 -13.581,11.677 -21.745,7.839c-8.163,-3.837 -11.676,-13.58 -7.839,-21.744c3.838,-8.164 13.581,-11.677 21.745,-7.839c8.164,3.837 11.676,13.581 7.839,21.744Z" style="fill:#fff;"/><path d="M1583.65,99.414c-3.837,8.164 -13.58,11.676 -21.744,7.839c-8.164,-3.838 -11.677,-13.581 -7.839,-21.745c3.837,-8.164 13.581,-11.676 21.744,-7.839c8.164,3.838 11.677,13.581 7.839,21.745Z" style="fill:#fff;"/><path d="M2284.61,198.753c-3.837,8.164 -13.58,11.676 -21.744,7.839c-8.164,-3.837 -11.676,-13.581 -7.839,-21.745c3.837,-8.163 13.581,-11.676 21.744,-7.839c8.164,3.838 11.677,13.581 7.839,21.745Z" style="fill:#fff;"/><path d="M1673.05,147.309c-3.838,8.164 -13.581,11.676 -21.745,7.839c-8.164,-3.837 -11.676,-13.581 -7.839,-21.745c3.837,-8.163 13.581,-11.676 21.745,-7.839c8.163,3.838 11.676,13.581 7.839,21.745Z" style="fill:#fff;"/><path d="M2188.03,192.742c-3.837,8.163 -13.58,11.676 -21.744,7.839c-8.164,-3.838 -11.677,-13.581 -7.839,-21.745c3.837,-8.164 13.58,-11.676 21.744,-7.839c8.164,3.837 11.677,13.581 7.839,21.745Z" style="fill:#fff;"/><path d="M1373.5,189.049c-3.838,8.164 -13.581,11.677 -21.745,7.839c-8.164,-3.837 -11.676,-13.581 -7.839,-21.744c3.838,-8.164 13.581,-11.677 21.745,-7.839c8.164,3.837 11.676,13.58 7.839,21.744Z" style="fill:#fff;"/><path d="M1774.7,168.984c-3.837,8.164 -13.581,11.676 -21.744,7.839c-8.164,-3.837 -11.677,-13.581 -7.839,-21.745c3.837,-8.163 13.58,-11.676 21.744,-7.839c8.164,3.838 11.677,13.581 7.839,21.745Z" style="fill:#fff;"/><path d="M960.172,165.292c-3.838,8.163 -13.581,11.676 -21.745,7.839c-8.164,-3.838 -11.676,-13.581 -7.839,-21.745c3.837,-8.164 13.581,-11.676 21.745,-7.839c8.164,3.837 11.676,13.581 7.839,21.745Z" style="fill:#fff;"/><path d="M1710.65,244.496c-3.837,8.164 -13.581,11.676 -21.745,7.839c-8.163,-3.837 -11.676,-13.581 -7.839,-21.745c3.838,-8.164 13.581,-11.676 21.745,-7.839c8.164,3.838 11.676,13.581 7.839,21.745Z" style="fill:#fff;"/><path d="M1370.57,115.334c-3.838,8.164 -13.581,11.676 -21.745,7.839c-8.164,-3.837 -11.676,-13.581 -7.839,-21.745c3.837,-8.163 13.581,-11.676 21.745,-7.839c8.163,3.838 11.676,13.581 7.839,21.745Z" style="fill:#fff;"/><path d="M1539.89,305.862c-3.838,8.164 -13.581,11.677 -21.745,7.839c-8.164,-3.837 -11.676,-13.58 -7.839,-21.744c3.837,-8.164 13.581,-11.677 21.745,-7.839c8.163,3.837 11.676,13.58 7.839,21.744Z" style="fill:#fff;"/><path d="M1447.3,93.257c-3.837,8.164 -13.581,11.676 -21.745,7.839c-8.164,-3.837 -11.676,-13.581 -7.839,-21.745c3.838,-8.163 13.581,-11.676 21.745,-7.839c8.164,3.838 11.676,13.581 7.839,21.745Z" style="fill:#fff;"/><path d="M1370.49,496.99c-3.837,8.163 -13.58,11.676 -21.744,7.839c-8.164,-3.838 -11.677,-13.581 -7.839,-21.745c3.837,-8.164 13.58,-11.676 21.744,-7.839c8.164,3.837 11.677,13.581 7.839,21.745Z" style="fill:#fff;"/><path d="M1695.4,498.871c-0.759,-8.989 5.923,-16.902 14.911,-17.661c8.989,-0.759 16.903,5.923 17.662,14.912c0.758,8.989 -5.924,16.902 -14.912,17.661c-8.989,0.759 -16.903,-5.923 -17.661,-14.912Z" style="fill:#fff;"/><path d="M2562.18,468.636c-8.164,-3.838 -17.907,-0.326 -21.745,7.838c-3.837,8.164 -0.325,17.907 7.839,21.745c8.163,3.837 17.907,0.325 21.744,-7.839c3.838,-8.163 0.326,-17.907 -7.838,-21.744Z" style="fill:#fff;"/><path d="M2399.89,462.846c3.837,-8.164 0.325,-17.907 -7.839,-21.745c-8.163,-3.837 -17.907,-0.325 -21.744,7.839c-3.838,8.163 -0.326,17.907 7.838,21.744c8.164,3.838 17.907,0.326 21.745,-7.838Z" style="fill:#fff;"/><path d="M2184.11,638.261c3.838,-8.164 0.326,-17.907 -7.838,-21.745c-8.164,-3.837 -17.907,-0.325 -21.745,7.839c-3.837,8.163 -0.325,17.907 7.839,21.744c8.163,3.838 17.907,0.326 21.744,-7.838Z" style="fill:#fff;"/><path d="M2294.26,296.015c3.837,-8.164 0.325,-17.907 -7.839,-21.745c-8.163,-3.837 -17.907,-0.325 -21.745,7.839c-3.837,8.163 -0.325,17.907 7.839,21.744c8.163,3.838 17.907,0.326 21.745,-7.838Z" style="fill:#fff;"/><path d="M2274.33,562.932c3.837,-8.163 0.325,-17.907 -7.839,-21.745c-8.163,-3.837 -17.907,-0.325 -21.745,7.839c-3.837,8.163 -0.325,17.907 7.839,21.745c8.163,3.837 17.907,0.325 21.745,-7.839Z" style="fill:#fff;"/><path d="M2183.43,272.221c3.837,-8.164 0.325,-17.908 -7.839,-21.745c-8.163,-3.838 -17.907,-0.325 -21.744,7.838c-3.838,8.164 -0.326,17.907 7.838,21.745c8.164,3.838 17.907,0.325 21.745,-7.838Z" style="fill:#fff;"/><path d="M3072.25,358.359c3.838,-8.163 0.325,-17.907 -7.838,-21.745c-8.164,-3.837 -17.907,-0.325 -21.745,7.839c-3.838,8.163 -0.325,17.907 7.838,21.745c8.164,3.837 17.907,0.325 21.745,-7.839Z" style="fill:#fff;"/><path d="M871.332,258.803c-8.163,-3.838 -17.907,-0.325 -21.744,7.838c-3.838,8.164 -0.326,17.907 7.838,21.745c8.164,3.838 17.907,0.325 21.745,-7.838c3.837,-8.164 0.325,-17.908 -7.839,-21.745Z" style="fill:#fff;"/><path d="M2794.79,276.424c8.714,-2.335 17.683,2.844 20.018,11.557c2.335,8.713 -2.844,17.683 -11.557,20.018c-8.714,2.335 -17.683,-2.844 -20.018,-11.557c-2.335,-8.714 2.844,-17.683 11.557,-20.018Z" style="fill:#fff;"/><path d="M2651.94,538.774c-8.164,-3.838 -17.908,-0.325 -21.745,7.838c-3.838,8.164 -0.326,17.908 7.838,21.745c8.164,3.838 17.907,0.326 21.745,-7.838c3.837,-8.164 0.325,-17.907 -7.838,-21.745Z" style="fill:#fff;"/><path d="M1919.28,384.532c3.837,-8.164 0.325,-17.907 -7.839,-21.745c-8.163,-3.837 -17.907,-0.325 -21.745,7.839c-3.837,8.163 -0.325,17.907 7.839,21.745c8.163,3.837 17.907,0.325 21.745,-7.839Z" style="fill:#fff;"/><path d="M1959.13,490.346c3.837,-8.163 0.325,-17.907 -7.839,-21.744c-8.163,-3.838 -17.907,-0.326 -21.745,7.838c-3.837,8.164 -0.325,17.907 7.839,21.745c8.164,3.837 17.907,0.325 21.745,-7.839Z" style="fill:#fff;"/><path d="M1104.74,380.84c3.838,-8.164 0.325,-17.907 -7.838,-21.745c-8.164,-3.838 -17.907,-0.325 -21.745,7.838c-3.838,8.164 -0.325,17.908 7.838,21.745c8.164,3.838 17.908,0.326 21.745,-7.838Z" style="fill:#fff;"/><path d="M1859.65,597.614c3.838,-8.164 0.326,-17.908 -7.838,-21.745c-8.164,-3.838 -17.907,-0.325 -21.745,7.838c-3.838,8.164 -0.325,17.907 7.838,21.745c8.164,3.838 17.908,0.325 21.745,-7.838Z" style="fill:#fff;"/><path d="M2493.6,282.839c6.893,5.819 17.213,4.949 23.033,-1.944c5.82,-6.892 4.949,-17.212 -1.943,-23.032c-6.893,-5.82 -17.213,-4.949 -23.033,1.943c-5.82,6.892 -4.949,17.213 1.943,23.033Z" style="fill:#fff;"/><path d="M2543,352.619c-5.82,6.892 -4.949,17.213 1.943,23.033c6.892,5.819 17.213,4.949 23.033,-1.944c5.819,-6.892 4.949,-17.212 -1.944,-23.032c-6.892,-5.82 -17.213,-4.949 -23.032,1.943Z" style="fill:#fff;"/><path d="M2416.67,234.609c-7.406,5.151 -9.236,15.345 -4.085,22.75c5.152,7.406 15.346,9.236 22.751,4.085c7.405,-5.152 9.236,-15.346 4.084,-22.751c-5.151,-7.406 -15.345,-9.236 -22.75,-4.084Z" style="fill:#fff;"/><path d="M1602.14,230.916c-7.405,5.151 -9.235,15.346 -4.084,22.751c5.151,7.405 15.345,9.235 22.751,4.084c7.405,-5.151 9.235,-15.345 4.084,-22.751c-5.151,-7.405 -15.346,-9.235 -22.751,-4.084Z" style="fill:#fff;"/><path d="M315.374,369.392c15.768,-0.336 31.656,1.307 47.353,2.555c50.997,4.056 101.815,13.285 152.266,21.553c145.874,23.905 292.2,60.51 430.883,111.687c191.384,70.624 374.549,169.462 549.413,274.062c70.719,42.303 187.066,127.942 297.94,192.18c76.359,44.241 150.423,78.116 206.123,82.878c57.073,4.88 125.391,-13.823 194.733,-42.344c100.162,-41.197 202.791,-102.566 275.335,-136.227c331.114,-153.641 573.048,-322.089 923.752,-427.781c8.808,-2.654 13.803,-11.959 11.149,-20.767c-2.654,-8.807 -11.96,-13.803 -20.767,-11.148c-352.327,106.18 -595.519,275.107 -928.165,429.459c-72.196,33.5 -174.301,94.637 -273.984,135.637c-63.889,26.278 -126.627,44.456 -179.214,39.959c-52.064,-4.451 -120.875,-37.154 -192.252,-78.508c-110.728,-64.154 -226.912,-149.696 -297.538,-191.944c-176.623,-105.652 -361.676,-205.394 -554.986,-276.728c-140.664,-51.908 -289.073,-89.063 -437.032,-113.31c-51.359,-8.417 -103.099,-17.757 -155.013,-21.886c-16.808,-1.337 -33.824,-3.013 -50.707,-2.652c-9.197,0.196 -16.504,7.822 -16.307,17.018c0.196,9.197 7.822,16.504 17.018,16.307Z" style="fill:#7e4021;"/><path d="M3433.11,503.866c-4.948,1.744 -38.992,13.748 -40.865,14.541c-142.529,60.329 -281.256,127.867 -417.705,200.892c-104.376,55.861 -207.027,114.161 -307.726,176.444c-85.094,52.63 -276.202,191.863 -431.331,269.497c-63.669,31.863 -120.777,53.6 -161.065,52.652c-51.145,-1.203 -102.568,-32.238 -152.582,-67.66c-53.652,-37.998 -105.496,-81.449 -152.765,-105.084c-8.227,-4.114 -18.247,-0.774 -22.36,7.454c-4.114,8.227 -0.774,18.247 7.453,22.36c55.505,27.753 117.243,83.74 181.013,124.535c45.618,29.184 92.371,50.635 138.457,51.719c44.098,1.038 107.077,-21.291 176.767,-56.167c156.042,-78.091 348.352,-218.017 433.947,-270.957c100.108,-61.917 202.158,-119.871 305.921,-175.403c135.556,-72.548 273.372,-139.651 414.97,-199.585c2.113,-0.895 36.421,-12.169 43.335,-15.615c9.459,-4.714 10.273,-12.753 10.387,-14.808c0.512,-9.185 -6.529,-17.056 -15.714,-17.568c-3.73,-0.208 -7.245,0.831 -10.137,2.753Z" style="fill:#7e4021;"/><path d="M1901.21,1320.59c26.259,9.157 55.407,30.811 84.901,45.915c22.964,11.76 46.202,19.683 68.478,18.363c21.763,-1.29 55.028,-11.87 92.702,-27.453c83.176,-34.402 189.615,-92.75 236.535,-115.168c8.3,-3.965 11.819,-13.923 7.854,-22.223c-3.966,-8.3 -13.924,-11.819 -22.224,-7.854c-46.602,22.266 -152.293,80.273 -234.905,114.443c-33.378,13.806 -62.652,23.837 -81.934,24.98c-21.487,1.273 -43.69,-10.042 -65.723,-22.591c-25.951,-14.781 -51.478,-31.786 -74.708,-39.887c-8.686,-3.028 -18.196,1.564 -21.225,10.25c-3.029,8.685 1.563,18.196 10.249,21.225Z" style="fill:#7e4021;"/><path d="M2532.99,1167.42c23.386,-15.665 48.796,-28.745 73.044,-43.005c51.587,-30.338 101.674,-62.881 152.075,-95.138c155.532,-99.54 391.784,-230.53 554.485,-318.441c8.093,-4.372 11.113,-14.493 6.74,-22.586c-4.373,-8.092 -14.493,-11.113 -22.586,-6.74c-163.327,88.25 -400.477,219.768 -556.608,319.692c-50.047,32.03 -99.778,64.355 -151.004,94.48c-24.806,14.588 -50.772,28.018 -74.697,44.044c-7.643,5.119 -9.691,15.48 -4.572,23.122c5.119,7.643 15.48,9.691 23.123,4.572Z" style="fill:#7e4021;"/><path d="M3548.85,538.305c9.575,9.157 10.223,21.117 8.262,33.897c-6.901,44.976 -40.251,80.559 -71.456,111.25c-113.171,111.304 -256.939,190.328 -393.593,268.579c-247.08,141.483 -496.813,280.155 -745.881,418.053c-44.695,24.746 -121.707,71.681 -195.448,103.565c-46.595,20.146 -91.641,34.614 -125.454,31.682c-23.985,-2.079 -57.61,-16.898 -95.063,-37.403c-92.435,-50.606 -205.785,-136.796 -256.879,-176.742c-7.247,-5.666 -17.73,-4.382 -23.396,2.865c-5.665,7.246 -4.382,17.729 2.865,23.395c51.982,40.64 167.362,128.235 261.403,179.721c42.466,23.249 80.995,39.015 108.19,41.373c38.064,3.3 89.111,-11.617 141.562,-34.295c74.825,-32.352 153.015,-79.89 198.366,-104.999c249.207,-137.975 499.08,-276.726 746.299,-418.289c139.101,-79.652 285.204,-160.442 400.402,-273.74c36.145,-35.548 73.037,-77.864 81.031,-129.959c3.688,-24.034 -0.166,-45.824 -18.172,-63.043c-6.648,-6.358 -17.207,-6.122 -23.565,0.526c-6.357,6.648 -6.121,17.207 0.527,23.564Z" style="fill:#7e4021;"/><path d="M1782.15,1202.33c-31.433,-30.266 -70.163,-54.89 -105.347,-80.418c-111.128,-80.63 -223.551,-164.249 -340.861,-235.828c-7.852,-4.791 -18.117,-2.306 -22.908,5.546c-4.791,7.853 -2.306,18.117 5.546,22.909c116.557,71.119 228.233,154.24 338.648,234.353c33.957,24.638 71.464,48.238 101.801,77.449c6.626,6.381 17.186,6.181 23.566,-0.445c6.38,-6.626 6.181,-17.186 -0.445,-23.566Z" style="fill:#7e4021;"/><path d="M1640.58,967.805c-6.956,-8.592 -16.617,-15.362 -25.457,-21.768c-8.978,-6.505 -18.055,-12.873 -27.127,-19.245c-30.746,-21.596 -61.937,-42.484 -93.706,-62.548c-96.795,-61.134 -196.536,-116.792 -295.32,-174.523c-7.942,-4.642 -18.158,-1.962 -22.799,5.98c-4.641,7.942 -1.962,18.158 5.98,22.799c98.453,57.538 197.868,112.997 294.339,173.926c31.309,19.774 62.046,40.361 92.347,61.643c8.938,6.278 17.883,12.552 26.728,18.961c6.535,4.735 13.965,9.397 19.107,15.749c5.788,7.149 16.292,8.255 23.441,2.467c7.15,-5.788 8.255,-16.292 2.467,-23.441Z" style="fill:#7e4021;"/><path d="M1550.08,1210.13c-9.892,-7.54 -19.992,-14.76 -30.177,-21.897c-31.309,-21.937 -62.445,-44.094 -94.353,-65.161c-90.007,-59.427 -183.99,-111.143 -279.763,-160.595c-194.007,-100.173 -370.188,-222.813 -559.167,-330.801c-51.689,-29.536 -112.774,-48.968 -171.483,-71.86c-55.626,-21.69 -109.153,-46.432 -148.945,-87.955c-6.365,-6.641 -16.924,-6.866 -23.565,-0.501c-6.641,6.364 -6.866,16.923 -0.501,23.565c43.096,44.97 100.657,72.456 160.902,95.947c57.161,22.288 116.728,40.988 167.054,69.746c189.391,108.223 365.982,231.086 560.412,331.477c94.716,48.906 187.676,100.023 276.689,158.794c31.652,20.898 62.535,42.883 93.593,64.644c9.82,6.88 19.56,13.838 29.097,21.107c7.316,5.576 17.782,4.164 23.358,-3.152c5.577,-7.316 4.164,-17.782 -3.151,-23.358Z" style="fill:#7e4021;"/><path d="M1196.63,889.817c1.9,2.154 4.383,3.84 7.309,4.792c8.748,2.846 18.16,-1.946 21.005,-10.693c0.766,-2.354 2.941,-10.775 -5.229,-18.285c-4.45,-4.09 -28.374,-19.549 -29.974,-20.67c-24.458,-17.138 -49.609,-33.327 -74.313,-50.115c-115.259,-78.328 -236.285,-147.915 -360.324,-211.344c-8.19,-4.188 -18.239,-0.939 -22.427,7.25c-4.188,8.19 -0.939,18.24 7.251,22.428c122.81,62.8 242.646,131.684 356.764,209.236c24.573,16.698 49.593,32.797 73.921,49.844c1.286,0.901 22.392,15.116 26.017,17.557Z" style="fill:#7e4021;"/><path d="M568.773,489.407c33.651,1.807 86.514,12.194 122.024,19.692c128.18,27.064 244.319,92.47 354.591,160.415c7.832,4.826 18.107,2.385 22.933,-5.446c4.825,-7.831 2.385,-18.107 -5.447,-22.932c-113.503,-69.937 -233.255,-136.794 -365.191,-164.652c-44.174,-9.327 -113.875,-22.458 -145.669,-20.446c-14.107,0.893 -23.209,5.83 -27.159,10.693c-5.872,7.228 -9.166,19.395 5.279,34.137c12.925,13.19 49.481,35.598 122.992,70.087c8.327,3.907 18.26,0.318 22.167,-8.01c3.907,-8.327 0.318,-18.26 -8.009,-22.167c-49.362,-23.16 -80.759,-39.591 -98.511,-51.371Z" style="fill:#7e4021;"/></g></svg>