<?xml version="1.0" encoding="UTF-8" standalone="no"?><!DOCTYPE svg PUBLIC "-//W3C//DTD SVG 1.1//EN" "http://www.w3.org/Graphics/SVG/1.1/DTD/svg11.dtd"><svg width="100%" height="100%" viewBox="0 0 2374 2017" version="1.1" xmlns="http://www.w3.org/2000/svg" xmlns:xlink="http://www.w3.org/1999/xlink" xml:space="preserve" xmlns:serif="http://www.serif.com/" style="fill-rule:evenodd;clip-rule:evenodd;stroke-linejoin:round;stroke-miterlimit:2;"><g id="Swiss-roll-Slice-Chocolate" serif:id="Swiss roll-Slice-Chocolate"><path d="M759.955,1942.22c-199.103,-67.314 -398.288,-202.017 -588.892,-318.341c-221.039,-134.899 -230.654,-693.797 149.231,-1179.56c302.785,-387.169 710.055,-482.934 927.445,-399.863c359.616,130.803 739.27,242.028 973.346,549.376c217.246,285.25 104.996,964.947 -111.143,1155.89c-167.519,147.992 -1009.38,307.646 -1349.99,192.491Z" style="fill:#c48464;"/><path d="M754.617,1958.01c206.367,69.77 594.972,40.416 909.358,-27.131c211.193,-45.376 388.82,-108.425 457.001,-168.659c110.247,-97.395 195.115,-318.989 223.602,-553.058c28.484,-234.055 0.57,-479.934 -110.234,-625.422c-236.002,-309.876 -618.207,-423.022 -980.787,-554.896c-221.646,-84.598 -637.785,10.6 -946.391,405.214c-230.921,295.277 -319.336,617.39 -305.107,857.228c9.755,164.429 68.205,290.602 160.322,346.82c191.652,116.964 392.037,252.22 592.236,319.904l0,0Zm10.676,-31.577c-198.007,-66.944 -395.993,-201.096 -585.548,-316.78c-84.716,-51.702 -135.44,-169.122 -144.411,-320.341c-13.861,-233.629 73.147,-547.087 298.089,-834.72c296.904,-379.65 695.199,-476.019 908.366,-394.561c0.084,0.032 0.168,0.063 0.253,0.094c356.617,129.712 733.659,239.026 965.784,543.811c106.443,139.763 131.026,376.355 103.662,601.199c-27.361,224.828 -106.687,438.554 -212.581,532.104c-65.834,58.161 -238.01,117.237 -441.934,161.05c-308.29,66.238 -689.314,96.56 -891.68,28.144l-0,-0Z" style="fill:#7e4021;"/><path d="M101.454,1042.56c-8.748,36.936 -24.559,126.858 -23.077,164.9c0.359,9.192 8.112,16.363 17.303,16.005c9.192,-0.358 16.364,-8.111 16.006,-17.303c-1.402,-35.982 13.93,-120.984 22.204,-155.92c2.12,-8.951 -3.426,-17.939 -12.377,-20.059c-8.951,-2.12 -17.939,3.426 -20.059,12.377Z" style="fill:#7e4021;"/><path d="M77.539,1268.35c2.941,32.209 3.074,81.14 4.272,96.111c0.733,9.17 8.773,16.019 17.942,15.285c9.17,-0.734 16.018,-8.773 15.285,-17.943c-1.203,-15.03 -1.351,-64.15 -4.304,-96.484c-0.837,-9.161 -8.953,-15.919 -18.114,-15.082c-9.16,0.837 -15.918,8.953 -15.081,18.113Z" style="fill:#7e4021;"/><path d="M2184.18,1685.59c-226.297,315.621 -1263.86,431.206 -1620.23,169.181c-178.189,-131.017 -249.101,-777.649 219.514,-1273.6c326.533,-345.584 889.805,-391.913 1131.17,-255.978c118.365,66.662 221.004,156.467 306.441,268.648c217.246,285.25 149.953,831.143 -36.902,1091.75Z" style="fill:#9d5e3e;"/><path d="M2197.73,1695.3c113.893,-158.849 184.445,-421.93 174.686,-669.652c-6.546,-166.164 -49.248,-325.286 -138.07,-441.911c-86.849,-114.035 -191.199,-205.308 -311.521,-273.072c-98.777,-55.629 -250.158,-81.954 -417.743,-70.252c-249.463,17.419 -534.809,118.784 -733.724,329.305c-332.628,352.035 -396.666,779.104 -343.487,1049.13c23.487,119.26 70.353,208.276 126.214,249.349c87.341,64.219 214.615,106.608 361.025,128.911c216.826,33.03 475.86,22.349 706.893,-23.813c259.534,-51.857 483.456,-149.303 575.726,-277.995l0.001,-0Zm-27.09,-19.423c-88.768,123.806 -305.488,214.843 -555.168,264.731c-227.259,45.408 -482.058,56.037 -695.342,23.547c-140.33,-21.378 -262.585,-61.261 -346.299,-122.813c-51.053,-37.538 -91.789,-119.94 -113.255,-228.935c-51.709,-262.562 11.577,-677.492 335.01,-1019.8c192.924,-204.179 469.87,-302.051 711.818,-318.946c160.022,-11.173 304.745,12.926 399.063,66.044c116.409,65.56 217.336,153.898 301.361,264.224c84.975,111.575 125.018,264.059 131.28,423.028c9.454,239.978 -58.135,495.032 -168.468,648.916l-0,-0Z" style="fill:#7e4021;"/><path d="M1474.6,1969.15c259.572,-77.218 512.263,-318.906 613.716,-575.509c162.705,-411.522 -21.659,-758.269 -356.078,-837.597c-271.061,-64.298 -616.515,43.641 -820.679,263.804c-129.746,139.914 -177.897,296.249 -167.888,481.188c5.364,99.117 94.648,229.037 254.082,248.292c208.842,25.223 604.756,-97.18 588.3,-358.645c-2.596,-41.248 -21.432,-72.389 -55.81,-95.028c-90.165,-59.377 -166.795,50.444 -252.949,109.621c-74.551,51.206 -160.331,46.302 -189.252,-52.551c-73.195,-250.176 482.066,-383.464 654.578,-248.032c65.952,51.777 112.9,131.105 118.491,213.687c8.692,128.369 -57.448,244.072 -150.503,327.821c-84.541,76.087 -184.886,157.116 -279.006,219.908c-105.748,70.55 -323.402,199.32 -495.716,315.865c165.744,31.88 434.732,18.109 538.714,-12.824Z" style="fill:#fff;"/><path d="M1479.35,1985.13c264.069,-78.556 521.253,-324.308 624.464,-585.356c167.196,-422.882 -24.081,-778.424 -367.732,-859.941c-276.34,-65.551 -628.605,44.236 -836.745,268.687c-133.059,143.485 -182.575,303.763 -172.31,493.422c5.687,105.09 99.684,243.522 268.726,263.938c128.489,15.518 326.05,-23.401 459.884,-114.977c92.06,-62.992 154.012,-150.608 147.048,-261.262c-2.947,-46.817 -24.257,-82.204 -63.277,-107.901c-51.527,-33.932 -99.296,-20.952 -146.383,10.4c-41.259,27.472 -82.028,69.77 -125.169,99.403c-39.217,26.936 -81.696,37.692 -115.107,22.044c-21.758,-10.191 -38.805,-31.672 -48.713,-65.537c-27.048,-92.449 41.544,-165.85 140.498,-214.767c93.985,-46.461 216.278,-70.447 320.866,-65.115c67.611,3.447 127.784,18.911 166.926,49.64c62.294,48.904 106.873,123.702 112.154,201.703c8.341,123.185 -55.726,233.94 -145.023,314.307c-83.968,75.571 -183.624,156.065 -277.107,218.432c-105.767,70.563 -323.459,199.357 -495.804,315.923c-5.585,3.778 -8.344,10.549 -6.989,17.155c1.355,6.605 6.557,11.744 13.179,13.017c168.176,32.349 441.106,18.172 546.614,-13.215l0,0Zm-9.505,-31.949c-94.221,28.029 -325.949,41.585 -489.603,19.152c165.786,-109.983 361.929,-226.52 460.608,-292.354c94.757,-63.217 195.792,-144.783 280.906,-221.385c96.813,-87.131 165.024,-207.782 155.982,-341.335c-5.902,-87.162 -55.218,-171.022 -124.829,-225.67c-43.664,-34.28 -110.388,-52.866 -185.811,-56.711c-109.961,-5.606 -238.522,19.676 -337.336,68.523c-115.283,56.989 -189.23,146.304 -157.718,254.009c13.23,45.221 37.512,72.755 66.567,86.363c42.811,20.052 97.867,9.761 148.117,-24.754c43.012,-29.544 83.636,-71.744 124.771,-99.133c35.314,-23.513 70.932,-35.755 109.576,-10.307c29.735,19.583 46.097,46.478 48.342,82.156c6.201,98.52 -50.639,175.574 -132.604,231.658c-127.201,87.038 -314.942,124.143 -437.063,109.394c-149.827,-18.095 -234.398,-139.502 -239.439,-232.647c-9.753,-180.218 37.032,-332.611 163.467,-468.955c200.187,-215.874 538.83,-321.965 804.611,-258.919c325.189,77.138 502.64,415.088 344.426,815.252c-99.696,252.158 -347.894,489.781 -602.969,565.662l-0.001,0.001Z" style="fill:#7e4021;"/></g></svg>