<?xml version="1.0" encoding="UTF-8" standalone="no"?><!DOCTYPE svg PUBLIC "-//W3C//DTD SVG 1.1//EN" "http://www.w3.org/Graphics/SVG/1.1/DTD/svg11.dtd"><svg width="100%" height="100%" viewBox="0 0 1906 1252" version="1.1" xmlns="http://www.w3.org/2000/svg" xmlns:xlink="http://www.w3.org/1999/xlink" xml:space="preserve" xmlns:serif="http://www.serif.com/" style="fill-rule:evenodd;clip-rule:evenodd;stroke-linejoin:round;stroke-miterlimit:2;"><g id="Swiss-roll-Slice" serif:id="Swiss roll-Slice"><path d="M1825.99,520.874c46.76,-216.212 -258.137,-366.59 -422.337,-423.905c-351.805,-122.8 -695.445,-97.841 -1027.5,34.322c-218.289,86.884 -547.43,273.256 -222.514,498.198c125.168,86.655 653.791,146.185 920.241,113.871c219.06,-26.567 723.791,-91.562 752.106,-222.486Z" style="fill:#ffdab8;"/><path d="M1842.28,524.397c19.931,-92.161 -19.146,-173.437 -85.551,-241.292c-95.275,-97.353 -247.165,-166.82 -347.583,-201.871c-355.794,-124.193 -703.336,-99.089 -1039.15,34.572c-93.382,37.168 -206.563,92.416 -282.057,160.737c-53.334,48.267 -87.842,103.339 -87.442,162.669c0.423,62.727 39.846,132.108 143.661,203.98c38.7,26.792 114.651,51.567 209.673,71.526c216.763,45.531 534.135,67.978 722.062,45.187c154.329,-18.716 449.499,-56.577 622.509,-122.689c46.399,-17.73 84.242,-37.658 109.122,-59.48c18.9,-16.577 30.694,-34.547 34.758,-53.339Zm-32.58,-7.046c-2.732,12.632 -11.453,24.182 -24.158,35.325c-22.526,19.757 -57.032,37.35 -99.041,53.403c-170.797,65.266 -462.268,102.258 -614.623,120.735c-185.103,22.449 -497.692,0.129 -711.197,-44.718c-89.38,-18.774 -161.15,-41.109 -197.551,-66.31c-91.142,-63.098 -128.931,-121.729 -129.302,-176.798c-0.342,-50.61 30.981,-96.558 76.476,-137.73c72.745,-65.833 182.035,-118.667 272.017,-154.481c328.286,-130.665 668.024,-155.48 1015.84,-34.072c96.621,33.726 243.072,100.042 334.744,193.715c58.227,59.497 94.271,130.121 76.795,210.931Z" style="fill:#7e4021;"/><path d="M1825.99,520.874c7.516,-34.754 5.946,-67.806 -2.665,-99.045c111.535,273.878 70.949,545.251 -51.058,642.95c-305.386,244.543 -1413.49,218.565 -1653.83,-30.227c-71.363,-73.874 -103.242,-240.775 -98.703,-569.873c10.07,51.698 50.372,106.979 133.906,164.81c125.168,86.655 653.791,146.185 920.241,113.871c219.06,-26.567 723.791,-91.562 752.106,-222.486Z" style="fill:#ffe6d8;"/><path d="M1809.7,517.351c-2.732,12.632 -11.453,24.182 -24.158,35.325c-22.526,19.757 -57.032,37.35 -99.041,53.403c-170.797,65.266 -462.268,102.258 -614.623,120.735c-185.103,22.449 -497.692,0.129 -711.197,-44.718c-89.38,-18.774 -161.15,-41.109 -197.551,-66.31c-78.62,-54.429 -117.556,-105.637 -127.034,-154.293c-1.632,-8.383 -9.338,-14.175 -17.845,-13.414c-8.507,0.762 -15.061,7.831 -15.179,16.371c-2.751,199.435 7.928,339.881 32.33,436.456c17.007,67.312 40.909,114.023 71.051,145.225c39.855,41.258 102.543,76.929 181.355,106.16c115.208,42.73 265.333,72.151 427.089,87.401c241.818,22.797 509.671,13.983 725.105,-28.578c145.81,-28.805 267.779,-73.345 342.683,-133.325c51.318,-41.094 89.506,-111.098 108.669,-199.112c27.926,-128.265 15.775,-295.254 -52.593,-463.134c-3.328,-8.172 -12.448,-12.335 -20.802,-9.493c-8.354,2.841 -13.046,11.701 -10.701,20.208c7.919,28.73 9.354,59.13 2.442,91.093Zm31.967,9.621c35.056,126.178 38.354,247.07 17.116,344.614c-17.284,79.387 -50.646,143.117 -96.934,180.183c-71.681,57.401 -188.77,99.078 -328.307,126.644c-212.585,41.997 -476.898,50.589 -715.517,28.093c-158.535,-14.947 -305.711,-43.588 -418.626,-85.468c-73.271,-27.176 -131.919,-59.709 -168.972,-98.066c-26.948,-27.896 -47.502,-70.052 -62.708,-130.231c-20.667,-81.797 -31.014,-195.721 -31.705,-351.3c22.948,32.983 58.039,67.065 108.142,101.751c38.7,26.792 114.651,51.567 209.673,71.526c216.763,45.531 534.135,67.978 722.062,45.187c154.329,-18.716 449.499,-56.577 622.509,-122.689c46.399,-17.73 84.242,-37.658 109.122,-59.48c18.035,-15.818 29.598,-32.904 34.145,-50.764Z" style="fill:#7e4021;"/><path d="M1809.54,641.508c-0.185,-0.904 -0.453,-1.805 -0.802,-2.693c-3.368,-8.56 -13.051,-12.776 -21.611,-9.409c-0.71,0.279 -13.45,6.154 -9.976,20.012c0.632,2.52 4.334,14.963 4.581,16.011c8.517,36.121 11.468,75.099 6.789,111.941c-1.159,9.126 5.309,17.475 14.434,18.634c9.126,1.159 17.475,-5.309 18.634,-14.434c5.173,-40.741 2.005,-83.848 -7.413,-123.791c-0.237,-1.006 -4.119,-14.48 -4.636,-16.271Z" style="fill:#7e4021;"/><path d="M1809.01,864.286c5.369,-6.024 5.702,-15.236 0.418,-21.662c-5.842,-7.105 -16.354,-8.13 -23.459,-2.287c-4.114,3.383 -8.971,11.956 -11.625,23.813c-3.626,16.197 -5.323,40.564 -7.375,48.14c-2.404,8.879 2.852,18.039 11.731,20.444c8.878,2.405 18.039,-2.852 20.444,-11.73c1.686,-6.228 3.308,-23.081 5.681,-38.391c1.053,-6.799 3.638,-16.349 4.185,-18.327Z" style="fill:#7e4021;"/><path d="M1686.73,309.521c52.275,-125.787 -309.249,-216.81 -404.232,-228.108c-140.637,-16.728 -383.159,-1.152 -539.158,46.157c-125.194,37.967 -450.614,163.553 -402.994,338.482c72.236,265.357 1003.98,261.425 1163.37,41.292c81.306,-112.295 -379.661,-169.624 -501.912,-118.275c-151.857,63.784 72.128,102.906 117.592,98.226c6.297,-0.648 65.626,-6.875 55.702,13.495c-36.535,74.992 -478.539,43.193 -497.852,-64.288c-9.582,-53.328 44.115,-80.89 86.376,-102.01c87.583,-43.768 371.165,-119.073 566.523,-46.748c78.329,28.998 160.229,75.111 246.784,69.34c32.097,-2.14 92.131,-5.043 109.801,-47.563Z" style="fill:#fff;"/><path d="M1150.12,502.683c-1.462,0.844 -3.035,1.666 -4.696,2.485c-9.859,4.864 -22.658,8.694 -37.588,11.716c-48.381,9.793 -117.784,10.627 -186.431,3.609c-68.344,-6.987 -135.991,-21.708 -181.153,-43.804c-25.159,-12.309 -43.476,-25.718 -46.606,-43.135c-3.654,-20.335 5.307,-35.548 18.661,-47.9c16.394,-15.165 38.977,-26.366 58.762,-36.253c85.541,-42.748 362.481,-116.666 553.286,-46.027c80.44,29.78 164.791,76.266 253.678,70.34c20.698,-1.38 52.148,-3.357 78.143,-14.347c20.146,-8.517 37.11,-22.202 45.941,-43.45c18.503,-44.525 -4.007,-86.638 -51.713,-122.347c-96.488,-72.224 -297.941,-120.619 -365.942,-128.707c-142.412,-16.939 -387.994,-1.148 -545.963,46.758c-76.482,23.194 -226.255,78.709 -323.444,157.718c-69.308,56.343 -111.541,124.882 -90.795,201.091c12.574,46.188 48.426,85.452 101.602,116.878c74.937,44.285 185.012,73.535 307.35,87.865c181.577,21.268 390.249,9.953 549.027,-31.296c109.257,-28.383 195.043,-71.612 234.972,-126.759c10.125,-13.984 13.66,-27.514 12.518,-40.212c-1.066,-11.853 -6.303,-23.287 -15.688,-33.929c-11.426,-12.956 -29.596,-25.053 -52.916,-35.595c-70.77,-31.99 -191.632,-51.451 -295.944,-53.727c-70.87,-1.546 -134.161,5.064 -169.836,20.048c-24.69,10.371 -40.371,20.518 -49.331,29.669c-8.787,8.975 -12.359,17.881 -12.899,25.988c-0.877,13.175 6.414,26.335 21.992,36.957c38.671,26.368 136.747,40.568 165.991,37.557c2.737,-0.281 16.373,-1.744 29.022,-1.191Zm521.216,-199.558c-6.832,16.438 -22.433,24.466 -38.848,29.344c-19.942,5.926 -41.597,6.98 -56.672,7.985c-84.222,5.615 -163.67,-40.123 -239.888,-68.34c-199.913,-74.011 -490.136,2.681 -579.76,47.47c-22.477,11.232 -47.872,24.372 -66.497,41.6c-21.666,20.042 -34.761,45.271 -28.832,78.266c4.598,25.592 27.794,49.093 64.764,67.181c47.997,23.482 119.777,39.597 192.412,47.023c84.803,8.67 170.677,5.441 221.04,-10.314c26.54,-8.303 44.073,-20.987 51.022,-35.25c3.596,-7.381 3.37,-13.691 1.581,-18.927c-2.275,-6.659 -7.959,-12.735 -17.462,-16.103c-16.575,-5.873 -51.45,-2.865 -56.511,-2.344c-21.383,2.201 -84.702,-6.173 -124.866,-22.323c-8.885,-3.573 -16.563,-7.449 -21.98,-11.88c-2.14,-1.751 -4.405,-2.934 -4.463,-4.999c-0.019,-0.66 0.529,-1.207 1.019,-1.923c1.158,-1.696 2.801,-3.387 4.869,-5.168c7.388,-6.362 19.135,-12.908 35.99,-19.988c32.787,-13.771 91.066,-18.876 156.2,-17.454c99.692,2.175 215.305,20.202 282.941,50.776c17.428,7.878 31.481,16.421 40.51,26.022c4.819,5.123 8.107,10.357 8.625,16.112c0.508,5.66 -1.805,11.445 -6.318,17.678c-36.577,50.518 -116.269,88.045 -216.354,114.046c-155.231,40.327 -359.248,51.244 -536.768,30.451c-117.061,-13.712 -222.564,-41.08 -294.269,-83.455c-44.587,-26.35 -75.855,-58.209 -86.398,-96.937c-17.352,-63.743 21.687,-119.343 79.658,-166.47c93.719,-76.188 238.341,-129.318 312.092,-151.684c154.03,-46.712 393.492,-62.073 532.352,-45.557c64.976,7.729 257.709,53.281 349.905,122.292c33.192,24.846 53.78,51.891 40.906,82.87Z" style="fill:#7e4021;"/><path d="M1686.73,309.521c15.143,-36.438 -54.824,30.429 -243.837,-48.671c-227.759,-95.315 -411.323,-64.481 -574.416,-32.689c-128.408,25.03 -385.448,130.421 -293.701,233.985c133.945,151.199 684.194,170.28 736.698,30.782c27.446,-72.92 -247.871,-129.816 -309.67,-103.859c-151.857,63.784 72.128,102.906 117.592,98.226c6.297,-0.648 65.626,-6.875 55.702,13.495c-36.535,74.992 -478.539,43.193 -497.852,-64.288c-9.582,-53.328 44.115,-80.89 86.376,-102.01c87.583,-43.768 371.165,-119.073 566.523,-46.748c78.329,28.998 160.229,75.111 246.784,69.34c32.097,-2.14 92.131,-5.043 109.801,-47.563Z" style="fill:#f6a7bc;"/><path d="M1150.12,502.683c-1.462,0.844 -3.035,1.666 -4.696,2.485c-9.859,4.864 -22.658,8.694 -37.588,11.716c-48.381,9.793 -117.784,10.627 -186.431,3.609c-68.344,-6.987 -135.991,-21.708 -181.153,-43.804c-25.159,-12.309 -43.476,-25.718 -46.606,-43.135c-3.654,-20.335 5.307,-35.548 18.661,-47.9c16.394,-15.165 38.977,-26.366 58.762,-36.253c85.541,-42.748 362.481,-116.666 553.286,-46.027c80.44,29.78 164.791,76.266 253.678,70.34c20.698,-1.38 52.148,-3.357 78.143,-14.347c20.146,-8.517 37.11,-22.202 45.941,-43.45c4.22,-10.154 3.519,-17.142 1.91,-21.387c-2.28,-6.017 -6.639,-10.625 -14.641,-12.634c-4.37,-1.097 -11.927,-0.973 -22.827,0.243c-31.159,3.475 -100.692,12.108 -217.236,-36.664c-231.585,-96.916 -418.207,-65.999 -584.039,-33.673c-79.229,15.444 -205.954,60.928 -274.378,117.616c-30.727,25.457 -49.844,53.695 -51.962,81.969c-1.521,20.313 5.089,41.196 23.352,61.811c39.225,44.278 112.22,78.449 198.731,100.453c126.291,32.122 281.381,39.122 396.331,19.144c50.955,-8.856 94.19,-23.127 124.283,-42.422c22.487,-14.418 37.993,-31.82 45.427,-51.574c6.201,-16.475 2.914,-32.556 -8.782,-47.605c-8.935,-11.497 -23.498,-22.59 -42.097,-32.479c-54.633,-29.05 -145.964,-49.317 -211.226,-52.306c-30.18,-1.382 -55.127,1.207 -69.618,7.294c-24.69,10.371 -40.371,20.518 -49.331,29.669c-8.787,8.975 -12.359,17.881 -12.899,25.988c-0.877,13.175 6.414,26.335 21.992,36.957c38.671,26.368 136.747,40.568 165.991,37.557c2.737,-0.281 16.373,-1.744 29.022,-1.191Zm512.681,-186.657c-7.943,8.165 -18.933,13.061 -30.313,16.443c-19.942,5.926 -41.597,6.98 -56.672,7.985c-84.222,5.615 -163.67,-40.123 -239.888,-68.34c-199.913,-74.011 -490.136,2.681 -579.76,47.47c-22.477,11.232 -47.872,24.372 -66.497,41.6c-21.666,20.042 -34.761,45.271 -28.832,78.266c4.598,25.592 27.794,49.093 64.764,67.181c47.997,23.482 119.777,39.597 192.412,47.023c84.803,8.67 170.677,5.441 221.04,-10.314c26.54,-8.303 44.073,-20.987 51.022,-35.25c3.596,-7.381 3.37,-13.691 1.581,-18.927c-2.275,-6.659 -7.959,-12.735 -17.462,-16.103c-16.575,-5.873 -51.45,-2.865 -56.511,-2.344c-21.383,2.201 -84.702,-6.173 -124.866,-22.323c-8.885,-3.573 -16.563,-7.449 -21.98,-11.88c-2.14,-1.751 -4.405,-2.934 -4.463,-4.999c-0.019,-0.66 0.529,-1.207 1.019,-1.923c1.158,-1.696 2.801,-3.387 4.869,-5.168c7.388,-6.362 19.135,-12.908 35.99,-19.988c11.466,-4.816 31.304,-5.821 55.184,-4.727c60.872,2.787 146.144,21.343 197.102,48.439c13.727,7.298 24.832,15.016 31.427,23.502c3.84,4.941 5.941,9.998 3.905,15.408c-5.167,13.728 -16.596,25.236 -32.223,35.255c-27.075,17.36 -66.153,29.674 -111.998,37.642c-110.914,19.277 -260.551,12.386 -382.408,-18.608c-78.922,-20.074 -146.211,-49.857 -181.996,-90.251c-11.098,-12.527 -15.987,-24.875 -15.062,-37.218c1.551,-20.714 17.476,-40.141 39.987,-58.79c64.651,-53.563 184.63,-95.975 259.49,-110.567c160.353,-31.258 340.859,-62.01 564.793,31.704c98.007,41.015 165.197,43.957 205.876,41.598c7.869,-0.456 14.68,-1.146 20.47,-1.796Z" style="fill:#7e4021;"/></g></svg>