<?xml version="1.0" encoding="UTF-8" standalone="no"?><!DOCTYPE svg PUBLIC "-//W3C//DTD SVG 1.1//EN" "http://www.w3.org/Graphics/SVG/1.1/DTD/svg11.dtd"><svg width="100%" height="100%" viewBox="0 0 3437 2425" version="1.1" xmlns="http://www.w3.org/2000/svg" xmlns:xlink="http://www.w3.org/1999/xlink" xml:space="preserve" xmlns:serif="http://www.serif.com/" style="fill-rule:evenodd;clip-rule:evenodd;stroke-linejoin:round;stroke-miterlimit:2;"><g id="Swiss-Roll" serif:id="Swiss Roll"><path d="M1664.43,2387.76c89.92,-20.986 640.808,-357.166 715.939,-406.71c252.91,-166.78 805.018,-393.339 958.491,-643.743c211.315,-344.777 -27.663,-880.152 -311.396,-1119.55c-129.859,-109.568 -312.46,-184.522 -481.676,-197.765c-124.685,-9.758 -249.103,7.293 -367.709,46.257c-238.092,78.218 -497.155,197.934 -723.556,303.048c-427.023,198.261 -956.959,272.942 -1253.4,662.182c-217.247,285.25 -256.376,913.22 -40.237,1104.16c167.519,147.992 1153.41,333.834 1503.55,252.118Z" style="fill:#ffe6d8;"/><path d="M1668.22,2403.99c90.556,-21.134 645.664,-359.131 721.327,-409.027c151.661,-100.012 410.985,-221.514 627.301,-356.785c146.799,-91.8 273.768,-190.258 336.224,-292.161c86.675,-141.418 99.992,-314.036 65.524,-486.063c-51.163,-255.348 -207.635,-509.181 -380.382,-654.937c-132.406,-111.717 -318.589,-188.14 -491.123,-201.643c-126.889,-9.93 -253.51,7.386 -374.212,47.039c-238.685,78.413 -498.408,198.389 -725.373,303.766c-213.301,99.032 -452.317,167.169 -675.014,259.186c-225.668,93.245 -434.578,210.993 -584.63,408.014c-132.39,173.831 -200.181,472.84 -185.392,726.232c10.006,171.441 58.263,321.793 147.38,400.522c51.31,45.329 177.511,94.894 339.134,138.76c371.92,100.943 932.445,174.694 1179.24,117.097l0,0Zm-7.576,-32.461c-243.405,56.807 -796.11,-17.247 -1162.93,-116.805c-154.98,-42.063 -276.596,-88.106 -325.797,-131.573c-83.796,-74.028 -126.764,-216.278 -136.172,-377.482c-14.333,-245.575 50.327,-535.625 178.633,-704.093c146.394,-192.219 350.674,-306.432 570.841,-397.404c223.137,-92.198 462.6,-160.532 676.322,-259.76c225.838,-104.853 484.24,-224.307 721.74,-302.331c116.51,-38.275 238.725,-55.06 361.207,-45.475c165.897,12.983 344.916,86.468 472.228,193.888c167.732,141.524 319.517,388.073 369.194,636.009c32.759,163.496 21.117,327.69 -61.26,462.095c-60.322,98.42 -183.695,192.655 -325.478,281.317c-216.557,135.423 -476.148,257.098 -627.978,357.221c-52.482,34.609 -337.603,209.368 -534.727,318.296c-82.731,45.716 -149.463,79.945 -175.825,86.097l0,0Z" style="fill:#7e4021;"/><path d="M1902.62,534.899c-4.773,7.655 -14.862,9.994 -22.517,5.221c-7.655,-4.772 -9.994,-14.862 -5.222,-22.517c4.773,-7.654 14.863,-9.994 22.517,-5.221c7.655,4.773 9.995,14.862 5.222,22.517Z" style="fill:#fff;"/><path d="M2261.88,660.607c-4.772,7.655 -14.862,9.995 -22.516,5.222c-7.655,-4.773 -9.995,-14.862 -5.222,-22.517c4.773,-7.655 14.862,-9.994 22.517,-5.222c7.655,4.773 9.994,14.863 5.221,22.517Z" style="fill:#fff;"/><path d="M1328.99,554.871c8.495,3.033 17.855,-1.401 20.888,-9.896c3.034,-8.496 -1.4,-17.856 -9.896,-20.889c-8.495,-3.034 -17.855,1.401 -20.889,9.896c-3.033,8.495 1.401,17.855 9.897,20.889Z" style="fill:#fff;"/><path d="M1363.56,657.741c-6.982,5.712 -17.288,4.682 -23,-2.3c-5.713,-6.981 -4.682,-17.287 2.299,-23c6.981,-5.712 17.287,-4.682 23,2.3c5.712,6.981 4.682,17.287 -2.299,23Z" style="fill:#fff;"/><path d="M1545,693.865c9.02,0.14 16.456,-7.07 16.595,-16.09c0.14,-9.019 -7.07,-16.455 -16.089,-16.595c-9.02,-0.139 -16.456,7.07 -16.595,16.09c-0.14,9.02 7.07,16.456 16.089,16.595Z" style="fill:#fff;"/><path d="M2386.78,132.19c-14.443,-1.595 -24.874,-14.616 -23.279,-29.059c1.595,-14.443 14.616,-24.874 29.059,-23.279c14.443,1.595 24.874,14.616 23.279,29.059c-1.595,14.443 -14.616,24.874 -29.059,23.279Z" style="fill:#fff;"/><path d="M2669.2,206.618c-14.443,-1.595 -24.874,-14.616 -23.279,-29.059c1.595,-14.443 14.616,-24.874 29.059,-23.279c14.443,1.595 24.874,14.616 23.279,29.059c-1.595,14.443 -14.616,24.874 -29.059,23.279Z" style="fill:#fff;"/><path d="M1800.39,422.737c-14.443,-1.595 -24.874,-14.616 -23.279,-29.059c1.595,-14.443 14.616,-24.874 29.059,-23.279c14.443,1.595 24.874,14.616 23.279,29.059c-1.595,14.443 -14.616,24.874 -29.059,23.279Z" style="fill:#fff;"/><path d="M2113.61,445.19c-14.443,-1.595 -24.874,-14.616 -23.279,-29.059c1.595,-14.443 14.616,-24.874 29.059,-23.279c14.443,1.595 24.874,14.616 23.279,29.059c-1.595,14.443 -14.616,24.874 -29.059,23.279Z" style="fill:#fff;"/><path d="M1222.97,653.937c-14.443,-1.595 -24.874,-14.616 -23.279,-29.059c1.595,-14.443 14.616,-24.874 29.059,-23.279c14.443,1.595 24.874,14.616 23.279,29.059c-1.595,14.443 -14.616,24.874 -29.059,23.279Z" style="fill:#fff;"/><path d="M1507.97,532.025c-14.443,-1.595 -24.874,-14.616 -23.279,-29.059c1.595,-14.443 14.616,-24.874 29.059,-23.279c14.443,1.595 24.874,14.616 23.279,29.059c-1.595,14.443 -14.616,24.874 -29.059,23.279Z" style="fill:#fff;"/><path d="M2057.61,622.689c-14.443,-1.595 -24.874,-14.616 -23.279,-29.059c1.595,-14.443 14.616,-24.874 29.059,-23.279c14.443,1.595 24.874,14.616 23.279,29.059c-1.595,14.443 -14.616,24.874 -29.059,23.279Z" style="fill:#fff;"/><path d="M1988.57,269.64c-14.443,-1.595 -24.874,-14.616 -23.279,-29.059c1.595,-14.443 14.616,-24.874 29.059,-23.279c14.443,1.595 24.874,14.616 23.279,29.059c-1.595,14.443 -14.616,24.874 -29.059,23.279Z" style="fill:#fff;"/><path d="M2348.95,334.615c-14.443,-1.595 -24.874,-14.616 -23.279,-29.059c1.595,-14.443 14.616,-24.874 29.059,-23.279c14.443,1.595 24.874,14.616 23.279,29.059c-1.595,14.443 -14.616,24.874 -29.059,23.279Z" style="fill:#fff;"/><path d="M1011.03,666.418c-14.443,-1.595 -24.874,-14.616 -23.279,-29.059c1.595,-14.443 14.616,-24.874 29.059,-23.279c14.443,1.595 24.874,14.616 23.279,29.059c-1.595,14.443 -14.616,24.874 -29.059,23.279Z" style="fill:#fff;"/><path d="M2106.71,340.27c-14.443,-1.595 -24.874,-14.616 -23.279,-29.059c1.595,-14.443 14.616,-24.874 29.059,-23.279c14.443,1.595 24.874,14.616 23.279,29.059c-1.595,14.443 -14.616,24.874 -29.059,23.279Z" style="fill:#fff;"/><path d="M2231.88,169.366c-14.443,-1.595 -24.873,-14.616 -23.278,-29.059c1.595,-14.443 14.615,-24.874 29.058,-23.279c14.444,1.595 24.874,14.616 23.279,29.059c-1.595,14.443 -14.615,24.874 -29.059,23.279Z" style="fill:#fff;"/><path d="M1599.71,797.207c-14.443,-1.595 -24.874,-14.616 -23.279,-29.059c1.595,-14.443 14.616,-24.874 29.059,-23.279c14.443,1.595 24.874,14.616 23.279,29.059c-1.595,14.443 -14.616,24.874 -29.059,23.279Z" style="fill:#fff;"/><path d="M1423.83,798.309c-14.443,-1.595 -24.874,-14.616 -23.279,-29.059c1.595,-14.443 14.616,-24.874 29.059,-23.279c14.443,1.595 24.874,14.616 23.279,29.059c-1.595,14.443 -14.616,24.874 -29.059,23.279Z" style="fill:#fff;"/><path d="M1731.5,542.882c-14.443,-1.595 -24.874,-14.616 -23.279,-29.059c1.595,-14.443 14.616,-24.874 29.059,-23.279c14.443,1.595 24.874,14.616 23.279,29.059c-1.595,14.443 -14.616,24.874 -29.059,23.279Z" style="fill:#fff;"/><path d="M2568.69,282.597c-14.443,-1.595 -24.874,-14.616 -23.279,-29.059c1.595,-14.443 14.616,-24.874 29.059,-23.279c14.443,1.595 24.874,14.616 23.279,29.059c-1.595,14.443 -14.616,24.874 -29.059,23.279Z" style="fill:#fff;"/><path d="M1996.79,478.073c-14.505,0.865 -26.984,-10.209 -27.849,-24.714c-0.865,-14.505 10.209,-26.984 24.714,-27.849c14.506,-0.865 26.984,10.209 27.849,24.714c0.865,14.505 -10.209,26.984 -24.714,27.849Z" style="fill:#fff;"/><path d="M2305.03,500.451c-14.505,0.865 -26.984,-10.209 -27.848,-24.714c-0.865,-14.505 10.209,-26.983 24.714,-27.848c14.505,-0.865 26.983,10.209 27.848,24.714c0.865,14.505 -10.209,26.983 -24.714,27.848Z" style="fill:#fff;"/><path d="M1917.5,351.677c6.279,6.477 16.635,6.637 23.112,0.358c6.476,-6.28 6.636,-16.636 0.357,-23.112c-6.279,-6.476 -16.635,-6.637 -23.112,-0.357c-6.476,6.279 -6.636,16.635 -0.357,23.111Z" style="fill:#fff;"/><path d="M2225.4,435.855c6.279,6.477 16.635,6.637 23.111,0.358c6.477,-6.28 6.637,-16.636 0.358,-23.112c-6.279,-6.477 -16.635,-6.637 -23.112,-0.358c-6.476,6.28 -6.636,16.636 -0.357,23.112Z" style="fill:#fff;"/><path d="M2195.09,294.926c6.28,6.476 16.636,6.636 23.112,0.357c6.477,-6.279 6.637,-16.635 0.358,-23.112c-6.28,-6.476 -16.636,-6.636 -23.112,-0.357c-6.477,6.279 -6.637,16.635 -0.358,23.112Z" style="fill:#fff;"/><path d="M1681.95,413.482c9.02,0.14 16.456,-7.07 16.596,-16.089c0.139,-9.02 -7.07,-16.456 -16.09,-16.595c-9.02,-0.14 -16.456,7.07 -16.595,16.089c-0.14,9.02 7.07,16.456 16.089,16.595Z" style="fill:#fff;"/><path d="M2201.71,526.621c-0.139,9.02 7.07,16.456 16.09,16.595c9.019,0.14 16.455,-7.07 16.595,-16.089c0.14,-9.02 -7.07,-16.456 -16.09,-16.595c-9.019,-0.14 -16.455,7.07 -16.595,16.089Z" style="fill:#fff;"/><path d="M2411.15,517.733c-0.139,9.019 7.07,16.455 16.09,16.595c9.02,0.139 16.456,-7.07 16.595,-16.09c0.14,-9.019 -7.07,-16.455 -16.089,-16.595c-9.02,-0.14 -16.456,7.07 -16.596,16.09Z" style="fill:#fff;"/><path d="M1617.88,549.31c-6.982,5.712 -17.288,4.682 -23,-2.299c-5.713,-6.982 -4.682,-17.288 2.299,-23c6.982,-5.713 17.288,-4.682 23,2.299c5.712,6.982 4.682,17.287 -2.299,23Z" style="fill:#fff;"/><path d="M1969.87,529.493c-5.712,-6.982 -4.682,-17.288 2.3,-23c6.981,-5.713 17.287,-4.682 23,2.299c5.712,6.982 4.682,17.287 -2.3,23c-6.981,5.712 -17.287,4.682 -23,-2.299Z" style="fill:#fff;"/><path d="M1955.71,609.239c-5.713,-6.981 -4.683,-17.287 2.299,-22.999c6.981,-5.713 17.287,-4.683 23,2.299c5.712,6.981 4.682,17.287 -2.3,23c-6.981,5.712 -17.287,4.682 -22.999,-2.3Z" style="fill:#fff;"/><path d="M2757.73,225.169c-5.712,-6.981 -4.682,-17.287 2.299,-22.999c6.982,-5.713 17.288,-4.683 23,2.299c5.713,6.981 4.682,17.287 -2.299,23c-6.982,5.712 -17.287,4.682 -23,-2.3Z" style="fill:#fff;"/><path d="M2498.75,292.574c-0.139,9.02 7.07,16.456 16.09,16.596c9.019,0.139 16.455,-7.07 16.595,-16.09c0.139,-9.02 -7.07,-16.456 -16.09,-16.595c-9.019,-0.14 -16.455,7.07 -16.595,16.089Z" style="fill:#fff;"/><path d="M2582.58,105.878c-0.14,9.02 7.07,16.456 16.089,16.595c9.02,0.14 16.456,-7.07 16.596,-16.089c0.139,-9.02 -7.071,-16.456 -16.09,-16.596c-9.02,-0.139 -16.456,7.07 -16.595,16.09Z" style="fill:#fff;"/><path d="M2149.77,164.462c4.389,7.881 1.554,17.842 -6.327,22.232c-7.88,4.389 -17.842,1.554 -22.231,-6.327c-4.39,-7.881 -1.555,-17.842 6.326,-22.232c7.881,-4.389 17.843,-1.554 22.232,6.327Z" style="fill:#fff;"/><path d="M2143.36,480.87c4.389,7.881 1.555,17.842 -6.326,22.232c-7.881,4.389 -17.843,1.554 -22.232,-6.327c-4.389,-7.881 -1.555,-17.842 6.326,-22.232c7.881,-4.389 17.843,-1.554 22.232,6.327Z" style="fill:#fff;"/><path d="M1909.08,676.323c-8.748,2.2 -17.637,-3.116 -19.837,-11.864c-2.2,-8.749 3.117,-17.637 11.865,-19.837c8.748,-2.2 17.637,3.116 19.837,11.864c2.2,8.749 -3.116,17.637 -11.865,19.837Z" style="fill:#fff;"/><path d="M2653.02,344.611c-8.748,2.2 -17.637,-3.116 -19.837,-11.865c-2.2,-8.748 3.117,-17.637 11.865,-19.837c8.749,-2.2 17.637,3.117 19.837,11.865c2.2,8.749 -3.116,17.637 -11.865,19.837Z" style="fill:#fff;"/><path d="M2499.33,409.865c0.139,-9.019 7.575,-16.229 16.595,-16.09c9.019,0.139 16.229,7.575 16.09,16.595c-0.14,9.02 -7.575,16.229 -16.595,16.09c-9.02,-0.139 -16.229,-7.575 -16.09,-16.595Z" style="fill:#fff;"/><path d="M2678.82,360.586c0.139,-9.02 7.575,-16.23 16.595,-16.091c9.019,0.14 16.229,7.576 16.09,16.595c-0.139,9.02 -7.575,16.23 -16.595,16.09c-9.019,-0.139 -16.229,-7.575 -16.09,-16.594Z" style="fill:#fff;"/><path d="M2457.67,248.64c4.389,7.881 1.554,17.842 -6.327,22.232c-7.881,4.389 -17.842,1.554 -22.232,-6.327c-4.389,-7.881 -1.554,-17.842 6.327,-22.232c7.881,-4.389 17.842,-1.554 22.232,6.327Z" style="fill:#fff;"/><path d="M1680.07,632.768c9.02,0.139 16.456,-7.07 16.595,-16.09c0.14,-9.019 -7.07,-16.455 -16.09,-16.595c-9.019,-0.14 -16.455,7.07 -16.595,16.09c-0.139,9.019 7.07,16.455 16.09,16.595Z" style="fill:#fff;"/><path d="M1830.37,571.284c-0.139,9.02 7.07,16.456 16.09,16.595c9.019,0.14 16.455,-7.07 16.595,-16.09c0.139,-9.019 -7.07,-16.455 -16.09,-16.595c-9.019,-0.139 -16.455,7.07 -16.595,16.09Z" style="fill:#fff;"/><path d="M2040.89,355.62c-0.14,9.02 7.07,16.456 16.089,16.596c9.02,0.139 16.456,-7.07 16.596,-16.09c0.139,-9.02 -7.07,-16.456 -16.09,-16.595c-9.02,-0.14 -16.456,7.07 -16.595,16.089Z" style="fill:#fff;"/><path d="M1995.28,679.891c-0.139,9.02 7.07,16.456 16.09,16.596c9.02,0.139 16.456,-7.07 16.595,-16.09c0.14,-9.02 -7.07,-16.456 -16.09,-16.595c-9.019,-0.14 -16.455,7.07 -16.595,16.089Z" style="fill:#fff;"/><path d="M1903.65,428.404c-0.14,9.019 7.07,16.455 16.089,16.595c9.02,0.139 16.456,-7.07 16.595,-16.09c0.14,-9.019 -7.07,-16.455 -16.089,-16.595c-9.02,-0.139 -16.456,7.07 -16.595,16.09Z" style="fill:#fff;"/><path d="M2106.08,655.987c-0.139,9.019 7.07,16.455 16.09,16.595c9.02,0.139 16.456,-7.07 16.595,-16.09c0.14,-9.019 -7.07,-16.455 -16.089,-16.595c-9.02,-0.139 -16.456,7.07 -16.596,16.09Z" style="fill:#fff;"/><path d="M1547.12,903.653c-6.981,5.712 -17.287,4.682 -22.999,-2.299c-5.713,-6.982 -4.683,-17.288 2.299,-23c6.981,-5.713 17.287,-4.682 23,2.299c5.712,6.982 4.682,17.287 -2.3,23Z" style="fill:#fff;"/><path d="M1569.4,605.763c9.02,0.14 16.456,-7.07 16.595,-16.089c0.14,-9.02 -7.07,-16.456 -16.09,-16.596c-9.019,-0.139 -16.455,7.07 -16.595,16.09c-0.139,9.02 7.07,16.456 16.09,16.595Z" style="fill:#fff;"/><path d="M2371.15,404.138c-0.139,9.019 7.07,16.455 16.09,16.595c9.019,0.139 16.456,-7.07 16.595,-16.09c0.14,-9.019 -7.07,-16.455 -16.09,-16.595c-9.019,-0.139 -16.455,7.07 -16.595,16.09Z" style="fill:#fff;"/><path d="M2220.8,364.899c-0.14,9.02 7.07,16.456 16.089,16.595c9.02,0.14 16.456,-7.07 16.596,-16.09c0.139,-9.019 -7.07,-16.455 -16.09,-16.595c-9.02,-0.139 -16.456,7.07 -16.595,16.09Z" style="fill:#fff;"/><path d="M2267.34,226.207c-0.14,9.02 7.07,16.456 16.089,16.596c9.02,0.139 16.456,-7.07 16.595,-16.09c0.14,-9.02 -7.07,-16.456 -16.089,-16.595c-9.02,-0.14 -16.456,7.07 -16.595,16.089Z" style="fill:#fff;"/><path d="M1819.01,773.903c-8.676,-2.469 -17.725,2.57 -20.194,11.246c-2.469,8.677 2.57,17.725 11.246,20.195c8.676,2.469 17.725,-2.571 20.194,-11.247c2.469,-8.676 -2.57,-17.725 -11.246,-20.194Z" style="fill:#fff;"/><path d="M1790.83,660.707c2.469,-8.676 -2.57,-17.725 -11.247,-20.194c-8.676,-2.469 -17.724,2.57 -20.194,11.246c-2.469,8.676 2.57,17.725 11.247,20.194c8.676,2.469 17.724,-2.57 20.194,-11.246Z" style="fill:#fff;"/><path d="M2014.81,842.866c4.631,-7.741 2.105,-17.786 -5.636,-22.416c-7.742,-4.631 -17.786,-2.105 -22.417,5.636c-4.63,7.742 -2.105,17.786 5.637,22.417c7.741,4.63 17.786,2.105 22.416,-5.637Z" style="fill:#fff;"/><path d="M2706.08,497.863c4.631,-7.741 2.105,-17.786 -5.636,-22.417c-7.742,-4.63 -17.786,-2.105 -22.417,5.637c-4.63,7.741 -2.105,17.786 5.637,22.416c7.741,4.631 17.786,2.106 22.416,-5.636Z" style="fill:#fff;"/><path d="M1581.26,395.918c19.464,-7.636 38.492,-16.453 57.815,-24.446c53.613,-22.176 106.996,-44.984 160.785,-66.726c8.528,-3.447 12.653,-13.169 9.206,-21.697c-3.447,-8.529 -13.169,-12.654 -21.697,-9.207c-53.873,21.775 -107.339,44.617 -161.035,66.828c-19.135,7.915 -37.973,16.656 -57.248,24.218c-8.563,3.359 -12.787,13.039 -9.428,21.602c3.36,8.563 13.039,12.788 21.602,9.428Z" style="fill:#7e4021;"/><path d="M1859.97,278.229c22.27,-12.816 48.323,-21.128 71.749,-31.67c8.388,-3.774 12.134,-13.649 8.359,-22.038c-3.775,-8.388 -13.65,-12.134 -22.038,-8.359c-24.413,10.986 -51.489,19.82 -74.697,33.177c-7.972,4.588 -10.72,14.786 -6.132,22.758c4.589,7.973 14.787,10.72 22.759,6.132Z" style="fill:#7e4021;"/><path d="M1664.43,2387.76c28.419,-6.633 102.882,-44.748 193.818,-95.348c112.948,-62.849 170.872,-756.299 -297.743,-1252.25c-326.533,-345.584 -930.703,-351.421 -1052.94,-277.328c-116.173,70.413 -221.004,156.466 -306.441,268.647c-217.247,285.25 -256.376,913.22 -40.237,1104.16c167.519,147.992 1153.41,333.834 1503.55,252.118Z" style="fill:#ffdab8;"/><path d="M1668.22,2403.99c29.025,-6.774 105.257,-45.335 198.134,-97.015c15.839,-8.814 31.474,-27.675 44.509,-56.041c17.301,-37.647 31.054,-93.046 38.033,-161.295c26.576,-259.88 -44.149,-709.425 -376.275,-1060.93c-231.985,-245.52 -601.851,-322.59 -845.563,-320.635c-106.971,0.858 -190.016,17.396 -228.135,40.501c-117.944,71.487 -224.322,158.911 -311.061,272.802c-132.39,173.831 -200.181,472.84 -185.392,726.232c10.006,171.441 58.263,321.793 147.38,400.522c51.31,45.329 177.511,94.894 339.134,138.76c371.92,100.943 932.445,174.694 1179.24,117.097l0,0Zm-7.576,-32.461c-243.405,56.807 -796.11,-17.247 -1162.93,-116.805c-154.98,-42.063 -276.596,-88.106 -325.797,-131.573c-83.796,-74.028 -126.764,-216.278 -136.172,-377.482c-14.333,-245.575 50.327,-535.625 178.633,-704.093c84.135,-110.471 187.419,-195.153 301.821,-264.493c47.394,-28.727 169.66,-43.741 319.413,-31.558c228.243,18.567 519.826,101.869 712.779,306.079c323.936,342.835 393.263,781.172 367.343,1034.64c-6.52,63.757 -18.998,115.598 -35.161,150.767c-9.275,20.185 -19.158,34.561 -30.429,40.833c-88.996,49.52 -161.689,87.19 -189.502,93.681l0,0Z" style="fill:#7e4021;"/><path d="M921.02,2351.35c-259.572,-77.219 -582.652,-229.475 -669.061,-462.073c-154.103,-414.82 103.595,-816.267 438.014,-895.595c271.061,-64.298 616.514,43.641 820.678,263.804c129.747,139.914 193.534,339.155 173.52,523.281c-7.371,67.818 -100.28,186.944 -259.713,206.199c-208.842,25.223 -717.915,-127.08 -701.459,-388.546c2.596,-41.247 21.432,-72.388 55.81,-95.027c168.187,-110.758 506.74,314.831 549.888,97.039c51.673,-260.83 -486.201,-367.343 -649.106,-258.101c-69.64,46.7 -112.9,131.106 -118.491,213.687c-8.692,128.369 57.448,244.072 150.502,327.821c84.541,76.087 183.808,132.405 285.084,182.849c89.256,44.457 869.982,360.84 273.168,328.725c-101.445,-5.459 -244.852,-13.13 -348.834,-44.063Z" style="fill:#fff;"/><path d="M916.268,2367.33c105.138,31.277 250.118,39.211 352.691,44.731c98.399,5.295 160.439,0.968 194.893,-9.505c27.928,-8.489 40.753,-22.319 44.376,-36.44c2.464,-9.606 1.149,-20.309 -4.643,-31.715c-6.267,-12.342 -18.453,-26.235 -35.59,-40.739c-105.305,-89.126 -409.915,-215.009 -463.879,-241.888c-99.931,-49.774 -197.946,-105.241 -281.364,-180.318c-89.297,-80.367 -153.364,-191.122 -145.024,-314.307c5.256,-77.619 45.691,-157.077 111.146,-200.97c37.036,-24.837 94.679,-37.31 160.004,-39.406c100.941,-3.238 220.039,18.89 313.359,63.697c98.685,47.382 169.307,119.831 150.111,216.728c-4.142,20.903 -10.828,34.833 -21.13,42.547c-11.455,8.576 -26.619,8.513 -44.256,4.563c-21.935,-4.913 -47.048,-16.227 -74.249,-30.581c-74.436,-39.282 -163.222,-100.823 -244.263,-129.42c-59.035,-20.831 -114.31,-24.132 -158.808,5.171c-39.02,25.696 -60.33,61.083 -63.277,107.9c-6.943,110.321 73.013,203.464 187.714,272.322c166.383,99.885 404.555,149.255 532.377,133.818c100.511,-12.139 175.8,-62.168 221.669,-115.55c31.763,-36.965 49.397,-75.79 52.615,-105.395c20.516,-188.746 -44.865,-392.99 -177.868,-536.415c-208.141,-224.451 -560.405,-334.238 -836.746,-268.687c-342.79,81.313 -607.751,492.411 -449.79,917.615c35.612,95.862 109.915,178.746 203.765,248.468c138.153,102.635 318.688,176.928 476.167,223.776l-0,-0Zm9.504,-31.95c-154.008,-45.815 -330.685,-118.211 -465.792,-218.584c-88.324,-65.616 -158.882,-143.101 -192.397,-233.318c-150.246,-404.437 100.189,-796.232 426.237,-873.574c265.781,-63.046 604.423,43.045 804.611,258.92c126.49,136.403 188.682,330.642 169.171,510.147c-2.679,24.65 -18.313,56.495 -44.759,87.273c-41.441,48.229 -109.575,93.214 -200.384,104.181c-122.788,14.829 -351.392,-33.352 -511.224,-129.304c-102.781,-61.703 -177.824,-142.792 -171.602,-241.649c2.245,-35.677 18.607,-62.573 48.342,-82.155c36.237,-23.863 81.308,-18.54 129.383,-1.576c79.616,28.094 166.67,88.875 239.798,127.466c36.608,19.319 70.073,33.142 97.786,36.221c22.055,2.451 40.995,-1.575 56.254,-13c15.462,-11.578 27.634,-31.379 33.85,-62.753c22.144,-111.776 -54.542,-198.596 -168.381,-253.255c-97.942,-47.026 -222.916,-70.362 -328.856,-66.963c-72.595,2.329 -136.342,17.436 -177.5,45.037c-73.825,49.506 -119.91,138.859 -125.838,226.403c-9.043,133.553 59.169,254.204 155.982,341.335c85.663,77.097 186.182,134.266 288.802,185.38c53.144,26.47 353.5,149.722 457.206,237.494c11.066,9.366 19.733,18.162 25.087,26.405c3.009,4.635 5.36,8.547 4.392,12.321c-0.647,2.525 -3.021,4.281 -6.167,6.234c-4.027,2.5 -9.224,4.655 -15.616,6.598c-32.416,9.853 -90.826,13.093 -183.407,8.111c-100.317,-5.398 -242.152,-12.806 -344.978,-43.395l0,0Z" style="fill:#7e4021;"/><path d="M1438.23,2391.47c-31.012,3.749 -86.47,-0.296 -134.283,-18.799c-84.276,-32.612 -165.639,-98.865 -272.832,-157.077c-234.88,-127.552 -432.454,-283.467 -492.623,-383.962c-188.387,-314.646 6.01,-650.255 348.495,-621.386c670.941,56.557 558.409,453.73 516.486,509.627c-110.256,147.008 -312.793,-5.526 -467.987,-137.353c-79.552,-67.574 -168.44,-71.383 -156.68,-79.127c168.187,-110.758 506.74,314.831 549.888,97.039c51.673,-260.83 -486.201,-367.343 -649.106,-258.101c-69.64,46.7 -112.9,131.106 -118.491,213.687c-8.692,128.369 57.448,244.072 150.502,327.821c84.541,76.087 183.808,132.405 285.084,182.849c77.552,38.628 677.129,282.546 441.547,324.782Z" style="fill:#f6a7bc;"/><path d="M1440.23,2408.02c0.315,-0.038 0.629,-0.085 0.941,-0.141c24.805,-4.447 41.492,-11.36 51.626,-19.283c9.614,-7.515 14.538,-16.286 16.093,-25.633c1.455,-8.744 -0.135,-18.373 -5.305,-28.556c-5.72,-11.268 -16.326,-23.814 -31.147,-36.904c-101.183,-89.362 -413.591,-218.468 -468.325,-245.73c-99.931,-49.774 -197.946,-105.241 -281.364,-180.318c-89.297,-80.367 -153.364,-191.122 -145.024,-314.307c5.256,-77.619 45.691,-157.077 111.146,-200.97c37.036,-24.837 94.679,-37.31 160.004,-39.406c100.941,-3.238 220.039,18.89 313.359,63.697c98.685,47.382 169.307,119.831 150.111,216.728c-4.142,20.903 -10.828,34.833 -21.13,42.547c-11.455,8.576 -26.619,8.513 -44.256,4.563c-21.935,-4.913 -47.048,-16.227 -74.249,-30.581c-74.436,-39.282 -163.222,-100.823 -244.263,-129.42c-59.035,-20.831 -114.31,-24.132 -158.808,5.171c-7.101,4.677 -8.505,10.573 -8.552,15.112c-0.045,4.26 2.439,14.13 16.099,19.163c18.62,6.86 86.046,19.265 147.51,71.474c95.072,80.758 207.897,168.57 306.98,193.923c71.504,18.296 136.388,5.719 185.131,-59.272c26.749,-35.666 82.151,-202.147 -33.222,-342.488c-74.121,-90.162 -220.16,-170.562 -495.198,-193.746c-178.65,-15.06 -318.424,65.459 -389.221,190.258c-70.446,124.182 -72.755,292.98 25.027,456.297c61.011,101.902 260.799,260.708 498.968,390.047c107.918,58.605 189.925,125.141 274.771,157.974c50.661,19.604 109.439,23.773 142.298,19.801Zm-617.034,-904.843c28.611,-5.428 60.656,0.741 94.159,12.563c79.616,28.094 166.67,88.875 239.798,127.466c36.608,19.319 70.073,33.142 97.786,36.221c22.055,2.451 40.995,-1.575 56.254,-13c15.462,-11.578 27.634,-31.379 33.85,-62.753c22.144,-111.776 -54.542,-198.596 -168.381,-253.255c-97.942,-47.026 -222.916,-70.362 -328.856,-66.963c-72.595,2.329 -136.342,17.436 -177.5,45.037c-73.825,49.506 -119.91,138.859 -125.838,226.403c-9.043,133.553 59.169,254.204 155.982,341.335c85.663,77.097 186.182,134.266 288.802,185.38c53.84,26.816 361.589,152.974 461.12,240.877c9.377,8.281 16.756,16.08 21.435,23.431c2.733,4.293 4.797,7.998 4.202,11.573c-0.48,2.883 -3.185,4.762 -6.818,6.925c-7.496,4.462 -18.531,7.865 -33.422,10.565l-0.015,0.002c-29.254,3.426 -81.07,-0.546 -125.792,-17.852c-83.707,-32.392 -164.425,-98.362 -270.893,-156.18c-231.592,-125.767 -426.951,-278.79 -486.277,-377.877c-90.606,-151.331 -89.909,-307.659 -24.633,-422.727c64.926,-114.45 193.592,-187.3 357.428,-173.49c261.717,22.062 401.717,95.904 472.249,181.699c101.609,123.599 55.862,269.909 32.304,301.32c-39.462,52.617 -92.312,61.792 -150.201,46.979c-95.008,-24.31 -202.502,-109.599 -293.663,-187.035c-44.152,-37.503 -90.998,-56.191 -123.08,-66.644Z" style="fill:#7e4021;"/></g></svg>