<?xml version="1.0" encoding="UTF-8" standalone="no"?><!DOCTYPE svg PUBLIC "-//W3C//DTD SVG 1.1//EN" "http://www.w3.org/Graphics/SVG/1.1/DTD/svg11.dtd"><svg width="100%" height="100%" viewBox="0 0 2773 2639" version="1.1" xmlns="http://www.w3.org/2000/svg" xmlns:xlink="http://www.w3.org/1999/xlink" xml:space="preserve" xmlns:serif="http://www.serif.com/" style="fill-rule:evenodd;clip-rule:evenodd;stroke-linejoin:round;stroke-miterlimit:2;"><g id="Book-Yellow"><path d="M279.556,2487c34.919,22.297 225.511,-112.692 253.55,-131.54c131.493,-88.39 248.336,-182.339 381.336,-268.398c67.106,-43.421 161.864,-79.991 218.919,-137.046c0.373,-0.373 -25.698,-121.545 -34.416,-173.854c-33.803,-202.817 -71.271,-411.563 -134.577,-607.448c-6.839,-21.161 -65.244,-204.401 -79.789,-205.723c-29.443,-2.677 -101.981,252.197 -112.971,285.59c-102.956,312.848 -366.168,933.86 -492.052,1238.42Z" style="fill:#ffe6d8;"/><path d="M264.153,2480.63c-3.085,7.465 -0.374,16.067 6.433,20.414c5.603,3.578 13.311,5.594 22.996,4.984c14.137,-0.89 34.661,-7.884 58.006,-19.001c70.55,-33.594 170.971,-104.398 190.816,-117.738c131.411,-88.334 248.176,-182.232 381.092,-268.237c68.012,-44.008 163.825,-81.429 221.65,-139.254c0.196,-0.196 6.285,-6.643 3.927,-18.565c-4.018,-20.314 -25.865,-122.872 -33.688,-169.814c-33.936,-203.617 -71.602,-413.176 -135.158,-609.833c-5.529,-17.108 -44.473,-139.024 -67.33,-187.799c-5.962,-12.723 -11.754,-21.218 -15.529,-24.45c-4.017,-3.439 -8.017,-4.651 -11.28,-4.947c-5.268,-0.479 -11.328,0.873 -17.454,5.615c-5.99,4.637 -13.387,14.519 -20.821,28.721c-34.333,65.59 -83.158,235.663 -92.036,262.642c-102.861,312.559 -365.856,932.985 -491.624,1237.26Zm617.685,-1492.5l0.876,1.797c22.378,47.752 60.382,167.155 65.795,183.905c63.056,195.112 100.326,403.045 133.996,605.062c7.322,43.933 26.843,136.302 32.768,165.396c-56.767,52.827 -146.095,87.495 -209.885,128.771c-133.083,86.113 -250.004,180.114 -381.58,268.559c-19.41,13.048 -117.545,82.448 -186.551,115.307c-12.076,5.75 -23.173,10.358 -32.664,13.157c129.334,-312.208 382.351,-910.929 482.847,-1216.3c7.65,-23.245 45.246,-154.429 77.186,-230.125c6.058,-14.358 11.857,-26.628 17.212,-35.528Z" style="fill:#7d3f21;"/><path d="M1138.11,1127.87c193.48,435.672 599.238,1438.86 596.944,1439.52c-39.963,11.613 -116.491,47.029 -157.603,49.447c-89.127,5.243 -166.975,13.442 -252.653,-13.876c-11.887,-3.79 -207.053,-489.803 -336.722,-943.361c-72.113,-252.239 -111.163,-478.16 -128.886,-595.593c-6.589,-43.659 -13.109,-72.706 -14.772,-85.951c-0.02,-0.16 -75.262,258.257 -107.99,373.691c-85.501,301.565 -390.812,1067.95 -423.063,1121.77c-20.456,34.14 -111.03,17.07 -235.876,-24.545c-4.917,-1.639 244.243,-594.832 333.031,-777.758c127.567,-262.818 144.699,-387.236 260.608,-656.1c42.586,-98.782 187.286,-425.181 197.297,-430.991c51.35,-29.805 120.076,54.323 121.58,56.66c76.833,119.346 90.723,357.873 148.105,487.084Z" style="fill:#fff;"/><path d="M840.365,1051.54c0.775,4.779 1.558,9.767 2.342,14.961c17.785,117.846 56.974,344.561 129.341,597.688c117.043,409.393 287.361,845.126 328.931,930.955c4.603,9.503 8.186,15.425 10.097,17.711c3.276,3.919 6.62,5.343 8.656,5.992c87.735,27.973 167.428,20.003 258.695,14.635c42.031,-2.473 120.418,-38.208 161.275,-50.08c1.683,-0.489 15.594,-5.77 11.336,-20.852c-0.552,-1.952 -4.473,-12.361 -11.415,-29.97c-65.832,-167 -412.071,-1019.18 -586.284,-1411.47l0,0c-28.322,-63.774 -45.735,-154.573 -65.724,-244.108c-20.716,-92.788 -44.299,-184.186 -83.599,-245.233c-0.995,-1.546 -28.467,-35.792 -62.68,-55.656c-26.002,-15.097 -55.462,-21.383 -81.281,-6.397c-1.452,0.843 -4.368,2.927 -7.329,7.364c-3.451,5.172 -10.37,18.383 -19.573,37.345c-43.607,89.849 -143.205,314.937 -177.333,394.099c-115.786,268.58 -132.865,392.881 -260.296,655.42c-80.053,164.928 -290.24,662.766 -327.886,761.881c-4.975,13.098 -6.875,21.182 -6.89,22.774c-0.104,11.205 7.347,14.819 11.467,16.192c90.353,30.118 163.482,47.148 206.399,42.94c24.36,-2.388 40.642,-11.616 49.045,-25.64c32.368,-54.021 338.987,-823.125 424.801,-1125.79c22.013,-77.641 63.266,-219.991 87.905,-304.76Zm872.992,1505.42c-41.012,14.427 -101.964,41.194 -136.888,43.248c-85.1,5.006 -159.686,13.181 -241.174,-11.435c-3.35,-6.706 -12.427,-25.248 -22.309,-48.376c-60.065,-140.56 -205.384,-523.329 -308.888,-885.369c-71.86,-251.352 -110.77,-476.479 -128.431,-593.499c-6.558,-43.451 -13.06,-72.357 -14.715,-85.539c-0.086,-0.689 -26.007,-24.055 -32.504,-2.705c-0.14,0.459 -0.895,3.03 -2.176,7.414c-12.502,42.801 -76.416,262.584 -105.882,366.511c-85.189,300.465 -389.192,1064.12 -421.325,1117.75c-2.158,3.602 -6.113,5.658 -11.079,7.211c-7.93,2.481 -18,3.224 -29.931,2.793c-38.379,-1.388 -93.521,-15.211 -159.513,-36.607l0.257,-0.695c37.512,-98.761 246.945,-594.823 326.712,-759.161c127.702,-263.096 144.888,-387.632 260.919,-656.78c34.01,-78.889 133.255,-303.202 176.711,-392.741c7.168,-14.77 14.093,-27.558 16.473,-31.893c14.542,-6.622 30.543,-0.531 44.986,7.854c27.845,16.167 50.578,43.614 51.388,44.872c37.533,58.301 59.311,145.839 79.094,234.453c20.51,91.868 38.733,184.938 67.793,250.374l-0,0c174.052,391.924 519.966,1243.32 585.737,1410.16c1.767,4.482 3.365,8.581 4.745,12.154Z" style="fill:#7d3f21;"/><path d="M1447.38,2608.62c-57.998,-141.15 -173.764,-383.591 -261.405,-647.036c-141.859,-426.423 -271.6,-879.705 -306.256,-1330.23c-0.706,-9.171 -8.725,-16.045 -17.896,-15.339c-9.172,0.705 -16.045,8.724 -15.339,17.896c34.862,453.208 165.159,909.237 307.862,1338.2c87.928,264.309 204.013,507.57 262.202,649.183c3.496,8.508 13.242,12.577 21.751,9.081c8.508,-3.496 12.577,-13.242 9.081,-21.75Z" style="fill:#7d3f21;"/><path d="M227.377,2475.01c117.356,-245.381 361.613,-906.118 447.858,-1163.28c67.23,-200.462 153.347,-411.955 207.746,-565.567c3.071,-8.671 -1.476,-18.204 -10.147,-21.275c-8.671,-3.07 -18.203,1.476 -21.274,10.147c-54.45,153.755 -140.636,365.448 -207.928,566.096c-85.963,256.318 -329.354,914.917 -446.326,1159.5c-3.969,8.298 -0.454,18.258 7.845,22.227c8.298,3.968 18.257,0.453 22.226,-7.845Z" style="fill:#7d3f21;"/><path d="M869.216,1023.45c-9.939,-52.466 -20.025,-137.293 -27.198,-175.112c-1.714,-9.038 -10.443,-14.983 -19.48,-13.269c-9.038,1.714 -14.983,10.443 -13.269,19.48c7.172,37.818 17.257,122.641 27.196,175.105c1.712,9.038 10.44,14.986 19.478,13.274c9.037,-1.713 14.985,-10.44 13.273,-19.478Z" style="fill:#7d3f21;"/><path d="M1588.7,2607.41c-96.565,-180.372 -182.537,-383.364 -269.571,-568.478c-196.161,-417.219 -311.945,-947.78 -382.12,-1399.34c-1.412,-9.089 -9.938,-15.322 -19.028,-13.91c-9.089,1.413 -15.322,9.939 -13.91,19.029c70.633,454.506 187.451,988.457 384.893,1408.4c87.273,185.624 173.518,389.159 270.349,570.028c4.342,8.109 14.451,11.168 22.56,6.827c8.11,-4.342 11.169,-14.451 6.827,-22.56Z" style="fill:#7d3f21;"/><path d="M833.197,599.979c38.089,-112.945 311.314,-192.932 451.785,-271.832c75.861,-42.609 535.542,-315.565 619.459,-310.629c27.418,1.613 60.644,31.889 83.204,45.425c92.033,55.22 78.318,90.332 95.198,202.689c12.804,85.226 29.984,169.587 53.221,252.611c44.449,158.813 109.374,312.193 181.4,460.247c133.587,274.594 253.125,567.431 428.614,818.699c7.526,10.776 12.207,19.049 6.746,32.383c-54.7,133.571 -861.712,743.49 -1020.79,778.072c-39.638,8.617 -91.127,-70.378 -111.597,-103.097c-203.599,-325.421 -464.323,-960.207 -619.469,-1729.48c-21.533,-106.767 -31.685,-139.485 -167.773,-175.087Z" style="fill:#ffce7b;"/><path d="M817.404,594.653c-1.476,4.379 -1.069,9.174 1.126,13.241c2.194,4.066 5.978,7.039 10.449,8.209c63.259,16.549 97.726,31.423 118.402,55.572c20.713,24.19 27.225,56.971 37.251,106.685c155.65,771.773 417.418,1408.55 621.678,1735.03c15.082,24.108 46.461,71.841 78.063,95.345c17.325,12.886 35.192,18.679 51.203,15.198c29.619,-6.439 81.131,-31.79 145.732,-70.448c146.22,-87.5 362.53,-243.303 544.8,-389.277c121.888,-97.615 228.568,-190.882 289.184,-256.475c27.641,-29.91 45.926,-54.677 52.956,-71.842c8.087,-19.747 2.64,-32.283 -8.506,-48.242c-174.993,-250.559 -294.081,-542.628 -427.291,-816.447c-71.59,-147.158 -136.157,-299.596 -180.337,-457.448c-23.052,-82.361 -40.088,-166.05 -52.789,-250.595c-17.941,-119.415 -5.291,-155.816 -103.105,-214.504c-13.573,-8.144 -31,-22.323 -48.705,-32.718c-14.254,-8.369 -28.816,-14.272 -42.095,-15.054c-11.445,-0.673 -29.131,2.753 -51.384,10.178c-29.882,9.97 -69.16,27.055 -113.299,48.31c-169.044,81.401 -410.709,224.362 -463.917,254.248c-84.24,47.316 -216.253,95.013 -316.604,149.992c-71.356,39.094 -126.57,82.882 -142.812,131.045Zm38.981,-5.607c20.257,-35.334 65.51,-66.435 119.847,-96.204c100.452,-55.035 232.587,-102.8 316.912,-150.163c52.997,-29.768 293.682,-172.2 462.055,-253.279c42.626,-20.526 80.529,-37.094 109.387,-46.722c16.907,-5.642 30.18,-9.033 38.876,-8.522c11.235,0.661 23.39,7.821 35.318,15.576c14.735,9.581 28.869,20.65 40.29,27.503c86.261,51.756 71.47,85.563 87.291,190.873c12.906,85.907 30.23,170.94 53.653,254.627c44.718,159.774 110.001,314.096 182.463,463.046c133.963,275.37 253.953,568.974 429.937,820.952c3.927,5.622 7.836,9.565 4.987,16.522c-6.099,14.893 -22.608,35.901 -46.589,61.852c-59.836,64.747 -165.223,156.723 -285.54,253.08c-181.038,144.986 -395.85,299.784 -541.08,386.692c-60.307,36.088 -108.047,60.468 -135.697,66.478c-4.476,0.974 -9.122,-0.549 -13.94,-2.929c-7.2,-3.556 -14.434,-9.267 -21.565,-16.026c-24.296,-23.026 -46.653,-57.884 -58.422,-76.694c-202.938,-324.365 -462.618,-957.161 -617.261,-1723.94c-11.506,-57.056 -20.835,-94.013 -44.605,-121.775c-21.649,-25.285 -55.572,-43.523 -116.316,-60.95l-0.001,0Z" style="fill:#7d3f21;"/><path d="M1427.35,1969.97c0.493,1.837 1.377,4.813 2.388,6.999c2.758,5.963 5.608,11.883 8.341,17.858c8.294,18.132 16.694,36.22 25.146,54.279c24.174,51.651 49.062,103.119 76.312,153.223c4.395,8.081 14.523,11.074 22.604,6.679c8.081,-4.395 11.073,-14.523 6.679,-22.604c-26.93,-49.515 -51.515,-100.384 -75.404,-151.427c-8.411,-17.972 -16.771,-35.972 -25.025,-54.016c-2.752,-6.017 -5.621,-11.979 -8.399,-17.984c-1.019,-2.205 -1.305,-4.705 -1.516,-5.252c-2.207,-5.732 -6.01,-7.911 -7.857,-8.884c-4.878,-2.573 -9.643,-2.569 -14.273,-0.617c-2.5,1.055 -7.199,3.288 -9.457,10.395c-1.23,3.871 -0.97,7.862 0.461,11.351Zm26.333,6.292l-0.138,0.115l0.052,-0.04l0.086,-0.075Zm4.691,-6.732c-0.987,2.632 -2.582,4.879 -4.574,6.63c1.567,-1.302 3.362,-3.322 4.574,-6.63Z" style="fill:#7d3f21;"/><path d="M1581.78,2281.03c1.353,3.388 3.356,8.247 4.418,10.189c4.006,7.323 8.057,14.624 12.241,21.848c12.99,22.428 27.097,44.142 41.095,65.942c4.97,7.74 15.289,9.989 23.029,5.019c7.741,-4.97 9.99,-15.289 5.02,-23.029c-13.723,-21.372 -27.565,-42.652 -40.3,-64.639c-4.048,-6.989 -7.966,-14.054 -11.842,-21.14c-1.408,-2.573 -3.467,-8.796 -4.816,-11.719c-1.54,-3.336 -3.313,-5.458 -4.299,-6.438c-5.566,-5.534 -11.442,-5.467 -15.52,-4.581c-3.054,0.664 -13.401,3.245 -13.359,17.395c0.013,4.293 1.652,8.205 4.333,11.153Z" style="fill:#7d3f21;"/><path d="M776.687,2049.64c-4.334,2.07 -7.747,5.988 -8.999,11.01c-2.225,8.925 3.214,17.978 12.14,20.203c1.934,0.482 5.966,1.261 11.096,-1.019c1.443,-0.642 6.942,-4.376 8.363,-5.348c37.045,-22.949 74.634,-44.497 112.542,-65.979c8.003,-4.535 10.819,-14.714 6.284,-22.717c-4.535,-8.003 -14.714,-10.818 -22.717,-6.283c-38.38,21.748 -76.432,43.57 -113.932,66.808c-0.29,0.18 -3.574,2.481 -4.777,3.325Z" style="fill:#7d3f21;"/><path d="M971.243,1963.97c26.838,-7.228 55.984,-24.986 81.395,-36.844c8.335,-3.89 11.945,-13.816 8.055,-22.151c-3.89,-8.336 -13.816,-11.945 -22.151,-8.055c-23.772,11.093 -50.859,28.102 -75.967,34.863c-8.882,2.392 -14.151,11.545 -11.759,20.427c2.392,8.882 11.545,14.152 20.427,11.76Z" style="fill:#7d3f21;"/><path d="M2026.7,115.66c-103.356,81.696 -405.28,237.969 -510.538,317.185c-7.35,5.531 -8.827,15.989 -3.295,23.339c5.531,7.349 15.989,8.826 23.338,3.294c105.397,-79.319 407.674,-235.864 511.165,-317.668c7.216,-5.704 8.444,-16.194 2.74,-23.41c-5.704,-7.217 -16.194,-8.445 -23.41,-2.74Z" style="fill:#7d3f21;"/><path d="M1370.22,505.005c-44.047,26.851 -87.943,54.118 -131.726,81.412c-7.806,4.866 -10.193,15.154 -5.327,22.96c4.866,7.806 15.155,10.193 22.961,5.327c43.689,-27.235 87.49,-54.444 131.442,-81.238c7.855,-4.788 10.344,-15.051 5.556,-22.906c-4.788,-7.854 -15.052,-10.343 -22.906,-5.555Z" style="fill:#7d3f21;"/><path d="M835.082,597.105c-4.603,-2.921 30.335,14.685 28.437,19.443c-7.79,19.533 -143.162,325.02 -182.118,419.334c-156.885,379.829 -586.131,1494.68 -624.698,1477.4c-6.394,-2.866 -41.832,-28.236 -39.073,-35.119c55.637,-138.796 122.099,-319.94 168.885,-425.475c146.214,-329.812 277.896,-665.884 422.166,-996.392c64.962,-148.822 159.413,-311.256 226.401,-459.187Z" style="fill:#edaf5f;"/><path d="M817.942,594.531c-66.891,146.847 -160.176,307.65 -224.536,455.093c-144.257,330.479 -275.927,666.522 -422.128,996.305c-46.847,105.674 -113.408,287.051 -169.118,426.029c-1.954,4.876 -2.258,13.502 4.705,22.454c9.217,11.851 37.025,31.387 43.02,34.075c4.727,2.119 10.502,2.7 17.112,-0.639c5.536,-2.798 15.463,-13.586 26.763,-33.141c99.204,-171.662 461.651,-1110.14 603.046,-1452.46c38.973,-94.357 174.4,-399.981 182.194,-419.523c1.861,-4.665 2.5,-13.838 -6.214,-21.978c-7.858,-7.339 -30.438,-18.986 -32.685,-19.738c-8.265,-2.767 -13.354,1.02 -14.726,1.941c-4.271,2.869 -6.992,6.641 -7.433,11.584Zm24.742,25.995l0.822,0.511c-25.308,58.67 -141.841,322.129 -177.509,408.482c-125.445,303.71 -425.096,1077.61 -559.682,1366.17c-22.466,48.168 -39.708,82.393 -50.706,97.416c-6.258,-4.358 -14.46,-10.706 -19.616,-15.983c54.961,-137.61 119.842,-314.108 165.758,-417.682c146.227,-329.841 277.923,-665.942 422.205,-996.479c62.517,-143.222 152.366,-299.053 218.728,-442.433Zm2.176,-36.914c2.764,1.949 4.228,4.078 5.021,5.831c-1.166,-2.258 -2.86,-4.268 -5.021,-5.831Z" style="fill:#7d3f21;"/></g></svg>