<?xml version="1.0" encoding="UTF-8" standalone="no"?><!DOCTYPE svg PUBLIC "-//W3C//DTD SVG 1.1//EN" "http://www.w3.org/Graphics/SVG/1.1/DTD/svg11.dtd"><svg width="100%" height="100%" viewBox="0 0 3167 2622" version="1.1" xmlns="http://www.w3.org/2000/svg" xmlns:xlink="http://www.w3.org/1999/xlink" xml:space="preserve" xmlns:serif="http://www.serif.com/" style="fill-rule:evenodd;clip-rule:evenodd;stroke-linejoin:round;stroke-miterlimit:2;"><g id="Bow-Purple"><path d="M1577.89,630.48c8.493,-64.191 104.058,-152.866 143.369,-199.751c292.518,-348.878 695.265,-517.145 1147.95,-345.031c212.75,80.889 274.427,364.793 274.427,364.793c-0,-0 -385.591,-354.784 -709.488,-93.947c-87.932,70.813 -220.394,159.099 -335.77,213.731c-178.381,84.466 -382.979,90.927 -520.486,60.205Z" style="fill:#d8bef1;"/><path d="M1561.37,628.294c-1.133,8.561 4.461,16.569 12.889,18.452c140.351,31.357 349.184,24.805 531.253,-61.408c116.512,-55.17 250.293,-144.303 339.091,-215.813c156.221,-125.806 327.388,-102.507 459.432,-48.399c133.951,54.889 228.317,141.63 228.317,141.63c5.348,4.92 13.268,5.808 19.573,2.195c6.305,-3.614 9.542,-10.897 7.999,-17.999c-0,0 -22.745,-104.991 -88.183,-206.908c-44.254,-68.923 -107.95,-136.216 -196.608,-169.925c-459.974,-174.886 -869.414,-4.595 -1166.64,349.902c-23.719,28.288 -67.773,71.73 -101.089,115.88c-24.06,31.883 -42.331,64.424 -46.032,92.393Zm36.626,-10.646c6.506,-19.475 20.091,-40.568 36.014,-61.669c32.946,-43.659 76.569,-86.568 100.023,-114.542c287.807,-343.259 683.862,-509.502 1129.25,-340.161c81.542,31.004 139.702,93.386 180.404,156.778c34.333,53.471 56.296,107.821 69.061,145.677c-41.617,-31.624 -111.226,-78.68 -196.078,-113.449c-141.726,-58.075 -325.302,-81.75 -492.978,53.281c-87.066,70.115 -218.21,157.555 -332.45,211.649c-167.704,79.41 -359.067,88.457 -493.25,62.436l-0,-0Z" style="fill:#7e4021;"/><path d="M1590.89,640.553c-9.559,-64.042 -106.586,-151.115 -146.671,-197.34c-298.278,-343.967 -703.767,-505.514 -1153.53,-325.898c-211.375,84.416 -268.324,369.306 -268.324,369.306c0,-0 379.639,-361.146 707.828,-105.73c89.097,69.34 223.009,155.412 339.277,208.118c179.761,81.489 384.438,84.547 521.416,51.544Z" style="fill:#d8bef1;"/><path d="M1594.79,656.756c8.395,-2.023 13.854,-10.123 12.58,-18.664c-4.165,-27.904 -22.976,-60.136 -47.562,-91.615c-34.046,-43.59 -78.816,-86.294 -103.001,-114.184c-303.082,-349.506 -715.297,-512.965 -1172.3,-330.456c-88.085,35.178 -150.654,103.521 -193.756,173.171c-63.734,102.991 -84.73,208.346 -84.73,208.346c-1.425,7.126 1.933,14.354 8.297,17.862c6.364,3.509 14.268,2.489 19.534,-2.52c-0,0 92.91,-88.297 225.93,-145.406c131.126,-56.296 301.882,-82.438 460.174,40.754c89.974,70.023 225.218,156.92 342.632,210.145c183.477,83.173 392.39,86.253 532.201,52.567Zm-24.218,-28.7c-133.732,28.249 -325.219,22.385 -494.221,-54.226c-115.123,-52.188 -247.702,-137.434 -335.922,-206.092c-169.898,-132.224 -353.055,-105.501 -493.796,-45.078c-84.262,36.176 -153.08,84.382 -194.164,116.694c12.133,-38.064 33.19,-92.771 66.628,-146.805c39.643,-64.06 96.758,-127.401 177.774,-159.756c442.514,-176.723 841.278,-17.088 1134.75,321.339c23.917,27.58 68.247,69.757 101.914,112.863c16.272,20.833 30.206,41.697 37.035,61.061l-0,-0Z" style="fill:#7e4021;"/><path d="M3140.71,443.377c22.207,57.123 30.619,323.209 -312.62,501.156c-353.841,183.444 -763.014,68.633 -1063.5,-144.686c-73.648,-52.285 -184.095,-129.66 -179.282,-148.695c1.004,-3.973 287.585,11.892 445.03,-48.899c164.743,-63.61 316.791,72.518 497.17,42.558c171.103,-28.418 357.713,-156.145 438.334,-307.663c2.473,-4.648 124.317,58.381 174.864,106.229Z" style="fill:#a692ba;"/><path d="M3156.25,437.338c-0.894,-2.298 -2.286,-4.369 -4.077,-6.064c-26.058,-24.668 -70.418,-53.36 -108.659,-75.174c-36.136,-20.615 -67.365,-34.732 -74.153,-35.664c-11.223,-1.54 -16.231,5.139 -18.223,8.883c-78.399,147.343 -259.962,271.415 -426.35,299.051c-87.682,14.563 -168.4,-11.811 -247.296,-33.526c-84.627,-23.292 -167.247,-41.306 -253.147,-8.139c-139.832,53.99 -382.938,46.228 -430.873,47.09c-9.375,0.169 -14.768,1.939 -15.927,2.562c-5.613,3.016 -7.541,7.369 -8.385,10.71c-0.952,3.762 -1.002,8.248 0.672,13.335c1.676,5.092 5.87,11.944 12.837,19.668c28.646,31.758 112.363,90.828 172.283,133.367c305.333,216.763 721.262,332.298 1080.82,145.893c355.939,-184.531 343.512,-462.756 320.483,-521.992Zm-182.434,-80.156c31.553,14.034 112.241,58.937 152.586,95.649l0,0.001c20.212,61.395 18.183,308.849 -305.977,476.905c-348.13,180.483 -750.544,66.396 -1046.18,-143.48c-51.004,-36.21 -119.891,-84.525 -154.973,-116.749c-0.878,-0.806 -1.75,-1.636 -2.606,-2.482c79.321,-0.005 291.633,0.216 419.683,-49.225c78.844,-30.443 154.617,-12.198 232.295,9.181c83.41,22.957 168.904,49.667 261.602,34.271c171.211,-28.437 357.443,-153.769 443.567,-304.071Z" style="fill:#7e4021;"/><path d="M25.173,479.46c-21.255,57.484 -25.241,323.673 320.909,495.889c356.842,177.535 764.049,55.937 1060.94,-162.349c72.769,-53.502 181.914,-132.703 176.785,-151.655c-1.07,-3.956 -287.348,16.672 -445.782,-41.494c-165.778,-60.861 -315.541,77.775 -496.394,50.819c-171.551,-25.57 -360.259,-150.176 -443.388,-300.333c-2.55,-4.606 -123.329,60.44 -173.073,109.123Z" style="fill:#a692ba;"/><path d="M13.515,467.548c-1.762,1.725 -3.12,3.819 -3.975,6.132c-22.041,59.611 -29.84,338.003 329.118,516.591c362.602,180.401 776.553,57.966 1078.24,-163.843c59.205,-43.53 141.928,-103.984 170.042,-136.214c6.837,-7.838 10.916,-14.759 12.507,-19.879c1.59,-5.113 1.465,-9.598 0.451,-13.344c-0.9,-3.326 -2.9,-7.646 -8.562,-10.568c-1.169,-0.604 -6.591,-2.285 -15.967,-2.297c-47.943,-0.065 -290.886,11.738 -431.597,-39.92c-86.439,-31.734 -168.748,-12.349 -252.977,12.347c-78.523,23.023 -158.792,50.736 -246.703,37.633c-166.825,-24.866 -350.426,-145.902 -431.265,-291.921c-1.54,-2.783 -9.501,-12.159 -24.185,-7.045c-22.664,7.893 -128.736,66.929 -175.127,112.328Zm177.101,-77.047c88.612,148.849 276.902,271.068 448.561,296.654c92.942,13.853 177.98,-14.275 260.997,-38.615c77.311,-22.668 152.77,-42.171 232.11,-13.043c128.854,47.305 341.133,43.555 420.443,42.241c-0.841,0.86 -1.699,1.704 -2.564,2.525c-34.542,32.803 -102.615,82.257 -153.011,119.309c-292.102,214.763 -692.563,335.525 -1043.65,160.855c-326.908,-162.643 -333.052,-410.029 -313.864,-471.752l0.001,-0.001c39.728,-37.377 119.659,-83.616 150.974,-98.173Z" style="fill:#7e4021;"/><path d="M1589.57,646.009c10.573,0.356 -0.128,21.198 0.958,31.721c5.196,50.335 20.017,99.619 35.26,147.684c36.125,113.914 85.73,223.568 150.901,323.887c186.673,287.352 513.444,490.073 752.873,731.968c81.194,82.031 255.777,342.784 341.039,390.883c48.733,27.493 126.184,-302.648 142.783,-380.407c18.66,-87.416 -16.807,-156.081 -72.21,-226.012c-324.579,-409.703 -961.513,-665.787 -1351.6,-1019.72Z" style="fill:#d8bef1;"/><path d="M1576.77,656.681c-3.903,-4.672 -4.981,-11.179 -2.647,-16.936c2.628,-6.478 9.019,-10.629 16.006,-10.394c5.62,0.19 9.735,2.116 12.894,4.683c2.098,1.704 3.894,3.824 5.24,6.385c193.47,173.532 446.084,323.587 690.674,480.512c250.187,160.515 491.952,328.266 655.299,534.452c58.709,74.105 95.219,147.209 75.446,239.841c-13.481,63.154 -66.958,290.146 -112.957,364.184c-8.927,14.368 -18.282,23.687 -26.597,27.758c-9.589,4.694 -18.86,4.5 -27.718,-0.497c-35.205,-19.861 -85.559,-74.45 -138.198,-138.699c-76.129,-92.919 -158.012,-205.991 -206.498,-254.976c-240.197,-242.672 -567.731,-446.339 -755.004,-734.613c-65.986,-101.575 -116.234,-212.59 -152.811,-327.929c-15.584,-49.14 -30.64,-99.55 -35.951,-151.011c-0.452,-4.37 0.189,-9.967 1.403,-15.734c0.423,-2.009 0.969,-4.744 1.419,-7.026Zm31.336,28.054c191.621,166.455 435.902,312.242 672.831,464.251c246.948,158.437 485.939,323.58 647.172,527.096c52.097,65.76 86.521,129.983 68.974,212.184c-11.504,53.889 -52.427,230.243 -92.555,321.852c-3.303,7.54 -6.595,14.484 -9.867,20.703c-4.783,9.092 -9.42,16.549 -14.019,21.79c-1.171,1.335 -2.917,2.809 -4.077,3.729c-32.854,-19.643 -78.32,-70.605 -126.569,-129.495c-76.853,-93.804 -159.644,-207.849 -208.591,-257.3c-238.659,-241.119 -564.668,-442.894 -750.742,-729.323c-64.356,-99.065 -113.317,-207.357 -148.991,-319.846c-14.021,-44.213 -27.763,-89.46 -33.566,-135.641Z" style="fill:#7e4021;"/><path d="M1685.76,581.886c19.586,-6.579 103.454,-44.881 131.836,-78.912c5.891,-7.064 4.939,-17.583 -2.125,-23.474c-7.064,-5.892 -17.583,-4.94 -23.474,2.125c-25.035,30.018 -99.574,62.86 -116.851,68.663c-8.719,2.929 -13.421,12.386 -10.492,21.106c2.929,8.72 12.386,13.421 21.106,10.492Z" style="fill:#7e4021;"/><path d="M1455.3,580.352c-43.161,-6.675 -99.728,-22.201 -122.164,-31.121c-22.229,-8.837 -43.643,-18.801 -62.969,-32.878c-7.436,-5.416 -17.869,-3.776 -23.285,3.659c-5.415,7.436 -3.776,17.869 3.66,23.285c21.597,15.731 45.438,27.033 70.279,36.909c31.239,12.42 124.264,36.654 167.236,36.63c10.174,-0.005 18.207,-1.477 23.426,-3.77c4.595,-2.02 7.899,-4.794 10.188,-7.819c3.796,-5.019 6.655,-13.066 -0.844,-22.257c-2.164,-2.652 -8.058,-7.273 -16.491,-12.389c-13.951,-8.463 -36.465,-20.521 -50.843,-31.102c-9.244,-6.804 -17.976,-14.299 -25.939,-22.596c-6.37,-6.637 -16.929,-6.853 -23.566,-0.484c-6.636,6.37 -6.853,16.929 -0.483,23.566c9.285,9.673 19.451,18.427 30.23,26.36c6.151,4.527 13.753,9.325 21.565,14.007Z" style="fill:#7e4021;"/><path d="M1586.76,643.367c-9.866,3.816 7.098,19.976 9.535,30.27c11.659,49.241 13.882,100.657 15.305,151.062c3.374,119.457 -7.382,239.327 -35.91,355.506c-81.713,332.777 -323.57,631.742 -470.059,938.956c-49.676,104.181 -128.726,407.863 -193.41,481.342c-36.971,41.998 -218.752,-244.265 -260.016,-312.231c-46.388,-76.406 -35.492,-152.918 -6.189,-237.187c171.674,-493.696 688.857,-945.122 940.744,-1407.72Z" style="fill:#d8bef1;"/><path d="M1567.27,644.241c0.429,-2.861 1.428,-5.454 2.847,-7.754c2.139,-3.463 5.39,-6.636 10.635,-8.664c6.521,-2.522 13.922,-0.706 18.535,4.547c4.099,4.668 5.222,11.167 3.074,16.864c1.176,2.007 2.592,4.409 3.652,6.167c3.044,5.047 5.491,10.121 6.503,14.396c11.92,50.343 14.292,102.899 15.747,154.431c3.417,120.952 -7.499,242.319 -36.384,359.951c-81.975,333.846 -324.242,633.955 -471.201,942.155c-29.665,62.213 -69.776,195.933 -111.087,308.73c-28.564,77.993 -58.148,146.112 -84.857,176.452c-6.72,7.634 -15.411,10.868 -26.011,9.591c-9.191,-1.108 -21.092,-6.829 -34.25,-17.46c-67.801,-54.776 -192.999,-251.526 -226.512,-306.726c-49.156,-80.965 -38.736,-162.012 -7.685,-251.31c86.397,-248.457 259.492,-486.425 442.92,-720.332c179.325,-228.675 368.487,-453.504 494.074,-681.038Zm14.733,41.796c9.717,45.518 11.631,92.768 12.94,139.132c3.332,117.963 -7.265,236.336 -35.435,351.061c-81.451,331.709 -322.9,629.53 -468.918,935.758c-29.947,62.805 -70.595,197.742 -112.299,311.612c-26.176,71.474 -52.333,134.548 -76.89,163.918c-1.593,-0.581 -4.212,-1.623 -6.081,-2.739c-10.099,-6.03 -22.15,-17.255 -35.549,-31.69c-68.04,-73.301 -164.72,-226.364 -193.316,-273.467c-43.621,-71.847 -32.249,-143.821 -4.694,-223.063c85.277,-245.24 256.611,-479.832 437.665,-710.711c173.708,-221.512 356.407,-439.568 482.577,-659.811Z" style="fill:#7e4021;"/><path d="M1673.16,562.07c-12.772,-44.876 -74.939,-51.34 -87.026,-50.181c-37.84,3.629 -69.782,24.022 -71.618,61.747c-1.494,30.681 14.972,89.572 31.64,121.005c15.913,30.01 50.416,70.233 63.09,70.294c16.391,0.079 40.844,-61.542 49.446,-83.232c13.939,-35.147 26.108,-78.737 14.468,-119.633Z" style="fill:#e9d4ff;"/><path d="M1689.19,557.508c-6.46,-22.7 -22.561,-37.935 -40.96,-47.582c-25.537,-13.391 -55.201,-15.441 -63.688,-14.627c-46.533,4.463 -84.415,31.134 -86.673,77.527c-1.599,32.845 15.718,95.972 33.562,129.623c12.001,22.631 33.857,50.619 50.549,65.418c10.753,9.534 21.028,13.704 27.186,13.734c4.145,0.02 8.563,-1.061 13.026,-3.642c5.302,-3.065 11.348,-9.088 17.078,-17.437c14,-20.397 28.602,-56.757 34.915,-72.675c15.176,-38.266 27.678,-85.813 15.005,-130.339Zm-81.037,188.371c-2.909,-2.242 -6.984,-5.556 -10.109,-8.742c-13.192,-13.449 -28.295,-33.578 -37.164,-50.304c-15.492,-29.215 -31.106,-83.87 -29.718,-112.387c1.416,-29.077 27.397,-43.169 56.563,-45.966c5.003,-0.48 20.31,0.956 35.749,6.818c14.08,5.346 28.835,14.394 33.656,31.334c10.607,37.268 -1.229,76.898 -13.931,108.926c-4.973,12.54 -15.395,38.953 -26.388,58.043c-2.431,4.222 -6.165,9.143 -8.658,12.278Z" style="fill:#7e4021;"/></g></svg>