<?xml version="1.0" encoding="UTF-8" standalone="no"?><!DOCTYPE svg PUBLIC "-//W3C//DTD SVG 1.1//EN" "http://www.w3.org/Graphics/SVG/1.1/DTD/svg11.dtd"><svg width="100%" height="100%" viewBox="0 0 1898 1708" version="1.1" xmlns="http://www.w3.org/2000/svg" xmlns:xlink="http://www.w3.org/1999/xlink" xml:space="preserve" xmlns:serif="http://www.serif.com/" style="fill-rule:evenodd;clip-rule:evenodd;stroke-linejoin:round;stroke-miterlimit:2;"><g id="Bow-Yellow"><path d="M936.852,447.243c10.372,-37.367 74.422,-82.018 101.634,-106.559c202.488,-182.612 455.344,-248.942 709.529,-109.239c119.461,65.656 132.448,239.167 132.448,239.167c-0,0 -199.212,-242.469 -412.994,-114.683c-58.038,34.692 -143.939,76.047 -216.91,98.861c-112.818,35.273 -234.703,22.101 -313.707,-7.547Z" style="fill:#ffce7b;"/><path d="M920.793,442.785c-2.31,8.321 2.118,17.027 10.203,20.062c81.731,30.672 207.823,44.341 324.537,7.85c74.17,-23.189 161.495,-65.2 220.487,-100.462c100.579,-60.12 197.709,-32.496 269.716,9.512c73.787,43.046 121.849,101.445 121.849,101.445c4.613,5.616 12.333,7.594 19.079,4.89c6.745,-2.704 10.961,-9.467 10.419,-16.714c-0,0 -4.825,-65.298 -35.701,-132.344c-21.071,-45.754 -54.22,-92.089 -105.34,-120.185c-261.021,-143.46 -520.785,-76.055 -728.718,111.468c-16.48,14.862 -46.319,37.06 -69.835,60.564c-17.849,17.84 -31.929,36.738 -36.696,53.914Zm38.867,-5.271c5.374,-8.279 13.016,-16.695 21.393,-25.067c23.081,-23.069 52.42,-44.799 68.595,-59.386c197.042,-177.701 442.989,-242.956 690.339,-107.01c44.449,24.429 72.797,65.133 91.118,104.916c11.329,24.601 18.839,48.939 23.77,69.258c-22.639,-21.058 -54.298,-47.075 -92.343,-69.27c-81.044,-47.281 -190.411,-76.998 -303.614,-9.332c-57.084,34.122 -141.562,74.82 -213.332,97.26c-101.147,31.623 -209.844,22.952 -285.926,-1.369l-0,0Z" style="fill:#7e4021;"/><path d="M943.723,454.296c-0.347,-38.777 -50.658,-98.485 -70.591,-129.232c-148.325,-228.797 -375.398,-358.311 -657.079,-289.157c-132.384,32.501 -189.836,196.738 -189.836,196.738c-0,0 255.179,-182.647 428.603,-3.884c47.082,48.531 119.352,110.709 183.932,151.632c99.845,63.271 220.986,82.094 304.971,73.903Z" style="fill:#ffce7b;"/><path d="M945.341,470.884c8.594,-0.838 15.125,-8.102 15.048,-16.737c-0.16,-17.824 -8.868,-39.723 -21.492,-61.574c-16.632,-28.79 -39.709,-57.955 -51.78,-76.576c-152.314,-234.949 -385.781,-367.29 -675.038,-296.276c-56.65,13.908 -100.662,50.085 -132.857,88.826c-47.177,56.771 -68.737,118.595 -68.737,118.595c-2.4,6.86 -0.078,14.483 5.738,18.841c5.816,4.358 13.785,4.445 19.694,0.215c0,-0 61.539,-43.97 143.954,-66.452c80.425,-21.94 181.395,-23.484 262.987,60.62c47.856,49.329 121.331,112.509 186.973,154.105c103.292,65.455 228.625,84.887 315.51,76.413Zm-21.131,-31.887c-79.785,3.8 -187.021,-15.957 -276.537,-72.682c-63.518,-40.25 -134.583,-101.427 -180.89,-149.159c-91.833,-94.66 -205.164,-94.262 -295.685,-69.568c-42.493,11.592 -79.807,28.529 -107.124,43.01c10.022,-18.351 23.574,-39.916 40.885,-60.746c27.993,-33.686 65.91,-65.666 115.167,-77.759c274.107,-67.294 494.785,59.393 639.121,282.037c11.848,18.277 34.563,46.859 50.887,75.117c5.924,10.255 11.128,20.362 14.176,29.75l0,-0Z" style="fill:#7e4021;"/><path d="M1879.32,466.15c8.424,35.725 -8.701,194.242 -227.066,271.258c-225.111,79.396 -458.252,-22.704 -618.742,-174.197c-39.336,-37.131 -98.412,-92.201 -93.976,-103.091c0.926,-2.273 169.581,30.953 268.014,7.982c102.997,-24.036 181.864,69.338 291.338,66.559c103.844,-2.635 225.138,-62.882 285.547,-146.049c1.853,-2.551 68.881,44.958 94.885,77.538Z" style="fill:#edaf5f;"/><path d="M1895.54,462.325c-0.566,-2.4 -1.657,-4.645 -3.195,-6.572c-16.354,-20.49 -48.081,-46.736 -71.352,-63.779c-11.608,-8.501 -21.212,-14.758 -25.956,-17.219c-3.073,-1.595 -5.472,-2.295 -6.874,-2.569c-9.548,-1.868 -14.649,3.1 -17.214,6.632c-57.629,79.34 -173.419,136.668 -272.485,139.182c-52.195,1.325 -96.938,-20.826 -141.065,-39.89c-49.585,-21.421 -98.456,-39.116 -153.637,-26.239c-86.64,20.219 -228.892,-4.563 -257.14,-8.004c-7.383,-0.899 -11.804,0.199 -12.784,0.561c-5.948,2.197 -8.444,6.227 -9.738,9.404c-2.02,4.959 -2.109,15.089 5.924,26.964c14.511,21.454 59.684,63.987 92.047,94.535c164.815,155.576 404.548,259.33 635.726,177.795c231.862,-81.777 246.688,-252.868 237.743,-290.801Zm-107.037,-51.702c17.736,12.727 56.981,41.841 75.261,62.894l0,0.001c5.813,39.209 -18.685,178.209 -217.055,248.173c-219.044,77.255 -445.592,-23.19 -601.757,-170.6c-22.613,-21.345 -51.859,-48.681 -71.441,-69.917c56.186,7.55 165.538,20.028 237.826,3.158c47.817,-11.158 89.875,5.815 132.842,24.378c48.426,20.92 97.851,44.066 155.131,42.613c103.473,-2.627 223.441,-60.071 289.193,-140.7Z" style="fill:#7e4021;"/><path d="M28.476,228.631c-17.384,32.328 -41.87,189.875 149.121,320.784c196.892,134.953 448.514,96.674 642.745,-8.119c47.606,-25.685 118.922,-63.589 117.455,-75.256c-0.306,-2.435 -171.813,-13.992 -260.947,-61.657c-93.266,-49.874 -193.613,19.906 -298.638,-11.112c-99.623,-29.423 -201.191,-119.01 -238.017,-214.977c-1.129,-2.944 -78.17,25.597 -111.719,50.337Z" style="fill:#edaf5f;"/><path d="M18.584,215.217c-1.984,1.464 -3.62,3.349 -4.787,5.521c-18.458,34.326 -48.419,203.424 154.378,342.425c202.198,138.59 460.615,100.418 660.08,-7.199c39.167,-21.131 93.809,-50.523 113.378,-67.49c10.833,-9.392 13.369,-19.199 12.701,-24.513c-0.428,-3.403 -1.795,-7.941 -6.973,-11.603c-0.852,-0.603 -4.839,-2.809 -12.203,-3.851c-28.175,-3.987 -171.994,-16.867 -250.449,-58.821c-49.968,-26.721 -101.753,-22.278 -155.193,-14.42c-47.557,6.993 -96.509,16.809 -146.583,2.021c-95.04,-28.069 -192.046,-113.412 -227.177,-204.964c-1.072,-2.793 -6.963,-13.197 -21.302,-10.351c-14.428,2.863 -83.851,29.634 -115.87,53.245Zm111.984,-16.716c42.643,94.9 143.656,181.437 242.923,210.754c54.952,16.229 108.684,6.664 160.874,-1.01c46.308,-6.809 91.326,-12.319 134.625,10.835c65.459,35.005 174.314,51.254 230.54,58.503c-24.411,15.444 -59.735,34.279 -87.102,49.045c-188.996,101.969 -433.823,140.356 -625.408,9.04c-173.502,-118.922 -161.189,-259.526 -145.427,-295.894l0,-0.001c23.107,-15.605 68.549,-33.569 88.975,-41.272Z" style="fill:#7e4021;"/><path d="M979.267,511.019c5.878,2.363 -4.409,11.906 -5.95,18.051c-7.373,29.395 -9.112,60.168 -10.365,90.342c-2.969,71.509 2.521,143.379 18.682,213.178c46.292,199.932 188.754,380.887 274.04,566.024c28.921,62.783 73.849,245.27 112.001,289.786c21.807,25.444 132.939,-144.541 158.189,-184.915c28.386,-45.387 22.469,-91.292 5.59,-141.989c-98.887,-297.012 -405.017,-571.453 -552.187,-850.477Z" style="fill:#ffce7b;"/><path d="M962.779,513.377c-0.697,-4.802 0.735,-9.777 4.111,-13.52c4.683,-5.192 12.107,-6.91 18.594,-4.302c7.5,3.015 10.825,8.055 11.877,13.99c73.24,136.61 184.258,272.115 289.356,409.857c108.456,142.145 210.569,286.708 260.55,436.829c18.561,55.749 23.943,106.182 -7.272,156.092c-20.713,33.119 -98.168,151.007 -139.617,183.594c-9.239,7.264 -17.675,10.891 -24.07,11.576c-8.742,0.936 -15.838,-1.888 -21.288,-8.247c-16.083,-18.766 -33.815,-60.561 -50.647,-108.476c-23.767,-67.66 -46.621,-147.811 -63.837,-185.183c-85.743,-186.129 -228.599,-368.233 -275.139,-569.237c-16.499,-71.258 -22.128,-144.626 -19.097,-217.63c1.299,-31.3 3.203,-63.211 10.851,-93.704c0.699,-2.786 3.536,-8.012 5.628,-11.639Zm22.154,42.383c73.542,127.787 176.895,254.913 275.283,383.862c106.123,139.085 206.519,280.248 255.425,427.139c15.197,45.647 21.651,87.02 -3.908,127.887c-17.381,27.792 -76.059,118.099 -117.109,161.162c-5.583,5.857 -10.778,10.78 -15.458,14.377c-0.898,0.69 -1.953,1.391 -2.959,2.015c-13.156,-18.747 -26.707,-53.544 -40.384,-92.48c-24.146,-68.738 -47.522,-150.113 -65.012,-188.081c-84.828,-184.145 -226.896,-363.95 -272.94,-562.81c-15.823,-68.342 -21.173,-138.712 -18.266,-208.728c0.887,-21.387 1.976,-43.093 5.328,-64.343Z" style="fill:#7e4021;"/><path d="M924.644,425.975c-5.767,2.623 4.935,11.698 6.748,17.769c8.674,29.038 11.783,59.702 14.378,89.79c6.151,71.307 3.867,143.349 -9.17,213.799c-37.342,201.795 -158.283,319.099 -267.786,603.731c-42.344,110.065 -43.626,222.251 -79.758,268.422c-20.652,26.39 -139.244,-138.477 -166.268,-177.686c-30.379,-44.078 -26.512,-90.202 -11.907,-141.6c85.562,-301.121 379.166,-588.923 513.763,-874.225Z" style="fill:#ffce7b;"/><path d="M906.502,425.309c0.787,-5.976 3.884,-11.159 11.243,-14.505c6.364,-2.894 13.857,-1.509 18.766,3.469c3.54,3.589 5.192,8.496 4.709,13.324c2.253,3.53 5.319,8.624 6.141,11.376c8.999,30.123 12.322,61.917 15.014,93.129c6.279,72.796 3.923,146.342 -9.386,218.264c-19.003,102.688 -59.098,183.949 -108.551,275.678c-48.313,89.613 -105.631,189.503 -160.069,331.004c-25.098,65.239 -35.497,131.258 -47.587,183.467c-8.823,38.095 -18.974,69.273 -34.601,89.243c-5.161,6.595 -12.125,9.732 -20.899,9.186c-6.42,-0.399 -15.009,-3.647 -24.561,-10.492c-42.86,-30.709 -125.488,-145.03 -147.656,-177.194c-33.406,-48.471 -30.276,-99.093 -14.216,-155.613c43.246,-152.199 138.819,-301.166 240.838,-447.999c98.859,-142.286 203.732,-282.601 270.815,-422.337Zm14.474,45.615c4.296,21.08 6.349,42.716 8.189,64.042c6.022,69.817 3.811,140.356 -8.953,209.335c-18.34,99.107 -57.386,177.395 -105.115,265.925c-48.869,90.645 -106.773,191.722 -161.838,334.854c-25.714,66.839 -36.564,134.425 -48.951,187.914c-6.73,29.059 -13.544,53.695 -24.478,70.701c-1.039,-0.581 -2.131,-1.238 -3.065,-1.892c-4.835,-3.385 -10.245,-8.071 -16.083,-13.674c-42.927,-41.193 -105.569,-128.797 -124.17,-155.787c-27.354,-39.688 -22.749,-81.307 -9.599,-127.586c42.315,-148.923 136.325,-294.418 236.148,-438.091c92.548,-133.202 190.137,-264.805 257.915,-395.741Z" style="fill:#7e4021;"/><path d="M1027.1,380.429c-32.204,-32.85 -71.442,13.845 -71.442,13.845c0,0 -36.129,-50.394 -72.14,-17.845c-30.669,27.722 -2.064,92.474 8.396,121.277c9.986,27.499 45.32,74.364 56.123,75.931c13.972,2.026 49.274,-46.058 59.203,-63.531c16.09,-28.312 46.848,-102.148 19.86,-129.677Z" style="fill:#ffce7b;"/><path d="M1039.01,368.762c-22.834,-23.292 -48.078,-19.083 -67.697,-8.351c-5.549,3.034 -10.557,6.62 -14.768,10.052c-4.08,-3.847 -9.005,-7.917 -14.558,-11.417c-19.019,-11.987 -44.335,-17.852 -69.637,5.019c-16.061,14.517 -21.006,36.403 -18.721,60.319c2.758,28.877 16.013,60.799 22.627,79.011c7.59,20.899 28.524,52.191 44.508,69.614c9.957,10.854 19.775,16.38 24.889,17.122c3.634,0.527 7.81,0.207 12.345,-1.443c5.194,-1.888 11.685,-6.126 18.408,-12.316c16.983,-15.635 37.86,-44.882 45.332,-58.031c10.338,-18.191 26.25,-53.96 31.147,-86.009c3.948,-25.835 0.102,-49.313 -13.875,-63.57Zm-88.675,185.696c-9.014,-10.82 -36.148,-44.268 -42.748,-62.442c-5.938,-16.35 -18.299,-44.876 -20.776,-70.802c-1.207,-12.635 -0.594,-24.751 7.891,-32.421c10.71,-9.68 21.461,-6.621 29.511,-1.548c10.732,6.764 17.908,16.74 17.908,16.74c2.999,4.183 7.762,6.746 12.905,6.943c5.143,0.198 10.089,-1.991 13.4,-5.932c0,0 7.841,-9.301 18.883,-15.341c8.055,-4.406 18.523,-7.121 27.898,2.442c7.629,7.782 6.882,21.098 4.727,35.199c-4.249,27.809 -18.206,58.792 -27.176,74.575c-5.56,9.784 -19.666,29.835 -32.859,43.915c-2.905,3.1 -6.766,6.401 -9.564,8.672Z" style="fill:#7e4021;"/></g></svg>