<?xml version="1.0" encoding="UTF-8" standalone="no"?><!DOCTYPE svg PUBLIC "-//W3C//DTD SVG 1.1//EN" "http://www.w3.org/Graphics/SVG/1.1/DTD/svg11.dtd"><svg width="100%" height="100%" viewBox="0 0 3550 1408" version="1.1" xmlns="http://www.w3.org/2000/svg" xmlns:xlink="http://www.w3.org/1999/xlink" xml:space="preserve" xmlns:serif="http://www.serif.com/" style="fill-rule:evenodd;clip-rule:evenodd;stroke-linejoin:round;stroke-miterlimit:2;"><g id="Bow-Blue"><path d="M555.885,811.211c-6.067,1.982 -44.613,1.465 -114.306,27.788c-73.751,27.854 -105.597,64.246 -170.777,108.08c-67.394,45.323 -138.607,81.238 -245.384,86.289c-29.546,1.398 67.013,117.001 64.494,141.899c-2.912,28.785 -78.36,210.79 -73.072,214.567c14.352,10.251 60.325,-37.332 68.402,-44.203c135.633,-115.376 273.415,-255.833 448.64,-307.719c56.354,-16.687 89.957,-0.989 91.755,-8.346c6.624,-27.107 -72.326,-193.538 -69.752,-218.355Z" style="fill:#86a8cb;"/><path d="M73.238,1174.31c-3.606,27.576 -63.629,173.367 -71.852,205.204c-1.697,6.567 -1.506,11.137 -1.12,13.096c1.105,5.618 4.13,8.813 6.887,10.783c4.828,3.448 10.805,5.118 17.849,4.374c5.61,-0.592 12.478,-3.046 19.73,-7.221c19.853,-11.427 45.385,-37.185 51.309,-42.224c133.922,-113.921 269.558,-253.202 442.573,-304.434c42.831,-12.682 71.854,-5.306 82.614,-5.573c13.662,-0.34 18.864,-7.698 20.599,-14.796c1.172,-4.795 1.153,-12.581 -0.882,-22.575c-3.344,-16.417 -11.936,-41.454 -22.135,-68.657c-14.641,-39.05 -32.583,-82.815 -41.493,-110.636c-2.846,-8.888 -5.197,-15.417 -4.854,-18.724c0.583,-5.614 -1.716,-11.142 -6.108,-14.688c-4.391,-3.545 -10.279,-4.627 -15.645,-2.875c-6.105,1.995 -44.88,1.548 -115.02,28.039c-75.146,28.382 -107.775,65.178 -174.189,109.842c-65.071,43.761 -133.774,78.594 -236.87,83.471c-9.346,0.442 -14.94,4.808 -18.36,10.614c-2.949,5.008 -4.431,13.205 -1.188,23.811c5.952,19.466 31.025,56.733 49.964,87.755c6.779,11.103 12.68,21.314 16.112,29.335c0.929,2.171 1.835,5.23 2.079,6.079Zm468.814,-344.759c0.936,3.747 2.107,7.855 3.52,12.267c9.033,28.204 27.184,72.584 42.027,112.171c8.178,21.814 15.341,42.11 19.182,57.139c0.212,0.831 0.412,1.69 0.599,2.557c-16.489,-1.07 -46.595,-1.125 -78.23,8.242c-177.435,52.54 -317.364,194.174 -454.707,311.005c-4.061,3.454 -17.932,17.531 -32.342,28.915c19.39,-55.041 62.195,-163.179 64.393,-184.906c0.644,-6.365 -2.069,-17.275 -8.678,-30.291c-10.983,-21.627 -32.373,-52.881 -47.372,-78.36c-3.59,-6.098 -7.126,-13.418 -9.742,-19.163c102.5,-7.645 172.779,-43.418 239.4,-88.222c63.947,-43.005 95.011,-78.991 167.366,-106.319c44.312,-16.736 75.959,-22.522 94.584,-25.035Z" style="fill:#7e4021;"/><path d="M2019.9,852.209c5.846,4.596 -63.559,85.687 -67.294,89.007c-122.404,108.803 -331.486,213.08 -498.434,133.999c-27.86,-13.196 120.374,-77.482 174.968,-104.014c55.279,-26.864 113.141,-47.773 168.598,-74.249c46.438,-22.17 108.088,-82.129 120.992,-70.055c18.501,17.308 57.573,41.087 101.17,25.312Z" style="fill:#86a8cb;"/><path d="M2030.2,839.107c-4.524,-3.556 -10.561,-4.528 -15.972,-2.57c-36.325,13.144 -68.697,-7.389 -84.112,-21.811c-6.103,-5.71 -16.723,-8.548 -30.838,-2.709c-24.039,9.945 -71.318,52.037 -108.722,69.895c-55.492,26.493 -113.388,47.417 -168.702,74.299c-44.802,21.773 -150.793,68.876 -176.88,93.56c-8.774,8.302 -11.264,16.728 -10.875,22.47c0.468,6.896 3.701,13.661 12.937,18.037c70.142,33.224 147.337,35.939 222.981,19.557c110.847,-24.006 218.301,-89.176 293.661,-156.162c3.588,-3.189 63.71,-73.8 71.198,-91.428c5.202,-12.245 -0.776,-20.072 -4.676,-23.138Zm-118.185,4.101c16.258,13.721 42.406,28.872 73.033,30.627c-17.698,22.711 -41.561,53.187 -43.516,54.924c-71.525,63.578 -173.363,125.713 -278.571,148.498c-62.804,13.601 -126.835,13.131 -185.992,-10.305c0.557,-0.404 1.115,-0.793 1.667,-1.162c36.985,-24.777 120.062,-61.265 157.788,-79.599c55.244,-26.847 113.071,-47.739 168.494,-74.198c28.516,-13.615 62.726,-41.019 88.313,-58.201c6.468,-4.344 14.671,-8.556 18.784,-10.584Z" style="fill:#7e4021;"/><path d="M2087.14,815.56c-6.685,13.218 83.861,67.277 94.029,72.405c113.072,57.019 240.099,72.008 364.723,79.095c182.096,10.354 366.24,-7.398 547.732,10.705c79.925,7.972 255.384,56.656 328.108,33.07c65.252,-21.163 -51.843,-108.552 -42.957,-122.461c21.169,-33.133 187.503,-204.956 148.78,-231.216c-16.896,-11.458 -350.385,41.725 -402.565,41.934c-131.893,0.527 -261.238,-26.568 -392.475,-31.502c-102.49,-3.853 -204.046,24.734 -303.151,47.048c-96.823,21.8 -317.583,-12.155 -342.224,100.922Z" style="fill:#86a8cb;"/><path d="M2071.16,810.657c-1.18,3.445 -1.458,7.331 -0.402,11.656c1.075,4.405 4.423,10.519 10.637,16.946c21.13,21.854 83.711,59.271 92.271,63.588c115.126,58.055 244.392,73.637 371.281,80.853c181.86,10.341 365.766,-7.43 547.024,10.649c47.835,4.772 129.973,24.188 203.703,33.856c52.185,6.842 100.394,8.475 131.201,-1.516c16.769,-5.439 25.207,-14.62 29.01,-24.586c5.042,-13.217 1.288,-30.477 -9.378,-48.13c-10.572,-17.498 -27.512,-36.2 -40.07,-51.007c-3.301,-3.893 -6.823,-8.632 -9.171,-11.902c26.646,-35.424 125.002,-141.372 147.19,-196.758c9.738,-24.306 5.327,-42.212 -7.545,-50.942c-2.345,-1.59 -7.069,-3.639 -14.386,-4.212c-7.91,-0.618 -21.718,-0.119 -39.661,1.335c-95.356,7.727 -316.343,41.772 -357.94,41.938c-131.661,0.527 -260.775,-26.565 -391.782,-31.49c-103.925,-3.907 -206.945,24.817 -307.438,47.443c-58.051,13.071 -160.689,6.063 -238.829,22.789c-58.825,12.592 -103.998,38.885 -115.715,89.49Zm1445.01,-138.113c-0.296,1.848 -0.743,4.078 -1.363,5.893c-2.537,7.417 -6.965,16.009 -12.603,25.409c-36.877,61.482 -122.687,152.41 -137.474,175.555c-3.179,4.975 -4.87,12.764 -0.139,22.497c5.551,11.418 26.756,33.077 43.548,55.093c6.799,8.915 12.841,17.834 15.629,26.046c0.921,2.714 1.909,5.164 0.927,7.292c-1.085,2.351 -4.056,3.339 -8.105,4.652c-27.373,8.878 -70.216,6.253 -116.584,0.173c-74.097,-9.716 -156.654,-29.178 -204.727,-33.973c-181.728,-18.127 -366.109,-0.393 -548.44,-10.761c-122.36,-6.958 -247.149,-21.354 -358.165,-77.337c-6.174,-3.113 -43.066,-24.978 -67.928,-43.89c-6.225,-4.735 -12.979,-11.226 -16.223,-14.441c10.228,-35.895 46.106,-51.738 89.328,-60.99c78.254,-16.751 181.038,-9.775 239.174,-22.864c97.717,-22.002 197.809,-50.452 298.864,-46.653c131.467,4.943 261.043,32.042 393.167,31.513c41.892,-0.167 264.468,-34.264 360.5,-42.047c11.607,-0.94 23.847,-1.141 30.614,-1.167Z" style="fill:#7e4021;"/><path d="M750.99,875.986c-50.915,-17.93 -77.844,-57.45 -81.207,-97.792c-6.423,-77.044 18.501,-125.845 53.922,-147.764c229.901,-142.266 578.888,-122.464 808.897,-28.174c10.075,4.13 13.182,5.432 23.176,9.65c60.695,25.618 367.883,136.574 367.476,139.423c-0.246,1.722 -257.4,15.813 -330.09,33.395c-79.345,19.192 -238.929,17.542 -317.028,41.465c-62.14,19.034 -142.559,66.396 -209.018,61.923c-29.774,-2.004 -57.216,-29.775 -80.347,-46.059c-56.026,-39.442 -165.457,-94.362 -235.781,33.933Z" style="fill:#86a8cb;"/><path d="M745.454,891.706c7.698,2.712 16.227,-0.551 20.151,-7.709c18.815,-34.325 40.38,-54.331 63.246,-64.03c54.123,-22.956 112.845,10.736 148.326,35.715c14.164,9.971 29.949,24.11 46.845,34.31c13.402,8.09 27.515,13.776 41.977,14.749c28.583,1.924 59.612,-4.806 90.78,-15.201c43.348,-14.457 87.069,-36.03 124.239,-47.415c77.857,-23.849 236.965,-22.069 316.065,-41.201c64.916,-15.702 278.111,-28.445 320.276,-32.112c6.815,-0.593 10.804,-1.505 11.575,-1.789c9.115,-3.36 10.399,-10.398 10.819,-13.337c0.459,-3.211 0.826,-9.377 -5.587,-15.003c-0.817,-0.717 -5.221,-3.468 -13.2,-6.703c-49.983,-20.27 -304.115,-112.386 -358.707,-135.429c-10.063,-4.247 -13.191,-5.558 -23.335,-9.716c-234.308,-96.052 -589.791,-115.502 -823.989,29.422c-39.32,24.332 -68.891,77.797 -61.761,163.322c3.842,46.087 34.113,91.644 92.28,112.127Zm1104.35,-151.253c-82.39,6.093 -212.12,16.355 -260.562,28.072c-79.591,19.251 -239.65,17.732 -317.991,41.728c-31.369,9.608 -67.368,26.328 -103.896,40.12c-33.82,12.77 -68.059,23.201 -99.122,21.11c-12.061,-0.812 -23.449,-7.319 -34.365,-14.796c-13.413,-9.186 -25.994,-20.157 -37.507,-28.262c-42.96,-30.244 -114.998,-66.94 -180.53,-39.145c-25.412,10.778 -50.227,31.107 -71.912,65.796l-0,-0c-35.61,-16.955 -54.937,-47.16 -57.531,-78.266c-5.717,-68.577 14.555,-112.698 46.083,-132.208c225.605,-139.607 568.094,-119.452 793.806,-26.925c10.005,4.102 13.091,5.395 23.016,9.584c42.601,17.981 206.561,77.983 300.511,113.192Z" style="fill:#7e4021;"/><path d="M786.224,830.179c-0.046,-0.81 -0.501,-9.337 0.235,-15.72c2.876,-24.959 13.177,-59.586 16.879,-70.429c2.972,-8.705 -1.682,-18.186 -10.387,-21.158c-8.705,-2.973 -18.186,1.681 -21.158,10.386c-4.067,11.911 -15.288,49.968 -18.449,77.384c-1.819,15.788 -0.178,28.834 3.622,35.486c4.562,7.987 14.751,10.767 22.738,6.205c7.794,-4.452 10.63,-14.262 6.52,-22.154Z" style="fill:#7e4021;"/><path d="M2030.35,709.281c13.751,-5.183 27.394,-10.611 40.898,-16.413c22.376,-9.613 44.115,-20.278 65.744,-31.463c79.975,-41.354 159.863,-82.427 238.006,-127.221c110.987,-63.621 154.159,-70.117 256.136,-147.55c54.377,-41.289 98.065,-145.301 215.741,-206.841c76.431,-39.97 150.192,0.872 160.258,11.276c43.057,-29.724 119.253,-93.611 149.645,-102.449c-88.382,-73.93 -264.766,-81.577 -347.897,-62.235c-381.015,88.648 -552.931,402.841 -778.531,682.896Z" style="fill:#86a8cb;"/><path d="M2017.37,698.825c-4.716,5.854 -4.929,14.14 -0.522,20.228c4.408,6.089 12.345,8.474 19.379,5.823c13.987,-5.271 27.863,-10.794 41.598,-16.694c22.742,-9.771 44.839,-20.605 66.821,-31.972c80.189,-41.465 160.288,-82.653 238.64,-127.566c111.791,-64.083 155.21,-70.742 257.926,-148.736c22.668,-17.212 43.753,-44.705 68.505,-75.82c34.404,-43.247 76.694,-93.867 144.881,-129.526c47.827,-25.012 94.488,-14.466 121.264,-2.793c9.943,4.334 16.954,8.472 19.292,10.89c5.668,5.857 14.74,6.757 21.447,2.126c25.88,-17.867 63.716,-48.049 96.417,-71.253c19.82,-14.064 37.341,-25.688 48.413,-28.908c5.912,-1.719 10.394,-6.557 11.658,-12.582c1.264,-6.025 -0.896,-12.256 -5.618,-16.206c-92.097,-77.036 -275.743,-85.838 -362.368,-65.684c-193.986,45.133 -334.858,147.492 -455.833,274.403c-119.117,124.963 -218.805,273.876 -331.9,414.27Zm65.816,-29.532c96.622,-124.328 185.889,-252.296 290.212,-361.738c116.636,-122.361 252.23,-221.422 439.258,-264.937c73.372,-17.071 222.698,-12.904 311.957,43.243c-4.655,2.782 -9.568,5.9 -14.668,9.299c-32.029,21.348 -72.849,53.924 -102.708,75.429c-4.839,-2.994 -10.905,-6.259 -18.054,-9.376c-33.131,-14.443 -90.856,-27.136 -150.032,3.811c-73.025,38.189 -118.675,91.997 -155.52,138.313c-22.748,28.595 -41.744,54.205 -62.577,70.024c-101.237,76.87 -144.164,83.204 -254.345,146.364c-77.934,44.674 -157.612,85.632 -237.373,126.876c-15.264,7.892 -30.581,15.525 -46.15,22.692Z" style="fill:#7e4021;"/><path d="M2991.82,161.648c-85.068,-44.837 -232.799,-28.499 -317.356,50.704c-6.714,6.288 -7.059,16.844 -0.771,23.557c6.289,6.714 16.844,7.059 23.558,0.771c74.385,-69.674 204.193,-84.988 279.026,-45.544c8.138,4.289 18.226,1.165 22.516,-6.973c4.289,-8.137 1.164,-18.226 -6.973,-22.515Z" style="fill:#7e4021;"/><path d="M2022.41,713.955c9.344,8.406 37.274,36.329 48.275,42.337c23.892,13.048 27.72,73.446 54.345,79.242c80.68,17.565 683.468,-263.01 779.75,-293.776c80.932,-25.862 183.683,-66.352 240.734,-158.337c37.461,-60.398 53.019,-225.98 13.749,-291.428c-34.943,-19.197 -123.806,74.826 -226.382,144.723c-159.677,108.806 -336.842,152.726 -508.106,241.569c-131.173,68.046 -293.217,132.586 -402.365,235.67Z" style="fill:#a8ccf1;"/><path d="M2010.96,701.838c-3.385,3.197 -5.278,7.663 -5.221,12.319c0.056,4.655 2.057,9.075 5.518,12.188c9.904,8.91 39.773,38.207 51.434,44.575c4.569,2.495 7.24,8.267 10.244,14.44c4.662,9.579 8.671,20.655 13.195,30.495c8.616,18.745 20.3,32.688 35.348,35.964c8.69,1.892 22.469,1.395 40.383,-2.015c35.541,-6.765 90.382,-24.609 154.778,-48.542c210.704,-78.308 525.892,-222.118 593.208,-243.629c84.161,-26.893 190.498,-69.773 249.825,-165.427c23.615,-38.075 39.591,-115.802 39.165,-186.851c-0.291,-48.501 -8.389,-93.772 -25.289,-121.937c-1.518,-2.53 -3.68,-4.612 -6.266,-6.032c-7.071,-3.885 -15.39,-5.398 -24.961,-4.184c-10.227,1.297 -22.487,6.04 -36.253,13.903c-44.832,25.61 -110.358,86.626 -182.578,135.838c-159.114,108.422 -335.735,152.017 -506.396,240.547c-132.468,68.718 -295.908,134.246 -406.134,238.348Zm35.879,12.366c107.669,-95.203 260.836,-156.401 385.604,-221.125c171.868,-89.156 349.578,-133.401 509.817,-242.59c61.574,-41.957 118.211,-92.6 161.218,-122.256c12.999,-8.963 24.558,-15.929 34.518,-19.666c3.782,-1.418 7.056,-2.738 9.861,-2.76c12.399,24.388 17.415,60.969 17.647,99.747c0.385,64.197 -12.822,134.68 -34.16,169.083c-54.776,88.316 -153.938,126.414 -231.643,151.245c-67.479,21.563 -383.461,165.638 -594.675,244.135c-53.493,19.881 -100.153,35.523 -134.087,43.705c-19.551,4.715 -34.119,7.323 -42.37,5.527c-2.714,-0.591 -4.238,-3.26 -6.063,-5.984c-3.931,-5.867 -7.102,-13.379 -10.295,-21.042c-4.734,-11.364 -9.437,-23.034 -15.16,-32.119c-5.185,-8.232 -11.337,-14.591 -18.384,-18.439c-6.898,-3.767 -20.756,-16.832 -31.828,-27.461l0,0Z" style="fill:#7e4021;"/><path d="M2008.23,861.933c-14.733,-39.297 -54.431,-99.902 -101.501,-115.116c-153.608,-49.647 -458.087,20.556 -611.341,54.836c-104.979,23.482 -370.591,144.861 -547.878,77.311c-75.909,-28.923 -82.898,-154.474 -37.129,-239.347c-42.381,12.109 -86.09,53.018 -112.192,86.082c-116.369,147.409 -11.127,363.053 185.968,410.78c161.86,39.195 381.505,9.753 539.476,-35.396c225.262,-64.381 712.722,-164.131 684.597,-239.15Z" style="fill:#a8ccf1;"/><path d="M2023.83,856.082c-16.119,-42.995 -60.481,-108.478 -111.982,-125.123c-63.179,-20.421 -151.161,-21.517 -244.103,-12.753c-136.331,12.856 -283.541,46.501 -376.001,67.183c-62.854,14.059 -183.4,63.334 -308.004,85.906c-80.14,14.518 -162.032,18.107 -230.302,-7.905c-25.479,-9.708 -41.076,-32.899 -48.916,-61.18c-12.981,-46.821 -4.911,-107.518 20.522,-154.682c3.182,-5.9 2.519,-13.132 -1.681,-18.355c-4.201,-5.224 -11.122,-7.423 -17.567,-5.581c-45.442,12.983 -92.707,56.327 -120.694,91.78c-123.583,156.545 -14.185,386.62 195.127,437.306c164.403,39.81 387.525,10.289 547.978,-35.57c135.318,-38.674 365.132,-90.117 521.256,-141.29c75.913,-24.882 134.771,-50.43 159.428,-73.823c16.311,-15.475 20.373,-31.417 14.939,-45.913Zm-31.212,11.702c0.355,0.945 -0.196,1.836 -0.726,2.822c-1.291,2.4 -3.355,4.752 -5.943,7.208c-14.177,13.45 -41.334,27.033 -76.807,41.215c-147.45,58.951 -432.846,121.087 -590.095,166.029c-155.488,44.44 -371.657,73.802 -530.973,35.223c-184.886,-44.771 -285.969,-245.978 -176.809,-384.255c16.599,-21.026 40.684,-45.715 66.856,-62.785c-14.779,45.942 -17.169,96.581 -5.721,137.874c10.847,39.127 33.92,69.993 69.17,83.424c73.56,28.028 161.761,25.199 248.112,9.556c125.133,-22.669 246.218,-72.058 309.338,-86.177c91.444,-20.455 237.022,-53.811 371.854,-66.526c87.833,-8.282 171.016,-8.013 230.723,11.284c42.644,13.783 77.674,69.506 91.021,105.108Z" style="fill:#7e4021;"/><path d="M2062.28,710.006c-21.204,-24.909 -134.427,-9.667 -176.146,22.604c-8.053,6.229 -14.111,56.584 7.792,100.044c19.427,38.547 71.229,73.264 79.562,75.525c28.005,7.598 128.967,-29.005 146.943,-62.668c19.745,-36.976 -19.114,-89.648 -58.151,-135.505Z" style="fill:#a8ccf1;"/><path d="M2074.97,699.203c-8.383,-9.848 -27.031,-16.9 -51.422,-18.047c-46.711,-2.195 -116.028,13.839 -147.613,38.271c-4.118,3.186 -9.954,12.302 -12.265,26.68c-3.546,22.055 -1.812,59.952 15.372,94.048c14.83,29.426 46.689,57.063 67.75,71.688c10.628,7.381 19.12,11.55 22.331,12.421c5.688,1.543 13.588,2.03 23.01,1.095c17.452,-1.731 41.464,-8.231 64.782,-17.569c35.167,-14.082 68.017,-35.327 78.217,-54.429c10.068,-18.853 9.214,-40.914 0.143,-64.334c-11.253,-29.052 -35.614,-60.82 -60.305,-89.824Zm-96.553,193.025c-1.147,-0.633 -7.296,-4.072 -12.612,-7.764c-17.564,-12.196 -44.629,-34.771 -56.997,-59.311c-10.471,-20.777 -13.677,-43.344 -13.331,-60.567c0.161,-8.021 2.255,-17.417 2.961,-20.354c27.708,-19.811 84.884,-31.596 123.545,-29.779c7.744,0.364 14.691,1.275 20.356,2.955c3.106,0.921 5.79,1.688 7.249,3.402c22.153,26.023 44.508,54.19 54.604,80.256c5.164,13.333 7.268,25.861 1.536,36.594c-2.649,4.961 -8.029,9.728 -14.651,14.585c-12.487,9.158 -29.33,17.704 -46.553,24.601c-17.352,6.948 -35.109,12.215 -49.374,14.51c-6.922,1.113 -12.749,1.759 -16.733,0.872Z" style="fill:#7e4021;"/></g></svg>