<?xml version="1.0" encoding="UTF-8" standalone="no"?><!DOCTYPE svg PUBLIC "-//W3C//DTD SVG 1.1//EN" "http://www.w3.org/Graphics/SVG/1.1/DTD/svg11.dtd"><svg width="100%" height="100%" viewBox="0 0 2692 3428" version="1.1" xmlns="http://www.w3.org/2000/svg" xmlns:xlink="http://www.w3.org/1999/xlink" xml:space="preserve" xmlns:serif="http://www.serif.com/" style="fill-rule:evenodd;clip-rule:evenodd;stroke-linejoin:round;stroke-miterlimit:2;"><g id="Bow-Green"><path d="M1253.87,837.917c-2.948,-12.1 -8.772,-23.135 -15.115,-33.771c-17.247,-28.921 -37.831,-56.589 -62.132,-79.959c-72.528,-69.746 -179.697,-134.561 -273.795,-167.842c-176.539,-62.438 -352.153,-54.985 -533.022,-139.399c-107.748,-50.287 -206.145,-156.833 -224.51,-244.277c-6.606,-31.457 2.014,-75 8.016,-96.094c-50.62,46.961 -93.246,103.309 -102.105,117.792c-17.663,28.874 -32.874,60.282 -33.646,95.362c-3.945,179.368 333.057,339.389 476.571,385.501c106.813,34.32 247.377,84.396 349.98,129.049c145.904,63.496 283.082,95.077 409.758,33.638Z" style="fill:#d2db8a;"/><path d="M1261.14,852.913c7.063,-3.426 10.778,-11.315 8.92,-18.942c-3.343,-13.721 -9.8,-26.301 -16.993,-38.362c-18.004,-30.189 -39.528,-59.041 -64.895,-83.435c-74.118,-71.277 -183.627,-137.531 -279.79,-171.541c-176.027,-62.258 -351.186,-54.62 -531.53,-138.789c-102.921,-48.035 -197.706,-149.074 -215.248,-232.601c-6.059,-28.852 2.23,-68.759 7.736,-88.107c2.045,-7.19 -0.946,-14.862 -7.319,-18.77c-6.373,-3.907 -14.567,-3.093 -20.047,1.99c-52.097,48.332 -95.871,106.409 -104.988,121.314c-19.177,31.35 -35.253,65.605 -36.09,103.693c-1.676,76.18 53.025,150.03 130.876,213.211c111.681,90.635 269.82,160.429 357.259,188.524c106.338,34.167 246.281,84.009 348.427,128.463c150.822,65.636 292.737,96.862 423.682,33.352Zm-27.945,-23.872c-118.656,50.887 -246.576,19.081 -382.435,-40.044c-103.06,-44.851 -244.244,-95.162 -351.533,-129.635c-84.778,-27.24 -238.167,-94.794 -346.45,-182.671c-68.795,-55.831 -120.037,-119.277 -118.556,-186.595c0.705,-32.073 15.051,-60.633 31.2,-87.032c6.301,-10.3 30.246,-42.367 61.923,-76.705c-1.539,16.982 -1.53,34.646 1.638,49.735c19.188,91.363 121.196,203.415 233.772,255.955c181.394,84.659 357.463,77.39 534.514,140.009c92.034,32.551 196.863,95.926 267.799,164.142c23.236,22.345 42.88,48.83 59.371,76.482c3.169,5.315 6.238,10.722 8.757,16.359l0,-0Z" style="fill:#7e4021;"/><path d="M148.071,90.676c0.595,-2.783 1.918,-5.418 3.107,-7.999c3.289,-7.139 7.941,-13.792 12.741,-19.984c14.739,-19.012 35.198,-33.509 58.338,-40.155c62.936,-18.076 133.909,12.995 189.29,40.689c106.876,53.445 212.621,114.23 304.964,190.434c80.93,66.785 152.466,144.326 227.601,217.312c42.838,41.614 82.77,85.427 118.605,133.283c5.302,7.081 67.394,75.912 85.358,93.933c0.302,0.303 -138.753,-118.455 -325.85,-167.117c-72.057,-18.742 -226.748,-39.138 -253.279,-53.304c-19.018,-10.155 -46.506,-59.582 -63.19,-77.851c-47.183,-51.662 -101.669,-97.678 -160.316,-135.795c-39.393,-25.604 -81.475,-48.757 -125.49,-65.399c-8.188,-3.095 -51.885,-17.8 -69.288,-20.69c-9.567,-13.221 -8.527,-59.586 -2.591,-87.357Z" style="fill:#bbc470;"/><path d="M131.773,87.192c-4.501,21.054 -6.356,51.979 -3.538,73.549c1.564,11.966 4.901,21.502 8.925,27.063c2.572,3.555 6.443,5.952 10.772,6.671c16.614,2.759 58.307,16.882 66.124,19.838c42.903,16.222 83.904,38.826 122.302,63.783c57.466,37.35 110.857,82.438 157.091,133.061c9.757,10.683 23.226,32.356 36.506,50.077c10.857,14.487 22.049,26.381 31.141,31.236c8.657,4.622 29.756,10.237 57.314,15.848c58.861,11.984 149.401,25.822 199.62,38.884c165.094,42.94 292.027,141.565 315.548,160.64c2.303,1.867 3.593,2.956 3.807,3.134c0.918,0.764 1.477,1.102 1.561,1.157c10.615,6.949 18.595,-0.129 19.84,-1.174c3.872,-3.247 8.382,-8.958 4.967,-18.425c-0.23,-0.639 -0.909,-3.137 -3.874,-6.112c-17.632,-17.687 -78.617,-85.206 -83.821,-92.156c-36.36,-48.558 -76.867,-93.024 -120.333,-135.247c-75.457,-73.3 -147.329,-151.141 -228.606,-218.213c-93.309,-77.001 -200.124,-138.481 -308.117,-192.485c-58.821,-29.415 -134.501,-61 -201.345,-41.802c-26.524,7.617 -50.016,24.171 -66.91,45.963c-5.567,7.181 -10.893,14.942 -14.707,23.223c-1.698,3.686 -3.418,7.513 -4.267,11.487Zm911.703,519.265c-57.237,-33.335 -132.314,-69.475 -217.055,-91.515c-50.661,-13.177 -141.983,-27.198 -201.361,-39.287c-23.116,-4.706 -41.002,-8.712 -48.264,-12.589c-6.125,-3.271 -12.853,-12.062 -20.167,-21.822c-13.971,-18.644 -28.302,-41.327 -38.567,-52.566c-48.132,-52.702 -103.713,-99.647 -163.539,-138.531c-40.388,-26.25 -83.552,-49.951 -128.679,-67.013c-7.395,-2.796 -42.517,-14.587 -63.665,-19.69c-0.952,-3.932 -1.273,-9.174 -1.638,-14.929c-1.105,-17.42 0.541,-38.977 3.828,-54.355c0.341,-1.593 1.267,-3.033 1.947,-4.511c2.763,-5.998 6.743,-11.542 10.775,-16.744c12.585,-16.233 30.009,-28.674 49.767,-34.348c59.03,-16.954 125.29,13.601 177.235,39.577c105.757,52.886 210.433,112.975 301.81,188.382c80.583,66.499 151.783,143.738 226.596,216.412c39.876,38.736 77.206,79.396 110.977,123.529Z" style="fill:#7e4021;"/><path d="M1404.84,846.996c51.97,-42.278 212.694,-151.034 314.945,-175.694c197.775,-47.699 411.885,3.431 613.384,-15.652c65.423,-6.196 127.045,-19.838 188.587,-42.808c26.067,-9.729 87.162,-40.906 87.291,-38.623c1.289,22.755 -124.73,135 -141.427,148.763c-189.745,156.401 -446.574,160.254 -680.355,175.926c-55.673,3.732 -340.05,38.843 -379.299,26.066c-8.521,-2.775 -23.305,-61.561 -3.126,-77.978Z" style="fill:#d2db8a;"/><path d="M1394.32,834.068c-8.635,7.025 -14.026,18.69 -15.665,32.568c-1.878,15.889 0.951,34.841 5.149,48.327c2.547,8.184 5.778,14.575 8.547,18.16c3.437,4.45 7.309,6.675 10.454,7.699c12.596,4.1 48.784,4.328 94.896,1.497c100.608,-6.177 251.693,-24.168 290.677,-26.782c237.15,-15.898 497.361,-21.039 689.84,-179.694c13.623,-11.228 98.541,-86.793 131.313,-128.427c6.88,-8.74 11.646,-16.361 13.896,-21.981c1.896,-4.738 2.444,-8.873 2.258,-12.158c-0.201,-3.554 -6.085,-20.584 -23.772,-14.575c-10.281,3.493 -62.403,29.724 -85.987,38.526c-60.152,22.451 -120.385,35.774 -184.33,41.83c-202.269,19.155 -417.19,-31.839 -615.72,16.042c-104.34,25.164 -268.524,135.825 -321.556,178.968Zm1163.25,-218.294c-37.516,39.145 -90.235,85.843 -100.553,94.348c-187.011,154.147 -440.457,156.71 -670.869,172.157c-38.958,2.611 -189.946,20.596 -290.49,26.769c-35.292,2.167 -63.908,3.342 -77.731,1.158c-1.982,-6.182 -6.662,-22.059 -6.546,-33.427c0.045,-4.424 0.466,-8.7 1.622,-12.388c0.555,-1.77 1.099,-3.446 2.353,-4.466c50.908,-41.415 208.173,-148.265 308.335,-172.421c197.019,-47.516 410.319,3.748 611.048,-15.261c66.9,-6.336 129.911,-20.298 192.843,-43.786c7.276,-2.716 18.284,-7.451 29.988,-12.683Z" style="fill:#7e4021;"/><path d="M2606.83,583.018c14.144,-15.973 27.952,-47.666 36.789,-63.39c26.718,-47.541 40.333,-104.853 24.231,-158.299c-19.137,-63.521 -64.116,-123.189 -113.331,-166.762c-17.043,-15.089 -36.145,-27.887 -56.236,-38.562c-6.545,-3.478 -30.855,-14.207 -30.576,-14.017c19.363,13.158 50.886,37.089 68.696,54.204c52.746,50.688 84.143,120.704 79.597,194.172c-3.094,49.982 -20.949,98.526 -42.956,143.126c-9.507,19.267 -42.503,73.246 -41.474,74.03c28.062,-3.043 60.527,-19.876 75.26,-24.502Z" style="fill:#87b42e;"/><path d="M2611.83,598.92c2.89,-0.907 5.478,-2.585 7.485,-4.853c14.825,-16.741 29.58,-49.793 38.842,-66.273c28.893,-51.412 43.072,-113.475 25.659,-171.273c-20.001,-66.389 -66.804,-128.892 -118.241,-174.433c-18.025,-15.958 -38.215,-29.511 -59.464,-40.801c-6.136,-3.26 -27.25,-12.659 -31.201,-14.358c-3.028,-1.302 -4.936,-1.457 -5.086,-1.476c-6.911,-0.882 -10.786,2.125 -12.542,3.533c-3.145,2.524 -4.974,5.665 -5.801,9.218c-0.48,2.061 -2.791,11.006 6.867,17.569c18.741,12.735 49.276,35.87 66.515,52.436c49.226,47.307 78.753,112.559 74.51,181.126c-2.958,47.786 -20.226,94.139 -41.267,136.78c-8.556,17.341 -36.14,62.799 -40.82,72.29c-6.357,12.887 2.931,21.411 4.188,22.37c3.396,2.589 7.656,3.775 11.901,3.315c29.213,-3.168 63.118,-20.355 78.455,-25.17Zm8.317,-301.759c13.57,21.94 24.579,45.163 31.753,68.975c14.791,49.095 1.741,101.657 -22.802,145.326c-7.869,14.003 -19.633,41.451 -32.141,57.383l0,0.001c-8.032,3.07 -19.207,8.147 -31.454,12.699c8.84,-15.405 18.393,-32.366 22.496,-40.68c22.973,-46.559 41.414,-97.295 44.643,-149.471c2.007,-32.43 -2.513,-64.244 -12.495,-94.233Z" style="fill:#7e4021;"/><path d="M2482.97,149.4c-18.488,-7.295 -51.034,-21.269 -73.933,-11.399c-41.58,17.923 -126.061,74.801 -175.548,118.934c-81.895,73.034 -155.402,155.632 -214.898,247.973c-12.413,19.266 -86.001,143.777 -86.001,143.777c0,-0 -136.834,3.345 -185.539,16.254c-38.314,10.156 -112.647,39.315 -148.93,55.226c-16.605,7.282 -31.499,17.372 -47.218,26.265c-1.074,0.608 -3.328,2.054 -4.505,0.862c-7.201,-7.295 21.27,-68.369 24.697,-75.324c36.572,-74.21 89.881,-141.082 143.813,-203.269c133.553,-153.996 303.148,-291.802 504.113,-342.829c83.667,-21.244 186.781,-18.811 263.949,23.53Z" style="fill:#bbc470;"/><path d="M2476.85,164.903c8.183,3.229 17.467,-0.458 21.205,-8.421c3.738,-7.964 0.642,-17.462 -7.07,-21.694c-80.723,-44.292 -188.546,-47.295 -276.068,-25.072c-204.249,51.861 -376.866,191.551 -512.602,348.063c-54.856,63.252 -108.974,131.342 -146.172,206.822c-2.918,5.92 -22.699,48.772 -26.648,69.622c-2.35,12.408 1.391,21.081 5.04,24.777c3.864,3.915 8.634,5.65 13.953,5.394c3.645,-0.176 8.203,-2.091 10.62,-3.458c15.227,-8.615 29.619,-18.453 45.705,-25.507c35.697,-15.655 108.811,-44.388 146.507,-54.379c47.685,-12.64 181.676,-15.704 181.676,-15.704c5.747,-0.14 11.016,-3.232 13.941,-8.181c-0,-0 73.297,-124.038 85.662,-143.23c58.683,-91.078 131.206,-172.527 211.981,-244.561c48.243,-43.024 130.517,-98.595 171.052,-116.067c8.347,-3.598 18.457,-2.143 28.16,0.169c12.468,2.971 24.399,8.01 33.058,11.427Zm-96.233,-31.458c-45.937,24.743 -115.082,72.577 -158.223,111.051c-83.015,74.033 -157.505,157.781 -217.815,251.385c-10.561,16.391 -65.242,108.673 -81.667,136.427c-31.997,1.074 -138.141,5.391 -180.133,16.521c-38.934,10.32 -114.484,39.904 -151.353,56.073c-7.328,3.213 -14.339,6.945 -21.23,10.882c6.409,-16.503 14.188,-33.082 15.847,-36.448c35.946,-72.94 88.445,-138.594 141.454,-199.717c131.371,-151.479 297.944,-287.402 495.624,-337.595c48.853,-12.405 104.672,-16.518 157.496,-8.579Z" style="fill:#7e4021;"/><path d="M1278.25,840.977c53.687,33.615 41.664,74.489 37.361,82.679c-8.621,16.407 -19.44,31.719 -30.938,46.219c-42.734,53.893 -82.019,82.426 -148.582,100.566c-143.823,39.197 -305.865,39.712 -483.832,168.038c-133.626,96.354 -307.484,257.099 -307.484,257.099c-0,0 47.988,-71.446 93.61,-121.058c216.375,-235.301 696.005,-623.618 839.865,-533.543Z" style="fill:#bbc470;"/><path d="M1287.1,826.851c-19.948,-12.49 -45.384,-17.518 -75.31,-15.348c-40.509,2.936 -90.019,19.201 -144.716,45.504c-205.567,98.853 -488.317,340.245 -640.953,506.231c-46.376,50.433 -95.177,123.047 -95.177,123.047c-4.714,7.019 -3.426,16.456 2.997,21.954c6.423,5.499 15.945,5.317 22.153,-0.423c0,-0 172.967,-159.951 305.918,-255.818c175.914,-126.846 336.302,-126.732 478.466,-165.476c70.42,-19.192 112.049,-49.276 157.26,-106.292c12.139,-15.31 23.53,-31.499 32.632,-48.822c3.443,-6.553 11.294,-28.787 0.998,-55.215c-6.113,-15.692 -18.764,-33.373 -44.268,-49.342Zm-804.311,524.898c155.366,-160.87 409.986,-373.938 598.731,-464.701c50.211,-24.146 95.494,-39.603 132.68,-42.299c21.872,-1.586 40.631,1.226 55.21,10.354c40.507,25.362 34.699,54.621 31.452,60.8c-8.14,15.491 -18.387,29.926 -29.243,43.617c-40.259,50.771 -77.199,77.752 -139.905,94.841c-145.483,39.649 -309.178,40.793 -489.198,170.6c-51.343,37.022 -108.598,83.5 -159.727,126.788Z" style="fill:#7e4021;"/><path d="M344.777,1495.58c-262.333,484.551 -262.103,917.424 -184.304,1152.66c10.449,-185.627 129.352,-584.901 316.195,-983.207c81.384,-173.492 172.786,-332.263 276.602,-487.652c-179.306,85.349 -411.875,324.263 -408.493,318.195Z" style="fill:#87b42e;"/><path d="M335.393,1481.81c0.842,-0.776 2.26,-2.09 3.668,-3.431c37.203,-35.409 244.012,-238.437 407.046,-316.041c6.772,-3.223 14.864,-1.526 19.77,4.147c4.906,5.673 5.418,13.924 1.252,20.161c-103.353,154.695 -194.352,312.754 -275.372,485.471c-185.7,395.868 -304.259,792.575 -314.643,977.066c-0.45,7.992 -6.518,14.535 -14.454,15.586c-7.935,1.05 -15.497,-3.69 -18.01,-11.29c-78.679,-237.898 -79.826,-675.806 185.47,-1165.83l0.003,0.002l0.096,-0.181c1.306,-2.343 3.094,-4.249 5.174,-5.658Zm22.57,24.44c1.183,-1.029 2.549,-2.269 4.079,-3.726c32.174,-30.622 193.546,-189.588 340.813,-278.735c-89.344,138.435 -169.217,280.56 -241.276,434.172c-162.427,346.256 -273.535,693.33 -307.528,901.782c-51.312,-243.146 -25.684,-628.006 203.912,-1053.49Zm0.337,-20.414c3.569,4.957 4.258,11.688 1.256,17.44c4.343,-8.152 1.429,-14.102 -1.256,-17.44Z" style="fill:#7e4021;"/><path d="M149.004,2596.22c-0.346,-0.424 13.802,121.018 40.296,190.903c34.84,91.899 82.03,177.488 139.604,257.009c47.946,66.224 334.664,396.645 419.121,364.275c20.806,-7.974 26.098,-100.124 39.943,-105.143c52.893,-19.177 203.46,-37.81 218.366,-77.904c15.114,-40.655 -147.168,-48.395 -242.402,-84.399c-46.252,-17.485 -537.562,-198.196 -614.928,-544.741Z" style="fill:#bbc470;"/><path d="M797.852,3317.49c38.996,-12.964 119.852,-25.957 170.763,-45.697c15.395,-5.97 28.286,-12.653 37.303,-19.862c8.006,-6.401 13.332,-13.476 16.038,-20.755c4.702,-12.647 1.876,-23.949 -8.267,-33.953c-6.142,-6.058 -16.056,-11.807 -29.116,-16.783c-48.535,-18.492 -148.071,-29.852 -214.747,-55.059c-27.424,-10.368 -213.204,-78.749 -373.93,-205.806c-105.496,-83.397 -200.517,-192.112 -230.626,-326.977c-0.565,-2.531 -1.713,-4.896 -3.353,-6.906c-4.558,-5.586 -9.843,-6.297 -13.714,-6.111c-4.074,0.195 -8.323,1.634 -11.915,5.87c-0.821,0.969 -3.771,4.004 -3.95,10.332c-0.009,0.306 0.047,2.282 0.435,5.689c2.328,20.424 16.584,127.315 40.943,191.569c35.363,93.278 83.249,180.159 141.688,260.874c33.928,46.862 186.14,224.581 303.691,315.778c31.556,24.48 60.839,42.79 84.896,51.465c19.773,7.131 36.814,7.874 49.999,2.821c6.017,-2.307 12.094,-7.525 16.922,-16.02c6.441,-11.333 11.577,-30.467 15.94,-49.498c3.415,-14.894 9.249,-35.02 11,-40.971Zm-603.283,-568.029c46.603,75.969 111.295,141.433 180.655,196.263c164.571,130.097 354.735,200.221 382.814,210.836c66.651,25.198 166.151,36.544 214.668,55.029c5.172,1.971 9.665,3.997 13.291,6.2c1.408,0.855 3.053,2.241 4.057,3.138c-1.56,2.675 -4.586,4.897 -8.153,7.316c-6.665,4.521 -15.368,8.605 -25.336,12.471c-52.605,20.397 -137.327,33.493 -174.278,46.89c-4.519,1.639 -9.816,5.626 -13.778,13.286c-3.83,7.403 -7.41,20.611 -10.834,35.539c-3.732,16.27 -7.512,34.866 -12.582,48.109c-1.233,3.218 -3.623,7.379 -4.457,8.79c-6.861,1.981 -15.401,0.057 -25.337,-3.526c-21.536,-7.767 -47.523,-24.532 -75.772,-46.446c-115.017,-89.23 -263.927,-263.137 -297.123,-308.989c-56.71,-78.327 -103.203,-162.624 -137.519,-253.143c-3.689,-9.729 -7.13,-20.481 -10.316,-31.763Z" style="fill:#7e4021;"/><path d="M1292.07,917.378c-11.719,3.359 -21.059,21.728 -26.621,31.044c-15.615,26.15 -24.462,55.426 -20.44,86.097c10.255,78.2 77.614,137.369 134.684,184.628c241.045,199.608 516.805,341.866 715.066,590.695c58.486,73.403 114.888,153.652 155.528,238.655c13.971,29.22 23.664,58.747 30.904,90.25c0.476,2.072 10.332,44.152 10.83,39.646c4.397,-39.741 12.187,-110.101 11.411,-139.446c-10.557,-399.442 -313.485,-717.725 -624.365,-931.113c-59.608,-40.915 -116.954,-85.01 -171.039,-133.046c-94.256,-83.714 -136.898,-80.073 -215.958,-57.41Z" style="fill:#bbc470;"/><path d="M1287.48,901.357c-7.541,2.162 -14.873,7.639 -21.045,15.051c-6.343,7.616 -11.614,17.308 -15.293,23.469c-17.544,29.382 -27.174,62.348 -22.655,96.809c10.798,82.34 80.488,145.537 140.579,195.298c240.158,198.872 515.13,340.331 712.661,588.244c57.712,72.431 113.424,151.58 153.527,235.458c13.434,28.099 22.735,56.499 29.697,86.795c0.477,2.073 9.893,40.07 12.078,44.02c4.898,8.854 12.506,9.021 15.619,8.878c3.288,-0.151 6.422,-1.181 9.307,-3.356c1.944,-1.466 5.838,-4.598 6.635,-11.798c4.468,-40.386 12.294,-111.896 11.506,-141.718c-10.699,-404.813 -316.534,-728.157 -631.594,-944.414c-59.037,-40.523 -115.837,-84.19 -169.403,-131.766c-50.169,-44.557 -86.943,-65.298 -121.353,-72.453c-34.829,-7.242 -67.673,-0.727 -110.266,11.483Zm996.915,1187.1c-5.355,-15.953 -11.631,-31.591 -19.068,-47.147c-41.179,-86.128 -98.269,-167.477 -157.53,-241.852c-198.991,-249.745 -475.538,-392.803 -717.471,-593.145c-54.051,-44.76 -119.076,-99.895 -128.789,-173.959c-3.525,-26.882 4.539,-52.466 18.225,-75.386c2.58,-4.321 5.998,-10.763 10.167,-16.493c2.142,-2.942 3.945,-6.273 6.736,-7.073l0.001,-0c36.468,-10.454 64.473,-17.091 94.294,-10.891c30.241,6.288 61.914,25.583 106.003,64.741c54.603,48.496 112.496,93.018 172.675,134.325c306.701,210.52 606.722,523.741 617.136,917.813c0.303,11.463 -0.737,29.288 -2.379,49.067Z" style="fill:#7e4021;"/><path d="M1244.94,805.925c0.397,14.179 -1.8,28.492 -3.891,42.468c-3.41,22.794 -38.627,140.937 3.074,141.38c48.227,0.512 83.05,-43.986 139.174,-36.512c16.797,2.237 47.942,17.092 61.897,2.079c14.334,-15.422 8.356,-45.685 5.313,-63.86c-3.217,-19.214 -3.646,-58.402 -17.236,-74.144c-16.559,-19.182 -188.988,-34.875 -188.331,-11.411Z" style="fill:#d2db8a;"/><path d="M1228.28,806.391c0.37,13.204 -1.767,26.523 -3.714,39.536c-2.472,16.525 -20.589,81.508 -16.721,119.125c2.667,25.938 15.255,41.165 36.101,41.386c26.652,0.283 49.798,-11.23 73.838,-22.423c19.017,-8.854 38.776,-17.501 63.313,-14.233c10.249,1.365 25.765,7.281 39.592,8.552c14.637,1.346 27.699,-1.951 36.712,-11.648c8.195,-8.816 12.316,-20.808 13.347,-33.949c1.192,-15.186 -1.793,-32.002 -3.803,-44.009c-1.954,-11.671 -2.922,-30.618 -6.332,-47.353c-2.885,-14.163 -7.74,-26.838 -14.726,-34.93c-2.29,-2.654 -5.93,-5.558 -11.09,-8.117c-7.142,-3.541 -18.488,-7.048 -32.358,-10.007c-42.405,-9.047 -110.045,-13.904 -142.492,-8.502c-12.346,2.056 -20.884,6.292 -25.101,10.501c-4.737,4.728 -6.731,10.199 -6.566,16.071Zm192.9,22.49c3.532,4.544 5.24,11.631 6.771,19.148c3.326,16.326 4.212,34.818 6.118,46.203c1.4,8.364 3.555,19.5 3.632,30.328c0.051,7.299 -0.268,14.649 -4.715,19.433c-1.193,1.283 -3.022,1.211 -4.853,1.29c-3.117,0.133 -6.454,-0.295 -9.837,-0.911c-11.911,-2.168 -24.198,-6.486 -32.798,-7.632c-31.589,-4.206 -57.301,5.658 -81.784,17.057c-19.462,9.061 -37.837,19.539 -59.414,19.31c-0.801,-0.009 -0.827,-0.931 -1.138,-1.656c-0.442,-1.032 -0.794,-2.17 -1.096,-3.391c-1.445,-5.844 -1.688,-13.091 -1.369,-21.009c1.436,-35.653 14.827,-82.763 16.836,-96.193c1.82,-12.166 3.655,-24.578 4.043,-36.953c5.014,-1 13.631,-2.504 21.344,-2.837c34.711,-1.5 86.62,3.57 118.468,11.185c8.635,2.064 18.257,5.989 19.792,6.628Z" style="fill:#7e4021;"/><path d="M2010.21,2681.14c93.647,-117.223 238.296,-317.951 280.239,-493.016c32.87,-137.194 8.328,-219.217 8.562,-218.349c17.338,64.302 46.438,130.445 56.621,196.28c22.366,144.594 3.342,294.285 -38.88,433.606c-49.682,163.939 -129.865,324.744 -250.344,448.268c-10.985,11.262 -31.392,39.236 -50.233,36.565c-31.031,-4.399 -33.355,-115.888 -57.426,-133.487c-24.467,-17.888 -136.531,3.134 -170.228,3.631c-5.395,0.08 -20.753,2.708 -20.388,-6.429c0.723,-18.102 216.958,-235.627 242.077,-267.069Z" style="fill:#bbc470;"/><path d="M2297.5,1961.79c6.767,-3.685 14.05,-4.817 17.398,3.465c0.118,0.069 0.184,0.131 0.197,0.179c17.493,64.877 46.725,131.648 57,198.071c22.746,147.051 3.539,299.299 -39.401,440.988c-50.446,166.461 -132.03,329.647 -254.363,455.071c-6.971,7.147 -17.635,20.553 -29.271,29.608c-11.267,8.768 -23.654,13.464 -35.232,11.822c-7.336,-1.04 -14.102,-4.688 -19.981,-11.12c-5.664,-6.196 -10.707,-15.627 -14.886,-27.144c-7.815,-21.537 -13.259,-51.431 -20.009,-74.611c-1.943,-6.669 -3.972,-12.708 -6.297,-17.604c-1.238,-2.608 -2.179,-4.906 -3.75,-6.055c-2.023,-1.479 -5.283,-1.998 -9.17,-2.623c-6.292,-1.011 -13.846,-1.378 -22.155,-1.363c-43.39,0.075 -105.272,10.479 -128.821,10.827c-5.49,0.081 -17.967,0.683 -24.842,-2.743c-7.838,-3.904 -12.869,-10.418 -12.445,-21.016c0.092,-2.314 0.734,-5.827 2.948,-10.103c3.064,-5.919 11.585,-17.191 24.092,-31.786c56.429,-65.843 198.609,-209.809 218.668,-234.917l0,-0c92.452,-115.726 235.646,-313.668 277.053,-486.497c28.495,-118.934 12.582,-194.805 9.202,-208.184l-0.05,-0.221l-0.474,-1.721c-0.013,-0.05 0.015,-0.14 0.088,-0.262c-1.379,-9.708 6.305,-12.194 14.501,-12.061Zm24.701,135.877c7.159,23.608 13.295,47.288 16.952,70.933c21.986,142.137 3.145,289.272 -38.359,426.226c-48.918,161.416 -127.7,319.84 -246.326,441.463c-5.329,5.464 -12.912,15.013 -21.48,22.841c-3.268,2.986 -6.658,5.73 -10.162,7.523c-1.24,0.635 -2.422,1.299 -3.64,1.359c-0.696,-0.806 -2.867,-3.388 -3.994,-5.437c-3.794,-6.895 -6.818,-16.187 -9.657,-26.376c-6.939,-24.904 -12.444,-54.601 -20.131,-73.903c-4.645,-11.663 -10.572,-20.172 -16.826,-24.745c-9.147,-6.687 -27.846,-10.451 -51.057,-10.411c-39.686,0.07 -94.794,8.723 -122.123,10.514c2.622,-3.346 5.506,-6.904 8.424,-10.309c56.631,-66.079 199.271,-210.606 219.401,-235.804c94.844,-118.72 240.947,-322.235 283.426,-499.536c8.401,-35.063 13.156,-66.652 15.552,-94.338Z" style="fill:#7e4021;"/></g></svg>