<?xml version="1.0" encoding="UTF-8" standalone="no"?><!DOCTYPE svg PUBLIC "-//W3C//DTD SVG 1.1//EN" "http://www.w3.org/Graphics/SVG/1.1/DTD/svg11.dtd"><svg width="100%" height="100%" viewBox="0 0 812 3457" version="1.1" xmlns="http://www.w3.org/2000/svg" xmlns:xlink="http://www.w3.org/1999/xlink" xml:space="preserve" xmlns:serif="http://www.serif.com/" style="fill-rule:evenodd;clip-rule:evenodd;stroke-linejoin:round;stroke-miterlimit:2;"><g id="Brown-Sugar" serif:id="Brown Sugar"><path d="M79.912,3174.18l657.432,-0c-0,-0 57.308,-933.931 57.308,-1401.61c0,-482.547 -57.308,-1493.67 -57.308,-1493.67l-657.432,-0c-0,-0 -63.04,1092.96 -63.04,1575.51c0,440.534 63.04,1319.77 63.04,1319.77Z" style="fill:#f7bf9a;"/><path d="M63.288,3175.37c0.625,8.719 7.881,15.474 16.624,15.474l657.432,0c8.808,0 16.096,-6.854 16.635,-15.646c0,0 25.904,-422.134 42.887,-841c8.29,-204.451 14.453,-408.124 14.453,-561.628c0,-160.059 -6.295,-378.212 -14.718,-598.389c-16.986,-443.997 -42.617,-896.228 -42.617,-896.228c-0.5,-8.825 -7.802,-15.724 -16.64,-15.724l-657.432,0c-8.832,0 -16.131,6.89 -16.639,15.707c-0,0 -27.724,480.668 -46.406,945.292c-9.501,236.281 -16.661,468.416 -16.661,631.178c-0,144.644 6.78,336.513 15.903,529.095c18.684,394.438 47.179,791.869 47.179,791.869Zm32.153,-17.859c-5.393,-76.814 -29.542,-427.368 -46.036,-775.588c-9.095,-192.007 -15.866,-383.304 -15.866,-527.517c-0,-162.416 7.153,-394.059 16.634,-629.839c16.685,-414.949 40.586,-842.703 45.482,-929.005c-0,0 625.929,0 625.929,0c4.638,83.38 26.597,484.897 41.708,879.894c8.405,219.707 14.694,437.396 14.694,597.114c-0,153.134 -6.156,356.318 -14.426,560.277c-15.045,371.072 -37.097,744.71 -41.904,824.664c-0,-0 -626.215,-0 -626.215,-0l0,-0Z" style="fill:#7e4021;"/><path d="M728.107,858.906c13.453,-0.364 25.177,3.91 36.258,9.842c0.245,0.132 3.722,130.978 2.165,131.668c-8.652,3.831 -24.33,7.792 -34.368,8.064c-41.276,1.119 -75.696,-31.484 -76.814,-72.76c-1.119,-41.276 31.484,-75.695 72.759,-76.814Z" style="fill:#f8bcc4;"/><path d="M727.656,842.246c-50.471,1.368 -90.337,43.454 -88.969,93.926c1.368,50.471 43.455,90.336 93.926,88.968c11.874,-0.321 30.431,-4.953 40.665,-9.485c2.189,-0.969 7.656,-3.483 9.566,-11.629c0.313,-1.336 0.778,-7.846 0.749,-17.606c-0.091,-30.616 -1.943,-101.855 -2.456,-115.874c-0.441,-12.052 -8.753,-16.409 -8.906,-16.491c-13.6,-7.282 -28.063,-12.257 -44.575,-11.809l-0,-0Zm20.412,37.183c0.719,23.882 2.204,83.868 2.193,109.077c-6.273,1.793 -13.339,3.172 -18.551,3.313c-32.081,0.87 -58.832,-24.47 -59.702,-56.551c-0.869,-32.08 24.47,-58.832 56.551,-59.701l0,-0c7.05,-0.191 13.45,1.391 19.509,3.862Z" style="fill:#7e4021;"/><circle cx="333.759" cy="2952.11" r="74.814" style="fill:#a8ccf1;"/><path d="M333.759,2860.62c-50.49,-0 -91.481,40.991 -91.481,91.481c-0,50.489 40.991,91.48 91.481,91.48c50.49,0 91.481,-40.991 91.481,-91.48c-0,-50.49 -40.991,-91.481 -91.481,-91.481Zm-0,33.333c32.092,-0 58.147,26.055 58.147,58.148c0,32.092 -26.055,58.147 -58.147,58.147c-32.093,0 -58.148,-26.055 -58.148,-58.147c0,-32.093 26.055,-58.148 58.148,-58.148Z" style="fill:#7e4021;"/><circle cx="579.202" cy="2674.37" r="74.814" style="fill:#dae1a4;"/><path d="M579.202,2582.89c-50.489,0 -91.481,40.991 -91.481,91.481c0,50.49 40.992,91.481 91.481,91.481c50.49,0 91.481,-40.991 91.481,-91.481c0,-50.49 -40.991,-91.481 -91.481,-91.481Zm0,33.334c32.093,-0 58.148,26.055 58.148,58.147c-0,32.093 -26.055,58.148 -58.148,58.148c-32.092,-0 -58.147,-26.055 -58.147,-58.148c-0,-32.092 26.055,-58.147 58.147,-58.147Z" style="fill:#7e4021;"/><path d="M745.72,2998.29c0.214,6.792 -6.803,139.976 -8.868,155.033c-41.291,0 -78.682,-38.928 -78.682,-80.219c0,-41.291 46.259,-74.814 87.55,-74.814Z" style="fill:#ffce7b;"/><path d="M762.378,2997.76c-0.284,-8.996 -7.658,-16.141 -16.658,-16.141c-29.161,0 -60.477,14.092 -80.824,35.954c-14.45,15.525 -23.392,34.819 -23.392,55.527c-0,49.952 45.396,96.886 95.348,96.886c8.33,-0 15.381,-6.15 16.512,-14.403c2.102,-15.328 9.233,-150.909 9.014,-157.823Zm-34.015,19.474c-1.392,29.836 -4.542,87.856 -6.612,117.223c-26.071,-7.606 -46.914,-33.876 -46.914,-61.357c0,-12.325 5.859,-23.577 14.459,-32.818c10.221,-10.981 24.356,-19.258 39.067,-23.048l-0,-0Z" style="fill:#7e4021;"/><circle cx="243.566" cy="848.286" r="74.814" style="fill:#d8bef1;"/><path d="M243.566,756.805c-50.49,0 -91.481,40.991 -91.481,91.481c0,50.49 40.991,91.481 91.481,91.481c50.49,0 91.481,-40.991 91.481,-91.481c0,-50.49 -40.991,-91.481 -91.481,-91.481Zm0,33.333c32.093,0 58.148,26.056 58.148,58.148c-0,32.093 -26.055,58.148 -58.148,58.148c-32.092,-0 -58.147,-26.055 -58.147,-58.148c-0,-32.092 26.055,-58.148 58.147,-58.148Z" style="fill:#7e4021;"/><circle cx="512.184" cy="586.234" r="74.814" style="fill:#ffce7b;"/><path d="M512.184,494.753c-50.49,0 -91.481,40.991 -91.481,91.481c-0,50.49 40.991,91.481 91.481,91.481c50.49,0 91.481,-40.991 91.481,-91.481c-0,-50.49 -40.991,-91.481 -91.481,-91.481Zm-0,33.334c32.092,-0 58.147,26.055 58.147,58.147c0,32.093 -26.055,58.148 -58.147,58.148c-32.093,-0 -58.148,-26.055 -58.148,-58.148c0,-32.092 26.055,-58.147 58.148,-58.147Z" style="fill:#7e4021;"/><circle cx="198.033" cy="2559.36" r="74.814" style="fill:#ffce7b;"/><path d="M198.033,2467.88c-50.489,-0 -91.481,40.991 -91.481,91.48c0,50.49 40.992,91.481 91.481,91.481c50.49,0 91.481,-40.991 91.481,-91.481c0,-50.489 -40.991,-91.48 -91.481,-91.48Zm0,33.333c32.093,-0 58.148,26.055 58.148,58.147c-0,32.093 -26.055,58.148 -58.148,58.148c-32.092,0 -58.147,-26.055 -58.147,-58.148c-0,-32.092 26.055,-58.147 58.147,-58.147Z" style="fill:#7e4021;"/><path d="M184.777,285.413c2.408,-4.384 146.176,-4.607 149.629,-0c-0,41.291 -33.524,74.814 -74.815,74.814c-41.291,-0 -74.459,-33.525 -74.814,-74.814Z" style="fill:#dae1a4;"/><path d="M170.168,277.39c-1.373,2.501 -2.082,5.313 -2.057,8.166c0.434,50.448 41.03,91.338 91.48,91.338c50.49,-0 91.481,-40.992 91.481,-91.481c0,-3.605 -1.168,-7.112 -3.33,-9.997c-1.25,-1.666 -5.373,-6.087 -14.094,-7.476c-17.827,-2.839 -98.383,-3.285 -133.656,-1.293c-12.39,0.699 -20.649,2.689 -22.714,3.785c-3.908,2.073 -5.926,4.803 -7.11,6.958Zm145.78,22.381c-6.399,25.159 -29.219,43.789 -56.357,43.789c-27.113,0 -49.675,-18.625 -56.227,-43.748c28.005,-1.536 84.787,-1.604 112.584,-0.041Z" style="fill:#7e4021;"/><path d="M110.634,2232.23c14.963,271.597 561.21,268.995 586.574,-12.331c16.694,-185.159 21.352,-347.355 21.352,-490.47c-0,-121.399 -6.056,-290.998 -13.777,-457.908c-13.582,-293.597 -579.62,-301.981 -594.272,-8.903c-9.6,192.038 -17.546,391.024 -17.546,523.615c-0,131.4 8.229,274.654 17.669,445.997Z" style="fill:#fff;"/><path d="M93.992,2233.14c8.071,146.494 159.435,220.838 312.202,216.811c148.214,-3.906 294.34,-81.344 307.614,-228.562c7.828,-86.825 13.018,-168.616 16.325,-245.772c3.768,-87.885 5.093,-169.753 5.093,-246.195c0,-53.377 -1.166,-116.049 -3.13,-183.711c-2.511,-86.493 -6.324,-181.154 -10.664,-274.967c-7.179,-155.17 -158.114,-237.448 -311.421,-240.321c-154.676,-2.898 -308.333,75.076 -316.146,231.356c-5.341,106.843 -10.17,215.835 -13.407,314.368c-2.59,78.863 -4.16,151.037 -4.16,210.079c0,57.057 1.544,116.341 4.066,179.172c3.297,82.175 8.267,170.433 13.628,267.742l0,0Zm33.283,-1.834c-5.351,-97.128 -10.314,-185.222 -13.605,-267.245c-2.502,-62.361 -4.038,-121.203 -4.038,-177.835c-0,-58.735 1.565,-130.533 4.142,-208.985c3.23,-98.354 8.051,-207.148 13.383,-313.798c6.895,-137.92 145.725,-202.25 282.23,-199.692c135.672,2.542 272.394,71.212 278.747,208.533c4.331,93.617 8.137,188.081 10.643,274.394c1.953,67.306 3.116,129.648 3.116,182.744c0,75.998 -1.317,157.392 -5.062,244.767c-3.287,76.665 -8.444,157.935 -16.222,244.207c-11.75,130.318 -144.094,194.776 -275.293,198.234c-134.296,3.539 -270.946,-56.542 -278.041,-185.324l0,0Z" style="fill:#7e4021;"/><path d="M258.656,2096.54c-3.144,-0.353 -7.292,-0.766 -9.073,-0.738c-9.672,0.149 -19.446,1.391 -28.83,3.737c-29.27,7.317 -44.341,25.911 -47.665,46.455c-3.181,19.667 4.771,42.609 25.42,60.946c24.655,21.895 56.419,31.361 88.783,33.281c73.178,4.341 97.469,-29.493 121.451,-64.071c18.321,-26.416 36.314,-53.558 92.149,-50.871c32.735,1.576 57.009,7.235 74.153,15.721c13.993,6.927 22.682,15.456 26.317,25.074c3.972,10.508 1.448,21.746 -4.747,31.531c-10.958,17.309 -33.094,30.272 -58.674,30.272c-9.199,0 -16.667,7.469 -16.667,16.667c0,9.199 7.468,16.667 16.667,16.667c38.033,-0 70.545,-20.04 86.838,-45.776c11.974,-18.914 15.441,-40.833 7.764,-61.146c-11.086,-29.332 -48.563,-58.383 -130.048,-62.304c-72.969,-3.512 -97.199,30.646 -121.143,65.168c-18.283,26.362 -36.296,53.102 -92.086,49.793c-24.921,-1.479 -49.638,-8.07 -68.623,-24.93c-10.636,-9.445 -16.287,-20.568 -14.648,-30.698c1.498,-9.259 9.652,-16.143 22.843,-19.441c6.92,-1.73 14.129,-2.636 21.261,-2.746c2.612,-0.04 8.262,1.049 11.118,1.171c4.079,0.175 7.078,-0.689 8.633,-1.32c8.954,-3.631 11.124,-10.407 10.558,-17.102c-0.222,-2.626 -0.852,-8.204 -7.78,-12.998c-4.238,-2.933 -9.364,-3.629 -13.971,-2.342Zm-5.654,29.272c0.208,0.161 0.428,0.321 0.657,0.48l-0.657,-0.48Zm-0.548,-0.439l0.244,0.196l-0.276,-0.224l0.032,0.028Z" style="fill:#7e4021;"/><path d="M201.953,2013.24c-7.27,-3.143 -15.976,-0.719 -20.494,6.118c-3.867,5.854 -3.488,11.216 -1.594,15.862c1.184,2.904 3.299,5.986 7.154,8.289c1.475,0.882 3.675,1.865 6.469,2.406c2.43,0.47 6.564,0.555 7.777,0.651c12.369,0.975 24.783,0.992 37.18,1.287c27.994,0.666 55.983,1.464 83.978,2.081c32.276,0.711 154.535,9.447 228.774,-9.069c21.698,-5.411 39.6,-13.305 51.411,-23.556c9.962,-8.646 16.112,-19.013 18.014,-31.031c6.621,-41.828 -22.449,-72.07 -72.73,-90.816c-97.515,-36.357 -277.855,-32.032 -327.09,-37.626c-9.139,-1.039 -17.403,5.538 -18.442,14.678c-1.038,9.14 5.539,17.403 14.679,18.442c48.032,5.458 224.076,0.27 319.208,35.739c32.35,12.061 55.711,27.461 51.452,54.372c-0.93,5.873 -5.186,10.221 -10.885,14.073c-8.572,5.795 -20.234,10.028 -33.683,13.383c-71.375,17.801 -188.942,8.77 -219.973,8.086c-27.976,-0.617 -55.946,-1.414 -83.92,-2.08c-11.788,-0.28 -23.593,-0.266 -35.353,-1.194l-1.932,-0.095Zm10.05,14.382c0.179,3.164 -0.538,6.403 -2.237,9.311c1.964,-3.286 2.52,-6.406 2.237,-9.311Z" style="fill:#7e4021;"/><path d="M217.145,1730.93c0.018,-5.874 -3.077,-11.581 -8.57,-14.633c-6.328,-3.516 -11.459,-2.386 -15.237,-0.691c-3.861,1.732 -7.692,4.947 -9.383,10.9c-0.512,1.801 -0.941,4.926 -0.413,8.433c0.514,3.416 2.079,7.604 2.09,7.629c7.326,15.687 22.91,28.843 41.98,38.965c24.36,12.931 54.305,21.315 73.044,26.923c39.104,11.703 117.472,23.428 184.732,17.788c48.488,-4.067 91.072,-17.923 112.736,-44.174c29.268,-35.467 8.033,-73.037 -36.965,-99.304c-38.964,-22.744 -94.595,-36.968 -130.695,-34.675c-20.647,1.311 -35.762,8.57 -43.083,19.009c-6.542,9.328 -9.57,21.48 -10.378,34.653c-0.899,14.653 1.065,30.756 -0.051,43.033c-0.833,9.161 5.928,17.274 15.089,18.107c9.161,0.833 17.275,-5.928 18.107,-15.089c0.977,-10.743 -0.192,-24.275 -0.087,-37.391c0.072,-9.02 0.232,-17.929 4.611,-24.173c1.419,-2.023 4.336,-2.63 7.639,-3.434c6.545,-1.596 14.643,-1.935 23.63,-1.424c30.268,1.723 69.596,13.35 98.414,30.172c11.666,6.81 21.586,14.382 27.901,22.702c3.294,4.342 5.592,8.76 5.719,13.438c0.119,4.369 -1.864,8.679 -5.561,13.159c-17.069,20.684 -51.607,28.97 -89.811,32.174c-62.763,5.263 -135.901,-5.585 -172.39,-16.505c-17.161,-5.136 -44.665,-12.59 -66.973,-24.431c-11.024,-5.852 -20.946,-12.48 -26.095,-21.161Z" style="fill:#7e4021;"/><path d="M425.985,1575.52c2.96,-2.544 5.046,-6.13 5.636,-10.294c2.85,-20.101 -2.065,-46.339 -4.133,-68.896c71.176,-1.028 136.747,-0.294 158.446,-4.634c9.02,-1.804 14.879,-10.592 13.075,-19.612c-1.804,-9.02 -10.592,-14.878 -19.612,-13.074c-37.109,7.421 -203.608,-0.422 -304.885,11.829c-33.564,4.06 -60.491,10.696 -75.283,19.768c-10.13,6.212 -15.911,13.945 -18.097,22.068c-1.862,6.915 -0.342,14.992 7.122,22.148c9.437,9.047 36.932,18.627 41.961,20.566c114.768,44.24 240.22,61.559 360.279,85.797c1.877,0.379 11.97,3.257 16.983,3.147c7.569,-0.167 12.377,-3.841 14.938,-7.191c5.586,-7.308 4.188,-17.777 -3.121,-23.363c-3.958,-3.026 -8.845,-4.002 -13.38,-3.096c-2.544,-0.64 -7.965,-1.998 -8.824,-2.171c-56.388,-11.384 -114,-21.157 -171.105,-32.992Zm-31.843,-78.561c-40.991,0.989 -81.896,2.892 -115.627,6.972c-23.067,2.791 -42.527,6.473 -55.591,11.97c7.892,3.491 17.258,7.605 19.281,8.385c50.942,19.637 104.035,33.833 157.833,45.693c-1.34,-2.841 -1.894,-6.092 -1.42,-9.433c2.632,-18.568 -2.468,-42.797 -4.476,-63.587Z" style="fill:#7e4021;"/><path d="M385.874,1347.88c-0.783,-1.259 -1.574,-2.603 -2.203,-3.816c-4.125,-7.945 -8.557,-18.144 -13.892,-28.788c-19.123,-38.151 -49.309,-78.951 -106.623,-68.41c-12.614,2.32 -29.597,13.364 -45.351,29.819c-21.28,22.226 -40.948,53.785 -46.45,78.629c-5.681,25.655 1.876,45.424 24.63,53.27c18.531,6.39 56.103,9.918 101.817,11.172c101.659,2.789 245.364,-4.274 298.218,-5.087c9.197,-0.142 16.55,-7.724 16.408,-16.922c-0.142,-9.197 -7.724,-16.549 -16.921,-16.408c-52.602,0.81 -195.619,7.872 -296.791,5.097c-41.212,-1.131 -75.158,-3.603 -91.864,-9.364c-3.542,-1.221 -4.039,-4.516 -3.866,-8.16c0.289,-6.063 2.435,-12.966 5.556,-20.202c8.192,-18.992 23.268,-39.627 38.289,-53.912c8.167,-7.767 15.851,-13.953 22.354,-15.148c39.36,-7.239 57.662,24.363 70.795,50.563c7.915,15.791 14.087,30.595 19.975,39.28c4.722,6.967 9.982,11.165 14.843,13.109c2.662,1.065 6.544,1.888 11.62,0.902c4.864,-0.944 14.398,-5.197 26.689,-12.509c49.537,-29.47 159.194,-111.06 181.916,-124.315c7.946,-4.635 10.634,-14.848 5.999,-22.794c-4.635,-7.945 -14.849,-10.633 -22.794,-5.998c-22.752,13.272 -132.562,94.952 -182.164,124.46c-3.362,2 -7.133,3.988 -10.19,5.532Z" style="fill:#7e4021;"/><path d="M738.192,3173.29c10.913,22.305 18.877,92.606 15.988,131.756c-2.659,36.033 -23.828,96.741 -33.321,103.144c-5.526,3.726 -11.485,-4.456 -14.572,-7.924c-5.905,-6.634 -25.587,-37.368 -33.99,-35.996c-8.603,1.404 -14.401,14.324 -18.721,20.557c-11.014,15.888 -31.139,47.251 -54.071,44.974c-17.482,-1.736 -25.667,-24.52 -34.126,-37.017c-3.71,-5.481 -8.422,-15.077 -16.409,-13.177c-21.878,5.203 -36.224,34.675 -61.943,35.231c-12.503,0.27 -21.47,-6.988 -28.549,-16.544c-2.528,-3.413 -7.232,-14.273 -12.719,-12.6c-7.263,2.215 -13.305,12.673 -17.751,18.16c-11.661,14.388 -29.871,36.951 -50.654,35.996c-16.867,-0.775 -27.29,-20.478 -35.962,-32.392c-4.824,-6.626 -9.435,-14.64 -18.704,-14.112c-28.617,1.628 -42.216,47.402 -72.282,43.307c-23.908,-3.256 -29.532,-48.44 -49.633,-49.922c-12.617,-0.93 -30.869,28.978 -37.629,38.139c-3.534,4.789 -8.529,12.886 -15.626,11.545c-21.924,-4.141 -28.294,-52.124 -48.069,-56.638c-10.705,-2.444 -27.302,29.217 -32.749,36.71c-2.546,3.503 -7.853,12.44 -13.467,10.423c-10.964,-3.938 -14.741,-80.689 -9.069,-139.095c5.811,-59.838 34.949,-110.198 34.949,-110.198c-0,-0 575.876,-1.34 659.079,-4.327Z" style="fill:#d9905f;"/><path d="M98.536,3399.46c0.604,0.833 1.191,1.723 1.775,2.649c4.156,6.59 7.873,14.697 11.963,22.014c8.364,14.959 19.159,26.216 32.15,28.669c7.727,1.46 14.683,-0.645 20.691,-5.186c4.583,-3.463 8.505,-8.863 11.44,-12.84c3.836,-5.199 11.516,-17.518 19.68,-26.308c1.104,-1.188 2.686,-2.572 3.977,-3.646c0.728,0.775 1.538,1.694 2.091,2.464c4.126,5.743 7.812,13.062 11.983,19.696c8.641,13.743 19.646,24.258 33.871,26.196c17.277,2.353 31.294,-5.488 43.896,-17.417c6.426,-6.082 12.491,-13.262 19.066,-19.021c3.493,-3.06 6.976,-5.924 11.27,-6.602c1.131,1.417 4.007,5.05 5.528,7.139c5.745,7.891 12.357,18.745 20.612,26.456c7.954,7.431 17.295,12.282 28.06,12.776c11.936,0.548 23.448,-3.81 33.836,-11.155c12.122,-8.57 22.716,-21.354 30.531,-30.996c1.32,-1.629 2.779,-3.675 4.363,-5.824c10.328,13.819 23.907,23.369 42.068,22.977c14,-0.303 25.749,-6.354 36.444,-14.617c5.929,-4.582 11.517,-9.852 17.27,-14.373c2.4,-1.886 4.78,-3.686 7.315,-5.001c1.109,1.613 2.415,3.514 3.161,4.617c5.371,7.935 10.773,19.703 18.123,28.314c7.52,8.809 16.802,14.818 28.158,15.945c13.482,1.339 26.659,-4.311 38.228,-14.174c12.939,-11.031 23.946,-27.443 31.187,-37.89c1.742,-2.513 3.727,-6.07 6.019,-9.567c7.994,8.635 16.936,22.537 20.545,26.592c3.562,4.002 10.178,10.941 16.511,13.16c6.536,2.289 13.25,1.938 19.83,-2.5c4.09,-2.758 10.923,-11.762 16.86,-25.496c10.257,-23.724 21.785,-63.422 23.763,-90.239c3.079,-41.713 -6.011,-116.542 -17.638,-140.307c-2.892,-5.911 -8.992,-9.567 -15.569,-9.331c-83.132,2.985 -658.52,4.316 -658.52,4.316c-5.935,0.014 -11.415,3.183 -14.387,8.32c-0,0 -30.945,53.435 -37.112,116.934c-4.749,48.9 -2.82,110.079 3.878,134.708c3.655,13.442 11.137,19.885 16.147,21.684c6.504,2.336 12.986,1.529 19.021,-2.04c5.539,-3.277 10.852,-10.543 13.56,-14.269c2.637,-3.626 7.872,-12.862 13.788,-21.22c1.217,-1.719 2.983,-3.816 4.567,-5.607Zm617.02,-14.225c-6.577,-8.513 -18.326,-24.956 -26.862,-31.564c-7.086,-5.486 -14.084,-6.666 -19.083,-5.85c-5.733,0.936 -11.112,3.788 -15.804,8.237c-5.752,5.455 -10.398,14.181 -13.928,19.274c-5.098,7.354 -12.235,18.344 -20.821,27.177c-5.498,5.658 -11.108,11.382 -17.906,10.707c-3.956,-0.393 -6.095,-4.132 -8.488,-7.514c-5.22,-7.378 -9.309,-16.094 -13.483,-22.26c-2.976,-4.396 -6.756,-10.524 -11.352,-14.373c-6.344,-5.314 -13.872,-7.78 -22.715,-5.677c-11.195,2.663 -21.152,9.783 -30.811,18.026c-4.197,3.581 -8.378,7.344 -12.821,10.564c-4.445,3.222 -9.093,6.07 -14.815,6.193c-6.725,0.145 -10.989,-4.661 -14.797,-9.802c-2.28,-3.078 -6.383,-10.528 -10.795,-14.18c-6.218,-5.146 -13.204,-6.568 -20.177,-4.441c-5.432,1.657 -10.793,5.354 -15.449,10.361c-4.005,4.307 -7.529,9.717 -10.39,13.247c-5.275,6.509 -11.966,14.926 -19.754,21.549c-5.257,4.47 -10.84,8.583 -17.186,8.292c-3.958,-0.182 -6.65,-3.397 -9.372,-6.453c-5.422,-6.09 -9.825,-13.528 -13.881,-19.099c-8.068,-11.082 -17.622,-21.826 -33.125,-20.943c-15.482,0.881 -28.348,10.203 -40.056,22.053c-4.921,4.981 -9.686,10.342 -14.755,14.805c-4.275,3.764 -8.509,7.361 -14.275,6.575c-2.9,-0.395 -4.564,-3.058 -6.491,-5.57c-4.407,-5.744 -8.045,-12.881 -11.862,-19.191c-8.724,-14.417 -19.561,-24.329 -32.304,-25.268c-7.336,-0.541 -16.345,2.776 -24.751,10.295c-10.965,9.808 -22.386,27.62 -27.514,34.569c-0.515,0.698 -1.357,1.785 -2.19,2.843c-0.853,-1.141 -1.603,-2.564 -2.511,-3.912c-4.277,-6.357 -7.921,-14.233 -11.772,-21.359c-8.117,-15.019 -18.372,-26.34 -30.102,-29.018c-7.484,-1.708 -17.407,1 -26.291,9.931c-5.655,5.686 -11.524,14.41 -16.2,21.719c-3.238,-27.637 -3.367,-70.207 0.086,-105.752c4.089,-42.107 20.468,-79.219 28.416,-95.167c73.659,-0.188 531.594,-1.443 637.676,-3.97l-0,-0c8.123,27.018 13.079,81.475 10.714,113.53c-1.744,23.629 -12.079,58.56 -21.117,79.464l-0.886,1.952Z" style="fill:#7e4021;"/><path d="M74.904,283.375c-10.913,-22.304 -18.877,-92.606 -15.988,-131.755c2.659,-36.033 23.828,-96.742 33.321,-103.144c5.526,-3.727 11.485,4.455 14.572,7.923c5.905,6.635 25.587,37.369 33.99,35.997c8.603,-1.405 14.401,-14.325 18.721,-20.557c11.014,-15.888 31.139,-47.252 54.071,-44.975c17.482,1.736 25.667,24.521 34.126,37.017c3.71,5.481 8.422,15.077 16.408,13.178c21.879,-5.204 36.225,-34.676 61.944,-35.232c12.503,-0.27 21.47,6.988 28.549,16.545c2.528,3.412 7.232,14.273 12.719,12.599c7.263,-2.215 13.305,-12.673 17.751,-18.159c11.661,-14.389 29.871,-36.951 50.654,-35.997c16.867,0.775 27.29,20.479 35.962,32.392c4.824,6.626 9.435,14.64 18.704,14.113c28.617,-1.629 42.216,-47.403 72.282,-43.308c23.908,3.256 29.531,48.44 49.633,49.922c12.617,0.93 30.869,-28.978 37.629,-38.139c3.534,-4.788 8.529,-12.886 15.626,-11.545c21.924,4.141 28.294,52.125 48.069,56.639c10.705,2.443 27.302,-29.218 32.749,-36.711c2.546,-3.503 7.853,-12.439 13.467,-10.423c10.964,3.938 14.741,80.69 9.069,139.096c-5.811,59.837 -34.949,110.198 -34.949,110.198c0,-0 -575.876,1.339 -659.079,4.326Z" style="fill:#d9905f;"/><path d="M367.776,48.141c-10.327,-13.818 -23.906,-23.369 -42.067,-22.976c-14,0.302 -25.749,6.354 -36.444,14.617c-5.929,4.581 -11.517,9.851 -17.27,14.372c-2.4,1.886 -4.781,3.686 -7.315,5.001c-1.109,-1.613 -2.415,-3.514 -3.161,-4.617c-5.371,-7.935 -10.773,-19.703 -18.123,-28.314c-7.52,-8.809 -16.802,-14.817 -28.158,-15.945c-13.482,-1.338 -26.659,4.311 -38.228,14.174c-12.939,11.031 -23.946,27.444 -31.187,37.89c-1.742,2.513 -3.727,6.07 -6.019,9.567c-7.994,-8.635 -16.936,-22.537 -20.545,-26.591c-3.562,-4.003 -10.178,-10.942 -16.511,-13.16c-6.536,-2.29 -13.25,-1.939 -19.83,2.499c-4.09,2.758 -10.923,11.762 -16.86,25.496c-10.258,23.725 -21.785,63.422 -23.764,90.239c-3.078,41.713 6.012,116.542 17.639,140.307c2.892,5.911 8.992,9.567 15.569,9.331c83.132,-2.985 658.52,-4.316 658.52,-4.316c5.935,-0.014 11.415,-3.183 14.387,-8.32c0,0 30.945,-53.434 37.112,-116.933c4.749,-48.901 2.82,-110.08 -3.878,-134.709c-3.655,-13.442 -11.137,-19.884 -16.147,-21.684c-6.505,-2.336 -12.986,-1.529 -19.021,2.041c-5.539,3.276 -10.852,10.543 -13.56,14.268c-2.637,3.627 -7.872,12.863 -13.788,21.221c-1.217,1.718 -2.983,3.815 -4.567,5.606c-0.604,-0.833 -1.191,-1.722 -1.775,-2.648c-4.156,-6.59 -7.873,-14.698 -11.963,-22.015c-8.364,-14.959 -19.159,-26.215 -32.15,-28.669c-7.727,-1.46 -14.683,0.646 -20.691,5.186c-4.583,3.464 -8.505,8.863 -11.44,12.84c-3.837,5.2 -11.516,17.518 -19.68,26.308c-1.104,1.188 -2.686,2.572 -3.977,3.646c-0.728,-0.774 -1.538,-1.694 -2.091,-2.463c-4.126,-5.744 -7.812,-13.063 -11.983,-19.697c-8.641,-13.743 -19.646,-24.258 -33.871,-26.195c-17.277,-2.353 -31.294,5.488 -43.896,17.416c-6.426,6.082 -12.491,13.263 -19.066,19.022c-3.493,3.059 -6.976,5.924 -11.27,6.602c-1.131,-1.417 -4.007,-5.05 -5.528,-7.14c-5.745,-7.891 -12.357,-18.744 -20.612,-26.456c-7.954,-7.431 -17.295,-12.281 -28.06,-12.776c-11.936,-0.548 -23.448,3.81 -33.837,11.155c-12.121,8.57 -22.715,21.355 -30.53,30.997c-1.32,1.628 -2.779,3.675 -4.364,5.823Zm297.777,-9.293c0.853,1.142 1.603,2.564 2.511,3.913c4.277,6.356 7.921,14.233 11.772,21.358c8.117,15.019 18.372,26.341 30.102,29.018c7.484,1.709 17.407,-1 26.291,-9.931c5.655,-5.686 11.524,-14.409 16.2,-21.718c3.238,27.637 3.366,70.206 -0.086,105.752c-4.089,42.106 -20.468,79.218 -28.416,95.167c-73.66,0.187 -531.594,1.443 -637.676,3.97l-0,-0c-8.123,-27.019 -13.079,-81.476 -10.714,-113.531c1.744,-23.629 12.079,-58.56 21.117,-79.464l0.886,-1.952c6.577,8.513 18.326,24.957 26.862,31.565c7.086,5.486 14.084,6.666 19.083,5.85c5.733,-0.936 11.112,-3.789 15.804,-8.238c5.752,-5.455 10.398,-14.18 13.928,-19.273c5.098,-7.354 12.235,-18.344 20.821,-27.178c5.498,-5.658 11.108,-11.382 17.906,-10.707c3.956,0.393 6.095,4.132 8.488,7.515c5.22,7.377 9.309,16.093 13.483,22.26c2.976,4.396 6.756,10.523 11.352,14.373c6.344,5.313 13.872,7.779 22.715,5.676c11.195,-2.663 21.151,-9.783 30.811,-18.026c4.197,-3.581 8.378,-7.344 12.821,-10.564c4.445,-3.222 9.093,-6.069 14.815,-6.193c6.725,-0.145 10.989,4.662 14.797,9.802c2.28,3.078 6.383,10.528 10.795,14.18c6.218,5.146 13.204,6.568 20.177,4.441c5.432,-1.656 10.793,-5.354 15.449,-10.361c4.005,-4.306 7.529,-9.717 10.39,-13.246c5.275,-6.509 11.966,-14.927 19.754,-21.549c5.257,-4.471 10.84,-8.584 17.186,-8.293c3.958,0.182 6.65,3.397 9.372,6.453c5.422,6.091 9.825,13.528 13.881,19.099c8.068,11.083 17.621,21.826 33.125,20.944c15.482,-0.882 28.348,-10.204 40.056,-22.054c4.921,-4.98 9.686,-10.342 14.755,-14.805c4.275,-3.764 8.509,-7.36 14.275,-6.575c2.9,0.395 4.564,3.059 6.491,5.57c4.407,5.745 8.045,12.882 11.862,19.191c8.724,14.417 19.561,24.329 32.304,25.269c7.336,0.541 16.345,-2.777 24.751,-10.296c10.965,-9.807 22.386,-27.62 27.514,-34.569c0.515,-0.698 1.357,-1.784 2.19,-2.843Z" style="fill:#7e4021;"/></g></svg>