<?xml version="1.0" encoding="UTF-8" standalone="no"?><!DOCTYPE svg PUBLIC "-//W3C//DTD SVG 1.1//EN" "http://www.w3.org/Graphics/SVG/1.1/DTD/svg11.dtd"><svg width="100%" height="100%" viewBox="0 0 3940 3190" version="1.1" xmlns="http://www.w3.org/2000/svg" xmlns:xlink="http://www.w3.org/1999/xlink" xml:space="preserve" xmlns:serif="http://www.serif.com/" style="fill-rule:evenodd;clip-rule:evenodd;stroke-linejoin:round;stroke-miterlimit:2;"><g id="Cake"><path d="M2050.87,841.789c7.784,11.216 -27.303,-0.601 -40.955,-0.484c-38.9,0.333 -78.593,6.729 -117.109,11.476c-110.722,13.646 -221.594,30.74 -330.76,53.755c-329.887,69.549 -661.37,173.346 -962.219,326.826c-702.039,358.151 -778.915,992.647 -182.988,1521.05c868.542,770.124 2953.64,434.807 3440.5,-652.336c403.966,-902.062 -1173.51,-1241.8 -1806.47,-1260.28Z" style="fill:#fff;"/><path d="M2040.53,828.722c-8.93,-1.594 -24.281,-4.139 -30.761,-4.083c-39.528,0.339 -79.867,6.777 -119.004,11.6c-111.191,13.704 -222.532,30.877 -332.16,53.989c-331.311,69.849 -664.208,174.145 -966.355,328.287c-357.076,182.166 -554.161,435.441 -587.204,709.532c-33.031,273.987 97.745,570.177 400.733,838.833c437.583,387.998 1181.4,498.641 1877.37,374.243c696.404,-124.476 1343.96,-484.177 1589.39,-1032.24c66.328,-148.112 80.284,-281.496 54.803,-401.076c-38.08,-178.706 -164.674,-327.028 -339.636,-447.453c-430.36,-296.213 -1154.33,-424.073 -1536.36,-435.227c-3.99,-0.116 -7.806,1.199 -10.824,3.593Zm21.223,30.093c380.429,13.185 1086.03,139.208 1507.06,428.999c167.294,115.147 289.522,256.068 325.934,426.942c24.18,113.472 10.316,239.958 -52.624,380.505c-241.416,539.083 -879.84,890.612 -1564.84,1013.05c-685.432,122.515 -1418.43,15.754 -1849.39,-366.371c-292.939,-259.745 -421.689,-545.002 -389.754,-809.902c31.922,-264.795 224.294,-507.843 569.258,-683.829c299.55,-152.818 629.62,-256.115 958.084,-325.364c108.703,-22.917 219.107,-39.933 329.36,-53.522c37.894,-4.67 76.941,-11.023 115.213,-11.351c7.1,-0.061 20.41,3.563 29.508,4.751c8.632,1.126 15.456,-0.107 18.808,-1.786c1.257,-0.629 2.382,-1.337 3.382,-2.121Zm-25,-8.179c0.129,0.217 0.269,0.435 0.422,0.654l-0.422,-0.654Z" style="fill:#7e4021;"/><path d="M3242.22,2679.49c-5.199,0.271 -10.192,2.969 -13.197,7.692c-4.937,7.761 -2.644,18.071 5.118,23.008c2.307,1.468 5.212,2.606 8.855,2.801c2.957,0.158 8.287,-0.686 14.667,-3.876c14.567,-7.284 44.59,-29.978 48.274,-32.449c59.663,-40.031 114.98,-84.744 168.502,-132.572c6.859,-6.129 7.451,-16.674 1.322,-23.533c-6.129,-6.859 -16.674,-7.451 -23.533,-1.322c-52.372,46.8 -106.482,90.576 -164.863,129.746c-2.771,1.86 -21.09,15.778 -35.549,25.003c-3.359,2.142 -7.658,4.472 -9.596,5.502Z" style="fill:#7e4021;"/><path d="M3502.96,2465.7c-6.258,1.994 -11.007,7.612 -11.558,14.561c-0.728,9.17 6.126,17.206 15.295,17.934c3.536,0.28 8.428,-0.503 13.531,-3.747c5.739,-3.65 14.201,-13.287 16.833,-15.645c18.9,-16.928 36.659,-34.563 53.448,-53.608c6.083,-6.901 5.42,-17.441 -1.48,-23.524c-6.9,-6.083 -17.441,-5.42 -23.524,1.48c-15.919,18.058 -32.763,34.772 -50.683,50.822c-1.716,1.537 -9.59,9.44 -11.862,11.727Z" style="fill:#7e4021;"/><path d="M2016.79,1068.46c241.653,8.553 650.361,75.416 970.864,221.692c213.349,97.372 387.939,229.443 444.241,404.655c31.319,97.468 25.431,208.102 -30.55,333.108c-63.101,140.905 -161.22,265.314 -283.822,372.043c-6.938,6.04 -7.667,16.576 -1.627,23.514c6.039,6.938 16.576,7.667 23.514,1.627c126.357,-109.998 227.324,-238.339 292.357,-383.56c59.972,-133.917 65.415,-252.514 31.863,-356.929c-58.812,-183.024 -239.276,-323.07 -462.136,-424.782c-329.29,-150.287 -750.463,-217.912 -993.83,-225.017c-3.432,-0.1 -6.736,0.859 -9.512,2.657c-7.018,-1.247 -18.229,-3.083 -23.07,-3.041c-30.977,0.265 -62.591,5.298 -93.262,9.078c-86.853,10.704 -173.823,24.119 -259.454,42.172c-258.797,54.562 -518.83,136.041 -754.846,256.447c-279.917,142.802 -434.198,341.527 -460.101,556.392c-25.89,214.76 76.361,447.044 313.853,657.625c218.309,193.571 533.841,299.101 875.162,324.698c9.173,0.688 17.179,-6.201 17.866,-15.373c0.688,-9.173 -6.2,-17.179 -15.373,-17.867c-333.539,-25.014 -642.209,-127.241 -855.54,-316.399c-227.443,-201.67 -327.669,-423.022 -302.874,-628.694c24.782,-205.568 174.35,-394.066 442.155,-530.689c233.419,-119.081 490.625,-199.562 746.575,-253.523c84.706,-17.859 170.739,-31.117 256.654,-41.706c29.428,-3.627 59.75,-8.574 89.471,-8.829c6.556,-0.056 19.679,3.687 26.762,4.088c5.636,0.32 9.947,-0.862 12.543,-2.162c0.755,-0.378 1.461,-0.786 2.117,-1.225Zm-23.775,-8.219c0.143,0.242 0.3,0.486 0.47,0.731l-0.47,-0.731Z" style="fill:#7e4021;"/><path d="M1739.02,2886.91c58.317,0.63 117.078,-0.959 175.94,-4.723c9.18,-0.587 16.156,-8.517 15.569,-17.697c-0.587,-9.179 -8.516,-16.156 -17.696,-15.569c-58.03,3.712 -115.961,5.278 -173.453,4.657c-9.198,-0.099 -16.746,7.288 -16.846,16.486c-0.099,9.198 7.288,16.746 16.486,16.846Z" style="fill:#7e4021;"/><path d="M1580.25,1410.25c-7.644,-9.227 72.078,-56.97 75.881,-59.497c86.995,-57.814 176.17,-112.521 264.748,-167.868c329.066,-205.611 666.218,-369.579 1028.65,-504.429c65.671,-24.434 132.167,-43.583 194.938,-75.339c6.236,-3.155 96.776,-49.598 97.211,-48.799c23.919,43.962 33.504,104.628 38.199,153.279c6.082,63.017 18.109,206.012 -9.047,265.447c-34.577,75.679 -933.15,668.486 -1147.69,807.636c-121.072,78.528 -258.61,123.364 -386.694,188.302c-17.382,8.813 -108.555,68.843 -129.216,60.074c-22.194,-9.418 -36.098,-156.943 -36.298,-175.021c-1.633,-147.706 23.758,-296.565 9.315,-443.785Z" style="fill:#f7bf9a;"/><path d="M1563.93,1414.69c13.801,145.825 -11.282,293.244 -9.665,439.529c0.166,14.955 9.497,115.563 24.934,160.201c3.457,9.996 7.479,17.637 11.403,22.273c3.229,3.817 6.731,6.269 10.115,7.706c3.91,1.659 8.972,2.551 15.062,2.051c8.08,-0.663 19.279,-4.1 31.827,-9.55c35.304,-15.334 84.098,-46.828 96.376,-53.052c128.609,-65.206 266.657,-110.335 388.227,-189.185c171.809,-111.435 781.844,-513.528 1036.71,-708.69c45.367,-34.738 79.629,-63.08 98.542,-82.215c9.861,-9.976 15.957,-18.163 18.527,-23.788c11.56,-25.303 16.876,-64.764 18.166,-107.386c1.842,-60.839 -3.994,-128.294 -7.689,-166.588c-4.893,-50.699 -15.223,-113.832 -40.149,-159.643c-1.898,-3.488 -6.017,-9.277 -15.706,-8.68c-0.632,0.039 -3.84,0.404 -8.601,2.61c-15.122,7.008 -89.425,45.108 -95.068,47.963c-62.21,31.472 -128.142,50.374 -193.226,74.589c-363.499,135.246 -701.64,299.7 -1031.67,505.916c-88.71,55.429 -178.017,110.221 -265.142,168.121c-3.165,2.103 -56.708,34.538 -73.993,52.249c-6.126,6.277 -8.908,12.342 -9.572,16.337c-0.563,3.389 -0.32,6.461 0.594,9.236l-0.001,-0.004Zm1670.03,-838.278c17.843,40.385 25.313,91.201 29.326,132.786c3.603,37.326 9.346,103.076 7.551,162.378c-1.134,37.472 -5.003,72.297 -15.167,94.542c-2.28,4.991 -9.571,12.306 -20.314,22.343c-19.268,18.002 -49.058,42.223 -86.701,71.047c-254.339,194.757 -863.131,595.985 -1034.59,707.189c-120.576,78.206 -257.603,122.748 -385.161,187.42c-12.057,6.113 -59.913,37.15 -94.583,52.209c-6.56,2.849 -15.106,5.185 -19.396,6.271c-2.11,-4.944 -6.683,-16.184 -9.105,-26.054c-11.388,-46.419 -18.092,-120.389 -18.228,-132.693c-1.625,-146.955 23.307,-295.051 9.583,-441.529c2.78,-2.624 7.813,-7.238 12.259,-10.608c21.5,-16.296 53.553,-35.511 55.912,-37.079c86.866,-57.728 175.91,-112.35 264.356,-167.614c328.099,-205.008 664.263,-368.49 1025.63,-502.944c66.257,-24.652 133.318,-44.047 196.649,-76.087c4.634,-2.344 56.064,-28.724 81.971,-41.577Zm-1637.3,830.958c-0.498,-2.844 -1.729,-5.518 -3.581,-7.753c1.747,2.108 3.311,4.693 3.581,7.753Z" style="fill:#7e4021;"/><path d="M3284.19,1132.27c-3.673,-17.321 4.072,35.177 6.135,52.762c4.404,37.523 5.612,85.54 -12.59,119.569c-13.804,25.809 -45.472,61.112 -24.698,92.72c8.157,12.411 40.21,15.313 41.194,30.383c1.847,28.287 11.605,152.927 -16.246,184.372c-124.06,140.066 -420.531,366.153 -576.154,468.934c-412.464,272.413 -1079.72,698.566 -1094.62,678.078c-19.435,-26.709 -64.211,-501.426 30.042,-605.194c124.265,-136.809 415.186,-264.703 575.586,-365.188c353.602,-221.517 734.796,-409.477 1071.36,-656.436Z" style="fill:#f7bf9a;"/><path d="M3267.22,1124.03c2.469,-8.899 11.054,-11.192 12.523,-11.51c4.333,-0.938 11.084,-1.259 16.784,6.161c0.413,0.538 2.545,3.426 3.966,10.128c0.427,2.011 0.471,4.042 0.167,6.001c1.562,11.772 4.99,37.813 6.217,48.275c4.768,40.628 5.261,92.529 -14.446,129.373c-6.73,12.582 -17.889,27.437 -24.759,43.04c-4.743,10.772 -7.7,22.027 -0.709,32.665c1.443,2.195 4.859,3.011 8.069,4.498c7.131,3.304 14.843,6.462 20.61,10.28c9.271,6.139 14.598,14.155 15.219,23.673c1.325,20.28 6.511,88.915 -0.216,139.317c-3.35,25.097 -10.243,45.967 -20.185,57.192c-124.787,140.887 -422.909,368.406 -579.445,471.791c-371.958,245.66 -950.778,615.988 -1073.7,672.654c-14.853,6.847 -25.186,9.152 -29.614,8.84c-7.126,-0.502 -11.362,-3.925 -13.976,-7.518c-3.462,-4.758 -8.715,-21.193 -12.873,-46.611c-8.254,-50.466 -16.624,-141.181 -17.927,-236.668c-1.122,-82.253 3.036,-168.022 16.812,-234.863c9.776,-47.429 24.794,-85.631 45.17,-108.064c125.087,-137.714 417.614,-266.957 579.075,-368.106c350.785,-219.753 728.781,-406.401 1063.24,-650.548Zm3.405,38.715c1.256,9.386 2.482,18.569 3.146,24.225c4.039,34.421 5.964,78.551 -10.733,109.766c-8.719,16.3 -23.924,36.348 -30.196,56.845c-5.412,17.687 -5.055,35.664 6.266,52.89c4.69,7.136 14.234,13.018 24.859,17.775c4.466,1.999 11.346,5.744 13.804,7.099c1.486,22.005 5.984,84.091 -0.167,130.177c-2.281,17.094 -5.325,31.853 -12.097,39.499c-123.332,139.245 -418.151,363.899 -572.862,466.078c-329.636,217.708 -822.161,533.729 -1013.62,640.943c-24.383,13.654 -48.006,24.886 -60.767,30.728c-1.475,-6.073 -3.213,-13.931 -4.511,-21.872c-8.083,-49.414 -16.218,-138.244 -17.494,-231.741c-1.088,-79.734 2.776,-162.887 16.129,-227.68c8.312,-40.328 19.872,-73.307 37.197,-92.381c123.444,-135.905 412.758,-262.45 572.097,-362.27c345.769,-216.611 717.869,-401.212 1048.94,-640.081Z" style="fill:#7e4021;"/><path d="M3275.95,979.914c-1.243,1.303 27.033,35.001 35.123,55.892c14.027,36.22 -12.895,75.352 -36.326,101.533c-148.888,166.361 -359.035,247.478 -509.596,409.577c-132.303,142.442 -282.291,227.76 -448.282,323.679c-94.962,54.875 -181.632,123.871 -286.206,159.337c-116.106,39.377 -196.296,105.227 -302.147,160.811c-27.595,14.49 -95.501,45.166 -128.556,33.255c-2.884,-1.039 -22.236,-175.681 7.527,-198.252c177.662,-134.728 392.316,-218.442 592.795,-309.379c142.181,-64.493 248.584,-187.32 370.205,-281.662c98.806,-76.643 215.514,-128.617 310.711,-209.477c116.231,-98.725 234.874,-226.395 394.752,-245.314Z" style="fill:#9d5e3e;"/><path d="M3291.4,973.663c-0.163,-0.402 -0.343,-0.802 -0.54,-1.196c-3.14,-6.288 -9.888,-9.93 -16.869,-9.104c-163.157,19.307 -284.967,148.412 -403.583,249.163c-95.009,80.7 -211.525,132.517 -310.136,209.01c-120.611,93.558 -225.876,215.696 -366.875,279.652c-201.588,91.441 -417.335,175.804 -595.981,311.278c-5.215,3.956 -9.994,10.458 -13.485,19.504c-3.657,9.477 -6.214,22.401 -7.687,37.262c-5.205,52.526 2.408,131.272 5.991,152.363c1.201,7.073 3.384,11.048 4.082,12.022c2.606,3.641 5.649,5.216 7.993,6.061c15.739,5.671 38.151,4.133 61.44,-1.94c30.69,-8.003 63.199,-23.147 80.515,-32.239c105.047,-55.162 184.526,-120.705 299.751,-159.783c105.617,-35.82 193.282,-105.268 289.192,-160.69c167.476,-96.777 318.668,-183.051 452.154,-326.768c74.423,-80.125 163.66,-140.124 252.603,-200.761c91.074,-62.091 181.842,-124.839 257.201,-209.043c15.483,-17.3 32.109,-39.887 39.789,-63.683c5.83,-18.064 6.696,-36.816 -0.34,-54.984c-6.962,-17.977 -31.417,-51.044 -35.215,-56.124Zm-23.654,24.167c8.322,11.383 22.537,30.443 27.785,43.995c5.367,13.858 2.275,28.222 -3.775,41.677c-7.198,16.009 -18.762,30.804 -29.428,42.722c-73.529,82.158 -162.279,143.149 -251.14,203.731c-90.994,62.036 -182.11,123.645 -258.249,205.618c-131.119,141.167 -279.903,225.531 -444.408,320.592c-94.016,54.327 -179.69,122.871 -283.221,157.984c-116.987,39.676 -197.888,105.832 -304.542,161.838c-15.799,8.296 -45.428,22.194 -73.43,29.497c-11.973,3.122 -23.562,5.347 -33.131,4.581c-3.586,-25.927 -9.292,-92.138 -4.792,-137.545c0.959,-9.679 2.36,-18.334 4.476,-25.232c1.125,-3.669 1.774,-6.827 3.667,-8.262c176.678,-133.982 390.24,-217.048 589.609,-307.481c143.362,-65.029 250.903,-188.544 373.536,-283.671c99,-76.794 215.901,-128.924 311.285,-209.943c111.365,-94.593 224.287,-217.445 375.758,-240.101Zm24.601,-14.991c-0.493,2.821 -1.721,5.516 -3.633,7.788c1.691,-1.977 3.106,-4.499 3.633,-7.788Z" style="fill:#7e4021;"/><path d="M1041.04,2204.91c23.857,-4.867 -6.062,-129.421 -7.836,-139.101c-10.291,-56.136 -45.192,-105.018 -81.972,-147.231c-63.108,-72.431 -163.526,-162.894 -262.485,-179.812c-20.423,-3.492 -38.502,4.66 -58.506,5.042c-30.628,0.584 -63.432,-10.374 -91.306,8.522c-28.878,19.576 -16.658,55.403 -38.184,80.256c-18.674,21.561 -46.591,37.762 -56.921,65.552c-15.963,42.947 30.092,75.362 48.6,108.551c10.021,17.969 7.549,36.472 22.198,53.604c27.464,32.121 70.808,41.173 111.392,42.203c12.954,0.329 28.937,-5.279 41.379,-1.352c30.22,9.54 51.128,38.809 84.647,47.859c43.562,11.762 90.923,0.436 135.462,6.909c30.229,4.392 58.368,15.981 85.643,29.372c15.979,7.845 49.08,23.462 67.889,19.626Z" style="fill:#fff;"/><path d="M1044.37,2221.24c9.949,-2.029 19.369,-11.511 21.714,-29.593c4.683,-36.111 -15.01,-120.781 -16.488,-128.843c-10.828,-59.068 -47.098,-110.756 -85.799,-155.175c-65.319,-74.968 -169.816,-167.781 -272.243,-185.292c-12.166,-2.08 -23.642,-0.893 -35.048,1.072c-8.751,1.508 -17.441,3.561 -26.584,3.735c-15.103,0.288 -30.741,-2.305 -46.041,-2.605c-18.916,-0.372 -37.305,2.475 -54.299,13.995c-18.465,12.517 -24.611,29.751 -28.762,48.307c-2.663,11.908 -3.835,24.635 -12.668,34.834c-9.018,10.411 -20.314,19.48 -30.556,29.35c-12.417,11.965 -23.342,25.037 -29.389,41.306c-10.032,26.991 -1.713,50.885 13.159,73.033c11.573,17.236 27.455,33.21 36.507,49.443c4.31,7.728 5.723,15.643 7.844,23.396c3.075,11.241 7.107,22.237 16.242,32.921c30.582,35.767 78.447,46.887 123.637,48.034c7.228,0.183 15.311,-1.171 23.312,-2.142c4.711,-0.572 9.386,-1.268 13.473,0.022c13.402,4.23 24.568,13.125 36.271,21.676c14.811,10.823 30.235,21.3 49.049,26.38c23.32,6.296 47.643,6.6 72.111,6.009c21.913,-0.53 43.945,-1.801 65.298,1.302c28.5,4.141 54.979,15.215 80.695,27.84c10.215,5.015 27.018,12.959 43.138,17.67c13.012,3.804 25.722,5.305 35.427,3.325Zm-11.88,-32.364c-4.31,-0.243 -9.189,-1.492 -14.196,-2.955c-14.14,-4.133 -28.839,-11.199 -37.799,-15.598c-28.835,-14.157 -58.634,-26.261 -90.591,-30.905c-23.186,-3.369 -47.104,-2.214 -70.897,-1.639c-21.237,0.513 -42.376,0.599 -62.617,-4.866c-14.707,-3.971 -26.495,-12.653 -38.073,-21.113c-14.686,-10.731 -29.083,-21.24 -45.902,-26.549c-6.962,-2.198 -14.698,-2.524 -22.657,-1.838c-7.91,0.681 -16.112,2.605 -23.316,2.422c-35.981,-0.913 -74.798,-7.895 -99.148,-36.373c-6.924,-8.098 -8.572,-16.769 -10.824,-25.321c-2.25,-8.544 -4.752,-17.083 -9.484,-25.569c-9.457,-16.957 -25.857,-33.785 -37.947,-51.79c-8.797,-13.101 -15.522,-26.871 -9.587,-42.837c4.282,-11.522 12.48,-20.444 21.273,-28.918c10.968,-10.568 22.967,-20.38 32.623,-31.529c10.544,-12.173 14.909,-26.306 18.095,-40.646c2.999,-13.498 3.529,-27.701 16.843,-36.727c10.881,-7.376 22.829,-8.497 34.941,-8.26c15.728,0.309 31.806,2.903 47.331,2.606c10.86,-0.207 21.212,-2.421 31.607,-4.212c7.741,-1.334 15.515,-2.477 23.772,-1.065c95.493,16.326 191.83,104.439 252.728,174.332c34.859,40.009 68.391,86.085 78.144,139.288c1.212,6.61 16.023,68.102 16.73,106.044c0.09,4.838 -0.559,10.507 -1.049,14.018Z" style="fill:#7e4021;"/><path d="M499.375,2060.74c0.259,1.501 0.803,2.978 1.645,4.355c3.6,5.885 11.301,7.741 17.186,4.141c5.95,-3.639 7.36,-8.578 6.151,-14.27c-0.333,-1.566 -2.594,-5.264 -3.734,-7.059c-1.076,-3.232 -2.064,-6.505 -2.946,-9.791c-3.158,-11.762 -4.643,-23.714 -4.732,-35.897c-0.232,-31.913 17.172,-57.626 42.872,-75.351c5.679,-3.917 7.109,-11.708 3.193,-17.387c-3.917,-5.679 -11.708,-7.11 -17.387,-3.193c-32.634,22.507 -53.972,55.589 -53.677,96.113c0.104,14.322 1.874,28.37 5.586,42.197c1.114,4.148 2.373,8.279 3.748,12.347c0.314,0.93 1.217,2.444 2.095,3.795Z" style="fill:#7e4021;"/><path d="M732.444,2092.23c13.752,5.499 24.361,18.605 34.704,28.493c10.977,10.495 22.816,19.236 35.69,27.241c7.382,4.591 15.586,9.713 24.123,11.844c0.23,0.057 4.937,0.751 6.362,0.961c2.27,0.687 4.759,0.735 7.197,0.002c6.607,-1.987 10.357,-8.964 8.37,-15.571c-0.475,-1.58 -2.058,-6.491 -8.542,-8.463c-1.081,-0.328 -6.071,-1.064 -7.797,-1.313c-5.902,-1.595 -11.391,-5.506 -16.512,-8.69c-11.395,-7.086 -21.898,-14.792 -31.616,-24.082c-13.907,-13.296 -29.18,-29.981 -48.387,-35.613c-10.637,-3.118 -19.657,-0.211 -25.035,5.064c-5.765,5.654 -8.882,14.883 -3.804,26.518c4.518,10.352 13.992,17.367 23.464,22.705c6.01,3.387 13.64,1.258 17.027,-4.752c3.387,-6.01 1.258,-13.64 -4.753,-17.027c-3.651,-2.058 -7.704,-4.158 -10.491,-7.317Z" style="fill:#7e4021;"/><path d="M963.191,2167.52l-6.812,-5.179c-12.322,-9.108 -25.167,-17.561 -37.607,-26.519c-26.819,-19.312 -52.916,-40.146 -77.136,-62.649c-20.721,-19.251 -40.21,-41.358 -65.141,-55.354c-24.608,-13.816 -53.925,-19.539 -81.22,-10.766c-41.785,13.431 -62.027,56.943 -35.443,94.447c3.99,5.629 11.799,6.959 17.427,2.97c5.628,-3.99 6.959,-11.798 2.969,-17.427c-15.97,-22.53 -2.404,-48.121 22.697,-56.189c20.64,-6.635 42.723,-1.683 61.332,8.764c23.211,13.031 41.071,33.947 60.363,51.871c24.978,23.207 51.885,44.704 79.543,64.62c12.357,8.898 25.117,17.29 37.356,26.336c0.649,0.48 5.672,4.64 8.902,6.658c1.999,1.25 3.804,1.999 5.021,2.346c4.719,1.344 8.255,0.02 10.495,-1.347c5.888,-3.594 7.752,-11.292 4.158,-17.181c-1.636,-2.681 -4.123,-4.527 -6.904,-5.401Z" style="fill:#7e4021;"/><path d="M596.368,2083.37c-4.798,-6.09 -15.295,-22.039 -19.053,-28.823c-9.855,-17.795 -16.25,-38.698 -13.946,-59.161c2.727,-24.212 17.8,-39.404 37.006,-48.717c21.299,-10.33 47.513,-13.753 70.073,-13.614c21.244,0.13 42.685,2.701 63.216,8.266c46.864,12.701 78.659,41.113 106.329,74.41c29.374,35.346 54.22,76.106 85.77,111.308c25.965,28.971 77.088,62.372 110.842,81.457c6.005,3.396 13.638,1.277 17.033,-4.729c3.396,-6.005 1.277,-13.638 -4.729,-17.033c-31.767,-17.962 -80.091,-49.114 -104.529,-76.38c-31.341,-34.969 -55.98,-75.49 -85.16,-110.602c-30.883,-37.162 -66.711,-68.385 -119.016,-82.561c-22.606,-6.127 -46.211,-8.993 -69.602,-9.136c-26.144,-0.16 -56.455,4.149 -81.136,16.119c-26.777,12.986 -47.139,34.659 -50.94,68.415c-2.88,25.579 4.6,51.827 16.919,74.07c4.196,7.576 15.927,25.381 21.285,32.182c4.269,5.419 12.135,6.353 17.554,2.083c5.42,-4.269 6.353,-12.135 2.084,-17.554Z" style="fill:#7e4021;"/><path d="M518.825,1827.22c2.273,-1.148 9.94,-5.017 10.286,-5.156c15.632,-6.28 32.121,-10.499 48.689,-13.409c45.832,-8.05 91.137,-2.81 135.846,8.914c57.617,15.109 116.364,38.717 161.834,78.092c50.371,43.619 87.739,102.387 138.116,145.603c5.236,4.492 13.134,3.888 17.626,-1.348c4.492,-5.236 3.888,-13.134 -1.348,-17.626c-50.348,-43.192 -87.686,-101.934 -138.028,-145.528c-48.337,-41.857 -110.61,-67.314 -171.859,-83.375c-48.213,-12.644 -97.086,-18.036 -146.512,-9.355c-18.272,3.209 -36.443,7.908 -53.683,14.833c-0.68,0.274 -15.001,7.275 -17.23,9.194c-3.429,2.953 -4.165,6.161 -4.425,7.854c-0.713,4.635 0.746,8.408 4.16,11.388c4.796,4.187 11.897,4.053 16.528,-0.081Zm0.403,-18.3c3.186,3.091 4.391,7.525 3.501,11.627c1.28,-4.82 -0.303,-8.625 -3.501,-11.627Z" style="fill:#7e4021;"/><path d="M692.015,1753.16c-2.301,-0.603 -4.798,-0.554 -7.214,0.278c-4.511,1.555 -6.061,4.267 -6.785,5.48c-1.563,2.618 -1.954,5.212 -1.707,7.669c0.308,3.068 1.58,6.999 6.335,9.673c0.649,0.366 6.71,1.728 6.71,1.728c-0,0 -0.591,-0.079 -0.803,-0.12c1.16,0.225 2.314,0.471 3.477,0.686c4.039,0.747 7.979,1.865 11.945,2.923c12.512,3.338 24.845,7.397 37.231,11.171c38.082,11.602 74.571,27.067 110.607,43.803c6.257,2.906 13.697,0.186 16.603,-6.071c2.906,-6.257 0.185,-13.697 -6.072,-16.603c-37.089,-17.225 -74.658,-33.103 -113.852,-45.044c-12.665,-3.858 -25.279,-7.997 -38.072,-11.411c-4.593,-1.225 -9.163,-2.485 -13.84,-3.351c-1.095,-0.202 -2.181,-0.436 -3.274,-0.647c-0.257,-0.05 -0.767,-0.111 -1.289,-0.164Zm4.657,21.866c-1.085,0.869 -2.335,1.569 -3.724,2.048c1.695,-0.585 2.882,-1.342 3.724,-2.048Z" style="fill:#7e4021;"/><path d="M1040.39,2115.85c-1.196,-0.479 -2.431,-0.96 -3.06,-1.176c-4.272,-1.461 -8.315,-3.666 -12.087,-6.13c-12.687,-8.289 -23.539,-19.398 -34.069,-30.192c-34.726,-35.598 -61.015,-77.374 -92.371,-115.73c-76.284,-93.314 -180.606,-146.811 -302.719,-139.666c-62.807,3.676 -137.436,31.161 -166.179,91.676c-3.947,8.309 -0.405,18.259 7.904,22.205c8.309,3.947 18.259,0.405 22.205,-7.904c23.625,-49.738 86.394,-69.679 138.017,-72.7c111.014,-6.496 205.614,42.654 274.965,127.487c31.973,39.111 58.907,81.609 94.318,117.908c12.214,12.522 24.981,25.207 39.698,34.821c6.077,3.971 12.649,7.411 19.532,9.765c2.696,0.922 8.769,3.318 11.048,3.597c2.643,0.324 4.806,0.035 6.41,-0.356c7.021,-1.713 10.618,-6.2 12.225,-11.596c0.877,-2.944 2.03,-8.201 -2.406,-14.724c-3.148,-4.63 -8.224,-7.174 -13.431,-7.285Zm-16.594,20.38c0.299,1.486 0.892,3.121 1.961,4.865c-0.93,-1.543 -1.582,-3.186 -1.961,-4.865Z" style="fill:#7e4021;"/><path d="M758.547,850.096c0.128,-0.266 -8.798,2.81 -9.946,3.609c-18.442,12.832 -24.233,42.547 -29.432,62.478c-13.906,53.299 -25.839,106.388 -32.486,161.14c-20.553,169.285 -35.942,341.423 -34.16,512.005c1.259,120.586 -14.037,345.22 32.896,459.374c98.018,238.403 308.267,398.187 503.49,555.246c143.372,115.344 320.636,183.955 404.073,155.672c47.417,-16.072 29.457,-338.13 16.361,-474.565c-20.336,-211.857 -18.895,-438.839 -24.067,-651.523c-0.85,-34.97 -7.859,-199.942 -22.526,-224.373c-10.021,-16.693 -274.233,-105.69 -305.333,-119.307c-192.1,-84.109 -392.745,-257.25 -498.87,-439.756Z" style="fill:#bbc470;"/><path d="M772.965,841.986c-2.506,-4.424 -8.018,-10.485 -18.35,-8.123c-2.196,0.503 -13.869,5.002 -15.534,6.161c-9.705,6.753 -17.031,16.84 -22.426,28.456c-6.581,14.172 -10.275,30.699 -13.613,43.495c-14.095,54.026 -26.166,107.842 -32.904,163.34c-20.641,170.006 -36.071,342.879 -34.281,514.187c1.277,122.219 -13.422,349.838 34.148,465.538c99.098,241.03 311.082,403.104 508.457,561.894c87.835,70.665 188.182,124.053 272.766,149.297c59.281,17.693 111.279,21.318 147.105,9.174c6.91,-2.342 13.622,-7.626 19.074,-16.644c5.224,-8.643 9.714,-21.666 13.077,-38.259c19.478,-96.12 6.045,-326.654 -4.551,-437.039c-20.299,-211.471 -18.832,-438.04 -23.995,-650.336c-0.601,-24.707 -4.257,-113.706 -11.469,-173.34c-3.455,-28.573 -8.464,-50.936 -13.429,-59.207c-1.386,-2.308 -4.382,-5.774 -9.743,-9.209c-5.897,-3.778 -16.545,-8.99 -30.572,-15.031c-73.738,-31.754 -247.752,-90.865 -272.624,-101.755c-189.11,-82.8 -386.672,-253.201 -491.146,-432.867l0.01,0.268Zm-20.365,30.69c109.741,180.09 308.037,349.212 498.132,432.444c24.889,10.897 199.019,70.059 272.809,101.836c11.032,4.75 22.596,10.907 25.881,12.686c3.294,7.561 5.516,23.98 7.955,44.147c7.079,58.536 10.648,145.896 11.238,170.148c5.181,213.072 3.764,440.467 24.137,652.711c9.094,94.737 20.632,279.696 10.555,387.615c-2.427,25.997 -5.971,47.262 -11.447,61.05c-1.453,3.659 -4.347,7.923 -4.921,8.751c-30.896,10.184 -75.384,5.386 -126.178,-9.774c-81.093,-24.203 -177.194,-75.579 -261.405,-143.328c-193.071,-155.327 -401.584,-312.822 -498.522,-548.598c-46.298,-112.608 -30.403,-334.257 -31.646,-453.21c-1.774,-169.855 13.574,-341.258 34.04,-509.822c6.557,-54.007 18.352,-106.368 32.067,-158.942c2.466,-9.449 5.018,-21.233 9.193,-32.16c2.159,-5.652 4.642,-11.162 8.112,-15.554Zm-10.019,-17.811c0.478,1.632 1.182,3.217 2.191,4.69l-0.633,-1.081c-0.668,-1.15 -1.189,-2.361 -1.558,-3.609Zm-0.166,-0.595l0.055,0.198l-0.088,-0.343l0.033,0.145Zm-0.208,-0.927c-0.633,-3.032 -0.557,-6.566 1.318,-10.467c-1.585,3.298 -2.019,6.974 -1.318,10.467Z" style="fill:#7e4021;"/><path d="M1012.84,2272.9c40.463,-67.048 132.27,-106.067 220.412,-82.84c27.097,7.141 79.936,19.128 91.117,55.063c12.027,38.658 -28.657,69.113 -49.911,85.899c-63.246,49.949 -172.839,42.277 -261.618,-58.122Z" style="fill:#dae1a4;"/><path d="M998.571,2264.29c-3.764,6.237 -3.041,14.195 1.784,19.652c96.309,108.913 215.824,114.346 284.433,60.16c13.998,-11.055 35.399,-27.784 47.648,-48.346c9.812,-16.47 14.193,-35.19 7.848,-55.583c-5.695,-18.305 -19.386,-32.162 -36.565,-42.265c-21.63,-12.721 -48.839,-19.383 -66.219,-23.963c-95.618,-25.197 -195.033,17.609 -238.929,90.345Zm35.364,6.932c39.85,-54.925 119.03,-85.082 195.071,-65.044c12.807,3.375 31.727,7.802 48.737,15.725c13.61,6.339 26.485,14.583 30.713,28.173c4.254,13.674 -1.7,25.67 -9.712,35.96c-10.437,13.405 -24.82,24.171 -34.615,31.907c-55.861,44.117 -150.608,36.44 -230.194,-46.721l0,0Z" style="fill:#7e4021;"/><path d="M995.43,1796.93c-16.624,37.204 -16.174,87.864 35.475,117.381c30.022,17.158 53.093,19.985 69.948,13.925c15.866,-5.704 26.406,-19.409 31.869,-37.6c5.1,-16.986 5.753,-37.911 2.414,-59.395c34.944,43.006 90.171,80.376 123.345,39.733c17.498,-21.437 21.08,-43.598 15.96,-64.25c-4.819,-19.439 -17.464,-37.798 -34.576,-53.402c-15.978,-14.568 -35.88,-26.729 -56.468,-35.095c42.303,-12.301 80.022,-48.547 42.598,-104.962c-19.739,-29.756 -40.704,-45.606 -60.568,-51.683c-18.698,-5.72 -36.67,-2.804 -52.189,6.217c-14.49,8.424 -26.839,22.203 -35.6,38.771c-10.082,-50.237 -43.143,-108.907 -98.311,-101.418c-29.098,3.95 -45.001,16.796 -51.555,33.877c-6.169,16.077 -4.086,36.15 3.907,57.055c7.462,19.519 20.107,39.778 35.546,57.88c-48.228,-17.221 -105.376,-15.455 -100.373,45.361c2.638,32.077 14.258,55.477 30.27,71.592c15.073,15.168 34.268,24.049 54.485,27.313c14.506,2.342 29.545,1.778 43.823,-1.3Z" style="fill:#fff;"/><path d="M971.584,1816.33c-8.528,39.373 1.454,84.112 51.052,112.457c35.869,20.499 63.717,22.378 83.855,15.138c20.691,-7.438 35.07,-24.768 42.193,-48.491c2.063,-6.87 3.505,-14.312 4.332,-22.15c17.275,14.582 36.119,25.749 54.024,29.89c23.789,5.503 46.435,0.296 64.353,-21.656c21.438,-26.265 25.498,-53.497 19.225,-78.799c-5.551,-22.392 -19.812,-43.735 -39.524,-61.707c-8.905,-8.12 -18.924,-15.56 -29.591,-22.111c16.141,-10.73 28.733,-25.389 33.866,-43.253c5.633,-19.603 3.005,-43.718 -15.485,-71.591c-22.522,-33.95 -46.917,-51.474 -69.582,-58.407c-23.443,-7.173 -45.982,-3.566 -65.44,7.745c-7.394,4.299 -14.342,9.758 -20.679,16.154c-6.406,-16.676 -15.075,-32.701 -25.909,-45.903c-20.117,-24.514 -47.398,-39.591 -81.189,-35.004c-37.086,5.035 -56.52,22.652 -64.873,44.421c-7.453,19.423 -5.756,43.723 3.899,68.978c3.329,8.707 7.598,17.558 12.635,26.327c-8.355,-0.697 -16.442,-0.609 -23.96,0.4c-16.326,2.191 -30.218,8.627 -40.006,19.588c-10.242,11.469 -16.518,28.283 -14.539,52.341c3.027,36.792 16.692,63.488 35.059,81.972c17.62,17.733 40.017,28.204 63.65,32.019c7.466,1.206 15.056,1.741 22.634,1.642l0,0Zm39.063,-12.595c2.562,-5.734 1.684,-12.421 -2.272,-17.298c-3.956,-4.878 -10.317,-7.118 -16.456,-5.794c-12.269,2.644 -25.192,3.151 -37.656,1.138c-16.799,-2.712 -32.794,-10.002 -45.318,-22.607c-13.659,-13.746 -23.232,-33.848 -25.483,-61.21c-1.023,-12.442 0.883,-21.474 6.18,-27.405c6.195,-6.937 16.118,-9.08 27.069,-9.314c14.148,-0.302 30,3.096 44.91,8.42c7.11,2.539 15.038,-0.019 19.324,-6.233c4.287,-6.215 3.86,-14.535 -1.039,-20.279c-14.154,-16.595 -25.819,-35.122 -32.66,-53.015c-6.331,-16.56 -8.8,-32.398 -3.913,-45.134c4.759,-12.402 17.108,-20.463 38.236,-23.332c21.379,-2.902 38.209,7.61 50.937,23.12c14.749,17.972 24.264,42.503 28.791,65.062c1.387,6.911 6.971,12.202 13.946,13.215c6.976,1.012 13.834,-2.472 17.129,-8.703c7.234,-13.681 17.278,-25.197 29.242,-32.153c11.581,-6.732 24.985,-8.957 38.937,-4.688c17.066,5.221 34.597,19.395 51.555,44.958c11.454,17.265 14.716,31.817 11.226,43.959c-5.343,18.595 -24.762,30.021 -44.589,35.787c-6.814,1.981 -11.626,8.059 -11.991,15.146c-0.365,7.086 3.797,13.627 10.371,16.298c18.774,7.628 36.942,18.685 51.512,31.97c14.515,13.234 25.542,28.609 29.629,45.097c3.968,16.001 0.864,33.09 -12.694,49.7c-11.231,13.759 -26.378,13.265 -41.491,6.74c-20.128,-8.691 -40.253,-27.054 -56.007,-46.444c-4.748,-5.844 -12.824,-7.779 -19.705,-4.721c-6.88,3.058 -10.856,10.35 -9.7,17.79c2.925,18.822 2.56,37.162 -1.908,52.042c-3.803,12.665 -10.499,22.739 -21.544,26.71c-13.581,4.882 -31.851,1.113 -56.04,-12.711c-42.228,-24.133 -42.119,-65.694 -28.528,-96.111Z" style="fill:#7e4021;"/><path d="M1078.43,1934.71c1.68,-4.879 1.077,-10.468 -2.113,-15.009c-5.287,-7.527 -15.691,-9.346 -23.218,-4.059c-3.384,2.377 -7.517,7.32 -8.099,15.525c-0.482,6.805 2.52,21.037 2.818,24.402c1.959,22.062 0.809,43.886 0.259,65.318c-2.122,82.788 -15.704,160.508 -36.104,235.718c-2.408,8.878 2.845,18.04 11.723,20.448c8.878,2.408 18.04,-2.844 20.448,-11.722c21.08,-77.719 35.062,-158.04 37.256,-243.59c0.581,-22.679 1.694,-45.773 -0.379,-69.119c-0.196,-2.212 -2.003,-14.09 -2.591,-17.912Z" style="fill:#7e4021;"/><path d="M1028.2,1742.51c28.631,44.606 60.687,39.571 75.954,34.677c43.374,-13.907 32.654,-74.904 -6.516,-105.607c-54.652,-42.836 -110.433,7.06 -69.438,70.93Z" style="fill:#edaf5f;"/><path d="M1014.18,1751.51c17.361,27.048 36.23,38.477 52.604,42.97c17.389,4.773 32.632,1.727 42.464,-1.426c24.497,-7.853 36.835,-26.295 39.208,-48.433c3.037,-28.323 -12.227,-63.977 -40.531,-86.161c-35.736,-28.011 -71.97,-23.178 -92.441,-3.426c-20.006,19.304 -27.503,55.659 -1.304,96.476Zm28.052,-18.005c-14.826,-23.1 -14.924,-43.559 -3.602,-54.484c10.857,-10.476 29.779,-9.182 48.732,5.674c15.851,12.424 26.172,30.845 27.916,47.699c1.319,12.755 -2.925,24.66 -16.207,28.919c-5.435,1.742 -13.853,3.661 -23.466,1.023c-10.631,-2.918 -22.1,-11.27 -33.373,-28.831Z" style="fill:#7e4021;"/><path d="M810.266,2218.07c-1.321,2.052 -2.21,4.427 -2.521,7.012c-1.937,16.079 11.567,19.332 13.218,19.667c3.202,0.65 12.349,1.824 18.046,-8.41c1.062,-1.907 5.323,-16.42 7.393,-21.891c5.062,-13.382 9.376,-26.987 12.904,-40.854c9.774,-38.426 19.149,-78.404 20.759,-118.143c2.305,-56.933 -16.889,-111.793 -41.205,-165.435c-22.94,-50.607 -50.421,-100.12 -66.051,-149.613c-29.978,-94.93 -37.744,-208 11.441,-298.421c9.721,-17.872 23.873,-37.24 41.212,-51.917c15.737,-13.32 34.116,-22.92 54.313,-22.263c13.752,0.447 23.719,5.725 29.511,13.922c14.013,19.832 4.934,53.049 -24.435,62.227c-6.325,1.977 -12.403,-0.022 -16.493,-3.762c-3.006,-2.748 -5.248,-6.448 -4.562,-10.28c0.452,-2.529 2.304,-4.761 5.15,-6.83c7.439,-5.411 9.086,-15.843 3.676,-23.282c-5.411,-7.439 -15.843,-9.086 -23.282,-3.676c-45.278,32.929 -3.357,94.9 45.453,79.646c53.033,-16.572 67.019,-77.468 41.716,-113.278c-11.059,-15.65 -29.395,-27.149 -55.651,-28.003c-54.735,-1.78 -101.978,47.609 -125.89,91.568c-53.475,98.308 -46.537,221.178 -13.945,324.387c16.01,50.699 43.978,101.497 67.477,153.337c22.123,48.805 40.356,98.525 38.259,150.325c-1.517,37.44 -10.549,75.07 -19.758,111.274c-3.219,12.653 -7.157,25.066 -11.776,37.277c-1.139,3.01 -3.576,10.879 -4.959,15.416Zm30.659,10.03l-0.003,0.073l0.003,-0.073Z" style="fill:#7e4021;"/><path d="M1368.48,2052.64l4.749,3.016c0.728,2.334 0.973,4.291 0.201,5.944c-1.911,4.093 -7.031,5.673 -12.333,7.155c-13.606,3.804 -30.882,3.102 -39.827,-0.74c-20.675,-8.88 -29.187,-28.119 -29.287,-48.053c-0.11,-21.65 9.209,-44.433 25.219,-58.282c37.255,-32.226 86.169,-27.684 125.729,-4.937c40.524,23.301 72.14,65.809 72.14,111.257c-0,40.009 -14.799,71.841 -34.432,101.384c-21.383,32.175 -48.345,61.748 -70.648,94.926c-38.02,56.559 -47.755,170.176 -42.521,234.163c0.75,9.168 8.802,16.003 17.97,15.253c9.168,-0.75 16.002,-8.802 15.252,-17.97c-4.751,-58.084 2.451,-161.509 36.963,-212.85c22.336,-33.227 49.331,-62.849 70.746,-95.073c23.165,-34.857 40.003,-72.626 40.003,-119.833c0,-56.878 -38.141,-110.993 -88.857,-140.154c-51.681,-29.717 -115.482,-33.476 -164.152,8.624c-23.036,19.926 -36.903,52.508 -36.745,83.661c0.166,32.871 15.373,63.87 49.466,78.512c16.9,7.259 52.667,8.434 74.704,-2.64c9.553,-4.8 16.797,-11.698 20.813,-20.3c4.089,-8.755 5.216,-19.589 0.473,-32.8c-1.622,-4.52 -6.237,-10.768 -12.974,-15.911c-8.595,-6.561 -20.32,-11.192 -27.897,-11.066c-7.14,0.119 -12.67,2.976 -16.506,7.505c-3.187,3.762 -5.827,9.308 -4.976,17.678c0.932,9.151 9.118,15.824 18.269,14.893c3.195,-0.325 6.088,-1.534 8.458,-3.362Z" style="fill:#7e4021;"/><path d="M1053.58,2342.65c20.962,-12.386 -47.968,-120.356 -52.804,-128.927c-28.048,-49.704 -76.991,-84.519 -125.534,-112.417c-83.291,-47.869 -207.734,-100.607 -306.796,-84.303c-20.445,3.365 -34.873,16.971 -53.657,23.86c-28.76,10.548 -63.345,10.896 -83.525,37.854c-20.908,27.929 2.335,57.806 -9.901,88.324c-10.615,26.474 -31.717,50.899 -32.411,80.539c-1.073,45.805 53.039,61.415 81.366,86.746c15.336,13.715 19.038,32.011 38.476,43.425c36.444,21.399 80.368,15.81 119.066,3.538c12.352,-3.916 25.63,-14.434 38.672,-14.782c31.679,-0.845 60.994,19.998 95.632,17.613c45.015,-3.099 86.087,-29.261 130.299,-37.679c30.007,-5.713 60.388,-3.942 90.54,-0.186c17.664,2.2 54.049,6.16 70.577,-3.605Z" style="fill:#fff;"/><path d="M1062.06,2357c8.742,-5.165 14.551,-17.202 10.867,-35.059c-7.359,-35.663 -53.606,-109.27 -57.634,-116.408c-29.513,-52.3 -80.666,-89.321 -131.745,-118.677c-86.209,-49.546 -215.274,-103.173 -317.807,-86.297c-12.18,2.004 -22.639,6.872 -32.779,12.452c-7.781,4.281 -15.324,9.057 -23.91,12.206c-14.182,5.201 -29.81,7.853 -44.37,12.563c-18.002,5.822 -34.455,14.514 -46.759,30.95c-13.368,17.858 -13.554,36.153 -11.421,55.048c1.368,12.126 4.414,24.539 -0.607,37.061c-5.126,12.785 -12.844,25.044 -19.304,37.715c-7.832,15.363 -13.893,31.284 -14.299,48.637c-0.674,28.786 14.988,48.657 36.273,64.739c16.565,12.515 36.79,22.432 50.645,34.821c6.596,5.899 10.514,12.919 15.049,19.555c6.576,9.623 13.976,18.7 26.098,25.818c40.58,23.828 89.453,18.718 132.543,5.053c6.892,-2.185 14.091,-6.103 21.337,-9.632c4.266,-2.077 8.458,-4.262 12.742,-4.376c14.049,-0.375 27.506,4.389 41.359,8.652c17.532,5.396 35.531,10.266 54.973,8.927c24.098,-1.659 47.188,-9.309 70.124,-17.854c20.54,-7.651 40.951,-16.044 62.148,-20.079c28.291,-5.387 56.934,-3.561 85.362,-0.02c11.292,1.406 29.767,3.432 46.542,2.624c13.541,-0.651 26.045,-3.38 34.573,-8.419Zm-21.792,-26.714c-4.153,1.176 -9.172,1.588 -14.383,1.839c-14.715,0.708 -30.915,-1.174 -40.82,-2.408c-31.877,-3.971 -63.994,-5.687 -95.717,0.353c-23.016,4.382 -45.247,13.28 -67.55,21.588c-19.907,7.416 -39.86,14.396 -60.777,15.836c-15.197,1.046 -29.173,-3.313 -42.878,-7.531c-17.385,-5.351 -34.423,-10.586 -52.053,-10.116c-7.299,0.195 -14.717,2.412 -22.017,5.658c-7.254,3.225 -14.38,7.72 -21.249,9.898c-34.309,10.88 -73.279,16.949 -105.589,-2.023c-9.188,-5.395 -13.576,-13.054 -18.495,-20.402c-4.916,-7.342 -10.068,-14.597 -17.31,-21.074c-14.473,-12.942 -35.467,-23.496 -52.771,-36.57c-12.591,-9.513 -23.442,-20.335 -23.043,-37.363c0.288,-12.288 5.125,-23.398 10.671,-34.277c6.918,-13.569 15.058,-26.76 20.547,-40.45c5.993,-14.947 5.508,-29.731 3.839,-44.326c-1.57,-13.737 -5.705,-27.336 3.935,-40.212c7.878,-10.524 18.805,-15.483 30.332,-19.211c14.967,-4.841 31.011,-7.637 45.59,-12.984c10.198,-3.74 19.26,-9.211 28.502,-14.297c6.881,-3.786 13.857,-7.404 22.122,-8.764c95.592,-15.734 215.412,36.115 295.785,82.307c46.007,26.441 92.741,59.05 119.324,106.158c3.302,5.852 37.37,59.143 50.422,94.777c1.664,4.545 2.9,10.116 3.583,13.594Z" style="fill:#7e4021;"/><path d="M494.522,2383.15c0.735,1.334 1.731,2.553 2.977,3.579c5.323,4.389 13.208,3.629 17.596,-1.694c4.436,-5.382 4.158,-10.51 1.157,-15.496c-0.826,-1.372 -4.17,-4.129 -5.834,-5.454c-2.072,-2.703 -4.073,-5.475 -5.98,-8.294c-6.823,-10.086 -12.128,-20.899 -16.188,-32.386c-10.634,-30.09 -2.574,-60.076 15.933,-85.217c4.09,-5.556 2.9,-13.387 -2.656,-17.477c-5.556,-4.09 -13.387,-2.9 -17.477,2.656c-23.501,31.925 -32.875,70.159 -19.371,108.368c4.773,13.504 11.031,26.206 19.052,38.064c2.406,3.557 4.945,7.051 7.572,10.448c0.601,0.776 1.949,1.913 3.219,2.903Zm0.882,-13.505c-0.486,0.65 -0.878,1.302 -1.186,1.954c0.328,-0.677 0.724,-1.331 1.186,-1.954Z" style="fill:#7e4021;"/><path d="M725.107,2336.85c14.794,0.71 29.099,9.636 42.103,15.607c13.802,6.338 27.845,10.737 42.626,14.103c8.476,1.929 17.903,4.093 26.668,3.321c0.236,-0.02 4.912,-0.9 6.327,-1.167c2.37,-0.091 4.738,-0.858 6.804,-2.347c5.596,-4.035 6.864,-11.854 2.83,-17.45c-0.965,-1.338 -4.064,-5.464 -10.837,-5.211c-1.129,0.042 -6.085,0.974 -7.798,1.302c-6.099,0.419 -12.565,-1.486 -18.444,-2.825c-13.083,-2.979 -25.527,-6.835 -37.744,-12.445c-17.486,-8.029 -37.367,-18.817 -57.36,-17.871c-11.073,0.523 -18.651,6.215 -22.013,12.956c-3.603,7.226 -3.538,16.967 5.06,26.308c7.649,8.31 18.894,11.85 29.589,13.804c6.786,1.241 13.303,-3.262 14.543,-10.049c1.241,-6.786 -3.262,-13.303 -10.049,-14.543c-4.123,-0.754 -8.639,-1.416 -12.305,-3.493Z" style="fill:#7e4021;"/><path d="M967.792,2332.72l-8.129,-2.672c-14.62,-4.587 -29.52,-8.386 -44.203,-12.794c-31.652,-9.501 -63.12,-20.678 -93.358,-34.044c-25.869,-11.434 -51.506,-25.97 -79.639,-31.064c-27.771,-5.028 -57.35,-0.87 -80.287,16.331c-35.114,26.332 -40.047,74.067 -2.678,100.842c5.608,4.019 13.423,2.728 17.441,-2.88c4.018,-5.608 2.728,-13.423 -2.88,-17.441c-22.449,-16.085 -17.978,-44.702 3.116,-60.521c17.345,-13.007 39.834,-15.533 60.834,-11.731c26.192,4.742 49.901,18.684 73.986,29.33c31.185,13.785 63.633,25.323 96.278,35.123c14.583,4.378 29.384,8.146 43.905,12.702c0.77,0.242 6.876,2.535 10.587,3.389c2.298,0.528 4.249,0.648 5.512,0.578c4.9,-0.269 7.81,-2.675 9.48,-4.698c4.394,-5.319 3.643,-13.204 -1.677,-17.597c-2.421,-2 -5.374,-2.934 -8.288,-2.853Z" style="fill:#7e4021;"/><path d="M593.588,2372.88c-6.522,-4.191 -21.65,-15.841 -27.416,-21.027c-15.123,-13.604 -27.989,-31.276 -32.49,-51.371c-5.325,-23.775 3.966,-43.055 19.08,-58.126c16.761,-16.715 40.423,-28.506 61.794,-35.738c20.123,-6.81 41.229,-11.377 62.452,-12.818c48.443,-3.288 87.769,13.192 124.791,35.634c39.302,23.825 76.089,54.245 117.401,77.223c33.998,18.91 93.222,33.798 131.356,40.822c6.785,1.25 13.308,-3.244 14.558,-10.029c1.25,-6.784 -3.244,-13.307 -10.029,-14.557c-35.891,-6.611 -91.735,-20.286 -123.733,-38.084c-41.038,-22.825 -77.552,-53.087 -116.593,-76.753c-41.321,-25.049 -85.377,-42.869 -139.444,-39.199c-23.369,1.587 -46.615,6.581 -68.773,14.08c-24.765,8.381 -52.009,22.346 -71.433,41.716c-21.072,21.013 -33.246,48.145 -25.823,81.293c5.626,25.119 21.263,47.488 40.167,64.493c6.438,5.792 23.338,18.793 30.622,23.473c5.804,3.73 13.544,2.045 17.273,-3.759c3.729,-5.804 2.044,-13.544 -3.76,-17.273Z" style="fill:#7e4021;"/><path d="M436.697,2156.07c1.773,-1.827 7.758,-7.986 8.04,-8.231c12.727,-11.038 26.936,-20.407 41.647,-28.565c40.695,-22.566 85.23,-32.399 131.317,-35.908c59.394,-4.522 122.628,-1.379 178.459,21c61.849,24.792 116.35,68.146 178.072,92.556c6.416,2.537 13.684,-0.612 16.221,-7.027c2.537,-6.416 -0.611,-13.684 -7.027,-16.221c-61.687,-24.396 -116.151,-67.735 -177.964,-92.513c-59.35,-23.79 -126.522,-27.53 -189.659,-22.723c-49.7,3.784 -97.657,14.637 -141.543,38.973c-16.224,8.996 -31.867,19.369 -45.903,31.542c-0.553,0.48 -11.806,11.772 -13.286,14.313c-2.278,3.91 -1.926,7.183 -1.62,8.868c0.84,4.614 3.45,7.704 7.649,9.407c5.9,2.392 12.569,-0.052 15.597,-5.471Z" style="fill:#7e4021;"/><path d="M1023.9,2258.68c-1.286,-0.062 -2.611,-0.115 -3.276,-0.113c-4.516,0.014 -9.057,-0.752 -13.427,-1.85c-14.696,-3.694 -28.58,-10.653 -42.056,-17.42c-44.443,-22.315 -82.926,-53.224 -125.083,-79.247c-102.562,-63.309 -218.63,-79.83 -331.725,-33.223c-58.169,23.972 -119.741,74.308 -127.161,140.89c-1.019,9.142 5.576,17.391 14.718,18.41c9.142,1.019 17.391,-5.576 18.41,-14.718c6.099,-54.726 58.923,-94.06 106.734,-113.763c102.815,-42.371 208.276,-26.786 301.516,30.769c42.987,26.535 82.315,57.916 127.633,80.671c15.633,7.85 31.84,15.674 48.889,19.959c7.04,1.769 14.375,2.877 21.65,2.856c2.849,-0.009 9.371,0.274 11.617,-0.206c2.603,-0.557 4.554,-1.535 5.942,-2.428c6.078,-3.911 8.014,-9.326 7.772,-14.952c-0.132,-3.068 -0.758,-8.414 -7.08,-13.132c-4.487,-3.35 -10.115,-4.098 -15.073,-2.503Zm-9.034,24.68c0.767,1.306 1.861,2.659 3.441,3.959c-1.383,-1.156 -2.535,-2.496 -3.441,-3.959Z" style="fill:#7e4021;"/><path d="M1307.3,2618.38c22.741,-8.699 -27.129,-126.69 -30.462,-135.95c-19.325,-53.699 -61.746,-96.221 -104.93,-131.856c-74.096,-61.144 -187.947,-133.982 -288.341,-134.501c-20.719,-0.107 -37.222,10.889 -56.895,14.535c-30.121,5.582 -64.275,0.132 -88.686,23.328c-25.291,24.032 -7.38,57.381 -24.555,85.418c-14.9,24.322 -39.795,44.868 -45.444,73.972c-8.73,44.979 42.002,69.432 65.686,99.15c12.822,16.09 13.407,34.748 30.659,49.256c32.344,27.201 76.584,29.049 116.791,23.433c12.834,-1.793 27.686,-9.938 40.602,-8.096c31.373,4.473 56.783,29.932 91.33,33.383c44.898,4.485 89.772,-14.428 134.77,-15.321c30.54,-0.607 60.195,6.228 89.292,14.982c17.045,5.128 52.254,15.126 70.183,8.267Z" style="fill:#fff;"/><path d="M1313.25,2633.95c9.484,-3.628 17.227,-14.522 16.586,-32.743c-1.281,-36.392 -34.545,-116.705 -37.321,-124.418c-20.335,-56.504 -64.564,-101.57 -110.004,-139.067c-76.692,-63.287 -194.951,-137.775 -298.862,-138.312c-12.344,-0.064 -23.471,2.982 -34.402,6.785c-8.388,2.917 -16.625,6.362 -25.617,8.028c-14.853,2.753 -30.704,2.75 -45.847,4.954c-18.723,2.725 -36.4,8.538 -51.283,22.68c-16.171,15.367 -19.418,33.373 -20.481,52.358c-0.681,12.184 0.242,24.931 -6.806,36.436c-7.194,11.745 -16.857,22.538 -25.349,33.949c-10.294,13.833 -18.936,28.514 -22.243,45.554c-5.487,28.267 6.626,50.48 24.916,69.9c14.235,15.113 32.514,28.277 44.097,42.812c5.515,6.92 8.202,14.498 11.561,21.8c4.871,10.588 10.646,20.777 21.405,29.825c36.015,30.288 85.053,33.436 129.824,27.183c7.16,-1 14.914,-3.657 22.649,-5.922c4.553,-1.334 9.052,-2.785 13.295,-2.18c13.913,1.983 26.382,8.934 39.325,15.457c16.381,8.257 33.31,16.073 52.701,18.01c24.036,2.401 48.081,-1.274 72.124,-5.856c21.531,-4.103 43.06,-8.958 64.633,-9.386c28.794,-0.572 56.726,6.026 84.16,14.279c10.896,3.278 28.771,8.369 45.445,10.383c13.458,1.626 26.243,1.03 35.494,-2.509Zm-17.009,-29.987c-4.291,0.464 -9.309,0.029 -14.488,-0.596c-14.625,-1.767 -30.282,-6.336 -39.84,-9.211c-30.761,-9.255 -62.137,-16.327 -94.424,-15.686c-23.424,0.465 -46.832,5.514 -70.211,9.969c-20.868,3.977 -41.709,7.516 -62.571,5.432c-15.158,-1.515 -28.206,-8.153 -41.011,-14.608c-16.243,-8.187 -32.163,-16.202 -49.623,-18.691c-7.229,-1.031 -14.913,-0.088 -22.654,1.89c-7.692,1.965 -15.469,5.202 -22.606,6.199c-35.647,4.979 -75.083,4.434 -103.759,-19.682c-8.155,-6.857 -11.197,-15.142 -14.817,-23.211c-3.616,-8.061 -7.479,-16.077 -13.535,-23.676c-12.1,-15.184 -31.03,-29.105 -45.9,-44.892c-10.819,-11.488 -19.704,-23.974 -16.459,-40.695c2.343,-12.066 8.972,-22.209 16.263,-32.005c9.093,-12.219 19.327,-23.86 27.032,-36.437c8.412,-13.733 10.409,-28.389 11.209,-43.057c0.753,-13.806 -1.045,-27.905 10.615,-38.985c9.529,-9.055 21.133,-12.114 33.121,-13.858c15.567,-2.266 31.853,-2.335 47.121,-5.164c10.68,-1.98 20.531,-5.856 30.494,-9.321c7.418,-2.581 14.902,-4.979 23.278,-4.936c96.877,0.502 206.318,71.687 277.819,130.69c40.928,33.774 81.54,73.75 99.856,124.645c2.275,6.323 26.936,64.568 33.834,101.884c0.88,4.76 1.165,10.459 1.256,14.002Z" style="fill:#7e4021;"/><path d="M749.356,2564.66c0.501,1.439 1.279,2.807 2.335,4.028c4.513,5.218 12.414,5.79 17.632,1.277c5.275,-4.563 5.859,-9.665 3.736,-15.083c-0.585,-1.491 -3.42,-4.77 -4.838,-6.355c-1.59,-3.012 -3.099,-6.08 -4.506,-9.178c-5.038,-11.087 -8.456,-22.636 -10.535,-34.641c-5.443,-31.445 7.525,-59.658 29.982,-81.344c4.963,-4.792 5.101,-12.712 0.309,-17.675c-4.792,-4.962 -12.712,-5.101 -17.675,-0.308c-28.517,27.537 -44.162,63.661 -37.249,103.592c2.443,14.113 6.485,27.683 12.407,40.717c1.776,3.91 3.694,7.78 5.715,11.569c0.462,0.865 1.601,2.212 2.687,3.401Zm3.131,-13.166c-0.587,0.56 -1.083,1.137 -1.496,1.728c0.437,-0.612 0.936,-1.191 1.496,-1.728Z" style="fill:#7e4021;"/><path d="M984.438,2557.64c14.466,3.177 27.074,14.373 38.894,22.438c12.545,8.56 25.653,15.25 39.661,21.043c8.034,3.323 16.964,7.035 25.735,7.742c0.236,0.019 4.994,-0.065 6.434,-0.091c2.351,0.307 4.814,-0.052 7.1,-1.174c6.193,-3.04 8.753,-10.536 5.713,-16.729c-0.727,-1.481 -3.091,-6.068 -9.81,-6.953c-1.121,-0.148 -6.163,-0.059 -7.906,-0.022c-6.084,-0.609 -12.139,-3.57 -17.711,-5.875c-12.399,-5.128 -24.021,-11.015 -35.126,-18.592c-15.894,-10.844 -33.688,-24.81 -53.556,-27.226c-11.004,-1.339 -19.428,3.003 -23.872,9.086c-4.763,6.52 -6.33,16.135 0.581,26.783c6.149,9.475 16.642,14.848 26.859,18.566c6.483,2.36 13.662,-0.988 16.021,-7.471c2.36,-6.483 -0.988,-13.662 -7.471,-16.021c-3.938,-1.434 -8.28,-2.843 -11.546,-5.504Z" style="fill:#7e4021;"/><path d="M1224.39,2594.21l-7.567,-3.996c-13.646,-6.971 -27.699,-13.212 -41.436,-20.017c-29.613,-14.669 -58.765,-30.958 -86.336,-49.2c-23.588,-15.607 -46.429,-34.232 -73.311,-43.966c-26.536,-9.608 -56.394,-10.464 -81.888,2.652c-39.028,20.079 -51.888,66.313 -19.532,98.969c4.856,4.901 12.777,4.938 17.678,0.082c4.9,-4.856 4.937,-12.777 0.081,-17.678c-19.437,-19.617 -10.235,-47.081 13.21,-59.143c19.278,-9.918 41.873,-8.641 61.939,-1.375c25.029,9.062 46.067,26.778 68.028,41.308c28.435,18.814 58.493,35.625 89.034,50.753c13.645,6.759 27.605,12.953 41.158,19.878c0.719,0.367 6.354,3.65 9.87,5.114c2.176,0.906 4.08,1.35 5.337,1.493c4.875,0.556 8.147,-1.328 10.133,-3.043c5.223,-4.508 5.803,-12.408 1.295,-17.63c-2.052,-2.377 -4.807,-3.793 -7.693,-4.201Z" style="fill:#7e4021;"/><path d="M848.743,2571.13c-5.729,-5.224 -18.692,-19.243 -23.507,-25.322c-12.631,-15.945 -22.356,-35.522 -23.426,-56.087c-1.268,-24.332 11.121,-41.783 28.546,-54.11c19.325,-13.671 44.627,-21.332 66.907,-24.882c20.98,-3.343 42.553,-4.31 63.717,-2.175c48.309,4.872 84.32,27.707 117.059,56.034c34.756,30.071 65.928,66.223 102.807,95.796c30.351,24.338 86.244,48.936 122.663,62.248c6.48,2.369 13.663,-0.969 16.032,-7.449c2.368,-6.479 -0.969,-13.663 -7.449,-16.031c-34.276,-12.53 -87.041,-35.366 -115.606,-58.272c-36.634,-29.376 -67.564,-65.327 -102.089,-95.198c-36.541,-31.616 -76.99,-56.564 -130.908,-62.002c-23.304,-2.351 -47.059,-1.32 -70.16,2.361c-25.818,4.114 -55.017,13.319 -77.411,29.161c-24.294,17.187 -40.841,41.896 -39.075,75.819c1.339,25.707 13.008,50.379 28.796,70.31c5.378,6.789 19.861,22.437 26.258,28.271c5.097,4.649 13.01,4.284 17.659,-0.813c4.648,-5.098 4.284,-13.01 -0.813,-17.659Z" style="fill:#7e4021;"/><path d="M730.384,2331.1c2.055,-1.504 8.987,-6.574 9.306,-6.768c14.395,-8.75 29.973,-15.607 45.842,-21.185c43.901,-15.431 89.454,-17.666 135.477,-13.405c59.312,5.49 121.126,19.181 172.42,50.596c56.823,34.801 103.292,86.672 160.053,121.075c5.9,3.576 13.593,1.69 17.169,-4.21c3.576,-5.9 1.689,-13.593 -4.21,-17.169c-56.73,-34.384 -103.165,-86.234 -159.955,-121.015c-54.526,-33.396 -120.122,-48.334 -183.172,-54.171c-49.632,-4.594 -98.73,-1.927 -146.072,14.713c-17.502,6.152 -34.661,13.758 -50.537,23.408c-0.626,0.38 -13.611,9.628 -15.496,11.885c-2.901,3.473 -3.102,6.759 -3.082,8.472c0.054,4.689 2.11,8.173 5.964,10.555c5.417,3.347 12.4,2.054 16.293,-2.781Zm-2.593,-18.12c3.649,2.529 5.563,6.707 5.354,10.899c0.476,-4.964 -1.708,-8.459 -5.354,-10.899Z" style="fill:#7e4021;"/><path d="M1292.11,2530.62c-1.257,-0.277 -2.555,-0.55 -3.211,-0.66c-4.453,-0.743 -8.803,-2.258 -12.926,-4.073c-13.871,-6.103 -26.393,-15.29 -38.545,-24.218c-40.077,-29.445 -72.839,-66.363 -110.041,-99.079c-90.508,-79.594 -202.169,-115.324 -321.473,-88.319c-61.363,13.889 -130.497,53.201 -148.965,117.599c-2.535,8.842 2.585,18.08 11.427,20.615c8.842,2.536 18.079,-2.584 20.615,-11.426c15.179,-52.931 73.846,-82.861 124.281,-94.277c108.46,-24.551 209.821,8.48 292.102,80.839c37.935,33.361 71.452,70.886 112.318,100.911c14.097,10.357 28.765,20.785 44.855,27.865c6.644,2.924 13.69,5.245 20.866,6.442c2.81,0.469 9.193,1.84 11.487,1.743c2.66,-0.112 4.747,-0.75 6.265,-1.398c6.647,-2.838 9.462,-7.852 10.166,-13.439c0.384,-3.047 0.662,-8.422 -4.779,-14.133c-3.863,-4.053 -9.287,-5.733 -14.442,-4.992Zm-13.04,22.819c0.537,1.416 1.389,2.932 2.73,4.478c-1.171,-1.371 -2.082,-2.884 -2.73,-4.478Z" style="fill:#7e4021;"/><path d="M1597.9,2757.81c21.707,-11.027 -40.217,-123.162 -44.499,-132.023c-24.83,-51.387 -71.461,-89.244 -118.132,-120.173c-80.078,-53.068 -200.916,-113.612 -300.814,-103.64c-20.617,2.058 -35.881,14.718 -55.066,20.399c-29.372,8.698 -63.909,6.846 -85.763,32.466c-22.641,26.543 -1.345,57.838 -15.497,87.516c-12.277,25.746 -34.889,48.779 -37.467,78.315c-3.983,45.644 49.026,64.663 75.685,91.745c14.433,14.662 16.964,33.156 35.637,45.783c35.009,23.673 79.201,20.889 118.601,11.103c12.576,-3.124 26.495,-12.776 39.533,-12.294c31.669,1.171 59.599,23.836 94.319,23.659c45.12,-0.23 87.773,-23.728 132.431,-29.317c30.31,-3.794 60.516,-0.094 90.369,5.571c17.488,3.32 53.548,9.585 70.663,0.89Z" style="fill:#fff;"/><path d="M1605.44,2772.67c9.053,-4.599 15.616,-16.242 13.074,-34.297c-5.075,-36.059 -46.549,-112.457 -50.115,-119.838c-26.127,-54.07 -74.822,-94.269 -123.931,-126.814c-82.884,-54.927 -208.278,-116.653 -311.676,-106.332c-12.283,1.226 -23.031,5.419 -33.505,10.343c-8.037,3.777 -15.869,8.064 -24.638,10.66c-14.484,4.29 -30.249,5.943 -45.079,9.717c-18.336,4.666 -35.308,12.294 -48.632,27.914c-14.477,16.971 -15.826,35.218 -14.899,54.211c0.595,12.188 2.845,24.769 -2.962,36.947c-5.928,12.433 -14.411,24.176 -21.664,36.411c-8.793,14.834 -15.853,30.337 -17.362,47.629c-2.504,28.685 11.863,49.512 32.083,66.915c15.735,13.543 35.289,24.726 48.328,37.971c6.207,6.306 9.671,13.561 13.775,20.472c5.951,10.021 12.759,19.551 24.403,27.426c38.983,26.36 88.082,24.368 131.954,13.471c7.017,-1.743 14.45,-5.195 21.906,-8.256c4.389,-1.802 8.712,-3.716 12.995,-3.557c14.044,0.519 27.171,6.129 40.725,11.265c17.154,6.5 34.807,12.504 54.294,12.405c24.155,-0.124 47.684,-6.291 71.117,-13.359c20.985,-6.331 41.888,-13.408 63.299,-16.087c28.576,-3.577 57.045,0.066 85.191,5.408c11.179,2.122 29.489,5.318 46.281,5.579c13.555,0.211 26.207,-1.718 35.038,-6.204Zm-20.049,-28.046c-4.219,0.91 -9.255,1.002 -14.471,0.921c-14.73,-0.23 -30.777,-3.138 -40.584,-4.999c-31.56,-5.99 -63.503,-9.745 -95.546,-5.735c-23.248,2.91 -46,10.376 -68.786,17.25c-20.338,6.135 -40.695,11.832 -61.66,11.939c-15.233,0.077 -28.904,-5.162 -42.313,-10.243c-17.009,-6.445 -33.68,-12.753 -51.305,-13.405c-7.296,-0.27 -14.84,1.471 -22.332,4.246c-7.444,2.758 -14.841,6.791 -21.835,8.528c-34.931,8.675 -74.208,12.254 -105.247,-8.734c-8.826,-5.969 -12.718,-13.891 -17.16,-21.537c-4.439,-7.639 -9.119,-15.208 -15.935,-22.132c-13.621,-13.837 -33.901,-25.704 -50.339,-39.852c-11.96,-10.294 -22.101,-21.784 -20.62,-38.752c1.068,-12.245 6.602,-23.025 12.829,-33.529c7.767,-13.102 16.729,-25.748 23.078,-39.061c6.931,-14.537 7.387,-29.322 6.649,-43.993c-0.693,-13.809 -3.955,-27.643 6.484,-39.881c8.532,-10.001 19.752,-14.255 31.493,-17.243c15.244,-3.879 31.434,-5.649 46.323,-10.058c10.415,-3.084 19.807,-7.969 29.353,-12.456c7.108,-3.341 14.3,-6.508 22.635,-7.34c96.4,-9.623 212.679,49.74 289.952,100.949c44.234,29.314 88.799,64.829 112.332,113.531c2.924,6.05 33.534,61.4 44.293,97.792c1.373,4.642 2.252,10.28 2.712,13.794Z" style="fill:#7e4021;"/><path d="M1037.39,2762.68c0.649,1.379 1.565,2.658 2.743,3.762c5.034,4.718 12.951,4.462 17.669,-0.572c4.769,-5.089 4.817,-10.224 2.14,-15.391c-0.737,-1.422 -3.899,-4.386 -5.475,-5.814c-1.896,-2.829 -3.717,-5.723 -5.441,-8.657c-6.168,-10.5 -10.775,-21.629 -14.096,-33.351c-8.699,-30.705 1.251,-60.117 21.32,-84.031c4.435,-5.284 3.745,-13.175 -1.54,-17.61c-5.284,-4.435 -13.175,-3.745 -17.61,1.539c-25.484,30.366 -37.27,67.927 -26.223,106.917c3.904,13.781 9.342,26.854 16.593,39.198c2.175,3.703 4.486,7.351 6.893,10.909c0.549,0.812 1.823,2.032 3.027,3.101Zm1.739,-13.421c-0.526,0.618 -0.958,1.244 -1.307,1.875c0.37,-0.655 0.806,-1.282 1.307,-1.875Z" style="fill:#7e4021;"/><path d="M1270.46,2731.14c14.719,1.648 28.428,11.466 41.026,18.252c13.37,7.202 27.106,12.486 41.643,16.784c8.336,2.465 17.606,5.224 26.402,5.011c0.237,-0.005 4.96,-0.586 6.389,-0.763c2.371,0.06 4.783,-0.555 6.939,-1.909c5.842,-3.671 7.605,-11.393 3.934,-17.235c-0.877,-1.397 -3.708,-5.711 -10.483,-5.89c-1.13,-0.029 -6.135,0.586 -7.865,0.805c-6.114,0.029 -12.445,-2.283 -18.227,-3.992c-12.868,-3.805 -25.041,-8.446 -36.876,-14.821c-16.94,-9.125 -36.096,-21.155 -56.108,-21.482c-11.084,-0.182 -19.008,5.016 -22.792,11.53c-4.056,6.983 -4.61,16.708 3.376,26.576c7.105,8.78 18.102,13.028 28.652,15.658c6.694,1.67 13.483,-2.41 15.153,-9.104c1.669,-6.693 -2.41,-13.483 -9.104,-15.153c-4.067,-1.014 -8.532,-1.962 -12.059,-4.267Z" style="fill:#7e4021;"/><path d="M1512.91,2742.44l-7.943,-3.184c-14.299,-5.508 -28.927,-10.246 -43.3,-15.578c-30.984,-11.496 -61.678,-24.65 -91.004,-39.912c-25.09,-13.057 -49.751,-29.194 -77.503,-36.066c-27.395,-6.784 -57.179,-4.515 -81.163,11.193c-36.717,24.046 -44.676,71.371 -9.085,100.468c5.341,4.367 13.222,3.575 17.589,-1.766c4.367,-5.341 3.576,-13.222 -1.766,-17.589c-21.38,-17.479 -15.098,-45.754 6.959,-60.199c18.136,-11.878 40.741,-12.97 61.457,-7.84c25.838,6.399 48.612,21.82 71.971,33.976c30.245,15.739 61.894,29.318 93.849,41.173c14.276,5.297 28.807,9.999 43.009,15.469c0.753,0.29 6.701,2.967 10.35,4.055c2.26,0.674 4.199,0.917 5.464,0.928c4.907,0.043 7.964,-2.173 9.76,-4.086c4.723,-5.028 4.475,-12.946 -0.554,-17.668c-2.289,-2.15 -5.177,-3.27 -8.09,-3.374Z" style="fill:#7e4021;"/><path d="M1136.91,2758.73c-6.243,-4.598 -20.599,-17.185 -26.024,-22.728c-14.227,-14.538 -25.944,-32.992 -29.157,-53.333c-3.802,-24.066 6.695,-42.715 22.737,-56.795c17.791,-15.616 42.154,-25.878 63.941,-31.736c20.516,-5.517 41.87,-8.733 63.141,-8.821c48.554,-0.201 86.753,18.746 122.273,43.498c37.707,26.275 72.486,58.973 112.252,84.531c32.727,21.034 90.885,39.658 128.495,49.093c6.692,1.679 13.487,-2.391 15.166,-9.083c1.679,-6.692 -2.391,-13.487 -9.083,-15.166c-35.397,-8.879 -90.259,-26.078 -121.061,-45.875c-39.503,-25.388 -74.019,-57.91 -111.476,-84.011c-39.644,-27.626 -82.478,-48.211 -136.669,-47.987c-23.422,0.097 -46.94,3.604 -69.529,9.678c-25.248,6.789 -53.325,18.994 -73.942,37.089c-22.365,19.631 -36.24,45.934 -30.939,79.487c4.017,25.426 18.2,48.744 35.984,66.917c6.057,6.189 22.096,20.239 29.067,25.373c5.555,4.09 13.387,2.901 17.477,-2.654c4.091,-5.555 2.902,-13.387 -2.653,-17.477Z" style="fill:#7e4021;"/><path d="M994.127,2532.38c1.886,-1.71 8.25,-7.477 8.547,-7.703c13.403,-10.206 28.179,-18.653 43.379,-25.858c42.048,-19.933 87.118,-26.915 133.335,-27.486c59.561,-0.736 122.467,6.422 176.762,32.306c60.147,28.675 111.781,75.407 171.827,103.692c6.241,2.94 13.695,0.26 16.635,-5.981c2.94,-6.242 0.26,-13.695 -5.982,-16.635c-60.011,-28.269 -111.609,-74.984 -171.721,-103.642c-57.717,-27.516 -124.515,-35.52 -187.83,-34.738c-49.84,0.616 -98.39,8.398 -143.735,29.893c-16.763,7.947 -33.034,17.304 -47.816,28.559c-0.582,0.444 -12.53,10.998 -14.169,13.44c-2.522,3.757 -2.379,7.046 -2.18,8.747c0.544,4.658 2.952,7.908 7.035,9.874c5.736,2.763 12.546,0.748 15.913,-4.468Zm-4.472,-17.75c3.893,2.135 6.232,6.089 6.463,10.281c-0.045,-4.987 -2.583,-8.235 -6.463,-10.281Z" style="fill:#7e4021;"/><path d="M1573.62,2672.12c-1.28,-0.144 -2.599,-0.281 -3.263,-0.321c-4.506,-0.274 -8.99,-1.327 -13.281,-2.7c-14.432,-4.621 -27.845,-12.449 -40.863,-20.059c-42.934,-25.097 -79.374,-58.39 -119.791,-87.041c-98.328,-69.703 -213.111,-93.571 -328.941,-54.25c-59.575,20.224 -124.224,66.543 -135.863,132.519c-1.598,9.058 4.459,17.71 13.518,19.308c9.058,1.598 17.71,-4.459 19.308,-13.518c9.567,-54.227 64.785,-90.122 113.752,-106.745c105.302,-35.747 209.558,-13.487 298.949,49.88c41.213,29.215 78.466,63.033 122.246,88.624c15.101,8.828 30.779,17.667 47.52,23.027c6.914,2.214 14.163,3.786 21.425,4.227c2.843,0.173 9.335,0.87 11.606,0.533c2.634,-0.39 4.643,-1.242 6.085,-2.045c6.314,-3.517 8.59,-8.798 8.707,-14.427c0.063,-3.071 -0.222,-8.445 -6.23,-13.556c-4.265,-3.628 -9.835,-4.733 -14.884,-3.456Zm-10.585,24.055c0.682,1.353 1.688,2.772 3.183,4.17c-1.308,-1.242 -2.372,-2.652 -3.183,-4.17Z" style="fill:#7e4021;"/><path d="M3254.75,515.919c-19.432,-11.308 -88.677,-17.749 -110.151,-18.803c-50.545,-2.482 -101.197,-3.234 -151.794,-3.881c-157.29,-2.009 -315.007,4.547 -472.286,7.121c-472.19,7.731 -941.396,53.383 -1404.27,148.684c-83.446,17.18 -390.685,89.107 -367.741,222.024c17.229,99.813 152.779,217.22 222.942,267.132c160.333,114.057 290.996,219.078 492.477,279.715c124.066,37.339 238.578,-54.902 356.213,-17.227c88.118,28.221 124.33,152.56 147.92,230.826c10.503,34.846 22.095,105.84 69.621,108.185c48.472,2.392 54.928,-71.219 55.168,-104.219c0.753,-103.615 -85.149,-233.302 -11.165,-329.838c31.512,-41.117 88.928,-23.686 130.118,-46.516c27.274,-15.118 50.813,-68.184 89.191,-52.201c41.79,17.403 63.908,135.855 119.521,115.13c107.935,-40.224 69.672,-249.527 122.422,-332.641c58.873,-92.761 178.177,-103.517 272.175,-139.963c99.897,-38.733 196.176,-100.973 286.274,-158.197c40.086,-25.46 178.983,-107.831 153.362,-175.331Z" style="fill:#dae1a4;"/><path d="M3270.33,510.004c-1.356,-3.572 -3.897,-6.569 -7.2,-8.491c-6.885,-4.006 -18.964,-7.813 -33.327,-10.768c-29.257,-6.02 -68.89,-9.515 -84.389,-10.276c-50.746,-2.492 -101.6,-3.25 -152.398,-3.899c-157.452,-2.012 -315.331,4.545 -472.772,7.122c-473.228,7.747 -943.466,53.513 -1407.36,149.023c-59.717,12.295 -231.357,52.503 -321.032,121.837c-43.117,33.337 -67.666,73.612 -59.772,119.347c7.313,42.366 34.25,87.967 69.265,130.528c50.513,61.402 117.477,116.787 160.439,147.349c161.862,115.145 293.934,220.879 497.335,282.095c64.97,19.553 127.471,5.866 189.097,-8.466c55.887,-12.996 110.971,-26.74 166.837,-8.849c31.62,10.127 55.424,34.478 74.399,64.034c30.878,48.097 48.871,110.026 62.646,155.73c6.612,21.935 13.952,57.413 29.283,82.906c12.729,21.165 30.636,35.89 55.474,37.116c26.655,1.315 44.59,-13.27 55.912,-35.13c13.558,-26.18 16.586,-63.882 16.744,-85.615c0.385,-52.89 -21.016,-112.498 -33.403,-171.139c-11.106,-52.576 -15.058,-104.502 18.801,-148.682c12.909,-16.843 31.55,-20.805 50.755,-23.784c25.372,-3.935 51.922,-5.938 74.213,-18.293c14.635,-8.111 28.606,-26.038 43.727,-40.159c9.131,-8.526 18.544,-16.412 30.978,-11.234c7.547,3.143 13.655,11.253 20.05,20.658c12.817,18.846 24.752,43.336 38.262,62.223c19.903,27.825 43.78,43.533 73.436,32.481c48.277,-17.991 72.027,-65.118 84.967,-122.479c10.467,-46.401 14.284,-99.436 22.507,-145.27c5.026,-28.014 11.534,-53.198 23.2,-71.578c27.428,-43.217 69.235,-66.922 114.832,-84.477c48.947,-18.844 102.285,-30.65 149.296,-48.878c100.893,-39.119 198.189,-101.873 289.184,-159.667c29.071,-18.464 107.974,-66.224 143.792,-116.961c18.403,-26.068 25.764,-53.203 16.217,-78.354Zm-29.541,17.871c1.244,7.625 -0.371,15.448 -3.669,23.298c-5.243,12.478 -14.594,24.866 -25.884,36.872c-37.273,39.638 -95.389,74.276 -118.786,89.136c-89.2,56.654 -184.461,118.379 -283.363,156.726c-46.987,18.219 -100.3,30.015 -149.223,48.85c-52.273,20.125 -99.554,48.177 -130.999,97.722c-27.327,43.057 -32.014,118.59 -42.914,188.778c-5.003,32.217 -11.482,63.203 -23.291,88.483c-10.481,22.436 -25.186,40.204 -47.965,48.694c-7.704,2.87 -14.166,0.508 -20.01,-4.181c-9.232,-7.407 -17.114,-19.333 -24.863,-32.111c-10.908,-17.989 -21.236,-37.703 -32.341,-52.556c-9.251,-12.373 -19.355,-21.585 -30.08,-26.051c-21.578,-8.986 -39.96,-3.272 -56.535,9.175c-9.561,7.18 -18.475,16.836 -27.137,26.001c-6.731,7.123 -13.131,14.023 -20.006,17.833c-18.9,10.476 -41.65,11.172 -63.163,14.508c-27.682,4.294 -53.497,12.17 -72.103,36.448c-40.128,52.359 -38.12,113.538 -24.958,175.847c11.88,56.241 33.054,113.283 32.685,164.008c-0.13,17.867 -1.865,49.005 -13.012,70.528c-5.153,9.949 -12.537,17.765 -24.669,17.166c-17.396,-0.859 -26.903,-15.743 -34.335,-32.139c-9.829,-21.686 -15.065,-47.341 -20.15,-64.21c-14.532,-48.216 -33.936,-113.378 -66.511,-164.119c-23.329,-36.337 -53.408,-65.319 -92.283,-77.77c-61.77,-19.783 -122.758,-6.243 -184.553,8.127c-56.056,13.036 -112.843,26.8 -171.94,9.014c-199.561,-60.06 -328.814,-164.367 -487.619,-277.337c-41.232,-29.332 -105.542,-82.437 -154.02,-141.365c-30.981,-37.658 -55.689,-77.536 -62.159,-115.021c-3.759,-21.777 3.767,-41.417 18.017,-59.238c16.21,-20.273 40.745,-38.131 69.18,-53.997c89.922,-50.172 218.298,-79.504 267.481,-89.63c461.853,-95.091 930.028,-140.63 1401.18,-148.343c157.117,-2.572 314.672,-9.128 471.8,-7.12c50.396,0.644 100.846,1.389 151.19,3.861c14.564,0.715 51.811,3.975 79.306,9.633c6.815,1.402 12.968,2.829 17.703,4.48l0,0Z" style="fill:#7e4021;"/><path d="M1558.36,1501.14c35.205,-19.381 25.678,-84.223 25.439,-89.252c-0.364,-7.663 -1.887,-15.318 -4.067,-22.665c-6.898,-23.252 -18.758,-46.595 -39.016,-60.916c-31.977,-22.605 -94.614,-11.776 -113.224,-27.149c-26.271,-21.702 -22.166,-83.45 -51.243,-111.391c-27.667,-26.586 -72.049,-44.841 -110.256,-46.878c-11.668,-0.623 -50.273,10.725 -58.925,2.968c-21.86,-19.598 -12.497,-79.236 -51.854,-110.431c-23.414,-18.557 -55.763,-25.779 -85.115,-27.323c-5.553,-0.293 -29.572,7.084 -32.91,4.976c-3.731,-2.357 0.16,-32.475 -0.699,-37.625c-4.34,-26.044 -19.568,-52.561 -36.839,-72.195c-41.249,-46.889 -85.734,-14.3 -118.811,-32.823c-10.018,-5.61 -18.45,-43.797 -25.316,-54.561c-31.501,-49.379 -102.934,-75.034 -142.119,-18.769c-52.968,76.058 14.793,87.772 27.673,120.557c21.291,54.197 -20.423,92.6 44.871,146.746c34.519,28.626 80.436,24.005 112.35,44.521c8.306,5.34 8.568,47.195 11.262,56.219c9.582,32.101 30.97,64.068 58.227,83.718c20.565,14.826 43.834,23.781 69.313,24.007c5.344,0.047 36.374,-9.55 39.196,-6.984c19.273,17.52 8.081,61.725 48.014,87.646c24.163,15.685 51.956,20.485 80.313,18.507c11.562,-0.807 38.807,-12.367 48.537,-3.405c25.282,23.287 25.648,68.651 56.306,94.455c47.71,40.156 103.045,57.33 144.527,63.671c35.41,5.413 90.608,-18.051 104.366,-25.624Z" style="fill:#fff;"/><path d="M886.378,1121.19c0.769,3.549 2.776,13.181 3.499,19.929c1.32,12.331 2.361,24.265 3.715,28.802c10.592,35.481 34.324,70.75 64.451,92.47c23.397,16.867 49.926,26.896 78.913,27.153c2.504,0.022 9.406,-1.239 17.303,-3.147c4.23,-1.021 10.054,-2.274 14.266,-3.155c0.745,1.624 1.342,3.404 1.945,5.256c2.217,6.806 3.803,14.554 6.036,22.551c5.559,19.905 14.619,40.818 38.732,56.47c27.262,17.697 58.555,23.386 90.548,21.154c6.252,-0.436 16.779,-3.618 27.024,-5.641c3.281,-0.648 8.516,-0.879 10.298,-0.94c10.063,10.034 14.866,24.588 20.746,39.094c8.082,19.939 17.395,39.943 34.883,54.662c50.434,42.449 108.89,60.693 152.741,67.396c38.936,5.952 99.794,-19.172 114.921,-27.5c18.403,-10.131 28.3,-29.222 32.515,-49.559c5.234,-25.26 1.69,-51.819 1.535,-55.084c-0.428,-8.996 -2.178,-17.99 -4.736,-26.614c-7.938,-26.756 -22.063,-53.307 -45.374,-69.786c-18.141,-12.823 -44.764,-16.957 -69.705,-19.272c-10.558,-0.979 -20.717,-1.717 -29.351,-3.158c-5.53,-0.922 -10.312,-1.594 -13.174,-3.959c-4.596,-3.796 -7.538,-9.555 -10.172,-16.047c-3.531,-8.703 -6.167,-18.686 -8.931,-28.837c-6.708,-24.638 -14.656,-49.77 -31.207,-65.674c-30.35,-29.165 -79.004,-49.269 -120.916,-51.504c-7.492,-0.4 -25.398,3.528 -40.494,5.169c-3.182,0.345 -7.649,0.325 -9.819,0.287c-2.458,-3.095 -3.914,-7.342 -5.408,-12.035c-2.714,-8.531 -4.723,-18.453 -7.288,-28.717c-6.15,-24.614 -15.521,-50.526 -38.306,-68.585c-26.064,-20.658 -61.916,-29.186 -94.591,-30.906c-2.769,-0.146 -8.909,0.727 -15.78,2.226l-2.38,0.498c0.282,-8.729 0.509,-19.105 0.115,-21.469c-4.831,-28.984 -21.544,-58.613 -40.765,-80.463c-24.778,-28.166 -50.437,-32.672 -74.96,-32.708c-10.043,-0.014 -19.835,0.86 -29.15,0.583c-6.212,-0.186 -12.186,-0.827 -17.69,-3.515c-0.889,-1.621 -3.721,-6.884 -5.293,-10.848c-5.68,-14.322 -11.041,-31.867 -15.497,-38.851c-37.563,-58.884 -123.121,-86.425 -169.847,-19.33c-19.022,27.314 -24.067,48.048 -22.751,64.258c1.437,17.698 10.326,31.125 21.574,42.729c5.801,5.984 12.217,11.444 17.84,17.061c3.843,3.837 7.395,7.597 9.174,12.127c9.796,24.934 4.42,46.287 4.783,67.582c0.461,27.02 6.848,54.293 44.962,85.899c19.29,15.997 41.606,23.059 63.717,28.634c16.783,4.231 33.421,7.33 47.349,15.314Zm133.565,-143.598c-0.118,1.779 -1.603,24.69 -0.753,32.886c0.983,9.485 5.984,14.727 9.101,16.696c2.392,1.511 7.523,3.474 14.721,2.757c6.867,-0.683 25.099,-4.73 26.93,-5.139c25.844,1.438 54.348,7.394 74.921,23.7c20.429,16.192 24.611,41.759 29.631,62.871c4.786,20.124 10.634,37.21 21.45,46.907c4.817,4.319 14.196,7.411 26.168,6.905c14.524,-0.614 35.114,-6.06 42.996,-5.639c34.5,1.84 74.611,18.245 99.595,42.253c6.948,6.676 11.225,15.946 14.783,25.881c4.352,12.153 7.438,25.336 10.987,37.59c5.896,20.362 13.647,38.21 26.407,48.751c9.256,7.646 26.902,11.465 47.733,13.431c22.334,2.109 49.432,2.424 66.484,14.479c17.208,12.163 26.8,32.296 32.659,52.046c1.801,6.069 3.096,12.386 3.397,18.716c0.132,2.77 3.562,25.31 -0.879,46.738c-2.237,10.796 -6.181,21.744 -15.95,27.122c-12.389,6.82 -61.923,28.624 -93.809,23.75c-39.114,-5.979 -91.328,-22.084 -136.314,-59.947c-16.266,-13.691 -22.2,-34.007 -29.725,-52.198c-6.64,-16.054 -14.184,-30.862 -26.022,-41.765c-5.735,-5.282 -14.231,-8.085 -24.399,-7.769c-12.286,0.382 -28.355,6.232 -36.589,6.806c-24.721,1.725 -49.013,-2.186 -70.079,-15.86c-19.566,-12.701 -23.299,-31.252 -27.197,-46.771c-4.083,-16.256 -8.788,-30.235 -18.679,-39.227c-2.23,-2.028 -8.393,-5.599 -17.835,-4.472c-8.351,0.998 -31.192,6.624 -33.145,7.107c-21.687,-0.352 -41.454,-8.2 -58.995,-20.846c-24.386,-17.58 -43.43,-46.245 -52.003,-74.965c-1.827,-6.12 -2.337,-27.846 -5.336,-42.092c-2.537,-12.052 -8.118,-20.316 -12.883,-23.379c-17.423,-11.201 -38.536,-15.916 -60.137,-21.361c-17.457,-4.401 -35.358,-9.341 -50.588,-21.97c-33.106,-27.454 -33.637,-50.128 -32.668,-73.761c0.852,-20.782 2.165,-42.084 -7.328,-66.25c-4.706,-11.977 -14.887,-22.083 -25.847,-32.249c-8.138,-7.548 -17.197,-15.004 -19.917,-26.255c-2.752,-11.382 1.72,-25.564 16.255,-46.434c31.661,-45.463 88.938,-21.691 114.391,18.208c4.566,7.158 9.601,27.185 15.631,40.325c4.592,10.002 10.521,16.973 15.593,19.813c15.889,8.899 33.841,8.873 52.989,8.166c19.613,-0.725 41.156,-1.947 61.451,21.125c15.187,17.264 28.821,40.41 32.804,63.32Z" style="fill:#7e4021;"/><path d="M469.726,2317.35c-0.195,-0.091 -2.478,-9.902 -2.772,-10.561c-4.314,-9.662 -10.038,-18.649 -16.274,-27.168c-17.472,-23.866 -42.138,-43.376 -69.997,-53.531c-26.407,-9.626 -54.425,-11.904 -82.278,-12.961c-24.197,-0.918 -48.433,-0.359 -72.639,-0.893c-9.534,-0.21 -24.433,-3.6 -33.258,1.332c-11.257,6.291 -9.729,24.382 -9.768,35.034c-0.117,31.743 4.67,61.589 19.788,89.918c24.529,45.964 66.202,79.992 117.903,89.845c64.071,12.21 130.845,-49.622 149.295,-111.015Z" style="fill:#bbc470;"/><path d="M485.456,2311.84c-0.467,-1.751 -2.998,-11.213 -3.284,-11.852c-4.794,-10.737 -11.113,-20.75 -18.044,-30.217c-19.391,-26.488 -46.818,-48.074 -77.737,-59.345c-28.046,-10.223 -57.773,-12.834 -87.355,-13.956c-24.285,-0.922 -48.609,-0.366 -72.903,-0.902c-5.867,-0.129 -13.718,-1.401 -21.013,-1.331c-7.736,0.075 -14.985,1.559 -20.743,4.778c-8.531,4.767 -13.758,12.705 -16.278,22.294c-2.359,8.973 -1.998,19.673 -2.026,27.227c-0.127,34.551 5.295,66.991 21.751,97.826c26.909,50.423 72.77,87.561 129.487,98.37c29.616,5.644 59.817,-2.003 86.659,-18.23c38.303,-23.157 69.548,-63.865 81.717,-104.36c1.047,-3.484 0.901,-7.075 -0.231,-10.302Zm-34.212,0.666l0.951,3.789l0.158,0.615c-10.825,31.709 -35.625,62.927 -65.628,81.066c-19.614,11.858 -41.533,18.136 -63.174,14.012c-46.686,-8.897 -84.17,-39.815 -106.319,-81.32c-13.781,-25.823 -17.932,-53.075 -17.826,-82.01c0.014,-3.903 -0.236,-8.897 0.161,-13.854c0.125,-1.573 0.318,-3.145 0.673,-4.635c0.166,-0.698 0.618,-1.81 0.808,-2.258c1.965,-0.855 4.554,-0.4 7.111,-0.291c6.142,0.263 12.376,1.166 17.239,1.274c24.118,0.531 48.266,-0.03 72.375,0.885c26.125,0.991 52.434,2.936 77.202,11.965c24.798,9.04 46.704,26.473 62.257,47.717c5.31,7.254 10.24,14.867 14.012,23.045Z" style="fill:#7e4021;"/><path d="M660.252,2537.53c0.016,0.178 -6.064,5.933 -6.413,6.42c-5.121,7.15 -9.167,15.027 -12.661,23.075c-9.789,22.549 -13.434,48.431 -9.029,72.678c4.176,22.983 14.299,44.039 25.229,64.463c9.496,17.744 20.066,34.896 29.841,52.485c3.85,6.927 7.671,19.038 14.912,23.299c9.237,5.436 21.574,-3.252 29.232,-7.694c22.82,-13.236 42.223,-29.195 56.201,-51.928c22.68,-36.885 29.604,-81.059 14.977,-122.283c-18.127,-51.087 -90.505,-73.042 -142.289,-60.515Z" style="fill:#bbc470;"/><path d="M647.593,2526.68c-1.16,1.178 -6.958,7.072 -7.304,7.556c-5.807,8.108 -10.437,17.016 -14.399,26.143c-11.083,25.53 -15.126,54.843 -10.139,82.294c4.488,24.7 15.186,47.398 26.932,69.348c9.537,17.822 20.15,35.051 29.968,52.717c2.381,4.285 4.78,10.48 7.908,15.711c3.559,5.952 8.022,10.857 13.12,13.857c7.671,4.514 16.31,5.036 25.008,2.607c7.659,-2.138 15.437,-7 21.038,-10.249c25.25,-14.645 46.57,-32.462 62.036,-57.615c25.328,-41.19 32.822,-90.55 16.487,-136.586c-8.608,-24.261 -27.22,-43.263 -50.753,-56.05c-33.285,-18.086 -76.378,-23.506 -111.162,-15.092c-3.517,0.851 -6.53,2.775 -8.74,5.359Zm62.544,237.892c-0.913,-1.41 -2.351,-3.709 -3.108,-5.262c-1.893,-3.887 -3.577,-7.768 -5.242,-10.764c-9.732,-17.512 -20.26,-34.587 -29.714,-52.252c-10.114,-18.9 -19.662,-38.312 -23.525,-59.579c-3.823,-21.042 -0.577,-43.493 7.918,-63.061c2.867,-6.604 6.124,-13.094 10.231,-19.023l1.907,-1.869c26.513,-5.165 58.194,-0.526 82.977,12.94c16.11,8.754 29.359,21.298 35.253,37.907c12.919,36.412 6.565,75.401 -13.468,107.981c-12.49,20.313 -29.974,34.413 -50.366,46.241c-2.754,1.597 -6.164,3.836 -9.816,5.598c-0.812,0.391 -2.075,0.83 -3.047,1.143Z" style="fill:#7e4021;"/><path d="M409.854,2330.13c-54.018,2.728 -146.245,-31.199 -186.762,-109.59c-4.224,-8.171 -14.288,-11.377 -22.459,-7.153c-8.172,4.224 -11.377,14.287 -7.153,22.459c47.271,91.456 155.033,130.758 218.055,127.575c9.187,-0.464 16.269,-8.299 15.805,-17.486c-0.464,-9.187 -8.299,-16.269 -17.486,-15.805Z" style="fill:#7e4021;"/><path d="M704.288,2605.13c9.027,13.786 10.66,33.651 9.786,54.844c-1.509,36.619 -11.654,77.037 -17.31,103.945c-1.893,9.002 3.879,17.847 12.881,19.739c9.002,1.893 17.847,-3.879 19.739,-12.881c5.953,-28.318 16.407,-70.892 17.995,-109.43c1.192,-28.916 -2.887,-55.667 -15.204,-74.477c-5.039,-7.696 -15.378,-9.852 -23.074,-4.813c-7.695,5.039 -9.852,15.378 -4.813,23.073Z" style="fill:#7e4021;"/><path d="M708.49,2243.61c-4.316,-0.966 -15.009,-15.614 -19.529,-18.682c-23.269,-15.79 -52.764,-28.508 -81.344,-22.361c-47.736,10.266 -69.938,43.907 -103.419,73.596c-22.341,19.811 -52.13,9.698 -74.12,42.328c-61.326,90.999 -5.715,231.373 82.869,281.537c38.737,21.937 84.737,27.851 128.546,22.762c72.734,-8.449 185.575,-59.659 198.951,-141.796c4.028,-24.735 -21.211,-58.502 -14.049,-75.109c7.524,-17.448 16.971,-38.189 16.926,-63.145c-0.105,-59.677 -76.299,-119.072 -134.831,-99.13Z" style="fill:#f8bcc4;"/><path d="M712.602,2225.2c-4.362,-4.661 -11.627,-12.255 -14.283,-14.057c-26.874,-18.236 -61.198,-31.963 -94.206,-24.864c-50.886,10.944 -75.282,45.772 -110.972,77.42c-9.25,8.203 -20.314,9.573 -31.07,12.908c-16.173,5.014 -32.124,12.261 -45.814,32.576c-33.526,49.748 -35.723,112.93 -16.796,170.593c18.619,56.728 57.631,107.782 105.273,134.761c41.806,23.674 91.404,30.306 138.682,24.814c46.181,-5.364 107.629,-27.045 152.465,-62.285c31.68,-24.899 55.012,-56.538 61.013,-93.387c2.419,-14.855 -3.074,-32.592 -8.973,-48.939c-2.193,-6.077 -4.351,-11.911 -5.509,-17.169c-0.436,-1.979 -1.315,-3.686 -0.713,-5.081c8.302,-19.251 18.338,-42.238 18.289,-69.773c-0.061,-34.68 -21.505,-69.689 -52.162,-92.719c-28.052,-21.073 -63.324,-31.782 -95.224,-24.798Zm-33.389,13.264c0.782,0.867 8.38,9.272 12.319,13.149c5.041,4.961 10.217,7.573 13.32,8.267c2.992,0.67 6.111,0.501 9.013,-0.488c24.292,-8.277 52.045,0.809 73.94,17.257c22.102,16.603 38.806,41.126 38.85,66.127c0.039,22.377 -8.818,40.87 -15.565,56.515c-4.141,9.603 -2.604,23.338 2.537,38.455c2.586,7.602 5.865,15.779 8.186,23.861c1.672,5.824 3.025,11.532 2.181,16.715c-4.7,28.862 -23.897,53.034 -48.711,72.537c-39.903,31.362 -94.613,50.607 -135.713,55.382c-40.339,4.685 -82.74,-0.51 -118.41,-20.709c-40.942,-23.185 -74.027,-67.401 -90.028,-116.151c-15.694,-47.815 -15.034,-100.317 12.767,-141.569c10.368,-15.386 23.339,-18.04 35.532,-21.575c12.666,-3.673 24.883,-7.895 35.825,-17.598c13.514,-11.983 25.217,-24.596 37.466,-36.091c16.083,-15.092 33.103,-28.24 58.399,-33.681c23.997,-5.161 48.489,6.359 68.092,19.597Z" style="fill:#7e4021;"/><path d="M513.3,2244.24c-19.593,19.68 -35.617,47.675 -38.79,54.48c-9.523,20.43 -16.746,41.321 -20.97,63.515c-12.838,67.451 8.575,116.32 57.546,166.008c94.418,95.803 249.886,40.625 292.652,-69.038c3.342,-8.57 -0.903,-18.241 -9.473,-21.583c-8.57,-3.342 -18.241,0.902 -21.583,9.472c-34.812,89.269 -160.996,135.738 -237.855,57.751c-40.347,-40.938 -59.119,-80.805 -48.541,-136.378c3.703,-19.457 10.088,-37.753 18.437,-55.664c2.626,-5.634 15.978,-28.751 32.199,-45.045c6.49,-6.519 6.467,-17.08 -0.052,-23.57c-6.519,-6.49 -17.08,-6.467 -23.57,0.052Z" style="fill:#7e4021;"/><path d="M712.832,2225.24c-69.067,20.841 -92.437,43.489 -110.146,58.922c-20.893,18.208 -38.696,39.916 -51.345,64.651c-8.607,16.831 -15.312,35.187 -17.609,54.037c-8.565,70.277 47.118,133.749 117.099,136.939c72.868,3.322 167.579,-55.769 204.268,-160.405c3.044,-8.68 -1.533,-18.199 -10.213,-21.242c-8.681,-3.044 -18.199,1.532 -21.243,10.213c-31.085,88.654 -109.556,140.949 -171.295,138.135c-50.992,-2.324 -91.769,-48.399 -85.528,-99.608c1.827,-14.985 7.357,-29.512 14.199,-42.892c10.714,-20.951 25.871,-39.277 43.567,-54.699c15.722,-13.701 36.56,-33.636 97.876,-52.139c8.806,-2.657 13.798,-11.964 11.141,-20.77c-2.657,-8.807 -11.964,-13.799 -20.771,-11.142Z" style="fill:#7e4021;"/><path d="M796.695,2455.89c2.659,-40.126 -22.47,-83.351 -56.475,-105.786c-21.778,-14.368 -46.893,-20.23 -70.506,-13.447c-15.77,4.529 -31.135,14.685 -44.313,32.626c-19.16,26.086 -18.107,50.957 -7.499,69.174c15.487,26.597 54.494,40.562 91.616,21.9c21.953,-11.036 24.907,-35.477 15.089,-52.624c-5.034,-8.792 -13.343,-15.486 -23.703,-17.765c-9.28,-2.042 -20.723,-0.757 -33.091,7.858c-7.548,5.258 -9.407,15.654 -4.15,23.202c5.258,7.548 15.654,9.407 23.202,4.15c2.911,-2.028 5.184,-3.406 7.175,-2.56c3.003,1.275 4.084,6.158 0.506,7.957c-19.176,9.64 -39.839,4.847 -47.839,-8.892c-5.052,-8.676 -3.565,-20.244 5.56,-32.668c8.025,-10.926 17.045,-17.562 26.649,-20.32c14.452,-4.151 29.619,0.439 42.948,9.232c24.504,16.167 43.487,46.843 41.571,75.76c-0.608,9.178 6.35,17.124 15.528,17.732c9.179,0.608 17.124,-6.35 17.732,-15.529Z" style="fill:#7e4021;"/><path d="M1788.45,17.413c0.363,0.123 -46.739,70.156 -49.211,72.622c-35.895,35.812 -79.289,66.281 -126.047,85.786c-121.528,50.693 -307.507,101.913 -344.629,249.102c-9.102,36.092 20.18,60.514 18.018,85.454c-12.493,144.11 -56.862,265.639 86.883,373.684c33.8,25.406 70.774,42.216 112.735,48.438c18.677,2.77 53.841,-7.402 69.76,2.181c27.531,16.575 44.255,56.634 68.421,78.459c47.393,42.802 112.944,60.197 175.93,60.127c40.522,-0.045 87.215,-12.91 121.678,-34.444c12.607,-7.878 25.242,-33.209 38.558,-36.612c70.537,-18.026 134.103,42.464 211.093,-48.135c41.368,-48.681 6.385,-98.683 26.411,-143.82c5.305,-11.958 32.934,-17.545 43.031,-26.03c31.982,-26.88 56.519,-64.452 60.777,-106.393c3.759,-37.024 -0.453,-76.789 -18.964,-109.673c-7.855,-13.955 -36.082,-35.927 -37.51,-51.174c-2.31,-24.66 11.844,-49.403 9.683,-75.203c-3.798,-45.331 -28.784,-53.237 -47.754,-87.095c-14.785,-26.388 -9.639,-56.745 -33.124,-81.491c-71.601,-75.447 -204.531,-85.501 -291.555,-140.1c-32.745,-20.545 -91.155,-72.556 -94.184,-115.683Z" style="fill:#fff;"/><path d="M1773.87,9.36c1.078,-1.969 2.564,-3.722 4.392,-5.135c4.411,-3.408 10.234,-4.386 15.516,-2.605c4.379,1.477 7.892,4.348 9.982,9.197c0.497,1.154 1.553,3.502 1.448,6.869c1.486,13.978 10.292,28.739 21.386,42.87c19.352,24.652 46.461,46.853 64.9,58.421c42.541,26.691 96.386,42.288 148.262,60.638c55.634,19.68 108.988,42.555 146.525,82.108c13.964,14.714 19.745,30.932 23.904,47.558c3.143,12.565 5.028,25.403 11.671,37.26c9.027,16.111 19.606,25.957 28.26,37.259c10.756,14.049 19.316,29.777 21.562,56.591c1.229,14.671 -1.905,29.077 -5.293,43.286c-2.549,10.686 -5.392,21.208 -4.404,31.754c0.142,1.516 1.419,2.969 2.6,4.728c2.572,3.83 5.988,7.798 9.547,11.757c9.128,10.157 18.93,20.317 23.292,28.067c20.186,35.859 25.121,79.16 21.022,119.533c-4.693,46.228 -31.384,87.841 -66.635,117.468c-5.939,4.991 -16.837,9.517 -27.228,14.167c-4.223,1.889 -10.531,5.872 -11.578,6.541c-8.562,19.948 -4.446,41.013 -3.5,62.408c1.243,28.096 -1.172,56.541 -25.159,84.767c-51.476,60.575 -97.528,60.639 -143.143,55.256c-25.284,-2.983 -50.382,-8.446 -76.523,-1.765c-1.012,0.258 -1.758,1.294 -2.748,2.198c-2.727,2.495 -5.395,5.654 -8.077,8.899c-7.633,9.236 -15.509,18.802 -23.029,23.501c-36.962,23.096 -87.031,36.929 -130.491,36.977c-67.043,0.074 -136.672,-18.866 -187.119,-64.425c-12.894,-11.645 -23.956,-28.033 -35.314,-43.843c-9.256,-12.884 -18.56,-25.498 -30.532,-32.706c-2.006,-1.207 -4.704,-1.433 -7.64,-1.653c-5.051,-0.379 -10.66,-0.086 -16.344,0.347c-14.466,1.102 -29.324,2.86 -39.625,1.333c-44.766,-6.638 -84.244,-24.498 -120.304,-51.602c-91.835,-69.028 -111.53,-143.24 -109.744,-224.697c1.125,-51.336 11.241,-105.726 16.271,-163.749c0.865,-9.979 -5.585,-19.526 -10.316,-30.516c-7.247,-16.835 -12.837,-35.456 -7.258,-57.575c19.698,-78.103 78.223,-131.326 148.613,-171.166c66.921,-37.877 144.451,-63.668 205.759,-89.242c44.783,-18.681 86.314,-47.904 120.692,-82.203c2.133,-2.127 38.672,-56.878 45.753,-67.859l0.647,-1.017Zm9.461,45.82c4.608,8.764 10.405,17.502 17.043,25.959c21.887,27.882 52.55,52.99 73.405,66.075c44.483,27.909 100.615,44.638 154.861,63.827c50.488,17.859 99.398,37.734 133.463,73.628c11.797,12.43 14.388,26.806 17.709,40.886c2.995,12.703 6.264,25.32 12.964,37.279c8.172,14.585 17.295,24.763 25.665,34.773c9.699,11.599 18.124,22.938 20.02,45.567c0.932,11.128 -1.93,21.993 -4.5,32.771c-3.411,14.301 -6.49,28.479 -5.168,42.594c0.81,8.651 6.69,19.372 15.381,29.737c8.49,10.123 19.846,20.325 24.199,28.058c16.837,29.911 20.326,66.138 16.907,99.815c-3.823,37.655 -26.205,71.184 -54.919,95.317c-5.312,4.464 -16.364,7.59 -25.196,11.98c-10.739,5.338 -18.953,12.4 -22.347,20.05c-9.131,20.58 -8.785,41.985 -7.434,63.889c1.534,24.856 4.962,50.709 -16.443,75.897c-40.912,48.144 -77.582,48.015 -113.836,43.738c-29.295,-3.457 -58.393,-8.698 -88.682,-0.958c-7.963,2.035 -16.386,8.475 -24.085,17.231c-6.62,7.53 -12.697,17.344 -19.179,21.394c-31.964,19.973 -75.281,31.871 -112.864,31.912c-58.929,0.066 -120.401,-15.785 -164.741,-55.829c-11.272,-10.18 -20.656,-24.733 -30.584,-38.553c-12.03,-16.746 -24.852,-32.448 -40.411,-41.815c-8.663,-5.216 -21.363,-7.025 -35.294,-6.486c-14.279,0.552 -30.2,3.642 -40.619,2.097c-39.155,-5.806 -73.625,-21.568 -105.165,-45.275c-80.658,-60.626 -98.015,-125.777 -96.447,-197.32c1.111,-50.665 11.19,-104.336 16.154,-161.601c1.094,-12.612 -3.437,-25.306 -9.415,-38.694c-5.715,-12.801 -13.447,-26.674 -9.046,-44.124c17.424,-69.087 70.447,-115.068 132.711,-150.309c65.731,-37.203 141.955,-62.368 202.173,-87.487c48.735,-20.329 93.99,-52.044 131.402,-89.369c1.475,-1.471 18.297,-25.961 32.318,-46.654Z" style="fill:#7e4021;"/><path d="M1571.05,925.239l-17.443,-26.475c-12.144,-18.135 -24.927,-35.758 -36.455,-54.313c-47.589,-76.595 -93.835,-169.055 -81.801,-261.729c2.501,-19.262 7.426,-38.288 15.155,-56.125c24.822,-57.283 71.689,-84.481 121.669,-107.911c55.351,-25.948 114.487,-47.508 158.184,-91.544c44.252,-44.595 57.311,-92.8 60.697,-143.476c3.113,-46.585 -2.477,-95.336 3.652,-144.988c1.127,-9.129 -5.37,-17.456 -14.499,-18.583c-9.129,-1.126 -17.456,5.37 -18.583,14.5c-6.208,50.29 -0.676,99.664 -3.829,146.848c-2.879,43.093 -13.47,84.299 -51.099,122.22c-40.927,41.244 -96.83,60.539 -148.672,84.841c-57.214,26.821 -109.691,59.266 -138.105,124.84c-8.965,20.689 -14.725,42.744 -17.626,65.085c-13.013,100.215 35.083,200.787 86.543,283.614c11.729,18.877 24.717,36.818 37.072,55.267c0.665,0.994 14.819,22.701 17.758,26.938c1.893,2.729 3.5,3.978 3.79,4.21c9.817,7.866 17.902,2.432 21.018,-0.131c6.983,-5.743 8.091,-15.997 2.574,-23.088Z" style="fill:#7e4021;"/><path d="M2001.83,981.783c-25.897,-2.544 -66.51,-22.199 -79.706,-26.708c-31.51,-10.768 -62.859,-22.523 -92.803,-37.173c-56.783,-27.78 -117.761,-69.412 -162.577,-121.889c-43.322,-50.728 -71.576,-111.682 -64.214,-180.141c8.698,-80.896 61.374,-149.647 118.481,-204.06c32.628,-31.089 66.851,-61.252 93.645,-94.217c43.008,-52.916 67.543,-112.811 41.502,-193.358c-9.569,-29.597 -25.261,-56.687 -42.719,-82.246c-5.188,-7.596 -15.567,-9.551 -23.163,-4.363c-7.596,5.189 -9.55,15.568 -4.362,23.164c15.666,22.935 29.941,47.141 38.527,73.699c21.853,67.592 0.439,117.674 -35.653,162.08c-25.939,31.916 -59.182,61.009 -90.771,91.108c-62.646,59.692 -119.087,135.886 -128.63,224.629c-8.376,77.898 22.714,147.63 72.009,205.352c47.801,55.973 112.711,100.553 173.276,130.184c31.199,15.263 63.844,27.555 96.673,38.773c14.398,4.92 58.972,25.564 87.226,28.339c9.154,0.9 17.317,-5.803 18.216,-14.957c0.899,-9.155 -5.803,-17.317 -14.957,-18.216Z" style="fill:#7e4021;"/><path d="M1845.97,132.655c1.3,2.849 2.244,5.868 3.117,8.869c3.454,11.882 5.032,24.241 6.157,36.536c3.264,35.658 1.257,72.365 -4.801,107.629c-8.293,48.274 -36.66,91.725 -61.536,135.833c-27.485,48.736 -50.818,98.221 -46.396,153.634c13.541,169.698 185.595,248.707 336.707,251.412c38.904,0.697 109.065,-0.102 158.001,-21.287c8.442,-3.654 12.329,-13.474 8.674,-21.916c-3.654,-8.441 -13.474,-12.328 -21.916,-8.674c-44.615,19.314 -108.694,19.184 -144.162,18.549c-135.122,-2.419 -291.968,-68.995 -304.077,-220.735c-3.886,-48.709 18.043,-91.77 42.203,-134.609c26.77,-47.466 56.429,-94.614 65.354,-146.563c6.547,-38.108 8.671,-77.777 5.144,-116.31c-1.319,-14.412 -3.295,-28.877 -7.344,-42.804c-1.375,-4.731 -2.956,-9.457 -5.04,-13.931c-0.544,-1.169 -2.239,-3.888 -3.436,-5.759c-0.835,-2.015 -2.082,-3.898 -3.739,-5.518c-11.207,-10.959 -21.602,-2.17 -22.964,-0.99c-2.556,2.212 -8.619,8.318 -4.634,18.679c0.292,0.758 4.051,6.915 4.688,7.955Z" style="fill:#7e4021;"/><path d="M2230.88,501.559l-15.728,11.676c-16.408,9.103 -35.239,14.89 -53.662,17.907c-55.104,9.024 -117.848,-5.878 -158.02,-46.071c-29.978,-29.994 -48.776,-70.72 -48.893,-113.212c-0.09,-32.825 7.723,-64.863 5.236,-97.836c-4.866,-64.503 -32.065,-118.514 -78.91,-162.432c-6.711,-6.292 -17.267,-5.951 -23.558,0.759c-6.291,6.711 -5.951,17.267 0.76,23.558c40.572,38.038 64.255,84.756 68.469,140.622c2.426,32.163 -5.418,63.402 -5.33,95.42c0.141,51.251 22.493,100.509 58.65,136.685c47.595,47.621 121.696,66.094 186.983,55.402c22.402,-3.669 45.258,-10.882 65.146,-22.036c1.029,-0.577 17.307,-12.426 20.344,-14.933c4.789,-3.955 5.655,-8.01 5.841,-8.663c2.691,-9.401 -1.513,-15.063 -6.986,-18.596c-6.521,-4.209 -14.89,-3.284 -20.342,1.75Z" style="fill:#7e4021;"/><path d="M2177.16,326.782l-2.664,9.261c-4.935,11.349 -13.838,19.908 -23.833,27.032c-25.695,18.314 -53.753,12.021 -79.108,-4.157c-25.75,-16.431 -41.723,-40.018 -54.966,-65.575c-14.64,-28.251 -25.994,-58.911 -41.253,-86.74c-17.406,-31.747 -43.47,-56.747 -73.097,-77.181c-7.573,-5.222 -17.96,-3.314 -23.183,4.258c-5.222,7.572 -3.314,17.96 4.258,23.183c25.343,17.478 47.905,38.609 62.794,65.766c15.134,27.602 26.364,58.029 40.885,86.051c15.918,30.717 35.682,58.59 66.632,78.338c37.264,23.778 78.62,30.118 116.385,3.201c15.129,-10.783 28.004,-24.265 35.34,-41.541c0.612,-1.441 5.452,-18.395 5.312,-22.098c-0.412,-10.845 -7.773,-14.567 -12.164,-15.85c-8.829,-2.579 -18.092,2.496 -20.671,11.326c-0.46,1.575 -0.676,3.164 -0.667,4.726Zm3.388,10.015c2.338,3.219 5.399,4.993 8.605,5.93c-3.567,-1.042 -6.522,-3.175 -8.605,-5.93Z" style="fill:#7e4021;"/><path d="M1299.47,543.471c34.413,-111.694 73.614,-144.054 120.73,-170.681c63.147,-35.686 134.375,-51.832 199.223,-83.5c97.911,-47.813 154.272,-148.94 177.032,-256.013c1.912,-8.998 -3.84,-17.856 -12.837,-19.768c-8.998,-1.913 -17.856,3.839 -19.768,12.837c-20.628,97.044 -70.314,189.657 -159.054,232.992c-65.447,31.96 -137.266,48.417 -200.996,84.432c-52.663,29.761 -97.722,65.044 -136.186,189.887c-2.708,8.79 2.23,18.126 11.021,20.835c8.79,2.708 18.126,-2.23 20.835,-11.021Z" style="fill:#7e4021;"/></g></svg>