<?xml version="1.0" encoding="UTF-8" standalone="no"?><!DOCTYPE svg PUBLIC "-//W3C//DTD SVG 1.1//EN" "http://www.w3.org/Graphics/SVG/1.1/DTD/svg11.dtd"><svg width="100%" height="100%" viewBox="0 0 2224 1812" version="1.1" xmlns="http://www.w3.org/2000/svg" xmlns:xlink="http://www.w3.org/1999/xlink" xml:space="preserve" xmlns:serif="http://www.serif.com/" style="fill-rule:evenodd;clip-rule:evenodd;stroke-linejoin:round;stroke-miterlimit:2;"><g id="Coffee-Pod-01" serif:id="Coffee Pod-01"><path d="M671.305,59.536c470.538,-126.08 1395.02,26.794 1521.1,497.332c126.081,470.538 -593.682,1081.7 -1064.22,1207.78c-470.538,126.08 -954.917,-153.576 -1081,-624.114c-126.081,-470.539 153.576,-954.917 624.114,-1081Z" style="fill:#ffdab8;"/><path d="M666.991,43.438c-239.712,64.23 -430.804,219.725 -545.909,419.092c-115.105,199.367 -154.221,442.605 -89.99,682.317c64.231,239.712 219.725,430.805 419.092,545.909c199.368,115.105 442.606,154.221 682.318,89.99c272.147,-72.921 627.011,-306.299 856.51,-581.884c173.406,-208.228 274.594,-440.677 219.495,-646.308c-55.222,-206.09 -258.97,-353.962 -513.057,-444.05c-335.024,-118.785 -756.721,-137.878 -1028.46,-65.066l0,-0Zm8.628,32.197c266.523,-71.415 680.097,-52.219 1008.69,64.286c242.543,85.995 439.286,224.534 491.998,421.261c52.639,196.449 -47.247,417.418 -212.911,616.349c-225.031,270.22 -572.674,499.516 -839.524,571.018c-230.826,61.85 -465.046,24.178 -657.023,-86.66c-191.977,-110.838 -341.712,-294.843 -403.561,-525.669c-61.85,-230.826 -24.178,-465.047 86.66,-657.023c110.837,-191.977 294.842,-341.712 525.668,-403.562l0.001,0Z" style="fill:#7e4021;"/><path d="M1504.57,290.958c52.376,52.662 98.328,112.422 136.17,178.309c36.595,63.718 65.606,133.165 85.514,207.463c21.488,80.197 30.967,160.803 29.535,239.906c-1.482,81.864 -14.649,162.117 -38.273,238.637c-2.714,8.789 2.219,18.128 11.008,20.841c8.789,2.714 18.128,-2.219 20.842,-11.008c24.538,-79.479 38.212,-162.836 39.751,-247.867c1.487,-82.146 -8.35,-165.854 -30.666,-249.137c-20.673,-77.153 -50.804,-149.269 -88.806,-215.436c-39.307,-68.439 -87.037,-130.513 -141.441,-185.214c-6.487,-6.522 -17.049,-6.55 -23.571,-0.064c-6.522,6.487 -6.55,17.048 -0.063,23.57Z" style="fill:#7e4021;"/><path d="M717.119,270.446c356.137,-95.426 722.749,116.237 818.176,472.375c95.427,356.137 -116.237,722.749 -472.374,818.176c-356.138,95.427 -722.75,-116.237 -818.177,-472.374c-95.426,-356.138 116.237,-722.75 472.375,-818.177Z" style="fill:#e3b198;"/><path d="M712.805,254.348c-182.512,48.903 -328.006,167.293 -415.644,319.087c-87.638,151.793 -117.419,336.99 -68.515,519.501c48.903,182.512 167.293,328.006 319.087,415.644c151.793,87.638 336.99,117.419 519.501,68.516c182.512,-48.904 328.006,-167.294 415.644,-319.088c87.638,-151.793 117.419,-336.99 68.516,-519.501c-48.904,-182.512 -167.294,-328.006 -319.087,-415.644c-151.794,-87.638 -336.99,-117.419 -519.502,-68.516l-0,0.001Zm8.627,32.197c173.626,-46.523 349.804,-18.186 494.208,65.186c144.403,83.371 257.033,221.778 303.556,395.403c46.523,173.626 18.186,349.804 -65.186,494.208c-83.371,144.403 -221.778,257.033 -395.403,303.556c-173.626,46.523 -349.804,18.186 -494.208,-65.186c-144.403,-83.371 -257.033,-221.778 -303.556,-395.403c-46.523,-173.626 -18.186,-349.804 65.186,-494.208c83.371,-144.403 221.778,-257.033 395.403,-303.556l0,-0Z" style="fill:#7e4021;"/><path d="M781.635,1043.4c16.34,-4.378 33.162,5.333 37.54,21.674c4.378,16.34 -5.333,33.161 -21.674,37.54c-16.34,4.378 -33.161,-5.333 -37.54,-21.674c-4.378,-16.34 5.334,-33.161 21.674,-37.54Z" style="fill:#7e4021;"/><path d="M944.327,872.26c-8.458,-14.65 -3.431,-33.412 11.219,-41.87c14.651,-8.458 33.412,-3.431 41.871,11.219c8.458,14.651 3.431,33.412 -11.22,41.87c-14.65,8.459 -33.411,3.432 -41.87,-11.219Z" style="fill:#7e4021;"/><path d="M609.218,1133.45c-0.559,16.908 -14.74,30.181 -31.647,29.622c-16.908,-0.559 -30.181,-14.74 -29.622,-31.647c0.559,-16.908 14.739,-30.181 31.647,-29.622c16.907,0.559 30.181,14.739 29.622,31.647Z" style="fill:#7e4021;"/><path d="M1308.88,1051.48c-11.962,11.962 -31.385,11.962 -43.347,0c-11.962,-11.962 -11.962,-31.385 -0,-43.347c11.962,-11.962 31.385,-11.962 43.347,-0c11.962,11.962 11.962,31.385 0,43.347Z" style="fill:#7e4021;"/><path d="M434.232,797.058c16.476,-3.836 32.967,6.426 36.803,22.902c3.837,16.477 -6.426,32.968 -22.902,36.804c-16.476,3.836 -32.967,-6.426 -36.803,-22.902c-3.836,-16.476 6.426,-32.967 22.902,-36.804Z" style="fill:#7e4021;"/><path d="M813.313,354.71c14.65,8.458 19.678,27.22 11.219,41.87c-8.458,14.65 -27.22,19.678 -41.87,11.219c-14.651,-8.458 -19.678,-27.22 -11.219,-41.87c8.458,-14.651 27.22,-19.678 41.87,-11.219Z" style="fill:#7e4021;"/><path d="M1052.32,1171.3c16.341,-4.379 33.162,5.333 37.54,21.673c4.379,16.341 -5.333,33.162 -21.673,37.54c-16.341,4.379 -33.162,-5.333 -37.54,-21.673c-4.379,-16.341 5.333,-33.162 21.673,-37.54Z" style="fill:#7e4021;"/><path d="M675.519,822.499c-16.187,-4.915 -25.338,-22.048 -20.422,-38.235c4.916,-16.187 22.049,-25.338 38.236,-20.422c16.187,4.916 25.337,22.049 20.421,38.236c-4.916,16.187 -22.048,25.337 -38.235,20.421Z" style="fill:#7e4021;"/><path d="M997.805,577.696c-8.458,-14.651 -3.431,-33.412 11.219,-41.87c14.651,-8.459 33.412,-3.432 41.87,11.219c8.459,14.65 3.432,33.412 -11.219,41.87c-14.65,8.459 -33.412,3.431 -41.87,-11.219Z" style="fill:#7e4021;"/><path d="M1042.5,1487.02c-11.962,11.962 -31.385,11.962 -43.347,0c-11.962,-11.962 -11.962,-31.385 -0,-43.347c11.962,-11.962 31.385,-11.962 43.347,0c11.962,11.962 11.962,31.385 0,43.347Z" style="fill:#7e4021;"/><path d="M861.007,540.857c16.476,-3.836 32.967,6.426 36.804,22.902c3.836,16.476 -6.426,32.967 -22.903,36.804c-16.476,3.836 -32.967,-6.426 -36.803,-22.903c-3.836,-16.476 6.426,-32.967 22.902,-36.803Z" style="fill:#7e4021;"/><path d="M1305.31,505.473c14.65,8.459 19.678,27.22 11.219,41.87c-8.458,14.651 -27.22,19.678 -41.87,11.22c-14.651,-8.459 -19.678,-27.22 -11.219,-41.871c8.458,-14.65 27.22,-19.677 41.87,-11.219Z" style="fill:#7e4021;"/><path d="M859.205,1192.18c16.341,-4.379 33.162,5.333 37.54,21.673c4.379,16.341 -5.333,33.162 -21.674,37.54c-16.34,4.379 -33.161,-5.333 -37.539,-21.674c-4.379,-16.34 5.333,-33.161 21.673,-37.539Z" style="fill:#7e4021;"/><path d="M850.517,906.796c-16.187,-4.916 -25.338,-22.049 -20.422,-38.236c4.916,-16.187 22.049,-25.337 38.236,-20.422c16.186,4.916 25.337,22.049 20.421,38.236c-4.916,16.187 -22.048,25.337 -38.235,20.422Z" style="fill:#7e4021;"/><path d="M1067.96,758.826c-8.458,-14.651 -3.431,-33.412 11.219,-41.871c14.651,-8.458 33.412,-3.431 41.871,11.219c8.458,14.651 3.431,33.412 -11.219,41.871c-14.651,8.458 -33.412,3.431 -41.871,-11.219Z" style="fill:#7e4021;"/><path d="M444.314,1164.44c-0.558,16.908 -14.739,30.181 -31.647,29.622c-16.907,-0.559 -30.18,-14.739 -29.622,-31.647c0.559,-16.908 14.74,-30.181 31.648,-29.622c16.907,0.559 30.18,14.74 29.621,31.647Z" style="fill:#7e4021;"/><path d="M573.133,1350.88c-0.558,16.908 -14.739,30.181 -31.647,29.622c-16.907,-0.559 -30.18,-14.74 -29.622,-31.647c0.559,-16.908 14.74,-30.181 31.648,-29.622c16.907,0.559 30.18,14.74 29.621,31.647Z" style="fill:#7e4021;"/><path d="M1165.96,1067.13c-0.558,16.908 -14.739,30.181 -31.647,29.622c-16.907,-0.559 -30.18,-14.739 -29.622,-31.647c0.559,-16.907 14.74,-30.181 31.648,-29.622c16.907,0.559 30.18,14.74 29.621,31.647Z" style="fill:#7e4021;"/><path d="M1199.3,1372.37c-11.962,11.962 -31.386,11.962 -43.348,-0c-11.962,-11.962 -11.962,-31.385 0,-43.347c11.962,-11.962 31.386,-11.962 43.348,-0c11.962,11.962 11.962,31.385 -0,43.347Z" style="fill:#7e4021;"/><path d="M656.968,574.131c16.476,-3.837 32.967,6.426 36.803,22.902c3.836,16.476 -6.426,32.967 -22.902,36.803c-16.476,3.836 -32.967,-6.426 -36.803,-22.902c-3.837,-16.476 6.426,-32.967 22.902,-36.803Z" style="fill:#7e4021;"/><path d="M1153.99,383.689c14.651,8.459 19.678,27.22 11.22,41.871c-8.459,14.65 -27.22,19.677 -41.871,11.219c-14.65,-8.459 -19.677,-27.22 -11.219,-41.871c8.458,-14.65 27.22,-19.677 41.87,-11.219Z" style="fill:#7e4021;"/><path d="M666.089,1213.07c16.341,-4.378 33.162,5.334 37.54,21.674c4.379,16.341 -5.333,33.162 -21.674,37.54c-16.34,4.378 -33.161,-5.333 -37.54,-21.674c-4.378,-16.34 5.334,-33.161 21.674,-37.54Z" style="fill:#7e4021;"/><path d="M1138.12,939.955c-8.458,-14.65 -3.431,-33.412 11.22,-41.87c14.65,-8.459 33.411,-3.431 41.87,11.219c8.458,14.65 3.431,33.412 -11.219,41.87c-14.651,8.459 -33.412,3.432 -41.871,-11.219Z" style="fill:#7e4021;"/><path d="M549.108,983.82c-0.559,16.908 -14.739,30.181 -31.647,29.622c-16.908,-0.559 -30.181,-14.739 -29.622,-31.647c0.559,-16.908 14.74,-30.181 31.647,-29.622c16.908,0.559 30.181,14.74 29.622,31.647Z" style="fill:#7e4021;"/><path d="M1356.09,1257.72c-11.962,11.962 -31.385,11.962 -43.347,-0c-11.962,-11.962 -11.962,-31.386 -0,-43.348c11.962,-11.962 31.385,-11.962 43.347,0c11.962,11.962 11.962,31.386 0,43.348Z" style="fill:#7e4021;"/><path d="M1451.68,906.967c14.65,8.459 19.677,27.22 11.219,41.871c-8.459,14.65 -27.22,19.677 -41.87,11.219c-14.651,-8.459 -19.678,-27.22 -11.22,-41.87c8.459,-14.651 27.22,-19.678 41.871,-11.22Z" style="fill:#7e4021;"/><path d="M1421.89,1082.98c14.65,8.459 19.677,27.22 11.219,41.87c-8.459,14.651 -27.22,19.678 -41.87,11.22c-14.651,-8.459 -19.678,-27.22 -11.22,-41.871c8.459,-14.65 27.22,-19.677 41.871,-11.219Z" style="fill:#7e4021;"/><path d="M710.178,439.102c14.65,8.458 19.677,27.22 11.219,41.87c-8.459,14.651 -27.22,19.678 -41.87,11.219c-14.651,-8.458 -19.678,-27.22 -11.22,-41.87c8.459,-14.651 27.22,-19.678 41.871,-11.219Z" style="fill:#7e4021;"/><path d="M777.6,1307.65c16.34,-4.379 33.162,5.333 37.54,21.674c4.378,16.34 -5.333,33.161 -21.674,37.539c-16.34,4.379 -33.161,-5.333 -37.54,-21.673c-4.378,-16.341 5.334,-33.162 21.674,-37.54Z" style="fill:#7e4021;"/><path d="M1200.62,807.764c-8.459,-14.65 -3.431,-33.412 11.219,-41.87c14.65,-8.459 33.412,-3.432 41.87,11.219c8.459,14.65 3.432,33.412 -11.219,41.87c-14.65,8.459 -33.412,3.431 -41.87,-11.219Z" style="fill:#7e4021;"/><path d="M357.54,1052.8c-0.559,16.907 -14.74,30.181 -31.647,29.622c-16.908,-0.559 -30.181,-14.74 -29.622,-31.647c0.559,-16.908 14.739,-30.181 31.647,-29.622c16.907,0.559 30.181,14.739 29.622,31.647Z" style="fill:#7e4021;"/><path d="M1212.23,1231.56c-11.962,11.962 -31.385,11.962 -43.347,0c-11.962,-11.962 -11.962,-31.385 -0,-43.347c11.962,-11.962 31.385,-11.962 43.347,-0c11.962,11.962 11.962,31.385 0,43.347Z" style="fill:#7e4021;"/><path d="M571.592,686.843c16.476,-3.836 32.967,6.426 36.804,22.902c3.836,16.476 -6.426,32.967 -22.903,36.803c-16.476,3.836 -32.967,-6.426 -36.803,-22.902c-3.836,-16.476 6.426,-32.967 22.902,-36.803Z" style="fill:#7e4021;"/><path d="M1014.63,407.636c14.651,8.459 19.678,27.22 11.219,41.871c-8.458,14.65 -27.219,19.677 -41.87,11.219c-14.65,-8.459 -19.678,-27.22 -11.219,-41.871c8.458,-14.65 27.22,-19.677 41.87,-11.219Z" style="fill:#7e4021;"/><path d="M956.928,1013.31c16.341,-4.378 33.162,5.334 37.54,21.674c4.378,16.341 -5.333,33.162 -21.674,37.54c-16.34,4.378 -33.161,-5.333 -37.54,-21.674c-4.378,-16.34 5.334,-33.161 21.674,-37.54Z" style="fill:#7e4021;"/><path d="M673.041,1007.03c-16.187,-4.916 -25.337,-22.048 -20.421,-38.235c4.915,-16.187 22.048,-25.338 38.235,-20.422c16.187,4.916 25.338,22.049 20.422,38.236c-4.916,16.186 -22.049,25.337 -38.236,20.421Z" style="fill:#7e4021;"/><path d="M869.893,710.728c-8.459,-14.65 -3.432,-33.412 11.219,-41.87c14.65,-8.458 33.412,-3.431 41.87,11.219c8.458,14.651 3.431,33.412 -11.219,41.87c-14.651,8.459 -33.412,3.432 -41.87,-11.219Z" style="fill:#7e4021;"/><path d="M806.151,1502.34c-11.962,11.962 -31.386,11.962 -43.348,-0c-11.962,-11.962 -11.962,-31.386 0,-43.348c11.962,-11.962 31.386,-11.962 43.348,0c11.962,11.962 11.962,31.386 -0,43.348Z" style="fill:#7e4021;"/><path d="M1381.28,729.798c14.65,8.459 19.677,27.22 11.219,41.871c-8.459,14.65 -27.22,19.677 -41.871,11.219c-14.65,-8.459 -19.677,-27.22 -11.219,-41.87c8.459,-14.651 27.22,-19.678 41.871,-11.22Z" style="fill:#7e4021;"/><path d="M357.32,804.833c0.201,-81.195 47.088,-152.988 100.093,-210.811c6.215,-6.781 5.757,-17.332 -1.024,-23.548c-6.781,-6.216 -17.332,-5.757 -23.548,1.024c-58.464,63.778 -108.633,143.694 -108.854,233.252c-0.023,9.199 7.426,16.685 16.625,16.708c9.198,0.023 16.685,-7.427 16.708,-16.625Z" style="fill:#7e4021;"/><path d="M516.292,531.184c18.648,-26.01 64.157,-62.328 98.125,-76.321c8.506,-3.503 12.567,-13.253 9.063,-21.758c-3.503,-8.506 -13.253,-12.566 -21.758,-9.063c-38.986,16.059 -91.118,57.868 -112.52,87.72c-5.36,7.475 -3.642,17.896 3.834,23.256c7.475,5.36 17.896,3.642 23.256,-3.834Z" style="fill:#7e4021;"/></g></svg>