<?xml version="1.0" encoding="UTF-8" standalone="no"?><!DOCTYPE svg PUBLIC "-//W3C//DTD SVG 1.1//EN" "http://www.w3.org/Graphics/SVG/1.1/DTD/svg11.dtd"><svg width="100%" height="100%" viewBox="0 0 2368 2164" version="1.1" xmlns="http://www.w3.org/2000/svg" xmlns:xlink="http://www.w3.org/1999/xlink" xml:space="preserve" xmlns:serif="http://www.serif.com/" style="fill-rule:evenodd;clip-rule:evenodd;stroke-linejoin:round;stroke-miterlimit:2;"><g id="Coffee-Pod-02" serif:id="Coffee Pod-02"><ellipse cx="1184.2" cy="433.978" rx="1166.7" ry="416.983" style="fill:#fff;"/><path d="M1184.2,0.329c-301.023,-0 -575.732,40.665 -783.65,107.325c-147.37,47.247 -261.451,107.834 -328.701,175.906c-46.403,46.971 -71.017,97.8 -71.017,150.418c-0,52.619 24.614,103.449 71.018,150.42c67.25,68.072 181.33,128.658 328.7,175.905c207.918,66.66 482.627,107.325 783.65,107.325c301.024,0 575.732,-40.665 783.651,-107.325c147.37,-47.247 261.451,-107.834 328.7,-175.906c46.404,-46.971 71.018,-97.8 71.018,-150.419c0,-52.618 -24.614,-103.448 -71.018,-150.419c-67.25,-68.072 -181.33,-128.658 -328.7,-175.905c-207.919,-66.66 -482.627,-107.325 -783.651,-107.325Zm0,33.333c297.105,-0 568.263,39.942 773.474,105.733c141.102,45.238 250.775,102.415 315.164,167.591c39.35,39.831 61.398,82.373 61.398,126.992c-0,44.62 -22.048,87.162 -61.398,126.993c-64.39,65.177 -174.062,122.353 -315.164,167.59c-205.211,65.792 -476.369,105.734 -773.474,105.734c-297.104,-0 -568.262,-39.942 -773.474,-105.734c-141.101,-45.237 -250.774,-102.414 -315.163,-167.59c-39.35,-39.831 -61.398,-82.373 -61.398,-126.993c0,-44.62 22.048,-87.161 61.398,-126.992c64.389,-65.177 174.062,-122.353 315.163,-167.591c205.212,-65.791 476.37,-105.733 773.474,-105.733Z" style="fill:#7e4021;"/><ellipse cx="1184.2" cy="506.263" rx="1166.7" ry="416.983" style="fill:#ffdab8;"/><path d="M1184.2,72.614c-301.023,-0 -575.732,40.665 -783.65,107.325c-147.37,47.247 -261.451,107.834 -328.701,175.906c-46.403,46.971 -71.017,97.8 -71.017,150.418c-0,52.619 24.614,103.449 71.018,150.42c67.25,68.072 181.33,128.658 328.7,175.905c207.918,66.66 482.627,107.325 783.65,107.325c301.024,0 575.732,-40.665 783.651,-107.325c147.37,-47.247 261.451,-107.834 328.7,-175.906c46.404,-46.971 71.018,-97.8 71.018,-150.419c0,-52.618 -24.614,-103.448 -71.018,-150.419c-67.25,-68.072 -181.33,-128.658 -328.7,-175.905c-207.919,-66.66 -482.627,-107.325 -783.651,-107.325Zm0,33.333c297.105,-0 568.263,39.942 773.474,105.733c141.102,45.238 250.775,102.415 315.164,167.591c39.35,39.831 61.398,82.373 61.398,126.992c-0,44.621 -22.048,87.162 -61.398,126.993c-64.39,65.177 -174.062,122.353 -315.164,167.59c-205.211,65.792 -476.369,105.734 -773.474,105.734c-297.104,0 -568.262,-39.942 -773.474,-105.734c-141.101,-45.237 -250.774,-102.414 -315.163,-167.59c-39.35,-39.831 -61.398,-82.373 -61.398,-126.993c0,-44.62 22.048,-87.161 61.398,-126.992c64.389,-65.177 174.062,-122.353 315.163,-167.591c205.212,-65.791 476.37,-105.733 773.474,-105.733Z" style="fill:#7e4021;"/><path d="M1199.4,263.47c528.47,0 957.52,153.344 957.52,342.221c0,66.221 -76.299,989.837 -144.012,1070.41c-76.684,91.25 -236.716,271.228 -514.229,337.34c-66.422,15.824 -44.378,77.826 -53.118,111.718c-5.738,22.247 -445.922,37.182 -441.496,-7.96c5.793,-59.081 -19.368,-87.886 -44.228,-92.543c-267.899,-50.184 -443.057,-220.253 -536.475,-328.629c-83.118,-96.428 -181.483,-1015.52 -181.483,-1090.34c0,-188.877 429.051,-342.221 957.521,-342.221Z" style="fill:#d8bef1;"/><path d="M1199.4,246.804c-247.404,-0 -473.177,33.439 -644.06,88.225c-121.51,38.956 -215.532,88.986 -270.98,145.113c-38.716,39.189 -59.148,81.648 -59.148,125.549c0,49.474 42.746,466.764 95.842,773.409c18.675,107.853 38.672,202.081 58.464,262.123c10.346,31.385 21.116,53.964 31.22,65.686c53.841,62.463 134.455,145.074 243.822,214.183c83.659,52.865 184.098,97.822 302.208,119.946c10.574,1.981 20.511,10.975 26.26,26.505c4.541,12.265 6.396,28.186 4.45,48.031c-0.902,9.2 3.252,19.143 16.322,26.36c18.884,10.428 67.881,17.269 127.392,19.808c99.594,4.248 229.679,-1.419 287.485,-10.692c16.956,-2.72 28.629,-6.363 33.631,-9.497c5.94,-3.722 8.407,-8.413 9.391,-12.231c2.674,-10.368 2.977,-23.069 3.228,-36.44c0.262,-13.913 0.248,-28.824 6.185,-41.314c4.814,-10.127 14.288,-17.829 31.43,-21.913c116.333,-27.714 212.41,-75.058 290.647,-127.671c111.498,-74.981 186.667,-160.645 232.478,-215.159c8.787,-10.456 18.381,-33.417 27.278,-66.421c15.833,-58.732 31.643,-151.548 46.307,-257.854c41.658,-302.015 74.335,-713.413 74.335,-756.859c0,-43.901 -20.431,-86.36 -59.148,-125.55c-55.448,-56.127 -149.47,-106.156 -270.979,-145.112c-170.883,-54.786 -396.657,-88.225 -644.06,-88.225Zm231.253,1867.6c-3.407,0.932 -8.481,2.225 -13.046,3.028c-46.202,8.123 -149.049,13.507 -240.309,12.236c-25.14,-0.35 -49.403,-1.209 -71.362,-2.667c-25.907,-1.72 -48.54,-4.249 -65.44,-7.817c-8.262,-1.744 -14.928,-3.487 -19.391,-5.762c2.156,-30.47 -3.462,-53.499 -12.482,-69.912c-11.536,-20.989 -28.852,-32.075 -45.717,-35.234c-113.556,-21.272 -210.106,-64.535 -290.54,-115.362c-106.056,-67.017 -184.169,-147.195 -236.379,-207.767c-8.302,-9.631 -16.311,-28.573 -24.811,-54.358c-19.432,-58.948 -38.942,-151.487 -57.277,-257.375c-52.708,-304.401 -95.353,-718.61 -95.353,-767.722c-0,-35.903 17.864,-70.073 49.527,-102.123c52.589,-53.232 142.202,-99.851 257.443,-136.797c168.176,-53.918 390.4,-86.634 633.884,-86.634c243.484,-0 465.707,32.716 633.883,86.634c115.241,36.947 204.856,83.566 257.444,136.797c31.662,32.05 49.527,66.22 49.527,102.123c-0,43.185 -32.614,452.101 -74.023,752.304c-14.428,104.601 -29.891,195.943 -45.47,253.733c-7.121,26.418 -13.579,45.282 -20.612,53.652c-44.467,52.913 -117.337,136.164 -225.561,208.943c-75.311,50.645 -167.79,96.229 -279.771,122.906c-30.005,7.148 -45.384,22.302 -53.81,40.029c-6.741,14.18 -8.655,30.513 -9.199,46.554c-0.367,10.835 0.034,21.471 -1.155,30.591Z" style="fill:#7e4021;"/><path d="M325.404,705.919c-0.793,83.165 18.241,175.586 32.27,257.205c1.558,9.066 10.183,15.161 19.249,13.603c9.065,-1.558 15.16,-10.183 13.602,-19.249c-13.705,-79.738 -32.564,-169.994 -31.789,-251.241c0.087,-9.198 -7.309,-16.737 -16.507,-16.825c-9.198,-0.088 -16.737,7.309 -16.825,16.507Z" style="fill:#7e4021;"/><path d="M367.709,1046.66c6.347,43.403 16.968,108.669 21.682,131.06c1.895,9.001 10.741,14.77 19.742,12.875c9.002,-1.895 14.771,-10.741 12.876,-19.742c-4.64,-22.041 -15.069,-86.292 -21.317,-129.016c-1.332,-9.102 -9.802,-15.411 -18.903,-14.08c-9.102,1.332 -15.411,9.802 -14.08,18.903Z" style="fill:#7e4021;"/><path d="M1080.43,2047.49c25.488,2.255 51.337,4.072 77.203,4.842c71.499,2.13 146.86,2.788 217.291,-4.448c9.151,-0.94 15.817,-9.132 14.876,-18.283c-0.94,-9.15 -9.132,-15.816 -18.282,-14.876c-69.005,7.09 -142.842,6.376 -212.893,4.289c-25.213,-0.751 -50.411,-2.529 -75.256,-4.728c-9.163,-0.811 -17.26,5.97 -18.071,15.133c-0.811,9.162 5.97,17.26 15.132,18.071Z" style="fill:#7e4021;"/><path d="M539.23,1624.41c89.93,-36.215 202.502,-65.034 329.731,-83.734c105.268,-15.471 220.535,-23.999 341.335,-23.999c124.689,0 243.483,9.085 351.469,25.515c132.022,20.086 247.83,51.119 338.321,90.006c8.451,3.632 18.261,-0.28 21.893,-8.732c3.631,-8.451 -0.281,-18.261 -8.733,-21.893c-92.68,-39.828 -211.251,-71.763 -346.467,-92.335c-109.527,-16.664 -230.015,-25.894 -356.483,-25.894c-122.516,0 -239.419,8.662 -346.182,24.353c-130.175,19.133 -245.323,48.739 -337.336,85.793c-8.533,3.436 -12.67,13.153 -9.234,21.686c3.436,8.532 13.153,12.67 21.686,9.234Z" style="fill:#7e4021;"/></g></svg>