<?xml version="1.0" encoding="UTF-8" standalone="no"?><!DOCTYPE svg PUBLIC "-//W3C//DTD SVG 1.1//EN" "http://www.w3.org/Graphics/SVG/1.1/DTD/svg11.dtd"><svg width="100%" height="100%" viewBox="0 0 4217 4932" version="1.1" xmlns="http://www.w3.org/2000/svg" xmlns:xlink="http://www.w3.org/1999/xlink" xml:space="preserve" xmlns:serif="http://www.serif.com/" style="fill-rule:evenodd;clip-rule:evenodd;stroke-linejoin:round;stroke-miterlimit:2;"><g id="Coffee-Machine" serif:id="Coffee Machine"><path d="M1568.1,3100.14c-200.596,23.711 -1141.96,703.087 -1427.56,870.287c-122.66,71.811 -112.964,168.109 -121.466,302.916c-8.406,133.295 14.214,255.222 114.247,301.567c332.187,153.901 2334.32,377.53 2630.43,335.12c292.275,-41.863 1281.72,-840.404 1383.58,-1015.99c75.259,-129.727 82.92,-478.018 -61.89,-566.828c-118.26,-72.526 -2360.34,-245.631 -2517.34,-227.073Z" style="fill:#fff;"/><path d="M1566.14,3083.59c-61.275,7.243 -190.813,73.795 -349.464,169.103c-363.506,218.371 -884.671,586.33 -1084.56,703.353c-128.464,75.209 -120.774,175.064 -129.678,316.25c-4.346,68.899 -0.454,134.839 17.233,189.564c18.597,57.543 52.272,102.986 106.641,128.175c133.524,61.861 535.46,135.359 988.86,198.048c678.69,93.839 1472.78,163.965 1650.94,138.447c118.281,-16.941 349.9,-155.499 591.277,-328.085c360.229,-257.566 742.834,-589.992 804.354,-696.038c46.532,-80.21 68.668,-241.419 46.155,-377.386c-15.45,-93.304 -52.307,-174.333 -113.748,-212.013c-7.923,-4.859 -24.257,-10.504 -48.24,-16.101c-50.458,-11.776 -137.839,-25.228 -250.526,-39.474c-640.702,-81.001 -2103.42,-188.716 -2229.24,-173.843l0,0Zm3.913,33.103c125.374,-14.819 1582.76,93.102 2221.15,173.81c111.155,14.053 197.359,27.249 247.131,38.865c18.975,4.429 32.121,8.211 38.39,12.055c54.41,33.369 84.607,106.416 98.288,189.043c21.182,127.922 1.677,279.751 -42.101,355.214c-60.714,104.656 -439.401,431.459 -794.909,685.65c-235.783,168.586 -461.076,305.655 -576.616,322.203c-177.165,25.375 -966.748,-45.155 -1641.64,-138.469c-448.992,-62.08 -847.188,-134.015 -979.414,-195.274c-45.665,-21.157 -73.315,-59.849 -88.935,-108.181c-16.531,-51.148 -19.745,-112.818 -15.684,-177.215c8.1,-128.437 -3.612,-221.164 113.252,-289.582c199.944,-117.057 721.268,-485.111 1084.88,-703.546c152.972,-91.895 277.13,-157.589 336.212,-164.573l0,-0Z" style="fill:#7e4021;"/><path d="M1568.1,3100.14c-200.596,23.711 -1141.96,703.087 -1427.56,870.287c-122.66,71.811 2370.34,413.229 2573.13,375.58c238.55,-44.289 1425.38,-962.059 1414.43,-976.839c-12.41,-16.747 -12.463,-26.482 -50.911,-46.938c-111.139,-59.131 -2352.09,-240.648 -2509.09,-222.09Z" style="fill:#edaf5f;"/><path d="M1566.14,3083.59c-61.275,7.243 -190.813,73.795 -349.464,169.103c-363.506,218.371 -884.671,586.33 -1084.56,703.353c-7.525,4.405 -10.809,10.026 -12.035,15.077c-1.494,6.15 -0.586,13.093 5.296,19.99c5.674,6.655 21.245,15.488 46.57,24.082c221.791,75.26 1288.51,232.157 1971.32,307.741c294.589,32.61 518.221,49.712 573.439,39.46c65.434,-12.149 201.439,-88.348 364.418,-194.354c374.976,-243.893 896.587,-644.383 1027.31,-756.473c15.912,-13.644 26.312,-23.357 30.494,-28.27c2.672,-3.139 4.021,-5.737 4.649,-7.34c3.021,-7.715 0.487,-13.221 -2.1,-16.712c-13.724,-18.521 -13.951,-29.105 -56.472,-51.728c-22.689,-12.072 -132.197,-29.988 -294.397,-49.42c-636.73,-76.285 -2098.65,-189.381 -2224.47,-174.509l0,0Zm2541.01,284.226c-4.955,4.706 -12.254,11.46 -20.404,18.449c-130.275,111.703 -650.107,510.783 -1023.79,753.834c-157.874,102.685 -288.945,177.756 -352.328,189.523c-54.286,10.079 -274.071,-7.757 -563.688,-39.817c-680.342,-75.311 -1743.29,-231.187 -1964.28,-306.176c-7.519,-2.551 -13.993,-4.986 -19.355,-7.325c209.599,-125.473 715.322,-481.649 1070.53,-695.038c152.972,-91.895 277.13,-157.589 336.212,-164.573l0,-0c125.38,-14.82 1582.11,98.487 2216.6,174.502c110.603,13.251 196.125,25.349 245.063,35.463c18.816,3.889 31.694,7.123 37.642,10.288c24.935,13.267 31.718,21.585 37.792,30.87Z" style="fill:#7e4021;"/><path d="M815.949,3730.87c-27.067,11.809 -51.563,28.775 -77.615,42.692c-30.617,16.355 -263.989,156.744 -229.715,190.56c23.743,23.426 103.545,-27.116 195.894,-89.38c66.878,-45.091 163.428,-98.948 163.837,-129.005c0.241,-17.704 -16.663,-30.459 -52.401,-14.867Z" style="fill:#c48464;"/><path d="M809.284,3715.6c-27.469,11.985 -52.363,29.143 -78.803,43.267c-25.092,13.404 -182.841,108.504 -227.069,163.594c-8.982,11.188 -13.762,21.545 -14.684,29.766c-1.052,9.387 1.672,17.339 8.186,23.765c10.471,10.332 28.056,13.719 51.635,6.948c38.472,-11.048 98.826,-49.567 165.282,-94.373c47.413,-31.967 109.479,-68.392 142.638,-97.747c9.889,-8.756 17.419,-17.101 22.002,-24.565c4.441,-7.235 6.46,-14.125 6.544,-20.286c0.217,-15.928 -7.614,-29.415 -23.203,-35.628c-11.429,-4.555 -28.952,-5.027 -52.527,5.259l-0.001,0Zm-286.285,237.809c0.94,-1.955 2.369,-4.688 3.885,-6.783c5.083,-7.023 12.603,-14.84 21.716,-23.197c57.775,-52.978 176.522,-123.908 197.587,-135.161c25.665,-13.71 49.763,-30.482 76.427,-42.116c5.792,-2.527 10.958,-4.183 15.54,-5.024c8.188,-1.503 13.601,-0.739 13.531,4.388c-0.024,1.74 -1.551,3.36 -3.08,5.47c-3.367,4.647 -8.271,9.599 -14.232,14.876c-32.32,28.613 -92.962,63.907 -139.177,95.067c-54.324,36.627 -104.143,69.244 -140.396,84.415c-10.396,4.35 -19.434,7.232 -26.929,7.851c-1.809,0.15 -3.468,0.369 -4.872,0.214Z" style="fill:#7e4021;"/><path d="M1123.86,3788.04c-27.067,11.81 -51.563,28.775 -77.616,42.692c-30.617,16.355 -263.989,156.744 -229.714,190.561c23.742,23.425 103.544,-27.116 195.894,-89.381c66.877,-45.09 163.428,-98.948 163.836,-129.005c0.241,-17.704 -16.663,-30.459 -52.4,-14.867Z" style="fill:#c48464;"/><path d="M1117.19,3772.76c-27.47,11.985 -52.363,29.143 -78.804,43.267c-25.091,13.404 -182.84,108.504 -227.068,163.594c-8.983,11.189 -13.762,21.545 -14.684,29.766c-1.053,9.387 1.671,17.339 8.185,23.766c10.471,10.331 28.057,13.718 51.635,6.947c38.472,-11.048 98.826,-49.567 165.282,-94.373c47.413,-31.967 109.48,-68.392 142.638,-97.747c9.89,-8.755 17.42,-17.101 22.002,-24.565c4.442,-7.235 6.461,-14.125 6.545,-20.285c0.216,-15.929 -7.614,-29.415 -23.203,-35.628c-11.43,-4.556 -28.953,-5.027 -52.528,5.258l-0,0Zm-286.286,237.809c0.941,-1.954 2.369,-4.688 3.885,-6.783c5.083,-7.022 12.603,-14.84 21.716,-23.196c57.776,-52.979 176.523,-123.909 197.587,-135.162c25.665,-13.709 49.763,-30.482 76.427,-42.115c5.793,-2.527 10.959,-4.184 15.541,-5.025c8.188,-1.502 13.6,-0.739 13.53,4.388c-0.023,1.74 -1.551,3.36 -3.08,5.47c-3.367,4.647 -8.271,9.599 -14.232,14.876c-32.32,28.614 -92.961,63.908 -139.177,95.067c-54.324,36.627 -104.143,69.244 -140.395,84.415c-10.397,4.35 -19.435,7.232 -26.93,7.852c-1.809,0.149 -3.468,0.368 -4.872,0.213Z" style="fill:#7e4021;"/><path d="M1444.63,3827.56c-27.067,11.81 -51.563,28.775 -77.616,42.692c-30.617,16.355 -263.989,156.744 -229.714,190.561c23.742,23.425 103.544,-27.116 195.894,-89.381c66.877,-45.09 163.428,-98.948 163.836,-129.005c0.241,-17.704 -16.662,-30.459 -52.4,-14.867Z" style="fill:#c48464;"/><path d="M1437.97,3812.28c-27.47,11.985 -52.363,29.143 -78.804,43.267c-25.091,13.404 -182.84,108.504 -227.068,163.594c-8.983,11.189 -13.762,21.545 -14.684,29.766c-1.053,9.387 1.671,17.339 8.185,23.766c10.471,10.331 28.057,13.718 51.635,6.947c38.472,-11.048 98.826,-49.567 165.282,-94.373c47.413,-31.967 109.48,-68.392 142.638,-97.747c9.89,-8.756 17.42,-17.101 22.002,-24.565c4.442,-7.235 6.461,-14.125 6.545,-20.285c0.216,-15.929 -7.614,-29.416 -23.203,-35.629c-11.43,-4.555 -28.953,-5.026 -52.528,5.259l-0,0Zm-286.286,237.809c0.941,-1.954 2.369,-4.688 3.885,-6.783c5.083,-7.022 12.604,-14.84 21.716,-23.197c57.776,-52.978 176.523,-123.908 197.587,-135.161c25.665,-13.709 49.763,-30.482 76.428,-42.116c5.792,-2.527 10.958,-4.183 15.54,-5.024c8.188,-1.502 13.6,-0.739 13.53,4.388c-0.023,1.74 -1.551,3.36 -3.08,5.47c-3.367,4.647 -8.271,9.599 -14.231,14.876c-32.321,28.613 -92.962,63.908 -139.177,95.067c-54.325,36.627 -104.144,69.244 -140.396,84.415c-10.397,4.35 -19.435,7.232 -26.929,7.852c-1.81,0.149 -3.469,0.368 -4.873,0.213Z" style="fill:#7e4021;"/><path d="M1758.71,3862.23c-27.067,11.809 -51.563,28.775 -77.615,42.691c-30.618,16.356 -263.989,156.745 -229.715,190.561c23.743,23.426 103.545,-27.116 195.894,-89.38c66.878,-45.091 163.428,-98.949 163.837,-129.005c0.241,-17.704 -16.663,-30.459 -52.401,-14.867Z" style="fill:#c48464;"/><path d="M1752.04,3846.95c-27.469,11.985 -52.363,29.143 -78.803,43.267c-25.092,13.403 -182.841,108.504 -227.069,163.593c-8.982,11.189 -13.762,21.546 -14.684,29.767c-1.052,9.387 1.672,17.339 8.186,23.765c10.471,10.332 28.056,13.719 51.635,6.948c38.472,-11.048 98.826,-49.567 165.281,-94.373c47.414,-31.967 109.48,-68.392 142.639,-97.747c9.889,-8.756 17.419,-17.101 22.002,-24.565c4.441,-7.235 6.46,-14.125 6.544,-20.286c0.217,-15.928 -7.614,-29.415 -23.203,-35.628c-11.429,-4.555 -28.952,-5.027 -52.528,5.259l0,0Zm-286.285,237.809c0.94,-1.955 2.369,-4.688 3.885,-6.783c5.083,-7.023 12.603,-14.84 21.716,-23.197c57.775,-52.978 176.522,-123.909 197.587,-135.161c25.665,-13.71 49.763,-30.482 76.427,-42.116l0,0c5.792,-2.527 10.958,-4.183 15.54,-5.024c8.188,-1.503 13.601,-0.739 13.531,4.388c-0.024,1.74 -1.551,3.36 -3.08,5.47c-3.367,4.647 -8.271,9.599 -14.232,14.876c-32.32,28.613 -92.962,63.907 -139.177,95.067c-54.324,36.627 -104.143,69.244 -140.396,84.414c-10.396,4.351 -19.434,7.233 -26.929,7.852c-1.809,0.15 -3.468,0.369 -4.872,0.214Z" style="fill:#7e4021;"/><path d="M2080.44,3910.69c-27.067,11.809 -51.563,28.774 -77.616,42.691c-30.617,16.355 -263.989,156.744 -229.714,190.561c23.742,23.425 103.544,-27.116 195.894,-89.381c66.877,-45.09 163.428,-98.948 163.836,-129.005c0.241,-17.703 -16.662,-30.459 -52.4,-14.866Z" style="fill:#c48464;"/><path d="M2073.77,3895.42c-27.47,11.985 -52.363,29.142 -78.804,43.266c-25.091,13.404 -182.84,108.505 -227.068,163.594c-8.983,11.189 -13.762,21.545 -14.684,29.766c-1.053,9.387 1.671,17.339 8.185,23.766c10.471,10.331 28.057,13.718 51.635,6.947c38.472,-11.048 98.826,-49.566 165.282,-94.373c47.413,-31.967 109.48,-68.391 142.638,-97.747c9.89,-8.755 17.42,-17.1 22.002,-24.565c4.442,-7.235 6.461,-14.125 6.545,-20.285c0.216,-15.929 -7.614,-29.415 -23.203,-35.628c-11.43,-4.556 -28.953,-5.027 -52.528,5.259l-0,-0Zm-286.286,237.808c0.941,-1.954 2.369,-4.688 3.885,-6.783c5.083,-7.022 12.604,-14.84 21.716,-23.196c57.776,-52.979 176.523,-123.909 197.587,-135.161c25.665,-13.71 49.763,-30.483 76.428,-42.116l-0,-0c5.792,-2.527 10.958,-4.183 15.54,-5.024c8.188,-1.503 13.6,-0.74 13.53,4.387c-0.023,1.74 -1.551,3.36 -3.08,5.47c-3.367,4.648 -8.271,9.599 -14.231,14.876c-32.321,28.614 -92.962,63.908 -139.177,95.067c-54.325,36.627 -104.144,69.245 -140.396,84.415c-10.397,4.35 -19.435,7.232 -26.929,7.852c-1.81,0.149 -3.469,0.369 -4.873,0.213Z" style="fill:#7e4021;"/><path d="M2427.53,3950.33c-27.067,11.81 -51.563,28.775 -77.615,42.692c-30.618,16.355 -263.99,156.744 -229.715,190.561c23.743,23.425 103.544,-27.116 195.894,-89.381c66.877,-45.09 163.428,-98.948 163.837,-129.005c0.241,-17.704 -16.663,-30.459 -52.401,-14.867Z" style="fill:#c48464;"/><path d="M2420.86,3935.05c-27.47,11.985 -52.363,29.143 -78.803,43.267c-25.092,13.404 -182.841,108.504 -227.069,163.594c-8.983,11.189 -13.762,21.545 -14.684,29.766c-1.052,9.387 1.672,17.339 8.185,23.766c10.472,10.331 28.057,13.718 51.636,6.947c38.472,-11.048 98.826,-49.567 165.281,-94.373c47.414,-31.967 109.48,-68.392 142.638,-97.747c9.89,-8.756 17.42,-17.101 22.002,-24.565c4.442,-7.235 6.461,-14.125 6.545,-20.285c0.217,-15.929 -7.614,-29.416 -23.203,-35.629c-11.43,-4.555 -28.953,-5.026 -52.528,5.259l0,0Zm-286.286,237.809c0.941,-1.954 2.369,-4.688 3.886,-6.783c5.082,-7.022 12.603,-14.84 21.716,-23.196c57.775,-52.979 176.522,-123.909 197.586,-135.162c25.665,-13.709 49.764,-30.482 76.428,-42.116l-0,0c5.792,-2.527 10.958,-4.183 15.54,-5.024c8.188,-1.502 13.6,-0.739 13.531,4.388c-0.024,1.74 -1.551,3.36 -3.081,5.47c-3.367,4.647 -8.271,9.599 -14.231,14.876c-32.321,28.613 -92.962,63.908 -139.177,95.067c-54.325,36.627 -104.143,69.244 -140.396,84.415c-10.396,4.35 -19.435,7.232 -26.929,7.852c-1.81,0.149 -3.469,0.368 -4.873,0.213Z" style="fill:#7e4021;"/><path d="M2800.06,3984.89c-27.067,11.809 -51.563,28.774 -77.615,42.691c-30.618,16.356 -263.99,156.744 -229.715,190.561c23.743,23.425 103.545,-27.116 195.894,-89.38c66.878,-45.091 163.428,-98.949 163.837,-129.006c0.241,-17.703 -16.663,-30.458 -52.401,-14.866Z" style="fill:#c48464;"/><path d="M2793.4,3969.61c-27.47,11.985 -52.363,29.142 -78.803,43.266c-25.092,13.404 -182.841,108.505 -227.069,163.594c-8.983,11.189 -13.762,21.545 -14.684,29.767c-1.052,9.386 1.672,17.338 8.185,23.765c10.472,10.331 28.057,13.719 51.636,6.947c38.472,-11.048 98.826,-49.566 165.281,-94.372c47.414,-31.968 109.48,-68.392 142.638,-97.748c9.89,-8.755 17.42,-17.1 22.002,-24.565c4.442,-7.235 6.461,-14.124 6.545,-20.285c0.217,-15.929 -7.614,-29.415 -23.203,-35.628c-11.43,-4.556 -28.953,-5.027 -52.528,5.259l0,-0Zm-286.285,237.808c0.94,-1.954 2.368,-4.688 3.885,-6.783c5.082,-7.022 12.603,-14.84 21.716,-23.196c57.775,-52.979 176.522,-123.909 197.587,-135.161c25.664,-13.71 49.763,-30.483 76.427,-42.116c5.792,-2.527 10.958,-4.183 15.54,-5.024c8.188,-1.503 13.6,-0.74 13.531,4.388c-0.024,1.739 -1.551,3.359 -3.08,5.47c-3.368,4.647 -8.272,9.598 -14.232,14.875c-32.32,28.614 -92.962,63.908 -139.177,95.067c-54.324,36.627 -104.143,69.245 -140.396,84.415c-10.396,4.351 -19.435,7.233 -26.929,7.852c-1.809,0.15 -3.468,0.369 -4.872,0.213Z" style="fill:#7e4021;"/><path d="M3967.06,1414.15c10.56,248.362 101.808,1688.88 12.021,1883.41c-35.779,77.522 -720.355,514.936 -805.405,525.863c-253.55,32.575 -2380.16,-258.56 -2387.2,-275.788c-60.913,-148.898 -106.401,-1730.98 -97.755,-1735.59c169.525,-90.413 1225.94,-176.39 1449.13,-210.728c598.171,-92.026 1234.02,-93.189 1829.21,-187.166Z" style="fill:#ffe6d8;"/><path d="M3983.71,1413.44c-0.202,-4.747 -2.42,-9.182 -6.096,-12.19c-3.677,-3.009 -8.463,-4.306 -13.155,-3.565c-595.171,93.974 -1231,95.133 -1829.15,187.156c-156.233,24.036 -720.736,73.375 -1103.52,131.826c-166.64,25.446 -299.257,53.118 -350.916,80.669c-1.942,1.036 -7.007,3.817 -8.707,11.873c-0.735,3.482 -1.299,20.478 -1.124,48.633c1.292,209.007 28.675,1080.36 67.669,1489.22c9.97,104.536 21.11,179.443 32.334,206.88c0.901,2.203 3.01,6.523 9.281,9.419c4.726,2.183 27.397,7.13 65.078,13.493c352.664,59.554 2101.72,292.475 2330.39,263.097c18.687,-2.401 65.342,-23.821 127.261,-57.961c138.519,-76.373 358.304,-215.688 512.016,-325.148c66.496,-47.352 120.703,-89.219 150.994,-118.124c14.916,-14.234 24.396,-26.059 28.143,-34.177c27.356,-59.272 39.09,-232.351 40.529,-452.543c3.306,-506.171 -43.635,-1264.61 -51.031,-1438.56Zm-32.467,20.047c9.529,203.788 53.361,929.027 50.165,1418.3c-1.394,213.423 -10.946,381.341 -37.461,438.792c-2.695,5.838 -10.163,13.793 -20.89,24.029c-29.538,28.187 -82.475,68.913 -147.317,115.088c-152.742,108.769 -371.13,247.218 -508.775,323.109c-56.439,31.118 -98.381,51.902 -115.415,54.09c-227.719,29.256 -1969.4,-203.597 -2320.6,-262.903c-23.778,-4.016 -42.925,-7.947 -51.606,-9.795c-15.201,-47.712 -28.907,-185.143 -41.456,-362.522c-31.324,-442.743 -52.389,-1131.49 -53.518,-1314.04c-0.088,-14.187 0.129,-27.265 0.307,-34.894c54.942,-25.276 178.777,-49.705 332.14,-73.124c382.8,-58.453 947.323,-107.794 1103.56,-131.831c592.027,-91.081 1220.96,-93.162 1810.86,-184.3Z" style="fill:#7e4021;"/><path d="M1418.52,23.337c-200.596,28.375 -845.156,240.976 -993.148,279.199c-409.885,105.865 -382.663,234.765 -391.239,662.445c-7.307,364.408 -20.284,641.223 167.267,745.207c332.186,184.174 2244.55,333.61 2593.7,264.573c341.77,-67.579 1250.37,-482.59 1352.23,-692.714c75.259,-155.246 78.295,-1001.77 -61.89,-1116.59c-90.653,-74.249 -614.848,-76.342 -1148.37,-99.078c-658.32,-28.053 -1361.55,-65.247 -1518.55,-43.039Z" style="fill:#fff;"/><path d="M1416.18,6.835c-200.958,28.426 -846.722,241.272 -994.981,279.564c-168.845,43.609 -265.153,92.04 -321.12,161.415c-42.608,52.815 -62.398,117.996 -71.699,203.682c-8.939,82.354 -8.33,184.243 -10.915,313.151c-4.421,220.493 -10.57,409.17 25.807,547.495c25.321,96.284 71.051,168.827 150.041,212.622c100.556,55.751 344.482,108.894 646.4,153.33c700.186,103.053 1713.51,161.483 1958.61,113.017c240.436,-47.542 760.084,-266.001 1085.3,-465.336c142.299,-87.219 247.342,-171.778 278.696,-236.458c16.303,-33.629 29.718,-98.618 38.772,-181.545c20.604,-188.738 20.152,-472.281 -9.745,-682.191c-11.132,-78.16 -26.403,-146.222 -46.015,-195.775c-14.105,-35.64 -30.829,-62.086 -49.338,-77.246c-28.479,-23.325 -97.469,-41.142 -195.672,-53.49c-219.132,-27.555 -588.552,-33.408 -962.553,-49.345c-659.637,-28.109 -1364.28,-65.143 -1521.59,-42.89l-0.001,-0Zm4.669,33.004c156.687,-22.164 858.501,15.192 1515.51,43.189c372.935,15.892 741.306,21.639 959.813,49.115c89.361,11.236 152.795,24.98 178.709,46.205c15.137,12.397 27.931,34.579 39.466,63.725c18.849,47.625 33.309,113.089 44.008,188.208c29.533,207.35 29.963,487.437 9.609,673.874c-8.5,77.862 -20.323,139.046 -35.629,170.621c-29.763,61.396 -131.048,139.789 -266.121,222.579c-321.981,197.351 -836.305,413.987 -1074.35,461.056c-243.696,48.187 -1251.13,-10.835 -1947.29,-113.295c-296.516,-43.642 -536.334,-94.751 -635.091,-149.504c-89.432,-49.584 -129.913,-141.021 -148.306,-262.856c-19.171,-126.986 -14.01,-286.331 -10.378,-467.441c2.56,-127.7 1.871,-228.639 10.727,-310.222c8.494,-78.252 25.592,-138.117 64.503,-186.35c52.725,-65.356 144.449,-108.987 303.513,-150.07c147.724,-38.153 791.08,-250.51 991.314,-278.834l0,0Z" style="fill:#7e4021;"/><path d="M193.313,597.344c88.013,48.797 285.686,95.655 535.997,136.278c578.986,93.963 1441.42,156.805 1866.15,146.437c9.196,-0.225 16.48,-7.873 16.255,-17.069c-0.224,-9.195 -7.872,-16.479 -17.068,-16.255c-423.336,10.335 -1282.92,-52.362 -1860,-146.016c-245.146,-39.785 -438.977,-84.737 -525.174,-132.527c-8.045,-4.46 -18.197,-1.55 -22.657,6.495c-4.461,8.045 -1.551,18.197 6.494,22.657Z" style="fill:#7e4021;"/><path d="M1615.88,2596.13c-3.02,29.479 -0.029,74.254 8.176,91.389c10.853,22.664 115.126,28.12 135.82,3.279c19.631,-23.565 20.239,-98.26 20.239,-98.26c0,0 -134.783,6.871 -164.235,3.592Z" style="fill:#fee4a8;"/><path d="M1617.72,2579.57c-4.418,-0.492 -8.85,0.802 -12.31,3.593c-3.46,2.792 -5.661,6.85 -6.114,11.273c-3.316,32.37 0.714,81.469 9.724,100.285c2.481,5.18 7.102,10.312 14.125,14.505c10.082,6.02 26.685,10.714 45.478,12.946c26.439,3.141 57.248,1.684 78.044,-4.945c11.691,-3.726 20.64,-9.31 26.011,-15.757c7.219,-8.666 12.834,-22.764 16.466,-38.547c7.286,-31.668 7.634,-70.245 7.634,-70.245c0.037,-4.591 -1.821,-8.994 -5.136,-12.17c-3.315,-3.176 -7.794,-4.844 -12.379,-4.611c0,0 -132.573,6.898 -161.543,3.673Zm20.996,99.937c-5.781,-13.042 -8.073,-41.677 -7.279,-65.973l-0,0c34.736,0.57 99.653,-2.07 131.274,-3.491c-0.602,9.344 -1.696,21.334 -3.676,33.263c-2.404,14.486 -5.554,29.129 -11.968,36.829c-3.177,3.814 -9.874,5.518 -17.645,7.215c-16.609,3.627 -38.075,3.954 -56.866,1.722c-9.997,-1.188 -19.221,-3.084 -26.402,-5.747c-2.892,-1.073 -6.529,-3.258 -7.438,-3.818Z" style="fill:#7e4021;"/><path d="M1367.5,2579.51c-5.438,29.129 -6.215,73.524 0.061,92.116c10.031,29.718 130.803,42.87 140.263,15.741c15.799,-45.307 7.107,-98.938 7.107,-98.938c0,0 -118.349,-3.225 -147.431,-8.919Z" style="fill:#fee4a8;"/><path d="M1370.71,2563.16c-4.363,-0.855 -8.886,0.07 -12.564,2.567c-3.678,2.497 -6.206,6.36 -7.022,10.73c-5.934,31.783 -6.195,80.22 0.652,100.505c2.872,8.509 10.552,17.064 22.778,23.645c19.765,10.638 53.213,17.564 82.362,18.167c21.09,0.436 39.959,-2.706 51.002,-8.668c8.197,-4.425 13.299,-10.502 15.65,-17.245c17.103,-49.045 7.822,-107.092 7.822,-107.092c-1.28,-7.901 -7.997,-13.776 -15.998,-13.994c0,-0 -116.144,-3.028 -144.682,-8.615Zm121.889,117.221c-1.141,0.558 -4.04,1.917 -6.299,2.516c-7.767,2.061 -17.849,2.775 -28.695,2.551c-20.648,-0.427 -43.972,-4.37 -60.495,-11.058c-4.512,-1.827 -8.452,-3.81 -11.444,-6.084c-0.96,-0.73 -2.019,-1.151 -2.307,-2.005c-4.667,-13.825 -4.65,-43.349 -1.783,-68.129l0,-0c32.918,3.3 91.356,5.548 118.415,6.463c1.349,17.206 1.888,48.012 -7.392,75.746Z" style="fill:#7e4021;"/><path d="M2156.26,1984.71c-2.795,54.351 1.392,131.614 -63.884,210.53c-34.379,41.563 -113.563,44.993 -132.891,72.052c-2.366,3.311 -4.424,7.117 -5.918,10.901c-20.132,51.002 3.318,152.482 -12.936,207.339c-45.872,154.819 -386.326,104.264 -513.386,100.895c-229.49,-6.085 -157.274,-168.164 -222.541,-282.382c-11.065,-19.364 -33.871,-24.619 -52.223,-34.261c-80.234,-42.157 -113.553,-365.861 -105.994,-374.932c8.309,-9.97 568.471,64.086 1109.77,89.858Z" style="fill:#ffce7b;"/><path d="M2172.9,1985.57c0.227,-4.425 -1.317,-8.759 -4.292,-12.044c-2.974,-3.284 -7.134,-5.249 -11.561,-5.46c-487.162,-23.195 -989.602,-85.499 -1091.28,-90.459c-11.34,-0.553 -18.702,-0.192 -21.729,0.477c-5.762,1.273 -8.777,4.198 -10.365,6.103c-1.395,1.674 -4.266,6.342 -4.752,14.591c-0.657,11.167 1.032,39.069 5.408,75.105c8.757,72.106 28.165,177.435 58.566,244.5c14.644,32.304 32.498,56.004 51.824,66.159c9.171,4.818 19.455,8.54 28.829,13.477c6.587,3.469 12.789,7.499 16.675,14.299c25.232,44.156 28.729,95.844 38.607,142.193c8.41,39.46 21.193,75.299 50.154,102.069c28.553,26.392 73.343,44.538 147.81,46.512c76.886,2.039 231.252,20.999 352.436,2.283c87.397,-13.498 157.352,-47.539 177.371,-115.104c8.539,-28.817 7.072,-69.86 5.691,-110.417c-1.228,-36.06 -2.635,-71.716 6.768,-95.538c1.004,-2.545 2.386,-5.106 3.977,-7.333c3.402,-4.763 9.808,-7.939 17.326,-11.302c10.322,-4.616 22.69,-8.71 35.502,-13.27c29.322,-10.437 60.33,-23.558 79.344,-46.544c68.376,-82.665 64.758,-163.364 67.686,-220.297Zm-1110.2,-74.787c10.87,0.48 27.421,1.801 48.95,3.717c162.988,14.501 599.218,64.927 1027.3,86.061l-0,-0c-1.725,50.312 -3.652,116.646 -59.413,184.06c-18.81,22.74 -52.821,32.03 -80.432,41.899c-24.045,8.594 -43.971,18.196 -53.179,31.089c-3.14,4.395 -5.876,9.445 -7.859,14.469c-10.729,27.181 -10.477,67.763 -9.076,108.91c1.248,36.648 3.379,73.773 -4.337,99.814c-16.682,56.302 -77.671,80.382 -150.499,91.63c-119.131,18.399 -270.88,-0.657 -346.465,-2.661c-63.231,-1.677 -101.823,-15.26 -126.067,-37.67c-23.836,-22.032 -33.257,-52.061 -40.178,-84.538c-10.563,-49.563 -15.286,-104.565 -42.268,-151.783c-7.18,-12.566 -17.91,-20.843 -30.082,-27.254c-9.384,-4.942 -19.678,-8.669 -28.858,-13.493c-6.995,-3.675 -13.306,-10.333 -19.391,-18.854c-10.971,-15.363 -20.597,-36.458 -29.153,-60.52c-22.471,-63.192 -37.032,-146.271 -44.261,-205.794c-2.861,-23.561 -4.167,-46.128 -4.727,-59.082Z" style="fill:#7e4021;"/><path d="M1874.63,2262.71c-7.851,1.392 -15.676,2.888 -23.569,4.039c-20.663,3.014 -41.34,5.432 -62.119,7.496c-67.699,6.724 -132.943,7.144 -200.007,-5.108c-9.049,-1.653 -17.737,4.351 -19.391,13.4c-1.653,9.049 4.352,17.738 13.4,19.391c70.179,12.821 138.449,12.523 209.292,5.487c21.287,-2.114 42.469,-4.594 63.636,-7.681c8.231,-1.201 16.392,-2.751 24.58,-4.203c9.057,-1.607 15.106,-10.264 13.499,-19.322c-1.606,-9.057 -10.264,-15.106 -19.321,-13.499Z" style="fill:#7e4021;"/><path d="M1359.64,2115.59c-47.791,-17.112 -109.799,-23.348 -166.306,7.26c-36.85,19.961 -74.563,55.61 -83.696,94.923c-2.559,11.015 -7.003,36.336 -8.027,47.599c-0.358,3.941 -148.86,27.445 -218.443,41.106c-102.123,20.051 -453.397,52.341 -668.021,99.826c-83.764,18.533 -131.413,87.828 -136.61,133.997c-25.563,227.123 180.893,211.104 318.363,189.733c88.505,-13.76 660.636,-160.708 808.661,-176.898c54.03,48.1 182.451,47.506 232.47,1.164c24.742,-22.922 62.007,-64.209 67.23,-133.862c13.856,-184.797 -71.207,-278.204 -145.621,-304.848Z" style="fill:#edaf5f;"/><path d="M1086.42,2252.61c-35.292,7.915 -148.454,26.131 -206.46,37.52c-102.183,20.062 -453.661,52.394 -668.411,99.907c-92.232,20.406 -143.849,97.57 -149.571,148.406c-8.347,74.161 7.069,124.277 35.332,157.791c26.698,31.658 65.385,48.965 109.283,56.698c61.511,10.835 133.456,2.813 192.871,-6.424c87.098,-13.54 642.998,-156.25 800.981,-175.984c30.047,23.141 76.577,35.21 122.832,35.283c49.686,0.078 98.539,-13.754 126.085,-39.275c26.754,-24.787 66.874,-69.522 72.522,-144.841c14.678,-195.756 -77.796,-293.562 -156.623,-321.786l0,-0c-51.692,-18.509 -118.742,-24.811 -179.862,8.296c-40.825,22.114 -81.874,62.252 -91.992,105.807c-2.005,8.628 -5.104,25.637 -6.987,38.602Zm267.605,-121.323c70.005,25.066 147.654,114.062 134.619,287.911c-4.798,63.986 -39.208,101.825 -61.937,122.882c-22.475,20.823 -62.837,30.457 -103.377,30.393c-40.787,-0.064 -82.259,-10.035 -106.684,-31.779c-3.522,-3.136 -8.207,-4.633 -12.894,-4.12c-148.159,16.205 -720.824,163.225 -809.409,176.997c-56.061,8.715 -123.929,16.757 -181.967,6.533c-35.803,-6.307 -67.809,-19.539 -89.584,-45.359c-23.673,-28.071 -34.681,-70.458 -27.69,-132.574c4.672,-41.502 48.35,-102.928 123.648,-119.588c214.498,-47.457 565.569,-79.706 667.632,-99.744c62.971,-12.364 190.21,-32.801 215.293,-39.642c8.293,-2.262 12.155,-6.299 13.142,-7.595c2.273,-2.984 3.148,-5.999 3.395,-8.715c0.976,-10.728 5.226,-34.844 7.663,-45.336c8.149,-35.075 42.524,-66.232 75.4,-84.04c51.895,-28.11 108.86,-21.939 152.749,-6.224l0.001,-0Z" style="fill:#7e4021;"/><path d="M1208.77,2569.78c49.973,-8.531 108.209,-52.78 119.26,-127.15c12.736,-85.714 -13.809,-203.563 -135.644,-206.037c-9.197,-0.186 -16.815,7.129 -17.002,16.325c-0.187,9.197 7.128,16.815 16.325,17.002c97.339,1.976 113.525,99.33 103.349,167.811c-8.571,57.685 -53.135,92.574 -91.898,99.191c-9.067,1.548 -15.172,10.167 -13.624,19.234c1.548,9.068 10.166,15.172 19.234,13.624Z" style="fill:#7e4021;"/><path d="M1279.73,2598.86c65.96,-11.384 93.413,-60.657 101.914,-94.924c2.215,-8.927 -3.235,-17.974 -12.162,-20.189c-8.928,-2.215 -17.975,3.235 -20.19,12.163c-6.277,25.3 -26.53,61.697 -75.232,70.103c-9.064,1.564 -15.153,10.194 -13.589,19.258c1.565,9.065 10.194,15.154 19.259,13.589Z" style="fill:#7e4021;"/><path d="M936.562,645.241c27.413,-102.535 84.399,-196.494 167.283,-262.402c187.158,-148.827 435.942,-98.628 555.216,112.03c42.746,75.496 63.094,161.421 62.993,247.453" style="fill:#fff;"/><path d="M952.663,649.545c13.247,-49.548 33.614,-97.034 60.681,-140.103c27.064,-43.064 60.827,-81.713 100.874,-113.558c89.782,-71.395 194.349,-95.081 290.697,-75.234c95.594,19.692 182.874,82.167 239.643,182.431c20.601,36.385 35.804,75.283 45.859,115.448c10.112,40.395 15.019,82.072 14.97,123.774c-0.011,9.198 7.449,16.675 16.647,16.686c9.199,0.011 16.676,-7.449 16.686,-16.647c0.053,-44.443 -5.19,-88.857 -15.968,-131.908c-10.781,-43.065 -27.099,-84.765 -49.187,-123.777c-61.964,-109.437 -157.585,-177.161 -261.924,-198.655c-105.409,-21.714 -219.944,3.683 -318.169,81.792c-43.003,34.195 -79.29,75.669 -108.351,121.911c-28.832,45.879 -50.55,96.451 -64.661,149.231c-2.375,8.887 2.91,18.03 11.797,20.406c8.886,2.376 18.03,-2.91 20.406,-11.797Z" style="fill:#7e4021;"/><path d="M3233.82,642.578c81.722,-39.607 405.728,-223.865 600.938,-323.639c8.191,-4.187 11.442,-14.235 7.256,-22.426c-4.187,-8.191 -14.235,-11.442 -22.426,-7.255c-195.008,99.67 -518.668,283.758 -600.306,323.324c-8.277,4.012 -11.741,13.989 -7.729,22.267c4.012,8.277 13.989,11.741 22.267,7.729Z" style="fill:#7e4021;"/><path d="M3134.38,661.607c-29.921,17.069 -98.369,57.357 -128.397,74.247c-8.017,4.51 -10.865,14.68 -6.355,22.698c4.51,8.017 14.68,10.865 22.697,6.355c30.068,-16.913 98.61,-57.255 128.572,-74.346c7.99,-4.558 10.776,-14.745 6.218,-22.735c-4.558,-7.99 -14.745,-10.777 -22.735,-6.219Z" style="fill:#7e4021;"/><path d="M2696.31,1029.84c3.308,120.736 4.245,241.528 7.707,362.268c3.871,135.002 11.114,305.584 19.673,440.385c0.583,9.18 8.509,16.16 17.69,15.577c9.18,-0.583 16.159,-8.509 15.577,-17.689c-8.537,-134.447 -15.759,-304.581 -19.62,-439.228c-3.462,-120.726 -4.398,-241.504 -7.706,-362.226c-0.252,-9.195 -7.922,-16.456 -17.117,-16.204c-9.195,0.252 -16.456,7.922 -16.204,17.117Z" style="fill:#7e4021;"/><path d="M2719.22,4476.78c2.164,45.737 2.777,91.496 5.041,137.235c2.543,51.368 7.303,116.274 12.926,167.566c1.002,9.144 9.239,15.754 18.383,14.751c9.144,-1.002 15.754,-9.239 14.752,-18.383c-5.556,-50.684 -10.255,-114.822 -12.768,-165.582c-2.263,-45.715 -2.875,-91.449 -5.037,-137.163c-0.435,-9.188 -8.248,-16.295 -17.436,-15.86c-9.188,0.435 -16.295,8.247 -15.861,17.436Z" style="fill:#7e4021;"/><path d="M3063.29,2087.89c6.355,235.016 8.154,470.142 14.804,705.166c7.432,262.623 21.336,594.46 37.766,856.692c0.575,9.181 8.496,16.167 17.677,15.592c9.18,-0.575 16.167,-8.496 15.591,-17.676c-16.408,-261.883 -30.292,-593.277 -37.714,-855.551c-6.649,-235.01 -8.448,-470.122 -14.803,-705.124c-0.248,-9.195 -7.916,-16.459 -17.111,-16.21c-9.195,0.249 -16.458,7.916 -16.21,17.111Z" style="fill:#7e4021;"/><path d="M1155.65,489.37c136.931,-108.886 318.95,-72.159 406.215,81.966c87.266,154.124 46.943,367.655 -89.988,476.542c-136.931,108.886 -318.95,72.159 -406.215,-81.965c-87.265,-154.125 -46.943,-367.656 89.988,-476.543Z" style="fill:#ee909d;"/><path d="M1145.28,476.325c-71.827,57.117 -118.375,141.69 -135.253,232.227c-16.742,89.806 -4.271,185.378 41.135,265.572c46.031,81.299 117.11,131.553 194.622,147.52c78.336,16.137 163.471,-2.674 236.469,-60.721c71.827,-57.117 118.376,-141.69 135.253,-232.227c16.742,-89.806 4.271,-185.378 -41.134,-265.572c-46.032,-81.299 -117.11,-131.553 -194.622,-147.52c-78.337,-16.137 -163.472,2.674 -236.47,60.721l0,0Zm20.747,26.09c64.554,-51.333 139.722,-68.434 208.997,-54.163c68.766,14.166 131.504,59.17 172.341,131.295c41.547,73.378 52.691,160.868 37.373,243.041c-15.414,82.681 -57.636,160.084 -123.231,212.245c-64.555,51.333 -139.722,68.434 -208.998,54.163c-68.766,-14.165 -131.504,-59.17 -172.341,-131.295c-41.546,-73.378 -52.691,-160.868 -37.372,-243.041c15.413,-82.681 57.635,-160.084 123.231,-212.245l-0,0Z" style="fill:#7e4021;"/><path d="M738.342,1354.38c55.027,-69.074 148.726,-71.623 209.112,-5.69c60.385,65.933 64.735,175.542 9.708,244.615c-55.026,69.074 -148.726,71.624 -209.111,5.691c-60.385,-65.934 -64.735,-175.542 -9.709,-244.616Z" style="fill:#f7bf9a;"/><path d="M725.307,1344c-30.093,37.775 -44.057,86.621 -42.022,135.047c2.017,47.995 19.746,95.474 52.475,131.21c33.616,36.704 76.577,54.177 118.726,53.201c42.654,-0.987 84.713,-20.85 115.712,-59.763c30.093,-37.774 44.057,-86.621 42.022,-135.046c-2.017,-47.996 -19.746,-95.474 -52.476,-131.211c-33.615,-36.704 -76.576,-54.177 -118.726,-53.201c-42.653,0.988 -84.712,20.851 -115.711,59.763Zm26.071,20.77c24.278,-30.475 57.007,-46.435 90.412,-47.209c33.222,-0.769 66.877,13.461 93.373,42.39c27.439,29.961 42.062,69.86 43.753,110.097c1.7,40.443 -9.658,81.331 -34.789,112.878c-24.278,30.475 -57.007,46.434 -90.412,47.208c-33.222,0.769 -66.877,-13.46 -93.373,-42.39c-27.439,-29.96 -42.062,-69.86 -43.753,-110.097c-1.7,-40.442 9.658,-81.33 34.789,-112.877Z" style="fill:#7e4021;"/><path d="M1214.86,1414.04c55.026,-69.073 148.726,-71.623 209.111,-5.69c60.385,65.934 64.735,175.542 9.709,244.616c-55.027,69.074 -148.726,71.623 -209.112,5.69c-60.385,-65.933 -64.735,-175.542 -9.708,-244.616Z" style="fill:#f7bf9a;"/><path d="M1201.83,1403.66c-30.093,37.774 -44.057,86.621 -42.022,135.046c2.017,47.996 19.746,95.474 52.476,131.211c33.615,36.704 76.576,54.177 118.726,53.201c42.653,-0.988 84.712,-20.851 115.712,-59.763c30.092,-37.775 44.056,-86.621 42.021,-135.047c-2.017,-47.995 -19.746,-95.474 -52.475,-131.21c-33.616,-36.704 -76.577,-54.177 -118.726,-53.201c-42.654,0.987 -84.713,20.85 -115.712,59.763Zm26.071,20.769c24.278,-30.475 57.007,-46.434 90.412,-47.208c33.222,-0.769 66.877,13.46 93.373,42.39c27.439,29.96 42.062,69.86 43.753,110.097c1.7,40.442 -9.658,81.33 -34.789,112.877c-24.278,30.475 -57.007,46.435 -90.412,47.208c-33.222,0.77 -66.877,-13.46 -93.373,-42.39c-27.439,-29.96 -42.062,-69.859 -43.753,-110.096c-1.7,-40.443 9.658,-81.331 34.789,-112.878Z" style="fill:#7e4021;"/><path d="M1692.79,1465.2c55.027,-69.073 148.727,-71.623 209.112,-5.69c60.385,65.933 64.735,175.542 9.709,244.616c-55.027,69.073 -148.727,71.623 -209.112,5.69c-60.385,-65.933 -64.735,-175.542 -9.709,-244.616Z" style="fill:#f7bf9a;"/><path d="M1679.76,1454.82c-30.093,37.775 -44.057,86.622 -42.022,135.047c2.017,47.995 19.746,95.474 52.475,131.21c33.616,36.705 76.577,54.178 118.727,53.202c42.653,-0.988 84.712,-20.851 115.711,-59.763c30.093,-37.775 44.057,-86.621 42.022,-135.047c-2.017,-47.995 -19.746,-95.474 -52.475,-131.21c-33.616,-36.705 -76.577,-54.178 -118.727,-53.202c-42.653,0.988 -84.712,20.851 -115.711,59.763Zm26.071,20.77c24.278,-30.475 57.007,-46.435 90.412,-47.208c33.222,-0.77 66.877,13.46 93.373,42.39c27.439,29.96 42.062,69.859 43.753,110.097c1.7,40.442 -9.658,81.33 -34.789,112.877c-24.278,30.475 -57.007,46.435 -90.412,47.208c-33.222,0.77 -66.877,-13.46 -93.373,-42.39c-27.439,-29.96 -42.062,-69.859 -43.753,-110.097c-1.7,-40.442 9.658,-81.33 34.789,-112.877Z" style="fill:#7e4021;"/><path d="M2170.72,1476.34c55.027,-69.074 148.726,-71.624 209.112,-5.691c60.385,65.934 64.735,175.542 9.708,244.616c-55.026,69.074 -148.726,71.623 -209.111,5.69c-60.385,-65.933 -64.735,-175.542 -9.709,-244.615Z" style="fill:#f7bf9a;"/><path d="M2157.68,1465.95c-30.093,37.774 -44.057,86.621 -42.022,135.046c2.017,47.996 19.746,95.474 52.475,131.211c33.616,36.704 76.577,54.177 118.726,53.201c42.654,-0.988 84.713,-20.851 115.712,-59.763c30.093,-37.775 44.057,-86.621 42.022,-135.047c-2.017,-47.995 -19.746,-95.474 -52.476,-131.21c-33.615,-36.704 -76.576,-54.177 -118.726,-53.201c-42.653,0.987 -84.712,20.85 -115.711,59.763Zm26.071,20.769c24.278,-30.475 57.007,-46.434 90.412,-47.208c33.222,-0.769 66.877,13.46 93.373,42.39c27.439,29.96 42.062,69.86 43.753,110.097c1.7,40.442 -9.658,81.33 -34.789,112.877c-24.278,30.475 -57.007,46.435 -90.412,47.208c-33.222,0.77 -66.877,-13.46 -93.373,-42.39c-27.439,-29.96 -42.062,-69.859 -43.753,-110.096c-1.7,-40.443 9.658,-81.331 34.789,-112.878Z" style="fill:#7e4021;"/><path d="M265.056,1255.46c55.026,-69.074 148.726,-71.623 209.111,-5.69c60.385,65.933 64.735,175.542 9.709,244.615c-55.027,69.074 -148.726,71.624 -209.111,5.691c-60.385,-65.934 -64.736,-175.542 -9.709,-244.616Z" style="fill:#f7bf9a;"/><path d="M252.02,1245.07c-30.093,37.775 -44.057,86.621 -42.022,135.047c2.018,47.995 19.746,95.473 52.476,131.21c33.615,36.704 76.577,54.177 118.726,53.201c42.653,-0.987 84.713,-20.85 115.712,-59.763c30.092,-37.774 44.057,-86.621 42.021,-135.046c-2.017,-47.996 -19.746,-95.474 -52.475,-131.211c-33.616,-36.704 -76.577,-54.177 -118.726,-53.201c-42.654,0.988 -84.713,20.851 -115.712,59.763Zm26.072,20.77c24.277,-30.475 57.007,-46.435 90.411,-47.209c33.222,-0.769 66.878,13.461 93.373,42.39c27.439,29.961 42.062,69.86 43.753,110.097c1.7,40.443 -9.658,81.331 -34.789,112.878c-24.278,30.475 -57.007,46.434 -90.412,47.208c-33.222,0.769 -66.877,-13.46 -93.372,-42.39c-27.439,-29.96 -42.063,-69.86 -43.754,-110.097c-1.7,-40.442 9.658,-81.33 34.79,-112.877Z" style="fill:#7e4021;"/><path d="M1185.1,543.892c108.045,-85.917 251.666,-56.937 320.523,64.674c68.856,121.612 37.04,290.098 -71.006,376.015c-108.045,85.917 -251.666,56.937 -320.523,-64.675c-68.856,-121.611 -37.04,-290.098 71.006,-376.014Z" style="fill:#ffe6d8;"/><path d="M1174.72,530.847c-57.332,45.59 -94.517,113.079 -107.989,185.345c-13.36,71.667 -3.38,147.93 32.854,211.926c36.869,65.117 93.833,105.323 155.916,118.112c62.767,12.929 130.994,-2.094 189.484,-48.604c57.332,-45.59 94.517,-113.079 107.989,-185.345c13.36,-71.667 3.38,-147.931 -32.854,-211.927c-36.869,-65.116 -93.833,-105.322 -155.916,-118.111c-62.767,-12.93 -130.994,2.093 -189.484,48.604l0,-0Zm20.747,26.09c50.046,-39.797 108.305,-53.109 162.011,-42.046c53.337,10.987 101.961,45.944 133.635,101.887c32.375,57.179 41.029,125.361 29.092,189.394c-12.007,64.411 -44.866,124.729 -95.967,165.364c-50.046,39.796 -108.305,53.109 -162.011,42.046c-53.337,-10.988 -101.961,-45.944 -133.635,-101.887c-32.375,-57.18 -41.029,-125.361 -29.092,-189.394c12.007,-64.412 44.866,-124.729 95.967,-165.364l-0,-0Z" style="fill:#7e4021;"/><path d="M732.819,1370.11c43.419,-54.503 117.352,-56.514 164.999,-4.49c47.647,52.025 51.079,138.511 7.661,193.014c-43.419,54.502 -117.352,56.514 -164.999,4.489c-47.647,-52.024 -51.079,-138.511 -7.661,-193.013Z" style="fill:#ffe6d8;"/><path d="M719.783,1359.72c-24.267,30.463 -35.561,69.845 -33.92,108.897c1.627,38.689 15.943,76.951 42.326,105.758c27.275,29.781 62.155,43.911 96.355,43.119c34.631,-0.802 68.802,-16.887 93.971,-48.481c24.267,-30.462 35.561,-69.844 33.919,-108.896c-1.626,-38.689 -15.942,-76.951 -42.325,-105.758c-27.276,-29.782 -62.156,-43.911 -96.355,-43.119c-34.631,0.802 -68.802,16.886 -93.971,48.48l0,0Zm26.072,20.77c18.447,-23.157 43.288,-35.338 68.671,-35.926c25.272,-0.585 50.846,10.301 71.001,32.308c21.093,23.03 32.303,53.714 33.603,84.645c1.306,31.068 -7.38,62.491 -26.687,86.727c-18.447,23.156 -43.288,35.337 -68.671,35.925c-25.272,0.585 -50.846,-10.3 -71.001,-32.307c-21.093,-23.031 -32.304,-53.714 -33.604,-84.645c-1.305,-31.069 7.381,-62.492 26.688,-86.727l-0,-0Z" style="fill:#7e4021;"/><path d="M1209.34,1429.77c43.419,-54.502 117.352,-56.514 164.999,-4.489c47.647,52.024 51.079,138.511 7.661,193.013c-43.419,54.503 -117.352,56.514 -164.999,4.49c-47.647,-52.025 -51.079,-138.511 -7.661,-193.014Z" style="fill:#ffe6d8;"/><path d="M1196.3,1419.38c-24.267,30.462 -35.561,69.844 -33.919,108.896c1.626,38.689 15.942,76.951 42.325,105.758c27.276,29.782 62.156,43.911 96.355,43.119c34.631,-0.802 68.802,-16.886 93.971,-48.48c24.267,-30.463 35.561,-69.845 33.92,-108.897c-1.627,-38.689 -15.943,-76.951 -42.326,-105.758c-27.275,-29.781 -62.155,-43.911 -96.355,-43.119c-34.631,0.802 -68.802,16.887 -93.971,48.481l0,-0Zm26.072,20.769c18.447,-23.156 43.288,-35.337 68.671,-35.925c25.272,-0.585 50.846,10.3 71.001,32.307c21.093,23.031 32.304,53.714 33.604,84.645c1.305,31.069 -7.381,62.492 -26.688,86.727c-18.447,23.157 -43.288,35.338 -68.671,35.926c-25.272,0.585 -50.846,-10.301 -71.001,-32.308c-21.093,-23.03 -32.303,-53.714 -33.603,-84.645c-1.306,-31.068 7.38,-62.491 26.687,-86.727l0,0Z" style="fill:#7e4021;"/><path d="M1687.27,1480.92c43.419,-54.502 117.352,-56.514 164.999,-4.49c47.647,52.025 51.079,138.511 7.661,193.014c-43.419,54.502 -117.352,56.514 -164.999,4.49c-47.647,-52.025 -51.079,-138.511 -7.661,-193.014Z" style="fill:#ffe6d8;"/><path d="M1674.23,1470.54c-24.267,30.463 -35.561,69.845 -33.919,108.897c1.626,38.689 15.942,76.951 42.325,105.758c27.275,29.782 62.155,43.911 96.355,43.119c34.631,-0.802 68.802,-16.886 93.971,-48.48c24.267,-30.463 35.561,-69.845 33.919,-108.897c-1.626,-38.689 -15.942,-76.951 -42.325,-105.758c-27.275,-29.782 -62.155,-43.911 -96.355,-43.119c-34.631,0.802 -68.802,16.887 -93.971,48.48l0,0Zm26.072,20.77c18.447,-23.156 43.288,-35.338 68.671,-35.925c25.272,-0.586 50.846,10.3 71.001,32.307c21.093,23.031 32.303,53.714 33.604,84.645c1.305,31.069 -7.381,62.492 -26.688,86.727c-18.447,23.156 -43.288,35.338 -68.671,35.925c-25.272,0.586 -50.846,-10.3 -71.001,-32.307c-21.093,-23.031 -32.303,-53.714 -33.604,-84.645c-1.305,-31.068 7.381,-62.492 26.688,-86.727l0,0Z" style="fill:#7e4021;"/><path d="M2165.2,1492.06c43.419,-54.502 117.352,-56.514 164.999,-4.489c47.647,52.024 51.079,138.511 7.661,193.013c-43.419,54.503 -117.352,56.514 -164.999,4.49c-47.647,-52.025 -51.079,-138.511 -7.661,-193.014Z" style="fill:#ffe6d8;"/><path d="M2152.16,1481.68c-24.267,30.462 -35.561,69.844 -33.92,108.896c1.627,38.689 15.943,76.951 42.326,105.759c27.275,29.781 62.155,43.91 96.355,43.118c34.631,-0.802 68.802,-16.886 93.971,-48.48c24.267,-30.463 35.561,-69.844 33.919,-108.897c-1.626,-38.689 -15.942,-76.951 -42.325,-105.758c-27.276,-29.781 -62.156,-43.91 -96.355,-43.118c-34.631,0.801 -68.802,16.886 -93.971,48.48l0,-0Zm26.072,20.769c18.447,-23.156 43.288,-35.337 68.671,-35.925c25.272,-0.585 50.846,10.3 71.001,32.307c21.093,23.031 32.303,53.714 33.603,84.645c1.306,31.069 -7.381,62.492 -26.687,86.727c-18.447,23.157 -43.288,35.338 -68.671,35.926c-25.272,0.585 -50.846,-10.301 -71.001,-32.308c-21.093,-23.03 -32.304,-53.714 -33.604,-84.644c-1.306,-31.069 7.381,-62.492 26.688,-86.728l-0,0Z" style="fill:#7e4021;"/><path d="M259.532,1271.18c43.419,-54.503 117.352,-56.514 164.999,-4.49c47.647,52.025 51.08,138.511 7.661,193.014c-43.419,54.502 -117.352,56.514 -164.999,4.489c-47.646,-52.024 -51.079,-138.511 -7.661,-193.013Z" style="fill:#ffe6d8;"/><path d="M246.497,1260.79c-24.268,30.463 -35.562,69.845 -33.92,108.897c1.626,38.689 15.942,76.951 42.325,105.758c27.276,29.781 62.156,43.911 96.355,43.119c34.631,-0.802 68.802,-16.887 93.971,-48.481c24.268,-30.462 35.561,-69.844 33.92,-108.896c-1.626,-38.689 -15.943,-76.951 -42.326,-105.758c-27.275,-29.782 -62.155,-43.911 -96.355,-43.119c-34.631,0.802 -68.802,16.886 -93.97,48.48l-0,0Zm26.071,20.77c18.447,-23.157 43.288,-35.338 68.671,-35.926c25.272,-0.585 50.846,10.301 71.001,32.308c21.093,23.03 32.304,53.714 33.604,84.645c1.306,31.068 -7.381,62.491 -26.688,86.727c-18.447,23.156 -43.288,35.337 -68.671,35.925c-25.272,0.585 -50.846,-10.3 -71.001,-32.307c-21.093,-23.031 -32.303,-53.714 -33.603,-84.645c-1.306,-31.069 7.381,-62.492 26.687,-86.727l0,-0Z" style="fill:#7e4021;"/><path d="M1242.6,928.885c-13.232,-6.441 -25.654,-15.171 -36.82,-26.076c-10.497,-10.251 -19.878,-22.418 -27.796,-36.404c-23.397,-41.322 -29.612,-90.601 -20.986,-136.876c8.673,-46.525 32.367,-90.118 69.277,-119.469c35.843,-28.503 77.55,-38.107 116.015,-30.184c38.232,7.876 73.038,32.997 95.743,73.098c14.91,26.332 22.831,55.91 24.395,85.864c1.579,30.237 -3.316,60.869 -14.142,89.019c-3.302,8.585 0.988,18.236 9.574,21.538c8.585,3.302 18.236,-0.988 21.538,-9.573c12.492,-32.483 18.14,-67.83 16.318,-102.722c-1.832,-35.087 -11.212,-69.705 -28.676,-100.55c-27.899,-49.274 -71.046,-79.644 -118.025,-89.322c-47.525,-9.79 -99.2,1.525 -143.486,36.741c-43.143,34.307 -71.162,85.071 -81.299,139.451c-10.05,53.909 -2.509,111.27 24.747,159.409c9.539,16.846 20.869,31.479 33.513,43.828c13.799,13.476 29.169,24.24 45.522,32.199c8.271,4.026 18.254,0.579 22.28,-7.692c4.026,-8.27 0.579,-18.254 -7.692,-22.279Z" style="fill:#7e4021;"/><path d="M1251.18,583.474c0.017,32.762 39.89,228.259 41.14,247.336c1.365,20.831 2.488,41.246 -0.437,61.772c-0.783,5.498 -5.902,18.864 -3.311,24.232c2.479,5.135 18.688,-2.371 21.865,-3.477c19.375,-6.748 38.809,-13.411 58.082,-20.44c4.931,-1.798 17.678,-4.212 17.111,-11.432c-0.638,-8.119 -12.203,-14.832 -17.943,-19.126c-15.845,-11.854 -31.733,-27.301 -40.82,-45.558c-9.628,-19.345 -56.682,-194.295 -75.687,-233.307Z" style="fill:#ee909d;"/><path d="M1266.17,576.175c-3.4,-6.98 -11.168,-10.687 -18.733,-8.94c-7.564,1.746 -12.921,8.484 -12.917,16.248c0.017,32.902 39.921,229.258 41.176,248.417c1.289,19.67 2.456,38.949 -0.306,58.331c-0.565,3.966 -3.27,11.915 -3.955,18.218c-0.683,6.271 0.276,11.759 2.135,15.611c2.833,5.868 8.031,10.055 15.916,11.015c3.289,0.4 7.564,0.081 12.034,-1.017c5.856,-1.437 12.422,-4.291 14.405,-4.982c19.452,-6.774 38.962,-13.464 58.312,-20.521c4.734,-1.727 14.409,-4.577 19.709,-9.102c5.917,-5.053 8.914,-11.553 8.306,-19.293c-0.437,-5.566 -2.721,-11.014 -6.619,-15.939c-4.868,-6.15 -13.042,-11.552 -17.955,-15.228c-13.85,-10.361 -27.941,-23.68 -35.884,-39.638c-9.622,-19.334 -56.629,-194.19 -75.624,-233.18Zm94.541,301.826l-5.101,1.847c-7.22,2.581 -14.452,5.128 -21.683,7.675l-25.807,8.976l0.27,-1.565c3.088,-21.67 2.009,-43.222 0.568,-65.213c-0.216,-3.295 -1.593,-11.875 -3.722,-23.977l0,0.002c2.945,9.043 5.26,15.533 6.717,18.461c10.231,20.556 27.916,38.13 45.757,51.477l3.001,2.317Z" style="fill:#7e4021;"/><path d="M1278.56,738.191c16.455,-13.085 38.33,-8.672 48.817,9.85c10.487,18.522 5.641,44.184 -10.815,57.269c-16.455,13.085 -38.33,8.672 -48.817,-9.85c-10.487,-18.522 -5.641,-44.183 10.815,-57.269Z" style="fill:#7e4021;"/><path d="M1268.18,725.146c-11.373,9.044 -18.87,22.362 -21.543,36.698c-2.637,14.151 -0.556,29.192 6.599,41.828c7.817,13.806 20.028,22.154 33.19,24.865c13.401,2.761 28.016,-0.252 40.504,-10.182c11.373,-9.044 18.87,-22.362 21.542,-36.698c2.638,-14.151 0.556,-29.191 -6.598,-41.827c-7.817,-13.806 -20.028,-22.154 -33.191,-24.866c-13.4,-2.76 -28.015,0.252 -40.503,10.182Zm20.747,26.09c4.044,-3.216 8.691,-4.518 13.031,-3.624c4.417,0.91 8.286,4.008 10.909,8.641c3.296,5.82 4.052,12.778 2.837,19.295c-1.209,6.481 -4.379,12.628 -9.521,16.717c-4.044,3.216 -8.691,4.518 -13.031,3.624c-4.417,-0.91 -8.286,-4.008 -10.91,-8.641c-3.295,-5.82 -4.051,-12.778 -2.836,-19.295c1.208,-6.481 4.379,-12.628 9.521,-16.717Z" style="fill:#7e4021;"/><path d="M2532.28,1993.54c36.71,1.148 118.996,-1.338 154.746,-4.484c-17.388,271.906 200.962,226.014 244.623,384.984c45.826,166.852 -51.047,429.02 -151.083,609.409c-31.936,57.588 8.544,72.378 -14.423,124.402c-19.212,43.517 -167.608,59.974 -187.678,-5.689c-16.237,-53.12 57.969,-105.844 73.607,-131.785c71.302,-118.283 182.729,-429.22 120.534,-533.729c-42.37,-71.196 -148.963,-96.568 -191.27,-179.651c-66.209,-130.021 -38.265,-214.737 -49.056,-263.457Z" style="fill:#ffce7b;"/><path d="M2532.8,1976.88c-5.142,-0.161 -10.07,2.062 -13.353,6.023c-3.283,3.961 -4.553,9.217 -3.44,14.24c4.125,18.623 2.061,42.759 2.468,72.959c0.664,49.262 6.724,113.385 48.008,194.457c22.441,44.071 61.513,73.261 101.014,100.449c35.171,24.209 70.774,46.536 90.786,80.163c17.237,28.963 18.942,75.203 12.639,128.539c-15.65,132.445 -84.054,306.658 -133.125,388.062c-9.308,15.441 -39.611,40.383 -58.823,69.301c-15.798,23.778 -24.396,49.96 -16.449,75.959c5.267,17.233 16.998,30.383 33.033,39.573c20.703,11.865 49.132,16.913 77.601,16.001c27.778,-0.89 55.475,-7.365 75.506,-17.446c16.171,-8.138 27.596,-18.963 32.724,-30.578c10.957,-24.821 9.865,-42.529 6.977,-59.247c-3.097,-17.935 -9.571,-34.33 6.774,-63.804c60.753,-109.552 120.29,-248.929 148.231,-379.361c19.022,-88.799 23.296,-173.558 4.348,-242.545c-18.675,-67.999 -66.421,-101.656 -116.786,-135.322c-40.04,-26.766 -81.828,-53.58 -106.355,-104.409c-16.333,-33.848 -24.858,-78.202 -20.921,-139.776c0.311,-4.85 -1.512,-9.593 -4.989,-12.989c-3.477,-3.395 -8.263,-5.103 -13.104,-4.677c-35.293,3.106 -116.524,5.561 -152.764,4.428Zm18.438,33.602c34.321,0.091 84.499,-1.409 118.292,-3.459c-1.531,59.171 8.468,103.041 25.027,137.357c27.403,56.789 73.117,87.731 117.852,117.635c43.833,29.3 86.914,57.258 103.167,116.438c17.714,64.495 12.984,143.719 -4.799,226.735c-27.268,127.292 -85.497,263.263 -144.787,370.177c-18.737,33.786 -16.204,55.022 -12.382,75.438c2.725,14.554 6.893,28.557 -2.713,50.316c-2.56,5.799 -9.142,10.204 -17.215,14.266c-16.32,8.214 -38.956,13.18 -61.589,13.905c-18.549,0.594 -37.15,-1.64 -52.193,-7.831c-12.125,-4.991 -21.924,-12.486 -25.495,-24.17c-6.555,-21.444 7.001,-42.171 21.919,-60.792c19.026,-23.75 41.971,-44.161 50.022,-57.516c50.753,-84.193 121.495,-264.377 137.681,-401.36c7.343,-62.137 2.984,-115.754 -17.098,-149.497c-22.358,-37.57 -61.235,-63.526 -100.531,-90.574c-34.966,-24.067 -70.344,-49.104 -90.209,-88.117c-44.643,-87.67 -44.731,-153.982 -44.4,-201.961c0.094,-13.648 0.156,-25.957 -0.549,-36.99Z" style="fill:#7e4021;"/><path d="M2640.17,2322.86c21.728,-5.882 49.625,-11.247 78.725,-43.403c16.57,-18.31 34.85,-75.385 39.132,-78.766c1.76,-1.389 46.936,42.374 95.912,41.183c53.137,-1.292 107.091,7.234 144.327,44.271c44.014,43.779 14.844,129.1 -53.593,231.813c-23.418,35.149 -141.348,46.436 -150.949,7.941c-0.456,-1.825 -26.435,-82.548 -39.1,-101.419c-21.71,-32.348 -83.703,-79.552 -114.454,-101.62Z" style="fill:#7e4021;"/><path d="M2635.82,2306.77c-6.211,1.681 -10.899,6.787 -12.045,13.119c-1.146,6.332 1.455,12.758 6.682,16.509c29.565,21.218 89.461,66.268 110.333,97.368c11.996,17.874 36.336,94.436 36.767,96.164c2.569,10.296 9.302,18.841 19.752,25.054c11.303,6.719 27.765,10.706 46.222,11.521c25.197,1.112 54.251,-3.423 76.798,-12.19c17.433,-6.778 31.07,-16.387 38.219,-27.117c42.837,-64.292 70.421,-122.281 76.121,-168.067c4.367,-35.081 -3.536,-63.809 -24.645,-84.805c-40.454,-40.238 -98.755,-50.519 -156.485,-49.115c-39.77,0.967 -76.272,-32.041 -84.43,-37.514c-10.854,-7.282 -19.503,-1.59 -21.404,-0.089c-1.642,1.296 -5.52,6.025 -9.067,14.136c-6.904,15.789 -19.731,52.865 -32.095,66.527c-26.066,28.803 -51.26,33.231 -70.723,38.499Zm129.271,-81c19.673,13.028 56.113,33.57 89.258,32.764c48.547,-1.18 98.149,5.587 132.168,39.425c14.105,14.03 17.992,33.613 15.074,57.054c-5.228,41.993 -31.495,94.737 -70.782,153.702c-4.095,6.145 -12.577,10.652 -22.559,14.533c-18.566,7.218 -42.502,10.872 -63.249,9.956c-10.474,-0.462 -20.094,-2.024 -27.451,-5.245c-3.598,-1.574 -6.879,-3.006 -7.65,-6.096c-0.479,-1.921 -28.098,-86.805 -41.432,-106.673c-17.277,-25.742 -58.943,-60.738 -91.847,-86.004l0,0c16.958,-6.642 35.526,-17.43 54.637,-38.548c10.789,-11.922 25.652,-45.306 33.833,-64.868Z" style="fill:#7e4021;"/><path d="M3410.77,894.582c31.378,0 175.466,-16.932 200.288,6.872c45.893,44.012 40.463,429.803 1.506,475.327c-27.189,31.773 -165.05,16.172 -201.794,16.172c-89.39,-0 -161.964,-111.656 -161.964,-249.185c0,-137.529 72.574,-249.186 161.964,-249.186Z" style="fill:#edaf5f;"/><path d="M3410.77,877.916c-46.618,-0 -89.62,26.308 -121.775,70.822c-34.712,48.052 -56.855,117.604 -56.855,195.03c-0,77.426 22.143,146.977 56.855,195.03c32.155,44.513 75.157,70.822 121.775,70.822c24.511,-0 93.569,6.785 145.556,2.21c18.352,-1.615 34.737,-4.696 46.988,-9.568c9.543,-3.795 16.926,-8.816 21.913,-14.644c7.323,-8.558 14.523,-27.041 19.741,-52.803c9.586,-47.332 14.985,-121.756 15.328,-196.108c0.344,-74.755 -4.447,-149.42 -14.859,-196.519c-5.738,-25.957 -14.06,-44.34 -22.843,-52.763c-4.996,-4.792 -13.028,-8.998 -23.735,-11.758c-11.957,-3.082 -27.971,-4.742 -45.83,-5.324c-52.296,-1.706 -121.604,5.573 -142.259,5.573Zm0,33.333c18.01,0 73.122,-5.57 121.54,-5.83c20.188,-0.108 39.145,0.675 53.279,3.42c6.224,1.209 11.317,2.135 13.933,4.644c5.852,5.612 9.544,18.605 13.367,35.899c10.022,45.334 14.405,117.218 14.074,189.171c-0.331,71.897 -5.395,143.877 -14.665,189.645c-3.678,18.157 -7.236,31.716 -12.397,37.747c-3.834,4.48 -11.298,6.697 -20.308,8.794c-13.007,3.027 -28.984,4.466 -45.874,5.056c-47.531,1.66 -101.904,-3.509 -122.949,-3.509c-36.594,0 -69.513,-22.065 -94.755,-57.007c-31.208,-43.203 -50.542,-105.9 -50.542,-175.511c-0,-69.611 19.334,-132.309 50.542,-175.511c25.242,-34.942 58.161,-57.008 94.755,-57.008Z" style="fill:#7e4021;"/><ellipse cx="3581.93" cy="1142.65" rx="152.014" ry="248.091" style="fill:#c48464;"/><path d="M3581.93,877.89c-44.887,0 -86.409,27.188 -116.996,73.31c-31.6,47.65 -51.684,115.766 -51.684,191.448c-0,75.681 20.084,143.798 51.684,191.447c30.587,46.123 72.109,73.31 116.996,73.31c44.887,0 86.409,-27.187 116.997,-73.31c31.599,-47.649 51.684,-115.766 51.684,-191.447c-0,-75.682 -20.085,-143.798 -51.684,-191.448c-30.588,-46.122 -72.11,-73.31 -116.997,-73.31Zm0,33.333c34.667,0 65.594,22.779 89.217,58.4c28.535,43.028 46.13,104.684 46.13,173.025c0,68.341 -17.595,129.996 -46.13,173.024c-23.623,35.621 -54.55,58.4 -89.217,58.4c-34.667,-0 -65.594,-22.779 -89.217,-58.4c-28.535,-43.028 -46.13,-104.683 -46.13,-173.024c-0,-68.341 17.595,-129.997 46.13,-173.025c23.623,-35.621 54.55,-58.4 89.217,-58.4Z" style="fill:#7e4021;"/><ellipse cx="3593.18" cy="1141.64" rx="92.678" ry="175.846" style="fill:#ffe6d8;"/><path d="M3593.18,949.126c-30.531,-0 -59.476,21.614 -79.667,59.3c-18.175,33.924 -29.677,81.065 -29.677,133.213c-0,52.148 11.502,99.289 29.677,133.213c20.191,37.686 49.136,59.3 79.667,59.3c30.532,0 59.477,-21.614 79.668,-59.3c18.175,-33.924 29.677,-81.065 29.677,-133.213c0,-52.148 -11.502,-99.289 -29.677,-133.213c-20.191,-37.686 -49.136,-59.3 -79.668,-59.3Zm0,33.333c20.085,0 37.004,16.918 50.285,41.709c16.015,29.891 25.727,71.522 25.727,117.471c-0,45.949 -9.712,87.58 -25.727,117.471c-13.281,24.791 -30.2,41.709 -50.285,41.709c-20.084,-0 -37.003,-16.918 -50.285,-41.709c-16.014,-29.891 -25.726,-71.522 -25.726,-117.471c0,-45.949 9.712,-87.58 25.726,-117.471c13.282,-24.791 30.201,-41.709 50.285,-41.709Z" style="fill:#7e4021;"/><path d="M3634.77,907.999c0.026,-2.997 -28.4,-21.436 -59.43,-16.884c-17.28,2.535 -29.5,7.822 -29.437,5.819c0.489,-15.531 3.387,-83.567 16.594,-92.042c17.62,-11.306 51.766,-9.087 68.715,-0.602c25.825,12.929 3.558,81.328 3.558,103.709Z" style="fill:#c48464;"/><path d="M3621.33,917.848c-3.562,-1.982 -24.536,-13.035 -43.568,-10.243c-12.002,1.761 -21.463,4.941 -25.804,5.839c-4.882,1.009 -8.36,0.444 -10.174,-0.06c-4.966,-1.381 -7.97,-4.263 -9.913,-7.335c-1.71,-2.704 -2.742,-5.867 -2.623,-9.639c0.357,-11.354 2.028,-49.57 7.681,-74.518c2.124,-9.372 4.977,-17.149 8.112,-22.171c2.548,-4.083 5.511,-6.964 8.459,-8.856c9.149,-5.871 21.629,-9.289 34.842,-10.145c18.404,-1.191 38.075,2.529 50.334,8.667c12.421,6.218 19.709,19.465 21.297,37.297c2.354,26.427 -8.533,65.362 -8.533,81.315l-0.004,-0l0.003,0.144c-0.08,9.177 -7.562,16.562 -16.738,16.522c-5.493,-0.024 -10.355,-2.702 -13.371,-6.817Zm-3.222,-9.976l0.001,-0.018l-0.002,-0l0.001,0.018Zm3.603,-26.97c-13.205,-5.107 -30.625,-8.941 -48.787,-6.277c-3.06,0.449 -6.253,1.04 -9.336,1.681c0.95,-14.639 2.692,-33.109 5.85,-47.048c0.951,-4.194 2.915,-9.417 3.624,-11.238c4.784,-2.529 11.01,-3.62 17.433,-4.036c12.131,-0.785 25.178,1.164 33.258,5.209c1.891,0.947 1.882,3.414 2.38,5.881c0.856,4.246 1.009,9.124 0.833,14.297c-0.454,13.429 -3.007,28.439 -5.255,41.531Z" style="fill:#7e4021;"/></g></svg>