<?xml version="1.0" encoding="UTF-8" standalone="no"?><!DOCTYPE svg PUBLIC "-//W3C//DTD SVG 1.1//EN" "http://www.w3.org/Graphics/SVG/1.1/DTD/svg11.dtd"><svg width="100%" height="100%" viewBox="0 0 3328 3363" version="1.1" xmlns="http://www.w3.org/2000/svg" xmlns:xlink="http://www.w3.org/1999/xlink" xml:space="preserve" xmlns:serif="http://www.serif.com/" style="fill-rule:evenodd;clip-rule:evenodd;stroke-linejoin:round;stroke-miterlimit:2;"><g id="Coffee-Plant" serif:id="Coffee Plant"><path d="M1652.48,750.989c-7.159,212.347 253.704,128.307 256.694,20.107c2.443,-88.382 -68.448,-122.903 -128.352,-120.116c-60.728,2.825 -126.282,38.926 -128.342,100.009Z" style="fill:#dae1a4;"/><path d="M1635.83,750.427c-2.267,67.249 20.692,107.628 52.901,129.072c47.734,31.781 119.378,21.705 171.185,-10.775c38.219,-23.961 64.89,-59.705 65.926,-97.168c2.782,-100.659 -77.562,-140.398 -145.787,-137.224c-69.104,3.214 -141.881,46.588 -144.225,116.095l0,0Zm33.315,1.123c0.846,-25.093 15.175,-44.793 35.088,-58.771c21.751,-15.268 50.121,-23.882 77.371,-25.15c51.582,-2.4 113.02,26.902 110.917,103.006c-0.759,27.464 -22.293,52.281 -50.311,69.847c-40.919,25.654 -97.304,36.373 -135.006,11.271c-24.749,-16.478 -39.802,-48.528 -38.059,-100.203l-0,0Z" style="fill:#7e4021;"/><path d="M1727.48,748.803c-228.072,75.614 -20.352,341.021 89.797,290.141c91.065,-42.065 79.614,-147.862 62.333,-196.357c-22.364,-62.763 -86.524,-115.535 -152.13,-93.784Z" style="fill:#dae1a4;"/><path d="M1722.23,732.983c-61.082,20.251 -93.426,53.565 -106.714,90.408c-19.754,54.774 3.213,119.717 44.173,167.966c26.92,31.712 61.298,56.006 94.722,65.787c24.539,7.182 48.686,6.706 69.85,-3.07c100.966,-46.638 90.203,-163.314 71.044,-217.081c-25.269,-70.914 -98.95,-128.585 -173.075,-104.01l-0,0Zm10.489,31.64c57.098,-18.93 111.723,28.935 131.187,83.558c15.403,43.228 27.55,138.136 -53.623,175.632c-14.085,6.506 -30.179,6.119 -46.51,1.339c-27.881,-8.159 -56.216,-28.914 -78.673,-55.367c-33.109,-39.002 -54.196,-90.809 -38.227,-135.085c10.528,-29.192 37.449,-54.032 85.846,-70.077l0,-0Z" style="fill:#7e4021;"/><path d="M1618.37,417.739c-4.429,-69.883 -14.957,-200.306 27.743,-260.004c30.918,-43.226 84.965,-51.612 131.198,-70.526c50.273,-20.566 96.547,-50.654 149.902,-63.318c111.03,-26.353 265.503,23.232 309.384,137.767c18.01,47.01 -6.838,99.781 -21.441,143.881c-8.069,24.369 -18.813,165.947 -60.581,109.94c-56.86,-76.245 -90.967,-173.833 -190.046,-206.195c-34.776,-11.359 -71.28,-9.406 -104.648,5.292c-65.839,29 -99.058,49.487 -158.516,99.035c-0.134,0.112 -49.734,56.96 -82.995,104.128Z" style="fill:#bbc470;"/><path d="M1713.03,325.588c57.353,-47.718 89.732,-67.642 153.568,-95.76c29.576,-13.028 61.931,-14.769 92.755,-4.701c45.965,15.014 76.621,45.461 102.619,80.694c28.036,37.995 50.795,81.477 79.242,119.622c10.149,13.609 20.206,18.595 28.249,19.522c10.401,1.198 20.339,-3.166 28.416,-13.917c8.215,-10.933 14.95,-30.896 19.844,-52.401c6.288,-27.627 9.941,-57.865 13.254,-67.869c7.446,-22.487 17.451,-47.202 23.352,-72.27c6.561,-27.877 8.043,-56.156 -2.17,-82.812c-46.719,-121.945 -210.584,-176.079 -328.796,-148.021c-54.2,12.864 -101.295,43.217 -152.363,64.108c-23.19,9.487 -48.335,16.344 -71.564,26.239c-25.952,11.055 -49.553,25.793 -66.88,50.017c-18.519,25.891 -28.346,63.886 -32.514,105.208c-5.863,58.122 -1.008,122.914 1.693,165.546c0.448,7.056 5.297,13.061 12.101,14.984c6.803,1.923 14.079,-0.655 18.153,-6.433c29.553,-41.908 72.18,-91.548 80.503,-101.139l0.538,-0.617Zm458.703,84.177c-1.211,-1.184 -2.648,-2.707 -3.798,-4.25c-28.414,-38.1 -51.138,-81.535 -79.141,-119.485c-30.041,-40.713 -65.977,-75.24 -119.091,-92.589c-38.728,-12.65 -79.381,-10.486 -116.542,5.882c-67.476,29.722 -101.53,50.704 -162.467,101.485c-0.104,0.086 -29.362,33.341 -58.473,70.57c-1.861,-35.407 -2.867,-76.585 0.986,-114.786c3.52,-34.9 10.819,-67.293 26.461,-89.161c13.592,-19.002 32.473,-30.07 52.832,-38.742c23.082,-9.833 48.077,-16.627 71.121,-26.054c49.477,-20.241 94.929,-50.064 147.44,-62.528c52.404,-12.438 115.049,-6.819 169.782,15.288c53.646,21.668 99.89,59.241 120.189,112.226c7.798,20.354 5.861,41.963 0.85,63.25c-5.672,24.094 -15.392,47.815 -22.549,69.429c-4.068,12.285 -8.876,54.102 -17.866,85.803c-1.592,5.616 -3.32,10.877 -5.239,15.494c-1.152,2.772 -3.067,5.957 -4.495,8.168Z" style="fill:#7e4021;"/><path d="M1553.42,407.523c-6.808,-5.868 8.867,-61.74 -43.06,-145.768c-48.148,-77.913 -155.183,-175.738 -321.041,-161.777c-90.436,7.612 -173.966,91.154 -242.762,144.83c-67.549,52.703 -152.995,86.454 -206.13,155.667c-14.844,19.334 -88.787,140.018 -56.313,164.214c25.673,19.129 148.323,-81.234 188.434,-88.556c75.713,-13.82 151.438,14.639 227.351,4.499c144.421,-19.291 294.255,-160.98 453.521,-73.109Z" style="fill:#bbc470;"/><path d="M1568.33,400.083c0.355,-8.136 1.632,-73.58 -43.794,-147.09c-50.484,-81.692 -162.712,-184.262 -336.617,-169.623c-38.673,3.255 -76.263,19.228 -112.038,41.22c-50.729,31.185 -97.861,74.529 -139.578,107.078c-68.64,53.554 -155.105,88.327 -209.099,158.657c-10.899,14.198 -52.098,80.533 -64.2,127.738c-3.711,14.477 -4.683,27.482 -2.585,37.504c2.025,9.673 6.677,17.228 13.735,22.487c4.929,3.672 11.377,5.842 19.378,5.716c10.471,-0.166 25.393,-5.045 42.403,-13.446c28.76,-14.205 65.238,-38.314 95.934,-56.48c18.061,-10.688 33.644,-19.485 43.67,-21.315c36.259,-6.619 72.519,-2.903 108.805,1.043c39.218,4.264 78.467,8.829 117.759,3.58c73.279,-9.788 148.042,-50.311 224.577,-77.559c70.988,-25.272 143.734,-38.83 218.687,2.523c7.475,4.124 16.858,1.933 21.734,-5.076c3.575,-5.141 3.878,-11.654 1.229,-16.957Zm-34.644,-20.409c-74.536,-30.136 -147.132,-16.779 -218.185,8.517c-74.304,26.452 -146.669,66.419 -217.811,75.921c-36.621,4.892 -73.191,0.296 -109.742,-3.678c-39.483,-4.294 -78.941,-7.898 -118.395,-0.697c-9.629,1.758 -23.558,7.881 -39.609,16.77c-32.559,18.031 -75.8,47.646 -108.77,63.93c-8.828,4.36 -16.773,7.732 -23.387,9.288c-1.396,0.329 -3.326,0.519 -4.503,0.608c-0.475,-1.022 -0.432,-2.402 -0.558,-3.835c-0.502,-5.723 0.63,-12.6 2.567,-20.157c10.971,-42.791 48.471,-102.847 58.352,-115.717c52.278,-68.095 136.704,-100.823 203.162,-152.675c34.193,-26.678 72.029,-60.8 112.571,-89.175c38.276,-26.79 78.902,-48.616 121.337,-52.188c157.812,-13.284 259.653,79.797 305.465,153.93c29.238,47.314 35.676,85.174 37.506,109.158Z" style="fill:#7e4021;"/><path d="M852.722,501.577c53.266,-31.292 89.424,-62.654 116.205,-86.669c84.469,-75.745 158.184,-113.705 272.228,-103.337c9.161,0.833 17.274,-5.929 18.107,-15.09c0.833,-9.16 -5.929,-17.274 -15.089,-18.107c-124.463,-11.315 -205.313,29.052 -297.499,111.717c-25.553,22.914 -60.013,52.889 -110.836,82.746c-7.932,4.659 -10.588,14.881 -5.929,22.812c4.66,7.931 14.882,10.588 22.813,5.928Z" style="fill:#7e4021;"/><path d="M1787.45,270.115c86.125,-61.519 121.432,-84.762 153.808,-97.049c65.258,-24.764 96.589,-12.749 129.488,6.663c25.377,14.974 51.663,33.346 90.861,45.105c8.81,2.644 18.109,-2.364 20.753,-11.174c2.643,-8.811 -2.364,-18.11 -11.175,-20.753c-36.097,-10.829 -60.13,-28.096 -83.5,-41.886c-40.221,-23.733 -78.472,-39.395 -158.253,-9.119c-33.897,12.863 -71.188,36.681 -161.357,101.089c-7.485,5.347 -9.222,15.764 -3.875,23.25c5.347,7.485 15.764,9.221 23.25,3.874Z" style="fill:#7e4021;"/><path d="M1621.46,958.39c-7.225,-16.037 -79.97,-92.69 -90.549,-107.524c-68.714,-96.357 -175.531,-187.71 -296.16,-236.856c-37.796,-15.398 -77.666,-26.084 -118.08,-25.806c-62.084,0.427 -83.537,40.617 -136.689,48.315c-48.89,7.082 -100.797,-17.762 -150.947,-1.458c-38.103,12.387 -60.041,47.931 -99.697,55.591c-50.665,9.786 -104.068,-5.666 -153.99,13.833c-71.788,28.04 -80.155,91.091 -132.3,132.272c-35.131,27.745 -88.862,23.397 -113.451,75.194c-21.95,46.239 14.317,95.92 4.723,142.674c-11.471,55.899 -85.572,76.478 -100.251,130.549c-11.96,44.052 31.506,88.172 32.462,132.768c0.884,41.17 -46.097,60.308 -51.008,98.528c-5.518,42.936 34.377,99.729 42.59,144c15.353,82.763 -44.167,181.128 33.308,258.192c18.83,18.731 23.188,-26.538 26.806,-35.169c40.642,-96.953 157.089,-30.503 234.217,-83.642c63.663,-43.863 44.68,-114.214 90.378,-153.886c24.615,-21.369 85.962,0.593 118.918,-9.779c42.76,-13.457 33.693,-59.245 64.518,-79.935c36.925,-24.785 98.929,-10.913 137.567,-41.378c56.032,-44.179 9.716,-117.971 42.634,-169.278c31.074,-48.432 131.294,-31.632 174.434,-77.984c42.341,-45.495 23.882,-97.142 42.337,-149.093c12.177,-34.28 64.081,-44.214 86.235,-72.362c18.954,-24.082 17.095,-55.219 30.195,-81.397c33.659,-67.264 236.808,58.554 281.8,93.631Z" style="fill:#bbc470;"/><path d="M1611.22,971.534c6.043,4.711 14.519,4.695 20.544,-0.039c6.025,-4.734 8.046,-12.966 4.899,-19.952c-2.459,-5.457 -11.297,-17.334 -23.222,-31.417c-24.213,-28.594 -61.645,-68.688 -68.954,-78.937c-70.396,-98.716 -179.859,-192.265 -303.441,-242.613c-39.834,-16.229 -81.889,-27.331 -124.482,-27.038c-34.484,0.237 -57.76,11.263 -79.719,23.553c-18.066,10.11 -34.958,21.416 -59.245,24.934c-22.973,3.327 -46.639,-1.132 -70.469,-4.222c-27.798,-3.604 -55.753,-5.529 -83.242,3.408c-20.856,6.78 -37.462,19.609 -54.107,32.08c-13.206,9.895 -26.376,19.67 -43.598,22.997c-24.252,4.684 -49.165,3.166 -73.983,2.972c-28.03,-0.219 -55.921,1.159 -82.91,11.701c-39.434,15.403 -61.659,40.169 -80.976,66.992c-16.705,23.196 -30.82,48.163 -55.589,67.724c-16.407,12.957 -37.334,18.04 -56.853,26.312c-24.411,10.344 -46.963,24.561 -61.325,54.814c-12.619,26.582 -9.407,54.12 -3.516,81.765c4.639,21.773 11.312,43.538 6.969,64.707c-4.993,24.329 -24.542,40.272 -43.513,56.716c-24.347,21.103 -48.298,42.614 -56.497,72.816c-6.952,25.608 1.123,51.415 12.157,77.121c8.631,20.107 19.293,40.095 19.728,60.371c0.349,16.281 -9.789,27.715 -19.476,39.347c-14.293,17.163 -28.535,34.401 -31.401,56.7c-2.513,19.555 2.732,41.726 11.148,64.408c10.748,28.967 26.809,59.005 31.586,84.756c7.428,40.045 -3.706,83.841 -6.877,126.971c-3.618,49.225 2.035,97.441 44.818,139.998c9.361,9.311 18.083,10.274 24.838,8.86c6.72,-1.406 13.206,-6.053 17.878,-14.145c6.008,-10.407 8.914,-29.77 11.215,-35.257c17.295,-41.259 51.564,-46.219 88.871,-48.048c46.808,-2.295 98.249,0.06 139.431,-28.314c35.475,-24.442 48.405,-55.944 58.351,-87.182c7.98,-25.064 13.065,-50.105 33.497,-67.843c3.82,-3.316 9.252,-4.422 15.291,-5.11c8.813,-1.004 18.783,-0.55 28.99,0.14c24.743,1.672 50.62,4.198 68.715,-1.496c26.991,-8.494 38.23,-26.588 46.98,-46.428c5.68,-12.877 9.194,-27.09 21.823,-35.567c16.511,-11.082 38.818,-12.811 61.128,-15.886c27.921,-3.848 55.847,-9.193 77.469,-26.242c32.741,-25.815 36.868,-59.799 36.33,-95.307c-0.41,-27.103 -4.67,-55.175 10.012,-78.059c5.97,-9.305 15.533,-15.113 26.63,-19.693c13.616,-5.621 29.471,-9.205 45.659,-12.811c37.722,-8.404 76.618,-17.661 100.318,-43.126c23.971,-25.755 31.096,-53.099 34.476,-81.511c2.843,-23.902 2.576,-48.614 11.366,-73.357c4.847,-13.646 18.453,-21.551 32.201,-29.741c19.075,-11.364 39.19,-22.345 51.426,-37.893c10.99,-13.963 16.25,-29.838 20.358,-46.15c3.248,-12.898 5.639,-26.094 11.645,-38.096c2.699,-5.395 7.719,-8.06 13.906,-9.321c9.669,-1.971 21.583,-0.809 34.854,2.08c71.83,15.634 177.36,82.758 207.888,106.558Zm-71.494,-84.747c-42.243,-23.412 -90.443,-45.924 -129.305,-54.382c-40.998,-8.923 -72.624,-1.153 -85.659,24.895c-7.094,14.177 -10.323,29.638 -14.159,44.874c-2.977,11.822 -6.263,23.554 -14.227,33.674c-12.284,15.607 -34.857,24.591 -53.066,36.574c-16.335,10.749 -29.722,23.468 -35.779,40.517c-9.665,27.209 -9.929,54.295 -13.055,80.578c-2.59,21.774 -7.405,43 -25.777,62.739c-11.011,11.831 -26.611,18.428 -43.464,23.537c-19.567,5.931 -40.849,9.648 -60.466,14.623c-30.982,7.857 -57.787,19.51 -72.331,42.179c-18.239,28.428 -15.796,62.894 -15.286,96.564c0.383,25.268 -0.34,50.256 -23.639,68.627c-17.018,13.417 -39.408,16.367 -61.382,19.396c-27.586,3.801 -54.738,7.527 -75.154,21.23c-15.173,10.184 -23.046,24.908 -29.734,40.452c-6.343,14.744 -10.535,31.141 -30.499,37.424c-18.353,5.776 -46.189,-0.008 -70.459,-0.67c-22.185,-0.606 -41.852,2.883 -54.382,13.761c-20.719,17.987 -30.23,41.239 -38.176,66.205c-9.499,29.847 -16.227,62.769 -50.732,86.542c-35.95,24.769 -81.29,20.466 -122.151,22.469c-50.369,2.47 -94.63,12.75 -117.981,68.455c-1.421,3.389 -3.115,11.767 -5.399,20.385c-0.226,0.852 -0.46,1.708 -0.708,2.557c-28.677,-32.839 -31.398,-69.769 -28.656,-107.067c3.382,-46.009 14.331,-92.776 6.407,-135.495c-4.289,-23.118 -16.646,-49.58 -27.414,-75.794c-9.117,-22.192 -17.472,-44.061 -15.032,-63.042c2.046,-15.928 13.744,-27.357 23.953,-39.617c14.816,-17.79 27.721,-36.494 27.187,-61.393c-0.521,-24.32 -12.07,-48.687 -22.422,-72.804c-7.95,-18.521 -15.628,-36.789 -10.619,-55.24c6.481,-23.873 26.915,-39.68 46.161,-56.361c24.621,-21.342 47.853,-43.628 54.332,-75.204c5.251,-25.588 -1.412,-52.036 -7.02,-78.354c-4.357,-20.447 -8.305,-40.862 1.028,-60.523c12.565,-26.47 34.659,-34.963 56.312,-43.236c18.543,-7.084 37.038,-13.884 52.412,-26.025c27.376,-21.62 43.516,-48.768 61.978,-74.404c15.85,-22.007 33.702,-42.786 66.056,-55.423c22.933,-8.958 46.704,-9.603 70.522,-9.418c27.031,0.211 54.151,1.526 80.564,-3.576c22.435,-4.333 40.061,-16.159 57.264,-29.049c13.765,-10.312 27.179,-21.449 44.426,-27.056c22.661,-7.367 45.733,-5.022 68.65,-2.051c26.884,3.486 53.616,7.908 79.534,4.154c23.539,-3.41 41.539,-12.375 58.974,-22.176c21.39,-12.026 41.704,-25.735 75.44,-25.967c38.234,-0.263 75.919,10.006 111.677,24.574c117.676,47.943 221.846,137.099 288.878,231.098c3.141,4.404 11.681,14.197 22.378,26.244Z" style="fill:#7e4021;"/><path d="M1591.06,913.487c-2.033,-2.184 -12.968,-13.904 -16.248,-16.944c-10.781,-9.993 -22.125,-19.602 -33.662,-28.988c-34.337,-27.931 -70.628,-54.068 -113.172,-72.149c-127.138,-54.03 -260.261,-34.351 -366.018,21.577c-147.144,77.815 -226.278,200.508 -335.375,308.454c-23.085,22.841 -53.18,39.864 -82.041,57.816c-31.84,19.806 -62.201,40.751 -82.72,69.347c-32.052,44.67 -49.226,97.552 -69.857,148.551c-19.059,47.116 -41.144,92.649 -84.397,126.557c-7.239,5.675 -8.509,16.16 -2.834,23.399c5.676,7.24 16.16,8.509 23.4,2.834c48.132,-37.734 73.522,-87.858 94.732,-140.289c19.639,-48.546 35.529,-99.098 66.039,-141.62c18.055,-25.162 45.225,-43.046 73.243,-60.474c30.997,-19.281 63.086,-37.894 87.88,-62.426c106.776,-105.65 183.499,-226.522 327.513,-302.682c97.496,-51.559 220.191,-70.175 337.398,-20.366c39.585,16.823 73.225,41.34 105.174,67.33c10.979,8.931 21.779,18.067 32.038,27.576c3.305,3.063 14.221,14.916 15.083,15.823c18.791,19.752 59.092,15.657 24.323,-22.801l-0.499,-0.525Zm-24.852,22.146l0.022,0.026l-0.088,-0.113l0.066,0.087Zm-3.607,-11.917c-0.234,1.886 -0.133,4.191 0.797,6.779c-0.736,-2.194 -1,-4.506 -0.797,-6.779Zm10.194,-13.915c-1.664,0.635 -3.1,1.53 -4.331,2.643c1.333,-1.125 2.795,-2.005 4.331,-2.643Z" style="fill:#7e4021;"/><path d="M510.896,1369.05c-3.325,19.216 -4.999,41.546 -1.21,62.578c9.148,50.788 14.703,97.825 10.796,148.137c-0.713,9.171 6.155,17.195 15.326,17.907c9.171,0.712 17.195,-6.155 17.907,-15.326c4.13,-53.191 -1.552,-102.934 -11.224,-156.627c-7.276,-40.392 9.894,-86.252 12.805,-95.271c4.626,-14.334 -7.247,-21.399 -8.223,-21.866c-0.157,-0.076 -9.268,-4.766 -18.624,2.825c-5.344,4.335 -31.749,26.232 -32.794,27.125c-22.532,19.253 -53.042,31.442 -82.243,44.989c-33.181,15.394 -64.696,32.524 -85.011,59.366c-5.551,7.334 -4.103,17.796 3.231,23.347c7.335,5.552 17.797,4.104 23.348,-3.231c17.165,-22.679 44.424,-36.237 72.461,-49.244c29.324,-13.605 59.595,-26.427 83.455,-44.709Z" style="fill:#7e4021;"/><path d="M641.996,1206.93c-5.466,18.888 -5.601,40.184 -3.478,59.695c3.289,30.225 25.465,63.709 37.532,99.267c7.383,21.758 17.389,44.041 20.566,66.201c0.831,5.801 1.346,11.373 -0.485,16.765c-2.958,8.71 1.713,18.183 10.423,21.141c8.71,2.958 18.183,-1.713 21.14,-10.423c3.524,-10.375 3.518,-21.052 1.918,-32.213c-3.458,-24.122 -13.959,-48.498 -21.997,-72.183c-11.248,-33.146 -32.893,-63.985 -35.959,-92.161c-2.481,-22.795 -3.521,-49.721 12.809,-65.811c6.18,-6.088 5.592,-12.386 4.229,-16.797c-1.13,-3.66 -3.629,-8.722 -10.998,-11.004c-0.354,-0.11 -3.492,-1.279 -9.068,-0.307c-7.728,1.347 -50.552,9.478 -106.595,10.039c-37.606,0.377 -67.879,11.374 -96.998,25.654c-26.547,13.018 -52.058,28.91 -82.324,40.503c-8.59,3.29 -12.892,12.935 -9.602,21.525c3.29,8.59 12.936,12.893 21.526,9.603c31.254,-11.972 57.662,-28.259 85.076,-41.703c24.842,-12.182 50.572,-21.929 82.655,-22.25c31.805,-0.318 59.558,-2.953 79.63,-5.541Z" style="fill:#7e4021;"/><path d="M859.241,1302.23c4.021,-8.826 6.41,-18.325 8.116,-27.833c3.913,-21.821 5.449,-44.173 6.131,-66.517c0.86,-28.202 -12.687,-78.455 -17.043,-122.037c-1.291,-12.916 -1.734,-25.175 -0.373,-35.835c1.042,-8.157 2.928,-15.264 7.211,-20.252c5.993,-6.978 5.194,-17.509 -1.785,-23.502c-6.978,-5.993 -17.509,-5.193 -23.502,1.785c-14.69,17.104 -18.107,47.228 -14.719,81.119c4.204,42.058 17.723,90.49 16.893,117.705c-0.632,20.708 -1.997,41.428 -5.623,61.65c-1.217,6.782 -2.771,13.601 -5.639,19.897c-3.814,8.37 -0.114,18.263 8.257,22.076c8.37,3.814 18.263,0.114 22.076,-8.256Z" style="fill:#7e4021;"/><path d="M528.941,1065.24c30.393,-7.74 60.333,-8.423 89.248,-7.485c24.537,0.796 62.761,-9.404 101.764,-14.861c33.357,-4.668 67.601,-6.469 91.384,11.347c7.362,5.515 17.816,4.016 23.331,-3.346c5.515,-7.362 4.016,-17.817 -3.346,-23.332c-24.675,-18.484 -57.685,-22.758 -92.128,-20.271c-44.656,3.224 -91.697,18.063 -119.924,17.147c-31.937,-1.036 -64.987,-0.05 -98.556,8.499c-8.914,2.27 -14.308,11.35 -12.038,20.264c2.271,8.914 11.351,14.308 20.265,12.038Z" style="fill:#7e4021;"/><path d="M1013.2,856.758c-3.053,3.824 -6.132,7.757 -8.951,11.48c-9.729,12.849 -18.088,26.376 -21.037,36.796c-8.392,29.656 -8.734,59.668 -10.11,89.556c-1.222,26.525 -3.252,52.974 -15.057,78.774c-3.828,8.365 -0.144,18.263 8.22,22.09c8.365,3.828 18.263,0.144 22.09,-8.22c13.672,-29.879 16.63,-60.392 18.045,-91.111c1.26,-27.356 1.204,-54.868 8.886,-82.012c2.703,-9.555 12.484,-22.137 21.594,-33.511c11.508,-14.366 22.524,-27.018 24.898,-31.494c3.434,-6.472 2.396,-11.635 1.537,-14.299c-1.737,-5.385 -5.299,-9.198 -11.129,-11.019c-5.241,-1.637 -13.009,-2.299 -21.853,-1.947c-15.309,0.61 -34.856,3.999 -44.454,4.4c-74.157,3.099 -145.7,-9.374 -218.816,3.697c-25.43,4.546 -50.253,10.41 -73.551,19.211c-8.475,3.201 -16.751,6.75 -24.523,10.909c-8.11,4.34 -11.171,14.449 -6.83,22.559c4.34,8.11 14.449,11.171 22.559,6.83c6.516,-3.487 13.469,-6.432 20.574,-9.116c21.417,-8.091 44.259,-13.401 67.637,-17.58c71.618,-12.803 141.703,-0.171 214.342,-3.205c5.962,-0.25 15.705,-1.62 25.929,-2.788Z" style="fill:#7e4021;"/><path d="M1723.1,808.323c20.039,-10.333 41.197,-9.24 47.218,2.437c6.021,11.677 -5.361,29.546 -25.4,39.879c-20.04,10.332 -41.198,9.24 -47.218,-2.437c-6.021,-11.678 5.36,-29.547 25.4,-39.879Z" style="fill:#7e4021;"/><path d="M1886.63,1389.23c202.084,-68.943 14.25,-298.649 -88.446,-262.865c-83.886,29.23 -86.619,112.203 -58.967,170.867c28.034,59.472 89.282,111.829 147.413,91.998Z" style="fill:#fee4a8;"/><path d="M1892.01,1405c54.873,-18.72 83.568,-48.817 95.05,-81.823c17.041,-48.985 -4.432,-106.887 -42.633,-150.572c-24.822,-28.385 -56.369,-50.609 -87.208,-60.627c-22.56,-7.328 -44.85,-8.209 -64.52,-1.355c-95.363,33.229 -99.994,127.022 -68.558,193.712c18.398,39.032 50.111,75.046 86.084,93.1c26.003,13.049 54.207,16.974 81.785,7.566l0,-0.001Zm-10.763,-31.547c-24.032,8.198 -48.562,0.727 -70.129,-14.193c-23.783,-16.454 -44.045,-42.022 -56.826,-69.137c-23.871,-50.643 -23.041,-122.789 49.375,-148.022c13.193,-4.597 28.123,-3.336 43.253,1.58c25.695,8.347 51.733,27.216 72.415,50.866c30.057,34.373 49.65,79.135 36.242,117.677c-8.816,25.344 -32.196,46.854 -74.33,61.229Z" style="fill:#7e4021;"/><path d="M1585.05,620.129c-2.834,211.436 234.801,132.287 235.643,24.539c0.687,-88.011 -64.899,-123.649 -119.759,-121.925c-55.615,1.749 -115.068,36.565 -115.884,97.386Z" style="fill:#fee4a8;"/><path d="M1568.38,619.905c-0.958,71.49 24.112,112.812 57.415,133.323c39.219,24.156 92.018,19.806 135.075,-2.347c43.576,-22.42 76.145,-62.661 76.484,-106.083c0.784,-100.383 -74.377,-140.68 -136.949,-138.713c-64.044,2.013 -131.086,43.78 -132.025,113.82l0,0Zm33.33,0.447c0.692,-51.615 52.546,-79.466 99.743,-80.95c47.149,-1.483 103.159,29.495 102.568,105.136c-0.25,32.009 -26.278,60.175 -58.401,76.703c-32.639,16.793 -72.615,21.916 -102.344,3.605c-25.8,-15.89 -42.308,-49.11 -41.566,-104.494l0,-0Z" style="fill:#7e4021;"/><path d="M1573.52,1356.9c-68.188,-184.02 -276.962,-26.837 -241.616,66.715c28.871,76.415 105.793,82.775 159.546,60.807c54.493,-22.27 101.685,-74.588 82.07,-127.522Z" style="fill:#dae1a4;"/><path d="M1589.15,1351.11c-21.716,-58.606 -56.895,-85.866 -94.079,-93.728c-54.793,-11.585 -116.546,20.631 -152.448,65.354c-26.991,33.621 -38.779,73.764 -26.308,106.77c32.906,87.095 120.177,95.383 181.442,70.345c36.424,-14.886 69.647,-42.14 85.895,-74.045c11.838,-23.243 15.05,-48.919 5.498,-74.696l0,-0Zm-31.256,11.582c7.8,21.049 1.7,41.864 -11.15,59.742c-14.437,20.085 -37.253,36.612 -61.597,46.561c-46.244,18.899 -112.812,14.47 -137.65,-51.27c-4.371,-11.567 -3.572,-24.39 0.498,-37.193c7.013,-22.055 23.583,-43.888 44.541,-60.86c30.78,-24.926 71.436,-39.968 106.944,-26.342c23.667,9.083 44.196,30.993 58.414,69.362l-0,0Z" style="fill:#7e4021;"/><path d="M1575.07,560.242c-99.911,-22.245 -157.498,23.096 -174.565,109.439c-13.603,68.82 33.269,124.486 75.001,133.473c75.767,16.316 128.353,-46.189 145.11,-104.059c16.988,-58.667 6.7,-127.221 -45.546,-138.853Z" style="fill:#ee909d;"/><path d="M1578.69,543.973c-55.431,-12.341 -99.016,-5.068 -131.217,16.401c-32.365,21.578 -53.803,57.926 -63.321,106.075c-15.675,79.303 39.755,142.642 87.844,152.998c85.383,18.387 145.743,-50.502 164.627,-115.717c11.346,-39.181 11.169,-82.311 -2.875,-113.353c-10.606,-23.442 -28.707,-40.537 -55.057,-46.404l-0.001,0Zm-7.244,32.537c19.793,4.407 30.976,20.209 36.264,39.853c6.261,23.258 4.515,51.781 -3.105,78.096c-14.632,50.532 -59.433,106.649 -125.592,92.402c-35.381,-7.619 -73.692,-55.603 -62.16,-113.948c7.55,-38.196 23.437,-67.688 49.111,-84.805c25.84,-17.228 61,-21.502 105.482,-11.598l0,-0Z" style="fill:#7e4021;"/><path d="M1889.97,1315.99c-17.675,9.157 -37.248,7.141 -43.682,-4.499c-6.434,-11.64 2.691,-28.525 20.366,-37.682c17.674,-9.157 37.247,-7.142 43.682,4.498c6.434,11.641 -2.692,28.525 -20.366,37.683Z" style="fill:#7e4021;"/><path d="M1685.87,641.948c-1.594,-16.509 9.279,-31.419 24.266,-33.274c14.987,-1.856 28.448,10.04 30.042,26.549c1.594,16.509 -9.279,31.419 -24.265,33.274c-14.987,1.856 -28.449,-10.041 -30.043,-26.549Z" style="fill:#7e4021;"/><path d="M1442.88,1387.66c8.548,16.432 5.32,34.919 -7.204,41.26c-12.523,6.341 -29.63,-1.852 -38.178,-18.283c-8.548,-16.431 -5.32,-34.919 7.204,-41.26c12.523,-6.34 29.63,1.852 38.178,18.283Z" style="fill:#7e4021;"/><path d="M1522.28,661.313c17.744,1.503 29.732,14.203 26.754,28.343c-2.979,14.139 -19.804,24.398 -37.549,22.895c-17.745,-1.503 -29.733,-14.203 -26.754,-28.343c2.979,-14.139 19.804,-24.398 37.549,-22.895Z" style="fill:#7e4021;"/><path d="M1880.73,1019.98c-132.067,-200.73 -334.668,68.605 -257.014,161.831c64.202,77.075 163.429,38.632 205.8,9.389c54.836,-37.847 89.203,-113.479 51.214,-171.22Z" style="fill:#dae1a4;"/><path d="M1894.65,1010.82c-35.37,-53.759 -75.92,-76.379 -114.946,-79.678c-58.021,-4.905 -114.807,34.089 -150.811,86.14c-23.664,34.211 -38.232,73.705 -39.029,108.521c-0.586,25.563 6.123,48.763 21.043,66.676c71.182,85.455 181.096,44.861 228.073,12.439c61.957,-42.762 98.593,-128.859 55.67,-194.098l0,-0Zm-27.847,18.321c33.063,50.253 0.967,115.405 -46.757,148.343c-37.768,26.067 -126.299,62.364 -183.527,-6.339c-9.929,-11.921 -13.72,-27.567 -13.331,-44.579c0.665,-29.042 13.379,-61.784 33.119,-90.321c29.104,-42.076 73.688,-75.853 120.589,-71.888c30.921,2.614 61.883,22.189 89.907,64.784l0,0Z" style="fill:#7e4021;"/><path d="M1822.1,1031.16c15.167,16.682 19.589,37.402 9.867,46.24c-9.721,8.838 -29.927,2.469 -45.094,-14.214c-15.167,-16.682 -19.588,-37.402 -9.867,-46.24c9.722,-8.838 29.928,-2.469 45.094,14.214Z" style="fill:#7e4021;"/><path d="M1614.61,3042.17c-10.312,22.096 -33.96,28.899 -48.083,-4.984c-12.998,-31.182 -19.098,-149.499 -22.374,-174.793c-43.08,-332.622 -39.504,-919.748 0.789,-1252.16c31.23,-257.642 74.696,-934.625 -28.834,-1178.96c-20.181,-47.628 -62.229,-88.395 -98.79,-123.738c-2.505,-2.422 -25.446,-19.196 -24.697,-22.566c1.786,-8.04 55.171,16.723 58.546,18.429c41.397,20.926 74.761,47.462 103.93,83.495c3.546,4.38 28.92,47.692 31.342,47.389c4.689,-0.586 77.507,-200.669 128.502,-210.868c1.649,-0.33 -4.577,17.884 -5.015,19.181c-34.7,102.815 -58.717,206.762 -65.066,315.174c-13.163,224.779 -2.078,461.262 -9.511,685.504c-13.115,395.627 -100.697,756.551 -59.722,1153.89c17.647,171.132 46.523,628.852 38.983,645.009Z" style="fill:#a8b54b;"/><path d="M1583.97,400.672c-6.987,-10.934 -14.347,-22.319 -15.921,-24.264c-30.698,-37.92 -65.799,-65.86 -109.365,-87.882c-2.952,-1.493 -40.998,-18.869 -57.061,-21.359c-16.158,-2.505 -23.702,7.114 -25.274,14.189c-0.725,3.262 -0.734,10.887 6.005,18.264c5.763,6.309 21.305,17.896 23.378,19.9c35.031,33.863 75.692,72.624 95.028,118.257c30.524,72.038 47.761,182.396 56.506,308.362c20.689,297.978 -7.091,682.396 -28.871,862.087c-40.427,333.516 -43.996,922.587 -0.773,1256.31c3.358,25.923 10.198,147.107 23.519,179.065c10.866,26.067 27.481,34.082 41.277,33.732c14.333,-0.363 29.051,-10.452 37.293,-28.113c0.722,-1.547 1.774,-4.689 2.224,-9.509c0.782,-8.366 0.718,-27.705 -0.134,-54.917c-4.104,-131.189 -25.451,-452.158 -39.598,-589.341c-40.894,-396.561 46.712,-756.771 59.801,-1151.63c7.429,-224.104 -3.662,-460.441 9.492,-685.082c6.261,-106.917 29.998,-209.421 64.219,-310.819c0.346,-1.024 3.956,-11.684 5.291,-17.433c0.819,-3.527 0.933,-6.348 0.831,-7.814c-0.534,-7.665 -4.858,-11.432 -7.871,-13.336c-3.457,-2.183 -7.501,-3.229 -12.296,-2.27c-7.864,1.572 -16.297,5.929 -24.727,13.126c-9.811,8.378 -20.089,20.957 -30.181,36.098c-28.783,43.184 -57.005,108.255 -72.792,144.375Zm95.725,-118.47c-27.342,89.616 -45.962,180.449 -51.475,274.595c-13.171,224.917 -2.093,461.546 -9.531,685.926c-13.14,396.399 -100.697,758.037 -59.643,1156.15c14.09,136.629 35.35,456.303 39.438,586.964c0.768,24.541 0.277,46.449 0.156,50.995c-1.016,1.869 -2.188,3.52 -3.513,4.866c-1.124,1.141 -2.186,2.278 -3.554,2.313c-1.235,0.031 -2.138,-1.132 -3.311,-2.415c-2.337,-2.558 -4.414,-6.167 -6.354,-10.82c-12.674,-30.407 -18.034,-145.857 -21.228,-170.522c-42.938,-331.52 -39.354,-916.702 0.806,-1248.02c21.94,-181.008 49.874,-568.245 29.034,-868.406c-9.053,-130.38 -27.475,-244.497 -59.068,-319.058c-15.099,-35.634 -41.753,-67.736 -69.685,-96.638c31.045,18.173 57.12,40.521 80.374,69.247c3.222,3.98 24.351,39.764 30.316,46.666c6.426,7.434 13.676,7.07 16.047,6.774c2.545,-0.318 6.819,-1.253 10.824,-5.818c1.62,-1.846 6.427,-10.991 12.649,-25.218c13.947,-31.893 40.171,-93.887 67.718,-137.584Z" style="fill:#7e4021;"/><path d="M1566.72,812.769c-229.04,-72.627 -216.615,264.173 -97.57,287.62c98.42,19.385 151.238,-72.996 165.707,-122.403c18.726,-63.943 -2.253,-144.325 -68.137,-165.217Z" style="fill:#ee909d;"/><path d="M1571.75,796.882c-61.341,-19.451 -107.081,-11.459 -139.461,10.574c-48.14,32.756 -67.658,98.817 -62.81,161.922c3.186,41.475 16.763,81.321 38.085,108.856c15.655,20.216 35.484,34.003 58.358,38.508c109.121,21.492 168.881,-79.293 184.923,-134.072c21.158,-72.246 -4.654,-162.183 -79.094,-185.788l-0.001,0Zm-10.075,31.774c57.34,18.182 73.477,88.996 57.18,144.646c-12.897,44.04 -58.762,128.014 -146.492,110.735c-15.222,-2.998 -28.026,-12.758 -38.443,-26.211c-17.787,-22.97 -28.548,-56.403 -31.206,-91.001c-3.918,-51.01 9.413,-105.333 48.327,-131.811c25.656,-17.457 62.032,-21.769 110.634,-6.358l0,0Z" style="fill:#7e4021;"/><path d="M1414.29,1637.42c137.529,197.027 332.657,-77.771 252.471,-168.829c-66.293,-75.283 -164.428,-34.129 -205.979,-3.734c-53.776,39.339 -86.053,115.887 -46.492,172.563Z" style="fill:#ee909d;"/><path d="M1400.62,1646.96c36.833,52.768 77.99,74.265 117.092,76.491c58.133,3.31 113.827,-37.229 148.388,-90.249c22.715,-34.848 36.193,-74.727 36.034,-109.552c-0.117,-25.569 -7.46,-48.577 -22.867,-66.073c-73.502,-83.468 -182.259,-39.871 -228.328,-6.17c-60.759,44.447 -95.017,131.517 -50.319,195.553l0,0Zm27.333,-19.079c-34.43,-49.325 -4.135,-115.334 42.666,-149.571c37.038,-27.094 124.538,-65.809 183.631,1.296c10.253,11.644 14.473,27.18 14.551,44.196c0.133,29.05 -11.677,62.128 -30.626,91.197c-27.937,42.859 -71.577,77.848 -118.569,75.173c-30.981,-1.764 -62.469,-20.481 -91.653,-62.291l0,0Z" style="fill:#7e4021;"/><path d="M1931.81,1446.05c-164.637,-175.01 -317.871,125.17 -225.332,203.644c76.506,64.878 167.639,9.933 204.345,-26.165c47.505,-46.718 68.346,-127.136 20.987,-177.479Z" style="fill:#ee909d;"/><path d="M1943.95,1434.63c-44.093,-46.871 -87.932,-62.175 -126.943,-58.709c-57.999,5.152 -107.228,53.335 -133.739,110.806c-17.423,37.772 -24.978,79.184 -19.773,113.618c3.822,25.282 14.423,46.982 32.204,62.06c84.824,71.932 186.113,13.03 226.81,-26.993c53.675,-52.784 74.949,-143.901 21.441,-200.782l-0,0Zm-24.279,22.84c41.217,43.814 20.81,113.517 -20.534,154.176c-32.719,32.177 -113.683,83.167 -181.88,25.336c-11.832,-10.034 -18.259,-24.795 -20.803,-41.619c-4.342,-28.724 2.548,-63.165 17.083,-94.674c21.429,-46.455 59.536,-87.401 106.419,-91.566c30.911,-2.746 64.779,11.21 99.715,48.347l-0,0Z" style="fill:#7e4021;"/><path d="M1528.24,858.393c22.289,3.395 38.78,16.696 36.801,29.685c-1.978,12.988 -21.68,20.777 -43.97,17.382c-22.289,-3.395 -38.779,-16.696 -36.801,-29.685c1.978,-12.988 21.681,-20.777 43.97,-17.382Z" style="fill:#7e4021;"/><path d="M1472.58,1624.64c-15.619,-16.26 -20.608,-36.85 -11.133,-45.952c9.475,-9.102 29.848,-3.29 45.467,12.97c15.62,16.259 20.608,36.849 11.133,45.951c-9.475,9.102 -29.848,3.29 -45.467,-12.969Z" style="fill:#7e4021;"/><path d="M1875.99,1467.15c17.811,13.824 25.732,33.473 17.676,43.852c-8.055,10.379 -29.056,7.582 -46.867,-6.242c-17.811,-13.823 -25.732,-33.473 -17.676,-43.852c8.055,-10.379 29.056,-7.582 46.867,6.242Z" style="fill:#7e4021;"/><path d="M1545.72,1547.61c-13.825,-19.942 -124.126,-99.134 -141.423,-115.937c-112.35,-109.143 -267.089,-195.028 -423.432,-214.571c-48.987,-6.123 -98.767,-4.613 -145.441,12.843c-71.702,26.818 -82.836,93.493 -141.723,126.965c-54.167,30.79 -122.701,17.081 -175.183,61.624c-39.873,33.842 -53.152,94.063 -96.435,121.783c-55.298,35.415 -122.363,35.803 -173.492,84.831c-73.524,70.503 -61.724,164.43 -108.039,245.481c-31.204,54.606 -94.865,71.052 -105.673,155.692c-9.647,75.558 49.25,131.478 54.076,202.559c5.771,84.985 -72.973,145.765 -71.537,229.483c1.169,68.206 66.502,113.114 82.803,176.647c15.049,58.652 -32.799,105.921 -25.461,162.79c8.244,63.886 73.763,128.471 98.35,188.476c45.965,112.177 10.6,278.326 126.515,356.111c28.173,18.905 17.792,-47.835 19.039,-61.737c14,-156.157 171.399,-110.039 242.551,-218.781c58.73,-89.757 12.793,-182.606 52.161,-258.774c21.205,-41.027 99.682,-35.434 134.288,-64.215c44.899,-37.342 18.805,-99.161 47.428,-141.836c34.288,-51.119 110.769,-57.402 145.103,-117.389c49.791,-86.991 -28.95,-173.236 -8.336,-260.689c19.459,-82.554 141.163,-100.771 175.295,-185.434c33.5,-83.098 -5.459,-149.353 -1.803,-231.624c2.413,-54.287 59.095,-90.438 75.143,-140.146c13.729,-42.526 0.969,-86.383 7.21,-129.444c16.035,-110.643 293.998,-16.006 358.016,15.292Z" style="fill:#bbc470;"/><path d="M1538.4,1562.58c6.815,3.331 15.021,1.641 19.964,-4.114c4.942,-5.754 5.376,-14.121 1.053,-20.355c-4.573,-6.597 -18.463,-19.35 -36.543,-34.085c-37.858,-30.853 -94.984,-72.672 -106.964,-84.31c-114.855,-111.577 -273.148,-199.176 -432.978,-219.154c-51.656,-6.457 -104.129,-4.638 -153.347,13.77c-39.155,14.644 -62.042,39.835 -82.91,66.271c-17.804,22.553 -33.776,46.22 -61.21,61.815c-25.509,14.5 -54.509,18.149 -83.203,23.79c-33.18,6.523 -65.948,15.359 -94.529,39.616c-21.298,18.077 -35.777,42.986 -50.428,67.29c-12.363,20.509 -24.701,40.67 -44.21,53.165c-26.552,17.005 -56.01,25.406 -84.887,35.636c-32.23,11.418 -63.752,24.926 -91.153,51.2c-39.136,37.529 -55.915,81.102 -68.722,126.268c-11.668,41.151 -19.79,83.666 -42.252,122.974c-14.861,26.007 -37.733,42.669 -57.895,63.165c-23.422,23.81 -43.86,51.856 -49.839,98.685c-5.23,40.961 7.56,76.714 22.871,111.744c13.354,30.554 28.827,60.445 31.109,94.055c2.67,39.329 -14.929,72.843 -32.316,106.425c-20.056,38.738 -40.024,77.523 -39.258,122.215c0.642,37.405 18.227,68.678 38.537,99.054c17.466,26.123 37.099,51.485 44.787,81.449c6.65,25.916 -1.333,49.226 -9.431,72.43c-10.015,28.697 -20.425,57.275 -16.415,88.351c4.41,34.183 23.665,68.768 45.585,102.619c19.899,30.729 41.93,60.898 53.872,90.044c22.56,55.056 24.846,123.417 36.03,187.498c12.185,69.817 34.636,134.538 96.62,176.132c9.295,6.238 17.059,6.887 22.911,5.675c7.448,-1.542 13.704,-6.297 17.717,-14.704c3.464,-7.255 5.108,-18.895 5.228,-31.165c0.134,-13.686 -1.434,-28.274 -0.93,-33.893c6.262,-69.853 45.123,-94.049 89.85,-113.358c52.799,-22.794 112.475,-40.364 150.048,-97.786c31.32,-47.867 35.229,-96.434 36.059,-143.314c0.731,-41.313 -1.541,-81.137 16.961,-116.933c3.748,-7.252 10.292,-12.155 17.985,-16.181c9.9,-5.182 21.654,-8.77 33.754,-12.104c29.001,-7.99 59.532,-15.077 78.4,-30.769c26.193,-21.784 32.625,-50.293 35.737,-79.996c2.383,-22.751 2.085,-46.3 14.876,-65.37c15.689,-23.391 41.466,-35.952 66.815,-50.1c30.28,-16.9 60.143,-35.504 78.911,-68.293c27.266,-47.638 20.395,-95.012 8.474,-142.509c-10.236,-40.781 -24.746,-81.517 -15.053,-122.636c8.789,-37.287 41.812,-59.009 75.348,-82.004c39.821,-27.305 80.878,-55.617 99.183,-101.023c17.978,-44.596 16.814,-84.646 11.345,-124.613c-4.964,-36.273 -13.737,-72.428 -11.956,-112.502c1.057,-23.776 14.723,-43.247 29.156,-62.55c17.594,-23.529 36.631,-46.68 45.197,-73.216c7.469,-23.134 7.966,-46.606 7.211,-70.175c-0.662,-20.686 -2.347,-41.438 0.633,-61.998c3.704,-25.558 27.18,-34.505 57.293,-37.196c88.473,-7.907 233.462,43.829 276.909,65.07Zm-77.058,-64.654c-64.281,-20.276 -144.958,-38.789 -202.818,-33.617c-48.149,4.303 -81.392,24.75 -87.314,65.616c-3.261,22.5 -1.686,45.207 -0.961,67.846c0.632,19.757 0.645,39.475 -5.616,58.867c-7.481,23.173 -24.808,42.95 -40.171,63.496c-18.525,24.774 -34.405,50.516 -35.761,81.031c-1.875,42.197 7.003,80.306 12.23,118.502c4.721,34.503 6.286,69.129 -9.235,107.63c-15.828,39.26 -52.686,62.385 -87.117,85.994c-40.72,27.921 -78.271,56.575 -88.942,101.848c-10.922,46.335 3.632,92.445 15.166,138.399c9.849,39.24 17.454,78.478 -5.073,117.835c-15.567,27.199 -41.109,41.727 -66.226,55.746c-30.049,16.771 -59.654,32.909 -78.253,60.639c-15.835,23.607 -17.395,52.298 -20.345,80.464c-2.223,21.217 -5.19,42.28 -23.9,57.841c-8.821,7.337 -21.151,11.713 -34.362,15.651c-15.692,4.676 -32.61,8.451 -48.003,13.505c-24.864,8.162 -45.701,20.156 -56.071,40.221c-20.867,40.372 -19.853,85.054 -20.678,131.648c-0.726,41.027 -3.213,83.762 -30.623,125.653c-33.581,51.322 -88.177,65.061 -135.367,85.434c-55.262,23.857 -102.101,54.678 -109.838,140.984c-0.521,5.812 0.796,20.462 0.807,34.683c0.002,2.964 -0.318,6.615 -0.707,9.92c-48.701,-36.328 -65.462,-91.259 -75.609,-149.402c-11.604,-66.484 -14.617,-137.285 -38.023,-194.406c-12.645,-30.86 -35.667,-62.986 -56.736,-95.523c-19.048,-29.414 -36.673,-59.063 -40.506,-88.767c-3.329,-25.795 6.515,-49.282 14.828,-73.102c10.23,-29.312 18.647,-58.959 10.247,-91.697c-8.614,-33.57 -29.797,-62.426 -49.365,-91.693c-16.725,-25.014 -32.39,-50.295 -32.918,-81.098c-0.669,-39.027 18.016,-72.488 35.531,-106.318c20.184,-38.985 39.071,-78.351 35.97,-124.008c-2.544,-37.473 -18.933,-71.081 -33.822,-105.146c-12.933,-29.59 -24.767,-59.574 -20.349,-94.173c5.864,-45.921 29.407,-69.372 53.019,-91.668c18.59,-17.555 37.262,-34.54 50.592,-57.866c23.853,-41.744 32.988,-86.717 45.379,-130.419c11.253,-39.685 25.336,-78.327 59.724,-111.301c23.728,-22.753 51.303,-33.953 79.213,-43.84c31.263,-11.075 62.987,-20.575 91.733,-38.986c23.775,-15.227 39.715,-39.033 54.781,-64.026c12.778,-21.198 24.874,-43.319 43.45,-59.085c23.902,-20.287 51.64,-26.867 79.39,-32.323c32.236,-6.337 64.586,-11.228 93.244,-27.518c31.453,-17.879 50.49,-44.284 70.902,-70.141c17.346,-21.975 35.876,-43.53 68.423,-55.703c44.131,-16.506 91.219,-17.705 137.535,-11.916c152.857,19.108 304.043,103.279 413.887,209.988c8.366,8.127 38.241,30.731 68.658,54.301Z" style="fill:#7e4021;"/><path d="M1494.83,1504.05c-3.203,-2.352 -19.603,-14.361 -24.38,-17.301c-15.843,-9.752 -32.204,-18.718 -48.714,-27.283c-49.2,-25.525 -100.071,-47.651 -155.406,-55.606c-164.989,-23.719 -312.092,59.982 -415.081,184.39c-143.239,173.029 -192.698,381.77 -281.842,581.838c-19.173,43.029 -48.514,80.707 -76.143,119.107c-29.434,40.91 -56.948,82.627 -70.641,131.188c-21.637,76.739 -23.345,158.947 -29.774,239.893c-6.147,77.387 -16.606,153.641 -56.021,222.097c-4.59,7.972 -1.844,18.17 6.128,22.76c7.971,4.59 18.17,1.844 22.76,-6.127c41.932,-72.83 53.822,-153.76 60.361,-236.09c6.257,-78.77 7.573,-158.811 28.629,-233.487c12.63,-44.794 38.465,-83.029 65.616,-120.766c28.957,-40.247 59.438,-79.91 79.532,-125.009c87.903,-197.282 135.827,-403.527 277.071,-574.148c95.606,-115.489 231.501,-194.671 384.662,-172.652c51.602,7.419 98.917,28.398 144.798,52.201c15.789,8.191 31.441,16.754 46.591,26.08c4.901,3.017 21.679,15.475 22.994,16.417c21.912,15.688 60.639,4.157 19.596,-26.976c-0.242,-0.183 -0.488,-0.359 -0.736,-0.526Zm-20.172,26.467l0.005,0.003l-0.013,-0.012l0.008,0.009Z" style="fill:#7e4021;"/><path d="M402.743,2591.47c2.072,30.652 7.366,67.449 20.121,98.983c28.23,69.79 50.908,135.705 63.682,210.383c1.551,9.067 10.171,15.169 19.238,13.618c9.067,-1.551 15.169,-10.171 13.618,-19.238c-13.189,-77.107 -36.489,-145.202 -65.637,-217.262c-23.007,-56.878 -18.859,-132.515 -18.553,-147.2c0.115,-5.468 -1.003,-8.584 -1.261,-9.22c-3.017,-7.445 -8.54,-9.383 -12.204,-10.116c-0.165,-0.033 -12.115,-2.09 -18.662,9.693c-4.689,8.441 -27.704,50.827 -28.606,52.542c-19.8,37.651 -51.347,68.605 -80.947,100.813c-32.283,35.128 -62.298,71.683 -76.284,117.503c-2.686,8.798 2.277,18.121 11.074,20.806c8.798,2.686 18.121,-2.277 20.807,-11.074c12.514,-40.997 40.062,-73.25 68.946,-104.68c30.962,-33.689 63.516,-66.418 84.668,-105.551Z" style="fill:#7e4021;"/><path d="M500.526,2307.16c-1.911,30.887 5.726,64.069 15.453,92.997c13.928,41.423 50.688,79.325 76.442,124.639c16.222,28.542 35.644,56.818 47.056,87.75c3.538,9.592 6.272,19.057 5.933,29.297c-0.305,9.193 6.911,16.905 16.105,17.21c9.194,0.304 16.905,-6.912 17.21,-16.106c0.484,-14.624 -2.922,-28.239 -7.975,-41.938c-12.034,-32.62 -32.242,-62.584 -49.349,-92.684c-24.636,-43.346 -60.504,-79.168 -73.827,-118.792c-11.637,-34.608 -21.884,-76.521 -7.207,-109.298c2.894,-6.461 1.237,-11.415 -0.519,-14.691c-2.239,-4.179 -6.257,-8.655 -14.409,-8.796c-0.425,-0.007 -4.575,-0.304 -10.4,3.262c-8.501,5.203 -55.378,34.998 -120.169,59.505c-42.899,16.226 -73.902,44.442 -102.407,76.833c-26.391,29.99 -50.6,63.648 -81.8,93.161c-6.682,6.322 -6.976,16.879 -0.654,23.561c6.321,6.683 16.878,6.976 23.561,0.655c31.966,-30.238 56.877,-64.629 83.917,-95.355c24.925,-28.324 51.664,-53.489 89.176,-67.678c38.732,-14.65 71.351,-31.098 93.863,-43.532Z" style="fill:#7e4021;"/><path d="M777.431,2360.7c1.538,-13.407 1.055,-27.072 -0.128,-40.481c-2.858,-32.394 -8.616,-64.544 -15.328,-96.335c-8.549,-40.496 -41.204,-106.251 -60.948,-166.449c-11.668,-35.577 -19.501,-68.838 -11.073,-92.015c3.144,-8.645 -1.323,-18.216 -9.967,-21.359c-8.645,-3.144 -18.216,1.323 -21.359,9.967c-10.395,28.585 -3.664,69.919 10.726,113.795c19.342,58.972 51.632,123.276 60.007,162.946c6.436,30.488 11.997,61.314 14.738,92.379c0.986,11.181 1.499,22.574 0.216,33.753c-1.048,9.139 5.52,17.41 14.659,18.458c9.138,1.048 17.409,-5.52 18.457,-14.659Z" style="fill:#7e4021;"/><path d="M317.402,2153.95c32.676,-24.029 67.245,-37.747 101.172,-48.654c28.607,-9.197 69.327,-39.937 112.514,-64.173c37.119,-20.831 76.106,-37.907 109.796,-22.358c8.352,3.855 18.262,0.204 22.117,-8.148c3.855,-8.352 0.203,-18.262 -8.149,-22.117c-34.818,-16.07 -74.478,-8.263 -113.45,9.823c-50.628,23.493 -100.02,64.627 -133.029,75.239c-37.167,11.948 -74.924,27.211 -110.719,53.534c-7.41,5.45 -9.003,15.89 -3.553,23.301c5.45,7.41 15.89,9.002 23.301,3.553Z" style="fill:#7e4021;"/><path d="M815.644,1646.07c-2.385,7.082 -4.964,14.793 -7.376,22.083c-8.386,25.344 -16.076,53.585 -15.917,72.247c0.384,45.177 10.126,87.491 18.551,130.089c7.898,39.931 14.629,80.131 9.582,123.613c-1.06,9.137 5.497,17.416 14.634,18.477c9.137,1.061 17.417,-5.497 18.477,-14.634c5.467,-47.098 -1.438,-90.671 -9.993,-133.923c-8.027,-40.585 -17.553,-80.864 -17.919,-123.906c-0.136,-15.922 7.076,-39.869 14.231,-61.492c8.144,-24.611 16.427,-46.55 17.609,-53.724c2.864,-17.373 -10.563,-21.613 -16.464,-21.733c-6.613,-0.135 -15.86,2.182 -25.96,6.414c-17.508,7.336 -38.973,20.446 -49.943,25.072c-84.701,35.717 -171.655,47.985 -251.756,97.549c-27.697,17.137 -54.25,35.878 -78.054,58.182c-8.544,8.006 -16.751,16.408 -24.178,25.469c-5.831,7.115 -4.789,17.624 2.325,23.456c7.114,5.831 17.624,4.789 23.455,-2.325c6.502,-7.933 13.709,-15.267 21.189,-22.276c22.187,-20.788 46.987,-38.187 72.802,-54.161c78.578,-48.621 164.078,-60.142 247.169,-95.18c8.484,-3.578 23.168,-12.131 37.536,-19.297Z" style="fill:#7e4021;"/><path d="M824.661,1448.95c21.634,10.278 44.359,17.215 68.145,20.248c44.73,5.704 83.65,4.195 127.797,-0.306c1.994,-0.203 5.714,-0.913 10.498,-1.948c-2.874,3.793 -5.638,7.818 -8.23,12.077c-20.027,32.908 -18.187,78.166 -12.617,115.064c1.373,9.096 9.872,15.365 18.967,13.992c9.096,-1.372 15.365,-9.872 13.993,-18.967c-4.481,-29.682 -7.978,-66.288 8.132,-92.76c19.638,-32.27 51.76,-47.512 51.76,-47.512c7.792,-3.675 11.499,-12.684 8.55,-20.779c-2.949,-8.095 -11.582,-12.608 -19.912,-10.41c-0,0 -63.813,16.99 -74.521,18.082c-41.524,4.233 -78.13,5.766 -120.201,0.402c-20.269,-2.585 -39.622,-8.533 -58.057,-17.291c-8.308,-3.947 -18.258,-0.407 -22.206,7.902c-3.947,8.308 -0.406,18.259 7.902,22.206Z" style="fill:#7e4021;"/><path d="M1643.67,1014.91c10.008,-20.902 104.128,-114.51 118.104,-133.202c90.782,-121.417 227.322,-229.661 377.283,-277.485c46.987,-14.984 96.116,-23.134 145.044,-16.091c75.163,10.819 97.998,69.719 161.773,89.083c58.662,17.813 123.48,-7.858 182.945,22.867c45.179,23.343 68.965,75.924 116.397,93.011c60.599,21.83 126.493,9.345 185.431,44.433c84.753,50.458 89.943,138.695 149.874,204.019c40.378,44.01 105.798,46.875 131.519,122.282c22.962,67.316 -24.86,129.779 -16.904,195.769c9.511,78.897 97.651,119.456 111.192,196.363c11.032,62.658 -45.074,116.274 -49.728,177.551c-4.297,56.57 51.106,90.676 54.058,144.137c3.317,60.057 -49.457,131.721 -62.874,191.356c-25.084,111.483 39.296,256.798 -60.585,350.194c-24.276,22.7 -26.005,-40.38 -29.711,-52.866c-41.625,-140.26 -187.877,-67.908 -277.131,-153.823c-73.671,-70.916 -45.163,-164.702 -97.404,-226.886c-28.138,-33.494 -104.165,-13.349 -143.27,-33.068c-50.736,-25.585 -36.165,-87.168 -71.878,-120.75c-42.782,-40.229 -118.97,-31.336 -163.38,-79.672c-64.404,-70.095 -2.52,-164.117 -38.369,-240.222c-33.84,-71.841 -156.546,-65.213 -205.164,-136.176c-47.719,-69.651 -21.311,-137.757 -39.591,-212.366c-12.062,-49.23 -74.151,-71.469 -98.778,-113.897c-21.068,-36.298 -16.377,-78.886 -30.191,-117.107c-35.496,-98.209 -291.417,41.639 -348.662,82.546Z" style="fill:#bbc470;"/><path d="M1628.64,1007.71c-3.285,6.859 -1.51,15.072 4.314,19.962c5.824,4.891 14.22,5.218 20.408,0.797c38.918,-27.811 172.245,-103.032 260.648,-112.751c29.904,-3.288 54.487,-0.276 62.65,22.31c6.55,18.122 8.569,37.308 11.591,56.237c3.508,21.97 8.266,43.597 19.86,63.572c13.222,22.779 36.156,40.48 57.748,58.753c17.338,14.673 34.056,29.519 39.256,50.743c8.869,36.2 6.696,70.838 8.296,104.859c1.786,37.993 7.877,75.221 33.734,112.961c26.156,38.177 71.651,56.415 115.748,73.839c36.793,14.538 72.898,27.772 88.088,60.019c16.703,35.461 9.667,75.158 6.928,114.093c-3.257,46.295 -1.437,91.469 34.245,130.304c24.329,26.478 57.042,37.89 89.851,47.583c27.363,8.084 54.839,14.575 74.385,32.953c15.728,14.79 19.513,36.155 25.823,56.23c8.471,26.953 19.968,52.133 49.968,67.261c21.267,10.724 52.456,11.367 82.271,13.124c12.525,0.738 24.749,1.778 35.437,4.638c8.168,2.185 15.392,5.297 20.305,11.145c24.342,28.975 29.106,65.593 37.132,102.948c9.257,43.087 21.88,87.11 61.475,125.224c47.147,45.384 108.923,50.132 164.835,60.892c47.024,9.048 89.383,23.352 107.877,85.666c2.306,7.772 4.127,34.388 10.452,49.392c5.436,12.893 14.571,19.55 24.032,20.223c6.208,0.442 14.069,-1.352 22.588,-9.317c53.684,-50.199 64.134,-114.034 63.623,-180.616c-0.464,-60.648 -10.443,-123.514 1.838,-178.094c6.499,-28.887 22.704,-60.618 36.709,-92.469c15.584,-35.443 28.335,-71.092 26.547,-103.464c-1.633,-29.561 -17.056,-54.066 -32.187,-78.705c-11.869,-19.327 -23.758,-38.716 -21.894,-63.251c2.182,-28.723 16.879,-55.491 29.281,-82.582c14.661,-32.022 26.355,-64.402 20.242,-99.121c-7.287,-41.387 -33.95,-73.4 -60.768,-105.275c-22.821,-27.125 -45.936,-54.062 -50.292,-90.193c-3.733,-30.97 6.105,-61.042 13.7,-91.34c8.865,-35.368 15.012,-70.935 2.433,-107.814c-14.363,-42.109 -39.606,-64.131 -67.099,-81.602c-23.385,-14.86 -48.736,-25.664 -67.914,-46.568c-28.961,-31.567 -44.453,-68.819 -63.187,-104.128c-20.742,-39.093 -45.094,-75.946 -90.442,-102.944c-31.552,-18.784 -64.88,-25.125 -98.517,-29.401c-30.21,-3.84 -60.655,-5.895 -89.791,-16.391c-21.286,-7.668 -36.959,-23.706 -52.686,-40.039c-18.784,-19.509 -37.494,-39.588 -61.71,-52.099c-32.298,-16.689 -65.969,-18.515 -99.612,-18.134c-29.253,0.331 -58.436,2.539 -86.141,-5.873c-29.665,-9.008 -49.566,-27.595 -71.034,-44.803c-25.213,-20.211 -52.144,-38.919 -93.207,-44.83c-51.429,-7.403 -103.093,0.959 -152.482,16.709c-153.217,48.862 -292.814,159.33 -385.567,283.383c-9.679,12.945 -58.27,62.15 -89.913,97.634c-15.162,17.003 -26.554,31.415 -29.875,38.35Zm1552.47,1394.13c-0.863,-2.714 -1.711,-5.681 -2.19,-8.148c-2.545,-13.103 -3.892,-26.851 -5.451,-32.105c-23.133,-77.949 -74.71,-97.596 -133.533,-108.915c-49.937,-9.61 -105.909,-11.64 -148.017,-52.174c-34.077,-32.802 -44.035,-71.129 -52.002,-108.21c-9.199,-42.815 -16.3,-84.179 -44.2,-117.389c-13.786,-16.41 -36.44,-23.569 -62.348,-26.285c-16.003,-1.678 -33.274,-1.893 -49.503,-3.169c-13.734,-1.08 -26.66,-2.724 -36.675,-7.775c-20.742,-10.459 -27.321,-28.856 -33.178,-47.492c-8.018,-25.512 -14.8,-51.723 -34.788,-70.518c-23.237,-21.851 -55.243,-31.026 -87.774,-40.637c-27.084,-8.002 -54.667,-16.311 -74.751,-38.169c-28.724,-31.264 -28.161,-68.142 -25.539,-105.412c3.14,-44.629 9.123,-89.99 -10.024,-130.636c-18.654,-39.602 -60.81,-58.963 -105.993,-76.816c-37.874,-14.964 -78.035,-28.89 -100.5,-61.678c-21.862,-31.911 -26.426,-63.561 -27.936,-95.686c-1.697,-36.098 0.194,-72.817 -9.216,-111.226c-6.863,-28.01 -27.217,-48.892 -50.099,-68.256c-18.625,-15.761 -39.047,-30.392 -50.452,-50.042c-9.475,-16.324 -12.906,-34.139 -15.773,-52.093c-3.352,-20.995 -5.894,-42.213 -13.159,-62.313c-13.151,-36.387 -49.463,-49.409 -97.641,-44.113c-56.326,6.193 -129.973,37.246 -188.707,67.439c24.145,-25.736 47.076,-49.792 53.464,-58.336c88.811,-118.781 222.294,-224.801 368.999,-271.586c44.584,-14.219 91.179,-22.156 137.605,-15.474c34.102,4.909 56.169,21.06 77.108,37.845c24.685,19.788 48.086,40.333 82.197,50.69c30.958,9.4 63.515,7.679 96.203,7.309c28.298,-0.32 56.767,0.38 83.934,14.417c20.965,10.832 36.736,28.715 52.999,45.605c19.319,20.065 39.252,38.86 65.4,48.279c31.463,11.334 64.264,13.952 96.886,18.098c29.195,3.711 58.282,8.672 85.668,24.976c39.405,23.46 60.025,55.955 78.049,89.925c20.032,37.756 37.101,77.284 68.07,111.04c17.307,18.864 38.741,30.905 60.195,43.457c26.897,15.736 54.009,32.417 67.831,72.939c10.383,30.438 4.1,59.757 -3.217,88.949c-8.588,34.26 -18.682,68.413 -14.46,103.433c5.156,42.768 30.865,75.556 57.878,107.664c23.017,27.357 47.193,54.074 53.447,89.595c4.919,27.942 -5.923,53.694 -17.722,79.466c-14.056,30.702 -29.738,61.379 -32.211,93.933c-2.434,32.038 11.228,57.981 26.727,83.218c12.235,19.924 25.989,39.198 27.309,63.1c1.529,27.687 -10.449,57.896 -23.777,88.209c-14.908,33.904 -31.798,67.821 -38.717,98.569c-12.803,56.904 -3.133,122.437 -2.649,185.666c0.422,55.034 -6.296,108.426 -47.767,150.832Z" style="fill:#7e4021;"/><path d="M1686.05,963.998c-0.215,0.202 -0.426,0.412 -0.633,0.628c-1.312,1.374 -1.824,2.191 -1.882,2.275c-4.895,7.083 -2.698,12.818 -2.217,14.38c2.042,6.631 6.501,10.881 14.227,11.674c0.201,0.021 6.89,1.752 13.512,-4.817c1.123,-1.115 15.372,-15.737 19.645,-19.437c13.211,-11.443 27.051,-22.284 41.091,-32.81c40.852,-30.626 83.633,-58.928 133.039,-75.627c146.555,-49.535 294.315,-3.199 408.9,84.306c168.994,129.056 252.798,308.598 374.228,472.252c27.83,37.507 64.897,68.054 100.574,99.411c33.25,29.224 65.32,59.116 85.632,97.541c33.934,64.198 49.465,137.079 69.632,207.846c21.2,74.391 47.442,146.443 101.809,205.303c6.241,6.757 16.794,7.176 23.551,0.934c6.758,-6.241 7.176,-16.794 0.935,-23.551c-50.704,-54.894 -74.466,-122.443 -94.238,-191.822c-20.804,-73.004 -37.213,-148.06 -72.22,-214.287c-22.195,-41.988 -56.763,-75.068 -93.096,-107.001c-33.905,-29.799 -69.363,-58.593 -95.81,-94.236c-123.296,-166.168 -209.176,-347.843 -380.766,-478.882c-123.174,-94.065 -282.263,-142.641 -439.804,-89.393c-52.806,17.848 -98.698,47.803 -142.36,80.535c-14.668,10.996 -29.119,22.33 -42.921,34.285c-4.16,3.603 -18.094,17.717 -20.828,20.493Zm20.009,-2.142c13.007,-0.089 23.915,4.379 3.464,25.793c6.353,-6.652 6.11,-17.211 -0.542,-23.564c-0.907,-0.867 -1.887,-1.611 -2.922,-2.229Z" style="fill:#7e4021;"/><path d="M2951.95,1752.05c27.84,32.047 65.88,55.944 102.514,81.011c33.797,23.126 66.459,47.192 85.967,82.152c4.482,8.033 14.642,10.915 22.675,6.433c8.033,-4.483 10.915,-14.643 6.433,-22.676c-22.005,-39.435 -58.128,-67.332 -96.252,-93.419c-34.729,-23.763 -71.143,-45.98 -97.243,-76.588c-1.192,-1.398 -31.368,-35.811 -37.482,-42.644c-8.711,-9.734 -19.464,-5.61 -19.623,-5.547c-3.57,1.414 -8.478,4.324 -10.159,11.939c-0.154,0.695 -0.784,4.06 0.415,9.548c2.905,13.3 20.415,81.314 8.069,137.428c-15.774,71.687 -26.495,138.619 -25.67,211.874c0.104,9.198 7.656,16.582 16.854,16.478c9.198,-0.103 16.581,-7.655 16.477,-16.853c-0.795,-70.655 9.68,-135.194 24.893,-204.336c6.912,-31.414 5.563,-66.22 2.132,-94.8Z" style="fill:#7e4021;"/><path d="M2805.4,1511.04c24.313,7.088 59.401,15.956 100.225,21.979c39.353,5.806 70.124,23.703 99.647,44.858c32.041,22.959 62.644,49.678 99.436,71.246c7.935,4.653 18.155,1.987 22.807,-5.949c4.652,-7.935 1.986,-18.155 -5.949,-22.807c-35.876,-21.031 -65.635,-47.198 -96.879,-69.585c-33.76,-24.191 -69.196,-44.101 -114.197,-50.74c-68.016,-10.034 -119.383,-28.343 -128.663,-31.481c-6.146,-2.078 -9.921,-1.075 -10.323,-0.989c-7.858,1.665 -10.895,6.735 -12.325,10.927c-1.288,3.775 -2.109,9.278 2.411,15.346c19.954,26.783 17.242,66.513 12.079,99.909c-5.988,38.735 -34.766,78.262 -51.169,122.558c-11.446,30.909 -25.954,62.301 -31.956,94.549c-2.567,13.789 -3.466,27.183 -0.315,40.754c2.081,8.96 11.045,14.546 20.005,12.465c8.96,-2.081 14.545,-11.045 12.464,-20.005c-2.097,-9.031 -1.092,-17.939 0.616,-27.114c5.661,-30.416 19.65,-59.921 30.445,-89.073c17.222,-46.509 46.565,-88.372 52.852,-129.041c4.364,-28.233 5.908,-59.885 -1.211,-87.807Z" style="fill:#7e4021;"/><path d="M2574.69,1602c-3.207,-9.84 -4.706,-20.213 -5.719,-30.481c-2.848,-28.872 -2.892,-58.064 -2.021,-87.114c1.134,-37.866 21.338,-102.813 29.78,-160.42c6.372,-43.481 5.421,-83.123 -10.086,-107.615c-4.921,-7.772 -15.226,-10.087 -22.997,-5.166c-7.772,4.921 -10.087,15.225 -5.166,22.997c12.211,19.287 10.286,50.711 5.268,84.951c-8.64,58.96 -28.956,125.499 -30.118,164.254c-0.913,30.475 -0.82,61.097 2.168,91.385c1.248,12.656 3.246,25.411 7.199,37.537c2.85,8.746 12.264,13.533 21.01,10.682c8.746,-2.85 13.533,-12.265 10.682,-21.01Z" style="fill:#7e4021;"/><path d="M2971.45,1305.28c-39.784,-17.221 -79.524,-23.959 -118.088,-27.775c-34.31,-3.395 -90.178,-31.597 -144.089,-43.414c-41.2,-9.031 -81.238,-8.651 -112.329,12.58c-7.597,5.188 -9.553,15.566 -4.366,23.163c5.188,7.596 15.566,9.552 23.163,4.365c30.496,-20.824 72.143,-12.741 112.568,-0.699c46.678,13.905 92.075,34.238 121.77,37.176c35.295,3.493 71.719,9.434 108.13,25.194c8.442,3.654 18.262,-0.233 21.916,-8.674c3.654,-8.442 -0.233,-18.262 -8.675,-21.916Z" style="fill:#7e4021;"/><path d="M2376.8,969.083c16.698,3.203 33.397,6.17 41.906,7.737c87.837,16.168 173.826,10.346 259.659,39.816c28.186,9.678 55.629,20.851 81.114,35.63c8.57,4.97 16.93,10.288 24.707,16.288c7.283,5.618 17.758,4.267 23.377,-3.016c5.619,-7.283 4.268,-17.758 -3.015,-23.376c-8.93,-6.889 -18.507,-13.025 -28.347,-18.732c-27.35,-15.859 -56.763,-27.935 -87.012,-38.32c-87.442,-30.023 -174.964,-24.601 -264.449,-41.073c-16.221,-2.986 -63.436,-11.161 -80.15,-15.997c-5.031,-1.455 -8.865,-0.439 -11.579,0.761c-3.969,1.756 -6.958,4.662 -8.731,8.948c-0.786,1.902 -3.023,8.024 1.434,16.059c3.701,6.671 22.939,31.866 39.058,57.861c9.374,15.118 17.908,30.374 19.986,41.569c7.3,39.327 5.131,77.879 4.502,116.427c-0.677,41.462 0.359,82.9 14.213,125.203c2.863,8.741 12.284,13.514 21.026,10.652c8.742,-2.863 13.515,-12.285 10.652,-21.026c-12.641,-38.598 -13.18,-76.454 -12.562,-114.285c0.665,-40.746 2.659,-81.485 -5.057,-123.054c-2.631,-14.177 -12.561,-33.908 -24.431,-53.051c-5.061,-8.162 -10.818,-16.91 -16.301,-25.021Z" style="fill:#7e4021;"/><path d="M2107.98,839.834c14.427,-2.023 29.352,-5.522 42.901,-11.342c16.808,-7.22 34.423,-22.33 52.076,-36.647c13.946,-11.311 27.662,-22.489 41.688,-24.803c26.427,-4.36 44.449,7.682 63.333,20.779c24.421,16.937 49.821,35.927 86.871,40.701c9.123,1.175 17.485,-5.277 18.66,-14.4c1.176,-9.123 -5.276,-17.485 -14.4,-18.66c-30.97,-3.991 -51.721,-20.874 -72.134,-35.031c-25.954,-18 -51.437,-32.27 -87.756,-26.278c-15.558,2.567 -31.469,11.861 -47.009,23.707c-18.633,14.205 -36.824,32.418 -54.485,40.004c-43.238,18.573 -97.833,9.276 -102.076,9.64c-5.628,0.482 -8.61,3.037 -10.009,4.301c-5.423,4.897 -6.668,10.666 -4.875,16.972c0.42,1.478 1.913,8.167 11.19,11.528c22.958,8.318 74.405,30.132 97.74,59.241c15.791,19.699 23.318,45.331 28.872,69.803c2.083,9.178 3.607,18.582 4.099,27.99c0.48,9.186 8.328,16.254 17.514,15.773c9.186,-0.48 16.254,-8.328 15.774,-17.514c-0.591,-11.3 -2.379,-22.602 -4.88,-33.626c-6.652,-29.311 -16.457,-59.681 -35.371,-83.275c-11.682,-14.574 -29.319,-27.786 -47.723,-38.863Z" style="fill:#7e4021;"/><path d="M1542.83,1103.77c-231.212,-58.35 -212.263,188.578 -94.265,217.739c96.384,23.82 154.233,-29.2 168.017,-81.85c13.974,-53.374 -7.242,-119.105 -73.752,-135.889Z" style="fill:#fee4a8;"/><path d="M1546.91,1087.61c-76.481,-19.302 -127.949,-6.651 -159.279,19.065c-38.186,31.343 -48.382,83.371 -36.226,130.753c12.058,47 45.974,88.599 93.163,100.261c108.419,26.794 172.634,-34.585 188.139,-93.809c16.112,-61.542 -9.109,-136.917 -85.797,-156.27l0,-0Zm-8.156,32.32c56.333,14.216 73.543,70.3 61.707,115.508c-12.064,46.081 -63.536,90.74 -147.895,69.891c-35.411,-8.751 -59.825,-40.916 -68.874,-76.185c-8.951,-34.889 -3.03,-73.625 25.087,-96.704c25.502,-20.932 67.72,-28.221 129.975,-12.51l0,-0Z" style="fill:#7e4021;"/><path d="M1585.31,1313.3c-58.35,231.212 188.578,212.263 217.739,94.265c23.82,-96.384 -29.2,-154.233 -81.849,-168.017c-53.375,-13.973 -119.105,7.243 -135.89,73.752Z" style="fill:#fee4a8;"/><path d="M1569.15,1309.23c-19.301,76.482 -6.651,127.949 19.065,159.28c31.343,38.185 83.372,48.382 130.753,36.226c47.001,-12.059 88.599,-45.974 100.261,-93.164c26.794,-108.419 -34.585,-172.634 -93.808,-188.139c-61.542,-16.112 -136.918,9.11 -156.271,85.797l0,-0Zm32.32,8.156c14.217,-56.333 70.3,-73.542 115.508,-61.706c46.082,12.064 90.74,63.535 69.892,147.895c-8.752,35.411 -40.917,59.824 -76.186,68.873c-34.888,8.951 -73.625,3.031 -96.703,-25.087c-20.933,-25.502 -28.222,-67.72 -12.511,-129.975l0,0Z" style="fill:#7e4021;"/><path d="M1489.45,1193.1c22.29,3.395 38.78,16.696 36.801,29.684c-1.978,12.989 -21.68,20.777 -43.97,17.382c-22.289,-3.395 -38.779,-16.696 -36.801,-29.684c1.979,-12.989 21.681,-20.777 43.97,-17.382Z" style="fill:#7e4021;"/><path d="M1674.64,1366.68c3.395,-22.289 16.696,-38.779 29.685,-36.801c12.988,1.978 20.777,21.681 17.382,43.97c-3.395,22.289 -16.696,38.779 -29.685,36.801c-12.988,-1.978 -20.777,-21.68 -17.382,-43.97Z" style="fill:#7e4021;"/><path d="M1852.95,1477.02c-55.43,-13.336 -153.696,-38.49 -205.426,-16.713c-179.138,75.411 -131.044,126.736 -165.518,262.474c-14.323,56.399 -55.309,105.355 -63.699,162.831c-10.026,68.677 54.875,111.545 65.234,174.854c11.63,71.071 -46.099,141.916 -45.28,214.38c0.969,85.745 84.14,122.28 113.841,192.89c25.768,61.261 0.458,130.345 29.803,192.251c36.871,77.781 124.78,72.438 177.413,130.469c42.851,47.246 24.366,128.751 60.374,182.529c40.164,59.985 114.335,50.161 164.11,96.19c59.781,55.28 106.808,299.466 255.183,273.602c39.224,-6.837 20.243,-237.172 111.795,-327.069c80.212,-78.762 175.358,-135.034 153.877,-259.788c-4.481,-26.027 -11.868,-59.303 1.919,-83.782c24.821,-44.071 89.631,-56.109 102.329,-108.852c11.177,-46.427 -37.435,-93.812 -17.012,-136.865c18.807,-39.648 66.814,-63.385 72.439,-111.45c8.37,-71.527 -56.008,-121.519 -61.439,-192.723c-3.999,-52.427 38.465,-94.19 34.28,-146.075c-5.91,-73.286 -64.887,-113.003 -83.91,-178.948c-17.58,-60.946 10.869,-121.074 -11.128,-182.274c-101.999,-283.78 -543.924,-289.095 -689.185,-137.931Z" style="fill:#bbc470;"/><path d="M1847.81,1458.63c-33.334,-8.043 -78.411,-18.737 -120.167,-22.299c-32.874,-2.804 -63.799,-0.978 -86.577,8.611c-56.475,23.774 -91.275,45.579 -113.558,67.876c-27.534,27.551 -37.109,56.092 -42.807,91.128c-5.056,31.09 -6.923,67.808 -18.839,114.728c-6.877,27.078 -20.297,52.309 -32.862,77.729c-13.869,28.058 -26.73,56.339 -31.176,86.797c-5.615,38.46 8.939,69.917 27.158,100.399c15.197,25.425 33.281,49.982 38.12,79.555c5.366,32.792 -5.931,65.414 -17.813,98.314c-13.563,37.554 -28.116,75.398 -27.685,113.562c0.534,47.227 23.04,81.2 50.167,112.791c23.507,27.374 50.802,52.673 64.977,86.373c12.046,28.639 11.734,59.165 12.259,89.708c0.602,35.015 2.12,70.042 17.847,103.22c20.312,42.849 54.205,63.343 90.746,80.576c31.225,14.726 64.605,26.633 89.382,53.951c19.281,21.258 23.925,50.528 28.637,80.229c5.618,35.413 10.915,71.525 30.233,100.376c22.274,33.266 53.584,47.751 86.621,59.725c27.74,10.054 56.843,17.994 80.023,39.428c13.267,12.269 25.48,34.839 38.847,61.364c22.062,43.778 46.166,97.879 77.502,140.64c38.134,52.036 86.875,87.309 153.011,75.781c7.457,-1.3 14.479,-5.648 20.203,-14.035c7.17,-10.504 12.841,-30.345 17.48,-56.101c8.091,-44.916 14.771,-109.785 32.576,-167.916c11.147,-36.396 26.552,-70.175 50.351,-93.544c40.632,-39.898 84.951,-74.198 116.488,-114.224c33.901,-43.028 53.834,-92.349 42.137,-160.284c-2.133,-12.388 -5.017,-26.493 -5.668,-40.421c-0.534,-11.433 0.297,-22.791 5.684,-32.354c11.246,-19.967 32.025,-32.156 50.957,-45.848c24.137,-17.459 45.719,-36.814 53.054,-67.282c6.335,-26.315 -3.178,-53.082 -12.477,-79.191c-6.665,-18.713 -13.978,-36.941 -5.681,-54.432c8.739,-18.424 24.556,-32.92 38.549,-48.625c17.316,-19.435 32.151,-40.39 35.386,-68.031c4.593,-39.253 -10.04,-72.79 -27.301,-106.09c-14.712,-28.38 -31.534,-56.535 -34.074,-89.838c-1.796,-23.551 7.402,-44.574 16.02,-65.669c10.582,-25.901 20.563,-51.86 18.255,-80.478c-3.199,-39.67 -20.362,-70.413 -39.699,-100.004c-16.966,-25.964 -35.775,-50.902 -44.81,-82.223c-8.228,-28.525 -5.324,-56.872 -3.297,-85.235c2.328,-32.577 3.665,-65.157 -8.161,-98.057c-53.205,-148.026 -194.456,-224.287 -341.959,-242.967c-142.716,-18.074 -290.427,18.266 -368.059,92.287Zm386.368,1868.04c-65.835,10.345 -107.844,-40.826 -141.604,-98.668c-22.539,-38.617 -41.092,-80.874 -58.766,-114.431c-12.907,-24.507 -25.657,-44.591 -38.681,-56.635c-26.597,-24.595 -59.465,-34.757 -91.296,-46.294c-26.535,-9.617 -52.39,-20.211 -70.281,-46.931c-16.691,-24.928 -20.155,-56.456 -25.009,-87.054c-5.761,-36.31 -13.297,-71.411 -36.869,-97.4c-27.857,-30.714 -64.747,-45.149 -99.853,-61.706c-29.791,-14.049 -58.285,-29.772 -74.845,-64.705c-13.618,-28.729 -14.117,-59.196 -14.639,-89.515c-0.598,-34.792 -1.139,-69.437 -14.861,-102.059c-15.526,-36.911 -44.667,-65.183 -70.414,-95.166c-22.126,-25.766 -41.689,-52.93 -42.125,-91.451c-0.387,-34.3 13.515,-68.109 25.705,-101.862c13.871,-38.407 25.622,-76.74 19.358,-115.02c-5.521,-33.738 -25.066,-62.267 -42.404,-91.274c-14.315,-23.951 -27.198,-48.262 -22.787,-78.482c3.945,-27.018 15.772,-51.952 28.075,-76.841c13.606,-27.527 27.841,-54.973 35.287,-84.295c10.532,-41.469 13.545,-75.194 17.46,-104.173c3.271,-24.206 6.971,-44.794 17.922,-63.759c16.811,-29.115 50.269,-53.74 120.448,-83.283c18.607,-7.833 43.956,-8.411 70.811,-6.12c43.923,3.746 91.64,15.831 124.251,23.677c5.756,1.384 11.814,-0.388 15.916,-4.657c69.726,-72.559 210.969,-106.342 346.704,-89.152c135.275,17.132 265.984,85.418 314.779,221.173c10.172,28.3 8.283,56.383 6.28,84.406c-2.303,32.239 -4.834,64.427 4.519,96.849c9.987,34.624 30.178,62.517 48.933,91.219c16.386,25.076 31.666,50.833 34.377,84.45c1.877,23.269 -7.282,44.131 -15.886,65.191c-10.568,25.865 -20.602,51.934 -18.399,80.811c2.89,37.902 20.973,70.344 37.716,102.644c14.193,27.38 27.564,54.599 23.787,86.875c-2.39,20.426 -14.37,35.368 -27.166,49.731c-16.12,18.093 -33.71,35.288 -43.778,56.513c-12.132,25.575 -5.349,52.54 4.397,79.902c7.109,19.96 16.313,40.087 11.47,60.205c-5.364,22.28 -22.531,35.308 -40.182,48.075c-22.855,16.531 -46.888,32.393 -60.465,56.499c-15.607,27.71 -8.895,65.326 -3.822,94.789c11.823,68.665 -15.43,114.518 -54.569,155.977c-28.306,29.985 -62.631,57.738 -94.56,89.091c-27.471,26.974 -46.002,65.556 -58.869,107.566c-18.217,59.477 -25.231,125.813 -33.509,171.769c-2.694,14.956 -5.447,27.566 -8.981,36.649c-0.963,2.474 -2.765,5.543 -3.575,6.872Z" style="fill:#7e4021;"/><path d="M1519.46,2155.16c-3.273,10.004 -6.519,20.012 -9.59,30.08c-15.435,50.591 -23.504,96.8 -2.105,147.379c3.584,8.472 13.372,12.44 21.843,8.856c8.472,-3.584 12.44,-13.372 8.856,-21.844c-18.106,-42.794 -9.771,-81.86 3.288,-124.664c3.007,-9.855 6.185,-19.651 9.389,-29.443c2.86,-8.742 -1.916,-18.162 -10.658,-21.023c-8.743,-2.86 -18.163,1.916 -21.023,10.659Z" style="fill:#7e4021;"/><path d="M1552.67,2382.91c15.293,11.264 32.398,37.057 40.176,51.537c4.353,8.103 14.466,11.148 22.569,6.795c8.104,-4.353 11.149,-14.466 6.796,-22.569c-9.52,-17.722 -31.056,-48.816 -49.773,-62.602c-7.407,-5.455 -17.849,-3.871 -23.304,3.536c-5.455,7.406 -3.871,17.848 3.536,23.303Z" style="fill:#7e4021;"/><path d="M1838.43,1489.97c43.909,31.528 76.692,84.759 101.263,143.009c38.003,90.09 55.993,192.492 61.365,251.122c11.281,123.125 -16.643,245.757 -1.831,369.061c24.277,202.085 122.437,399.041 109.478,606.396c-0.574,9.18 6.414,17.1 15.594,17.673c9.181,0.574 17.1,-6.413 17.674,-15.594c13.086,-209.371 -85.138,-408.401 -109.65,-612.451c-14.775,-122.992 13.182,-245.312 1.93,-368.127c-5.585,-60.948 -24.342,-167.384 -63.848,-261.036c-27.1,-64.246 -64.104,-122.355 -112.533,-157.129c-7.472,-5.366 -17.894,-3.655 -23.259,3.817c-5.365,7.471 -3.655,17.893 3.817,23.259Z" style="fill:#7e4021;"/><path d="M1998.19,2326.97c-1.712,18.16 -7.761,35.917 -15.448,52.363c-28.399,60.752 -70.544,115.211 -103.185,173.804c-11.794,21.171 -23.093,42.768 -31.86,65.396c-3.281,8.466 -6.053,17.137 -7.789,26.059c-1.757,9.029 4.147,17.786 13.176,19.543c9.029,1.757 17.786,-4.147 19.543,-13.177c1.359,-6.983 3.583,-13.755 6.151,-20.382c8.212,-21.192 18.853,-41.39 29.899,-61.217c33.022,-59.278 75.531,-114.449 104.262,-175.91c7.799,-16.685 14.038,-34.534 17.063,-52.821c80.045,75.913 178.767,134.849 240.804,227.32c5.125,7.639 15.487,9.68 23.126,4.555c7.639,-5.125 9.68,-15.487 4.555,-23.126c-65.195,-97.177 -169.545,-158.642 -252.419,-239.544c-3.091,-3.017 -11.837,-13.221 -18.447,-16.789c-5.175,-2.793 -10.191,-3.38 -14.346,-2.688c-4.411,0.736 -10.024,3.157 -13.163,10.553c-0.7,1.648 -1.464,4.311 -1.796,7.699c-0.499,5.097 -0.167,16.996 -0.126,18.362Z" style="fill:#7e4021;"/><path d="M2111.04,2644.1c55.264,43.643 189.481,154.474 202.585,166.321c11.289,10.207 28.287,28.842 31.755,32.214c4.697,4.566 8.992,4.952 9.759,5.067c8.05,1.212 12.933,-2.417 16.064,-6.808c5.076,-7.117 3.752,-16.879 -2.824,-22.41c-2.33,-2.493 -21.526,-22.958 -32.4,-32.789c-14.891,-13.463 -184.509,-153.396 -221.508,-181.113c-5.747,-4.305 -9.691,-6.478 -10.871,-6.926c-2.934,-1.115 -5.269,-1.181 -6.805,-1.117c-5.907,0.246 -15.106,4.142 -18.015,16.938c-2.333,10.265 -0.909,35.911 -1.182,38.969c-4.028,45.111 -32.073,83.548 -49.421,124.295c-22.894,53.774 -31.957,110.68 -34.222,168.829c-0.358,9.191 6.813,16.944 16.005,17.303c9.191,0.358 16.945,-6.814 17.303,-16.006c2.107,-54.081 10.291,-107.056 31.584,-157.069c18.686,-43.89 47.614,-85.796 51.952,-134.388c0.087,-0.97 0.174,-5.673 0.241,-11.31Zm248.416,170.554c-7.654,-0.927 -12.351,2.621 -15.392,6.887c3.626,-5.085 9.592,-7.522 15.392,-6.887Z" style="fill:#7e4021;"/><path d="M2023.97,2076.7c20.147,27.955 47.549,52.79 73.026,75.134c31.135,27.304 202.19,136.287 295.148,220.646c22.417,20.343 40.167,39.001 49.424,54.592c1.956,3.295 3.488,6.387 4.455,9.293c0.665,2.001 1.319,3.731 0.827,5.264c-2.808,8.76 2.024,18.151 10.784,20.959c8.759,2.808 18.151,-2.024 20.959,-10.783c3.533,-11.021 1.317,-25.446 -8.363,-41.75c-10.5,-17.685 -30.258,-39.184 -55.685,-62.259c-93.1,-84.489 -264.388,-193.677 -295.57,-221.023c-25.63,-22.477 -53.642,-47.436 -72.503,-76.139c0.062,0.094 0.352,0.525 0.352,0.525c-0,0 -12.204,-27.759 -14.865,-32.381c-5.926,-10.292 -15.558,-9.289 -17.441,-9.02c-3.308,0.473 -10.25,2.441 -13.981,11.405c-3.16,7.594 -7.993,44.064 -8.95,47.717c-8.906,33.982 -25.272,66.594 -48.212,93.235c-38.603,44.828 -78.401,73.627 -115.818,106.253c-39.48,34.426 -76.45,72.864 -107.436,135.982c-4.053,8.258 -0.64,18.252 7.617,22.306c8.257,4.054 18.252,0.641 22.306,-7.617c34.511,-70.3 77.298,-107.386 122.195,-144.893c31.678,-26.465 64.385,-53.108 96.394,-90.281c26.224,-30.453 45.018,-67.689 55.198,-106.535l0.139,-0.63Z" style="fill:#7e4021;"/><path d="M1981.81,1762.66c10,20.048 21.838,39.368 35.473,57.13c42.485,55.346 94.919,92.492 155.847,125.112c89.627,47.985 177.589,81.649 241.985,163.933c5.67,7.244 16.153,8.522 23.397,2.853c7.244,-5.669 8.523,-16.153 2.854,-23.397c-67.408,-86.132 -158.684,-122.547 -252.503,-172.776c-56.647,-30.328 -105.639,-64.565 -145.139,-116.022c-13.123,-17.096 -24.389,-35.796 -33.793,-55.178c-3.194,-6.583 -6.14,-13.251 -8.73,-20.091c-0.827,-2.184 -1.306,-7.301 -1.962,-9.771c-1.044,-3.935 -2.768,-6.533 -3.846,-7.836c-5.98,-7.233 -12.934,-7.429 -19.09,-5.079c-2.507,0.957 -7.682,3.123 -10.339,11.096c-27.378,82.134 -72.96,118.279 -125.677,155.208c-37.705,26.412 -78.9,53.155 -120.382,94.787c-35.126,35.252 -71.305,73.317 -98.036,115.534c-4.921,7.771 -2.607,18.076 5.165,22.997c7.771,4.921 18.076,2.607 22.997,-5.165c25.446,-40.187 60.049,-76.282 93.486,-109.839c50.234,-50.414 100.205,-78.069 143.463,-111.013c37.489,-28.549 70.27,-60.773 94.83,-112.483Z" style="fill:#7e4021;"/><path d="M1927.51,1579.87c6.058,4.16 13.082,9.31 20.549,14.876c28,20.87 61.889,46.952 77.365,53.575c106.341,45.51 186.59,56.651 290.088,110.39c49.478,25.69 103.007,55.348 139.872,98.27c5.993,6.978 16.525,7.778 23.503,1.784c6.978,-5.993 7.777,-16.524 1.784,-23.502c-39.593,-46.097 -96.661,-78.545 -149.799,-106.135c-104.323,-54.168 -185.144,-65.579 -292.333,-111.452c-16.71,-7.151 -56.163,-39.462 -83.631,-59.264c-14.686,-10.588 -26.975,-17.715 -32.622,-19.065c-6.807,-1.626 -11.794,0.126 -15.05,2.167c-4.247,2.662 -7.399,6.683 -8.259,12.848c-5.04,36.105 -23.894,54.304 -67.495,92.672c-28.215,24.828 -59.253,38.468 -91.695,49.684c-34.788,12.029 -71.161,21.324 -107.813,36.855c-8.47,3.589 -12.432,13.379 -8.843,21.848c3.588,8.47 13.378,12.432 21.848,8.843c74.293,-31.48 147.195,-38.239 208.523,-92.206c43.316,-38.117 64.542,-60.899 74.008,-92.188Z" style="fill:#7e4021;"/></g></svg>