<?xml version="1.0" encoding="UTF-8" standalone="no"?><!DOCTYPE svg PUBLIC "-//W3C//DTD SVG 1.1//EN" "http://www.w3.org/Graphics/SVG/1.1/DTD/svg11.dtd"><svg width="100%" height="100%" viewBox="0 0 2265 1552" version="1.1" xmlns="http://www.w3.org/2000/svg" xmlns:xlink="http://www.w3.org/1999/xlink" xml:space="preserve" xmlns:serif="http://www.serif.com/" style="fill-rule:evenodd;clip-rule:evenodd;stroke-linejoin:round;stroke-miterlimit:2;"><g id="Cookie"><path d="M1669.68,601.444c-850.79,-198.565 -1544.48,-17.973 -1589.85,348.158c-7.967,64.296 -1.183,227.341 33.89,295.072c218.704,422.349 2246.3,436.144 2090.03,-313.232c-45.115,-216.349 -324.66,-281.124 -534.072,-329.998Z" style="fill:#c48464;"/><path d="M1673.47,585.213c-514.449,-120.066 -971.897,-101.978 -1265.42,10.926c-201.131,77.365 -325.958,199.713 -344.755,351.413c-8.23,66.428 -0.605,234.809 35.631,304.786c40.822,78.833 141.622,145.09 279.846,194.326c313.321,111.604 820.361,139.477 1223.14,56.729c193.396,-39.732 362.794,-105.09 476.064,-198.193c116.501,-95.758 174.745,-220.582 142.094,-377.16c-19.002,-91.123 -77.086,-157.021 -154.554,-206.214c-111.858,-71.032 -264.69,-106.889 -392.046,-136.613l-0,0Zm-7.576,32.461c103.581,24.175 224.55,52.144 325.16,100.961c96.841,46.988 174.905,113.205 196.385,216.209c29.855,143.173 -24.102,257.045 -130.629,344.605c-109.756,90.214 -274.21,152.793 -461.606,191.292c-396.883,81.537 -896.517,54.492 -1205.25,-55.478c-128.372,-45.726 -223.518,-105.038 -261.431,-178.253c-33.91,-65.485 -39.853,-223.195 -32.15,-285.359c17.496,-141.207 136.423,-252.387 323.64,-324.4c288.991,-111.161 739.381,-127.788 1245.88,-9.577l0.001,0Z" style="fill:#7e4021;"/><path d="M1679.8,482.995c-1000.2,-233.434 -1790.75,189.809 -1555.96,643.231c218.704,422.349 2320.34,380.817 2058.25,-286.777c-80.763,-205.717 -292.876,-307.579 -502.288,-356.454Z" style="fill:#9d5e3e;"/><path d="M1683.59,466.765c-605.996,-141.433 -1135.65,-42.926 -1411.3,156.431c-189.663,137.166 -261.121,321.677 -163.242,510.694c40.853,78.894 144.164,143.481 285.938,190.199c320.973,105.768 840.613,124.167 1242.13,42.676c192.999,-39.171 358.774,-101.613 463.165,-187.733c108.625,-89.615 152.765,-204.46 97.326,-345.674c-82.787,-210.872 -299.355,-316.494 -514.014,-366.593l-0,-0Zm-7.576,32.461c204.166,47.65 411.822,145.75 490.562,346.314c49.398,125.824 9.277,227.931 -87.511,307.779c-101.022,83.342 -261.811,142.872 -448.582,180.779c-395.998,80.371 -908.509,62.646 -1225.07,-41.668c-131.457,-43.318 -228.89,-100.715 -266.77,-173.868c-89.959,-173.723 -21.141,-342.289 153.176,-468.356c270.31,-195.49 789.953,-289.669 1384.19,-150.98l0,-0Z" style="fill:#7e4021;"/><path d="M118.042,823.354c-2.165,-8.187 -71.729,-0.938 -95.565,75.262c-17.166,54.873 8.824,110.533 43.283,138.379c89.646,72.443 230.205,192.076 669.132,268.096c357.328,61.887 1243.01,14.897 1480.9,-307.874c27.697,-37.578 43.278,-94.824 23.778,-140.934c-47.947,-113.375 -242.324,23.848 -309.247,49.311c-64.991,24.727 -132.986,44.289 -201.068,58.265c-180.013,36.951 -372.421,42.151 -555.614,42.621c-280.795,0.721 -786.678,-87.655 -1055.6,-183.126Z" style="fill:#f7bf9a;"/><path d="M127.263,808.936c-0.47,-0.35 -0.967,-0.69 -1.492,-1.018c-3.075,-1.918 -8.615,-3.902 -16.297,-3.862c-22.981,0.12 -80.636,18.4 -102.904,89.584c-19.384,61.967 9.801,124.873 48.714,156.318c90.688,73.285 232.74,194.652 676.764,271.555c215.855,37.385 623.217,35.426 966.299,-42.41c231.666,-52.559 433.828,-140.338 530.864,-271.998c30.889,-41.91 47.459,-105.889 25.711,-157.314c-22.688,-53.649 -72.151,-62.45 -129.536,-48.667c-73.469,17.645 -160.444,73.466 -200.987,88.892c-64.159,24.411 -131.284,43.72 -198.494,57.517c-178.939,36.731 -370.205,41.814 -552.305,42.281c-278.038,0.713 -777.942,-86.41 -1046.34,-180.878Zm-17.931,28.619c0.977,0.609 2.028,1.113 3.134,1.506c270.354,95.978 778.93,184.81 1061.22,184.086c184.286,-0.473 377.835,-5.79 558.922,-42.962c68.954,-14.154 137.821,-33.97 203.644,-59.014c39.763,-15.129 124.863,-70.33 196.918,-87.636c39.658,-9.525 75.372,-7.837 91.052,29.24c17.252,40.796 2.661,91.306 -21.844,124.554c-93.275,126.557 -288.718,208.744 -511.406,259.266c-338.448,76.785 -740.297,78.953 -953.236,42.073c-433.83,-75.137 -572.895,-193.034 -661.501,-264.636c-30.004,-24.246 -52.798,-72.66 -37.852,-120.44c12.733,-40.703 40.407,-58.622 59.932,-64.263c3.881,-1.122 8.571,-1.595 11.017,-1.774Zm-3.619,-2.99c-2.237,-2.113 -3.215,-4.8 -3.783,-6.95c0.694,2.627 2.007,5 3.783,6.95Z" style="fill:#7e4021;"/><path d="M1682.35,192.288c-854.276,-182.99 -1544.55,10.245 -1583.22,377.143c-6.791,64.431 2.971,227.325 39.275,294.405c226.384,418.283 2253.89,395.035 2083.96,-351.362c-49.06,-215.489 -329.742,-275.146 -540.012,-320.186Z" style="fill:#9d5e3e;"/><path d="M1685.84,175.991c-516.556,-110.649 -973.597,-84.207 -1265.01,34.041c-199.683,81.026 -322.255,205.634 -338.277,357.652c-7.016,66.568 3.684,234.781 41.193,304.085c42.255,78.073 144.249,142.478 283.35,189.18c315.307,105.863 822.771,124.468 1223.97,34.375c192.639,-43.258 360.814,-111.7 472.365,-206.857c114.732,-97.87 170.686,-223.737 135.179,-379.693c-20.663,-90.76 -79.941,-155.586 -158.295,-203.355c-113.137,-68.977 -266.599,-102.036 -394.476,-129.428l-0.001,-0Zm-6.981,32.594c104.005,22.278 225.465,48.033 326.95,95.003c97.683,45.211 176.944,109.991 200.302,212.586c32.466,142.603 -19.402,257.442 -124.311,346.933c-108.09,92.205 -271.374,157.777 -458.035,199.694c-395.328,88.773 -895.372,70.86 -1206.06,-33.452c-129.187,-43.373 -225.4,-100.937 -264.644,-173.446c-35.101,-64.855 -43.924,-222.43 -37.358,-284.725c14.914,-141.503 131.789,-254.837 317.66,-330.259c286.912,-116.421 736.923,-141.273 1245.5,-32.334l-0,-0Z" style="fill:#7e4021;"/><path d="M1690.31,73.674c-1004.3,-215.124 -1786.99,222.491 -1543.95,671.548c226.384,418.283 2326.91,338.364 2052.66,-324.33c-84.507,-204.207 -298.446,-302.177 -508.715,-347.218Z" style="fill:#c48464;"/><path d="M1693.8,57.377c-608.478,-130.338 -1136.24,-22.172 -1408.21,182.187c-187.126,140.608 -255.201,326.394 -153.886,513.591c42.288,78.135 146.761,140.824 289.365,184.944c322.852,99.886 842.741,108.79 1242.7,19.977c192.251,-42.69 356.858,-108.15 459.658,-196.163c106.97,-91.584 149.005,-207.217 90.995,-347.394c-86.625,-209.324 -305.086,-310.973 -520.624,-357.142l-0.001,0Zm-6.981,32.594c205.002,43.913 414.416,138.202 496.806,337.294c51.688,124.901 13.439,227.724 -81.874,309.327c-99.482,85.173 -259.157,147.631 -445.204,188.943c-394.464,87.592 -907.213,79.233 -1225.63,-19.281c-132.226,-40.909 -230.691,-96.516 -269.902,-168.965c-93.117,-172.05 -27.39,-341.845 144.595,-471.076c266.693,-200.395 784.529,-304.052 1381.2,-176.242l0.001,0Z" style="fill:#7e4021;"/><path d="M2152.93,529.547c0.083,1.908 0.375,10.822 -0.746,17.615c-5.17,31.334 -23.333,76.807 -30.136,86.148c-5.415,7.436 -3.775,17.869 3.661,23.285c7.435,5.415 17.869,3.775 23.284,-3.661c7.949,-10.914 30.039,-63.736 36.08,-100.345c1.789,-10.843 2.157,-20.45 0.987,-27.658c-1.335,-8.225 -4.713,-14.305 -9.03,-18.314c-6.739,-6.261 -17.294,-5.871 -23.554,0.868c-5.787,6.231 -5.892,15.72 -0.546,22.062Z" style="fill:#7e4021;"/><path d="M2087.37,677.493l-22.156,17.276c-7.268,5.637 -8.593,16.115 -2.955,23.384c5.637,7.268 16.115,8.593 23.384,2.955c3.268,-2.534 21.275,-14.777 27.955,-22.717c5.602,-6.658 6.557,-13.382 5.937,-17.634c-1.328,-9.102 -9.795,-15.414 -18.898,-14.087c-6.286,0.917 -11.241,5.239 -13.267,10.823Z" style="fill:#7e4021;"/><path d="M413.996,426.797c1.005,-0.643 1.953,-1.408 2.827,-2.29c6.468,-6.54 6.411,-17.101 -0.129,-23.57c-3.355,-3.32 -11.232,-8.662 -21.496,-1.906c-3.526,2.321 -16.907,18.258 -17.661,19.308c-15.107,21.032 -25.773,46.205 -29.794,71.786c-1.88,11.962 -2.199,24.073 -0.768,36.1c1.945,16.359 7.189,32.341 12.979,47.689c3.247,8.607 12.871,12.958 21.477,9.711c8.607,-3.247 12.958,-12.871 9.711,-21.477c-4.847,-12.846 -9.439,-26.168 -11.067,-39.86c-1.07,-8.991 -0.808,-18.045 0.597,-26.987c3.223,-20.505 11.83,-40.658 23.938,-57.516c0.36,-0.5 7.21,-8.462 9.386,-10.988Zm-9.758,2.635c-3.988,-0.174 -7.927,-1.772 -10.985,-4.797c2.745,2.715 6.306,4.728 10.985,4.797Z" style="fill:#7e4021;"/><path d="M388.991,647.827c0.339,0.282 3.137,2.62 4.601,4.129c3.715,3.827 7.279,7.925 10.202,10.515c6.884,6.101 17.427,5.466 23.528,-1.418c6.101,-6.884 5.465,-17.427 -1.419,-23.528c-3.073,-2.724 -6.882,-7.42 -10.849,-11.238c-4.6,-4.428 -9.534,-7.862 -14.01,-9.529c-8.621,-3.209 -18.225,1.184 -21.434,9.805c-3.156,8.477 1.04,17.906 9.381,21.264Z" style="fill:#7e4021;"/><path d="M2160.73,892.578c-0.216,2.253 -0.799,8.231 -0.974,9.221c-9.507,53.736 -51.069,89.806 -93.778,119.031c-7.591,5.195 -9.537,15.576 -4.342,23.167c5.194,7.591 15.575,9.537 23.167,4.342c49.959,-34.187 96.656,-77.874 107.776,-140.733c0.494,-2.789 1.939,-17.98 0.86,-22.264c-1.185,-4.707 -3.672,-7.592 -5.726,-9.331c-7.019,-5.945 -17.545,-5.072 -23.49,1.947c-3.553,4.196 -4.671,9.645 -3.493,14.62Z" style="fill:#7e4021;"/><path d="M2016.03,1055.37c-0.733,0.635 -8.198,3.995 -9.765,4.767c-14.284,7.031 -28.849,13.537 -43.329,20.153c-8.367,3.822 -12.056,13.719 -8.233,22.085c3.823,8.367 13.719,12.056 22.086,8.233c14.771,-6.749 29.627,-13.392 44.198,-20.565c2.884,-1.42 8.868,-2.375 11.938,-3.877c3.948,-1.932 6.565,-4.534 8.158,-6.894c2.057,-3.047 3.028,-6.315 3.097,-9.717c0.075,-3.73 -0.804,-8.102 -4.639,-12.522c-6.029,-6.947 -16.564,-7.692 -23.511,-1.663Z" style="fill:#7e4021;"/><path d="M1598.72,148.958c-506.474,-101.876 -944.691,-22.151 -1169.79,131.595c-157.034,107.259 -212.742,250.17 -126.416,394.704c41.462,69.419 153.198,123.732 303.102,158.566c339.341,78.857 875.397,64.022 1189.71,-54.172c202.127,-76.008 312.672,-195.7 239.311,-355.675c-73.298,-159.839 -255.87,-238.801 -435.923,-275.018l-0,-0Zm-6.573,32.678c169.546,34.104 343.176,105.723 412.197,256.234c65.206,142.193 -41.086,243.022 -220.744,310.58c-309.217,116.277 -836.596,130.482 -1170.43,52.905c-84.586,-19.656 -156.62,-45.147 -209.09,-76.623c-33.076,-19.842 -58.191,-41.875 -72.94,-66.568c-76.857,-128.679 -23.21,-254.592 116.599,-350.086c220.163,-150.377 649.033,-226.086 1144.41,-126.442l0.001,0Z" style="fill:#7e4021;"/><path d="M1400.76,707.218c-64.231,73.267 -474,-63.727 -541.954,-102.214c-169.071,-95.757 -215.409,-212.49 -97.733,-261.998c95.607,-40.223 216.664,26.466 270.003,18.165c80.035,-12.456 56.44,-83.421 118.438,-116.595c65.485,-35.04 194.889,-4.264 263.97,58.366c138.448,125.517 48.635,334.285 -12.724,404.276Z" style="fill:#9d5e3e;"/><path d="M1413.29,718.204c32.086,-36.6 71.79,-109.407 85.195,-189.552c13.695,-81.878 0.154,-171.002 -73.809,-238.058c-43.791,-39.701 -110.447,-67.464 -171.772,-75.184c-42.524,-5.354 -82.472,-0.932 -111.256,14.47c-28.451,15.224 -41.57,37.05 -52.492,59.077c-12.048,24.299 -20.128,49.44 -60.646,55.745c-9.144,1.423 -20.592,-0.002 -33.742,-2.474c-22.879,-4.301 -50.148,-12.07 -79.312,-18.398c-52.127,-11.311 -109.873,-17.633 -160.849,3.814c-41.161,17.316 -64.284,42.537 -72.323,71.186c-8.016,28.565 -1.185,61.627 21.233,95.955c26.805,41.044 76.569,84.79 147.072,124.721c48.299,27.355 266.602,103.927 415.642,121.767c39.807,4.765 74.852,5.292 100.909,0.119c20.776,-4.125 36.428,-12.098 46.15,-23.187l-0,-0.001Zm-25.066,-21.973c-5.696,6.498 -15.402,10.049 -27.575,12.466c-23.358,4.637 -54.773,3.75 -90.456,-0.521c-144.528,-17.3 -356.34,-91.147 -403.177,-117.675c-48.928,-27.711 -87.277,-57.145 -113.819,-86.201c-33.226,-36.374 -48.164,-71.088 -37.635,-100.156c6.826,-18.843 24.337,-34.149 51.971,-45.775c54.044,-22.738 116.695,-8.166 169.042,4.601c39.66,9.673 74.218,18.224 97.061,14.669c47.344,-7.368 64.268,-31.739 78.293,-59.476c10.454,-20.674 18.11,-44.266 45.445,-58.892c23.604,-12.63 56.496,-15.179 91.367,-10.789c54.765,6.895 114.439,31.353 153.546,66.808c64.484,58.461 75.261,136.479 63.321,207.863c-12.229,73.115 -48.111,139.687 -77.384,173.078Z" style="fill:#7e4021;"/><path d="M1355.09,709.201c-53.261,60.754 -393.047,-52.843 -449.395,-84.757c-140.196,-79.403 -178.62,-176.199 -81.042,-217.252c79.279,-33.354 179.661,21.946 223.891,15.063c66.366,-10.329 46.8,-69.174 98.21,-96.682c54.3,-29.056 161.604,-3.536 218.887,48.398c114.802,104.08 40.328,277.193 -10.551,335.23Z" style="fill:#f7bf9a;"/><path d="M1367.63,720.188c26.847,-30.624 60.095,-91.529 71.311,-158.587c11.506,-68.789 0.043,-143.64 -62.098,-199.978c-36.712,-33.283 -92.581,-56.587 -143.992,-63.059c-35.915,-4.522 -69.642,-0.695 -93.954,12.313c-24.216,12.958 -35.438,31.485 -44.734,50.233c-9.61,19.381 -15.858,39.647 -48.175,44.676c-7.323,1.14 -16.486,-0.057 -27.016,-2.036c-18.95,-3.563 -41.534,-10 -65.689,-15.241c-43.779,-9.499 -92.273,-14.691 -135.086,3.321c-35.132,14.78 -54.746,36.43 -61.607,60.883c-6.839,24.369 -1.162,52.608 17.964,81.893c22.413,34.32 63.981,70.951 122.934,104.34c40.175,22.754 221.749,86.481 345.72,101.32c33.36,3.994 62.731,4.4 84.567,0.065c17.964,-3.567 31.449,-10.555 39.855,-20.143l-0,-0Zm-25.066,-21.974c-4.38,4.997 -11.918,7.563 -21.28,9.421c-19.138,3.8 -44.877,3.034 -74.114,-0.466c-119.459,-14.299 -294.542,-75.301 -333.255,-97.227c-40.266,-22.806 -71.838,-47.01 -93.681,-70.923c-26.649,-29.173 -39.078,-56.847 -30.633,-80.161c5.436,-15.006 19.515,-27.044 41.523,-36.303c44.247,-18.616 95.535,-6.496 138.393,3.957c33.334,8.13 62.397,15.199 81.597,12.211c40.509,-6.304 55.023,-27.113 67.024,-50.846c8.429,-16.67 14.444,-35.815 36.486,-47.609c19.13,-10.237 45.802,-12.19 74.064,-8.632c44.852,5.646 93.738,25.645 125.766,54.682c52.661,47.744 61.361,111.488 51.611,169.785c-10.04,60.027 -39.468,114.698 -63.501,142.111l0,0Z" style="fill:#7e4021;"/><path d="M1108.75,258.534c-16.505,31.823 -23.69,107.884 -31.145,130.748c-2.852,8.745 1.933,18.161 10.678,21.012c8.745,2.852 18.161,-1.933 21.013,-10.678c7.158,-21.952 13.197,-95.181 29.044,-125.735c4.235,-8.166 1.044,-18.234 -7.121,-22.469c-8.166,-4.235 -18.234,-1.044 -22.469,7.122Z" style="fill:#7e4021;"/><path d="M770.648,339.252c-13.022,42.687 -16.252,93.397 -16.504,121.781c-0.082,9.198 7.32,16.732 16.518,16.814c9.198,0.081 16.732,-7.32 16.814,-16.518c0.232,-26.181 3.044,-72.977 15.055,-112.351c2.684,-8.798 -2.28,-18.12 -11.079,-20.804c-8.798,-2.684 -18.12,2.28 -20.804,11.078Z" style="fill:#7e4021;"/><path d="M1379.74,296.598c-0.334,48.538 -8.278,74.029 -8.521,99.835c-0.086,9.198 7.312,16.736 16.51,16.822c9.198,0.086 16.736,-7.312 16.822,-16.51c0.243,-25.827 8.187,-51.339 8.522,-99.917c0.063,-9.199 -7.353,-16.718 -16.552,-16.781c-9.198,-0.064 -16.718,7.353 -16.781,16.551Z" style="fill:#7e4021;"/></g></svg>