<?xml version="1.0" encoding="UTF-8" standalone="no"?><!DOCTYPE svg PUBLIC "-//W3C//DTD SVG 1.1//EN" "http://www.w3.org/Graphics/SVG/1.1/DTD/svg11.dtd"><svg width="100%" height="100%" viewBox="0 0 3347 3078" version="1.1" xmlns="http://www.w3.org/2000/svg" xmlns:xlink="http://www.w3.org/1999/xlink" xml:space="preserve" xmlns:serif="http://www.serif.com/" style="fill-rule:evenodd;clip-rule:evenodd;stroke-linejoin:round;stroke-miterlimit:2;"><g id="Croissant"><path d="M1602.3,150.38c221.5,-173.131 461.917,-51.109 570.348,4.212c170.522,87 1229.41,819.035 959.065,1069.99c-150.643,139.838 -304.256,85.283 -628.563,258.048c-240.767,128.263 -632.588,442.074 -864.891,483.85c-153.182,27.548 -344.564,-49.225 -404.182,-155.65c-244.771,-436.944 130.157,-1474.37 368.223,-1660.44Z" style="fill:#f7bf9a;"/><path d="M1592.04,137.249c-120.536,94.215 -276.912,403.361 -370.98,744.853c-94.157,341.819 -125.569,715.426 -1.52,936.868c25.239,45.054 72.49,85.427 130.84,115.38c85.808,44.049 195.471,65.678 290.833,48.529c94.436,-16.983 214.97,-77.846 341.083,-153.536c185.882,-111.563 384.43,-255.155 528.695,-332.008c160.589,-85.549 278.936,-114.761 375.765,-139.952c100.661,-26.188 178.753,-48.606 256.3,-120.591c45.085,-41.851 57.477,-95.581 44.38,-157.276c-12.187,-57.407 -47.239,-122.252 -98.079,-190.261c-230.807,-308.754 -788.996,-688.216 -909.131,-749.509c-111.82,-57.05 -359.762,-181.04 -588.186,-2.497l0,-0Zm20.528,26.262c214.579,-167.721 447.467,-47.665 552.509,5.927c118.596,60.507 669.734,434.979 897.582,739.775c47.445,63.467 80.797,123.651 92.17,177.225c10.463,49.287 1.567,92.49 -34.451,125.924c-73.096,67.853 -147.131,88.076 -242.015,112.761c-98.715,25.683 -219.327,55.576 -383.045,142.793c-144.657,77.062 -343.787,220.98 -530.176,332.846c-122.068,73.263 -238.422,132.872 -329.828,149.31c-88.457,15.907 -190.117,-4.517 -269.711,-45.376c-51.918,-26.652 -94.525,-61.93 -116.981,-102.017c-120.722,-215.502 -87.056,-579.076 4.575,-911.725c91.721,-332.974 241.841,-635.578 359.371,-727.443l0,0Z" style="fill:#7e4021;"/><path d="M1602.3,150.38c47.331,-36.995 95.525,-60.513 143.111,-74.086c-697.447,-119.212 -1092.77,-79.307 -1104.87,301.775c-12.869,405.178 -171.36,646.76 -156.124,926.959c19.14,351.993 707.7,414.56 694.908,361.681c-117.973,-487.657 208.199,-1348.45 422.975,-1516.33Z" style="fill:#f7bf9a;"/><path d="M1612.57,163.511c45.455,-35.529 91.718,-58.155 137.418,-71.189c7.483,-2.134 12.493,-9.162 12.071,-16.932c-0.422,-7.769 -6.164,-14.213 -13.834,-15.524c-351.519,-60.084 -626.921,-79.597 -815.948,-36.545c-97.646,22.24 -172.766,61.18 -224.484,118.946c-52.035,58.12 -80.734,135.448 -83.904,235.273c-6.387,201.086 -49.002,361.559 -88.037,506.543c-39.817,147.887 -75.784,280.005 -68.071,421.85c6.432,118.275 83.937,206.063 187.161,268.084c150.264,90.283 354.702,125.714 458.848,125.841c34.001,0.041 58.296,-4.354 68.905,-10.486c12.231,-7.069 15.19,-16.847 12.835,-26.582c-70.118,-289.845 18.867,-712.657 146.658,-1040.53c84.609,-217.081 185.864,-392.684 270.382,-458.747l0,0Zm-451.568,1498.03c-8.893,1.726 -28.286,5.002 -47.172,4.979c-100.255,-0.121 -297.071,-34.17 -441.72,-121.08c-93.386,-56.109 -165.226,-134.319 -171.045,-241.321c-7.523,-138.354 28.138,-267.127 66.974,-411.374c39.619,-147.152 82.684,-310.058 89.166,-514.151c2.882,-90.716 28.136,-161.281 75.423,-214.097c47.604,-53.171 117.173,-88.208 207.051,-108.679c174.839,-39.821 424.73,-24.423 741.361,26.666c-29.771,13.757 -59.549,31.742 -88.998,54.761l0,-0c-87.303,68.239 -193.515,248.67 -280.912,472.904c-128.887,330.688 -217.623,756.348 -150.128,1051.39Z" style="fill:#7e4021;"/><path d="M484.421,1305.03c-175.789,-180.127 -472.644,-82.198 -466.99,-356.152c6.654,-322.352 265.55,-480.936 642.622,-689.791c4.886,36.795 -18.106,74.839 -19.508,118.984c-12.869,405.178 -171.36,646.76 -156.124,926.959Z" style="fill:#f7bf9a;"/><path d="M472.493,1316.67c4.85,4.97 12.272,6.412 18.629,3.62c6.358,-2.792 10.318,-9.232 9.941,-16.165c-7.523,-138.354 28.138,-267.127 66.974,-411.374c39.619,-147.152 82.684,-310.058 89.166,-514.151c0.659,-20.728 6.553,-39.99 11.542,-58.423c5.92,-21.876 10.552,-42.78 7.83,-63.284c-0.726,-5.462 -4.104,-10.213 -9.026,-12.692c-4.922,-2.478 -10.751,-2.364 -15.572,0.307c-189.952,105.212 -350.027,197.932 -463.564,304.776c-116.085,109.242 -184.218,233.218 -187.645,399.25c-1.217,58.974 11.03,101.832 32.214,134.381c31.505,48.407 83.428,74.345 144.565,95.013c93.269,31.53 209.088,50.766 294.946,138.742Zm-5.764,-50.357c-85.647,-69.843 -191.188,-90.444 -278.507,-119.963c-53.442,-18.066 -99.763,-39.304 -127.302,-81.618c-18.179,-27.931 -27.87,-64.902 -26.826,-115.51c3.227,-156.32 67.869,-272.812 177.163,-375.664c106.651,-100.363 255.19,-187.769 431.001,-285.536c-1.43,7.674 -3.53,15.469 -5.689,23.447c-5.636,20.824 -11.938,42.656 -12.682,66.073c-6.387,201.086 -49.002,361.559 -88.037,506.543c-36.087,134.035 -69.012,255.117 -69.121,382.228Z" style="fill:#7e4021;"/><path d="M1638.26,1966.48c-73.565,13.23 56.261,580.165 370.163,607.779c297.443,26.167 655.635,-320.754 1203.71,-349.489c220.875,-11.581 92.953,-791.86 -80.416,-1000.19c-156.963,132.706 -304.256,85.283 -628.563,258.048c-240.767,128.263 -632.588,442.074 -864.891,483.85Z" style="fill:#f7bf9a;"/><path d="M1635.31,1950.07c-11.616,2.089 -21.823,10.607 -27.683,27.034c-8.378,23.488 -8.108,68.583 2.441,124.362c20.065,106.09 75.876,252.847 165.746,357.589c61.51,71.689 138.898,123.685 231.147,131.8c121.388,10.679 252.887,-38.803 402.541,-104.793c218.46,-96.331 476.991,-227.536 803.5,-244.655c38.771,-2.033 68.814,-23.634 90.415,-60.851c19.406,-33.435 31.947,-80.208 38.081,-135.737c27.65,-250.315 -73.737,-682.817 -196.974,-830.905c-2.842,-3.415 -6.929,-5.554 -11.355,-5.942c-4.426,-0.388 -8.824,1.007 -12.216,3.875c-76.433,64.621 -150.683,85.004 -245.134,110.645c-97.878,26.572 -216.852,58.24 -380.505,145.422c-144.657,77.062 -343.787,220.98 -530.176,332.846c-122.068,73.263 -238.422,132.872 -329.828,149.31Zm6.632,32.671c94.33,-17.163 214.565,-77.907 340.35,-153.4c185.882,-111.563 384.43,-255.155 528.695,-332.008c160.654,-85.584 277.48,-116.587 373.565,-142.672c93.994,-25.517 168.685,-46.79 244.541,-106.443c114.722,154.444 205.313,557.198 179.273,792.941c-5.536,50.114 -16.265,92.49 -33.778,122.664c-15.318,26.392 -35.837,42.855 -63.331,44.296c-331.178,17.364 -593.62,149.735 -815.204,247.443c-143.71,63.369 -269.604,112.342 -386.171,102.088c-83.536,-7.349 -153.07,-55.383 -208.77,-120.301c-85.947,-100.168 -139.102,-240.62 -158.291,-342.078c-7.914,-41.843 -10.163,-76.782 -5.924,-98.861c0.862,-4.492 1.957,-8.316 3.486,-11.323c0.415,-0.817 1.213,-1.899 1.559,-2.346Z" style="fill:#7e4021;"/><path d="M3212.13,2224.76c-96.111,300.318 -342.014,848.013 -717.759,835.911c-213.5,-6.876 -312.768,-364.813 -485.948,-486.422c297.443,26.167 655.635,-320.754 1203.71,-349.489Z" style="fill:#f7bf9a;"/><path d="M3228.01,2229.85c1.669,-5.216 0.67,-10.918 -2.674,-15.256c-3.343,-4.337 -8.604,-6.755 -14.072,-6.468c-331.178,17.364 -593.62,149.735 -815.204,247.443c-143.71,63.369 -269.604,112.342 -386.171,102.088c-7.511,-0.661 -14.531,3.804 -17.117,10.888c-2.585,7.084 -0.092,15.021 6.079,19.354c102.777,72.17 178.675,228.931 269.011,343.911c64.234,81.757 135.883,142.627 225.979,145.529c155.185,4.998 289.397,-81.571 400.364,-208.195c162.737,-185.698 275.591,-457.393 333.805,-639.294Zm-39.316,13.056c-59.016,177.785 -166.665,429.804 -319.558,604.269c-103.978,118.648 -228.811,201.531 -374.222,196.848c-49.529,-1.595 -92.262,-23.942 -131.269,-57.741c-41.067,-35.585 -77.93,-83.725 -113.664,-135.282c-63.22,-91.215 -123.098,-192.685 -193.726,-258.978c107.615,-4.018 223.624,-48.792 353.254,-105.953c213.009,-93.928 464.114,-221.01 779.185,-243.163l-0,-0Z" style="fill:#7e4021;"/><path d="M2519.69,2978.1c-8.064,-0.429 -13.934,-5.452 -14.624,-12.362c-0.675,-6.754 2.938,-14.179 10.462,-21.024c10.571,-9.616 27.948,-17.392 53.402,-21.521c48.227,-7.824 98.285,8.034 126.023,30.105c7.721,6.144 13.644,12.615 16.491,19.308c1.603,3.77 2.024,7.544 0.045,10.998c-4.572,7.981 -1.804,18.174 6.178,22.746c7.982,4.572 18.174,1.804 22.746,-6.178c10.295,-17.972 6.888,-38.733 -9.142,-57.951c-27.934,-33.489 -99.122,-63.053 -167.679,-51.932c-57.892,9.392 -83.391,36.708 -89.953,59.88c-3.569,12.601 -2.164,24.809 2.833,34.952c7.164,14.541 21.808,25.22 41.447,26.265c9.185,0.489 17.04,-6.572 17.528,-15.758c0.489,-9.185 -6.572,-17.039 -15.757,-17.528Z" style="fill:#7e4021;"/><path d="M157.582,1129.69c-22.768,-51.987 -51.362,-146.242 -9.093,-254.515c3.345,-8.568 -0.895,-18.241 -9.464,-21.586c-8.569,-3.345 -18.242,0.895 -21.587,9.464c-46.501,119.113 -15.437,222.817 9.61,280.009c3.69,8.426 13.527,12.271 21.953,8.581c8.426,-3.69 12.271,-13.527 8.581,-21.953Z" style="fill:#7e4021;"/><path d="M2922.39,2731.57c39.41,-17.762 76.39,-23.138 109.24,-58.539c6.257,-6.743 5.862,-17.297 -0.881,-23.554c-6.743,-6.257 -17.297,-5.862 -23.554,0.881c-29.378,31.661 -63.256,34.937 -98.502,50.823c-8.386,3.78 -12.126,13.657 -8.346,22.043c3.779,8.386 13.656,12.126 22.043,8.346Z" style="fill:#7e4021;"/><path d="M1267.81,1089.49c-5.433,25.422 -13.23,60.719 -17.639,86.626c-10.784,63.361 -16.069,128.445 -13.881,192.721c0.313,9.193 8.031,16.403 17.224,16.09c9.193,-0.313 16.403,-8.03 16.09,-17.224c-2.111,-62.033 3.021,-124.844 13.428,-185.994c4.339,-25.498 12.028,-60.232 17.375,-85.253c1.923,-8.996 -3.82,-17.86 -12.815,-19.782c-8.996,-1.922 -17.86,3.82 -19.782,12.816Z" style="fill:#7e4021;"/><path d="M1232.49,1489.53c0.166,5.777 0.423,11.551 0.633,17.327c0.721,19.8 2.781,39.522 4.554,59.248c0.823,9.162 8.93,15.932 18.092,15.108c9.161,-0.823 15.931,-8.93 15.107,-18.092c-1.72,-19.136 -3.743,-38.267 -4.441,-57.476c-0.207,-5.691 -0.462,-11.38 -0.625,-17.073c-0.265,-9.194 -7.944,-16.445 -17.139,-16.181c-9.195,0.264 -16.445,7.944 -16.181,17.139Z" style="fill:#7e4021;"/><path d="M1917.3,2479.06c71.409,36.174 140.238,37.675 228.546,15.915c8.932,-2.201 14.396,-11.239 12.195,-20.171c-2.201,-8.931 -11.239,-14.395 -20.17,-12.195c-79.38,19.561 -141.319,19.232 -205.508,-13.285c-8.206,-4.156 -18.243,-0.869 -22.4,7.337c-4.156,8.206 -0.869,18.242 7.337,22.399Z" style="fill:#7e4021;"/><path d="M2224.63,2471.58c20.836,-6.552 79.53,-26.808 99.716,-35.101c8.509,-3.495 12.579,-13.241 9.083,-21.749c-3.495,-8.509 -13.241,-12.579 -21.749,-9.084c-19.644,8.07 -76.771,27.76 -97.048,34.135c-8.776,2.759 -13.66,12.124 -10.901,20.899c2.76,8.775 12.124,13.659 20.899,10.9Z" style="fill:#7e4021;"/><path d="M549.689,1145.31c-3.824,19.345 -6.696,38.872 -8.995,58.453c-7.384,62.892 1.037,127.192 31.148,183.197c4.356,8.102 14.47,11.143 22.571,6.788c8.102,-4.356 11.144,-14.47 6.788,-22.572c-26.867,-49.972 -33.99,-107.41 -27.401,-163.526c2.198,-18.717 4.934,-37.384 8.59,-55.875c1.784,-9.024 -4.094,-17.799 -13.118,-19.583c-9.024,-1.784 -17.799,4.094 -19.583,13.118Z" style="fill:#7e4021;"/><path d="M618.551,1466.35c13.484,13.908 28.673,26.324 43.366,38.918c6.984,5.987 17.514,5.177 23.501,-1.807c5.986,-6.984 5.176,-17.515 -1.808,-23.501c-13.918,-11.93 -28.354,-23.638 -41.127,-36.812c-6.403,-6.605 -16.963,-6.768 -23.567,-0.365c-6.604,6.403 -6.768,16.963 -0.365,23.567Z" style="fill:#7e4021;"/><path d="M175.556,758.144c23.636,-45.61 35.86,-92.252 48.065,-134.697c11.22,-39.022 22.081,-74.347 44.166,-100.698c5.909,-7.05 4.982,-17.571 -2.068,-23.48c-7.05,-5.908 -17.571,-4.981 -23.479,2.069c-20.109,23.993 -32.646,54.242 -43.284,88.175c-14.637,46.692 -25.772,100.761 -52.995,153.295c-4.233,8.167 -1.038,18.233 7.129,22.466c8.167,4.232 18.234,1.037 22.466,-7.13Z" style="fill:#7e4021;"/><path d="M2304.86,2930.93c8.378,-10.793 27.035,-29.865 37.926,-38.081c33.314,-25.133 72.532,-42.653 111.993,-55.654c65.786,-21.674 125.843,-20.469 186.397,-22.613c64.282,-2.277 129.072,-8.08 201.152,-44.228c8.223,-4.123 11.551,-14.147 7.427,-22.369c-4.123,-8.223 -14.147,-11.551 -22.369,-7.427c-67.112,33.656 -127.538,38.592 -187.39,40.711c-63.58,2.252 -126.574,1.509 -195.648,24.266c-42.895,14.133 -85.423,33.383 -121.638,60.704c-12.671,9.559 -34.435,31.695 -44.182,44.253c-5.64,7.266 -4.32,17.745 2.947,23.385c7.266,5.64 17.745,4.32 23.385,-2.947Z" style="fill:#7e4021;"/></g></svg>