<?xml version="1.0" encoding="UTF-8" standalone="no"?><!DOCTYPE svg PUBLIC "-//W3C//DTD SVG 1.1//EN" "http://www.w3.org/Graphics/SVG/1.1/DTD/svg11.dtd"><svg width="100%" height="100%" viewBox="0 0 2149 3066" version="1.1" xmlns="http://www.w3.org/2000/svg" xmlns:xlink="http://www.w3.org/1999/xlink" xml:space="preserve" xmlns:serif="http://www.serif.com/" style="fill-rule:evenodd;clip-rule:evenodd;stroke-linejoin:round;stroke-miterlimit:2;"><g id="Cupcake"><path d="M91.159,1894.91c12.657,-24.164 73.539,-45.413 97.07,-58.51c214.955,-119.637 227.39,29.915 387.922,14.061c81.328,-8.032 154.012,-80.055 237.83,-69.811c92.268,11.277 182.653,90.164 274.985,88.939c6.704,-0.089 13.607,-1.401 20.049,-2.943c72.671,-17.39 135.694,-67.061 212.446,-73.08c97.853,-7.675 172.032,118.049 272.41,115.261c139.758,-3.882 121.239,-110.268 320.234,-67.031c8.26,1.794 121.949,23.46 121.949,31.39c0,100.687 -110.092,391.898 -145.86,490.322c-173.749,478.109 -177.616,697.398 -824.7,685.161c-156.565,-2.961 -403.443,-18.352 -534.343,-107.325c-141.236,-95.999 -415.646,-868.993 -439.992,-1046.43Z" style="fill:#ffdab8;"/><path d="M76.395,1887.18c-1.608,3.07 -2.219,6.565 -1.748,9.999c17.145,124.956 157.325,543.571 288.765,816.57c57.709,119.86 114.702,211.702 158.37,241.383c133.168,90.515 384.118,107.192 543.397,110.205c263.729,4.987 422.408,-28.765 529.438,-101.047c81.322,-54.921 133.438,-132.11 178.34,-232.838c43.633,-97.881 80.617,-218.375 132.901,-362.248c36.17,-99.528 146.863,-394.196 146.863,-496.014c0,-3.791 -1.081,-8.356 -5.261,-12.646c-2.285,-2.345 -8.494,-6.167 -18.086,-9.323c-29.819,-9.812 -105.022,-24.25 -111.731,-25.708c-126.632,-27.514 -170.163,2.457 -216.784,31.439c-27.211,16.917 -55.542,33.777 -107.451,35.219c-46.72,1.298 -86.845,-28.446 -127.174,-56.487c-46.618,-32.413 -93.429,-62.859 -146.076,-58.73c-40.304,3.161 -77.071,17.554 -113.234,33.668c-33.495,14.926 -66.444,31.361 -101.788,39.819c-5.27,1.261 -10.906,2.414 -16.391,2.487c-43.807,0.581 -87.002,-18.356 -130.339,-38.262c-47.272,-21.714 -94.652,-44.72 -142.403,-50.556c-44.983,-5.497 -87.134,10.406 -128.795,29.436c-37.122,16.956 -73.805,36.492 -112.695,40.333c-60.319,5.957 -98.283,-13.37 -135.163,-31.006c-31.513,-15.069 -62.375,-28.971 -102.507,-29.858c-39.602,-0.875 -88.618,10.923 -156.719,48.826c-14.126,7.862 -41.702,18.661 -64.24,31.264c-18.346,10.258 -33.304,22.268 -39.489,34.075Zm1942.63,-3.372c-6.888,108.005 -110.312,379.952 -144.493,474.011c-51.965,142.994 -88.652,262.778 -132.018,360.061c-42.097,94.436 -90.309,167.297 -166.551,218.786c-103.056,69.599 -256.213,100.146 -510.152,95.343c-153.853,-2.909 -396.657,-17.013 -525.289,-104.445c-41.074,-27.919 -92.793,-115.533 -147.074,-228.275c-127.792,-265.422 -264.394,-669.996 -284.869,-800.499l0,-0c5.033,-5.911 13.926,-11.196 23.576,-16.592c22.516,-12.59 50.069,-23.376 64.181,-31.231c60.872,-33.879 104.375,-45.409 139.773,-44.627c34.867,0.771 61.484,13.513 88.863,26.605c41.642,19.913 84.712,40.832 152.819,34.106c42.438,-4.192 82.76,-24.683 123.268,-43.185c35.968,-16.43 72.065,-31.415 110.902,-26.669c44.517,5.441 88.463,27.517 132.534,47.76c48.006,22.051 96.168,41.945 144.694,41.301c7.924,-0.105 16.094,-1.577 23.707,-3.399c37.326,-8.932 72.224,-26.027 107.597,-41.79c32.705,-14.573 65.825,-28.025 102.273,-30.884c45.212,-3.546 84.407,25.031 124.441,52.867c46.321,32.207 93.467,63.93 147.129,62.439c59.898,-1.663 92.724,-20.71 124.124,-40.23c41.294,-25.671 79.946,-51.545 192.108,-27.175c6.122,1.33 85.259,20.189 108.457,25.722Z" style="fill:#7e4021;"/><path d="M399.745,2104.05c-24.525,-69.779 -61.322,-74.336 -39.539,-12.031c13.083,37.422 26.321,74.793 39.684,112.131c95.922,268.017 186.252,538.544 278.239,807.935c2.972,8.705 12.453,13.36 21.158,10.387c8.705,-2.972 13.359,-12.453 10.387,-21.158c-92.04,-269.545 -182.423,-540.226 -278.4,-808.396c-10.593,-29.599 -21.108,-59.218 -31.529,-88.868Z" style="fill:#7e4021;"/><path d="M657.461,2192.19c-27.999,-113.713 -59.207,-100.372 -30.716,14.542c8.425,33.984 16.657,65.066 24.458,91.069c80.38,267.931 121.812,450.893 190.764,722.105c2.266,8.915 11.344,14.313 20.259,12.046c8.915,-2.266 14.313,-11.344 12.046,-20.259c-69.083,-271.726 -110.609,-455.031 -191.141,-723.47c-8.176,-27.253 -16.824,-60.106 -25.67,-96.033Z" style="fill:#7e4021;"/><path d="M877.757,2194.2c-18.019,-137.275 -50.797,-131.025 -32.723,6.737c37.073,282.567 70.375,572.37 111.188,841.738c1.378,9.095 9.88,15.36 18.975,13.982c9.095,-1.378 15.36,-9.88 13.982,-18.975c-40.897,-269.923 -74.257,-560.359 -111.422,-843.482Z" style="fill:#7e4021;"/><path d="M1115.27,2181.52c0.147,-56.481 -33.181,-58.572 -33.325,-3.07c-0.098,37.395 -0.196,74.79 -0.321,112.184c-0.828,249.455 -3.289,499.124 -0.284,748.569c0.111,9.198 7.669,16.575 16.867,16.465c9.198,-0.111 16.575,-7.669 16.464,-16.867c-3.003,-249.274 -0.541,-498.772 0.286,-748.056c0.121,-36.408 0.218,-72.816 0.313,-109.225Z" style="fill:#7e4021;"/><path d="M1314.69,2235.09c11.659,-100.189 -21.447,-104.073 -33.11,-3.853c-31.009,266.441 -53.361,538.492 -75.173,805.694c-0.748,9.168 6.087,17.219 15.255,17.967c9.168,0.749 17.219,-6.087 17.968,-15.255c21.781,-266.823 44.095,-538.489 75.06,-804.553Z" style="fill:#7e4021;"/><path d="M1585.42,2172.12c8.857,-38.948 -27.346,-30.152 -38.018,16.882c-7.633,33.643 -15.222,67.296 -22.697,100.973c-53.13,239.349 -100.926,481.389 -167.643,717.465c-2.502,8.852 2.654,18.069 11.505,20.571c8.852,2.502 18.07,-2.654 20.572,-11.506c66.889,-236.685 114.841,-479.34 168.107,-719.307c9.261,-41.72 18.697,-83.404 28.174,-125.078Z" style="fill:#7e4021;"/><path d="M1810.48,2105.18c18.599,-79.654 -17.068,-72.987 -37.279,12.989c-8.295,35.29 -16.603,69.989 -24.816,103.303c-59.176,240.021 -117.117,481.314 -182.865,719.653c-2.447,8.868 2.767,18.053 11.634,20.499c8.867,2.446 18.052,-2.767 20.499,-11.634c65.829,-238.633 123.848,-480.222 183.096,-720.539c9.836,-39.894 19.807,-81.771 29.731,-124.271Z" style="fill:#7e4021;"/><path d="M435.486,2120.56c-5.052,-5.097 -166.361,9.004 -292.921,-123.58c-71.906,-75.328 -151.311,-219.728 -116.829,-359.111c52.974,-214.133 272.752,-244.797 272.295,-247.92c-18.584,-127.097 3.084,-253.909 78.674,-359.663c76.824,-107.48 205.401,-168.4 213.218,-192.112c4.506,-13.667 -8.812,-43.49 -14.712,-86.485c-17.043,-124.204 30.214,-233.861 98.587,-337.787c62.4,-94.848 431.52,-446.17 555.542,-391.271c37.981,16.813 -14.256,75.709 36.483,162.173c65.739,112.029 159.677,154.037 238.194,306.196c29.979,58.096 21.067,145.434 47.694,191.331c40.752,70.244 194.161,120.932 261.854,261.234c40.607,84.162 52.871,175.819 42.008,268.029c-2.909,24.689 -19.839,101.843 -37.637,157.424c47.618,15.756 282.503,72.799 309.428,283.489c52.592,411.547 -408.121,645.842 -1024.43,600.967c-205.202,-14.942 -464.502,71.848 -667.451,-132.914Z" style="fill:#fff;"/><path d="M574.272,832.305c-0.743,0.846 -3.755,4.221 -6.401,6.532c-5.72,4.997 -13.483,10.801 -22.705,17.478c-46.336,33.548 -127.041,87.362 -182.02,164.28c-75.271,105.308 -99.075,230.756 -83.55,357.256c-51.367,13.567 -223.076,66.182 -270.039,256.017c-35.945,145.297 45.995,296.096 120.952,374.621c117.371,122.958 263.343,124.816 296.858,127.507c103.966,102.827 221.864,132.963 340.171,138.851c115.712,5.759 231.705,-12.212 334.189,-4.75c311.975,22.716 584.486,-25.718 772.431,-131.42c192.048,-108.011 296.942,-275.407 269.738,-488.281c-14.2,-111.117 -82.88,-181.963 -154.647,-226.862c-58.185,-36.402 -118.178,-55.479 -150.5,-65.46c16.234,-54.586 30.681,-121.651 33.376,-144.529c11.236,-95.377 -1.548,-190.168 -43.549,-277.221c-41.944,-86.933 -115.357,-140.928 -176.783,-185.581c-37.425,-27.205 -70.282,-50.258 -85.666,-76.775c-12.407,-21.386 -15.981,-52.562 -20.498,-85.024c-5.111,-36.721 -11,-74.964 -26.801,-105.586c-40.15,-77.806 -84.181,-127.494 -126.64,-172.007c-40.627,-42.593 -79.825,-80.166 -111.991,-134.981c-33.406,-56.929 -18.343,-101.307 -19.158,-128.142c-0.589,-19.423 -6.852,-32.823 -24.953,-40.836c-17.59,-7.786 -39.317,-9.184 -64.123,-4.497c-32.994,6.235 -72.151,23.349 -113.92,47.719c-157.236,91.744 -353.856,286.773 -398.169,354.128c-70.645,107.381 -118.784,220.882 -101.175,349.214c3.613,26.328 9.91,47.826 13.41,63.817c1.369,6.258 2.932,11.081 2.163,14.532Zm-126.949,1276.52c-1.446,-1.459 -6.6,-5.159 -16.441,-5.994c-29.784,-2.525 -166.664,-2.548 -276.261,-117.362c-68.855,-72.132 -145.725,-210.132 -112.706,-343.6c45.43,-183.639 220.111,-225.12 254.175,-233.86c8.259,-2.119 12.516,-5.072 13.328,-5.84c5.288,-4.99 5.722,-10.41 5.104,-14.634c-17.955,-122.799 2.708,-245.382 75.742,-347.561c52.575,-73.554 130.141,-124.582 174.45,-156.664c14.757,-10.684 26.116,-19.57 32.533,-26.517c4.564,-4.942 7.238,-9.56 8.505,-13.404c2.004,-6.08 2.27,-14.312 0.527,-24.587c-2.721,-16.045 -10.456,-39.507 -14.556,-69.382c-16.477,-120.077 29.897,-225.888 95.998,-326.361c43.048,-65.432 234.373,-254.534 387.121,-343.658c37.942,-22.138 73.339,-38.092 103.31,-43.756c17.172,-3.245 32.265,-3.166 44.442,2.224c4.105,1.817 4.76,5.324 5.042,9.565c0.268,4.04 0.051,8.549 -0.287,13.507c-2.124,31.17 -8.741,76.331 24.099,132.295c33.574,57.215 74.214,96.66 116.62,141.118c40.574,42.538 82.77,89.933 121.138,164.285c14.177,27.475 18.822,61.948 23.407,94.895c5.178,37.207 10.461,72.646 24.682,97.157c17.218,29.679 53.011,56.562 94.898,87.011c57.539,41.827 127.072,91.672 166.361,173.102c39.212,81.271 50.957,169.795 40.467,258.837c-2.851,24.2 -19.512,99.811 -36.958,154.291c-2.788,8.707 1.958,18.034 10.637,20.906c23.272,7.7 92.366,25.344 158.87,66.951c64.312,40.234 126.537,103.255 139.261,202.828c25.389,198.673 -73.777,354.197 -253.014,455.002c-183.34,103.113 -449.338,149.388 -753.67,127.229c-102.718,-7.479 -218.976,10.475 -334.952,4.703c-111.969,-5.573 -223.792,-33.771 -321.872,-132.726Z" style="fill:#7e4021;"/><path d="M590.85,863.706c126.601,-109.532 271.97,-125.429 400.395,-158.583c118.26,-30.529 216.591,-94.844 248.189,-177.21c3.295,-8.588 -1.003,-18.236 -9.591,-21.53c-8.589,-3.295 -18.236,1.003 -21.531,9.591c-28.453,74.17 -118.907,129.383 -225.399,156.874c-132.938,34.319 -282.822,52.268 -413.873,165.65c-6.956,6.019 -7.718,16.553 -1.699,23.509c6.018,6.956 16.552,7.718 23.509,1.699Z" style="fill:#7e4021;"/><path d="M1514.1,601.923c3.077,64.93 -14.866,116.883 -36.66,158.38c-43.378,82.594 -126.073,135.849 -215.263,182.405c-93.142,48.62 -193.51,89.777 -268.046,145.566c-7.364,5.512 -8.868,15.966 -3.356,23.331c5.512,7.364 15.966,8.867 23.33,3.355c73.225,-54.808 171.993,-94.937 263.497,-142.702c95.459,-49.829 182.921,-108.056 229.349,-196.456c24.139,-45.962 43.853,-103.54 40.445,-175.457c-0.435,-9.188 -8.248,-16.294 -17.437,-15.859c-9.188,0.436 -16.294,8.249 -15.859,17.437Z" style="fill:#7e4021;"/><path d="M279.022,1388.81c10.786,27.517 38.401,52.466 61.082,69.785c58.935,45.004 129.791,77.468 203.006,89.462c214.846,35.195 421.993,-23.875 603.81,-138.153c7.788,-4.896 10.137,-15.192 5.242,-22.98c-4.895,-7.788 -15.192,-10.137 -22.98,-5.242c-174.894,109.927 -374.018,167.335 -580.683,133.48c-67.881,-11.12 -133.524,-41.335 -188.165,-83.059c-18.307,-13.98 -41.572,-33.247 -50.278,-55.458c-3.357,-8.564 -13.035,-12.791 -21.6,-9.434c-8.564,3.357 -12.791,13.035 -9.434,21.599Z" style="fill:#7e4021;"/><path d="M1810.61,1338.52c-40.697,124.528 -85.141,180.159 -150.547,239.63c-140.548,127.793 -311.076,186.076 -493.811,231.025c-8.932,2.197 -14.4,11.233 -12.203,20.165c2.197,8.932 11.233,14.4 20.165,12.203c188.221,-46.298 363.506,-107.101 508.273,-238.731c69.345,-63.052 116.659,-121.911 159.807,-253.938c2.857,-8.743 -1.922,-18.162 -10.665,-21.019c-8.744,-2.858 -18.162,1.921 -21.019,10.665Z" style="fill:#7e4021;"/><path d="M390.158,2133.92c191.812,10.276 352.334,-56.597 440.445,-121.693c7.399,-5.466 8.968,-15.911 3.502,-23.309c-5.466,-7.399 -15.91,-8.968 -23.309,-3.502c-83.766,61.886 -236.503,124.988 -418.855,115.218c-9.185,-0.492 -17.042,6.566 -17.534,15.751c-0.492,9.186 6.566,17.043 15.751,17.535Z" style="fill:#7e4021;"/><path d="M1046.51,2268.29c53.978,-4.114 95.351,-13.614 139.317,-24.607c90.482,-22.625 179.379,-56.587 261.678,-100.534c8.114,-4.333 11.184,-14.438 6.851,-22.552c-4.332,-8.115 -14.438,-11.184 -22.552,-6.852c-79.904,42.668 -166.215,75.634 -254.063,97.6c-42.217,10.556 -81.931,19.758 -133.764,23.708c-9.172,0.699 -16.051,8.712 -15.352,17.884c0.699,9.172 8.713,16.052 17.885,15.353Z" style="fill:#7e4021;"/><circle cx="768.567" cy="455.096" r="25.018" style="fill:#d9905f;"/><circle cx="508.905" cy="1715.45" r="25.018" style="fill:#d9905f;"/><circle cx="260.04" cy="1713.75" r="25.018" style="fill:#d9905f;"/><circle cx="1668.97" cy="914.663" r="25.018" style="fill:#d9905f;"/><circle cx="1499.62" cy="1802.05" r="25.018" style="fill:#7e4021;"/><circle cx="1850.53" cy="1841.39" r="25.018" style="fill:#7e4021;"/><path d="M990.66,1874.45c-4.278,-25.181 -6.019,-67.538 -19.555,-90.795c-13.536,-23.256 -37.29,-30.073 -52.846,-33.597c16.584,-3.376 39.31,-10.34 52.846,-33.596c13.536,-23.257 16.075,-63.589 19.555,-90.795c3.572,24.916 6.018,67.538 19.555,90.795c13.536,23.256 36.996,28.752 52.846,33.596c-15.703,4.845 -39.31,10.341 -52.846,33.597c-13.537,23.257 -13.282,64.188 -19.555,90.795Z" style="fill:#d9905f;"/><path d="M909.615,520.755c-4.278,-25.181 -6.019,-67.538 -19.555,-90.795c-13.536,-23.257 -37.29,-30.074 -52.846,-33.597c16.584,-3.376 39.31,-10.34 52.846,-33.597c13.536,-23.256 16.075,-63.588 19.555,-90.794c3.572,24.916 6.018,67.538 19.555,90.794c13.536,23.257 36.996,28.753 52.846,33.597c-15.703,4.845 -39.31,10.34 -52.846,33.597c-13.537,23.257 -13.281,64.188 -19.555,90.795Z" style="fill:#d9905f;"/><path d="M581.817,1299.21c-5.855,-34.467 -8.238,-92.445 -26.766,-124.279c-18.529,-31.833 -51.042,-41.164 -72.335,-45.987c22.699,-4.621 53.806,-14.153 72.335,-45.987c18.528,-31.834 22.002,-87.039 26.766,-124.279c4.889,34.106 8.238,92.445 26.766,124.279c18.529,31.834 50.641,39.356 72.336,45.987c-21.494,6.631 -53.807,14.154 -72.336,45.987c-18.528,31.834 -18.179,87.86 -26.766,124.279Z" style="fill:#7e4021;"/><circle cx="1418.81" cy="963.343" r="25.018" style="fill:#7e4021;"/><circle cx="1343.86" cy="791.257" r="25.018" style="fill:#d9905f;"/><circle cx="1441.68" cy="1611.69" r="16.344" style="fill:#d9905f;"/><circle cx="1232.24" cy="1114.67" r="16.344" style="fill:#d9905f;"/><circle cx="1055.25" cy="266.118" r="16.344" style="fill:#7e4021;"/><circle cx="805.922" cy="561.519" r="16.344" style="fill:#7e4021;"/><circle cx="441.867" cy="1848.36" r="16.344" style="fill:#7e4021;"/><circle cx="2016.73" cy="1624.53" r="16.344" style="fill:#7e4021;"/><path d="M1559.56,1033.26c3.761,-14.036 18.209,-22.378 32.245,-18.617c14.036,3.761 22.377,18.209 18.617,32.245c-3.761,14.036 -18.21,22.378 -32.246,18.617c-14.035,-3.761 -22.377,-18.21 -18.616,-32.245Z" style="fill:#d9905f;"/><path d="M1252.36,1505.11c3.761,-14.035 18.21,-22.377 32.245,-18.616c14.036,3.761 22.378,18.209 18.617,32.245c-3.761,14.036 -18.209,22.377 -32.245,18.617c-14.036,-3.761 -22.378,-18.21 -18.617,-32.246Z" style="fill:#7e4021;"/><circle cx="1879.74" cy="1722.52" r="16.344" style="fill:#d9905f;"/><circle cx="713.905" cy="610.208" r="25.018" style="fill:#d9905f;"/><circle cx="1227.47" cy="1659.65" r="25.018" style="fill:#d9905f;"/></g></svg>