<?xml version="1.0" encoding="UTF-8" standalone="no"?><!DOCTYPE svg PUBLIC "-//W3C//DTD SVG 1.1//EN" "http://www.w3.org/Graphics/SVG/1.1/DTD/svg11.dtd"><svg width="100%" height="100%" viewBox="0 0 3544 2762" version="1.1" xmlns="http://www.w3.org/2000/svg" xmlns:xlink="http://www.w3.org/1999/xlink" xml:space="preserve" xmlns:serif="http://www.serif.com/" style="fill-rule:evenodd;clip-rule:evenodd;stroke-linejoin:round;stroke-miterlimit:2;"><g id="Donut"><path d="M1431.11,100.117c-117.743,34.567 -229.251,88.931 -339.996,141.824c-325.725,155.57 -581.513,348.908 -790.908,646.249c-519.549,737.759 -320.175,1525.67 563.531,1779.73c595.655,171.25 1409.51,54.054 1918.73,-306.317c824.304,-583.353 1145.19,-1804.12 6.421,-2225.42c-361.515,-133.748 -911.509,-167.082 -1357.78,-36.068Zm505.81,1137.86c-19.845,-107.512 -192.735,-64.552 -307.963,-40.305c-70.859,14.91 -204.423,71.192 -166.781,163.071c40.092,97.861 501.411,21.706 474.744,-122.766Z" style="fill:#e4a57c;"/><path d="M1426.42,84.126c-118.594,34.817 -230.938,89.501 -342.484,142.776c-328.414,156.855 -586.228,351.896 -797.352,651.691c-263.204,373.75 -343.427,760.402 -246.804,1085.6c96.781,325.728 370.933,590.83 819.357,719.751c600.08,172.523 1419.96,54.319 1932.96,-308.729c583.785,-413.141 915.775,-1143.16 668.581,-1689.66c-106.273,-234.952 -319.278,-436.717 -666.005,-564.993c-364.306,-134.78 -918.542,-168.454 -1368.25,-36.428l0,-0Zm9.39,31.983c442.822,-130.003 988.572,-97.008 1347.3,35.707c336.533,124.505 544.051,319.424 647.2,547.469c241.459,533.823 -87.224,1245.16 -657.466,1648.72c-505.437,357.693 -1313.26,473.881 -1904.49,303.903c-435.282,-125.144 -702.669,-381.028 -796.615,-697.21c-94.104,-316.718 -14.239,-692.898 242.106,-1056.91c207.665,-294.885 461.429,-486.52 784.464,-640.805c109.944,-52.511 220.616,-106.555 337.508,-140.872l0,0Zm517.505,1118.84c-9.38,-50.818 -46.702,-74.403 -98.018,-81.117c-66.75,-8.733 -158.922,12.62 -229.767,27.527c-45.042,9.478 -113.805,35.137 -153.151,74.852c-29.532,29.81 -43.581,67.01 -25.621,110.847c7.553,18.436 26.116,33.113 53.62,42.162c53.123,17.477 142.528,15.409 227.674,-2.685c73.199,-15.556 143.076,-42.93 184.415,-78.25c31.577,-26.98 47.219,-58.817 40.848,-93.336Zm-32.78,6.051c4.297,23.277 -8.427,43.749 -29.721,61.942c-37.957,32.431 -102.48,56.704 -169.691,70.987c-67.85,14.419 -138.593,18.531 -188.524,9.114c-15.222,-2.872 -28.374,-6.957 -38.56,-12.624c-7.788,-4.332 -13.727,-9.385 -16.436,-15.997c-12.154,-29.668 -1.53,-54.577 18.456,-74.751c34.931,-35.258 96.347,-57.279 136.335,-65.693c67.429,-14.188 155.047,-35.406 218.579,-27.094c35.547,4.651 63.065,18.914 69.562,54.116Z" style="fill:#7e4021;"/><path d="M87.887,1838.87c4.227,20.488 9.36,40.847 14.801,61.04c0.849,3.15 1.701,6.298 2.583,9.439c15.875,56.547 37.858,128.252 64.94,180.526c4.232,8.168 14.298,11.363 22.466,7.132c8.167,-4.231 11.363,-14.298 7.131,-22.465c-26.122,-50.423 -47.132,-119.658 -62.444,-174.203c-0.85,-3.028 -1.672,-6.065 -2.49,-9.102c-5.269,-19.553 -10.249,-39.265 -14.342,-59.102c-1.858,-9.009 -10.681,-14.814 -19.69,-12.956c-9.009,1.859 -14.814,10.682 -12.955,19.691Z" style="fill:#7e4021;"/><path d="M206.781,2151.72c14.591,18.451 46.301,73.104 53.111,81.443c5.818,7.125 16.326,8.185 23.451,2.367c7.124,-5.819 8.185,-16.327 2.366,-23.451c-6.773,-8.294 -38.27,-62.684 -52.782,-81.035c-5.706,-7.215 -16.196,-8.441 -23.411,-2.735c-7.215,5.706 -8.441,16.196 -2.735,23.411Z" style="fill:#7e4021;"/><path d="M1431.11,100.117c-117.743,34.567 -229.251,88.931 -339.996,141.824c-325.725,155.57 -581.513,348.908 -790.908,646.249c-226.399,321.486 -285.25,661.489 -101.146,822.743c169.366,148.346 378.042,49.991 499.375,162.204c151.029,139.676 108.002,503.118 372.741,545.848c319.056,51.497 332.965,-308.756 621.215,-320.653c317.538,-13.106 364.393,173.738 639.661,130.368c239.116,-37.674 227.686,-579.08 615.829,-561.629c223.469,10.047 443.434,-312.045 480.223,-548.249c50.018,-321.13 -59.981,-768.34 -639.219,-982.637c-361.515,-133.748 -911.509,-167.082 -1357.78,-36.068Zm525.95,1169.74c-100.53,116.756 -346.609,166.347 -464.515,131.363c-117.906,-34.983 -329.561,-151.821 -242.92,-341.262c175.734,-384.244 1127.41,-277.862 707.435,209.899Z" style="fill:#c48464;"/><path d="M1426.42,84.126c-118.594,34.817 -230.938,89.501 -342.484,142.776c-328.414,156.855 -586.228,351.896 -797.352,651.691c-138.159,196.187 -214.419,399.362 -213.318,565.771c0.757,114.246 37.686,211.549 114.817,279.107c87.755,76.863 185.469,90.443 277.185,98.713c84.603,7.629 163.865,9.557 221.856,63.189c36.025,33.317 60.166,80.17 80.529,132.058c21.29,54.251 38.29,113.972 58.848,170.666c43.316,119.459 102.903,224.887 242.024,247.342c166.664,26.9 254.061,-52.719 337.004,-141.639c76.551,-82.069 148.584,-173.08 287.554,-178.816c155.161,-6.404 244.14,36.26 328.004,75.01c88.503,40.894 171.619,77.534 313.564,55.17c51.81,-8.163 93.052,-37.695 128.782,-80.307c33.666,-40.15 62.519,-92.124 91.652,-147.378c33.85,-64.202 68.165,-132.928 111.98,-191.572c63.349,-84.788 146.95,-148.172 280.072,-142.187c93.597,4.209 187.036,-46.316 267.418,-125.384c117.646,-115.722 207.47,-292.156 230.022,-436.949c50.917,-326.905 -60.25,-782.683 -649.904,-1000.83c-364.306,-134.78 -918.542,-168.454 -1368.25,-36.428l0,-0Zm9.39,31.983c442.822,-130.003 988.572,-97.008 1347.3,35.707c568.823,210.444 677.652,649.085 628.534,964.441c-21.595,138.652 -107.804,307.502 -220.461,418.315c-73.153,71.957 -157.366,119.678 -242.546,115.849c-201.677,-9.067 -300.653,125.501 -379.164,268.784c-37.482,68.405 -70.279,138.556 -108.598,193.906c-35.778,51.678 -76.029,90.4 -131.409,99.126c-133.322,21.005 -211.268,-14.092 -294.394,-52.502c-87.765,-40.552 -180.983,-84.758 -343.36,-78.056c-149.282,6.162 -228.324,101.225 -310.556,189.384c-75.84,81.307 -154.923,156.065 -307.317,131.468c-125.621,-20.276 -176.885,-117.93 -215.998,-225.797c-42.155,-116.254 -70.844,-244.402 -148.082,-315.833c-63.344,-58.583 -149.081,-63.582 -241.494,-71.915c-85.297,-7.692 -176.603,-19.106 -258.216,-90.59c-70.152,-61.445 -102.759,-150.345 -103.447,-254.252c-1.065,-160.82 73.719,-356.761 207.239,-546.358c207.665,-294.885 461.429,-486.52 784.464,-640.805c109.944,-52.511 220.616,-106.555 337.508,-140.872l0,0Zm533.885,1164.62c111.065,-128.991 128.712,-233.608 93.903,-310.364c-34.825,-76.791 -123.999,-127.915 -233.738,-148.835c-127.687,-24.341 -282.875,-8.36 -406.077,50.858c-83.663,40.213 -152.573,100.309 -189.31,180.635c-46.848,102.433 -13.367,185.299 48.081,247.224c58.881,59.337 144.167,98.823 205.256,116.949c61.134,18.139 155.515,14.849 247.627,-8.607c92.283,-23.5 182.036,-67.209 234.258,-127.86l0,-0Zm-25.26,-21.749c-48.308,56.104 -131.859,95.568 -217.224,117.307c-85.538,21.782 -173.148,25.797 -229.92,8.952c-56.817,-16.858 -136.312,-53.282 -191.075,-108.471c-52.196,-52.6 -81.223,-122.873 -41.429,-209.881c33.556,-73.372 97.016,-127.724 173.436,-164.456c116.923,-56.2 264.216,-71.258 385.395,-48.157c97.654,18.616 178.633,61.524 209.622,129.858c31.007,68.372 10.128,159.947 -88.805,274.847l0,0.001Z" style="fill:#7e4021;"/><path d="M1668.51,121.186c-122.631,65.197 -702.017,408.896 -1014.19,695.701c-81.644,75.009 -145.111,146.371 -178.289,207.937c-24.162,44.834 -32.412,85.217 -22.911,118.833c7.458,26.391 27.092,40.409 56.418,43.543c23.418,2.503 54.103,-2.608 88.889,-13.499c151.655,-47.48 388.052,-204.675 419.657,-226.149c196.989,-133.843 594.378,-436.909 972.607,-621.78c149.837,-73.237 296.571,-127.929 426.395,-145.528c84.46,-11.449 161.586,-7.192 227.3,18.651c15.984,6.285 32.101,17.21 42.176,30.667c7.994,10.679 12.107,23.127 5.937,35.701c-27.68,56.411 -103.898,119.767 -199.266,185.057c-147.229,100.796 -340.228,204.534 -481.116,289.316c-7.882,4.743 -10.43,14.993 -5.687,22.874c4.743,7.882 14.992,10.43 22.874,5.687c141.378,-85.077 335.018,-189.225 482.76,-290.372c101.28,-69.338 180.964,-137.97 210.36,-197.878c9.846,-20.067 7.914,-40.144 -1.533,-58.277c-12.215,-23.442 -38.134,-43.504 -64.305,-53.796c-173.665,-68.295 -422.921,2.036 -680.532,127.951c-379.779,185.628 -778.907,489.764 -976.703,624.156c-30.959,21.035 -262.325,175.399 -410.883,221.91c-29.546,9.25 -55.498,14.29 -75.388,12.165c-13.993,-1.496 -24.325,-6.872 -27.883,-19.464c-7.544,-26.693 0.991,-58.354 20.177,-93.955c31.84,-59.082 93.147,-127.22 171.498,-199.204c310.029,-284.832 885.501,-626.066 1007.29,-690.814c8.122,-4.318 11.21,-14.418 6.892,-22.54c-4.318,-8.122 -14.418,-11.211 -22.54,-6.893Z" style="fill:#fff;"/><path d="M1125.77,1255.06c-28.218,21.713 -193.735,133.709 -314.219,240.969c-53.117,47.287 -97.489,93.897 -118.809,131.719c-14.907,26.443 -18.693,49.797 -11.624,67.632c4.744,11.968 14.169,22.281 29.932,29.652c18.341,8.577 46.934,13.336 88.062,12.039c107.333,-3.383 213.843,-47.778 315.814,-105.516c99.712,-56.458 195.12,-125.574 282.82,-179.579c7.833,-4.823 10.276,-15.098 5.453,-22.931c-4.824,-7.832 -15.099,-10.275 -22.931,-5.452c-87.38,53.807 -182.418,122.704 -281.766,178.956c-97.087,54.972 -198.247,97.985 -300.44,101.206c-28.797,0.907 -50.347,-1.135 -65.641,-6.096c-10.621,-3.445 -17.631,-7.79 -20.315,-14.561c-4.137,-10.438 0.949,-23.505 9.673,-38.981c20.007,-35.491 62.093,-78.819 111.937,-123.191c119.758,-106.614 284.333,-217.866 312.382,-239.448c7.29,-5.609 8.654,-16.082 3.045,-23.372c-5.61,-7.291 -16.083,-8.655 -23.373,-3.046Z" style="fill:#fff;"/><path d="M2150.17,974.848c142.705,-92.855 288.603,-181.252 438.231,-261.396c54.569,-29.229 330.482,-173.893 507.587,-194.286c35.402,-4.077 66.591,-3.246 90.576,5.487c20.655,7.52 35.283,21.355 41.04,43.685c8.325,32.293 -3.645,69.268 -29.386,110.112c-42.3,67.12 -121.734,142.79 -222.705,222.093c-399.267,313.584 -1133,679.69 -1293.25,779.288c-43.375,26.957 -266.377,170.801 -379.917,286.817c-30.768,31.438 -53.605,61.166 -63.925,86.15c-8.687,21.029 -8.98,39.565 -1.346,54.55c10.718,21.039 32.247,32.167 59.475,35.236c51.441,5.796 124.892,-17.867 152.624,-27.129c280.617,-93.728 534.353,-258.786 788.403,-422.403c251.585,-162.03 503.476,-322.652 782.967,-409.113c29.329,-9.073 54.096,-11.53 73.368,-8.362c15.474,2.544 26.963,8.565 32.756,18.35c5.702,9.632 5.341,22.201 -0.067,36.414c-6.819,17.924 -21.415,37.726 -44.237,58.217c-31.771,28.526 -67.456,52.779 -101.78,78.099c-7.402,5.461 -8.979,15.904 -3.518,23.307c5.461,7.402 15.904,8.978 23.306,3.517c35.18,-25.952 71.698,-50.883 104.261,-80.12c33.634,-30.198 51.657,-59.937 57.342,-85.027c4.483,-19.783 1.732,-37.274 -6.623,-51.388c-8.283,-13.99 -22.284,-24.956 -41.822,-30.959c-24.909,-7.653 -59.917,-7.17 -102.837,6.107c-282.35,87.346 -537.006,249.247 -791.165,412.934c-251.693,162.099 -502.9,325.952 -780.914,418.81c-21.809,7.284 -74.333,24.812 -118.627,26.269c-13.116,0.432 -25.439,-0.509 -35.639,-4.067c-7.674,-2.677 -14.024,-6.858 -17.571,-13.822c-3.751,-7.362 -1.815,-16.363 2.453,-26.694c9.101,-22.035 29.803,-47.834 56.939,-75.561c111.636,-114.071 331.041,-255.315 373.69,-281.821c160.642,-99.838 896.014,-467.043 1296.25,-781.385c104.615,-82.164 186.49,-160.993 230.316,-230.534c31.679,-50.268 43.71,-96.464 33.464,-136.207c-16.42,-63.686 -80.752,-83.978 -167.707,-73.965c-181.169,20.861 -463.692,168.118 -519.513,198.017c-150.459,80.589 -297.173,169.47 -440.672,262.84c-7.71,5.017 -9.897,15.349 -4.88,23.059c5.017,7.711 15.349,9.897 23.06,4.881Z" style="fill:#fff;"/></g></svg>