<?xml version="1.0" encoding="UTF-8" standalone="no"?><!DOCTYPE svg PUBLIC "-//W3C//DTD SVG 1.1//EN" "http://www.w3.org/Graphics/SVG/1.1/DTD/svg11.dtd"><svg width="100%" height="100%" viewBox="0 0 4722 4624" version="1.1" xmlns="http://www.w3.org/2000/svg" xmlns:xlink="http://www.w3.org/1999/xlink" xml:space="preserve" xmlns:serif="http://www.serif.com/" style="fill-rule:evenodd;clip-rule:evenodd;stroke-linejoin:round;stroke-miterlimit:2;"><g id="Espresso-Maker" serif:id="Espresso Maker"><path d="M4078.39,1362.27c-16.668,11.156 -52.141,189.931 -56.647,212.462c-60.1,300.496 -61.309,606.081 -30.868,910.491c24.175,241.746 319.594,1323.39 124.687,1472c-120.284,91.717 -1704.52,598.099 -1999.2,620.888c-302.638,23.404 -1070.99,99.602 -1313.2,-156.644c-84.681,-89.59 -53.714,-494.437 -43.925,-624.48c15.82,-210.18 472.523,-324.527 643.406,-363.014c40.993,-9.233 191.094,-35.383 204.487,-57.387c94.907,-155.924 64.078,-1607.56 76.528,-1620.01c47.009,-47.01 436.608,-46.042 504.345,-53.569c585.875,-65.097 1314.4,-211.14 1890.38,-340.736Z" style="fill:#f8a5b0;"/><path d="M1593.34,3367.17c-0.905,0.598 -4.614,3.001 -7.673,4.427c-6.769,3.153 -15.623,6.294 -25.774,9.423c-50.908,15.695 -132.439,30.288 -160.911,36.7c-103.495,23.31 -310.808,74.328 -463.587,157.126c-106.647,57.798 -186.089,132.038 -192.777,220.897c-6.899,91.658 -24.138,318.9 -4.681,477.936c8.826,72.134 26.042,130.602 53.114,159.243c99.073,104.817 283.79,156.467 490.124,177.708c303.741,31.269 654.237,-1.802 836.471,-15.895c206.809,-15.993 1047.23,-269.259 1574.18,-451.502c227.814,-78.788 397.341,-144.922 433.837,-172.749c25.854,-19.714 44.649,-53.863 56.348,-99.893c16.199,-63.739 19.425,-151.28 13.777,-252.095c-21.537,-384.451 -171.401,-965.598 -188.334,-1134.93c-30.276,-302.763 -29.147,-606.695 30.627,-905.565c3.129,-15.648 21.299,-107.264 37.601,-164.62c5.074,-17.851 12.797,-36.354 13.764,-38.642c5.312,-4.706 7.119,-12.37 4.253,-19.044c-3.167,-7.376 -11.141,-11.446 -18.973,-9.684c-575.431,129.472 -1303.25,275.397 -1888.57,340.432c-47.435,5.27 -252.648,6.386 -387.637,22.707c-35.844,4.334 -66.88,9.777 -89.131,16.529c-17.767,5.391 -30.542,12.132 -37.521,19.112c-1.255,1.254 -4.291,4.716 -5.378,11.66c-0.909,5.811 -1.644,20.955 -2.106,43.966c-3.453,171.858 3.572,806.131 -21.193,1219.34c-6.327,105.567 -14.711,196.614 -25.927,261.588c-6.933,40.165 -14.544,69.885 -23.93,85.826Zm2455.83,-1981.26c-17.745,54.881 -40.23,167.862 -43.769,185.557c-60.425,302.124 -61.714,609.36 -31.109,915.419c16.912,169.115 166.711,749.509 188.221,1133.47c5.421,96.777 2.748,180.834 -12.803,242.02c-9.468,37.255 -23.327,65.641 -44.252,81.597c-35.675,27.202 -201.83,90.738 -424.521,167.754c-524.223,181.299 -1360.12,433.859 -1565.86,449.77c-180.932,13.992 -528.918,47.017 -830.488,15.971c-197.208,-20.302 -374.621,-67.266 -469.313,-167.447c-23.739,-25.115 -36.512,-77.14 -44.251,-140.394c-19.191,-156.858 -1.971,-380.984 4.833,-471.387c5.968,-79.291 80.257,-142.517 175.421,-194.091c149.927,-81.253 353.464,-131.039 455.028,-153.914c28.918,-6.513 111.703,-21.425 163.407,-37.365c17.132,-5.281 31.097,-10.856 39.513,-16.134c5.981,-3.75 9.918,-7.827 12.142,-11.481c23.363,-38.383 40.427,-153.13 51.33,-305.837c24.826,-347.723 22.935,-896.136 23.999,-1164.48c0.29,-73.065 2.109,-134.074 2.612,-149.543c4.686,-2.89 11.485,-5.305 19.764,-7.817c20.828,-6.319 49.903,-11.277 83.454,-15.333c134.877,-16.308 339.921,-17.405 387.317,-22.671c575.354,-63.928 1288.15,-205.824 1859.32,-333.665Z" style="fill:#7e4021;"/><path d="M4078.39,1362.27c-16.668,11.156 -52.141,189.931 -56.647,212.462c-60.1,300.496 -61.309,606.081 -30.868,910.491c14.16,141.6 121.381,571.357 168.618,932.988c-27.758,45.252 -386.298,149.716 -439.188,55.805c-140.276,-249.069 -252.606,-1183.96 -145.27,-1957.6c66.265,-48.55 307.462,-110.07 503.355,-154.146Z" style="fill:#d8bef1;"/><path d="M4089.45,1374.74c5.312,-4.706 7.119,-12.37 4.253,-19.044c-3.167,-7.376 -11.141,-11.446 -18.973,-9.684c-198.403,44.641 -442.432,107.79 -509.546,156.962c-3.637,2.664 -6.039,6.688 -6.659,11.154c-75.387,543.362 -42.772,1166.01 31.855,1576.41c32.312,177.698 72.743,315.917 115.402,391.66c10.407,18.479 29.903,31.501 56.35,38.787c33.941,9.35 80.226,9.494 129.615,3.541c83.96,-10.121 177.113,-37.493 231.296,-62.488c26.903,-12.409 44.739,-25.464 50.655,-35.109c1.995,-3.252 2.814,-7.09 2.32,-10.873c-47.212,-361.439 -154.407,-790.963 -168.56,-932.487c-30.276,-302.763 -29.147,-606.695 30.627,-905.565c3.129,-15.648 21.299,-107.264 37.601,-164.62c5.074,-17.851 12.797,-36.354 13.764,-38.642Zm-40.313,11.262c-17.737,54.903 -40.201,167.777 -43.738,185.463c-60.425,302.124 -61.714,609.36 -31.109,915.419c14.071,140.703 119.947,565.782 167.695,926.035c-0.948,0.766 -2.027,1.562 -3.2,2.415c-7.102,5.166 -17.271,10.699 -29.704,16.434c-51.84,23.913 -140.995,49.979 -221.323,59.662c-44.49,5.363 -86.199,5.839 -116.773,-2.583c-16.57,-4.565 -29.639,-11.431 -36.159,-23.008c-41.507,-73.698 -80.211,-208.369 -111.651,-381.267c-73.795,-405.83 -106.224,-1020.6 -32.632,-1558.61c68.388,-44.523 277.271,-98.464 458.594,-139.962Z" style="fill:#7e4021;"/><path d="M3686.35,3392.71c113.755,13.8 206.125,-89.61 171.462,-200.662c-19.683,-63.058 -71.967,-89.3 -123.333,-122.246c-91.024,-58.383 -140.821,-190.198 -135.529,-291.6c6.876,-131.775 116.2,-320.432 283.763,-285.806c40.576,8.385 77.479,37.205 99.632,71.774c118.295,184.594 -206.303,281.646 -167.043,454.25c22.942,100.864 158.243,32.009 214.925,93.514c42.218,45.811 5.043,95.012 14.772,160c12.661,84.571 74.457,67.643 98.898,63.797c2.706,-0.426 15.239,69.555 12.621,84.438c-120.82,77.685 -304.347,107.668 -388.639,79.618c-47.718,-15.879 -78.078,-86.374 -81.529,-107.077Z" style="fill:#a8ccf1;"/><path d="M3688.36,3376.16c-5.214,-0.633 -10.421,1.229 -14.052,5.024c-3.63,3.796 -5.259,9.08 -4.396,14.261c2.286,13.715 14.94,47.381 36.34,75.779c14.99,19.892 34.224,37.004 56.367,44.372c87.34,29.064 277.725,-0.918 402.915,-81.413c3.912,-2.516 6.595,-6.551 7.4,-11.131c2.28,-12.958 -5.348,-64.373 -10.256,-84.151c-1.283,-5.169 -2.647,-8.775 -3.495,-10.383c-1.673,-3.171 -3.659,-4.968 -5.045,-6.018c-4.459,-3.378 -8.924,-3.852 -12.83,-3.238c-12.231,1.925 -35.738,9.143 -54.819,-1.719c-12.036,-6.851 -21.009,-21.388 -25.005,-48.082c-4.629,-30.92 2.221,-58.066 4.886,-82.949c3.311,-30.918 1.072,-58.797 -23.885,-85.878c-16.663,-18.08 -38.872,-27.052 -63.581,-31.484c-21.582,-3.872 -45.139,-4.261 -67.619,-5.844c-36.166,-2.546 -70.253,-6.924 -79.729,-48.587c-8.773,-38.571 3.37,-72.787 23.984,-105.194c22.606,-35.539 55.242,-68.87 85.363,-102.646c66.608,-74.691 119.584,-151.67 55.476,-251.707c-24.486,-38.21 -65.441,-69.834 -110.291,-79.103c-90.39,-18.679 -165.334,22.205 -218.346,86.192c-51.467,62.121 -81.833,146.055 -85.434,215.068c-5.567,106.678 47.414,245.076 143.175,306.497c48.029,30.805 98.017,54.222 116.421,113.183c30.987,99.274 -51.854,191.487 -153.544,179.151Zm443.185,-21.652c3.004,15.349 7.986,42.418 8.706,56.196c-116.418,71.526 -287.534,99.744 -367.107,73.264c-16.033,-5.335 -29.418,-18.402 -40.271,-32.805c-10.161,-13.484 -18.096,-28.333 -23.302,-40.561l0,-0c113.767,-1.666 199.892,-109.023 164.153,-223.525c-20.963,-67.159 -75.538,-96.22 -130.245,-131.309c-86.287,-55.345 -132.899,-180.577 -127.883,-276.702c3.275,-62.762 31.009,-139.045 77.814,-195.539c45.261,-54.631 108.759,-90.762 185.933,-74.814c36.302,7.502 69.152,33.516 88.971,64.444c54.198,84.573 4.022,148.391 -52.289,211.536c-31.335,35.137 -65.094,69.97 -88.611,106.942c-25.51,40.105 -39.219,82.744 -28.361,130.477c13.472,59.229 58.476,70.825 109.891,74.445c21.297,1.5 43.627,1.734 64.073,5.402c17.32,3.107 33.277,8.592 44.956,21.265c17.263,18.732 17.543,38.353 15.253,59.739c-2.936,27.417 -9.808,57.365 -4.708,91.434c6.135,40.977 23.005,61.598 41.481,72.115c20.192,11.494 43.83,10.386 61.546,7.996Z" style="fill:#7e4021;"/><path d="M3945.53,2880.01c-58.274,46.234 -23.545,175.937 84.803,119.126c106.368,-55.772 1.241,-187.391 -84.803,-119.126Z" style="fill:#e0f0ff;"/><path d="M3935.17,2866.96c-24.695,19.593 -36.003,51.397 -34.115,81.736c1.934,31.089 17.678,60.078 44.791,73.453c22.368,11.035 53.407,12.107 92.226,-8.246c38.979,-20.438 53.698,-49.921 53.78,-77.941c0.189,-64.902 -83.648,-126.945 -156.682,-69.002Zm20.718,26.113c47.434,-37.633 102.754,0.638 102.631,42.791c-0.052,17.864 -11.076,35.487 -35.926,48.517c-26.201,13.738 -46.902,15.322 -62,7.874c-16.593,-8.185 -25.086,-26.603 -26.269,-45.629c-1.231,-19.775 5.467,-40.782 21.564,-53.553Z" style="fill:#7e4021;"/><path d="M3660.51,2319.6c-98.553,31.439 -106.879,100.345 -101.628,164.002c11.499,139.418 176.43,145.178 233.982,33.633c88.666,-171.852 -56.961,-221.686 -132.354,-197.635Z" style="fill:#e0f0ff;"/><path d="M3655.44,2303.72c-43.768,13.962 -71.239,34.986 -88.397,59.226c-25.512,36.039 -28.243,79.99 -24.776,122.024c5.249,63.636 39.225,102.38 81.452,118.405c62.431,23.692 145.115,-3.227 183.952,-78.5c39.269,-76.111 35.005,-130.774 12.841,-167.064c-34.059,-55.766 -113.76,-70.46 -165.071,-54.091l-0.001,-0Zm10.131,31.756c39.163,-12.493 100.499,-2.853 126.494,39.71c17.875,29.267 17.654,73.021 -14.017,134.405c-30.225,58.583 -93.914,81.058 -142.502,62.619c-31.787,-12.062 -56.107,-42.078 -60.058,-89.98c-2.834,-34.356 -2.091,-70.569 18.761,-100.025c13.75,-19.424 36.248,-35.54 71.322,-46.729l0,0Z" style="fill:#7e4021;"/><path d="M3637.61,2518.14l-6.02,-8.097c-10.695,-14.229 -10.926,-31.195 -9.049,-48.375c0.998,-9.144 -5.615,-17.379 -14.759,-18.377c-9.144,-0.999 -17.379,5.614 -18.378,14.759c-2.809,25.719 -0.472,50.719 15.541,72.022c2.138,2.844 8.351,11.948 13.357,15.618c4.331,3.174 8.778,4.345 12.525,4.351c9.198,0.016 16.679,-7.439 16.695,-16.637c0.012,-6.804 -4.064,-12.669 -9.912,-15.264Z" style="fill:#fff;"/><path d="M3632.69,2421.94c6.786,-11.438 12,-24.97 29.011,-33.26c8.269,-4.029 11.711,-14.014 7.682,-22.283c-4.03,-8.269 -14.015,-11.711 -22.284,-7.681c-24.351,11.866 -33.362,29.842 -43.077,46.215c-4.693,7.911 -2.081,18.144 5.829,22.838c7.911,4.694 18.145,2.082 22.839,-5.829Z" style="fill:#fff;"/><path d="M3839.28,2566.54c18.622,-0.281 39.033,3.913 54.443,14.794c7.515,5.306 17.923,3.513 23.228,-4.002c5.306,-7.514 3.513,-17.922 -4.001,-23.228c-21.05,-14.862 -48.738,-21.278 -74.175,-20.893c-9.197,0.139 -16.551,7.719 -16.412,16.917c0.139,9.197 7.719,16.551 16.917,16.412Z" style="fill:#fff;"/><path d="M3926.27,2622.96c2.511,10.974 2.406,22.46 2.336,33.653c-0.058,9.198 7.363,16.713 16.562,16.77c9.198,0.058 16.713,-7.363 16.77,-16.562c0.086,-13.743 -0.091,-27.824 -3.175,-41.298c-2.052,-8.967 -10.998,-14.58 -19.965,-12.528c-8.967,2.052 -14.58,10.998 -12.528,19.965Z" style="fill:#fff;"/><path d="M3953.05,2917.56c-8.172,10.659 -8.984,27.424 -2.396,41.823c6.475,14.152 19.432,24.908 34.175,25.841c9.18,0.58 17.105,-6.402 17.685,-15.582c0.58,-9.18 -6.402,-17.105 -15.582,-17.685c-3.021,-0.191 -4.64,-3.542 -5.967,-6.442c-0.773,-1.69 -1.304,-3.485 -1.474,-5.241c-0.085,-0.885 -0.472,-1.801 0.012,-2.431c5.597,-7.3 4.215,-17.771 -3.085,-23.368c-7.3,-5.597 -17.77,-4.215 -23.368,3.085Z" style="fill:#fff;"/><path d="M3897.7,2084.38c-45.961,87.938 -19.2,192.281 -20.38,191.556c-66.427,-40.8 -76.916,-123.55 -63.805,-194.902c5.726,-31.164 -22.632,-55.983 -60.018,-85.947c-39.405,-31.582 -116.585,-59.28 -98.529,-169.512c17.327,-105.782 149.922,-121.722 195.135,-60.23c50.727,68.991 -23.134,103.975 7.585,190.284c15.121,42.485 62.909,84.943 40.012,128.751Z" style="fill:#e0f0ff;"/><path d="M3912.47,2092.1c11.606,-22.205 9.549,-44.131 0.874,-65.9c-10.196,-25.586 -30.947,-50.851 -39.955,-76.16c-13.808,-38.796 -3.45,-66.03 3.998,-91.344c9.655,-32.817 15.703,-63.021 -13.857,-103.225c-21.173,-28.796 -58.423,-43.757 -97.149,-42.615c-56.75,1.674 -115.97,37.43 -127.861,110.024c-19.587,119.574 61.808,150.952 104.552,185.211c17.596,14.102 33.173,26.88 43.572,39.913c7.706,9.658 12.475,19.147 10.478,30.017c-14.31,77.877 -1.028,167.585 71.475,212.116c5.354,3.289 10.257,2.96 14.355,1.493c3.406,-1.219 7.143,-3.563 9.523,-8.711c0.256,-0.553 2.246,-4.997 0.868,-12.724c-2.888,-16.193 -19.894,-103.437 19.127,-178.095Zm-57.321,142.209c-31.803,-40.421 -34.701,-98.793 -25.243,-150.264c3.73,-20.3 -2.814,-38.792 -17.206,-56.83c-11.696,-14.659 -28.991,-29.273 -48.781,-45.134c-11.971,-9.595 -27.369,-18.857 -42.589,-30.107c-31.028,-22.933 -61.098,-55.436 -49.915,-123.706c8.901,-54.344 53.466,-80.84 95.949,-82.093c27.433,-0.809 54.312,8.643 69.31,29.042c21.169,28.79 15.649,50.57 8.735,74.071c-9.122,31.004 -20.335,64.413 -3.424,111.929c7.789,21.884 23.828,43.848 35.134,65.896c8.407,16.393 14.579,32.768 5.809,49.546l0,0c-29.006,55.497 -30.804,117.154 -27.779,157.65Z" style="fill:#7e4021;"/><path d="M3735.47,1877.2c-6.937,-3.973 -10.65,-11.798 -12.226,-19.745c-1.642,-8.28 -1.066,-17.089 2.705,-23.074c4.905,-7.782 2.568,-18.082 -5.214,-22.986c-7.782,-4.904 -18.082,-2.568 -22.986,5.214c-7.772,12.332 -10.585,30.268 -7.202,47.33c3.45,17.395 13.173,33.491 28.358,42.187c7.982,4.571 18.174,1.802 22.745,-6.181c4.572,-7.982 1.802,-18.174 -6.18,-22.745Z" style="fill:#fff;"/><path d="M3750.6,1799.41c7.001,-3.613 14.817,-4.442 22.504,-5.827c9.053,-1.631 15.078,-10.305 13.447,-19.358c-1.631,-9.052 -10.305,-15.078 -19.358,-13.447c-10.954,1.974 -21.9,3.861 -31.878,9.009c-8.174,4.218 -11.387,14.279 -7.169,22.454c4.218,8.174 14.279,11.387 22.454,7.169Z" style="fill:#fff;"/><path d="M2997.53,1650.13c-45.342,174.585 -159.409,1357.19 4.603,2023.61c-800.7,-149.73 -1701.08,-216.888 -1599.49,-239.769c40.993,-9.233 191.094,-35.383 204.487,-57.387c94.907,-155.924 64.078,-1607.56 76.528,-1620.01c47.009,-47.01 436.233,-55.966 504.345,-53.569c239.957,8.447 550.131,-26.394 809.523,-52.874Z" style="fill:#ee909d;"/><path d="M1593.34,3367.17c-0.905,0.598 -4.614,3.001 -7.673,4.427c-6.769,3.153 -15.623,6.294 -25.774,9.423c-50.908,15.695 -132.439,30.288 -160.911,36.7c-7.073,1.594 -11.445,3.958 -13.729,5.77c-4.603,3.652 -6.367,7.918 -6.949,11.763c-0.759,5.009 1.048,16.739 17.093,22.61c79.14,28.956 881.819,97.284 1603.67,232.269c5.569,1.041 11.285,-0.818 15.177,-4.935c3.891,-4.118 5.424,-9.93 4.07,-15.431c-163.349,-663.731 -49.813,-1841.56 -4.655,-2015.44c1.372,-5.282 0.071,-10.902 -3.483,-15.043c-3.555,-4.142 -8.911,-6.281 -14.341,-5.727c-258.663,26.406 -567.961,61.221 -807.244,52.799c-48.031,-1.691 -254.569,2.216 -390.413,20.96c-35.806,4.94 -66.807,10.954 -89.036,18.065c-17.639,5.644 -30.334,12.481 -37.267,19.415c-1.255,1.254 -4.291,4.716 -5.378,11.66c-0.909,5.811 -1.644,20.955 -2.106,43.966c-3.453,171.858 3.572,806.131 -21.193,1219.34c-6.327,105.567 -14.711,196.614 -25.927,261.588c-6.933,40.165 -14.544,69.885 -23.93,85.826Zm-129.004,71.089c34.456,-7.133 75.208,-16.084 105.377,-25.385c17.132,-5.281 31.097,-10.856 39.513,-16.134c5.981,-3.75 9.918,-7.827 12.142,-11.481c23.363,-38.383 40.427,-153.13 51.33,-305.837c24.826,-347.723 22.935,-896.136 23.999,-1164.48c0.29,-73.124 2.112,-134.173 2.613,-149.577c4.731,-2.983 11.604,-5.552 19.988,-8.235c20.824,-6.662 49.892,-12.165 83.436,-16.793c133.85,-18.469 337.357,-22.333 384.683,-20.667c233.56,8.221 533.461,-24.385 788.741,-50.59l0,0c-47.652,234.988 -146.31,1335.19 3.808,1983.61c-625.24,-115.287 -1303.94,-180.738 -1515.63,-214.423Z" style="fill:#7e4021;"/><path d="M853.682,3645.53c-41.363,38.939 -80.361,63.184 -85.032,131.241c-6.398,93.237 201.48,139.374 277.422,157.743c118.321,28.621 241.076,41.146 362.263,49.302c488.99,32.913 1039.38,-29.806 1501.3,-202.165c12.799,-4.776 83.624,-19.476 90.03,-32.287c3.078,-6.157 5.92,-77.813 1.741,-81.992c-87.258,-87.258 -860.176,-191.757 -1019.13,-224.137c-89.738,-18.28 -177.913,-44.644 -268.08,-60.556c-23.791,-4.198 -47.655,-7.233 -71.809,-8.038c-6.533,-0.218 -628.223,119.815 -788.704,270.889Z" style="fill:#ffdab8;"/><path d="M842.258,3633.4c-44.554,41.942 -85.204,68.927 -90.235,142.234c-2.288,33.335 16.985,62.449 49.522,86.302c65.368,47.921 186.062,75.589 240.608,88.783c119.238,28.842 242.937,41.511 365.063,49.731c491.255,33.066 1044.18,-30.021 1508.25,-203.179c8.969,-3.346 46.399,-11.567 70.251,-20.594c9.018,-3.413 16.388,-7.132 20.895,-10.591c3.943,-3.026 6.48,-6.294 7.965,-9.264c0.863,-1.726 2.281,-6.27 3.074,-12.92c1.895,-15.883 3.212,-50.725 2.113,-68.041c-0.414,-6.517 -1.429,-11.327 -2.343,-13.688c-1.206,-3.111 -2.836,-5.193 -4.224,-6.581c-11.547,-11.546 -33.719,-23.841 -64.564,-35.764c-42.506,-16.431 -102.385,-33.12 -171.985,-49.452c-267.346,-62.73 -679.705,-120.787 -791.043,-143.467c-89.881,-18.309 -178.2,-44.701 -268.51,-60.638c-24.566,-4.335 -49.21,-7.451 -74.151,-8.282c-3.967,-0.133 -232.229,42.965 -449.174,110.963c-145.68,45.661 -286.064,102.839 -351.509,164.448l-0,-0Zm2143.78,42.547c0.024,10.521 -0.012,50.387 -1.597,64.675c-2.444,1.284 -6.799,3.469 -10.528,4.88c-23.801,9.008 -61.155,17.2 -70.105,20.539c-459.782,171.561 -1007.63,233.912 -1494.36,201.151c-120.248,-8.093 -242.059,-20.473 -359.464,-48.872c-44.672,-10.806 -135.972,-31.225 -200.461,-65.726c-19.962,-10.68 -37.285,-22.631 -49.206,-36.319c-10.001,-11.484 -16.023,-24.114 -15.045,-38.358c4.311,-62.814 41.652,-84.308 79.828,-120.246l0,-0c62.94,-59.251 198.527,-112.999 338.631,-156.912c211.732,-66.364 434.222,-109.585 438.094,-109.456c23.367,0.779 46.452,3.733 69.468,7.794c90.023,15.887 178.054,42.223 267.65,60.474c111.201,22.653 523.063,80.604 790.081,143.257c67.808,15.911 126.17,32.083 167.581,48.091c22.228,8.593 39.29,16.746 49.429,25.028Z" style="fill:#7e4021;"/><path d="M1732.07,3679.47c-21.329,0 -40.056,6.122 -51.518,14.666c-10.719,7.991 -16.027,18.321 -16.027,28.847c0,10.525 5.308,20.855 16.027,28.846c11.462,8.544 30.189,14.666 51.518,14.666c21.329,0 40.056,-6.122 51.517,-14.666c10.72,-7.991 16.028,-18.321 16.028,-28.846c-0,-10.526 -5.308,-20.856 -16.028,-28.847c-11.461,-8.544 -30.188,-14.666 -51.517,-14.666Zm196.372,-26.847c-21.329,-0 -40.057,6.122 -51.518,14.666c-10.719,7.991 -16.027,18.321 -16.027,28.846c-0,10.526 5.308,20.856 16.027,28.847c11.461,8.544 30.189,14.666 51.518,14.666c21.329,-0 40.056,-6.122 51.517,-14.666c10.719,-7.991 16.028,-18.321 16.028,-28.847c-0,-10.525 -5.309,-20.855 -16.028,-28.846c-11.461,-8.544 -30.188,-14.666 -51.517,-14.666Zm-336.362,-52.856c-21.329,-0 -40.056,6.122 -51.517,14.666c-10.719,7.991 -16.028,18.321 -16.028,28.846c0,10.526 5.309,20.856 16.028,28.847c11.461,8.544 30.188,14.666 51.517,14.666c21.329,-0 40.057,-6.122 51.518,-14.666c10.719,-7.991 16.027,-18.321 16.027,-28.847c0,-10.525 -5.308,-20.855 -16.027,-28.846c-11.461,-8.544 -30.189,-14.666 -51.518,-14.666Zm209.626,-35.734c-21.329,-0 -40.057,6.122 -51.518,14.666c-10.719,7.99 -16.027,18.32 -16.027,28.846c-0,10.526 5.308,20.856 16.027,28.847c11.461,8.544 30.189,14.666 51.518,14.666c21.329,-0 40.056,-6.122 51.517,-14.666c10.719,-7.991 16.028,-18.321 16.028,-28.847c-0,-10.526 -5.309,-20.856 -16.028,-28.846c-11.461,-8.544 -30.188,-14.666 -51.517,-14.666Z" style="fill:#7e4021;"/><path d="M915.042,3789.11c27.262,9.31 54.092,19.612 81.875,27.326c90.622,25.16 180.973,44.419 273.901,58.82c169.699,26.298 380.342,46.764 552.414,43.103c83.16,-1.769 165.445,-15.294 248.301,-21.148c9.176,-0.648 16.099,-8.624 15.451,-17.8c-0.649,-9.175 -8.625,-16.098 -17.8,-15.45c-82.311,5.815 -164.049,19.315 -246.661,21.072c-170.263,3.623 -378.686,-16.696 -546.6,-42.717c-91.634,-14.2 -180.729,-33.188 -270.088,-57.998c-27.159,-7.541 -53.372,-17.652 -80.021,-26.752c-8.704,-2.973 -18.185,1.68 -21.158,10.385c-2.973,8.705 1.681,18.186 10.386,21.159Z" style="fill:#7e4021;"/><path d="M2226.27,3873.3c18.158,-3.894 71.912,-7.907 117.42,-18.966c58.952,-14.327 107.418,-30.965 137.089,-45.565c8.253,-4.061 11.657,-14.059 7.596,-22.313c-4.062,-8.253 -14.06,-11.657 -22.313,-7.596c-28.176,13.865 -74.262,29.478 -130.243,43.083c-45.163,10.976 -98.517,14.9 -116.537,18.764c-8.995,1.929 -14.731,10.797 -12.802,19.791c1.928,8.994 10.796,14.73 19.79,12.802Z" style="fill:#7e4021;"/><path d="M2677.78,1712.48c-3.35,-13.556 4.308,50.829 6.442,64.629c4.653,30.097 15.115,58.495 27.091,86.372c35.55,82.745 110.735,136.565 159.413,210.779c89.834,136.959 232.409,931.104 -12.546,980.094c-4.046,0.81 -8.144,1.378 -12.251,1.772c-62.717,6.009 -96.142,-62.487 -100.791,-121.567c-15.531,-197.366 16.721,-329.903 -2.68,-500.291c-6.531,-57.363 -11.951,-119.949 -40.296,-170.484c-49.715,-88.634 -104.944,-80.475 -189.948,-269.665c-22.352,-49.748 -67.563,-221.514 -31.787,-271.6c4.754,-6.656 190.065,-10.614 197.353,-10.039Z" style="fill:#ffe6d8;"/><path d="M2669.38,1695.85c4.257,-2.259 8.795,-2.65 13.64,-0.819c1.191,0.45 8.284,2.714 10.937,13.452c0.629,2.544 0.641,5.16 0.079,7.646c1.302,12.321 5.279,49.547 6.654,58.435c4.437,28.702 14.512,55.753 25.934,82.339c17.06,39.709 43.795,72.365 71.941,104.111c29.857,33.675 61.313,66.325 86.095,104.106c25.763,39.279 56.224,131.179 80.558,244.472c36.026,167.723 59.28,382.629 37.177,539.666c-8.148,57.885 -22.522,108.083 -44.213,145.796c-23.413,40.707 -55.359,67.369 -96.736,75.645c-4.601,0.92 -9.26,1.571 -13.931,2.018c-37.845,3.626 -67.127,-14.679 -87.374,-43.351c-18.426,-26.092 -29.068,-61.056 -31.621,-93.498c-15.513,-197.138 16.754,-329.522 -2.625,-499.714c-6.286,-55.213 -10.989,-115.574 -38.272,-164.215c-19,-33.874 -38.963,-52.853 -61.133,-75.12c-35.714,-35.871 -77.146,-79.387 -129.481,-195.868c-16.137,-35.914 -43.873,-133.478 -46.378,-206.508c-1.194,-34.807 3.921,-64.377 16.23,-81.61c1.38,-1.932 4.127,-4.983 9.532,-6.851c3.573,-1.235 12.207,-2.664 24.223,-3.72c43.328,-3.807 137.935,-6.106 168.764,-6.412Zm-7.724,33.305c1.78,17.498 4.841,42.411 6.092,50.502c4.868,31.491 15.718,61.235 28.249,90.404c18.49,43.036 47.122,78.662 77.626,113.066c28.792,32.474 59.267,63.842 83.164,100.275c24.544,37.419 52.659,125.262 75.841,233.191c35.25,164.111 58.386,374.363 36.759,528.019c-7.471,53.078 -20.21,99.241 -40.1,133.823c-18.169,31.59 -42.268,53.155 -74.379,59.577c-3.491,0.699 -7.027,1.184 -10.572,1.524c-24.873,2.383 -43.659,-10.554 -56.967,-29.398c-15.128,-21.424 -23.523,-50.247 -25.619,-76.885c-15.549,-197.594 16.688,-330.284 -2.735,-500.87c-6.777,-59.513 -12.912,-124.322 -42.32,-176.751c-20.772,-37.034 -42.346,-57.988 -66.583,-82.331c-33.895,-34.044 -73.029,-75.465 -122.698,-186.011c-15.157,-33.734 -41.116,-125.395 -43.469,-193.99c-0.79,-23.037 0.523,-43.283 7.275,-56.496c29.477,-4.297 131.706,-7.082 170.436,-7.649Z" style="fill:#7e4021;"/><path d="M1809.53,2439.82c-3.515,34.316 10.351,101.962 36.219,124.824c27.358,24.18 100.917,28.022 129.54,2.37c16.758,-15.019 33.14,-38.019 34.981,-59.069c5.668,-64.811 -9.557,-72.306 -9.557,-72.306c0,0 -156.898,7.998 -191.183,4.181Z" style="fill:#f7bf9a;"/><path d="M1811.37,2423.26c-4.418,-0.492 -8.85,0.802 -12.31,3.593c-3.459,2.792 -5.661,6.85 -6.114,11.273c-2.29,22.356 2.015,57.77 12.052,87.863c7.216,21.635 17.594,40.439 29.709,51.147c15.975,14.119 45.176,23.136 74.824,24.043c30.026,0.918 59.951,-6.58 76.877,-21.75c19.744,-17.693 38.292,-45.229 40.461,-70.028c3.135,-35.843 0.087,-55.819 -3.339,-66.852c-6.048,-19.475 -15.46,-21.859 -15.46,-21.859c-2.548,-1.254 -5.373,-1.836 -8.209,-1.692c-0,0 -154.688,8.025 -188.491,4.262Zm179.805,29.523c1.88,7.956 4.904,26.081 2.488,53.714c-1.514,17.304 -15.725,35.763 -29.501,48.109c-11.701,10.486 -32.857,13.89 -53.612,13.255c-21.131,-0.646 -42.382,-5.638 -53.768,-15.701c-8.58,-7.583 -15.053,-21.396 -20.163,-36.717c-6.353,-19.049 -10.186,-40.602 -10.877,-58.124l-0,-0c44.146,0.898 134.793,-3.093 165.433,-4.536Z" style="fill:#7e4021;"/><path d="M1501.15,2419.27c-6.331,33.909 1.916,102.467 25.812,127.383c25.273,26.352 98.265,36.24 128.905,13.034c17.938,-13.587 36.159,-35.16 39.728,-55.986c10.988,-64.124 -3.567,-72.847 -3.567,-72.847c-0,-0 -157.024,-4.956 -190.878,-11.584Z" style="fill:#f7bf9a;"/><path d="M1504.35,2402.91c-4.362,-0.855 -8.885,0.07 -12.564,2.567c-3.678,2.497 -6.206,6.36 -7.021,10.73c-4.125,22.092 -2.752,57.739 4.772,88.558c5.408,22.155 14.202,41.751 25.394,53.42c14.758,15.388 43.116,26.779 72.589,30.126c29.848,3.388 60.289,-1.619 78.408,-15.342c21.133,-16.007 41.888,-41.922 46.092,-66.457c6.077,-35.464 4.685,-55.622 2.18,-66.9c-4.423,-19.907 -13.607,-23.058 -13.607,-23.058c-2.435,-1.46 -5.203,-2.273 -8.042,-2.363c0,0 -154.823,-4.747 -188.201,-11.281Zm176.761,44.236c1.219,8.083 2.739,26.396 -1.945,53.736c-2.934,17.12 -18.618,34.346 -33.364,45.515c-12.525,9.486 -33.889,11.136 -54.522,8.793c-21.006,-2.385 -41.774,-9.111 -52.291,-20.077c-7.926,-8.265 -13.24,-22.563 -17.07,-38.254c-4.762,-19.508 -6.807,-41.303 -6.052,-58.823l0,0c43.923,4.533 134.59,8.023 165.244,9.11Z" style="fill:#7e4021;"/><path d="M2439.1,1731.21c-26.454,45.961 1.093,150.076 -74.893,241.939c-40.021,48.384 -132.197,52.376 -154.696,83.875c-2.753,3.855 -5.15,8.284 -6.889,12.69c-23.435,59.37 3.863,177.5 -15.058,241.359c-53.399,180.221 -449.714,121.371 -597.621,117.449c-267.145,-7.083 -183.079,-195.756 -259.056,-328.715c-12.881,-22.541 -39.429,-28.659 -60.791,-39.883c-93.399,-49.074 -125.458,-332.301 -116.658,-342.86c9.672,-11.607 949.093,70.501 1285.66,14.146Z" style="fill:#ffdab8;"/><path d="M2453.55,1739.53c3.216,-5.588 2.921,-12.529 -0.758,-17.824c-3.678,-5.295 -10.081,-7.993 -16.439,-6.928c-302.143,50.591 -1091.35,-10.95 -1253.2,-15.272c-16.135,-0.43 -26.707,-0.159 -30.846,0.552c-6.889,1.185 -10.223,4.613 -11.664,6.342c-1.596,1.915 -4.237,6.356 -4.931,13.875c-0.971,10.53 0.427,35.841 4.887,68.49c7.546,55.244 23.661,132.237 49.728,192.603c18.741,43.401 43.167,78.153 72.026,93.316c10.676,5.61 22.649,9.943 33.561,15.69c8.126,4.28 15.718,9.32 20.511,17.708c29.516,51.653 33.687,112.093 45.242,166.311c9.668,45.361 24.272,86.605 57.565,117.378c32.884,30.395 84.515,51.144 170.278,53.418c89.395,2.371 268.875,24.449 409.773,2.688c100.54,-15.527 181.24,-54.338 204.27,-132.063c9.872,-33.318 8.11,-80.774 6.513,-127.665c-1.443,-42.393 -2.987,-84.305 8.068,-112.31c1.25,-3.166 2.969,-6.351 4.948,-9.122c4.195,-5.872 12.008,-9.917 21.278,-14.063c12.074,-5.4 26.539,-10.194 41.526,-15.528c33.672,-11.984 69.338,-26.951 91.173,-53.348c48.12,-58.176 57.364,-120.839 62.72,-172.274c3.094,-29.701 4.101,-55.167 13.775,-71.974Zm-1284.28,-6.826c3.839,-0.023 8.342,-0 12.993,0.124c157.974,4.218 910.556,62.174 1232.05,18.96c-3.597,16.216 -5.498,35.29 -7.683,56.263c-4.793,46.028 -12.189,102.421 -55.252,154.482c-22.194,26.832 -62.236,37.961 -94.816,49.605c-27.356,9.778 -50.122,20.537 -60.599,35.204c-3.528,4.94 -6.601,10.614 -8.829,16.258c-12.382,31.366 -11.994,78.203 -10.377,125.683c1.464,42.982 3.89,86.52 -5.159,117.061c-19.693,66.462 -91.427,95.313 -177.398,108.591c-138.846,21.444 -315.708,-0.732 -403.802,-3.067c-74.526,-1.976 -119.96,-18.162 -148.536,-44.576c-28.167,-26.035 -39.409,-61.469 -47.589,-99.847c-12.239,-57.432 -17.636,-121.186 -48.902,-175.901c-8.088,-14.154 -20.208,-23.441 -33.918,-30.663c-10.922,-5.752 -22.905,-10.09 -33.591,-15.705c-23.447,-12.32 -41.701,-41.759 -56.928,-77.022c-24.883,-57.625 -40.1,-131.165 -47.304,-183.9c-2.783,-20.377 -3.91,-40.109 -4.355,-51.55Z" style="fill:#7e4021;"/><path d="M2119.9,2053.48c-2.754,0.219 -6.985,0.594 -8.685,0.895c-9.167,1.626 -18.304,3.372 -27.519,4.716c-24.095,3.514 -48.206,6.334 -72.436,8.74c-79.065,7.853 -155.263,8.333 -233.586,-5.976c-9.048,-1.653 -17.737,4.351 -19.39,13.4c-1.653,9.049 4.351,17.737 13.4,19.39c81.437,14.878 160.661,14.522 242.87,6.356c24.737,-2.456 49.354,-5.338 73.953,-8.926c9.553,-1.393 19.026,-3.193 28.529,-4.879c3.198,-0.567 11.574,-1.146 12.739,-1.484c11.153,-3.235 12.038,-12.351 12.134,-15.581c0.048,-1.65 0.204,-15.529 -15.587,-17.218c-2.226,-0.238 -4.398,-0.026 -6.422,0.567Zm-1.92,31.324c1.041,0.476 2.327,0.891 3.905,1.133c-1.37,-0.221 -2.678,-0.606 -3.905,-1.133Zm-0.323,-0.145l0.061,0.027l-0.072,-0.033l0.011,0.006Z" style="fill:#7e4021;"/><path d="M1502.96,1953.35c-50.75,-29.982 -144.166,-44.814 -209.945,-9.183c-42.896,23.235 -62.151,73.678 -72.783,119.441c-2.979,12.823 -8.152,42.298 -9.344,55.409c-0.417,4.587 -173.285,31.948 -254.284,47.851c-118.88,23.341 -527.791,60.928 -777.629,116.205c-97.508,21.574 -152.976,102.239 -159.025,155.983c-29.758,264.389 210.574,245.742 370.6,220.864c103.026,-16.017 769.032,-187.076 941.344,-205.923c62.895,55.993 221.173,45.547 279.399,-8.398c28.801,-26.684 64.986,-77.317 69.988,-113.346c29.666,-213.673 -13.901,-281.766 -178.321,-378.903Z" style="fill:#ffe6d8;"/><path d="M1195.64,2106.39c-39.036,9.004 -173.702,30.657 -242.25,44.115c-118.94,23.352 -528.054,60.981 -778.019,116.286c-105.976,23.447 -165.412,111.981 -171.986,170.392c-9.605,85.341 7.979,143.046 40.503,181.613c30.674,36.373 75.161,56.185 125.597,65.07c71.319,12.563 154.734,3.223 223.622,-7.487c101.61,-15.796 751.252,-182.582 933.65,-205.014c34.849,26.904 91.235,38.716 147.302,36.302c59.028,-2.541 117.147,-20.749 148.559,-49.851c31.217,-28.923 69.747,-84.228 75.169,-123.28c15.454,-111.312 10.939,-184.64 -17.959,-242.855c-28.937,-58.295 -82.622,-102.017 -168.394,-152.69l0,-0c-54.713,-32.324 -155.444,-47.902 -226.361,-9.488c-47.071,25.497 -69.411,80.105 -81.078,130.325c-2.419,10.411 -6.217,31.371 -8.355,46.562Zm298.839,-138.7c78.65,46.465 128.957,85.357 155.492,138.812c26.575,53.535 29.011,121.088 14.799,223.45c-4.583,33.008 -38.422,78.966 -64.807,103.412c-26.816,24.844 -76.945,38.831 -127.338,41c-50.042,2.155 -100.887,-7.217 -129.652,-32.824c-3.522,-3.136 -8.207,-4.633 -12.894,-4.12c-172.447,18.861 -838.986,189.993 -942.093,206.022c-65.534,10.188 -144.872,19.547 -212.718,7.596c-42.342,-7.459 -80.147,-23.196 -105.899,-53.732c-27.933,-33.122 -41.109,-83.1 -32.86,-156.395c5.524,-49.077 57.021,-121.873 146.063,-141.574c249.712,-55.248 658.42,-92.795 777.24,-116.123c73.246,-14.381 221.249,-38.144 250.424,-46.102c8.698,-2.372 12.807,-6.501 13.843,-7.859c2.279,-2.991 3.157,-6.013 3.404,-8.736c1.144,-12.576 6.123,-40.846 8.98,-53.146c9.598,-41.313 25.763,-87.583 64.487,-108.559c60.641,-32.847 146.743,-18.762 193.529,8.878l0,0Z" style="fill:#7e4021;"/><path d="M1335.16,2470.67c34.139,-5.828 69.969,-23.736 95.046,-47.924c17.89,-17.256 30.298,-37.715 34.003,-59.124c10.74,-62.063 9.27,-128.705 -11.275,-180.196c-21.944,-54.996 -64.724,-93.726 -136.441,-95.182c-9.197,-0.187 -16.815,7.128 -17.002,16.325c-0.187,9.196 7.128,16.815 16.325,17.001c55.837,1.134 89.073,31.391 106.158,74.21c18.483,46.323 19.052,106.323 9.39,162.158c-2.581,14.91 -11.84,28.798 -24.3,40.817c-20.447,19.723 -49.675,34.304 -77.514,39.057c-9.067,1.548 -15.172,10.166 -13.624,19.234c1.548,9.067 10.167,15.172 19.234,13.624Z" style="fill:#7e4021;"/><path d="M1419.67,2499.37c46.835,-25.754 79.364,-64.82 95.321,-99.315c45.935,-99.3 11.795,-272.681 -39.341,-366.103c-4.417,-8.069 -14.554,-11.034 -22.623,-6.617c-8.068,4.416 -11.034,14.553 -6.617,22.622c28.469,52.01 51.542,130.714 56.318,205.236c3.1,48.367 -1.393,94.987 -17.99,130.867c-13.546,29.282 -41.372,62.239 -81.13,84.102c-8.06,4.432 -11.006,14.574 -6.573,22.635c4.432,8.06 14.574,11.005 22.635,6.573Z" style="fill:#7e4021;"/><path d="M1413.94,1970.41c-6.562,-5.791 -13.946,-10.786 -21.133,-15.76c-20.504,-14.189 -41.854,-27.218 -65.089,-36.371c-8.558,-3.372 -18.244,0.84 -21.615,9.398c-3.372,8.558 0.839,18.244 9.398,21.616c20.85,8.213 39.938,20.034 58.338,32.767c6.118,4.234 12.458,8.412 18.044,13.342c6.897,6.087 17.438,5.43 23.524,-1.467c6.087,-6.897 5.43,-17.438 -1.467,-23.525Z" style="fill:#7e4021;"/><path d="M4058.1,1410.62c-28.985,34.23 -137.151,55.648 -179.787,69.481c-518.967,168.375 -2415.3,433.177 -2874.17,197.033c-183.051,-94.202 -258.257,-298.372 -297.583,-488.886c-45.869,-222.207 -18.474,-465.827 107.573,-657.639c375.099,-570.803 2441.56,-603.965 3031.09,-399.241c151.018,52.443 288.752,136.087 368.374,279.284c151.012,271.587 -43.796,739.323 -155.501,999.968Z" style="fill:#f8bcc4;"/><path d="M4070.82,1421.39c1.071,-1.265 1.947,-2.682 2.6,-4.205c67.459,-157.405 164.887,-389.893 199.32,-609.706c23.429,-149.569 17.482,-293.328 -44.571,-404.928c-81.667,-146.873 -222.578,-233.139 -377.473,-286.929c-414.357,-143.892 -1555.37,-171.264 -2331.87,22.161c-336.402,83.797 -604.396,209.863 -718.613,383.672c-128.458,195.48 -156.713,443.704 -109.968,670.161c40.31,195.275 118.653,403.78 306.279,500.336c139.161,71.615 408.996,98.483 732.89,95.25c749.347,-7.479 1789.93,-173.112 2154.05,-291.249c25.69,-8.335 75.063,-19.433 116.744,-34.386c30.942,-11.1 57.654,-24.866 70.619,-40.177Zm-26.963,-19.848c-10.765,11.278 -31.661,20.309 -54.912,28.65c-41.33,14.827 -90.301,25.79 -115.775,34.055c-362.432,117.589 -1398.22,282.179 -2144.09,289.623c-316.914,3.163 -581.144,-21.485 -717.305,-91.557c-178.477,-91.848 -250.543,-291.682 -288.886,-477.435c-44.992,-217.958 -18.458,-456.974 105.179,-645.117c110.842,-168.673 372.352,-288.313 698.813,-369.634c770.179,-191.85 1901.9,-165.737 2312.88,-23.016c147.14,51.097 281.697,132.119 359.275,271.639c58.756,105.671 62.956,241.948 40.772,383.57c-33.805,215.805 -129.403,443.896 -195.949,599.22l-0.002,0.002Z" style="fill:#7e4021;"/><path d="M4252.4,881.458c28.41,-12.486 96.611,-49.64 190.238,-78.64c143.83,-44.55 271.761,3.261 262.173,126.842c-15.309,197.322 -370.269,161.505 -441.235,168.898c-0.52,0.054 92.754,44.954 134.612,75.613c58.351,42.738 236.941,180.927 157.438,298.964c-59.692,88.623 -194.539,40.046 -292,-33.806c-72.296,-54.783 -124.903,-138.02 -145.757,-146.8c-3.646,-1.535 71.279,337.758 -78.859,418.14c-63.998,34.263 -143.682,-34.189 -169.872,-171.991c-19.678,-103.538 4.733,-221.935 3.765,-222.155c-1.672,-0.38 -80.172,96.133 -193.294,136.325c-86.746,30.82 -203.365,11.681 -222.197,-62.398c-53.083,-208.814 292.259,-283.009 291.273,-290.541c-0.801,-6.124 -127.975,-83.478 -210.242,-142.619c-75.209,-54.066 -140.249,-160.471 -30.678,-242.477c134.55,-100.702 361.665,109.252 361.354,108.696c-27.276,-48.752 -28.454,-103.296 -37.332,-159.647c-12.277,-77.916 -27.58,-394.923 120.837,-359.45c125.097,29.9 99.98,314.355 106.406,417.969c0.247,3.982 1.416,46.667 5.076,46.394c4.08,-0.304 124.889,-444.274 297.775,-370.472c180.973,77.255 -29.909,381.263 -109.481,483.155Z" style="fill:#fff;"/><path d="M3832.02,771.949c-37.757,-28.207 -93.613,-64.767 -152.415,-85.172c-62.875,-21.819 -128.86,-24.948 -181.825,14.693c-36.842,27.573 -55.613,57.933 -62.205,88.107c-15.067,68.973 35.337,139.691 93.142,181.246c60.469,43.47 145.3,96.787 185.973,124.23c-46.653,15.875 -140.296,49.241 -205.451,106.531c-54.004,47.486 -88.863,110.817 -67.978,192.972c8.824,34.71 35.375,59.703 71.282,74.192c49.36,19.918 116.776,19.655 172.648,-0.196c71.585,-25.433 129.826,-72.59 164.597,-105.247c-5.025,45.206 -9.162,114.604 2.979,178.485c16.798,88.387 55.263,149.495 97.261,176.8c31.735,20.632 65.833,23.378 96.85,6.772c58.476,-31.307 86.75,-98.155 97.439,-171.795c11.311,-77.925 3.426,-163.02 -3.338,-214.868c27.459,31.966 66.072,78.669 112.583,113.914c61.314,46.461 136.986,82.803 201.036,84.835c46.624,1.479 87.517,-14.416 114.853,-55.002c35.687,-52.983 26.183,-109.614 -3.639,-161.531c-41.124,-71.593 -121.656,-133.735 -157.774,-160.19c-19.882,-14.563 -51.144,-32.305 -78.792,-47.087c64.868,-0.439 159.765,-2.202 238.776,-25.421c81.923,-24.075 146.71,-70.936 153.408,-157.267c10.475,-135.018 -126.582,-192.725 -283.721,-144.052c-53.093,16.445 -98.091,35.468 -132.416,51.216c49.765,-70.449 112.307,-172.064 135.293,-261.566c21.799,-84.885 8.677,-159.066 -72.16,-193.573c-47.644,-20.339 -92.027,-7.358 -131.757,25.533c-53.628,44.397 -98.662,126.936 -131.07,201.858c-12.178,28.155 -22.591,55.159 -31.055,78.41c-1.171,-68.215 1.511,-173.393 -15.953,-257.55c-15.121,-72.869 -46.467,-129.729 -102.091,-143.024c-68.92,-16.473 -109.578,29.803 -130.066,100.322c-27.181,93.557 -18.672,229.93 -11.109,277.932c5.711,36.246 8.573,71.716 16.695,105.493Zm407.247,99.25c-4.7,6.019 -4.709,14.461 -0.022,20.49c4.688,6.028 12.872,8.099 19.863,5.027c28.148,-12.371 95.697,-49.244 188.463,-77.978c130.584,-40.447 249.33,-2.567 240.626,109.633c-5.55,71.534 -61.692,107.917 -129.573,127.865c-111.223,32.685 -254.619,21.354 -296.772,25.745c-5.716,0.595 -8.967,3.42 -10.978,5.787c-2.951,3.474 -4.495,7.701 -3.83,12.905c0.197,1.541 0.541,7.009 6.946,11.523c0.226,0.16 1.783,1.132 4.619,2.557c14.832,7.451 92.75,45.776 129.733,72.864c33.902,24.832 109.964,82.699 148.566,149.901c23.33,40.616 32.815,84.857 4.896,126.307c-25.908,38.466 -68.536,45.91 -114.854,36.97c-51.091,-9.861 -106.594,-39.391 -153.256,-74.75c-49.61,-37.592 -89.647,-88.964 -116.285,-119.289c-13.982,-15.916 -25.56,-26.426 -33.071,-29.588c-4.581,-1.929 -8.784,-1.648 -12.581,-0.162c-3.26,1.276 -7.161,3.715 -9.431,9.349c-0.458,1.136 -1.04,2.873 -1.208,5.309c-0.087,1.272 0.203,5.604 1.228,12.485c4.783,32.107 23.515,144.514 8.983,244.63c-9.071,62.497 -30.556,120.626 -80.184,147.196c-20.182,10.806 -42.298,8.094 -62.948,-5.331c-36.577,-23.781 -68.053,-78.099 -82.683,-155.078c-17.256,-90.796 0.475,-193.315 3.468,-213.068c0.792,-5.224 0.451,-8.319 0.343,-8.915c-1.828,-10.049 -8.944,-12.453 -12.729,-13.313c-2.459,-0.558 -6.281,-1.016 -10.994,1.254c-0.747,0.359 -3.665,2.081 -7.537,6.151c-14.456,15.198 -85.61,94.498 -184.033,129.468c-48.225,17.134 -106.412,17.885 -149.015,0.694c-25.405,-10.251 -45.207,-26.937 -51.45,-51.493c-17.335,-68.193 12.857,-120.312 57.683,-159.728c72.218,-63.501 181.646,-95.334 213.652,-106.669c6.137,-2.173 10.206,-4.035 12.004,-5.177c2.973,-1.888 4.631,-3.942 5.61,-5.422c2.721,-4.115 3.154,-8.108 2.697,-11.601c-0.26,-1.991 -2.06,-8.41 -9.979,-14.741c-22.002,-17.588 -132.767,-85.84 -207.06,-139.248c-47.496,-34.144 -92.414,-90.396 -80.033,-147.067c5.171,-23.67 20.711,-46.904 49.612,-68.535c43.915,-32.867 98.792,-27.978 150.924,-9.888c83.8,29.08 161.105,93.152 183.126,112.215c3.817,3.304 6.035,5.311 6.417,5.638c11.228,9.618 21.948,-0.12 22.331,-0.481c2.761,-2.602 9.095,-9.58 3.115,-20.269c-26.306,-47.017 -26.851,-99.757 -35.414,-154.103c-7.168,-45.497 -15.571,-174.769 10.192,-263.444c14.819,-51.006 40.458,-89.117 90.307,-77.202c20.767,4.963 36.276,18.726 48.275,37.701c13.508,21.361 22.572,49.05 28.927,79.676c20.237,97.52 12.621,223.756 16.445,285.414c0.158,2.556 0.703,20.761 2.007,33.815c0.771,7.725 2.124,14.072 3.331,16.922c4.362,10.299 12.585,11.62 17.609,11.246c1.383,-0.103 10.831,-1.078 15.343,-12.688c4.775,-12.285 24.265,-76.886 55.505,-149.108c30.318,-70.092 71.563,-147.881 121.733,-189.416c29.472,-24.399 62.07,-35.64 97.413,-20.552c63.955,27.301 70.208,87.466 52.961,154.625c-28.719,111.83 -122.209,242.983 -169.033,302.942Z" style="fill:#7d3f21;"/><path d="M3918.32,860.968c-238.124,139.843 -67.827,517.737 171.409,373.35c250.125,-150.96 65.151,-512.276 -171.409,-373.35Z" style="fill:#ffce7b;"/><path d="M3909.88,846.596c-257.344,151.131 -70.084,558.032 188.461,401.991c80.315,-48.474 118.372,-117.446 125.944,-185.911c10.694,-96.689 -40.039,-192.594 -120.577,-231.365c-54.089,-26.039 -121.784,-27.024 -193.828,15.285l-0,-0Zm16.88,28.743c60.431,-35.489 117.119,-35.835 162.489,-13.994c68.65,33.048 111.02,115.25 101.905,197.667c-6.577,59.466 -40.278,118.934 -110.037,161.036c-219.945,132.745 -373.28,-216.141 -154.357,-344.709l0,0Z" style="fill:#7d3f21;"/><path d="M3945,1162.87c15.737,6.493 32.953,9.435 50.225,8.253c62.768,-4.293 101.169,-52.187 111.773,-113.963c1.556,-9.066 -4.541,-17.69 -13.607,-19.246c-9.066,-1.556 -17.69,4.541 -19.246,13.607c-7.873,45.87 -34.589,83.159 -81.195,86.347c-12.119,0.829 -24.195,-1.256 -35.237,-5.812c-8.503,-3.508 -18.255,0.548 -21.764,9.051c-3.508,8.503 0.547,18.255 9.051,21.763Z" style="fill:#7d3f21;"/><path d="M3932.96,1010.52c-0.443,-2.647 -1.534,-5.224 -3.301,-7.486c-5.664,-7.249 -16.146,-8.536 -23.395,-2.872c-3.551,2.774 -4.477,5.018 -5.162,6.572c-0.885,2.011 -3.068,4.886 -0.377,12.598c4.601,13.19 9.354,26.312 13.959,39.498c3.032,8.685 12.545,13.273 21.229,10.241c8.685,-3.032 13.273,-12.545 10.241,-21.229c-4.351,-12.462 -8.835,-24.865 -13.194,-37.322Z" style="fill:#7d3f21;"/><path d="M4039.58,948.498c-0.443,-2.647 -1.534,-5.224 -3.301,-7.487c-5.664,-7.248 -16.147,-8.535 -23.395,-2.872c-3.551,2.775 -4.478,5.019 -5.162,6.573c-0.886,2.011 -3.068,4.886 -0.377,12.598c4.601,13.19 9.354,26.312 13.959,39.498c3.032,8.685 12.545,13.273 21.229,10.241c8.684,-3.032 13.273,-12.545 10.241,-21.229c-4.352,-12.462 -8.836,-24.865 -13.194,-37.322Z" style="fill:#7d3f21;"/><path d="M1270.7,989.517c136.931,-108.886 318.95,-72.159 406.215,81.965c87.265,154.125 46.943,367.656 -89.988,476.542c-136.932,108.887 -318.95,72.16 -406.216,-81.965c-87.265,-154.124 -46.942,-367.655 89.989,-476.542Z" style="fill:#ee909d;"/><path d="M1260.32,976.472c-71.827,57.116 -118.376,141.69 -135.253,232.226c-16.742,89.807 -4.272,185.379 41.134,265.573c46.032,81.299 117.11,131.552 194.622,147.52c78.337,16.137 163.472,-2.674 236.47,-60.722c71.827,-57.116 118.375,-141.689 135.253,-232.226c16.742,-89.806 4.271,-185.379 -41.135,-265.572c-46.031,-81.3 -117.11,-131.553 -194.622,-147.52c-78.336,-16.137 -163.471,2.673 -236.469,60.721Zm20.746,26.09c64.555,-51.333 139.722,-68.434 208.998,-54.163c68.766,14.165 131.503,59.17 172.341,131.295c41.546,73.378 52.691,160.867 37.372,243.041c-15.413,82.681 -57.635,160.084 -123.231,212.244c-64.554,51.334 -139.722,68.434 -208.997,54.164c-68.766,-14.166 -131.504,-59.17 -172.341,-131.295c-41.547,-73.378 -52.691,-160.868 -37.373,-243.041c15.414,-82.682 57.636,-160.084 123.231,-212.245Z" style="fill:#7e4021;"/><path d="M3048.9,934.407c71.359,-60.444 169.219,-43.834 218.395,37.069c49.176,80.904 31.167,195.659 -40.192,256.103c-71.359,60.444 -169.218,43.834 -218.395,-37.069c-49.176,-80.903 -31.167,-195.659 40.192,-256.103Z" style="fill:#ee909d;"/><path d="M3038.13,921.69c-38.845,32.903 -63.27,80.56 -71.073,131.05c-7.735,50.046 0.877,102.774 27.411,146.427c27.215,44.772 68.001,71.606 111.727,79.21c44.243,7.695 91.725,-4.235 131.682,-38.08c38.846,-32.904 63.271,-80.56 71.074,-131.05c7.734,-50.047 -0.878,-102.774 -27.412,-146.427c-27.214,-44.773 -68.001,-71.607 -111.727,-79.211c-44.243,-7.694 -91.724,4.235 -131.682,38.081l0,-0Zm21.545,25.435c31.726,-26.873 69.297,-36.785 104.426,-30.676c34.928,6.075 67.215,27.921 88.954,63.684c22.466,36.96 29.502,81.65 22.953,124.022c-6.582,42.594 -26.905,82.949 -59.675,110.707c-31.726,26.873 -69.298,36.784 -104.427,30.675c-34.928,-6.074 -67.215,-27.92 -88.954,-63.684c-22.465,-36.96 -29.501,-81.65 -22.953,-124.022c6.583,-42.594 26.906,-82.949 59.676,-110.706l-0,-0Z" style="fill:#7e4021;"/><path d="M904.546,430.679c69.122,-54.966 161.004,-36.426 205.055,41.375c44.052,77.802 23.697,185.592 -45.425,240.557c-69.123,54.966 -161.005,36.426 -205.056,-41.376c-44.051,-77.801 -23.697,-185.591 45.426,-240.556Z" style="fill:#f7bf9a;"/><path d="M894.172,417.634c-37.801,30.059 -62.369,74.527 -71.252,122.174c-8.803,47.224 -2.18,97.47 21.696,139.639c24.523,43.311 62.468,69.978 103.762,78.485c41.787,8.608 87.231,-1.311 126.171,-32.276c37.801,-30.059 62.37,-74.527 71.252,-122.174c8.803,-47.224 2.18,-97.47 -21.696,-139.639c-24.523,-43.311 -62.468,-69.979 -103.762,-78.485c-41.787,-8.608 -87.231,1.311 -126.171,32.276l0,-0Zm20.747,26.09c30.496,-24.251 65.972,-32.46 98.699,-25.718c32.547,6.705 62.152,28.123 81.48,62.26c20.017,35.353 25.314,77.516 17.934,117.107c-7.418,39.793 -27.66,77.09 -59.23,102.193c-30.496,24.251 -65.972,32.46 -98.699,25.718c-32.547,-6.705 -62.151,-28.123 -81.48,-62.26c-20.017,-35.353 -25.314,-77.517 -17.934,-117.107c7.418,-39.793 27.661,-77.09 59.23,-102.193l-0,-0Z" style="fill:#7e4021;"/><path d="M1374.96,524.061c69.122,-54.965 161.005,-36.425 205.056,41.376c44.051,77.801 23.696,185.591 -45.426,240.557c-69.122,54.965 -161.005,36.425 -205.056,-41.376c-44.051,-77.801 -23.696,-185.591 45.426,-240.557Z" style="fill:#f7bf9a;"/><path d="M1364.59,511.016c-37.802,30.059 -62.37,74.527 -71.252,122.175c-8.804,47.224 -2.181,97.469 21.696,139.639c24.522,43.311 62.468,69.978 103.761,78.484c41.788,8.608 87.231,-1.311 126.171,-32.275c37.801,-30.06 62.37,-74.527 71.252,-122.175c8.804,-47.224 2.18,-97.47 -21.696,-139.639c-24.523,-43.311 -62.468,-69.978 -103.761,-78.484c-41.788,-8.609 -87.231,1.31 -126.171,32.275l-0,0Zm20.746,26.09c30.497,-24.25 65.973,-32.459 98.699,-25.718c32.547,6.705 62.152,28.123 81.48,62.261c20.017,35.353 25.315,77.516 17.934,117.107c-7.418,39.792 -27.66,77.089 -59.229,102.193c-30.497,24.25 -65.973,32.459 -98.7,25.717c-32.547,-6.704 -62.151,-28.123 -81.48,-62.26c-20.017,-35.353 -25.314,-77.516 -17.934,-117.107c7.418,-39.792 27.661,-77.089 59.23,-102.193l0,0Z" style="fill:#7e4021;"/><path d="M1890.63,517.825c69.122,-54.965 161.004,-36.425 205.055,41.376c44.052,77.801 23.697,185.591 -45.425,240.557c-69.123,54.965 -161.005,36.425 -205.056,-41.376c-44.051,-77.801 -23.697,-185.591 45.426,-240.557Z" style="fill:#f7bf9a;"/><path d="M1880.26,504.78c-37.801,30.06 -62.369,74.527 -71.252,122.175c-8.803,47.224 -2.18,97.47 21.696,139.639c24.523,43.311 62.468,69.978 103.762,78.484c41.787,8.608 87.231,-1.31 126.171,-32.275c37.801,-30.059 62.37,-74.527 71.252,-122.175c8.803,-47.224 2.18,-97.469 -21.696,-139.639c-24.523,-43.311 -62.468,-69.978 -103.762,-78.484c-41.787,-8.608 -87.231,1.311 -126.171,32.275l0,0Zm20.747,26.09c30.496,-24.25 65.972,-32.459 98.699,-25.717c32.547,6.704 62.152,28.123 81.48,62.26c20.017,35.353 25.315,77.516 17.934,117.107c-7.418,39.792 -27.66,77.089 -59.23,102.193c-30.496,24.25 -65.972,32.459 -98.699,25.718c-32.547,-6.705 -62.151,-28.123 -81.48,-62.261c-20.017,-35.353 -25.314,-77.516 -17.934,-117.107c7.418,-39.792 27.661,-77.089 59.23,-102.193l-0,0Z" style="fill:#7e4021;"/><path d="M1300.14,1044.04c108.045,-85.917 251.667,-56.937 320.523,64.674c68.857,121.611 37.04,290.098 -71.005,376.015c-108.045,85.916 -251.667,56.937 -320.523,-64.675c-68.856,-121.611 -37.04,-290.098 71.005,-376.014Z" style="fill:#ffe6d8;"/><path d="M1289.77,1030.99c-57.333,45.59 -94.518,113.078 -107.989,185.345c-13.36,71.667 -3.381,147.93 32.854,211.926c36.869,65.116 93.833,105.322 155.916,118.111c62.767,12.93 130.994,-2.093 189.483,-48.603c57.333,-45.591 94.518,-113.079 107.99,-185.346c13.36,-71.666 3.38,-147.93 -32.854,-211.926c-36.869,-65.116 -93.833,-105.322 -155.917,-118.111c-62.767,-12.93 -130.993,2.093 -189.483,48.604Zm20.746,26.09c50.047,-39.797 108.306,-53.11 162.012,-42.046c53.337,10.987 101.96,45.944 133.635,101.887c32.375,57.179 41.029,125.36 29.092,189.394c-12.007,64.411 -44.867,124.729 -95.967,165.364c-50.046,39.796 -108.306,53.109 -162.012,42.045c-53.337,-10.987 -101.96,-45.944 -133.635,-101.887c-32.375,-57.179 -41.029,-125.36 -29.092,-189.394c12.008,-64.411 44.867,-124.729 95.967,-165.363Z" style="fill:#7e4021;"/><path d="M3103.86,968.307c56.306,-47.694 133.521,-34.587 172.324,29.249c38.802,63.837 24.592,154.384 -31.714,202.078c-56.305,47.693 -133.521,34.586 -172.324,-29.25c-38.802,-63.836 -24.592,-154.384 31.714,-202.077Z" style="fill:#ffe6d8;"/><path d="M3093.09,955.589c-31.292,26.505 -50.997,64.879 -57.283,105.551c-6.228,40.298 0.733,82.75 22.099,117.901c22.052,36.278 55.13,57.977 90.56,64.139c35.872,6.238 74.382,-3.388 106.779,-30.829c31.291,-26.505 50.997,-64.878 57.282,-105.551c6.228,-40.298 -0.733,-82.75 -22.099,-117.901c-22.051,-36.277 -55.13,-57.977 -90.56,-64.138c-35.871,-6.239 -74.382,3.387 -106.778,30.828Zm21.544,25.435c24.165,-20.469 52.766,-28.076 79.523,-23.423c26.632,4.631 51.212,21.343 67.787,48.612c17.297,28.457 22.683,62.872 17.641,95.496c-5.065,32.776 -20.669,63.848 -45.885,85.207c-24.165,20.469 -52.766,28.076 -79.522,23.423c-26.633,-4.631 -51.212,-21.343 -67.787,-48.612c-17.298,-28.457 -22.683,-62.872 -17.642,-95.496c5.066,-32.776 20.669,-63.848 45.885,-85.207Z" style="fill:#7e4021;"/><path d="M3118.93,1109.5c28.872,-2.283 102.436,-16.019 124.448,-22.201c8.856,-2.488 14.026,-11.697 11.539,-20.553c-2.487,-8.856 -11.696,-14.026 -20.552,-11.539c-20.883,5.865 -90.672,18.897 -118.062,21.063c-9.17,0.725 -16.026,8.759 -15.301,17.929c0.725,9.17 8.759,16.026 17.928,15.301Z" style="fill:#7e4021;"/><path d="M895.636,444.76c54.54,-43.371 127.04,-28.742 161.799,32.647c34.758,61.389 18.697,146.44 -35.844,189.811c-54.54,43.37 -127.04,28.741 -161.799,-32.648c-34.758,-61.389 -18.697,-146.44 35.844,-189.81Z" style="fill:#ffe6d8;"/><path d="M885.262,431.715c-30.484,24.24 -50.326,60.084 -57.489,98.509c-7.096,38.067 -1.73,78.566 17.516,112.558c19.898,35.142 50.718,56.737 84.223,63.639c33.928,6.99 70.837,-1.017 102.453,-26.158c30.484,-24.241 50.326,-60.084 57.489,-98.509c7.096,-38.067 1.73,-78.566 -17.516,-112.559c-19.898,-35.142 -50.718,-56.737 -84.223,-63.639c-33.928,-6.989 -70.837,1.018 -102.453,26.158l0,0.001Zm20.747,26.09c23.173,-18.427 50.113,-24.724 74.981,-19.601c24.759,5.1 47.238,21.446 61.941,47.415c15.387,27.176 19.428,59.592 13.754,90.026c-5.699,30.57 -21.215,59.242 -45.467,78.528c-23.173,18.426 -50.113,24.723 -74.981,19.601c-24.758,-5.101 -47.238,-21.447 -61.941,-47.415c-15.387,-27.177 -19.428,-59.593 -13.754,-90.027c5.699,-30.569 21.215,-59.242 45.467,-78.527l-0,-0Z" style="fill:#7e4021;"/><path d="M1366.05,538.142c54.541,-43.37 127.04,-28.742 161.799,32.647c34.758,61.389 18.697,146.441 -35.843,189.811c-54.541,43.371 -127.041,28.742 -161.799,-32.647c-34.759,-61.389 -18.698,-146.441 35.843,-189.811Z" style="fill:#ffe6d8;"/><path d="M1355.68,525.097c-30.485,24.241 -50.327,60.084 -57.49,98.509c-7.096,38.067 -1.73,78.566 17.516,112.559c19.898,35.142 50.718,56.737 84.223,63.639c33.928,6.989 70.837,-1.018 102.453,-26.159c30.484,-24.241 50.326,-60.084 57.489,-98.509c7.097,-38.067 1.731,-78.566 -17.516,-112.558c-19.897,-35.142 -50.718,-56.738 -84.223,-63.64c-33.928,-6.989 -70.836,1.018 -102.452,26.159l-0,-0Zm20.746,26.09c23.173,-18.427 50.114,-24.723 74.981,-19.601c24.759,5.1 47.238,21.447 61.942,47.415c15.387,27.176 19.427,59.593 13.753,90.027c-5.698,30.569 -21.214,59.242 -45.467,78.527c-23.172,18.427 -50.113,24.724 -74.98,19.601c-24.759,-5.1 -47.239,-21.447 -61.942,-47.415c-15.387,-27.176 -19.427,-59.593 -13.754,-90.026c5.699,-30.57 21.215,-59.243 45.467,-78.528l0,-0Z" style="fill:#7e4021;"/><path d="M1881.72,531.906c54.54,-43.37 127.04,-28.741 161.799,32.648c34.758,61.389 18.697,146.44 -35.844,189.81c-54.54,43.371 -127.04,28.742 -161.799,-32.647c-34.758,-61.389 -18.697,-146.44 35.844,-189.811Z" style="fill:#ffe6d8;"/><path d="M1871.35,518.861c-30.484,24.241 -50.326,60.084 -57.489,98.509c-7.096,38.067 -1.73,78.566 17.516,112.559c19.898,35.142 50.718,56.737 84.223,63.639c33.928,6.989 70.837,-1.018 102.453,-26.159c30.484,-24.24 50.326,-60.084 57.489,-98.509c7.096,-38.067 1.73,-78.566 -17.516,-112.558c-19.898,-35.142 -50.718,-56.738 -84.223,-63.64c-33.928,-6.989 -70.837,1.018 -102.453,26.159Zm20.747,26.09c23.173,-18.427 50.113,-24.723 74.981,-19.601c24.759,5.101 47.238,21.447 61.941,47.415c15.387,27.177 19.428,59.593 13.754,90.027c-5.699,30.569 -21.215,59.242 -45.467,78.527c-23.173,18.427 -50.113,24.724 -74.981,19.601c-24.758,-5.1 -47.238,-21.446 -61.941,-47.415c-15.387,-27.176 -19.428,-59.592 -13.754,-90.026c5.699,-30.57 21.215,-59.243 45.467,-78.528Z" style="fill:#7e4021;"/><path d="M2505.77,468.994c0,-0 180.478,-0.61 427.982,-28.78c259.243,-29.505 633.002,-117.665 691.208,-145.119c8.319,-3.924 11.888,-13.865 7.964,-22.184c-3.925,-8.32 -13.865,-11.888 -22.185,-7.964c-57.312,27.033 -425.491,113.095 -680.757,142.148c-245.392,27.929 -424.327,28.566 -424.327,28.566c-9.199,0.032 -16.641,7.525 -16.609,16.724c0.032,9.199 7.526,16.641 16.724,16.609Z" style="fill:#7e4021;"/><path d="M3742.13,247.857c40.933,-18.759 71.4,-45.557 83.621,-70.595c7.796,-15.973 8.891,-31.659 3.252,-45.607c-5.303,-13.115 -16.953,-25.366 -37.571,-34.051c-8.477,-3.571 -18.259,0.412 -21.83,8.889c-3.571,8.477 0.412,18.259 8.89,21.83c10.246,4.316 16.972,9.309 19.608,15.827c2.298,5.684 0.873,11.981 -2.305,18.491c-9.721,19.918 -34.99,39.991 -67.552,54.914c-8.362,3.832 -12.04,13.732 -8.208,22.095c3.833,8.362 13.733,12.04 22.095,8.207Z" style="fill:#7e4021;"/><path d="M1357.64,1429.03c-13.232,-6.44 -25.654,-15.17 -36.82,-26.075c-10.497,-10.252 -19.878,-22.418 -27.797,-36.404c-23.396,-41.322 -29.612,-90.601 -20.985,-136.876c8.673,-46.526 32.366,-90.119 69.277,-119.47c35.843,-28.502 77.55,-38.107 116.014,-30.183c38.233,7.876 73.039,32.997 95.744,73.098c14.909,26.332 22.831,55.909 24.395,85.864c1.579,30.237 -3.317,60.869 -14.142,89.018c-3.302,8.586 0.988,18.237 9.573,21.539c8.586,3.302 18.237,-0.988 21.539,-9.574c12.492,-32.482 18.14,-67.829 16.318,-102.721c-1.832,-35.088 -11.212,-69.705 -28.676,-100.55c-27.9,-49.274 -71.046,-79.644 -118.025,-89.322c-47.526,-9.79 -99.2,1.525 -143.487,36.741c-43.142,34.307 -71.161,85.07 -81.299,139.451c-10.049,53.909 -2.508,111.27 24.748,159.409c9.538,16.846 20.869,31.478 33.513,43.827c13.799,13.477 29.169,24.241 45.522,32.2c8.271,4.026 18.254,0.579 22.28,-7.692c4.025,-8.271 0.579,-18.254 -7.692,-22.28Z" style="fill:#7e4021;"/><path d="M1366.23,1083.62c0.017,32.762 39.89,228.259 41.14,247.336c1.364,20.831 2.488,41.246 -0.437,61.772c-0.783,5.498 -5.903,18.864 -3.311,24.232c2.479,5.135 18.688,-2.371 21.864,-3.477c19.375,-6.748 38.81,-13.411 58.083,-20.44c4.931,-1.799 17.678,-4.212 17.11,-11.432c-0.638,-8.119 -12.203,-14.833 -17.942,-19.126c-15.846,-11.855 -31.734,-27.301 -40.821,-45.558c-9.628,-19.345 -56.681,-194.295 -75.686,-233.307Z" style="fill:#ee909d;"/><path d="M1381.21,1076.32c-3.4,-6.979 -11.169,-10.686 -18.733,-8.94c-7.564,1.747 -12.921,8.485 -12.917,16.248c0.017,32.902 39.92,229.259 41.176,248.418c1.288,19.67 2.456,38.949 -0.306,58.331c-0.565,3.966 -3.27,11.915 -3.956,18.218c-0.682,6.271 0.276,11.759 2.136,15.611c2.832,5.867 8.031,10.055 15.916,11.015c3.288,0.4 7.563,0.081 12.034,-1.017c5.856,-1.438 12.422,-4.291 14.405,-4.982c19.451,-6.774 38.962,-13.465 58.311,-20.521c4.735,-1.727 14.41,-4.577 19.71,-9.102c5.917,-5.053 8.914,-11.553 8.306,-19.293c-0.438,-5.566 -2.722,-11.014 -6.619,-15.939c-4.868,-6.15 -13.042,-11.552 -17.955,-15.228c-13.851,-10.361 -27.941,-23.68 -35.884,-39.639c-9.623,-19.333 -56.63,-194.189 -75.624,-233.18Zm94.541,301.827l-5.102,1.847c-7.219,2.581 -14.451,5.128 -21.682,7.675l-25.807,8.976l0.27,-1.566c3.088,-21.669 2.008,-43.221 0.568,-65.213c-0.216,-3.295 -1.594,-11.874 -3.723,-23.976l0.001,0.001c2.945,9.044 5.259,15.534 6.717,18.462c10.231,20.556 27.916,38.13 45.757,51.477l3.001,2.317Z" style="fill:#7e4021;"/><path d="M1393.6,1238.34c16.456,-13.086 38.33,-8.672 48.817,9.85c10.487,18.522 5.642,44.183 -10.814,57.269c-16.456,13.085 -38.33,8.672 -48.817,-9.85c-10.487,-18.522 -5.641,-44.184 10.814,-57.269Z" style="fill:#7e4021;"/><path d="M1383.22,1225.29c-11.373,9.044 -18.87,22.362 -21.543,36.698c-2.638,14.151 -0.556,29.191 6.599,41.827c7.817,13.806 20.027,22.154 33.19,24.866c13.401,2.76 28.016,-0.252 40.503,-10.182c11.374,-9.044 18.871,-22.362 21.543,-36.698c2.638,-14.151 0.556,-29.192 -6.598,-41.828c-7.817,-13.806 -20.028,-22.154 -33.191,-24.865c-13.4,-2.761 -28.016,0.252 -40.503,10.182Zm20.747,26.09c4.044,-3.216 8.691,-4.518 13.031,-3.624c4.417,0.91 8.286,4.008 10.909,8.641c3.295,5.82 4.051,12.778 2.836,19.295c-1.208,6.481 -4.379,12.628 -9.52,16.717c-4.045,3.216 -8.692,4.518 -13.031,3.624c-4.418,-0.91 -8.287,-4.008 -10.91,-8.641c-3.295,-5.82 -4.051,-12.778 -2.836,-19.295c1.208,-6.481 4.379,-12.628 9.521,-16.717Z" style="fill:#7e4021;"/></g></svg>