<?xml version="1.0" encoding="UTF-8" standalone="no"?><!DOCTYPE svg PUBLIC "-//W3C//DTD SVG 1.1//EN" "http://www.w3.org/Graphics/SVG/1.1/DTD/svg11.dtd"><svg width="100%" height="100%" viewBox="0 0 1350 1370" version="1.1" xmlns="http://www.w3.org/2000/svg" xmlns:xlink="http://www.w3.org/1999/xlink" xml:space="preserve" xmlns:serif="http://www.serif.com/" style="fill-rule:evenodd;clip-rule:evenodd;stroke-linejoin:round;stroke-miterlimit:2;"><g id="Flower-Smile-01"><path d="M936.854,697.272c29.073,11.393 103.325,33.474 191.597,79.936c135.604,71.375 201.936,199.031 118.019,282.789c-133.99,133.737 -378.157,-149.387 -436.007,-195.31c-0.424,-0.336 41.705,100.106 54.086,152.893c17.261,73.586 65.506,304.224 -67.442,333.325c-99.817,21.849 -170.865,-111.372 -198.162,-236.091c-20.249,-92.517 -8.056,-191.668 -18.257,-213.202c-1.784,-3.764 -156.189,299.455 -318.772,249.812c-69.302,-21.161 -86.611,-129.054 -20.717,-249.137c49.509,-90.224 141.333,-159.453 140.743,-160.314c-1.019,-1.489 -119.852,12.541 -229.702,-39.813c-84.239,-40.148 -159.881,-138.576 -128.025,-206.568c89.795,-191.657 395.04,3.769 398.976,-2.471c3.201,-5.074 -44.222,-153.863 -69.25,-256.792c-22.88,-94.098 -5.636,-219.249 127.509,-200.151c163.499,23.452 203.61,341.869 203.722,341.236c9.795,-55.515 42.772,-96.397 71.092,-144.177c39.158,-66.065 224.475,-309.789 313.842,-176.365c75.325,112.459 -120.119,303.046 -179.621,383.738c-2.287,3.101 -27.909,35.273 -24.993,37.721c3.251,2.729 369.543,-235.685 453.478,-56.428c87.862,187.643 -259.14,258.166 -382.116,275.369Z" style="fill:#fff;"/><path d="M689.952,312.21c-10.76,-47.889 -29.926,-115.157 -61.383,-172.667c-33.409,-61.078 -80.841,-110.696 -144.752,-119.863c-45.397,-6.511 -78.798,2.468 -102.81,20.087c-22.713,16.666 -37.331,41.405 -45.133,70.193c-10.851,40.038 -8.39,88.099 1.873,130.307c18.172,74.736 48.213,173.717 61.955,223.936c-45.743,-22.461 -134.956,-64.204 -217.847,-69.208c-70.805,-4.274 -137.004,17.266 -172.732,93.526c-14.761,31.504 -10.585,68.721 7.17,104.93c24.494,49.954 74.928,98.09 128.776,123.754c71.129,33.9 145.878,41.011 192.107,41.943c-31.959,29.48 -79.399,78.283 -110.588,135.121c-42.173,76.855 -51.429,149.209 -36.892,199.527c10.804,37.398 34.387,63.502 67.352,73.568c63.922,19.518 127.172,-9.359 181.419,-56.107c56.456,-48.652 103.139,-116.131 130.437,-159.241c0.79,43.302 0.593,106.205 13.76,166.361c17.065,77.968 51.005,158.905 97.519,206.439c34.064,34.811 74.789,52.374 120.488,42.371c60.327,-13.205 89.068,-61.947 99.025,-122.277c13.545,-82.08 -8.265,-185.708 -18.92,-231.136c-5.64,-24.044 -17.335,-57.827 -28.483,-87.742c48.841,46.433 119.51,111.657 191.511,150.854c76.979,41.908 155.397,53.839 214.44,-5.093c47.33,-47.24 52.735,-106.789 26.741,-164.663c-24.316,-54.137 -77.227,-107.013 -148.771,-144.67c-51.376,-27.042 -98.037,-45.917 -133.956,-59.255l-0.001,-0c81.341,-15.748 191.805,-45.204 264.894,-94.442c40.995,-27.617 70.42,-61.589 79.548,-101.839c6.233,-27.484 3.273,-58.114 -12.635,-92.089c-22.925,-48.961 -64.084,-70.96 -113.874,-75.528c-68.1,-6.247 -153.485,21.818 -224.621,53.488c-26.713,11.893 -53.074,25.064 -75.338,36.742c41.177,-50.961 110.927,-128.17 151.076,-204.487c33.689,-64.039 45.942,-127.743 12.647,-177.453c-17.114,-25.551 -37.477,-39.136 -59.284,-44.295c-31.153,-7.37 -66.34,3.09 -101.191,24.847c-78.754,49.163 -157.344,155.748 -181.552,196.59c-17.82,30.065 -37.215,57.596 -51.975,87.471Zm244.593,368.556c-7.504,1.05 -13.356,7.03 -14.243,14.556c-0.886,7.526 3.416,14.702 10.471,17.467c28.814,11.292 102.429,33.119 189.915,79.168c64.06,33.718 112.117,80.357 133.889,128.831c20.094,44.737 16.706,90.895 -19.881,127.413c-48.158,48.067 -112.167,33.59 -174.954,-0.591c-103.856,-56.538 -204.524,-168.675 -238.916,-195.976c-4.623,-3.67 -8.982,-3.82 -11.937,-3.54c-5.01,0.475 -9.367,2.728 -12.497,7.657c-0.765,1.204 -3.984,5.522 -2.089,13.033c0.066,0.263 0.606,1.987 1.771,4.888c6.523,16.24 41.282,100.958 52.249,147.714c10.057,42.875 31.269,140.628 18.484,218.096c-7.598,46.043 -27.224,85.065 -73.264,95.142c-34.157,7.477 -64.075,-7.102 -89.536,-33.122c-42.772,-43.71 -73.089,-118.556 -88.781,-190.252c-13.923,-63.613 -12.094,-130.43 -13.263,-172.043c-0.601,-21.386 -2.609,-37.121 -6.213,-44.73c-1.993,-4.207 -5.034,-6.681 -8.388,-8.155c-3.546,-1.557 -8.28,-2.49 -13.975,0.238c-1.208,0.579 -2.965,1.563 -4.853,3.484c-0.881,0.896 -3.467,4.394 -7.077,10.364c-16.304,26.959 -71.865,122.788 -144.75,185.598c-45.1,38.866 -96.781,65.705 -149.924,49.478c-22.478,-6.864 -37.696,-25.44 -45.064,-50.94c-12.72,-44.027 -2.81,-106.992 34.091,-174.239c43.278,-78.868 120.002,-141.079 134.464,-153.37c4.14,-3.519 5.89,-6.22 6.202,-6.777c4.631,-8.275 1.413,-14.395 -0.782,-17.601c-1.379,-2.014 -3.723,-4.737 -8.273,-6.342c-0.814,-0.287 -4.119,-1.155 -9.761,-0.962c-20.26,0.692 -122.789,7.358 -218.25,-38.139c-47.239,-22.513 -91.701,-64.516 -113.188,-108.338c-12.902,-26.312 -17.641,-53.22 -6.915,-76.113c32.318,-68.979 96.219,-80.987 160.813,-72.418c69.833,9.265 140.966,42.3 181.351,62.095c15.477,7.587 26.72,13.337 32.098,15.499c3.359,1.35 5.887,1.853 7.357,2.002c9.397,0.947 14.018,-4.113 16.362,-7.829c1.006,-1.594 3.725,-7.68 1.779,-17.71c-5.591,-28.815 -46.338,-158.997 -68.931,-251.911c-8.956,-36.835 -11.559,-78.771 -2.089,-113.711c5.745,-21.198 15.955,-39.767 32.68,-52.039c18.244,-13.387 43.864,-18.913 78.357,-13.965c53.811,7.718 92.111,51.437 120.24,102.863c45.014,82.294 63.354,185.649 68.065,215.689c0.813,5.181 1.231,8.255 1.314,8.771c2.254,13.929 15.599,14.066 16.069,14.078c3.441,0.082 6.794,-0.798 9.947,-3.001c1.85,-1.294 5.69,-4.102 6.866,-10.766c9.433,-53.463 41.744,-92.561 69.017,-138.575c22.781,-38.436 96.415,-139.043 170.529,-185.31c26.301,-16.419 52.354,-26.247 75.865,-20.685c14.633,3.462 27.778,13.261 39.263,30.407c26.971,40.267 12.838,91.509 -14.453,143.384c-45.317,86.144 -129.356,173.209 -164.735,221.187c-1.471,1.995 -12.384,15.777 -19.524,26.322c-4.292,6.339 -7.249,12.046 -8.128,15.064c-2.858,9.816 1.689,15.912 5.356,18.991c1.41,1.184 8.281,6.847 18.885,2.014c6.651,-3.032 38.558,-22.293 82.892,-44.778c66.48,-33.717 161.838,-75.346 239.93,-76.565c46.676,-0.729 86.931,13.502 107.394,57.205c12.208,26.072 15.099,49.489 10.315,70.581c-7.397,32.615 -32.445,59.187 -65.664,81.566c-90.703,61.104 -241.836,89.556 -313.982,99.648Z" style="fill:#7d3f21;"/><path d="M698.843,440.505c-265.533,-69.669 -372.324,330.888 -103.137,398.025c281.441,70.194 366.926,-328.815 103.137,-398.025Z" style="fill:#ffce7b;"/><path d="M703.073,424.384c-287.059,-75.316 -402.41,357.737 -111.4,430.318c91.108,22.723 163.046,-0.766 211.626,-45.899c113.385,-105.337 99.08,-332.127 -100.226,-384.419l-0,-0Zm-8.459,32.242c169.997,44.602 182.709,237.909 85.997,327.756c-41.461,38.519 -103.114,57.37 -180.871,37.977c-247.366,-61.695 -149.133,-429.754 94.873,-365.733l0.001,-0Z" style="fill:#7d3f21;"/><path d="M530.764,681.896c7.626,15.831 18.508,30.151 31.932,41.551c50.221,42.646 109.169,34.538 155.895,-3.465c7.136,-5.805 8.218,-16.31 2.414,-23.447c-5.805,-7.136 -16.31,-8.217 -23.447,-2.413c-33.966,27.626 -76.778,34.917 -113.286,3.916c-9.882,-8.391 -17.863,-18.954 -23.477,-30.608c-3.992,-8.287 -13.961,-11.774 -22.248,-7.783c-8.287,3.992 -11.775,13.961 -7.783,22.249Z" style="fill:#7d3f21;"/><path d="M586.875,545.646c-4.734,13.009 -9.314,26.078 -14.044,39.088c-3.144,8.644 1.323,18.215 9.967,21.359c8.645,3.143 18.216,-1.323 21.359,-9.968c4.73,-13.006 9.308,-26.073 14.042,-39.079c3.146,-8.644 -1.318,-18.216 -9.962,-21.362c-8.644,-3.146 -18.216,1.318 -21.362,9.962Z" style="fill:#7d3f21;"/><path d="M705.397,577.277c-4.734,13.009 -9.314,26.078 -14.044,39.088c-3.144,8.644 1.323,18.215 9.967,21.359c8.645,3.143 18.216,-1.323 21.359,-9.968c4.73,-13.006 9.308,-26.073 14.042,-39.079c3.146,-8.644 -1.318,-18.216 -9.962,-21.362c-8.644,-3.146 -18.216,1.318 -21.362,9.962Z" style="fill:#7d3f21;"/></g></svg>