<?xml version="1.0" encoding="UTF-8" standalone="no"?><!DOCTYPE svg PUBLIC "-//W3C//DTD SVG 1.1//EN" "http://www.w3.org/Graphics/SVG/1.1/DTD/svg11.dtd"><svg width="100%" height="100%" viewBox="0 0 1015 1013" version="1.1" xmlns="http://www.w3.org/2000/svg" xmlns:xlink="http://www.w3.org/1999/xlink" xml:space="preserve" xmlns:serif="http://www.serif.com/" style="fill-rule:evenodd;clip-rule:evenodd;stroke-linejoin:round;stroke-miterlimit:2;"><g id="Flower-03"><path d="M512.998,662.944c70.283,-3.364 105.421,-41.056 106.159,-40.89c16.753,3.749 39.16,21.678 49.411,33.854c100.975,119.938 123.287,333.097 -87.953,339.545c-200.029,6.106 -135.675,-329.252 -67.617,-332.509Z" style="fill:#fff;"/><path d="M512.202,646.296c-12.003,0.575 -24.512,7.175 -35.696,20.096c-19.224,22.209 -36.12,65.508 -43.21,114.368c-15.448,106.463 15.694,235.386 147.827,231.352c69.52,-2.122 115.617,-25.538 143.607,-59.593c26.372,-32.088 36.956,-74.179 34.607,-119.245c-3.357,-64.395 -33.28,-134.958 -78.019,-188.1c-12.072,-14.34 -38.791,-34.969 -58.521,-39.385c-0.758,-0.169 -8.044,-2.124 -15.881,4.746c-6.19,5.427 -37.653,33.03 -94.714,35.761Zm110.513,-5.493c12.353,5.539 26.081,17.498 33.103,25.839c40.08,47.607 67.223,110.679 70.23,168.367c1.894,36.323 -5.814,70.483 -27.07,96.345c-23.041,28.034 -61.644,45.693 -118.872,47.44c-107.939,3.295 -126.442,-106.278 -113.822,-193.248c5.214,-35.936 15.935,-68.609 29.358,-89.186c3.701,-5.675 7.525,-10.332 11.571,-13.535c2.205,-1.745 4.302,-3.124 6.582,-3.233l0,-0c58.064,-2.779 94.225,-27.047 108.92,-38.789Z" style="fill:#7d4021;"/><path d="M553.803,667.389c5.717,8.208 9.032,24.873 11.832,43.279c4.785,31.453 6.437,67.876 6.849,84.96c0.221,9.196 7.867,16.482 17.063,16.26c9.196,-0.221 16.482,-7.867 16.26,-17.063c-0.505,-21.003 -2.86,-69.735 -10.084,-105.537c-3.565,-17.67 -8.64,-32.44 -14.567,-40.95c-5.258,-7.548 -15.654,-9.408 -23.202,-4.151c-7.548,5.258 -9.408,15.654 -4.151,23.202Z" style="fill:#7d4021;"/><path d="M640.995,607.914c44.341,-54.634 39.667,-105.952 40.281,-106.391c13.962,-9.989 42.263,-14.742 58.173,-14.267c156.714,4.678 330.483,130.131 194.483,291.896c-128.782,153.179 -335.875,-118.334 -292.937,-171.238Z" style="fill:#fff;"/><path d="M628.054,597.411c-7.573,9.33 -10.99,23.054 -8.814,40.003c3.742,29.136 24.756,70.593 56.452,108.446c69.064,82.481 185.927,145.204 270.997,44.017c44.758,-53.237 58.03,-103.208 51.301,-146.773c-6.34,-41.048 -30.662,-76.994 -65.822,-105.283c-50.24,-40.421 -122.786,-65.152 -192.222,-67.224c-18.736,-0.559 -51.924,5.607 -68.367,17.371c-0.632,0.452 -6.946,4.58 -7.049,15.001c-0.081,8.232 -0.476,50.085 -36.476,94.442Zm69.57,-86.042c12.364,-5.517 30.429,-7.779 41.328,-7.454c62.203,1.857 127.314,23.666 172.32,59.877c28.339,22.8 48.665,51.317 53.775,84.4c5.54,35.863 -7.028,76.411 -43.872,120.235c-69.494,82.658 -163.508,23.412 -219.926,-43.967c-23.313,-27.841 -40.522,-57.612 -46.914,-81.334c-1.763,-6.542 -2.686,-12.497 -2.376,-17.647c0.169,-2.807 0.538,-5.29 1.977,-7.062c36.632,-45.136 42.646,-88.267 43.688,-107.048Z" style="fill:#7d4021;"/><path d="M362.989,479.271c-14.38,68.878 13.288,112.35 12.943,113.023c-7.833,15.276 -30.811,32.467 -45.17,39.335c-141.438,67.647 -353.376,35.757 -306.611,-170.343c44.283,-195.16 352.763,-48.713 338.838,17.985Z" style="fill:#fff;"/><path d="M379.304,482.677c2.456,-11.763 -0.794,-25.527 -10.495,-39.595c-16.675,-24.183 -54.349,-51.404 -99.866,-70.527c-99.18,-41.669 -231.793,-43.875 -261.045,85.043c-15.391,67.828 -4.292,118.326 21.651,153.966c24.443,33.58 62.532,54.388 106.746,63.422c63.176,12.91 138.99,1.651 201.658,-28.322c16.911,-8.087 43.584,-28.775 52.81,-46.765c0.354,-0.691 4.075,-7.253 -0.609,-16.563c-3.7,-7.355 -22.525,-44.737 -10.85,-100.659Zm-22.414,108.356c-8.461,10.568 -23.482,20.856 -33.319,25.56c-56.14,26.851 -124.007,37.3 -180.603,25.735c-35.635,-7.282 -66.768,-23.315 -86.469,-50.381c-21.356,-29.338 -28.763,-71.138 -16.094,-126.973c23.896,-105.312 134.607,-95.727 215.627,-61.688c33.478,14.066 62.415,32.642 78.966,50.799c4.564,5.007 8.113,9.877 10.198,14.597c1.136,2.572 1.945,4.948 1.478,7.183c-11.88,56.904 2.537,97.997 10.216,115.168Z" style="fill:#7d4021;"/><path d="M384.607,602.202c44.28,54.683 95.455,60.725 95.758,61.418c6.885,15.726 5.681,44.398 1.925,59.865c-36.992,152.357 -195.676,296.419 -325.811,129.899c-123.228,-157.682 185.249,-304.134 228.128,-251.182Z" style="fill:#fff;"/><path d="M397.559,591.714c-7.562,-9.339 -20.281,-15.521 -37.315,-16.898c-29.279,-2.366 -74.186,9.619 -117.777,32.799c-94.983,50.51 -180.522,151.871 -99.121,256.031c42.828,54.803 88.973,78.124 132.988,80.552c41.471,2.287 81.671,-14.073 116.621,-42.621c49.939,-40.792 89.141,-106.654 105.531,-174.16c4.423,-18.215 5.255,-51.961 -2.853,-70.481c-0.312,-0.712 -3.045,-7.743 -13.219,-9.999c-8.038,-1.783 -48.904,-10.826 -84.855,-55.223Zm69.791,85.863c2.84,13.237 1.317,31.38 -1.256,41.976c-14.683,60.474 -49.488,119.665 -94.226,156.208c-28.169,23.01 -60.273,36.998 -93.698,35.154c-36.233,-1.998 -73.304,-22.682 -108.559,-67.794c-66.497,-85.088 10.915,-164.814 88.507,-206.075c32.061,-17.049 64.747,-27.729 89.279,-29.076c6.765,-0.371 12.782,-0.042 17.757,1.326c2.711,0.746 5.064,1.621 6.5,3.395c36.582,45.177 77.537,59.982 95.696,64.886Z" style="fill:#7d4021;"/><path d="M450.182,356.646c-57.582,40.437 -67.109,91.079 -67.821,91.334c-16.16,5.793 -44.682,2.632 -59.857,-2.173c-149.471,-47.323 -282.345,-215.486 -107.316,-333.931c165.738,-112.157 290.755,205.612 234.994,244.77Z" style="fill:#fff;"/><path d="M459.761,370.285c9.834,-6.906 16.871,-19.173 19.409,-36.072c4.363,-29.049 -4.523,-74.671 -24.669,-119.744c-43.896,-98.215 -139.171,-190.484 -248.654,-116.396c-57.602,38.981 -84.025,83.423 -89.456,127.169c-5.118,41.218 8.455,82.442 34.547,119.262c37.281,52.612 100.309,96.225 166.536,117.193c17.87,5.658 51.48,8.795 70.511,1.972c0.732,-0.262 7.933,-2.507 10.88,-12.504c2.328,-7.897 14.145,-48.049 60.896,-80.88Zm-90.435,63.757c-13.4,1.928 -31.396,-0.833 -41.791,-4.124c-59.329,-18.784 -116.002,-57.555 -149.4,-104.686c-21.03,-29.677 -32.79,-62.662 -28.665,-95.883c4.471,-36.011 27.641,-71.582 75.059,-103.669c89.435,-60.523 163.681,22.159 199.54,102.39c14.818,33.152 23.237,66.492 22.903,91.058c-0.092,6.775 -0.831,12.756 -2.537,17.625c-0.929,2.654 -1.963,4.941 -3.831,6.253c-47.572,33.408 -65.143,73.254 -71.278,91.036Z" style="fill:#7d4021;"/><path d="M603.781,366.369c-63.816,-29.637 -112.434,-12.557 -113.011,-13.046c-13.099,-11.096 -24.627,-37.376 -28.057,-52.919c-33.78,-153.101 45.379,-352.27 235.486,-259.948c180.017,87.421 -32.621,354.613 -94.418,325.913Z" style="fill:#fff;"/><path d="M596.761,381.485c10.899,5.062 25.041,5.02 40.944,-1.234c27.337,-10.752 62.397,-41.265 91.352,-81.253c63.092,-87.135 95.338,-215.786 -23.577,-273.535c-62.565,-30.383 -114.264,-31.034 -154.862,-13.858c-38.251,16.184 -67.16,48.557 -85.994,89.566c-26.911,58.598 -33.153,134.989 -18.186,202.824c4.039,18.305 18.133,48.978 33.559,62.045c0.593,0.502 6.14,5.615 16.27,3.167c8.002,-1.934 48.682,-11.784 100.494,12.278Zm-100.441,-46.421c-8.372,-10.639 -14.982,-27.603 -17.331,-38.251c-13.409,-60.77 -8.182,-129.236 15.927,-181.731c15.179,-33.053 37.86,-59.734 68.691,-72.778c33.419,-14.14 75.809,-11.867 127.312,13.144c97.14,47.174 62.678,152.82 11.139,224.001c-21.297,29.412 -45.955,53.378 -67.395,65.376c-5.912,3.308 -11.461,5.659 -16.531,6.618c-2.763,0.523 -5.26,0.772 -7.331,-0.19l0,0c-52.722,-24.485 -96.015,-19.771 -114.481,-16.189Z" style="fill:#7d4021;"/><path d="M677.411,480.61c-14.599,-68.831 -57.442,-97.465 -57.397,-98.22c1.012,-17.137 15.112,-42.132 25.485,-54.204c102.179,-118.914 308.993,-175.148 349.26,32.32c38.129,196.455 -303.21,186.757 -317.348,120.104Z" style="fill:#fff;"/><path d="M661.107,484.068c2.494,11.756 11.015,23.042 25.564,32.008c25.007,15.411 70.456,25.139 119.82,24.295c107.562,-1.838 229.816,-53.267 204.629,-183.041c-13.252,-68.278 -43.762,-110.019 -81.868,-132.181c-35.904,-20.88 -79.149,-24.571 -123.254,-15.02c-63.021,13.648 -127.867,54.507 -173.14,107.195c-12.216,14.217 -28.29,43.901 -29.482,64.083c-0.046,0.776 -0.806,8.281 7.232,14.914c6.351,5.239 38.646,31.863 50.499,87.747Zm-23.158,-108.199c3.484,-13.082 13.085,-28.551 20.191,-36.821c40.557,-47.2 98.456,-84.115 154.913,-96.341c35.548,-7.698 70.503,-5.572 99.441,11.257c31.368,18.243 54.995,53.512 65.903,109.717c20.576,106.012 -84.608,141.86 -172.476,143.362c-36.307,0.62 -70.277,-4.718 -92.742,-14.664c-6.195,-2.743 -11.406,-5.77 -15.216,-9.249c-2.076,-1.896 -3.774,-3.745 -4.248,-5.978c-12.061,-56.866 -41.818,-88.663 -55.766,-101.283Z" style="fill:#7d4021;"/><path d="M671.508,580.459c9.93,1.21 24.562,9.847 40.148,20.029c26.636,17.399 54.888,40.446 67.898,51.527c7.003,5.964 17.531,5.122 23.495,-1.881c5.965,-7.003 5.122,-17.53 -1.88,-23.495c-15.994,-13.623 -53.891,-44.351 -85.394,-62.831c-15.548,-9.121 -29.941,-15.183 -40.236,-16.437c-9.131,-1.113 -17.448,5.398 -18.56,14.529c-1.112,9.131 5.398,17.447 14.529,18.559Z" style="fill:#7d4021;"/><path d="M348.447,517.655c-9.38,3.474 -26.344,2.502 -44.863,0.593c-31.648,-3.261 -67.319,-10.801 -83.96,-14.69c-8.958,-2.093 -17.929,3.48 -20.022,12.437c-2.094,8.958 3.479,17.929 12.437,20.022c20.458,4.781 68.222,14.73 104.691,16.721c17.999,0.983 33.569,-0.223 43.295,-3.825c8.626,-3.195 13.035,-12.792 9.84,-21.418c-3.195,-8.626 -12.792,-13.035 -21.418,-9.84Z" style="fill:#7d4021;"/><path d="M405.156,637.735c-3.237,9.464 -14.715,21.994 -27.9,35.137c-22.532,22.461 -50.924,45.335 -64.457,55.771c-7.284,5.617 -8.637,16.092 -3.02,23.376c5.617,7.284 16.092,8.637 23.376,3.02c16.637,-12.83 54.539,-43.551 79.136,-70.551c12.139,-13.325 21.048,-26.152 24.404,-35.965c2.977,-8.704 -1.672,-18.187 -10.375,-21.164c-8.704,-2.977 -18.187,1.672 -21.164,10.376Z" style="fill:#7d4021;"/><path d="M413.328,374.717c-9.221,-3.877 -20.936,-16.184 -33.147,-30.237c-20.868,-24.015 -41.747,-53.905 -51.233,-68.12c-5.106,-7.651 -15.464,-9.717 -23.115,-4.611c-7.651,5.106 -9.717,15.464 -4.611,23.115c11.662,17.475 39.72,57.389 64.974,83.774c12.464,13.023 24.652,22.787 34.213,26.807c8.48,3.565 18.258,-0.425 21.824,-8.904c3.565,-8.48 -0.425,-18.259 -8.905,-21.824Z" style="fill:#7d4021;"/><path d="M569.699,343.495c-1.255,-9.924 3.543,-26.224 9.605,-43.827c10.358,-30.082 25.798,-63.111 33.362,-78.435c4.071,-8.249 0.68,-18.251 -7.568,-22.323c-8.249,-4.071 -18.251,-0.68 -22.322,7.569c-9.299,18.839 -29.829,63.099 -40.046,98.164c-5.042,17.306 -7.402,32.744 -6.101,43.034c1.154,9.125 9.5,15.598 18.626,14.444c9.126,-1.154 15.598,-9.5 14.444,-18.626Z" style="fill:#7d4021;"/><path d="M675.25,439.621c7.184,-6.961 23.101,-12.907 40.819,-18.625c30.277,-9.77 65.963,-17.247 82.759,-20.395c9.042,-1.694 15.006,-10.41 13.312,-19.451c-1.695,-9.041 -10.411,-15.006 -19.452,-13.312c-20.649,3.871 -68.372,14.016 -102.551,26.892c-16.868,6.355 -30.632,13.734 -38.081,20.95c-6.607,6.401 -6.774,16.961 -0.373,23.568c6.4,6.606 16.961,6.773 23.567,0.373Z" style="fill:#7d4021;"/><path d="M634.437,616.669c89.354,-92.191 40.035,-174.401 9.763,-212.598c-86.006,-108.525 -239.809,-57.077 -279.672,57.463c-55.618,159.809 141.964,287.142 269.909,155.135Z" style="fill:#ffce7b;"/><path d="M646.405,628.269c39.391,-40.642 53.827,-79.768 55.437,-114.489c2.41,-51.996 -24.595,-94.844 -44.579,-120.061c-94.801,-119.622 -264.536,-63.915 -308.475,62.336c-36.893,106.007 27.05,199.056 114.61,225.037c58.063,17.228 126.727,5.243 183.007,-52.823l-0,-0Zm-23.936,-23.199c-46.077,47.539 -102.052,58.17 -149.589,44.065c-70.841,-21.019 -122.459,-96.359 -92.611,-182.123c35.787,-102.829 173.657,-150.018 250.869,-52.589c16.342,20.62 39.377,55.296 37.406,97.814c-1.311,28.289 -13.982,59.72 -46.075,92.832l-0,0.001Z" style="fill:#7d4021;"/></g></svg>