<?xml version="1.0" encoding="UTF-8" standalone="no"?><!DOCTYPE svg PUBLIC "-//W3C//DTD SVG 1.1//EN" "http://www.w3.org/Graphics/SVG/1.1/DTD/svg11.dtd"><svg width="100%" height="100%" viewBox="0 0 1619 1594" version="1.1" xmlns="http://www.w3.org/2000/svg" xmlns:xlink="http://www.w3.org/1999/xlink" xml:space="preserve" xmlns:serif="http://www.serif.com/" style="fill-rule:evenodd;clip-rule:evenodd;stroke-linejoin:round;stroke-miterlimit:2;"><g id="Flower-Smile-02"><path d="M867.688,472.099c26.493,-121.544 130.657,-321.889 232.079,-389.531c87.33,-58.245 191.372,-64.56 208.196,58.889c15.029,110.28 -112.87,234.998 -181.126,317.175c-24.427,29.41 -49.771,57.921 -75.444,86.24c-3.374,3.722 -22.829,19.71 -22.144,25.421c0.815,6.795 11.937,-6.717 17.669,-10.457c12.279,-8.011 24.808,-15.653 37.358,-23.231c35.99,-21.735 72.609,-42.826 110.094,-61.883c84.942,-43.182 188.945,-72.195 284.693,-60.262c42.662,5.316 97.917,24.645 116.633,67.527c27.668,63.39 -42.353,119.077 -90.677,143.968c-118.881,61.232 -257.648,69.319 -388.215,86.111l-249.116,-239.967Z" style="fill:#fff;"/><path d="M1113.77,499.767c8.725,-10.067 17.36,-20.222 25.885,-30.486c41.417,-49.864 104.436,-115.304 145.031,-183.697c28.843,-48.594 46.268,-98.833 39.788,-146.377c-7.741,-56.807 -32.77,-88.966 -64.968,-103.733c-46.319,-21.244 -111.178,-5.329 -168.99,33.228c-104.209,69.502 -211.894,274.962 -239.116,399.848c-1.232,5.652 0.556,11.539 4.722,15.553l249.117,239.966c3.64,3.507 8.675,5.172 13.688,4.527c132.454,-17.035 273.121,-25.707 393.721,-87.825c31.401,-16.173 70.983,-44.676 91.375,-79.463c15.22,-25.963 20.364,-55.245 6.945,-85.989c-20.993,-48.098 -81.995,-71.435 -129.847,-77.398c-98.958,-12.332 -206.518,17.315 -294.307,61.944c-24.698,12.556 -49.025,25.985 -73.044,39.902Zm-227.729,-33.127c28.725,-118.878 126.803,-306.068 222.97,-370.206c46.994,-31.343 98.948,-47.93 136.599,-30.661c23.784,10.908 40.117,35.972 45.836,77.935c5.544,40.68 -10.745,83.283 -35.424,124.862c-39.687,66.863 -101.519,130.664 -142.009,179.413c-24.273,29.225 -49.46,57.555 -74.97,85.694c-2.929,3.231 -16.825,15.175 -21.966,22.918c-4.02,6.056 -4.844,11.806 -4.379,15.682c0.811,6.763 4.054,10.507 7.102,12.85c3.204,2.463 7.019,3.837 11.528,3.706c2.895,-0.083 6.826,-0.975 10.991,-3.613c4.019,-2.546 9.988,-9.002 13.703,-11.425c12.117,-7.906 24.483,-15.445 36.867,-22.923c35.644,-21.526 71.907,-42.42 109.031,-61.293c82.095,-41.735 182.54,-70.113 275.079,-58.581c19.596,2.442 42.102,8.04 61.84,18.014c17.96,9.074 33.757,21.72 41.579,39.642c11.127,25.492 1.606,49.232 -14.55,69.304c-18.605,23.116 -46.104,41.653 -68.484,53.18c-114.756,59.108 -248.413,67.517 -374.768,83.388c0.001,-0 -236.575,-227.886 -236.575,-227.886l0,-0Z" style="fill:#7e4121;"/><path d="M1027.85,688.587c120.94,-29.129 346.654,-22.695 451.737,39.106c90.483,53.215 141.512,144.103 37.737,213.049c-92.705,61.59 -260.697,0.833 -364.407,-24.783c-37.116,-9.167 -73.823,-19.551 -110.499,-30.315c-4.82,-1.415 -27.69,-11.956 -32.531,-8.851c-5.76,3.695 11.248,7.816 17.112,11.345c12.562,7.56 24.9,15.506 37.191,23.498c35.248,22.92 70.19,46.685 103.679,72.117c75.885,57.63 147.325,138.59 178.317,229.967c13.808,40.714 20.494,98.869 -9.944,134.404c-44.994,52.53 -125.632,13.779 -169.095,-18.866c-106.924,-80.309 -174.681,-201.678 -246.699,-311.873l107.402,-328.798Z" style="fill:#fff;"/><path d="M1110.2,922.129c12.863,3.465 25.767,6.811 38.72,10.011c62.929,15.543 149.293,43.741 228.542,50.47c56.306,4.781 109.117,-1.433 149.084,-27.986c47.753,-31.726 65.788,-68.269 65.047,-103.683c-1.068,-50.948 -43.659,-102.386 -103.558,-137.614c-107.972,-63.5 -339.824,-70.873 -464.089,-40.943c-5.624,1.355 -10.144,5.529 -11.94,11.028l-107.402,328.798c-1.57,4.804 -0.874,10.062 1.891,14.293c73.06,111.787 142.173,234.612 250.642,316.082c28.242,21.212 71.147,44.415 111.343,47.607c30.001,2.383 58.597,-5.75 80.419,-31.226c34.14,-39.858 28.558,-104.932 13.069,-150.599c-32.03,-94.44 -105.591,-178.326 -184.02,-237.887c-22.065,-16.757 -44.754,-32.799 -67.748,-48.351Zm-69.437,-219.4c119.513,-25.958 330.735,-19.269 430.374,39.331c48.69,28.635 86.262,68.165 87.13,109.579c0.548,26.161 -14.892,51.785 -50.167,75.221c-34.197,22.719 -79.64,26.627 -127.818,22.536c-77.476,-6.578 -161.847,-34.421 -223.369,-49.617c-36.882,-9.11 -73.357,-19.431 -109.802,-30.127c-4.185,-1.228 -20.99,-8.529 -30.2,-9.781c-7.202,-0.98 -12.737,0.785 -16.023,2.893c-5.733,3.678 -7.69,8.228 -8.47,11.992c-0.821,3.958 -0.394,7.99 1.689,11.992c1.337,2.568 3.853,5.718 8.042,8.317c4.043,2.508 12.455,5.066 16.255,7.353c12.397,7.46 24.571,15.304 36.699,23.191c34.909,22.699 69.519,46.23 102.685,71.417c73.342,55.698 142.661,133.733 172.613,222.047c6.343,18.701 11.114,41.397 10.74,63.509c-0.34,20.119 -4.837,39.849 -17.558,54.699c-18.094,21.125 -43.61,22.903 -68.717,17.11c-28.914,-6.67 -57.582,-23.341 -77.711,-38.459c-103.214,-77.523 -169.034,-194.153 -238.388,-300.958c0,0 101.996,-312.245 101.996,-312.245l0,0Z" style="fill:#7e4121;"/><path d="M958.592,1003.21c58.262,109.912 108.107,330.147 74.35,447.289c-29.066,100.868 -104.427,172.877 -196.993,89.484c-82.691,-74.496 -65.575,-252.316 -66.528,-359.138c-0.341,-38.23 0.598,-76.366 1.912,-114.566c0.173,-5.021 4.702,-29.792 0.492,-33.71c-5.011,-4.662 -4.777,12.837 -6.738,19.393c-4.202,14.047 -8.834,27.972 -13.522,41.863c-13.444,39.837 -27.783,79.588 -44.098,118.345c-36.97,87.824 -97.643,177.138 -178.455,229.859c-36.007,23.491 -90.678,44.415 -132.66,23.76c-62.062,-30.533 -44.56,-118.27 -23.737,-168.48c51.227,-123.524 151.958,-219.309 240.806,-316.447l345.171,22.348Z" style="fill:#fff;"/><path d="M752.832,1141c-0.161,13.32 -0.196,26.651 -0.077,39.992c0.578,64.819 -5.279,155.48 7.891,233.916c9.358,55.729 28.497,105.34 64.147,137.457c42.595,38.374 82.473,46.765 116.593,37.248c49.085,-13.691 88.329,-67.727 107.571,-134.5c34.685,-120.363 -15.775,-346.777 -75.639,-459.71c-2.71,-5.111 -7.876,-8.452 -13.649,-8.826l-345.172,-22.348c-5.044,-0.327 -9.963,1.653 -13.375,5.383c-90.131,98.542 -191.935,196.003 -243.902,321.311c-13.531,32.627 -25.346,79.951 -18.452,119.68c5.145,29.652 20.127,55.332 50.226,70.14c47.09,23.167 108.737,1.593 149.124,-24.756c83.521,-54.488 146.501,-146.584 184.71,-237.351c10.75,-25.537 20.652,-51.5 30.004,-77.636Zm195.27,-121.768c54.836,109.316 100.833,315.578 68.825,426.651c-15.641,54.278 -44.597,100.493 -84.497,111.622c-25.204,7.03 -53.861,-1.559 -85.325,-29.905c-30.504,-27.481 -45.579,-70.529 -53.586,-118.212c-12.876,-76.681 -6.867,-165.325 -7.432,-228.693c-0.339,-37.989 0.597,-75.885 1.903,-113.844c0.15,-4.359 3.047,-22.451 1.972,-31.683c-0.841,-7.22 -3.925,-12.142 -6.784,-14.802c-4.986,-4.64 -9.88,-5.404 -13.72,-5.225c-4.038,0.188 -7.837,1.603 -11.196,4.615c-2.156,1.933 -4.582,5.153 -6.058,9.856c-1.425,4.54 -1.814,13.323 -3.085,17.573c-4.146,13.861 -8.72,27.602 -13.346,41.31c-13.314,39.453 -27.509,78.824 -43.667,117.208c-35.731,84.88 -94.097,171.413 -172.201,222.367c-16.539,10.79 -37.338,21.05 -58.849,26.181c-19.573,4.669 -39.801,5.215 -57.347,-3.417c-24.957,-12.279 -33.019,-36.553 -33.645,-62.312c-0.722,-29.665 8.303,-61.576 17.947,-84.83c49.449,-119.237 146.07,-211.97 232.296,-305.684c-0,0 327.795,21.223 327.795,21.223l0,0.001Z" style="fill:#7e4121;"/><path d="M606.951,1037.7c-91.991,83.742 -292.938,186.739 -414.794,183.144c-104.926,-3.096 -193.4,-58.204 -135.619,-168.586c51.616,-98.606 228.113,-126.205 331.35,-153.667c36.946,-9.828 74.12,-18.393 111.449,-26.61c4.906,-1.08 30.026,-2.847 32.775,-7.899c3.271,-6.012 -13.621,-1.438 -20.46,-1.709c-14.65,-0.58 -29.289,-1.607 -43.909,-2.697c-41.928,-3.126 -83.995,-7.139 -125.591,-13.314c-94.255,-13.991 -195.842,-50.573 -266.987,-115.753c-31.7,-29.042 -65.551,-76.8 -55.974,-122.598c14.158,-67.701 103.492,-72.546 157.302,-64.85c132.377,18.933 250.185,92.708 366.351,154.637l64.107,339.902Z" style="fill:#fff;"/><path d="M422.361,872.622c-12.943,3.153 -25.864,6.431 -38.758,9.861c-62.642,16.663 -151.916,33.514 -224.621,65.758c-51.656,22.91 -94.957,53.774 -117.21,96.286c-26.589,50.793 -24.81,91.505 -7.114,122.191c25.456,44.144 87.547,68.734 157.008,70.783c125.206,3.694 331.985,-101.434 426.504,-187.478c4.278,-3.895 6.231,-9.729 5.159,-15.414l-64.107,-339.902c-0.937,-4.967 -4.077,-9.24 -8.538,-11.618c-117.844,-62.824 -237.541,-137.222 -371.832,-156.429c-34.966,-5 -83.741,-4.688 -120.512,11.86c-27.444,12.351 -48.596,33.243 -55.463,66.077c-10.741,51.369 25.473,105.724 61.029,138.299c73.53,67.365 178.385,105.49 275.799,119.95c27.407,4.069 55.016,7.21 82.656,9.776Zm166.463,158.895c-92.265,80.276 -280.632,176.074 -396.175,172.665c-56.462,-1.666 -108.422,-18.232 -129.115,-54.116c-13.072,-22.667 -11.871,-52.56 7.77,-90.08c19.04,-36.375 56.993,-61.672 101.192,-81.274c71.078,-31.523 158.435,-47.725 219.676,-64.016c36.714,-9.766 73.654,-18.275 110.748,-26.44c4.259,-0.938 22.504,-2.627 31.179,-5.962c6.785,-2.608 10.787,-6.818 12.653,-10.248c3.255,-5.983 2.78,-10.913 1.652,-14.588c-1.185,-3.864 -3.5,-7.193 -7.251,-9.699c-2.408,-1.608 -6.13,-3.157 -11.053,-3.419c-4.751,-0.253 -13.356,1.553 -17.788,1.378c-14.457,-0.573 -28.903,-1.589 -43.33,-2.664c-41.524,-3.096 -83.187,-7.065 -124.382,-13.18c-91.096,-13.522 -189.416,-48.561 -258.177,-111.556c-14.561,-13.34 -29.666,-30.938 -39.981,-50.5c-9.385,-17.799 -14.939,-37.258 -10.937,-56.398c5.693,-27.225 27.204,-41.065 51.999,-48.071c28.556,-8.069 61.709,-7.255 86.629,-3.691c127.784,18.276 241.614,88.828 353.812,149.069c8.554,45.356 51.636,273.777 60.88,322.79l-0.001,0Z" style="fill:#7e4121;"/><path d="M529.697,692.848c-103.971,-68.302 -253.662,-237.36 -280.454,-356.288c-23.069,-102.406 8.331,-201.797 129.607,-173.251c108.338,25.5 178.921,189.607 231.17,282.784c18.699,33.346 36.231,67.226 53.464,101.344c2.265,4.484 10.218,28.377 15.794,29.785c6.636,1.675 -1.991,-13.552 -3.428,-20.243c-3.077,-14.335 -5.72,-28.771 -8.296,-43.203c-7.389,-41.39 -13.952,-83.135 -18.306,-124.96c-9.864,-94.776 0.333,-202.267 45.794,-287.375c20.256,-37.922 58.107,-82.576 104.848,-84.677c69.096,-3.106 95.983,82.224 101.897,136.258c14.549,132.931 -27.645,265.374 -58.772,393.283l-313.318,146.543Z" style="fill:#fff;"/><path d="M643.738,473.034c-6.271,-11.754 -12.656,-23.455 -19.181,-35.093c-31.704,-56.538 -70.206,-138.827 -119.502,-201.241c-35.025,-44.346 -75.679,-78.621 -122.387,-89.615c-55.806,-13.135 -94.8,-1.298 -120.127,23.467c-36.436,35.625 -44.829,101.879 -29.557,169.671c27.528,122.198 180.733,296.375 287.562,366.555c4.835,3.176 10.971,3.618 16.212,1.167l313.318,-146.543c4.578,-2.141 7.938,-6.245 9.133,-11.156c31.577,-129.758 73.905,-264.186 59.145,-399.037c-3.843,-35.112 -16.263,-82.281 -41.427,-113.787c-18.782,-23.516 -44.274,-38.814 -77.785,-37.308c-52.427,2.357 -96.081,50.94 -118.801,93.474c-46.985,87.961 -57.864,199 -47.67,296.953c2.869,27.558 6.684,55.082 11.067,82.493Zm-112.558,200.72c-100.681,-69.429 -240.274,-228.09 -265.677,-340.857c-12.414,-55.106 -9.276,-109.553 20.342,-138.512c18.709,-18.293 47.962,-24.556 89.186,-14.853c39.965,9.407 73.897,39.885 103.866,77.828c48.193,61.018 85.591,141.611 116.585,196.884c18.582,33.137 36.001,66.805 53.126,100.707c1.966,3.893 8.135,21.146 13.521,28.721c4.212,5.924 9.284,8.754 13.07,9.71c6.604,1.667 11.261,-0.018 14.542,-2.024c3.448,-2.108 6.097,-5.177 7.592,-9.434c0.959,-2.732 1.536,-6.722 0.566,-11.555c-0.935,-4.665 -4.822,-12.552 -5.753,-16.888c-3.037,-14.146 -5.642,-28.392 -8.185,-42.634c-7.318,-40.991 -13.824,-82.334 -18.135,-123.757c-9.534,-91.599 -0.02,-195.541 43.917,-277.797c9.304,-17.418 22.597,-36.422 38.984,-51.274c14.909,-13.513 32.377,-23.727 51.912,-24.605c27.786,-1.249 46.536,16.148 59.483,38.426c14.91,25.655 22.358,57.971 25.097,82.995c14.044,128.319 -26.017,256.108 -56.494,379.755c0,-0.001 -297.545,139.164 -297.545,139.164l0,0Z" style="fill:#7e4121;"/><path d="M789.778,446.541c179.087,-2.656 326.639,140.584 329.294,319.67c2.656,179.087 -140.583,326.639 -319.67,329.295c-179.086,2.656 -326.638,-140.584 -329.294,-319.67c-2.656,-179.087 140.583,-326.639 319.67,-329.295Z" style="fill:#ffce7b;"/><path d="M789.531,429.876c-188.284,2.793 -338.88,157.922 -336.088,346.207c2.792,188.284 157.922,338.88 346.206,336.088c188.285,-2.793 338.881,-157.923 336.088,-346.207c-2.792,-188.284 -157.922,-338.88 -346.206,-336.088l-0,0Zm0.494,33.33c169.889,-2.519 309.863,133.363 312.383,303.253c2.519,169.889 -133.364,309.862 -303.253,312.382c-169.889,2.519 -309.863,-133.364 -312.382,-303.253c-2.52,-169.889 133.363,-309.863 303.252,-312.382l0,-0Z" style="fill:#7e4021;"/><path d="M599.326,747.481c0.103,0.145 0.208,0.288 0.317,0.43l0.047,0.062c0.273,0.406 0.524,0.759 0.689,0.956c0.07,0.083 0.139,0.165 0.209,0.247c2.53,3.459 4.019,6.107 4.848,7.906c-0.069,0.277 -0.138,0.555 -0.205,0.833c-26.929,110.366 34.86,219.733 136.901,244.63c102.041,24.897 207.257,-43.722 234.185,-154.088c3.208,-13.147 5.155,-26.286 5.926,-39.271c1.512,-1.009 3.528,-2.198 6.148,-3.498c0.1,-0.04 0.2,-0.081 0.299,-0.123c0.238,-0.098 0.623,-0.296 1.052,-0.531l0.071,-0.034c0.162,-0.076 0.321,-0.154 0.479,-0.235c2.636,-1.216 4.986,-3.138 6.742,-5.705c3.476,-5.083 3.024,-9.048 2.893,-10.753c-0.346,-4.494 -2.2,-7.799 -4.655,-10.331c-2.829,-2.918 -7.443,-6.073 -14.764,-4.834c-0.201,0.034 -0.754,0.238 -1.465,0.522c-1.168,0.264 -2.325,0.658 -3.452,1.19c-0.27,0.127 -0.537,0.254 -0.802,0.382c-0.337,0.137 -0.674,0.273 -1.01,0.412c-1.189,0.493 -2.396,0.847 -3.662,1.08c-0.665,0.123 -1.226,-0.063 -1.743,-0.393c-0.242,-0.199 -0.488,-0.39 -0.737,-0.572c-0.414,-0.367 -0.817,-0.78 -1.244,-1.137c-7.063,-5.894 -17.581,-4.945 -23.475,2.117c-5.894,7.062 -4.946,17.581 2.117,23.475c0.35,0.292 0.702,0.579 1.056,0.861c0.121,0.118 0.242,0.235 0.366,0.35c1.546,1.437 2.262,2.812 2.615,3.848c-0.568,11.653 -2.255,23.462 -5.138,35.279c-22.404,91.821 -109.005,150.32 -193.901,129.606c-84.895,-20.714 -134.823,-112.525 -112.419,-204.346l0.076,-0.309c0.584,-0.298 1.272,-0.574 2.081,-0.798c0.163,-0.045 0.325,-0.093 0.487,-0.143c0.444,-0.086 0.889,-0.179 1.334,-0.277c8.983,-1.979 14.67,-10.879 12.691,-19.862c-1.979,-8.983 -10.879,-14.67 -19.862,-12.691c-0.544,0.12 -1.092,0.301 -1.628,0.436c-0.306,0.047 -0.612,0.103 -0.918,0.168c-0.611,0.055 -1.195,-0.038 -1.729,-0.453c-1.016,-0.79 -1.924,-1.661 -2.752,-2.645c-0.234,-0.279 -0.471,-0.555 -0.707,-0.831c-0.176,-0.236 -0.355,-0.472 -0.536,-0.709c-0.923,-1.212 -1.981,-2.261 -3.136,-3.144c-0.527,-0.578 -0.939,-1.004 -1.108,-1.119c-4.689,-3.188 -9.083,-3.225 -12.405,-2.613c-4.856,0.895 -9.842,3.428 -12.533,10.39c-0.508,1.314 -1.511,3.892 -0.999,8.096c0.376,3.088 1.576,5.876 3.356,8.169Zm364.938,-123.698c-8.25,2.202 -14.833,7.574 -19.284,14.982c-5.113,8.511 -7.161,19.969 -5.8,29.938c2.103,15.401 11.92,26.365 24.979,27.924c27.356,3.266 39.007,-24.109 33.686,-47.307c-4.332,-18.887 -19.134,-29.392 -33.581,-25.537Zm-317.781,-41.178c-8.434,1.332 -15.54,5.991 -20.736,12.896c-5.971,7.934 -9.198,19.117 -8.88,29.173c0.49,15.537 9.115,27.461 21.941,30.369c26.868,6.092 41.302,-19.924 38.42,-43.55c-2.346,-19.235 -15.975,-31.221 -30.745,-28.888Z" style="fill:#7e4021;"/></g></svg>