<?xml version="1.0" encoding="UTF-8" standalone="no"?><!DOCTYPE svg PUBLIC "-//W3C//DTD SVG 1.1//EN" "http://www.w3.org/Graphics/SVG/1.1/DTD/svg11.dtd"><svg width="100%" height="100%" viewBox="0 0 1069 1089" version="1.1" xmlns="http://www.w3.org/2000/svg" xmlns:xlink="http://www.w3.org/1999/xlink" xml:space="preserve" xmlns:serif="http://www.serif.com/" style="fill-rule:evenodd;clip-rule:evenodd;stroke-linejoin:round;stroke-miterlimit:2;"><g id="Flower-05"><path d="M630.412,790.675c7.935,1.772 32.219,180.514 -126.215,266.499c-61.745,33.51 -176.083,9.706 -212.027,-76.99c-48.559,-117.119 45.51,-245.619 44.088,-244.599c-22.468,16.113 -62.048,101.619 -147.129,105.888c-123.231,6.184 -185.001,-103.562 -169.36,-188.527c28.546,-155.071 244.583,-177.984 237.006,-181.13c-79.425,-32.98 -277.537,-229.062 -78.333,-338.62c57.564,-31.659 130.029,-11.896 176.938,44.852c43.888,53.095 64.076,142.467 66.263,142.412c4.634,-0.117 -2.652,-96.061 33.216,-177.957c31.243,-71.336 100.677,-130.518 169.714,-125.508c141.075,10.239 161.264,97.081 134.225,179.412c-19.324,58.837 -43.974,118.675 -67.767,142.501c-7.988,7.999 178.24,-168.775 308.376,-67.024c88.746,69.389 55.223,211.771 -31.743,256.734c-55.958,28.93 -118.158,30.148 -147.048,32.116c-8.835,0.601 65.899,34.624 71.578,37.389c171.226,83.398 167.493,351.107 -74.326,323.556c-79.24,-9.028 -134.3,-71.178 -187.456,-131.004Z" style="fill:#ffce7b;"/><path d="M411.821,243.667c-10.835,-25.829 -25.265,-54.063 -43.595,-76.238c-52.362,-63.346 -133.559,-84.177 -197.816,-48.837c-55.132,30.322 -82.07,67.244 -91.147,105.221c-9.105,38.094 -0.132,77.953 19.054,115.064c27.211,52.632 74.995,99.506 114.946,127.186c-31.807,8.723 -77.613,24.265 -118.278,51.735c-43.154,29.151 -80.435,71.438 -91.607,132.131c-17.255,93.728 50.644,215.011 186.586,208.19c34.74,-1.743 62.761,-15.487 85.453,-33.146c-14.742,47.29 -21.823,105.688 1.357,161.595c19.968,48.162 61.488,79.114 106.816,93.113c45.345,14.004 94.242,10.765 128.557,-7.859c113.465,-61.579 138.983,-167.807 140.959,-231.494c46.038,48.44 96.725,90.374 162.875,97.911c106.291,12.11 169.926,-29.506 196.937,-87.494c40.086,-86.06 -1.729,-213.202 -113.426,-267.606c-1.862,-0.906 -11.19,-5.191 -22.541,-10.551c29.829,-4.035 65.138,-11.986 98.367,-29.165c47.985,-24.809 81.555,-76.268 90.558,-131.322c9.105,-55.679 -6.681,-114.626 -56.203,-153.347c-51.471,-40.244 -110.831,-41.457 -165.445,-26.133c-36.443,10.225 -70.627,27.896 -98.292,45.185c10.306,-23.567 20.074,-49.945 28.696,-76.198c15.095,-45.961 16.064,-93.145 -5.486,-130.303c-21.373,-36.852 -65.263,-65.264 -143.367,-70.933c-75.303,-5.465 -152.107,57.633 -186.187,135.445c-14.993,34.232 -23.243,74.292 -27.771,107.85Zm233.136,538.288c49.747,56.04 100.685,114.721 174.797,123.165c87.175,9.931 140.795,-20.891 162.948,-68.449c33.655,-72.253 -4.029,-177.888 -97.806,-223.564c-4.136,-2.014 -44.472,-20.436 -63.406,-30.811c-6.861,-3.76 -11.535,-7.169 -13.212,-8.921c-5.934,-6.201 -5.435,-12.467 -4.633,-16c1.122,-4.94 4.298,-12.484 15.838,-13.269c27.593,-1.88 87.082,-2.662 140.527,-30.294c38.981,-20.153 65.656,-62.366 72.97,-107.091c7.211,-44.101 -4.614,-91.038 -43.839,-121.707c-42.227,-33.017 -91.102,-32.871 -135.908,-20.299c-71.542,20.073 -133.481,71.561 -148.17,84.162c-2.6,2.23 -4.113,3.51 -4.36,3.692c-4.268,3.148 -7.673,3.144 -8.604,3.218c-7.297,0.578 -11.664,-2.78 -14.46,-6.367c-2.3,-2.949 -5.579,-8.371 -2.318,-16.473c0.125,-0.308 0.812,-2.707 3.917,-5.816c22.636,-22.668 45.341,-79.948 63.725,-135.924c11.946,-36.374 14.402,-73.772 -2.652,-103.179c-17.234,-29.716 -53.964,-49.839 -116.945,-54.41c-62.775,-4.556 -124.831,50.705 -153.241,115.572c-31.502,71.927 -28.462,155.037 -30.922,171.007c-2.246,14.582 -13.425,16.831 -17.142,16.924c-1.718,0.043 -12.748,-0.644 -17.338,-13.659c-5.062,-14.354 -24.178,-88.811 -62.189,-134.795c-41.458,-50.154 -105.185,-68.848 -156.06,-40.868c-44.473,24.459 -67.469,53.128 -74.791,83.762c-7.293,30.517 0.875,62.279 16.244,92.007c32.592,63.039 97.784,117.303 135.24,132.856c6.046,2.511 8.286,6.712 9.401,9.682c1.298,3.462 1.47,7.041 0.351,10.745c-0.691,2.284 -1.963,4.938 -4.616,7.428c-0.972,0.913 -4.582,3.631 -11.526,5.36c-17.19,4.279 -85.758,17.023 -143.133,55.78c-36.233,24.477 -68.103,59.585 -77.484,110.544c-14.028,76.202 41.613,174.41 152.133,168.864c45.759,-2.296 76.424,-31.518 98.314,-57.079c17.42,-20.342 30.322,-38.811 39.938,-45.707c8.417,-6.036 15.244,-2.517 18.043,-0.906c3.562,2.051 11.155,7.489 7.655,19.222c-0.09,0.303 -1.241,3.192 -4.221,7.765c-12.894,19.79 -81.393,126.944 -40.457,225.679c15.976,38.533 49.597,62.831 85.861,74.031c36.248,11.194 75.391,9.581 102.821,-5.307c132.497,-71.908 128.441,-213.149 120.735,-241.975l-0.004,-0.014c-3.917,-5.327 -4.333,-12.533 -0.929,-18.315c3.668,-6.232 10.937,-9.388 17.994,-7.812c2.972,0.663 7.4,2.37 10.914,7.546Z" style="fill:#7e4021;"/><path d="M600.241,420.742c-116.687,-56.832 -191.035,20.627 -206.915,89.262c-19.737,85.303 43.3,180.219 138.711,172.691c180.217,-14.219 183.695,-205.704 68.204,-261.953Z" style="fill:#fee4a8;"/><path d="M607.539,405.758c-51.659,-25.161 -95.885,-25.933 -131.406,-13.668c-53.897,18.608 -88.378,68.053 -99.045,114.157c-22.132,95.652 49.273,201.504 156.26,193.063c79.796,-6.296 127.708,-44.936 148.992,-91.884c32.335,-71.326 2.888,-163.83 -74.801,-201.668l0,-0Zm-14.596,29.968c60.9,29.661 84.385,102.025 59.037,157.937c-17.172,37.879 -56.872,67.337 -121.254,72.417c-83.836,6.614 -138.505,-77.364 -121.163,-152.319c8.39,-36.258 35.062,-75.529 77.448,-90.163c28.668,-9.898 64.241,-8.178 105.932,12.128l0,-0Z" style="fill:#7e4021;"/></g></svg>