<?xml version="1.0" encoding="UTF-8" standalone="no"?><!DOCTYPE svg PUBLIC "-//W3C//DTD SVG 1.1//EN" "http://www.w3.org/Graphics/SVG/1.1/DTD/svg11.dtd"><svg width="100%" height="100%" viewBox="0 0 1683 1768" version="1.1" xmlns="http://www.w3.org/2000/svg" xmlns:xlink="http://www.w3.org/1999/xlink" xml:space="preserve" xmlns:serif="http://www.serif.com/" style="fill-rule:evenodd;clip-rule:evenodd;stroke-linejoin:round;stroke-miterlimit:2;"><g id="Flower-Smile-03"><g><path d="M758.193,568.274c-3.904,-0.571 -21.988,-118.09 27.934,-213.161c70.64,-134.528 205.775,-243.335 367.846,-234.645c54.009,2.896 108.455,24.433 138.851,70.826c94.47,144.192 -83.997,250.871 -177.933,316.183c-36.605,25.45 -78.524,66.277 -104.748,101.677c-2.995,4.042 -98.854,-71.064 -251.95,-40.88Z" style="fill:#fff;"/><path d="M755.778,584.765c1.874,0.274 3.781,0.227 5.639,-0.139c132.106,-26.045 219.7,30.061 238.003,38.641c13.744,6.443 22.174,-1.573 24.115,-4.192c25.253,-34.089 65.621,-73.406 100.87,-97.914c47.968,-33.351 117.35,-77.472 162.849,-131.455c49.251,-58.435 71.73,-127.842 19.511,-207.546c-33.328,-50.869 -92.68,-75.16 -151.9,-78.335c-168.748,-9.048 -309.943,103.469 -383.494,243.539c-47.487,90.435 -36.444,200.131 -30.814,221.597c3.372,12.859 12.997,15.478 15.221,15.804Zm249.125,3.898c-30.331,-15.811 -114.114,-58.344 -234.166,-39.528c-4.502,-33.132 -6.671,-116.159 30.146,-186.274c67.73,-128.985 196.804,-234.082 352.197,-225.75c48.8,2.616 98.339,21.398 125.803,63.316c42.251,64.49 22.732,120.517 -17.117,167.797c-43.602,51.733 -110.421,93.608 -156.39,125.569c-34.36,23.89 -73.238,60.846 -100.473,94.87Z" style="fill:#7e4021;"/><path d="M1017.2,612.014c2.289,-12.885 76.262,-87.804 133.852,-119.168c117.711,-64.105 437.876,-210.362 505.604,-3.252c14.772,45.171 11.432,91.37 -6.949,134.974c-65.395,155.13 -244.361,137.997 -383.752,137.62c-31.88,-0.086 -85.206,8.66 -116.392,15.187c-8.987,1.881 -26.889,-80.721 -132.363,-165.361Z" style="fill:#fff;"/><path d="M1000.79,609.099c-1.066,5.999 1.227,12.101 5.979,15.914c81.648,65.52 108.938,129.879 121.091,152.029c3.78,6.891 7.315,11.067 9.805,12.984c5.373,4.136 10.643,4.64 15.312,3.662c30.263,-6.334 81.997,-14.917 112.933,-14.833c70.82,0.191 151.684,4.439 223.159,-10.865c75.557,-16.178 140.873,-53.63 175.996,-136.948c19.967,-47.367 23.479,-97.559 7.433,-146.628c-29.745,-90.957 -103.201,-120.86 -189.671,-118.268c-120.746,3.618 -267.56,72.751 -339.747,112.064c-47.878,26.074 -106.686,81.078 -129.499,108.908c-8.177,9.976 -12.109,18.141 -12.791,21.981Zm156,149.827c-9.314,-20.16 -43.998,-87.433 -117.482,-150.229c2.68,-3.4 5.947,-7.365 9.192,-10.89c25.2,-27.378 71.691,-69.176 110.523,-90.324c69.067,-37.614 209.273,-104.557 324.802,-108.019c71.048,-2.129 132.551,20.576 156.99,95.311c13.497,41.272 10.329,83.478 -6.466,123.319c-30.272,71.812 -87.136,103.358 -152.259,117.302c-69.205,14.818 -147.519,10.311 -216.09,10.126c-29.43,-0.08 -76.621,7.073 -109.21,13.404Z" style="fill:#7e4021;"/><path d="M1125.46,1048.61c12.933,2.005 72.079,74.455 114.682,138.815c73.982,111.767 205.206,453.113 -0.362,525.389c-44.834,15.763 -91.095,13.442 -135.094,-3.974c-156.533,-61.96 -143.348,-241.261 -146.043,-380.625c-0.617,-31.875 -10.535,-84.995 -17.748,-116.03c-2.079,-8.943 110.564,-28.792 184.565,-163.575Z" style="fill:#fff;"/><path d="M1128.01,1032.14c-6.929,-1.074 -13.789,2.303 -17.163,8.449c-64.316,117.142 -159.366,143.803 -176.168,154.376c-10.973,6.904 -11.202,15.917 -10.022,20.993c6.999,30.116 16.72,81.648 17.318,112.579c1.369,70.807 -1.096,151.745 15.78,222.865c17.839,75.182 56.721,139.657 140.793,172.935c47.796,18.919 98.053,21.324 146.756,4.2c89.617,-31.508 121.736,-109.193 121.378,-199.76c-0.505,-127.966 -67.076,-281.707 -112.647,-350.552c-34.885,-52.702 -80.719,-110.615 -104.39,-132.758c-9.378,-8.773 -17.44,-12.676 -21.635,-13.327Zm2.308,41.177c1.82,1.728 3.688,3.575 5.424,5.419c24.05,25.555 61.235,73.679 90.498,117.888c43.208,65.276 106.63,210.952 107.109,332.284c0.299,75.636 -24.259,141.869 -99.101,168.183c-40.965,14.402 -83.23,12.165 -123.432,-3.748c-72.461,-28.682 -105.253,-84.837 -120.629,-149.637c-16.339,-68.861 -13.559,-147.256 -14.885,-215.814c-0.561,-29.037 -8.546,-75.212 -15.525,-107.596c25.481,-10.626 111.683,-52.081 170.541,-146.979Z" style="fill:#7e4021;"/><path d="M667.922,1180.81c2.507,3.047 -63.074,102.227 -163.932,139.084c-142.716,52.153 -315.909,41.918 -430.089,-73.43c-38.051,-38.439 -63.898,-90.976 -55.23,-145.758c26.938,-170.265 230.79,-129.336 344.244,-114.576c44.21,5.752 102.689,3.687 145.898,-4.905c4.934,-0.981 25.451,119.056 159.109,199.585Z" style="fill:#fff;"/><path d="M680.792,1170.22c-1.203,-1.462 -2.646,-2.709 -4.269,-3.686c-115.333,-69.489 -142.496,-169.902 -150.284,-188.556c-5.849,-14.008 -17.479,-13.736 -20.676,-13.1c-41.61,8.274 -97.924,10.262 -140.498,4.724c-57.934,-7.537 -138.965,-21.489 -208.935,-12.088c-75.742,10.178 -139.031,46.47 -153.921,140.586c-9.504,60.067 18.126,117.941 59.847,160.088c118.885,120.101 299.058,131.661 447.654,77.359c95.94,-35.059 161.477,-123.715 171.734,-143.395c6.144,-11.789 0.777,-20.196 -0.652,-21.932Zm-181.869,-170.3c11.837,32.091 45.299,119.891 146.848,186.633c-18.931,27.561 -73.119,90.504 -147.502,117.686c-136.836,50.004 -303.047,41.095 -412.523,-69.501c-34.381,-34.731 -58.445,-81.93 -50.613,-131.429c12.048,-76.15 64.153,-104.524 125.436,-112.758c67.054,-9.01 144.676,4.883 200.196,12.105c41.5,5.399 95.125,4.158 138.158,-2.736Z" style="fill:#7e4021;"/><path d="M1146.4,787.863c0.191,-3.941 115.407,-33.318 214.865,7.166c140.735,57.284 262.114,181.25 269.155,343.4c2.347,54.036 -13.818,110.312 -57.05,145.056c-134.369,107.986 -257.826,-59.314 -331.925,-146.486c-28.874,-33.969 -73.568,-71.738 -111.34,-94.412c-4.313,-2.589 61.159,-105.27 16.295,-254.724Z" style="fill:#fff;"/><path d="M1129.75,787.056c-0.091,1.891 0.14,3.785 0.684,5.598c38.713,128.965 -8.649,221.579 -15.417,240.626c-5.082,14.304 3.712,21.919 6.507,23.596c36.374,21.835 79.414,58.206 107.22,90.917c37.838,44.514 88.469,109.299 146.603,149.357c62.929,43.363 134.186,59.017 208.46,-0.674c47.403,-38.096 65.834,-99.521 63.261,-158.77c-7.331,-168.831 -132.989,-298.47 -279.522,-358.114c-94.608,-38.509 -202.719,-16.897 -223.54,-9.216c-12.472,4.601 -14.147,14.434 -14.256,16.68Zm20.24,248.332c12.8,-31.719 47.022,-119.226 16.672,-236.893c32.539,-7.689 114.967,-17.886 188.317,11.971c134.936,54.924 252.036,173.216 258.787,328.686c2.12,48.825 -11.777,99.949 -50.84,131.342c-60.095,48.296 -117.749,34.293 -168.666,-0.792c-55.711,-38.388 -103.858,-100.839 -140.119,-143.498c-27.104,-31.886 -67.651,-67.003 -104.151,-90.816Z" style="fill:#7e4021;"/><path d="M513.05,967.293c-0.61,3.898 -118.298,20.841 -212.881,-30.001c-133.836,-71.942 -241.327,-208.126 -231.065,-370.104c3.42,-53.979 25.484,-108.214 72.169,-138.158c145.102,-93.067 272.904,68.605 337.301,163.17c25.094,36.85 66.543,68.945 85.301,108.368c2.162,4.542 -79.522,113.343 -50.825,266.725Z" style="fill:#fff;"/><path d="M529.516,969.867c0.293,-1.871 0.265,-3.778 -0.084,-5.639c-24.787,-132.485 36.673,-230.23 47.613,-251.648c5.152,-10.087 2.759,-17.326 1.88,-19.173c-19.103,-40.147 -61.021,-73.062 -86.575,-110.588c-33.141,-48.667 -82.779,-114.436 -142.619,-156.23c-63.546,-44.383 -138.156,-62.45 -217.456,-11.588c-51.189,32.833 -76.055,91.947 -79.804,151.133c-10.685,168.652 100.457,310.932 239.807,385.838c89.97,48.363 199.768,38.383 221.288,32.962c12.891,-3.247 15.603,-12.845 15.95,-15.067Zm15.9,-268.766c-15.098,28.143 -69.907,124.325 -51.357,253.459c-33.161,4.183 -116.228,5.556 -185.999,-31.948c-128.322,-68.978 -232.162,-199.065 -222.323,-354.371c3.09,-48.772 22.352,-98.126 64.534,-125.182c65.803,-42.205 127.643,-25.971 180.374,10.858c56.435,39.416 102.897,101.766 134.153,147.664c23.212,34.086 60.939,63.823 80.618,99.52Z" style="fill:#7e4021;"/><path d="M560.48,698.332c1.001,0.667 38.846,-41.448 81.448,-71.417c51.148,-35.981 108.503,-61.009 108.476,-61.123c-7.089,-29.657 -6.762,-62.454 -7.175,-92.709c-0.938,-68.723 2.002,-136.062 -8.192,-204.432c-19.109,-128.16 -146.391,-308.895 -293.082,-232.952c-195.769,101.351 -169.163,253.339 -42.646,438.837c53.308,78.159 154.558,219.388 161.171,223.796Z" style="fill:#fff;"/><path d="M551.235,712.199c1.284,0.856 11.528,6.83 21.848,-2.58c7.102,-6.476 40.848,-42.632 78.434,-69.073c44.89,-31.578 94.692,-54.485 104.182,-58.836c13.433,-6.157 10.949,-19.651 10.915,-19.792c-6.809,-28.487 -6.323,-60.002 -6.72,-89.062c-0.948,-69.474 1.933,-137.546 -8.373,-206.663c-10.02,-67.204 -48.384,-148.203 -103.491,-202.436c-57.722,-56.804 -133.167,-84.571 -213.737,-42.859c-83.591,43.275 -128.455,95.896 -144.452,155.298c-23.483,87.204 16.395,191.457 95.699,307.731c42.787,62.733 116.361,165.961 147.474,207.008c9.65,12.731 16.574,20.167 18.22,21.264l0.001,0Zm180.239,-155.951c-19.878,9.498 -61.172,30.329 -99.135,57.035c-26.794,18.848 -55.241,45.538 -70.494,60.474c-0.754,-0.973 -1.514,-1.965 -2.266,-2.957c-30.91,-40.778 -103.995,-143.334 -146.501,-205.655c-72.52,-106.328 -112.524,-200.538 -91.05,-280.282c13.975,-51.895 54.563,-96.557 127.59,-134.363c66.122,-34.233 127.66,-9.603 175.031,37.015c49.983,49.19 84.815,122.639 93.903,183.594c10.083,67.623 7.084,134.23 8.012,202.202c0.368,26.949 0.297,55.828 4.91,82.937Z" style="fill:#7e4021;"/><path d="M927.256,1213.09c-0.376,-1.144 -56.149,8.62 -108.165,5.892c-62.45,-3.276 -137.633,-31.328 -137.646,-31.212c-2.65,23.869 -113.845,155.667 -148.039,215.744c-64.096,112.614 -59.471,275.397 94.015,336.449c120.009,47.736 283.597,-57.561 317.803,-279.476c24.554,-159.295 -15.489,-239.847 -17.968,-247.397Z" style="fill:#fff;"/><path d="M664.95,1185.41c-0.196,0.472 -1.856,4.419 -3.421,7.257c-4.466,8.097 -11.625,18.843 -20.389,31.276c-36.03,51.11 -98.099,128.952 -122.218,171.329c-68.702,120.706 -62.175,294.743 102.339,360.181c52.389,20.838 112.426,15.39 167.954,-14.673c79.937,-43.277 150.985,-138.29 172.481,-277.75c25.323,-164.283 -16.049,-247.352 -18.606,-255.138c-0.481,-1.466 -4.851,-12.491 -18.78,-11.46c-9.585,0.71 -58.454,8.316 -104.346,5.909c-54.282,-2.847 -118.498,-25.196 -130.813,-29.532c-1.773,-0.624 -2.805,-0.969 -2.994,-1.024c-6.118,-1.794 -9.781,0.095 -10.443,0.337c-7.429,2.721 -10.059,8.002 -10.764,13.288Zm25.862,23.161c25.728,8.432 80.107,24.577 127.406,27.058c35.693,1.872 78.698,-2.384 98.126,-4.652c10.348,28.48 31.489,103.184 12.408,226.974c-19.551,126.839 -82.705,214.156 -155.407,253.516c-46.231,25.03 -96.146,30.363 -139.764,13.013c-142.462,-56.667 -145.182,-208.194 -85.69,-312.719c23.751,-41.73 85.014,-118.283 120.494,-168.613c9.654,-13.696 17.476,-25.599 22.427,-34.577Z" style="fill:#7e4021;"/><path d="M1053.22,1150.91c-0.798,-2.189 -2.075,-4.242 -3.825,-6c-6.489,-6.519 -17.051,-6.544 -23.57,-0.055c-1.263,1.258 -8.306,8.907 -2.893,20.101c2.61,5.4 18.189,30.032 19.116,31.995c15.726,33.284 27.017,68.174 31.834,104.704c1.202,9.119 9.583,15.547 18.702,14.345c9.12,-1.203 15.548,-9.583 14.345,-18.703c-5.271,-39.968 -17.536,-78.169 -34.742,-114.585c-0.867,-1.835 -16.661,-27.989 -18.967,-31.802Z" style="fill:#7e4021;"/><path d="M1110.77,686.513c15.942,-14.966 35.273,-27.092 53.886,-38.245c3.26,-1.953 9.138,-5.356 12.423,-7.202c32.507,-18.262 65.957,-31.99 102.032,-41.37c8.902,-2.314 14.251,-11.421 11.936,-20.324c-2.315,-8.902 -11.422,-14.251 -20.324,-11.936c-38.879,10.108 -74.937,24.887 -109.971,44.569c-3.498,1.965 -9.758,5.59 -13.229,7.67c-21.468,12.863 -43.652,27.091 -61.739,44.603c-1.658,1.605 -5.132,5.662 -6.266,8.91c-2.244,6.426 -1.408,12.697 4.011,18.281c6.407,6.601 16.967,6.758 23.568,0.351c1.609,-1.561 2.835,-3.369 3.673,-5.307Z" style="fill:#7e4021;"/><path d="M910.908,551.98c0.411,-3.079 1.058,-7.354 1.635,-9.086c3.942,-11.827 8.796,-23.341 14.431,-34.458c16.815,-33.176 39.139,-61.034 65.042,-87.527c6.431,-6.577 6.312,-17.138 -0.265,-23.568c-6.577,-6.431 -17.138,-6.313 -23.568,0.264c-28.31,28.953 -52.565,59.504 -70.942,95.761c-6.375,12.577 -11.86,25.606 -16.321,38.987c-1.495,4.486 -3.299,15.074 -3.685,20.304c-0.238,3.233 0.05,5.63 0.281,6.758c1.947,9.508 8.708,12.128 12.398,13.053c2.362,0.592 15.024,3.226 20.34,-11.623c1.056,-2.949 1.229,-6.001 0.654,-8.865Z" style="fill:#7e4021;"/><path d="M543.88,1090.25c-2.373,2.005 -5.726,4.736 -7.317,5.63c-10.867,6.109 -22.199,11.375 -33.842,15.821c-34.747,13.268 -70,18.897 -106.986,21.108c-9.182,0.549 -16.191,8.449 -15.642,17.632c0.549,9.182 8.45,16.191 17.632,15.642c40.421,-2.417 78.913,-8.741 116.887,-23.242c13.173,-5.03 25.991,-10.993 38.286,-17.904c4.122,-2.318 12.573,-8.946 16.373,-12.56c2.349,-2.234 3.747,-4.202 4.334,-5.193c4.948,-8.35 1.701,-14.834 -0.41,-17.998c-1.351,-2.025 -8.958,-12.485 -22.874,-5.061c-2.763,1.474 -4.942,3.618 -6.441,6.125Z" style="fill:#7e4021;"/><path d="M1177.4,938.283c3.105,0.11 7.422,0.341 9.201,0.748c12.154,2.778 24.084,6.494 35.694,11.026c34.648,13.525 64.537,33.046 93.412,56.264c7.169,5.763 17.669,4.623 23.433,-2.546c5.764,-7.169 4.623,-17.668 -2.546,-23.432c-31.557,-25.374 -64.312,-46.557 -102.178,-61.337c-13.136,-5.128 -26.635,-9.326 -40.385,-12.47c-4.61,-1.054 -15.322,-1.824 -20.565,-1.702c-3.241,0.076 -5.599,0.594 -6.699,0.933c-9.275,2.859 -11.228,9.842 -11.791,13.604c-0.361,2.408 -1.757,15.265 13.537,19.119c3.038,0.766 6.092,0.642 8.887,-0.207Z" style="fill:#7e4021;"/><path d="M498.238,814.426c-3.075,-0.44 -7.344,-1.129 -9.07,-1.722c-11.788,-4.057 -23.255,-9.022 -34.317,-14.765c-33.011,-17.136 -60.651,-39.729 -86.891,-65.888c-6.514,-6.495 -17.076,-6.478 -23.57,0.036c-6.494,6.514 -6.478,17.076 0.036,23.57c28.677,28.589 58.991,53.139 95.068,71.867c12.515,6.497 25.49,12.109 38.827,16.699c4.472,1.538 15.041,3.445 20.268,3.881c3.23,0.27 5.63,0.005 6.76,-0.215c9.527,-1.854 12.212,-8.59 13.172,-12.271c0.615,-2.356 3.372,-14.991 -11.425,-20.451c-2.938,-1.085 -5.988,-1.287 -8.858,-0.741Z" style="fill:#7e4021;"/><path d="M583.746,455.273c-1.802,13.968 0.916,32.627 6.658,52.743c12.089,42.351 37.087,92.128 49.082,113.382c4.521,8.011 14.695,10.845 22.706,6.324c8.011,-4.521 10.844,-14.695 6.324,-22.706c-9.663,-17.122 -28.345,-53.922 -40.638,-89.153c-7.452,-21.357 -12.925,-41.964 -11.072,-56.325c1.177,-9.123 -5.274,-17.485 -14.397,-18.662c-9.123,-1.177 -17.486,5.274 -18.663,14.397Z" style="fill:#7e4021;"/><path d="M758.886,1389.92c10.042,-9.875 19.424,-26.231 27.327,-45.6c16.638,-40.779 27.706,-95.369 31.394,-119.495c1.389,-9.093 -4.865,-17.603 -13.958,-18.993c-9.093,-1.39 -17.603,4.864 -18.993,13.957c-2.971,19.435 -10.995,59.917 -23.077,95.222c-7.324,21.4 -15.742,40.99 -26.066,51.143c-6.558,6.45 -6.647,17.011 -0.197,23.569c6.45,6.559 17.011,6.647 23.57,0.197Z" style="fill:#7e4021;"/><circle cx="832.022" cy="892.004" r="315.984" style="fill:#ffce7b;"/><path d="M832.022,542.686c-192.793,0 -349.317,156.524 -349.317,349.318c-0,192.793 156.524,349.317 349.317,349.317c192.794,-0 349.318,-156.524 349.318,-349.317c-0,-192.794 -156.524,-349.318 -349.318,-349.318Zm0,33.333c174.397,0 315.984,141.588 315.984,315.985c0,174.396 -141.587,315.984 -315.984,315.984c-174.396,-0 -315.984,-141.588 -315.984,-315.984c0,-174.397 141.588,-315.985 315.984,-315.985Z" style="fill:#7e4021;"/><path d="M611.202,907.036c-0.236,0.209 -0.466,0.424 -0.691,0.647c0.343,-0.422 0.75,-0.913 0.96,-1.126c-0.836,0.851 -1.687,1.687 -2.523,2.538c-1.845,1.877 -3.835,3.511 -6.033,4.962c-4.397,2.901 -9.33,1.85 -14.214,0.37c-8.804,-2.668 -18.117,2.313 -20.785,11.116c-2.668,8.803 2.313,18.116 11.117,20.784c1.381,0.419 2.763,0.796 4.141,1.128c0.492,0.194 0.998,0.366 1.517,0.515c5.532,1.59 9.547,4.001 12.277,6.043c17.142,66.253 57.222,111.784 107.611,139.82c57.969,39.813 117.847,40.461 148.839,37.1c53.759,-5.829 90.349,-30.648 103.572,-42.249c39.345,-24.883 74.502,-62.695 100.537,-115.151c2.176,-1.07 5.379,-2.111 9.899,-2.205c0.324,-0.007 0.645,-0.023 0.964,-0.048c0.797,0.052 1.601,0.09 2.408,0.116c9.194,0.3 16.901,-6.921 17.201,-16.115c0.299,-9.193 -6.922,-16.901 -16.115,-17.2c-5.101,-0.166 -10.111,-0.755 -13.343,-4.914c-1.616,-2.08 -2.976,-4.266 -4.121,-6.636c-0.279,-0.577 -0.563,-1.151 -0.846,-1.726c-0.198,-0.48 -0.401,-0.964 -0.608,-1.452c-0.552,-1.298 -1.25,-2.491 -2.066,-3.566c-0.508,-0.993 -0.932,-1.772 -1.108,-1.971c-3.759,-4.249 -8.009,-5.37 -11.382,-5.597c-4.929,-0.331 -10.387,0.893 -14.715,6.979c-0.821,1.153 -2.433,3.416 -2.976,7.636c-0.407,3.153 0.098,6.216 1.314,8.921c0.068,0.18 0.139,0.358 0.213,0.536c0.217,0.632 0.432,1.209 0.579,1.515c0.111,0.23 0.224,0.46 0.336,0.69c3.672,9.084 4.903,15.251 5.285,18.625c-22.502,45.871 -52.858,79.232 -86.864,101.394c-0.882,0.373 -1.815,0.826 -2.792,1.374c-11.339,6.374 -77.691,45.086 -155.479,27.885c-11.755,-2.599 -53.066,-19.043 -60.384,-21.974c-44.478,-24.256 -79.866,-64.139 -94.356,-122.81c0.713,-2.471 2.615,-7.859 6.78,-13.176l0.02,-0.026c0.279,-0.308 0.686,-0.82 1.094,-1.355c2.12,-2.202 3.656,-5.015 4.303,-8.232c1.22,-6.059 -0.745,-9.546 -1.534,-11.069c-2.073,-4.004 -5.072,-6.323 -8.322,-7.696c-3.746,-1.583 -9.229,-2.684 -15.488,1.318c-0.471,0.301 -2.752,2.708 -4.222,4.282Zm112.606,-154.415c14.875,-0.347 27.762,34.213 28.761,77.128c0.999,42.914 -10.266,78.036 -25.14,78.382c-14.875,0.347 -27.762,-34.213 -28.761,-77.128c-0.999,-42.914 10.266,-78.036 25.14,-78.382Zm207.591,-4.833c14.874,-0.346 27.761,34.214 28.76,77.128c0.999,42.914 -10.266,78.037 -25.14,78.383c-14.874,0.346 -27.762,-34.214 -28.761,-77.128c-0.999,-42.915 10.266,-78.037 25.141,-78.383Z" style="fill:#7e4021;"/></g></g></svg>