<?xml version="1.0" encoding="UTF-8" standalone="no"?><!DOCTYPE svg PUBLIC "-//W3C//DTD SVG 1.1//EN" "http://www.w3.org/Graphics/SVG/1.1/DTD/svg11.dtd"><svg width="100%" height="100%" viewBox="0 0 874 942" version="1.1" xmlns="http://www.w3.org/2000/svg" xmlns:xlink="http://www.w3.org/1999/xlink" xml:space="preserve" xmlns:serif="http://www.serif.com/" style="fill-rule:evenodd;clip-rule:evenodd;stroke-linejoin:round;stroke-miterlimit:2;"><g id="Flower-04"><path d="M376.729,327.319c-24.725,-63.544 -37.846,-186.613 -12.015,-248.237c22.243,-53.064 67.852,-87.47 112.939,-36.181c40.277,45.818 19.644,141.535 13.365,199.75c-2.247,20.835 -5.185,41.536 -8.331,62.249c-0.414,2.722 -4.456,15.92 -2.413,18.321c2.431,2.856 3.417,-6.685 4.902,-10.13c3.182,-7.379 6.589,-14.666 10.025,-21.93c9.854,-20.831 20.19,-41.56 31.538,-61.621c25.715,-45.459 64.429,-90.222 111.779,-113.781c21.097,-10.497 52.191,-18.41 73.732,-4.494c31.844,20.572 16.733,67.223 2.202,93.233c-35.749,63.987 -96.682,109.723 -151.232,156.952l-186.491,-34.131Z" style="fill:#fff;"/><path d="M509.874,225.541c4.243,-33.093 10.169,-73.522 8.337,-110.133c-1.641,-32.777 -9.642,-62.581 -28.041,-83.511c-22.985,-26.147 -46.678,-33.499 -67.927,-30.165c-29.726,4.665 -57.037,33.064 -72.9,70.907c-27.126,64.715 -14.111,193.993 11.853,260.723c2.098,5.392 6.842,9.31 12.532,10.351l186.491,34.131c4.972,0.91 10.088,-0.485 13.91,-3.794c55.988,-48.474 118.182,-95.749 154.873,-161.424c10.039,-17.969 19.908,-44.609 18.606,-68.071c-1.047,-18.85 -8.638,-35.87 -26.314,-47.289c-26.324,-17.006 -64.419,-9.257 -90.201,3.571c-50.245,25 -91.573,72.258 -118.86,120.497c-0.791,1.398 -1.578,2.8 -2.359,4.207Zm-13.9,106.658c0.6,-0.904 1.164,-1.917 1.669,-3.046c1.024,-2.291 2.743,-8.864 2.983,-9.793c3.062,-7.09 6.339,-14.091 9.641,-21.072c9.681,-20.466 19.83,-40.833 30.979,-60.542c24.142,-42.68 60.242,-84.947 104.696,-107.065c8.983,-4.47 20.075,-8.452 31.234,-9.773c9.18,-1.086 18.485,-0.518 26.03,4.357c10.24,6.615 11.977,17.8 10.939,29.046c-1.396,15.132 -7.955,30.803 -14.243,42.058c-33.486,59.936 -89.986,103.117 -141.519,147.252l-62.409,-11.422Zm-32.258,-5.903l-74.614,-13.656l-0,-0c-21.458,-62.302 -32.429,-171.261 -9.017,-227.115c10.837,-25.853 27.018,-47.676 47.325,-50.862c12.108,-1.9 24.628,4.344 37.725,19.242c13.825,15.727 18.552,38.54 19.784,63.169c2.111,42.163 -6.782,89.582 -10.472,123.79c-2.221,20.595 -5.128,41.058 -8.238,61.533c-0.382,2.516 -3.173,12.827 -3.175,18.251c-0.001,2.082 0.255,3.966 0.682,5.648Z" style="fill:#7e4121;"/><path d="M515.475,377.677c46.416,-49.947 151.462,-115.394 218.184,-119.004c57.453,-3.108 108.298,22.946 81.786,85.879c-23.683,56.22 -118.824,79.366 -173.955,99.087c-19.731,7.058 -39.643,13.437 -59.657,19.632c-2.63,0.814 -16.27,2.928 -17.54,5.813c-1.512,3.433 7.505,0.163 11.253,-0.002c8.028,-0.353 16.071,-0.462 24.107,-0.535c23.044,-0.21 46.204,0.058 69.206,1.528c52.122,3.331 109.282,18.666 151.123,51.014c18.642,14.413 39.316,38.95 36.179,64.403c-4.636,37.626 -53.209,44.357 -82.952,42.615c-73.17,-4.287 -140.891,-39.195 -207.173,-67.708l-50.561,-182.722Z" style="fill:#fff;"/><path d="M665.107,453.153c31.634,-10.604 70.605,-22.891 102.757,-40.497c28.785,-15.761 52.122,-35.953 62.941,-61.634c13.515,-32.082 9.806,-56.611 -2.456,-74.283c-17.154,-24.721 -54.617,-36.925 -95.59,-34.708c-70.069,3.79 -180.749,71.848 -229.492,124.3c-3.939,4.238 -5.398,10.215 -3.855,15.791l50.561,182.722c1.348,4.872 4.834,8.868 9.477,10.865c68.03,29.265 137.685,64.636 212.785,69.036c20.548,1.204 48.826,-1.524 69.374,-12.922c16.51,-9.157 28.52,-23.408 31.094,-44.293c3.833,-31.104 -19.745,-62.013 -42.527,-79.627c-44.399,-34.326 -104.944,-50.926 -160.254,-54.461c-1.603,-0.102 -3.207,-0.199 -4.815,-0.289Zm-102.053,33.975c1.076,0.145 2.234,0.212 3.47,0.174c2.508,-0.076 9.172,-1.394 10.114,-1.583c7.716,-0.334 15.445,-0.436 23.167,-0.506c22.639,-0.207 45.393,0.05 67.991,1.495c48.935,3.127 102.71,17.197 141.992,47.566c7.938,6.137 16.356,14.385 22.408,23.853c4.979,7.789 8.522,16.411 7.424,25.327c-1.491,12.099 -10.801,18.537 -21.374,22.504c-14.229,5.338 -31.192,6.265 -44.062,5.511c-68.538,-4.016 -132.027,-36.048 -194.21,-63.193l-16.92,-61.148Zm-8.745,-31.606l-20.229,-73.106l-0,-0.001c46.721,-46.465 140.006,-103.828 200.48,-107.099c27.99,-1.515 54.684,3.538 66.403,20.426c6.987,10.069 6.824,24.059 -0.877,42.34c-8.129,19.297 -26.602,33.494 -48.231,45.337c-37.029,20.276 -83.582,32.939 -115.979,44.527c-19.504,6.977 -39.188,13.279 -58.971,19.404c-2.432,0.752 -12.928,2.735 -17.81,5.097c-1.875,0.906 -3.459,1.958 -4.786,3.075Z" style="fill:#7e4121;"/><path d="M579.165,542.368c59.912,32.551 149.405,118.044 169.478,181.778c17.284,54.879 4.679,110.602 -62.867,100.557c-60.341,-8.973 -106.399,-95.38 -139.199,-143.884c-11.738,-17.359 -22.864,-35.062 -33.837,-52.909c-1.442,-2.345 -6.878,-15.032 -9.989,-15.546c-3.701,-0.611 1.708,7.311 2.798,10.9c2.337,7.689 4.44,15.453 6.508,23.218c5.929,22.269 11.423,44.77 15.713,67.416c9.723,51.316 9.069,110.493 -11.869,159.059c-9.33,21.639 -27.962,47.76 -53.396,51.045c-37.598,4.857 -56.186,-40.521 -61.887,-69.764c-14.026,-71.941 2.963,-146.211 14.114,-217.499l164.433,-94.371Z" style="fill:#fff;"/><path d="M543.23,706.06c18.13,28.008 39.714,62.704 64.755,89.474c22.419,23.966 47.776,41.556 75.339,45.655c34.435,5.121 57.273,-4.566 71.344,-20.834c19.685,-22.758 22.198,-62.078 9.872,-101.216c-21.08,-66.93 -114.501,-157.232 -177.419,-191.416c-5.083,-2.762 -11.235,-2.69 -16.253,0.19l-164.432,94.371c-4.384,2.516 -7.389,6.885 -8.17,11.879c-11.446,73.167 -28.403,149.426 -14.007,223.265c3.939,20.203 13.607,46.916 29.752,63.989c12.972,13.717 29.76,21.81 50.63,19.114c31.081,-4.015 55.164,-34.532 66.565,-60.976c22.219,-51.535 23.257,-114.306 12.94,-168.76c-0.299,-1.578 -0.604,-3.156 -0.916,-4.735Zm-58.264,-90.413c0.126,1.078 0.349,2.216 0.693,3.404c0.697,2.41 3.629,8.539 4.046,9.404c2.241,7.391 4.259,14.852 6.246,22.315c5.825,21.878 11.229,43.982 15.444,66.231c9.128,48.177 8.859,103.762 -10.799,149.357c-3.972,9.214 -9.87,19.417 -17.538,27.632c-6.307,6.757 -13.778,12.332 -22.688,13.483c-12.09,1.562 -20.639,-5.857 -27.109,-15.113c-8.705,-12.456 -13.817,-28.657 -16.284,-41.311c-13.139,-67.387 2.116,-136.843 12.961,-203.821l55.028,-31.581Zm28.442,-16.323l65.788,-37.758l0.001,0.001c56.616,33.712 135.356,109.82 153.549,167.586c8.421,26.737 10.159,53.848 -3.289,69.396c-8.017,9.269 -21.609,12.587 -41.23,9.669c-20.712,-3.08 -39.053,-17.446 -55.898,-35.455c-28.84,-30.83 -52.672,-72.778 -71.945,-101.28c-11.604,-17.159 -22.599,-34.661 -33.446,-52.302c-1.333,-2.168 -5.861,-11.843 -9.362,-15.986c-1.344,-1.59 -2.756,-2.863 -4.168,-3.871Z" style="fill:#7e4121;"/><path d="M428.997,664.66c-16.646,66.121 -77.225,174.048 -133.973,209.326c-48.864,30.376 -105.972,32.01 -113.023,-35.914c-6.299,-60.678 65.956,-126.759 104.79,-170.581c13.898,-15.683 28.282,-30.858 42.843,-45.921c1.914,-1.98 12.853,-10.397 12.578,-13.538c-0.328,-3.737 -6.658,3.471 -9.863,5.419c-6.868,4.173 -13.866,8.14 -20.874,12.071c-20.098,11.276 -40.528,22.188 -61.398,31.97c-47.291,22.166 -104.776,36.236 -157.021,28.019c-23.278,-3.661 -53.209,-15.219 -62.71,-39.039c-14.046,-35.213 25.291,-64.492 52.201,-77.28c66.201,-31.459 142.363,-33.455 214.186,-40.363l132.264,135.831Z" style="fill:#fff;"/><path d="M261.51,670.52c-22.625,24.52 -50.871,54.047 -70.581,84.954c-17.645,27.67 -28.383,56.601 -25.506,84.319c3.595,34.627 18.651,54.343 37.906,63.931c26.935,13.414 65.646,6.079 100.494,-15.584c59.595,-37.047 123.856,-149.974 141.337,-219.411c1.412,-5.61 -0.186,-11.552 -4.222,-15.696l-132.264,-135.832c-3.526,-3.621 -8.505,-5.446 -13.537,-4.962c-73.716,7.091 -151.797,9.611 -219.744,41.9c-18.591,8.835 -42.065,24.836 -54.591,44.717c-10.064,15.973 -13.733,34.245 -5.937,53.791c11.611,29.109 47.155,44.855 75.602,49.329c55.439,8.719 116.5,-5.871 166.683,-29.393c1.455,-0.682 2.908,-1.369 4.36,-2.063Zm95.981,-55.405l52.918,54.345l-0,0.001c-18.59,63.216 -72.75,158.396 -124.184,190.37c-23.807,14.799 -49.637,23.218 -68.038,14.055c-10.97,-5.463 -17.561,-17.805 -19.609,-37.535c-2.162,-20.828 7.197,-42.163 20.456,-62.955c22.699,-35.594 57.411,-69.1 80.231,-94.851c13.738,-15.503 27.959,-30.501 42.353,-45.391c1.768,-1.83 10.015,-8.619 13.158,-13.04c1.206,-1.697 2.089,-3.381 2.715,-4.999Zm-22.878,-23.495c-1.013,0.39 -2.06,0.889 -3.125,1.517c-2.162,1.274 -7.369,5.637 -8.104,6.256c-6.602,4.006 -13.329,7.815 -20.063,11.594c-19.745,11.077 -39.814,21.803 -60.318,31.414c-44.399,20.811 -98.308,34.36 -147.357,26.646c-9.912,-1.559 -21.261,-4.737 -31.123,-10.123c-8.113,-4.431 -15.369,-10.283 -18.697,-18.627c-4.516,-11.323 0.546,-21.447 7.904,-30.014c9.903,-11.527 24.326,-20.504 35.97,-26.037c62.011,-29.468 133.079,-31.947 200.651,-38.082l44.262,45.456Z" style="fill:#7e4121;"/><path d="M289.229,530.552c-68.184,0.303 -187.777,-31.563 -236.047,-77.768c-41.564,-39.785 -57.335,-94.697 6.708,-118.402c57.211,-21.176 139.171,32.396 191.266,59.126c18.645,9.566 36.917,19.729 55.126,30.091c2.393,1.362 13.264,9.866 16.238,8.82c3.538,-1.246 -5.015,-5.587 -7.699,-8.208c-5.749,-5.615 -11.329,-11.408 -16.879,-17.22c-15.915,-16.666 -31.561,-33.746 -46.221,-51.531c-33.221,-40.301 -61.13,-92.488 -66.151,-145.136c-2.237,-23.458 1.522,-55.322 22.235,-70.444c30.619,-22.353 68.753,8.477 87.826,31.366c46.92,56.309 67.775,129.588 92.311,197.443l-98.713,161.863Z" style="fill:#fff;"/><path d="M241.942,369.772c-29.372,-15.824 -64.991,-35.849 -99.826,-47.262c-31.186,-10.218 -61.878,-13.432 -88.012,-3.758c-32.648,12.084 -48.005,31.567 -52.509,52.6c-6.301,29.423 10.42,65.099 40.062,93.472c50.691,48.522 176.043,82.713 247.646,82.394c5.785,-0.025 11.143,-3.049 14.155,-7.988l98.713,-161.863c2.632,-4.316 3.163,-9.592 1.444,-14.346c-25.183,-69.644 -47.023,-144.65 -95.18,-202.445c-13.177,-15.813 -34.508,-34.576 -56.878,-41.77c-17.972,-5.78 -36.583,-4.794 -53.579,7.613c-25.312,18.479 -31.733,56.82 -29,85.487c5.328,55.868 34.63,111.389 69.882,154.155c1.022,1.24 2.049,2.476 3.082,3.711Zm77.514,79.206l-39.495,64.761l-0,-0c-65.853,-2.301 -171.505,-31.117 -215.254,-72.995c-20.25,-19.383 -34.823,-42.312 -30.518,-62.412c2.566,-11.984 12.884,-21.434 31.486,-28.32c19.638,-7.268 42.629,-3.504 66.063,4.174c40.118,13.144 81.198,38.444 111.81,54.15c18.43,9.456 36.491,19.505 54.49,29.748c2.212,1.259 10.838,7.56 15.9,9.507c1.944,0.747 3.795,1.183 5.518,1.387Zm17.074,-27.997c-0.63,-0.885 -1.373,-1.775 -2.246,-2.651c-1.771,-1.777 -7.291,-5.737 -8.073,-6.295c-5.521,-5.4 -10.882,-10.969 -16.215,-16.554c-15.636,-16.374 -31.012,-33.149 -45.414,-50.622c-31.189,-37.837 -57.707,-86.689 -62.421,-136.117c-0.952,-9.989 -0.694,-21.771 2.074,-32.662c2.276,-8.959 6.142,-17.441 13.398,-22.738c9.846,-7.188 20.91,-4.801 31.036,0.199c13.626,6.728 25.905,18.469 34.158,28.374c43.949,52.745 64.007,120.969 86.737,184.898l-33.034,54.168Z" style="fill:#7e4121;"/><path d="M350.749,349.826c76.354,-52.293 180.8,-32.759 233.094,43.595c52.293,76.354 32.759,180.8 -43.595,233.094c-76.354,52.294 -180.8,32.759 -233.094,-43.595c-52.294,-76.354 -32.759,-180.8 43.595,-233.094Z" style="fill:#f8a5b0;"/><path d="M341.331,336.076c-83.943,57.491 -105.419,172.318 -47.928,256.262c57.492,83.943 172.319,105.419 256.263,47.928c83.943,-57.492 105.419,-172.319 47.927,-256.263c-57.491,-83.943 -172.318,-105.419 -256.262,-47.927l0,-0Zm18.836,27.501c68.765,-47.096 162.829,-29.503 209.925,39.262c47.096,68.765 29.503,162.829 -39.262,209.925c-68.765,47.096 -162.829,29.503 -209.925,-39.262c-47.096,-68.764 -29.503,-162.829 39.262,-209.925l-0,0Z" style="fill:#7e4021;"/></g></svg>