<?xml version="1.0" encoding="UTF-8" standalone="no"?><!DOCTYPE svg PUBLIC "-//W3C//DTD SVG 1.1//EN" "http://www.w3.org/Graphics/SVG/1.1/DTD/svg11.dtd"><svg width="100%" height="100%" viewBox="0 0 1875 1731" version="1.1" xmlns="http://www.w3.org/2000/svg" xmlns:xlink="http://www.w3.org/1999/xlink" xml:space="preserve" xmlns:serif="http://www.serif.com/" style="fill-rule:evenodd;clip-rule:evenodd;stroke-linejoin:round;stroke-miterlimit:2;"><g id="Honey"><path d="M993.368,19.746c-218.622,42.697 -1114.82,420.127 -957.093,624.156c68.815,89.019 699.695,390.2 803.421,401.931c213.17,24.109 463.928,-149.728 635.364,-253.989c89.667,-54.533 422.299,-236.504 378.678,-361.607c-57.69,-165.451 -680.962,-445.529 -860.37,-410.491Z" style="fill:#ffe6d8;"/><path d="M990.173,3.388c-154.349,30.145 -643.562,225.707 -868.633,410.92c-50.022,41.164 -87.171,82.093 -105.921,120.476c-21.015,43.02 -20.269,83.429 7.47,119.312c21.264,27.507 94.191,75.339 189.373,128.232c217.68,120.966 552.058,271.776 625.361,280.066c87.859,9.937 181.981,-12.398 274.523,-50.087c135.569,-55.212 267.865,-143.273 371.374,-206.223c63.527,-38.635 247.33,-140.769 336.881,-241.822c42.74,-48.229 63.624,-97.212 48.874,-139.512c-9.929,-28.478 -34.962,-60.476 -71.595,-93.373c-51.878,-46.588 -127.34,-95.941 -212.322,-141.862c-126.635,-68.429 -274.441,-129.339 -395.873,-162.561c-83.379,-22.811 -154.767,-32.304 -199.512,-23.566l-0,0Zm6.389,32.716c41.372,-8.08 107.232,1.91 184.327,23.002c119.277,32.632 264.435,92.521 388.823,159.735c82.367,44.508 155.614,92.182 205.897,137.337c31.475,28.265 53.86,55.078 62.391,79.546c5.262,15.09 3.263,31.178 -3.41,47.825c-7.676,19.151 -21.397,38.813 -38.936,58.605c-87.411,98.638 -267.246,197.739 -329.254,235.45c-102.215,62.163 -232.753,149.31 -366.626,203.831c-87.086,35.467 -175.528,57.188 -258.205,47.837c-71.913,-8.133 -399.361,-157.407 -612.916,-276.081c-89.634,-49.81 -159.167,-93.578 -179.192,-119.482c-19.58,-25.329 -18.725,-53.927 -3.891,-84.294c17.098,-35.002 51.535,-71.831 97.151,-109.369c221.24,-182.06 702.12,-374.311 853.841,-403.942Z" style="fill:#7e4021;"/><path d="M190.592,474.527c-15.087,11.281 -39.384,28.289 -56.491,50.522c-12.954,16.836 -21.847,36.53 -21.757,58.769c0.081,19.942 13.554,39.327 33.654,54.965c25.126,19.548 59.895,33.863 77.054,39.093c8.799,2.682 18.12,-2.285 20.802,-11.084c2.681,-8.799 -2.285,-18.12 -11.084,-20.802c-14.755,-4.496 -44.699,-16.708 -66.304,-33.516c-11.075,-8.617 -20.744,-17.803 -20.789,-28.792c-0.076,-18.627 10.246,-34.161 22.355,-47.118c14.202,-15.197 31.298,-26.95 42.521,-35.341c7.367,-5.509 8.876,-15.962 3.368,-23.329c-5.509,-7.367 -15.962,-8.876 -23.329,-3.367Z" style="fill:#7e4021;"/><path d="M282.379,711.734c6.9,7.985 19.833,16.682 34.652,24.617c19.156,10.257 41.513,19.686 53.66,25.905c8.188,4.191 18.239,0.946 22.43,-7.242c4.192,-8.188 0.947,-18.239 -7.241,-22.43c-12.022,-6.154 -34.156,-15.468 -53.114,-25.619c-10.593,-5.672 -20.234,-11.318 -25.166,-17.026c-6.014,-6.96 -16.548,-7.728 -23.508,-1.713c-6.96,6.014 -7.727,16.548 -1.713,23.508Z" style="fill:#7e4021;"/><path d="M1811.58,549.263c-15.948,304.997 -0.454,605.941 -115.574,716.291c-149.328,143.138 -548.202,411.004 -786.055,446.545c-176.177,26.325 -663.052,-216.525 -824.383,-335.906c-96.3,-71.259 -54.006,-637.623 -49.288,-732.291c68.815,89.019 699.695,390.2 803.421,401.931c213.17,24.109 463.928,-149.728 635.364,-253.989c63.594,-38.676 249.397,-141.452 336.515,-242.581Z" style="fill:#edaf5f;"/><path d="M1828.22,550.133c0.372,-7.117 -3.823,-13.683 -10.436,-16.337c-6.614,-2.655 -14.184,-0.81 -18.836,4.589c-86.029,99.865 -269.748,201.027 -332.547,239.219c-102.215,62.163 -232.753,149.31 -366.626,203.831c-87.086,35.467 -175.528,57.188 -258.205,47.837c-71.913,-8.133 -399.361,-157.407 -612.916,-276.081c-89.634,-49.81 -159.167,-93.578 -179.192,-119.482c-4.267,-5.52 -11.521,-7.798 -18.178,-5.709c-6.656,2.09 -11.307,8.104 -11.654,15.073c-3.317,66.567 -25.042,365.312 -4.651,563.121c5.391,52.292 13.791,97.695 25.98,130.442c9.253,24.857 21.104,42.9 34.692,52.955c113.831,84.232 388.411,229.52 603.847,299.966c94.664,30.954 178.291,47.187 232.912,39.025c240.507,-35.937 644.131,-306.261 795.125,-450.997c48.185,-46.188 75.452,-123.898 90.753,-221.414c22.01,-140.263 20.331,-322.416 29.932,-506.038Zm-35.412,42.796c-7.272,167.051 -7.372,330.117 -27.45,458.075c-13.945,88.869 -36.977,160.425 -80.89,202.518c-147.662,141.542 -541.784,406.949 -776.984,442.093c-51.086,7.633 -129.089,-8.79 -217.626,-37.741c-212.032,-69.333 -482.347,-212.177 -594.38,-295.078c-9.526,-7.049 -16.793,-20.362 -23.279,-37.788c-11.418,-30.672 -19.013,-73.253 -24.062,-122.232c-17.636,-171.081 -3.348,-418.351 2.759,-522.364c34.307,27.293 91.991,63.252 161.567,101.916c217.68,120.966 552.058,271.776 625.361,280.066c87.859,9.937 181.981,-12.398 274.523,-50.087c135.569,-55.212 267.865,-143.273 371.374,-206.223c57.513,-34.977 213.557,-121.999 309.087,-213.155l-0,0Z" style="fill:#7e4021;"/><path d="M159.164,1068.94c20.452,-47.778 85.663,-60.656 128.896,-36.638c35.419,19.677 53.475,55.899 72.934,90.264c22.898,40.439 47.437,78.584 92.366,95.734c50.218,19.17 94.929,2.736 139.344,-16.561c37.049,-16.097 73.734,-34.729 115.175,-23.919c8.901,2.322 18.012,-3.019 20.334,-11.92c2.322,-8.901 -3.019,-18.012 -11.92,-20.334c-49.054,-12.797 -93.016,6.546 -136.872,25.6c-36.49,15.854 -72.915,31.742 -114.174,15.993c-37.344,-14.255 -56.215,-47.405 -75.247,-81.017c-22.47,-39.684 -44.851,-80.256 -85.752,-102.979c-59.185,-32.881 -147.729,-12.749 -175.728,52.66c-3.62,8.456 0.307,18.261 8.763,21.881c8.457,3.619 18.261,-0.307 21.881,-8.764Z" style="fill:#7e4021;"/><path d="M1107.59,1223.11c5.833,-25.93 20.702,-54.093 38.289,-74.326c10.401,-11.966 21.519,-21.304 32.466,-24.313c15.9,-4.37 30.653,-1.656 44.907,3.786c16.793,6.411 32.924,16.478 49.185,25.604c39.185,21.991 78.929,38.049 125.725,9.179c24.548,-15.143 44.734,-40.508 62.402,-71.35c24.376,-42.549 44.295,-95.793 67.515,-143.195c34.5,-70.431 75.521,-129.146 158.987,-102.108c8.75,2.835 18.157,-1.968 20.991,-10.719c2.835,-8.751 -1.968,-18.157 -10.719,-20.992c-102.531,-33.214 -156.813,32.636 -199.194,119.156c-22.903,46.756 -42.46,99.319 -66.503,141.289c-14.612,25.506 -30.679,47.026 -50.98,59.55c-34.316,21.17 -63.176,6.247 -91.91,-9.878c-37.783,-21.204 -75.715,-44.426 -119.24,-32.463c-16.141,4.436 -33.453,16.943 -48.79,34.587c-21.017,24.179 -38.68,57.889 -45.652,88.877c-2.019,8.974 3.628,17.899 12.602,19.918c8.974,2.019 17.9,-3.627 19.919,-12.602Z" style="fill:#7e4021;"/><path d="M859.78,1219.25c-0.423,88.166 -3.309,238.572 -3.309,326.738c-0,9.199 7.468,16.667 16.666,16.667c9.199,0 16.667,-7.468 16.667,-16.667c0,-88.123 2.886,-238.455 3.309,-326.578c0.044,-9.198 -7.388,-16.702 -16.586,-16.746c-9.199,-0.045 -16.703,7.388 -16.747,16.586Z" style="fill:#7e4021;"/><path d="M1054.53,445.284c-55.285,-10.349 -272.733,68.002 -339.94,77.616c-55.459,7.933 -92.313,27.455 -96.481,31.385c-27.134,25.591 7.217,95.042 56.618,117.282c54.794,24.667 189.305,18.66 207.891,8.506c6.963,-3.805 36.521,-29.856 46.651,-43.872c37.924,-52.474 170.324,-138.84 125.261,-190.917Z" style="fill:#ffce7b;"/><path d="M1067.13,434.378c-2.468,-2.852 -5.83,-4.782 -9.537,-5.476c-17.898,-3.35 -51.624,1.234 -91.918,10.525c-86.662,19.984 -206.655,60.28 -253.449,66.974c-60.921,8.715 -100.978,31.442 -105.556,35.76c-14.985,14.132 -18.548,37.633 -10.471,63.097c10.031,31.627 37.795,66.251 71.682,81.506c40.249,18.119 121.423,21.109 173.232,17.232c24.572,-1.839 43.017,-5.76 49.492,-9.298c7.762,-4.241 40.876,-33.109 52.168,-48.735c12.832,-17.755 36.972,-39.407 60.909,-62.363c26.051,-24.983 51.796,-51.445 65.399,-75.938c14.965,-26.946 16.305,-52.186 -1.951,-73.284Zm-438.05,132.494c0.964,-0.574 4.806,-2.828 8.452,-4.583c14.844,-7.148 42.845,-17.659 79.414,-22.891c47.296,-6.765 168.628,-47.291 256.219,-67.49c30.065,-6.932 55.729,-11.757 71.914,-10.95l0.001,0c3.053,6.381 2.21,13.474 -0.602,20.904c-3.393,8.964 -9.398,18.254 -16.806,27.772c-32.156,41.31 -89.077,85.205 -111.915,116.804c-8.967,12.408 -34.97,35.641 -41.135,39.009c-4.678,2.556 -18.242,3.98 -35.997,5.308c-46.938,3.513 -120.596,2.029 -157.06,-14.386c-25.395,-11.432 -46.076,-37.488 -53.593,-61.189c-3.552,-11.2 -5.108,-21.887 1.108,-28.308Z" style="fill:#7e4021;"/><path d="M1073.43,421.516c10.562,16.296 -119.955,58.831 -190.782,79.331c-74.724,21.628 -161.023,43.935 -257.559,50.435c-79.495,5.352 -198.066,-27.777 -53.639,-111.64c39.837,-23.133 126.278,-56.513 221.174,-63.178c147.634,-10.369 267.233,24.112 280.806,45.052Z" style="fill:#e0f0ff;"/><path d="M1087.41,412.451c-5.073,-7.825 -21.145,-18.746 -47.368,-27.643c-50.445,-17.117 -142.455,-32.424 -248.592,-24.97c-98.003,6.883 -187.233,41.501 -228.375,65.391c-38.239,22.203 -59.275,41.774 -68.697,57.717c-8.939,15.126 -9.299,28.455 -4.868,39.818c4.472,11.47 14.767,21.549 29.734,28.935c26.949,13.3 70.668,18.655 106.958,16.212c97.849,-6.589 185.334,-29.133 261.073,-51.054c58.113,-16.82 155.268,-48.474 186.314,-68.872c7.64,-5.019 12.316,-10.183 14.482,-14.258c4.16,-7.829 3.435,-14.956 -0.661,-21.276Zm-38.947,11.539c-1.832,1.069 -3.741,2.119 -5.59,3.033c-38.56,19.064 -116.11,43.703 -164.865,57.814c-73.708,21.334 -158.821,43.404 -254.045,49.816c-26.434,1.78 -57.562,-0.895 -80.333,-8.857c-10.963,-3.832 -20.241,-7.9 -23.064,-15.142c-1.817,-4.658 1.089,-9.668 6.373,-16.265c9.398,-11.734 26.42,-24.973 52.874,-40.334c38.533,-22.375 122.184,-54.519 213.973,-60.965c100.551,-7.062 187.755,7.067 235.546,23.283c7.448,2.528 13.871,5.08 19.131,7.617Z" style="fill:#7e4021;"/><path d="M1107.18,441.004c-28.389,-6.193 -103.957,68.068 -140.45,108.39c-38.501,42.541 -78.298,91.696 -90.557,146.854c-10.094,45.421 46.72,113.55 194.663,31.717c40.808,-22.572 99.964,-71.706 112.495,-125.924c19.496,-84.35 -39.671,-153.079 -76.151,-161.037Z" style="fill:#e0f0ff;"/><path d="M1110.73,424.72c-11.345,-2.474 -29.035,2.666 -48.59,15.367c-35.296,22.926 -81.447,69.039 -107.77,98.123c-40.397,44.636 -81.606,96.548 -94.468,154.422c-3.994,17.968 -0.239,38.675 12.512,55.885c25.147,33.944 91.059,57.88 206.487,-5.968c44.077,-24.38 107.132,-78.194 120.667,-136.755c13.004,-56.261 -5.436,-106.28 -31.059,-139.197c-18.261,-23.461 -40.437,-38.094 -57.779,-41.877Zm-7.105,32.568c11.845,2.584 26.107,13.759 38.58,29.783c20.475,26.304 35.277,66.259 24.886,111.217c-11.529,49.878 -66.783,94.327 -104.324,115.093c-41.667,23.047 -75.537,33.706 -102.418,35.789c-23.475,1.819 -40.904,-2.992 -52.539,-11.837c-13.107,-9.962 -18.166,-24.885 -15.369,-37.469c11.655,-52.443 50.038,-98.84 86.644,-139.286c24.768,-27.367 68.001,-70.965 101.212,-92.537c6.202,-4.028 11.966,-7.244 17.113,-9.192c2.465,-0.933 4.491,-1.937 6.215,-1.561Z" style="fill:#7e4021;"/><path d="M1005.36,382.956c54.529,-22.81 110.851,-37.317 179.059,0.022c75.355,41.251 18.497,99.713 -2.708,96.626c-15.011,-2.185 -37.596,-31.416 -77.769,-54.614c-32.002,-18.479 -85.237,-35.337 -98.582,-42.034Z" style="fill:#7e4021;"/><path d="M998.928,367.58c-6.007,2.513 -10,8.294 -10.225,14.802c-0.224,6.507 3.362,12.55 9.182,15.47c13.224,6.636 66.011,23.26 97.722,41.572c27.379,15.809 46.298,34.589 60.24,45.109c8.966,6.765 16.884,10.606 23.463,11.564c9.832,1.431 25.459,-3.858 38.204,-16.263c12.863,-12.519 22.831,-31.451 21.254,-51.877c-1.491,-19.321 -12.991,-41.34 -46.346,-59.599c-73.707,-40.349 -134.568,-25.426 -193.494,-0.778Zm184.542,95.354c-0.874,-0.324 -1.761,-1.02 -2.837,-1.702c-3.205,-2.03 -6.723,-4.799 -10.665,-8.02c-14.133,-11.55 -32.65,-28.195 -57.692,-42.655c-16.951,-9.788 -39.796,-19.148 -59.624,-26.81l-0.001,0.001c37.827,-10.464 77.869,-11.276 123.765,13.849c16.077,8.801 24.945,17.944 28.033,27.484c3.948,12.193 -2.688,23.571 -10.184,30.866c-3.333,3.244 -9.481,6.347 -10.795,6.987Z" style="fill:#7e4021;"/><path d="M864.702,687.45c-64.49,16.412 -166.562,25.394 -225.355,-6.691c-47.363,-25.847 -36.078,-116.61 -14.872,-113.523c1.678,15.051 32.073,59.213 74.614,80.954c42.383,21.66 106.144,43.434 165.613,39.26Z" style="fill:#7e4021;"/><path d="M868.813,703.601c8.36,-2.127 13.715,-10.283 12.344,-18.801c-1.371,-8.517 -9.016,-14.58 -17.622,-13.976c-56.35,3.955 -116.702,-16.951 -156.862,-37.475c-23.046,-11.778 -42.087,-30.909 -54.006,-47.213c-6.481,-8.865 -11.134,-16.313 -11.628,-20.747c-0.84,-7.535 -6.66,-13.554 -14.163,-14.646c-7.406,-1.078 -14.649,1.066 -20.978,7.056c-4.917,4.653 -9.618,12.667 -12.567,23.23c-5.322,19.065 -5.663,47.638 3.317,72c6.532,17.718 17.848,33.155 34.715,42.36c61.958,33.812 169.488,25.508 237.45,8.212Zm-245.557,-101.313c14.271,20.529 38.585,45.583 68.248,60.743c15.769,8.059 34.358,16.098 54.567,22.931l0,-0c-36.687,-0.028 -72.332,-5.421 -98.74,-19.833c-21.821,-11.908 -26.221,-41.88 -24.075,-63.841Z" style="fill:#7e4021;"/><path d="M730.97,559.158c3.44,6.993 12.816,17.402 26.84,28.339c27.975,21.818 75.296,48.265 117.033,58.61c8.928,2.213 17.974,-3.239 20.187,-12.167c2.213,-8.929 -3.239,-17.974 -12.168,-20.187c-37.312,-9.248 -79.543,-33.036 -104.553,-52.54c-8.689,-6.777 -15.296,-12.433 -17.427,-16.766c-4.06,-8.254 -14.057,-11.66 -22.311,-7.6c-8.255,4.059 -11.66,14.057 -7.601,22.311Z" style="fill:#7e4021;"/><path d="M866.383,508.914c-2.247,-8.594 -10.91,-13.964 -19.668,-12.055c-8.988,1.96 -14.694,10.847 -12.734,19.835c1.482,6.799 7.657,16.74 18.812,26.553c19.551,17.196 55.241,36.989 90.081,42.763c9.075,1.503 17.664,-4.643 19.168,-13.718c1.503,-9.075 -4.643,-17.663 -13.718,-19.167c-24.476,-4.056 -49.426,-16.639 -66.156,-29.003c-7.543,-5.574 -15.135,-14.441 -15.785,-15.208Z" style="fill:#7e4021;"/><path d="M1210.58,411.959c46.032,-11.349 111.154,-13.384 144.633,-15.798c9.175,-0.661 16.087,-8.647 15.426,-17.821c-0.662,-9.175 -8.647,-16.087 -17.822,-15.426c-34.779,2.507 -102.398,4.892 -150.216,16.681c-8.931,2.202 -14.394,11.24 -12.193,20.171c2.202,8.932 11.241,14.395 20.172,12.193Z" style="fill:#7e4021;"/><path d="M1186.98,387.031c22.279,-28.829 27.807,-69.498 32.786,-90.526c2.119,-8.951 -3.427,-17.939 -12.378,-20.058c-8.951,-2.12 -17.939,3.427 -20.058,12.378c-4.256,17.971 -7.685,53.185 -26.726,77.824c-5.624,7.278 -4.282,17.754 2.997,23.379c7.278,5.624 17.754,4.282 23.379,-2.997Z" style="fill:#7e4021;"/></g></svg>