<?xml version="1.0" encoding="UTF-8" standalone="no"?><!DOCTYPE svg PUBLIC "-//W3C//DTD SVG 1.1//EN" "http://www.w3.org/Graphics/SVG/1.1/DTD/svg11.dtd"><svg width="100%" height="100%" viewBox="0 0 812 3458" version="1.1" xmlns="http://www.w3.org/2000/svg" xmlns:xlink="http://www.w3.org/1999/xlink" xml:space="preserve" xmlns:serif="http://www.serif.com/" style="fill-rule:evenodd;clip-rule:evenodd;stroke-linejoin:round;stroke-miterlimit:2;"><g id="Instant-Coffee" serif:id="Instant Coffee"><path d="M731.538,283.082l-657.432,-0c-0,-0 -57.309,933.93 -57.309,1401.61c-0,482.547 57.309,1493.67 57.309,1493.67l657.432,0c-0,0 63.039,-1092.96 63.039,-1575.51c0,-440.534 -63.039,-1319.77 -63.039,-1319.77Z" style="fill:#a692ba;"/><path d="M748.162,281.89c-0.626,-8.72 -7.882,-15.475 -16.624,-15.475l-657.432,-0c-8.809,-0 -16.096,6.854 -16.636,15.646c0,-0 -25.903,422.134 -42.887,841c-8.29,204.452 -14.453,408.125 -14.453,561.628c0,160.059 6.295,378.212 14.718,598.389c16.986,443.998 42.618,896.229 42.618,896.229c0.5,8.824 7.801,15.723 16.64,15.723l657.432,0c8.832,0 16.13,-6.89 16.639,-15.707c-0,0 27.723,-480.668 46.406,-945.292c9.501,-236.281 16.661,-468.416 16.661,-631.178c-0,-144.644 -6.781,-336.513 -15.903,-529.094c-18.684,-394.439 -47.179,-791.869 -47.179,-791.869Zm-32.154,17.858c5.393,76.815 29.542,427.368 46.037,775.588c9.095,192.007 15.865,383.304 15.865,527.517c0,162.416 -7.153,394.059 -16.634,629.839c-16.685,414.949 -40.585,842.703 -45.481,929.005c-0,-0 -625.93,-0 -625.93,-0c-4.638,-83.379 -26.597,-484.897 -41.708,-879.893c-8.405,-219.708 -14.693,-437.397 -14.693,-597.115c-0,-153.134 6.155,-356.318 14.425,-560.277c15.046,-371.071 37.098,-744.71 41.905,-824.664c98.387,0 626.214,0 626.214,0l0,0Z" style="fill:#7e4021;"/><path d="M700.816,1225.04c-14.964,-271.597 -561.21,-268.995 -586.575,12.331c-16.694,185.159 -21.351,347.355 -21.351,490.47c-0,121.4 6.055,290.998 13.777,457.908c13.581,293.597 579.619,301.982 594.271,8.903c9.601,-192.038 17.546,-391.024 17.546,-523.615c0,-131.4 -8.228,-274.654 -17.668,-445.997Z" style="fill:#f7bf9a;"/><path d="M717.457,1224.12c-8.071,-146.494 -159.434,-220.838 -312.202,-216.811c-148.213,3.906 -294.34,81.344 -307.613,228.562c-7.828,86.825 -13.018,168.616 -16.326,245.772c-3.768,87.885 -5.093,169.754 -5.093,246.195c0,53.378 1.166,116.049 3.13,183.711c2.511,86.493 6.325,181.155 10.665,274.968c7.178,155.169 158.113,237.448 311.42,240.32c154.677,2.898 308.333,-75.076 316.146,-231.355c5.341,-106.844 10.171,-215.836 13.407,-314.369c2.59,-78.863 4.16,-151.037 4.16,-210.079c0,-57.057 -1.544,-116.341 -4.065,-179.171c-3.298,-82.176 -8.268,-170.434 -13.629,-267.743l0,0Zm-33.283,1.834c5.351,97.128 10.314,185.223 13.605,267.245c2.503,62.362 4.039,121.203 4.039,177.835c-0,58.735 -1.565,130.533 -4.142,208.985c-3.231,98.354 -8.052,207.149 -13.384,313.798c-6.895,137.92 -145.725,202.25 -282.229,199.692c-135.673,-2.541 -272.395,-71.212 -278.748,-208.533c-4.33,-93.617 -8.137,-188.081 -10.642,-274.394c-1.954,-67.306 -3.117,-129.647 -3.117,-182.744c0,-75.998 1.317,-157.392 5.063,-244.767c3.286,-76.664 8.443,-157.935 16.221,-244.207c11.75,-130.318 144.094,-194.775 275.293,-198.233c134.296,-3.54 270.946,56.542 278.041,185.323l0,-0Z" style="fill:#7e4021;"/><path d="M234.829,2599.17c-6.247,-22.312 -32.845,-40.341 -63.877,-28.9c-24.016,8.854 -39.862,34.636 -25.838,73.037c13.467,36.879 71.81,117.756 102.356,116.208c34.541,-1.751 97.973,-112.862 85.067,-161.45c-12.475,-46.966 -84.231,-54.301 -97.708,1.105Z" style="fill:#dae1a4;"/><path d="M232.638,2566.03c-16.121,-14.328 -40.44,-21.358 -67.452,-11.4c-16.285,6.004 -29.708,17.846 -36.774,34.599c-6.544,15.513 -7.76,35.68 1.046,59.793c10.058,27.541 43.46,78.164 73.843,105.444c16.324,14.657 32.756,22.313 45.013,21.692c8.279,-0.419 17.983,-4.331 27.832,-12.084c10.993,-8.653 22.89,-22.448 33.809,-38.963c15.684,-23.722 29.487,-53.087 36.279,-79.484c5.063,-19.68 6.108,-37.923 2.411,-51.842c-13.932,-52.452 -83.429,-67.774 -116.007,-27.755Zm-13.859,37.632c2.044,7.3 8.757,12.301 16.336,12.171c7.58,-0.131 14.117,-5.36 15.909,-12.726c9.021,-37.089 57.054,-32.204 65.405,-0.765c2.498,9.405 0.944,21.682 -2.477,34.98c-5.935,23.065 -18.098,48.677 -31.803,69.406c-8.673,13.119 -17.888,24.28 -26.62,31.154c-3.312,2.607 -6.118,4.844 -8.902,4.986c-1.999,0.101 -4.11,-1.094 -6.548,-2.424c-4.605,-2.514 -9.479,-6.265 -14.508,-10.78c-26.575,-23.861 -56.005,-67.987 -64.802,-92.076c-9.79,-26.809 -0.818,-45.501 15.948,-51.682c20.209,-7.451 37.995,3.226 42.062,17.756Z" style="fill:#7e4021;"/><path d="M585.066,508.091c22.313,-6.247 40.342,-32.845 28.901,-63.878c-8.854,-24.015 -34.637,-39.861 -73.037,-25.838c-36.879,13.468 -117.757,71.811 -116.208,102.357c1.751,34.54 112.862,97.973 161.449,85.067c46.967,-12.476 54.302,-84.231 -1.105,-97.708Z" style="fill:#fee4a8;"/><path d="M618.205,505.899c14.327,-16.12 21.358,-40.439 11.399,-67.451c-6.004,-16.285 -17.846,-29.708 -34.598,-36.775c-15.514,-6.544 -35.68,-7.759 -59.794,1.047c-27.541,10.058 -78.164,43.46 -105.444,73.843c-14.657,16.324 -22.313,32.756 -21.692,45.013c0.42,8.279 4.331,17.982 12.085,27.832c8.653,10.992 22.447,22.89 38.962,33.809c23.723,15.684 53.087,29.487 79.484,36.278c19.68,5.064 37.924,6.109 51.843,2.412c52.451,-13.933 67.773,-83.43 27.755,-116.008Zm-37.632,-13.858c-7.3,2.044 -12.301,8.757 -12.171,16.336c0.13,7.58 5.359,14.117 12.725,15.908c37.089,9.022 32.205,57.054 0.766,65.406c-9.405,2.498 -21.682,0.944 -34.98,-2.478c-23.066,-5.934 -48.678,-18.098 -69.406,-31.802c-13.119,-8.674 -24.281,-17.889 -31.154,-26.62c-2.607,-3.313 -4.845,-6.119 -4.986,-8.903c-0.101,-1.998 1.093,-4.11 2.424,-6.547c2.514,-4.605 6.264,-9.479 10.78,-14.509c23.861,-26.574 67.987,-56.004 92.076,-64.801c26.809,-9.791 45.5,-0.819 51.682,15.947c7.45,20.209 -3.226,37.995 -17.756,42.063Z" style="fill:#7e4021;"/><path d="M430.013,2917.81c7.679,-21.861 -3.771,-51.884 -35.755,-60.309c-24.751,-6.52 -52.518,5.513 -63.053,45.014c-10.117,37.935 -8.706,137.65 17.205,153.9c29.3,18.374 144.986,-36.27 162.279,-83.474c16.716,-45.63 -37.86,-92.791 -80.676,-55.131Z" style="fill:#fff;"/><path d="M447.223,2889.41c-4.989,-20.982 -20.88,-40.689 -48.719,-48.022c-16.784,-4.421 -34.572,-2.418 -49.969,7.253c-14.257,8.955 -26.819,24.779 -33.434,49.583c-7.555,28.33 -9.225,88.956 0.02,128.729c4.967,21.369 14.037,37.065 24.434,43.585c7.023,4.405 17.215,6.765 29.731,6.063c13.967,-0.784 31.625,-5.262 50.041,-12.529c26.453,-10.439 54.602,-26.578 75.304,-44.308c15.435,-13.218 26.754,-27.564 31.708,-41.086c18.667,-50.959 -29.478,-103.367 -79.116,-89.268Zm-32.935,22.881c-2.513,7.152 0.118,15.099 6.402,19.339c6.284,4.24 14.638,3.705 20.33,-1.301c28.661,-25.21 65.209,6.338 54.019,36.883c-3.347,9.137 -11.661,18.303 -22.09,27.234c-18.09,15.493 -42.743,29.498 -65.857,38.619c-14.63,5.773 -28.579,9.632 -39.675,10.255c-4.208,0.236 -7.79,0.46 -10.152,-1.021c-1.695,-1.063 -2.74,-3.253 -3.973,-5.741c-2.331,-4.7 -4.173,-10.568 -5.703,-17.152c-8.086,-34.787 -6.889,-87.813 -0.28,-112.592c7.354,-27.577 25.424,-37.744 42.704,-33.192c20.828,5.486 29.275,24.432 24.275,38.669Z" style="fill:#7e4021;"/><path d="M297.282,704.461c21.861,7.679 51.884,-3.77 60.309,-35.754c6.52,-24.751 -5.513,-52.519 -45.014,-63.053c-37.935,-10.118 -137.65,-8.707 -153.9,17.205c-18.375,29.3 36.269,144.986 83.474,162.278c45.63,16.716 92.791,-37.86 55.131,-80.676Z" style="fill:#e0f0ff;"/><path d="M325.686,721.671c20.982,-4.989 40.689,-20.879 48.022,-48.719c4.421,-16.784 2.418,-34.571 -7.253,-49.968c-8.955,-14.258 -24.779,-26.819 -49.583,-33.434c-28.33,-7.556 -88.957,-9.225 -128.729,0.019c-21.369,4.967 -37.065,14.038 -43.585,24.435c-4.405,7.023 -6.765,17.215 -6.063,29.731c0.784,13.967 5.262,31.625 12.529,50.041c10.439,26.453 26.578,54.601 44.308,75.304c13.218,15.434 27.564,26.753 41.086,31.707c50.959,18.668 103.367,-29.477 89.268,-79.116Zm-22.881,-32.935c-7.152,-2.512 -15.099,0.119 -19.339,6.403c-4.24,6.284 -3.705,14.638 1.301,20.33c25.21,28.661 -6.338,65.208 -36.883,54.019c-9.137,-3.347 -18.303,-11.661 -27.235,-22.09c-15.492,-18.09 -29.497,-42.743 -38.619,-65.858c-5.772,-14.629 -9.631,-28.579 -10.254,-39.674c-0.236,-4.209 -0.46,-7.791 1.021,-10.152c1.063,-1.696 3.253,-2.74 5.741,-3.974c4.7,-2.33 10.568,-4.173 17.152,-5.703c34.787,-8.086 87.813,-6.888 112.592,-0.28c27.577,7.355 37.744,25.425 33.192,42.705c-5.486,20.828 -24.432,29.275 -38.669,24.274Z" style="fill:#7e4021;"/><path d="M599.213,2653.5c20.996,9.8 52.003,1.37 63.544,-29.626c8.931,-23.987 -0.302,-52.807 -38.57,-67.189c-36.751,-13.813 -136.118,-22.251 -154.847,1.93c-21.177,27.342 21.781,147.858 67.048,169.726c43.757,21.138 96.075,-28.516 62.825,-74.841Z" style="fill:#fed7dc;"/><path d="M625.779,2673.43c21.372,-2.893 42.551,-16.761 52.597,-43.741c6.056,-16.266 5.819,-34.164 -2.285,-50.44c-7.505,-15.072 -22.011,-29.134 -46.041,-38.165c-27.446,-10.316 -87.611,-17.961 -128.102,-12.688c-21.755,2.834 -38.27,10.311 -45.785,20.013c-5.076,6.554 -8.431,16.463 -8.967,28.987c-0.598,13.977 2.114,31.99 7.528,51.034c7.777,27.354 21.059,56.958 36.658,79.31c11.63,16.664 24.788,29.343 37.756,35.608c48.867,23.606 105.772,-19.13 96.641,-69.918Zm-19.517,-35.033c-6.87,-3.206 -15.037,-1.372 -19.877,4.463c-4.84,5.834 -5.132,14.2 -0.712,20.359c22.257,31.009 -12.745,64.264 -42.035,50.114c-8.763,-4.233 -17.063,-13.411 -24.922,-24.67c-13.63,-19.531 -25.134,-45.446 -31.929,-69.348c-4.301,-15.128 -6.763,-29.391 -6.288,-40.493c0.18,-4.212 0.311,-7.798 2.018,-10.002c1.225,-1.582 3.507,-2.405 6.105,-3.387c4.907,-1.856 10.928,-3.11 17.631,-3.983c35.415,-4.612 88.065,1.814 112.07,10.836c26.716,10.041 35.05,29.026 28.815,45.772c-7.516,20.185 -27.203,26.721 -40.876,20.339Z" style="fill:#7e4021;"/><path d="M530.737,872.474c-9.799,20.997 -1.369,52.004 29.627,63.544c23.987,8.932 52.806,-0.302 67.189,-38.57c13.812,-36.751 22.251,-136.118 -1.93,-154.846c-27.343,-21.177 -147.858,21.78 -169.726,67.048c-21.138,43.757 28.516,96.074 74.84,62.824Z" style="fill:#e9d4ff;"/><path d="M510.808,899.041c2.893,21.372 16.761,42.551 43.74,52.597c16.266,6.056 34.165,5.819 50.441,-2.285c15.072,-7.505 29.134,-22.011 38.165,-46.041c10.315,-27.446 17.961,-87.612 12.687,-128.102c-2.833,-21.755 -10.31,-38.27 -20.012,-45.785c-6.555,-5.076 -16.464,-8.431 -28.988,-8.967c-13.976,-0.599 -31.99,2.114 -51.033,7.528c-27.355,7.776 -56.959,21.058 -79.31,36.658c-16.664,11.63 -29.344,24.788 -35.608,37.756c-23.607,48.867 19.13,105.772 69.918,96.641Zm35.032,-19.518c3.206,-6.869 1.373,-15.037 -4.462,-19.876c-5.835,-4.84 -14.2,-5.133 -20.359,-0.712c-31.01,22.257 -64.264,-12.745 -50.115,-42.036c4.233,-8.762 13.411,-17.063 24.671,-24.921c19.531,-13.631 45.446,-25.134 69.348,-31.929c15.127,-4.301 29.39,-6.764 40.493,-6.288c4.211,0.18 7.798,0.311 10.002,2.018c1.582,1.225 2.405,3.507 3.387,6.104c1.855,4.908 3.109,10.929 3.982,17.631c4.612,35.416 -1.813,88.065 -10.835,112.071c-10.041,26.716 -29.026,35.05 -45.773,28.814c-20.184,-7.515 -26.72,-27.203 -20.339,-40.876Z" style="fill:#7e4021;"/><path d="M489.761,1757.95c-38.125,-21.013 -90.384,-27.132 -137.27,-8.786c-68.609,26.845 -129.057,84.886 -160.907,141.964c-28.735,51.495 -45.306,180.735 66.79,206.929c29.455,6.883 43.853,37.498 98.501,40.747c101.33,6.024 177.924,-141.652 188.884,-234.618c8.303,-70.43 -19.401,-126.064 -55.998,-146.236Z" style="fill:#c48464;"/><path d="M497.806,1743.36c-42.046,-23.175 -99.679,-29.944 -151.388,-9.711c-72.208,28.253 -135.868,89.292 -169.388,149.363c-12.556,22.501 -23.14,58.553 -23.299,95.591c-0.249,57.979 24.177,117.773 100.85,135.689c12.939,3.024 22.293,11.759 34.691,19.595c16.015,10.123 35.607,19.717 66.614,21.56c45.429,2.701 86.876,-21.24 120.5,-58.716c47.276,-52.693 79.016,-131.985 85.925,-190.587c9.284,-78.755 -23.582,-140.228 -64.505,-162.784l-0,-0Zm-16.09,29.193c32.278,17.791 54.814,67.57 47.491,129.688c-6.243,52.956 -34.911,124.614 -77.632,172.23c-26.377,29.399 -58.073,49.82 -93.711,47.702c-28.74,-1.709 -44.708,-12.246 -58.518,-21.551c-12.275,-8.271 -23.41,-15.571 -37.18,-18.789c-57.843,-13.516 -75.29,-59.347 -75.102,-103.087c0.132,-30.773 8.642,-60.796 19.074,-79.491c30.18,-54.084 87.416,-109.127 152.426,-134.564c42.063,-16.459 88.949,-10.99 123.152,7.862l-0,-0Z" style="fill:#7e4021;"/><path d="M294.869,2099.44c1.522,-45.673 36.642,-91.299 72.314,-115.996c21.666,-14.999 48.126,-27.304 62.162,-50.727c15.081,-25.169 20.627,-54.374 27.372,-84.359c5.839,-25.964 12.711,-52.632 31.155,-76.728c5.591,-7.304 4.2,-17.773 -3.104,-23.364c-7.305,-5.591 -17.774,-4.2 -23.365,3.104c-21.623,28.249 -30.361,59.234 -37.207,89.674c-5.942,26.418 -10.157,52.365 -23.444,74.539c-5.16,8.611 -12.907,14.841 -21.17,20.486c-10.291,7.032 -21.453,13.102 -31.372,19.969c-43.479,30.1 -84.8,86.625 -86.656,142.291c-0.306,9.194 6.909,16.907 16.102,17.213c9.194,0.306 16.907,-6.909 17.213,-16.102Z" style="fill:#7e4021;"/><path d="M452.644,1529.89c7.6,-30.797 2.051,-68.734 -19.705,-98.275c-31.834,-43.227 -84.086,-74.827 -130.267,-86.48c-41.664,-10.513 -135.755,2.197 -133.051,86.036c0.711,22.03 -18.123,37.938 -10.103,77.015c14.87,72.457 133.258,98.517 200.758,88.698c51.139,-7.439 85.072,-37.43 92.368,-66.994Z" style="fill:#c48464;"/><path d="M468.825,1533.88c8.673,-35.144 2.361,-78.44 -22.465,-112.151c-34.126,-46.339 -90.106,-80.265 -139.61,-92.757c-18.779,-4.739 -47.013,-5.45 -73.934,1.64c-42.724,11.252 -81.787,41.126 -79.853,101.093c0.296,9.18 -4.033,16.943 -7.047,26.623c-4.286,13.764 -7.476,30.053 -2.724,53.205c6.934,33.789 32.404,59.6 66.436,76.864c46.83,23.757 109.734,31.277 153.048,24.977c59.434,-8.646 97.67,-45.134 106.149,-79.494Zm-32.363,-7.986c-6.114,24.777 -35.726,48.259 -78.585,54.494c-37.687,5.482 -92.422,-1.047 -133.168,-21.718c-24.355,-12.355 -43.902,-29.657 -48.865,-53.838c-3.996,-19.473 0.241,-32 3.979,-42.873c3.695,-10.748 6.806,-20.477 6.456,-31.328c-1.311,-40.641 26.072,-60.159 55.026,-67.784c20.863,-5.495 42.736,-5.227 57.289,-1.555c42.857,10.814 91.382,40.088 120.925,80.204c18.685,25.371 23.47,57.948 16.943,84.398Z" style="fill:#7e4021;"/><path d="M165.681,1450.26c24.061,22.401 58.494,33.966 90.474,37.269c13.877,1.433 28.96,-1.244 42.437,2.687c17.809,5.194 32.867,19.933 49.041,28.681c26.688,14.435 55.071,22.739 84.894,27.49c9.084,1.447 17.634,-4.754 19.081,-13.838c1.447,-9.084 -4.754,-17.634 -13.838,-19.081c-26.077,-4.153 -50.943,-11.268 -74.279,-23.89c-18.165,-9.825 -35.564,-25.529 -55.566,-31.362c-15.371,-4.484 -32.519,-2.209 -48.346,-3.844c-25.061,-2.588 -52.328,-10.954 -71.184,-28.509c-6.732,-6.268 -17.287,-5.891 -23.555,0.842c-6.268,6.732 -5.891,17.287 0.841,23.555Z" style="fill:#7e4021;"/><path d="M403.248,1436.09c25.312,6.854 56.768,2.974 81.588,-14.457c36.318,-25.507 63.406,-68.104 73.896,-106.055c9.463,-34.239 0.708,-112.238 -68.632,-111.562c-18.221,0.177 -31.019,-15.684 -63.463,-9.782c-60.161,10.942 -83.9,108.302 -77.04,164.272c5.197,42.403 29.353,71.005 53.651,77.584Z" style="fill:#c48464;"/><path d="M398.892,1452.18c29.634,8.024 66.465,3.501 95.523,-16.906c39.48,-27.728 68.978,-73.999 80.381,-115.254c4.366,-15.796 5.529,-39.667 0.044,-62.577c-8.792,-36.719 -33.629,-70.591 -84.903,-70.091c-7.274,0.071 -13.312,-3.61 -20.923,-6.169c-11.665,-3.923 -25.508,-6.956 -45.36,-3.345c-28.892,5.255 -51.444,26.321 -66.79,54.957c-20.784,38.782 -28.272,91.337 -23.81,127.74c6.217,50.726 36.771,83.774 65.838,91.645l0,-0Zm8.712,-32.175c-19.54,-5.291 -37.285,-29.424 -41.464,-63.525c-3.77,-30.76 2.542,-75.17 20.104,-107.94c10.22,-19.071 24.133,-34.407 43.375,-37.907c15.477,-2.815 25.307,0.803 33.843,3.954c9.161,3.382 17.471,6.187 26.8,6.096c31.938,-0.311 46.684,21.65 52.161,44.522c4.027,16.817 3.449,34.34 0.244,45.935c-9.576,34.646 -34.254,73.57 -67.41,96.856c-20.581,14.454 -46.663,17.693 -67.653,12.009l0,0Z" style="fill:#7e4021;"/><path d="M519.42,1586.26c-25.348,6.72 -50.65,25.809 -63.428,53.314c-18.7,40.248 -20.86,90.683 -10.969,128.794c8.924,34.383 55.506,97.556 115.219,62.3c15.691,-9.264 34.704,-1.927 59.851,-23.26c46.629,-39.557 18.508,-135.742 -15.418,-180.784c-25.702,-34.123 -60.923,-46.816 -85.255,-40.364Z" style="fill:#c48464;"/><path d="M515.149,1570.15c-29.676,7.868 -59.312,30.201 -74.273,62.403c-20.327,43.753 -22.737,98.573 -11.985,140.003c4.117,15.862 15.045,37.118 31.25,54.215c25.974,27.404 64.42,44.319 108.574,18.25c6.265,-3.699 13.333,-3.53 21.205,-5.119c12.063,-2.436 25.568,-6.73 40.955,-19.784c22.393,-18.996 31.391,-48.517 30.364,-80.989c-1.392,-43.978 -21.185,-93.235 -43.251,-122.531c-30.747,-40.821 -73.732,-54.165 -102.839,-46.448l-0,0Zm8.542,32.221c19.568,-5.188 47.001,6.839 67.671,34.282c18.646,24.754 35.384,66.37 36.56,103.531c0.685,21.626 -3.697,41.863 -18.611,54.515c-11.995,10.177 -22.318,11.959 -31.285,13.498c-9.625,1.652 -18.224,3.377 -26.258,8.12c-27.503,16.239 -51.255,4.593 -67.434,-12.477c-11.895,-12.55 -20.157,-28.014 -23.179,-39.658c-9.03,-34.792 -7.119,-80.841 9.952,-117.585c10.596,-22.808 31.565,-38.654 52.584,-44.226l-0,-0Z" style="fill:#7e4021;"/><path d="M557.435,2294.18c18.591,-18.494 30.959,-47.676 28.273,-77.886c-3.93,-44.206 -27.277,-88.964 -54.898,-117.023c-24.92,-25.315 -96.848,-56.733 -130.932,3.656c-8.957,15.868 -29.091,19.021 -40.203,50.069c-20.604,57.572 51.842,126.81 103.744,148.855c39.32,16.7 76.169,10.082 94.016,-7.671Z" style="fill:#c48464;"/><path d="M569.189,2305.99c21.765,-21.651 36.264,-55.81 33.12,-91.178c-4.272,-48.055 -29.595,-96.736 -59.622,-127.239c-11.496,-11.679 -31.588,-24.623 -54.171,-31.327c-36.196,-10.745 -77.949,-6.171 -103.153,38.483c-3.575,6.335 -9.782,9.723 -15.804,15.035c-9.229,8.141 -18.777,18.613 -25.576,37.611c-9.895,27.648 -2.928,57.712 14.198,85.32c23.195,37.391 64.965,70.152 98.722,84.49c47.038,19.978 90.936,10.042 112.286,-11.195l-0,-0Zm-23.508,-23.632c-14.353,14.277 -44.125,17.577 -75.747,4.146c-28.524,-12.115 -63.828,-39.786 -83.427,-71.38c-11.406,-18.387 -17.73,-38.104 -11.14,-56.518c5.3,-14.811 13.349,-21.515 20.345,-27.331c7.509,-6.244 14.094,-12.037 18.68,-20.162c15.699,-27.814 42.092,-29.605 64.637,-22.912c16.578,4.922 31.464,14.183 39.903,22.756c25.217,25.616 46.587,66.45 50.175,106.807c2.227,25.051 -8.01,49.258 -23.426,64.594l-0,-0Z" style="fill:#7e4021;"/><path d="M421.412,1425.36c-4.051,-24.303 -1.148,-57.194 15.705,-76.076c6.52,-7.305 14.51,-12.842 21.947,-18.921c9.871,-8.069 18.9,-16.92 25.049,-28.991c5.416,-10.631 8.058,-23.574 9.262,-37.169c1.469,-16.597 0.707,-34.276 2.969,-48.116c1.484,-9.078 -4.682,-17.653 -13.76,-19.137c-9.078,-1.484 -17.653,4.681 -19.137,13.759c-2.019,12.353 -1.928,27.551 -2.724,42.563c-0.633,11.921 -1.626,23.771 -6.312,32.971c-3.949,7.754 -10.102,13.128 -16.443,18.312c-8.776,7.173 -18.026,13.912 -25.72,22.533c-23.09,25.87 -29.266,70.455 -23.716,103.751c1.512,9.074 10.106,15.213 19.18,13.7c9.073,-1.512 15.212,-10.106 13.7,-19.179Z" style="fill:#7e4021;"/><path d="M509.056,1604.63c15.659,19.022 29.591,48.957 24.437,73.737c-1.994,9.586 -6.145,18.376 -9.546,27.359c-4.515,11.924 -7.909,24.103 -7.198,37.631c0.625,11.915 4.808,24.445 10.564,36.82c7.026,15.108 16.525,30.038 21.486,43.155c3.254,8.604 12.881,12.947 21.485,9.693c8.604,-3.254 12.947,-12.881 9.693,-21.485c-4.427,-11.707 -12.106,-24.823 -18.922,-38.222c-5.412,-10.641 -10.478,-21.4 -11.019,-31.709c-0.456,-8.69 2.185,-16.421 5.085,-24.081c4.013,-10.599 8.654,-21.061 11.007,-32.374c7.061,-33.949 -9.883,-75.649 -31.337,-101.71c-5.846,-7.101 -16.359,-8.12 -23.46,-2.274c-7.102,5.846 -8.121,16.358 -2.275,23.46Z" style="fill:#7e4021;"/><path d="M557.221,2273.08c-23.072,-8.643 -50.104,-27.603 -58.03,-51.639c-3.067,-9.299 -3.867,-18.987 -5.413,-28.467c-2.052,-12.583 -5.202,-24.828 -12.582,-36.189c-6.499,-10.005 -16.387,-18.765 -27.559,-26.605c-13.639,-9.571 -29.33,-17.75 -40.185,-26.629c-7.12,-5.825 -17.629,-4.773 -23.453,2.347c-5.824,7.12 -4.772,17.629 2.348,23.453c9.688,7.925 22.896,15.445 35.498,23.641c10.008,6.509 19.774,13.294 25.398,21.951c4.74,7.298 6.318,15.314 7.636,23.397c1.825,11.186 3.037,22.567 6.655,33.54c10.859,32.932 46.383,60.573 77.993,72.415c8.614,3.227 18.228,-1.146 21.455,-9.76c3.227,-8.614 -1.147,-18.228 -9.761,-21.455Z" style="fill:#7e4021;"/><path d="M73.257,283.974c-10.913,-22.304 -18.877,-92.606 -15.988,-131.756c2.659,-36.032 23.828,-96.741 33.322,-103.143c5.525,-3.727 11.485,4.455 14.572,7.923c5.904,6.634 25.587,37.369 33.99,35.997c8.602,-1.405 14.4,-14.325 18.72,-20.558c11.014,-15.887 31.139,-47.251 54.072,-44.974c17.482,1.736 25.667,24.521 34.126,37.017c3.71,5.481 8.421,15.077 16.408,13.178c21.878,-5.204 36.225,-34.676 61.944,-35.232c12.502,-0.27 21.469,6.988 28.549,16.545c2.527,3.412 7.232,14.272 12.718,12.599c7.263,-2.215 13.305,-12.673 17.752,-18.159c11.661,-14.389 29.871,-36.952 50.653,-35.997c16.868,0.775 27.29,20.478 35.963,32.392c4.823,6.626 9.434,14.64 18.704,14.113c28.616,-1.629 42.216,-47.403 72.281,-43.308c23.909,3.256 29.532,48.44 49.634,49.922c12.617,0.93 30.868,-28.978 37.628,-38.139c3.534,-4.788 8.529,-12.886 15.627,-11.545c21.923,4.141 28.293,52.125 48.068,56.638c10.705,2.444 27.302,-29.217 32.749,-36.71c2.547,-3.503 7.853,-12.439 13.467,-10.423c10.964,3.938 14.742,80.69 9.069,139.095c-5.811,59.838 -34.948,110.198 -34.948,110.198c-0,0 -575.877,1.34 -659.08,4.327Z" style="fill:#e9d4ff;"/><path d="M366.13,48.74c-10.328,-13.819 -23.906,-23.369 -42.067,-22.977c-14.001,0.303 -25.75,6.354 -36.444,14.618c-5.93,4.581 -11.517,9.851 -17.27,14.372c-2.4,1.886 -4.781,3.686 -7.315,5.001c-1.11,-1.613 -2.415,-3.514 -3.162,-4.617c-5.371,-7.935 -10.772,-19.703 -18.123,-28.314c-7.519,-8.809 -16.801,-14.817 -28.158,-15.945c-13.482,-1.339 -26.659,4.311 -38.227,14.174c-12.939,11.031 -23.946,27.443 -31.188,37.89c-1.742,2.513 -3.727,6.07 -6.019,9.567c-7.993,-8.635 -16.936,-22.537 -20.545,-26.592c-3.562,-4.002 -10.177,-10.941 -16.511,-13.159c-6.535,-2.29 -13.25,-1.939 -19.83,2.499c-4.09,2.758 -10.922,11.762 -16.86,25.496c-10.257,23.725 -21.784,63.422 -23.763,90.239c-3.078,41.713 6.011,116.542 17.638,140.307c2.893,5.911 8.993,9.567 15.569,9.331c83.132,-2.985 658.52,-4.316 658.52,-4.316c5.936,-0.014 11.415,-3.183 14.388,-8.32c-0,0 30.944,-53.435 37.111,-116.933c4.749,-48.901 2.82,-110.08 -3.877,-134.709c-3.655,-13.442 -11.137,-19.885 -16.147,-21.684c-6.505,-2.336 -12.986,-1.529 -19.022,2.041c-5.539,3.276 -10.852,10.543 -13.56,14.268c-2.636,3.626 -7.871,12.863 -13.788,21.22c-1.216,1.719 -2.983,3.816 -4.566,5.607c-0.604,-0.833 -1.192,-1.722 -1.776,-2.648c-4.156,-6.59 -7.872,-14.698 -11.963,-22.015c-8.363,-14.959 -19.159,-26.215 -32.15,-28.669c-7.727,-1.46 -14.683,0.646 -20.691,5.186c-4.583,3.463 -8.505,8.863 -11.439,12.84c-3.837,5.2 -11.517,17.518 -19.681,26.308c-1.104,1.188 -2.686,2.572 -3.976,3.646c-0.729,-0.775 -1.539,-1.694 -2.092,-2.464c-4.125,-5.743 -7.812,-13.062 -11.983,-19.696c-8.641,-13.743 -19.645,-24.258 -33.87,-26.195c-17.278,-2.354 -31.295,5.487 -43.897,17.416c-6.425,6.082 -12.49,13.263 -19.065,19.022c-3.493,3.059 -6.977,5.924 -11.271,6.602c-1.13,-1.417 -4.007,-5.05 -5.528,-7.14c-5.744,-7.891 -12.357,-18.745 -20.611,-26.456c-7.954,-7.431 -17.296,-12.281 -28.061,-12.776c-11.936,-0.548 -23.448,3.81 -33.836,11.155c-12.122,8.57 -22.716,21.355 -30.53,30.997c-1.32,1.628 -2.78,3.675 -4.364,5.823Zm297.776,-9.293c0.854,1.141 1.604,2.564 2.511,3.913c4.277,6.356 7.921,14.232 11.772,21.358c8.118,15.019 18.372,26.341 30.103,29.018c7.483,1.708 17.407,-1 26.29,-9.931c5.656,-5.686 11.525,-14.41 16.2,-21.718c3.239,27.637 3.367,70.206 -0.085,105.751c-4.089,42.107 -20.468,79.219 -28.416,95.168c-73.66,0.187 -531.594,1.442 -637.677,3.969l0,0c-8.122,-27.018 -13.079,-81.475 -10.713,-113.53c1.743,-23.629 12.079,-58.56 21.116,-79.464l0.886,-1.952c6.577,8.513 18.327,24.957 26.862,31.565c7.086,5.486 14.084,6.666 19.083,5.85c5.733,-0.936 11.113,-3.789 15.804,-8.238c5.752,-5.455 10.398,-14.181 13.929,-19.273c5.098,-7.355 12.234,-18.344 20.82,-27.178c5.499,-5.658 11.109,-11.382 17.907,-10.707c3.955,0.393 6.094,4.132 8.488,7.515c5.219,7.377 9.308,16.093 13.483,22.26c2.975,4.396 6.755,10.523 11.351,14.372c6.344,5.314 13.873,7.78 22.715,5.677c11.195,-2.663 21.152,-9.783 30.811,-18.026c4.197,-3.581 8.379,-7.344 12.821,-10.564c4.446,-3.222 9.093,-6.069 14.816,-6.193c6.725,-0.145 10.988,4.661 14.796,9.802c2.28,3.078 6.383,10.528 10.796,14.18c6.217,5.146 13.203,6.568 20.177,4.441c5.432,-1.656 10.792,-5.354 15.449,-10.361c4.005,-4.306 7.529,-9.717 10.389,-13.247c5.275,-6.508 11.967,-14.926 19.755,-21.549c5.257,-4.47 10.84,-8.583 17.185,-8.292c3.959,0.182 6.651,3.397 9.372,6.453c5.423,6.09 9.826,13.528 13.881,19.099c8.068,11.082 17.622,21.826 33.125,20.943c15.483,-0.881 28.348,-10.203 40.056,-22.053c4.921,-4.981 9.687,-10.342 14.756,-14.805c4.275,-3.764 8.508,-7.36 14.274,-6.575c2.9,0.395 4.564,3.058 6.491,5.57c4.408,5.744 8.045,12.881 11.863,19.191c8.723,14.417 19.561,24.329 32.303,25.269c7.337,0.541 16.345,-2.777 24.751,-10.296c10.965,-9.807 22.386,-27.62 27.514,-34.569c0.515,-0.698 1.357,-1.784 2.19,-2.843Z" style="fill:#7e4021;"/><path d="M736.546,3173.89c10.912,22.304 18.876,92.606 15.987,131.756c-2.658,36.033 -23.827,96.741 -33.321,103.143c-5.525,3.727 -11.485,-4.455 -14.572,-7.923c-5.904,-6.634 -25.587,-37.368 -33.99,-35.997c-8.602,1.405 -14.4,14.325 -18.721,20.558c-11.013,15.888 -31.138,47.251 -54.071,44.974c-17.482,-1.736 -25.667,-24.52 -34.126,-37.017c-3.71,-5.481 -8.421,-15.077 -16.408,-13.177c-21.879,5.203 -36.225,34.675 -61.944,35.231c-12.502,0.27 -21.47,-6.988 -28.549,-16.545c-2.528,-3.412 -7.232,-14.272 -12.718,-12.599c-7.264,2.215 -13.305,12.673 -17.752,18.16c-11.661,14.388 -29.871,36.951 -50.653,35.996c-16.868,-0.775 -27.29,-20.478 -35.963,-32.392c-4.823,-6.626 -9.435,-14.64 -18.704,-14.113c-28.616,1.629 -42.216,47.403 -72.282,43.308c-23.908,-3.256 -29.531,-48.44 -49.633,-49.922c-12.617,-0.93 -30.869,28.978 -37.629,38.139c-3.533,4.788 -8.529,12.886 -15.626,11.545c-21.923,-4.141 -28.293,-52.124 -48.069,-56.638c-10.704,-2.444 -27.301,29.217 -32.748,36.71c-2.547,3.503 -7.854,12.439 -13.467,10.423c-10.965,-3.938 -14.742,-80.689 -9.07,-139.095c5.812,-59.838 34.949,-110.198 34.949,-110.198c0,-0 575.877,-1.34 659.08,-4.327Z" style="fill:#e9d4ff;"/><path d="M96.889,3400.06c0.604,0.833 1.192,1.722 1.776,2.649c4.155,6.589 7.872,14.697 11.963,22.014c8.363,14.959 19.159,26.215 32.15,28.669c7.727,1.46 14.683,-0.645 20.691,-5.186c4.583,-3.463 8.504,-8.863 11.439,-12.84c3.837,-5.199 11.516,-17.518 19.681,-26.308c1.103,-1.188 2.685,-2.572 3.976,-3.646c0.728,0.775 1.539,1.694 2.092,2.464c4.125,5.743 7.812,13.062 11.983,19.696c8.64,13.743 19.645,24.258 33.87,26.195c17.277,2.354 31.295,-5.487 43.897,-17.416c6.425,-6.082 12.49,-13.263 19.065,-19.021c3.493,-3.06 6.976,-5.924 11.27,-6.603c1.131,1.417 4.007,5.051 5.529,7.14c5.744,7.891 12.356,18.745 20.611,26.456c7.954,7.431 17.296,12.282 28.061,12.776c11.935,0.548 23.448,-3.81 33.836,-11.155c12.121,-8.57 22.716,-21.355 30.53,-30.997c1.32,-1.628 2.779,-3.674 4.364,-5.823c10.328,13.819 23.906,23.369 42.067,22.977c14.001,-0.303 25.749,-6.354 36.444,-14.617c5.93,-4.582 11.517,-9.852 17.27,-14.373c2.4,-1.886 4.781,-3.686 7.315,-5.001c1.11,1.613 2.415,3.514 3.161,4.617c5.372,7.935 10.773,19.703 18.123,28.314c7.52,8.809 16.802,14.817 28.159,15.945c13.482,1.339 26.659,-4.311 38.227,-14.174c12.939,-11.031 23.946,-27.443 31.188,-37.89c1.742,-2.513 3.726,-6.07 6.018,-9.567c7.994,8.635 16.937,22.537 20.546,26.592c3.562,4.002 10.177,10.941 16.51,13.159c6.536,2.29 13.25,1.939 19.83,-2.499c4.09,-2.758 10.923,-11.762 16.861,-25.496c10.257,-23.725 21.784,-63.422 23.763,-90.239c3.078,-41.713 -6.011,-116.542 -17.639,-140.307c-2.892,-5.911 -8.992,-9.567 -15.568,-9.331c-83.133,2.985 -658.521,4.316 -658.521,4.316c-5.935,0.014 -11.415,3.183 -14.387,8.32c0,0 -30.944,53.435 -37.111,116.934c-4.749,48.9 -2.82,110.079 3.877,134.708c3.655,13.442 11.137,19.885 16.147,21.684c6.505,2.336 12.986,1.529 19.021,-2.041c5.54,-3.276 10.852,-10.543 13.56,-14.268c2.637,-3.626 7.872,-12.862 13.789,-21.22c1.216,-1.719 2.982,-3.816 4.566,-5.607Zm617.02,-14.225c-6.576,-8.513 -18.326,-24.957 -26.861,-31.564c-7.087,-5.487 -14.085,-6.667 -19.083,-5.85c-5.733,0.936 -11.113,3.788 -15.804,8.237c-5.752,5.455 -10.399,14.181 -13.929,19.273c-5.098,7.355 -12.234,18.345 -20.82,27.178c-5.499,5.658 -11.109,11.382 -17.907,10.707c-3.956,-0.393 -6.094,-4.132 -8.488,-7.515c-5.22,-7.377 -9.309,-16.093 -13.483,-22.26c-2.976,-4.396 -6.755,-10.523 -11.351,-14.372c-6.344,-5.314 -13.873,-7.78 -22.716,-5.677c-11.194,2.663 -21.151,9.783 -30.81,18.026c-4.198,3.581 -8.379,7.344 -12.821,10.564c-4.446,3.222 -9.094,6.069 -14.816,6.193c-6.725,0.145 -10.988,-4.661 -14.796,-9.802c-2.28,-3.078 -6.383,-10.528 -10.796,-14.18c-6.217,-5.146 -13.203,-6.568 -20.177,-4.441c-5.432,1.657 -10.792,5.354 -15.449,10.361c-4.005,4.307 -7.529,9.717 -10.389,13.247c-5.275,6.508 -11.967,14.926 -19.755,21.549c-5.257,4.47 -10.84,8.583 -17.186,8.292c-3.958,-0.182 -6.65,-3.397 -9.371,-6.453c-5.423,-6.09 -9.826,-13.528 -13.881,-19.099c-8.068,-11.082 -17.622,-21.826 -33.126,-20.943c-15.482,0.881 -28.347,10.203 -40.055,22.053c-4.921,4.981 -9.687,10.342 -14.756,14.805c-4.275,3.764 -8.508,7.36 -14.274,6.575c-2.9,-0.395 -4.565,-3.058 -6.491,-5.57c-4.408,-5.744 -8.045,-12.881 -11.863,-19.191c-8.723,-14.417 -19.561,-24.329 -32.303,-25.269c-7.337,-0.54 -16.345,2.777 -24.751,10.296c-10.966,9.807 -22.387,27.62 -27.514,34.569c-0.516,0.698 -1.357,1.785 -2.19,2.843c-0.854,-1.141 -1.604,-2.564 -2.511,-3.913c-4.277,-6.356 -7.921,-14.232 -11.772,-21.358c-8.118,-15.019 -18.372,-26.341 -30.103,-29.018c-7.484,-1.708 -17.407,1 -26.29,9.931c-5.656,5.686 -11.525,14.41 -16.2,21.718c-3.239,-27.636 -3.367,-70.206 0.085,-105.751c4.089,-42.107 20.468,-79.219 28.416,-95.167c73.66,-0.188 531.594,-1.443 637.676,-3.97l0,-0c8.123,27.018 13.079,81.475 10.714,113.53c-1.744,23.629 -12.079,58.56 -21.116,79.464l-0.887,1.952Z" style="fill:#7e4021;"/></g></svg>