<?xml version="1.0" encoding="UTF-8" standalone="no"?><!DOCTYPE svg PUBLIC "-//W3C//DTD SVG 1.1//EN" "http://www.w3.org/Graphics/SVG/1.1/DTD/svg11.dtd"><svg width="100%" height="100%" viewBox="0 0 447 4305" version="1.1" xmlns="http://www.w3.org/2000/svg" xmlns:xlink="http://www.w3.org/1999/xlink" xml:space="preserve" xmlns:serif="http://www.serif.com/" style="fill-rule:evenodd;clip-rule:evenodd;stroke-linejoin:round;stroke-miterlimit:2;"><g id="Matcha-Spoon" serif:id="Matcha Spoon"><path d="M145.047,856.72c10.309,220.534 -0.918,562.456 2.677,843.613c11.764,920.228 -209.854,2420.3 -15.335,2576.61c65.632,52.739 208.335,-97.52 188.704,-184.297c-51.53,-227.784 -79.815,-1330.46 -54.808,-1669.66c26.302,-356.757 38.419,-714.844 73.119,-1070.97c30.802,-316.123 106.903,-642.508 87.51,-961.268c-5.784,-95.07 -31.708,-185.439 -86.769,-263.903c-41.745,-59.488 -89.456,-98.283 -165.614,-107.061c-271.869,-31.335 -115.336,249.298 -88.658,357.345c29.392,119.036 51.653,318.694 59.174,479.596Z" style="fill:#ffdab8;"/><path d="M128.399,857.498c10.301,220.387 -0.933,562.08 2.659,843.048c8.235,644.117 -97.888,1572.34 -95.583,2124.91c0.6,143.637 8.579,262.154 27.501,344.233c13.581,58.906 33.573,99.834 58.973,120.245c31.453,25.274 78.253,15.343 120.898,-16.776c34.21,-25.768 65.804,-64.901 82.913,-104.077c12.251,-28.053 16.994,-56.223 11.589,-80.113c-51.378,-227.115 -79.376,-1326.56 -54.442,-1664.76c26.292,-356.626 38.397,-714.583 73.085,-1070.58c30.886,-316.981 107.003,-644.27 87.558,-963.896c-5.973,-98.174 -32.904,-191.439 -89.763,-272.465c-44.633,-63.604 -95.92,-104.659 -177.348,-114.044c-75.273,-8.676 -120.478,6.181 -146.106,32.308c-26.358,26.872 -33.492,66.997 -28.659,112.417c8.564,80.493 54.555,178.643 68.019,233.173c29.194,118.235 51.235,316.558 58.706,476.378Zm33.297,-1.557c-7.572,-161.983 -30.052,-362.976 -59.642,-482.812c-13.214,-53.518 -58.829,-149.708 -67.234,-228.709c-3.653,-34.335 -0.616,-65.234 19.31,-85.548c20.657,-21.061 57.817,-29.529 118.493,-22.536c70.888,8.171 115.023,44.706 153.879,100.077c53.264,75.904 78.181,163.375 83.776,255.342c19.34,317.894 -56.743,643.376 -87.462,958.639c-34.713,356.259 -46.841,714.476 -73.152,1071.36c-25.081,340.197 3.492,1446.11 55.174,1674.56c4.018,17.764 -0.516,38.557 -9.626,59.418c-14.931,34.191 -42.562,68.302 -72.42,90.791c-15.62,11.765 -31.784,20.373 -47.036,23.498c-12.21,2.502 -23.704,1.332 -32.927,-6.08c-21.287,-17.105 -35.991,-52.384 -47.371,-101.75c-18.518,-80.321 -26.063,-196.322 -26.649,-336.884c-2.306,-552.646 103.816,-1480.99 95.58,-2125.19c-3.597,-281.345 7.622,-623.496 -2.693,-844.179Z" style="fill:#7e4021;"/><path d="M122.921,2416.17c11.357,3.435 34.082,10.268 40.294,11.608c35.091,7.571 71.673,8.85 106.01,-2.963c8.698,-2.993 13.33,-12.484 10.338,-21.182c-2.993,-8.698 -12.484,-13.331 -21.182,-10.338c-28.544,9.82 -58.966,8.193 -88.137,1.9c-5.811,-1.254 -27.048,-7.718 -37.672,-10.931c-8.805,-2.663 -18.115,2.323 -20.778,11.127c-2.663,8.805 2.323,18.116 11.127,20.779Z" style="fill:#7e4021;"/></g></svg>