<?xml version="1.0" encoding="UTF-8" standalone="no"?><!DOCTYPE svg PUBLIC "-//W3C//DTD SVG 1.1//EN" "http://www.w3.org/Graphics/SVG/1.1/DTD/svg11.dtd"><svg width="100%" height="100%" viewBox="0 0 3539 3296" version="1.1" xmlns="http://www.w3.org/2000/svg" xmlns:xlink="http://www.w3.org/1999/xlink" xml:space="preserve" xmlns:serif="http://www.serif.com/" style="fill-rule:evenodd;clip-rule:evenodd;stroke-linejoin:round;stroke-miterlimit:2;"><g id="Matcha-Whisk" serif:id="Matcha Whisk"><path d="M1625.34,1578.53c11.143,-31.763 172.195,-254.01 287.798,-359.231c152.194,-138.526 319.029,-249.62 547.955,-394.885c84.121,-53.379 129.882,-76.972 171.482,-173.612c22.485,-52.234 36.917,-111.617 65.904,-160.618c2.439,-4.124 5.422,-11.035 10.132,-13.128c27.081,-12.036 17.689,58.164 7.136,110.398c-0.775,3.839 -1.706,7.665 -2.29,11.542c-0.533,3.537 -1.309,9.872 3.083,11.454c9.182,3.305 70.635,-65.767 104.583,-54.45c19.343,6.447 -47.982,89.636 -37.621,101.939c16.385,19.457 92.79,-49.955 111.102,-32.864c23.547,21.977 -90.856,81.595 -14.185,91.367c25.129,3.203 96.241,-1.58 113.217,19.824c12.606,15.894 -83.435,29.42 -85.463,37.534c-0.753,3.013 14.989,4.14 16.476,4.317c20.853,2.482 115.767,12.818 114.891,24.493c-0.785,10.461 -19.855,13.346 -27.313,14.626c-101.525,17.434 -231.073,38.833 -289.192,116.086c-64.198,85.332 -303.156,492.66 -460.118,632.424c-173.329,154.337 -356.059,263.593 -366.644,249.238c-14.807,-20.083 -96.323,-124.07 -270.933,-236.454Z" style="fill:#ffdab8;"/><path d="M2978.86,768.355c8.28,-2.875 15.401,-5.884 20.033,-8.903c7.388,-4.816 10.926,-10.737 12.057,-15.771c1.302,-5.795 0.468,-11.832 -4.246,-17.777c-6.978,-8.798 -20.094,-15.443 -36.72,-19.047c-28.785,-6.24 -69.565,-4.674 -87.449,-6.953c-3.866,-0.493 -7.759,-1.556 -10.457,-2.41c1.158,-2.01 2.7,-4.53 4.103,-6.336c4.074,-5.247 9.08,-10.704 13.937,-16.118c9.748,-10.868 18.641,-21.859 22.115,-30.927c4.684,-12.229 2.813,-22.771 -6.248,-31.227c-6.049,-5.646 -14.655,-8.369 -25.584,-6.746c-12.96,1.925 -31.678,11.6 -50.043,21.618c-8.753,4.774 -17.445,9.553 -25.228,12.937c1.521,-3.254 3.212,-6.664 4.904,-9.73c11.267,-20.408 25.653,-44.246 29.668,-58.579c5.014,-17.9 -2.215,-28.508 -13.299,-32.203c-16.001,-5.334 -37.191,0.915 -57.653,13.53c-10.739,6.621 -23.557,15.966 -34.17,24.053c6.694,-36.644 11.142,-77.725 5.499,-96.781c-3.432,-11.592 -10.251,-18.14 -17.97,-20.704c-5.54,-1.841 -12.294,-2 -20.258,1.54c-4.318,1.919 -8.279,5.285 -11.504,9.622c-2.472,3.325 -4.49,7.353 -6.204,10.25c-29.341,49.599 -44.109,109.643 -66.868,162.515c-39.928,92.756 -84.362,114.894 -165.103,166.129c-229.901,145.884 -397.401,257.515 -550.243,396.632c-117.646,107.08 -280.967,333.715 -292.307,366.039c-2.553,7.278 0.221,15.357 6.707,19.532c171.686,110.502 251.979,212.584 266.539,232.33c3.071,4.166 8.37,8.098 17.246,8.041c5.549,-0.035 15.376,-2.488 28.47,-8.283c58.454,-25.873 205.057,-121.452 345.425,-246.44c157.62,-140.35 397.887,-549.162 462.353,-634.851c21.537,-28.627 53.872,-48.676 90.686,-63.821c58.504,-24.068 128.224,-35.593 188.009,-45.859c6.857,-1.177 20.985,-4.01 29.321,-9.943c7.019,-4.996 11.184,-11.763 11.791,-19.862c0.353,-4.702 -0.861,-9.65 -4.892,-14.278c-2.588,-2.972 -7.837,-6.654 -15.763,-9.467c-12.523,-4.446 -35.014,-8.521 -56.654,-11.752Zm-269.306,-263.975c0.066,1.216 0.096,2.416 0.081,3.56c-0.271,21.698 -5.144,51.106 -10.215,76.208c-0.83,4.111 -1.81,8.21 -2.435,12.359c-0.601,3.987 -0.933,9.864 0.333,14.571c1.88,6.986 6.238,12.403 13.586,15.048c3.223,1.16 7.578,1.741 12.903,0.046c4.632,-1.475 13.109,-7.039 23.3,-15.094c13.261,-10.482 31.165,-25.518 48.293,-34.153c2.721,-1.371 5.371,-2.678 7.928,-3.691c-1.458,3.365 -3.121,6.962 -4.757,10.014c-12.152,22.679 -28.969,49.961 -32.004,63.906c-2.142,9.843 0.444,17.062 4.195,21.516c4.968,5.899 11.843,9.197 20.662,9.395c10.077,0.226 24.903,-5.249 40.667,-13.418c13.37,-6.928 27.852,-15.534 40.35,-21.124c0.362,-0.162 0.735,-0.321 1.117,-0.478c-1.13,1.515 -2.285,2.98 -3.386,4.245c-13.245,15.228 -28.775,32.14 -32.16,45.019c-2.399,9.124 -1.016,17.338 4.304,24.476c4.963,6.659 15.485,13.57 36.005,16.185c15.056,1.919 46.643,0.96 73.165,4.508c3.418,0.457 6.742,0.988 9.903,1.634c-20.184,6.268 -45.221,11.844 -55.379,16.235c-9.594,4.147 -13.099,10.813 -13.997,14.405c-1.688,6.751 -0.314,15.409 10.026,20.553c5.047,2.511 19.023,4.163 20.649,4.357c10.775,1.282 41.669,4.68 68.429,9.302c-57.648,9.989 -121.917,22.167 -176.75,44.725c-42.666,17.552 -79.683,41.432 -104.642,74.608c-63.928,84.974 -301.578,490.818 -457.883,629.997c-136.958,121.952 -279.715,215.608 -336.749,240.853c-3.556,1.573 -7.628,3.002 -10.671,3.996c-23.787,-30.593 -103.261,-124.029 -257.665,-225.573l0,-0c31.343,-55.147 173.485,-246.177 277.609,-340.95c151.545,-137.936 317.715,-248.492 545.665,-393.138c87.503,-55.525 134.589,-80.571 177.861,-181.095c21.344,-49.584 35.196,-105.75 61.662,-153.007Z" style="fill:#7e4021;"/><path d="M1780.49,1708c-131.488,-133.913 -408.174,-333.824 -486.831,-282.825c-166.316,107.834 -117.547,448.069 -192.763,508.48c-48.001,38.554 -205.629,80.26 -375.573,230.169c-213.024,187.91 -531.414,395.348 -393.553,732.865c54.944,134.514 280.815,301.623 412.958,362.296c245.976,112.939 581.859,-291.331 691.581,-467.655c51.279,-82.406 118.993,-259.862 191.171,-326.531c51.294,-47.378 410.587,-111.306 518.32,-171.771c178.762,-100.33 -223.286,-440.386 -365.31,-585.028Z" style="fill:#f7bf9a;"/><path d="M1792.38,1696.32c-93.341,-95.062 -258.941,-222.77 -377.195,-273.189c-32.205,-13.731 -61.172,-21.781 -84.611,-22.681c-18.486,-0.71 -33.992,2.961 -45.985,10.737c-42.637,27.645 -72.307,69.377 -93.484,118.055c-30.3,69.649 -43.142,153.707 -54.248,227.917c-7.112,47.52 -13.466,90.836 -23.852,122.978c-5.871,18.166 -12.564,32.502 -22.548,40.521c-13.704,11.007 -36.908,22.081 -66.89,36.326c-74.459,35.379 -188.782,88.052 -309.273,194.338c-107.294,94.645 -240.974,194.367 -330.62,312.768c-92.427,122.074 -138.926,263.627 -67.336,438.898c22.719,55.622 73.39,116.883 135.142,174.089c90.981,84.282 205.788,160.089 286.291,197.052c103.32,47.438 222.128,9.876 334.418,-66.404c162.415,-110.333 311.607,-300.468 378.268,-407.592c30.894,-49.648 67.77,-133.633 107.95,-207.354c25.691,-47.139 52.573,-90.057 80.379,-115.74c14.458,-13.354 55.328,-27.197 107.68,-42.843c131.137,-39.19 331.423,-83.945 407.488,-126.637c25.629,-14.384 40.961,-33.163 48.341,-54.898c10.42,-30.688 4.458,-68.361 -14.58,-109.86c-66.469,-144.886 -294.96,-344.255 -395.335,-446.481l-0,-0Zm-23.785,23.354c98.458,100.273 323.623,294.909 388.823,437.027c23.885,52.063 25.62,96.31 -19.778,121.79c-74.762,41.96 -271.83,85.249 -400.719,123.768c-59.091,17.659 -104.433,35.22 -120.752,50.294c-29.938,27.652 -59.369,73.521 -87.031,124.274c-39.85,73.116 -76.342,156.455 -106.983,205.695c-65.005,104.463 -210.316,290.038 -368.697,397.63c-101.579,69.004 -208.314,106.597 -301.778,63.684c-78.068,-35.845 -189.318,-109.48 -277.547,-191.212c-57.72,-53.471 -105.701,-110.25 -126.936,-162.24c-66.271,-162.247 -22.506,-293.17 63.052,-406.172c88.339,-116.675 220.366,-214.627 326.096,-307.892c117.431,-103.587 228.96,-154.748 301.528,-189.228c33.03,-15.694 58.36,-28.32 73.457,-40.445c14.087,-11.315 25.111,-30.631 33.393,-56.26c10.839,-33.542 17.678,-78.704 25.1,-128.294c8.945,-59.77 18.836,-126.198 38.861,-185.631c19.079,-56.626 47.224,-106.952 94.039,-137.306c8.984,-5.824 21.477,-6.5 36.364,-4.542c18.295,2.406 39.641,9.21 63.024,19.18c114.963,49.016 275.741,173.464 366.484,265.88l0,-0Z" style="fill:#7e4021;"/><path d="M1275.34,1904.6c-0.878,2.269 -1.271,4.766 -1.06,7.351c0.747,9.168 8.797,16.005 17.966,15.258c0.439,-0.036 10.277,0.1 14.349,-11.012c0.304,-0.83 1.826,-5.351 4.382,-13.005c24.606,-73.668 149.297,-448.675 208.864,-583.817c117.043,-265.541 308.715,-604.131 537.452,-838.431c150.199,-153.852 316.106,-262.913 487.618,-273.816c9.18,-0.584 16.159,-8.511 15.576,-17.691c-0.584,-9.18 -8.511,-16.159 -17.691,-15.576c-178.824,11.369 -352.752,123.386 -509.355,283.798c-231.464,237.094 -425.664,579.564 -544.102,848.272c-59.864,135.815 -185.25,512.666 -209.978,586.701l-4.021,11.968Z" style="fill:#7e4021;"/><path d="M1657.72,2268.5l11.869,-4.304c73.427,-26.482 447.189,-160.795 581.542,-223.871c265.815,-124.795 603.571,-327.084 835.094,-564.12c156.642,-160.373 264.492,-336.916 271.604,-515.96c0.365,-9.191 -6.8,-16.95 -15.992,-17.315c-9.191,-0.365 -16.95,6.801 -17.315,15.992c-6.822,171.722 -111.906,340.176 -262.143,493.991c-228.795,234.244 -562.73,433.914 -825.414,557.239c-133.686,62.763 -505.622,196.337 -578.685,222.687c-7.59,2.738 -12.074,4.367 -12.897,4.691c-11.012,4.335 -10.642,14.167 -10.667,14.607c-0.529,9.183 6.497,17.068 15.68,17.597c2.59,0.15 5.077,-0.302 7.324,-1.234Z" style="fill:#7e4021;"/><path d="M1441.41,2030.29c119.26,-140.602 385.498,-403.063 747.589,-794.576c338.008,-365.473 606.069,-726.91 664.38,-812.727c5.17,-7.608 3.19,-17.982 -4.418,-23.152c-7.608,-5.17 -17.983,-3.19 -23.153,4.418c-58.035,85.41 -324.876,445.089 -661.28,808.828c-362.566,392.026 -629.122,654.86 -748.539,795.647c-5.95,7.015 -5.085,17.541 1.93,23.491c7.015,5.95 17.541,5.086 23.491,-1.929Z" style="fill:#7e4021;"/><path d="M1544.31,2129.14c98.235,-100.406 400.693,-394.62 783.583,-766.015c355.637,-344.959 708.868,-620.278 792.874,-680.328c7.483,-5.349 9.216,-15.767 3.866,-23.25c-5.349,-7.484 -15.767,-9.216 -23.251,-3.867c-84.406,60.336 -439.366,336.915 -796.697,683.519c-383.195,371.69 -685.888,666.144 -784.201,766.63c-6.433,6.575 -6.318,17.136 0.257,23.569c6.575,6.433 17.136,6.318 23.569,-0.258Z" style="fill:#7e4021;"/><path d="M1484.99,2074.17c105.724,-96.712 395.481,-399.048 778.694,-770.756c356.631,-345.924 611.033,-611.833 755.982,-760.077c6.431,-6.577 6.313,-17.138 -0.265,-23.569c-6.577,-6.431 -17.137,-6.312 -23.568,0.265c-144.831,148.122 -399.02,413.815 -755.357,759.454c-382.873,371.377 -672.355,673.462 -777.985,770.088c-6.787,6.209 -7.257,16.76 -1.048,23.547c6.209,6.787 16.76,7.257 23.547,1.048Z" style="fill:#7e4021;"/><path d="M1398.83,1996.15c108.253,-162.158 336.622,-449.25 715.015,-829.834c351.587,-353.624 579.324,-716.461 645.769,-831.144c4.611,-7.959 1.893,-18.165 -6.066,-22.777c-7.959,-4.611 -18.165,-1.893 -22.776,6.066c-65.905,113.751 -291.836,473.604 -640.565,824.352c-380.621,382.826 -610.21,671.716 -719.1,834.829c-5.108,7.651 -3.043,18.008 4.608,23.116c7.65,5.107 18.008,3.042 23.115,-4.608Z" style="fill:#7e4021;"/><path d="M1579.67,2166.74c154.212,-147.838 436.742,-358.981 819.819,-730.556c355.233,-344.568 697.095,-591.783 809.311,-660.414c7.848,-4.799 10.322,-15.067 5.523,-22.914c-4.8,-7.847 -15.067,-10.322 -22.914,-5.523c-113.007,69.115 -457.393,317.929 -815.128,664.924c-383.009,371.51 -665.494,582.609 -819.678,730.421c-6.641,6.366 -6.863,16.925 -0.498,23.565c6.366,6.64 16.925,6.863 23.565,0.497Z" style="fill:#7e4021;"/><path d="M1371.54,1970.24c98.042,-147.946 256.176,-480.84 581.898,-902.782c306.048,-396.458 487.666,-585.356 737.757,-736.278c7.875,-4.753 10.411,-15.006 5.658,-22.881c-4.753,-7.876 -15.005,-10.411 -22.881,-5.659c-253.032,152.698 -437.273,343.329 -746.92,744.449c-326.45,422.886 -485.037,756.461 -583.298,904.738c-5.081,7.667 -2.981,18.018 4.687,23.099c7.667,5.082 18.018,2.982 23.099,-4.686Z" style="fill:#7e4021;"/><path d="M1600.89,2193.23c145.897,-101.759 483.595,-260.23 898.597,-596.643c393.643,-319.099 579.839,-507.821 726.476,-764.412c4.564,-7.987 1.786,-18.176 -6.201,-22.74c-7.986,-4.564 -18.175,-1.786 -22.739,6.2c-144.933,253.609 -329.459,439.668 -718.527,755.058c-414.078,335.664 -751.103,493.664 -896.675,595.197c-7.545,5.262 -9.398,15.66 -4.136,23.204c5.262,7.545 15.66,9.398 23.205,4.136Z" style="fill:#7e4021;"/><path d="M1345.5,1960.18c130.59,-255.742 264.44,-710.493 598.473,-1124.82c259.54,-321.923 473.087,-463.003 701.395,-559.908c8.467,-3.594 12.424,-13.386 8.83,-21.854c-3.594,-8.467 -13.386,-12.424 -21.854,-8.83c-232.427,98.654 -450.098,241.939 -714.321,569.671c-335.827,416.548 -470.918,873.463 -602.21,1130.58c-4.184,8.193 -0.929,18.24 7.264,22.423c8.192,4.184 18.239,0.929 22.423,-7.264Z" style="fill:#7e4021;"/><path d="M1624.41,2223.59c253.926,-137.372 699.42,-277.865 1107.87,-623.511c321.356,-271.941 459.425,-492.957 552.523,-727.665c3.392,-8.551 -0.797,-18.246 -9.347,-21.638c-8.551,-3.392 -18.246,0.797 -21.638,9.347c-91.448,230.548 -227.41,447.389 -543.071,714.511c-406.254,343.785 -849.642,483.005 -1102.2,619.638c-8.091,4.377 -11.106,14.499 -6.729,22.589c4.377,8.091 14.499,11.106 22.59,6.729Z" style="fill:#7e4021;"/><path d="M1144.03,1853.38l0.159,0.084c7.989,4.269 48.129,27.331 52.133,29.952c57.046,37.347 114.928,74.569 167.571,118c130.742,107.862 291.353,262.443 352.912,426.602c3.23,8.613 12.845,12.983 21.458,9.754c8.613,-3.23 12.983,-12.845 9.753,-21.458c-63.468,-169.249 -228.114,-329.404 -362.91,-440.61c-53.586,-44.209 -112.459,-82.161 -170.526,-120.176c-4.202,-2.751 -46.298,-26.983 -54.681,-31.463c-3.946,-2.109 -6.655,-2.464 -7.089,-2.52c-7.069,-0.926 -11.156,2.189 -13.315,4.128c-3.468,3.115 -5.475,7.117 -5.53,12.224c-0.074,6.917 4.086,12.9 10.065,15.483Z" style="fill:#7e4021;"/><path d="M1209.19,1859.24c31.234,-159.997 93.67,-479.998 133.849,-620.794c55.13,-193.185 227.873,-612.754 451.466,-902.999c73.763,-95.751 153.005,-177.394 235.499,-231.667c80.125,-52.715 163.157,-79.492 247.006,-66.592c9.092,1.399 17.609,-4.847 19.007,-13.939c1.399,-9.091 -4.847,-17.608 -13.938,-19.007c-91.686,-14.105 -182.781,14.049 -270.396,71.691c-85.247,56.085 -167.359,140.225 -243.584,239.172c-226.371,293.849 -401.299,718.609 -457.114,914.193c-40.358,141.426 -103.137,462.843 -134.511,623.555c-1.762,9.028 4.137,17.789 13.165,19.551c9.028,1.763 17.788,-4.136 19.551,-13.164Z" style="fill:#7e4021;"/><path d="M1711.8,2366.11c159.92,-35.186 479.754,-105.591 620.179,-149.301c194.202,-60.45 614.682,-245.43 903.065,-478.724c97.107,-78.557 179.27,-162.646 233.312,-249.203c55.542,-88.961 81.522,-180.699 65.24,-272.024c-1.614,-9.056 -10.277,-15.097 -19.333,-13.483c-9.056,1.615 -15.097,10.278 -13.482,19.334c14.89,83.518 -9.905,167.163 -60.7,248.52c-52.296,83.761 -132.032,164.922 -226.001,240.941c-284.846,230.432 -700.188,413.104 -892.007,472.812c-139.801,43.516 -458.227,113.544 -617.436,148.574c-8.984,1.976 -14.673,10.875 -12.696,19.858c1.977,8.984 10.875,14.673 19.859,12.696Z" style="fill:#7e4021;"/><path d="M1256.48,1891.4c41.353,-157.684 124.028,-473.063 173.087,-611.017c67.312,-189.284 266.408,-597.009 508.02,-872.435c79.707,-90.862 163.984,-167.297 249.764,-216.21c83.319,-47.508 167.887,-68.947 250.744,-50.737c8.985,1.975 17.882,-3.716 19.856,-12.701c1.975,-8.984 -3.716,-17.881 -12.701,-19.855c-90.602,-19.912 -183.304,2.387 -274.41,54.337c-88.644,50.545 -175.944,129.289 -258.312,223.184c-244.612,278.847 -446.219,691.613 -514.368,883.249c-49.278,138.57 -132.385,455.34 -173.923,613.73c-2.333,8.897 2.996,18.016 11.894,20.349c8.897,2.334 18.016,-2.996 20.349,-11.894Z" style="fill:#7e4021;"/><path d="M1680.58,2319.08c157.357,-45.292 472.061,-135.909 609.42,-188.468c189.961,-72.686 597.816,-284.052 870.767,-535.227c91.911,-84.577 168.556,-173.725 216.979,-263.546c49.768,-92.315 69.857,-185.521 47.796,-275.624c-2.187,-8.935 -11.217,-14.413 -20.152,-12.225c-8.935,2.187 -14.412,11.217 -12.225,20.152c20.175,82.401 0.754,167.455 -44.76,251.879c-46.859,86.919 -121.268,172.991 -210.209,254.836c-269.603,248.093 -672.478,456.828 -860.108,528.623c-136.748,52.325 -450.071,142.476 -606.728,187.568c-8.84,2.544 -13.951,11.786 -11.407,20.626c2.545,8.84 11.787,13.951 20.627,11.406Z" style="fill:#7e4021;"/><path d="M1536.2,2350.3c-53.335,27.722 -159.944,50.947 -216.413,34.18c-48.625,-14.438 -83.125,-51.133 -42.469,-95.534c36.318,-39.664 122.171,-30.701 173.79,-30.744c18.473,-0.016 36.896,0.587 55.349,1.371c2.425,0.103 14.377,2.388 16.286,0.369c2.272,-2.403 -6.184,-2.358 -9.344,-3.332c-6.771,-2.085 -13.481,-4.377 -20.175,-6.696c-19.196,-6.652 -38.347,-13.735 -57.011,-21.77c-42.291,-18.205 -85.209,-47.87 -110.368,-87.123c-11.21,-17.49 -21.107,-43.988 -10.963,-64.193c14.995,-29.868 57.32,-21.069 81.5,-10.811c59.485,25.234 105.374,74.279 151.963,117.588l-12.145,166.695Z" style="fill:#a8ccf1;"/><path d="M1424.38,2241.14c-27.441,-0.582 -59.196,-1.144 -87.699,3.406c-29.047,4.637 -54.795,14.727 -71.663,33.148c-21.325,23.291 -25.505,45.419 -20.415,64.254c7.069,26.155 35.015,47.995 70.432,58.512c59.683,17.721 172.476,-6.069 228.845,-35.369c5.133,-2.668 8.515,-7.807 8.936,-13.577l12.145,-166.695c0.367,-5.041 -1.573,-9.977 -5.275,-13.418c-47.983,-44.604 -95.538,-94.736 -156.802,-120.725c-17.001,-7.211 -41.724,-13.388 -62.524,-9.951c-17.037,2.815 -31.744,11.427 -40.38,28.628c-12.699,25.295 -2.208,58.769 11.826,80.664c25.866,40.356 69.087,71.485 112.574,91.123Zm100.454,35.71l-4.569,62.711l-0,-0c-52.378,24.352 -145.254,43.936 -195.741,28.944c-22.955,-6.816 -43.161,-18.301 -47.742,-35.253c-2.676,-9.903 1.608,-20.802 12.821,-33.048c12.189,-13.312 31.341,-19.39 52.332,-22.741c36.648,-5.85 78.934,-2.566 109.18,-2.592c18.232,-0.015 36.415,0.582 54.627,1.356c2.282,0.097 11.755,1.558 16.594,1.034c0.874,-0.094 1.707,-0.232 2.498,-0.411Zm2.508,-34.415l-0.455,-0.156c-2.113,-0.682 -8.001,-1.574 -8.992,-1.721c-6.45,-1.992 -12.843,-4.18 -19.221,-6.389c-18.814,-6.519 -37.586,-13.456 -55.878,-21.33c-39.357,-16.943 -79.513,-44.279 -102.926,-80.809c-4.662,-7.273 -9.11,-16.392 -11.279,-25.82c-1.722,-7.487 -2.171,-15.229 1.179,-21.901c4.463,-8.889 13.468,-11.116 22.682,-11.266c13.115,-0.213 27.17,3.974 37.414,8.32c55.214,23.422 98.083,68.338 141.272,108.976l-3.796,52.096Z" style="fill:#7e4121;"/><path d="M1567.11,2223.9c-48.197,-35.921 -115.564,-121.75 -125.084,-179.882c-8.197,-50.056 9.792,-97.099 67.473,-79.86c51.528,15.4 80.879,96.577 103.415,143.017c8.065,16.619 15.553,33.463 22.889,50.413c0.964,2.228 4.117,13.98 6.766,14.819c3.153,0.998 -0.573,-6.594 -1.074,-9.862c-1.074,-7.003 -1.936,-14.042 -2.766,-21.077c-2.38,-20.176 -4.351,-40.5 -5.254,-60.799c-2.046,-45.998 5.948,-97.555 30.311,-137.306c10.856,-17.712 30.391,-38.168 52.997,-37.844c33.417,0.479 43.945,42.407 45.251,68.64c3.215,64.536 -20.927,127.213 -39.601,188.02l-155.323,61.721Z" style="fill:#a8ccf1;"/><path d="M1616.63,2075.69c-11.436,-24.952 -24.77,-53.776 -41.288,-77.447c-16.833,-24.122 -37.136,-42.899 -61.067,-50.051c-30.257,-9.043 -51.994,-3.161 -66.728,9.63c-20.459,17.76 -27.936,52.432 -21.965,88.892c10.062,61.439 80.633,152.587 131.571,190.551c4.639,3.457 10.738,4.262 16.114,2.125l155.323,-61.72c4.698,-1.867 8.294,-5.764 9.778,-10.596c19.233,-62.626 43.626,-127.276 40.315,-193.742c-0.918,-18.444 -6.135,-43.388 -18.293,-60.61c-9.959,-14.107 -24.12,-23.59 -43.365,-23.866c-28.301,-0.405 -53.856,23.626 -67.446,45.8c-25.048,40.868 -34.228,93.335 -32.949,141.034Zm11.641,105.975l-58.432,23.219l-0,-0c-44.746,-36.528 -102.85,-111.583 -111.362,-163.557c-3.87,-23.631 -2.339,-46.822 10.922,-58.334c7.746,-6.724 19.423,-7.619 35.331,-2.864c17.294,5.169 31.112,19.757 43.276,37.189c21.237,30.434 36.711,69.924 49.917,97.135c7.96,16.403 15.347,33.029 22.588,49.757c0.907,2.096 3.72,11.259 6.301,15.386c0.466,0.745 0.953,1.434 1.459,2.069Zm32.068,-12.742l-0.058,-0.478c-0.307,-2.199 -2.07,-7.887 -2.37,-8.843c-1.018,-6.674 -1.836,-13.381 -2.627,-20.084c-2.332,-19.774 -4.271,-39.693 -5.156,-59.588c-1.904,-42.807 5.198,-90.862 27.871,-127.856c4.514,-7.365 10.783,-15.343 18.324,-21.404c5.987,-4.813 12.76,-8.591 20.224,-8.484c9.947,0.142 15.875,7.277 20.026,15.504c5.908,11.711 8.265,26.186 8.818,37.3c2.984,59.902 -18.758,118.061 -36.51,174.644l-48.542,19.289Z" style="fill:#7e4121;"/><path d="M1705.38,2152.39c22.82,-55.609 89.221,-142.187 143.166,-165.852c46.449,-20.376 96.487,-14.638 94.119,45.518c-2.116,53.738 -73.456,102.336 -112.84,135.703c-14.095,11.941 -28.551,23.379 -43.146,34.696c-1.918,1.488 -12.519,7.461 -12.673,10.236c-0.184,3.301 6.244,-2.193 9.286,-3.491c6.516,-2.781 13.12,-5.364 19.728,-7.915c18.952,-7.318 38.149,-14.277 57.588,-20.195c44.047,-13.41 95.973,-18.475 140.531,-4.751c19.854,6.115 44.522,19.955 49.824,41.933c7.839,32.488 -30.159,53.102 -55.245,60.885c-61.714,19.147 -128.424,11.334 -191.964,8.352l-98.374,-135.119Z" style="fill:#a8ccf1;"/><path d="M1861.25,2163.54c21.328,-17.277 45.936,-37.354 64.761,-59.235c19.184,-22.298 32.328,-46.629 33.311,-71.587c1.242,-31.555 -9.856,-51.149 -25.907,-62.243c-22.286,-15.405 -57.729,-14.034 -91.562,0.808c-57.013,25.01 -127.77,116.013 -151.889,174.786c-2.196,5.353 -1.46,11.461 1.945,16.138l98.374,135.119c2.975,4.086 7.644,6.602 12.693,6.839c65.44,3.07 134.124,10.637 197.683,-9.082c17.638,-5.473 40.503,-16.722 54.165,-32.778c11.191,-13.151 16.858,-29.225 12.344,-47.935c-6.638,-27.514 -36.265,-46.297 -61.12,-53.953c-45.81,-14.109 -98.913,-9.966 -144.798,3.123Zm-79.451,65.501l0.449,-0.175c2.054,-0.843 7.125,-3.965 7.977,-4.492c6.211,-2.645 12.505,-5.103 18.802,-7.534c18.574,-7.172 37.387,-13.999 56.438,-19.799c40.992,-12.479 89.304,-17.539 130.771,-4.767c8.256,2.543 17.542,6.633 25.286,12.431c6.149,4.604 11.492,10.226 13.243,17.483c2.333,9.67 -3.105,17.185 -10.043,23.249c-9.876,8.633 -23.312,14.512 -33.94,17.809c-57.282,17.772 -119.02,11.161 -178.238,8.023l-30.745,-42.228Zm-20.309,-27.896l-37.008,-50.832l-0,-0c24.266,-52.419 82.532,-127.348 130.762,-148.505c21.928,-9.619 44.773,-13.898 59.218,-3.913c8.438,5.833 12.205,16.921 11.552,33.512c-0.71,18.036 -11.408,35.045 -25.271,51.159c-24.204,28.132 -58.611,52.932 -81.689,72.483c-13.911,11.786 -28.18,23.072 -42.585,34.242c-1.805,1.4 -9.981,6.401 -13.338,9.927c-0.606,0.636 -1.152,1.279 -1.641,1.927Z" style="fill:#7e4121;"/><path d="M1826.87,2272.35c59.535,8.289 159.896,51.099 196.22,97.473c31.277,39.931 38.151,89.825 -20.707,102.476c-52.579,11.302 -117.377,-45.728 -159.483,-75.587c-15.069,-10.687 -29.739,-21.847 -44.328,-33.174c-1.917,-1.488 -10.337,-10.273 -13.063,-9.733c-3.244,0.643 3.676,5.504 5.689,8.128c4.312,5.621 8.455,11.376 12.568,17.144c11.797,16.539 23.307,33.406 33.868,50.764c23.933,39.335 41.74,88.375 39.517,134.945c-0.991,20.751 -8.269,48.084 -28.24,58.68c-29.523,15.665 -58.931,-16.021 -72.702,-38.387c-33.879,-55.022 -42.884,-121.582 -55.782,-183.87l106.443,-128.859Z" style="fill:#a8ccf1;"/><path d="M1854.8,2426.1c22.034,16.367 47.595,35.215 73.467,48.014c26.365,13.043 53.199,19.73 77.618,14.481c30.874,-6.636 47.097,-22.255 53.856,-40.558c9.385,-25.415 -0.748,-59.405 -23.53,-88.491c-38.391,-49.012 -144.12,-94.942 -207.043,-103.702c-5.73,-0.798 -11.463,1.433 -15.148,5.893l-106.442,128.859c-3.219,3.897 -4.496,9.044 -3.471,13.993c13.283,64.152 23.018,132.562 57.91,189.23c9.682,15.725 26.26,35.078 45.206,44.323c15.52,7.572 32.497,9.069 49.5,0.048c25.002,-13.266 35.835,-46.631 37.076,-72.608c2.285,-47.879 -14.921,-98.288 -38.999,-139.482Zm-83.186,-60.687l0.28,0.391c1.328,1.78 5.611,5.917 6.334,6.611c4.105,5.359 8.05,10.845 11.969,16.34c11.562,16.211 22.848,32.737 33.199,49.75c22.273,36.606 39.176,82.147 37.107,125.487c-0.412,8.629 -2.067,18.64 -5.759,27.582c-2.932,7.1 -7.05,13.672 -13.645,17.171c-8.787,4.662 -17.417,1.262 -25.015,-3.952c-10.816,-7.422 -19.849,-18.976 -25.683,-28.451c-31.446,-51.071 -40.38,-112.516 -52.053,-170.657l33.266,-40.272Zm21.976,-26.603l40.044,-48.477l-0,0c56.803,10.483 143.859,48.307 176.335,89.768c14.766,18.851 24.586,39.917 18.503,56.389c-3.554,9.623 -13.359,16.027 -29.592,19.516c-17.647,3.793 -36.78,-2.344 -55.833,-11.769c-33.263,-16.456 -65.834,-43.623 -90.506,-61.119c-14.872,-10.547 -29.349,-21.565 -43.748,-32.744c-1.804,-1.4 -8.68,-8.077 -12.929,-10.453c-0.767,-0.429 -1.525,-0.799 -2.274,-1.111Z" style="fill:#7e4121;"/><path d="M1722.65,2407.62c6.762,59.728 -9.772,167.577 -45.667,214.284c-30.909,40.217 -77.531,59.271 -104.408,5.401c-24.01,-48.123 15.133,-125.057 33.595,-173.261c6.608,-17.252 13.774,-34.235 21.121,-51.18c0.966,-2.227 7.383,-12.565 6.182,-15.072c-1.428,-2.982 -4.418,4.928 -6.459,7.53c-4.374,5.573 -8.919,11.016 -13.484,16.433c-13.09,15.536 -26.568,30.876 -40.759,45.419c-32.155,32.954 -75.233,62.387 -120.896,71.803c-20.346,4.196 -48.63,3.936 -63.856,-12.776c-22.508,-24.705 0.878,-61.063 19.121,-79.959c44.88,-46.487 107.116,-71.746 164.247,-99.714l151.263,71.092Z" style="fill:#a8ccf1;"/><path d="M1580.66,2472.87c-10.38,25.41 -22.287,54.852 -28.256,83.093c-6.084,28.778 -5.895,56.432 5.256,78.782c14.099,28.257 33.258,40.091 52.666,42.091c26.95,2.777 57.357,-15.484 79.871,-44.777c37.937,-49.364 56.16,-163.189 49.013,-226.315c-0.65,-5.749 -4.236,-10.748 -9.471,-13.209l-151.264,-71.092c-4.574,-2.15 -9.877,-2.108 -14.417,0.115c-58.84,28.805 -122.687,55.23 -168.909,103.106c-12.827,13.286 -27.455,34.152 -31.703,54.802c-3.479,16.913 -0.711,33.731 12.251,47.958c19.062,20.923 54.072,23.128 79.543,17.875c46.945,-9.68 91.499,-38.871 125.42,-72.429Zm69.346,-80.977l56.906,26.745l-0,-0c3.958,57.627 -11.052,151.35 -43.145,193.108c-14.592,18.987 -32.557,33.732 -50.024,31.932c-10.205,-1.051 -18.843,-8.958 -26.256,-23.815c-8.058,-16.151 -6.867,-36.209 -2.471,-57.006c7.676,-36.309 25.899,-74.608 36.718,-102.853c6.521,-17.027 13.596,-33.787 20.847,-50.511c0.909,-2.096 5.668,-10.415 6.914,-15.121c0.225,-0.849 0.395,-1.676 0.511,-2.479Zm-31.229,-14.678l-0.309,0.369c-1.394,1.729 -4.337,6.905 -4.83,7.778c-4.171,5.307 -8.505,10.491 -12.854,15.653c-12.83,15.227 -26.035,30.265 -39.942,44.518c-29.926,30.669 -69.839,58.357 -112.334,67.12c-8.461,1.745 -18.569,2.628 -28.148,1.273c-7.606,-1.076 -14.994,-3.432 -20.022,-8.95c-6.699,-7.354 -5.55,-16.558 -2.387,-25.214c4.502,-12.32 13.449,-23.94 21.179,-31.945c41.657,-43.148 98.955,-67.068 152.374,-92.82l47.273,22.218Z" style="fill:#7e4121;"/><path d="M1558.4,2370.92c-53.105,-61.935 -45.936,-155.334 16,-208.439c61.935,-53.106 155.334,-45.937 208.439,15.999c53.105,61.936 45.936,155.334 -15.999,208.44c-61.936,53.105 -155.334,45.936 -208.44,-16Z" style="fill:#fed7dc;"/><path d="M1545.75,2381.77c59.093,68.919 163.022,76.896 231.94,17.803c68.919,-59.093 76.896,-163.022 17.804,-231.941c-59.093,-68.918 -163.022,-76.896 -231.941,-17.803c-68.919,59.093 -76.896,163.022 -17.803,231.941Zm25.305,-21.697c-47.118,-54.953 -40.757,-137.821 14.195,-184.939c54.953,-47.118 137.821,-40.757 184.939,14.196c47.117,54.952 40.757,137.82 -14.196,184.938c-54.952,47.118 -137.82,40.757 -184.938,-14.195Z" style="fill:#7e4021;"/><path d="M526.485,2426.36c-94.512,-18.495 -159.629,105.104 -158.861,99.716c3.025,-21.224 24.71,-36.914 36.256,-73.896c12.585,-40.308 24.101,-95.27 -20.424,-129.654c-38.729,-29.908 -94.185,-18.036 -115.084,3.83c-47.552,49.755 -39.943,132.67 -25.194,192.941c0.328,1.341 2.246,5.874 0.889,7.133c-2.772,2.57 -7.357,-12.613 -21.259,-46.336c-12.227,-29.659 -82.352,-101.405 -141.575,-48.474c-73.404,65.607 4.683,112.939 44.345,142.658c17.954,13.453 66.298,34.951 64.466,34.205c-67.96,-27.65 -142.222,-20.123 -166.68,47.075c-21.096,57.962 17.803,104.197 70.863,98.299c36.224,-4.026 47.829,-14.314 77.583,-34.937c1.679,-1.164 12.814,-10.932 15.145,-8.298c0.169,0.19 -82.115,110.73 -20.615,179.633c47.781,53.533 114.948,-1.59 122.586,-35.755c3.386,-15.143 5.92,-30.593 7.302,-46.054c0.638,-7.143 0.741,-18.384 1.455,-21.465c4.468,16.007 27.089,159.889 112.929,148.274c57.885,-7.832 75.808,-89.152 57.473,-125.541c-11.63,-23.082 -28.348,-42.501 -44.699,-62.292c-0.241,-0.292 -4.284,-4.956 -3.301,-5.328c14.486,-5.485 116.624,126.938 192.436,43.457c52.692,-58.023 0.111,-141.304 -79.105,-143.458c-19.842,-0.539 -39.646,2.05 -59.475,2.966c-1.208,0.056 -16.561,-1.42 -16.072,-1.566c76.162,-22.836 127.99,-78.943 132.285,-121.979c4.006,-40.134 -26.131,-87.808 -63.669,-95.154Z" style="fill:#f8a5b0;"/><path d="M215.661,2440.96c-10.263,-11.178 -23.203,-22.283 -37.787,-30.565c-32.264,-18.322 -71.644,-23.467 -107.748,8.801c-26.876,24.021 -35.994,46.649 -35.848,66.677c0.14,19.171 8.962,36.826 22.433,52.468c12.91,14.99 30.189,28.148 45.416,39.356c-42.359,4.555 -78.045,27.162 -94.424,72.163c-12.837,35.269 -6.686,66.89 10.011,88.877c17.034,22.43 45.417,35.348 78.354,31.687c20.372,-2.265 33.696,-6.209 46.244,-12.574c-5.816,14.133 -10.883,29.939 -13.5,46.254c-5.333,33.242 -0.724,68.326 25.094,97.251c35.726,40.027 80.085,32.086 111.963,9.511c17.912,-12.685 31.324,-30.18 37.104,-45.452c4.916,12.368 10.853,24.83 17.989,36.16c20.515,32.574 50.425,55.809 91.885,50.2c35.375,-4.787 59.224,-31.266 70.743,-62.871c10.22,-28.041 10.265,-59.639 1.796,-81.232c42.905,25.238 95.125,37.922 139.473,-10.913c62.395,-68.707 2.812,-168.772 -90.99,-171.323l-0.009,-0c16.907,-11.65 31.264,-24.753 42.584,-38.263c17.927,-21.395 28.3,-44.019 30.294,-64c2.829,-28.34 -8.504,-59.977 -27.808,-82.537c-13.481,-15.754 -30.734,-27.007 -49.244,-30.629c-38.893,-7.611 -73.55,5.354 -101.787,25.387c-0.854,0.606 -1.703,1.219 -2.539,1.837c10.52,-42.96 12.177,-93.997 -31.717,-127.893c-27.417,-21.172 -61.878,-24.891 -90.434,-18.672c-19.79,4.31 -36.633,13.45 -46.885,24.178c-31.716,33.184 -41.539,79.899 -40.663,126.117Zm307.623,1.758c14.67,2.871 27.519,14.12 36.684,28.075c9.623,14.653 15.246,32.598 13.602,49.068c-1.442,14.448 -9.714,30.433 -22.676,45.902c-21.397,25.536 -55.603,49.112 -97.811,61.767c-3.56,1.067 -5.643,2.838 -6.921,4.096c-6.154,6.064 -6.665,12.67 -3.102,19.546c0.396,0.765 3.177,7.361 12.452,8.857c2.605,0.421 17.877,1.742 19.199,1.681c19.422,-0.898 38.817,-3.483 58.251,-2.954c64.659,1.758 110.23,68.232 67.221,115.592c-25.738,28.342 -55.341,25.223 -81.76,13.182c-20.497,-9.341 -39.34,-23.745 -54.306,-35.707c-15.412,-12.32 -27.667,-22.131 -34.338,-24.786c-6.477,-2.579 -11.781,-1.972 -15.596,-0.528c-6.52,2.469 -10.451,7.268 -10.89,14.856c-0.126,2.178 0.142,5.83 2.311,9.821c1.322,2.432 4.653,6.514 4.933,6.854c15.558,18.831 31.598,37.213 42.664,59.176c7.521,14.926 6.802,39.06 -0.929,60.272c-7.332,20.116 -21.379,38.207 -43.895,41.253c-27.221,3.683 -45.74,-13.543 -59.209,-34.931c-24.395,-38.734 -32.866,-92.115 -35.432,-101.307c-2.047,-7.336 -8.808,-12.351 -16.422,-12.182c-7.615,0.168 -14.146,5.478 -15.867,12.897c-0.79,3.41 -1.113,15.839 -1.82,23.746c-1.317,14.739 -3.739,29.466 -6.966,43.902c-2.378,10.635 -12.785,23.399 -26.056,32.797c-19.286,13.658 -46.217,19.711 -67.831,-4.504c-18.463,-20.686 -20.864,-46.002 -17.05,-69.774c6.37,-39.702 29.781,-75.794 36.83,-86.194c8.532,-12.585 0.983,-23.499 0.881,-23.615c-4.038,-4.561 -10.563,-7.793 -19.435,-5.218c-5.513,1.6 -15.877,9.613 -17.684,10.866c-26.903,18.647 -37.178,28.43 -69.93,32.07c-20.124,2.237 -37.719,-5.013 -48.126,-18.717c-10.744,-14.149 -13.495,-34.621 -5.234,-57.317c21.107,-57.993 86.086,-61.2 144.737,-37.337c6.318,2.571 37.875,-19.27 12.366,-30.995c-6.331,-2.91 -45.189,-20.471 -60.557,-31.986c-15.15,-11.352 -36.273,-25.272 -51.558,-42.047c-9.09,-9.976 -16.313,-20.838 -16.404,-33.264c-0.093,-12.8 7.554,-26.231 24.729,-41.582c23.121,-20.665 48.412,-16.402 69.075,-4.668c22.719,12.901 40.736,34.336 45.985,47.068c12.239,29.686 18.574,46.033 21.917,50.05c4.309,5.178 9.046,6.497 12.576,6.81c4.702,0.417 9.315,-0.769 13.507,-4.655c2.948,-2.734 5.179,-6.567 5.704,-11.584c0.373,-3.558 -1.875,-12.248 -1.875,-12.248c-0,0 0.103,0.37 0.139,0.515c-7.007,-28.631 -12.411,-62.631 -10.322,-95.392c1.946,-30.52 10.331,-60.052 31.376,-82.071c6.467,-6.767 17.399,-11.92 29.881,-14.639c19.852,-4.323 43.908,-2.234 62.968,12.485c38.15,29.46 25.484,76.958 14.701,111.495c-6.386,20.455 -16.306,33.757 -23.687,45.421c-6.73,10.635 -11.635,20.388 -13.16,31.091c-0.351,2.46 -0.119,4.332 0.131,5.627c1.493,7.754 6.331,11.079 11.042,12.677c3.254,1.104 7.686,1.732 12.93,-0.92c0.826,-0.418 4.302,-2.372 7.885,-7.638c6.126,-9.002 29.176,-46.135 64.075,-70.894c21.169,-15.018 46.94,-25.566 76.097,-19.861Z" style="fill:#7e4021;"/><path d="M349.678,2512.61c-63.702,-17.148 -119.409,29.597 -137.415,58.426c-11.577,18.535 -16.849,40.442 -19.841,62.166c-14.333,104.081 91.243,184.203 187.454,133.398c144.443,-76.275 56.53,-230.644 -30.198,-253.99Z" style="fill:#fed7dc;"/><path d="M354.011,2496.51c-72.167,-19.426 -135.485,33.032 -155.884,65.691c-12.813,20.514 -18.904,44.678 -22.216,68.722c-16.18,117.497 103.135,207.763 211.748,150.409c48.599,-25.664 73.191,-59.691 81.955,-94.787c10.242,-41.014 -1.354,-84.245 -24.533,-119.414c-22.988,-34.882 -57.248,-61.516 -91.07,-70.621l-0,0Zm-8.665,32.188c26.888,7.238 53.627,29.046 71.903,56.776c18.086,27.443 28.017,60.991 20.025,92.995c-6.865,27.492 -27.112,53.284 -65.181,73.387c-83.809,44.256 -175.646,-25.721 -163.16,-116.386c2.672,-19.405 7.125,-39.054 17.466,-55.611c15.614,-24.999 63.707,-66.031 118.947,-51.161l0,-0Z" style="fill:#7e4021;"/><path d="M292.589,2844.1c-35.295,-31.436 -85.519,-49.074 -119.595,-3.33c-19.808,26.59 -24.769,50.729 -20.346,71.273c4.164,19.337 16.752,35.732 34.26,48.197c16.347,11.638 37.014,19.837 58.608,23.886c-45.874,22.705 -88.064,69.54 -50.912,120.249c19.595,26.747 41.211,38.582 62.148,40.39c19.707,1.702 39.077,-5.513 56.136,-18.585c15.928,-12.206 29.838,-29.551 40.053,-49.002c8.223,50.52 40.593,104.61 99.981,83.999c31.323,-10.871 48.988,-28.055 56.868,-47.536c7.418,-18.337 6.213,-38.973 -1.27,-59.12c-6.986,-18.811 -19.478,-37.204 -35.069,-52.683c50.706,6.985 111.92,-8.063 109.669,-70.885c-1.187,-33.135 -12.422,-55.069 -28.727,-68.326c-15.348,-12.478 -35.427,-17.39 -56.883,-16.158c-20.033,1.151 -41.285,7.686 -60.663,18.041c21.577,-46.416 25.18,-109.348 -35.53,-125.657c-32.021,-8.601 -56.288,-4.307 -73.751,7.383c-16.437,11.003 -27.032,28.752 -32.159,49.623c-3.679,14.976 -4.529,31.574 -2.818,48.241Z" style="fill:#fff;"/><path d="M275.883,2811.5c-38.47,-22.014 -83.555,-24.581 -116.255,19.316c-23.484,31.524 -28.517,60.381 -23.273,84.737c5.012,23.277 19.812,43.262 40.887,58.266c8.633,6.146 18.338,11.453 28.722,15.815c-37.942,30.519 -59.975,76.588 -24.805,124.593c23.232,31.71 49.336,45.001 74.158,47.145c23.722,2.049 47.174,-6.226 67.708,-21.961c8.412,-6.446 16.336,-14.164 23.557,-22.808c18.023,45.235 55.583,79.833 111.804,60.321c37.137,-12.889 57.511,-33.935 66.855,-57.031c8.929,-22.073 7.91,-46.921 -1.097,-71.172c-3.689,-9.934 -8.738,-19.777 -14.878,-29.219c48.533,-3.935 92.641,-29.671 90.51,-89.144c-1.408,-39.284 -15.538,-64.944 -34.869,-80.661c-18.475,-15.021 -42.525,-21.349 -68.353,-19.865c-10.579,0.608 -21.471,2.541 -32.3,5.636c10.5,-47.547 -1.14,-97.27 -58.613,-112.709c-37.964,-10.198 -66.643,-4.231 -87.346,9.629c-19.787,13.245 -32.902,34.374 -39.073,59.497c-1.551,6.312 -2.661,12.881 -3.339,19.615l0,-0Zm5.621,45.048c5.135,4.573 12.552,5.523 18.674,2.392c6.122,-3.13 9.693,-9.7 8.991,-16.54c-1.51,-14.704 -0.822,-29.351 2.424,-42.563c4.082,-16.62 12.155,-30.987 25.245,-39.75c14.224,-9.522 34.072,-12.142 60.155,-5.136c49.038,13.173 42.169,65.044 24.741,102.535c-3.022,6.502 -1.548,14.207 3.66,19.134c5.209,4.927 12.985,5.97 19.308,2.591c17.184,-9.181 35.998,-15.08 53.764,-16.101c17.086,-0.981 33.191,2.514 45.413,12.451c13.281,10.798 21.618,29 22.585,55.991c1.818,50.744 -49.781,59.419 -90.739,53.777c-7.102,-0.978 -14.034,2.695 -17.213,9.121c-3.179,6.427 -1.892,14.166 3.196,19.217c13.826,13.727 24.993,29.978 31.188,46.659c5.959,16.044 7.351,32.465 1.444,47.067c-6.419,15.868 -21.368,29.185 -46.883,38.04c-47.97,16.649 -71.424,-30.123 -78.066,-70.93c-1.152,-7.077 -6.7,-12.624 -13.776,-13.774c-7.077,-1.15 -14.096,2.354 -17.43,8.702c-9.058,17.249 -21.31,32.698 -35.435,43.522c-13.584,10.409 -28.871,16.565 -44.564,15.209c-17.054,-1.473 -34.176,-11.848 -50.138,-33.635c-30.009,-40.96 7.807,-77.122 44.861,-95.462c6.426,-3.18 10.097,-10.113 9.117,-17.215c-0.98,-7.103 -6.392,-12.782 -13.439,-14.103c-19.149,-3.59 -37.516,-10.762 -52.013,-21.083c-13.941,-9.925 -24.317,-22.729 -27.633,-38.128c-3.603,-16.734 1.284,-36.148 17.418,-57.807c27.15,-36.446 67.025,-19.227 95.145,5.819Z" style="fill:#7e4021;"/><path d="M327.524,2843.66c-84.549,27.513 -80.969,93.809 -74.802,126.993c17.521,94.282 128.335,112.576 189.819,55.359c85.784,-79.83 6.046,-221.747 -115.017,-182.352Z" style="fill:#ffce7b;"/><path d="M322.366,2827.81c-38.805,12.627 -61.102,32.825 -73.83,54.413c-19.05,32.31 -16.436,68.678 -12.2,91.473c20.108,108.204 146.996,130.18 217.559,64.515c59.316,-55.199 49.89,-136.157 2.78,-182.284c-31.176,-30.525 -78.913,-46.144 -134.309,-28.117l0,-0Zm10.315,31.697c41.455,-13.49 77.344,-2.606 100.674,20.238c34.648,33.925 41.457,93.466 -2.168,134.064c-52.407,48.77 -147.145,34.16 -162.079,-46.203c-3.164,-17.028 -6.088,-44.318 8.142,-68.453c9.458,-16.041 26.596,-30.263 55.431,-39.646l0,-0Z" style="fill:#7e4021;"/></g></svg>