<?xml version="1.0" encoding="UTF-8" standalone="no"?><!DOCTYPE svg PUBLIC "-//W3C//DTD SVG 1.1//EN" "http://www.w3.org/Graphics/SVG/1.1/DTD/svg11.dtd"><svg width="100%" height="100%" viewBox="0 0 1393 3917" version="1.1" xmlns="http://www.w3.org/2000/svg" xmlns:xlink="http://www.w3.org/1999/xlink" xml:space="preserve" xmlns:serif="http://www.serif.com/" style="fill-rule:evenodd;clip-rule:evenodd;stroke-linejoin:round;stroke-miterlimit:2;"><g id="Milk"><path d="M296.157,382.572c-75.231,20.792 -118.87,-76.223 -115.61,-127.596c5.157,-81.286 68.883,-149.042 138.412,-178.599c199.313,-84.731 484.783,-69.797 707.769,-9.086c144.948,39.464 218.035,193.03 92.185,300.135c-64.491,54.886 -105.035,0.178 -259.009,-14.049c-193.389,-17.87 -438.368,-5.456 -563.747,29.195Z" style="fill:#e0f0ff;"/><path d="M300.596,398.637c124.049,-34.284 366.438,-46.344 557.774,-28.664c75.959,7.018 123.922,24.11 160.866,32.59c43.167,9.908 73.306,9.193 110.479,-22.444c55.427,-47.172 75.14,-102.829 69.429,-155.056c-8.433,-77.124 -73.766,-148.187 -168.037,-173.853c-226.423,-61.647 -516.284,-76.208 -718.668,9.828c-74.91,31.845 -142.969,105.306 -148.525,192.882c-1.82,28.686 9.177,70.2 31.408,101.555c23.927,33.748 60.061,55.657 105.274,43.162l0,-0Zm-8.879,-32.129c-30.022,8.297 -53.315,-7.903 -69.203,-30.312c-17.582,-24.798 -26.773,-57.478 -25.334,-80.165c4.759,-74.996 64.15,-137.045 128.3,-164.316c196.241,-83.425 477.32,-68.119 696.87,-8.343c79.669,21.691 136.531,80.136 143.658,145.315c4.663,42.641 -12.643,87.533 -57.896,126.047c-27.32,23.25 -49.695,22.622 -81.419,15.341c-37.944,-8.71 -87.241,-26.086 -165.256,-33.294c-195.442,-18.06 -443.01,-5.292 -569.72,29.727l-0,-0Z" style="fill:#7e4021;"/><path d="M296.157,382.572c-41.025,667.801 -241.881,621.239 -259.127,1122.7c-31.7,921.769 -32.681,2089.47 44.991,2205.75c35.759,53.534 312.668,188.015 596.211,189.204c282.437,1.184 571.455,-130.716 635.268,-184.174c96.879,-81.158 64.497,-1326 9.079,-2247.94c-32.039,-533.001 -259.434,-501.295 -275.79,-1076.85c-41.035,-4.638 -105.879,-28.286 -186.885,-37.891c-175.201,-20.775 -468.948,-8.314 -563.747,29.195Z" style="fill:#fff;"/><path d="M290.025,367.075c-6.013,2.379 -10.107,8.021 -10.504,14.475c-20.329,330.932 -80.183,484.878 -137.17,618.199c-58.184,136.122 -113.252,251.23 -121.978,504.953c-22.207,645.758 -29.331,1412.12 -4.956,1853.73c7.371,133.543 17.682,237.616 31.22,300.117c6.355,29.339 13.801,50.165 21.525,61.729c11.521,17.248 45.796,43.098 97.134,69.782c113.221,58.849 311.395,125.986 512.866,126.83c287.318,1.205 581.125,-133.682 646.041,-188.064c7.373,-6.177 14.723,-17.322 20.945,-33.719c11.772,-31.024 21.283,-83.669 28.4,-153.819c39.59,-390.238 10.06,-1335.67 -34.333,-2074.18c-16.209,-269.666 -81.75,-396.503 -145.396,-528.697c-62.13,-129.048 -122.292,-263.359 -130.37,-547.623c-0.236,-8.297 -6.541,-15.156 -14.788,-16.088c-41.015,-4.635 -105.827,-28.279 -186.795,-37.88c-177.726,-21.074 -475.675,-7.801 -571.841,30.249Zm22.078,27.44c102.485,-34.143 378.827,-44.391 545.838,-24.588c72.162,8.557 131.506,28.246 172.628,35.734c9.821,281.787 70.574,417.104 133.217,547.216c62.151,129.091 126.327,252.902 142.156,516.237c44.278,736.596 73.93,1679.58 34.443,2068.81c-5.796,57.124 -13.019,102.072 -22.033,132.305c-4.879,16.364 -9.406,27.895 -15.555,33.046c-62.71,52.534 -346.939,181.447 -624.495,180.283c-195.488,-0.819 -387.774,-65.973 -497.633,-123.073c-44.271,-23.011 -74.854,-43.848 -84.789,-58.721c-8.592,-12.863 -15.495,-39.867 -22.075,-78.576c-10.632,-62.549 -18.886,-153.919 -25.105,-266.592c-24.336,-440.903 -17.185,-1206.03 4.987,-1850.75c8.52,-247.742 62.503,-360.085 119.315,-492.998c57.378,-134.238 117.768,-288.983 139.101,-618.335l-0,-0Z" style="fill:#7e4021;"/><path d="M1309.82,3565.99c1.166,-7.18 -2.508,-14.554 -9.427,-17.77c-1.194,-0.555 -20.647,-4.683 -23.487,12.476c-0.114,0.686 -0.505,4.212 -0.514,4.3c-0.241,2.576 -0.512,5.148 -0.812,7.717c-0.952,8.144 -2.39,16.243 -3.935,24.293c-4.704,24.503 -9.918,48.945 -18.303,72.477c-3.087,8.665 1.441,18.206 10.106,21.294c8.665,3.087 18.206,-1.441 21.294,-10.106c8.955,-25.131 14.615,-51.212 19.638,-77.381c1.699,-8.848 3.261,-17.754 4.308,-26.706c0.329,-2.821 0.627,-5.645 0.892,-8.473l0.24,-2.121Zm-1.763,5.217c-4.136,7.735 -13.66,10.984 -21.713,7.241c4.51,2.096 9.232,2.281 14.156,-0.051c1.907,-0.902 5.182,-2.672 7.557,-7.19Zm0.387,-0.77l-0.06,0.12l0.058,-0.115l0.002,-0.005Z" style="fill:#7e4021;"/><path d="M1210.07,3646.15c-1.215,4.243 -8.429,29.4 -9.999,34.057c-2.938,8.717 1.753,18.179 10.47,21.117c8.717,2.939 18.179,-1.753 21.117,-10.469c2.045,-6.066 10.927,-34.89 11.693,-41.433c1.121,-9.559 -4.149,-14.447 -6.004,-15.98c-7.091,-5.859 -17.605,-4.859 -23.464,2.232c-2.536,3.069 -3.787,6.779 -3.813,10.476Z" style="fill:#7e4021;"/><path d="M307.516,788.653c-22.317,73.748 -49.966,156.592 -78.922,228.017c-3.456,8.524 0.659,18.251 9.184,21.707c8.525,3.456 18.251,-0.659 21.707,-9.184c29.321,-72.325 57.338,-156.207 79.936,-230.885c2.664,-8.805 -2.321,-18.116 -11.125,-20.78c-8.805,-2.664 -18.116,2.321 -20.78,11.125Z" style="fill:#7e4021;"/><path d="M198.866,1070.92c-8.46,18.889 -31.345,58.033 -34.137,66.747c-2.807,8.76 2.027,18.15 10.787,20.957c8.76,2.806 18.15,-2.027 20.957,-10.787c2.655,-8.286 24.769,-45.329 32.815,-63.292c3.76,-8.395 -0.004,-18.264 -8.399,-22.023c-8.395,-3.76 -18.263,0.003 -22.023,8.398Z" style="fill:#7e4021;"/><path d="M1037.63,159.386c30.115,15.333 50.318,45.591 52.75,60.884c1.446,9.084 9.994,15.286 19.079,13.841c9.084,-1.445 15.286,-9.994 13.841,-19.078c-3.344,-21.021 -29.151,-64.276 -70.546,-85.351c-8.197,-4.174 -18.24,-0.907 -22.414,7.29c-4.174,8.197 -0.907,18.241 7.29,22.414Z" style="fill:#7e4021;"/><path d="M1084.32,279.838c-2.381,10.737 -10.101,18.297 -18.124,23.363c-7.953,5.022 -16.33,7.919 -21.214,7.667c-9.186,-0.473 -17.028,6.601 -17.501,15.788c-0.474,9.186 6.601,17.028 15.787,17.501c9.242,0.476 25.677,-3.269 40.725,-12.771c14.975,-9.456 28.425,-24.291 32.87,-44.331c1.992,-8.98 -3.682,-17.888 -12.663,-19.88c-8.98,-1.992 -17.888,3.682 -19.88,12.663Z" style="fill:#7e4021;"/><path d="M907.902,2625.39c-51.438,-16.68 -479.876,-69.351 -521.169,127.727c-23.796,113.565 155.96,155.891 220.738,164.992c113.073,15.886 343.074,6.129 393.692,-100.862c42.707,-90.269 -5.654,-163.449 -93.261,-191.857Z" style="fill:#f8bcc4;"/><path d="M839.827,2596.93c-70.378,-8.049 -176.62,-12.595 -269.697,4.901c-6.915,1.3 -13.753,2.725 -20.487,4.279c15.148,-24.984 25.114,-73.832 23.052,-129.735c-2.075,-56.252 -15.769,-104.482 -32.866,-128.129c-10.836,-14.988 -23.812,-21.63 -36.17,-21.174c-12.359,0.456 -24.81,8.035 -34.513,23.781c-15.307,24.842 -25.411,73.95 -23.336,130.202c2.075,56.252 15.769,104.482 32.865,128.129c4.419,6.112 9.194,10.836 14.138,14.257c-62.443,24.532 -109.492,64.684 -122.393,126.253c-11.022,52.603 14.617,92.493 55.416,121.515c55.138,39.222 138.766,57.702 179.316,63.399c69.573,9.775 182.308,10.011 272.581,-15.006c63.936,-17.718 116.437,-48.607 138.496,-95.232c19.152,-40.481 21.539,-77.943 11.738,-110.307c-14.558,-48.07 -56.571,-85.61 -114.924,-104.532l-0,-0c-3.172,-1.029 -7.742,-2.194 -13.547,-3.433c3.643,-3.432 7.091,-7.691 10.249,-12.815c15.307,-24.841 25.411,-73.949 23.336,-130.201c-2.075,-56.253 -15.769,-104.483 -32.865,-128.129c-10.837,-14.988 -23.812,-21.63 -36.171,-21.174l0,0c-12.358,0.456 -24.809,8.035 -34.512,23.781c-15.308,24.842 -25.412,73.95 -23.337,130.202c2.075,56.252 15.77,104.482 32.866,128.128c0.253,0.351 0.508,0.697 0.765,1.04Zm62.934,44.309c46.778,15.168 81.633,43.951 93.303,82.485c7.684,25.372 5.048,54.655 -9.966,86.39c-18.438,38.972 -63.826,62.556 -117.267,77.365c-85.786,23.774 -192.926,23.409 -259.041,14.12c-37.183,-5.224 -114.073,-21.587 -164.632,-57.552c-29.67,-21.105 -50.128,-49.264 -42.113,-87.517c15.204,-72.563 89.02,-106.108 173.243,-121.94c133.874,-25.164 296.369,-3.113 326.473,6.649l0,-0Z" style="fill:#7e4021;"/><path d="M517.083,2721.69c-9.354,5.401 -15.773,14.927 -17.973,27.313c-2.442,13.751 0.607,31.722 10.329,48.559c9.721,16.838 23.76,28.464 36.889,33.225c11.826,4.288 23.286,3.492 32.64,-1.909c9.354,-5.4 15.773,-14.927 17.973,-27.313c2.442,-13.75 -0.607,-31.721 -10.329,-48.559c-9.721,-16.838 -23.76,-28.463 -36.889,-33.224c-11.826,-4.288 -23.286,-3.492 -32.64,1.908Zm377.932,0c-9.354,-5.4 -20.814,-6.196 -32.64,-1.908c-13.129,4.761 -27.168,16.386 -36.889,33.224c-9.722,16.838 -12.771,34.809 -10.329,48.559c2.2,12.386 8.619,21.913 17.973,27.313c9.354,5.401 20.814,6.197 32.64,1.909c13.13,-4.761 27.168,-16.387 36.89,-33.225c9.721,-16.837 12.77,-34.808 10.328,-48.559c-2.2,-12.386 -8.619,-21.912 -17.973,-27.313Z" style="fill:#7e4021;"/><path d="M909.231,2168.54c76.147,-67.898 69.953,-156.892 84.741,-165.591c44.511,-26.183 124.538,188.535 43.33,267.548c-75.783,73.736 -185.278,-50.947 -128.071,-101.957Z" style="fill:#ebccb8;"/><path d="M479.804,2168.54c-76.147,-67.898 -69.952,-156.892 -84.741,-165.591c-44.511,-26.183 -124.538,188.535 -43.33,267.548c75.784,73.736 185.278,-50.947 128.071,-101.957Z" style="fill:#ebccb8;"/><path d="M995.446,2309.51c0.681,1.72 1.594,3.253 2.563,4.553c0.424,0.568 0.884,1.109 1.377,1.618c50.045,51.772 98.29,69.812 140.324,69.114c64.047,-1.065 115.238,-46.287 140.542,-91.219c11.291,-20.049 17.387,-40.033 17.919,-56.005c0.468,-14.032 -3.282,-25.552 -10.096,-33.545c-5.131,-6.019 -13.256,-10.449 -24.359,-12.062c-10.904,-1.585 -25.625,-0.514 -42.335,2.75c-48.828,9.538 -116.606,37.491 -148.353,53.478c9.406,-19.901 14.317,-42.848 15.531,-66.874c2.829,-55.985 -14.302,-117.623 -35.768,-155.307c-10.632,-18.665 -22.793,-31.713 -33.887,-37.505c-11.677,-6.097 -23.028,-6.012 -33.382,0.078c-3.515,2.068 -7.014,5.473 -9.831,10.78c-2.928,5.52 -5.514,14.652 -8.356,26.456c-7.541,31.315 -19.258,85.753 -69.196,130.282c-29.164,26.004 -26.728,66.96 -4.251,100.818c21.761,32.781 61.309,57.581 101.558,52.59Zm-679.439,-61.318c-31.746,-15.987 -99.525,-43.94 -148.352,-53.478c-16.711,-3.264 -31.432,-4.335 -42.336,-2.75c-11.102,1.613 -19.228,6.043 -24.358,12.062c-6.814,7.993 -10.565,19.513 -10.097,33.545c0.532,15.972 6.628,35.956 17.919,56.005c25.304,44.932 76.495,90.154 140.542,91.219c42.034,0.698 90.279,-17.342 140.325,-69.114c0.492,-0.509 0.952,-1.05 1.376,-1.618c0.969,-1.3 1.882,-2.833 2.563,-4.553c40.249,4.991 79.797,-19.809 101.559,-52.59c22.476,-33.858 24.912,-74.814 -4.252,-100.818l-0,-0c-49.938,-44.529 -61.655,-98.967 -69.195,-130.282c-2.843,-11.804 -5.428,-20.936 -8.357,-26.456c-2.816,-5.307 -6.316,-8.712 -9.831,-10.78c-10.354,-6.09 -21.705,-6.175 -33.382,-0.078c-11.094,5.792 -23.255,18.84 -33.887,37.505c-21.466,37.684 -38.597,99.322 -35.768,155.307c1.214,24.026 6.126,46.973 15.531,66.874Zm947.007,-22.14c2.708,3.594 2.285,9.273 1.352,15.774c-1.53,10.653 -6.153,22.954 -13.159,35.394c-20.3,36.047 -60.669,73.392 -112.051,74.246c-31.179,0.518 -65.859,-12.6 -102.52,-46.029c16.304,-9.35 38.486,-20.205 40.45,-21.501c16.803,-11.089 96.44,-45.91 150.685,-56.507c10.543,-2.059 20.021,-3.213 27.668,-2.809c2.866,0.151 6.755,1.201 7.575,1.432Zm-910.615,79.385c-36.661,33.429 -71.341,46.547 -102.52,46.029c-51.382,-0.854 -91.751,-38.199 -112.051,-74.246c-7.006,-12.44 -11.629,-24.741 -13.159,-35.394c-0.933,-6.501 -1.356,-12.18 1.352,-15.774c0.82,-0.231 4.709,-1.281 7.575,-1.432c7.647,-0.404 17.125,0.75 27.668,2.809c54.245,10.597 133.882,45.418 150.685,56.507c1.964,1.296 24.146,12.151 40.45,21.501Zm32.581,-287.058c1.159,3.67 2.983,9.718 4.313,15.244c8.557,35.536 22.751,96.829 79.419,147.358l-0,-0c16.624,14.823 11.476,38.204 -1.336,57.503c-21.307,32.098 -67.394,55.705 -104.021,20.069c-19.87,-19.334 -28.036,-48.214 -29.588,-78.918c-2.498,-49.42 12.492,-103.86 31.441,-137.125c4.841,-8.499 9.865,-15.528 14.989,-20.392c1.61,-1.529 3.19,-2.812 4.783,-3.739Zm619.075,-0c1.593,0.927 3.173,2.21 4.783,3.739c5.124,4.864 10.148,11.893 14.989,20.392c18.949,33.265 33.939,87.705 31.441,137.125c-1.551,30.704 -9.718,59.584 -29.588,78.918c-36.627,35.636 -82.713,12.029 -104.021,-20.069c-12.812,-19.299 -17.96,-42.68 -1.336,-57.503c56.668,-50.529 70.862,-111.822 79.419,-147.358c1.33,-5.526 3.154,-11.574 4.313,-15.244Z" style="fill:#7e4021;"/></g></svg>