<?xml version="1.0" encoding="UTF-8" standalone="no"?><!DOCTYPE svg PUBLIC "-//W3C//DTD SVG 1.1//EN" "http://www.w3.org/Graphics/SVG/1.1/DTD/svg11.dtd"><svg width="100%" height="100%" viewBox="0 0 2938 3086" version="1.1" xmlns="http://www.w3.org/2000/svg" xmlns:xlink="http://www.w3.org/1999/xlink" xml:space="preserve" xmlns:serif="http://www.serif.com/" style="fill-rule:evenodd;clip-rule:evenodd;stroke-linejoin:round;stroke-miterlimit:2;"><g id="Milk-Pitcher" serif:id="Milk Pitcher"><path d="M52.166,148c-5.314,3.166 12.17,169.927 16.777,279.628c16.286,387.794 47.697,618.849 42.817,1007.62c-2.077,165.47 -11.157,330.876 -29.433,495.367c-25.477,229.289 -119.573,496.886 -21.269,710.957c242.231,527.488 1268.22,456.875 1610.57,359.896c133.676,-37.866 265.803,-102.626 366.762,-199.319c290.125,-277.866 129.427,-663.516 74.012,-1003.19c-35.351,-216.688 -36.406,-435.573 -34.808,-654.505c1.61,-220.539 -6.079,-802.678 -19.565,-867.627c-39.293,-189.238 -478.748,-260.011 -797.63,-259.509c-306.526,0.482 -633.768,55.663 -693.782,65.072c-154.399,24.207 -360.065,41.134 -514.452,65.61Z" style="fill:#e0f0ff;"/><path d="M49.556,131.539c-2.091,0.332 -4.1,1.059 -5.919,2.142c-2.286,1.362 -5.009,3.611 -6.909,7.75c-0.792,1.724 -1.966,5.622 -2.165,11.656c-1.005,30.448 13.563,176.061 17.728,275.24c16.271,387.445 47.68,618.291 42.804,1006.71c-2.07,164.925 -11.117,329.786 -29.333,493.736c-12.735,114.609 -42.623,238.792 -57.039,361.074c-14.79,125.451 -13.222,248.902 37.189,358.678c98.971,215.521 325.286,334.407 584.509,391.806c383.661,84.952 838.725,35.815 1045.75,-22.829c136.253,-38.597 270.843,-104.761 373.748,-203.319c149.079,-142.78 182.826,-313.079 171.69,-491.492c-10.869,-174.143 -64.963,-356.055 -92.757,-526.419c-35.199,-215.759 -36.182,-433.708 -34.59,-651.7c1.616,-221.433 -6.373,-805.925 -19.913,-871.137c-16.65,-80.186 -99.452,-142.261 -216.445,-185.488c-167.295,-61.813 -404.317,-87.604 -597.531,-87.3c-307.653,0.484 -636.102,55.83 -696.336,65.274c-154.408,24.208 -360.085,41.137 -514.481,65.614Zm18.346,30.882c152.769,-23.391 351.246,-40.04 501.298,-63.565c59.793,-9.374 385.827,-64.391 691.226,-64.872c189.444,-0.298 421.894,24.627 585.925,85.234c53.329,19.704 99.315,43.124 133.797,70.886c32.374,26.066 54.438,55.796 61.563,90.112c13.432,64.685 20.821,644.471 19.218,864.117c-1.605,219.871 -0.478,439.692 35.025,657.31c27.622,169.311 81.584,350.062 92.386,523.129c10.536,168.798 -20.431,330.256 -161.477,465.342c-99.013,94.829 -228.678,158.184 -359.776,195.32c-203.8,57.731 -651.776,105.985 -1029.46,22.356c-248.34,-54.989 -466.609,-166.7 -561.424,-373.171c-47.893,-104.295 -48.429,-221.679 -34.377,-340.866c14.425,-122.356 44.322,-246.616 57.064,-361.295c18.337,-165.034 27.451,-330.984 29.535,-496.998c4.884,-389.124 -26.531,-620.388 -42.831,-1008.53c-3.83,-91.206 -16.667,-222.03 -17.693,-264.507Z" style="fill:#7e4021;"/><path d="M156.811,2065.38c-5.245,42.231 -30.192,149.411 -38.804,250.084c-11.819,138.144 0.163,222.033 57.492,351.023c3.735,8.405 13.593,12.197 21.999,8.461c8.405,-3.736 12.197,-13.594 8.461,-21.999c-54.652,-122.967 -66.007,-202.95 -54.74,-334.643c8.569,-100.168 33.453,-206.799 38.671,-248.818c1.134,-9.128 -5.357,-17.46 -14.486,-18.593c-9.128,-1.134 -17.46,5.357 -18.593,14.485Z" style="fill:#fff;"/><path d="M235.191,2741.39c6.061,7.643 12.61,14.864 19.584,21.685c23.521,23.005 50.929,48.81 80.952,62.938c8.323,3.916 18.26,0.339 22.176,-7.984c3.917,-8.323 0.34,-18.26 -7.983,-22.177c-26.778,-12.602 -50.858,-36.087 -71.837,-56.607c-5.972,-5.841 -11.583,-12.021 -16.773,-18.566c-5.716,-7.208 -16.207,-8.419 -23.415,-2.704c-7.208,5.715 -8.419,16.207 -2.704,23.415Z" style="fill:#fff;"/><path d="M52.166,148c-5.314,3.166 141.146,89.465 294.667,142.072c82.927,28.417 107.767,86.524 266.438,142.77c245.684,87.091 709.921,59.813 918.943,34.286c385.843,-47.12 534.266,-104.217 525.816,-190.301c-39.293,-189.238 -478.748,-260.011 -797.63,-259.509c-306.526,0.482 -633.768,55.663 -693.782,65.072c-154.399,24.207 -360.065,41.134 -514.452,65.61Z" style="fill:#a8ccf1;"/><path d="M49.556,131.539c-2.091,0.332 -4.1,1.059 -5.919,2.142c-3.163,1.884 -5.268,4.407 -6.633,7.274c-1.66,3.487 -2.643,8.063 -0.419,13.658c0.687,1.73 2.789,5.628 8.069,9.796c21.602,17.052 156.213,93.263 296.776,141.43c31.553,10.812 54.189,26.28 79.744,44.209c41.178,28.889 89.249,64.019 186.529,98.503c247.718,87.812 715.778,60.859 926.532,35.121c234.362,-28.621 382.099,-61.329 461.023,-101.379c60.407,-30.653 83.287,-67.074 79.359,-107.094c-0.058,-0.591 -0.148,-1.179 -0.268,-1.76c-16.65,-80.186 -99.452,-142.261 -216.445,-185.488c-167.295,-61.813 -404.317,-87.604 -597.531,-87.3c-307.653,0.484 -636.102,55.83 -696.336,65.274c-154.408,24.208 -360.085,41.137 -514.481,65.614Zm47.247,26.61c148.27,-21.208 331.639,-37.225 472.397,-59.293c59.793,-9.374 385.827,-64.391 691.226,-64.872c189.444,-0.298 421.894,24.627 585.925,85.234c53.329,19.704 99.315,43.124 133.797,70.886c32.09,25.837 54.05,55.274 61.372,89.209c2.345,28.475 -18.204,51.362 -61.346,73.255c-77,39.073 -221.331,70.093 -449.98,98.017c-207.292,25.315 -667.705,52.918 -911.354,-33.452c-93.125,-33.011 -139.102,-66.717 -178.522,-94.372c-28.176,-19.768 -53.293,-36.534 -88.082,-48.455c-103.868,-35.593 -204.525,-86.715 -255.433,-116.157Z" style="fill:#7e4021;"/><path d="M323.792,436.283c-24.129,107.119 -44.09,215.038 -65.229,322.766c-15.146,77.185 -29.649,154.568 -43.857,231.921c-1.662,9.048 4.334,17.742 13.382,19.404c9.047,1.661 17.741,-4.335 19.403,-13.382c14.183,-77.221 28.662,-154.472 43.782,-231.524c21.079,-107.425 40.976,-215.043 65.037,-321.86c2.022,-8.974 -3.623,-17.901 -12.596,-19.922c-8.974,-2.021 -17.901,3.623 -19.922,12.597Z" style="fill:#7e4021;"/><path d="M2078.52,815.287c-5.643,52.549 -47.082,108.828 -96.81,105.692c-59.611,-3.758 -112.44,-49.547 -121.655,-134.058c-6.551,-60.085 -0.681,-151.968 116.59,-229.038c133.564,-87.777 548.73,-9.903 666.305,37.698c53.822,21.791 124.975,45.423 191.427,140.898c216.989,311.759 -13.429,1224.25 -272.763,1451.21c-109.5,95.832 -190.68,109.473 -282.828,170.906c-80.953,53.968 -52.688,248.383 -187.648,257.883c-105.851,7.452 -134.255,-211.033 -56.752,-306.287c112.372,-138.109 282.175,-156.485 393.106,-259.455c140.04,-129.99 228.633,-488.981 259.648,-674.979c40.023,-240.027 89.817,-456.93 -104.79,-594.912c-127.811,-90.622 -484.452,-146.022 -503.83,34.439Z" style="fill:#e0f0ff;"/><path d="M2095.09,817.066c6.908,-64.326 63.531,-92.902 134.328,-101.412c115.243,-13.853 269.13,26.207 343.291,78.79c92.586,65.646 126.852,150.163 133.393,246.72c6.796,100.314 -15.62,213.215 -35.403,331.854c-18.465,110.735 -57.471,283.272 -115.757,431.439c-38.125,96.918 -84.254,183.445 -138.79,234.067c-54.298,50.401 -123.168,79.822 -192.05,113.82c-72.414,35.741 -144.822,76.265 -202.645,147.332c-49.731,61.121 -59.391,169.588 -34.149,244.939c18.46,55.102 55.331,91.988 104.999,88.492c75.137,-5.29 106.442,-60.401 128.626,-123.353c9.855,-27.967 18.011,-57.32 28.738,-83.007c9.471,-22.681 20.68,-42.496 38.359,-54.282c92.753,-61.835 174.341,-75.77 284.559,-172.231c157.555,-137.888 305.793,-525.181 350.737,-881.528c30.192,-239.382 13.287,-464.512 -75.271,-591.748c-69.106,-99.288 -142.879,-124.164 -198.851,-146.825c-83.435,-33.779 -314.67,-82.747 -492.359,-78.475c-78.832,1.895 -147.305,14.663 -189.355,42.297c-125.204,82.284 -130.999,180.622 -124.004,244.773c10.305,94.508 70.512,144.682 137.174,148.885c24.295,1.532 47.132,-8.121 66.037,-24.875c26.153,-23.177 44.58,-60.156 48.393,-95.672l0,0Zm-33.142,-3.559c-2.958,27.544 -17.076,56.309 -37.359,74.284c-12.052,10.681 -26.343,17.531 -41.832,16.555c-52.563,-3.314 -98.009,-44.712 -106.134,-119.232c-6.109,-56.02 -0.164,-141.446 109.174,-213.303c51.323,-33.729 146.106,-40.789 248.386,-35.641c157.571,7.93 332.909,46.681 402.512,74.86c51.672,20.92 120.203,43.309 184.001,134.97c85.034,122.172 98.549,338.681 69.559,568.535c-43.829,347.506 -185.972,726.149 -339.618,860.615c-108.783,95.204 -189.553,108.551 -281.098,169.58c-18.514,12.343 -32.316,30.88 -43.331,53.095c-14.727,29.7 -24.531,66.277 -36.714,100.851c-17.666,50.134 -39.69,96.967 -99.528,101.18c-35.035,2.466 -58.03,-26.962 -71.051,-65.83c-21.965,-65.566 -14.875,-160.128 28.398,-213.313c54.549,-67.043 123.228,-104.761 191.542,-138.478c71.845,-35.461 143.341,-66.712 199.974,-119.281c57.497,-53.37 106.937,-144.115 147.133,-246.295c59.196,-150.479 98.864,-325.695 117.616,-438.158c20.241,-121.388 42.734,-236.951 35.781,-339.59c-7.208,-106.398 -45.348,-199.322 -147.37,-271.659c-79.213,-56.164 -243.457,-99.49 -366.549,-84.693c-88.11,10.591 -154.896,50.891 -163.492,130.948l-0,0Z" style="fill:#7e4021;"/><path d="M2762.59,793.839c16.992,26.75 29.835,56.853 40.786,86.47c25.42,68.745 29.045,143.998 33.948,216.457c0.621,9.178 8.576,16.125 17.754,15.504c9.177,-0.621 16.124,-8.577 15.503,-17.754c-5.116,-75.604 -9.417,-154.04 -35.941,-225.768c-11.758,-31.798 -25.67,-64.061 -43.913,-92.781c-4.932,-7.765 -15.24,-10.064 -23.005,-5.132c-7.764,4.932 -10.064,15.24 -5.132,23.004Z" style="fill:#fff;"/><path d="M2837.99,1174.2c2.278,20.319 -3.582,103.52 -4.293,114.89c-0.573,9.181 6.414,17.1 15.595,17.674c9.181,0.574 17.1,-6.414 17.674,-15.595c0.656,-10.493 5.361,-79.914 4.744,-110.027c-0.166,-8.091 -0.93,-14.041 -1.773,-16.852c-1.082,-3.609 -2.75,-5.967 -4.09,-7.457c-6.15,-6.841 -16.697,-7.401 -23.537,-1.251c-5.349,4.809 -6.858,12.307 -4.32,18.618Z" style="fill:#fff;"/></g></svg>