<?xml version="1.0" encoding="UTF-8" standalone="no"?><!DOCTYPE svg PUBLIC "-//W3C//DTD SVG 1.1//EN" "http://www.w3.org/Graphics/SVG/1.1/DTD/svg11.dtd"><svg width="100%" height="100%" viewBox="0 0 3366 3571" version="1.1" xmlns="http://www.w3.org/2000/svg" xmlns:xlink="http://www.w3.org/1999/xlink" xml:space="preserve" xmlns:serif="http://www.serif.com/" style="fill-rule:evenodd;clip-rule:evenodd;stroke-linejoin:round;stroke-miterlimit:2;"><g id="Moka-Pot-Pink" serif:id="Moka Pot-Pink"><path d="M2149.67,2267.89c-230.262,2.353 -926.737,-182.807 -928.468,-181.666c-8.217,5.413 -93.647,54.238 -113.139,72.882c-16.657,15.933 -98.678,804.766 -93.149,882.177c2.462,34.465 18.222,67.389 33.934,97.667c29.77,57.37 87.343,189.614 136.215,230.902c56.682,47.887 151.154,71.47 219.24,92.515c141.096,43.611 295.24,85.499 444.627,91.38c55.639,2.191 618.045,-85.147 677.518,-135.061c49.733,-41.74 285.966,-257.868 306.364,-296.751c42.688,-81.374 -42.076,-522.545 -58.543,-630.703c-4.496,-29.531 -34.049,-347.291 -41.528,-355.966c-23.539,-27.305 -95.899,-52.284 -129.966,-63.157c-2.811,-0.897 -288.583,194.1 -453.105,195.781Z" style="fill:#f8a5b0;"/><path d="M2149.5,2251.23c-206.286,2.108 -788.411,-147.284 -904.042,-176.293c-12.399,-3.11 -19.806,-4.887 -21.296,-5.132c-7.387,-1.213 -11.305,1.964 -12.13,2.508c-8.399,5.533 -95.564,55.696 -115.489,74.755c-1.63,1.559 -4.685,5.595 -6.802,12.972c-3.558,12.394 -8.771,43.541 -14.803,87.226c-29.476,213.501 -81.091,733.012 -76.648,795.21c2.622,36.709 19.03,71.908 35.764,104.157c30.482,58.741 90.213,193.682 140.253,235.957c58.258,49.218 155.095,74.076 225.074,95.706c142.441,44.027 298.082,86.173 448.894,92.111c39.269,1.546 328.962,-40.843 519.782,-83.857c57.805,-13.03 106.611,-26.156 136.934,-38.049c14.975,-5.873 25.892,-11.772 32.172,-17.043c34.966,-29.347 161.726,-144.512 241.658,-224.37c35.839,-35.805 62.32,-65.147 68.75,-77.404c13.564,-25.857 16.297,-85.924 11.16,-160.563c-11.348,-164.896 -56.426,-404.466 -67.985,-480.392c-3.594,-23.602 -23.197,-231.49 -34.725,-318.138c-2.462,-18.511 -4.675,-31.825 -6.241,-37.365c-1.352,-4.784 -3.313,-7.557 -4.415,-8.836c-10.561,-12.25 -29.637,-24.445 -51.466,-35.015c-29.963,-14.507 -65.079,-26.442 -86.057,-33.138c-1.767,-0.564 -5.495,-1.678 -10.795,0.197c-1.025,0.363 -5.26,2.559 -11.995,6.742c-29.656,18.423 -129.459,82.282 -236.297,130.723c-69.497,31.511 -141.925,56.746 -199.255,57.331Zm455.177,-160.981c20.148,6.584 49.37,16.866 74.695,29.128c15.729,7.616 30,15.76 38.621,24.487c0.827,4.492 3.229,17.917 4.986,31.123c11.55,86.818 31.213,295.111 34.813,318.76c11.494,75.496 56.401,313.699 67.685,477.662c2.837,41.221 3.56,77.64 0.942,105.322c-1.533,16.216 -3.979,29.103 -8.367,37.468c-5.808,11.072 -30.415,36.963 -62.79,69.308c-79.232,79.158 -204.869,193.329 -239.528,222.418c-6.192,5.197 -18.863,10.434 -36.107,16.376c-29.377,10.121 -70.949,20.923 -118.9,31.732c-187.683,42.306 -472.517,84.587 -511.141,83.066c-147.964,-5.825 -300.61,-47.454 -440.362,-90.65c-66.192,-20.459 -158.299,-42.767 -213.406,-89.322c-18.441,-15.58 -37.905,-45.101 -56.77,-78.127c-29.874,-52.3 -57.617,-113.437 -75.407,-147.721c-14.689,-28.306 -29.801,-58.956 -32.103,-91.178c-4.404,-61.659 47.199,-576.625 76.42,-788.276c5.553,-40.218 12.536,-75.22 14.1,-82.891c19.913,-17.038 81.258,-52.611 101.999,-64.946c3.435,0.835 8.189,2.001 13.29,3.281c116.696,29.276 704.307,179.42 912.493,177.293c61.126,-0.625 138.582,-26.708 212.68,-60.304c108.553,-49.22 209.989,-114.049 240.121,-132.767l2.036,-1.242Z" style="fill:#7e4021;"/><path d="M1230.32,1862.27c-8.985,52.762 -21.753,257.228 0.881,306.739c24.406,53.39 101.86,95.292 150.826,120.45c301.587,154.954 892.706,99.67 1115.67,2.403c56.357,-24.585 124.438,-80.197 151.595,-138.33c18.736,-40.106 -3.085,-302.675 -23.552,-308.862c-58.106,-17.567 -422.368,31.774 -500.928,35.664c-168.728,8.352 -725.683,-14.631 -894.497,-18.064Z" style="fill:#e0f0ff;"/><path d="M1230.66,1845.61c-8.252,-0.168 -15.384,5.729 -16.77,13.865c-6.386,37.501 -14.706,150.476 -11.21,232.132c1.595,37.245 6.026,68.283 13.364,84.335c10.74,23.493 30.558,45.185 54.232,64.264c33.199,26.757 73.919,48.555 104.135,64.08c122.517,62.949 292.009,92.074 465.873,97.633c259.622,8.302 528.826,-35.773 664.083,-94.777c59.59,-25.996 131.317,-85.085 160.031,-146.552c5.009,-10.722 8.176,-35.624 8.626,-67.518c0.959,-67.965 -7.866,-170.233 -18.879,-221.267c-3.206,-14.86 -6.903,-25.885 -10.3,-31.729c-4.064,-6.992 -9.213,-10.129 -13.275,-11.357c-18.301,-5.533 -65.523,-5.382 -124.901,-1.455c-131.878,8.719 -326.723,33.706 -381.675,36.426c-168.509,8.342 -724.739,-14.651 -893.334,-18.08Zm1385.29,13.844c1.397,4.047 4.04,12.108 5.61,19.382c10.639,49.302 19.058,148.108 18.132,213.766c-0.358,25.378 -1.511,45.348 -5.496,53.879c-25.599,54.798 -90.035,106.933 -143.16,130.108c-132.305,57.716 -395.732,100.134 -649.689,92.014c-168.524,-5.388 -332.951,-32.95 -451.704,-93.965c-28.542,-14.665 -67.093,-35.112 -98.452,-60.385c-19.366,-15.608 -36.048,-32.952 -44.834,-52.17c-6.243,-13.656 -9.019,-40.214 -10.376,-71.902c-3.025,-70.644 2.989,-165.466 8.719,-210.92l-0,-0c184.517,4.346 716.612,25.857 880.94,17.722c55.031,-2.725 250.159,-27.726 382.226,-36.459c49.014,-3.241 88.883,-4.65 108.084,-1.07Z" style="fill:#7e4021;"/><path d="M3186.41,974.093c125.92,98.137 174.338,8.677 160.175,-18.504c-27.316,-52.423 -144.639,-137 -254.892,-185.687c-95.919,-42.358 -160.835,67.22 -109.546,116.413c51.715,49.603 127.365,27.848 204.263,87.778Z" style="fill:#7e4021;"/><path d="M3176.17,987.239c101.748,79.298 160.253,45.314 180.234,11.329c10.846,-18.448 11.178,-38.759 4.967,-50.68c-11.661,-22.379 -38.349,-50.57 -74.117,-79.283c-51.281,-41.164 -121.347,-84.152 -188.823,-113.949c-79.71,-35.2 -140.869,19.035 -149.816,74.143c-4.101,25.262 2.463,50.805 22,69.545c22.881,21.946 49.799,31.672 79.546,39.195c38.402,9.712 82.087,15.469 126.009,49.7l-0,0Zm20.49,-26.291c-40.702,-31.721 -80.954,-42.102 -117.994,-50.838c-31.961,-7.539 -61.358,-13.168 -84.977,-35.823c-15.311,-14.685 -15.883,-36.704 -7.511,-55.67c13.726,-31.095 51.838,-54.201 98.787,-33.469c64.827,28.627 132.156,69.904 181.422,109.452c31.264,25.096 55.23,49.131 65.423,68.691c0.881,1.692 0.626,4.043 0.237,6.578c-1.026,6.686 -4.752,14.177 -11.041,20.258c-19.714,19.063 -59.511,21.35 -124.346,-29.179l0,-0Z" style="fill:#7e4021;"/><path d="M2170.37,977.4c-305.034,40.342 -1194.27,-148.53 -1193.84,-144.328c4.695,46.355 190.996,1024.69 238.51,1068.24c39.935,36.607 332.098,132.759 404.436,154.035c112.272,33.021 656.419,-3.608 697.292,-11.782c86.079,-17.216 318.248,-138.166 322.42,-154.852c13.974,-55.896 214.106,-427.941 306.973,-562.159c66.175,-95.642 173.713,-240.485 250.228,-243.154c100.909,-3.521 122.218,-49.456 152.03,-109.051c0.103,-0.205 -49.873,38.599 -85.738,14.144c-73.907,-50.395 -73.201,-70.692 -171.994,-87.051c-172.803,-28.614 -318.979,-36.221 -374.167,-33.694c-218.829,10.018 -332.181,81.355 -546.146,109.652Z" style="fill:#ee909d;"/><path d="M2168.19,960.878c-273.318,36.147 -1017.69,-113.033 -1163.53,-140.084c-16.633,-3.085 -26.486,-4.492 -28.246,-4.453c-7.404,0.165 -10.849,4.008 -12.193,5.483c-3.505,3.846 -4.748,8.218 -4.271,12.928c3.766,37.183 124.009,672.454 196.375,947.43c12.9,49.021 24.373,86.781 33.384,108.09c5.106,12.072 10.221,19.797 14.071,23.326c12.673,11.617 49.089,29.441 96.305,48.557c104.667,42.374 263.802,94.215 314.69,109.182c113.555,33.398 663.924,-3.161 705.263,-11.429c70.127,-14.025 235.586,-95.396 301.092,-136.188c14.845,-9.244 24.953,-16.925 28.98,-21.484c3.212,-3.636 4.635,-7.024 5.249,-9.481c13.844,-55.376 212.506,-423.747 304.509,-556.718c39.139,-56.566 92.88,-130.652 145.963,-181.391c32.322,-30.895 63.586,-53.629 91.142,-54.59c44.246,-1.543 74.419,-10.958 96.924,-25.362c33.328,-21.332 50.071,-54.191 69.43,-92.888c0.194,-0.39 -8.381,-32.506 -25.954,-20.046c-4.286,3.04 -19.422,13.379 -36.856,17.003c-9.342,1.941 -19.56,2.018 -28.445,-4.041c-76.65,-52.265 -76.199,-72.757 -178.661,-89.723c-174.407,-28.88 -321.95,-36.451 -377.651,-33.901c-219.387,10.045 -333.059,81.41 -547.569,109.78l-0,-0Zm-1171.69,-107.685l2.079,0.376c147.139,27.29 898.236,176.822 1173.98,140.354l0,0c213.42,-28.225 326.452,-99.533 544.723,-109.526c54.676,-2.503 199.484,5.139 370.682,33.487c95.127,15.752 94.163,35.854 165.327,84.379c16.94,11.55 36.198,12.837 54.007,9.135c0.95,-0.197 1.896,-0.409 2.833,-0.639c-9.024,14.216 -19.55,26.48 -34.205,35.86c-18.556,11.877 -43.636,18.851 -80.118,20.124c-33.661,1.174 -73.527,26.066 -113.012,63.807c-54.619,52.208 -110.069,128.316 -150.341,186.52c-91.894,132.812 -287.471,496.549 -308.389,563.919c-2.961,2.292 -11.708,8.924 -20.558,14.436c-63.146,39.322 -222.409,118.277 -290.009,131.797c-28.425,5.685 -301.86,25.063 -501.617,25.021c-84.055,-0.018 -154.848,-3.222 -187.703,-12.885c-50.386,-14.82 -207.953,-66.144 -311.587,-108.1c-42.058,-17.027 -75.002,-31.884 -86.29,-42.232c-2.849,-2.612 -5.495,-10.126 -9.553,-20.99c-7.985,-21.379 -17.546,-53.887 -28.191,-94.337c-65.843,-250.195 -171.646,-800.261 -192.058,-920.506Z" style="fill:#7e4021;"/><path d="M959.268,860.46c-235.779,38.087 -557.516,125.879 -513.279,486.24c44.632,363.58 475.589,529.596 288.433,730.899c-59.265,63.744 -169.763,58.628 -250.326,26.031c-396.242,-160.329 -597.396,-786.085 -375.461,-1185.61c133.366,-240.085 384.064,-450.412 761.587,-393.156c224.487,34.046 259.571,308.051 89.046,335.597Z" style="fill:#cc967f;"/><path d="M961.926,876.914c77.049,-12.447 117.055,-69.332 120.955,-135.701c5.577,-94.92 -65.094,-210.828 -210.16,-232.828c-385.898,-58.526 -642.331,156.13 -778.656,401.54c-113.11,203.621 -118.866,464.861 -45.397,695.654c73.634,231.312 226.776,431.604 429.177,513.5c86.578,35.032 205.094,38.372 268.783,-30.131c33.059,-35.558 48.227,-70.324 50.889,-104.94c3.879,-50.43 -19.515,-101.344 -57.246,-155.468c-43.991,-63.105 -107.454,-131.418 -163.267,-211.225c-54.329,-77.684 -101.438,-166.463 -114.473,-272.646c-42.811,-348.749 271.213,-430.895 499.395,-467.755l0,-0Zm-5.316,-32.907c-243.383,39.315 -572.827,132.741 -527.164,504.724c13.745,111.965 62.954,205.773 120.242,287.688c55.803,79.792 119.255,148.09 163.239,211.183c32.65,46.836 54.712,90.211 51.355,133.85c-2.161,28.096 -15.235,55.939 -42.067,84.799c-54.843,58.989 -157.314,52.095 -231.868,21.929c-193.841,-78.433 -339.396,-271.182 -409.916,-492.712c-70.686,-222.049 -66.051,-473.45 42.773,-669.356c130.408,-234.758 375.371,-440.756 744.519,-384.771c124.321,18.855 186.661,116.571 181.882,197.917c-3.005,51.14 -33.624,95.158 -92.994,104.749l-0.001,-0Z" style="fill:#7e4021;"/><path d="M668.09,852.572c3.377,-1.48 6.286,-4.087 8.104,-7.618c3.588,-6.965 1.595,-11.934 0.448,-14.518c-2.405,-5.421 -6.828,-9.665 -14.739,-9.922c-1.488,-0.048 -3.5,0.072 -5.856,0.85c-1.106,0.366 -4.082,1.947 -5.303,2.736c-11.686,7.556 -24.029,13.871 -36.153,20.696c-24.004,13.514 -47.516,27.9 -70.397,43.238c-71.425,47.878 -131.445,104.91 -176.134,178.818c-4.759,7.872 -2.233,18.127 5.639,22.886c7.871,4.76 18.126,2.233 22.885,-5.638c42.12,-69.659 98.852,-123.252 166.17,-168.378c22.164,-14.856 44.939,-28.789 68.189,-41.879c12.458,-7.014 25.114,-13.553 37.147,-21.271Zm-23.373,-15.738c0.067,-2.415 0.664,-4.852 1.843,-7.142c-1.458,2.831 -1.836,5.247 -1.843,7.142Z" style="fill:#7e4021;"/><path d="M325.608,1194.13c-16.304,196.345 33.06,302.121 81.489,385.286c59.329,101.882 123.218,155.865 217.571,224.013c16.218,11.714 33.52,20.974 50.594,31.208c35.805,21.46 70.377,47.872 88.228,119.199c2.233,8.924 11.291,14.355 20.214,12.122c8.924,-2.234 14.355,-11.291 12.122,-20.215c-29.148,-116.463 -96.112,-129.23 -151.641,-169.336c-90.177,-65.132 -151.58,-116.392 -208.283,-213.765c-45.967,-78.936 -92.55,-179.392 -77.075,-365.754c0.761,-9.167 -6.063,-17.227 -15.23,-17.988c-9.168,-0.762 -17.228,6.063 -17.989,15.23Z" style="fill:#7e4021;"/><path d="M2250.67,448.373l-628.487,-8.025c-0,0 -560.856,135.829 -592.752,139.083c-25.755,2.629 -142.495,-146.583 -303.834,-31.931c-43.169,30.678 -114.813,130.783 -71.461,239.048c38.545,96.262 117.466,127.468 200.105,124.794c71.468,-2.313 92.601,-44.112 134.029,-36.127c52.302,10.08 514.883,183.523 567.109,192.587c63.929,11.095 643.693,6.996 804.807,-2.537c92.22,-5.457 424.288,-114.151 500.481,-155.822c76.667,-41.93 201.203,-5.771 285.574,4.222c0.551,0.065 -104.3,-44.12 -116.276,-73.407c-2.735,-6.69 89.298,-43.363 84.899,-49.728c-35.145,-50.857 -248.03,-80.255 -301.915,-110.543c-147.222,-82.751 -562.279,-231.614 -562.279,-231.614Z" style="fill:#f8a5b0;"/><path d="M1029.48,562.62c-1.3,-0.646 -4.475,-2.261 -6.929,-3.8c-7.987,-5.013 -18.159,-12.48 -30.332,-20.64c-57.241,-38.372 -155.033,-90.424 -276.275,-4.265c-46.737,33.212 -124.214,141.616 -77.28,258.829c41.672,104.068 126.777,138.146 216.117,135.256c38.881,-1.258 64.117,-13.09 85.22,-23.689c15.804,-7.937 28.238,-15.984 45.116,-12.73c52.328,10.085 515.16,183.574 567.413,192.642c64.234,11.148 646.76,7.258 808.642,-2.321c93.503,-5.532 430.24,-115.585 507.494,-157.836c28.221,-15.435 63.575,-18.895 100.708,-17.474c60.075,2.299 124.662,17.673 174.908,23.624c0.603,0.072 26.212,-24.07 5.897,-33.045c-11.312,-4.997 -55.538,-24.659 -84.614,-44.798c-4.411,-3.055 -8.528,-5.956 -11.918,-8.777c14.797,-7.858 36.883,-18.024 52.079,-26.041c12.273,-6.474 20.628,-13.045 22.823,-16.357c5.314,-8.019 3.632,-14.927 0.027,-20.143c-11.854,-17.154 -41.009,-33.304 -78.611,-46.793c-77.146,-27.675 -191.561,-47.845 -228.849,-68.804c-147.897,-83.131 -564.818,-232.773 -564.818,-232.773c-1.738,-0.624 -3.568,-0.954 -5.414,-0.978l-628.488,-8.024c-1.392,-0.018 -2.782,0.139 -4.135,0.467c-0,0 -542.437,131.505 -588.781,138.47Zm2058.92,225.922c-7.065,3.803 -15.75,8.374 -23.335,12.078c-19.715,9.626 -39.182,19.638 -44.875,24.807c-8.766,7.959 -7.526,16.548 -5.649,21.138c4.064,9.94 15.868,22.005 32.047,33.211l2.713,1.848c-26.064,-3.997 -52.771,-7.351 -78.65,-8.341c-43.569,-1.667 -84.865,3.428 -117.978,21.538c-75.133,41.091 -402.532,148.425 -493.468,153.806c-160.347,9.488 -737.348,13.796 -800.973,2.754c-52.199,-9.06 -514.53,-182.457 -566.805,-192.531c-20.393,-3.931 -36.909,1.304 -54.873,9.948c-20.289,9.762 -43.114,24.6 -82.849,25.886c-75.939,2.457 -148.674,-25.874 -184.094,-114.331c-39.77,-99.319 26.042,-191.125 65.643,-219.267c104.633,-74.355 189.008,-28.333 238.407,4.782c16.697,11.193 29.905,21.051 39.058,25.728c7.476,3.82 13.796,4.887 18.407,4.416c30.888,-3.152 556.045,-130.051 592.942,-138.972c-0.001,0 623.597,7.962 623.597,7.962l0.002,0.001c35.293,12.71 417.398,150.978 557.118,229.513c32.904,18.494 123.942,37.056 199.328,59.811c28.446,8.587 54.543,17.781 73.759,28.048c3.828,2.046 7.366,4.087 10.528,6.167Z" style="fill:#7e4021;"/><path d="M874.759,746.827c-57.828,38.973 -117.025,-48.118 -58.109,-86.79c61.598,-40.433 115.557,48.074 58.109,86.79Z" style="fill:#e0f0ff;"/><path d="M884.073,760.648c52.777,-35.568 33.627,-103.133 -10.172,-122.283c-18.755,-8.201 -42.165,-8.167 -66.397,7.739c-77.718,51.014 0.287,165.954 76.569,114.544l0,0Zm-18.629,-27.641c-39.373,26.535 -79.762,-32.706 -39.648,-59.037c12.73,-8.356 24.898,-9.372 34.751,-5.064c22.947,10.033 32.548,45.466 4.897,64.101l0,-0Z" style="fill:#7e4021;"/><path d="M1898.97,502.775c-120.994,-149.892 -179.998,-318.121 -149.395,-407.775c11.577,-33.916 36.651,-60.322 72.559,-67.692c58.625,-12.034 103.281,61.561 118.056,59.654c46.492,-5.999 89.316,-98.24 175.382,-60.181c199.975,88.431 -87.5,635.93 -216.602,475.994Z" style="fill:#d8bef1;"/><path d="M1941.69,69.706c-3.661,-3.137 -13.443,-11.562 -21.372,-18.739c-25.126,-22.749 -60.772,-48.353 -101.538,-39.986c-41.896,8.6 -71.473,39.063 -84.981,78.635c-13.092,38.355 -11.492,90.176 4.193,148.791c22.496,84.065 73.767,182.866 148.006,274.836l0,0.001c31.467,38.981 70.603,43.699 111.214,25.083c35.479,-16.263 72.583,-52.317 105.05,-99.029c56.799,-81.723 99.842,-195.865 98.651,-285.866c-0.863,-65.194 -24.64,-118.031 -78.603,-141.894c-49.837,-22.038 -87.228,-6.917 -118.817,15.148c-13.791,9.634 -26.342,20.646 -38.373,29.643c-8.071,6.035 -15.633,11.314 -23.43,13.377Zm-29.754,422.6c-70.954,-87.899 -120.243,-182.172 -141.743,-262.516c-13.646,-50.994 -16.238,-96.038 -4.848,-129.406c9.647,-28.261 30.217,-50.608 60.137,-56.75c16.166,-3.318 30.876,2.119 43.808,9.886c15.362,9.227 28.407,21.901 38.651,31.365c7.964,7.358 14.773,13.029 19.873,15.672c5.494,2.848 10.452,3.458 14.506,2.935c21.05,-2.716 42.111,-19.921 65.231,-38.189c26.301,-20.781 56.948,-42.882 101.278,-23.279c42.03,18.586 58.081,61.071 58.753,111.849c1.112,83.946 -39.714,190.176 -92.692,266.401c-28.522,41.037 -60.4,73.464 -91.569,87.752c-26.037,11.935 -51.211,9.274 -71.385,-15.719l-0,-0.001Z" style="fill:#7e4021;"/><path d="M1929.9,565.777c4.725,2.189 19.412,9.27 32.35,18.283c94.717,65.986 300.117,265.661 381.099,370.263c5.631,7.273 16.108,8.607 23.382,2.976c7.273,-5.631 8.607,-16.108 2.975,-23.382c-82.517,-106.585 -291.889,-309.97 -388.402,-377.208c-19.009,-13.242 -34.352,-21.382 -44.138,-23.831c-9.356,-2.342 -16.421,-0.657 -21.152,2.247c-79.722,48.925 -273.313,263.191 -339.451,368.881c-4.88,7.797 -2.511,18.09 5.287,22.969c7.797,4.88 18.09,2.511 22.969,-5.287c63.169,-100.943 245.74,-304.491 325.081,-355.911Z" style="fill:#7e4021;"/><path d="M1101.57,754.517c62.339,-21.417 618.222,-167.353 806.351,-206.657c9.004,-1.881 14.787,-10.719 12.906,-19.723c-1.881,-9.004 -10.719,-14.787 -19.723,-12.906c-189.069,39.5 -747.714,186.237 -810.365,207.761c-8.699,2.989 -13.335,12.479 -10.347,21.178c2.989,8.7 12.479,13.336 21.178,10.347Z" style="fill:#7e4021;"/><path d="M2699.03,754.177c-62.664,-21.529 -541.534,-199.437 -730.644,-238.946c-9.004,-1.881 -17.842,3.902 -19.723,12.906c-1.881,9.004 3.902,17.842 12.906,19.723c188.087,39.295 664.306,216.429 726.631,237.841c8.699,2.989 18.188,-1.647 21.177,-10.347c2.989,-8.699 -1.647,-18.189 -10.347,-21.177Z" style="fill:#7e4021;"/><path d="M2246.12,439.451c-103.909,30.505 -247.701,66.225 -288.55,80.368c-8.692,3.009 -13.306,12.509 -10.296,21.202c3.009,8.692 12.51,13.306 21.202,10.297c40.632,-14.068 183.676,-49.541 287.033,-79.883c8.826,-2.591 13.888,-11.861 11.297,-20.687c-2.591,-8.826 -11.86,-13.888 -20.686,-11.297Z" style="fill:#7e4021;"/><path d="M1930.05,526.845c-66.737,-18.813 -244.021,-79.67 -306.872,-97.317c-8.856,-2.487 -18.065,2.684 -20.552,11.54c-2.486,8.857 2.685,18.065 11.541,20.552c62.844,17.646 240.109,78.496 306.839,97.308c8.853,2.496 18.067,-2.665 20.563,-11.519c2.496,-8.853 -2.665,-18.068 -11.519,-20.564Z" style="fill:#7e4021;"/><path d="M1528.94,1190.43l81.026,703.011c1.053,9.138 9.327,15.702 18.465,14.649c9.138,-1.053 15.702,-9.327 14.649,-18.465l-81.026,-703.012c-1.054,-9.138 -9.328,-15.702 -18.466,-14.649c-9.138,1.054 -15.702,9.328 -14.648,18.466Z" style="fill:#7e4021;"/><path d="M2379.1,1186.62l-81.026,703.012c-1.053,9.138 5.511,17.412 14.649,18.465c9.138,1.053 17.412,-5.511 18.465,-14.649l81.026,-703.011c1.053,-9.138 -5.511,-17.412 -14.649,-18.466c-9.138,-1.053 -17.412,5.511 -18.465,14.649Z" style="fill:#7e4021;"/><path d="M2851.69,909.835c-60.87,265.019 -161.255,717.972 -235.99,979.543c-2.527,8.845 2.602,18.077 11.447,20.604c8.844,2.527 18.077,-2.602 20.604,-11.447c74.864,-262.025 175.45,-715.759 236.426,-981.238c2.059,-8.965 -3.547,-17.916 -12.513,-19.975c-8.965,-2.059 -17.915,3.548 -19.974,12.513Z" style="fill:#7e4021;"/><path d="M1858.49,3445.13c-3.889,-65.847 -1.676,-132.897 -2.265,-198.83c-0.984,-110.144 -0.708,-220.31 -0.549,-330.458c0.133,-92.101 6.988,-189.525 -15.966,-279.672c-15.212,-59.739 -49.672,-113.89 -98.945,-151.301c-67.813,-51.488 -181.328,-82.221 -280.072,-68.616c-67.925,9.359 -128.724,39.52 -164.536,96.439c-41.97,66.705 -62.371,179.291 -71.788,298.761c-13.748,174.41 -4.887,363.548 -12.642,438.275c-0.95,9.15 5.707,17.349 14.857,18.298c9.149,0.95 17.348,-5.707 18.298,-14.857c7.77,-74.868 -1.056,-264.359 12.717,-439.097c8.931,-113.295 26.971,-220.371 66.771,-283.629c30.53,-48.523 82.967,-73.19 140.872,-81.168c90,-12.401 193.558,15.214 255.366,62.143c43.282,32.862 73.437,80.503 86.799,132.977c22.272,87.47 15.065,182.033 14.936,271.398c-0.16,110.264 -0.435,220.545 0.55,330.805c0.601,67.207 -1.646,135.564 2.447,202.665c0.404,6.621 2.481,10.765 7.5,14.388c7.458,5.384 17.885,3.701 23.269,-3.757c3.2,-4.433 3.904,-9.915 2.381,-14.764Z" style="fill:#7e4021;"/><path d="M1859.13,3449.26c4.093,-67.101 1.847,-135.458 2.447,-202.665c0.986,-110.26 0.71,-220.541 0.551,-330.805c-0.129,-89.365 -7.337,-183.928 14.936,-271.398c13.361,-52.474 43.517,-100.115 86.798,-132.977c61.808,-46.929 165.367,-74.544 255.366,-62.143c57.905,7.978 110.343,32.645 140.872,81.168c39.754,63.183 59.808,150.146 71.118,250.595c17.417,154.685 13.634,340.8 23.781,523.507c0.51,9.184 8.381,16.227 17.565,15.716c9.185,-0.51 16.227,-8.38 15.717,-17.565c-10.183,-183.364 -6.459,-370.146 -23.939,-525.388c-11.954,-106.168 -34.011,-197.836 -76.028,-264.616c-35.812,-56.919 -96.611,-87.08 -164.536,-96.439c-98.744,-13.605 -212.259,17.128 -280.073,68.616c-49.273,37.411 -83.733,91.562 -98.944,151.301c-22.954,90.147 -16.1,187.571 -15.966,279.672c0.159,110.148 0.434,220.314 -0.55,330.458c-0.595,66.632 1.672,134.406 -2.386,200.934c-0.56,9.181 6.439,17.09 15.621,17.65c9.181,0.56 17.09,-6.439 17.65,-15.621Z" style="fill:#7e4021;"/><path d="M1309.84,2553.51c4.35,-30.533 3.374,-96.217 -1.791,-126.566c-16.341,-96.029 -60.597,-155.718 -134.914,-181.568c-8.688,-3.022 -18.195,1.578 -21.217,10.266c-3.022,8.688 1.578,18.195 10.266,21.217c63.2,21.983 99.108,74.013 113.004,155.677c4.745,27.88 5.648,88.223 1.652,116.273c-1.297,9.107 5.043,17.553 14.15,18.851c9.106,1.297 17.553,-5.043 18.85,-14.15Z" style="fill:#7e4021;"/><path d="M2443.68,2652.66c-7.44,-33.247 -9.829,-102.366 -0.996,-135.411c26.942,-100.793 98.937,-163.512 221.466,-190.644c8.981,-1.988 14.658,-10.894 12.669,-19.875c-1.988,-8.981 -10.894,-14.658 -19.876,-12.67c-137.022,30.342 -216.333,101.865 -246.462,214.582c-9.869,36.921 -7.642,114.15 0.671,151.297c2.008,8.976 10.927,14.633 19.904,12.625c8.976,-2.009 14.633,-10.928 12.624,-19.904Z" style="fill:#7e4021;"/><path d="M2054.83,1672.62c42.059,42.225 103.947,68.206 150.282,13.195c26.934,-31.977 34.995,-61.987 30.974,-88.178c-3.784,-24.652 -18.395,-46.236 -39.493,-63.243c-19.7,-15.88 -45.095,-27.756 -71.971,-34.478c59.45,-25.124 116.08,-80.898 73.136,-147.522c-22.651,-35.14 -48.968,-51.664 -75.184,-55.517c-24.676,-3.626 -49.601,3.997 -72.056,19.167c-20.967,14.164 -39.782,34.948 -54.104,58.662c-6.546,-64.208 -43.218,-134.726 -119.519,-113.254c-40.245,11.325 -63.772,31.624 -75.158,55.551c-10.717,22.522 -10.754,48.586 -2.853,74.508c7.378,24.203 21.716,48.294 40.175,68.952c-63.297,-12.61 -141.478,1.722 -143.374,80.964c-1.001,41.796 11.489,70.25 31.014,88.163c18.379,16.862 43.281,24.556 70.38,24.62c25.303,0.06 52.544,-6.566 77.714,-18.14c-30.653,56.798 -39.926,135.739 35.261,160.836c39.657,13.237 70.524,9.66 93.384,-3.739c21.518,-12.613 36.19,-34.155 44.214,-60.04c5.758,-18.573 8.077,-39.4 7.178,-60.507Z" style="fill:#fff;"/><path d="M2070.09,1707.38c46.07,32.654 103.199,42.079 147.77,-10.837c30.897,-36.683 39.313,-71.398 34.7,-101.444c-4.396,-28.636 -21.001,-53.935 -45.508,-73.69c-11.991,-9.666 -25.904,-18.002 -40.956,-24.753c51.821,-33.969 86.478,-89.991 45.67,-153.301c-25.984,-40.312 -56.694,-58.557 -86.769,-62.976c-28.663,-4.212 -57.725,4.225 -83.809,21.845c-12.763,8.622 -24.819,19.472 -35.695,31.875c-17.242,-59.515 -60.607,-109.104 -133.113,-88.7c-46.168,12.992 -72.631,36.985 -85.693,64.433c-12.448,26.161 -12.923,56.419 -3.745,86.529c4.491,14.733 11.319,29.445 19.979,43.486c-61.954,-1.007 -122.096,25.872 -123.898,101.173c-1.148,47.947 14.01,80.292 36.409,100.842c21.348,19.587 50.13,28.931 81.608,29.006c15.402,0.036 31.471,-2.168 47.436,-6.319c-19.167,58.923 -11.146,124.308 60.301,148.157c45.493,15.186 80.865,10.202 107.089,-5.17c24.995,-14.65 42.385,-39.416 51.705,-69.483c3.019,-9.738 5.188,-20.041 6.519,-30.673l0,-0Zm-3.451,-46.531c-4.853,-4.871 -12.199,-6.263 -18.498,-3.503c-6.298,2.76 -10.255,9.104 -9.962,15.974c0.815,19.136 -1.226,38.025 -6.446,54.863c-6.728,21.703 -18.681,40.021 -36.723,50.596c-19.497,11.428 -45.855,13.599 -79.679,2.309c-63.714,-21.268 -51.846,-88.981 -25.871,-137.112c3.405,-6.309 2.393,-14.089 -2.512,-19.318c-4.905,-5.229 -12.605,-6.735 -19.118,-3.739c-22.91,10.534 -47.68,16.67 -70.711,16.616c-22.722,-0.054 -43.743,-6.097 -59.152,-20.235c-16.654,-15.278 -26.474,-39.835 -25.62,-75.483c1.607,-67.15 69.818,-75.703 123.456,-65.018c7.031,1.401 14.171,-1.852 17.727,-8.077c3.557,-6.225 2.734,-14.027 -2.043,-19.374c-16.801,-18.802 -29.945,-40.676 -36.66,-62.706c-6.625,-21.734 -7.026,-43.603 1.96,-62.487c9.711,-20.407 30.297,-37.01 64.622,-46.669c64.659,-18.195 92.877,44.491 98.425,98.902c0.727,7.132 5.934,13 12.929,14.571c6.996,1.571 14.212,-1.509 17.918,-7.646c13.036,-21.584 30.082,-40.575 49.166,-53.467c18.828,-12.719 39.614,-19.529 60.304,-16.488c22.36,3.286 44.279,18.085 63.598,48.057c36.391,56.457 -15.236,101.85 -65.614,123.14c-6.604,2.791 -10.684,9.493 -10.129,16.641c0.554,7.148 5.617,13.14 12.573,14.88c24.462,6.118 47.623,16.831 65.554,31.285c17.69,14.259 30.306,32.126 33.48,52.797c3.429,22.338 -4.276,47.638 -27.248,74.911c-38.862,46.139 -90.451,21.195 -125.726,-14.22Z" style="fill:#7e4021;"/><path d="M2010.83,1670.55c108.49,-28.265 108.975,-111.979 103.712,-154.212c-14.955,-119.989 -153.057,-151.358 -234.753,-83.97c-113.985,94.023 -24.305,278.654 131.041,238.182Z" style="fill:#ffce7b;"/><path d="M2015.03,1686.67c48.47,-12.628 77.337,-35.634 94.514,-61.151c25.718,-38.206 25.055,-83 21.534,-111.25c-16.706,-134.041 -170.633,-170.045 -261.896,-94.766c-76.659,63.233 -71.063,163.033 -16.768,222.953c35.98,39.707 93.384,62.251 162.616,44.214l-0,0Zm-8.404,-32.256c-55.045,14.34 -100.904,-2.77 -129.511,-34.341c-42.585,-46.996 -46.847,-125.261 13.277,-174.855c72.131,-59.499 194.405,-32.767 207.609,73.174c2.795,22.429 4.31,58.179 -16.109,88.513c-13.581,20.176 -36.943,37.524 -75.266,47.509l-0,-0Z" style="fill:#7e4021;"/><path d="M1179.65,2473c-24.996,104.726 -140.414,77.433 -114.216,-28.169c27.39,-110.409 139.047,-75.868 114.216,28.169Z" style="fill:#e0f0ff;"/><path d="M1195.86,2476.87c15.213,-63.74 -14.682,-104.826 -49.278,-114.431c-34.795,-9.66 -80.448,10.345 -97.325,78.379c-16.153,65.11 14.778,104.622 50.174,113.171c35.407,8.552 81.013,-12.529 96.429,-77.119l0,-0Zm-32.422,-7.739c-9.597,40.208 -34.14,57.78 -56.182,52.456c-22.054,-5.326 -35.711,-32.175 -25.647,-72.743c10.54,-42.484 34.328,-60.319 56.056,-54.287c21.909,6.083 35.407,34.209 25.773,74.574l-0,0Z" style="fill:#7e4021;"/><path d="M1121.64,2454.93c-14.859,62.258 -83.473,46.033 -67.899,-16.746c16.283,-65.636 82.661,-45.102 67.899,16.746Z" style="fill:#e0f0ff;"/><path d="M1137.85,2458.8c10.181,-42.658 -10.908,-69.68 -34.061,-76.109c-23.357,-6.484 -54.897,5.812 -66.226,51.48c-10.845,43.713 11.036,69.736 34.8,75.476c23.775,5.742 55.135,-7.477 65.487,-50.847Zm-32.423,-7.739c-4.541,19.024 -14.81,28.703 -25.238,26.184c-10.443,-2.522 -15.039,-15.839 -10.274,-35.048c5.005,-20.172 14.64,-30.251 24.957,-27.387c10.484,2.911 15.165,16.935 10.555,36.251Z" style="fill:#7e4021;"/></g></svg>