<?xml version="1.0" encoding="UTF-8" standalone="no"?><!DOCTYPE svg PUBLIC "-//W3C//DTD SVG 1.1//EN" "http://www.w3.org/Graphics/SVG/1.1/DTD/svg11.dtd"><svg width="100%" height="100%" viewBox="0 0 3534 2564" version="1.1" xmlns="http://www.w3.org/2000/svg" xmlns:xlink="http://www.w3.org/1999/xlink" xml:space="preserve" xmlns:serif="http://www.serif.com/" style="fill-rule:evenodd;clip-rule:evenodd;stroke-linejoin:round;stroke-miterlimit:2;"><g id="Pastry-tongs" serif:id="Pastry tongs"><path d="M202.122,2464.82c-4.998,49.902 52.403,68.347 64.731,72.652c67.859,23.697 163.976,0.723 226.641,-26.032c220.773,-94.255 429.18,-224.845 635.016,-347.328c297.873,-177.251 613.483,-345.046 946.675,-445.898c136.967,-41.457 255.994,-71.026 397.031,-32.828c62.231,16.854 122.622,42.509 187.364,48.449c62.978,5.778 118.285,-27.665 146.934,-26.563c48.08,1.849 86.365,38.882 140.084,31.074c72.842,-10.588 90.922,-66.216 146.433,-98.318c45.194,-26.137 103.32,-4.397 149.356,-34.249c48.202,-31.255 47.022,-81.31 78.02,-122.124c26.26,-34.576 76.547,-39.987 102.745,-76.182c10.533,-14.552 91.88,-256.658 93.055,-277.663c3.063,-54.745 -34.557,-72.717 -42.016,-110.012c-7.054,-35.267 10.198,-67.331 -6.683,-105.251c-12.318,-27.671 -36.025,-55.948 -62.733,-70.669c-36.709,-20.234 -67.711,-8.065 -104.75,-16.205c-61.354,-13.485 -104.568,-46.127 -171.66,-43.187c-113.431,4.971 -227.87,48.223 -337.889,73.425c-100.615,23.049 -206.15,36.458 -304.143,69.332c-41.423,13.897 -89.17,29.61 -121.456,60.395c-39.488,37.651 -25.931,70.523 -44.607,111.432c-21.395,46.866 -97.552,37.482 -119.953,146.851c-22.347,109.108 60.77,209.197 -60.895,282.591c-90.379,54.52 -196.185,85.091 -292.865,126.385c-105.226,44.942 -206.947,97.093 -313.916,138.079c-178.768,68.495 -367.173,122.22 -550.564,177.34c-155.991,46.885 -331.772,62.4 -472.878,148.103c-115.059,69.883 -293.842,214.262 -307.077,346.401Z" style="fill:#e0f0ff;"/><path d="M185.538,2463.16c-3.19,31.847 13.001,53.911 32.487,68.446c17.048,12.716 36.45,19.198 43.333,21.602c71.432,24.944 172.716,1.724 238.681,-26.438c221.449,-94.545 430.526,-225.476 636.994,-348.335c296.723,-176.566 611.073,-343.805 942.981,-444.268c133.816,-40.503 250.053,-70.012 387.845,-32.693c63.155,17.104 124.496,42.931 190.198,48.959c40.205,3.688 77.523,-7.316 107.488,-16.72c16.524,-5.186 30.243,-10.174 40.328,-9.786c22.202,0.854 42.033,10.212 62.623,18.074c24.852,9.489 50.561,17.191 80.5,12.839c40.47,-5.882 65.855,-24.032 88.705,-45.415c19.68,-18.415 37.112,-39.608 63.674,-54.969c20.327,-11.755 43.692,-12.115 67.022,-13.522c28.778,-1.735 57.517,-4.608 83.058,-21.17c27.211,-17.644 40.769,-40.369 51.613,-64.669c9.099,-20.389 15.929,-42.026 30.612,-61.359c11.662,-15.355 28.974,-23.798 45.964,-32.857c21.358,-11.388 42.384,-23.427 57.009,-43.633c3.381,-4.671 14.064,-31.065 26.722,-66.602c28.181,-79.116 68.633,-204.89 69.473,-219.902c1.772,-31.678 -8.032,-52.771 -19.553,-71.286c-8.873,-14.26 -19.437,-26.304 -22.761,-42.926c-3.217,-16.081 -0.587,-31.429 0.618,-47.083c1.521,-19.757 1.298,-39.853 -8.418,-61.678c-13.701,-30.778 -40.206,-62.112 -69.914,-78.486c-21.026,-11.589 -40.363,-14.123 -59.801,-14.701c-15.969,-0.475 -31.988,0.644 -49.416,-3.187c-29.966,-6.585 -55.474,-17.932 -81.71,-27.191c-28.766,-10.151 -58.329,-17.942 -94.257,-16.368c-114.419,5.015 -229.905,48.409 -340.882,73.831c-101.143,23.169 -207.214,36.729 -305.722,69.776c-43.628,14.637 -93.652,31.711 -127.656,64.133c-22.854,21.791 -30.408,42.172 -34.901,63.051c-3.644,16.937 -4.599,34.318 -13.366,53.523c-7.211,15.796 -22.554,23.156 -38.679,33.223c-31.604,19.729 -67.642,44.956 -82.44,117.204c-9.324,45.522 -1.427,89.55 3.74,130.882c4.039,32.311 6.643,62.794 -6.808,90.58c-8.731,18.035 -24.351,34.664 -50.109,50.203c-89.724,54.125 -194.823,84.335 -290.803,125.328c-105.032,44.861 -206.559,96.933 -313.332,137.844c-178.388,68.349 -366.398,121.939 -549.398,176.942c-157.31,47.281 -334.433,63.391 -476.733,149.819c-70.282,42.687 -163.871,112.733 -230.445,190.952c-46.022,54.071 -78.975,112.237 -84.564,168.033l0,0Zm33.168,3.322c4.999,-49.916 35.609,-101.377 76.78,-149.75c64.213,-75.445 154.576,-142.894 222.365,-184.067c139.913,-84.978 314.352,-99.899 469.023,-146.387c183.782,-55.238 372.581,-109.096 551.73,-177.738c107.166,-41.06 209.081,-93.29 314.499,-138.315c97.381,-41.593 203.894,-72.526 294.928,-127.441c68.073,-41.064 78.83,-89.612 75.722,-143.14c-2.701,-46.509 -17.972,-97.336 -7.108,-150.378c12.083,-58.994 41.63,-79.508 67.436,-95.618c22.156,-13.83 41.443,-25.952 51.351,-47.655c8.124,-17.796 10.799,-34.15 13.642,-50.041c3.363,-18.804 6.978,-36.87 27.304,-56.251c30.569,-29.147 76.036,-43.498 115.256,-56.655c97.478,-32.703 202.478,-45.961 302.563,-68.888c109.062,-24.983 222.454,-68.092 334.898,-73.02c31.164,-1.366 56.753,5.694 81.705,14.5c27.483,9.698 54.259,21.415 85.647,28.314c16.016,3.52 30.979,3.64 45.719,3.781c17.841,0.171 35.35,0.152 54.564,10.742c23.708,13.068 44.617,38.288 55.552,62.851c8.811,19.793 6.357,37.805 4.77,55.632c-1.356,15.231 -2.35,30.383 0.796,46.109c3.42,17.102 12.023,30.827 21.31,44.956c10.453,15.903 21.99,32.601 20.409,60.857c-0.806,14.396 -40.567,134.707 -67.592,210.579c-11.003,30.888 -19.385,54.182 -22.324,58.243c-11.574,15.99 -28.788,24.752 -45.69,33.763c-21.269,11.34 -42.228,22.888 -56.827,42.11c-16.315,21.482 -24.395,45.279 -34.506,67.935c-8.365,18.746 -18.317,36.675 -39.308,50.286c-20.497,13.291 -43.835,14.473 -66.929,15.865c-28.543,1.721 -56.835,3.558 -81.704,17.94c-23.537,13.612 -40.839,31.076 -57.934,48.016c-21.815,21.618 -43.138,42.508 -82.552,48.236c-23.782,3.457 -44.073,-3.454 -63.814,-10.992c-24.003,-9.165 -47.353,-19.247 -73.232,-20.243c-12.836,-0.493 -30.563,4.691 -51.592,11.291c-26.36,8.273 -59.091,18.575 -94.46,15.33c-63.781,-5.852 -123.222,-31.335 -184.53,-47.939c-144.282,-39.077 -266.098,-9.448 -406.216,32.963c-334.478,101.241 -651.348,269.593 -950.37,447.527c-205.205,122.108 -412.941,252.357 -633.037,346.323c-59.368,25.347 -150.314,48.075 -214.602,25.625c-5.445,-1.901 -20.908,-6.793 -34.393,-16.852c-11.049,-8.241 -21.058,-20.346 -19.249,-38.404l-0,0Z" style="fill:#7e4021;"/><path d="M255.195,2428.56c0.476,-4.987 -1.295,-10.132 -5.248,-13.8c-6.742,-6.257 -17.296,-5.863 -23.554,0.88c-7.555,8.141 -8.854,19.058 0.073,30.992c5.389,7.204 16.751,15.967 29.188,23.605c17.03,10.46 35.776,19.168 39.256,20.32c20.414,6.758 41.346,6.818 62.462,3.817c111.596,-15.862 223.05,-77.689 319.944,-132.644c8.001,-4.538 10.813,-14.718 6.275,-22.719c-4.538,-8.002 -14.718,-10.813 -22.72,-6.275c-93.427,52.988 -200.586,113.342 -308.189,128.636c-15.981,2.271 -31.847,2.655 -47.296,-2.46c-3.6,-1.192 -26.752,-12.518 -42.441,-23.769c-2.681,-1.923 -5.75,-4.689 -7.75,-6.583Z" style="fill:#7e4021;"/><path d="M771.959,2168.78c-1.714,0.479 -3.456,1.047 -4.38,1.572c-28.174,16.03 -57.136,30.492 -86.367,44.48c-84.924,40.64 -170.228,87.922 -261.383,113.367c-11.187,3.122 -33.698,8.594 -52.355,6.714c-7.387,-0.745 -14.574,-1.778 -17.231,-7.91c-3.657,-8.44 -13.479,-12.323 -21.919,-8.666c-8.441,3.658 -12.324,13.479 -8.666,21.92c7.352,16.965 24.034,25.761 44.474,27.821c23.019,2.32 50.856,-3.92 64.659,-7.773c93.007,-25.962 180.16,-73.939 266.81,-115.405c29.942,-14.328 59.602,-29.156 88.462,-45.575c-0.934,0.531 -3.596,1.404 -3.596,1.404c0,0 19.988,-13.422 16.803,-23.322c-2.817,-8.757 -12.214,-13.579 -20.97,-10.761c-1.584,0.509 -3.038,1.234 -4.341,2.134Zm-7.177,12.542c-0.159,1.672 -0.026,3.482 0.51,5.45c-0.484,-1.82 -0.644,-3.658 -0.51,-5.45Z" style="fill:#7e4021;"/><path d="M2309.59,1106.39c4.468,15.623 11.343,54.085 13.34,70.222c8.629,69.714 -28.037,140.574 -51.243,204.39c-3.143,8.644 1.323,18.215 9.968,21.359c8.645,3.143 18.215,-1.323 21.359,-9.968c24.908,-68.497 62.259,-145.048 52.997,-219.875c-2.142,-17.306 -9.581,-58.541 -14.373,-75.295c-2.53,-8.843 -11.764,-13.97 -20.608,-11.44c-8.844,2.53 -13.97,11.763 -11.44,20.607Z" style="fill:#7e4021;"/><path d="M2809.51,1692.2c-1.967,-2.116 -25.953,-27.696 -42.386,-35.249c-70.995,-32.635 -152.636,-38.319 -228.897,-51.414c-9.065,-1.557 -17.69,4.54 -19.246,13.605c-1.557,9.066 4.539,17.691 13.605,19.247c73.452,12.613 152.236,17.415 220.616,48.848c10.461,4.809 21.086,16.687 27.951,23.768c5.45,5.622 9.997,9.193 12.026,10.166c8.292,3.981 18.257,0.481 22.237,-7.812c3.661,-7.625 0.996,-16.663 -5.906,-21.159Z" style="fill:#7e4021;"/><path d="M3103.28,1616.49c-25.467,-3.157 -51.718,-2.391 -77.321,-4.098c-81.477,-5.432 -161.315,-17.146 -241.736,-30.656c-9.071,-1.524 -17.673,4.603 -19.197,13.675c-1.524,9.071 4.603,17.673 13.675,19.197c81.519,13.695 162.451,25.537 245.04,31.043c24.979,1.666 50.593,0.839 75.438,3.919c9.129,1.131 17.459,-5.361 18.59,-14.49c1.132,-9.129 -5.361,-17.459 -14.489,-18.59Z" style="fill:#7e4021;"/><path d="M3378.67,1423.46c-26.349,16.053 -58.784,25.665 -88.46,32.831c-59.737,14.424 -120.762,14.596 -181.668,19.187c-56.263,4.242 -111.768,13.015 -167.242,23.031c-9.052,1.634 -15.075,10.311 -13.44,19.363c1.634,9.052 10.31,15.074 19.363,13.44c54.342,-9.812 108.71,-18.44 163.824,-22.595c62.7,-4.726 125.492,-5.175 186.986,-20.024c32.915,-7.948 68.757,-18.963 97.98,-36.767c7.856,-4.787 10.347,-15.05 5.561,-22.905c-4.786,-7.856 -15.049,-10.347 -22.904,-5.561Z" style="fill:#7e4021;"/><path d="M3486.37,1170.95c-2.044,2.57 -4.222,4.956 -6.634,7.199c-7.937,7.383 -16.461,13.963 -25.288,20.247c-28.224,20.093 -59.049,37.302 -89.991,52.802c-95.834,48.007 -196.777,88.203 -296.327,127.893c-8.544,3.406 -12.716,13.109 -9.309,21.654c3.407,8.544 13.11,12.715 21.654,9.309c100.424,-40.038 202.236,-80.625 298.911,-129.053c32.466,-16.264 64.781,-34.368 94.394,-55.45c10.012,-7.128 19.656,-14.621 28.659,-22.995c3.821,-3.554 7.262,-7.338 10.488,-11.436c0.292,-0.371 0.741,-1.056 1.203,-1.801c5.295,-4.403 7.499,-11.835 4.954,-18.646c-2.317,-6.199 -6.372,-8.651 -9.58,-9.965c-3.859,-1.58 -8.041,-1.841 -12.491,-0.144c-2.036,0.777 -4.615,2.202 -6.99,4.891c-0.907,1.026 -2.931,4.308 -3.653,5.495Zm3.557,15.269l0.025,0.034l-0.045,-0.062l0.02,0.028Zm-0.208,-0.297c-0.749,-1.089 -1.376,-2.287 -1.86,-3.58c0.527,1.408 1.164,2.587 1.86,3.58Z" style="fill:#7e4021;"/><path d="M3448.87,1008.32c-5.845,8.739 -12.097,17.171 -18.737,25.328c-22.588,27.749 -47.592,53.607 -74.066,77.653c-74.035,67.244 -162.503,114.043 -256.095,147.614c-8.658,3.106 -13.166,12.657 -10.06,21.315c3.105,8.659 12.656,13.167 21.315,10.061c97.712,-35.049 189.957,-84.111 267.251,-154.316c27.708,-25.166 53.865,-52.241 77.506,-81.283c7.389,-9.077 14.339,-18.465 20.835,-28.198c0.237,-0.355 3.813,-6.202 5.503,-8.966c7.186,-5.303 8.927,-15.406 3.833,-22.828c-2.36,-3.439 -5.382,-5.442 -8.689,-6.535c-3.469,-1.147 -7.741,-1.475 -12.535,0.717c-1.844,0.843 -4.982,2.843 -7.898,6.561c-2.642,3.367 -7.352,11.471 -8.163,12.877Zm10.329,5.966c2.323,3.088 5.157,4.948 8.391,5.792c-3.238,-0.973 -6.2,-2.935 -8.391,-5.792Z" style="fill:#7e4021;"/><path d="M3304.37,834.168c-6.958,30.6 -23.091,59.655 -38.89,86.421c-49.937,84.602 -122.338,154.348 -188.677,226.215c-6.239,6.759 -5.817,17.312 0.942,23.551c6.759,6.239 17.312,5.817 23.551,-0.942c67.926,-73.586 141.757,-145.254 192.89,-231.881c17.511,-29.666 34.976,-62.056 42.688,-95.973c2.039,-8.97 -3.587,-17.908 -12.557,-19.947c-8.97,-2.04 -17.908,3.587 -19.947,12.556Z" style="fill:#7e4021;"/><path d="M3033.68,986.485c4.989,-6.308 4.802,-15.49 -0.811,-21.6c-6.223,-6.773 -16.775,-7.22 -23.549,-0.996c-2.604,2.392 -5.206,6.241 -7.01,11.154c-1.695,4.614 -2.688,10.931 -3.835,14.012c-11.285,30.295 -28.013,58.819 -45.053,86.178c-41.066,65.938 -95.912,127.887 -152.307,181.391c-6.674,6.331 -6.952,16.889 -0.621,23.562c6.331,6.673 16.889,6.951 23.563,0.62c58.411,-55.416 115.125,-119.656 157.66,-187.951c18.208,-29.235 35.936,-59.793 47.995,-92.165c1.066,-2.864 3.44,-12.122 3.968,-14.205Z" style="fill:#7e4021;"/><path d="M2746.23,1047.28c-0.513,1.677 -1.016,3.457 -1.164,4.402c-1.363,8.689 -3.805,17.058 -6.463,25.431c-7.811,24.604 -17.956,48.556 -28.469,72.109c-29.963,67.135 -77.136,129.33 -124.86,185.007c-5.986,6.984 -5.176,17.514 1.808,23.501c6.984,5.986 17.515,5.176 23.501,-1.808c49.774,-58.069 98.74,-123.095 129.991,-193.115c11.019,-24.69 21.612,-49.815 29.8,-75.608c3.108,-9.79 5.887,-19.597 7.523,-29.744c0.328,-0.98 2.072,-6.24 2.402,-8.277c0.68,-4.2 -0.027,-7.634 -0.956,-10.012c-1.511,-3.866 -4.028,-6.657 -7.244,-8.58c-3.093,-1.85 -7.394,-3.414 -13.423,-1.907c-8.387,2.097 -13.691,10.222 -12.446,18.601Zm11.506,13.471c2.19,0.819 4.817,1.123 8.009,0.484c-2.75,0.511 -5.488,0.309 -8.009,-0.484Z" style="fill:#7e4021;"/><path d="M2599.7,1063.82c-0.592,1.929 -1.259,4.182 -1.487,5.235c-1.741,8.031 -4.999,15.772 -8.122,23.343c-8.759,21.241 -18.353,42.247 -29.188,62.509c-31.769,59.415 -72.974,113.452 -117.039,164.21c-6.03,6.947 -5.286,17.482 1.66,23.512c6.946,6.03 17.481,5.287 23.512,-1.66c45.692,-52.632 88.32,-108.735 121.262,-170.344c11.358,-21.24 21.427,-43.253 30.609,-65.518c3.869,-9.382 7.726,-19.039 9.883,-28.991c0.45,-2.079 2.077,-6.435 2.556,-8.709c0.839,-3.99 0.375,-7.099 -0.056,-8.786c-2.133,-8.36 -7.755,-11.7 -13.986,-12.583c-2.765,-0.392 -8.26,-0.944 -14.281,4.624c-3.792,3.506 -5.585,8.37 -5.323,13.158Zm25.623,13.113l-0.105,0.067l0.023,-0.014l0.082,-0.053Zm0.94,-0.646l-0.519,0.37l0.087,-0.056l0.432,-0.314Zm0.738,-0.578l-0.642,0.508l0.071,-0.051l0.571,-0.457Zm0.01,-0.009c0.213,-0.177 0.427,-0.365 0.643,-0.565l-0.643,0.565Z" style="fill:#7e4021;"/><path d="M231.889,2515.72c-12.529,-60.76 33.537,-122.552 76.862,-166.621c94.267,-95.887 205.143,-174.486 314.116,-247.87c385.16,-259.371 731.123,-564.396 1102.33,-841.865c104.3,-77.961 320.339,-264.002 450.757,-281.05c126.974,-16.598 221.912,118.651 348.067,115.204c75.173,-2.054 102.683,-53.933 166.782,-71.462c25.327,-6.925 84.263,24.114 147.89,22.903c69.161,-1.316 129.426,-37.447 151.291,-66.968c16.938,-22.87 68.545,34.541 144.396,-13.261c59.302,-37.374 80.797,-113.03 93.027,-134.836c12.195,-21.742 114.793,-55.364 156.841,-109.122c31.526,-40.305 12.443,-110.407 28.889,-131.928c12.012,-15.72 60.788,-73.304 66.549,-124.678c5.52,-49.222 -39.444,-70.732 -40.194,-115.7c-0.565,-33.943 23.053,-79.676 2.183,-111.783c-51.826,-79.732 -138.765,-85.932 -217.893,-118.011c-42.144,-17.086 -49.087,-51.325 -118.245,-65.848c-54.794,-11.506 -139.418,10.726 -144.689,4.551c-24.526,-28.732 -88.565,-47.16 -134.332,-38.497c-73.031,13.823 -119.106,61.976 -144.105,68.001c-41.736,10.059 -67.767,-14.501 -145.057,10.623c-61.101,19.863 -105.477,100.733 -150.057,117.777c-40.849,15.618 -85.894,16.614 -123.625,41.053c-51.576,33.407 -43.456,89.303 -78.829,124.677c-28.928,28.928 -68.976,37.648 -95.789,73.8c-24.49,33.02 -29.358,77.27 -36.14,116.608c-25.841,149.876 11.812,215.808 -189.121,360.699c-492.083,354.833 -1066.2,622.556 -1569.31,957.962c-97.729,65.153 -311.93,229.564 -272.429,335.945c12.318,33.174 41.138,41.663 56.14,70.058c12.285,23.255 1.676,53.493 18.947,74.854c14.007,17.324 44.661,23.281 55.984,40.222c14.573,21.804 4.479,70.456 78.765,104.563Z" style="fill:#e0f0ff;"/><path d="M3002.45,989.132c1.397,0.101 4.249,0.344 6.223,0.764c3.992,0.847 8.409,2.089 13.241,3.401c28.979,7.867 70.237,17.747 121.349,-14.465c62.238,-39.223 85.842,-117.898 98.678,-140.783c1.076,-1.919 3.829,-3.551 7.118,-5.825c8.551,-5.91 20.773,-12.507 34.625,-19.981c38.072,-20.54 87.169,-47.295 113.689,-81.2c17.857,-22.83 22.23,-53.86 23.619,-82.469c0.598,-12.323 0.717,-24.073 1.708,-34.055c0.649,-6.531 1.051,-12.118 3.677,-15.554c12.764,-16.704 63.746,-78.346 69.869,-132.939c3.245,-28.933 -7.634,-49.93 -20.148,-70.092c-9.093,-14.652 -19.624,-28.536 -19.944,-47.744c-0.331,-19.818 8.013,-43.736 10.193,-66.472c1.864,-19.446 -0.28,-38.084 -10.701,-54.117c-27.977,-43.041 -65.254,-66.463 -106.393,-83.226c-38.113,-15.53 -79.639,-25.104 -119.213,-41.147c-19.377,-7.856 -30.456,-19.952 -44.846,-31.457c-17.232,-13.777 -38.156,-27.259 -76.235,-35.256c-26.21,-5.504 -58.84,-3.965 -87.316,-0.964c-20.708,2.182 -44.599,4.925 -52.949,5.895c-30.284,-29.296 -96.811,-48.117 -145.281,-38.942c-46.28,8.759 -82.398,30.373 -109.521,47.796c-15.084,9.689 -26.579,18.255 -35.389,20.378c-14.686,3.54 -27.166,1.934 -41.202,0.475c-25.608,-2.663 -55.48,-5.63 -105.102,10.501c-32.951,10.711 -61.77,37.356 -87.983,64.138c-22.392,22.877 -42.338,46.07 -62.874,53.922c-41.93,16.031 -88.004,17.545 -126.733,42.631c-29.224,18.929 -41.933,43.934 -51.95,69.513c-7.997,20.424 -13.601,41.364 -29.605,57.368c-13.497,13.497 -29.71,22.106 -45.555,31.732c-18.746,11.388 -37.034,23.969 -51.835,43.925c-26.03,35.097 -31.968,81.891 -39.178,123.704c-15.124,87.723 -7.239,146.108 -41.419,209.197c-22.521,41.569 -63.535,84.938 -141.026,140.815c-491.918,354.715 -1065.87,622.319 -1568.81,957.613c-69.826,46.551 -197.63,143.044 -254.363,233.815c-27.002,43.202 -37.878,85.624 -24.446,121.8c7.203,19.396 18.955,31.776 31.374,43.257c9.273,8.573 19.105,16.389 25.654,28.785c5.084,9.622 4.864,20.798 5.726,31.669c1.309,16.499 4.152,32.463 14.997,45.877c8.315,10.284 21.262,17.631 34.12,24.484c8.228,4.386 16.667,8.085 20.968,14.521c5.167,7.73 6.325,19.441 10.681,32.438c8.399,25.06 24.205,54.695 74.987,78.01c5.711,2.622 12.41,1.809 17.328,-2.102c4.918,-3.911 7.219,-10.256 5.949,-16.41c-5.484,-26.595 2.387,-53.31 15.839,-78.305c14.623,-27.171 35.97,-52.296 56.586,-73.266c93.478,-95.085 203.478,-172.96 311.539,-245.73c385.388,-259.524 731.573,-564.707 1103,-842.339c62.362,-46.614 164.789,-132.03 264.842,-196.551c64.529,-41.613 127.804,-74.749 178.096,-81.323c59.827,-7.82 111.795,21.151 163.979,50.653c58.037,32.812 116.273,66.492 182.383,64.685c41.186,-1.125 69.409,-15.623 96.021,-32.517c22.944,-14.565 44.425,-31.249 74.703,-39.528c8.227,-2.25 20.675,1.518 36.134,5.486c29.776,7.64 67.865,18.761 107.676,18.004c74.353,-1.416 138.915,-40.565 163.443,-72.493Zm-2788.98,1496.69c-23.739,-17.669 -30.391,-37.338 -34.899,-53.41c-3.424,-12.212 -6.385,-22.728 -11.591,-30.517c-5.868,-8.779 -15.402,-15.702 -26.302,-21.781c-10.758,-6.001 -23.412,-10.796 -30.578,-19.658c-8.17,-10.105 -7.3,-23.012 -8.29,-35.455c-1.019,-12.799 -2.903,-25.389 -8.881,-36.705c-6.947,-13.151 -16.295,-22.746 -26.116,-31.826c-10.912,-10.088 -22.797,-19.178 -29.136,-36.248c-6.568,-17.689 -4.12,-37.274 3.725,-57.777c8.874,-23.196 24.636,-47.313 44.245,-71.325c61.481,-75.288 160.435,-148.744 218.08,-187.175c503.277,-335.517 1077.57,-603.359 1569.81,-958.311c83.256,-60.035 126.641,-107.311 150.838,-151.973c35.897,-66.258 29.075,-127.283 44.959,-219.412c6.356,-36.865 10.153,-78.567 33.103,-109.511c12.012,-16.197 27.154,-26.052 42.368,-35.294c18.114,-11.005 36.388,-21.219 51.819,-36.65c15.879,-15.879 24.296,-35.244 31.967,-55.404c9.086,-23.877 16.718,-49.309 44.138,-67.07c17.279,-11.192 36.303,-16.837 55.614,-21.651c21.733,-5.418 43.848,-9.773 64.902,-17.822c24.046,-9.193 48.574,-34.955 74.792,-61.741c22.396,-22.882 46.313,-46.602 74.466,-55.753c43.125,-14.019 69.094,-11.362 91.35,-9.048c17.874,1.859 33.756,3.284 52.46,-1.224c11.19,-2.697 26.434,-12.43 45.594,-24.738c24.237,-15.57 56.348,-35.262 97.705,-43.09c24.705,-4.676 55.305,-0.365 80.617,9.245c15.833,6.011 29.657,13.996 37.938,23.698c1.769,2.072 4.34,4.177 8.182,5.52c3.001,1.05 9.12,1.771 17.681,1.062c25.177,-2.083 85.819,-14.517 128.078,-5.643c37.647,7.906 54.925,22.347 71.021,35.907c13.119,11.051 25.689,21.495 44.387,29.075c39.555,16.036 81.063,25.602 119.158,41.125c35.069,14.29 67.174,33.833 91.023,70.524c8.187,12.596 6.58,27.977 4.049,43.426c-3.392,20.711 -9.219,41.699 -8.922,59.551c0.354,21.214 8.604,38.154 18.496,54.376c10.756,17.64 24.631,33.941 21.799,59.19c-5.401,48.157 -51.969,101.68 -63.229,116.415c-8.041,10.523 -10.723,30.226 -11.606,53.62c-0.961,25.466 -0.387,56.707 -17.168,78.16c-28.172,36.019 -85.141,62.011 -120.551,81.852c-19.508,10.931 -33.197,21.36 -37.698,29.385c-6.134,10.937 -14.605,35.373 -28.965,61.768c-13.08,24.04 -31.321,50.047 -58.412,67.12c-47.452,29.905 -84.369,12.6 -107.392,7.218c-19.158,-4.48 -32.693,-1.681 -41.511,10.224c-19.924,26.902 -75.192,59.025 -138.215,60.224c-36.541,0.696 -71.427,-9.95 -98.756,-16.964c-22.622,-5.805 -41.173,-8.643 -53.213,-5.351c-33.823,9.249 -58.144,27.269 -83.775,43.539c-21.961,13.942 -45.078,26.41 -79.066,27.338c-60.046,1.641 -112.354,-30.579 -165.069,-60.381c-58.57,-33.113 -117.554,-63.466 -184.703,-54.688c-54.043,7.064 -122.501,41.645 -191.842,86.361c-100.751,64.972 -203.936,150.926 -266.733,197.866c-370.988,277.304 -716.729,582.172 -1101.66,841.39c-109.884,73.997 -221.635,153.32 -316.691,250.009c-27.404,27.875 -55.667,62.605 -71.185,99.661c-6.666,15.918 -11.013,32.269 -12.211,48.747l0,-0Z" style="fill:#7e4021;"/><path d="M65.523,2295.61c0.523,3.263 2.022,6.4 4.499,8.945c6.415,6.593 16.975,6.738 23.568,0.323c0.998,-0.97 6.611,-6.085 4.676,-15.639c-0.381,-1.878 -3.233,-11.449 -3.647,-12.834c-2.285,-10.654 -3.082,-21.712 -2.437,-32.579c2.281,-38.403 16.152,-77.661 35.012,-110.906c52.137,-91.902 159.355,-154.077 248.287,-205.508c7.963,-4.605 10.689,-14.809 6.084,-22.771c-4.605,-7.963 -14.808,-10.689 -22.771,-6.084c-93.733,54.206 -205.642,121.053 -260.593,217.915c-21.307,37.558 -36.716,81.992 -39.293,125.378c-0.833,14.019 0.229,28.285 3.217,42.016c0.159,0.728 2.913,10.096 3.398,11.744Z" style="fill:#7e4021;"/><path d="M545.433,1970.36c0.669,-0.37 1.317,-0.793 1.942,-1.267c7.331,-5.556 8.771,-16.019 3.215,-23.35c-0.5,-0.66 -10.623,-11.618 -23.201,-3.419c-4.648,3.029 -27.199,19.192 -28.282,19.952c-35.389,24.866 -69.703,51.513 -103.281,78.752c-51.392,41.689 -138.064,127.492 -193.911,216.188c-39.118,62.127 -62.542,125.998 -52.257,178.026c1.783,9.024 10.558,14.902 19.582,13.118c9.024,-1.783 14.902,-10.558 13.118,-19.582c-8.927,-45.161 13.81,-99.875 47.765,-153.802c53.758,-85.378 137.233,-167.932 186.702,-208.061c32.984,-26.756 66.683,-52.94 101.446,-77.364l27.162,-19.191Z" style="fill:#7e4021;"/><path d="M2670.64,1026.68c1.994,1.719 9.22,7.886 11.201,8.836c6.811,3.27 12.174,1.405 15.008,0.004c8.248,-4.073 11.636,-14.076 7.563,-22.324c-1.597,-3.233 -4.105,-5.719 -7.064,-7.298c-1.585,-1.42 -5.843,-5.23 -6.172,-5.481c-25.884,-19.782 -58.212,-33.644 -88.37,-45.251c-78.402,-30.175 -169.818,-41.896 -253.273,-29.656c-9.101,1.335 -15.406,9.807 -14.072,18.909c1.335,9.101 9.808,15.406 18.909,14.071c77.919,-11.428 163.261,-0.388 236.464,27.785c27.167,10.456 56.438,22.627 79.806,40.405Z" style="fill:#7e4021;"/><path d="M2967.64,967.97l1.551,6.44c-0.376,5.469 1.954,11.01 6.675,14.522c6.565,4.883 12.418,3.842 16.739,1.976c3.506,-1.515 7.694,-4.451 9.531,-10.907c0.421,-1.478 0.997,-5.907 -0.047,-11.371c-1.226,-6.419 -4.476,-15.644 -5.083,-16.611c-6.804,-10.837 -15.11,-21.005 -23.779,-30.376c-25.809,-27.897 -55.405,-51.021 -88.517,-69.684c-92.769,-52.288 -201.607,-71.305 -307.225,-66.611c-9.189,0.409 -16.319,8.201 -15.91,17.391c0.408,9.189 8.201,16.318 17.39,15.91c99.455,-4.42 202.022,13.111 289.378,62.348c30.077,16.953 56.972,37.943 80.415,63.283c6.804,7.354 13.386,15.258 18.882,23.69Zm21.548,-8.731c2.311,0.472 4.555,1.447 6.571,2.946c-2.306,-1.715 -4.542,-2.56 -6.571,-2.946Z" style="fill:#7e4021;"/><path d="M3241.85,818.386c-19.288,-48.725 -71.704,-85.554 -136.096,-111.026c-91.288,-36.11 -206.1,-50.513 -271.196,-51.959c-9.196,-0.205 -16.828,7.096 -17.032,16.292c-0.205,9.196 7.096,16.828 16.292,17.033c62.325,1.385 172.273,15.057 259.675,49.631c54.739,21.653 100.967,50.877 117.364,92.298c3.385,8.553 13.078,12.748 21.631,9.362c8.553,-3.386 12.748,-13.078 9.362,-21.631Z" style="fill:#7e4021;"/><path d="M3416.38,598.326c-4.736,-10.662 -17.368,-22.73 -34.631,-33.636c-33.365,-21.077 -84.304,-40.437 -103.238,-46.994c-141.499,-49.006 -313.292,-41.695 -454.838,5.486c-8.726,2.909 -13.45,12.356 -10.541,21.082c2.909,8.727 12.356,13.45 21.082,10.541c134.872,-44.957 298.561,-52.306 433.388,-5.611c17.657,6.115 65.229,24.021 96.344,43.678c10.383,6.559 19.122,12.571 21.97,18.984c3.734,8.407 13.59,12.201 21.997,8.467c8.407,-3.734 12.2,-13.59 8.467,-21.997Z" style="fill:#7e4021;"/><path d="M3422.33,375.392c0.935,0.923 1.999,1.747 3.18,2.447c7.914,4.688 18.146,2.07 22.835,-5.844c3.391,-5.723 5.106,-14.15 -3.703,-22.016c-2.065,-1.844 -7.308,-4.83 -14.085,-7.339c-10.594,-3.923 -25.794,-8.088 -26.882,-8.315c-22.12,-4.608 -44.709,-7.528 -67.205,-9.484c-109.345,-9.509 -212.474,5.608 -318.027,33.474c-8.893,2.348 -14.208,11.475 -11.86,20.369c2.348,8.894 11.475,14.208 20.369,11.86c101.778,-26.869 201.196,-41.664 306.63,-32.495c21.186,1.842 42.463,4.569 63.295,8.909c0.934,0.194 20.023,6.606 25.453,8.434Zm-4.92,-13.422c0.216,-2.388 0.954,-4.767 2.257,-6.966c-1.315,2.219 -2.081,4.54 -2.257,6.966Z" style="fill:#7e4021;"/><path d="M3187.21,107.262c-2.161,1.108 -4.614,2.42 -5.744,3.219c-7.783,5.498 -15.799,10.689 -23.978,15.577c-26.535,15.856 -53.64,30.749 -80.453,46.126c-77.122,44.229 -153.884,87.215 -227.539,137.177c-7.613,5.164 -9.601,15.536 -4.437,23.149c5.164,7.612 15.536,9.601 23.149,4.437c72.96,-49.49 149.017,-92.036 225.41,-135.847c26.986,-15.476 54.262,-30.47 80.969,-46.429c8.907,-5.322 17.636,-10.977 26.112,-16.965c2.321,-1.64 7.471,-3.559 9.922,-5.352c3.554,-2.599 5.591,-5.63 6.672,-8.128c1.578,-3.652 1.832,-7.28 1.051,-10.824c-0.795,-3.606 -2.666,-7.775 -7.765,-11.173c-7.655,-5.101 -18.011,-3.028 -23.112,4.626l-0.257,0.407Zm-0.532,16.765c0.997,2.094 2.689,4.123 5.415,5.94c-2.345,-1.563 -4.166,-3.618 -5.415,-5.94Z" style="fill:#7e4021;"/><path d="M2935.03,51.363c-16.403,36.767 -48.779,73.872 -86.516,109.21c-58.813,55.073 -130.78,105.509 -180.391,142.605c-7.367,5.509 -8.876,15.962 -3.367,23.329c5.508,7.367 15.961,8.875 23.328,3.367c85.194,-63.704 233.489,-166.531 277.388,-264.931c3.747,-8.4 -0.03,-18.263 -8.431,-22.011c-8.4,-3.747 -18.263,0.03 -22.011,8.431Z" style="fill:#7e4021;"/><path d="M2664.36,88.431c-4.184,15.547 -19.979,40.063 -40.586,68.477c-51.462,70.953 -133.519,163.105 -165.506,200.589c-5.971,6.997 -5.137,17.526 1.86,23.496c6.997,5.971 17.526,5.138 23.497,-1.859c32.309,-37.863 115.15,-130.985 167.132,-202.656c23.726,-32.712 40.975,-61.486 45.791,-79.386c2.391,-8.883 -2.88,-18.035 -11.763,-20.425c-8.883,-2.39 -18.035,2.881 -20.425,11.764Z" style="fill:#7e4021;"/><path d="M2427.48,207.298c0.084,-2.711 -0.495,-5.479 -1.813,-8.062c-2.625,-5.145 -6.319,-6.958 -8.586,-7.878c-4.272,-1.733 -8.404,-1.633 -12.394,-0.056c-1.68,0.664 -9.68,3.644 -10.504,14.273c-0.059,0.76 0.13,5.755 0.136,5.861c0.65,11.307 -0.74,22.831 -1.926,34.056c-2.948,27.879 -9.381,55.452 -16.312,82.579c-18.873,73.868 -64.223,135.509 -106.14,197.818c-5.134,7.632 -3.106,17.997 4.526,23.131c7.632,5.135 17.997,3.107 23.131,-4.525c44.031,-65.451 90.955,-130.58 110.779,-208.173c7.328,-28.681 14.048,-57.849 17.164,-87.326c1.375,-13.007 2.809,-26.37 2.056,-39.473l-0.117,-2.225Zm-16.763,16.18l0.134,-0.005l-0.273,-0l0.139,0.005Zm-4.211,-0.574c1.164,0.323 2.32,0.501 3.464,0.546c-1.174,-0.06 -2.335,-0.245 -3.464,-0.546Zm15.351,-3.601c-2.259,2.047 -4.706,3.144 -7.09,3.698c1.233,-0.296 2.45,-0.744 3.628,-1.345c1.277,-0.651 2.433,-1.445 3.462,-2.353Zm-17.549,2.842l0.617,0.25c0.252,0.089 0.503,0.177 0.755,0.265l0.716,0.214c-0.695,-0.184 -1.39,-0.429 -2.088,-0.729Zm-0.204,-0.086l0.032,0.014l-0.358,-0.166l0.326,0.152Zm-0.997,-0.482c-2.968,-1.541 -5.498,-3.99 -7.132,-7.193c2.181,4.275 5.106,6.163 7.132,7.193Z" style="fill:#7e4021;"/><path d="M2187.4,376.429c23.059,105.39 -5.524,204.944 -55.085,298.85c-4.294,8.135 -1.175,18.225 6.96,22.519c8.135,4.293 18.226,1.175 22.519,-6.961c53.291,-100.972 82.964,-208.212 58.169,-321.533c-1.966,-8.986 -10.858,-14.685 -19.844,-12.719c-8.986,1.966 -14.685,10.858 -12.719,19.844Z" style="fill:#7e4021;"/></g></svg>