<?xml version="1.0" encoding="UTF-8" standalone="no"?><!DOCTYPE svg PUBLIC "-//W3C//DTD SVG 1.1//EN" "http://www.w3.org/Graphics/SVG/1.1/DTD/svg11.dtd"><svg width="100%" height="100%" viewBox="0 0 1130 2794" version="1.1" xmlns="http://www.w3.org/2000/svg" xmlns:xlink="http://www.w3.org/1999/xlink" xml:space="preserve" xmlns:serif="http://www.serif.com/" style="fill-rule:evenodd;clip-rule:evenodd;stroke-linejoin:round;stroke-miterlimit:2;"><g id="Plant-02"><path d="M331.837,2778.11c43.693,-785.377 104.5,-1552.02 333.129,-2307.97c2.663,-8.805 -2.323,-18.115 -11.128,-20.778c-8.805,-2.663 -18.115,2.323 -20.778,11.128c-229.405,758.515 -290.663,1527.73 -334.505,2315.77c-0.511,9.184 6.531,17.055 15.715,17.566c9.185,0.511 17.056,-6.53 17.567,-15.715Z" style="fill:#7e4021;"/><path d="M773.973,478.588c-2.13,27.283 241.896,210.691 268.342,103.674c24.411,-98.785 -189.871,-162.87 -208.73,-197.76c-0.139,-0.256 64.396,5.377 83.213,6.305c40.578,1.999 191.497,8.462 181.554,-66.671c-12.551,-94.837 -236.049,-48.814 -265.47,-55.044c-2.19,-0.463 140.236,-120.846 94.53,-199.966c-40.852,-70.717 -158.549,58.583 -185.524,99.414c-0.977,1.478 -11.948,21.737 -13.05,21.314c-0.905,-0.347 -8.944,-71.22 -49.997,-122.141c-31.481,-39.049 -92.365,-66.347 -123.951,-41.225c-89.036,70.815 73.691,221.399 70.918,224.234c-2.254,2.305 -108.496,-19.272 -165.432,-19.544c-52.052,-0.248 -115.345,24.35 -88.782,91.592c32.619,82.573 210.69,63.301 210.373,63.438c-27.809,12.034 -51.66,34.968 -73.117,55.725c-29.67,28.701 -134.038,155.946 -53.146,186.063c68.182,25.385 143.505,-100.539 178.29,-141.699c1.336,-1.582 22.528,-27.475 24.171,-26.255c1.832,1.36 -84.787,231.064 19.395,252.635c109.056,22.58 108.101,-170.442 96.413,-234.089Z" style="fill:#fff;"/><path d="M584.965,228.422c-36.922,-5.779 -89.799,-13.745 -124.51,-13.911c-24.626,-0.117 -51.434,4.94 -72.09,16.182c-15.679,8.534 -27.947,20.579 -34.502,36.114c-6.866,16.274 -7.763,36.79 2.23,62.087c13.608,34.447 48.164,54.826 87.953,65.238c26.917,7.045 56.038,9.675 80.669,10.366c-9.601,8.283 -18.729,17.017 -27.453,25.456c-18.807,18.193 -65.834,73.993 -82.139,122.492c-7.78,23.144 -8.522,44.929 0.027,61.925c6.179,12.284 17.055,22.66 34.739,29.244c32.607,12.14 67.284,-2.44 98.975,-30.125c27.413,-23.948 52.888,-57.411 73.058,-84.302c-7.154,31.143 -13.232,67.587 -12.385,100.069c1.304,49.979 19.311,90.354 64.644,99.74c52.95,10.964 85.39,-18.596 103.322,-64.579c15.45,-39.619 19.303,-92.16 17.986,-134.751c33.367,28.934 85.774,65.04 133.793,85.521c28.205,12.03 55.091,18.547 76.288,16.603c26.254,-2.409 45.611,-15.934 52.925,-45.531c11.285,-45.666 -18.876,-86.389 -63.756,-119.63c-31.858,-23.595 -70.573,-43.803 -101.359,-60.716c9.379,0.716 17.597,1.293 22.598,1.539c25.409,1.252 92.25,3.882 139.435,-10.912c38.808,-12.167 64.582,-35.897 59.461,-74.591c-5.961,-45.048 -49.722,-66.731 -105.061,-72.928c-45.732,-5.121 -98.848,-0.749 -135.867,2.105c19.195,-20.471 43.579,-49.378 59.932,-80.221c19.644,-37.051 27.222,-76.781 7.966,-110.116c-6.868,-11.889 -15.488,-19.533 -25.051,-24.05c-13.803,-6.519 -30.075,-6.557 -47.517,-0.896c-47.585,15.444 -106.55,77.236 -133.055,112.032c-7.53,-26.36 -20.952,-61.533 -44.404,-90.624c-21.187,-26.279 -54.336,-47.673 -85.046,-54.609c-23.632,-5.337 -45.898,-2.209 -62.256,10.801c-38.458,30.588 -39.394,73.27 -22.913,115.93c14.266,36.925 42.064,73.658 63.363,99.048Zm205.55,248.021c1.534,2.056 8.156,10.747 15.108,17.461c28.947,27.958 85.571,68.8 136.736,90.623c18.262,7.789 35.731,13.179 50.792,14.142c10.067,0.644 18.852,-0.47 25.032,-5.821c3.821,-3.308 6.372,-8.191 7.952,-14.585c4.805,-19.445 -2.967,-36.934 -16.314,-53.032c-15.914,-19.195 -39.595,-36.274 -64.417,-51.638c-37.118,-22.976 -76.886,-42.04 -100.654,-57.404c-13.272,-8.579 -22.131,-16.924 -25.827,-23.761c-2.938,-5.435 -2.697,-10.629 -0.152,-15.565c0.945,-1.833 3.793,-7.813 12.815,-8.911c0.286,-0.035 2.015,-0.191 4.947,0.013c10.479,0.732 64.221,5.364 81.085,6.195c23.285,1.147 84.582,4.131 127.822,-9.426c21.526,-6.749 39.229,-16.949 36.389,-38.411c-1.783,-13.473 -9.894,-22.701 -21.362,-29.267c-14.418,-8.255 -33.556,-12.578 -54.364,-14.908c-47.879,-5.362 -104.201,0.379 -139.611,2.978c-17.745,1.302 -31.004,1.555 -37.062,0.272c-4.663,-0.988 -7.811,-3.456 -10.022,-6.481c-2.257,-3.087 -4.227,-7.503 -2.773,-13.688c0.174,-0.74 1.868,-5.701 7.957,-11.642c12.145,-11.849 55.642,-52.662 79.836,-98.295c13.931,-26.277 22.209,-54.188 8.552,-77.829c-7.657,-13.255 -19.941,-14.287 -33.414,-9.914c-12.84,4.167 -26.542,12.545 -40.084,22.759c-36.211,27.314 -70.803,67.914 -83.688,87.419c-0.958,1.449 -10.936,19.338 -13.756,22.591c-7.532,8.688 -16.29,6.203 -19.174,5.095c-0.752,-0.288 -8.756,-3.305 -10.908,-14.558c-2.186,-11.435 -11.44,-69.702 -46.09,-112.682c-16.591,-20.579 -42.389,-37.584 -66.438,-43.015c-12.882,-2.91 -25.247,-2.718 -34.164,4.374c-25.657,20.407 -23.564,49.369 -12.569,77.829c19.811,51.278 68.401,101.743 81.98,117.376c6.232,7.174 7.655,13.056 7.773,14.43c0.52,6.059 -1.812,10.231 -4.725,13.209c-1.103,1.128 -6.588,5.948 -17.115,4.96c-19.191,-1.801 -109.533,-19.249 -160.312,-19.492c-16.085,-0.076 -33.404,2.435 -48.094,8.407c-12.316,5.007 -22.899,12.306 -27.627,23.514c-4.086,9.683 -3.426,21.829 2.52,36.882c9.881,25.012 36.499,37.678 65.39,45.238c49.287,12.898 106.639,9.436 123.239,8.128c2.936,-0.231 4.671,-0.402 4.966,-0.424c12.947,-0.961 16.592,10.029 16.75,10.426c1.868,4.666 1.934,9.686 -1.262,14.901c-0.989,1.614 -2.944,4.577 -7.592,6.588c-26.006,11.253 -48.082,32.998 -68.148,52.408c-16.797,16.249 -59.157,65.841 -73.719,109.156c-4.57,13.592 -6.812,26.342 -1.791,36.324c2.867,5.699 8.387,9.93 16.592,12.985c21.959,8.175 44.071,-5.346 65.414,-23.99c39.093,-34.152 73.809,-88.566 94.33,-112.848c1.346,-1.592 20.974,-24.945 26.167,-28.659c9.582,-6.85 17.616,-2.486 20.668,-0.22c1.157,0.859 9.063,6.757 6.035,18.708c-1.714,6.762 -13.389,40.641 -22.052,81.438c-6.879,32.4 -12.009,69.356 -7.8,99.761c3.399,24.557 12.784,44.846 36.657,49.789c34.306,7.103 53.891,-14.257 65.509,-44.049c21.039,-53.952 17.791,-134.45 11.132,-170.709l0.065,-0.003c-0.302,-1.646 -0.383,-3.094 -0.289,-4.304c0.652,-8.345 7.393,-14.913 15.753,-15.347c8.359,-0.434 15.744,5.4 17.256,13.634l0.15,0.865Z" style="fill:#7e4021;"/><path d="M610.079,386.103c-69.489,-130.171 126.662,-235.881 195.282,-103.485c71.744,138.423 -126.25,232.8 -195.282,103.485Z" style="fill:#ffce7b;"/><path d="M595.376,393.952c55.457,103.886 183.441,81.694 226.996,4.711c18.657,-32.977 22.476,-76.079 -2.214,-123.714c-78.969,-152.365 -304.751,-30.8 -224.782,119.003l-0,-0Zm29.405,-15.698c-59.008,-110.538 107.512,-200.395 165.783,-87.966c18.358,35.42 16.669,67.441 2.796,91.961c-32.348,57.175 -127.391,73.161 -168.579,-3.995l0,0Z" style="fill:#7e4021;"/><path d="M881.868,1039.77c-1.513,19.382 171.839,149.671 190.625,73.648c17.341,-70.175 -134.88,-115.699 -148.278,-140.484c-0.098,-0.182 45.746,3.819 59.114,4.478c28.825,1.42 136.035,6.012 128.972,-47.361c-8.916,-67.371 -167.685,-34.677 -188.585,-39.102c-1.556,-0.33 99.621,-85.847 67.152,-142.053c-29.02,-50.236 -112.63,41.616 -131.793,70.622c-0.694,1.05 -8.487,15.442 -9.27,15.141c-0.643,-0.247 -6.354,-50.593 -35.517,-86.767c-22.363,-27.739 -65.614,-47.131 -88.053,-29.285c-63.249,50.306 52.35,157.278 50.38,159.292c-1.602,1.637 -77.074,-13.691 -117.52,-13.884c-36.977,-0.177 -81.939,17.298 -63.069,65.065c23.172,58.658 149.67,44.968 149.445,45.065c-19.755,8.549 -36.698,24.841 -51.941,39.586c-21.077,20.389 -95.218,110.781 -37.754,132.176c48.435,18.033 101.943,-71.421 126.653,-100.66c0.95,-1.124 16.004,-19.518 17.171,-18.651c1.302,0.966 -60.231,164.143 13.778,179.467c77.471,16.04 76.793,-121.079 68.49,-166.293Z" style="fill:#fff;"/><path d="M735.963,855.393c-24.911,-3.778 -55.598,-7.946 -76.789,-8.048c-18.295,-0.087 -38.196,3.731 -53.542,12.083c-12.139,6.606 -21.575,15.991 -26.649,28.017c-5.281,12.516 -6.144,28.3 1.542,47.756c10.207,25.839 35.901,41.43 65.747,49.24c15.319,4.009 31.624,6.044 46.553,6.971c-3.73,3.445 -7.353,6.923 -10.883,10.337c-13.652,13.206 -47.734,53.744 -59.569,88.947c-5.993,17.827 -6.303,34.607 0.282,47.698c4.869,9.68 13.37,17.941 27.306,23.129c24.711,9.2 51.153,-1.308 75.17,-22.289c14.305,-12.497 27.883,-28.608 39.789,-43.877c-3.064,17.045 -5.121,35.022 -4.69,51.569c0.992,38.008 15.293,68.316 49.769,75.454c16.636,3.445 30.555,1.308 42.209,-4.425c16.474,-8.104 28.701,-24.001 36.665,-44.424c9.945,-25.501 13.28,-58.392 13.246,-87.046c23.935,19.451 57.309,41.592 88.184,54.76c20.888,8.91 40.83,13.602 56.529,12.161c20.755,-1.904 36.059,-12.594 41.841,-35.993c8.458,-34.226 -13.467,-65.106 -47.104,-90.019c-16.62,-12.31 -35.845,-23.338 -53.576,-33.093c21.223,0.881 64.145,1.539 95.249,-8.213c30.083,-9.432 49.551,-28.231 45.581,-58.227c-3.566,-26.945 -23.727,-43.354 -52.897,-51.225c-32.274,-8.708 -76.345,-6.794 -109.777,-4.313l-1.535,0.122c12.116,-13.73 25.523,-30.902 35.112,-48.988c14.784,-27.884 20.066,-57.813 5.574,-82.9c-5.448,-9.431 -12.328,-15.452 -19.913,-19.035c-10.838,-5.119 -23.612,-5.308 -37.308,-0.863c-31.476,10.216 -69.893,48.209 -91.117,74.024c-5.816,-17.794 -15.095,-39.141 -29.698,-57.254c-15.716,-19.494 -40.329,-35.327 -63.109,-40.472c-18.347,-4.144 -35.595,-1.497 -48.294,8.603c-29.177,23.206 -30.279,55.508 -17.775,87.872c8.623,22.318 24.074,44.557 37.877,61.961Zm162.235,181.063c1.687,1.998 9.007,10.516 15.956,16.664c21.557,19.073 56.93,43.69 89.226,57.465c12.409,5.292 24.262,9.014 34.496,9.669c5.727,0.366 10.8,0.076 14.315,-2.967c2.043,-1.77 3.277,-4.451 4.122,-7.87c3.038,-12.294 -2.18,-23.257 -10.619,-33.435c-11.005,-13.273 -27.42,-25.034 -44.585,-35.659c-26.398,-16.34 -54.679,-29.902 -71.583,-40.829c-10.331,-6.678 -17.095,-13.315 -19.973,-18.638c-2.937,-5.434 -2.696,-10.629 -0.152,-15.564c0.945,-1.833 3.792,-7.812 12.811,-8.91c0.257,-0.031 1.806,-0.198 4.434,-0.014c7.431,0.518 45.543,3.805 57.503,4.395c16.233,0.799 58.974,2.97 89.12,-6.481c12.819,-4.019 24.2,-9.267 22.509,-22.048c-1.056,-7.979 -5.996,-13.346 -12.788,-17.234c-9.743,-5.578 -22.698,-8.408 -36.758,-9.983c-33.707,-3.775 -73.358,0.303 -98.287,2.132c-13.253,0.973 -23.156,1.06 -27.682,0.102c-4.66,-0.987 -7.806,-3.455 -10.015,-6.477c-2.256,-3.085 -4.225,-7.497 -2.773,-13.677c0.157,-0.668 1.493,-5.266 6.981,-10.621c8.485,-8.278 38.918,-36.754 55.82,-68.633c9.072,-17.111 15.054,-35.218 6.16,-50.613c-4.11,-7.116 -10.833,-7.213 -18.066,-4.866c-8.677,2.816 -17.907,8.528 -27.059,15.43c-25.234,19.034 -49.35,47.316 -58.33,60.908c-0.702,1.064 -8.082,14.162 -10.152,16.549c-7.454,8.599 -16.143,6.061 -18.998,4.964c-0.728,-0.279 -8.676,-3.047 -10.759,-13.941c-1.512,-7.904 -7.809,-48.217 -31.759,-77.924c-11.12,-13.794 -28.382,-25.238 -44.502,-28.879c-7.599,-1.716 -14.941,-2.006 -20.201,2.177c-16.377,13.026 -14.449,31.605 -7.431,49.771c13.844,35.832 47.89,71.031 57.379,81.956c5.559,6.4 6.581,11.777 6.686,13.003c0.519,6.042 -1.809,10.201 -4.714,13.171c-1.041,1.064 -6.132,5.886 -16.06,4.955c-13.583,-1.275 -77.517,-13.654 -113.455,-13.826c-10.809,-0.051 -22.453,1.604 -32.325,5.617c-7.498,3.048 -14.117,7.285 -16.996,14.108c-2.5,5.927 -1.806,13.338 1.833,22.551c6.481,16.406 24.235,24.281 43.184,29.24c34.372,8.995 74.369,6.544 85.946,5.632c21.812,-1.72 11.648,31.519 11.432,31.612c-17.951,7.768 -33.12,22.87 -46.972,36.27c-11.641,11.26 -41.056,45.591 -51.149,75.611c-2.783,8.278 -4.593,16.017 -1.535,22.096c1.558,3.097 4.7,5.21 9.158,6.87c14.068,5.237 27.937,-4.21 41.609,-16.154c27.578,-24.092 52.023,-62.516 66.5,-79.645c0.997,-1.18 15.619,-18.418 19.468,-21.17c9.441,-6.75 17.359,-2.338 20.367,-0.105c1.398,1.038 8.757,6.281 6.296,17.476c-0.63,2.865 -5.452,17.092 -10.552,36.447c-7.239,27.474 -15.487,66.242 -10.155,95.053c2.501,13.519 8.078,24.746 21.633,27.552c21.676,4.488 33.72,-9.495 41.06,-28.318c14.622,-37.496 12.286,-93.444 7.658,-118.643l0.08,-0.004c-0.314,-1.678 -0.395,-3.131 -0.303,-4.303c0.651,-8.346 7.392,-14.914 15.752,-15.348c8.257,-0.428 15.563,5.258 17.194,13.333Z" style="fill:#7e4021;"/><path d="M765.441,974.068c-49.364,-92.471 89.978,-167.566 138.725,-73.514c50.965,98.333 -89.686,165.377 -138.725,73.514Z" style="fill:#ffce7b;"/><path d="M750.738,981.916c41.462,77.67 137.15,61.007 169.713,3.451c13.947,-24.651 16.968,-56.873 -1.488,-92.482c-59.096,-114.02 -228.069,-23.072 -168.225,89.031Zm29.405,-15.697c-38.883,-72.838 70.828,-132.079 109.225,-57.996c12.125,23.394 11.234,44.535 2.071,60.73c-21.356,37.748 -84.103,48.205 -111.296,-2.734Z" style="fill:#7e4021;"/><path d="M329.751,986.708c19.435,-0.482 131.269,-186.276 53.721,-197.171c-71.583,-10.057 -101.265,146.03 -124.546,161.897c-0.171,0.117 -0.889,-45.897 -1.604,-59.261c-1.542,-28.819 -7.964,-135.935 -60.332,-123.438c-66.102,15.775 -17.306,170.356 -19.566,191.599c-0.168,1.582 -95.606,-90.296 -148.187,-52.237c-46.997,34.017 52.941,107.771 83.758,123.86c1.116,0.582 16.231,6.86 16.012,7.669c-0.179,0.665 -49.675,11.506 -82.669,44.223c-25.301,25.089 -40.158,70.1 -20.105,90.591c56.523,57.76 151.083,-68.195 153.288,-66.441c1.793,1.425 -5.718,78.071 -1.765,118.324c3.615,36.8 25.606,79.734 71.188,56.067c55.974,-29.062 29.389,-153.491 29.509,-153.277c10.528,18.775 28.472,33.958 44.702,47.61c22.441,18.876 119.957,83.361 135.349,24.006c12.973,-50.028 -81.495,-94.085 -113.112,-115.668c-1.216,-0.83 -21.056,-13.919 -20.313,-15.169c0.827,-1.393 169.452,43.089 177.109,-32.101c8.015,-78.707 -128.312,-63.977 -172.437,-51.083Z" style="fill:#fff;"/><path d="M154.829,921.548c-14.9,-10.645 -33.356,-22.221 -52.33,-29.906c-29.252,-11.848 -59.565,-14.034 -83.034,2.954c-8.823,6.385 -14.107,13.846 -16.893,21.759c-3.982,11.306 -2.861,24.032 2.965,37.199c13.389,30.264 55.12,64.584 82.973,83.05c-17.103,7.61 -37.386,19.028 -53.908,35.411c-17.78,17.631 -31.007,43.737 -33.79,66.925c-2.241,18.675 2.16,35.56 13.509,47.157c26.074,26.644 58.319,24.43 89.23,8.675c21.317,-10.865 41.855,-28.515 57.752,-44.029c-1.204,25.166 -2.205,56.12 -0.133,77.209c1.788,18.208 7.626,37.613 17.507,52.022c7.816,11.397 18.118,19.822 30.601,23.637c12.991,3.97 28.781,3.21 47.346,-6.429c24.657,-12.803 37.532,-39.959 42.242,-70.448c2.417,-15.649 2.77,-32.078 2.162,-47.022c3.81,3.356 7.64,6.604 11.399,9.766c14.535,12.225 58.353,41.973 94.584,50.138c18.347,4.134 35.07,2.722 47.418,-5.17c9.13,-5.836 16.475,-15.139 20.208,-29.533c6.619,-25.524 -6.544,-50.75 -29.877,-72.489c-13.897,-12.949 -31.315,-24.804 -47.725,-35.083c17.27,1.301 35.363,1.505 51.778,-0.621c37.707,-4.882 66.389,-22.215 69.956,-57.24c1.721,-16.902 -1.831,-30.529 -8.728,-41.533c-9.75,-15.557 -26.817,-26.09 -47.949,-31.919c-26.386,-7.278 -59.445,-7.225 -87.944,-4.253c16.894,-25.803 35.497,-61.271 45.432,-93.333c6.721,-21.692 9.344,-42.009 6.303,-57.477c-4.022,-20.451 -16.225,-34.579 -40.093,-37.932c-34.912,-4.905 -63.383,20.07 -84.717,56.083c-10.541,17.794 -19.541,38.048 -27.426,56.686c-1.299,-21.202 -5.044,-63.965 -17.933,-93.905c-12.466,-28.959 -33.162,-46.397 -62.593,-39.373c-26.438,6.309 -40.694,28.046 -45.533,57.869c-5.354,32.997 1.067,76.639 6.962,109.641l0.279,1.514Zm169.955,49.255c1.814,-1.883 9.537,-10.037 14.941,-17.58c16.762,-23.398 37.623,-61.109 48.015,-94.647c3.993,-12.886 6.48,-25.058 6.082,-35.305c-0.222,-5.734 -1.03,-10.75 -4.418,-13.935c-1.97,-1.851 -4.763,-2.804 -8.251,-3.294c-12.541,-1.762 -22.911,4.553 -32.17,13.99c-12.075,12.308 -22.092,29.842 -30.901,48.006c-13.549,27.933 -24.141,57.455 -33.277,75.39c-5.583,10.961 -11.493,18.371 -16.493,21.778c-5.104,3.479 -10.296,3.772 -15.466,1.747c-1.92,-0.752 -8.16,-2.971 -10.176,-11.829c-0.058,-0.253 -0.382,-1.777 -0.469,-4.41c-0.246,-7.445 -0.883,-45.693 -1.522,-57.65c-0.869,-16.23 -3.09,-58.969 -15.582,-87.987c-5.312,-12.339 -11.699,-23.123 -24.239,-20.13c-7.829,1.868 -12.661,7.332 -15.833,14.487c-4.549,10.263 -6.037,23.441 -6.162,37.588c-0.3,33.916 7.82,72.94 12.196,97.55c2.326,13.084 3.427,22.926 2.938,27.525c-0.504,4.737 -2.636,8.12 -5.416,10.628c-2.838,2.559 -7.024,4.971 -13.321,4.159c-0.68,-0.088 -5.391,-0.945 -11.28,-5.855c-9.105,-7.592 -40.549,-34.946 -73.994,-48.491c-17.95,-7.271 -36.575,-11.364 -50.977,-0.94c-6.657,4.818 -6.065,11.516 -2.989,18.47c3.691,8.343 10.319,16.939 18.123,25.334c21.52,23.151 52.125,44.241 66.566,51.78c1.13,0.59 14.915,6.588 17.502,8.402c9.318,6.534 7.684,15.438 6.886,18.39c-0.204,0.753 -2.143,8.943 -12.765,12.131c-7.708,2.314 -47.163,12.71 -74.259,39.579c-12.581,12.476 -22.195,30.82 -24.165,47.228c-0.928,7.735 -0.464,15.068 4.237,19.871c14.635,14.956 32.919,11.134 50.27,2.29c34.224,-17.443 65.748,-54.918 75.642,-65.477c5.797,-6.186 11.041,-7.754 12.25,-7.984c5.957,-1.135 10.333,0.755 13.585,3.34c1.165,0.926 6.484,5.496 6.575,15.467c0.124,13.642 -5.637,78.508 -2.124,114.275c1.057,10.757 3.897,22.17 8.901,31.578c3.801,7.147 8.693,13.296 15.776,15.461c6.152,1.88 13.453,0.43 22.244,-4.135c15.655,-8.128 21.669,-26.596 24.659,-45.953c5.425,-35.113 -1.113,-74.649 -3.207,-86.071c-3.946,-21.521 30.159,-14.817 30.274,-14.613c9.567,17.061 26.144,30.602 40.893,43.007c12.395,10.426 49.56,36.168 80.456,43.13c8.52,1.919 16.403,2.927 22.137,-0.738c2.921,-1.867 4.701,-5.209 5.895,-9.814c3.768,-14.531 -7.051,-27.359 -20.334,-39.734c-26.792,-24.963 -67.519,-45.341 -86.042,-57.986c-1.276,-0.871 -19.922,-13.649 -23.053,-17.195c-7.683,-8.7 -4.106,-17.029 -2.193,-20.249c0.889,-1.497 5.351,-9.355 16.739,-8.055c2.914,0.333 17.56,3.672 37.336,6.761c28.071,4.384 67.481,8.615 95.593,0.359c13.192,-3.874 23.788,-10.573 25.19,-24.344c2.243,-22.022 -12.901,-32.569 -32.378,-37.941c-38.796,-10.702 -94.211,-2.643 -118.803,4.543l-0.012,-0.079c-1.637,0.484 -3.074,0.714 -4.249,0.743c-8.369,0.208 -15.593,-5.824 -16.882,-14.096c-1.272,-8.169 3.635,-16.02 11.501,-18.47Z" style="fill:#7e4021;"/><path d="M276.332,1109.26c-86.924,58.582 -175.906,-72.329 -87.346,-130.459c92.591,-60.776 173.699,72.262 87.346,130.459Z" style="fill:#ffce7b;"/><path d="M285.646,1123.08c73.011,-49.205 46.627,-142.681 -13.963,-169.173c-25.951,-11.347 -58.313,-11.049 -91.843,10.96c-107.362,70.472 0.428,229.232 105.806,158.213l0,-0Zm-18.629,-27.642c-68.469,46.144 -138.643,-56.916 -68.885,-102.705c22.027,-14.459 43.148,-15.739 60.197,-8.285c39.738,17.375 56.572,78.719 8.688,110.99l0,0Z" style="fill:#7e4021;"/><path d="M546.929,1913.32c18.951,4.335 173.231,-148.058 100.78,-177.779c-66.877,-27.435 -134.211,116.475 -160.692,126.097c-0.194,0.07 10.481,-44.693 13.091,-57.82c5.628,-28.306 25.876,-133.687 -27.956,-134.519c-67.95,-1.05 -58.869,160.795 -66.308,180.821c-0.554,1.491 -70.326,-111.122 -130.682,-87.238c-53.946,21.347 24.667,117.512 50.552,140.717c0.937,0.84 14.032,10.658 13.62,11.388c-0.339,0.6 -50.979,-1.126 -91.034,22.422c-30.717,18.059 -56.236,58.002 -41.869,82.813c40.496,69.937 163.249,-28.743 164.953,-26.499c1.385,1.824 -24.834,74.236 -30.951,114.218c-5.592,36.551 5.107,83.589 55.124,71.92c61.419,-14.328 66.409,-141.467 66.473,-141.23c5.562,20.794 19.196,39.941 31.549,57.18c17.081,23.837 95.636,110.42 125.219,56.71c24.934,-45.27 -55.716,-111.306 -81.02,-140.033c-0.972,-1.104 -16.962,-18.69 -15.934,-19.718c1.147,-1.146 153.548,83.628 179.549,12.663c27.217,-74.286 -108.522,-93.703 -154.464,-92.113Z" style="fill:#fff;"/><path d="M393.535,1806.95c-11.808,-13.997 -26.83,-29.775 -43.316,-41.91c-25.417,-18.709 -54.25,-28.319 -81.189,-17.659c-10.127,4.008 -17.091,9.932 -21.747,16.91c-6.651,9.971 -8.71,22.58 -6.319,36.779c5.494,32.633 37.449,76.202 59.876,100.979c-18.454,3.146 -40.93,9.198 -60.987,20.99c-21.586,12.69 -40.854,34.718 -49.281,56.498c-6.787,17.542 -6.696,34.991 1.435,49.034c18.681,32.261 50.474,38.083 84.32,30.456c23.341,-5.26 47.603,-17.286 66.841,-28.391c-7.386,24.089 -16.005,53.834 -19.21,74.781c-2.766,18.085 -1.905,38.331 4.108,54.735c4.757,12.976 12.658,23.685 23.811,30.466c11.607,7.058 27.095,10.224 47.466,5.471c27.056,-6.312 46.243,-29.444 58.342,-57.824c6.209,-14.566 10.611,-30.398 13.715,-45.029c2.862,4.194 5.771,8.288 8.632,12.28c11.063,15.439 46.17,55.092 79.26,71.957c16.757,8.54 33.309,11.305 47.225,6.709c10.289,-3.399 19.705,-10.597 26.879,-23.623c12.721,-23.096 6.201,-50.793 -11.036,-77.624c-10.266,-15.982 -24.214,-31.774 -37.574,-45.789c16.412,5.529 33.894,10.197 50.325,12.195c37.744,4.587 69.82,-5.12 81.931,-38.177c5.845,-15.953 5.771,-30.035 1.807,-42.403c-5.603,-17.483 -19.538,-31.907 -38.573,-42.777c-23.769,-13.573 -55.816,-21.692 -84.166,-25.855c22.747,-20.828 49.538,-50.598 67.088,-79.211c11.874,-19.357 19.436,-38.397 20.311,-54.137c1.157,-20.81 -7.175,-37.515 -29.474,-46.663c-32.618,-13.38 -66.377,3.784 -95.949,33.408c-14.612,14.637 -28.338,32.039 -40.585,48.15c3.981,-20.866 10.92,-63.227 5.83,-95.424c-4.923,-31.141 -20.668,-53.153 -50.921,-53.621c-27.177,-0.42 -46.363,17.12 -58.422,44.822c-13.342,30.65 -17.906,74.526 -20.349,107.961l-0.104,1.536Zm152.511,89.728c2.224,-1.377 11.722,-7.369 18.822,-13.343c22.025,-18.53 51.558,-49.915 69.916,-79.845c7.054,-11.499 12.471,-22.679 14.618,-32.707c1.202,-5.611 1.659,-10.672 -0.837,-14.595c-1.451,-2.28 -3.923,-3.894 -7.181,-5.231c-11.717,-4.806 -23.325,-1.25 -34.63,5.607c-14.742,8.941 -28.781,23.457 -41.806,38.88c-20.032,23.719 -37.591,49.708 -50.876,64.828c-8.119,9.242 -15.676,14.961 -21.363,17.027c-5.806,2.11 -10.909,1.11 -15.418,-2.129c-1.674,-1.204 -7.172,-4.896 -6.937,-13.978c0.006,-0.259 0.069,-1.816 0.635,-4.388c1.602,-7.276 10.437,-44.494 12.772,-56.239c3.169,-15.941 11.579,-57.903 6.646,-89.108c-2.098,-13.269 -5.622,-25.297 -18.512,-25.496c-8.049,-0.125 -14.081,3.976 -18.923,10.125c-6.945,8.82 -11.642,21.222 -15.26,34.899c-8.672,32.79 -10.448,72.611 -12.29,97.539c-0.979,13.253 -2.344,23.061 -3.955,27.397c-1.659,4.466 -4.561,7.216 -7.874,8.959c-3.382,1.779 -8.035,3.081 -13.936,0.739c-0.637,-0.253 -4.99,-2.248 -9.483,-8.461c-6.946,-9.606 -30.656,-43.883 -59.715,-65.273c-15.597,-11.481 -32.633,-20.051 -49.164,-13.509c-7.641,3.024 -8.723,9.66 -7.461,17.159c1.515,8.996 5.813,18.963 11.3,29.027c15.132,27.751 39.575,55.75 51.705,66.624c0.949,0.851 12.825,10.07 14.883,12.467c7.414,8.634 3.63,16.857 2.128,19.521c-0.383,0.679 -4.286,8.135 -15.367,8.6c-8.04,0.337 -48.841,0.661 -81.737,20c-15.274,8.98 -29.123,24.379 -35.086,39.791c-2.812,7.266 -4.174,14.486 -0.806,20.302c10.485,18.109 29.147,18.924 48.145,14.642c37.473,-8.445 77.281,-36.966 89.477,-44.752c7.146,-4.562 12.615,-4.785 13.843,-4.71c6.053,0.372 9.826,3.285 12.339,6.594c0.899,1.184 4.924,6.927 2.548,16.612c-3.251,13.249 -24.863,74.68 -30.298,110.205c-1.634,10.685 -1.703,22.446 0.82,32.799c1.917,7.864 5.138,15.032 11.467,18.88c5.496,3.341 12.929,3.741 22.576,1.49c17.177,-4.007 27.569,-20.416 35.251,-38.434c13.933,-32.683 17.368,-72.608 18.162,-84.193c1.494,-21.83 32.886,-6.905 32.946,-6.678c5.055,18.895 17.771,36.113 28.997,51.778c9.433,13.165 39.084,47.293 67.301,61.675c7.782,3.966 15.172,6.89 21.634,4.755c3.291,-1.087 5.842,-3.885 8.137,-8.052c7.242,-13.149 -0.072,-28.253 -9.884,-43.527c-19.792,-30.81 -54.22,-60.621 -69.043,-77.45c-1.022,-1.16 -15.931,-18.149 -18.089,-22.36c-5.295,-10.328 0.23,-17.514 2.879,-20.162c1.232,-1.231 7.497,-7.742 18.21,-3.668c2.742,1.042 16.109,7.897 34.508,15.777c26.117,11.186 63.258,25.025 92.539,23.972c13.74,-0.494 25.663,-4.366 30.425,-17.364c7.615,-20.785 -4.453,-34.747 -21.998,-44.766c-34.948,-19.957 -90.636,-25.842 -116.241,-24.956l0.008,-0.08c-1.705,0.065 -3.155,-0.068 -4.301,-0.33c-8.16,-1.867 -13.67,-9.498 -12.874,-17.831c0.785,-8.231 7.481,-14.624 15.708,-15.055Z" style="fill:#7e4021;"/><path d="M464.881,2018.87c-98.704,35.283 -152.575,-113.557 -52.396,-147.998c104.738,-36.01 150.453,112.946 52.396,147.998Z" style="fill:#ffce7b;"/><path d="M470.491,2034.56c82.906,-29.636 80.441,-126.733 28.277,-167.377c-22.342,-17.408 -53.774,-25.117 -91.702,-12.077c-121.448,41.754 -56.235,222.228 63.425,179.454l0,-0Zm-11.22,-31.388c-77.749,27.792 -120.278,-89.414 -41.368,-116.543c24.918,-8.567 45.7,-4.588 60.378,6.848c34.212,26.657 35.364,90.258 -19.01,109.695l0,-0Z" style="fill:#7e4021;"/><path d="M450.208,1253.12c-2.706,5.786 -1.94,12.873 2.518,18c5.179,5.954 10.569,6.197 13.823,6.052c5.14,-0.229 10.038,-2.321 13.562,-7.887c0.958,-1.514 2.078,-3.813 2.571,-6.962c0.144,-0.915 0.257,-3.324 0.314,-4.885c3.349,-6.795 6.937,-13.473 10.755,-20.014c13.476,-23.082 28.119,-45.347 43.316,-67.324c45.796,-66.225 98.894,-128.354 165.4,-174.52c7.556,-5.245 9.432,-15.639 4.187,-23.195c-5.246,-7.556 -15.639,-9.433 -23.196,-4.187c-69.796,48.45 -125.745,113.441 -173.807,182.943c-15.682,22.677 -30.78,45.659 -44.686,69.477c-4.664,7.989 -9.016,16.164 -13.047,24.491c-0.725,1.497 -1.317,5.027 -1.71,8.011Zm20.558,-8.679c2.368,0.814 4.577,2.175 6.427,4.067c-2.179,-2.271 -4.395,-3.459 -6.427,-4.067Z" style="fill:#7e4021;"/><path d="M421.845,1627.43c-1.508,-1.529 -2.201,-4.376 -3.197,-7.661c-1.743,-5.749 -3.067,-12.691 -4.172,-20.107c-3.741,-25.104 -4.93,-55.099 -7.42,-68.564c-23.053,-124.625 -48.348,-247.867 -89.891,-367.933c-3.007,-8.693 -12.507,-13.308 -21.2,-10.301c-8.693,3.008 -13.308,12.508 -10.301,21.201c40.995,118.48 65.866,240.116 88.615,363.096c2.893,15.641 4.001,53.687 9.474,80.262c3.152,15.302 8.388,27.36 14.362,33.416c6.46,6.549 17.021,6.62 23.569,0.16c6.549,-6.46 6.621,-17.021 0.161,-23.569Z" style="fill:#7e4021;"/></g></svg>