<?xml version="1.0" encoding="UTF-8" standalone="no"?><!DOCTYPE svg PUBLIC "-//W3C//DTD SVG 1.1//EN" "http://www.w3.org/Graphics/SVG/1.1/DTD/svg11.dtd"><svg width="100%" height="100%" viewBox="0 0 2303 4037" version="1.1" xmlns="http://www.w3.org/2000/svg" xmlns:xlink="http://www.w3.org/1999/xlink" xml:space="preserve" xmlns:serif="http://www.serif.com/" style="fill-rule:evenodd;clip-rule:evenodd;stroke-linejoin:round;stroke-miterlimit:2;"><g id="Pod-Machine" serif:id="Pod Machine"><path d="M1151.84,3857.63c-626.108,0 -1134.43,-104.588 -1134.43,-730.697c-0,-284.099 314.71,-1508.71 487.543,-1942.87c208.064,-522.651 1079.52,-449.249 1269.08,-101.438c275.791,506.038 512.234,1673.24 512.234,2044.31c0,626.109 -508.32,730.697 -1134.43,730.697Z" style="fill:#edaf5f;"/><path d="M1151.84,3874.3c367.298,0 694.279,-36.699 904.31,-190.194c154.144,-112.652 246.786,-287.605 246.786,-557.17c-0,-197.435 -66.523,-619.447 -170.433,-1048.1c-92.144,-380.118 -213.707,-765.42 -343.834,-1004.19c-101.601,-186.425 -393.616,-297.843 -680.289,-283.181c-261.462,13.373 -517.195,130.928 -618.909,386.431c-95.905,240.911 -235.462,724.731 -340.858,1156.87c-85.164,349.189 -147.868,664.776 -147.868,792.16c0,269.565 92.642,444.518 246.786,557.17c210.031,153.495 537.012,190.194 904.309,190.194Zm0,-33.333c-359.123,-0 -679.284,-33.694 -884.64,-183.773c-146.521,-107.081 -233.122,-274.025 -233.122,-530.258c0,-149.506 87.812,-560.509 195.751,-978.738c96.517,-373.97 209.283,-753.672 290.611,-957.967c96.706,-242.923 341.053,-352.754 589.643,-365.469c272.961,-13.961 552.576,88.334 649.318,265.843c129.063,236.814 249.316,619.076 340.707,996.087c103.136,425.46 169.495,844.278 169.495,1040.24c-0,256.233 -86.601,423.177 -233.122,530.258c-205.356,150.079 -525.517,183.773 -884.641,183.773Z" style="fill:#7e4021;"/><path d="M1969.89,1990.77c6.743,29.257 15.015,58.161 21.969,87.377c14.217,59.725 27.225,119.778 37.641,180.285c1.56,9.066 10.187,15.159 19.252,13.598c9.066,-1.56 15.159,-10.187 13.598,-19.252c-10.535,-61.2 -23.684,-121.942 -38.064,-182.35c-6.936,-29.139 -15.189,-57.965 -21.914,-87.145c-2.066,-8.963 -11.021,-14.563 -19.985,-12.497c-8.963,2.066 -14.563,11.021 -12.497,19.984Z" style="fill:#7e4021;"/><path d="M2058.01,2339.95c5.678,24.1 17.089,89.78 22.49,113.942c2.007,8.977 10.924,14.636 19.901,12.629c8.977,-2.006 14.636,-10.924 12.63,-19.901c-5.419,-24.241 -16.88,-90.134 -22.575,-114.313c-2.11,-8.954 -11.091,-14.51 -20.045,-12.401c-8.953,2.109 -14.51,11.09 -12.401,20.044Z" style="fill:#7e4021;"/><path d="M1154.7,800.873c-291.701,0 -528.525,-236.824 -528.525,-528.524c0,-291.7 236.824,-254.109 528.525,-254.109c291.7,-0 528.524,-37.591 528.524,254.109c-0,291.7 -236.824,528.524 -528.524,528.524Z" style="fill:#ffce7b;"/><path d="M1154.7,817.54c150.45,-0 286.749,-61.071 385.434,-159.756c98.686,-98.686 159.756,-234.985 159.756,-385.435c0,-137.386 -50.457,-205.831 -131.942,-240.276c-98.541,-41.656 -247.104,-30.5 -413.248,-30.5c-166.145,0 -314.708,-11.156 -413.249,30.5c-81.484,34.445 -131.942,102.89 -131.942,240.276c-0,150.45 61.07,286.749 159.756,385.435c98.685,98.685 234.985,159.756 385.435,159.756Zm-0,-33.333c-141.251,-0 -269.214,-57.342 -361.865,-149.993c-92.651,-92.652 -149.993,-220.615 -149.993,-361.865c0,-118.997 41.01,-179.738 111.588,-209.573c95.418,-40.336 239.391,-27.869 400.27,-27.869c160.878,-0 304.852,-12.467 400.27,27.869c70.577,29.835 111.587,90.576 111.587,209.573c0,141.25 -57.341,269.213 -149.993,361.865c-92.651,92.651 -220.614,149.993 -361.864,149.993Z" style="fill:#7e4021;"/><path d="M1154.7,106.143c550.161,-0 996.823,446.661 996.823,996.823c-0,550.161 -446.662,479.262 -996.823,479.262c-550.162,0 -996.823,70.899 -996.823,-479.262c-0,-550.162 446.661,-996.823 996.823,-996.823Z" style="fill:#fee4a8;"/><path d="M1154.7,479.028c-120.846,0 -230.326,49.053 -309.594,128.32c-79.267,79.268 -128.32,188.748 -128.32,309.594c0,120.846 49.053,230.325 128.32,309.593c79.268,79.267 188.748,128.32 309.594,128.32c120.846,-0 230.325,-49.053 309.593,-128.32c79.267,-79.268 128.32,-188.747 128.32,-309.593c0,-120.846 -49.053,-230.326 -128.32,-309.594c-79.268,-79.267 -188.747,-128.32 -309.593,-128.32Zm-0,33.334c111.646,-0 212.79,45.324 286.023,118.557c73.233,73.233 118.557,174.376 118.557,286.023c-0,111.646 -45.324,212.79 -118.557,286.023c-73.233,73.232 -174.377,118.557 -286.023,118.557c-111.647,-0 -212.79,-45.325 -286.023,-118.557c-73.233,-73.233 -118.557,-174.377 -118.557,-286.023c-0,-111.647 45.324,-212.79 118.557,-286.023c73.233,-73.233 174.376,-118.557 286.023,-118.557Z" style="fill:#7e4021;"/><circle cx="1154.7" cy="916.942" r="331.013" style="fill:#ee909d;"/><path d="M1154.7,682.281c-0,-0 -41.591,60.127 -41.591,85.896c0,22.954 18.636,41.59 41.591,41.59c22.954,-0 41.59,-18.636 41.59,-41.59c-0,-25.769 -41.59,-85.896 -41.59,-85.896Z" style="fill:#9d5e3e;"/><path d="M1168.41,672.8c-3.113,-4.5 -8.236,-7.186 -13.707,-7.186c-5.472,0 -10.595,2.686 -13.707,7.186c-0,-0 -22.556,32.671 -35.18,61.004c-5.808,13.038 -9.37,25.436 -9.37,34.373c-0,16.076 6.523,30.642 17.069,41.188c10.545,10.545 25.111,17.068 41.188,17.068c16.076,0 30.642,-6.523 41.188,-17.068c10.545,-10.546 17.068,-25.112 17.068,-41.188c0,-8.937 -3.562,-21.335 -9.37,-34.373c-12.624,-28.333 -35.179,-61.004 -35.179,-61.004Zm-13.707,40.282c4.764,7.845 10.055,17.062 14.627,26.235c5.434,10.905 10.296,21.514 10.296,28.86c0,6.877 -2.794,13.106 -7.306,17.617c-4.511,4.511 -10.74,7.306 -17.617,7.306c-6.878,0 -13.107,-2.795 -17.618,-7.306c-4.511,-4.511 -7.306,-10.74 -7.306,-17.617c0,-7.346 4.862,-17.955 10.297,-28.86c4.571,-9.173 9.863,-18.39 14.627,-26.235Z" style="fill:#7e4021;"/><path d="M823.692,916.942c215.068,-63.225 658.085,-14.042 662.026,-0c-0,182.691 -148.322,331.013 -331.013,331.013c-182.691,-0 -331.013,-148.322 -331.013,-331.013Z" style="fill:#f8bcc4;"/><path d="M807.025,916.942c0,95.945 38.945,182.866 101.879,245.8c37.118,37.119 82.581,65.892 133.33,83.256l1.008,0.344c34.987,11.85 72.48,18.279 111.463,18.279l1.124,-0.002c95.498,-0.302 181.988,-39.188 244.676,-101.877c19.434,-19.434 36.581,-41.155 50.996,-64.718c32.277,-52.759 50.883,-114.765 50.883,-181.082c0,-95.946 -38.945,-182.867 -101.879,-245.801c-62.934,-62.934 -149.855,-101.879 -245.8,-101.879c-95.946,0 -182.867,38.945 -245.801,101.879c-62.934,62.934 -101.879,149.855 -101.879,245.801Zm650.137,85.854l-0.002,0.008l-0.227,0.793l-0.034,0.12l-0.208,0.723l-0.055,0.189l-0.197,0.674l-0.069,0.236l-0.188,0.639l-0.081,0.271l-0.182,0.611l-0.089,0.298l-0.178,0.589l-0.096,0.319l-0.174,0.57l-0.103,0.336l-0.171,0.556l-0.109,0.35l-0.168,0.542l-0.114,0.363l-0.166,0.53l-0.119,0.375l-0.165,0.518l-0.123,0.386l-0.163,0.507l-0.128,0.397l-0.161,0.495l-0.133,0.41l-0.159,0.482l-0.139,0.424l-0.155,0.468l-0.148,0.443l-0.15,0.448l-0.16,0.476l-0.14,0.414l-0.189,0.557l-0.113,0.332l-0.306,0.889l-0.048,0.138l-0.262,0.754l-0.097,0.276l-0.215,0.615l-0.111,0.314l-0.205,0.577l-0.118,0.33l-0.2,0.559l-0.121,0.338l-0.199,0.55l-0.125,0.342l-0.199,0.546l-0.126,0.343l-0.2,0.544l-0.127,0.342l-0.202,0.544l-0.127,0.34l-0.205,0.546l-0.127,0.336l-0.208,0.549l-0.126,0.332l-0.212,0.554l-0.124,0.325l-0.217,0.56l-0.122,0.317l-0.222,0.569l-0.12,0.307l-0.228,0.581l-0.116,0.294l-0.237,0.597l-0.109,0.276l-0.248,0.62l-0.101,0.251l-0.264,0.654l-0.087,0.217l-0.288,0.706l-0.066,0.163l-0.328,0.798l-0.029,0.069c-0.605,1.467 -1.221,2.93 -1.849,4.388l-0.041,0.094l-0.332,0.768l-0.067,0.156l-0.308,0.705l-0.084,0.193l-0.294,0.667l-0.095,0.216l-0.285,0.643l-0.103,0.231l-0.28,0.627l-0.109,0.242l-0.278,0.616l-0.112,0.247l-0.277,0.61l-0.114,0.25l-0.278,0.607l-0.115,0.25l-0.28,0.607l-0.115,0.248l-0.284,0.61l-0.112,0.241l-0.29,0.618l-0.109,0.232l-0.298,0.629l-0.103,0.219l-0.309,0.647l-0.095,0.199l-0.324,0.674l-0.081,0.17l-0.348,0.717l-0.06,0.125l-0.386,0.791l-0.024,0.049c-0.699,1.427 -1.405,2.843 -2.122,4.252l-0.011,0.02l-0.414,0.812l-0.057,0.11l-0.37,0.72l-0.084,0.163l-0.346,0.666l-0.101,0.195l-0.331,0.633l-0.114,0.217l-0.321,0.61l-0.122,0.232l-0.315,0.594l-0.129,0.242l-0.311,0.584l-0.133,0.248l-0.31,0.576l-0.136,0.252l-0.31,0.572l-0.137,0.253l-0.312,0.572l-0.137,0.25l-0.316,0.574l-0.135,0.246l-0.321,0.58l-0.132,0.238l-0.328,0.589l-0.127,0.227l-0.34,0.605l-0.117,0.208l-0.357,0.632l-0.102,0.18l-0.384,0.675l-0.077,0.135l-0.432,0.754l-0.031,0.054c-0.628,1.091 -1.264,2.182 -1.906,3.267l-0.026,0.044l-0.449,0.755l-0.084,0.142l-0.392,0.656l-0.117,0.194l-0.362,0.602l-0.137,0.226l-0.345,0.569l-0.15,0.247l-0.333,0.547l-0.161,0.261l-0.326,0.531l-0.167,0.272l-0.321,0.519l-0.173,0.278l-0.319,0.513l-0.176,0.282l-0.318,0.507l-0.179,0.284l-0.318,0.504l-0.18,0.285l-0.319,0.503l-0.181,0.284l-0.322,0.504l-0.179,0.28l-0.327,0.508l-0.177,0.274l-0.334,0.515l-0.172,0.265l-0.344,0.528l-0.163,0.25l-0.361,0.549l-0.149,0.227l-0.387,0.586l-0.124,0.188l-0.441,0.662l-0.073,0.111l-0.52,0.776c-0.176,0.261 -0.352,0.523 -0.528,0.785l-0.525,0.774l-0.073,0.106l-0.449,0.658l-0.137,0.199l-0.387,0.565l-0.168,0.243l-0.358,0.518l-0.187,0.269l-0.342,0.492l-0.199,0.284l-0.332,0.474l-0.207,0.295l-0.326,0.462l-0.214,0.303l-0.321,0.453l-0.219,0.308l-0.319,0.447l-0.223,0.31l-0.317,0.443l-0.226,0.312l-0.317,0.439l-0.227,0.314l-0.318,0.437l-0.229,0.313l-0.319,0.437l-0.229,0.311l-0.322,0.438l-0.228,0.308l-0.326,0.44l-0.225,0.304l-0.332,0.445l-0.222,0.298l-0.341,0.454l-0.215,0.286l-0.355,0.469l-0.203,0.269l-0.379,0.5l-0.18,0.237l-0.437,0.571l-0.125,0.163l-0.567,0.738l-0.57,0.736l-0.124,0.159l-0.444,0.57l-0.19,0.243l-0.38,0.484l-0.218,0.277l-0.354,0.449l-0.233,0.295l-0.341,0.429l-0.243,0.306l-0.333,0.416l-0.25,0.313l-0.328,0.407l-0.256,0.318l-0.324,0.401l-0.26,0.321l-0.323,0.397l-0.263,0.322l-0.322,0.394l-0.265,0.323l-0.322,0.391l-0.267,0.323l-0.322,0.39l-0.268,0.322l-0.324,0.389l-0.268,0.322l-0.326,0.388l-0.269,0.32l-0.328,0.39l-0.268,0.316l-0.332,0.392l-0.265,0.313l-0.338,0.396l-0.262,0.306l-0.347,0.404l-0.255,0.297l-0.36,0.417l-0.244,0.281l-0.387,0.447l-0.218,0.25l-0.468,0.535l-0.14,0.16l-0.611,0.695l-0.134,0.151l-0.477,0.54l-0.222,0.249l-0.392,0.44l-0.251,0.281l-0.364,0.407l-0.266,0.295l-0.352,0.39l-0.274,0.304l-0.345,0.38l-0.281,0.309l-0.341,0.374l-0.285,0.311l-0.339,0.369l-0.288,0.313l-0.337,0.366l-0.291,0.314l-0.337,0.363l-0.293,0.315l-0.337,0.361l-0.294,0.314l-0.338,0.36l-0.295,0.313l-0.34,0.359l-0.295,0.312l-0.341,0.359l-0.295,0.31l-0.344,0.359l-0.295,0.307l-0.347,0.362l-0.293,0.303l-0.352,0.365l-0.29,0.298l-0.359,0.37l-0.285,0.291l-0.37,0.378l-0.275,0.281l-0.39,0.396l-0.258,0.262l-0.434,0.437l-0.216,0.218l-0.651,0.653c-56.678,56.678 -134.872,91.841 -221.214,92.114l-1.016,0.002c-25.972,-0 -51.212,-3.157 -75.346,-9.105c-56.513,-13.926 -107.021,-43.147 -146.885,-83.011l-0.65,-0.652l-0.215,-0.217l-0.433,-0.437l-0.258,-0.261l-0.388,-0.395l-0.275,-0.28l-0.37,-0.377l-0.283,-0.291l-0.36,-0.369l-0.288,-0.298l-0.353,-0.364l-0.291,-0.302l-0.348,-0.362l-0.292,-0.305l-0.345,-0.36l-0.293,-0.308l-0.342,-0.36l-0.294,-0.31l-0.34,-0.36l-0.293,-0.311l-0.339,-0.361l-0.292,-0.311l-0.339,-0.363l-0.289,-0.311l-0.34,-0.366l-0.287,-0.31l-0.342,-0.37l-0.283,-0.307l-0.344,-0.376l-0.278,-0.303l-0.35,-0.385l-0.271,-0.296l-0.36,-0.399l-0.258,-0.284l-0.383,-0.425l-0.233,-0.259l-0.45,-0.503l-0.165,-0.183l-0.612,-0.688l-0.14,-0.158l-0.47,-0.532l-0.225,-0.255l-0.384,-0.437l-0.25,-0.286l-0.356,-0.407l-0.262,-0.301l-0.343,-0.395l-0.268,-0.31l-0.334,-0.387l-0.272,-0.316l-0.329,-0.383l-0.274,-0.32l-0.325,-0.381l-0.275,-0.323l-0.322,-0.38l-0.275,-0.325l-0.32,-0.38l-0.274,-0.327l-0.319,-0.38l-0.274,-0.327l-0.318,-0.382l-0.272,-0.327l-0.318,-0.384l-0.27,-0.327l-0.318,-0.387l-0.267,-0.325l-0.321,-0.392l-0.263,-0.322l-0.324,-0.399l-0.257,-0.317l-0.331,-0.409l-0.248,-0.308l-0.344,-0.428l-0.233,-0.291l-0.375,-0.47l-0.2,-0.25l-0.506,-0.637l-0.067,-0.086l-0.571,-0.724l-0.178,-0.227l-0.391,-0.498l-0.222,-0.285l-0.345,-0.443l-0.238,-0.308l-0.326,-0.421l-0.247,-0.321l-0.316,-0.41l-0.252,-0.328l-0.308,-0.405l-0.255,-0.334l-0.304,-0.4l-0.256,-0.338l-0.301,-0.398l-0.256,-0.341l-0.298,-0.398l-0.256,-0.342l-0.297,-0.398l-0.255,-0.343l-0.296,-0.399l-0.254,-0.344l-0.295,-0.401l-0.252,-0.343l-0.296,-0.403l-0.249,-0.342l-0.297,-0.408l-0.246,-0.339l-0.299,-0.414l-0.242,-0.335l-0.302,-0.422l-0.236,-0.328l-0.311,-0.436l-0.225,-0.316l-0.328,-0.462l-0.206,-0.291l-0.374,-0.531l-0.158,-0.223l-0.529,-0.757l-0.092,-0.132l-0.436,-0.626l-0.187,-0.271l-0.338,-0.488l-0.213,-0.311l-0.31,-0.451l-0.225,-0.328l-0.296,-0.435l-0.23,-0.339l-0.289,-0.426l-0.233,-0.346l-0.284,-0.42l-0.235,-0.351l-0.279,-0.417l-0.236,-0.354l-0.277,-0.416l-0.236,-0.356l-0.274,-0.416l-0.236,-0.358l-0.273,-0.416l-0.234,-0.358l-0.272,-0.417l-0.234,-0.359l-0.271,-0.419l-0.231,-0.358l-0.272,-0.422l-0.229,-0.356l-0.273,-0.427l-0.225,-0.353l-0.275,-0.434l-0.221,-0.347l-0.28,-0.445l-0.213,-0.338l-0.29,-0.463l-0.201,-0.321l-0.313,-0.502l-0.176,-0.284l-0.394,-0.636l-0.093,-0.151l-0.484,-0.788l-0.139,-0.229l-0.343,-0.561l-0.185,-0.305l-0.295,-0.487l-0.2,-0.333l-0.277,-0.461l-0.208,-0.347l-0.268,-0.448l-0.212,-0.356l-0.261,-0.44l-0.214,-0.363l-0.257,-0.435l-0.215,-0.367l-0.254,-0.433l-0.215,-0.37l-0.251,-0.432l-0.215,-0.371l-0.25,-0.432l-0.214,-0.373l-0.248,-0.433l-0.213,-0.372l-0.248,-0.435l-0.211,-0.372l-0.247,-0.437l-0.209,-0.371l-0.248,-0.441l-0.206,-0.369l-0.249,-0.446l-0.203,-0.364l-0.251,-0.455l-0.198,-0.357l-0.257,-0.469l-0.189,-0.345l-0.27,-0.494l-0.175,-0.321l-0.301,-0.555l-0.141,-0.261l-0.439,-0.817l-0.041,-0.076l-0.397,-0.743l-0.149,-0.283l-0.285,-0.538l-0.175,-0.331l-0.258,-0.491l-0.184,-0.352l-0.246,-0.472l-0.19,-0.364l-0.238,-0.461l-0.192,-0.372l-0.234,-0.454l-0.193,-0.378l-0.23,-0.45l-0.194,-0.382l-0.227,-0.448l-0.194,-0.384l-0.225,-0.448l-0.193,-0.385l-0.224,-0.448l-0.191,-0.386l-0.223,-0.449l-0.19,-0.386l-0.222,-0.451l-0.189,-0.385l-0.221,-0.454l-0.187,-0.383l-0.222,-0.459l-0.183,-0.38l-0.224,-0.465l-0.179,-0.374l-0.227,-0.476l-0.174,-0.365l-0.233,-0.494l-0.165,-0.349l-0.249,-0.53l-0.146,-0.313l-0.299,-0.642l-0.095,-0.203l-0.39,-0.846l-0.1,-0.219l-0.288,-0.629l-0.145,-0.319l-0.241,-0.53l-0.16,-0.353l-0.224,-0.497l-0.165,-0.37l-0.216,-0.482l-0.169,-0.38l-0.209,-0.473l-0.171,-0.387l-0.205,-0.468l-0.172,-0.392l-0.202,-0.464l-0.171,-0.395l-0.201,-0.463l-0.17,-0.397l-0.199,-0.462l-0.17,-0.398l-0.196,-0.463l-0.169,-0.399l-0.196,-0.464l-0.167,-0.398l-0.195,-0.467l-0.165,-0.397l-0.195,-0.47l-0.163,-0.394l-0.195,-0.476l-0.16,-0.39l-0.197,-0.484l-0.156,-0.383l-0.201,-0.497l-0.149,-0.371l-0.208,-0.521l-0.139,-0.348l-0.229,-0.577l-0.116,-0.294l-0.33,-0.837l-0.013,-0.034l-0.34,-0.873l-0.11,-0.286l-0.227,-0.588l-0.133,-0.347l-0.202,-0.529l-0.141,-0.373l-0.191,-0.504l-0.146,-0.386l-0.184,-0.492l-0.147,-0.395l-0.18,-0.485l-0.148,-0.401l-0.177,-0.479l-0.148,-0.406l-0.174,-0.477l-0.148,-0.408l-0.172,-0.476l-0.147,-0.409l-0.171,-0.476l-0.146,-0.41l-0.169,-0.477l-0.144,-0.41l-0.168,-0.479l-0.143,-0.409l-0.168,-0.482l-0.141,-0.407l-0.167,-0.487l-0.138,-0.403l-0.168,-0.493l-0.135,-0.398l-0.17,-0.503l-0.131,-0.39l-0.173,-0.52l-0.124,-0.373l-0.183,-0.554l-0.112,-0.34l-0.212,-0.648l-0.081,-0.247l-0.29,-0.897l-0.062,-0.194l-0.225,-0.704l-0.104,-0.329l-0.181,-0.57l-0.116,-0.37l-0.165,-0.53l-0.121,-0.39l-0.159,-0.511l-0.123,-0.402l-0.154,-0.501l-0.124,-0.409l-0.15,-0.495l-0.124,-0.414l-0.147,-0.492l-0.124,-0.417l-0.145,-0.489l-0.124,-0.42l-0.143,-0.488l-0.122,-0.421l-0.142,-0.489l-0.121,-0.421l-0.14,-0.49l-0.12,-0.421l-0.139,-0.492l-0.118,-0.42l-0.138,-0.496l-0.116,-0.416l-0.139,-0.501l-0.113,-0.413l-0.139,-0.509l-0.11,-0.405l-0.14,-0.522l-0.106,-0.394l-0.145,-0.545l-0.099,-0.371l-0.156,-0.595l-0.084,-0.323l-0.205,-0.789l-0.034,-0.129l-0.235,-0.92l-0.071,-0.283l-0.161,-0.638l-0.09,-0.359l-0.14,-0.562l-0.096,-0.39l-0.132,-0.533l-0.098,-0.406l-0.126,-0.519l-0.1,-0.414l-0.122,-0.511l-0.1,-0.421l-0.119,-0.506l-0.1,-0.425l-0.117,-0.502l-0.098,-0.429l-0.115,-0.5l-0.098,-0.431l-0.113,-0.5l-0.097,-0.431l-0.112,-0.501l-0.095,-0.431l-0.111,-0.503l-0.094,-0.43l-0.109,-0.505l-0.092,-0.428l-0.109,-0.51l-0.09,-0.425l-0.108,-0.515l-0.087,-0.42l-0.109,-0.526l-0.084,-0.41l-0.111,-0.542l-0.08,-0.395l-0.114,-0.573l-0.073,-0.365l-0.129,-0.654l-0.056,-0.284l-0.181,-0.94l-0.028,-0.146l-0.151,-0.795l-0.063,-0.333l-0.114,-0.609l-0.07,-0.383l-0.103,-0.559l-0.073,-0.406l-0.098,-0.538l-0.074,-0.419l-0.093,-0.526l-0.075,-0.427l-0.09,-0.52l-0.075,-0.432l-0.088,-0.515l-0.073,-0.436l-0.086,-0.512l-0.073,-0.439l-0.084,-0.511l-0.071,-0.44l-0.082,-0.511l-0.071,-0.44l-0.08,-0.512l-0.069,-0.44l-0.08,-0.515l-0.067,-0.438l-0.078,-0.518l-0.066,-0.436l-0.077,-0.522l-0.064,-0.432l-0.077,-0.53l-0.061,-0.425l-0.077,-0.542l-0.058,-0.413l-0.078,-0.564l-0.054,-0.393l-0.083,-0.609l-0.047,-0.348l-0.1,-0.761l-0.026,-0.197l-0.124,-0.96l-0.034,-0.27l-0.087,-0.69l-0.045,-0.367l-0.073,-0.594l-0.048,-0.402l-0.066,-0.56l-0.05,-0.42l-0.063,-0.542l-0.049,-0.431l-0.06,-0.533l-0.048,-0.438l-0.058,-0.527l-0.048,-0.443l-0.055,-0.524l-0.047,-0.445l-0.054,-0.522l-0.045,-0.447l-0.052,-0.521l-0.045,-0.449l-0.05,-0.521l-0.043,-0.448l-0.049,-0.523l-0.041,-0.448l-0.048,-0.525l-0.04,-0.445l-0.046,-0.53l-0.038,-0.442l-0.045,-0.535l-0.036,-0.437l-0.045,-0.545l-0.034,-0.428l-0.043,-0.56l-0.032,-0.413l-0.044,-0.589l-0.029,-0.386l-0.047,-0.658l-0.023,-0.317l-0.066,-0.975l-0.004,-0.061l-0.06,-0.916l-0.02,-0.332l-0.04,-0.645l-0.023,-0.392l-0.035,-0.587l-0.023,-0.418l-0.031,-0.561l-0.023,-0.433l-0.029,-0.547l-0.022,-0.442l-0.027,-0.539l-0.021,-0.448l-0.024,-0.534l-0.02,-0.452l-0.023,-0.531l-0.018,-0.454l-0.012,-0.298c68.573,-18.101 157.791,-25.583 247.678,-27.11c143.789,-2.442 289.318,10.529 356.364,21.234c9.001,1.437 18.076,3.405 24.19,4.83c-0.927,25.674 -4.94,50.567 -11.677,74.313Zm11.062,-108.799c-5.606,-77.602 -39.448,-147.445 -91.289,-199.286c-56.9,-56.9 -135.485,-92.116 -222.23,-92.116c-86.746,0 -165.331,35.216 -222.231,92.116c-52.063,52.063 -85.972,122.282 -91.361,200.305c87.128,-21.324 203.571,-27.485 313.825,-26.022c127.456,1.69 246.561,13.436 301.729,22.858c4.19,0.716 8.048,1.434 11.557,2.145Z" style="fill:#7e4021;"/><path d="M1068.09,979.127c-0,-0 -41.59,60.127 -41.59,85.896c-0,22.954 18.636,41.59 41.59,41.59c22.954,-0 41.59,-18.636 41.59,-41.59c-0,-25.769 -41.59,-85.896 -41.59,-85.896Z" style="fill:#9d5e3e;"/><path d="M1081.79,969.646c-3.113,-4.5 -8.236,-7.186 -13.707,-7.186c-5.472,0 -10.595,2.686 -13.707,7.186c-0,-0 -22.556,32.671 -35.179,61.004c-5.809,13.038 -9.371,25.436 -9.371,34.373c-0,16.076 6.523,30.642 17.069,41.188c10.545,10.545 25.111,17.068 41.188,17.068c16.077,0 30.642,-6.523 41.188,-17.068c10.545,-10.546 17.069,-25.112 17.069,-41.188c-0,-8.937 -3.562,-21.335 -9.371,-34.373c-12.623,-28.333 -35.179,-61.004 -35.179,-61.004Zm-13.707,40.282c4.764,7.845 10.056,17.062 14.627,26.235c5.434,10.905 10.296,21.514 10.296,28.86c0,6.877 -2.794,13.106 -7.305,17.617c-4.512,4.512 -10.741,7.306 -17.618,7.306c-6.878,0 -13.107,-2.794 -17.618,-7.306c-4.511,-4.511 -7.306,-10.74 -7.306,-17.617c0,-7.346 4.862,-17.955 10.297,-28.86c4.571,-9.173 9.863,-18.39 14.627,-26.235Z" style="fill:#7e4021;"/><path d="M1242.57,979.127c0,-0 -41.59,60.127 -41.59,85.896c0,22.954 18.636,41.59 41.59,41.59c22.954,-0 41.59,-18.636 41.59,-41.59c0,-25.769 -41.59,-85.896 -41.59,-85.896Z" style="fill:#9d5e3e;"/><path d="M1256.28,969.646c-3.112,-4.5 -8.235,-7.186 -13.707,-7.186c-5.471,0 -10.594,2.686 -13.707,7.186c0,-0 -22.556,32.671 -35.179,61.004c-5.809,13.038 -9.371,25.436 -9.371,34.373c0,16.076 6.524,30.642 17.069,41.188c10.546,10.545 25.111,17.068 41.188,17.068c16.077,0 30.643,-6.523 41.188,-17.068c10.546,-10.546 17.069,-25.112 17.069,-41.188c-0,-8.937 -3.562,-21.335 -9.371,-34.373c-12.623,-28.333 -35.179,-61.004 -35.179,-61.004Zm-13.707,40.282c4.764,7.845 10.056,17.062 14.627,26.235c5.435,10.905 10.297,21.514 10.297,28.86c-0,6.877 -2.795,13.106 -7.306,17.617c-4.511,4.512 -10.74,7.306 -17.618,7.306c-6.877,0 -13.107,-2.794 -17.618,-7.306c-4.511,-4.511 -7.305,-10.74 -7.305,-17.617c-0,-7.346 4.862,-17.955 10.296,-28.86c4.571,-9.173 9.863,-18.39 14.627,-26.235Z" style="fill:#7e4021;"/><path d="M900.597,1803.61c-100.094,-0.658 -101.511,-123.514 -105.105,-217.555c31.759,-1.709 47.096,2.05 105.105,2.05c58.009,-0 100.575,-2.958 105.105,-0.694c6.443,93.889 -14.27,216.796 -105.105,216.199Z" style="fill:#e0f0ff;"/><path d="M1394.6,1803.61c-100.094,-0.658 -101.511,-123.514 -105.105,-217.555c31.759,-1.709 47.096,2.05 105.105,2.05c58.009,-0 100.575,-2.958 105.105,-0.694c6.443,93.889 -14.27,216.796 -105.105,216.199Z" style="fill:#e0f0ff;"/><path d="M779.395,1601.29c2.008,51.592 5.12,109.039 22.926,150.976c17.118,40.314 46.713,67.675 98.166,68.014l0,-0c47.08,0.309 78.671,-26.831 98.053,-67.578c20.245,-42.563 26.578,-100.757 24.523,-152.829c43.054,-0.532 87.01,-0.977 131.642,-0.977c40.122,-0 79.697,0.359 118.636,0.82c2.007,51.994 5,110.186 22.987,152.55c17.118,40.314 46.714,67.675 98.167,68.014l-0,-0c47.08,0.309 78.67,-26.831 98.052,-67.578c20.043,-42.137 26.45,-99.594 24.582,-151.263c161.328,-1.587 302.544,-12.955 411.234,-58.902c148.849,-62.922 239.831,-188.604 239.831,-439.57c0,-279.681 -113.53,-533.055 -296.982,-716.508c-183.453,-183.452 -436.827,-296.982 -716.507,-296.982c-279.681,-0 -533.055,113.53 -716.508,296.982c-183.452,183.453 -296.982,436.827 -296.982,716.508c-0,250.966 90.982,376.648 239.832,439.57c105.793,44.722 242.403,56.684 398.348,58.753Zm210.447,1.961c1.678,46.233 -3.51,97.514 -21.404,135.133c-13.564,28.517 -34.782,48.779 -67.731,48.563l-0.001,-0c-35.683,-0.235 -55.831,-19.75 -67.703,-47.709c-16.148,-38.031 -18.528,-89.909 -20.24,-136.957c1.177,0.003 2.345,0.014 3.509,0.031c20.726,0.303 40.237,2.463 84.325,2.463c39.064,-0 71.118,-1.345 89.245,-1.524Zm494.007,-0c1.679,46.233 -3.51,97.514 -21.404,135.133c-13.564,28.517 -34.782,48.779 -67.731,48.563l-0,-0c-35.684,-0.235 -55.832,-19.75 -67.704,-47.709c-16.148,-38.031 -18.527,-89.909 -20.24,-136.957c1.178,0.003 2.345,0.014 3.509,0.031c20.727,0.303 40.237,2.463 84.325,2.463c39.065,-0 71.118,-1.345 89.245,-1.524Zm-329.144,-1480.44c270.481,0 515.518,109.801 692.937,287.22c177.418,177.418 287.219,422.456 287.219,692.937c-0,232.577 -81.534,350.555 -219.477,408.868c-181.347,76.66 -454.921,53.727 -760.679,53.727c-305.758,0 -579.333,22.933 -760.679,-53.727c-137.943,-58.313 -219.478,-176.291 -219.478,-408.868c0,-270.481 109.801,-515.519 287.22,-692.937c177.418,-177.419 422.456,-287.22 692.937,-287.22Z" style="fill:#7e4021;"/><path d="M450.012,613.989c-1.189,-20.839 -104.239,-30.972 -130.266,-63.196c-33.362,-41.306 -42.873,-214.519 -68.347,-210.235c-17.954,3.019 -13.079,174.183 -34.153,208.44c-26.041,42.332 -115.342,41.081 -119.172,65.396c-3.754,23.826 80.332,12.955 118.987,83.038c40.564,73.542 39.429,215.241 61.977,214.238c14.824,-0.659 18.356,-76.991 19.377,-83.319c10.476,-64.875 6.985,-87.436 32.566,-139.857c25.11,-51.457 120.117,-55.484 119.031,-74.505Z" style="fill:#fff;"/><path d="M466.652,613.039c-0.311,-5.433 -2.465,-10.872 -7.177,-15.872c-4.985,-5.289 -14.599,-10.74 -27.342,-15.529c-19.29,-7.251 -47.038,-14.33 -70.056,-23.691c-12.427,-5.055 -23.499,-10.363 -29.365,-17.626c-9.624,-11.916 -16.353,-36.261 -22.749,-63.39c-10.828,-45.92 -19.202,-99.515 -29.3,-126.047c-3.614,-9.495 -7.875,-16.289 -11.925,-20.157c-6.29,-6.008 -13.188,-7.768 -20.103,-6.605c-4.762,0.801 -9.826,3.343 -13.908,9.204c-2.99,4.293 -6.046,12.46 -8.138,23.74c-5.226,28.172 -7.472,81.284 -12.062,125.253c-2.693,25.799 -5.478,48.195 -11.476,57.946c-7.338,11.928 -21.387,18.881 -36.068,24.599c-18.115,7.056 -37.598,11.738 -52.105,17.022c-9.781,3.563 -17.68,7.632 -22.884,12.126c-6.004,5.186 -9.348,11.213 -10.384,17.789c-2.157,13.695 6.275,25.746 27.516,33.457c23.419,8.502 68.846,15.813 93.341,60.223c31.97,57.961 37.165,159.017 49.531,196.567c2.853,8.664 6.396,14.898 9.884,18.622c5.396,5.763 11.552,7.932 17.896,7.65c7.597,-0.338 16.749,-5.584 22.21,-18.447c8.975,-21.135 12.021,-73.537 12.881,-78.866c10.12,-62.676 6.376,-84.558 31.09,-135.204c7.185,-14.723 21.832,-24.161 37.198,-31.573c18.306,-8.829 38.041,-14.551 52.231,-19.883c12.069,-4.535 20.884,-9.628 25.194,-14.507c4.609,-5.217 6.406,-10.904 6.07,-16.801Zm-210.366,-227.339c7.67,30.976 14.842,74.193 24.019,110.272c7.201,28.306 16.089,52.433 26.476,65.294c7.61,9.422 20.343,17.711 35.751,24.585c19.482,8.692 43.483,15.547 63.469,22.025c5.782,1.874 11.194,3.706 15.977,5.564c-3.764,1.537 -7.843,3.118 -11.608,4.42c-18.9,6.531 -41.834,14.597 -60.683,26.992c-14.333,9.425 -26.355,21.312 -33.685,36.333c-26.447,54.198 -23.21,77.436 -34.04,144.509c-0.49,3.031 -1.542,22.252 -4.169,41.392c-9.485,-48.561 -18.81,-128.158 -46.138,-177.704c-25.774,-46.728 -69.203,-61.796 -99.337,-71.512c-3.02,-0.974 -6.359,-2.193 -9.42,-3.37c4.747,-1.911 10.258,-3.682 16.19,-5.511c18.356,-5.66 40.209,-11.737 58.348,-21.366c14.23,-7.554 26.26,-17.301 34.006,-29.893c5.18,-8.421 9.533,-23.762 12.563,-43.01c5.893,-37.438 8.243,-91.434 12.281,-129.02Z" style="fill:#7e4021;"/><path d="M1154.7,4019.7c-550.162,-0 -996.823,-91.902 -996.823,-642.064c-0,-550.161 446.661,-479.262 996.823,-479.262c550.161,-0 996.823,-70.899 996.823,479.262c-0,550.162 -446.662,642.064 -996.823,642.064Z" style="fill:#fee4a8;"/><path d="M1154.7,4036.37c323.24,-0 610.972,-32.43 795.809,-167.514c135.909,-99.325 217.68,-253.542 217.68,-491.217c0,-250.966 -90.982,-376.648 -239.831,-439.571c-184.47,-77.98 -462.634,-56.358 -773.658,-56.358c-311.024,0 -589.189,-21.622 -773.658,56.358c-148.85,62.923 -239.832,188.605 -239.832,439.571c-0,237.675 81.771,391.892 217.68,491.217c184.837,135.084 472.569,167.514 795.81,167.514Zm-0,-33.334c-315.067,0 -595.979,-29.425 -776.142,-161.092c-128.285,-93.754 -204.015,-239.962 -204.015,-464.305c0,-232.578 81.535,-350.556 219.478,-408.868c181.346,-76.66 454.921,-53.728 760.679,-53.728c305.758,0 579.332,-22.932 760.679,53.728c137.943,58.312 219.477,176.29 219.477,408.868c-0,224.343 -75.73,370.551 -204.015,464.305c-180.163,131.667 -461.075,161.092 -776.141,161.092Z" style="fill:#7e4021;"/><ellipse cx="1155.15" cy="3121.01" rx="933.802" ry="346.326" style="fill:#ffce7b;"/><path d="M1155.15,2758.02c-243.039,-0 -464.683,34.325 -631.817,90.47c-118.483,39.802 -209.832,90.855 -263.172,148.064c-36.3,38.935 -55.48,80.97 -55.48,124.458c0,43.488 19.18,85.523 55.48,124.458c53.34,57.209 144.689,108.262 263.172,148.064c167.134,56.145 388.778,90.47 631.817,90.47c243.04,0 464.684,-34.325 631.817,-90.47c118.483,-39.802 209.833,-90.855 263.172,-148.064c36.301,-38.935 55.48,-80.97 55.48,-124.458c0,-43.488 -19.179,-85.523 -55.48,-124.458c-53.339,-57.209 -144.689,-108.262 -263.172,-148.064c-167.133,-56.145 -388.777,-90.47 -631.817,-90.47Zm0,33.333c238.945,0 456.885,33.536 621.203,88.736c112.07,37.647 198.954,85.083 249.406,139.196c29.8,31.962 46.527,66.027 46.527,101.727c0,35.7 -16.727,69.765 -46.527,101.727c-50.452,54.113 -137.336,101.549 -249.406,139.197c-164.318,55.199 -382.258,88.735 -621.203,88.735c-238.944,0 -456.884,-33.536 -621.202,-88.735c-112.07,-37.648 -198.954,-85.084 -249.406,-139.197c-29.8,-31.962 -46.527,-66.027 -46.527,-101.727c-0,-35.7 16.727,-69.765 46.527,-101.727c50.452,-54.113 137.336,-101.549 249.406,-139.196c164.318,-55.2 382.258,-88.736 621.202,-88.736Z" style="fill:#7e4021;"/><path d="M1155.15,3144.11c-21.988,-0 -41.58,4.031 -54.454,9.908c-16.267,7.426 -23.427,19.157 -23.427,29.461c0,10.305 7.16,22.035 23.427,29.462c12.874,5.877 32.466,9.908 54.454,9.908c21.989,-0 41.581,-4.031 54.455,-9.908c16.267,-7.427 23.426,-19.157 23.426,-29.462c0,-10.304 -7.159,-22.035 -23.426,-29.461c-12.874,-5.877 -32.466,-9.908 -54.455,-9.908Zm157.346,-75.772c-21.988,0 -41.58,4.031 -54.454,9.908c-16.267,7.427 -23.427,19.157 -23.427,29.462c0,10.304 7.16,22.035 23.427,29.461c12.874,5.877 32.466,9.908 54.454,9.908c21.989,0 41.581,-4.031 54.455,-9.908c16.267,-7.426 23.426,-19.157 23.426,-29.461c0,-10.305 -7.159,-22.035 -23.426,-29.462c-12.874,-5.877 -32.466,-9.908 -54.455,-9.908Zm-312.132,0c-21.988,0 -41.58,4.031 -54.454,9.908c-16.267,7.427 -23.427,19.157 -23.427,29.462c0,10.304 7.16,22.035 23.427,29.461c12.874,5.877 32.466,9.908 54.454,9.908c21.989,0 41.581,-4.031 54.455,-9.908c16.267,-7.426 23.426,-19.157 23.426,-29.461c0,-10.305 -7.159,-22.035 -23.426,-29.462c-12.874,-5.877 -32.466,-9.908 -54.455,-9.908Zm154.786,-79.316c-21.988,-0 -41.58,4.031 -54.454,9.908c-16.267,7.426 -23.427,19.157 -23.427,29.461c0,10.305 7.16,22.035 23.427,29.462c12.874,5.877 32.466,9.908 54.454,9.908c21.989,-0 41.581,-4.031 54.455,-9.908c16.267,-7.427 23.426,-19.157 23.426,-29.462c0,-10.304 -7.159,-22.035 -23.426,-29.461c-12.874,-5.877 -32.466,-9.908 -54.455,-9.908Z" style="fill:#7e4021;"/></g></svg>