<?xml version="1.0" encoding="UTF-8" standalone="no"?><!DOCTYPE svg PUBLIC "-//W3C//DTD SVG 1.1//EN" "http://www.w3.org/Graphics/SVG/1.1/DTD/svg11.dtd"><svg width="100%" height="100%" viewBox="0 0 3628 3065" version="1.1" xmlns="http://www.w3.org/2000/svg" xmlns:xlink="http://www.w3.org/1999/xlink" xml:space="preserve" xmlns:serif="http://www.serif.com/" style="fill-rule:evenodd;clip-rule:evenodd;stroke-linejoin:round;stroke-miterlimit:2;"><g id="Portafilter-01"><path d="M980.405,1846.66c690.382,-7.708 984.852,-400.948 951.613,-1124.77c0,388.846 -426.403,704.54 -951.613,704.54c-525.209,-0 -951.613,-315.694 -951.613,-704.54c-83.886,769.35 296.481,1132.08 951.613,1124.77Z" style="fill:#e0f0ff;"/><path d="M980.592,1863.33c361.991,-4.041 616.611,-113.242 774.178,-317.944c147.665,-191.84 210.23,-468.575 193.897,-824.251c-0.415,-9.046 -7.978,-16.106 -17.031,-15.898c-9.054,0.208 -16.284,7.607 -16.284,16.662c-0,207.392 -125.193,392.983 -321.795,518.919c-164.449,105.339 -378.843,168.954 -613.152,168.954c-234.309,0 -448.702,-63.615 -613.151,-168.954c-196.602,-125.936 -321.795,-311.527 -321.795,-518.919c0,-8.853 -6.922,-16.161 -15.762,-16.642c-8.84,-0.48 -16.513,6.035 -17.473,14.836c-40.384,370.37 26.168,647.706 177.255,836.365c167.883,209.631 440.668,310.785 791.112,306.872l0.001,0Zm-0.373,-33.331c-338.418,3.778 -602.601,-91.941 -764.722,-294.378c-124.942,-156.013 -188.958,-374.807 -180.888,-658.518c45.64,154.996 158.253,291.592 314.665,391.783c169.293,108.443 389.921,174.22 631.131,174.22c241.21,-0 461.839,-65.777 631.131,-174.22c146.19,-93.643 254.119,-219.088 304.866,-361.635c-10.008,258.635 -71.008,465.752 -188.047,617.803c-152.101,197.603 -398.699,301.044 -748.136,304.945l0,-0Z" style="fill:#7e4021;"/><path d="M1554.33,1622.87c41.173,45.991 84.616,89.985 127.466,134.452c127.764,132.585 263.134,256.014 404.326,374.154c173.606,145.262 354.502,281.593 528.488,426.434c179.682,149.582 700.979,727.351 944.772,381.801c80.13,-113.575 61.411,-270.969 -22.511,-364.627c-217.994,-243.286 -464.479,-323.298 -687.314,-488.886c-311.478,-231.458 -1063.12,-653.235 -1150.41,-667.795c-54.883,-9.154 -212.049,129.366 -144.817,204.467Z" style="fill:#c48464;"/><path d="M1541.91,1633.98c41.308,46.143 84.89,90.286 127.881,134.9c128.179,133.015 263.983,256.849 405.632,375.372c173.617,145.271 354.524,281.61 528.521,426.46c108.423,90.261 340.768,335.244 562.065,441.968c154.748,74.629 304.117,82.44 406.988,-63.368c84.685,-120.031 64.975,-286.376 -23.716,-385.357c-218.852,-244.245 -466.073,-324.902 -689.786,-491.141c-249.799,-185.624 -781.982,-493.381 -1029.67,-616.52c-64.026,-31.831 -109.842,-51.319 -127.937,-54.337c-12.376,-2.064 -29.066,1.086 -47.358,9.467c-36.413,16.684 -81.097,53.961 -108.037,95.285c-28.513,43.736 -36.522,91.592 -4.581,127.271l-0,-0Zm24.835,-22.234c-21.863,-24.421 -11.848,-56.896 7.669,-86.833c20.202,-30.989 51.774,-59.418 80.44,-76.104c16.274,-9.472 31.06,-15.722 41.548,-13.973c16.82,2.805 59.067,21.718 118.582,51.306c246.469,122.533 776.062,428.718 1024.63,613.427c221.957,164.935 467.706,244.302 684.842,486.63c79.151,88.334 96.88,236.777 21.304,343.897c-92.167,130.637 -226.625,119.424 -365.271,52.559c-218.788,-105.513 -448.024,-348.323 -555.219,-437.561c-173.975,-144.833 -354.861,-281.154 -528.456,-426.407c-140.734,-117.757 -275.67,-240.782 -403.02,-372.937c-42.708,-44.32 -86.012,-88.164 -127.049,-134.003l0,-0.001Z" style="fill:#7e4021;"/><path d="M3536.87,2575.08c28.943,110.076 -80.285,228.147 -305.911,79.094c-193.26,-127.67 -256.535,157.372 -412.049,88.599c233.126,206.795 561.54,450.549 740.471,196.934c80.13,-113.575 61.411,-270.969 -22.511,-364.627Z" style="fill:#d8bef1;"/><path d="M3549.28,2563.96c-5.138,-5.734 -13.534,-7.203 -20.313,-3.553c-6.779,3.649 -10.176,11.467 -8.218,18.913c12.397,47.149 -4.069,96.314 -48.524,117.427c-48.604,23.084 -126.418,13.327 -232.083,-56.477c-42.358,-27.983 -79.16,-37.433 -112.071,-35.953c-48.554,2.184 -89.169,28.764 -127.595,58.969c-23.27,18.293 -45.762,37.792 -69.295,52.387c-31.447,19.503 -64.838,29.856 -105.534,11.86c-7.511,-3.322 -16.324,-0.676 -20.763,6.234c-4.439,6.911 -3.182,16.026 2.963,21.476c141.955,125.922 319.117,264.721 477.043,300.518c110.404,25.025 211.938,1.517 288.106,-106.444c84.685,-120.031 64.975,-286.376 -23.716,-385.357Zm7.402,67.218c50.177,88.334 52.952,208.388 -10.923,298.923c-84.278,119.456 -204.076,120.279 -329.941,68.386c-115.018,-47.42 -234.999,-138.16 -340.164,-228.308c26.035,-1.768 49.994,-11.851 73.095,-26.178c24.535,-15.217 48.066,-35.437 72.327,-54.509c32.875,-25.842 66.953,-50.007 108.493,-51.875c27.152,-1.221 57.253,7.379 92.2,30.465c95.097,62.823 170.924,79.497 225.305,70.803c64.579,-10.324 101.907,-54.984 109.608,-107.707l0,-0Z" style="fill:#7e4021;"/><path d="M2526.41,1871.14c282.236,272.729 -26.946,414.508 116.614,562.665c163.539,168.777 697.324,-40.582 595.247,-105.425c-130.874,-83.135 -263.53,-149.154 -388.722,-242.183c-83.282,-61.887 -198.033,-137.38 -323.139,-215.057Z" style="fill:#f8a5b0;"/><path d="M2535.2,1856.98c-7.239,-4.494 -16.701,-2.805 -21.938,3.915c-5.237,6.721 -4.562,16.309 1.565,22.23c64.874,62.689 97.486,117.914 110.932,167.974c20.106,74.85 -2.704,137.5 -20.427,194.219c-22.517,72.057 -36.963,135.394 25.72,200.085c48.606,50.163 127.667,69.972 214.453,69.376c125.511,-0.861 266.992,-43.626 348.184,-88.55c38.543,-21.325 63.761,-44.314 71.116,-63.086c3.801,-9.703 3.939,-18.903 0.839,-27.372c-2.836,-7.748 -8.59,-15.203 -18.438,-21.459c-130.527,-82.915 -262.859,-148.711 -387.718,-241.492c-83.581,-62.109 -198.735,-137.884 -324.288,-215.84Zm76.095,87.347c87.663,56.122 166.646,109.425 228.312,155.248c125.524,93.276 258.503,159.517 389.726,242.874c2.646,1.681 4.79,3.01 5.11,5.177c0.401,2.709 -1.375,5.381 -3.515,8.507c-8.895,12.987 -27.938,26.855 -53.376,40.93c-77.476,42.868 -212.509,83.562 -332.276,84.384c-76.736,0.526 -147.308,-14.886 -190.285,-59.24c-52.171,-53.841 -36.583,-106.975 -17.843,-166.947c19.405,-62.101 42.817,-130.855 20.803,-212.809c-8.24,-30.677 -22.853,-63.296 -46.656,-98.124l0,-0Z" style="fill:#7e4021;"/><path d="M1554.33,1622.87c41.173,45.991 84.616,89.985 127.466,134.452c127.764,132.585 263.134,256.014 404.326,374.154c104.392,87.349 394.862,-283.426 -163.966,-415.476c-297.23,-70.235 -246.781,-267.21 -223.009,-297.597c-54.883,-9.154 -212.049,129.366 -144.817,204.467Z" style="fill:#ffce7b;"/><path d="M1541.91,1633.98c41.308,46.143 84.89,90.286 127.881,134.9c128.179,133.015 263.983,256.849 405.632,375.372c37.182,31.111 95.055,17.098 138.812,-27.356c47.058,-47.805 77.208,-129.044 42.293,-210.933c-33.17,-77.798 -127.188,-158.138 -330.542,-206.19c-112.891,-26.676 -173.504,-71.683 -203.502,-119.043c-28.649,-45.228 -28.623,-91.813 -21.561,-122.749c3.164,-13.861 7.484,-24.377 11.348,-29.315c3.623,-4.631 4.537,-10.829 2.407,-16.309c-2.131,-5.481 -6.992,-9.433 -12.792,-10.4c-12.376,-2.064 -29.066,1.086 -47.358,9.467c-36.413,16.684 -81.097,53.961 -108.037,95.285c-28.513,43.736 -36.522,91.592 -4.581,127.271l-0,-0Zm24.835,-22.234c-21.863,-24.421 -11.848,-56.896 7.669,-86.833c20.202,-30.989 51.774,-59.418 80.44,-76.104c5.635,-3.28 11.092,-6.173 16.254,-8.482c-0.963,3.238 -1.865,6.654 -2.683,10.236c-8.513,37.296 -8.64,93.477 25.899,148.004c33.189,52.397 99.1,104.133 223.996,133.646c317.272,74.971 351.082,225.871 301.351,321.056c-18.743,35.874 -48.795,62.979 -78.202,71.84c-16.285,4.907 -32.285,3.928 -44.655,-6.422c-140.734,-117.757 -275.67,-240.782 -403.02,-372.937c-42.708,-44.32 -86.012,-88.164 -127.049,-134.003l0,-0.001Z" style="fill:#7e4021;"/><path d="M1490.3,185.546c-4.065,-32.228 33.09,-76.641 67.589,-93.854c74.34,-37.091 341.255,95.296 436.066,225.498c23.818,32.707 21.205,87.153 17.204,118.37c-6.057,47.263 -127.056,84.575 -134.426,76.536c-33.043,-36.049 -85.12,-112.085 -148.325,-172.185c-70.368,-66.912 -150.511,-115.621 -238.108,-154.365Z" style="fill:#a8ccf1;"/><path d="M1473.76,187.632c0.731,5.799 4.448,10.791 9.793,13.156c85.838,37.966 164.411,85.633 233.365,151.201c62.887,59.799 114.647,135.501 147.524,171.368c2.309,2.52 6.236,5.367 12.561,6.22c5.989,0.809 19.205,-0.787 35.52,-5.531c24.703,-7.183 57.858,-21.027 81.451,-38.513c18.901,-14.009 31.531,-30.841 33.712,-47.855c4.41,-34.414 5.995,-94.241 -20.263,-130.299c-68.133,-93.566 -222.638,-188.534 -335.507,-223.851c-52.434,-16.407 -96.656,-19.132 -121.473,-6.749c-23.199,11.575 -47.533,34.058 -62.254,58.048c-10.966,17.871 -16.466,36.66 -14.429,52.805Zm411.168,308.645c-33.342,-37.772 -84.065,-110.464 -145.04,-168.444c-69.076,-65.683 -147.348,-114.23 -232.779,-153.016l-0,-0c1.249,-7.278 4.836,-14.97 9.491,-22.556c11.548,-18.819 30.526,-36.575 48.725,-45.655c6.937,-3.461 16.091,-4.68 26.85,-4.576c19.423,0.187 43.33,5.032 69.787,13.31c107.02,33.487 253.912,122.943 318.515,211.661c21.381,29.361 17.737,78.417 14.146,106.44c-0.686,5.349 -4.186,10.231 -8.716,15.045c-6.255,6.646 -14.644,12.756 -23.894,18.305c-27.043,16.224 -61.412,27.695 -77.085,29.486Z" style="fill:#7e4021;"/><path d="M1490.3,124.117c-4.065,-32.227 33.09,-76.64 67.589,-93.853c93.015,-46.41 455.585,219.495 453.27,343.867c-0.887,47.642 -127.056,84.576 -134.426,76.536c-33.043,-36.048 -85.12,-112.084 -148.325,-172.184c-70.368,-66.912 -150.511,-115.621 -238.108,-154.366Z" style="fill:#e0f0ff;"/><path d="M1473.76,126.203c0.731,5.8 4.448,10.792 9.793,13.156c85.838,37.967 164.411,85.634 233.365,151.202c62.887,59.798 114.647,135.501 147.524,171.368c2.279,2.486 6.225,5.372 12.64,6.228c6.09,0.811 19.618,-0.766 36.256,-5.422c25.521,-7.141 59.595,-20.984 82.967,-38.526c19.299,-14.484 31.183,-32.055 31.513,-49.768c0.608,-32.697 -20.562,-74.925 -56.392,-118.61c-50.054,-61.028 -128.162,-126.437 -204.242,-174.486c-51.403,-32.463 -101.945,-56.972 -142.4,-67.373c-30.908,-7.946 -56.707,-7.42 -74.341,1.378c-23.199,11.576 -47.533,34.059 -62.254,58.049c-10.966,17.871 -16.466,36.66 -14.429,52.804Zm411.21,308.693c-33.342,-37.758 -84.082,-110.487 -145.082,-168.491c-69.076,-65.684 -147.348,-114.23 -232.779,-153.017l-0,0c1.249,-7.277 4.836,-14.969 9.491,-22.555c11.548,-18.819 30.526,-36.576 48.725,-45.656c12.136,-6.055 29.888,-4.39 51.159,1.079c37.8,9.718 84.872,32.94 132.9,63.273c73.067,46.146 148.197,108.829 196.268,167.441c29.592,36.079 49.341,69.846 48.838,96.851c-0.091,4.898 -3.09,9.312 -7.004,13.7c-5.848,6.553 -14.023,12.54 -23.154,17.99c-27.361,16.332 -63.266,27.726 -79.362,29.385Z" style="fill:#7e4021;"/><ellipse cx="980.405" cy="721.894" rx="951.613" ry="704.54" style="fill:#e0f0ff;"/><path d="M980.405,0.688c-241.21,0 -461.838,65.777 -631.131,174.219c-206.889,132.525 -337.148,328.744 -337.148,546.987c-0,218.244 130.259,414.462 337.148,546.987c169.293,108.443 389.921,174.22 631.131,174.22c241.21,-0 461.839,-65.777 631.131,-174.22c206.889,-132.525 337.149,-328.743 337.149,-546.987c-0,-218.243 -130.26,-414.462 -337.149,-546.987c-169.292,-108.442 -389.921,-174.219 -631.131,-174.219Zm0,33.333c234.309,0 448.703,63.615 613.152,168.955c196.602,125.936 321.795,311.526 321.795,518.918c-0,207.392 -125.193,392.983 -321.795,518.919c-164.449,105.339 -378.843,168.954 -613.152,168.954c-234.309,0 -448.702,-63.615 -613.151,-168.954c-196.602,-125.936 -321.795,-311.527 -321.795,-518.919c0,-207.392 125.193,-392.982 321.795,-518.918c164.449,-105.34 378.842,-168.955 613.151,-168.955Z" style="fill:#7e4021;"/><ellipse cx="983.436" cy="725.673" rx="804.433" ry="579.042" style="fill:#a8ccf1;"/><path d="M983.436,129.964c-248.586,0 -471.338,80.239 -621.535,206.303c-124.684,104.65 -199.565,240.867 -199.565,389.406c-0,148.539 74.881,284.756 199.565,389.406c150.197,126.064 372.949,206.302 621.535,206.302c248.585,0 471.337,-80.238 621.535,-206.302c124.683,-104.65 199.565,-240.867 199.565,-389.406c-0,-148.539 -74.882,-284.756 -199.565,-389.406c-150.198,-126.064 -372.95,-206.303 -621.535,-206.303Zm-0,33.334c195.816,-0 375.145,51.192 513.334,136.167c167.407,102.943 274.432,255.453 274.432,426.208c0,170.754 -107.025,323.265 -274.432,426.207c-138.189,84.976 -317.518,136.168 -513.334,136.168c-195.817,-0 -375.146,-51.192 -513.334,-136.168c-167.408,-102.942 -274.433,-255.453 -274.433,-426.207c0,-170.755 107.025,-323.265 274.433,-426.208c138.188,-84.975 317.517,-136.167 513.334,-136.167Z" style="fill:#7e4021;"/><path d="M1088.9,459.239c407.555,3.305 685.111,181.216 657.633,406.824c-10.785,88.552 -64.224,168.899 -155.656,244c-74.267,61.003 -325.441,185.921 -546.235,185.921c-214.249,-0 -425.433,-37.329 -523.257,-106.246c-101.904,-71.792 -172.975,-177.133 -112.742,-349.016c75.163,-214.487 355.512,-384.116 680.257,-381.483Z" style="fill:#86a8cb;"/><path d="M1089.03,442.573c-150.191,-1.218 -291.053,33.769 -407.299,92.721c-141.516,71.767 -246.503,179.154 -288.821,299.916c-28.821,82.242 -28.698,150.055 -10.39,206.647c22.018,68.061 70.622,120.194 129.262,161.506c47.313,33.332 120.22,59.823 207.23,78.214c96.544,20.405 210.646,31.073 325.625,31.073c97.073,0 199.93,-23.579 291.565,-55.514c120.882,-42.128 222.176,-98.814 265.249,-134.194c43.427,-35.671 78.494,-72.538 104.833,-110.801c31.538,-45.816 50.655,-93.702 56.789,-144.063c14.293,-117.354 -48.532,-223.127 -168.65,-299.927c-119.091,-76.142 -295.209,-123.873 -505.393,-125.578l0,0Zm-0.27,33.332c202.746,1.644 372.831,46.882 487.707,120.33c107.761,68.899 166.339,162.532 153.517,267.813c-5.504,45.191 -22.857,88.08 -51.157,129.192c-24.731,35.928 -57.757,70.45 -98.533,103.944c-41.382,33.991 -138.926,88.001 -255.062,128.475c-88.201,30.738 -187.16,53.658 -280.595,53.658c-112.543,-0 -224.234,-10.38 -318.732,-30.353c-81.744,-17.278 -150.475,-41.536 -194.926,-72.851c-52.663,-37.102 -96.97,-83.392 -116.744,-144.516c-16.426,-50.775 -15.726,-111.575 10.132,-185.363c39.795,-113.56 139.366,-213.725 272.441,-281.211c111.858,-56.728 247.428,-90.289 391.952,-89.118l0,0Z" style="fill:#7e4021;"/><ellipse cx="1204.66" cy="728.154" rx="35.239" ry="20.526" style="fill:#7e4021;"/><ellipse cx="1394.5" cy="958.162" rx="35.239" ry="20.526" style="fill:#7e4021;"/><ellipse cx="542.103" cy="921.471" rx="35.239" ry="20.526" style="fill:#7e4021;"/><ellipse cx="1336.45" cy="633.8" rx="35.239" ry="20.526" style="fill:#7e4021;"/><ellipse cx="1526.3" cy="863.807" rx="35.239" ry="20.526" style="fill:#7e4021;"/><ellipse cx="673.897" cy="827.117" rx="35.239" ry="20.526" style="fill:#7e4021;"/><ellipse cx="1418.65" cy="746.12" rx="35.239" ry="20.526" style="fill:#7e4021;"/><ellipse cx="1552.52" cy="983.675" rx="35.239" ry="20.526" style="fill:#7e4021;"/><ellipse cx="1469.35" cy="1101.43" rx="35.239" ry="20.526" style="fill:#7e4021;"/><ellipse cx="1568.44" cy="732.471" rx="35.239" ry="20.526" style="fill:#7e4021;"/><ellipse cx="756.094" cy="939.437" rx="35.239" ry="20.526" style="fill:#7e4021;"/><ellipse cx="1138.8" cy="604.058" rx="35.239" ry="20.526" style="fill:#7e4021;"/><ellipse cx="1328.65" cy="834.065" rx="35.239" ry="20.526" style="fill:#7e4021;"/><ellipse cx="658.63" cy="1057.55" rx="35.239" ry="20.526" style="fill:#7e4021;"/><ellipse cx="927.673" cy="606.82" rx="35.239" ry="20.526" style="fill:#7e4021;"/><ellipse cx="986.689" cy="1190.2" rx="35.239" ry="20.526" style="fill:#7e4021;"/><ellipse cx="1013.23" cy="739.648" rx="35.239" ry="20.526" style="fill:#7e4021;"/><ellipse cx="1203.08" cy="969.655" rx="35.239" ry="20.526" style="fill:#7e4021;"/><ellipse cx="757.776" cy="1174.38" rx="35.239" ry="20.526" style="fill:#7e4021;"/><ellipse cx="826.613" cy="706.4" rx="35.239" ry="20.526" style="fill:#7e4021;"/><ellipse cx="673.219" cy="709.301" rx="35.239" ry="20.526" style="fill:#7e4021;"/><ellipse cx="1090.96" cy="1079.87" rx="35.239" ry="20.526" style="fill:#7e4021;"/><ellipse cx="887.686" cy="839.605" rx="35.239" ry="20.526" style="fill:#7e4021;"/><ellipse cx="1003.48" cy="953.31" rx="35.239" ry="20.526" style="fill:#7e4021;"/><ellipse cx="1193.33" cy="1183.32" rx="35.239" ry="20.526" style="fill:#7e4021;"/><ellipse cx="1121.15" cy="845.524" rx="35.239" ry="20.526" style="fill:#7e4021;"/><ellipse cx="1311" cy="1075.53" rx="35.239" ry="20.526" style="fill:#7e4021;"/><ellipse cx="862.867" cy="1075.15" rx="35.239" ry="20.526" style="fill:#7e4021;"/><path d="M592.945,1430.25c-93.981,-25.366 -497.584,-197.845 -510.528,-185.299c-53.593,51.944 -61.152,108.933 -20.655,178.883c56.362,97.351 413.612,319.435 523.981,245.33c39.745,-26.685 149.151,-238.592 146.599,-253.904c-0.132,-0.791 -78.117,31.53 -139.397,14.99Z" style="fill:#a8ccf1;"/><path d="M597.288,1414.16c-75.019,-20.248 -347.737,-134.505 -460.446,-172.963c-24.87,-8.487 -42.787,-13.233 -50.375,-13.537c-8.272,-0.331 -13.164,2.915 -15.65,5.324c-29.956,29.035 -46.617,59.716 -50.56,92.678c-3.9,32.609 4.687,67.841 27.082,106.523c16.508,28.514 57.335,67.627 110.617,106.934c77.794,57.39 182.129,115.928 271.591,144.035c68.684,21.579 129.251,24.178 165.487,-0.152c10.564,-7.093 26.026,-25.622 42.698,-50.501c35.618,-53.153 79.532,-136.067 99.389,-180.747c5.359,-12.057 9.023,-21.562 10.591,-27.313c1.514,-5.558 1.448,-9.653 1.07,-11.92c-0.576,-3.453 -2.097,-6.512 -4.708,-9.101c-1.908,-1.892 -5.045,-4.348 -10.404,-4.785c-0.584,-0.047 -3.841,-0.223 -8.968,1.518c-12.349,4.194 -76.135,27.848 -127.414,14.007l-0,0Zm-508.258,-152.237c6.929,1.736 22.075,5.712 37.048,10.821c113.205,38.628 387.174,153.261 462.524,173.598c20.244,5.464 42.136,6.205 62.88,4.421c18.881,-1.623 38.209,-5.798 53.643,-9.868c-3.159,7.336 -6.843,15.524 -10.789,23.608c-23.326,47.787 -60.23,115.016 -89.699,157.361c-11.234,16.142 -20.864,28.549 -28.184,33.464c-14.008,9.405 -32.837,12.623 -54.68,11.953c-24.487,-0.751 -52.47,-6.577 -82.234,-15.928c-86.265,-27.102 -186.781,-83.719 -261.794,-139.058c-48.591,-35.846 -86.504,-70.808 -101.559,-96.811c-18.103,-31.269 -25.984,-59.504 -22.831,-85.864c2.885,-24.121 15.064,-46.33 35.675,-67.697Z" style="fill:#7e4021;"/><path d="M198.602,1130.98c8.613,-3.61 -80.812,58.43 -93.756,70.975c-53.592,51.944 -83.581,91.383 -43.084,161.332c56.362,97.352 413.612,319.436 523.981,245.331c39.745,-26.686 128.55,-183.369 125.998,-198.682c-0.132,-0.791 -57.516,-23.692 -118.796,-40.232c-93.981,-25.366 -278.805,-117.935 -394.343,-238.724Z" style="fill:#e0f0ff;"/><path d="M185.573,1120.6c1.714,-2.161 3.967,-3.89 6.586,-4.988c12.469,-5.227 19.026,3.399 20.544,5.509c0.174,0.242 0.453,0.671 0.771,1.26c113.467,117.028 292.424,206.569 383.814,231.235c56.311,15.199 109.385,35.701 119.538,40.23c10.118,4.513 11.234,12.628 11.355,13.353c0.398,2.392 0.457,6.157 -0.778,11.046c-1.27,5.026 -4.302,12.906 -8.858,22.704c-16.236,34.907 -52.737,97.729 -84.326,139.759c-14.67,19.52 -28.623,34.658 -39.185,41.75c-36.236,24.33 -96.803,21.731 -165.487,0.152c-89.462,-28.107 -193.797,-86.645 -271.591,-144.035c-53.282,-39.307 -94.109,-78.42 -110.617,-106.934c-18.634,-32.186 -23.658,-58.91 -19.798,-83.032c5.521,-34.498 30.439,-64.437 65.706,-98.619c10.718,-10.388 80.604,-60.935 92.326,-69.39Zm11.791,32.923c118.2,117.712 298.306,207.192 391.238,232.275c42.087,11.36 82.306,25.758 102.605,33.617c-3.063,7.248 -7.65,17.559 -12.811,27.42c-19.012,36.327 -49.572,86.768 -75.557,120.027c-10.008,12.81 -19.042,22.99 -26.386,27.922c-14.008,9.405 -32.837,12.623 -54.68,11.953c-24.487,-0.751 -52.47,-6.577 -82.234,-15.928c-86.265,-27.102 -186.781,-83.719 -261.794,-139.058c-48.591,-35.846 -86.504,-70.808 -101.559,-96.811c-13.765,-23.776 -18.582,-43.244 -15.73,-61.063c4.547,-28.415 26.941,-51.796 55.99,-79.951c9.211,-8.928 57.371,-43.014 80.918,-60.403Z" style="fill:#7e4021;"/></g></svg>