<?xml version="1.0" encoding="UTF-8" standalone="no"?><!DOCTYPE svg PUBLIC "-//W3C//DTD SVG 1.1//EN" "http://www.w3.org/Graphics/SVG/1.1/DTD/svg11.dtd"><svg width="100%" height="100%" viewBox="0 0 1634 1634" version="1.1" xmlns="http://www.w3.org/2000/svg" xmlns:xlink="http://www.w3.org/1999/xlink" xml:space="preserve" xmlns:serif="http://www.serif.com/" style="fill-rule:evenodd;clip-rule:evenodd;stroke-linejoin:round;stroke-miterlimit:2;"><g id="Smiley"><circle cx="817.339" cy="816.85" r="799.971" style="fill:#ffce7b;"/><path d="M817.339,0.212c-450.715,0 -816.638,365.924 -816.638,816.638c0,450.715 365.923,816.638 816.638,816.638c450.715,0 816.638,-365.923 816.638,-816.638c0,-450.714 -365.923,-816.638 -816.638,-816.638Zm0,33.334c432.318,-0 783.305,350.987 783.305,783.304c-0,432.318 -350.987,783.305 -783.305,783.305c-432.317,0 -783.304,-350.987 -783.304,-783.305c-0,-432.317 350.987,-783.304 783.304,-783.304Z" style="fill:#7e4021;"/><path d="M352.265,765.672c0.117,0.146 2.545,2.945 2.902,3.3c13.973,16.007 19.25,27.091 21.016,31.76c-0.543,3.078 -1.06,6.169 -1.55,9.271c-41.52,262.801 122.805,506.814 365.783,545.202c242.979,38.389 474.526,-143.08 516.046,-405.881c5.562,-35.201 7.427,-70.073 5.905,-104.156c4.308,-4.618 12.643,-12.128 27.355,-20.942c0.449,-0.227 2.544,-1.454 3.778,-2.244c2.158,-1.381 5.071,-3.625 6.701,-6.49c2.121,-3.727 2.202,-6.524 2.241,-7.95c0.203,-7.47 -3.422,-11.735 -7.562,-14.437c-2.833,-1.849 -6.907,-3.511 -12.472,-2.376c-0.329,0.067 -10.714,5.257 -11.699,5.764c-4.357,2.243 -8.828,3.972 -13.561,5.255c-11.106,3.012 -20.894,-1.586 -30.014,-7.999c-7.525,-5.291 -17.929,-3.478 -23.22,4.047c-5.291,7.524 -3.478,17.929 4.047,23.22c1.183,0.832 4.361,3.129 4.787,3.464c13.564,10.662 15.151,20.913 15.945,22.779c0.144,0.337 0.291,0.664 0.442,0.979c1.297,31.395 -0.48,63.491 -5.598,95.884c-38.541,243.946 -252.373,413.793 -477.919,378.159c-225.545,-35.635 -376.601,-263.13 -338.06,-507.076c0.506,-3.201 1.041,-6.389 1.607,-9.564c3.052,-3.631 8.703,-8.852 19.149,-12.698c0.508,-0.187 4.24,-1.393 5.622,-1.819c8.789,-2.714 13.721,-12.053 11.008,-20.842c-2.714,-8.789 -12.053,-13.722 -20.842,-11.008c-10.653,3.289 -21.382,4.645 -31.018,-1.643c-4.107,-2.68 -7.827,-5.703 -11.28,-9.18c-0.782,-0.787 -9.06,-8.925 -9.352,-9.091c-4.944,-2.794 -9.332,-2.469 -12.597,-1.584c-4.772,1.294 -9.535,4.234 -11.645,11.402c-0.403,1.369 -1.188,4.055 -0.319,8.254c0.667,3.228 2.228,6.044 4.374,8.24Zm859.034,-217.954c-13.924,4.535 -24.517,14.553 -31.453,27.652c-8.984,16.968 -11.559,39.33 -7.891,58.434c4.896,25.497 20.884,44.226 42.803,45.648c49.035,3.182 63.281,-49.026 51.57,-89.828c-4.648,-16.193 -13.276,-29.731 -23.355,-36.851c-9.398,-6.64 -20.147,-8.809 -31.674,-5.055Zm-790.156,-58.394c-14.32,3.063 -25.897,11.926 -34.157,24.233c-10.699,15.942 -15.584,37.915 -13.921,57.297c2.22,25.868 16.174,46.157 37.827,49.85c48.438,8.261 68.033,-42.183 60.626,-83.982c-2.94,-16.588 -10.114,-30.95 -19.398,-39.079c-8.657,-7.58 -19.122,-10.854 -30.977,-8.319l0,0Z" style="fill:#7e4021;"/></g></svg>