<?xml version="1.0" encoding="UTF-8" standalone="no"?><!DOCTYPE svg PUBLIC "-//W3C//DTD SVG 1.1//EN" "http://www.w3.org/Graphics/SVG/1.1/DTD/svg11.dtd"><svg width="100%" height="100%" viewBox="0 0 722 1079" version="1.1" xmlns="http://www.w3.org/2000/svg" xmlns:xlink="http://www.w3.org/1999/xlink" xml:space="preserve" xmlns:serif="http://www.serif.com/" style="fill-rule:evenodd;clip-rule:evenodd;stroke-linejoin:round;stroke-miterlimit:2;"><g id="Steam-04"><path d="M486.138,852.831c32.823,-60.569 73.71,-102.11 83.914,-179.665c13.688,-104.026 -50.379,-196.284 -104.652,-288.995c-49.407,-84.399 -90.337,-169.481 -36.565,-267.894c27.689,-50.677 63.518,-75.156 100.288,-80.884c55.096,-8.583 110.841,23.948 139.759,66.89c15.265,22.669 23.146,48.403 17.983,72.632c-5.162,24.221 -23.548,46.121 -58.237,62.227c-8.344,3.873 -11.972,13.792 -8.099,22.135c3.874,8.343 13.792,11.972 22.136,8.098c46.781,-21.72 69.839,-52.848 76.801,-85.512c6.959,-32.654 -2.362,-67.648 -22.936,-98.199c-35.59,-52.851 -104.728,-91.771 -172.538,-81.207c-45.169,7.036 -90.394,35.584 -124.409,97.837c-60.258,110.284 -18.316,206.138 37.051,300.717c25.897,44.239 54.554,88.204 75.051,133.55c19.432,42.989 31.511,87.197 25.319,134.256c-9.586,72.851 -49.34,111.237 -80.173,168.132c-4.383,8.087 -1.375,18.211 6.712,22.594c8.088,4.383 18.212,1.375 22.595,-6.712Z" style="fill:#7e4021;"/><path d="M396.97,1048.06l-1.073,-0.871c-12.272,-10.238 -73.517,-66.002 -83.383,-140.087c-3.6,-27.032 2.071,-56.492 9.928,-87.093c8.493,-33.081 19.668,-67.364 26.603,-101.367c15.017,-73.641 10.824,-145.845 -71.512,-204.404c-29.913,-21.274 -64.277,-36.646 -101.168,-39.145c-107.027,-7.249 -159.364,44.565 -172.539,100.573c-12.287,52.232 9.97,109.645 55.838,134.696c30.17,16.477 70.984,19.644 119.519,-3.587c8.297,-3.972 11.809,-13.932 7.837,-22.229c-3.971,-8.298 -13.932,-11.809 -22.229,-7.838c-36.23,17.342 -66.628,16.699 -89.149,4.399c-33.167,-18.114 -48.253,-60.04 -39.368,-97.808c10.35,-44.001 53.756,-80.644 137.838,-74.949c30.731,2.081 59.184,15.33 84.101,33.052c68.525,48.735 70.669,109.292 58.17,170.58c-14.139,69.333 -44.846,139.935 -36.911,199.521c11.331,85.079 80.979,149.525 95.072,161.282c2.887,2.409 4.788,3.532 5.152,3.725c11.455,6.071 18.686,-1.804 20.386,-3.75c6.053,-6.926 5.344,-17.464 -1.583,-23.517c-0.492,-0.429 -1.002,-0.825 -1.529,-1.183Z" style="fill:#7e4021;"/></g></svg>