<?xml version="1.0" encoding="UTF-8" standalone="no"?><!DOCTYPE svg PUBLIC "-//W3C//DTD SVG 1.1//EN" "http://www.w3.org/Graphics/SVG/1.1/DTD/svg11.dtd"><svg width="100%" height="100%" viewBox="0 0 2468 2872" version="1.1" xmlns="http://www.w3.org/2000/svg" xmlns:xlink="http://www.w3.org/1999/xlink" xml:space="preserve" xmlns:serif="http://www.serif.com/" style="fill-rule:evenodd;clip-rule:evenodd;stroke-linejoin:round;stroke-miterlimit:2;"><g id="Sugar-canister" serif:id="Sugar canister"><path d="M117.41,1242.1c-0.065,30.202 0.998,313.659 -11.517,1007c-7.782,431.106 236.092,483.688 485.756,550.451c286.877,76.714 1127.84,73.463 1411.94,-6.281c237.103,-66.552 378.807,-193.844 395.247,-469.338c18.27,-306.169 11.726,-1125.95 11.726,-1125.95c0,-0 -245.242,213.333 -714.057,226.184c-465.427,12.759 -1263.08,59.478 -1579.1,-182.068Z" style="fill:#fcd2b8;"/><path d="M127.531,1228.85c-5.032,-3.846 -11.809,-4.508 -17.49,-1.707c-5.681,2.801 -9.284,8.579 -9.298,14.913c-0.064,30.194 0.998,313.577 -11.514,1006.74c-3.207,177.687 35.856,292.761 99.414,371.534c94.711,117.385 245.359,154.313 398.701,195.318c288.667,77.192 1134.88,73.906 1420.75,-6.336c121.976,-34.237 219.199,-84.48 288.257,-161.213c69.333,-77.038 110.632,-180.888 119.123,-323.179c18.289,-306.474 11.756,-1127.07 11.756,-1127.07c-0.052,-6.507 -3.886,-12.388 -9.818,-15.062c-5.932,-2.673 -12.878,-1.65 -17.787,2.62c-0,0 -241.787,209.44 -703.576,222.099c-278.635,7.638 -676.604,27.545 -1018.51,-9.865c-224.955,-24.615 -425.533,-73.641 -550.013,-168.785Zm6.543,45.554c129.274,85.856 323.427,132.686 539.845,156.366c343.426,37.578 743.168,17.723 1023.05,10.051c384.444,-10.539 620.622,-154.355 697.167,-209.214c0.99,156.858 4.119,822.405 -11.929,1091.32c-7.949,133.204 -45.721,230.747 -110.626,302.866c-65.18,72.425 -157.36,119.103 -272.488,151.418c-282.332,79.247 -1118.05,82.462 -1403.13,6.227c-146.257,-39.11 -291.035,-72.086 -381.37,-184.047c-59.805,-74.123 -95.046,-182.805 -92.028,-350.002c10.601,-587.291 11.462,-880.574 11.516,-974.988l0.001,0Z" style="fill:#7e4021;"/><path d="M867.807,1927.63c0.406,-3.534 0.909,-8.439 0.878,-10.476c-0.167,-10.816 -1.555,-21.745 -4.179,-32.24c-8.039,-32.157 -28.369,-48.811 -50.94,-52.463c-21.694,-3.509 -46.955,5.37 -67.183,28.147c-24.532,27.625 -35.091,63.233 -37.242,99.496c-4.861,81.955 33.095,109.125 71.82,135.983c30.563,21.198 61.877,42.064 58.768,106.666c-1.809,37.591 -8.349,65.456 -18.094,85.143c-8.185,16.536 -18.351,26.719 -29.717,31.015c-12.606,4.764 -26.101,1.833 -37.838,-5.598c-20.239,-12.813 -35.449,-38.669 -35.449,-68.578c0,-9.198 -7.468,-16.666 -16.666,-16.666c-9.199,-0 -16.667,7.468 -16.667,16.666c-0,42.362 22.286,78.594 50.952,96.742c20.866,13.21 45.042,17.085 67.452,8.615c32.828,-12.407 64.933,-54.543 69.322,-145.737c3.934,-81.735 -34.397,-108.838 -73.066,-135.658c-30.509,-21.16 -61.372,-42.053 -57.542,-106.619c1.71,-28.82 9.394,-57.381 28.891,-79.336c11.335,-12.764 24.779,-19.342 36.936,-17.375c11.284,1.826 19.906,11.565 23.925,27.642c2.008,8.03 3.06,16.394 3.187,24.67c0.047,2.998 -1.191,9.485 -1.332,12.763c-0.179,4.185 0.689,7.263 1.336,8.859c3.639,8.973 10.427,11.154 17.136,10.587c2.648,-0.224 8.259,-0.883 13.093,-7.87c3.02,-4.363 3.668,-9.668 2.219,-14.378Zm-28.993,-5.452l-0.075,0.102l0.311,-0.383l-0.236,0.281Zm0.647,-0.773l-0.162,0.193l0.373,-0.415l-0.211,0.222Zm0.653,-0.686l-0.188,0.198l0.293,-0.296l-0.105,0.098Z" style="fill:#7e4021;"/><path d="M962.515,1862.48c3.384,-7.344 0.995,-16.27 -5.958,-20.864c-5.873,-3.88 -11.253,-3.503 -15.914,-1.603c-2.918,1.189 -6.012,3.317 -8.327,7.191c-0.901,1.508 -1.9,3.759 -2.453,6.617c-0.518,2.681 -0.599,7.244 -0.705,8.582c-1.104,14.011 -1.122,28.074 -1.456,42.117c-0.757,31.803 -1.663,63.6 -2.364,95.405c-0.806,36.584 -10.752,175.165 10.236,259.314c6.047,24.246 14.82,44.273 26.274,57.47c9.449,10.887 20.763,17.634 33.897,19.713c46.5,7.36 79.857,-25.284 100.697,-81.182c41.246,-110.626 36.272,-315.22 42.619,-371.075c1.039,-9.139 -5.538,-17.403 -14.678,-18.441c-9.14,-1.039 -17.403,5.538 -18.442,14.678c-6.21,54.651 -0.375,254.95 -40.732,363.194c-14.154,37.962 -32.672,64.901 -64.253,59.903c-7.267,-1.15 -12.747,-6.285 -17.514,-13.337c-6.709,-9.926 -11.641,-23.417 -15.525,-38.99c-20.274,-81.285 -10.033,-215.173 -9.254,-250.513c0.701,-31.785 1.606,-63.563 2.362,-95.346c0.32,-13.434 0.307,-26.887 1.363,-40.29l0.127,-2.543Zm-23.532,7.443c3.205,1.914 6.252,2.484 9.095,2.244c-3.095,0.139 -6.253,-0.584 -9.095,-2.244Z" style="fill:#7e4021;"/><path d="M1284.91,1877.99c6.081,0.237 12.071,-2.878 15.225,-8.556c3.526,-6.345 2.398,-11.49 0.698,-15.28c-1.737,-3.871 -4.963,-7.711 -10.933,-9.406c-1.842,-0.523 -5.038,-0.948 -8.624,-0.409c-3.6,0.542 -8.019,2.176 -8.045,2.188c-17.429,8.139 -31.979,25.514 -43.225,46.702c-14.617,27.536 -24.079,61.39 -30.418,82.573c-13.242,44.248 -26.504,132.928 -20.121,209.037c4.56,54.387 19.924,102.22 49.37,126.52c39.156,32.314 80.417,8.29 109.416,-41.39c25.618,-43.886 41.674,-106.536 39.091,-147.197c-1.435,-22.6 -9.209,-39.22 -20.636,-47.233c-10.28,-7.21 -23.687,-10.494 -38.205,-11.384c-16.671,-1.023 -34.99,1.206 -48.957,-0.063c-9.161,-0.833 -17.275,5.928 -18.108,15.089c-0.832,9.161 5.929,17.274 15.09,18.107c12.151,1.105 27.457,-0.227 42.292,-0.109c10.74,0.086 21.315,0.437 28.749,5.651c2.679,1.878 3.737,5.624 4.803,9.998c1.857,7.621 2.274,17.049 1.678,27.513c-1.975,34.699 -15.299,79.786 -34.584,112.824c-7.905,13.541 -16.723,25.033 -26.381,32.362c-5.344,4.055 -10.817,6.802 -16.576,6.958c-5.45,0.149 -10.868,-2.224 -16.456,-6.835c-23.878,-19.705 -33.671,-59.494 -37.37,-103.596c-6.005,-71.613 6.379,-155.061 18.839,-196.695c5.867,-19.604 14.399,-51.018 27.926,-76.502c6.987,-13.163 15.009,-24.908 25.462,-30.867Z" style="fill:#7e4021;"/><path d="M1461,2111.53c2.18,5.278 7.016,9.301 13.074,10.16c23.405,3.319 54.167,-2.712 80.165,-4.918c1.206,81.65 0.309,157.184 5.28,182.037c1.804,9.02 10.591,14.879 19.611,13.075c9.02,-1.804 14.879,-10.592 13.075,-19.612c-8.437,-42.181 0.458,-231.437 -13.468,-346.556c-4.562,-37.717 -11.946,-67.995 -22.139,-84.617c-6.694,-10.915 -14.977,-17.2 -23.728,-19.556c-7.17,-1.931 -15.517,-0.268 -22.936,7.471c-10.106,10.541 -20.72,41.301 -22.886,46.919c-50.216,130.271 -69.856,272.673 -97.368,408.951c-0.42,2.078 -3.653,13.245 -3.531,18.796c0.17,7.702 3.87,12.612 7.279,15.218c7.308,5.586 17.777,4.188 23.363,-3.12c3.127,-4.091 4.065,-9.171 3.003,-13.83c0.704,-2.816 2.354,-9.445 2.56,-10.468c13.304,-65.898 24.677,-133.263 38.646,-199.95Zm92.614,-28.112c-1.104,-47.369 -3.257,-94.747 -7.969,-133.699c-3.343,-27.639 -7.839,-50.757 -14.613,-65.73c-0.401,-0.887 -0.808,-1.738 -1.224,-2.55c-4.338,9.681 -10.61,23.767 -11.657,26.483c-23.029,59.742 -39.482,122.084 -53.219,185.189c3.564,-3.383 8.583,-5.167 13.821,-4.424c21.875,3.102 50.632,-3.153 74.861,-5.269Z" style="fill:#7e4021;"/><path d="M1717.74,2071.16c1.9,-1.24 4.178,-2.646 6.237,-3.715c9.035,-4.69 20.633,-9.731 32.735,-15.797c42.529,-21.317 88.258,-54.808 76.508,-118.698c-2.576,-14.007 -14.942,-32.8 -33.215,-50.295c-24.954,-23.892 -60.36,-46.019 -88.254,-52.196c-27.831,-6.164 -49.374,1.823 -57.886,26.507c-7.217,20.929 -11.153,63.368 -12.57,114.999c-3.167,115.462 4.857,278.681 5.781,338.712c0.142,9.197 7.724,16.549 16.922,16.408c9.197,-0.142 16.549,-7.724 16.408,-16.921c-0.921,-59.779 -8.944,-222.31 -5.79,-337.285c1.293,-47.129 4.174,-85.943 10.761,-105.047c1.753,-5.081 6.296,-6.166 11.523,-5.918c7.124,0.34 15.242,2.829 23.743,6.495c21.839,9.42 45.57,26.749 61.996,44.021c9.193,9.667 16.382,18.852 17.797,26.549c8.448,45.935 -28.084,67.543 -58.66,82.87c-17.835,8.939 -34.561,15.894 -44.371,22.543c-7.448,5.049 -11.981,10.633 -14.06,15.829c-1.093,2.732 -1.915,6.717 -0.904,11.926c1.049,5.398 5.82,15.954 13.935,29.594c33.484,56.285 126.185,180.878 141.246,206.695c4.634,7.946 14.848,10.634 22.794,5.999c7.945,-4.635 10.633,-14.849 5.998,-22.794c-15.077,-25.847 -107.869,-150.593 -141.391,-206.942c-2.832,-4.76 -5.458,-9.843 -7.283,-13.539Z" style="fill:#7e4021;"/><path d="M2185.74,2610.68l1.686,-0.878c17.049,-9.754 30.868,-25.492 44.153,-39.648c42.187,-44.953 73.427,-96.731 92.583,-155.261c2.861,-8.743 -1.914,-18.163 -10.656,-21.024c-8.742,-2.862 -18.163,1.913 -21.024,10.656c-17.623,53.847 -46.398,101.463 -85.209,142.819c-11.078,11.804 -22.182,25.391 -36.4,33.525c0.1,-0.057 0.664,-0.359 0.664,-0.359c0,0 -8.104,5.273 -9.181,6.646c-6.171,7.866 -3.905,14.98 -0.824,19.635c5.078,7.67 15.428,9.774 23.098,4.696c0.385,-0.255 0.756,-0.523 1.11,-0.807Z" style="fill:#7e4021;"/><path d="M2301.68,2318.01c-4.245,6.229 -3.833,14.785 1.466,20.597c5.599,6.141 11.218,6.662 14.742,6.509c5.399,-0.234 10.387,-2.488 14.009,-8.093c1.386,-2.144 3.002,-5.959 3.344,-11.239c0.387,-5.975 -1.133,-17.58 -0.714,-23.076c1.33,-17.473 1.744,-34.993 2.381,-52.501c0.334,-9.192 -6.858,-16.927 -16.05,-17.261c-9.193,-0.334 -16.927,6.857 -17.262,16.05c-0.62,17.068 -1.009,34.147 -2.306,51.18c-0.278,3.645 0.082,12.141 0.39,17.834Z" style="fill:#7e4021;"/><path d="M123.82,1247.96c-51.398,-38.226 -99.29,-245.012 1.415,-325.392c21.062,-16.811 -74.283,-202.6 12.578,-333.38c54.795,-82.5 142.658,-140.351 234.221,-174.138c326.228,-120.38 950.548,-128.298 1298.03,-108.063c169.498,9.87 479.337,64.269 616.03,176.199c181.109,148.299 189.326,258.137 133.662,451.635c-14.485,50.353 55.749,91.938 21.08,237.936c-68.15,286.994 -939.533,309.181 -1158.3,298.482c-299.84,-14.664 -888.914,-22.621 -1158.72,-223.279Z" style="fill:#ffe6d8;"/><path d="M111.568,912.242c-51.921,43.99 -66.85,119.659 -60.682,190.281c3.672,42.047 14.632,82.075 28.598,111.735c10.263,21.795 22.454,38.199 34.39,47.077c109.669,81.563 271.097,132.206 445.012,164.075c257.498,47.185 542.386,53.652 722.837,62.477c154.207,7.542 630.405,-1.35 925.798,-106.367c132.157,-46.983 228.041,-114.404 249.533,-204.912c21.956,-92.461 3.999,-145.244 -10.536,-184.159c-7.707,-20.637 -15.608,-36.108 -10.743,-53.019c28.822,-100.19 40.466,-178.778 22.101,-251.458c-18.444,-72.99 -67.046,-140.566 -161.221,-217.68c-138.88,-113.721 -453.41,-169.914 -625.62,-179.943c-349.298,-20.34 -976.84,-11.942 -1304.77,109.066c-94.806,34.983 -185.598,95.131 -242.334,180.553c-63.63,95.803 -35.42,219.711 -19.372,291.529c3.015,13.493 5.531,24.961 6.63,33.78c0.289,2.312 0.368,5.142 0.38,6.965Zm22.199,322.346c-8.625,-6.414 -16.71,-18.783 -24.125,-34.53c-12.55,-26.651 -22.25,-62.655 -25.55,-100.435c-5.324,-60.964 5.395,-127.196 51.54,-164.028c3.819,-3.048 6.98,-7.589 8.461,-14.168c1.46,-6.485 1.026,-16.894 -1.397,-30.378c-5.358,-29.82 -19.757,-79.261 -24.155,-134.185c-4.17,-52.077 0.601,-109.438 33.156,-158.453c52.853,-79.578 137.787,-135.134 226.106,-167.724c324.526,-119.751 945.624,-127.19 1291.3,-107.061c166.786,9.713 471.932,62.316 606.439,172.456c86.935,71.186 132.995,132.677 150.021,200.056c17.104,67.689 5.025,140.768 -21.817,234.076c-6.726,23.382 0.894,45.365 11.551,73.898c13.006,34.822 28.977,82.059 9.33,164.795c-9.396,39.57 -35.82,73.365 -73.924,102.7c-40.241,30.982 -93.322,56.812 -154.343,78.506c-291.296,103.559 -760.936,111.917 -913.003,104.48c-179.356,-8.771 -462.524,-15.072 -718.458,-61.97c-168.372,-30.854 -324.953,-79.072 -431.127,-158.035Z" style="fill:#7e4021;"/><path d="M1177.01,442.221c-2.631,-2.93 134.179,-9.036 137.598,4.659c17.322,69.371 131.7,62.18 115.577,138.107c-18.582,87.505 -361.334,92.715 -372.735,4.3c-8.846,-68.614 119.56,-86.572 119.56,-147.066Z" style="fill:#edaf5f;"/><path d="M1160.33,443.17c-0.37,10.124 -6.629,18.16 -14.698,25.797c-11.269,10.666 -26.273,20.1 -40.949,29.867c-16.769,11.16 -33.118,22.745 -44.797,36.03c-14.021,15.948 -21.834,34.272 -18.961,56.554c2.416,18.737 15.033,35.109 36.363,47.558c25.81,15.064 65.457,24.864 109.459,28.794c75.268,6.724 163.203,-3.488 213.226,-28.714c25.942,-13.083 42.292,-30.701 46.519,-50.607c9.92,-46.716 -17.932,-69.321 -53.304,-89.458c-13.636,-7.764 -28.32,-15.244 -40.566,-24.986c-10.074,-8.014 -18.459,-17.627 -21.839,-31.163c-1.011,-4.048 -3.419,-8.341 -8.453,-11.777c-3.403,-2.323 -9.606,-4.755 -18.119,-6.216c-32.003,-5.493 -109.592,-2.572 -126.517,-0.066c-7.955,1.177 -11.869,4.825 -12.871,5.901c-3.266,3.508 -4.347,7.277 -4.497,10.72c-0.026,0.585 -0.026,1.175 0.004,1.767l-0,-0.001Zm140.397,15.288c12.259,34.316 45.534,52.173 75.97,69.501c22.15,12.61 43.401,24.312 37.189,53.566c-1.484,6.984 -6.548,12.836 -13.488,18.231c-9.196,7.15 -21.577,13.103 -36.008,18.112c-47.23,16.393 -115.271,22.008 -174.677,16.701c-38.365,-3.427 -73.119,-11.248 -95.622,-24.381c-10.894,-6.358 -18.873,-13.464 -20.107,-23.033c-1.55,-12.027 3.368,-21.674 10.936,-30.282c9.909,-11.271 24.003,-20.821 38.23,-30.289c19.928,-13.262 40.104,-26.362 53.199,-41.537c7.47,-8.657 12.852,-17.995 15.492,-28.229c18.982,-1.476 56.131,-2.619 84.235,-1.234c8.876,0.437 19.283,1.992 24.651,2.874Zm-110.794,-26.765c2.207,2.67 3.254,5.471 3.588,8.231c-0.418,-3.011 -1.655,-5.861 -3.588,-8.231Z" style="fill:#7e4021;"/><path d="M1316.98,148.816c13.632,-55.413 4.111,-118.973 -63.945,-129.526c-39.559,-6.135 -68.124,2.194 -87.554,18.51c-18.289,15.358 -28.683,38.048 -32.106,63.769c-3.195,24.016 -0.283,50.702 7.584,76.035c-50.124,-36.148 -123.925,-54.745 -157.08,13.528c-17.487,36.01 -17.919,65.761 -8.033,89.128c9.306,21.994 27.939,38.597 51.52,49.426c22.016,10.111 48.38,15.169 74.906,15.093c-49.281,37.29 -88.742,102.368 -33.225,154.121c29.282,27.296 57.592,36.451 82.832,33.868c23.758,-2.432 45.103,-15.365 62.383,-34.722c16.135,-18.074 28.716,-41.788 36.438,-67.165c21.163,58.062 71.772,114.904 137.554,77.045c34.696,-19.968 51.765,-44.339 56.712,-69.224c4.656,-23.424 -1.433,-47.626 -14.858,-69.831c-12.536,-20.733 -31.505,-39.727 -53.493,-54.565c61.717,-3.168 130.921,-34.841 114.063,-108.843c-8.892,-39.031 -27.171,-62.508 -49.504,-74.549c-21.022,-11.334 -45.945,-12.625 -71.115,-6.317c-18.061,4.526 -36.256,12.987 -53.079,24.219Z" style="fill:#fff;"/><path d="M1338.62,117.914c3.45,-53.858 -17.608,-104.948 -83.037,-115.094c-45.639,-7.077 -78.408,3.393 -100.825,22.217c-21.375,17.949 -33.909,44.272 -37.909,74.334c-1.9,14.28 -1.857,29.427 -0.04,44.729c-53.644,-25.114 -116.447,-25.073 -147.927,39.751c-20.176,41.546 -19.796,75.945 -8.39,102.903c10.876,25.706 32.353,45.421 59.913,58.078c13.091,6.012 27.582,10.422 42.743,13.182c-39.769,43.896 -58.183,103.938 -5.471,153.077c33.783,31.492 66.775,41.238 95.895,38.257c27.767,-2.843 52.923,-17.579 73.119,-40.203c9.593,-10.747 18.066,-23.302 25.159,-36.983c30.273,50.912 82.254,86.156 144.712,50.209c40.029,-23.037 59.039,-51.709 64.746,-80.419c5.442,-27.377 -1.252,-55.752 -16.943,-81.704c-7.454,-12.329 -16.965,-24.117 -27.957,-34.916c57.559,-13.977 106.522,-53.307 90.515,-123.571c-10.259,-45.031 -32.079,-71.626 -57.845,-85.517c-24.569,-13.247 -53.659,-15.186 -83.076,-7.814c-9.146,2.292 -18.329,5.492 -27.382,9.484l0,0Zm-37.829,26.921c-1.643,6.677 0.984,13.678 6.614,17.626c5.63,3.949 13.106,4.035 18.825,0.216c15.182,-10.137 31.577,-17.829 47.875,-21.913c20.924,-5.244 41.679,-4.601 59.154,4.82c18.903,10.191 33.637,30.545 41.163,63.581c14.172,62.211 -46.783,85.833 -98.667,88.496c-7.16,0.368 -13.283,5.273 -15.203,12.18c-1.921,6.908 0.792,14.27 6.735,18.28c19.926,13.447 37.193,30.584 48.553,49.373c11.16,18.459 16.645,38.487 12.774,57.959c-4.187,21.062 -19.313,41.127 -48.679,58.028c-55.3,31.826 -95.79,-19.497 -113.581,-68.308c-2.455,-6.736 -8.943,-11.147 -16.11,-10.953c-7.167,0.194 -13.407,4.95 -15.494,11.809c-6.998,22.998 -18.305,44.539 -32.926,60.918c-14.365,16.091 -31.897,27.219 -51.647,29.241c-21.363,2.187 -44.987,-6.376 -69.77,-29.479c-46.671,-43.507 -9.511,-97.291 31.917,-128.639c5.717,-4.326 8.027,-11.824 5.736,-18.617c-2.292,-6.794 -8.671,-11.361 -15.84,-11.34c-24.039,0.068 -47.951,-4.41 -67.904,-13.573c-19.602,-9.002 -35.39,-22.491 -43.126,-40.774c-8.367,-19.778 -7.125,-44.875 7.676,-75.353c27.873,-57.394 90.202,-37.679 132.339,-7.291c5.815,4.194 13.661,4.199 19.481,0.012c5.82,-4.186 8.311,-11.626 6.185,-18.473c-7.129,-22.957 -9.875,-47.13 -6.98,-68.894c2.845,-21.382 11.099,-40.436 26.303,-53.203c16.445,-13.81 40.799,-19.996 74.282,-14.804c56.593,8.775 61.651,62.995 50.315,109.075Z" style="fill:#7e4021;"/><path d="M1286.75,234.231c-42.728,-41.414 -80.831,-18.556 -98.535,-4.525c-50.299,39.862 -26.453,111.146 26.633,129.622c74.068,25.778 133.085,-65.797 71.902,-125.097Z" style="fill:#fee4a8;"/><path d="M1298.35,222.263c-20.857,-20.215 -41.054,-27.38 -58.872,-28.205c-26.644,-1.235 -48.693,12.345 -61.614,22.585c-61.397,48.658 -33.294,135.873 31.506,158.425c54.562,18.989 102.439,-13.953 115.811,-59.021c8.823,-29.735 2.906,-64.962 -26.831,-93.784Zm-23.199,23.936c19.21,18.618 23.774,41.158 18.074,60.366c-8.411,28.348 -38.579,48.966 -72.899,37.022c-41.376,-14.4 -60.963,-69.75 -21.759,-100.819c8.324,-6.597 22.203,-16.208 39.367,-15.413c11.387,0.528 23.889,5.926 37.217,18.844Z" style="fill:#7e4021;"/><path d="M113.983,914.368c5.988,36.994 27.527,181.711 315.743,284.431c389.057,138.661 1154.52,164.857 1558.66,60.976c115.109,-29.587 215.073,-65.723 291.069,-114.105c78.697,-50.103 132.079,-113.399 151.708,-195.5c2.139,-8.946 -3.388,-17.946 -12.335,-20.085c-8.946,-2.139 -17.946,3.388 -20.085,12.334c-17.647,73.81 -66.44,130.089 -137.19,175.133c-73.452,46.763 -170.208,81.342 -281.465,109.939c-399.086,102.582 -1154.99,76.836 -1539.18,-60.091c-265.459,-94.61 -288.513,-224.286 -294.028,-258.359c-1.47,-9.08 -10.035,-15.259 -19.116,-13.789c-9.08,1.47 -15.259,10.036 -13.789,19.116Z" style="fill:#7e4021;"/><path d="M2372.44,591.995c28.776,80.585 -21.707,208.001 -177.702,278.512c-192.796,87.144 -456.097,76.475 -657.566,83.642c-9.192,0.327 -16.39,8.056 -16.063,17.248c0.327,9.193 8.056,16.391 17.248,16.064c205.365,-7.305 473.587,2.25 670.11,-86.58c177.07,-80.036 228.029,-228.624 195.365,-320.096c-3.094,-8.663 -12.638,-13.184 -21.301,-10.091c-8.663,3.094 -13.185,12.638 -10.091,21.301Z" style="fill:#7e4021;"/><path d="M498.166,823.019c-94.398,-17.029 -203.55,-87.705 -249.636,-141.39c-36.872,-42.951 -53.446,-86.455 -54.979,-143.202c-0.248,-9.195 -7.915,-16.459 -17.11,-16.21c-9.196,0.248 -16.459,7.915 -16.211,17.11c1.755,64.999 20.774,114.817 63.008,164.014c49.673,57.863 167.267,134.128 269.01,152.481c9.053,1.633 17.728,-4.39 19.361,-13.443c1.633,-9.052 -4.391,-17.727 -13.443,-19.36Z" style="fill:#7e4021;"/><path d="M17.488,519.953c1.132,-19.831 99.195,-29.473 123.962,-60.137c31.748,-39.308 40.798,-204.139 65.04,-200.063c17.085,2.873 12.446,165.754 32.5,198.354c24.781,40.284 109.761,39.093 113.406,62.232c3.572,22.673 -76.445,12.328 -113.23,79.019c-38.6,69.984 -37.521,204.826 -58.977,203.871c-14.107,-0.627 -17.468,-73.265 -18.44,-79.287c-9.969,-61.735 -6.647,-83.204 -30.99,-133.089c-23.895,-48.967 -114.304,-52.799 -113.271,-70.9Z" style="fill:#fff;"/><path d="M0.848,519.003c-0.332,5.815 1.433,11.424 5.977,16.568c4.159,4.708 12.649,9.65 24.295,14.026c13.485,5.067 32.241,10.502 49.637,18.892c14.457,6.974 28.264,15.821 35.024,29.673c23.476,48.109 19.901,68.9 29.514,128.437c0.821,5.083 3.75,55.073 12.311,75.236c5.36,12.622 14.388,17.713 21.842,18.045c6.257,0.278 12.333,-1.851 17.655,-7.534c3.376,-3.606 6.821,-9.633 9.583,-18.021c11.759,-35.705 16.675,-131.803 47.074,-186.917c23.186,-42.037 66.226,-48.893 88.393,-56.94c20.711,-7.519 28.81,-19.37 26.707,-32.722c-1.014,-6.435 -4.276,-12.339 -10.151,-17.413c-5.011,-4.328 -12.611,-8.257 -22.028,-11.687c-13.801,-5.027 -32.335,-9.48 -49.567,-16.192c-13.799,-5.375 -27.031,-11.868 -33.928,-23.08c-5.672,-9.22 -8.26,-30.407 -10.806,-54.803c-4.37,-41.864 -6.512,-92.432 -11.488,-119.255c-2.019,-10.887 -4.99,-18.763 -7.875,-22.905c-4.037,-5.798 -9.053,-8.302 -13.763,-9.094c-6.816,-1.146 -13.621,0.575 -19.822,6.498c-3.914,3.739 -8.05,10.298 -11.544,19.477c-9.618,25.271 -17.601,76.315 -27.913,120.05c-6.053,25.673 -12.383,48.725 -21.491,60.001c-5.514,6.827 -15.94,11.782 -27.62,16.533c-21.898,8.905 -48.295,15.639 -66.646,22.536c-12.274,4.613 -21.521,9.886 -26.322,14.98c-4.633,4.916 -6.743,10.269 -7.048,15.611Zm200.677,-211.552c3.553,35.475 5.833,84.043 11.204,118.162c2.905,18.452 7.099,33.154 12.065,41.226c7.444,12.101 18.995,21.477 32.669,28.736c17.306,9.187 38.153,14.991 55.666,20.391c4.83,1.489 9.367,2.937 13.402,4.465c-2.327,0.87 -4.741,1.729 -6.97,2.448c-28.821,9.293 -70.337,23.737 -94.989,68.43c-25.139,45.578 -34.309,117.841 -43.046,164.409c-2.035,-16.452 -2.901,-31.811 -3.324,-34.433c-10.323,-63.934 -7.255,-86.08 -32.465,-137.741c-7.038,-14.423 -18.574,-25.845 -32.336,-34.895c-17.994,-11.832 -39.884,-19.54 -57.926,-25.775c-2.945,-1.018 -6.096,-2.215 -9.112,-3.42c4.052,-1.514 8.523,-3.017 13.254,-4.551c19.045,-6.173 41.914,-12.707 60.479,-20.99c14.796,-6.601 27.011,-14.577 34.319,-23.625c9.936,-12.301 18.462,-35.368 25.349,-62.442c8.293,-32.604 14.865,-71.333 21.761,-100.395Z" style="fill:#7e4021;"/><path d="M1738.27,396.074c23.578,0.241 160.319,24.92 215.322,43.077c8.735,2.883 18.168,-1.868 21.051,-10.603c2.884,-8.735 -1.867,-18.167 -10.602,-21.051c-57.568,-19.003 -200.753,-44.503 -225.431,-44.755c-9.198,-0.094 -16.742,7.298 -16.836,16.496c-0.094,9.198 7.298,16.742 16.496,16.836Z" style="fill:#7e4021;"/><path d="M2020.95,454.246c21.322,5.278 42.067,11.833 62.867,18.906c8.709,2.961 18.184,-1.706 21.145,-10.415c2.961,-8.709 -1.706,-18.183 -10.415,-21.145c-21.698,-7.377 -43.344,-14.197 -65.587,-19.703c-8.929,-2.21 -17.973,3.244 -20.184,12.173c-2.21,8.93 3.245,17.973 12.174,20.184Z" style="fill:#7e4021;"/></g></svg>