<?xml version="1.0" encoding="UTF-8" standalone="no"?><!DOCTYPE svg PUBLIC "-//W3C//DTD SVG 1.1//EN" "http://www.w3.org/Graphics/SVG/1.1/DTD/svg11.dtd"><svg width="100%" height="100%" viewBox="0 0 3458 812" version="1.1" xmlns="http://www.w3.org/2000/svg" xmlns:xlink="http://www.w3.org/1999/xlink" xml:space="preserve" xmlns:serif="http://www.serif.com/" style="fill-rule:evenodd;clip-rule:evenodd;stroke-linejoin:round;stroke-miterlimit:2;"><g id="Sugar"><path d="M283.355,80.152l-0,657.432c-0,0 933.93,57.309 1401.61,57.309c482.547,-0 1493.67,-57.309 1493.67,-57.309l-0,-657.432c-0,0 -1092.96,-63.039 -1575.51,-63.039c-440.533,-0 -1319.77,63.039 -1319.77,63.039Z" style="fill:#e0f0ff;"/><path d="M282.163,63.528c-8.72,0.625 -15.475,7.882 -15.475,16.624l0,657.432c0,8.809 6.854,16.096 15.646,16.636c-0,-0 422.134,25.903 841.001,42.887c204.451,8.29 408.124,14.453 561.627,14.453c160.059,-0 378.213,-6.295 598.389,-14.719c443.998,-16.985 896.229,-42.617 896.229,-42.617c8.824,-0.5 15.723,-7.801 15.723,-16.64l0,-657.432c0,-8.832 -6.889,-16.13 -15.707,-16.639c0,0 -480.667,-27.724 -945.292,-46.406c-236.281,-9.501 -468.416,-16.661 -631.178,-16.661c-144.644,0 -336.513,6.781 -529.094,15.903c-394.439,18.684 -791.869,47.179 -791.869,47.179Zm17.858,32.154c76.815,-5.393 427.368,-29.542 775.588,-46.037c192.007,-9.095 383.304,-15.866 527.517,-15.866c162.417,0 394.059,7.154 629.839,16.634c414.949,16.685 842.703,40.586 929.005,45.482c-0,0 -0,625.93 -0,625.93c-83.379,4.638 -484.897,26.596 -879.893,41.707c-219.708,8.406 -437.397,14.694 -597.115,14.694c-153.134,0 -356.317,-6.155 -560.277,-14.425c-371.071,-15.046 -744.71,-37.098 -824.664,-41.905c0,-98.387 0,-626.214 0,-626.214l0,-0Z" style="fill:#7e4021;"/><path d="M2714.85,293.395c-18.421,18.258 -67.28,63.722 -94.151,87.457c-6.894,6.09 -7.547,16.631 -1.457,23.525c6.089,6.894 16.631,7.547 23.525,1.458c27.27,-24.089 76.852,-70.235 95.548,-88.766c6.533,-6.475 6.58,-17.036 0.105,-23.57c-6.475,-6.533 -17.037,-6.58 -23.57,-0.104Z" style="fill:#7e4021;"/><path d="M653.784,350.765c-18.422,18.258 -67.281,63.723 -94.151,87.457c-6.894,6.09 -7.547,16.631 -1.458,23.525c6.09,6.895 16.631,7.548 23.525,1.458c27.271,-24.088 76.853,-70.235 95.549,-88.765c6.533,-6.476 6.58,-17.037 0.105,-23.57c-6.476,-6.534 -17.037,-6.581 -23.57,-0.105Z" style="fill:#7e4021;"/><path d="M797.333,363.128c-18.422,18.258 -67.281,63.723 -94.151,87.457c-6.894,6.09 -7.547,16.631 -1.458,23.525c6.09,6.895 16.631,7.548 23.526,1.458c27.27,-24.088 76.852,-70.235 95.548,-88.765c6.533,-6.476 6.58,-17.037 0.105,-23.57c-6.476,-6.534 -17.037,-6.58 -23.57,-0.105Z" style="fill:#7e4021;"/><path d="M737.276,277.731c-4.03,3.681 -14.72,12.843 -20.598,17.627c-7.134,5.806 -8.212,16.313 -2.405,23.447c5.806,7.134 16.312,8.212 23.447,2.406c6.289,-5.119 17.723,-14.928 22.035,-18.866c6.792,-6.203 7.27,-16.754 1.067,-23.546c-6.203,-6.792 -16.754,-7.271 -23.546,-1.068Z" style="fill:#7e4021;"/><path d="M2863.21,296.768c-46.79,46.376 -170.889,161.86 -239.139,222.146c-6.895,6.09 -7.548,16.631 -1.458,23.525c6.09,6.894 16.631,7.547 23.525,1.458c68.651,-60.64 193.472,-176.806 240.537,-223.454c6.534,-6.476 6.58,-17.037 0.105,-23.57c-6.475,-6.534 -17.037,-6.581 -23.57,-0.105Z" style="fill:#7e4021;"/><path d="M1225.31,110.874c-271.597,14.964 -268.995,561.21 12.331,586.575c185.16,16.694 347.355,21.351 490.47,21.351c121.4,0 290.998,-6.055 457.909,-13.777c293.596,-13.582 301.981,-579.619 8.903,-594.271c-192.038,-9.601 -391.025,-17.547 -523.616,-17.547c-131.4,0 -274.654,8.229 -445.997,17.669Z" style="fill:#fff;"/><path d="M1224.39,94.233c-146.494,8.071 -220.838,159.434 -216.811,312.202c3.906,148.213 81.344,294.34 228.562,307.613c86.825,7.828 168.617,13.018 245.772,16.326c87.885,3.767 169.754,5.093 246.195,5.093c53.378,-0 116.049,-1.167 183.711,-3.131c86.493,-2.51 181.155,-6.324 274.968,-10.664c155.17,-7.178 237.448,-158.114 240.32,-311.42c2.898,-154.677 -75.075,-308.333 -231.355,-316.146c-106.844,-5.342 -215.836,-10.171 -314.369,-13.407c-78.863,-2.591 -151.036,-4.16 -210.079,-4.16c-57.057,-0 -116.341,1.544 -179.171,4.065c-82.175,3.298 -170.433,8.268 -267.743,13.629l0,-0Zm1.834,33.283c97.129,-5.352 185.223,-10.314 267.245,-13.605c62.362,-2.503 121.204,-4.039 177.835,-4.039c58.735,0 130.533,1.565 208.985,4.142c98.354,3.231 207.149,8.052 313.798,13.384c137.92,6.895 202.25,145.725 199.693,282.229c-2.542,135.672 -71.213,272.395 -208.534,278.747c-93.617,4.331 -188.081,8.138 -274.394,10.643c-67.306,1.954 -129.647,3.116 -182.744,3.116c-75.998,0 -157.392,-1.316 -244.767,-5.062c-76.664,-3.286 -157.935,-8.443 -244.206,-16.222c-130.319,-11.749 -194.776,-144.093 -198.234,-275.292c-3.54,-134.297 56.542,-270.946 185.323,-278.041l0,-0Z" style="fill:#7e4021;"/><path d="M1360.99,258.896c0.353,-3.144 0.766,-7.292 0.739,-9.072c-0.15,-9.673 -1.391,-19.446 -3.738,-28.831c-7.317,-29.27 -25.911,-44.34 -46.455,-47.664c-19.667,-3.182 -42.608,4.77 -60.946,25.419c-21.895,24.655 -31.36,56.42 -33.28,88.784c-4.341,73.178 29.492,97.468 64.07,121.45c26.416,18.322 53.558,36.314 50.871,92.15c-1.576,32.735 -7.235,57.008 -15.721,74.152c-6.927,13.994 -15.455,22.683 -25.073,26.318c-10.509,3.971 -21.747,1.447 -31.531,-4.747c-17.31,-10.959 -30.273,-33.095 -30.273,-58.674c-0,-9.199 -7.468,-16.667 -16.667,-16.667c-9.198,-0 -16.666,7.468 -16.666,16.667c-0,38.032 20.039,70.544 45.775,86.838c18.914,11.974 40.833,15.44 61.146,7.763c29.332,-11.086 58.383,-48.562 62.305,-130.048c3.512,-72.969 -30.647,-97.198 -65.169,-121.142c-26.361,-18.284 -53.102,-36.297 -49.792,-92.086c1.478,-24.922 8.069,-49.639 24.929,-68.624c9.446,-10.636 20.568,-16.286 30.699,-14.648c9.258,1.498 16.143,9.653 19.44,22.844c1.73,6.92 2.636,14.128 2.746,21.26c0.041,2.612 -1.048,8.263 -1.171,11.119c-0.174,4.079 0.69,7.077 1.32,8.633c3.631,8.953 10.408,11.123 17.102,10.558c2.626,-0.222 8.204,-0.852 12.999,-7.78c2.932,-4.239 3.628,-9.364 2.341,-13.972Zm-29.272,-5.654c-0.161,0.209 -0.321,0.428 -0.48,0.658l0.48,-0.658Zm0.44,-0.548l-0.196,0.244l0.223,-0.275l-0.027,0.031Z" style="fill:#7e4021;"/><path d="M1444.3,202.194c3.143,-7.271 0.719,-15.977 -6.118,-20.494c-5.853,-3.868 -11.216,-3.488 -15.862,-1.594c-2.903,1.183 -5.985,3.299 -8.289,7.154c-0.881,1.474 -1.864,3.674 -2.405,6.469c-0.47,2.429 -0.556,6.564 -0.651,7.776c-0.975,12.369 -0.993,24.784 -1.288,37.181c-0.666,27.993 -1.464,55.983 -2.081,83.978c-0.711,32.276 -9.447,154.535 9.069,228.774c5.412,21.697 13.305,39.6 23.556,51.41c8.646,9.962 19.013,16.113 31.031,18.015c41.828,6.62 72.07,-22.45 90.817,-72.73c36.357,-97.515 32.031,-277.855 37.626,-327.09c1.038,-9.14 -5.539,-17.403 -14.679,-18.442c-9.139,-1.039 -17.403,5.538 -18.441,14.678c-5.459,48.032 -0.271,224.076 -35.739,319.209c-12.062,32.349 -27.461,55.711 -54.373,51.451c-5.872,-0.929 -10.22,-5.185 -14.073,-10.885c-5.794,-8.572 -10.028,-20.233 -13.382,-33.683c-17.802,-71.375 -8.77,-188.942 -8.086,-219.973c0.616,-27.975 1.413,-55.945 2.079,-83.919c0.28,-11.788 0.267,-23.593 1.194,-35.354l0.095,-1.931Zm-23.693,7.812c3.287,1.964 6.407,2.521 9.312,2.237c-3.164,0.18 -6.403,-0.538 -9.312,-2.237Z" style="fill:#7e4021;"/><path d="M1726.61,217.385c5.875,0.018 11.582,-3.076 14.634,-8.57c3.515,-6.327 2.385,-11.458 0.69,-15.237c-1.731,-3.86 -4.946,-7.692 -10.899,-9.383c-1.801,-0.511 -4.927,-0.941 -8.433,-0.413c-3.416,0.514 -7.605,2.079 -7.63,2.091c-15.687,7.325 -28.843,22.909 -38.965,41.979c-12.931,24.361 -21.315,54.305 -26.923,73.044c-11.702,39.104 -23.428,117.473 -17.787,184.733c4.066,48.488 17.922,91.071 44.174,112.735c35.467,29.269 73.036,8.034 99.303,-36.964c22.745,-38.965 36.969,-94.595 34.676,-130.695c-1.312,-20.648 -8.571,-35.762 -19.01,-43.083c-9.328,-6.542 -21.479,-9.571 -34.653,-10.379c-14.653,-0.898 -30.755,1.066 -43.033,-0.051c-9.16,-0.832 -17.274,5.929 -18.107,15.09c-0.833,9.161 5.929,17.274 15.089,18.107c10.743,0.976 24.275,-0.193 37.391,-0.088c9.02,0.072 17.93,0.233 24.174,4.612c2.022,1.418 2.629,4.336 3.434,7.638c1.595,6.546 1.935,14.643 1.423,23.631c-1.723,30.267 -13.349,69.595 -30.172,98.413c-6.81,11.667 -14.381,21.587 -22.702,27.901c-4.341,3.295 -8.759,5.592 -13.438,5.719c-4.369,0.119 -8.679,-1.863 -13.159,-5.56c-20.684,-17.07 -28.97,-51.608 -32.173,-89.812c-5.264,-62.763 5.584,-135.9 16.504,-172.39c5.136,-17.16 12.59,-44.664 24.432,-66.972c5.851,-11.025 12.48,-20.946 21.16,-26.096Z" style="fill:#7e4021;"/><path d="M1882.01,426.225c2.544,2.961 6.131,5.046 10.295,5.636c20.101,2.85 46.338,-2.065 68.896,-4.133c1.027,71.177 0.294,136.747 4.634,158.447c1.804,9.02 10.591,14.878 19.611,13.074c9.02,-1.804 14.879,-10.592 13.075,-19.612c-7.422,-37.109 0.421,-203.608 -11.83,-304.884c-4.06,-33.565 -10.696,-60.491 -19.767,-75.283c-6.213,-10.131 -13.946,-15.911 -22.068,-18.098c-6.916,-1.862 -14.993,-0.342 -22.149,7.123c-9.046,9.436 -18.627,36.932 -20.565,41.961c-44.24,114.768 -61.559,240.219 -85.797,360.278c-0.379,1.878 -3.258,11.971 -3.147,16.984c0.167,7.569 3.84,12.377 7.19,14.937c7.309,5.586 17.777,4.188 23.363,-3.12c3.026,-3.959 4.003,-8.845 3.096,-13.381c0.641,-2.544 1.998,-7.965 2.172,-8.823c11.384,-56.389 21.156,-114 32.991,-171.106Zm78.561,-31.843c-0.988,-40.99 -2.891,-81.895 -6.972,-115.626c-2.79,-23.068 -6.473,-42.527 -11.97,-55.591c-3.491,7.891 -7.605,17.257 -8.385,19.28c-19.637,50.942 -33.833,104.035 -45.692,157.834c2.84,-1.341 6.091,-1.895 9.432,-1.421c18.568,2.633 42.797,-2.468 63.587,-4.476Z" style="fill:#7e4021;"/><path d="M2109.66,386.115c1.259,-0.783 2.604,-1.575 3.816,-2.204c7.945,-4.124 18.145,-8.557 28.788,-13.892c38.151,-19.123 78.951,-49.309 68.41,-106.623c-2.319,-12.613 -13.363,-29.596 -29.818,-45.351c-22.226,-21.28 -53.785,-40.947 -78.63,-46.449c-25.655,-5.682 -45.424,1.876 -53.27,24.63c-6.39,18.531 -9.918,56.102 -11.172,101.817c-2.789,101.658 4.274,245.363 5.088,298.217c0.141,9.198 7.724,16.55 16.921,16.408c9.198,-0.141 16.55,-7.723 16.408,-16.921c-0.81,-52.601 -7.872,-195.618 -5.096,-296.79c1.13,-41.213 3.603,-75.159 9.363,-91.865c1.222,-3.542 4.517,-4.039 8.16,-3.865c6.063,0.288 12.966,2.435 20.202,5.556c18.993,8.192 39.627,23.267 53.913,38.289c7.766,8.167 13.952,15.851 15.148,22.353c7.238,39.36 -24.364,57.662 -50.564,70.795c-15.791,7.915 -30.594,14.088 -39.28,19.975c-6.967,4.722 -11.165,9.983 -13.109,14.844c-1.065,2.662 -1.887,6.544 -0.902,11.619c0.945,4.864 5.198,14.398 12.509,26.689c29.47,49.538 111.06,159.194 124.315,181.917c4.635,7.945 14.849,10.633 22.794,5.998c7.946,-4.635 10.634,-14.848 5.999,-22.794c-13.272,-22.752 -94.952,-132.561 -124.46,-182.163c-2,-3.362 -3.988,-7.133 -5.533,-10.19Z" style="fill:#7e4021;"/><path d="M284.247,738.433c-22.304,10.912 -92.605,18.876 -131.755,15.987c-36.033,-2.658 -96.742,-23.827 -103.144,-33.321c-3.727,-5.525 4.455,-11.485 7.923,-14.572c6.635,-5.904 37.369,-25.587 35.997,-33.99c-1.405,-8.602 -14.325,-14.4 -20.557,-18.721c-15.888,-11.013 -47.252,-31.138 -44.975,-54.071c1.736,-17.482 24.521,-25.667 37.017,-34.126c5.481,-3.71 15.077,-8.421 13.178,-16.408c-5.204,-21.878 -34.676,-36.225 -35.232,-61.944c-0.27,-12.502 6.988,-21.469 16.545,-28.549c3.412,-2.528 14.273,-7.232 12.599,-12.718c-2.215,-7.264 -12.673,-13.305 -18.159,-17.752c-14.389,-11.661 -36.951,-29.871 -35.997,-50.653c0.775,-16.868 20.479,-27.29 32.392,-35.963c6.626,-4.823 14.64,-9.435 14.113,-18.704c-1.629,-28.616 -47.403,-42.216 -43.308,-72.282c3.256,-23.908 48.44,-29.531 49.922,-49.633c0.93,-12.617 -28.978,-30.869 -38.139,-37.629c-4.788,-3.533 -12.886,-8.529 -11.545,-15.626c4.141,-21.923 52.125,-28.293 56.639,-48.069c2.443,-10.704 -29.218,-27.301 -36.711,-32.748c-3.503,-2.547 -12.439,-7.854 -10.423,-13.467c3.938,-10.965 80.69,-14.742 139.096,-9.07c59.837,5.812 110.198,34.949 110.198,34.949c-0,0 1.339,575.877 4.326,659.08Z" style="fill:#a8ccf1;"/><path d="M58.077,98.776c-0.833,0.604 -1.722,1.192 -2.648,1.776c-6.59,4.155 -14.698,7.872 -22.014,11.963c-14.96,8.363 -26.216,19.159 -28.67,32.15c-1.46,7.727 0.646,14.683 5.186,20.691c3.464,4.583 8.863,8.504 12.84,11.439c5.2,3.837 17.518,11.516 26.308,19.681c1.188,1.104 2.572,2.685 3.646,3.976c-0.774,0.728 -1.694,1.539 -2.463,2.092c-5.744,4.125 -13.063,7.812 -19.697,11.983c-13.743,8.64 -24.258,19.645 -26.195,33.87c-2.353,17.277 5.488,31.295 17.416,43.897c6.082,6.425 13.263,12.49 19.022,19.065c3.059,3.493 5.924,6.976 6.602,11.27c-1.417,1.131 -5.05,4.007 -7.14,5.529c-7.891,5.744 -18.744,12.356 -26.456,20.611c-7.431,7.954 -12.281,17.296 -12.776,28.061c-0.548,11.935 3.81,23.448 11.155,33.836c8.57,12.121 21.355,22.716 30.997,30.53c1.628,1.32 3.675,2.78 5.823,4.364c-13.818,10.328 -23.369,23.906 -22.976,42.067c0.302,14.001 6.354,25.75 14.617,36.444c4.581,5.93 9.851,11.517 14.372,17.27c1.886,2.4 3.686,4.781 5.001,7.315c-1.613,1.11 -3.514,2.415 -4.617,3.161c-7.935,5.372 -19.703,10.773 -28.314,18.124c-8.809,7.519 -14.817,16.801 -15.945,28.158c-1.338,13.482 4.311,26.659 14.174,38.227c11.031,12.939 27.444,23.946 37.89,31.188c2.513,1.742 6.07,3.726 9.567,6.018c-8.635,7.994 -22.537,16.937 -26.591,20.546c-4.003,3.562 -10.942,10.177 -13.16,16.51c-2.29,6.536 -1.939,13.25 2.499,19.83c2.758,4.09 11.762,10.923 25.496,16.861c23.725,10.257 63.422,21.784 90.239,23.763c41.713,3.078 116.542,-6.011 140.307,-17.639c5.911,-2.892 9.567,-8.992 9.331,-15.568c-2.985,-83.133 -4.316,-658.521 -4.316,-658.521c-0.014,-5.935 -3.183,-11.415 -8.32,-14.387c0,0 -53.434,-30.944 -116.933,-37.111c-48.901,-4.749 -110.08,-2.82 -134.709,3.877c-13.442,3.655 -19.884,11.137 -21.684,16.147c-2.336,6.505 -1.529,12.986 2.041,19.022c3.276,5.539 10.543,10.852 14.268,13.56c3.627,2.636 12.863,7.871 21.221,13.788c1.718,1.216 3.815,2.982 5.606,4.566Zm14.225,617.02c8.513,-6.576 24.957,-18.326 31.565,-26.861c5.486,-7.087 6.666,-14.085 5.85,-19.083c-0.936,-5.733 -3.789,-11.113 -8.238,-15.804c-5.455,-5.752 -14.18,-10.399 -19.273,-13.929c-7.354,-5.098 -18.344,-12.234 -27.178,-20.82c-5.658,-5.499 -11.382,-11.109 -10.707,-17.907c0.393,-3.956 4.132,-6.094 7.515,-8.488c7.377,-5.22 16.093,-9.309 22.26,-13.483c4.396,-2.976 10.523,-6.755 14.373,-11.351c5.313,-6.344 7.779,-13.873 5.676,-22.715c-2.662,-11.195 -9.783,-21.152 -18.025,-30.811c-3.582,-4.198 -7.345,-8.379 -10.565,-12.821c-3.222,-4.446 -6.069,-9.094 -6.193,-14.816c-0.145,-6.725 4.662,-10.988 9.802,-14.796c3.078,-2.28 10.529,-6.383 14.18,-10.796c5.146,-6.217 6.568,-13.203 4.441,-20.177c-1.656,-5.432 -5.353,-10.792 -10.361,-15.449c-4.306,-4.005 -9.717,-7.529 -13.246,-10.389c-6.509,-5.275 -14.927,-11.967 -21.549,-19.755c-4.471,-5.257 -8.584,-10.84 -8.293,-17.186c0.182,-3.958 3.397,-6.65 6.453,-9.371c6.091,-5.423 13.528,-9.826 19.099,-13.881c11.083,-8.068 21.826,-17.622 20.944,-33.126c-0.882,-15.482 -10.204,-28.347 -22.054,-40.055c-4.98,-4.921 -10.342,-9.687 -14.805,-14.756c-3.764,-4.275 -7.36,-8.508 -6.575,-14.274c0.395,-2.9 3.059,-4.565 5.57,-6.491c5.745,-4.408 12.882,-8.045 19.191,-11.863c14.417,-8.723 24.329,-19.561 25.269,-32.303c0.541,-7.337 -2.777,-16.345 -10.296,-24.751c-9.807,-10.966 -27.62,-22.387 -34.569,-27.514c-0.698,-0.516 -1.784,-1.357 -2.843,-2.19c1.142,-0.854 2.564,-1.604 3.913,-2.511c6.356,-4.277 14.233,-7.921 21.358,-11.772c15.019,-8.118 26.341,-18.372 29.018,-30.103c1.709,-7.484 -1,-17.407 -9.931,-26.29c-5.686,-5.656 -14.409,-11.525 -21.718,-16.2c27.637,-3.239 70.206,-3.367 105.752,0.085c42.106,4.089 79.218,20.468 95.167,28.416c0.187,73.66 1.443,531.594 3.97,637.676l-0,0c-27.019,8.123 -81.476,13.079 -113.531,10.714c-23.629,-1.744 -58.56,-12.079 -79.464,-21.116l-1.952,-0.887Z" style="fill:#7e4021;"/><path d="M3174.16,75.144c22.305,-10.913 92.606,-18.876 131.756,-15.988c36.033,2.659 96.741,23.828 103.144,33.322c3.726,5.525 -4.456,11.485 -7.924,14.572c-6.634,5.904 -37.368,25.587 -35.996,33.99c1.404,8.602 14.324,14.4 20.557,18.72c15.888,11.014 47.251,31.139 44.974,54.072c-1.736,17.482 -24.52,25.667 -37.017,34.126c-5.481,3.71 -15.077,8.421 -13.177,16.408c5.203,21.878 34.675,36.225 35.231,61.944c0.27,12.502 -6.987,21.469 -16.544,28.549c-3.413,2.527 -14.273,7.232 -12.6,12.718c2.215,7.263 12.673,13.305 18.16,17.752c14.388,11.661 36.951,29.871 35.996,50.653c-0.775,16.868 -20.478,27.29 -32.392,35.963c-6.626,4.823 -14.64,9.434 -14.112,18.704c1.628,28.616 47.402,42.216 43.307,72.281c-3.256,23.909 -48.44,29.532 -49.922,49.634c-0.93,12.617 28.978,30.868 38.139,37.628c4.789,3.534 12.886,8.53 11.545,15.627c-4.141,21.923 -52.124,28.293 -56.638,48.069c-2.444,10.704 29.217,27.301 36.71,32.748c3.503,2.547 12.44,7.853 10.423,13.467c-3.938,10.965 -80.689,14.742 -139.095,9.069c-59.838,-5.811 -110.198,-34.948 -110.198,-34.948c-0,-0 -1.34,-575.877 -4.327,-659.08Z" style="fill:#a8ccf1;"/><path d="M3400.33,714.801c0.833,-0.604 1.723,-1.192 2.649,-1.776c6.59,-4.156 14.697,-7.872 22.014,-11.963c14.959,-8.363 26.216,-19.159 28.669,-32.15c1.46,-7.727 -0.645,-14.683 -5.186,-20.691c-3.463,-4.583 -8.863,-8.505 -12.84,-11.439c-5.199,-3.837 -17.518,-11.517 -26.308,-19.681c-1.188,-1.104 -2.572,-2.686 -3.646,-3.976c0.775,-0.729 1.694,-1.539 2.464,-2.092c5.743,-4.125 13.062,-7.812 19.696,-11.983c13.743,-8.641 24.258,-19.645 26.196,-33.87c2.353,-17.277 -5.488,-31.295 -17.417,-43.897c-6.082,-6.425 -13.262,-12.49 -19.021,-19.065c-3.06,-3.493 -5.924,-6.977 -6.602,-11.27c1.417,-1.131 5.05,-4.008 7.139,-5.529c7.891,-5.744 18.745,-12.356 26.456,-20.611c7.431,-7.954 12.282,-17.296 12.776,-28.061c0.549,-11.936 -3.81,-23.448 -11.155,-33.836c-8.57,-12.122 -21.354,-22.716 -30.996,-30.53c-1.629,-1.32 -3.675,-2.78 -5.824,-4.364c13.819,-10.328 23.369,-23.906 22.977,-42.067c-0.303,-14.001 -6.354,-25.75 -14.617,-36.444c-4.582,-5.93 -9.852,-11.517 -14.373,-17.27c-1.886,-2.4 -3.686,-4.781 -5.001,-7.315c1.613,-1.11 3.514,-2.415 4.617,-3.162c7.935,-5.371 19.703,-10.772 28.314,-18.123c8.809,-7.519 14.818,-16.801 15.945,-28.158c1.339,-13.482 -4.31,-26.659 -14.174,-38.227c-11.031,-12.939 -27.443,-23.946 -37.89,-31.188c-2.513,-1.742 -6.07,-3.726 -9.567,-6.018c8.635,-7.994 22.537,-16.937 26.592,-20.546c4.002,-3.562 10.941,-10.177 13.16,-16.511c2.289,-6.535 1.938,-13.25 -2.5,-19.829c-2.758,-4.091 -11.762,-10.923 -25.496,-16.861c-23.724,-10.257 -63.422,-21.784 -90.239,-23.763c-41.713,-3.078 -116.542,6.011 -140.307,17.638c-5.911,2.893 -9.567,8.993 -9.331,15.569c2.985,83.132 4.316,658.52 4.316,658.52c0.014,5.936 3.183,11.416 8.32,14.388c0,-0 53.435,30.944 116.934,37.111c48.9,4.749 110.079,2.82 134.708,-3.877c13.442,-3.655 19.885,-11.137 21.684,-16.147c2.336,-6.505 1.529,-12.986 -2.04,-19.022c-3.277,-5.539 -10.543,-10.852 -14.269,-13.56c-3.626,-2.636 -12.862,-7.871 -21.22,-13.788c-1.719,-1.216 -3.816,-2.982 -5.607,-4.566Zm-14.225,-617.021c-8.513,6.577 -24.956,18.327 -31.564,26.862c-5.486,7.086 -6.666,14.085 -5.85,19.083c0.936,5.733 3.788,11.113 8.237,15.804c5.455,5.752 14.181,10.398 19.274,13.929c7.354,5.098 18.344,12.234 27.177,20.82c5.658,5.499 11.382,11.109 10.707,17.907c-0.393,3.955 -4.132,6.094 -7.514,8.488c-7.378,5.219 -16.094,9.308 -22.26,13.483c-4.396,2.976 -10.524,6.755 -14.373,11.351c-5.314,6.344 -7.78,13.873 -5.677,22.715c2.663,11.195 9.783,21.152 18.026,30.811c3.581,4.197 7.344,8.379 10.564,12.821c3.222,4.446 6.07,9.093 6.193,14.816c0.145,6.725 -4.661,10.988 -9.802,14.796c-3.078,2.28 -10.528,6.383 -14.18,10.796c-5.146,6.217 -6.568,13.203 -4.441,20.177c1.657,5.432 5.354,10.792 10.361,15.449c4.307,4.005 9.717,7.529 13.247,10.389c6.509,5.275 14.926,11.967 21.549,19.755c4.47,5.257 8.584,10.84 8.292,17.186c-0.182,3.958 -3.397,6.65 -6.453,9.371c-6.09,5.423 -13.528,9.826 -19.099,13.881c-11.082,8.068 -21.826,17.622 -20.943,33.126c0.881,15.482 10.203,28.347 22.053,40.055c4.981,4.921 10.342,9.687 14.805,14.756c3.765,4.275 7.361,8.508 6.575,14.274c-0.395,2.9 -3.058,4.565 -5.57,6.491c-5.744,4.408 -12.881,8.045 -19.191,11.863c-14.416,8.723 -24.329,19.561 -25.268,32.303c-0.541,7.337 2.776,16.345 10.295,24.751c9.808,10.965 27.62,22.386 34.569,27.514c0.698,0.515 1.785,1.357 2.843,2.19c-1.141,0.854 -2.563,1.604 -3.912,2.511c-6.357,4.277 -14.233,7.921 -21.359,11.772c-15.019,8.118 -26.34,18.372 -29.018,30.103c-1.708,7.483 1,17.407 9.931,26.29c5.686,5.656 14.41,11.525 21.719,16.2c-27.637,3.239 -70.207,3.367 -105.752,-0.085c-42.107,-4.089 -79.219,-20.468 -95.167,-28.416c-0.188,-73.66 -1.443,-531.594 -3.97,-637.677l-0,0c27.018,-8.122 81.475,-13.078 113.53,-10.713c23.629,1.743 58.56,12.079 79.464,21.116l1.952,0.886Z" style="fill:#7e4021;"/></g></svg>