<?xml version="1.0" encoding="UTF-8" standalone="no"?><!DOCTYPE svg PUBLIC "-//W3C//DTD SVG 1.1//EN" "http://www.w3.org/Graphics/SVG/1.1/DTD/svg11.dtd"><svg width="100%" height="100%" viewBox="0 0 4377 4015" version="1.1" xmlns="http://www.w3.org/2000/svg" xmlns:xlink="http://www.w3.org/1999/xlink" xml:space="preserve" xmlns:serif="http://www.serif.com/" style="fill-rule:evenodd;clip-rule:evenodd;stroke-linejoin:round;stroke-miterlimit:2;"><g id="Coffee-Bean-Character-03" serif:id="Coffee Bean-Character-03"><path d="M1889.38,2486.3c2.617,98.063 -103.384,808.676 -98.686,964.68c2.56,85.006 -153.366,116.993 -182.015,8.168c-15.894,-60.378 77.394,-944.356 72.3,-1006.59c-10.326,-126.129 207.549,1.798 208.401,33.738Z" style="fill:#7e4021;"/><path d="M1906.05,2485.85c-0.104,-3.908 -1.253,-8.572 -4.066,-13.624c-3.575,-6.419 -10.69,-14.565 -20.727,-23.14c-28.768,-24.579 -83.199,-55.248 -128.208,-64.655c-30.883,-6.455 -57.69,-2.29 -73.376,14.158c-10.757,11.279 -17.461,28.881 -15.296,55.327c4.065,49.652 -54.881,623.813 -70.421,882.33c-4.062,67.584 -4.701,114.545 -1.385,127.139c20.17,76.619 93.842,94.288 149.115,74.192c38.238,-13.903 66.923,-45.7 65.676,-87.104c-4.697,-155.996 101.305,-866.566 98.688,-964.623Zm-33.292,2.619c1.383,104.422 -103.385,807.883 -98.714,963.007c0.801,26.606 -19.176,45.84 -43.749,54.774c-38.935,14.156 -91.28,2.621 -105.489,-51.351c-4.656,-17.687 1.01,-107.718 10.071,-226.78c21.727,-285.478 66.3,-733.215 62.722,-776.923c-1.141,-13.934 0.529,-23.659 6.196,-29.602c3.65,-3.827 8.805,-5.6 14.679,-6.404c8.23,-1.127 17.688,-0.235 27.755,1.869c39.83,8.325 87.918,35.62 113.376,57.37c5.831,4.982 11.749,12.269 13.153,14.04Z" style="fill:#7e4021;"/><path d="M2219.23,2486.3c-2.617,98.063 103.923,808.676 99.225,964.68c-2.559,85.006 153.366,116.993 182.015,8.168c15.895,-60.378 -77.933,-944.356 -72.839,-1006.59c10.326,-126.129 -207.549,1.798 -208.401,33.738Z" style="fill:#7e4021;"/><path d="M2202.57,2485.85c-2.616,98.057 103.925,808.627 99.227,964.623c-1.246,41.404 27.438,73.201 65.677,87.104c55.273,20.096 128.944,2.427 149.114,-74.192c3.316,-12.595 2.657,-59.56 -1.442,-127.148c-15.677,-258.514 -74.967,-832.67 -70.903,-882.321c2.165,-26.446 -4.539,-44.048 -15.295,-55.327c-15.687,-16.448 -42.494,-20.613 -73.377,-14.158c-45.009,9.407 -99.44,40.076 -128.208,64.655c-10.037,8.575 -17.152,16.721 -20.727,23.14c-2.813,5.052 -3.962,9.716 -4.066,13.624Zm33.292,2.619c1.406,-1.773 7.323,-9.058 13.153,-14.04c25.458,-21.75 73.546,-49.045 113.376,-57.37c10.067,-2.104 19.526,-2.996 27.755,-1.869c5.875,0.804 11.029,2.577 14.679,6.404c5.668,5.943 7.337,15.668 6.196,29.602c-3.578,43.708 41.259,491.451 63.146,776.932c9.127,119.057 14.842,209.085 10.186,226.771c-11.787,44.776 -49.864,60.426 -84.626,56.295c-33.672,-4.001 -65.632,-25.838 -64.611,-59.718c4.671,-155.129 -100.637,-858.63 -99.254,-963.007Z" style="fill:#7e4021;"/><path d="M1605.48,3444.89c0,-11.251 -46.989,-23.951 -86.065,13.305c-24.233,23.104 -13.12,50.518 -38.471,76.77c-73.635,76.249 -132.28,196.37 -107.662,304.982c21.341,94.151 211.144,149.8 290.723,156.146c50.292,4.01 98.87,-1.928 147.708,-13.904c77.5,-19.003 159.654,-52.704 217.107,-110.157c52.837,-52.837 3.626,-203.97 -29.97,-258.118c-38.739,-62.439 -97.376,-70.55 -89.401,-113.482c3.738,-20.123 -20.646,-52.315 -42.697,-60.577c-36.719,-13.758 -57.681,-0.365 -64.298,-1.179c-14.627,-1.801 0.58,55.946 -56.702,81.846c-63.383,28.658 -140.272,-19.752 -140.272,-75.632Z" style="fill:#fff;"/><path d="M1802.5,3421.96c-9.506,-0.517 -17.177,4.034 -21.701,16.275c-1.781,4.818 -3.075,12.21 -5.222,20.845c-3.678,14.788 -10.956,34.619 -36.699,46.258c-31.962,14.452 -67.96,5.258 -91.685,-14.291c-14.812,-12.206 -25.053,-28.561 -25.053,-46.154c0,-7.894 -6.444,-19.734 -22.759,-24.992c-19.82,-6.388 -58.166,-5.522 -91.474,26.234c-12.178,11.611 -17.474,23.961 -21.215,36.865c-3.784,13.047 -4.861,27.05 -17.744,40.39c-77.235,79.977 -137.749,206.322 -111.927,320.244c9.433,41.618 47.533,77.474 96.829,104.713c69.137,38.202 159.488,60.429 208.823,64.362c52.093,4.154 102.416,-1.925 153.003,-14.33c80.352,-19.703 165.354,-54.991 224.922,-114.559c24.115,-24.115 31.304,-65.78 26.751,-111.524c-6.253,-62.831 -33.283,-133.222 -54.343,-167.166c-20.549,-33.118 -46.172,-52.024 -65.803,-68.148c-13.037,-10.709 -24.184,-18.38 -21.375,-33.503c2.1,-11.302 -1.222,-25.533 -9.021,-39.023c-10.261,-17.747 -27.92,-34.1 -44.214,-40.205c-35.168,-13.177 -66.135,-3.619 -70.093,-2.291Zm-213.36,30.03c2.248,24.508 16.028,47.619 36.856,64.782c32.732,26.972 82.517,38.878 126.615,18.939c33.163,-14.994 46.191,-38.831 52.714,-59.334c2.34,-7.355 4.557,-16.726 5.772,-22.153l1.231,-0.296c8.23,-2.131 24.223,-7.585 48.569,1.537c10.169,3.81 20.649,14.599 27.053,25.676c3.317,5.737 5.998,11.443 5.106,16.25c-4.354,23.437 4.707,39.728 21.888,55.745c18.079,16.853 47.484,33.702 69.737,69.568c19.255,31.033 43.782,95.449 49.499,152.893c3.429,34.451 1.009,66.491 -17.152,84.653c-55.339,55.338 -134.644,87.451 -209.291,105.755c-47.09,11.547 -93.922,17.343 -142.414,13.477c-46.16,-3.681 -130.665,-24.568 -195.352,-60.311c-39.928,-22.062 -72.801,-49.197 -80.441,-82.905c-23.416,-103.303 33.36,-217.198 103.396,-289.721c15.091,-15.626 19.715,-31.405 23.786,-46.909c2.676,-10.191 4.715,-20.335 14.197,-29.375c15.105,-14.402 31.574,-19.768 44.726,-20.21c4.623,-0.155 10.252,1.086 13.505,1.939Zm212.088,3.303c-0.268,-0.014 -0.541,-0.039 -0.817,-0.073l0.817,0.073Z" style="fill:#7e4021;"/><path d="M2503.68,3444.89c0,-11.251 46.989,-23.951 86.065,13.305c24.234,23.104 13.12,50.518 38.471,76.77c73.635,76.249 132.281,196.37 107.662,304.982c-21.341,94.151 -211.143,149.8 -290.723,156.146c-50.292,4.01 -98.87,-1.928 -147.708,-13.904c-77.499,-19.003 -159.653,-52.704 -217.106,-110.157c-52.837,-52.837 -3.626,-203.97 29.969,-258.118c38.74,-62.439 97.377,-70.55 89.402,-113.482c-3.739,-20.123 20.645,-52.315 42.697,-60.577c36.718,-13.758 57.68,-0.365 64.297,-1.179c14.628,-1.801 -0.58,55.946 56.703,81.846c63.383,28.658 140.271,-19.752 140.271,-75.632Z" style="fill:#fff;"/><path d="M2306.65,3421.96c-3.958,-1.328 -34.926,-10.886 -70.093,2.291c-16.294,6.105 -33.953,22.458 -44.214,40.205c-7.8,13.49 -11.121,27.721 -9.022,39.023c2.81,15.123 -8.338,22.794 -21.375,33.503c-19.63,16.124 -45.254,35.03 -65.802,68.148c-21.06,33.944 -48.091,104.335 -54.344,167.166c-4.553,45.744 2.637,87.409 26.752,111.524c59.568,59.568 144.57,94.856 224.922,114.559c50.586,12.405 100.91,18.484 153.002,14.33c49.336,-3.933 139.686,-26.16 208.824,-64.362c49.295,-27.239 87.395,-63.095 96.828,-104.713c25.823,-113.922 -34.692,-240.267 -111.927,-320.244c-12.882,-13.34 -13.96,-27.343 -17.743,-40.39c-3.742,-12.904 -9.038,-25.254 -21.216,-36.865c-33.308,-31.756 -71.654,-32.622 -91.474,-26.234c-16.314,5.258 -22.759,17.098 -22.759,24.992c0,17.593 -10.24,33.948 -25.053,46.154c-23.725,19.549 -59.723,28.743 -91.685,14.291c-25.743,-11.639 -33.021,-31.47 -36.698,-46.258c-2.147,-8.635 -3.442,-16.027 -5.223,-20.845c-4.524,-12.241 -12.194,-16.792 -21.7,-16.275Zm-8.597,32.264c1.214,5.427 3.432,14.798 5.771,22.153c6.524,20.503 19.551,44.34 52.714,59.334c44.098,19.939 93.883,8.033 126.616,-18.939c20.827,-17.163 34.608,-40.274 36.855,-64.782c3.253,-0.853 8.883,-2.094 13.506,-1.939c13.152,0.442 29.62,5.808 44.726,20.21c9.481,9.04 11.52,19.184 14.196,29.375c4.072,15.504 8.695,31.283 23.786,46.909c70.036,72.523 126.812,186.418 103.397,289.721c-7.641,33.708 -40.514,60.843 -80.441,82.905c-64.687,35.743 -149.193,56.63 -195.352,60.311c-48.492,3.866 -95.325,-1.93 -142.415,-13.477c-74.646,-18.304 -153.952,-50.417 -209.29,-105.755c-18.161,-18.162 -20.581,-50.202 -17.152,-84.653c5.717,-57.444 30.244,-121.86 49.498,-152.893c22.253,-35.866 51.658,-52.715 69.737,-69.568c17.182,-16.017 26.243,-32.308 21.889,-55.745c-0.893,-4.807 1.789,-10.513 5.106,-16.25c6.404,-11.077 16.883,-21.866 27.052,-25.676c24.346,-9.122 40.34,-3.668 48.569,-1.537l1.232,0.296Zm9.868,1.069l0.818,-0.073c-0.277,0.034 -0.549,0.059 -0.818,0.073Z" style="fill:#7e4021;"/><path d="M1512.11,3513.64c-2.125,-8.097 -10.056,-13.48 -18.532,-12.237c-4.239,0.622 -19.04,6.583 -13.178,22.898c1.773,4.935 15.765,28.989 16.767,30.431c0.706,1.015 1.408,2.032 2.135,3.032c0.766,1.051 1.554,2.085 2.345,3.118c21.458,28.014 49.881,45.162 83.202,55.893c8.756,2.819 18.153,-2 20.973,-10.756c2.82,-8.756 -2,-18.154 -10.755,-20.973c-26.714,-8.603 -49.754,-21.974 -66.957,-44.433c-0.627,-0.82 -1.255,-1.639 -1.863,-2.473c-0.584,-0.802 -1.145,-1.623 -1.712,-2.438c-0.675,-0.971 -10.464,-18.54 -12.425,-22.062Zm-2.33,13.616c-2.532,3.728 -6.557,6.423 -11.363,7.128c4.849,-0.712 8.697,-3.009 11.363,-7.128Z" style="fill:#7e4021;"/><path d="M2597.05,3513.64c-1.96,3.522 -11.749,21.091 -12.424,22.062c-0.567,0.815 -1.128,1.636 -1.713,2.438c-0.607,0.834 -1.235,1.653 -1.863,2.473c-17.203,22.459 -40.242,35.83 -66.956,44.433c-8.756,2.819 -13.575,12.217 -10.756,20.973c2.82,8.756 12.218,13.575 20.973,10.756c33.321,-10.731 61.744,-27.879 83.202,-55.893c0.791,-1.033 1.58,-2.067 2.345,-3.118c0.728,-1 1.429,-2.017 2.135,-3.032c1.003,-1.442 14.994,-25.496 16.768,-30.431c5.862,-16.315 -8.939,-22.276 -13.179,-22.898c-8.476,-1.243 -16.407,4.14 -18.532,12.237Zm2.33,13.616c2.666,4.119 6.514,6.416 11.363,7.128c-4.805,-0.705 -8.831,-3.4 -11.363,-7.128Z" style="fill:#7e4021;"/><path d="M1833.49,3590.84c2.682,-1.659 5.501,-3.082 8.254,-4.619c7.077,-3.952 13.839,-8.388 20.647,-12.776c21.758,-14.022 43.101,-28.283 58.692,-49.406c5.463,-7.401 3.889,-17.845 -3.512,-23.307c-7.401,-5.463 -17.844,-3.889 -23.307,3.512c-13.153,17.82 -31.574,29.353 -49.929,41.182c-6.218,4.007 -12.378,8.082 -18.841,11.691c-3.954,2.208 -7.981,4.288 -11.761,6.794c-5.833,3.867 -6.555,7.771 -7.045,9.436c-0.931,3.165 -0.816,5.925 -0.292,8.313c0.889,4.05 3.074,7.366 6.288,9.783c2.707,2.034 6.721,3.133 8.584,3.303c5.528,0.506 9.499,-1.488 12.222,-3.906Zm3.969,-4.955c-0.625,1.102 -1.563,2.512 -2.862,3.883c1.54,-1.446 2.361,-2.806 2.862,-3.883Zm-14.965,-24.399c-11.908,0.083 -15.225,10.589 -15.37,10.992l-0,-0c2.416,-6.678 8.667,-10.871 15.37,-10.992Zm15.091,8.99l0.16,0.322l-0.06,-0.132l-0.1,-0.19Zm-1.641,-2.56c0.57,0.732 1.076,1.509 1.515,2.323c-0.434,-0.824 -0.939,-1.6 -1.515,-2.323Zm-0.394,-0.488l0.1,0.118l-0.049,-0.062l-0.051,-0.056Zm-12.207,-5.936l0.026,0.001l-0.005,-0.001l-0.021,0Z" style="fill:#7e4021;"/><path d="M2274.77,3590.3c2.499,2.493 6.365,4.704 12.157,4.506c0.937,-0.032 5.645,-0.723 8.802,-2.84c4.437,-2.975 7.21,-7.457 7.405,-13.339c0.067,-2.012 -0.184,-4.329 -1.248,-6.918c-0.605,-1.473 -1.652,-4.605 -6.469,-7.798c-3.78,-2.506 -7.806,-4.586 -11.76,-6.794c-6.463,-3.609 -12.623,-7.684 -18.841,-11.691c-18.355,-11.829 -36.777,-23.362 -49.93,-41.182c-5.462,-7.401 -15.906,-8.975 -23.307,-3.512c-7.401,5.462 -8.975,15.906 -3.512,23.307c15.591,21.123 36.935,35.384 58.692,49.406c6.809,4.388 13.57,8.824 20.648,12.776c2.45,1.368 4.951,2.646 7.363,4.079Zm-3.245,-4.498l0.45,0.836l0.332,0.54c-0.318,-0.478 -0.573,-0.939 -0.782,-1.376Zm-0.842,-1.981l-0,-0l-0,-0Zm15.78,-22.34c3.136,0.021 6.18,0.934 8.785,2.581c-2.255,-1.509 -5.149,-2.607 -8.785,-2.581Zm-0.644,0.011l0.533,-0.011l-0.346,-0.001l-0.187,0.012Z" style="fill:#7e4021;"/><path d="M1910.68,3705.05c-165.465,-141.055 -337.129,-18.315 -381.158,21.156c-6.849,6.141 -7.424,16.686 -1.284,23.536c6.14,6.849 16.686,7.424 23.535,1.284c38.973,-34.939 190.816,-145.468 337.282,-20.609c7,5.968 17.528,5.129 23.496,-1.871c5.967,-7 5.129,-17.528 -1.871,-23.496Z" style="fill:#7e4021;"/><path d="M2220.09,3730.42c146.465,-124.859 298.308,-14.33 337.281,20.609c6.85,6.14 17.395,5.565 23.536,-1.284c6.14,-6.85 5.564,-17.395 -1.285,-23.536c-44.029,-39.471 -215.693,-162.211 -381.157,-21.156c-7,5.968 -7.839,16.496 -1.871,23.496c5.967,7 16.496,7.839 23.496,1.871Z" style="fill:#7e4021;"/><path d="M1532.66,2509.19c218.69,55.443 272.644,9.062 437.734,21.276c86.094,6.37 124.931,45.466 288.465,64.735c409.985,48.309 763.888,-400.199 907.495,-744.793c252.673,-606.306 -49.053,-1601.79 -523.956,-1774.39c-182.66,-66.387 -278.637,-2.226 -395.632,-8.832c-149.123,-8.42 -219.795,-96.414 -496.231,-17.305c-370.248,105.955 -641.115,595.958 -712.166,946.32c-117.332,578.579 53.688,1401.29 494.291,1512.99Z" style="fill:#d9905f;"/><path d="M1528.57,2525.34c220.129,55.807 274.422,9.447 440.599,21.741c85.885,6.354 124.608,45.444 287.745,64.666c168.223,19.822 327.395,-41.408 467.085,-145.23c206.662,-153.597 370.569,-400.523 457.744,-609.704c153.18,-367.566 105.256,-876.72 -61.681,-1262.88c-112.217,-259.579 -278.435,-463.245 -471.966,-533.584c-113.074,-41.096 -193.941,-33.821 -266.624,-22.803c-45.794,6.941 -88.13,15.571 -133.762,12.995c-58.515,-3.304 -104.685,-19.255 -156.418,-32.051c-81.117,-20.065 -175.252,-33.312 -345.338,15.362c-151.127,43.249 -286.266,148.868 -398.381,283.323c-166.618,199.817 -282.433,463.177 -325.533,675.709c-71.026,350.238 -37.207,789.135 97.139,1108.57c91.06,216.511 228.609,378.059 409.39,423.891l0.001,-0Zm8.191,-32.311c-171.703,-43.531 -300.368,-198.865 -386.856,-404.503c-131.974,-313.792 -164.969,-744.961 -95.197,-1089.02c42.162,-207.904 155.476,-465.52 318.466,-660.987c107.623,-129.067 236.88,-231.107 381.951,-272.623c161.637,-46.256 251.076,-34.119 328.163,-15.051c53.737,13.292 101.761,29.541 162.543,32.973c47.965,2.708 92.5,-6.022 140.636,-13.318c68.212,-10.34 144.125,-17.394 250.243,21.174c186.391,67.744 344.678,265.481 452.755,515.483c163.501,378.212 211.537,876.83 61.509,1236.83c-85.153,204.331 -244.988,445.737 -446.859,595.773c-132.666,98.601 -283.536,157.704 -443.301,138.879c-163.931,-19.316 -202.882,-58.419 -289.185,-64.804c-164.004,-12.133 -217.618,34.267 -434.868,-20.81l-0,-0Z" style="fill:#7e4021;"/><path d="M2250.57,2496.74c7.625,2.058 15.582,2.999 23.398,4.027c23.672,3.115 47.938,5.852 71.838,4.972c66.933,-2.467 134.115,-18.502 191.755,-50.722c8.029,-4.489 10.903,-14.652 6.415,-22.681c-4.488,-8.029 -14.651,-10.904 -22.68,-6.415c-53.102,29.684 -115.054,44.234 -176.718,46.507c-22.047,0.812 -44.424,-1.836 -66.262,-4.709c-6.361,-0.837 -12.856,-1.486 -19.063,-3.161c-8.881,-2.396 -18.036,2.868 -20.433,11.749c-2.396,8.881 2.869,18.037 11.75,20.433Z" style="fill:#7e4021;"/><path d="M2611.47,2416.97c43.437,-23.524 107.574,-78.526 118.536,-87.901c6.991,-5.979 7.812,-16.508 1.834,-23.499c-5.979,-6.991 -16.509,-7.812 -23.499,-1.833c-10.441,8.929 -71.374,61.517 -112.744,83.922c-8.089,4.38 -11.099,14.504 -6.719,22.592c4.381,8.089 14.504,11.099 22.592,6.719Z" style="fill:#7e4021;"/><path d="M589.036,1768.08c-107.402,-10.687 -200.746,43.797 -266.197,46.447c-67.291,2.723 -130.659,-25.702 -198.17,-15.054c-22.17,3.497 -50.904,9.053 -59.389,32.393c-18.137,57.101 55.715,64.131 52.843,65.808c-33.293,-2.236 -101.602,-3.368 -100.868,72.151c0.568,58.413 81.054,51.01 81.065,52.971c-31.4,15.092 -92.685,57.994 -52.845,127.29c26.307,45.758 68.17,19.96 94.539,4.274c-41.345,35.799 -70.337,101.672 -0.891,134.936c95.121,45.56 212.205,-142.44 305.217,-112.148c90.418,29.447 76.866,246.292 202.833,201.63c90.286,-32.01 -20.039,-182.3 -17.621,-259.495c3.363,-107.312 113.221,-141.26 75.353,-255.766c-13.267,-40.116 -44.786,-88.365 -115.869,-95.437Z" style="fill:#fff;"/><path d="M59.478,1885.38c-15.016,4.295 -29.022,11.893 -39.673,24.245c-11.539,13.38 -19.486,32.541 -19.216,60.357c0.341,34.999 21.748,52.615 45.723,61.245c2.027,0.73 4.072,1.387 6.119,1.978c-30.049,26.345 -54.02,68.454 -21.405,125.183c16.519,28.732 37.874,36.089 59.204,33.816c-2.078,4.456 -3.856,8.973 -5.289,13.512c-5.59,17.71 -6.045,35.791 0.377,52.503c6.696,17.428 20.957,33.818 46.606,46.103c28.101,13.46 57.849,10.49 88.345,-2.207c26.847,-11.178 54.451,-30.072 81.909,-49.588c25.65,-18.23 51.185,-37.003 76.008,-49.299c21.234,-10.519 41.662,-16.534 60.993,-10.238c18.844,6.137 31.588,22.734 42.769,42.551c13.182,23.364 23.665,51.37 35.292,77.076c18.865,41.709 41.866,76.786 77.583,86.23c16.177,4.278 35.175,3.699 57.92,-4.365c44.947,-15.936 52.838,-54.258 42.849,-102.057c-7.342,-35.13 -24.503,-75.789 -36.814,-112.837c-7.373,-22.186 -13.097,-42.875 -12.567,-59.788c1.572,-50.183 28.869,-82.86 50.521,-116.73c25.653,-40.127 44.976,-81.353 23.996,-144.792c-14.871,-44.968 -50.361,-98.86 -130.042,-106.788c-55.913,-5.563 -108.192,5.625 -154.985,18.761c-43.503,12.212 -81.859,26.335 -113.536,27.618c-32.493,1.315 -64.023,-5.038 -95.595,-10.287c-34.446,-5.726 -68.931,-10.186 -104.498,-4.577c-15.159,2.391 -32.917,5.948 -46.862,13.9c-11.579,6.603 -20.776,16.01 -25.594,29.262c-0.078,0.214 -0.151,0.431 -0.221,0.649c-5.302,16.694 -4.36,30.232 -0.346,41.212c2.419,6.617 6.045,12.377 10.429,17.352Zm527.908,-100.721c62.484,6.218 90.033,48.822 101.695,84.086c16.889,51.069 0.217,84.068 -20.433,116.371c-24.651,38.559 -53.964,76.509 -55.754,133.64c-0.631,20.141 5.472,44.925 14.251,71.343c11.916,35.857 28.713,75.145 35.818,109.145c6.074,29.063 5.969,54.131 -21.359,63.821c-15.047,5.334 -27.558,6.386 -38.26,3.556c-12.203,-3.227 -21.706,-11.421 -30.015,-22.033c-9.921,-12.671 -18.021,-28.691 -25.718,-45.708c-14.59,-32.257 -27.692,-67.866 -45.75,-94.521c-13.933,-20.565 -30.85,-36.059 -52.359,-43.064c-22.152,-7.214 -45.49,-4.57 -69.497,4.706c-31.379,12.126 -64.271,35.997 -97.138,59.356c-25.329,18.003 -50.645,35.674 -75.411,45.985c-21.12,8.794 -41.671,12.239 -61.133,2.917c-16.023,-7.674 -25.706,-17.108 -29.89,-27.995c-4.785,-12.454 -2.251,-26.132 3.595,-39.109c6.793,-15.077 18.219,-29.223 30.896,-40.2c6.527,-5.651 7.658,-15.352 2.605,-22.353c-5.052,-7.001 -14.615,-8.985 -22.035,-4.571c-9.576,5.696 -21.334,12.997 -33.607,16.886c-6.824,2.162 -13.811,3.365 -20.443,1.31c-6.543,-2.026 -12.28,-7.338 -17.52,-16.453c-32.817,-57.081 19.751,-91.53 45.616,-103.961c5.804,-2.79 9.482,-8.674 9.447,-15.114c-0.012,-2.114 -2.326,-16.024 -17.96,-16.929c-5.828,-0.338 -23.344,-0.118 -39.426,-5.907c-12.04,-4.333 -23.509,-12.629 -23.68,-30.205c-0.17,-17.499 3.868,-29.847 11.127,-38.265c8.373,-9.709 20.508,-13.922 32.55,-16.004c14.33,-2.478 28.819,-1.802 39.408,-1.091c3.325,0.223 6.641,-0.555 9.519,-2.236c6.34,-3.701 7.918,-8.877 8.282,-13.036c0.323,-3.683 -0.366,-7.747 -3.454,-11.732c-0.897,-1.157 -3.642,-4.5 -9.768,-6.314c-3.484,-1.032 -13.967,-3.085 -24.307,-8.273c-6.803,-3.413 -14.004,-8.144 -16.922,-16.125c-1.889,-5.166 -1.731,-11.501 0.694,-19.31c2.67,-6.983 8.729,-10.875 15.385,-13.741c9.74,-4.195 21.029,-6.054 30.831,-7.6c31.945,-5.038 62.899,-0.61 93.837,4.533c33.813,5.621 67.612,12.119 102.41,10.711c27.335,-1.107 59.383,-10.641 95.113,-21.247c49.472,-14.686 106.652,-31.448 168.759,-25.269l0.001,0Z" style="fill:#7e4021;"/><path d="M399.042,1930.98l0.821,-0.181c14.137,-2.927 77.232,-12.666 86.538,-14.964c8.93,-2.204 14.391,-11.244 12.186,-20.175c-2.204,-8.93 -11.244,-14.391 -20.175,-12.187c-9.172,2.265 -71.374,11.8 -85.308,14.685c-4.804,0.995 -7.534,2.475 -8.209,2.899c-7.795,4.885 -10.157,15.178 -5.272,22.973c4.171,6.655 12.286,9.35 19.419,6.95Z" style="fill:#7e4021;"/><path d="M436.427,2001.94c8.409,1.333 18.37,-0.029 28.49,-3.027c11.431,-3.387 23.215,-8.85 32.024,-11.714c8.748,-2.843 13.541,-12.255 10.697,-21.002c-2.844,-8.748 -12.255,-13.542 -21.003,-10.698c-7.325,2.381 -16.711,6.568 -26.236,9.857c-6.63,2.289 -13.254,4.534 -18.753,3.662c-9.085,-1.44 -17.63,4.766 -19.07,13.851c-1.441,9.085 4.766,17.631 13.851,19.071Z" style="fill:#7e4021;"/><path d="M136.201,2176.91c118.155,-83.141 171.738,-72.765 248.915,-108.345c8.354,-3.851 12.009,-13.76 8.158,-22.113c-3.851,-8.354 -13.76,-12.009 -22.114,-8.158c-78.88,36.365 -133.377,26.379 -254.141,111.355c-7.523,5.293 -9.333,15.699 -4.039,23.221c5.293,7.523 15.698,9.333 23.221,4.04Z" style="fill:#7e4021;"/><path d="M72.923,2059.18c40.852,-29.989 86.067,-37.598 130.519,-43.057c49.155,-6.037 97.53,-9.658 139.984,-31.345c8.191,-4.185 11.445,-14.233 7.26,-22.424c-4.184,-8.192 -14.232,-11.445 -22.424,-7.261c-39.029,19.938 -83.693,22.396 -128.883,27.945c-49.894,6.128 -100.328,15.611 -146.181,49.272c-7.415,5.443 -9.016,15.882 -3.573,23.297c5.443,7.416 15.883,9.016 23.298,3.573Z" style="fill:#7e4021;"/><path d="M108.658,1912.38c21.914,4.197 42.479,7.823 60.023,10.404c43.123,6.345 85.217,4.4 127.574,-5.831c8.941,-2.16 14.447,-11.173 12.287,-20.114c-2.159,-8.941 -11.172,-14.447 -20.114,-12.288c-38.147,9.215 -76.058,10.969 -114.896,5.255c-17.129,-2.52 -37.207,-6.066 -58.603,-10.164c-9.034,-1.731 -17.774,4.199 -19.504,13.234c-1.731,9.034 4.199,17.774 13.233,19.504Z" style="fill:#7e4021;"/><path d="M631.905,1735.32c-21.949,28.723 -21.885,135.852 66.97,206.927c20.171,16.134 48.682,17.772 64.949,-0.115c19.138,-21.044 20.398,-67.78 7.116,-121.225c-14.632,-58.874 -90.221,-149.465 -139.035,-85.587Z" style="fill:#fff;"/><path d="M618.662,1725.2c-8.03,10.509 -14.418,29.405 -15.417,53.355c-2.071,49.636 17.849,122.818 85.22,176.707c27.239,21.789 65.721,22.24 87.689,-1.917c9.576,-10.529 16.088,-25.99 18.775,-45.284c3.461,-24.854 0.746,-56.726 -7.815,-91.174c-9.739,-39.188 -44.159,-90.797 -81.565,-110.704c-14.725,-7.837 -29.966,-11.072 -44.642,-8.573c-14.773,2.515 -29.371,10.743 -42.245,27.59Zm26.486,20.24c6.654,-8.708 13.719,-13.67 21.354,-14.97c12.492,-2.127 25.198,4.671 37.164,14.494c24.159,19.831 44.511,53.454 51.099,79.963c7.378,29.687 10.132,57.118 7.149,78.537c-1.609,11.557 -4.684,21.147 -10.42,27.454c-10.58,11.634 -29.089,8.807 -42.208,-1.686c-49.003,-39.197 -68.776,-90.242 -72.276,-130.575c-2.077,-23.938 0.953,-43.816 8.138,-53.217l-0,-0Z" style="fill:#7e4021;"/><path d="M1057.63,1454.1c-41.272,51.116 -98.507,117.604 -149.408,158.288c-43.981,35.153 -94.833,70.091 -141.076,102.234c-22.837,15.873 -58.303,29.678 -76.959,50.745c-28.907,32.644 -5.184,111.508 44.305,117.541c11.955,1.458 36.188,-8.161 41.308,-10.01c149.589,-54.003 282.08,-188.933 360.326,-264.402" style="fill:#d9905f;"/><path d="M1044.66,1443.63c-40.586,50.268 -96.79,115.73 -146.846,155.739c-43.7,34.928 -94.235,69.63 -140.183,101.568c-23.809,16.549 -60.472,31.415 -79.923,53.38c-17.96,20.282 -21.084,54.748 -10.518,85.254c10.613,30.641 34.401,56.116 65.283,59.881c14.114,1.721 42.94,-8.695 48.984,-10.877c151.913,-54.843 286.776,-191.441 366.237,-268.083c6.621,-6.385 6.811,-16.945 0.426,-23.566c-6.386,-6.621 -16.946,-6.811 -23.567,-0.426c-77.03,74.297 -207.149,207.557 -354.415,260.722c-2.881,1.04 -12.209,4.732 -21.64,7.202c-4.428,1.16 -8.831,2.325 -11.991,1.94c-18.617,-2.27 -31.422,-19.231 -37.819,-37.702c-6.446,-18.608 -6.98,-39.875 3.975,-52.246c17.862,-20.17 52.129,-32.911 73.993,-48.109c46.54,-32.348 97.707,-67.522 141.97,-102.9c51.745,-41.359 110.013,-108.872 151.969,-160.837c5.779,-7.157 4.66,-17.659 -2.497,-23.437c-7.157,-5.779 -17.659,-4.66 -23.438,2.497Z" style="fill:#7e4021;"/><g id="Legs-05-Standing"></g><path d="M2033.43,1452.02c-9.93,65.312 4.088,118.413 25.804,150.026c17.276,25.15 39.901,37.399 60.879,36.261c32.675,-1.772 58.048,-20.071 72.392,-55.572c12.326,-30.507 16.156,-75.248 7.927,-133.832c-1.28,-9.11 -9.714,-15.466 -18.823,-14.187c-9.11,1.28 -15.466,9.714 -14.187,18.823c7.173,51.063 4.921,90.118 -5.823,116.709c-8.728,21.6 -23.41,33.697 -43.291,34.775c-11.374,0.617 -22.232,-8.215 -31.598,-21.85c-18.227,-26.534 -28.659,-71.324 -20.325,-126.142c1.383,-9.094 -4.878,-17.6 -13.972,-18.983c-9.094,-1.382 -17.6,4.878 -18.983,13.972Z" style="fill:#7e4021;"/><path d="M1308.34,1214.71c-3.175,-18.962 -4.826,-38.415 -4.826,-58.25c0,-193.514 157.109,-350.622 350.623,-350.622c193.514,-0 350.623,157.108 350.623,350.622c-0,180.82 -137.173,329.854 -313.028,348.627c2.347,-14.358 3.567,-29.092 3.567,-44.11c0,-150.022 -121.799,-271.822 -271.822,-271.822c-41.151,0 -80.179,9.164 -115.137,25.555Z" style="fill:#fff;"/><path d="M2982.73,1214.71c3.175,-18.962 4.826,-38.415 4.826,-58.25c0,-193.514 -157.109,-350.622 -350.623,-350.622c-193.513,-0 -350.622,157.108 -350.622,350.622c-0,180.82 137.172,329.854 313.028,348.627c-2.347,-14.358 -3.568,-29.092 -3.568,-44.11c0,-150.022 121.799,-271.822 271.822,-271.822c41.151,0 80.179,9.164 115.137,25.555Z" style="fill:#fff;"/><path d="M1290.21,1206.29c-16.366,9.644 -32.984,22.483 -46.448,39.522c-5.703,7.218 -4.473,17.707 2.744,23.41c7.218,5.703 17.708,4.473 23.41,-2.744c17.546,-22.206 41.875,-35.356 61.295,-43.435c11.892,-4.621 24.216,-8.375 36.895,-11.184c17.829,-3.951 36.36,-6.033 55.373,-6.033c70.412,-0 134.199,28.585 180.385,74.771c46.185,46.185 74.771,109.973 74.771,180.384c-0,5.875 -0.199,11.703 -0.59,17.48c-0.078,0.413 -0.141,0.832 -0.188,1.256c-1.589,14.298 -7.448,26.157 -15.471,37.787c-2.698,3.911 -5.531,7.763 -8.577,11.412c-5.896,7.06 -4.95,17.579 2.111,23.475c7.061,5.896 17.58,4.949 23.476,-2.111c3.698,-4.431 7.152,-9.099 10.428,-13.848c3.494,-5.065 6.648,-10.179 9.404,-15.426c90.211,-11.065 170.353,-54.88 228.143,-119.187c58.466,-65.06 94.057,-151.084 94.057,-245.355c0,-101.356 -41.141,-193.18 -107.625,-259.664c-66.483,-66.483 -158.307,-107.625 -259.664,-107.625c-101.357,-0 -193.181,41.142 -259.664,107.625c-66.484,66.484 -107.625,158.308 -107.625,259.664c-0,10.303 0.425,20.507 1.26,30.599c0.534,6.456 1.235,12.866 2.1,19.227Zm402.957,152.103c12.146,31.875 18.801,66.461 18.801,102.588c-0,7.901 -0.319,15.728 -0.943,23.468c-0.032,0.386 -0.063,0.771 -0.096,1.156c75.57,-12.964 142.498,-51.372 191.649,-106.066c53.156,-59.152 85.517,-137.364 85.517,-223.075c-0,-92.157 -37.413,-175.644 -97.862,-236.094c-60.449,-60.449 -143.937,-97.862 -236.094,-97.862c-92.157,0 -175.645,37.413 -236.094,97.862c-60.449,60.45 -97.862,143.937 -97.862,236.094c-0,9.378 0.387,18.666 1.147,27.852c0.18,2.176 0.381,4.347 0.602,6.512l0.019,-0.007c0.627,-0.251 1.26,-0.461 1.897,-0.631c11.993,-4.42 24.363,-8.065 37.047,-10.876c20.151,-4.465 41.095,-6.821 62.584,-6.821c7.539,-0 15.011,0.289 22.402,0.858c-1.316,-15.27 -2.12,-35.946 0.913,-51.901c2.547,-13.395 8.141,-23.904 15.631,-29.666c5.753,-4.425 16.898,-7.498 30.677,-7.899c13.488,-0.392 30.157,1.01 43.513,1.699c2.028,0.104 4.237,0.15 6.32,0.16c-0.692,-2.799 -1.708,-5.747 -2.87,-8.808c-4.449,-11.725 -10.849,-24.681 -14.8,-37.159c-7.406,-23.388 -6.391,-45.169 13.553,-60.653c106.957,-83.038 268.218,-49.735 334.778,74.904c41.108,76.977 39.546,192.169 -55.167,266.301c-44.151,34.557 -94.745,40.937 -125.262,38.064Z" style="fill:#7e4021;"/><path d="M2591.85,1521c2.756,5.247 5.91,10.361 9.404,15.426c3.276,4.749 6.73,9.417 10.429,13.848c5.895,7.06 16.414,8.007 23.475,2.111c7.061,-5.896 8.007,-16.415 2.112,-23.475c-3.046,-3.649 -5.88,-7.501 -8.578,-11.412c-8.023,-11.63 -13.882,-23.489 -15.471,-37.787c-0.047,-0.424 -0.109,-0.843 -0.187,-1.256c-0.392,-5.777 -0.59,-11.605 -0.59,-17.48c-0,-70.411 28.585,-134.199 74.771,-180.384c46.185,-46.186 109.973,-74.771 180.384,-74.771c19.013,-0 37.544,2.082 55.374,6.033c12.678,2.809 25.003,6.563 36.895,11.184c19.419,8.079 43.748,21.229 61.294,43.435c5.703,7.217 16.193,8.447 23.41,2.744c7.217,-5.703 8.447,-16.192 2.744,-23.41c-13.463,-17.039 -30.082,-29.878 -46.447,-39.522c0.865,-6.361 1.566,-12.771 2.1,-19.227c0.834,-10.092 1.26,-20.296 1.26,-30.599c-0,-101.356 -41.142,-193.18 -107.625,-259.664c-66.484,-66.483 -158.308,-107.625 -259.665,-107.625c-101.356,-0 -193.18,41.142 -259.664,107.625c-66.483,66.484 -107.625,158.308 -107.625,259.664c0,94.271 35.592,180.295 94.058,245.355c57.789,64.307 137.931,108.122 228.142,119.187Zm377.296,-330.178c0.222,-2.165 0.423,-4.336 0.603,-6.512c0.759,-9.186 1.146,-18.474 1.146,-27.852c0,-92.157 -37.412,-175.644 -97.862,-236.094c-60.449,-60.449 -143.936,-97.862 -236.094,-97.862c-92.157,0 -175.644,37.413 -236.094,97.862c-60.449,60.45 -97.862,143.937 -97.862,236.094c0,85.711 32.361,163.923 85.518,223.075c49.151,54.694 116.078,93.102 191.648,106.066c-0.032,-0.385 -0.064,-0.77 -0.095,-1.156c-0.625,-7.74 -0.944,-15.567 -0.944,-23.468c0,-36.127 6.655,-70.713 18.802,-102.588c-30.517,2.873 -81.112,-3.507 -125.262,-38.064c-94.714,-74.132 -96.276,-189.324 -55.168,-266.301c66.561,-124.639 227.821,-157.942 334.778,-74.904c19.945,15.484 20.96,37.265 13.554,60.653c-3.952,12.478 -10.352,25.434 -14.801,37.159c-1.162,3.061 -2.178,6.009 -2.869,8.808c2.082,-0.01 4.292,-0.056 6.32,-0.16c13.355,-0.689 30.025,-2.091 43.513,-1.699c13.778,0.401 24.923,3.474 30.676,7.899c7.491,5.762 13.085,16.271 15.631,29.666c3.034,15.955 2.229,36.631 0.913,51.901c7.391,-0.569 14.863,-0.858 22.402,-0.858c21.49,-0 42.433,2.356 62.585,6.821c12.683,2.811 25.053,6.456 37.047,10.876c0.636,0.17 1.269,0.38 1.896,0.631l0.019,0.007Z" style="fill:#7e4021;"/><path d="M3105.55,1409.01c11.656,-8.203 191.581,-101.463 283.053,-186.472c45.302,-42.1 91.48,-91.699 133.877,-136.744c20.937,-22.244 41.667,-58.545 67.571,-75.408c40.139,-26.129 121.985,12.393 120.54,67.136c-0.349,13.224 -14.717,37.996 -17.553,43.26c-82.853,153.79 -250.863,275.922 -345.504,348.731c-65.885,50.687 -128.829,86.726 -164.626,104.172" style="fill:#d9905f;"/><path d="M3115.15,1422.64c11.733,-8.257 192.729,-102.321 284.807,-187.893c45.565,-42.345 92.023,-92.223 134.667,-137.53c20.126,-21.382 39.628,-56.653 64.528,-72.863c15.646,-10.185 39.336,-6.249 59.058,4.047c19.594,10.23 36.288,27.481 35.728,48.681c-0.096,3.656 -2.111,8.479 -4.178,13.315c-4.232,9.905 -9.781,19.5 -11.386,22.48c-81.682,151.615 -247.692,271.647 -340.994,343.426c-64.748,49.811 -126.587,85.255 -161.766,102.4c-8.269,4.03 -11.71,14.015 -7.68,22.284c4.03,8.269 14.015,11.71 22.284,7.68c36.415,-17.747 100.463,-54.382 167.487,-105.944c95.979,-73.839 265.989,-198.071 350.014,-354.036c3.302,-6.129 19.134,-35.328 19.541,-50.725c0.886,-33.553 -22.613,-62.92 -53.624,-79.11c-30.885,-16.123 -68.168,-18.383 -92.67,-2.433c-26.908,17.517 -48.865,54.845 -70.615,77.952c-42.15,44.783 -88.048,94.104 -133.085,135.959c-90.867,84.445 -269.721,176.902 -281.3,185.05c-7.523,5.294 -9.332,15.7 -4.038,23.222c5.294,7.523 15.699,9.332 23.222,4.038Z" style="fill:#7e4021;"/><path d="M3563.24,940.288c23.375,-11.004 145.298,17.223 201.009,129.1c7.186,14.432 6.535,37.361 -2.775,51.05c-2.542,3.738 -5.901,6.695 -9.872,8.913c-33.059,18.468 -83.373,11.66 -136.414,-17.42c-58.43,-32.035 -131.842,-134.031 -51.948,-171.643Z" style="fill:#fff;"/><path d="M3556.15,925.209c-20.386,9.596 -32.607,22.835 -39.064,37.632c-6.448,14.78 -7.155,31.45 -3.122,48.685c10.453,44.671 54.622,93.858 93.219,115.019c59.219,32.467 115.646,37.975 152.556,17.357c6.258,-3.497 11.516,-8.198 15.525,-14.091c12.376,-18.198 13.465,-48.667 3.912,-67.852c-41.697,-83.737 -118.123,-123.6 -168.776,-135.974c-25.476,-6.223 -45.451,-4.919 -54.25,-0.776Zm14.197,30.158c1.871,-0.88 4.98,-0.718 8.919,-0.577c6.454,0.231 14.353,1.409 23.224,3.576c44.093,10.772 110.55,45.559 146.848,118.452c4.819,9.678 4.607,25.067 -1.637,34.247c-1.077,1.584 -2.536,2.796 -4.219,3.736c-29.217,16.321 -73.398,8.215 -120.274,-17.485c-26.536,-14.549 -56.472,-44.988 -70.705,-76.057c-7.238,-15.8 -10.709,-31.694 -4.865,-45.087c3.666,-8.402 11.135,-15.356 22.709,-20.805Z" style="fill:#7e4021;"/><path d="M3977.96,1055.96c-152.677,45.688 -337.519,70.133 -391.307,-61.447c-41.284,-100.992 -32.635,-193.397 -58.957,-316.254c-16.239,-75.798 22.794,-110.634 47.26,-118.379c62.65,-19.83 102.522,76.437 116.918,110.556c0.639,1.516 7.629,21.171 8.038,20.241c13.081,-29.802 32.086,-62.555 43.75,-93.124c35.286,-92.477 51.848,-161.916 99.509,-224.641c27.193,-35.788 93.38,-46.944 109.493,12.771c20.108,74.528 -60.297,281.411 -63.774,288.108c-1.325,2.554 -6.711,9.166 -4.438,7.402c14.922,-11.577 142.738,-212.707 209.613,-281.997c81.37,-84.308 191.437,-35.289 141.255,82.636c-30.989,72.822 -197.286,194.404 -230.733,260.483c-2.303,4.55 8.217,-6.045 12.282,-9.124c6.982,-5.288 14.078,-10.423 21.222,-15.488c20.668,-14.653 41.692,-29.023 63.095,-42.575c58.143,-36.817 199.054,-133.83 246.522,-55.558c50.52,83.303 -76.332,136.864 -171.85,184.692c-54.945,27.512 -152.123,80.178 -161.142,83.562c-1.317,0.494 206.303,-65.571 259.067,-9.787c41.271,43.633 0.561,81.974 -42.29,100.281c-24.939,10.655 -72.339,24.381 -98.858,28.869c-56.811,9.613 -99.425,32.239 -154.675,48.773Z" style="fill:#fff;"/><path d="M3701.09,649.676c-10.459,-23.655 -27.419,-57.924 -50.203,-80.984c-22.14,-22.408 -49.433,-34.678 -80.959,-24.698c-28.731,9.094 -77.597,48.752 -58.528,137.759c26.561,123.975 18.167,217.159 59.826,319.069c23.769,58.145 70.392,89.106 128.95,101.623c81.886,17.503 188.218,-2.283 282.563,-30.515l-0,-0c54.553,-16.325 96.583,-38.815 152.678,-48.307c27.53,-4.659 76.735,-18.914 102.625,-29.975c20.465,-8.744 40.347,-21.728 53.227,-37.267c10.09,-12.172 16.069,-25.946 16.343,-40.586c0.287,-15.33 -5.552,-32.114 -21.72,-49.207c-16.706,-17.663 -46.202,-26.272 -80.989,-27.45c-21.822,-0.739 -45.82,1.227 -69.297,4.519c17.203,-8.965 33.802,-17.523 47.715,-24.489c59.148,-29.617 129.619,-61.889 165.525,-101.118c28.465,-31.099 37.914,-66.225 13.114,-107.119c-22.985,-37.902 -63.424,-44.112 -108.955,-32.356c-51.752,13.363 -110.387,50.343 -147.962,74.332c9.004,-8.669 18.21,-17.459 27.39,-26.292c51.503,-49.563 102.144,-100.467 118.224,-138.254c29.801,-70.031 8.415,-118.899 -28.897,-138.445c-36.413,-19.075 -92.529,-11.152 -139.686,37.709c-37.776,39.139 -94.883,119.909 -140.453,185.52c8.831,-29.045 17.333,-60.653 23.151,-90.431c7.851,-40.182 10.499,-77.221 3.984,-101.369c-6.251,-23.169 -18.768,-37.773 -33.566,-46.058c-33.401,-18.7 -81.476,-3.795 -105.289,27.544c-48.576,63.93 -65.846,134.53 -101.81,228.783c-7.222,18.927 -17.295,38.69 -27.001,58.062Zm272.092,390.32c-74.432,22.273 -156.669,39.596 -226.89,35.087c-65.19,-4.187 -119.867,-27.321 -144.211,-86.874c-40.908,-100.072 -32.005,-191.7 -58.087,-313.439c-13.421,-62.64 15.773,-92.597 35.993,-98.997c18.601,-5.888 34.126,3.126 47.188,16.347c24.808,25.108 41.227,65.559 49.344,84.798c0.628,1.49 7.038,18.962 8.606,21.714c5.836,10.242 15.322,8.92 17.76,8.473c4.637,-0.849 9.448,-3.255 12.289,-9.726c13.185,-30.04 32.304,-63.07 44.06,-93.881c34.609,-90.701 50.463,-158.98 97.208,-220.5c14.262,-18.77 42.46,-29.826 62.464,-18.626c8.089,4.528 14.251,12.992 17.667,25.656c5.55,20.569 2.172,52.068 -4.516,86.294c-16.565,84.782 -55.581,185.215 -57.958,189.793c-0.678,1.306 -2.771,3.881 -3.652,5.239c-1.522,2.346 -2.232,4.31 -2.516,5.272c-2.615,8.849 1.638,14.23 4.548,16.975c1.836,1.733 10.535,9.806 22.19,0.763c3.404,-2.64 12.35,-13.616 24.466,-30.616c42.17,-59.17 133.839,-197.975 186.923,-252.975c34.228,-35.463 73.804,-45.175 100.234,-31.33c25.548,13.384 34.099,47.914 13.693,95.866c-14.909,35.036 -62.911,81.332 -110.665,127.287c-51.223,49.292 -102.342,98.095 -119.602,132.195c-6.306,12.458 1.478,19.377 3.967,21.441c3.226,2.674 8.299,5.309 15.587,3.176c1.401,-0.41 4.072,-1.479 7.093,-3.809c2.807,-2.165 7.993,-7.169 10.568,-9.119c6.842,-5.182 13.797,-10.214 20.799,-15.178c20.431,-14.485 41.213,-28.692 62.372,-42.09c33.859,-21.44 96.478,-64.223 151.235,-78.362c29.717,-7.673 57.117,-7.371 72.119,17.366c20.251,33.391 2.63,60.101 -27.303,83.976c-36.534,29.141 -91.027,53.77 -137.759,77.17c-54.415,27.247 -150.601,79.51 -159.534,82.861c-5.858,2.198 -7.601,5.75 -7.894,6.178c-0.484,0.704 -2.276,31.421 18.408,25.43c0.259,-0.075 2.214,-0.683 5.593,-1.686c19.415,-5.763 87.934,-25.166 149.665,-29.134c19.601,-1.261 38.485,-0.981 54.674,2.036c13.495,2.514 25.007,6.664 32.368,14.446c8.599,9.091 12.761,17.525 12.609,25.678c-0.178,9.49 -5.936,17.813 -13.592,25.215c-9.669,9.348 -22.625,17.003 -35.747,22.609c-23.988,10.248 -69.582,23.445 -95.091,27.761c-57.527,9.735 -100.726,32.498 -156.673,49.24l0,-0Zm49.249,-137.373c-0.807,0.378 -1.432,0.648 -1.86,0.809c0.66,-0.248 1.281,-0.515 1.86,-0.809Z" style="fill:#7e4021;"/><path d="M2078.99,2277.07c22.382,-100.12 71.27,-178.136 118.032,-258.07c48.655,-83.169 95.095,-168.319 110.574,-280.001c21.629,-156.065 -16.888,-265.433 -52.067,-372.197c-33.566,-101.868 -64.034,-201.263 -29.245,-340.432c19.64,-78.565 49.127,-140.634 75.283,-199.625c63.492,-143.2 109.111,-268.839 -36.391,-553.399c-4.188,-8.19 -14.237,-11.439 -22.427,-7.251c-8.19,4.188 -11.439,14.237 -7.252,22.427c137.979,269.846 95.806,388.917 35.598,524.712c-26.859,60.578 -56.982,124.375 -77.149,205.052c-36.674,146.707 -5.46,251.562 29.924,358.948c33.77,102.488 71.471,207.374 50.708,357.189c-14.812,106.875 -59.767,188.157 -106.327,267.745c-48.453,82.824 -98.601,163.891 -121.791,267.63c-2.007,8.977 3.652,17.894 12.629,19.901c8.977,2.007 17.894,-3.652 19.901,-12.629Z" style="fill:#7e4021;"/></g></svg>