<?xml version="1.0" encoding="UTF-8" standalone="no"?><!DOCTYPE svg PUBLIC "-//W3C//DTD SVG 1.1//EN" "http://www.w3.org/Graphics/SVG/1.1/DTD/svg11.dtd"><svg width="100%" height="100%" viewBox="0 0 4029 4230" version="1.1" xmlns="http://www.w3.org/2000/svg" xmlns:xlink="http://www.w3.org/1999/xlink" xml:space="preserve" xmlns:serif="http://www.serif.com/" style="fill-rule:evenodd;clip-rule:evenodd;stroke-linejoin:round;stroke-miterlimit:2;"><g id="Coffee-Bean-Character-02" serif:id="Coffee Bean-Character-02"><path d="M1866.92,3626.78c-61.355,9.653 -262.744,78.503 -318.996,104.022c-95.233,43.204 -415.867,195.953 -411.938,319.978c4.761,150.339 343.364,171.154 447.708,159.407c108.074,-12.167 243.722,-34.392 323.761,-120.838c15.708,-16.964 67.559,-82.864 67.559,-82.864c-0,-0 -4.315,43.003 1.029,47.937c33.705,31.124 193.063,-1.764 228.55,-40.342c29.621,-32.2 30.972,-170.022 22.419,-207.553c-52.653,-231.048 -130.308,-219.179 -360.092,-179.747Z" style="fill:#fee4a8;"/><path d="M1958.23,4054.33c1.537,6.113 4.288,10.284 6.514,12.339c7.265,6.709 18.61,11.806 33.166,14.421c17.513,3.147 40.361,3.038 64.819,0.249c35.423,-4.039 74.333,-13.61 104.598,-25.813c22.132,-8.923 39.792,-19.564 49.54,-30.16c10.355,-11.257 18.639,-33.246 23.642,-60.178c10.453,-56.266 9.008,-134.952 2.761,-162.362c-22.286,-97.795 -50.08,-153.848 -89.441,-183.973c-30.672,-23.473 -68.671,-32.124 -118.128,-30.965c-45.604,1.068 -101.613,10.459 -171.483,22.449l0,-0c-62.315,9.852 -266.204,79.446 -323.171,105.289c-67.532,30.637 -246.827,115.85 -347.034,207.194c-46.741,42.608 -75.977,87.467 -74.678,128.49c2.103,66.388 60.936,112.191 140.837,139.673c111.05,38.196 261.354,42.978 325.395,35.768c111.684,-12.574 251.413,-36.743 334.126,-126.077c7.666,-8.279 23.839,-28.064 38.537,-46.344Zm32.507,-9.842l0.868,-36.337c0.74,-7.373 -3.477,-14.35 -10.35,-17.121c-6.872,-2.772 -14.749,-0.673 -19.331,5.151c-0,-0 -51.179,65.095 -66.69,81.847c-77.366,83.559 -208.932,103.838 -313.396,115.599c-61.173,6.887 -204.748,2.32 -310.824,-34.165c-33.911,-11.663 -63.934,-26.525 -85.594,-45.718c-19.513,-17.29 -31.964,-38.107 -32.768,-63.49c-1.058,-33.399 25.762,-68.11 63.817,-102.799c97.63,-88.997 272.553,-171.624 338.349,-201.473c55.5,-25.178 254.165,-93.212 314.7,-102.736c0.076,-0.012 0.152,-0.024 0.228,-0.037c67.951,-11.661 122.394,-20.958 166.735,-21.997c40.515,-0.949 71.963,4.883 97.089,24.112c35.037,26.814 57.363,77.86 77.2,164.908c5.728,25.134 6.551,97.275 -3.034,148.868c-3.585,19.3 -7.981,35.632 -15.401,43.699c-7.287,7.922 -20.928,15.141 -37.473,21.812c-27.747,11.188 -63.434,19.906 -95.91,23.609c-20.808,2.373 -40.248,2.74 -55.147,0.062c-5.137,-0.923 -9.64,-2.011 -13.068,-3.794Z" style="fill:#7e4021;"/><path d="M1981.09,4025.92c11.409,-16.595 32.268,-29.82 50.519,-37.09c43.587,-17.364 89.761,-32.169 127.866,-52.234c41.91,-22.069 74.23,-50.643 86.543,-93.202c2.557,-8.837 -2.542,-18.086 -11.378,-20.642c-8.836,-2.557 -18.086,2.541 -20.642,11.378c-9.793,33.849 -36.721,55.42 -70.054,72.972c-37.136,19.554 -82.193,33.839 -124.672,50.761c-23.885,9.516 -50.718,27.453 -65.65,49.172c-5.211,7.58 -3.288,17.965 4.292,23.176c7.58,5.212 17.965,3.289 23.176,-4.291Z" style="fill:#7e4021;"/><path d="M1941.45,2322.87c-13.353,38.511 -74.707,204.148 -86.954,243.024c-33.327,105.794 -62.122,212.942 -88.782,320.589c-4.398,17.755 -15.544,65.21 -16.823,71.151c-28.587,132.749 -42.158,271.993 -29.876,407.493c10.671,117.729 52.83,239.501 8.226,292.949c-33.813,40.518 -73.241,29.58 -146.977,86.862c-148.487,115.353 -165.755,207.011 68.621,179.976c79.401,-9.158 545.239,-164.523 459.091,-279.37c-29.749,-39.659 -85.136,-45.921 -105.059,-93.217c-54.494,-129.366 -49.47,-334.228 -47.424,-471.02c3.417,-228.433 127.328,-477.288 172.093,-694.794c-0,-0 -181.108,-78.142 -186.136,-63.643Z" style="fill:#c48464;"/><path d="M1925.71,2317.41c-13.379,38.582 -74.835,204.529 -87.104,243.477c-33.431,106.124 -62.321,213.606 -89.064,321.59c-4.428,17.879 -15.65,65.666 -16.939,71.648c-28.938,134.381 -42.613,275.341 -30.181,412.507c6.387,70.466 24.113,142.38 27.636,200.157c2.049,33.608 -0.077,62 -15.607,80.609c-14.945,17.908 -31.411,23.998 -52.008,32.387c-24.345,9.916 -53.878,22.067 -92.398,51.991c-46.435,36.074 -80.369,70.115 -98.794,99.069c-14.629,22.989 -19.809,43.711 -16.621,60.573c3.504,18.532 16.405,34.211 42.12,43.935c29.782,11.261 79.973,14.663 154.051,6.118c56.68,-6.537 306.484,-86.069 421.116,-173.409c26.601,-20.268 46.131,-41.239 55.794,-61.581c11.544,-24.301 10.651,-48.211 -6.397,-70.938c-16.158,-21.542 -38.977,-34.4 -60.764,-47.909c-17.144,-10.63 -33.752,-21.562 -42.267,-41.777c-53.71,-127.504 -48.136,-329.478 -46.119,-464.301c3.402,-227.443 127.182,-475.119 171.752,-691.684c1.593,-7.738 -2.467,-15.532 -9.721,-18.662c-0,-0 -117.643,-50.665 -167.3,-63.431c-14.783,-3.8 -25.681,-3.485 -30.162,-1.706c-6.066,2.408 -9.379,6.594 -11.023,11.337Zm27.83,21.304c33.476,6.556 122.016,43.645 154.911,57.701c-47.099,215.269 -166.255,459.85 -169.617,684.642c-2.075,138.763 -6.549,346.511 48.73,477.74c11.408,27.083 32.452,42.926 55.421,57.167c18.325,11.362 38.073,21.462 51.664,39.581c8.797,11.727 8.91,24.094 2.953,36.634c-7.838,16.499 -24.311,32.929 -45.887,49.368c-110.187,83.954 -350.252,160.526 -404.733,166.811c-66.55,7.676 -111.687,5.933 -138.442,-4.184c-12,-4.538 -19.522,-10.301 -21.157,-18.949c-1.949,-10.309 3.046,-22.428 11.99,-36.484c16.926,-26.598 48.465,-57.503 91.122,-90.641c42.635,-33.122 73.442,-42.44 98.245,-53.138c19.567,-8.439 35.88,-17.725 51.303,-36.207c20.157,-24.154 25.946,-60.372 23.286,-103.995c-3.54,-58.057 -21.291,-130.329 -27.709,-201.137c-12.131,-133.835 1.334,-271.363 29.57,-402.48c1.27,-5.9 12.341,-53.022 16.708,-70.653c26.576,-107.311 55.278,-214.125 88.501,-319.588c11.329,-35.964 64.771,-180.606 83.141,-232.188Z" style="fill:#7e4021;"/><path d="M651.098,1596.3c-67.179,-23.183 -190.054,-20.34 -251.971,-41.72c-63.658,-21.981 -112.313,-71.54 -179.064,-86.222c-21.92,-4.821 -50.703,-10.116 -67.109,8.528c-37.695,46.568 28.52,80.022 25.234,80.537c-30.19,-14.212 -93.391,-40.154 -120.223,30.441c-20.753,54.605 56.897,77.036 56.193,78.866c-34.74,2.614 -107.444,20.237 -95.591,99.286c7.827,52.197 56.212,43.425 86.484,38.426c-51.547,18.274 -102.547,69.056 -49.994,125.335c71.983,77.087 249.517,-55.332 325.099,6.767c73.473,60.366 -18.155,257.369 115.426,261.673c95.743,3.085 47.759,-177.071 78.138,-248.078c42.23,-98.711 156.905,-90.298 163.361,-210.731c2.261,-42.192 -5.958,-115.493 -85.983,-143.108Z" style="fill:#fff;"/><path d="M128.051,1524.62c-15.548,-1.471 -31.36,0.501 -45.779,8.123c-15.621,8.257 -30.003,23.206 -39.886,49.207c-12.435,32.718 1.082,56.923 20.265,73.695c1.622,1.418 3.287,2.775 4.978,4.071c-37.583,13.586 -75.248,44.066 -65.544,108.779c4.914,32.776 22.122,47.408 42.813,53.063c-3.558,3.393 -6.86,6.951 -9.849,10.657c-11.658,14.456 -18.669,31.127 -18.778,49.031c-0.114,18.67 7.195,39.129 26.605,59.914c21.266,22.774 50.051,30.847 83.077,30.134c29.074,-0.628 61.664,-8.166 94.346,-16.336c30.529,-7.632 61.148,-15.81 88.745,-18.217c23.608,-2.06 44.823,-0.218 60.531,12.689c15.312,12.58 21.134,32.68 24.326,55.208c3.763,26.562 3.321,56.462 4.783,84.637c2.372,45.715 11.012,86.762 40.832,108.57c13.507,9.878 31.41,16.261 55.529,17.038c47.664,1.536 68.976,-31.277 77.088,-79.43c5.963,-35.39 4.796,-79.506 6.829,-118.494c1.218,-23.346 3.425,-44.699 10.081,-60.256c19.748,-46.161 57.074,-66.646 89.579,-90.299c38.509,-28.022 71.525,-59.375 75.101,-126.096c2.533,-47.258 -7.556,-128.824 -97.188,-159.755l-0,-0c-34.574,-11.931 -83.447,-17.357 -131.676,-22.359c-45.437,-4.712 -90.271,-8.994 -120.293,-19.36c-30.738,-10.614 -57.786,-28.018 -85.276,-44.409c-29.992,-17.883 -60.481,-34.602 -95.646,-42.337c-14.989,-3.296 -32.822,-6.454 -48.706,-4.13c-13.189,1.93 -25.181,7.34 -34.496,17.926c-0.151,0.171 -0.298,0.346 -0.442,0.524c-11.021,13.614 -15.076,26.565 -15.338,38.253c-0.158,7.044 1.119,13.729 3.389,19.959Zm517.61,87.443c70.42,24.301 76.767,89.332 74.777,126.461c-2.879,53.713 -30.428,78.368 -61.429,100.927c-37.005,26.928 -78.13,51.588 -100.613,104.14c-7.926,18.527 -11.272,43.83 -12.722,71.632c-1.968,37.733 -0.64,80.441 -6.411,114.693c-4.932,29.278 -14.164,52.585 -43.144,51.651c-15.956,-0.514 -27.991,-4.093 -36.926,-10.627c-10.189,-7.452 -16.052,-18.546 -19.924,-31.455c-4.623,-15.415 -6.329,-33.285 -7.296,-51.937c-1.835,-35.355 -1.062,-73.29 -8.167,-104.693c-5.483,-24.228 -15.592,-44.82 -33.07,-59.18c-18.001,-14.79 -40.697,-20.831 -66.434,-20.939c-33.641,-0.141 -72.969,10.105 -112.087,19.884c-30.148,7.536 -60.162,14.769 -86.982,15.348c-22.872,0.494 -43.267,-3.786 -57.994,-19.557c-12.125,-12.985 -17.706,-25.299 -17.635,-36.962c0.081,-13.341 7.424,-25.155 17.597,-35.111c11.819,-11.565 27.614,-20.576 43.419,-26.179c8.137,-2.885 12.725,-11.507 10.57,-19.868c-2.154,-8.36 -10.336,-13.692 -18.855,-12.285c-10.993,1.815 -24.603,4.33 -37.449,3.48c-7.142,-0.472 -14.088,-1.898 -19.515,-6.227c-5.355,-4.272 -8.762,-11.309 -10.321,-21.707c-9.764,-65.114 51.742,-78.042 80.358,-80.195c6.422,-0.483 11.991,-4.622 14.304,-10.632c0.76,-1.974 3.673,-15.77 -10.557,-22.31c-5.304,-2.438 -21.696,-8.615 -34.564,-19.865c-9.633,-8.422 -17.291,-20.327 -11.046,-36.757c6.217,-16.358 14.477,-26.386 24.304,-31.58c11.335,-5.991 24.17,-5.493 36.143,-3.045c14.248,2.914 27.495,8.822 37.097,13.343c3.015,1.419 6.387,1.902 9.679,1.386c7.253,-1.137 10.609,-5.382 12.463,-9.122c1.642,-3.313 2.481,-7.348 1.058,-12.184c-0.414,-1.405 -1.753,-5.518 -6.797,-9.44c-2.868,-2.23 -11.883,-7.961 -19.621,-16.56c-5.092,-5.658 -10.075,-12.687 -9.885,-21.183c0.124,-5.499 2.58,-11.341 7.682,-17.729c5.032,-5.531 12.092,-6.947 19.335,-7.191c10.599,-0.358 21.789,2.024 31.48,4.156c31.585,6.947 58.798,22.349 85.736,38.411c29.44,17.554 58.548,35.92 91.468,47.287c31.896,11.013 79.458,16.001 127.733,21.008c45.483,4.717 91.636,9.461 124.241,20.713l0,-0Z" style="fill:#7e4021;"/><path d="M427.663,1690.8l0.83,0.131c14.232,2.425 76.538,16.343 86.041,17.595c9.12,1.2 17.499,-5.229 18.7,-14.349c1.201,-9.12 -5.228,-17.499 -14.348,-18.699c-9.367,-1.234 -70.767,-15.017 -84.795,-17.407c-4.836,-0.824 -7.918,-0.44 -8.701,-0.292c-9.038,1.709 -14.989,10.435 -13.28,19.473c1.46,7.718 8.035,13.184 15.553,13.548Z" style="fill:#7e4021;"/><path d="M436.621,1770.5c7.346,4.306 17.119,6.667 27.635,7.562c11.88,1.011 24.844,0.216 34.09,0.759c9.183,0.539 17.076,-6.479 17.615,-15.662c0.539,-9.182 -6.479,-17.075 -15.662,-17.614c-7.689,-0.451 -17.955,0.028 -28.024,-0.38c-7.008,-0.284 -13.995,-0.607 -18.798,-3.422c-7.936,-4.651 -18.155,-1.985 -22.806,5.951c-4.652,7.936 -1.986,18.155 5.95,22.806Z" style="fill:#7e4021;"/><path d="M93.281,1824.06c140.326,-34.376 186.446,-5.191 271.281,-10.206c9.182,-0.542 16.197,-8.438 15.654,-17.621c-0.543,-9.182 -8.439,-16.197 -17.621,-15.654c-86.709,5.126 -133.821,-24.03 -277.245,11.105c-8.934,2.188 -14.411,11.219 -12.222,20.153c2.188,8.935 11.219,14.411 20.153,12.223Z" style="fill:#7e4021;"/><path d="M77.247,1691.37c48.971,-13.043 93.85,-3.655 137.236,7.457c47.976,12.288 94.345,26.541 141.782,21.813c9.153,-0.913 15.844,-9.084 14.932,-18.238c-0.913,-9.153 -9.085,-15.844 -18.238,-14.931c-43.61,4.346 -86.1,-9.638 -130.206,-20.935c-48.696,-12.472 -99.12,-22.016 -154.085,-7.376c-8.888,2.367 -14.183,11.506 -11.815,20.394c2.367,8.889 11.506,14.184 20.394,11.816Z" style="fill:#7e4021;"/><path d="M164.014,1567.68c18.878,11.893 36.708,22.762 52.105,31.558c37.848,21.62 77.757,35.146 120.93,41.051c9.114,1.247 17.525,-5.14 18.772,-14.254c1.246,-9.114 -5.141,-17.525 -14.255,-18.772c-38.882,-5.318 -74.826,-17.497 -108.912,-36.969c-15.034,-8.588 -32.44,-19.205 -50.872,-30.817c-7.783,-4.903 -18.083,-2.565 -22.986,5.218c-4.903,7.782 -2.565,18.082 5.218,22.985Z" style="fill:#7e4021;"/><path d="M715.808,1593.43c-30.906,18.752 -69.879,118.54 -13.027,217.104c12.905,22.374 38.86,34.288 60.526,23.557c25.489,-12.625 43.691,-55.689 50.795,-110.3c7.824,-60.159 -29.562,-172.063 -98.294,-130.361Z" style="fill:#fff;"/><path d="M707.162,1579.18c-11.307,6.86 -24.14,22.13 -33.797,44.07c-20.014,45.47 -28.127,120.879 14.979,195.61c17.428,30.216 53.1,44.657 82.36,30.165c12.754,-6.317 24.452,-18.343 33.984,-35.332c12.278,-21.884 21.363,-52.554 25.941,-87.753c5.208,-40.043 -8.042,-100.646 -35.624,-132.814c-10.857,-12.662 -23.871,-21.228 -38.45,-24.249c-14.674,-3.039 -31.266,-0.695 -49.393,10.303Zm17.291,28.498c9.369,-5.685 17.756,-7.731 25.341,-6.16c12.408,2.57 21.763,13.53 29.328,27.038c15.273,27.27 21.975,65.997 18.452,93.084c-3.945,30.335 -11.376,56.883 -21.957,75.743c-5.71,10.177 -12.067,17.988 -19.707,21.771c-14.092,6.98 -30.298,-2.397 -38.692,-16.948c-31.354,-54.358 -31.169,-109.098 -19.733,-147.934c6.788,-23.049 16.852,-40.456 26.968,-46.594Z" style="fill:#7e4021;"/><path d="M757.564,1768.25c10.602,5.713 36.674,5.585 42.115,5.729c158.983,4.211 331.529,-73.17 431.893,-114.943c106.312,-44.249 160.225,-108.609 167.972,-141.194c16.211,-68.18 -26.953,-114.317 -106.168,-77.322c-11.757,5.491 -166.896,105.358 -275.46,139.103c-53.766,16.712 -113.852,30.721 -168.628,43.806c-27.05,6.462 -65.108,6.395 -90.157,19.217c-38.815,19.867 -45.457,101.954 -1.567,125.604Z" style="fill:#c48464;"/><path d="M749.658,1782.92c12.516,6.745 43.156,7.547 49.58,7.717c161.453,4.277 336.815,-73.794 438.738,-116.216c66.585,-27.714 113.376,-63.14 141.985,-94.27c20.818,-22.653 32.267,-43.605 35.798,-58.456c9.882,-41.562 -0.137,-75.987 -22.894,-94.802c-22.38,-18.502 -59.055,-23.653 -106.541,-1.476c-11.672,5.451 -165.581,104.789 -273.355,138.289c-53.422,16.605 -113.127,30.509 -167.553,43.51c-28.203,6.737 -67.762,7.224 -93.879,20.592c-24.115,12.343 -39.582,43.302 -40.857,75.561c-1.281,32.401 11.59,64.793 38.978,79.551Zm15.812,-29.344c-16.51,-8.897 -22.255,-29.358 -21.483,-48.89c0.778,-19.677 8.028,-39.677 22.738,-47.206c23.983,-12.276 60.537,-11.656 86.435,-17.843c55.127,-13.168 115.593,-27.281 169.703,-44.1c109.354,-33.991 265.723,-134.387 277.565,-139.918c31.759,-14.832 56.23,-15.41 71.197,-3.036c14.586,12.059 18.038,34.764 11.705,61.401c-2.668,11.219 -12.187,26.5 -27.913,43.612c-26.204,28.514 -69.26,60.666 -130.25,86.051c-98.805,41.124 -268.533,117.815 -425.046,113.669c-3.063,-0.081 -13.095,-0.042 -22.777,-1.178c-4.547,-0.533 -9.072,-1.052 -11.874,-2.562Z" style="fill:#7e4021;"/><path d="M2467.26,124.493c-75.104,-53.375 -178.82,-72.696 -268.941,-73.939c-274.771,-3.79 -521.726,138.474 -697.177,342.247c-379.779,441.082 -659.236,1628.92 21.018,1986.19c181.112,95.122 324.04,-59.615 432.598,56.26c74.887,79.935 247.718,112.132 404.643,79.73c608.618,-125.666 1034.5,-1450.98 697.547,-2083.03c-104.811,-196.599 -313.195,-338.589 -589.688,-307.461Z" style="fill:#c48464;"/><path d="M2471.66,107.254c-77.3,-52.522 -181.872,-72.107 -273.107,-73.365c-279.758,-3.859 -531.402,140.566 -710.038,348.037c-230.045,267.179 -423.907,805.673 -393.627,1271.7c20.385,313.743 142.118,594.429 419.526,740.127c94.508,49.636 178.987,34.866 254.068,22.019c66.096,-11.309 124.248,-22.351 174.117,30.88c77.828,83.074 257.088,118.332 420.176,84.658c247.65,-51.134 466.805,-296.277 617.203,-614.688c224.002,-474.24 295.891,-1109.46 91.681,-1492.51c-106.969,-200.649 -318.835,-346.037 -599.999,-316.86Zm-14.051,30.824c3.343,2.376 7.444,3.436 11.519,2.977c268.708,-30.252 471.257,107.677 573.116,298.74c200.139,375.412 127.13,997.805 -92.406,1462.59c-145.294,307.605 -354.558,546.881 -593.803,596.28c-150.766,31.13 -317.163,1.994 -389.11,-74.803c-58.695,-62.652 -126.271,-54.257 -204.065,-40.945c-68.802,11.772 -146.342,26.81 -232.946,-18.675c-266.795,-140.124 -382.158,-411.038 -401.763,-712.778c-29.706,-457.2 159.935,-985.667 385.625,-1247.79c172.267,-200.075 414.533,-340.178 684.317,-336.457c86.921,1.199 187.079,19.379 259.516,70.859Z" style="fill:#7e4021;"/><path d="M2713.94,3218.34c-13.694,60.581 -24.107,273.159 -21.172,334.859c4.969,104.457 112.783,456.085 229.486,498.249c141.465,51.111 299.909,-253.039 313.516,-357.157c15.623,-119.545 -26.239,-236.436 -77.004,-342.746c-9.963,-20.863 -31.73,-61.676 -31.73,-61.676c0,0 14.084,-3.927 20.644,-7.07c41.373,-19.824 13.713,-229.561 -9.027,-276.789c-18.981,-39.421 -82.297,-66.735 -120.333,-72.651c-234.157,-36.42 -256.14,56.883 -304.38,284.981Z" style="fill:#fee4a8;"/><path d="M2697.66,3214.78c-13.864,61.547 -24.509,276.724 -21.537,339.208c3.544,74.516 58.2,272.538 131.615,399.335c33.27,57.462 71.128,100.166 108.856,113.797c62.278,22.501 128.772,-14.707 185.632,-78.211c79.887,-89.223 141.657,-228.062 150.073,-292.461c16.043,-122.758 -26.361,-242.92 -78.49,-352.088c-5.812,-12.171 -15.597,-31.059 -22.832,-44.856c1.442,-0.569 2.774,-1.134 3.907,-1.678c8.019,-3.842 15.142,-11.501 20.156,-23.193c5.232,-12.2 8.532,-29.724 9.868,-50.363c4.805,-74.191 -14.704,-191.16 -31.236,-225.493c-8.785,-18.247 -25.467,-34.553 -45.514,-47.629c-28.085,-18.318 -62.608,-30.424 -87.274,-34.261c-99.411,-15.462 -162.647,-7.465 -206.191,21.476c-33.473,22.248 -56.036,57.03 -73.641,105.225c-16.394,44.88 -28.734,101.885 -43.392,171.192l0,-0Zm32.54,7.232c0.017,-0.075 0.033,-0.151 0.049,-0.226c14.276,-67.503 26.149,-123.057 42.113,-166.761c14.762,-40.412 32.714,-70.246 60.782,-88.901c38.511,-25.596 94.698,-29.974 182.617,-16.299c20.978,3.263 50.3,13.663 74.187,29.243c14.602,9.524 27.292,20.879 33.691,34.17c15.305,31.785 32.454,140.194 28.006,208.878c-0.888,13.709 -2.61,25.739 -5.609,34.989c-0.942,2.908 -1.991,5.485 -3.238,7.644c-0.743,1.286 -1.277,2.518 -2.317,3.017c-5.685,2.723 -17.919,6.046 -17.919,6.046c-4.867,1.358 -8.856,4.85 -10.845,9.496c-1.988,4.646 -1.762,9.943 0.616,14.402c0,-0 21.54,40.373 31.396,61.013c49.401,103.454 90.721,217.073 75.518,333.405c-7.912,60.542 -66.753,190.668 -141.855,274.546c-24.252,27.086 -50.164,49.338 -76.787,62.253c-24.086,11.685 -48.653,15.526 -72.684,6.843c-32.297,-11.668 -62.856,-49.96 -91.336,-99.15c-70.665,-122.047 -123.755,-312.491 -127.166,-384.216c-2.896,-60.875 7.269,-270.62 20.781,-330.392Z" style="fill:#7e4021;"/><path d="M1950.59,2359.11c45.369,101.215 97.22,197.391 148.804,295.563c8.509,16.192 31.702,59.067 34.692,64.358c66.82,118.214 149.177,231.308 248.372,324.43c86.185,80.908 197.88,150.262 258.165,254.679c55.206,95.619 56.549,228.307 132.12,310.953c22.431,24.531 54.87,42.098 88.716,32.788c5.989,-1.647 11.949,-3.967 17.303,-7.145c68.732,-40.795 85.757,-153.942 91.784,-224.99c7.952,-93.722 29.613,-386.464 -111.073,-415.078c-48.582,-9.881 -94.141,22.233 -140.452,0.117c-126.671,-60.495 -259.008,-216.958 -348.351,-320.563c-76.721,-88.967 -132.443,-181.97 -140.466,-279.485" style="fill:#c48464;"/><path d="M1935.38,2365.93c45.511,101.533 97.512,198.018 149.258,296.498c8.568,16.306 31.925,59.479 34.937,64.807c67.641,119.668 151.06,234.113 251.474,328.38c85.035,79.829 195.657,147.836 255.138,250.861c26.982,46.734 40.589,102.603 56.897,156.81c17.419,57.902 37.904,113.91 77.357,157.057c26.548,29.033 65.377,48.629 105.436,37.611c7.41,-2.038 14.765,-4.951 21.39,-8.883c30.436,-18.065 52.112,-48.629 67.115,-84.216c21.026,-49.873 29.028,-109.605 32.769,-153.697c4.859,-57.27 14.526,-187.502 -9.291,-288.824c-17.26,-73.423 -52.77,-131.324 -115.067,-143.995c-26.389,-5.367 -51.986,0.18 -77.245,4.557c-19.876,3.444 -39.552,6.305 -59.346,-3.148c-124.848,-59.624 -254.856,-214.294 -342.913,-316.407c-74.195,-86.039 -128.718,-175.662 -136.476,-269.968c-0.754,-9.167 -8.81,-15.998 -17.977,-15.244c-9.168,0.754 -15.999,8.81 -15.244,17.977c8.286,100.725 65.208,197.108 144.454,289.003c90.63,105.098 225.295,263.352 353.791,324.718c26.519,12.665 52.772,10.527 79.402,5.913c21.245,-3.681 42.715,-9.251 64.91,-4.736c50.265,10.223 75.336,59.715 89.262,118.958c22.955,97.653 13.209,223.182 8.526,278.378c-3.492,41.166 -10.64,97.003 -30.27,143.566c-12.102,28.706 -28.863,53.929 -53.414,68.5c-4.084,2.425 -8.648,4.152 -13.216,5.408c-27.64,7.603 -53.679,-7.933 -71.996,-27.965c-36.119,-39.5 -54.09,-91.158 -70.037,-144.166c-17.058,-56.703 -31.725,-114.988 -59.949,-163.873c-61.09,-105.81 -173.858,-176.511 -261.192,-258.498c-97.975,-91.977 -179.272,-203.718 -245.27,-320.48c-2.969,-5.253 -25.998,-47.83 -34.447,-63.909c-51.422,-97.863 -103.122,-193.73 -148.349,-294.628c-3.762,-8.393 -13.632,-12.154 -22.026,-8.391c-8.394,3.763 -12.154,13.632 -8.391,22.026Z" style="fill:#7e4021;"/><path d="M3141.65,3279.55c-24.157,-28.066 -24.072,-68.196 -29.474,-106.93c-7.501,-53.794 -21.792,-123.099 -49.304,-176.664c-19.814,-38.578 -46.63,-69.021 -81.503,-82.397c-8.588,-3.295 -18.235,1.004 -21.53,9.592c-3.294,8.589 1.004,18.236 9.593,21.53c27.727,10.636 48.035,35.83 63.789,66.504c25.841,50.313 38.896,115.511 45.941,166.038c6.308,45.236 9.013,91.296 37.225,124.072c6,6.972 16.532,7.76 23.504,1.759c6.972,-6 7.76,-16.532 1.759,-23.504Z" style="fill:#7e4021;"/><path d="M3439.72,2026.04c107.402,-10.686 200.745,43.798 266.197,46.447c67.29,2.724 130.658,-25.701 198.169,-15.053c22.17,3.496 50.904,9.053 59.389,32.393c18.138,57.101 -55.715,64.13 -52.842,65.807c33.292,-2.236 101.601,-3.367 100.867,72.151c-0.568,58.414 -81.054,51.01 -81.065,52.971c31.4,15.092 92.685,57.994 52.846,127.29c-26.308,45.758 -68.17,19.96 -94.54,4.275c41.345,35.799 70.338,101.672 0.891,134.935c-95.121,45.561 -212.205,-142.44 -305.217,-112.148c-90.417,29.447 -76.866,246.292 -202.833,201.631c-90.285,-32.011 20.039,-182.301 17.621,-259.495c-3.362,-107.313 -113.221,-141.26 -75.352,-255.767c13.266,-40.116 44.786,-88.364 115.869,-95.437Z" style="fill:#fff;"/><path d="M3976.32,2291.16c2.047,-0.59 4.092,-1.248 6.119,-1.978c23.976,-8.629 45.383,-26.245 45.723,-61.245c0.27,-27.815 -7.677,-46.976 -19.215,-60.357c-10.652,-12.352 -24.658,-19.949 -39.674,-24.244c4.384,-4.976 8.01,-10.735 10.429,-17.353c4.015,-10.98 4.957,-24.518 -0.346,-41.212c-0.069,-0.218 -0.143,-0.434 -0.221,-0.649c-4.818,-13.252 -14.014,-22.659 -25.594,-29.262c-13.945,-7.951 -31.703,-11.509 -46.862,-13.899c-35.567,-5.61 -70.052,-1.15 -104.497,4.577c-31.573,5.248 -63.103,11.601 -95.595,10.286c-31.678,-1.282 -70.034,-15.405 -113.537,-27.618c-46.793,-13.136 -99.072,-24.324 -154.984,-18.761l-0.001,0c-79.681,7.929 -115.171,61.821 -130.042,106.789c-20.98,63.438 -1.656,104.665 23.996,144.791c21.653,33.871 48.949,66.547 50.521,116.73c0.53,16.914 -5.194,37.603 -12.566,59.788c-12.312,37.049 -29.472,77.707 -36.814,112.837c-9.99,47.799 -2.098,86.121 42.849,102.057c22.745,8.065 41.743,8.643 57.919,4.366c35.717,-9.445 58.718,-44.522 77.583,-86.23c11.627,-25.706 22.11,-53.712 35.292,-77.077c11.181,-19.817 23.926,-36.414 42.769,-42.55c19.331,-6.296 39.759,-0.282 60.994,10.237c24.822,12.297 50.357,31.069 76.007,49.3c27.459,19.516 55.062,38.409 81.909,49.587c30.496,12.698 60.244,15.668 88.346,2.208c25.649,-12.286 39.909,-28.675 46.606,-46.103c6.421,-16.713 5.967,-34.793 0.377,-52.503c-1.433,-4.539 -3.212,-9.057 -5.29,-13.513c21.33,2.274 42.686,-5.083 59.205,-33.816c32.614,-56.729 8.644,-98.837 -21.406,-125.183Zm-534.954,-248.545c62.107,-6.18 119.287,10.582 168.759,25.268c35.731,10.607 67.778,20.141 95.114,21.247c34.798,1.409 68.597,-5.089 102.409,-10.71c30.938,-5.143 61.893,-9.571 93.838,-4.533c9.802,1.546 21.09,3.405 30.83,7.6c6.657,2.866 12.717,6.759 15.379,13.722c2.431,7.827 2.589,14.162 0.701,19.329c-2.918,7.981 -10.12,12.711 -16.923,16.125c-10.339,5.188 -20.823,7.241 -24.306,8.273c-11.865,3.514 -13.107,13.356 -13.249,15.456c-0.338,5.009 0.771,11.226 8.308,15.626c2.878,1.68 6.194,2.459 9.519,2.235c10.589,-0.711 25.078,-1.387 39.408,1.091c12.043,2.083 24.177,6.295 32.55,16.005c7.259,8.418 11.297,20.765 11.127,38.264c-0.171,17.576 -11.64,25.872 -23.68,30.206c-16.081,5.788 -33.597,5.568 -39.425,5.906c-15.635,0.906 -17.949,14.815 -17.96,16.93c-0.036,6.439 3.642,12.323 9.446,15.113c25.865,12.431 78.434,46.88 45.617,103.961c-5.241,9.115 -10.978,14.427 -17.521,16.454c-6.632,2.054 -13.619,0.851 -20.443,-1.311c-12.272,-3.888 -24.031,-11.189 -33.607,-16.885c-7.42,-4.414 -16.983,-2.43 -22.035,4.571c-5.052,7.001 -3.922,16.701 2.605,22.353c12.677,10.976 24.104,25.123 30.896,40.199c5.847,12.978 8.38,26.655 3.595,39.109c-4.183,10.887 -13.867,20.321 -29.89,27.996c-19.461,9.322 -40.013,5.876 -61.133,-2.917c-24.766,-10.312 -50.082,-27.982 -75.411,-45.985c-32.866,-23.36 -65.758,-47.23 -97.138,-59.356c-24.007,-9.277 -47.344,-11.921 -69.496,-4.706c-21.509,7.005 -38.426,22.498 -52.359,43.064c-18.059,26.655 -31.161,62.264 -45.751,94.521c-7.697,17.016 -15.796,33.037 -25.718,45.708c-8.309,10.611 -17.811,18.806 -30.015,22.033c-10.701,2.83 -23.213,1.778 -38.26,-3.557c-27.328,-9.689 -27.433,-34.758 -21.359,-63.821c7.106,-33.999 23.903,-73.288 35.818,-109.144c8.78,-26.419 14.882,-51.203 14.251,-71.343c-1.79,-57.132 -31.103,-95.081 -55.753,-133.641c-20.651,-32.303 -37.323,-65.301 -20.434,-116.371c11.662,-35.264 39.211,-77.868 101.696,-84.085l-0,-0Z" style="fill:#7e4021;"/><path d="M3629.71,2188.93c7.133,2.4 15.248,-0.295 19.419,-6.951c4.885,-7.794 2.523,-18.088 -5.271,-22.973c-0.676,-0.423 -3.406,-1.903 -8.21,-2.898c-13.934,-2.885 -76.135,-12.421 -85.308,-14.685c-8.93,-2.205 -17.971,3.256 -20.175,12.187c-2.205,8.93 3.256,17.97 12.187,20.175c9.305,2.297 72.4,12.036 86.537,14.964l0.821,0.181Z" style="fill:#7e4021;"/><path d="M3587.1,2226.98c-5.498,0.871 -12.123,-1.373 -18.753,-3.662c-9.525,-3.289 -18.911,-7.476 -26.236,-9.857c-8.748,-2.844 -18.159,1.949 -21.003,10.697c-2.844,8.748 1.95,18.159 10.698,21.003c8.808,2.864 20.592,8.327 32.023,11.713c10.12,2.999 20.081,4.361 28.491,3.028c9.085,-1.441 15.291,-9.986 13.851,-19.071c-1.441,-9.085 -9.986,-15.292 -19.071,-13.851Z" style="fill:#7e4021;"/><path d="M3911.73,2407.61c-120.764,-84.976 -175.26,-74.989 -254.141,-111.355c-8.354,-3.851 -18.262,-0.195 -22.113,8.158c-3.852,8.354 -0.196,18.262 8.157,22.114c77.177,35.579 130.76,25.204 248.915,108.344c7.523,5.294 17.928,3.484 23.222,-4.039c5.293,-7.523 3.483,-17.928 -4.04,-23.222Z" style="fill:#7e4021;"/><path d="M3975.55,2290.27c-45.853,-33.66 -96.288,-43.144 -146.181,-49.271c-45.19,-5.55 -89.855,-8.008 -128.884,-27.945c-8.191,-4.185 -18.239,-0.931 -22.424,7.26c-4.184,8.192 -0.931,18.24 7.261,22.424c42.454,21.687 90.828,25.309 139.983,31.346c44.452,5.459 89.667,13.067 130.519,43.057c7.415,5.443 17.855,3.842 23.298,-3.573c5.444,-7.415 3.843,-17.855 -3.572,-23.298Z" style="fill:#7e4021;"/><path d="M3913.82,2137.6c-21.396,4.099 -41.474,7.644 -58.603,10.164c-38.838,5.714 -76.749,3.96 -114.896,-5.254c-8.942,-2.16 -17.954,3.346 -20.114,12.287c-2.16,8.942 3.346,17.955 12.288,20.114c42.356,10.231 84.45,12.176 127.574,5.832c17.543,-2.582 38.109,-6.207 60.022,-10.404c9.034,-1.731 14.964,-10.471 13.234,-19.505c-1.731,-9.034 -10.47,-14.964 -19.505,-13.234Z" style="fill:#7e4021;"/><path d="M3396.85,1993.28c21.95,28.723 21.886,135.852 -66.97,206.927c-20.171,16.134 -48.681,17.772 -64.949,-0.116c-19.137,-21.043 -20.398,-67.78 -7.115,-121.224c14.632,-58.875 90.221,-149.466 139.034,-85.587Z" style="fill:#fff;"/><path d="M3410.09,1983.15c-12.874,-16.847 -27.471,-25.075 -42.244,-27.591c-14.677,-2.499 -29.918,0.737 -44.642,8.573c-37.407,19.907 -71.827,71.516 -81.566,110.705c-8.561,34.447 -11.275,66.319 -7.815,91.173c2.687,19.294 9.199,34.756 18.775,45.285c21.968,24.156 60.45,23.706 87.69,1.917c67.37,-53.889 87.29,-127.071 85.219,-176.707c-0.999,-23.95 -7.387,-42.847 -15.417,-53.355l0,-0Zm-26.485,20.239c7.184,9.402 10.214,29.279 8.137,53.217c-3.5,40.333 -23.272,91.378 -72.276,130.575c-13.118,10.494 -31.628,13.321 -42.208,1.687c-5.736,-6.307 -8.81,-15.897 -10.42,-27.455c-2.982,-21.419 -0.229,-48.85 7.149,-78.536c6.589,-26.509 26.941,-60.132 51.1,-79.964c11.966,-9.822 24.671,-16.621 37.163,-14.493c7.636,1.3 14.701,6.262 21.355,14.969Z" style="fill:#7e4021;"/><path d="M2971.12,1712.06c41.271,51.116 98.506,117.604 149.407,158.288c43.982,35.153 94.833,70.09 141.076,102.234c22.837,15.873 58.303,29.677 76.959,50.744c28.908,32.644 5.185,111.508 -44.305,117.542c-11.955,1.457 -36.188,-8.162 -41.307,-10.01c-149.59,-54.004 -282.081,-188.933 -360.326,-264.402c-23.349,-22.52 -42.243,-45.011 -57.236,-66.444" style="fill:#c48464;"/><path d="M2958.16,1722.53c41.956,51.964 100.224,119.478 151.97,160.837c44.262,35.378 95.43,70.551 141.969,102.9c21.864,15.198 56.132,27.938 73.993,48.109c10.956,12.371 10.421,33.637 3.976,52.245c-6.398,18.471 -19.203,35.433 -37.82,37.703c-3.16,0.385 -7.562,-0.781 -11.991,-1.941c-9.43,-2.47 -18.758,-6.161 -21.64,-7.202c-147.266,-53.164 -277.385,-186.424 -354.415,-260.721c-22.493,-21.695 -40.705,-43.354 -55.149,-64.001c-5.273,-7.538 -15.673,-9.376 -23.21,-4.104c-7.538,5.273 -9.376,15.673 -4.104,23.21c15.542,22.218 35.119,45.542 59.322,68.887c79.461,76.641 214.324,213.24 366.237,268.082c6.044,2.182 34.871,12.599 48.984,10.878c30.883,-3.765 54.67,-29.241 65.283,-59.881c10.567,-30.506 7.443,-64.973 -10.518,-85.254c-19.451,-21.965 -56.113,-36.831 -79.923,-53.381c-45.948,-31.937 -96.483,-66.639 -140.183,-101.567c-50.056,-40.009 -106.259,-105.471 -146.846,-155.739c-5.778,-7.157 -16.28,-8.276 -23.437,-2.498c-7.157,5.779 -8.276,16.281 -2.498,23.438Z" style="fill:#7e4021;"/><path d="M1577.95,677.144c-0,-0 201.236,48.312 239.584,251.633c38.347,203.322 -196.607,524.401 -487.461,300.329c-290.87,-224.074 1.635,-650.603 247.877,-551.962Z" style="fill:#fdfdfe;"/><path d="M1267.67,778.2c-98.486,131.162 -120.069,331.371 52.238,464.109c91.95,70.837 178.807,89.272 253.968,75.566c87.843,-16.02 160.315,-76.423 206.992,-151.998c46.493,-75.277 67.163,-165.363 53.05,-240.189c-38.508,-204.176 -233.141,-259.782 -250.788,-264.423c-59.218,-23.387 -121.032,-18.776 -177.581,5.41c-21.481,-7.614 -58.887,-21.798 -87.554,-46.119c-40.006,-33.94 -59.793,-84.316 -62.874,-90.448c-5.125,-10.198 -14.064,-9.852 -15.439,-9.841c-5.554,0.044 -10.57,2.185 -14.117,8.002c-0.572,0.938 -2.028,3.13 -2.384,6.786c-5.284,15.164 -31.255,76.02 -25.637,131.677c5.481,54.3 41.158,95.246 67.775,110.208c0.787,0.443 1.57,0.862 2.351,1.26Zm356.765,-66.042c0.218,1.056 0.404,2.122 0.556,3.198c13.418,30.824 131.286,325.482 -152.774,566.846c33.599,7.856 65.639,8.358 95.679,2.88c78.58,-14.33 142.857,-69.115 184.612,-136.721c41.94,-67.906 61.385,-148.995 48.655,-216.495c-24.292,-128.797 -117.543,-191.971 -176.728,-219.708Z" style="fill:#7e4021;"/><path d="M2501.49,922.439c0,-0 201.236,48.312 239.584,251.633c38.347,203.322 -196.606,524.401 -487.461,300.329c-290.87,-224.074 1.635,-650.603 247.877,-551.962Z" style="fill:#fdfdfe;"/><path d="M2757.42,1170.81c0.512,0.014 1.026,0.021 1.545,0.023c30.534,0.11 81.764,-17.918 113.309,-62.454c32.334,-45.648 39.751,-111.398 42.631,-127.195c1.493,-3.356 1.307,-5.981 1.272,-7.08c-0.217,-6.809 -3.525,-11.145 -8.334,-13.923c-1.191,-0.687 -8.797,-5.396 -18.285,0.949c-5.704,3.815 -47.76,37.881 -99.3,47.68c-50.208,9.545 -105.227,-5.17 -115.569,-5.797c-1.647,-0.1 -3.16,-0.06 -4.548,0.097c-68.84,-69.862 -152.212,-93.589 -163.476,-96.551c-104.682,-41.342 -217.474,4.806 -295.024,91.943c-115.238,129.486 -151.855,347.619 31.801,489.101c91.95,70.837 178.807,89.272 253.968,75.566c87.843,-16.02 160.315,-76.423 206.993,-151.998c46.492,-75.277 67.162,-165.363 53.05,-240.189l-0.033,-0.172Zm-209.451,-213.358c0.219,1.056 0.404,2.122 0.556,3.198c13.418,30.824 131.287,325.482 -152.774,566.846c33.599,7.856 65.64,8.358 95.679,2.88c78.581,-14.33 142.857,-69.115 184.612,-136.721c41.941,-67.906 61.386,-148.995 48.655,-216.495c-24.292,-128.797 -117.542,-191.971 -176.728,-219.708Z" style="fill:#7e4021;"/><path d="M1719.67,1442.54c30.658,-12.923 49.125,-52.098 84.527,-57.916c26.285,-4.321 45.422,18.696 51.607,30.682c0.962,1.863 20.71,-16.482 45.778,-7.187c36.161,13.408 40.322,60.768 64.157,98.108c-31.486,25.007 -49.814,57.523 -83.584,64.692c-89.981,19.102 -134.062,-48.871 -162.485,-128.379Z" style="fill:#f8bcc4;"/><path d="M1719.92,1423.73c-7.237,-2.781 -15.681,-0.193 -20.015,6.594c-4.951,7.752 -2.676,18.066 5.076,23.017c0.391,0.249 0.782,0.498 1.157,0.736c31.561,85.123 82.321,153.765 179.479,133.14c19.966,-4.239 35.628,-15.533 50.691,-29.901c12.4,-11.827 24.474,-25.874 39.797,-38.044c1.166,-0.926 2.177,-1.98 3.027,-3.126c15.32,-3.31 30.152,-7.899 44.408,-13.721c0.369,-0.15 0.729,-0.313 1.082,-0.487c11.935,-2.8 37.262,-12.017 46.773,-14.265c1.067,-0.252 2.096,-0.606 3.076,-1.052c3.576,4.183 6.806,8.509 9.541,12.975c4.803,7.845 15.072,10.315 22.917,5.511c7.845,-4.803 10.314,-15.072 5.51,-22.917c-14.189,-23.173 -39.216,-43.694 -60.739,-59.939c-11.349,-8.566 -25.964,-17.539 -36.222,-22.528c-8.272,-4.024 -18.254,-0.575 -22.278,7.697c-4.023,8.272 -0.574,18.255 7.698,22.278c3.857,1.876 8.435,4.423 13.175,7.31c-2.114,6.433 -3.641,14.463 -4.087,17.414c0.014,-0.091 0.058,-0.428 0.058,-0.428c0,0 -4.026,12.381 -6.555,20.464c-10.188,3.753 -20.679,6.798 -31.435,9.124c-9.382,-18.538 -15.677,-38.169 -24.598,-54.056c-9.539,-16.989 -21.759,-30.247 -40.079,-37.04c-18.479,-6.852 -34.829,-2.782 -45.838,1.834c-12.38,-14.785 -33.704,-30.478 -60.044,-26.148c-21.053,3.46 -37.46,16.178 -52.772,30.612c-9.446,8.905 -18.315,18.622 -28.803,24.946Zm33.73,57.161c25.124,50.768 61.715,87.163 125.045,73.719c13.806,-2.931 24.19,-11.479 34.606,-21.414c3.611,-3.444 7.203,-7.059 10.852,-10.759c-53.606,0.977 -111.441,-12.347 -170.503,-41.546Zm184.016,7.604c-5.105,-11.372 -9.559,-22.764 -14.468,-33.218c-6.566,-13.98 -13.508,-26.382 -27.409,-31.537c-10.247,-3.8 -19.079,-0.028 -24.401,2.645c-4.302,2.162 -7.434,3.981 -8.949,4.542c-5.318,1.973 -9.369,1.1 -11.778,0.295c-4.444,-1.484 -7.609,-4.291 -9.667,-8.279c-4.173,-8.087 -16.358,-24.794 -34.093,-21.879c-14.353,2.359 -24.874,12.134 -35.313,21.975c-6.82,6.429 -13.561,12.992 -20.591,18.881c65.121,35.774 128.915,50.765 186.669,46.575Z" style="fill:#7e4021;"/><path d="M2475.53,108.024c-78.401,24.921 -123.145,71.813 -166.64,130.201c-84.516,113.455 -126.328,231.736 -168.453,361.843c-41.279,127.492 -82.989,266.507 -167.834,423.659c-4.37,8.094 -1.346,18.213 6.748,22.583c8.094,4.37 18.213,1.347 22.583,-6.748c85.972,-159.238 128.388,-300.041 170.215,-429.227c40.981,-126.571 81.254,-241.825 163.473,-352.197c39.298,-52.754 79.169,-95.83 150.006,-118.347c8.766,-2.786 13.621,-12.166 10.834,-20.932c-2.786,-8.766 -12.165,-13.621 -20.932,-10.835Z" style="fill:#7e4021;"/><path d="M1696.85,381.948c-54.49,-46.513 -108.255,-94.424 -161.107,-143.775c-6.723,-6.278 -17.279,-5.916 -23.557,0.807c-6.277,6.724 -5.916,17.279 0.808,23.557c53.215,49.69 107.35,97.931 162.215,144.764c6.996,5.972 17.525,5.141 23.497,-1.856c5.972,-6.996 5.14,-17.525 -1.856,-23.497Z" style="fill:#7e4021;"/><path d="M1531.85,254.447c-38.891,-26.209 -280.352,-166.899 -232.829,-220.82c74.7,-84.76 207.651,178.115 232.829,220.82Z" style="fill:#dae1a4;"/><path d="M1522.54,268.268c6.458,4.352 15.069,3.652 20.739,-1.687c5.67,-5.338 6.888,-13.891 2.932,-20.599c-15.339,-26.018 -70.252,-132.406 -127.971,-194.854c-16.594,-17.953 -33.542,-32.376 -49.848,-41.029c-14.458,-7.672 -28.669,-10.992 -42.07,-9.516c-14.077,1.551 -27.614,8.196 -39.801,22.024c-9.317,10.572 -12.188,23.098 -9.295,37.185c3.116,15.177 14.328,33.139 31.571,51.701c57.971,62.404 186.123,138.162 213.743,156.775Zm-37.723,-63.569c-38.381,-24.751 -87.387,-57.853 -124.643,-90.185c-19.457,-16.886 -35.661,-33.385 -44.63,-48.315c-2.781,-4.628 -4.819,-8.986 -5.667,-13.113c-0.649,-3.16 -0.439,-6.068 1.652,-8.44c15.985,-18.137 35.555,-11.114 55.821,4.447c42.922,32.956 87.37,103.381 117.467,155.606Z" style="fill:#7e4021;"/><path d="M1616.82,330.536c0.26,-0.289 -0.74,0.338 -1.127,0.3c-23.41,-2.329 -46.942,-11.615 -70.769,-14.376c-31.313,-3.628 -230.665,6.687 -215.356,64.985c14.172,53.968 244.515,-8.441 281.935,-41.457c11.589,-10.225 -22.816,-213.574 -0.381,-263.214c5.759,-12.743 14.497,-24.404 27.646,-30.034c14.52,-6.216 30.7,-3.496 43.129,6.001c61.258,46.811 -41.617,223.789 -65.077,277.795Z" style="fill:#dae1a4;"/><path d="M1596.62,310.711c-16.488,-3.694 -33.061,-8.869 -49.783,-10.807c-22.918,-2.655 -131.923,1.86 -189.776,25.699c-33.387,13.758 -50.084,35.451 -43.618,60.075c2.898,11.033 10.494,19.765 22.793,25.517c12.596,5.891 31.415,8.57 53.829,7.996c54.113,-1.384 131.397,-20.645 182.149,-40.325c23.502,-9.113 41.552,-18.653 50.311,-26.381c2.146,-1.893 4.522,-4.879 6.017,-9.53l0.239,-0.822l0.425,-0.451c2.208,-2.454 3.371,-4.796 3.942,-6.864c17.894,-40.131 71.916,-137.736 82.619,-209.167c5.654,-37.738 -1.12,-68.855 -23.756,-86.153c-17.226,-13.163 -39.684,-16.695 -59.808,-8.079c-17.037,7.294 -28.811,21.98 -36.274,38.491c-5.336,11.806 -8.3,31.215 -9.037,54.739c-1.534,48.969 5.426,117.561 8.77,164.54c0.515,7.251 0.806,14.789 0.958,21.522Zm-18.379,29.562c-11.687,-2.928 -23.428,-5.888 -35.24,-7.257c-20.92,-2.424 -120.431,1.646 -173.24,23.407c-7.661,3.157 -14.234,6.623 -19.038,10.706c-3.476,2.954 -6.113,5.995 -5.04,10.083c0.826,3.142 4.482,3.981 8.547,5.281c9.043,2.893 21.116,3.731 34.982,3.376c50.802,-1.3 123.305,-19.607 170.951,-38.082c6.576,-2.549 12.657,-5.059 18.078,-7.514Zm49.355,-70.471c17.163,-35.341 37.313,-79.139 48.565,-119.123c5.655,-20.094 9.074,-39.107 8.102,-55.254c-0.747,-12.392 -3.938,-22.905 -12.491,-29.441c-7.632,-5.832 -17.533,-7.74 -26.449,-3.922c-9.265,3.967 -14.961,12.597 -19.019,21.576c-4.751,10.512 -6.047,28.91 -6.274,50.816c-0.429,41.255 4.298,93.767 7.566,135.348Z" style="fill:#7e4021;"/><path d="M2635.56,424.132c-25.244,-78.375 53.506,-255.295 118.13,-223.836c101.582,49.45 -48.237,205.199 -118.13,223.836Z" style="fill:#dae1a4;"/><path d="M2619.7,429.242c2.721,8.447 11.584,13.281 20.159,10.994c37.436,-9.982 96.809,-56.027 132.689,-106.856c40.252,-57.022 49.48,-118.356 -11.559,-148.07c-25.505,-12.415 -53.527,-2.84 -78.181,23.186c-27.976,29.532 -52.243,80.794 -62.871,129.83c-7.343,33.878 -8.047,66.667 -0.237,90.916Zm28.19,-27.627c-2.86,-27.096 3.826,-61.452 15.414,-93.529c12.89,-35.682 32.042,-68.787 53.365,-85.583c9.84,-7.75 19.887,-12.014 29.73,-7.222c11.702,5.697 19.13,12.987 22.542,21.885c5.65,14.734 1.076,32.39 -7.8,50.618c-22.476,46.154 -74.477,94.966 -113.251,113.831l-0,-0Z" style="fill:#7e4021;"/><path d="M2620.55,444.853c0.347,0.174 -0.524,-0.623 -0.59,-1.006c-3.985,-23.186 -1.296,-48.34 -4.976,-72.043c-4.836,-31.149 -67.831,-220.567 -119.952,-190.296c-48.251,28.023 73.207,233.451 114.992,260.736c12.939,8.449 199.8,-78.831 253.62,-70.415c13.816,2.16 27.381,7.479 36.308,18.656c9.856,12.342 11.54,28.662 5.693,43.17c-28.821,71.508 -226.795,19.44 -285.095,11.198Z" style="fill:#dae1a4;"/><path d="M2612.55,459.474l0.548,0.289c2.954,1.476 5.521,1.974 7.666,1.974c43.446,6.568 151.908,32.668 223.611,23.975c37.882,-4.592 66.075,-19.403 76.724,-45.826c8.105,-20.108 5.533,-42.696 -8.128,-59.801c-11.566,-14.482 -28.855,-21.924 -46.756,-24.723c-12.801,-2.002 -32.299,0.306 -55.171,5.856c-47.611,11.553 -111.877,36.516 -156.273,52.241c-6.851,2.427 -14.04,4.713 -20.49,6.651c-0.827,-16.876 -0.249,-34.229 -2.831,-50.863c-3.54,-22.798 -36.901,-126.671 -75.277,-176.093c-22.146,-28.522 -47.501,-38.844 -69.516,-26.058c-9.864,5.729 -16.259,15.375 -18.531,28.762c-2.326,13.709 0.1,32.562 6.617,54.015c15.736,51.794 54.869,121.164 87.346,164.849c15.038,20.229 29.038,35.09 38.818,41.477c2.396,1.564 5.906,3.06 10.787,3.264l0.856,0.011Zm69.408,-20.391c38.634,7.138 86.215,14.907 127.752,15.112c20.874,0.104 40.111,-1.66 55.417,-6.895c11.747,-4.017 21.032,-9.891 25.056,-19.875c3.59,-8.909 2.794,-18.961 -3.258,-26.539c-6.29,-7.875 -16.125,-11.069 -25.86,-12.591c-11.397,-1.782 -29.477,1.865 -50.653,7.475c-39.882,10.566 -89.242,29.097 -128.454,43.313Zm-81.064,-28.821c-0.288,-12.045 -0.559,-24.151 -2.383,-35.901c-3.231,-20.811 -33.636,-115.65 -68.666,-160.764c-5.082,-6.545 -10.173,-11.958 -15.387,-15.502c-3.772,-2.564 -7.405,-4.297 -11.06,-2.175c-2.809,1.632 -2.644,5.38 -2.816,9.644c-0.382,9.487 2.023,21.348 6.055,34.62c14.772,48.623 51.714,113.64 82.203,154.651c4.207,5.66 8.245,10.854 12.054,15.427Z" style="fill:#7e4021;"/><path d="M2300.26,719.261c35.903,-96.788 -83.6,-187.04 -78.032,-185.296c21.93,6.868 34.781,32.522 71.908,51.128c40.468,20.281 96.622,41.964 140.693,0.804c38.335,-35.803 35.361,-96.522 15.84,-122.411c-44.416,-58.906 -133.448,-65.188 -199.759,-60.003c-1.475,0.116 -6.603,1.362 -7.7,-0.292c-2.239,-3.376 14.615,-5.602 52.694,-14.481c33.49,-7.809 121.512,-69.594 75.752,-141.395c-56.718,-88.995 -120.289,-14.567 -158.584,22.255c-17.336,16.669 -48.434,64.096 -47.329,62.287c40.998,-67.116 45.871,-146.98 -20.991,-184.469c-57.672,-32.336 -113.308,0.824 -116.24,57.976c-2.002,39.017 6.876,53.073 23.55,88.115c0.941,1.977 9.35,15.445 6.161,17.456c-0.231,0.146 -102.95,-106.01 -186.473,-52.858c-64.891,41.295 -18.186,121.879 16.637,135.865c15.436,6.199 31.341,11.551 47.459,15.685c7.447,1.91 19.321,3.962 22.457,5.25c-17.706,1.96 -173.831,1.021 -176.381,93.84c-1.719,62.591 81.213,95.608 122.877,82.501c26.43,-8.314 49.863,-22.644 73.626,-36.521c0.351,-0.205 5.984,-3.675 6.208,-2.571c3.298,16.273 -154.448,101.437 -79.236,196.069c52.275,65.773 149.467,24.541 165.439,-58.891c4,-20.896 4.684,-42.295 7.142,-63.431c0.15,-1.287 4.365,-17.275 4.435,-16.732c10.993,84.52 61.392,149.047 106.177,161.03c41.767,11.174 97.411,-12.467 111.67,-50.91Z" style="fill:#fff;"/><path d="M2018.15,258.306c-14.536,-9.187 -31.3,-17.964 -49.155,-23.902c-33.918,-11.278 -71.471,-12.488 -106.199,9.612c-47.876,30.467 -47.109,78.138 -28.98,115.266c10.85,22.22 28.232,40.073 43.985,48.122c-14.859,3.115 -30.142,7.415 -44.288,13.398c-37.568,15.887 -67.04,43.144 -68.257,87.457c-1.038,37.784 22.612,67.195 53.672,84.629c29.004,16.279 64.03,21.52 88.303,14.972c-35.081,40.993 -59.447,94.641 -14.888,150.705c61.255,77.07 176.141,31.635 194.856,-66.127l0.675,-3.714c9.651,21.221 21.559,39.762 34.531,54.811c19.353,22.453 41.271,37.224 61.872,42.736c29.194,7.811 64.261,1.337 91.19,-15.019c18.756,-11.392 33.471,-27.479 40.413,-46.194c14.65,-39.495 6.959,-78.071 -9.216,-111.125c-0.982,-2.006 -1.995,-3.991 -3.04,-5.957c43.777,19.201 98.501,31.265 142.575,-9.898c26.86,-25.086 36.632,-60.54 35.005,-91.505c-1.124,-21.412 -7.775,-40.578 -17.233,-53.121c-30.072,-39.881 -78.903,-58.144 -128.76,-64.812c14.326,-9.05 29.316,-21.356 41.258,-36.171c24.659,-30.592 36.796,-70.868 9.236,-114.112c-20.515,-32.189 -42.56,-45.641 -63.517,-48.909c-20.031,-3.123 -39.951,3.11 -58.572,14.502c-18.951,11.594 -36.594,28.63 -51.511,43.268c3.467,-46.371 -13.852,-88.937 -59.208,-114.367c-34.673,-19.441 -68.773,-18.456 -94.606,-4.758c-26.326,13.959 -44.633,41.402 -46.43,76.417c-1.197,23.344 1.026,38.527 6.289,53.796Zm266.478,455.159c-5.677,15.305 -20.024,27.213 -36.677,34.634c-17.417,7.76 -37.668,10.624 -55.059,5.971c-15.228,-4.074 -30.933,-15.701 -45.239,-32.298c-23.446,-27.2 -42.592,-67.681 -48.718,-114.781c-0.48,-3.685 -1.891,-6.027 -2.928,-7.49c-4.991,-7.053 -11.429,-8.621 -18.789,-6.214c-0.82,0.268 -7.781,1.957 -10.758,10.882c-0.885,2.651 -4.881,18.387 -5.043,19.779c-2.411,20.732 -3.033,41.726 -6.957,62.223c-13.233,69.127 -92.709,106.15 -136.022,51.654c-25.94,-32.638 -17.45,-63.907 0.129,-90.186c13.482,-20.155 32.049,-37.679 47.355,-51.502c15.575,-14.066 28.001,-25.223 31.933,-31.77c3.647,-6.074 3.93,-11.489 3.106,-15.552c-1.387,-6.841 -5.494,-11.498 -12.92,-13.157c-2.143,-0.478 -5.815,-0.799 -10.133,0.709c-2.73,0.953 -7.497,3.706 -7.893,3.938c-22.688,13.249 -44.989,27.077 -70.223,35.014c-17.341,5.455 -43.134,0.521 -64.549,-11.499c-20.396,-11.448 -37.348,-29.834 -36.666,-54.645c0.822,-29.95 22.528,-46.935 47.919,-57.672c45.329,-19.17 103.435,-18.932 113.634,-20.061c7.57,-0.837 13.609,-6.701 14.671,-14.243c1.061,-7.542 -3.126,-14.844 -10.171,-17.738c-3.448,-1.417 -16.459,-3.877 -24.649,-5.978c-15.415,-3.954 -30.626,-9.078 -45.388,-15.007c-11.047,-4.437 -23.029,-17.856 -30.824,-33.82c-11.359,-23.262 -13.073,-53.429 16.923,-72.518c25.411,-16.17 52.967,-14.356 77.784,-6.103c41.112,13.671 75.431,44.825 85.265,54.128c2.086,1.973 3.318,3.163 3.561,3.372c9.71,8.365 18.818,2.12 19.806,1.498c5.194,-3.276 9.449,-9.254 8.329,-18.5c-0.727,-6.004 -7.336,-18.124 -8.331,-20.216c-15.184,-31.909 -23.778,-44.57 -21.955,-80.099c1.135,-22.139 12.111,-39.85 28.755,-48.675c17.138,-9.088 39.687,-8.515 62.689,4.383c58.317,32.697 50.678,102.704 14.919,161.243c-3.556,5.822 12.948,40.432 28.635,17.145c4.187,-6.216 29.579,-44.413 44.469,-58.73c14.674,-14.11 33.117,-34.104 53.57,-47.417c12.386,-8.062 25.421,-13.88 38.865,-11.783c13.813,2.153 27.019,12.671 40.542,33.888c18.201,28.56 9.207,55.074 -7.078,75.278c-17.771,22.047 -43.868,37.54 -58.404,40.929c-33.315,7.768 -51.603,11.575 -56.4,14.4c-5.849,3.444 -7.941,7.932 -8.826,11.391c-1.174,4.591 -0.743,9.353 2.428,14.134c2.237,3.372 5.686,6.208 10.585,7.543c3.567,0.973 12.806,0.102 12.806,0.102c0,-0 -0.361,0.039 -0.502,0.05c31.611,-2.472 68.644,-2.304 103.062,5.596c32.23,7.398 62.262,21.529 82.09,47.826c6.159,8.168 9.829,20.857 10.561,34.801c1.159,22.068 -5.327,47.516 -24.47,65.395c-38.184,35.662 -86.787,14.048 -121.849,-3.524c-20.653,-10.35 -33.089,-23.204 -44.216,-33.085c-9.948,-8.833 -19.273,-15.632 -30.179,-19.048c-2.375,-0.744 -4.263,-0.817 -5.583,-0.78c-7.895,0.224 -11.958,4.463 -14.295,8.855c-1.615,3.034 -2.949,7.308 -1.177,12.914c0.284,0.898 1.7,4.692 6.399,9.154c8.499,8.069 43.932,39.011 64.176,80.381c12.366,25.271 19.105,54.687 7.905,84.881Z" style="fill:#7e4021;"/><path d="M2239.58,517.309c29.152,-64.428 -10.672,-131.44 -38.057,-155.472c-17.608,-15.451 -39.872,-24.815 -62.337,-31.735c-107.631,-33.154 -210.642,64.687 -173.524,175.252c55.726,165.992 234.23,99.67 273.918,11.955Z" style="fill:#ffce7b;"/><path d="M2254.76,524.179c32.765,-72.413 -11.469,-147.859 -42.249,-174.869c-19.362,-16.991 -43.721,-27.527 -68.424,-35.136c-120.574,-37.141 -235.811,72.624 -194.23,196.484c18.613,55.443 50.093,87.14 85.448,102.366c41.312,17.792 88.698,12.999 129.606,-5.306c40.594,-18.166 74.477,-49.567 89.849,-83.539Zm-30.369,-13.741c-12.411,27.429 -40.319,52.187 -73.095,66.854c-32.462,14.526 -70.023,19.236 -102.806,5.117c-28.156,-12.126 -52.21,-38.206 -67.033,-82.359c-32.654,-97.27 58.129,-183.187 152.817,-154.02c20.228,6.231 40.397,14.422 56.251,28.334c23.991,21.054 59.404,79.631 33.866,136.074Z" style="fill:#7e4021;"/><path d="M1822.01,506.123c48.68,12.861 104.896,5.42 115.232,-54.461c6.007,-34.806 -0.91,-60.131 -15.011,-77.518c-13.273,-16.366 -33.133,-25.878 -55.773,-29.285c-21.139,-3.18 -44.725,-1.013 -67.192,5.545c32.645,-43.675 50.163,-108.501 -9.568,-138.779c-31.504,-15.97 -57.744,-16.799 -78.507,-8.43c-19.543,7.878 -34.471,24.067 -44.38,44.706c-9.251,19.271 -14.11,42.452 -14.444,65.855c-32.154,-44.037 -88.971,-79.83 -135.463,-31.633c-24.523,25.421 -33.026,50.258 -31.127,72.564c1.788,20.996 12.875,40.021 29.692,55.557c15.702,14.506 36.432,25.962 58.704,33.157c-51.542,17.795 -102.45,61.586 -70.042,120.189c17.093,30.909 38.336,46.335 60.215,51.074c20.594,4.461 42.037,-0.547 61.829,-12.056c18.479,-10.746 35.521,-27.195 48.942,-46.369c1.865,54.495 28.764,116.023 94.302,102.266c34.568,-7.256 55.555,-23.028 66.514,-42.549c10.315,-18.374 11.829,-40.342 6.644,-62.642c-3.721,-16.001 -10.911,-32.18 -20.567,-47.191Z" style="fill:#fed7dc;"/><path d="M1851.96,527.866c47.264,2.895 91.783,-15.878 101.707,-73.369c7.054,-40.87 -1.933,-70.435 -18.49,-90.851c-15.812,-19.497 -39.268,-31.209 -66.238,-35.268c-11.656,-1.754 -23.987,-2.064 -36.503,-1.036c21.91,-47.165 21.394,-101.894 -35.201,-130.583c-36.993,-18.752 -67.894,-18.849 -92.274,-9.022c-23.281,9.385 -41.369,28.364 -53.173,52.951c-5.102,10.626 -9.022,22.321 -11.717,34.586c-38.645,-34.801 -91.109,-50.39 -135.162,-4.723c-28.794,29.85 -37.967,59.358 -35.737,85.55c2.129,25.011 14.955,47.877 34.988,66.385c8.658,7.999 18.685,15.183 29.617,21.362c-44.621,26.713 -74.937,72.281 -44.23,127.807c20.071,36.295 45.581,53.733 71.271,59.298c24.533,5.314 50.159,-0.227 73.736,-13.937c10.19,-5.926 20.003,-13.399 29.122,-22.032c12.422,50.5 47.07,92.867 109.168,79.832c40.59,-8.52 64.755,-27.78 77.623,-50.701c12.288,-21.889 14.521,-48.011 8.344,-74.576c-1.679,-7.222 -3.985,-14.481 -6.851,-21.673l-0,0Zm-25.692,-37.857c-6.648,-1.756 -13.692,0.751 -17.736,6.312c-4.044,5.562 -4.258,13.036 -0.538,18.819c8.589,13.351 15.041,27.717 18.35,41.949c4.194,18.036 3.399,35.847 -4.944,50.708c-9.051,16.123 -26.854,28.404 -55.404,34.397c-53.707,11.274 -72.693,-41.867 -74.221,-86.525c-0.245,-7.165 -5.045,-13.371 -11.918,-15.409c-6.874,-2.038 -14.281,0.548 -18.392,6.421c-11.996,17.137 -27.152,31.916 -43.668,41.519c-16.007,9.309 -33.266,13.783 -49.922,10.175c-18.07,-3.914 -35.041,-17.322 -49.158,-42.851c-26.558,-48.024 18.659,-81.786 60.896,-96.369c6.777,-2.34 11.298,-8.751 11.226,-15.92c-0.071,-7.17 -4.72,-13.49 -11.542,-15.694c-19.904,-6.43 -38.484,-16.575 -52.517,-29.539c-13.601,-12.566 -22.949,-27.748 -24.395,-44.729c-1.569,-18.423 6.262,-38.584 26.515,-59.579c38.1,-39.497 83.658,-6.197 110.008,29.89c4.228,5.791 11.685,8.228 18.517,6.053c6.831,-2.175 11.506,-8.475 11.608,-15.644c0.298,-20.915 4.536,-41.656 12.804,-58.879c8.014,-16.693 19.78,-30.089 35.586,-36.461c17.149,-6.912 38.721,-5.352 64.741,7.838c48.948,24.812 30.505,78.144 3.753,113.935c-4.292,5.742 -4.431,13.587 -0.344,19.478c4.086,5.89 11.482,8.508 18.364,6.499c20.08,-5.861 41.15,-7.905 60.042,-5.062c18.311,2.755 34.573,10.064 45.308,23.301c11.647,14.36 16.494,35.438 11.532,64.185c-8.363,48.453 -55.161,51.589 -94.551,41.182Z" style="fill:#7e4021;"/><path d="M1789.03,523.379c67.072,-66.878 31.728,-128.14 9.88,-156.697c-62.073,-81.134 -176.172,-45.122 -207.019,38.863c-43.039,117.18 101.099,213.594 197.139,117.834Z" style="fill:#fee4a8;"/><path d="M1800.8,535.181c30.542,-30.453 41.932,-60.136 43.61,-86.57c2.512,-39.567 -17.37,-72.592 -32.261,-92.056c-70.677,-92.381 -200.778,-52.383 -235.9,43.244c-29.519,80.367 18.052,152.158 84.493,173.114c43.986,13.873 96.451,5.748 140.058,-37.732Zm-23.536,-23.605c-33.225,33.129 -72.982,40.117 -106.496,29.547c-49.808,-15.709 -85.359,-69.583 -63.23,-129.831c26.572,-72.347 124.666,-104.373 178.137,-34.482c11.327,14.805 27.38,39.593 25.469,69.689c-1.27,20.008 -10.763,42.028 -33.88,65.077Z" style="fill:#7e4021;"/><path d="M3075.7,793.548c46.883,18.36 103.582,17.416 120.718,-40.884c9.96,-33.887 5.994,-59.838 -6.02,-78.728c-11.308,-17.781 -29.946,-29.507 -52.046,-35.489c-20.634,-5.584 -44.313,-6.137 -67.384,-2.199c37.439,-39.642 62.278,-102.031 6.414,-138.961c-29.464,-19.478 -55.436,-23.312 -77.022,-17.379c-20.318,5.584 -37.004,19.953 -49.215,39.32c-11.401,18.082 -18.887,40.553 -21.902,63.763c-26.891,-47.435 -79.227,-89.509 -130.941,-46.963c-27.277,22.44 -38.573,46.138 -39.245,68.515c-0.632,21.062 8.2,41.233 23.123,58.596c13.934,16.211 33.213,29.97 54.513,39.672c-53.243,11.765 -108.838,49.428 -83.366,111.361c13.435,32.666 32.767,50.427 53.958,57.644c19.947,6.794 41.823,4.279 62.804,-4.884c19.59,-8.555 38.406,-22.941 53.939,-40.449c-4.399,54.349 15.265,118.557 81.949,112.408c35.171,-3.243 57.829,-16.503 70.954,-34.638c12.355,-17.07 16.379,-38.719 13.786,-61.467c-1.861,-16.322 -7.147,-33.219 -15.017,-49.238Z" style="fill:#fed7dc;"/><path d="M3102.96,818.583c46.621,8.297 93,-5.245 109.452,-61.219c11.696,-39.791 6.16,-70.192 -7.947,-92.372c-13.47,-21.181 -35.428,-35.507 -61.754,-42.633c-11.379,-3.079 -23.593,-4.802 -36.143,-5.217c27.175,-44.34 32.941,-98.766 -19.991,-133.758c-34.597,-22.872 -65.283,-26.513 -90.629,-19.547c-24.205,6.652 -44.35,23.431 -58.897,46.502c-6.287,9.971 -11.523,21.139 -15.607,33.014c-34.397,-39.005 -84.727,-60.508 -133.727,-20.196c-32.028,26.35 -44.526,54.611 -45.315,80.885c-0.754,25.091 9.365,49.278 27.143,69.961c7.683,8.939 16.82,17.226 26.97,24.619c-47.39,21.417 -82.733,63.207 -58.598,121.889c15.775,38.357 39.116,58.607 63.999,67.082c23.761,8.093 49.854,5.528 74.847,-5.387c10.803,-4.718 21.408,-11.016 31.458,-18.546c6.547,51.591 36.106,97.654 99.29,91.828c41.299,-3.809 67.514,-20.169 82.926,-41.463c14.718,-20.335 19.933,-46.029 16.844,-73.126c-0.84,-7.367 -2.299,-14.843 -4.321,-22.316l0,0Zm-21.179,-40.554c-6.403,-2.507 -13.688,-0.825 -18.343,4.236c-4.656,5.061 -5.725,12.461 -2.693,18.633c7,14.248 11.762,29.258 13.417,43.776c2.097,18.398 -0.735,36.001 -10.728,49.807c-10.84,14.978 -29.935,25.136 -58.984,27.814c-54.646,5.039 -67.41,-49.929 -63.806,-94.467c0.579,-7.146 -3.478,-13.862 -10.072,-16.675c-6.595,-2.813 -14.25,-1.094 -19.008,4.27c-13.881,15.647 -30.633,28.59 -48.141,36.236c-16.97,7.41 -34.627,9.875 -50.76,4.381c-17.502,-5.961 -32.822,-21.228 -43.918,-48.208c-20.874,-50.753 27.917,-79.106 71.548,-88.747c7,-1.547 12.227,-7.398 12.979,-14.528c0.751,-7.13 -3.142,-13.941 -9.666,-16.913c-19.036,-8.671 -36.33,-20.881 -48.783,-35.369c-12.07,-14.043 -19.614,-30.197 -19.103,-47.232c0.555,-18.481 10.646,-37.611 33.174,-56.144c42.379,-34.866 83.817,3.44 105.854,42.312c3.536,6.237 10.664,9.514 17.7,8.137c7.036,-1.377 12.403,-7.1 13.327,-14.21c2.694,-20.743 9.283,-40.86 19.473,-57.021c9.876,-15.664 23.1,-27.622 39.533,-32.138c17.829,-4.9 39.079,-0.876 63.414,15.212c45.779,30.263 21.341,81.127 -9.34,113.613c-4.923,5.212 -5.96,12.989 -2.577,19.31c3.384,6.321 10.431,9.769 17.498,8.563c20.619,-3.519 41.785,-3.133 60.226,1.858c17.874,4.838 33.191,13.964 42.337,28.345c9.922,15.601 12.319,37.096 4.093,65.084c-13.866,47.174 -60.715,44.921 -98.651,30.065Z" style="fill:#7e4021;"/><path d="M3040.96,806.907c74.301,-58.742 46.217,-123.654 27.789,-154.529c-52.357,-87.719 -169.833,-65.033 -210.11,14.86c-56.197,111.469 75.931,223.781 182.321,139.669Z" style="fill:#fee4a8;"/><path d="M3051.3,819.981c33.834,-26.749 48.554,-54.929 53.253,-80.996c7.034,-39.017 -8.928,-74.105 -21.489,-95.149c-59.614,-99.878 -193.443,-75.068 -239.304,15.899c-38.542,76.451 0.48,153.225 64.078,181.663c42.105,18.827 95.156,16.774 143.462,-21.417l0,0Zm-20.673,-26.148c-36.806,29.099 -77.102,31.48 -109.182,17.135c-47.678,-21.319 -76.813,-78.915 -47.92,-136.227c34.696,-68.821 135.816,-89.383 180.917,-13.821c9.554,16.007 22.657,42.473 17.307,72.151c-3.557,19.73 -15.513,40.516 -41.122,60.762l0,-0Z" style="fill:#7e4021;"/><path d="M2463.64,680.184c-28.855,51.044 -37.063,116.57 27.344,145.886c37.438,17.04 68.009,16.722 91.758,5.968c22.354,-10.122 38.931,-29.688 49.45,-54.187c9.823,-22.875 14.342,-50.085 13.585,-77.331c39.567,49.666 107.426,88.533 159.164,30.18c27.289,-30.778 35.967,-60.093 32.667,-85.953c-3.107,-24.342 -16.939,-45.936 -37.265,-63.19c-18.979,-16.11 -43.66,-28.426 -69.926,-35.708c59.1,-23.226 116.191,-76.669 75.617,-143.269c-21.4,-35.128 -46.871,-52.038 -72.56,-56.482c-24.18,-4.183 -48.885,2.693 -71.35,17.052c-20.976,13.407 -40,33.38 -54.679,56.346c-4.835,-63.315 -39.142,-133.589 -114.725,-114.376c-39.866,10.133 -63.513,29.511 -75.309,52.76c-11.103,21.884 -11.791,47.518 -4.666,73.211c6.651,23.989 20.152,48.042 37.791,68.821c-61.941,-13.983 -139.194,-1.839 -143.038,76.053c-2.028,41.083 9.546,69.38 28.302,87.487c17.656,17.044 41.956,25.233 68.608,25.973c19.124,0.531 39.473,-2.794 59.232,-9.241Z" style="fill:#ffce7b;"/><path d="M2434.34,704.192c-18.585,52.316 -12.202,108.853 49.74,137.047c43.037,19.59 78.235,18.344 105.537,5.982c26.025,-11.785 45.643,-34.272 57.89,-62.794c5.927,-13.805 10.118,-29.051 12.54,-44.951c45.993,39.957 108.215,57.714 157.364,2.281c31.371,-35.382 40.524,-69.392 36.729,-99.121c-3.617,-28.339 -19.347,-53.698 -43.012,-73.786c-11.453,-9.722 -24.795,-18.207 -39.281,-25.194c51.707,-32.222 86.964,-86.479 48.42,-149.748c-24.601,-40.382 -54.421,-59.124 -83.952,-64.232c-28.151,-4.87 -57.013,2.714 -83.167,19.431c-12.659,8.091 -24.69,18.35 -35.625,30.144c-15.606,-58.892 -57.108,-108.536 -128.909,-90.284c-45.829,11.649 -72.506,34.645 -86.066,61.372c-12.927,25.477 -14.158,55.293 -5.864,85.205c4.014,14.478 10.285,28.992 18.345,42.91c-60.878,-2.388 -120.525,22.695 -124.177,96.689c-2.331,47.229 11.811,79.485 33.373,100.3c20.554,19.843 48.692,29.781 79.721,30.642c9.9,0.275 20.102,-0.38 30.394,-1.893l0,-0Zm43.809,-15.806c3.384,-5.986 2.745,-13.436 -1.61,-18.758c-4.355,-5.321 -11.532,-7.422 -18.069,-5.289c-17.883,5.836 -36.291,8.906 -53.599,8.426c-22.276,-0.619 -42.739,-7.059 -57.495,-21.304c-15.952,-15.4 -24.956,-39.733 -23.232,-74.675c3.249,-65.811 70.388,-72.431 122.722,-60.616c6.994,1.579 14.213,-1.492 17.927,-7.625c3.714,-6.133 3.089,-13.953 -1.551,-19.419c-16.029,-18.882 -28.392,-40.688 -34.437,-62.488c-5.954,-21.475 -5.811,-42.926 3.469,-61.217c10.032,-19.773 30.646,-35.53 64.552,-44.148c63.861,-16.234 89.916,45.996 94.001,99.492c0.546,7.149 5.602,13.148 12.556,14.895c6.953,1.748 14.245,-1.147 18.106,-7.188c13.339,-20.87 30.549,-39.095 49.611,-51.279c18.776,-12.001 39.323,-18.168 59.533,-14.672c21.848,3.78 42.966,18.853 61.168,48.73c34.281,56.271 -17.546,99.462 -67.48,119.086c-6.672,2.622 -10.92,9.218 -10.548,16.378c0.373,7.16 5.283,13.279 12.192,15.195c23.868,6.617 46.345,17.713 63.592,32.353c16.989,14.421 28.921,32.249 31.518,52.594c2.807,21.994 -5.396,46.609 -28.605,72.786c-43.714,49.303 -100.227,12.455 -133.657,-29.508c-4.468,-5.608 -12.021,-7.73 -18.755,-5.27c-6.734,2.46 -11.14,8.951 -10.941,16.118c0.688,24.759 -3.313,49.505 -12.239,70.292c-8.793,20.476 -22.327,37.12 -41.011,45.58c-20.199,9.147 -46.137,8.539 -77.978,-5.954c-53.849,-24.511 -43.865,-79.839 -19.74,-122.515Z" style="fill:#7e4021;"/><path d="M2453.94,637.942c55.545,95.297 134.99,73.562 173.609,57.377c109.721,-45.982 102.827,-185.147 17.318,-244.685c-119.306,-83.069 -270.461,50.853 -190.927,187.308Z" style="fill:#fed7dc;"/><path d="M2439.54,646.335c24.858,42.649 54.365,63.93 83.146,73.456c43.09,14.262 85.427,1.744 111.304,-9.1c122.781,-51.456 116.086,-207.11 20.399,-273.735c-80.378,-55.964 -173.616,-24.146 -216.068,43.304c-28.129,44.692 -34.286,105.159 1.219,166.075Zm28.798,-16.786c-28.122,-48.249 -24.086,-96.134 -1.806,-131.534c33.162,-52.689 106.022,-77.421 168.81,-33.703c75.333,52.452 82.428,175.125 -14.236,215.636c-20.467,8.577 -53.865,19.478 -87.947,8.198c-22.667,-7.502 -45.242,-25.007 -64.821,-58.597Z" style="fill:#7e4021;"/><path d="M1974.93,2430.68c-200.755,-187.026 -171.63,-388.115 -125.934,-657.818c1.537,-9.069 -4.579,-17.68 -13.648,-19.217c-9.069,-1.536 -17.68,4.579 -19.217,13.649c-47.835,282.325 -74.073,491.997 136.078,687.776c6.73,6.27 17.285,5.896 23.555,-0.834c6.271,-6.731 5.897,-17.286 -0.834,-23.556Z" style="fill:#7e4021;"/></g></svg>