<?xml version="1.0" encoding="UTF-8" standalone="no"?><!DOCTYPE svg PUBLIC "-//W3C//DTD SVG 1.1//EN" "http://www.w3.org/Graphics/SVG/1.1/DTD/svg11.dtd"><svg width="100%" height="100%" viewBox="0 0 1350 1648" version="1.1" xmlns="http://www.w3.org/2000/svg" xmlns:xlink="http://www.w3.org/1999/xlink" xml:space="preserve" xmlns:serif="http://www.serif.com/" style="fill-rule:evenodd;clip-rule:evenodd;stroke-linejoin:round;stroke-miterlimit:2;"><g id="Coffee-Bean-01-Smiley" serif:id="Coffee Bean-01-Smiley"><path d="M760.758,17.191c-168.856,3.353 -356.31,84.167 -478.255,236.758c-178.441,223.286 -268.95,535.555 -265.241,789.111c3.347,228.758 198.373,695.134 625.811,565.696c112.319,-34.013 220.082,40.921 409.995,-54.169c352.141,-176.321 323.022,-821.076 179.509,-1154.69c-108.726,-252.745 -309.726,-385.928 -471.819,-382.708Z" style="fill:#c48464;"/><path d="M760.427,0.527c-173.333,3.443 -365.766,86.381 -490.943,243.017c-180.854,226.304 -272.646,542.775 -268.887,799.76c1.371,93.682 33.987,226.333 100.825,343.254c101.457,177.483 280.764,318.614 546.481,238.15c42.976,-13.014 85.272,-8.956 132.161,-5.7c75.868,5.268 162.892,9.352 280.466,-49.518c145.242,-72.725 228.439,-222.163 265.49,-398.007c54.602,-259.139 9.098,-575.392 -78.133,-778.171c-112.036,-260.44 -320.431,-396.102 -487.46,-392.785l-0,0Zm0.662,33.327c157.159,-3.121 350.762,127.579 456.178,372.631c84.984,197.555 129.332,505.661 76.136,758.125c-34.814,165.225 -111.326,306.741 -247.797,375.074c-110.321,55.238 -192.045,51.014 -263.233,46.071c-51.15,-3.552 -97.25,-7.146 -144.131,7.05c-247.209,74.86 -413.49,-57.669 -507.882,-222.79c-63.728,-111.482 -95.126,-237.874 -96.433,-327.199c-3.659,-250.128 85.567,-558.195 261.596,-778.462c118.711,-148.545 301.187,-227.235 465.566,-230.5l-0,0Z" style="fill:#7e4021;"/><path d="M652.3,1591.74c41.862,-122.244 65.285,-258.731 64.313,-290.634c-3.266,-107.239 -59.265,-201.877 -77.693,-305.995c-39.394,-222.576 39.138,-430.697 100.057,-640.53c22.079,-76.049 33.613,-118.575 36.196,-197.982c2.344,-72.063 -21.677,-133.336 -18.354,-132.98c87.229,9.346 113.134,190.411 95.711,320.233c-18.726,139.536 -97.501,299.923 -108.893,440.428c-22.67,279.597 159.26,546.84 -91.337,807.46Z" style="fill:#9d5e3e;"/><path d="M636.533,1586.34c-2.533,7.394 0.414,15.555 7.086,19.627c6.673,4.071 15.278,2.958 20.695,-2.676c129.42,-134.596 147.432,-270.81 135.735,-409.566c-11.249,-133.448 -51.06,-269.227 -39.8,-408.099c11.37,-140.237 90.109,-300.289 108.8,-439.558c10.801,-80.486 5.243,-180.012 -20.206,-248.858c-19.015,-51.439 -49.842,-85.834 -90.248,-90.163c-7.207,-0.773 -13.003,1.807 -16.757,8.954c-0.915,1.741 -2.603,5.572 -1.754,11.625c1.416,10.093 20.496,64.968 18.431,128.43c-2.529,77.767 -13.92,119.398 -35.543,193.877c-61.627,212.268 -140.315,422.922 -100.463,648.081c18.288,103.332 74.204,197.17 77.445,303.599c0.952,31.263 -22.398,164.93 -63.421,284.727Zm143.559,-1536.16c16.033,11.854 28.036,33.023 37.485,58.586c23.81,64.411 28.54,157.565 18.435,232.866c-18.763,139.803 -97.573,300.524 -108.988,441.298c-11.41,140.724 28.41,278.365 39.809,413.593c9.121,108.197 -0.674,214.868 -74.196,320.305l0.001,-0.001c27.01,-98.769 41.414,-190.605 40.634,-216.231c-3.291,-108.049 -59.373,-203.488 -77.94,-308.393c-38.937,-219.993 39.439,-425.58 99.651,-632.978c22.535,-77.62 34.212,-121.041 36.848,-202.088c1.309,-40.241 -5.885,-81.088 -11.739,-106.957Z" style="fill:#7e4021;"/><path d="M613.087,1166.51c18.637,62.176 58.338,93.269 99.028,100.669c62.015,11.277 129.251,-32.586 137.322,-114.43c0.902,-9.154 -5.797,-17.319 -14.951,-18.222c-9.154,-0.903 -17.319,5.797 -18.222,14.951c-5.861,59.434 -53.151,93.095 -98.185,84.905c-30.679,-5.579 -59.01,-30.566 -73.062,-77.444c-2.641,-8.811 -11.939,-13.821 -20.751,-11.18c-8.811,2.642 -13.82,11.94 -11.179,20.751Z" style="fill:#7e4021;"/><path d="M102.318,1163.67c5.492,20.631 11.802,40.974 18.7,61.18c17.207,50.403 38.594,99.904 67.124,145c4.918,7.774 15.222,10.092 22.996,5.174c7.773,-4.918 10.092,-15.222 5.174,-22.995c-27.135,-42.89 -47.383,-90.012 -63.749,-137.949c-6.65,-19.481 -12.738,-39.093 -18.033,-58.985c-2.367,-8.889 -11.505,-14.185 -20.394,-11.818c-8.889,2.366 -14.184,11.504 -11.818,20.393Z" style="fill:#7e4021;"/><path d="M231.275,1434.36c15.87,19.407 47.758,58.091 59.936,68.24c7.066,5.889 17.584,4.932 23.473,-2.134c5.889,-7.067 4.933,-17.585 -2.134,-23.474c-11.329,-9.441 -40.707,-45.679 -55.47,-63.733c-5.823,-7.121 -16.332,-8.174 -23.453,-2.351c-7.121,5.822 -8.175,16.331 -2.352,23.452Z" style="fill:#7e4021;"/><path d="M363.182,572.391c32.066,-70.38 124.797,-75.247 160.066,15.218c39.877,102.286 -22.911,128.507 -29.345,193.796c-4.74,48.101 57.044,107.413 60.32,149.632c5.06,65.195 -49.272,106.518 -59.01,158.819c-11.746,63.089 37.869,116.467 -21.413,160.259c-49.881,36.848 -119.08,3.583 -130.458,-88.171c-10.655,-85.917 -17.168,-117.564 5.422,-175.632c3.607,-9.273 86.67,-54.944 83.772,-67.229c-6.31,-26.747 -94.72,-51.527 -98.228,-62.2c-20.752,-63.128 17.87,-94.859 28.161,-131.598c14.258,-50.896 -23.419,-99.925 0.713,-152.894Z" style="fill:#7e4021;"/><path d="M908.154,578.94c32.065,-70.381 124.797,-75.248 160.066,15.218c39.876,102.285 -22.911,128.506 -29.345,193.796c-4.74,48.101 57.044,107.413 60.32,149.631c5.06,65.195 -49.272,106.518 -59.01,158.819c-11.746,63.089 37.869,116.467 -21.413,160.259c-49.882,36.848 -119.08,3.584 -130.458,-88.171c-10.655,-85.917 -17.168,-117.564 5.422,-175.632c3.607,-9.273 86.67,-54.944 83.772,-67.229c-6.31,-26.747 -94.72,-51.527 -98.228,-62.199c-20.752,-63.129 17.87,-94.86 28.161,-131.599c14.258,-50.896 -23.42,-99.925 0.713,-152.893Z" style="fill:#7e4021;"/></g></svg>