<?xml version="1.0" encoding="UTF-8" standalone="no"?><!DOCTYPE svg PUBLIC "-//W3C//DTD SVG 1.1//EN" "http://www.w3.org/Graphics/SVG/1.1/DTD/svg11.dtd"><svg width="100%" height="100%" viewBox="0 0 3313 4554" version="1.1" xmlns="http://www.w3.org/2000/svg" xmlns:xlink="http://www.w3.org/1999/xlink" xml:space="preserve" xmlns:serif="http://www.serif.com/" style="fill-rule:evenodd;clip-rule:evenodd;stroke-linejoin:round;stroke-miterlimit:2;"><g id="Coffee-Bean-Character-01" serif:id="Coffee Bean-Character-01"><path d="M1622,2120.52c-3.882,109.501 -121.447,1639.06 -127.026,1813.3c-3.04,94.94 -179.082,119.789 -203.474,-3.515c-13.534,-68.411 76.024,-1706.19 74.659,-1775.92c-2.766,-141.323 257.105,-69.526 255.841,-33.86Z" style="fill:#9d5e3e;"/><path d="M1638.66,2121.11c0.287,-8.089 -4.305,-18.61 -16.522,-27.852c-16.388,-12.398 -49.503,-25.761 -87.182,-33.273c-40.002,-7.976 -85,-9.386 -119.781,2.205c-39.114,13.035 -66.68,41.181 -65.675,92.516c1.366,69.84 -87.901,1710.31 -74.346,1778.83c16.907,85.469 96.588,109.84 158.624,91.556c42.776,-12.607 76.405,-45.364 77.858,-90.742c5.579,-174.232 123.142,-1703.74 127.024,-1813.24Zm-33.437,1.724c-5.631,130.986 -121.368,1637.6 -126.903,1810.45c-0.98,30.581 -25.138,51.339 -53.965,59.835c-45.362,13.37 -104.138,-3.554 -116.502,-66.05c-13.511,-68.3 76.336,-1703.4 74.974,-1773.01c-0.655,-33.459 17.394,-51.745 42.886,-60.241c29.826,-9.939 68.423,-7.977 102.726,-1.138c27.564,5.495 52.428,14.216 67.762,23.307c3.51,2.082 7.363,5.378 9.022,6.852Z" style="fill:#7e4021;"/><path d="M1696.26,2112.93c11.554,108.959 173.593,1639.71 191.383,1813.13c9.693,94.494 187.044,106.931 202.726,-17.78c8.7,-69.192 -155.138,-1730.33 -158.668,-1799.98c-7.155,-141.169 -239.205,-30.86 -235.441,4.63Z" style="fill:#9d5e3e;"/><path d="M1679.69,2114.68c11.554,108.955 173.588,1639.66 191.377,1813.07c4.633,45.164 40.476,75.481 84.032,85.057c63.165,13.886 140.94,-16.014 151.81,-102.459c8.715,-69.302 -155.023,-1733.14 -158.559,-1802.9c-4.977,-98.207 -101.586,-97.692 -178.926,-67.683c-33.876,13.145 -63.145,31.393 -77.221,46.247c-9.96,10.509 -13.324,21.016 -12.513,28.667Zm33.374,-1.373c1.229,-1.571 4.952,-6.181 8.431,-9.147c13.297,-11.339 35.308,-23.742 59.987,-33.318c24.627,-9.556 51.958,-16.329 76.187,-15.799c15.608,0.342 29.862,3.609 40.307,12.344c10.172,8.507 16.089,22.13 17.084,41.749c3.524,69.539 167.463,1727.98 158.776,1797.06c-6.597,52.468 -47.33,75.944 -87.306,76.506c-38.879,0.546 -78.338,-19.684 -82.304,-58.347c-17.681,-172.365 -177.862,-1685.6 -191.162,-1811.05Z" style="fill:#7e4021;"/><path d="M1288.91,3914.19c0.78,-12.543 -50.722,-29.958 -96.867,8.865c-28.617,24.076 -18.128,55.408 -48.209,82.914c-87.375,79.897 -149.097,231.906 -129.182,354.693c17.263,106.438 213.01,159.469 301.285,172.06c55.787,7.957 110.352,4.706 165.627,-5.258c87.713,-15.812 191.051,-62.76 208.258,-131.824c50.414,-202.348 -77.769,-351.151 -65.902,-398.458c5.563,-22.173 -19.388,-59.751 -43.398,-70.491c-39.98,-17.883 -64.276,-4.405 -71.596,-5.772c-16.182,-3.022 -3.233,62.408 -68.886,87.31c-72.646,27.553 -155.004,-31.745 -151.13,-94.039Z" style="fill:#fee4a8;"/><path d="M1510.21,3904.26c-9.87,-1.238 -18.108,3.018 -23.603,15.451c-2.298,5.201 -4.226,13.282 -7.191,22.674c-5.257,16.65 -15.021,38.781 -45.286,50.26c-37.361,14.171 -77.649,1.218 -103.24,-22.687c-16.11,-15.048 -26.599,-34.566 -25.344,-54.734c0.514,-8.268 -5.659,-20.933 -22.405,-27.504c-21.247,-8.335 -63.23,-9.891 -101.827,22.581c-14.074,11.841 -20.669,24.969 -25.627,38.792c-5.219,14.553 -7.525,30.335 -23.099,44.577c-91.042,83.25 -155.137,241.719 -134.387,369.66c7.631,47.052 45.698,85.615 96.224,114.697c70.508,40.582 164.705,63.428 219.159,71.195c57.575,8.212 113.892,4.928 170.938,-5.356c54.971,-9.909 115.752,-31.694 159.516,-62.984c31.477,-22.506 54.201,-50.081 61.957,-81.212c36.399,-146.097 -16.774,-265.229 -48.17,-340.237c-7.416,-17.718 -13.55,-32.73 -16.476,-44.834c-1.293,-5.35 -2.156,-9.796 -1.262,-13.362c3.03,-12.077 0.32,-27.675 -7.205,-42.784c-10.008,-20.092 -28.162,-39.196 -45.553,-46.976c-38.212,-17.092 -73.296,-8.264 -77.119,-7.217Zm-238.079,15.23c0.347,27.484 13.995,54.269 36.005,74.828c34.121,31.872 88.001,48.388 137.815,29.494c46.163,-17.509 59.52,-51.805 66.632,-75.924c1.047,-3.553 2.345,-7.711 3.309,-10.757c0.84,-0.116 1.714,-0.265 2.622,-0.441c9.524,-1.844 28.123,-6.898 55.204,5.215c11.421,5.109 22.754,18.214 29.326,31.409c3.533,7.092 6.134,14.144 4.712,19.813c-1.955,7.791 -1.633,17.613 1.193,29.303c3.25,13.447 9.889,30.19 18.128,49.873c29.482,70.437 80.755,182.116 46.574,319.308c-6.01,24.122 -24.611,44.717 -49,62.155c-40.033,28.623 -95.758,48.231 -146.043,57.296c-53.503,9.645 -106.318,12.863 -160.317,5.161c-51.475,-7.343 -140.588,-28.724 -207.237,-67.086c-40.917,-23.551 -73.77,-53.04 -79.95,-91.143c-19.078,-117.633 40.271,-263.182 123.978,-339.725c17.606,-16.099 23.713,-33.101 29.233,-49.818c3.797,-11.5 6.937,-22.949 18.459,-32.643c22.618,-19.029 46.653,-22.05 62.251,-18.784c2.396,0.501 5.166,1.605 7.106,2.466Z" style="fill:#7e4021;"/><path d="M2091.82,3892.02c-1.658,-12.457 48.496,-33.443 97.251,2.047c30.235,22.01 21.97,54 53.907,79.329c92.765,73.57 164.998,220.874 153.747,344.756c-9.753,107.386 -201.298,174.019 -288.472,192.772c-55.091,11.852 -109.751,12.436 -165.588,6.374c-88.606,-9.619 -194.984,-49.202 -216.993,-116.888c-64.485,-198.314 52.943,-355.742 37.786,-402.1c-7.104,-21.729 15.149,-60.964 38.346,-73.362c38.627,-20.644 63.809,-8.904 71.015,-10.781c15.93,-4.15 7.603,62.028 74.842,82.262c74.4,22.389 152.394,-42.54 144.159,-104.409Z" style="fill:#fee4a8;"/><path d="M1870.38,3897.64c-3.886,-0.777 -39.503,-7.122 -76.422,12.609c-16.803,8.98 -33.572,29.311 -42.145,50.056c-6.447,15.6 -8.056,31.349 -4.186,43.184c1.142,3.494 0.593,7.99 -0.322,13.417c-2.069,12.28 -7.135,27.685 -13.29,45.879c-26.057,77.026 -70.741,199.596 -24.183,342.778c9.921,30.511 34.524,56.424 67.502,76.666c45.852,28.143 108.011,45.61 163.542,51.639c57.627,6.256 114.035,5.581 170.892,-6.65c53.775,-11.568 146.138,-40.965 213.624,-86.394c48.362,-32.555 83.63,-73.693 87.941,-121.165c11.724,-129.081 -63.33,-282.663 -159.988,-359.322c-16.536,-13.114 -19.943,-28.695 -26.17,-42.846c-5.915,-13.442 -13.415,-26.074 -28.285,-36.898c-40.78,-29.685 -82.551,-25.188 -103.16,-15.382c-16.244,7.729 -21.514,20.795 -20.421,29.008c2.667,20.03 -6.427,40.235 -21.441,56.377c-23.852,25.641 -63.131,41.388 -101.395,29.873c-30.995,-9.327 -42.288,-30.719 -48.699,-46.959c-3.618,-9.161 -6.107,-17.087 -8.765,-22.114c-6.353,-12.017 -14.869,-15.684 -24.629,-13.756Zm-3.362,33.188c1.176,2.97 2.762,7.028 4.056,10.498c8.786,23.561 24.517,56.836 71.794,71.063c51.017,15.352 103.605,-4.903 135.406,-39.09c20.513,-22.053 32.249,-49.729 30.668,-77.169c1.874,-0.995 4.56,-2.291 6.914,-2.959c15.331,-4.352 39.519,-3.024 63.416,14.371c12.174,8.862 16.109,20.062 20.704,31.268c6.678,16.288 13.963,32.819 32.656,47.644c88.87,70.482 158.284,211.509 147.505,330.19c-3.492,38.443 -34.195,70.165 -73.359,96.528c-63.794,42.943 -151.187,70.523 -202.02,81.458c-53.326,11.472 -106.237,11.967 -160.285,6.099c-50.796,-5.515 -107.759,-21.165 -149.702,-46.909c-25.552,-15.684 -45.552,-34.924 -53.239,-58.564c-43.721,-134.457 -0.41,-249.458 24.058,-321.789c6.838,-20.213 12.286,-37.38 14.585,-51.022c1.999,-11.859 1.631,-21.679 -0.866,-29.315c-1.816,-5.555 0.284,-12.772 3.31,-20.094c5.63,-13.623 16.016,-27.491 27.051,-33.389c26.165,-13.983 45.072,-10.247 54.702,-9.075c0.918,0.112 1.801,0.199 2.646,0.256Z" style="fill:#7e4021;"/><path d="M1178.18,3984.88c-1.559,-8.292 -9.181,-14.232 -17.769,-13.513c-4.282,0.359 -19.421,5.433 -14.57,22.126c1.613,5.551 15.373,32.965 16.377,34.62c0.709,1.168 1.413,2.339 2.147,3.491c0.773,1.212 1.572,2.407 2.373,3.6c21.75,32.378 51.947,53.225 87.97,67.349c8.564,3.358 18.243,-0.869 21.601,-9.433c3.358,-8.564 -0.869,-18.242 -9.433,-21.6c-29.562,-11.591 -54.62,-28.334 -72.468,-54.904c-0.652,-0.97 -1.304,-1.939 -1.931,-2.924c-0.604,-0.948 -1.18,-1.913 -1.763,-2.874c-0.699,-1.152 -10.594,-21.871 -12.534,-25.938Zm-3.233,13.333c-2.758,3.544 -6.931,5.967 -11.754,6.371c4.868,-0.407 8.84,-2.45 11.754,-6.371Z" style="fill:#7e4021;"/><path d="M2207.24,3954.77c-1.649,4.193 -10.067,25.556 -10.684,26.754c-0.514,0.999 -1.02,2.003 -1.556,2.99c-0.557,1.027 -1.139,2.04 -1.721,3.053c-15.941,27.757 -39.762,46.216 -68.438,59.852c-8.307,3.951 -11.845,13.902 -7.895,22.209c3.951,8.308 13.902,11.845 22.209,7.895c34.944,-16.617 63.604,-39.531 83.03,-73.355c0.715,-1.247 1.428,-2.494 2.114,-3.757c0.651,-1.201 1.271,-2.419 1.896,-3.634c0.886,-1.721 12.689,-30.032 13.909,-35.683c3.668,-16.992 -11.791,-20.992 -16.087,-21.049c-8.617,-0.115 -15.803,6.345 -16.777,14.725Zm4.16,13.074c3.182,3.707 7.288,5.466 12.172,5.531c-4.839,-0.065 -9.171,-2.19 -12.172,-5.531Z" style="fill:#7e4021;"/><path d="M1513.93,4098.12c3.809,-1.918 7.785,-3.518 11.685,-5.266c9.541,-4.275 18.705,-9.176 27.929,-14.008c29.269,-15.335 58.089,-30.943 79.903,-55.431c6.119,-6.869 5.51,-17.413 -1.359,-23.531c-6.868,-6.119 -17.412,-5.51 -23.531,1.359c-19.138,21.484 -44.804,34.623 -70.483,48.076c-8.62,4.517 -17.173,9.12 -26.09,13.116c-5.261,2.358 -10.612,4.547 -15.672,7.28c-6.365,3.438 -7.398,7.384 -8.015,8.997c-1.256,3.282 -1.306,6.211 -0.873,8.773c0.694,4.108 2.749,7.628 6.017,10.257c2.497,2.008 6.315,3.273 8.102,3.539c5.476,0.816 9.547,-0.94 12.387,-3.161Zm2.877,-2.803l0.699,-0.893c-0.445,0.67 -1.041,1.412 -1.869,2.178l0.312,-0.318c0.286,-0.323 0.572,-0.645 0.858,-0.967Zm-12.088,-27.17c-11.708,-0.626 -15.693,9.347 -15.86,9.71l0,-0c2.904,-6.339 9.295,-9.987 15.86,-9.71Zm0.829,0.056l0.057,0.006l-0.026,-0.004l-0.031,-0.002Z" style="fill:#7e4021;"/><path d="M1879.43,4090.95c2.783,2.087 6.872,3.736 12.529,2.797c0.89,-0.148 5.297,-1.388 8.056,-3.687c4.321,-3.601 6.523,-8.575 5.948,-14.482c-0.206,-2.114 -0.802,-4.506 -2.345,-7.055c-0.819,-1.354 -2.353,-4.352 -7.768,-6.804c-5.239,-2.371 -10.731,-4.18 -16.145,-6.162c-9.175,-3.361 -18.029,-7.353 -26.946,-11.253c-26.559,-11.619 -53.083,-22.925 -73.681,-43.014c-6.586,-6.422 -17.146,-6.29 -23.569,0.295c-6.422,6.586 -6.29,17.146 0.295,23.569c23.479,22.897 53.322,36.445 83.595,49.689c9.541,4.173 19.026,8.419 28.843,12.014c3.73,1.366 7.516,2.601 11.188,4.093Zm17.154,-28.592c-2.612,-1.369 -5.939,-2.196 -9.989,-1.51c3.431,-0.549 6.927,0.001 9.989,1.51Zm-10.951,-1.327l-0.03,0.008l0.064,-0.014l-0.034,0.006Z" style="fill:#7e4021;"/><path d="M1701.15,4194.17c-277.704,-266.736 -593.429,-70.502 -675.229,-6.367c-7.238,5.675 -8.508,16.16 -2.832,23.399c5.676,7.239 16.161,8.508 23.399,2.832c76.509,-59.986 371.829,-245.308 631.572,4.177c6.634,6.372 17.193,6.159 23.565,-0.475c6.372,-6.634 6.16,-17.193 -0.475,-23.566Z" style="fill:#7e4021;"/><path d="M1724.97,4222.59c241.601,-267.091 549.194,-102.944 629.722,-48.473c7.619,5.154 17.989,3.153 23.143,-4.467c5.154,-7.619 3.152,-17.989 -4.467,-23.143c-86.097,-58.238 -414.811,-231.839 -673.118,53.722c-6.171,6.822 -5.643,17.37 1.179,23.541c6.822,6.171 17.37,5.642 23.541,-1.18Z" style="fill:#7e4021;"/><path d="M715.889,1456.12c-7.159,-12.834 -132.585,-179.939 -179.535,-299.818c-23.252,-59.37 -43.964,-126.097 -63.201,-186.903c-9.5,-30.028 -12.521,-73.02 -29.042,-100.27c-25.599,-42.226 -118.858,-43.048 -142,8.451c-5.59,12.44 -3.323,41.878 -3.043,48.036c8.18,179.916 109.625,368.513 164.975,478.476c58.63,116.481 135.713,172.139 173.149,178.238c40.79,6.647 101.812,-84.773 78.697,-126.21Z" style="fill:#9d5e3e;"/><path d="M730.444,1448c-7.113,-12.751 -131.923,-178.667 -178.571,-297.776c-23.12,-59.034 -43.701,-125.39 -62.829,-185.852c-9.858,-31.158 -13.539,-75.608 -30.681,-103.884c-15.541,-25.635 -51.007,-40.096 -86.714,-38.938c-35.848,1.162 -70.635,17.809 -84.74,49.198c-6.481,14.424 -4.815,48.486 -4.491,55.625c8.293,182.385 110.628,373.74 166.737,485.213c36.541,72.595 80.129,122.332 117.435,151.966c26.89,21.361 51.104,32.488 67.922,35.228c20.769,3.384 46.933,-10.873 67.441,-35.373c16.28,-19.45 29.282,-44.627 33.833,-67.627c3.549,-17.94 1.946,-34.715 -5.342,-47.78Zm-29.11,16.239c3.052,5.472 3.445,12.328 2.605,19.658c-1.649,14.378 -8.411,30.262 -17.459,44.355c-8.985,13.996 -20.256,26.31 -31.756,33.168c-5.157,3.074 -10.147,5.227 -14.852,4.461c-13.132,-2.14 -31.551,-11.75 -52.549,-28.429c-34.523,-27.425 -74.577,-73.672 -108.393,-140.853c-54.591,-108.455 -155.145,-294.292 -163.213,-471.74c-0.158,-3.493 -1.022,-14.908 -0.523,-26.022c0.247,-5.49 0.553,-10.941 2.12,-14.426c9.04,-20.117 32.44,-28.8 55.416,-29.545c23.12,-0.75 47.066,6.304 57.129,22.903c15.9,26.226 18.261,67.758 27.404,96.657c19.345,61.149 40.189,128.249 63.572,187.954c47.252,120.65 173.294,288.943 180.499,301.859Z" style="fill:#7e4021;"/><path d="M500.367,816.007c-16.792,-20.677 -142.674,-48.987 -244.464,30.022c-13.13,10.192 -22.781,31.782 -20.255,48.662c0.69,4.61 2.487,8.859 5.184,12.695c22.45,31.942 72.233,48.121 134.511,44.831c68.604,-3.625 182.417,-65.537 125.024,-136.21Z" style="fill:#fff;"/><path d="M513.305,805.5c-6.283,-7.736 -24.162,-17.784 -50.449,-23.363c-52.485,-11.139 -141.134,-8.294 -217.172,50.726c-17.325,13.448 -29.852,42.022 -26.519,64.295c1.075,7.187 3.827,13.832 8.031,19.812c24.986,35.55 79.713,55.552 149.026,51.89c45.193,-2.387 108.055,-28.24 137.663,-64.959c11.38,-14.114 18.144,-29.81 18.76,-46.316c0.616,-16.525 -4.791,-34.17 -19.34,-52.085Zm-25.876,21.014c8.41,10.356 12.262,20.276 11.905,29.828c-0.566,15.19 -10.957,28.543 -24.871,40.085c-27.2,22.564 -68.748,37.495 -100,39.146c-55.256,2.92 -100.077,-9.43 -119.996,-37.77c-1.189,-1.692 -2.032,-3.545 -2.336,-5.578c-1.719,-11.488 5.056,-26.094 13.991,-33.03c66.468,-51.592 143.935,-54.188 189.814,-44.451c10.936,2.321 19.965,5.302 26.356,8.548c2.303,1.17 4.195,2.062 5.137,3.222Z" style="fill:#7e4021;"/><path d="M482.282,443.465c8.531,15.682 61.49,-47.037 127.943,24.688c94.788,102.308 -29.411,319.588 -177.315,389.793c-106.365,50.487 -215.656,-19.465 -288.893,-69.144c-47.512,-32.228 -155.479,-190.797 -119.831,-256.559c22.588,-41.669 34.813,-25.706 59.45,-46.563c10.528,-8.913 13.371,-33.87 37.071,-52.266c25.793,-20.022 62.851,-1.141 54.122,-13.655c-29.232,-41.907 -54.958,-77.603 -98.978,-184.373c-25.723,-62.39 -10.662,-145.433 57.196,-150.708c110.482,-8.587 165.805,249.983 178.606,305.01c-0,0 3.11,-28.079 3.863,-34.759c5.287,-46.864 20.109,-94.426 33.013,-138.113c9.356,-31.677 22.002,-72.477 45.559,-96.503c21.819,-22.254 54.149,-39.281 85.782,-27.809c107.65,39.041 39.749,244.05 9.315,321.608c0,-0 -7.539,28.184 -6.903,29.353Z" style="fill:#fff;"/><path d="M146.365,407.952c-11.998,1.243 -25.835,4.5 -35.878,12.296c-14.094,10.941 -22.127,23.721 -28.061,35.203c-3.776,7.306 -5.574,14.135 -9.559,17.509c-10.537,8.92 -18.604,9.597 -26.268,12.869c-11.266,4.81 -22.863,12.273 -37.065,38.472c-7.055,13.013 -9.912,28.899 -8.905,46.68c1.318,23.299 9.339,50.248 21.421,77.461c29.362,66.134 82.67,133.843 112.611,154.153c37.67,25.552 84.682,56.189 135.883,74.075c53.787,18.79 112.041,23.612 169.513,-3.668c92.618,-43.962 176.378,-143.14 207.16,-238.546c21.692,-67.236 17.064,-132.482 -24.766,-177.63c-46.864,-50.582 -88.244,-43.528 -115.836,-34.371l-2.532,0.853l1.013,-4.12c18.844,-48.199 50.781,-142.568 49.988,-219.121c-0.596,-57.637 -19.843,-105.21 -69.532,-123.231c-37.937,-13.758 -77.198,5.12 -103.365,31.808c-25.328,25.834 -39.582,69.391 -49.642,103.451c-8.694,29.433 -18.198,60.6 -25.203,92.144c-16.278,-57.493 -41.295,-129.435 -75.875,-177.587c-27.413,-38.172 -61.142,-61.588 -99.712,-58.59c-41.541,3.229 -67.264,29.855 -78.322,65.63c-10.083,32.618 -7.348,73.222 7.01,108.047c37.254,90.361 61.646,130.674 85.922,166.213Zm321.276,43.477c5.114,9.4 14.399,14.059 29.424,9.765c10.673,-3.051 28.995,-14.241 52.265,-11.057c14.605,1.998 30.909,10.175 48.669,29.343c34.004,36.702 35.129,90.084 17.494,144.741c-28.205,87.423 -104.862,178.385 -189.73,218.668c-48.893,23.208 -98.467,18.298 -144.226,2.313c-48.345,-16.888 -92.596,-46.066 -128.164,-70.193c-27.074,-18.364 -74.307,-80.293 -100.857,-140.093c-8.651,-19.484 -15.092,-38.748 -17.623,-56.222c-2.147,-14.815 -1.666,-28.156 3.945,-38.508c12.36,-22.8 20.722,-23.558 31.25,-27.534c7.223,-2.728 15.068,-6.421 24.317,-14.252c5.629,-4.765 10.166,-12.601 14.949,-22.295c4.458,-9.034 9.764,-20.359 21.573,-29.526c10.618,-8.242 24.026,-6.545 32.473,-5.925c8.308,0.609 14.577,0.114 17.535,-1.007c6.723,-2.548 10.039,-7.212 11.363,-12.727c0.843,-3.512 1.317,-9.361 -3.799,-16.696c-28.725,-41.181 -53.982,-76.271 -97.239,-181.191c-11.365,-27.566 -13.962,-59.678 -5.981,-85.497c7.006,-22.665 22.741,-40.195 49.059,-42.241c17.591,-1.367 33.217,6.303 47.376,18.953c16.471,14.716 30.833,35.956 43.497,60.003c40.263,76.447 62.671,180.812 70.209,213.214c1.84,7.909 9.112,13.341 17.218,12.861c8.106,-0.48 14.686,-6.732 15.58,-14.803c0,-0 3.107,-28.053 3.86,-34.726c5.178,-45.904 19.795,-92.468 32.435,-135.26c8.653,-29.296 19.69,-67.336 41.476,-89.556c17.478,-17.826 42.859,-32.998 68.199,-23.809c36.445,13.218 47.127,49.965 47.565,92.24c0.753,72.75 -30.351,162.425 -48.083,207.612c-0.228,0.582 -0.424,1.177 -0.586,1.781c0,-0 -6.459,24.448 -7.269,30.246c-0.877,6.269 1.164,10.16 1.826,11.378Z" style="fill:#7e4021;"/><path d="M500.012,459.472c8.433,-1.398 14.545,-9.055 13.865,-17.735c-0.718,-9.17 -8.746,-16.033 -17.916,-15.315c-4.896,0.383 -15.088,4.701 -26.455,12.386c-20.273,13.705 -47.513,37.091 -52.476,43.112c-36.769,44.594 -80.285,108.27 -76.921,169.193c5.474,99.135 115.963,89.045 169.41,40.052c6.781,-6.216 7.24,-16.767 1.024,-23.548c-6.215,-6.781 -16.767,-7.24 -23.548,-1.024c-15.321,14.045 -37.329,24.237 -58.464,26.887c-16.505,2.069 -32.655,-0.239 -43.172,-11.155c-7.033,-7.299 -11.148,-18.211 -11.967,-33.049c-2.928,-53.029 37.353,-107.336 69.357,-146.151c4.268,-5.177 27.993,-24.917 45.426,-36.702c4.471,-3.023 10.747,-6.375 11.837,-6.951Z" style="fill:#7e4021;"/><path d="M120.225,788.625c16.122,8.326 41.462,13.701 59.275,17.634c47.226,10.426 96.558,-21.614 110.421,-67.016c8.427,-27.598 0.057,-59.347 -19.457,-91.205c-39.986,-65.28 -126.745,-132.727 -168.577,-163.151c-7.439,-5.41 -17.872,-3.763 -23.282,3.676c-5.41,7.439 -3.763,17.872 3.676,23.282c34.06,24.771 99.743,75.094 141.707,128.044c13.186,16.637 24.005,33.473 30.315,49.833c5.388,13.969 7.51,27.433 3.738,39.787c-9.008,29.503 -40.666,50.976 -71.355,44.2c-15.334,-3.385 -37.287,-7.534 -51.166,-14.701c-8.173,-4.221 -18.235,-1.012 -22.456,7.161c-4.221,8.173 -1.012,18.236 7.161,22.456Z" style="fill:#7e4021;"/><path d="M261.076,679.95c7.435,2.913 15.398,4.934 23.254,6.305c24.032,4.196 48.923,-1.141 63.717,-22.25c17.72,-25.284 14.774,-57.365 -2.572,-90.816c-34.167,-65.889 -125.019,-138.683 -162.633,-161.408c-7.873,-4.757 -18.127,-2.226 -22.884,5.647c-4.756,7.873 -2.226,18.127 5.647,22.884c29.88,18.052 96.19,70.017 134.463,122.955c11.842,16.38 21.001,32.754 24.848,48.198c3.046,12.229 2.627,23.716 -4.166,33.409c-6.983,9.963 -19.344,10.525 -30.687,8.545c-5.679,-0.992 -11.451,-2.399 -16.826,-4.505c-8.565,-3.356 -18.243,0.873 -21.598,9.438c-3.356,8.564 0.873,18.242 9.437,21.598Z" style="fill:#7e4021;"/><path d="M2596.95,1450.07c7.159,-12.833 132.585,-179.939 179.535,-299.818c23.252,-59.369 43.964,-126.097 63.201,-186.903c9.5,-30.028 12.522,-73.02 29.042,-100.27c25.6,-42.225 118.858,-43.048 142,8.451c5.59,12.44 3.324,41.878 3.044,48.036c-8.181,179.917 -109.625,368.513 -164.975,478.476c-58.631,116.481 -135.713,172.139 -173.15,178.239c-40.79,6.646 -101.812,-84.773 -78.697,-126.211Z" style="fill:#9d5e3e;"/><path d="M2582.4,1441.95c-7.288,13.065 -8.891,29.84 -5.341,47.78c4.551,23 17.553,48.177 33.833,67.627c20.507,24.5 46.672,38.757 67.44,35.373c16.818,-2.74 41.032,-13.867 67.923,-35.228c37.305,-29.634 80.893,-79.371 117.434,-151.966c56.109,-111.472 158.445,-302.828 166.737,-485.213c0.325,-7.139 1.991,-41.201 -4.491,-55.624c-14.105,-31.39 -48.892,-48.036 -84.74,-49.199c-35.706,-1.158 -71.172,13.304 -86.714,38.938c-17.142,28.276 -20.823,72.726 -30.68,103.884c-19.128,60.462 -39.709,126.818 -62.83,185.852c-46.648,119.109 -171.458,285.026 -178.571,297.776Zm29.111,16.239c7.204,-12.916 133.246,-181.209 180.498,-301.859c23.383,-59.705 44.227,-126.804 63.573,-187.954c9.142,-28.899 11.504,-70.431 27.403,-96.657c10.064,-16.599 34.009,-23.653 57.13,-22.903c22.975,0.745 46.376,9.428 55.416,29.545c1.566,3.486 1.873,8.936 2.119,14.426c0.499,11.114 -0.364,22.529 -0.523,26.022c-8.068,177.449 -108.621,363.285 -163.212,471.74c-33.816,67.182 -73.87,113.429 -108.394,140.853c-20.997,16.679 -39.417,26.289 -52.549,28.429c-4.705,0.766 -9.694,-1.386 -14.851,-4.461c-11.501,-6.858 -22.771,-19.172 -31.757,-33.167c-9.047,-14.094 -15.809,-29.978 -17.458,-44.356c-0.841,-7.33 -0.448,-14.186 2.605,-19.658Z" style="fill:#7e4021;"/><path d="M2812.47,809.956c16.791,-20.676 142.674,-48.987 244.463,30.022c13.131,10.192 22.781,31.783 20.255,48.663c-0.689,4.61 -2.487,8.858 -5.183,12.695c-22.45,31.941 -72.234,48.12 -134.511,44.83c-68.605,-3.624 -182.418,-65.537 -125.024,-136.21Z" style="fill:#fff;"/><path d="M2799.54,799.45c-14.549,17.915 -19.957,35.559 -19.34,52.084c0.616,16.506 7.379,32.202 18.76,46.316c29.608,36.719 92.469,62.572 137.663,64.959c69.312,3.662 124.039,-16.34 149.025,-51.89c4.204,-5.98 6.956,-12.625 8.032,-19.812c3.332,-22.273 -9.194,-50.847 -26.519,-64.295c-76.038,-59.02 -164.688,-61.864 -217.172,-50.726c-26.288,5.579 -44.167,15.627 -50.449,23.364Zm25.875,21.013c0.942,-1.16 2.834,-2.052 5.138,-3.222c6.39,-3.246 15.42,-6.227 26.356,-8.548c45.879,-9.736 123.345,-7.141 189.813,44.451c8.936,6.936 15.71,21.543 13.991,33.03c-0.304,2.033 -1.147,3.886 -2.336,5.578c-19.919,28.34 -64.74,40.69 -119.996,37.771c-31.252,-1.651 -72.8,-16.583 -100,-39.146c-13.914,-11.543 -24.304,-24.895 -24.871,-40.086c-0.356,-9.552 3.495,-19.472 11.905,-29.828Z" style="fill:#7e4021;"/><path d="M2830.56,437.414c-8.53,15.682 -61.49,-47.036 -127.943,24.688c-94.788,102.308 29.411,319.588 177.315,389.793c106.366,50.487 215.656,-19.465 288.893,-69.144c47.513,-32.228 155.479,-190.797 119.831,-256.558c-22.588,-41.67 -34.813,-25.706 -59.45,-46.564c-10.528,-8.913 -13.37,-33.87 -37.071,-52.266c-25.793,-20.022 -62.85,-1.141 -54.122,-13.655c29.232,-41.907 54.959,-77.603 98.978,-184.373c25.723,-62.39 10.663,-145.433 -57.195,-150.707c-110.483,-8.587 -165.805,249.982 -178.606,305.009c-0,0 -3.11,-28.079 -3.864,-34.759c-5.286,-46.864 -20.108,-94.426 -33.012,-138.113c-9.357,-31.677 -22.003,-72.477 -45.56,-96.503c-21.818,-22.253 -54.148,-39.281 -85.781,-27.809c-107.65,39.041 -39.75,244.05 -9.316,321.608c0,-0 7.539,28.184 6.903,29.353Z" style="fill:#fff;"/><path d="M3005.5,298.188c-7.006,-31.544 -16.51,-62.711 -25.203,-92.144c-10.06,-34.06 -24.314,-77.617 -49.643,-103.45c-26.167,-26.689 -65.427,-45.567 -103.365,-31.809c-49.689,18.021 -68.935,65.594 -69.532,123.231c-0.792,76.554 31.145,170.925 49.99,219.125l1.012,4.116l-2.533,-0.853c-27.591,-9.156 -68.971,-16.211 -115.835,34.371c-41.83,45.148 -46.459,110.395 -24.766,177.63c30.781,95.406 114.542,194.585 207.159,238.546c57.472,27.28 115.726,22.458 169.513,3.669c51.202,-17.886 98.214,-48.524 135.883,-74.076c29.942,-20.309 83.25,-88.019 112.611,-154.153c12.082,-27.213 20.103,-54.162 21.422,-77.461c1.006,-17.78 -1.851,-33.667 -8.905,-46.68c-14.202,-26.199 -25.799,-33.662 -37.065,-38.472c-7.664,-3.272 -15.732,-3.949 -26.269,-12.869c-3.984,-3.374 -5.782,-10.203 -9.559,-17.509c-5.934,-11.482 -13.966,-24.262 -28.061,-35.203c-10.043,-7.796 -23.88,-11.053 -35.877,-12.296c24.276,-35.539 48.667,-75.852 85.922,-166.213c14.357,-34.825 17.092,-75.429 7.01,-108.047c-11.059,-35.775 -36.782,-62.401 -78.323,-65.63c-38.569,-2.998 -72.299,20.418 -99.711,58.59c-34.58,48.153 -59.598,120.094 -75.875,177.587Zm-160.3,147.19c0.662,-1.217 2.703,-5.109 1.827,-11.378c-0.811,-5.798 -7.27,-30.246 -7.27,-30.246c-0.162,-0.604 -0.357,-1.199 -0.586,-1.781c-17.731,-45.187 -48.835,-134.862 -48.082,-207.612c0.437,-42.275 11.119,-79.022 47.565,-92.239c25.339,-9.19 50.721,5.982 68.199,23.808c21.785,22.22 32.823,60.261 41.476,89.556c12.639,42.792 27.256,89.356 32.434,135.261c0.753,6.673 3.86,34.725 3.86,34.725c0.894,8.071 7.475,14.323 15.581,14.803c8.106,0.48 15.378,-4.952 17.218,-12.861c7.538,-32.402 29.945,-136.767 70.208,-213.214c12.665,-24.047 27.027,-45.287 43.497,-60.003c14.159,-12.649 29.785,-20.32 47.376,-18.953c26.318,2.046 42.053,19.576 49.059,42.241c7.981,25.82 5.385,57.932 -5.98,85.498c-43.257,104.919 -68.514,140.009 -97.239,181.19c-5.116,7.335 -4.643,13.184 -3.8,16.696c1.324,5.515 4.641,10.18 11.364,12.728c2.957,1.12 9.227,1.615 17.535,1.006c8.447,-0.619 21.854,-2.317 32.473,5.926c11.809,9.166 17.115,20.491 21.573,29.525c4.783,9.694 9.32,17.53 14.948,22.295c9.249,7.831 17.095,11.524 24.318,14.252c10.527,3.976 18.89,4.734 31.249,27.534c5.612,10.352 6.092,23.693 3.946,38.509c-2.532,17.474 -8.973,36.737 -17.623,56.221c-26.55,59.8 -73.784,121.729 -100.858,140.094c-35.567,24.126 -79.819,53.304 -128.164,70.192c-45.759,15.985 -95.332,20.895 -144.226,-2.313c-84.868,-40.283 -161.524,-131.245 -189.73,-218.668c-17.634,-54.656 -16.509,-108.039 17.494,-144.741c17.76,-19.168 34.064,-27.345 48.669,-29.343c23.27,-3.183 41.593,8.006 52.265,11.057c15.025,4.295 24.311,-0.364 29.424,-9.765Z" style="fill:#7e4021;"/><path d="M2812.83,453.422c1.09,0.576 7.367,3.927 11.838,6.95c17.432,11.785 41.158,31.525 45.426,36.702c32.003,38.815 72.285,93.122 69.357,146.151c-0.82,14.839 -4.934,25.75 -11.967,33.049c-10.518,10.916 -26.668,13.224 -43.172,11.155c-21.135,-2.65 -43.144,-12.842 -58.465,-26.887c-6.781,-6.216 -17.332,-5.757 -23.548,1.024c-6.216,6.781 -5.757,17.332 1.024,23.548c53.447,48.993 163.937,59.083 169.41,-40.051c3.364,-60.924 -40.152,-124.6 -76.92,-169.194c-4.964,-6.02 -32.203,-29.406 -52.476,-43.112c-11.368,-7.685 -21.56,-12.003 -26.455,-12.386c-9.171,-0.718 -17.199,6.145 -17.917,15.315c-0.679,8.68 5.432,16.337 13.865,17.736Z" style="fill:#7e4021;"/><path d="M3177.32,752.957c-13.878,7.167 -35.832,11.316 -51.166,14.701c-30.689,6.776 -62.346,-14.697 -71.355,-44.2c-3.772,-12.354 -1.65,-25.817 3.739,-39.787c6.31,-16.36 17.128,-33.196 30.314,-49.833c41.965,-52.95 107.648,-103.273 141.707,-128.044c7.44,-5.41 9.087,-15.842 3.676,-23.282c-5.41,-7.439 -15.842,-9.086 -23.281,-3.676c-41.833,30.424 -128.592,97.872 -168.577,163.151c-19.514,31.858 -27.885,63.607 -19.458,91.205c13.863,45.402 63.195,77.442 110.421,67.016c17.814,-3.933 43.153,-9.308 59.275,-17.634c8.173,-4.22 11.382,-14.283 7.161,-22.456c-4.22,-8.173 -14.283,-11.382 -22.456,-7.161Z" style="fill:#7e4021;"/><path d="M3039.61,642.863c-5.375,2.106 -11.147,3.513 -16.827,4.505c-11.342,1.98 -23.704,1.418 -30.686,-8.545c-6.794,-9.693 -7.212,-21.18 -4.166,-33.409c3.846,-15.444 13.005,-31.817 24.847,-48.198c38.273,-52.938 104.583,-104.903 134.463,-122.955c7.874,-4.757 10.404,-15.011 5.647,-22.884c-4.757,-7.873 -15.011,-10.403 -22.884,-5.647c-37.614,22.725 -128.465,95.519 -162.633,161.408c-17.346,33.451 -20.292,65.532 -2.571,90.817c14.794,21.108 39.685,26.446 63.717,22.249c7.855,-1.371 15.819,-3.392 23.253,-6.305c8.565,-3.356 12.794,-13.034 9.438,-21.598c-3.356,-8.565 -13.034,-12.794 -21.598,-9.438Z" style="fill:#7e4021;"/><path d="M1788.06,17.54c-263.401,5.232 -555.815,131.295 -746.039,369.324c-278.354,348.308 -419.541,835.424 -413.755,1230.95c5.22,356.845 309.445,1084.35 976.215,882.442c175.209,-53.058 343.311,63.833 639.559,-84.501c549.313,-275.046 503.889,-1280.81 280.02,-1801.22c-169.603,-394.261 -483.148,-602.015 -736,-596.994Z" style="fill:#c48464;"/><path d="M1787.73,0.877c-267.878,5.32 -565.271,133.507 -758.728,375.582c-280.767,351.327 -423.236,842.644 -417.4,1241.6c2.12,144.917 52.658,350.09 156.049,530.954c156.287,273.399 432.346,491.144 841.661,367.195c68.132,-20.632 135.176,-14.431 209.511,-9.269c117.039,8.126 251.305,14.536 432.68,-76.28c224.111,-112.214 352.021,-343.109 409.191,-614.439c84.782,-402.367 14.122,-893.415 -121.323,-1208.27c-172.913,-401.957 -493.853,-612.191 -751.641,-607.071l-0,0Zm0.662,33.327c247.918,-4.924 554.066,200.348 720.359,586.916c133.198,309.634 202.701,792.535 119.326,1188.23c-54.933,260.711 -176.158,483.684 -391.498,591.506c-174.122,87.185 -303.089,80.634 -415.447,72.832c-78.596,-5.457 -149.444,-11.194 -221.481,10.62c-390.808,118.345 -653.841,-90.798 -803.062,-351.834c-100.281,-175.426 -149.601,-374.341 -151.657,-514.9c-5.736,-392.099 134.168,-875.012 410.11,-1220.3c186.99,-233.984 474.425,-357.923 733.35,-363.065l0,-0Z" style="fill:#7e4021;"/><path d="M1618.88,2473.71c65.3,-190.691 101.838,-403.601 100.323,-453.366c-5.095,-167.284 -92.449,-314.913 -121.195,-477.329c-61.452,-347.201 61.052,-671.853 156.081,-999.175c34.442,-118.631 52.434,-184.968 56.463,-308.837c3.656,-112.413 -33.815,-207.993 -28.63,-207.437c136.069,14.579 176.478,297.025 149.301,499.537c-29.212,217.665 -152.095,467.856 -169.866,687.033c-35.363,436.148 248.434,853.026 -142.477,1259.57Z" style="fill:#9d5e3e;"/><path d="M1603.11,2468.31c-2.532,7.395 0.415,15.556 7.087,19.627c6.672,4.071 15.278,2.959 20.695,-2.675c199.577,-207.56 227.2,-417.664 209.163,-631.639c-17.59,-208.666 -79.694,-420.992 -62.088,-638.14c17.75,-218.909 140.596,-468.764 169.772,-686.163c16.655,-124.1 8.216,-277.569 -31.023,-383.721c-28.207,-76.307 -73.081,-128.183 -133.021,-134.605c-5.545,-0.594 -21.323,2.405 -18.64,21.526c2.227,15.869 32.083,102.164 28.837,201.941c-3.976,122.229 -21.825,187.671 -55.811,304.732c-95.736,329.758 -218.395,656.942 -156.487,1006.73c28.607,161.629 115.877,308.457 120.948,474.931c1.496,49.127 -34.969,259.216 -99.432,447.459Zm201.131,-2417.93c36.1,15.295 62.181,55.297 81.209,106.771c37.6,101.718 45.211,248.815 29.252,367.73c-29.247,217.932 -152.166,468.457 -169.959,687.903c-17.757,219 44.356,433.188 62.096,643.634c15.581,184.83 -3.929,366.795 -147.894,546.559l0,-0c50.721,-170.354 78.25,-339.3 76.915,-383.145c-5.12,-168.095 -92.557,-316.524 -121.442,-479.727c-60.995,-344.618 61.353,-666.736 155.675,-991.623c34.897,-120.202 53.032,-187.434 57.115,-312.942c2.399,-73.756 -13.722,-148.816 -22.967,-185.16Z" style="fill:#7e4021;"/><path d="M1432.88,1513.88c-62.05,20.232 -117.615,32.124 -165.256,17.442c-72.584,-22.369 -130.463,-74.24 -188.144,-47.613c-47.431,21.895 -37.328,103.446 -10.157,146.293c99.777,157.339 310.001,160.47 416.618,41.099c78.052,-87.389 47.644,-190.056 -53.061,-157.221Z" style="fill:#fff;"/><path d="M1427.71,1498.03c-58.306,19.011 -110.413,31.156 -155.18,17.359c-35.817,-11.038 -67.972,-29.431 -98.322,-41.703c-35.33,-14.287 -68.583,-20.409 -101.716,-5.114c-24.147,11.147 -37.386,33.904 -41.397,61.335c-5.275,36.074 5.959,80.33 24.15,109.015c106.114,167.333 329.734,170.23 443.123,43.276c53.563,-59.97 58.856,-126.996 32.531,-162.297c-18.786,-25.192 -53.872,-37.951 -103.189,-21.871Zm10.333,31.691c31.279,-10.199 54.219,-5.872 66.134,10.106c7.075,9.487 9.939,22.407 9.034,36.948c-1.58,25.385 -14.575,55.084 -39.704,83.219c-99.845,111.789 -296.673,108.422 -390.112,-38.923c-14.414,-22.73 -23.497,-57.757 -19.318,-86.342c2.293,-15.681 8.582,-29.521 22.385,-35.893c24.553,-11.334 49.07,-4.834 75.25,5.752c31.156,12.599 64.233,31.325 101.001,42.656c50.516,15.569 109.535,3.93 175.33,-17.523Z" style="fill:#7e4021;"/><path d="M1248.8,1526.29c-7.584,13.023 -12.141,32.36 -16.284,46.696c-13.864,47.972 -33.752,104.5 -48.204,152.297c-2.662,8.805 2.325,18.115 11.13,20.777c8.805,2.663 18.115,-2.324 20.777,-11.129c14.489,-47.92 34.42,-104.595 48.32,-152.69c3.46,-11.971 6.732,-28.3 13.066,-39.175c4.629,-7.949 1.934,-18.161 -6.015,-22.79c-7.949,-4.629 -18.16,-1.934 -22.79,6.014Z" style="fill:#7e4021;"/><path d="M1311.34,1544.62c0.767,13.955 3.89,56.776 5.041,70.704c3.443,41.646 5.912,83.211 8.135,124.92c0.489,9.186 8.344,16.246 17.53,15.757c9.185,-0.49 16.245,-8.345 15.756,-17.53c-2.24,-42.035 -4.731,-83.923 -8.201,-125.894c-1.137,-13.747 -4.221,-56.013 -4.978,-69.787c-0.505,-9.185 -8.372,-16.232 -17.557,-15.727c-9.185,0.505 -16.231,8.372 -15.726,17.557Z" style="fill:#7e4021;"/><path d="M1382.94,1533.72c10.335,20.826 54.546,123.267 74.203,155.509c4.789,7.854 15.053,10.343 22.907,5.555c7.854,-4.789 10.343,-15.053 5.554,-22.907c-19.327,-31.701 -62.643,-132.497 -72.805,-152.974c-4.089,-8.24 -14.098,-11.61 -22.338,-7.521c-8.24,4.089 -11.61,14.099 -7.521,22.338Z" style="fill:#7e4021;"/><path d="M1173.25,1495.44c-20.026,34.535 -70.548,120.292 -90.797,154.682c-4.667,7.927 -2.021,18.152 5.905,22.819c7.927,4.667 18.152,2.021 22.819,-5.906c20.274,-34.433 70.859,-120.296 90.909,-154.875c4.614,-7.957 1.9,-18.164 -6.058,-22.778c-7.957,-4.614 -18.164,-1.9 -22.778,6.058Z" style="fill:#7e4021;"/><path d="M1707.27,755.632c113.029,-86.452 188.935,-18.372 206.935,-1.295c120.302,114.127 -17.063,300.342 -51.759,449.588c-26.397,113.547 71.824,297.242 -54.169,374.76c-148.63,91.446 -274.376,-133.842 -295.483,-252.587c-38.525,-216.739 64.986,-471.424 194.476,-570.466Z" style="fill:#fff;"/><path d="M1697.15,742.394c-133.211,101.888 -240.392,363.653 -200.759,586.62c13.209,74.311 65.943,188.494 139.313,247.455c52.426,42.131 114.85,57.303 181.313,16.411c68.87,-42.373 78.334,-113.059 72.314,-189.375c-5.368,-68.052 -23.512,-140.46 -10.646,-195.806c20.873,-89.784 78.714,-192.941 95.665,-285.794c12.32,-67.484 3.93,-129.76 -48.668,-179.659c-12.05,-11.432 -47.47,-43.108 -101.028,-45.978c-34.973,-1.875 -78.095,8.335 -127.504,46.126Zm20.251,26.476c41.016,-31.371 76.436,-40.873 105.469,-39.317c42.448,2.275 70.32,27.815 79.871,36.875c55.284,52.447 49.467,121.736 27.74,194.781c-23.735,79.793 -66.846,164.021 -84.263,238.942c-13.53,58.202 4.238,134.413 9.883,205.975c4.994,63.307 0.579,123.214 -56.551,158.364c-52.443,32.265 -101.599,19.239 -142.966,-14.004c-67.321,-54.099 -115.254,-159.121 -127.374,-227.305c-37.419,-210.511 62.422,-458.114 188.191,-554.311Z" style="fill:#7e4021;"/><path d="M884.076,659.289c113.03,-86.452 188.935,-18.372 206.936,-1.295c120.301,114.127 -17.064,300.342 -51.76,449.588c-26.397,113.547 71.824,297.242 -54.168,374.76c-148.631,91.446 -274.376,-133.842 -295.483,-252.587c-38.526,-216.739 64.985,-471.424 194.475,-570.466Z" style="fill:#fff;"/><path d="M873.951,646.051c-133.211,101.888 -240.392,363.653 -200.76,586.62c13.209,74.311 65.943,188.494 139.313,247.455c52.427,42.131 114.851,57.303 181.314,16.411c68.869,-42.373 78.333,-113.059 72.313,-189.375c-5.368,-68.052 -23.512,-140.46 -10.645,-195.806c20.872,-89.784 78.713,-192.941 95.665,-285.794c12.32,-67.484 3.93,-129.761 -48.668,-179.659c-12.051,-11.432 -47.47,-43.108 -101.029,-45.978c-34.973,-1.875 -78.095,8.335 -127.503,46.126Zm20.251,26.476c41.016,-31.372 76.436,-40.873 105.468,-39.317c42.448,2.275 70.321,27.815 79.871,36.875c55.284,52.447 49.468,121.736 27.74,194.781c-23.735,79.793 -66.845,164.021 -84.263,238.942c-13.53,58.202 4.238,134.413 9.883,205.975c4.994,63.307 0.579,123.214 -56.551,158.364c-52.442,32.265 -101.598,19.239 -142.966,-14.004c-67.32,-54.099 -115.254,-159.121 -127.374,-227.305c-37.418,-210.511 62.422,-458.114 188.192,-554.311Z" style="fill:#7e4021;"/><path d="M1635.39,853.819c12.61,-3.944 81.83,0.043 108.834,88.585c25.033,82.079 -100.239,166.347 -50.035,314.069c16.476,48.477 32.506,117.78 8.364,159.018c-39.635,67.7 -141.267,74.532 -184.496,-101.268c-15.07,-61.286 -7.932,-142.589 -0.698,-205.248c10.231,-88.622 83.93,-244.49 118.031,-255.156Z" style="fill:#7e4021;"/><path d="M1630.41,837.912c-6.031,1.887 -13.215,6.405 -20.665,13.914c-8.274,8.34 -17.595,20.85 -27.139,36.303c-35.096,56.829 -74.417,154.915 -81.808,218.934c-7.442,64.458 -14.432,148.095 1.07,211.14c23.641,96.142 65.437,140.882 104.557,153.793c43.282,14.285 86.525,-7.121 110.507,-48.085c11.11,-18.976 15.261,-43.028 14.507,-68.737c-1.032,-35.158 -11.105,-73.556 -21.473,-104.064c-28.38,-83.504 3.782,-145.344 28.138,-198.273c19.153,-41.622 33.185,-78.808 22.057,-115.295c-24.71,-81.023 -81.345,-99.048 -109.989,-101.147c-9.128,-0.668 -16.084,0.367 -19.762,1.517Zm9.951,31.814c2.475,-0.774 8.253,-0.432 15.649,1.082c22.709,4.647 55.994,23.098 72.268,76.458c8.901,29.184 -5.136,58.345 -20.456,91.637c-27.348,59.432 -61.283,129.168 -29.417,222.933c9.402,27.665 18.779,62.434 19.715,94.316c0.557,18.987 -1.75,36.904 -9.954,50.918c-15.656,26.742 -43.038,42.598 -71.294,33.272c-32.421,-10.7 -63.042,-50.42 -82.634,-130.099c-14.638,-59.526 -7.353,-138.496 -0.327,-199.357c6.933,-60.05 44.135,-151.936 77.056,-205.241c7.946,-12.867 15.552,-23.398 22.442,-30.342c2.665,-2.687 4.794,-4.902 6.952,-5.577l-0,-0Z" style="fill:#7e4021;"/><path d="M812.19,757.476c12.611,-3.944 81.83,0.043 108.834,88.585c25.033,82.079 -100.239,166.347 -50.034,314.069c16.475,48.477 32.506,117.78 8.363,159.018c-39.635,67.7 -141.267,74.532 -184.496,-101.268c-15.069,-61.286 -7.932,-142.589 -0.698,-205.248c10.232,-88.622 83.93,-244.49 118.031,-255.156Z" style="fill:#7e4021;"/><path d="M807.215,741.569c-6.032,1.887 -13.215,6.405 -20.665,13.914c-8.275,8.34 -17.596,20.85 -27.14,36.303c-35.096,56.829 -74.416,154.915 -81.808,218.934c-7.441,64.458 -14.432,148.095 1.071,211.14c23.641,96.142 65.437,140.882 104.556,153.793c43.282,14.285 86.525,-7.121 110.507,-48.085c11.11,-18.976 15.262,-43.028 14.507,-68.737c-1.032,-35.158 -11.105,-73.556 -21.473,-104.064c-28.379,-83.504 3.783,-145.344 28.138,-198.273c19.153,-41.622 33.186,-78.808 22.058,-115.295c-24.711,-81.023 -81.346,-99.048 -109.989,-101.147c-9.129,-0.669 -16.085,0.367 -19.762,1.517Zm9.95,31.814c2.476,-0.774 8.253,-0.432 15.65,1.082c22.709,4.647 55.994,23.098 72.267,76.458c8.901,29.184 -5.135,58.345 -20.455,91.637c-27.348,59.432 -61.284,129.168 -29.417,222.933c9.402,27.665 18.779,62.434 19.714,94.316c0.557,18.987 -1.749,36.904 -9.954,50.918c-15.656,26.742 -43.038,42.598 -71.293,33.272c-32.421,-10.7 -63.042,-50.42 -82.635,-130.099c-14.637,-59.526 -7.353,-138.496 -0.326,-199.357c6.933,-60.05 44.134,-151.936 77.055,-205.241c7.946,-12.867 15.553,-23.398 22.442,-30.342c2.665,-2.687 4.794,-4.902 6.952,-5.577Z" style="fill:#7e4021;"/><path d="M769.964,1803.56c8.513,31.976 18.293,63.505 28.984,94.821c26.606,77.934 59.649,154.486 103.764,224.215c4.918,7.774 15.221,10.092 22.995,5.174c7.773,-4.918 10.092,-15.222 5.174,-22.995c-42.719,-67.523 -74.623,-141.695 -100.387,-217.163c-10.444,-30.592 -20.003,-61.39 -28.318,-92.627c-2.366,-8.889 -11.504,-14.185 -20.393,-11.818c-8.889,2.366 -14.185,11.504 -11.819,20.393Z" style="fill:#7e4021;"/><path d="M969.334,2222.3c24.445,29.894 73.485,89.554 92.244,105.187c7.067,5.888 17.585,4.932 23.474,-2.134c5.888,-7.067 4.932,-17.585 -2.134,-23.474c-17.911,-14.925 -64.441,-72.138 -87.78,-100.68c-5.823,-7.121 -16.332,-8.175 -23.453,-2.352c-7.12,5.823 -8.174,16.332 -2.351,23.453Z" style="fill:#7e4021;"/></g></svg>