<?xml version="1.0" encoding="UTF-8" standalone="no"?><!DOCTYPE svg PUBLIC "-//W3C//DTD SVG 1.1//EN" "http://www.w3.org/Graphics/SVG/1.1/DTD/svg11.dtd"><svg width="100%" height="100%" viewBox="0 0 2668 4802" version="1.1" xmlns="http://www.w3.org/2000/svg" xmlns:xlink="http://www.w3.org/1999/xlink" xml:space="preserve" xmlns:serif="http://www.serif.com/" style="fill-rule:evenodd;clip-rule:evenodd;stroke-linejoin:round;stroke-miterlimit:2;"><g id="Coffee-Latte-01-Pink" serif:id="Coffee Latte-01-Pink"><g><path d="M1988.29,4467.06c5.754,-30.403 -14.45,-198.619 -2.169,-272.671c86.591,-522.122 308.094,-1960.93 278.984,-1943.4c-253.044,152.379 -756.372,270.803 -1334.87,206.325c-281.494,-31.375 -587.481,-105.702 -750.006,-200.614c-21.549,-12.584 275.353,1472.98 371.756,1954.87c15.204,75.998 -19.614,197.811 -5.885,268.76c11.016,56.925 83.223,288.821 741.506,288.172c578.725,-0.57 679.489,-189.42 700.687,-301.435Z" style="fill:#eb9ba5;"/><path d="M2021.05,4473.26c2.511,-13.27 1.188,-50.613 -1.283,-95.805c-3.263,-59.679 -7.832,-134.927 -0.753,-177.61c78.06,-470.688 265.487,-1685.13 280.954,-1910.52c1.329,-19.364 1.252,-32.69 0.356,-39.215c-0.813,-5.923 -2.402,-10.167 -3.755,-12.963c-6.084,-12.577 -15.584,-17.057 -23.529,-18.834c-7.682,-1.719 -16.222,-1.244 -25.123,4.116c-249.046,149.971 -744.623,265.212 -1313.99,201.752c-276.493,-30.818 -577.251,-103.044 -736.889,-196.271c-7.582,-4.428 -14.844,-5.181 -21.31,-4.359c-7.475,0.949 -14.765,4.096 -20.96,11.063c-2.736,3.076 -6.239,7.95 -7.969,15.752c-1.023,4.613 -0.931,21.823 2.993,49.651c33.29,236.055 282.659,1483.96 369.507,1918.08c7.046,35.216 1.858,81.034 -2.857,126.279c-5.463,52.423 -10.439,104.184 -3.068,142.275c11.576,59.817 82.535,315.854 774.265,315.172c609.733,-0.6 711.072,-210.553 733.406,-328.57Zm-32.752,-6.198c5.754,-30.403 -14.45,-198.619 -2.169,-272.671c86.591,-522.122 308.094,-1960.93 278.984,-1943.4c-253.044,152.379 -756.372,270.803 -1334.87,206.325c-281.494,-31.375 -587.481,-105.702 -750.006,-200.614c-21.549,-12.584 275.353,1472.98 371.756,1954.87c15.204,75.998 -19.614,197.811 -5.885,268.76c11.016,56.925 83.223,288.821 741.506,288.172c578.725,-0.57 679.489,-189.42 700.687,-301.435Z" style="fill:#7e4021;"/><path d="M456.768,3783.63c56.235,53.874 424.841,186.012 826.393,184.881c374.185,-1.055 732.912,-88.469 783.835,-168.787c34.001,-53.628 80.42,-117.506 101.795,-368.806c17.971,-211.287 63.429,-395.62 25.611,-477.017c-510.679,206.583 -1307.26,146.512 -1901.13,-9.343c-55.48,88.806 8.296,305.842 36.133,447.298c28.433,144.482 54.186,321.669 127.365,391.774Z" style="fill:#f8bcc4;"/><path d="M445.238,3795.66c17.662,16.921 64.466,41.791 133.094,67.481c154.247,57.739 421.418,122.83 704.876,122.031c264.173,-0.744 520.682,-44.34 668.443,-98.112c67.541,-24.579 112.988,-52.497 129.421,-78.417c34.705,-54.737 82.508,-119.819 104.325,-376.318c10.79,-126.846 31.473,-243.984 38.126,-334.991c4.691,-64.178 2.005,-116 -14.006,-150.461c-3.74,-8.05 -13.135,-11.756 -21.365,-8.427c-507.865,205.444 -1300.05,144.982 -1890.65,-10.014c-7.058,-1.852 -14.499,1.102 -18.366,7.29c-23.702,37.94 -28.171,97.647 -21.722,165.482c9.106,95.799 38.842,208.519 55.637,293.865c17.185,87.323 33.464,186.49 59.607,267.118c18.279,56.375 41.656,103.848 72.581,133.473l-0,0Zm23.059,-24.07c-27.619,-26.459 -47.607,-69.335 -63.932,-119.684c-25.763,-79.458 -41.673,-177.217 -58.609,-263.273c-16.609,-84.401 -46.154,-195.846 -55.16,-290.584c-5.059,-53.222 -4.152,-100.925 11.117,-134.072c589.62,152.65 1372.73,210.432 1883.08,11.665c8.899,29.95 9.036,70.672 5.484,119.262c-6.645,90.9 -27.317,207.899 -38.094,334.596c-20.933,246.102 -65.966,308.776 -99.264,361.295c-14.122,22.274 -54.625,43.819 -112.668,64.941c-145.251,52.859 -397.452,95.371 -657.138,96.103c-278.716,0.786 -541.43,-63.143 -693.096,-119.916c-62.479,-23.388 -105.641,-44.929 -121.721,-60.333Z" style="fill:#7e4021;"/><path d="M798.586,3569.3c30.205,-17.957 43.854,-61.614 80.05,-72.826c26.874,-8.324 50.227,12.986 58.432,24.631c1.276,1.81 19.281,-20.241 46.853,-14.145c39.772,8.794 50.98,57.74 81.32,93.355c-29.32,30.72 -43.789,67.39 -78.082,79.779c-91.374,33.008 -147.329,-31.726 -188.573,-110.794Z" style="fill:#ee909d;"/><path d="M939.915,3499.48c-14.84,-13.672 -39.333,-27.251 -66.211,-18.926c-21.342,6.611 -36.514,22.186 -50.326,39.357c-10.44,12.979 -19.847,27.06 -33.309,35.063c-7.602,4.52 -10.35,14.192 -6.26,22.034c45.333,86.907 108.58,155.042 209.012,118.761c20.109,-7.264 34.724,-21.25 48.292,-38.32c11.277,-14.189 21.894,-30.654 36.185,-45.627c5.896,-6.178 6.169,-15.814 0.63,-22.315c-17.991,-21.12 -29.102,-47.03 -43.661,-66.219c-12.299,-16.209 -26.825,-28.196 -46.748,-32.602c-20.401,-4.51 -36.909,2.347 -47.604,8.794Zm-119.872,74.562c10.717,-9.515 19.889,-21.529 29.308,-33.238c9.615,-11.953 19.359,-23.807 34.216,-28.409c18.597,-5.761 34.199,10.252 39.877,18.31c2.587,3.671 6.11,6.02 10.719,6.882c2.505,0.469 6.65,0.774 11.665,-1.918c1.488,-0.799 4.469,-3.137 8.616,-5.993c5.33,-3.67 14.284,-9.006 25.879,-6.442c15.534,3.434 24.788,15.536 33.823,29.431c9.513,14.631 18.323,31.414 29.436,46.928c-10.519,12.581 -19.366,25.542 -28.565,37.116c-9.571,12.043 -19.335,22.585 -33.521,27.71c-77.496,27.994 -125.132,-24.681 -161.453,-90.377Z" style="fill:#7e4021;"/><path d="M775.59,3572.46c113.249,67.968 227.775,67.897 314.788,37.812c8.694,-3.006 13.311,-12.504 10.306,-21.198c-3.006,-8.693 -12.505,-13.311 -21.198,-10.305c-79.276,27.41 -183.564,27.034 -286.743,-34.89c-7.887,-4.733 -18.133,-2.173 -22.867,5.714c-4.733,7.887 -2.173,18.134 5.714,22.867Z" style="fill:#7e4021;"/><path d="M500.795,2937.9c-35.644,4.754 -68.946,18.577 -106.303,45.996c-186.758,137.08 -109.538,470.275 146.698,440.032c370.771,-43.761 241.385,-523.609 -40.395,-486.028Z" style="fill:#fff;"/><path d="M498.591,2921.38c-38.183,5.093 -73.942,19.708 -113.96,49.082c-199.718,146.592 -115.505,502.36 158.512,470.019c118.565,-13.994 188.595,-70.694 221.204,-140.916c38.015,-81.861 24.85,-183.342 -24.545,-260.811c-49.697,-77.944 -135.525,-131.469 -241.21,-117.374l-0.001,0Zm4.407,33.041c91.561,-12.211 165.643,34.727 208.698,102.253c43.358,68.001 55.787,156.995 22.419,228.852c-28.577,61.537 -90.978,109.588 -194.879,121.851c-238.458,28.145 -308.682,-282.475 -134.882,-410.044c34.695,-25.466 65.54,-38.497 98.644,-42.912l0,0Z" style="fill:#7e4021;"/><path d="M1501.65,3012.85c-35.644,4.753 -68.946,18.577 -106.303,45.996c-186.758,137.08 -109.538,470.275 146.698,440.032c370.771,-43.761 241.385,-523.609 -40.395,-486.028Z" style="fill:#fff;"/><path d="M1499.45,2996.33c-38.183,5.093 -73.942,19.708 -113.96,49.081c-199.718,146.593 -115.505,502.361 158.512,470.02c118.564,-13.994 188.595,-70.694 221.204,-140.916c38.015,-81.862 24.85,-183.343 -24.545,-260.812c-49.697,-77.943 -135.525,-131.468 -241.211,-117.373l0,0Zm4.407,33.041c91.561,-12.211 165.643,34.727 208.698,102.253c43.358,68.001 55.787,156.995 22.419,228.852c-28.577,61.537 -90.978,109.588 -194.879,121.851c-238.458,28.145 -308.682,-282.475 -134.882,-410.044c34.695,-25.466 65.54,-38.497 98.644,-42.912l0,0Z" style="fill:#7e4021;"/><path d="M500.795,2937.9c-17.505,2.334 -54.436,112.828 -13.528,242.432c6.211,19.677 61.955,-5.667 74.294,14.301c9.76,15.795 -38.018,66.678 -30.719,76.129c54.337,70.355 152.413,102.76 166.398,90.642c161.938,-140.326 33.48,-454.169 -196.445,-423.504Z" style="fill:#7e4021;"/><path d="M545.049,3203.64c-0.438,1.3 -0.957,2.712 -1.475,3.831c-5.547,11.982 -15.603,26.26 -21.955,37.419c-4.737,8.321 -7.552,15.694 -8.068,20.636c-0.684,6.545 1.167,11.626 4.1,15.423c40.557,52.512 103.977,85.177 143.487,95.63c13.949,3.69 25.415,4.602 32.816,3.507c6.368,-0.943 11.029,-3.338 14.2,-6.086c86.686,-75.117 96.544,-196.515 53.064,-295.19c-43.453,-98.613 -139.626,-173.835 -262.627,-157.431c-3.503,0.468 -7.399,1.88 -11.299,4.881c-4.07,3.131 -8.942,8.971 -13.408,17.75c-18.049,35.479 -37.037,131.953 -2.511,241.339c2.586,8.191 8.113,13.736 16.307,16.893c6.489,2.5 15.672,3.131 25.881,2.509c8.8,-0.536 18.65,-1.894 27.179,-1.635c1.289,0.039 2.909,0.273 4.309,0.524Zm143.286,143.4c-2.762,-0.149 -11.399,-0.762 -18.672,-2.686c-33.267,-8.801 -85.871,-35.618 -121.435,-78.545l0.827,-1.653c3.151,-5.927 7.742,-13.029 12.247,-20.317c8.025,-12.986 15.452,-26.629 17.484,-36.689c1.73,-8.565 0.351,-15.779 -3.047,-21.278c-4.795,-7.76 -12.523,-12.695 -22.621,-14.816c-9.162,-1.924 -20.949,-1.263 -32.412,-0.29c-5.206,0.443 -10.325,0.912 -14.904,0.919c-1.158,0.002 -2.635,-0.124 -3.844,-0.255c-25.772,-84.716 -17.162,-160.367 -3.779,-199.2c2.536,-7.359 6.959,-15.248 8.745,-18.295c105.035,-12.14 186.481,53.645 223.79,138.316c37.407,84.891 30.985,189.446 -42.379,254.789Z" style="fill:#7e4021;"/><path d="M1501.65,3012.85c-17.505,2.334 -54.436,112.827 -13.528,242.432c6.211,19.676 61.955,-5.667 74.294,14.301c9.76,15.794 -38.019,66.678 -30.719,76.129c54.337,70.355 152.413,102.76 166.397,90.642c161.939,-140.326 33.48,-454.169 -196.444,-423.504Z" style="fill:#7e4021;"/><path d="M1545.91,3278.59c-0.438,1.3 -0.957,2.712 -1.475,3.831c-5.547,11.981 -15.603,26.26 -21.955,37.419c-4.737,8.32 -7.552,15.694 -8.068,20.636c-0.684,6.545 1.167,11.626 4.1,15.423c40.556,52.512 103.977,85.177 143.486,95.63c13.95,3.69 25.416,4.602 32.817,3.507c6.368,-0.943 11.029,-3.339 14.2,-6.086c86.686,-75.117 96.544,-196.515 53.064,-295.19c-43.453,-98.613 -139.626,-173.835 -262.627,-157.431c-3.503,0.468 -7.399,1.88 -11.299,4.881c-4.07,3.131 -8.942,8.971 -13.408,17.75c-18.049,35.479 -37.037,131.953 -2.511,241.339c2.586,8.191 8.113,13.736 16.307,16.893c6.489,2.499 15.672,3.131 25.881,2.509c8.8,-0.536 18.65,-1.894 27.179,-1.635c1.289,0.039 2.909,0.273 4.309,0.524Zm143.286,143.4c-2.762,-0.149 -11.399,-0.762 -18.672,-2.686c-33.267,-8.801 -85.871,-35.618 -121.435,-78.545l0.827,-1.653c3.151,-5.927 7.742,-13.029 12.247,-20.318c8.025,-12.985 15.452,-26.628 17.484,-36.688c1.73,-8.565 0.351,-15.779 -3.047,-21.278c-4.795,-7.76 -12.523,-12.695 -22.621,-14.816c-9.162,-1.924 -20.949,-1.263 -32.412,-0.29c-5.206,0.442 -10.326,0.912 -14.904,0.919c-1.158,0.002 -2.635,-0.124 -3.844,-0.255c-25.772,-84.716 -17.162,-160.367 -3.779,-199.2c2.536,-7.359 6.959,-15.248 8.745,-18.295c105.035,-12.14 186.481,53.645 223.79,138.316c37.407,84.891 30.985,189.446 -42.379,254.789Z" style="fill:#7e4021;"/><path d="M735.242,3039.35c16.463,-29.107 60.825,-51.77 92.275,-50.921c9.195,0.249 16.862,-7.015 17.11,-16.21c0.248,-9.196 -7.015,-16.863 -16.21,-17.111c-41.704,-1.126 -100.359,29.234 -122.189,67.832c-4.529,8.007 -1.705,18.184 6.302,22.712c8.007,4.529 18.183,1.705 22.712,-6.302Z" style="fill:#7e4021;"/><path d="M1736.1,3114.3c16.463,-29.108 60.825,-51.77 92.275,-50.921c9.195,0.248 16.862,-7.015 17.11,-16.211c0.248,-9.195 -7.015,-16.862 -16.211,-17.11c-41.703,-1.126 -100.358,29.234 -122.188,67.832c-4.529,8.007 -1.705,18.184 6.302,22.712c8.006,4.529 18.183,1.705 22.712,-6.302Z" style="fill:#7e4021;"/><path d="M321.496,3335.17c-16.463,29.108 -60.825,51.771 -92.275,50.921c-9.195,-0.248 -16.862,7.016 -17.11,16.211c-0.248,9.195 7.015,16.862 16.211,17.111c41.703,1.126 100.358,-29.235 122.188,-67.833c4.529,-8.006 1.705,-18.183 -6.302,-22.712c-8.006,-4.528 -18.183,-1.704 -22.712,6.302Z" style="fill:#7e4021;"/><path d="M1322.36,3410.12c-16.463,29.108 -60.825,51.771 -92.275,50.921c-9.195,-0.248 -16.862,7.016 -17.11,16.211c-0.249,9.195 7.015,16.862 16.21,17.111c41.704,1.126 100.359,-29.235 122.189,-67.833c4.529,-8.006 1.705,-18.183 -6.302,-22.712c-8.007,-4.528 -18.183,-1.704 -22.712,6.302Z" style="fill:#7e4021;"/><path d="M652.603,2963.88c5.122,-33.046 38.62,-69.917 68.343,-80.23c8.69,-3.016 13.297,-12.519 10.282,-21.209c-3.016,-8.691 -12.519,-13.298 -21.209,-10.283c-39.414,13.676 -83.565,62.797 -90.356,106.618c-1.408,9.09 4.828,17.613 13.918,19.022c9.09,1.409 17.614,-4.828 19.022,-13.918Z" style="fill:#7e4021;"/><path d="M1653.46,3038.83c5.122,-33.046 38.62,-69.917 68.343,-80.23c8.69,-3.016 13.297,-12.519 10.282,-21.21c-3.016,-8.69 -12.519,-13.297 -21.209,-10.282c-39.414,13.676 -83.565,62.797 -90.356,106.617c-1.408,9.09 4.828,17.614 13.918,19.023c9.09,1.409 17.614,-4.828 19.022,-13.918Z" style="fill:#7e4021;"/><path d="M404.135,3410.64c-5.122,33.047 -38.62,69.918 -68.343,80.231c-8.69,3.015 -13.297,12.519 -10.282,21.209c3.016,8.69 12.519,13.298 21.209,10.282c39.414,-13.676 83.565,-62.796 90.356,-106.617c1.408,-9.09 -4.828,-17.614 -13.918,-19.022c-9.09,-1.409 -17.614,4.827 -19.022,13.917Z" style="fill:#7e4021;"/><path d="M1404.99,3485.59c-5.121,33.047 -38.619,69.917 -68.342,80.231c-8.69,3.015 -13.297,12.519 -10.282,21.209c3.016,8.69 12.519,13.298 21.209,10.282c39.414,-13.676 83.565,-62.796 90.356,-106.617c1.408,-9.09 -4.828,-17.614 -13.918,-19.022c-9.09,-1.409 -17.614,4.827 -19.023,13.917Z" style="fill:#7e4021;"/><path d="M559.785,2929.25c-13.829,-30.447 -6.018,-79.647 13.191,-104.563c5.616,-7.285 4.261,-17.76 -3.024,-23.376c-7.285,-5.616 -17.76,-4.261 -23.376,3.024c-25.471,33.041 -35.478,98.325 -17.141,138.699c3.804,8.376 13.692,12.087 22.067,8.283c8.375,-3.803 12.087,-13.691 8.283,-22.067Z" style="fill:#7e4021;"/><path d="M1560.64,3004.2c-13.829,-30.447 -6.018,-79.647 13.191,-104.563c5.616,-7.286 4.261,-17.76 -3.024,-23.376c-7.285,-5.616 -17.76,-4.261 -23.376,3.024c-25.471,33.041 -35.478,98.324 -17.141,138.699c3.804,8.376 13.692,12.087 22.067,8.283c8.375,-3.804 12.087,-13.691 8.283,-22.067Z" style="fill:#7e4021;"/><path d="M497.621,3436.36c13.828,30.448 6.017,79.647 -13.191,104.564c-5.617,7.285 -4.262,17.759 3.024,23.375c7.285,5.616 17.759,4.261 23.375,-3.024c25.471,-33.041 35.478,-98.324 17.141,-138.699c-3.803,-8.375 -13.691,-12.087 -22.066,-8.283c-8.376,3.804 -12.087,13.692 -8.283,22.067Z" style="fill:#7e4021;"/><path d="M1498.48,3511.31c13.828,30.447 6.017,79.647 -13.191,104.563c-5.617,7.286 -4.262,17.76 3.024,23.376c7.285,5.616 17.759,4.261 23.375,-3.024c25.471,-33.041 35.478,-98.324 17.141,-138.699c-3.803,-8.376 -13.691,-12.087 -22.067,-8.283c-8.375,3.804 -12.086,13.691 -8.282,22.067Z" style="fill:#7e4021;"/><path d="M443.969,2944.94c-25.315,-21.85 -38.84,-69.795 -31.841,-100.467c2.047,-8.969 -3.573,-17.911 -12.541,-19.957c-8.968,-2.047 -17.91,3.573 -19.957,12.541c-9.281,40.673 8.99,104.142 42.559,133.117c6.963,6.01 17.496,5.237 23.507,-1.727c6.01,-6.963 5.236,-17.496 -1.727,-23.507Z" style="fill:#7e4021;"/><path d="M1444.83,3019.89c-25.315,-21.851 -38.84,-69.795 -31.841,-100.468c2.047,-8.968 -3.573,-17.91 -12.541,-19.956c-8.968,-2.047 -17.91,3.573 -19.957,12.541c-9.281,40.673 8.99,104.142 42.559,133.117c6.963,6.01 17.496,5.236 23.507,-1.727c6.01,-6.963 5.236,-17.496 -1.727,-23.507Z" style="fill:#7e4021;"/><path d="M609.204,3421.19c25.315,21.851 38.84,69.795 31.841,100.468c-2.047,8.968 3.573,17.91 12.541,19.957c8.968,2.046 17.911,-3.573 19.957,-12.542c9.281,-40.673 -8.99,-104.142 -42.559,-133.116c-6.963,-6.011 -17.496,-5.237 -23.506,1.726c-6.011,6.964 -5.237,17.497 1.726,23.507Z" style="fill:#7e4021;"/><path d="M1610.06,3496.14c25.315,21.851 38.84,69.795 31.841,100.468c-2.047,8.968 3.573,17.91 12.541,19.957c8.968,2.046 17.91,-3.574 19.957,-12.542c9.281,-40.673 -8.99,-104.142 -42.559,-133.116c-6.963,-6.011 -17.496,-5.237 -23.507,1.726c-6.01,6.964 -5.236,17.497 1.727,23.507Z" style="fill:#7e4021;"/><path d="M347.068,3012.65c-31.581,-10.998 -61.805,-50.597 -66.589,-81.692c-1.398,-9.092 -9.915,-15.338 -19.007,-13.939c-9.091,1.398 -15.337,9.915 -13.939,19.007c6.343,41.234 46.695,93.52 88.572,108.103c8.687,3.025 18.196,-1.572 21.221,-10.258c3.025,-8.687 -1.572,-18.196 -10.258,-21.221Z" style="fill:#7e4021;"/><path d="M1347.93,3087.6c-31.581,-10.998 -61.805,-50.597 -66.589,-81.692c-1.398,-9.092 -9.915,-15.338 -19.007,-13.939c-9.091,1.398 -15.337,9.915 -13.939,19.007c6.343,41.233 46.695,93.52 88.572,108.103c8.687,3.025 18.196,-1.572 21.221,-10.259c3.025,-8.687 -1.572,-18.195 -10.258,-21.22Z" style="fill:#7e4021;"/><path d="M709.67,3361.87c31.581,10.997 61.805,50.596 66.589,81.692c1.398,9.092 9.915,15.337 19.007,13.939c9.091,-1.399 15.337,-9.915 13.939,-19.007c-6.343,-41.234 -46.695,-93.52 -88.572,-108.103c-8.687,-3.025 -18.196,1.571 -21.221,10.258c-3.025,8.687 1.572,18.196 10.258,21.221Z" style="fill:#7e4021;"/><path d="M1710.53,3436.82c31.581,10.997 61.805,50.596 66.589,81.692c1.398,9.091 9.915,15.337 19.007,13.939c9.091,-1.399 15.337,-9.916 13.939,-19.007c-6.343,-41.234 -46.695,-93.52 -88.572,-108.103c-8.687,-3.026 -18.196,1.571 -21.221,10.258c-3.025,8.687 1.571,18.196 10.258,21.221Z" style="fill:#7e4021;"/><path d="M2351.47,2189.52c-208.476,179.578 -766.747,340.739 -1421.24,267.791c-324.702,-36.191 -681.992,-129.531 -814.099,-245.694c-43.542,-38.287 -116.958,-324.417 -94.834,-507.498c-10.946,240.439 475.205,485.075 1276.93,476.692c706.232,-7.386 1110.44,-206.451 1144.31,-418.873c12.275,-77.004 0.61,348.608 -91.072,427.582Z" style="fill:#fed7dc;"/><path d="M2362.35,2202.15c18.167,-15.649 34.008,-43.348 46.827,-78.271c17.822,-48.554 30.522,-111.504 39.068,-171.828c11.325,-79.936 15.406,-155.206 14.985,-185.626c-0.157,-11.279 -1.703,-18.299 -2.64,-20.334c-2.507,-5.437 -6.336,-7.688 -9.138,-8.833c-3.42,-1.399 -6.917,-1.646 -10.489,-0.753c-3.002,0.75 -7.601,2.508 -10.935,8.502c-0.941,1.692 -2.656,6.241 -3.942,14.309c-12.924,81.078 -83.681,158.947 -205.519,225.057c-189.905,103.044 -502.347,175.38 -922.502,179.774c-477.195,4.99 -841.793,-79.834 -1054.69,-200.448c-135.994,-77.045 -209.582,-167.405 -205.42,-258.82c0.407,-8.953 -6.338,-16.626 -15.27,-17.368c-8.931,-0.742 -16.851,5.713 -17.926,14.61c-15.752,130.346 15.927,312.07 51.652,422.717c16.35,50.64 34.535,86.822 48.723,99.297c133.65,117.521 494.761,213.128 823.258,249.742c660.478,73.616 1223.58,-90.506 1433.96,-271.727l0,-0Zm63.642,-351.719c-5.457,67.663 -17.057,158.124 -37.577,229.464c-12.469,43.349 -27.588,79.572 -47.82,96.999c-206.568,177.935 -760.01,336.135 -1408.51,263.855c-320.907,-35.768 -674.376,-126.841 -804.939,-241.646c-11.94,-10.499 -25.254,-41.893 -39.013,-84.507c-24.971,-77.337 -48.085,-190.582 -53.208,-294.997c34.932,61.41 99.551,120.716 192.02,173.103c216.328,122.556 586.589,209.847 1071.47,204.776c427.324,-4.468 744.906,-79.005 938.052,-183.807c90.108,-48.893 153.49,-104.769 189.527,-163.24Z" style="fill:#7e4021;"/><path d="M161.513,1927.51c3.261,-7.839 0.075,-17.031 -7.573,-21.096c-8.123,-4.317 -18.222,-1.228 -22.54,6.894c-2.719,5.116 -4.175,17.831 -2.555,33.773c2.757,27.134 11.372,66.764 13.234,76.839c16.647,90.085 45.334,174.033 72.484,260.993c2.741,8.781 12.095,13.684 20.876,10.943c8.781,-2.742 13.684,-12.096 10.942,-20.877c-26.749,-85.678 -55.122,-168.359 -71.524,-257.116c-1.797,-9.724 -10.189,-47.962 -12.85,-74.151c-0.648,-6.381 -0.523,-14.759 -0.494,-16.202Z" style="fill:#7e4021;"/><path d="M2302.11,1953.98c0.084,1.508 0.382,7.616 0.073,12.342c-1.472,22.502 -8.109,55.538 -9.459,63.926c-12.367,76.853 -36.954,148.975 -59.771,223.612c-2.689,8.797 2.269,18.122 11.066,20.811c8.796,2.689 18.122,-2.269 20.811,-11.066c23.267,-76.109 48.193,-149.693 60.804,-228.061c1.415,-8.796 8.268,-43.451 9.811,-67.046c0.567,-8.667 0.36,-16.111 -0.613,-21.121c-0.865,-4.453 -2.415,-7.855 -4.062,-10.252c-5.208,-7.582 -15.593,-9.508 -23.175,-4.3c-6.928,4.76 -9.134,13.841 -5.485,21.155Z" style="fill:#7e4021;"/><path d="M690.341,2135.16c3.101,-7.626 0.138,-16.565 -7.211,-20.741c-7.998,-4.545 -18.18,-1.742 -22.725,6.255c-2.602,4.578 -4.253,15.905 -2.745,30.148c2.399,22.643 9.976,55.707 11.612,64.112c14.589,74.944 39.861,144.762 63.775,217.085c2.888,8.734 12.323,13.48 21.056,10.592c8.734,-2.888 13.48,-12.323 10.592,-21.057c-23.467,-70.97 -48.387,-139.447 -62.704,-212.989c-1.564,-8.033 -8.89,-39.615 -11.183,-61.254c-0.493,-4.654 -0.479,-10.706 -0.467,-12.151Z" style="fill:#7e4021;"/><path d="M1769.97,2152.71c-0.407,3.579 -6.882,60.349 -8.298,69.471c-10.92,70.353 -32.662,136.373 -52.833,204.694c-2.604,8.822 2.444,18.099 11.266,20.704c8.822,2.604 18.099,-2.443 20.704,-11.266c20.593,-69.753 42.653,-137.191 53.802,-209.019c1.452,-9.352 9.19,-50.136 8.967,-71.066c-0.099,-9.379 -2.3,-16.296 -4.625,-19.795c-5.089,-7.662 -15.442,-9.751 -23.104,-4.661c-6.961,4.624 -9.322,13.59 -5.879,20.938Z" style="fill:#7e4021;"/><path d="M429.532,2067.74c3.097,-7.735 -0.027,-16.745 -7.526,-20.817c-8.083,-4.39 -18.21,-1.391 -22.6,6.692c-2.542,4.682 -4.067,16.297 -2.565,30.879c2.449,23.793 10.128,58.541 11.788,67.375c14.815,78.853 40.386,152.33 64.587,228.442c2.788,8.766 12.168,13.62 20.934,10.832c8.766,-2.787 13.62,-12.167 10.833,-20.933c-23.788,-74.808 -49.032,-146.994 -63.594,-224.496c-1.592,-8.476 -9.04,-41.804 -11.39,-64.634c-0.531,-5.158 -0.486,-11.887 -0.467,-13.34Z" style="fill:#7e4021;"/><path d="M2040.58,2084.11c-0.391,3.446 -6.932,61.034 -8.363,70.274c-11.006,71.092 -32.919,137.804 -53.248,206.842c-2.599,8.824 2.456,18.097 11.28,20.696c8.824,2.598 18.097,-2.456 20.696,-11.28c20.75,-70.467 42.979,-138.595 54.213,-211.158c1.462,-9.444 9.258,-50.631 9.033,-71.767c-0.1,-9.424 -2.299,-16.375 -4.629,-19.892c-5.081,-7.667 -15.432,-9.768 -23.099,-4.687c-6.979,4.625 -9.346,13.614 -5.883,20.972Z" style="fill:#7e4021;"/><path d="M963.603,2175.16c3.23,-7.693 0.242,-16.766 -7.206,-20.954c-8.018,-4.509 -18.188,-1.66 -22.696,6.358c-2.396,4.26 -4.229,15.042 -3.51,28.705c1.167,22.18 6.414,54.743 7.495,63.009c9.653,73.787 28.811,143.031 46.683,214.665c2.226,8.925 11.28,14.363 20.205,12.136c8.925,-2.227 14.363,-11.28 12.137,-20.205c-17.562,-70.391 -36.488,-138.412 -45.973,-210.92c-1.037,-7.929 -6.14,-39.158 -7.26,-60.436c-0.251,-4.783 0.05,-10.987 0.125,-12.358Z" style="fill:#7e4021;"/><path d="M1488.81,2187.63c-0.113,2.145 -3.178,60.202 -4.008,69.438c-6.277,69.829 -22.179,135.803 -36.611,203.984c-1.905,8.999 3.854,17.852 12.854,19.757c8.999,1.905 17.851,-3.855 19.756,-12.854c14.708,-69.484 30.803,-136.739 37.201,-207.903c0.83,-9.238 5.685,-49.574 4.533,-70.116c-0.5,-8.906 -2.662,-15.441 -4.768,-18.679c-5.015,-7.711 -15.347,-9.9 -23.058,-4.885c-7.126,4.635 -9.536,13.81 -5.899,21.258Z" style="fill:#7e4021;"/><path d="M297.172,2008.65c3.157,-7.789 -0.011,-16.877 -7.585,-20.934c-8.11,-4.342 -18.219,-1.284 -22.561,6.825c-2.598,4.852 -4.081,16.901 -2.538,32.018c2.567,25.151 10.597,61.883 12.332,71.221c15.505,83.422 42.237,161.16 67.538,241.686c2.757,8.776 12.12,13.662 20.896,10.905c8.775,-2.757 13.662,-12.121 10.904,-20.896c-24.896,-79.237 -51.309,-155.7 -66.566,-237.786c-1.67,-8.985 -9.473,-44.315 -11.943,-68.514c-0.577,-5.656 -0.501,-13.052 -0.477,-14.525Z" style="fill:#7e4021;"/><path d="M2170.26,2035.02c-0.443,3.752 -7.265,61.443 -8.756,70.722c-11.518,71.695 -34.423,138.976 -55.675,208.604c-2.685,8.798 2.277,18.121 11.075,20.807c8.798,2.685 18.121,-2.278 20.806,-11.076c21.701,-71.098 44.945,-139.839 56.705,-213.048c1.532,-9.535 9.692,-51.122 9.465,-72.461c-0.102,-9.58 -2.405,-16.632 -4.857,-20.205c-5.203,-7.586 -15.586,-9.52 -23.171,-4.317c-6.876,4.716 -9.108,13.688 -5.592,20.974Z" style="fill:#7e4021;"/><path d="M831.967,2159.29c3.568,-7.292 1.352,-16.303 -5.538,-21.04c-7.58,-5.211 -17.965,-3.288 -23.176,4.292c-3.045,4.428 -5.512,15.614 -4.701,29.921c1.256,22.161 7.337,54.741 8.582,63.007c11.082,73.606 33.571,142.808 54.514,214.367c2.583,8.828 11.848,13.898 20.677,11.314c8.828,-2.583 13.898,-11.848 11.314,-20.677c-20.516,-70.102 -42.687,-137.859 -53.543,-209.967c-1.41,-9.362 -7.743,-67.658 -8.129,-71.217Z" style="fill:#7e4021;"/><path d="M1628.11,2169.48c-0.261,3.975 -3.969,60.269 -4.95,69.367c-7.618,70.653 -26.73,137.601 -44.082,206.755c-2.239,8.922 3.187,17.983 12.109,20.222c8.922,2.239 17.983,-3.187 20.222,-12.109c17.73,-70.662 37.108,-139.102 44.893,-211.295c1.015,-9.412 6.901,-50.541 5.552,-71.409c-0.613,-9.491 -3.313,-16.346 -5.963,-19.755c-5.644,-7.263 -16.124,-8.577 -23.387,-2.932c-6.548,5.089 -8.26,14.109 -4.394,21.156Z" style="fill:#7e4021;"/><path d="M558.867,2111.99c3.196,-7.54 0.416,-16.481 -6.812,-20.795c-7.9,-4.713 -18.139,-2.126 -22.853,5.773c-2.784,4.667 -4.574,16.188 -2.989,30.691c2.498,22.862 10.456,56.239 12.173,64.724c15.299,75.617 41.903,146.044 67.069,218.998c2.999,8.696 12.495,13.321 21.19,10.321c8.696,-2.999 13.321,-12.495 10.321,-21.19c-24.681,-71.55 -50.905,-140.579 -65.909,-214.739c-1.638,-8.096 -9.324,-39.923 -11.708,-61.735c-0.503,-4.6 -0.494,-10.575 -0.482,-12.048Z" style="fill:#7e4021;"/><path d="M1896.39,2122.18c-0.249,4.045 -3.723,60.387 -4.671,69.501c-7.368,70.861 -26.411,138.085 -43.657,207.509c-2.217,8.927 3.23,17.976 12.157,20.193c8.927,2.218 17.976,-3.229 20.193,-12.157c17.625,-70.948 36.932,-139.681 44.462,-212.098c0.982,-9.444 6.743,-50.723 5.269,-71.638c-0.672,-9.537 -3.449,-16.405 -6.162,-19.815c-5.727,-7.198 -16.221,-8.393 -23.419,-2.666c-6.48,5.155 -8.095,14.174 -4.172,21.171Z" style="fill:#7e4021;"/><path d="M1099.33,2189.62c4.135,-7.003 2.618,-16.173 -3.898,-21.429c-7.16,-5.775 -17.661,-4.651 -23.436,2.509c-2.569,3.184 -5.383,9.723 -6.444,18.868c-2.371,20.431 0.78,61.056 1.196,70.34c3.192,71.324 17.213,139.446 29.6,209.686c1.597,9.059 10.249,15.117 19.308,13.519c9.059,-1.598 15.116,-10.249 13.519,-19.308c-12.135,-68.806 -26,-135.519 -29.127,-205.387c-0.406,-9.072 -0.701,-65.34 -0.718,-68.798Z" style="fill:#7e4021;"/><path d="M1237.44,2193.61c4.55,-6.741 3.588,-15.987 -2.6,-21.626c-6.798,-6.196 -17.349,-5.706 -23.544,1.093c-2.756,3.024 -5.96,9.381 -7.569,18.446c-3.597,20.25 -2.9,60.992 -3.044,70.284c-1.111,71.387 8.78,140.23 16.913,211.088c1.049,9.139 9.32,15.707 18.458,14.658c9.139,-1.049 15.707,-9.32 14.658,-18.459c-7.967,-69.412 -17.788,-136.839 -16.7,-206.769c0.141,-9.08 3.237,-65.263 3.428,-68.715Z" style="fill:#7e4021;"/><path d="M1382.31,2462.48c-0.298,-3.444 -5.137,-59.505 -5.56,-68.576c-3.259,-69.862 4.464,-137.562 10.272,-207.188c0.764,-9.167 -6.057,-17.23 -15.224,-17.994c-9.167,-0.765 -17.23,6.057 -17.994,15.223c-5.929,71.077 -13.678,140.194 -10.351,211.512c0.433,9.283 1,50.027 5.224,70.156c1.891,9.01 5.29,15.265 8.138,18.202c6.404,6.603 16.964,6.765 23.568,0.361c6.009,-5.829 6.684,-15.099 1.927,-21.696Z" style="fill:#7e4021;"/><path d="M1896.29,2767.13c124.741,-16.59 236.831,-39.313 335.802,-66.713c8.865,-2.455 14.07,-11.644 11.616,-20.51c-2.455,-8.865 -11.645,-14.069 -20.51,-11.615c-97.643,27.033 -208.235,49.428 -331.302,65.796c-9.119,1.213 -15.537,9.6 -14.324,18.719c1.213,9.118 9.6,15.536 18.718,14.323Z" style="fill:#7e4021;"/><path d="M430.354,2674.61c219.321,79.59 524.849,130.452 898.499,126.545c9.198,-0.096 16.588,-7.642 16.492,-16.84c-0.096,-9.198 -7.642,-16.588 -16.84,-16.492c-368.757,3.856 -670.332,-45.999 -886.78,-124.547c-8.647,-3.138 -18.214,1.335 -21.352,9.982c-3.138,8.647 1.334,18.214 9.981,21.352Z" style="fill:#7e4021;"/><path d="M531.296,4229.43c-0.131,0.126 -7.695,7.438 -8.543,10.881c-0.462,1.88 -2.212,6.019 2.258,13.292c26.528,43.161 80.022,80.237 121.009,107.068c48.055,31.459 102.047,53.435 155.427,74.075c8.58,3.318 18.238,-0.954 21.556,-9.534c3.317,-8.579 -0.955,-18.238 -9.534,-21.556c-51.208,-19.8 -103.092,-40.695 -149.192,-70.873c-36.442,-23.857 -84.435,-55.825 -109.141,-93.91c-0.378,-1.17 -0.897,-2.314 -1.557,-3.413c-4.623,-7.689 -14.487,-10.307 -22.283,-6.03Zm-0,0l0.001,-0.001c0,-0 -0.365,0.2 -0.589,0.335l0.588,-0.334Z" style="fill:#7e4021;"/><path d="M888.518,4422.59c-3.961,-1.919 -8.671,-2.272 -13.113,-0.603c-8.611,3.236 -12.974,12.854 -9.738,21.465c1.036,2.758 4.44,9.087 14.039,11.456c13.113,3.236 73.219,4.428 79.002,5.167c9.125,1.164 17.478,-5.298 18.643,-14.422c1.165,-9.125 -5.297,-17.479 -14.422,-18.643c-5.153,-0.658 -66.561,-3.995 -74.411,-4.42Z" style="fill:#7e4021;"/><path d="M1715.4,4659.28c22.449,1.207 67.73,-13.01 116.222,-34.544c70.71,-31.4 148.616,-77.578 171.79,-105.097c5.926,-7.036 5.024,-17.559 -2.012,-23.484c-7.037,-5.925 -17.559,-5.023 -23.485,2.013c-21.459,25.483 -94.342,67.026 -159.821,96.104c-42.303,18.785 -81.32,32.776 -100.904,31.723c-9.186,-0.494 -17.044,6.562 -17.538,15.747c-0.494,9.185 6.562,17.044 15.748,17.538Z" style="fill:#7e4021;"/><path d="M1353.11,4459.5c5.839,0.246 41.349,1.731 44.144,1.727c127.13,-0.147 277.679,-6.311 373.472,-49.28c8.393,-3.764 12.151,-13.635 8.386,-22.028c-3.764,-8.393 -13.635,-12.15 -22.028,-8.385c-92.267,41.386 -237.418,46.218 -359.869,46.36c-3.398,0.004 -41.791,-2.678 -50.159,-1.346c-9.986,1.591 -13.415,8.331 -14.484,11.171c-3.24,8.609 1.118,18.229 9.727,21.469c3.608,1.358 7.394,1.381 10.811,0.312Z" style="fill:#7e4021;"/><path d="M1628.84,4641.15c-24.414,7.577 -58.87,6.532 -72.228,8.116c-9.134,1.084 -15.671,9.38 -14.587,18.515c1.084,9.134 9.38,15.67 18.514,14.587c14.472,-1.717 51.732,-1.174 78.182,-9.383c8.785,-2.727 13.703,-12.073 10.977,-20.858c-2.727,-8.785 -12.073,-13.704 -20.858,-10.977Z" style="fill:#7e4021;"/><path d="M2295.92,1968.92c99.995,-75.498 201.956,-199.528 175.757,-383.613c-30.174,-212.015 -123.574,-357.133 -274.231,-443.313c-65.836,-37.66 79.324,-190.843 -35.598,-549.193c-122.615,-382.34 -512.602,-734.745 -551.965,-499.789c-132.551,791.186 -493.469,519.746 -890.299,726.711c-486.007,253.475 -292.483,559.005 -292.483,559.005c-0,0 -30.54,11.708 -52.957,19.68c-593.457,211.061 -403.683,606.398 293.37,728.731c211.66,37.147 137.816,447.97 327.976,480.923c212.987,36.91 180.944,-325.535 285.437,-343.886c80.513,-14.141 134.449,109.671 202.362,116.439c109.063,10.869 95.55,-89.099 264.05,-196.006c86.451,-54.85 175.724,-84.409 246.253,-39.125c79.039,50.747 -74.317,405.416 117.696,408.104c140.926,1.974 80.892,-304.49 84.33,-354.142c8.879,-128.237 45.7,-189.301 100.302,-230.526Z" style="fill:#fff;"/><path d="M2305.96,1982.22c104.004,-78.524 209.464,-207.796 182.214,-399.262c-31.02,-217.967 -127.57,-366.833 -282.455,-455.432c-6.754,-3.863 -8.904,-10.234 -9.432,-18.662c-0.553,-8.84 0.636,-19.371 2.612,-31.749c13.061,-81.821 60.552,-234.535 -21.183,-489.404c-52.248,-162.919 -152.313,-320.5 -253.809,-430.805c-68.983,-74.969 -138.941,-128.077 -195.159,-147.566c-34.401,-11.925 -64.404,-11.558 -87.557,1.076c-23.222,12.672 -40.752,38.078 -47.749,79.841c-45.455,271.319 -117.223,415.561 -209.412,496.534c-91.665,80.512 -202.832,97.79 -324.888,117.777c-108.98,17.845 -226.454,37.367 -347.268,100.376c-199.859,104.236 -287.208,217.781 -320.958,315.614c-39.952,115.813 -5.545,211.204 12.604,249.284c-10.412,3.915 -23.718,8.862 -34.964,12.862c-121.292,43.137 -210.444,94.035 -269.961,148.499c-62.175,56.896 -92.613,118.102 -94.967,179.02c-2.814,72.827 34.615,146.246 110.181,212.517c108.214,94.902 296.03,176.098 550.821,220.814c47.718,8.374 79.006,38.256 102.284,78.163c25.168,43.147 41.133,97.682 56.619,152.023c16.219,56.912 31.901,113.637 55.515,158.29c25.699,48.595 60.763,83.298 113.593,92.453c115.987,20.1 167.44,-65.852 201.937,-162.014c18.737,-52.228 32.526,-106.956 51.793,-144.298c10.206,-19.779 21.065,-34.706 37.436,-37.581c16.202,-2.846 30.997,1.59 45.035,9.418c16.323,9.101 31.598,22.652 46.59,36.705c19.884,18.639 39.258,38.163 59.102,51.627c15.251,10.347 30.902,17.244 47.1,18.858c50.091,4.992 77.673,-10.352 105.109,-38.45c35.26,-36.11 70.062,-96.964 169.522,-160.067c41.382,-26.255 83.359,-46.638 123.511,-54.858c37.499,-7.676 73.279,-4.56 104.808,15.684c5.042,3.237 8.222,8.683 10.668,15.379c3.36,9.2 5.056,20.513 5.862,33.315c2.726,43.327 -5.046,102.019 -7.691,158.578c-1.86,39.804 -1.194,78.595 6.485,110.916c6.351,26.731 17.529,49.244 35.034,65.389c17.838,16.452 42.332,26.696 76.109,27.169c65.008,0.91 95.937,-52.576 106.301,-123.77c13.549,-93.074 -7.183,-215.944 -5.11,-245.887c8.393,-121.215 42.105,-179.408 93.718,-218.376l-0,-0Zm-20.085,-26.603c-57.594,43.484 -97.521,107.416 -106.887,242.677c-2.052,29.639 18.79,151.257 5.378,243.387c-7.617,52.323 -25.071,95.91 -72.848,95.241c-23.828,-0.333 -41.394,-6.735 -53.977,-18.341c-12.916,-11.913 -20.516,-28.867 -25.202,-48.591c-7.037,-29.617 -7.324,-65.181 -5.619,-101.654c2.705,-57.858 10.45,-117.907 7.661,-162.228c-2.252,-35.789 -12.423,-62.217 -31.787,-74.65c-75.541,-48.502 -171.593,-19.671 -264.187,39.077c-86.269,54.735 -126.038,107.591 -158.106,145.474c-27.356,32.317 -47.728,52.767 -95.362,48.02c-14.085,-1.403 -27.207,-9.373 -40.369,-19.609c-15.485,-12.043 -30.706,-27.37 -46.342,-42.026c-36.065,-33.807 -74.869,-62.594 -120.187,-54.635c-20.976,3.684 -38.191,17.606 -52.357,39.573c-17.571,27.245 -30.876,67.845 -44.897,111.334c-13.183,40.889 -27.161,84.445 -47.296,120.559c-27.51,49.34 -67.041,84.219 -135.158,72.415c-42.253,-7.323 -69.265,-36.327 -89.818,-75.193c-22.637,-42.805 -37.377,-97.286 -52.925,-151.843c-16.28,-57.127 -33.425,-114.323 -59.883,-159.682c-28.349,-48.6 -67.202,-84.001 -125.315,-94.2c-247.088,-43.364 -429.663,-121.01 -534.604,-213.043c-66.539,-58.355 -101.329,-122.042 -98.851,-186.169c2.056,-53.209 29.855,-106.02 84.162,-155.716c56.964,-52.128 142.537,-100.397 258.627,-141.684c22.578,-8.03 53.338,-19.821 53.338,-19.821c4.665,-1.788 8.282,-5.575 9.854,-10.318c1.572,-4.743 0.933,-9.941 -1.74,-14.162c-0,-0 -65.189,-103.768 -18.751,-238.381c31.908,-92.492 115.913,-198.383 304.861,-296.928c157.175,-81.974 308.759,-87.772 442.358,-115.816c83.649,-17.559 160.453,-43.619 227.914,-99.618c99.953,-82.97 180.055,-232.597 228.757,-523.301c4.814,-28.735 14.863,-47.37 30.841,-56.088c16.045,-8.756 36.831,-7.107 60.672,1.158c52.488,18.195 117.143,68.647 181.548,138.642c98.586,107.142 195.847,260.165 246.596,418.413c79.155,246.82 32.657,394.733 20.008,473.97c-6.988,43.779 -1.868,70.269 23.186,84.6c146.427,83.761 236.679,225.131 266.006,431.194c25.148,176.706 -73.314,295.493 -169.299,367.963l-0,0Z" style="fill:#7e4021;"/><path d="M1838.06,1463.52c-1.616,-1.273 229.391,-453.479 265.969,-525.392c38.56,-75.807 319.731,-717.502 329.065,-727.949c15.043,-16.839 82.903,-55.824 156.205,-5.958c33.98,23.115 58.081,80.652 61.941,103.941c6.694,40.39 -286.465,666.814 -319.842,736.248c-13.241,27.543 -200.698,434.02 -219.012,441.235c-19.952,7.86 -59.985,39.14 -145.521,64.08c-58.671,17.107 -142.268,-19.199 -128.805,-86.205Z" style="fill:#ebccb8;"/><path d="M1821.4,1461.92c-7.402,40.498 13.403,72.06 45.688,90.682c30.319,17.488 70.945,22.891 104.445,13.124c86.354,-25.179 126.822,-56.639 146.964,-64.574c2.238,-0.882 5.909,-2.998 9.732,-7.629c5.341,-6.469 15.086,-22.893 27.413,-46.065c57.879,-108.802 180.171,-373.758 190.78,-395.827c26.745,-55.639 220.015,-468.342 292.824,-651.91c13.073,-32.959 22.307,-58.738 26.231,-74.075c2.466,-9.64 2.813,-16.557 2.208,-20.209c-4.278,-25.814 -31.345,-89.375 -69.008,-114.997c-83.572,-56.851 -160.858,-10.562 -178.009,8.635c-1.125,1.259 -6.041,9.862 -13.098,24.895c-52.666,112.177 -283.713,638.422 -318.393,706.602c-32.936,64.751 -223.43,437.684 -260.021,512.551c-4.379,8.961 -6.742,14.434 -7.065,15.534c-0.336,1.147 -0.561,2.234 -0.691,3.263Zm813.24,-1151.9c-0.256,1.367 -1.552,8.089 -3.237,13.759c-4.428,14.896 -12.471,36.754 -23.142,63.657c-72.569,182.965 -265.224,594.302 -291.882,649.758c-10.575,22.001 -132.465,286.149 -190.166,394.614c-10.138,19.058 -20.691,35.8 -23.225,39.763c-20.768,9.617 -60.532,38.759 -140.785,62.159c-25.171,7.339 -55.679,3.142 -78.46,-9.998c-20.008,-11.54 -33.999,-30.528 -29.595,-55.56c0.807,-1.743 2.731,-5.855 4.956,-10.407c36.557,-74.798 226.878,-447.384 259.784,-512.076c30.879,-60.709 217.21,-483.955 295.284,-656.183c15.946,-35.178 30.275,-65.022 32.294,-69.214c14.617,-14.868 71.83,-44.212 133.462,-2.286c29.882,20.328 50.85,70.716 54.712,92.014Z" style="fill:#7e4021;"/><path d="M1790.93,1521.82l-0.025,-0.773c-0.528,-9.184 -8.413,-16.21 -17.596,-15.682c-6.99,0.402 -12.183,3.82 -14.907,10.909c-0.819,2.131 -1.67,5.855 -0.757,10.521c0.725,3.708 3.517,10.37 3.851,11.069c4.396,9.205 10.652,17.86 16.963,25.82c19.98,25.2 44.388,38.441 74.868,46.953c8.86,2.474 18.061,-2.71 20.536,-11.57c2.474,-8.859 -2.71,-18.061 -11.57,-20.535c-23.381,-6.529 -42.388,-16.228 -57.715,-35.558c-4.784,-6.034 -9.671,-12.499 -13.004,-19.477l-0.644,-1.677Zm-5.396,12.459c-2.531,2.329 -5.794,3.891 -9.435,4.291c3.807,-0.383 6.946,-1.829 9.435,-4.291Z" style="fill:#7e4021;"/><path d="M2106.86,1507.49c68.866,-34.912 122.165,-45.812 140.328,-53.784c8.423,-3.697 12.26,-13.537 8.563,-21.96c-3.697,-8.423 -13.536,-12.26 -21.959,-8.563c-18.387,8.07 -72.291,19.234 -142.005,54.576c-8.204,4.16 -11.488,14.198 -7.329,22.402c4.159,8.205 14.197,11.489 22.402,7.329Z" style="fill:#7e4021;"/><path d="M2322.26,476.213c0.424,-5.105 8.49,5.734 12.738,8.595c14.881,10.021 29.501,20.465 42.809,32.547c34.08,30.939 61.543,68.065 73.997,112.841c38.145,137.138 -8.82,170.379 -62.11,293.991c-18.864,43.757 -57.745,122.523 -85.04,161.949c-0.165,0.237 -0.383,0.619 -0.756,0.578c-2.602,-0.289 -34.462,-91.819 -63.289,-140.811c-30.465,-51.776 -98.044,-90.041 -97.187,-91.829c44.066,-91.954 158.863,-337.042 178.838,-377.861Z" style="fill:#ee909d;"/><path d="M2306.38,470.758c-22.33,45.923 -134.533,285.441 -177.985,376.113c-0.849,1.773 -4.967,13.355 6.704,22.131c10.072,7.575 65.087,41.061 91.149,85.353c25.687,43.655 53.714,121.466 60.959,136.792c4.961,10.493 13.266,11.955 14.854,12.132c7.066,0.785 13.189,-3.164 16.299,-7.656c27.788,-40.138 67.437,-120.291 86.642,-164.838c55.238,-128.131 102.401,-162.904 62.862,-305.055c-13.307,-47.844 -42.436,-87.656 -78.851,-120.715c-13.904,-12.622 -29.156,-23.562 -44.702,-34.031c-2.576,-1.734 -6.571,-6.631 -9.263,-8.616c-3.77,-2.78 -7.408,-3.804 -9.974,-4.072c-4.97,-0.52 -9.117,0.886 -12.56,3.555c-2.271,1.76 -4.851,4.425 -6.135,8.909l0.001,-0.002Zm22.538,30.064c13.102,8.901 25.94,18.207 37.689,28.873c31.745,28.819 57.542,63.259 69.143,104.967c36.751,132.128 -10.014,163.83 -61.358,282.927c-15.082,34.984 -43.15,92.78 -67.53,133.951c-12.568,-31.321 -32.902,-81.827 -51.885,-114.09c-22.371,-38.019 -70.301,-74.393 -90.54,-88.698c42.839,-89.767 132.816,-281.639 164.481,-347.93Zm9.878,-22.513l0.076,-0.715c-0.02,0.244 -0.046,0.482 -0.076,0.715Z" style="fill:#7e4021;"/><path d="M411.05,1914.75c35.945,6.104 73.486,8.528 109.885,9.574c121.656,3.496 217.479,-9.811 316.952,74.245c32.944,27.838 65.48,62.12 106.104,78.585c57.395,23.262 102.414,-6.799 145.867,-42.659c18.568,-15.324 36.887,-31.461 56.408,-42.633c16.862,-9.651 34.614,-15.501 54.564,-11.902c38.578,6.959 77.018,26.027 115.173,40.448c42.636,16.114 84.978,26.403 126.518,14.258c40.632,-11.88 69.901,-29.195 98.314,-46.525c38.988,-23.779 76.226,-47.623 144.661,-53.63c64.815,-5.689 129.476,13.786 192.647,22.284c68.828,9.258 135.835,6.231 199.799,-46.374c31.517,-25.921 56.628,-61.881 63.652,-102.621c1.563,-9.064 -4.528,-17.693 -13.593,-19.256c-9.065,-1.563 -17.693,4.528 -19.256,13.593c-5.673,32.907 -26.519,61.602 -51.976,82.539c-55.67,45.784 -114.279,47.14 -174.182,39.083c-65.559,-8.819 -132.741,-28.358 -200.005,-22.454c-63.022,5.532 -102.198,24.487 -138.431,45.882c-33.294,19.659 -63.807,41.692 -110.984,55.485c-34.661,10.134 -69.805,0.001 -105.38,-13.445c-40.053,-15.139 -80.542,-34.766 -121.039,-42.071c-28.091,-5.068 -53.296,2.187 -77.04,15.776c-21.083,12.067 -41.013,29.304 -61.067,45.854c-33.803,27.896 -67.48,55.572 -112.129,37.476c-37.407,-15.161 -66.775,-47.52 -97.111,-73.154c-106.14,-89.69 -207.698,-78.373 -337.509,-82.104c-34.866,-1.001 -70.83,-3.27 -105.262,-9.117c-9.069,-1.539 -17.681,4.573 -19.221,13.642c-1.54,9.069 4.573,17.682 13.641,19.221Z" style="fill:#7e4021;"/><path d="M1987.37,712.842c0.05,-5.179 -2.308,-10.305 -6.797,-13.601c-6.596,-4.842 -12.015,-3.765 -14.862,-3.022c-5.851,1.527 -10.811,5.296 -12.35,13.209c-0.358,1.843 -0.619,5.146 0.572,9.256c0.794,2.743 3.201,7.898 4.028,10.38c2.426,7.284 4.277,14.711 5.791,22.236c4.759,23.639 5.372,48.201 4.621,72.236c-2.256,72.168 -23.879,135.736 -77.592,186.121c-75.481,70.805 -178.484,108.424 -281.07,114.213c-66.468,3.75 -130.443,-0.936 -195.219,18.609c-42.808,12.916 -71.851,34.527 -99.69,54.155c-36.383,25.653 -70.568,47.298 -140.321,31.664c-8.975,-2.012 -17.896,3.642 -19.908,12.618c-2.012,8.976 3.642,17.897 12.618,19.909c69.585,15.596 109.622,0.226 146.252,-23.026c32.328,-20.522 61.42,-48.546 110.678,-63.408c62.185,-18.763 123.658,-13.64 187.468,-17.241c110.284,-6.223 220.852,-47.064 301.997,-123.182c60.512,-56.763 85.563,-128.088 88.104,-209.391c0.83,-26.573 0.001,-53.72 -5.26,-79.854c-1.784,-8.866 -3.986,-17.611 -6.844,-26.192c-0.382,-1.148 -1.366,-3.608 -2.216,-5.689Zm-24.544,14.517l0.019,0.009l-0.169,-0.093l0.15,0.084Zm-0.646,-0.364l0.043,0.025l-0.559,-0.349l0.516,0.324Zm-0.638,-0.4l-0.695,-0.484c0.233,0.171 0.465,0.332 0.695,0.484Z" style="fill:#7e4021;"/><path d="M1234.22,1476.19c11.937,12.176 28.447,19.462 48.485,22.332c25.7,3.681 57.814,0.017 92.084,-7.579c79.167,-17.545 170.831,-56.515 214.409,-58.79c44.986,-2.349 87.633,11.989 125.266,35.937c7.761,4.939 18.071,2.648 23.009,-5.113c4.939,-7.76 2.648,-18.07 -5.113,-23.009c-43.495,-27.678 -92.908,-43.818 -144.9,-41.103c-44.651,2.331 -138.766,41.557 -219.884,59.535c-25.138,5.571 -48.929,9.035 -69.258,8.118c-16.797,-0.757 -31.014,-4.197 -40.294,-13.663c-6.439,-6.569 -17,-6.674 -23.569,-0.234c-6.569,6.439 -6.674,17 -0.235,23.569Z" style="fill:#7e4021;"/><path d="M463.808,1571c-18.673,8.012 -43.373,27.486 -59.276,53.12c-16.784,27.054 -23.89,60.471 -7.11,94.201c23.57,47.382 77.996,56.25 143.068,47.548c51.371,-6.87 109.515,-23.689 160.059,-32.624c30.677,-5.423 58.266,-8.182 78.925,-2.372c39.346,11.066 68.32,39.737 97.698,67.141c33.583,31.326 67.62,61.163 112.741,70.511c39.089,8.098 75.78,-4.361 112.568,-17.441c30.962,-11.01 61.992,-22.649 95.652,-15.168c36.834,8.185 66.824,28.89 97.923,42.437c36.154,15.75 73.464,23.156 120.903,0.634c50.378,-23.917 69.428,-73.452 63.522,-121.98c-8.687,-71.382 -71.664,-139.652 -164.258,-115.802c-32.451,8.358 -48.471,28.138 -52.399,49.241c-5.62,30.195 14.893,67.181 58.481,82.787c8.66,3.101 18.208,-1.413 21.309,-10.073c3.101,-8.661 -1.413,-18.209 -10.073,-21.31c-25.14,-9 -40.188,-27.89 -36.947,-45.304c1.98,-10.633 11.593,-18.85 27.943,-23.062c69.504,-17.902 116.334,33.968 122.855,87.55c4.233,34.782 -8.621,70.699 -44.729,87.841c-44.623,21.185 -77.73,7.224 -111.642,-9.767c-26.723,-13.39 -53.915,-28.678 -85.657,-35.732c-40.042,-8.898 -77.218,3.204 -114.051,16.3c-31.008,11.026 -61.689,23.035 -94.638,16.209c-39.041,-8.089 -67.708,-35.141 -96.766,-62.246c-33.263,-31.028 -66.861,-62.325 -111.41,-74.855c-24.533,-6.899 -57.324,-4.803 -93.753,1.637c-50.111,8.858 -107.743,25.597 -158.674,32.409c-26.112,3.492 -50.315,4.435 -70.353,-0.517c-16.89,-4.175 -30.481,-12.813 -38.453,-28.838c-11.018,-22.15 -5.43,-44.017 5.591,-61.783c11.903,-19.185 30.118,-34.063 44.095,-40.059c8.453,-3.627 12.371,-13.435 8.744,-21.888c-3.627,-8.453 -13.434,-12.372 -21.888,-8.745Z" style="fill:#7e4021;"/><path d="M1744.91,889.685c6.5,10.835 20.573,39.023 44.075,63.191c8.016,8.243 21.216,8.428 29.46,0.411c8.243,-8.016 8.427,-21.216 0.411,-29.459c-20.575,-21.158 -32.525,-46.092 -38.215,-55.577c-5.915,-9.86 -18.722,-13.063 -28.583,-7.148c-9.86,5.915 -13.063,18.722 -7.148,28.582Z" style="fill:#f8a5b0;"/><path d="M1895.73,463.57c6.499,10.835 20.572,39.023 44.074,63.191c8.016,8.243 21.217,8.428 29.46,0.412c8.243,-8.016 8.428,-21.217 0.412,-29.46c-20.575,-21.158 -32.526,-46.091 -38.216,-55.577c-5.915,-9.86 -18.722,-13.063 -28.582,-7.148c-9.86,5.915 -13.063,18.722 -7.148,28.582Z" style="fill:#e0f0ff;"/><path d="M1470.37,768.385c9.082,8.784 29.972,32.369 58.928,49.63c9.876,5.888 22.675,2.65 28.562,-7.227c5.888,-9.876 2.65,-22.675 -7.227,-28.563c-25.35,-15.111 -43.346,-36.102 -51.297,-43.791c-8.266,-7.994 -21.466,-7.773 -29.459,0.492c-7.993,8.266 -7.772,21.466 0.493,29.459Z" style="fill:#ffce7b;"/><path d="M1759.62,1205.59c9.083,8.784 29.972,32.369 58.928,49.631c9.876,5.887 22.675,2.649 28.563,-7.228c5.887,-9.876 2.649,-22.675 -7.228,-28.562c-25.349,-15.112 -43.346,-36.103 -51.297,-43.792c-8.265,-7.993 -21.465,-7.773 -29.459,0.493c-7.993,8.265 -7.772,21.465 0.493,29.458Z" style="fill:#f8a5b0;"/><path d="M246.951,1776.86c9.082,8.783 29.971,32.368 58.928,49.63c9.876,5.888 22.674,2.649 28.562,-7.227c5.888,-9.877 2.649,-22.675 -7.227,-28.563c-25.35,-15.112 -43.346,-36.102 -51.297,-43.792c-8.266,-7.993 -21.466,-7.772 -29.459,0.493c-7.993,8.265 -7.773,21.465 0.493,29.459Z" style="fill:#f8a5b0;"/><path d="M1904.26,1660.37c-12.539,-1.553 -43.413,-7.828 -76.928,-4.199c-11.432,1.238 -19.708,11.523 -18.47,22.955c1.238,11.431 11.524,19.707 22.955,18.469c29.341,-3.177 56.344,2.766 67.321,4.126c11.411,1.413 21.823,-6.703 23.237,-18.114c1.413,-11.411 -6.704,-21.823 -18.115,-23.237Z" style="fill:#d2db8a;"/><path d="M1724.16,963.783c-6.309,10.947 -24.104,36.946 -33.802,69.232c-3.308,11.012 2.947,22.638 13.959,25.946c11.012,3.308 22.638,-2.947 25.946,-13.959c8.491,-28.265 24.472,-50.827 29.996,-60.41c5.742,-9.962 2.317,-22.712 -7.645,-28.454c-9.962,-5.742 -22.711,-2.316 -28.454,7.645Z" style="fill:#d2db8a;"/><path d="M2015.52,531.247c-6.31,10.947 -24.105,36.946 -33.803,69.232c-3.308,11.012 2.947,22.638 13.959,25.946c11.012,3.308 22.638,-2.947 25.946,-13.959c8.491,-28.265 24.472,-50.827 29.996,-60.41c5.743,-9.962 2.317,-22.712 -7.645,-28.454c-9.962,-5.742 -22.711,-2.317 -28.453,7.645Z" style="fill:#ffce7b;"/><path d="M835.285,946.792c12.13,-3.538 42.966,-9.998 72.306,-26.598c10.008,-5.662 13.536,-18.383 7.874,-28.391c-5.662,-10.007 -18.384,-13.535 -28.391,-7.873c-25.687,14.532 -52.836,19.765 -63.455,22.862c-11.038,3.219 -17.386,14.795 -14.167,25.833c3.219,11.038 14.795,17.386 25.833,14.167Z" style="fill:#f8a5b0;"/><path d="M1076.86,1565.02c12.13,-3.537 42.966,-9.997 72.306,-26.597c10.008,-5.662 13.536,-18.384 7.874,-28.392c-5.662,-10.007 -18.384,-13.535 -28.392,-7.873c-25.686,14.533 -52.835,19.765 -63.454,22.862c-11.038,3.22 -17.386,14.795 -14.167,25.833c3.219,11.039 14.795,17.387 25.833,14.167Z" style="fill:#ffce7b;"/><path d="M1550.69,1718.23c12.129,-3.537 42.965,-9.997 72.306,-26.598c10.007,-5.662 13.535,-18.383 7.873,-28.391c-5.662,-10.007 -18.383,-13.535 -28.391,-7.873c-25.686,14.532 -52.836,19.765 -63.454,22.862c-11.039,3.219 -17.387,14.795 -14.168,25.833c3.22,11.038 14.795,17.386 25.834,14.167Z" style="fill:#ffce7b;"/><path d="M1463.92,1581.55c8.632,9.226 28.315,33.826 56.372,52.514c9.57,6.375 22.514,3.78 28.889,-5.789c6.374,-9.57 3.779,-22.515 -5.79,-28.889c-24.563,-16.36 -41.487,-38.225 -49.044,-46.302c-7.855,-8.397 -21.05,-8.836 -29.446,-0.981c-8.397,7.856 -8.836,21.05 -0.981,29.447Z" style="fill:#f8a5b0;"/><path d="M1299.49,2111.28c8.632,9.226 28.316,33.826 56.372,52.514c9.57,6.374 22.515,3.78 28.889,-5.79c6.374,-9.569 3.78,-22.514 -5.79,-28.888c-24.562,-16.36 -41.487,-38.225 -49.044,-46.302c-7.855,-8.397 -21.049,-8.836 -29.446,-0.981c-8.397,7.855 -8.836,21.05 -0.981,29.447Z" style="fill:#f8a5b0;"/><path d="M1329.71,765.293c-9.399,8.445 -34.39,27.629 -53.639,55.304c-6.565,9.44 -4.232,22.434 5.208,28.999c9.439,6.566 22.433,4.232 28.998,-5.207c16.852,-24.228 39.053,-40.709 47.28,-48.102c8.553,-7.684 9.258,-20.867 1.574,-29.42c-7.685,-8.553 -20.868,-9.258 -29.421,-1.574Z" style="fill:#e0f0ff;"/><path d="M1112.49,1095.43c12.523,1.676 43.335,8.253 76.884,4.952c11.443,-1.125 19.819,-11.33 18.693,-22.773c-1.126,-11.443 -11.33,-19.819 -22.773,-18.693c-29.37,2.889 -56.314,-3.317 -67.277,-4.784c-11.397,-1.526 -21.888,6.489 -23.413,17.886c-1.525,11.396 6.489,21.887 17.886,23.412Z" style="fill:#e0f0ff;"/><path d="M1119.87,2112.23c-10.784,6.583 -38.862,20.874 -62.847,44.563c-8.181,8.08 -8.263,21.281 -0.184,29.462c8.08,8.181 21.282,8.263 29.463,0.183c20.997,-20.738 45.837,-32.881 55.278,-38.645c9.814,-5.991 12.918,-18.823 6.927,-28.637c-5.991,-9.814 -18.823,-12.917 -28.637,-6.926Z" style="fill:#d2db8a;"/><path d="M581.121,1098.89c-8.477,-9.369 -27.748,-34.293 -55.49,-53.446c-9.462,-6.533 -22.448,-4.154 -28.981,5.308c-6.533,9.462 -4.154,22.448 5.308,28.981c24.287,16.767 40.845,38.91 48.266,47.112c7.714,8.526 20.9,9.186 29.426,1.471c8.526,-7.714 9.185,-20.9 1.471,-29.426Z" style="fill:#d2db8a;"/><path d="M568.345,1252.76c9.339,-8.51 34.197,-27.867 53.253,-55.675c6.5,-9.485 4.076,-22.463 -5.409,-28.962c-9.485,-6.5 -22.462,-4.077 -28.962,5.408c-16.683,24.345 -38.768,40.98 -46.944,48.429c-8.5,7.744 -9.113,20.932 -1.369,29.431c7.744,8.5 20.932,9.113 29.431,1.369Z" style="fill:#f8a5b0;"/><path d="M1158.55,1580.92c-7.469,10.19 -28,34.088 -41.17,65.12c-4.493,10.584 0.453,22.825 11.038,27.317c10.584,4.492 22.825,-0.454 27.317,-11.038c11.53,-27.167 29.883,-47.847 36.422,-56.768c6.797,-9.274 4.786,-22.322 -4.488,-29.119c-9.274,-6.797 -22.322,-4.786 -29.119,4.488Z" style="fill:#d2db8a;"/><path d="M1555.98,2066.44c-7.469,10.191 -27.999,34.089 -41.17,65.121c-4.492,10.584 0.454,22.824 11.038,27.316c10.585,4.493 22.825,-0.453 27.317,-11.038c11.53,-27.166 29.883,-47.846 36.422,-56.768c6.797,-9.274 4.786,-22.322 -4.488,-29.119c-9.274,-6.797 -22.322,-4.786 -29.119,4.488Z" style="fill:#e0f0ff;"/><path d="M1600.09,910.393c-11.264,5.724 -40.369,17.787 -66.125,39.537c-8.785,7.418 -9.894,20.573 -2.475,29.358c7.418,8.785 20.573,9.894 29.358,2.476c22.548,-19.041 48.258,-29.215 58.119,-34.226c10.25,-5.209 14.343,-17.76 9.134,-28.011c-5.209,-10.25 -17.761,-14.343 -28.011,-9.134Z" style="fill:#f8a5b0;"/><path d="M913.934,2136.39c-12.395,-2.446 -42.742,-10.912 -76.431,-9.688c-11.491,0.418 -20.481,10.086 -20.063,21.576c0.417,11.491 10.085,20.481 21.576,20.064c29.493,-1.072 56.002,6.786 66.854,8.926c11.281,2.226 22.246,-5.126 24.472,-16.407c2.225,-11.28 -5.127,-22.246 -16.408,-24.471Z" style="fill:#f8a5b0;"/><path d="M1876.11,569.555c-11.264,5.724 -40.369,17.787 -66.125,39.537c-8.785,7.418 -9.894,20.573 -2.476,29.358c7.419,8.785 20.574,9.895 29.359,2.476c22.548,-19.041 48.258,-29.214 58.119,-34.226c10.25,-5.209 14.343,-17.76 9.134,-28.011c-5.209,-10.25 -17.761,-14.343 -28.011,-9.134Z" style="fill:#d2db8a;"/><path d="M1054.69,1724.92c-8.923,-8.946 -29.383,-32.904 -58.023,-50.685c-9.769,-6.065 -22.624,-3.058 -28.689,6.71c-6.064,9.769 -3.057,22.624 6.711,28.689c25.073,15.566 42.688,36.878 50.499,44.71c8.12,8.141 21.322,8.158 29.463,0.038c8.141,-8.119 8.159,-21.321 0.039,-29.462Z" style="fill:#f8a5b0;"/><path d="M1622.11,1758.14c72.561,-33.512 119.905,-12.331 164.789,15.306c52.091,32.073 101.756,70.9 174.348,64.165c9.16,-0.85 15.906,-8.976 15.056,-18.135c-0.85,-9.159 -8.976,-15.906 -18.135,-15.056c-64.414,5.977 -107.57,-30.899 -153.792,-59.359c-53.426,-32.895 -109.873,-57.072 -196.242,-17.182c-8.351,3.857 -12,13.768 -8.143,22.119c3.857,8.351 13.769,11.999 22.119,8.142Z" style="fill:#7e4021;"/><path d="M458.872,1159.38c-7.128,72.565 -5.3,124.713 47.504,182.797c6.188,6.807 16.737,7.309 23.544,1.121c6.806,-6.187 7.308,-16.737 1.121,-23.543c-45.26,-49.785 -45.105,-94.92 -38.995,-157.117c0.899,-9.154 -5.803,-17.317 -14.958,-18.216c-9.154,-0.899 -17.317,5.803 -18.216,14.958Z" style="fill:#7e4021;"/><path d="M588.311,1361.38c-4.074,-7.611 -13.408,-10.907 -21.43,-7.353c-8.41,3.727 -12.213,13.58 -8.487,21.99c3.421,7.72 11.856,14.953 23.98,19.597c17.773,6.809 44.723,9.375 54.514,10.909c9.088,1.423 17.622,-4.8 19.045,-13.887c1.423,-9.088 -4.799,-17.622 -13.887,-19.045c-7.511,-1.177 -26.348,-2.793 -41.589,-7.093c-4.627,-1.305 -10.967,-4.51 -12.146,-5.118Z" style="fill:#7e4021;"/><path d="M1539.34,625.059c43.252,-51.608 73.55,-108.576 94.116,-172.633c2.812,-8.758 -2.016,-18.152 -10.774,-20.964c-8.758,-2.811 -18.152,2.016 -20.964,10.775c-19.225,59.882 -47.493,113.167 -87.926,161.41c-5.908,7.05 -4.982,17.571 2.068,23.48c7.05,5.908 17.571,4.982 23.48,-2.068Z" style="fill:#7e4021;"/><path d="M1652.92,364.989c0.992,-24.757 5.602,-49.826 7.006,-74.741c0.517,-9.184 -6.519,-17.06 -15.703,-17.578c-9.184,-0.517 -17.06,6.519 -17.578,15.703c-1.413,25.094 -6.032,50.346 -7.032,75.281c-0.368,9.191 6.794,16.952 15.986,17.321c9.191,0.368 16.952,-6.794 17.321,-15.986Z" style="fill:#7e4021;"/><path d="M1647.14,57.512c46.997,29.689 79.284,89.178 97.199,139.55c40.249,113.17 20.367,237.759 -25.29,346.348c-3.565,8.479 0.425,18.258 8.905,21.823c8.479,3.566 18.258,-0.424 21.823,-8.904c48.822,-116.116 69.007,-249.42 25.968,-370.437c-20.304,-57.09 -58.175,-123.714 -111.583,-157.057c-0.298,-0.186 -2.923,-1.374 -4.937,-2.275c-1.337,-0.882 -2.826,-1.581 -4.442,-2.058c-12.805,-3.774 -18.171,4.975 -18.686,5.643c-3.105,4.032 -4.427,8.81 -2.888,14.516c0.527,1.957 1.677,5.505 5.751,8.74c0.463,0.367 5.895,3.009 8.18,4.111Zm-0.89,-0.801c1.925,0.471 3.526,0.538 4.815,0.417c-1.584,0.096 -3.203,-0.035 -4.815,-0.417Z" style="fill:#7e4021;"/><path d="M1690.12,26.073c-2.723,-2.757 -6.414,-4.58 -10.578,-4.895c-3.921,-0.297 -6.775,0.726 -8.787,1.74c-5.223,2.633 -8.171,6.83 -8.999,12.482c-0.178,1.219 -1.629,8.899 6.142,15.587c3.942,3.393 28.79,21.23 41.819,31.316c20.088,15.549 37.999,33.272 55.721,51.427c47.208,48.359 88.122,104.48 110.115,168.888c2.972,8.705 12.453,13.359 21.158,10.386c8.705,-2.972 13.359,-12.453 10.387,-21.158c-23.595,-69.098 -67.161,-129.52 -117.807,-181.401c-18.802,-19.26 -37.859,-38.004 -59.17,-54.501c-11.627,-9.001 -36.27,-27.129 -40.001,-29.871Zm-3.085,25.903c-2.661,1.65 -5.807,2.563 -9.135,2.484c4.053,0.125 7.001,-1.103 9.135,-2.484Zm0.589,-0.383l-0.166,0.112l0.115,-0.074l0.051,-0.038Zm6.788,-9.6c-0.788,3.046 -2.408,5.731 -4.587,7.822c2.245,-2.108 3.835,-4.686 4.587,-7.822Z" style="fill:#7e4021;"/><path d="M1356.01,861.072c-2.495,3.742 -7.56,6.232 -12.893,8.747c-12.163,5.738 -26.563,9.68 -35.247,13.016c-96.4,37.035 -269.087,50.038 -404.507,95.736c-96.075,32.42 -173.399,81.659 -198.445,162.773c-21.612,69.995 16.523,123.376 71.155,146.478c53.407,22.585 122.435,15.132 164.304,-34.108c29.362,-34.531 26.497,-64.143 11.326,-83.995c-21.183,-27.716 -74.091,-37.94 -115.165,-14.292c-7.972,4.59 -10.718,14.789 -6.128,22.76c4.59,7.972 14.788,10.718 22.76,6.128c17.751,-10.22 38.966,-11.376 55.214,-5.609c9.736,3.456 17.861,9.291 20.271,18.062c2.681,9.759 -1.861,21.463 -13.672,35.353c-32.033,37.673 -85.067,42.279 -125.927,25c-39.635,-16.76 -67.968,-55.162 -52.288,-105.943c22.103,-71.584 92.465,-112.412 177.253,-141.024c135.866,-45.848 309.086,-59.046 405.804,-96.203c9.252,-3.555 24.553,-7.871 37.513,-13.984c11.422,-5.388 21.061,-12.388 26.406,-20.403c5.103,-7.654 3.032,-18.01 -4.621,-23.113c-7.654,-5.103 -18.01,-3.032 -23.113,4.621Z" style="fill:#7e4021;"/><path d="M2103.89,1699.05c12.789,-4.579 24.907,-10.254 37.016,-14.189c14.174,-4.606 28.347,-6.671 44.184,2.238c8.017,4.509 18.188,1.662 22.697,-6.356c4.51,-8.017 1.662,-18.187 -6.355,-22.697c-21.479,-12.082 -41.028,-12.466 -60.303,-7.873c-15.987,3.809 -31.768,11.526 -48.614,17.546c0.189,-0.068 0.762,-0.249 0.762,-0.249c-0,0 -7.701,2.978 -10.006,5.101c-4.63,4.265 -6.084,9.434 -5.603,14.467c0.874,9.157 9.018,15.881 18.175,15.007c3.006,-0.287 5.75,-1.357 8.047,-2.995Z" style="fill:#7e4021;"/><path d="M405.371,1374.88c25.777,50.1 75.607,85.054 133.455,105.363c84.637,29.713 186.002,27.889 248.698,0.497c8.429,-3.682 12.283,-13.516 8.6,-21.945c-3.683,-8.429 -13.516,-12.283 -21.945,-8.6c-56.549,24.706 -147.973,25.396 -224.311,-1.403c-49.469,-17.367 -92.814,-46.32 -114.857,-89.162c-4.208,-8.179 -14.266,-11.403 -22.445,-7.195c-8.179,4.208 -11.403,14.266 -7.195,22.445Z" style="fill:#7e4021;"/><path d="M919.165,1446.6c11.206,-11.739 28.671,-15.829 47.231,-16.612c32.078,-1.353 67.75,8.037 89.254,17.549c8.412,3.72 18.263,-0.089 21.984,-8.501c3.721,-8.412 -0.088,-18.263 -8.501,-21.984c-25.085,-11.096 -66.72,-21.946 -104.141,-20.368c-27.778,1.172 -53.167,9.33 -69.938,26.899c-6.352,6.654 -6.107,17.213 0.547,23.564c6.653,6.352 17.212,6.107 23.564,-0.547Z" style="fill:#7e4021;"/><path d="M153.154,1780.22c-4.533,-6.677 -18.497,-27.297 -19.28,-28.969c-3.914,-8.361 -6.425,-17.408 -7.967,-26.495c-6.967,-41.056 17.173,-76.027 41.599,-106.803c5.718,-7.205 4.511,-17.698 -2.694,-23.416c-7.205,-5.718 -17.698,-4.511 -23.416,2.694c-30.178,38.024 -56.96,82.377 -48.352,133.101c2.041,12.031 5.459,23.981 10.64,35.05c1.279,2.732 18.992,33.312 28.938,42.006c12.006,10.496 22.814,6.328 28.512,-0.28c6.007,-6.966 5.228,-17.499 -1.739,-23.506c-1.874,-1.616 -4.006,-2.741 -6.241,-3.382Zm-16.708,4.507c-0.189,0.197 -0.374,0.402 -0.557,0.614l0.557,-0.614Zm0.515,-0.519l-0.335,0.337l0.383,-0.38l-0.048,0.043Zm0.559,-0.51l-0.123,0.112l0.147,-0.132l-0.024,0.02Z" style="fill:#7e4021;"/><path d="M193.226,1555.27c-5.583,1.517 -10.219,5.907 -11.771,11.905c-1.992,7.699 0.833,12.311 2.674,14.833c3.296,4.511 8.139,7.519 15.26,6.885c1.979,-0.177 5.268,-0.877 8.875,-3.227c1.764,-1.149 6.37,-4.857 7.079,-5.431c4.844,-2.627 9.694,-5.245 14.56,-7.829c12.942,-6.873 26.124,-13.318 39.396,-19.526c8.332,-3.897 11.932,-13.826 8.035,-22.158c-3.897,-8.332 -13.826,-11.933 -22.158,-8.035c-13.782,6.446 -27.468,13.143 -40.907,20.28c-5.091,2.703 -10.164,5.442 -15.231,8.19c-1.251,0.678 -3.761,2.537 -5.812,4.113Zm20.692,19.423l-0.193,0.833c0.074,-0.284 0.138,-0.561 0.193,-0.833Zm0.145,-0.807l-0.138,0.771l0.131,-0.718l0.007,-0.053Zm0.095,-0.731l-0.051,0.396l0.048,-0.358l0.003,-0.038Z" style="fill:#7e4021;"/><path d="M189.259,1639.89c-2.791,1.102 -5.317,2.973 -7.234,5.559c-5.479,7.389 -3.928,17.836 3.462,23.315c6.233,4.621 12.24,4.722 18.005,2.481c2.78,-1.08 5.786,-3.055 8.459,-6.169c1.179,-1.373 3.339,-4.542 4.211,-5.848c11.156,-7.903 22.738,-15.325 34.633,-22.057c8.005,-4.532 10.825,-14.709 6.294,-22.715c-4.531,-8.005 -14.709,-10.825 -22.714,-6.294c-13.332,7.546 -26.303,15.888 -38.777,24.778c-1.744,1.244 -4.379,4.418 -6.339,6.95Zm15.227,1.509l0.141,0.088l-0.009,-0.006l-0.132,-0.082Z" style="fill:#7e4021;"/><path d="M2370.75,1669.65c0.102,-5.984 -3.034,-11.826 -8.643,-14.905c-8.063,-4.425 -18.203,-1.472 -22.629,6.592c-0.933,1.7 -3.031,6.692 -1.458,14.638c2.976,15.027 24.041,80.108 -17.604,136.385c-5.472,7.394 -3.911,17.839 3.483,23.311c7.395,5.472 17.84,3.911 23.312,-3.483c49.64,-67.082 27.191,-144.293 23.539,-162.538Z" style="fill:#7e4021;"/><path d="M2281.37,1858.69c-8.837,1.424 -19.559,6.938 -30.129,14.435c-12.112,8.592 -24.373,19.74 -32.858,25.333c-7.681,5.062 -9.806,15.407 -4.744,23.088c5.062,7.68 15.407,9.806 23.087,4.744c8.719,-5.746 21.356,-17.15 33.8,-25.977c5.806,-4.118 11.296,-7.932 16.149,-8.715c9.082,-1.464 15.266,-10.026 13.802,-19.107c-1.465,-9.081 -10.026,-15.265 -19.107,-13.801Z" style="fill:#7e4021;"/></g></g></svg>