<?xml version="1.0" encoding="UTF-8" standalone="no"?><!DOCTYPE svg PUBLIC "-//W3C//DTD SVG 1.1//EN" "http://www.w3.org/Graphics/SVG/1.1/DTD/svg11.dtd"><svg width="100%" height="100%" viewBox="0 0 4027 5422" version="1.1" xmlns="http://www.w3.org/2000/svg" xmlns:xlink="http://www.w3.org/1999/xlink" xml:space="preserve" xmlns:serif="http://www.serif.com/" style="fill-rule:evenodd;clip-rule:evenodd;stroke-linejoin:round;stroke-miterlimit:2;"><g id="Coffee-to-go-02-Lady" serif:id="Coffee to go-02-Lady"><path d="M1876.49,4623.34c-29.229,-54.382 -58.052,-134.445 -152.949,-145.159c-109.421,-12.354 -157.712,85.199 -156.412,98.554c-90.561,30.639 -186.663,136.43 -167.962,255.297c17.067,108.476 101.128,475.914 321.11,492.606c191.952,14.565 337.549,-34.781 336.63,-185.665c-1.185,-194.705 -124.352,-236.395 -209.043,-272.914c-35.196,-15.176 26.164,-22.049 51.056,-61.591c41.385,-65.742 6.373,-127.541 -22.43,-181.128Z" style="fill:#86a8cb;"/><path d="M1865.12,4855.32l3.598,-2.227c15.04,-9.158 32.879,-21.608 44.298,-39.748c45.148,-71.718 9.568,-139.44 -21.853,-197.898c-31.347,-58.321 -63.989,-142.339 -165.76,-153.829c-85.073,-9.605 -136.886,40.584 -159.817,76.663c-6.128,9.641 -10.089,18.623 -12.41,25.782c-94.252,36.404 -189.905,147.1 -170.481,270.557c10.424,66.253 45.531,227.359 120.212,349.35c51.843,84.688 122.828,150.207 216.101,157.285c203.843,15.468 355.533,-42.154 354.558,-202.385c-0.503,-82.532 -22.129,-138.989 -53.113,-179.66c-42.785,-56.159 -104.175,-82.069 -155.333,-103.89Zm-281.334,-278.613c0.476,-1.314 4.368,-11.791 9.932,-20.546c18.36,-28.888 59.829,-69.111 127.946,-61.421c51.017,5.76 80.529,34.188 101.787,66.296c15.52,23.441 26.878,48.847 38.351,70.192c26.191,48.728 60.638,104.579 23.005,164.359c-8.97,14.249 -23.755,23.211 -35.307,30.175c-11.281,6.801 -20.225,12.674 -24.013,17.559c-5.374,6.93 -6.122,13.884 -3.753,20.632c1.733,4.934 6.671,11.867 19.523,17.409c48.562,20.94 110.766,43.032 152.681,98.049c27.493,36.088 45.849,86.429 46.295,159.662c0.501,82.239 -47.493,130.811 -123.17,154.022c-53.839,16.513 -121.099,20.57 -195.533,14.922c-82.716,-6.276 -144.218,-66.348 -190.194,-141.45c-72.048,-117.692 -105.656,-273.21 -115.713,-337.128c-17.387,-110.517 72.639,-208.432 156.839,-236.918c6.831,-2.311 11.341,-8.719 11.324,-15.814Z" style="fill:#7e4021;"/><path d="M1847.32,4867.36c5.45,-0.44 10.572,-3.553 13.348,-8.725c4.351,-8.104 1.303,-18.217 -6.802,-22.567c-1.848,-0.992 -4.993,-2.293 -9.469,-1.991c-1.9,0.128 -9.051,2.142 -11.306,2.789c-11.293,0.932 -22.969,-0.334 -34.183,-1.397c-32.361,-3.066 -63.716,-11.55 -92.498,-26.758c-8.133,-4.298 -18.225,-1.184 -22.523,6.949c-4.297,8.133 -1.183,18.225 6.95,22.522c32.659,17.258 68.206,26.993 104.927,30.472c13.648,1.293 27.884,2.609 41.594,1.304c1.096,-0.104 7.738,-1.965 9.962,-2.598Z" style="fill:#7e4021;"/><path d="M1406.38,4702.22c0.098,6.387 0.602,12.704 1.304,19.058c1.454,13.148 3.81,26.322 6.33,39.301c8.102,41.729 18.319,82.221 33.679,121.909c3.32,8.578 12.98,12.848 21.559,9.528c8.578,-3.321 12.847,-12.981 9.527,-21.559c-14.642,-37.834 -24.319,-76.452 -32.043,-116.231c-2.348,-12.093 -4.566,-24.362 -5.92,-36.612c-0.591,-5.337 -1.03,-10.64 -1.109,-16.007c0.004,0.272 -0.024,1.095 -0.024,1.095c0,-0 -1.929,-9.531 -2.578,-10.547c-2.341,-3.67 -5.394,-5.63 -8.378,-6.712c-3.816,-1.383 -8.101,-1.624 -12.81,0.6c-1.702,0.804 -4.606,2.298 -7.116,6.386c-1.872,3.051 -2.644,6.469 -2.421,9.791Zm21.253,14.936c-2.003,0.578 -4.11,0.783 -6.206,0.583c1.967,0.218 4.038,0.071 6.206,-0.583Zm-6.559,0.545l0.04,0.005l-0.067,-0.009l0.027,0.004Zm10.303,-2.142c1.674,-0.916 3.877,-2.506 5.833,-5.692c-1.496,2.437 -3.519,4.353 -5.833,5.692Z" style="fill:#7e4021;"/><path d="M1654.02,5267.89c10.672,3.861 21.38,7.593 32.3,10.605c29.513,8.14 60.225,12.375 90.543,15.604c90.193,9.604 184.625,-9.63 265.536,-52.537c8.127,-4.31 11.226,-14.407 6.916,-22.533c-4.309,-8.127 -14.406,-11.226 -22.532,-6.916c-75.083,39.816 -162.695,57.752 -246.391,48.84c-28.526,-3.038 -57.44,-6.933 -85.209,-14.592c-10.085,-2.781 -19.966,-6.25 -29.822,-9.816c-8.65,-3.129 -18.213,1.352 -21.343,10.002c-3.129,8.65 1.352,18.213 10.002,21.343Z" style="fill:#7e4021;"/><path d="M1553.99,4559.59c-6.077,19.347 -6.588,41.361 -6.281,61.389c0.657,42.886 13.339,82.587 31.164,121.254c3.851,8.353 13.76,12.009 22.113,8.158c8.354,-3.851 12.01,-13.759 8.159,-22.113c-15.863,-34.41 -27.521,-69.645 -28.106,-107.81c-0.255,-16.588 -0.281,-34.865 4.752,-50.889c2.757,-8.776 -2.13,-18.139 -10.906,-20.895c-8.776,-2.757 -18.139,2.13 -20.895,10.906Z" style="fill:#7e4021;"/><path d="M2030.26,4974.26c-133.115,-141.069 -301.215,-22.278 -344.072,8.474c-7.473,5.362 -9.187,15.784 -3.825,23.258c5.363,7.473 15.785,9.187 23.258,3.824c19.229,-13.797 66.45,-48.148 123.882,-63.055c54.879,-14.244 119.442,-10.106 176.513,50.375c6.313,6.691 16.87,6.997 23.56,0.684c6.691,-6.313 6.997,-16.87 0.684,-23.56Z" style="fill:#7e4021;"/><path d="M2273.69,3296.06c198.572,290.173 307.749,932.923 240.874,1042.77c-84.715,139.15 -345.633,249.187 -473.513,305.637c-13.733,6.062 -175.642,102.56 -236.014,109.8c-120.969,14.506 -132.569,-144.887 -78.007,-191.241c6.113,-5.193 479.404,-259.301 537.125,-364.691c57.742,-105.426 -227.838,-704.287 -210.817,-803.126c33.305,-193.387 180.756,-157.011 220.352,-99.15Z" style="fill:#9d5e3e;"/><path d="M2287.45,3286.64c-27.332,-39.94 -99.284,-71.175 -160.788,-41.562c-39.082,18.818 -75.135,62.474 -89.742,147.297c-3.297,19.14 3.115,55.851 16.862,103.619c29.862,103.761 92.626,264.279 140.4,407.819c26.905,80.838 49.06,156.192 57.49,212.551c4.984,33.318 5.958,59.194 -2.129,73.959c-16.618,30.343 -69.706,72.877 -135.239,118.607c-159.871,111.56 -393.766,237.741 -398.059,241.389c-25.174,21.387 -39.235,63.259 -36.799,105.187c2.189,37.675 17.477,74.781 46.896,96.52c19.998,14.778 46.595,22.871 80.686,18.783c19.265,-2.31 48.347,-12.883 79.882,-27.122c69.12,-31.212 151.272,-79.739 160.878,-83.979c77.286,-34.117 202.786,-87.722 309.275,-155.377c72.846,-46.28 136.719,-99.311 171.743,-156.84c8.93,-14.669 15.486,-37.754 18.941,-67.8c4.756,-41.364 4.109,-96.848 -1.582,-161.175c-21.881,-247.321 -118.356,-626.77 -258.715,-831.876l-0,0Zm-27.509,18.825c137.643,201.136 231.562,573.455 253.02,815.989c5.454,61.635 6.228,114.796 1.671,154.43c-2.755,23.954 -7.178,42.578 -14.298,54.273c-32.749,53.792 -93.032,102.764 -161.146,146.039c-104.949,66.677 -228.692,119.394 -304.862,153.017c-8.277,3.654 -70.158,39.981 -131.424,70.055c-38.646,18.97 -76.89,35.692 -99.843,38.445c-23.976,2.875 -42.843,-2.102 -56.907,-12.495c-21.674,-16.017 -31.816,-43.888 -33.429,-71.645c-1.788,-30.777 6.625,-62.153 25.104,-77.851c4.264,-3.623 236.762,-128.65 395.553,-239.456c71.038,-49.572 127.384,-97.039 145.399,-129.93c8.053,-14.704 11.217,-37.554 9.076,-66.778c-2.829,-38.606 -14.368,-89.644 -30.971,-147.14c-44.183,-153.005 -124.282,-352.955 -164.282,-482.897c-16.05,-52.14 -26.181,-92.045 -22.833,-111.489c12.037,-69.896 39.149,-107.414 71.353,-122.92c45.418,-21.868 98.636,0.86 118.819,30.353l0,0Z" style="fill:#7e4021;"/><path d="M3403.58,2499.34c104.098,-28.512 205.244,9.581 270.216,1.238c66.797,-8.578 124.514,-47.207 192.855,-48.009c22.442,-0.264 51.701,0.405 63.973,21.996c27.438,53.259 -44.196,72.551 -41.083,73.723c32.449,-7.776 99.605,-20.325 111.52,54.251c9.217,57.685 -71.373,63.857 -71.055,65.792c33.483,9.623 101.084,41.663 73.405,116.649c-18.278,49.516 -63.868,31.088 -92.491,20.038c46.754,28.374 86.363,88.465 23.463,132.883c-86.153,60.838 -233.052,-104.914 -319.682,-59.481c-84.213,44.165 -34.558,255.683 -166.224,232.735c-94.37,-16.448 -10.755,-183.083 -26.06,-258.784c-21.276,-105.236 -135.267,-120.317 -117.098,-239.547c6.365,-41.77 29.365,-94.613 98.261,-113.484Z" style="fill:#fff;"/><path d="M3976.99,2670.91c1.919,-0.924 3.825,-1.915 5.701,-2.974c22.193,-12.52 40.35,-33.471 34.827,-68.034c-4.388,-27.468 -15.431,-45.029 -29.046,-56.289c-12.569,-10.395 -27.649,-15.541 -43.171,-17.262c3.489,-5.639 6.099,-11.924 7.377,-18.854c2.12,-11.497 0.783,-25.001 -7.239,-40.572c-0.105,-0.204 -0.214,-0.405 -0.327,-0.603c-6.968,-12.259 -17.609,-19.994 -30.13,-24.566c-15.079,-5.505 -33.182,-6.04 -48.528,-5.86c-36.003,0.423 -69.255,10.592 -102.257,22.003c-30.248,10.459 -60.27,21.999 -92.525,26.141c-31.445,4.038 -71.623,-3.466 -116.557,-8.225c-48.332,-5.119 -101.746,-7.399 -155.939,7.444l0,-0c-77.23,21.152 -103.199,80.224 -110.334,127.047c-10.066,66.055 15.885,103.466 47.891,138.733c27.017,29.768 59.397,57.415 69.347,106.628c3.353,16.585 1.172,37.941 -2.383,61.047c-5.937,38.587 -16.05,81.544 -17.409,117.407c-1.848,48.797 12.346,85.258 59.326,93.446c23.774,4.143 42.601,1.534 57.834,-5.391c33.632,-15.289 50.437,-53.721 62.056,-97.998c7.16,-27.29 12.807,-56.655 21.893,-81.896c7.707,-21.409 17.494,-39.905 35.044,-49.109c18.005,-9.443 39.151,-6.932 61.847,-0.116c26.53,7.969 54.847,22.203 83.186,35.883c30.338,14.645 60.714,28.652 89.054,35.179c32.191,7.414 62.016,5.363 87.468,-12.611c23.231,-16.405 34.547,-34.95 38.232,-53.253c3.534,-17.551 0.06,-35.301 -8.415,-51.825c-2.173,-4.236 -4.683,-8.391 -7.477,-12.437c21.409,-1.329 41.233,-12.156 52.709,-43.248c22.66,-61.388 -8.02,-98.89 -42.055,-119.835Zm-569.008,-155.502c60.197,-16.488 119.376,-9.532 170.608,-3.334c37.002,4.477 70.193,8.512 97.328,5.028c34.543,-4.436 66.777,-16.499 99.172,-27.7c29.641,-10.249 59.418,-19.795 91.755,-20.175c9.923,-0.116 21.363,-0.173 31.668,2.332c7.043,1.713 13.669,4.536 17.459,10.956c3.706,7.309 4.923,13.529 3.925,18.938c-1.541,8.357 -7.849,14.226 -13.985,18.73c-9.325,6.846 -19.317,10.624 -22.579,12.224c-11.109,5.451 -10.685,15.362 -10.474,17.456c0.504,4.995 2.639,10.939 10.806,14.015c3.119,1.175 6.518,1.388 9.759,0.611c10.32,-2.473 24.492,-5.565 39.034,-5.52c12.222,0.037 24.89,2.159 34.77,10.33c8.565,7.084 14.613,18.582 17.375,35.863c2.773,17.356 -7.146,27.455 -18.291,33.743c-14.886,8.398 -32.191,11.113 -37.881,12.421c-15.262,3.51 -15.215,17.611 -14.873,19.697c1.043,6.355 5.654,11.54 11.843,13.319c27.581,7.927 85.174,33.091 62.373,94.86c-3.641,9.863 -8.408,16.061 -14.519,19.154c-6.194,3.135 -13.285,3.119 -20.374,2.129c-12.75,-1.779 -25.565,-7.009 -35.959,-11.022c-8.055,-3.11 -17.15,0.446 -20.959,8.194c-3.81,7.748 -1.072,17.123 6.309,21.602c14.336,8.7 27.969,20.734 37.189,34.462c7.936,11.816 12.723,24.876 10.09,37.955c-2.302,11.434 -10.27,22.355 -24.783,32.603c-17.627,12.448 -38.465,12.491 -60.759,7.357c-26.142,-6.021 -54.058,-19.206 -82.044,-32.715c-36.312,-17.529 -72.736,-35.558 -105.702,-42.26c-25.221,-5.128 -48.672,-3.829 -69.304,6.992c-20.033,10.506 -34.118,28.612 -44.412,51.22c-13.343,29.301 -20.3,66.601 -29.285,100.845c-4.74,18.065 -10.044,35.214 -17.705,49.368c-6.416,11.852 -14.413,21.522 -25.904,26.746c-10.077,4.581 -22.588,5.638 -38.315,2.897c-28.565,-4.979 -32.864,-29.677 -31.74,-59.346c1.314,-34.709 11.299,-76.255 17.045,-113.6c4.233,-27.515 6.102,-52.971 2.109,-72.722c-11.327,-56.026 -46.578,-88.534 -77.335,-122.424c-25.766,-28.39 -47.726,-58.133 -39.622,-111.309c5.595,-36.718 25.624,-83.332 86.187,-99.92l-0,-0Z" style="fill:#7e4021;"/><path d="M3618.16,2628.14c7.435,1.172 14.984,-2.843 17.983,-10.102c3.511,-8.502 -0.541,-18.256 -9.043,-21.767c-0.737,-0.304 -3.676,-1.307 -8.578,-1.484c-14.221,-0.512 -77.141,0.498 -86.563,-0.199c-9.174,-0.679 -17.172,6.218 -17.851,15.391c-0.679,9.174 6.218,17.173 15.391,17.851c9.559,0.708 73.394,-0.251 87.822,0.269l0.839,0.041Z" style="fill:#7e4021;"/><path d="M3582.53,2672.78c-5.275,1.78 -12.182,0.676 -19.101,-0.471c-9.942,-1.649 -19.896,-4.205 -27.516,-5.327c-9.101,-1.34 -17.577,4.961 -18.916,14.062c-1.34,9.1 4.961,17.576 14.061,18.916c9.164,1.349 21.696,4.762 33.533,6.188c10.478,1.262 20.527,0.938 28.595,-1.784c8.716,-2.94 13.404,-12.404 10.464,-21.12c-2.941,-8.716 -12.405,-13.404 -21.12,-10.464Z" style="fill:#7e4021;"/><path d="M3932.81,2796.53c-133.283,-63.565 -185.34,-44.598 -269.194,-67.248c-8.881,-2.399 -18.038,2.864 -20.436,11.744c-2.399,8.88 2.863,18.038 11.744,20.436c82.042,22.161 133.133,2.963 263.537,65.155c8.303,3.96 18.258,0.434 22.218,-7.869c3.959,-8.303 0.433,-18.258 -7.869,-22.218Z" style="fill:#7e4021;"/><path d="M3976.09,2670.16c-50.84,-25.511 -102.151,-26.419 -152.366,-24.109c-45.482,2.092 -89.927,7.144 -131.743,-5.98c-8.776,-2.754 -18.138,2.135 -20.892,10.912c-2.755,8.776 2.134,18.138 10.911,20.892c45.485,14.275 93.783,9.749 143.256,7.474c44.738,-2.058 90.589,-2.125 135.884,20.604c8.221,4.126 18.246,0.8 22.371,-7.422c4.126,-8.221 0.8,-18.245 -7.421,-22.371Z" style="fill:#7e4021;"/><path d="M3889.68,2529.98c-20.408,7.622 -39.61,14.478 -56.075,19.829c-37.334,12.134 -75.003,16.75 -114.155,14.05c-9.177,-0.632 -17.141,6.304 -17.774,15.481c-0.632,9.177 6.304,17.141 15.481,17.774c43.472,2.997 85.298,-2.131 126.751,-15.604c16.864,-5.481 36.532,-12.497 57.434,-20.303c8.617,-3.218 13.001,-12.827 9.782,-21.444c-3.218,-8.618 -12.827,-13.001 -21.444,-9.783Z" style="fill:#7e4021;"/><path d="M3355.84,2474.21c26.448,24.644 44.315,130.273 -31.392,215.217c-17.185,19.283 -45.02,25.669 -64.051,10.757c-22.39,-17.544 -31.455,-63.41 -27.305,-118.324c4.571,-60.493 63.932,-162.457 122.748,-107.65Z" style="fill:#fff;"/><path d="M3367.2,2462.02c-15.512,-14.455 -31.281,-20.124 -46.267,-20.131c-14.888,-0.008 -29.372,5.733 -42.577,15.923c-33.547,25.888 -58.843,82.529 -61.886,122.795c-2.675,35.395 -0.017,67.272 7.555,91.195c5.878,18.573 14.886,32.726 26.089,41.504c25.702,20.139 63.565,13.254 86.774,-12.787c57.401,-64.405 64.791,-139.888 54.441,-188.478c-4.993,-23.445 -14.454,-41.005 -24.129,-50.021Zm-22.725,24.386c8.657,8.067 14.971,27.156 16.93,51.104c3.3,40.351 -7.65,93.985 -49.402,140.831c-11.177,12.541 -28.952,18.426 -41.33,8.727c-6.711,-5.258 -11.347,-14.198 -14.868,-25.324c-6.525,-20.617 -8.402,-48.122 -6.097,-78.625c2.059,-27.237 16.496,-63.793 36.995,-87.388c10.153,-11.687 21.542,-20.515 34.214,-20.509c7.745,0.004 15.541,3.713 23.558,11.184Z" style="fill:#7e4021;"/><path d="M3279.4,2636.89c-11.542,3.438 -37.043,-1.99 -42.4,-2.955c-156.518,-28.205 -309.724,-139.055 -399.497,-200.364c-95.093,-64.942 -134.792,-138.919 -135.752,-172.4c-2.009,-70.052 49.635,-106.448 119.673,-54.118c10.395,7.767 141.985,137.094 241.42,192.21c49.244,27.296 105.226,53.23 156.197,77.18c25.171,11.827 62.447,19.5 84.366,37.148c33.964,27.345 23.775,109.067 -24.007,123.299Z" style="fill:#7e4021;"/><path d="M3284.16,2652.87c29.817,-8.881 49.005,-37.978 54.34,-69.963c5.311,-31.844 -3.538,-65.302 -24.639,-82.291c-22.853,-18.4 -61.487,-26.919 -87.731,-39.251c-50.645,-23.796 -106.275,-49.55 -155.204,-76.672c-98.711,-54.714 -229.205,-183.274 -239.524,-190.984c-41.985,-31.37 -78.941,-33.784 -104.616,-20.219c-26.108,13.794 -42.917,45.463 -41.693,88.166c0.437,15.259 7.387,38.101 23.164,64.514c21.681,36.297 60.29,80.498 119.849,121.172c91.168,62.26 246.991,174.36 405.94,203.002c6.324,1.14 36.487,6.584 50.114,2.526Zm-9.515,-31.946c-3.051,0.908 -7.587,0.496 -12.147,0.094c-9.711,-0.857 -19.525,-2.935 -22.54,-3.479c-154.087,-27.766 -304.675,-137.368 -393.053,-197.724c-54.554,-37.256 -90.172,-77.492 -110.031,-110.738c-11.918,-19.952 -18.131,-36.85 -18.461,-48.376c-0.785,-27.369 7.212,-48.898 23.945,-57.739c17.171,-9.072 41.013,-3.53 69.092,17.45c10.471,7.823 143.157,137.918 243.316,193.435c49.559,27.471 105.892,53.584 157.189,77.687c24.1,11.324 60.016,18.15 81.002,35.046c12.871,10.363 15.903,31.419 12.664,50.843c-3.216,19.281 -13.002,38.147 -30.976,43.501Z" style="fill:#7e4021;"/><path d="M714.025,616.107c-79.37,27.512 -176.315,50.925 -213.3,121.22c-65.095,123.724 -49.254,249.038 -24.083,278.047c51.256,59.071 449.977,102.607 666.26,87.869c424.055,-28.897 1064.92,-120.383 1449.31,-246.307c156.428,-51.244 375.778,-145.338 400.503,-230.46c11.583,-39.879 -11.991,-113.137 -25.468,-149.196c-17.632,-47.174 -72.457,-106.228 -126.353,-121.883c-184.542,-53.603 -380.827,-9.128 -567.339,2.147c-193.866,11.72 -387.494,30.182 -580.848,48.351c-329.317,30.946 -774.898,139.574 -978.679,210.212Z" style="fill:#ee909d;"/><path d="M708.566,600.359c-48.538,16.825 -103.466,32.299 -147.833,57.34c-31.914,18.013 -58.487,40.944 -74.757,71.867c-47.656,90.578 -53.582,182.017 -43.971,239.107c4.61,27.384 13.209,47.437 22.048,57.624c7.336,8.453 20.363,17.071 38.541,24.904c23.622,10.178 56.725,19.741 96.16,28.278c149.71,32.409 392.579,50.797 545.281,40.392c425.246,-28.978 1067.89,-120.819 1453.36,-247.096c111.042,-36.377 253.262,-94.24 337.253,-155.176c39.199,-28.438 65.875,-58.274 74.066,-86.474c5.212,-17.944 4.537,-41.895 0.351,-66.774c-5.771,-34.303 -17.851,-70.534 -26.212,-92.906c-19.134,-51.192 -78.83,-115.065 -137.316,-132.053c-186.38,-54.137 -384.624,-9.872 -572.994,1.516c-194.051,11.731 -387.863,30.207 -581.402,48.394c-330.629,31.068 -777.984,140.138 -982.577,211.057l-0.001,0Zm10.918,31.495c202.968,-70.356 646.775,-178.543 974.779,-209.365c193.17,-18.152 386.613,-36.6 580.295,-48.309c184.653,-11.163 378.981,-55.847 561.684,-2.778c49.306,14.322 99.26,68.556 115.39,111.713c7.811,20.899 19.174,54.722 24.565,86.766c3.256,19.355 4.564,37.986 0.509,51.946c-3.332,11.473 -11.134,22.968 -21.972,34.648c-18.418,19.85 -45.354,39.626 -77.24,58.867c-82.549,49.813 -197.72,95.37 -290.473,125.756c-383.311,125.569 -1022.39,216.701 -1445.25,245.517c-150.093,10.227 -388.811,-7.86 -535.962,-39.715c-36.901,-7.988 -67.919,-16.788 -90.023,-26.312c-12.31,-5.304 -21.587,-10.413 -26.554,-16.137c-8.709,-10.037 -14.943,-33.725 -17.105,-64.999c-3.586,-51.863 6.001,-123.376 43.35,-194.365c16.838,-32.003 47.736,-52.846 83.048,-69.308c38.272,-17.842 81.795,-30.349 120.961,-43.925l-0,-0Z" style="fill:#7e4021;"/><path d="M2844.94,752.783c29.742,83.734 105.952,2386.28 32.878,2593.37c-44.255,125.417 -394.211,294.769 -728.902,339.591c-357.673,47.9 -702.085,-35.959 -771.954,-130.191c-123.264,-166.245 -554.399,-1928.05 -726.636,-2482.99c148.517,26.179 356.598,39.946 492.572,30.681c424.055,-28.897 1064.92,-120.383 1449.31,-246.307c79.258,-25.964 174.67,-62.929 252.735,-104.153Z" style="fill:#c48464;"/><path d="M2860.65,747.204c-1.62,-4.56 -5.142,-8.191 -9.65,-9.949c-4.509,-1.758 -9.559,-1.47 -13.838,0.79c-77.26,40.799 -171.699,77.356 -250.14,103.053c-383.311,125.569 -1022.39,216.701 -1445.25,245.517c-134.863,9.19 -341.242,-4.501 -488.546,-30.467c-5.723,-1.009 -11.558,1.036 -15.399,5.397c-3.842,4.361 -5.134,10.407 -3.412,15.957c120.552,388.414 367.944,1368.12 547.808,1978.01c77.925,264.231 143.979,459.557 181.358,509.968c22.276,30.043 70.329,59.884 137.625,84.46c149.585,54.627 396.459,86.27 649.93,52.324c237.06,-31.747 481.624,-125.42 622.426,-222.185c63.337,-43.528 105.879,-88.419 119.979,-128.379c29.403,-83.326 35.559,-503.882 29.51,-983.97c-7.22,-573.08 -30.813,-1231.4 -49.101,-1497.55c-4.742,-69.01 -9.594,-112.549 -13.298,-122.978Zm-27.919,30.603c2.425,19.57 5.021,51.849 7.962,94.66c18.265,265.814 41.814,923.316 49.025,1495.68c5.978,474.449 1.445,890.111 -27.612,972.458c-12.453,35.292 -51.487,73.556 -107.426,111.999c-137.502,94.498 -376.465,185.615 -607.971,216.619c-247.272,33.115 -488.144,2.694 -634.071,-50.597c-59.353,-21.675 -102.637,-46.505 -122.283,-73.002c-36.58,-49.335 -99.901,-240.957 -176.162,-499.544c-176.042,-596.924 -416.768,-1548.04 -540.003,-1952.62c147.173,23.445 340.747,35.21 469.846,26.413c425.246,-28.978 1067.89,-120.819 1453.36,-247.096c73.424,-24.053 160.56,-57.473 235.332,-94.968l0,-0Z" style="fill:#7e4021;"/><path d="M586.254,2917.77c-71.031,-2.234 -187.544,36.893 -253.017,34.821c-67.312,-2.13 -128.468,-35.045 -196.571,-29.287c-22.364,1.891 -51.423,5.363 -61.568,28.031c-22.202,55.647 50.952,67.977 47.966,69.443c-33.045,-4.628 -101.095,-10.677 -105.802,64.699c-3.64,58.302 77.17,56.715 77.039,58.672c-32.405,12.791 -96.621,51.167 -61.876,123.153c22.944,47.534 66.556,24.818 93.987,11.072c-43.817,32.729 -77.478,96.342 -10.608,134.521c91.593,52.293 221.914,-126.786 312.502,-89.874c88.062,35.883 58.927,251.189 187.784,215.716c92.357,-25.425 -6.857,-183.27 1.115,-260.091c11.082,-106.791 123.1,-132.738 93.578,-249.675c-10.343,-40.967 -39.915,-108.539 -124.529,-111.201Z" style="fill:#fff;"/><path d="M65.457,3004.3c-15.286,3.203 -29.803,9.772 -41.317,21.325c-12.472,12.514 -21.778,31.053 -23.512,58.816c-2.181,34.933 17.901,54.045 41.193,64.379c1.969,0.874 3.961,1.677 5.961,2.414c-31.869,24.112 -58.81,64.385 -30.366,123.316c14.406,29.847 35.177,38.723 56.614,37.992c-2.392,4.295 -4.492,8.672 -6.248,13.097c-6.851,17.261 -8.607,35.262 -3.405,52.393c5.423,17.865 18.466,35.239 43.164,49.34c27.059,15.449 56.944,14.629 88.275,4.161c27.582,-9.215 56.475,-26.071 85.268,-43.559c26.896,-16.336 53.716,-33.22 79.36,-43.697c21.938,-8.963 42.745,-13.49 61.573,-5.818c18.352,7.478 29.868,24.95 39.593,45.52c11.466,24.253 19.904,52.942 29.649,79.418c15.812,42.959 36.227,79.602 71.171,91.594c15.827,5.432 34.817,6.223 58.084,-0.182c45.978,-12.657 56.609,-50.312 50.088,-98.706c-4.793,-35.568 -18.98,-77.356 -28.592,-115.196c-5.755,-22.658 -9.974,-43.706 -8.228,-60.537c5.183,-49.94 34.762,-80.566 58.798,-112.788c28.476,-38.175 50.718,-77.903 34.362,-142.687c-11.584,-45.886 -45.392,-120.799 -140.164,-123.78l0,-0c-36.556,-1.15 -84.842,8.151 -132.387,17.665c-44.793,8.964 -88.882,18.16 -120.627,17.156c-32.503,-1.029 -63.493,-9.636 -94.605,-17.145c-33.944,-8.192 -68.019,-15.125 -103.897,-12.092c-15.292,1.293 -33.26,3.562 -47.742,10.489c-12.024,5.751 -21.874,14.472 -27.634,27.342c-0.094,0.209 -0.183,0.419 -0.267,0.632c-6.492,16.269 -6.527,29.839 -3.314,41.08c1.936,6.775 5.138,12.78 9.152,18.058Zm520.273,-69.868c74.459,2.342 99.791,62.572 108.893,98.622c13.167,52.154 -5.838,83.866 -28.762,114.597c-27.364,36.684 -59.334,72.424 -65.234,129.278c-2.08,20.043 2.222,45.202 9.076,72.185c9.302,36.621 23.226,77.017 27.864,111.44c3.965,29.425 2.055,54.421 -25.9,62.117c-15.392,4.237 -27.947,4.385 -38.417,0.792c-11.939,-4.098 -20.827,-12.955 -28.35,-24.138c-8.983,-13.353 -15.908,-29.915 -22.359,-47.442c-12.229,-33.224 -22.733,-69.684 -38.824,-97.57c-12.416,-21.516 -28.173,-38.187 -49.122,-46.723c-21.575,-8.792 -45.042,-7.835 -69.654,-0.312c-32.172,9.834 -66.698,31.274 -101.161,52.206c-26.56,16.132 -53.083,31.933 -78.527,40.434c-21.699,7.25 -42.445,9.206 -61.185,-1.494c-15.429,-8.808 -24.407,-18.915 -27.796,-30.075c-3.875,-12.766 -0.363,-26.226 6.403,-38.749c7.86,-14.548 20.276,-27.835 33.711,-37.87c6.917,-5.166 8.743,-14.76 4.208,-22.107c-4.535,-7.347 -13.93,-10.014 -21.649,-6.146c-9.961,4.991 -22.215,11.426 -34.736,14.421c-6.961,1.665 -14.017,2.361 -20.484,-0.165c-6.38,-2.493 -11.72,-8.204 -16.29,-17.673c-28.62,-59.296 26.293,-89.869 52.986,-100.406c5.99,-2.364 10.082,-7.968 10.51,-14.393c0.141,-2.11 -1.165,-16.15 -16.694,-18.18c-5.788,-0.756 -23.275,-1.799 -38.898,-8.73c-11.696,-5.189 -22.538,-14.29 -21.442,-31.833c1.09,-17.466 6.007,-29.49 13.854,-37.363c9.05,-9.082 21.457,-12.409 33.618,-13.619c14.471,-1.439 28.874,0.279 39.384,1.75c3.3,0.463 6.664,-0.075 9.656,-1.544c6.589,-3.235 8.536,-8.284 9.199,-12.405c0.587,-3.651 0.193,-7.754 -2.6,-11.951c-0.811,-1.219 -3.309,-4.75 -9.289,-7.001c-3.4,-1.28 -13.708,-4.083 -23.647,-10.002c-6.54,-3.895 -13.382,-9.132 -15.717,-17.302c-1.512,-5.289 -0.898,-11.596 2.083,-19.21c3.166,-6.773 9.49,-10.218 16.335,-12.597c10.017,-3.483 21.41,-4.524 31.297,-5.36c32.225,-2.724 62.78,3.922 93.268,11.28c33.32,8.041 66.563,16.957 101.372,18.058c33.727,1.068 80.631,-8.263 128.222,-17.787c44.837,-8.972 90.323,-18.118 124.798,-17.033l0,-0Z" style="fill:#7e4021;"/><path d="M400.856,3074.23l0.831,-0.121c14.311,-1.901 77.944,-7.071 87.391,-8.692c9.066,-1.556 15.164,-10.179 13.608,-19.245c-1.556,-9.066 -10.179,-15.164 -19.245,-13.608c-9.312,1.597 -72.038,6.628 -86.144,8.502c-4.863,0.647 -7.693,1.926 -8.397,2.3c-8.126,4.311 -11.224,14.408 -6.913,22.534c3.681,6.938 11.581,10.211 18.869,8.33Z" style="fill:#7e4021;"/><path d="M433.032,3147.7c8.291,1.935 18.325,1.294 28.634,-0.968c11.646,-2.554 23.792,-7.155 32.784,-9.376c8.93,-2.207 14.389,-11.248 12.183,-20.178c-2.207,-8.93 -11.248,-14.389 -20.178,-12.182c-7.478,1.847 -17.141,5.347 -26.878,7.941c-6.778,1.806 -13.547,3.568 -18.968,2.302c-8.958,-2.091 -17.928,3.484 -20.019,12.442c-2.091,8.958 3.484,17.928 12.442,20.019Z" style="fill:#7e4021;"/><path d="M120.984,3300.6c123.836,-74.415 176.533,-60.207 256.071,-90.136c8.61,-3.239 12.969,-12.859 9.73,-21.468c-3.24,-8.61 -12.859,-12.969 -21.469,-9.73c-81.295,30.59 -134.93,16.704 -261.501,92.762c-7.885,4.738 -10.439,14.986 -5.701,22.87c4.738,7.885 14.985,10.44 22.87,5.702Z" style="fill:#7e4021;"/><path d="M66.349,3178.62c42.906,-26.969 88.552,-31.301 133.281,-33.544c49.463,-2.481 97.973,-2.609 141.878,-21.182c8.472,-3.584 12.441,-13.371 8.857,-21.843c-3.584,-8.472 -13.371,-12.44 -21.843,-8.857c-40.364,17.075 -85.089,16.309 -130.561,18.59c-50.206,2.518 -101.192,8.345 -149.351,38.615c-7.787,4.895 -10.136,15.192 -5.241,22.98c4.895,7.788 15.192,10.136 22.98,5.241Z" style="fill:#7e4021;"/><path d="M112.565,3034.77c21.554,5.765 41.805,10.862 59.117,14.7c42.554,9.434 84.679,10.526 127.663,3.373c9.074,-1.511 15.214,-10.103 13.704,-19.177c-1.51,-9.074 -10.103,-15.215 -19.176,-13.705c-38.713,6.443 -76.651,5.462 -114.976,-3.034c-16.904,-3.747 -36.675,-8.73 -57.72,-14.358c-8.886,-2.377 -18.03,2.908 -20.407,11.794c-2.376,8.887 2.909,18.031 11.795,20.407Z" style="fill:#7e4021;"/><path d="M647.206,2895.85c-23.961,27.068 -31.613,133.923 51.893,211.213c18.956,17.545 47.274,21.233 64.788,4.563c20.603,-19.61 25.226,-66.135 15.828,-120.397c-10.354,-59.776 -79.222,-155.576 -132.509,-95.379Z" style="fill:#fff;"/><path d="M634.726,2884.8c-8.766,9.903 -16.498,28.29 -19.22,52.106c-5.64,49.358 8.957,123.784 72.272,182.386c25.599,23.694 63.948,26.915 87.6,4.404c10.309,-9.813 17.918,-24.765 21.987,-43.815c5.242,-24.54 4.83,-56.525 -1.228,-91.5c-6.892,-39.788 -37.505,-93.742 -73.38,-116.292c-14.122,-8.876 -29.09,-13.201 -43.909,-11.766c-14.916,1.445 -30.068,8.601 -44.122,24.477l0,-0Zm24.959,22.094c7.264,-8.205 14.668,-12.646 22.377,-13.393c12.613,-1.221 24.796,6.474 36.023,17.133c22.668,21.52 40.546,56.522 45.208,83.436c5.22,30.141 5.991,57.699 1.474,78.848c-2.438,11.411 -6.195,20.755 -12.371,26.633c-11.39,10.841 -29.648,6.689 -41.976,-4.722c-46.054,-42.625 -62.098,-94.962 -62.684,-135.442c-0.348,-24.026 4.106,-43.633 11.949,-52.493Z" style="fill:#7e4021;"/><path d="M738.892,3050.45c11.819,2.315 36.682,-5.534 41.922,-7.008c153.09,-43.09 294.955,-168.126 378.433,-237.764c88.425,-73.764 120.844,-151.209 118.588,-184.628c-4.721,-69.921 -59.619,-101.195 -124.313,-42.387c-9.602,8.728 -128.179,150.082 -221.867,214.482c-46.399,31.895 -99.635,63.079 -148.073,91.808c-23.921,14.188 -60.289,25.401 -80.414,45.07c-31.184,30.477 -13.202,110.845 35.724,120.427Z" style="fill:#7e4021;"/><path d="M735.689,3066.81c13.953,2.733 43.455,-5.58 49.64,-7.321c155.469,-43.759 299.82,-170.289 384.594,-241.009c55.382,-46.2 89.574,-93.9 107.672,-132.11c13.171,-27.804 17.897,-51.208 16.869,-66.438c-2.878,-42.624 -22.648,-72.534 -49.959,-83.76c-26.858,-11.039 -63.412,-5.091 -102.194,30.162c-9.532,8.664 -127.091,149.149 -220.097,213.081c-46.103,31.69 -99.006,62.662 -147.134,91.207c-24.94,14.792 -62.579,26.979 -83.561,47.486c-19.374,18.935 -24.972,53.087 -16.631,84.275c8.379,31.325 30.27,58.448 60.801,64.427Zm6.407,-32.712c-18.405,-3.604 -29.956,-21.444 -35.006,-40.328c-5.089,-19.024 -4.09,-40.274 7.728,-51.823c19.268,-18.832 54.364,-29.071 77.266,-42.655c48.748,-28.913 102.316,-60.31 149.012,-92.408c94.37,-64.869 213.965,-207.093 223.637,-215.885c25.937,-23.577 49.137,-31.38 67.099,-23.997c17.504,7.195 27.53,27.857 29.374,55.175c0.777,11.505 -3.787,28.921 -13.735,49.924c-16.578,34.999 -48.173,78.465 -98.901,120.783c-82.181,68.556 -221.56,192.098 -372.272,234.518c-2.949,0.83 -12.519,3.841 -22.103,5.625c-4.501,0.838 -8.976,1.683 -12.099,1.071Z" style="fill:#7e4021;"/><path d="M2941.72,5091.69c24.283,-15.165 53.906,-43.238 65.639,-55.392c31.418,-32.546 57.884,-69.509 80.192,-108.816c52.807,-93.045 97.799,-316.436 232.798,-309.926c33.481,1.614 64.884,18.319 87.157,43.324c216.578,243.136 -291.488,693.389 -512.431,737.379c-48.316,9.619 -112.734,14.552 -146.841,-22.697c-77.827,-84.992 94.285,-221.921 193.486,-283.872Z" style="fill:#dfbaa3;"/><path d="M2932.89,5077.55c-61.201,38.219 -149.157,104.457 -192.631,169.998c-33.019,49.778 -40.786,99.442 -4.319,139.266c16.085,17.567 37.723,27.498 61.742,31.979c32.599,6.083 69.719,1.965 100.646,-4.193c135.32,-26.942 376.72,-202.454 499.982,-392.74c85.07,-131.328 113.187,-269.297 21.64,-372.07c-25.226,-28.319 -60.881,-47.057 -98.8,-48.886c-60.001,-2.893 -104.837,33.752 -139.791,86.985c-47.386,72.166 -76.487,175.3 -108.305,231.363c-21.618,38.091 -47.242,73.927 -77.688,105.466c-11.177,11.578 -39.343,38.385 -62.476,52.831l-0,0.001Zm17.656,28.272c25.434,-15.883 56.514,-45.223 68.802,-57.953c32.39,-33.553 59.698,-71.642 82.696,-112.164c31.551,-55.592 60.191,-157.961 107.179,-229.521c27.965,-42.59 62.316,-74.3 110.321,-71.985c29.044,1.4 56.194,16.072 75.515,37.762c81.721,91.743 51.214,214.545 -24.726,331.776c-118.244,182.541 -348.702,352.326 -478.514,378.172c-22.734,4.526 -49.248,8.055 -74.098,5.965c-22.082,-1.857 -42.937,-7.997 -57.198,-23.571c-25.81,-28.187 -15.856,-63.098 7.514,-98.33c41.088,-61.942 124.668,-124.029 182.509,-160.15l0,-0.001Z" style="fill:#7e4021;"/><path d="M2155.93,3616.26c57.295,101.127 407.558,777.23 617.124,1197.99c9.486,19.047 -40.721,2.931 -149.087,112.178c-20.729,20.898 -577.927,-960.41 -835.955,-1443.76" style="fill:#c48464;"/><path d="M2753.84,4813.07c-2.865,1.308 -6.263,2.85 -9.629,4.36c-23.372,10.488 -63.828,31.054 -120.962,86.28c-2.275,-2.776 -4.832,-6.02 -7.282,-9.389c-107.549,-147.88 -581.356,-985.107 -813.254,-1419.51c-4.332,-8.115 -14.437,-11.186 -22.552,-6.854c-8.114,4.332 -11.186,14.437 -6.854,22.552c232.552,435.624 707.85,1275.12 815.702,1423.41c9.921,13.642 17.545,22.054 21.87,25.195c11.533,8.376 20.335,3.657 24.918,-0.963c66.766,-67.309 110.518,-85.298 131.031,-94.252c7.117,-3.107 12.079,-5.692 15.143,-8.129c5.218,-4.153 7.656,-8.82 8.544,-13.78c0.76,-4.25 0.416,-9.242 -2.545,-15.185c-209.704,-421.034 -560.208,-1097.58 -617.541,-1198.77c-4.534,-8.003 -14.713,-10.82 -22.716,-6.285c-8.004,4.534 -10.82,14.713 -6.286,22.716c56.868,100.374 402.531,767.561 612.413,1188.6Z" style="fill:#7e4021;"/><path d="M3441.25,4709.95c-1.473,-0.228 -5.813,-51.548 -49.878,-120.387c-48.718,-76.109 -132.291,-112.291 -221.311,-86.928c-148.859,42.413 -214.106,205.872 -244.89,343.589c-6.139,27.462 -7.437,79.955 -28.487,101.747c-1.197,1.238 0.71,-29.127 1.18,-33.321c2.929,-26.157 6.258,-60.753 -16.075,-79.888c-45.205,-38.73 -125.224,-12.771 -166.754,17.747c-40.375,29.67 -167.927,121.966 -115.726,178.298c19.332,20.86 50.531,30.113 78.196,30.235c3.657,0.016 25.051,-3.516 24.788,0.654c-1.838,29.202 -29.15,48.128 -29.771,105.118c-1.35,123.815 63.059,192.28 62.641,191.045c-16.894,-49.823 -2.367,-62.754 4.55,-77.066c20.15,-41.694 51.394,-80.129 88.302,-107.355c76.822,-56.673 165.276,-113.906 224.178,-190.427c55.95,-72.685 103.451,-283.464 198.672,-347.426c48.53,-32.599 144.917,-27.591 190.385,74.365Z" style="fill:#86a8cb;"/><path d="M2908.73,4843.45l0.181,-0.863c32.017,-143.229 101.772,-311.871 256.589,-355.981c96.467,-27.486 187.121,11.495 239.915,93.971c39.055,61.012 50.256,117.274 51.387,123.385c2.082,5.383 1.226,11.487 -2.303,16.105c-3.704,4.849 -9.763,7.286 -15.793,6.352c-1.528,-0.236 -8.822,-1.538 -12.668,-9.687l-0.004,0.005l-0.105,-0.233l-0.075,-0.156l-0.045,-0.108c-39.913,-88.822 -123.222,-95.317 -165.645,-66.821c-45.47,30.543 -78.718,96.693 -108.106,163.332c-31.397,71.194 -58.108,143.345 -86.652,180.425c-59.828,77.724 -149.46,136.109 -227.491,193.673c-34.782,25.659 -64.201,61.902 -83.19,101.195c-2.958,6.121 -7.866,11.799 -9.906,21.421c-1.983,9.356 -0.891,22.322 6.134,43.041c2.861,8.439 -0.897,13.701 -3.319,16.429c-3.106,3.501 -7.876,6.715 -15.456,5.336c-0.425,-0.077 -5.595,-0.834 -11.118,-7.005c-10.73,-11.99 -66.486,-82.448 -65.198,-200.635c0.409,-37.534 11.199,-60.07 20.335,-78.982c1.695,-3.509 3.362,-6.834 4.816,-10.12c-1.698,0.111 -3.015,0.181 -3.575,0.178c-32.041,-0.14 -67.958,-11.413 -90.347,-35.573c-26.389,-28.477 -19.556,-64.437 5.16,-99.485c30.397,-43.101 87.819,-85.125 112.921,-103.571c27.13,-19.936 69.373,-38.01 109.435,-40.232c28.944,-1.604 56.698,4.98 78.032,23.259c7.123,6.103 12.363,13.344 16.091,21.345Zm483.828,-218.955c-52.053,-34.001 -114.041,-27.559 -150.981,-2.746c-40.145,26.967 -72.81,78.274 -100.65,135.54c-39.067,80.364 -68.832,172.551 -101.935,215.555c-57.976,75.317 -145.251,131.399 -220.865,187.18c-39.033,28.795 -72.104,69.421 -93.414,113.516c-2.988,6.182 -7.031,12.221 -10.007,20.348c-13.583,-30.262 -26.1,-73.024 -25.513,-126.894c0.337,-30.854 9.509,-49.3 17.019,-64.846c6.563,-13.586 11.851,-25.59 12.721,-39.406c0.471,-7.482 -2.847,-16.211 -15.093,-18.973c-6.32,-1.426 -22.869,0.62 -26.255,0.605c-23.291,-0.102 -49.77,-7.335 -66.045,-24.897c-15.407,-16.626 -6.479,-37.154 7.952,-57.617c28.274,-40.092 82.07,-78.763 105.419,-95.921c22.706,-16.686 58.011,-31.951 91.542,-33.81c20.12,-1.116 39.668,2.582 54.498,15.289c7.858,6.732 10.669,16.428 11.791,26.498c1.454,13.068 -0.098,26.934 -1.436,38.878c-0.475,4.249 -2.026,32.37 -1.397,36.933c1.137,8.249 6.277,11.469 8.134,12.579c3.339,1.994 6.83,2.66 10.406,2.267c3.111,-0.342 6.801,-1.476 10.228,-5.024c10.194,-10.553 17.105,-26.798 21.553,-44.928c5.539,-22.579 7.509,-48.198 11.212,-64.762c29.553,-132.21 90.286,-290.479 233.192,-331.196c81.573,-23.241 158.064,10.142 202.707,79.885c5.753,8.986 10.797,17.661 15.217,25.947Z" style="fill:#7e4021;"/><path d="M2880.98,4996.2c27.2,-23.066 38.53,-56.572 41.349,-91.934c0.73,-9.169 -6.121,-17.207 -15.29,-17.938c-9.17,-0.731 -17.208,6.12 -17.938,15.29c-2.105,26.4 -9.373,51.938 -29.68,69.159c-7.015,5.95 -7.881,16.475 -1.932,23.491c5.95,7.016 16.476,7.881 23.491,1.932Z" style="fill:#7e4021;"/><path d="M2723.24,5028.11c-3.185,2.62 -6.325,5.306 -9.45,7.997c-8.74,7.527 -21.224,21.887 -28.751,30.643c-5.996,6.976 -5.201,17.507 1.774,23.504c6.975,5.996 17.507,5.202 23.503,-1.774c6.635,-7.717 17.523,-20.482 25.226,-27.115c2.934,-2.527 5.881,-5.051 8.872,-7.511c7.104,-5.843 8.128,-16.355 2.285,-23.459c-5.843,-7.104 -16.354,-8.128 -23.459,-2.285Z" style="fill:#7e4021;"/><path d="M3397.82,4570.17c-31.447,-22.3 -93.784,-23.531 -129.619,-16.912c-9.045,1.671 -15.033,10.371 -13.362,19.417c1.671,9.045 10.371,15.033 19.417,13.362c17.922,-3.311 43.843,-4.635 67.375,-1.154c14.146,2.093 27.452,5.773 36.907,12.478c7.503,5.321 17.915,3.549 23.236,-3.954c5.321,-7.504 3.549,-17.915 -3.954,-23.237Z" style="fill:#7e4021;"/><path d="M3200.89,4582.65c-1.007,0.801 -8.055,6.409 -9.328,7.473c-6.187,5.178 -11.959,10.793 -17.827,16.322c-6.695,6.307 -7.01,16.864 -0.702,23.559c6.307,6.696 16.864,7.01 23.559,0.703c5.392,-5.08 10.675,-10.262 16.361,-15.019c1.4,-1.171 8.339,-6.625 9.641,-7.732c3.681,-3.128 4.625,-6.057 4.803,-6.486c2.084,-5.006 1.323,-8.995 0.419,-11.698c-1.563,-4.67 -4.639,-8.217 -9.676,-10.209c-6.063,-2.398 -12.697,-0.988 -17.25,3.087Z" style="fill:#7e4021;"/><path d="M3068.84,4803.07l-3.176,7.42c-15.062,35.244 -30.906,69.878 -52.042,101.983c-5.058,7.683 -2.927,18.027 4.756,23.085c7.683,5.058 18.027,2.927 23.086,-4.756c22.232,-33.769 39.009,-70.141 54.851,-107.214c0.392,-0.915 5.119,-12.249 5.493,-14.928c1.331,-9.546 -4.174,-14.404 -7.079,-16.412c-7.567,-5.231 -17.957,-3.334 -23.187,4.233c-1.412,2.042 -2.304,4.29 -2.702,6.589Z" style="fill:#7e4021;"/><path d="M2849.46,5078.99c-90.708,62.79 -141.598,112.707 -172.081,184.195c-3.608,8.461 0.332,18.26 8.793,21.868c8.462,3.608 18.261,-0.332 21.869,-8.793c28.252,-66.256 76.322,-111.668 160.391,-169.863c7.563,-5.235 9.453,-15.626 4.218,-23.189c-5.236,-7.564 -15.627,-9.454 -23.19,-4.218Z" style="fill:#7e4021;"/><path d="M2975.96,4960l-3.24,4.781c-2.855,3.834 -5.81,7.525 -8.982,11.103c-9.473,10.683 -18.563,20.97 -29.434,30.269c-6.99,5.979 -7.811,16.508 -1.832,23.499c5.979,6.99 16.509,7.811 23.499,1.832c12.052,-10.309 22.206,-21.641 32.708,-33.486c3.804,-4.29 7.353,-8.712 10.776,-13.31c0.343,-0.46 5.151,-7.493 5.902,-8.905c5.556,-10.454 -1.126,-17.909 -2.3,-19.204c-2.741,-3.023 -6.301,-5.029 -10.973,-5.417c-6.86,-0.569 -13.1,3.109 -16.124,8.838Z" style="fill:#7e4021;"/><path d="M1999.3,1269.72c426.999,-61.891 823.916,234.531 885.806,661.53c61.891,427 -234.531,823.916 -661.531,885.807c-426.999,61.891 -823.916,-234.531 -885.806,-661.531c-61.891,-426.999 234.531,-823.916 661.531,-885.806Z" style="fill:#ffdab8;"/><path d="M1996.91,1253.23c-436.103,63.211 -738.845,468.589 -675.634,904.692c63.21,436.103 468.588,738.844 904.691,675.634c436.103,-63.21 738.845,-468.588 675.635,-904.691c-63.211,-436.103 -468.589,-738.845 -904.692,-675.635l-0,0Zm4.782,32.989c417.895,-60.571 806.35,229.531 866.921,647.427c60.571,417.896 -229.531,806.351 -647.427,866.922c-417.896,60.571 -806.351,-229.532 -866.922,-647.428c-60.571,-417.895 229.531,-806.35 647.427,-866.921l0.001,-0Z" style="fill:#7e4021;"/><path d="M1396.38,1821.93c0.496,-3.268 -64.795,11.021 -121.499,-4.535c-59.603,-16.351 -104.539,-62.958 -101.645,-58.592c2.105,3.176 0.372,75.734 30.68,126.709c35.116,59.061 108.835,74.161 117.423,56.35c23.098,-47.909 39.052,-72.677 75.041,-119.932Z" style="fill:#7e4021;"/><path d="M1157.24,1763.84c1.611,15.976 3.758,82.108 32.346,130.191c27.891,46.911 77.519,68.969 107.964,71.296c20.55,1.571 34.192,-6.677 38.796,-16.226c22.551,-46.772 38.153,-70.937 73.289,-117.072c1.693,-2.223 2.8,-4.836 3.219,-7.599c0.724,-4.774 -0.5,-19.326 -17.906,-19.663c-10.359,-0.201 -66.377,10.077 -115.663,-3.444c-50.594,-13.88 -89.797,-51.193 -95.179,-55.451c-8.951,-7.082 -16.909,-2.995 -18.15,-2.405c-5.016,2.385 -8.66,6.444 -9.419,13.214c-0.123,1.092 -0.518,3.694 0.703,7.159Zm36.309,31.592c19.844,13.756 47.529,29.974 76.918,38.037c29.9,8.203 65.665,8.596 91.059,7.393c-22.155,30.779 -35.993,54.202 -53.725,90.726c-3.067,0.162 -11.255,0.395 -17.611,-1.087c-23.093,-5.387 -53.562,-22.574 -71.953,-53.505c-15.3,-25.735 -21.691,-57.389 -24.688,-81.564Zm-5.937,-45.049c0.917,1.527 1.472,2.953 1.796,4.231c-0.527,-1.854 -1.207,-3.238 -1.796,-4.231Z" style="fill:#7e4021;"/><path d="M2675.26,1591.9c-1.603,-2.891 64.575,-12.249 112.304,-46.589c50.17,-36.096 76.048,-95.439 74.857,-90.339c-0.866,3.71 26.042,71.116 15.396,129.458c-12.334,67.596 -76.17,107.438 -90.426,93.735c-38.346,-36.856 -61.93,-54.513 -112.131,-86.265Z" style="fill:#7e4021;"/><path d="M2879.17,1454.12c-0.063,-3.673 -1.34,-5.975 -1.835,-6.956c-3.072,-6.081 -7.901,-8.615 -13.434,-9.103c-1.369,-0.12 -10.252,-1.178 -16.174,8.579c-3.561,5.866 -27.305,54.502 -69.891,85.142c-41.486,29.848 -97.574,39.734 -107.214,43.532c-16.198,6.381 -12.273,20.448 -9.931,24.67c1.355,2.444 3.303,4.508 5.665,6.002c49.01,30.999 72.054,48.212 109.49,84.195c7.643,7.347 23.304,10.323 42.019,1.69c27.726,-12.79 66.557,-50.759 76.353,-104.449c10.041,-55.031 -10.991,-117.766 -15.048,-133.302Zm-23.025,42.264c5.615,23.704 10.656,55.601 5.281,85.054c-3.238,17.747 -10.559,33.296 -19.521,46.061c-12.196,17.371 -27.341,29.678 -39.523,34.773c-1.805,0.755 -4.282,1.341 -5.776,1.649c-29.403,-28.119 -50.549,-45.266 -82.078,-66.421c24.221,-7.721 57.607,-20.552 82.775,-38.66c24.738,-17.798 45.036,-42.648 58.842,-62.456Zm-10.133,-44.294c-0.206,1.135 -0.36,2.67 -0.208,4.592c-0.141,-1.312 -0.116,-2.841 0.208,-4.592Z" style="fill:#7e4021;"/><path d="M2514.19,1567.45c0,0 -204.449,32.101 -258.898,231.715c-54.448,199.613 154.136,538.416 461.943,338.266c307.821,-200.15 50.283,-648.658 -203.045,-569.981Z" style="fill:#fdfdfe;"/><path d="M2510.3,1551.21c-17.954,3.217 -216.408,43.114 -271.087,243.57c-20.038,73.46 -6.622,164.909 33.716,243.655c40.498,79.059 107.919,145.052 194.204,168.03c73.827,19.66 161.879,8.214 259.187,-55.06c194.361,-126.376 175.266,-346.736 70.727,-485.004c-70.35,-93.048 -179.101,-148.048 -286.747,-115.191Zm6.476,32.706c0.798,-0.125 1.586,-0.308 2.358,-0.548c94.674,-29.404 189.449,21.297 251.324,103.136c94.139,124.513 112.717,323.151 -62.308,436.955c-87.377,56.817 -166.148,68.449 -232.439,50.795c-77.187,-20.554 -136.887,-80.293 -173.115,-151.016c-36.388,-71.036 -49.301,-153.418 -31.224,-219.687c51.61,-189.208 245.404,-219.635 245.404,-219.635Z" style="fill:#7e4021;"/><path d="M2480.12,1607.51c-0,0 -171.475,300.318 116.058,572.427c-0,0 311.237,-41.656 242.406,-378.969c-48.99,-240.135 -345.263,-275.304 -358.464,-193.458Z" style="fill:#7e4021;"/><path d="M2464.26,1601.79c-16.097,30.144 -161.517,323.401 120.466,590.258c3.655,3.459 8.678,5.082 13.667,4.414c-0,-0 161.123,-21.779 232.912,-157.064c30.51,-57.496 45.265,-135.65 23.613,-241.756c-36.291,-177.891 -201.023,-249.237 -301.262,-246.48c-28.304,0.779 -51.779,7.552 -67.154,18.533c-11.781,8.414 -19.376,19.281 -22.242,32.095Zm30.337,13.989c0.991,-1.736 1.662,-3.636 1.981,-5.61c1.178,-7.306 6.791,-12.502 14.485,-16.498c11.073,-5.751 26.127,-8.71 43.51,-9.188c89.199,-2.453 235.39,61.522 267.684,219.822c0,0 0,0 0.001,0.001c19.646,96.281 7.288,167.295 -20.398,219.467c-55.134,103.9 -169.56,132.426 -200.202,138.335c-269.05,-260.995 -107.061,-546.329 -107.061,-546.329Z" style="fill:#7e4021;"/><path d="M1574.03,1738.27c0,-0 -204.449,32.101 -258.898,231.714c-54.449,199.613 154.136,538.417 461.943,338.267c307.821,-200.151 50.283,-648.659 -203.045,-569.981Z" style="fill:#fdfdfe;"/><path d="M1570.13,1722.03c-17.955,3.217 -216.408,43.113 -271.087,243.569c-20.038,73.461 -6.622,164.91 33.715,243.656c40.498,79.059 107.92,145.052 194.205,168.03c73.827,19.66 161.878,8.214 259.187,-55.061c194.36,-126.376 175.265,-346.735 70.727,-485.003c-70.35,-93.048 -179.101,-148.049 -286.747,-115.191Zm6.475,32.706c0.799,-0.126 1.587,-0.309 2.359,-0.549c94.673,-29.403 189.448,21.298 251.323,103.137c94.14,124.513 112.718,323.151 -62.308,436.955c-87.376,56.816 -166.147,68.448 -232.439,50.795c-77.186,-20.555 -136.886,-80.294 -173.114,-151.017c-36.388,-71.036 -49.301,-153.417 -31.225,-219.686c51.611,-189.208 245.404,-219.635 245.404,-219.635Z" style="fill:#7e4021;"/><path d="M1539.96,1778.34c0,-0 -171.475,300.317 116.059,572.427c-0,0 311.237,-41.657 242.405,-378.969c-48.989,-240.136 -345.262,-275.304 -358.464,-193.458Z" style="fill:#7e4021;"/><path d="M1524.09,1772.61c-16.096,30.143 -161.516,323.401 120.467,590.257c3.655,3.46 8.678,5.082 13.667,4.414c-0,0 161.122,-21.779 232.912,-157.064c30.51,-57.496 45.264,-135.649 23.613,-241.756c-36.292,-177.89 -201.024,-249.236 -301.262,-246.479c-28.304,0.778 -51.78,7.551 -67.155,18.532c-11.78,8.414 -19.375,19.281 -22.242,32.096Zm30.338,13.989c0.991,-1.736 1.662,-3.637 1.98,-5.61c1.179,-7.307 6.792,-12.503 14.486,-16.499c11.072,-5.75 26.127,-8.71 43.51,-9.188c89.199,-2.453 235.39,61.523 267.684,219.822c0,0.001 0,0.001 0,0.001c19.647,96.281 7.288,167.296 -20.397,219.468c-55.135,103.9 -169.561,132.425 -200.202,138.334c-269.05,-260.995 -107.061,-546.328 -107.061,-546.328Z" style="fill:#7e4021;"/><path d="M689.187,1261.04c-53.183,-42.668 -126.081,-142.688 -134.523,-208.972c-7.269,-57.076 15.026,-109.677 79.717,-87.803c57.79,19.541 87.78,112.751 111.45,166.306c8.471,19.167 16.278,38.564 23.909,58.075c1.003,2.564 4.101,16.015 7.071,17.072c3.534,1.259 -0.383,-7.497 -0.819,-11.223c-0.935,-7.982 -1.627,-15.996 -2.283,-24.004c-1.882,-22.968 -3.295,-46.088 -3.498,-69.135c-0.46,-52.227 10.686,-110.349 39.912,-154.427c13.022,-19.639 35.995,-42.038 61.608,-40.757c37.863,1.893 48.102,49.849 48.522,79.64c1.035,73.289 -28.867,143.364 -52.494,211.541l-178.572,63.687Z" style="fill:#fff;"/><path d="M753.605,1106.33c-12.871,-30.781 -27.954,-68.758 -47.846,-99.548c-17.809,-27.565 -39.641,-49.375 -66.039,-58.301c-32.979,-11.152 -57.174,-5.673 -73.91,7.84c-23.411,18.903 -32.863,57.152 -27.679,97.856c8.865,69.609 84.776,175.059 140.627,219.867c4.512,3.62 10.579,4.642 16.028,2.698l178.572,-63.687c4.76,-1.698 8.493,-5.465 10.149,-10.241c24.25,-69.974 54.473,-142.012 53.411,-217.233c-0.29,-20.582 -5.063,-48.587 -17.922,-68.254c-10.331,-15.802 -25.416,-26.746 -46.432,-27.797c-31.301,-1.566 -60.418,24.193 -76.331,48.193c-31.014,46.773 -43.176,108.363 -42.688,163.784c0.014,1.606 0.034,3.213 0.06,4.823Zm10.404,110.334l-71.445,25.481l-0.001,-0c-49.733,-43.226 -113.714,-132.102 -121.366,-192.179c-3.541,-27.807 -0.44,-54.797 15.554,-67.711c9.535,-7.699 23.501,-8.551 42.291,-2.197c19.837,6.707 35.337,24.1 48.719,44.813c22.909,35.46 38.917,80.972 52.826,112.442c8.374,18.946 16.088,38.121 23.632,57.408c0.927,2.37 3.665,12.695 6.375,17.393c1.041,1.804 2.205,3.307 3.415,4.55Zm30.888,-11.016c0.067,-1.083 0.049,-2.243 -0.078,-3.473c-0.258,-2.496 -2.056,-9.047 -2.313,-9.972c-0.893,-7.672 -1.555,-15.373 -2.186,-23.07c-1.849,-22.564 -3.244,-45.277 -3.443,-67.92c-0.432,-49.033 9.698,-103.687 37.137,-145.069c5.545,-8.363 13.16,-17.357 22.163,-24.08c7.407,-5.531 15.749,-9.691 24.721,-9.243c12.176,0.609 19.273,9.427 23.997,19.685c6.356,13.803 8.511,30.655 8.693,43.546c0.969,68.649 -26.371,134.294 -48.932,198.283l-59.759,21.313Z" style="fill:#7e4121;"/><path d="M834.525,1235.28c15.223,-66.463 73.472,-175.665 129.451,-212.152c48.201,-31.418 105.261,-34.277 113.768,33.48c7.599,60.529 -63.222,128.145 -101.107,172.79c-13.558,15.978 -27.613,31.458 -41.848,46.83c-1.871,2.02 -12.626,10.671 -12.284,13.805c0.408,3.729 6.582,-3.613 9.745,-5.629c6.776,-4.32 13.687,-8.436 20.609,-12.517c19.852,-11.704 40.044,-23.052 60.699,-33.28c46.804,-23.176 103.974,-38.475 156.383,-31.382c23.351,3.161 53.524,14.074 63.534,37.685c14.797,34.903 -23.902,65.02 -50.531,78.382c-65.511,32.873 -141.613,36.502 -213.271,44.95l-135.148,-132.962Z" style="fill:#fff;"/><path d="M1001.85,1225.83c22.093,-25 49.7,-55.126 68.741,-86.449c17.048,-28.042 27.163,-57.198 23.691,-84.847c-4.336,-34.542 -19.813,-53.931 -39.268,-63.103c-27.217,-12.833 -65.762,-4.67 -100.137,17.736c-58.786,38.317 -120.609,152.597 -136.596,222.394c-1.292,5.639 0.433,11.545 4.557,15.602l135.148,132.962c3.603,3.545 8.62,5.263 13.64,4.671c73.548,-8.671 151.556,-12.866 218.795,-46.606c18.397,-9.231 41.522,-25.732 53.619,-45.878c9.719,-16.185 12.995,-34.532 4.781,-53.905c-12.233,-28.854 -48.106,-43.833 -76.643,-47.696c-55.613,-7.527 -116.347,8.369 -166.014,32.962c-1.44,0.713 -2.877,1.432 -4.314,2.157Zm-71.394,80.45c1.005,-0.412 2.041,-0.933 3.092,-1.584c2.134,-1.32 7.247,-5.794 7.968,-6.428c6.515,-4.147 13.158,-8.1 19.81,-12.022c19.503,-11.498 39.337,-22.653 59.629,-32.701c43.943,-21.759 97.548,-36.461 146.752,-29.802c9.943,1.346 21.358,4.28 31.333,9.453c8.206,4.256 15.586,9.951 19.092,18.222c4.759,11.223 -0.085,21.454 -7.258,30.176c-9.653,11.737 -23.88,21.021 -35.403,26.803c-61.364,30.792 -132.363,34.795 -199.787,42.379l-45.228,-44.496Zm-23.376,-22.999l-54.072,-53.197l-0,-0c17.229,-63.601 69.334,-159.921 120.071,-192.992c23.483,-15.306 49.126,-24.278 67.72,-15.511c11.085,5.226 17.939,17.424 20.41,37.105c2.608,20.777 -6.291,42.308 -19.101,63.379c-21.929,36.074 -55.915,70.317 -78.177,96.551c-13.402,15.794 -27.298,31.095 -41.369,46.29c-1.729,1.867 -9.828,8.832 -12.875,13.319c-1.17,1.722 -2.016,3.425 -2.607,5.056Z" style="fill:#7e4121;"/><path d="M972.026,1346.06c68.162,-1.766 188.412,27.527 237.662,72.685c42.408,38.885 59.354,93.445 -4.166,118.519c-56.743,22.399 -139.834,-29.403 -192.491,-55.008c-18.845,-9.164 -37.332,-18.933 -55.759,-28.902c-2.421,-1.31 -13.473,-9.579 -16.423,-8.469c-3.511,1.321 5.134,5.478 7.873,8.041c5.868,5.49 11.571,11.162 17.244,16.853c16.269,16.322 32.278,33.061 47.317,50.528c34.077,39.579 63.101,91.155 69.25,143.683c2.74,23.405 -0.335,55.342 -20.719,70.905c-30.133,23.005 -68.919,-6.999 -88.478,-29.474c-48.118,-55.29 -70.54,-128.104 -96.526,-195.417l95.216,-163.944Z" style="fill:#fff;"/><path d="M1022.75,1505.79c29.705,15.19 65.745,34.446 100.817,45.109c31.399,9.546 62.152,12.1 88.073,1.869c32.381,-12.783 47.317,-32.591 51.369,-53.715c5.668,-29.551 -11.816,-64.86 -42.059,-92.591c-51.721,-47.423 -177.777,-78.917 -249.357,-77.062c-5.783,0.15 -11.075,3.288 -13.981,8.291l-95.217,163.944c-2.538,4.37 -2.956,9.657 -1.136,14.372c26.672,69.088 50.116,143.609 99.502,200.356c13.513,15.528 35.242,33.828 57.761,40.541c18.093,5.393 36.678,4.008 53.404,-8.761c24.91,-19.018 30.507,-57.488 27.158,-86.09c-6.525,-55.74 -37.011,-110.62 -73.173,-152.62c-1.048,-1.217 -2.101,-2.431 -3.161,-3.643Zm-95.665,-49.168c0.649,0.871 1.411,1.745 2.303,2.602c1.809,1.738 7.412,5.58 8.206,6.12c5.636,5.28 11.115,10.733 16.566,16.203c15.984,16.034 31.716,32.475 46.491,49.635c31.993,37.159 59.553,85.431 65.326,134.747c1.167,9.966 1.161,21.751 -1.372,32.698c-2.084,9.007 -5.767,17.57 -12.907,23.021c-9.689,7.398 -20.803,5.248 -31.034,0.467c-13.767,-6.435 -26.294,-17.909 -34.758,-27.634c-45.071,-51.79 -66.588,-119.569 -90.685,-182.995l31.864,-54.864Zm16.47,-28.357l38.096,-65.593l0.001,-0c65.887,0.887 172.132,27.429 216.77,68.359c20.661,18.944 35.722,41.555 31.85,61.743c-2.309,12.036 -12.421,21.705 -30.871,28.989c-19.477,7.688 -42.544,4.417 -66.138,-2.756c-40.39,-12.28 -82.003,-36.692 -112.946,-51.739c-18.628,-9.058 -36.901,-18.717 -55.116,-28.572c-2.238,-1.211 -10.997,-7.325 -16.1,-9.162c-1.959,-0.706 -3.819,-1.102 -5.546,-1.269Z" style="fill:#7e4121;"/><path d="M903.124,1527.05c18.645,65.585 20.145,189.342 -11.362,248.268c-27.129,50.738 -75.769,80.708 -115.838,25.409c-35.794,-49.399 -6.259,-142.754 5.461,-200.122c4.195,-20.531 9.065,-40.865 14.143,-61.191c0.668,-2.671 5.932,-15.43 4.123,-18.013c-2.151,-3.072 -4.03,6.335 -5.832,9.624c-3.86,7.049 -7.938,13.982 -12.041,20.891c-11.768,19.814 -24.005,39.48 -37.188,58.386c-29.872,42.843 -72.621,83.769 -121.974,102.776c-21.99,8.469 -53.69,13.425 -73.829,-2.454c-29.77,-23.472 -10.342,-68.497 6.568,-93.026c41.602,-60.346 106.563,-100.155 165.309,-142.05l182.46,51.502Z" style="fill:#fff;"/><path d="M761.005,1615.87c-7.333,32.548 -17.032,72.242 -18.647,108.863c-1.447,32.786 3.72,63.21 20.07,85.775c20.427,28.191 43.324,37.737 64.793,36.414c30.033,-1.851 59.891,-27.559 79.239,-63.744c33.087,-61.88 32.275,-191.809 12.695,-260.684c-1.582,-5.565 -5.936,-9.911 -11.504,-11.482l-182.459,-51.501c-4.865,-1.374 -10.089,-0.465 -14.205,2.47c-60.295,42.999 -126.655,84.222 -169.354,146.159c-11.683,16.947 -24.011,42.541 -24.919,66.022c-0.729,18.865 5.23,36.523 21.754,49.552c24.61,19.404 63.265,15.268 90.138,4.919c52.371,-20.169 97.957,-63.334 129.656,-108.796c0.918,-1.318 1.833,-2.639 2.743,-3.967Zm55.42,-95.972l73.001,20.605l-0,0.001c15.509,64.041 16.195,173.55 -12.361,226.957c-13.218,24.72 -31.378,44.926 -51.895,46.191c-12.232,0.754 -24.111,-6.639 -35.749,-22.702c-12.287,-16.956 -14.849,-40.112 -13.762,-64.748c1.86,-42.175 15.169,-88.548 22.056,-122.259c4.146,-20.295 8.963,-40.395 13.983,-60.486c0.617,-2.469 4.363,-12.473 4.875,-17.872c0.197,-2.073 0.119,-3.973 -0.148,-5.687Zm-31.56,-8.909c-0.683,0.845 -1.34,1.8 -1.948,2.877c-1.235,2.184 -3.564,8.566 -3.89,9.469c-3.715,6.771 -7.636,13.433 -11.579,20.073c-11.561,19.466 -23.578,38.789 -36.529,57.364c-28.046,40.222 -67.957,78.911 -114.293,96.755c-9.363,3.606 -20.78,6.528 -32.014,6.794c-9.241,0.219 -18.451,-1.221 -25.505,-6.783c-9.573,-7.547 -10.252,-18.846 -8.162,-29.944c2.812,-14.934 10.815,-29.92 18.132,-40.534c38.968,-56.526 99.276,-94.207 154.727,-133.306l61.061,17.235Z" style="fill:#7e4121;"/><path d="M715.027,1480.79c-58.897,34.354 -178.401,66.554 -243.307,50.675c-55.888,-13.674 -97.002,-53.343 -53.392,-105.894c38.958,-46.944 136.724,-41.529 195.205,-44.429c20.929,-1.037 41.836,-1.372 62.786,-1.502c2.753,-0.018 16.42,1.912 18.472,-0.482c2.442,-2.847 -7.136,-2.33 -10.771,-3.258c-7.786,-1.989 -15.516,-4.215 -23.227,-6.473c-22.117,-6.477 -44.206,-13.445 -65.795,-21.517c-48.92,-18.292 -99.184,-49.532 -129.856,-92.616c-13.667,-19.197 -26.343,-48.672 -15.966,-72.124c15.341,-34.668 63.78,-27.036 91.742,-16.749c68.789,25.305 123.489,78.339 178.665,124.835l-4.556,189.534Z" style="fill:#fff;"/><path d="M593.685,1365.2c-33.349,0.983 -74.208,1.45 -110.082,8.983c-32.117,6.745 -60.304,19.308 -78.1,40.752c-22.232,26.79 -25.79,51.341 -19.175,71.808c9.255,28.631 41.574,51.167 81.431,60.918c68.161,16.676 193.814,-16.39 255.665,-52.468c4.998,-2.914 8.126,-8.212 8.265,-13.996l4.556,-189.533c0.121,-5.054 -2.057,-9.889 -5.922,-13.146c-56.631,-47.722 -113.048,-101.759 -183.651,-127.732c-19.318,-7.107 -47.173,-12.69 -70.143,-7.736c-18.454,3.981 -34.079,14.14 -42.594,33.383c-12.681,28.66 0.928,65.075 17.629,88.534c32.548,45.719 85.685,79.151 137.597,98.561c1.505,0.563 3.012,1.12 4.524,1.672Zm106.732,29.839l-1.823,75.831l-0,0.001c-58.181,30.933 -164.086,58.804 -222.913,44.411c-27.229,-6.661 -51.313,-19.232 -57.635,-38.791c-3.77,-11.662 0.44,-25.005 13.108,-40.269c13.372,-16.114 35.166,-24.349 59.299,-29.417c41.315,-8.676 89.541,-7.306 123.905,-9.009c20.689,-1.026 41.355,-1.354 62.064,-1.483c2.545,-0.016 13.166,1.128 18.523,0.283c2.057,-0.325 3.878,-0.873 5.472,-1.557Zm0.788,-32.784c-0.987,-0.451 -2.076,-0.85 -3.27,-1.172c-2.422,-0.654 -9.183,-1.324 -10.139,-1.416c-7.482,-1.916 -14.909,-4.058 -22.32,-6.228c-21.728,-6.363 -43.431,-13.202 -64.641,-21.133c-45.929,-17.173 -93.32,-46.222 -122.116,-86.671c-5.819,-8.174 -11.486,-18.507 -14.535,-29.322c-2.508,-8.898 -3.402,-18.177 0.233,-26.392c4.933,-11.148 15.709,-14.612 26.979,-15.345c15.164,-0.986 31.668,3.043 43.768,7.494c64.434,23.703 115.916,72.758 167.566,116.757l-1.525,63.428Z" style="fill:#7e4121;"/><path d="M677.942,1293.52c39.978,-83.465 140.198,-118.77 223.662,-78.793c83.465,39.978 118.771,140.198 78.793,223.663c-39.978,83.465 -140.198,118.77 -223.662,78.793c-83.465,-39.978 -118.771,-140.198 -78.793,-223.663Z" style="fill:#edaf5f;"/><path d="M662.911,1286.32c-43.952,91.761 -5.137,201.942 86.624,245.894c91.761,43.951 201.942,5.136 245.893,-86.624c43.952,-91.761 5.137,-201.942 -86.624,-245.894c-91.761,-43.951 -201.942,-5.136 -245.893,86.624Zm30.062,14.4c36.005,-75.169 126.263,-106.965 201.432,-70.961c75.168,36.004 106.965,126.262 70.961,201.431c-36.005,75.169 -126.263,106.965 -201.432,70.961c-75.168,-36.004 -106.965,-126.262 -70.961,-201.431Z" style="fill:#7e4021;"/><path d="M2311.85,2319.09c-29.529,-15.327 -44.811,-55.85 -79.635,-64.475c-25.858,-6.404 -46.77,15.012 -53.892,26.466c-1.107,1.781 -19.328,-18.082 -45.058,-10.817c-37.116,10.481 -45.042,57.357 -71.78,92.676c29.389,27.44 45.064,61.315 78.155,71.156c88.17,26.221 137.534,-38.019 172.21,-115.006Z" style="fill:#f8bcc4;"/><path d="M2174.28,2259.72c-10.606,-5.48 -26.579,-10.842 -45.546,-5.486c-18.803,5.309 -32.042,17.551 -42.906,33.723c-12.708,18.919 -21.789,44.002 -37.633,64.932c-5.156,6.809 -4.329,16.414 1.914,22.242c14.303,13.355 25.218,28.32 36.634,41.099c13.869,15.524 28.58,28.032 48.144,33.85c97.403,28.967 153.85,-39.087 192.157,-124.136c3.633,-8.065 0.333,-17.562 -7.518,-21.637c-13.07,-6.785 -22.643,-19.516 -33.146,-31.135c-14.112,-15.611 -29.451,-29.597 -50.161,-34.726c-25.911,-6.418 -48.419,7.523 -61.939,21.274Zm116.442,65.281c-30.522,63.39 -72.282,115.151 -146.333,93.128c-13.528,-4.023 -23.197,-13.372 -32.788,-24.106c-9.193,-10.291 -18.14,-21.873 -28.572,-33.044c9.487,-15.116 16.827,-31.238 24.925,-45.416c7.66,-13.412 15.569,-25.221 29.838,-29.25c10.517,-2.97 19.02,1.494 24.112,4.584c4.116,2.497 7.093,4.561 8.558,5.241c5.144,2.391 9.251,1.844 11.717,1.234c4.548,-1.125 7.927,-3.671 10.296,-7.481c4.806,-7.729 18.284,-23.41 35.731,-19.089c14.119,3.496 23.826,14.08 33.447,24.723c9.407,10.407 18.614,21.097 29.069,29.476Z" style="fill:#7e4021;"/><path d="M2309.99,2301.6c-108.935,57.888 -212.004,62.974 -290.793,23.189c-8.211,-4.146 -18.244,-0.845 -22.39,7.366c-4.146,8.211 -0.846,18.243 7.365,22.39c87.054,43.957 201.098,40.451 321.46,-23.509c8.123,-4.317 11.213,-14.416 6.897,-22.539c-4.317,-8.123 -14.416,-11.213 -22.539,-6.897Z" style="fill:#7e4021;"/><path d="M2020.4,2252.82c-10.623,4.155 -25.908,11.933 -37.904,19.566c-22.751,14.476 -49.336,32.935 -65.329,54.902c-5.414,7.436 -3.772,17.869 3.665,23.283c7.436,5.414 17.869,3.772 23.283,-3.664c13.669,-18.775 36.83,-34.026 56.275,-46.398c10.182,-6.478 23.135,-13.119 32.152,-16.646c8.566,-3.35 12.801,-13.026 9.45,-21.592c-3.35,-8.567 -13.026,-12.802 -21.592,-9.451Z" style="fill:#7e4021;"/><path d="M1962.76,2320.16c1.051,-1.614 23.884,-34.437 36.987,-31.35c3.739,0.881 4.868,16.306 5.137,20.135c0.239,3.391 6.939,29.019 6.56,29.468c-2.148,2.538 -37.328,-14.591 -48.684,-18.253Z" style="fill:#7c3f20;"/><path d="M1948.79,2311.07c-2.83,4.351 -3.473,9.772 -1.737,14.664c1.736,4.891 5.651,8.695 10.591,10.288c10.828,3.492 42.268,18.109 50.074,19.123c8.998,1.169 14.087,-3.175 16.448,-5.966c0.672,-0.794 5.192,-5.686 3.596,-14.559c-0.731,-4.069 -6.275,-27.274 -6.275,-27.274c-0,-0 0.017,0.34 0.023,0.431c-0.29,-4.125 -1.869,-18.137 -4.847,-24.225c-3.33,-6.808 -8.59,-9.903 -13.093,-10.964c-7.794,-1.836 -17.99,0.743 -27.569,8.129c-13.066,10.074 -26.358,29.043 -27.211,30.353Z" style="fill:#7e4021;"/><path d="M541.648,804.809c51.838,42.32 117.787,65.628 185.745,80.554c222.701,48.914 421.493,31.395 648.493,2.262c9.124,-1.171 15.58,-9.529 14.41,-18.653c-1.171,-9.123 -9.529,-15.58 -18.653,-14.409c-223.011,28.621 -418.311,46.297 -637.099,-1.757c-62.769,-13.786 -123.936,-34.73 -171.816,-73.818c-7.125,-5.817 -17.633,-4.755 -23.45,2.37c-5.818,7.126 -4.755,17.634 2.37,23.451Z" style="fill:#7e4021;"/><path d="M1499.55,877.15c2.385,-0.698 23.68,-6.847 44.047,-10.398c63.652,-11.1 164.572,-21.63 182.079,-24.426c201.788,-32.228 410.196,-53.232 606.755,-110.796c8.827,-2.585 13.896,-11.851 11.31,-20.679c-2.585,-8.828 -11.851,-13.896 -20.679,-11.311c-195.216,57.171 -402.232,77.862 -602.643,109.87c-20.127,3.214 -149.839,16.645 -207.943,29.422c-11.553,2.54 -20.579,5.182 -26.045,7.614c-4.728,2.104 -7.887,4.542 -9.774,6.571c-6.264,6.736 -5.881,17.291 0.855,23.555c6.22,5.783 15.694,5.9 22.038,0.578Z" style="fill:#7e4021;"/><path d="M610.063,729.173c-14.916,-13.259 -11.204,-91.086 -12.106,-110.204c-2.094,-44.373 -9.499,-99.838 7.343,-142.25c54.163,-136.393 263.925,-212.173 388.542,-252.878c411.376,-134.375 1098.19,-267.072 1527.27,-178.499c44.004,9.083 90.238,22.719 124.617,53.22c68.293,60.59 110.169,309.868 103.141,319.267c-71.515,95.651 -404.624,191.374 -587.417,226.355c-194.214,37.167 -390.297,70.784 -586.664,94.323c-294.572,35.312 -731.079,88.987 -964.726,-9.334Z" style="fill:#f8bcc4;"/><path d="M598.99,741.63c1.366,1.215 2.923,2.196 4.608,2.905c235.696,99.183 676.02,46.141 973.175,10.52c196.751,-23.585 393.219,-57.261 587.812,-94.501c129.059,-24.698 332.384,-79.487 467.519,-143.186c60.495,-28.516 107.511,-59.327 130.115,-89.559c1.33,-1.78 3.226,-5.078 3.823,-10.362c0.575,-5.09 0.003,-16.701 -2.12,-32.794c-5.687,-43.119 -21.794,-122.41 -45.788,-189.607c-16.816,-47.098 -37.946,-88.192 -61.344,-108.951c-36.558,-32.435 -85.516,-47.416 -132.309,-57.076c-431.466,-89.065 -1122.15,43.858 -1535.81,178.979c-75.91,24.795 -182.882,62.542 -268.238,118.577c-59.096,38.796 -107.776,86.47 -130.619,143.993c-17.669,44.493 -10.698,102.636 -8.501,149.186c0.643,13.632 -0.926,56.565 3.231,85.733c2.471,17.333 8.129,30.524 14.45,36.143Zm2133.82,-330.326c-21.269,25.963 -62.883,51.384 -114.92,75.913c-132.825,62.61 -332.718,116.322 -459.571,140.598c-193.833,37.094 -389.532,70.65 -585.515,94.144c-290.032,34.767 -718.888,88.584 -951.577,-6.207c-0.943,-2.996 -2.936,-9.695 -3.688,-14.969c-4.005,-28.1 -2.315,-69.467 -2.935,-82.6c-1.991,-42.196 -9.831,-94.981 6.185,-135.312c20.488,-51.592 64.93,-93.635 117.932,-128.431c82.792,-54.352 186.665,-90.706 260.295,-114.757c409.091,-133.627 1092.03,-266.1 1518.73,-178.019c41.215,8.508 84.725,20.797 116.925,49.365c20.31,18.02 37.477,54.343 52.074,95.226c23.127,64.769 38.651,141.196 44.133,182.757c1.176,8.92 1.728,18.07 1.936,22.292Z" style="fill:#7e4021;"/><path d="M2262.72,108.866c-32.378,2.811 -133.92,33.508 -157.134,42.092c-89.86,33.228 -180.389,67.157 -264.823,112.779c-15.653,8.457 -114.779,61.097 -103.119,85.602c10.4,21.857 148.337,-2.667 168.669,-5.696c130.439,-19.43 277.21,-27.829 395.484,-91.534c118.864,-64.022 10.944,-147.587 -39.077,-143.243Z" style="fill:#9d5e3e;"/><path d="M2261.27,92.261c-33.262,2.889 -137.624,34.247 -161.472,43.065c-90.594,33.499 -181.842,67.753 -266.966,113.748c-11.396,6.157 -65.225,34.996 -92.401,60.388c-8.868,8.286 -15.127,16.576 -18.009,23.755c-3.419,8.514 -3.122,16.377 0.164,23.282c2.202,4.628 6.123,8.937 12.313,12.085c4.862,2.473 11.807,4.4 20.389,5.401c42.494,4.956 136.732,-11.363 153.472,-13.857c132.276,-19.703 280.993,-28.744 400.932,-93.345c42.381,-22.828 59.062,-49.004 62.062,-72.564c3.658,-28.719 -12.911,-56.152 -37.11,-75.288c-23.122,-18.285 -52.601,-28.474 -73.374,-26.67l-0,0Zm-504.13,248.348c1.758,-2.251 3.925,-4.807 6.048,-6.79c25.083,-23.436 74.972,-49.736 85.49,-55.419c83.745,-45.25 173.554,-78.854 262.68,-111.81c22.581,-8.349 121.302,-38.385 152.796,-41.12c14.244,-1.237 33.959,7.069 49.814,19.607c14.784,11.691 26.955,27.385 24.72,44.931c-2.05,16.098 -15.844,31.83 -44.803,47.428c-116.608,62.807 -261.433,70.566 -390.036,89.722c-13.963,2.08 -84.456,14.589 -129.002,14.495c-6.664,-0.014 -12.682,-0.308 -17.707,-1.044Z" style="fill:#7e4021;"/><path d="M2630.15,126.394c2.5,10.246 1.01,21.762 -1.245,31.928c-7.41,33.406 -30.817,58.267 -58.155,77.512c-99.666,70.159 -256.336,99.876 -372.39,136.934c-234.895,75.008 -476.941,89.088 -721.254,106.089c-167.835,11.678 -335.747,27.224 -504.066,20.721c-9.192,-0.355 -16.943,6.819 -17.298,16.011c-0.355,9.191 6.819,16.942 16.011,17.297c169.52,6.55 338.635,-9.014 507.667,-20.776c246.981,-17.187 491.62,-31.761 729.08,-107.588c118.992,-37.997 279.249,-69.496 381.437,-141.431c34.124,-24.021 62.261,-55.853 71.511,-97.55c3.396,-15.31 4.813,-32.711 0.831,-48.073c-0.917,-3.538 -5.372,-11.158 -8.355,-16.015c-0.611,-5.14 -3.604,-9.923 -8.476,-12.619c-7.79,-4.31 -13.277,-2.268 -15.66,-1.308c-3.958,1.595 -6.818,4.275 -8.702,7.92c-1.302,2.519 -2.377,5.968 -1.706,10.455c0.249,1.66 1.086,4.716 3.206,8.307c1.732,2.936 6.884,11.107 7.564,12.186Zm2.57,-6.966l0.232,0.056l-0.489,-0.14l0.257,0.084Zm-1.091,-0.356l0.64,0.209l-0.645,-0.22l-0.506,-0.201l0.511,0.212Zm-1.136,-0.472l0.238,0.099l-0.446,-0.204l0.208,0.105Z" style="fill:#7e4021;"/><path d="M775.736,513.248c5.971,2.372 13.044,1.158 17.895,-3.653c5.813,-5.766 5.763,-11.307 5.438,-14.51c-0.56,-5.526 -3.195,-10.586 -9.645,-13.7c-1.869,-0.902 -5.185,-1.983 -9.652,-1.861c-2.562,0.069 -9.563,0.819 -10.831,0.958c-9.144,-1.793 -17.919,-4.6 -26.725,-7.637c-14.438,-4.979 -31.188,-9.946 -45.746,-17.765c-11.717,-6.293 -22.11,-14.404 -26.797,-27.27c-3.148,-8.643 -12.721,-13.104 -21.364,-9.955c-8.643,3.148 -13.104,12.721 -9.956,21.364c7.595,20.85 23.358,35.029 42.345,45.227c16.144,8.671 34.639,14.39 50.651,19.912c10.574,3.646 21.13,6.933 32.134,9.022c2.391,0.454 8.1,0.168 12.253,-0.132Zm-6.79,-25.979c-0.72,0.871 -1.284,1.735 -1.722,2.581c0.484,-0.901 1.057,-1.766 1.722,-2.581Zm0.343,-0.419l-0.227,0.277l0.39,-0.45l-0.163,0.173Z" style="fill:#7e4021;"/><path d="M1171.31,254.185c6.439,0.509 12.87,-2.773 16.069,-8.847c3.102,-5.888 2.159,-10.541 0.999,-13.756c-1.439,-3.99 -4.112,-7.314 -8.496,-9.449c-1.43,-0.697 -3.174,-1.304 -5.262,-1.583c-1.725,-0.231 -8.845,0.812 -8.845,0.812c-0,0 0.94,-0.152 1.3,-0.184c-28.881,2.547 -57.803,11.01 -85.328,19.661c-30.759,9.667 -80.552,25.46 -119.557,49.036c-28.992,17.524 -51.888,39.642 -60.246,65.647c-8.909,27.717 3.577,48.537 29.029,63.017c43.737,24.883 132.753,28.207 157.736,28.34c9.198,0.049 16.706,-7.379 16.755,-16.578c0.049,-9.198 -7.379,-16.706 -16.578,-16.755c-16.334,-0.087 -62.637,-1.273 -102.35,-10.273c-17.932,-4.063 -34.525,-9.507 -45.357,-17.823c-6.506,-4.995 -10.215,-11.282 -7.501,-19.729c6.175,-19.21 24.337,-34.373 45.755,-47.319c36.606,-22.126 83.441,-36.691 112.309,-45.764c25.261,-7.939 51.755,-15.918 78.261,-18.255c0.302,-0.027 0.775,-0.102 1.307,-0.198Zm-15.134,-19.238c0.274,-1.752 0.839,-3.489 1.712,-5.145c-0.982,1.864 -1.489,3.587 -1.712,5.145Z" style="fill:#7e4021;"/><path d="M2681.32,613.953c50.702,-18.406 124.099,-46.002 176.905,-87.867c37.991,-30.12 65.377,-67.612 69.585,-113.424c0.842,-9.16 -5.912,-17.28 -15.072,-18.122c-9.16,-0.841 -17.28,5.912 -18.121,15.072c-3.381,36.798 -26.586,66.161 -57.101,90.354c-49.951,39.602 -119.609,65.244 -167.57,82.655c-8.647,3.139 -13.118,12.707 -9.979,21.353c3.139,8.647 12.707,13.118 21.353,9.979Z" style="fill:#7e4021;"/><circle cx="3101.33" cy="5105.51" r="31.713" style="fill:#7e4021;"/><circle cx="3367.7" cy="4940.24" r="31.713" style="fill:#7e4021;"/><circle cx="2996.71" cy="5091.86" r="31.713" style="fill:#7e4021;"/><circle cx="3280.56" cy="4840.33" r="31.713" style="fill:#7e4021;"/><circle cx="3380.88" cy="4770.52" r="31.713" style="fill:#7e4021;"/><circle cx="3419.66" cy="4858.95" r="31.713" style="fill:#7e4021;"/><circle cx="2969.98" cy="5201.6" r="31.713" style="fill:#7e4021;"/><circle cx="3231.16" cy="4984.28" r="31.713" style="fill:#7e4021;"/><circle cx="3192.37" cy="4766.57" r="31.713" style="fill:#7e4021;"/><circle cx="3297.35" cy="4708.65" r="31.713" style="fill:#7e4021;"/><circle cx="3008.08" cy="5303.37" r="31.713" style="fill:#7e4021;"/><circle cx="3258.1" cy="5122.86" r="31.713" style="fill:#7e4021;"/><circle cx="3104.17" cy="5214.1" r="31.713" style="fill:#7e4021;"/><circle cx="3342.66" cy="5042.14" r="31.713" style="fill:#7e4021;"/><circle cx="2847.74" cy="5241.4" r="31.713" style="fill:#7e4021;"/><circle cx="3166.91" cy="4917.37" r="31.713" style="fill:#7e4021;"/><circle cx="2766.43" cy="5342.6" r="31.713" style="fill:#7e4021;"/><circle cx="2887.54" cy="5324.98" r="31.713" style="fill:#7e4021;"/><circle cx="3124.17" cy="5019.54" r="31.713" style="fill:#7e4021;"/></g></svg>