<?xml version="1.0" encoding="UTF-8" standalone="no"?><!DOCTYPE svg PUBLIC "-//W3C//DTD SVG 1.1//EN" "http://www.w3.org/Graphics/SVG/1.1/DTD/svg11.dtd"><svg width="100%" height="100%" viewBox="0 0 2924 1731" version="1.1" xmlns="http://www.w3.org/2000/svg" xmlns:xlink="http://www.w3.org/1999/xlink" xml:space="preserve" xmlns:serif="http://www.serif.com/" style="fill-rule:evenodd;clip-rule:evenodd;stroke-linejoin:round;stroke-miterlimit:2;"><g id="Cookie"><path d="M1904.22,99.416c-70.218,-9.304 -170.559,-58.05 -229.806,-61.032c-166.423,-8.378 -332.293,47.588 -497.05,68.571c-164.426,20.942 -255.008,-40.146 -416.527,43.723c-361.167,187.534 -1121.42,614.651 -518.423,1144.64c111.331,97.852 202.521,215.664 343.956,225.749c98.521,7.024 162.574,130.605 333.847,104.312c99.115,-15.216 245.209,24.542 375.393,70.056c164.073,57.363 336.02,-36.62 380.792,-53.485c176.361,-66.433 697.172,-123.28 844.663,-212.628c130.847,-79.265 191.331,-191.159 320.588,-264.117c86.262,-48.689 67.527,-339.427 50.705,-410.868c-65.579,-278.494 -344.297,-535.154 -510.394,-610.896c-124.761,-56.892 -362.067,-28.699 -477.744,-44.027Z" style="fill:#d9905f;"/><path d="M1906.41,82.894c-34.214,-4.533 -75.731,-18.807 -115.947,-32.18c-42.89,-14.261 -84.423,-27.426 -115.21,-28.976c-167.396,-8.426 -334.274,47.578 -499.993,68.684c-81.163,10.337 -144.099,0.283 -206.678,-1.86c-65.917,-2.257 -131.444,3.718 -215.425,47.324c-145.458,75.529 -355.139,189.763 -515.618,333.675c-147.724,132.474 -253.239,290.329 -234.647,465.59c12.377,116.682 79.687,241.874 228.52,372.687c55.891,49.125 106.751,103.231 161.364,146.35c57.058,45.05 118.227,78.216 192.41,83.505c36.823,2.626 68.204,23.349 103.195,44.893c58.971,36.309 126.477,75.831 234.366,59.268c97.031,-14.896 239.917,24.759 367.363,69.316c168.889,59.047 346.082,-36.261 392.168,-53.621c105.329,-39.676 334.125,-75.753 531.992,-117.608c134.793,-28.514 255.424,-60.01 315.432,-96.362c66.637,-40.368 115.443,-88.942 163.96,-136.815c46.616,-45.997 92.938,-91.344 156.184,-127.043c29.067,-16.406 49.191,-56.363 60.273,-107.715c23.557,-109.17 10.513,-270.31 -1.537,-321.487c-66.788,-283.628 -350.544,-545.103 -519.701,-622.24c-51.516,-23.492 -121.559,-33.258 -194.781,-37.14c-105.916,-5.615 -218.598,0.91 -287.69,-8.245Zm-4.378,33.045c69.721,9.238 183.424,2.821 290.303,8.487c68.642,3.639 134.422,12.159 182.715,34.182c163.035,74.345 436.716,326.191 501.086,599.552c11.501,48.84 23.882,202.627 1.399,306.814c-8.653,40.1 -21.376,72.907 -44.074,85.719c-66.01,37.259 -114.558,84.337 -163.211,132.343c-46.75,46.13 -93.61,93.135 -157.819,132.033c-57.986,35.126 -174.81,64.708 -305.06,92.26c-199.698,42.242 -430.539,78.983 -536.843,119.026c-43.458,16.371 -210.157,109.03 -369.417,53.35c-132.921,-46.472 -282.223,-86.334 -383.422,-70.798c-97.64,14.989 -158.462,-21.846 -211.831,-54.706c-39.904,-24.569 -76.307,-46.763 -118.302,-49.757c-67.253,-4.795 -122.396,-35.577 -174.124,-76.418c-54.173,-42.771 -104.574,-96.496 -160.014,-145.225c-140.606,-123.582 -205.686,-240.934 -217.379,-351.166c-17.515,-165.111 84.586,-312.455 223.755,-437.258c158.29,-141.949 365.249,-254.409 508.724,-328.908c93.432,-48.514 162.292,-46.437 236.633,-41.599c52.364,3.408 107.324,8.151 174.32,-0.381c163.794,-20.862 328.655,-76.788 494.106,-68.46c28.46,1.433 66.72,14.132 106.368,27.316c42.32,14.072 86.083,28.823 122.087,33.594Z" style="fill:#7e4021;"/><path d="M1918.93,933.762c-29.991,-5.663 -129.805,35.483 -133.459,35.668c-22.412,1.137 -45.191,0.795 -67.544,-1.455c-2.668,-0.269 -5.337,-0.517 -8.003,-0.806c-31.844,-3.455 -65.671,-7.107 -96.762,4.834c-31.327,12.032 -174.287,134.532 -154.692,185.314c49.033,127.075 423.151,-14.081 475.716,-81.032c54.651,-69.607 37.085,-132.639 -15.256,-142.523Z" style="fill:#9d5e3e;"/><path d="M1782.63,952.878c-20.934,0.979 -42.176,0.614 -63.033,-1.486c-2.625,-0.265 -5.251,-0.508 -7.875,-0.793c-34.412,-3.733 -70.935,-7.059 -104.535,5.845c-23.097,8.871 -104.325,74.198 -143.596,131.278c-10.934,15.893 -18.668,31.271 -21.844,44.692c-2.725,11.513 -2.277,21.959 1.175,30.902c16.92,43.85 66.122,62.907 130.265,61.856c93.388,-1.529 219.111,-43.579 299.041,-85.286c36.159,-18.867 63.122,-38.093 75.068,-53.309c65.224,-83.074 37.196,-157.396 -25.273,-169.192c-13.569,-2.563 -39.924,2.438 -66.751,10.465c-29.757,8.904 -67.147,22.948 -72.642,25.028Zm133.208,-2.739c42.349,7.997 49.457,59.536 5.24,115.854c-10.131,12.904 -33.605,28.341 -64.27,44.341c-75.988,39.649 -195.385,80.055 -284.166,81.509c-25.33,0.415 -48.016,-2.305 -66.004,-9.706c-15.311,-6.299 -26.931,-16.081 -32.618,-30.82c-1.715,-4.446 -0.541,-9.781 1.473,-15.752c3.026,-8.972 8.553,-18.765 15.56,-28.95c35.296,-51.303 107.325,-111.08 128.085,-119.053c28.585,-10.979 59.713,-7 88.989,-3.824c2.709,0.294 5.421,0.547 8.131,0.819c23.185,2.335 46.812,2.697 70.058,1.519c0.83,-0.043 4.445,-0.657 9.978,-2.647c11.539,-4.149 40.425,-15.234 68.533,-23.645c20.613,-6.167 40.585,-11.614 51.011,-9.645Z" style="fill:#7e4021;"/><path d="M1269.2,647.714c29.778,88.504 114.681,114.164 182.077,93.313c45.749,-14.154 83.248,-49.662 91.248,-101.004c1.417,-9.089 -4.812,-17.618 -13.901,-19.034c-9.089,-1.417 -17.618,4.813 -19.034,13.901c-5.927,38.03 -34.278,63.808 -68.165,74.293c-52.059,16.106 -117.63,-3.736 -140.632,-72.099c-2.934,-8.718 -12.394,-13.414 -21.112,-10.481c-8.718,2.933 -13.415,12.393 -10.481,21.111Z" style="fill:#7e4021;"/><path d="M1769.3,182.751c-69.649,42.976 -207.828,212.638 -58.678,397.776c255.245,316.833 713.517,-64.294 451.345,-351.181c-20.925,-22.897 -158.432,-191.126 -392.667,-46.595Z" style="fill:#fff;"/><path d="M1760.55,168.567c-73.979,45.648 -221.326,225.77 -62.905,422.416c53.771,66.745 116.245,103.857 179.342,118.464c253.673,58.724 519.329,-248.369 297.285,-491.344c-13.238,-14.486 -70.933,-83.805 -168.152,-104.291c-64.645,-13.622 -147.036,-6.043 -245.57,54.755l0,0Zm17.504,28.368c88.855,-54.827 162.898,-62.79 221.193,-50.506c87.192,18.373 138.546,81.169 150.419,94.16c197.432,216.044 -39.605,488.598 -265.161,436.383c-56.71,-13.128 -112.575,-46.912 -160.902,-106.901c-139.879,-173.63 -10.869,-332.831 54.451,-373.136l0,-0Z" style="fill:#7e4021;"/><path d="M1053.28,182.751c69.65,42.976 207.828,212.638 58.679,397.776c-255.245,316.833 -713.518,-64.294 -451.345,-351.181c20.925,-22.897 158.432,-191.126 392.666,-46.595Z" style="fill:#fff;"/><path d="M1062.03,168.567c-98.533,-60.798 -180.924,-68.377 -245.57,-54.755c-97.219,20.486 -154.914,89.805 -168.151,104.291c-222.044,242.975 43.612,550.068 297.284,491.344c63.097,-14.607 125.572,-51.719 179.342,-118.464c158.421,-196.646 11.074,-376.768 -62.905,-422.416l0,0Zm-17.504,28.368c65.321,40.305 194.331,199.506 54.452,373.136c-48.328,59.989 -104.193,93.773 -160.903,106.901c-225.555,52.215 -462.593,-220.339 -265.16,-436.383c11.872,-12.991 63.226,-75.787 150.418,-94.16c58.296,-12.284 132.339,-4.321 221.193,50.506l0,-0Z" style="fill:#7e4021;"/><path d="M1810.5,246.348c-51.578,31.826 -153.905,157.467 -43.454,294.569c189.019,234.626 528.387,-47.613 334.238,-260.063c-15.496,-16.957 -117.325,-141.536 -290.784,-34.506Z" style="fill:#7e4021;"/><path d="M1801.75,232.164c-55.908,34.497 -167.403,170.599 -47.681,319.209c40.526,50.303 87.648,78.218 135.203,89.226c191.501,44.332 391.942,-187.563 224.317,-370.989c-9.98,-10.921 -53.527,-63.1 -126.823,-78.545c-48.696,-10.261 -110.792,-4.699 -185.016,41.099l-0,0Zm17.504,28.368c64.545,-39.826 118.293,-45.773 160.639,-36.85c63.268,13.332 100.475,58.988 109.09,68.415c143.014,156.495 -28.809,353.851 -192.194,316.028c-41.167,-9.53 -81.68,-34.117 -116.762,-77.664c-101.18,-125.594 -8.022,-240.775 39.227,-269.929l-0,0Z" style="fill:#7e4021;"/><path d="M1012.09,246.348c51.578,31.826 153.904,157.467 43.453,294.569c-189.018,234.626 -528.387,-47.613 -334.238,-260.063c15.496,-16.957 117.325,-141.536 290.785,-34.506Z" style="fill:#7e4021;"/><path d="M1020.84,232.164c-74.224,-45.798 -136.32,-51.36 -185.017,-41.099c-73.295,15.445 -116.843,67.624 -126.823,78.545c-167.625,183.426 32.817,415.321 224.318,370.989c47.554,-11.008 94.677,-38.923 135.202,-89.226c119.722,-148.61 8.227,-284.712 -47.68,-319.209l-0,0Zm-17.504,28.368c47.249,29.154 140.407,144.335 39.226,269.929c-35.082,43.547 -75.595,68.134 -116.762,77.664c-163.385,37.823 -335.207,-159.533 -192.194,-316.028c8.615,-9.427 45.822,-55.083 109.09,-68.415c42.347,-8.923 96.095,-2.976 160.64,36.85l-0,0Z" style="fill:#7e4021;"/><path d="M1826.59,297.621c-22.666,13.986 -67.633,69.198 -19.096,129.446c83.063,103.105 232.195,-20.923 146.878,-114.282c-6.809,-7.452 -51.557,-62.197 -127.782,-15.164Z" style="fill:#fff;"/><path d="M1817.84,283.438c-26.995,16.656 -81.131,82.328 -23.323,154.085c19.335,23.999 41.894,37.199 64.582,42.451c92.035,21.305 188.138,-90.279 107.578,-178.433c-4.768,-5.218 -25.681,-29.976 -60.701,-37.355c-23.18,-4.885 -52.806,-2.548 -88.136,19.252Zm17.503,28.367c25.652,-15.828 46.93,-18.548 63.76,-15.002c24.993,5.266 39.565,23.501 42.968,27.225c55.949,61.222 -11.536,138.268 -75.454,123.471c-16.301,-3.773 -32.251,-13.645 -46.142,-30.888c-39.266,-48.741 -3.468,-93.492 14.868,-104.806Z" style="fill:#7e4021;"/><path d="M995.993,297.621c22.665,13.986 67.632,69.198 19.095,129.446c-83.062,103.105 -232.195,-20.923 -146.878,-114.282c6.81,-7.452 51.558,-62.197 127.783,-15.164Z" style="fill:#fff;"/><path d="M1004.75,283.438c-35.33,-21.8 -64.957,-24.137 -88.136,-19.252c-35.02,7.379 -55.933,32.137 -60.702,37.355c-80.559,88.154 15.544,199.738 107.578,178.433c22.688,-5.252 45.248,-18.452 64.582,-42.451c57.808,-71.757 3.673,-137.429 -23.322,-154.085l-0,-0Zm-17.504,28.367c18.337,11.315 54.135,56.065 14.868,104.806c-13.891,17.243 -29.841,27.115 -46.141,30.888c-63.918,14.797 -131.403,-62.249 -75.455,-123.471c3.403,-3.724 17.976,-21.959 42.969,-27.225c16.829,-3.546 38.107,-0.826 63.759,15.002l0,0Z" style="fill:#7e4021;"/><path d="M2072.91,346.008c-20.423,-4.837 -76.244,0.872 -82.77,61.489c-11.168,103.736 141.042,117.724 145.523,18.163c0.358,-7.947 5.929,-63.386 -62.753,-79.652Z" style="fill:#fff;"/><path d="M2076.75,329.79c-25.373,-6.009 -95.074,0.612 -103.182,75.923c-2.698,25.061 2.764,45.731 12.847,61.889c41.031,65.75 161.492,56.68 165.897,-41.193c0.26,-5.779 2.416,-32.192 -13.579,-56.727c-10.57,-16.214 -28.976,-32.075 -61.983,-39.892Zm-7.682,32.436c21.941,5.196 34.715,14.882 41.742,25.66c10.399,15.951 8.371,33.267 8.202,37.024c-2.765,61.427 -78.566,66.311 -104.318,25.045c-6.612,-10.596 -9.753,-24.24 -7.984,-40.674c4.944,-45.925 46.885,-50.719 62.358,-47.055Z" style="fill:#7e4021;"/><path d="M749.672,346.008c20.422,-4.837 76.244,0.872 82.769,61.489c11.168,103.736 -141.041,117.724 -145.523,18.163c-0.357,-7.947 -5.928,-63.386 62.754,-79.652Z" style="fill:#fff;"/><path d="M745.831,329.79c-33.007,7.817 -51.414,23.678 -61.984,39.892c-15.995,24.535 -13.839,50.948 -13.578,56.727c4.405,97.873 124.865,106.943 165.896,41.193c10.083,-16.158 15.545,-36.828 12.847,-61.889c-8.107,-75.311 -77.808,-81.932 -103.181,-75.923Zm7.682,32.436c15.473,-3.664 57.413,1.13 62.357,47.055c1.77,16.434 -1.371,30.078 -7.984,40.674c-25.752,41.266 -101.553,36.382 -104.318,-25.045c-0.169,-3.757 -2.196,-21.073 8.203,-37.024c7.026,-10.778 19.801,-20.464 41.742,-25.66Z" style="fill:#7e4021;"/><path d="M1997.38,492.737c-8.685,-14.075 -42.97,-41.998 -80.383,-11.858c-64.026,51.581 12.993,144.189 70.967,91.209c4.627,-4.229 38.623,-32.016 9.416,-79.351Z" style="fill:#fff;"/><path d="M2011.57,483.985c-11.356,-18.404 -56.101,-55.497 -105.023,-16.085c-24.515,19.75 -32.356,44.425 -29.985,67.169c5.594,53.658 70.282,97.18 122.651,49.322c3.524,-3.22 20.134,-17.408 25.117,-41.055c3.287,-15.598 1.91,-35.576 -12.76,-59.351l-0,0Zm-28.368,17.504c8.698,14.096 10.46,25.725 8.511,34.974c-2.87,13.62 -12.957,21.467 -14.986,23.322c-32.915,30.079 -74.213,-6.404 -66.258,-40.768c2.063,-8.912 7.563,-17.564 16.99,-25.159c25.906,-20.87 49.73,-2.115 55.743,7.631l0,0Z" style="fill:#7e4021;"/><path d="M825.2,492.737c8.685,-14.075 42.971,-41.998 80.384,-11.858c64.026,51.581 -12.993,144.189 -70.968,91.209c-4.627,-4.229 -38.623,-32.016 -9.416,-79.351Z" style="fill:#fff;"/><path d="M811.017,483.985c-14.67,23.775 -16.048,43.753 -12.761,59.351c4.983,23.647 21.594,37.835 25.117,41.055c52.37,47.858 117.057,4.336 122.651,-49.322c2.371,-22.744 -5.47,-47.419 -29.984,-67.169c-48.922,-39.412 -93.667,-2.319 -105.023,16.085Zm28.367,17.504c6.014,-9.746 29.837,-28.501 55.744,-7.631c9.427,7.595 14.926,16.247 16.989,25.159c7.955,34.364 -33.343,70.847 -66.257,40.768c-2.03,-1.855 -12.117,-9.702 -14.987,-23.322c-1.948,-9.249 -0.187,-20.878 8.511,-34.974Z" style="fill:#7e4021;"/><path d="M2403.1,270.651c3.083,1.392 -6.52,-1.13 -9.792,-0.974c-8.803,0.422 -17.346,2.59 -25.304,7.48c-26.52,16.295 -51.3,48.068 -46.312,88.051c3.998,32.046 107.512,227.406 130.047,247.468c21.28,18.945 47.543,20.427 71.753,10.589c201.221,-81.765 17.842,-317.623 -120.392,-352.614Z" style="fill:#9d5e3e;"/><path d="M2402.02,254.02c-3.078,-0.469 -7.625,-1.081 -9.51,-0.99c-11.571,0.555 -22.771,3.499 -33.231,9.927c-31.327,19.248 -60.017,57.084 -54.125,104.314c2.083,16.7 29.44,76.249 59.868,133.94c30.431,57.696 63.89,113.458 75.635,123.913c26.446,23.544 59.021,25.808 89.109,13.582c44.909,-18.249 72.242,-43.865 86.653,-72.701c21.622,-43.263 14.412,-94.969 -11.018,-144.232c-40.086,-77.656 -125.245,-148.809 -198.211,-167.279c-1.731,-0.439 -3.471,-0.588 -5.17,-0.474Zm-8.501,32.34l5.117,0.68l2.313,0.279c64.823,17.283 139.331,80.969 174.833,149.744c20.138,39.012 27.943,79.779 10.82,114.041c-11.418,22.847 -33.803,42.262 -69.384,56.721c-18.334,7.449 -38.282,6.749 -54.397,-7.597c-10.791,-9.607 -40.355,-61.555 -68.315,-114.567c-27.963,-53.017 -54.361,-107.17 -56.275,-122.517c-4.084,-32.737 16.784,-58.445 38.498,-71.787c5.279,-3.243 10.959,-4.65 16.79,-4.997Zm-1.961,-3.686c0.923,0.938 2.171,1.911 3.876,2.774c-1.449,-0.749 -2.748,-1.688 -3.876,-2.774Z" style="fill:#7e4021;"/><path d="M2337.77,879.758c1.314,4.844 -59.283,100.893 -1.884,168.697c66.16,78.154 207.264,-14.267 194.16,-127.878c-8.342,-72.325 -165.068,-122.605 -192.276,-40.819Z" style="fill:#9d5e3e;"/><path d="M2321.39,876.706l-0.251,0.623c-4.391,10.369 -18.002,37.679 -23.86,70.378c-6.351,35.459 -3.597,76.69 25.885,111.516c31.423,37.12 76.919,42.598 119.404,26.257c59.889,-23.035 112.808,-90.748 104.034,-166.813c-2.063,-17.887 -11.112,-34.866 -25.105,-49.484c-18.938,-19.784 -47.102,-35.31 -76.306,-42.933c-52.595,-13.729 -106.835,-1.054 -123.236,48.247c-0.241,0.725 -0.432,1.463 -0.565,2.209Zm32.709,6.842c11.457,-31.145 48.505,-33.965 82.674,-25.046c23.146,6.042 45.635,18.05 60.645,33.731c8.639,9.025 14.797,19.21 16.07,30.254c6.952,60.267 -35.435,113.631 -82.886,131.882c-29.079,11.184 -60.49,8.723 -81.997,-16.683c-19.599,-23.152 -22.722,-50.259 -19.918,-74.601c3.054,-26.505 13.066,-50.07 19.109,-63.659c3.086,-6.939 5.256,-11.887 5.893,-14.156c0.167,-0.596 0.302,-1.172 0.41,-1.726l-0,0.004Z" style="fill:#7e4021;"/><path d="M946.736,838.827c-25.315,22.911 -52.45,88.235 -54.523,121.329c-5.905,94.262 204.104,145.903 261.507,19.67c74.985,-164.899 -121.454,-218.405 -206.984,-140.999Z" style="fill:#9d5e3e;"/><path d="M935.553,826.47c-27.705,25.073 -57.705,96.426 -59.974,132.644c-2.785,44.446 33.136,82.573 83.995,100.738c72.031,25.727 170.984,11.172 209.317,-73.127c25.35,-55.747 21.999,-100.236 3.926,-132.794c-21.265,-38.309 -63.946,-60.978 -110.22,-65.688c-45.344,-4.616 -93.706,8.055 -127.044,38.226l-0,0.001Zm22.367,24.714c26.533,-24.012 65.214,-33.452 101.301,-29.779c35.159,3.579 68.295,19.597 84.452,48.704c14.004,25.229 14.518,59.62 -5.125,102.818c-20.114,44.231 -61.916,63.054 -104.147,65.007c-38.948,1.801 -78.613,-10.43 -103.336,-31.763c-14.179,-12.234 -23.313,-27.504 -22.218,-44.973c1.877,-29.97 26.147,-89.265 49.073,-110.014l-0,0Z" style="fill:#7e4021;"/><path d="M388.206,355.535c-48.386,-0.489 -314.965,142.798 -244.724,241.828c27.397,38.626 79.407,18.21 113.95,12.431c45.215,-7.565 98.533,2.391 141.505,-16.805c140.626,-62.818 113.922,-236.197 -10.731,-237.454Z" style="fill:#9d5e3e;"/><path d="M388.374,338.869c-9.972,-0.101 -28.196,4.573 -50.652,13.885c-47.227,19.583 -115.964,59.219 -163.824,104.451c-24.091,22.768 -42.898,47.087 -52.125,70.916c-10.557,27.266 -9.423,54.159 8.115,78.884c17.417,24.555 42.315,31.142 68.69,29.873c21.415,-1.031 43.774,-7.663 61.604,-10.646c21.923,-3.668 45.814,-2.992 69.429,-3.822c26.536,-0.933 52.712,-3.745 76.124,-14.204c62.385,-27.867 94.586,-75.767 102.511,-122.808c12.374,-73.455 -33.521,-145.658 -119.872,-146.529l0,-0Zm-0.336,33.331c74.075,0.748 106.563,73.587 78.947,135.219c-12.496,27.887 -37.032,53.461 -74.845,70.353c-19.561,8.737 -41.529,10.545 -63.7,11.325c-25.091,0.882 -50.465,0.362 -73.758,4.259c-16.714,2.796 -37.631,9.261 -57.706,10.227c-15.119,0.727 -29.916,-1.787 -39.9,-15.862c-10.56,-14.888 -10.575,-31.146 -4.218,-47.565c7.688,-19.856 23.86,-39.752 43.935,-58.725c44.887,-42.422 109.404,-79.519 153.697,-97.886c16.771,-6.954 30.1,-11.42 37.548,-11.345l0,0Z" style="fill:#7e4021;"/><path d="M1378.64,279.191c62.416,57.51 224.362,-126.119 157.636,-238.538c-26.705,-44.992 -97.689,-13.087 -142.494,1.324c-146.62,47.161 -113.566,146.528 -15.142,237.214Z" style="fill:#9d5e3e;"/><path d="M1367.35,291.448c13.743,12.663 30.889,17.19 49.795,14.623c23.418,-3.18 50.254,-18.267 74.672,-41.566c34.568,-32.984 64.59,-82.193 73.908,-131.849c6.549,-34.903 2.995,-70.001 -15.114,-100.51c-14.02,-23.62 -36.89,-32.021 -63.589,-31.274c-31.99,0.895 -70.156,16.174 -98.34,25.239c-66.115,21.266 -98.468,53.611 -108.014,89.317c-5.963,22.304 -3.286,46.533 7.007,71.616c13.921,33.92 42.182,69.859 79.675,104.404l-0,0Zm22.587,-24.514c-28.011,-25.808 -50.56,-52.259 -64.48,-77.991c-12.374,-22.872 -17.942,-44.875 -12.587,-64.906c7.393,-27.651 34.819,-49.725 86.019,-66.194c21.684,-6.974 49.664,-18.315 75.494,-22.336c19.423,-3.023 37.845,-2.721 47.564,13.653c13.92,23.452 16.051,50.519 11.016,77.348c-8.057,42.941 -34.264,85.358 -64.157,113.88c-15.755,15.033 -32.459,26.239 -48.139,30.894c-11.654,3.46 -22.567,3.174 -30.73,-4.348Z" style="fill:#7e4021;"/><path d="M404.205,757.529c-21.094,19.058 -39.649,48.66 -43.069,81.936c-0.95,9.249 84.383,178.434 95.378,192.351c32.081,40.602 92.203,33.836 133.756,39.184c29.989,3.86 61.086,18.551 91.347,14.388c29.497,-4.058 52.099,-26.736 67.966,-57.45c81.951,-158.633 -239.27,-366.277 -345.378,-270.409Z" style="fill:#9d5e3e;"/><path d="M393.032,745.162c-23.818,21.519 -44.614,55.026 -48.475,92.599c-0.159,1.546 -0.196,4.22 0.756,7.821c1.023,3.871 4.234,12.021 9.11,22.913c22.178,49.535 80.029,162.281 89.014,173.653c18.735,23.712 45.348,34.186 73.654,38.919c24.45,4.088 50.091,3.766 71.051,6.463c14.433,1.858 29.117,6.39 43.848,9.888c17.345,4.12 34.752,6.84 51.899,4.481c34.568,-4.755 61.907,-30.316 80.502,-66.311c23.012,-44.545 18.355,-92.553 -4.388,-137.792c-21.356,-42.48 -58.932,-82.531 -102.874,-114.044c-52.658,-37.764 -114.354,-63.157 -167.256,-66.77c-38.442,-2.626 -72.478,6.168 -96.841,28.18l-0,0Zm-14.987,93.223c3.698,-27.835 19.553,-52.425 37.333,-68.489l0,-0c18.081,-16.337 43.694,-21.607 72.223,-19.659c47.551,3.248 102.77,26.658 150.102,60.602c39.383,28.244 73.378,63.856 92.518,101.929c17.754,35.314 22.518,72.748 4.555,107.52c-13.142,25.44 -30.999,45.228 -55.43,48.589c-13.115,1.804 -26.387,-0.739 -39.654,-3.89c-15.879,-3.771 -31.738,-8.515 -47.294,-10.517c-20.593,-2.651 -45.79,-2.264 -69.81,-6.28c-20.165,-3.372 -39.649,-9.814 -52.996,-26.707c-8.607,-10.893 -63.502,-119.159 -84.745,-166.609c-2.943,-6.571 -5.701,-13.622 -6.802,-16.489Z" style="fill:#7e4021;"/><path d="M2145.47,1290.34c-25.869,-9.225 -52.344,-5.241 -79.01,1.464c-22.017,5.536 -44.139,13.105 -66.177,11.863c-71.061,-4.004 -140.958,-20.558 -211.99,-7.473c-56.89,10.479 -105.701,47.285 -161.428,62.683c-19.425,5.367 -39.868,4.385 -60.415,2.748c-23.433,-1.867 -47.002,-4.659 -69.682,-2.717c-38.199,3.269 -77.17,15.534 -116.148,25.303c-35.722,8.953 -71.445,15.879 -106.584,9.25c-46.724,-8.816 -89.56,-30.774 -132.926,-51.539c-46.419,-22.227 -93.409,-43.13 -145.348,-48.352c-76.953,-7.737 -159.698,7.127 -242.054,16.987c-78.397,9.385 -156.467,14.293 -228.299,-12.982c-24.666,-9.365 -40.625,-26.848 -55.458,-46.266c-17.188,-22.501 -32.849,-47.555 -54.9,-68.961c-34.479,-33.47 -78.738,-47.625 -118.616,-67.216c-20.357,-10.001 -41.571,-21.622 -56.509,-42.506c-9.849,-13.77 -14.617,-29.991 -18.764,-46.632c-4.844,-19.433 -8.753,-39.451 -16.152,-57.977c-11.624,-29.103 -29.997,-51.18 -48.876,-72.804c-16.643,-19.063 -33.734,-37.715 -45.023,-62.272c-13.187,-28.688 -16.368,-64.441 -11.741,-96.975c7.123,-50.082 3.272,-49.146 13.806,-79.05c3.056,-8.676 -1.506,-18.201 -10.182,-21.257c-8.676,-3.057 -18.201,1.506 -21.258,10.182c-11.394,32.347 -7.663,31.257 -15.367,85.432c-5.518,38.798 -1.271,81.379 14.456,115.591c12.686,27.598 31.495,48.848 50.2,70.272c16.468,18.863 32.89,37.856 43.029,63.244c6.844,17.136 10.284,35.701 14.764,53.676c5.176,20.767 11.704,40.777 23.996,57.962c18.371,25.684 43.887,40.732 68.923,53.032c36.846,18.102 78.239,30.29 110.096,61.216c20.82,20.211 35.4,44.032 51.629,65.277c18.583,24.328 39.212,45.461 70.115,57.195c76.82,29.168 160.251,24.953 244.093,14.916c79.884,-9.564 160.114,-24.423 234.757,-16.918c48.049,4.831 91.345,24.689 134.287,45.25c45.993,22.023 91.588,44.881 141.142,54.23c39.826,7.514 80.381,0.475 120.868,-9.672c37.231,-9.331 74.4,-21.301 110.887,-24.425c20.896,-1.788 42.602,1.014 64.192,2.734c24.476,1.95 48.8,2.547 71.939,-3.847c54.8,-15.141 102.647,-51.726 158.589,-62.03c68.39,-12.598 135.659,4.117 204.077,7.972c25.322,1.427 50.882,-6.456 76.18,-12.817c20.35,-5.117 40.517,-9.462 60.251,-2.198c5.461,2.009 13.412,2.498 23.484,0.043c14.695,-3.581 36.759,-13.87 63.314,-28.143c81.746,-43.937 210.27,-127.138 294.209,-140.557c66.935,-10.7 116.277,-56.933 150.927,-112.724c50.086,-80.645 69.166,-180.667 70.283,-211.195c2.648,-72.338 -12.142,-146.412 -14.804,-213.796c-1.657,-41.92 14.399,-82.968 11.383,-124.964c-5.066,-70.523 -75.433,-160.415 -116.326,-203.249c-6.352,-6.653 -16.911,-6.898 -23.564,-0.546c-6.654,6.352 -6.898,16.911 -0.546,23.564c36.976,38.731 102.608,118.851 107.188,182.619c2.991,41.64 -13.085,82.326 -11.443,123.892c2.631,66.589 17.418,139.777 14.801,211.261c-1.031,28.181 -19.052,120.381 -65.289,194.828c-29.566,47.605 -70.757,88.264 -127.872,97.395c-86.777,13.872 -220.218,98.688 -304.728,144.111c-20.309,10.916 -37.572,19.445 -50.358,23.647c-3.844,1.264 -8.997,2.069 -10.028,2.221Z" style="fill:#7e4021;"/><path d="M2809.38,930.848c0.391,48.507 -11.721,99.255 -35.615,141.215c-4.552,7.993 -1.758,18.179 6.236,22.73c7.993,4.552 18.178,1.758 22.73,-6.235c26.81,-47.082 40.494,-104.019 39.981,-158.433c-0.011,-1.152 -0.793,-7.937 -1.093,-10.481c0.774,-3.977 0.108,-8.243 -2.194,-11.954c-4.849,-7.817 -15.132,-10.226 -22.949,-5.377c-2.782,1.726 -6.222,4.84 -7.673,10.657c-0.707,2.834 0.372,15.571 0.577,17.878Z" style="fill:#7e4021;"/><path d="M2741.03,1155.82c2.633,-1.241 4.974,-3.19 6.711,-5.783c5.12,-7.642 3.072,-18.003 -4.57,-23.123c-2.366,-1.585 -9.754,-5.685 -19.068,0.039c-5.254,3.229 -26.374,22.933 -28.808,24.846c-7.79,6.121 -15.512,12.316 -23.115,18.669c-7.059,5.898 -8.001,16.417 -2.102,23.476c5.898,7.058 16.417,8.001 23.476,2.102c7.346,-6.138 14.809,-12.123 22.336,-18.038c1.996,-1.568 21.66,-19.086 25.14,-22.188Z" style="fill:#7e4021;"/><path d="M148.713,682.053c-16.761,16.257 -23.291,43.121 -21.667,72.346c2.191,39.429 18.574,82.737 34.05,102.814c5.616,7.285 16.09,8.641 23.375,3.025c7.285,-5.616 8.641,-16.09 3.025,-23.375c-12.657,-16.421 -25.376,-52.065 -27.168,-84.313c-1.032,-18.572 0.942,-36.239 11.592,-46.57c6.603,-6.404 6.765,-16.964 0.36,-23.567c-6.404,-6.603 -16.964,-6.764 -23.567,-0.36Z" style="fill:#7e4021;"/><path d="M226.633,911.409c20.191,21.757 31.086,52.972 38.445,81.247c2.317,8.902 11.425,14.248 20.327,11.931c8.902,-2.317 14.248,-11.426 11.931,-20.328c-8.798,-33.803 -22.781,-70.723 -47.164,-96.492c-0.577,-0.61 -1.826,-1.606 -3.071,-2.546c-4.073,-6.319 -12.084,-9.279 -19.493,-6.692c-6.177,2.157 -8.775,6.085 -10.206,9.295c-1.651,3.702 -2.062,7.756 -0.668,12.138c0.672,2.116 1.97,4.777 4.507,7.313c0.996,0.996 4.119,3.235 5.392,4.134Zm12.756,-1.709l-0.792,0.299c0.273,-0.095 0.537,-0.194 0.792,-0.299Zm0.772,-0.337l-0.709,0.31l0.585,-0.25l0.124,-0.06Zm0.713,-0.354l-0.652,0.325l0.473,-0.228l0.179,-0.097Zm0.603,-0.336l-0.444,0.25l0.28,-0.152l0.164,-0.098Zm0.425,-0.256l-0.017,0.011l0.009,-0.006l0.008,-0.005Z" style="fill:#7e4021;"/></g></svg>