<?xml version="1.0" encoding="UTF-8" standalone="no"?><!DOCTYPE svg PUBLIC "-//W3C//DTD SVG 1.1//EN" "http://www.w3.org/Graphics/SVG/1.1/DTD/svg11.dtd"><svg width="100%" height="100%" viewBox="0 0 3558 2676" version="1.1" xmlns="http://www.w3.org/2000/svg" xmlns:xlink="http://www.w3.org/1999/xlink" xml:space="preserve" xmlns:serif="http://www.serif.com/" style="fill-rule:evenodd;clip-rule:evenodd;stroke-linejoin:round;stroke-miterlimit:2;"><g id="Cup-and-Cookies" serif:id="Cup and Cookies"><path d="M2974.58,577.738c41.312,-5.956 143.694,-7.856 184.093,1.979c127.48,31.034 242.473,108.786 286.063,231.902c90.255,254.92 -58.161,509.019 -303.235,586.606c-77.229,24.45 -295.027,66.917 -336.838,33.673c35.647,-83.244 86.321,-216.36 96.939,-261.883c108.242,-12.725 284.555,-7.597 292.153,-164.407c8.561,-176.692 -214.313,-127.306 -236.915,-156.524c-2.489,-36.854 26.116,-234.092 17.74,-271.346Z" style="fill:#fff;"/><path d="M2972.2,561.242c-4.598,0.663 -8.711,3.215 -11.347,7.041c-2.636,3.826 -3.555,8.578 -2.536,13.111c3.18,14.143 0.236,52.563 -3.681,95.835c-6.285,69.437 -15.943,150.527 -14.427,172.978c0.223,3.3 1.423,6.459 3.446,9.075c4.419,5.712 12.91,10.817 25.51,13.699c18.394,4.207 48.642,5.152 81.106,9.457c37.142,4.925 77.911,14.004 103.27,41.996c16.181,17.861 25.349,43.554 23.565,80.368c-3.39,69.963 -44.8,103.496 -97.053,121.262c-57.457,19.536 -127.295,21.156 -180.399,27.398c-6.976,0.82 -12.689,5.926 -14.285,12.767c-10.507,45.048 -60.754,176.734 -96.029,259.108c-2.956,6.904 -0.93,14.932 4.948,19.606c6.644,5.283 16.478,9.526 29.108,12.136c15.333,3.168 35.451,4.208 58.389,3.486c84.679,-2.669 209.749,-29.039 264.744,-46.45c253.967,-80.403 407.446,-343.889 313.916,-608.059c-45.465,-128.411 -164.869,-210.164 -297.831,-242.533c-41.787,-10.173 -147.683,-8.442 -190.414,-2.281Zm1.158,278.087c0.742,-35.09 12.391,-126.51 17.233,-192.293c1.587,-21.559 2.349,-40.578 1.977,-54.599l-0,-0c45.861,-4.274 127.558,-4.95 162.161,3.474c121.998,29.699 232.579,103.449 274.294,221.27c86.98,245.67 -56.373,490.383 -292.555,565.155c-53.125,16.819 -173.933,42.334 -255.733,44.912c-19.871,0.626 -37.311,-0.069 -50.594,-2.813c-1.335,-0.276 -2.62,-0.561 -3.847,-0.864c32.657,-77.744 74.316,-187.603 88.541,-238.253c53.484,-5.605 120.28,-8.767 175.948,-27.695c64.864,-22.053 115.409,-64.361 119.617,-151.208c2.326,-48.001 -11.058,-81.072 -32.155,-104.361c-30.559,-33.731 -78.834,-46.725 -123.592,-52.66c-27.148,-3.601 -52.718,-4.707 -70.771,-7.539c-3.529,-0.554 -7.571,-1.644 -10.524,-2.526Z" style="fill:#7e4021;"/><ellipse cx="1779.3" cy="2104.76" rx="1761.98" ry="553.698" style="fill:#fff;"/><path d="M1779.3,1534.39c-539.077,0 -1022.15,76.101 -1346.83,195.736c-161.934,59.667 -284.795,130.459 -356.712,207.684c-49.252,52.887 -75.102,109.083 -75.102,166.945c0,57.862 25.851,114.058 75.103,166.946c71.918,77.224 194.778,148.016 356.711,207.683c324.683,119.635 807.755,195.736 1346.83,195.736c539.077,-0 1022.15,-76.101 1346.83,-195.736c161.934,-59.667 284.795,-130.46 356.712,-207.685c49.252,-52.887 75.102,-109.082 75.102,-166.944c-0,-57.863 -25.85,-114.059 -75.103,-166.946c-71.917,-77.225 -194.778,-148.016 -356.711,-207.683c-324.682,-119.635 -807.755,-195.736 -1346.83,-195.736Zm0,33.333c440.355,0 843.061,50.996 1151.35,135.298c215.22,58.853 384.163,133.688 486.83,219.055c68.557,57.005 107.132,118.169 107.132,182.679c0,64.51 -38.575,125.674 -107.133,182.68c-102.667,85.366 -271.61,160.201 -486.829,219.053c-308.289,84.302 -710.995,135.298 -1151.35,135.298c-440.354,0 -843.061,-50.996 -1151.35,-135.298c-215.219,-58.852 -384.163,-133.687 -486.829,-219.054c-68.558,-57.005 -107.133,-118.17 -107.133,-182.679c-0,-64.51 38.576,-125.675 107.134,-182.68c102.667,-85.366 271.609,-160.202 486.828,-219.054c308.289,-84.302 710.996,-135.298 1151.35,-135.298Z" style="fill:#7e4021;"/><path d="M3406.36,2105.55c-0,251.505 -726.48,455.695 -1621.3,455.695c-894.819,-0 -1621.3,-204.19 -1621.3,-455.695c0,-56.748 36.986,-111.087 104.546,-161.215" style="fill:#fff;"/><path d="M3389.69,2105.55c-0,55.015 -39.069,106.554 -107.385,154.758c-97.527,68.814 -253.899,128.987 -451.44,176.225c-281.883,67.406 -647.072,108.045 -1045.81,108.045c-398.734,0 -763.924,-40.639 -1045.81,-108.045c-197.541,-47.238 -353.913,-107.411 -451.44,-176.225c-68.317,-48.204 -107.385,-99.743 -107.385,-154.758c-0,-22.847 6.903,-45.209 19.877,-67.028c16.641,-27.984 43.046,-54.917 77.933,-80.803c7.387,-5.481 8.934,-15.929 3.453,-23.316c-5.481,-7.387 -15.928,-8.934 -23.316,-3.453c-38.96,28.908 -68.137,59.284 -86.721,90.536c-16.252,27.331 -24.56,55.444 -24.56,84.064c0,51.329 26.914,101.331 78.541,147.91c69.422,62.632 184.612,119.954 334.826,168.12c298.505,95.714 736.614,156.332 1224.6,156.332c487.983,-0 926.093,-60.618 1224.6,-156.332c150.215,-48.166 265.405,-105.488 334.826,-168.12c51.628,-46.579 78.541,-96.581 78.541,-147.91c0,-9.198 -7.468,-16.666 -16.666,-16.666c-9.199,-0 -16.667,7.468 -16.667,16.666Z" style="fill:#7e4021;"/><path d="M561.544,272.072c-26.517,39.279 -31.413,472.609 -29.305,517.527c33.513,714.1 203.713,731.132 631.191,1119.12c61.464,55.786 23.48,125.118 55.126,159.259c50.034,53.98 302.642,97.649 540.427,97.447c274.966,-0.232 530.043,-47.186 567.072,-104.715c26.819,-41.666 -17.695,-84.198 64.455,-152.503c155.277,-129.108 441.626,-323.014 541.681,-893.374c39.795,-226.85 56.319,-711.34 -3.335,-743.522c-115.672,-62.402 -2290.02,-113.734 -2367.31,0.759Z" style="fill:#e0f0ff;"/><path d="M547.731,262.747c-5.938,8.795 -12.051,34.991 -16.183,72.073c-14.849,133.249 -17.654,419.418 -15.958,455.561c13.558,288.879 49.659,464.881 115.258,597.298c98.102,198.028 262.764,298.656 521.381,533.384c32.72,29.697 32.717,64.079 34.312,93.09c1.434,26.106 4.631,48.802 19.791,65.157c16.279,17.563 51.913,34.983 101.371,49.55c107.538,31.673 283.079,53.376 451.294,53.234c194.512,-0.165 379.154,-23.655 485.282,-57.561c50.068,-15.996 83.433,-35.602 95.791,-54.801c12.52,-19.451 12.59,-38.879 13.259,-60.514c0.756,-24.471 4.46,-52.127 47.837,-88.194c156.983,-130.527 446.286,-326.681 547.441,-903.309c32.102,-183 49.005,-532.277 23.756,-681.28c-4.079,-24.067 -9.36,-43.234 -15.589,-56.265c-5.74,-12.008 -12.843,-19.661 -20.005,-23.525c-19.138,-10.324 -92.628,-21.329 -203.155,-30.411c-428.135,-35.182 -1427.92,-55.653 -1908.5,-20.82c-106.658,7.731 -188.085,18.323 -232.743,31.857c-24.004,7.274 -38.734,16.722 -44.643,25.476Zm27.627,18.651c1.138,-1.686 3.505,-2.889 6.441,-4.43c5.223,-2.743 12.017,-5.304 20.243,-7.797c43.256,-13.109 122.174,-23.023 225.485,-30.511c479.28,-34.739 1476.38,-14.292 1903.36,20.795c73.958,6.077 130.64,12.555 164.264,19.306c12.319,2.474 21.103,4.689 25.794,7.22c1.418,0.765 2.371,2.483 3.576,4.477c2.487,4.116 4.686,9.47 6.753,15.874c7.298,22.607 12.277,56.682 15.518,98.197c13.007,166.624 -3.348,449.716 -31.014,607.427c-98.956,564.091 -382.35,755.748 -535.92,883.437c-55.204,45.901 -58.882,81.653 -59.844,112.795c-0.477,15.446 0.968,29.617 -7.97,43.503c-3.381,5.252 -9.376,10.135 -17.274,15.108c-14.639,9.218 -35.244,17.87 -60.633,25.981c-103.905,33.197 -284.725,55.819 -475.166,55.981c-164.683,0.139 -336.567,-20.868 -441.847,-51.877c-41.754,-12.297 -72.599,-25.407 -86.342,-40.234c-5.645,-6.09 -7.747,-13.93 -9.066,-22.616c-1.792,-11.79 -1.881,-24.976 -2.918,-38.813c-2.419,-32.25 -9.478,-67.36 -44.163,-98.841c-254.357,-230.861 -417.428,-328.732 -513.915,-523.498c-64.127,-129.447 -98.576,-301.664 -111.83,-584.064c-1.468,-31.286 0.508,-251.941 10.858,-394.924c2.625,-36.267 5.772,-67.47 9.577,-89.126c2.01,-11.44 3.561,-19.705 6.036,-23.37Z" style="fill:#7e4021;"/><path d="M1723.93,1475.56c-1.356,0.861 19.778,37.281 29.222,48.767c28.082,34.155 78.718,75.101 125.002,49.917c57.24,-31.145 -1.956,-113.785 -31.975,-141.928c-7.115,-6.67 -21.209,-24.16 -31.166,-26.622c-1.45,0.044 -10.534,10.501 -22.246,22.658c-16.967,17.613 -46.031,38.656 -68.837,47.208Z" style="fill:#f8a5b0;"/><path d="M1729,1455.1c-22.132,9.579 -46.396,12.622 -71.192,4.64c-25.107,-8.083 -50.466,-24.135 -68.551,-43.455c-6.286,-6.715 -16.842,-7.064 -23.557,-0.777c-6.716,6.286 -7.064,16.842 -0.778,23.557c21.811,23.299 52.393,42.657 82.672,52.405c22.792,7.337 45.396,7.672 66.912,2.928c7.272,13.092 19.13,32.44 25.771,40.517c18.577,22.595 46.345,47.574 76.419,58.193c22.586,7.976 46.427,8.291 69.422,-4.221c30.626,-16.664 37.151,-44.016 30.404,-73.648c-8.289,-36.401 -39.214,-76.582 -58.945,-95.079c-5.196,-4.872 -14.019,-15.216 -22.374,-21.901c-5.609,-4.488 -11.307,-7.534 -16.189,-8.742c-1.475,-0.364 -2.993,-0.526 -4.512,-0.479c-2.028,0.062 -5.586,0.45 -9.678,3.302c-2.909,2.027 -12.422,12.371 -24.061,24.452c-12.861,13.351 -33.289,28.946 -51.763,38.308Zm88.731,-27.911c-6.305,7.507 -13.15,14.725 -20.456,21.484c1.093,1.156 2.179,2.318 3.257,3.487c6.98,7.571 13.662,15.51 20.1,23.545c5.753,7.178 4.595,17.676 -2.583,23.428c-7.178,5.752 -17.676,4.595 -23.428,-2.583c-5.959,-7.436 -12.137,-14.789 -18.597,-21.797c-1.639,-1.777 -3.299,-3.537 -4.972,-5.283c-7.46,5.004 -15.228,9.484 -23.245,13.318c-0.332,0.18 -0.667,0.36 -1.001,0.539c6.09,10.544 14.618,24.822 19.219,30.418c12.751,15.509 30.521,32.678 50.459,42.993c17.018,8.804 35.765,12.63 53.703,2.87c15.172,-8.256 17.176,-22.289 13.833,-36.969c-6.844,-30.059 -32.948,-62.886 -49.241,-78.161c-4.079,-3.824 -10.471,-11.261 -17.048,-17.289Z" style="fill:#7d3f21;"/><path d="M1370.58,1169.73c-7.807,3.558 -18.059,7.244 -29.218,10.933c-32.334,10.688 -71.81,21.227 -86.781,27.473c-6.31,2.633 -10.12,5.639 -11.761,7.491c-2.621,2.956 -3.761,5.977 -4.251,8.589c-11.63,61.888 12.393,201.369 58.586,286.727c21.744,40.18 49.049,68.24 78.268,75.257c30.952,7.433 60.703,-9.953 84.966,-49.146c30.103,-48.629 53.521,-132.535 66.79,-227.998c23.005,-165.504 15.752,-365.648 -34.27,-473.299c-24.104,-51.873 -58.503,-83.095 -101.809,-85.483c-44.783,-2.469 -79.601,31.191 -99.848,71.322c-47.181,93.519 -47.736,182.052 -41.993,247.684c0.451,5.15 3.266,9.799 7.62,12.585c12.758,8.164 67.483,46.938 100.27,75.114c4.669,4.013 9.575,8.817 13.431,12.751Z" style="fill:#7e4021;"/><path d="M2046.04,1169.73c-7.806,3.558 -18.058,7.244 -29.218,10.933c-32.334,10.688 -71.809,21.227 -86.781,27.473c-6.31,2.633 -10.119,5.639 -11.761,7.491c-2.62,2.956 -3.76,5.977 -4.251,8.589c-11.63,61.888 12.394,201.369 58.586,286.727c21.744,40.18 49.049,68.24 78.268,75.257c30.952,7.433 60.704,-9.953 84.966,-49.146c30.103,-48.629 53.522,-132.535 66.791,-227.998c23.004,-165.504 15.751,-365.648 -34.27,-473.299c-24.104,-51.873 -58.503,-83.095 -101.809,-85.483c-44.784,-2.469 -79.602,31.191 -99.848,71.322c-47.181,93.519 -47.737,182.052 -41.993,247.684c0.451,5.15 3.265,9.799 7.62,12.585c12.758,8.164 67.482,46.938 100.269,75.114c4.67,4.013 9.576,8.817 13.431,12.751Z" style="fill:#7e4021;"/><path d="M2351.01,633.315c58.067,-0.125 220.155,-24.353 285.315,-50.806c8.523,-3.46 12.634,-13.189 9.174,-21.712c-3.46,-8.523 -13.189,-12.633 -21.712,-9.173c-62.304,25.293 -217.327,48.239 -272.849,48.358c-9.198,0.02 -16.65,7.504 -16.631,16.702c0.02,9.199 7.504,16.651 16.703,16.631Z" style="fill:#7e4021;"/><path d="M2250.66,1940.76c-53.404,15.188 -208.746,35.859 -275.609,28.718c-9.146,-0.977 -17.365,5.656 -18.342,14.802c-0.977,9.147 5.656,17.366 14.802,18.343c69.928,7.468 232.415,-13.917 288.268,-29.802c8.847,-2.516 13.988,-11.742 11.471,-20.59c-2.516,-8.848 -11.742,-13.988 -20.59,-11.471Z" style="fill:#7e4021;"/><path d="M2717.31,553.618c34.544,-7.009 69.145,-24.821 102.038,-37.247c8.605,-3.251 12.952,-12.877 9.702,-21.482c-3.251,-8.605 -12.877,-12.952 -21.482,-9.701c-31.273,11.815 -64.043,29.099 -96.886,35.762c-9.015,1.829 -14.849,10.633 -13.02,19.648c1.829,9.015 10.633,14.849 19.648,13.02Z" style="fill:#7e4021;"/><path d="M1883.07,1963.95c-33.407,2.647 -69.672,-4.935 -102.99,-7.672c-9.168,-0.753 -17.223,6.078 -17.976,15.246c-0.753,9.168 6.079,17.222 15.246,17.975c35.044,2.879 73.215,10.464 108.353,7.681c9.17,-0.727 16.025,-8.761 15.298,-17.931c-0.726,-9.17 -8.761,-16.025 -17.931,-15.299Z" style="fill:#7e4021;"/><ellipse cx="1747.04" cy="283.964" rx="1191.15" ry="267.275" style="fill:#a8ccf1;"/><path d="M1747.04,0.022c-349.135,0 -663.536,33.711 -882.354,87.304c-110.917,27.166 -197.574,59.628 -252.484,95.168c-48.477,31.376 -72.979,66.412 -72.979,101.47c-0,35.058 24.502,70.094 72.98,101.47c54.91,35.539 141.567,68.001 252.483,95.167c218.818,53.593 533.219,87.304 882.354,87.304c349.135,-0 663.537,-33.711 882.354,-87.304c110.917,-27.166 197.574,-59.628 252.484,-95.167c48.477,-31.377 72.979,-66.412 72.979,-101.47c0,-35.059 -24.502,-70.095 -72.979,-101.471c-54.91,-35.539 -141.567,-68.001 -252.484,-95.167c-218.817,-53.593 -533.219,-87.304 -882.354,-87.304Zm0,33.334c345.991,-0 657.578,33.236 874.424,86.347c106.364,26.05 189.647,56.693 242.302,90.774c36.252,23.463 57.758,47.27 57.758,73.487c0,26.216 -21.506,50.023 -57.758,73.487c-52.656,34.08 -135.938,64.723 -242.302,90.774c-216.846,53.11 -528.433,86.347 -874.424,86.347c-345.99,-0 -657.577,-33.237 -874.424,-86.347c-106.364,-26.051 -189.646,-56.694 -242.302,-90.775c-36.252,-23.463 -57.758,-47.27 -57.758,-73.486c0,-26.217 21.506,-50.024 57.758,-73.487c52.656,-34.081 135.939,-64.724 242.302,-90.774c216.847,-53.111 528.434,-86.347 874.424,-86.347Z" style="fill:#7e4021;"/><path d="M1767.59,266.435c469.247,-0 864.154,40.755 977.163,155.665c21.189,21.546 -419.933,131.861 -977.163,131.861c-557.23,0 -966.028,-95.66 -988.898,-117.296c87.544,-123.979 495.331,-170.23 988.898,-170.23Z" style="fill:#c48464;"/><path d="M1767.59,249.768c-280.564,0 -533.528,14.961 -716.22,50.448c-86.681,16.838 -157.767,38.391 -208.953,64.938c-35.1,18.203 -61.149,38.968 -77.34,61.898c-4.78,6.77 -3.86,16.025 2.161,21.721c4.193,3.966 18.831,11.073 43.746,18.476c59.261,17.61 184.454,44.331 356.205,66.176c163.435,20.788 369.184,37.203 600.401,37.203c273.326,-0 518.826,-26.444 695.965,-56.008c129.924,-21.683 223.357,-45.17 264.64,-61.148c13.434,-5.2 22.178,-10.2 26.326,-13.934c6.295,-5.666 7.728,-11.709 7.626,-16.229c-0.104,-4.592 -1.686,-9.005 -5.511,-12.895c-49.144,-49.97 -149.446,-87.455 -285.777,-112.857c-182.373,-33.982 -430.294,-47.789 -703.269,-47.789Zm951.407,171.494c-5.671,2.302 -12.603,4.775 -20.724,7.409c-71.134,23.077 -228.551,56.692 -436.345,80.426c-144.491,16.504 -313.261,28.198 -494.338,28.198c-185.114,-0 -353.791,-10.593 -497.262,-25.516c-210.564,-21.902 -366.693,-53.093 -440.491,-73.784c-9.46,-2.652 -17.514,-5.115 -24.095,-7.361c13.23,-12.988 30.758,-24.862 52.021,-35.889c48.961,-25.393 117.051,-45.702 199.964,-61.807c181.067,-35.172 431.793,-49.836 709.863,-49.836c224.275,-0 431.508,9.314 598.866,31.676c164.18,21.937 289.484,55.427 352.541,106.484Z" style="fill:#7e4021;"/><path d="M982.048,1638.45c-30.613,-4.056 -74.358,-25.308 -100.188,-26.608c-72.555,-3.652 -144.868,20.747 -216.696,29.895c-71.684,9.13 -111.175,-17.502 -181.592,19.061c-157.456,81.759 -488.899,267.967 -226.014,499.025c48.536,42.66 88.292,94.022 149.953,98.418c42.951,3.063 70.876,56.94 145.545,45.477c43.211,-6.634 106.903,10.699 163.659,30.542c71.53,25.008 146.493,-15.965 166.012,-23.318c76.887,-28.962 303.943,-53.746 368.244,-92.698c57.044,-34.557 83.414,-83.339 139.765,-115.146c37.607,-21.227 29.439,-147.978 22.105,-179.124c-28.59,-121.414 -150.101,-233.309 -222.513,-266.33c-54.392,-24.803 -157.849,-12.512 -208.28,-19.194Z" style="fill:#d9905f;"/><path d="M984.237,1621.93c-17.526,-2.322 -39.517,-10.713 -59.667,-17.193c-15.656,-5.035 -30.381,-8.96 -41.872,-9.539c-73.527,-3.701 -146.849,20.737 -219.64,30.008c-34.792,4.431 -61.77,0.038 -88.595,-0.881c-30.163,-1.033 -60.142,1.73 -98.571,21.684c-63.975,33.218 -156.155,83.52 -226.736,146.815c-66.816,59.919 -113.779,131.7 -105.37,210.971c5.589,52.689 35.562,109.478 102.769,168.548c24.493,21.528 46.796,45.225 70.73,64.121c26.379,20.827 54.745,35.958 89.04,38.404c19.126,1.363 34.47,14.963 53.781,26.023c24.443,13.999 53.394,25.763 95.479,19.302c41.127,-6.313 101.61,10.916 155.629,29.802c76.348,26.692 156.555,-15.606 177.388,-23.454c45.645,-17.194 144.815,-32.735 230.562,-50.873c60.046,-12.702 113.71,-26.974 140.442,-43.167c29.736,-18.014 51.563,-39.633 73.213,-60.996c19.749,-19.486 39.315,-38.767 66.109,-53.891c14.474,-8.17 25.327,-27.592 30.845,-53.164c10.574,-48.999 4.7,-121.324 -0.709,-144.294c-29.799,-126.548 -156.347,-243.257 -231.821,-277.674c-23.368,-10.656 -55.106,-15.265 -88.321,-17.026c-45.903,-2.433 -94.741,0.442 -124.685,-3.526Zm-4.379,33.044c25.664,3.401 64.816,2.064 104.475,2.942c36.526,0.809 73.588,3.27 99.08,14.895c69.35,31.624 185.824,138.705 213.205,254.985c4.183,17.764 8.516,68.249 3.7,110.149c-1.515,13.18 -3.911,25.48 -7.707,35.417c-2.619,6.854 -5.414,12.597 -10.068,15.224c-29.557,16.683 -51.351,37.696 -73.136,59.192c-19.883,19.619 -39.763,39.669 -67.072,56.213c-24.709,14.968 -74.566,27.324 -130.07,39.065c-87.578,18.526 -188.793,34.73 -235.413,52.291c-18.206,6.858 -87.919,46.508 -154.637,23.182c-59.493,-20.8 -126.393,-38.237 -171.688,-31.283c-39.678,6.091 -64.308,-9.21 -85.996,-22.563c-18.783,-11.565 -36.067,-21.655 -55.835,-23.064c-27.366,-1.951 -49.707,-14.698 -70.756,-31.317c-23.493,-18.549 -45.336,-41.864 -69.379,-62.996c-58.98,-51.839 -86.723,-100.788 -91.628,-147.027c-7.332,-69.122 36.216,-130.392 94.477,-182.639c68.392,-61.331 157.852,-109.86 219.843,-142.048c38.77,-20.131 67.372,-19.106 98.221,-17.098c23.369,1.521 47.896,3.586 77.795,-0.222c70.866,-9.026 142.171,-33.386 213.753,-29.782c11.752,0.591 27.508,5.996 43.879,11.44c19.044,6.332 38.756,12.898 54.957,15.044Z" style="fill:#7e4021;"/><path d="M955.251,1724.01c-15.458,-2.919 -66.903,18.288 -68.786,18.384c-11.551,0.586 -23.292,0.41 -34.813,-0.75c-1.375,-0.139 -2.751,-0.267 -4.125,-0.416c-16.413,-1.78 -33.847,-3.663 -49.872,2.492c-16.146,6.201 -89.829,69.339 -79.73,95.512c25.273,65.496 218.096,-7.257 245.189,-41.764c28.167,-35.876 19.114,-68.364 -7.863,-73.458Z" style="fill:#9d5e3e;"/><path d="M883.497,1725.84c-10.03,0.429 -20.192,0.227 -30.176,-0.778c-1.332,-0.134 -2.665,-0.258 -3.997,-0.402c-18.982,-2.059 -39.111,-3.616 -57.645,3.502c-12.471,4.79 -56.565,39.804 -77.769,70.624c-12.131,17.633 -15.997,34.88 -11.534,46.447c9.795,25.384 37.675,37.657 74.807,37.049c49.25,-0.806 115.58,-22.878 157.733,-44.872c19.968,-10.419 34.709,-21.246 41.307,-29.649c17.753,-22.612 22.762,-44.498 20.097,-61.192c-3.266,-20.455 -17.143,-35.001 -37.977,-38.935c-5.711,-1.079 -15.068,-0.333 -25.654,2.184c-18.175,4.32 -41.376,13.224 -49.192,16.022Zm-149.821,107.883c0.169,-0.734 1.047,-4.38 2.153,-6.698c3.029,-6.344 8.041,-13.248 13.893,-20.193c18.465,-21.912 45.22,-44.216 53.908,-47.552c13.519,-5.192 28.254,-2.983 42.099,-1.481c1.417,0.154 2.836,0.286 4.253,0.428c12.353,1.244 24.941,1.441 37.327,0.813c0.695,-0.035 2.375,-0.147 4.821,-0.92c3.001,-0.948 15.235,-5.734 28.85,-10.217c8.287,-2.729 17.126,-5.368 24.413,-6.725c2.784,-0.518 5.137,-1.097 6.765,-0.79c6.144,1.16 10.282,5.405 11.245,11.437c1.565,9.799 -2.977,22.079 -13.398,35.352c-3.99,5.082 -12.646,10.806 -23.833,17.074c-30.513,17.096 -78.868,35.279 -121.444,42.054c-18.895,3.006 -36.565,3.842 -50.641,0.765c-9.468,-2.069 -17.194,-5.666 -20.411,-13.347Z" style="fill:#7e4021;"/><path d="M1154.11,1735.75c1.345,0.607 -2.842,-0.493 -4.269,-0.424c-3.838,0.184 -7.562,1.129 -11.031,3.26c-11.562,7.104 -22.365,20.956 -20.191,38.388c1.743,13.971 46.872,99.141 56.696,107.887c9.278,8.259 20.727,8.906 31.282,4.617c87.725,-35.647 7.778,-138.473 -52.487,-153.728Z" style="fill:#9d5e3e;"/><path d="M1153.9,1719.09c-1.746,-0.219 -3.928,-0.452 -4.858,-0.408c-6.605,0.317 -12.987,2.039 -18.959,5.708c-16.369,10.058 -31.082,29.972 -28.003,54.651c0.956,7.663 13.152,35.144 27.114,61.615c13.964,26.475 29.649,51.86 35.038,56.658c14.444,12.858 32.205,14.286 48.638,7.608c22.211,-9.025 35.521,-21.94 42.648,-36.201c10.696,-21.403 7.721,-47.025 -4.859,-71.395c-18.669,-36.166 -58.478,-69.127 -92.46,-77.729c-1.436,-0.364 -2.879,-0.529 -4.299,-0.507Zm-3.91,32.94l0.664,0.053c20.868,5.513 44.062,23.279 59.962,44.194c13.043,17.156 21.93,36.485 16.82,53.196c-3.113,10.183 -11.969,18.414 -27.114,24.568c-4.68,1.902 -9.812,2.038 -13.926,-1.624c-4.436,-3.949 -16.224,-25.519 -27.718,-47.312c-11.497,-21.796 -22.734,-43.881 -23.521,-50.191c-1.271,-10.188 5.619,-17.971 12.377,-22.123c0.772,-0.474 1.606,-0.677 2.456,-0.761Zm-10.842,-8.935c0.916,2.284 2.984,5.538 8.103,7.849c-3.66,-1.652 -6.451,-4.478 -8.103,-7.849Z" style="fill:#7e4021;"/><path d="M994.224,1940.03c0.573,2.684 -25.845,55.9 -0.821,93.467c28.843,43.302 90.36,-7.905 84.647,-70.851c-3.637,-40.072 -71.964,-67.93 -83.826,-22.616Z" style="fill:#9d5e3e;"/><path d="M977.824,1937.1c-2.422,7.244 -10.667,28.381 -11.755,52.062c-0.82,17.846 2.37,36.921 13.462,53.574c8.545,12.827 19.296,19.687 30.528,22.297c11.15,2.591 23.096,0.938 34.564,-4.668c28.191,-13.779 54.155,-53.724 50.025,-99.226c-2.388,-26.319 -25.197,-49.353 -50.179,-57.641c-16.44,-5.453 -33.355,-4.49 -46.148,3.499c-9.103,5.684 -16.573,14.877 -20.22,28.812c-0.112,0.427 -0.207,0.857 -0.277,1.291Zm32.526,7.042l-0.002,0.108c1.098,-4.195 2.887,-7.268 5.627,-8.979c4.976,-3.107 11.605,-2.256 17.999,-0.135c13.063,4.334 26.228,15.254 27.477,29.015c2.727,30.039 -12.856,57.171 -31.466,66.267c-4.132,2.02 -8.365,3.08 -12.383,2.146c-3.938,-0.915 -7.333,-3.81 -10.328,-8.307c-16.598,-24.917 -4.286,-58.147 0.414,-71.578c1.285,-3.673 2.171,-6.596 2.662,-8.537Z" style="fill:#7e4021;"/><path d="M775.723,2003.53c-11.037,9.988 -22.866,38.468 -23.77,52.895c-2.575,41.095 88.982,63.609 114.008,8.576c32.691,-71.891 -52.95,-95.217 -90.238,-61.471Z" style="fill:#9d5e3e;"/><path d="M764.539,1991.17c-13.426,12.151 -28.121,46.659 -29.22,64.21c-1.453,23.188 16.305,43.882 42.839,53.359c35.53,12.69 84.066,4.739 102.974,-36.842c12.663,-27.846 10.401,-50.084 1.374,-66.347c-10.713,-19.298 -32.01,-31.055 -55.32,-33.428c-22.379,-2.278 -46.193,4.157 -62.647,19.048l0,-0Zm22.368,24.714c9.648,-8.732 23.781,-11.936 36.904,-10.6c12.196,1.241 23.946,6.347 29.55,16.443c4.96,8.936 4.385,21.072 -2.572,36.372c-7.163,15.752 -22.242,22.146 -37.282,22.841c-12.278,0.568 -24.747,-2.519 -33.964,-8.277c-6.21,-3.879 -11.362,-8.729 -10.956,-15.199c0.708,-11.304 9.672,-33.753 18.32,-41.58l-0,0Z" style="fill:#7e4021;"/><path d="M543.803,1669.69c-28.336,-7.836 -207.226,34.71 -181.431,103.819c10.061,26.956 43.786,23.082 64.971,25.078c27.731,2.612 57.486,16.777 85.714,12.209c92.376,-14.946 103.746,-120.92 30.746,-141.106Z" style="fill:#9d5e3e;"/><path d="M548.245,1653.63c-7.172,-1.984 -22.371,-1.988 -41.583,1.119c-39.511,6.389 -98.26,24.705 -132.119,51.268c-26.006,20.401 -38.099,45.694 -27.786,73.324c7.279,19.5 22.579,28.531 40.428,32.366c12.993,2.791 27.439,2.426 38.595,3.477c13.174,1.241 26.809,5.32 40.522,8.452c16.563,3.783 33.22,6.238 49.417,3.617c43.584,-7.052 71.51,-31.807 84.264,-59.869c20.346,-44.765 3.204,-98.561 -51.738,-113.754Zm-8.884,32.127c38.395,10.618 44.785,53.079 21.922,81.296c-10.815,13.348 -27.905,23.576 -50.888,27.295c-12.033,1.947 -24.365,-0.398 -36.67,-3.208c-15.154,-3.461 -30.261,-7.771 -44.818,-9.143c-10.03,-0.944 -23.039,-0.371 -34.72,-2.88c-6.834,-1.468 -13.414,-3.966 -16.201,-11.432c-3.051,-8.174 -0.847,-15.648 4.105,-22.452c7.121,-9.785 18.998,-18.238 32.794,-25.73c32.271,-17.524 75.014,-28.973 103.271,-32.764c9.738,-1.307 17.32,-2.056 21.205,-0.982Z" style="fill:#7e4021;"/><path d="M352.358,1929.47c-6.732,10.405 -11.206,24.965 -8.891,39.363c0.643,4.003 55.668,65.62 61.869,70.239c18.09,13.479 42.645,3.845 60.747,1.409c13.064,-1.759 27.817,0.919 40.09,-4.249c11.964,-5.037 18.923,-17.137 22.139,-31.861c16.611,-76.049 -142.088,-127.245 -175.954,-74.901Z" style="fill:#9d5e3e;"/><path d="M338.365,1920.42c-8.727,13.488 -14.354,32.399 -11.354,51.063c0.214,1.328 0.723,3.592 2.326,6.389c0.991,1.73 3.537,5.27 7.285,9.879c15.335,18.857 53.551,60.812 58.756,64.69c10.308,7.68 21.993,10.414 34.07,10.322c13.433,-0.103 27.385,-4.216 38.858,-5.761c14.473,-1.948 30.738,0.32 44.335,-5.405c16.685,-7.025 27.469,-23.131 31.954,-43.666c4.325,-19.799 -0.231,-38.356 -11.038,-54.747c-14.171,-21.496 -39.853,-39.241 -68.417,-50.003c-28.166,-10.613 -58.92,-14.412 -83.09,-9.674c-19.236,3.772 -34.611,12.888 -43.685,26.913Zm21.21,42.645c-0.584,-9.077 2.526,-17.968 6.776,-24.538c4.476,-6.917 12.624,-10.449 22.112,-12.309c18.906,-3.707 42.892,-0.147 64.924,8.155c18.292,6.892 35.325,17.105 46.757,29.939c9.378,10.53 14.865,22.865 11.885,36.506c-1.951,8.934 -5.064,17.002 -12.323,20.058c-4.262,1.794 -8.997,1.967 -13.758,2.103c-7.445,0.213 -14.995,0.033 -22.088,0.988c-8.867,1.194 -19.309,4.185 -29.755,5.192c-6.558,0.632 -13.248,0.697 -18.812,-3.448c-5.11,-3.807 -45.133,-48.745 -55.718,-62.646Z" style="fill:#7e4021;"/><path d="M1087.63,2147.92c-9.946,-2.907 -20.042,-2.412 -30.23,-0.335c-10.946,2.231 -21.946,7.115 -32.943,6.495c-31.726,-1.787 -62.939,-8.959 -94.652,-3.117c-25.069,4.618 -46.621,20.726 -71.178,27.511c-7.421,2.051 -15.239,1.514 -23.089,0.889c-10.735,-0.856 -21.536,-2.07 -31.927,-1.18c-17.136,1.466 -34.634,6.896 -52.12,11.279c-14.23,3.566 -28.44,6.554 -42.439,3.913c-19.572,-3.692 -37.468,-13.012 -55.634,-21.71c-21.217,-10.16 -42.745,-19.567 -66.486,-21.954c-34.2,-3.439 -70.983,3.043 -107.585,7.425c-32.643,3.908 -65.166,6.242 -95.076,-5.114c-8.995,-3.416 -14.634,-10.007 -20.044,-17.089c-7.764,-10.163 -14.897,-21.434 -24.857,-31.103c-15.772,-15.31 -35.874,-22.035 -54.116,-30.996c-7.556,-3.712 -15.59,-7.811 -21.134,-15.563c-3.605,-5.04 -5.187,-11.043 -6.706,-17.134c-2.214,-8.884 -4.05,-18.021 -7.433,-26.49c-5.486,-13.736 -14.046,-24.23 -22.956,-34.435c-6.675,-7.645 -13.642,-15.044 -18.169,-24.892c-5.033,-10.95 -6.119,-24.611 -4.353,-37.028c2.941,-20.681 1.229,-20.315 5.579,-32.664c3.056,-8.676 -1.507,-18.201 -10.183,-21.257c-8.676,-3.056 -18.201,1.506 -21.257,10.182c-5.211,14.792 -3.617,14.273 -7.14,39.045c-2.657,18.682 -0.505,39.171 7.068,55.644c5.925,12.89 14.609,22.886 23.345,32.892c6.5,7.446 13.108,14.856 17.111,24.877c2.827,7.078 4.194,14.762 6.045,22.187c2.546,10.219 5.889,20.009 11.937,28.465c8.977,12.552 21.314,20.078 33.548,26.089c15.21,7.472 32.446,12.23 45.596,24.995c8.73,8.475 14.781,18.512 21.586,27.421c9.159,11.991 19.469,22.233 34.701,28.016c34.898,13.251 72.783,11.608 110.871,7.049c34.129,-4.086 68.397,-10.563 100.288,-7.356c19.85,1.996 37.684,10.358 55.424,18.852c20.792,9.956 41.449,20.175 63.85,24.402c18.685,3.525 37.728,0.425 56.723,-4.336c15.739,-3.945 31.435,-9.08 46.859,-10.4c8.607,-0.737 17.545,0.487 26.437,1.196c11.779,0.938 23.478,1.09 34.614,-1.987c23.629,-6.529 44.216,-22.416 68.338,-26.859c29.071,-5.355 57.656,1.977 86.739,3.616c9.965,0.562 20.023,-1.668 30.004,-4.288c9.067,-2.381 17.987,-6.05 26.757,-2.822c2.947,1.085 6.751,1.701 11.398,1.132c4.61,-0.565 11.186,-2.658 19.104,-6.315c32.71,-15.111 99,-61.276 140.335,-67.885c31.952,-5.107 55.76,-26.834 72.3,-53.466c22.922,-36.907 31.539,-82.719 32.05,-96.69c1.163,-31.777 -5.286,-64.321 -6.455,-93.922c-0.726,-18.376 6.268,-36.374 4.946,-54.783c-2.346,-32.652 -34.358,-74.595 -53.292,-94.427c-6.352,-6.654 -16.91,-6.898 -23.564,-0.546c-6.653,6.352 -6.898,16.91 -0.546,23.564c9.479,9.928 23.23,26.295 33.115,43.701c5.761,10.145 10.355,20.569 11.039,30.096c1.297,18.054 -5.718,35.689 -5.006,53.71c1.138,28.807 7.584,60.464 6.452,91.388c-0.425,11.624 -7.983,49.614 -27.055,80.322c-11.457,18.448 -27.114,34.6 -49.246,38.138c-38.633,6.176 -98.194,43.608 -135.818,63.83c-8.317,4.47 -18.385,8.592 -21.47,9.822Z" style="fill:#7e4021;"/><path d="M1161.44,1644.01c30.62,4.005 78.375,-5.2 103.661,0.229c71.027,15.251 134.562,57.534 201.575,84.961c66.879,27.372 111.916,11.868 170.47,65.411c130.931,119.726 402.886,385.373 89.157,540.518c-57.924,28.644 -109.619,67.967 -170.316,56.254c-42.281,-8.158 -83.199,36.655 -152.357,6.257c-40.021,-17.591 -106.029,-17.333 -165.987,-12.856c-75.565,5.643 -137.369,-53.337 -154.32,-65.491c-66.772,-47.875 -279.676,-130.58 -331.704,-184.848c-46.157,-48.144 -59.002,-102.088 -105.201,-147.396c-30.832,-30.237 9.863,-150.556 25.008,-178.742c59.041,-109.877 205.372,-186.51 283.863,-199.664c58.958,-9.88 155.709,28.769 206.151,35.367Z" style="fill:#d9905f;"/><path d="M1163.6,1627.48c-29.951,-3.918 -76.38,-19.335 -121.35,-28.865c-32.538,-6.896 -64.387,-10.658 -89.717,-6.413c-81.81,13.71 -234.254,93.689 -295.79,208.212c-11.17,20.787 -35.562,89.128 -38.031,139.194c-1.288,26.129 4.168,47.699 16.034,59.336c21.967,21.543 35.876,45.232 49.909,69.165c15.383,26.239 30.871,52.77 54.931,77.866c21.63,22.561 69.772,50.235 124.485,78.046c78.13,39.713 169.899,80.392 209.538,108.813c18.093,12.973 84.619,74.589 165.274,68.566c57.066,-4.261 119.947,-5.249 158.039,11.494c38.979,17.133 69.988,13.263 97.221,6.067c21.516,-5.685 39.857,-14.85 58.684,-11.217c33.76,6.514 65.076,-0.76 95.946,-14.05c28.009,-12.058 55.685,-29.174 84.916,-43.63c80.205,-39.663 123.855,-86.759 142.89,-136.206c28.64,-74.394 1.855,-155.884 -47.176,-231.054c-51.794,-79.406 -127.814,-151.852 -181.011,-200.496c-31.956,-29.221 -60.198,-39.648 -89.601,-46.457c-26.149,-6.056 -53.345,-8.795 -85.804,-22.08c-67.911,-27.794 -132.41,-70.376 -204.39,-85.831c-11.248,-2.416 -26.488,-2.435 -42.914,-1.624c-21.14,1.044 -44.553,3.457 -62.083,1.164Zm-4.323,33.052c16.204,2.119 36.944,0.879 56.978,-0.308c17.222,-1.021 33.84,-2.164 45.345,0.306c70.076,15.046 132.646,57.032 198.761,84.091c27.895,11.417 52.121,15.77 75.088,20.349c30.316,6.045 58.21,12.457 90.448,41.937c51.548,47.136 125.399,117.165 175.587,194.108c42.754,65.546 68.96,135.999 43.987,200.868c-16.705,43.393 -56.172,83.495 -126.558,118.302c-28.694,14.189 -55.827,31.056 -83.321,42.892c-24.632,10.605 -49.511,17.135 -76.45,11.937c-19.458,-3.754 -38.765,1.518 -59.902,7.827c-24.405,7.286 -52.156,15.69 -88.905,-0.463c-41.952,-18.44 -111.085,-18.912 -173.935,-14.219c-70.482,5.264 -127.557,-51.078 -143.368,-62.414c-40.486,-29.029 -134.058,-70.878 -213.857,-111.439c-50.574,-25.706 -95.534,-50.546 -115.527,-71.399c-22.097,-23.048 -36.11,-47.561 -50.238,-71.657c-15.479,-26.402 -31.092,-52.339 -55.324,-76.104c-3.815,-3.742 -5.029,-10.013 -5.784,-17.311c-1.095,-10.581 -0.226,-23.082 1.722,-36.205c6.192,-41.719 23.444,-89.363 32.082,-105.438c56.544,-105.232 196.764,-178.518 271.936,-191.115c27.632,-4.631 64.068,2.584 99.558,11.256c38.535,9.417 76.008,20.841 101.677,24.199l-0,-0Z" style="fill:#7e4021;"/><path d="M1167.94,1715.43c15.686,1.181 59.889,34.981 61.684,35.561c11.006,3.555 22.392,6.424 33.821,8.285c1.364,0.222 2.725,0.455 4.091,0.667c16.315,2.528 33.642,5.222 47.528,15.314c13.991,10.169 68.822,90.226 52.293,112.894c-41.363,56.723 -208.787,-63.458 -226.025,-103.801c-17.922,-41.944 -0.769,-70.981 26.608,-68.92Z" style="fill:#9d5e3e;"/><path d="M1236.78,1735.77c-6.825,-4.726 -26.931,-19.331 -43.369,-28.208c-9.574,-5.171 -18.42,-8.313 -24.215,-8.749c-21.142,-1.592 -38.311,8.867 -46.759,27.779c-6.896,15.435 -7.722,37.872 3.574,64.309c4.198,9.824 15.634,24.097 32.226,39.329c35.023,32.155 93.381,70.642 140.744,84.167c35.709,10.198 65.816,5.56 81.847,-16.424c7.305,-10.018 8.035,-27.678 0.88,-47.851c-12.504,-35.257 -46.033,-80.49 -56.84,-88.345c-16.06,-11.672 -35.906,-15.379 -54.774,-18.302c-1.324,-0.206 -2.643,-0.431 -3.965,-0.647c-9.904,-1.613 -19.771,-4.048 -29.349,-7.058Zm116.794,142.983c-5.095,6.587 -13.489,8.062 -23.17,7.61c-14.393,-0.671 -31.245,-6.052 -48.717,-13.846c-39.373,-17.563 -81.374,-47.643 -106.422,-72.053c-9.184,-8.95 -16.063,-16.719 -18.602,-22.661c-6.63,-15.517 -7.839,-28.555 -3.792,-37.615c2.492,-5.577 7.588,-8.606 13.822,-8.136c1.652,0.124 3.775,1.292 6.33,2.513c6.688,3.197 14.542,8.034 21.841,12.815c11.991,7.854 22.569,15.643 25.223,17.336c2.162,1.379 3.756,1.922 4.418,2.136c11.801,3.812 24.011,6.88 36.265,8.876c1.407,0.229 2.811,0.469 4.219,0.687c13.763,2.132 28.567,3.812 40.281,12.326c7.529,5.472 27.6,33.94 39.765,59.885c3.855,8.222 6.909,16.188 8.192,23.101c0.469,2.525 0.373,6.273 0.347,7.026Z" style="fill:#7e4021;"/><path d="M970.057,1693.46c-1.456,0.238 2.873,0.26 4.233,0.695c3.659,1.171 7.012,3.048 9.812,6.005c9.329,9.854 16.179,26.03 9.567,42.305c-5.3,13.044 -70.934,83.632 -82.688,89.537c-11.099,5.577 -22.325,3.238 -31.411,-3.637c-75.51,-57.137 28.327,-135.768 90.487,-134.905Z" style="fill:#9d5e3e;"/><path d="M974.568,1677.41c-1.365,-0.388 -2.8,-0.602 -4.28,-0.622c-35.05,-0.486 -82.034,21.048 -109.427,51.15c-18.459,20.284 -27.965,44.263 -23.172,67.705c3.193,15.62 12.707,31.54 31.825,46.006c14.144,10.703 31.67,13.921 48.95,5.239c6.447,-3.24 28.168,-23.7 48.508,-45.659c20.338,-21.956 39.231,-45.344 42.138,-52.498c9.361,-23.041 0.303,-46.085 -12.905,-60.036c-4.819,-5.09 -10.537,-8.405 -16.836,-10.421c-0.895,-0.286 -3.057,-0.624 -4.801,-0.864Zm-5.73,32.704l1.131,0.179c0.744,0.299 1.444,0.7 2.029,1.318c5.453,5.76 10.094,15.061 6.23,24.573c-2.394,5.891 -18.964,24.315 -35.71,42.393c-16.743,18.075 -33.713,35.859 -39.019,38.526c-4.921,2.472 -9.844,1.012 -13.872,-2.036c-11.09,-8.391 -17.428,-17.04 -19.28,-26.101c-2.777,-13.584 4.471,-26.839 15.167,-38.593c20.931,-23.001 56.332,-40.21 83.324,-40.259Zm5.217,-0.485l-0.464,0.111l0.08,-0.016l0.384,-0.095Zm0.707,-0.191l-0.382,0.11l0.11,-0.027l0.272,-0.083Z" style="fill:#7e4021;"/><path d="M1071.62,1932.16c-1.248,2.444 10.496,60.685 -23.398,90.495c-39.068,34.361 -85.235,-31.022 -63.425,-90.345c13.884,-37.765 87.093,-46.99 86.823,-0.15Z" style="fill:#9d5e3e;"/><path d="M1088.22,1933.57c0.043,-0.438 0.064,-0.878 0.066,-1.319c0.083,-14.404 -4.752,-25.217 -12.074,-33.064c-10.29,-11.027 -26.379,-16.336 -43.67,-15.323c-26.276,1.539 -54.269,17.886 -63.388,42.689c-15.766,42.883 -1.025,88.187 22.639,108.793c9.627,8.383 20.737,13.071 32.178,13.454c11.525,0.387 23.686,-3.457 35.258,-13.636c15.025,-13.214 23.043,-30.814 26.87,-48.264c5.078,-23.156 2.585,-45.706 2.121,-53.33Zm-33.241,-1.617c-0.028,2.002 0.071,5.055 0.362,8.936c1.064,14.189 4.355,49.473 -18.126,69.245c-4.058,3.569 -8.086,5.487 -12.126,5.352c-4.123,-0.138 -7.937,-2.258 -11.406,-5.278c-15.622,-13.603 -23.651,-43.844 -13.243,-72.153c4.768,-12.97 20.311,-20.11 34.051,-20.915c6.725,-0.394 13.348,0.5 17.35,4.789c2.205,2.362 3.137,5.793 3.112,10.129l0.026,-0.105Z" style="fill:#7e4021;"/><path d="M1264.55,2025.88c8.076,12.505 12.131,43.075 9.27,57.245c-8.149,40.362 -102.413,38.412 -112.342,-21.224c-12.971,-77.901 75.789,-78.268 103.072,-36.021Z" style="fill:#9d5e3e;"/><path d="M1278.55,2016.84c-12.039,-18.642 -33.376,-31.021 -55.582,-34.613c-23.13,-3.741 -46.745,2.103 -62.086,17.971c-12.93,13.372 -20.87,34.267 -15.846,64.442c7.502,45.058 52.327,65.3 89.93,62.238c28.083,-2.286 50.592,-17.679 55.19,-40.453c3.481,-17.238 -1.782,-54.373 -11.606,-69.585Zm-28.002,18.083c6.328,9.798 9.176,33.802 6.934,44.905c-0.727,3.604 -3.291,6.226 -6.486,8.263c-5.072,3.236 -11.679,4.989 -18.735,5.564c-22.131,1.802 -49.929,-7.972 -54.344,-34.49c-2.761,-16.579 -0.175,-28.45 6.929,-35.798c8.027,-8.302 20.697,-10.192 32.799,-8.234c13.022,2.106 25.844,8.859 32.903,19.79Z" style="fill:#7e4021;"/><path d="M1522.41,1781.26c27.295,-10.922 209.794,11.571 191.804,83.11c-7.017,27.903 -40.964,27.784 -61.799,32.112c-27.271,5.664 -55.276,23.034 -83.836,21.617c-93.463,-4.634 -116.487,-108.7 -46.169,-136.839Z" style="fill:#9d5e3e;"/><path d="M1516.22,1765.79c-52.923,21.178 -64.008,76.541 -38.835,118.779c15.781,26.479 46.274,47.993 90.371,50.18c16.387,0.812 32.67,-3.47 48.713,-9.062c13.282,-4.631 26.382,-10.193 39.338,-12.884c10.971,-2.279 25.369,-3.514 37.973,-7.726c17.316,-5.786 31.523,-16.454 36.599,-36.64c7.193,-28.601 -7.624,-52.401 -35.727,-69.8c-36.59,-22.653 -97.005,-34.357 -136.981,-36.336c-19.437,-0.962 -34.542,0.724 -41.451,3.489l0,-0Zm12.384,30.947c3.743,-1.498 11.361,-1.592 21.184,-1.37c28.503,0.642 72.25,7.291 106.262,21.137c14.54,5.919 27.279,13.007 35.439,21.944c5.674,6.214 8.691,13.399 6.563,21.86c-1.943,7.728 -8.206,10.939 -14.836,13.154c-11.332,3.787 -24.324,4.655 -34.188,6.704c-14.316,2.974 -28.854,8.928 -43.532,14.045c-11.918,4.155 -23.916,7.849 -36.09,7.245c-23.253,-1.153 -41.37,-9.428 -53.595,-21.497c-25.845,-25.515 -24.191,-68.422 12.793,-83.222l0,-0Z" style="fill:#7e4021;"/><path d="M1515.67,2139.79c-6.774,-10.378 -11.306,-24.92 -9.049,-39.328c0.627,-4.004 55.404,-65.842 61.585,-70.487c18.037,-13.551 42.63,-4.017 60.741,-1.653c13.072,1.706 27.814,-1.031 40.108,4.087c11.984,4.989 18.991,17.061 22.267,31.772c16.916,75.982 -141.575,127.816 -175.652,75.609Z" style="fill:#9d5e3e;"/><path d="M1501.72,2148.9c9.13,13.988 24.542,23.043 43.793,26.737c24.189,4.641 54.928,0.718 83.051,-10.008c28.52,-10.878 54.131,-28.726 68.215,-50.278c10.741,-16.435 15.221,-35.01 10.817,-54.792c-4.568,-20.516 -15.417,-36.579 -32.129,-43.537c-13.621,-5.67 -29.876,-3.337 -44.357,-5.226c-11.479,-1.499 -25.447,-5.556 -38.881,-5.604c-12.077,-0.044 -23.751,2.737 -34.028,10.458c-5.189,3.899 -43.236,46.008 -58.495,64.927c-3.729,4.624 -6.261,8.174 -7.245,9.907c-1.591,2.804 -2.092,5.07 -2.3,6.4c-2.925,18.675 2.778,37.563 11.559,51.016l-0,-0Zm21.039,-42.73c10.528,-13.944 50.37,-59.042 55.465,-62.87c5.547,-4.168 12.237,-4.129 18.798,-3.523c10.45,0.965 20.903,3.914 29.775,5.072c7.097,0.926 14.646,0.715 22.092,0.898c4.761,0.118 9.497,0.271 13.766,2.048c7.271,3.028 10.417,11.082 12.404,20.008c3.035,13.629 -2.402,25.986 -11.738,36.554c-11.38,12.88 -28.372,23.161 -46.636,30.127c-21.999,8.39 -45.97,12.047 -64.891,8.416c-9.495,-1.822 -17.658,-5.321 -22.161,-12.22l0,0c-4.277,-6.553 -7.422,-15.431 -6.874,-24.51Z" style="fill:#7e4021;"/><path d="M927.596,2108.79c-2.662,-1.987 -11.32,-8.573 -18.197,-15.044c-31.107,-29.27 -78.951,-80.843 -114.669,-96.807c-20.462,-9.146 -31.405,-28.8 -37.697,-49.584c-10.475,-34.599 -7.942,-73.25 -5.345,-84.588c6.911,-30.163 21.33,-59.074 29.885,-86.604c5.352,-17.222 3.141,-36.073 9.066,-53.175c3.127,-9.025 10.262,-17.906 18.453,-26.214c14.053,-14.255 31.572,-26.505 43.296,-33.642c7.858,-4.782 10.354,-15.044 5.572,-22.902c-4.783,-7.857 -15.045,-10.354 -22.902,-5.571c-23.422,14.256 -65.199,46.484 -75.915,77.417c-6.042,17.439 -3.945,36.634 -9.402,54.196c-8.791,28.29 -23.443,58.055 -30.544,89.051c-3.122,13.627 -6.656,60.109 5.932,101.69c9.084,30.006 26.458,57.154 55.999,70.358c38.217,17.081 90.299,78.83 117.984,101.892c6.701,5.583 12.512,9.306 16.818,11.045c4.341,1.752 8.175,2.142 11.302,1.857c9.307,-0.848 16.974,5.004 25.115,9.65c8.963,5.114 18.101,9.871 27.872,11.908c28.516,5.944 58.025,6.26 84.719,18.957c22.15,10.535 37.924,31.209 59.059,43.631c9.959,5.854 21.299,8.735 32.919,10.878c8.773,1.617 17.723,2.747 25.846,5.687c14.557,5.267 28.389,14.29 42.571,22.174c17.116,9.514 34.707,17.438 53.668,18.869c22.732,1.715 45.329,-2.809 67.989,-7.045c19.335,-3.613 38.725,-7.075 58.416,-3.865c31.634,5.157 63.058,20.282 94.967,33.062c35.61,14.262 71.779,25.654 108.917,21.887c16.21,-1.644 28.819,-8.869 40.77,-18.081c8.879,-6.843 17.321,-14.972 27.947,-20.899c16.006,-8.927 33.887,-9.062 50.512,-12.343c13.373,-2.639 27.237,-6.716 39.157,-16.516c8.031,-6.603 13.793,-15.195 18.898,-24.406c3.709,-6.693 7.019,-13.761 11.581,-19.866c6.46,-8.644 14.761,-14.091 22.967,-19.601c11.028,-7.404 22.003,-14.812 31.063,-25.729c11.578,-13.952 18.96,-33.186 21.228,-51.918c3.009,-24.841 4.414,-23.927 3.209,-39.563c-0.706,-9.172 -8.726,-16.044 -17.898,-15.337c-9.171,0.706 -16.043,8.726 -15.337,17.898c1.006,13.053 -0.553,12.256 -3.065,32.994c-1.508,12.451 -6.093,25.366 -13.788,34.639c-6.922,8.341 -15.567,13.685 -23.992,19.342c-11.249,7.551 -22.233,15.472 -31.088,27.32c-5.459,7.305 -9.597,15.656 -14.035,23.663c-3.043,5.491 -6.125,10.88 -10.912,14.816c-7.362,6.052 -16.183,7.932 -24.442,9.562c-19.939,3.935 -41.097,5.227 -60.294,15.934c-12.124,6.761 -21.931,15.802 -32.06,23.61c-7.059,5.44 -14.211,10.347 -23.785,11.318c-31.829,3.228 -62.64,-7.444 -93.159,-19.668c-34.221,-13.705 -68.073,-29.487 -101.998,-35.017c-23.55,-3.839 -46.779,-0.323 -69.903,3.999c-19.798,3.7 -39.496,8.07 -59.357,6.571c-14.205,-1.072 -27.157,-7.636 -39.98,-14.764c-15.756,-8.759 -31.252,-18.533 -47.425,-24.385c-9.806,-3.548 -20.553,-5.171 -31.144,-7.123c-7.745,-1.428 -15.435,-2.933 -22.073,-6.834c-21.964,-12.91 -38.612,-34.048 -61.631,-44.996c-29.121,-13.851 -61.127,-15.002 -92.234,-21.487c-10.783,-2.247 -20.144,-9.812 -30.139,-14.8c-9.304,-4.643 -18.928,-7.734 -29.287,-7.501Z" style="fill:#7e4021;"/></g></svg>