<?xml version="1.0" encoding="UTF-8" standalone="no"?><!DOCTYPE svg PUBLIC "-//W3C//DTD SVG 1.1//EN" "http://www.w3.org/Graphics/SVG/1.1/DTD/svg11.dtd"><svg width="100%" height="100%" viewBox="0 0 3322 2503" version="1.1" xmlns="http://www.w3.org/2000/svg" xmlns:xlink="http://www.w3.org/1999/xlink" xml:space="preserve" xmlns:serif="http://www.serif.com/" style="fill-rule:evenodd;clip-rule:evenodd;stroke-linejoin:round;stroke-miterlimit:2;"><g id="Cup-Yellow-Smiley"><path d="M493.335,368.485c-66.609,108.351 -50.889,397.796 -42.493,530.028c26.445,416.516 268.007,783.271 670.781,971.232c545.349,254.496 1353.94,186.492 1806.73,-229.389c188.363,-173.006 260.79,-393.98 323.408,-638.191c22.599,-88.133 90.276,-599.248 26.027,-679.559c-59.43,-74.287 -465.437,-302.588 -1428.69,-305.302c-761.678,-2.145 -1245.03,171.067 -1355.76,351.181Z" style="fill:#ffce7b;"/><path d="M479.137,359.756c-27.683,45.031 -42.3,120.019 -48.572,202.764c-9.116,120.284 -1.429,257.161 3.643,337.049c26.827,422.517 271.79,794.61 680.367,985.279c550.899,257.086 1367.65,187.896 1825.05,-232.217c190.852,-175.294 264.832,-398.887 328.278,-646.326c15.948,-62.199 54.254,-333.349 53.531,-518.219c-0.189,-48.449 -3.087,-91.077 -9.586,-122.779c-4.881,-23.815 -12.123,-41.955 -21.049,-53.113c-18.576,-23.22 -69.264,-61.481 -158.764,-102.906c-201.539,-93.282 -604.908,-206.741 -1282.9,-208.65c-459.588,-1.295 -818.382,61.115 -1055.96,150.198c-162.12,60.79 -268.454,134.76 -314.044,208.92Zm28.396,17.457c42.991,-69.931 144.477,-137.843 297.351,-195.165c234.91,-88.084 589.737,-149.357 1044.16,-148.077c670.572,1.889 1069.66,113.305 1268.99,205.567c82.303,38.094 129.655,72.127 146.737,93.48c6.494,8.118 10.872,21.656 14.424,38.982c6.15,30.005 8.728,70.362 8.907,116.216c0.711,181.864 -36.798,448.622 -52.487,509.81c-61.79,240.982 -132.665,459.336 -318.538,630.055c-448.185,411.649 -1248.61,478.468 -1788.41,226.561c-396.972,-185.253 -635.132,-546.669 -661.196,-957.185c-5.003,-78.791 -12.663,-213.786 -3.672,-332.418c5.801,-76.534 18.126,-146.175 43.73,-187.826Z" style="fill:#7d3f21;"/><path d="M1596.37,913.663c-15.509,0.14 -31.118,9.61 -43.831,29.012c-22.008,33.586 -37.478,100.816 -36.776,178.275c0.701,77.46 17.386,144.399 39.998,177.581c13.062,19.168 28.84,28.353 44.349,28.213c15.509,-0.14 31.118,-9.61 43.831,-29.012c22.008,-33.586 37.478,-100.816 36.776,-178.275c-0.701,-77.46 -17.386,-144.399 -39.998,-177.581c-13.062,-19.168 -28.84,-28.354 -44.349,-28.213l-0,-0Zm506.924,-4.59c-15.509,0.14 -31.118,9.61 -43.831,29.012c-22.008,33.586 -37.478,100.816 -36.776,178.275c0.701,77.46 17.386,144.399 39.998,177.581c13.062,19.168 28.84,28.354 44.349,28.213c15.509,-0.14 31.118,-9.61 43.831,-29.012c22.008,-33.586 37.478,-100.816 36.776,-178.275c-0.701,-77.46 -17.386,-144.399 -39.998,-177.581c-13.062,-19.168 -28.84,-28.353 -44.349,-28.213Z" style="fill:#7e4021;"/><path d="M1243.67,1375.28c3.556,1.133 12.457,3.812 13.424,4.104c23.836,7.217 37.934,19.294 44.409,25.167c36.756,159.218 129.972,269.154 248.597,337.396c0.328,0.241 0.672,0.483 1.031,0.724c134.026,95.101 273.917,98.573 346.398,91.755c131.82,-12.399 219.861,-73.911 244.394,-96.673c94.834,-58.204 179.978,-147.993 243.309,-273.631c5.486,-3.779 18.386,-11.832 42.354,-11.989c0.802,-0.006 7.109,0.198 9.511,0.31c9.188,0.43 16.997,-6.68 17.428,-15.869c0.43,-9.189 -6.681,-16.998 -15.869,-17.428c-19.734,-0.924 -38.175,-5.711 -50.455,-21.986c-4.898,-6.493 -9,-13.303 -12.431,-20.671c-0.742,-1.594 -7.154,-15.59 -7.432,-15.914c-3.707,-4.313 -7.95,-5.5 -11.327,-5.775c-4.932,-0.403 -10.415,0.749 -14.836,6.781c-0.853,1.164 -2.511,3.453 -3.126,7.745c-0.49,3.418 3.487,14.863 3.853,15.634c12.482,31.959 14.377,51.91 14.475,60.332c-59.298,119.102 -139.094,204.71 -228.126,260.646c-2.033,0.626 -4.437,1.586 -7.129,3.049c-29.143,15.838 -199.801,111.621 -397.505,64.946c-30.669,-7.24 -123.296,-44.028 -150.526,-56.795c-115.756,-64.385 -206.886,-170.125 -241.265,-325.214c1.113,-6.523 5.69,-25.849 22.904,-47.193c0.226,-0.279 8.038,-9.852 8.777,-13.272c1.325,-6.128 -0.587,-9.698 -1.365,-11.255c-2.02,-4.039 -4.989,-6.404 -8.223,-7.825c-3.738,-1.642 -9.438,-2.932 -15.953,1.369c-0.587,0.387 -9.333,9.631 -11.379,11.653c-5.779,5.715 -11.994,10.673 -18.845,15.056c-17.174,10.988 -36.128,9.061 -54.951,3.063c-8.764,-2.793 -18.147,2.055 -20.94,10.819c-2.793,8.765 2.055,18.148 10.819,20.941Z" style="fill:#7e4021;"/><path d="M276.823,2296.5c10.364,-76.435 60.466,-392.482 81.353,-430.418c18.673,-33.913 207.309,-126.304 283.823,-156.909c7.89,-3.156 190.04,165.933 200.675,202.563c11.869,40.883 -55.912,370.6 -68.585,418.684c-51.961,197.156 -184.969,161.707 -310.263,134.849c-114.076,-24.452 -202.378,-55.381 -187.003,-168.769Z" style="fill:#fff;"/><path d="M260.307,2294.26c-16.725,123.35 75.926,160.704 200.025,187.305c78.931,16.919 160.812,35.515 225.444,4.229c44.392,-21.489 81.947,-65.821 104.43,-151.128c8.922,-33.852 45.023,-206.498 61.774,-321.144c7.64,-52.288 10.511,-93.306 6.699,-106.434c-2.885,-9.937 -16.214,-29.014 -36.031,-51.44c-41.405,-46.854 -110.908,-112.544 -147.051,-142.9c-11.827,-9.934 -20.722,-16.314 -24.669,-18.194c-7.111,-3.388 -12.482,-1.912 -15.119,-0.857c-54.145,21.658 -163.827,73.928 -231.24,115.096c-32.044,19.569 -54.712,37.842 -60.993,49.249c-6.584,11.959 -16.402,50.095 -26.556,99.968c-22.621,111.104 -49.435,282.572 -56.713,336.25l-0,-0Zm380.571,-566.636c25.809,19.116 102.65,90.378 150.139,142.674c18.686,20.578 33.105,37.314 35.651,46.084c1.124,3.872 0.929,11.038 0.426,20.697c-0.935,17.971 -3.904,42.93 -8.097,71.624c-16.559,113.331 -52.204,284.004 -61.024,317.468c-19.087,72.423 -49.033,111.376 -86.721,129.62c-28.154,13.628 -60.11,15.677 -93.572,12.849c-35.904,-3.034 -73.468,-11.76 -110.361,-19.668c-44.026,-9.437 -84.127,-19.701 -115.385,-35.83c-21.177,-10.927 -38.123,-24.482 -48.535,-42.981c-10.417,-18.507 -14.083,-41.762 -10.061,-71.422l0,-0.001c7.231,-53.331 33.871,-223.692 56.345,-334.078c9.172,-45.053 17.145,-79.737 23.093,-90.54c1.548,-2.811 5.062,-5.938 9.654,-9.768c9.487,-7.915 23.198,-17.148 39.512,-27.111c63.047,-38.502 163.888,-86.917 218.936,-109.617Z" style="fill:#7d3f21;"/><path d="M717.369,2130.34c18.909,-46.476 21.805,-105.415 -35.571,-135.219c-50.469,-26.216 -80.467,23.736 -98.368,19.541c-14.625,-3.427 -24.029,-34.385 -56.33,-47.751c-38.894,-16.095 -82.994,9.543 -104.168,44.743c-49.246,81.867 8.783,163.952 38.856,213.133c11.073,18.109 40.016,54.861 50.514,57.948c16.5,4.853 67.684,-22.119 85.381,-32.582c46.452,-27.464 98.753,-68.363 119.686,-119.813Z" style="fill:#fed7dc;"/><path d="M586.52,1997.41c-0.971,-0.887 -2.24,-2.094 -3.108,-3.077c-2.713,-3.074 -5.546,-6.694 -8.726,-10.502c-9.69,-11.602 -22.168,-24.438 -41.213,-32.319c-46.331,-19.173 -99.6,9.621 -124.823,51.552c-27.486,45.694 -25.389,91.418 -11.87,132.612c12.549,38.238 35.208,72.326 50.789,97.806c8.241,13.478 25.794,36.666 39.411,50.493c8.169,8.295 15.932,13.372 20.619,14.751c7.077,2.081 18.746,1.219 32.118,-3.024c23.004,-7.299 53.39,-23.481 66.449,-31.202c49.365,-29.186 104.394,-73.201 126.641,-127.878c21.934,-53.91 23.228,-121.718 -43.326,-156.29c-37.364,-19.409 -65.72,-5.903 -87.13,7.625c-5.392,3.406 -12.683,7.64 -15.831,9.453Zm-69.085,269.147c-1.457,-1.19 -4.514,-3.746 -6.706,-5.971c-11.998,-12.183 -27.461,-32.618 -34.722,-44.493c-14.492,-23.7 -35.883,-55.244 -47.556,-90.811c-10.702,-32.611 -12.996,-68.863 8.763,-105.036c17.131,-28.479 52.045,-50.956 83.513,-37.934c19.71,8.156 29.14,24.389 37.697,34.082c6.931,7.851 13.974,12.802 21.203,14.496c8.661,2.029 19.846,-1.496 32.383,-9.51c14.372,-9.188 34.113,-26.008 62.105,-11.468c48.212,25.044 43.705,75.095 27.816,114.148c-19.62,48.223 -69.192,86.006 -112.73,111.747c-10.126,5.987 -31.741,17.656 -50.817,25.022c-5.775,2.23 -11.28,4.063 -16.069,5.092c-1.542,0.332 -3.672,0.54 -4.88,0.636Z" style="fill:#7e4021;"/><path d="M712.255,488.64c-0.364,1.035 263.479,-209.55 1191.95,-206.57c507.744,1.629 1139.53,172.241 1114.95,205.1c-10.975,7.503 -326.562,135.74 -648.358,161.122c-607.377,47.906 -1273.93,23.271 -1658.55,-159.652Z" style="fill:#c48464;"/><path d="M703.184,474.665c0.8,-0.576 4.035,-2.877 8.149,-5.575c51.236,-33.598 350.676,-206.39 1192.93,-203.687c408.383,1.311 896.56,111.446 1062.85,172.324c24.728,9.053 42.692,17.223 52.846,23.769c6.872,4.43 11.084,8.846 13.244,12.358c5.424,8.819 4.297,16.62 -0.698,23.298c-1.097,1.467 -2.429,2.743 -3.942,3.777c-11.115,7.599 -330.54,138.272 -656.453,163.978c-609.222,48.052 -1277.61,22.756 -1664.61,-160.086l-0.888,-0.362c-0.317,-0.158 -0.635,-0.315 -0.952,-0.473l-0.264,-0.154l-0.301,-0.141l0.034,-0.014c-5.563,-3.279 -8.678,-9.613 -8.975,-10.72c-0.65,-2.427 -1.065,-5.755 0.38,-9.856c1.232,-3.496 3.583,-6.453 6.648,-8.436Zm2284.81,8.335c-77.233,31.335 -345.682,127.158 -618.506,148.677c-589.928,46.53 -1236.04,24.979 -1622.36,-145.399c84.903,-48.759 396.004,-189.984 1157.03,-187.541c404.009,1.296 886.989,110.066 1051.5,170.292c11.929,4.368 23.426,9.6 32.341,13.971Zm-2270.16,-10.062c0.533,0.188 1.059,0.406 1.575,0.651l0.942,0.442c-0.777,-0.419 -1.614,-0.787 -2.517,-1.093Zm-0.473,-0.156l0.387,0.125l-0.139,-0.05l-0.248,-0.075Zm-0.706,-0.211l0.056,0.015l-0.05,-0.015l-0.006,0Z" style="fill:#7d3f21;"/><path d="M480.801,395.826c60.766,31.53 205.424,108.358 268.934,133.999c195.425,78.902 395.212,117.52 604.96,132.836c638.126,46.597 1349.13,62.681 1937.46,-293.244c7.87,-4.761 10.394,-15.017 5.633,-22.887c-4.761,-7.871 -15.017,-10.395 -22.887,-5.633c-582.271,352.261 -1286.22,334.637 -1917.78,288.519c-206.253,-15.061 -402.738,-52.913 -594.908,-130.5c-62.841,-25.372 -205.934,-101.479 -266.061,-132.677c-8.165,-4.237 -18.234,-1.047 -22.47,7.118c-4.237,8.164 -1.047,18.233 7.118,22.469Z" style="fill:#7d3f21;"/><path d="M456.028,973.034c-10.527,-124.907 -11.573,-227.028 -12.651,-285.428c-0.272,-14.756 -103.719,-27.741 -239.111,49.208c-119.08,67.678 -193.959,233.447 -186.416,367.468c9.984,177.382 152.144,443.596 463.036,490.002c132.021,19.707 210.454,-38.435 141.165,-157.899c-18.645,-32.146 -46.408,-58.805 -81.183,-77.913c-92.269,-50.699 -197.029,-65.147 -245.989,-186.17c-12.821,-31.694 -20.92,-106.774 19.639,-150.941c69.53,-75.714 141.552,-47.828 141.51,-48.327Z" style="fill:#ffce7b;"/><path d="M472.635,971.635c-10.486,-124.429 -11.521,-226.16 -12.594,-284.336c-0.081,-4.417 -1.536,-9.002 -5.246,-13.26c-3.123,-3.583 -9.273,-7.801 -19.019,-10.451c-32.622,-8.871 -125.595,-6.141 -239.745,58.736c-124.155,70.562 -202.686,243.162 -194.821,382.895c10.295,182.917 156.622,457.695 477.216,505.549c51.158,7.637 94.804,3.917 126.283,-9.336c23.532,-9.907 40.721,-25.11 50.519,-44.738c15.389,-30.827 12.761,-74.324 -18.76,-128.671c-20.125,-34.698 -50.037,-63.533 -87.574,-84.158c-37.148,-20.411 -76.295,-35.015 -113.067,-52.952c-51.342,-25.042 -97.976,-56.832 -125.497,-124.861c-11.324,-27.991 -19.356,-94.411 16.464,-133.417c55.19,-60.1 111.803,-47.197 122.618,-44.135c3.475,0.985 5.573,1.18 5.928,1.194c6.229,0.25 9.706,-2.456 11.45,-3.931c4.423,-3.741 6.323,-8.468 5.845,-14.128Zm-45.779,-275.644c0.987,56.016 2.293,146.53 10.787,256.418c-29.574,-3.217 -83.213,0.849 -135.401,57.679c-45.298,49.329 -37.133,133.066 -22.813,168.464c31.23,77.199 83.523,113.903 141.784,142.321c36.296,17.704 74.962,32.059 111.629,52.206c32.014,17.59 57.628,42.075 74.792,71.668c23.919,41.24 29.448,73.666 17.77,97.059c-8.23,16.487 -24.953,27.381 -47.191,33.589c-25.547,7.132 -57.963,7.914 -94.866,2.405c-301.19,-44.958 -439.184,-302.608 -448.857,-474.455c-7.222,-128.309 64.006,-287.247 178.011,-352.041c90.428,-51.394 165.739,-61.388 202.985,-57.541c3.95,0.408 8.291,1.411 11.37,2.228Z" style="fill:#7d3f21;"/><path d="M992.079,1811.87c-8.111,-4.048 -49.2,127.821 31.959,221.854c80.825,93.646 211.733,155.823 327.003,194.247c318.713,106.237 745.73,80.836 1062.05,-23.952c95.082,-31.497 300.927,-121.746 311.751,-242.97c6.894,-77.219 -7.53,-135.076 -47.614,-138.999c-27.059,-2.648 -66.865,33.364 -115.69,51.007c-98.751,35.683 -200.188,78.762 -303.279,99.017c-308.383,60.592 -691.688,126.521 -1266.18,-160.204Z" style="fill:#edaf5f;"/><path d="M999.522,1796.96c-4.987,-2.489 -10.926,-3.1 -17.382,0.926c-3.005,1.873 -9.065,8.591 -13.384,21c-13.019,37.408 -27.34,144.621 42.665,225.731c82.701,95.82 216.404,159.853 334.35,199.168c321.866,107.288 753.112,81.883 1072.56,-23.942c58.335,-19.324 157.39,-60.384 229.734,-116.828c51.176,-39.929 88.679,-87.869 93.376,-140.481c4.468,-50.043 -0.047,-92.482 -13.171,-119.401c-10.968,-22.498 -27.71,-35.543 -49.419,-37.668c-13.381,-1.309 -29.565,4.073 -47.693,13.545c-21.428,11.197 -46.747,28.063 -75.285,38.375c-97.965,35.399 -198.558,78.244 -300.828,98.338c-305.785,60.081 -685.872,125.546 -1255.53,-158.763Zm0.098,37.241c570.993,280.583 953.548,214.807 1261.85,154.23c103.912,-20.416 206.192,-63.729 305.73,-99.697c30.051,-10.859 56.829,-28.39 79.394,-40.18c11.209,-5.857 20.735,-10.723 29.009,-9.914c13.855,1.356 21.79,13.426 27.151,30.436c7.234,22.955 8.701,54.476 5.485,90.493c-3.961,44.37 -37.521,83.492 -80.68,117.165c-69.154,53.956 -163.948,92.995 -219.711,111.467c-313.193,103.751 -735.98,129.148 -1051.54,23.961c-112.594,-37.531 -240.708,-97.852 -319.657,-189.325c-40.477,-46.897 -47.76,-104.068 -44.965,-146.076c1.067,-16.03 4.995,-32.258 7.93,-42.56Z" style="fill:#7d3f21;"/><path d="M1004.26,1944.6l0.81,-0.673c13.717,-10.269 25.076,-2.553 35.45,7.331c17.064,16.259 32.151,39.047 45.969,49.053c23.895,17.303 48.262,16.948 71.803,14.438c14.701,-1.567 28.874,-4.834 41.629,0.867c7.525,3.364 14.059,10.286 20.277,22.223c14.342,27.538 29.068,40.644 43.205,46.626c15.072,6.379 30.348,5.133 46.494,1.044c21.408,-5.421 45.082,-18.039 74.48,-1.437c12.795,7.225 18.652,22.532 26.382,35.899c11.859,20.506 26.191,37.869 51.703,41.286c21.752,2.913 43.474,-6.804 64.829,-16.712c14.564,-6.757 28.775,-14.319 43.382,-9.952c5.795,1.733 10.209,5.511 14.214,9.903c5.572,6.11 10.299,13.439 15.208,20.551c13.464,19.504 28.634,36.71 53.497,39.498c22.453,2.518 44.59,-7.835 66.597,-20.233c16.522,-9.308 32.925,-20.011 50.405,-21.022c9.326,-0.54 15.956,3.47 21.832,8.39c5.648,4.73 10.698,10.3 15.92,15.401c12.28,11.995 25.601,21.338 43.678,21.723c24.281,0.516 45.877,-13.241 66.983,-29.32c15.767,-12.011 31.148,-25.603 49.361,-28.712c10.044,-1.715 17.986,2.535 25.453,7.791c7.059,4.969 13.684,10.987 20.448,16.438c15.174,12.23 31.231,21.346 50.601,19.781c22.907,-1.851 41.812,-15.662 60.434,-30.651c13.503,-10.869 26.712,-22.704 43.87,-24.805c6.51,-0.797 12.478,1.26 18.286,3.823c8.442,3.725 16.544,8.705 24.675,12.514c15.262,7.149 30.665,10.443 47.218,3.791c23.531,-9.456 42.509,-27.945 61.135,-46.256c15.075,-14.82 29.725,-29.709 48.588,-35.531c4.882,-1.507 8.578,0.675 12.13,2.993c4.943,3.225 9.609,7.205 14.482,10.541c12.665,8.674 26.336,13.72 44.069,7c27.847,-10.553 47.085,-32.709 65.079,-56.501c14.768,-19.525 28.538,-40.289 48.922,-52.475c6.049,-3.616 11.932,-1.928 17.688,0.393c6.585,2.656 13.052,6.454 19.467,9.75c16.068,8.255 32.096,12.831 47.684,6.442c20.64,-8.459 35.063,-28.549 49.359,-48.158c9.68,-13.278 18.798,-26.932 34.581,-29.187c9.106,-1.301 15.443,-9.75 14.142,-18.856c-1.301,-9.106 -9.75,-15.443 -18.856,-14.142c-24.752,3.536 -41.62,21.724 -56.802,42.548c-10.56,14.485 -19.818,30.703 -35.065,36.952c-4.153,1.702 -8.245,-0.015 -12.487,-1.78c-8.341,-3.471 -16.779,-8.78 -25.381,-12.689c-16.699,-7.588 -33.802,-10.425 -51.435,0.117c-23.99,14.342 -41.022,37.998 -58.402,60.977c-14.154,18.714 -28.403,37.138 -50.306,45.438c-4.617,1.75 -8.164,0.011 -11.514,-2.078c-4.792,-2.989 -9.296,-6.841 -14.005,-10.165c-12.412,-8.76 -25.856,-14.318 -43.181,-8.971c-23.786,7.342 -43.115,24.923 -62.125,43.611c-15.459,15.198 -30.667,31.25 -50.196,39.098c-10.079,4.05 -18.853,-1.919 -28.173,-6.849c-16.759,-8.864 -34.187,-17.817 -53.628,-15.436c-23.356,2.86 -42.34,17.13 -60.72,31.925c-13.264,10.676 -25.902,22.073 -42.217,23.392c-5.784,0.467 -10.791,-1.545 -15.56,-4.334c-6.96,-4.071 -13.402,-9.769 -20.009,-15.274c-18.4,-15.331 -38.004,-28.45 -63.859,-24.035c-23.26,3.971 -43.815,19.715 -63.951,35.054c-14.801,11.276 -29.046,22.872 -46.074,22.51c-6.117,-0.13 -10.735,-3.165 -15.085,-6.76c-4.413,-3.647 -8.503,-7.969 -12.722,-12.207c-14.746,-14.814 -30.965,-27.962 -56.257,-26.499c-22.273,1.288 -43.79,13.399 -64.841,25.258c-15.57,8.772 -30.635,17.931 -46.521,16.15c-9.522,-1.068 -15.738,-7.041 -21.343,-13.861c-5.318,-6.47 -9.997,-13.85 -14.935,-20.86c-10.845,-15.397 -23.163,-28.767 -40.808,-34.042c-22.305,-6.669 -44.718,1.333 -66.959,11.651c-15.444,7.165 -30.644,16.018 -46.375,13.911c-14.248,-1.908 -20.649,-13.482 -27.272,-24.935c-10.746,-18.583 -21.059,-38.193 -38.847,-48.238c-32.287,-18.232 -59.507,-12.943 -84.17,-5.996c-7.098,2 -13.918,4.123 -20.566,5.445c-7.023,1.397 -13.791,2.032 -20.456,-1.092c-8.832,-4.14 -16.844,-13.739 -25.814,-30.962c-8.836,-16.964 -18.867,-27.244 -29.293,-33.604c-15.676,-9.561 -32.783,-10.447 -50.841,-8.812c-20.333,1.841 -42.41,8.624 -63.588,-6.712c-7.131,-5.163 -14.4,-14.522 -22.395,-24.061c-9.915,-11.828 -20.629,-23.968 -32.137,-32.146c-19.754,-14.039 -41.628,-18.419 -66.415,0.137c-0.525,0.393 -4.23,3.33 -6.12,5.4c-1.816,1.989 -2.939,3.955 -3.554,5.354c-2.198,4.994 -1.644,9.322 -0.519,12.533c3.042,8.682 12.559,13.26 21.24,10.219c3.413,-1.196 6.193,-3.393 8.12,-6.149Z" style="fill:#7d3f21;"/><path d="M1657.34,2120.89c0.448,8.977 4.439,12.987 8.401,15.253c7.985,4.567 18.175,1.791 22.742,-6.193c2.233,-3.906 2.711,-8.339 1.677,-12.383c-1.932,-7.977 -9.522,-13.5 -17.91,-12.629c-8.922,0.926 -15.224,9.672 -14.91,15.952Z" style="fill:#7d3f21;"/><path d="M1950.64,2216.41c0.449,8.977 4.439,12.987 8.402,15.253c7.984,4.567 18.175,1.792 22.741,-6.193c2.234,-3.906 2.711,-8.339 1.677,-12.383c-1.932,-7.977 -9.521,-13.5 -17.91,-12.629c-8.921,0.926 -15.224,9.673 -14.91,15.952Z" style="fill:#7d3f21;"/><path d="M2222.77,2063.36c0.448,8.977 4.439,12.987 8.401,15.253c7.985,4.566 18.175,1.791 22.742,-6.194c2.233,-3.905 2.711,-8.338 1.677,-12.382c-1.933,-7.977 -9.522,-13.5 -17.91,-12.629c-8.922,0.926 -15.224,9.672 -14.91,15.952Z" style="fill:#7d3f21;"/><path d="M2544.81,2047.59c0.449,8.977 4.439,12.987 8.401,15.253c7.985,4.567 18.176,1.792 22.742,-6.193c2.234,-3.906 2.711,-8.339 1.677,-12.383c-1.932,-7.977 -9.521,-13.5 -17.91,-12.629c-8.921,0.926 -15.224,9.673 -14.91,15.952Z" style="fill:#7d3f21;"/><path d="M1344.85,2119.22c0.449,8.977 4.439,12.987 8.401,15.253c7.985,4.567 18.176,1.791 22.742,-6.194c2.234,-3.905 2.711,-8.338 1.677,-12.382c-1.932,-7.977 -9.522,-13.5 -17.91,-12.629c-8.921,0.926 -15.224,9.672 -14.91,15.952Z" style="fill:#7d3f21;"/><path d="M1110.62,1935.5c0.449,8.977 4.439,12.987 8.401,15.253c7.985,4.567 18.175,1.792 22.742,-6.193c2.234,-3.906 2.711,-8.339 1.677,-12.383c-1.932,-7.977 -9.522,-13.5 -17.91,-12.629c-8.922,0.926 -15.224,9.673 -14.91,15.952Z" style="fill:#7d3f21;"/><path d="M2915.68,629.755c31.033,-11.622 61.814,-24.393 92.323,-37.523c8.449,-3.637 12.356,-13.449 8.72,-21.898c-3.636,-8.449 -13.448,-12.357 -21.898,-8.72c-30.017,12.918 -60.301,25.489 -90.836,36.925c-8.614,3.226 -12.989,12.839 -9.763,21.453c3.226,8.614 12.839,12.989 21.454,9.763Z" style="fill:#7d3f21;"/><path d="M3059.85,573.001l43.167,-21.435c8.226,-4.115 11.564,-14.136 7.448,-22.362c-4.116,-8.227 -14.136,-11.564 -22.362,-7.448c-3.652,1.826 -40.122,19.159 -46.895,23.511c-12.591,8.09 -7.845,20.686 -6.712,22.8c4.347,8.106 14.458,11.159 22.564,6.812c1.01,-0.542 1.942,-1.173 2.79,-1.878Zm4.918,-6.924c2.269,-5.542 1.011,-10.207 -0.896,-13.763c2.366,4.412 2.54,9.417 0.896,13.763Z" style="fill:#7d3f21;"/><path d="M3026.21,643.748c1.943,-1.662 5.795,-2.168 9.539,-3.149c7.143,-1.872 14.517,-3.481 19.236,-5.279c8.597,-3.274 12.917,-12.911 9.643,-21.507c-3.274,-8.596 -12.911,-12.917 -21.507,-9.643c-4.852,1.848 -13.026,3.288 -20.145,5.379c-7.647,2.246 -14.338,5.365 -18.431,8.867c-6.991,5.978 -7.812,16.508 -1.834,23.498c5.979,6.991 16.508,7.813 23.499,1.834Z" style="fill:#7d3f21;"/><path d="M731.952,323.322c8.786,-3.482 17.792,-6.209 26.794,-9.066c30.547,-9.693 61.158,-18.665 91.94,-27.576c8.836,-2.558 13.933,-11.808 11.375,-20.644c-2.557,-8.836 -11.808,-13.933 -20.643,-11.375c-31.055,8.99 -61.936,18.044 -92.754,27.823c-9.745,3.093 -19.483,6.08 -28.994,9.85c-8.552,3.39 -12.742,13.084 -9.353,21.636c3.39,8.551 13.084,12.742 21.635,9.352Z" style="fill:#7d3f21;"/><path d="M921.025,271.424c13.463,-4.623 27.373,-7.962 41.097,-11.709c8.874,-2.423 14.112,-11.594 11.689,-20.468c-2.423,-8.874 -11.594,-14.111 -20.468,-11.689c-14.411,3.935 -29.006,7.485 -43.143,12.339c-8.7,2.987 -13.338,12.476 -10.351,21.176c2.987,8.7 12.476,13.338 21.176,10.351Z" style="fill:#7d3f21;"/><path d="M310.443,910.765c-9.913,2.526 -20.334,9.69 -29.921,19.97c-17.487,18.751 -33.222,48.265 -41.155,62.503c-4.476,8.035 -1.587,18.194 6.448,22.671c8.036,4.477 18.194,1.588 22.671,-6.448c6.15,-11.038 17.304,-32.344 30.345,-48.874c6.493,-8.23 12.866,-15.743 19.844,-17.522c8.914,-2.271 14.306,-11.353 12.034,-20.266c-2.271,-8.914 -11.353,-14.306 -20.266,-12.034Z" style="fill:#7d3f21;"/><path d="M220.455,1068.71c-5.228,12.176 -2.982,31.243 -2.705,43.841c0.203,9.196 7.834,16.498 17.03,16.295c9.197,-0.203 16.498,-7.834 16.296,-17.03c-0.118,-5.32 -0.878,-12.017 -1.06,-18.67c-0.111,-4.062 -0.28,-8.144 1.068,-11.284c3.63,-8.452 -0.286,-18.261 -8.738,-21.891c-8.453,-3.629 -18.261,0.287 -21.891,8.739Z" style="fill:#7d3f21;"/><path d="M592.217,2444.97c5.757,4.837 14.286,5.301 20.602,0.642c7.402,-5.461 8.979,-15.904 3.518,-23.306c-2.575,-3.491 -8.185,-7.698 -16.874,-10.05c-15.771,-4.268 -48.509,-5.094 -56.562,-6.631c-9.036,-1.723 -17.771,4.213 -19.495,13.249c-1.724,9.035 4.213,17.771 13.248,19.494c5.514,1.052 22.433,1.791 37.773,3.439c6.52,0.701 15.438,2.636 17.79,3.163Z" style="fill:#7d3f21;"/><path d="M481.579,2424.54c0.594,0.112 1.2,0.189 1.815,0.234c9.175,0.664 17.163,-6.245 17.827,-15.42c0.012,-0.161 -0.244,-15.558 -15.113,-17.844c-5.908,-0.909 -35.596,-5.21 -38.196,-5.64c-9.076,-1.5 -17.662,4.65 -19.162,13.725c-1.5,9.076 4.65,17.662 13.725,19.162c2.625,0.434 32.601,4.782 38.566,5.699l0.538,0.084Z" style="fill:#7d3f21;"/><path d="M641.016,1804.81c-92.427,-76.343 -107.147,-211.647 -82.073,-293.653c25.045,-81.906 76.335,-135.628 129.024,-188.387c56.024,-56.1 113.611,-111.151 147.819,-193.03c37.573,-89.937 41.872,-203.758 53.036,-315.469c10.655,-106.617 27.458,-211.402 91.047,-288.924c53.919,-65.733 156.082,-88.881 249.236,-71.467c92.635,17.317 177.255,75.332 196.275,175.585c1.714,9.037 10.443,14.983 19.481,13.268c9.037,-1.715 14.982,-10.444 13.268,-19.481c-21.732,-114.549 -117.055,-182.351 -222.899,-202.137c-105.325,-19.69 -220.17,8.771 -281.134,83.092c-67.625,82.442 -87.111,193.365 -98.442,306.749c-10.822,108.288 -14.203,218.753 -50.625,305.934c-32.399,77.549 -87.586,129.192 -140.648,182.325c-56.399,56.474 -110.506,114.522 -137.314,202.196c-28.118,91.958 -10.923,243.491 92.721,329.099c7.092,5.858 17.606,4.856 23.464,-2.236c5.858,-7.092 4.856,-17.606 -2.236,-23.464Z" style="fill:#7d3f21;"/></g></svg>