<?xml version="1.0" encoding="UTF-8" standalone="no"?><!DOCTYPE svg PUBLIC "-//W3C//DTD SVG 1.1//EN" "http://www.w3.org/Graphics/SVG/1.1/DTD/svg11.dtd"><svg width="100%" height="100%" viewBox="0 0 1968 4912" version="1.1" xmlns="http://www.w3.org/2000/svg" xmlns:xlink="http://www.w3.org/1999/xlink" xml:space="preserve" xmlns:serif="http://www.serif.com/" style="fill-rule:evenodd;clip-rule:evenodd;stroke-linejoin:round;stroke-miterlimit:2;"><g id="Irish-Cream-Coffee-Lady" serif:id="Irish Cream Coffee-Lady"><path d="M130.465,404.576c-0.567,-5.483 -0.89,-10.996 -0.969,-16.531c-0.131,-9.084 7.038,-16.599 16.119,-16.897c9.08,-0.297 16.726,6.732 17.19,15.806c0.267,5.2 0.568,10.27 0.904,15.203c4.239,39.675 23.339,77.508 54.337,112.606c41.738,47.258 104.716,89.346 183.342,124.178c143.753,63.685 339.304,102.721 555.389,102.721c216.257,0 411.437,-39.108 554.947,-102.89c144.315,-64.139 236.536,-152.008 239.009,-251.38c0.228,-9.16 7.806,-16.417 16.966,-16.25c9.161,0.168 16.468,7.698 16.361,16.86c-1.077,91.777 -20.384,137.246 -37.504,175.11c-9.809,21.697 -19.045,40.547 -22.584,65.665c-3.437,24.397 -1.443,54.597 9.74,98.821c57.005,225.431 120.998,566.627 145.695,902.425c15.924,216.527 15.481,430.814 -13.497,610.588c-37.1,230.168 -156.941,404.699 -319.773,522.351c-165.764,119.771 -376.259,180.479 -589.362,180.444l-0,0c-231.531,-0.037 -454.095,-79.687 -625.709,-223.362c-165.911,-138.901 -284.285,-337.607 -317.122,-582.231c-21.071,-156.97 -15.046,-350.907 4.925,-548.971c30.043,-297.947 91.55,-605.28 138.694,-809.193c16.26,-70.33 17.793,-114.475 12.698,-153.002c-8.186,-61.915 -32.169,-109.916 -39.796,-222.071Zm50.486,117.112c44.227,56.519 115.316,107.141 206.935,147.73c147.265,65.24 347.528,105.578 568.891,105.578c221.558,-0 421.457,-40.419 568.485,-105.763c86.303,-38.357 154.381,-85.643 199.018,-138.374c-2.693,6.489 -5.422,12.606 -8.097,18.521c-11.144,24.648 -21.198,46.212 -25.218,74.746c-3.881,27.55 -2.197,61.706 10.43,111.644c56.644,224 120.228,563.031 144.768,896.698c15.723,213.777 15.448,425.347 -13.161,602.839c-35.555,220.581 -150.336,387.884 -306.387,500.637c-160.245,115.783 -363.827,174.162 -569.835,174.129l0,0c-223.598,-0.036 -438.582,-76.835 -604.316,-215.588c-159.876,-133.848 -273.841,-325.381 -305.483,-561.107c-20.773,-154.746 -14.635,-345.933 5.053,-541.192c29.889,-296.415 91.104,-602.164 138.006,-805.029c11.974,-51.793 16.32,-90.359 16.146,-122.813c-0.284,-53.325 -13.311,-89.697 -25.235,-142.656Z" style="fill:#7e4021;"/><path d="M956.777,2926.74c414.531,0.067 819.213,-232.997 892.679,-688.781c65.051,-403.574 63.873,-1014.78 -71.5,-1377.37c-9.013,-24.142 -144.318,-326.938 -835.927,-316.676c-715.673,10.62 -789.924,336.181 -794.354,356.854c-75.213,350.971 -164.14,885.231 -117.213,1234.83c65.624,488.874 478.986,791.073 926.315,791.145Z" style="fill:#ffe6d8;"/><path d="M956.775,2943.41c213.103,0.035 423.598,-60.673 589.362,-180.444c162.832,-117.652 282.673,-292.183 319.773,-522.351c32.214,-199.853 48.28,-450.387 39.983,-696.708c-8.562,-254.179 -43.147,-503.856 -112.323,-689.141c-5.961,-15.965 -64.267,-150.637 -292.554,-242.457c-126.429,-50.851 -305.94,-88.812 -559.234,-85.053c-255.135,3.785 -429.713,47.374 -549.096,102.828c-225.921,104.941 -258.319,253.251 -261.308,267.197c-44.529,207.788 -93.837,479.648 -117.085,739.633c-16.202,181.197 -19.713,356.654 -0.349,500.903c32.837,244.624 151.211,443.33 317.122,582.231c171.614,143.675 394.178,223.325 625.709,223.362l-0,0Zm0.005,-33.333c-223.598,-0.036 -438.582,-76.835 -604.316,-215.588c-159.876,-133.848 -273.841,-325.381 -305.483,-561.107c-19.077,-142.117 -15.45,-314.981 0.513,-493.499c23.121,-258.576 72.19,-528.956 116.478,-735.617c2.752,-12.843 34.715,-147.315 242.756,-243.951c116.416,-54.075 286.756,-96.038 535.548,-99.73c247.408,-3.671 422.811,32.98 546.302,82.65c212.215,85.356 268.223,208.349 273.764,223.19c68.113,182.437 101.806,428.333 110.236,678.604c8.221,244.049 -7.66,492.273 -39.576,690.282c-35.555,220.581 -150.336,387.884 -306.387,500.637c-160.245,115.783 -363.827,174.162 -569.835,174.129l0,0Z" style="fill:#7e4021;"/><path d="M956.777,2926.74c414.531,0.067 819.213,-232.997 892.679,-688.781c5.573,-34.577 10.081,-70.439 13.613,-107.354c-26.308,70.496 -281.168,338.784 -896.979,334.66c-535.562,-3.586 -853.561,-233.65 -935.628,-329.67c65.624,488.874 478.986,791.073 926.315,791.145Z" style="fill:#c48464;"/><path d="M956.775,2943.41c213.103,0.035 423.598,-60.673 589.362,-180.444c162.832,-117.652 282.673,-292.183 319.773,-522.351c2.857,-17.721 5.436,-35.776 7.751,-54.135c2.246,-17.818 4.242,-35.922 5.999,-54.284c0.796,-8.325 -4.701,-15.952 -12.852,-17.829c-8.151,-1.876 -16.43,2.579 -19.354,10.415c-4.941,13.24 -19.031,33.85 -42.626,58.613c-47.289,49.63 -131.733,113.768 -260.492,166.546c-138.709,56.856 -328.428,100.334 -578.134,98.662c-194.315,-1.301 -359.702,-32.686 -495.259,-76.649c-232.432,-75.382 -376.756,-187.448 -427.811,-247.183c-4.801,-5.617 -12.726,-7.402 -19.471,-4.388c-6.745,3.015 -10.7,10.111 -9.717,17.434c32.837,244.624 151.211,443.33 317.122,582.231c171.614,143.675 394.178,223.325 625.709,223.362l-0,0Zm882.166,-748.429c-1.824,13.625 -3.802,27.073 -5.939,40.33c-35.555,220.581 -150.336,387.884 -306.387,500.637c-160.245,115.783 -363.827,174.162 -569.835,174.129l0,0c-223.598,-0.036 -438.582,-76.835 -604.316,-215.588c-148.215,-124.086 -256.972,-297.749 -297.26,-510.239c71.524,64.61 207.449,155.194 405.456,219.411c138.313,44.857 307.053,76.947 505.318,78.275c255.285,1.709 449.193,-43.026 591,-101.152c143.394,-58.777 234.067,-131.874 281.963,-185.803Z" style="fill:#7e4021;"/><path d="M566.288,2869.09c-0.029,0.806 -0.159,3.756 -0.532,5.62c-0.989,4.937 -2.693,10.416 -4.3,16.389c-7.603,28.244 -14.008,65.14 31.476,106.618c51.274,46.758 142.384,76.604 244.665,89.169c150.816,18.527 325.639,0.114 427.55,-50.139c42.262,-20.84 63.492,-46.334 72.356,-71.243c13.804,-38.791 -1.961,-77.981 -23.235,-103.542c-4.905,-5.893 -13.196,-7.68 -20.092,-4.331c-0,0 -118.626,57.045 -355.798,51.514c-148.16,-3.455 -354.365,-66.6 -354.365,-66.6c-7.135,-2.181 -14.852,0.647 -18.888,6.922c-3.934,6.115 -3.44,14.052 1.163,19.623Zm32.047,12.312c59.668,16.787 218.339,58.248 339.266,61.068c201.426,4.697 320.81,-34.583 358.281,-49.371c11.007,16.956 18.102,39.071 10.217,61.229c-6.683,18.779 -23.833,36.811 -55.694,52.523c-97.402,48.03 -264.601,64.658 -408.743,46.95c-94.358,-11.591 -178.968,-37.579 -226.269,-80.714c-14.637,-13.347 -21.853,-25.768 -24.466,-37.451c-4.122,-18.424 2.487,-34.464 5.844,-47.278c0.624,-2.385 1.149,-4.704 1.564,-6.956Z" style="fill:#7e4021;"/><path d="M622.853,2986.82c-5.096,-3.177 -11.507,-3.367 -16.782,-0.498c-30.443,16.56 -64.435,61.035 -55.029,108.465c3.999,20.167 15.625,41.196 39.446,60.665c59.83,48.898 152.957,77.908 254.422,89.012c150.159,16.433 318.341,-6.031 420.237,-56.277c32.08,-15.819 50.625,-36.134 60.416,-57.436c22.716,-49.421 -2.562,-106.406 -26.62,-135.313c-5.588,-6.714 -15.412,-7.975 -22.514,-2.888c-0,-0 -102.883,72.506 -338.123,68.034c-202.418,-3.848 -315.453,-73.764 -315.453,-73.764Zm-8.343,33.569c31.807,17.114 144.323,70.123 323.162,73.522c198.208,3.768 307.544,-45.324 344.113,-65.662c15.044,22.972 27.725,57.614 13.491,88.581c-7.176,15.612 -21.36,29.868 -44.871,41.461c-97.417,48.038 -258.309,68.748 -401.869,53.038c-94.349,-10.326 -181.32,-36.219 -236.954,-81.687c-16.407,-13.41 -25.089,-27.448 -27.843,-41.339c-5.592,-28.195 12.366,-54.408 30.771,-67.914l-0,0Z" style="fill:#7e4021;"/><path d="M956.777,0.616c-221.098,0 -421.853,40.237 -569.441,105.339c-160.341,70.727 -257.842,172.057 -257.842,281.851c-0,109.794 97.501,211.124 257.842,281.851c147.588,65.102 348.343,105.339 569.441,105.339c221.099,-0 421.854,-40.237 569.442,-105.339c160.341,-70.727 257.842,-172.057 257.842,-281.851c0,-109.794 -97.501,-211.124 -257.842,-281.851c-147.588,-65.102 -348.343,-105.339 -569.442,-105.339Zm0,33.334c215.851,-0 411.904,38.946 555.989,102.503c78.847,34.78 141.979,76.808 183.631,124.014c34.77,39.406 54.331,82.27 54.331,127.339c-0,45.069 -19.561,87.933 -54.331,127.338c-41.652,47.207 -104.784,89.235 -183.631,124.015c-144.085,63.557 -340.138,102.503 -555.989,102.503c-215.851,0 -411.903,-38.946 -555.988,-102.503c-78.847,-34.779 -141.979,-76.807 -183.631,-124.014c-34.77,-39.406 -54.331,-82.27 -54.331,-127.339c0,-45.069 19.561,-87.932 54.33,-127.338c41.653,-47.207 104.785,-89.235 183.632,-124.015c144.085,-63.557 340.137,-102.503 555.988,-102.503Z" style="fill:#7e4021;"/><path d="M1941.56,398.732c-1.19,-20.839 -104.239,-30.972 -130.266,-63.196c-33.363,-41.306 -42.873,-214.519 -68.347,-210.235c-17.954,3.019 -13.08,174.183 -34.153,208.44c-26.041,42.332 -115.342,41.081 -119.173,65.396c-3.753,23.826 80.332,12.955 118.988,83.038c40.563,73.542 39.428,215.241 61.976,214.238c14.824,-0.659 18.356,-76.991 19.378,-83.319c10.475,-64.875 6.985,-87.436 32.565,-139.857c25.111,-51.457 120.117,-55.484 119.032,-74.505Z" style="fill:#fff;"/><path d="M1958.2,397.782c-0.31,-5.433 -2.465,-10.872 -7.177,-15.872c-4.985,-5.289 -14.598,-10.74 -27.341,-15.529c-19.291,-7.251 -47.039,-14.33 -70.057,-23.691c-12.427,-5.055 -23.498,-10.363 -29.364,-17.626c-9.624,-11.916 -16.353,-36.261 -22.75,-63.39c-10.827,-45.92 -19.201,-99.515 -29.299,-126.047c-3.614,-9.495 -7.876,-16.289 -11.925,-20.157c-6.29,-6.008 -13.189,-7.768 -20.103,-6.605c-4.762,0.801 -9.827,3.343 -13.909,9.204c-2.989,4.293 -6.045,12.46 -8.138,23.74c-5.226,28.172 -7.471,81.284 -12.061,125.253c-2.693,25.799 -5.479,48.195 -11.477,57.946c-7.338,11.928 -21.386,18.881 -36.068,24.599c-18.114,7.056 -37.597,11.738 -52.104,17.022c-9.781,3.563 -17.68,7.632 -22.885,12.126c-6.004,5.186 -9.348,11.213 -10.383,17.789c-2.158,13.695 6.275,25.746 27.516,33.457c23.419,8.502 68.845,15.813 93.341,60.223c31.969,57.961 37.164,159.017 49.53,196.567c2.853,8.664 6.397,14.898 9.884,18.622c5.396,5.763 11.552,7.932 17.897,7.65c7.596,-0.338 16.748,-5.584 22.21,-18.447c8.974,-21.135 12.02,-73.537 12.881,-78.866c10.12,-62.676 6.376,-84.558 31.09,-135.204c7.185,-14.723 21.831,-24.161 37.198,-31.573c18.306,-8.829 38.04,-14.551 52.231,-19.883c12.069,-4.535 20.883,-9.628 25.193,-14.507c4.609,-5.217 6.407,-10.904 6.07,-16.801Zm-210.365,-227.339c7.67,30.976 14.841,74.193 24.019,110.272c7.2,28.306 16.088,52.433 26.475,65.294c7.611,9.422 20.343,17.711 35.751,24.585c19.483,8.692 43.484,15.547 63.47,22.025c5.781,1.874 11.194,3.706 15.976,5.564c-3.764,1.537 -7.842,3.118 -11.608,4.42c-18.899,6.531 -41.833,14.597 -60.683,26.992c-14.332,9.425 -26.354,21.312 -33.684,36.333c-26.448,54.198 -23.21,77.436 -34.041,144.509c-0.489,3.031 -1.542,22.252 -4.168,41.392c-9.486,-48.561 -18.81,-128.158 -46.138,-177.704c-25.774,-46.728 -69.204,-61.796 -99.338,-71.512c-3.02,-0.974 -6.358,-2.193 -9.42,-3.37c4.747,-1.911 10.259,-3.682 16.191,-5.511c18.355,-5.66 40.209,-11.737 58.348,-21.366c14.23,-7.554 26.26,-17.301 34.006,-29.893c5.18,-8.421 9.533,-23.762 12.563,-43.01c5.893,-37.438 8.243,-91.434 12.281,-129.02Z" style="fill:#7e4021;"/><path d="M964.892,528.654c-223.285,-0 -426.027,40.633 -575.075,106.379c-161.87,71.402 -260.323,173.678 -260.323,284.52c-0,110.841 98.453,213.118 260.323,284.52c149.048,65.746 351.79,106.379 575.075,106.379c223.286,-0 426.027,-40.633 575.075,-106.379c161.87,-71.402 260.323,-173.679 260.323,-284.52c0,-110.842 -98.453,-213.118 -260.323,-284.52c-149.048,-65.746 -351.789,-106.379 -575.075,-106.379Zm0,33.333c218.038,0 416.077,39.343 561.622,103.544c79.661,35.139 143.444,77.603 185.527,125.298c35.147,39.834 54.916,83.165 54.916,128.724c0,45.558 -19.769,88.889 -54.916,128.723c-42.083,47.695 -105.865,90.159 -185.527,125.299c-145.545,64.2 -343.584,103.543 -561.622,103.543c-218.038,0 -416.077,-39.343 -561.622,-103.543c-79.661,-35.139 -143.444,-77.604 -185.526,-125.298c-35.148,-39.834 -54.917,-83.166 -54.917,-128.724c0,-45.559 19.769,-88.89 54.916,-128.724c42.083,-47.694 105.866,-90.159 185.527,-125.298c145.545,-64.201 343.584,-103.544 561.622,-103.544Z" style="fill:#7e4021;"/><path d="M1353.75,2121.66c-35.647,-20.193 -52.626,-70.748 -95.091,-82.931c-31.531,-9.046 -58.23,16.366 -67.51,30.14c-1.442,2.141 -22.97,-23.122 -54.959,-15.342c-46.146,11.224 -58.013,68.552 -92.508,110.809c34.929,35.091 52.692,77.482 92.969,91.084c107.317,36.24 170.958,-40.586 217.099,-133.76Z" style="fill:#cc967f;"/><path d="M1187.61,2047.26c-11.843,-6.731 -32.772,-15.426 -55.364,-9.931c-22.453,5.461 -38.57,19.439 -52.11,38.084c-16.53,22.761 -28.88,53.279 -49.37,78.379c-5.401,6.616 -4.926,16.244 1.099,22.297c17.086,17.167 29.922,36.162 43.464,52.485c15.892,19.156 32.862,34.824 55.985,42.633c116.441,39.321 187.302,-41.059 237.366,-142.155c3.926,-7.926 0.975,-17.538 -6.721,-21.898c-16.162,-9.155 -27.735,-25.553 -40.438,-40.684c-16.163,-19.251 -33.773,-36.737 -58.271,-43.766c-31.46,-9.025 -59.462,8.287 -75.64,24.556Zm144.716,79.763c-41.522,79.607 -97.075,144.1 -190.348,112.602c-17.156,-5.793 -29.203,-18.12 -40.995,-32.334c-11.401,-13.743 -22.393,-29.242 -35.575,-44.127c13.146,-18.805 23.259,-39.276 34.314,-57.084c10.597,-17.071 21.66,-31.804 40.401,-36.362c14.406,-3.504 25.747,2.812 32.497,7.253c4.782,3.147 8.215,5.749 9.926,6.622c5.123,2.613 9.302,2.234 11.823,1.707c4.601,-0.961 8.082,-3.389 10.598,-7.122c6.828,-10.135 25.892,-30.088 49.091,-23.433c17.971,5.156 30.077,19.036 41.934,33.158c11.662,13.891 22.99,28.208 36.334,39.12Z" style="fill:#7e4021;"/><path d="M1361.41,2094.22c-119.579,75.224 -241.984,78.194 -335.708,47.975c-8.755,-2.823 -18.155,1.993 -20.977,10.748c-2.823,8.755 1.993,18.154 10.748,20.977c101.516,32.732 234.165,29.993 363.686,-51.486c7.786,-4.898 10.131,-15.195 5.233,-22.982c-4.898,-7.786 -15.196,-10.13 -22.982,-5.232Z" style="fill:#7e4021;"/><path d="M1663.68,1484.89c36.377,4.076 70.565,17.433 109.169,44.541c192.997,135.521 121.526,476.272 -139.899,450.966c-378.279,-36.617 -256.849,-527.736 30.73,-495.507Z" style="fill:#fff;"/><path d="M1665.53,1468.33c-107.733,-12.074 -193.835,44.172 -242.691,124.464c-48.563,79.811 -59.79,183.261 -19.396,265.673c34.649,70.693 107.062,126.826 227.896,138.522c279.246,27.031 357.236,-336.436 151.082,-481.195c-41.307,-29.005 -77.967,-43.102 -116.891,-47.464l0,-0Zm-3.712,33.126c33.83,3.791 65.545,16.408 101.448,41.618c179.842,126.284 114.891,444.318 -128.716,420.737c-106.136,-10.274 -170.741,-57.92 -201.176,-120.015c-35.538,-72.507 -24.785,-163.456 17.941,-233.675c42.434,-69.738 116.93,-119.152 210.503,-108.665l-0,-0Z" style="fill:#7e4021;"/><path d="M646.674,1582.54c36.377,4.076 70.565,17.433 109.169,44.541c192.997,135.521 121.526,476.272 -139.898,450.966c-378.28,-36.617 -256.85,-527.736 30.729,-495.507Z" style="fill:#fff;"/><path d="M648.53,1565.98c-107.733,-12.074 -193.835,44.172 -242.691,124.464c-48.563,79.811 -59.79,183.261 -19.396,265.672c34.65,70.694 107.063,126.827 227.896,138.523c279.246,27.031 357.236,-336.436 151.082,-481.195c-41.307,-29.005 -77.967,-43.102 -116.891,-47.464l0,-0Zm-3.712,33.126c33.83,3.791 65.545,16.407 101.448,41.618c179.842,126.284 114.891,444.318 -128.716,420.737c-106.136,-10.274 -170.74,-57.92 -201.176,-120.015c-35.538,-72.507 -24.785,-163.456 17.941,-233.675c42.434,-69.738 116.93,-119.152 210.503,-108.665l-0,-0Z" style="fill:#7e4021;"/><path d="M1582.86,1491.8c17.086,-5.592 99.763,79.43 119.495,216.363c2.996,20.789 -59.323,22.17 -61.819,45.933c-1.974,18.797 64.321,44.359 61.801,56.25c-18.756,88.526 -94.389,161.568 -112.568,156.632c-102.585,-27.858 -180.069,-111.822 -186.127,-211.551c-6.373,-104.913 64.169,-225.977 179.218,-263.627Z" style="fill:#7e4021;"/><path d="M1659.21,1755.03c1.243,-0.913 2.762,-1.954 4.03,-2.613c7.716,-4.009 17.358,-7.119 25.673,-10.517c9.592,-3.921 17.7,-8.528 22.523,-13.662c6.054,-6.444 8.649,-13.888 7.415,-22.449c-16.638,-115.465 -76.598,-195.489 -108.792,-220.032c-7.928,-6.043 -14.932,-9.234 -20.018,-10.302c-4.842,-1.016 -8.987,-0.598 -12.364,0.508c-122.403,40.056 -197.452,168.859 -190.671,280.477c6.476,106.604 88.739,196.847 198.396,226.625c4.078,1.107 9.354,1.24 15.544,-0.688c7.245,-2.256 17.319,-8.141 28.442,-17.654c31.583,-27.008 75.27,-84.918 89.254,-150.919c0.998,-4.713 0.456,-10.115 -3.014,-15.737c-2.643,-4.281 -8.455,-9.765 -16.431,-15.273c-10.761,-7.432 -26.298,-16.092 -36.684,-24.635c-1.056,-0.868 -2.264,-2.052 -3.303,-3.129Zm-74.851,-246.141c2.948,1.973 10.621,7.322 16.277,13.032c29.475,29.751 70.87,95.458 84.638,184.715c-1.093,0.687 -2.479,1.516 -3.608,2.057c-4.209,2.019 -9.119,3.853 -14.097,5.751c-10.915,4.16 -21.989,8.744 -29.522,14.54c-8.253,6.351 -13.125,14.218 -14.087,23.375c-0.68,6.478 1.23,13.628 6.546,20.648c6.291,8.308 19.101,17.51 32.164,25.853c7.357,4.698 14.71,9.188 20.223,13.235c0.527,0.387 1.097,0.834 1.647,1.281c-13.641,55.229 -50.133,103.195 -76.817,126.014c-5.894,5.041 -13.659,9.457 -16.111,10.797c-94.264,-26.596 -165.743,-103.729 -171.334,-195.768c-5.897,-97.078 58.561,-208.928 164.081,-245.53Z" style="fill:#7e4021;"/><path d="M565.515,1588.5c17.085,-5.591 99.763,79.431 119.495,216.364c2.995,20.789 -59.324,22.17 -61.819,45.933c-1.975,18.797 64.32,44.358 61.801,56.25c-18.757,88.526 -94.39,161.568 -112.568,156.632c-104.763,-28.449 -178.268,-114.449 -182.22,-216.422c-3.989,-102.924 62.584,-221.866 175.311,-258.757Z" style="fill:#7e4021;"/><path d="M641.865,1851.73c1.243,-0.913 2.762,-1.954 4.03,-2.613c7.716,-4.009 17.358,-7.119 25.673,-10.518c9.591,-3.92 17.699,-8.527 22.523,-13.661c6.054,-6.444 8.648,-13.888 7.415,-22.449c-16.639,-115.465 -76.598,-195.489 -108.793,-220.032c-7.928,-6.043 -14.931,-9.234 -20.017,-10.302c-4.842,-1.016 -8.987,-0.598 -12.365,0.507c-119.97,39.261 -191.026,165.705 -186.781,275.242c4.227,109.083 82.439,201.428 194.506,231.861c4.078,1.107 9.354,1.24 15.545,-0.688c7.245,-2.256 17.318,-8.142 28.441,-17.654c31.583,-27.009 75.27,-84.918 89.254,-150.919c0.999,-4.713 0.456,-10.115 -3.014,-15.737c-2.642,-4.281 -8.454,-9.765 -16.43,-15.274c-10.761,-7.432 -26.299,-16.091 -36.684,-24.634c-1.057,-0.869 -2.264,-2.052 -3.303,-3.129Zm-74.85,-246.14c2.948,1.973 10.62,7.322 16.276,13.031c29.475,29.751 70.87,95.458 84.638,184.715c-1.093,0.686 -2.48,1.516 -3.608,2.057c-4.209,2.019 -9.119,3.853 -14.097,5.751c-10.915,4.16 -21.989,8.744 -29.522,14.54c-8.253,6.351 -13.125,14.218 -14.087,23.375c-0.68,6.478 1.23,13.628 6.546,20.648c6.291,8.307 19.101,17.51 32.164,25.853c7.356,4.698 14.71,9.188 20.222,13.235c0.528,0.387 1.097,0.834 1.648,1.281c-13.641,55.229 -50.134,103.195 -76.817,126.014c-5.893,5.04 -13.658,9.456 -16.11,10.797c-96.128,-27.143 -163.766,-106.234 -167.41,-200.274c-3.689,-95.184 56.912,-205.145 160.157,-241.023Z" style="fill:#7e4021;"/><path d="M1456.16,1575.98c-22.992,-38.731 -83.205,-68.311 -125.532,-66.278c-9.188,0.441 -16.289,8.259 -15.848,17.447c0.441,9.188 8.259,16.289 17.447,15.848c32.081,-1.541 77.843,20.642 95.27,49.999c4.695,7.91 14.929,10.519 22.839,5.824c7.91,-4.696 10.519,-14.93 5.824,-22.84Z" style="fill:#7e4021;"/><path d="M439.158,1673.63c-22.992,-38.731 -83.205,-68.311 -125.532,-66.278c-9.188,0.441 -16.289,8.259 -15.848,17.447c0.441,9.188 8.259,16.289 17.447,15.848c32.081,-1.541 77.843,20.642 95.27,49.999c4.695,7.91 14.929,10.519 22.839,5.824c7.91,-4.696 10.52,-14.93 5.824,-22.84Z" style="fill:#7e4021;"/><path d="M1825.72,1902.54c22.992,38.732 83.206,68.312 125.532,66.279c9.188,-0.441 16.29,-8.259 15.849,-17.447c-0.442,-9.188 -8.259,-16.289 -17.447,-15.848c-32.081,1.541 -77.844,-20.643 -95.27,-49.999c-4.696,-7.91 -14.93,-10.519 -22.84,-5.824c-7.91,4.696 -10.519,14.929 -5.824,22.839Z" style="fill:#7e4021;"/><path d="M808.716,2000.19c22.993,38.732 83.206,68.312 125.533,66.279c9.188,-0.441 16.289,-8.259 15.848,-17.447c-0.442,-9.188 -8.259,-16.289 -17.447,-15.848c-32.081,1.541 -77.844,-20.643 -95.27,-49.999c-4.696,-7.91 -14.93,-10.52 -22.84,-5.824c-7.909,4.695 -10.519,14.929 -5.824,22.839Z" style="fill:#7e4021;"/><path d="M1542.85,1508.72c-7.83,-44.356 -53.715,-93.296 -94.032,-106.344c-8.751,-2.833 -18.156,1.973 -20.989,10.725c-2.832,8.751 1.974,18.156 10.725,20.988c30.558,9.89 65.535,46.807 71.47,80.426c1.599,9.059 10.252,15.115 19.311,13.516c9.058,-1.599 15.114,-10.252 13.515,-19.311Z" style="fill:#7e4021;"/><path d="M525.849,1606.38c-7.83,-44.356 -53.715,-93.296 -94.032,-106.344c-8.751,-2.833 -18.156,1.973 -20.989,10.725c-2.832,8.751 1.974,18.156 10.725,20.988c30.558,9.89 65.536,46.807 71.47,80.426c1.6,9.059 10.252,15.115 19.311,13.516c9.058,-1.599 15.114,-10.252 13.515,-19.311Z" style="fill:#7e4021;"/><path d="M1739.03,1969.8c7.83,44.357 53.715,93.297 94.032,106.345c8.752,2.833 18.156,-1.973 20.989,-10.725c2.832,-8.751 -1.973,-18.156 -10.725,-20.989c-30.558,-9.889 -65.535,-46.806 -71.47,-80.425c-1.599,-9.059 -10.252,-15.115 -19.31,-13.516c-9.059,1.599 -15.115,10.252 -13.516,19.31Z" style="fill:#7e4021;"/><path d="M722.025,2067.45c7.831,44.357 53.715,93.297 94.032,106.345c8.752,2.832 18.157,-1.973 20.989,-10.725c2.832,-8.752 -1.973,-18.156 -10.725,-20.989c-30.557,-9.889 -65.535,-46.806 -71.47,-80.425c-1.599,-9.059 -10.252,-15.115 -19.31,-13.516c-9.059,1.599 -15.115,10.252 -13.516,19.31Z" style="fill:#7e4021;"/><path d="M1634.36,1490.61c17.761,-41.392 6.204,-107.476 -20.366,-140.486c-5.768,-7.166 -16.268,-8.301 -23.434,-2.533c-7.166,5.768 -8.301,16.268 -2.533,23.433c20.139,25.02 29.162,75.069 15.7,106.442c-3.627,8.453 0.291,18.261 8.744,21.888c8.454,3.627 18.261,-0.291 21.889,-8.744Z" style="fill:#7e4021;"/><path d="M617.361,1588.26c17.761,-41.392 6.204,-107.476 -20.366,-140.486c-5.768,-7.166 -16.268,-8.301 -23.434,-2.533c-7.166,5.767 -8.301,16.268 -2.533,23.433c20.139,25.02 29.162,75.069 15.7,106.442c-3.627,8.453 0.291,18.261 8.745,21.888c8.453,3.627 18.261,-0.291 21.888,-8.744Z" style="fill:#7e4021;"/><path d="M1646.65,1978.86c-17.761,41.392 -6.205,107.476 20.366,140.486c5.768,7.166 16.268,8.301 23.434,2.533c7.166,-5.768 8.3,-16.268 2.533,-23.434c-20.139,-25.02 -29.162,-75.068 -15.7,-106.441c3.627,-8.453 -0.291,-18.261 -8.745,-21.888c-8.453,-3.628 -18.261,0.29 -21.888,8.744Z" style="fill:#7e4021;"/><path d="M629.644,2076.51c-17.761,41.392 -6.204,107.475 20.366,140.486c5.768,7.166 16.268,8.301 23.434,2.533c7.166,-5.768 8.301,-16.268 2.533,-23.434c-20.139,-25.02 -29.162,-75.068 -15.7,-106.441c3.627,-8.454 -0.291,-18.261 -8.745,-21.889c-8.453,-3.627 -18.261,0.291 -21.888,8.745Z" style="fill:#7e4021;"/><path d="M1744.17,1515.83c33.472,-30.14 50.671,-94.984 40.379,-136.09c-2.234,-8.924 -11.292,-14.354 -20.215,-12.12c-8.924,2.234 -14.354,11.292 -12.12,20.215c7.801,31.157 -4.98,80.38 -30.349,103.224c-6.836,6.156 -7.389,16.703 -1.233,23.538c6.155,6.836 16.702,7.388 23.538,1.233Z" style="fill:#7e4021;"/><path d="M727.163,1613.49c33.472,-30.14 50.671,-94.984 40.379,-136.091c-2.234,-8.923 -11.292,-14.353 -20.215,-12.119c-8.923,2.234 -14.354,11.292 -12.12,20.215c7.801,31.157 -4.98,80.38 -30.349,103.224c-6.836,6.156 -7.388,16.703 -1.233,23.538c6.155,6.836 16.702,7.388 23.538,1.233Z" style="fill:#7e4021;"/><path d="M1541.16,1954.07c-33.472,30.14 -50.671,94.984 -40.379,136.091c2.234,8.923 11.292,14.354 20.215,12.12c8.924,-2.234 14.354,-11.293 12.12,-20.216c-7.801,-31.156 4.98,-80.38 30.349,-103.224c6.836,-6.155 7.389,-16.702 1.233,-23.538c-6.155,-6.835 -16.702,-7.388 -23.538,-1.233Z" style="fill:#7e4021;"/><path d="M524.161,2051.72c-33.472,30.14 -50.672,94.984 -40.38,136.091c2.234,8.923 11.292,14.354 20.216,12.12c8.923,-2.234 14.353,-11.293 12.119,-20.216c-7.8,-31.156 4.98,-80.38 30.35,-103.224c6.835,-6.155 7.388,-16.702 1.232,-23.538c-6.155,-6.836 -16.702,-7.388 -23.537,-1.233Z" style="fill:#7e4021;"/><path d="M1833.45,1589.2c42.216,-15.702 82.078,-69.662 87.64,-111.671c1.208,-9.119 -5.215,-17.502 -14.334,-18.71c-9.119,-1.207 -17.503,5.216 -18.71,14.335c-4.216,31.84 -34.219,72.902 -66.217,84.804c-8.621,3.206 -13.017,12.809 -9.811,21.431c3.207,8.621 12.81,13.018 21.432,9.811Z" style="fill:#7e4021;"/><path d="M816.448,1686.86c42.216,-15.702 82.078,-69.662 87.641,-111.671c1.207,-9.119 -5.216,-17.502 -14.335,-18.71c-9.119,-1.207 -17.503,5.216 -18.71,14.335c-4.216,31.84 -34.219,72.902 -66.216,84.804c-8.622,3.206 -13.018,12.809 -9.811,21.431c3.206,8.621 12.809,13.018 21.431,9.811Z" style="fill:#7e4021;"/><path d="M1448.43,1889.32c-42.217,15.702 -82.079,69.662 -87.641,111.67c-1.208,9.119 5.215,17.503 14.334,18.711c9.119,1.207 17.503,-5.216 18.711,-14.335c4.216,-31.84 34.218,-72.903 66.216,-84.804c8.621,-3.206 13.018,-12.809 9.811,-21.431c-3.207,-8.622 -12.81,-13.018 -21.431,-9.811Z" style="fill:#7e4021;"/><path d="M431.427,1986.97c-42.217,15.702 -82.079,69.661 -87.641,111.67c-1.208,9.119 5.216,17.503 14.335,18.711c9.119,1.207 17.502,-5.216 18.71,-14.335c4.216,-31.84 34.218,-72.903 66.216,-84.804c8.622,-3.207 13.018,-12.81 9.811,-21.431c-3.207,-8.622 -12.81,-13.018 -21.431,-9.811Z" style="fill:#7e4021;"/><path d="M1231.36,4128.9c153.156,25.519 284.512,71.699 377.425,131.411c88.472,56.859 141.944,125.365 141.944,200.386c-0,45.069 -19.561,87.933 -54.331,127.339c-41.652,47.207 -104.784,89.235 -183.631,124.014c-144.085,63.557 -340.138,102.504 -555.989,102.504c-215.851,-0 -411.903,-38.947 -555.988,-102.504c-78.847,-34.779 -141.979,-76.807 -183.631,-124.014c-34.77,-39.406 -54.331,-82.27 -54.331,-127.339c0,-74.569 52.843,-142.706 140.365,-199.367c92.046,-59.59 222.283,-105.811 374.289,-131.637c9.068,-1.541 15.18,-10.154 13.639,-19.223c-1.54,-9.068 -10.154,-15.18 -19.222,-13.639c-157.155,26.7 -291.657,74.908 -386.821,136.518c-98.888,64.019 -155.583,143.094 -155.583,227.348c-0,109.794 97.501,211.124 257.842,281.851c147.588,65.102 348.343,105.339 569.441,105.339c221.099,-0 421.854,-40.237 569.442,-105.339c160.341,-70.727 257.842,-172.057 257.842,-281.851c0,-84.723 -57.341,-164.215 -157.255,-228.427c-96.037,-61.72 -231.663,-109.873 -389.968,-136.25c-9.074,-1.512 -17.668,4.627 -19.179,13.7c-1.512,9.074 4.627,17.668 13.7,19.18Z" style="fill:#7e4021;"/><path d="M1750.73,4464.37c-0,112.059 -86.169,212.474 -223.235,286.687c-145.119,78.574 -347.302,127.119 -570.716,127.119c-223.413,0 -425.596,-48.545 -570.715,-127.119c-137.066,-74.213 -223.235,-174.628 -223.235,-286.687c0,-9.199 -7.468,-16.667 -16.667,-16.667c-9.198,0 -16.666,7.468 -16.666,16.667c-0,122.507 90.85,234.867 240.697,316c149.181,80.772 356.919,131.14 586.586,131.14c229.668,-0 437.406,-50.368 586.587,-131.14c149.846,-81.133 240.697,-193.493 240.697,-316c0,-9.199 -7.468,-16.667 -16.667,-16.667c-9.198,0 -16.666,7.468 -16.666,16.667Z" style="fill:#7e4021;"/><path d="M1038.64,3232.38c-8.768,104.538 15.888,288.768 51.75,464.402c28.823,141.16 64.793,276.754 95.949,360.697c17.447,47.006 34.662,78.519 47.6,88.903c66.329,53.243 132.195,83.345 173.575,116.575c22.168,17.803 36.838,36.138 36.838,61.904c-0,27.14 -11.946,52.881 -32.884,76.611c-25.889,29.342 -65.185,55.383 -114.193,77.001c-90.619,39.973 -213.934,64.404 -349.688,64.404c-135.755,0 -259.07,-24.431 -349.689,-64.404c-49.008,-21.618 -88.303,-47.659 -114.193,-77.001c-20.938,-23.73 -32.883,-49.471 -32.883,-76.611c-0,-26.684 15.829,-45.5 39.543,-63.754c43.981,-33.856 113.58,-64.308 182.545,-118.329c57.975,-45.413 123.799,-141.238 167.035,-341.696c29.002,-134.466 48.175,-316.897 48.429,-564.133c0.009,-9.198 -7.451,-16.674 -16.65,-16.683c-9.198,-0.01 -16.674,7.451 -16.683,16.649c-0.251,244.165 -19.038,424.343 -47.68,557.139c-40.674,188.58 -100.466,279.761 -155.006,322.483c-68.876,53.951 -138.398,84.344 -182.322,118.156c-32.989,25.393 -52.545,53.049 -52.545,90.168c0,71.435 62.635,138.093 166.957,184.11c94.122,41.518 222.14,67.24 363.142,67.24c141.002,-0 269.019,-25.722 363.141,-67.24c104.322,-46.017 166.957,-112.675 166.957,-184.11c0,-36.046 -18.286,-62.989 -49.299,-87.894c-41.382,-33.232 -107.25,-63.335 -173.581,-116.579c-3.845,-3.086 -7.749,-9.151 -12.289,-17.345c-7.726,-13.944 -16.104,-33.393 -24.926,-57.162c-30.729,-82.79 -66.114,-216.546 -94.541,-355.768c-35.135,-172.079 -59.783,-352.525 -51.192,-454.947c0.769,-9.166 -6.049,-17.232 -15.216,-18.001c-9.166,-0.769 -17.232,6.049 -18.001,15.215Z" style="fill:#7e4021;"/></g></svg>