<?xml version="1.0" encoding="UTF-8" standalone="no"?><!DOCTYPE svg PUBLIC "-//W3C//DTD SVG 1.1//EN" "http://www.w3.org/Graphics/SVG/1.1/DTD/svg11.dtd"><svg width="100%" height="100%" viewBox="0 0 4767 4730" version="1.1" xmlns="http://www.w3.org/2000/svg" xmlns:xlink="http://www.w3.org/1999/xlink" xml:space="preserve" xmlns:serif="http://www.serif.com/" style="fill-rule:evenodd;clip-rule:evenodd;stroke-linejoin:round;stroke-miterlimit:2;"><g id="Kettle-Walking"><path d="M3673.62,1940.1c-14.476,6.63 -48.862,4.229 -56.053,3.954c-210.105,-8.05 -431.121,-124.905 -559.955,-188.604c-136.471,-67.475 148.33,-140.295 288.67,-86.484c69.503,26.649 147.575,50.273 218.721,72.223c35.134,10.84 85.349,14.009 117.299,33.068c49.508,29.533 51.245,138.398 -8.682,165.843Z" style="fill:#7e4021;"/><path d="M3680.56,1955.25c35.585,-16.297 54.069,-56.09 55.1,-96.87c1.028,-40.639 -15.525,-80.964 -44.82,-98.439c-32.98,-19.674 -84.657,-23.492 -120.924,-34.681c-70.802,-21.844 -148.5,-45.339 -217.667,-71.859c-61.439,-23.558 -149.421,-24.223 -220.296,-11.405c-49.113,8.882 -90.009,24.613 -109.842,42.452c-12.27,11.037 -17.782,23.393 -17.192,35.616c0.749,15.54 12.739,34.221 45.306,50.323c130.348,64.448 354.13,182.174 566.704,190.318c8.173,0.313 47.178,2.08 63.631,-5.455l-0,0Zm-13.88,-30.306c-4.304,1.971 -11.041,2.49 -17.84,2.844c-13.078,0.681 -26.522,-0.234 -30.635,-0.392c-207.636,-7.955 -425.886,-123.939 -553.207,-186.89c-11.083,-5.479 -18.924,-10.744 -23.624,-16.204c-1.992,-2.313 -3.45,-4.3 -3.127,-6.514c0.455,-3.108 2.997,-5.715 6.156,-8.557c5.493,-4.941 13.17,-9.478 22.415,-13.733c63.037,-29.009 193.095,-41.802 273.497,-10.973c69.839,26.778 148.284,50.53 219.774,72.587c34.003,10.491 82.753,13.01 113.674,31.455c20.22,12.062 29.284,40.921 28.575,68.97c-0.706,27.904 -11.309,56.256 -35.658,67.407Z" style="fill:#7e4021;"/><path d="M3743.84,1708.14c24.279,19.431 58.379,166.152 -33.009,285.641c-11.788,15.414 -36.913,26.86 -56.64,24.052c-5.388,-0.767 -10.363,-2.83 -14.864,-5.946c-37.476,-25.942 -56.779,-83.925 -53.457,-156.656c3.659,-80.12 74.988,-213.504 157.97,-147.091Z" style="fill:#fff;"/><path d="M3754.26,1695.13c-20.399,-16.326 -40.396,-22.366 -59.098,-21.535c-18.684,0.831 -36.383,8.659 -52.271,21.659c-42.074,34.425 -71.286,107.115 -73.665,159.219c-3.643,79.768 19.518,142.668 60.62,171.12c6.656,4.608 14.034,7.608 22.001,8.742c25.126,3.577 57.213,-10.795 72.228,-30.427c67.651,-88.454 70.218,-191.032 56.898,-251.658c-6.541,-29.77 -17.888,-50.057 -26.713,-57.12l-0,-0Zm-20.829,26.025c1.584,1.267 2.929,3.752 4.54,6.868c3.929,7.6 7.581,18.346 10.445,31.379c11.871,54.031 9.473,145.425 -50.819,224.256c-8.562,11.196 -26.724,19.716 -41.053,17.677c-2.807,-0.4 -5.38,-1.525 -7.726,-3.149c-33.856,-23.437 -49.295,-76.486 -46.294,-142.192c1.69,-37.009 19.014,-86.318 45.493,-118.707c13.909,-17.013 30.167,-29.57 48.626,-30.391c11.731,-0.522 23.993,4.018 36.788,14.259l0,-0Z" style="fill:#7e4021;"/><path d="M4216.78,1707.01c-18.308,-9.959 54.912,-71.787 -28.822,-149.367c-119.439,-110.659 -394.969,30.271 -476.929,202.941c-58.941,124.176 -22.816,264.693 78.077,361.486c53.242,51.079 247.257,161.358 324.03,119.741c48.647,-26.37 30.01,-40.642 54.36,-69.405c10.406,-12.29 39.541,-15.609 61.018,-43.278c23.374,-30.112 -1.871,-63.089 15.941,-63.184c60.441,-0.323 83.28,-101.677 35.106,-159.734c0,-0 32.781,-3.631 40.579,-4.511c54.712,-6.171 141.118,-3.334 194.089,1.383c193.058,17.191 236.683,-45.268 235.454,-118.001c-2.26,-133.666 -408.091,-121.661 -498.635,-86.13c0,-0 -32.903,8.801 -34.268,8.059Z" style="fill:#fff;"/><path d="M4254.96,2081.78c25.841,-4.055 45.839,-22.643 57.144,-48.883c13.92,-32.306 14.034,-76.337 -4.053,-113.075c6.001,-0.667 11.363,-1.264 13.958,-1.557c53.769,-6.065 138.685,-3.213 190.743,1.422c123.581,11.005 189.301,-10.948 222.195,-45.139c23.725,-24.662 31.969,-56.163 31.401,-89.745c-0.782,-46.269 -40.988,-80.045 -103.193,-99.864c-128.555,-40.959 -350.713,-27.199 -417.148,-1.903l-9.985,2.451c0.912,-2.634 1.823,-5.305 2.638,-7.76c10.461,-31.522 18.414,-78.765 -39.374,-132.305c-51.739,-47.937 -130.307,-53.876 -211.905,-29.862c-117.262,34.51 -240.386,130.39 -291.408,237.882c-62.046,130.717 -24.613,278.766 81.596,380.659c38.502,36.938 148.2,103.968 237.797,126.04c41.911,10.325 79.743,10.405 105.714,-3.673c29.687,-16.093 38.226,-29.148 43.677,-41.914c3.912,-9.164 4.794,-18.775 15.461,-31.375c4.118,-4.865 12.367,-7.224 21.289,-11.835c13.098,-6.77 27.693,-15.913 40.174,-31.992c12.785,-16.471 14.703,-33.513 13.995,-47.851c-0.147,-2.965 -0.431,-6.569 -0.716,-9.721Zm-46.143,-360.126c1.236,0.673 5.195,2.711 11.563,1.82c6.705,-0.937 34.976,-8.419 34.976,-8.419c0.604,-0.161 1.199,-0.357 1.781,-0.585c61.646,-24.191 273.549,-36.753 395.898,2.229c24.511,7.81 45.296,17.615 59.912,30.261c12.236,10.586 19.814,23.144 20.072,38.407c0.416,24.606 -4.709,48.001 -22.094,66.071c-28.774,29.909 -87.113,44.674 -195.217,35.047c-53.884,-4.798 -141.78,-7.621 -197.435,-1.343c-7.791,0.879 -40.546,4.506 -40.546,4.506c-6.092,0.675 -11.322,4.64 -13.618,10.323c-2.296,5.683 -1.287,12.168 2.627,16.886c24.755,29.833 27.609,73.018 14.756,102.851c-7.233,16.786 -19.649,29.48 -37.125,29.574c-7.099,0.037 -11.904,2.377 -15.41,5.355c-4.717,4.006 -7.924,10.177 -8.047,19.08c-0.067,4.915 1.09,11.671 1.473,19.428c0.379,7.682 -0.184,16.943 -7.034,25.768c-11.014,14.19 -24.583,20.62 -35.439,25.976c-10.907,5.383 -19.771,10.419 -25.133,16.752c-8.878,10.487 -13.065,19.383 -16.158,27.573c-4.827,12.782 -5.74,22.942 -33.425,37.949c-10.021,5.432 -22.554,7.37 -36.61,7.163c-24.266,-0.358 -52.604,-7.274 -81.737,-17.668c-75.128,-26.803 -155.262,-76.929 -186.202,-106.611c-95.577,-91.694 -130.394,-224.679 -74.558,-342.312c47.33,-99.713 161.928,-188.185 270.705,-220.198c69.1,-20.336 136.025,-18.258 179.84,22.336c23.011,21.32 32.726,40.954 35.125,58.487c3.784,27.662 -9.364,49.475 -12.99,62.162c-4.532,15.855 0.13,25.736 10.05,31.132Z" style="fill:#7e4021;"/><path d="M4301.58,1908.1c-0.601,-0.825 -1.191,-1.577 -1.595,-1.967c-5.305,-5.125 -10.79,-10.127 -16.34,-14.981c-12.02,-10.513 -24.323,-20.765 -36.916,-30.582c-37.507,-29.237 -77.118,-54.511 -119.755,-75.595c-8.245,-4.078 -18.25,-0.694 -22.327,7.552c-4.078,8.245 -0.694,18.25 7.552,22.327c40.604,20.079 78.318,44.163 114.037,72.006c12.099,9.431 23.916,19.282 35.463,29.382c5.138,4.493 10.216,9.121 15.126,13.864c-0.639,-0.617 -2.148,-2.643 -2.148,-2.643c-0,0 5.721,7.001 7.455,7.976c2.201,1.238 4.395,1.854 6.476,2.081c3.394,0.37 6.677,-0.22 9.83,-1.92c2.366,-1.275 5.15,-3.348 7.193,-7.47c3.451,-6.961 1.58,-15.182 -4.051,-20.03Zm-15.673,-3.328c-3.648,0.84 -7.419,3.061 -10.141,8.553c2.132,-4.3 5.876,-7.275 10.141,-8.553Z" style="fill:#7e4021;"/><path d="M3907.27,1707.3c-8.375,9.21 -19.314,10.656 -28.914,11.069c-9.419,0.406 -18.118,-0.207 -24.609,0.455c-9.151,0.934 -15.822,9.121 -14.889,18.273c0.934,9.151 9.122,15.822 18.273,14.888c7.837,-0.799 19.009,0.395 30.703,-0.925c15.293,-1.726 31.121,-7.064 44.098,-21.334c6.188,-6.806 5.687,-17.355 -1.118,-23.544c-6.806,-6.189 -17.355,-5.688 -23.544,1.118Z" style="fill:#7e4021;"/><path d="M4200.8,1687.1c-0.463,0.892 -4.679,8.936 -8.502,14.591c-13.92,20.59 -37.27,48.582 -43.384,53.623c-45.799,37.761 -109.984,85.058 -172.553,81.604c-18.142,-1.002 -31.441,-6.149 -40.365,-14.748c-13.354,-12.866 -16.387,-32.568 -13.856,-52.758c3.164,-25.231 15.335,-51.502 32.101,-69.793c6.216,-6.78 5.757,-17.332 -1.024,-23.548c-6.78,-6.215 -17.332,-5.757 -23.548,1.024c-55.794,60.867 -68.041,186.872 44.855,193.105c70.463,3.891 144.017,-46.641 195.595,-89.167c6.957,-5.737 33.954,-37.243 49.794,-60.673c8.599,-12.719 13.56,-24.061 13.989,-29.539c0.718,-9.171 -6.144,-17.199 -15.315,-17.917c-8.794,-0.688 -16.537,5.594 -17.787,14.196Z" style="fill:#7e4021;"/><path d="M3961.76,2103.54c-48.608,-12.941 -91.299,-52.878 -100.759,-76.248c-7.619,-18.821 -10.693,-51.477 21.028,-61.163c14.984,-4.575 31.324,-2.106 48.268,4.43c19.334,7.457 39.244,20.224 58.906,35.807c62.026,49.158 120.992,126.084 150.008,165.981c5.41,7.439 15.842,9.086 23.282,3.676c7.439,-5.41 9.086,-15.842 3.676,-23.282c-30.188,-41.507 -91.733,-121.357 -156.261,-172.499c-47.168,-37.382 -96.598,-58.517 -137.614,-45.993c-55.75,17.023 -55.581,72.473 -42.191,105.551c11.685,28.863 63.046,79.968 123.081,95.951c8.889,2.367 18.027,-2.929 20.394,-11.818c2.366,-8.888 -2.929,-18.027 -11.818,-20.393Z" style="fill:#7e4021;"/><path d="M3933.75,2120.52c3.891,-5.458 4.242,-12.974 0.317,-18.889c-5.085,-7.664 -15.437,-9.759 -23.102,-4.673c-3.675,2.438 -7.212,6.679 -9.113,12.974c-2.585,8.558 -1.599,25.131 -1.676,30.197c-0.139,9.197 7.215,16.777 16.413,16.917c9.197,0.139 16.778,-7.215 16.917,-16.412l0.244,-20.114Z" style="fill:#7e4021;"/><path d="M3974.34,1952.08c-2.526,-6.447 -4.22,-13.369 -5.41,-20.181c-2.497,-14.301 -1.438,-29.787 11.123,-38.591c11.981,-8.397 26.163,-9.051 41.28,-5.286c18.331,4.566 37.786,15.398 57.228,29.455c62.127,44.915 123.112,122.73 144.298,157.796c4.757,7.873 15.01,10.404 22.884,5.647c7.873,-4.757 10.403,-15.011 5.646,-22.884c-26.38,-43.664 -110.844,-149.168 -187.331,-188.83c-37.992,-19.701 -74.42,-23.321 -103.136,-3.195c-23.708,16.616 -29.541,44.629 -24.828,71.621c1.569,8.989 3.877,18.102 7.21,26.609c3.356,8.565 13.034,12.793 21.599,9.438c8.564,-3.356 12.793,-13.034 9.437,-21.599Z" style="fill:#7e4021;"/><path d="M1534.64,4042.66c231.12,48.882 215.688,372.745 191.057,427.032c-52.995,116.798 -676.248,100.197 -832.003,-230.381c-124.998,-265.3 -86.538,-410.637 -38.908,-446.698c227.53,-30.883 421.185,-211.618 538.684,-210.895c31.023,0.191 98.971,152.232 112.473,211.882c8.312,36.722 -113.198,44.59 -85.441,161.388c22.296,93.812 -22.045,58.869 114.138,87.672Z" style="fill:#ffce7b;"/><path d="M1446.28,4010.12c-0.353,-2.125 -0.914,-5.734 -1.25,-8.918c-1.139,-10.798 -2.729,-26.558 -8.315,-50.062c-16.998,-71.527 31.659,-95.519 58.888,-115c8.166,-5.842 14.917,-11.505 19.39,-17.229c7,-8.958 9.593,-18.429 7.204,-28.984c-9.738,-43.019 -46.902,-132.704 -79.322,-182.695c-10.94,-16.869 -21.732,-29.435 -30.719,-35.652c-6.631,-4.587 -13.015,-6.488 -18.586,-6.522c-49.046,-0.302 -111.132,28.818 -182.785,66.984c-101.455,54.04 -223.767,125.809 -358.242,144.062c-2.841,0.386 -5.534,1.497 -7.819,3.227c-21.381,16.188 -42.352,51.438 -49.359,107.636c-9.606,77.048 6.321,196.176 83.25,359.453c45.185,95.903 128.071,166.59 225.603,215.592c143.966,72.33 319.744,97.321 448.961,88.539c56.794,-3.86 104.762,-14.328 137.683,-29.796c25.354,-11.912 42.328,-27.241 50.01,-44.171c12.927,-28.489 24.472,-127.709 1.43,-226.225c-23.327,-99.736 -81.423,-198.028 -204.215,-223.999l-0.001,0c-41.292,-8.733 -66.161,-11.677 -81.356,-14.067c-4.053,-0.637 -8.206,-1.61 -10.45,-2.173Zm-54.161,-411.725c0.956,0.671 3.844,2.752 5.678,4.595c5.351,5.379 11.103,13.116 17.111,22.379c30.44,46.938 65.437,131.003 74.706,171.617c-0.277,0.445 -1.032,1.615 -1.619,2.277c-1.425,1.605 -3.183,3.165 -5.153,4.765c-5.803,4.714 -13.161,9.507 -20.948,14.966c-20.733,14.538 -43.671,33.335 -55.003,62.85c-7.654,19.934 -10.243,44.866 -2.606,77.003c7.762,32.66 7.384,49.634 9.447,59.126c1.916,8.811 5.444,14.274 11.083,18.534c4.098,3.096 9.99,5.629 19.408,7.452c13.988,2.708 39.456,4.965 86.966,15.013c108.33,22.912 158.076,110.99 178.656,198.979c20.865,89.21 12.378,179.062 0.672,204.86c-5.039,11.106 -17.198,19.96 -33.83,27.775c-30.047,14.117 -73.932,23.186 -125.768,26.709c-124.255,8.444 -293.299,-15.516 -431.736,-85.069c-90.736,-45.587 -168.377,-110.792 -210.414,-200.013c-73.069,-155.083 -89.45,-267.941 -80.327,-341.122c5.138,-41.209 17.931,-68.881 33.289,-82.616c136.715,-19.804 261.373,-91.962 364.724,-147.012c65.071,-34.66 120.92,-62.827 165.664,-63.068Z" style="fill:#7e4021;"/><path d="M854.785,3792.62c-111.796,31.147 -112.995,205.192 -64.796,366.531c101.47,339.655 475.17,501.471 788.572,430.459c132.144,-29.941 153.239,-133.364 147.135,-119.911c-52.995,116.798 -676.248,100.197 -832.003,-230.381c-124.998,-265.3 -86.538,-410.637 -38.908,-446.698Z" style="fill:#fff;"/><path d="M864.845,3805.9c6.381,-4.83 8.427,-13.514 4.875,-20.685c-3.551,-7.171 -11.699,-10.806 -19.408,-8.658c-50.441,14.053 -81.645,53.251 -96.584,107.65c-20.537,74.786 -9.605,179.632 20.292,279.707c104.04,348.257 486.885,514.753 808.224,441.943c90.029,-20.399 132.082,-72.784 149.457,-104.788c8.956,-16.498 11.528,-28.92 11.589,-31.736c0.122,-5.635 -2.058,-8.977 -3.29,-10.657c-3.797,-5.179 -8.76,-7.081 -14.26,-6.836c-1.99,0.089 -10.435,0.415 -15.222,10.964c-5.039,11.106 -17.198,19.96 -33.83,27.775c-30.047,14.117 -73.932,23.186 -125.768,26.709c-124.255,8.444 -293.299,-15.516 -431.736,-85.069c-90.736,-45.587 -168.377,-110.792 -210.414,-200.013c-73.069,-155.083 -89.45,-267.941 -80.327,-341.122c5.482,-43.964 19.676,-72.52 36.402,-85.184Zm798.997,725.357c-20.593,17.088 -49.378,33.121 -88.964,42.091c-305.465,69.213 -670.019,-87.922 -768.919,-418.976c-27.943,-93.532 -39.282,-191.441 -20.088,-261.338c3.847,-14.006 8.946,-26.836 15.476,-38.12l-0.001,0.001c-2.505,9.806 -4.538,20.482 -5.98,32.045c-9.606,77.048 6.321,196.176 83.25,359.453c45.185,95.903 128.071,166.59 225.603,215.592c143.966,72.33 319.744,97.321 448.961,88.539c42.783,-2.907 80.557,-9.565 110.662,-19.287Z" style="fill:#7e4021;"/><path d="M1534.64,4042.66c231.12,48.882 279.215,311.153 191.057,427.032c-100.817,132.517 -443.99,69.619 -516.729,4.316c-17.429,-15.647 219.611,-230.502 325.672,-431.348Z" style="fill:#fff;"/><path d="M1538.09,4026.36c-7.285,-1.541 -14.709,1.938 -18.186,8.523c-84.332,159.699 -252.173,328.16 -306.99,397.178c-8.685,10.936 -14.751,19.743 -17.822,25.924c-2.397,4.824 -3.41,8.906 -3.638,11.979c-0.552,7.453 2.224,12.719 6.382,16.452c18.684,16.774 53.824,33.846 98.264,47.467c63.822,19.563 147.214,32.653 225.66,30.046c90.592,-3.01 174.255,-27.687 217.203,-84.14c37.699,-49.554 52.698,-124.026 40.584,-199.045c-17.962,-111.236 -94.907,-223.389 -241.457,-254.384Zm5.181,35.415c122.954,31.117 187.839,128.107 203.369,224.283c10.548,65.324 -1.378,130.399 -34.206,173.549c-37.707,49.563 -112.244,68.364 -191.781,71.007c-74.666,2.481 -154.038,-9.981 -214.784,-28.601c-32.932,-10.094 -60.275,-21.761 -77.676,-34.023c2.707,-4.165 6.623,-9.909 10.824,-15.198c54.194,-68.234 217.152,-232.773 304.254,-391.017Z" style="fill:#7e4021;"/><path d="M1421.54,4034.92c2.386,1.315 5.129,2.061 8.045,2.055c9.199,-0.016 16.653,-7.497 16.637,-16.696c-0.007,-3.777 -1.066,-9.092 -6.657,-13.407c-2.038,-1.573 -11.932,-4.824 -12.855,-5.041c-24.744,-5.819 -56.694,-4.959 -77.433,11.229c-7.251,5.66 -8.543,16.142 -2.883,23.393c5.66,7.251 16.142,8.543 23.393,2.883c13.134,-10.252 33.622,-8.742 49.292,-5.057l2.461,0.641Z" style="fill:#7e4021;"/><path d="M1399.23,3976.65c1.069,0.604 6.675,3.756 8.208,4.299c2.377,0.842 4.396,1.04 5.864,1.051c8.838,0.063 13.465,-4.709 15.812,-10.615c1.007,-2.535 2.879,-7.718 -1.11,-14.872c-2.479,-4.443 -6.694,-7.312 -11.327,-8.226c-1.898,-1.052 -4.168,-2.262 -5.251,-2.67c-4.691,-1.763 -9.475,-3.31 -14.312,-4.619c-17.197,-4.656 -37.295,-8.201 -55.031,-5.026c-9.055,1.621 -15.09,10.289 -13.469,19.343c1.621,9.055 10.288,15.09 19.343,13.469c13.058,-2.338 27.785,0.961 40.447,4.389c3.656,0.99 7.275,2.153 10.826,3.477Zm-2.301,-9.815c0.158,1.504 0.598,3.211 1.533,5.087c-0.801,-1.641 -1.307,-3.358 -1.533,-5.087Z" style="fill:#7e4021;"/><path d="M1420.66,3895.41c-0.895,-0.983 -2.087,-2.274 -2.42,-2.565c-13.639,-11.967 -31.52,-21.105 -48.115,-28.138c-8.469,-3.59 -18.259,0.372 -21.849,8.841c-3.59,8.469 0.372,18.26 8.841,21.849c13.442,5.697 28.092,12.811 39.139,22.504c-0.225,-0.198 -1.036,-1.005 -1.036,-1.005c-0,-0 8.344,7.428 10.687,8.201c4.795,1.582 8.947,0.9 12.314,-0.605c8.398,-3.753 12.169,-13.618 8.416,-22.016c-1.333,-2.984 -3.439,-5.384 -5.977,-7.066Z" style="fill:#7e4021;"/><path d="M1419.68,3841.64c0.977,1.398 6.267,8.954 7.326,10.316c6.559,8.426 15.081,6.647 16.007,6.5c9.085,-1.439 15.293,-9.983 13.854,-19.069c-0.493,-3.111 -1.819,-5.885 -3.716,-8.131c-1.094,-1.547 -7.473,-10.555 -8.2,-11.369c-8.743,-9.787 -18.659,-18.614 -28.093,-27.722c-6.618,-6.389 -17.178,-6.204 -23.567,0.414c-6.389,6.618 -6.203,17.178 0.415,23.567c8.699,8.398 17.878,16.498 25.974,25.494Z" style="fill:#7e4021;"/><path d="M2174.51,2810.44c-1.619,-10.466 208.547,-190.063 245.685,-103.965c37.013,85.805 62.101,145.199 63.416,148.829c92.427,255.001 -222.693,438.777 -270.841,475.544c-84.277,64.354 -682.775,454.644 -721.244,406.575c-23.131,-62.402 -52.92,-111.598 -66.985,-129.202c57.816,-37.339 428.676,-276.822 533.794,-354.953c131.345,-97.624 257.41,-176.217 216.175,-442.828Z" style="fill:#7e4021;"/><path d="M2158.04,2812.98c15.857,102.526 6.443,176.17 -19.2,233.593c-38.809,86.907 -114.003,136.494 -190.446,193.312c-104.938,77.997 -475.177,317.053 -532.894,354.328c-3.958,2.556 -6.649,6.669 -7.407,11.319c-0.758,4.65 0.487,9.404 3.428,13.085c13.554,16.964 42.089,64.459 64.378,124.592c0.619,1.67 1.502,3.23 2.615,4.621c4.834,6.04 13.253,10.557 26.045,10.333c15.546,-0.272 41.859,-8.376 75.378,-23.142c176.534,-77.77 575.172,-339.18 642.949,-390.934c29.388,-22.441 156.275,-99.024 232.992,-212.492c53.089,-78.52 82.444,-174.267 43.404,-281.977c-1.324,-3.652 -26.543,-63.421 -63.782,-149.751c-10.436,-24.195 -30.222,-34.095 -55.782,-33.312c-20.159,0.618 -44.692,8.78 -69.955,21.387c-56.546,28.219 -117.623,78.313 -139.285,100.534c-6.188,6.348 -9.719,11.428 -10.899,14.026c-1.981,4.363 -1.925,7.988 -1.539,10.478Zm-653.558,911.58c-18.605,-48.419 -40.81,-88.464 -56.239,-111.815c89.314,-57.72 421.417,-272.808 520.035,-346.107c81.172,-60.333 159.789,-114.191 200.998,-206.474c27.171,-60.845 38.403,-138.47 22.659,-245.924c16.127,-18.106 76.916,-68.628 132.712,-96.472c20.334,-10.147 39.867,-17.398 56.092,-17.895c10.828,-0.332 19.733,2.947 24.154,13.197c36.785,85.278 61.743,144.299 63.05,147.907c43.831,120.927 -10.024,224.692 -79.494,302.858c-72.288,81.339 -162.034,135.616 -185.793,153.759c-67.066,51.212 -461.474,309.967 -636.157,386.922c-20.752,9.142 -38.211,15.666 -51.421,18.687c-3.619,0.828 -7.832,1.197 -10.596,1.357Z" style="fill:#7e4021;"/><path d="M3357.54,1368.71c-188.614,-456.77 -510.892,-617.264 -733.145,-732.1c-95.19,-49.184 -171.715,-88.898 -208.429,-142.238c-21.286,-30.924 -27.818,-66.597 -15.736,-111.875c12.025,-45.062 41.658,-98.766 92.182,-165.581c18.213,-24.086 42.386,-55.009 69.175,-87.383c23.152,-27.977 48.262,-57.043 73.166,-83.699l18.8,-20.123l-26.548,-7.322c-116.73,-32.193 -216.538,-17.908 -320.637,10.729c-130.471,35.892 -267.894,94.841 -457.215,107.287c-95.528,6.28 -204.337,0.663 -332.265,-25.772c-219.492,-45.356 -472.664,4.639 -640.238,88.704c-79.555,39.909 -139.917,87.775 -169.75,136.373c-20.346,33.143 -27.065,66.909 -18.16,99.454c9.796,35.803 39.2,71.01 94.526,101.636c264.389,146.356 316.654,269.555 272.037,404.016c-42.829,129.074 -169.064,265.709 -276.493,434.797c-125.255,197.147 -225.748,437.05 -149.352,756.296c64.518,269.614 316.503,524.232 670.644,656.976c271.161,101.641 602.113,131.966 953.355,42.932c406.089,-102.937 701.41,-283.732 892.961,-496.152c271.639,-301.236 335.272,-666.3 211.122,-966.955l0,-0Zm-30.81,12.723c119.693,289.862 56.821,641.487 -205.067,931.909c-187.926,208.401 -477.992,385.174 -876.396,486.163c-343.911,87.176 -667.964,57.687 -933.466,-41.832c-342.367,-128.331 -587.552,-372.871 -649.925,-633.521c-73.821,-308.489 24.035,-540.16 145.069,-730.663c109.119,-171.749 236.492,-311.071 279.995,-442.175c48.431,-145.955 -0.542,-284.811 -287.531,-443.677c-45.044,-24.934 -70.542,-52.12 -78.518,-81.269c-8.611,-31.471 4.107,-63.944 30.69,-95.584c30.654,-36.484 79.518,-71.303 140.015,-101.652c161.903,-81.22 406.484,-129.676 618.546,-85.856c131.365,27.145 243.103,32.839 341.197,26.39c156.096,-10.261 277.57,-51.331 388.658,-86.017c118.772,-37.085 225.243,-67.024 351.306,-39.734c-18.967,21.079 -37.742,43.033 -55.397,64.367c-27.141,32.798 -51.63,64.127 -70.082,88.529c-116.035,153.45 -125.968,245.777 -77.316,316.46c39.055,56.741 119.327,100.634 220.588,152.954c217.338,112.296 533.191,268.539 717.634,715.207l0,0.001Z" style="fill:#7e4021;"/><path d="M3160.23,1065.07c95.296,256.302 -366.977,720.572 -873.596,583.64c-434.944,-117.559 -661.983,-316.757 -1163.98,-269.098c-325.257,30.88 -569.426,362.127 -476.987,748.416c112.331,469.417 805.016,890.083 1603.69,687.631c895.454,-226.983 1248,-834.666 1130.43,-1324.46c-9.497,-39.566 -66.473,-250.258 -219.565,-426.125Z" style="fill:#d9905f;"/><path d="M3172.8,1054.13l-60.085,-69.023l31.892,85.775c18.481,49.706 14.013,107.75 -8.065,167.435c-40.41,109.237 -139.505,223.38 -272.436,304.877c-156.82,96.143 -360.984,146.768 -573.125,89.43c-269.958,-72.966 -459.856,-177.355 -685.06,-234.707c-139.345,-35.487 -292.052,-53.197 -484.839,-34.894c-176.321,16.74 -329.61,118.979 -421.387,270.201c-82.337,135.668 -115.191,310.817 -70.234,498.686c64.518,269.614 316.503,524.232 670.644,656.976c271.161,101.641 602.113,131.966 953.355,42.932c377.146,-95.601 658.746,-258.353 850.395,-451.206c269.809,-271.504 361.858,-602.879 292.145,-893.305c-6.051,-25.208 -31.029,-118.789 -87.192,-229.133c-33.44,-65.699 -77.933,-137.329 -136.008,-204.044Zm16.422,73.511c36.421,48.866 66.044,98.825 89.879,145.653c54.372,106.824 78.629,197.39 84.487,221.794c67.305,280.397 -22.884,599.899 -283.377,862.028c-188.109,189.29 -464.762,348.556 -834.941,442.39c-343.911,87.176 -667.964,57.687 -933.466,-41.832c-342.367,-128.331 -587.552,-372.871 -649.925,-633.521c-42.694,-178.411 -11.88,-344.797 66.312,-473.635c86.293,-142.185 230.257,-238.571 396.041,-254.311c188.261,-17.873 337.389,-0.642 473.463,34.012c225.053,57.314 414.812,161.666 684.589,234.583c221.791,59.947 435.291,7.327 599.245,-93.19c140.015,-85.841 243.713,-206.672 286.276,-321.731c15.556,-42.054 22.996,-83.411 21.417,-122.239l-0,-0.001Z" style="fill:#7e4021;"/><path d="M3437.57,4290.37c103.768,-212.222 29.946,-455.041 -153.618,-485.55c-275.193,-45.737 -278.278,272.562 -376.126,395.544c-161.179,202.582 -437.834,215.348 -439.796,352.947c-1.497,104.903 156.03,214.027 447.342,129.944c159.18,-45.945 412.837,-169.222 522.198,-392.885Z" style="fill:#f0c8bd;"/><path d="M3452.55,4297.69c64.847,-132.622 62.484,-276.734 9.419,-377.654c-36.43,-69.282 -96.526,-118.569 -175.277,-131.658c-58.827,-9.777 -105.993,-3.681 -144.69,12.887c-57.821,24.755 -97.049,73.235 -127.329,130.237c-46.904,88.293 -71.473,197.64 -119.883,258.485c-95.144,119.584 -231.553,171.409 -325.582,223.401c-70.035,38.725 -116.973,79.185 -117.836,139.684c-0.67,46.969 26.216,95.274 80.698,129.612c75.656,47.682 206.812,68.86 387.931,16.583c162.468,-46.894 420.929,-173.294 532.549,-401.577Zm-29.945,-14.642c-107.103,219.044 -355.955,339.197 -511.848,384.193c-168.457,48.623 -290.547,31.591 -360.914,-12.757c-42.867,-27.017 -65.669,-63.98 -65.141,-100.936c0.33,-23.135 10.198,-41.938 26.378,-58.793c18.243,-19.006 44.06,-35.499 74.258,-52.196c97.118,-53.7 237.267,-108.305 335.537,-231.819c49.438,-62.137 75.335,-173.431 123.235,-263.6c26.601,-50.075 60.216,-93.485 111.011,-115.232c33.713,-14.434 74.855,-19.165 126.106,-10.647c68.099,11.318 119.736,54.377 151.239,114.288c48.832,92.871 49.813,225.455 -9.861,347.499Z" style="fill:#7e4021;"/><path d="M2492.3,4616.99c5.151,-37.248 8.432,-82.386 72.839,-115.916c107.455,-55.941 279.105,-116.327 387.176,-251.561c88.359,-110.566 76.49,-214.871 141.922,-297.556c89.314,-128.971 139.863,-129.102 189.717,-147.129c-275.193,-45.737 -278.278,272.562 -376.126,395.544c-161.179,202.582 -437.834,215.348 -439.796,352.947c-0.331,23.165 7.954,44.741 24.268,63.671Z" style="fill:#fff;"/><path d="M2479.68,4627.87c4.276,4.961 11.061,6.958 17.342,5.104c6.282,-1.853 10.895,-7.214 11.793,-13.702c4.576,-33.093 6.802,-73.626 64.025,-103.416c109.05,-56.771 282.825,-118.699 392.5,-255.939c45.665,-57.142 65.593,-112.585 82.396,-164.507c15.625,-48.28 28.131,-93.375 59.576,-133.111c0.22,-0.278 0.431,-0.563 0.632,-0.854c85.542,-123.525 133.934,-123.679 181.683,-140.944c7.128,-2.578 11.62,-9.641 10.93,-17.19c-0.69,-7.549 -6.387,-13.682 -13.865,-14.925c-58.827,-9.777 -105.993,-3.681 -144.69,12.887c-57.821,24.755 -97.049,73.235 -127.329,130.237c-46.904,88.293 -71.473,197.64 -119.883,258.485c-95.144,119.584 -231.553,171.409 -325.582,223.401c-70.035,38.725 -116.973,79.185 -117.836,139.684c-0.388,27.186 9.162,52.573 28.308,74.79Zm5.767,-62.712c-0.551,-3.805 -0.801,-7.675 -0.745,-11.602c0.33,-23.135 10.198,-41.938 26.378,-58.793c18.243,-19.006 44.06,-35.499 74.258,-52.196c97.118,-53.7 237.267,-108.305 335.537,-231.819c49.438,-62.137 75.335,-173.431 123.235,-263.6c26.601,-50.075 60.216,-93.485 111.011,-115.232c13.686,-5.859 28.596,-10.12 44.91,-12.544c-32.4,18.57 -70.198,52.002 -119.192,122.665c-33.747,42.841 -47.984,91.095 -64.817,143.11c-15.71,48.543 -34.028,100.536 -76.722,153.96c-106.468,133.228 -275.991,192.071 -381.852,247.182c-44.453,23.143 -62.975,51.092 -72.001,78.869Z" style="fill:#7e4021;"/><path d="M3402.02,4009.69c-55.978,-38.46 -117.847,-72.598 -178.946,-102.101c-8.283,-4 -18.256,-0.522 -22.256,7.761c-4,8.283 -0.522,18.256 7.761,22.256c59.597,28.778 119.964,62.044 174.565,99.558c7.582,5.209 17.966,3.283 23.175,-4.299c5.209,-7.581 3.283,-17.966 -4.299,-23.175Z" style="fill:#7e4021;"/><path d="M2985.65,4540.74c-34.304,-38.365 -76.777,-71.289 -121.052,-98.984c-7.798,-4.878 -18.09,-2.507 -22.968,5.291c-4.878,7.799 -2.507,18.091 5.291,22.969c41.62,26.035 81.633,56.878 113.88,92.942c6.131,6.857 16.677,7.447 23.534,1.315c6.857,-6.131 7.446,-16.676 1.315,-23.533Z" style="fill:#7e4021;"/><path d="M3396.51,4141.31c-74.99,-58.998 -160.793,-109.208 -246.994,-151.248c-8.268,-4.032 -18.254,-0.594 -22.286,7.674c-4.032,8.268 -0.594,18.254 7.674,22.286c84.094,41.012 167.839,89.93 240.995,147.486c7.229,5.687 17.716,4.436 23.404,-2.794c5.688,-7.229 4.436,-17.716 -2.793,-23.404Z" style="fill:#7e4021;"/><path d="M3288.09,4338.15c-67.035,-56.257 -144.887,-103.818 -223.666,-143.425c-8.218,-4.131 -18.245,-0.814 -22.377,7.405c-4.132,8.218 -0.814,18.245 7.404,22.377c76.488,38.454 152.126,84.556 217.211,139.176c7.046,5.913 17.568,4.993 23.481,-2.053c5.913,-7.046 4.993,-17.567 -2.053,-23.48Z" style="fill:#7e4021;"/><path d="M3204.67,4417.59c-63.373,-51.202 -134.133,-97.868 -204.37,-138.967c-7.939,-4.646 -18.156,-1.972 -22.802,5.967c-4.646,7.939 -1.972,18.157 5.968,22.802c68.815,40.268 138.164,85.96 200.255,136.126c7.155,5.781 17.657,4.666 23.438,-2.489c5.781,-7.155 4.666,-17.658 -2.489,-23.439Z" style="fill:#7e4021;"/><path d="M3105.22,4471.37c-50.894,-43.794 -111.541,-78.992 -173.67,-107.061c-8.383,-3.787 -18.263,-0.056 -22.05,8.327c-3.787,8.382 -0.056,18.263 8.326,22.05c59.234,26.761 117.13,60.197 165.652,101.95c6.972,6 17.504,5.211 23.504,-1.762c6,-6.972 5.21,-17.504 -1.762,-23.504Z" style="fill:#7e4021;"/><path d="M3389.78,4267.56c-83.313,-74.12 -186.091,-129.627 -292.994,-171.093c-8.576,-3.327 -18.239,0.935 -21.566,9.511c-3.326,8.576 0.936,18.239 9.512,21.566c103.173,40.02 202.485,93.386 282.891,164.92c6.873,6.114 17.416,5.498 23.531,-1.374c6.114,-6.873 5.498,-17.416 -1.374,-23.53Z" style="fill:#7e4021;"/><path d="M2830.58,3920.18c87.618,-219.384 404.093,-148.893 453.378,-115.356c-276.879,-34.079 -278.278,272.562 -376.126,395.544c-161.179,202.582 -386.489,183.71 -439.685,347.001c8.411,-229.461 -136.612,-451.127 -115.842,-566.778c5.484,-30.535 166.892,-71.531 227.972,-74.652c37.602,-1.922 24.611,119.148 144.433,111.736c96.242,-5.953 54.243,31.772 105.87,-97.495Z" style="fill:#ffce7b;"/><path d="M2783.43,4001.68c-2.154,-0.015 -5.806,-0.078 -9,-0.291c-10.834,-0.721 -26.634,-1.845 -50.747,-0.354c-73.379,4.54 -88.713,-47.499 -103.259,-77.654c-4.362,-9.043 -8.79,-16.662 -13.666,-22.047c-7.632,-8.427 -16.521,-12.598 -27.329,-12.045c-44.05,2.25 -138.762,23.559 -193.554,46.97c-18.49,7.9 -32.713,16.388 -40.373,24.182c-5.651,5.751 -8.615,11.716 -9.6,17.199c-8.669,48.275 9.425,114.42 34.799,191.538c35.928,109.19 85.764,241.958 80.793,377.576c-0.305,8.306 5.557,15.567 13.741,17.02c8.183,1.454 16.187,-3.344 18.761,-11.247c25.175,-77.275 92.202,-110.163 170.877,-148.983c85.005,-41.945 183.59,-89.221 266.003,-192.804c49.432,-62.129 74.883,-170.47 122.564,-259.154c44.134,-82.089 109.011,-146.161 238.484,-130.225c7.637,0.94 14.924,-3.47 17.635,-10.671c2.71,-7.201 0.139,-15.321 -6.222,-19.65c-25.865,-17.6 -121.658,-45.913 -222.661,-40.027c-102.254,5.959 -209.021,46.423 -255.572,162.98l-0,-0c-15.654,39.195 -22.8,63.197 -27.749,77.761c-1.32,3.885 -2.988,7.811 -3.925,9.926Zm-414.927,-16.918c0.825,-0.829 3.367,-3.319 5.497,-4.811c6.213,-4.354 14.819,-8.702 24.971,-13.039c51.446,-21.981 140.251,-42.114 181.851,-44.314c0.391,0.348 1.415,1.293 1.967,1.984c1.339,1.678 2.575,3.676 3.816,5.89c3.654,6.523 7.12,14.592 11.17,23.196c10.785,22.911 25.39,48.721 52.538,64.925c18.335,10.944 42.459,17.752 75.428,15.712c33.505,-2.072 50.166,1.198 59.871,0.785c9.009,-0.383 14.993,-2.927 20.153,-7.756c3.751,-3.51 7.252,-8.883 10.656,-17.851c5.056,-13.32 11.628,-38.03 29.639,-83.127l-0,0c41.068,-102.828 136.345,-136.809 226.556,-142.066c40.339,-2.351 79.826,0.946 113.376,6.732c-83.992,17.638 -134.58,75.344 -171.911,144.779c-46.701,86.862 -70.873,193.333 -119.29,254.186c-94.978,119.376 -212.981,159.946 -303.192,208.348c-43.848,23.527 -81.412,48.951 -108.222,84.213c-8.964,-116.651 -49.797,-228.918 -81.012,-323.789c-23.043,-70.032 -41.263,-129.869 -33.862,-173.997Z" style="fill:#7e4021;"/><path d="M2830.58,3920.18c87.618,-219.384 404.093,-148.893 453.378,-115.356c-145.982,-17.968 -215.386,58.78 -262.722,153.386c-10.48,20.946 -84.539,-22.461 -190.656,-38.03Z" style="fill:#fff;"/><path d="M2815.1,3914c-1.892,4.737 -1.51,10.08 1.036,14.5c2.546,4.42 6.976,7.431 12.023,8.172c73.874,10.838 132.109,35.311 163.987,41.834c11.518,2.356 20.609,2.434 26.969,0.716c8.127,-2.195 13.656,-6.82 17.024,-13.552c44.347,-88.633 109.016,-161.135 245.781,-144.302c7.637,0.94 14.924,-3.47 17.635,-10.671c2.71,-7.201 0.139,-15.321 -6.222,-19.65c-25.865,-17.6 -121.658,-45.913 -222.661,-40.027c-102.254,5.959 -209.021,46.423 -255.572,162.98Zm193.116,33.016c-1.468,-0.036 -3.409,-0.134 -4.995,-0.374c-5.236,-0.795 -11.445,-2.336 -18.564,-4.332c-30.33,-8.504 -75.267,-24.809 -129.989,-35.005l-0,-0c44.732,-88.036 133.555,-118.09 217.944,-123.008c40.328,-2.35 79.805,0.944 113.349,6.728c-88.483,18.572 -139.892,81.597 -177.745,155.991Z" style="fill:#7e4021;"/><path d="M2803.64,4030.29c1.703,-2.126 2.906,-4.702 3.399,-7.576c1.554,-9.066 -4.545,-17.689 -13.611,-19.243c-3.723,-0.638 -9.141,-0.502 -14.347,4.271c-1.898,1.74 -6.79,10.933 -7.162,11.805c-9.957,23.387 -14.564,55.015 -2.154,78.214c4.34,8.11 14.447,11.173 22.558,6.834c8.111,-4.339 11.173,-14.447 6.834,-22.558c-7.859,-14.691 -2.875,-34.621 3.431,-49.432l1.052,-2.315Z" style="fill:#7e4021;"/><path d="M2717.45,4020.3c-1.361,1.69 -2.941,3.72 -3.527,4.718c-2.538,4.321 -4.88,8.771 -6.996,13.313c-7.523,16.15 -14.446,35.348 -14.345,53.365c0.051,9.199 7.561,16.625 16.76,16.574c9.198,-0.052 16.624,-7.562 16.573,-16.76c-0.075,-13.265 5.69,-27.214 11.228,-39.104c1.6,-3.434 3.364,-6.801 5.275,-10.074c0.778,-0.95 4.84,-5.935 5.637,-7.353c1.235,-2.199 1.775,-4.154 2.036,-5.599c1.571,-8.697 -2.341,-14.072 -7.76,-17.392c-2.326,-1.425 -7.112,-4.154 -14.843,-1.444c-4.801,1.683 -8.347,5.347 -10.038,9.756Zm20.178,21.982c-1.754,0.509 -3.531,0.714 -5.274,0.642c1.509,0.102 3.266,-0.042 5.274,-0.642Z" style="fill:#7e4021;"/><path d="M2666.03,4007.34c-1.121,0.714 -2.596,1.668 -2.941,1.946c-14.119,11.396 -26.175,27.455 -35.938,42.606c-4.983,7.732 -2.751,18.055 4.982,23.037c7.732,4.983 18.055,2.751 23.037,-4.981c7.908,-12.272 17.418,-25.493 28.855,-34.723c-0.234,0.188 -1.167,0.849 -1.167,0.849c-0,0 8.744,-6.954 9.905,-9.13c2.378,-4.455 2.414,-8.662 1.506,-12.237c-2.265,-8.915 -11.341,-14.315 -20.257,-12.05c-3.167,0.804 -5.891,2.469 -7.982,4.683Z" style="fill:#7e4021;"/><path d="M2608.36,3964.39c-1.711,0.813 -11.676,5.561 -12.602,6.138c-11.136,6.944 -21.526,15.207 -32.111,22.949c-7.425,5.43 -9.045,15.866 -3.615,23.291c5.43,7.425 15.867,9.045 23.292,3.615c9.76,-7.138 19.307,-14.8 29.553,-21.242c1.545,-0.724 9.893,-4.645 11.416,-5.457c9.422,-5.024 9.123,-13.725 9.137,-14.662c0.133,-9.198 -7.226,-16.773 -16.424,-16.906c-3.15,-0.046 -6.11,0.788 -8.646,2.274Z" style="fill:#7e4021;"/><path d="M2846.88,4613.98c-42.531,22.812 -102.3,37.353 -150.123,33.218c-27.936,-2.415 -51.897,-10.714 -62.74,-30.505c-7.194,-13.131 -8.066,-30.748 -2.018,-53.579c2.355,-8.892 -2.952,-18.023 -11.844,-20.379c-8.892,-2.355 -18.023,2.952 -20.378,11.844c-8.831,33.338 -5.498,58.956 5.007,78.13c10.841,19.788 29.616,33.313 53.564,40.912c62.598,19.863 163.283,-2.624 221.24,-40.259c4.962,-3.222 7.887,-7.909 8.194,-14.342c0.129,-2.694 -0.302,-6.308 -2.341,-10.476c-1.533,-3.136 -4.691,-7.645 -9.48,-12.92c-25.308,-27.877 -104.957,-89.986 -134.84,-102.268c-8.508,-3.496 -18.255,0.572 -21.751,9.08c-3.497,8.508 0.571,18.255 9.08,21.751c21.568,8.865 71.108,46.481 102.61,74.417c5.66,5.02 11.352,10.713 15.82,15.376Z" style="fill:#7e4021;"/><path d="M2145.93,2732.44c92.469,219.145 213.312,599.63 416.913,1171.51c-23.594,7.187 -71.171,6.213 -181.614,50.326c-34.705,15.507 -291.836,-796.85 -419.502,-1154.16" style="fill:#d9905f;"/><path d="M2384.56,3935.05c-5.979,-10.675 -20.252,-37.079 -32.632,-66.937c-87.616,-211.303 -272.446,-787.969 -374.504,-1073.61c-3.095,-8.662 -12.64,-13.182 -21.302,-10.087c-8.663,3.095 -13.183,12.641 -10.088,21.303c102.208,286.055 287.359,863.546 375.103,1075.16c18.937,45.671 34.514,75.114 43.488,83.523c8.701,8.154 17.078,7.766 23.005,5.26c109.461,-43.696 156.667,-42.643 180.071,-49.772c4.357,-1.327 7.981,-4.379 10.029,-8.447c2.049,-4.067 2.344,-8.796 0.816,-13.087c-203.757,-572.313 -324.719,-953.082 -417.259,-1172.39c-3.576,-8.475 -13.36,-12.452 -21.835,-8.876c-8.475,3.576 -12.452,13.36 -8.876,21.835c91.436,216.696 210.612,591.278 410.239,1152.83c-26.939,4.73 -72.964,10.903 -156.255,43.302Z" style="fill:#7e4021;"/><path d="M2054.57,1473.97l-0.974,0.949c-7.53,7.035 -18.278,15.313 -30.194,23.961c-31.763,23.052 -71.427,48.43 -85.68,60.528c-5.589,4.745 -8.549,9.016 -9.623,11.442c-1.617,3.654 -1.793,6.914 -1.464,9.581c8.86,71.793 83.877,216.033 164.209,293.343c37.376,35.969 76.486,57.117 110.514,54.634c35.688,-2.604 61.319,-31.653 73.926,-81.912c16.005,-63.802 12.297,-163.926 -6.503,-273.172c-32.634,-189.63 -110.476,-406.727 -203.002,-507.347c-43.936,-47.779 -91.783,-69.934 -139.427,-57.593c-49.138,12.728 -74.898,61.151 -82.937,111.381c-19.022,118.841 11.291,215.951 40.478,285.796c1.993,4.77 6.087,8.345 11.082,9.678c16.94,4.519 90.921,28.044 136.984,47.594c8.217,3.487 16.663,7.878 22.611,11.137Z" style="fill:#7e4021;"/><path d="M2797.63,1237.15l-0.975,0.948c-7.53,7.035 -18.277,15.313 -30.193,23.961c-31.764,23.052 -71.427,48.43 -85.68,60.529c-5.59,4.744 -8.55,9.015 -9.623,11.441c-1.618,3.654 -1.794,6.914 -1.465,9.581c8.86,71.793 83.878,216.034 164.21,293.344c37.375,35.969 76.485,57.117 110.514,54.633c35.687,-2.604 61.319,-31.652 73.926,-81.912c16.004,-63.802 12.297,-163.926 -6.503,-273.171c-32.634,-189.63 -110.476,-406.728 -203.002,-507.347c-43.936,-47.779 -91.783,-69.935 -139.428,-57.593c-49.137,12.728 -74.897,61.15 -82.937,111.38c-19.021,118.841 11.292,215.951 40.479,285.797c1.993,4.77 6.087,8.345 11.082,9.677c16.939,4.519 90.92,28.044 136.983,47.594c8.218,3.488 16.664,7.878 22.612,11.138Z" style="fill:#7e4021;"/><path d="M2502.26,1610.72c33.445,16.926 75.128,13.681 104.821,-10.993c32.207,-26.763 43.291,-66.881 34.472,-104.526c-21.58,-92.124 -145.634,-96.565 -179.261,-9.531c-3.315,8.581 0.96,18.239 9.54,21.554c8.581,3.315 18.238,-0.96 21.553,-9.54c21.697,-56.157 101.789,-54.321 115.714,5.12c6.009,25.654 -1.374,53.048 -23.322,71.286c-19.386,16.109 -46.63,17.939 -68.466,6.889c-8.207,-4.154 -18.243,-0.862 -22.396,7.345c-4.154,8.207 -0.863,18.243 7.345,22.396Z" style="fill:#7e4021;"/><path d="M1995.62,1829.13c183.867,-302.836 718.935,-37.366 482.713,321.087c-58.019,88.04 -172.181,121.321 -274.053,128.8" style="fill:#d9905f;"/><path d="M2009.86,1837.78c83.198,-137.031 242.855,-149.909 361.588,-89.627c78.914,40.066 140.199,112.559 148.438,203.457c5.189,57.259 -10.726,121.529 -55.477,189.436c-55.211,83.779 -164.415,114.232 -261.356,121.349c-9.174,0.673 -16.075,8.668 -15.402,17.842c0.674,9.174 8.669,16.075 17.842,15.402c106.805,-7.841 225.921,-43.948 286.749,-136.251c49.739,-75.475 66.609,-147.146 60.841,-210.787c-9.294,-102.54 -77.524,-184.973 -166.545,-230.17c-133.169,-67.612 -311.857,-51.643 -405.171,102.05c-4.774,7.863 -2.266,18.122 5.597,22.896c7.862,4.774 18.122,2.266 22.896,-5.597Z" style="fill:#7e4021;"/><path d="M2503.52,1835.18c-1.776,0.181 81.812,7.102 139.674,-28.223c69.647,-42.519 76.379,-86.154 81.634,-89.384c5.214,-3.205 -5.376,62.464 66.938,165.736c58.507,83.555 197.253,90.699 156.116,243.891c-37.566,139.897 -277.511,229.33 -477.521,41.729c140.409,-175.278 37.093,-325.099 33.159,-333.749Z" style="fill:#7e4021;"/><path d="M2506.14,1818.73l0.516,0.043c11.843,0.868 79.548,3.458 127.854,-26.033c51.012,-31.142 65.322,-62.786 71.404,-75.773c3.759,-8.028 7.808,-12.122 10.187,-13.585c6.46,-3.97 12.216,-3.261 17.305,-0.467c2.658,1.459 6.625,4.366 8.592,11.003c2.653,8.953 0.299,69.695 63.421,159.839c22.317,31.871 57.196,51.702 88.122,73.832c32.194,23.038 60.368,48.393 72.369,86.473c8.021,25.451 8.987,56.813 -1.93,97.468c-12.272,45.701 -44.104,86.666 -88.919,115.814c-100.945,65.656 -268.927,71.792 -416.101,-66.251c-6.346,-5.952 -7.045,-15.785 -1.605,-22.576c133.104,-166.16 34.724,-308.229 30.995,-316.43l1.662,0.955c-2.932,-5.607 -2.714,-11.787 -2.659,-12.003c0.531,-2.062 2.692,-11.232 14.48,-12.432c1.46,-0.149 2.906,-0.103 4.307,0.123Zm210.494,-55.074c7.768,30.741 24.68,76.666 61.48,129.221c24.49,34.974 62.092,57.535 96.029,81.82c26.185,18.738 50.214,38.412 59.975,69.384c6.487,20.583 6.498,45.927 -2.331,78.805c-10.268,38.238 -37.404,72.127 -74.9,96.515c-88.566,57.604 -233.865,61.784 -363.926,-52.455c104.868,-140.823 63.166,-264.164 38.629,-314.707c31.176,-1.131 81.192,-7.18 120.289,-31.049c30.873,-18.847 51.493,-40.09 64.755,-57.534Zm-206.699,56.161c2.573,1.066 4.858,2.773 6.618,4.983c-1.09,-1.466 -3.046,-3.562 -6.618,-4.983Z" style="fill:#7e4021;"/><path d="M2470.36,2168.93c31.39,-39.186 51.934,-82.358 70.87,-151.186c43.479,-158.038 428.39,28.504 406.651,109.457c-37.566,139.897 -277.511,229.33 -477.521,41.729Z" style="fill:#ee909d;"/><path d="M2457.36,2158.51c-5.44,6.791 -4.741,16.624 1.605,22.576c147.174,138.043 315.156,131.907 416.101,66.251c44.815,-29.148 76.647,-70.113 88.919,-115.814c4.361,-16.239 -1.576,-36.317 -18.312,-56.88c-30.516,-37.493 -98.43,-80.335 -170.816,-107.403c-62.874,-23.511 -128.957,-34.863 -176.657,-22.722c-36.041,9.174 -62.595,30.865 -73.033,68.805c-18.172,66.053 -37.683,107.581 -67.807,145.187Zm35.551,8.381c27.445,-37.602 46.68,-80.332 64.396,-144.726c8.891,-32.317 36.007,-45.926 70.246,-48.765c39.762,-3.297 88.635,7.489 135.629,25.062c57.085,21.346 111.453,52.854 143.472,83.196c9.598,9.095 17.097,17.954 21.603,26.391c2.894,5.419 4.742,10.334 3.535,14.83c-10.268,38.238 -37.404,72.127 -74.9,96.515c-88.578,57.612 -233.906,61.785 -363.981,-52.503l-0,0Z" style="fill:#7e4021;"/><path d="M2946.2,2254.1c-2.121,1.367 -3.959,3.239 -5.32,5.564c-4.721,8.065 -1.609,13.949 -0.397,16.256c2.206,4.198 5.696,7.243 10.949,8.478c2.099,0.493 5.85,1.126 10.652,-1.014c1.045,-0.466 9.839,-7.492 11.514,-9.109c7.542,-7.284 14.315,-15.639 20.832,-23.831c16.546,-20.801 30.503,-41.626 40.111,-66.52c3.312,-8.582 -0.966,-18.238 -9.547,-21.55c-8.582,-3.312 -18.238,0.966 -21.55,9.547c-8.362,21.664 -20.701,39.67 -35.101,57.772c-5.619,7.064 -11.397,14.323 -17.9,20.604c-0.529,0.51 -3.073,2.768 -4.243,3.803Zm25.103,9.483c1.183,4.203 0.721,8.86 -1.656,12.92c3.346,-5.716 2.53,-10.263 1.656,-12.92Z" style="fill:#7e4021;"/><path d="M2763.45,1640.04c183.867,-302.836 718.935,-37.366 482.713,321.087" style="fill:#d9905f;"/><path d="M2777.7,1648.69c83.198,-137.031 242.855,-149.909 361.588,-89.627c78.914,40.066 140.199,112.559 148.438,203.457c5.189,57.259 -10.726,121.529 -55.477,189.436c-5.062,7.681 -2.935,18.026 4.746,23.088c7.68,5.061 18.026,2.935 23.087,-4.746c49.739,-75.475 66.609,-147.146 60.841,-210.787c-9.294,-102.54 -77.524,-184.973 -166.545,-230.17c-133.169,-67.612 -311.857,-51.643 -405.171,102.05c-4.774,7.863 -2.266,18.122 5.596,22.896c7.863,4.774 18.123,2.266 22.897,-5.597Z" style="fill:#7e4021;"/><path d="M2000.39,2582.51c-14.192,7.219 -48.647,6.233 -55.843,6.253c-210.258,0.589 -435.888,-107.088 -567.231,-165.441c-139.127,-61.811 -208.368,-148.563 -217.588,-191.874c-19.291,-90.621 39.203,-150.248 142.743,-98.872c15.368,7.625 217.287,144.477 359.719,192.476c70.539,23.772 149.515,44.168 221.503,63.177c35.55,9.388 85.853,10.491 118.559,28.222c50.679,27.474 56.887,136.175 -1.862,166.059Z" style="fill:#7e4021;"/><path d="M2007.95,2597.37c34.885,-17.746 51.719,-58.264 51.074,-99.053c-0.643,-40.646 -18.838,-80.257 -48.826,-96.514c-33.76,-18.302 -85.551,-19.994 -122.247,-29.684c-71.639,-18.917 -150.237,-39.2 -220.435,-62.857c-141.648,-47.735 -342.351,-184.028 -357.634,-191.612c-59.557,-29.552 -106.215,-24.769 -135.153,-1.976c-29.324,23.096 -42.544,66.428 -31.299,119.248c4.077,19.151 18.265,46.282 44.271,75.962c36.46,41.61 96.606,89.356 182.851,127.673c132.886,59.039 361.315,167.473 574.045,166.877c8.178,-0.023 47.223,0.14 63.353,-8.064Zm-15.113,-29.711c-4.22,2.147 -10.93,2.942 -17.708,3.575c-13.039,1.217 -26.51,0.855 -30.625,0.867c-207.789,0.581 -430.619,-106.339 -560.418,-164.006c-80.707,-35.857 -137.196,-80.241 -171.314,-119.179c-21.047,-24.019 -33.44,-45.436 -36.739,-60.935c-8.05,-37.814 -1.673,-69.586 19.32,-86.121c21.382,-16.841 55.708,-16.186 99.713,5.65c15.452,7.667 218.588,145.076 361.805,193.34c70.88,23.887 150.234,44.397 222.57,63.498c34.405,9.085 83.218,9.599 114.87,26.759c20.699,11.221 30.94,39.683 31.384,67.738c0.441,27.909 -8.988,56.672 -32.858,68.814l-0,0Z" style="fill:#7e4021;"/><path d="M2061.03,2347.87c25.056,18.417 65.155,163.613 -21.247,286.756c-11.145,15.885 -35.778,28.354 -55.604,26.359c-5.415,-0.545 -10.47,-2.402 -15.096,-5.33c-38.51,-24.381 -60.178,-81.522 -59.847,-154.328c0.364,-80.203 66.154,-216.404 151.794,-153.457Z" style="fill:#fff;"/><path d="M2070.91,2334.44c-21.052,-15.474 -41.28,-20.688 -59.932,-19.088c-18.634,1.597 -35.997,10.146 -51.337,23.787c-40.625,36.125 -66.826,109.953 -67.063,162.111c-0.363,79.85 25.363,141.746 67.599,168.486c6.84,4.33 14.335,7.025 22.342,7.831c25.251,2.541 56.721,-13.138 70.916,-33.369c63.961,-91.159 62.312,-193.756 46.512,-253.784c-7.758,-29.475 -19.929,-49.279 -29.037,-55.974Zm-19.742,26.859c1.635,1.201 3.081,3.628 4.818,6.676c4.238,7.432 8.329,18.019 11.726,30.924c14.08,53.497 15.439,144.912 -41.563,226.154c-8.096,11.538 -25.892,20.797 -40.292,19.348c-2.822,-0.284 -5.439,-1.303 -7.849,-2.829c-34.791,-22.026 -52.396,-74.396 -52.097,-140.17c0.169,-37.048 15.452,-87.026 40.578,-120.476c13.198,-17.57 28.926,-30.784 47.336,-32.363c11.701,-1.003 24.138,3.029 37.343,12.736Z" style="fill:#7e4021;"/><path d="M2160.88,2259.78c134.257,-81.207 283.82,-64.683 324.904,-63.642c70.809,1.794 121.062,79.841 135.647,83.114c103.356,23.189 438.924,-16.031 436.119,164.52c-0.434,27.931 -17.079,51.7 -38.512,67.845c-106.081,79.91 -360.961,-29.41 -392.22,-6.942c-8.597,6.179 1.186,24.785 -13.337,51.007c-20.101,36.292 -40.377,23.179 -53.549,43.632c-8.993,13.965 16.36,63.197 0.153,97.598c-19.687,41.787 -51.478,28.832 -69.126,49.217c-11.889,13.734 -3.336,45.305 -18.241,63.188c-3.412,4.094 -7.207,7.805 -11.466,10.951c-25.728,19.007 -175.899,32.804 -275.317,-24.76c-223.069,-129.158 -232.686,-410.139 -25.055,-535.728Z" style="fill:#fff;"/><path d="M2574.75,2607.17c4.272,-5.618 10.005,-5.976 15.718,-8.337c11.74,-4.854 24.798,-11.997 37.585,-35.083c8.857,-15.992 10.414,-29.631 10.956,-40.245c0.076,-1.495 0.186,-3.262 0.292,-4.856c4.008,-0.098 10.527,-0.107 16.125,0.583c22.047,2.714 53.39,10.031 88.975,17.499c55.515,11.651 120.957,23.592 178.494,20.8c41.075,-1.992 78.242,-11.576 106.163,-32.609c25.452,-19.173 44.633,-47.729 45.148,-80.898c1.25,-80.408 -56.02,-123.313 -134.669,-145.529c-105.295,-29.742 -249.62,-21.71 -312.738,-35.142l-27.512,-26.306c-26.967,-25.792 -66.175,-56.389 -113.089,-57.577c-42.243,-1.07 -195.907,-17.456 -333.952,66.042l0,0c-109.589,66.287 -161.586,173.728 -157.011,281.494c4.551,107.192 65.23,215.111 182.341,282.919c72.819,42.163 171.601,48.074 233.586,40.803c29.4,-3.449 51.047,-10.458 59.986,-17.061c5.329,-3.938 10.095,-8.564 14.365,-13.687c9.536,-11.441 12.479,-26.968 14.029,-42.124c0.541,-5.296 0.953,-10.481 1.939,-15.104c0.468,-2.191 0.812,-4.267 2.071,-5.721c3.261,-3.767 7.499,-5.363 11.891,-6.899c4.799,-1.677 9.85,-3.078 14.943,-4.908c15.961,-5.735 32.314,-14.78 44.768,-41.216c11.197,-23.767 6.373,-53.66 1.994,-77.262c-1.356,-7.306 -2.213,-17.271 -2.398,-19.576Zm-405.252,-333.136c130.469,-78.916 275.931,-62.253 315.856,-61.242c44.895,1.138 79.995,37.292 101.949,59.195c8.002,7.984 14.563,14.464 19.39,18.048c4.263,3.166 8.104,4.804 11.082,5.472c61.836,13.874 207.044,5.222 312.701,35.067c62.644,17.694 111.396,48.886 110.401,112.932c-0.353,22.695 -14.46,41.673 -31.875,54.792c-27.063,20.386 -64.937,26.538 -105.809,26.31c-66.162,-0.368 -140.025,-18.112 -194.501,-29.556c-29.292,-6.154 -53.398,-10.444 -68.607,-10.145c-10.53,0.207 -18.197,2.773 -23.002,6.228c-6.218,4.469 -9.752,11.001 -10.772,20.549c-0.838,7.835 1.201,20.354 -7.418,35.916c-11.24,20.294 -23.021,20.651 -32.404,25.002c-7.652,3.548 -14.57,8.354 -20.577,17.681c-4.225,6.561 -5.571,17.95 -3.324,32.334c1.628,10.422 4.672,23.249 5.892,36.404c0.979,10.544 0.942,21.395 -3.48,30.781c-8.964,19.027 -21.498,22.774 -32.773,26.328c-12.912,4.071 -24.675,8.454 -33.876,19.084c-6.697,7.735 -9.787,19.156 -11.228,32.086c-0.713,6.397 -1.14,13.235 -2.472,19.715c-0.872,4.239 -2.027,8.364 -4.744,11.624c-2.554,3.065 -5.377,5.861 -8.566,8.217c-6.501,4.803 -22.679,8.257 -44.063,10.766c-56.492,6.627 -146.633,1.883 -213,-36.544c-105.959,-61.351 -161.622,-158.501 -165.74,-255.486c-4.093,-96.411 42.918,-192.256 140.96,-251.558l0,-0Z" style="fill:#7e4021;"/><path d="M2367.91,2469.39c-2.787,-0.06 -7.247,-0.118 -9.026,0.043c-9.68,0.881 -19.364,1.562 -29.086,1.732c-28.371,0.496 -56.858,-0.653 -85.223,-1.314c-9.196,-0.214 -16.836,7.078 -17.05,16.274c-0.215,9.196 7.077,16.836 16.273,17.05c28.817,0.672 57.759,1.822 86.583,1.318c10.535,-0.184 21.031,-0.909 31.522,-1.863c2.861,-0.26 10.297,0.113 11.35,-0.031c12.138,-1.65 13.992,-11.477 14.379,-14.256c0.189,-1.36 1.831,-15.891 -14.106,-18.867c-1.908,-0.357 -3.801,-0.372 -5.616,-0.086Zm-4.43,31.603c1.024,0.494 2.314,0.948 3.927,1.25c-1.387,-0.259 -2.702,-0.684 -3.927,-1.25Z" style="fill:#7e4021;"/><path d="M2344.2,2638.7c2.692,1.816 5.941,2.864 9.43,2.836c9.198,-0.075 16.605,-7.603 16.531,-16.802c-0.024,-2.908 -0.756,-6.011 -2.713,-9.04c-1.489,-2.305 -9.474,-7.334 -9.474,-7.334c-0,-0 0.53,0.223 0.673,0.289c-28.075,-12.816 -58.716,-21.023 -87.993,-30.568c-8.746,-2.851 -18.161,1.934 -21.012,10.68c-2.852,8.745 1.934,18.16 10.679,21.012c27.884,9.09 57.102,16.785 83.879,28.927Zm-7.154,-11.137l0.001,0.007l-0.001,-0.007Zm-0.118,-0.858l0.01,0.076l-0.01,-0.074l-0.048,-0.579l0.048,0.577Zm-0.071,-0.845l-0.029,-0.855c0.003,0.283 0.012,0.568 0.029,0.855Z" style="fill:#7e4021;"/><path d="M2639.91,2485.19c-29.131,-4.87 -60.64,-4.134 -90.081,-4.925c-9.196,-0.247 -16.862,7.018 -17.109,16.214c-0.246,9.195 7.018,16.861 16.214,17.108c27.934,0.75 57.841,-0.14 85.48,4.48c9.073,1.517 17.67,-4.618 19.186,-13.691c1.517,-9.072 -4.617,-17.669 -13.69,-19.186Z" style="fill:#7e4021;"/><path d="M2557.52,2612.7c8.34,0.562 15.961,-5.226 17.494,-13.644c1.647,-9.05 -4.363,-17.735 -13.413,-19.382c-3.094,-0.563 -7.041,-0.479 -11.309,0.446c-3.906,0.847 -8.513,2.829 -11.402,3.278c-11.474,1.783 -23.129,2.642 -34.726,2.032c-9.186,-0.482 -17.036,6.584 -17.519,15.769c-0.482,9.186 6.584,17.036 15.769,17.519c13.891,0.73 27.853,-0.246 41.594,-2.382c3.144,-0.488 11.798,-3.111 13.512,-3.636Z" style="fill:#7e4021;"/><path d="M2495.06,2724.5c-14.077,-0.635 -28.941,1.865 -43.158,1.874c-9.199,0.006 -16.662,7.478 -16.657,16.677c0.006,9.198 7.479,16.662 16.677,16.656c13.717,-0.008 28.053,-2.521 41.635,-1.907c9.189,0.414 16.986,-6.709 17.401,-15.898c0.415,-9.19 -6.709,-16.987 -15.898,-17.402Z" style="fill:#7e4021;"/><path d="M2648.05,2266.7c-77.788,-0.989 -128.124,4.959 -162.299,12.661c-8.973,2.022 -14.617,10.949 -12.594,19.923c2.022,8.973 10.949,14.617 19.923,12.594c32.539,-7.333 80.482,-12.789 154.546,-11.847c9.198,0.117 16.761,-7.256 16.878,-16.454c0.117,-9.198 -7.256,-16.76 -16.454,-16.877Z" style="fill:#7e4021;"/><path d="M853.176,2357.68c-23.01,-38.86 -41.931,-80.444 -58.351,-122.455c-19.501,-49.895 -35.124,-114.166 -43.978,-166.962c-1.521,-9.072 -10.122,-15.202 -19.193,-13.681c-9.072,1.522 -15.203,10.122 -13.681,19.194c9.206,54.896 25.529,121.703 45.806,173.583c17.073,43.682 36.79,86.899 60.715,127.304c4.687,7.915 14.918,10.536 22.833,5.85c7.915,-4.687 10.536,-14.918 5.849,-22.833Z" style="fill:#7e4021;"/><path d="M735.914,1985.38c-2.374,-7.209 -2.585,-19.581 -2.961,-29.436c-0.778,-20.416 -1.27,-41.038 -0.809,-61.459c0.208,-9.196 -7.09,-16.831 -16.286,-17.038c-9.196,-0.208 -16.831,7.09 -17.038,16.286c-0.477,21.093 0.02,42.393 0.824,63.481c0.494,12.946 1.49,29.121 4.609,38.592c2.877,8.737 12.306,13.495 21.043,10.618c8.737,-2.878 13.495,-12.307 10.618,-21.044Z" style="fill:#7e4021;"/><path d="M997.37,976.016c-217.849,-28.561 -486.293,-33.039 -649.738,211.81c-157.356,235.728 230.647,450.202 12.645,578.309c-69.032,40.566 -165.465,-15.711 -218.055,-75.93c-238.44,-273.029 -102.513,-644.496 123.086,-847.546c187.788,-169.019 528.137,-217.238 770.39,-141.038c152.46,47.956 119.228,295.052 -38.328,274.395Z" style="fill:#86a8cb;"/><path d="M995.203,992.542c89.327,11.711 143.956,-51.813 154.099,-125.728c9.958,-72.575 -23.733,-154.396 -108.604,-181.092c-247.362,-77.807 -594.791,-28.035 -786.54,144.549c-231.74,208.577 -369.42,590.436 -124.489,870.897c33.54,38.406 83.988,75.109 134.726,89.169c36.327,10.066 72.804,8.691 104.326,-9.832c39.214,-23.044 60.481,-49.04 70.115,-76.756c14.108,-40.588 2.847,-86.167 -18.908,-135.371c-24.529,-55.476 -62.142,-116.271 -81.815,-180.757c-18.497,-60.629 -20.561,-124.715 23.381,-190.541c159.261,-238.583 421.436,-232.368 633.709,-204.538l0,-0Zm4.333,-33.051c-223.425,-29.292 -498.137,-32.036 -665.766,219.082c-82.633,123.788 -24.546,242.204 28.052,346.283c14.7,29.088 28.775,56.972 38.338,83.475c10.137,28.096 15.348,54.395 8.945,78.719c-6.282,23.86 -24.001,45.164 -57.272,64.716c-23.704,13.93 -51.219,14.018 -78.537,6.448c-44.726,-12.394 -88.953,-45.116 -118.52,-78.972c-231.951,-265.599 -97.778,-626.671 121.681,-824.195c183.828,-165.455 517.097,-212.12 754.24,-137.527c67.59,21.26 93.512,86.964 85.581,144.763c-7.748,56.459 -48.51,106.154 -116.742,97.208l0,0Z" style="fill:#7e4021;"/><path d="M1065.2,962.63c257.246,170.896 1256.25,-169.886 1432.77,-372.17c-14.503,-10.69 -64.317,-50.613 -75.377,-62.026c-46.581,-48.065 -60.631,-104.685 -25.312,-187.909c-109.565,106.701 -428.098,236.882 -731.984,311.864c-402.641,99.349 -557.853,27.778 -660.104,32.604c89.987,96.454 96.88,181.303 60.009,277.637Z" style="fill:#e0f0ff;"/><path d="M1049.64,956.672l-4.769,12.458l11.112,7.382c43.497,28.897 107.076,44.396 184.147,48.248c118.944,5.944 270.876,-15.368 428.568,-52.925c215.205,-51.254 441.217,-132.67 608.213,-215.175c108.766,-53.735 192.676,-108.321 233.62,-155.242l11.899,-13.636l-14.568,-10.738c-8.203,-6.046 -27.872,-21.595 -45.198,-35.86c-12.414,-10.222 -23.617,-19.723 -28.1,-24.349c-22.59,-23.31 -36.866,-48.739 -39.829,-79.173c-2.552,-26.215 3.138,-55.862 17.891,-90.626l32.344,-76.215l-59.314,57.764c-51.38,50.037 -149.791,105.009 -270.893,157.142c-134.036,57.701 -295.731,111.564 -453.456,150.481c-133.397,32.915 -239.366,46.919 -325.127,51.116c-172.243,8.43 -263.732,-22.19 -331.769,-18.979l-35.957,1.697l24.556,26.321c39.433,42.267 62.226,82.003 71.533,121.729c10.621,45.337 3.536,90.403 -14.903,138.58Zm35.895,-1.16c17.304,-50.068 22.607,-97.448 11.462,-145.023c-8.294,-35.405 -25.759,-71.041 -54.777,-107.972c64.551,5.033 152.024,25.127 295.59,18.101c87.434,-4.279 195.481,-18.49 331.483,-52.047c159.533,-39.364 323.077,-93.865 458.65,-152.227c96.726,-41.639 179.285,-85.417 236.533,-127.054c-3.611,18.482 -4.475,35.602 -2.918,51.601c3.698,37.987 20.873,70.047 49.069,99.142c4.934,5.09 17.187,15.635 30.849,26.884c10.724,8.829 22.321,18.131 31.709,25.505c-42.314,41.563 -117.175,87.98 -211.037,134.353c-165.059,81.547 -388.465,161.974 -601.173,212.634c-154.251,36.738 -302.834,57.874 -419.182,52.059c-63.635,-3.18 -117.36,-14.235 -156.258,-35.956Z" style="fill:#7e4021;"/></g></svg>