<?xml version="1.0" encoding="UTF-8" standalone="no"?><!DOCTYPE svg PUBLIC "-//W3C//DTD SVG 1.1//EN" "http://www.w3.org/Graphics/SVG/1.1/DTD/svg11.dtd"><svg width="100%" height="100%" viewBox="0 0 2398 6289" version="1.1" xmlns="http://www.w3.org/2000/svg" xmlns:xlink="http://www.w3.org/1999/xlink" xml:space="preserve" xmlns:serif="http://www.serif.com/" style="fill-rule:evenodd;clip-rule:evenodd;stroke-linejoin:round;stroke-miterlimit:2;"><g id="Matcha-01"><path d="M42.869,2006.65c-2.018,-5.366 -5.106,-7.115 -5.518,-7.428c-4.182,-3.185 -8.201,-3.588 -11.3,-3.363c-4.061,0.293 -7.754,1.859 -10.869,5.131c-0.827,0.869 -6.132,5.445 -4.272,14.763c0.04,0.196 0.841,3.083 2.454,8.226c12.787,40.791 83.14,262.632 114.754,363.137c98.587,313.419 197.533,627.12 291.857,942.564c135.667,453.701 272.872,922.951 366.603,1393.38c30.103,151.086 63.743,305.374 48.998,462.308c-4.148,44.153 -18.751,79.286 -34.013,113.293c-16.491,36.744 -33.708,72.279 -41.77,114.902c-15.864,83.871 24.086,160.044 85.952,221.942c89.492,89.538 224.318,148.758 286.751,159.556c509.907,88.187 644.718,-174.855 654.487,-292.246c4.657,-55.972 -19.496,-108.984 -45.272,-160.67c-23.123,-46.367 -47.782,-91.481 -46.648,-137.722c5.669,-231.167 76.41,-544.006 112.624,-817.311c72.095,-544.091 474.552,-2038.41 550.561,-2320.29c7.695,-28.536 12.078,-44.8 12.5,-46.597c2.502,-10.659 -4.437,-15.797 -4.773,-16.114c-3.652,-3.435 -7.885,-4.811 -12.569,-4.488c-2.813,0.195 -7.735,0.916 -11.996,6.38c-0.257,0.329 -1.658,1.848 -2.749,5.213c-2.591,7.991 -11.102,19.899 -26.122,34.79c-25.722,25.5 -69.536,57.573 -137.328,90.107c-173.948,83.479 -502.423,168.413 -1082.86,153.041c-462.805,-12.256 -721.243,-68.956 -866.875,-130.843c-139.024,-59.079 -171.32,-121.654 -182.605,-151.66Zm2275.81,78.91c-91.707,340.415 -473.891,1767.78 -544.038,2297.17c-36.371,274.487 -107.21,588.706 -112.903,820.873c-1.259,51.327 24.475,101.948 50.141,153.415c23.014,46.146 46.042,93.057 41.883,143.029c-9.119,109.582 -139.602,344.486 -615.588,262.165c-58.599,-10.134 -184.858,-66.234 -268.854,-150.274c-53.795,-53.822 -90.57,-119.255 -76.776,-192.183c7.547,-39.902 23.99,-73.05 39.428,-107.449c16.666,-37.136 32.259,-75.607 36.789,-123.822c15.051,-160.186 -18.767,-317.724 -49.494,-471.941c-93.935,-471.445 -231.397,-941.724 -367.358,-1396.41c-94.369,-315.595 -193.361,-629.447 -291.996,-943.016c-20.873,-66.358 -58.634,-185.613 -85.563,-270.731c29.681,26.425 73.262,55.058 138.086,82.605c147.694,62.763 409.671,121.057 879.029,133.487c588.725,15.591 921.735,-71.641 1098.17,-156.311c58.914,-28.274 100.726,-56.427 129.048,-80.604Z" style="fill:#7e4021;"/><path d="M2296.49,2236.12c30.85,-116.933 -110.854,-343.705 -1105.07,-363.299c-810.564,-15.975 -1120.25,253.326 -1094.44,332.476c101.886,312.446 244.614,804.086 338.961,1119.61c135.814,454.194 273.148,923.959 366.98,1394.89c30.416,152.651 64.145,308.565 49.247,467.125c-8.679,92.367 -60.391,147.207 -76.001,229.733c-37.071,195.995 258.308,344.534 359.167,361.977c492.928,85.251 625.594,-163.723 635.037,-277.205c8.817,-105.943 -94.364,-199.851 -91.971,-297.419c5.681,-231.667 76.471,-545.196 112.763,-819.091c56.662,-427.619 359.523,-1596.16 505.324,-2148.8Z" style="fill:#dae1a4;"/><path d="M2328.72,2244.63c14.727,-55.821 0.912,-134.837 -102.195,-208.392c-132.041,-94.196 -426.648,-184.759 -1034.45,-196.737c-246.274,-4.854 -446.886,16.392 -606.373,50.543c-267.607,57.303 -421.613,152.151 -484.009,222.528c-36.68,41.372 -44.141,79.346 -36.406,103.066c101.815,312.226 244.435,803.524 338.716,1118.82c135.519,453.21 272.596,921.944 366.226,1391.86c29.791,149.521 63.342,302.184 48.749,457.492c-3.957,42.122 -18.065,75.585 -32.625,108.028c-17.017,37.917 -34.621,74.645 -42.94,118.629c-16.899,89.345 24.636,170.883 90.54,236.821c92.24,92.287 231.349,153.068 295.699,164.197c526.92,91.129 663.841,-185.979 673.936,-307.287c4.907,-58.973 -19.808,-115.033 -46.966,-169.49c-21.852,-43.819 -45.973,-86.175 -44.901,-129.876c5.656,-230.667 76.349,-542.816 112.485,-815.53c56.553,-426.805 358.986,-1593.08 504.51,-2144.67Zm-32.231,-8.503c30.85,-116.933 -110.854,-343.705 -1105.07,-363.299c-810.564,-15.975 -1120.25,253.326 -1094.44,332.476c101.886,312.446 244.614,804.086 338.961,1119.61c135.814,454.194 273.148,923.959 366.98,1394.89c30.416,152.651 64.145,308.565 49.247,467.125c-8.679,92.367 -60.391,147.207 -76.001,229.733c-37.071,195.995 258.308,344.534 359.167,361.977c492.928,85.251 625.594,-163.723 635.037,-277.205c8.817,-105.943 -94.364,-199.851 -91.971,-297.419c5.681,-231.667 76.471,-545.196 112.763,-819.091c56.662,-427.619 359.523,-1596.16 505.324,-2148.8Z" style="fill:#7e4021;"/><path d="M1727.98,4840.68c-2.515,5.253 -2.111,11.48 1.14,16.388c4.86,7.338 14.061,14.54 27.628,19.894c15.712,6.201 38.173,10.522 65.102,11.543c99.883,3.787 263.709,-37.358 359.988,-181.64c126.56,-189.663 152.086,-567.503 99.013,-725.679c-57.438,-171.184 -246.479,-267.51 -336.443,-271.246c-7.151,-0.297 -13.693,4.004 -16.254,10.687c-16.386,42.743 -45.356,204.199 -47.829,219.953c-1.394,8.879 4.503,17.263 13.33,18.954c13.99,2.68 72.959,8.341 116.854,62.55c45.88,56.661 74.108,163.76 26.716,367.666c-31.236,134.391 -84.593,199.305 -136.379,230.135c-50.81,30.248 -99.165,27.25 -119.616,27.742c-8.584,0.206 -14.421,1.678 -17.293,3.205c-4.111,2.184 -7.121,5.989 -8.301,10.492c-10.862,41.452 -22.915,156.789 -27.642,179.297l-0.014,0.059Zm33.54,1.893c4.732,-28.057 14.383,-116.959 23.749,-161.517c4.478,-0.102 10.187,-0.24 15.512,-0.391c32.231,-0.914 84.56,-6.423 136.704,-45.216c50.64,-37.674 101.816,-107.393 132.208,-238.153c51.113,-219.918 16.204,-335.078 -33.279,-396.189c-40.915,-50.528 -92.667,-65.697 -120.411,-71.371c7.135,-40.34 25.879,-140.928 39.336,-185.425l0,0c85.868,10.963 243.988,98.695 293.91,247.479c50.946,151.835 26.349,514.513 -95.138,696.573c-88.506,132.634 -239.178,170.314 -330.997,166.832c-22.366,-0.848 -41.08,-4.089 -54.13,-9.239c-2.845,-1.123 -5.387,-2.199 -7.464,-3.383Zm-26.132,-9.518c2.609,-1.353 5.581,-2.01 8.628,-1.827c-2.76,-0.166 -5.694,0.264 -8.628,1.827Z" style="fill:#7e4021;"/><path d="M1572.07,3515.72c-268.45,-121.86 -216.386,-456.165 -363.747,-399.347c-158.987,61.302 34.889,788.276 -286.241,878.154c-285.697,79.961 -364.345,-317.749 -486.137,-669.62c135.814,454.194 273.148,923.959 366.98,1394.89c30.416,152.651 64.145,308.565 49.247,467.125c-8.679,92.367 -60.391,147.207 -76.001,229.733c-37.071,195.995 258.308,344.534 359.167,361.977c492.928,85.251 625.594,-163.723 635.037,-277.205c8.817,-105.943 -94.364,-199.851 -91.971,-297.419c5.681,-231.667 76.471,-545.196 112.763,-819.091c24.775,-186.976 96.62,-515.605 181.825,-872.463c-88.7,60.886 -197.234,95.725 -400.922,3.263Z" style="fill:#bbc470;"/><path d="M1244.94,4010.7c-216.537,-8.097 67.337,473.199 -165.139,525.816c-157.348,35.614 -370.714,-287.65 -276.882,183.284c30.416,152.651 64.145,308.565 49.247,467.125c-8.679,92.367 -60.391,147.207 -76.001,229.733c-37.071,195.995 258.308,344.534 359.167,361.977c492.928,85.251 625.594,-163.723 635.037,-277.205c8.817,-105.943 -94.364,-199.851 -91.971,-297.419c5.681,-231.667 76.471,-545.196 112.763,-819.091c17.356,-130.985 57.812,-331.488 109.779,-562.514c-125.833,102.521 -212.383,418.562 -272.812,654.225c-54.621,213.014 -67.571,377.96 -155.094,372.133c-165.834,-11.042 16.365,-828.924 -228.094,-838.064Z" style="fill:#a8b54b;"/><path d="M1188.97,1617.75c-349.659,0 -663.617,43.033 -877.829,110.727c-110.634,34.963 -195.342,77.031 -246.678,122.513c-42.735,37.863 -63.875,79.158 -63.875,120.913c0,41.756 21.14,83.051 63.875,120.913c51.336,45.483 136.044,87.551 246.678,122.513c214.212,67.695 528.17,110.728 877.829,110.728c349.659,-0 663.617,-43.033 877.829,-110.728c110.634,-34.962 195.342,-77.03 246.678,-122.513c42.735,-37.862 63.875,-79.157 63.875,-120.913c-0,-41.755 -21.14,-83.05 -63.875,-120.913c-51.336,-45.482 -136.044,-87.55 -246.678,-122.513c-214.212,-67.694 -528.17,-110.727 -877.829,-110.727Zm-0,33.333c637.488,0 1155.05,143.755 1155.05,320.82c0,177.066 -517.56,320.82 -1155.05,320.82c-637.489,0 -1155.05,-143.754 -1155.05,-320.82c-0,-177.065 517.559,-320.82 1155.05,-320.82Z" style="fill:#7e4021;"/><path d="M1195.65,1836.25c-332.448,0 -630.462,45.799 -831.459,117.494c-103.667,36.977 -182.216,81.422 -228.694,129.338c-35.942,37.054 -53.963,76.887 -53.963,117.494c0,40.607 18.021,80.441 53.963,117.494c46.478,47.916 125.027,92.361 228.694,129.339c200.997,71.695 499.011,117.493 831.459,117.493c332.449,-0 630.462,-45.798 831.46,-117.493c103.666,-36.978 182.215,-81.423 228.693,-129.339c35.942,-37.053 53.963,-76.887 53.963,-117.494c0,-40.607 -18.021,-80.44 -53.963,-117.494c-46.478,-47.916 -125.027,-92.361 -228.693,-129.338c-200.998,-71.695 -499.011,-117.494 -831.46,-117.494Zm0,33.334c596.5,-0 1080.78,148.312 1080.78,330.992c-0,182.68 -484.283,330.993 -1080.78,330.993c-596.5,-0 -1080.78,-148.313 -1080.78,-330.993c-0,-182.68 484.282,-330.992 1080.78,-330.992Z" style="fill:#7e4021;"/><path d="M1574.46,2180.66c-5.646,46.292 -162.685,-25.108 -152.185,-81.824c33.152,-246.092 56.942,-421.915 63.304,-470.098c18.786,-142.272 182.084,-1519.32 206.251,-1579.39c14.753,-36.668 93.008,-20.385 115.577,0.058c30.335,27.479 19.007,94.875 13.254,133.661c-34.864,235.063 -163.465,1319.28 -246.201,1997.59Z" style="fill:#ffe6d8;"/><path d="M1591.01,2182.67c82.719,-678.167 211.287,-1762.15 246.143,-1997.16c3.612,-24.353 9.145,-59.498 6.28,-89.919c-2.251,-23.905 -9.863,-44.981 -24.831,-58.539c-15.738,-14.256 -54.551,-27.538 -86.967,-26.063c-25.839,1.175 -47.061,11.753 -55.261,32.136c-4.944,12.287 -15.961,78.389 -29.968,177.554c-54.784,387.873 -162.314,1292.05 -177.344,1405.87c-6.358,48.155 -30.127,223.816 -63.25,469.699c-3.572,20.454 7.65,43.278 28.667,62.941c26.732,25.01 68.57,45.63 99.639,51.318c32.441,5.94 54.19,-5.679 56.892,-27.836Zm-33.002,-4.737c-0.794,0.244 -2.166,0.63 -3.182,0.747c-1.688,0.194 -3.517,0.227 -5.461,0.144c-8.207,-0.353 -18.025,-2.709 -28.393,-6.361c-24.816,-8.744 -52.541,-24.968 -69.433,-43.365c-8.304,-9.043 -14.561,-18.1 -12.87,-27.236c0.05,-0.269 0.093,-0.538 0.13,-0.809c33.154,-246.115 56.947,-421.954 63.31,-470.142c15.026,-113.805 122.53,-1017.78 177.303,-1405.58c13.383,-94.751 23.163,-158.034 27.886,-169.774c3.618,-8.993 14.451,-10.761 25.851,-11.28c23.369,-1.062 51.729,7.192 63.075,17.47c9.305,8.428 12.623,22.098 14.023,36.959c2.61,27.717 -2.775,59.715 -6.066,81.904c-34.861,235.042 -163.428,1318.91 -246.173,1997.32Z" style="fill:#7e4021;"/><path d="M1676.95,2199.45c-9.223,24.539 -174.35,-3.077 -160.406,-26.001c62.823,-275.077 127.643,-558.496 133.565,-584.682c31.657,-139.971 319.615,-1496.44 349.148,-1554.06c18.029,-35.173 94.478,-11.835 115.093,10.578c27.708,30.125 10.292,96.211 1.033,134.312c-57.622,237.119 -295.176,1356.93 -438.433,2019.85Z" style="fill:#f8bcc4;"/><path d="M1692.56,2205.31c0.287,-0.763 0.517,-1.546 0.689,-2.343c143.228,-662.783 380.728,-1782.37 438.338,-2019.44c5.814,-23.924 14.523,-58.42 14.439,-88.975c-0.066,-24.011 -5.729,-45.692 -19.4,-60.556c-14.376,-15.63 -51.818,-32.388 -84.234,-33.871c-25.839,-1.182 -47.935,7.422 -57.957,26.974c-6.042,11.785 -23.03,76.61 -46.004,174.089c-89.861,381.276 -279.241,1271.91 -304.569,1383.9c-5.907,26.12 -70.417,308.185 -133.09,582.605c-3.184,7.025 -2.486,14.165 2.266,21.276c4.452,6.662 17.003,14.795 35.111,20.689c32.89,10.707 85.786,18.15 116.9,15.482c12.34,-1.059 21.911,-4.009 27.581,-7.755c5.07,-3.349 8.232,-7.555 9.93,-12.073Zm-30.652,-15.131c-2.443,0.598 -6.369,1.461 -9.708,1.747c-27.618,2.369 -74.539,-4.462 -103.733,-13.966c-5.094,-1.658 -10.786,-4.353 -14.434,-6.196c62.435,-273.375 126.457,-553.307 132.341,-579.324c25.323,-111.965 214.66,-1002.41 304.501,-1383.6c21.952,-93.139 37.451,-155.269 43.223,-166.531c4.422,-8.626 15.37,-9.401 26.771,-8.879c23.368,1.068 50.86,11.87 61.223,23.137c8.499,9.241 10.559,23.156 10.6,38.083c0.077,27.839 -8.198,59.214 -13.495,81.012c-57.467,236.48 -293.866,1350.72 -437.289,2014.52Z" style="fill:#7e4021;"/><path d="M1315.84,2036.27c-34.175,5.747 -54.755,17.332 -66.172,31.374c-12.77,15.705 -15.639,35.199 -10.635,57.423c4.636,20.589 21.256,41.486 41.86,59.26c27.683,23.88 61.875,42.574 73.962,48.841c8.166,4.235 18.233,1.042 22.468,-7.124c4.234,-8.166 1.042,-18.233 -7.124,-22.467c-11.028,-5.719 -42.275,-22.701 -67.533,-44.49c-14.694,-12.676 -27.808,-26.659 -31.114,-41.342c-2.072,-9.201 -2.405,-17.585 1.156,-24.718c6.078,-12.177 21.647,-19.343 48.66,-23.886c9.071,-1.525 15.197,-10.128 13.672,-19.199c-1.526,-9.072 -10.129,-15.198 -19.2,-13.672Z" style="fill:#7e4021;"/><path d="M1433.64,2264.97c92.175,38.269 297.189,60.33 377.17,53.73c9.167,-0.756 15.996,-8.813 15.239,-17.981c-0.756,-9.167 -8.813,-15.996 -17.981,-15.239c-76.682,6.327 -273.273,-14.605 -361.646,-51.295c-8.495,-3.527 -18.256,0.506 -21.783,9.002c-3.528,8.495 0.506,18.256 9.001,21.783Z" style="fill:#7e4021;"/><path d="M1721.28,2077.24c10.312,1.981 20.283,5.489 30.084,9.197c19.352,7.323 38.804,15.416 57.017,25.251c8.094,4.371 18.214,1.348 22.584,-6.746c4.371,-8.094 1.348,-18.214 -6.746,-22.584c-19.51,-10.536 -40.327,-19.253 -61.059,-27.097c-11.747,-4.445 -23.737,-8.527 -36.106,-10.857c-1.367,-0.257 -4.733,-0.42 -7.191,-0.504c-2.807,-0.742 -5.844,-0.756 -8.835,0.106c-14.325,4.128 -12.758,16.138 -12.419,18.569c0.542,3.89 2.435,10.619 11.343,13.585c0.993,0.33 9.825,0.973 11.328,1.08Zm0.236,-1.627l-0.265,0.099l0.11,-0.036l0.155,-0.063Zm0.81,-0.328l-0.005,0.002l0.005,-0.002Z" style="fill:#7e4021;"/><path d="M1187.35,2153.72c-1.155,-2.588 -2.991,-4.912 -5.455,-6.687c-7.464,-5.375 -17.889,-3.68 -23.264,3.785c-2.462,3.419 -4.342,8.306 -2.56,14.711c0.473,1.698 1.513,4.209 3.445,6.868c2.213,3.043 6.86,7.672 7.434,8.276c25.034,26.318 51.304,51.23 78.095,75.723c6.789,6.207 17.34,5.734 23.547,-1.055c6.206,-6.789 5.734,-17.34 -1.055,-23.547c-26.218,-23.969 -51.936,-48.339 -76.434,-74.094l-3.753,-3.98Z" style="fill:#7e4021;"/><path d="M2162.7,2474.66c-1.445,2.649 -3.138,5.949 -3.656,7.731c-3.625,12.485 -6.993,25.036 -10.348,37.596c-8.801,32.947 -16.4,66.234 -25.527,99.091c-2.461,8.863 2.735,18.057 11.598,20.519c8.863,2.462 18.058,-2.735 20.52,-11.598c9.156,-32.963 16.784,-66.356 25.613,-99.41c3.23,-12.094 6.471,-24.179 9.955,-36.201c0.68,-1.144 4.217,-7.151 5.181,-9.71c1.45,-3.851 1.647,-7.365 1.251,-10.169c-0.998,-7.069 -4.599,-13.049 -14.159,-15.29c-8.956,-2.099 -17.931,3.469 -20.03,12.425c-0.395,1.687 -0.518,3.375 -0.398,5.016Zm11.73,14.722l0.165,0.043l-0.553,-0.174l0.388,0.131Zm-2.876,-1.189c0.68,0.371 1.423,0.7 2.238,0.973c-0.778,-0.272 -1.525,-0.599 -2.238,-0.973Z" style="fill:#7e4021;"/><path d="M2110.37,2677.98c-0.335,0.86 -0.675,1.754 -0.787,2.115c-6.438,20.691 -11.783,41.752 -17.676,62.604c-2.501,8.852 2.654,18.07 11.506,20.572c8.852,2.501 18.07,-2.654 20.571,-11.506c5.814,-20.573 11.076,-41.354 17.427,-61.768c-0.047,0.151 -0.182,0.54 -0.182,0.54c-0,-0 2.737,-9.156 2.669,-11.086c-0.194,-5.486 -2.609,-9.098 -4.967,-11.446c-3.767,-3.75 -9.259,-6.879 -17.593,-3.906c-6.207,2.214 -10.29,7.74 -10.968,13.881Zm21.338,17.786c-2.64,0.791 -5.34,0.893 -7.894,0.398c2.24,0.488 4.863,0.534 7.894,-0.398Z" style="fill:#7e4021;"/><path d="M2059.85,2597.62c-0.438,12.627 -5.451,27.185 -7.972,39.737c-1.811,9.019 4.041,17.811 13.059,19.622c9.019,1.811 17.811,-4.04 19.622,-13.059c2.859,-14.233 8.108,-30.827 8.604,-45.145c0.319,-9.194 -6.886,-16.916 -16.079,-17.234c-9.193,-0.319 -16.916,6.886 -17.234,16.079Z" style="fill:#7e4021;"/><path d="M627.144,3717.4c0.254,-3.011 -0.311,-6.128 -1.8,-9.009c-4.222,-8.172 -14.285,-11.379 -22.457,-7.156c-2.884,1.49 -10.459,6.829 -9.152,18.863c1.327,12.209 19.621,67.438 20.997,72.025c2.643,8.811 11.942,13.818 20.753,11.175c8.811,-2.644 13.818,-11.943 11.175,-20.753l-19.516,-65.145Zm-7.705,12.728l-0.404,0.249l0.132,-0.074l0.272,-0.175Zm0.903,-0.607l-0.526,0.363l0.314,-0.203l0.212,-0.16Zm0.673,-0.515l-0.609,0.467l0.663,-0.499l0.462,-0.405l-0.516,0.437Zm1.23,-1.098l-0.543,0.51l0.275,-0.242c0.147,-0.145 0.293,-0.29 0.44,-0.435l0.317,-0.34l-0.489,0.507Z" style="fill:#7e4021;"/><path d="M636.575,3863.92c0.646,2.545 2.008,7.897 2.286,8.916c5.145,18.853 10.502,37.655 15.684,56.499c2.44,8.869 11.62,14.09 20.49,11.65c8.869,-2.439 14.09,-11.62 11.651,-20.489c-5.177,-18.822 -10.529,-37.603 -15.667,-56.435c-0.472,-1.728 -2.134,-9.288 -3.538,-13.094c-1.35,-3.655 -3.168,-6.125 -4.351,-7.391c-7.04,-7.533 -14.543,-6.719 -20.63,-3.375c-8.062,4.429 -11.012,14.57 -6.583,22.632c0.206,0.375 0.424,0.739 0.658,1.087Zm10.2,7.122c4.069,1.095 8.001,0.447 11.774,-1.626c-3.736,2.053 -7.92,2.52 -11.774,1.626Z" style="fill:#7e4021;"/><path d="M1534.2,5718.44c3.541,-0.78 8.986,-2.047 11.117,-2.852c6.677,-2.521 13.168,-5.648 19.632,-8.661c22.433,-10.457 43.132,-23.723 62.39,-39.254c7.161,-5.774 8.286,-16.275 2.511,-23.436c-5.774,-7.16 -16.275,-8.285 -23.436,-2.511c-17.152,13.833 -35.569,25.676 -55.548,34.989c-5.709,2.661 -11.424,5.462 -17.322,7.688c-2.244,0.847 -7.611,1.667 -10.18,2.288c-2.663,0.642 -4.525,1.455 -5.374,1.898c-9.024,4.706 -9.326,12.354 -9.053,16.112c0.159,2.2 1.335,14.911 16.768,15.625c3.06,0.141 5.966,-0.553 8.495,-1.886Zm-5.207,-31.238c0.986,0.149 1.942,0.385 2.86,0.702c-0.83,-0.304 -1.778,-0.552 -2.86,-0.702Zm-0.789,-0.1l0.649,0.08l-0.459,-0.065l-0.19,-0.015Z" style="fill:#7e4021;"/><path d="M1639.1,5595.16c-6.651,3.393 -10.41,10.99 -8.655,18.591c2.069,8.963 11.026,14.559 19.989,12.49c5.125,-1.183 11.468,-5.321 16.61,-12.614c5.638,-7.995 10.924,-20.845 13.18,-25.223c4.212,-8.177 0.993,-18.236 -7.184,-22.449c-8.177,-4.212 -18.236,-0.994 -22.449,7.184c-1.828,3.548 -9.93,19.037 -11.491,22.021Z" style="fill:#7e4021;"/><path d="M272.993,5779.88c0.873,4.452 2.515,12.427 3.579,15.389c5.269,14.674 11.832,28.904 19.273,42.596c15.94,29.329 35.472,55.61 58.403,79.864c6.319,6.684 16.877,6.98 23.561,0.661c6.684,-6.32 6.98,-16.877 0.66,-23.561c-20.931,-22.139 -38.787,-46.109 -53.337,-72.881c-6.629,-12.199 -12.493,-24.87 -17.188,-37.944c-1.522,-4.24 -3.267,-15.805 -3.822,-17.378c-4.088,-11.581 -14.122,-11.431 -16.827,-11.268c-1.356,0.082 -16.213,1.663 -15.719,18.279c0.066,2.222 0.565,4.329 1.417,6.243Z" style="fill:#7e4021;"/><path d="M419.313,5936.23c-0.641,-0.668 -1.35,-1.289 -2.123,-1.855c-2.8,-2.052 -4.454,-2.664 -4.746,-2.78c-5.968,-2.373 -10.149,-0.832 -12.09,-0.094c-3.743,1.422 -6.357,3.798 -8.184,6.7c-0.52,0.825 -7.29,12.172 3.175,21.484c1.43,1.273 12.248,9.823 16.35,13.186c10.062,8.25 20.75,15.618 31.265,23.266c7.439,5.41 17.872,3.763 23.282,-3.676c5.41,-7.44 3.763,-17.872 -3.676,-23.282c-9.995,-7.269 -20.174,-14.244 -29.737,-22.085c-2.892,-2.371 -10.124,-8.156 -13.516,-10.864Z" style="fill:#7e4021;"/><path d="M1969.37,6092.01c37.303,-11.218 73.171,-30.685 106.334,-50.951c7.849,-4.797 10.327,-15.063 5.531,-22.912c-4.797,-7.849 -15.063,-10.327 -22.912,-5.531c-30.767,18.802 -63.945,37.065 -98.552,47.473c-8.809,2.649 -13.81,11.951 -11.161,20.76c2.649,8.809 11.952,13.81 20.76,11.161Z" style="fill:#7e4021;"/><path d="M2114.38,5966.52l-0.216,0.12c-7.923,4.673 -10.56,14.9 -5.887,22.823c2.219,3.761 5.478,6.39 9.958,7.629c2.418,0.669 6.441,1.332 11.418,-0.874c2.013,-0.893 10.604,-8.166 11.323,-8.827c18.531,-17.005 37.231,-33.561 53.705,-52.67c6.006,-6.967 5.226,-17.5 -1.742,-23.506c-6.967,-6.006 -17.499,-5.226 -23.505,1.741c-15.621,18.121 -33.424,33.75 -50.996,49.876l-4.058,3.688Zm7.78,-2.183c5.864,-0.162 11.638,2.784 14.827,8.189c-2.743,-4.65 -7.255,-8.701 -14.827,-8.189Z" style="fill:#7e4021;"/><path d="M2078.93,5924.26c-1.186,1.23 -6.08,6.22 -9.876,9.022c-12.944,9.557 -30.248,18.409 -36.34,21.689c-8.099,4.361 -11.134,14.477 -6.773,22.577c4.361,8.099 14.477,11.133 22.576,6.772c8.03,-4.324 33.165,-17.436 47.757,-30.138c10.228,-8.903 15.467,-18.878 15.726,-26.472c0.313,-9.193 -6.897,-16.911 -16.09,-17.224c-8.406,-0.286 -15.578,5.716 -16.98,13.774Z" style="fill:#7e4021;"/><path d="M442.263,5721.26c-6.691,2.791 -11.013,9.766 -10.126,17.32c0.109,0.929 8.884,20.785 25.272,12.376c6.542,-3.356 39.285,-21.763 43.488,-24.271c35.217,-21.017 70.337,-42.185 105.882,-62.65c7.971,-4.59 10.717,-14.788 6.127,-22.76c-4.589,-7.971 -14.788,-10.717 -22.759,-6.127c-35.696,20.552 -70.966,41.807 -106.332,62.913c-3.922,2.34 -39.742,22.196 -41.552,23.199Zm17.531,2.956c2.932,2.614 4.955,6.27 5.449,10.475c-0.475,-4.04 -2.195,-7.373 -5.008,-10.074l-0.441,-0.401Zm-10.343,-4.229c3.837,0.171 7.399,1.664 10.175,4.076c-2.043,-1.83 -5.227,-3.926 -10.175,-4.076Zm-0.517,-0.013l0.258,0.003l-0.122,-0.005l-0.136,0.002Z" style="fill:#7e4021;"/><path d="M656.982,5914.02c-5.176,2.395 -8.987,7.386 -9.597,13.465c-0.567,5.662 1.358,9.346 3.074,11.752c2.737,3.84 6.499,6.239 11.427,6.93c2.571,0.36 6.784,0.413 11.565,-2.448c3.382,-2.023 13.379,-12.861 14.844,-14.359c10.039,-10.267 20.175,-20.44 30.138,-30.78c27.272,-28.3 53.898,-57.356 80.602,-86.197c6.249,-6.749 5.843,-17.303 -0.906,-23.552c-6.75,-6.25 -17.304,-5.844 -23.553,0.905c-26.554,28.678 -53.027,57.573 -80.145,85.715c-9.908,10.281 -19.987,20.396 -29.969,30.605c-0.651,0.665 -5.022,5.335 -7.48,7.964Zm23.634,15.942l-0.064,0.848c0.029,-0.288 0.051,-0.571 0.064,-0.848Zm-0.002,-1.695l-0.059,-0.764c0.08,0.753 0.105,1.559 0.062,2.422l0.02,-0.818c-0.008,-0.28 -0.015,-0.56 -0.023,-0.84Zm-0.131,-1.359l0.058,0.459l-0.021,-0.206l-0.037,-0.253Z" style="fill:#7e4021;"/><path d="M1009.43,6058.48l0.511,-1.386c7.895,-20.458 50.625,-115.962 55.937,-130.127c3.229,-8.613 -1.141,-18.228 -9.754,-21.458c-8.613,-3.23 -18.228,1.141 -21.457,9.754c-5.3,14.133 -47.946,109.417 -55.824,129.829c-3.5,9.07 -1.496,15.185 -1.169,16.006c3.413,8.542 13.119,12.706 21.661,9.292c5.325,-2.127 8.948,-6.699 10.095,-11.91Z" style="fill:#7e4021;"/><path d="M1339.97,5931.76c-5.307,20.883 -3.559,45.987 -0.1,71.302c3.044,22.273 7.356,44.72 7.356,63.838c0,9.198 7.468,16.667 16.667,16.667c9.199,-0 16.667,-7.469 16.667,-16.667c-0,-20.462 -4.406,-44.512 -7.664,-68.351c-2.842,-20.799 -4.979,-41.421 -0.619,-58.579c2.265,-8.915 -3.133,-17.993 -12.049,-20.258c-8.915,-2.266 -17.992,3.133 -20.258,12.048Z" style="fill:#7e4021;"/><path d="M1641.06,5881.79c0.753,11.915 6.339,26.543 15.125,41.706c17.562,30.312 47.787,63.996 62.966,80.961c6.134,6.855 16.679,7.441 23.534,1.307c6.855,-6.133 7.441,-16.678 1.307,-23.534c-12.23,-13.669 -34.952,-38.804 -51.58,-63.658c-9.492,-14.187 -17.393,-27.931 -18.085,-38.886c-0.581,-9.18 -8.505,-16.162 -17.686,-15.581c-9.18,0.58 -16.162,8.504 -15.581,17.685Z" style="fill:#7e4021;"/><path d="M1844.01,5730.14c3.606,1.71 10.892,5.2 13.768,6.816c11.758,6.607 23.054,13.988 34.509,21.098c29.082,18.051 57.679,36.58 86.487,55.017c7.747,4.958 18.063,2.694 23.022,-5.054c4.958,-7.748 2.694,-18.064 -5.054,-23.022c-28.937,-18.52 -57.664,-37.13 -86.877,-55.262c-11.866,-7.366 -23.578,-14.993 -35.758,-21.837c-4.981,-2.799 -18.406,-9.166 -20.34,-9.901c-12.894,-4.903 -19.725,5.789 -20.399,6.905c-0.308,0.511 -7.866,15.787 7.56,23.978c1.002,0.532 2.034,0.951 3.082,1.262Z" style="fill:#7e4021;"/><path d="M1909.34,5492.72c1.232,1.975 2.567,3.872 3.512,4.591c17.25,13.128 39.866,20.513 59.082,30.16c42.873,21.522 86.212,40.922 129.939,60.599c8.389,3.775 18.264,0.029 22.038,-8.359c3.775,-8.388 0.03,-18.263 -8.359,-22.038c-43.296,-19.483 -86.213,-38.682 -128.663,-59.993c-17.437,-8.753 -38.197,-14.982 -53.85,-26.894c1.429,1.087 4.765,6.107 4.765,6.107c-0,0 -11.087,-11.532 -11.977,-11.762c-4.174,-1.079 -8.095,-0.586 -11.785,1.306c-2.533,1.299 -5.574,3.498 -7.601,7.998c-0.436,0.967 -1.471,3.118 -1.488,6.951c-0.02,4.367 1.646,8.351 4.387,11.334Zm24.676,-0.13c1.732,-1.667 4.243,-4.935 4.27,-11.057c-0.019,4.251 -1.631,8.125 -4.27,11.057Z" style="fill:#7e4021;"/><path d="M478.622,2639.4c24.29,0.037 70.869,-5.23 109.996,-1.306c11.691,1.173 22.66,3.158 31.879,6.616c7.018,2.632 12.97,5.945 16.602,11.038c11.852,16.62 21.887,49.34 31.105,88.801c22.858,97.855 38.064,235.741 45.749,292.041c70.589,517.167 172.989,1026.64 269.044,1539.09c39.36,209.981 57.282,371.128 105.891,579.464c2.09,8.958 11.059,14.534 20.017,12.444c8.958,-2.09 14.534,-11.06 12.444,-20.018c-48.488,-207.818 -66.327,-368.572 -105.59,-578.031c-95.953,-511.901 -198.265,-1020.83 -268.779,-1537.45c-7.766,-56.895 -23.217,-196.226 -46.317,-295.116c-10.479,-44.86 -22.951,-81.678 -36.425,-100.572c-13.068,-18.325 -40.277,-28.256 -72.294,-31.467c-40.291,-4.04 -88.258,1.178 -113.271,1.139c-9.199,-0.014 -16.678,7.443 -16.692,16.642c-0.014,9.198 7.442,16.678 16.641,16.692Z" style="fill:#7e4021;"/><path d="M1003.67,2668.77c24.391,3.456 83.523,1.864 131.566,8.949c14.583,2.15 28.066,5.084 38.859,9.452c7.567,3.062 13.817,6.309 16.56,11.574c12.65,24.283 16.078,71.17 16.588,123.477c0.811,83.244 -7.278,179.69 -7.453,228.604c-1.864,521.959 28.841,1040.72 52.852,1561.53c9.837,213.39 -0.742,427.065 18.483,640.109c0.826,9.161 8.935,15.928 18.097,15.101c9.161,-0.826 15.928,-8.935 15.101,-18.097c-19.18,-212.557 -8.568,-425.745 -18.383,-638.648c-23.985,-520.263 -54.679,-1038.47 -52.817,-1559.88c0.205,-57.328 11.173,-179.652 6.202,-270.08c-2.284,-41.548 -8.266,-76.709 -19.108,-97.521c-8.16,-15.664 -28.479,-27.43 -55.752,-33.987c-50.799,-12.213 -127.353,-9.515 -156.118,-13.591c-9.108,-1.29 -17.55,5.056 -18.84,14.164c-1.291,9.107 5.056,17.549 14.163,18.84Z" style="fill:#7e4021;"/><path d="M1640.54,2688.59c10.475,3.782 27.22,5.377 46.924,5.759c25.852,0.501 57.441,-0.693 84.73,1.541c13.545,1.109 25.936,2.99 35.573,6.746c5.654,2.203 10.438,4.533 11.994,9.199c8.624,25.857 6.323,66.337 -0.418,113.898c-10.745,75.815 -33.748,168.556 -50.537,251.185c-103.919,511.463 -189.206,1023.86 -272.096,1538.55c-34.078,211.595 -51.89,459.191 -52.909,559.326c-0.094,9.198 7.298,16.742 16.496,16.835c9.198,0.094 16.742,-7.298 16.835,-16.496c1.01,-99.247 18.712,-344.645 52.487,-554.365c82.818,-514.24 168.024,-1026.19 271.853,-1537.21c16.919,-83.27 40.046,-176.741 50.875,-253.144c7.642,-53.919 8.812,-99.808 -0.964,-129.122c-6.108,-18.312 -25.394,-30.448 -52.973,-35.604c-29.343,-5.485 -68.737,-4.316 -101.58,-4.552c-18.91,-0.136 -35.345,-0.42 -44.97,-3.895c-8.651,-3.124 -18.212,1.364 -21.336,10.016c-3.124,8.651 1.364,18.212 10.016,21.336Z" style="fill:#7e4021;"/><path d="M828.005,5281.58c-3.681,-1.834 -25.854,15.806 -30.256,19.027c-131.764,96.402 -681.361,336.455 -584.144,538.053c94.126,195.186 333.548,370.405 839.913,434.362c714.177,90.206 1361.46,-224.124 1343.36,-569.757c-8.572,-163.664 -572.456,-349.496 -701.57,-457.952c-1.74,-1.462 -12.454,-12.245 -15.327,-10.678c-5.215,2.844 67.458,150.979 69.49,156.864c62.796,181.847 -48.232,323.246 -247.517,384.96c-280.643,86.909 -902.348,-98.762 -673.948,-494.879Zm927.042,41.453c130.77,72.008 351.5,163.663 492.456,257.394c35.315,23.483 65.346,46.966 86.717,70.459c16.83,18.502 28.426,36.106 29.369,54.123c6.709,128.084 -88.637,249.142 -243.706,345.817c-245.981,153.352 -642.364,242.153 -1062.19,189.126c-489.504,-61.828 -723.074,-227.084 -814.065,-415.771c-14.624,-30.325 -8.148,-61.65 9.741,-93.194c22.055,-38.89 60.593,-77.497 106.939,-115.187c120.319,-97.851 292.079,-187.616 395.608,-248.996c-12.784,47.937 -13.582,92.492 -5.112,133.446c21.089,101.978 101.039,183.347 207.782,239.414c169.705,89.139 406.19,114.17 553.226,68.636c130.276,-40.343 224.692,-113.545 265.597,-207.165c28.119,-64.357 31.786,-138.796 3.567,-220.516c-0.746,-2.159 -12.416,-27.946 -25.931,-57.586Z" style="fill:#7e4021;"/><path d="M950.773,3886.13c80.883,-49.058 38.252,-124.693 41.5,-184.875c4.289,-79.488 74.981,-96.074 64.983,-199.603c-9.772,-101.193 -108.078,-158.83 -71.036,-217.707c73.164,-116.293 123.186,-368.795 -82.907,-393.829c-56.816,-6.901 -97.478,19.687 -135.929,48.883c-132.59,100.676 -8.157,148.324 -32.62,243.758c-15.922,62.116 -79.776,107.101 -66.204,179.13c11.292,59.926 79.837,86.511 86.651,143.568c6.011,50.337 -38.945,99.364 -55.229,144.427c-60.47,167.347 60.909,351.418 250.791,236.248Z" style="fill:#fff;"/><path d="M959.416,3900.38c46.991,-28.501 58.051,-64.751 57.887,-102.588c-0.14,-32.24 -9.995,-65.847 -8.388,-95.638c1.964,-36.384 19.799,-58.087 35.324,-82.826c18.585,-29.613 35.084,-62.552 29.607,-119.278c-5.156,-53.396 -33.128,-95.529 -55.467,-131.851c-7.886,-12.823 -14.977,-24.817 -19.451,-36.397c-5.211,-13.487 -6.638,-26.208 1.399,-38.982c38.116,-60.584 70.089,-156.68 65.806,-240.858c-2.702,-53.115 -19.763,-101.482 -56.896,-134.838c-24.799,-22.276 -58.672,-38.057 -103.914,-43.553c-61.727,-7.498 -106.243,20.435 -148.018,52.154c-44.514,33.8 -62.18,62.991 -67.186,89.155c-5.093,26.623 2.914,51.046 13.062,76.099c10.643,26.274 24.203,53.449 15.439,87.64c-7.586,29.594 -26.942,54.926 -42.434,81.62c-18.224,31.405 -31.612,64.362 -24.004,104.735c6.244,33.136 27.615,57.483 49.069,81.004c17.008,18.648 34.424,36.442 37.411,61.453c2.623,21.961 -6.577,43.45 -17.505,64.55c-12.869,24.85 -28.483,49.083 -36.849,72.237c-39.203,108.488 -5.955,223.046 69.859,270.804c51.116,32.201 122.251,35.7 205.249,-14.642Zm-17.286,-28.5c-68.913,41.798 -127.755,41.674 -170.197,14.938c-64.523,-40.646 -89.64,-138.94 -56.276,-231.272c7.917,-21.91 22.923,-44.722 35.1,-68.236c14.12,-27.265 24.392,-55.454 21.003,-83.831c-3.827,-32.05 -24.087,-56.069 -45.881,-79.963c-17.347,-19.019 -35.892,-37.922 -40.94,-64.715c-5.966,-31.658 5.787,-57.205 20.078,-81.831c17.024,-29.335 37.556,-57.553 45.892,-90.075c10.807,-42.16 -3.71,-76.033 -16.833,-108.431c-7.677,-18.951 -15.07,-37.181 -11.217,-57.32c3.941,-20.599 19.558,-42.261 54.604,-68.871c35.129,-26.674 71.933,-51.917 123.841,-45.612c37.195,4.518 65.27,16.947 85.657,35.261c30.648,27.53 43.652,67.897 45.882,111.733c3.938,77.404 -25.682,165.706 -60.73,221.414c-18.21,28.945 -11.753,57.789 5.657,89.769c20.365,37.406 57.278,80.228 62.897,138.416c5.499,56.948 -16.207,85.028 -34.842,114.259c-14.988,23.513 -28.297,47.675 -30.195,82.844c-1.341,24.85 4.714,52.268 7.337,79.445c3.241,33.585 0.434,67.045 -40.837,92.078Z" style="fill:#7e4021;"/><path d="M1734.27,3841.66c80.883,-49.058 38.252,-124.693 41.5,-184.875c4.289,-79.488 74.981,-96.074 64.983,-199.603c-9.772,-101.193 -108.078,-158.83 -71.036,-217.707c73.164,-116.293 123.186,-368.795 -82.907,-393.829c-56.816,-6.901 -97.478,19.687 -135.929,48.883c-132.59,100.676 -8.157,148.324 -32.62,243.758c-15.922,62.116 -79.776,107.101 -66.204,179.13c11.292,59.926 79.837,86.511 86.651,143.568c6.012,50.337 -38.945,99.364 -55.229,144.427c-60.47,167.347 60.909,351.418 250.791,236.248Z" style="fill:#fff;"/><path d="M1742.91,3855.91c46.991,-28.501 58.051,-64.751 57.887,-102.588c-0.14,-32.24 -9.995,-65.847 -8.388,-95.638c1.964,-36.384 19.799,-58.087 35.324,-82.826c18.585,-29.613 35.085,-62.552 29.607,-119.278c-5.156,-53.396 -33.128,-95.529 -55.467,-131.851c-7.886,-12.823 -14.977,-24.817 -19.451,-36.397c-5.211,-13.486 -6.637,-26.208 1.399,-38.982c38.116,-60.584 70.089,-156.68 65.806,-240.858c-2.702,-53.115 -19.763,-101.482 -56.896,-134.838c-24.799,-22.276 -58.672,-38.057 -103.914,-43.553c-61.727,-7.498 -106.243,20.435 -148.018,52.154c-44.514,33.8 -62.18,62.991 -67.185,89.155c-5.094,26.624 2.913,51.046 13.061,76.099c10.643,26.274 24.203,53.449 15.439,87.64c-7.586,29.594 -26.942,54.926 -42.433,81.62c-18.225,31.405 -31.613,64.362 -24.005,104.735c6.244,33.136 27.615,57.483 49.069,81.005c17.008,18.647 34.424,36.441 37.411,61.452c2.623,21.962 -6.577,43.45 -17.504,64.55c-12.869,24.85 -28.484,49.083 -36.85,72.237c-39.203,108.488 -5.955,223.046 69.859,270.804c51.116,32.201 122.251,35.7 205.249,-14.642l0,0Zm-17.286,-28.5c-68.913,41.798 -127.755,41.674 -170.197,14.938c-64.523,-40.646 -89.64,-138.94 -56.276,-231.272c7.917,-21.91 22.923,-44.722 35.1,-68.236c14.12,-27.265 24.392,-55.454 21.003,-83.831c-3.827,-32.05 -24.087,-56.069 -45.881,-79.963c-17.347,-19.019 -35.892,-37.922 -40.94,-64.715c-5.966,-31.658 5.787,-57.205 20.078,-81.831c17.024,-29.335 37.556,-57.553 45.892,-90.075c10.807,-42.16 -3.709,-76.033 -16.833,-108.431c-7.677,-18.951 -15.07,-37.181 -11.217,-57.32c3.941,-20.599 19.558,-42.261 54.604,-68.871c35.129,-26.674 71.933,-51.917 123.841,-45.612c37.195,4.518 65.27,16.947 85.658,35.261c30.647,27.53 43.651,67.897 45.881,111.733c3.938,77.404 -25.682,165.706 -60.73,221.414c-18.21,28.945 -11.753,57.789 5.657,89.769c20.365,37.406 57.278,80.228 62.897,138.416c5.499,56.948 -16.207,85.028 -34.842,114.259c-14.988,23.513 -28.297,47.675 -30.195,82.844c-1.341,24.85 4.714,52.268 7.337,79.445c3.241,33.585 0.434,67.045 -40.837,92.078l-0,-0Z" style="fill:#7e4021;"/><path d="M810.047,3910.78c9.121,1.69 -42.535,-83.475 3.818,-224.451c19.365,-58.898 88.271,-103.28 90.76,-175.823c2.132,-62.129 -49.158,-117.763 -51.725,-176.257c-3.815,-86.902 57.116,-175.093 45.23,-251.188c-20.308,-130.028 -117.994,-153.749 -130.746,-144.066c-132.59,100.676 -8.157,148.324 -32.62,243.758c-15.922,62.116 -79.776,107.101 -66.204,179.13c11.292,59.926 79.837,86.511 86.651,143.568c6.011,50.337 -38.945,99.364 -55.229,144.427c-43.715,120.978 -0.244,240.454 110.065,260.902Z" style="fill:#7e4021;"/><path d="M807.01,3927.17c7.557,1.401 12.708,-1.37 16.447,-5.686c2.161,-2.494 4.948,-6.972 4.255,-14.331c-1.262,-13.412 -38.461,-92.603 1.985,-215.615c9.175,-27.904 30.458,-52.136 49.369,-78.217c21.882,-30.178 40.851,-62.474 42.216,-102.24c1.152,-33.564 -11.613,-65.511 -25.526,-96.83c-12.003,-27.019 -25.009,-53.468 -26.206,-80.73c-1.824,-41.563 12.205,-83.361 24.898,-123.94c14.083,-45.021 26.456,-88.711 20.149,-129.089c-15.617,-99.992 -73.995,-141.966 -111.757,-154.978c-13.357,-4.603 -24.705,-5.66 -31.975,-4.822c-6.141,0.707 -10.63,2.808 -13.56,5.032c-44.514,33.8 -62.18,62.991 -67.186,89.155c-5.093,26.623 2.914,51.046 13.062,76.099c10.643,26.274 24.203,53.449 15.439,87.64c-7.586,29.594 -26.942,54.926 -42.434,81.62c-18.224,31.405 -31.612,64.362 -24.004,104.735c6.244,33.136 27.615,57.483 49.069,81.004c17.008,18.648 34.424,36.442 37.411,61.453c2.623,21.961 -6.577,43.45 -17.505,64.55c-12.869,24.85 -28.483,49.083 -36.849,72.237c-47.613,131.763 2.558,260.683 122.702,282.953Zm-31.662,-973.274c2.554,0.192 10.277,0.942 16.633,3.132c30.986,10.678 76.867,46.556 89.682,128.608c5.579,35.717 -6.571,74.169 -19.028,113.994c-13.847,44.266 -28.376,90.014 -26.386,135.353c1.371,31.233 15.293,61.846 29.044,92.801c11.841,26.655 23.655,53.588 22.675,82.153c-1.125,32.779 -17.851,58.942 -35.888,83.817c-21.005,28.97 -43.857,56.378 -54.048,87.372c-30.574,92.986 -19.433,169.615 -10.442,206.111c-80.973,-31.208 -108.184,-131.371 -71.933,-231.692c7.917,-21.91 22.923,-44.722 35.1,-68.236c14.12,-27.265 24.392,-55.454 21.003,-83.831c-3.827,-32.05 -24.087,-56.069 -45.881,-79.963c-17.347,-19.019 -35.892,-37.922 -40.94,-64.715c-5.966,-31.658 5.787,-57.205 20.078,-81.831c17.024,-29.335 37.556,-57.553 45.892,-90.075c10.807,-42.16 -3.71,-76.033 -16.833,-108.431c-7.677,-18.951 -15.07,-37.181 -11.217,-57.32c3.86,-20.179 18.926,-41.377 52.489,-67.247Z" style="fill:#7e4021;"/><path d="M1593.54,3866.32c9.12,1.69 -42.536,-83.475 3.817,-224.451c19.365,-58.898 88.271,-103.28 90.76,-175.823c2.132,-62.129 -49.158,-117.763 -51.725,-176.257c-3.815,-86.902 57.116,-175.093 45.231,-251.188c-20.309,-130.028 -117.995,-153.749 -130.747,-144.066c-132.59,100.676 -8.157,148.324 -32.62,243.758c-15.922,62.116 -79.776,107.101 -66.204,179.13c11.292,59.926 79.837,86.511 86.651,143.568c6.012,50.337 -38.945,99.364 -55.229,144.427c-43.715,120.978 -0.244,240.454 110.066,260.902Z" style="fill:#7e4021;"/><path d="M1590.51,3882.7c7.557,1.401 12.708,-1.37 16.447,-5.686c2.161,-2.494 4.948,-6.972 4.255,-14.331c-1.262,-13.412 -38.461,-92.603 1.985,-215.615c9.175,-27.904 30.458,-52.136 49.369,-78.217c21.882,-30.178 40.851,-62.474 42.216,-102.24c1.152,-33.564 -11.613,-65.511 -25.526,-96.83c-12.003,-27.019 -25.009,-53.468 -26.206,-80.73c-1.824,-41.563 12.205,-83.361 24.898,-123.94c14.083,-45.021 26.456,-88.71 20.15,-129.089c-15.618,-99.992 -73.996,-141.966 -111.758,-154.978c-13.357,-4.603 -24.705,-5.66 -31.975,-4.822c-6.141,0.707 -10.63,2.808 -13.56,5.032c-44.514,33.8 -62.18,62.991 -67.185,89.155c-5.094,26.624 2.913,51.046 13.061,76.099c10.643,26.274 24.203,53.449 15.439,87.64c-7.586,29.594 -26.942,54.926 -42.433,81.62c-18.225,31.405 -31.613,64.362 -24.005,104.735c6.244,33.136 27.615,57.483 49.069,81.005c17.008,18.647 34.424,36.441 37.411,61.452c2.623,21.962 -6.577,43.45 -17.504,64.55c-12.869,24.85 -28.484,49.083 -36.85,72.237c-47.613,131.763 2.558,260.683 122.702,282.953Zm-31.662,-973.274c2.555,0.192 10.277,0.942 16.633,3.132c30.986,10.678 76.867,46.556 89.683,128.608c5.578,35.717 -6.571,74.169 -19.029,113.994c-13.847,44.266 -28.376,90.014 -26.386,135.353c1.371,31.233 15.293,61.846 29.044,92.801c11.842,26.655 23.655,53.588 22.675,82.153c-1.124,32.779 -17.851,58.942 -35.887,83.817c-21.006,28.97 -43.858,56.378 -54.049,87.372c-30.573,92.986 -19.433,169.615 -10.442,206.111c-80.973,-31.208 -108.184,-131.371 -71.933,-231.692c7.917,-21.91 22.923,-44.722 35.1,-68.236c14.12,-27.265 24.392,-55.454 21.003,-83.831c-3.827,-32.05 -24.087,-56.069 -45.881,-79.963c-17.347,-19.019 -35.892,-37.922 -40.94,-64.715c-5.966,-31.658 5.787,-57.205 20.078,-81.831c17.024,-29.335 37.556,-57.553 45.892,-90.075c10.807,-42.16 -3.709,-76.033 -16.833,-108.431c-7.677,-18.951 -15.07,-37.181 -11.217,-57.32c3.86,-20.179 18.926,-41.377 52.489,-67.247Z" style="fill:#7e4021;"/><path d="M1367.87,3679.08c-17.511,-14.768 -216.824,-13.309 -227.442,11.46c-4.312,10.061 4.801,45.329 8.286,55.711c12.211,36.381 34.2,61.383 71.405,72.983c75.659,23.589 145.221,-51.055 151.653,-121.348c0.548,-5.982 1.257,-14.455 -3.902,-18.806Z" style="fill:#7e4021;"/><path d="M1378.61,3666.34c-2.281,-1.924 -5.888,-4.047 -10.962,-5.701c-6.499,-2.119 -16.864,-3.961 -29.802,-5.236c-38.962,-3.84 -103.534,-3.327 -149.01,2.413c-21.373,2.697 -38.817,6.796 -48.638,11.669c-8.295,4.115 -12.975,9.549 -15.093,14.49c-2.03,4.735 -2.994,12.97 -2.039,22.701c1.546,15.764 7.186,36.964 9.842,44.879c14.025,41.784 39.515,70.268 82.245,83.591c43.732,13.635 85.834,-0.583 117.8,-28.904c30.794,-27.283 51.83,-67.696 55.411,-106.836c0.467,-5.098 0.767,-11.465 -0.451,-17.081c-1.365,-6.291 -4.379,-11.831 -9.303,-15.985Zm-23.285,25.669c-0.017,1.503 -0.058,3.297 -0.155,4.359c-2.851,31.154 -19.811,63.209 -44.322,84.924c-23.338,20.677 -53.844,31.986 -85.773,22.031c-31.68,-9.877 -50.168,-31.396 -60.566,-62.375c-1.922,-5.727 -5.694,-19.694 -7.559,-31.947c-0.456,-3.002 -0.678,-6.97 -0.775,-9.7c6.048,-1.857 22.357,-6.587 36.835,-8.414c43.205,-5.453 104.551,-5.959 141.567,-2.311c7.971,0.785 16.388,2.478 20.748,3.433Z" style="fill:#7e4021;"/><path d="M1326.98,3789.03c11.788,-11.509 -19.886,-55.021 -65.059,-63.925c-50.188,-9.892 -115.048,15.674 -113.214,21.138c12.211,36.381 34.2,61.383 71.405,72.983c40.194,12.531 78.667,-2.661 106.868,-30.196Z" style="fill:#f6a7bc;"/><path d="M1338.63,3800.96c7.469,-7.293 10.475,-20.541 3.129,-36.203c-9.645,-20.562 -39.027,-48.591 -76.609,-55.999c-44.255,-8.723 -98.867,7.524 -117.905,17.472c-8.171,4.271 -12.17,9.38 -13.446,12.023c-2.382,4.933 -2.182,9.438 -0.887,13.298c14.025,41.784 39.515,70.268 82.245,83.591c46.37,14.457 90.938,-2.415 123.473,-34.182Zm-26.692,-20.659c-23.492,21.324 -54.429,33.13 -86.859,23.018c-27.353,-8.528 -44.871,-25.734 -55.833,-50.222c4.499,-1.877 10.267,-4.083 15.972,-5.728c20.649,-5.955 48.99,-10.735 73.486,-5.907c22.355,4.407 40.749,19.015 49.75,32.106c1.389,2.022 2.679,4.821 3.484,6.733Z" style="fill:#7e4021;"/></g></svg>