<?xml version="1.0" encoding="UTF-8" standalone="no"?><!DOCTYPE svg PUBLIC "-//W3C//DTD SVG 1.1//EN" "http://www.w3.org/Graphics/SVG/1.1/DTD/svg11.dtd"><svg width="100%" height="100%" viewBox="0 0 3667 3915" version="1.1" xmlns="http://www.w3.org/2000/svg" xmlns:xlink="http://www.w3.org/1999/xlink" xml:space="preserve" xmlns:serif="http://www.serif.com/" style="fill-rule:evenodd;clip-rule:evenodd;stroke-linejoin:round;stroke-miterlimit:2;"><g id="Moka-Pot-Mr" serif:id="Moka Pot-Mr"><path d="M1329.4,2490.97c252.009,2.575 1014.26,-200.072 1016.16,-198.823c8.992,5.925 102.491,59.36 123.823,79.765c18.231,17.438 107.998,880.77 101.947,965.492c-2.695,37.72 -19.943,73.755 -37.139,106.892c-32.582,62.788 -95.592,207.521 -149.079,252.709c-62.035,52.409 -165.43,78.22 -239.946,101.252c-154.422,47.73 -323.123,93.573 -486.619,100.01c-60.894,2.398 -676.415,-93.188 -741.505,-147.817c-54.43,-45.682 -312.974,-282.222 -335.297,-324.776c-46.72,-89.06 46.049,-571.896 64.071,-690.269c4.921,-32.32 37.265,-380.09 45.45,-389.584c25.762,-29.884 104.956,-57.223 142.241,-69.122c3.076,-0.981 315.837,212.432 495.897,214.271Z" style="fill:#86a8cb;"/><path d="M1329.57,2474.3c-62.924,-0.642 -142.429,-28.3 -218.707,-62.886c-117.009,-53.053 -226.315,-122.988 -258.795,-143.165c-7.205,-4.476 -11.725,-6.844 -12.822,-7.232c-5.308,-1.878 -9.041,-0.764 -10.81,-0.2c-22.909,7.312 -61.257,20.343 -93.977,36.185c-23.667,11.46 -44.371,24.651 -55.821,37.932c-1.13,1.312 -3.123,4.166 -4.509,9.071c-1.705,6.031 -4.105,20.525 -6.786,40.674c-12.616,94.839 -34.075,322.38 -38.008,348.214c-12.648,83.075 -61.975,345.207 -74.392,525.632c-5.594,81.294 -2.735,146.725 12.038,174.887c7.008,13.359 35.902,45.309 74.962,84.333c87.448,87.367 226.127,213.362 264.38,245.468c6.786,5.695 18.593,12.047 34.774,18.393c33.135,12.996 86.47,27.333 149.637,41.572c208.694,47.042 525.516,93.43 568.464,91.739c164.92,-6.493 335.119,-52.595 490.886,-100.741c76.409,-23.617 182.168,-50.703 245.78,-104.444c54.655,-46.174 119.823,-193.605 153.117,-257.764c18.218,-35.108 36.115,-73.417 38.969,-113.38c4.861,-68.047 -51.628,-636.408 -83.877,-869.985c-6.585,-47.7 -12.269,-81.711 -16.154,-95.245c-2.199,-7.661 -5.327,-11.875 -7.019,-13.494c-21.766,-20.819 -117,-75.593 -126.174,-81.638c-0.827,-0.545 -4.754,-3.722 -12.155,-2.506c-1.622,0.266 -9.684,2.205 -23.18,5.59c-126.601,31.762 -763.963,195.298 -989.82,192.99l-0.001,0Zm-497.933,-179.483c0.913,0.556 1.883,1.151 2.842,1.747c32.956,20.472 143.895,91.378 262.619,145.209c80.879,36.671 165.413,65.177 232.132,65.859l0,0c227.759,2.327 870.605,-161.961 998.273,-193.99c5.9,-1.48 11.376,-2.822 15.18,-3.744c22.205,13.234 91.085,53.142 112.779,71.888c1.609,7.834 9.419,46.671 15.591,91.376c31.993,231.727 88.47,795.543 83.648,863.051c-2.534,35.476 -19.134,69.236 -35.307,100.402c-19.477,37.534 -49.852,104.468 -82.559,161.728c-20.753,36.331 -42.195,68.787 -62.483,85.926c-60.46,51.078 -161.489,75.613 -234.112,98.06c-153.077,47.315 -320.281,92.9 -482.353,99.281c-42.303,1.665 -354.267,-44.614 -559.823,-90.95c-52.547,-11.844 -98.103,-23.684 -130.296,-34.776c-19.121,-6.588 -33.15,-12.442 -40.016,-18.204c-37.947,-31.849 -175.502,-156.849 -262.25,-243.516c-35.596,-35.563 -62.616,-64.063 -69.002,-76.237c-4.872,-9.287 -7.628,-23.586 -9.33,-41.589c-2.872,-30.363 -2.084,-70.311 1.028,-115.525c12.352,-179.492 61.508,-440.257 74.091,-522.903c3.94,-25.88 25.457,-253.826 38.097,-348.836c2.105,-15.827 4.7,-30.09 5.548,-34.603c9.512,-9.787 25.446,-18.943 43.051,-27.467c28.081,-13.597 60.529,-24.976 82.652,-32.187Z" style="fill:#7e4021;"/><path d="M2335.58,2047.04c9.834,57.745 23.808,281.521 -0.964,335.709c-26.712,58.432 -111.481,104.291 -165.071,131.825c-330.07,169.589 -977.016,109.084 -1221.04,2.63c-61.68,-26.907 -136.191,-87.771 -165.913,-151.394c-20.505,-43.894 3.377,-331.261 25.776,-338.033c63.595,-19.226 462.259,34.776 548.238,39.033c184.663,9.141 794.218,-16.012 978.976,-19.77Z" style="fill:#e0f0ff;"/><path d="M2352.01,2044.24c-1.385,-8.136 -8.517,-14.033 -16.769,-13.865c-184.538,3.753 -793.369,28.917 -977.813,19.786c-60.146,-2.977 -273.406,-30.324 -417.748,-39.868c-64.72,-4.279 -116.19,-4.502 -136.137,1.529c-4.177,1.263 -9.444,4.523 -13.624,11.714c-3.667,6.309 -7.633,18.222 -11.095,34.266c-12.035,55.772 -21.674,167.535 -20.626,241.81c0.488,34.599 3.859,61.62 9.292,73.25c31.28,66.958 109.436,131.299 174.349,159.617c147.892,64.515 442.246,112.675 726.121,103.598c190.032,-6.076 375.292,-37.878 509.202,-106.681c32.991,-16.95 77.454,-40.744 113.702,-69.957c25.706,-20.718 47.248,-44.252 58.91,-69.763c7.979,-17.454 12.75,-51.213 14.485,-91.713c3.821,-89.25 -5.269,-212.734 -12.249,-253.723Zm-1534.12,-1.652c20.805,-4.131 65.046,-2.641 119.587,0.966c144.532,9.556 358.074,36.918 418.299,39.9c180.248,8.923 764.837,-14.752 965.442,-19.431l0,0c6.332,49.26 13.079,154.381 9.734,232.514c-1.496,34.943 -4.614,64.221 -11.498,79.28c-9.707,21.236 -28.113,40.423 -49.511,57.668c-34.408,27.731 -76.702,50.172 -108.019,66.263c-130.146,66.868 -310.341,97.107 -495.033,103.013c-278.209,8.895 -566.788,-37.607 -711.728,-100.835c-58.446,-25.497 -129.313,-82.884 -157.476,-143.172c-4.41,-9.44 -5.767,-31.53 -6.163,-59.612c-1.015,-71.968 8.218,-180.269 19.879,-234.309c1.933,-8.954 5.004,-18.07 6.487,-22.245Z" style="fill:#7e4021;"/><path d="M194.747,1074.97c-137.812,107.405 -190.803,9.496 -175.303,-20.251c29.896,-57.374 158.3,-149.939 278.965,-203.225c104.978,-46.358 176.026,73.568 119.892,127.408c-56.599,54.287 -139.394,30.478 -223.554,96.068Z" style="fill:#7e4021;"/><path d="M204.992,1088.12c48.28,-37.627 96.28,-44.003 138.492,-54.678c32.287,-8.165 61.519,-18.687 86.354,-42.508c20.991,-20.133 28.019,-47.584 23.613,-74.724c-9.658,-59.492 -75.724,-117.958 -161.774,-79.958c-73.725,32.556 -150.278,79.524 -206.307,124.499c-38.934,31.253 -68.013,61.911 -80.706,86.27c-6.613,12.691 -6.15,34.303 5.396,53.941c21.615,36.764 84.866,72.939 194.932,-12.842l0,0Zm-20.49,-26.291c-71.965,56.085 -116.269,52.984 -138.152,31.824c-7.156,-6.92 -11.377,-15.454 -12.545,-23.064c-0.483,-3.148 -0.675,-6.063 0.42,-8.165c11.224,-21.54 37.583,-48.042 72.012,-75.679c54.014,-43.358 127.831,-88.614 198.905,-120c35.072,-15.488 65.663,-9.366 86.682,7.168c29.819,23.457 41.546,67.446 14.94,92.965c-26.061,24.997 -58.466,31.284 -93.731,39.602c-40.344,9.516 -84.198,20.797 -128.531,55.348l-0,0.001Z" style="fill:#7e4021;"/><path d="M1306.75,1078.59c333.842,44.151 1307.06,-162.559 1306.59,-157.959c-5.138,50.732 -209.034,1121.46 -261.035,1169.13c-43.707,40.064 -363.463,145.297 -442.633,168.583c-122.875,36.14 -718.412,-3.949 -763.145,-12.895c-94.209,-18.842 -348.305,-151.215 -352.871,-169.477c-15.294,-61.175 -234.327,-468.356 -335.964,-615.251c-72.425,-104.675 -190.119,-263.197 -273.861,-266.118c-110.439,-3.853 -133.76,-54.127 -166.388,-119.35c-0.112,-0.224 54.583,42.244 93.836,15.479c80.886,-55.154 80.113,-77.368 188.237,-95.272c189.123,-31.316 349.104,-39.641 409.504,-36.876c239.496,10.965 363.554,89.038 597.726,120.009Z" style="fill:#86a8cb;"/><path d="M1308.93,1062.07c-234.718,-31.043 -359.095,-109.145 -599.148,-120.135c-60.914,-2.789 -222.262,5.5 -412.989,37.082c-111.792,18.512 -111.274,40.92 -194.905,97.945c-10.104,6.89 -21.715,6.871 -32.338,4.662c-19.357,-4.023 -36.168,-15.49 -40.927,-18.865c-1.341,-0.95 -2.129,-1.503 -2.258,-1.585c-8.806,-5.57 -15.567,-1.245 -16.527,-0.752c-3.871,1.984 -6.457,4.981 -7.941,8.82c-1.086,2.807 -2.352,7.489 0.639,13.468c21.048,42.074 39.191,77.845 75.427,101.039c24.444,15.646 57.227,25.834 105.286,27.51c30.446,1.062 65.069,26.045 100.782,60.181c58.168,55.6 117.066,136.778 159.954,198.764c100.774,145.647 318.337,549.155 333.501,609.81c0.728,2.913 2.896,7.59 8.166,12.557c5.106,4.812 15,11.909 28.6,20.378c71.581,44.576 252.374,133.517 329.005,148.843c45.2,9.04 646.959,49.058 771.117,12.541c55.67,-16.373 229.761,-73.085 344.264,-119.442c51.432,-20.822 91.123,-40.19 104.928,-52.844c4.118,-3.775 9.551,-12.066 15.013,-24.982c9.844,-23.279 22.372,-64.532 36.465,-118.085c79.181,-300.876 210.756,-995.981 214.877,-1036.67c0.477,-4.711 -0.766,-9.083 -4.271,-12.93c-1.347,-1.478 -4.801,-5.322 -12.217,-5.487c-1.906,-0.042 -12.575,1.506 -30.591,4.848c-159.679,29.616 -974.667,192.902 -1273.91,153.326l0,-0Zm1284.47,-121.362c-21.432,127.151 -138.122,734.404 -210.594,1009.79c-11.668,44.335 -22.149,79.965 -30.901,103.397c-4.569,12.232 -7.658,20.642 -10.866,23.582c-12.42,11.385 -48.64,27.785 -94.913,46.519c-113.47,45.938 -285.992,102.134 -341.16,118.36c-36.036,10.599 -113.681,14.147 -205.874,14.166c-218.746,0.046 -518.174,-21.189 -549.301,-27.414c-74.104,-14.821 -248.7,-101.347 -317.921,-144.452c-10.049,-6.258 -19.961,-13.838 -23.034,-16.234c-22.033,-72.322 -236.714,-471.602 -337.442,-617.182c-44.022,-63.624 -104.628,-146.825 -164.334,-203.894c-42.875,-40.982 -86.1,-68.123 -122.652,-69.398c-40.294,-1.406 -67.983,-9.154 -88.478,-22.272c-17.372,-11.12 -29.506,-25.897 -39.978,-43.071c2.24,0.623 4.512,1.179 6.812,1.657c19.091,3.968 39.741,2.624 57.9,-9.758c78.144,-53.283 77.113,-75.302 181.571,-92.599c187.518,-31.051 346.131,-39.412 406.019,-36.67c238.938,10.939 362.676,88.984 596.303,119.882l-0,0c301.672,39.897 1123.39,-123.74 1284.36,-153.597l4.482,-0.81Z" style="fill:#7e4021;"/><path d="M2698.94,954.053c258.047,41.685 615.005,35.956 596.28,491.958c-18.955,461.574 -621.736,616.373 -416.904,836.687c64.861,69.764 193.959,38.479 274.424,-12.238c364.83,-229.955 649.908,-826.585 407.013,-1263.84c-145.961,-262.758 -527.964,-427.599 -830.063,-423.299c-190.123,2.706 -217.379,340.589 -30.75,370.736Z" style="fill:#c48464;"/><path d="M2696.28,970.507c89.813,14.508 191.688,23.173 285.365,47.838c90.423,23.807 173.251,62.487 228.339,138.006c47.441,65.037 73.998,157.043 68.58,288.976c-5.529,134.633 -62.406,242.317 -133.583,333.035c-72.834,92.83 -160.626,168.137 -225.881,236.03c-31.672,32.953 -58.153,64.295 -75.691,94.922c-18.993,33.166 -27.709,65.759 -22.839,98.696c4.146,28.039 18.181,56.613 45.536,86.037c29.032,31.226 69.363,44.864 113.314,45.751c62.033,1.253 131.37,-23.197 182.204,-55.239c185.188,-116.725 350.311,-326.376 438.137,-562.471c88.209,-237.122 98.389,-500.646 -25.441,-723.565c-148.638,-267.577 -537.232,-436.25 -844.87,-431.871c-104.098,1.482 -165.091,93.386 -173.031,190.383c-7.953,97.158 37.507,196.938 139.861,213.472l-0,-0Zm5.315,-32.907c-84.282,-13.615 -118.503,-97.842 -111.954,-177.846c6.562,-80.164 54.251,-158.548 140.283,-159.772c296.56,-4.221 671.971,156.787 815.256,414.728c119.065,214.339 108.154,467.76 23.34,695.756c-85.196,229.024 -245.028,432.665 -424.67,545.894c-45.724,28.82 -107.96,51.239 -163.757,50.112c-34.604,-0.699 -66.716,-10.536 -89.574,-35.122c-21.805,-23.453 -33.67,-45.866 -36.974,-68.216c-3.822,-25.85 3.883,-51.225 18.79,-77.256c16.36,-28.568 41.254,-57.649 70.798,-88.387c65.922,-68.588 154.494,-144.774 228.073,-238.553c75.236,-95.892 134.819,-209.932 140.663,-352.244c5.818,-141.669 -24.013,-240.151 -74.955,-309.987c-59.692,-81.831 -148.802,-124.799 -246.782,-150.597c-94.726,-24.941 -197.718,-33.839 -288.537,-48.51l0,-0Z" style="fill:#7e4021;"/><path d="M1218.87,499.603l687.843,-8.782c0,-0 613.825,148.656 648.733,152.218c28.187,2.877 155.952,-160.427 332.529,-34.947c47.246,33.575 125.657,143.135 78.21,261.625c-42.186,105.353 -128.56,139.505 -219.004,136.579c-78.217,-2.531 -101.346,-48.277 -146.687,-39.539c-57.241,11.033 -563.51,200.856 -620.668,210.776c-69.967,12.143 -704.485,7.657 -880.816,-2.777c-100.929,-5.972 -464.359,-124.931 -547.748,-170.537c-83.907,-45.891 -220.205,-6.317 -312.544,4.62c-0.603,0.071 114.151,-48.287 127.257,-80.34c2.994,-7.322 -97.73,-47.458 -92.917,-54.424c38.465,-55.66 271.455,-87.835 330.43,-120.984c161.125,-90.566 615.382,-253.488 615.382,-253.488Z" style="fill:#a8ccf1;"/><path d="M342.79,931.829c-4.05,3.604 -9.24,7.316 -14.882,11.224c-31.912,22.103 -80.449,43.689 -92.864,49.174c-2.474,1.093 -3.904,1.761 -4.109,1.87c-7.795,4.126 -8.346,10.423 -8.538,11.346c-1.392,6.687 0.691,11.95 5.464,16.045c1.702,1.46 5.604,4.756 12.815,3.902c55.027,-6.518 125.76,-23.348 191.552,-25.865c40.944,-1.567 79.917,2.297 111.035,19.316c84.449,46.186 452.548,166.505 554.761,172.553c177.098,10.479 814.378,14.756 884.65,2.56c57.185,-9.924 563.705,-199.794 620.972,-210.831c18.834,-3.63 32.746,5.215 50.381,14.072c22.935,11.518 50.357,24.392 92.613,25.759c97.145,3.143 189.704,-33.883 235.016,-147.042c51.029,-127.437 -33.215,-245.296 -84.029,-281.405c-131.909,-93.739 -238.303,-37.055 -300.579,4.693c-13.339,8.941 -24.485,17.122 -33.237,22.614c-2.957,1.856 -6.838,3.766 -8.237,4.438c-48.304,-6.998 -644.94,-151.63 -644.94,-151.63c-1.354,-0.327 -2.743,-0.484 -4.136,-0.466l-687.843,8.782c-1.847,0.023 -3.676,0.353 -5.414,0.977c-0,-0 -456.121,163.702 -617.922,254.647c-40.85,22.962 -166.186,45.093 -250.701,75.412c-40.761,14.622 -72.423,32.031 -85.273,50.626c-3.629,5.251 -5.304,12.207 0.047,20.28c2.342,3.534 11.307,10.473 24.401,17.38c17.329,9.141 42.84,20.836 58.997,29.569Zm-4.946,44.621c3.124,-1.987 6.148,-3.989 9.044,-5.995c17.394,-12.048 30.143,-24.963 34.512,-35.649c1.9,-4.645 3.088,-13.319 -5.783,-21.373c-6.181,-5.612 -27.339,-16.449 -48.746,-26.902c-9.141,-4.463 -19.723,-10.078 -27.857,-14.488c4.025,-2.811 8.672,-5.547 13.79,-8.282c21.106,-11.277 49.768,-21.384 81.012,-30.815c82.381,-24.867 181.879,-45.115 217.836,-65.326c153.314,-86.175 573.181,-238.049 610.223,-251.387l0.001,-0c-0,-0 641.543,-8.191 682.953,-8.72c38.697,9.357 615.074,148.653 648.923,152.107c4.83,0.493 11.438,-0.668 19.269,-4.669c9.982,-5.1 24.379,-15.857 42.587,-28.064c54.435,-36.491 147.412,-87.143 262.711,-5.209c43.678,31.039 116.256,132.3 72.392,241.843c-39.061,97.548 -119.249,128.827 -202.993,126.117c-43.784,-1.416 -68.948,-17.728 -91.305,-28.485c-19.342,-9.307 -37.117,-14.993 -59.075,-10.761c-57.214,11.027 -563.232,200.804 -620.364,210.72c-69.663,12.09 -701.418,7.395 -876.981,-2.993c-99.646,-5.897 -458.407,-123.497 -540.735,-168.523c-36.009,-19.694 -80.925,-25.193 -128.305,-23.38c-30.652,1.173 -62.367,5.379 -93.109,10.234Z" style="fill:#7e4021;"/><path d="M2724.72,826.245c63.289,42.653 128.077,-52.663 63.596,-94.988c-67.415,-44.251 -126.47,52.614 -63.596,94.988Z" style="fill:#e0f0ff;"/><path d="M2715.41,840.066c81.744,55.09 165.34,-68.075 82.057,-122.742c-25.977,-17.051 -51.067,-17.134 -71.173,-8.343c-46.951,20.528 -67.459,92.956 -10.884,131.085l0,-0Zm18.629,-27.642c-31.448,-21.195 -20.49,-61.491 5.609,-72.902c11.204,-4.898 25.052,-3.833 39.528,5.669c45.678,29.983 -0.302,97.449 -45.137,67.233l0,-0Z" style="fill:#7e4021;"/><path d="M1603.78,559.143c132.421,-164.048 196.997,-348.166 163.504,-446.286c-12.67,-37.12 -40.113,-66.019 -79.411,-74.086c-64.162,-13.17 -226.957,-42.23 -321.152,-0.576c-218.86,96.782 95.764,695.989 237.059,520.948Z" style="fill:#c48464;"/><path d="M1616.75,569.612c81.096,-100.464 137.115,-208.383 161.688,-300.212c17.071,-63.79 18.869,-120.185 4.62,-161.927c-14.601,-42.776 -46.546,-75.732 -91.833,-85.028c-66.178,-13.584 -234.089,-42.456 -331.243,0.507c-58.496,25.867 -84.154,83.206 -85.089,153.876c-1.301,98.215 45.703,222.763 107.686,311.944c35.347,50.857 75.708,90.144 114.335,107.85c43.757,20.059 85.931,14.992 119.836,-27.01l-0,-0Zm-25.938,-20.937c-22.613,28.014 -50.823,31.024 -80.008,17.646c-52.144,-23.903 -106.221,-93.005 -145.659,-173.082c-39.83,-80.873 -64.606,-173.398 -54.862,-244.639c5.908,-43.2 24.852,-78.214 63.18,-95.162c91.235,-40.346 248.913,-11.097 311.059,1.66c33.312,6.837 56.25,31.679 66.99,63.143c12.546,36.755 9.757,86.373 -5.274,142.542c-23.578,88.109 -77.616,191.498 -155.426,287.892Z" style="fill:#7e4021;"/><path d="M1307.07,85.009c13.073,33.041 47.191,56.397 89.467,70.622c58.007,19.519 130.962,22.649 173.569,18.117c9.147,-0.973 15.783,-9.19 14.81,-18.337c-0.973,-9.147 -9.189,-15.783 -18.336,-14.81c-39.13,4.163 -106.139,1.364 -159.413,-16.562c-31.919,-10.741 -59.231,-26.347 -69.101,-51.294c-3.384,-8.553 -13.076,-12.75 -21.63,-9.366c-8.553,3.385 -12.75,13.076 -9.366,21.63Z" style="fill:#7e4021;"/><path d="M1695.9,146.254c5.417,-2.722 16.605,-8.422 20.9,-11.179c14.202,-9.115 33.659,-20.424 44.153,-33.779c5.683,-7.233 4.424,-17.72 -2.809,-23.403c-7.233,-5.683 -17.719,-4.424 -23.402,2.809c-8.41,10.703 -24.565,19.016 -35.947,26.321c-5.671,3.64 -21.485,11.165 -23.565,12.463c-11.44,7.137 -7.654,18.447 -7.032,20.121c0.291,0.786 7.137,15.521 23.329,9.18c1.62,-0.634 3.086,-1.495 4.373,-2.533Z" style="fill:#7e4021;"/><path d="M1570.14,626.359c86.597,55.662 287.512,279.53 356.909,390.426c4.879,7.797 15.172,10.166 22.969,5.287c7.798,-4.88 10.167,-15.172 5.287,-22.97c-72.29,-115.52 -283.862,-349.737 -370.999,-403.212c-4.907,-3.012 -12.24,-4.703 -21.944,-2.274c-10.6,2.653 -27.2,11.503 -47.789,25.846c-105.543,73.529 -334.501,295.947 -424.739,412.505c-5.632,7.274 -4.298,17.751 2.975,23.382c7.274,5.631 17.751,4.297 23.382,-2.976c88.702,-114.574 313.689,-333.283 417.437,-405.56c14.787,-10.302 31.672,-18.256 36.512,-20.454Z" style="fill:#7e4021;"/><path d="M2487.84,801.647c-68.552,-23.552 -679.827,-184.109 -886.708,-227.331c-9.004,-1.881 -17.842,3.902 -19.723,12.906c-1.881,9.005 3.902,17.842 12.906,19.723c205.94,43.025 814.454,202.782 882.694,226.227c8.7,2.989 18.189,-1.648 21.178,-10.347c2.989,-8.7 -1.647,-18.189 -10.347,-21.178Z" style="fill:#7e4021;"/><path d="M739.507,867.301c68.227,-23.44 589.546,-217.339 795.445,-260.356c9.005,-1.881 14.788,-10.718 12.906,-19.723c-1.881,-9.004 -10.718,-14.787 -19.722,-12.906c-206.922,43.231 -730.894,237.904 -799.459,261.461c-8.7,2.988 -13.336,12.478 -10.348,21.177c2.989,8.7 12.479,13.336 21.178,10.347Z" style="fill:#7e4021;"/><path d="M1214.01,523.333c113.145,33.216 269.734,72.05 314.214,87.45c8.692,3.009 18.192,-1.605 21.202,-10.297c3.009,-8.692 -1.605,-18.193 -10.297,-21.202c-44.696,-15.475 -202.033,-54.557 -315.729,-87.935c-8.826,-2.591 -18.096,2.471 -20.687,11.297c-2.591,8.826 2.471,18.096 11.297,20.687Z" style="fill:#7e4021;"/><path d="M1579.24,619.085c73.033,-20.589 267.039,-87.187 335.819,-106.499c8.856,-2.487 14.027,-11.696 11.541,-20.552c-2.487,-8.856 -11.696,-14.027 -20.552,-11.54c-68.786,19.314 -262.813,85.917 -335.852,106.508c-8.854,2.496 -14.016,11.71 -11.52,20.563c2.496,8.854 11.711,14.016 20.564,11.52Z" style="fill:#7e4021;"/><path d="M1974.08,1307.75l-88.679,769.406c-1.053,9.138 5.511,17.412 14.649,18.465c9.138,1.053 17.412,-5.511 18.465,-14.649l88.679,-769.406c1.053,-9.138 -5.511,-17.412 -14.649,-18.465c-9.138,-1.053 -17.412,5.511 -18.465,14.649Z" style="fill:#7e4021;"/><path d="M1043.63,1311.57l88.679,769.406c1.053,9.138 9.327,15.702 18.465,14.649c9.138,-1.053 15.702,-9.327 14.649,-18.465l-88.679,-769.406c-1.053,-9.138 -9.327,-15.702 -18.465,-14.649c-9.138,1.053 -15.702,9.327 -14.649,18.465Z" style="fill:#7e4021;"/><path d="M527.063,1012.46c66.73,290.53 176.806,787.079 258.735,1073.83c2.527,8.844 11.759,13.974 20.604,11.446c8.844,-2.527 13.973,-11.759 11.446,-20.604c-81.799,-286.296 -191.674,-782.064 -258.298,-1072.13c-2.059,-8.965 -11.009,-14.572 -19.974,-12.512c-8.965,2.059 -14.572,11.009 -12.513,19.974Z" style="fill:#7e4021;"/><path d="M1649.64,3779.69c-1.597,4.89 -0.916,10.45 2.323,14.936c5.384,7.458 15.811,9.141 23.269,3.757c5.076,-3.665 7.15,-7.87 7.558,-14.566c4.478,-73.411 2.018,-148.197 2.675,-221.724c1.079,-120.668 0.777,-241.359 0.603,-362.03c-0.142,-97.935 -8.013,-201.564 16.395,-297.421c14.711,-57.774 47.917,-110.221 95.569,-146.402c67.929,-51.575 181.738,-81.946 280.651,-68.317c63.846,8.797 121.631,36.053 155.294,89.555c43.661,69.395 63.517,186.844 73.313,311.131c15.074,191.225 5.412,398.595 13.915,480.527c0.95,9.15 9.149,15.807 18.298,14.857c9.15,-0.949 15.807,-9.148 14.857,-18.298c-8.488,-81.792 1.208,-288.808 -13.839,-479.706c-10.284,-130.462 -32.5,-253.42 -78.331,-326.262c-38.945,-61.898 -105.091,-94.648 -178.958,-104.825c-107.657,-14.834 -231.422,18.655 -305.356,74.79c-53.644,40.73 -91.155,99.687 -107.716,164.725c-25.09,98.534 -17.571,205.024 -17.425,305.694c0.174,120.556 0.475,241.132 -0.602,361.684c-0.645,72.252 1.781,145.73 -2.493,217.895Z" style="fill:#7e4021;"/><path d="M1682.23,3781.78c-4.443,-72.837 -1.963,-147.04 -2.615,-219.992c-1.077,-120.552 -0.775,-241.128 -0.601,-361.684c0.146,-100.67 7.664,-207.16 -17.425,-305.694c-16.561,-65.038 -54.072,-123.995 -107.716,-164.725c-73.934,-56.135 -197.7,-89.624 -305.357,-74.79c-73.866,10.177 -140.012,42.927 -178.957,104.825c-45.878,72.917 -69.924,173.02 -82.977,288.945c-19.128,169.877 -15.049,374.268 -26.193,574.919c-0.51,9.184 6.533,17.055 15.717,17.565c9.185,0.51 17.055,-6.533 17.565,-15.717c11.107,-199.993 6.97,-403.717 26.035,-573.037c12.409,-110.206 34.451,-205.604 78.066,-274.924c33.662,-53.502 91.447,-80.758 155.294,-89.555c98.912,-13.629 212.721,16.742 280.65,68.317c47.652,36.181 80.859,88.628 95.57,146.402c24.408,95.857 16.536,199.486 16.395,297.421c-0.174,120.671 -0.476,241.362 0.602,362.03c0.657,73.527 -1.802,148.313 2.676,221.724c0.56,9.181 8.469,16.181 17.65,15.621c9.182,-0.56 16.181,-8.469 15.621,-17.651Z" style="fill:#7e4021;"/><path d="M2283.11,2798.63c-4.39,-30.817 -3.398,-97.111 1.815,-127.74c15.324,-90.056 55.017,-147.361 124.711,-171.602c8.688,-3.022 13.288,-12.529 10.266,-21.217c-3.022,-8.688 -12.529,-13.289 -21.217,-10.267c-80.811,28.108 -128.852,93.073 -146.621,197.494c-5.633,33.098 -6.698,104.733 -1.954,138.033c1.298,9.107 9.744,15.447 18.851,14.149c9.107,-1.297 15.447,-9.744 14.149,-18.85Z" style="fill:#7e4021;"/><path d="M1041.69,2919.69c9.057,-40.47 11.502,-124.611 0.75,-164.836c-32.825,-122.799 -119.281,-200.661 -268.559,-233.716c-8.981,-1.989 -17.887,3.688 -19.876,12.669c-1.989,8.981 3.688,17.887 12.669,19.876c134.785,29.845 213.925,98.903 243.563,209.779c9.716,36.349 7.108,112.378 -1.076,148.949c-2.009,8.976 3.648,17.895 12.625,19.904c8.977,2.009 17.895,-3.648 19.904,-12.625Z" style="fill:#7e4021;"/><path d="M2392.58,2679.37c27.356,114.616 153.674,84.745 125.003,-30.83c-29.977,-120.836 -152.18,-83.034 -125.003,30.83Z" style="fill:#e0f0ff;"/><path d="M2376.37,2683.24c16.596,69.534 65.519,92.445 103.636,83.238c38.105,-9.203 71.143,-51.855 53.754,-121.95c-18.17,-73.244 -67.108,-95.044 -104.569,-84.644c-37.261,10.345 -69.207,54.705 -52.821,123.356Zm32.422,-7.739c-10.806,-45.273 4.743,-76.676 29.316,-83.498c24.392,-6.772 51.468,12.86 63.299,60.551c11.3,45.549 -4.465,75.542 -29.227,81.523c-24.749,5.977 -52.612,-13.428 -63.388,-58.576Z" style="fill:#7e4021;"/><path d="M2456.07,2659.6c16.263,68.137 91.356,50.379 74.312,-18.328c-17.821,-71.835 -90.468,-49.362 -74.312,18.328Z" style="fill:#e0f0ff;"/><path d="M2439.86,2663.47c11.052,46.307 44.385,60.615 69.77,54.484c25.374,-6.128 48.508,-34.02 36.929,-80.694c-12.097,-48.763 -45.592,-62.128 -70.532,-55.204c-24.737,6.868 -47.045,35.838 -36.167,81.414Zm32.422,-7.739c-5.304,-22.225 0.599,-38.208 12.662,-41.557c11.893,-3.302 23.494,7.859 29.262,31.112c5.498,22.16 -0.355,37.357 -12.402,40.266c-12.033,2.907 -24.283,-7.87 -29.522,-29.821Z" style="fill:#7e4021;"/><path d="M1959.8,2060.09c122.573,-2.715 247.336,-114.669 290.348,-258.884c48.506,-162.632 -31.446,-348.86 -106.948,-422.273c-204.144,-198.492 -590.094,83.982 -459.691,436.499c38.563,104.248 155.247,247.339 276.291,244.658Z" style="fill:#fff;"/><path d="M1960.17,2076.75c128.738,-2.852 260.774,-119.314 305.95,-270.783c50.428,-169.08 -32.806,-362.663 -111.302,-438.986c-87.118,-84.706 -205.192,-87.981 -306.709,-36.544c-149.052,75.524 -261.939,269.896 -180.232,490.775c24.02,64.932 77.216,144.395 143.087,196.964c45.525,36.331 97.098,59.728 149.205,58.574l0.001,-0Zm-0.739,-33.325c-44.729,0.99 -88.595,-20.115 -127.674,-51.303c-61.035,-48.709 -110.361,-122.311 -132.617,-182.475c-74.776,-202.142 27.627,-380.359 164.035,-449.475c88.791,-44.99 192.209,-43.38 268.406,30.708c72.509,70.501 149.178,249.375 102.596,405.56c-40.85,136.963 -158.337,244.406 -274.746,246.985l0,-0Z" style="fill:#7e4021;"/><path d="M954.701,2036.95c122.572,-2.715 247.335,-114.669 290.347,-258.884c48.506,-162.633 -31.446,-348.861 -106.948,-422.273c-204.144,-198.492 -590.094,83.982 -459.691,436.499c38.563,104.247 155.247,247.339 276.292,244.658Z" style="fill:#fff;"/><path d="M955.07,2053.61c128.738,-2.851 260.774,-119.314 305.95,-270.783c50.429,-169.08 -32.806,-362.663 -111.302,-438.986c-87.118,-84.706 -205.192,-87.981 -306.709,-36.543c-149.051,75.523 -261.939,269.895 -180.232,490.774c24.02,64.932 77.216,144.395 143.088,196.964c45.524,36.332 97.098,59.728 149.205,58.574l-0,0Zm-0.739,-33.325c-44.729,0.991 -88.595,-20.115 -127.674,-51.302c-61.034,-48.709 -110.361,-122.311 -132.617,-182.476c-74.776,-202.142 27.627,-380.358 164.036,-449.475c88.79,-44.989 192.208,-43.379 268.405,30.708c72.509,70.502 149.179,249.375 102.596,405.56c-40.85,136.963 -158.336,244.407 -274.745,246.985l-0.001,0Z" style="fill:#7e4021;"/><path d="M1959.8,2060.09c54.339,-1.203 65.635,-216.905 64.082,-380.667c-0.19,-19.994 -72.121,-53.006 -72.892,-73.233c-0.89,-23.366 68.152,-65.813 66.565,-88.807c-11.17,-161.833 -29.847,-205.699 -58.694,-202.907c-185.932,17.991 -371.763,240.331 -275.352,500.956c38.563,104.248 155.247,247.339 276.291,244.658Z" style="fill:#7e4021;"/><path d="M1968.33,1604.97c1.063,-1.9 3.155,-5.462 5.103,-7.863c8.533,-10.52 21.641,-22.218 32.898,-33.462c8.819,-8.81 16.584,-17.454 21.321,-25.132c4.963,-8.046 6.981,-15.719 6.529,-22.271c-6.922,-100.298 -17.175,-156.642 -30.275,-185.116c-12.71,-27.627 -29.305,-34.912 -46.651,-33.233c-194.507,18.821 -390.235,250.682 -289.379,523.328c24.02,64.932 77.216,144.395 143.087,196.964c45.525,36.331 97.098,59.728 149.205,58.574l0.001,-0c10.798,-0.239 20.881,-4.979 29.713,-14.686c9.262,-10.18 17.493,-26.991 24.002,-49.067c22.187,-75.25 27.766,-217.396 26.663,-333.736c-0.05,-5.188 -1.788,-10.977 -5.772,-16.88c-5.059,-7.498 -14.909,-16.177 -26.353,-24.84c-12.038,-9.112 -25.938,-18.505 -35.195,-27.131c-1.718,-1.602 -3.72,-3.984 -4.897,-5.449Zm32.542,-87.206c-0.52,0.95 -3.397,6.109 -6.044,9.326c-5.883,7.149 -13.89,14.848 -21.887,22.587c-13.027,12.609 -25.895,25.429 -32.4,36.274c-4.5,7.503 -6.443,14.667 -6.207,20.88c0.227,5.939 2.789,12.799 8.34,19.694c7.3,9.068 21.139,19.556 35.12,29.813c8.53,6.258 17.067,12.475 23.458,18.339c2.287,2.098 5.024,5.446 5.976,6.639c1.008,112.604 -3.89,249.593 -25.316,322.263c-4.064,13.783 -8.594,25.025 -14.073,32.775c-2.686,3.799 -4.942,7.003 -8.409,7.08l0,-0c-44.729,0.99 -88.595,-20.115 -127.674,-51.303c-61.035,-48.709 -110.361,-122.311 -132.617,-182.475c-91.965,-248.608 83.968,-461.423 261.326,-478.585c5.816,-0.563 8.898,4.724 13.159,13.986c12.232,26.587 20.775,79.292 27.248,172.707Z" style="fill:#7e4021;"/><path d="M954.701,2036.95c54.338,-1.204 65.635,-216.906 64.081,-380.668c-0.19,-19.993 -72.121,-53.005 -72.892,-73.233c-0.89,-23.366 68.152,-65.813 66.565,-88.806c-11.169,-161.833 -29.847,-205.699 -58.694,-202.908c-185.932,17.991 -371.763,240.331 -275.352,500.957c38.563,104.247 155.247,247.339 276.292,244.658Z" style="fill:#7e4021;"/><path d="M963.231,1581.83c1.063,-1.9 3.155,-5.462 5.103,-7.864c8.533,-10.52 21.642,-22.218 32.898,-33.462c8.819,-8.81 16.584,-17.453 21.321,-25.132c4.963,-8.045 6.981,-15.718 6.529,-22.271c-6.922,-100.298 -17.174,-156.642 -30.274,-185.116c-12.711,-27.627 -29.306,-34.911 -46.652,-33.233c-194.507,18.821 -390.235,250.683 -289.379,523.328c24.02,64.932 77.216,144.395 143.088,196.964c45.524,36.332 97.098,59.728 149.205,58.574l-0,0c10.798,-0.239 20.881,-4.978 29.713,-14.685c9.262,-10.18 17.493,-26.992 24.002,-49.068c22.187,-75.25 27.767,-217.395 26.663,-333.735c-0.049,-5.188 -1.788,-10.978 -5.771,-16.88c-5.06,-7.498 -14.91,-16.178 -26.354,-24.84c-12.038,-9.112 -25.938,-18.506 -35.194,-27.132c-1.719,-1.601 -3.721,-3.984 -4.898,-5.448Zm32.542,-87.206c-0.52,0.95 -3.397,6.109 -6.044,9.325c-5.883,7.15 -13.89,14.848 -21.887,22.588c-13.027,12.609 -25.895,25.428 -32.4,36.273c-4.5,7.504 -6.443,14.668 -6.206,20.88c0.226,5.94 2.789,12.8 8.339,19.695c7.3,9.068 21.139,19.556 35.12,29.813c8.53,6.257 17.068,12.475 23.459,18.338c2.286,2.098 5.023,5.447 5.975,6.64c1.009,112.604 -3.89,249.592 -25.316,322.262c-4.064,13.783 -8.594,25.026 -14.073,32.775c-2.686,3.8 -4.942,7.003 -8.408,7.08l-0.001,0c-44.729,0.991 -88.595,-20.115 -127.674,-51.302c-61.034,-48.709 -110.361,-122.311 -132.617,-182.476c-91.964,-248.607 83.968,-461.423 261.326,-478.585c5.816,-0.562 8.898,4.724 13.159,13.987c12.232,26.587 20.776,79.291 27.248,172.707Z" style="fill:#7e4021;"/><path d="M1959.8,2060.09c122.573,-2.715 247.336,-114.669 290.348,-258.884c-156.698,-52.66 -435.706,-31.615 -566.639,14.226c38.563,104.248 155.247,247.339 276.291,244.658Z" style="fill:#a8ccf1;"/><path d="M1960.17,2076.75c128.738,-2.852 260.774,-119.314 305.95,-270.783c2.567,-8.608 -2.148,-17.701 -10.662,-20.562c-159.689,-53.665 -444.025,-32.422 -577.457,14.294c-4.22,1.477 -7.669,4.588 -9.573,8.634c-1.903,4.045 -2.102,8.686 -0.551,12.879c24.02,64.932 77.216,144.395 143.087,196.964c45.525,36.331 97.098,59.728 149.205,58.574l0.001,-0Zm-0.739,-33.325c-44.729,0.99 -88.595,-20.115 -127.674,-51.303c-55.691,-44.444 -101.634,-109.614 -126.159,-166.39c129.534,-39.707 374.154,-57.044 523.535,-13.64c-44.832,129.412 -157.765,228.853 -269.702,231.333l0,-0Z" style="fill:#7e4021;"/><path d="M954.701,2036.95c122.572,-2.715 247.335,-114.669 290.347,-258.884c-156.698,-52.661 -435.706,-31.616 -566.639,14.226c38.563,104.247 155.247,247.339 276.292,244.658Z" style="fill:#a8ccf1;"/><path d="M955.07,2053.61c128.738,-2.851 260.774,-119.314 305.95,-270.783c2.567,-8.607 -2.148,-17.701 -10.662,-20.562c-159.688,-53.665 -444.025,-32.422 -577.457,14.294c-4.219,1.478 -7.669,4.589 -9.572,8.634c-1.904,4.045 -2.103,8.686 -0.552,12.879c24.02,64.932 77.216,144.395 143.088,196.964c45.524,36.332 97.098,59.728 149.205,58.574l-0,0Zm-0.739,-33.325c-44.729,0.991 -88.595,-20.115 -127.674,-51.302c-55.691,-44.445 -101.634,-109.614 -126.159,-166.39c129.534,-39.708 374.154,-57.045 523.535,-13.641c-44.832,129.413 -157.765,228.854 -269.701,231.333l-0.001,0Z" style="fill:#7e4021;"/><path d="M644.631,1333.97c45.015,-65.418 100.237,-110.219 178.078,-129.119c8.939,-2.17 14.434,-11.19 12.263,-20.129c-2.17,-8.939 -11.19,-14.434 -20.128,-12.263c-86.259,20.944 -147.79,70.122 -197.673,142.616c-5.215,7.578 -3.296,17.963 4.282,23.178c7.578,5.214 17.964,3.295 23.178,-4.283Z" style="fill:#7e4021;"/><path d="M2340.85,1354.75c-46.494,-74.712 -105.697,-126.669 -190.9,-151.561c-8.829,-2.58 -18.092,2.494 -20.672,11.324c-2.579,8.829 2.495,18.092 11.325,20.672c76.888,22.462 129.99,69.756 171.946,137.177c4.861,7.81 15.147,10.205 22.957,5.345c7.81,-4.86 10.204,-15.147 5.344,-22.957Z" style="fill:#7e4021;"/><path d="M1422.64,2264.62c-470.93,347.209 -954.349,-266.394 -889.619,-356.478c4.867,-6.772 52.911,18.306 59.855,20.506c49.508,15.685 97.198,19.588 148.38,10.038c163.485,-30.507 294.692,-133.134 470.199,-99.714c83.865,15.97 183.978,78.517 228.405,153.29c0.31,0.521 1.538,0.549 1.872,0.043c47.821,-72.65 151.866,-130.496 236.377,-142.589c176.859,-25.308 303.204,83.248 465.112,121.246c50.689,11.896 98.507,10.192 148.685,-3.198c7.038,-1.878 56.185,-24.72 60.735,-17.73c60.515,92.967 -472.174,683.177 -926.627,314.664l-3.374,-0.078Z" style="fill:#fff;"/><path d="M1423.88,2284.31c324.527,254.569 686.091,41.013 853.563,-144.49c51.751,-57.322 84.835,-112.194 93.825,-149.783c5.005,-20.924 2.764,-37.696 -4.655,-49.092c-3.09,-4.747 -11.041,-10.378 -23.89,-8.401c-15.615,2.402 -49.302,17.57 -55.111,19.12c-47.442,12.66 -92.653,14.323 -140.579,3.075c-80.175,-18.816 -151.5,-55.223 -224.721,-83.672c-76.523,-29.732 -155.031,-50.944 -246.56,-37.847c-81.357,11.642 -179.827,63.905 -234.302,131.325c-51.158,-69.862 -146.125,-126.566 -226.873,-141.942c-90.829,-17.296 -170.23,0.281 -248.041,26.46c-74.452,25.049 -147.377,58.135 -228.333,73.242c-48.393,9.03 -93.48,5.288 -140.289,-9.542c-5.731,-1.816 -38.685,-18.517 -54.172,-21.636c-12.745,-2.566 -20.947,2.693 -24.252,7.293c-7.884,10.972 -11.041,27.504 -7.46,48.49c6.478,37.968 35.429,94.281 82.521,153.913c152.433,193.022 493.333,423.054 829.329,183.487Zm916.833,-316.877c0.022,1.106 -0.01,2.262 -0.077,3.462c-0.416,7.424 -2.63,16.055 -6.266,25.692c-12.464,33.041 -41.092,75.952 -81.668,120.896c-160.062,177.294 -506.623,385.295 -816.186,134.272c-2.867,-2.324 -6.424,-3.632 -10.114,-3.717l-3.374,-0.077c-3.69,-0.085 -7.304,1.057 -10.274,3.247c-320.512,236.308 -646.599,13.129 -792.043,-171.044c-36.876,-46.694 -62.186,-90.823 -72.324,-124.36c-2.965,-9.81 -4.597,-18.553 -4.548,-26.001c0.008,-1.315 0.056,-2.576 0.169,-3.774c2.836,0.918 5.99,2.008 8.626,3.087c14.978,6.129 31.325,14.192 35.212,15.424c52.207,16.54 102.499,20.604 156.471,10.533c82.529,-15.4 156.95,-48.881 232.849,-74.417c72.541,-24.406 146.497,-41.433 231.175,-25.308c79.692,15.175 174.978,74.378 217.195,145.43c2.625,4.417 8.304,8.405 14.872,8.556c6.567,0.151 12.424,-3.571 15.249,-7.863c45.451,-69.047 144.496,-123.76 224.817,-135.254c85.331,-12.21 158.424,8.202 229.766,35.92c74.643,29.002 147.444,65.872 229.177,85.054c53.451,12.544 103.877,10.799 156.79,-3.321c3.939,-1.051 20.641,-8.354 35.884,-13.787c2.641,-0.941 5.782,-1.871 8.622,-2.65Z" style="fill:#7e4021;"/><path d="M1460.57,2111.12c50.019,-39.79 172.172,-106.626 349.883,-53.365c92.553,27.739 196.593,54.32 292.855,51.274c99.804,-3.157 191.394,-37.644 255.266,-132.722c5.13,-7.635 3.095,-17.999 -4.54,-23.128c-7.636,-5.13 -17.999,-3.095 -23.129,4.54c-57.122,85.029 -139.395,115.17 -228.651,117.994c-92.796,2.935 -193.01,-23.148 -282.231,-49.888c-193.206,-57.905 -325.825,15.949 -380.204,59.209c-7.199,5.726 -8.394,16.22 -2.667,23.419c5.726,7.198 16.22,8.393 23.418,2.667Z" style="fill:#7e4021;"/><path d="M1460.29,2084.88c-52.314,-45.701 -184.71,-125.029 -380.31,-76.093c-90.357,22.605 -191.665,44.05 -284.228,36.846c-89.031,-6.928 -169.83,-40.823 -222.979,-128.391c-4.772,-7.863 -15.031,-10.372 -22.895,-5.6c-7.863,4.773 -10.373,15.032 -5.6,22.895c59.429,97.917 149.335,136.582 248.888,144.329c96.02,7.472 201.173,-14.293 294.904,-37.743c180.04,-45.043 302.138,26.795 350.289,68.86c6.928,6.052 17.465,5.341 23.517,-1.586c6.052,-6.928 5.341,-17.465 -1.586,-23.517Z" style="fill:#7e4021;"/><path d="M1087.91,2323.82c15.737,5.165 37.251,5.673 59.844,3.169c31.067,-3.442 64.325,-12.233 85.096,-18.835c8.766,-2.787 13.621,-12.166 10.835,-20.932c-2.786,-8.767 -12.166,-13.622 -20.932,-10.836c-19.206,6.105 -49.944,14.289 -78.67,17.473c-17.27,1.914 -33.748,2.239 -45.777,-1.71c-8.74,-2.869 -18.164,1.898 -21.033,10.638c-2.869,8.739 1.898,18.164 10.637,21.033Z" style="fill:#7e4021;"/><path d="M1277.87,2285.41c15.116,-2.141 34.431,-16.227 47.889,-23.248c8.155,-4.255 11.321,-14.331 7.066,-22.486c-4.255,-8.156 -14.33,-11.322 -22.486,-7.067c-6.228,3.25 -13.734,8.294 -21.419,12.797c-5.409,3.17 -10.799,6.303 -15.725,7c-9.107,1.29 -15.454,9.731 -14.165,18.839c1.29,9.108 9.732,15.455 18.84,14.165Z" style="fill:#7e4021;"/><path d="M1454.52,2207.55c34.972,-22.791 73.245,-31.584 124.095,-30.694c53.974,0.945 121.371,12.628 212.241,30.953c248.155,50.045 469.541,-29.918 569.785,-229.26c4.132,-8.218 0.816,-18.245 -7.402,-22.378c-8.218,-4.132 -18.246,-0.815 -22.378,7.403c-93.66,186.249 -301.56,258.317 -533.415,211.56c-93.429,-18.842 -162.754,-30.634 -218.248,-31.606c-58.619,-1.026 -102.562,9.822 -142.878,36.095c-7.706,5.022 -9.886,15.357 -4.863,23.063c5.022,7.707 15.356,9.886 23.063,4.864Z" style="fill:#7e4021;"/><path d="M1452.34,2181.14c-75.578,-54.367 -164.172,-51.837 -356.679,-22.159c-233.762,36.038 -438.125,-45.521 -523.114,-235.883c-3.75,-8.4 -13.614,-12.175 -22.013,-8.425c-8.4,3.75 -12.175,13.614 -8.425,22.014c90.964,203.744 308.436,293.81 558.63,255.238c91.568,-14.116 158.442,-22.427 211.423,-20.628c49.927,1.695 86.836,12.533 120.713,36.902c7.467,5.372 17.891,3.67 23.262,-3.797c5.372,-7.467 3.67,-17.891 -3.797,-23.262Z" style="fill:#7e4021;"/><path d="M1455.96,1993.66c0.959,-5.044 -0.419,-10.46 -4.188,-14.496c-6.28,-6.721 -16.835,-7.08 -23.557,-0.801c-1.047,0.978 -5.208,5.12 -5.572,13.535c-0.478,11.082 2.659,61.516 2.856,66.332c2.603,63.774 2.182,127.642 -10.497,190.431c-1.821,9.017 4.021,17.815 13.038,19.636c9.017,1.821 17.815,-4.021 19.636,-13.038c13.21,-65.416 13.841,-131.946 11.128,-198.389c-0.18,-4.413 -2.631,-58.522 -2.844,-63.21Z" style="fill:#7e4021;"/><path d="M1601.43,1944.66c1.703,-0.654 3.603,-1.405 4.464,-1.821c7.595,-3.671 15.553,-6.702 23.484,-9.56c20.929,-7.544 42.419,-13.282 64.541,-15.781c9.14,-1.033 15.722,-9.292 14.69,-18.432c-1.033,-9.141 -9.292,-15.723 -18.433,-14.691c-24.706,2.792 -48.726,9.12 -72.101,17.545c-9.017,3.25 -18.051,6.733 -26.687,10.908c-1.833,0.885 -6.048,2.206 -8.034,3.2c-3.72,1.862 -5.891,4.251 -6.976,5.738c-4.644,6.364 -4.123,12.462 -1.387,17.749c1.351,2.611 4.134,7.309 12.025,8.954c5.334,1.112 10.609,-0.465 14.414,-3.809Z" style="fill:#7e4021;"/><path d="M1742.99,1915.14c16.142,7.779 40.556,7.067 58.084,10.732c9.004,1.883 17.842,-3.899 19.725,-12.903c1.883,-9.004 -3.899,-17.842 -12.903,-19.725c-8.662,-1.811 -19.045,-2.451 -29.264,-3.537c-7.637,-0.811 -15.209,-1.722 -21.17,-4.595c-8.286,-3.993 -18.256,-0.508 -22.25,7.778c-3.993,8.287 -0.508,18.257 7.778,22.25Z" style="fill:#7e4021;"/></g></svg>