<?xml version="1.0" encoding="UTF-8" standalone="no"?><!DOCTYPE svg PUBLIC "-//W3C//DTD SVG 1.1//EN" "http://www.w3.org/Graphics/SVG/1.1/DTD/svg11.dtd"><svg width="100%" height="100%" viewBox="0 0 3537 3499" version="1.1" xmlns="http://www.w3.org/2000/svg" xmlns:xlink="http://www.w3.org/1999/xlink" xml:space="preserve" xmlns:serif="http://www.serif.com/" style="fill-rule:evenodd;clip-rule:evenodd;stroke-linejoin:round;stroke-miterlimit:2;"><g id="Mug-Buddies"><path d="M1462.25,785.539c749.46,49.642 1341.84,332.736 1322.04,631.786c-19.809,299.051 -644.357,501.538 -1393.82,451.896c-749.46,-49.643 -1341.84,-332.737 -1322.04,-631.787c19.808,-299.05 644.356,-501.538 1393.82,-451.895Z" style="fill:#ffdab8;"/><path d="M1463.35,768.908c-357.687,-23.692 -687.087,9.814 -936.711,83.563c-143.55,42.411 -260.897,98.24 -342.661,163.954c-80.435,64.647 -126.828,139.165 -132.176,219.907c-5.349,80.743 30.811,160.729 102.017,235.42c72.381,75.925 181.34,146.744 318.042,207.717c237.715,106.03 559.819,182.69 917.505,206.382c357.687,23.692 687.087,-9.814 936.711,-83.563c143.549,-42.411 260.897,-98.239 342.66,-163.954c80.436,-64.647 126.829,-139.165 132.177,-219.907c5.348,-80.743 -30.811,-160.728 -102.017,-235.42c-72.381,-75.924 -181.34,-146.743 -318.042,-207.717c-237.716,-106.029 -559.819,-182.689 -917.505,-206.382Zm-2.203,33.261c353.23,23.397 671.376,98.855 906.13,203.563c132.059,58.903 237.57,126.93 307.494,200.276c63.781,66.904 97.673,137.892 92.883,210.216c-4.791,72.324 -47.75,138.222 -119.799,196.128c-78.986,63.483 -192.548,116.998 -331.223,157.969c-246.514,72.83 -571.833,105.667 -925.063,82.27c-353.23,-23.398 -671.376,-98.856 -906.13,-203.564c-132.059,-58.903 -237.571,-126.929 -307.494,-200.275c-63.781,-66.904 -97.673,-137.892 -92.883,-210.216c4.791,-72.324 47.75,-138.222 119.798,-196.129c78.987,-63.483 192.549,-116.998 331.223,-157.968c246.514,-72.831 571.833,-105.667 925.064,-82.27Z" style="fill:#7e4021;"/><path d="M305.313,3104c378.559,429.632 1723.71,514.522 2082.57,143.998c346.14,-357.384 386.959,-1402.36 396.396,-1830.67c-19.809,299.051 -644.357,501.538 -1393.82,451.896c-749.46,-49.643 -1341.84,-332.737 -1322.04,-631.787c-36.363,610.558 -174.639,1399.52 236.884,1866.56Z" style="fill:#f7bf9a;"/><path d="M51.792,1236.44l0.007,-0.111c0.607,-9.163 8.511,-16.108 17.676,-15.532c9.165,0.577 16.137,8.458 15.591,17.625l-0.011,0.184c-4.766,72.293 29.125,143.259 92.887,210.143c69.923,73.346 175.435,141.372 307.494,200.275c234.754,104.708 552.9,180.166 906.13,203.564c353.23,23.397 678.549,-9.44 925.063,-82.27c138.675,-40.971 252.237,-94.486 331.223,-157.969c72.049,-57.906 115.008,-123.804 119.799,-196.128c0.599,-9.042 8.312,-15.949 17.364,-15.549c9.053,0.399 16.128,7.958 15.928,17.017c-5.591,253.771 -22.223,723.461 -106.475,1139.2c-58.885,290.564 -151.273,554.705 -294.611,702.7c-68.163,70.377 -170.859,125.06 -295.72,164.097c-215.068,67.24 -496.414,88.475 -776.774,67.175c-424.831,-32.275 -846.882,-162.855 -1034.56,-375.847l0,-0c-172.448,-195.714 -250.036,-447.054 -278.633,-718.487c-40.116,-380.761 16.242,-801.177 37.617,-1160.09l0,0Zm24.882,125.572c17.305,37.447 43.255,74.191 77.142,109.737c72.381,75.925 181.34,146.744 318.042,207.717c237.715,106.03 559.819,182.69 917.505,206.382c357.687,23.692 687.087,-9.814 936.711,-83.563c143.549,-42.411 260.897,-98.239 342.66,-163.954c41.192,-33.107 73.456,-68.802 95.852,-106.596c-8.278,264.315 -30.419,661.434 -102.788,1018.53c-57.443,283.451 -146.056,541.759 -285.885,686.13c-64.853,66.96 -162.924,118.331 -281.721,155.472c-211.607,66.159 -488.455,86.711 -764.304,65.754c-415.199,-31.544 -828.651,-156.483 -1012.07,-364.647l-0,-0c-167.921,-190.576 -242.647,-435.636 -270.493,-699.942c-35.403,-336.031 4.924,-703.085 29.349,-1031.02Z" style="fill:#7e4021;"/><path d="M1153.15,2700.17c51.526,49.165 159.647,61.552 226.419,60.285c28.094,-0.534 57.921,-1.575 84.805,-10.606c5.888,-1.977 16.851,-7.952 16.851,-7.952c-0,0 -9.285,31.049 -15.557,45.955c-26.962,64.076 -72.983,140.645 -148.28,151.934c-123.351,18.492 -166.209,-136.8 -164.238,-239.616Z" style="fill:#7e4021;"/><path d="M1175.53,2811.41c-3.524,-11.071 5.275,-50.805 59.177,-44.478c41.472,4.867 74.674,50.071 76.983,50.654c6.971,1.76 96.487,-37.36 104.585,26.576c3.873,30.579 -29.594,55.522 -46.253,66.858c-59.255,40.319 -154.265,26.748 -194.492,-99.61Z" style="fill:#f8bcc4;"/><path d="M1136.95,2727.1c2.479,48.245 13.824,102.743 36.566,146.11c29.241,55.758 76.681,93.503 146.346,83.059c81.037,-12.149 132.154,-92.991 161.171,-161.952c2.013,-4.785 4.329,-11.175 6.568,-17.717c12.45,19.831 28.97,39.892 50.746,57.14c7.211,5.711 17.702,4.494 23.413,-2.717c5.711,-7.211 4.494,-17.702 -2.717,-23.413c-57.441,-45.497 -72.318,-113.767 -73.788,-128.035c0.223,-2.845 -0.287,-5.784 -1.622,-8.535c-4.018,-8.274 -13.998,-11.731 -22.273,-7.713c-1.17,0.568 -10.612,5.887 -9.305,19.277c0.674,6.903 4.105,25.565 13.059,48.869c-2.153,1.035 -4.346,2.008 -6.044,2.578c-25.292,8.496 -53.383,9.239 -79.814,9.741c-38.684,0.734 -91.746,-3.227 -138.748,-16.808c-27.833,-8.042 -53.565,-19.353 -72.207,-35.557c7.031,-9.324 13.796,-19.219 20.47,-29.714c4.936,-7.762 2.642,-18.071 -5.121,-23.007c-7.762,-4.936 -18.071,-2.642 -23.007,5.121c-30.084,47.309 -61.936,81.27 -116.176,104.17c-8.474,3.577 -12.449,13.362 -8.872,21.836c3.578,8.475 13.363,12.45 21.837,8.872c32.355,-13.66 57.751,-30.691 79.518,-51.605Zm54.608,79.707c0.027,-0.57 0.217,-3.883 0.903,-6.049c3.227,-10.193 14.803,-20.263 40.305,-17.27c32.674,3.835 58.762,37.358 65.271,44.179c4.374,4.583 8.352,5.773 9.575,6.082c1.915,0.483 6.185,0.903 12.186,-0.464c8.257,-1.882 26.491,-7.906 44.838,-9.092c10.135,-0.655 20.519,-0.326 27.642,5.62c4.075,3.401 6.496,8.809 7.464,16.446c1.332,10.52 -4.62,19.728 -11.477,27.623c-8.908,10.258 -20.172,18.295 -27.618,23.362c-25.249,17.18 -58.098,23.012 -88.937,10.956c-32.509,-12.71 -62.028,-44.771 -80.152,-101.393Zm237.328,19.066c8.241,-14.847 15.331,-30.006 21.422,-44.484c1.354,-3.217 2.852,-7.215 4.357,-11.483c-24.317,5.749 -50.164,6.746 -74.777,7.213c-27.379,0.52 -61.299,-1.345 -95.733,-6.87c14.585,10.191 26.175,21.866 33.023,29.108c9.683,-2.601 29.237,-7.389 45.308,-8.428c18.99,-1.227 37.806,2.153 51.153,13.295c6.339,5.291 11.694,12.305 15.247,21.649Zm-220.931,-74.932c-13.266,-4.92 -25.822,-10.646 -37.231,-17.272l-0,0c0.799,11.139 2.104,22.572 3.959,34.055c4.149,-4.197 9.253,-7.986 15.478,-11.033c5.083,-2.489 10.976,-4.51 17.794,-5.75Z" style="fill:#7e4021;"/><path d="M1865.13,2829.1c-91.455,-59.985 -183.35,-28.648 -228.35,8.451c-119.572,98.58 96.063,170.825 174.115,165.81c157.638,-10.128 112.456,-136.075 54.235,-174.261Z" style="fill:#f8a5b0;"/><path d="M690.794,2694.85c101.591,-40.515 185.378,8.541 222.064,53.879c97.479,120.47 -128.24,148.201 -203.718,127.702c-152.44,-41.402 -83.019,-155.79 -18.346,-181.581Z" style="fill:#f8a5b0;"/><path d="M1833.79,2164.33c-300.84,-28.65 -427.945,326.034 -284.396,516.874c47.698,63.412 132.85,-6.687 243.869,0.47c101.49,6.543 175.637,99.593 237.002,59.793c229.598,-148.917 174.262,-541.831 -196.475,-577.137Z" style="fill:#fff;"/><path d="M850.94,2065.21c-300.84,-28.65 -427.944,326.034 -284.396,516.873c47.699,63.413 132.85,-6.687 243.87,0.471c101.489,6.543 175.637,99.593 237.001,59.792c229.598,-148.917 174.263,-541.83 -196.475,-577.136Z" style="fill:#fff;"/><path d="M1835.37,2147.74c-316.391,-30.13 -450.263,342.78 -299.294,543.485c23.13,30.75 53.142,36.703 89.903,32.012c44.644,-5.698 100.832,-29.144 166.213,-24.929c58.866,3.796 107.98,38.331 150.856,56.533c35.267,14.973 67.01,19.599 96.287,0.611c145.312,-94.249 182.546,-281.122 104.516,-423.609c-51.554,-94.141 -153.455,-169.339 -308.48,-184.103l-0.001,0Zm251.493,158.438c-52.241,-65.476 -136.912,-114.042 -254.652,-125.254l-0.001,-0c-285.288,-27.169 -405.624,309.289 -269.496,490.263c19.653,26.127 47.53,22.216 81.42,15.044c42.095,-8.909 92.279,-24.653 149.003,-21.261c-20.665,-17.502 -36.656,-37.549 -48.046,-60.903c-18.483,-37.896 -24.876,-84.829 -18.065,-144.765c0.774,-6.818 4.62,-13.378 13.459,-17.5c6.736,-3.14 19.582,-4.853 34.229,-5.293c7.612,-0.228 17.431,-0.682 26.309,-1.138c-7.216,-5.705 -15.323,-12.006 -21.677,-16.67c-14.177,-10.406 -25.159,-20.974 -27.946,-27.456c-2.763,-6.425 -2.226,-12.118 -0.034,-16.872c45.827,-99.35 136.805,-134.42 202.794,-128.343l0.001,0c51.349,4.729 96.664,28.155 132.702,60.148Z" style="fill:#7e4021;"/><path d="M852.52,2048.61c-316.392,-30.131 -450.264,342.78 -299.295,543.484c23.131,30.751 53.142,36.704 89.903,32.012c44.645,-5.697 100.832,-29.143 166.213,-24.928c58.866,3.795 107.981,38.331 150.856,56.533c35.267,14.973 67.01,19.599 96.287,0.61c145.312,-94.248 182.546,-281.121 104.516,-423.608c-51.554,-94.141 -153.455,-169.339 -308.48,-184.103l-0,0Zm251.493,158.437c-52.241,-65.476 -136.913,-114.041 -254.653,-125.254l-0,0c-285.289,-27.168 -405.624,309.29 -269.496,490.264c19.652,26.126 47.529,22.216 81.419,15.044c42.095,-8.909 92.279,-24.654 149.003,-21.262c-20.665,-17.501 -36.656,-37.549 -48.046,-60.902c-18.483,-37.897 -24.876,-84.83 -18.065,-144.765c0.775,-6.818 4.62,-13.379 13.46,-17.5c6.735,-3.14 19.581,-4.853 34.229,-5.293c7.611,-0.229 17.43,-0.683 26.308,-1.138c-7.216,-5.705 -15.323,-12.006 -21.677,-16.67c-14.176,-10.406 -25.158,-20.974 -27.946,-27.456c-2.763,-6.425 -2.226,-12.119 -0.033,-16.873c45.826,-99.349 136.805,-134.419 202.794,-128.342l-0,-0c51.349,4.729 96.664,28.155 132.703,60.147Z" style="fill:#7e4021;"/><path d="M2464.51,2907.09c-16.547,68.247 -63.544,163.151 -110.111,202.163c-7.052,5.907 -7.98,16.428 -2.073,23.479c5.907,7.051 16.428,7.98 23.479,2.073c50.775,-42.538 103.057,-145.447 121.1,-219.861c2.167,-8.939 -3.331,-17.957 -12.27,-20.124c-8.94,-2.168 -17.957,3.33 -20.125,12.27Z" style="fill:#7e4021;"/><path d="M2302.16,3171.03c-28.814,28.449 -67.318,54.207 -99.425,68.673c-8.387,3.778 -12.128,13.655 -8.349,22.042c3.778,8.386 13.655,12.128 22.042,8.349c35.241,-15.878 77.525,-44.118 109.151,-75.344c6.546,-6.463 6.613,-17.024 0.15,-23.57c-6.462,-6.546 -17.024,-6.613 -23.569,-0.15Z" style="fill:#7e4021;"/><path d="M2780.67,1632.56c-5.961,-6.548 154.313,23.542 238.14,36.085c165.059,24.698 303.104,130.932 397.703,271.463c202.242,300.441 97.907,727.384 -237.275,890.404c-157.062,76.39 -557.226,60.269 -556.14,-24.457c0.435,-33.953 56.841,-320.005 74.582,-319.165c103.852,4.92 312.899,100.044 486.849,-91.812c39.037,-43.056 70.277,-140.582 54.778,-197.376c-75.143,-275.354 -495.65,-166.702 -484.808,-220.815c13.508,-67.422 21.758,-293.575 26.171,-344.327Z" style="fill:#f7bf9a;"/><path d="M2763.88,1633.38c-4.431,54.599 -8.222,271.175 -21.466,337.281c-2.328,11.62 -2.559,23.921 8.866,30.7c7.762,4.606 21.825,7.857 40.883,9.444c51.685,4.304 147.068,-0.023 236.947,21.989c85.273,20.884 165.914,65.93 194.122,169.295c5.605,20.539 4.092,46.964 -1.572,73.779c-8.756,41.454 -27.65,83.942 -49.474,108.014c-99.777,110.048 -211.723,121.085 -306.689,111.487c-66.574,-6.729 -125.264,-23.15 -167.025,-25.128c-4.41,-0.209 -9.897,0.982 -15.04,6.265c-4.123,4.237 -10.29,16.522 -16.156,34.935c-23.927,75.111 -60.485,266.787 -60.839,294.4c-0.191,14.874 7.073,28.862 22.16,40.786c16.89,13.348 45.057,24.622 80.763,32.762c130.179,29.673 364.627,20.848 477.172,-33.89c344.333,-167.471 451.575,-606.055 243.811,-914.699c-97.237,-144.45 -239.4,-253.252 -409.063,-278.639c-76.175,-11.398 -214.9,-36.971 -237.49,-37.187c-9.606,-0.092 -14.363,4.506 -15.829,6.206c-2.926,3.391 -4.157,7.19 -4.114,11.235c0.003,0.316 0.013,0.639 0.033,0.97l-0,-0.005Zm32.202,16.963c38.925,6.291 158.298,25.512 220.265,34.784c160.457,24.01 294.383,127.675 386.344,264.287c196.72,292.238 95.292,707.54 -230.738,866.109c-107.343,52.208 -331.022,59.668 -455.185,31.366c-25.166,-5.737 -46.081,-12.856 -60.597,-21.667c-9.52,-5.779 -16.502,-11.257 -16.404,-18.954c0.343,-26.712 36.123,-212.048 59.27,-284.709c2.028,-6.365 4.73,-13.046 6.592,-17.418c40.59,3.555 95.161,18.191 156.516,24.392c103.708,10.482 225.773,-2.082 334.735,-122.262c25.02,-27.595 47.356,-75.992 57.394,-123.514c6.865,-32.504 7.91,-64.547 1.116,-89.444c-28.003,-102.612 -100.717,-155.473 -183.353,-182.874c-79.238,-26.274 -167.642,-28.67 -231.269,-30.693c-24.782,-0.789 -45.593,-1.488 -60.184,-3.803c-3.241,-0.515 -6.119,-1.101 -8.588,-1.825l-0.028,-0.009c11.81,-67.894 19.569,-254.286 24.114,-323.766Zm0.121,-23.83c-0.733,-1.888 -1.812,-3.644 -3.204,-5.173c1.581,1.736 2.583,3.489 3.204,5.173Z" style="fill:#7e4021;"/><path d="M1430.42,1240.89c682.265,45.192 1174.18,266.613 1090.55,326.428c-211.401,151.212 -641.894,236.678 -1130.77,204.296c-490.19,-32.469 -906.567,-174.642 -1095.47,-353.088c-74.019,-69.922 453.426,-222.827 1135.69,-177.636Z" style="fill:#c48464;"/><path d="M1431.52,1224.26c-332.666,-22.035 -628.708,2.833 -836.872,42.261c-111.273,21.076 -197.658,46.407 -251.556,70.916c-28.786,13.09 -48.811,26.391 -59.599,38.498c-9.917,11.13 -13.321,22.26 -12.151,32.268c0.911,7.8 4.558,15.465 11.94,22.439c91.308,86.254 234.819,164.438 413.996,225.949c195.406,67.082 433.415,114.538 691.817,131.654c257.875,17.081 499.604,1.531 701.898,-39.007c185.229,-37.118 337.57,-95.332 439.673,-168.365c7.984,-5.711 12.661,-12.519 14.835,-19.798c2.942,-9.851 1.465,-21.375 -6.411,-33.837c-8.622,-13.644 -26.339,-29.784 -52.953,-46.871c-49.279,-31.637 -130.641,-68.419 -237.496,-104.209c-198.371,-66.443 -485.352,-129.922 -817.121,-151.898l-0,0Zm-2.203,33.261c270.14,17.893 510.294,63.532 696.312,115.775c202.026,56.739 339.633,120.171 379.77,164.649c2.651,2.938 4.785,5.73 6.304,8.422c1.135,2.009 2.436,3.573 1.859,5.166c-0.331,0.916 -1.269,1.499 -2.289,2.229c-99.07,70.863 -247.103,126.777 -426.829,162.792c-199.771,40.032 -438.489,55.298 -693.146,38.43c-255.176,-16.902 -490.231,-63.676 -683.197,-129.92c-173.825,-59.674 -313.348,-134.976 -401.929,-218.654c-0.779,-0.735 -1.495,-1.356 -1.738,-2.161c-0.277,-0.915 0.639,-1.649 1.276,-2.663c2.013,-3.201 5.244,-6.397 9.416,-9.777c47.327,-38.346 193.997,-82.471 402.757,-111.682c193.703,-27.104 440.283,-40.567 711.434,-22.607l-0,0.001Z" style="fill:#7e4021;"/><path d="M543.65,1564.83c-126.129,-65.301 -165.854,-260.251 -87.863,-413.519c93.223,-183.202 351.348,-210.722 359.257,-247.103c15.023,-69.104 -22.228,-137.974 62.067,-261.289c105.53,-154.381 239.415,-153.773 447.965,-285.848c224.653,-142.273 95.531,-364.66 210.336,-337.725c111.512,26.162 300.435,83.474 414.929,204.692c158.773,168.097 110.217,268.986 144.712,333.524c13.456,25.176 115.635,57.808 258.749,215.471c125.231,137.963 171.12,324.484 141.513,496.49c-36.758,213.55 -182.584,419.815 -311.491,445.836c-509.902,102.928 -1256.17,48.284 -1640.17,-150.529Z" style="fill:#fff;"/><path d="M799.136,898.85c-1.543,1.141 -6.443,4.672 -10.691,6.831c-10.636,5.406 -25.36,11.117 -42.791,17.743c-87.244,33.164 -237.326,87.885 -304.721,220.33c-82.303,161.742 -38.048,366.967 95.054,435.879l0.001,0c386.581,200.147 1137.81,255.684 1651.13,152.065c54.53,-11.007 112.37,-51.86 164.098,-112.158c75.112,-87.556 137.942,-216.017 160.52,-347.188c30.445,-176.873 -16.821,-368.652 -145.597,-510.519c-101.667,-112.003 -182.962,-161.85 -227.282,-190.43c-8.887,-5.73 -16.196,-10.529 -21.751,-14.81c-3.457,-2.665 -6.166,-4.654 -7.359,-6.886c-9.452,-17.685 -11.655,-38.457 -14.614,-62.88c-7.827,-64.599 -17.6,-152.393 -132.68,-274.232c-116.862,-123.724 -309.42,-182.77 -423.239,-209.473c-23.622,-5.542 -39.554,-1.933 -50.886,6.39c-10.984,8.066 -18.296,21.592 -22.732,40.14c-4.757,19.892 -6.678,46.533 -11.268,76.835c-9.979,65.879 -33.719,150.354 -138.173,216.505c-103.636,65.632 -188.749,98.239 -261.035,133.675c-75.312,36.92 -137.135,76.918 -191.773,156.848c-53.22,77.857 -60.271,135.13 -60.912,184.165c-0.381,29.186 1.984,55.203 -3.303,81.17Zm-247.823,651.182c-46.842,-24.252 -80.584,-67.982 -99.895,-120.572c-29.736,-80.986 -25.38,-182.934 19.223,-270.589c63.118,-124.039 205.151,-173.23 286.857,-204.289c27.178,-10.331 48.279,-19.039 59.446,-27.173c8.67,-6.315 13.004,-13.298 14.387,-19.659c6.241,-28.709 4.017,-57.368 4.439,-89.634c0.577,-44.164 7.167,-95.668 55.1,-165.79c50.892,-74.451 108.777,-111.339 178.927,-145.729c73.178,-35.874 159.281,-69.001 264.196,-135.444c140.935,-89.254 149.422,-208.262 159.018,-283.426c1.967,-15.409 3.886,-28.728 7.534,-39.073c2.209,-6.265 4.627,-11.32 9.678,-13.513c5.231,-2.27 12.125,-1.739 21.382,0.433c109.207,25.621 294.493,81.198 406.62,199.91c107.202,113.498 116.529,195.175 123.82,255.352c3.52,29.054 7.064,53.545 18.309,74.584c4.787,8.957 18.245,19.684 40.442,33.997c43.024,27.744 121.973,76.094 220.666,184.82c121.686,134.058 166.197,315.323 137.428,482.461c-21.531,125.089 -81.34,247.642 -152.969,331.138c-46.1,53.738 -96.798,91.378 -145.394,101.188c-506.481,102.237 -1247.79,48.486 -1629.21,-148.992l-0,-0Z" style="fill:#7e4021;"/><path d="M2053.57,1007.6c-44.222,43.871 -92.286,74.979 -119.478,81.562c-66.422,16.08 -171.904,-4.305 -192.39,84.111c-6.164,26.601 2.727,51.906 20.088,72.302c110.376,129.672 430.276,-8.469 453.402,-157.504c16.362,-105.44 -93.805,-147.75 -161.622,-80.471Z" style="fill:#e3b198;"/><path d="M2041.83,995.768c-41.497,41.168 -86.145,71.018 -111.661,77.195c-33.082,8.009 -75.897,6.896 -112.987,14.83c-43.566,9.321 -79.734,29.991 -91.719,81.718c-7.394,31.912 2.806,62.399 23.633,86.867c59.218,69.571 174.342,70.182 278.064,30.528c60.534,-23.143 116.881,-59.512 154.952,-101.596c26.702,-29.517 44.469,-61.952 49.548,-94.683c7.646,-49.275 -9.153,-86.489 -36.183,-108.688c-40.574,-33.322 -106.075,-33.366 -153.647,13.829l0,-0Zm23.476,23.664c33.812,-33.543 80.178,-35.417 109.015,-11.733c19.244,15.804 29.843,42.736 24.4,77.816c-4.172,26.884 -19.397,53.19 -41.329,77.433c-34.879,38.557 -86.675,71.619 -142.136,92.822c-46.004,17.588 -94.576,27.04 -138.24,24.226c-41.11,-2.649 -77.808,-16.172 -102.537,-45.224c-13.895,-16.324 -21.476,-36.446 -16.543,-57.737c8.502,-36.694 35.314,-50.034 66.22,-56.646c37.378,-7.996 80.516,-6.957 113.856,-15.028c28.868,-6.989 80.345,-39.353 127.294,-85.929l0,-0Z" style="fill:#7e4021;"/><path d="M1833.03,1212.23c26.832,-3.556 56.256,4.373 84.342,-0.3c80.416,-13.382 153.184,-61.704 209.817,-118.517c6.495,-6.515 6.478,-17.076 -0.037,-23.57c-6.514,-6.494 -17.076,-6.477 -23.57,0.037c-51.842,52.006 -118.069,96.919 -191.682,109.168c-27.721,4.613 -56.765,-3.372 -83.248,0.137c-9.119,1.208 -15.541,9.593 -14.333,18.711c1.208,9.119 9.592,15.542 18.711,14.334Z" style="fill:#7e4021;"/><path d="M1552.56,1088.21c1.361,15.381 5.747,31.123 10.268,45.82c2.708,8.803 5.582,17.559 9.033,26.102c3.923,9.711 18.572,29.078 31.828,34.944c8.395,3.715 16.585,3.556 23.754,-0.252c5.64,-2.996 11.583,-8.847 15.002,-20.402c1.998,-6.748 0.775,-19.796 -4.731,-35.039c-9.999,-27.685 -32.181,-65.415 -46.139,-77.875c-8.675,-7.743 -17.279,-8.79 -22.864,-7.422c-4.906,1.201 -9.404,4.027 -12.673,9.596c-2.364,4.029 -4.604,11.789 -3.478,24.528Zm607.581,-271.187c1.36,15.382 5.747,31.123 10.268,45.82c2.708,8.803 5.582,17.559 9.033,26.102c3.923,9.711 18.572,29.078 31.828,34.944c8.394,3.715 16.584,3.557 23.754,-0.252c5.64,-2.996 11.583,-8.847 15.002,-20.402c1.997,-6.748 0.775,-19.795 -4.731,-35.038c-9.999,-27.685 -32.181,-65.416 -46.139,-77.875c-8.675,-7.744 -17.279,-8.791 -22.864,-7.423c-4.906,1.202 -9.404,4.027 -12.673,9.596c-2.364,4.029 -4.605,11.789 -3.478,24.528Z" style="fill:#7e4021;"/><path d="M790.821,945.127c27.732,-16.18 65.453,-20.894 105.373,-21.254c64.434,-0.581 134.456,10.718 182.575,11.921c116.172,2.905 239.545,-18.101 341.156,-81.722c7.796,-4.881 10.163,-15.174 5.281,-22.971c-4.881,-7.796 -15.174,-10.163 -22.971,-5.281c-96.051,60.14 -212.817,79.397 -322.633,76.652c-48.417,-1.211 -118.876,-12.515 -183.709,-11.931c-46.26,0.417 -89.732,7.044 -121.87,25.795c-7.945,4.635 -10.632,14.849 -5.996,22.794c4.635,7.945 14.849,10.632 22.794,5.997Z" style="fill:#7e4021;"/><path d="M2055.46,436.486c-0.225,4.629 -1.931,39.34 -2.261,41.24c-16.952,97.505 -67.128,161.597 -152.284,197.143c-8.489,3.543 -12.504,13.312 -8.96,21.8c3.543,8.489 13.311,12.504 21.8,8.961c96.113,-40.119 153.151,-112.144 172.284,-222.195c0.41,-2.356 2.962,-40.78 2.769,-48.31c-0.219,-8.58 -4.928,-12.516 -5.814,-13.292c-4.448,-3.895 -9.284,-4.768 -14.138,-3.839c-8.697,1.664 -14.519,9.825 -13.396,18.492Zm6.589,11.25c4.145,3.176 8.601,3.853 13.072,2.997c-4.77,0.913 -9.457,-0.309 -13.072,-2.997Zm-0.18,-0.133l0.075,0.055l-0.167,-0.131l0.092,0.076Z" style="fill:#7e4021;"/><path d="M2531.06,1580.96c0.011,-0.006 55.562,-31.441 97.215,-76.733c30.091,-32.719 52.184,-72.662 46.573,-113.105c-1.264,-9.111 -9.688,-15.482 -18.799,-14.218c-9.111,1.264 -15.482,9.687 -14.218,18.799c4.313,31.087 -14.961,60.81 -38.091,85.96c-38.167,41.501 -89.089,70.282 -89.089,70.282c-8.007,4.528 -10.831,14.705 -6.303,22.712c4.528,8.007 14.705,10.831 22.712,6.303Zm0,-0c0,-0 0,-0 0,-0Z" style="fill:#7e4021;"/><path d="M312.357,1412.29c-44.111,-36.154 -75.444,-72.749 -93.043,-107.236c-15.95,-31.259 -20.479,-60.355 -11.318,-84.918c3.215,-8.619 -1.172,-18.226 -9.791,-21.44c-8.619,-3.215 -18.226,1.172 -21.44,9.791c-9.742,26.117 -9.03,56.2 2.681,88.453c16.071,44.256 53.45,93.322 111.781,141.131c7.114,5.831 17.624,4.789 23.455,-2.326c5.831,-7.114 4.789,-17.624 -2.325,-23.455Z" style="fill:#7e4021;"/></g></svg>