<?xml version="1.0" encoding="UTF-8" standalone="no"?><!DOCTYPE svg PUBLIC "-//W3C//DTD SVG 1.1//EN" "http://www.w3.org/Graphics/SVG/1.1/DTD/svg11.dtd"><svg width="100%" height="100%" viewBox="0 0 3573 2705" version="1.1" xmlns="http://www.w3.org/2000/svg" xmlns:xlink="http://www.w3.org/1999/xlink" xml:space="preserve" xmlns:serif="http://www.serif.com/" style="fill-rule:evenodd;clip-rule:evenodd;stroke-linejoin:round;stroke-miterlimit:2;"><g id="Bagel"><path d="M1241.3,66.011c-419.971,71.622 -811.306,388.125 -919.28,507.925c-343.933,381.602 -411.055,993.458 -130.915,1429.23c577.837,898.858 2325.12,861.747 3064.16,188.57c201.157,-183.232 310.834,-473.47 300.195,-742.576c-34.08,-862.016 -701.033,-1265.77 -1452.71,-1403.58c-272.615,-49.979 -585.609,-26.615 -861.45,20.428Zm228.397,1329c-26.655,-72.53 167.092,-115.18 246.145,-117.744c155.51,-5.045 390.598,51.414 340.153,124.157c-53.951,77.798 -561.943,59.858 -586.298,-6.413Z" style="fill:#e4a57c;"/><path d="M1238.5,49.581c-424.343,72.369 -819.76,392.15 -928.858,513.197c-348.783,386.982 -416.645,1007.49 -132.555,1449.4c233.541,363.287 655.756,575.925 1126.59,655.977c704.07,119.706 1516.16,-57.249 1962.81,-464.098c204.69,-186.451 316.451,-481.722 305.625,-755.556c-34.43,-870.87 -706.959,-1280.09 -1466.36,-1419.31c-274.451,-50.317 -589.558,-26.968 -867.257,20.391l-0,0Zm5.604,32.859c273.982,-46.726 584.864,-70.106 855.642,-20.464c743.954,136.392 1405.33,534.683 1439.06,1387.84c10.452,264.38 -97.141,549.583 -294.765,729.597c-440.189,400.964 -1240.88,573.853 -1934.77,455.878c-461.134,-78.402 -875.413,-285.34 -1104.14,-641.14c-276.19,-429.629 -209.807,-1032.84 129.276,-1409.06c106.85,-118.552 494.103,-431.777 909.701,-502.654l0.001,0Zm209.951,1318.32c3.241,8.819 11.431,17.923 25.247,25.533c22.951,12.643 64.335,23.234 115.215,30.53c114.449,16.414 278.2,17.476 379.298,-2.255c27.382,-5.345 50.358,-12.285 67.008,-20.642c13.36,-6.707 23.038,-14.596 28.869,-23.005c9.023,-13.01 11.434,-25.79 9.14,-37.984c-2.974,-15.812 -14.991,-31.556 -35.401,-45.215c-63.54,-42.524 -215.861,-70.755 -328.127,-67.113c-57.672,1.871 -173.771,24.726 -228.798,63.889c-29.869,21.259 -43.006,47.54 -32.451,76.262Zm31.288,-11.499c-3.184,-8.663 -0.597,-16.507 5.148,-23.694c8.346,-10.439 22.228,-19.472 38.893,-27.626c55.608,-27.205 141.234,-42.532 187,-44.016c105.448,-3.421 248.827,21.558 308.508,61.499c16.761,11.217 27.015,22.649 17.409,36.502c-3.234,4.663 -9.023,8.49 -16.432,12.209c-14.501,7.279 -34.591,13.062 -58.44,17.717c-98.133,19.153 -257.086,17.908 -368.18,1.976c-39.673,-5.69 -73.106,-13.16 -94.986,-22.466c-6.131,-2.608 -11.231,-5.291 -15.048,-8.204c-1.763,-1.345 -3.329,-2.418 -3.872,-3.897l-0,0Z" style="fill:#7e4021;"/><path d="M3439.4,1539.79c-5.845,87.03 -31.954,171.506 -58.637,234.211c-3.601,8.464 0.346,18.26 8.81,21.862c8.464,3.601 18.26,-0.346 21.862,-8.81c27.912,-65.594 55.11,-153.99 61.223,-245.029c0.617,-9.178 -6.334,-17.13 -15.512,-17.746c-9.178,-0.617 -17.13,6.334 -17.746,15.512Z" style="fill:#7e4021;"/><path d="M864.014,1752.47c-378.175,-172.675 -793.042,-592.561 -420.203,-1017.66c6.065,-6.916 5.375,-17.455 -1.54,-23.52c-6.916,-6.065 -17.455,-5.375 -23.52,1.54c-390.673,445.436 35.154,889.031 431.418,1069.96c8.367,3.821 18.263,0.129 22.083,-8.238c3.821,-8.368 0.129,-18.263 -8.238,-22.084Z" style="fill:#7e4021;"/><path d="M2035.04,1871.58c261.317,-9.672 420.876,-89.429 484.549,-120.264c69.14,-33.482 160.917,-96.452 221.89,-143.354c7.291,-5.609 8.657,-16.082 3.049,-23.373c-5.609,-7.291 -16.082,-8.657 -23.373,-3.048c-59.4,45.693 -148.737,107.156 -216.095,139.775c-61.925,29.988 -217.107,107.547 -471.253,116.953c-9.192,0.34 -16.379,8.08 -16.038,17.272c0.34,9.192 8.079,16.379 17.271,16.039Z" style="fill:#7e4021;"/><path d="M2809.12,1551.99c31.412,-30.195 58.841,-63.727 84.245,-99.11c5.364,-7.472 3.653,-17.894 -3.819,-23.259c-7.472,-5.365 -17.894,-3.654 -23.259,3.819c-24.217,33.731 -50.322,65.734 -80.267,94.519c-6.631,6.375 -6.84,16.934 -0.465,23.566c6.374,6.631 16.934,6.84 23.565,0.465Z" style="fill:#7e4021;"/><path d="M513.25,657.697c7.171,-7.479 59.59,-62.178 61.757,-65.155c5.415,-7.436 3.773,-17.869 -3.664,-23.283c-7.436,-5.415 -17.869,-3.773 -23.283,3.663c-2.379,3.267 -55.635,55.02 -63.72,67.69c-7.658,12.001 -1.147,21.052 1.854,23.829c6.751,6.248 17.304,5.839 23.552,-0.912c1.609,-1.738 2.776,-3.727 3.504,-5.832Zm-3.635,-16.944c1.228,1.294 2.21,2.741 2.941,4.283c-0.75,-1.63 -1.753,-3.048 -2.941,-4.283Z" style="fill:#7e4021;"/><path d="M3364.24,1838.95c-13.463,33.172 -31.287,81.229 -47.955,103.898c-5.449,7.411 -3.857,17.851 3.554,23.3c7.411,5.45 17.852,3.857 23.301,-3.554c17.868,-24.301 37.554,-75.548 51.986,-111.108c3.459,-8.524 -0.652,-18.252 -9.176,-21.711c-8.523,-3.459 -18.251,0.652 -21.71,9.175Z" style="fill:#7e4021;"/><path d="M2007.27,1447.13c62.403,-18.1 140.478,-49.729 200.675,-89.545c42.242,-27.94 75.635,-60.198 90.642,-94.231c3.711,-8.417 -0.109,-18.263 -8.526,-21.974c-8.416,-3.712 -18.263,0.108 -21.974,8.525c-12.857,29.157 -42.341,55.941 -78.531,79.878c-57.45,37.999 -132.017,68.059 -191.571,85.333c-8.835,2.563 -13.927,11.816 -11.365,20.65c2.563,8.834 11.816,13.927 20.65,11.364Z" style="fill:#7e4021;"/><path d="M1541.78,1415.12c-59.554,-17.274 -134.121,-47.334 -191.571,-85.333c-36.19,-23.937 -65.674,-50.721 -78.531,-79.878c-3.712,-8.417 -13.558,-12.237 -21.975,-8.525c-8.416,3.711 -12.236,13.557 -8.525,21.974c15.007,34.033 48.399,66.291 90.642,94.231c60.197,39.816 138.272,71.445 200.674,89.545c8.835,2.563 18.088,-2.53 20.65,-11.364c2.563,-8.834 -2.529,-18.087 -11.364,-20.65Z" style="fill:#7e4021;"/></g></svg>