<?xml version="1.0" encoding="UTF-8" standalone="no"?><!DOCTYPE svg PUBLIC "-//W3C//DTD SVG 1.1//EN" "http://www.w3.org/Graphics/SVG/1.1/DTD/svg11.dtd"><svg width="100%" height="100%" viewBox="0 0 3052 4473" version="1.1" xmlns="http://www.w3.org/2000/svg" xmlns:xlink="http://www.w3.org/1999/xlink" xml:space="preserve" xmlns:serif="http://www.serif.com/" style="fill-rule:evenodd;clip-rule:evenodd;stroke-linejoin:round;stroke-miterlimit:2;"><g id="Baguettes-in-basket" serif:id="Baguettes in basket"><path d="M268.622,2372.47c10.538,-219.723 851.78,-248.521 1117.1,-258.278c666.865,-24.522 1259.48,109.043 1303.1,299.213c-245.373,199.814 -748.917,220.652 -1251.83,221.246c-403.461,0.476 -982.498,-139.038 -1168.37,-262.181Z" style="fill:#ffdab8;"/><path d="M251.974,2371.67c-0.281,5.867 2.546,11.449 7.443,14.693c187.367,124.131 770.899,265.434 1177.6,264.954c302.904,-0.358 606.028,-8.136 853.271,-57.542c167.233,-33.418 309.104,-86.046 409.065,-167.447c4.922,-4.008 7.14,-10.464 5.721,-16.65c-13.916,-60.664 -78.774,-117.713 -184.136,-164.629c-232.731,-103.631 -665.937,-164.792 -1135.83,-147.513c-186.618,6.862 -656.766,23.344 -925.709,108.197c-71.664,22.61 -129.336,50.325 -164.881,83.382c-26.319,24.476 -41.085,52.064 -42.547,82.555Zm34.357,-7.623c4.49,-24.421 21.962,-45.566 48.177,-64.679c33.018,-24.075 79.575,-44.384 134.924,-61.847c266.368,-84.04 732.072,-99.878 916.904,-106.675c463.722,-17.052 891.363,42.382 1121.04,144.654c47.809,21.289 86.855,44.36 115.463,69.098c23.094,19.97 39.242,40.8 46.898,62.699c-95.817,74.543 -229.533,122.527 -385.983,153.791c-245.359,49.029 -546.185,56.541 -846.78,56.895c-394.257,0.466 -957.672,-133.178 -1150.64,-253.935l0,-0.001Z" style="fill:#7e4021;"/><path d="M406.852,2432.72c-9.144,8.23 -128.272,-29.473 -140.318,-63.729c-23.463,-143.566 -182.236,-826.869 129.889,-821.204c61.06,1.108 120.284,17.773 176.241,145.394c28.452,64.892 106.636,391.983 106.201,471.605c-48.059,13.756 -98.571,23.365 -118.634,22.474c-36.275,-92.994 -58.402,-338.78 -136.477,-373.559c-16.703,-7.44 -36.309,-2.43 -47.946,11.47c-68.23,81.496 48.453,591.881 31.044,607.549Z" style="fill:#ffe6d8;"/><path d="M418.001,2445.11c2.494,-2.244 5.806,-6.671 6.836,-14.374c1.239,-9.261 -0.515,-31.166 -4.557,-61.587c-13.079,-98.431 -48.188,-293.602 -49.388,-424.108c-0.296,-32.185 1.438,-60.277 6.34,-81.627c2.716,-11.828 6.16,-21.337 11.355,-27.542c6.898,-8.24 18.485,-11.355 28.385,-6.945c9.972,4.443 18.464,13.551 26.379,25.427c14.125,21.198 25.637,50.826 35.788,83.965c26.846,87.639 43.697,198.94 65.565,255c2.398,6.147 8.197,10.301 14.788,10.594c20.952,0.929 73.772,-8.736 123.959,-23.102c7.119,-2.038 12.04,-8.528 12.08,-15.932c0.441,-80.763 -78.743,-412.567 -107.603,-478.388c-29.702,-67.741 -60.776,-105.671 -92.022,-127.177c-32.455,-22.337 -65.517,-27.578 -99.181,-28.189c-133.872,-2.43 -190.317,110.74 -204.214,260.393c-19.581,210.877 43.394,493.395 57.574,580.163c0.158,0.967 0.401,1.917 0.726,2.841c3.403,9.677 12.448,20.192 25.851,29.663c24.661,17.425 64.918,33.238 93.815,40.975c16.278,4.358 29.494,5.924 35.806,5.076c5.591,-0.75 9.347,-2.992 11.718,-5.126Zm-26.268,-29.05c-17.923,-3.305 -48.188,-13.489 -73.263,-25.958c-9.901,-4.923 -18.985,-10.217 -26.054,-15.717c-4.384,-3.412 -8.095,-6.516 -9.734,-9.902c-14.547,-87.582 -76.143,-363.515 -56.98,-569.883c12.026,-129.508 54.567,-232.25 170.418,-230.147c27.396,0.497 54.476,4.142 80.888,22.32c27.62,19.01 54.136,53.222 80.392,113.103c26.743,60.993 98.168,356.97 104.369,452.366c-34.808,9.397 -69.297,16.39 -89.978,18.047c-23.429,-68.833 -41.781,-198.943 -75.482,-284.259c-17.209,-43.566 -39.332,-75.773 -65.773,-87.552c-23.505,-10.47 -51.131,-3.565 -67.507,15.996c-15.869,18.954 -24.281,58.504 -25.359,109.88c-2.287,109.029 23.829,274.887 40.775,388.098c6.41,42.818 11.489,77.955 13.063,99.257c0.106,1.442 0.18,2.918 0.225,4.351Z" style="fill:#7e4021;"/><path d="M2548.06,2468.99c9.144,8.23 128.272,-29.472 140.318,-63.729c23.462,-143.565 182.236,-826.868 -129.889,-821.204c-61.06,1.108 -120.284,17.774 -176.241,145.395c-28.453,64.891 -106.636,372.508 -106.201,452.13c41.535,6.041 112.619,35.015 118.634,22.475c36.275,-92.995 58.402,-319.307 136.477,-354.086c16.702,-7.44 36.308,-2.43 47.946,11.47c68.229,81.497 -48.453,591.881 -31.044,607.549Z" style="fill:#ffe6d8;"/><path d="M2536.91,2481.37c2.371,2.134 6.127,4.375 11.717,5.126c6.313,0.848 19.529,-0.718 35.807,-5.077c28.897,-7.736 69.154,-23.55 93.815,-40.975c13.403,-9.47 22.448,-19.986 25.851,-29.662c0.325,-0.924 0.568,-1.875 0.726,-2.841c14.18,-86.768 77.155,-369.286 57.573,-580.164c-13.896,-149.652 -70.341,-262.822 -204.213,-260.393c-33.665,0.611 -66.726,5.853 -99.181,28.19c-31.246,21.505 -62.32,59.435 -92.022,127.176c-28.877,65.859 -108.045,378.105 -107.603,458.914c0.045,8.244 6.11,15.216 14.267,16.402c33.683,4.899 86.581,24.477 109.496,25.683c14.96,0.788 23.38,-5.855 26.564,-12.494c0.181,-0.377 0.348,-0.761 0.5,-1.15c21.845,-56.003 38.651,-160.158 65.468,-242.077c10.107,-30.871 21.567,-58.464 35.63,-78.379c7.969,-11.285 16.593,-19.99 26.634,-24.462c9.9,-4.41 21.486,-1.295 28.385,6.944c5.195,6.206 8.639,15.715 11.355,27.543c4.902,21.349 6.636,49.442 6.34,81.626c-1.2,130.507 -36.309,325.678 -49.388,424.108c-4.042,30.421 -5.796,52.326 -4.557,61.588c1.03,7.702 4.342,12.129 6.836,14.374Zm26.268,-29.051c0.045,-1.433 0.119,-2.908 0.225,-4.35c1.574,-21.303 6.653,-56.439 13.062,-99.258c16.947,-113.211 43.063,-279.069 40.776,-388.097c-1.078,-51.376 -9.49,-90.927 -25.359,-109.881c-16.377,-19.561 -44.002,-26.465 -67.507,-15.995c-14.945,6.657 -28.438,18.886 -40.299,35.684c-15.681,22.206 -28.811,52.812 -40.08,87.235c-25.374,77.511 -41.589,175.111 -61.833,232.226c-4.249,-0.546 -10.564,-1.487 -15.969,-2.791c-21.436,-5.172 -49.558,-14.146 -72.961,-19.258c6.776,-94.986 77.675,-371.026 104.278,-431.699c26.256,-59.881 52.772,-94.093 80.392,-113.103c26.412,-18.178 53.491,-21.823 80.888,-22.32c115.851,-2.102 158.392,100.64 170.418,230.147c19.163,206.368 -42.433,482.301 -56.98,569.881c-1.639,3.388 -5.35,6.493 -9.734,9.904c-7.069,5.501 -16.154,10.795 -26.054,15.718c-25.076,12.468 -55.34,22.653 -73.263,25.957Z" style="fill:#7e4021;"/><path d="M375.482,1878.97c5.195,-35.201 10.226,-91.748 27.111,-137.576c9.87,-26.789 23.428,-50.074 45.424,-60.226c8.352,-3.855 12.003,-13.765 8.148,-22.117c-3.854,-8.352 -13.765,-12.003 -22.117,-8.149c-29.407,13.573 -49.537,43.153 -62.733,78.968c-17.711,48.07 -23.36,107.31 -28.809,144.233c-1.343,9.1 4.954,17.579 14.054,18.922c9.1,1.343 17.579,-4.955 18.922,-14.055Z" style="fill:#7e4021;"/><path d="M2612.41,1910.36c-5.449,-36.924 -11.098,-96.163 -28.809,-144.234c-13.196,-35.815 -33.326,-65.395 -62.734,-78.967c-8.352,-3.855 -18.262,-0.204 -22.117,8.148c-3.854,8.352 -0.203,18.262 8.149,22.117c21.996,10.152 35.554,33.438 45.424,60.226c16.885,45.829 21.916,102.375 27.111,137.577c1.343,9.1 9.822,15.397 18.922,14.054c9.1,-1.343 15.397,-9.821 14.054,-18.921Z" style="fill:#7e4021;"/><path d="M1156.76,3997.88c134.873,-92.786 233.521,-285.556 298.445,-437.375c132.278,-309.323 175.657,-677.789 261.344,-1003.88c118.759,-451.948 139.473,-897.136 173.005,-1358.72c18.192,-250.423 9.105,-501.15 -9.291,-749.51c-5.83,-78.708 -19.263,-161.87 -48.197,-233.775c-39.094,-97.155 -98.267,-28.16 -144.735,31.326c-289.239,370.266 -446.217,1203.32 -561.326,1662.89c-78.005,311.436 -122.607,629.937 -111.077,949.109c5.639,156.095 0.777,314.895 -10.223,471.353c-15.025,213.717 19.476,759.797 152.055,668.588Z" style="fill:#f7bf9a;"/><path d="M1166.2,4011.61c137.227,-94.406 238.266,-290.083 304.323,-444.553c132.59,-310.051 176.25,-679.338 262.14,-1006.2c119.025,-452.961 139.901,-899.131 173.508,-1361.75c18.251,-251.237 9.163,-502.78 -9.293,-751.948c-5.955,-80.397 -19.801,-165.318 -49.356,-238.766c-14.512,-36.065 -32.867,-52.241 -50.757,-57.168c-17.886,-4.927 -37.187,0.616 -56.249,14.159c-22.699,16.127 -45.787,44.004 -66.326,70.297c-290.368,371.712 -448.8,1207.74 -564.358,1669.1c-78.387,312.96 -123.152,633.025 -111.566,953.759c5.618,155.51 0.766,313.713 -10.192,469.583c-10.642,151.375 3.646,467.501 58.965,611.919c10.835,28.287 23.439,50.341 37.301,64.383c11.304,11.45 23.678,18.047 36.724,19.817c13.952,1.894 29.097,-1.596 45.136,-12.631Zm-18.892,-27.462c-7.83,5.386 -14.951,7.987 -21.761,7.063c-6.893,-0.936 -12.996,-5.306 -18.904,-11.689c-10.712,-11.575 -20.012,-29.307 -28.476,-51.404c-54.024,-141.036 -67.235,-449.829 -56.842,-597.658c11.041,-157.046 15.913,-316.442 10.253,-473.124c-11.474,-317.61 32.965,-634.545 110.589,-944.458c114.658,-457.771 270.182,-1287.86 558.292,-1656.68c18.495,-23.676 38.922,-49.121 59.363,-63.644c9.714,-6.901 18.976,-11.706 28.091,-9.196c11.044,3.042 19.727,15.212 28.685,37.475c28.314,70.362 41.333,151.766 47.038,228.785c18.336,247.552 27.422,497.463 9.289,747.071c-33.456,460.555 -54.008,904.76 -172.501,1355.7c-85.486,325.322 -128.582,692.967 -260.549,1001.56c-63.791,149.169 -160.048,339.03 -292.567,430.197l-0,-0Z" style="fill:#7e4021;"/><path d="M1499.99,2714.8c0.016,1.996 0.398,4.022 1.18,5.987c6.166,15.485 20.288,10.499 22.147,9.728c2.887,-1.197 9.862,-4.614 10.3,-14.792c0.063,-1.481 -1.64,-11.243 -2.848,-14.832c-2.023,-6.007 -4.515,-11.792 -7.162,-17.469c-6.246,-13.396 -13.804,-25.72 -22.533,-37.243c-25.972,-34.282 -57.416,-64.177 -88.911,-92.131c-45.965,-40.798 -90.014,-72.788 -126.374,-108.121c-51.868,-50.403 -87.222,-107.952 -87.861,-211.409c-0.057,-9.198 -7.571,-16.62 -16.769,-16.564c-9.198,0.057 -16.62,7.571 -16.563,16.77c1.161,188.263 106.121,238.348 225.44,344.253c29.886,26.527 59.823,54.8 84.468,87.331c7.314,9.655 13.658,19.976 18.893,31.201c2.126,4.56 4.157,9.196 5.782,14.021c0.206,0.612 0.544,2.06 0.811,3.27Zm31.726,-7.306l0.055,0.111l-0.01,-0.024l-0.045,-0.087Z" style="fill:#7e4021;"/><path d="M1379.22,3219.85l-0.056,2.806c-0.343,3.494 0.411,7.122 2.391,10.339c2.275,3.697 5.107,5.458 7.381,6.477c1.959,0.877 21.481,4.349 23.41,-13.532c0.136,-1.261 0.163,-8.506 0.092,-9.11c-2.125,-18.216 -11.371,-36.269 -18.978,-51.987c-12.481,-25.789 -28.221,-49.186 -45.01,-71.637c-57.144,-76.411 -120.07,-133.66 -145.157,-233.714c-2.238,-8.923 -11.298,-14.35 -20.22,-12.113c-8.923,2.237 -14.35,11.297 -12.113,20.219c26.278,104.801 90.941,165.535 150.796,245.571c15.525,20.761 30.159,42.347 41.7,66.194c5.968,12.332 13.862,26.211 15.764,40.487Zm20.767,-11.701c3.728,0.975 7.122,3.239 9.458,6.615c-2.898,-4.265 -6.517,-5.883 -9.458,-6.615Zm-13.038,1.957l-0.062,0.042l0.084,-0.055l-0.022,0.013Zm11.784,-2.239c-3.831,-0.719 -7.747,-0.248 -11.581,2.118c3.609,-2.176 7.724,-2.822 11.581,-2.118Zm0.232,0.045l0.466,0.099l-0.17,-0.042l-0.296,-0.057Z" style="fill:#7e4021;"/><path d="M1594.39,2190.14c-1.588,7.574 2.295,15.483 9.664,18.69c8.435,3.672 18.263,-0.195 21.934,-8.629c2.174,-4.995 2.767,-11.016 1.007,-17.822c-1.436,-5.555 -4.751,-12.168 -9.592,-19.053c-14.19,-20.183 -42.823,-45.042 -48.63,-50.697c-125.267,-121.963 -222.469,-196.553 -189.099,-403.04c1.468,-9.081 -4.713,-17.645 -13.794,-19.113c-9.081,-1.467 -17.644,4.714 -19.112,13.795c-35.661,220.656 64.889,301.909 198.751,432.241c4.617,4.495 24.927,21.939 38.911,38.633c4.127,4.927 8.711,12.799 9.96,14.995Z" style="fill:#7e4021;"/><path d="M1690.28,1555.84c5.514,6.57 15.253,7.916 22.378,2.871c7.507,-5.315 9.287,-15.726 3.971,-23.233c-2.715,-3.836 -12.264,-10.571 -26.33,-18.72c-23.934,-13.866 -63.68,-36.542 -85.526,-71.963c-27.113,-43.96 -40.972,-93.715 -55.849,-143.291c-15.801,-52.656 -32.696,-105.107 -64.972,-151.366c-5.264,-7.544 -15.662,-9.395 -23.205,-4.132c-7.544,5.264 -9.396,15.662 -4.132,23.206c30.212,43.3 45.592,92.584 60.382,141.873c15.715,52.37 30.763,104.77 59.404,151.208c25.02,40.565 69.779,67.428 97.188,83.307c7.209,4.177 15.66,9.579 16.691,10.24Z" style="fill:#7e4021;"/><path d="M1767.37,993.048c-1.973,-1.302 -4.425,-2.966 -5.404,-3.798c-29.867,-25.388 -47.08,-69.557 -60.199,-107.526c-36.573,-105.854 -35.572,-205.308 -97.061,-302.053c-4.934,-7.763 -15.243,-10.06 -23.006,-5.126c-7.763,4.934 -10.06,15.243 -5.126,23.006c59.998,94.4 58.001,191.77 93.687,295.059c14.983,43.365 36.004,93.041 70.117,122.038c2.989,2.54 10.217,7.543 13.975,9.576c3.268,1.769 5.983,2.379 7.324,2.561c8.669,1.175 13.446,-3.247 16.047,-6.904c1.61,-2.265 7.568,-10.873 -1.425,-21.414c-2.411,-2.826 -5.565,-4.646 -8.929,-5.419Zm-17.172,26.111l0.011,0.014l-0.019,-0.026l0.008,0.012Z" style="fill:#7e4021;"/><path d="M1241.86,3644.63c0.052,1.248 0.565,13.185 0.932,17.402c0.404,4.642 1.701,7.975 2.678,9.712c4.41,7.839 10.937,9.536 17.211,8.719c2.946,-0.383 8.772,-1.544 13.366,-9.258c3.329,-5.591 3.004,-12.35 -0.273,-17.49c-0.342,-6.464 -1.102,-16.596 -2.574,-20.467c-13.094,-34.434 -36.788,-60.114 -60.553,-85.645c-20.758,-22.299 -41.645,-44.424 -52.189,-74.785c-3.017,-8.689 -12.522,-13.294 -21.212,-10.277c-8.689,3.018 -13.294,12.523 -10.277,21.212c12.13,34.929 35.399,60.908 59.279,86.562c20.764,22.306 42.072,44.309 53.612,74.315Z" style="fill:#7e4021;"/><path d="M2515.91,366.448c-81.33,65.367 -173.733,242.302 -216.845,330.768c-94.755,194.437 -176.983,390.507 -247.706,594.871c-112.888,326.204 -269.415,633.042 -389.884,954.161c-163.306,435.302 -207.972,849.535 -300.129,1303.26c-30.185,148.616 -47.271,376.281 58.716,426.891c192.373,91.863 531.117,-916.588 630.765,-1147.69c120.366,-279.151 286.074,-534.631 399.786,-817.107c71.941,-178.711 462.148,-1600.83 336.437,-1706.59c-67.129,-56.475 -198.907,3.383 -271.14,61.438Z" style="fill:#f7bf9a;"/><path d="M2505.47,353.457c-82.821,66.565 -177.484,246.37 -221.386,336.458c-95.049,195.042 -177.531,391.722 -248.475,596.722c-112.84,326.068 -269.319,632.771 -389.738,953.757c-163.627,436.16 -208.519,851.177 -300.857,1305.8c-18.479,90.978 -31.921,211.003 -16.54,303.611c11.078,66.703 37.674,119.322 84.407,141.637c28.051,13.396 58.852,8.859 91.216,-12.31c41.411,-27.086 86.607,-83.205 132.412,-157.712c172.236,-280.159 359.715,-823.977 429.624,-986.11c120.419,-279.276 286.179,-534.88 399.942,-817.482c57.735,-143.419 319.816,-1085.13 357.766,-1510.39c5.83,-65.327 6.334,-118.755 0.355,-155.738c-4.717,-29.173 -14.191,-49.154 -26.416,-59.439c-30.443,-25.612 -72.413,-31.167 -117.299,-23.145c-62.019,11.084 -129.75,47.968 -175.011,84.345Zm20.882,25.981c41.419,-33.288 103.24,-67.369 159.993,-77.512c34.299,-6.13 66.714,-3.733 89.976,15.838c7.896,6.643 11.922,20.41 14.969,39.253c5.661,35.016 4.87,85.601 -0.65,147.454c-37.712,422.595 -298.115,1358.39 -355.487,1500.91c-113.661,282.351 -279.318,537.705 -399.63,816.732c-69.597,161.411 -255.941,702.939 -427.41,981.85c-42.576,69.255 -83.77,122.097 -122.262,147.274c-20.913,13.679 -40.481,18.782 -58.607,10.127c-38.062,-18.176 -56.864,-62.691 -65.887,-117.019c-14.769,-88.926 -1.421,-204.155 16.323,-291.515c91.975,-452.835 136.417,-866.283 299.4,-1300.73c120.52,-321.254 277.095,-628.226 390.03,-954.565c70.503,-203.728 152.478,-399.188 246.938,-593.021c42.322,-86.845 132.464,-260.909 212.304,-325.079Z" style="fill:#7e4021;"/><path d="M2356.06,2106.8c20.653,-63.471 62.676,-123.118 80.535,-190.214c2.366,-8.889 -2.93,-18.026 -11.819,-20.393c-8.889,-2.366 -18.027,2.93 -20.393,11.819c-17.703,66.511 -59.547,125.556 -80.021,188.473c-2.846,8.747 1.945,18.16 10.692,21.006c8.747,2.847 18.159,-1.944 21.006,-10.691Z" style="fill:#7e4021;"/><path d="M2425.83,1841.77c-0.541,1.261 -3.075,7.232 -3.399,8.91c-0.5,2.598 -0.366,4.78 -0.076,6.439c1.147,6.577 4.947,10.44 9.823,12.597c2.899,1.283 7.893,2.984 14.783,-0.451c5.494,-2.739 8.814,-8.111 9.191,-13.828c0.723,-1.69 1.485,-3.569 1.736,-4.51c1.435,-5.397 2.852,-10.8 4.242,-16.209c3.735,-14.529 6.902,-29.22 10.333,-43.825c2.103,-8.954 -3.459,-17.932 -12.414,-20.036c-8.955,-2.104 -17.933,3.459 -20.036,12.414c-3.378,14.378 -6.489,28.844 -10.166,43.148c-1.317,5.123 -2.658,10.24 -4.017,15.351Zm12.199,-4.018c-1.523,0.097 -3.229,0.467 -5.105,1.295c1.662,-0.719 3.384,-1.145 5.105,-1.295Z" style="fill:#7e4021;"/><path d="M2338.28,595.68c1.934,14.494 3.079,29.078 5.092,43.564c5.12,36.846 11.814,73.691 19.876,109.996c23.65,106.494 51.84,211.425 85.577,315.157c2.845,8.748 12.257,13.54 21.005,10.695c8.747,-2.845 13.539,-12.257 10.694,-21.004c-33.407,-102.717 -61.316,-206.622 -84.735,-312.074c-7.869,-35.435 -14.403,-71.396 -19.401,-107.358c-2.005,-14.427 -3.141,-28.952 -5.068,-43.386c-1.217,-9.118 -9.608,-15.532 -18.725,-14.315c-9.118,1.217 -15.532,9.608 -14.315,18.725Z" style="fill:#7e4021;"/><path d="M2093.14,1133.17c-8.037,33.937 -22.693,117.754 11.52,220.03c32.184,96.21 67.036,124.665 87.081,217.339c1.945,8.991 10.823,14.711 19.814,12.767c8.99,-1.945 14.711,-10.823 12.766,-19.814c-20.356,-94.113 -55.366,-123.163 -88.049,-220.867c-31.376,-93.793 -18.066,-170.652 -10.696,-201.774c2.12,-8.951 -3.427,-17.939 -12.378,-20.059c-8.951,-2.12 -17.939,3.427 -20.058,12.378Z" style="fill:#7e4021;"/><path d="M1870.42,1709.62c-23.822,176.49 49.022,329.123 91.841,457.32c2.914,8.725 12.364,13.442 21.089,10.528c8.724,-2.914 13.442,-12.363 10.528,-21.088c-41.442,-124.075 -113.48,-271.487 -90.424,-442.301c1.23,-9.116 -5.172,-17.516 -14.288,-18.746c-9.116,-1.231 -17.515,5.171 -18.746,14.287Z" style="fill:#7e4021;"/><path d="M1631.74,2288.73c-1.157,161.96 75.389,300.011 122.296,416.993c3.424,8.538 13.135,12.69 21.673,9.267c8.538,-3.424 12.69,-13.135 9.266,-21.673c-45.525,-113.535 -121.025,-247.161 -119.902,-404.349c0.065,-9.198 -7.349,-16.72 -16.548,-16.785c-9.198,-0.066 -16.719,7.349 -16.785,16.547Z" style="fill:#7e4021;"/><path d="M1455.31,2976.03c29.881,105.677 83.834,197.456 122.641,279.812c3.921,8.321 13.86,11.894 22.181,7.973c8.321,-3.921 11.893,-13.86 7.972,-22.181c-38.11,-80.88 -91.373,-170.891 -120.718,-274.674c-2.503,-8.851 -11.721,-14.006 -20.573,-11.503c-8.851,2.503 -14.006,11.721 -11.503,20.573Z" style="fill:#7e4021;"/><path d="M1345.66,3554.69c16.996,46.608 32.763,93.014 47.584,134.443c3.098,8.661 12.645,13.177 21.306,10.078c8.661,-3.098 13.178,-12.645 10.079,-21.306c-14.842,-41.488 -30.633,-87.96 -47.652,-134.635c-3.151,-8.642 -12.726,-13.099 -21.368,-9.948c-8.642,3.151 -13.1,12.726 -9.949,21.368Z" style="fill:#7e4021;"/><path d="M1776.3,3663.92c15.132,-103.241 -37.526,-295.78 -66.119,-389.946c-62.844,-206.967 -135.978,-406.607 -223.186,-604.498c-139.203,-315.873 -233.247,-647.242 -363.433,-964.547c-176.478,-430.13 -425.569,-764.102 -666.727,-1159.33c-78.99,-129.454 -221.362,-307.929 -333.471,-272.912c-203.486,63.558 234.363,1033.1 318.566,1270.27c101.709,286.476 154.082,586.453 262.93,870.839c68.863,179.919 750.44,1487.64 914.527,1479.63c87.621,-4.282 143.474,-137.807 156.913,-229.498Z" style="fill:#f7bf9a;"/><path d="M1792.79,3666.34c15.409,-105.133 -37.546,-301.313 -66.662,-397.206c-63.039,-207.61 -136.403,-407.87 -223.883,-606.377c-139.144,-315.741 -233.133,-646.979 -363.265,-964.151c-176.826,-430.978 -426.286,-765.678 -667.919,-1161.68c-48.355,-79.248 -120.164,-176.358 -194.442,-233.764c-53.501,-41.348 -108.793,-61.816 -158.225,-46.376c-29.672,9.268 -49.158,33.548 -58.475,71.082c-11.921,48.025 -6.863,119.903 10.259,205.671c64.379,322.505 296.971,848.611 356.045,1015c101.754,286.604 154.174,586.708 263.07,871.221c55.264,144.389 503.888,1012.86 765.409,1350.35c40.174,51.842 76.154,91.341 105.698,114.377c23.305,18.172 43.842,26.37 59.799,25.59c39.737,-1.941 74.275,-26.425 101.714,-62.843c37.911,-50.319 62.455,-123.431 70.877,-180.884Zm-32.981,-4.834c-7.707,52.575 -29.827,119.613 -64.519,165.659c-20.967,27.829 -46.354,48.125 -76.718,49.609c-10.306,0.503 -22.624,-6.847 -37.676,-18.584c-27.973,-21.811 -61.808,-59.422 -99.845,-108.508c-259.878,-335.369 -705.71,-1198.36 -760.627,-1341.84c-108.799,-284.26 -161.125,-584.11 -262.789,-870.458c-58.811,-165.647 -290.676,-689.302 -354.769,-1010.37c-15.915,-79.722 -21.676,-146.476 -10.596,-191.116c6.021,-24.253 16.89,-41.306 36.062,-47.295c40.262,-12.575 84.327,7.257 127.903,40.934c71.325,55.123 139.939,148.654 186.371,224.751c240.683,394.45 489.405,727.693 665.535,1156.98c130.241,317.436 224.341,648.937 363.601,964.941c86.938,197.276 159.842,396.296 222.49,602.619c28.069,92.441 80.432,281.338 65.577,382.687Z" style="fill:#7e4021;"/><path d="M709.38,2279.7c28.047,60.568 37.83,132.872 70.391,194.196c4.314,8.125 14.412,11.218 22.536,6.905c8.124,-4.314 11.218,-14.412 6.904,-22.537c-32.276,-60.788 -41.781,-132.531 -69.583,-192.57c-3.865,-8.348 -13.78,-11.986 -22.127,-8.121c-8.347,3.865 -11.986,13.78 -8.121,22.127Z" style="fill:#7e4021;"/><path d="M807.046,2532.02c0.619,1.731 1.339,3.626 1.795,4.486c2.62,4.932 5.258,9.856 7.919,14.766c7.148,13.189 14.822,26.111 22.244,39.148c4.551,7.994 14.736,10.789 22.73,6.239c7.994,-4.551 10.789,-14.736 6.238,-22.73c-7.307,-12.836 -14.868,-25.554 -21.905,-38.539c-2.521,-4.65 -5.019,-9.313 -7.501,-13.984c-0.462,-1.291 -2.666,-7.392 -3.571,-8.842c-1.401,-2.245 -2.984,-3.752 -4.325,-4.771c-5.315,-4.039 -10.728,-4.286 -15.77,-2.549c-2.997,1.032 -7.815,3.184 -10.527,10.388c-2.163,5.746 -0.941,11.942 2.673,16.388Zm28.174,-3.791c-0.729,1.657 -1.702,3.141 -2.861,4.422c1.05,-1.107 2.049,-2.539 2.861,-4.422Z" style="fill:#7e4021;"/><path d="M1750.51,3375.07c-11.278,-9.306 -22.039,-19.215 -33.37,-28.462c-28.821,-23.52 -58.795,-45.969 -89.404,-67.091c-89.787,-61.957 -181.837,-119.68 -277.138,-172.749c-8.036,-4.476 -18.194,-1.584 -22.67,6.452c-4.475,8.037 -1.584,18.195 6.453,22.67c94.368,52.55 185.515,109.712 274.423,171.062c29.875,20.616 59.131,42.526 87.261,65.481c11.284,9.209 21.999,19.081 33.231,28.349c7.096,5.854 17.609,4.846 23.463,-2.249c5.854,-7.095 4.847,-17.609 -2.249,-23.463Z" style="fill:#7e4021;"/><path d="M1564.48,2814.38c-17.2,-30.339 -63.484,-101.738 -158.142,-153.417c-89.044,-48.614 -133.946,-45.757 -211.688,-100.038c-7.543,-5.266 -17.941,-3.418 -23.207,4.124c-5.266,7.542 -3.418,17.941 4.124,23.207c78.949,55.124 124.371,52.595 214.798,101.964c86.808,47.393 129.344,112.776 145.118,140.599c4.536,8.002 14.716,10.816 22.718,6.28c8.002,-4.537 10.816,-14.717 6.279,-22.719Z" style="fill:#7e4021;"/><path d="M1335.53,2240.38c-102.617,-145.554 -259.848,-207.855 -378.449,-272.676c-8.072,-4.411 -18.207,-1.44 -22.618,6.632c-4.412,8.072 -1.44,18.206 6.631,22.618c114.787,62.736 267.876,121.76 367.193,262.633c5.3,7.518 15.707,9.318 23.225,4.018c7.518,-5.3 9.319,-15.707 4.018,-23.225Z" style="fill:#7e4021;"/><path d="M1116.44,1653.57c-109.343,-119.484 -259.366,-168.581 -373.333,-222.401c-8.318,-3.928 -18.26,-0.364 -22.188,7.954c-3.928,8.318 -0.364,18.26 7.954,22.188c110.609,52.234 256.856,98.799 362.977,214.762c6.21,6.786 16.761,7.254 23.547,1.044c6.786,-6.21 7.253,-16.761 1.043,-23.547Z" style="fill:#7e4021;"/><path d="M778.138,1029.82c-93.797,-57.12 -195.781,-87.675 -280.253,-121.63c-8.535,-3.431 -18.25,0.713 -21.681,9.248c-3.43,8.535 0.714,18.249 9.249,21.68c82.957,33.347 183.232,63.076 275.348,119.171c7.857,4.785 18.119,2.291 22.904,-5.566c4.784,-7.856 2.29,-18.119 -5.567,-22.903Z" style="fill:#7e4021;"/><path d="M464.799,531.134c-44.166,-22.596 -87.294,-45.879 -126.342,-66.157c-8.164,-4.24 -18.233,-1.054 -22.473,7.109c-4.239,8.164 -1.053,18.233 7.11,22.473c39.104,20.307 82.294,43.622 126.523,66.25c8.189,4.189 18.239,0.942 22.428,-7.247c4.19,-8.189 0.943,-18.239 -7.246,-22.428Z" style="fill:#7e4021;"/><path d="M885.258,36.837c-102.474,127.668 -141.488,340.669 -159.987,504.748c-37.688,334.302 26.78,699.669 38.537,1036.62c16.294,467.007 124.542,899.33 225.233,1351.05c54.628,245.068 135.468,482.579 224.543,715.145c28.228,73.703 65.02,149.484 113.419,210.024c65.394,81.798 102.214,-1.304 129.603,-71.644c170.478,-437.828 81.137,-1280.82 59.155,-1754.08c-14.897,-320.71 -63.819,-638.576 -166.691,-940.935c-50.312,-147.873 -91.344,-301.357 -125.825,-454.364c-47.099,-209.004 -237.255,-722.067 -337.987,-596.57Z" style="fill:#f7bf9a;"/><path d="M872.261,26.405c-104.263,129.896 -144.73,346.369 -163.551,513.313c-37.778,335.089 26.657,701.323 38.441,1039.07c16.331,468.053 124.706,901.364 225.623,1354.09c54.805,245.866 135.881,484.158 225.246,717.48c28.834,75.285 66.528,152.631 115.965,214.47c24.275,30.365 46.508,40.575 65.059,40.147c18.548,-0.427 35.437,-11.289 49.797,-29.744c17.099,-21.976 31.19,-55.317 43.296,-86.407c171.144,-439.538 82.341,-1285.8 60.272,-1760.9c-14.969,-322.28 -64.185,-641.692 -167.561,-945.53c-50.122,-147.318 -90.992,-300.228 -125.344,-452.66c-33.36,-148.036 -137.998,-446.684 -232.529,-569.08c-18.516,-23.974 -36.931,-41.469 -54.247,-50.928c-14.12,-7.714 -27.87,-10.472 -40.874,-8.414c-13.906,2.201 -27.407,9.901 -39.593,25.084Zm25.995,20.865c5.948,-7.411 12.021,-11.951 18.809,-13.025c6.87,-1.088 13.972,1.342 21.467,5.756c13.59,8.003 27.598,22.309 42.062,41.037c92.317,119.529 193.814,411.464 226.393,556.033c34.61,153.582 75.804,307.64 126.304,456.068c102.369,300.88 150.997,617.199 165.821,936.341c21.896,471.404 111.775,1311.14 -58.037,1747.26c-10.901,27.997 -23.144,58.243 -38.542,78.032c-7.318,9.405 -14.806,16.672 -24.258,16.89c-11.451,0.264 -23.268,-8.893 -38.254,-27.637c-47.36,-59.241 -83.25,-133.457 -110.873,-205.578c-88.785,-231.81 -169.389,-468.539 -223.839,-712.81c-100.466,-450.706 -208.587,-882.042 -224.845,-1348c-11.729,-336.162 -76.231,-700.661 -38.631,-1034.18c18.176,-161.215 55.738,-370.743 156.423,-496.182Z" style="fill:#7e4021;"/><path d="M925.703,1364.42c-0.589,-1.908 -1.538,-3.738 -2.852,-5.394c-10.361,-13.057 -22.451,-4.218 -24.01,-2.945c-2.421,1.977 -8.117,7.256 -5.608,17.13c0.365,1.437 4.805,10.296 6.995,13.385c3.665,5.171 7.716,9.995 11.884,14.67c9.837,11.032 20.622,20.661 32.297,29.185c34.736,25.36 73.452,44.944 111.658,62.655c55.76,25.848 107.151,43.812 152.139,67.189c64.176,33.349 114.593,78.293 144.971,177.192c2.7,8.793 12.032,13.739 20.825,11.038c8.793,-2.701 13.739,-12.033 11.039,-20.826c-55.279,-179.968 -170.21,-197.738 -314.955,-264.835c-36.255,-16.806 -73.06,-35.27 -106.022,-59.335c-9.784,-7.143 -18.829,-15.202 -27.072,-24.447c-3.348,-3.755 -6.626,-7.61 -9.571,-11.764c-0.374,-0.527 -1.114,-1.816 -1.718,-2.898Zm-28.35,16.054l0.068,0.071l-0.085,-0.091l0.017,0.02Z" style="fill:#7e4021;"/><path d="M896.049,845.977l-0.753,-2.704c-0.677,-3.445 -2.443,-6.702 -5.265,-9.213c-3.242,-2.886 -6.461,-3.758 -8.933,-4.08c-2.128,-0.277 -21.824,2.015 -18.527,19.695c0.233,1.247 2.292,8.193 2.533,8.752c7.277,16.834 21.325,31.463 33.133,44.329c19.373,21.107 41.18,38.986 63.718,55.657c76.713,56.739 153.449,93.462 206.263,182.068c4.709,7.902 14.948,10.493 22.85,5.784c7.901,-4.71 10.492,-14.949 5.783,-22.85c-55.319,-92.809 -134.722,-132.371 -215.074,-191.802c-20.842,-15.415 -41.067,-31.878 -58.982,-51.397c-9.264,-10.093 -20.817,-21.114 -26.746,-34.239Zm-27.483,13.567c4.002,3.251 7.934,3.759 10.961,3.614c-3.851,0.139 -7.753,-1.053 -10.961,-3.614Zm12.007,3.547l-0.474,0.039l0.174,-0.009l0.3,-0.03Zm10.718,-5.384c-2.831,3.123 -6.586,4.925 -10.482,5.36c3.876,-0.413 7.491,-1.991 10.482,-5.36Zm0.207,-0.233l-0.065,0.077l0.017,-0.019l0.048,-0.058Z" style="fill:#7e4021;"/><path d="M986.24,1894.05c-0.659,-7.71 -6.653,-14.167 -14.634,-15.119c-9.134,-1.09 -17.434,5.441 -18.523,14.575c-0.645,5.409 0.519,11.346 4.163,17.358c2.973,4.907 8.051,10.286 14.668,15.487c19.398,15.247 53.972,30.817 61.161,34.562c155.06,80.765 269.613,124.235 297.062,331.593c1.208,9.119 9.591,15.542 18.71,14.335c9.119,-1.207 15.543,-9.591 14.335,-18.71c-29.333,-221.586 -149.008,-270.474 -314.709,-356.781c-5.715,-2.977 -30.185,-13.84 -48.38,-25.804c-5.37,-3.532 -12.026,-9.752 -13.853,-11.496Z" style="fill:#7e4021;"/><path d="M1076.9,2529.13c-7.171,-4.706 -16.885,-3.192 -22.257,3.689c-5.661,7.25 -4.37,17.733 2.881,23.393c3.704,2.892 14.787,6.596 30.603,10.353c26.911,6.394 71.501,16.675 102.615,44.313c38.614,34.301 66.202,77.964 94.713,121.164c30.283,45.883 61.555,91.256 105.775,126.272c7.212,5.711 17.703,4.492 23.413,-2.719c5.711,-7.212 4.492,-17.703 -2.72,-23.413c-41.393,-32.777 -70.301,-75.552 -98.647,-118.502c-30.118,-45.634 -59.606,-91.489 -100.397,-127.723c-35.633,-31.652 -86.228,-44.501 -117.048,-51.822c-8.105,-1.926 -17.753,-4.668 -18.931,-5.005Z" style="fill:#7e4021;"/><path d="M1165,3090.3c2.264,0.68 5.09,1.568 6.267,2.084c35.909,15.72 65.103,53.069 88.59,85.658c65.483,90.856 93.139,186.393 179.862,261.356c6.959,6.015 17.493,5.249 23.508,-1.71c6.016,-6.959 5.25,-17.493 -1.71,-23.508c-84.621,-73.147 -110.722,-166.974 -174.618,-255.627c-26.826,-37.222 -61.251,-78.749 -102.264,-96.705c-3.593,-1.573 -11.955,-4.284 -16.139,-5.151c-3.639,-0.753 -6.414,-0.557 -7.751,-0.345c-8.641,1.369 -11.943,6.978 -13.382,11.229c-0.891,2.633 -4.119,12.591 7.525,20.099c3.122,2.012 6.667,2.849 10.112,2.62Zm8.918,-29.957l0.026,0.019l-0.012,-0.009l-0.014,-0.01Z" style="fill:#7e4021;"/><path d="M870.296,400.695c2.188,6.092 5.831,15.577 8.355,18.861c22.447,29.21 52.528,46.988 82.634,64.601c26.295,15.384 52.665,30.564 71.498,56.608c5.39,7.454 15.818,9.13 23.272,3.74c7.454,-5.391 9.129,-15.818 3.739,-23.272c-21.666,-29.962 -51.426,-48.149 -81.677,-65.847c-26.303,-15.388 -53.042,-30.331 -72.726,-55.747c-0.41,-1.181 -4.335,-12.465 -5.9,-16.399c-1.722,-4.329 -3.924,-7.148 -5.359,-8.53c-6.479,-6.239 -13.218,-5.986 -18.991,-3.399c-2.712,1.215 -7.958,4.002 -10.138,12.712c-1.579,6.313 0.676,12.692 5.293,16.672Z" style="fill:#7e4021;"/><path d="M268.622,2372.47c66.534,428.188 465.173,1570.3 513.917,1807.5c40.613,197.632 295.862,274.7 701.173,275.678c690.151,1.664 702.32,-262.748 758.659,-401.254c161.524,-397.092 440.566,-1405.19 446.456,-1640.98c-245.373,199.814 -748.917,220.652 -1251.83,221.246c-403.461,0.476 -982.498,-139.038 -1168.37,-262.181Z" style="fill:#ffe6d8;"/><path d="M277.826,2358.58c-5.503,-3.646 -12.639,-3.7 -18.197,-0.138c-5.558,3.562 -8.49,10.069 -7.476,16.592c66.563,428.372 465.296,1570.99 514.06,1808.29c21.397,104.121 98.413,177.407 224.384,223.867c120.966,44.615 288.023,64.629 493.075,65.123c351.372,0.848 529.83,-67.389 627.942,-152.115c98.927,-85.43 117.274,-188.422 146.196,-259.525c162.091,-398.488 441.768,-1410.23 447.679,-1646.85c0.162,-6.506 -3.477,-12.511 -9.32,-15.378c-5.842,-2.867 -12.819,-2.071 -17.866,2.038c-96.337,78.45 -233.379,128.401 -394.548,160.608c-245.359,49.029 -546.185,56.541 -846.78,56.895c-400.224,0.473 -974.764,-137.253 -1159.15,-259.409Zm13.247,46.879c214.726,119.075 759.969,246.319 1145.94,245.864c302.904,-0.358 606.028,-8.136 853.271,-57.542c151.379,-30.25 281.977,-76.241 379.521,-145.065c-27.999,287.227 -289.064,1221.27 -442.874,1599.4c-27.418,67.404 -43.324,165.87 -137.105,246.857c-94.596,81.69 -267.295,144.827 -606.075,144.01c-200.26,-0.483 -363.483,-19.492 -481.622,-63.064c-113.138,-41.727 -184.05,-105.788 -203.267,-199.302c-47.429,-230.804 -426.365,-1318.75 -507.791,-1771.16l-0,0Z" style="fill:#7e4021;"/><path d="M1733.84,3837.28c12.425,3.645 25.785,10.538 40.607,16.528c40.234,16.257 89.573,27.54 154.787,-25.811c7.119,-5.825 8.171,-16.334 2.346,-23.453c-5.824,-7.12 -16.333,-8.171 -23.453,-2.347c-51.094,41.8 -89.669,33.443 -121.192,20.705c-15.931,-6.437 -30.355,-13.689 -43.71,-17.607c-8.827,-2.59 -18.095,2.474 -20.685,11.3c-2.59,8.827 2.474,18.095 11.3,20.685Z" style="fill:#7e4021;"/><path d="M1388.43,4091.16c12.425,3.645 25.785,10.538 40.606,16.527c40.234,16.258 89.574,27.541 154.787,-25.81c7.12,-5.825 8.171,-16.334 2.346,-23.453c-5.824,-7.12 -16.333,-8.171 -23.453,-2.347c-51.093,41.8 -89.669,33.442 -121.191,20.705c-15.932,-6.438 -30.356,-13.689 -43.711,-17.607c-8.827,-2.59 -18.095,2.473 -20.685,11.3c-2.589,8.827 2.474,18.095 11.301,20.685Z" style="fill:#7e4021;"/><path d="M1956.84,4308.59c22.143,-7.27 84.962,-39.942 110.682,-63.894c31.954,-29.756 59.597,-75.037 85.827,-135.658c3.653,-8.442 -0.236,-18.262 -8.678,-21.915c-8.442,-3.653 -18.262,0.236 -21.914,8.678c-24.002,55.471 -48.712,97.272 -77.951,124.501c-22.841,21.271 -78.699,50.162 -98.364,56.618c-8.739,2.87 -13.505,12.295 -10.636,21.035c2.87,8.739 12.295,13.505 21.034,10.635Z" style="fill:#7e4021;"/><path d="M2179.22,4043.75c7.568,-19.452 24.926,-67.845 31.528,-87.652c2.909,-8.726 -1.815,-18.173 -10.541,-21.082c-8.727,-2.908 -18.173,1.815 -21.082,10.541c-6.486,19.457 -23.535,66.997 -30.97,86.106c-3.335,8.573 0.917,18.241 9.49,21.576c8.572,3.335 18.24,-0.917 21.575,-9.489Z" style="fill:#7e4021;"/><path d="M1872.19,3739.73c12.425,3.645 25.785,10.538 40.607,16.527c40.234,16.258 89.573,27.541 154.786,-25.81c7.12,-5.825 8.171,-16.334 2.347,-23.453c-5.825,-7.12 -16.334,-8.171 -23.453,-2.347c-51.094,41.8 -89.669,33.442 -121.192,20.705c-15.931,-6.438 -30.356,-13.689 -43.71,-17.607c-8.827,-2.59 -18.096,2.474 -20.685,11.3c-2.59,8.827 2.474,18.095 11.3,20.685Z" style="fill:#7e4021;"/><path d="M1017.18,3616.07c12.425,3.645 25.785,10.538 40.606,16.527c40.234,16.258 89.574,27.541 154.787,-25.81c7.12,-5.825 8.171,-16.334 2.347,-23.453c-5.825,-7.12 -16.334,-8.171 -23.454,-2.347c-51.093,41.8 -89.669,33.442 -121.191,20.705c-15.932,-6.438 -30.356,-13.689 -43.711,-17.607c-8.826,-2.59 -18.095,2.474 -20.685,11.3c-2.589,8.827 2.474,18.095 11.301,20.685Z" style="fill:#7e4021;"/><path d="M2037.52,3075.03c12.425,3.646 25.785,10.539 40.607,16.528c40.233,16.258 89.573,27.54 154.786,-25.811c7.12,-5.824 8.171,-16.333 2.347,-23.453c-5.825,-7.119 -16.334,-8.171 -23.454,-2.346c-51.093,41.799 -89.669,33.442 -121.191,20.704c-15.931,-6.437 -30.356,-13.688 -43.711,-17.607c-8.826,-2.589 -18.095,2.474 -20.684,11.301c-2.59,8.826 2.473,18.095 11.3,20.684Z" style="fill:#7e4021;"/><path d="M553.462,2990.46c12.425,3.645 25.785,10.538 40.607,16.527c40.233,16.258 89.573,27.54 154.786,-25.81c7.12,-5.825 8.171,-16.334 2.347,-23.454c-5.825,-7.119 -16.334,-8.171 -23.453,-2.346c-51.094,41.8 -89.669,33.442 -121.192,20.705c-15.931,-6.438 -30.356,-13.689 -43.711,-17.608c-8.826,-2.589 -18.095,2.474 -20.684,11.301c-2.59,8.826 2.474,18.095 11.3,20.685Z" style="fill:#7e4021;"/><path d="M856.924,2990.46c12.424,3.645 25.785,10.538 40.606,16.527c40.234,16.258 89.573,27.54 154.787,-25.81c7.119,-5.825 8.171,-16.334 2.346,-23.454c-5.824,-7.119 -16.333,-8.171 -23.453,-2.346c-51.094,41.8 -89.669,33.442 -121.192,20.705c-15.931,-6.438 -30.355,-13.689 -43.71,-17.608c-8.827,-2.589 -18.095,2.474 -20.685,11.301c-2.59,8.826 2.474,18.095 11.301,20.685Z" style="fill:#7e4021;"/><path d="M1161.69,3705.03c12.424,3.645 25.785,10.539 40.606,16.528c40.234,16.257 89.574,27.54 154.787,-25.811c7.119,-5.825 8.171,-16.333 2.346,-23.453c-5.824,-7.12 -16.333,-8.171 -23.453,-2.347c-51.093,41.8 -89.669,33.443 -121.192,20.705c-15.931,-6.437 -30.355,-13.689 -43.71,-17.607c-8.827,-2.59 -18.095,2.474 -20.685,11.3c-2.589,8.827 2.474,18.095 11.301,20.685Z" style="fill:#7e4021;"/><path d="M2182.03,3163.99c12.424,3.645 25.785,10.538 40.606,16.527c40.234,16.258 89.574,27.54 154.787,-25.81c7.119,-5.825 8.171,-16.334 2.346,-23.453c-5.824,-7.12 -16.333,-8.172 -23.453,-2.347c-51.093,41.8 -89.669,33.442 -121.192,20.705c-15.931,-6.438 -30.355,-13.689 -43.71,-17.608c-8.827,-2.589 -18.095,2.474 -20.685,11.301c-2.589,8.826 2.474,18.095 11.301,20.685Z" style="fill:#7e4021;"/><path d="M697.975,3079.41c12.425,3.645 25.785,10.538 40.606,16.527c40.234,16.258 89.574,27.541 154.787,-25.81c7.12,-5.825 8.171,-16.334 2.346,-23.453c-5.824,-7.12 -16.333,-8.171 -23.453,-2.347c-51.093,41.8 -89.669,33.442 -121.191,20.705c-15.932,-6.438 -30.356,-13.689 -43.711,-17.607c-8.827,-2.59 -18.095,2.474 -20.685,11.3c-2.589,8.827 2.474,18.095 11.301,20.685Z" style="fill:#7e4021;"/><path d="M1179.99,3515.39c12.425,3.645 25.785,10.538 40.607,16.527c40.234,16.258 89.573,27.54 154.787,-25.81c7.119,-5.825 8.171,-16.334 2.346,-23.453c-5.824,-7.12 -16.333,-8.172 -23.453,-2.347c-51.094,41.8 -89.669,33.442 -121.192,20.705c-15.931,-6.438 -30.355,-13.689 -43.71,-17.608c-8.827,-2.589 -18.095,2.474 -20.685,11.301c-2.59,8.826 2.474,18.095 11.3,20.685Z" style="fill:#7e4021;"/><path d="M2200.33,2974.35c12.425,3.646 25.785,10.539 40.607,16.528c40.234,16.257 89.573,27.54 154.787,-25.811c7.119,-5.824 8.171,-16.333 2.346,-23.453c-5.824,-7.119 -16.333,-8.171 -23.453,-2.346c-51.094,41.799 -89.669,33.442 -121.192,20.704c-15.931,-6.437 -30.355,-13.689 -43.71,-17.607c-8.827,-2.59 -18.095,2.474 -20.685,11.301c-2.59,8.826 2.474,18.095 11.3,20.684Z" style="fill:#7e4021;"/><path d="M698.982,2889.78c12.424,3.646 25.785,10.539 40.606,16.528c40.234,16.258 89.574,27.54 154.787,-25.811c7.119,-5.824 8.171,-16.333 2.346,-23.453c-5.824,-7.119 -16.333,-8.171 -23.453,-2.346c-51.093,41.799 -89.669,33.442 -121.192,20.704c-15.931,-6.437 -30.355,-13.689 -43.71,-17.607c-8.827,-2.589 -18.095,2.474 -20.685,11.301c-2.589,8.826 2.474,18.095 11.301,20.684Z" style="fill:#7e4021;"/><path d="M516.083,2452.24c31.926,37.595 97.353,84.556 113.685,94.225c329.892,195.296 642.219,383.02 927.045,641.349c51.586,46.788 167.617,202.8 245.042,196.978c15.364,-1.155 31.451,-6.063 45.268,-12.759c122.779,-59.5 191.896,-271.872 256.403,-383.643c54.111,-93.756 113.965,-182.748 187.89,-262.171c115.878,-124.497 286.42,-237.959 121.472,-376.303c-22.822,-19.141 -51.979,-61.837 -80.923,-71.485c-1.846,-0.615 -17.007,34.424 -18.702,37.927c-35.114,72.569 -86.068,166.8 -147.004,222.761c-120.312,110.491 -371.154,86.282 -517.457,89.349c-167.497,3.51 -805.253,-7.332 -901.748,-125.444c-42.647,-52.2 -67.741,-124.972 -89.488,-188.763c-1.732,-5.082 -4.597,-21.583 -12.584,-20.624c-45.51,5.461 -154.252,128.749 -128.899,158.603Z" style="fill:#fff;"/><clipPath id="_clip1"><path d="M516.083,2452.24c31.926,37.595 97.353,84.556 113.685,94.225c329.892,195.296 642.219,383.02 927.045,641.349c51.586,46.788 167.617,202.8 245.042,196.978c15.364,-1.155 31.451,-6.063 45.268,-12.759c122.779,-59.5 191.896,-271.872 256.403,-383.643c54.111,-93.756 113.965,-182.748 187.89,-262.171c115.878,-124.497 286.42,-237.959 121.472,-376.303c-22.822,-19.141 -51.979,-61.837 -80.923,-71.485c-1.846,-0.615 -17.007,34.424 -18.702,37.927c-35.114,72.569 -86.068,166.8 -147.004,222.761c-120.312,110.491 -371.154,86.282 -517.457,89.349c-167.497,3.51 -805.253,-7.332 -901.748,-125.444c-42.647,-52.2 -67.741,-124.972 -89.488,-188.763c-1.732,-5.082 -4.597,-21.583 -12.584,-20.624c-45.51,5.461 -154.252,128.749 -128.899,158.603Z"/></clipPath><g clip-path="url(#_clip1)"><path d="M1826.75,2753.23l148.463,107.552l107.535,-148.438l-148.464,-107.553l-107.534,148.439Z" style="fill:#eb7e6c;"/><path d="M2041.82,2456.35l148.464,107.553l107.534,-148.438l-148.463,-107.553l-107.535,148.438Z" style="fill:#eb7e6c;"/><path d="M1785.82,2497.24l148.463,107.553l107.535,-148.439l-148.463,-107.552l-107.535,148.438Z" style="fill:#eb7e6c;"/><path d="M1529.82,2538.12l148.463,107.553l107.535,-148.438l-148.463,-107.553l-107.535,148.438Z" style="fill:#eb7e6c;"/><path d="M1744.89,2241.25l148.463,107.553l107.535,-148.439l-148.464,-107.552l-107.534,148.438Z" style="fill:#eb7e6c;"/><path d="M1571.06,2793.46l148.464,107.553l107.534,-148.438l-148.463,-107.553l-107.535,148.438Z" style="fill:#eb7e6c;"/><path d="M1612.07,3049.51l148.464,107.552l107.534,-148.438l-148.463,-107.553l-107.535,148.439Z" style="fill:#eb7e6c;"/><path d="M2123.67,2968.34l148.463,107.553l107.535,-148.439l-148.463,-107.552l-107.535,148.438Z" style="fill:#eb7e6c;"/><path d="M1652.6,3305.51l148.463,107.553l107.535,-148.439l-148.464,-107.553l-107.534,148.439Z" style="fill:#eb7e6c;"/><path d="M1908.52,3264.48l148.463,107.552l107.535,-148.438l-148.464,-107.553l-107.534,148.439Z" style="fill:#eb7e6c;"/><path d="M2338.74,2671.46l148.463,107.553l107.535,-148.439l-148.463,-107.553l-107.535,148.439Z" style="fill:#eb7e6c;"/><path d="M1867.67,3008.63l148.464,107.552l107.534,-148.438l-148.463,-107.553l-107.535,148.439Z" style="fill:#eb7e6c;"/><path d="M2082.74,2712.34l148.463,107.552l107.535,-148.438l-148.463,-107.553l-107.535,148.439Z" style="fill:#eb7e6c;"/><path d="M2297.81,2415.57l148.463,107.552l107.535,-148.438l-148.464,-107.553l-107.534,148.439Z" style="fill:#eb7e6c;"/><path d="M1059.3,2875.4l148.463,107.553l107.535,-148.439l-148.463,-107.552l-107.535,148.438Z" style="fill:#eb7e6c;"/><path d="M1274.37,2578.52l148.464,107.553l107.534,-148.439l-148.463,-107.553l-107.535,148.439Z" style="fill:#eb7e6c;"/><path d="M1018.37,2619.41l148.464,107.552l107.534,-148.438l-148.463,-107.553l-107.535,148.439Z" style="fill:#eb7e6c;"/><path d="M762.376,2660.29l148.463,107.553l107.535,-148.439l-148.463,-107.553l-107.535,148.439Z" style="fill:#eb7e6c;"/><path d="M465.368,2445.13l148.463,107.552l107.535,-148.438l-148.463,-107.553l-107.535,148.439Z" style="fill:#eb7e6c;"/><path d="M977.446,2363.42l148.463,107.552l107.535,-148.438l-148.463,-107.553l-107.535,148.439Z" style="fill:#eb7e6c;"/><path d="M680.438,2148.25l148.463,107.553l107.535,-148.439l-148.463,-107.552l-107.535,148.438Z" style="fill:#eb7e6c;"/><path d="M721.448,2404.3l148.463,107.553l107.535,-148.438l-148.463,-107.553l-107.535,148.438Z" style="fill:#eb7e6c;"/><path d="M1356.23,3090.5l148.464,107.553l107.534,-148.439l-148.463,-107.552l-107.535,148.438Z" style="fill:#eb7e6c;"/><path d="M1315.3,2834.51l148.463,107.553l107.535,-148.439l-148.463,-107.552l-107.535,148.438Z" style="fill:#eb7e6c;"/></g><path d="M503.379,2463.02c33.118,38.998 100.957,87.748 117.899,97.778c328.908,194.714 640.362,381.793 924.338,639.353c30.998,28.115 85.248,95.595 140.424,143.833c40.71,35.591 82.738,60 117.065,57.419c17.4,-1.308 35.638,-6.797 51.287,-14.381c51.648,-25.029 94.715,-75.347 131.607,-134.763c52.716,-84.903 93.185,-188.359 131.962,-255.547c53.48,-92.663 112.591,-180.649 185.654,-259.147c46.635,-50.103 102.023,-98.475 141.135,-147.338c31.756,-39.674 52.806,-80.013 53.209,-121.397c0.408,-41.926 -19.755,-85.894 -74.361,-131.693c-13.458,-11.287 -29.104,-30.962 -45.656,-46.902c-13.196,-12.708 -27.098,-23.088 -40.707,-27.624c-3.112,-1.038 -12.534,-3.016 -19.686,6.84c-4.089,5.635 -17.654,36.261 -19.289,39.639c-34.292,70.872 -83.763,163.092 -143.274,217.745c-45.876,42.131 -111.881,63.176 -183.233,74.1c-111.524,17.073 -236.105,9.033 -323.3,10.861c-116.67,2.445 -462.633,-2.049 -692.643,-45.314c-57.969,-10.904 -108.453,-24.212 -145.641,-40.662c-22.528,-9.966 -39.946,-20.788 -50.208,-33.35c-41.443,-50.726 -65.486,-121.606 -86.619,-183.596c-1.557,-4.565 -4.454,-16.062 -9.191,-22.277c-5.507,-7.225 -12.813,-10.518 -21.155,-9.517c-11.584,1.39 -26.834,8.48 -42.963,20.096c-32.804,23.623 -71.11,65.906 -90.443,100.54c-8.118,14.543 -12.928,28.048 -13.795,38.751c-0.888,10.965 1.938,19.904 7.584,26.553Zm1835.67,-162.319c8.023,5.568 15.905,13.412 23.675,21.471c14.202,14.732 27.676,30.627 39.454,40.505c44.367,37.212 62.781,71.764 62.449,105.829c-0.336,34.607 -19.344,67.713 -45.9,100.891c-38.637,48.269 -93.444,95.963 -139.511,145.458c-74.787,80.349 -135.383,170.346 -190.125,265.195c-38.632,66.937 -78.891,170.039 -131.411,254.626c-33.267,53.579 -71.251,99.779 -117.825,122.35c-11.986,5.809 -25.922,10.135 -39.25,11.137c-12.698,0.955 -26.52,-3.909 -41.075,-11.793c-16.778,-9.088 -34.192,-22.305 -51.551,-37.481c-55.009,-48.092 -109.064,-115.399 -139.969,-143.429c-285.675,-259.1 -598.875,-447.467 -929.751,-643.346c-15.666,-9.274 -78.284,-54.155 -109.133,-90.276c-0.022,-0.676 -0.083,-3.536 0.288,-5.423c1.288,-6.558 4.672,-14.194 9.282,-22.452c14.833,-26.573 42.229,-58.103 68.226,-79.901c11.848,-9.935 23.072,-18.09 32.46,-21.824c0.931,2.893 1.973,6.112 2.409,7.392c22.361,65.592 48.506,140.256 92.356,193.93c12.897,15.786 34.225,30.22 62.538,42.744c39.072,17.284 92.055,31.481 152.963,42.937c232.291,43.694 581.677,48.35 699.503,45.881c88.369,-1.852 214.62,6.066 327.646,-11.238c78.348,-11.994 150.362,-36.237 200.736,-82.498c62.36,-57.271 114.798,-153.512 150.733,-227.777c0.839,-1.736 6.396,-13.562 10.783,-22.908Z" style="fill:#7e4021;"/><path d="M2367.39,2515.57c-3.992,1.751 -10.086,4.494 -12.448,5.88c-10.646,6.25 -21.154,12.7 -31.462,19.493c-21.115,13.914 -42.202,27.83 -63.9,40.828c-77.56,46.463 -151.479,83.788 -240.845,101.141c-9.03,1.753 -14.937,10.508 -13.184,19.538c1.753,9.03 10.508,14.937 19.538,13.184c93.312,-18.119 170.636,-56.753 251.621,-105.268c22.107,-13.243 43.598,-27.413 65.111,-41.59c9.827,-6.475 19.846,-12.621 29.995,-18.579c2.991,-1.755 10.28,-4.512 13.703,-6.191c3.144,-1.542 5.182,-3.18 6.1,-4.066c6.346,-6.127 5.716,-12.638 4.635,-16.61c-0.729,-2.676 -4.079,-13.703 -18.854,-12.341c-3.912,0.361 -7.385,2.049 -10.01,4.581Zm12.037,28.672l-0.513,0.008l0.306,0.004l0.207,-0.012Zm-2.783,-0.15l0.443,0.061c0.277,0.023 0.554,0.047 0.83,0.07l0.637,0.022c-0.68,-0.003 -1.315,-0.06 -1.91,-0.153Z" style="fill:#7e4021;"/><path d="M1804.55,2721.05c-8.342,-2.763 -27.569,-3.485 -51.499,-2.278c-48.847,2.462 -119.973,11.178 -144.149,10.785c-67.291,-1.092 -133.954,-13.049 -200.921,-18.769c-83.852,-7.162 -168.216,-7.005 -251.667,-18.424c-9.114,-1.248 -17.526,5.139 -18.773,14.253c-1.247,9.113 5.14,17.525 14.253,18.772c84.011,11.496 168.937,11.402 253.35,18.611c67.73,5.785 135.16,17.782 203.217,18.886c24.547,0.399 96.773,-8.323 146.369,-10.823c18.264,-0.921 32.972,-1.479 39.34,0.63c8.732,2.892 18.169,-1.849 21.061,-10.581c2.893,-8.732 -1.849,-18.17 -10.581,-21.062Z" style="fill:#7e4021;"/><path d="M1580.1,3008.22c-5.987,-1.124 -12.376,1.091 -16.324,6.258c-5.585,7.31 -4.184,17.778 3.125,23.362c2.595,1.983 6.186,3.685 11.075,3.964c4.662,0.265 13.771,-1.722 25.39,-6.764c42.446,-18.42 135.237,-76.747 147.49,-87.586c6.89,-6.095 7.535,-16.637 1.44,-23.527c-6.094,-6.889 -16.636,-7.535 -23.526,-1.44c-12.726,11.258 -119.108,77.814 -148.67,85.733Z" style="fill:#7e4021;"/><path d="M1859.96,2901.37c-0.372,0.615 -2.182,3.568 -3.779,5.513c-3.786,4.611 -9.027,9.772 -15.125,15.244c-31.058,27.866 -83.195,62.398 -96.491,70.671c-7.81,4.859 -10.206,15.145 -5.346,22.956c4.86,7.81 15.146,10.205 22.956,5.346c13.942,-8.676 68.574,-44.942 101.142,-74.163c10.973,-9.846 19.554,-19.129 24.159,-26.508c3.265,-5.233 4.932,-10.067 5.435,-14.095c1.139,-9.128 -5.347,-17.463 -14.474,-18.603c-8.847,-1.104 -16.949,4.954 -18.477,13.639Z" style="fill:#7e4021;"/><path d="M503.716,2458.93c23.087,26.841 76.25,67.561 103.782,89.487c3.025,2.409 6.076,4.785 9.161,7.116c107.287,81.051 238.969,120.318 370.449,139.493c9.102,1.327 17.57,-4.985 18.897,-14.088c1.328,-9.102 -4.985,-17.569 -14.087,-18.897c-125.982,-18.372 -252.365,-55.443 -355.166,-133.105c-2.859,-2.16 -5.686,-4.362 -8.488,-6.594c-26.278,-20.926 -77.242,-59.531 -99.277,-85.149c-5.998,-6.974 -16.53,-7.766 -23.504,-1.767c-6.973,5.998 -7.765,16.53 -1.767,23.504Z" style="fill:#7e4021;"/><path d="M833.04,4105.37c81.724,-110.599 -37.855,-270.276 -31.374,-265.986c25.528,16.896 32.492,54.478 73.13,92.014c44.294,40.914 108.145,89.421 179.762,53.034c62.295,-31.651 80.933,-110.459 65.52,-150.806c-35.071,-91.807 -146.692,-132.756 -233.473,-150.631c-1.932,-0.398 -8.955,-0.698 -9.747,-3.22c-1.618,-5.149 20.775,-1.768 72.79,0.945c45.748,2.385 181.237,-44.151 149.213,-152.958c-39.693,-134.861 -148.562,-63.105 -211.183,-30.136c-28.348,14.925 -85.678,64.128 -83.595,62.22c77.278,-70.74 113.035,-171.15 41.322,-243.843c-61.856,-62.701 -145.316,-40.828 -170.194,31.231c-16.984,49.195 -10.818,70.465 -2.431,121.475c0.473,2.878 6.257,23.223 1.432,24.619c-0.349,0.1 -92.57,-173.727 -219.11,-136.576c-98.313,28.863 -68.326,149.259 -28.929,180.03c17.463,13.64 35.841,26.368 54.941,37.617c8.823,5.197 23.262,12.212 26.799,15.019c-23.384,-4.036 -222.847,-62.947 -260.419,54.9c-25.337,79.469 68.596,152.378 126.763,151.005c36.897,-0.871 72.185,-10.549 107.726,-19.524c0.525,-0.133 9.016,-2.493 8.895,-0.996c-1.794,22.045 -235.158,72.73 -173.881,221.64c42.59,103.5 182.218,86.657 233.497,-14.215c12.844,-25.266 21.63,-52.398 32.588,-78.54c0.667,-1.592 11.971,-20.495 11.861,-19.774c-17.173,112.232 23.476,213.444 76.363,245.333c49.322,29.74 129.274,20.051 161.734,-23.877Z" style="fill:#fff;"/><path d="M649.47,3428.02c-16.873,-20.767 -38.665,-43.441 -64.292,-61.057c-37.926,-26.069 -83.918,-41.134 -134.771,-26.204c-69.157,20.304 -84.839,78.849 -75.802,130.541c5.937,33.964 23.1,64.395 41.309,78.617c3.201,2.5 6.432,4.97 9.692,7.405c-25.046,-2.871 -52.687,-4.086 -78.925,-0.951c-51.771,6.185 -97.854,28.897 -115.066,82.884c-14.64,45.918 4.196,90.234 36.076,122.58c31.06,31.512 74.215,50.922 106.959,50.149c5.952,-0.14 11.864,-0.498 17.748,-1.039c-65.117,37.825 -129.465,97.912 -90.814,191.84c48.081,116.842 205.877,100.871 263.767,-13.006c3.729,-7.334 7.124,-14.823 10.325,-22.399c3.357,37.821 12.661,72.355 25.81,101.007c15.933,34.721 37.677,60.94 61.214,75.132c33.259,20.054 78.873,24.474 117.952,13.883c26.96,-7.306 50.692,-21.693 65.792,-42.128c32.369,-43.805 36.514,-94.513 28.28,-141.377c-1.502,-8.552 -3.42,-16.967 -5.641,-25.165c48.507,43.618 117.17,89.098 193.024,50.558c42.084,-21.382 66.711,-61.7 75.74,-100.489c6.193,-26.609 4.943,-52.425 -2.2,-71.124c-25.164,-65.872 -87.078,-107.79 -152.937,-133.822c24.801,-5.267 54.829,-16.44 80.273,-34.269c41.052,-28.765 70.337,-73.775 51.866,-136.531c-13.746,-46.704 -35.714,-71.196 -60.236,-82.617c-23.321,-10.861 -49.808,-10.102 -76.521,-2.771c-33.621,9.228 -67.692,28.963 -94.378,43.191c27.382,-60.223 24.526,-124.893 -26.444,-176.56c-35.627,-36.115 -77.72,-47.175 -114.244,-39.529c-37.07,7.761 -69.027,34.901 -83.569,77.025c-12.493,36.186 -13.5,58.208 -9.987,86.226Zm170.166,667.445c-13.748,18.604 -37.842,29.406 -63.432,32.96c-26.418,3.669 -54.727,-0.449 -76.292,-13.452c-18.774,-11.32 -35.421,-32.794 -48.131,-60.489c-20.333,-44.308 -30.116,-104.312 -20.363,-168.05c0.562,-3.676 -0.144,-6.318 -0.734,-8.013c-2.839,-8.161 -8.589,-11.455 -16.329,-11.185c-0.868,0.031 -8.052,-0.243 -13.426,7.559c-2.023,2.937 -12.526,20.799 -13.218,22.449c-10.801,25.766 -19.414,52.528 -32.074,77.43c-44.677,87.885 -166.12,105.6 -203.227,15.426c-22.282,-54.147 1.093,-93.105 35.054,-121.713c25.064,-21.113 55.724,-36.942 80.783,-49.15c24.454,-11.914 44.016,-21.196 51.267,-27.935c5.603,-5.207 7.613,-10.688 7.976,-15.149c0.569,-6.995 -2.104,-12.636 -8.813,-16.31c-1.991,-1.09 -5.551,-2.425 -10.27,-2.167c-3.498,0.192 -9.965,1.826 -10.505,1.962c-34.334,8.671 -68.394,18.181 -104.038,19.022c-25.425,0.6 -58.317,-15.757 -82.433,-40.224c-23.295,-23.636 -38.756,-55.502 -28.058,-89.056c12.848,-40.297 48.62,-55.294 87.262,-59.911c65.774,-7.858 140.833,14.023 154.443,16.372c7.505,1.295 14.934,-2.662 18.046,-9.613c3.113,-6.952 1.117,-15.129 -4.849,-19.864c-3.801,-3.018 -19.219,-10.741 -28.703,-16.327c-18.475,-10.881 -36.248,-23.198 -53.14,-36.391c-13.311,-10.396 -24.652,-33.258 -28.992,-58.086c-6.38,-36.492 3.536,-78.484 52.357,-92.817c40.256,-11.819 76.476,1.053 106.499,21.69c48.409,33.276 81.44,86.727 90.749,102.544c1.864,3.167 2.95,5.071 3.174,5.414c7.013,10.738 17.501,7.271 18.623,6.946c6.137,-1.775 12.021,-6.6 13.571,-16.165c1.21,-7.468 -2.717,-24.309 -3.187,-27.168c-7.824,-47.587 -14.105,-67.439 1.739,-113.332c10.335,-29.936 32.547,-49.761 58.891,-55.277c26.891,-5.63 57.454,3.723 83.684,30.312c64.83,65.716 29.15,155.894 -40.71,219.845c-5.036,4.61 1.471,42.231 23.019,24.199c7.748,-6.485 54.955,-46.407 79.594,-59.379c24.258,-12.771 55.615,-31.698 87.051,-41.279c20.206,-6.158 40.416,-8.648 58.046,-0.438c17.968,8.368 32.26,27.591 42.332,61.812c13.554,46.052 -8.893,78.712 -39.017,99.821c-32.063,22.466 -72.731,32.861 -93.339,31.787c-44.537,-2.323 -68.811,-4.387 -75.841,-2.585c-6.819,1.748 -10.232,5.568 -12.109,8.76c-2.447,4.161 -3.36,8.945 -1.608,14.521c1.253,3.986 3.882,7.771 8.358,10.5c3.72,2.267 11.39,3.525 13.926,4.047c41.874,8.625 89.772,22.728 131.401,45.839c39.666,22.021 73.741,52.205 89.865,94.415c5.188,13.58 5.372,32.347 0.873,51.673c-7.009,30.112 -25.703,61.728 -58.373,78.327c-64.431,32.736 -121.053,-13.609 -160.904,-50.418c-23.048,-21.289 -34.486,-42.708 -45.282,-59.795c-9.004,-14.252 -17.882,-25.882 -29.957,-33.874c-4.695,-3.108 -8.644,-2.98 -10.829,-2.792c-5.408,0.466 -9.331,2.985 -12.145,6.902c-1.694,2.358 -3.456,5.84 -3.108,10.942c0.069,1.014 0.695,5.029 4.014,10.692c8.007,13.662 42.329,67.143 53.097,128.435c6.734,38.33 4.215,79.973 -22.258,115.801Z" style="fill:#7e4021;"/><path d="M830.034,3824.49c61.124,-71.679 34.928,-172.162 8.762,-213.04c-16.823,-26.284 -41.855,-46.497 -68.049,-63.658c-125.491,-82.214 -293.49,4.927 -286.855,160.148c9.961,233.036 262.926,214.138 346.142,116.55Z" style="fill:#facad0;"/><path d="M842.716,3835.3c66.811,-78.349 38.717,-188.158 10.118,-232.84c-18.081,-28.249 -44.801,-50.17 -72.953,-68.614c-136.82,-89.635 -319.874,5.568 -312.641,174.801c3.243,75.86 30.889,126.824 69.502,158.553c45.104,37.062 105.949,48.003 163.548,39.911c57.258,-8.045 110.97,-34.923 142.426,-71.811Zm-25.364,-21.629c-26.796,31.424 -72.923,53.578 -121.7,60.431c-48.436,6.805 -99.819,-1.49 -137.747,-32.656c-32.557,-26.753 -54.628,-70.26 -57.362,-134.223c-6.036,-141.209 146.907,-220.287 261.071,-145.494c24.235,15.877 47.58,34.382 63.145,58.701c23.731,37.075 48.03,128.23 -7.407,193.241Z" style="fill:#7e4021;"/><path d="M422.439,3350.7c47.594,47.26 117.403,76.118 169.21,13.922c30.114,-36.153 39.002,-69.976 34.315,-99.427c-4.412,-27.721 -20.988,-51.922 -44.837,-70.931c-22.268,-17.75 -50.921,-30.959 -81.209,-38.358c66.751,-28.642 130.138,-91.76 81.397,-166.474c-25.708,-39.408 -55.427,-57.842 -84.954,-62.015c-27.794,-3.929 -55.797,4.804 -80.976,22.015c-23.508,16.069 -44.554,39.576 -60.526,66.353c-7.763,-72.22 -49.47,-151.356 -135.207,-126.721c-45.222,12.994 -71.575,35.984 -84.241,62.982c-11.922,25.412 -11.803,54.745 -2.751,83.869c8.453,27.193 24.738,54.217 45.639,77.352c-71.313,-13.801 -159.21,2.811 -160.856,92.003c-0.868,47.043 13.364,78.988 35.448,99.028c20.787,18.863 48.861,27.368 79.359,27.273c28.476,-0.088 59.092,-7.714 87.347,-20.894c-34.146,64.109 -44.095,153.008 40.676,180.789c44.712,14.653 79.428,10.436 105.072,-4.785c24.139,-14.327 40.518,-38.662 49.389,-67.841c6.365,-20.938 8.847,-44.392 7.705,-68.14Z" style="fill:#eb7e6c;"/><path d="M438.144,3385.96c51.694,37.509 116.393,49.252 166.311,-10.677c34.052,-40.881 43.268,-79.411 37.968,-112.713c-5.045,-31.701 -23.635,-59.607 -50.908,-81.345c-14.361,-11.447 -31.165,-21.18 -49.339,-28.865c59.002,-37.727 99.526,-100.873 53.098,-172.04c-29.07,-44.561 -63.192,-64.692 -96.581,-69.412c-31.784,-4.493 -63.92,5.077 -92.713,24.758c-15.161,10.364 -29.402,23.567 -42.088,38.68c-18.724,-67.483 -67.175,-124.772 -148.843,-101.306c-51.136,14.692 -80.404,41.393 -94.727,71.921c-13.634,29.061 -13.929,62.59 -3.577,95.895c5.451,17.537 13.886,35.029 24.605,51.596c-70.006,-1.932 -139.003,27.546 -140.571,112.504c-0.981,53.196 15.94,89.018 40.912,111.679c23.772,21.571 55.734,31.706 90.611,31.597c18.365,-0.057 37.563,-2.98 56.548,-8.358c-22.417,66.348 -14.515,140.961 66.232,167.423c50.559,16.57 89.772,10.921 118.77,-6.29c27.604,-16.384 46.683,-43.957 56.828,-77.326c3.629,-11.936 6.109,-24.626 7.464,-37.72l0,-0.001Zm-3.961,-47.092c-4.88,-4.846 -12.234,-6.197 -18.517,-3.403c-6.283,2.795 -10.205,9.161 -9.874,16.029c1.047,21.777 -1.168,43.292 -7.004,62.492c-7.598,24.991 -21.275,46.086 -41.949,58.357c-22.293,13.231 -52.508,16.017 -91.376,3.279c-73.273,-24.013 -60.67,-101.702 -31.156,-157.116c3.371,-6.328 2.316,-14.103 -2.617,-19.305c-4.934,-5.202 -12.642,-6.665 -19.139,-3.634c-26,12.129 -54.149,19.25 -80.353,19.332c-26.121,0.081 -50.303,-6.794 -68.107,-22.949c-19.198,-17.421 -30.739,-45.484 -29.984,-86.379c1.422,-77.095 79.384,-87.876 141.025,-75.947c7.039,1.362 14.161,-1.93 17.683,-8.175c3.523,-6.244 2.657,-14.042 -2.149,-19.361c-19.234,-21.289 -34.312,-46.102 -42.09,-71.126c-7.753,-24.943 -8.287,-50.079 1.924,-71.844c11.01,-23.469 34.443,-42.746 73.754,-54.041c74.11,-21.294 107.323,50.058 114.034,112.483c0.766,7.128 6.005,12.968 13.009,14.5c7.004,1.532 14.203,-1.586 17.876,-7.744c14.697,-24.64 33.984,-46.344 55.618,-61.131c21.564,-14.74 45.433,-22.636 69.237,-19.272c25.668,3.629 50.98,20.362 73.328,54.619c42.131,64.581 -16.312,117.295 -74.01,142.052c-6.588,2.827 -10.631,9.551 -10.037,16.696c0.593,7.145 5.69,13.11 12.654,14.811c27.871,6.808 54.284,18.866 74.776,35.2c20.425,16.281 34.987,36.775 38.765,60.518c4.075,25.601 -4.483,54.712 -30.661,86.14c-44.381,53.281 -103.889,25.404 -144.66,-15.081Z" style="fill:#7e4021;"/><path d="M372.903,3348.64c121.922,-32.479 121.951,-126.694 115.767,-174.191c-17.57,-134.945 -173.185,-169.396 -264.711,-93.052c-127.7,106.517 -25.634,313.749 148.944,267.243Z" style="fill:#fee4a8;"/><path d="M377.193,3364.74c53.836,-14.341 85.838,-40.053 104.788,-68.541c28.378,-42.66 27.306,-92.5 23.216,-123.907c-19.398,-148.986 -190.865,-187.986 -291.914,-103.699c-84.85,70.775 -78.028,181.706 -17.293,247.999c40.273,43.957 104.289,68.638 181.203,48.148l0,0Zm-8.58,-32.21c-62.748,16.716 -115.19,-2.595 -148.045,-38.455c-48.954,-53.434 -54.324,-142.838 14.066,-199.884c82.004,-68.401 221.766,-38.501 237.509,82.405c3.332,25.59 5.207,66.382 -17.915,101.141c-15.384,23.126 -41.912,43.151 -85.615,54.793l-0,0Z" style="fill:#7e4021;"/><path d="M2663.29,1563.19c0.235,67.072 29.193,136.84 109.806,129.494c46.857,-4.27 77.058,-21.902 94.569,-46.041c16.482,-22.722 21.874,-51.555 18.452,-81.861c-3.196,-28.296 -14.116,-57.898 -30.301,-84.546c67.453,26.947 156.906,27.137 175.271,-60.159c9.687,-46.043 1.708,-80.092 -16.22,-103.923c-16.875,-22.431 -42.852,-36.057 -72.825,-41.691c-27.986,-5.261 -59.49,-3.52 -89.717,4.12c45.577,-56.557 72.044,-142.005 -6.002,-185.211c-41.164,-22.789 -76.055,-25.167 -104.101,-15.033c-26.4,9.539 -47.057,30.365 -61.25,57.36c-13.252,25.205 -20.845,55.829 -22.424,86.967c-40.668,-60.184 -114.567,-110.591 -178.799,-48.686c-33.878,32.651 -46.403,65.303 -44.958,95.089c1.361,28.037 15.197,53.902 36.83,75.4c20.198,20.073 47.239,36.33 76.539,46.989c-69.477,21.188 -139.373,77.013 -99.075,156.599c21.255,41.978 48.785,63.544 77.681,70.915c27.199,6.938 55.988,1.312 82.893,-13.049c19.307,-10.304 37.646,-25.133 53.631,-42.733Z" style="fill:#fff;"/><path d="M2649.46,1599.23c10.03,63.075 47.475,117.128 125.15,110.049c52.985,-4.829 86.747,-25.557 106.548,-52.853c18.848,-25.983 25.435,-58.86 21.522,-93.517c-2.061,-18.249 -7.061,-37.014 -14.478,-55.299c68.398,15.044 141.703,-0.952 159.197,-84.104c10.954,-52.065 1.061,-90.428 -19.212,-117.375c-19.297,-25.651 -48.788,-41.608 -83.064,-48.051c-18.049,-3.393 -37.455,-4.127 -57.112,-2.41c34.478,-60.958 40.728,-135.727 -33.613,-176.883c-46.548,-25.769 -86.124,-27.585 -117.838,-16.126c-30.19,10.909 -54.108,34.409 -70.338,65.279c-8.546,16.255 -14.95,34.589 -19.086,53.882c-48.136,-50.867 -117.768,-78.812 -178.95,-19.846c-38.309,36.921 -51.674,74.217 -50.04,107.898c1.556,32.062 16.99,61.829 41.729,86.414c13.026,12.946 28.668,24.454 45.895,34.076c-62.766,31.064 -109.938,89.411 -71.552,165.219c24.034,47.467 55.756,71.201 88.43,79.535c31.104,7.934 64.093,1.928 94.861,-14.494c11.007,-5.875 21.734,-13.094 31.951,-21.394l0,-0Zm30.499,-36.101c-0.025,-6.877 -4.269,-13.032 -10.688,-15.499c-6.418,-2.467 -13.693,-0.739 -18.316,4.351c-14.659,16.139 -31.437,29.787 -49.141,39.236c-23.044,12.299 -47.632,17.544 -70.927,11.602c-25.119,-6.407 -48.454,-25.803 -66.931,-62.293c-34.832,-68.793 29.013,-114.815 89.067,-133.129c6.858,-2.091 11.61,-8.334 11.8,-15.501c0.189,-7.167 -4.226,-13.652 -10.963,-16.103c-26.962,-9.809 -51.902,-24.677 -70.489,-43.148c-18.527,-18.413 -30.765,-40.374 -31.931,-64.387c-1.256,-25.893 10.426,-53.897 39.877,-82.281c55.52,-53.508 118.271,-6.004 153.423,46.017c4.014,5.941 11.377,8.649 18.284,6.724c6.906,-1.925 11.808,-8.05 12.171,-15.211c1.453,-28.653 8.337,-56.861 20.531,-80.055c12.156,-23.12 29.551,-41.271 52.161,-49.441c24.381,-8.81 54.582,-5.871 90.366,13.939c67.461,37.346 40.493,111.286 1.096,160.172c-4.498,5.582 -4.923,13.416 -1.054,19.452c3.869,6.036 11.165,8.921 18.116,7.164c27.816,-7.03 56.801,-8.739 82.554,-3.898c25.671,4.825 48.132,16.119 62.585,35.331c15.585,20.716 21.651,50.446 13.23,90.472c-15.875,75.456 -94.475,71.405 -152.779,48.113c-6.658,-2.66 -14.271,-0.764 -18.903,4.708c-4.633,5.472 -5.247,13.293 -1.525,19.421c14.893,24.522 25.044,51.725 27.984,77.764c2.931,25.956 -1.265,50.744 -15.381,70.204c-15.222,20.984 -41.858,35.518 -82.591,39.23c-69.058,6.293 -91.425,-55.497 -91.626,-112.954Z" style="fill:#7e4021;"/><path d="M2629.72,1526.71c109.177,63.245 175.819,-3.354 205.031,-41.312c82.997,-107.845 -2.68,-242.242 -121.381,-252.977c-165.617,-14.979 -239.98,203.729 -83.65,294.289Z" style="fill:#ffce7b;"/><path d="M2621.36,1541.13c48.209,27.926 89.019,32.374 122.562,25.63c50.232,-10.099 84.716,-46.1 104.032,-71.199c91.633,-119.067 -2.035,-267.889 -133.088,-279.741c-110.043,-9.953 -183.66,73.311 -187.589,163.134c-2.606,59.559 25.208,122.277 94.083,162.176Zm16.709,-28.844c-56.189,-32.55 -79.617,-83.286 -77.491,-131.875c3.167,-72.399 62.588,-139.415 151.285,-131.393c106.353,9.618 184.037,129.588 109.675,226.213c-15.739,20.451 -43.257,50.621 -84.186,58.849c-27.23,5.475 -60.148,0.877 -99.283,-21.794Z" style="fill:#7e4021;"/></g></svg>