<?xml version="1.0" encoding="UTF-8" standalone="no"?><!DOCTYPE svg PUBLIC "-//W3C//DTD SVG 1.1//EN" "http://www.w3.org/Graphics/SVG/1.1/DTD/svg11.dtd"><svg width="100%" height="100%" viewBox="0 0 1104 5244" version="1.1" xmlns="http://www.w3.org/2000/svg" xmlns:xlink="http://www.w3.org/1999/xlink" xml:space="preserve" xmlns:serif="http://www.serif.com/" style="fill-rule:evenodd;clip-rule:evenodd;stroke-linejoin:round;stroke-miterlimit:2;"><g id="Baguette-02"><path d="M376.627,39.931c-166.214,159.78 -248.159,439.849 -294.174,656.774c-93.751,441.973 -39.776,935.819 -60.621,1386.39c-28.89,624.468 82.304,1212.08 180.107,1824.79c53.061,332.41 145.79,657.42 251.272,976.679c33.428,101.177 79.299,206.001 144.085,291.686c87.536,115.773 151.485,8.713 200.022,-82.293c302.111,-566.458 265.53,-1699.82 286.707,-2333.19c14.351,-429.224 -21.997,-858.133 -139.986,-1271.88c-57.704,-202.348 -101.032,-411.23 -134.714,-618.807c-46.009,-283.544 -269.309,-987.21 -432.698,-830.146Z" style="fill:#f7bf9a;"/><path d="M365.077,27.915c-168.467,161.946 -252.29,445.467 -298.928,665.332c-93.934,442.833 -40.081,937.63 -60.966,1389.07c-28.944,625.626 82.313,1214.35 180.298,1828.19c53.201,333.292 146.142,659.175 251.904,979.281c33.988,102.87 80.746,209.389 146.617,296.509c30.428,40.243 59.362,55.834 85.126,57.076c25.122,1.211 48.676,-10.985 70.003,-32.118c27.467,-27.217 51.706,-69.735 72.893,-109.46c303.071,-568.258 267.414,-1705.09 288.658,-2340.48c14.409,-430.957 -22.15,-861.59 -140.615,-1277.01c-57.526,-201.726 -100.712,-409.968 -134.291,-616.907c-32.509,-200.35 -153.096,-608.361 -278.86,-780.839c-61.21,-83.945 -125.65,-112.667 -181.839,-58.653Zm23.101,24.031c11.42,-10.978 23.015,-16.944 35.054,-17.818c12.24,-0.888 24.607,3.388 37.203,11.297c19.808,12.436 39.659,33.507 59.547,60.782c123.417,169.259 240.989,569.929 272.891,766.539c33.786,208.216 77.257,417.738 135.139,620.709c117.512,412.075 153.649,839.26 139.356,1266.75c-21.11,631.367 16.395,1761.25 -284.756,2325.91c-19.584,36.72 -41.553,76.31 -66.943,101.468c-13.916,13.789 -28.544,23.291 -44.936,22.501c-18.716,-0.902 -38.039,-14.651 -60.142,-43.885c-63.702,-84.251 -108.686,-187.379 -141.555,-286.863c-105.202,-318.411 -197.719,-642.55 -250.639,-974.077c-97.622,-611.573 -208.753,-1198.09 -179.916,-1821.4c20.804,-449.691 -33.293,-942.586 60.276,-1383.7c45.391,-213.986 125.458,-490.603 289.421,-648.218Z" style="fill:#7e4021;"/><path d="M277.924,1815.8c-0.501,-2.205 -1.465,-4.34 -2.908,-6.263c-9.476,-12.631 -21.075,-5.74 -22.752,-4.687c-2.998,1.881 -9.559,6.867 -7.517,17.436c0.345,1.787 5.525,13.025 8.17,16.998c4.72,7.089 10.038,13.764 15.538,20.258c12.999,15.35 27.523,28.967 43.458,41.233c48.138,37.054 102.791,66.854 156.883,94.145c79.748,40.236 153.905,69.505 217.961,105.338c92.569,51.783 163.338,117.688 197.582,254.663c2.231,8.924 11.287,14.357 20.211,12.126c8.924,-2.231 14.358,-11.287 12.127,-20.211c-37.053,-148.213 -113.483,-219.637 -213.647,-275.669c-64.432,-36.044 -139.002,-65.534 -219.219,-106.007c-52.236,-26.354 -105.08,-55.017 -151.566,-90.799c-14.057,-10.821 -26.885,-22.82 -38.352,-36.361c-4.673,-5.517 -9.22,-11.166 -13.229,-17.188c-0.631,-0.949 -1.85,-3.266 -2.74,-5.012Z" style="fill:#7e4021;"/><path d="M292.827,1121.18l-0.919,-4.175c-0.461,-3.742 -2.188,-7.347 -5.154,-10.119c-2.942,-2.749 -5.92,-3.757 -8.303,-4.205c-2.328,-0.438 -21.775,0.673 -19.63,18.519c0.188,1.56 2.26,10.323 2.532,11.034c8.651,22.641 27.453,43.068 43.092,60.994c25.999,29.799 55.938,55.579 87.071,79.846c107.842,84.06 217.759,141.364 286.343,265.741c4.442,8.055 14.588,10.988 22.643,6.547c8.055,-4.442 10.988,-14.588 6.547,-22.643c-70.922,-128.615 -183.524,-189.011 -295.041,-275.935c-29.454,-22.96 -57.848,-47.277 -82.445,-75.47c-13.005,-14.906 -29.281,-31.373 -36.736,-50.134Zm-17.077,14.539l-0.456,0.004l0.122,0.004l0.334,-0.008Zm10.217,-3.794c-2.882,2.382 -6.396,3.651 -9.955,3.788c3.583,-0.12 6.955,-1.262 9.955,-3.788Zm-21.318,-0.105c3.526,3.013 7.071,3.784 9.935,3.884c-3.542,-0.162 -7.047,-1.451 -9.935,-3.884Z" style="fill:#7e4021;"/><path d="M307.196,2528.22c0.474,-8.038 -4.954,-15.462 -13.065,-17.243c-8.985,-1.972 -17.881,3.721 -19.853,12.705c-1.391,6.336 -0.432,13.485 3.745,20.923c3.557,6.332 10.01,13.437 18.524,20.478c26.599,21.994 75.37,45.888 85.441,51.534c222.358,124.655 388.081,194.961 405.334,476.767c0.562,9.181 8.473,16.179 17.654,15.617c9.182,-0.562 16.179,-8.473 15.617,-17.654c-18.125,-296.04 -188.715,-372.854 -422.305,-503.806c-9.467,-5.308 -55.495,-27.471 -80.5,-48.147c-4.367,-3.611 -9.243,-9.502 -10.592,-11.174Z" style="fill:#7e4021;"/><path d="M372.35,3387.58c-7.086,-5.317 -17.186,-4.153 -22.866,2.761c-5.838,7.108 -4.808,17.619 2.3,23.458c4.759,3.909 19.745,9.194 40.965,15.312c40.095,11.559 106.406,30.468 150.407,71.507c53.668,50.055 89.911,111.522 127.493,172.49c39.29,63.741 79.987,126.945 140.961,177.729c7.069,5.887 17.586,4.927 23.473,-2.141c5.887,-7.068 4.928,-17.586 -2.14,-23.473c-58.088,-48.379 -96.488,-108.883 -133.919,-169.606c-39.139,-63.495 -77.24,-127.246 -133.132,-179.375c-48.092,-44.855 -120.086,-66.526 -163.909,-79.16c-13.72,-3.955 -28.485,-9.101 -29.633,-9.502Z" style="fill:#7e4021;"/><path d="M445.671,4134.97c3.93,1.331 9.688,3.348 11.968,4.441c52.459,25.154 92.618,78.855 124.346,125.679c86.366,127.459 116.155,257.341 235.67,365.838c6.811,6.183 17.36,5.673 23.543,-1.137c6.183,-6.811 5.673,-17.36 -1.137,-23.543c-117.363,-106.543 -145.67,-234.693 -230.481,-359.857c-34.842,-51.419 -79.922,-109.415 -137.529,-137.037c-4.754,-2.279 -15.917,-6.416 -21.555,-7.881c-3.714,-0.964 -6.582,-1.046 -7.985,-0.944c-8.689,0.633 -12.417,5.917 -14.17,9.622c-1.233,2.607 -5.778,13.424 6.714,21.963c3.238,2.214 6.983,3.128 10.616,2.856Zm9.853,-29.075l0.297,0.264l-0.068,-0.068l-0.229,-0.196Zm-0.8,-0.667l0.323,0.258l-0.175,-0.15l-0.148,-0.108Z" style="fill:#7e4021;"/><path d="M320.559,521.144c0.92,3.223 2.03,7.058 2.915,9.973c2.004,6.605 4.565,12.561 7.152,16.126c29.377,40.503 71.252,66.738 113.056,92.824c38.01,23.719 76.006,47.247 101.486,84.717c5.172,7.606 15.547,9.582 23.154,4.41c7.606,-5.173 9.582,-15.548 4.41,-23.154c-28.125,-41.361 -69.447,-68.07 -111.404,-94.252c-38.163,-23.814 -76.901,-47.14 -103.719,-84.116c-2.784,-3.838 -4.149,-13.339 -5.919,-19.37c-2.048,-6.979 -5.024,-11.862 -6.909,-13.768c-5.789,-5.852 -12.108,-6.324 -17.868,-4.461c-3.131,1.013 -8.661,3.471 -11.839,12.06c-2.598,7.019 -0.161,14.681 5.485,19.011Z" style="fill:#7e4021;"/></g></svg>