<?xml version="1.0" encoding="UTF-8" standalone="no"?><!DOCTYPE svg PUBLIC "-//W3C//DTD SVG 1.1//EN" "http://www.w3.org/Graphics/SVG/1.1/DTD/svg11.dtd"><svg width="100%" height="100%" viewBox="0 0 3612 3225" version="1.1" xmlns="http://www.w3.org/2000/svg" xmlns:xlink="http://www.w3.org/1999/xlink" xml:space="preserve" xmlns:serif="http://www.serif.com/" style="fill-rule:evenodd;clip-rule:evenodd;stroke-linejoin:round;stroke-miterlimit:2;"><g id="Brioche"><path d="M1245.64,241.487c-249.376,255.686 -1185.07,1088.96 -1227.87,1597.17c-23.037,273.567 763.247,622.235 920.109,724.841c528.164,345.48 491.229,421.461 754.302,601.791c486.363,333.389 2150.21,-1383.88 1871.06,-1929.19c-112.744,-220.244 -485.765,-331.569 -683.083,-462.078c-190.523,-126.016 -326.049,-243.208 -516.593,-369.369c-149.102,-98.723 -493.298,-331.545 -651.823,-382.23c-89.814,-28.716 -316.636,65.808 -466.11,219.065Z" style="fill:#e4a57c;"/><path d="M1233.71,229.85c-149.814,153.605 -546.973,515.441 -850.017,890.215c-204.221,252.558 -365.199,511.448 -382.525,717.197c-3.012,35.768 6.355,72.791 26.031,110.312c27.894,53.193 76.837,107.773 138.576,161.477c233.74,203.32 652.905,396.391 762.987,468.397c527.967,345.352 491.027,421.328 754.002,601.591c81.417,55.809 194.295,58.153 325.415,17.923c189.677,-58.196 418.951,-205.311 643.935,-396.984c336.13,-286.364 662.938,-672.018 834.337,-1005.67c69.358,-135.018 113.3,-261.714 122.838,-370.145c6.56,-74.57 -3.096,-140.751 -31.203,-195.656c-46.367,-90.579 -135.15,-163.663 -238.464,-226.835c-150.551,-92.057 -332.006,-163.335 -450.26,-241.551c-190.521,-126.013 -326.045,-243.204 -516.586,-369.364c-150.002,-99.319 -496.467,-333.217 -655.948,-384.208c-29.159,-9.322 -71.696,-7.372 -121.279,5.426c-109.23,28.195 -254.935,108.268 -361.839,217.877Zm23.863,23.274c87.85,-90.073 202.964,-159.454 300.012,-194.456c61.678,-22.246 115.543,-31.097 149.092,-20.371c157.568,50.379 499.494,282.124 647.697,380.251c190.546,126.164 326.074,243.357 516.599,369.374c118.528,78.396 300.361,149.916 451.26,242.186c97.654,59.712 182.354,127.969 226.182,213.586c25.49,49.795 33.618,109.916 27.669,177.547c-9.225,104.871 -52.202,227.249 -119.283,357.834c-169.702,330.351 -493.501,712 -826.304,995.529c-220.973,188.256 -445.8,333.332 -632.095,390.491c-119.53,36.673 -222.571,37.326 -296.792,-13.55c-263.171,-180.397 -226.24,-256.383 -754.601,-601.992c-109.525,-71.642 -526.8,-263.36 -759.357,-465.652c-48.652,-42.32 -89.115,-85.025 -116.487,-127.221c-25.832,-39.821 -39.957,-78.909 -36.781,-116.621c16.911,-200.824 175.896,-452.522 375.228,-699.035c302.283,-373.832 698.524,-734.681 847.961,-887.9Z" style="fill:#7e4021;"/><path d="M1225.49,273.592c-232.893,238.786 -1106.74,1016.98 -1146.71,1491.6c-21.514,255.484 712.786,581.124 859.292,676.929c702.255,459.232 553.879,400.605 799.563,569.015c454.215,311.352 1954.34,-1245.33 1693.64,-1754.6c-105.292,-205.687 -457.099,-295.331 -641.374,-417.214c-177.93,-117.686 -342.084,-254.749 -520.033,-372.571c-139.247,-92.198 -461.033,-350.408 -609.08,-397.742c-83.878,-26.819 -295.707,61.458 -435.301,204.584Z" style="fill:#ffdab8;"/><path d="M1213.56,261.955c-139.924,143.465 -510.861,481.417 -793.9,831.45c-190.884,236.064 -341.287,478.08 -357.482,670.391c-2.829,33.599 5.95,68.381 24.432,103.626c26.103,49.779 71.892,100.867 129.667,151.126c218.327,189.919 609.846,370.279 712.679,437.525c701.996,459.063 553.668,400.465 799.262,568.813c76.28,52.288 180.576,55.729 300.996,20.162c173.84,-51.344 382.594,-183.932 586.693,-357.664c304.778,-259.431 599.432,-610.432 752.507,-916.02c104.421,-208.457 142.083,-396.655 77.701,-522.424c-43.453,-84.886 -127.17,-151.083 -224.672,-207.448c-141.456,-81.774 -312.01,-143.096 -422.343,-216.072c-177.928,-117.685 -342.079,-254.746 -520.026,-372.567c-140.115,-92.773 -464.235,-352.091 -613.205,-399.72c-27.378,-8.754 -67.319,-6.967 -113.873,5.049c-102.164,26.371 -238.448,101.256 -338.436,203.773l0,0Zm23.863,23.274c81.922,-83.995 189.267,-148.695 279.767,-181.335c57.313,-20.671 107.354,-28.979 138.528,-19.012c147.123,47.04 466.575,304.141 604.954,395.764c177.951,117.824 342.107,254.889 520.039,372.576c110.798,73.284 281.997,135.009 424.049,217.128c91.503,52.898 170.904,114.116 211.684,193.779c23.74,46.377 31.788,101.96 27.097,164.203c-7.281,96.618 -45.16,208.784 -104.93,328.103c-151.36,302.165 -442.946,649.041 -744.31,905.566c-199.996,170.239 -404.183,300.767 -574.529,351.079c-109.039,32.205 -203.637,31.658 -272.708,-15.688c-245.775,-168.473 -97.35,-109.815 -799.865,-569.216c-102.275,-66.882 -491.902,-245.888 -709.045,-434.778c-45.348,-39.448 -83.07,-79.25 -108.584,-118.582c-23.974,-36.959 -37.123,-73.223 -34.176,-108.223c15.78,-187.386 164.19,-422.21 350.185,-652.229c282.278,-349.091 652.297,-686.056 791.844,-829.135l0,0Z" style="fill:#7e4021;"/><path d="M3251.62,1211.05c9.083,14.471 29.187,27.812 41.173,40.752c40.781,44.029 53.255,92.837 55.015,151.774c0.274,9.195 7.962,16.437 17.156,16.162c9.195,-0.274 16.437,-7.962 16.162,-17.156c-2.014,-67.475 -17.191,-123.025 -63.878,-173.431c-10.714,-11.567 -29.276,-22.885 -37.394,-35.821c-4.89,-7.791 -15.186,-10.146 -22.977,-5.256c-7.791,4.89 -10.146,15.185 -5.257,22.976Z" style="fill:#7e4021;"/><path d="M3378.42,1495.84c4.57,-6.594 3.82,-15.724 -2.14,-21.472c-6.621,-6.385 -17.181,-6.194 -23.566,0.427c-1.987,2.06 -5.463,8.059 -8.064,17.264c-5.958,21.09 -13.85,67.275 -17.036,77.314c-2.784,8.767 2.075,18.145 10.842,20.928c8.767,2.783 18.145,-2.075 20.928,-10.842c3.567,-11.236 12.993,-68 18.993,-83.515l0.043,-0.104Z" style="fill:#7e4021;"/></g></svg>