<?xml version="1.0" encoding="UTF-8" standalone="no"?><!DOCTYPE svg PUBLIC "-//W3C//DTD SVG 1.1//EN" "http://www.w3.org/Graphics/SVG/1.1/DTD/svg11.dtd"><svg width="100%" height="100%" viewBox="0 0 3570 2775" version="1.1" xmlns="http://www.w3.org/2000/svg" xmlns:xlink="http://www.w3.org/1999/xlink" xml:space="preserve" xmlns:serif="http://www.serif.com/" style="fill-rule:evenodd;clip-rule:evenodd;stroke-linejoin:round;stroke-miterlimit:2;"><g id="Burger-bun" serif:id="Burger bun"><path d="M1102.44,116.692c533.633,-168.467 1120,-42.869 1371.48,49.562c537.716,197.645 832.79,435.118 1008.79,941.023c82.194,236.263 69.621,627.381 -27.267,826.751c-235.571,484.741 -788.923,768.282 -1557.6,804.538c-776.962,36.647 -1827.4,-302.575 -1862.48,-1153.57c-32.085,-778.331 403.442,-1258.8 1067.08,-1468.31Z" style="fill:#e4a57c;"/><path d="M1092.4,84.905c-678.449,214.186 -1123.15,705.769 -1090.35,1501.47c14.485,351.371 196.035,618.578 460.765,809.881c390.476,282.172 963.405,397.926 1436.59,375.607c783.512,-36.956 1345.89,-329.166 1586.01,-823.265c99.881,-205.53 113.502,-608.71 28.769,-852.272c-179.634,-516.351 -479.955,-759.632 -1028.77,-961.357c-255.418,-93.883 -851.001,-221.174 -1393.01,-50.063l-0.001,0Zm10.035,31.787c533.633,-168.467 1120,-42.869 1371.48,49.562c537.716,197.645 832.79,435.118 1008.79,941.023c82.194,236.263 69.621,627.381 -27.267,826.751c-235.571,484.741 -788.923,768.282 -1557.6,804.538c-776.962,36.647 -1827.4,-302.575 -1862.48,-1153.57c-32.085,-778.331 403.442,-1258.8 1067.08,-1468.31Z" style="fill:#7e4021;"/><path d="M35.356,1585c-9.653,-234.164 59.377,323.459 453.676,254.977c260.864,-45.307 609.046,285.48 994.248,304.392c455.071,22.344 1037.95,-216.574 1597.36,-286.265c397.648,-49.54 451.682,-496.604 453.147,-474.433c13.24,200.286 -13.902,417.741 -78.349,550.356c-235.571,484.741 -788.923,768.282 -1557.6,804.538c-776.962,36.647 -1827.4,-302.575 -1862.48,-1153.57Z" style="fill:#f7bf9a;"/><path d="M3367.82,1635.2c-0.366,1.786 -0.767,4.191 -0.749,5.938c0.934,91.495 -18.214,187.093 -53.515,271.144c-3.562,8.481 0.431,18.258 8.912,21.82c8.481,3.562 18.258,-0.431 21.82,-8.912c36.904,-87.866 56.961,-187.766 56.121,-283.441c0.242,-1.192 0.752,-3.742 0.771,-4.062c0.574,-9.398 -5.095,-13.491 -7.815,-15.19c-4.19,-2.616 -10.762,-5.113 -18.693,0.696c-0.739,0.542 -2.504,1.766 -4.354,4.693c-1.445,2.287 -2.263,4.791 -2.498,7.314Zm21.527,17.5c2.261,-0.526 5.992,-2.01 9.15,-7.008c-2.203,3.488 -5.491,5.879 -9.15,7.008Z" style="fill:#7e4021;"/><path d="M3263.36,2009.55c-10.978,15.814 -23.486,30.685 -35.619,45.604c-5.805,7.136 -4.723,17.642 2.413,23.446c7.136,5.804 17.642,4.722 23.447,-2.414c12.794,-15.731 25.948,-31.44 37.493,-48.131c0.798,-1.154 4.697,-8.4 5.985,-10.808c4.281,-3.861 6.438,-9.842 5.142,-15.88c-1.932,-8.993 -10.802,-14.726 -19.796,-12.794c-2.836,0.609 -7.455,2.517 -11.339,7.561c-2.403,3.121 -6.971,11.945 -7.726,13.416Z" style="fill:#7e4021;"/><path d="M180.3,1376.33c0.36,-1.958 0.369,-4.015 -0.026,-6.088c-1.719,-9.037 -10.452,-14.977 -19.488,-13.257c-5.723,1.089 -12.176,4.643 -13.89,14.387c-0.459,2.606 -0.277,8.069 1.176,14.412c2.1,9.165 6.28,21.517 6.764,22.67c31.274,74.452 83.024,102.005 141.704,117.797c53.009,14.266 112.136,17.87 164.531,43.718c22.118,10.912 40.138,28.887 57.745,47.573c19.68,20.886 38.788,42.72 60.85,59.088c7.387,5.481 17.835,3.933 23.316,-3.454c5.481,-7.388 3.933,-17.835 -3.455,-23.316c-20.532,-15.234 -38.135,-35.739 -56.45,-55.177c-20.388,-21.638 -41.647,-41.972 -67.258,-54.607c-54.387,-26.831 -115.592,-31.204 -170.616,-46.013c-49.352,-13.282 -93.332,-35.902 -119.635,-98.519c-0.364,-0.866 -4.043,-14.612 -5.268,-19.214Zm-12.485,13.228l-0.797,0.173c0.268,-0.051 0.534,-0.108 0.797,-0.173Zm3.866,-1.459c-1.166,0.617 -2.422,1.102 -3.752,1.43c1.319,-0.322 2.573,-0.794 3.752,-1.43Zm0.48,-0.267l-0.273,0.154l0.184,-0.1l0.089,-0.054Z" style="fill:#7e4021;"/><path d="M851.675,1770.22c-0.506,-0.403 -1.043,-0.776 -1.608,-1.122c-7.849,-4.796 -18.116,-2.319 -22.912,5.53c-2.214,3.622 -6.686,16.882 7.711,24.616c9.924,5.332 65.852,22.099 69.57,22.947c43.282,9.869 87.458,16.712 131.698,20.323c9.168,0.748 17.219,-6.087 17.968,-15.255c0.748,-9.168 -6.088,-17.219 -15.256,-17.968c-42.662,-3.482 -85.262,-10.083 -127,-19.599c-3.007,-0.686 -52.37,-16.907 -60.171,-19.472Zm6.307,11.745c0.284,3.399 -0.472,6.915 -2.385,10.046c1.873,-3.065 2.771,-6.404 2.385,-10.046Z" style="fill:#7e4021;"/><path d="M1960.62,1919.97c0.773,-0.149 4.983,-0.934 8.07,-1.088c6.625,-0.331 14.698,0.002 23.321,0.622c29.13,2.096 63.857,7.162 76.836,5.999c54.002,-4.836 104.024,-22.368 153.726,-40.237c47.11,-16.938 93.914,-34.199 144.051,-39.437c36.616,-3.826 75.145,2.238 113.307,5.748c41.824,3.847 83.201,4.663 121.682,-9.933c8.601,-3.263 12.935,-12.894 9.673,-21.495c-3.262,-8.6 -12.894,-12.934 -21.494,-9.672c-33.758,12.805 -70.119,11.281 -106.808,7.907c-40.351,-3.712 -81.107,-9.753 -119.824,-5.708c-52.825,5.519 -102.228,23.377 -151.865,41.222c-47.044,16.913 -94.307,33.827 -145.421,38.405c-14.293,1.28 -56.484,-5.958 -85.68,-6.792c-17.437,-0.499 -31.308,2.164 -37.594,6.429c-7.613,5.164 -9.6,15.536 -4.436,23.149c5.009,7.384 14.919,9.475 22.456,4.881Z" style="fill:#7e4021;"/><path d="M3198.28,1525.76c1.708,-0.822 20.463,-9.801 38.639,-16.805c57.37,-22.104 150.96,-56.535 189.35,-96.594c6.364,-6.641 6.14,-17.2 -0.501,-23.565c-6.642,-6.364 -17.201,-6.139 -23.565,0.502c-35.788,37.343 -123.788,67.947 -177.269,88.553c-17.497,6.742 -31.618,12.489 -39.884,16.975c-6,3.256 -9.865,6.555 -11.869,9.046c-5.765,7.168 -4.626,17.668 2.542,23.433c6.82,5.485 16.657,4.72 22.557,-1.545Z" style="fill:#7e4021;"/><path d="M1794.7,787.589c13.046,-26.404 45.075,-37.248 71.478,-24.201c26.403,13.046 87.353,69.833 74.307,96.236c-13.047,26.404 -95.181,12.489 -121.584,-0.557c-26.404,-13.046 -37.248,-45.075 -24.201,-71.478Z" style="fill:#fff;"/><path d="M1779.75,780.206c-8.561,17.325 -9.287,36.496 -3.538,53.476c5.749,16.98 17.972,31.766 35.298,40.327c18.814,9.296 63.373,19.192 96.264,16.923c23.399,-1.614 41.031,-10.54 47.645,-23.925c6.614,-13.384 2.991,-32.812 -9.942,-52.379c-18.18,-27.504 -53.11,-56.886 -71.924,-66.182c-17.325,-8.561 -36.496,-9.287 -53.476,-3.538c-16.98,5.749 -31.767,17.972 -40.327,35.298Zm29.884,14.766c4.485,-9.078 12.236,-15.479 21.133,-18.491c8.897,-3.012 18.942,-2.637 28.02,1.849c11.359,5.613 29.635,20.372 44.564,36.673c8.18,8.932 15.385,18.319 19.499,27.048c1.268,2.693 2.23,5.262 2.621,7.69c0.148,0.918 0.422,1.775 0.064,2.5c-0.359,0.725 -1.206,1.028 -2.024,1.468c-2.167,1.165 -4.792,1.962 -7.701,2.59c-9.433,2.036 -21.267,2.015 -33.33,0.944c-22.018,-1.955 -44.845,-7.505 -56.204,-13.118c-9.078,-4.486 -15.479,-12.236 -18.491,-21.133c-3.012,-8.897 -2.637,-18.942 1.849,-28.02Z" style="fill:#7e4021;"/><path d="M2097.98,304.704c-29.277,3.192 -55.638,-17.987 -58.829,-47.264c-3.192,-29.277 11.929,-111.198 41.207,-114.39c29.277,-3.191 61.695,73.547 64.886,102.824c3.192,29.278 -17.986,55.638 -47.264,58.83Z" style="fill:#fff;"/><path d="M2099.79,321.273c19.211,-2.095 35.767,-11.788 46.994,-25.763c11.228,-13.975 17.126,-32.231 15.032,-51.442c-2.274,-20.862 -17.883,-63.755 -37.476,-90.27c-13.939,-18.864 -30.944,-28.934 -45.785,-27.316c-14.842,1.618 -29.277,15.116 -38.825,36.539c-13.419,30.115 -19.419,75.363 -17.145,96.225c2.094,19.212 11.788,35.767 25.763,46.995c13.975,11.227 32.23,17.126 51.442,15.032Zm-3.613,-33.137c-10.066,1.097 -19.63,-1.998 -26.952,-7.881c-7.323,-5.883 -12.406,-14.555 -13.503,-24.621c-1.373,-12.596 1.248,-35.941 6.969,-57.292c3.135,-11.699 7.177,-22.82 12.327,-30.981c1.589,-2.518 3.238,-4.71 5.075,-6.345c0.695,-0.618 1.27,-1.309 2.074,-1.397c0.804,-0.088 1.515,0.464 2.326,0.917c2.147,1.202 4.23,2.987 6.323,5.102c6.787,6.86 13.131,16.85 18.713,27.598c10.187,19.617 17.777,41.849 19.15,54.444c1.097,10.066 -1.998,19.63 -7.881,26.953c-5.882,7.322 -14.555,12.405 -24.621,13.503Z" style="fill:#7e4021;"/><path d="M2635.6,277.533c-1.94,29.387 -27.373,51.671 -56.76,49.732c-29.387,-1.94 -107.438,-31.054 -105.499,-60.441c1.94,-29.387 83.141,-47.99 112.528,-46.05c29.386,1.939 51.67,27.372 49.731,56.759Z" style="fill:#fff;"/><path d="M2652.23,278.631c1.273,-19.283 -5.399,-37.27 -17.213,-50.754c-11.814,-13.483 -28.768,-22.461 -48.051,-23.734c-20.94,-1.382 -65.891,6.543 -95.405,21.236c-20.997,10.452 -33.867,25.451 -34.85,40.348c-0.983,14.897 9.804,31.456 29.245,44.578c27.327,18.444 70.847,32.208 91.787,33.59c19.283,1.273 37.27,-5.399 50.753,-17.213c13.483,-11.814 22.462,-28.768 23.734,-48.051l0,-0Zm-33.261,-2.195c-0.667,10.103 -5.375,18.985 -12.44,25.175c-7.064,6.19 -16.487,9.69 -26.591,9.023c-12.643,-0.834 -35.178,-7.469 -55.212,-16.81c-10.977,-5.118 -21.228,-11.029 -28.371,-17.518c-2.203,-2.001 -4.076,-4.006 -5.367,-6.099c-0.488,-0.791 -1.069,-1.478 -1.016,-2.285c0.053,-0.807 0.72,-1.412 1.307,-2.132c1.556,-1.905 3.675,-3.646 6.123,-5.341c7.933,-5.493 18.872,-10.006 30.427,-13.637c21.087,-6.627 44.299,-10.242 56.942,-9.408c10.104,0.667 18.985,5.375 25.175,12.44c6.19,7.065 9.69,16.488 9.023,26.592l0,-0Z" style="fill:#7e4021;"/><path d="M1203.06,720.209c14.279,25.758 4.959,58.262 -20.799,72.541c-25.758,14.279 -107.143,32.056 -121.422,6.298c-14.279,-25.757 43.921,-85.359 69.679,-99.638c25.758,-14.279 58.263,-4.959 72.542,20.799Z" style="fill:#fff;"/><path d="M1217.64,712.128c-9.37,-16.902 -24.717,-28.413 -41.95,-33.353c-17.232,-4.941 -36.347,-3.311 -53.249,6.058c-18.354,10.175 -51.858,41.174 -68.719,69.505c-11.994,20.156 -14.695,39.734 -7.457,52.791c7.239,13.057 25.273,21.141 48.722,21.648c32.962,0.713 77.004,-11.276 95.358,-21.45c16.902,-9.37 28.413,-24.717 33.353,-41.949c4.941,-17.233 3.311,-36.348 -6.058,-53.25Zm-29.154,16.161c4.909,8.856 5.759,18.873 3.17,27.902c-2.589,9.029 -8.616,17.073 -17.472,21.982c-11.082,6.143 -33.621,12.766 -55.522,15.758c-12,1.64 -23.819,2.219 -33.337,0.631c-2.936,-0.49 -5.596,-1.162 -7.815,-2.223c-0.839,-0.401 -1.699,-0.664 -2.091,-1.371c-0.392,-0.708 -0.159,-1.576 -0.055,-2.5c0.276,-2.444 1.116,-5.056 2.256,-7.805c3.696,-8.914 10.45,-18.631 18.199,-27.939c14.143,-16.988 31.702,-32.594 42.783,-38.737c8.856,-4.909 18.872,-5.759 27.901,-3.17c9.029,2.589 17.074,8.616 21.983,17.472Z" style="fill:#7e4021;"/><path d="M1582.27,184.681c26.38,13.094 37.166,45.142 24.072,71.522c-13.094,26.38 -69.991,87.227 -96.371,74.133c-26.38,-13.094 -12.317,-95.203 0.777,-121.583c13.094,-26.379 45.142,-37.166 71.522,-24.072Z" style="fill:#fff;"/><path d="M1589.68,169.752c-17.31,-8.592 -36.48,-9.352 -53.47,-3.633c-16.99,5.718 -31.799,17.914 -40.391,35.224c-9.33,18.797 -19.306,63.339 -17.096,96.234c1.571,23.402 10.466,41.05 23.838,47.688c13.373,6.638 32.808,3.051 52.398,-9.847c27.536,-18.13 56.981,-53.008 66.312,-71.805c8.592,-17.31 9.352,-36.479 3.633,-53.47c-5.718,-16.99 -17.914,-31.798 -35.224,-40.391Zm-14.821,29.858c9.07,4.502 15.457,12.264 18.453,21.166c2.997,8.903 2.603,18.947 -1.899,28.017c-5.633,11.349 -20.425,29.599 -36.754,44.498c-8.946,8.164 -18.346,15.352 -27.083,19.45c-2.695,1.264 -5.266,2.221 -7.695,2.608c-0.918,0.146 -1.775,0.418 -2.5,0.059c-0.724,-0.36 -1.026,-1.208 -1.464,-2.027c-1.161,-2.169 -1.953,-4.795 -2.575,-7.706c-2.019,-9.436 -1.978,-21.27 -0.885,-33.332c1.995,-22.014 7.586,-44.83 13.22,-56.179c4.502,-9.07 12.264,-15.457 21.166,-18.453c8.902,-2.997 18.947,-2.603 28.016,1.899Z" style="fill:#7e4021;"/><path d="M749.557,464.428c18.22,-23.138 51.798,-27.131 74.936,-8.911c23.139,18.22 71.041,86.374 52.821,109.512c-18.22,23.138 -95.707,-7.445 -118.845,-25.665c-23.139,-18.22 -27.132,-51.797 -8.912,-74.936Z" style="fill:#fff;"/><path d="M736.463,454.117c-11.956,15.183 -16.627,33.791 -14.51,51.592c2.117,17.801 11.022,34.794 26.205,46.75c16.487,12.983 58.04,31.87 90.691,36.446c23.227,3.255 42.324,-1.836 51.56,-13.565c9.236,-11.729 9.706,-31.487 1.094,-53.303c-12.105,-30.667 -40.211,-66.632 -56.699,-79.614c-15.183,-11.956 -33.79,-16.627 -51.591,-14.51c-17.802,2.117 -34.795,11.021 -46.75,26.204l-0,0Zm26.188,20.622c6.265,-7.955 15.171,-12.617 24.498,-13.726c9.327,-1.109 19.078,1.334 27.033,7.598c9.955,7.839 24.787,26.055 36.026,45.089c6.158,10.429 11.269,21.103 13.49,30.494c0.685,2.896 1.095,5.608 0.976,8.065c-0.044,0.929 0.047,1.824 -0.454,2.459c-0.5,0.636 -1.392,0.757 -2.284,1.019c-2.36,0.691 -5.093,0.929 -8.069,0.942c-9.65,0.043 -21.224,-2.422 -32.807,-5.962c-21.139,-6.462 -42.326,-16.608 -52.28,-24.447c-7.956,-6.264 -12.617,-15.17 -13.727,-24.497c-1.109,-9.328 1.334,-19.078 7.598,-27.034l0,0Z" style="fill:#7e4021;"/><path d="M2455.01,840.805c18.22,-23.139 51.797,-27.132 74.936,-8.912c23.138,18.22 71.041,86.374 52.821,109.512c-18.22,23.139 -95.708,-7.444 -118.846,-25.664c-23.138,-18.22 -27.131,-51.798 -8.911,-74.936Z" style="fill:#fff;"/><path d="M2441.91,830.494c-11.956,15.183 -16.626,33.79 -14.509,51.591c2.117,17.802 11.021,34.794 26.204,46.75c16.487,12.983 58.041,31.871 90.691,36.446c23.228,3.255 42.324,-1.835 51.56,-13.565c9.236,-11.729 9.706,-31.487 1.094,-53.303c-12.105,-30.666 -40.211,-66.631 -56.698,-79.614c-15.183,-11.956 -33.791,-16.626 -51.592,-14.51c-17.801,2.117 -34.794,11.022 -46.75,26.205Zm26.189,20.622c6.264,-7.956 15.17,-12.617 24.497,-13.726c9.328,-1.11 19.078,1.333 27.034,7.598c9.954,7.838 24.787,26.055 36.026,45.089c6.158,10.429 11.268,21.102 13.489,30.493c0.685,2.896 1.096,5.609 0.977,8.066c-0.045,0.928 0.046,1.823 -0.455,2.458c-0.5,0.636 -1.391,0.758 -2.283,1.019c-2.361,0.692 -5.094,0.929 -8.07,0.942c-9.65,0.043 -21.224,-2.421 -32.806,-5.962c-21.139,-6.461 -42.327,-16.608 -52.281,-24.447c-7.955,-6.264 -12.617,-15.17 -13.726,-24.497c-1.109,-9.327 1.334,-19.078 7.598,-27.033Z" style="fill:#7e4021;"/><path d="M2916.51,929.962c-29.433,1.028 -54.163,-22.033 -55.191,-51.466c-1.028,-29.433 20.082,-110.018 49.515,-111.046c29.433,-1.029 56.114,77.887 57.142,107.32c1.028,29.433 -22.033,54.164 -51.466,55.192Z" style="fill:#fff;"/><path d="M2917.09,946.618c19.313,-0.674 36.537,-9.123 48.763,-22.234c12.226,-13.11 19.452,-30.882 18.778,-50.195c-0.733,-20.973 -13.142,-64.899 -30.73,-92.784c-12.513,-19.838 -28.731,-31.133 -43.651,-30.612c-14.92,0.521 -30.31,12.92 -41.408,33.583c-15.601,29.045 -24.914,73.729 -24.182,94.702c0.675,19.313 9.123,36.537 22.234,48.763c13.111,12.226 30.882,19.452 50.196,18.777l-0,0Zm-1.164,-33.313c-10.119,0.354 -19.429,-3.437 -26.299,-9.843c-6.87,-6.406 -11.3,-15.429 -11.654,-25.548c-0.442,-12.663 3.89,-35.751 11.167,-56.624c3.988,-11.436 8.838,-22.23 14.574,-29.99c1.77,-2.393 3.576,-4.458 5.529,-5.953c0.737,-0.565 1.362,-1.213 2.17,-1.241c0.809,-0.028 1.477,0.574 2.253,1.086c2.052,1.356 3.998,3.29 5.93,5.554c6.264,7.34 11.855,17.77 16.631,28.9c8.715,20.313 14.648,43.044 15.091,55.706c0.353,10.12 -3.438,19.43 -9.843,26.299c-6.406,6.87 -15.429,11.301 -25.549,11.654l0,0Z" style="fill:#7e4021;"/><path d="M3204.8,652.027c22.446,-19.066 56.149,-16.323 75.216,6.123c19.066,22.446 52.505,98.745 30.06,117.811c-22.446,19.067 -92.332,-26.272 -111.398,-48.718c-19.067,-22.446 -16.323,-56.149 6.122,-75.216Z" style="fill:#fff;"/><path d="M3194.01,639.325c-14.728,12.511 -22.995,29.823 -24.45,47.69c-1.454,17.868 3.904,36.289 16.415,51.018c13.586,15.994 50.57,42.745 81.664,53.703c22.122,7.796 41.848,6.593 53.227,-3.072c11.378,-9.666 15.756,-28.938 11.641,-52.029c-5.785,-32.457 -26.203,-73.281 -39.789,-89.275c-12.511,-14.728 -29.823,-22.996 -47.69,-24.45c-17.868,-1.455 -36.289,3.904 -51.018,16.415l0,-0Zm21.581,25.405c7.717,-6.556 17.37,-9.359 26.732,-8.597c9.362,0.762 18.435,5.09 24.99,12.807c8.203,9.657 19.129,30.453 26.371,51.337c3.968,11.443 6.861,22.918 7.176,32.563c0.098,2.974 -0.038,5.714 -0.642,8.099c-0.228,0.901 -0.316,1.796 -0.933,2.32c-0.616,0.523 -1.514,0.466 -2.44,0.545c-2.451,0.21 -5.176,-0.099 -8.096,-0.676c-9.467,-1.871 -20.323,-6.582 -30.973,-12.348c-19.438,-10.525 -38.193,-24.671 -46.396,-34.327c-6.555,-7.718 -9.359,-17.371 -8.596,-26.733c0.762,-9.362 5.089,-18.435 12.806,-24.99l0.001,-0Z" style="fill:#7e4021;"/><path d="M606.875,509.118c-5.775,28.879 -33.91,47.637 -62.789,41.862c-28.879,-5.775 -102.441,-44.869 -96.666,-73.748c5.775,-28.879 88.714,-36.677 117.593,-30.902c28.879,5.775 47.637,33.909 41.862,62.788Z" style="fill:#fff;"/><path d="M623.218,512.386c3.789,-18.95 -0.467,-37.656 -10.412,-52.571c-9.944,-14.916 -25.575,-26.039 -44.525,-29.828c-20.578,-4.115 -66.181,-2.151 -97.366,8.546c-22.186,7.61 -36.91,20.792 -39.838,35.431c-2.927,14.64 5.596,32.471 23.149,48.027c24.674,21.867 66.014,41.217 86.592,45.332c18.95,3.79 37.656,-0.467 52.572,-10.411c14.915,-9.945 26.038,-25.575 29.828,-44.525l-0,-0.001Zm-32.686,-6.536c-1.986,9.929 -7.818,18.117 -15.633,23.327c-7.815,5.211 -17.616,7.446 -27.545,5.46c-12.424,-2.484 -33.895,-12.015 -52.532,-23.902c-10.211,-6.513 -19.599,-13.717 -25.83,-21.086c-1.922,-2.273 -3.515,-4.506 -4.521,-6.75c-0.38,-0.848 -0.866,-1.605 -0.708,-2.398c0.159,-0.794 0.899,-1.305 1.576,-1.942c1.792,-1.685 4.121,-3.134 6.769,-4.493c8.586,-4.406 20.022,-7.446 31.953,-9.531c21.774,-3.806 45.259,-4.347 57.684,-1.862c9.929,1.985 18.116,7.817 23.327,15.632c5.21,7.816 7.445,17.616 5.46,27.545l-0,0Z" style="fill:#7e4021;"/><path d="M2199.13,606.622c-28.388,-7.84 -45.071,-37.252 -37.231,-65.64c7.84,-28.389 52.13,-98.944 80.518,-91.104c28.388,7.84 30.193,91.124 22.354,119.513c-7.84,28.388 -37.252,45.071 -65.641,37.231Z" style="fill:#fff;"/><path d="M2194.7,622.687c18.628,5.145 37.592,2.246 53.185,-6.598c15.593,-8.844 27.813,-23.634 32.957,-42.262c5.586,-20.228 6.911,-65.853 -1.512,-97.728c-5.993,-22.677 -18.08,-38.312 -32.471,-42.286c-14.39,-3.975 -32.789,3.242 -49.569,19.63c-23.587,23.034 -45.864,62.874 -51.45,83.102c-5.145,18.628 -2.246,37.592 6.598,53.185c8.845,15.593 23.634,27.813 42.262,32.957l-0,0Zm8.873,-32.13c-9.76,-2.696 -17.507,-9.102 -22.141,-17.272c-4.634,-8.17 -6.157,-18.106 -3.462,-27.867c3.373,-12.213 14.426,-32.942 27.623,-50.674c7.231,-9.716 15.093,-18.56 22.892,-24.244c2.405,-1.753 4.747,-3.182 7.058,-4.024c0.874,-0.318 1.663,-0.748 2.443,-0.533c0.78,0.216 1.237,0.99 1.823,1.711c1.552,1.909 2.829,4.337 3.994,7.076c3.776,8.88 5.985,20.506 7.205,32.556c2.228,21.992 1.076,45.455 -2.297,57.668c-2.695,9.76 -9.101,17.507 -17.272,22.141c-8.17,4.634 -18.106,6.157 -27.866,3.462l-0,-0Z" style="fill:#7e4021;"/><path d="M643.951,791.534c25.71,14.364 34.922,46.899 20.558,72.61c-14.364,25.71 -74.158,83.713 -99.869,69.349c-25.71,-14.364 -7.663,-95.691 6.701,-121.401c14.364,-25.71 46.9,-34.922 72.61,-20.558Z" style="fill:#fff;"/><path d="M652.08,776.984c-16.871,-9.426 -35.981,-11.119 -53.229,-6.235c-17.249,4.883 -32.634,16.343 -42.06,33.214c-10.235,18.32 -22.369,62.323 -21.766,95.286c0.43,23.451 8.453,41.512 21.487,48.794c13.033,7.281 32.619,4.645 52.815,-7.283c28.387,-16.766 59.497,-50.167 69.732,-68.487c9.425,-16.871 11.119,-35.981 6.235,-53.229c-4.883,-17.249 -16.343,-32.635 -33.214,-42.06l-0,-0Zm-16.258,29.1c8.84,4.938 14.841,13.003 17.4,22.04c2.558,9.038 1.676,19.051 -3.263,27.891c-6.179,11.061 -21.843,28.568 -38.878,42.654c-9.334,7.718 -19.073,14.44 -27.999,18.107c-2.754,1.131 -5.368,1.962 -7.813,2.23c-0.924,0.101 -1.793,0.331 -2.5,-0.063c-0.706,-0.395 -0.966,-1.256 -1.364,-2.096c-1.053,-2.223 -1.716,-4.885 -2.197,-7.822c-1.556,-9.524 -0.938,-21.341 0.741,-33.335c3.065,-21.891 9.762,-44.408 15.942,-55.469c4.939,-8.84 13.003,-14.841 22.04,-17.4c9.038,-2.559 19.051,-1.676 27.891,3.263l0,-0Z" style="fill:#7e4021;"/><path d="M2647.26,485.85c25.71,14.365 34.922,46.9 20.558,72.61c-14.364,25.711 -74.158,83.713 -99.869,69.349c-25.71,-14.364 -7.663,-95.69 6.701,-121.4c14.364,-25.711 46.899,-34.923 72.61,-20.559Z" style="fill:#fff;"/><path d="M2655.39,471.301c-16.871,-9.426 -35.981,-11.119 -53.229,-6.236c-17.249,4.884 -32.635,16.344 -42.06,33.215c-10.235,18.32 -22.37,62.322 -21.766,95.286c0.43,23.451 8.453,41.512 21.486,48.793c13.034,7.282 32.62,4.646 52.815,-7.282c28.388,-16.767 59.498,-50.168 69.733,-68.488c9.425,-16.871 11.119,-35.98 6.235,-53.229c-4.884,-17.248 -16.344,-32.634 -33.214,-42.059l-0,-0Zm-16.258,29.099c8.84,4.939 14.841,13.003 17.4,22.041c2.558,9.038 1.676,19.051 -3.263,27.891c-6.18,11.061 -21.844,28.568 -38.879,42.654c-9.333,7.718 -19.072,14.439 -27.999,18.106c-2.753,1.131 -5.367,1.962 -7.812,2.23c-0.924,0.102 -1.794,0.332 -2.5,-0.063c-0.706,-0.394 -0.966,-1.255 -1.364,-2.095c-1.053,-2.223 -1.717,-4.885 -2.197,-7.822c-1.556,-9.524 -0.938,-21.341 0.741,-33.336c3.065,-21.891 9.762,-44.408 15.942,-55.469c4.938,-8.839 13.003,-14.84 22.04,-17.399c9.038,-2.559 19.051,-1.676 27.891,3.262l-0,0Z" style="fill:#7e4021;"/><path d="M1589.75,536.788c25.711,14.364 34.922,46.899 20.558,72.61c-14.364,25.71 -74.158,83.713 -99.868,69.349c-25.711,-14.364 -7.664,-95.69 6.7,-121.401c14.364,-25.71 46.9,-34.922 72.61,-20.558Z" style="fill:#fff;"/><path d="M1597.87,522.238c-16.871,-9.425 -35.98,-11.119 -53.229,-6.235c-17.249,4.883 -32.634,16.344 -42.06,33.214c-10.235,18.32 -22.369,62.323 -21.765,95.286c0.429,23.451 8.453,41.512 21.486,48.794c13.033,7.281 32.62,4.645 52.815,-7.283c28.387,-16.766 59.497,-50.167 69.732,-68.487c9.426,-16.871 11.119,-35.981 6.236,-53.229c-4.884,-17.249 -16.344,-32.634 -33.215,-42.06Zm-16.258,29.1c8.84,4.938 14.841,13.003 17.4,22.04c2.559,9.038 1.676,19.051 -3.263,27.891c-6.179,11.061 -21.843,28.568 -38.878,42.654c-9.334,7.718 -19.073,14.44 -27.999,18.107c-2.753,1.131 -5.367,1.962 -7.813,2.23c-0.924,0.101 -1.793,0.331 -2.499,-0.063c-0.707,-0.395 -0.966,-1.256 -1.365,-2.096c-1.053,-2.223 -1.716,-4.884 -2.196,-7.822c-1.557,-9.524 -0.938,-21.341 0.741,-33.335c3.065,-21.891 9.762,-44.408 15.941,-55.469c4.939,-8.84 13.003,-14.841 22.041,-17.4c9.037,-2.558 19.051,-1.676 27.89,3.263Z" style="fill:#7e4021;"/><path d="M1675.45,1115.86c-28.058,8.949 -58.103,-6.565 -67.053,-34.623c-8.949,-28.058 -10.419,-111.349 17.639,-120.299c28.058,-8.949 75.087,59.81 84.037,87.868c8.949,28.058 -6.565,58.104 -34.623,67.054Z" style="fill:#fff;"/><path d="M1680.51,1131.74c18.411,-5.872 32.709,-18.664 40.933,-34.593c8.225,-15.928 10.376,-34.992 4.503,-53.403c-6.377,-19.993 -30.203,-58.926 -54.677,-81.016c-17.412,-15.715 -36.079,-22.203 -50.303,-17.666c-14.223,4.536 -25.687,20.635 -30.783,43.53c-7.164,32.181 -4.046,77.719 2.331,97.712c5.872,18.411 18.664,32.709 34.592,40.933c15.929,8.225 34.993,10.376 53.404,4.503l0,0Zm-10.129,-31.757c-9.647,3.077 -19.635,1.946 -27.981,-2.364c-8.346,-4.309 -15.052,-11.798 -18.129,-21.444c-3.851,-12.071 -5.924,-35.471 -4.562,-57.534c0.745,-12.088 2.495,-23.792 5.92,-32.814c1.056,-2.783 2.236,-5.259 3.712,-7.227c0.557,-0.743 0.984,-1.535 1.755,-1.781c0.77,-0.246 1.576,0.153 2.462,0.436c2.342,0.751 4.738,2.086 7.211,3.743c8.016,5.373 16.219,13.902 23.826,23.326c13.885,17.199 25.744,37.478 29.594,49.549c3.077,9.647 1.946,19.635 -2.364,27.981c-4.309,8.346 -11.797,15.052 -21.444,18.129l-0,0Z" style="fill:#7e4021;"/><path d="M2107.29,1099.11c12.644,-26.598 44.505,-37.926 71.103,-25.281c26.598,12.645 88.401,68.502 75.756,95.1c-12.644,26.598 -94.98,13.93 -121.578,1.285c-26.598,-12.645 -37.926,-44.505 -25.281,-71.104Z" style="fill:#fff;"/><path d="M2092.23,1091.95c-8.297,17.453 -8.732,36.632 -2.726,53.523c6.005,16.891 18.451,31.491 35.904,39.788c18.953,9.01 63.657,18.229 96.509,15.462c23.372,-1.968 40.868,-11.16 47.278,-24.643c6.41,-13.484 2.494,-32.855 -10.735,-52.223c-18.594,-27.225 -53.965,-56.075 -72.918,-65.085c-17.453,-8.298 -36.633,-8.733 -53.524,-2.727c-16.89,6.006 -31.49,18.451 -39.788,35.904l0,0.001Zm30.105,14.311c4.347,-9.144 12,-15.662 20.85,-18.809c8.85,-3.147 18.9,-2.923 28.045,1.424c11.443,5.44 29.941,19.921 45.115,35.994c8.314,8.807 15.661,18.084 19.906,26.75c1.309,2.673 2.31,5.227 2.738,7.649c0.162,0.916 0.449,1.768 0.101,2.499c-0.347,0.73 -1.189,1.046 -2.001,1.499c-2.149,1.197 -4.762,2.033 -7.661,2.705c-9.401,2.179 -21.234,2.338 -33.312,1.45c-22.045,-1.621 -44.953,-6.825 -56.396,-12.265c-9.145,-4.348 -15.663,-12.001 -18.809,-20.851c-3.147,-8.85 -2.924,-18.9 1.424,-28.045l-0,0Z" style="fill:#7e4021;"/><path d="M1874.19,444.174c-26.268,13.317 -58.406,2.802 -71.723,-23.466c-13.317,-26.268 -28.073,-108.255 -1.805,-121.572c26.268,-13.317 83.677,47.047 96.994,73.315c13.317,26.268 2.802,58.406 -23.466,71.723Z" style="fill:#fff;"/><path d="M1881.73,459.039c17.237,-8.738 29.307,-23.649 34.882,-40.687c5.574,-17.038 4.652,-36.2 -4.086,-53.437c-9.489,-18.718 -39.229,-53.345 -66.917,-71.241c-19.699,-12.732 -39.163,-16.154 -52.479,-9.404c-13.316,6.751 -22.061,24.474 -23.435,47.889c-1.931,32.912 8.422,77.367 17.911,96.085c8.738,17.237 23.649,29.307 40.687,34.882c17.038,5.574 36.201,4.652 53.437,-4.087Zm-15.072,-29.731c-9.032,4.579 -19.072,5.058 -28,2.137c-8.927,-2.921 -16.743,-9.242 -21.321,-18.273c-5.729,-11.301 -11.514,-34.07 -13.695,-56.066c-1.194,-12.052 -1.336,-23.885 0.603,-33.338c0.598,-2.916 1.367,-5.549 2.51,-7.728c0.431,-0.823 0.725,-1.673 1.447,-2.039c0.722,-0.365 1.581,-0.1 2.5,0.038c2.433,0.366 5.011,1.302 7.717,2.543c8.771,4.023 18.231,11.132 27.247,19.22c16.453,14.76 31.4,32.884 37.129,44.185c4.578,9.032 5.057,19.072 2.136,28c-2.921,8.927 -9.242,16.743 -18.273,21.321Z" style="fill:#7e4021;"/><path d="M1868.38,69.875c1.035,29.432 -22.02,54.168 -51.452,55.204c-29.433,1.035 -110.024,-20.055 -111.059,-49.488c-1.035,-29.432 77.874,-56.133 107.306,-57.169c29.433,-1.035 54.169,22.02 55.205,51.453Z" style="fill:#fff;"/><path d="M1885.03,69.289c-0.679,-19.314 -9.132,-36.536 -22.246,-48.758c-13.114,-12.223 -30.887,-19.444 -50.2,-18.765c-20.973,0.738 -64.895,13.158 -92.777,30.753c-19.835,12.518 -31.125,28.738 -30.6,43.658c0.524,14.921 12.927,30.307 33.593,41.4c29.048,15.593 73.735,24.896 94.707,24.158c19.314,-0.679 36.536,-9.132 48.758,-22.246c12.223,-13.114 19.445,-30.887 18.765,-50.2l0,-0Zm-33.313,1.171c0.356,10.12 -3.432,19.431 -9.836,26.302c-6.404,6.871 -15.426,11.304 -25.545,11.66c-12.663,0.446 -35.753,-3.881 -56.627,-11.153c-11.437,-3.984 -22.232,-8.831 -29.993,-14.566c-2.394,-1.769 -4.459,-3.574 -5.955,-5.527c-0.566,-0.738 -1.213,-1.362 -1.242,-2.171c-0.028,-0.808 0.574,-1.476 1.086,-2.252c1.355,-2.053 3.288,-3.999 5.552,-5.932c7.339,-6.266 17.767,-11.859 28.896,-16.638c20.311,-8.72 43.04,-14.659 55.702,-15.104c10.12,-0.356 19.431,3.432 26.302,9.836c6.871,6.404 11.304,15.426 11.66,25.545l0,0Z" style="fill:#7e4021;"/><path d="M1067.93,107.423c29.44,-0.794 53.987,22.462 54.781,51.902c0.795,29.441 -20.954,109.856 -50.394,110.651c-29.44,0.794 -55.495,-78.331 -56.289,-107.771c-0.795,-29.44 22.462,-53.987 51.902,-54.782Z" style="fill:#fff;"/><path d="M1067.48,90.763c-19.318,0.521 -36.609,8.833 -48.938,21.846c-12.329,13.014 -19.696,30.727 -19.175,50.046c0.566,20.977 12.627,65 29.993,93.024c12.355,19.937 28.483,31.36 43.407,30.957c14.924,-0.403 30.412,-12.679 41.673,-33.253c15.83,-28.92 25.498,-73.529 24.932,-94.507c-0.522,-19.318 -8.833,-36.609 -21.847,-48.938c-13.013,-12.33 -30.727,-19.697 -50.045,-19.175l0,-0Zm0.9,33.321c10.122,-0.273 19.401,3.591 26.22,10.051c6.818,6.46 11.178,15.518 11.451,25.64c0.342,12.666 -4.174,35.719 -11.616,56.533c-4.078,11.404 -9.013,22.16 -14.811,29.874c-1.789,2.379 -3.611,4.429 -5.576,5.91c-0.742,0.559 -1.372,1.201 -2.181,1.223c-0.808,0.022 -1.472,-0.586 -2.243,-1.104c-2.042,-1.372 -3.972,-3.321 -5.886,-5.601c-6.206,-7.39 -11.714,-17.863 -16.401,-29.031c-8.554,-20.382 -14.307,-43.158 -14.649,-55.824c-0.273,-10.122 3.591,-19.401 10.052,-26.22c6.46,-6.819 15.517,-11.178 25.639,-11.451l0.001,0Z" style="fill:#7e4021;"/><path d="M2906.37,515.353c-28.699,6.612 -57.367,-11.32 -63.979,-40.019c-6.612,-28.699 -1.229,-111.829 27.47,-118.441c28.699,-6.613 69.915,65.781 76.528,94.48c6.612,28.699 -11.32,57.367 -40.019,63.98Z" style="fill:#fff;"/><path d="M2910.11,531.594c18.832,-4.339 34.133,-15.912 43.639,-31.11c9.507,-15.199 13.218,-34.021 8.879,-52.853c-4.712,-20.45 -25.256,-61.21 -47.831,-85.237c-16.06,-17.094 -34.132,-25.094 -48.68,-21.742c-14.548,3.351 -27.296,18.453 -34.258,40.851c-9.786,31.483 -10.423,77.124 -5.711,97.573c4.339,18.832 15.911,34.133 31.11,43.639c15.198,9.507 34.02,13.218 52.852,8.879l0,-0Zm-7.484,-32.483c-9.867,2.274 -19.728,0.325 -27.692,-4.656c-7.963,-4.981 -14.031,-12.996 -16.304,-22.863c-2.845,-12.347 -2.987,-35.838 0.184,-57.714c1.737,-11.986 4.444,-23.506 8.598,-32.216c1.282,-2.686 2.662,-5.057 4.294,-6.897c0.617,-0.695 1.107,-1.45 1.895,-1.631c0.789,-0.182 1.559,0.282 2.418,0.637c2.273,0.941 4.551,2.469 6.879,4.323c7.547,6.014 15.021,15.189 21.828,25.206c12.423,18.283 22.575,39.468 25.42,51.815c2.273,9.867 0.324,19.729 -4.657,27.692c-4.981,7.963 -12.995,14.031 -22.863,16.304l0,0Z" style="fill:#7e4021;"/><path d="M1286.05,325.583c14.293,25.75 4.992,58.26 -20.757,72.553c-25.75,14.294 -107.125,32.118 -121.419,6.368c-14.293,-25.75 43.873,-85.385 69.623,-99.678c25.749,-14.294 58.259,-4.993 72.553,20.757Z" style="fill:#fff;"/><path d="M1300.62,317.494c-9.379,-16.897 -24.733,-28.399 -41.968,-33.33c-17.236,-4.931 -36.35,-3.29 -53.246,6.09c-18.348,10.185 -51.835,41.203 -68.679,69.544c-11.983,20.162 -14.673,39.742 -7.427,52.795c7.246,13.053 25.285,21.126 48.734,21.62c32.962,0.694 76.997,-11.32 95.346,-21.505c16.896,-9.379 28.398,-24.733 33.329,-41.968c4.931,-17.235 3.29,-36.349 -6.089,-53.246l-0,-0Zm-29.144,16.178c4.914,8.853 5.769,18.869 3.186,27.899c-2.584,9.031 -8.607,17.079 -17.46,21.993c-11.078,6.149 -33.613,12.784 -55.513,15.789c-11.998,1.647 -23.818,2.233 -33.337,0.65c-2.936,-0.488 -5.596,-1.159 -7.816,-2.218c-0.839,-0.401 -1.699,-0.663 -2.092,-1.37c-0.392,-0.707 -0.16,-1.576 -0.056,-2.5c0.275,-2.444 1.113,-5.056 2.251,-7.806c3.692,-8.917 10.44,-18.637 18.184,-27.95c14.133,-16.996 31.683,-32.612 42.76,-38.761c8.854,-4.914 18.869,-5.77 27.9,-3.186c9.031,2.584 17.078,8.607 21.993,17.46l-0,-0Z" style="fill:#7e4021;"/></g></svg>