<?xml version="1.0" encoding="UTF-8" standalone="no"?><!DOCTYPE svg PUBLIC "-//W3C//DTD SVG 1.1//EN" "http://www.w3.org/Graphics/SVG/1.1/DTD/svg11.dtd"><svg width="100%" height="100%" viewBox="0 0 3541 2152" version="1.1" xmlns="http://www.w3.org/2000/svg" xmlns:xlink="http://www.w3.org/1999/xlink" xml:space="preserve" xmlns:serif="http://www.serif.com/" style="fill-rule:evenodd;clip-rule:evenodd;stroke-linejoin:round;stroke-miterlimit:2;"><g id="Cheese-roll" serif:id="Cheese roll"><path d="M3523.26,1288.18c-13.563,-164.925 -112.082,-333.265 -161.197,-414.328c-163.551,-269.939 -369.051,-454.463 -647.632,-601.812c-730.957,-386.621 -1650.41,-352.078 -2270.86,230.19c-601.444,564.432 -571.888,857.232 120.868,1207.59c316.928,160.285 654.341,312.81 1000.49,397.96c706.084,173.689 1981,-543.971 1958.33,-819.601Z" style="fill:#ffeeda;"/><path d="M3539.87,1286.82c-13.796,-167.756 -113.595,-339.145 -163.552,-421.599c-165.195,-272.651 -372.714,-459.078 -654.095,-607.907c-737.156,-389.901 -1664.35,-354.438 -2290.06,232.768c-151.62,142.29 -263.373,267.547 -334.95,380.785c-73.386,116.099 -104.839,220.156 -95.12,317.104c9.76,97.348 60.942,188.068 155.194,276.866c91.71,86.403 224.687,171.387 399.627,259.862c318.039,160.848 656.669,313.824 1004.03,399.272c200.017,49.202 445.172,28.087 693.975,-34.497c370.986,-93.318 750.16,-278.562 998.485,-456.322c107.607,-77.028 190.761,-152.835 238.693,-219.188c34.332,-47.526 50.742,-91.008 47.77,-127.144Zm-33.221,2.732c2.469,30.018 -13.049,65.412 -41.57,104.893c-46.343,64.153 -127.034,137.127 -231.074,211.603c-245.515,175.748 -620.426,358.837 -987.215,451.1c-243.046,61.136 -482.491,82.519 -677.881,34.455c-344.938,-84.851 -681.136,-236.926 -996.952,-396.649c-171.439,-86.704 -301.939,-169.705 -391.813,-254.379c-87.333,-82.279 -135.841,-165.728 -144.884,-255.929c-9.084,-90.601 21.547,-187.471 90.128,-295.968c70.389,-111.358 180.482,-234.363 329.585,-374.289c615.186,-577.329 1526.91,-610.952 2251.66,-227.61c275.782,145.869 479.263,328.489 641.171,595.715c48.271,79.672 145.51,244.963 158.84,407.058Z" style="fill:#7e4021;"/><path d="M2589.1,1141.23c227.706,-169.601 746.538,-291.473 909.149,20.25c-30.268,-124.488 -111.787,-258.707 -161.653,-336.046c-122.511,-190.008 -343.587,-406.038 -622.168,-553.387c-730.957,-386.621 -1650.41,-352.078 -2270.86,230.19c-247.714,232.47 -388.389,418.862 -419.777,582.176c-44.82,233.208 385.01,-202.463 1060.15,50.29c625.183,234.05 773.822,649.147 903.783,648.189c109.923,-0.81 175.344,-324.337 601.383,-641.662Z" style="fill:#ffce7b;"/><path d="M2599.06,1154.59c133.998,-99.804 370.779,-182.781 573.22,-167.136c131.704,10.178 248.94,62.386 311.196,181.728c3.897,7.471 12.756,10.858 20.643,7.892c7.886,-2.965 12.319,-11.35 10.328,-19.538c-30.717,-126.337 -113.233,-262.652 -163.839,-341.14c-123.752,-191.932 -346.981,-410.246 -628.384,-559.087c-737.156,-389.901 -1664.35,-354.438 -2290.06,232.768c-251.238,235.777 -392.905,425.547 -424.739,591.184c-6.595,34.314 -2.908,56.66 6.773,70.23c7.091,9.939 17.404,16.361 31.306,19.206c15.588,3.19 36.827,1.514 63.332,-4.041c152.079,-31.869 501.13,-191.605 969.26,-16.351c434.116,162.521 636.446,413.256 763.085,548.617c33.993,36.333 62.883,64.573 89.171,81.403c20.058,12.843 39.01,19.364 57.493,19.227c20.087,-0.148 39.214,-8.541 58.527,-25.028c16.666,-14.227 33.817,-34.834 52.69,-60.827c83.221,-114.62 203.753,-338.455 499.999,-559.107l0,0Zm-19.911,-26.733c-300.21,223.604 -422.727,450.102 -507.061,566.255c-17.032,23.458 -32.319,42.221 -47.359,55.061c-12.397,10.582 -24.238,16.952 -37.131,17.047c-16.357,0.12 -32.747,-8.362 -51.106,-22.26c-21.264,-16.098 -44.383,-39.393 -70.971,-67.811c-128.687,-137.55 -334.6,-391.911 -775.739,-557.061c-477.063,-178.599 -832.803,-17.534 -987.784,14.944c-17.816,3.733 -32.644,5.751 -44.376,4.765c-7.253,-0.609 -12.985,-2.034 -16.29,-6.665c-6.118,-8.577 -5.342,-22.891 -1.174,-44.58c30.941,-160.991 170.624,-344.004 414.816,-573.168c615.186,-577.329 1526.91,-610.952 2251.66,-227.61c275.76,145.857 494.683,359.602 615.954,547.685c36.017,55.86 88.91,141.786 126.324,231.996c-70.787,-69.898 -167.864,-104.028 -274.069,-112.236c-210.374,-16.258 -456.45,69.922 -595.699,173.638l-0,0Z" style="fill:#7e4021;"/><path d="M854.082,331.005c-3.135,2.331 -19.535,14.476 -30.21,21.574c-10.675,7.097 -19.746,13.855 -22.987,17.739c-8.307,9.953 -20.328,35.29 -31.626,55.86c-3.255,5.926 -6.444,11.394 -9.481,15.724c-1.394,1.988 -3.72,4.578 -4.17,5.074c-14.378,7.856 -30.603,9.602 -46.67,13.084c-20.679,4.481 -41.106,11.134 -59.279,28.565c-6.432,6.17 -15.075,19.619 -23.835,36.549c-18.288,35.347 -38.763,86.596 -45.212,105.619c-14.184,41.844 -8.896,75.748 7.098,101.507c14.833,23.891 39.344,40.994 68.089,50.455c41.237,13.574 91.095,11.281 130.553,-7.509c8.305,-3.955 11.837,-13.908 7.882,-22.213c-3.955,-8.305 -13.908,-11.837 -22.213,-7.882c-73.336,34.921 -194.917,-0.18 -159.84,-103.657c6.167,-18.192 25.759,-67.199 43.249,-101.003c6.575,-12.708 12.475,-23.179 17.303,-27.809c16.214,-15.553 35.313,-18.498 53.705,-22.19c15.918,-3.195 31.513,-6.679 45.769,-14.599c5.813,-3.23 13.44,-11.833 20.637,-23.818c11.789,-19.632 24.753,-49.76 33.632,-60.398c1.862,-2.231 7.06,-5.45 12.986,-9.427c12.068,-8.1 27.012,-17.649 35.08,-24.64c7.46,-6.463 10.543,-13.204 11.087,-17.13c1.262,-9.112 -5.111,-17.534 -14.222,-18.796c-7.366,-1.021 -14.281,2.948 -17.325,9.321Z" style="fill:#7e4021;"/><path d="M935.759,567.075c-1.306,3.219 -1.62,6.873 -0.669,10.489c4.122,15.661 17.372,13.879 19.725,13.443c3.535,-0.656 10.421,-2.724 13.118,-11.982c0.387,-1.329 0.894,-5.717 1.077,-11.063c0.101,-2.988 0.637,-8.656 0.717,-9.491c13.587,-34.768 40.732,-45.311 68.648,-54.425c23.03,-7.519 46.755,-14.033 67.125,-26.899c21.663,-13.681 59.002,-48.351 87.929,-64.243c4.574,-2.513 8.848,-4.509 12.733,-5.588c0.756,-0.211 1.743,-0.379 2.532,-0.493c0.394,1.499 0.973,4.029 1.096,6.125c0.44,7.535 -0.624,17.548 -3.225,30.553c-1.622,8.107 -0.755,19.624 3.646,28.042c4.307,8.239 11.384,14.014 21.265,15.314c20.878,2.747 41.554,-4.249 62.217,-11.361c15.173,-5.223 30.316,-10.819 45.987,-7.132c8.954,2.107 17.934,-3.452 20.041,-12.406c2.107,-8.954 -3.452,-17.934 -12.407,-20.041c-21.879,-5.148 -43.285,0.768 -64.47,8.06c-14.501,4.991 -28.81,10.934 -43.412,10.157c-0.2,-1.374 -0.375,-3.13 -0.181,-4.096c4.257,-21.287 4.743,-36.505 2.93,-46.849c-1.875,-10.694 -6.237,-17.721 -11.425,-22.298c-6.082,-5.366 -13.748,-7.968 -22.896,-7.5c-8.535,0.437 -19.086,4.038 -30.481,10.298c-29.464,16.187 -67.614,51.34 -89.678,65.275c-23.105,14.593 -51.213,19.555 -76.584,29.342c-30.493,11.762 -57.523,29.301 -72.675,68.637c-1.464,3.801 -2.304,14.073 -2.683,20.132Zm31.145,0.655l0.13,0.375l-0.044,-0.146l-0.086,-0.229Zm-0.348,-0.901l0.135,0.333l-0.084,-0.221l-0.051,-0.112Z" style="fill:#7e4021;"/><path d="M1366.52,264.238c-1.211,0.274 -7.188,1.648 -9.288,2.372c-4.229,1.458 -6.943,3.735 -8.434,5.4c-4.029,4.5 -5,9.445 -4.163,14.349c0.573,3.354 2.082,8.387 8.643,12.262c6.261,3.699 13.965,2.829 19.227,-1.616c3.075,-0.809 6.874,-1.904 8.467,-2.712c8.365,-4.242 16.03,-9.229 23.093,-15.411c16.562,-14.495 31.47,-30.872 44.214,-48.814c8.404,-11.831 14.796,-18.045 21.452,-20.337c6.168,-2.124 12.02,-0.585 18.575,0.587c14.759,2.638 31.598,5.736 54.544,-1.148c21.811,-6.543 38.415,-17.525 54.548,-26.343c18.39,-10.051 36.124,-16.083 65.795,-0.272c14.088,7.506 25.736,17.879 31.116,33.207c5.545,15.8 4.297,32.418 -0.048,48.378c-5.071,18.632 -15.274,34.348 -25.687,49.903c-12.101,18.077 -24.539,35.929 -32.374,56.342c-8.391,21.861 -10.346,44.842 -12.624,67.871c-1.94,19.62 -4.078,39.306 -13.104,57.951c-12.312,25.434 -31.749,48.442 -55.625,63.662c-36.252,23.111 -64.248,22.786 -94.314,25.782c-34.809,3.47 -72.186,10.192 -124.327,50.207c-7.297,5.6 -8.675,16.071 -3.074,23.369c5.6,7.297 16.071,8.675 23.368,3.075c54.585,-41.891 90.684,-41.773 126.573,-45.27c27.852,-2.714 55.594,-7.317 89.693,-29.055c29.01,-18.494 52.749,-46.342 67.709,-77.247c10.798,-22.305 13.951,-45.721 16.273,-69.193c1.984,-20.063 3.261,-40.162 10.571,-59.207c6.94,-18.081 18.236,-33.732 28.955,-49.744c12.407,-18.534 24.108,-37.491 30.151,-59.692c6.121,-22.49 7.151,-45.906 -0.664,-68.172c-8.242,-23.48 -25.312,-40.086 -46.893,-51.585c-43.95,-23.418 -70.218,-14.448 -97.457,0.441c-14.287,7.808 -28.825,17.87 -48.139,23.664c-21.713,6.514 -36.196,0.149 -49.412,-1.319c-8.458,-0.939 -16.572,-0.605 -24.982,2.291c-11.229,3.866 -23.599,12.594 -37.775,32.552c-11.236,15.819 -24.388,30.253 -38.991,43.033c-4.775,4.179 -9.967,7.543 -15.592,10.439Z" style="fill:#7e4021;"/><path d="M1206.55,616.913c-18.916,20.213 -34.172,42.407 -46.208,67.613c-26.88,56.293 -21.13,86.795 -6.195,103.223c6.819,7.501 15.995,12.771 26.808,16.182c12.941,4.081 28.508,5.479 43.949,6.31c14.356,0.772 28.573,0.959 39.401,3.725c3.955,1.01 7.928,1.283 8.244,5.08c0.764,9.167 8.826,15.989 17.993,15.225c9.167,-0.764 15.989,-8.826 15.225,-17.993c-1.325,-15.902 -10.134,-25.867 -24.437,-31.743c-13.505,-5.548 -33.901,-6.464 -54.636,-7.579c-10.658,-0.574 -21.411,-1.302 -30.899,-3.509c-6.801,-1.583 -12.946,-3.68 -16.984,-8.121c-3.578,-3.936 -4.769,-9.703 -4.191,-17.667c0.887,-12.236 5.908,-28.049 15.803,-48.77c10.538,-22.071 23.902,-41.5 40.466,-59.2c6.285,-6.716 5.935,-17.272 -0.781,-23.557c-6.717,-6.286 -17.272,-5.936 -23.558,0.781Z" style="fill:#7e4021;"/><path d="M1371.82,1025.07c1.13,1.388 3.368,4.113 5.15,6.18c6.337,7.351 15.241,15.524 28.895,19.757c13.72,4.253 33.002,4.761 60.691,-6.65c2.888,-1.19 5.715,-2.536 8.474,-4c38.58,-20.462 62.945,-53.021 84.772,-87.88c19.54,-31.208 36.904,-64.327 63.642,-89.645c24.29,-23.001 56.379,-31.115 85.344,-46.384c45.99,-24.242 86.139,-59.934 120.671,-98.61c6.127,-6.862 5.53,-17.406 -1.332,-23.533c-6.861,-6.126 -17.406,-5.529 -23.532,1.332c-31.912,35.741 -68.852,68.921 -111.351,91.324c-31.651,16.685 -66.176,26.533 -92.719,51.667c-28.781,27.253 -47.942,62.567 -68.975,96.159c-18.747,29.941 -39.003,58.547 -72.139,76.122c-1.809,0.96 -3.661,1.849 -5.555,2.629c-19.116,7.878 -31.579,8.457 -40.24,4.866c-8.218,-3.408 -12.346,-10.08 -15.581,-14c-5.918,-7.172 -12.112,-10.246 -16.858,-10.77c-9.143,-1.009 -17.386,5.595 -18.395,14.738c-0.783,7.096 3.02,13.651 9.038,16.698Z" style="fill:#7e4021;"/><path d="M1876.2,563.614c-1.238,5.285 0.128,11.072 4.146,15.296c6.34,6.664 16.899,6.927 23.563,0.587c3.945,-3.753 5.31,-14.89 5.31,-14.89c-0,0 -0.08,3.698 -0.544,5.322c6.946,-24.315 5.18,-47.033 4.545,-70.018c-0.519,-18.743 -0.173,-37.745 10.255,-58.377c22.417,-44.351 65.945,-76.856 105.88,-111.457c44.505,-38.559 84.656,-79.583 95.57,-136.508c7.114,-37.109 0.807,-59.547 -9.596,-73.488c-11.308,-15.153 -28.38,-21.606 -45.252,-24.182c-8.053,-1.23 -18.452,-2.147 -24.526,-2.622c-0.042,-1.847 -0.037,-3.885 0.092,-5.471c0.648,-7.976 1.987,-16.132 2.176,-21.248l0.056,-2.83c2.588,-4.649 2.911,-10.456 0.354,-15.57c-4.113,-8.227 -14.133,-11.567 -22.36,-7.453c-3.567,1.783 -6.719,4.747 -8.793,9.104c-2.074,4.355 -2.458,12.565 -2.567,15.515c-0.267,7.185 -2.764,20.348 -2.434,30.629c0.243,7.592 1.999,14.132 4.802,18.704c2.499,4.077 6.631,7.706 12.994,9.832c5.373,1.795 14.062,2.421 24.052,3.174c11.972,0.903 27.669,1.202 35.628,13.714c5.815,9.14 6.936,23.488 2.636,45.916c-9.489,49.498 -45.961,84.063 -84.66,117.591c-43.266,37.487 -89.514,73.563 -113.801,121.614c-13.303,26.32 -14.488,50.425 -13.827,74.334c0.544,19.665 2.668,39.138 -3.275,59.941c-0.209,0.729 -0.343,1.776 -0.424,2.841Z" style="fill:#7e4021;"/><path d="M2175.3,517.379c0.76,6.366 0.851,12.811 0.274,19.198c-1.828,20.221 -9.638,38.317 -18.253,56.493c-10.343,21.82 -25.886,32.863 -41.069,44.563c-12.531,9.656 -24.946,19.613 -35.658,33.621c-9.279,12.133 -13.936,27.125 -18.136,42.492c-3.12,11.418 -5.868,23.117 -12.545,32.762c-10.61,15.326 -31.876,28.201 -56.72,41.231c-41.986,22.019 -94.017,43.129 -132.35,68.867c-29.024,19.488 -50.322,42.03 -57.446,68.21c-5.084,18.683 -3.495,39.475 8.202,62.869c17.184,34.367 57.812,57.273 105.951,68.145c68.425,15.454 151.077,7.067 192.017,-17.163c73.115,-43.272 127.934,-119.318 196.303,-170.594c7.358,-5.519 8.852,-15.975 3.333,-23.334c-5.519,-7.358 -15.975,-8.852 -23.333,-3.333c-67.421,50.565 -121.179,125.903 -193.28,168.575c-35.725,21.144 -107.988,26.82 -167.696,13.335c-37.291,-8.422 -70.169,-23.915 -83.481,-50.538c-19.373,-38.746 3.706,-65.464 38.011,-88.498c37.408,-25.117 88.278,-45.533 129.25,-67.021c30.464,-15.977 55.635,-32.985 68.645,-51.777c8.813,-12.729 13.176,-27.88 17.294,-42.95c3.039,-11.121 5.744,-22.248 12.459,-31.03c11.292,-14.766 25.124,-23.871 38.221,-34.209c16.017,-12.643 31.146,-26.732 42.149,-49.946c10.31,-21.751 19.142,-43.57 21.33,-67.769c0.806,-8.917 0.655,-17.917 -0.448,-26.8c-0.281,-2.271 -2.007,-7.456 -3.321,-11.178c0.486,-5.656 -1.931,-11.419 -6.87,-14.971c-6.818,-4.904 -12.328,-3.746 -15.175,-2.963c-5.887,1.618 -10.905,5.501 -12.268,13.673c-0.311,1.866 -0.456,5.21 0.778,9.366c0.763,2.567 3.433,9.626 3.832,10.674Z" style="fill:#7e4021;"/><path d="M2350.41,281.408c0.877,-0.78 2.186,-1.953 2.82,-2.552c10.512,-9.916 24.457,-16.689 38.617,-19.488c4.732,-0.936 8.658,-1.412 11.924,-1.401c0.956,0.004 2.102,0.146 2.947,0.277c0.143,1.038 0.322,2.57 0.339,3.659c0.072,4.501 -0.349,9.402 -0.483,14.264c-0.364,13.101 1.746,25.691 9.705,34.907c7.489,8.671 15.907,14.658 23.536,20.825c6.706,5.422 12.62,11.026 13.567,22.856c-0.495,2.245 -2.418,10.844 -4.765,19.886c-13.285,51.159 -47.068,168.982 -50.431,175.602c-12.791,25.183 -34.595,47.455 -57.461,63.788c-7.486,5.347 -9.222,15.765 -3.875,23.25c5.346,7.485 15.764,9.222 23.249,3.875c27.091,-19.351 52.652,-45.981 67.806,-75.817c3.495,-6.879 39.17,-129.156 52.975,-182.321c4.084,-15.727 5.981,-26.464 5.882,-28.543c-1.023,-21.494 -9.312,-33.515 -20.178,-43.518c-7.564,-6.964 -17.06,-12.387 -25.077,-21.67c-2.703,-3.13 -1.736,-7.748 -1.613,-12.197c0.174,-6.288 0.695,-12.638 0.408,-18.299c-0.485,-9.537 -3.24,-17.627 -8.714,-23.589c-6.885,-7.501 -19.976,-13.72 -46.205,-8.535c-20.202,3.994 -40.028,13.794 -55.027,27.942c-2.346,2.213 -5.877,5.209 -8.053,8.386c-2.373,3.463 -3.725,7.218 -4.042,11.006c-0.767,9.167 6.053,17.231 15.219,17.998c7.54,0.631 14.334,-3.871 16.93,-10.591Z" style="fill:#7e4021;"/><path d="M2521.67,735.119c39.37,-21.66 73.774,-40.544 120.024,-46.494c26.316,-3.386 52.184,1.577 78.043,7.236c28.82,6.307 57.629,13.525 86.813,13.999c33.324,0.54 63.084,-8.964 92.354,-19.799c26.132,-9.673 51.821,-20.487 80.032,-23.793c15.931,-1.867 32.056,-0.557 48.118,-0.279c18.804,0.325 37.506,-0.675 55.862,-7.253c17.472,-6.261 31.962,-19.165 40.072,-35.925c11.786,-24.357 12.174,-44.814 5.594,-61.91c-9.221,-23.958 -33.824,-42.233 -66.912,-54.589c-70.718,-26.407 -181.517,-28.028 -214.372,-33.529c-67.76,-11.346 -127.18,-49.489 -195.232,-59.605c-9.099,-1.352 -17.584,4.937 -18.937,14.035c-1.352,9.099 4.937,17.584 14.035,18.936c67.851,10.086 127.07,48.198 194.63,59.51c31.894,5.34 139.562,6.244 208.215,31.881c22.673,8.466 41.146,18.918 47.464,35.335c3.779,9.818 2.279,21.428 -4.49,35.417c-4.309,8.905 -12.028,15.738 -21.311,19.065c-14.455,5.179 -29.233,5.56 -44.041,5.303c-17.55,-0.303 -35.168,-1.538 -52.574,0.501c-30.881,3.619 -59.12,15.051 -87.725,25.639c-25.466,9.427 -51.248,18.201 -80.241,17.731c-26.987,-0.438 -53.579,-7.401 -80.229,-13.233c-29.613,-6.48 -59.285,-11.611 -89.422,-7.734c-50.709,6.524 -88.672,26.601 -131.838,50.35c-8.059,4.433 -11.003,14.577 -6.569,22.636c4.434,8.059 14.577,11.003 22.637,6.569Z" style="fill:#7e4021;"/><path d="M2230.52,1067.98c5.205,-8.191 10.902,-16.053 16.813,-23.746c20.967,-27.284 44.528,-52.473 76.688,-66.38c15.915,-6.882 33.404,-8.357 50.624,-10.387c20.924,-2.467 41.499,-5.637 59.794,-15.428c27.384,-14.657 49.228,-36.109 71.621,-57.029c19.818,-18.515 40.076,-36.646 66.766,-47.09c12.527,-4.902 23.365,-6.822 32.03,-5.957c5.067,0.506 9.197,1.666 11.318,4.631c1.709,2.39 1.272,5.627 0.054,9.262c-2.491,7.434 -8.6,15.509 -18.209,23.988c-6.897,6.086 -7.556,16.627 -1.47,23.524c6.086,6.898 16.627,7.556 23.524,1.47c33.857,-29.873 35.524,-60.428 23.211,-77.639c-11.857,-16.572 -41.667,-26.339 -82.604,-10.32c-30.782,12.045 -54.52,32.42 -77.376,53.773c-20.282,18.948 -39.791,38.723 -64.595,51.998c-14.628,7.829 -31.236,9.741 -47.966,11.713c-20.434,2.409 -41.067,4.729 -59.952,12.896c-37.461,16.199 -65.467,44.884 -89.888,76.664c-6.515,8.478 -12.779,17.152 -18.516,26.178c-4.934,7.763 -2.637,18.072 5.127,23.006c7.763,4.934 18.072,2.637 23.006,-5.127Z" style="fill:#edaf5f;"/><path d="M1997.69,1108.02c-65.583,25.516 -122.692,24.772 -166.281,-0.413c-43.636,-25.212 -72.925,-74.397 -84.463,-142.796c-1.529,-9.07 -10.136,-15.192 -19.206,-13.662c-9.071,1.53 -15.193,10.136 -13.663,19.206c13.507,80.077 49.57,136.598 100.656,166.114c51.134,29.544 118.11,32.548 195.043,2.616c8.573,-3.335 12.825,-13.003 9.49,-21.576c-3.336,-8.572 -13.003,-12.824 -21.576,-9.489Z" style="fill:#edaf5f;"/><path d="M1966.41,925.24c-1.162,1.475 -9.547,8.766 -11.587,11.28c-5.796,7.143 -4.703,17.647 2.44,23.443c7.258,5.889 14.126,5.689 20.619,2.623c2.94,-1.389 6.162,-3.913 8.97,-7.734c1.517,-2.064 4.406,-6.769 5.42,-8.443c16.828,-9.137 35.958,-13.899 53.839,-20.487c56.568,-20.84 92.854,-42.225 107.911,-103.735c3.037,-12.405 3.918,-26.795 12.308,-36.962c8.271,-10.023 20.094,-15.498 32.205,-20.697c15.655,-6.721 31.926,-12.758 45.426,-22.258c7.523,-5.294 9.333,-15.699 4.039,-23.222c-5.294,-7.523 -15.699,-9.332 -23.222,-4.039c-11.659,8.205 -25.873,13.084 -39.393,18.889c-17.067,7.327 -33.109,15.986 -44.764,30.11c-11.57,14.02 -14.789,33.149 -18.976,50.253c-11.919,48.692 -42.278,63.885 -87.057,80.383c-20.103,7.406 -41.526,13.023 -60.277,23.609c-2.762,1.559 -5.487,3.92 -7.901,6.987Z" style="fill:#edaf5f;"/><path d="M2245.67,412.776c-0.033,2.547 0.525,5.138 1.735,7.574c4.092,8.238 14.103,11.605 22.341,7.513c5.136,-2.551 9.287,-7.129 9.766,-14.964c0.155,-2.538 -0.312,-6.578 -2.15,-11.232c-3.242,-8.211 -11.863,-21.704 -12.774,-22.941c-35.522,-48.257 -111.129,-63.389 -161.819,-31.421c-34.556,21.793 -50.141,50.077 -61.309,80.967c-9.661,26.723 -15.552,55.588 -31.147,82.715c-18.694,32.518 -51.407,54.342 -79.82,77.695c-7.106,5.84 -8.133,16.352 -2.293,23.458c5.841,7.106 16.353,8.134 23.459,2.293c31.453,-25.852 66.858,-50.835 87.552,-86.833c16.619,-28.909 23.301,-59.517 33.597,-87.995c8.789,-24.311 20.546,-46.954 47.743,-64.105c36.724,-23.161 91.457,-11.976 117.192,22.986c0.508,0.691 5.832,10.439 7.927,14.29Zm8.43,-14.331c-1.12,0.63 -2.147,1.373 -3.066,2.24c0.915,-0.849 1.94,-1.603 3.066,-2.24Zm0.083,-0.048l0.735,-0.388c-0.249,0.124 -0.495,0.253 -0.735,0.388Z" style="fill:#edaf5f;"/><path d="M1737.51,550.854c-0.851,1.354 -2.05,3.252 -2.244,3.517c-17.534,23.842 -41.43,40.77 -66.478,56.274c-27.328,16.915 -56.058,32.12 -80.931,51.071c-35.235,26.845 -52.797,65.353 -69.768,104.518c-14.761,34.064 -28.969,68.715 -59.538,93.035c-29.226,23.25 -66.041,27.038 -102.609,31.731c-42.691,5.479 -85.124,11.882 -119.241,39.575c-40.145,32.586 -34.459,82.84 -7,120.776c5.393,7.451 15.822,9.122 23.273,3.729c7.452,-5.394 9.123,-15.822 3.729,-23.274c-17.104,-23.63 -24.001,-55.053 1.005,-75.351c29.185,-23.69 65.957,-27.706 102.477,-32.393c42.644,-5.473 85.036,-11.594 119.118,-38.708c35.03,-27.868 52.456,-66.833 69.371,-105.866c14.704,-33.933 28.857,-67.998 59.384,-91.258c24.036,-18.312 51.866,-32.897 78.273,-49.242c28.689,-17.757 55.705,-37.561 75.788,-64.868c0.933,-1.269 7.026,-10.595 8.247,-15.45c2.118,-8.427 -1.232,-14.442 -4.909,-17.897c-6.703,-6.3 -17.26,-5.972 -23.559,0.731c-2.514,2.674 -3.972,5.962 -4.388,9.35Z" style="fill:#edaf5f;"/><path d="M2786.94,590.988c3.753,0.305 7.629,-0.654 10.942,-2.992c7.516,-5.304 9.311,-15.712 4.007,-23.227c-0.965,-1.368 -4.55,-6.614 -13.034,-7.099c-1.855,-0.106 -10.721,0.455 -12.474,0.569c-50.363,-0.007 -106.955,-25.223 -149.397,-50.145c-17.624,-10.349 -36.148,-22.062 -50.003,-37.279c-14.693,-16.137 -21.124,-37.037 -10.214,-56.697c7.935,-14.297 24.147,-25.453 42.682,-33.542c29.458,-12.856 65.335,-17.827 89.332,-10.355c11.245,3.501 21.087,9.822 31.048,15.844c12.496,7.556 25.13,14.744 39.427,18.434c13.713,3.538 25.996,3.518 39.804,0.949c9.043,-1.682 15.019,-10.39 13.337,-19.434c-1.683,-9.043 -10.391,-15.019 -19.434,-13.337c-8.802,1.638 -16.636,1.802 -25.377,-0.454c-11.122,-2.87 -20.789,-8.804 -30.51,-14.682c-12.257,-7.411 -24.547,-14.837 -38.386,-19.146c-30.198,-9.403 -75.502,-4.549 -112.574,11.63c-25.819,11.268 -47.443,28.003 -58.495,47.918c-18.264,32.912 -9.884,68.299 14.712,95.313c16.076,17.656 37.324,31.574 57.772,43.582c47.278,27.762 110.685,54.872 166.752,54.736c0.331,-0 8.278,-0.478 10.083,-0.586Z" style="fill:#edaf5f;"/><path d="M1783.95,115.32l18.187,8.261c18.229,13.082 21.565,34.978 14.322,55.501c-2.677,7.584 -9.466,17.701 -13.975,27.604c-4.604,10.11 -6.995,20.198 -5.837,28.651c1.975,14.422 11.77,23.171 25.056,29.415c4.262,2.004 8.898,3.777 13.171,5.923c2.629,1.32 5.567,2.239 6.533,5.025c1.764,5.089 -0.937,12.036 -6.85,23.532c-16.345,31.771 -48.551,57.582 -77.014,78.283c-7.439,5.41 -9.086,15.842 -3.676,23.281c5.41,7.44 15.842,9.087 23.282,3.677c32.451,-23.602 68.413,-53.769 87.048,-89.992c13.242,-25.739 12.315,-41.996 7.524,-52.675c-3.819,-8.514 -10.504,-14.636 -18.751,-19.258c-5.38,-3.015 -11.51,-5.341 -17.088,-7.963c-1.615,-0.759 -3.168,-1.538 -4.554,-2.449c-0.632,-0.414 -1.547,-0.525 -1.656,-1.323c-0.609,-4.441 2.629,-9.519 5.344,-14.836c4.784,-9.368 10.346,-18.634 12.876,-25.801c12.412,-35.169 4.525,-72.159 -27.188,-94.303c-1.037,-0.724 -13.504,-7.452 -22.882,-11.158c-6.63,-2.62 -12.52,-3.47 -15.325,-3.227c-9.951,0.86 -14.274,6.882 -15.771,13.537c-2.019,8.974 3.628,17.899 12.602,19.918c1.554,0.35 3.107,0.469 4.622,0.377Z" style="fill:#edaf5f;"/><path d="M1520.29,326.905c-0.098,0.542 -0.274,1.389 -0.471,1.941c-0.945,2.66 -2.559,5.396 -4.493,8.208c-13.732,19.965 -41.655,40.962 -48.186,48.302c-17.707,19.9 -22.553,48.659 -29.53,75.117c-4.831,18.323 -10.557,35.745 -31.326,42.145c-20.394,6.285 -42.756,4.462 -63.701,8.244c-9.052,1.635 -15.074,10.311 -13.44,19.363c1.634,9.052 10.311,15.075 19.363,13.44c22.245,-4.016 45.935,-2.517 67.595,-9.192c33.509,-10.327 45.945,-35.938 53.741,-65.501c5.648,-21.42 7.865,-45.347 22.201,-61.458c4.627,-5.201 19.817,-17.217 33.259,-30.914c10.717,-10.92 20.25,-22.916 24.814,-33.732c3.65,-8.651 4.489,-16.952 2.65,-24.342c-2.009,-8.074 -7.033,-15.662 -17.214,-21.431c-10.551,-5.979 -22.22,-7.067 -34.868,-4.103c-13.975,3.274 -29.651,12.152 -46.095,22.861c-17.456,11.368 -36.076,24.849 -55.001,32.851c-14.944,6.318 -30.053,9.286 -44.572,1.338c-8.068,-4.417 -18.205,-1.452 -22.622,6.617c-4.417,8.068 -1.453,18.205 6.616,22.622c20.287,11.106 41.254,10.977 62.19,4.344c17.894,-5.669 35.82,-16.353 52.954,-27.556c15.148,-9.904 29.619,-20.206 42.932,-26.49c8.285,-3.911 15.612,-7.121 22.033,-3.483c0.376,0.213 0.841,0.553 1.171,0.809Z" style="fill:#edaf5f;"/><path d="M868.555,449.937c-2.955,1.83 -5.364,4.594 -6.729,8.076c-3.358,8.563 0.868,18.242 9.432,21.6c7.468,2.928 13.511,1.443 18.684,-2.333c2.897,-2.113 5.794,-5.634 7.822,-10.448c0.888,-2.11 2.417,-6.549 2.857,-7.844c10.456,-12.471 23.27,-22.165 37.69,-29.703c17.271,-9.028 36.869,-12.92 55.848,-18.008c22.607,-6.061 44.38,-13.69 62.312,-29.215c20.164,-17.457 34.481,-40.207 49.483,-62.276c12.821,-18.861 26.109,-37.281 46.369,-49.335c10.622,-6.32 38.967,-11.73 59.898,-7.472c8.396,1.708 16.194,4.622 16.194,13.452c0,9.198 7.468,16.667 16.667,16.667c9.198,-0 16.666,-7.469 16.666,-16.667c0,-26.411 -17.767,-41.007 -42.882,-46.116c-29.257,-5.953 -68.74,2.655 -83.588,11.49c-24.577,14.623 -41.337,36.36 -56.892,59.242c-13.373,19.674 -25.757,40.252 -43.733,55.815c-14.048,12.162 -31.414,17.47 -49.126,22.219c-21.34,5.721 -43.238,10.512 -62.658,20.663c-18.706,9.778 -35.201,22.517 -48.643,38.837c-1.842,2.236 -4.165,7.588 -5.671,11.356Z" style="fill:#edaf5f;"/><path d="M717.873,647.6l-0.322,-0.346c-1.265,-2.526 -3.193,-4.76 -5.721,-6.422c-5.463,-3.592 -9.625,-3.057 -11.34,-2.881c-4.92,0.503 -8.36,2.739 -10.879,5.61c-2.608,2.973 -5.762,8.134 -3.442,15.898c0.341,1.139 1.176,3.388 3.055,5.949c1.958,2.67 6.649,7.498 9.086,9.2c6.768,4.731 14.987,7.791 23.002,9.503c17.263,3.687 34.877,3.064 52.348,1.778c19.362,-1.425 45.024,-10.482 70.36,-17.43c20.162,-5.528 40.023,-10.553 54.581,-4.214c5.698,2.482 5.009,8.089 3.929,14.105c-1.529,8.507 -5.212,17.947 -9.293,27.464c-8.647,20.168 -18.851,40.614 -21.295,55.054c-1.901,11.236 0.219,20.29 5.136,26.744c5.668,7.44 13.983,11.801 24.804,12.974c10.032,1.087 23.09,-0.938 37.316,-4.027c14.369,-3.12 30.239,-7.276 44.838,-7.93c10.163,-0.455 19.756,0.395 26.16,7.642c6.091,6.893 16.633,7.544 23.525,1.453c6.893,-6.092 7.544,-16.633 1.453,-23.526c-11.224,-12.7 -26.373,-18.174 -43.562,-18.897c-13.789,-0.581 -29.033,2.028 -43.783,5.212c-12.628,2.725 -24.834,5.886 -35.009,6.832c-2.294,0.213 -4.448,0.306 -6.432,0.179c-0.433,-0.028 -0.962,-0.108 -1.468,-0.207c0.427,-2.443 1.235,-6.538 2.293,-9.577c5.71,-16.396 16.876,-37.071 23.369,-55.894c10.524,-30.513 7.929,-56.577 -18.673,-68.162c-16.8,-7.316 -38.567,-6.339 -61.499,-1.196c-27.8,6.234 -57.638,18.571 -79.196,20.158c-14.328,1.054 -28.782,1.891 -42.94,-1.133c-3.573,-0.763 -7.316,-1.893 -10.401,-3.913Z" style="fill:#edaf5f;"/><path d="M1663.8,882.076c-0.299,0.312 -5.562,7.941 -6.184,9.528c-16.948,43.271 -23.895,95.677 -9.118,140.315c4.5,13.594 11.639,25.735 18.548,38.012c5.577,9.91 11.046,19.901 13.553,31.498c2.173,10.047 1.466,20.307 0.924,30.605c-0.693,13.172 -1.246,26.395 1.387,39.474c5.899,29.305 23.547,52.124 47.156,68.671c32.987,23.119 77.844,33.671 114.77,33.128c9.198,-0.135 16.555,-7.712 16.42,-16.909c-0.135,-9.198 -7.712,-16.556 -16.91,-16.42c-25.62,0.376 -55.868,-5.507 -81.129,-18.634c-23.214,-12.063 -42.374,-30.307 -47.63,-56.414c-2.076,-10.316 -1.324,-20.755 -0.777,-31.144c0.699,-13.263 1.168,-26.462 -1.63,-39.401c-3.235,-14.96 -9.891,-28.018 -17.084,-40.801c-5.861,-10.415 -12.136,-20.608 -15.953,-32.14c-12.278,-37.091 -5.84,-80.513 8.099,-116.608c0.494,-0.555 0.952,-1.154 1.375,-1.791c3.13,-4.719 2.87,-7.91 2.903,-8.449c0.587,-9.513 -4.758,-13.833 -9.468,-16.077c-1.545,-0.736 -10.832,-5.24 -19.252,3.557Z" style="fill:#fee4a8;"/><path d="M1987.26,1225.67c-1.569,0.121 -8.907,0.711 -11.653,1.296c-4.456,0.95 -7.665,2.887 -9.701,4.7c-3.212,2.861 -5.004,6.299 -5.701,10.09c-0.685,3.723 -0.597,8.529 3.167,13.925c5.263,7.544 15.661,9.397 23.205,4.134c0.365,-0.255 0.717,-0.522 1.052,-0.804c4.138,-0.509 9.639,-1.342 11.986,-2.359c12.139,-5.26 23.75,-11.946 34.631,-19.46c16.735,-11.557 32.484,-29.542 48.523,-46.58c13.392,-14.226 26.806,-27.963 42.222,-33.959c12.963,-5.04 25.485,-0.65 38.189,2.299c19.598,4.549 39.364,7.502 60.187,-2.833c21.729,-10.784 39.643,-26.884 57.378,-43.154c15.434,-14.159 30.695,-28.488 49.437,-37.859c7.465,-3.733 15.19,-6.62 23.282,-8.643c8.924,-2.231 14.358,-11.287 12.127,-20.211c-2.231,-8.924 -11.288,-14.358 -20.212,-12.127c-10.462,2.616 -20.452,6.341 -30.104,11.167c-21.527,10.763 -39.337,26.848 -57.064,43.11c-15.426,14.151 -30.762,28.479 -49.663,37.859c-16.542,8.21 -32.074,1.361 -47.603,-2.024c-15.904,-3.466 -31.766,-4.977 -48.035,1.35c-19.587,7.617 -37.396,24.102 -54.411,42.176c-14.367,15.261 -28.205,31.648 -43.195,42c-8.829,6.098 -18.217,11.572 -28.044,15.907Z" style="fill:#fee4a8;"/><path d="M2220.4,827.412l11.975,-10.02c19.171,-12.798 40.442,-20.499 61.634,-28.03c23.695,-8.421 47.319,-16.621 68.654,-29.622c39.648,-24.16 67.25,-64.945 98.541,-98.804c26.851,-29.054 56.808,-52.643 104.662,-48.446c9.163,0.804 17.255,-5.983 18.059,-15.146c0.804,-9.163 -5.983,-17.256 -15.146,-18.059c-60.018,-5.265 -98.379,22.588 -132.055,59.028c-29.235,31.634 -54.364,70.39 -91.406,92.962c-19.383,11.812 -40.945,19.028 -62.471,26.678c-23.909,8.497 -47.773,17.476 -69.376,31.978c-1.344,0.903 -13.148,10.712 -15.397,12.722c-2.666,2.382 -3.635,4.361 -3.811,4.68c-3.02,5.467 -2.171,9.861 -1.533,12.292c1.28,4.878 4.175,8.417 8.631,10.659c6.481,3.26 14.088,1.887 19.039,-2.872Z" style="fill:#fee4a8;"/><path d="M2698.84,791.388c1.108,0.463 2.413,1.002 3.002,1.222c13.159,4.92 27.561,8.034 41.429,10.012c23.183,3.307 47.95,3.173 71.003,-1.03c39.959,-7.284 66.673,-21.939 90.943,-33.36c15.112,-7.111 29.019,-12.962 45.736,-13.05c17.057,-0.089 36.739,5.817 63.245,20.727c8.017,4.51 18.188,1.662 22.697,-6.355c4.51,-8.017 1.663,-18.188 -6.355,-22.697c-33.29,-18.726 -58.339,-25.119 -79.761,-25.008c-21.763,0.114 -40.081,6.965 -59.755,16.222c-22.11,10.405 -46.324,24.092 -82.728,30.728c-19.583,3.57 -40.624,3.633 -60.317,0.824c-11.53,-1.645 -23.525,-4.146 -34.464,-8.235c-2.557,-0.956 -9.194,-3.174 -10.252,-3.253c-9.683,-0.721 -13.993,5.121 -15.899,8.563c-1.132,2.042 -7.021,12.698 4.788,21.651c2.043,1.549 4.33,2.555 6.688,3.039Z" style="fill:#fee4a8;"/><path d="M1954.48,127.15c0.374,-0.418 0.731,-0.858 1.069,-1.322c5.416,-7.435 3.777,-17.868 -3.658,-23.284c-5.36,-3.905 -11.274,-4.651 -17.67,-1.468c-2.127,1.058 -5.295,3.283 -7.768,7.386c-1.765,2.925 -3.944,9.021 -4.188,9.635c-8.314,20.955 -10.741,43.862 -3.129,65.507c5.247,14.923 16.097,26.157 27.188,36.025c4.788,4.259 9.561,8.221 13.323,12.409c1.934,2.152 3.743,4.181 4.205,6.752c0.417,2.328 -0.616,4.798 -2.389,7.917c-3.55,6.246 -9.885,13.346 -19.538,22c-6.849,6.141 -7.424,16.686 -1.283,23.535c6.14,6.849 16.686,7.425 23.535,1.284c24.657,-22.107 32.423,-39.125 33.04,-51.977c0.722,-15.033 -7.339,-27.272 -19.675,-38.725c-9.33,-8.662 -22.186,-16.702 -26.96,-30.277c-4.903,-13.942 -2.689,-28.66 2.667,-42.156l1.231,-3.241Z" style="fill:#fee4a8;"/><path d="M1381.87,819.099c2.664,-2.245 23.384,-20.089 32.754,-38.828c7.413,-14.827 14.264,-35.241 24.388,-52.108c7.366,-12.271 16.279,-23.047 30.985,-23.613c9.192,-0.353 16.368,-8.103 16.014,-17.295c-0.353,-9.191 -8.103,-16.367 -17.295,-16.013c-21.878,0.841 -38.096,12.034 -50.599,28.376c-14.801,19.347 -23.809,46.749 -33.307,65.746c-7.425,14.848 -22.112,26.275 -24.851,28.611c-10.345,8.823 -5,19.885 -4.624,20.636c4.113,8.228 14.133,11.568 22.36,7.454c1.578,-0.789 2.977,-1.795 4.175,-2.966Z" style="fill:#fee4a8;"/><path d="M1153.26,905.662c0.777,-0.271 18.74,-5.362 19.161,-5.334c9.179,0.603 17.12,-6.36 17.723,-15.539c0.302,-4.6 -1.062,-8.433 -3.585,-11.665c-2.009,-2.572 -5.142,-5.234 -10.185,-6.315c-2.074,-0.445 -5.933,-0.661 -10.747,0.308c-7.852,1.582 -22.199,6.672 -23.319,7.062c-19.473,6.774 -38.613,14.537 -58.422,20.319c-20.819,6.076 -50.463,10.339 -75.656,5.501c-20.49,-3.935 -38.07,-14.38 -40.478,-38.461c-0.916,-9.152 -9.09,-15.84 -18.243,-14.925c-9.153,0.915 -15.841,9.089 -14.925,18.242c3.354,33.546 22.705,52.812 48.623,62.65c33.5,12.716 79.529,7.89 110.018,-1.009c20.351,-5.94 40.029,-13.875 60.035,-20.834Z" style="fill:#fee4a8;"/><path d="M697.819,856.564c-3.01,0.167 -7.102,0.452 -8.78,0.796c-10.387,2.126 -20.717,3.894 -31.341,4.216c-5.865,0.178 -11.771,0.042 -17.611,-0.56c-38.997,-4.021 -90.422,-18.785 -113.544,-52.445c-29.223,-42.544 -28.672,-88.347 -16.709,-133.471c12.948,-48.836 39.018,-96.958 59.328,-140.38c3.898,-8.332 0.297,-18.261 -8.035,-22.158c-8.332,-3.898 -18.261,-0.297 -22.158,8.035c-21.101,45.112 -47.904,95.225 -61.355,145.961c-14.436,54.448 -13.809,109.551 21.454,160.886c28.272,41.158 89.917,61.813 137.6,66.73c7.309,0.753 14.699,0.942 22.039,0.72c12.543,-0.38 24.752,-2.368 37.016,-4.878c2.023,-0.414 6.634,-0.246 8.891,-0.466c3.51,-0.341 5.985,-1.32 7.193,-1.919c6.798,-3.368 8.708,-8.745 9.261,-12.85c0.426,-3.154 1.56,-13.54 -11.472,-18.33c-3.963,-1.457 -8.127,-1.311 -11.777,0.113Z" style="fill:#fee4a8;"/><path d="M1327.58,181.354c-7.874,-8.237 -37.051,-36.273 -75.656,-43.908c-30.136,-5.96 -71.342,-3.389 -127.962,21.275c-66.819,29.107 -117.215,83.118 -181.526,114.951c-0.369,0.183 -2.084,1.169 -3.158,1.792c-5.044,1.325 -9.391,4.993 -11.367,10.242c-3.241,8.609 1.118,18.229 9.727,21.47c2.169,0.817 4.966,1.385 8.33,0.969c2.771,-0.342 11.879,-4.929 11.879,-4.929c-0,0 -0.469,0.254 -0.623,0.33c63.828,-31.594 113.733,-85.377 180.05,-114.266c53.032,-23.101 89.798,-24.654 115.795,-17.313c24.93,7.04 39.241,22.105 48.334,30.939c5.218,5.069 9.598,8.641 13.002,10.356c4.374,2.204 8.45,2.739 12.104,2.339c9.992,-1.096 20.335,-5.77 30.152,-12.363c11.463,-7.699 22.316,-18.052 31.013,-24.807c60.79,-47.212 128.334,-90.322 207.018,-63.19c8.696,2.999 18.19,-1.627 21.189,-10.323c2.999,-8.696 -1.627,-18.191 -10.323,-21.189c-90.134,-31.081 -168.693,14.293 -238.33,68.376c-6.98,5.421 -15.372,13.286 -24.366,20.046c-5.009,3.764 -10.107,7.392 -15.282,9.203Z" style="fill:#fee4a8;"/><path d="M1730.96,1874.45c-86.199,-80.409 -163.233,-183.664 -283.701,-217.314c-34.219,-9.558 -68.697,-3.775 -102.89,1.043c-28.725,4.047 -57.267,7.542 -85.081,-5.607c-153.679,-72.647 -258.664,-184.093 -441.275,-252.571c-8.612,-3.23 -18.227,1.14 -21.457,9.753c-3.23,8.613 1.14,18.228 9.753,21.458c181.626,68.109 285.883,179.24 438.733,251.496c34.03,16.087 68.833,13.43 103.977,8.478c29.673,-4.18 59.577,-10.24 89.273,-1.946c115.2,32.179 187.5,132.691 269.931,209.585c6.726,6.274 17.281,5.907 23.556,-0.819c6.274,-6.726 5.907,-17.281 -0.819,-23.556Z" style="fill:#7e4021;"/><path d="M727.652,1556.63c1.657,-8.684 -19.931,-28.287 -22.333,-30.109c-10.369,-7.866 -20.859,-15.567 -31.219,-23.445c-32.408,-24.646 -64.107,-50.223 -96.457,-74.949c-52.091,-39.815 -107.776,-85.091 -169.071,-110.11c-21.714,-8.863 -45.284,-13.695 -68.297,-19.615c-20.33,-5.229 -40.24,-11.267 -57.367,-23.256c-7.536,-5.275 -17.937,-3.439 -23.212,4.097c-5.275,7.535 -3.439,17.936 4.097,23.211c20.416,14.292 43.943,21.997 68.178,28.23c21.55,5.544 43.671,9.895 64.004,18.195c58.624,23.928 111.606,67.652 161.426,105.731c32.372,24.743 64.092,50.336 96.522,74.999c10.37,7.886 20.871,15.595 31.251,23.469c3.207,2.433 7.492,9.485 10.621,12.497c3.588,3.454 7.231,5.096 9.847,5.743c5.114,1.265 9.591,0.338 13.475,-2.012c3.202,-1.937 7.14,-5.371 8.535,-12.676Z" style="fill:#7e4021;"/></g></svg>