<?xml version="1.0" encoding="UTF-8" standalone="no"?><!DOCTYPE svg PUBLIC "-//W3C//DTD SVG 1.1//EN" "http://www.w3.org/Graphics/SVG/1.1/DTD/svg11.dtd"><svg width="100%" height="100%" viewBox="0 0 4141 2477" version="1.1" xmlns="http://www.w3.org/2000/svg" xmlns:xlink="http://www.w3.org/1999/xlink" xml:space="preserve" xmlns:serif="http://www.serif.com/" style="fill-rule:evenodd;clip-rule:evenodd;stroke-linejoin:round;stroke-miterlimit:2;"><g id="Crusty-bread" serif:id="Crusty bread"><path d="M1197.17,377.262c-648.85,429 -1044.68,837.059 -1170.65,1199.68c127.778,-249.469 703.673,-502.897 1116.42,-382.046c169.082,49.506 185.341,169.456 357.818,205.93c112.581,23.808 233.535,38.393 372.141,196.414c85.024,96.935 12.269,134.869 173.283,309.528c128.575,139.472 434.817,222.852 322.802,527.996c82.835,-38.656 783.434,-449.716 1083.19,-668.936c324.135,-237.048 696.726,-593.456 670.116,-938.373c-57.141,-740.653 -1121.25,-824.056 -1656.72,-808.37c-320.442,9.386 -1000.92,181.318 -1268.41,358.174Z" style="fill:#d3af98;"/><path d="M1187.98,363.359c-652.957,431.716 -1050.43,843.197 -1177.2,1208.12c-2.873,8.27 1.143,17.354 9.194,20.795c8.051,3.44 17.392,0.065 21.384,-7.728c49.873,-97.371 170.239,-194.728 321.863,-269.714c229.529,-113.514 531.168,-175.34 775.043,-103.935c81.64,23.903 126.218,65.087 171.372,104.424c48.669,42.398 97.923,82.836 187.681,101.817c109.77,23.213 227.917,37.025 363.06,191.098c31.714,36.157 39.771,63.57 47.772,93.802c13.295,50.241 25.977,107.764 125.786,216.033c51.949,56.351 132.479,103.804 203.33,159.987c60.212,47.746 113.499,101.863 132.185,175.583c12.37,48.801 9.357,106.028 -16.104,175.386c-2.326,6.337 -0.6,13.451 4.371,18.017c4.971,4.567 12.206,5.684 18.323,2.829c83.046,-38.755 785.462,-450.808 1085.98,-670.586c195.992,-143.334 409.424,-330.111 543.13,-531.568c90.671,-136.615 144.677,-280.109 133.765,-421.54c-23.352,-302.692 -210.718,-498.388 -462.884,-622.693c-372.649,-183.697 -887.544,-210.528 -1210.94,-201.055c-322.661,9.452 -1007.77,182.851 -1277.12,360.931l-0.001,0Zm18.385,27.805c265.636,-175.631 941.483,-346.095 1259.71,-355.417c319.161,-9.349 827.449,16.341 1195.22,197.634c241.45,119.023 422.028,305.529 444.388,595.359c10.377,134.503 -42.074,270.62 -128.304,400.543c-131.645,198.352 -342.063,381.971 -535.034,523.095c-272.808,199.51 -878.439,558.365 -1045.2,648.983c16.193,-59.896 15.965,-111.121 4.611,-155.913c-20.498,-80.866 -77.737,-141.137 -143.786,-193.511c-69.437,-55.062 -148.621,-101.237 -199.532,-156.463c-93.407,-101.322 -105.629,-154.948 -118.071,-201.967c-9.159,-34.608 -18.631,-65.863 -54.937,-107.254c-142.068,-161.97 -265.828,-177.327 -381.222,-201.73c-82.718,-17.493 -127.831,-55.267 -172.682,-94.339c-48.365,-42.133 -96.457,-85.678 -183.901,-111.281c-251.426,-73.615 -562.551,-10.982 -799.186,106.046c-102.194,50.54 -190.411,111.295 -254.325,175.368c164.301,-328.695 539.363,-690.378 1112.25,-1069.15l0.001,0Z" style="fill:#7e4021;"/><path d="M1924.5,1707.52c89.802,-155.484 195.528,-212.043 350.152,-268.27c41.359,-15.039 86.209,-16.896 124.078,-41.956c56.628,-37.474 102.72,-86.998 150.012,-135.837c45.32,-46.802 91.765,-92.986 151.035,-125.825c50.343,-27.893 106.215,-43.939 158.289,-64.667c55.532,-22.104 106.803,-49.465 144.474,-98.727c5.588,-7.307 4.192,-17.776 -3.115,-23.364c-7.307,-5.587 -17.776,-4.192 -23.363,3.115c-33.854,44.271 -80.418,68.142 -130.323,88.006c-53.362,21.24 -110.528,37.897 -162.116,66.48c-62.228,34.477 -111.247,82.657 -158.827,131.794c-45.608,47.099 -89.851,95.088 -144.462,131.227c-35.624,23.575 -78.165,24.28 -117.073,38.428c-162.612,59.131 -273.185,119.41 -367.626,282.925c-4.6,7.965 -1.869,18.167 6.097,22.768c7.965,4.6 18.167,1.869 22.768,-6.097Z" style="fill:#7e4021;"/><path d="M2566.69,1637.66c26.59,-43.21 42.907,-88.462 61.17,-133.26c17.285,-42.401 36.365,-84.41 69.276,-123.415c7.04,-8.344 17.774,-14.759 31.003,-20.609c23.146,-10.235 53.383,-18.133 87.484,-26.948c90.101,-23.29 205.649,-52.591 294.773,-137.57c6.658,-6.348 6.909,-16.906 0.561,-23.564c-6.348,-6.657 -16.906,-6.908 -23.563,-0.561c-84.541,80.609 -194.646,107.33 -280.113,129.423c-36.127,9.338 -68.103,17.891 -92.624,28.735c-18.549,8.203 -33.126,17.898 -42.998,29.598c-35.332,41.874 -56.109,86.807 -74.666,132.328c-17.581,43.125 -33.094,86.777 -58.692,128.373c-4.821,7.834 -2.374,18.108 5.46,22.929c7.834,4.821 18.108,2.375 22.929,-5.459Z" style="fill:#7e4021;"/><path d="M2116.48,1978.94c7.966,-0.027 21.673,-4.641 37.106,-12.605c29.666,-15.311 68.354,-42.026 79.913,-50.445c37.506,-27.315 76.877,-59.282 121.289,-74.56c19.637,-6.755 32.849,-7.547 44.61,-8.942c21.694,-2.574 39.645,-6.139 74.178,-38.115c6.75,-6.249 7.156,-16.803 0.906,-23.552c-6.249,-6.75 -16.803,-7.156 -23.553,-0.906c-26.006,24.079 -39.122,27.534 -55.459,29.472c-13.593,1.613 -28.827,2.714 -51.525,10.522c-47.494,16.338 -89.961,49.926 -130.07,79.136c-10.935,7.965 -47.509,33.283 -75.576,47.769c-9.32,4.809 -17.121,8.876 -21.932,8.893c-9.198,0.031 -16.641,7.524 -16.61,16.723c0.032,9.198 7.525,16.641 16.723,16.61Z" style="fill:#7e4021;"/><path d="M703.271,1186.25l0.025,-0.898c0.183,-5.638 1.133,-27.344 3.689,-42.603c0.546,-3.256 1.74,-7.656 2.045,-8.756c26.504,-36.288 59.863,-56.227 100.705,-72.181c16.859,-6.586 27.572,-22.475 35.096,-42.408c4.267,-11.303 7.704,-23.904 12.041,-35.492c3.352,-8.96 7.021,-17.358 13.104,-22.966c30.698,-28.299 76.957,-45.633 120.991,-65.727c48.916,-22.322 95.052,-48.01 120.225,-89.964c4.733,-7.888 2.171,-18.134 -5.717,-22.866c-7.887,-4.733 -18.133,-2.171 -22.866,5.716c-21.872,36.454 -62.978,57.394 -105.481,76.789c-47.383,21.623 -96.713,41.092 -129.745,71.544c-14.948,13.78 -22.513,37.621 -29.933,60.252c-2.859,8.722 -5.768,17.164 -9.817,24.066c-2.601,4.433 -5.531,8.251 -10.026,10.007c-47.312,18.481 -85.52,42.132 -116.124,84.421c-2.71,3.746 -5.664,11.854 -7.373,22.058c-2.822,16.846 -3.928,40.804 -4.13,47.028c-0.053,1.629 -0.032,2.595 -0.024,2.765c0.436,9.228 6.399,12.4 7.138,12.913c5.896,4.098 11.925,4.304 18.087,0.607c5.203,-3.122 8.089,-8.644 8.09,-14.305Z" style="fill:#7e4021;"/><path d="M2134.55,197.826c4.819,-2.643 -70.427,57.01 -74.514,60.684c-13.329,11.981 -26.345,24.28 -39.875,36.039c-33.576,29.179 -69.141,55.338 -108.34,76.556c-37.823,20.473 -78.012,5.779 -116.227,20.849c-140.691,55.484 -277.384,140.609 -415.815,203.915c-8.815,4.032 -80.881,44.32 -88.279,34.455c-2.313,-3.085 4.641,-10.666 6.062,-12.422c29.996,-37.053 71.007,-67.769 106.764,-98.926c81.002,-70.581 175.339,-184.576 275.78,-227.87c27.282,-11.759 31.943,25.387 52.643,20.111c39.907,-10.173 69.176,-46.681 110.164,-56.635c37.197,-9.034 230.126,-46.059 291.637,-56.756Z" style="fill:#c48464;"/><path d="M1729.17,294.922c-0.55,-0.387 -1.562,-1.124 -2.145,-1.651c-0.969,-0.877 -1.917,-1.824 -2.87,-2.791c-2.915,-2.957 -5.867,-6.036 -9.057,-8.682c-10.499,-8.712 -22.957,-14.03 -41.593,-5.997c-101.874,43.911 -197.975,159.022 -280.132,230.61c-36.466,31.773 -78.179,63.218 -108.769,101.005c-1.918,2.37 -8.825,11.623 -9.907,17.657c-1.072,5.973 0.375,11.13 3.465,15.251c2.449,3.265 5.935,5.914 10.8,7.29c3.937,1.113 10.05,1.315 17.59,-0.49c23.374,-5.596 72.835,-32.75 80.155,-36.098c138.166,-63.185 274.576,-148.189 414.998,-203.567c17.3,-6.823 35.098,-6.553 52.801,-7.25c22.037,-0.867 43.929,-2.909 65.245,-14.447c40.276,-21.801 76.84,-48.652 111.338,-78.633c13.601,-11.82 26.686,-24.18 40.084,-36.223c3.676,-3.305 64.952,-51.918 73.66,-59.683c8.025,-7.156 6.535,-15.168 6.41,-15.987c-1.051,-6.879 -4.858,-11.674 -12.256,-13.615c-1.137,-0.299 -4.368,-1.36 -8.924,0.069l0.007,-0.002c-63.434,11.092 -254.08,47.709 -291.094,56.698c-22.406,5.441 -41.758,17.844 -60.812,30.572c-15.682,10.476 -31.09,21.268 -48.994,25.964Zm344.54,-69.05c-12.802,10.352 -23.445,19.007 -24.82,20.243c-13.26,11.919 -26.206,24.156 -39.666,35.854c-32.652,28.376 -67.22,53.844 -105.34,74.478c-16.509,8.936 -33.621,9.783 -50.689,10.455c-21.401,0.842 -42.804,1.3 -63.719,9.548c-140.961,55.59 -277.936,140.834 -416.633,204.263c-3.641,1.665 -18.182,9.593 -34.429,17.548c24.405,-23.607 51.958,-45.024 76.857,-66.719c79.848,-69.575 172.418,-182.454 271.429,-225.131c4.895,-2.11 7.457,1.184 10.04,3.74c3.396,3.359 6.648,6.884 10.082,9.704c8.494,6.978 17.96,10.591 30.039,7.512c21.774,-5.55 40.8,-17.986 59.819,-30.691c15.804,-10.557 31.579,-21.385 50.162,-25.898c28.062,-6.815 145.083,-29.611 226.868,-44.906Zm68.016,-13.009c-1.369,0.657 -2.825,1.122 -4.324,1.383l-1.501,0.265c1.664,-0.117 3.63,-0.565 5.825,-1.648Z" style="fill:#7e4021;"/><path d="M2110.94,198.097c-0.708,0.34 -5.483,2.645 -7.072,3.707c-3.598,2.406 -5.528,5.278 -6.513,7.304c-2.394,4.922 -2.224,9.598 -0.471,13.898c1.291,3.166 3.786,7.518 10.552,9.849c6.584,2.268 13.624,0.166 17.953,-4.764c1.295,-0.647 2.615,-1.338 3.252,-1.747c17.147,-11.017 34.544,-21.681 51.968,-32.256c42.561,-25.83 73.272,-37.082 121.906,-35.405c24.707,0.852 50.676,-6.755 76.354,-18.037c34.759,-15.271 69.078,-37.342 98.731,-49.545c58.362,-24.018 117.706,-44.043 179.541,-56.793c9.009,-1.857 14.815,-10.679 12.958,-19.688c-1.858,-9.01 -10.68,-14.816 -19.689,-12.958c-63.88,13.171 -125.204,33.802 -185.496,58.614c-25.11,10.333 -53.542,27.567 -82.754,42.021c-26.243,12.984 -53.055,23.95 -78.496,23.073c-55.935,-1.929 -91.399,10.515 -140.349,40.222c-17.559,10.657 -35.091,21.405 -52.375,32.505Zm16.858,11.611c-1.263,-3.257 -3.927,-6.448 -9.506,-8.369c4.315,1.486 7.629,4.572 9.506,8.369Z" style="fill:#7e4021;"/><path d="M3238.53,61.963c-58.178,5.042 -114.898,30.052 -160.441,49.017c-26.555,11.058 -48.562,20.448 -64.021,19.7c-9.428,-0.456 -18.62,-2.953 -27.851,-5.007c-11.842,-2.636 -23.729,-4.646 -35.919,-3.538c-22.595,2.054 -43.278,10.231 -63.519,19.802c-17.807,8.419 -35.249,17.954 -53.813,23.895c-30.245,9.678 -63.021,7.816 -93.821,17.322c-107.513,33.183 -214.584,84.769 -314.561,135.821c-8.192,4.184 -11.447,14.231 -7.264,22.424c4.183,8.192 14.231,11.447 22.423,7.263c98.299,-50.195 203.524,-101.031 309.233,-133.657c30.91,-9.54 63.796,-7.713 94.149,-17.426c19.949,-6.383 38.767,-16.46 57.903,-25.508c16.702,-7.897 33.643,-15.045 52.288,-16.74c8.72,-0.792 17.187,0.993 25.658,2.879c11.083,2.466 22.163,5.217 33.483,5.765c18.817,0.91 46.123,-8.763 78.446,-22.223c42.771,-17.811 95.869,-41.845 150.505,-46.58c9.164,-0.794 15.959,-8.879 15.165,-18.043c-0.794,-9.165 -8.879,-15.96 -18.043,-15.166Z" style="fill:#7e4021;"/><path d="M2543.13,2274.93c12.153,-5.974 24.068,-12.264 35.818,-19.002c36.587,-20.981 72.831,-42.539 109.303,-63.716c7.955,-4.619 10.663,-14.828 6.044,-22.782c-4.619,-7.955 -14.827,-10.664 -22.782,-6.045c-36.421,21.148 -72.612,42.675 -109.147,63.627c-11.134,6.385 -22.425,12.343 -33.941,18.003c-8.255,4.058 -11.663,14.055 -7.605,22.31c4.058,8.255 14.054,11.663 22.31,7.605Z" style="fill:#7e4021;"/><path d="M2779.05,2127.61c29.849,-18.456 60.314,-35.977 90.504,-53.867c7.914,-4.69 10.531,-14.922 5.842,-22.835c-4.69,-7.914 -14.922,-10.531 -22.835,-5.842c-30.371,17.997 -61.014,35.627 -91.041,54.192c-7.824,4.838 -10.249,15.117 -5.411,22.941c4.837,7.824 15.117,10.249 22.941,5.411Z" style="fill:#7e4021;"/><path d="M2545.41,648.976c48.915,-58.125 112.687,-127.514 191.665,-139.054c42.648,-6.231 84.338,-1.7 125.764,-16.696c68.335,-24.737 103.998,-56.412 182.047,-69.42c9.073,-1.512 15.212,-10.107 13.7,-19.18c-1.512,-9.073 -10.107,-15.212 -19.18,-13.7c-80.464,13.411 -117.463,45.455 -187.912,70.957c-39.245,14.206 -78.837,9.153 -119.238,15.056c-86.824,12.687 -158.576,86.675 -212.35,150.574c-5.923,7.038 -5.017,17.561 2.021,23.483c7.038,5.923 17.561,5.018 23.483,-2.02Z" style="fill:#7e4021;"/><path d="M3975.8,465.744c-139.389,6.623 -237.689,43.985 -366.697,93.13c-82.797,31.542 -212.382,5.02 -324.674,45.692c-10.15,3.677 -154.121,70.264 -159.664,63.797c-14.835,-17.307 85.27,-93.493 94.488,-100.868c55.586,-44.469 131.295,-100.346 201.391,-120.696c23.976,-6.961 37.19,9.879 63.452,-2.414c42.978,-20.118 77.664,-56.982 123.456,-72.246c31.797,-10.599 58.092,8.949 81.525,-7.399c29.359,-20.484 1.321,-79.72 36.352,-90.998c84.999,-27.365 206.202,153.722 250.371,192.002Z" style="fill:#c48464;"/><path d="M3976.59,482.392c6.806,-0.323 12.729,-4.757 14.959,-11.195c2.229,-6.438 0.314,-13.585 -4.834,-18.048c-26.5,-22.966 -80.73,-97.341 -138.232,-147.255c-24.878,-21.594 -50.485,-38.695 -74.803,-46.572c-18.547,-6.008 -36.532,-6.862 -53.359,-1.445c-20.927,6.738 -28.638,23.717 -30.938,45.085c-1.125,10.456 -0.9,22.079 -2.585,32.581c-0.984,6.137 -2.244,12.029 -7.259,15.528c-8.12,5.665 -16.882,4.015 -26.223,2.963c-15.674,-1.767 -32.545,-3.87 -51.036,2.294c-46.404,15.468 -81.698,52.576 -125.25,72.962c-11.572,5.416 -19.725,2.404 -28.174,0.813c-10.032,-1.888 -20.317,-2.951 -32.86,0.69c-72.031,20.912 -150.035,77.991 -207.155,123.688c-7.694,6.155 -75.744,58.621 -94.865,88.462c-9.935,15.506 -8.3,28.76 -1.866,36.267c2.244,2.618 9.463,8.054 21.816,5.307c27.806,-6.184 146.926,-60.929 156.178,-64.28c54.525,-19.749 113.282,-22.962 168.424,-25.289c58.765,-2.48 113.663,-4.177 156.508,-20.499c127.217,-48.464 224.098,-85.526 361.554,-92.057Zm-817.043,158.07c25.829,-26.072 64.621,-55.555 70.117,-59.952c54.051,-43.241 127.466,-97.917 195.626,-117.706c8.995,-2.611 15.949,-0.186 23.14,1.167c12.576,2.366 25.498,3.575 42.731,-4.491c22.319,-10.448 42.54,-25.154 63.072,-39.32c18.473,-12.746 37.191,-25.077 58.588,-32.209c16.717,-5.573 31.702,-0.917 45.447,0.031c14.269,0.983 27.556,-0.651 40.344,-9.574c10.822,-7.55 16.799,-18.392 19.818,-31.087c2.266,-9.527 2.761,-20.222 3.336,-30.611c0.355,-6.412 0.712,-12.677 2.083,-18.182c0.983,-3.949 2.397,-7.54 6.687,-8.921c13.323,-4.29 27.709,-1.414 42.593,5.164c17.637,7.796 35.7,20.842 53.503,36.296c42.641,37.013 83.484,87.475 112.556,120.457l-0,0c-123.004,10.9 -216.547,46.262 -336.019,91.775c-39.953,15.221 -91.246,16.033 -146.046,18.345c-58.422,2.466 -120.603,6.328 -178.37,27.252c-6.819,2.47 -74.746,33.814 -119.206,51.566Z" style="fill:#7e4021;"/><path d="M3077.49,1201.79c0.054,-3.605 14.896,-16.062 17.432,-18.967c18.748,-21.473 32.778,-46.377 45.249,-71.852c17.17,-35.075 28.619,-81.205 52.921,-111.97c18.413,-23.312 39.15,-6.663 60.834,-19.864c36.959,-22.5 46.127,-77.711 94.904,-83.775c74.39,-9.249 140.816,12.261 215.557,-10.674c36.343,-11.152 227.1,-87.813 238.025,-71.266c15.498,23.474 -140.04,117.615 -161.166,132.375c-47.273,33.026 -93.58,124.965 -137.96,140.995c-32.958,11.904 -66.556,-11.182 -94.465,-2.913c-25.781,7.639 -43.261,37.734 -72.169,46.172c-94.244,27.511 -162.428,0.038 -259.162,71.739Z" style="fill:#c48464;"/><path d="M3060.83,1201.53c-0.096,6.34 3.414,12.186 9.056,15.081c5.642,2.895 12.439,2.338 17.533,-1.439c54.916,-40.704 100.185,-47.408 146.812,-52.056c33.811,-3.371 68.3,-5.748 107.096,-17.073c16.738,-4.885 30.41,-15.651 43.387,-26.69c9.359,-7.963 18.08,-16.311 28.846,-19.501c11.496,-3.406 24.101,0.496 37.289,3.173c18.934,3.844 38.613,6.475 58.104,-0.565c19.91,-7.191 40.753,-27.321 61.286,-52.079c26.492,-31.944 53.193,-71.812 80.557,-90.929c17.248,-12.05 122.063,-76.252 155.29,-113.594c6.952,-7.813 11.223,-15.064 12.917,-20.842c2.395,-8.171 1.067,-15.113 -2.677,-20.784c-2.618,-3.965 -7.141,-7.777 -14.642,-9.198c-5.687,-1.078 -15.482,-0.567 -28.107,2.047c-55.976,11.591 -184.798,62.683 -214.075,71.667c-35.449,10.878 -68.944,11.033 -102.38,9.748c-36.131,-1.389 -72.216,-4.421 -110.343,0.32c-29.428,3.658 -47.472,21.311 -63.169,42.273c-11.742,15.683 -21.665,33.65 -38.346,43.805c-8.047,4.899 -16.065,3.424 -23.633,3.723c-14.601,0.575 -28.429,3.355 -41.613,20.046c-24.993,31.641 -37.153,78.9 -54.812,114.973c-11.83,24.167 -25.049,47.848 -42.834,68.219c-2.128,2.438 -12.441,11.367 -16.542,16.746c-3.909,5.129 -4.956,10.044 -5,12.929Zm712.229,-369.84c-1.827,1.863 -3.726,3.691 -5.624,5.357c-41.284,36.256 -121.103,84.862 -135.729,95.08c-29.365,20.515 -58.695,62.695 -87.125,96.975c-16.084,19.394 -31.355,36.374 -46.952,42.007c-16.793,6.066 -33.739,0.451 -49.763,-2.708c-15.371,-3.03 -30.134,-4.551 -43.775,-0.509c-12.408,3.676 -23.407,11.363 -34.138,20.289c-11.665,9.702 -22.843,21.45 -37.966,25.864c-36.599,10.684 -69.167,12.722 -101.063,15.902c-30.365,3.027 -60.157,6.996 -91.884,18.834c5.748,-9.953 11.055,-20.172 16.105,-30.489c16.682,-34.078 27.42,-79.077 51.03,-108.968c6.951,-8.799 14.857,-7.366 22.673,-7.551c11.007,-0.261 22.222,-1.389 33.749,-8.407c20.281,-12.346 33.419,-33.231 47.695,-52.297c10.325,-13.788 21.243,-26.768 40.599,-29.175c36.264,-4.508 70.586,-1.41 104.951,-0.089c37.059,1.424 74.147,0.867 113.439,-11.19c25.393,-7.792 126.304,-47.641 188.309,-65.174c5.147,-1.455 10.483,-2.709 15.469,-3.751Z" style="fill:#7e4021;"/><path d="M1202.89,1210.36c-0.979,1.113 19.17,-33.223 23.471,-38.634c15.017,-18.894 30.726,-37.517 47.436,-54.934c67.975,-70.847 148.598,-49.03 241.08,-118.025c55.701,-41.554 136.488,-32.686 198.831,-61.024c91.071,-41.395 149.757,-130.951 237.392,-175.864c53.394,-27.364 128.516,-12.404 186.928,-29.674c104.192,-30.804 197.192,-89.85 304.619,-116.348c8.877,-2.19 108.038,-28.608 111.989,-17.939c4.099,11.068 -23.095,40.582 -29.003,47.278c-81.572,92.448 -237.115,286.013 -345.692,337.31c-84.961,40.138 -188.213,22.577 -268.91,75.106c-93.237,60.693 -169.974,155.714 -241.582,239.571c-97.41,114.072 -162.995,119.754 -236.961,80.143c-64.881,-34.746 -132.172,-103.542 -229.598,-166.966Z" style="fill:#c48464;"/><path d="M1195.92,1225.72c96.776,63.356 163.969,131.636 228.698,166.3c32.731,17.529 64.079,26.633 96.69,23.66c47.265,-4.309 98.338,-34.51 160.813,-107.672c70.607,-82.685 146.067,-176.582 238.001,-236.426c38.323,-24.946 82.124,-32.864 126.31,-39.696c48.107,-7.439 96.697,-13.555 140.626,-34.309c110.077,-52.005 268.371,-247.627 351.07,-341.352c4.508,-5.109 20.245,-22.506 27.832,-36.56c5.845,-10.827 6.713,-21.028 4.303,-27.533c-1.586,-4.284 -4.739,-8.427 -10.644,-11.012c-3.531,-1.546 -9.811,-2.699 -18.121,-2.287c-28.562,1.413 -95.52,19.038 -102.845,20.844c-107.676,26.56 -200.919,85.672 -305.352,116.548c-28.037,8.289 -60.109,8.628 -91.555,10.393c-35.173,1.975 -69.583,5.739 -98.25,20.431c-45.086,23.107 -82.849,57.535 -120.931,91.673c-35.748,32.046 -71.773,63.858 -115.755,83.85c-29.979,13.627 -64.451,18.075 -98.066,24.345c-37.503,6.995 -73.953,16.2 -103.835,38.494c-44.354,33.089 -85.967,44.173 -124.539,55.708c-42.913,12.834 -82.331,26.334 -118.601,64.137c-17.068,17.788 -33.119,36.804 -48.457,56.101c-4.128,5.193 -22.029,35.31 -24.789,40.427c-4.934,9.146 -0.625,15.976 -0.369,16.454c1.925,3.606 4.518,6.093 7.766,7.482Zm1334.31,-612.072c-6.563,8.959 -14.334,17.396 -17.092,20.523c-80.445,91.171 -233.237,282.679 -340.315,333.267c-41.031,19.385 -86.547,24.558 -131.481,31.506c-48.855,7.554 -97.028,17.12 -139.401,44.702c-94.542,61.542 -172.554,157.686 -245.164,242.716c-54.421,63.73 -97.32,92.369 -138.491,96.122c-26.345,2.402 -51.486,-5.688 -77.928,-19.849c-61.587,-32.982 -125.285,-96.898 -215.187,-157.503c5.401,-9.157 12.169,-20.429 14.239,-23.034c14.696,-18.489 30.063,-36.721 46.416,-53.765c31.705,-33.045 66.585,-44.059 104.098,-55.278c41.854,-12.517 86.793,-25.022 134.921,-60.927c25.819,-19.262 57.612,-26.399 90.015,-32.443c36.289,-6.769 73.382,-12.056 105.747,-26.767c47.088,-21.403 85.941,-55.067 124.212,-89.376c35.938,-32.216 71.336,-65.022 113.884,-86.828c24.728,-12.674 54.575,-15.111 84.916,-16.815c34.067,-1.913 68.762,-2.728 99.137,-11.709c103.949,-30.733 196.707,-89.712 303.884,-116.149c5.508,-1.359 46.304,-12.209 76.715,-17.409c2.212,-0.378 4.552,-0.706 6.875,-0.984Zm-1327.94,580.061c-4.446,0.158 -8.791,2.092 -11.917,5.646c4.693,-5.336 9.62,-5.663 11.917,-5.646Zm3.043,0.168c2.312,0.338 4.581,1.171 6.648,2.517l1.622,1.062c-2.279,-1.993 -5.039,-3.181 -8.27,-3.579Z" style="fill:#7e4021;"/><path d="M2377.68,2417.22c-29.101,94.907 -565.825,32.703 -1222.9,-202.217c-670.982,-239.892 -1217.67,-463.502 -1128.26,-638.06c127.778,-249.469 703.673,-502.897 1116.42,-382.046c169.082,49.506 185.341,169.456 357.818,205.93c112.581,23.808 233.535,38.393 372.141,196.414c85.024,96.935 12.269,134.869 173.283,309.528c128.575,139.472 425.088,205.221 331.497,510.451Z" style="fill:#ebccb8;"/><path d="M2393.61,2422.11c23.642,-77.101 23.279,-139.698 7.74,-192.319c-23.175,-78.481 -80.551,-135.109 -145.967,-184.313c-68.623,-51.616 -146.137,-94.882 -196.95,-150.002c-93.407,-101.322 -105.629,-154.948 -118.071,-201.967c-9.159,-34.608 -18.631,-65.863 -54.937,-107.254c-142.068,-161.97 -265.828,-177.327 -381.222,-201.73c-82.718,-17.493 -127.831,-55.267 -172.682,-94.339c-48.365,-42.133 -96.457,-85.678 -183.901,-111.281c-251.426,-73.615 -562.551,-10.982 -799.186,106.046c-159.153,78.709 -284.406,182.193 -336.755,284.398c-29.772,58.125 -0.225,123.025 81.751,189.969c173.176,141.417 583.744,302.636 1055.73,471.383c462.32,165.29 865.428,245.227 1075.68,245.764c56.53,0.145 99.683,-5.593 127.181,-16.372c23.449,-9.191 36.894,-22.673 41.588,-37.983Zm-31.868,-9.772c-2.296,7.486 -10.419,12.227 -21.885,16.721c-24.83,9.733 -63.886,14.204 -114.931,14.073c-208.099,-0.532 -606.953,-80.22 -1064.54,-243.819c-467.386,-167.101 -874.383,-325.775 -1045.87,-465.814c-34.618,-28.269 -59.34,-55.463 -71.982,-81.974c-11.05,-23.173 -12.174,-45.526 -1.185,-66.98c49.873,-97.371 170.239,-194.728 321.863,-269.714c229.529,-113.514 531.168,-175.34 775.043,-103.935c81.64,23.903 126.218,65.087 171.372,104.424c48.669,42.398 97.923,82.836 187.681,101.817c109.77,23.213 227.917,37.025 363.06,191.098c31.714,36.157 39.771,63.57 47.772,93.802c13.295,50.241 25.977,107.764 125.786,216.033c52.047,56.457 131.134,101.178 201.422,154.047c59.605,44.833 112.919,95.605 134.036,167.114c13.989,47.372 13.642,103.697 -7.64,173.107Z" style="fill:#7e4021;"/><path d="M374.318,1585.23c3.574,-13.338 17.303,-21.264 30.641,-17.691c13.337,3.574 21.264,17.304 17.69,30.641c-3.573,13.338 -17.303,21.264 -30.641,17.691c-13.337,-3.574 -21.264,-17.304 -17.69,-30.641Z" style="fill:#7e4021;"/><path d="M673.747,1422.41c3.574,-13.338 17.304,-21.264 30.641,-17.691c13.338,3.574 21.265,17.304 17.691,30.641c-3.574,13.338 -17.304,21.264 -30.641,17.691c-13.337,-3.574 -21.264,-17.304 -17.691,-30.641Z" style="fill:#7e4021;"/><path d="M1172.64,1980.11c3.573,-13.337 17.303,-21.264 30.64,-17.69c13.338,3.574 21.265,17.303 17.691,30.641c-3.574,13.337 -17.303,21.264 -30.641,17.69c-13.337,-3.573 -21.264,-17.303 -17.69,-30.641Z" style="fill:#7e4021;"/><path d="M1273.07,1702.03c3.574,-13.337 17.304,-21.264 30.641,-17.691c13.338,3.574 21.264,17.304 17.691,30.641c-3.574,13.338 -17.304,21.265 -30.641,17.691c-13.338,-3.574 -21.264,-17.304 -17.691,-30.641Z" style="fill:#7e4021;"/><path d="M1389.11,1977.68c3.574,-13.337 17.304,-21.264 30.641,-17.691c13.337,3.574 21.264,17.304 17.691,30.641c-3.574,13.338 -17.304,21.265 -30.641,17.691c-13.338,-3.574 -21.265,-17.304 -17.691,-30.641Z" style="fill:#7e4021;"/><path d="M966.611,1720.82c2.334,-8.714 -2.844,-17.683 -11.558,-20.018c-8.713,-2.335 -17.683,2.844 -20.017,11.557c-2.335,8.714 2.844,17.683 11.557,20.018c8.713,2.335 17.683,-2.844 20.018,-11.557Z" style="fill:#7e4021;"/><path d="M892.032,1421.4c2.335,-8.714 -2.843,-17.683 -11.557,-20.018c-8.713,-2.335 -17.683,2.844 -20.017,11.557c-2.335,8.714 2.843,17.683 11.557,20.018c8.713,2.335 17.683,-2.844 20.017,-11.557Z" style="fill:#7e4021;"/><path d="M1300.91,2154.9c2.334,-8.713 -2.844,-17.683 -11.558,-20.017c-8.713,-2.335 -17.683,2.843 -20.017,11.557c-2.335,8.713 2.844,17.683 11.557,20.017c8.713,2.335 17.683,-2.843 20.018,-11.557Z" style="fill:#7e4021;"/><path d="M1826.71,2044.74c2.335,-8.714 -2.844,-17.683 -11.557,-20.018c-8.714,-2.335 -17.683,2.844 -20.018,11.557c-2.335,8.713 2.844,17.683 11.557,20.018c8.714,2.335 17.683,-2.844 20.018,-11.557Z" style="fill:#7e4021;"/><path d="M1907.94,2038.76c-12.584,-7.265 -16.902,-23.38 -9.637,-35.964c7.265,-12.584 23.381,-16.902 35.965,-9.637c12.584,7.265 16.902,23.381 9.636,35.965c-7.265,12.584 -23.38,16.902 -35.964,9.636Z" style="fill:#7e4021;"/><path d="M662.741,1865.96c3.574,-13.337 17.304,-21.264 30.641,-17.69c13.337,3.573 21.264,17.303 17.691,30.64c-3.574,13.338 -17.304,21.265 -30.641,17.691c-13.338,-3.574 -21.265,-17.304 -17.691,-30.641Z" style="fill:#7e4021;"/></g></svg>