<?xml version="1.0" encoding="UTF-8" standalone="no"?><!DOCTYPE svg PUBLIC "-//W3C//DTD SVG 1.1//EN" "http://www.w3.org/Graphics/SVG/1.1/DTD/svg11.dtd"><svg width="100%" height="100%" viewBox="0 0 3446 2244" version="1.1" xmlns="http://www.w3.org/2000/svg" xmlns:xlink="http://www.w3.org/1999/xlink" xml:space="preserve" xmlns:serif="http://www.serif.com/" style="fill-rule:evenodd;clip-rule:evenodd;stroke-linejoin:round;stroke-miterlimit:2;"><g id="Farmer-roll" serif:id="Farmer roll"><path d="M18.251,2019.88c4.573,-109.74 64.482,-295.171 68.331,-303.657c59.041,-130.147 136.827,-246.464 231.688,-353.436c117.129,-132.081 252.619,-246.337 383.234,-364.587c249.34,-225.733 469.211,-477.358 767.025,-643.177c178.248,-99.246 372.855,-171.309 569.981,-222.927c155.723,-40.776 1303.4,-205.247 1378.47,-48.704c118,246.043 -704.782,1294.85 -878.349,1476.72c-117.905,123.544 -253.895,235.44 -406.612,313.378c-100.944,51.516 -211.677,86.566 -322.563,108.82c-463.398,93 -931.697,86.236 -1395.73,198.992c-100.519,24.425 -229.519,69.774 -332.025,29.223c-68.491,-27.096 -65.996,-129.667 -63.455,-190.643Z" style="fill:#ffdab8;"/><path d="M1.599,2019.19c-1.595,38.289 -2.826,92.219 11.649,135.385c10.824,32.278 30.168,58.727 62.327,71.45c53.963,21.348 114.874,20.524 175.55,10.709c58.069,-9.392 115.897,-26.929 166.541,-39.235c463.812,-112.702 931.895,-105.89 1395.07,-198.847c112.368,-22.551 224.566,-58.11 326.859,-110.315c154.379,-78.786 291.905,-191.828 411.093,-316.716c121.919,-127.75 563.069,-681.767 776.165,-1087.37c55.476,-105.591 95.517,-201.314 111.041,-277.142c11.083,-54.136 9.52,-98.797 -5.886,-130.919c-10.499,-21.891 -37.935,-40.07 -80.275,-52.083c-55.544,-15.759 -138.307,-22.872 -236.056,-23.598c-374.486,-2.782 -971.946,86.811 -1081.39,115.469c-198.474,51.971 -394.399,124.564 -573.866,224.489c-298.938,166.444 -519.824,418.798 -770.103,645.383c-131.067,118.657 -266.986,233.347 -384.518,365.884c-95.979,108.231 -174.661,225.929 -234.397,357.608c-3.928,8.66 -65.139,197.865 -69.805,309.849l-0,-0Zm33.304,1.387c4.479,-107.496 63.086,-289.152 66.857,-297.465c58.346,-128.615 135.235,-243.55 228.98,-349.262c116.725,-131.626 251.785,-245.449 381.95,-363.29c248.399,-224.882 467.257,-475.778 763.947,-640.971c177.029,-98.567 370.318,-170.101 566.095,-221.366c108.566,-28.428 701.231,-117.142 1072.7,-114.383c94.069,0.699 173.753,7.168 227.206,22.334c30.347,8.61 51.793,18.739 59.318,34.429c12.915,26.93 12.577,64.434 3.285,109.82c-15.037,73.451 -54.156,166.041 -107.893,268.324c-211.622,402.796 -649.696,952.995 -770.771,1079.86c-116.622,122.2 -251.077,232.95 -402.131,310.04c-99.595,50.828 -208.862,85.367 -318.266,107.324c-463.619,93.044 -932.133,86.328 -1396.38,199.138c-49.875,12.119 -106.806,29.47 -163.994,38.72c-54.581,8.828 -109.422,10.403 -157.965,-8.8c-22.636,-8.955 -35.366,-28.332 -42.985,-51.052c-13.188,-39.327 -11.402,-88.516 -9.949,-123.4l0,0Z" style="fill:#7e4021;"/><path d="M1579.39,1778.18c12.909,-0.459 31.436,-8.797 51.547,-22.157c39.02,-25.924 87.002,-70.445 110.201,-83.38c81.906,-45.669 176.465,-51.027 258.256,-93.507c66.355,-34.464 118.945,-92.296 180.188,-134.694c47.963,-33.205 104.756,-52.245 156.363,-79.08c8.161,-4.244 11.342,-14.315 7.098,-22.477c-4.244,-8.161 -14.315,-11.341 -22.476,-7.097c-52.84,27.477 -110.85,47.249 -159.959,81.247c-60.101,41.609 -111.459,98.698 -176.578,132.519c-82.082,42.632 -176.927,48.144 -259.125,93.975c-20.428,11.39 -59.724,46.408 -95.749,72.991c-13.235,9.766 -25.966,18.335 -36.981,23.682c-5.356,2.599 -10.03,4.526 -13.969,4.666c-9.193,0.326 -16.391,8.055 -16.064,17.248c0.327,9.193 8.055,16.391 17.248,16.064Z" style="fill:#7e4021;"/><path d="M1551.68,1186.24c-10.446,-1.769 -20.315,-4.108 -24.696,-4.312c-63.137,-2.946 -129.488,6.15 -191.645,-8.227c-93.104,-21.534 -176.056,-92.656 -264.718,-128.443c-86.001,-34.713 -175.245,-55.473 -267.633,-64.07c-22.773,-2.119 -79.364,4.756 -102.249,6.223c-9.18,0.588 -16.155,8.519 -15.566,17.698c0.588,9.18 8.519,16.155 17.698,15.567c21.723,-1.393 75.413,-8.309 97.029,-6.298c89.144,8.295 175.263,28.296 258.244,61.791c90.214,36.413 174.95,108.097 269.684,130.008c64.097,14.825 132.494,6.01 197.602,9.048c7.272,0.339 29.577,6.478 44.72,6.277c13.425,-0.178 23.058,-5.491 27.447,-12.597c3.791,-6.139 4.245,-13.287 0.977,-20.615c-2.718,-6.097 -9.771,-12.904 -12.612,-15.672c-45.11,-43.953 -106.012,-78.877 -159.018,-112.215c-54.341,-34.178 -111.555,-66.493 -169.752,-93.652c-8.335,-3.89 -18.261,-0.28 -22.151,8.055c-3.89,8.336 -0.28,18.261 8.055,22.151c56.949,26.576 112.926,58.217 166.101,91.662c46.902,29.499 100.396,60.033 142.483,97.621Z" style="fill:#7e4021;"/><path d="M1964.07,1058.93c-5.214,-2.814 -10.887,-6.015 -16.23,-9.308c-43.404,-26.757 -107.689,-71.136 -150.256,-92.474c-98.696,-49.473 -312.767,-143.859 -397.176,-184.595c-8.285,-3.998 -18.256,-0.518 -22.254,7.766c-3.999,8.284 -0.519,18.256 7.766,22.254c84.312,40.69 298.144,134.958 396.726,184.374c53.644,26.89 141.994,90.728 178.611,108.684c9.933,4.871 17.708,6.626 22.012,6.452c8.554,-0.347 13.591,-4.606 16.476,-10.089c4.399,-8.357 4.962,-18.392 2.112,-28.988c-4.315,-16.036 -17.481,-34.101 -23.714,-43.777c-45.81,-71.101 -131.106,-139.388 -226.47,-203.485c-139.212,-93.568 -299.93,-178.526 -383.445,-252.761c-6.875,-6.111 -17.418,-5.491 -23.529,1.384c-6.112,6.875 -5.491,17.418 1.384,23.53c84.329,74.959 246.426,161.032 386.995,255.512c91.157,61.269 173.255,125.911 217.044,193.874c3.335,5.177 9.187,13.084 13.948,21.647Z" style="fill:#7e4021;"/><path d="M2060.7,606.856c-106.587,-73.68 -229.145,-108.829 -339.101,-175.346c-47.829,-28.933 -118.113,-81.012 -152.926,-126.011c-5.628,-7.276 -16.105,-8.613 -23.38,-2.984c-7.276,5.628 -8.613,16.105 -2.984,23.38c36.956,47.769 111.263,103.421 162.036,134.136c110.98,67.135 234.982,101.914 342.047,177.49c4.033,2.846 17.473,15.201 28.065,20.16c11.157,5.223 21.151,3.803 27.602,-1.245c5.764,-4.511 9.208,-11.608 8.374,-21.13c-1.193,-13.608 -16.745,-38.259 -19.824,-43.404c-70.602,-117.993 -177.874,-159.401 -283.818,-235.076c-7.486,-5.346 -17.903,-3.61 -23.25,3.875c-5.347,7.486 -3.61,17.903 3.875,23.25c101.414,72.438 205.233,110.898 273.284,222.905Z" style="fill:#7e4021;"/><path d="M3331.72,129.85c5.201,13.658 3.48,32.421 -0.369,51.999c-6.584,33.484 -20.538,69.034 -28.791,90.183c-3.344,8.569 0.898,18.241 9.467,21.585c8.57,3.344 18.242,-0.898 21.586,-9.467c8.769,-22.472 23.449,-60.292 30.445,-95.871c5.204,-26.467 5.844,-51.825 -1.187,-70.29c-3.273,-8.597 -12.91,-12.919 -21.506,-9.645c-8.597,3.273 -12.918,12.91 -9.645,21.506Z" style="fill:#7e4021;"/><path d="M3270.25,363.087c-0.85,1.809 -3.191,6.714 -5.226,10.293c-5.609,9.868 -12.454,20.447 -14.163,23.798c-4.179,8.195 -0.92,18.241 7.275,22.42c8.194,4.179 18.24,0.919 22.419,-7.275c2.56,-5.019 16.449,-26.105 20.794,-37.137c3.246,-8.24 2.342,-14.897 0.991,-18.196c-3.487,-8.513 -13.228,-12.593 -21.74,-9.106c-6.372,2.609 -10.26,8.723 -10.35,15.203Z" style="fill:#7e4021;"/><path d="M132.271,2005.46c4.909,10.672 4.952,25.384 8.208,38.069c5.101,19.875 15.321,36.069 40.96,40.577c10.266,1.805 30.793,-3.593 54.98,-14.604c46.546,-21.191 111.423,-60.799 134.461,-70.204c44.666,-18.236 90.535,-22.504 136.751,-24.559c48.874,-2.173 98.149,-1.88 147.014,-10.929c9.045,-1.675 15.028,-10.378 13.353,-19.423c-1.675,-9.044 -10.378,-15.028 -19.423,-13.353c-47.335,8.766 -95.08,8.3 -142.424,10.405c-50.001,2.223 -99.547,7.27 -147.87,26.998c-23.238,9.487 -88.723,49.353 -135.674,70.728c-10.977,4.997 -20.817,8.945 -28.629,10.957c-2.82,0.726 -5.085,1.45 -6.767,1.154c-12.671,-2.228 -14.125,-13.022 -15.987,-23.265c-2.33,-12.812 -3.915,-26.142 -8.669,-36.479c-3.844,-8.357 -13.749,-12.022 -22.106,-8.178c-8.357,3.843 -12.022,13.749 -8.178,22.106Z" style="fill:#7e4021;"/><path d="M784.229,1911.43c-5.344,-1.348 -11.241,-0.016 -15.536,4.049c-6.681,6.323 -6.972,16.88 -0.649,23.561c1.782,1.883 4.513,3.991 8.777,5.093c2.596,0.671 8.116,1.026 15.698,0.114c23.238,-2.796 78.184,-15.743 99.825,-19.506c9.062,-1.576 15.14,-10.213 13.564,-19.276c-1.576,-9.063 -10.213,-15.141 -19.276,-13.565c-22.214,3.864 -94.632,18.01 -102.403,19.53Z" style="fill:#7e4021;"/></g></svg>