<?xml version="1.0" encoding="UTF-8" standalone="no"?><!DOCTYPE svg PUBLIC "-//W3C//DTD SVG 1.1//EN" "http://www.w3.org/Graphics/SVG/1.1/DTD/svg11.dtd"><svg width="100%" height="100%" viewBox="0 0 4915 3697" version="1.1" xmlns="http://www.w3.org/2000/svg" xmlns:xlink="http://www.w3.org/1999/xlink" xml:space="preserve" xmlns:serif="http://www.serif.com/" style="fill-rule:evenodd;clip-rule:evenodd;stroke-linejoin:round;stroke-miterlimit:2;"><g id="Focaccia"><path d="M2869.27,27.077c-257.97,46.009 -468.757,176.031 -697.281,363.027c-235.445,192.659 -445.103,371.426 -681.09,563.362c-316.256,257.221 -1387.91,1131.83 -1467.21,1509.47c-31.09,148.044 47.463,272.245 152.599,368.47c201.192,184.143 482.773,245.961 722.585,363.42c325.545,159.45 595.298,383.724 961.321,452.746c822.29,155.06 1229.99,-265.956 1725.89,-804.131c264.571,-287.125 1201.42,-1356.5 1295.92,-1691.8c35.961,-127.606 13.279,-260.75 -77.629,-359.697c-252.843,-275.203 -565.372,-296.222 -927.962,-397.873c-366.837,-102.842 -616.926,-436.598 -1007.14,-367.003Z" style="fill:#ffdab8;"/><path d="M2866.34,10.669c-260.722,46.5 -473.946,177.545 -704.909,366.536c-235.431,192.648 -445.077,371.405 -681.052,563.331c-221.74,180.349 -814.187,663.761 -1176.97,1067.29c-157.737,175.453 -271.859,336.562 -296.035,451.687c-32.373,154.156 48.182,283.994 157.657,384.191c202.363,185.213 485.3,247.951 726.507,366.093c326.905,160.116 598.011,384.846 965.563,454.156c829.225,156.368 1241.16,-266.501 1741.24,-809.215c185.425,-201.233 700.658,-786.24 1025.57,-1234.28c140.597,-193.878 245.478,-362.603 274.135,-464.292c37.549,-133.236 13.522,-272.181 -81.397,-375.494c-255.103,-277.663 -569.904,-300.085 -935.736,-402.645c-182.126,-51.059 -335.142,-159.697 -491.189,-246.675c-160.493,-89.456 -324.127,-156.225 -523.381,-120.688l-0.001,0Zm5.853,32.816c190.965,-34.059 347.485,31.253 501.3,116.988c158.262,88.212 313.709,197.872 498.42,249.655c359.349,100.742 669.605,120.358 920.188,393.101c86.897,94.582 108.235,221.925 73.86,343.9c-28.038,99.491 -131.479,264.078 -269.037,453.765c-324.119,446.947 -838.121,1030.51 -1023.1,1231.26c-491.721,533.637 -895.194,952.8 -1710.55,799.047c-364.494,-68.733 -632.893,-292.551 -957.078,-451.336c-238.417,-116.775 -518.641,-177.675 -718.664,-360.746c-100.797,-92.255 -177.347,-210.815 -147.541,-352.751c23.407,-111.459 135.489,-266.387 288.202,-436.253c361.599,-402.213 952.197,-883.955 1173.21,-1063.72c236.001,-191.947 445.671,-370.724 681.129,-563.394c226.086,-185.001 434.434,-313.999 689.652,-359.517l0,-0Z" style="fill:#7e4021;"/><path d="M2934.85,3342.05c13.298,-7.4 26.536,-14.944 39.698,-22.582c38.961,-22.611 79.739,-58.038 114.466,-86.659c7.099,-5.851 8.112,-16.363 2.262,-23.462c-5.851,-7.098 -16.364,-8.112 -23.462,-2.261c-33.412,27.537 -72.512,61.797 -109.998,83.551c-12.988,7.538 -26.051,14.983 -39.173,22.285c-8.038,4.472 -10.933,14.629 -6.46,22.667c4.472,8.039 14.629,10.933 22.667,6.461Z" style="fill:#7e4021;"/><path d="M4748.67,859.133c10.447,8.334 18.679,21.506 25.505,35.401c11.461,23.328 18.647,48.99 22.727,62.861c2.595,8.825 11.867,13.882 20.692,11.287c8.825,-2.596 13.882,-11.868 11.287,-20.692c-7.68,-26.112 -26.408,-88.574 -59.422,-114.914c-7.191,-5.736 -17.686,-4.556 -23.423,2.635c-5.736,7.19 -4.556,17.685 2.634,23.422Z" style="fill:#7e4021;"/><path d="M4809.26,1028.98c0.379,29.263 -12.402,99.014 -33.183,140.441c-4.124,8.222 -0.798,18.246 7.424,22.371c8.222,4.124 18.246,0.798 22.371,-7.424c23.053,-45.957 37.139,-123.357 36.719,-155.819c-0.119,-9.198 -7.683,-16.569 -16.881,-16.45c-9.198,0.119 -16.569,7.684 -16.45,16.881Z" style="fill:#7e4021;"/><path d="M3149.08,3186.44c5.336,-5.685 12.217,-10.201 18.281,-15.054c13.065,-10.456 25.243,-21.986 37.879,-32.947c6.948,-6.028 7.696,-16.563 1.668,-23.511c-6.027,-6.949 -16.562,-7.697 -23.511,-1.669c-12.303,10.673 -24.143,21.921 -36.864,32.102c-7.275,5.822 -15.357,11.447 -21.758,18.267c-6.295,6.708 -5.96,17.264 0.747,23.559c6.707,6.295 17.263,5.96 23.558,-0.747Z" style="fill:#7e4021;"/><path d="M1017.46,2009.12c-43.259,-52.269 -44.42,-119.063 -7.921,-184.478c114.394,-205.017 450.855,-92.415 253.855,63.111c-59.617,47.066 -157.231,228.543 -245.934,121.367Z" style="fill:#eb7e6c;"/><path d="M1004.62,2019.75c21.307,25.745 43.456,36.941 65.17,39.016c21.558,2.06 43.253,-5.067 64.319,-18.437c27.716,-17.59 54.659,-46.261 79.196,-74.389c22.673,-25.991 43.129,-51.455 60.416,-65.102c56.27,-44.425 71.999,-87.148 65.569,-120.537c-6.663,-34.602 -37.613,-62.275 -81.297,-75.278c-79.597,-23.693 -201.311,0.925 -263.009,111.501c-40.217,72.078 -38.03,145.633 9.636,203.226Zm25.679,-21.253c-38.855,-46.947 -38.99,-106.977 -6.206,-165.731c52.695,-94.441 156.408,-116.03 224.39,-95.795c30.12,8.966 53.481,25.775 58.075,49.633c4.829,25.074 -11.236,54.71 -53.492,88.071c-29.973,23.662 -69.574,81.039 -112.754,119.103c-21.897,19.303 -44.307,34.008 -67.352,31.806c-14.446,-1.38 -28.485,-9.959 -42.661,-27.087Z" style="fill:#7e4021;"/><path d="M1737.32,2829.18c6.371,-67.549 52.78,-115.6 124.845,-136.047c225.857,-64.08 384.149,253.456 134.876,224.129c-75.436,-8.875 -272.784,50.425 -259.721,-88.082Z" style="fill:#eb7e6c;"/><path d="M1720.73,2827.62c-3.138,33.272 4.607,56.85 18.493,73.671c13.788,16.701 34.168,27.001 58.518,32.443c32.037,7.161 71.361,5.939 108.601,3.4c34.41,-2.347 66.881,-5.887 88.755,-3.314c71.202,8.377 112.533,-10.711 131.597,-38.868c19.755,-29.178 17.438,-70.632 -4.257,-110.715c-39.53,-73.037 -143.002,-141.694 -264.819,-107.132c-79.404,22.528 -129.869,76.087 -136.888,150.515Zm33.186,3.13c5.722,-60.671 48.074,-103.213 112.801,-121.578c104.041,-29.518 192.643,28.552 226.405,90.931c14.959,27.638 19.591,56.042 5.97,76.161c-14.316,21.144 -46.631,30.741 -100.101,24.451c-37.925,-4.462 -106.499,8.107 -163.947,4.49c-29.133,-1.835 -55.377,-7.283 -70.115,-25.135c-9.239,-11.191 -13.101,-27.184 -11.013,-49.32Z" style="fill:#7e4021;"/><path d="M3502.16,353.773c39.292,-55.314 103.509,-73.723 176.142,-55.398c227.639,57.433 205.956,411.573 4.742,261.539c-60.892,-45.404 -261.45,-92.723 -180.884,-206.141Z" style="fill:#eb7e6c;"/><path d="M3488.58,344.121c-19.354,27.245 -24.436,51.537 -20.82,73.047c3.59,21.357 16.09,40.468 34.456,57.356c24.165,22.219 58.832,40.823 92.352,57.244c30.973,15.173 60.864,28.342 78.521,41.508c57.474,42.855 102.812,46.99 133.4,32.138c31.698,-15.392 50.418,-52.45 51.671,-98.011c2.284,-83.017 -52.996,-194.212 -175.773,-225.188c-80.031,-20.192 -150.514,0.958 -193.807,61.906Zm27.175,19.303c35.291,-49.681 93.24,-65.348 158.477,-48.889c104.861,26.457 152.558,121.048 150.607,191.951c-0.864,31.414 -11.054,58.33 -32.91,68.942c-22.97,11.154 -55.754,3.307 -98.915,-28.875c-30.614,-22.827 -96.285,-46.229 -144.228,-78.085c-24.312,-16.155 -44.316,-33.996 -48.154,-56.825c-2.405,-14.311 2.247,-30.092 15.123,-48.219Z" style="fill:#7e4021;"/><path d="M2416.06,1769.12c-49.581,39.859 -112.844,137.68 -80.119,211.455c33.407,75.312 247.736,123.06 338.742,-66.171c95.221,-197.995 -137.018,-243.045 -258.623,-145.284Z" style="fill:#eb7e6c;"/><path d="M2405.62,1756.12c-31.729,25.507 -68.74,73.247 -85.71,124.371c-11.95,36.004 -13.95,73.584 0.798,106.832c11.504,25.933 40.996,49.916 80.451,63.665c86.259,30.057 220.033,13.089 288.546,-129.371c31.785,-66.091 29.167,-116.964 8.529,-152.727c-19.655,-34.061 -56.355,-55.425 -99.99,-63.05c-61.924,-10.823 -137.762,6.175 -192.624,50.28Zm20.885,25.979c47.286,-38.014 112.628,-52.751 166,-43.424c33.231,5.808 61.889,20.936 76.858,46.875c16.461,28.525 15.654,68.906 -9.698,121.62c-58.896,122.464 -173.386,138.179 -247.537,112.341c-29.297,-10.21 -52.408,-26.447 -60.95,-45.704c-11.432,-25.773 -8.895,-54.906 0.369,-82.815c14.852,-44.745 47.188,-86.568 74.958,-108.893Z" style="fill:#7e4021;"/><path d="M3226.4,1085.03c-49.582,39.86 -112.844,137.68 -80.119,211.456c33.406,75.311 247.735,123.059 338.742,-66.172c95.221,-197.995 -137.019,-243.044 -258.623,-145.284Z" style="fill:#eb7e6c;"/><path d="M3215.96,1072.04c-31.728,25.507 -68.74,73.247 -85.709,124.37c-11.951,36.004 -13.95,73.584 0.798,106.832c11.503,25.934 40.996,49.917 80.451,63.665c86.258,30.058 220.033,13.089 288.546,-129.37c31.785,-66.091 29.166,-116.964 8.528,-152.728c-19.655,-34.06 -56.355,-55.424 -99.99,-63.05c-61.924,-10.822 -137.762,6.176 -192.624,50.281Zm20.886,25.979c47.285,-38.014 112.627,-52.752 166,-43.424c33.231,5.808 61.889,20.935 76.857,46.875c16.461,28.525 15.655,68.905 -9.697,121.62c-58.897,122.464 -173.386,138.179 -247.538,112.34c-29.297,-10.209 -52.407,-26.446 -60.949,-45.703c-11.433,-25.774 -8.896,-54.906 0.368,-82.816c14.852,-44.745 47.189,-86.568 74.959,-108.892Z" style="fill:#7e4021;"/><path d="M2411.12,1189.46c62.868,-9.729 166.566,-62.812 175.112,-143.066c8.725,-81.925 -153.015,-230.441 -326.444,-112.065c-181.462,123.858 -2.861,278.992 151.332,255.131Z" style="fill:#eb7e6c;"/><path d="M2413.67,1205.93c40.231,-6.226 96.154,-29.064 136.412,-64.854c28.352,-25.205 48.874,-56.75 52.725,-92.918c3.005,-28.211 -10.545,-63.727 -37.84,-95.361c-59.673,-69.16 -184.01,-121.352 -314.573,-32.235c-60.572,41.344 -83.741,86.711 -83.75,128.002c-0.009,39.325 21.093,76.176 55.069,104.598c48.217,40.334 122.393,63.533 191.957,52.768Zm-5.097,-32.942c-59.958,9.279 -123.914,-10.629 -165.473,-45.393c-25.875,-21.646 -43.129,-49.076 -43.123,-79.024c0.007,-32.934 20.896,-67.501 69.209,-100.477c112.238,-76.609 219.246,-32.974 270.543,26.479c20.268,23.49 32.163,49.107 29.932,70.055c-2.985,28.036 -19.748,51.998 -41.726,71.536c-35.235,31.324 -84.151,51.376 -119.362,56.824Z" style="fill:#7e4021;"/><path d="M3401.13,1845.69c-52.888,79.196 -24.656,181.41 48.871,191.49c123.108,16.877 342.821,-307.64 139.237,-315.47c-60.448,-2.325 -130.495,37.708 -188.108,123.98Z" style="fill:#eb7e6c;"/><path d="M3387.27,1836.44c-35.392,52.997 -37.595,115.302 -16.476,159.042c15.087,31.247 41.793,53.398 76.943,58.216c33.175,4.548 73.072,-11.729 110.673,-41.126c52.699,-41.199 101.445,-107.431 121.035,-166.305c14.631,-43.972 12.605,-84.15 -10.367,-110.192c-15.4,-17.458 -40.701,-29.533 -79.199,-31.014c-64.792,-2.492 -140.857,38.909 -202.609,131.379l0,-0Zm27.72,18.512c53.478,-80.079 117.498,-118.74 173.608,-116.582c26.657,1.025 44.819,7.667 55.482,19.756c16.129,18.284 14.009,46.744 3.736,77.617c-17.756,53.363 -62.171,113.226 -109.936,150.569c-29.38,22.969 -59.694,37.916 -85.615,34.362c-23.673,-3.245 -41.293,-18.641 -51.453,-39.685c-16.752,-34.696 -13.896,-83.998 14.178,-126.037l0,-0Z" style="fill:#7e4021;"/><path d="M2789.05,432.268c71.584,-62.809 70.769,-168.847 2.356,-197.614c-114.545,-48.165 -410.763,208.429 -216.142,268.684c57.787,17.891 135.808,-2.65 213.786,-71.07Z" style="fill:#eb7e6c;"/><path d="M2800.04,444.796c47.903,-42.031 66.156,-101.643 57.078,-149.359c-6.486,-34.087 -26.549,-62.395 -59.254,-76.147c-30.868,-12.979 -73.618,-7.582 -117.547,11.081c-61.565,26.156 -125.792,77.514 -159.953,129.313c-25.513,38.687 -33.955,78.019 -18.506,109.12c10.357,20.849 31.671,39.061 68.473,50.455c61.939,19.176 146.128,-1.127 229.709,-74.463Zm-21.985,-25.056c-72.381,63.509 -144.226,84.283 -197.865,67.676c-25.483,-7.889 -41.308,-19.005 -48.479,-33.442c-10.846,-21.835 -1.433,-48.777 16.48,-75.939c30.963,-46.95 89.358,-93.277 145.161,-116.985c34.324,-14.583 67.472,-21.174 91.591,-11.032c22.026,9.261 35.061,28.693 39.429,51.649c7.201,37.85 -8.319,84.733 -46.317,118.073Z" style="fill:#7e4021;"/><path d="M2519.99,2296.81c-65.332,68.577 -29.264,148.737 60.369,165.814c200.055,38.113 413.062,-224.262 192.518,-270.759c-73.092,-15.41 -181.719,30.242 -252.887,104.945Zm94.59,23.272c-27.513,28.879 -14.866,53.905 10.445,57.717c71.33,10.745 175.405,-68.878 123.095,-101.377c-31.069,-19.302 -103.57,12.201 -133.54,43.66Z" style="fill:#9fcba4;"/><path d="M2507.92,2285.31c-38.177,40.072 -45.465,83.866 -31.377,119.799c13.835,35.29 49.255,64.083 100.694,73.883c128.155,24.416 261.086,-67.055 296.227,-154.549c13.057,-32.509 13.172,-64.558 -2.296,-91.262c-14.798,-25.549 -44.633,-47.039 -94.855,-57.628c-77.409,-16.32 -193.022,30.642 -268.393,109.757Zm24.134,22.992c66.968,-70.294 168.605,-114.633 237.382,-100.133c38.002,8.012 61.691,22.386 72.888,41.718c10.527,18.176 9.095,40.007 0.209,62.133c-30.687,76.403 -147.147,155.548 -259.058,134.227c-38.199,-7.277 -65.624,-27.098 -75.899,-53.305c-10.023,-25.565 -2.683,-56.13 24.478,-84.64Zm70.456,0.28c-19.26,20.216 -22.614,39.753 -18.573,54.234c4.534,16.246 18.725,28.466 38.602,31.46c28.092,4.232 60.784,-3.569 88.779,-17.618c28.488,-14.295 51.812,-35.056 61.631,-54.453c5.615,-11.093 7.274,-22.072 5.062,-32.052c-2.296,-10.358 -8.654,-20.161 -21.098,-27.892c-15.563,-9.668 -39.352,-10.618 -64.787,-4.004c-33.44,8.697 -69.88,29.608 -89.616,50.325l-0,-0Zm24.134,22.992c16.229,-17.035 46.374,-33.905 73.871,-41.056c15.207,-3.955 29.503,-5.723 38.807,0.057c2.808,1.745 4.883,3.528 5.823,5.774c0.929,2.221 0.466,4.659 -0.396,7.192c-1.65,4.853 -4.99,9.765 -9.317,14.667c-22.445,25.433 -70.29,48.776 -107.928,43.107c-5.458,-0.823 -10.215,-2.998 -11.46,-7.459c-1.74,-6.233 2.31,-13.58 10.6,-22.282l0,-0Z" style="fill:#7e4021;"/><path d="M3646.75,973.666c17.579,54.186 41.202,170.575 34.459,270.083c-6.443,95.08 -79.217,229.727 -79.217,229.727c-0,-0 137.658,-51.359 138.621,-258.415c0.384,-82.584 -50.335,-203.671 -93.863,-241.395Z" style="fill:#c094dd;"/><path d="M3657.66,961.071c-5.655,-4.901 -13.883,-5.432 -20.122,-1.298c-6.238,4.134 -8.956,11.918 -6.647,19.036c17.171,52.929 40.271,166.614 33.684,263.813c-6.255,92.315 -77.25,222.929 -77.25,222.929c-3.303,6.11 -2.47,13.628 2.09,18.867c4.56,5.239 11.89,7.101 18.398,4.673c-0,-0 148.436,-53.605 149.462,-273.952c0.404,-87.015 -53.752,-214.319 -99.615,-254.068Zm26.884,98.183c22.58,48.369 39.616,108.698 39.398,155.73c-0.528,113.415 -44.211,177.269 -80.352,210.726c22.069,-49.327 50.281,-122.37 54.242,-180.834c4.169,-61.516 -2.996,-129.339 -13.288,-185.62l-0,-0.002Z" style="fill:#7e4021;"/><path d="M1490.83,2470.72c-56.283,-8.796 -170.79,-40.301 -256.519,-91.27c-81.914,-48.701 -169.161,-174.454 -169.161,-174.454c-0,0 -16.369,146.012 167.918,240.411c73.503,37.651 204.443,47.104 257.762,25.313Z" style="fill:#c094dd;"/><path d="M1497.14,2486.15c6.927,-2.831 11.118,-9.932 10.249,-17.365c-0.87,-7.433 -6.587,-13.374 -13.98,-14.53c-54.977,-8.592 -166.836,-39.343 -250.576,-89.129c-79.531,-47.285 -163.984,-169.629 -163.984,-169.629c-3.96,-5.706 -11.043,-8.359 -17.776,-6.658c-6.734,1.701 -11.707,7.4 -12.481,14.302c0,0 -19.235,156.643 176.883,257.102c77.446,39.67 215.485,48.867 271.665,25.907Zm-99.737,-20.371c-53.353,-1.707 -114.871,-13.762 -156.731,-35.204c-100.944,-51.707 -138.177,-119.525 -151.698,-166.882c34.037,41.972 86.456,100.139 136.825,130.085c52.998,31.509 116.742,55.757 171.602,72.001l0.002,-0Z" style="fill:#7e4021;"/><path d="M2049.4,2004.23c17.579,54.186 41.202,170.575 34.459,270.083c-6.443,95.079 -79.217,229.726 -79.217,229.726c0,0 137.658,-51.358 138.621,-258.414c0.385,-82.584 -50.335,-203.671 -93.863,-241.395Z" style="fill:#c094dd;"/><path d="M2060.31,1991.63c-5.656,-4.901 -13.884,-5.432 -20.122,-1.298c-6.238,4.133 -8.956,11.918 -6.647,19.036c17.171,52.928 40.27,166.614 33.684,263.813c-6.256,92.314 -77.251,222.929 -77.251,222.929c-3.302,6.11 -2.469,13.627 2.09,18.866c4.56,5.239 11.891,7.101 18.398,4.674c0,-0 148.437,-53.605 149.462,-273.953c0.405,-87.014 -53.751,-214.319 -99.614,-254.067Zm26.883,98.183c22.58,48.369 39.617,108.697 39.398,155.729c-0.528,113.415 -44.211,177.27 -80.351,210.727c22.068,-49.328 50.28,-122.37 54.242,-180.834c4.168,-61.517 -2.996,-129.339 -13.288,-185.62l-0.001,-0.002Z" style="fill:#7e4021;"/><path d="M2022.98,1977.22c42.317,38.136 120.97,127.121 164.884,216.669c41.96,85.562 46.259,238.557 46.259,238.557c0,0 93.536,-113.307 -9.158,-293.104c-40.959,-71.712 -145.427,-151.216 -201.985,-162.122Z" style="fill:#c094dd;"/><path d="M2026.14,1960.85c-7.348,-1.416 -14.74,2.238 -18.075,8.937c-3.336,6.699 -1.798,14.799 3.761,19.809c41.335,37.252 118.182,124.157 161.078,211.627c40.74,83.074 44.563,231.687 44.563,231.687c0.195,6.943 4.675,13.037 11.244,15.294c6.568,2.257 13.848,0.205 18.269,-5.152c0,0 101.748,-120.641 -7.538,-311.98c-43.157,-75.559 -153.709,-158.73 -213.302,-170.222Zm72.373,71.587c43.74,30.599 88.658,74.327 111.984,115.167c56.251,98.484 50.348,175.626 35.777,222.67c-5.552,-53.753 -17.641,-131.116 -43.442,-183.728c-27.148,-55.359 -67.264,-110.513 -104.318,-154.107l-0.001,-0.002Z" style="fill:#7e4021;"/><path d="M1961.26,1971.81c55.716,11.869 168.324,49.606 251.128,105.199c79.12,53.119 159.341,183.467 159.341,183.467c-0,0 24.351,-144.894 -154.483,-249.257c-71.328,-41.624 -201.552,-58.243 -255.986,-39.409Z" style="fill:#c094dd;"/><path d="M1955.81,1956.06c-7.072,2.446 -11.646,9.307 -11.185,16.776c0.461,7.469 5.843,13.716 13.163,15.275c54.422,11.594 164.427,48.432 245.31,102.735c76.819,51.575 154.437,178.366 154.437,178.366c3.64,5.915 10.567,8.952 17.384,7.623c6.817,-1.33 12.095,-6.747 13.246,-13.597c0,0 27.795,-155.352 -162.519,-266.413c-75.154,-43.858 -212.481,-60.61 -269.836,-40.765Zm98.471,25.809c53.179,4.63 113.943,20.04 154.565,43.745c97.956,57.165 131.414,126.923 142.318,174.95c-31.684,-43.776 -80.835,-104.73 -129.485,-137.392c-51.191,-34.369 -113.51,-62.075 -167.396,-81.303l-0.002,0Z" style="fill:#7e4021;"/><path d="M3650.29,968.052c39.196,60.417 106.127,194.816 130.452,318.536c23.243,118.214 -21.568,306.45 -21.568,306.45c0,0 151.296,-107.758 84.723,-360.92c-26.553,-100.973 -128.11,-232.242 -193.607,-264.066Z" style="fill:#c094dd;"/><path d="M3657.58,953.061c-6.731,-3.271 -14.817,-1.654 -19.773,3.954c-4.955,5.607 -5.566,13.83 -1.493,20.108c38.477,59.308 104.202,191.231 128.081,312.68c22.708,115.495 -21.428,299.376 -21.428,299.376c-1.609,6.756 1.142,13.802 6.902,17.682c5.76,3.881 13.323,3.782 18.98,-0.247c0,-0 161.126,-112.719 91.172,-378.735c-27.679,-105.257 -134.164,-241.643 -202.441,-274.818Zm49.036,80.739c51.254,53.647 103.466,135.243 121.168,202.557c41.054,156.115 -4.263,254.192 -41.059,303.755c11.648,-66.318 26.04,-177.076 10.377,-256.739c-17.222,-87.589 -55.401,-180.438 -90.486,-249.573Z" style="fill:#7e4021;"/><path d="M3104.34,879.061c60.417,-39.197 194.816,-106.127 318.536,-130.453c118.215,-23.243 306.451,21.568 306.451,21.568c-0,-0 -107.759,-151.296 -360.921,-84.722c-100.972,26.552 -232.242,128.109 -264.066,193.607Z" style="fill:#c094dd;"/><path d="M3089.35,871.777c-3.27,6.731 -1.653,14.816 3.954,19.772c5.607,4.956 13.83,5.566 20.108,1.494c59.308,-38.477 191.231,-104.202 312.681,-128.081c115.495,-22.709 299.375,21.428 299.375,21.428c6.757,1.608 13.802,-1.142 17.683,-6.903c3.88,-5.76 3.781,-13.323 -0.248,-18.98c0,0 -112.719,-161.126 -378.734,-91.172c-105.258,27.68 -241.644,134.165 -274.819,202.442Zm80.739,-49.036c53.648,-51.255 135.243,-103.467 202.557,-121.169c156.115,-41.053 254.193,4.264 303.756,41.059c-66.319,-11.647 -177.077,-26.04 -256.74,-10.376c-87.589,17.221 -180.437,55.4 -249.573,90.486Z" style="fill:#7e4021;"/><path d="M1635.23,1850.43c-39.196,-60.417 -106.127,-194.816 -130.453,-318.537c-23.243,-118.214 21.568,-306.45 21.568,-306.45c0,-0 -151.296,107.759 -84.722,360.92c26.553,100.973 128.109,232.242 193.607,264.067Z" style="fill:#c094dd;"/><path d="M1627.94,1865.42c6.731,3.271 14.817,1.654 19.772,-3.953c4.956,-5.608 5.567,-13.83 1.494,-20.108c-38.477,-59.308 -104.202,-191.232 -128.081,-312.681c-22.708,-115.495 21.428,-299.375 21.428,-299.375c1.608,-6.757 -1.142,-13.803 -6.902,-17.683c-5.761,-3.88 -13.323,-3.782 -18.981,0.247c0,0 -161.126,112.72 -91.172,378.735c27.68,105.258 134.165,241.644 202.442,274.818Zm-49.036,-80.738c-51.254,-53.648 -103.467,-135.243 -121.168,-202.558c-41.054,-156.115 4.263,-254.192 41.059,-303.755c-11.648,66.319 -26.04,177.076 -10.377,256.74c17.221,87.588 55.401,180.437 90.486,249.573Z" style="fill:#7e4021;"/><path d="M2636.74,1648.66c61.986,-54.387 61.28,-146.206 2.04,-171.116c-99.186,-41.707 -355.684,180.481 -187.16,232.656c50.039,15.492 117.598,-2.294 185.12,-61.54Zm-58.023,-39.64c26.103,-22.903 23.813,-48.85 7.866,-57.645c-34.55,-19.057 -123.88,54.646 -97.533,85.164c18.289,21.184 61.232,-2.569 89.667,-27.519Z" style="fill:#9fcba4;"/><path d="M2647.74,1661.19c42.144,-36.978 58.133,-89.449 50.145,-131.429c-5.757,-30.263 -23.602,-55.369 -52.637,-67.579c-27.182,-11.429 -64.842,-6.836 -103.525,9.598c-53.697,22.813 -109.703,67.622 -139.497,112.8c-22.603,34.274 -29.847,69.16 -16.161,96.713c9.182,18.484 28.005,34.729 60.633,44.83c54.19,16.778 127.917,-0.771 201.042,-64.933Zm-21.985,-25.055c-61.926,54.335 -123.308,72.354 -169.199,58.146c-21.308,-6.597 -34.641,-15.746 -40.637,-27.817c-9.085,-18.289 -0.869,-40.782 14.134,-63.532c26.596,-40.33 76.77,-80.108 124.704,-100.472c29.079,-12.355 57.137,-18.142 77.57,-9.55c18.357,7.718 29.172,23.949 32.813,43.082c6.109,32.113 -7.146,71.855 -39.385,100.143Zm-36.039,-14.585c38.096,-33.426 28.196,-71.932 4.924,-84.767c-11.791,-6.504 -28.067,-6.749 -45.48,-0.73c-20.774,7.181 -43.655,23.065 -59.501,40.699c-11.819,13.154 -19.619,27.431 -21.534,39.838c-1.794,11.62 0.823,22.163 8.317,30.842c11.284,13.071 28.263,16.741 47.85,11.948c21.277,-5.205 46.366,-21.108 65.424,-37.83Zm-21.984,-25.056c-15.065,13.218 -34.543,26.393 -51.361,30.508c-5.862,1.434 -11.321,2.559 -14.698,-1.353c-1.533,-1.775 -0.747,-4.123 0.015,-6.587c2.016,-6.514 6.78,-13.37 12.766,-20.031c12.178,-13.553 29.63,-25.955 45.596,-31.473c7.105,-2.456 13.68,-4.241 18.491,-1.587c2.566,1.415 3.479,4.465 3.255,7.828c-0.472,7.082 -5.219,14.934 -14.064,22.695Z" style="fill:#7e4021;"/><path d="M2982.88,1510.2c91.311,-141.765 281.335,-180.93 414.217,-70.097c68.59,57.208 -199.521,332.05 -414.217,70.097Z" style="fill:#badcbe;"/><path d="M2968.87,1501.18c-3.917,6.081 -3.464,13.995 1.122,19.589c63.694,77.714 132.15,110.293 195.645,116.373c96.022,9.195 181.592,-42.799 225.704,-96.588c20.341,-24.804 31.843,-50.246 33.208,-70.641c1.183,-17.663 -4.485,-32.355 -16.775,-42.605c-140.78,-117.421 -342.165,-76.321 -438.904,73.872Zm34.871,7.898c88.241,-125.019 260.931,-157.721 382.683,-56.172c5.741,4.788 5.845,12.612 3.866,21.445c-3.084,13.767 -11.896,29.424 -24.724,45.066c-38.477,46.919 -112.994,92.564 -196.751,84.544c-53.719,-5.144 -110.88,-32.59 -165.074,-94.883l-0,0Z" style="fill:#7e4021;"/><path d="M2078.75,1800.54c-157.97,58.998 -333.682,-23.272 -373.883,-191.574c-20.751,-86.871 358.503,-146.769 373.883,191.574Z" style="fill:#badcbe;"/><path d="M2084.58,1816.16c6.777,-2.531 11.147,-9.144 10.819,-16.371c-4.563,-100.377 -39.939,-167.431 -87.187,-210.281c-71.453,-64.801 -171.129,-74.314 -238.652,-57.591c-31.138,7.712 -55.572,21.222 -68.865,36.75c-11.513,13.447 -15.758,28.612 -12.04,44.177c42.591,178.306 228.566,265.82 395.925,203.316Zm-23.221,-27.187c-145.493,47.412 -303.448,-29.669 -340.283,-183.873c-1.737,-7.271 2.859,-13.604 9.728,-19.498c10.707,-9.189 27.134,-16.466 46.769,-21.329c58.899,-14.587 145.919,-6.598 208.246,49.927c39.974,36.252 69.367,92.436 75.54,174.773l0,0Z" style="fill:#7e4021;"/><path d="M535.082,2145.99c31.298,-115.068 189.297,-168.353 349.951,-105.038c82.925,32.682 -60.302,267.646 -349.951,105.038Z" style="fill:#badcbe;"/><path d="M519,2141.62c-2.006,7.374 1.26,15.167 7.923,18.908c216,121.261 355.003,29.794 389.001,-44.827c18.383,-40.348 8.657,-77.072 -24.78,-90.25c-101.449,-39.982 -201.892,-35.169 -273.129,0.744c-49.543,24.975 -85.27,64.892 -99.015,115.425Zm36.181,-3.641c13.466,-35.596 41.275,-63.586 77.839,-82.019c64.136,-32.333 154.566,-35.493 245.902,0.503c9.512,3.749 13.217,12.494 12.719,22.771c-0.724,14.918 -8.961,32.337 -23.153,48.742c-46.887,54.198 -156.361,93.227 -313.307,10.003l0,0Z" style="fill:#7e4021;"/><path d="M3130.79,2348.72c-119.248,-0.45 -211.61,-139.273 -192.032,-310.841c10.105,-88.558 274.132,-11.024 192.032,310.841Z" style="fill:#badcbe;"/><path d="M3130.73,2365.39c7.642,0.029 14.324,-5.143 16.213,-12.547c61.224,-240.025 -63.103,-350.617 -143.981,-364.144c-43.73,-7.314 -76.686,11.586 -80.761,47.293c-12.363,108.342 18.283,204.116 71.41,263.631c36.947,41.39 84.75,65.569 137.119,65.767Zm-12.881,-34.006c-37.869,-3.795 -72.103,-23.411 -99.371,-53.959c-47.831,-53.582 -74.289,-140.113 -63.158,-237.653c1.159,-10.158 8.647,-16 18.703,-18.179c14.597,-3.162 33.554,0.286 53.073,9.748c64.487,31.263 130.52,126.905 90.753,300.043l-0,-0Z" style="fill:#7e4021;"/><path d="M4188.78,748.502c30.429,115.301 -79.759,240.447 -250.548,265.941c-88.156,13.159 -81.599,-261.939 250.548,-265.941Z" style="fill:#badcbe;"/><path d="M4204.9,744.25c-1.95,-7.389 -8.675,-12.505 -16.316,-12.413c-247.692,2.984 -322.338,151.699 -314.471,233.321c4.254,44.134 31.039,71.075 66.585,65.769c107.849,-16.099 192.428,-70.488 236.165,-137.209c30.418,-46.4 41.4,-98.833 28.037,-149.468Zm-29.514,21.243c6.137,37.561 -3.951,75.706 -26.4,109.951c-39.377,60.069 -116.112,108.021 -213.21,122.515c-10.111,1.509 -17.692,-4.211 -22.399,-13.36c-6.833,-13.282 -8.409,-32.485 -4.321,-53.788c13.507,-70.381 88.8,-158.918 266.33,-165.318l0,0Z" style="fill:#7e4021;"/><path d="M2037.13,683.299c58.484,-63.407 297.035,-125.726 487.896,15.934c88.177,65.447 -317.327,129.073 -487.896,-15.934Z" style="fill:#badcbe;"/><path d="M2024.88,671.999c-3.077,3.336 -4.66,7.781 -4.385,12.31c0.274,4.529 2.384,8.75 5.841,11.688c49.843,42.374 118.768,68.007 190.364,80.977c105.969,19.198 217.547,10.738 279.16,-9.045c20.972,-6.734 36.616,-15.091 45.68,-23.711c9.52,-9.054 13.247,-19.064 12.44,-28.875c-0.77,-9.366 -6.003,-19.831 -19.02,-29.493c-118.795,-88.172 -255.381,-100.251 -358.762,-81.532c-70.956,12.847 -126.334,40.594 -151.318,67.681Zm495.503,45.871c-0.571,0.748 -1.606,2.033 -2.494,2.815c-6.649,5.858 -17.855,10.894 -32.219,15.506c-58.05,18.639 -163.189,26.071 -263.028,7.984c-58.629,-10.621 -115.518,-30.003 -159.553,-61.716c25.469,-18.997 67.851,-36.071 119.048,-45.341c95.935,-17.37 222.719,-6.322 332.956,75.498c2.201,1.633 4.39,4.164 5.29,5.254Z" style="fill:#7e4021;"/><path d="M679.805,2129.63c2.895,0.372 5.923,-0.013 8.788,-1.27c8.424,-3.696 12.262,-13.535 8.567,-21.958c-1.517,-3.458 -5.18,-9.174 -14.152,-10.158c-4.4,-0.483 -23.55,3.352 -24.835,3.599c-67.808,13.043 -130.463,37.308 -190.833,70.323c-8.071,4.414 -11.04,14.55 -6.626,22.62c4.413,8.071 14.549,11.04 22.62,6.626c57.311,-31.342 116.763,-54.453 181.135,-66.836l15.336,-2.946Zm-12.301,-8.135c0.84,1.48 1.96,2.919 3.473,4.193c-1.357,-1.172 -2.538,-2.578 -3.473,-4.193Zm-0.341,-0.599l0.157,0.277l-0.247,-0.465l0.09,0.188Z" style="fill:#7e4021;"/><path d="M3077.53,2213.16c-0.39,-2.892 -1.546,-5.718 -3.501,-8.16c-5.75,-7.18 -16.248,-8.341 -23.428,-2.591c-2.947,2.36 -7.52,7.377 -6.149,16.298c0.673,4.375 9.333,21.88 9.905,23.058c30.148,62.121 69.803,116.361 117.318,166.129c6.352,6.654 16.911,6.898 23.564,0.546c6.653,-6.352 6.898,-16.911 0.546,-23.564c-45.108,-47.246 -82.819,-98.691 -111.44,-157.665l-6.815,-14.051Zm-4.938,14.248l-0.385,0.36l0.159,-0.136l0.226,-0.224Zm3.415,-4.7c-0.781,1.614 -1.833,3.118 -3.151,4.44c1.212,-1.195 2.312,-2.649 3.151,-4.44Z" style="fill:#7e4021;"/><path d="M4071.63,835.036c-2.692,1.125 -5.122,2.973 -6.975,5.494c-5.447,7.412 -3.852,17.853 3.56,23.3c3.043,2.236 9.072,5.355 17.335,1.721c4.052,-1.782 18.719,-14.678 19.708,-15.535c52.202,-45.199 94.33,-97.541 130.105,-156.318c4.782,-7.858 2.286,-18.12 -5.572,-22.902c-7.857,-4.783 -18.12,-2.286 -22.902,5.571c-33.962,55.799 -73.894,105.54 -123.45,148.45l-11.809,10.219Zm15.041,1.082l0.447,0.279l-0.172,-0.118l-0.275,-0.161Zm-5.424,-2.082c1.761,0.337 3.487,0.964 5.104,1.894c-1.467,-0.861 -3.157,-1.547 -5.104,-1.894Z" style="fill:#7e4021;"/><path d="M2160.35,704.717c2.648,0.961 5.575,1.258 8.545,0.732c9.058,-1.603 15.11,-10.259 13.506,-19.317c-0.655,-3.698 -2.835,-10.096 -11.275,-13.152c-3.731,-1.351 -21.216,-2.127 -22.388,-2.184c-60.295,-2.906 -118.528,4.778 -176.624,20.372c-8.884,2.385 -14.161,11.534 -11.776,20.418c2.385,8.884 11.533,14.161 20.418,11.776c54.728,-14.69 109.577,-22.009 166.377,-19.271l13.217,0.626Zm-7.571,-5.522l0.001,0.001l-0.027,-0.036l0.026,0.035Zm-2.758,-5.394c0.473,1.656 1.233,3.34 2.426,4.954c-1.061,-1.474 -1.891,-3.14 -2.426,-4.954Zm-0.189,-0.658l0.088,0.306l-0.132,-0.512l0.044,0.206Z" style="fill:#7e4021;"/><path d="M3164.4,1498.56c-3.744,-2.782 -9.51,-5.418 -17.214,-7.244c-12.373,-2.931 -31.444,-4.337 -53.914,-4.471c-70.62,-0.418 -176.738,10.952 -202.41,14.97c-9.088,1.422 -15.312,9.955 -13.889,19.043c1.422,9.088 9.955,15.312 19.043,13.889c24.993,-3.911 128.306,-14.976 197.058,-14.569c16.82,0.1 31.471,0.858 42.117,2.703c4.211,0.73 7.551,1.114 9.331,2.437c7.384,5.485 17.833,3.943 23.318,-3.441c5.485,-7.384 3.944,-17.832 -3.44,-23.317Z" style="fill:#7e4021;"/><path d="M1926.32,1701.3c1.337,4.468 4.38,10.03 9.463,16.101c8.162,9.75 22.604,22.283 40.533,35.83c56.345,42.574 148.189,96.933 171.166,109.068c8.134,4.296 18.225,1.18 22.521,-6.954c4.296,-8.134 1.18,-18.225 -6.954,-22.521c-22.369,-11.814 -111.783,-64.739 -166.638,-106.188c-13.42,-10.141 -24.708,-19.511 -32.136,-27.357c-2.939,-3.104 -5.385,-5.409 -6.021,-7.534c-2.637,-8.813 -11.932,-13.827 -20.745,-11.19c-8.812,2.637 -13.826,11.933 -11.189,20.745Z" style="fill:#7e4021;"/><path d="M1641.24,2207.06c-73.949,36.491 -97.032,125.364 -46.259,164.757c85.012,65.957 390.277,-82.273 240.999,-176.288c-44.324,-27.915 -114.184,-28.22 -194.74,11.531Zm45.787,53.307c-31.142,15.367 -35.645,41.023 -22.518,53.645c28.441,27.349 133.802,-20.722 116.251,-57.019c-12.182,-25.195 -59.81,-13.366 -93.733,3.374Z" style="fill:#9fcba4;"/><path d="M1633.86,2192.11c-50.279,24.81 -79.304,71.356 -82.454,113.972c-2.271,30.721 8.467,59.591 33.354,78.899c23.297,18.076 60.863,23.386 102.481,17.524c57.772,-8.138 123.467,-36.925 163.939,-72.852c30.703,-27.256 46.73,-59.078 40.641,-89.235c-4.085,-20.231 -18.062,-40.793 -46.964,-58.995c-48.002,-30.232 -123.757,-32.363 -210.997,10.687l-0,-0Zm14.75,29.892c73.879,-36.456 137.833,-37.975 178.483,-12.374c18.875,11.888 29.386,24.175 32.054,37.388c4.042,20.017 -9.716,39.617 -30.096,57.708c-36.129,32.072 -94.888,57.509 -146.46,64.773c-31.285,4.407 -59.885,2.736 -77.398,-10.852c-15.733,-12.207 -21.98,-30.684 -20.544,-50.106c2.41,-32.6 25.499,-67.558 63.961,-86.537l0,-0Zm31.037,23.415c-45.45,22.427 -45.853,62.183 -26.696,80.605c9.706,9.333 25.364,13.782 43.742,12.475c21.924,-1.559 48.137,-10.98 68.006,-23.912c14.822,-9.646 26.051,-21.418 31.112,-32.907c4.74,-10.76 4.941,-21.621 -0.051,-31.944c-7.517,-15.546 -22.967,-23.485 -43.128,-23.926c-21.899,-0.478 -50.249,8.389 -72.985,19.609Zm14.75,29.892c17.972,-8.869 40.196,-16.554 57.507,-16.175c6.033,0.132 11.597,0.458 13.847,5.11c1.021,2.112 -0.346,4.176 -1.72,6.359c-3.633,5.77 -10.009,11.16 -17.515,16.045c-15.271,9.939 -35.338,17.401 -52.188,18.6c-7.499,0.533 -14.312,0.555 -18.272,-3.253c-2.113,-2.032 -2.205,-5.214 -1.118,-8.405c2.289,-6.718 8.906,-13.074 19.459,-18.281Z" style="fill:#7e4021;"/><path d="M3007.55,800.336c80.874,-16.108 126.173,-95.979 87.325,-147.171c-65.045,-85.712 -398.272,-21.541 -278.414,107.906c35.589,38.436 102.99,56.812 191.089,39.265Zm-30.43,-63.341c34.058,-6.783 45.048,-30.399 35.636,-45.989c-20.394,-33.779 -134.607,-14.615 -127.049,24.988c5.247,27.49 54.313,28.391 91.413,21.001Z" style="fill:#9fcba4;"/><path d="M3010.8,816.682c54.987,-10.952 95.069,-48.399 109.142,-88.748c10.145,-29.087 7.245,-59.753 -11.796,-84.844c-17.826,-23.489 -52.737,-38.342 -94.454,-43.45c-57.91,-7.092 -128.817,3.711 -177.208,27.939c-36.712,18.38 -60.429,44.97 -62.352,75.675c-1.291,20.599 6.888,44.079 30.094,69.141c38.542,41.625 111.165,63.29 206.574,44.287l-0,-0Zm-6.512,-32.691c-80.796,16.092 -142.965,1.007 -175.603,-34.243c-15.156,-16.368 -22.128,-30.957 -21.285,-44.41c1.277,-20.381 19.638,-35.752 44.007,-47.953c43.198,-21.628 106.539,-30.99 158.233,-24.659c31.36,3.84 58.553,12.857 71.952,30.514c12.038,15.863 13.289,35.328 6.876,53.717c-10.765,30.865 -42.116,58.656 -84.18,67.034l0,-0Zm-23.918,-30.65c49.705,-9.9 60.384,-48.197 46.648,-70.949c-6.96,-11.528 -20.933,-19.878 -39.023,-23.372c-21.58,-4.168 -49.338,-1.853 -71.877,5.496c-16.814,5.482 -30.707,13.946 -38.569,23.734c-7.363,9.166 -10.368,19.605 -8.219,30.868c3.238,16.962 16.107,28.629 35.466,34.273c21.03,6.13 50.708,4.902 75.574,-0.05l-0,-0Zm-6.511,-32.691c-19.656,3.914 -43.111,5.585 -59.734,0.739c-5.794,-1.689 -11.084,-3.444 -12.052,-8.52c-0.44,-2.304 1.414,-3.944 3.307,-5.697c5.002,-4.633 12.555,-8.189 21.07,-10.965c17.323,-5.648 38.638,-7.662 55.224,-4.458c7.381,1.425 13.968,3.167 16.808,7.871c1.515,2.509 0.78,5.607 -1.096,8.407c-3.95,5.897 -11.986,10.324 -23.527,12.623l-0,-0Z" style="fill:#7e4021;"/><path d="M1804.66,1016.24c-73.091,53.798 -61.635,147.122 17.053,173.84c131.75,44.736 434.532,-174.967 212.827,-231.985c-65.829,-16.93 -150.261,-0.459 -229.88,58.145Zm78.825,41.659c-30.78,22.655 -24.866,49.077 -3.445,58.393c46.414,20.185 152.286,-52.593 115.055,-84.23c-25.844,-21.961 -78.081,1.158 -111.61,25.837Z" style="fill:#9fcba4;"/><path d="M1794.78,1002.82c-42.133,31.012 -59.192,73.765 -55.083,112.266c4.197,39.335 30.316,75.044 76.657,90.779c34.528,11.724 79.859,7.551 125.402,-7.542c65.933,-21.85 132.202,-66.152 165.059,-111.234c21.176,-29.057 28.677,-58.895 18.962,-84.573c-9.277,-24.519 -35.317,-47.246 -87.086,-60.56c-69.791,-17.949 -159.5,-1.267 -243.911,60.864Zm19.759,26.846c74.829,-55.078 153.981,-71.338 215.85,-55.427c36.94,9.501 57.592,22.577 64.212,40.073c6.181,16.338 -1.251,34.656 -14.725,53.144c-29.496,40.473 -89.415,79.61 -148.606,99.226c-37.875,12.552 -75.484,17.37 -104.198,7.62c-32.348,-10.984 -51.3,-35.295 -54.23,-62.752c-3.019,-28.292 10.738,-59.097 41.697,-81.884Zm59.066,14.813c-21.277,15.661 -28.504,33.449 -28.078,48.107c0.492,16.899 10.794,31.569 27.867,38.993c16.184,7.038 38.205,6.003 60.461,-1.445c30.293,-10.137 60.889,-31.67 75.317,-52.672c14.757,-21.481 14.788,-42.74 -3.285,-58.098c-13.875,-11.79 -33.197,-15.037 -54.534,-11.203c-26.143,4.696 -55.692,20.084 -77.748,36.318Zm19.759,26.846c18.18,-13.381 42.335,-26.485 63.883,-30.356c10.471,-1.881 20.246,-1.99 27.055,3.796c2.659,2.259 1.904,5.335 0.491,8.453c-2.413,5.324 -6.827,10.704 -12.295,15.959c-14.277,13.721 -35.671,26.005 -55.821,31.327c-11.141,2.942 -21.82,4.06 -29.99,0.507c-4.359,-1.896 -7.715,-5.081 -7.84,-9.395c-0.192,-6.566 4.987,-13.276 14.517,-20.291Z" style="fill:#7e4021;"/><path d="M294.31,2329.14c0.704,19.196 5.717,38.703 12.518,56.569c19.797,52.012 57.488,97.079 106.968,123.225c72.53,38.325 152.786,50.821 236.829,66.1c80.54,14.643 164.695,32.036 248.393,80.602c7.956,4.616 18.164,1.905 22.78,-6.051c4.617,-7.956 1.905,-18.164 -6.051,-22.78c-87.372,-50.698 -175.084,-69.281 -259.16,-84.566c-80.573,-14.649 -157.682,-26.033 -227.218,-62.777c-42.35,-22.378 -74.444,-61.094 -91.388,-105.611c-5.527,-14.52 -9.788,-30.331 -10.36,-45.932c-0.337,-9.193 -8.074,-16.382 -17.266,-16.045c-9.193,0.337 -16.382,8.074 -16.045,17.266Z" style="fill:#7e4021;"/><path d="M981.737,2696.3c67.022,29.033 99.017,65.439 116.326,76.39c7.774,4.918 18.078,2.599 22.996,-5.174c4.918,-7.774 2.599,-18.078 -5.174,-22.996c-17.95,-11.356 -51.396,-48.7 -120.898,-78.807c-8.441,-3.656 -18.262,0.228 -21.919,8.669c-3.656,8.441 0.228,18.262 8.669,21.918Z" style="fill:#7e4021;"/><path d="M1922.9,3124.72c14.681,4.894 29.961,8.585 45.014,12.132c44.642,10.522 90.817,13.239 136.569,12.501c136.381,-2.2 254.862,-43.315 378.143,-99.066c8.382,-3.79 12.109,-13.672 8.319,-22.054c-3.79,-8.381 -13.672,-12.108 -22.054,-8.318c-119.018,53.824 -233.28,93.985 -364.946,96.109c-43.005,0.693 -86.421,-1.726 -128.384,-11.616c-14.081,-3.319 -28.385,-6.732 -42.118,-11.311c-8.727,-2.909 -18.173,1.814 -21.083,10.54c-2.909,8.727 1.814,18.173 10.54,21.083Z" style="fill:#7e4021;"/><path d="M2586.71,3005.2c34.749,-23.072 129.753,-91.295 163.725,-115.483c7.493,-5.335 9.245,-15.75 3.91,-23.244c-5.335,-7.493 -15.75,-9.245 -23.244,-3.91c-33.787,24.057 -128.269,91.92 -162.829,114.868c-7.663,5.088 -9.754,15.44 -4.666,23.104c5.088,7.663 15.441,9.753 23.104,4.665Z" style="fill:#7e4021;"/><path d="M4580.67,987.249c57.453,-70.458 85.799,-167.999 81.732,-247.61c-2.878,-56.34 -22.234,-103.715 -56.779,-128.993c-7.423,-5.432 -17.86,-3.815 -23.292,3.608c-5.432,7.423 -3.816,17.86 3.608,23.292c27.553,20.163 40.878,58.855 43.173,103.793c3.693,72.298 -22.101,160.86 -74.275,224.844c-5.813,7.129 -4.745,17.637 2.384,23.45c7.129,5.813 17.636,4.745 23.449,-2.384Z" style="fill:#7e4021;"/></g></svg>