<?xml version="1.0" encoding="UTF-8" standalone="no"?><!DOCTYPE svg PUBLIC "-//W3C//DTD SVG 1.1//EN" "http://www.w3.org/Graphics/SVG/1.1/DTD/svg11.dtd"><svg width="100%" height="100%" viewBox="0 0 3547 2869" version="1.1" xmlns="http://www.w3.org/2000/svg" xmlns:xlink="http://www.w3.org/1999/xlink" xml:space="preserve" xmlns:serif="http://www.serif.com/" style="fill-rule:evenodd;clip-rule:evenodd;stroke-linejoin:round;stroke-miterlimit:2;"><g id="Multigrain-bread" serif:id="Multigrain bread"><path d="M368.639,1850.09c41.654,31.646 87.267,58.29 130.906,87.037c128.108,84.392 255.926,169.216 384.69,252.606c184.547,119.516 856.025,634.966 1066.43,657.713c208.267,22.515 471.977,-41.326 664.066,-106.221c614.014,-207.437 692.273,-203.617 789.901,-603.277c53.334,-218.334 156.238,-703.544 115.435,-927.964c-37.891,-208.399 -243.6,-429.196 -397.834,-554.018c-739.282,-598.303 -2103.52,-935.112 -2862.1,-199.519c-159.843,154.999 -265.842,339.344 -238.508,568.709c32.806,275.286 281.864,775.439 347.013,824.934Z" style="fill:#e4a57c;"/><path d="M358.557,1863.36c41.95,31.871 87.87,58.732 131.819,87.684c128.144,84.416 255.999,169.264 384.799,252.677c129.273,83.72 497.322,361.559 778.727,528.548c123.204,73.111 230.444,124.77 294.972,131.746c210.484,22.755 477.057,-41.415 671.191,-107.001c215.536,-72.816 365.234,-119.72 472.995,-167.06c111.175,-48.84 178.754,-98.583 227.995,-175.684c41.571,-65.091 69.919,-150.175 99.767,-272.368c53.728,-219.947 156.748,-708.822 115.642,-934.901c-38.532,-211.927 -246.9,-437.055 -403.746,-563.991c-446.267,-361.166 -1118.91,-627.564 -1750.45,-623.087c-422.815,2.998 -827.163,127.275 -1133.74,424.558c-163.67,158.711 -271.443,347.789 -243.455,582.647c23.162,194.359 152.926,499.952 251.403,682.878c43.5,80.804 81.76,137.918 102.078,153.354Zm20.165,-26.542c-18.772,-14.261 -52.704,-67.96 -92.893,-142.613c-96.796,-179.804 -224.887,-479.98 -247.654,-671.022c-26.679,-223.874 77.546,-403.484 233.561,-554.772c300.291,-291.191 696.617,-412.219 1110.77,-415.155c623.907,-4.423 1288.37,258.866 1729.24,615.665c151.623,122.708 354.672,339.174 391.921,544.043c40.502,222.763 -62.288,704.307 -115.228,921.028c-28.727,117.604 -55.47,199.69 -95.479,262.337c-45.937,71.928 -109.591,117.543 -213.309,163.107c-107.13,47.063 -255.982,93.608 -470.256,165.998c-190.045,64.204 -450.891,127.716 -656.94,105.441c-61.716,-6.672 -163.711,-57.348 -281.544,-127.272c-281.016,-166.758 -648.525,-444.257 -777.618,-527.86c-128.728,-83.367 -256.51,-168.167 -384.582,-252.535c-43.328,-28.543 -88.634,-54.97 -129.991,-86.39Z" style="fill:#7e4021;"/><path d="M2004.4,2839.1c-2.696,7.53 0.367,16.131 7.581,20.153c8.034,4.48 18.194,1.594 22.673,-6.441c0.833,-1.493 3.129,-9.707 4.868,-22.352c5.096,-37.038 14.119,-123.939 15.992,-136.969c1.31,-9.105 -5.02,-17.56 -14.124,-18.87c-9.105,-1.309 -17.56,5.02 -18.87,14.125c-1.876,13.05 -10.917,100.078 -16.02,137.171c-0.797,5.789 -1.868,11.887 -2.1,13.183Z" style="fill:#7e4021;"/><path d="M3366.95,1904.65c-2.626,10.57 -5.005,21.194 -7.509,31.793c-7.669,32.464 -15.28,64.942 -22.972,97.402c-2.122,8.95 3.423,17.939 12.374,20.061c8.95,2.121 17.939,-3.424 20.061,-12.374c7.694,-32.468 15.307,-64.954 22.977,-97.426c2.475,-10.475 4.824,-20.973 7.419,-31.419c2.218,-8.927 -3.229,-17.976 -12.156,-20.193c-8.927,-2.218 -17.976,3.229 -20.194,12.156Z" style="fill:#7e4021;"/><path d="M3319.35,2101.32c-1.336,5.478 -3.041,10.862 -4.638,16.268c-4.142,14.016 -8.522,27.957 -12.82,41.925c-2.705,8.792 2.236,18.126 11.028,20.831c8.792,2.705 18.126,-2.236 20.831,-11.028c4.335,-14.087 8.751,-28.148 12.928,-42.283c1.749,-5.919 3.593,-11.82 5.056,-17.818c2.178,-8.937 -3.308,-17.961 -12.245,-20.14c-8.937,-2.179 -17.961,3.308 -20.14,12.245Z" style="fill:#7e4021;"/><path d="M215.043,1437.04c3.92,10.609 7.866,21.226 11.982,31.761c11.585,29.654 29.598,70.334 42.402,99.482c3.699,8.422 13.54,12.256 21.962,8.557c8.422,-3.7 12.256,-13.541 8.557,-21.963c-12.64,-28.775 -30.436,-68.931 -41.873,-98.206c-4.041,-10.342 -7.914,-20.766 -11.762,-31.182c-3.187,-8.629 -12.78,-13.046 -21.409,-9.859c-8.629,3.188 -13.046,12.781 -9.859,21.41Z" style="fill:#7e4021;"/><path d="M298.041,1633.24c2.7,5.814 5.459,11.597 8.296,17.346c8.574,17.373 17.597,34.493 27.289,51.268c4.602,7.965 14.804,10.695 22.769,6.094c7.965,-4.602 10.695,-14.805 6.093,-22.769c-9.328,-16.146 -18.008,-32.625 -26.259,-49.344c-2.721,-5.513 -5.366,-11.058 -7.955,-16.633c-3.874,-8.344 -13.793,-11.972 -22.136,-8.098c-8.343,3.874 -11.971,13.792 -8.097,22.136Z" style="fill:#7e4021;"/><path d="M52.018,1170.63c617.024,-28.748 1358.55,498.927 1549.58,661.594c459.643,391.403 354.106,714.594 462.766,709.747c108.853,-4.857 124.769,-326.247 384.248,-535.974c199.76,-161.459 639.579,-387.186 1058.9,-397.588c20.817,-153.225 30.336,-300.601 12.55,-398.425c-37.891,-208.399 -243.6,-429.196 -397.834,-554.018c-739.282,-598.303 -2103.52,-935.112 -2862.1,-199.519c-159.843,154.999 -265.842,339.344 -238.508,568.709c5.21,43.722 15.875,93.115 30.392,145.474Z" style="fill:#c48464;"/><path d="M35.957,1175.08c2.078,7.496 9.066,12.558 16.836,12.196c612.555,-28.541 1348.36,496.146 1538,657.634c317.688,270.524 361.84,508.105 396.596,624.629c8.188,27.455 16.205,48.673 26.291,62.958c12.853,18.203 28.878,27.127 51.426,26.121c20.384,-0.91 38.416,-10.193 54.997,-27.08c14.21,-14.474 27.544,-34.922 40.925,-59.997c57.661,-108.052 118.61,-307.542 298.061,-452.585c197.867,-159.928 633.49,-383.585 1048.84,-393.888c8.178,-0.203 15,-6.312 16.102,-14.418c21.089,-155.231 30.452,-304.546 12.432,-403.651c-38.532,-211.927 -246.9,-437.055 -403.746,-563.991c-446.267,-361.166 -1118.91,-627.564 -1750.45,-623.087c-422.815,2.998 -827.163,127.275 -1133.74,424.558c-163.67,158.711 -271.443,347.789 -243.455,582.647c5.299,44.465 16.117,94.704 30.881,147.954Zm28.653,-21.638c-12.506,-46.743 -21.738,-90.844 -26.435,-130.261c-26.679,-223.874 77.546,-403.484 233.561,-554.772c300.291,-291.191 696.617,-412.219 1110.77,-415.155c623.907,-4.423 1288.37,258.866 1729.24,615.665c151.623,122.708 354.672,339.174 391.921,544.043c17.011,93.564 8.448,233.051 -10.797,379.217c-418.985,15.161 -855.341,239.689 -1054.74,400.853c-158.067,127.759 -227.513,296.055 -281.329,411.536c-17.103,36.7 -32.478,67.838 -48.96,89.974c-13.474,18.096 -26.999,30.007 -44.226,30.775c-12.754,0.569 -20.339,-6.738 -27.005,-19.042c-6.373,-11.761 -11.643,-27.349 -17.285,-46.263c-35.644,-119.504 -81.116,-363.04 -406.927,-640.481c-191.033,-162.672 -928.996,-686.93 -1547.79,-666.089l-0,0Z" style="fill:#7e4021;"/><path d="M2230.36,829.886c14.761,-14.762 38.73,-14.762 53.492,-0c14.761,14.761 42.774,66.743 28.012,81.504c-14.761,14.762 -66.743,-13.251 -81.504,-28.012c-14.762,-14.762 -14.762,-38.731 -0,-53.492Z" style="fill:#fff;"/><path d="M2218.57,818.101c-10.633,10.633 -15.953,24.581 -15.953,38.531c0,13.949 5.32,27.897 15.953,38.531c10.902,10.902 39.555,28.335 62.979,34.506c18.12,4.773 33.662,1.94 42.096,-6.494c8.433,-8.433 11.266,-23.975 6.493,-42.095c-6.171,-23.424 -23.604,-52.077 -34.506,-62.979c-10.633,-10.634 -24.582,-15.953 -38.531,-15.953c-13.95,-0 -27.898,5.319 -38.531,15.953Zm80.615,80.615c-1.525,-0.008 -3.552,-0.084 -5.069,-0.362c-8.072,-1.477 -17.388,-5.275 -26.08,-9.692c-10.936,-5.557 -20.932,-12.105 -25.896,-17.07c-4.128,-4.128 -6.19,-9.545 -6.19,-14.96c0,-5.416 2.062,-10.833 6.19,-14.961c4.128,-4.128 9.545,-6.19 14.961,-6.19c5.415,0 10.832,2.062 14.961,6.19c4.964,4.964 11.512,14.959 17.069,25.896c4.417,8.692 8.215,18.008 9.692,26.08c0.278,1.517 0.355,3.544 0.362,5.069Z" style="fill:#7e4021;"/><path d="M1939.9,363.409c3.408,20.596 -10.546,40.084 -31.142,43.492c-20.596,3.408 -79.169,-4.08 -82.577,-24.676c-3.407,-20.595 49.632,-46.55 70.227,-49.958c20.596,-3.408 40.084,10.546 43.492,31.142Z" style="fill:#fff;"/><path d="M1956.34,360.688c-2.455,-14.836 -10.698,-27.281 -22.04,-35.402c-11.342,-8.122 -25.779,-11.917 -40.615,-9.462c-15.212,2.517 -46.067,15.664 -64.722,31.116c-14.43,11.953 -21.175,26.239 -19.228,38.006c1.947,11.767 12.934,23.119 30.446,29.787c22.637,8.62 56.083,11.128 71.294,8.611c14.836,-2.455 27.282,-10.699 35.403,-22.04c8.121,-11.342 11.917,-25.78 9.462,-40.616Zm-112.478,18.611c0.894,-1.236 2.137,-2.839 3.246,-3.911c5.9,-5.702 14.412,-11.066 23.063,-15.561c10.886,-5.657 22.029,-9.971 28.955,-11.117c5.76,-0.953 11.364,0.524 15.768,3.677c4.403,3.153 7.607,7.983 8.56,13.743c0.953,5.76 -0.525,11.364 -3.678,15.767c-3.153,4.403 -7.982,7.608 -13.742,8.561c-6.927,1.146 -18.865,0.651 -30.993,-1.198c-9.638,-1.47 -19.424,-3.805 -26.847,-7.304c-1.395,-0.657 -3.087,-1.775 -4.332,-2.657Z" style="fill:#7e4021;"/><path d="M811.503,297.056c-20.742,2.359 -39.497,-12.566 -41.855,-33.309c-2.359,-20.742 8.09,-78.859 28.832,-81.218c20.742,-2.358 43.973,51.929 46.332,72.671c2.359,20.743 -12.567,39.497 -33.309,41.856Z" style="fill:#fff;"/><path d="M813.386,313.616c14.942,-1.699 27.789,-9.301 36.476,-20.216c8.686,-10.915 13.209,-25.141 11.51,-40.083c-1.742,-15.32 -13.307,-46.802 -27.793,-66.216c-11.206,-15.019 -25.131,-22.479 -36.982,-21.132c-11.85,1.348 -23.745,11.745 -31.293,28.895c-9.757,22.172 -13.958,55.447 -12.216,70.766c1.699,14.942 9.3,27.79 20.215,36.476c10.915,8.686 25.142,13.209 40.083,11.51l0,0Zm-12.881,-113.278c1.189,0.956 2.727,2.279 3.742,3.44c5.396,6.183 10.32,14.956 14.371,23.824c5.097,11.158 8.841,22.506 9.634,29.481c0.66,5.801 -1.101,11.323 -4.473,15.561c-3.372,4.238 -8.358,7.192 -14.159,7.852l0,0c-5.801,0.66 -11.323,-1.1 -15.56,-4.473c-4.238,-3.372 -7.193,-8.358 -7.853,-14.159c-0.793,-6.975 0.307,-18.874 2.769,-30.892c1.957,-9.551 4.785,-19.206 8.656,-26.441c0.727,-1.36 1.929,-2.994 2.873,-4.193Z" style="fill:#7e4021;"/><path d="M957.465,640.775c-33.884,3.853 -64.523,-20.529 -68.376,-54.413c-3.853,-33.885 13.217,-128.826 47.102,-132.679c33.884,-3.853 71.834,84.832 75.687,118.716c3.853,33.885 -20.528,64.523 -54.413,68.376Z" style="fill:#9d5e3e;"/><path d="M959.348,657.335c21.513,-2.447 40.01,-13.393 52.516,-29.108c12.507,-15.716 19.02,-36.198 16.574,-57.711c-2.712,-23.852 -20.821,-72.823 -43.374,-103.05c-15.558,-20.85 -34.303,-32.214 -50.756,-30.343c-16.453,1.871 -32.169,17.153 -42.648,40.964c-15.191,34.519 -21.843,86.306 -19.131,110.158c2.447,21.512 13.393,40.01 29.108,52.516c15.716,12.506 36.199,19.02 57.711,16.574Zm-3.766,-33.12c-12.372,1.407 -24.15,-2.344 -33.188,-9.536c-9.038,-7.193 -15.338,-17.829 -16.745,-30.201c-1.681,-14.788 1.228,-42.232 7.832,-67.345c3.64,-13.84 8.38,-26.994 14.421,-36.666c3.19,-5.107 5.867,-9.734 10.172,-10.224c4.304,-0.489 7.952,3.418 12.207,7.679c8.058,8.069 15.631,19.823 22.285,32.493c12.074,22.989 21.071,49.078 22.752,63.867c1.407,12.372 -2.343,24.151 -9.536,33.189c-7.192,9.038 -17.828,15.337 -30.2,16.744Z" style="fill:#7e4021;"/><path d="M723.55,471.608c0.376,34.1 -27.004,62.091 -61.105,62.467c-34.101,0.376 -126.805,-26.291 -127.181,-60.392c-0.375,-34.101 91.718,-62.805 125.819,-63.181c34.101,-0.376 62.091,27.005 62.467,61.106Z" style="fill:#9d5e3e;"/><path d="M740.216,471.424c-0.239,-21.65 -9.241,-41.168 -23.598,-55.212c-14.358,-14.044 -34.069,-22.614 -55.719,-22.375c-24.004,0.264 -74.567,13.282 -106.937,32.634c-22.329,13.349 -35.546,30.838 -35.363,47.396c0.182,16.558 13.781,33.751 36.399,46.604c32.789,18.634 83.627,30.534 107.631,30.27c21.649,-0.239 41.167,-9.241 55.212,-23.598c14.044,-14.358 22.613,-34.069 22.375,-55.719Zm-33.331,0.367c0.137,12.451 -4.796,23.786 -12.873,32.043c-8.077,8.257 -19.3,13.438 -31.751,13.575c-14.883,0.164 -41.886,-5.53 -66.195,-14.662c-13.396,-5.033 -25.998,-11.09 -35.003,-18.086c-4.755,-3.694 -9.085,-6.83 -9.133,-11.162c-0.048,-4.332 4.212,-7.562 8.885,-11.36c8.848,-7.193 21.313,-13.527 34.596,-18.854c24.101,-9.665 50.972,-15.953 65.856,-16.117c12.45,-0.137 23.785,4.795 32.042,12.873c8.257,8.077 13.438,19.299 13.576,31.75Z" style="fill:#7e4021;"/><path d="M1605.4,469.156c33.284,7.43 54.274,40.484 46.844,73.768c-7.429,33.284 -54.583,117.436 -87.866,110.007c-33.284,-7.43 -40.175,-103.647 -32.745,-136.93c7.429,-33.284 40.483,-54.274 73.767,-46.845Z" style="fill:#9d5e3e;"/><path d="M1609.03,452.89c-21.131,-4.717 -42.19,-0.415 -59.144,10.351c-16.955,10.767 -29.804,27.997 -34.521,49.129c-5.23,23.428 -4.115,75.629 7.324,111.565c7.891,24.79 21.895,41.654 38.057,45.262c16.161,3.607 36.007,-5.701 53.691,-24.781c25.636,-27.661 48.843,-74.432 54.073,-97.861c4.717,-21.131 0.415,-42.19 -10.352,-59.145c-10.766,-16.954 -27.997,-29.803 -49.128,-34.52Zm-7.262,32.533c12.153,2.712 22.059,10.106 28.251,19.856c6.192,9.751 8.671,21.861 5.958,34.014c-3.243,14.526 -14.959,39.513 -29.406,61.09c-7.962,11.892 -16.74,22.775 -25.609,29.942c-4.684,3.785 -8.726,7.283 -12.954,6.339c-4.228,-0.944 -6.4,-5.829 -9.029,-11.246c-4.979,-10.258 -8.296,-23.842 -10.445,-37.99c-3.9,-25.673 -3.879,-53.27 -0.636,-67.796c2.713,-12.153 10.106,-22.06 19.857,-28.252c9.75,-6.191 21.86,-8.67 34.013,-5.957Z" style="fill:#7e4021;"/><path d="M1974.03,658.974c6.554,-33.467 39.046,-55.318 72.513,-48.764c33.467,6.554 118.828,51.484 112.274,84.951c-6.554,33.467 -102.557,42.88 -136.024,36.326c-33.467,-6.554 -55.317,-39.046 -48.763,-72.513Z" style="fill:#9d5e3e;"/><path d="M1957.68,655.771c-4.161,21.247 0.691,42.186 11.899,58.852c11.208,16.667 28.769,29.059 50.017,33.22c23.558,4.613 75.711,2.13 111.335,-10.248c24.574,-8.539 41.066,-22.981 44.248,-39.231c3.182,-16.25 -6.643,-35.846 -26.181,-53.023c-28.324,-24.901 -75.688,-46.873 -99.246,-51.487c-21.248,-4.161 -42.186,0.692 -58.853,11.9c-16.666,11.208 -29.058,28.769 -33.219,50.017Zm32.712,6.406c2.393,-12.22 9.524,-22.317 19.108,-28.763c9.585,-6.445 21.626,-9.241 33.846,-6.848c14.607,2.861 39.892,13.918 61.84,27.794c12.097,7.647 23.207,16.137 30.604,24.815c3.906,4.582 7.509,8.532 6.677,12.783c-0.833,4.251 -5.659,6.55 -11.006,9.321c-10.124,5.246 -23.615,8.918 -37.703,11.438c-25.561,4.572 -53.149,5.274 -67.756,2.414c-12.219,-2.393 -22.317,-9.524 -28.762,-19.109c-6.446,-9.585 -9.241,-21.626 -6.848,-33.845Z" style="fill:#7e4021;"/><path d="M2594.05,921.036c-32.624,-9.934 -51.045,-44.486 -41.11,-77.11c9.934,-32.624 63.338,-112.955 95.962,-103.021c32.624,9.934 32.192,106.396 22.258,139.02c-9.934,32.624 -44.486,51.045 -77.11,41.111Z" style="fill:#9d5e3e;"/><path d="M2589.2,936.98c20.712,6.307 42.037,3.616 59.76,-5.833c17.723,-9.449 31.842,-25.654 38.149,-46.367c6.993,-22.964 9.844,-75.098 1.164,-111.8c-5.986,-25.316 -18.67,-43.195 -34.511,-48.019c-15.841,-4.823 -36.337,2.952 -55.418,20.635c-27.661,25.636 -54.35,70.511 -61.343,93.475c-6.307,20.712 -3.616,42.037 5.833,59.76c9.448,17.722 25.654,31.842 46.366,38.149l0,-0Zm9.71,-31.888c-11.911,-3.627 -21.228,-11.751 -26.662,-21.943c-5.434,-10.193 -6.987,-22.456 -3.36,-34.368c4.336,-14.239 17.915,-38.264 33.958,-58.682c8.842,-11.253 18.42,-21.439 27.808,-27.912c4.957,-3.419 9.254,-6.6 13.398,-5.338c4.144,1.262 5.938,6.298 8.149,11.899c4.186,10.607 6.462,24.402 7.532,38.673c1.94,25.895 -0.176,53.411 -4.512,67.649c-3.627,11.912 -11.751,21.229 -21.943,26.663c-10.193,5.434 -22.456,6.986 -34.368,3.359l0,0Z" style="fill:#7e4021;"/><path d="M1328.27,79.229c0,-34.103 27.687,-61.79 61.79,-61.79c34.103,-0 126.507,27.687 126.507,61.79c0,34.103 -92.404,61.79 -126.507,61.79c-34.103,-0 -61.79,-27.687 -61.79,-61.79Z" style="fill:#9d5e3e;"/><path d="M1311.6,79.229c0,21.651 8.787,41.267 22.988,55.469c14.202,14.201 33.818,22.988 55.469,22.988c24.005,-0 74.709,-12.46 107.291,-31.454c22.474,-13.102 35.883,-30.444 35.883,-47.003c-0,-16.559 -13.409,-33.901 -35.883,-47.003c-32.582,-18.994 -83.286,-31.454 -107.291,-31.454c-21.651,0 -41.267,8.786 -55.469,22.988c-14.201,14.202 -22.988,33.818 -22.988,55.469Zm33.334,-0c-0,-12.452 5.057,-23.731 13.225,-31.899c8.167,-8.167 19.446,-13.225 31.898,-13.225c14.884,0 41.823,5.992 66.029,15.391c13.341,5.18 25.875,11.376 34.802,18.471c4.715,3.747 9.009,6.93 9.009,11.262c0,4.332 -4.294,7.515 -9.009,11.262c-8.927,7.094 -21.461,13.29 -34.802,18.471c-24.206,9.399 -51.145,15.39 -66.029,15.39c-12.452,0 -23.731,-5.057 -31.898,-13.225c-8.168,-8.167 -13.225,-19.446 -13.225,-31.898Z" style="fill:#7e4021;"/><path d="M2942.73,582.858c-13.211,31.44 -49.462,46.24 -80.902,33.029c-31.44,-13.211 -105.903,-74.532 -92.693,-105.972c13.211,-31.44 109.126,-21.169 140.566,-7.959c31.44,13.211 46.24,49.462 33.029,80.902Z" style="fill:#9d5e3e;"/><path d="M2958.1,589.315c8.388,-19.961 7.886,-41.449 0.295,-60.043c-7.591,-18.595 -22.272,-34.294 -42.232,-42.681c-22.131,-9.299 -73.703,-17.454 -111.098,-12.565c-25.796,3.373 -44.875,14.167 -51.29,29.433c-6.415,15.266 -0.771,36.448 14.873,57.233c22.68,30.133 64.598,61.261 86.729,70.561c19.961,8.387 41.448,7.886 60.043,0.294c18.594,-7.591 34.293,-22.272 42.68,-42.232Zm-30.73,-12.913c-4.824,11.479 -13.856,19.919 -24.549,24.285c-10.694,4.365 -23.052,4.659 -34.531,-0.165c-13.722,-5.766 -36.237,-21.725 -54.912,-39.768c-10.292,-9.943 -19.447,-20.511 -24.929,-30.51c-2.895,-5.28 -5.621,-9.879 -3.943,-13.872c1.678,-3.994 6.871,-5.265 12.668,-6.893c10.979,-3.082 24.934,-3.939 39.24,-3.547c25.957,0.712 53.114,5.624 66.836,11.39c11.479,4.823 19.919,13.855 24.284,24.549c4.366,10.694 4.659,23.051 -0.164,34.531Z" style="fill:#7e4021;"/><path d="M2199.95,1461.68c-27.645,19.969 -66.301,13.737 -86.27,-13.908c-19.969,-27.645 -51.632,-118.764 -23.987,-138.733c27.645,-19.969 104.197,38.726 124.166,66.371c19.968,27.645 13.736,66.301 -13.909,86.27Z" style="fill:#9d5e3e;"/><path d="M2209.71,1475.19c17.551,-12.678 28.307,-31.287 31.504,-51.115c3.197,-19.828 -1.167,-40.874 -13.845,-58.426c-14.056,-19.459 -53.846,-53.266 -88.321,-68.556c-23.781,-10.547 -45.691,-11.261 -59.114,-1.565c-13.423,9.696 -19.63,30.72 -17.091,56.611c3.681,37.533 23.27,85.931 37.326,105.391c12.678,17.551 31.287,28.308 51.115,31.504c19.828,3.197 40.874,-1.167 58.426,-13.844l-0,-0Zm-19.519,-27.022c-10.094,7.291 -22.198,9.796 -33.602,7.958c-11.403,-1.838 -22.107,-8.021 -29.398,-18.114c-8.716,-12.066 -19.633,-37.412 -26.187,-62.538c-3.613,-13.848 -5.929,-27.637 -5.406,-39.027c0.277,-6.016 0.343,-11.361 3.854,-13.898c3.512,-2.537 8.607,-0.919 14.405,0.709c10.978,3.082 23.341,9.615 35.351,17.396c21.794,14.119 42.425,32.448 51.14,44.514c7.291,10.094 9.796,22.198 7.958,33.602c-1.839,11.403 -8.021,22.107 -18.115,29.398l0,0Z" style="fill:#7e4021;"/><path d="M1539.06,834.392c-27.645,19.969 -66.301,13.737 -86.27,-13.909c-19.969,-27.645 -51.632,-118.763 -23.987,-138.732c27.645,-19.969 104.196,38.725 124.165,66.37c19.969,27.645 13.737,66.302 -13.908,86.271Z" style="fill:#9d5e3e;"/><path d="M1548.82,847.902c17.552,-12.678 28.308,-31.286 31.505,-51.114c3.196,-19.829 -1.167,-40.875 -13.845,-58.426c-14.056,-19.46 -53.846,-53.266 -88.321,-68.556c-23.782,-10.547 -45.691,-11.262 -59.114,-1.566c-13.424,9.697 -19.63,30.72 -17.091,56.611c3.681,37.534 23.27,85.932 37.326,105.392c12.678,17.551 31.286,28.307 51.115,31.504c19.828,3.197 40.874,-1.167 58.425,-13.845l0,0Zm-19.518,-27.021c-10.094,7.291 -22.199,9.796 -33.602,7.958c-11.403,-1.839 -22.108,-8.021 -29.399,-18.115c-8.715,-12.065 -19.632,-37.411 -26.187,-62.537c-3.612,-13.848 -5.929,-27.637 -5.405,-39.028c0.277,-6.015 0.342,-11.361 3.854,-13.897c3.512,-2.537 8.607,-0.919 14.405,0.709c10.978,3.082 23.34,9.615 35.351,17.396c21.794,14.118 42.424,32.448 51.14,44.513c7.291,10.094 9.796,22.199 7.957,33.602c-1.838,11.404 -8.02,22.108 -18.114,29.399l0,0Z" style="fill:#7e4021;"/><path d="M1587.1,293.604c-18.729,-9.22 -26.45,-31.912 -17.23,-50.641c9.22,-18.73 49.408,-61.993 68.138,-52.773c18.729,9.22 8.953,67.454 -0.267,86.184c-9.22,18.729 -31.911,26.45 -50.641,17.23Z" style="fill:#fff;"/><path d="M1579.74,308.557c13.492,6.641 28.41,7.184 41.616,2.691c13.206,-4.493 24.698,-14.022 31.339,-27.514c6.81,-13.833 14.084,-46.574 12.381,-70.737c-1.317,-18.692 -9.006,-32.493 -19.707,-37.76c-10.7,-5.268 -26.326,-2.944 -41.943,7.412c-20.188,13.387 -41.698,39.12 -48.508,52.953c-6.641,13.491 -7.185,28.41 -2.691,41.616c4.493,13.206 14.022,24.697 27.513,31.339Zm50.352,-102.286c0.484,1.447 1.065,3.39 1.29,4.916c1.202,8.117 0.607,18.16 -0.775,27.811c-1.738,12.144 -4.717,23.716 -7.818,30.015c-2.579,5.238 -7.043,8.934 -12.17,10.678c-5.127,1.745 -10.919,1.538 -16.157,-1.04c-5.238,-2.579 -8.934,-7.043 -10.679,-12.17c-1.744,-5.127 -1.537,-10.919 1.041,-16.157c3.101,-6.299 10.454,-15.718 19.018,-24.502c6.806,-6.98 14.402,-13.577 21.568,-17.575c1.346,-0.752 3.24,-1.477 4.682,-1.976Z" style="fill:#7e4021;"/><path d="M1301.23,936.191c-10.069,-18.287 -3.397,-41.308 14.89,-51.377c18.287,-10.069 76.012,-22.506 86.081,-4.219c10.069,18.287 -31.306,60.417 -49.593,70.486c-18.287,10.069 -41.309,3.397 -51.378,-14.89Z" style="fill:#fff;"/><path d="M1286.63,944.23c7.254,13.173 19.17,22.165 32.568,26.048c13.398,3.883 28.276,2.656 41.449,-4.597c13.506,-7.437 38.225,-30.105 50.673,-50.886c9.628,-16.075 11.233,-31.791 5.48,-42.239c-5.752,-10.448 -19.891,-17.495 -38.624,-17.954c-24.216,-0.593 -56.589,8.175 -70.095,15.612c-13.173,7.253 -22.165,19.17 -26.048,32.568c-3.882,13.398 -2.656,28.276 4.597,41.448l0,0Zm99.87,-54.99c-0.433,1.464 -1.07,3.389 -1.759,4.769c-3.666,7.342 -9.907,15.232 -16.569,22.351c-8.381,8.957 -17.453,16.735 -23.603,20.121c-5.114,2.816 -10.891,3.288 -16.092,1.781c-5.202,-1.508 -9.831,-4.995 -12.647,-10.109l-0,-0.001c-2.816,-5.114 -3.288,-10.89 -1.781,-16.092c1.508,-5.202 4.996,-9.831 10.11,-12.646c6.15,-3.387 17.573,-6.894 29.624,-9.187c9.577,-1.823 19.583,-2.878 27.747,-2.05c1.534,0.156 3.502,0.646 4.97,1.063Z" style="fill:#7e4021;"/><path d="M2346.54,559.155c-1.249,20.838 -19.181,36.742 -40.019,35.494c-20.839,-1.249 -76.288,-21.551 -75.039,-42.389c1.248,-20.839 58.726,-34.373 79.564,-33.125c20.839,1.249 36.743,19.181 35.494,40.02Z" style="fill:#fff;"/><path d="M2363.17,560.152c0.899,-15.011 -4.376,-28.976 -13.632,-39.412c-9.256,-10.436 -22.491,-17.342 -37.502,-18.242c-15.391,-0.922 -48.394,5.049 -70.014,15.975c-16.723,8.452 -26.471,20.884 -27.184,32.79c-0.714,11.905 7.479,25.413 23.074,35.801c20.16,13.43 52.214,23.299 67.605,24.221c15.011,0.9 28.976,-4.376 39.412,-13.632c10.436,-9.256 17.341,-22.491 18.241,-37.501l-0,-0Zm-113.803,-6.82c1.146,-1.007 2.713,-2.294 4.032,-3.093c7.019,-4.251 16.51,-7.591 25.943,-10.054c11.869,-3.1 23.692,-4.833 30.7,-4.413c5.828,0.349 10.964,3.034 14.558,7.086c3.593,4.052 5.646,9.472 5.296,15.3l0,-0c-0.349,5.827 -3.034,10.964 -7.085,14.557c-4.052,3.594 -9.472,5.646 -15.3,5.297c-7.008,-0.42 -18.539,-3.553 -29.954,-8.048c-9.071,-3.572 -18.095,-8.021 -24.556,-13.08c-1.214,-0.951 -2.616,-2.416 -3.634,-3.552Z" style="fill:#7e4021;"/><path d="M2045.51,145.753c19.696,-6.917 41.303,3.458 48.22,23.155c6.917,19.696 9.669,78.681 -10.027,85.599c-19.697,6.917 -54.431,-40.836 -61.348,-60.533c-6.917,-19.696 3.458,-41.303 23.155,-48.221Z" style="fill:#fff;"/><path d="M2039.99,130.028c-14.188,4.983 -25.021,15.254 -31.059,27.829c-6.038,12.575 -7.281,27.451 -2.298,41.64c5.109,14.547 23.392,42.664 41.837,58.367c14.268,12.146 29.505,16.32 40.758,12.368c11.253,-3.952 20.535,-16.736 24.075,-35.137c4.576,-23.787 1.264,-57.162 -3.845,-71.71c-4.982,-14.188 -15.254,-25.021 -27.829,-31.059c-12.574,-6.038 -27.451,-7.281 -41.639,-2.298Zm37.776,107.567c-1.372,-0.667 -3.165,-1.614 -4.413,-2.52c-6.637,-4.826 -13.391,-12.283 -19.314,-20.026c-7.454,-9.744 -13.63,-19.973 -15.956,-26.597c-1.934,-5.509 -1.448,-11.284 0.896,-16.166c2.345,-4.882 6.548,-8.873 12.056,-10.808c5.508,-1.934 11.284,-1.447 16.166,0.897c4.882,2.344 8.873,6.547 10.807,12.055c2.326,6.624 3.903,18.469 4.178,30.734c0.219,9.747 -0.389,19.789 -2.552,27.705c-0.406,1.487 -1.214,3.348 -1.868,4.726Z" style="fill:#7e4021;"/><path d="M1733.39,746.711c19.696,-6.918 41.303,3.458 48.22,23.154c6.918,19.697 9.669,78.682 -10.027,85.599c-19.697,6.917 -54.431,-40.836 -61.348,-60.533c-6.917,-19.696 3.458,-41.303 23.155,-48.22Z" style="fill:#fff;"/><path d="M1727.87,730.985c-14.188,4.983 -25.021,15.255 -31.059,27.829c-6.038,12.575 -7.281,27.452 -2.298,41.64c5.109,14.547 23.393,42.665 41.837,58.367c14.268,12.147 29.505,16.32 40.758,12.368c11.254,-3.952 20.535,-16.736 24.075,-35.136c4.577,-23.788 1.265,-57.163 -3.844,-71.71c-4.983,-14.189 -15.254,-25.021 -27.829,-31.06c-12.575,-6.038 -27.452,-7.28 -41.64,-2.298l0,0Zm37.777,107.567c-1.372,-0.667 -3.166,-1.613 -4.413,-2.52c-6.638,-4.826 -13.392,-12.282 -19.315,-20.026c-7.453,-9.744 -13.629,-19.973 -15.956,-26.597c-1.934,-5.509 -1.448,-11.284 0.897,-16.166c2.344,-4.882 6.547,-8.873 12.055,-10.807l0,-0c5.509,-1.935 11.284,-1.448 16.166,0.896c4.882,2.344 8.873,6.547 10.807,12.056c2.327,6.624 3.903,18.468 4.179,30.733c0.219,9.747 -0.39,19.789 -2.552,27.705c-0.407,1.488 -1.215,3.348 -1.868,4.726Z" style="fill:#7e4021;"/><path d="M2191.62,1129.87c-14.004,-15.481 -12.804,-39.42 2.678,-53.424c15.481,-14.004 68.8,-39.38 82.804,-23.898c14.004,15.481 -16.575,65.996 -32.057,80c-15.482,14.004 -39.421,12.804 -53.425,-2.678Z" style="fill:#fff;"/><path d="M2179.26,1141.05c10.088,11.152 23.752,17.163 37.684,17.861c13.932,0.698 28.129,-3.916 39.281,-14.004c11.435,-10.343 30.28,-38.087 37.615,-61.173c5.675,-17.858 3.623,-33.523 -4.378,-42.368c-8.001,-8.845 -23.381,-12.453 -41.717,-8.592c-23.704,4.991 -53.193,20.967 -64.628,31.311c-11.152,10.087 -17.163,23.752 -17.861,37.684c-0.698,13.932 3.916,28.129 14.004,39.281Zm84.549,-76.479c-0.084,1.523 -0.262,3.543 -0.615,5.044c-1.879,7.988 -6.139,17.103 -10.985,25.562c-6.098,10.645 -13.138,20.3 -18.345,25.01c-4.329,3.916 -9.843,5.704 -15.251,5.433c-5.409,-0.271 -10.716,-2.601 -14.633,-6.931c-3.916,-4.33 -5.704,-9.843 -5.433,-15.252c0.271,-5.409 2.601,-10.716 6.931,-14.632c5.207,-4.71 15.517,-10.749 26.718,-15.752c8.902,-3.976 18.397,-7.303 26.532,-8.375c1.529,-0.201 3.557,-0.176 5.081,-0.107Z" style="fill:#7e4021;"/><path d="M1284.78,132.541c9.922,18.367 3.065,41.334 -15.302,51.256c-18.367,9.922 -76.19,21.894 -86.112,3.527c-9.922,-18.368 31.79,-60.164 50.158,-70.085c18.367,-9.922 41.334,-3.066 51.256,15.302Z" style="fill:#fff;"/><path d="M1299.44,124.619c-7.147,-13.23 -18.991,-22.317 -32.357,-26.308c-13.367,-3.99 -28.254,-2.883 -41.485,4.264c-13.565,7.328 -38.466,29.796 -51.08,50.476c-9.758,15.997 -11.489,31.7 -5.82,42.194c5.669,10.494 19.75,17.654 38.478,18.264c24.211,0.787 56.653,-7.72 70.219,-15.048c13.231,-7.147 22.318,-18.991 26.309,-32.357c3.99,-13.367 2.883,-28.254 -4.264,-41.485Zm-100.308,54.186c0.444,-1.46 1.097,-3.38 1.797,-4.754c3.725,-7.312 10.029,-15.153 16.748,-22.218c8.453,-8.889 17.587,-16.594 23.764,-19.931c5.137,-2.774 10.917,-3.2 16.106,-1.651c5.19,1.55 9.79,5.074 12.565,10.211c2.775,5.137 3.2,10.917 1.651,16.106c-1.549,5.19 -5.074,9.79 -10.21,12.565c-6.178,3.337 -17.628,6.752 -29.697,8.948c-9.592,1.746 -19.606,2.721 -27.763,1.827c-1.533,-0.168 -3.497,-0.674 -4.961,-1.103Z" style="fill:#7e4021;"/><path d="M2601.91,460.826c9.922,18.368 3.065,41.335 -15.302,51.257c-18.367,9.922 -76.19,21.894 -86.112,3.526c-9.922,-18.367 31.791,-60.163 50.158,-70.085c18.367,-9.922 41.334,-3.065 51.256,15.302Z" style="fill:#fff;"/><path d="M2616.57,452.905c-7.147,-13.231 -18.991,-22.318 -32.357,-26.308c-13.367,-3.991 -28.254,-2.884 -41.484,4.263c-13.566,7.328 -38.467,29.797 -51.081,50.477c-9.757,15.997 -11.489,31.7 -5.82,42.193c5.669,10.494 19.751,17.655 38.479,18.264c24.21,0.788 56.653,-7.719 70.218,-15.047c13.231,-7.147 22.318,-18.991 26.309,-32.358c3.99,-13.366 2.883,-28.253 -4.264,-41.484Zm-100.308,54.185c0.444,-1.459 1.097,-3.379 1.797,-4.754c3.725,-7.312 10.03,-15.152 16.748,-22.217c8.453,-8.89 17.587,-16.594 23.764,-19.931c5.137,-2.775 10.917,-3.2 16.106,-1.651c5.19,1.549 9.791,5.074 12.565,10.211c2.775,5.136 3.201,10.916 1.651,16.106c-1.549,5.189 -5.074,9.79 -10.21,12.565c-6.177,3.337 -17.628,6.752 -29.697,8.948c-9.592,1.746 -19.605,2.72 -27.763,1.827c-1.533,-0.168 -3.497,-0.675 -4.961,-1.104Z" style="fill:#7e4021;"/><path d="M1415.9,558.807c9.922,18.367 3.065,41.334 -15.302,51.256c-18.368,9.922 -76.191,21.894 -86.113,3.527c-9.921,-18.368 31.791,-60.164 50.158,-70.085c18.368,-9.922 41.335,-3.066 51.257,15.302Z" style="fill:#fff;"/><path d="M1430.56,550.885c-7.147,-13.23 -18.991,-22.318 -32.358,-26.308c-13.366,-3.99 -28.253,-2.883 -41.484,4.264c-13.566,7.328 -38.466,29.796 -51.08,50.476c-9.758,15.997 -11.489,31.7 -5.82,42.194c5.668,10.494 19.75,17.654 38.478,18.264c24.211,0.787 56.653,-7.72 70.219,-15.048c13.23,-7.147 22.318,-18.991 26.308,-32.357c3.991,-13.367 2.884,-28.254 -4.263,-41.485Zm-100.308,54.186c0.443,-1.46 1.097,-3.38 1.797,-4.754c3.724,-7.312 10.029,-15.153 16.747,-22.218c8.454,-8.889 17.588,-16.594 23.765,-19.931c5.136,-2.774 10.916,-3.2 16.106,-1.651c5.189,1.55 9.79,5.074 12.565,10.211c2.775,5.137 3.2,10.917 1.651,16.106c-1.549,5.19 -5.074,9.79 -10.211,12.565c-6.177,3.337 -17.628,6.752 -29.697,8.948c-9.592,1.746 -19.605,2.721 -27.762,1.827c-1.533,-0.168 -3.497,-0.674 -4.961,-1.103Z" style="fill:#7e4021;"/><path d="M3187.95,820.577c-1.237,20.839 -19.159,36.754 -39.999,35.517c-20.839,-1.237 -76.3,-21.507 -75.063,-42.346c1.237,-20.839 58.706,-34.407 79.545,-33.17c20.84,1.237 36.754,19.16 35.517,39.999Z" style="fill:#fff;"/><path d="M3204.59,821.565c0.891,-15.012 -4.393,-28.973 -13.655,-39.404c-9.262,-10.431 -22.501,-17.329 -37.512,-18.22c-15.392,-0.914 -48.392,5.076 -70.005,16.014c-16.718,8.462 -26.459,20.899 -27.165,32.806c-0.707,11.906 7.494,25.408 23.094,35.788c20.167,13.418 52.227,23.269 67.619,24.183c15.011,0.89 28.973,-4.393 39.404,-13.655c10.431,-9.262 17.329,-22.501 18.22,-37.512l-0,-0Zm-113.808,-6.755c1.146,-1.007 2.713,-2.296 4.032,-3.095c7.016,-4.255 16.504,-7.601 25.936,-10.069c11.868,-3.106 23.69,-4.846 30.698,-4.43c5.828,0.346 10.966,3.027 14.562,7.077c3.596,4.05 5.651,9.469 5.305,15.297l-0,-0c-0.346,5.828 -3.028,10.966 -7.077,14.562c-4.05,3.595 -9.469,5.651 -15.297,5.305c-7.009,-0.416 -18.542,-3.542 -29.958,-8.031c-9.074,-3.566 -18.1,-8.011 -24.564,-13.066c-1.215,-0.95 -2.618,-2.414 -3.637,-3.55Z" style="fill:#7e4021;"/><path d="M2727.11,1105.55c-28.126,2.626 -66.082,49.828 -37.654,105.495c45.258,88.623 217.015,138.132 287.608,36.418c88.395,-127.365 -213.925,-282.261 -249.954,-141.913Z" style="fill:#ffeeda;"/><path d="M2713.98,1091.57c-8.275,2.913 -16.729,8.085 -24.331,15.394c-23.083,22.197 -39.192,64.363 -15.036,111.665c24.688,48.342 83.439,86.67 146.083,98.388c63.822,11.938 130.83,-3.521 170.061,-60.047c26.14,-37.664 23.734,-77.35 4.246,-113.119c-17.881,-32.822 -50.901,-62.279 -88.366,-82.414c-37.63,-20.223 -79.594,-30.927 -114.51,-27.412c-35.978,3.623 -65.151,21.364 -78.147,57.545Zm14.679,30.579c7.005,-0.654 12.845,-5.636 14.595,-12.45c7.018,-27.34 27.256,-39.995 52.212,-42.508c29.141,-2.934 63.986,6.73 95.391,23.608c31.57,16.967 59.807,41.342 74.875,68.999c13.463,24.711 15.699,52.147 -2.359,78.166c-31.363,45.19 -85.526,55.832 -136.548,46.288c-52.199,-9.764 -101.954,-40.501 -122.525,-80.784c-13.482,-26.4 -8.617,-50.416 2.668,-65.833c6.297,-8.603 14.248,-14.791 21.691,-15.486Z" style="fill:#7e4021;"/><path d="M1116.46,325.552c-24.186,-4.636 -64.49,17.712 -50.283,60.61c22.618,68.296 158.808,139.556 236.211,88.868c96.925,-63.471 -130.896,-233.291 -185.928,-149.478Z" style="fill:#ffeeda;"/><path d="M1108.67,308.379c-32.846,1.024 -75.693,30.56 -58.319,83.023c12.475,37.668 55.45,77.045 106.799,99.124c51.829,22.286 111.275,26.665 154.365,-1.553c31.959,-20.928 37.431,-50.533 26.104,-81.575c-9.493,-26.017 -32.448,-53.474 -61.033,-75.533c-33.958,-26.206 -75.616,-44.639 -109.839,-45.703c-23.45,-0.729 -43.779,6.192 -58.077,22.217Zm4.647,33.542c6.627,1.271 13.367,-1.58 17.07,-7.221c7.737,-11.783 20.669,-15.676 35.324,-15.221c28.326,0.881 62.405,17.085 90.51,38.775c23.135,17.853 42.401,39.513 50.084,60.57c5.849,16.031 3.453,31.455 -13.051,42.263c-34.317,22.472 -81.66,16.565 -122.937,-1.183c-41.755,-17.954 -78.179,-48.351 -88.323,-78.982c-9.024,-27.248 15.961,-41.946 31.323,-39.001Z" style="fill:#7e4021;"/><path d="M2443.93,345.825c26.487,-9.815 50.933,-65.233 9.067,-111.645c-66.654,-73.89 -245.373,-77.258 -287.234,39.261c-52.419,145.904 279.689,217.275 278.167,72.384Z" style="fill:#ffeeda;"/><path d="M2460.23,355.934c7.239,-4.954 14.067,-12.138 19.518,-21.167c16.551,-27.414 21.198,-72.312 -14.378,-111.751c-36.358,-40.305 -103.027,-62.121 -166.57,-57.226c-64.737,4.986 -125.46,37.262 -148.725,102.016c-15.5,43.145 -2.905,80.857 25.176,110.363c25.767,27.075 65.286,46.983 106.686,56.735c41.581,9.795 84.886,9.273 117.703,-3.16c33.814,-12.811 57.401,-37.498 60.59,-75.81Zm-22.094,-25.737c-6.597,2.445 -10.948,8.768 -10.874,15.803c0.296,28.225 -15.976,45.687 -39.432,54.573c-27.388,10.376 -63.547,10.06 -98.251,1.885c-34.885,-8.217 -68.469,-24.454 -90.182,-47.269c-19.399,-20.383 -28.66,-46.306 -17.951,-76.113c18.598,-51.767 68.161,-76.065 119.915,-80.052c52.947,-4.078 108.962,12.734 139.258,46.32c19.856,22.011 21.372,46.467 14.462,64.281c-3.856,9.939 -9.935,17.974 -16.945,20.572Z" style="fill:#7e4021;"/><path d="M370.582,516.875c8.918,-18.683 -6.517,-60.304 -52.225,-63.338c-72.77,-4.83 -168.469,84.632 -131.001,167.274c46.916,103.483 257.991,-28.522 183.226,-103.936Z" style="fill:#ffeeda;"/><path d="M389.048,512.645c0.985,-6.365 0.769,-13.502 -0.937,-20.874c-5.631,-24.334 -27.315,-52.12 -68.65,-54.864c-40.901,-2.715 -88.582,20.358 -120.437,56.433c-32.648,36.974 -48.432,86.746 -26.848,134.353c27.617,60.914 102.956,57.259 160.981,22.538c27.676,-16.56 50.789,-39.686 62.028,-63.678c11.718,-25.016 11.705,-51.065 -6.137,-73.908Zm-33.507,-2.95c-3.031,6.349 -1.748,13.918 3.205,18.914c13.06,13.174 13.246,28.876 6.253,43.804c-8.776,18.735 -27.345,36.282 -48.957,49.215c-21.773,13.028 -46.812,21.434 -69.091,20.551c-18.927,-0.749 -35.613,-8.834 -44.416,-28.25c-15.886,-35.039 -2.554,-71.313 21.475,-98.525c24.822,-28.11 61.373,-47.352 93.243,-45.237c19.583,1.3 31.683,12.065 36.615,23.714c2.48,5.858 3.595,11.789 1.673,15.814Z" style="fill:#7e4021;"/><path d="M3369.52,965.592c16.889,-11.972 23.683,-55.84 -14.758,-80.754c-61.201,-39.665 -188.357,-8.149 -195.889,82.277c-9.432,113.229 239.209,100.758 210.647,-1.523Z" style="fill:#ffeeda;"/><path d="M3387.71,970.892c3.961,-5.078 7.248,-11.416 9.349,-18.686c6.936,-23.995 1.533,-58.824 -33.231,-81.355c-34.398,-22.293 -87.279,-25.368 -132.672,-9.379c-46.523,16.388 -84.551,52.169 -88.89,104.259c-5.552,66.651 62.025,100.157 129.613,98.098c32.238,-0.982 63.688,-9.921 85.19,-25.4c22.419,-16.139 35.096,-38.896 30.641,-67.537Zm-27.826,-18.897c-5.74,4.069 -8.307,11.304 -6.414,18.08c4.989,17.867 -2.498,31.671 -15.876,41.302c-16.791,12.087 -41.555,18.367 -66.73,19.134c-25.361,0.773 -51.322,-4.083 -70.35,-15.705c-16.165,-9.874 -26.8,-25.063 -25.03,-46.308c3.194,-38.338 32.506,-63.524 66.747,-75.586c35.37,-12.459 76.664,-11.46 103.468,5.912c16.47,10.674 21.793,25.969 20.426,38.545c-0.687,6.324 -2.603,12.047 -6.241,14.626Z" style="fill:#7e4021;"/><path d="M1706.29,979.316c-18.552,21.242 -19.225,74.591 32.069,86.091c81.664,18.308 231.53,-74.36 225.012,-181.453c-8.161,-134.1 -309.756,-9.292 -257.081,95.362Z" style="fill:#ffeeda;"/><path d="M1687.41,977.428c-17.75,31.741 -13.541,90.601 47.303,104.242c44.519,9.981 107.966,-9.151 159.058,-46.51c51.555,-37.699 89.821,-93.306 86.236,-152.218c-2.588,-42.53 -28.215,-64.737 -64.496,-71.742c-31.222,-6.029 -71.485,0.374 -109.605,15.396c-45.419,17.9 -87.517,47.919 -108.045,80.943c-14,22.523 -18.634,46.49 -10.451,69.889Zm31.433,12.851c4.459,-5.105 5.381,-12.402 2.334,-18.456c-7.822,-15.541 -4.38,-31.606 4.994,-46.687c17.347,-27.908 53.574,-52.401 91.957,-67.528c31.715,-12.498 65.087,-18.695 91.064,-13.679c20.918,4.038 36.051,16.517 37.543,41.038c2.933,48.185 -30.472,92.451 -72.639,123.285c-42.631,31.173 -94.944,49.22 -132.091,40.892c-35.319,-7.918 -35.936,-44.238 -23.162,-58.865Z" style="fill:#7e4021;"/><path d="M2713.91,1108.51c10.681,18.621 28.401,40.013 73.278,73.583c46.322,34.652 128.469,52.3 182.874,62.119c9.052,1.634 17.728,-4.389 19.362,-13.441c1.634,-9.052 -4.389,-17.728 -13.441,-19.362c-50.107,-9.043 -126.167,-24.094 -168.829,-56.007c-39.055,-29.216 -55.034,-47.272 -64.331,-63.478c-4.577,-7.979 -14.771,-10.741 -22.75,-6.164c-7.979,4.577 -10.741,14.771 -6.163,22.75Z" style="fill:#7e4021;"/><path d="M1102.94,328.433c5.846,14.88 17.162,33.391 49.703,66.111c32.963,33.147 99.145,63.322 143.277,82.037c8.468,3.591 18.259,-0.369 21.85,-8.837c3.592,-8.469 -0.368,-18.26 -8.837,-21.851c-40.714,-17.266 -102.244,-44.274 -132.655,-74.854c-27.237,-27.387 -37.42,-42.339 -42.312,-54.794c-3.364,-8.562 -13.045,-12.782 -21.607,-9.419c-8.562,3.364 -12.782,13.045 -9.419,21.607Z" style="fill:#7e4021;"/><path d="M2455.92,339.555c-15.137,-15.223 -37.79,-31.299 -89.826,-52.111c-53.712,-21.481 -137.628,-17.267 -192.721,-12.671c-9.166,0.765 -15.988,8.828 -15.223,17.995c0.765,9.167 8.828,15.988 17.995,15.223c50.739,-4.233 128.103,-9.381 177.571,10.403c45.286,18.112 65.394,31.417 78.568,44.665c6.486,6.523 17.048,6.552 23.57,0.066c6.523,-6.487 6.552,-17.048 0.066,-23.57Z" style="fill:#7e4021;"/><path d="M373.762,503.008c-16.103,-0.284 -36.723,2.797 -75.608,18.786c-39.776,16.355 -82.467,61.929 -109.475,92.91c-6.044,6.933 -5.322,17.47 1.612,23.515c6.933,6.044 17.47,5.322 23.515,-1.611c24.137,-27.689 61.476,-69.368 97.024,-83.985c32.162,-13.225 49.026,-16.522 62.345,-16.287c9.197,0.162 16.795,-7.173 16.958,-16.37c0.162,-9.198 -7.174,-16.796 -16.371,-16.958Z" style="fill:#7e4021;"/><path d="M3379.06,955.031c-13.925,-8.092 -33.434,-15.446 -75.183,-20.423c-42.705,-5.091 -102.187,13.916 -140.865,27.818c-8.657,3.111 -13.159,12.665 -10.047,21.321c3.111,8.657 12.665,13.159 21.321,10.047c34.567,-12.424 87.48,-30.637 125.645,-26.087c34.531,4.117 50.865,9.452 62.382,16.144c7.953,4.622 18.163,1.917 22.784,-6.036c4.622,-7.954 1.916,-18.163 -6.037,-22.784Z" style="fill:#7e4021;"/><path d="M1701.45,991.851c18.122,3.045 42.943,2.787 93.977,-9.849c52.031,-12.884 120.042,-60.421 164.011,-92.918c7.397,-5.468 8.964,-15.912 3.497,-23.31c-5.468,-7.397 -15.912,-8.964 -23.31,-3.497c-40.936,30.257 -103.768,75.373 -152.21,87.368c-43.737,10.83 -64.911,11.944 -80.442,9.334c-9.071,-1.524 -17.674,4.603 -19.198,13.674c-1.524,9.072 4.603,17.674 13.675,19.198Z" style="fill:#7e4021;"/></g></svg>