<?xml version="1.0" encoding="UTF-8" standalone="no"?><!DOCTYPE svg PUBLIC "-//W3C//DTD SVG 1.1//EN" "http://www.w3.org/Graphics/SVG/1.1/DTD/svg11.dtd"><svg width="100%" height="100%" viewBox="0 0 3561 2387" version="1.1" xmlns="http://www.w3.org/2000/svg" xmlns:xlink="http://www.w3.org/1999/xlink" xml:space="preserve" xmlns:serif="http://www.serif.com/" style="fill-rule:evenodd;clip-rule:evenodd;stroke-linejoin:round;stroke-miterlimit:2;"><g id="Naan"><g><path d="M2304.9,28.509c-177.119,-43.376 -365.176,44.311 -407.179,72.927c-111.439,75.921 -215.209,193.136 -341.344,242.688c-98.274,38.608 -212.46,37.627 -315.817,53.076c-276.3,41.297 -536.212,134.585 -749.131,320.679c-138.795,121.31 -225.456,284.731 -306.296,447.29c-61.531,123.73 -141.769,243.909 -161.859,383.074c-74.623,516.895 512.899,788.029 936.109,819.019c251.141,18.39 1046.86,-51.607 1276.84,-141.601c313.783,-122.785 510.965,-408.323 746.294,-632.446c169.539,-161.465 397.085,-264.092 509.887,-479.5c296.068,-565.374 -771.837,-983.409 -1187.51,-1085.21Z" style="fill:#ffeeda;"/><path d="M2308.87,12.321c-182.926,-44.798 -377.147,45.787 -420.527,75.341c-110.458,75.252 -213.03,191.833 -338.054,240.95c-97.127,38.157 -210.037,36.836 -312.187,52.104c-279.476,41.772 -542.269,136.381 -757.635,324.614c-140.451,122.757 -228.447,287.92 -310.251,452.418c-62.308,125.293 -143.087,247.19 -163.432,388.113c-38.297,265.277 92.679,467.791 288.165,607.66c192.932,138.043 448.864,214.667 663.222,230.363c252.582,18.496 1052.83,-52.192 1284.13,-142.703c315.825,-123.584 514.853,-410.315 751.715,-635.897c84.398,-80.379 183.276,-146.061 275.052,-218.509c94.01,-74.211 180.583,-155.484 238.105,-265.328c122.323,-233.59 21.152,-443.374 -174.073,-617.099c-285.529,-254.083 -773.057,-430.514 -1024.23,-492.027l-0.001,-0Zm-7.928,32.377c247.626,60.643 728.512,234.06 1010,484.551c182.79,162.66 281.235,358.022 166.702,576.734c-55.28,105.564 -138.882,183.309 -229.229,254.629c-92.582,73.084 -192.247,139.448 -277.387,220.534c-233.798,222.664 -429.132,507.008 -740.873,628.994c-228.668,89.479 -1019.85,158.785 -1269.55,140.5c-208.852,-15.294 -458.285,-89.731 -646.261,-224.227c-185.422,-132.669 -310.895,-324.169 -274.57,-575.789c19.837,-137.406 99.534,-255.867 160.287,-378.033c79.876,-160.621 165.201,-322.3 302.342,-442.163c210.47,-183.955 467.502,-275.922 740.625,-316.745c104.566,-15.629 220.026,-14.987 319.449,-54.046c127.245,-49.989 232.212,-167.837 344.633,-244.427c40.625,-27.678 222.52,-112.466 393.83,-70.512l0.001,-0Z" style="fill:#7e4021;"/><path d="M2503.55,707.182c-71.205,19.489 -292.323,66.347 -303.656,149.462c-12.374,90.741 188.299,38.374 227.818,34.646c53.666,-5.063 255.054,3.382 252.795,-80.774c-0.855,-31.854 -27.902,-55.824 -53.379,-70.803c-36.726,-21.591 -82.493,-43.775 -123.578,-32.531Z" style="fill:#9d5e3e;"/><path d="M2499.15,691.107c-50.695,13.874 -175.994,41.693 -250.628,85.947c-36.667,21.742 -61.179,48.267 -65.143,77.338c-2.067,15.153 0.527,27.377 6.1,37.256c8.003,14.188 22.729,23.98 42.342,29.289c24.531,6.639 57.516,6.397 90.176,3.17c45.698,-4.517 90.693,-14.659 107.279,-16.224c38.487,-3.631 151.047,-1.108 214.375,-28.463c33.627,-14.526 54.376,-37.304 53.516,-69.351c-1.01,-37.63 -31.497,-67.029 -61.593,-84.723c-40.424,-23.766 -91.202,-46.616 -136.424,-34.239l-0,-0Zm8.799,32.151c36.955,-10.114 77.698,11.402 110.731,30.823c20.869,12.269 44.465,30.789 45.165,56.883c0.302,11.249 -5.22,19.829 -13.929,26.694c-11.468,9.042 -27.755,15.291 -46.141,20.054c-61.748,15.994 -145.9,13.992 -177.63,16.985c-19.63,1.852 -79.279,15.843 -132.492,18.043c-23.909,0.989 -46.428,-0.172 -62.222,-7.13c-5.446,-2.398 -9.964,-5.435 -12.66,-9.895c-2.65,-4.383 -3.3,-9.957 -2.364,-16.819c1.77,-12.981 10.769,-24.389 23.398,-35.161c15.143,-12.915 35.512,-24.434 58.287,-34.834c72.086,-32.917 167.648,-54.091 209.857,-65.643l0,-0Z" style="fill:#7e4021;"/><path d="M478.518,1868.72c68.585,6.429 292.323,-66.348 303.657,-149.462c12.373,-90.741 -188.518,19.522 -242.837,1.749c-51.232,-16.763 -101.762,-116.198 -168.673,-40.328c-47.351,53.691 39.268,181.611 107.853,188.041Z" style="fill:#e4a57c;"/><path d="M476.962,1885.32c50.079,4.694 179.678,-30.418 256.855,-82.051c36.451,-24.387 60.963,-53.089 64.872,-81.753c2.215,-16.247 -1.052,-28.012 -7.073,-36.47c-8.715,-12.241 -24.659,-18.793 -46.221,-18.728c-36.003,0.107 -91.232,18.43 -138.049,30.603c-17.129,4.454 -33.025,8.024 -46.109,9.097c-6.644,0.545 -12.349,0.584 -16.716,-0.845c-11.114,-3.636 -21.998,-12.06 -33.267,-21.166c-13.468,-10.882 -27.206,-22.89 -41.412,-31.948c-16.895,-10.773 -34.572,-17.399 -53.005,-16.061c-18.361,1.333 -38.123,10.364 -58.672,33.663c-22.781,25.831 -22.112,65.861 -5.031,105.196c13.854,31.904 38.007,63.223 64.731,84.088c19.214,15.001 39.856,24.571 59.097,26.375l0,-0Zm3.112,-33.188c-13.681,-1.283 -28.034,-8.795 -41.695,-19.46c-22.586,-17.634 -42.962,-44.13 -54.67,-71.092c-11.333,-26.097 -15.658,-52.733 -0.544,-69.871c12.454,-14.121 23.725,-21.131 34.899,-22.357c17.523,-1.921 33.205,9.369 48.794,21.519c22.967,17.901 45.264,38.774 67.297,45.983c11.712,3.832 29.122,3.426 49.696,-0.381c40.024,-7.407 94.455,-26.947 136.676,-34.252c10.719,-1.855 20.546,-2.904 28.941,-2.481c6.133,0.31 11.343,0.842 14.476,4.024c2.698,2.739 2.546,7.171 1.717,13.248c-1.41,10.336 -7.458,20.247 -16.149,29.952c-15.643,17.467 -39.667,33.604 -67.072,47.888c-70.324,36.656 -162.977,60.972 -202.366,57.28l-0,-0Z" style="fill:#7e4021;"/><path d="M270.209,1587.94l-4.327,-14.494c-0.66,-14.81 7.573,-24.439 14.306,-34.891c7.002,-10.869 13.293,-22.198 15.45,-36.222c0.426,-2.768 0.658,-5.562 0.873,-8.352c0.705,-9.171 -6.168,-17.19 -15.339,-17.896c-9.172,-0.705 -17.191,6.168 -17.896,15.34c-0.15,1.95 -0.286,3.904 -0.583,5.839c-1.844,11.986 -8.954,20.698 -14.893,29.983c-8.96,14.011 -16.354,28.693 -15.17,48.734c0.123,2.086 2.504,14.616 6.11,24.106c2.153,5.667 4.94,10.361 7.439,13.037c4.37,4.68 9.358,6.376 13.817,6.519c4.117,0.133 8.381,-0.934 12.479,-4.25c7.151,-5.787 8.258,-16.29 2.472,-23.441c-1.355,-1.674 -2.968,-3.016 -4.738,-4.012Z" style="fill:#7e4021;"/><path d="M303.536,1431.39c1.756,-5.824 9.545,-31.626 10.514,-34.48c2.958,-8.71 -1.712,-18.183 -10.422,-21.141c-8.71,-2.958 -18.183,1.712 -21.141,10.422c-1.33,3.916 -11.465,31.089 -12.519,43.559c-0.994,11.78 4.819,18.637 9.356,21.284c7.944,4.637 18.159,1.952 22.796,-5.993c2.509,-4.3 2.874,-9.265 1.416,-13.651Z" style="fill:#7e4021;"/><path d="M724.967,1566.59l-5.762,-0.708c-0.567,-0.368 -1.164,-0.701 -1.789,-1c-8.297,-3.972 -18.257,-0.461 -22.229,7.836c-3.146,6.572 -2.506,12.877 2.483,18.709c1.657,1.937 4.937,4.665 10.041,6.172c5.879,1.737 17.62,2.385 18.436,2.334c32.335,-2.059 62.205,-21.535 92.252,-31.778c37.778,-12.879 61.644,22.141 68.667,55.849c1.876,9.005 10.71,14.793 19.715,12.917c9.006,-1.876 14.794,-10.71 12.917,-19.716c-10.951,-52.567 -53.141,-100.685 -112.055,-80.601c-27.072,9.229 -53.599,27.789 -82.676,29.986Zm1.429,9.325c0.831,3.35 0.632,6.976 -0.776,10.371c1.524,-3.565 1.785,-7.028 0.776,-10.371Z" style="fill:#7e4021;"/><path d="M888.746,1702.83c-0.938,1.817 -2.09,4.125 -2.467,5.161c-2.608,7.162 -5.923,14.009 -9.246,20.859c-4.015,8.276 -0.556,18.255 7.72,22.27c8.276,4.015 18.255,0.556 22.27,-7.72c3.755,-7.741 7.451,-15.502 10.419,-23.584c0.337,-0.639 2.99,-5.677 3.474,-6.938c0.741,-1.929 1.007,-3.523 1.119,-4.602c0.832,-8.022 -3.162,-12.525 -6.427,-15.043c-2.842,-2.191 -6.424,-3.699 -11.083,-3.459c-1.718,0.089 -5.758,0.211 -10.513,4.349c-2.726,2.372 -4.494,5.437 -5.266,8.707Zm16.233,20.526c2.909,0.209 6.754,-0.468 10.912,-4.086c-3.149,2.74 -7.039,4.086 -10.912,4.086Z" style="fill:#7e4021;"/><path d="M1832.63,1408.09l4.977,-7.661c6.449,-6.562 13.688,-12.444 20.882,-18.15c22.692,-17.995 47.318,-34.992 74.596,-45.184c20.795,-7.769 43.327,-13.065 65.52,-9.624c15.875,2.461 26.115,11.329 37.006,19.106c10.063,7.188 20.463,13.838 33.368,17.669c17.263,5.125 34.108,5.669 50.903,7.033c13.474,1.095 26.951,2.737 40.561,10.04c8.105,4.349 18.217,1.3 22.566,-6.806c4.349,-8.105 1.3,-18.217 -6.806,-22.566c-18.042,-9.681 -35.76,-12.44 -53.622,-13.891c-14.541,-1.182 -29.169,-1.328 -44.116,-5.765c-11.901,-3.533 -20.626,-10.835 -29.933,-17.473c-12.774,-9.109 -26.252,-17.408 -44.82,-20.287c-27.839,-4.316 -56.208,1.593 -82.294,11.339c-30.526,11.405 -58.247,30.154 -83.641,50.292c-8.698,6.898 -17.398,14.081 -25.105,22.093c-0.23,0.239 -7.412,10.046 -10.289,15.452c-2.101,3.947 -2.727,7.329 -2.835,8.97c-0.501,7.553 3.12,12.02 6.687,14.706c3.005,2.264 7.019,4.004 12.546,3.224c6.934,-0.98 12.269,-6.105 13.849,-12.517Zm-3.468,-14.756c-3.095,-4.189 -7.776,-6.76 -15.044,-5.733c5.874,-0.83 11.469,1.516 15.044,5.733Z" style="fill:#7e4021;"/><path d="M2192.38,1474.82c-0.198,3.339 -0.575,9.651 -0.641,10.415c-0.792,9.164 6.006,17.247 15.171,18.038c9.164,0.791 17.247,-6.007 18.038,-15.171c0.176,-2.031 1.572,-17.681 -0.289,-24.006c-2.929,-9.955 -10.1,-13.54 -16.747,-13.902c-9.185,-0.5 -17.048,6.551 -17.548,15.736c-0.175,3.212 0.573,6.262 2.016,8.89Zm12.896,8.592c0.272,0.03 0.547,0.051 0.823,0.066l-0.823,-0.066Zm-0.651,-0.077l0.518,0.062l-0.702,-0.092l0.184,0.03Zm-0.721,-0.119l0.43,0.071l-0.694,-0.127l0.264,0.056Zm-0.71,-0.151l0.302,0.064l-0.56,-0.131l0.258,0.067Zm-0.698,-0.183l0.096,0.025l-0.195,-0.056l0.099,0.031Z" style="fill:#7e4021;"/><path d="M2102.12,969.347c-0.794,-0.524 -1.758,-1.154 -2.187,-1.416c-27.434,-16.681 -45.148,-60.405 -50.58,-90.189c-2.678,-14.691 -2.121,-25.843 1.143,-34.839c4.986,-13.74 15.888,-22.107 27.389,-30.865c17.249,-13.136 36.068,-26.469 49.183,-48.328c4.733,-7.888 2.171,-18.134 -5.716,-22.867c-7.888,-4.733 -18.134,-2.171 -22.867,5.717c-13.902,23.17 -36.196,34.164 -52.962,48.745c-21.845,18.996 -37.438,41.937 -28.962,88.417c6.861,37.623 31.399,91.619 66.053,112.691c1.629,0.99 5.856,3.507 6.523,3.758c10.742,4.043 16.861,-2.586 18.934,-5.176c1.05,-1.31 9.55,-11.986 -1.697,-22.703c-1.291,-1.23 -2.728,-2.212 -4.254,-2.945Zm-19.895,25.861c0.322,0.378 0.703,0.786 1.154,1.216c-0.409,-0.39 -0.794,-0.795 -1.154,-1.216Zm-0.4,-0.487l0.175,0.213l-0.191,-0.234l0.016,0.021Z" style="fill:#7e4021;"/><path d="M2159.47,685.928c0.678,-0.958 3.939,-5.509 6.367,-8.052c5.847,-6.125 12.445,-11.872 15.764,-15.621c6.099,-6.885 5.46,-17.428 -1.426,-23.527c-6.885,-6.099 -17.428,-5.46 -23.527,1.426c-4.73,5.341 -15.95,14.714 -22.474,23.536c-4.976,6.729 -7.633,13.629 -7.888,19.437c-0.402,9.19 6.732,16.977 15.922,17.38c8.737,0.382 16.206,-6.047 17.262,-14.579Z" style="fill:#7e4021;"/><path d="M2975.29,1343.26c1.988,-3.23 7.296,-11.295 15.674,-20.1c15.539,-16.33 36.732,-28.275 56.926,-37.945c12.707,-6.085 29.092,-5.785 43.957,-7.364c13.81,-1.468 26.611,-4.219 36.585,-10.305c14.546,-8.875 29.242,-24.349 44.122,-41.973c19.508,-23.106 39.592,-50.195 61.989,-66.484c7.439,-5.41 9.086,-15.842 3.676,-23.281c-5.411,-7.44 -15.843,-9.087 -23.282,-3.677c-20.515,14.92 -39.57,37.796 -57.71,59.754c-15.904,19.25 -30.842,37.862 -46.157,47.207c-8.127,4.959 -19.411,5.374 -30.918,6.384c-16.296,1.43 -33.036,3.151 -46.658,9.675c-23.75,11.373 -48.402,25.826 -66.677,45.031c-14.427,15.161 -20.42,25.381 -22.829,30.894c-2.539,5.809 -2.591,9.767 -2.479,11.632c0.455,7.556 4.546,11.225 7.265,13.12c3.655,2.547 7.817,3.565 12.425,2.789c2.678,-0.45 6.137,-1.614 9.379,-4.921c2.868,-2.926 4.437,-6.644 4.712,-10.436Zm-27.906,-13.49c-0.204,0.188 -0.408,0.386 -0.611,0.593l0.611,-0.593Zm0.548,-0.487l-0.515,0.458l0.609,-0.534l-0.094,0.076Zm0.584,-0.472l-0.488,0.395l0.651,-0.515l-0.163,0.12Zm0.585,-0.43l-0.399,0.293l0.612,-0.435l-0.213,0.142Zm0.584,-0.39l-0.241,0.161l0.443,-0.283l-0.202,0.122Zm0.583,-0.352l-0.027,0.016l0.063,-0.036l-0.036,0.02Z" style="fill:#7e4021;"/><path d="M3281.44,1069.09c-1.237,0.702 -2.401,1.577 -3.46,2.622c-5.908,5.835 -5.123,11.386 -4.929,13.471c0.477,5.113 2.821,9.07 6.847,11.975c2.166,1.563 6.172,3.919 12.355,2.954c0.829,-0.129 3.1,-0.631 5.396,-1.776c2.127,-1.061 4.293,-2.771 4.686,-3.135c11.845,-10.959 22.564,-24.223 32.039,-37.205c20.403,-27.958 37.019,-58.983 42.546,-93.527c1.453,-9.083 -4.741,-17.638 -13.824,-19.091c-9.083,-1.453 -17.637,4.741 -19.091,13.824c-4.689,29.31 -19.245,55.423 -36.557,79.144c-7.763,10.637 -16.416,21.552 -26.008,30.744Zm24.912,14.408c0.021,4.324 -1.631,8.654 -4.949,11.93c4.805,-4.745 5.109,-9.31 4.949,-11.93Zm-1.796,-7.467l0.015,0.031l-0.011,-0.023l-0.004,-0.008Z" style="fill:#7e4021;"/><path d="M1108.06,534.667c4.48,-1.344 23.797,-6.976 41.988,-9.823c71.991,-11.266 194.184,-20.497 231.525,-39.168c8.227,-4.114 11.567,-14.133 7.453,-22.361c-4.113,-8.227 -14.133,-11.567 -22.36,-7.453c-15.723,7.861 -47.897,13.339 -84.427,18.423c-58.691,8.17 -128.101,14.423 -165.208,22.758c-13.485,3.029 -23.382,6.748 -28.687,10.357c-6.058,4.122 -8.929,9.097 -10.053,13.592c-2.233,8.923 3.199,17.981 12.123,20.213c6.856,1.716 13.792,-1.094 17.646,-6.538Z" style="fill:#7e4021;"/><path d="M1487.12,464.905c1.54,-0.666 9.503,-4.068 14.755,-5.666c8.773,-2.671 17.41,-5.025 21.664,-6.92c8.402,-3.742 12.186,-13.603 8.443,-22.006c-3.743,-8.402 -13.603,-12.186 -22.006,-8.443c-5.951,2.651 -21.522,6.041 -32.094,10.458c-8.297,3.466 -14.319,8.145 -17.156,12.311c-5.178,7.603 -3.209,17.979 4.394,23.157c7.074,4.817 16.548,3.449 22,-2.891Z" style="fill:#7e4021;"/><path d="M3049.72,733.373c-24.776,16.617 -51.195,9.903 -64.993,-5.639c-5.203,-5.859 -8.604,-12.942 -8.767,-20.345c-1.212,-54.768 52.075,-96.322 101.191,-108.328c26.621,-6.507 52.71,-5.044 66.524,12.103c9.272,11.509 12.009,29.309 7.391,54.129c-1.682,9.043 4.294,17.751 13.337,19.434c9.044,1.682 17.752,-4.294 19.434,-13.337c6.963,-37.423 -0.225,-63.785 -14.205,-81.138c-21.069,-26.152 -59.795,-33.496 -100.397,-23.571c-62.895,15.375 -128.152,71.311 -126.601,141.445c1.054,47.648 65.534,93.252 125.653,52.931c7.639,-5.124 9.682,-15.486 4.558,-23.125c-5.124,-7.64 -15.486,-9.682 -23.125,-4.559Z" style="fill:#7e4021;"/><path d="M1019.16,1973.44l-7.566,-4.818c-5.346,-7.478 -8.747,-16.877 -8.538,-26.107c0.623,-27.408 27.649,-43.263 51.765,-50.385c33.622,-9.93 71.418,0.991 92.684,20.712c8.736,8.101 14.718,17.661 14.557,28.052c-0.167,10.753 -7.009,21.421 -20.769,31.922c-7.312,5.581 -8.718,16.048 -3.138,23.361c5.581,7.312 16.048,8.718 23.361,3.138c24.238,-18.498 33.582,-38.964 33.875,-57.906c0.299,-19.3 -8.994,-37.96 -25.22,-53.008c-28.65,-26.569 -79.495,-41.617 -124.791,-28.239c-37.147,10.97 -74.689,39.379 -75.648,81.596c-0.381,16.765 5.632,33.965 15.534,47.348c4.238,5.728 20.444,15.256 23.019,16.233c9.963,3.781 16.05,-2.014 17.371,-3.22c0.922,-0.842 12.995,-16.754 -3.237,-27.077c-1.046,-0.666 -2.139,-1.2 -3.259,-1.602Zm-15.305,29.274c0.213,0.152 0.438,0.303 0.675,0.454l-0.675,-0.454Z" style="fill:#7e4021;"/><path d="M675.288,943.975c60.799,-53.937 114.882,-106.817 224.141,-89.252c24.714,3.973 173.638,-92.315 210.517,-51.686c17.42,19.19 -13.38,51.007 -28.956,68.568c-119.606,134.85 -210.09,51.367 -323.964,109.34c-15.896,8.092 -222.165,178.133 -180.804,81.309c14.093,-32.99 49.187,-74.03 99.066,-118.279Z" style="fill:#e4a57c;"/><path d="M901.227,838.138c-115.125,-18.207 -172.773,36.392 -237,93.369l0,0.001c-52.232,46.336 -88.574,89.653 -103.332,124.199c-4.903,11.478 -6.769,20.215 -6.809,26.41c-0.052,8.178 2.598,13.973 6.208,18.106c4.011,4.592 9.644,7.668 17.176,8.303c5.706,0.481 13.339,-0.694 22.267,-3.946c47.941,-17.468 153.61,-103.06 164.85,-108.783c54.573,-27.782 103.654,-20.961 153.309,-24.059c55.384,-3.455 111.63,-16.993 175.563,-89.073c10.281,-11.591 26.295,-29.048 33.559,-45.543c7.308,-16.594 6.836,-32.545 -4.731,-45.287c-8.678,-9.561 -21.267,-14.728 -36.959,-15.407c-17.713,-0.767 -40.226,4.437 -63.789,12.659c-37.486,13.08 -78.097,33.595 -104.2,43.921c-6.482,2.564 -15.007,4.84 -16.112,5.13Zm-311.117,234.44c0.431,-1.261 0.911,-2.542 1.439,-3.776c13.428,-31.434 47.273,-70.197 94.799,-112.359l0,-0c57.22,-50.761 107.61,-101.795 210.436,-85.265c6.018,0.967 17.774,-1.224 32.816,-7.174c25.788,-10.201 65.887,-30.522 102.921,-43.445c16.162,-5.639 31.651,-9.887 44.813,-10.735c8.543,-0.55 15.911,-0.389 20.272,4.415c1.257,1.385 0.918,3.131 0.499,4.889c-0.802,3.365 -2.52,6.81 -4.585,10.279c-6.926,11.634 -17.778,22.998 -24.999,31.139c-67.271,75.845 -124.846,77.706 -183.095,79.042c-43.76,1.003 -87.844,2.008 -135.962,26.504c-9.57,4.872 -87.951,68.19 -140.128,97.124c-7.042,3.905 -13.538,7.142 -19.226,9.362Z" style="fill:#7e4021;"/><path d="M1127.02,903.239c-1.487,0.881 -5.972,3.583 -7.413,4.869c-2.625,2.344 -4.162,4.898 -5.039,7.113c-1.409,3.56 -1.574,7.066 -0.766,10.47c0.836,3.521 2.711,7.547 7.675,10.789c7.702,5.03 18.038,2.86 23.068,-4.842l0.215,-0.349c1.923,-1.241 4.044,-2.693 4.966,-3.606c5.369,-5.317 10.25,-11.141 14.647,-17.281c46.747,-65.282 52.795,-58.673 123.09,-96.766c8.664,-4.695 17.196,-9.589 25.353,-15.124c7.612,-5.165 9.598,-15.538 4.433,-23.15c-5.165,-7.611 -15.538,-9.598 -23.15,-4.433c-7.24,4.914 -14.827,9.233 -22.517,13.4c-77.004,41.728 -83.102,35.154 -134.311,106.666c-3.099,4.328 -6.507,8.455 -10.251,12.244Zm13.504,5.907c1.937,1.435 3.48,3.224 4.595,5.22c-0.926,-1.833 -2.375,-3.616 -4.595,-5.22Z" style="fill:#7e4021;"/><path d="M1059.3,975.684c-3.579,2.769 -16.664,12.883 -18.502,14.219c-7.442,5.407 -9.093,15.839 -3.686,23.28c5.407,7.442 15.839,9.093 23.28,3.686c2.788,-2.026 19.105,-13.267 24.972,-20.019c6.271,-7.216 6.391,-14.583 5.357,-18.632c-2.274,-8.913 -11.357,-14.302 -20.27,-12.027c-5.179,1.321 -9.168,4.941 -11.151,9.493Z" style="fill:#7e4021;"/><path d="M1129.71,1334.84c-1.546,-0.984 -5.899,-3.72 -7.119,-4.179c-2.026,-0.763 -3.811,-1.032 -5.229,-1.11c-7.794,-0.425 -12.585,3.292 -15.527,8.38c-1.459,2.525 -3.925,7.35 -1.071,14.813c1.952,5.107 6.151,8.701 11.04,10.085c1.611,1.017 3.451,2.128 4.38,2.517c6.263,2.619 12.959,3.608 19.703,3.837c17.01,0.576 34.833,-5.589 49.438,-13.888c17.233,-9.791 28.816,-22.125 40.029,-33.273c12.157,-12.087 23.734,-22.466 48.674,-20.278c9.163,0.803 17.256,-5.984 18.059,-15.147c0.804,-9.163 -5.983,-17.255 -15.146,-18.059c-32.429,-2.845 -50.574,7.463 -66.705,21.872c-12.301,10.987 -22.852,25.378 -41.378,35.904c-9.455,5.372 -20.83,9.928 -31.842,9.555c-2.476,-0.084 -4.976,-0.2 -7.306,-1.029Zm2.494,6.875c0.645,2.008 0.886,4.059 0.762,6.061c0.156,-1.706 0.01,-3.725 -0.762,-6.061Z" style="fill:#7e4021;"/><path d="M476.88,1001.46c-15.831,13.166 -28.974,33.036 -35.36,52.505c-20.232,61.689 44.369,3.831 57.667,-16.984c10.63,-16.637 5.043,-58.265 -22.307,-35.521Z" style="fill:#c48464;"/><path d="M466.223,988.646c-18.135,15.082 -33.225,37.822 -40.539,60.125c-5.963,18.181 -5.066,29.503 -2.633,35.437c2.561,6.247 6.798,10.069 11.948,12.246c5.041,2.132 11.821,2.638 19.672,-0.063c18.075,-6.218 49.264,-35.884 58.561,-50.437c6.411,-10.035 9.149,-26.329 6.754,-39.518c-2.149,-11.833 -8.41,-20.965 -16.415,-25.206c-8.588,-4.55 -21.468,-5.791 -37.348,7.416Zm21.099,25.811c-12.548,10.508 -23.069,25.957 -28.822,41.438c10.859,-8.616 22.159,-20.869 26.642,-27.887c1.74,-2.724 2.354,-6.756 2.419,-10.618c0.015,-0.873 -0.084,-1.905 -0.239,-2.933Z" style="fill:#7e4021;"/><path d="M1979.18,1434.11c-27.061,4.643 -95.494,30.225 -86.729,69.811c8.175,36.921 68.164,18.623 82.47,16.814c19.427,-2.457 92.329,1.641 91.511,-39.201c-0.31,-15.459 -10.101,-27.092 -19.323,-34.361c-13.295,-10.478 -32.419,-19.157 -67.929,-13.063Z" style="fill:#9d5e3e;"/><path d="M1976.37,1417.68c-18.069,3.1 -52.67,14.686 -75.386,32.896c-18.966,15.204 -29.683,34.878 -24.796,56.945c5.004,22.6 21.834,32.744 42.662,35.326c21.966,2.724 48.936,-4.412 58.171,-5.58c12.267,-1.552 44.75,-0.966 68.624,-9.257c22.427,-7.788 37.944,-22.584 37.459,-46.812c-0.421,-21.041 -13.117,-37.224 -25.669,-47.117c-15.896,-12.529 -38.608,-23.686 -81.065,-16.401l0,-0Zm5.637,32.853c28.568,-4.902 44.098,1.297 54.794,9.727c5.896,4.647 12.778,11.722 12.976,21.605c0.17,8.494 -7.204,11.926 -15.067,14.657c-21.495,7.464 -50.826,6.278 -61.872,7.675c-6.841,0.865 -24.585,5.809 -41.616,5.986c-5.185,0.054 -10.3,-0.317 -14.739,-1.808c-3.708,-1.246 -6.756,-3.569 -7.75,-8.06c-2.133,-9.631 4.823,-17.095 13.1,-23.73c18.11,-14.518 45.77,-23.58 60.174,-26.052l0,0Z" style="fill:#7e4021;"/><path d="M634.613,2011.88c18.392,5.257 71.822,6.565 86.409,-30.722c13.606,-34.778 -31.167,-39.499 -40.567,-42.837c-12.766,-4.533 -54.009,-33.078 -73.944,2.573c-7.546,13.494 -7.548,26.925 -5.706,36.383c2.656,13.633 9.674,27.705 33.808,34.603Z" style="fill:#c48464;"/><path d="M630.033,2027.91c13.067,3.735 41.076,5.898 65.12,-2.596c17.965,-6.346 33.647,-18.284 41.391,-38.079c5.503,-14.067 4.325,-25.112 0.392,-33.825c-3.886,-8.609 -10.93,-15.262 -19.457,-20.014c-11.637,-6.485 -26.32,-8.955 -31.447,-10.776c-6.725,-2.388 -21.025,-10.914 -36.195,-14.335c-21.089,-4.755 -43.273,-1.629 -57.873,24.48c-9.895,17.695 -9.934,35.302 -7.518,47.704c3.612,18.541 12.764,38.06 45.587,47.441Zm9.16,-32.05c-15.449,-4.415 -20.329,-13.038 -22.029,-21.765c-1.269,-6.513 -1.303,-15.769 3.893,-25.062c5.338,-9.545 13.738,-9.969 21.449,-8.231c13.627,3.073 26.331,11.085 32.372,13.23c3.659,1.299 12.839,2.769 21.674,6.284c3.968,1.579 8.477,3.078 10.053,6.924c0.846,2.066 0.174,4.586 -1.104,7.851c-5.086,13.001 -17.498,18.514 -29.687,21.078c-14.342,3.016 -29.076,1.848 -36.621,-0.309Z" style="fill:#7e4021;"/><path d="M2354.58,995.946c-14.178,-5.567 -77.669,-11.91 -86.175,20.702c-8.796,33.722 66.546,59.228 98.645,39.564c34.087,-20.882 11.817,-50.73 -12.47,-60.266Z" style="fill:#9d5e3e;"/><path d="M2360.67,980.432c-9.967,-3.913 -40.718,-8.534 -65.891,-3.047c-20.914,4.559 -37.534,16.008 -42.502,35.056c-5.278,20.235 6.815,40.183 29.696,52.926c27.851,15.51 70.339,19.418 93.782,5.057c21.036,-12.887 26.633,-28.913 25.211,-43.335c-1.924,-19.514 -20.017,-38.695 -40.296,-46.657Zm-12.183,31.027c5.873,2.306 11.613,6.277 15.534,11.154c2.373,2.951 4.43,6.16 3.675,9.617c-0.79,3.614 -4.139,6.576 -9.354,9.77c-5.364,3.287 -12.549,4.391 -20.157,4.409c-13.61,0.033 -28.591,-3.814 -39.994,-10.164c-4.303,-2.397 -8.076,-5.118 -10.813,-8.238c-1.926,-2.196 -3.546,-4.474 -2.847,-7.153c1.848,-7.083 9.57,-9.205 17.348,-10.9c17.796,-3.88 39.562,-1.261 46.608,1.505Z" style="fill:#7e4021;"/><path d="M1569.83,1765.83c-14.177,-7.463 -77.668,-15.966 -86.175,27.754c-8.796,45.21 66.546,79.404 98.645,53.042c34.088,-27.995 11.818,-68.011 -12.47,-80.796Z" style="fill:#9d5e3e;"/><path d="M1577.59,1751.08c-8.65,-4.554 -32.272,-10.036 -55.103,-7.099c-25.629,3.296 -49.368,16.472 -55.195,46.418c-5.792,29.772 14.234,57.081 42.877,71.442c27.83,13.954 62.169,14.529 82.706,-2.337c45.656,-37.496 17.245,-91.301 -15.285,-108.424Zm-15.526,29.496c16.054,8.451 32.187,34.664 9.655,53.168c-11.577,9.508 -30.922,6.166 -46.61,-1.7c-14.883,-7.463 -28.107,-19.809 -25.097,-35.279c2.684,-13.793 14.923,-18.205 26.727,-19.723c14.589,-1.877 29.797,0.624 35.325,3.534Z" style="fill:#7e4021;"/><path d="M2027.04,1584.17c-43.697,-0.832 -111.354,21.25 -142.298,31.74c-76.547,25.952 -275.434,111.093 -182.11,219.55c57.849,67.231 315.008,73.002 363.611,-2.113c23.647,-36.545 -18.369,-89.385 5.47,-123.69c20.677,-29.755 104.721,-35.507 75.208,-88.758c-12.563,-22.669 -78.095,-35.934 -119.881,-36.729Z" style="fill:#c48464;"/><path d="M2027.36,1567.5c-45.412,-0.864 -115.807,21.717 -147.966,32.62c-47.824,16.213 -141.213,55.13 -187.519,107.651c-17.432,19.772 -28.468,41.528 -30.11,64.506c-1.661,23.263 6.014,48.222 28.237,74.048c15.553,18.075 43.611,32.846 78.57,42.689c48.56,13.673 110.75,18.53 166.841,13.482c38.211,-3.438 73.607,-11.52 100.296,-24.172c19.96,-9.462 35.282,-21.636 44.53,-35.929c14.187,-21.925 10.472,-48.641 4.991,-75.118c-2.072,-10.005 -4.241,-19.931 -4.438,-29.316c-0.141,-6.757 0.719,-13.2 4.61,-18.799c4.888,-7.034 14.709,-11.739 24.82,-16.889c13.891,-7.076 28.686,-14.072 39.41,-22.74c9.685,-7.828 16.412,-17.075 19.002,-27.958c2.543,-10.684 1.364,-23.431 -7.132,-38.762c-5.113,-9.224 -16.073,-18.098 -31.309,-24.914c-27.982,-12.519 -71.602,-19.805 -102.833,-20.399l-0,0Zm-0.634,33.327c23.553,0.449 55.144,5.075 79.193,13.336c7.265,2.495 13.797,5.296 19.022,8.495c3.281,2.009 6.062,3.89 7.406,6.314c3.315,5.981 4.852,10.716 3.86,14.885c-1.698,7.132 -8.92,11.353 -16.571,15.893c-11.936,7.083 -26.128,13.108 -37.804,20.008c-10.071,5.951 -18.456,12.688 -23.803,20.382c-12.049,17.339 -12.076,38.266 -8.132,60.283c2.256,12.597 5.723,25.583 6.855,38.073c0.83,9.158 0.516,18.041 -4.499,25.791c-6.305,9.745 -17.213,17.465 -30.822,23.916c-23.663,11.218 -55.127,18.046 -89.006,21.094c-52.045,4.683 -109.761,0.318 -154.819,-12.368c-27.456,-7.731 -50.122,-18.149 -62.337,-32.345c-15.11,-17.56 -21.385,-34.115 -20.255,-49.932c1.15,-16.101 9.649,-30.982 21.864,-44.837c42.635,-48.357 129.186,-83.198 173.219,-98.126c29.729,-10.079 94.648,-31.66 136.629,-30.862l-0,0Z" style="fill:#7e4021;"/></g></g></svg>