<?xml version="1.0" encoding="UTF-8" standalone="no"?><!DOCTYPE svg PUBLIC "-//W3C//DTD SVG 1.1//EN" "http://www.w3.org/Graphics/SVG/1.1/DTD/svg11.dtd"><svg width="100%" height="100%" viewBox="0 0 3479 2219" version="1.1" xmlns="http://www.w3.org/2000/svg" xmlns:xlink="http://www.w3.org/1999/xlink" xml:space="preserve" xmlns:serif="http://www.serif.com/" style="fill-rule:evenodd;clip-rule:evenodd;stroke-linejoin:round;stroke-miterlimit:2;"><g id="Pitta-02"><path d="M2143.41,136.442c-221.696,-47.979 -618.504,-143.045 -921.585,-114.472c-352.791,33.26 -990.29,94.942 -1157.13,526.077c-150.092,387.844 73.209,777.561 428.409,1111.12c160.823,151.026 438.545,247.505 674.028,344.421c604.878,248.944 1448.35,269.813 1874.96,29.081c541.527,-305.58 580.539,-1056.93 -11.933,-1502.36c-272.14,-204.597 -573.369,-326.049 -886.745,-393.869Z" style="fill:#ffdab8;"/><path d="M2146.93,120.152c-222.91,-48.242 -621.933,-143.505 -926.674,-114.775c-213.123,20.092 -529.385,50.758 -784.626,165.621c-173.087,77.892 -318.138,194.414 -386.489,371.034c-152.415,393.849 71.844,790.561 432.544,1129.29c162.096,152.222 441.745,249.999 679.094,347.683c609.561,250.872 1459.58,270.78 1889.49,28.184c551.556,-311.239 593.336,-1076.52 -10.108,-1530.2c-274.141,-206.103 -577.553,-328.519 -893.234,-396.838l-0.001,0Zm-7.05,32.579c311.071,67.322 610.116,187.809 880.254,390.902c581.502,437.18 545.258,1174.6 13.758,1474.53c-423.305,238.868 -1260.23,217.038 -1860.43,-29.979c-233.619,-96.148 -509.414,-191.327 -668.962,-341.157c-349.703,-328.401 -572.044,-711.12 -424.276,-1092.96c65.126,-168.289 204.16,-278.45 369.081,-352.668c251.772,-113.302 563.849,-143.013 774.075,-162.832c301.421,-28.416 696.015,66.452 916.496,114.168l-0,0Z" style="fill:#7e4021;"/><path d="M138.734,708.831c6.499,76.687 149.33,646.59 1038.74,1022.24c694.008,293.12 1197.21,316.656 1527.5,239.428c223.62,-52.288 368.894,-151.011 441.964,-244.55c5.663,-7.249 4.375,-17.731 -2.874,-23.394c-7.249,-5.663 -17.732,-4.375 -23.394,2.874c-69.87,89.442 -209.459,182.614 -423.286,232.612c-325.887,76.2 -822.167,51.541 -1506.94,-237.677c-868.673,-366.89 -1012.15,-919.448 -1018.5,-994.347c-0.776,-9.165 -8.848,-15.976 -18.014,-15.199c-9.166,0.776 -15.977,8.848 -15.2,18.014Z" style="fill:#7e4021;"/><path d="M3024.94,2021.56c-0.75,2.986 -0.678,6.213 0.378,9.344c3.907,11.574 13.008,11.44 15.241,11.529c5.12,0.203 11.939,-1.182 15.854,-9.764c0.204,-0.448 0.745,-3.388 1.131,-5.618c9.033,-30.863 1.954,-64.903 -18.051,-97.037c-20.402,-32.773 -50.32,-56.083 -83.016,-77.752c-30.013,-19.891 -62.414,-38.428 -90.449,-63.438c-6.864,-6.123 -17.409,-5.522 -23.532,1.342c-6.124,6.864 -5.522,17.409 1.342,23.532c29.244,26.088 62.918,45.6 94.225,66.349c28.624,18.971 55.271,38.891 73.132,67.583c14.544,23.363 20.946,47.865 14.296,70.286c-0.204,0.685 -0.402,2.214 -0.551,3.644Zm32.659,5.172c0.187,-0.916 0.39,-2.245 0.39,-2.245l-0.39,2.245Zm-1.253,-7.907l0.218,0.512l-0.057,-0.152l-0.161,-0.36Zm-0.422,-0.889l0.306,0.629l-0.139,-0.31l-0.167,-0.319Zm-0.377,-0.69l0.334,0.607l-0.214,-0.409l-0.12,-0.198Zm-0.322,-0.531l0.107,0.174l-0.086,-0.143l-0.021,-0.031Z" style="fill:#7e4021;"/><path d="M3177.24,1855.84c4.778,-3.764 12.543,-9.956 15.355,-12.576c11.57,-10.781 22.094,-22.121 32.114,-33.64c23.277,-26.76 45.999,-53.866 62.666,-83.281c4.534,-8.003 1.718,-18.183 -6.285,-22.717c-8.003,-4.535 -18.182,-1.719 -22.717,6.285c-15.6,27.533 -37.025,52.788 -58.814,77.836c-9.268,10.654 -18.986,21.158 -29.688,31.129c-3.683,3.432 -13.277,10.493 -17.566,14.146c-2.967,2.527 -4.717,4.758 -5.374,5.79c-3.327,5.229 -2.908,9.77 -2.354,12.497c0.895,4.412 3.197,7.917 6.951,10.488c1.365,0.935 7.777,5.735 18.469,0.674c3.145,-1.488 5.609,-3.836 7.243,-6.631Z" style="fill:#7e4021;"/><path d="M3327.01,1671.03c3.22,-8.774 6.433,-17.549 9.585,-26.341c3.104,-8.659 -1.406,-18.209 -10.065,-21.313c-8.66,-3.104 -18.21,1.406 -21.313,10.065c-3.124,8.714 -6.309,17.411 -9.5,26.106c-3.169,8.636 1.27,18.219 9.905,21.388c8.636,3.169 18.22,-1.27 21.388,-9.905Z" style="fill:#7e4021;"/><path d="M2363.04,185.984c-56.628,10.087 -142.06,12.718 -206.899,29.633c-49.363,12.878 -86.879,35.054 -98.6,69.951c-2.928,8.72 1.773,18.177 10.493,21.106c8.72,2.929 18.177,-1.773 21.106,-10.493c3.923,-11.68 12.729,-20.61 24.351,-27.984c13.814,-8.765 31.426,-15.203 51.064,-20.326c64.026,-16.703 148.413,-19.11 204.331,-29.07c9.056,-1.613 15.099,-10.275 13.486,-19.332c-1.614,-9.056 -10.276,-15.098 -19.332,-13.485Z" style="fill:#7e4021;"/></g></svg>