<?xml version="1.0" encoding="UTF-8" standalone="no"?><!DOCTYPE svg PUBLIC "-//W3C//DTD SVG 1.1//EN" "http://www.w3.org/Graphics/SVG/1.1/DTD/svg11.dtd"><svg width="100%" height="100%" viewBox="0 0 3281 3188" version="1.1" xmlns="http://www.w3.org/2000/svg" xmlns:xlink="http://www.w3.org/1999/xlink" xml:space="preserve" xmlns:serif="http://www.serif.com/" style="fill-rule:evenodd;clip-rule:evenodd;stroke-linejoin:round;stroke-miterlimit:2;"><g id="Pitta-01"><path d="M1807,20.22c-213.679,-3.769 -597.874,-24.029 -872.191,109.311c-319.308,155.21 -831.439,360.74 -903.909,1045.1c-65.193,615.638 100.847,1182.09 577.045,1619.98c174.142,160.134 377.963,284.724 615.353,339.884c585.089,135.954 1423.42,-113.593 1771.62,-596.18c442.009,-612.586 335.957,-1729.38 -295.062,-2205.98c-289.846,-218.915 -590.818,-306.78 -892.861,-312.108Z" style="fill:#ffdab8;"/><path d="M1807.3,3.556c-215.557,-3.802 -603.041,-23.527 -879.77,110.985c-323.026,157.017 -839.884,366.008 -913.197,1058.33c-65.762,621.003 101.99,1192.29 582.337,1634c176.246,162.068 382.606,288.024 622.862,343.851c590.866,137.295 1437.27,-115.312 1788.91,-602.663c223.273,-309.436 308.54,-746.127 257.886,-1165.74c-50.689,-419.906 -237.446,-822.383 -556.419,-1063.3c-293.006,-221.302 -597.274,-310.086 -902.611,-315.472l-0.001,0Zm-0.587,33.328c298.749,5.27 596.425,92.216 883.11,308.743c312.047,235.684 493.826,629.905 543.415,1040.69c49.625,411.086 -33.087,839.088 -251.824,1142.24c-344.771,477.823 -1175.02,724.31 -1754.34,589.698c-234.522,-54.494 -435.805,-177.718 -607.844,-335.919c-472.048,-434.077 -636.377,-995.683 -571.752,-1605.96c71.626,-676.389 579.03,-878.458 894.621,-1031.86c271.905,-132.168 652.811,-111.372 864.611,-107.637l-0,0Z" style="fill:#7e4021;"/><path d="M2976.05,2527.24c-0.125,2.194 0.187,4.448 0.989,6.642c5.286,14.459 18.107,11.166 20.004,10.671c3.423,-0.894 11.055,-3.615 12.354,-14.141c0.067,-0.549 -0.171,-4.998 -0.253,-6.446c2.278,-44.703 -10.283,-88.858 -33.082,-127.17c-24.967,-41.954 -56.917,-66.883 -91.109,-88.85c-31.347,-20.139 -64.682,-37.594 -95.174,-65.828c-6.75,-6.249 -17.303,-5.844 -23.553,0.906c-6.25,6.75 -5.844,17.303 0.906,23.553c32.033,29.66 66.873,48.257 99.803,69.413c30.086,19.328 58.514,40.938 80.482,77.853c19.549,32.85 30.493,70.681 28.413,109.012c-0.046,0.846 0.089,2.822 0.22,4.385Zm31.721,-6.173l0.242,0.531l-0.032,-0.079l-0.21,-0.452Zm-0.344,-0.69l0.233,0.451l-0.051,-0.111l-0.182,-0.34Zm-0.197,-0.367l0.011,0.019l-0.003,-0.006l-0.008,-0.013Z" style="fill:#7e4021;"/><path d="M3108.75,2182.83c3.578,-6.737 10.259,-19.439 12.499,-24.454c8.496,-19.02 15.937,-38.545 22.889,-58.173c16.158,-45.618 31.788,-91.523 41.449,-139.023c1.833,-9.014 -3.997,-17.821 -13.011,-19.654c-9.014,-1.834 -17.82,3.996 -19.654,13.01c-9.351,45.977 -24.565,90.383 -40.205,134.538c-6.656,18.795 -13.768,37.495 -21.903,55.707c-3.866,8.655 -15.68,30.072 -16.516,33.561c-2.576,10.752 3.914,16.131 6.934,18.158c1.696,1.137 13.209,7.913 23.728,-4.674c2.216,-2.653 3.467,-5.794 3.79,-8.996Z" style="fill:#7e4021;"/><path d="M3189.97,1892.9c1.309,-13.838 2.613,-27.676 3.856,-41.521c0.823,-9.162 -5.948,-17.268 -15.109,-18.091c-9.162,-0.822 -17.268,5.948 -18.091,15.11c-1.238,13.792 -2.537,27.577 -3.841,41.363c-0.866,9.158 5.865,17.296 15.023,18.162c9.158,0.867 17.296,-5.865 18.162,-15.023Z" style="fill:#7e4021;"/><path d="M2015.95,36.082c-50.432,31.946 -128.852,61.602 -185.581,106.083c-41.318,32.398 -71.412,72.458 -75.455,125.018c-0.706,9.171 6.168,17.19 15.339,17.896c9.172,0.705 17.191,-6.168 17.896,-15.339c4.182,-54.364 44.028,-91.207 91.189,-121.322c51.744,-33.043 112.764,-57.771 154.449,-84.177c7.771,-4.922 10.084,-15.227 5.162,-22.998c-4.923,-7.771 -15.228,-10.083 -22.999,-5.161Z" style="fill:#7e4021;"/><path d="M35.431,1109.06c42.403,32.541 85.548,43.464 130.679,48.863c41.72,4.991 85.197,5.017 131.382,15.617c8.966,2.058 17.915,-3.551 19.973,-12.516c2.057,-8.966 -3.551,-17.915 -12.516,-19.973c-47.423,-10.883 -92.042,-11.101 -134.88,-16.226c-39.428,-4.716 -77.3,-13.78 -114.345,-42.209c-7.297,-5.6 -17.768,-4.222 -23.368,3.076c-5.6,7.297 -4.222,17.768 3.075,23.368Z" style="fill:#7e4021;"/><path d="M105.799,1286.91c-5.621,15.832 -8.147,43.234 -8.348,74.465c-0.439,68.255 9.069,155.827 10.581,169.621c1.002,9.144 9.239,15.754 18.383,14.752c9.144,-1.002 15.754,-9.24 14.752,-18.383c-1.478,-13.482 -10.812,-99.067 -10.383,-165.776c0.171,-26.612 1.637,-50.035 6.427,-63.524c3.078,-8.669 -1.46,-18.205 -10.129,-21.283c-8.668,-3.078 -18.205,1.46 -21.283,10.128Z" style="fill:#7e4021;"/><path d="M117.153,1606.62c2.131,26.036 6.407,78.105 6.906,82.042c1.156,9.126 9.503,15.596 18.629,14.44c9.126,-1.156 15.596,-9.503 14.44,-18.629c-0.49,-3.866 -4.66,-55.003 -6.753,-80.572c-0.75,-9.167 -8.802,-16.001 -17.97,-15.251c-9.168,0.75 -16.002,8.803 -15.252,17.97Z" style="fill:#7e4021;"/></g></svg>