<?xml version="1.0" encoding="UTF-8" standalone="no"?><!DOCTYPE svg PUBLIC "-//W3C//DTD SVG 1.1//EN" "http://www.w3.org/Graphics/SVG/1.1/DTD/svg11.dtd"><svg width="100%" height="100%" viewBox="0 0 3351 3742" version="1.1" xmlns="http://www.w3.org/2000/svg" xmlns:xlink="http://www.w3.org/1999/xlink" xml:space="preserve" xmlns:serif="http://www.serif.com/" style="fill-rule:evenodd;clip-rule:evenodd;stroke-linejoin:round;stroke-miterlimit:2;"><g id="Pizza-Slice"><path d="M193.77,1690.02c-204.759,-151.502 -175.108,-357.087 -174.053,-368.075c15.766,-164.185 113.629,-311.848 262.044,-394.447c162.472,-90.422 104.773,-200.731 239.528,-338.732c127.833,-130.912 230.9,-86.872 329.929,-128.295c114.553,-47.916 90.48,-119.556 193.251,-209.688c142.786,-125.227 335.91,-158.249 527.543,-124.392c98.728,17.443 229.528,-153.955 419.205,-97.342c166.279,49.63 174.406,261.034 154.485,350.312c182.005,239.12 420.532,407.515 572.603,675.244c391.999,690.133 513.227,1514.47 579.635,2292.94c8.553,100.265 57.169,268.974 25.852,366.616c-19.132,59.65 -256.211,-158.159 -269.97,-171.624c-172.315,-168.64 -328.567,-354.604 -492.513,-531.276c-538.421,-580.217 -1149.18,-1083.91 -1916.32,-1319.29c0,-0 -267.085,134.294 -451.221,-1.949Z" style="fill:#ffdab8;"/><path d="M183.857,1703.42c77.154,57.086 168.114,69.218 249.606,62.759c102.408,-8.116 189.432,-45.529 212.833,-56.368c761.383,235.314 1367.82,736.288 1902.8,1312.79c164.127,176.867 320.567,363.023 493.072,531.85c11.27,11.03 169.238,155.475 241.858,181.736c29.73,10.751 49.225,3.069 55.64,-16.933c13.125,-40.921 13.232,-93.736 7.604,-149.128c-8.049,-79.211 -27.594,-163.907 -32.72,-223.994c-66.608,-780.813 -188.569,-1607.54 -581.749,-2299.75c-151.173,-266.149 -387.372,-434.548 -569.232,-671.093c9.063,-47.212 10.809,-121.214 -9.271,-190.579c-21.817,-75.364 -69.073,-144.988 -158.311,-171.623c-118.716,-35.434 -215.543,13.6 -296.079,55.493c-25.053,13.032 -48.416,25.252 -70.345,33.316c-19.469,7.16 -37.582,11.106 -54.648,8.091c-196.727,-34.758 -394.849,-0.282 -541.431,128.273c-53.122,46.589 -73.64,88.263 -95.501,124.617c-19.518,32.456 -40.33,60.115 -93.193,82.227c-38.254,16.001 -77.186,18.534 -117.969,24.22c-66.29,9.242 -137.187,25.607 -217.452,107.806c-69.376,71.047 -89.492,134.802 -112.894,192.597c-21.467,53.014 -46.088,100.514 -122.815,143.216c-153.273,85.302 -254.247,237.858 -270.53,407.417c-1.097,11.431 -32.279,225.458 180.731,383.066l-0,-0Zm3124.51,2004.2c-1.984,-0.148 -5.898,-0.532 -8.793,-1.388c-8.989,-2.657 -19.725,-7.883 -31.615,-14.731c-75.901,-43.716 -193.003,-151.598 -202.481,-160.874c-172.124,-168.453 -328.189,-354.225 -491.953,-530.701c-540.422,-582.372 -1153.66,-1087.63 -1923.65,-1323.89c-4.105,-1.259 -8.539,-0.886 -12.376,1.044c0,-0 -93.371,46.89 -206.674,55.869c-74.1,5.873 -156.992,-4.419 -227.147,-56.326l0,-0c-196.508,-145.398 -168.388,-342.538 -167.376,-353.084c15.25,-158.812 110.001,-301.581 253.559,-381.477c85.745,-47.72 113.511,-100.586 137.501,-159.832c22.055,-54.465 40.467,-114.865 105.847,-181.819c73.134,-74.896 137.805,-89.659 198.206,-98.08c43.677,-6.089 85.26,-9.346 126.229,-26.483c61.691,-25.804 86.118,-57.923 108.896,-95.8c20.432,-33.978 39.264,-73.19 88.913,-116.734c138.991,-121.897 327.116,-153.467 513.654,-120.509c42.433,7.497 90.871,-15.893 146.175,-44.661c73.874,-38.427 162.266,-85.626 271.163,-53.123c77.043,22.995 116.989,83.886 135.825,148.951c19.443,67.162 16.688,139.062 7.16,181.76c-1.07,4.794 0.03,9.816 3.005,13.724c181.55,238.522 419.683,406.323 571.373,673.382c390.818,688.053 511.313,1510 577.52,2286.12c5.138,60.23 24.702,145.132 32.77,224.53c5.05,49.697 5.731,97.146 -5.735,134.126Z" style="fill:#7e4021;"/><path d="M84.16,1320.71c-1.707,13.315 -2.465,26.841 -2.47,40.262c-0.018,39.269 12.215,75.497 28.434,110.791c3.841,8.359 13.746,12.026 22.104,8.185c8.358,-3.841 12.026,-13.745 8.185,-22.103c-14.198,-30.897 -25.405,-62.482 -25.39,-96.858c0.005,-12.013 0.672,-24.12 2.2,-36.039c1.169,-9.124 -5.288,-17.481 -14.412,-18.65c-9.124,-1.17 -17.481,5.288 -18.651,14.412Z" style="fill:#7e4021;"/><path d="M141.613,1526.83c3.505,16.492 25.096,47.895 35.471,60.172c5.938,7.026 16.462,7.91 23.488,1.973c7.026,-5.937 7.91,-16.462 1.972,-23.488c-7.971,-9.433 -25.633,-32.915 -28.326,-45.587c-1.912,-8.997 -10.77,-14.75 -19.767,-12.837c-8.998,1.912 -14.75,10.77 -12.838,19.767Z" style="fill:#7e4021;"/><path d="M1736.52,368.993c46.175,12.369 137.276,-9.971 159.977,-21.615c8.185,-4.198 11.421,-14.251 7.223,-22.436c-4.198,-8.185 -14.251,-11.421 -22.436,-7.223c-19.331,9.915 -96.818,29.609 -136.138,19.076c-8.885,-2.38 -18.032,2.901 -20.412,11.786c-2.38,8.886 2.901,18.032 11.786,20.412Z" style="fill:#7e4021;"/><path d="M1958.72,319.966c7.841,-4.308 15.674,-8.421 23.304,-13.135c7.825,-4.835 10.253,-15.114 5.418,-22.939c-4.835,-7.826 -15.113,-10.254 -22.939,-5.419c-7.144,4.414 -14.49,8.244 -21.832,12.277c-8.062,4.429 -11.012,14.57 -6.584,22.632c4.429,8.063 14.57,11.013 22.633,6.584Z" style="fill:#7e4021;"/><path d="M193.77,1690.02c-204.759,-151.502 -172.439,-357.155 -174.053,-368.075c-14.831,292.196 158.261,649.829 638.193,475.578c72.259,-26.235 429.837,139.851 690.151,288.398c215.299,122.858 692.747,506.908 962.625,760.547c98.646,92.709 302.199,349.258 536.152,593.411c246.876,257.641 440.552,308.186 476.954,274.281c-19.132,59.65 -256.211,-158.159 -269.97,-171.624c-172.315,-168.64 -328.567,-354.604 -492.513,-531.276c-538.421,-580.217 -1149.18,-1083.91 -1916.32,-1319.29c0,-0 -267.085,134.294 -451.221,-1.949Z" style="fill:#d3af98;"/><path d="M3297.57,3739.96c22.116,4.179 36.706,-3.93 42.088,-20.712c2.317,-7.222 -0.535,-15.096 -6.937,-19.161c-6.403,-4.065 -14.743,-3.294 -20.292,1.875c-2.707,2.521 -7.02,3.712 -12.537,4.353l-0.321,-0.088c-8.989,-2.657 -19.725,-7.883 -31.615,-14.731c-75.901,-43.716 -193.003,-151.598 -202.481,-160.874c-172.124,-168.453 -328.189,-354.225 -491.953,-530.701c-540.422,-582.372 -1153.66,-1087.63 -1923.65,-1323.89c-4.105,-1.259 -8.539,-0.886 -12.376,1.044c0,-0 -93.371,46.89 -206.674,55.869c-74.1,5.873 -156.992,-4.419 -227.147,-56.326l0,-0c-198.363,-146.77 -165.915,-346.535 -167.479,-357.115c-1.253,-8.476 -8.729,-14.621 -17.287,-14.21c-8.559,0.412 -15.411,7.245 -15.845,15.803c-9.195,181.154 52.714,386.13 209.87,482.65c104.749,64.335 252.332,81.445 450.656,9.439c6.883,-2.499 17.043,-2.237 29.923,-0.627c23.507,2.938 54.483,11.192 90.817,23.408c145.548,48.932 374.195,160.987 555.463,264.426c214.61,122.466 690.455,505.389 959.471,758.217c98.539,92.608 301.834,348.909 535.532,592.797c176.163,183.845 326.225,263.558 412.852,283.398c19.718,4.516 36.484,6 49.918,5.154Zm-103.428,-58.194c-84.515,-36.162 -201.821,-114.148 -335.274,-253.42c-234.208,-244.419 -438.018,-501.214 -536.772,-594.025c-270.74,-254.449 -749.792,-639.627 -965.778,-762.878c-183.172,-104.526 -414.284,-217.625 -561.361,-267.071c-38.912,-13.082 -72.132,-21.742 -97.306,-24.888c-19.578,-2.447 -34.971,-1.427 -45.433,2.371c-185.622,67.395 -323.795,53.703 -421.835,-6.511c-63.365,-38.917 -109.748,-96.866 -141.329,-163.78c24.29,31.439 55.283,62.614 94.799,91.852l-0,-0c77.154,57.086 168.114,69.218 249.606,62.759c102.408,-8.116 189.432,-45.529 212.833,-56.368c761.383,235.314 1367.82,736.288 1902.8,1312.79c164.127,176.867 320.567,363.023 493.072,531.85c7.607,7.445 82.054,75.678 151.982,127.321Z" style="fill:#7e4021;"/><path d="M642.313,1785.19c-5.676,5.518 -6.76,14.485 -2.17,21.269c5.155,7.619 15.525,9.62 23.144,4.465c5.58,-3.775 10.332,-11.167 12.291,-21.172c2.538,-12.961 0.961,-31.606 0.195,-38.527c-1.013,-9.142 -9.258,-15.743 -18.4,-14.73c-9.143,1.012 -15.744,9.257 -14.731,18.4c0.426,3.848 1.281,12.352 1.001,20.574c-0.108,3.177 -1.003,8.039 -1.33,9.721Z" style="fill:#7e4021;"/><path d="M700.549,1341.4c-27.653,-149.049 202.051,-120.585 334.791,-301.081c100.352,-136.456 44.847,-285.021 177.931,-316.237c329.618,-77.313 263.632,-305.052 495.669,-292.642c322.293,17.239 339.989,-179.215 436.762,-52.074c182.005,239.12 420.532,407.515 572.603,675.244c391.999,690.133 513.227,1514.47 579.635,2292.94c8.553,100.265 57.169,268.974 25.852,366.616c-19.132,59.65 -256.211,-158.159 -269.97,-171.624c-172.315,-168.64 -328.567,-354.604 -492.513,-531.276c-538.421,-580.217 -1149.18,-1083.91 -1916.32,-1319.29c0,-0 107.986,-68 55.558,-350.574Z" style="fill:#eb7e6c;"/><path d="M684.162,1344.44c49.758,268.186 -48.052,333.431 -48.052,333.431c-5.514,3.472 -8.499,9.839 -7.64,16.299c0.859,6.459 5.403,11.826 11.632,13.737c764.29,234.506 1372.57,736.633 1908.99,1314.69c164.127,176.867 320.567,363.023 493.072,531.85c11.27,11.03 169.238,155.475 241.858,181.736c29.73,10.751 49.225,3.069 55.64,-16.933c13.125,-40.921 13.232,-93.736 7.604,-149.128c-8.049,-79.211 -27.594,-163.907 -32.72,-223.994c-66.608,-780.813 -188.569,-1607.54 -581.749,-2299.75c-152.451,-268.399 -391.372,-437.389 -573.833,-677.107c-22.608,-29.702 -42.237,-43.385 -61.04,-47.87c-19.54,-4.659 -39.15,0.211 -62.188,11.322c-55.57,26.801 -137.181,92.168 -325.906,82.074c-123.271,-6.594 -167.916,49.591 -224.983,118.705c-52.012,62.99 -115.786,136.919 -275.382,174.353c-73.842,17.32 -96.569,66.16 -113.551,130.634c-14.854,56.395 -25.297,125.729 -74,191.954c-77.944,105.986 -190.543,137.627 -261.911,178.069c-55.494,31.447 -88.467,67.873 -75.841,135.927l0,0Zm2624.21,2363.18c-1.984,-0.148 -5.898,-0.532 -8.793,-1.388c-8.989,-2.657 -19.725,-7.883 -31.615,-14.731c-75.901,-43.716 -193.003,-151.598 -202.481,-160.874c-172.124,-168.453 -328.189,-354.225 -491.953,-530.701c-534.148,-575.612 -1139.43,-1075.89 -1896.89,-1315.55c31.261,-38.453 79.406,-135.26 40.304,-346.017l-0.001,-0c-9.498,-51.194 17.756,-77.19 59.501,-100.846c74.483,-42.208 190.985,-76.71 272.33,-187.321c51.649,-70.231 63.629,-143.407 79.381,-203.212c13.626,-51.732 29.681,-92.775 88.929,-106.673c170.022,-39.879 238.064,-118.476 293.473,-185.582c50.354,-60.982 88.731,-112.46 197.5,-106.643c165.879,8.873 253.362,-37.292 311.838,-69.27c16.263,-8.894 30.071,-16.674 42.727,-21.478c9.809,-3.723 18.647,-5.638 27.577,-3.508c13.397,3.194 26.14,14.471 42.248,35.633c181.55,238.522 419.683,406.323 571.373,673.382c390.818,688.053 511.313,1510 577.52,2286.12c5.138,60.23 24.702,145.132 32.77,224.53c5.05,49.697 5.731,97.146 -5.735,134.126Z" style="fill:#7e4021;"/><path d="M2186.89,443.32c-151.616,-38.876 -305.594,149.979 -442.186,220.872c-109.1,56.625 -289.991,144.648 -332.179,271.941c-18.098,54.607 62.487,69.501 47.252,108.27c-45.382,115.483 -177.244,187.306 -224.007,308.76c-61.782,160.465 69.257,127.224 104.714,237.471c28.199,87.681 -83.785,161.703 -7.083,246.091c77.852,85.652 217.443,104.432 318.698,152.357c98.389,46.569 177.827,156.435 292.223,165.991c313.046,26.151 400.167,-445.129 510.165,-645.113c74.67,-135.757 281.573,-301.916 242.16,-457.386c-48.474,-191.205 -377.218,-575.269 -509.757,-609.254Z" style="fill:#ffce7b;"/><path d="M2191.03,427.176c-64.763,-16.606 -130.148,4.707 -194.368,42.295c-89.967,52.659 -177.898,137.505 -259.635,179.928c-66.293,34.407 -158.691,80.374 -231.285,139.397c-50.414,40.989 -91.235,88.379 -109.037,142.094c-11.541,34.821 6.429,57.685 26.809,77.32c5.901,5.685 11.9,11.032 16.47,16.602c3.398,4.141 6.372,8.174 4.281,13.495c-21.94,55.832 -65.135,100.854 -108.147,146.853c-45.949,49.141 -91.75,99.287 -115.901,162.015c-20.678,53.705 -20.738,88.095 -11.382,113.059c6.602,17.617 17.994,31.034 31.915,43.093c27.51,23.832 67.318,40.95 83.867,92.41c6.021,18.719 4.292,36.709 -0.264,54.292c-5.193,20.043 -13.976,39.598 -21.22,59.075c-16.982,45.656 -25.823,90.689 17.935,138.831c40.664,44.739 97.231,72.382 157.075,94.73c56.836,21.224 116.596,37.708 166.825,61.482c48.253,22.838 91.738,61.372 137.306,95.194c48.993,36.363 100.342,67.302 160.66,72.341c131.649,10.998 225.848,-60.685 298.229,-165.314c103.594,-149.749 161.721,-368.007 227.927,-488.376c44.691,-81.252 136.936,-173.373 195.035,-267.606c41.409,-67.165 65.49,-135.587 48.677,-201.907c-29.547,-116.552 -161.03,-304.015 -291.03,-442.494c-88.093,-93.839 -175.995,-164.771 -230.742,-178.809l-0,0Zm-8.279,32.289c51.285,13.15 132.196,81.429 214.719,169.334c125.921,134.135 254.401,314.976 283.021,427.871c14.718,58.057 -8.49,117.427 -44.74,176.222c-58.387,94.702 -150.954,187.38 -195.868,269.036c-65.79,119.612 -123.19,336.668 -226.133,485.476c-65.311,94.41 -149.251,160.984 -268.041,151.06c-54.078,-4.517 -99.645,-33.288 -143.568,-65.89c-47.347,-35.142 -92.776,-74.826 -142.912,-98.556c-51.026,-24.151 -111.688,-41.02 -169.425,-62.581c-54.728,-20.436 -106.882,-45.009 -144.069,-85.922c-32.949,-36.25 -24.147,-70.413 -11.36,-104.79c16.157,-43.44 37.282,-87.6 21.975,-135.194c-15.48,-48.133 -47.108,-71.654 -75.826,-93.226c-17.072,-12.822 -33.221,-24.411 -40.476,-43.769c-7.418,-19.793 -5.119,-46.803 11.276,-89.384c22.611,-58.727 66.123,-105.219 109.141,-151.225c45.955,-49.147 91.383,-97.777 114.824,-157.428c8.735,-22.228 -1.708,-39.992 -19.08,-57.103c-6.844,-6.74 -14.718,-13.514 -20.986,-21.251c-6.628,-8.183 -11.201,-17.724 -6.878,-30.768c15.948,-48.12 53.263,-89.998 98.426,-126.718c70.771,-57.541 160.983,-102.131 225.611,-135.674c82.173,-42.649 170.671,-127.807 261.118,-180.746c56.058,-32.811 112.719,-53.27 169.251,-38.774l-0,-0Z" style="fill:#7e4021;"/><path d="M2752.34,1570.74c107.756,-18.079 177.6,28.618 237.59,145.477c55.024,107.185 56.105,250.896 75.376,365.944c42.691,254.864 167.721,383.964 149.916,662.725c-5.407,84.658 -9.772,416.211 -112.075,444.588c-177.699,49.289 -376.583,-430.599 -468.709,-533.753c-92.485,-103.555 -209.532,38.137 -322.976,-63.289c-78.772,-70.426 -107.975,-205.203 -59.957,-300.409c28.875,-57.25 74.845,-101.441 97.971,-162.369c66.238,-174.513 183.976,-522.19 402.864,-558.914Z" style="fill:#ffce7b;"/><path d="M2749.58,1554.31c-91.698,15.385 -167.052,82.061 -228.178,169.209c-88.374,125.995 -147.392,294.532 -187.51,400.227c-22.916,60.375 -68.658,104.049 -97.27,160.779c-51.197,101.51 -20.258,245.249 63.729,320.339c61.508,54.992 123.736,45.457 183.38,34.83c49.361,-8.796 96.775,-19.331 138.274,27.136c64.556,72.283 181.555,329.308 306.912,460.124c58.755,61.314 120.32,94.775 178.682,78.587c15.272,-4.236 28.972,-13.635 40.948,-27.551c15.64,-18.174 28.519,-44.54 38.745,-75.885c37.145,-113.867 40.732,-296.192 44.561,-356.15c9.073,-142.047 -18.134,-245.981 -53.16,-346.853c-34.083,-98.156 -75.783,-193.314 -96.951,-319.687c-19.534,-116.613 -21.215,-262.159 -76.987,-370.802c-38.21,-74.432 -80.851,-121.436 -133.026,-143.477c-35.456,-14.977 -75.508,-18.651 -122.149,-10.826l-0,0Zm5.515,32.874c39.565,-6.638 73.586,-4.047 103.663,8.658c46.125,19.485 82.564,62.193 116.343,127.994c54.275,105.727 54.756,247.603 73.765,361.086c21.523,128.49 63.684,225.314 98.338,325.114c33.71,97.084 60.116,197.081 51.384,333.794c-3.741,58.564 -6.704,236.717 -42.986,347.937c-7.293,22.354 -15.886,41.884 -26.335,56.754c-8.776,12.49 -18.63,21.585 -30.577,24.899c-31.028,8.607 -62.542,-2.269 -94.155,-24.295c-34.991,-24.378 -69.68,-62.334 -103.341,-106.611c-104.796,-137.845 -198.898,-335.824 -254.328,-397.888c-50.993,-57.097 -108.329,-48.556 -168.982,-37.749c-50.366,8.974 -103.376,19.575 -155.316,-26.862c-73.556,-65.764 -101.022,-191.577 -56.184,-280.48c29.137,-57.77 75.336,-102.478 98.672,-163.96c39.368,-103.719 96.915,-269.276 183.635,-392.914c55.605,-79.276 122.991,-141.482 206.404,-155.477l0,0Z" style="fill:#7e4021;"/><path d="M2846.28,1731.13c6.311,-99.969 -67.598,-210.206 -146.674,-252.52c-125.968,-67.405 -276.472,-23.802 -329.335,110.361c-32.416,82.269 -9.311,182.212 44.679,250.242c49.776,62.721 125.837,109.758 207.412,111.024c102.368,1.588 214.62,-71.811 223.918,-219.107Z" style="fill:#facad0;"/><path d="M2862.92,1732.18c6.7,-106.138 -71.489,-223.34 -155.445,-268.265c-134.993,-72.234 -296.054,-24.83 -352.704,118.946c-34.539,87.657 -10.395,194.228 47.13,266.713c52.792,66.521 133.689,115.985 220.209,117.327c109.881,1.706 230.829,-76.613 240.81,-234.721l-0,0Zm-33.267,-2.1c-8.616,136.486 -112.171,204.964 -207.026,203.492c-76.632,-1.189 -147.857,-45.8 -194.616,-104.72c-50.455,-63.575 -72.521,-156.889 -42.228,-233.771c49.076,-124.551 189.023,-164.351 305.965,-101.776c74.197,39.703 143.826,142.974 137.905,236.775l-0,0Z" style="fill:#7e4021;"/><path d="M2583.31,2600.2c-6.311,99.969 67.598,210.206 146.674,252.52c125.968,67.404 276.472,23.802 329.335,-110.361c32.416,-82.27 9.311,-182.212 -44.679,-250.242c-49.776,-62.721 -125.836,-109.758 -207.412,-111.024c-102.368,-1.589 -214.62,71.81 -223.918,219.107Z" style="fill:#facad0;"/><path d="M2566.68,2599.15c-6.7,106.138 71.489,223.34 155.445,268.265c134.993,72.234 296.054,24.83 352.704,-118.947c34.539,-87.656 10.395,-194.227 -47.13,-266.712c-52.792,-66.521 -133.689,-115.985 -220.209,-117.328c-109.881,-1.705 -230.829,76.614 -240.81,234.722Zm33.267,2.1c8.616,-136.486 112.171,-204.964 207.026,-203.492c76.633,1.189 147.857,45.8 194.616,104.72c50.455,63.575 72.521,156.888 42.228,233.771c-49.076,124.551 -189.023,164.351 -305.965,101.776c-74.197,-39.703 -143.826,-142.975 -137.905,-236.775Z" style="fill:#7e4021;"/><path d="M1398.8,1793.53c44.519,89.731 163.645,148.245 253.284,145.351c142.793,-4.609 251.332,-117.622 230.031,-260.243c-13.062,-87.455 -83.042,-162.455 -163.813,-194.376c-74.468,-29.43 -163.857,-32.135 -235.137,7.557c-89.448,49.808 -149.961,169.499 -84.365,301.711Z" style="fill:#facad0;"/><path d="M1383.87,1800.93c47.266,95.268 173.581,157.674 268.751,154.602c153.025,-4.94 268.806,-126.523 245.978,-279.363c-13.917,-93.182 -88.111,-173.403 -174.172,-207.414c-78.98,-31.213 -173.771,-33.602 -249.37,8.495c-96.013,53.464 -161.598,181.764 -91.187,323.68Zm29.86,-14.815c-60.781,-122.508 -5.339,-233.589 77.543,-279.742c66.961,-37.286 150.948,-34.264 220.903,-6.618c75.483,29.831 141.249,99.609 153.455,181.338c19.775,132.402 -81.523,236.844 -214.085,241.123c-84.108,2.715 -196.044,-51.906 -237.816,-136.101Z" style="fill:#7e4021;"/><path d="M2127.18,945.316c6.311,-99.97 -67.598,-210.207 -146.674,-252.52c-125.968,-67.405 -276.472,-23.803 -329.335,110.361c-32.416,82.269 -9.311,182.212 44.679,250.241c49.776,62.721 125.836,109.758 207.412,111.024c102.368,1.589 214.62,-71.81 223.918,-219.106Z" style="fill:#facad0;"/><path d="M2143.82,946.366c6.7,-106.139 -71.489,-223.341 -155.445,-268.265c-134.993,-72.235 -296.054,-24.831 -352.704,118.946c-34.539,87.656 -10.395,194.228 47.13,266.712c52.792,66.522 133.689,115.985 220.209,117.328c109.881,1.705 230.829,-76.614 240.81,-234.721l-0,-0Zm-33.267,-2.1c-8.616,136.485 -112.171,204.964 -207.026,203.492c-76.633,-1.19 -147.857,-45.8 -194.616,-104.72c-50.455,-63.576 -72.521,-156.889 -42.228,-233.772c49.076,-124.551 189.023,-164.351 305.965,-101.775c74.197,39.702 143.826,142.974 137.905,236.775l-0,-0Z" style="fill:#7e4021;"/><path d="M2289.03,1367.18c12.742,-8.472 39.379,2.798 52.987,8.214c44.445,17.69 51.765,63.69 51.418,106.407c-0.076,9.35 2.594,29.992 -2.885,38.263c-10.297,15.546 -55.525,-15.35 -64.138,-21.426c-40.247,-28.393 -48.987,-86.803 -37.382,-131.458Z" style="fill:#badcbe;"/><path d="M2279.8,1353.3c-3.414,2.27 -5.872,5.719 -6.903,9.687c-13.212,50.838 -1.914,116.945 43.906,149.269c6.739,4.754 33.702,22.776 53.12,27.397c15.691,3.734 28.009,-0.556 34.52,-10.386c2.847,-4.298 4.87,-10.385 5.686,-17.433c1.169,-10.096 -0.086,-22.939 -0.03,-29.899c0.402,-49.461 -10.458,-101.544 -61.921,-122.027c-10.791,-4.295 -28.91,-11.506 -43.704,-12.354c-9.582,-0.549 -18.129,1.395 -24.674,5.746Zm23.268,27.57c2.624,0.189 5.388,0.717 8.167,1.397c9.143,2.238 18.367,6.124 24.616,8.611c37.451,14.906 41.209,54.792 40.916,90.786c-0.038,4.693 0.61,12.22 0.583,19.611c-0.006,1.61 -0.191,3.714 -0.403,5.583c-1.669,-0.387 -3.54,-0.886 -5.011,-1.447c-14.605,-5.563 -31.224,-17.081 -35.919,-20.393c-31.891,-22.498 -39.68,-67.186 -32.949,-104.148Z" style="fill:#7e4021;"/><path d="M2077.89,1198.27c-17.593,-3.787 -47.872,-1.099 -73.378,7.97c-19.841,7.055 -36.467,18.084 -45.564,29.645c-48.06,61.079 -9.684,137.476 52.843,165.689c32.512,14.669 86.389,18.026 124.158,1.004c32.144,-14.487 54.562,-41.107 54.257,-82.752c-0.365,-50.051 -43.5,-106.742 -112.316,-121.556Zm-15.607,72.501c30.415,6.547 53.602,27.476 53.764,49.597c0.082,11.193 -9.721,15.181 -19.351,17.558c-18.325,4.524 -40.251,2.435 -54.404,-3.951c-20.828,-9.398 -41.071,-31.884 -25.062,-52.23c2.238,-2.844 7.247,-3.894 12.127,-5.629c11.527,-4.099 24.975,-7.057 32.926,-5.345Z" style="fill:#9964bb;"/><path d="M2081.4,1181.98c-19.762,-4.254 -53.817,-1.628 -82.469,8.559c-23.215,8.255 -42.434,21.515 -53.078,35.043c-55.3,70.28 -12.86,158.724 59.086,191.186c36.1,16.289 95.924,19.909 137.861,1.008c38.054,-17.15 64.436,-48.767 64.076,-98.069c-0.412,-56.345 -48.006,-121.051 -125.476,-137.727Zm-7.014,32.587c60.166,12.951 98.837,61.624 99.157,105.384c0.248,33.989 -18.204,55.612 -44.439,67.436c-33.601,15.143 -81.532,12.048 -110.455,-1.002c-53.115,-23.966 -87.426,-88.306 -46.6,-140.191c7.551,-9.596 21.581,-18.392 38.049,-24.248c22.362,-7.951 48.864,-10.699 64.288,-7.379Zm-8.592,39.914c-10.115,-2.178 -27.354,0.72 -42.018,5.934c-8.221,2.923 -15.871,6.236 -19.641,11.026c-13.028,16.557 -11.653,33.969 -2.437,49.169c7.293,12.026 20.332,22.509 33.742,28.56c16.98,7.661 43.269,10.368 65.254,4.94c17.175,-4.24 32.168,-13.897 32.022,-33.861c-0.207,-28.376 -27.908,-57.37 -66.922,-65.768Zm33.539,64.888c-1.482,0.619 -4.62,1.884 -6.628,2.38c-14.667,3.62 -32.228,2.148 -43.555,-2.963c-7.419,-3.347 -14.915,-8.806 -18.949,-15.459c-1.793,-2.957 -2.599,-6.288 -0.964,-9.545c1.529,-0.515 4.048,-1.37 5.707,-1.96c8.399,-2.986 18.042,-6.002 23.835,-4.755c12.097,2.604 22.821,7.939 30.473,14.952c5.572,5.107 9.613,10.995 10.081,17.35Z" style="fill:#7e4021;"/><path d="M2067.71,1793.59c-5.517,-17.13 -22.984,-42.008 -43.591,-59.563c-16.03,-13.655 -33.894,-22.539 -48.455,-24.636c-76.927,-11.082 -123.9,60.351 -117.069,128.607c3.552,35.491 27.583,83.829 61.208,108.027c28.619,20.594 62.881,26.698 98.795,5.612c43.162,-25.342 70.691,-91.044 49.112,-158.047Zm-70.591,22.735c9.538,29.613 3.006,60.158 -16.07,71.359c-9.653,5.667 -18.008,-0.828 -24.882,-7.979c-13.08,-13.608 -22.233,-33.642 -23.779,-49.091c-2.276,-22.737 7.076,-51.511 32.701,-47.82c3.582,0.516 6.996,4.329 10.939,7.688c9.313,7.933 18.598,18.101 21.091,25.843Z" style="fill:#9964bb;"/><path d="M2083.58,1788.49c-6.197,-19.242 -25.499,-47.422 -48.647,-67.141c-18.756,-15.977 -39.85,-25.991 -56.887,-28.446c-88.514,-12.751 -143.889,68.226 -136.029,146.764c3.944,39.407 30.721,93.026 68.057,119.895c33.88,24.38 74.452,31.419 116.969,6.456c48.59,-28.529 80.83,-102.1 56.537,-177.528Zm-31.728,10.218c18.867,58.582 -3.949,116.408 -41.687,138.565c-29.311,17.21 -57.263,12.041 -80.621,-4.767c-29.915,-21.528 -51.2,-64.584 -54.359,-96.158c-5.803,-57.982 32.761,-119.866 98.108,-110.452c12.086,1.741 26.719,9.493 40.024,20.828c18.067,15.39 33.698,36.967 38.535,51.984Zm-38.862,12.516c-3.172,-9.848 -14.301,-23.328 -26.149,-33.42c-6.642,-5.659 -13.336,-10.628 -19.369,-11.497c-20.853,-3.004 -35.244,6.892 -43.8,22.474c-6.769,12.329 -9.327,28.862 -7.862,43.501c1.855,18.535 12.655,42.656 28.348,58.982c12.259,12.754 28.119,20.91 45.336,10.801c24.47,-14.367 35.73,-52.854 23.496,-90.841Zm-52.315,-12.008c1.211,1.067 3.211,2.821 4.551,3.962c6.786,5.781 14.219,12.624 16.035,18.265c3.794,11.779 4.535,23.733 2.288,33.866c-1.637,7.379 -4.716,13.823 -9.985,17.405c-1.276,-0.973 -3.941,-3.058 -5.375,-4.55c-10.468,-10.891 -17.974,-26.836 -19.212,-39.201c-0.81,-8.098 0.17,-17.319 3.914,-24.139c1.664,-3.031 4.147,-5.395 7.784,-5.608Z" style="fill:#7e4021;"/><path d="M2094.56,1694.46c0.12,1.908 -1.937,-3.384 -2.267,-5.267c-0.606,-3.452 0.016,-7.106 0.783,-10.479c2.637,-11.599 7.493,-23.38 13.443,-33.647c15.355,-26.496 42.234,-46.093 69.951,-58.224c10.539,-4.613 27.013,-9.941 36.705,-0.555c12.104,11.724 -0.551,35.117 -6.288,46.863c-19.61,40.156 -68.231,58.418 -112.327,61.309Z" style="fill:#badcbe;"/><path d="M2099.64,1710.79c48.713,-4.151 100.653,-26.147 122.228,-70.323c4.005,-8.202 10.616,-21.394 12.456,-33.494c1.91,-12.565 -0.773,-24.153 -9.55,-32.654c-7.083,-6.861 -15.998,-9.822 -25.56,-9.883c-10.178,-0.065 -21.223,3.552 -29.422,7.141c-30.876,13.513 -60.585,35.621 -77.689,65.136c-6.772,11.685 -12.274,25.106 -15.275,38.308c-1.247,5.482 -1.932,11.443 -0.947,17.054c0.4,2.283 2.072,7.236 3.214,9.542c1.428,2.882 3.12,4.64 4.022,5.471c3.609,3.323 7.305,4.179 10.046,4.396c2.275,0.181 4.439,-0.037 6.477,-0.694Zm-21.742,-16.138l0.033,0.855c-0.019,-0.293 -0.03,-0.578 -0.033,-0.855Zm0.276,-3.218c-0.195,1.044 -0.289,2.12 -0.276,3.216c-0.02,-1.231 0.093,-2.298 0.276,-3.216Zm32.927,-15.605c2.395,-7.802 5.84,-15.497 9.842,-22.403c13.606,-23.478 37.654,-40.563 62.214,-51.313c3.911,-1.712 8.886,-3.684 13.82,-4.23c1.642,-0.181 3.409,-0.78 4.606,0.379c0.599,0.58 0.016,1.471 -0.051,2.314c-0.124,1.569 -0.463,3.181 -0.899,4.799c-2.072,7.685 -6.208,15.325 -8.718,20.464c-14.479,29.649 -47.656,44.609 -80.814,49.99Z" style="fill:#7e4021;"/><path d="M2655.36,2248.47c1.491,1.196 -3.806,-0.848 -5.42,-1.871c-2.959,-1.878 -5.242,-4.799 -7.219,-7.637c-6.797,-9.761 -12.234,-21.286 -15.816,-32.599c-9.243,-29.195 -5.625,-62.262 4.076,-90.921c3.689,-10.897 10.846,-26.663 24.311,-27.504c16.818,-1.051 25.587,24.059 30.405,36.21c16.474,41.542 -2.775,89.78 -30.337,124.322Z" style="fill:#badcbe;"/><path d="M2670.84,2255.71c29.741,-38.802 48.465,-92.01 30.342,-137.711c-3.365,-8.484 -8.663,-22.256 -16.368,-31.766c-8.001,-9.875 -18.374,-15.696 -30.569,-14.934c-9.842,0.615 -18.035,5.21 -24.521,12.237c-6.903,7.479 -11.668,18.08 -14.538,26.557c-10.806,31.924 -14.475,68.774 -4.178,101.296c4.076,12.876 10.291,25.981 18.028,37.092c3.213,4.613 7.158,9.135 11.968,12.186c1.957,1.242 6.744,3.342 9.218,4.051c3.092,0.886 5.531,0.82 6.753,0.712c4.887,-0.429 8.009,-2.585 10.016,-4.465c1.666,-1.56 2.962,-3.306 3.849,-5.255Zm-26.572,5.202l0.654,0.552c-0.23,-0.184 -0.448,-0.368 -0.654,-0.552Zm-2.193,-2.371c0.64,0.847 1.372,1.64 2.191,2.369c-0.923,-0.813 -1.635,-1.616 -2.191,-2.369Zm10.642,-34.849c-4.153,-7.026 -7.521,-14.754 -9.931,-22.364c-8.19,-25.87 -4.622,-55.153 3.974,-80.547c1.369,-4.044 3.262,-9.05 6.181,-13.064c0.972,-1.337 1.719,-3.046 3.383,-3.15c0.832,-0.052 1.097,0.979 1.675,1.596c1.077,1.148 2.04,2.485 2.942,3.897c4.285,6.707 7.147,14.91 9.255,20.227c12.163,30.671 0.876,65.271 -17.479,93.405Z" style="fill:#7e4021;"/><path d="M1860.65,1392.31c-3.489,0.627 5.823,-4.289 9.221,-5.298c6.23,-1.85 13.095,-1.482 19.471,-0.787c21.93,2.391 44.667,8.833 64.847,17.61c52.079,22.652 93.899,68.002 122.144,116.485c10.74,18.434 24.061,47.651 8.829,67.501c-19.023,24.793 -64.813,6.455 -87.671,-1.615c-78.15,-27.587 -122.134,-113.275 -136.841,-193.896Z" style="fill:#badcbe;"/><path d="M1845.21,1400.32c16.663,84.75 64.714,172.656 146.735,201.61c14.926,5.269 38.913,14.257 60.125,15.02c18.687,0.672 35.373,-4.714 46.317,-18.976c8.81,-11.482 11.431,-25.027 9.911,-38.979c-1.83,-16.786 -10.087,-34.229 -17.562,-47.058c-29.98,-51.461 -74.619,-99.335 -129.897,-123.379c-21.684,-9.431 -46.124,-16.325 -69.688,-18.894c-8.526,-0.93 -17.691,-1.096 -26.022,1.378c-3.224,0.957 -10.071,4.22 -13.204,6.25c-2.942,1.907 -4.668,3.922 -5.454,5.003c-2.907,3.993 -3.343,7.786 -3.244,10.552c0.097,2.723 0.739,5.223 1.983,7.473Zm34.454,1.953c2.634,-0.07 5.315,0.249 7.874,0.528c20.295,2.213 41.33,8.201 60.005,16.324c48.88,21.261 87.881,64.087 114.391,109.592c4.624,7.936 9.925,18.14 12.309,28.55c1.639,7.159 2.208,14.538 -2.302,20.416c-5.89,7.676 -16.379,6.722 -26.71,5.178c-15.559,-2.327 -31.531,-8.601 -42.19,-12.364c-68.497,-24.179 -107.657,-97.138 -123.377,-168.224Zm-21.16,-26.483l-0.798,0.123c0.273,-0.049 0.539,-0.09 0.798,-0.123Zm0.622,-0.07l-0.398,0.045l0.531,-0.054l-0.133,0.009Zm0.659,-0.046l-0.138,0.01l0.232,-0.012l-0.094,0.002Z" style="fill:#7e4021;"/><path d="M2115.4,1950.56c-2.84,-2.121 7.109,1.326 10.166,3.12c5.605,3.29 10.024,8.557 13.869,13.691c13.224,17.656 24.041,38.667 31.404,59.405c19.004,53.518 14.417,115.036 -1.725,168.775c-6.138,20.432 -18.392,50.112 -43.295,52.535c-31.103,3.026 -48.965,-42.952 -58.674,-65.163c-33.196,-75.937 -0.614,-166.576 48.255,-232.363Z" style="fill:#badcbe;"/><path d="M2099.01,1944.74c-50.55,70.035 -81.977,165.16 -47.136,244.859c6.34,14.503 16.148,38.167 30.072,54.187c12.267,14.113 27.594,22.629 45.487,20.888c14.404,-1.401 26.091,-8.733 35.247,-19.369c11.017,-12.797 18.124,-30.739 22.396,-44.96c17.134,-57.039 21.64,-122.34 1.469,-179.146c-7.912,-22.283 -19.56,-44.847 -33.771,-63.82c-5.141,-6.864 -11.277,-13.674 -18.772,-18.073c-2.9,-1.702 -9.959,-4.477 -13.581,-5.38c-3.402,-0.849 -6.053,-0.734 -7.379,-0.571c-4.903,0.602 -7.972,2.873 -9.926,4.834c-1.922,1.93 -3.311,4.106 -4.106,6.551Zm22.095,26.508c1.849,1.877 3.447,4.054 4.99,6.114c12.239,16.34 22.223,35.799 29.038,54.991c17.836,50.23 13.169,107.966 -1.981,158.403c-2.642,8.796 -6.48,19.637 -12.458,28.485c-4.112,6.086 -9.115,11.539 -16.489,12.256c-9.631,0.937 -16.094,-7.378 -22.019,-15.981c-8.923,-12.957 -15.242,-28.911 -19.77,-39.269c-29.096,-66.557 -2.521,-144.981 38.689,-204.999Zm5.763,-32.778l0.167,0.161l-0.066,-0.067l-0.101,-0.094Zm-0.687,-0.616l0.402,0.351l-0.098,-0.092l-0.304,-0.259Zm-0.172,-0.147l-0.634,-0.499c0.222,0.166 0.434,0.332 0.634,0.499Z" style="fill:#7e4021;"/><path d="M1765.1,1854.32c2.062,1.736 -5.404,-1.429 -7.653,-2.94c-4.124,-2.769 -7.211,-6.911 -9.863,-10.917c-9.124,-13.779 -16.183,-29.859 -20.595,-45.516c-11.385,-40.407 -4.077,-85.15 11.673,-123.453c5.988,-14.564 17.263,-35.503 36.629,-35.672c24.188,-0.211 35.154,34.601 41.286,51.489c20.963,57.735 -9.734,121.994 -51.477,167.009Z" style="fill:#badcbe;"/><path d="M1780.46,1862.21c44.182,-49.288 74.292,-118.596 51.784,-180.584c-4.125,-11.36 -10.492,-29.818 -20.551,-42.826c-9.296,-12.023 -21.506,-19.771 -36.545,-19.64c-12.144,0.106 -22.39,5.11 -30.756,12.912c-9.775,9.115 -16.755,22.418 -21.142,33.088c-17.131,41.66 -24.684,90.363 -12.301,134.312c4.867,17.27 12.676,34.997 22.74,50.197c3.829,5.783 8.514,11.553 14.467,15.551c2.31,1.551 8.017,4.254 10.982,5.222c3.057,0.999 5.493,1.086 6.721,1.046c4.802,-0.157 7.975,-2.057 10.022,-3.703c1.997,-1.607 3.531,-3.462 4.579,-5.575Zm-26.728,4.3l0.634,0.562c-0.223,-0.188 -0.434,-0.375 -0.634,-0.562Zm-1.652,-1.788c0.447,0.573 0.985,1.169 1.635,1.771l-0.592,-0.582c-0.191,-0.207 -0.381,-0.414 -0.572,-0.622l-0.471,-0.567Zm10.126,-32.355l-0.724,-1.101c-8.183,-12.359 -14.492,-26.792 -18.449,-40.835c-10.387,-36.865 -3.324,-77.649 11.045,-112.595c2.415,-5.873 5.777,-13.099 10.607,-18.806c2.85,-3.369 6.145,-6.498 10.754,-6.538c6.212,-0.054 9.655,5.757 13.011,11.298c5.923,9.784 9.682,21.556 12.463,29.213c17.297,47.638 -5.811,99.773 -38.707,139.364Z" style="fill:#7e4021;"/><path d="M1914.21,768.717c-9.638,-11.884 -0.935,-39.468 3.17,-53.526c13.411,-45.918 58.514,-57.553 101.072,-61.244c9.315,-0.807 29.613,-5.416 38.365,-0.744c16.449,8.782 -10.035,56.728 -15.27,65.876c-24.462,42.751 -81.785,56.972 -127.337,49.638Z" style="fill:#badcbe;"/><path d="M1901.27,779.215c2.582,3.185 6.248,5.305 10.295,5.957c51.859,8.349 116.603,-9.146 144.452,-57.815c4.096,-7.158 19.489,-35.704 22.255,-55.471c2.235,-15.975 -3.201,-27.832 -13.602,-33.385c-4.547,-2.428 -10.798,-3.867 -17.892,-4.013c-10.161,-0.21 -22.829,2.254 -29.762,2.855c-49.278,4.274 -100.102,20.008 -115.63,73.176c-3.256,11.148 -8.722,29.867 -8.168,44.675c0.358,9.592 3.101,17.917 8.052,24.021Zm143.689,-111.223c-0.226,1.698 -0.547,3.608 -0.966,5.125c-4.158,15.065 -14.054,32.698 -16.908,37.685c-19.383,33.874 -63.135,45.852 -100.568,42.644c-0.06,-2.63 0.205,-5.431 0.619,-8.263c1.364,-9.313 4.361,-18.863 6.247,-25.32c11.3,-38.691 50.652,-46.201 86.513,-49.311c4.675,-0.406 12.107,-1.762 19.468,-2.434c1.603,-0.146 3.715,-0.16 5.595,-0.126Z" style="fill:#7e4021;"/><path d="M2920.84,2149.43c12.076,-13.343 24.889,-40.909 29.788,-67.533c3.81,-20.71 2.572,-40.622 -2.892,-54.282c-28.866,-72.161 -114.216,-77.124 -169.912,-37.08c-28.96,20.821 -58.806,65.801 -62.949,107.021c-3.526,35.082 8.319,67.806 44.537,88.365c43.528,24.708 114.192,15.698 161.428,-36.491Zm-54.984,-49.766c-20.877,23.066 -50.596,32.682 -69.834,21.762c-9.734,-5.526 -8.287,-16.01 -5.531,-25.538c5.245,-18.132 18.018,-36.075 30.625,-45.139c18.553,-13.339 48.148,-19.627 57.763,4.41c1.344,3.36 -0.251,8.224 -1.188,13.317c-2.214,12.032 -6.377,25.158 -11.835,31.188Z" style="fill:#9964bb;"/><path d="M2933.2,2160.62c13.566,-14.988 28.319,-45.794 33.822,-75.7c4.459,-24.232 2.584,-47.507 -3.809,-63.489c-33.214,-83.031 -131.029,-90.498 -195.115,-44.423c-32.156,23.119 -65.203,73.118 -69.803,118.887c-4.175,41.532 10.016,80.187 52.892,104.526c49.002,27.816 128.836,18.951 182.013,-39.801Zm-24.714,-22.369c-41.299,45.63 -102.787,54.784 -140.844,33.181c-29.559,-16.779 -39.059,-43.571 -36.181,-72.203c3.686,-36.671 30.331,-76.633 56.095,-95.156c47.313,-34.016 120.187,-31.56 144.708,29.738c4.536,11.338 5.138,27.886 1.975,45.076c-4.295,23.341 -15.165,47.667 -25.753,59.364Zm-30.27,-27.397c6.943,-7.671 13.053,-24.049 15.869,-39.356c1.579,-8.581 2.536,-16.863 0.272,-22.523c-7.825,-19.56 -23.591,-27.076 -41.363,-26.694c-14.062,0.302 -29.659,6.353 -41.605,14.942c-15.124,10.873 -30.613,32.287 -36.905,54.04c-4.916,16.994 -4.049,34.807 13.313,44.663c24.679,14.008 63.638,4.516 90.419,-25.072Zm-15.758,-51.31c-0.318,1.582 -0.837,4.191 -1.156,5.922c-1.613,8.767 -3.823,18.626 -7.8,23.019c-8.304,9.175 -18.286,15.795 -28.185,18.915c-7.209,2.272 -14.328,2.827 -20.066,0.055c0.205,-1.592 0.679,-4.942 1.254,-6.93c4.197,-14.511 14.253,-28.984 24.343,-36.238c6.608,-4.751 15.083,-8.513 22.862,-8.68c3.457,-0.075 6.745,0.893 8.748,3.937Z" style="fill:#7e4021;"/><path d="M3018.59,3288.37c4.569,17.407 20.644,43.207 40.256,61.866c15.256,14.515 32.606,24.366 47.03,27.26c76.202,15.287 127.026,-53.459 123.952,-121.988c-1.598,-35.632 -22.939,-85.216 -55.186,-111.223c-27.445,-22.135 -61.321,-30.11 -98.338,-11.027c-44.488,22.934 -75.582,87.026 -57.714,155.112Zm71.733,-18.825c-7.898,-30.092 0.301,-60.233 19.963,-70.369c9.949,-5.129 17.936,1.815 24.406,9.332c12.314,14.306 20.354,34.812 21.049,50.323c1.024,22.828 -9.893,51.045 -35.277,45.952c-3.548,-0.712 -6.748,-4.707 -10.5,-8.277c-8.863,-8.432 -17.577,-19.095 -19.641,-26.961Z" style="fill:#9964bb;"/><path d="M3002.47,3292.6c5.131,19.553 22.857,48.75 44.888,69.71c17.851,16.983 38.363,28.14 55.24,31.526c87.681,17.59 147.417,-60.224 143.88,-139.076c-1.774,-39.564 -25.567,-94.572 -61.373,-123.449c-32.491,-26.204 -72.615,-35.459 -116.437,-12.868c-50.083,25.818 -86.314,97.508 -66.198,174.157Zm32.241,-8.462c-15.622,-59.528 10.334,-116.015 49.23,-136.067c30.212,-15.575 57.839,-8.879 80.238,9.186c28.688,23.137 47.578,67.297 48.999,98.997c2.611,58.213 -39.292,117.886 -104.024,104.899c-11.972,-2.401 -26.157,-10.945 -38.82,-22.993c-17.194,-16.359 -31.618,-38.761 -35.623,-54.022Zm39.491,-10.363c2.626,10.007 12.999,24.078 24.274,34.805c6.322,6.015 12.733,11.344 18.709,12.543c20.657,4.144 35.57,-4.947 44.968,-20.036c7.435,-11.938 10.897,-28.306 10.238,-43.004c-0.834,-18.609 -10.294,-43.286 -25.067,-60.448c-11.541,-13.408 -26.929,-22.422 -44.675,-13.274c-25.222,13.002 -38.577,50.812 -28.447,89.413l-0,0.001Zm42.741,-59.234c1.222,1.043 3.768,3.271 5.118,4.839c9.855,11.449 16.474,27.783 17.03,40.197c0.365,8.13 -1.119,17.283 -5.233,23.888c-1.828,2.935 -4.436,5.159 -8.08,5.172c-1.15,-1.132 -3.051,-2.993 -4.326,-4.206c-6.458,-6.145 -13.504,-13.386 -15.008,-19.118c-3.142,-11.969 -3.226,-23.946 -0.426,-33.941c2.039,-7.278 5.468,-13.542 10.925,-16.831Z" style="fill:#7e4021;"/><path d="M2220.12,2329.85c-29.102,90.134 38.178,146.702 126.342,123.192c196.778,-52.473 274.83,-381.289 55.956,-327.479c-72.538,17.834 -150.595,106.101 -182.298,204.287Zm95.319,-20.08c-12.255,37.957 9.998,55.016 34.456,47.468c68.927,-21.272 128.141,-138.171 66.911,-144.751c-36.368,-3.908 -88.016,55.935 -101.367,97.283Z" style="fill:#9fcba4;"/><path d="M2204.26,2324.73c-17.006,52.668 -4.569,95.287 23.716,121.548c27.779,25.79 72.185,36.361 122.781,22.869c126.056,-33.614 206.126,-173.707 199.82,-267.783c-2.344,-34.956 -16.148,-63.879 -41.671,-81.227c-24.419,-16.597 -60.624,-23.011 -110.467,-10.758c-76.822,18.887 -160.604,111.366 -194.179,215.351Zm31.721,10.242c29.831,-92.391 102.16,-176.442 170.416,-193.223c37.715,-9.272 65.294,-6.602 83.772,5.957c17.371,11.806 25.554,32.097 27.149,55.887c5.507,82.151 -65.073,203.993 -175.15,233.346c-37.573,10.02 -70.883,4.063 -91.512,-15.09c-20.124,-18.683 -26.774,-49.405 -14.675,-86.877Zm63.598,-30.322c-8.579,26.572 -3.123,45.629 6.802,56.922c11.134,12.669 29.222,17.52 48.429,11.592c27.146,-8.377 53.214,-29.592 72.34,-54.397c19.463,-25.241 31.467,-54.066 31.896,-75.802c0.246,-12.431 -3.024,-23.043 -9.347,-31.074c-6.563,-8.336 -16.546,-14.409 -31.112,-15.974c-18.216,-1.958 -40.061,7.509 -60.107,24.506c-26.353,22.346 -50.109,56.999 -58.901,84.227Zm31.721,10.242c7.229,-22.389 27.068,-50.67 48.738,-69.045c11.984,-10.161 24.097,-17.958 34.987,-16.788c3.287,0.354 5.931,1.06 7.751,2.675c1.801,1.598 2.442,3.996 2.765,6.652c0.619,5.088 -0.258,10.963 -2.029,17.257c-9.186,32.654 -42.162,74.446 -78.532,85.671c-5.274,1.627 -10.504,1.732 -13.561,-1.747c-4.272,-4.861 -3.812,-13.237 -0.119,-24.675Z" style="fill:#7e4021;"/><path d="M2345.96,769.234c51.088,-64.732 33.733,-154.899 -29.043,-168.646c-105.108,-23.016 -317.031,242.026 -141.837,262.755c52.019,6.155 115.229,-23.594 170.88,-94.109Zm-64.253,-28.453c21.514,-27.26 14.553,-52.361 -2.724,-58.116c-37.435,-12.471 -111.908,76.218 -80.461,101.448c21.83,17.513 59.749,-13.637 83.185,-43.332Z" style="fill:#9fcba4;"/><path d="M2359.05,779.56c34.735,-44.012 40.937,-98.514 25.465,-138.347c-11.153,-28.716 -33.257,-50.168 -64.026,-56.906c-28.804,-6.307 -65.006,5.043 -100.065,28.224c-48.665,32.178 -95.611,86.406 -116.713,136.24c-16.008,37.806 -16.802,73.428 1.657,98.04c12.383,16.511 33.842,29.07 67.76,33.084c56.336,6.665 125.654,-23.97 185.922,-100.335Zm-26.166,-20.651c-51.038,64.67 -108.131,93.528 -155.839,87.883c-22.152,-2.621 -36.923,-9.198 -45.01,-19.982c-12.253,-16.336 -8.255,-39.947 2.371,-65.042c18.837,-44.486 60.96,-92.708 104.403,-121.432c26.354,-17.426 52.897,-28.208 74.55,-23.467c19.452,4.26 33.033,18.259 40.085,36.413c11.835,30.471 6.011,71.959 -20.56,105.627Zm-38.087,-7.803c31.399,-39.784 14.676,-75.854 -10.539,-84.254c-12.776,-4.256 -28.826,-1.543 -44.858,7.536c-19.125,10.831 -38.745,30.603 -51.127,50.819c-9.237,15.08 -14.317,30.536 -13.949,43.085c0.345,11.752 4.832,21.645 13.776,28.821c13.468,10.806 30.831,11.334 49.224,3.067c19.979,-8.98 41.766,-29.171 57.473,-49.074l0,0Zm-26.166,-20.651c-12.416,15.733 -29.18,32.223 -44.973,39.321c-5.504,2.474 -10.668,4.571 -14.699,1.337c-1.829,-1.468 -1.482,-3.919 -1.18,-6.481c0.801,-6.771 4.241,-14.377 8.919,-22.015c9.517,-15.537 24.429,-30.9 39.128,-39.224c6.542,-3.704 12.684,-6.653 17.897,-4.916c2.78,0.926 4.231,3.76 4.621,7.108c0.82,7.05 -2.422,15.633 -9.713,24.87Z" style="fill:#7e4021;"/><path d="M2786.9,1344.4c-168.248,11.311 -313.058,-117.813 -303.403,-290.58c4.984,-89.176 385.514,-38.009 303.403,290.58Z" style="fill:#badcbe;"/><path d="M2788.02,1361.03c7.218,-0.485 13.298,-5.571 15.052,-12.589c24.36,-97.483 9.659,-171.857 -23.347,-226.439c-49.914,-82.542 -142.696,-120.188 -212.181,-123.493c-32.042,-1.524 -59.322,4.426 -76.503,15.499c-14.88,9.59 -23.288,22.905 -24.181,38.883c-10.23,183.036 142.913,320.122 321.16,308.139Zm-14.467,-32.696c-152.977,3.782 -282.259,-115.287 -273.412,-273.582c0.417,-7.465 6.633,-12.217 14.902,-15.899c12.889,-5.739 30.711,-8.01 50.917,-7.049c60.61,2.883 141.702,35.447 185.241,107.447c27.924,46.178 40.005,108.425 22.352,189.083l-0,0Z" style="fill:#7e4021;"/><path d="M2706.9,2944.99c75.424,-92.365 241.431,-76.727 362.404,46.498c62.442,63.605 -164.021,219.926 -362.404,-46.498Z" style="fill:#badcbe;"/><path d="M2693.99,2934.45c-4.833,5.919 -5.022,14.367 -0.458,20.496c147.94,198.68 312.137,171.711 373.565,117.389c33.214,-29.371 39.278,-66.874 14.1,-92.521c-76.391,-77.813 -170.096,-114.3 -249.783,-110.493c-55.419,2.648 -104.3,24.566 -137.424,65.129Zm34.531,11.402c26.789,-27.034 63.583,-41.281 104.484,-43.236c71.743,-3.427 155.629,30.493 224.405,100.55c7.162,7.295 6.988,16.791 2.349,25.976c-6.733,13.332 -21.346,25.89 -40.987,35.098c-64.888,30.42 -180.769,21.51 -290.251,-118.388l0,-0Z" style="fill:#7e4021;"/><path d="M1416.3,1180.73c46.008,-72.968 269.291,-177.538 482.688,-72.862c98.59,48.361 -288.638,184.511 -482.688,72.862Z" style="fill:#badcbe;"/><path d="M1402.2,1171.84c-2.42,3.838 -3.171,8.496 -2.079,12.9c1.092,4.404 3.933,8.172 7.865,10.435c56.705,32.626 129.137,45.326 201.898,45.09c107.694,-0.349 215.884,-28.915 272.885,-59.55c19.402,-10.428 33.27,-21.484 40.619,-31.606c7.719,-10.631 9.567,-21.152 6.994,-30.653c-2.457,-9.071 -9.502,-18.413 -24.056,-25.552c-132.822,-65.152 -269.332,-52.247 -367.601,-15.08c-67.446,25.509 -116.871,62.844 -136.525,94.016Zm495.601,-44.803c-0.426,0.839 -1.21,2.291 -1.942,3.222c-5.475,6.966 -15.581,13.952 -28.87,21.094c-53.704,28.863 -155.75,55.25 -257.213,55.579c-59.583,0.193 -119.045,-8.544 -168.103,-31.74c21.6,-23.303 60.179,-47.784 108.844,-66.19c91.191,-34.49 217.875,-46.631 341.129,13.828c2.46,1.207 5.073,3.298 6.155,4.207Z" style="fill:#7e4021;"/><path d="M2845.75,2988.95c2.492,1.518 5.415,2.399 8.544,2.417c9.198,0.053 16.709,-7.372 16.762,-16.57c0.022,-3.776 -0.996,-10.488 -8.791,-15.039c-3.823,-2.232 -22.876,-6.524 -24.15,-6.821c-67.246,-15.686 -134.353,-19.024 -202.934,-13.441c-9.168,0.747 -16.005,8.796 -15.259,17.965c0.747,9.168 8.796,16.005 17.964,15.259c65.106,-5.301 128.818,-2.212 192.657,12.679l15.207,3.551Zm-7.925,-12.437c0.165,1.693 0.602,3.463 1.465,5.243c-0.762,-1.623 -1.268,-3.388 -1.465,-5.243Zm-0.068,-0.687l0.031,0.317l-0.037,-0.525l0.006,0.208Z" style="fill:#7e4021;"/><path d="M1541.36,1179.43c2.779,0.465 5.711,0.227 8.537,-0.829c8.616,-3.221 12.997,-12.831 9.776,-21.448c-1.315,-3.517 -4.62,-9.414 -13.475,-10.888c-3.913,-0.652 -21.249,1.758 -22.412,1.915c-59.821,8.083 -115.693,26.206 -169.995,52.083c-8.304,3.958 -11.833,13.912 -7.876,22.216c3.957,8.304 13.912,11.833 22.215,7.876c51.155,-24.378 103.765,-41.528 160.119,-49.142l13.111,-1.783Zm-8.447,-4.056l0.002,0.001l-0.034,-0.03l0.032,0.029Zm-3.691,-4.804c0.765,1.543 1.819,3.061 3.285,4.432c-1.311,-1.258 -2.43,-2.745 -3.285,-4.432Zm-0.305,-0.613l0.142,0.286l-0.223,-0.48l0.081,0.194Z" style="fill:#7e4021;"/><path d="M2669.25,1205.68c0.002,4.664 1.326,10.864 4.459,18.136c5.03,11.679 15.28,27.821 28.58,45.933c41.801,56.921 114.243,135.296 132.785,153.5c6.563,6.444 17.125,6.347 23.569,-0.217c6.444,-6.564 6.347,-17.125 -0.217,-23.569c-18.051,-17.723 -88.574,-94.028 -129.269,-149.444c-9.957,-13.557 -18.09,-25.766 -22.961,-35.41c-1.927,-3.816 -3.612,-6.725 -3.613,-8.943c-0.003,-9.199 -7.475,-16.663 -16.673,-16.659c-9.199,0.004 -16.664,7.475 -16.66,16.673Z" style="fill:#7e4021;"/><path d="M939.373,1456.34c-66.1,49.304 -72.673,140.891 -15.594,170.417c95.569,49.436 368.868,-151.725 205.01,-217.092c-48.654,-19.409 -117.41,-7.033 -189.416,46.675Zm54.7,44.114c-27.836,20.763 -27.609,46.81 -12.41,56.841c32.931,21.734 127.821,-44.657 103.975,-77.167c-16.552,-22.566 -61.242,-2.292 -91.565,20.326Z" style="fill:#9fcba4;"/><path d="M929.408,1442.98c-44.942,33.521 -65.039,84.561 -60.403,127.041c3.341,30.624 19.139,57.066 47.116,71.538c26.19,13.548 64.096,11.954 103.96,-1.363c55.336,-18.486 114.717,-58.716 147.997,-101.39c25.249,-32.375 35.235,-66.577 23.775,-95.128c-7.688,-19.154 -25.165,-36.839 -56.889,-49.494c-52.691,-21.02 -127.576,-9.369 -205.556,48.796Zm19.93,26.719c66.037,-49.257 128.654,-62.355 173.275,-44.555c20.719,8.265 33.284,18.442 38.305,30.951c7.607,18.951 -2.365,40.722 -19.125,62.212c-29.709,38.094 -82.877,73.771 -132.274,90.273c-29.966,10.011 -58.395,13.556 -78.083,3.372c-17.687,-9.149 -27.182,-26.186 -29.295,-45.546c-3.545,-32.497 12.818,-71.064 47.197,-96.707Zm34.77,17.394c-40.625,30.303 -33.808,69.471 -11.626,84.111c11.238,7.417 27.443,8.952 45.279,4.331c21.277,-5.511 45.346,-19.532 62.539,-35.854c12.825,-12.176 21.731,-25.79 24.624,-38.007c2.708,-11.441 0.935,-22.158 -5.847,-31.404c-10.213,-13.924 -26.847,-18.928 -46.753,-15.703c-21.623,3.503 -47.893,17.367 -68.216,32.526Zm19.93,26.72c16.064,-11.983 36.525,-23.572 53.617,-26.342c5.957,-0.965 11.488,-1.653 14.544,2.514c1.387,1.891 0.418,4.169 -0.537,6.565c-2.526,6.333 -7.818,12.79 -14.313,18.956c-13.214,12.545 -31.594,23.525 -47.947,27.761c-7.277,1.885 -13.973,3.143 -18.559,0.117c-2.446,-1.615 -3.114,-4.727 -2.624,-8.062c1.032,-7.023 6.386,-14.473 15.819,-21.509Z" style="fill:#7e4021;"/><path d="M2490.77,1577.27c2.057,1.587 4.49,3.394 5.76,4.089c3.191,1.746 7.506,3.632 11.617,5.763c1.922,0.996 3.955,1.793 5.057,3.085c5.969,7 16.497,7.837 23.496,1.868c7,-5.968 7.837,-16.496 1.868,-23.496c-5.594,-6.56 -17.961,-12.083 -25.679,-16.272c-0.814,-0.662 -6.263,-5.07 -8.472,-6.379c-3.885,-2.3 -7.485,-2.902 -9.984,-2.908c-4.9,-0.012 -8.821,1.761 -11.941,4.692c-2.623,2.466 -5.602,6.386 -5.538,13.296c0.077,8.172 6.036,14.924 13.816,16.262Zm19.481,-15.392l-0.019,0.282l0.007,-0.064l0.012,-0.218Zm0.023,-0.406c0.011,-0.252 0.015,-0.511 0.012,-0.776l-0.012,0.776Z" style="fill:#7e4021;"/><path d="M2916.7,2779.02c0.814,0.662 6.263,5.071 8.473,6.379c3.884,2.301 7.484,2.903 9.984,2.909c4.899,0.012 8.82,-1.761 11.94,-4.693c2.624,-2.465 5.602,-6.385 5.538,-13.295c-0.077,-8.172 -6.036,-14.924 -13.816,-16.262c-2.056,-1.588 -4.49,-3.394 -5.76,-4.089c-3.191,-1.746 -7.506,-3.632 -11.617,-5.763c-1.922,-0.996 -3.955,-1.793 -5.057,-3.086c-5.969,-6.999 -16.497,-7.836 -23.496,-1.868c-7,5.969 -7.837,16.497 -1.868,23.496c5.594,6.561 17.961,12.083 25.679,16.272Zm2.615,-9.165c-0.011,0.253 -0.015,0.512 -0.012,0.777l0.012,-0.777Zm0.036,-0.623l-0.013,0.218l0.019,-0.282l-0.006,0.064Z" style="fill:#7e4021;"/><path d="M2570.99,1691.63c5.662,-1.685 10.253,-6.335 11.566,-12.516c1.911,-8.998 -3.842,-17.855 -12.84,-19.766c-3.393,-0.721 -9.433,-0.604 -16.011,3.593c-6.616,4.222 -18.115,16.023 -20.99,18.396c-7.094,5.856 -8.098,16.37 -2.242,23.464c5.856,7.093 16.37,8.098 23.463,2.241c2.155,-1.778 14.134,-12.736 17.054,-15.412Z" style="fill:#7e4021;"/><path d="M2858.61,2639.7c-5.662,1.685 -10.253,6.336 -11.566,12.517c-1.911,8.998 3.842,17.855 12.84,19.766c3.393,0.721 9.433,0.603 16.011,-3.594c6.616,-4.221 18.115,-16.022 20.99,-18.395c7.094,-5.857 8.098,-16.37 2.242,-23.464c-5.856,-7.093 -16.37,-8.098 -23.463,-2.242c-2.155,1.779 -14.134,12.737 -17.054,15.412Z" style="fill:#7e4021;"/><path d="M2434.68,1648.08c-0.404,3.592 -2.771,24.796 -2.921,28.228c-0.402,9.19 6.734,16.977 15.923,17.378c9.19,0.401 16.977,-6.734 17.378,-15.924c0.177,-4.048 3.218,-22.338 3,-31.036c-0.199,-7.917 -3.341,-13.046 -5.43,-15.248c-6.331,-6.674 -16.888,-6.952 -23.562,-0.621c-4.806,4.558 -6.295,11.309 -4.388,17.223Z" style="fill:#7e4021;"/><path d="M2994.92,2683.25c0.404,-3.592 2.772,-24.796 2.921,-28.228c0.402,-9.19 -6.734,-16.977 -15.923,-17.378c-9.19,-0.401 -16.977,6.734 -17.378,15.924c-0.177,4.048 -3.218,22.337 -3,31.036c0.199,7.917 3.341,13.046 5.43,15.248c6.331,6.673 16.889,6.952 23.562,0.621c4.806,-4.558 6.295,-11.309 4.388,-17.223Z" style="fill:#7e4021;"/><path d="M2549.91,1788.29c-3.967,-6.396 -11.936,-9.492 -19.392,-7.024c-8.732,2.891 -13.475,12.328 -10.584,21.06c1.051,3.175 3.644,7.458 8.429,11.416c7.145,5.91 22.85,13.549 27.315,16.485c7.686,5.053 18.029,2.915 23.082,-4.771c5.054,-7.686 2.916,-18.029 -4.77,-23.082c-2.958,-1.945 -10.966,-5.958 -18.028,-10.123c-2.139,-1.262 -5.008,-3.232 -6.052,-3.961Z" style="fill:#7e4021;"/><path d="M2879.69,2543.04c3.967,6.397 11.936,9.493 19.392,7.025c8.732,-2.891 13.475,-12.328 10.584,-21.061c-1.051,-3.174 -3.644,-7.457 -8.429,-11.416c-7.145,-5.909 -22.85,-13.549 -27.315,-16.484c-7.686,-5.053 -18.029,-2.915 -23.082,4.771c-5.054,7.686 -2.916,18.029 4.77,23.082c2.958,1.945 10.966,5.958 18.028,10.123c2.139,1.262 5.008,3.232 6.052,3.96Z" style="fill:#7e4021;"/><path d="M2623.32,1751.49c0.889,-1.447 2.55,-4.171 2.953,-4.938c4.282,-8.141 1.148,-18.227 -6.994,-22.509c-8.141,-4.281 -18.227,-1.147 -22.508,6.994c-1.012,1.925 -4.578,7.422 -5.655,10.974c-1.333,4.395 -1.041,8.28 -0.197,11.178c2.572,8.832 11.83,13.914 20.662,11.342c6.269,-1.826 10.648,-7.02 11.739,-13.041Z" style="fill:#7e4021;"/><path d="M2760.58,2552.37c-0.889,1.447 -2.551,4.172 -2.954,4.939c-4.281,8.141 -1.147,18.227 6.994,22.508c8.142,4.282 18.227,1.148 22.509,-6.994c1.012,-1.924 4.577,-7.421 5.655,-10.974c1.333,-4.394 1.041,-8.279 0.197,-11.177c-2.572,-8.832 -11.831,-13.914 -20.663,-11.342c-6.268,1.826 -10.648,7.02 -11.738,13.04Z" style="fill:#7e4021;"/><path d="M2656.55,1561.51c1.87,-6.736 -0.666,-14.202 -6.791,-18.301c-6.779,-4.536 -12.253,-3.623 -15.53,-2.655c-5.192,1.535 -9.496,4.938 -11.585,11.325c-0.745,2.276 -1.357,6.147 -0.4,11.059c0.948,4.867 4.565,13.881 5.526,18.34c1.939,8.992 10.813,14.719 19.805,12.78c8.992,-1.939 14.719,-10.813 12.78,-19.805c-0.553,-2.564 -2.43,-8.52 -3.805,-12.743Zm-23.35,10.541l0.092,0.041l-0.286,-0.143l0.194,0.102Zm-0.978,-0.517l0.204,0.108l-0.333,-0.188l0.129,0.08Z" style="fill:#7e4021;"/><path d="M2773.05,2769.82c-1.869,6.737 0.666,14.202 6.791,18.301c6.779,4.537 12.253,3.624 15.53,2.656c5.192,-1.535 9.496,-4.938 11.585,-11.325c0.745,-2.276 1.357,-6.147 0.4,-11.06c-0.948,-4.866 -4.565,-13.881 -5.526,-18.339c-1.939,-8.992 -10.813,-14.719 -19.805,-12.78c-8.992,1.939 -14.718,10.813 -12.78,19.805c0.553,2.564 2.43,8.52 3.805,12.742Zm24.124,-10.131l0.333,0.187l-0.129,-0.08l-0.204,-0.107Zm-0.866,-0.45l0.286,0.143l-0.194,-0.102l-0.092,-0.041Z" style="fill:#7e4021;"/><path d="M2700.98,2530.34c0.721,-3.763 1.62,-8.838 1.723,-11.036c0.434,-9.188 -6.674,-17 -15.863,-17.433c-9.188,-0.434 -17,6.674 -17.433,15.863c-0.163,3.453 -2.192,10.583 -2.529,14.329c-0.421,4.673 0.527,8.206 1.383,10.208c2.801,6.556 7.714,9.468 13.259,10.297c3.204,0.479 8.723,0.754 14.777,-4.709c5.031,-4.541 6.649,-11.461 4.683,-17.519Zm-26.22,-7.903l-0.075,0.064l0.302,-0.234l-0.227,0.17Zm0.788,-0.59l-0.119,0.09l0.271,-0.189l-0.152,0.099Z" style="fill:#7e4021;"/><path d="M1500.31,1648.14c1.571,-7.422 2.712,-15.28 4.023,-22.835c1.572,-9.063 -4.509,-17.698 -13.572,-19.27c-9.063,-1.573 -17.698,4.509 -19.271,13.572c-1.241,7.155 -2.302,14.599 -3.791,21.628c-1.905,9 3.854,17.853 12.853,19.758c8.999,1.906 17.852,-3.854 19.758,-12.853Z" style="fill:#7e4021;"/><path d="M1579.6,1542.78c-0.472,-0.016 -0.949,-0.006 -1.429,0.024c-9.181,0.575 -16.167,8.496 -15.592,17.676c0.175,2.794 3.021,16.488 18.233,15.686c4.47,-0.235 26.713,-4.626 28.241,-4.905c9.049,-1.654 15.053,-10.343 13.399,-19.391c-1.653,-9.049 -10.342,-15.053 -19.391,-13.4l-23.461,4.31Zm9.583,3.311c3.783,2.824 6.346,7.229 6.664,12.305c-0.275,-4.386 -1.898,-8.911 -6.664,-12.305Z" style="fill:#7e4021;"/><path d="M1633.43,1656.6c-4.188,-4.883 -11.024,-7.095 -17.56,-5.082c-8.791,2.708 -13.729,12.043 -11.021,20.834c1.021,3.316 3.258,7.08 7.305,10.255c4.245,3.331 13.234,6.616 16.018,7.957c8.288,3.991 18.257,0.504 22.248,-7.784c3.992,-8.287 0.504,-18.256 -7.783,-22.248c-1.357,-0.653 -6.969,-3.002 -9.207,-3.932Z" style="fill:#7e4021;"/><path d="M1719.44,1583.6c0.062,8.998 7.3,16.364 16.349,16.533c9.197,0.172 16.804,-7.155 16.976,-16.352c0.089,-4.784 -1.882,-11.26 -3.13,-16.245c-2.234,-8.923 -11.292,-14.353 -20.215,-12.119c-8.924,2.234 -14.354,11.293 -12.12,20.216c0.589,2.352 2.041,7.607 2.14,7.967Z" style="fill:#7e4021;"/><path d="M1643.87,1841.19c7.161,-0.382 13.532,-5.399 15.303,-12.725c2.163,-8.94 -3.341,-17.955 -12.282,-20.117c-2.155,-0.521 -6.075,-0.857 -10.968,0.414c-5.205,1.351 -14.862,5.681 -17.918,6.522c-8.869,2.439 -14.089,11.62 -11.65,20.49c2.439,8.869 11.62,14.089 20.489,11.65c2.674,-0.735 14.6,-5.301 17.026,-6.234Z" style="fill:#7e4021;"/><path d="M1484.69,1804.02c-0.322,2.772 0.054,5.662 1.226,8.411c3.609,8.461 13.408,12.401 21.869,8.793c2.055,-0.877 9.937,-4.62 10.279,-15.642c0.148,-4.783 -2.594,-27.293 -2.819,-29.778c-0.827,-9.161 -8.937,-15.927 -18.098,-15.1c-9.161,0.828 -15.927,8.937 -15.1,18.099c0.177,1.959 2.271,21.713 2.643,25.217Z" style="fill:#7e4021;"/><path d="M1975.12,944.468c-0.813,2.772 -5.057,17.292 -5.9,21.175c-1.951,8.989 3.762,17.871 12.752,19.823c8.989,1.951 17.871,-3.763 19.823,-12.752c0.932,-4.296 4.814,-14.194 6.131,-21.742c1.281,-7.343 0.331,-13.649 -1.578,-17.631c-3.977,-8.294 -13.94,-11.799 -22.235,-7.822c-7.221,3.462 -10.813,11.463 -8.993,18.949Z" style="fill:#7e4021;"/><path d="M1923.26,1033.93c-2.04,-0.117 -4.285,-0.213 -5.391,-0.163c-6.323,0.285 -12.668,0.043 -18.994,0.066c-9.199,0.034 -16.639,7.53 -16.605,16.728c0.034,9.199 7.529,16.639 16.728,16.605c6.786,-0.025 13.593,0.206 20.375,-0.1c2.623,-0.119 7.947,0.603 10.77,0.351c4.493,-0.401 7.739,-2.036 9.728,-3.47c4.11,-2.963 6.234,-6.837 6.955,-11.171c0.584,-3.513 0.616,-8.477 -3.732,-13.964c-4.822,-6.087 -13.05,-7.901 -19.834,-4.882Zm-6.767,24.952c0.149,0.209 0.307,0.419 0.474,0.63l-0.474,-0.63Zm-0.362,-0.525l0.161,0.232l-0.203,-0.299l0.042,0.067Z" style="fill:#7e4021;"/><path d="M1741.26,1021.58c2.722,5.327 8.234,9.007 14.628,9.089c7.52,0.097 11.302,-3.457 13.436,-5.928c3.326,-3.851 5.057,-8.7 3.71,-14.777c-0.375,-1.694 -1.103,-3.788 -2.576,-6.005c-1.043,-1.57 -6.268,-6.479 -7.125,-7.278c-4.058,-4.771 -8.379,-9.305 -12.674,-13.862c-6.308,-6.695 -16.864,-7.009 -23.559,-0.701c-6.695,6.308 -7.009,16.865 -0.701,23.56c4,4.245 8.04,8.455 11.81,12.909c0.557,0.659 1.833,1.875 3.051,2.993Zm11.297,-23.859l-0.075,0.016l0.075,-0.016Zm0.497,-0.103c1.056,-0.198 2.147,-0.294 3.262,-0.279c-1.204,-0.016 -2.287,0.09 -3.262,0.279Z" style="fill:#7e4021;"/><path d="M1737.11,771.277c-2.986,-0.252 -6.076,0.301 -8.94,1.762c-8.193,4.181 -11.451,14.228 -7.269,22.421c3.473,6.806 8.733,9.601 14.811,10.234c3,0.312 6.6,-0.081 10.414,-1.654c1.931,-0.796 5.942,-3.082 7.167,-3.789c8.95,-2 17.888,-4.041 26.862,-5.937c9,-1.902 14.763,-10.753 12.862,-19.752c-1.902,-9 -10.753,-14.763 -19.753,-12.862c-9.465,2 -18.891,4.158 -28.332,6.264c-1.883,0.42 -5.218,1.99 -7.822,3.313Z" style="fill:#7e4021;"/><path d="M1847.51,837.614c-1.428,2.494 -8.958,15.684 -10.149,18.377c-3.722,8.412 0.086,18.263 8.498,21.985c8.412,3.721 18.263,-0.087 21.985,-8.499c1.346,-3.042 8.146,-13.522 10.569,-19.216c2.276,-5.346 2.335,-9.823 1.968,-12.211c-1.398,-9.091 -9.915,-15.337 -19.006,-13.939c-7.214,1.109 -12.636,6.699 -13.865,13.503Z" style="fill:#7e4021;"/><path d="M1760.42,883.665c-1.251,0.414 -8.484,2.8 -9.951,3.198c-8.876,2.415 -14.121,11.582 -11.706,20.458c2.415,8.876 11.581,14.122 20.457,11.707c2.386,-0.649 12.446,-3.909 14.255,-4.669c10.828,-4.547 10.47,-14.477 10.448,-15.774c-0.087,-5.175 -2.042,-9.999 -7.41,-13.584c-4.949,-3.305 -11.032,-3.609 -16.093,-1.336Z" style="fill:#7e4021;"/><path d="M1841.07,953.873c5.522,2.449 11.093,4.802 16.661,7.143c8.48,3.564 18.258,-0.427 21.822,-8.907c3.564,-8.48 -0.427,-18.259 -8.907,-21.823c-5.563,-2.338 -11.13,-4.688 -16.644,-7.14c-0.895,-0.399 -2.827,-0.973 -4.615,-1.466c-5.147,-3.77 -12.241,-4.394 -18.132,-1.021c-6.388,3.659 -7.929,8.533 -8.555,11.82c-0.909,4.778 -0.067,9.617 3.684,14.1c1.136,1.357 2.759,2.881 5.083,4.164c1.62,0.895 8.209,2.744 9.603,3.13Zm8.837,-5.701c-0.65,0.516 -1.346,0.989 -2.087,1.413c0.785,-0.449 1.476,-0.923 2.087,-1.413Zm0.538,-0.449l-0.432,0.361l0.355,-0.291l0.077,-0.07Z" style="fill:#7e4021;"/><path d="M1952.46,804.653c0.192,1.276 0.404,2.571 0.549,3.228c1.22,5.51 2.601,10.985 3.971,16.459c2.232,8.924 11.288,14.357 20.212,12.125c8.924,-2.232 14.357,-11.289 12.125,-20.213c-1.296,-5.181 -2.608,-10.362 -3.762,-15.577c-0.445,-2.005 -0.893,-6.337 -1.518,-8.481c-1.208,-4.145 -3.339,-6.809 -4.849,-8.275c-4.51,-4.378 -9.594,-5.433 -14.65,-4.581c-3.225,0.544 -8.256,1.942 -12.08,8.469c-3.154,5.383 -2.941,11.815 0.002,16.846Zm28.273,0.781c-0.918,1.389 -2.014,2.599 -3.241,3.617c1.116,-0.887 2.225,-2.056 3.241,-3.617Z" style="fill:#7e4021;"/><path d="M1877.69,2149.32c-7.919,-4.953 -18.41,-2.74 -23.638,5.079c-0.382,0.571 -7.978,17.25 6.931,25.393c4.952,2.705 30.311,15.507 32.117,16.391c8.348,4.082 19.982,8.42 31.262,13.407c6.731,2.976 13.341,6.174 18.702,9.834c2.167,1.479 4.105,2.994 5.584,4.673c0.42,0.477 1.139,0.708 1.123,1.287c-0.061,2.09 -2.095,3.829 -4.643,6.415c-6.73,6.831 -6.649,17.841 0.182,24.571c6.831,6.73 17.841,6.649 24.571,-0.182c10.941,-11.104 14.559,-21.538 14.638,-30.474c0.088,-10.037 -4.213,-19.32 -12.449,-27.379c-14.652,-14.336 -45.986,-24.705 -63.705,-33.37c-1.686,-0.824 -29.348,-14.967 -30.675,-15.645Z" style="fill:#fff;"/><path d="M1907.12,2238.44c-1.642,14.888 3.305,30.353 14.792,41.671c19.936,19.643 52.068,19.405 71.71,-0.531c19.029,-19.312 24.089,-38.034 24.226,-53.575c0.165,-18.75 -7.082,-36.443 -22.469,-51.499c-16.798,-16.435 -52.061,-29.555 -72.374,-39.489c-1.507,-0.736 -24.127,-12.302 -29.191,-14.892l0.012,0.007c-22.925,-13.246 -52.556,-6.593 -67.487,15.737c-0.466,0.697 -5.58,8.899 -7.288,20.521c-2.391,16.267 0.459,38.73 25.951,52.653c5.158,2.818 31.57,16.161 33.452,17.081c7.738,3.784 18.184,7.809 28.666,12.316Zm-29.433,-89.123c-7.919,-4.953 -18.41,-2.74 -23.638,5.079c-0.382,0.571 -7.978,17.25 6.931,25.393c4.952,2.705 30.311,15.507 32.117,16.391c8.348,4.082 19.982,8.42 31.262,13.407c6.731,2.976 13.341,6.174 18.702,9.834c2.167,1.479 4.105,2.994 5.584,4.673c0.42,0.477 1.139,0.708 1.123,1.287c-0.061,2.09 -2.095,3.829 -4.643,6.415c-6.73,6.831 -6.649,17.841 0.182,24.571c6.831,6.73 17.841,6.649 24.571,-0.182c10.941,-11.104 14.559,-21.538 14.638,-30.474c0.088,-10.037 -4.213,-19.32 -12.449,-27.379c-14.652,-14.336 -45.986,-24.705 -63.705,-33.37c-1.686,-0.824 -29.348,-14.967 -30.675,-15.645Z" style="fill:#7e4021;"/><path d="M1106.01,1736.35c1.338,2.851 3.025,6.359 3.895,7.881c4.939,8.64 9.143,17.693 13.347,26.706c4.053,8.691 14.399,12.456 23.09,8.402c8.691,-4.053 12.456,-14.399 8.403,-23.09c-4.609,-9.882 -9.256,-19.791 -14.672,-29.264c-1.771,-3.099 -4.592,-10.16 -6.67,-13.438c-2.611,-4.12 -5.684,-6.404 -7.735,-7.515c-6.094,-3.298 -11.729,-2.775 -16.699,-0.238c-3.085,1.575 -7.808,4.683 -9.621,12.752c-1.557,6.936 1.277,13.842 6.662,17.804Z" style="fill:#fff;"/><path d="M1078.62,1756.28c0.925,1.858 1.775,3.5 2.344,4.496c4.482,7.84 8.262,16.074 12.076,24.252c11.83,25.364 42.026,36.352 67.389,24.523c25.364,-11.83 36.352,-42.026 24.523,-67.389c-4.998,-10.717 -10.07,-21.445 -15.942,-31.718c-1.95,-3.412 -5.167,-11.131 -7.455,-14.741c-6.681,-10.541 -14.774,-16.143 -20.023,-18.984c-17.414,-9.425 -33.518,-7.862 -47.721,-0.611c-8.558,4.369 -21.962,12.755 -26.988,35.137c-3.738,16.646 1.187,33.236 11.797,45.035Zm27.388,-19.928c1.338,2.851 3.025,6.359 3.895,7.881c4.939,8.64 9.143,17.693 13.347,26.706c4.053,8.691 14.399,12.456 23.09,8.402c8.691,-4.053 12.456,-14.399 8.403,-23.09c-4.609,-9.882 -9.256,-19.791 -14.672,-29.264c-1.771,-3.099 -4.592,-10.16 -6.67,-13.438c-2.611,-4.12 -5.684,-6.404 -7.735,-7.515c-6.094,-3.298 -11.729,-2.775 -16.699,-0.238c-3.085,1.575 -7.808,4.683 -9.621,12.752c-1.557,6.936 1.277,13.842 6.662,17.804Z" style="fill:#7e4021;"/><path d="M3156.97,2854.65c3.149,0.034 7.041,0.04 8.79,-0.082c9.928,-0.692 19.909,-0.542 29.853,-0.408c9.589,0.128 17.478,-7.552 17.606,-17.141c0.129,-9.589 -7.552,-17.478 -17.141,-17.606c-10.903,-0.146 -21.846,-0.269 -32.732,0.489c-3.56,0.248 -11.146,-0.282 -15.001,0.164c-4.846,0.561 -8.239,2.334 -10.131,3.699c-5.619,4.053 -7.598,9.355 -7.474,14.934c0.077,3.464 0.822,9.068 7.301,14.208c5.569,4.419 13.02,4.869 18.929,1.743Z" style="fill:#fff;"/><path d="M3163.01,2887.98c2.076,-0.025 3.924,-0.077 5.068,-0.156c9.009,-0.628 18.067,-0.452 27.091,-0.331c27.984,0.375 51.008,-22.041 51.382,-50.025c0.375,-27.984 -22.04,-51.008 -50.024,-51.382c-11.824,-0.159 -23.69,-0.256 -35.495,0.566c-3.92,0.273 -12.27,-0.187 -16.515,0.304c-12.398,1.434 -20.961,6.286 -25.802,9.778c-16.059,11.584 -21.653,26.766 -21.298,42.709c0.213,9.606 1.938,25.323 19.908,39.58c13.366,10.605 30.447,13.382 45.685,8.957Zm-6.038,-33.327c3.149,0.034 7.041,0.04 8.79,-0.082c9.928,-0.692 19.909,-0.542 29.853,-0.408c9.589,0.128 17.478,-7.552 17.606,-17.141c0.129,-9.589 -7.552,-17.478 -17.141,-17.606c-10.903,-0.146 -21.846,-0.269 -32.732,0.489c-3.56,0.248 -11.146,-0.282 -15.001,0.164c-4.846,0.561 -8.239,2.334 -10.131,3.699c-5.619,4.053 -7.598,9.355 -7.474,14.934c0.077,3.464 0.822,9.068 7.301,14.208c5.569,4.419 13.02,4.869 18.929,1.743Z" style="fill:#7e4021;"/><path d="M1675.79,1935.47c-2.581,0.948 -5.785,2.134 -7.179,2.686c-8.3,3.286 -16.763,5.69 -25.522,7.406c-17.186,3.367 -37.661,4.68 -55.894,10.126c-14.861,4.438 -28.33,11.46 -38.716,22.825c-6.469,7.079 -5.973,18.079 1.106,24.547c7.079,6.469 18.078,5.973 24.547,-1.106c7.903,-8.648 19.152,-12.379 30.832,-14.99c15.077,-3.371 31.047,-4.604 44.806,-7.3c10.858,-2.127 21.343,-5.124 31.631,-9.197c3.116,-1.234 10.125,-3.548 13.422,-5.162c3.95,-1.933 6.321,-4.327 7.459,-5.758c6.058,-7.62 4.811,-14.753 1.098,-20.547c-1.528,-2.384 -4.88,-7.215 -13.618,-8.22c-5.325,-0.612 -10.369,1.257 -13.972,4.69Z" style="fill:#fff;"/><path d="M1659.48,1905.97l-3.137,1.196c-6.393,2.531 -12.915,4.366 -19.662,5.688c-18.159,3.558 -39.758,5.143 -59.025,10.898c-20.741,6.195 -39.288,16.416 -53.783,32.279c-18.879,20.66 -17.433,52.761 3.227,71.639c20.661,18.879 52.761,17.433 71.64,-3.227c3.314,-3.626 8.6,-3.851 13.498,-4.946c14.784,-3.305 30.45,-4.475 43.941,-7.118c12.871,-2.522 25.296,-6.088 37.492,-10.916c3.68,-1.457 11.912,-4.309 15.806,-6.215c10.101,-4.943 15.988,-11.293 18.898,-14.955c17.476,-21.981 13.782,-42.56 3.071,-59.274c-4.275,-6.671 -13.432,-20.541 -37.875,-23.351c-12.477,-1.435 -24.425,1.79 -34.091,8.302Zm16.311,29.503c-2.581,0.948 -5.785,2.134 -7.179,2.686c-8.3,3.286 -16.763,5.69 -25.522,7.406c-17.186,3.367 -37.661,4.68 -55.894,10.126c-14.861,4.438 -28.33,11.46 -38.716,22.825c-6.469,7.079 -5.973,18.079 1.106,24.547c7.079,6.469 18.078,5.973 24.547,-1.106c7.903,-8.648 19.152,-12.379 30.832,-14.99c15.077,-3.371 31.047,-4.604 44.806,-7.3c10.858,-2.127 21.343,-5.124 31.631,-9.197c3.116,-1.234 10.125,-3.548 13.422,-5.162c3.95,-1.933 6.321,-4.327 7.459,-5.758c6.058,-7.62 4.811,-14.753 1.098,-20.547c-1.528,-2.384 -4.88,-7.215 -13.618,-8.22c-5.325,-0.612 -10.369,1.257 -13.972,4.69Z" style="fill:#7e4021;"/><path d="M1716.5,2018.68c18.749,3.533 36.999,2.044 57.631,12.312c8.585,4.273 19.024,0.772 23.297,-7.812c4.273,-8.585 0.772,-19.024 -7.813,-23.297c-23.955,-11.923 -44.911,-11.25 -66.68,-15.352c-9.424,-1.775 -18.516,4.434 -20.292,13.858c-1.776,9.423 4.433,18.516 13.857,20.291Z" style="fill:#fff;"/><path d="M1710.33,2051.44c15.857,2.988 31.5,0.712 48.95,9.397c25.055,12.47 55.521,2.253 67.991,-22.802c12.47,-25.055 2.253,-55.52 -22.802,-67.991c-27.147,-13.511 -50.69,-13.618 -75.36,-18.266c-27.503,-5.183 -54.039,12.938 -59.221,40.441c-5.182,27.503 12.939,54.039 40.442,59.221Zm6.172,-32.757c18.749,3.533 36.999,2.044 57.631,12.312c8.585,4.273 19.024,0.772 23.297,-7.812c4.273,-8.585 0.772,-19.024 -7.813,-23.297c-23.955,-11.923 -44.911,-11.25 -66.68,-15.352c-9.424,-1.775 -18.516,4.434 -20.292,13.858c-1.776,9.423 4.433,18.516 13.857,20.291Z" style="fill:#7e4021;"/><path d="M3218.72,3379.07c-3.75,-0.08 -8.804,-0.083 -10.903,0.325c-11.728,2.281 -22.974,7.19 -33.278,13.132c-27.981,16.135 -59.371,43.997 -70.85,74.716c-3.357,8.983 1.21,19.001 10.193,22.358c8.983,3.357 19.001,-1.211 22.358,-10.194c8.864,-23.72 34.052,-44.318 55.659,-56.777c6.837,-3.943 14.212,-7.402 21.977,-9.003c1.189,0.056 7.973,0.359 10.401,0.296c4.382,-0.115 7.544,-1.303 9.227,-2.166c7.901,-4.051 10.057,-10.443 9.64,-16.892c-0.193,-2.994 -0.87,-8.807 -8.004,-13.842c-4.969,-3.508 -11.152,-4.038 -16.42,-1.953Z" style="fill:#fff;"/><path d="M3214.01,3345.75c-4.961,0.098 -10.038,0.437 -12.553,0.926c-15.328,2.981 -30.1,9.21 -43.566,16.975c-34.102,19.665 -71.433,54.487 -85.424,91.924c-9.797,26.216 3.534,55.454 29.749,65.251c26.216,9.797 55.454,-3.533 65.251,-29.749c6.36,-17.018 25.585,-30.631 41.086,-39.57c2.871,-1.655 5.852,-3.301 9.001,-4.385c2.813,0.09 5.986,0.166 7.599,0.124c11.222,-0.294 19.254,-3.617 23.563,-5.826c22.76,-11.671 28.896,-30.126 27.695,-48.704c-0.541,-8.375 -2.089,-24.839 -22.046,-38.925c-12.181,-8.598 -26.859,-11.076 -40.355,-8.041Zm4.713,33.321c-3.75,-0.08 -8.804,-0.083 -10.903,0.325c-11.728,2.281 -22.974,7.19 -33.278,13.132c-27.981,16.135 -59.371,43.997 -70.85,74.716c-3.357,8.983 1.21,19.001 10.193,22.358c8.983,3.357 19.001,-1.211 22.358,-10.194c8.864,-23.72 34.052,-44.318 55.659,-56.777c6.837,-3.943 14.212,-7.402 21.977,-9.003c1.189,0.056 7.973,0.359 10.401,0.296c4.382,-0.115 7.544,-1.303 9.227,-2.166c7.901,-4.051 10.057,-10.443 9.64,-16.892c-0.193,-2.994 -0.87,-8.807 -8.004,-13.842c-4.969,-3.508 -11.152,-4.038 -16.42,-1.953Z" style="fill:#7e4021;"/><path d="M2235.91,1790.48c0.128,0.804 -0.446,8.141 -0.372,9.744c0.439,9.564 2.847,18.686 5.429,27.86c9.795,34.795 16.636,70.887 2.017,105.359c-3.744,8.829 0.384,19.036 9.212,22.78c8.829,3.744 19.036,-0.384 22.78,-9.213c17.804,-41.985 11.37,-85.965 -0.559,-128.342c-1.757,-6.242 -3.625,-12.406 -4.095,-18.876c0.421,-1.843 1.687,-7.568 1.742,-9.766c0.09,-3.606 -0.703,-6.592 -1.757,-8.893c-1.965,-4.291 -5.081,-7.304 -9.209,-9.153c-2.756,-1.235 -6.253,-2.09 -10.744,-1.379c-9.471,1.5 -15.943,10.407 -14.444,19.879Z" style="fill:#fff;"/><path d="M2202.54,1791.85c-0.12,2.69 -0.363,8.608 -0.303,9.895c0.557,12.124 3.368,23.733 6.641,35.362c7.75,27.532 14.982,56.036 3.415,83.313c-10.927,25.766 1.121,55.555 26.886,66.482c25.766,10.926 55.555,-1.121 66.482,-26.887c20.863,-49.197 14.817,-100.731 0.839,-150.388c-0.828,-2.944 -1.833,-5.831 -2.441,-8.799c0.649,-3.7 1.272,-7.843 1.325,-9.976c0.24,-9.582 -1.974,-17.496 -4.775,-23.609c-5.52,-12.053 -14.29,-20.498 -25.886,-25.692c-7.592,-3.402 -17.215,-5.841 -29.585,-3.882c-26.36,4.174 -44.759,28.007 -42.598,54.181Zm33.367,-1.379c0.128,0.804 -0.446,8.141 -0.372,9.744c0.439,9.564 2.847,18.686 5.429,27.86c9.795,34.795 16.636,70.887 2.017,105.359c-3.744,8.829 0.384,19.036 9.212,22.78c8.829,3.744 19.036,-0.384 22.78,-9.213c17.804,-41.985 11.37,-85.965 -0.559,-128.342c-1.757,-6.242 -3.625,-12.406 -4.095,-18.876c0.421,-1.843 1.687,-7.568 1.742,-9.766c0.09,-3.606 -0.703,-6.592 -1.757,-8.893c-1.965,-4.291 -5.081,-7.304 -9.209,-9.153c-2.756,-1.235 -6.253,-2.09 -10.744,-1.379c-9.471,1.5 -15.943,10.407 -14.444,19.879Z" style="fill:#7e4021;"/><path d="M2497.68,2195.47c-6.556,4.243 -9.634,12.559 -6.965,20.265c3.139,9.061 13.044,13.869 22.105,10.731c5.305,-1.838 11.869,-7.348 16.622,-16.394c5.547,-10.557 10.127,-27.128 11.763,-32.322c17.001,-53.976 3.427,-103.457 -41.994,-137.338c-7.687,-5.733 -18.583,-4.148 -24.316,3.539c-5.734,7.687 -4.148,18.582 3.539,24.316c32.696,24.389 41.865,60.189 29.627,99.043c-1.345,4.269 -9.19,25.018 -10.381,28.16Z" style="fill:#fff;"/><path d="M2469.29,2176.3c-11.81,13.273 -16.299,32.373 -10.075,50.34c9.16,26.445 38.067,40.478 64.512,31.318c10.874,-3.767 25.478,-13.847 35.219,-32.385c6.507,-12.382 12.131,-31.723 14.05,-37.814c21.57,-68.483 3.771,-131.084 -53.858,-174.071c-22.434,-16.733 -54.232,-12.105 -70.965,10.328c-16.733,22.433 -12.106,54.232 10.327,70.965c20.493,15.286 25.434,37.958 17.764,62.31c-0.835,2.653 -4.367,12.095 -6.974,19.009Zm28.387,19.165c-6.556,4.243 -9.634,12.559 -6.965,20.265c3.139,9.061 13.044,13.869 22.105,10.731c5.305,-1.838 11.869,-7.348 16.622,-16.394c5.547,-10.557 10.127,-27.128 11.763,-32.322c17.001,-53.976 3.427,-103.457 -41.994,-137.338c-7.687,-5.733 -18.583,-4.148 -24.316,3.539c-5.734,7.687 -4.148,18.582 3.539,24.316c32.696,24.389 41.865,60.189 29.627,99.043c-1.345,4.269 -9.19,25.018 -10.381,28.16Z" style="fill:#7e4021;"/><path d="M2592.49,1922.94c4.475,2.991 11.54,7.607 14.905,9.317c18.402,9.35 32.587,26.412 47.633,40.185c1.532,1.403 3.082,2.787 4.623,4.181c7.114,6.43 18.11,5.876 24.541,-1.238c6.431,-7.113 5.876,-18.109 -1.237,-24.54c-1.488,-1.345 -2.984,-2.68 -4.463,-4.035c-17.305,-15.841 -34.191,-34.779 -55.356,-45.533c-3.254,-1.654 -7.656,-5.137 -11.883,-7.895c-5.014,-3.271 -9.992,-5.744 -13.886,-6.749c-7.684,-1.984 -13.975,-0.227 -18.662,3.281c-3.374,2.525 -6.441,6.272 -7.883,12.252c-2.248,9.323 3.495,18.716 12.818,20.964c3.025,0.729 6.057,0.617 8.85,-0.19Z" style="fill:#fff;"/><path d="M2583.43,1956.77c3.457,2.162 6.759,4.133 8.864,5.203c15.756,8.005 27.343,23.263 40.225,35.055c1.584,1.45 3.185,2.881 4.778,4.321c20.76,18.768 52.853,17.15 71.621,-3.611c18.768,-20.761 17.15,-52.853 -3.611,-71.621c-1.436,-1.299 -2.881,-2.587 -4.309,-3.894c-19.473,-17.827 -38.945,-38.562 -62.763,-50.665c-2.436,-1.237 -5.605,-4.03 -8.77,-6.095c-8.519,-5.558 -17.15,-9.398 -23.765,-11.106c-19.386,-5.005 -35.147,0.02 -46.971,8.87c-8.607,6.443 -16.634,15.868 -20.313,31.125c-6.56,27.207 10.202,54.621 37.409,61.182c2.539,0.612 5.08,1.02 7.605,1.236Zm9.059,-33.831c4.475,2.991 11.54,7.607 14.905,9.317c18.402,9.35 32.587,26.412 47.633,40.185c1.532,1.403 3.082,2.787 4.623,4.181c7.114,6.43 18.11,5.876 24.541,-1.238c6.431,-7.113 5.876,-18.109 -1.237,-24.54c-1.488,-1.345 -2.984,-2.68 -4.463,-4.035c-17.305,-15.841 -34.191,-34.779 -55.356,-45.533c-3.254,-1.654 -7.656,-5.137 -11.883,-7.895c-5.014,-3.271 -9.992,-5.744 -13.886,-6.749c-7.684,-1.984 -13.975,-0.227 -18.662,3.281c-3.374,2.525 -6.441,6.272 -7.883,12.252c-2.248,9.323 3.495,18.716 12.818,20.964c3.025,0.729 6.057,0.617 8.85,-0.19Z" style="fill:#7e4021;"/><path d="M2498.33,1297.25c3.504,-4.085 8.932,-10.548 11.032,-13.684c11.483,-17.152 30.119,-29.195 45.592,-42.486c1.577,-1.354 3.136,-2.727 4.704,-4.091c7.235,-6.293 7.999,-17.277 1.706,-24.512c-6.294,-7.236 -17.278,-8 -24.513,-1.706c-1.513,1.316 -3.018,2.642 -4.539,3.948c-17.797,15.287 -38.618,29.787 -51.826,49.515c-2.031,3.033 -6.015,6.986 -9.259,10.854c-3.847,4.587 -6.897,9.233 -8.36,12.978c-2.889,7.393 -1.897,13.849 1.025,18.921c2.104,3.652 5.457,7.145 11.223,9.292c8.986,3.346 18.999,-1.233 22.345,-10.22c1.086,-2.916 1.338,-5.94 0.87,-8.809Z" style="fill:#fff;"/><path d="M2530.84,1310.29c2.56,-3.174 4.912,-6.217 6.226,-8.178c9.831,-14.686 26.365,-24.366 39.613,-35.745c1.629,-1.399 3.241,-2.818 4.861,-4.227c21.115,-18.368 23.346,-50.424 4.978,-71.539c-18.367,-21.116 -50.423,-23.347 -71.539,-4.979c-1.461,1.27 -2.913,2.551 -4.381,3.812c-20.028,17.203 -42.942,34.056 -57.805,56.256c-1.521,2.271 -4.672,5.083 -7.1,7.978c-6.537,7.794 -11.382,15.903 -13.868,22.267c-7.288,18.648 -4.183,34.898 3.19,47.694c5.367,9.316 13.765,18.413 28.473,23.889c26.227,9.766 55.449,-3.598 65.215,-29.826c0.912,-2.447 1.621,-4.921 2.137,-7.402Zm-32.505,-13.039c3.504,-4.085 8.932,-10.548 11.032,-13.684c11.483,-17.152 30.119,-29.195 45.592,-42.486c1.577,-1.354 3.136,-2.727 4.704,-4.091c7.235,-6.293 7.999,-17.277 1.706,-24.512c-6.294,-7.236 -17.278,-8 -24.513,-1.706c-1.513,1.316 -3.018,2.642 -4.539,3.948c-17.797,15.287 -38.618,29.787 -51.826,49.515c-2.031,3.033 -6.015,6.986 -9.259,10.854c-3.847,4.587 -6.897,9.233 -8.36,12.978c-2.889,7.393 -1.897,13.849 1.025,18.921c2.104,3.652 5.457,7.145 11.223,9.292c8.986,3.346 18.999,-1.233 22.345,-10.22c1.086,-2.916 1.338,-5.94 0.87,-8.809Z" style="fill:#7e4021;"/><path d="M2682.79,1626.56c12.597,17.289 27.072,28.135 44.752,40.571c7.524,5.292 17.928,3.48 23.22,-4.044c5.293,-7.524 3.481,-17.929 -4.043,-23.221c-14.496,-10.196 -26.66,-18.76 -36.988,-32.934c-5.416,-7.435 -15.85,-9.073 -23.285,-3.657c-7.434,5.417 -9.072,15.851 -3.656,23.285Z" style="fill:#7e4021;"/><path d="M2500.96,1814.1c-0.347,-0.54 -0.732,-1.063 -1.153,-1.569c-5.88,-7.074 -16.397,-8.042 -23.47,-2.162c-5.107,4.246 -6.559,8.9 -6.922,12.741c-0.368,3.887 0.433,7.721 2.739,11.378c1.56,2.475 4.315,5.378 8.64,7.612c4.05,2.092 12.232,3.761 15.963,5.817c8.056,4.44 18.202,1.504 22.641,-6.552c4.44,-8.057 1.504,-18.202 -6.552,-22.642c-2.313,-1.274 -7.821,-3.244 -11.886,-4.623Zm0.629,17.123c-0.971,1.778 -2.291,3.405 -3.943,4.779c1.873,-1.557 3.133,-3.166 3.943,-4.779Z" style="fill:#7e4021;"/><path d="M2849.89,1730.35c-5.699,4.732 -19.781,14.979 -23.259,16.303c-23.846,9.083 -51.844,8.769 -76.945,6.268c-9.542,-0.951 -18.062,6.024 -19.013,15.566c-0.95,9.542 6.025,18.061 15.567,19.012c30.283,3.018 63.99,2.586 92.759,-8.372c5.956,-2.268 33.577,-21.751 37.476,-26.113c7.681,-8.592 4.421,-16.914 3.1,-19.688c-1.924,-4.041 -5.145,-7.506 -10.667,-9.199c-7.206,-2.208 -14.755,0.508 -19.018,6.223Z" style="fill:#fff;"/><path d="M2812.7,1716.25c-18.668,6.46 -40.292,5.434 -59.703,3.5c-27.848,-2.776 -52.711,17.581 -55.487,45.429c-2.775,27.849 17.581,52.712 45.43,55.487c35.255,3.514 74.437,2.366 107.93,-10.39c8.011,-3.051 45.218,-29.182 50.462,-35.049c21.908,-24.507 12.113,-48.318 8.346,-56.232c-5.591,-11.743 -14.946,-21.82 -30.996,-26.74c-19.179,-5.878 -39.192,0.198 -52.004,13.965l0.001,-0.002c-4.23,3.227 -11.621,8.395 -13.979,10.032Zm37.196,14.098c-5.699,4.732 -19.781,14.979 -23.259,16.303c-23.846,9.083 -51.844,8.769 -76.945,6.268c-9.542,-0.951 -18.062,6.024 -19.013,15.566c-0.95,9.542 6.025,18.061 15.567,19.012c30.283,3.018 63.99,2.586 92.759,-8.372c5.956,-2.268 33.577,-21.751 37.476,-26.113c7.681,-8.592 4.421,-16.914 3.1,-19.688c-1.924,-4.041 -5.145,-7.506 -10.667,-9.199c-7.206,-2.208 -14.755,0.508 -19.018,6.223Z" style="fill:#7e4021;"/><path d="M1256.6,956.144c-1.839,-1.315 -3.966,-2.291 -6.311,-2.814c-17.18,-3.836 -21.524,11.646 -21.838,13.065c-0.59,2.673 -2.396,12.544 8.293,18.847c1.263,0.745 10.955,3.984 14.127,6.285c6.481,4.7 12.076,10.538 17.052,16.785c19.146,24.035 34.861,52.812 45.492,81.555c3.326,8.994 13.329,13.595 22.323,10.269c8.994,-3.327 13.596,-13.329 10.269,-22.324c-11.885,-32.133 -29.499,-64.281 -50.903,-91.151c-6.927,-8.696 -14.811,-16.723 -23.832,-23.265c-2.642,-1.916 -10.304,-5.358 -14.672,-7.252Z" style="fill:#fff;"/><path d="M1232.75,1019.61c3.421,2.74 6.377,6.041 9.106,9.467c16.978,21.314 30.873,46.859 40.3,72.349c9.708,26.248 38.901,39.677 65.15,29.969c26.249,-9.708 39.678,-38.9 29.97,-65.149c-13.088,-35.387 -32.524,-70.768 -56.095,-100.357c-8.798,-11.045 -18.877,-21.172 -30.334,-29.481c-3.331,-2.416 -12.044,-6.805 -18.396,-9.699c-4.504,-2.683 -9.501,-4.712 -14.894,-5.916c-14.135,-3.156 -25.039,-0.768 -33.49,3.141c-20.895,9.664 -27.522,32.38 -28.159,35.267c-1.714,7.757 -7.104,36.463 23.91,54.75c1.019,0.601 10.029,4.432 12.932,5.659Zm23.855,-63.47c-1.839,-1.315 -3.966,-2.291 -6.311,-2.814c-17.18,-3.836 -21.524,11.646 -21.838,13.065c-0.59,2.673 -2.396,12.544 8.293,18.847c1.263,0.745 10.955,3.984 14.127,6.285c6.481,4.7 12.076,10.538 17.052,16.785c19.146,24.035 34.861,52.812 45.492,81.555c3.326,8.994 13.329,13.595 22.323,10.269c8.994,-3.327 13.596,-13.329 10.269,-22.324c-11.885,-32.133 -29.499,-64.281 -50.903,-91.151c-6.927,-8.696 -14.811,-16.723 -23.832,-23.265c-2.642,-1.916 -10.304,-5.358 -14.672,-7.252Z" style="fill:#7e4021;"/><path d="M3072.25,2265.41c-26.505,3.621 -53.812,12.064 -81.327,18.837c-24.837,6.113 -49.85,10.915 -74.588,7.893c-9.518,-1.163 -18.19,5.621 -19.353,15.14c-1.163,9.518 5.621,18.19 15.139,19.353c28.871,3.527 58.12,-1.509 87.106,-8.644c26.308,-6.475 52.385,-14.687 77.727,-18.149c9.501,-1.298 16.161,-10.066 14.863,-19.567c-1.298,-9.501 -10.066,-16.161 -19.567,-14.863Z" style="fill:#fff;"/><path d="M3067.74,2232.38c-27.621,3.773 -56.108,12.438 -84.782,19.495c-20.858,5.134 -41.804,9.711 -62.579,7.174c-27.78,-3.394 -53.089,16.404 -56.483,44.185c-3.393,27.78 16.405,53.089 44.185,56.483c32.835,4.011 66.148,-1.25 99.115,-9.364c25.15,-6.19 50.045,-14.18 74.272,-17.49c27.729,-3.789 47.166,-29.377 43.378,-57.106c-3.789,-27.729 -29.377,-47.166 -57.106,-43.377Zm4.512,33.026c-26.505,3.621 -53.812,12.064 -81.327,18.837c-24.837,6.113 -49.85,10.915 -74.588,7.893c-9.518,-1.163 -18.19,5.621 -19.353,15.14c-1.163,9.518 5.621,18.19 15.139,19.353c28.871,3.527 58.12,-1.509 87.106,-8.644c26.308,-6.475 52.385,-14.687 77.727,-18.149c9.501,-1.298 16.161,-10.066 14.863,-19.567c-1.298,-9.501 -10.066,-16.161 -19.567,-14.863Z" style="fill:#7e4021;"/><path d="M3065.53,2431.77c-1.305,-5.897 -5.655,-10.946 -11.833,-12.854c-9.163,-2.83 -18.899,2.311 -21.729,11.473c-0.159,0.515 -1.691,4.979 0.45,11.936c2.732,8.881 17.445,50.933 18.651,58.201c1.569,9.46 10.524,15.866 19.984,14.297c9.46,-1.569 15.866,-10.524 14.297,-19.984c-1.297,-7.821 -16.779,-53.177 -19.719,-62.733l-0.101,-0.336Z" style="fill:#fff;"/><path d="M3097.64,2422.79c-4.268,-16.439 -16.709,-30.342 -34.111,-35.717c-26.74,-8.259 -55.155,6.745 -63.415,33.485c-0.421,1.362 -5.219,13.183 0.439,31.575c2.533,8.234 16.509,47.115 17.627,53.854c4.58,27.609 30.714,46.306 58.323,41.726c27.609,-4.58 46.306,-30.714 41.726,-58.323c-1.365,-8.226 -17.124,-55.44 -20.589,-66.6Zm-23.915,34.108c-3.573,-10.913 -6.892,-20.864 -8.099,-24.786l-0.101,-0.336c-1.305,-5.897 -5.655,-10.946 -11.833,-12.854c-9.163,-2.83 -18.899,2.311 -21.729,11.473c-0.159,0.515 -1.691,4.979 0.45,11.936c2.732,8.881 17.445,50.933 18.651,58.201c1.569,9.46 10.524,15.866 19.984,14.297c9.46,-1.569 15.866,-10.524 14.297,-19.984c-0.654,-3.944 -4.916,-17.434 -9.357,-31.062c6.506,-2.117 12.284,-6.226 16.451,-11.867c5.819,-7.879 7.856,-17.883 5.63,-27.345l0.001,-0.001l-0.244,-1.025l0.243,1.026l-0.987,1.23c-2.604,7.75 -14.914,21.974 -23.357,31.097Z" style="fill:#7e4021;"/><path d="M2279.6,1221.6c-0.915,4.142 -2.329,10.45 -2.986,13.01c-3.251,12.672 -8.273,22.039 -17.917,31.029c-33.219,30.964 -58.297,30.235 -100.567,23.149c-9.457,-1.585 -18.423,4.807 -20.008,14.264c-1.585,9.458 4.806,18.423 14.264,20.008c54.84,9.192 86.907,8.171 130.005,-32.001c14.898,-13.887 22.86,-28.238 27.883,-47.812c1.145,-4.464 3.624,-14.577 4.432,-19.588c0.567,-3.52 0.461,-6.17 0.297,-7.43c-1.281,-9.87 -7.895,-13.195 -11.868,-14.517c-2.497,-0.83 -14.667,-4.447 -21.835,9.797c-1.629,3.238 -2.149,6.746 -1.7,10.091Z" style="fill:#fff;"/><path d="M2246.11,1218.62c-0.675,3.021 -1.384,6.128 -1.787,7.697c-1.553,6.051 -3.752,10.638 -8.358,14.931c-23.756,22.143 -42.1,19.725 -72.329,14.658c-27.601,-4.627 -53.766,14.026 -58.393,41.628c-4.626,27.601 14.027,53.767 41.628,58.393c66.907,11.215 105.664,8.517 158.244,-40.493c19.937,-18.584 30.72,-37.714 37.442,-63.91c1.319,-5.14 4.123,-16.796 5.053,-22.567c1.3,-8.064 0.82,-14.142 0.445,-17.027c-3.702,-28.52 -22.923,-38.036 -34.402,-41.855c-4.307,-1.433 -18.627,-5.305 -33.845,0.317c-9.654,3.566 -20.445,10.539 -28.288,26.127c-3.574,7.102 -5.316,14.649 -5.41,22.105l0,-0.004Zm33.486,2.972c-0.915,4.142 -2.329,10.45 -2.986,13.01c-3.251,12.672 -8.273,22.039 -17.917,31.029c-33.219,30.964 -58.297,30.235 -100.567,23.149c-9.457,-1.585 -18.423,4.807 -20.008,14.264c-1.585,9.458 4.806,18.423 14.264,20.008c54.84,9.192 86.907,8.171 130.005,-32.001c14.898,-13.887 22.86,-28.238 27.883,-47.812c1.145,-4.464 3.624,-14.577 4.432,-19.588c0.567,-3.52 0.461,-6.17 0.297,-7.43c-1.281,-9.87 -7.895,-13.195 -11.868,-14.517c-2.497,-0.83 -14.667,-4.447 -21.835,9.797c-1.629,3.238 -2.149,6.746 -1.7,10.091Z" style="fill:#7e4021;"/><path d="M2229.2,1009.42c-6.711,13.243 -21.682,19.207 -33.115,26.463c-15.274,9.694 -26.227,20.998 -28.224,36.464c-1.732,13.406 3.509,32.497 26.665,59.653c6.222,7.297 17.198,8.169 24.495,1.947c7.297,-6.222 8.169,-17.197 1.947,-24.494c-8.955,-10.502 -14.559,-18.82 -17.271,-25.809c-1.252,-3.227 -1.941,-5.708 -1.124,-7.844c1.006,-2.628 3.411,-4.417 5.963,-6.357c4.911,-3.735 10.857,-7.079 16.819,-10.748c13.779,-8.479 27.249,-18.583 34.842,-33.567c4.335,-8.554 0.91,-19.018 -7.644,-23.353c-8.554,-4.334 -19.018,-0.909 -23.353,7.645Z" style="fill:#fff;"/><path d="M2244.72,1085.9c18.217,-11.447 35.134,-25.805 45.217,-45.702c12.651,-24.964 2.654,-55.502 -22.311,-68.153c-24.964,-12.651 -55.502,-2.654 -68.153,22.31c-1.195,2.358 -3.949,3.132 -6.152,4.484c-5.097,3.128 -10.383,5.915 -15.092,8.903c-24.624,15.627 -40.201,35.405 -43.421,60.338c-2.443,18.915 1.688,47.236 34.36,85.551c18.159,21.296 50.191,23.842 71.487,5.683c21.296,-18.159 23.842,-50.191 5.683,-71.486l-1.618,-1.928Zm-15.514,-76.477c-6.711,13.243 -21.682,19.207 -33.115,26.463c-15.274,9.694 -26.227,20.998 -28.224,36.464c-1.732,13.406 3.509,32.497 26.665,59.653c6.222,7.297 17.198,8.169 24.495,1.947c7.297,-6.222 8.169,-17.197 1.947,-24.494c-8.955,-10.502 -14.559,-18.82 -17.271,-25.809c-1.252,-3.227 -1.941,-5.708 -1.124,-7.844c1.006,-2.628 3.411,-4.417 5.963,-6.357c4.911,-3.735 10.857,-7.079 16.819,-10.748c13.779,-8.479 27.249,-18.583 34.842,-33.567c4.335,-8.554 0.91,-19.018 -7.644,-23.353c-8.554,-4.334 -19.018,-0.909 -23.353,7.645Z" style="fill:#7e4021;"/><path d="M1114.97,1223.57c-3.747,0.958 -9.387,2.322 -11.753,2.552c-13.066,1.269 -26.299,-2.56 -39.022,-5.121c-25.058,-5.043 -58.424,-15.572 -88.089,-14.968c-24.101,0.49 -45.949,7.825 -61.803,26.935c-6.123,7.38 -5.102,18.343 2.279,24.466c7.38,6.123 18.343,5.102 24.466,-2.278c11.798,-14.222 29.836,-15.55 48.307,-13.898c23.731,2.121 48.519,9.893 67.984,13.81c16.021,3.225 32.784,7.239 49.237,5.641c7.365,-0.715 25.821,-5.967 28.253,-7.488c9.029,-5.649 8.732,-13.662 8.161,-17.498c-0.345,-2.32 -2.931,-15.833 -19.524,-14.925c-3.139,0.172 -6.038,1.168 -8.496,2.772Z" style="fill:#fff;"/><path d="M1099.39,1192.98c-9.618,0.761 -19.245,-2.779 -28.612,-4.664c-27.095,-5.453 -63.268,-16.27 -95.344,-15.617c-34.009,0.693 -64.408,12.014 -86.779,38.979c-17.869,21.539 -14.89,53.534 6.649,71.403c21.54,17.87 53.535,14.89 71.404,-6.649c1.387,-1.672 3.499,-1.791 5.521,-2.064c4.513,-0.609 9.316,-0.35 14.164,0.083c22.486,2.011 45.931,9.576 64.375,13.288c19.188,3.862 39.331,8.054 59.036,6.141c11.208,-1.089 39.011,-10.093 42.712,-12.408c26.107,-16.335 25.101,-39.572 23.45,-50.663c-0.594,-3.99 -3.772,-19.389 -16.277,-30.622c-8.009,-7.195 -19.758,-13.68 -38.038,-12.679c-6.633,0.363 -12.898,1.991 -18.578,4.634l0.001,-0.001l-3.684,0.839Zm15.586,30.583c-3.747,0.958 -9.387,2.322 -11.753,2.552c-13.066,1.269 -26.299,-2.56 -39.022,-5.121c-25.058,-5.043 -58.424,-15.572 -88.089,-14.968c-24.101,0.49 -45.949,7.825 -61.803,26.935c-6.123,7.38 -5.102,18.343 2.279,24.466c7.38,6.123 18.343,5.102 24.466,-2.278c11.798,-14.222 29.836,-15.55 48.307,-13.898c23.731,2.121 48.519,9.893 67.984,13.81c16.021,3.225 32.784,7.239 49.237,5.641c7.365,-0.715 25.821,-5.967 28.253,-7.488c9.029,-5.649 8.732,-13.662 8.161,-17.498c-0.345,-2.32 -2.931,-15.833 -19.524,-14.925c-3.139,0.172 -6.038,1.168 -8.496,2.772Z" style="fill:#7e4021;"/><path d="M2648.37,2695.42c-3.612,-1.381 -9.005,-3.524 -11.069,-4.703c-11.4,-6.508 -19.993,-17.276 -28.902,-26.713c-17.546,-18.588 -38.706,-46.451 -63.274,-63.088c-19.96,-13.517 -42.033,-20.145 -66.011,-13.698c-9.261,2.49 -14.758,12.03 -12.268,21.291c2.49,9.26 12.03,14.757 21.29,12.267c17.845,-4.797 33.338,4.534 47.465,16.549c18.15,15.436 33.899,36.094 47.529,50.533c11.218,11.884 22.585,24.841 36.94,33.037c6.427,3.669 24.528,10.039 27.392,10.201c10.633,0.602 15.018,-6.112 16.766,-9.573c1.058,-2.093 6.75,-14.619 -7.321,-23.459c-2.662,-1.672 -5.604,-2.533 -8.537,-2.644Z" style="fill:#fff;"/><path d="M2653.31,2661.45c-8.292,-4.933 -14.108,-13.382 -20.666,-20.33c-18.973,-20.098 -42.258,-49.817 -68.824,-67.807c-28.165,-19.073 -59.521,-27.384 -93.356,-18.287c-27.027,7.267 -43.07,35.108 -35.803,62.135c7.266,27.027 35.108,43.07 62.135,35.804c2.098,-0.565 3.891,0.558 5.699,1.503c4.036,2.109 7.808,5.093 11.516,8.247c17.197,14.626 31.97,34.341 44.884,48.022c13.436,14.233 27.46,29.287 44.653,39.103c9.779,5.584 37.678,14.288 42.036,14.534c30.746,1.74 43.344,-17.812 48.401,-27.82c1.819,-3.601 8.116,-18.009 4.393,-34.401c-2.384,-10.498 -8.232,-22.577 -23.734,-32.316c-5.624,-3.534 -11.68,-5.822 -17.842,-6.945l0.001,0l-3.493,-1.442Zm-4.935,33.968c-3.612,-1.381 -9.005,-3.524 -11.069,-4.703c-11.4,-6.508 -19.993,-17.276 -28.902,-26.713c-17.546,-18.588 -38.706,-46.451 -63.274,-63.088c-19.96,-13.517 -42.033,-20.145 -66.011,-13.698c-9.261,2.49 -14.758,12.03 -12.268,21.291c2.49,9.26 12.03,14.757 21.29,12.267c17.845,-4.797 33.338,4.534 47.465,16.549c18.15,15.436 33.899,36.094 47.529,50.533c11.218,11.884 22.585,24.841 36.94,33.037c6.427,3.669 24.528,10.039 27.392,10.201c10.633,0.602 15.018,-6.112 16.766,-9.573c1.058,-2.093 6.75,-14.619 -7.321,-23.459c-2.662,-1.672 -5.604,-2.533 -8.537,-2.644Z" style="fill:#7e4021;"/><path d="M1442.82,709.818c-1.319,2.791 -3.774,7.743 -6.109,11.226c-12.089,18.033 -31.767,38.554 -35.39,42.679c-6.327,7.206 -5.614,18.193 1.592,24.521c7.206,6.327 18.193,5.614 24.52,-1.592c5.494,-6.257 42.595,-46.311 49.354,-67.895c4.334,-13.841 0.319,-24.127 -7.854,-30.167c-7.711,-5.7 -18.6,-4.067 -24.3,3.645c-3.893,5.267 -4.365,12.018 -1.813,17.583Z" style="fill:#fff;"/><path d="M1407.92,704.072c-11.198,16.222 -28.419,33.975 -31.652,37.657c-18.466,21.03 -16.385,53.096 4.645,71.562c21.03,18.466 53.095,16.385 71.562,-4.645c6.392,-7.28 48.252,-54.815 56.116,-79.927c9.707,-30.999 -1.547,-53.406 -19.851,-66.935c-22.506,-16.635 -54.283,-11.869 -70.919,10.637c-7.028,9.51 -10.241,20.674 -9.901,31.651Zm34.894,5.746c-1.319,2.791 -3.774,7.743 -6.109,11.226c-12.089,18.033 -31.767,38.554 -35.39,42.679c-6.327,7.206 -5.614,18.193 1.592,24.521c7.206,6.327 18.193,5.614 24.52,-1.592c5.494,-6.257 42.595,-46.311 49.354,-67.895c4.334,-13.841 0.319,-24.127 -7.854,-30.167c-7.711,-5.7 -18.6,-4.067 -24.3,3.645c-3.893,5.267 -4.365,12.018 -1.813,17.583Z" style="fill:#7e4021;"/><path d="M1579.81,1372.65c37.044,-9.019 85.464,-36.795 134.941,-46.393c9.414,-1.826 15.574,-10.952 13.748,-20.366c-1.827,-9.414 -10.952,-15.574 -20.366,-13.748c-50.042,9.708 -99.077,37.621 -136.544,46.744c-9.317,2.268 -15.04,11.675 -12.772,20.992c2.269,9.317 11.675,15.04 20.993,12.771Z" style="fill:#fff;"/><path d="M1587.7,1405.04c36.639,-8.921 84.469,-36.565 133.404,-46.058c27.474,-5.33 45.453,-31.963 40.123,-59.437c-5.33,-27.475 -31.963,-45.453 -59.438,-40.123c-50.583,9.813 -100.207,37.858 -138.081,47.08c-27.192,6.62 -43.893,34.072 -37.273,61.265c6.621,27.192 34.073,43.893 61.265,37.273Zm-7.885,-32.388c37.044,-9.019 85.464,-36.795 134.941,-46.393c9.414,-1.826 15.574,-10.952 13.748,-20.366c-1.827,-9.414 -10.952,-15.574 -20.366,-13.748c-50.042,9.708 -99.077,37.621 -136.544,46.744c-9.317,2.268 -15.04,11.675 -12.772,20.992c2.269,9.317 11.675,15.04 20.993,12.771Z" style="fill:#7e4021;"/></g></svg>