<?xml version="1.0" encoding="UTF-8" standalone="no"?><!DOCTYPE svg PUBLIC "-//W3C//DTD SVG 1.1//EN" "http://www.w3.org/Graphics/SVG/1.1/DTD/svg11.dtd"><svg width="100%" height="100%" viewBox="0 0 4485 4094" version="1.1" xmlns="http://www.w3.org/2000/svg" xmlns:xlink="http://www.w3.org/1999/xlink" xml:space="preserve" xmlns:serif="http://www.serif.com/" style="fill-rule:evenodd;clip-rule:evenodd;stroke-linejoin:round;stroke-miterlimit:2;"><g id="Pizza"><path d="M2093.03,1402.74c-174.437,113.252 -1675.05,937.673 -1897.23,1054.55c-122.815,64.609 -173.354,100.972 -166.537,114.606c37.549,75.098 2361.75,1189.79 2391.34,1180.58c82.083,-25.537 263.461,-147.162 332.913,-195.134c196.252,-135.555 1395.7,-957.975 1479.39,-1024.2c1.973,-18.302 -130.916,-254.37 -236.874,-366.607c-29.452,-31.198 -48.081,-33.216 -301.911,-143.639c-165.669,-72.071 -332.318,-142.148 -500.955,-206.978c-343.944,-132.226 -751.319,-294.931 -1100.14,-413.177Z" style="fill:#ca9878;"/><path d="M2098.38,1386.96c-4.832,-1.638 -10.148,-0.973 -14.427,1.805c-174.314,113.173 -1673.89,936.984 -1895.91,1053.78c-88.144,46.369 -139.794,78.845 -160.564,98.774c-7.625,7.317 -11.889,13.798 -13.777,18.848c-2.797,7.486 -2.006,13.864 0.656,19.188c2.346,4.693 10.748,13.411 26.154,24.03c27.888,19.222 81.941,50.339 155.702,90.204c417.475,225.631 1471.62,735.434 1960.93,961.98c122.843,56.876 210.246,95.947 243.334,108.364c8.405,3.154 14.121,4.727 16.817,5.079c3.81,0.499 6.554,-0.086 8.262,-0.617c83.15,-25.869 267.08,-148.74 337.434,-197.335c196.37,-135.637 1396.52,-958.579 1480.26,-1024.85c3.505,-2.774 5.749,-6.839 6.228,-11.284c0.261,-2.418 0.059,-6.663 -1.742,-12.372c-2.064,-6.544 -6.711,-17.303 -13.602,-31.199c-36.848,-74.298 -140.172,-245.37 -225.98,-336.263c-13.011,-13.783 -24.025,-22.529 -50.601,-35.724c-36.203,-17.974 -104.024,-45.304 -256.781,-111.757c-165.89,-72.167 -332.762,-142.335 -501.623,-207.252c-344.141,-132.301 -751.75,-295.091 -1100.77,-413.404Zm-3.12,34.143c346.936,117.957 750.672,279.181 1091.93,410.375c168.412,64.744 334.838,134.729 500.287,206.704c126.781,55.153 194.825,83.231 234.85,101.419c36.817,16.73 48.059,24.045 61.59,38.378c83.725,88.686 184.404,255.697 220.356,328.191c3.673,7.406 7.047,15.303 9.279,20.763c-137.694,102.571 -1278.59,884.833 -1469.51,1016.7c-67.473,46.605 -241.787,163.966 -324.517,191.68c-23.492,-7.36 -114.593,-48.049 -248.382,-109.992c-488.848,-226.332 -1542.01,-735.638 -1959.09,-961.056c-72.287,-39.068 -125.303,-69.488 -152.634,-88.326c-4.023,-2.773 -7.887,-5.803 -10.786,-8.179c2.76,-2.907 6.81,-6.895 11.249,-10.397c24.427,-19.268 71.303,-47.248 143.67,-85.318c219.67,-115.561 1688.17,-922.318 1891.7,-1050.94Z" style="fill:#7e4021;"/><path d="M2093.03,1402.74c-174.437,113.252 -1675.05,937.673 -1897.23,1054.55c-122.815,64.609 -173.354,100.972 -166.537,114.606c7.467,14.934 105.352,70.974 257.633,151.111c705.633,-412.987 1790.58,-1027.76 1790.58,-1027.76c0,0 2109.98,873.857 2155.43,837.893c1.973,-18.302 -130.916,-254.37 -236.874,-366.607c-29.452,-31.198 -48.081,-33.216 -301.911,-143.639c-165.669,-72.071 -332.318,-142.148 -500.955,-206.978c-343.944,-132.226 -751.319,-294.931 -1100.14,-413.177Z" style="fill:#c48464;"/><path d="M2098.38,1386.96c-4.832,-1.638 -10.148,-0.973 -14.427,1.805c-174.314,113.173 -1673.89,936.984 -1895.91,1053.78c-88.144,46.369 -139.794,78.845 -160.564,98.774c-7.625,7.317 -11.889,13.798 -13.777,18.848c-2.797,7.486 -2.006,13.864 0.656,19.188c1.267,2.534 3.658,5.904 7.637,9.67c5.385,5.096 14.911,12.183 28.338,20.924c41.175,26.804 121.575,71.384 228.803,127.812c5.095,2.681 11.212,2.543 16.181,-0.365c672.305,-393.48 1688.98,-970.16 1783.31,-1023.64c122.962,50.864 1717.31,709.634 2077.99,820.591c35.764,11.002 60.316,16.563 71.163,16.539c7.734,-0.018 12.694,-2.476 15.476,-4.677c3.505,-2.774 5.749,-6.839 6.228,-11.284c0.261,-2.418 0.059,-6.663 -1.742,-12.372c-2.064,-6.544 -6.711,-17.303 -13.602,-31.199c-36.848,-74.298 -140.172,-245.37 -225.98,-336.263c-13.011,-13.783 -24.025,-22.529 -50.601,-35.724c-36.203,-17.974 -104.024,-45.304 -256.781,-111.757c-165.89,-72.167 -332.762,-142.335 -501.623,-207.252c-344.141,-132.301 -751.75,-295.091 -1100.77,-413.404Zm-3.12,34.143c346.936,117.957 750.672,279.181 1091.93,410.375c168.412,64.744 334.838,134.729 500.287,206.704c126.781,55.153 194.825,83.231 234.85,101.419c36.817,16.73 48.059,24.045 61.59,38.378c83.725,88.686 184.404,255.697 220.356,328.191c0.931,1.876 1.842,3.783 2.718,5.676c-36.929,-10.403 -118.878,-34.492 -209.993,-67.691c-563.228,-205.222 -1913.14,-764.301 -1913.14,-764.301c-4.744,-1.965 -10.128,-1.634 -14.594,0.897c-0,0 -1076.91,610.222 -1782.79,1023.2c-101.874,-53.72 -178.319,-96.135 -217.955,-121.937c-7.848,-5.108 -15.131,-10.666 -19.773,-14.36c2.758,-2.897 6.763,-6.831 11.147,-10.29c24.427,-19.268 71.303,-47.248 143.67,-85.318c219.67,-115.561 1688.17,-922.318 1891.7,-1050.94Z" style="fill:#7e4021;"/><path d="M2062.87,1689.85c-1.051,4.752 -0.019,9.921 3.258,14.013c6.464,8.074 13.641,6.979 17.748,5.846c3.99,-1.1 9.52,-3.851 11.768,-11.759c0.347,-1.221 0.75,-3.279 0.731,-5.935c-0.016,-2.159 -0.522,-6.173 -0.5,-8.222c0.07,-6.397 0.134,-12.795 0.203,-19.193c0.219,-20.387 0.523,-40.768 0.722,-61.157c0.628,-64.453 0.05,-128.588 -1.195,-192.967c-0.178,-9.196 -7.789,-16.519 -16.986,-16.341c-9.197,0.178 -16.519,7.789 -16.341,16.986c1.239,64.055 1.815,127.869 1.19,191.997c-0.199,20.378 -0.503,40.748 -0.721,61.124c-0.069,6.395 -0.133,12.79 -0.203,19.185c-0.015,1.327 0.172,4.297 0.326,6.423Zm16.69,-13.059c4.74,0.12 9.395,2.251 12.588,6.238c-4.249,-5.306 -8.843,-6.416 -12.588,-6.238Z" style="fill:#7e4021;"/><path d="M2420.61,3752.48c-6.257,71.354 -31.073,116.579 -2.411,324.232c-421.301,-206.82 -2213.49,-1043.36 -2368.45,-1218.95c-58.618,-66.421 -21.77,-288.429 -20.487,-285.864c37.549,75.098 2361.75,1189.79 2391.34,1180.58Z" style="fill:#f0d4c4;"/><path d="M2421.28,3735.84l-0.499,-0.133c-21.324,-6.222 -113.323,-47.27 -249.634,-110.381c-488.848,-226.332 -1542.01,-735.638 -1959.09,-961.056c-72.287,-39.068 -125.303,-69.488 -152.634,-88.326c-7.753,-5.344 -14.916,-11.644 -15.726,-12.362c-3.044,-5.427 -7.473,-7.292 -11.17,-8.036c-4.267,-0.859 -9.646,-0.642 -14.816,4.285c-0.493,0.471 -4.399,5.043 -6.165,14.65c-4.581,24.922 -18.242,125.835 -7.497,205.18c4.993,36.872 15.59,69.181 33.201,89.137c46.964,53.215 242.402,167.159 505.031,305.358c606.731,319.271 1573.59,772.715 1868.57,917.522c5.532,2.716 12.112,2.157 17.107,-1.453c4.995,-3.61 7.59,-9.682 6.748,-15.787c-28.332,-205.262 -3.681,-249.965 2.504,-320.497c0.485,-5.534 -1.819,-10.947 -6.145,-14.433c-2.821,-2.273 -6.26,-3.532 -9.783,-3.668Zm-2380.47,-1132.24c27.975,19.24 81.904,50.277 155.4,89.998c417.475,225.631 1471.62,735.434 1960.93,961.98c122.843,56.876 210.246,95.947 243.334,108.364l2.083,0.764c-7.453,61.534 -25.844,112.003 -4.9,283.422c-323.781,-157.785 -1251.32,-593.772 -1839.85,-903.466c-257.31,-135.4 -449.548,-245.779 -495.56,-297.916c-19.173,-21.724 -25.912,-62.097 -28.157,-104.346c-2.749,-51.727 2.43,-106.528 6.722,-138.8Zm-23.639,-20.112c-1.033,-1.106 -1.987,-2.463 -2.817,-4.124c0.573,1.146 1.506,2.531 2.817,4.124Z" style="fill:#7e4021;"/><path d="M4232.91,2533.14c26.918,-16.886 200.134,-140.511 231.811,-164.346c19.416,47.556 -56.47,235.438 -68.795,271.721c-95.611,97.305 -1432.16,1148.79 -1971.53,1433.53c-36.685,-80.502 -7.811,-320.318 -3.794,-321.568c82.083,-25.537 263.461,-147.162 332.913,-195.134c196.252,-135.555 1395.7,-957.975 1479.39,-1024.2Z" style="fill:#d3af98;"/><path d="M4224.06,2519.03c-0.514,0.323 -1.01,0.673 -1.486,1.049c-83.645,66.189 -1282.39,888.087 -1478.52,1023.56c-68.549,47.348 -247.375,167.728 -328.392,192.933c-2.488,0.774 -5.7,2.291 -8.49,5.996c-0.836,1.109 -3.325,5.764 -4.823,14.104c-5.183,28.838 -16.786,137.955 -11.738,226.118c2.265,39.558 8.078,75.02 18.63,98.176c1.903,4.175 5.443,7.381 9.785,8.862c4.343,1.482 9.104,1.107 13.162,-1.035c540.502,-285.337 1879.82,-1339.08 1975.63,-1436.59c1.756,-1.788 3.087,-3.948 3.893,-6.321c8.701,-25.617 48.745,-126.183 65.314,-200.655c7.994,-35.927 9.743,-66.528 3.129,-82.726c-1.953,-4.785 -6.017,-8.394 -11,-9.767c-4.982,-1.374 -10.321,-0.359 -14.451,2.749c-31.519,23.717 -203.862,146.743 -230.647,163.545Zm226.723,-119.334c-0.901,11.24 -3.17,24.263 -6.292,38.294c-15.567,69.971 -52.349,163.335 -63.032,193.423c-113.385,110.472 -1403.71,1124.64 -1947.91,1418.86c-7.809,-27.825 -10.495,-66.615 -10.83,-106.675c-0.615,-73.565 7.531,-151.423 11.962,-178.278c86.8,-31.319 260.428,-147.362 328.312,-194.251c195.836,-135.268 1390,-954.11 1479.55,-1024.29c24.833,-15.804 150.595,-105.251 208.233,-147.08Z" style="fill:#7e4021;"/><path d="M2086.32,1392.33c-253.471,-242.43 -530.421,-618.886 -739.897,-905.707c-6.379,-8.734 -78.205,-96.63 -71.308,-105.498c7.1,-9.128 159.139,62.57 203.143,78.392c282.784,101.676 572.232,183.827 851.996,294.318c177.77,70.208 930.494,380.053 930.494,380.053c0,0 115.411,163.643 165.765,228.141c118.637,151.962 235.965,305.93 341.908,467.12c69.378,105.558 127.981,224.181 209.61,321.115l-1891.71,-757.934Z" style="fill:#ca9878;"/><path d="M2074.8,1404.38c1.539,1.471 3.345,2.635 5.322,3.426l1891.71,757.934c7.099,2.845 15.224,0.492 19.705,-5.706c4.481,-6.198 4.168,-14.65 -0.758,-20.5c-81.21,-96.437 -139.409,-214.518 -208.432,-319.535c-106.191,-161.566 -223.783,-315.903 -342.698,-468.221c-50.209,-64.313 -165.281,-227.49 -165.281,-227.49c-1.825,-2.588 -4.349,-4.602 -7.277,-5.807c0,0 -752.904,-309.917 -930.716,-380.143c-279.924,-110.553 -569.533,-192.766 -852.479,-294.5c-35.301,-12.692 -139.948,-61.214 -184.035,-75.44c-12.446,-4.017 -21.666,-5.1 -25.808,-4.448c-6.036,0.951 -9.752,3.935 -12.094,6.948c-2.098,2.696 -3.692,6.198 -3.945,10.741c-0.226,4.077 1.52,11.752 6.659,21.075c15.34,27.828 63.092,86.627 68.29,93.744c210.003,287.542 487.728,664.882 741.836,907.922Zm-768.784,-998.708c48.474,18.052 135.268,58.268 166.603,69.534c282.622,101.617 571.909,183.708 851.512,294.135c169.707,67.024 863.518,352.492 925.797,378.122c17.951,25.398 117.597,166.096 163.448,224.827c118.359,151.607 235.422,305.206 341.117,466.018c58.378,88.82 109.237,186.796 172.389,273.513c0,0 -1831.37,-733.756 -1831.37,-733.756l-0.001,-0.001c-252.2,-241.894 -527.324,-616.043 -735.633,-901.266c-3.999,-5.476 -33.862,-42.215 -53.689,-70.865l-0.177,-0.261Z" style="fill:#7e4021;"/><path d="M4238.61,2533.07l226.689,-165.157l-1007.92,-1555.2c0,-0 -122.613,140.893 -196.632,321.176c3.363,2.046 115.411,163.643 165.765,228.141c118.637,151.962 235.965,305.93 341.908,467.12c69.378,105.558 388.558,606.984 470.187,703.918Z" style="fill:#d3af98;"/><path d="M3248.86,1145.57c0.797,1.059 6.41,8.533 12.057,16.378c32.098,44.592 112.074,158.613 152.458,210.34c118.359,151.607 235.422,305.206 341.117,466.018c69.54,105.803 389.547,608.34 471.366,705.5c5.637,6.694 15.49,7.888 22.563,2.735l226.689,-165.157c7.154,-5.213 8.986,-15.108 4.172,-22.536l-1007.92,-1555.2c-2.847,-4.392 -7.591,-7.192 -12.812,-7.56c-5.221,-0.369 -10.311,1.735 -13.747,5.684c-0,-0 -124.394,142.91 -199.477,325.787c-2.58,6.284 -1.056,13.35 3.53,18.009Zm31.011,-14.231c57.729,-136.664 142.529,-249.026 175.872,-290.504c0,0 986.984,1522.9 986.984,1522.9c-0,-0 -201.133,146.538 -201.133,146.538l0,-0c-94.417,-120.38 -392.537,-588.778 -459.247,-690.276c-106.191,-161.566 -223.783,-315.903 -342.698,-468.221c-44.152,-56.555 -135.798,-187.874 -159.778,-220.437Z" style="fill:#7e4021;"/><path d="M640.514,125.602c91.368,31.214 282.517,122.341 634.601,255.525c25.705,9.723 159.139,62.57 203.143,78.392c282.784,101.676 572.232,183.827 851.996,294.318c177.77,70.208 930.494,380.053 930.494,380.053c0,0 118.561,-240.474 195.588,-321.534l-2308.92,-795.151l-506.898,108.397Z" style="fill:#f0d4c4;"/><path d="M637.029,109.304c-7.327,1.566 -12.708,7.831 -13.152,15.311c-0.444,7.479 4.158,14.336 11.249,16.758c91.295,31.19 282.286,122.264 634.093,255.343c25.737,9.735 159.34,62.645 203.4,78.487c282.622,101.617 571.909,183.708 851.512,294.135c177.728,70.192 930.273,379.964 930.273,379.964c8.108,3.338 17.416,-0.177 21.293,-8.041c-0,-0 116.718,-237.442 192.721,-317.425c3.907,-4.111 5.455,-9.927 4.109,-15.436c-1.346,-5.509 -5.402,-9.956 -10.764,-11.803l-2308.93,-795.151c-2.866,-0.987 -5.947,-1.173 -8.912,-0.539c0,-0 -506.897,108.397 -506.897,108.397Zm62.408,20.741l446.929,-95.573c-0,-0 2039.19,702.26 2281.17,785.592c-65.42,80.665 -150.114,243.967 -174.737,292.532c-104.656,-43.062 -753.107,-309.761 -916.421,-374.261c-279.924,-110.553 -569.533,-192.766 -852.479,-294.5c-43.949,-15.801 -177.212,-68.586 -202.885,-78.297c-294.37,-111.352 -476.336,-193.316 -581.574,-235.493l-0.001,-0Z" style="fill:#7e4021;"/><path d="M1957.98,1100.14c-1.776,-5.764 -6.631,-10.36 -12.97,-11.502c-6.143,-1.107 -10.525,0.932 -13.768,3.656c-3.058,2.567 -6.577,6.957 -5.922,14.388c0.116,1.321 0.588,4.049 2.188,7.256c1.508,3.024 5.105,8.607 5.188,8.728c6.595,9.556 13.469,18.922 20.343,28.278c24.256,33.01 49.264,65.756 76.322,96.528c6.074,6.908 16.613,7.584 23.521,1.51c6.908,-6.074 7.585,-16.614 1.511,-23.521c-26.416,-30.043 -50.811,-62.027 -74.492,-94.255c-6.68,-9.09 -13.362,-18.187 -19.77,-27.472l-2.151,-3.594Zm-13.072,21.324c-1.596,0.278 -3.256,0.326 -4.936,0.112c1.81,0.237 3.451,0.165 4.936,-0.112Zm-4.972,0.108l-0.837,-0.129c0.283,0.051 0.562,0.094 0.837,0.129Zm5.777,-0.269l-0.743,0.149l0.738,-0.144l0.201,-0.055l-0.196,0.05Z" style="fill:#7e4021;"/><path d="M2106.36,1286.05l-0.487,-0.986c-1.236,-3.708 -3.776,-6.995 -7.416,-9.112c-8.662,-5.037 -14.997,-1.741 -18.96,1.499c-2.472,2.02 -7.406,6.743 -5.893,15.738c0.241,1.434 4.61,10.816 4.983,11.336c10.543,14.7 21.447,29.177 32.704,43.339c5.724,7.201 16.217,8.4 23.418,2.676c7.2,-5.724 8.4,-16.217 2.676,-23.418c-10.672,-13.426 -21.017,-27.145 -31.025,-41.072Zm-7.043,18.179c-5.123,3.407 -11.945,3.837 -17.618,0.538c7.758,4.511 13.642,2.304 17.618,-0.538Zm7.424,-13.963c0.206,5.886 -2.528,9.596 -4.743,11.743c0.941,-0.961 1.78,-2.055 2.487,-3.271c1.552,-2.669 2.279,-5.592 2.256,-8.472Z" style="fill:#7e4021;"/><path d="M3703.9,2464.79l7.351,2.203c10.497,3.16 20.845,6.883 31.264,10.29c26.418,8.639 53.072,16.523 79.412,25.412c8.716,2.941 18.18,-1.747 21.121,-10.462c2.941,-8.716 -1.747,-18.18 -10.462,-21.121c-26.44,-8.923 -53.193,-16.84 -79.711,-25.511c-10.669,-3.489 -21.268,-7.292 -32.017,-10.527c-4.227,-1.272 -15.229,-4.152 -16.917,-4.146c-10.429,0.035 -14.153,6.989 -15.56,10.481c-0.795,1.973 -5.398,13.933 8.097,21.339c2.361,1.296 4.9,1.959 7.422,2.042Zm10.075,-30.363c0.983,0.678 1.874,1.448 2.664,2.295c-0.685,-0.767 -1.554,-1.551 -2.664,-2.295Zm-0.643,-0.42l0.618,0.403l-0.451,-0.304l-0.167,-0.099Z" style="fill:#7e4021;"/><path d="M3900.56,2494.49c-3.045,-1.624 -6.618,-2.32 -10.289,-1.77c-9.097,1.362 -15.378,9.853 -14.016,18.95c0.497,3.323 2.055,7.971 7.309,11.572c2.118,1.451 13.552,4.678 13.552,4.678c-0,0 -0.459,-0.117 -0.564,-0.147c24.074,6.797 47.775,14.68 71.595,22.317c8.759,2.809 18.151,-2.023 20.959,-10.782c2.809,-8.759 -2.023,-18.151 -10.782,-20.959c-24.191,-7.757 -48.265,-15.753 -72.716,-22.656c-0.337,-0.095 -3.438,-0.825 -5.048,-1.203Z" style="fill:#7e4021;"/><path d="M3172.02,876.88c62.3,-13.618 173.586,-57.958 172.574,-59.999c-0.679,-1.368 -27.632,-46.067 -38.304,-60.775c-11.432,-15.755 -86.383,-139.403 -74.656,-153.767c5.943,-7.281 42.023,28.5 46.002,32.186c21.15,19.598 103.263,128.028 122.387,130.77c19.848,2.845 104.627,-87.96 118.649,-104.731c6.175,-7.387 24.961,-36.546 37.805,-32.589c27.289,8.406 -32.546,118.993 -42.249,132.698c-2.859,4.039 -22.954,25.716 -17.216,31.327c10.045,9.822 166.644,21.03 188.154,24.558c7.575,1.242 59.602,4.863 55.384,19.229c-11.325,38.569 -128.983,43.006 -160.101,44.451c-5.592,0.26 -54.301,-3.938 -56.679,2.631c-1.284,3.548 35.449,38.172 48.06,52.728c41.763,48.205 76.641,102.245 112.207,155.05c4.675,6.94 33.791,39.401 28.986,48.661c-4.158,8.011 -51.881,-28.925 -55.986,-31.907c-51.835,-37.653 -97.767,-81.882 -141.748,-128.33c-2.903,-3.065 -38.168,-46.6 -42.365,-43.814c-2.208,1.466 6.438,153.011 -5.082,199.804c-1.697,6.892 -6.041,36.99 -14.824,39.268c-11.625,3.015 -19.636,-46.092 -21.253,-51.89c-25.897,-92.849 -40.143,-212.332 -62.23,-226.116c-20.348,-12.698 -274.336,32.692 -271.656,18.797c2.801,-14.528 63.539,-35.922 74.141,-38.24Z" style="fill:#fff;"/><path d="M3295.87,800.936c-36.216,13.892 -95.587,35.646 -130.967,43.38c-10.142,2.217 -58.541,19.272 -79.252,34.802c-12.868,9.649 -18.837,21.057 -20.502,29.691c-2.174,11.275 1.195,39.456 36.696,42.062c33.95,2.493 192.635,-23.489 248.048,-23.513c3.017,8.227 8.083,22.775 11.258,35.715c11.429,46.584 22.874,112.272 38.507,168.321c1.589,5.7 9.872,44.922 19.769,58.7c12.126,16.881 27.958,20.132 41.96,16.501c8.529,-2.212 17.802,-7.902 24.677,-18.939c7.285,-11.695 12.4,-37.534 14.146,-44.627c6.12,-24.859 7.014,-78.172 6.701,-124.53c40.614,41.869 83.217,81.498 130.537,115.871c3.251,2.362 31.515,23.887 48.719,32.579c9.797,4.95 18.452,6.736 23.864,6.822c16.692,0.263 26.796,-7.965 32.579,-19.11c4.257,-8.202 6.469,-20.651 0.774,-35.347c-5.907,-15.247 -27.403,-40.911 -31.699,-47.288c-36.316,-53.919 -72.017,-109.035 -114.661,-158.256l-0.845,-0.952c30.401,-1.692 85.273,-6.059 122.014,-19.347c29.459,-10.655 48.566,-28.624 54.341,-48.293c4.812,-16.386 0.513,-31.846 -15.744,-43.712c-6.081,-4.439 -15.574,-8.64 -26.576,-11.427c-15.54,-3.936 -35.087,-5.626 -39.652,-6.375c-14.573,-2.39 -92.38,-8.177 -142.371,-14.753c12.936,-22.533 37.432,-70.53 45.414,-103.259c3.953,-16.21 3.901,-30.099 1.286,-39.507c-4.382,-15.767 -14.288,-25.617 -28.6,-30.026c-12.601,-3.882 -27.92,-1.749 -42.381,9.016c-12.419,9.246 -25.607,27.825 -30.811,34.049c-9.094,10.877 -66.843,64.319 -89.721,85.383c-23.48,-26.911 -87.963,-100.48 -103.086,-114.492c-3.861,-3.578 -33.312,-31.234 -48.361,-37.966c-21.807,-9.755 -37.76,-1.087 -46.118,9.15c-4.333,5.307 -7.948,12.611 -8.638,22.474c-0.469,6.713 0.834,16.996 5.092,29.414c14.429,42.076 67.306,129.113 77.045,142.535c3.942,5.434 10.306,15.294 16.558,25.254Zm-123.849,75.944c62.3,-13.618 173.586,-57.958 172.574,-59.999c-0.679,-1.368 -27.632,-46.067 -38.304,-60.775c-11.432,-15.755 -86.383,-139.403 -74.656,-153.767c5.943,-7.281 42.023,28.5 46.002,32.186c21.15,19.598 103.263,128.028 122.387,130.77c19.848,2.845 104.627,-87.96 118.649,-104.731c6.175,-7.387 24.961,-36.546 37.805,-32.589c27.289,8.406 -32.546,118.993 -42.249,132.698c-2.859,4.039 -22.954,25.716 -17.216,31.327c10.045,9.822 166.644,21.03 188.154,24.558c7.575,1.242 59.602,4.863 55.384,19.229c-11.325,38.569 -128.983,43.006 -160.101,44.451c-5.592,0.26 -54.301,-3.938 -56.679,2.631c-1.284,3.548 35.449,38.172 48.06,52.728c41.763,48.205 76.641,102.245 112.207,155.05c4.675,6.94 33.791,39.401 28.986,48.661c-4.158,8.011 -51.881,-28.925 -55.986,-31.907c-51.835,-37.653 -97.767,-81.882 -141.748,-128.33c-2.903,-3.065 -38.168,-46.6 -42.365,-43.814c-2.208,1.466 6.438,153.011 -5.082,199.804c-1.697,6.892 -6.041,36.99 -14.824,39.268c-11.625,3.015 -19.636,-46.092 -21.253,-51.89c-25.897,-92.849 -40.143,-212.332 -62.23,-226.116c-20.348,-12.698 -274.336,32.692 -271.656,18.797c2.801,-14.528 63.539,-35.922 74.141,-38.24Z" style="fill:#7e4021;"/><path d="M1831.25,1543.66c-0.69,2.025 -27.415,-29.059 -31.529,-34.041c-33.753,-40.866 -68.974,-80.5 -103.225,-120.947c-103.55,-122.282 -201.04,-249.424 -302.788,-373.171c-163.073,-198.333 -338.637,-385.486 -505.16,-580.781c-59.592,-69.887 -116.923,-141.791 -175.883,-212.229c-4.843,-5.786 -75.598,-88.856 -71.153,-91.175c15.542,-8.109 184.973,66.933 205.452,75.466c149.455,62.273 399.089,148.974 428.36,178.473c20.515,20.675 160.124,223.269 236.302,319.375c120.743,152.328 522.849,641.595 579.362,691.21c-37.856,30.603 -214.832,124.959 -259.738,147.82Z" style="fill:#d3af98;"/><path d="M1840.07,1557.87c47.381,-24.202 223.445,-118.389 261.395,-149.068c3.822,-3.09 6.085,-7.709 6.185,-12.623c0.1,-4.913 -1.974,-9.621 -5.667,-12.863c-56.325,-49.451 -456.954,-537.216 -577.297,-689.039c-76.532,-96.553 -216.922,-299.99 -237.532,-320.761c-9.425,-9.498 -39.781,-25.201 -82.489,-43.385c-92.88,-39.545 -246.637,-95.128 -351.292,-138.734c-16.535,-6.889 -129.309,-56.677 -181.778,-72.152c-10.833,-3.194 -19.529,-4.954 -25.017,-5.176c-5.797,-0.234 -10.04,1.043 -12.777,2.471c-3.836,2.001 -14.077,11.122 -6.15,25.698c8.507,15.645 67.747,85.591 72.233,90.951c58.992,70.477 116.356,142.419 175.98,212.345c166.459,195.219 341.959,382.296 504.969,580.552c101.8,123.81 199.341,251.013 302.943,373.357c34.207,40.395 69.384,79.976 103.093,120.79c4.032,4.881 28.223,32.573 33.524,36.496c7.871,5.827 14.783,3.418 17.274,2.365c0.842,-0.357 1.648,-0.765 2.411,-1.228l-0.008,0.004Zm-14.713,-29.92c-4.549,1.43 -7.711,4.636 -9.567,9.486c1.498,-3.727 4.3,-6.797 7.897,-8.628l1.67,-0.858Zm-1143.32,-1370.24l1.308,0.447c56.119,19.708 142.948,58.074 157.203,64.014c104.583,43.576 258.238,99.115 351.054,138.633c36.88,15.702 63.747,27.993 71.886,36.195c20.419,20.578 159.247,222.328 235.071,317.988c113.484,143.17 474.822,582.894 566.671,678.848c-51.982,34.597 -180.465,103.369 -230.947,129.521c-7.423,-8.222 -19.419,-21.563 -21.718,-24.346c-33.796,-40.919 -69.061,-80.605 -103.356,-121.104c-103.498,-122.221 -200.936,-249.301 -302.633,-372.987c-163.137,-198.409 -338.764,-385.639 -505.352,-581.009c-59.559,-69.848 -116.858,-141.713 -175.784,-212.112c-2.441,-2.917 -24.867,-30.917 -43.403,-54.088Z" style="fill:#7e4021;"/><path d="M812.896,2452.22c58.236,-109.87 111.883,-244.311 215.108,-319.233c37.12,-26.942 80.553,-44.301 124.626,-56.259c91.3,-24.771 181.096,-109.318 274.088,-125.109c114.395,-19.425 215.898,-64.629 334.374,-58.705c62.268,3.113 125.27,21.266 187.367,20.669c68.77,-0.661 142.69,-27.372 211.828,-34.489c179.637,-18.492 367.938,-19.842 547.303,3.302c162.815,21.008 333.498,81.217 485.777,153.972c231.635,110.671 453.774,367.345 387.943,642.943c-17.254,72.231 -62.183,134.191 -93.195,200.699c-41.209,88.376 -71.421,181.468 -152.266,242.892c-259.688,-62.814 -1055.68,-411.321 -1066.64,-349.076c-7.694,43.703 293.052,656.759 180.929,667.062c-214.814,19.74 -449.34,88.43 -662.757,16.144c-108.642,-36.798 -334.247,-154.623 -450.232,-217.52c-47.666,-25.849 -394.755,-193.376 -473.906,-231.72c-47.49,-23.007 7.534,-137.074 -13.309,-186.243c-40.462,-95.448 -149.04,-158.017 -37.036,-369.329Z" style="fill:#ffe6d8;"/><path d="M2287.16,2783.25c1.969,-0.049 4.151,-0.03 6.178,0.14c14.763,1.234 35.736,5.811 61.696,12.89c217.796,59.386 769.052,292.549 976.899,342.823c4.87,1.178 10.011,0.103 14.001,-2.928c83.085,-63.127 114.937,-158.294 157.289,-249.12c31.48,-67.512 76.785,-130.548 94.299,-203.869c67.66,-283.253 -158.899,-548.11 -396.968,-661.854c-153.853,-73.508 -326.331,-134.238 -490.829,-155.464c-180.623,-23.306 -370.246,-21.973 -551.143,-3.351c-68.642,7.066 -142.004,33.746 -210.281,34.402c-61.772,0.594 -124.433,-17.552 -186.375,-20.649c-119.733,-5.987 -222.387,39.288 -337.997,58.92c-48.316,8.204 -95.942,33.944 -143.208,61.177c-44.201,25.467 -88.092,52.242 -132.453,64.278c-46.011,12.484 -91.299,30.729 -130.052,58.856c-105.229,76.376 -160.678,212.913 -220.044,324.916l-0,-0c-41.123,77.583 -53.418,136.187 -50.834,183.711c2.629,48.363 20.62,85.682 41.3,120.081c16.194,26.937 34.113,51.92 45.951,79.847c4.127,9.734 4.136,22.598 3.087,36.721c-1.903,25.628 -8.09,54.808 -10.238,80.28c-1.371,16.258 -1.083,31.19 2.04,43.387c4.025,15.72 12.464,27.549 26.499,34.349c79.036,38.289 425.63,205.561 473.227,231.372c116.642,63.254 343.572,181.648 452.831,218.655c215.622,73.033 452.595,4.61 669.628,-15.333c18.203,-1.673 30.404,-12.343 36.373,-31.684c4.191,-13.583 4.909,-32.687 2.153,-56.005c-13.649,-115.492 -111.899,-347.579 -167.697,-488.46c-16.307,-41.173 -28.907,-74.343 -34.35,-94.083c-0.356,-1.292 -0.687,-2.67 -0.982,-4.005Zm-1459.54,-323.223c57.105,-107.737 108.95,-240.082 210.172,-313.55c35.487,-25.756 77.066,-42.23 119.2,-53.662c46.939,-12.735 93.596,-40.619 140.366,-67.566c43.705,-25.181 87.472,-49.61 132.148,-57.196c113.18,-19.22 213.534,-64.352 330.752,-58.491c62.595,3.13 125.936,21.289 188.359,20.689c69.264,-0.666 143.74,-27.408 213.374,-34.576c178.377,-18.362 365.358,-19.729 543.464,3.253c161.133,20.791 330.019,80.477 480.725,152.481c225.203,107.597 442.92,356.087 378.917,624.032c-16.993,71.14 -61.545,132.024 -92.089,197.527c-38.995,83.629 -67.102,172.076 -141.041,231.805c-213.322,-53.99 -753.244,-282.05 -968.169,-340.653c-41.334,-11.27 -71.712,-16.031 -86.964,-13.682c-15.48,2.383 -22.353,10.904 -24.043,20.501c-0.552,3.134 -0.567,8.007 0.648,14.423c1.764,9.312 6.285,23.953 13.001,42.704c36.038,100.604 137.024,327.92 176.496,476.728c11.934,44.992 18.495,82.271 14.541,105.586c-1.27,7.486 -2.79,13.355 -8.869,13.913c-212.593,19.536 -444.672,88.495 -655.884,16.955c-108.027,-36.59 -332.306,-153.844 -447.634,-216.385c-47.735,-25.886 -395.319,-193.669 -474.584,-232.069c-4.966,-2.405 -7.316,-7.056 -8.74,-12.618c-2.325,-9.081 -2.138,-20.214 -1.117,-32.317c2.158,-25.577 8.354,-54.88 10.265,-80.613c1.495,-20.122 0.24,-38.331 -5.639,-52.2c-12.439,-29.342 -31.058,-55.71 -48.073,-84.012c-18.064,-30.048 -34.287,-62.47 -36.584,-104.715c-2.343,-43.085 9.721,-95.956 47.002,-166.292l-0,0Z" style="fill:#7e4021;"/><path d="M984.484,2371.92c58.236,-109.87 107.694,-38.69 210.919,-113.611c37.12,-26.942 80.554,-44.302 124.627,-56.26c91.299,-24.771 181.095,-109.317 274.087,-125.108c114.395,-19.426 215.899,-64.629 334.374,-58.705c62.269,3.113 125.27,21.266 187.367,20.669c68.771,-0.662 142.69,-27.372 211.828,-34.49c179.637,-18.492 141.313,40.716 320.678,63.86c162.815,21.009 339.11,1.966 454.692,124.941c112.51,119.706 344.225,41.069 278.394,316.667c-17.253,72.23 52.674,205.478 -50.967,282.541c-100.9,75.024 -106.54,298.271 -181.087,272.22c-336.27,-117.514 -871.219,-341.77 -880.189,-290.821c-4.897,27.817 115.166,286.299 174.185,473.196c33.704,106.734 -135.433,19.569 -176.19,23.315c-214.813,19.739 -449.339,88.43 -662.756,16.144c-108.643,-36.799 -143.951,-139.785 -259.936,-202.682c-47.666,-25.849 -323.19,-56.289 -340.453,-142.527c-26.231,-131.046 38.306,-150.851 17.463,-200.02c-40.462,-95.448 -149.04,-158.017 -37.036,-369.329Z" style="fill:#eb7e6c;"/><path d="M2287.34,2783.93c8.827,0.53 25.251,1.953 40.825,5.541c151.98,35.01 547.28,197.1 815.729,290.913c29.981,10.477 53.747,-5.579 73.042,-40.869c17.013,-31.116 31.683,-78.331 50.948,-124.457c17.819,-42.667 39.446,-84.645 72.541,-109.253c57.064,-42.43 67.193,-99.983 64.583,-157.216c-2.292,-50.26 -15.693,-99.902 -7.35,-134.827c21.309,-89.21 12.158,-143.922 -12.18,-180.431c-24.504,-36.757 -65.344,-55.917 -111.358,-72.03c-54.083,-18.939 -115.826,-33.64 -158.922,-79.492c-60.434,-64.3 -136.54,-91.888 -219.02,-105.731c-79.076,-13.271 -164.068,-13.794 -245.685,-24.326c-87.162,-11.246 -121.407,-31.34 -155.71,-46.292c-37.144,-16.19 -74.279,-27.347 -168.807,-17.617c-68.642,7.066 -142.004,33.746 -210.281,34.403c-61.771,0.594 -124.433,-17.552 -186.374,-20.649c-119.734,-5.987 -222.388,39.287 -337.998,58.919c-48.316,8.205 -95.942,33.944 -143.208,61.177c-44.201,25.467 -88.092,52.242 -132.453,64.278c-46.011,12.484 -91.299,30.729 -130.051,58.856c-48.558,35.243 -84.602,35.749 -115.222,40.739c-36.819,6 -67.694,16.41 -100.634,78.556c-41.123,77.584 -53.418,136.187 -50.834,183.712c2.629,48.363 20.62,85.681 41.3,120.08c16.194,26.937 34.113,51.92 45.951,79.847c6.393,15.081 1.087,26.434 -4.826,41.21c-12.316,30.778 -30.393,71.855 -13.634,155.576c2.665,13.317 9.825,25.766 20.981,37.129c14.229,14.493 35.404,27.451 60.707,38.75c54.829,24.484 129.775,41.837 188.311,55.679c36.454,8.621 66.182,15.478 78.851,22.349c56.294,30.527 92.855,70.967 128.679,108.056c38.753,40.121 76.814,76.44 133.855,95.76c215.622,73.034 452.595,4.611 669.628,-15.333c8.546,-0.785 23.435,3.596 40.902,8.52c31.223,8.803 69.096,20.406 97.422,21.461c21.261,0.792 38,-4.689 47.617,-16.101c9.363,-11.111 13.848,-29.577 4.617,-58.81c-41.412,-131.14 -112.781,-297.451 -150.208,-394.993c-9.375,-24.434 -16.585,-44.431 -20.525,-58.286c-0.441,-1.552 -0.85,-3.208 -1.209,-4.798Zm-1288.13,-404.197c12.4,-23.394 24.069,-37.757 36.339,-46.659c18.425,-13.369 37.776,-14.236 60.228,-17.556c30.117,-4.454 65.143,-11.58 109.416,-43.714c35.488,-25.757 77.066,-42.231 119.201,-53.662c46.938,-12.736 93.595,-40.619 140.365,-67.566c43.705,-25.181 87.472,-49.61 132.148,-57.197c113.18,-19.219 213.534,-64.351 330.752,-58.491c62.595,3.13 125.937,21.29 188.36,20.689c69.264,-0.666 143.739,-27.407 213.374,-34.576c102.701,-10.572 130.658,5.351 173.489,24.671c30.99,13.979 69.154,29.566 143.349,39.14c81.199,10.477 165.762,10.936 244.433,24.14c75.267,12.632 145.099,37.01 200.248,95.686c46.913,49.913 113.321,67.506 172.194,88.123c38.705,13.554 74.028,28.141 94.639,59.059c20.777,31.167 25.685,78.042 7.494,154.198c-8.911,37.306 4.025,90.402 6.474,144.09c2.13,46.715 -4.596,94.315 -51.174,128.948c-26.117,19.419 -46.545,47.864 -63.273,79.771c-23.502,44.826 -39.756,96.539 -56.37,136.46c-8.239,19.799 -16.293,36.51 -25.95,46.928c-5.752,6.204 -12.046,9.5 -20.052,6.702c-269.581,-94.209 -666.623,-256.771 -819.243,-291.929c-30.541,-7.035 -52.62,-8.594 -63.766,-5.497c-11.949,3.319 -17.549,10.687 -19.092,19.45c-0.52,2.953 -0.581,7.391 0.42,13.168c1.42,8.195 5.155,20.895 10.825,37.16c30.085,86.302 116.296,281.418 163.461,430.776c2.63,8.328 3.881,15.109 3.604,20.634c-0.14,2.795 -0.576,5.057 -1.925,6.658c-1.352,1.604 -3.402,2.385 -5.702,3.018c-4.365,1.203 -9.516,1.464 -15.184,1.253c-26.087,-0.972 -60.862,-12.126 -89.617,-20.233c-22.52,-6.35 -41.98,-10.644 -52.998,-9.631c-212.594,19.536 -444.673,88.494 -655.884,16.955c-51.602,-17.478 -85.516,-51.052 -120.574,-87.347c-37.987,-39.328 -77.072,-81.83 -136.764,-114.2c-28.937,-15.693 -140.763,-33.444 -229.452,-63.672c-33.007,-11.249 -62.67,-24.174 -82.43,-39.92c-10.49,-8.359 -18.103,-17.212 -20.173,-27.555c-14.719,-73.533 1.079,-109.618 11.897,-136.65c9.513,-23.774 14.854,-42.339 4.568,-66.604c-12.439,-29.342 -31.058,-55.709 -48.073,-84.012c-18.064,-30.048 -34.287,-62.47 -36.584,-104.715c-2.343,-43.084 9.721,-95.956 47.002,-166.291l-0,-0Z" style="fill:#7e4021;"/><path d="M2386.2,2190.62c-71.974,-69.667 -203.811,-84.954 -287.317,-52.238c-133.023,52.116 -197.499,194.929 -129.711,322.205c41.568,78.045 132.608,125.312 219.404,128.371c80.023,2.82 165.166,-24.537 219.059,-85.788c67.63,-76.863 84.613,-209.902 -21.435,-312.55Z" style="fill:#facad0;"/><path d="M2397.79,2178.64c-76.416,-73.965 -216.33,-90.515 -304.989,-55.78c-142.554,55.85 -210.986,209.162 -138.341,345.558c44.29,83.156 141.047,133.933 233.527,137.192c84.872,2.991 174.999,-26.471 232.159,-91.434c72.593,-82.505 91.475,-225.354 -22.356,-335.536l-0,0Zm-23.183,23.952c98.264,95.113 83.179,218.343 20.513,289.564c-50.627,57.54 -130.786,82.791 -205.959,80.141c-81.113,-2.858 -166.434,-46.614 -205.28,-119.549c-62.932,-118.157 -2.412,-250.47 121.08,-298.852c78.353,-30.697 202.113,-16.672 269.645,48.695l0.001,0.001Z" style="fill:#7e4021;"/><path d="M2748.1,2791.48c71.974,69.667 203.811,84.954 287.317,52.238c133.023,-52.116 197.499,-194.929 129.71,-322.205c-41.567,-78.045 -132.607,-125.312 -219.403,-128.371c-80.023,-2.82 -165.166,24.537 -219.059,85.788c-67.63,76.863 -84.613,209.903 21.435,312.55Z" style="fill:#facad0;"/><path d="M2736.51,2803.46c76.416,73.965 216.33,90.515 304.989,55.78c142.554,-55.85 210.986,-209.162 138.341,-345.557c-44.29,-83.157 -141.048,-133.934 -233.527,-137.193c-84.872,-2.991 -175,26.471 -232.159,91.435c-72.594,82.504 -91.475,225.353 22.356,335.535l0,-0Zm23.183,-23.951c-98.264,-95.114 -83.179,-218.344 -20.514,-289.565c50.628,-57.54 130.786,-82.791 205.96,-80.141c81.113,2.858 166.434,46.614 205.28,119.549c62.931,118.157 2.412,250.47 -121.08,298.852c-78.353,30.697 -202.113,16.672 -269.646,-48.695l0,-0Z" style="fill:#7e4021;"/><path d="M2228.41,2817.87c-71.974,-69.666 -203.811,-84.954 -287.316,-52.238c-133.023,52.116 -197.499,194.929 -129.711,322.205c41.568,78.045 132.607,125.312 219.404,128.371c80.022,2.82 165.165,-24.537 219.059,-85.788c67.629,-76.863 84.612,-209.902 -21.436,-312.55Z" style="fill:#facad0;"/><path d="M2240,2805.89c-76.415,-73.965 -216.33,-90.515 -304.988,-55.78c-142.555,55.85 -210.987,209.162 -138.341,345.558c44.289,83.156 141.047,133.933 233.527,137.192c84.872,2.991 174.999,-26.471 232.158,-91.434c72.594,-82.505 91.476,-225.354 -22.356,-335.535l0,-0.001Zm-23.183,23.952c98.264,95.113 83.18,218.343 20.514,289.564c-50.628,57.54 -130.786,82.791 -205.959,80.141c-81.113,-2.858 -166.435,-46.614 -205.281,-119.549c-62.931,-118.157 -2.412,-250.47 121.08,-298.852c78.353,-30.697 202.113,-16.672 269.646,48.695l-0,0.001Z" style="fill:#7e4021;"/><path d="M1558,2383.4c-71.975,-69.666 -203.812,-84.954 -287.317,-52.238c-133.023,52.116 -197.499,194.929 -129.711,322.205c41.568,78.046 132.607,125.312 219.404,128.371c80.022,2.82 165.165,-24.536 219.059,-85.788c67.629,-76.863 84.612,-209.902 -21.435,-312.55Z" style="fill:#facad0;"/><path d="M1569.6,2371.43c-76.415,-73.966 -216.33,-90.516 -304.988,-55.781c-142.554,55.85 -210.987,209.162 -138.341,345.558c44.289,83.156 141.047,133.933 233.527,137.192c84.872,2.991 174.999,-26.471 232.158,-91.434c72.594,-82.505 91.476,-225.353 -22.356,-335.535l0,-0Zm-23.183,23.951c98.264,95.114 83.18,218.343 20.514,289.565c-50.628,57.539 -130.786,82.79 -205.959,80.141c-81.113,-2.859 -166.435,-46.615 -205.281,-119.55c-62.931,-118.157 -2.412,-250.47 121.08,-298.852c78.353,-30.697 202.113,-16.672 269.646,48.696l0,-0Z" style="fill:#7e4021;"/><path d="M1747.69,2378.5c1.821,-15.192 27.68,-28.149 40.631,-34.989c42.298,-22.341 82.05,1.936 114.329,29.916c7.065,6.125 24.505,17.487 27.244,27.022c5.147,17.922 -47.708,32.291 -57.92,34.902c-47.719,12.203 -97.835,-19.046 -124.284,-56.851Z" style="fill:#badcbe;"/><path d="M1731.14,2376.51c-0.488,4.071 0.542,8.178 2.892,11.538c30.111,43.039 87.744,77.336 142.069,63.443c7.991,-2.043 39.199,-10.867 55.314,-22.644c13.023,-9.517 17.751,-21.674 14.496,-33.006c-1.423,-4.955 -4.742,-10.444 -9.576,-15.638c-6.924,-7.44 -17.511,-14.818 -22.77,-19.377c-37.375,-32.398 -84.053,-57.928 -133.03,-32.059c-10.27,5.424 -27.513,14.533 -37.758,25.239c-6.635,6.936 -10.702,14.7 -11.637,22.504Zm179.878,25.714c-1.377,1.019 -2.971,2.118 -4.351,2.874c-13.71,7.504 -33.258,12.675 -38.824,14.099c-37.811,9.669 -76.87,-13.399 -100.627,-42.504c1.846,-1.874 4.041,-3.634 6.362,-5.308c7.635,-5.505 16.577,-10.002 22.525,-13.144c35.641,-18.825 68.43,4.196 95.628,27.773c3.546,3.074 9.694,7.464 15.301,12.281c1.221,1.049 2.701,2.555 3.986,3.929Z" style="fill:#7e4021;"/><path d="M1766.91,2454.03c-14.296,10.929 -31.898,35.713 -41.546,61.006c-7.506,19.675 -9.901,39.482 -7.007,53.906c15.293,76.2 98.325,96.568 160.363,67.296c32.258,-15.221 69.77,-54.039 81.324,-93.822c9.833,-33.86 4.123,-68.19 -27.764,-94.98c-38.322,-32.196 -109.447,-36.158 -165.37,6.594Zm45.042,58.917c24.715,-18.895 55.686,-22.959 72.623,-8.729c8.57,7.2 5.244,17.247 0.805,26.117c-8.448,16.879 -24.264,32.207 -38.307,38.833c-20.665,9.751 -50.91,10.564 -56.004,-14.819c-0.712,-3.548 1.739,-8.041 3.585,-12.88c4.361,-11.431 10.836,-23.583 17.298,-28.522Z" style="fill:#9964bb;"/><path d="M1756.79,2440.79c-16.06,12.278 -36.158,39.895 -46.996,68.306c-8.782,23.021 -11.162,46.249 -7.775,63.126c17.596,87.68 112.432,112.772 183.816,79.09c35.817,-16.9 77.388,-60.073 90.216,-104.247c11.641,-40.085 4.701,-80.673 -33.047,-112.388c-43.142,-36.246 -123.259,-42.015 -186.214,6.113Zm20.245,26.481c48.893,-37.378 111.021,-35.223 144.526,-7.073c26.025,21.865 30.505,49.936 22.48,77.57c-10.279,35.394 -43.733,69.857 -72.431,83.398c-52.699,24.866 -123.919,9.228 -136.91,-55.503c-2.402,-11.972 0.008,-28.355 6.238,-44.686c8.459,-22.174 23.563,-44.123 36.097,-53.706Zm24.796,32.436c-8.219,6.284 -17.2,21.281 -22.747,35.822c-3.11,8.153 -5.553,16.124 -4.354,22.1c4.146,20.656 18.286,30.908 35.833,33.757c13.883,2.254 30.319,-0.866 43.625,-7.144c16.846,-7.949 35.963,-26.197 46.098,-46.447c7.918,-15.82 10.298,-33.495 -4.988,-46.337c-21.726,-18.254 -61.762,-15.989 -93.467,8.249Zm71.137,16.582c-0.491,1.528 -1.564,4.737 -2.49,6.587c-6.761,13.509 -19.276,25.917 -30.515,31.22c-7.36,3.473 -16.378,5.635 -24.058,4.388c-3.413,-0.555 -6.471,-2.103 -7.888,-5.46c0.6,-1.498 1.584,-3.969 2.211,-5.614c3.178,-8.328 7.14,-17.623 11.848,-21.222c9.831,-7.515 20.848,-12.214 31.149,-13.486c7.501,-0.926 14.604,-0.18 19.743,3.587Z" style="fill:#7e4021;"/><path d="M1879.48,2875.38c-16.614,-6.917 -46.878,-9.768 -73.607,-5.478c-20.791,3.338 -39.142,11.167 -50.186,20.886c-58.346,51.344 -34.469,133.436 21.901,172.526c29.31,20.325 81.684,33.403 121.914,23.517c34.24,-8.414 61.115,-30.524 68.373,-71.533c8.722,-49.286 -23.41,-112.864 -88.395,-139.918Zm-28.503,68.465c28.721,11.957 47.726,36.746 43.871,58.529c-1.95,11.022 -12.315,13.166 -22.216,13.756c-18.842,1.124 -40.024,-4.91 -52.783,-13.758c-18.778,-13.021 -34.605,-38.807 -15.169,-55.911c2.716,-2.39 7.833,-2.514 12.947,-3.335c12.08,-1.939 25.841,-2.407 33.35,0.719Z" style="fill:#9964bb;"/><path d="M1885.89,2859.99c-18.662,-7.769 -52.629,-11.366 -82.653,-6.547c-24.327,3.905 -45.634,13.458 -58.556,24.83c-67.134,59.079 -41.447,153.755 23.414,198.734c32.545,22.568 90.719,36.984 135.389,26.007c40.535,-9.961 72.216,-36.266 80.807,-84.815c9.819,-55.484 -25.243,-127.752 -98.401,-158.209Zm-12.811,30.773c56.817,23.654 86.015,78.536 78.389,121.627c-5.923,33.47 -27.993,51.386 -55.938,58.253c-35.791,8.795 -82.364,-2.945 -108.44,-21.028c-47.884,-33.206 -69.951,-102.703 -20.388,-146.319c9.167,-8.066 24.56,-14.171 41.818,-16.941c23.433,-3.761 49.994,-1.655 64.559,4.408Zm-15.692,37.693c-9.551,-3.977 -27.03,-4.255 -42.396,-1.789c-8.616,1.383 -16.74,3.252 -21.317,7.279c-15.815,13.919 -17.623,31.29 -11.317,47.911c4.989,13.15 15.909,25.824 27.999,34.208c15.307,10.615 40.669,18.047 63.274,16.699c17.659,-1.053 34.156,-7.829 37.635,-27.488c4.945,-27.943 -17.035,-61.482 -53.878,-76.82Zm21.208,69.897c-1.569,0.339 -4.884,1.014 -6.95,1.137c-15.079,0.899 -32.082,-3.735 -42.294,-10.817c-6.688,-4.638 -13.069,-11.366 -15.829,-18.641c-1.226,-3.232 -1.414,-6.655 0.784,-9.561c1.597,-0.229 4.229,-0.613 5.967,-0.892c8.802,-1.412 18.832,-2.628 24.303,-0.35c11.424,4.756 21.002,11.948 27.254,20.233c4.553,6.033 7.458,12.556 6.765,18.891Z" style="fill:#7e4021;"/><path d="M2018.5,2715.51c1.529,1.146 -3.833,-0.722 -5.479,-1.692c-3.02,-1.779 -5.397,-4.623 -7.466,-7.395c-7.115,-9.533 -12.929,-20.872 -16.88,-32.061c-10.199,-28.876 -7.67,-62.044 1.083,-91.006c3.328,-11.012 9.963,-27.005 23.394,-28.289c16.774,-1.603 26.363,23.205 31.579,35.191c17.831,40.977 0.179,89.822 -26.231,125.252Z" style="fill:#badcbe;"/><path d="M2034.22,2722.24c28.449,-39.759 45.413,-93.553 25.796,-138.633c-3.641,-8.37 -9.39,-21.96 -17.403,-31.211c-8.322,-9.607 -18.88,-15.084 -31.044,-13.921c-9.817,0.938 -17.854,5.8 -24.105,13.037c-6.654,7.702 -11.068,18.454 -13.657,27.021c-9.75,32.262 -12.205,69.213 -0.845,101.379c4.498,12.735 11.141,25.629 19.239,36.479c3.363,4.505 7.454,8.894 12.362,11.786c1.997,1.176 6.851,3.118 9.346,3.745c3.12,0.784 5.556,0.637 6.773,0.49c4.871,-0.59 7.92,-2.847 9.864,-4.792c1.614,-1.614 2.851,-3.402 3.674,-5.38Zm-26.386,6.074l0.671,0.53c-0.235,-0.176 -0.459,-0.353 -0.671,-0.53Zm-2.271,-2.298c0.669,0.826 1.426,1.595 2.269,2.296c-0.95,-0.783 -1.688,-1.561 -2.269,-2.296Zm9.491,-35.18c-4.382,-6.885 -8.003,-14.499 -10.661,-22.025c-9.037,-25.587 -6.434,-54.971 1.322,-80.634c1.235,-4.087 2.962,-9.152 5.749,-13.261c0.927,-1.367 1.617,-3.1 3.277,-3.259c0.829,-0.079 1.129,0.942 1.727,1.54c1.113,1.112 2.12,2.417 3.068,3.798c4.504,6.563 7.633,14.667 9.915,19.912c13.166,30.255 3.023,65.207 -14.397,93.929Z" style="fill:#7e4021;"/><path d="M2655.97,2671.57c1.878,-0.358 -3.114,2.347 -4.94,2.911c-3.349,1.034 -7.053,0.875 -10.495,0.538c-11.838,-1.162 -24.136,-4.502 -35.068,-9.117c-28.212,-11.91 -51.026,-36.118 -66.539,-62.095c-5.898,-9.877 -13.251,-25.553 -5.154,-36.345c10.113,-13.479 34.909,-3.858 47.281,0.359c42.299,14.419 66.515,60.365 74.915,103.749Z" style="fill:#badcbe;"/><path d="M2671.53,2664.48c-10.228,-47.808 -38.565,-96.579 -85.099,-112.441c-8.64,-2.945 -22.557,-7.849 -34.792,-8.157c-12.706,-0.319 -23.866,3.797 -31.199,13.571c-5.918,7.888 -7.737,17.104 -6.598,26.598c1.212,10.106 6.186,20.61 10.775,28.294c17.28,28.936 42.939,55.638 74.367,68.905c12.443,5.252 26.447,9.027 39.922,10.349c5.595,0.548 11.595,0.48 17.038,-1.2c2.215,-0.684 6.919,-2.964 9.063,-4.386c2.68,-1.778 4.213,-3.677 4.923,-4.676c2.845,-3.998 3.23,-7.772 3.102,-10.519c-0.106,-2.279 -0.594,-4.398 -1.502,-6.338Zm-13.285,23.594c-1.218,0.175 -2.291,0.196 -3.225,0.131c1.061,0.061 2.139,0.02 3.225,-0.131Zm0.003,-0l0.844,-0.139c-0.289,0.055 -0.57,0.101 -0.844,0.139Zm-22.84,-30.579c-8.04,-1.398 -16.107,-3.85 -23.461,-6.954c-24.999,-10.554 -44.966,-32.269 -58.711,-55.286c-2.189,-3.666 -4.77,-8.354 -5.93,-13.18c-0.386,-1.607 -1.202,-3.285 -0.202,-4.618c0.5,-0.667 1.457,-0.2 2.301,-0.24c1.572,-0.073 3.215,0.061 4.874,0.291c7.885,1.091 15.983,4.236 21.397,6.081c31.23,10.646 50.234,41.685 59.732,73.906Z" style="fill:#7e4021;"/><path d="M1488.87,2720.77c-1.787,3.061 0.514,-7.213 1.951,-10.454c2.635,-5.941 7.369,-10.926 12.035,-15.326c16.049,-15.136 35.703,-28.258 55.475,-37.918c51.028,-24.931 112.67,-27.327 167.889,-17.362c20.995,3.789 51.87,12.61 57.092,37.081c6.522,30.561 -37.142,53.505 -58.114,65.662c-71.699,41.566 -165.44,19.437 -236.328,-21.683Z" style="fill:#badcbe;"/><path d="M1484.93,2737.71c75.3,42.311 173.367,62.784 248.617,19.159c13.694,-7.939 36.098,-20.358 50.441,-36.004c12.636,-13.783 19.365,-29.975 15.613,-47.556c-3.02,-14.154 -11.626,-24.937 -23.229,-32.833c-13.96,-9.499 -32.59,-14.533 -47.202,-17.17c-58.611,-10.577 -124.003,-7.674 -178.165,18.788c-21.246,10.38 -42.349,24.504 -59.594,40.768c-6.239,5.884 -12.312,12.75 -15.835,20.694c-1.364,3.074 -3.323,10.402 -3.811,14.103c-0.459,3.476 -0.045,6.096 0.267,7.396c1.152,4.803 3.756,7.596 5.925,9.315c2.134,1.693 4.454,2.826 6.973,3.34Zm23.841,-24.95c1.656,-2.049 3.638,-3.882 5.511,-5.648c14.852,-14.008 33.057,-26.128 51.356,-35.068c47.893,-23.399 105.785,-25.288 157.612,-15.935c9.038,1.631 20.243,4.219 29.711,9.159c6.511,3.398 12.495,7.752 14.041,14.998c2.019,9.463 -5.512,16.825 -13.391,23.684c-11.865,10.33 -27.003,18.412 -36.782,24.082c-62.843,36.431 -143.768,18.891 -208.058,-15.272Zm-33.881,-1.082l-0.424,0.687c0.14,-0.239 0.281,-0.469 0.424,-0.687Zm0.35,-0.518l-0.224,0.331l0.304,-0.439l-0.08,0.108Zm0.393,-0.531l-0.082,0.11l0.141,-0.184l-0.059,0.074Z" style="fill:#7e4021;"/><path d="M3059.49,2263.99c-3.457,0.784 5.622,-4.549 8.971,-5.711c6.14,-2.131 13.014,-2.075 19.415,-1.67c22.016,1.393 45.022,6.796 65.58,14.648c53.053,20.265 96.888,63.671 127.305,110.822c11.565,17.928 26.198,46.509 11.883,67.031c-17.879,25.63 -64.453,9.389 -87.654,2.366c-79.321,-24.012 -127.15,-107.616 -145.5,-187.486Z" style="fill:#badcbe;"/><path d="M3044.43,2272.69c20.491,83.907 72.483,169.541 155.733,194.742c15.15,4.587 39.52,12.477 60.745,12.277c18.698,-0.177 35.123,-6.315 45.408,-21.059c8.28,-11.87 10.284,-25.52 8.131,-39.388c-2.589,-16.686 -11.63,-33.736 -19.679,-46.213c-32.285,-50.048 -79.051,-95.847 -135.363,-117.356c-22.09,-8.438 -46.817,-14.215 -70.474,-15.712c-8.559,-0.542 -17.722,-0.292 -25.932,2.557c-3.178,1.103 -9.869,4.674 -12.907,6.844c-2.853,2.038 -4.485,4.129 -5.222,5.244c-2.722,4.121 -2.986,7.93 -2.761,10.689c0.221,2.715 0.976,5.184 2.321,7.375Zm34.506,0.387c2.628,-0.189 5.321,0.008 7.89,0.17c20.375,1.29 41.66,6.318 60.684,13.585c49.795,19.02 90.699,60.032 119.247,104.286c4.979,7.718 10.738,17.672 13.592,27.963c1.963,7.077 2.866,14.422 -1.373,20.499c-5.536,7.936 -16.057,7.459 -26.447,6.385c-15.649,-1.618 -31.889,-7.161 -42.708,-10.436c-69.524,-21.046 -111.955,-92.152 -130.885,-162.452Zm-22.34,-25.495l-0.792,0.159c0.271,-0.061 0.535,-0.114 0.792,-0.159Zm0.618,-0.098l-0.395,0.063l0.528,-0.079l-0.133,0.016Zm0.656,-0.076l-0.137,0.016l0.231,-0.022l-0.094,0.006Z" style="fill:#7e4021;"/><path d="M1744.98,3111.3c2.659,-0.442 -4.594,3.185 -7.203,3.917c-4.783,1.34 -9.937,1.002 -14.707,0.421c-16.404,-1.998 -33.22,-7.06 -47.996,-13.862c-38.134,-17.554 -67.438,-52.147 -86.365,-88.984c-7.196,-14.006 -15.814,-36.172 -3.377,-51.018c15.534,-18.541 49.138,-4.298 65.967,1.994c57.534,21.509 86.513,86.562 93.681,147.532Z" style="fill:#badcbe;"/><path d="M1760.94,3104.73c-8.837,-65.6 -42.038,-133.481 -103.81,-156.575c-11.321,-4.232 -29.497,-11.363 -45.922,-12.149c-15.18,-0.727 -28.998,3.536 -38.656,15.064c-7.799,9.309 -10.64,20.353 -10.132,31.782c0.594,13.352 6.188,27.294 11.46,37.556c20.585,40.065 52.743,77.414 94.22,96.507c16.299,7.503 34.855,13.062 52.95,15.267c6.886,0.838 14.315,1.017 21.221,-0.918c2.678,-0.751 8.438,-3.34 11.099,-4.968c2.743,-1.679 4.39,-3.475 5.156,-4.436c2.997,-3.756 3.61,-7.403 3.685,-10.029c0.073,-2.562 -0.343,-4.933 -1.271,-7.101Zm-14.921,23.203c-0.281,0.01 -0.563,0.021 -0.844,0.032l-0.737,-0.01c0.726,0.031 1.528,0.009 2.408,-0.095l-0.827,0.073Zm0.851,-0.076l0.839,-0.117c-0.287,0.048 -0.567,0.087 -0.839,0.117Zm-20.482,-28.601l-1.307,-0.163c-14.714,-1.792 -29.79,-6.356 -43.043,-12.457c-34.792,-16.016 -61.242,-47.854 -78.509,-81.462c-2.902,-5.648 -6.219,-12.895 -7.428,-20.273c-0.714,-4.354 -0.958,-8.891 2.002,-12.425c3.99,-4.762 10.646,-3.611 17.04,-2.569c11.287,1.841 22.684,6.618 30.315,9.471c47.472,17.748 72.149,69.158 80.93,119.878Z" style="fill:#7e4021;"/><path d="M2425.66,2488.02c-122.078,-7.435 -123.455,-128.22 -137.854,-179.019c-1.065,-3.758 -16.133,-39.2 -13.767,-41.195c2.05,-1.728 14.878,4.062 17.293,4.714c20.766,5.605 41.979,9.658 62.166,17.228c81.297,30.485 113.592,122.446 72.162,198.272Z" style="fill:#badcbe;"/><path d="M2296.02,2256.52c-1.16,-0.443 -12.704,-4.809 -17.31,-5.455c-7.421,-1.04 -12.65,1.672 -15.409,3.998c-2.601,2.191 -6.946,7.116 -6.06,15.944c0.775,7.729 13.508,38.924 14.533,42.539c5.805,20.48 9.552,52.236 19.783,83.463c17.097,52.18 50.85,102.638 133.093,107.647c6.448,0.393 12.542,-2.976 15.639,-8.645c46.373,-84.873 10.061,-187.746 -80.936,-221.869c-20.573,-7.715 -42.168,-11.925 -63.333,-17.622Zm3.291,35.246c16.262,4.027 32.624,7.695 48.338,13.587c68.167,25.562 97.066,100.255 68.189,164.987l0,-0c-56.379,-7.539 -80.026,-45.319 -92.604,-83.71c-10.071,-30.737 -13.676,-62.015 -19.39,-82.174c-0.329,-1.161 -2.241,-6.463 -4.533,-12.69Z" style="fill:#7e4021;"/><path d="M2377.66,2440.18c18.848,24.204 35.59,57.09 46.559,85.621c3.301,8.586 12.952,12.876 21.538,9.575c8.585,-3.301 12.876,-12.951 9.575,-21.537c-12.07,-31.395 -30.632,-67.505 -51.372,-94.139c-5.652,-7.257 -16.133,-8.561 -23.39,-2.91c-7.258,5.652 -8.562,16.133 -2.91,23.39Z" style="fill:#7e4021;"/><path d="M1313.34,2365.86c-15.297,-0.377 -30.639,-24.896 -38.673,-37.142c-26.238,-39.998 -5.827,-81.867 18.978,-116.645c5.43,-7.612 15.093,-26.048 24.327,-29.675c17.355,-6.818 36.654,44.443 40.219,54.362c16.658,46.352 -9.715,99.197 -44.851,129.1Z" style="fill:#badcbe;"/><path d="M1312.93,2382.52c4.098,0.101 8.09,-1.312 11.213,-3.969c40.001,-34.044 68.698,-94.66 49.733,-147.43c-2.789,-7.761 -14.522,-37.996 -27.769,-52.926c-10.705,-12.065 -23.254,-15.623 -34.228,-11.312c-4.798,1.885 -9.949,5.708 -14.663,11.011c-6.753,7.596 -13.097,18.833 -17.139,24.499c-28.721,40.27 -49.726,89.152 -19.344,135.465c6.37,9.711 17.067,26.016 28.694,35.203c7.531,5.95 15.646,9.265 23.503,9.459Zm8.6,-181.503c1.145,1.274 2.39,2.757 3.272,4.06c8.766,12.939 15.762,31.911 17.705,37.318c13.199,36.728 -6.075,77.791 -32.804,104.193c-2.04,-1.661 -4,-3.68 -5.885,-5.832c-6.203,-7.08 -11.524,-15.557 -15.214,-21.182c-22.109,-33.703 -2.29,-68.52 18.611,-97.825c2.725,-3.821 6.515,-10.356 10.78,-16.393c0.929,-1.315 2.288,-2.931 3.535,-4.339Z" style="fill:#7e4021;"/><path d="M2752.87,2405.3c-2.317,-17.846 -14.98,-45.482 -32.06,-66.484c-13.286,-16.337 -29.242,-28.315 -43.181,-33.02c-73.638,-24.856 -132.793,36.867 -138.461,105.23c-2.948,35.546 11.913,87.442 40.59,117.34c24.407,25.445 56.993,37.665 96.137,23.445c47.044,-17.089 86.037,-76.705 76.975,-146.511Zm-73.545,9.548c4.006,30.852 -7.96,59.706 -28.752,67.259c-10.52,3.821 -17.559,-4.082 -23.02,-12.362c-10.394,-15.756 -15.761,-37.117 -14.478,-52.591c1.889,-22.772 16.306,-49.372 40.836,-41.092c3.429,1.158 6.094,5.527 9.362,9.545c7.719,9.492 15.005,21.176 16.052,29.241Z" style="fill:#9964bb;"/><path d="M2769.4,2403.15c-2.602,-20.047 -16.47,-51.261 -35.656,-74.853c-15.546,-19.116 -34.472,-32.791 -50.781,-38.296c-84.731,-28.601 -153.88,40.983 -160.402,119.644c-3.272,39.469 13.331,97.057 45.172,130.254c28.894,30.123 67.515,44.407 113.855,27.573c52.96,-19.238 98.015,-85.737 87.812,-164.322Zm-33.055,4.292c7.923,61.032 -25.007,113.759 -66.138,128.7c-31.947,11.606 -58.498,1.45 -78.418,-19.317c-25.512,-26.599 -38.631,-72.803 -36.009,-104.426c4.815,-58.072 53.968,-111.93 116.522,-90.816c11.57,3.906 24.553,14.184 35.581,27.745c14.973,18.413 26.43,42.468 28.462,58.114Zm-40.489,5.256c-1.332,-10.26 -9.83,-25.536 -19.649,-37.61c-5.506,-6.77 -11.187,-12.871 -16.962,-14.821c-19.962,-6.738 -35.91,0.382 -47.151,14.153c-8.894,10.896 -14.41,26.691 -15.625,41.353c-1.539,18.564 4.705,44.244 17.175,63.146c9.741,14.767 23.858,25.665 42.623,18.849c26.671,-9.689 44.728,-45.493 39.589,-85.07Zm-49.267,-21.302c0.997,1.27 2.646,3.357 3.756,4.723c5.625,6.916 11.692,14.994 12.455,20.871c1.594,12.271 0.154,24.162 -3.895,33.719c-2.948,6.96 -7.146,12.737 -12.977,15.305c-1.079,-1.189 -3.321,-3.724 -4.46,-5.451c-8.319,-12.609 -12.807,-29.652 -11.78,-42.036c0.673,-8.111 3.309,-17.001 8.229,-23.028c2.187,-2.679 5.057,-4.553 8.672,-4.103Z" style="fill:#7e4021;"/><path d="M2915.77,2299.44c16.209,7.818 46.271,12.326 73.195,9.51c20.943,-2.191 39.696,-9.001 51.257,-18.099c61.077,-48.064 41.742,-131.343 -12.397,-173.469c-28.15,-21.903 -79.727,-37.837 -120.439,-30.174c-34.65,6.522 -62.699,27.123 -72.197,67.672c-11.414,48.733 17.179,113.979 80.581,144.56Zm32.219,-66.798c-28.022,-13.515 -45.637,-39.31 -40.593,-60.849c2.553,-10.898 13.019,-12.469 22.938,-12.515c18.875,-0.088 39.694,7.099 51.949,16.634c18.034,14.033 32.421,40.649 12.076,56.66c-2.843,2.237 -7.959,2.08 -13.11,2.619c-12.168,1.273 -25.935,0.985 -33.26,-2.549Z" style="fill:#9964bb;"/><path d="M2908.53,2314.45c18.208,8.783 51.925,14.239 82.169,11.075c24.505,-2.564 46.304,-10.933 59.831,-21.578c70.276,-55.304 49.825,-151.248 -12.47,-199.72c-31.256,-24.321 -88.551,-41.908 -133.757,-33.399c-41.02,7.72 -74.097,32.247 -85.341,80.25c-12.85,54.862 18.192,128.946 89.568,163.372Zm14.481,-30.023c-55.433,-26.737 -81.574,-83.139 -71.594,-125.747c7.751,-33.094 30.772,-49.771 59.051,-55.094c36.22,-6.817 82.079,7.463 107.122,26.949c45.99,35.784 64.208,106.388 12.325,147.217c-9.595,7.552 -25.301,12.802 -42.684,14.621c-23.604,2.469 -50.009,-1.092 -64.22,-7.946Zm17.737,-36.774c9.319,4.495 26.756,5.732 42.235,4.113c8.678,-0.908 16.893,-2.328 21.683,-6.098c16.556,-13.029 19.315,-30.275 13.931,-47.217c-4.26,-13.404 -14.468,-26.658 -26.079,-35.693c-14.702,-11.44 -39.617,-20.253 -62.262,-20.148c-17.69,0.082 -34.534,5.943 -39.087,25.381c-6.471,27.629 13.634,62.324 49.579,79.662Zm44.774,-29.602c-1.608,0.141 -4.257,0.38 -6.007,0.563c-8.866,0.927 -18.948,1.59 -24.286,-0.984c-11.145,-5.376 -20.314,-13.083 -26.102,-21.699c-4.215,-6.274 -6.757,-12.947 -5.718,-19.234c1.585,-0.253 4.933,-0.744 7.002,-0.754c15.106,-0.07 31.829,5.491 41.637,13.122c6.423,4.998 12.425,12.067 14.781,19.482c1.048,3.295 1.048,6.723 -1.307,9.504Z" style="fill:#7e4021;"/><path d="M2033.82,2328.28c-1.032,0.19 -7.923,1.476 -10.352,2.308c-4.27,1.463 -7.064,3.812 -8.691,5.71c-3.188,3.72 -4.383,7.854 -4.177,12.13c0.174,3.596 1.224,8.406 6.524,12.841c6.268,5.244 15.272,5.09 21.338,0.039c2.543,-0.535 5.496,-1.215 6.849,-1.73c3.399,-1.296 7.634,-3.355 11.922,-5.1c2.006,-0.817 3.931,-1.847 5.63,-1.847c9.199,0 16.667,-7.468 16.667,-16.666c-0,-9.199 -7.468,-16.667 -16.667,-16.667c-8.621,0 -20.848,5.827 -29.043,8.982Zm5.57,8.217l0.202,0.197l-0.044,-0.046l-0.158,-0.151Zm-0.293,-0.28c-0.186,-0.173 -0.38,-0.344 -0.583,-0.514l0.583,0.514Z" style="fill:#7e4021;"/><path d="M3095.84,2620.8c-2.543,0.535 -5.496,1.215 -6.849,1.73c-3.4,1.296 -7.634,3.355 -11.922,5.101c-2.006,0.816 -3.931,1.846 -5.63,1.846c-9.199,-0 -16.667,7.468 -16.667,16.666c0,9.199 7.468,16.667 16.667,16.667c8.621,-0 20.848,-5.827 29.043,-8.982c1.032,-0.19 7.923,-1.475 10.352,-2.308c4.27,-1.463 7.064,-3.812 8.691,-5.71c3.188,-3.72 4.383,-7.854 4.177,-12.13c-0.174,-3.596 -1.224,-8.406 -6.524,-12.841c-6.268,-5.244 -15.272,-5.09 -21.338,-0.039Zm-0.635,25.091c0.186,0.173 0.38,0.344 0.583,0.514l-0.583,-0.514Zm-0.451,-0.431l0.158,0.151l-0.202,-0.197l0.044,0.046Z" style="fill:#7e4021;"/><path d="M2177.52,2374.47c2.391,-5.401 1.832,-11.912 -2.02,-16.922c-5.607,-7.292 -16.079,-8.661 -23.372,-3.055c-2.75,2.115 -6.579,6.787 -7.654,14.515c-1.081,7.773 0.438,24.18 0.379,27.908c-0.147,9.197 7.202,16.784 16.399,16.93c9.197,0.146 16.783,-7.202 16.93,-16.399c0.044,-2.794 -0.521,-19.019 -0.662,-22.977Z" style="fill:#7e4021;"/><path d="M2956.78,2607.63c-2.391,5.401 -1.832,11.912 2.02,16.922c5.607,7.293 16.079,8.661 23.371,3.055c2.75,-2.114 6.58,-6.787 7.655,-14.515c1.08,-7.773 -0.438,-24.18 -0.379,-27.908c0.147,-9.197 -7.202,-16.783 -16.399,-16.93c-9.197,-0.146 -16.783,7.202 -16.93,16.399c-0.044,2.794 0.521,19.019 0.662,22.977Z" style="fill:#7e4021;"/><path d="M2055.94,2449.93c2.471,2.638 17.07,18.198 19.584,20.539c6.733,6.268 17.287,5.891 23.555,-0.841c6.268,-6.733 5.892,-17.287 -0.841,-23.555c-2.966,-2.762 -14.909,-16.943 -21.67,-22.421c-6.153,-4.985 -12.094,-5.922 -15.125,-5.761c-9.186,0.487 -16.248,8.34 -15.761,17.525c0.35,6.615 4.521,12.128 10.258,14.514Z" style="fill:#7e4021;"/><path d="M3078.37,2532.17c-2.471,-2.638 -17.07,-18.198 -19.584,-20.539c-6.733,-6.268 -17.287,-5.891 -23.555,0.841c-6.269,6.733 -5.892,17.287 0.841,23.556c2.966,2.761 14.909,16.942 21.669,22.42c6.154,4.985 12.095,5.922 15.126,5.761c9.186,-0.487 16.248,-8.34 15.761,-17.525c-0.35,-6.615 -4.521,-12.128 -10.258,-14.514Z" style="fill:#7e4021;"/><path d="M2237.39,2453.22c-7.441,-1.132 -14.968,2.923 -17.927,10.198c-3.466,8.52 0.637,18.252 9.158,21.718c3.097,1.26 8.039,2.067 14.156,0.994c9.132,-1.602 25.136,-8.596 30.266,-10.089c8.832,-2.57 13.917,-11.827 11.347,-20.659c-2.57,-8.833 -11.827,-13.917 -20.66,-11.347c-3.399,0.989 -11.648,4.479 -19.4,7.15c-2.347,0.808 -5.708,1.714 -6.94,2.035Z" style="fill:#7e4021;"/><path d="M2896.91,2528.88c7.442,1.132 14.968,-2.923 17.928,-10.198c3.466,-8.52 -0.638,-18.252 -9.158,-21.718c-3.098,-1.26 -8.039,-2.067 -14.156,-0.994c-9.132,1.602 -25.136,8.596 -30.266,10.089c-8.832,2.57 -13.917,11.827 -11.347,20.659c2.57,8.833 11.827,13.917 20.66,11.347c3.399,-0.989 11.648,-4.479 19.4,-7.15c2.347,-0.808 5.708,-1.714 6.939,-2.035Z" style="fill:#7e4021;"/><path d="M2257.02,2373.49c-0.524,-1.615 -1.52,-4.647 -1.841,-5.451c-3.417,-8.541 -13.125,-12.7 -21.666,-9.283c-8.54,3.417 -12.7,13.125 -9.283,21.665c0.808,2.019 2.678,8.298 4.682,11.424c2.478,3.865 5.624,6.163 8.377,7.402c8.389,3.773 18.264,0.025 22.037,-8.364c2.678,-5.954 1.567,-12.657 -2.306,-17.393Z" style="fill:#7e4021;"/><path d="M2826.73,2625.56c0.524,1.616 1.519,4.648 1.841,5.452c3.417,8.54 13.125,12.7 21.665,9.283c8.541,-3.417 12.7,-13.125 9.283,-21.666c-0.808,-2.019 -2.677,-8.298 -4.681,-11.423c-2.479,-3.866 -5.625,-6.164 -8.378,-7.402c-8.389,-3.774 -18.263,-0.026 -22.036,8.363c-2.679,5.955 -1.568,12.657 2.306,17.393Z" style="fill:#7e4021;"/><path d="M2134.03,2224.93c-3.913,-5.794 -11.239,-8.708 -18.332,-6.707c-7.85,2.215 -10.708,6.972 -12.097,10.095c-2.201,4.945 -2.404,10.429 1.101,16.163c1.248,2.043 3.797,5.021 8.155,7.48c4.319,2.436 13.525,5.533 17.541,7.695c8.1,4.359 18.216,1.322 22.575,-6.778c4.359,-8.101 1.322,-18.216 -6.778,-22.575c-2.31,-1.243 -8.059,-3.679 -12.165,-5.373Zm-7.944,24.931l-0.358,0.131l0.144,-0.046l0.214,-0.085Zm0.905,-0.368l-0.295,0.125l0.204,-0.081l0.091,-0.044Z" style="fill:#7e4021;"/><path d="M3000.28,2757.16c3.913,5.794 11.239,8.708 18.332,6.707c7.85,-2.215 10.708,-6.972 12.097,-10.095c2.201,-4.945 2.404,-10.429 -1.101,-16.163c-1.248,-2.043 -3.797,-5.021 -8.156,-7.48c-4.318,-2.436 -13.524,-5.533 -17.54,-7.694c-8.1,-4.36 -18.216,-1.323 -22.575,6.778c-4.359,8.1 -1.322,18.215 6.778,22.574c2.31,1.243 8.059,3.679 12.165,5.373Zm7.13,-24.607l-0.091,0.044l0.294,-0.125l-0.203,0.081Zm1.027,-0.409l-0.214,0.085l0.359,-0.131l-0.145,0.046Z" style="fill:#7e4021;"/><path d="M2771.3,2656.62c-2.396,-2.99 -5.675,-6.967 -7.28,-8.472c-6.711,-6.291 -17.267,-5.951 -23.558,0.759c-6.292,6.71 -5.952,17.266 0.759,23.558c2.521,2.364 6.631,8.535 9.262,11.222c3.282,3.352 6.586,4.923 8.665,5.571c6.807,2.122 12.209,0.274 16.438,-3.408c2.444,-2.127 6.234,-6.148 6.005,-14.3c-0.191,-6.774 -4.407,-12.495 -10.291,-14.93Zm-23.027,14.824l-0.001,0.098l0.019,-0.382l-0.018,0.284Zm0.062,-0.983l-0.009,0.149l0.032,-0.329l-0.023,0.18Z" style="fill:#7e4021;"/><path d="M2181.38,2988.84c1.002,7.52 2.556,15.307 3.849,22.865c1.55,9.067 10.17,15.17 19.237,13.619c9.067,-1.55 15.169,-10.17 13.619,-19.237c-1.224,-7.158 -2.715,-14.528 -3.664,-21.65c-1.215,-9.118 -9.604,-15.535 -18.722,-14.32c-9.118,1.215 -15.534,9.605 -14.319,18.723Z" style="fill:#7e4021;"/><path d="M2141.91,3114.66c0.45,-0.143 0.897,-0.312 1.339,-0.501c8.459,-3.613 12.393,-13.415 8.78,-21.874c-1.1,-2.574 -8.364,-14.527 -22.431,-8.682c-4.134,1.717 -23.625,13.297 -24.972,14.071c-7.974,4.586 -10.725,14.783 -6.14,22.757c4.586,7.974 14.782,10.725 22.757,6.139l20.667,-11.91Zm-10.138,0.086c-4.51,-1.396 -8.399,-4.689 -10.397,-9.367c1.726,4.042 4.77,7.763 10.397,9.367Z" style="fill:#7e4021;"/><path d="M2053.11,3025.41c5.581,3.2 12.763,2.998 18.248,-1.086c7.379,-5.493 8.91,-15.943 3.417,-23.321c-2.072,-2.783 -5.439,-5.582 -10.316,-7.22c-5.114,-1.718 -14.684,-1.807 -17.757,-2.139c-9.145,-0.989 -17.373,5.633 -18.362,14.778c-0.989,9.145 5.633,17.373 14.778,18.362c1.497,0.162 7.573,0.497 9.992,0.626Z" style="fill:#7e4021;"/><path d="M1996.48,3122.97c-3.069,-8.46 -12.355,-12.98 -20.939,-10.112c-8.724,2.915 -13.441,12.365 -10.526,21.089c1.516,4.539 5.54,9.982 8.383,14.262c5.091,7.662 15.444,9.749 23.106,4.658c7.661,-5.091 9.748,-15.444 4.658,-23.105c-1.342,-2.02 -4.468,-6.487 -4.682,-6.792Z" style="fill:#7e4021;"/><path d="M1981.51,2854.95c-6.62,2.755 -10.945,9.615 -10.164,17.111c0.953,9.149 9.155,15.803 18.304,14.849c2.206,-0.229 6.012,-1.224 10.199,-4.059c4.452,-3.015 12.104,-10.326 14.703,-12.141c7.542,-5.266 9.39,-15.664 4.124,-23.206c-5.266,-7.543 -15.665,-9.39 -23.207,-4.125c-2.273,1.588 -11.984,9.881 -13.959,11.571Z" style="fill:#7e4021;"/><path d="M2143.95,2836.72c-0.624,-2.719 -1.945,-5.317 -3.969,-7.516c-6.231,-6.766 -16.784,-7.2 -23.55,-0.969c-1.643,1.513 -7.819,7.678 -4.453,18.179c1.46,4.556 11.575,24.852 12.618,27.119c3.845,8.356 13.75,12.019 22.107,8.175c8.356,-3.845 12.019,-13.751 8.175,-22.108c-0.823,-1.787 -9.405,-19.702 -10.928,-22.88Z" style="fill:#7e4021;"/><path d="M1458.69,2498.56c1.581,2.418 9.876,15.069 12.284,18.229c5.574,7.318 16.04,8.733 23.357,3.159c7.318,-5.574 8.733,-16.04 3.159,-23.358c-2.664,-3.497 -7.676,-12.873 -12.566,-18.772c-4.756,-5.74 -10.17,-9.108 -14.439,-10.239c-8.892,-2.355 -18.023,2.951 -20.379,11.843c-2.051,7.742 1.707,15.666 8.584,19.138Z" style="fill:#7e4021;"/><path d="M1493.11,2596.07c-1.412,1.476 -2.943,3.122 -3.622,3.996c-3.885,4.996 -8.187,9.667 -12.274,14.496c-5.942,7.022 -5.066,17.547 1.955,23.489c7.022,5.943 17.547,5.067 23.489,-1.955c4.384,-5.18 8.977,-10.209 13.144,-15.569c1.612,-2.073 5.616,-5.655 7.256,-7.967c2.61,-3.679 3.471,-7.21 3.671,-9.654c0.412,-5.05 -1.158,-9.18 -3.988,-12.54c-2.293,-2.724 -6.051,-5.969 -13.046,-6.221c-7.761,-0.28 -14.481,4.804 -16.585,11.925Zm14.596,21.338c0.256,0.023 0.519,0.039 0.788,0.049l-0.788,-0.049Zm-0.635,-0.065l0.282,0.029l-0.36,-0.04l0.078,0.011Z" style="fill:#7e4021;"/><path d="M1361.01,2693.59c-6.263,-0.007 -12.517,0.339 -18.771,0.65c-9.187,0.456 -16.276,8.285 -15.82,17.473c0.456,9.187 8.285,16.275 17.473,15.819c5.826,-0.289 11.65,-0.632 17.485,-0.61c0.863,0.003 2.616,-0.179 4.257,-0.38c5.82,1.385 12.197,-0.421 16.408,-5.233c4.952,-5.659 4.702,-10.843 4.207,-14.071c-0.772,-5.029 -3.339,-9.493 -8.837,-12.41c-1.533,-0.814 -3.598,-1.619 -6.241,-1.937c-1.872,-0.224 -8.997,0.567 -10.161,0.699Zm-6.201,8.875l-0.036,0.068l0.036,-0.068Zm0.245,-0.445c0.534,-0.932 1.169,-1.824 1.904,-2.663c-0.793,0.906 -1.416,1.798 -1.904,2.663Z" style="fill:#7e4021;"/><path d="M1172.48,2567.29c-2.129,2.109 -3.713,4.819 -4.459,7.946c-2.135,8.947 3.396,17.945 12.344,20.079c7.432,1.773 12.972,-0.416 17.397,-4.63c2.184,-2.08 4.22,-5.075 5.498,-8.998c0.647,-1.985 1.51,-6.521 1.768,-7.912c4.285,-8.108 8.531,-16.233 12.911,-24.292c4.393,-8.082 1.397,-18.21 -6.685,-22.602c-8.082,-4.393 -18.21,-1.398 -22.602,6.685c-4.62,8.5 -9.094,17.072 -13.617,25.623c-0.902,1.705 -1.872,5.261 -2.555,8.101Z" style="fill:#7e4021;"/><path d="M1294.59,2526.33c0.972,2.705 6.122,16.992 7.398,19.646c3.986,8.29 13.953,11.785 22.243,7.799c8.29,-3.986 11.785,-13.953 7.798,-22.243c-1.441,-2.999 -5.004,-14.972 -7.764,-20.511c-2.592,-5.201 -5.959,-8.15 -8.014,-9.42c-7.826,-4.835 -18.104,-2.408 -22.939,5.418c-3.837,6.208 -3.101,13.961 1.278,19.311Z" style="fill:#7e4021;"/><path d="M1273.12,2622.48c-0.498,1.221 -3.375,8.273 -4.023,9.647c-3.922,8.321 -0.35,18.26 7.971,22.182c8.32,3.921 18.26,0.35 22.181,-7.971c1.054,-2.236 5.101,-12.006 5.697,-13.876c3.566,-11.19 -4.223,-17.361 -5.224,-18.185c-3.994,-3.292 -8.933,-4.933 -15.144,-3.175c-5.727,1.621 -9.905,6.052 -11.458,11.378Z" style="fill:#7e4021;"/><path d="M1359.78,2579.45c-6.209,1.47 -11.287,6.463 -12.542,13.134c-1.361,7.235 1.348,11.57 3.444,14.179c3.045,3.792 7.274,6.291 13.118,6.345c1.771,0.017 3.983,-0.23 6.468,-1.165c1.731,-0.652 7.414,-4.466 8.612,-5.277c5.446,-2.612 10.851,-5.324 16.245,-8.043c8.214,-4.14 11.522,-14.17 7.382,-22.384c-4.14,-8.214 -14.17,-11.522 -22.385,-7.382c-5.389,2.716 -10.789,5.428 -16.233,8.032c-0.883,0.423 -2.574,1.52 -4.109,2.561Zm20.495,16.793c-0.029,0.829 -0.12,1.666 -0.278,2.505c0.167,-0.889 0.255,-1.723 0.278,-2.505Zm0.008,-0.7l-0.005,0.562l0.008,-0.459l-0.003,-0.103Z" style="fill:#7e4021;"/><path d="M1337.6,2425.09c1.096,0.681 2.218,1.361 2.812,1.676c4.985,2.647 10.047,5.148 15.101,7.659c8.239,4.091 18.249,0.725 22.341,-7.513c4.092,-8.239 0.725,-18.249 -7.513,-22.341c-4.784,-2.376 -9.577,-4.739 -14.294,-7.244c-1.815,-0.964 -5.402,-3.433 -7.438,-4.349c-3.939,-1.77 -7.348,-1.877 -9.444,-1.679c-6.257,0.591 -10.358,3.775 -12.991,8.175c-1.678,2.807 -3.879,7.542 -1.394,14.687c2.05,5.892 7.083,9.904 12.82,10.929Zm18.939,-21.007c0.462,1.6 0.671,3.219 0.65,4.813c0.049,-1.425 -0.121,-3.027 -0.65,-4.813Z" style="fill:#7e4021;"/><path d="M1575.21,2796.94c-8.906,2.812 -14.03,12.23 -11.472,21.282c0.187,0.661 7.949,17.263 23.819,11.202c5.271,-2.013 31.467,-13.002 33.311,-13.803c8.523,-3.704 19.372,-9.741 30.486,-15.089c6.632,-3.191 13.354,-6.146 19.617,-7.851c2.532,-0.688 4.942,-1.18 7.18,-1.216c0.636,-0.01 1.277,-0.408 1.707,-0.019c1.551,1.402 1.555,4.078 1.869,7.694c0.831,9.554 9.262,16.636 18.815,15.805c9.553,-0.831 16.635,-9.262 15.804,-18.815c-1.35,-15.53 -6.942,-25.053 -13.691,-30.911c-7.579,-6.579 -17.434,-9.33 -28.91,-8.292c-20.416,1.848 -48.637,18.962 -66.726,26.823c-1.722,0.748 -30.432,12.62 -31.809,13.19Z" style="fill:#ffce7b;"/><path d="M1662.12,2832.37c10.263,10.91 25.24,17.18 41.306,15.783c27.881,-2.425 48.549,-27.029 46.124,-54.911c-2.348,-27.009 -13.311,-43.007 -25.048,-53.195c-14.16,-12.292 -32.325,-18.257 -53.765,-16.317c-23.405,2.117 -56.269,20.436 -77.007,29.448c-1.538,0.668 -25.016,10.376 -30.273,12.55l0.014,-0.005c-24.955,8.849 -39.118,35.713 -31.814,61.562c0.228,0.807 3.151,10.021 10.886,18.861c10.827,12.374 29.768,24.781 56.903,14.418c5.49,-2.097 32.782,-13.537 34.702,-14.372c7.901,-3.433 17.74,-8.77 27.972,-13.822Zm-86.914,-35.43c-8.906,2.812 -14.03,12.23 -11.472,21.282c0.187,0.661 7.949,17.263 23.819,11.202c5.271,-2.013 31.467,-13.002 33.311,-13.803c8.523,-3.704 19.372,-9.741 30.486,-15.089c6.632,-3.191 13.354,-6.146 19.617,-7.851c2.532,-0.688 4.942,-1.18 7.18,-1.216c0.636,-0.01 1.277,-0.408 1.707,-0.019c1.551,1.402 1.555,4.078 1.869,7.694c0.831,9.554 9.262,16.636 18.815,15.805c9.553,-0.831 16.635,-9.262 15.804,-18.815c-1.35,-15.53 -6.942,-25.053 -13.691,-30.911c-7.579,-6.579 -17.434,-9.33 -28.91,-8.292c-20.416,1.848 -48.637,18.962 -66.726,26.823c-1.722,0.748 -30.432,12.62 -31.809,13.19Z" style="fill:#7e4021;"/><path d="M1510.46,3097.81c3.038,0.831 6.801,1.823 8.523,2.149c9.78,1.847 19.397,4.523 28.982,7.172c9.243,2.555 18.821,-2.875 21.376,-12.118c2.555,-9.243 -2.875,-18.821 -12.118,-21.376c-10.51,-2.905 -21.065,-5.798 -31.788,-7.824c-3.507,-0.663 -10.71,-3.098 -14.553,-3.644c-4.829,-0.686 -8.561,0.17 -10.737,1.01c-6.463,2.497 -9.722,7.124 -11.016,12.552c-0.803,3.37 -1.503,8.98 3.461,15.595c4.268,5.686 11.361,8.01 17.87,6.484Z" style="fill:#ffce7b;"/><path d="M1507.85,3131.58c2.014,0.502 3.815,0.92 4.942,1.133c8.874,1.677 17.591,4.143 26.29,6.548c26.975,7.455 54.929,-8.392 62.384,-35.367c7.456,-26.975 -8.391,-54.929 -35.366,-62.385c-11.397,-3.15 -22.851,-6.252 -34.479,-8.449c-3.861,-0.729 -11.822,-3.291 -16.053,-3.892c-12.356,-1.755 -21.87,0.768 -27.437,2.918c-18.471,7.136 -27.731,20.404 -31.429,35.916c-2.229,9.346 -4.544,24.987 9.225,43.334c10.241,13.646 26.061,20.662 41.923,20.244Zm2.607,-33.769c3.038,0.831 6.801,1.823 8.523,2.149c9.78,1.847 19.397,4.523 28.982,7.172c9.243,2.555 18.821,-2.875 21.376,-12.118c2.555,-9.243 -2.875,-18.821 -12.118,-21.376c-10.51,-2.905 -21.065,-5.798 -31.788,-7.824c-3.507,-0.663 -10.71,-3.098 -14.553,-3.644c-4.829,-0.686 -8.561,0.17 -10.737,1.01c-6.463,2.497 -9.722,7.124 -11.016,12.552c-0.803,3.37 -1.503,8.98 3.461,15.595c4.268,5.686 11.361,8.01 17.87,6.484Z" style="fill:#7e4021;"/><path d="M3206.04,2791.49c2.07,-2.374 4.6,-5.331 5.642,-6.741c5.915,-8.003 12.506,-15.501 19.059,-22.981c6.319,-7.213 5.594,-18.199 -1.619,-24.518c-7.213,-6.319 -18.199,-5.594 -24.519,1.619c-7.185,8.202 -14.379,16.449 -20.866,25.224c-2.121,2.87 -7.446,8.298 -9.608,11.521c-2.718,4.051 -3.57,7.784 -3.759,10.109c-0.562,6.906 2.189,11.852 6.514,15.377c2.685,2.189 7.433,5.258 15.549,3.664c6.975,-1.371 12.153,-6.749 13.607,-13.274Z" style="fill:#ffce7b;"/><path d="M3235.32,2808.52c1.327,-1.596 2.487,-3.035 3.169,-3.957c5.368,-7.263 11.379,-14.041 17.326,-20.829c18.443,-21.05 16.325,-53.114 -4.725,-71.556c-21.051,-18.443 -53.114,-16.325 -71.557,4.725c-7.792,8.894 -15.565,17.861 -22.599,27.377c-2.336,3.159 -8.104,9.215 -10.485,12.764c-6.952,10.364 -8.817,20.028 -9.301,25.977c-1.605,19.736 6.318,33.843 18.679,43.918c7.448,6.07 20.527,14.956 43.035,10.532c16.741,-3.289 29.938,-14.484 36.458,-28.951Zm-29.278,-17.03c2.07,-2.374 4.6,-5.331 5.642,-6.741c5.915,-8.003 12.506,-15.501 19.059,-22.981c6.319,-7.213 5.594,-18.199 -1.619,-24.518c-7.213,-6.319 -18.199,-5.594 -24.519,1.619c-7.185,8.202 -14.379,16.449 -20.866,25.224c-2.121,2.87 -7.446,8.298 -9.608,11.521c-2.718,4.051 -3.57,7.784 -3.759,10.109c-0.562,6.906 2.189,11.852 6.514,15.377c2.685,2.189 7.433,5.258 15.549,3.664c6.975,-1.371 12.153,-6.749 13.607,-13.274Z" style="fill:#7e4021;"/><path d="M1782.23,3213.85c-0.954,2.58 -2.13,5.787 -2.614,7.206c-2.886,8.448 -6.547,16.447 -10.925,24.226c-8.588,15.261 -20.875,31.693 -28.562,49.1c-6.264,14.188 -9.661,28.993 -7.752,44.27c1.19,9.516 9.881,16.275 19.396,15.086c9.516,-1.189 16.275,-9.88 15.086,-19.396c-1.453,-11.625 3.007,-22.605 8.598,-33.187c7.218,-13.66 16.642,-26.612 23.518,-38.83c5.426,-9.642 9.949,-19.565 13.525,-30.037c1.083,-3.171 3.87,-10.006 4.782,-13.562c1.091,-4.26 0.808,-7.617 0.457,-9.412c-1.867,-9.554 -8.104,-13.233 -14.921,-14.167c-2.807,-0.384 -8.657,-0.969 -15.091,5.029c-3.922,3.655 -5.772,8.705 -5.497,13.674Z" style="fill:#ffce7b;"/><path d="M1749.19,3207.12l-1.124,3.163c-2.223,6.506 -5.058,12.66 -8.43,18.652c-9.075,16.126 -21.883,33.59 -30.006,51.984c-8.743,19.802 -13,40.547 -10.335,61.869c3.472,27.77 28.836,47.498 56.607,44.027c27.77,-3.471 47.498,-28.836 44.027,-56.606c-0.61,-4.875 2.65,-9.043 4.994,-13.48c7.078,-13.394 16.352,-26.074 23.095,-38.055c6.432,-11.43 11.781,-23.198 16.02,-35.61c1.28,-3.746 4.45,-11.86 5.527,-16.06c2.792,-10.894 1.78,-19.493 0.883,-24.084c-5.387,-27.56 -23.444,-38.102 -43.111,-40.796c-7.85,-1.076 -24.346,-3.107 -42.344,13.669c-9.187,8.562 -14.485,19.746 -15.803,31.327Zm33.034,6.731c-0.954,2.58 -2.13,5.787 -2.614,7.206c-2.886,8.448 -6.547,16.447 -10.925,24.226c-8.588,15.261 -20.875,31.693 -28.562,49.1c-6.264,14.188 -9.661,28.993 -7.752,44.27c1.19,9.516 9.881,16.275 19.396,15.086c9.516,-1.189 16.275,-9.88 15.086,-19.396c-1.453,-11.625 3.007,-22.605 8.598,-33.187c7.218,-13.66 16.642,-26.612 23.518,-38.83c5.426,-9.642 9.949,-19.565 13.525,-30.037c1.083,-3.171 3.87,-10.006 4.782,-13.562c1.091,-4.26 0.808,-7.617 0.457,-9.412c-1.867,-9.554 -8.104,-13.233 -14.921,-14.167c-2.807,-0.384 -8.657,-0.969 -15.091,5.029c-3.922,3.655 -5.772,8.705 -5.497,13.674Z" style="fill:#7e4021;"/><path d="M1895.15,3272.73c14.854,-11.974 25.562,-26.828 46.762,-35.864c8.822,-3.76 12.931,-13.975 9.171,-22.796c-3.76,-8.822 -13.974,-12.931 -22.796,-9.171c-24.615,10.491 -37.7,26.874 -54.946,40.777c-7.466,6.019 -8.641,16.966 -2.622,24.432c6.018,7.466 16.966,8.641 24.431,2.622Z" style="fill:#ffce7b;"/><path d="M1916.07,3298.68c12.563,-10.128 20.98,-23.508 38.911,-31.151c25.746,-10.973 37.739,-40.785 26.765,-66.53c-10.973,-25.746 -40.784,-37.739 -66.53,-26.765c-27.895,11.89 -43.252,29.735 -62.797,45.491c-21.788,17.564 -25.217,49.514 -7.652,71.302c17.565,21.789 49.515,25.218 71.303,7.653Zm-20.921,-25.951c14.854,-11.974 25.562,-26.828 46.762,-35.864c8.822,-3.76 12.931,-13.975 9.171,-22.796c-3.76,-8.822 -13.974,-12.931 -22.796,-9.171c-24.615,10.491 -37.7,26.874 -54.946,40.777c-7.466,6.019 -8.641,16.966 -2.622,24.432c6.018,7.466 16.966,8.641 24.431,2.622Z" style="fill:#7e4021;"/><path d="M1916.8,2730.69c-2.494,2.802 -5.775,6.645 -6.827,8.507c-5.874,10.405 -9.436,22.147 -11.6,33.842c-5.878,31.762 -5.044,73.725 10.882,102.391c4.657,8.383 15.244,11.408 23.627,6.751c8.382,-4.657 11.407,-15.244 6.75,-23.627c-12.297,-22.135 -11.628,-54.666 -7.089,-79.191c1.436,-7.762 3.589,-15.618 7.409,-22.565c0.814,-0.868 5.447,-5.834 6.974,-7.723c2.756,-3.408 3.904,-6.585 4.339,-8.425c2.043,-8.641 -1.421,-14.429 -6.599,-18.297c-2.403,-1.795 -7.266,-5.051 -15.726,-2.89c-5.893,1.505 -10.308,5.866 -12.14,11.227Z" style="fill:#ffce7b;"/><path d="M1888.38,2712.66c-3.144,3.839 -6.181,7.922 -7.44,10.153c-7.677,13.598 -12.522,28.88 -15.351,44.165c-7.163,38.708 -4.889,89.708 14.521,124.645c13.591,24.464 44.488,33.292 68.953,19.7c24.464,-13.591 33.292,-44.488 19.701,-68.953c-8.823,-15.881 -6.708,-39.342 -3.452,-56.938c0.604,-3.258 1.286,-6.595 2.503,-9.694c1.894,-2.083 4.011,-4.447 5.025,-5.702c7.058,-8.729 9.742,-16.997 10.856,-21.71c5.887,-24.891 -4.174,-41.534 -19.089,-52.675c-6.724,-5.022 -20.256,-14.527 -43.924,-8.481c-14.446,3.691 -25.855,13.252 -32.303,25.49Zm28.413,18.034c-2.494,2.802 -5.775,6.645 -6.827,8.507c-5.874,10.405 -9.436,22.147 -11.6,33.842c-5.878,31.762 -5.044,73.725 10.882,102.391c4.657,8.383 15.244,11.408 23.627,6.751c8.382,-4.657 11.407,-15.244 6.75,-23.627c-12.297,-22.135 -11.628,-54.666 -7.089,-79.191c1.436,-7.762 3.589,-15.618 7.409,-22.565c0.814,-0.868 5.447,-5.834 6.974,-7.723c2.756,-3.408 3.904,-6.585 4.339,-8.425c2.043,-8.641 -1.421,-14.429 -6.599,-18.297c-2.403,-1.795 -7.266,-5.051 -15.726,-2.89c-5.893,1.505 -10.308,5.866 -12.14,11.227Z" style="fill:#7e4021;"/><path d="M2114.99,2664.4c0.694,0.425 5.906,5.622 7.173,6.605c7.563,5.872 16.066,9.959 24.722,13.946c32.831,15.124 64.733,33.336 81.479,66.827c4.288,8.577 14.733,12.059 23.31,7.771c8.578,-4.289 12.059,-14.734 7.771,-23.311c-20.395,-40.79 -58.035,-64.43 -98.021,-82.849c-5.89,-2.713 -11.792,-5.291 -17.021,-9.132c-1.129,-1.516 -4.664,-6.194 -6.3,-7.662c-2.685,-2.408 -5.473,-3.742 -7.907,-4.433c-4.54,-1.289 -8.854,-0.873 -12.94,1.068c-2.728,1.296 -5.648,3.403 -8.02,7.281c-5.005,8.18 -2.426,18.884 5.754,23.889Z" style="fill:#ffce7b;"/><path d="M2094.39,2690.69c1.969,1.837 6.315,5.862 7.333,6.652c9.587,7.442 20.244,12.836 31.216,17.89c25.979,11.967 52.361,24.959 65.611,51.459c12.516,25.032 43.001,35.194 68.033,22.678c25.032,-12.516 35.193,-43 22.677,-68.032c-23.898,-47.797 -67.034,-76.634 -113.889,-98.218c-2.778,-1.28 -5.626,-2.388 -8.28,-3.851c-2.393,-2.894 -5.142,-6.057 -6.73,-7.481c-7.136,-6.4 -14.595,-9.85 -21.063,-11.686c-12.753,-3.619 -24.87,-2.426 -36.346,3.027c-7.515,3.571 -15.614,9.311 -22.15,19.994c-13.927,22.766 -7.73,52.23 13.588,67.568Zm20.601,-26.284c0.694,0.425 5.906,5.622 7.173,6.605c7.563,5.872 16.066,9.959 24.722,13.946c32.831,15.124 64.733,33.336 81.479,66.827c4.288,8.577 14.733,12.059 23.31,7.771c8.578,-4.289 12.059,-14.734 7.771,-23.311c-20.395,-40.79 -58.035,-64.43 -98.021,-82.849c-5.89,-2.713 -11.792,-5.291 -17.021,-9.132c-1.129,-1.516 -4.664,-6.194 -6.3,-7.662c-2.685,-2.408 -5.473,-3.742 -7.907,-4.433c-4.54,-1.289 -8.854,-0.873 -12.94,1.068c-2.728,1.296 -5.648,3.403 -8.02,7.281c-5.005,8.18 -2.426,18.884 5.754,23.889Z" style="fill:#7e4021;"/><path d="M2513.34,2757.16c-1.025,7.743 3.306,15.48 10.901,18.449c8.932,3.491 19.017,-0.926 22.508,-9.857c2.044,-5.23 2.11,-13.799 -1.689,-23.285c-4.434,-11.071 -14.071,-25.308 -16.962,-29.923c-30.04,-47.959 -76.499,-69.735 -131.751,-57.156c-9.35,2.129 -15.213,11.448 -13.084,20.798c2.128,9.351 11.448,15.214 20.798,13.085c39.773,-9.055 72.963,7.197 94.588,41.72c2.376,3.793 13.073,23.225 14.691,26.169Z" style="fill:#ffce7b;"/><path d="M2480.34,2766.32c2.438,17.6 14.059,33.408 31.768,40.33c26.067,10.189 55.501,-2.702 65.689,-28.768c4.189,-10.718 5.995,-28.371 -1.791,-47.812c-5.2,-12.985 -16.267,-29.814 -19.657,-35.226c-38.114,-60.848 -97.298,-87.923 -167.4,-71.963c-27.288,6.213 -44.399,33.412 -38.186,60.7c6.213,27.288 33.411,44.399 60.7,38.186c24.927,-5.675 45.386,5.277 58.939,26.913c1.476,2.358 6.369,11.171 9.938,17.641l0,-0.001Zm33.002,-9.165c-1.025,7.743 3.306,15.48 10.901,18.449c8.932,3.491 19.017,-0.926 22.508,-9.857c2.044,-5.23 2.11,-13.799 -1.689,-23.285c-4.434,-11.071 -14.071,-25.308 -16.962,-29.923c-30.04,-47.959 -76.499,-69.735 -131.751,-57.156c-9.35,2.129 -15.213,11.448 -13.084,20.798c2.128,9.351 11.448,15.214 20.798,13.085c39.773,-9.055 72.963,7.197 94.588,41.72c2.376,3.793 13.073,23.225 14.691,26.169Z" style="fill:#7e4021;"/><path d="M2082.93,2534.42c5.179,-1.464 13.276,-3.845 16.76,-5.296c19.055,-7.936 41.242,-7.659 61.484,-10.171c2.062,-0.255 4.121,-0.537 6.181,-0.805c9.509,-1.241 16.222,-9.968 14.982,-19.477c-1.24,-9.509 -9.967,-16.222 -19.476,-14.981c-1.989,0.259 -3.976,0.531 -5.966,0.778c-23.282,2.889 -48.649,3.45 -70.565,12.577c-3.37,1.403 -8.876,2.492 -13.717,3.92c-5.743,1.692 -10.854,3.876 -14.145,6.186c-6.496,4.56 -9.241,10.487 -9.613,16.33c-0.267,4.206 0.593,8.97 4.208,13.948c5.636,7.759 16.51,9.484 24.269,3.849c2.518,-1.829 4.4,-4.209 5.598,-6.858Z" style="fill:#ffce7b;"/><path d="M2102.79,2563.27c3.889,-1.229 7.532,-2.462 9.711,-3.37c16.315,-6.794 35.443,-5.711 52.774,-7.862c2.131,-0.264 4.259,-0.554 6.388,-0.832c27.751,-3.62 47.343,-29.089 43.723,-56.841c-3.619,-27.752 -29.089,-47.344 -56.84,-43.724c-1.92,0.251 -3.838,0.514 -5.76,0.752c-26.2,3.251 -54.612,4.614 -79.275,14.885c-2.522,1.051 -6.703,1.65 -10.328,2.719c-9.757,2.876 -18.279,6.951 -23.871,10.877c-16.386,11.503 -22.79,26.757 -23.727,41.496c-0.682,10.73 1.281,22.954 10.504,35.652c16.445,22.645 48.182,27.678 70.827,11.232c2.113,-1.535 4.072,-3.203 5.874,-4.984Zm-19.864,-28.845c5.179,-1.464 13.276,-3.845 16.76,-5.296c19.055,-7.936 41.242,-7.659 61.484,-10.171c2.062,-0.255 4.121,-0.537 6.181,-0.805c9.509,-1.241 16.222,-9.968 14.982,-19.477c-1.24,-9.509 -9.967,-16.222 -19.476,-14.981c-1.989,0.259 -3.976,0.531 -5.966,0.778c-23.282,2.889 -48.649,3.45 -70.565,12.577c-3.37,1.403 -8.876,2.492 -13.717,3.92c-5.743,1.692 -10.854,3.876 -14.145,6.186c-6.496,4.56 -9.241,10.487 -9.613,16.33c-0.267,4.206 0.593,8.97 4.208,13.948c5.636,7.759 16.51,9.484 24.269,3.849c2.518,-1.829 4.4,-4.209 5.598,-6.858Z" style="fill:#7e4021;"/><path d="M1896.79,2218.07c-0.834,-5.317 -2.23,-13.64 -3.254,-17.273c-5.6,-19.867 -2.673,-41.861 -2.746,-62.259c-0.008,-2.078 -0.041,-4.155 -0.061,-6.233c-0.095,-9.589 -7.956,-17.297 -17.545,-17.203c-9.589,0.094 -17.298,7.956 -17.203,17.545c0.019,2.006 0.052,4.011 0.059,6.016c0.085,23.461 -2.392,48.712 4.05,71.563c0.99,3.513 1.413,9.11 2.251,14.087c0.994,5.904 2.551,11.24 4.451,14.784c3.751,6.994 9.307,10.428 15.063,11.496c4.144,0.768 8.978,0.483 14.352,-2.511c8.377,-4.667 11.39,-15.257 6.723,-23.634c-1.515,-2.718 -3.653,-4.872 -6.14,-6.378Z" style="fill:#ffce7b;"/><path d="M1927.8,2201.8c-0.755,-4.007 -1.543,-7.771 -2.184,-10.044c-4.795,-17.009 -1.433,-35.871 -1.496,-53.335c-0.008,-2.147 -0.041,-4.294 -0.062,-6.441c-0.276,-27.986 -23.22,-50.482 -51.206,-50.207c-27.985,0.276 -50.482,23.22 -50.206,51.206c0.019,1.936 0.051,3.871 0.058,5.807c0.095,26.401 -1.949,54.773 5.3,80.487c0.741,2.63 0.836,6.852 1.464,10.578c1.689,10.031 4.716,18.979 7.945,25.001c9.461,17.644 23.84,25.825 38.361,28.518c10.571,1.961 22.942,1.473 36.652,-6.165c24.449,-13.62 33.24,-44.528 19.62,-68.976c-1.271,-2.282 -2.693,-4.426 -4.246,-6.429Zm-31.013,16.273c-0.834,-5.317 -2.23,-13.64 -3.254,-17.273c-5.6,-19.867 -2.673,-41.861 -2.746,-62.259c-0.008,-2.078 -0.041,-4.155 -0.061,-6.233c-0.095,-9.589 -7.956,-17.297 -17.545,-17.203c-9.589,0.094 -17.298,7.956 -17.203,17.545c0.019,2.006 0.052,4.011 0.059,6.016c0.085,23.461 -2.392,48.712 4.05,71.563c0.99,3.513 1.413,9.11 2.251,14.087c0.994,5.904 2.551,11.24 4.451,14.784c3.751,6.994 9.307,10.428 15.063,11.496c4.144,0.768 8.978,0.483 14.352,-2.511c8.377,-4.667 11.39,-15.257 6.723,-23.634c-1.515,-2.718 -3.653,-4.872 -6.14,-6.378Z" style="fill:#7e4021;"/><path d="M2200.56,2247.17c21.328,1.633 38.973,-2.345 59.907,-7.729c8.909,-2.291 14.281,-11.384 11.99,-20.293c-2.291,-8.908 -11.384,-14.281 -20.293,-11.989c-17.164,4.414 -31.573,8.113 -49.06,6.775c-9.172,-0.703 -17.188,6.174 -17.89,15.345c-0.702,9.172 6.174,17.189 15.346,17.891Z" style="fill:#7e4021;"/><path d="M2225.27,2507.22c-0.636,-0.087 -1.284,-0.133 -1.942,-0.141c-9.198,-0.115 -16.759,7.259 -16.874,16.457c-0.083,6.64 2.517,10.764 5.204,13.533c2.719,2.803 6.155,4.68 10.435,5.299c2.896,0.419 6.892,0.206 11.398,-1.636c4.22,-1.725 10.798,-6.868 14.784,-8.373c8.605,-3.249 12.954,-12.874 9.705,-21.479c-3.25,-8.606 -12.874,-12.954 -21.48,-9.705c-2.471,0.933 -7.544,3.846 -11.23,6.045Zm13.437,10.631c0.723,1.893 1.105,3.953 1.078,6.101c0.03,-2.435 -0.377,-4.438 -1.078,-6.101Z" style="fill:#7e4021;"/><path d="M2451.11,2093.76c-0.097,7.407 -1.437,24.77 -2.686,28.276c-8.561,24.038 -26.966,45.139 -45.156,62.616c-6.915,6.644 -7.135,17.652 -0.491,24.567c6.644,6.915 17.652,7.135 24.567,0.491c21.945,-21.085 43.487,-47.014 53.816,-76.015c2.138,-6.003 5.235,-39.662 4.446,-45.459c-1.555,-11.42 -10.002,-14.339 -12.97,-15.134c-4.323,-1.158 -9.05,-0.955 -13.921,2.149c-6.356,4.05 -9.188,11.556 -7.605,18.509Z" style="fill:#ffce7b;"/><path d="M2416.25,2112.91c-7.197,18.397 -22.009,34.185 -36.075,47.7c-20.181,19.39 -20.824,51.517 -1.434,71.698c19.39,20.181 51.517,20.824 71.698,1.434c25.549,-24.547 50.098,-55.106 62.123,-88.868c2.876,-8.075 7.135,-53.342 6.073,-61.139c-4.433,-32.572 -28.908,-40.568 -37.373,-42.836c-12.564,-3.365 -26.302,-2.785 -40.459,6.236c-16.916,10.779 -25.278,29.949 -23.116,48.631l-0.001,-0.001c-0.29,5.312 -1.152,14.289 -1.436,17.145Zm34.861,-19.155c-0.097,7.407 -1.437,24.77 -2.686,28.276c-8.561,24.038 -26.966,45.139 -45.156,62.616c-6.915,6.644 -7.135,17.652 -0.491,24.567c6.644,6.915 17.652,7.135 24.567,0.491c21.945,-21.085 43.487,-47.014 53.816,-76.015c2.138,-6.003 5.235,-39.662 4.446,-45.459c-1.555,-11.42 -10.002,-14.339 -12.97,-15.134c-4.323,-1.158 -9.05,-0.955 -13.921,2.149c-6.356,4.05 -9.188,11.556 -7.605,18.509Z" style="fill:#7e4021;"/><path d="M2556.01,2234.64c-2.194,0.545 -4.317,1.531 -6.236,2.976c-14.066,10.583 -5.104,23.934 -4.228,25.094c1.651,2.184 7.991,9.963 19.722,5.919c1.386,-0.478 10.14,-5.751 13.948,-6.672c7.782,-1.882 15.854,-2.351 23.837,-2.085c30.711,1.027 62.805,7.74 91.574,18.301c9.002,3.305 18.993,-1.321 22.298,-10.323c3.304,-9.002 -1.321,-18.994 -10.323,-22.298c-32.163,-11.807 -68.054,-19.262 -102.388,-20.41c-11.111,-0.372 -22.334,0.419 -33.165,3.039c-3.173,0.767 -10.764,4.364 -15.039,6.459Z" style="fill:#ffce7b;"/><path d="M2543.9,2203.49c-4.964,1.686 -9.75,4.172 -14.165,7.494c-11.573,8.709 -16.831,18.555 -19.34,27.522c-6.204,22.17 6.781,41.951 8.564,44.309c4.791,6.338 23.137,29.065 57.175,17.331c1.119,-0.385 9.88,-4.756 12.697,-6.168c4.304,-0.826 8.733,-0.933 13.112,-0.787c27.234,0.911 55.687,6.912 81.2,16.278c26.272,9.644 55.432,-3.856 65.076,-30.128c9.645,-26.273 -3.855,-55.433 -30.128,-65.077c-35.418,-13.002 -74.951,-21.169 -112.76,-22.433c-14.113,-0.472 -28.358,0.627 -42.115,3.954c-3.999,0.967 -12.992,4.749 -19.316,7.705Zm12.113,31.154c-2.194,0.545 -4.317,1.531 -6.236,2.976c-14.066,10.583 -5.104,23.934 -4.228,25.094c1.651,2.184 7.991,9.963 19.722,5.919c1.386,-0.478 10.14,-5.751 13.948,-6.672c7.782,-1.882 15.854,-2.351 23.837,-2.085c30.711,1.027 62.805,7.74 91.574,18.301c9.002,3.305 18.993,-1.321 22.298,-10.323c3.304,-9.002 -1.321,-18.994 -10.323,-22.298c-32.163,-11.807 -68.054,-19.262 -102.388,-20.41c-11.111,-0.372 -22.334,0.419 -33.165,3.039c-3.173,0.767 -10.764,4.364 -15.039,6.459Z" style="fill:#7e4021;"/><path d="M2853.83,2373.53c-14.442,22.518 -25.736,48.775 -38.436,74.106c-11.464,22.865 -24.039,45.014 -42.389,61.877c-7.061,6.488 -7.526,17.489 -1.037,24.55c6.488,7.061 17.489,7.525 24.55,1.037c21.416,-19.68 36.562,-45.204 49.941,-71.89c12.142,-24.219 22.813,-49.389 36.622,-70.919c5.177,-8.072 2.827,-18.829 -5.245,-24.006c-8.072,-5.177 -18.829,-2.827 -24.006,5.245Z" style="fill:#ffce7b;"/><path d="M2825.77,2355.54c-15.051,23.466 -26.941,50.764 -40.176,77.161c-9.627,19.203 -19.734,38.111 -35.145,52.272c-20.607,18.937 -21.964,51.041 -3.027,71.649c18.936,20.607 51.041,21.964 71.648,3.027c24.357,-22.382 41.968,-51.144 57.185,-81.494c11.608,-23.153 21.681,-47.281 34.882,-67.864c15.109,-23.557 8.25,-54.95 -15.308,-70.059c-23.557,-15.109 -54.95,-8.25 -70.059,15.308Zm28.058,17.995c-14.442,22.518 -25.736,48.775 -38.436,74.106c-11.464,22.865 -24.039,45.014 -42.389,61.877c-7.061,6.488 -7.526,17.489 -1.037,24.55c6.488,7.061 17.489,7.525 24.55,1.037c21.416,-19.68 36.562,-45.204 49.941,-71.89c12.142,-24.219 22.813,-49.389 36.622,-70.919c5.177,-8.072 2.827,-18.829 -5.245,-24.006c-8.072,-5.177 -18.829,-2.827 -24.006,5.245Z" style="fill:#7e4021;"/><path d="M2827.36,2277.94c-5.335,-2.833 -11.999,-2.798 -17.46,0.665c-8.098,5.135 -10.503,15.879 -5.368,23.978c0.289,0.455 2.692,4.517 9.374,7.402c8.531,3.683 50.075,19.773 56.388,23.571c8.217,4.944 18.902,2.287 23.846,-5.929c4.944,-8.217 2.287,-18.902 -5.93,-23.846c-6.792,-4.087 -51.35,-21.736 -60.529,-25.699l-0.321,-0.142Z" style="fill:#ffce7b;"/><path d="M2841.36,2247.67c-15.277,-7.419 -33.929,-6.973 -49.31,2.781c-23.635,14.988 -30.655,46.345 -15.667,69.98c0.763,1.204 6.645,12.526 24.311,20.154c7.909,3.415 46.562,18.008 52.416,21.53c23.98,14.429 55.163,6.674 69.592,-17.306c14.43,-23.98 6.675,-55.164 -17.305,-69.593c-7.145,-4.299 -53.296,-22.941 -64.037,-27.546Zm17.145,43.074c0.786,-1.881 1.395,-3.861 1.82,-5.919c3.129,-15.138 -4.561,-30.389 -18.476,-36.912l1.145,0.584l-0.311,1.251c1.985,5.568 -1.136,19.336 -5.058,32.448c-4.444,-1.815 -7.993,-3.275 -9.943,-4.117l-0.321,-0.142c-5.335,-2.833 -11.999,-2.798 -17.46,0.665c-8.098,5.135 -10.503,15.879 -5.368,23.978c0.289,0.455 2.692,4.517 9.374,7.402c8.531,3.683 50.075,19.773 56.388,23.571c8.217,4.944 18.902,2.287 23.846,-5.929c4.944,-8.217 2.287,-18.902 -5.93,-23.846c-3.425,-2.061 -16.455,-7.571 -29.706,-13.034Z" style="fill:#7e4021;"/><path d="M1630.79,2291.21c2.559,3.384 6.441,8.552 7.963,10.714c7.532,10.696 11.402,20.595 11.985,33.767c2.007,45.367 -14.819,63.976 -47.638,91.543c-7.342,6.168 -8.296,17.137 -2.128,24.48c6.168,7.342 17.137,8.296 24.479,2.128c42.578,-35.765 62.607,-60.828 60.003,-119.687c-0.9,-20.347 -6.654,-35.717 -18.289,-52.239c-2.654,-3.769 -8.741,-12.216 -12.03,-16.082c-2.31,-2.716 -4.396,-4.355 -5.46,-5.048c-8.342,-5.429 -15.164,-2.554 -18.747,-0.388c-2.252,1.361 -12.901,8.275 -6.713,22.971c1.407,3.341 3.739,6.012 6.575,7.841Z" style="fill:#ffce7b;"/><path d="M1606.81,2314.77c1.86,2.473 3.764,5.029 4.697,6.353c3.597,5.108 5.66,9.758 5.938,16.048c1.435,32.444 -12.307,44.833 -35.776,64.547c-21.43,18.001 -24.214,50.013 -6.213,71.442c18.001,21.43 50.014,24.214 71.443,6.213c51.945,-43.634 75.041,-74.876 71.863,-146.685c-1.204,-27.228 -8.764,-47.846 -24.335,-69.958c-3.056,-4.339 -10.107,-14.035 -13.894,-18.487c-5.292,-6.222 -10.229,-9.8 -12.667,-11.387c-24.104,-15.688 -43.816,-7.237 -54.17,-0.98c-3.885,2.348 -16.123,10.731 -21.719,25.959c-3.55,9.66 -5.247,22.395 1.526,38.478c3.085,7.327 7.698,13.55 13.31,18.459l-0.003,-0.002Zm23.988,-23.553c2.559,3.384 6.441,8.552 7.963,10.714c7.532,10.696 11.402,20.595 11.985,33.767c2.007,45.367 -14.819,63.976 -47.638,91.543c-7.342,6.168 -8.296,17.137 -2.128,24.48c6.168,7.342 17.137,8.296 24.479,2.128c42.578,-35.765 62.607,-60.828 60.003,-119.687c-0.9,-20.347 -6.654,-35.717 -18.289,-52.239c-2.654,-3.769 -8.741,-12.216 -12.03,-16.082c-2.31,-2.716 -4.396,-4.355 -5.46,-5.048c-8.342,-5.429 -15.164,-2.554 -18.747,-0.388c-2.252,1.361 -12.901,8.275 -6.713,22.971c1.407,3.341 3.739,6.012 6.575,7.841Z" style="fill:#7e4021;"/><path d="M1436.65,2191.89c5.723,13.699 0.546,28.961 -1.351,42.369c-2.534,17.912 -1.039,33.58 9.433,45.135c9.078,10.016 27.005,18.415 62.694,18.415c9.589,0 17.374,-7.785 17.374,-17.375c0,-9.589 -7.785,-17.375 -17.374,-17.375c-13.802,0 -23.768,-1.133 -30.845,-3.604c-3.268,-1.141 -5.603,-2.226 -6.698,-4.234c-1.347,-2.471 -1.148,-5.461 -0.969,-8.662c0.345,-6.16 1.658,-12.854 2.735,-19.772c2.489,-15.986 3.54,-32.792 -2.934,-48.292c-3.697,-8.848 -13.882,-13.031 -22.73,-9.335c-8.849,3.696 -13.031,13.881 -9.335,22.73Z" style="fill:#ffce7b;"/><path d="M1504.91,2229.71c3.109,-21.288 3.161,-43.477 -5.437,-64.059c-10.787,-25.824 -40.511,-38.032 -66.335,-27.244c-25.824,10.787 -38.032,40.511 -27.245,66.335c1.019,2.439 -0.179,5.037 -0.58,7.591c-0.927,5.908 -2.236,11.738 -3.017,17.26c-4.086,28.876 0.856,53.562 17.738,72.19c12.808,14.132 37.039,29.364 87.393,29.364c27.986,-0 50.708,-22.722 50.708,-50.709c-0,-27.986 -22.722,-50.708 -50.708,-50.708l-2.517,-0.02Zm-68.259,-37.816c5.723,13.699 0.546,28.961 -1.351,42.369c-2.534,17.912 -1.039,33.58 9.433,45.135c9.078,10.016 27.005,18.415 62.694,18.415c9.589,0 17.374,-7.785 17.374,-17.375c0,-9.589 -7.785,-17.375 -17.374,-17.375c-13.802,0 -23.768,-1.133 -30.845,-3.604c-3.268,-1.141 -5.603,-2.226 -6.698,-4.234c-1.347,-2.471 -1.148,-5.461 -0.969,-8.662c0.345,-6.16 1.658,-12.854 2.735,-19.772c2.489,-15.986 3.54,-32.792 -2.934,-48.292c-3.697,-8.848 -13.882,-13.031 -22.73,-9.335c-8.849,3.696 -13.031,13.881 -9.335,22.73Z" style="fill:#7e4021;"/><path d="M1163.66,2683.24c-1.702,3.472 -4.324,8.649 -5.684,10.599c-7.512,10.765 -19.012,18.35 -29.215,26.369c-20.097,15.796 -49.758,34.352 -68.547,57.317c-15.264,18.658 -23.859,40.042 -19.604,64.504c1.643,9.448 10.647,15.784 20.095,14.141c9.447,-1.643 15.784,-10.647 14.141,-20.095c-3.166,-18.205 7.527,-32.792 20.768,-45.776c17.013,-16.681 39.009,-30.5 54.62,-42.769c12.849,-10.099 26.78,-20.249 36.239,-33.805c4.235,-6.069 12.214,-23.52 12.634,-26.358c1.56,-10.536 -4.73,-15.509 -8.019,-17.563c-1.989,-1.243 -13.949,-8.043 -24.025,5.172c-1.905,2.5 -3.028,5.353 -3.403,8.264Z" style="fill:#ffce7b;"/><path d="M1130.28,2675.25c-5.662,7.813 -14.602,12.842 -22.113,18.746c-21.731,17.079 -53.432,37.585 -73.748,62.417c-21.539,26.327 -32.649,56.804 -26.646,91.322c4.795,27.573 31.074,46.066 58.647,41.27c27.573,-4.795 46.065,-31.074 41.27,-58.646c-0.372,-2.141 0.908,-3.826 2.012,-5.541c2.465,-3.829 5.778,-7.315 9.254,-10.723c16.119,-15.806 37.088,-28.737 51.88,-40.363c15.389,-12.095 31.648,-24.702 42.977,-40.937c6.444,-9.235 17.633,-36.233 18.272,-40.552c4.51,-30.463 -13.824,-44.775 -23.334,-50.716c-3.422,-2.137 -17.202,-9.71 -33.863,-7.483c-10.671,1.426 -23.229,6.159 -34.328,20.717c-4.028,5.283 -6.854,11.107 -8.528,17.143l-0,-0.001l-1.752,3.347Zm33.384,7.985c-1.702,3.472 -4.324,8.649 -5.684,10.599c-7.512,10.765 -19.012,18.35 -29.215,26.369c-20.097,15.796 -49.758,34.352 -68.547,57.317c-15.264,18.658 -23.859,40.042 -19.604,64.504c1.643,9.448 10.647,15.784 20.095,14.141c9.447,-1.643 15.784,-10.647 14.141,-20.095c-3.166,-18.205 7.527,-32.792 20.768,-45.776c17.013,-16.681 39.009,-30.5 54.62,-42.769c12.849,-10.099 26.78,-20.249 36.239,-33.805c4.235,-6.069 12.214,-23.52 12.634,-26.358c1.56,-10.536 -4.73,-15.509 -8.019,-17.563c-1.989,-1.243 -13.949,-8.043 -24.025,5.172c-1.905,2.5 -3.028,5.353 -3.403,8.264Z" style="fill:#7e4021;"/><path d="M3009.8,2849.33c-3.833,0.51 -9.595,1.2 -11.972,1.15c-13.124,-0.28 -25.813,-5.641 -38.146,-9.684c-24.29,-7.961 -56.182,-22.348 -85.712,-25.244c-23.991,-2.353 -46.551,2.356 -64.546,19.464c-6.95,6.608 -7.228,17.614 -0.621,24.564c6.608,6.95 17.615,7.228 24.565,0.621c13.391,-12.732 31.46,-11.925 49.608,-8.109c23.316,4.904 47.015,15.542 65.883,21.726c15.53,5.09 31.702,11.052 48.229,11.404c7.398,0.157 26.345,-2.883 28.939,-4.107c9.632,-4.546 10.281,-12.538 10.166,-16.414c-0.07,-2.345 -1.045,-16.068 -17.629,-17.122c-3.137,-0.199 -6.134,0.449 -8.764,1.751Z" style="fill:#ffce7b;"/><path d="M2997.92,2817.12c-9.641,-0.378 -18.784,-5.027 -27.863,-8.003c-26.264,-8.608 -60.91,-23.612 -92.84,-26.744c-33.853,-3.32 -65.375,4.34 -90.767,28.481c-20.283,19.284 -21.095,51.407 -1.812,71.69c19.284,20.283 51.407,21.094 71.69,1.811c1.574,-1.497 3.686,-1.367 5.726,-1.399c4.553,-0.072 9.292,0.75 14.055,1.752c22.093,4.646 44.483,14.922 62.361,20.781c18.599,6.096 38.108,12.633 57.901,13.054c11.258,0.24 39.929,-5.425 43.876,-7.288c27.85,-13.144 29.59,-36.337 29.258,-47.546c-0.12,-4.032 -1.462,-19.698 -12.556,-32.327c-7.105,-8.088 -18.008,-15.912 -36.279,-17.073c-6.629,-0.421 -13.043,0.458 -18.994,2.412l0.001,-0l-3.757,0.399Zm11.873,32.206c-3.833,0.51 -9.595,1.2 -11.972,1.15c-13.124,-0.28 -25.813,-5.641 -38.146,-9.684c-24.29,-7.961 -56.182,-22.348 -85.712,-25.244c-23.991,-2.353 -46.551,2.356 -64.546,19.464c-6.95,6.608 -7.228,17.614 -0.621,24.564c6.608,6.95 17.615,7.228 24.565,0.621c13.391,-12.732 31.46,-11.925 49.608,-8.109c23.316,4.904 47.015,15.542 65.883,21.726c15.53,5.09 31.702,11.052 48.229,11.404c7.398,0.157 26.345,-2.883 28.939,-4.107c9.632,-4.546 10.281,-12.538 10.166,-16.414c-0.07,-2.345 -1.045,-16.068 -17.629,-17.122c-3.137,-0.199 -6.134,0.449 -8.764,1.751Z" style="fill:#7e4021;"/><path d="M1049.07,2352.37c1.267,2.815 3.443,7.896 4.579,11.933c5.877,20.899 8.724,49.188 9.513,54.621c1.377,9.49 10.2,16.076 19.69,14.699c9.49,-1.378 16.077,-10.201 14.699,-19.691c-1.196,-8.24 -7.602,-62.46 -19.64,-81.607c-7.719,-12.279 -18.151,-15.898 -28.051,-13.599c-9.34,2.17 -15.163,11.515 -12.993,20.856c1.482,6.381 6.312,11.119 12.203,12.788Z" style="fill:#ffce7b;"/><path d="M1022.06,2375.19c5.078,19.047 7.413,43.67 8.117,48.52c4.02,27.696 29.77,46.918 57.467,42.897c27.696,-4.02 46.918,-29.77 42.898,-57.466c-1.392,-9.588 -10.402,-72.283 -24.408,-94.561c-17.289,-27.5 -41.641,-33.475 -63.812,-28.326c-27.261,6.332 -44.253,33.605 -37.921,60.866c2.675,11.519 9.086,21.207 17.659,28.07Zm27.013,-22.823c1.267,2.815 3.443,7.896 4.579,11.933c5.877,20.899 8.724,49.188 9.513,54.621c1.377,9.49 10.2,16.076 19.69,14.699c9.49,-1.378 16.077,-10.201 14.699,-19.691c-1.196,-8.24 -7.602,-62.46 -19.64,-81.607c-7.719,-12.279 -18.151,-15.898 -28.051,-13.599c-9.34,2.17 -15.163,11.515 -12.993,20.856c1.482,6.381 6.312,11.119 12.203,12.788Z" style="fill:#7e4021;"/><path d="M1384.38,2930.9c9.997,-36.793 9.067,-92.606 24.563,-140.564c2.949,-9.125 -2.066,-18.927 -11.191,-21.875c-9.125,-2.949 -18.927,2.066 -21.875,11.191c-15.673,48.505 -14.92,104.923 -25.031,142.136c-2.515,9.254 2.957,18.808 12.211,21.323c9.254,2.514 18.808,-2.957 21.323,-12.211Z" style="fill:#ffce7b;"/><path d="M1416.55,2939.64c9.887,-36.389 8.789,-91.622 24.115,-139.055c8.605,-26.631 -6.03,-55.238 -32.661,-63.843c-26.631,-8.605 -55.238,6.03 -63.843,32.661c-15.843,49.031 -15.258,106.029 -25.479,143.644c-7.339,27.008 8.63,54.892 35.637,62.231c27.007,7.338 54.892,-8.63 62.231,-35.638Zm-32.167,-8.74c9.997,-36.793 9.067,-92.606 24.563,-140.564c2.949,-9.125 -2.066,-18.927 -11.191,-21.875c-9.125,-2.949 -18.927,2.066 -21.875,11.191c-15.673,48.505 -14.92,104.923 -25.031,142.136c-2.515,9.254 2.957,18.808 12.211,21.323c9.254,2.514 18.808,-2.957 21.323,-12.211Z" style="fill:#7e4021;"/><path d="M3789.53,1719.2c-4.084,-6.882 14.614,-46.054 13.182,-65.152c-1.836,-24.481 -35.855,-81.552 -29.824,-89.129c4.25,-5.34 38.78,49.475 50.141,52.737c14.04,4.031 31.805,-27.578 37.623,-21.372c5.701,6.081 -13.527,32.105 -6.788,67.365c7.071,37.001 36.7,80.572 31.94,88.144c-3.129,4.978 -19.679,-17.472 -21.198,-19.079c-15.575,-16.467 -19.551,-24.688 -35.591,-32.011c-15.745,-7.188 -35.758,24.778 -39.485,18.497Z" style="fill:#7e4021;"/></g></svg>