<?xml version="1.0" encoding="UTF-8" standalone="no"?><!DOCTYPE svg PUBLIC "-//W3C//DTD SVG 1.1//EN" "http://www.w3.org/Graphics/SVG/1.1/DTD/svg11.dtd"><svg width="100%" height="100%" viewBox="0 0 3570 3213" version="1.1" xmlns="http://www.w3.org/2000/svg" xmlns:xlink="http://www.w3.org/1999/xlink" xml:space="preserve" xmlns:serif="http://www.serif.com/" style="fill-rule:evenodd;clip-rule:evenodd;stroke-linejoin:round;stroke-miterlimit:2;"><g id="Pretzel"><path d="M1083.53,2836.33c115.36,51.466 239.905,83.082 362.877,109.912c10.687,2.332 21.386,4.612 32.089,6.876c146.129,30.919 699.095,98.991 834.306,12.77c66.155,-42.186 -211.032,-664.808 -355.268,-703.168c-177.849,-47.301 -709.981,456.847 -874.004,573.61Z" style="fill:#f7bf9a;"/><path d="M1073.87,2822.75c-4.872,3.468 -7.513,9.282 -6.919,15.233c0.595,5.952 4.332,11.128 9.794,13.565c116.397,51.929 242.039,83.904 366.115,110.975c10.722,2.34 21.455,4.627 32.191,6.899c102.954,21.783 406.549,61.892 626.118,54.23c97.269,-3.395 178.4,-16.803 220.6,-43.713c9.326,-5.948 16.384,-18.357 17.542,-37.703c1.802,-30.117 -9.74,-82.263 -31.024,-144.947c-48.036,-141.469 -144.804,-338.965 -233.498,-454.066c-40.501,-52.559 -80.343,-87.936 -112.965,-96.612c-23.746,-6.315 -53.2,-4.307 -86.909,5.243c-46.62,13.208 -102.202,40.859 -162.289,77.619c-228.109,139.551 -523.775,411.426 -638.756,493.277Zm1229.6,129.32c-39.029,24.654 -114.023,35.147 -203.46,38.268c-216.742,7.564 -516.427,-32.025 -618.055,-53.528c-10.668,-2.257 -21.333,-4.529 -31.986,-6.854c-112.542,-24.554 -226.432,-53.089 -333.24,-97.481l0,0c127.672,-97.546 400.044,-344.106 613.296,-474.568c57.059,-34.907 109.708,-61.439 153.979,-73.982c26.886,-7.617 50.316,-10.138 69.255,-5.101c27.96,7.437 60.417,39.697 95.129,84.745c86.797,112.639 181.33,305.994 228.339,444.437c16.847,49.618 27.62,91.965 29.251,120.579c0.45,7.891 0.236,14.525 -1.042,19.682c-0.344,1.388 -1.239,3.324 -1.466,3.803Z" style="fill:#7e4021;"/><path d="M1943.22,291.068c-151.148,92.414 -524.532,368.493 -601.138,481.008c-80.098,-36.84 -438.382,-159.713 -608.404,235.563c-202.974,471.884 335.837,932.106 436.193,937.517c-2.645,21.164 -292.688,112.341 -566.506,429.885c-142.96,-84.883 -253.316,-239.025 -341.555,-375.607c-741.282,-1147.41 313.533,-2592.48 1681.41,-1708.37Z" style="fill:#f7bf9a;"/><path d="M1951.91,305.287c4.89,-2.989 7.9,-8.281 7.972,-14.011c0.072,-5.73 -2.806,-11.095 -7.618,-14.206c-554.156,-358.174 -1057.69,-337.557 -1414.25,-111.119c-534.858,339.664 -740.68,1145.25 -290.206,1842.53c89.561,138.629 201.944,294.74 347.045,380.894c6.948,4.125 15.854,2.672 21.131,-3.447c217.024,-251.681 444.406,-359.737 527.992,-403.665c19.383,-10.186 31.79,-17.896 36.413,-22.861c4.093,-4.397 5.587,-8.731 6.017,-12.176c0.574,-4.588 -0.785,-9.209 -3.751,-12.756c-2.965,-3.548 -7.272,-5.704 -11.889,-5.953c-10.42,-0.562 -26.054,-7.412 -45.635,-18.645c-51.73,-29.675 -126.152,-90.319 -198.096,-172.158c-153.707,-174.848 -297,-446.944 -178.049,-723.487c49.224,-114.439 114.489,-184.129 184.262,-224.303c162.518,-93.575 347.853,-27.546 401.867,-2.703c7.393,3.4 16.161,0.964 20.741,-5.763c75.91,-111.492 446.28,-384.593 596.055,-476.168Zm-819.988,1645.62c-1.137,0.621 -2.292,1.238 -3.454,1.849c-83.958,44.123 -310.19,151.938 -528.437,400.719c-135.073,-84.945 -239.76,-232.342 -324.226,-363.084c-439.065,-679.616 -241.235,-1465.24 280.078,-1796.3c342.79,-217.691 824.728,-237.629 1356.12,96.836l0,0c-158.705,101.142 -487.274,346.508 -575.502,460.531c-70.462,-29.336 -255.958,-84.811 -419.888,9.577c-74.826,43.084 -145.461,117.292 -198.25,240.019c-145.237,337.654 79.293,670.026 263.336,840.622c55.504,51.449 107.282,88.18 143.906,106.24c2.15,1.06 4.256,2.057 6.316,2.99Z" style="fill:#7e4021;"/><path d="M2288.79,1072.3c48.234,-21.709 89.003,15.414 100.511,30.12c120.064,153.414 88.249,365.138 29.107,535.821c-178.918,516.359 -711.155,832.744 -1148.83,1116.07c-153.083,99.098 -429.765,279.968 -603.462,129.625c-188.884,-163.488 -194.541,-384.069 0.253,-596.392c160.759,-175.226 405.869,-270.825 572.077,-430.191c95.72,-91.78 87.411,-141.719 285.098,-309.545c197.577,-167.732 621.287,-410.713 765.244,-475.506Z" style="fill:#f7bf9a;"/><path d="M2281.95,1057.1c-144.703,65.128 -570.59,309.398 -769.191,477.999c-198.158,168.226 -189.897,218.221 -285.846,310.219c-82.356,78.966 -184.336,142.03 -285.565,207.163c-103.359,66.502 -205.926,135.141 -287.258,223.792c-100.807,109.878 -149.09,222.19 -148.391,327.887c0.705,106.582 50.945,207.059 149.512,292.374c73.663,63.759 164.64,72.122 257.869,51.533c133.841,-29.559 272.355,-119.435 365.557,-179.769c440.609,-285.225 975.401,-604.779 1155.52,-1124.6c60.889,-175.725 91.88,-393.604 -31.73,-551.55c-13.762,-17.585 -62.799,-61.006 -120.476,-35.046Zm13.68,30.396c38.795,-17.461 71.29,13.366 80.546,25.194c116.519,148.884 83.879,354.449 26.484,520.092c-177.718,512.895 -707.4,826.111 -1142.14,1107.53c-90.498,58.584 -224.674,146.501 -354.631,175.202c-82.637,18.25 -163.571,12.328 -228.866,-44.188c-90.318,-78.174 -137.348,-169.73 -137.994,-267.391c-0.652,-98.547 45.632,-202.686 139.62,-305.132c79.427,-86.575 179.794,-153.349 280.732,-218.294c103.068,-66.315 206.747,-130.734 290.599,-211.134c95.492,-91.561 87.134,-141.444 284.349,-308.869c196.554,-166.863 618.088,-408.557 761.298,-473.014Z" style="fill:#7e4021;"/><path d="M1777.8,2415.19c-3.327,-1.143 55.266,83.302 62.73,93.674c56.766,78.876 116.611,156.005 178.073,231.259c142.026,173.898 631.095,668.158 871.379,352.701c220.417,-289.374 -225.691,-974.258 -449.314,-1199.78c-17.264,-17.41 -63.731,-79.621 -90.7,-81.696c-20.159,-1.55 -44.822,57.35 -52.226,70.072c-116.074,199.436 -276.851,343.424 -519.942,533.767Z" style="fill:#f7bf9a;"/><path d="M1768.99,2400.92c-2.624,1.552 -4.725,3.831 -6.245,6.902c-0.65,1.313 -3.865,8.272 1.211,17.479c7.262,13.173 56.212,83.795 63.051,93.297c56.964,79.151 117.016,156.55 178.692,232.067c86.233,105.584 299.094,327.633 507.945,419.62c145.139,63.926 288.216,65.741 389.601,-67.363c91.056,-119.542 74.33,-304.428 3.87,-498.177c-103.2,-283.776 -319.301,-586.981 -454.608,-723.435c-12.288,-12.392 -39.208,-47.03 -63.612,-67.467c-13.532,-11.332 -26.999,-18.291 -37.644,-19.11c-10.16,-0.782 -22.327,5.343 -32.862,18.005c-15.236,18.313 -29.65,51.027 -35.047,60.3c-114.866,197.361 -274.13,339.718 -514.352,527.882Zm581.22,-572.691c2.653,0.671 5.486,2.497 8.634,4.6c5.842,3.904 12,9.238 18.19,15.182c20.755,19.93 41.5,46.379 51.804,56.77c133.042,134.169 345.478,432.33 446.951,711.357c65.99,181.457 86.219,354.627 0.939,466.586c-90.844,119.265 -219.6,114.335 -349.648,57.056c-203.924,-89.818 -411.365,-307.107 -495.564,-410.201c-61.247,-74.992 -120.885,-151.851 -177.454,-230.452c-5.161,-7.172 -39.544,-58.178 -54.255,-80.026c238.581,-187.404 397.165,-331.397 512.344,-529.296c4.35,-7.473 14.719,-31.259 26.633,-48.735c3.517,-5.159 9.67,-11.17 11.426,-12.841Zm-567.739,602.958c-2.689,0.847 -6.044,1.152 -10.083,-0.236c3.305,1.136 6.826,1.188 10.083,0.236Z" style="fill:#7e4021;"/><path d="M1333.86,779.777c-155.878,248.709 -132.578,795.206 17.701,941.452c69.54,-91.681 142.628,-151.777 236.022,-217.238c167.874,-117.665 613.763,-433.572 812.3,-462.768c122.993,-18.087 269.751,45.43 355.382,130.018c238.689,235.778 110.725,578.623 -50.356,818.493c-16.199,24.123 -65.923,95.961 -77.537,123.325c65.788,96.812 171.85,289.27 221.565,395.216c39.783,84.78 72.464,185.498 81.043,231.794c26.058,12.463 85.334,-43.623 102.657,-57.732c537.175,-437.538 692.572,-1329.32 306.677,-1908.17c-275.918,-413.877 -905.476,-678.019 -1386.65,-489.734c-202.972,79.424 -480.951,275.393 -618.803,495.341Z" style="fill:#f7bf9a;"/><path d="M1319.74,770.926c-95.167,151.843 -125.412,412.656 -100.781,629.245c16.662,146.511 58.917,272.605 120.981,333.002c3.422,3.331 8.11,5.034 12.873,4.676c4.763,-0.358 9.143,-2.743 12.029,-6.548c68.423,-90.208 140.415,-149.252 232.309,-213.662c117.151,-82.112 370.086,-261.104 579.208,-371.07c87.873,-46.207 167.732,-80.295 225.951,-88.857c118.16,-17.376 258.978,44.122 341.245,125.386c115.104,113.7 141.472,253.316 119.974,393.325c-21.928,142.809 -93.222,286.033 -172.454,404.019c-16.551,24.646 -67.178,98.149 -79.043,126.106c-2.212,5.213 -1.626,11.194 1.557,15.878c65.406,96.25 170.836,287.598 220.262,392.929c39.095,83.315 71.312,182.255 79.743,227.751c0.971,5.24 4.389,9.7 9.197,11.999c11.452,5.477 27.523,3.925 44.761,-4.302c28.664,-13.679 62.953,-45.233 75.612,-55.544c543.406,-442.613 700.39,-1344.78 310.019,-1930.33c-279.838,-419.757 -918.581,-686.97 -1406.59,-496.009c-205.649,80.471 -487.182,279.162 -626.852,502.01l-0,0Zm28.244,17.702c136.035,-217.048 410.458,-410.294 610.754,-488.671c474.339,-185.611 1094.71,75.461 1366.71,483.458c381.419,572.129 227.61,1453.54 -303.335,1886c-10.083,8.213 -34.752,31.168 -58.387,45.541c-6.742,4.1 -13.332,7.494 -19.365,9.243c-0.208,0.06 -0.414,0.122 -0.619,0.183c-11.58,-51.13 -42.56,-144.006 -79.715,-223.186c-48.679,-103.739 -151.085,-289.936 -217.526,-389.567c15.849,-30.724 57.781,-91.062 72.247,-112.603c81.848,-121.883 155.076,-270.017 177.728,-417.543c23.083,-150.325 -5.911,-300.021 -129.496,-422.099c-88.996,-87.91 -241.695,-153.447 -369.52,-134.65c-60.903,8.957 -144.689,43.995 -236.615,92.333c-210.41,110.643 -464.953,290.659 -582.826,373.277c-89.472,62.712 -160.532,120.654 -227.584,205.151c-50.895,-60.786 -83.915,-172.102 -98.356,-299.089c-23.782,-209.124 4.019,-461.168 95.905,-607.777l0,0Z" style="fill:#7e4021;"/><circle cx="1789.76" cy="687.605" r="25.018" style="fill:#fff;"/><circle cx="2344.71" cy="2423.43" r="25.018" style="fill:#fff;"/><circle cx="1088.57" cy="373.339" r="25.018" style="fill:#fff;"/><circle cx="2095.85" cy="2421.73" r="25.018" style="fill:#7e4021;"/><circle cx="839.704" cy="371.642" r="25.018" style="fill:#fff;"/><circle cx="1720.46" cy="2228.45" r="25.018" style="fill:#fff;"/><circle cx="430.129" cy="997.882" r="25.018" style="fill:#fff;"/><circle cx="1814.17" cy="2040.3" r="25.018" style="fill:#fff;"/><circle cx="523.841" cy="809.739" r="25.018" style="fill:#7e4021;"/><circle cx="2101.94" cy="897.529" r="25.018" style="fill:#fff;"/><circle cx="3288.43" cy="1376.26" r="25.018" style="fill:#7e4021;"/><path d="M1504.28,1995.69c-4.278,-25.181 -6.019,-67.538 -19.555,-90.794c-13.536,-23.257 -37.29,-30.074 -52.846,-33.597c16.584,-3.377 39.31,-10.341 52.846,-33.597c13.536,-23.257 16.075,-63.589 19.555,-90.795c3.572,24.917 6.018,67.538 19.555,90.795c13.536,23.256 36.996,28.752 52.846,33.597c-15.703,4.844 -39.31,10.34 -52.846,33.597c-13.537,23.256 -13.281,64.187 -19.555,90.794Z" style="fill:#fff;"/><path d="M3258.15,1887.55c-4.278,-25.181 -6.019,-67.538 -19.555,-90.794c-13.536,-23.257 -37.29,-30.074 -52.846,-33.597c16.584,-3.377 39.31,-10.341 52.846,-33.597c13.536,-23.257 16.075,-63.589 19.555,-90.795c3.571,24.917 6.018,67.538 19.554,90.795c13.537,23.256 36.997,28.752 52.846,33.597c-15.703,4.844 -39.309,10.34 -52.846,33.597c-13.536,23.256 -13.281,64.187 -19.554,90.794Z" style="fill:#fff;"/><path d="M2028.74,782.931c-5.855,-34.467 -8.238,-92.445 -26.766,-124.278c-18.529,-31.834 -51.043,-41.165 -72.336,-45.987c22.7,-4.622 53.807,-14.154 72.336,-45.988c18.528,-31.833 22.002,-87.039 26.766,-124.278c4.889,34.105 8.238,92.445 26.766,124.278c18.529,31.834 50.64,39.357 72.335,45.988c-21.494,6.63 -53.806,14.153 -72.335,45.987c-18.528,31.833 -18.179,87.86 -26.766,124.278Z" style="fill:#fff;"/><circle cx="1932.42" cy="1084.58" r="25.018" style="fill:#fff;"/><circle cx="3118.91" cy="1563.31" r="25.018" style="fill:#fff;"/><circle cx="1857.48" cy="912.493" r="25.018" style="fill:#7e4021;"/><circle cx="488.498" cy="1206.34" r="25.018" style="fill:#fff;"/><circle cx="3105.01" cy="1916.3" r="25.018" style="fill:#7e4021;"/><circle cx="1955.3" cy="1732.93" r="16.344" style="fill:#fff;"/><circle cx="664.969" cy="502.366" r="16.344" style="fill:#fff;"/><circle cx="1745.86" cy="1235.91" r="16.344" style="fill:#fff;"/><circle cx="2277.67" cy="2556.33" r="16.344" style="fill:#fff;"/><circle cx="1021.53" cy="506.247" r="16.344" style="fill:#7e4021;"/><circle cx="294.489" cy="1125.65" r="16.344" style="fill:#fff;"/><circle cx="469.306" cy="1548.79" r="16.344" style="fill:#fff;"/><path d="M290.984,1912.05c3.324,7.64 9.971,22.922 24.603,43.935c25.372,36.435 52.591,71.479 81.171,105.479c5.919,7.041 16.441,7.953 23.482,2.034c7.042,-5.919 7.953,-16.441 2.034,-23.483c-27.93,-33.227 -54.536,-67.471 -79.332,-103.079c-12.72,-18.265 -18.504,-31.546 -21.394,-38.187c-3.671,-8.435 -13.498,-12.303 -21.933,-8.632c-8.434,3.671 -12.302,13.498 -8.631,21.933Z" style="fill:#7e4021;"/><path d="M444.193,2118.15c4.765,5.948 10.278,11.389 15.65,16.775c7.685,7.705 15.416,15.357 23.31,22.85c6.672,6.332 17.229,6.057 23.562,-0.615c6.333,-6.672 6.057,-17.23 -0.615,-23.562c-7.672,-7.283 -15.186,-14.722 -22.655,-22.212c-4.525,-4.536 -9.223,-9.067 -13.236,-14.076c-5.751,-7.179 -16.249,-8.339 -23.428,-2.588c-7.179,5.751 -8.339,16.248 -2.588,23.428Z" style="fill:#7e4021;"/><path d="M2296.71,1156.6c30.216,46.3 59.916,81.594 64.326,140.396c0.688,9.173 8.694,16.062 17.866,15.374c9.173,-0.688 16.062,-8.694 15.374,-17.867c-4.882,-65.094 -36.202,-104.867 -69.651,-156.121c-5.027,-7.703 -15.363,-9.875 -23.066,-4.848c-7.703,5.027 -9.876,15.363 -4.849,23.066Z" style="fill:#7e4021;"/><path d="M2365.27,1374.04c0.685,19.98 -0.624,39.939 -1.748,59.882c-0.517,9.184 6.519,17.06 15.703,17.577c9.184,0.518 17.06,-6.518 17.578,-15.702c1.18,-20.947 2.5,-41.913 1.781,-62.899c-0.315,-9.193 -8.035,-16.401 -17.228,-16.086c-9.193,0.315 -16.401,8.035 -16.086,17.228Z" style="fill:#7e4021;"/><path d="M1767.55,2553.21c4.811,10.528 10.8,20.513 16.898,30.335c21.408,34.482 45.554,67.587 71.926,98.429c5.978,6.991 16.507,7.813 23.498,1.835c6.992,-5.978 7.814,-16.507 1.836,-23.498c-25.278,-29.563 -48.421,-61.296 -68.941,-94.348c-5.356,-8.626 -10.675,-17.363 -14.9,-26.609c-3.824,-8.366 -13.72,-12.054 -22.087,-8.231c-8.366,3.824 -12.054,13.72 -8.23,22.087Z" style="fill:#7e4021;"/><path d="M1907.53,2746.01c9.869,13.346 20.404,26.092 30.843,38.987c5.788,7.15 16.291,8.255 23.441,2.468c7.149,-5.788 8.255,-16.292 2.467,-23.441c-10.132,-12.516 -20.37,-24.878 -29.948,-37.832c-5.469,-7.396 -15.914,-8.961 -23.311,-3.492c-7.396,5.469 -8.961,15.914 -3.492,23.31Z" style="fill:#7e4021;"/><circle cx="2268.14" cy="680.67" r="16.344" style="fill:#7e4021;"/><path d="M2396.76,523.051c3.76,-14.036 18.209,-22.378 32.245,-18.617c14.035,3.761 22.377,18.209 18.616,32.245c-3.76,14.036 -18.209,22.378 -32.245,18.617c-14.035,-3.761 -22.377,-18.21 -18.616,-32.245Z" style="fill:#7e4021;"/><path d="M1410.72,2292.65c3.761,-14.036 18.209,-22.378 32.245,-18.617c14.036,3.761 22.378,18.21 18.617,32.245c-3.761,14.036 -18.21,22.378 -32.245,18.617c-14.036,-3.761 -22.378,-18.209 -18.617,-32.245Z" style="fill:#7e4021;"/><path d="M496.113,1642.05c3.761,-14.036 18.209,-22.378 32.245,-18.617c14.036,3.761 22.378,18.209 18.617,32.245c-3.761,14.036 -18.21,22.378 -32.245,18.617c-14.036,-3.761 -22.378,-18.209 -18.617,-32.245Z" style="fill:#7e4021;"/><path d="M2395.91,2613.76c3.761,-14.035 18.21,-22.377 32.246,-18.617c14.035,3.761 22.377,18.21 18.616,32.246c-3.761,14.035 -18.209,22.377 -32.245,18.616c-14.036,-3.76 -22.377,-18.209 -18.617,-32.245Z" style="fill:#7e4021;"/><path d="M2272.68,2322.69c3.761,-14.036 18.209,-22.378 32.245,-18.617c14.036,3.761 22.378,18.21 18.617,32.245c-3.761,14.036 -18.21,22.378 -32.245,18.617c-14.036,-3.761 -22.378,-18.209 -18.617,-32.245Z" style="fill:#7e4021;"/><path d="M1765.98,1626.35c3.761,-14.036 18.21,-22.378 32.246,-18.617c14.035,3.761 22.377,18.209 18.616,32.245c-3.761,14.036 -18.209,22.378 -32.245,18.617c-14.036,-3.761 -22.377,-18.21 -18.617,-32.245Z" style="fill:#7e4021;"/><circle cx="3136.61" cy="2110.64" r="16.344" style="fill:#fff;"/><circle cx="2131.15" cy="778.655" r="16.344" style="fill:#fff;"/><circle cx="3317.64" cy="1257.38" r="16.344" style="fill:#fff;"/><circle cx="1581.01" cy="1080.5" r="25.018" style="fill:#fff;"/><circle cx="1741.09" cy="1780.88" r="25.018" style="fill:#7e4021;"/><circle cx="408.414" cy="475.811" r="25.018" style="fill:#fff;"/></g></svg>