<?xml version="1.0" encoding="UTF-8" standalone="no"?><!DOCTYPE svg PUBLIC "-//W3C//DTD SVG 1.1//EN" "http://www.w3.org/Graphics/SVG/1.1/DTD/svg11.dtd"><svg width="100%" height="100%" viewBox="0 0 4052 1605" version="1.1" xmlns="http://www.w3.org/2000/svg" xmlns:xlink="http://www.w3.org/1999/xlink" xml:space="preserve" xmlns:serif="http://www.serif.com/" style="fill-rule:evenodd;clip-rule:evenodd;stroke-linejoin:round;stroke-miterlimit:2;"><g id="Pumpernickel"><path d="M3360.87,186.223c-400.946,-166.247 -1315.9,-220.956 -1871.38,-114.087c-412.746,79.409 -1676.5,478.806 -1443.63,1116.87c60.726,166.39 232.344,264.137 393.667,310.726c531.09,153.375 1203.11,63.815 1749.86,48.753c434.435,-11.968 1289.42,50.076 1654.57,-202.902c435.06,-301.405 62.987,-932.936 -483.081,-1159.36Z" style="fill:#9d5e3e;"/><path d="M3367.25,170.827c-402.993,-167.095 -1322.6,-222.473 -1880.92,-115.057c-249.108,47.926 -806.315,211.901 -1161.68,473.908c-242.121,178.512 -390.211,402.663 -294.454,665.037c62.548,171.381 238.538,273.038 404.7,321.024c532.637,153.822 1206.6,64.507 1754.94,49.402c260.976,-7.19 673.53,12.246 1040.79,-25.724c247.703,-25.609 474.868,-77.64 622.819,-180.139c180.537,-125.074 227.243,-304.892 181.868,-490.744c-66.645,-272.973 -335.232,-559.705 -668.057,-697.707l-0.001,0Zm-12.767,30.792c322.457,133.702 583.874,410.352 648.443,674.821c42.101,172.442 -0.958,339.388 -168.469,455.438c-144.176,99.883 -365.88,149.427 -607.264,174.383c-366.371,37.878 -777.932,18.387 -1038.28,25.559c-545.15,15.018 -1215.23,104.823 -1744.77,-48.105c-156.486,-45.192 -323.729,-139.027 -382.635,-300.428c-90.538,-248.076 53.995,-457.995 282.922,-626.779c351.201,-258.934 902.014,-420.641 1148.2,-468.005c552.648,-106.324 1462.95,-52.282 1861.85,113.115l0,0.001Z" style="fill:#7e4021;"/><path d="M3897.16,987.121c0.402,3.426 0.937,7.913 1.194,9.83c2.155,16.034 1.525,32.626 0.294,48.698c-3.731,48.71 -17.887,87.581 -45.157,127.768c-5.165,7.611 -3.178,17.984 4.433,23.15c7.612,5.165 17.985,3.178 23.15,-4.433c30.716,-45.267 46.607,-89.072 50.81,-143.939c1.407,-18.378 1.971,-37.35 -0.493,-55.684c-0.574,-4.266 -1.319,-13.559 -2.465,-18.119c-1.162,-4.624 -3.244,-7.685 -4.696,-9.282c-5.092,-5.602 -10.987,-6.56 -16.663,-5.223c-3.095,0.729 -8.44,2.512 -12.065,10.028c-2.789,5.784 -1.934,12.388 1.658,17.206Zm27.435,-1.054l-0.143,0.22l0.078,-0.112l0.065,-0.108Zm0.491,-0.825l-0.175,0.302l0.13,-0.217l0.045,-0.085Z" style="fill:#7e4021;"/><path d="M3800.2,1230.08c-1.142,0.776 -2.246,1.577 -2.801,2.117c-26.475,25.77 -65.288,40.738 -97.111,58.444c-8.038,4.472 -10.933,14.629 -6.461,22.667c4.473,8.039 14.63,10.934 22.668,6.461c33.872,-18.846 74.662,-35.53 103.135,-62.72c1.336,-0.829 4.196,-2.641 5.186,-3.544c2.431,-2.222 3.861,-4.647 4.694,-6.783c1.28,-3.288 1.483,-6.548 0.824,-9.738c-0.71,-3.437 -2.384,-7.301 -6.852,-10.556c-7.433,-5.416 -17.864,-3.779 -23.282,3.652Zm-1.893,16.284c0.819,2.219 2.286,4.413 4.782,6.411c-2.157,-1.768 -3.763,-3.982 -4.782,-6.411Z" style="fill:#7e4021;"/><path d="M651.429,373.475c53.23,20.128 114.606,42.747 168.066,62.365c74.293,27.264 146.824,58.524 214.482,99.832c51.961,31.725 125.034,100.408 198.272,147.543c52.586,33.843 105.616,56.282 151.646,50.867c28.269,-3.326 52.557,-16.919 63.233,-44.602c15.565,-40.365 -2.32,-89.401 -36.591,-136.441c-46.638,-64.015 -121.998,-125.345 -160.176,-154.952c-7.268,-5.637 -17.746,-4.312 -23.384,2.957c-5.637,7.269 -4.312,17.747 2.957,23.384c36.576,28.365 108.98,86.91 153.661,148.239c14.085,19.333 25.391,38.88 31.453,57.808c5.303,16.555 6.573,32.502 0.979,47.011c-5.934,15.387 -20.315,21.643 -36.027,23.491c-39.586,4.657 -84.487,-16.687 -129.711,-45.792c-73.472,-47.285 -146.815,-116.136 -198.942,-147.962c-69.527,-42.451 -144.022,-74.659 -220.369,-102.676c-53.362,-19.582 -114.627,-42.16 -167.759,-62.251c-8.604,-3.253 -18.231,1.09 -21.484,9.694c-3.254,8.604 1.09,18.231 9.694,21.485Z" style="fill:#7e4021;"/><path d="M2738.35,72.374c76.845,34.292 190.315,131.558 243.998,173.981c34.467,27.238 88.036,75.65 141.977,108.074c39.125,23.519 78.759,38.297 112.3,34.248c21.927,-2.647 40.609,-13.435 48.827,-34.94c3.284,-8.593 -1.026,-18.234 -9.619,-21.518c-8.593,-3.284 -18.234,1.026 -21.518,9.619c-3.514,9.196 -12.309,12.614 -21.685,13.746c-27.385,3.306 -59.188,-10.522 -91.132,-29.724c-52.657,-31.653 -104.836,-79.068 -138.483,-105.657c-55.162,-43.592 -172.119,-143.032 -251.082,-178.269c-8.4,-3.749 -18.263,0.028 -22.011,8.428c-3.749,8.4 0.028,18.264 8.428,22.012Z" style="fill:#7e4021;"/><path d="M1307.83,135.721c2.352,1.994 5.27,4.342 6.865,5.167c9.466,4.892 19.302,9.067 28.85,13.805c45.257,22.459 88.663,48.796 132.216,74.355c56.892,33.387 113.202,68.07 164.796,109.281c46.907,37.468 128.12,125.646 208.881,183.917c58.464,42.184 117.452,67.805 164.36,55.112c27.507,-7.443 43.776,-20.279 52.114,-35.51c12.19,-22.267 7.947,-52.18 -10.687,-85.426c-60.227,-107.455 -271.561,-261.265 -305.811,-281.815c-7.888,-4.732 -18.134,-2.171 -22.867,5.717c-4.733,7.888 -2.171,18.134 5.717,22.866c32.842,19.706 236.132,166.492 293.883,269.529c6.531,11.652 11.105,22.602 12.823,32.65c1.304,7.619 0.942,14.555 -2.297,20.473c-4.896,8.944 -15.428,14.969 -31.581,19.34c-18.432,4.988 -39.038,1.494 -60.837,-6.851c-24.264,-9.289 -49.742,-24.666 -75.313,-43.117c-80.289,-57.93 -160.949,-145.681 -207.582,-182.929c-52.839,-42.206 -110.463,-77.793 -168.728,-111.985c-44.224,-25.953 -88.316,-52.661 -134.27,-75.466c-9.122,-4.527 -18.517,-8.52 -27.578,-13.162c-1.076,-0.992 -5.594,-5.125 -7.523,-6.448c-3.633,-2.491 -7.14,-3.399 -9.762,-3.6c-4.244,-0.326 -7.925,0.765 -11.107,2.886c-3.069,2.047 -6.406,5.359 -7.643,11.661c-1.767,9.005 4.091,17.751 13.081,19.55Zm15.455,-4.97c1.901,-1.786 3.43,-4.369 4.174,-8.161c-0.623,3.175 -2.111,5.962 -4.174,8.161Z" style="fill:#7e4021;"/><path d="M2054.14,31.493c23.437,15.195 46.423,31.016 68.869,47.392c60.937,44.459 120.259,90.99 175.926,141.97c54.544,49.951 162.804,177.399 261.103,248.977c45.391,33.053 89.26,54.035 125.364,53.605c29.962,-0.357 47.878,-10.348 57.644,-24.456c9.66,-13.956 11.892,-33.462 6.651,-56.564c-19.349,-85.291 -144.657,-230.55 -172.942,-255.909c-6.849,-6.14 -17.395,-5.565 -23.535,1.284c-6.141,6.849 -5.566,17.395 1.283,23.535c26.436,23.701 144.602,158.75 162.687,238.465c2.784,12.273 3.58,22.803 -1.552,30.217c-5.03,7.267 -15.199,9.913 -30.633,10.097c-15.555,0.185 -32.715,-5.082 -50.982,-13.806c-30.2,-14.422 -62.874,-38.272 -95.708,-66.18c-84.947,-72.203 -170.45,-171.339 -216.867,-213.847c-56.58,-51.815 -116.857,-99.129 -178.793,-144.316c-22.938,-16.736 -46.43,-32.905 -70.381,-48.433c-7.719,-5.004 -18.048,-2.801 -23.052,4.918c-5.004,7.718 -2.8,18.047 4.918,23.051Z" style="fill:#7e4021;"/></g></svg>