<?xml version="1.0" encoding="UTF-8" standalone="no"?><!DOCTYPE svg PUBLIC "-//W3C//DTD SVG 1.1//EN" "http://www.w3.org/Graphics/SVG/1.1/DTD/svg11.dtd"><svg width="100%" height="100%" viewBox="0 0 4123 2273" version="1.1" xmlns="http://www.w3.org/2000/svg" xmlns:xlink="http://www.w3.org/1999/xlink" xml:space="preserve" xmlns:serif="http://www.serif.com/" style="fill-rule:evenodd;clip-rule:evenodd;stroke-linejoin:round;stroke-miterlimit:2;"><g id="Spelt-roll" serif:id="Spelt roll"><path d="M4105.89,893.962c-6.195,-220.772 -227.736,-453.961 -317.245,-517.956c-287.897,-205.834 -592.708,-313.906 -946.485,-349.352c-736.359,-73.779 -2963.11,255.104 -2818.15,1346.11c139.524,1050.07 1407.71,930.984 2171.41,797.277c690.445,-120.882 1936.82,-337.159 1910.47,-1276.08Z" style="fill:#ffdab8;"/><path d="M4122.55,893.494c-2.555,-91.064 -40.305,-184.292 -90.996,-267.469c-75.158,-123.324 -178.474,-224.438 -233.216,-263.577c-290.345,-207.585 -597.73,-316.63 -954.517,-352.378c-443.665,-44.452 -1426.13,56.598 -2109.67,381.246c-461.119,219.011 -785.586,540.194 -726.664,983.647c70.892,533.544 428.021,770.567 864.935,856.713c431.933,85.165 942.257,21.948 1325.87,-45.214c416.112,-72.852 1033.1,-180.672 1454.52,-458.604c284.513,-187.642 480.46,-452.329 469.738,-834.363l0,-0.001Zm-33.32,0.936c10.359,369.105 -179.886,624.31 -454.77,805.601c-417.678,275.468 -1029.49,381.391 -1441.91,453.597c-380.088,66.545 -885.706,129.727 -1313.67,45.345c-422.984,-83.4 -769.709,-311.869 -838.341,-828.4c-57.049,-429.357 261.46,-737.098 707.921,-949.147c677.832,-321.939 1652.08,-422.27 2092.04,-378.189c350.768,35.145 653.006,142.244 938.453,346.327c52.669,37.656 151.828,135.155 224.139,253.808c47.623,78.142 83.739,165.505 86.14,251.058l0,-0Z" style="fill:#7e4021;"/><path d="M1898.41,2106.51c-7.969,-1.262 -15.901,3.436 -18.451,11.355c-2.821,8.755 1.997,18.153 10.753,20.974c1.258,0.405 3.838,1.001 7.719,1.023c5.674,0.032 18.72,-0.966 36.69,-2.771c85.959,-8.634 289.805,-35.366 320.083,-41.227c9.031,-1.747 14.944,-10.499 13.196,-19.53c-1.748,-9.031 -10.499,-14.943 -19.53,-13.196c-29.994,5.806 -231.93,32.234 -317.08,40.787c-16.422,1.649 -31.347,2.477 -33.38,2.585Z" style="fill:#7e4021;"/><path d="M2339.62,2071.79c0.786,-0.303 8.814,-3.361 14.785,-4.769c15.394,-3.629 33.888,-6.27 42.47,-8.83c8.815,-2.629 13.837,-11.92 11.208,-20.735c-2.629,-8.814 -11.92,-13.837 -20.735,-11.208c-9.751,2.909 -32.662,5.84 -48.564,10.39c-10.292,2.946 -18.265,7.121 -22.273,11.144c-6.493,6.516 -6.474,17.077 0.042,23.57c6.351,6.328 16.545,6.471 23.067,0.438Z" style="fill:#7e4021;"/><path d="M3410.83,502.236c-10.438,18.079 -33.59,24.283 -51.669,13.845c-18.079,-10.438 -58.591,-53.398 -48.153,-71.477c10.437,-18.079 67.898,-4.475 85.977,5.963c18.079,10.438 24.283,33.59 13.845,51.669Z" style="fill:#fff;"/><path d="M3425.26,510.57c7.518,-13.023 9.047,-27.873 5.436,-41.347c-3.61,-13.474 -12.358,-25.571 -25.381,-33.089c-13.353,-7.71 -45.542,-17.132 -69.765,-17.03c-18.738,0.078 -33.017,6.837 -38.98,17.167c-5.964,10.329 -4.678,26.074 4.623,42.341c12.023,21.029 36.278,44.193 49.63,51.903c13.023,7.519 27.873,9.047 41.347,5.436c13.475,-3.61 25.571,-12.358 33.09,-25.381Zm-98.734,-57.004c1.476,-0.388 3.453,-0.838 4.991,-0.962c8.179,-0.663 18.16,0.595 27.699,2.611c12.002,2.538 23.352,6.276 29.432,9.786c5.056,2.919 8.449,7.618 9.851,12.849c1.401,5.231 0.812,10.997 -2.107,16.053c-2.919,5.056 -7.618,8.449 -12.849,9.851c-5.231,1.401 -10.997,0.812 -16.053,-2.107c-6.08,-3.51 -14.992,-11.47 -23.19,-20.596c-6.516,-7.252 -12.596,-15.268 -16.112,-22.682c-0.661,-1.394 -1.26,-3.331 -1.662,-4.803Z" style="fill:#7e4021;"/><path d="M3046.95,702.909c-15.895,-13.533 -17.813,-37.425 -4.281,-53.321c13.533,-15.895 63.106,-47.978 79.002,-34.445c15.895,13.533 -7.868,67.589 -21.401,83.485c-13.533,15.895 -37.425,17.813 -53.32,4.281Z" style="fill:#fff;"/><path d="M3036.14,715.599c11.45,9.748 25.779,13.934 39.684,12.818c13.905,-1.116 27.383,-7.535 37.131,-18.985c9.995,-11.74 25.078,-41.696 29.355,-65.539c3.308,-18.444 -0.76,-33.709 -9.841,-41.441c-9.082,-7.731 -24.8,-9.312 -42.48,-3.103c-22.855,8.026 -50.021,27.695 -60.016,39.435c-9.748,11.45 -13.934,25.78 -12.818,39.684c1.116,13.905 7.535,27.383 18.985,37.131Zm73.905,-86.808c0.115,1.521 0.201,3.547 0.045,5.082c-0.826,8.164 -3.867,17.754 -7.574,26.772c-4.664,11.346 -10.391,21.833 -14.942,27.179c-3.785,4.445 -9.019,6.933 -14.418,7.367c-5.398,0.433 -10.962,-1.188 -15.408,-4.973c-4.445,-3.784 -6.933,-9.019 -7.367,-14.417c-0.433,-5.399 1.188,-10.963 4.973,-15.408c4.551,-5.346 13.99,-12.673 24.447,-19.088c8.31,-5.098 17.292,-9.629 25.22,-11.748c1.49,-0.398 3.504,-0.637 5.024,-0.766Z" style="fill:#7e4021;"/><path d="M1573.38,1427.48c16.182,-13.189 40.027,-10.759 53.216,5.424c13.188,16.182 35.786,70.736 19.604,83.925c-16.183,13.188 -65.056,-19.951 -78.244,-36.133c-13.189,-16.183 -10.759,-40.028 5.424,-53.216Z" style="fill:#fff;"/><path d="M1562.85,1414.56c-11.656,9.5 -18.363,22.837 -19.777,36.715c-1.415,13.877 2.463,28.293 11.963,39.95c9.741,11.952 36.479,32.2 59.156,40.714c17.543,6.587 33.291,5.344 42.537,-2.191c9.245,-7.535 13.64,-22.709 10.728,-41.22c-3.764,-23.929 -18.201,-54.202 -27.942,-66.154c-9.5,-11.656 -22.837,-18.363 -36.715,-19.777c-13.877,-1.415 -28.293,2.463 -39.95,11.963Zm72.026,88.375c-1.517,-0.163 -3.526,-0.445 -5.007,-0.875c-7.88,-2.288 -16.763,-7.011 -24.962,-12.286c-10.317,-6.638 -19.597,-14.166 -24.032,-19.608c-3.688,-4.525 -5.19,-10.123 -4.641,-15.511c0.549,-5.388 3.149,-10.568 7.675,-14.256c4.526,-3.688 10.124,-5.19 15.511,-4.641c5.388,0.549 10.568,3.149 14.256,7.675c4.436,5.442 9.937,16.05 14.356,27.494c3.513,9.094 6.347,18.747 6.998,26.928c0.122,1.537 -0.007,3.561 -0.154,5.08Z" style="fill:#7e4021;"/><path d="M2189.52,344.61c-8.622,-19.012 -0.187,-41.447 18.825,-50.07c19.012,-8.622 77.527,-16.55 86.149,2.462c8.622,19.012 -35.892,57.811 -54.904,66.433c-19.012,8.622 -41.448,0.187 -50.07,-18.825Z" style="fill:#fff;"/><path d="M2174.34,351.494c6.211,13.695 17.395,23.583 30.453,28.492c13.057,4.909 27.985,4.839 41.68,-1.372c14.042,-6.369 40.443,-27.054 54.462,-46.808c10.845,-15.281 13.663,-30.825 8.737,-41.687c-4.927,-10.863 -18.477,-18.984 -37.118,-20.892c-24.097,-2.468 -57.052,3.766 -71.094,10.135c-13.695,6.211 -23.583,17.395 -28.492,30.452c-4.909,13.057 -4.839,27.985 1.372,41.68Zm103.829,-47.088c-0.544,1.425 -1.329,3.295 -2.123,4.617c-4.223,7.036 -11.057,14.419 -18.25,21.001c-9.05,8.281 -18.697,15.333 -25.091,18.232c-5.317,2.412 -11.113,2.435 -16.182,0.529c-5.069,-1.906 -9.414,-5.742 -11.825,-11.059c-2.412,-5.317 -2.435,-11.112 -0.529,-16.182c1.906,-5.069 5.742,-9.414 11.059,-11.825c6.394,-2.9 18.054,-5.512 30.246,-6.865c9.69,-1.075 19.747,-1.352 27.823,0.106c1.517,0.274 3.441,0.916 4.872,1.446Z" style="fill:#7e4021;"/><path d="M3766.39,1220.42c-8.594,-19.025 -0.125,-41.448 18.9,-50.042c19.025,-8.594 77.551,-16.433 86.145,2.591c8.594,19.025 -35.979,57.757 -55.003,66.351c-19.025,8.593 -41.448,0.125 -50.042,-18.9Z" style="fill:#fff;"/><path d="M3751.2,1227.28c6.19,13.704 17.36,23.609 30.409,28.537c13.05,4.929 27.978,4.881 41.683,-1.309c14.051,-6.348 40.483,-26.993 54.532,-46.726c10.868,-15.265 13.709,-30.805 8.799,-41.675c-4.91,-10.869 -18.448,-19.011 -37.086,-20.947c-24.094,-2.503 -57.058,3.681 -71.109,10.028c-13.705,6.191 -23.609,17.36 -28.538,30.41c-4.929,13.049 -4.88,27.977 1.31,41.682l-0,-0Zm103.899,-46.933c-0.546,1.425 -1.334,3.293 -2.13,4.615c-4.234,7.029 -11.078,14.402 -18.281,20.973c-9.063,8.268 -18.72,15.304 -25.119,18.195c-5.32,2.403 -11.116,2.418 -16.182,0.504c-5.067,-1.913 -9.406,-5.756 -11.809,-11.076l-0,-0c-2.404,-5.321 -2.418,-11.117 -0.505,-16.183c1.914,-5.066 5.756,-9.406 11.077,-11.809c6.398,-2.89 18.062,-5.484 30.257,-6.819c9.691,-1.061 19.749,-1.322 27.822,0.148c1.517,0.276 3.44,0.92 4.87,1.452Z" style="fill:#7e4021;"/><path d="M3050.17,960.411c31.733,-12.492 67.637,3.129 80.129,34.862c12.492,31.733 20.576,127.856 -11.157,140.348c-31.732,12.492 -91.342,-63.349 -103.834,-95.081c-12.492,-31.733 3.129,-67.638 34.862,-80.129Z" style="fill:#9d5e3e;"/><path d="M3044.07,944.902c-20.146,7.931 -35.18,23.292 -43.193,41.709c-8.013,18.416 -9.003,39.887 -1.072,60.034c8.793,22.337 38.959,64.952 68.567,88.312c20.424,16.114 41.472,22.238 56.88,16.172c15.409,-6.065 26.634,-24.894 30.593,-50.606c5.739,-37.274 -1.24,-89.018 -10.033,-111.355c-7.93,-20.146 -23.291,-35.18 -41.708,-43.193c-18.417,-8.013 -39.887,-9.003 -60.034,-1.073l0,0Zm12.21,31.017c11.586,-4.561 23.934,-3.987 34.526,0.622c10.591,4.608 19.429,13.251 23.99,24.837c5.452,13.85 9.744,41.111 9.865,67.077c0.066,14.311 -1.108,28.244 -4.439,39.149c-1.76,5.759 -3.149,10.922 -7.179,12.509c-4.031,1.586 -8.567,-1.244 -13.78,-4.258c-9.871,-5.708 -20.228,-15.102 -29.935,-25.618c-17.612,-19.08 -33.055,-41.952 -38.507,-55.802c-4.561,-11.586 -3.986,-23.934 0.622,-34.526c4.608,-10.592 13.251,-19.429 24.837,-23.99l0,0Z" style="fill:#7e4021;"/><path d="M3393.72,1156.47c-9.189,-32.841 10.014,-66.965 42.856,-76.154c32.841,-9.189 129.288,-7.424 138.477,25.418c9.189,32.841 -72.337,84.403 -105.179,93.592c-32.841,9.189 -66.965,-10.014 -76.154,-42.856Z" style="fill:#9d5e3e;"/><path d="M3377.67,1160.96c5.834,20.85 19.581,37.373 37.084,47.223c17.503,9.85 38.761,13.026 59.611,7.192c23.118,-6.468 68.589,-32.129 94.847,-59.2c18.114,-18.673 26.353,-38.987 21.892,-54.933c-4.462,-15.947 -22.048,-29.034 -47.222,-35.596c-36.494,-9.512 -88.679,-7.849 -111.797,-1.381c-20.85,5.834 -37.373,19.581 -47.223,37.084c-9.85,17.503 -13.026,38.761 -7.192,59.611Zm32.101,-8.982c-3.356,-11.991 -1.524,-24.216 4.14,-34.282c5.665,-10.066 15.164,-17.976 27.156,-21.331c14.333,-4.01 41.89,-5.499 67.734,-2.97c14.243,1.394 27.983,3.984 38.491,8.411c5.55,2.337 10.544,4.246 11.711,8.417c1.167,4.172 -2.111,8.395 -5.642,13.273c-6.685,9.238 -17.086,18.582 -28.537,27.165c-20.779,15.574 -45.107,28.603 -59.44,32.613c-11.992,3.355 -24.216,1.524 -34.283,-4.14c-10.066,-5.665 -17.975,-15.164 -21.33,-27.156Z" style="fill:#7e4021;"/><path d="M2333.81,1298.41c-34.073,1.438 -62.903,-25.057 -64.341,-59.13c-1.438,-34.073 22.328,-127.562 56.401,-129c34.072,-1.438 65.631,89.717 67.069,123.789c1.438,34.073 -25.057,62.903 -59.129,64.341Z" style="fill:#9d5e3e;"/><path d="M2334.51,1315.06c21.632,-0.913 40.86,-10.519 54.45,-25.307c13.591,-14.788 21.542,-34.757 20.629,-56.389c-1.012,-23.984 -15.599,-74.117 -35.95,-105.868c-14.038,-21.903 -31.929,-34.568 -48.474,-33.87c-16.544,0.698 -33.305,14.826 -45.448,37.833c-17.603,33.354 -27.914,84.538 -26.902,108.522c0.913,21.632 10.519,40.86 25.307,54.45c14.788,13.59 34.756,21.542 56.388,20.629l0,-0Zm-1.405,-33.304c-12.441,0.525 -23.923,-4.052 -32.428,-11.868c-8.505,-7.816 -14.033,-18.872 -14.558,-31.313c-0.628,-14.871 4.222,-42.038 12.593,-66.619c4.613,-13.547 10.275,-26.332 16.987,-35.55c3.544,-4.868 6.544,-9.293 10.872,-9.476c4.328,-0.183 7.689,3.974 11.631,8.526c7.465,8.62 14.184,20.882 19.922,33.992c10.412,23.789 17.534,50.451 18.161,65.322c0.525,12.441 -4.052,23.923 -11.868,32.428c-7.816,8.504 -18.872,14.033 -31.312,14.558l-0,-0Z" style="fill:#7e4021;"/><path d="M1942.5,1416.38c2.332,34.023 -23.398,63.538 -57.421,65.869c-34.023,2.332 -128.104,-18.974 -130.435,-52.997c-2.332,-34.023 87.964,-67.962 121.987,-70.294c34.023,-2.331 63.538,23.399 65.869,57.422Z" style="fill:#9d5e3e;"/><path d="M1959.13,1415.24c-1.48,-21.6 -11.587,-40.569 -26.726,-53.767c-15.14,-13.198 -35.31,-20.623 -56.911,-19.142c-23.949,1.641 -73.682,17.537 -104.889,38.714c-21.526,14.608 -33.718,32.826 -32.586,49.346c1.132,16.521 15.695,32.905 39.013,44.44c33.803,16.723 85.24,25.687 109.189,24.046c21.601,-1.48 40.57,-11.587 53.768,-26.726c13.197,-15.14 20.622,-35.31 19.142,-56.911l0,0Zm-33.255,2.279c0.851,12.423 -3.424,24.021 -11.014,32.728c-7.59,8.707 -18.497,14.523 -30.919,15.375c-14.85,1.017 -42.135,-3.119 -66.927,-10.841c-13.664,-4.256 -26.592,-9.581 -35.984,-16.049c-4.959,-3.415 -9.461,-6.298 -9.758,-10.619c-0.296,-4.322 3.772,-7.792 8.219,-11.852c8.421,-7.688 20.502,-14.727 33.458,-20.807c23.507,-11.032 49.973,-18.851 64.822,-19.868c12.423,-0.851 24.021,3.423 32.728,11.013c8.707,7.59 14.523,18.497 15.375,30.92l-0,0Z" style="fill:#7e4021;"/><path d="M1064.93,553.041c34.083,1.152 60.819,29.759 59.667,63.842c-1.152,34.084 -31.945,125.5 -66.028,124.348c-34.084,-1.152 -58.634,-94.439 -57.482,-128.523c1.153,-34.083 29.759,-60.819 63.843,-59.667Z" style="fill:#9d5e3e;"/><path d="M1065.49,536.384c-21.639,-0.732 -41.54,7.387 -56.214,21.101c-14.673,13.714 -24.117,33.021 -24.849,54.66c-0.811,23.992 9.929,75.088 27.812,108.292c12.335,22.905 29.214,36.891 45.764,37.451c16.549,0.559 34.334,-12.256 48.188,-34.275c20.084,-31.921 34.249,-82.175 35.06,-106.167c0.732,-21.639 -7.387,-41.54 -21.101,-56.213c-13.714,-14.674 -33.021,-24.118 -54.66,-24.849l-0,-0Zm-1.126,33.314c12.444,0.421 23.546,5.856 31.433,14.295c7.887,8.439 12.561,19.883 12.14,32.327c-0.503,14.876 -7.401,41.597 -17.613,65.472c-5.628,13.158 -12.244,25.475 -19.636,34.158c-3.903,4.585 -7.23,8.77 -11.559,8.623c-4.33,-0.146 -7.366,-4.546 -10.952,-9.384c-6.788,-9.162 -12.558,-21.898 -17.284,-35.406c-8.576,-24.51 -13.654,-51.636 -13.151,-66.512c0.42,-12.444 5.856,-23.546 14.295,-31.433c8.438,-7.887 19.882,-12.561 32.327,-12.14l-0,0Z" style="fill:#7e4021;"/><path d="M1516.53,699.497c21.535,-26.444 60.487,-30.429 86.931,-8.894c26.443,21.534 80.611,101.353 59.076,127.797c-21.535,26.443 -110.669,-10.438 -137.113,-31.973c-26.443,-21.534 -30.428,-60.487 -8.894,-86.93Z" style="fill:#9d5e3e;"/><path d="M1503.6,688.973c-13.672,16.788 -19.246,37.546 -17.202,57.526c2.045,19.98 11.707,39.18 28.495,52.852c18.614,15.158 65.798,37.515 103.055,43.361c25.701,4.032 47.049,-0.948 57.505,-13.788c10.457,-12.84 11.011,-34.754 1.857,-59.105c-13.27,-35.302 -44.718,-76.981 -63.332,-92.14c-16.788,-13.672 -37.547,-19.245 -57.527,-17.201c-19.98,2.044 -39.179,11.706 -52.851,28.494l-0,0.001Zm25.847,21.048c7.862,-9.655 18.906,-15.207 30.397,-16.383c11.491,-1.176 23.43,2.025 33.085,9.888c11.542,9.399 28.647,31.056 41.481,53.629c7.073,12.441 12.88,25.161 15.322,36.299c1.29,5.882 2.61,11.062 -0.126,14.421c-2.735,3.359 -8.076,3.116 -14.097,3.044c-11.402,-0.136 -25.034,-3.247 -38.649,-7.654c-24.705,-7.997 -49.377,-20.362 -60.918,-29.761c-9.655,-7.863 -15.208,-18.907 -16.383,-30.397c-1.176,-11.491 2.025,-23.431 9.888,-33.086l-0,0Z" style="fill:#7e4021;"/><path d="M2563.03,260.538c21.535,-26.443 60.487,-30.428 86.93,-8.894c26.444,21.535 80.611,101.354 59.077,127.797c-21.535,26.444 -110.669,-10.437 -137.113,-31.972c-26.443,-21.535 -30.429,-60.487 -8.894,-86.931Z" style="fill:#9d5e3e;"/><path d="M2550.11,250.014c-13.672,16.789 -19.246,37.547 -17.202,57.527c2.044,19.98 11.706,39.18 28.495,52.851c18.614,15.159 65.797,37.515 103.055,43.361c25.701,4.033 47.049,-0.947 57.505,-13.787c10.456,-12.84 11.01,-34.754 1.857,-59.106c-13.27,-35.302 -44.718,-76.981 -63.332,-92.139c-16.789,-13.672 -37.547,-19.246 -57.527,-17.202c-19.98,2.045 -39.18,11.707 -52.851,28.495l-0,0Zm25.846,21.049c7.863,-9.655 18.907,-15.208 30.398,-16.383c11.49,-1.176 23.43,2.025 33.085,9.888c11.541,9.399 28.647,31.055 41.481,53.629c7.073,12.441 12.88,25.16 15.322,36.298c1.289,5.882 2.61,11.063 -0.126,14.422c-2.735,3.359 -8.076,3.115 -14.097,3.043c-11.402,-0.136 -25.034,-3.246 -38.649,-7.653c-24.705,-7.997 -49.377,-20.363 -60.919,-29.761c-9.655,-7.863 -15.207,-18.907 -16.383,-30.398c-1.175,-11.49 2.026,-23.43 9.888,-33.085l0,-0Z" style="fill:#7e4021;"/><path d="M2520.63,974.476c14.46,15.058 13.973,39.022 -1.084,53.481c-15.058,14.459 -67.597,41.412 -82.056,26.354c-14.459,-15.057 14.602,-66.46 29.66,-80.919c15.057,-14.459 39.021,-13.973 53.48,1.084Z" style="fill:#fff;"/><path d="M2532.65,962.933c-10.415,-10.847 -24.253,-16.448 -38.199,-16.731c-13.947,-0.283 -28,4.752 -38.847,15.168c-11.121,10.679 -29.131,38.973 -35.776,62.267c-5.14,18.019 -2.623,33.615 5.638,42.218c8.261,8.603 23.742,11.751 41.955,7.346c23.544,-5.695 52.545,-22.543 63.666,-33.222c10.847,-10.416 16.448,-24.253 16.731,-38.2c0.283,-13.946 -4.752,-28 -15.168,-38.846l0,-0Zm-82.234,78.964c0.039,-1.525 0.157,-3.55 0.465,-5.061c1.641,-8.041 5.627,-17.278 10.219,-25.878c5.778,-10.822 12.527,-20.682 17.591,-25.545c4.211,-4.043 9.669,-5.994 15.084,-5.885c5.414,0.11 10.788,2.281 14.832,6.492l-0,0c4.043,4.211 5.994,9.669 5.885,15.083c-0.11,5.415 -2.281,10.789 -6.492,14.832c-5.064,4.863 -15.19,11.207 -26.237,16.541c-8.779,4.24 -18.171,7.849 -26.271,9.162c-1.522,0.246 -3.55,0.282 -5.076,0.259Z" style="fill:#7e4021;"/><path d="M470.476,967.451c-4.187,-20.452 9.017,-40.455 29.469,-44.642c20.452,-4.188 79.266,1.071 83.453,21.523c4.188,20.451 -47.828,48.401 -68.28,52.588c-20.451,4.187 -40.455,-9.017 -44.642,-29.469Z" style="fill:#fff;"/><path d="M454.148,970.794c3.016,14.732 11.726,26.856 23.368,34.54c11.642,7.685 26.213,10.93 40.945,7.914c15.105,-3.093 45.439,-17.402 63.494,-33.551c13.966,-12.492 20.164,-27.024 17.771,-38.708c-2.392,-11.685 -13.802,-22.612 -31.554,-28.61c-22.948,-7.754 -56.465,-8.991 -71.57,-5.898c-14.732,3.016 -26.856,11.726 -34.541,23.368c-7.684,11.641 -10.929,26.213 -7.913,40.945l-0,-0Zm111.691,-22.867c-0.847,1.269 -2.028,2.918 -3.095,4.031c-5.68,5.923 -13.982,11.605 -22.457,16.426c-10.662,6.066 -21.634,10.8 -28.512,12.208c-5.719,1.171 -11.376,-0.093 -15.895,-3.076c-4.52,-2.984 -7.905,-7.688 -9.076,-13.408l-0,-0c-1.171,-5.72 0.093,-11.376 3.076,-15.896c2.984,-4.519 7.688,-7.904 13.408,-9.075c6.878,-1.409 18.827,-1.367 31.016,0.02c9.687,1.103 19.554,3.065 27.104,6.279c1.419,0.604 3.153,1.657 4.431,2.491Z" style="fill:#7e4021;"/><path d="M2795.7,682.29c-17.236,11.779 -40.792,7.35 -52.571,-9.885c-11.779,-17.235 -29.704,-73.498 -12.469,-85.278c17.236,-11.779 63.145,25.357 74.925,42.592c11.779,17.236 7.35,40.792 -9.885,52.571Z" style="fill:#fff;"/><path d="M2805.11,696.05c12.415,-8.485 20.22,-21.21 22.798,-34.919c2.578,-13.71 -0.072,-28.401 -8.557,-40.816c-8.701,-12.729 -33.638,-35.157 -55.519,-45.55c-16.925,-8.04 -32.723,-8.128 -42.57,-1.398c-9.847,6.73 -15.503,21.481 -14.16,40.171c1.736,24.161 13.573,55.542 22.273,68.271c8.485,12.415 21.21,20.221 34.919,22.798c13.71,2.578 28.401,-0.072 40.816,-8.557l-0,-0Zm-64.33,-94.125c1.498,0.29 3.476,0.74 4.915,1.293c7.66,2.943 16.114,8.398 23.84,14.345c9.721,7.482 18.334,15.764 22.296,21.561c3.294,4.82 4.319,10.524 3.318,15.847c-1.001,5.322 -4.028,10.265 -8.848,13.559l0,-0c-4.82,3.294 -10.524,4.319 -15.847,3.318c-5.322,-1.001 -10.265,-4.027 -13.559,-8.847c-3.961,-5.797 -8.55,-16.83 -11.99,-28.605c-2.734,-9.358 -4.746,-19.216 -4.706,-27.422c0.008,-1.542 0.307,-3.548 0.581,-5.049Z" style="fill:#7e4021;"/><path d="M3007.02,248.075c-0.682,20.865 -18.175,37.251 -39.04,36.569c-20.865,-0.683 -76.845,-19.471 -76.163,-40.335c0.682,-20.865 57.77,-35.956 78.635,-35.274c20.865,0.682 37.25,18.176 36.568,39.04Z" style="fill:#fff;"/><path d="M3023.68,248.62c0.491,-15.03 -5.162,-28.846 -14.698,-39.027c-9.536,-10.181 -22.954,-16.724 -37.983,-17.216c-15.411,-0.503 -48.24,6.361 -69.554,17.871c-16.488,8.903 -25.894,21.595 -26.284,33.516c-0.39,11.921 8.167,25.2 24.038,35.162c20.517,12.877 52.828,21.871 68.238,22.375c15.03,0.492 28.846,-5.161 39.027,-14.697c10.181,-9.537 16.724,-22.954 17.216,-37.984l-0,0Zm-113.947,-3.726c1.119,-1.037 2.651,-2.366 3.948,-3.201c6.901,-4.44 16.296,-8.036 25.659,-10.755c11.781,-3.421 23.552,-5.474 30.569,-5.245c5.835,0.191 11.043,2.735 14.745,6.688c3.703,3.952 5.901,9.315 5.71,15.15l0,-0c-0.19,5.835 -2.735,11.042 -6.687,14.745c-3.953,3.702 -9.315,5.901 -15.15,5.71c-7.017,-0.23 -18.629,-3.048 -30.162,-7.231c-9.165,-3.324 -18.306,-7.527 -24.902,-12.408c-1.24,-0.918 -2.681,-2.344 -3.73,-3.453Z" style="fill:#7e4021;"/><path d="M1237.13,928.539c17.534,11.33 22.571,34.764 11.241,52.298c-11.33,17.534 -56.264,55.845 -73.798,44.515c-17.534,-11.33 -1.07,-68.038 10.259,-85.572c11.33,-17.533 34.764,-22.57 52.298,-11.241Z" style="fill:#fff;"/><path d="M1246.18,914.541c-12.63,-8.161 -27.385,-10.431 -41.023,-7.499c-13.638,2.931 -26.157,11.063 -34.318,23.693c-8.368,12.95 -19.39,44.627 -20.501,68.825c-0.859,18.718 5.177,33.317 15.195,39.79c10.017,6.473 25.807,5.977 42.519,-2.498c21.605,-10.955 45.954,-34.02 54.322,-46.97c8.162,-12.63 10.431,-27.385 7.5,-41.023c-2.932,-13.638 -11.064,-26.157 -23.694,-34.318l0,-0Zm-61.874,95.756c-0.313,-1.493 -0.664,-3.491 -0.712,-5.032c-0.252,-8.202 1.504,-18.108 3.995,-27.534c3.135,-11.86 7.437,-23.008 11.247,-28.905c3.169,-4.904 8.031,-8.057 13.326,-9.195c5.295,-1.139 11.024,-0.262 15.927,2.907l0,-0c4.904,3.168 8.058,8.031 9.196,13.326c1.138,5.295 0.261,11.024 -2.908,15.927c-3.81,5.897 -12.206,14.399 -21.73,22.131c-7.57,6.144 -15.88,11.816 -23.461,14.956c-1.425,0.59 -3.39,1.091 -4.88,1.419Z" style="fill:#7e4021;"/><path d="M2783.49,1395.95c-14.338,-15.174 -13.659,-39.133 1.515,-53.471c15.173,-14.337 67.927,-40.867 82.265,-25.693c14.337,15.173 -15.136,66.341 -30.31,80.678c-15.173,14.338 -39.133,13.659 -53.47,-1.514Z" style="fill:#fff;"/><path d="M2771.38,1407.39c10.328,10.93 24.12,16.643 38.064,17.038c13.944,0.395 28.037,-4.528 38.967,-14.856c11.207,-10.589 29.444,-38.737 36.276,-61.977c5.284,-17.977 2.892,-33.593 -5.299,-42.262c-8.192,-8.669 -23.647,-11.941 -41.895,-7.683c-23.589,5.506 -52.724,22.12 -63.931,32.709c-10.93,10.328 -16.642,24.12 -17.037,38.064c-0.395,13.944 4.527,28.037 14.855,38.967Zm82.866,-78.3c-0.051,1.525 -0.185,3.548 -0.506,5.057c-1.705,8.027 -5.765,17.232 -10.426,25.795c-5.865,10.775 -12.693,20.58 -17.796,25.402c-4.244,4.01 -9.717,5.917 -15.13,5.764c-5.414,-0.154 -10.77,-2.368 -14.78,-6.611c-4.01,-4.244 -5.917,-9.717 -5.763,-15.13c0.153,-5.414 2.367,-10.77 6.61,-14.78c5.103,-4.821 15.28,-11.084 26.369,-16.329c8.814,-4.169 18.234,-7.702 26.344,-8.95c1.524,-0.234 3.552,-0.254 5.078,-0.218Z" style="fill:#7e4021;"/><path d="M1427.38,512.153c-14.338,-15.174 -13.659,-39.133 1.515,-53.471c15.173,-14.337 67.927,-40.867 82.265,-25.694c14.337,15.174 -15.136,66.342 -30.31,80.679c-15.173,14.338 -39.132,13.659 -53.47,-1.514Z" style="fill:#fff;"/><path d="M1415.27,523.599c10.328,10.93 24.12,16.642 38.064,17.037c13.944,0.395 28.037,-4.527 38.967,-14.855c11.207,-10.589 29.444,-38.737 36.276,-61.977c5.284,-17.977 2.892,-33.593 -5.299,-42.262c-8.192,-8.669 -23.647,-11.941 -41.895,-7.683c-23.589,5.505 -52.724,22.12 -63.931,32.709c-10.93,10.328 -16.642,24.12 -17.037,38.064c-0.395,13.944 4.527,28.037 14.855,38.967Zm82.866,-78.3c-0.051,1.525 -0.185,3.548 -0.506,5.057c-1.705,8.027 -5.765,17.231 -10.426,25.795c-5.865,10.774 -12.693,20.58 -17.796,25.402c-4.244,4.01 -9.717,5.917 -15.13,5.764c-5.414,-0.154 -10.77,-2.368 -14.78,-6.611c-4.01,-4.244 -5.917,-9.717 -5.763,-15.13c0.153,-5.414 2.367,-10.77 6.61,-14.78c5.103,-4.822 15.28,-11.084 26.369,-16.329c8.814,-4.169 18.234,-7.702 26.344,-8.95c1.524,-0.234 3.553,-0.254 5.078,-0.218Z" style="fill:#7e4021;"/><path d="M604.813,1626.68c-4.199,-20.449 8.995,-40.46 29.444,-44.659c20.449,-4.199 79.267,1.026 83.465,21.476c4.199,20.449 -47.8,48.428 -68.25,52.627c-20.449,4.199 -40.46,-8.994 -44.659,-29.444Z" style="fill:#fff;"/><path d="M588.487,1630.03c3.025,14.73 11.742,26.849 23.388,34.527c11.646,7.678 26.219,10.915 40.95,7.89c15.103,-3.101 45.429,-17.427 63.474,-33.587c13.959,-12.5 20.148,-27.035 17.75,-38.719c-2.399,-11.683 -13.815,-22.603 -31.571,-28.591c-22.953,-7.742 -56.47,-8.959 -71.573,-5.858c-14.731,3.025 -26.85,11.742 -34.528,23.388c-7.678,11.646 -10.914,26.219 -7.89,40.95l0,-0Zm111.678,-22.931c-0.846,1.269 -2.026,2.919 -3.093,4.033c-5.676,5.926 -13.975,11.613 -22.447,16.439c-10.659,6.071 -21.628,10.812 -28.505,12.224c-5.719,1.174 -11.376,-0.086 -15.897,-3.067c-4.522,-2.981 -7.909,-7.684 -9.084,-13.403l0,0c-1.174,-5.719 0.087,-11.376 3.068,-15.897c2.981,-4.522 7.683,-7.909 13.402,-9.084c6.877,-1.412 18.826,-1.377 31.016,0.003c9.687,1.097 19.556,3.054 27.108,6.264c1.419,0.603 3.154,1.654 4.432,2.488Z" style="fill:#7e4021;"/><path d="M1118.77,1363.38c26.487,-9.815 50.933,-65.233 9.067,-111.645c-66.654,-73.89 -245.373,-77.258 -287.234,39.261c-52.419,145.904 279.689,217.275 278.167,72.384Z" style="fill:#ffeeda;"/><path d="M1135.08,1373.5c7.238,-4.955 14.066,-12.139 19.517,-21.167c16.551,-27.415 21.198,-72.313 -14.378,-111.751c-36.358,-40.306 -103.027,-62.122 -166.569,-57.227c-64.737,4.987 -125.461,37.262 -148.725,102.016c-15.501,43.146 -2.906,80.857 25.175,110.364c25.768,27.075 65.286,46.982 106.686,56.734c41.581,9.795 84.887,9.273 117.703,-3.159c33.814,-12.811 57.401,-37.498 60.591,-75.81Zm-22.094,-25.738c-6.597,2.445 -10.949,8.769 -10.875,15.804c0.297,28.224 -15.976,45.686 -39.432,54.572c-27.388,10.377 -63.547,10.06 -98.25,1.886c-34.886,-8.218 -68.47,-24.454 -90.183,-47.269c-19.399,-20.384 -28.66,-46.307 -17.951,-76.114c18.598,-51.767 68.161,-76.065 119.915,-80.051c52.947,-4.079 108.962,12.733 139.258,46.319c19.856,22.011 21.372,46.468 14.462,64.281c-3.856,9.94 -9.935,17.975 -16.944,20.572Z" style="fill:#7e4021;"/><path d="M3796.59,871.418c-3.779,20.354 21.902,56.562 66.838,47.663c71.541,-14.169 140.825,-125.352 83.244,-195.48c-72.101,-87.814 -241.818,94.323 -150.082,147.817Z" style="fill:#ffeeda;"/><path d="M3779.85,880.283c0.695,6.403 2.752,13.241 6.308,19.92c11.737,22.048 39.874,43.275 80.51,35.227c40.21,-7.964 80.295,-42.592 101.727,-85.682c21.967,-44.164 24.33,-96.325 -8.839,-136.723c-42.442,-51.691 -114.268,-28.662 -161.33,19.894c-22.447,23.16 -38.786,51.479 -43.433,77.563c-4.844,27.196 1.911,52.354 25.057,69.801Zm33.128,-5.823c1.285,-6.917 -1.913,-13.896 -7.991,-17.44c-16.024,-9.344 -20.268,-24.464 -17.377,-40.693c3.628,-20.368 17.023,-42.123 34.552,-60.209c17.659,-18.219 39.668,-32.819 61.417,-37.733c18.476,-4.175 36.686,-0.684 50.214,15.792c24.413,29.733 20.924,68.222 4.757,100.726c-16.7,33.577 -47.026,61.623 -78.358,67.828c-19.252,3.813 -33.725,-3.453 -41.504,-13.429c-3.912,-5.016 -6.524,-10.457 -5.71,-14.842Z" style="fill:#7e4021;"/><path d="M302.859,1431.96c-13.215,15.935 -8.423,60.067 35.157,74.183c69.381,22.473 184.047,-40.88 167.919,-130.173c-20.195,-111.813 -257.136,-35.414 -203.076,55.99Z" style="fill:#ffeeda;"/><path d="M283.92,1431.55c-2.512,5.931 -4.047,12.904 -4.195,20.47c-0.489,24.972 13.745,57.216 53.155,69.981c38.997,12.632 90.871,1.915 130.579,-25.278c40.696,-27.871 68.168,-72.274 58.877,-123.713c-11.887,-65.817 -85.834,-80.691 -150.587,-61.208c-30.884,9.292 -58.949,26.066 -75.712,46.582c-17.479,21.393 -23.834,46.655 -12.117,73.166Zm31.769,11.051c4.49,-5.415 5.097,-13.067 1.516,-19.123c-9.444,-15.967 -5.785,-31.238 4.645,-44.003c13.09,-16.022 35.385,-28.497 59.503,-35.754c24.297,-7.31 50.631,-9.339 72.019,-3.037c18.169,5.353 32.372,17.272 36.162,38.251c6.838,37.859 -14.957,69.773 -44.91,90.286c-30.94,21.189 -71.086,30.911 -101.472,21.069c-18.672,-6.048 -27.772,-19.444 -29.707,-31.945c-0.973,-6.287 -0.604,-12.31 2.244,-15.744Z" style="fill:#7e4021;"/><path d="M2127.37,727.933c12.422,-25.32 -0.735,-77.025 -53.258,-74.857c-83.62,3.451 -204.395,131.75 -170.382,233.507c42.591,127.418 301.606,-71.195 223.64,-158.65Z" style="fill:#ffeeda;"/><path d="M2146.09,724.87c8.929,-35.253 -10.37,-91.018 -72.672,-88.447c-45.585,1.882 -101.919,36.783 -141.6,86.093c-40.041,49.757 -62.612,113.374 -43.901,169.35c13.508,40.411 44.009,55.229 80.866,52.605c31.719,-2.258 68.953,-18.863 101.886,-43.24c39.239,-29.044 72.133,-68.936 83.414,-106.148c7.694,-25.379 5.966,-49.729 -7.993,-70.213Zm-33.689,-4.278c-2.985,6.085 -1.988,13.372 2.523,18.432c11.577,12.987 12.411,29.396 7.259,46.388c-9.533,31.447 -38.186,64.482 -71.346,89.027c-27.4,20.282 -58.031,34.905 -84.421,36.783c-21.25,1.513 -39.097,-6.624 -46.885,-29.923c-15.304,-45.784 5.505,-97.188 38.256,-137.885c33.11,-41.144 78.969,-72.116 117.006,-73.686c36.165,-1.492 46.161,33.43 37.608,50.864Z" style="fill:#7e4021;"/><path d="M1130.76,1357.12c-15.137,-15.222 -37.79,-31.299 -89.826,-52.11c-53.712,-21.482 -137.628,-17.268 -192.721,-12.671c-9.166,0.765 -15.988,8.828 -15.223,17.994c0.765,9.167 8.828,15.988 17.995,15.224c50.739,-4.234 128.103,-9.382 177.571,10.403c45.286,18.111 65.394,31.417 78.568,44.664c6.487,6.523 17.048,6.552 23.57,0.066c6.523,-6.486 6.552,-17.048 0.066,-23.57Z" style="fill:#7e4021;"/><path d="M3797.11,885.635c15.628,-3.893 34.748,-12.206 68.17,-37.714c34.187,-26.093 63.628,-81.163 81.697,-118.078c4.044,-8.262 0.62,-18.253 -7.642,-22.297c-8.262,-4.044 -18.253,-0.62 -22.297,7.642c-16.149,32.992 -41.428,82.916 -71.982,106.235c-27.643,21.098 -43.079,28.647 -56.004,31.868c-8.926,2.224 -14.367,11.276 -12.143,20.201c2.223,8.926 11.275,14.367 20.201,12.143Z" style="fill:#7e4021;"/><path d="M296.386,1444.63c15.544,4.211 36.292,6.265 77.906,0.267c42.568,-6.135 95.104,-39.89 128.866,-63.328c7.556,-5.246 9.432,-15.639 4.187,-23.195c-5.246,-7.557 -15.64,-9.432 -23.196,-4.187c-30.174,20.947 -76.569,52.234 -114.612,57.718c-34.419,4.96 -51.577,4.035 -64.434,0.551c-8.879,-2.405 -18.04,2.85 -20.446,11.728c-2.405,8.879 2.85,18.04 11.729,20.446Z" style="fill:#7e4021;"/><path d="M2128.8,714.57c-18.293,1.75 -42.202,8.423 -88.226,33.838c-46.923,25.911 -100.314,89.43 -134.374,132.201c-5.73,7.196 -4.54,17.69 2.656,23.42c7.195,5.73 17.69,4.54 23.42,-2.655c31.711,-39.821 80.724,-99.662 124.412,-123.786c39.443,-21.781 59.607,-28.337 75.285,-29.836c9.156,-0.875 15.88,-9.02 15.004,-18.177c-0.875,-9.157 -9.02,-15.88 -18.177,-15.005Z" style="fill:#7e4021;"/><path d="M3296.82,771.007c2.581,-1.021 5.619,-2.283 7.005,-3.073c17.871,-10.187 35.986,-19.603 54.689,-28.183c53.917,-24.735 110.598,-42.378 166.086,-63.139c55.843,-20.894 118.269,-38.923 167.142,-74.207c34.33,-24.784 60.021,-54.629 88.254,-80.537c25.611,-23.502 53.462,-43.604 94.098,-51.506c9.03,-1.756 14.935,-10.512 13.18,-19.541c-1.756,-9.03 -10.512,-14.935 -19.542,-13.179c-47.496,9.235 -80.338,32.197 -110.273,59.666c-27.312,25.063 -52.018,54.095 -85.229,78.071c-46.506,33.575 -106.173,50.131 -159.311,70.013c-56.238,21.042 -113.659,38.993 -168.304,64.062c-19.594,8.989 -38.575,18.849 -57.297,29.521c-2.752,1.568 -8.705,3.187 -11.618,4.916c-3.886,2.307 -6.257,5.193 -7.582,7.607c-1.98,3.606 -2.554,7.306 -2.036,11.005c0.517,3.69 2.083,8.082 7.068,11.926c7.284,5.618 17.759,4.264 23.376,-3.02l0.294,-0.402Zm1.595,-16.849c-0.85,-2.094 -2.379,-4.173 -4.909,-6.125c2.176,1.678 3.823,3.791 4.909,6.125Z" style="fill:#7e4021;"/><path d="M689.3,1202.8c18.974,-24.473 53.959,-54.319 62.303,-63.203c275.873,-293.754 494.317,-374.718 823.375,-570.964c100.496,-59.934 196.527,-67.5 297.141,-67.195c104.708,0.317 214.263,9.017 338.282,-19.014c105.687,-23.888 214.873,-28.667 322.854,-27.568c46.211,0.469 160.85,-38.179 306.618,-82.478c213.204,-64.794 494.986,-141.13 723.799,-114.04c9.135,1.081 17.429,-5.457 18.51,-14.592c1.082,-9.134 -5.456,-17.429 -14.591,-18.51c-233.071,-27.594 -520.239,49.25 -737.411,115.249c-141.15,42.896 -251.839,81.494 -296.586,81.039c-110.557,-1.124 -222.334,3.929 -330.542,28.387c-121.279,27.412 -228.437,18.504 -330.832,18.194c-106.49,-0.323 -207.951,8.465 -314.316,71.899c-332.095,198.057 -552.18,280.309 -830.6,576.774c-8.725,9.29 -45.372,40.856 -64.935,66.35c-6.107,7.959 -10.678,15.533 -13.096,21.948c-2.667,7.076 -3.041,13.439 -1.853,18.668c0.784,3.449 2.612,7.334 7.186,10.339c1.159,0.761 6.326,3.225 15.402,3.058c34.519,-0.636 207.156,-17.477 269.16,-22.058c331.006,-24.459 626.033,15.127 949.882,-59.199c216.495,-49.688 437.44,-121.358 646.129,-189.409c82.738,-26.98 160.159,-33.128 235.792,-45.263c78.692,-12.626 155.476,-31.556 234.21,-84.046c7.654,-5.102 9.725,-15.459 4.623,-23.112c-5.103,-7.654 -15.459,-9.725 -23.113,-4.623c-74.247,49.498 -146.793,66.962 -221.001,78.869c-77.268,12.397 -156.318,18.921 -240.845,46.484c-207.764,67.749 -427.716,139.144 -643.252,188.611c-322.134,73.932 -615.627,34.116 -944.882,58.445c-53.537,3.956 -190.124,17.164 -247.411,20.96Z" style="fill:#7e4021;"/><path d="M703.163,1221.95c276.001,-293.89 611.812,-391.786 941.024,-588.123c100.495,-59.934 196.527,-67.499 297.14,-67.195c104.708,0.318 214.264,9.018 338.282,-19.014c105.687,-23.888 214.874,-28.666 322.854,-27.568c46.234,0.47 163.084,-40.932 311.476,-88.61c216.892,-69.686 503.264,-152.19 732.028,-125.106c9.134,1.081 17.429,-5.457 18.51,-14.592c1.082,-9.135 -5.457,-17.429 -14.591,-18.51c-233.121,-27.6 -525.121,55.459 -746.143,126.472c-143.551,46.122 -256.216,87.469 -300.941,87.014c-110.556,-1.124 -222.333,3.929 -330.541,28.387c-121.28,27.413 -228.437,18.505 -330.833,18.194c-106.489,-0.322 -207.951,8.466 -314.315,71.9c-331.943,197.965 -669.957,297.604 -948.248,593.932c-6.297,6.705 -5.966,17.262 0.739,23.559c6.706,6.297 17.262,5.966 23.559,-0.74Z" style="fill:#7e4021;"/><path d="M172.167,1011.39c-49.92,95.591 -67.856,206.799 -63.034,314.487c0.412,9.189 8.206,16.315 17.396,15.904c9.189,-0.412 16.316,-8.206 15.904,-17.396c-4.561,-101.869 12.058,-207.138 59.281,-297.565c4.258,-8.154 1.095,-18.231 -7.058,-22.489c-8.154,-4.258 -18.231,-1.095 -22.489,7.059Z" style="fill:#7e4021;"/><path d="M116.758,1405.06c-1.428,29.525 14.676,72.296 18.373,90.782c1.804,9.02 10.592,14.878 19.612,13.074c9.02,-1.804 14.878,-10.592 13.074,-19.612c-3.374,-16.868 -19.068,-55.691 -17.765,-82.634c0.444,-9.188 -6.654,-17.008 -15.842,-17.452c-9.188,-0.444 -17.008,6.654 -17.452,15.842Z" style="fill:#7e4021;"/></g></svg>