<?xml version="1.0" encoding="UTF-8" standalone="no"?><!DOCTYPE svg PUBLIC "-//W3C//DTD SVG 1.1//EN" "http://www.w3.org/Graphics/SVG/1.1/DTD/svg11.dtd"><svg width="100%" height="100%" viewBox="0 0 4656 4627" version="1.1" xmlns="http://www.w3.org/2000/svg" xmlns:xlink="http://www.w3.org/1999/xlink" xml:space="preserve" xmlns:serif="http://www.serif.com/" style="fill-rule:evenodd;clip-rule:evenodd;stroke-linejoin:round;stroke-miterlimit:2;"><g id="Mug-Walking"><g><path d="M1211.84,1483.49c-9.727,-14.131 -173.822,-194.61 -241.529,-328.799c-33.531,-66.456 -64.918,-141.743 -93.94,-210.309c-14.333,-33.86 -22.556,-83.498 -44.744,-113.36c-34.382,-46.273 -142.865,-37.008 -164.119,25.384c-5.134,15.072 0.727,49.039 1.727,56.165c29.225,208.219 167.801,416.305 244.185,538.048c80.911,128.959 176.602,185.202 220.783,188.189c48.138,3.255 109.045,-109.688 77.637,-155.318Z" style="fill:#ffdab8;"/><path d="M1225.57,1474.04c-9.674,-14.053 -173.044,-193.407 -240.378,-326.857c-33.369,-66.135 -64.59,-141.064 -93.472,-209.298c-14.794,-34.951 -23.811,-85.979 -46.714,-116.804c-20.345,-27.38 -62.136,-39.776 -102.462,-34.65c-40.468,5.144 -78.191,27.552 -90.812,64.601c-5.835,17.129 -0.138,55.757 0.999,63.856c29.568,210.665 169.29,421.415 246.572,544.589c50.157,79.943 105.947,132.712 152.306,162.904c33.067,21.537 61.935,31.735 81.471,33.056c10.792,0.73 22.146,-2.332 33.251,-8.885c13.69,-8.079 27.29,-21.74 38.771,-38.418c16.527,-24.008 28.709,-54.205 31.434,-81.01c2.086,-20.512 -1.403,-39.19 -10.966,-53.084Zm-27.458,18.9c4.454,6.47 5.86,14.954 5.673,24.202c-0.348,17.275 -6.566,36.925 -15.741,54.691c-9.122,17.663 -21.191,33.551 -34.107,43.002c-6.251,4.574 -12.473,7.759 -18.609,7.345c-15.81,-1.069 -38.767,-10.301 -65.528,-27.73c-43.381,-28.254 -95.325,-77.88 -142.261,-152.688c-75.487,-120.314 -212.917,-325.735 -241.798,-531.507c-0.572,-4.076 -2.84,-17.359 -3.484,-30.439c-0.334,-6.8 -0.498,-13.554 1.028,-18.036c8.636,-25.351 35.771,-38.762 63.462,-42.282c27.834,-3.538 57.461,2.565 71.503,21.464c21.473,28.9 28.902,77.147 42.773,109.917c29.163,68.897 60.715,144.542 94.409,211.32c68.08,134.928 232.9,316.532 242.68,330.741Z" style="fill:#7e4021;"/><path d="M891.192,763.117c-21.782,-22.192 -171.197,-41.302 -280.847,61.685c-14.144,13.285 -22.995,39.437 -18.209,58.779c1.307,5.283 3.861,10.024 7.416,14.188c29.594,34.665 89.23,48.014 161.253,37.364c79.341,-11.731 204.84,-96.164 130.387,-172.016Z" style="fill:#fff;"/><path d="M903.087,751.442c-7.918,-8.067 -29.248,-17.308 -59.526,-20.809c-61.661,-7.129 -163.456,5.783 -244.626,82.02c-18.015,16.92 -29.073,50.295 -22.978,74.931c1.933,7.813 5.663,14.849 10.919,21.006c32.457,38.019 97.375,54.71 176.367,43.031c51.598,-7.629 120.966,-44.032 150.966,-89.367c11.329,-17.12 17.33,-35.519 16.27,-54.191c-1.061,-18.691 -9.09,-37.975 -27.392,-56.621Zm-23.789,23.35c11.481,11.696 17.235,23.436 17.901,35.16c1.047,18.448 -9.804,35.891 -25.325,51.446c-29.55,29.615 -76.857,51.829 -113.506,57.248c-65.068,9.621 -119.405,-0.382 -146.141,-31.699c-1.852,-2.17 -3.231,-4.615 -3.913,-7.368c-3.476,-14.05 3.167,-32.979 13.441,-42.629c72.34,-67.943 163.024,-79.558 217.978,-73.204c13.256,1.533 24.316,4.082 32.274,7.223c3.262,1.288 5.87,2.375 7.291,3.823Z" style="fill:#7e4021;"/><path d="M714.361,871.261c-91.757,8.385 -191.249,-82.967 -315.81,-68.53c-75.896,8.797 -108.821,10.089 -187.613,28.38c-84.645,19.649 -143.893,-35.036 -149.929,-69.585c-10.844,-62.065 46.487,-95.152 42.857,-98.134c-46.922,-4.339 -80.232,-38.644 -83.075,-84.383c-5.118,-82.338 75.404,-98.185 75.859,-100.917c-40.403,-28.076 -91.394,-52.342 -76.097,-108.324c15.132,-55.376 56.414,-67.4 111.762,-64.471c-75.151,-19.125 -100.349,-77.302 -68.9,-123.446c69.296,-101.674 381.93,102.872 519.291,88.173c87.487,-9.362 -113.527,-197.14 -7.53,-245.418c123.112,-56.074 241.084,232.286 285.43,345.903c55.129,141.247 126.232,222.324 47.785,373.506c-27.483,52.965 -96.767,118.358 -194.03,127.246Z" style="fill:#fff;"/><path d="M62.569,475.238c-26.72,14.558 -62.164,44.453 -58.412,104.805c2.722,43.8 28.985,78.81 68.334,93.282c-15.581,19.27 -34.725,52.006 -27.9,91.07c2.251,12.882 10.041,28.245 23.263,42.462c27.877,29.975 80.308,55.936 146.853,40.489c78.012,-18.11 110.618,-19.349 185.763,-28.059c59.42,-6.887 112.772,11.926 162.3,30.993c54.518,20.989 104.927,41.981 153.108,37.578l0,0c103.967,-9.5 177.929,-79.551 207.307,-136.167c49.87,-96.109 42.648,-165.481 16.314,-237.924c-16.61,-45.692 -41.262,-92.683 -63.367,-149.317c-31.687,-81.184 -100.8,-249.433 -182.16,-323.645c-39.771,-36.276 -82.704,-50.952 -125.704,-31.367c-33.138,15.094 -43.422,40.549 -41.213,70.851c2.671,36.632 27.057,82.094 45.21,120.353c5.425,11.432 10.203,22.154 13.295,31.68c1.467,4.517 2.544,8.7 2.99,12.496c0.305,2.595 0.789,4.866 -0.321,6.526c-1.198,1.79 -3.842,1.739 -7.297,2.108c-36.663,3.924 -86.32,-9.088 -140.422,-26.939c-85.793,-28.309 -181.947,-69.318 -257.128,-84.033c-28.859,-5.649 -54.86,-7.45 -76.449,-3.936c-24.835,4.043 -44.339,14.918 -57.29,33.921c-19.452,28.54 -21.102,60.824 -6.551,88.908c6.158,11.886 15.386,23.118 27.689,32.866c-11.214,3.31 -21.329,8.106 -30.202,14.67c-16.301,12.058 -28.874,30.009 -36.103,56.465c-9.528,34.87 1.416,59.907 21.206,80.554c10.318,10.765 23.394,20.192 36.887,29.31Zm650.276,379.425c-43.577,3.982 -88.791,-16.508 -138.099,-35.49c-54.298,-20.904 -112.972,-40.548 -178.114,-32.997c-76.646,8.883 -109.891,10.229 -189.463,28.7c-44.687,10.374 -81.393,-2.491 -104.704,-21.255c-13.883,-11.175 -23.14,-24.101 -25.038,-34.963c-4.81,-27.534 7.025,-48.035 18.173,-61.54c9.098,-11.02 17.983,-18.194 20.615,-21.45c4.038,-4.993 4.53,-9.575 4.481,-12.233c-0.099,-5.329 -2.21,-9.603 -6.251,-12.922c-2.575,-2.115 -5.726,-3.41 -9.044,-3.717c-38.331,-3.544 -65.653,-31.458 -67.975,-68.821c-3.881,-62.43 51.779,-78.664 63.009,-83.129c10.401,-4.136 12.337,-12.102 12.656,-14.02c1.056,-6.353 -1.642,-12.746 -6.931,-16.421c-15.748,-10.943 -33.182,-21.241 -47.438,-33.212c-16.966,-14.248 -29.188,-31.062 -22.091,-57.032c4.876,-17.846 12.776,-30.32 23.771,-38.454c17.723,-13.109 42.282,-15.288 71.032,-13.766c8.561,0.453 16.068,-5.661 17.358,-14.136c1.29,-8.474 -4.059,-16.545 -12.366,-18.659c-60.831,-15.481 -84.695,-60.557 -59.239,-97.909c10.928,-16.033 30.044,-21.149 53.68,-21.181c28.621,-0.039 63.301,7.793 100.915,19.103c70.895,21.315 151.621,55.076 222.656,76.767c49.894,15.236 95.319,24.386 130.041,20.67c14.183,-1.517 23.295,-6.806 29.089,-13.593c6.159,-7.214 9.116,-16.745 8.411,-28.464c-0.913,-15.164 -8.889,-35.616 -19.599,-58.187c-13.93,-29.36 -32.435,-63.095 -39.574,-93.075c-5.386,-22.621 -3.918,-42.938 19.279,-53.504c19.704,-8.975 39.226,-6.568 58.163,3.184c21.849,11.252 42.795,31.62 62.747,56.809c63.813,80.564 115.893,209.698 142.085,276.803c21.998,56.362 46.561,103.114 63.091,148.586c23.375,64.303 29.693,125.874 -14.574,211.184c-25.588,49.313 -90.195,110.049 -180.752,118.324l-0,0Z" style="fill:#7e4021;"/><path d="M105.581,319.465c21.167,-1.14 80.317,9.326 95.433,11.115c102.162,12.09 196.6,7.829 287.388,59.038c8.012,4.519 18.186,1.683 22.705,-6.329c4.519,-8.012 1.683,-18.185 -6.329,-22.705c-94.819,-53.482 -193.149,-50.479 -299.847,-63.106c-16.011,-1.895 -78.721,-12.506 -101.142,-11.299c-9.185,0.495 -16.241,8.354 -15.747,17.539c0.495,9.185 8.354,16.241 17.539,15.747Z" style="fill:#7e4021;"/><path d="M84.953,493.376c16.626,-0.431 37.445,-6.83 54.878,-7.906c118.383,-7.309 209.407,-10.425 323.865,26.704c8.75,2.838 18.158,-1.961 20.996,-10.711c2.839,-8.75 -1.961,-18.158 -10.71,-20.996c-118.836,-38.549 -213.295,-35.856 -336.205,-28.267c-17.06,1.053 -37.417,7.432 -53.688,7.854c-9.195,0.238 -16.467,7.897 -16.229,17.093c0.238,9.195 7.898,16.467 17.093,16.229Z" style="fill:#7e4021;"/><path d="M499.303,341.363c-4.49,7.652 -8.491,15.512 -12.108,23.615c-11.284,25.273 -20.172,52.668 -26.25,79.641c-17.177,76.221 -4.482,161.686 34.333,229.453c4.572,7.982 14.764,10.751 22.746,6.179c7.982,-4.572 10.751,-14.764 6.179,-22.746c-34.773,-60.709 -46.128,-137.275 -30.74,-205.558c5.6,-24.85 13.773,-50.095 24.169,-73.38c3.115,-6.976 6.554,-13.745 10.42,-20.333c4.656,-7.934 1.995,-18.155 -5.939,-22.81c-7.933,-4.656 -18.154,-1.995 -22.81,5.939Z" style="fill:#7e4021;"/><path d="M106.075,681.416c27.65,-9.495 83.78,-18.318 112.446,-23.7c106.849,-20.061 149.396,-28.163 258.195,-24.782c9.194,0.286 16.89,-6.946 17.176,-16.141c0.286,-9.194 -6.947,-16.89 -16.141,-17.176c-111.822,-3.475 -155.564,4.72 -265.381,25.338c-29.87,5.609 -88.309,15.041 -117.121,24.934c-8.7,2.988 -13.338,12.477 -10.35,21.177c2.987,8.7 12.476,13.337 21.176,10.35Z" style="fill:#7e4021;"/><path d="M3149.99,305.729c-962.531,-355.647 -2154.34,-313.828 -2036.42,113.423c134.687,487.994 2394.44,841.76 2503.19,413.233c78.649,-309.921 -272.314,-454.806 -466.772,-526.656Z" style="fill:#fff;"/><path d="M3155.76,290.095c-677.982,-250.509 -1469.11,-304.007 -1842.01,-166.718c-169.006,62.223 -253.897,163.814 -216.251,300.209c11.991,43.448 39.588,86.075 80.679,127.108c59.238,59.154 146.924,115.425 254.566,167.156c412.852,198.411 1121.68,331.756 1621.11,323.152c185.333,-3.192 342.056,-26.098 444.982,-71.789c73.24,-32.512 119.94,-77.023 134.076,-132.728c41.192,-162.319 -29.477,-281.656 -136.548,-369.585c-103.711,-85.169 -241.951,-140.354 -340.601,-176.805l-0.001,0Zm-11.552,31.268c95.807,35.4 230.277,88.582 331,171.298c97.363,79.957 162.851,188.021 125.393,335.625c-11.964,47.144 -53.307,82.945 -115.291,110.461c-99.903,44.348 -252.143,65.828 -432.032,68.927c-494.786,8.524 -1197.08,-123.301 -1606.09,-319.868c-103.695,-49.835 -188.384,-103.713 -245.45,-160.699c-36.446,-36.393 -61.466,-73.854 -72.101,-112.389c-33.112,-119.97 46.982,-205.331 195.636,-260.06c368.267,-135.584 1149.38,-80.693 1818.94,166.704l0.001,0.001Z" style="fill:#7e4021;"/><path d="M3075.74,346.817c-877.803,-302.609 -1952.74,-299.396 -1835.68,38.38c133.701,385.799 2182.6,719.111 2270.15,385.957c63.317,-240.946 -257.129,-363.202 -434.47,-424.337Z" style="fill:#f7bf9a;"/><path d="M3081.17,331.06c-618.193,-213.112 -1333.66,-274.621 -1666.85,-176.29c-153.916,45.423 -228.092,125.999 -190.01,235.885c12.035,34.727 38.206,69.316 76.741,102.86c54.958,47.839 135.54,94.145 234.021,137.367c377.564,165.705 1020.66,287.763 1471.24,293.407c167.261,2.095 308.228,-12 400.029,-45.26c66.763,-24.19 108.358,-59.371 119.991,-103.639c27.045,-102.917 -10.915,-185.732 -78.998,-252.025c-97.345,-94.787 -257.854,-154.969 -366.159,-192.305l-0,-0Zm-10.863,31.513c104.503,36.026 259.839,93.214 353.768,184.674c59.432,57.87 93.622,129.83 70.013,219.671c-9.381,35.696 -45.271,61.265 -99.107,80.771c-89.082,32.275 -225.949,45.303 -388.257,43.269c-446.586,-5.594 -1084.04,-126.361 -1458.26,-290.599c-94.836,-41.622 -172.608,-85.918 -225.531,-131.987c-33.387,-29.061 -56.705,-58.545 -67.132,-88.632c-32.166,-92.817 37.943,-154.633 167.949,-193c329.171,-97.144 1035.82,-34.706 1646.55,175.833l0.001,0Z" style="fill:#7e4021;"/><path d="M3406.48,321.253c-388.474,216.406 -403.553,128.455 -349.193,13.505c56.126,-118.686 81.27,-162.424 13.553,-185.152c-112.361,-37.712 -299.251,168.887 -476.185,243.452c-132.699,55.924 -221.438,54.845 -396.376,-34.404c-142.166,-72.531 -101.353,105.27 -452.443,102.54c-212.659,-1.654 -376.088,66.078 -318.57,98.131c537.156,299.331 2009.03,493.093 2082.94,211.829c28.525,-148.176 -131.952,-268.248 145.176,-294.624c172.696,-16.437 304.278,-117.729 286.306,-198.569c-45.186,-203.265 -417.208,-22.444 -535.212,43.292Z" style="fill:#d9905f;"/><path d="M3398.37,306.694c-152.437,84.917 -246.044,122.58 -300.348,129.368c-19.035,2.379 -32.018,1.342 -39.938,-4.62c-7.691,-5.789 -8.086,-16.069 -6.512,-28.273c2.293,-17.763 10.216,-38.941 20.783,-61.286c28.978,-61.279 49.589,-103.362 54.584,-132.907c3.278,-19.387 0.504,-34.579 -8.019,-46.981c-7.916,-11.52 -21.463,-21.036 -42.776,-28.189c-20.719,-6.954 -43.632,-7.008 -68.35,-1.323c-33.661,7.743 -71.095,26.369 -110.888,50.858c-94.424,58.109 -203.295,149.928 -308.722,194.359c-128.018,53.951 -213.564,52.208 -382.329,-33.892c-32.323,-16.491 -56.473,-20.999 -77.383,-18.641c-20.968,2.363 -39.02,11.782 -59.03,25.188c-51.167,34.278 -118.787,95.765 -323.476,94.173c-153.711,-1.195 -282.27,33.939 -325.346,65.745c-17.609,13.002 -23.277,27.522 -21.22,39.075c1.526,8.567 7.153,17.513 19.754,24.535c377.969,210.625 1216.28,369.536 1710.77,348.779c129.178,-5.423 235.189,-23.267 304.275,-54.99c50.606,-23.238 82.181,-54.41 92.134,-92.282c0.094,-0.359 0.177,-0.721 0.247,-1.086c11.857,-61.591 -7.076,-118.574 -16.395,-166.457c-4.584,-23.554 -7.167,-44.478 1.678,-61.926c6.326,-12.478 18.685,-22.549 39.14,-31.027c24.08,-9.98 58.263,-17.232 105.966,-21.772c107.922,-10.272 200.251,-52.796 252.945,-103.01c38.771,-36.946 56.315,-78.598 48.052,-115.768c-20.107,-90.449 -96.969,-115.188 -192.07,-104.448c-130.408,14.728 -295.519,96.686 -367.523,136.798Zm-1964.81,236.859c1.088,-1.326 2.688,-3.131 4.234,-4.415c5.478,-4.548 13.162,-9.089 22.692,-13.636c53.672,-25.609 160.84,-48.609 285.22,-47.642c216.62,1.685 288.138,-63.535 342.288,-99.812c15.098,-10.115 28.39,-17.974 44.211,-19.758c15.879,-1.79 33.954,2.687 58.5,15.21c181.11,92.399 273.041,92.814 410.423,34.917c106.893,-45.048 217.511,-137.771 313.247,-196.688c30.436,-18.73 59.26,-33.953 85.917,-42.588c23.941,-7.755 45.863,-10.24 65.245,-3.734c14.47,4.856 23.821,9.872 27.576,18.46c3.983,9.111 1.673,20.664 -3.188,35.936c-8.417,26.444 -25.67,61.234 -47.705,107.83c-12.639,26.725 -21.571,52.167 -23.938,73.172c-1.931,17.142 0.463,31.809 7.109,43.11c10.831,18.418 33.972,30.571 76.764,25.223c56.408,-7.051 154.093,-45.118 312.436,-133.325c69.6,-38.772 228.987,-118.558 355.042,-132.794c75.894,-8.572 139.744,6.377 155.79,78.559c6.116,27.511 -9.812,57.057 -38.508,84.403c-48.491,46.209 -133.795,84.505 -233.108,93.957c-52.064,4.955 -89.29,13.27 -115.571,24.163c-29.91,12.397 -46.859,28.502 -56.108,46.748c-11.922,23.517 -10.845,51.619 -4.666,83.365c8.588,44.129 27.22,96.49 16.49,153.221c-7.964,29.387 -34.303,51.869 -73.667,69.945c-66.215,30.405 -167.952,46.781 -291.763,51.978c-489.361,20.542 -1319.09,-136.152 -1693.14,-344.592c-0.583,-0.325 -1.234,-0.771 -1.819,-1.213Z" style="fill:#7e4021;"/><path d="M4066.35,355.369c-14.512,35.823 51.685,46.184 130.894,87.904c63.762,33.584 95.267,116.6 190.941,107.746c99.449,-9.204 121.408,-184.681 -32.791,-252.798c-118.824,-52.49 -258.919,-17.215 -289.044,57.148Z" style="fill:#d9905f;"/><path d="M4050.9,349.111c-4.039,9.971 -4.096,18.831 -1.43,26.938c3.294,10.012 11.549,19.415 25.029,27.851c23.765,14.871 66.983,28.842 114.975,54.119c30.795,16.22 53.562,44.66 80.421,67.693c30.976,26.564 66.531,46.834 119.823,41.902c35.758,-3.309 63.305,-24.34 79.153,-54.665c34.108,-65.269 12.584,-177.26 -106.745,-229.973c-75.542,-33.37 -159.206,-33.073 -220.938,-10.629c-43.842,15.94 -76.687,43.189 -90.288,76.764Zm30.895,12.516c10.499,-25.918 36.94,-45.648 70.783,-57.953c54.791,-19.92 129.031,-19.826 196.078,9.793c83.239,36.77 110.776,107.486 99.078,160.626c-7.055,32.046 -28.713,57.334 -61.088,60.33c-51.554,4.771 -81.98,-21.047 -110.747,-48.271c-22.467,-21.262 -44.056,-43.491 -70.891,-57.625c-47.059,-24.786 -89.523,-38.301 -112.826,-52.884c-7.134,-4.464 -13.027,-7.501 -10.388,-14.016l0.001,-0Z" style="fill:#7e4021;"/><path d="M1979.39,2707.36c1.619,-10.466 -208.547,-190.062 -245.685,-103.964c-37.013,85.804 -62.101,145.199 -63.416,148.829c-92.427,255.001 222.693,438.777 270.841,475.543c84.277,64.354 682.775,454.644 721.244,406.576c23.131,-62.403 52.92,-111.599 66.985,-129.203c-57.816,-37.339 -428.676,-276.822 -533.794,-354.952c-131.345,-97.625 -257.41,-176.218 -216.175,-442.829Z" style="fill:#f7bf9a;"/><path d="M1995.86,2709.9c0.386,-2.491 0.442,-6.115 -1.539,-10.479c-1.18,-2.597 -4.711,-7.678 -10.899,-14.026c-21.662,-22.221 -82.739,-72.315 -139.285,-100.533c-25.263,-12.608 -49.796,-20.77 -69.955,-21.387c-25.56,-0.783 -45.346,9.117 -55.782,33.312c-37.239,86.33 -62.458,146.098 -63.782,149.75c-39.04,107.71 -9.685,203.458 43.404,281.978c76.717,113.467 203.604,190.05 232.992,212.492c67.777,51.754 466.415,313.163 642.949,390.933c33.519,14.767 59.832,22.871 75.378,23.143c12.792,0.224 21.211,-4.293 26.045,-10.333c1.113,-1.391 1.996,-2.951 2.615,-4.622c22.289,-60.133 50.824,-107.628 64.378,-124.591c2.941,-3.681 4.186,-8.435 3.428,-13.086c-0.758,-4.65 -3.449,-8.762 -7.407,-11.318c-57.717,-37.276 -427.956,-276.332 -532.894,-354.329c-76.443,-56.817 -151.637,-106.405 -190.446,-193.312c-25.643,-57.423 -35.057,-131.066 -19.2,-233.592Zm-33.895,1.259c-15.744,107.455 -4.512,185.079 22.659,245.925c41.209,92.283 119.826,146.141 200.998,206.473c98.618,73.3 430.721,288.387 520.035,346.107c-15.43,23.352 -37.634,63.396 -56.239,111.816c-2.764,-0.161 -6.977,-0.53 -10.596,-1.357c-13.21,-3.022 -30.669,-9.545 -51.421,-18.687c-174.683,-76.955 -569.091,-335.71 -636.157,-386.922c-23.759,-18.143 -113.505,-72.421 -185.793,-153.759c-69.47,-78.166 -123.325,-181.931 -79.494,-302.859c1.307,-3.607 26.265,-62.628 63.05,-147.907c4.421,-10.25 13.326,-13.528 24.154,-13.197c16.225,0.498 35.758,7.748 56.092,17.895c55.796,27.845 116.585,78.367 132.712,96.472Z" style="fill:#7e4021;"/><path d="M1233.95,584.847c-13.086,26.334 -37.053,188.347 -39.896,218.4c-20.057,212.018 -46.977,422.978 -77.172,634.09c-21.915,153.219 -172.686,652.581 -20.36,912.836c289.858,495.234 1801.33,618.753 2065.82,275.012c160.931,-209.152 187.461,-491.246 210.029,-751.905c10.239,-118.255 142.309,-846.984 109.615,-906.623c-6.765,-12.34 -43.23,10.87 -165.689,29.182c-433.074,64.758 -1111.79,-20.519 -1656.25,-207.467c-143.419,-49.245 -321.719,-119.41 -426.094,-203.525Z" style="fill:#ffdab8;"/><path d="M1244.41,571.87c-3.932,-3.169 -9.09,-4.384 -14.024,-3.304c-4.934,1.081 -9.111,4.341 -11.359,8.864c-13.443,27.051 -38.643,193.375 -41.563,224.247c-20.033,211.754 -46.922,422.452 -77.079,633.3c-13.183,92.172 -72.792,309.294 -85.448,524.596c-8.621,146.654 4.786,292.376 67.203,399.019c71.072,121.429 213.56,221.609 393.543,297.94c266.045,112.83 614.157,174.28 928.426,179.637c210.2,3.582 405.279,-17.969 550.809,-65.644c99.835,-32.705 176.648,-78.012 220.633,-135.176c162.852,-211.649 190.587,-496.861 213.424,-760.631c8.193,-94.62 94.363,-580.006 111.764,-800.915c3.149,-39.975 4.013,-71.577 1.993,-91.171c-1.141,-11.064 -3.459,-19.111 -6.132,-23.987c-3.99,-7.278 -10.572,-12.269 -22.897,-12.115c-16.95,0.213 -60.537,17.971 -159.871,32.825c-431.023,64.452 -1106.49,-20.683 -1648.37,-206.746c-141.672,-48.645 -317.946,-117.649 -421.049,-200.739Zm2224.68,408.804c0.544,3.506 0.804,8.001 1.079,13.345c0.953,18.502 -0.124,44.94 -2.663,77.167c-17.395,220.838 -103.552,706.067 -111.742,800.657c-22.298,257.548 -47.622,536.522 -206.633,743.178c-40.653,52.834 -112.321,93.6 -204.592,123.827c-142.627,46.724 -333.856,67.504 -539.864,63.992c-310.041,-5.285 -653.514,-65.684 -915.979,-176.996c-172.356,-73.096 -309.729,-167.807 -377.79,-284.09c-59.443,-101.562 -70.906,-240.558 -62.695,-380.225c12.59,-214.178 72.055,-430.141 85.169,-521.832c30.233,-211.375 57.185,-422.598 77.267,-634.881c2.342,-24.759 19.008,-141.675 31.789,-192.444l-0,0c107.323,78.723 275.375,144.784 412.196,191.763c547.039,187.834 1229,273.252 1664.13,208.187c74.251,-11.103 117.221,-23.966 141.191,-29.804c3.152,-0.768 6.478,-1.395 9.139,-1.844Z" style="fill:#7e4021;"/><path d="M2619.26,3939.58c-231.12,48.881 -215.688,372.744 -191.057,427.031c52.995,116.798 676.248,100.198 832.003,-230.381c124.998,-265.299 86.538,-410.637 38.908,-446.697c-227.53,-30.884 -421.185,-211.618 -538.684,-210.896c-31.023,0.191 -98.971,152.232 -112.473,211.883c-8.312,36.721 113.198,44.589 85.441,161.387c-22.296,93.813 22.045,58.87 -114.138,87.673Z" style="fill:#e0f0ff;"/><path d="M2707.62,3907.03c-2.244,0.563 -6.397,1.536 -10.45,2.174c-15.195,2.389 -40.064,5.333 -81.356,14.067l-0.001,-0c-122.792,25.97 -180.888,124.263 -204.215,223.999c-23.042,98.515 -11.497,197.736 1.43,226.225c7.682,16.93 24.656,32.258 50.01,44.17c32.921,15.468 80.889,25.937 137.683,29.797c129.217,8.781 304.995,-16.209 448.961,-88.54c97.532,-49.001 180.418,-119.688 225.603,-215.591c76.929,-163.277 92.856,-282.405 83.25,-359.454c-7.007,-56.198 -27.978,-91.448 -49.359,-107.635c-2.285,-1.73 -4.978,-2.842 -7.819,-3.227c-134.475,-18.253 -256.787,-90.022 -358.242,-144.062c-71.653,-38.166 -133.739,-67.287 -182.785,-66.985c-5.571,0.034 -11.955,1.936 -18.586,6.523c-8.987,6.217 -19.779,18.782 -30.719,35.652c-32.42,49.991 -69.584,139.676 -79.322,182.694c-2.389,10.555 0.204,20.026 7.204,28.985c4.473,5.723 11.224,11.387 19.39,17.229c27.229,19.48 75.886,43.472 58.888,114.999c-5.586,23.505 -7.176,39.265 -8.315,50.063c-0.336,3.184 -0.897,6.793 -1.25,8.917Zm54.161,-411.725c44.744,0.242 100.593,28.408 165.664,63.068c103.351,55.05 228.009,127.208 364.723,147.012c15.359,13.735 28.152,41.407 33.29,82.616c9.123,73.182 -7.258,186.039 -80.327,341.122c-42.037,89.221 -119.678,154.427 -210.414,200.014c-138.437,69.553 -307.481,93.512 -431.736,85.068c-51.836,-3.523 -95.721,-12.591 -125.768,-26.709c-16.632,-7.814 -28.791,-16.668 -33.83,-27.774c-11.706,-25.798 -20.193,-115.65 0.672,-204.861c20.58,-87.989 70.326,-176.067 178.656,-198.978c47.51,-10.049 72.978,-12.305 86.966,-15.013c9.418,-1.824 15.31,-4.356 19.408,-7.453c5.639,-4.26 9.167,-9.722 11.083,-18.533c2.063,-9.492 1.685,-26.467 9.447,-59.126c7.637,-32.137 5.048,-57.07 -2.606,-77.004c-11.332,-29.515 -34.27,-48.312 -55.003,-62.849c-7.787,-5.46 -15.146,-10.253 -20.948,-14.966c-1.97,-1.6 -3.728,-3.16 -5.153,-4.766c-0.587,-0.661 -1.342,-1.832 -1.619,-2.277c9.269,-40.614 44.266,-124.678 74.706,-171.616c6.008,-9.263 11.76,-17.001 17.111,-22.379c1.834,-1.844 4.722,-3.924 5.678,-4.596Z" style="fill:#7e4021;"/><path d="M3299.12,3689.53c111.796,31.147 112.995,205.191 64.796,366.53c-101.47,339.656 -475.17,501.471 -788.572,430.46c-132.144,-29.942 -153.239,-133.365 -147.135,-119.912c52.995,116.798 676.248,100.198 832.003,-230.381c124.998,-265.299 86.538,-410.637 38.908,-446.697Z" style="fill:#fff;"/><path d="M3303.59,3673.48c-7.709,-2.148 -15.857,1.486 -19.408,8.658c-3.552,7.171 -1.506,15.854 4.875,20.685c16.726,12.663 30.92,41.219 36.402,85.183c9.123,73.182 -7.258,186.039 -80.327,341.122c-42.037,89.221 -119.678,154.427 -210.414,200.014c-138.437,69.553 -307.481,93.512 -431.736,85.068c-51.836,-3.523 -95.721,-12.591 -125.768,-26.709c-16.632,-7.814 -28.791,-16.668 -33.83,-27.774c-4.787,-10.55 -13.232,-10.875 -15.222,-10.964c-5.5,-0.245 -10.463,1.656 -14.26,6.836c-1.232,1.679 -3.412,5.021 -3.29,10.656c0.061,2.817 2.633,15.239 11.589,31.736c17.375,32.004 59.428,84.389 149.457,104.789c321.339,72.809 704.184,-93.687 808.224,-441.944c29.897,-100.074 40.829,-204.92 20.292,-279.706c-14.939,-54.399 -46.143,-93.597 -96.584,-107.65Zm-813.53,754.699c30.105,9.722 67.879,16.38 110.662,19.288c129.217,8.781 304.995,-16.209 448.961,-88.54c97.532,-49.001 180.418,-119.688 225.603,-215.591c76.929,-163.277 92.856,-282.405 83.25,-359.454c-1.442,-11.563 -3.475,-22.239 -5.981,-32.045l-0.001,-0.003c6.531,11.285 11.63,24.115 15.476,38.123c19.195,69.897 7.856,167.805 -20.087,261.338c-98.9,331.053 -463.454,488.188 -768.919,418.975c-39.586,-8.969 -68.371,-25.003 -88.964,-42.091Z" style="fill:#7e4021;"/><path d="M2619.26,3939.58c-231.12,48.881 -279.215,311.153 -191.057,427.031c100.817,132.518 539.436,39.453 617.775,-29.439c-160.723,-92.989 -539.626,-313.508 -426.718,-397.592Z" style="fill:#fff;"/><path d="M2629.22,3952.95c6.279,-4.677 8.457,-13.093 5.234,-20.228c-3.223,-7.135 -10.978,-11.065 -18.638,-9.445c-146.549,30.995 -223.494,143.148 -241.456,254.384c-12.114,75.019 2.884,149.491 40.584,199.045c17.936,23.576 45.256,41.079 79.245,52.95c47.507,16.592 108.483,22.329 172.98,20.343c110.836,-3.414 232.176,-29.423 311.413,-59.123c35.802,-13.42 63.281,-27.884 78.407,-41.186c4.03,-3.544 6.107,-8.812 5.58,-14.153c-0.528,-5.341 -3.595,-10.101 -8.24,-12.788c-111.215,-64.345 -328.403,-190.049 -410.249,-288.439c-12.633,-15.186 -21.901,-29.511 -26.295,-42.823c-4.987,-15.11 -2.251,-28.345 11.435,-38.537Zm-46.72,14.346c-4.034,25.636 8.945,55.862 35.954,88.331c78.437,94.293 277.841,213.838 396.305,282.71c-12.802,7.115 -29.069,14.276 -47.877,21.326c-76.517,28.681 -193.707,53.722 -300.739,57.018c-59.998,1.848 -116.77,-3.059 -160.963,-18.495c-27.147,-9.481 -49.382,-22.833 -63.707,-41.663c-32.828,-43.15 -44.754,-108.225 -34.206,-173.549c14.3,-88.555 70.443,-177.801 175.233,-215.679l-0,0.001Z" style="fill:#7e4021;"/><path d="M2732.36,3931.83l2.461,-0.641c15.67,-3.685 36.158,-5.194 49.292,5.058c7.251,5.66 17.733,4.368 23.393,-2.883c5.66,-7.251 4.368,-17.734 -2.883,-23.393c-20.739,-16.189 -52.689,-17.049 -77.433,-11.23c-0.923,0.217 -10.817,3.468 -12.855,5.041c-5.591,4.315 -6.65,9.63 -6.657,13.408c-0.016,9.198 7.438,16.68 16.637,16.696c2.916,0.005 5.659,-0.74 8.045,-2.056Z" style="fill:#7e4021;"/><path d="M2737.23,3845.21c-4.634,0.914 -8.851,3.782 -11.33,8.227c-3.989,7.154 -2.117,12.336 -1.11,14.871c2.347,5.907 6.974,10.678 15.812,10.615c1.468,-0.01 3.487,-0.209 5.864,-1.05c1.533,-0.543 7.139,-3.695 8.208,-4.3c3.551,-1.324 7.17,-2.487 10.826,-3.477c12.662,-3.428 27.389,-6.726 40.447,-4.388c9.055,1.62 17.722,-4.415 19.343,-13.469c1.621,-9.055 -4.414,-17.722 -13.469,-19.343c-17.736,-3.175 -37.834,0.369 -55.031,5.025c-4.837,1.309 -9.621,2.857 -14.312,4.62c-1.091,0.41 -3.36,1.621 -5.248,2.669Zm18.841,22.176c-0.29,0.777 -0.643,1.541 -1.058,2.286c0.445,-0.798 0.792,-1.561 1.058,-2.286Zm0.225,-0.647l-0.19,0.551l0.146,-0.408l0.044,-0.143Z" style="fill:#7e4021;"/><path d="M2733.24,3792.33c-2.538,1.681 -4.644,4.081 -5.977,7.065c-3.753,8.398 0.018,18.263 8.416,22.017c3.367,1.505 7.519,2.187 12.314,0.605c2.343,-0.773 10.687,-8.202 10.687,-8.202c0,0 -0.811,0.807 -1.036,1.005c11.047,-9.693 25.697,-16.806 39.139,-22.503c8.469,-3.59 12.431,-13.38 8.841,-21.849c-3.59,-8.47 -13.38,-12.431 -21.849,-8.842c-16.595,7.034 -34.476,16.171 -48.115,28.138c-0.333,0.292 -1.525,1.583 -2.42,2.566Z" style="fill:#7e4021;"/><path d="M2700.76,3728.17c-1.897,2.245 -3.223,5.019 -3.716,8.131c-1.439,9.085 4.769,17.63 13.854,19.069c0.926,0.146 9.448,1.925 16.007,-6.501c1.059,-1.361 6.349,-8.918 7.326,-10.316c8.096,-8.996 17.275,-17.095 25.974,-25.494c6.618,-6.389 6.804,-16.948 0.415,-23.566c-6.389,-6.618 -16.949,-6.804 -23.567,-0.415c-9.434,9.109 -19.35,17.936 -28.093,27.722c-0.727,0.815 -7.106,9.823 -8.2,11.37Z" style="fill:#7e4021;"/><path d="M716.33,4187.29c-103.768,-212.222 -29.946,-455.041 153.618,-485.55c275.193,-45.738 278.278,272.562 376.126,395.544c161.179,202.581 437.834,215.347 439.796,352.946c1.497,104.903 -156.03,214.027 -447.342,129.945c-159.18,-45.945 -412.837,-169.222 -522.198,-392.885Z" style="fill:#f0c8bd;"/><path d="M701.357,4194.61c111.62,228.282 370.081,354.683 532.549,401.577c181.119,52.277 312.275,31.098 387.931,-16.584c54.482,-34.337 81.368,-82.642 80.698,-129.611c-0.863,-60.499 -47.801,-100.96 -117.836,-139.685c-94.029,-51.992 -230.438,-103.816 -325.583,-223.401c-48.409,-60.845 -72.978,-170.191 -119.882,-258.484c-30.28,-57.002 -69.508,-105.483 -127.329,-130.238c-38.697,-16.567 -85.863,-22.663 -144.69,-12.886c-78.751,13.088 -138.847,62.375 -175.277,131.658c-53.065,100.92 -55.428,245.031 9.419,377.654Zm29.945,-14.642c-59.674,-122.044 -58.693,-254.629 -9.861,-347.499c31.503,-59.911 83.14,-102.971 151.239,-114.289c51.251,-8.518 92.393,-3.786 126.106,10.647c50.795,21.747 84.41,65.158 111.011,115.233c47.9,90.168 73.797,201.462 123.235,263.6c98.27,123.513 238.419,178.118 335.537,231.818c30.198,16.698 56.015,33.191 74.258,52.196c16.18,16.856 26.048,35.658 26.378,58.793c0.528,36.956 -22.274,73.919 -65.141,100.937c-70.367,44.348 -192.457,61.379 -360.914,12.757c-155.893,-44.996 -404.745,-165.15 -511.848,-384.193Z" style="fill:#7e4021;"/><path d="M1661.6,4513.9c-5.151,-37.248 -8.432,-82.387 -72.839,-115.917c-107.455,-55.941 -279.105,-116.327 -387.176,-251.56c-88.359,-110.567 -76.49,-214.871 -141.922,-297.556c-89.314,-128.972 -139.863,-129.103 -189.717,-147.129c275.193,-45.738 278.278,272.562 376.126,395.544c161.179,202.581 437.834,215.347 439.796,352.946c0.331,23.165 -7.954,44.741 -24.268,63.672Z" style="fill:#fff;"/><path d="M1645.09,4516.19c0.898,6.487 5.511,11.848 11.793,13.702c6.281,1.853 13.066,-0.144 17.342,-5.105c19.146,-22.216 28.696,-47.603 28.308,-74.789c-0.863,-60.499 -47.801,-100.96 -117.836,-139.685c-94.029,-51.992 -230.438,-103.816 -325.583,-223.401c-48.409,-60.845 -72.978,-170.191 -119.882,-258.484c-30.28,-57.002 -69.508,-105.483 -127.329,-130.238c-38.697,-16.567 -85.863,-22.663 -144.69,-12.886c-7.478,1.243 -13.175,7.375 -13.865,14.924c-0.69,7.549 3.802,14.613 10.93,17.19c47.749,17.265 96.141,17.42 181.683,140.944c0.201,0.292 0.412,0.576 0.632,0.854c31.445,39.736 43.951,84.831 59.576,133.112c16.803,51.921 36.731,107.364 82.396,164.506c109.675,137.241 283.45,199.169 392.5,255.939c57.223,29.791 59.449,70.324 64.025,103.417Zm23.367,-54.116c-9.025,-27.776 -27.547,-55.725 -72,-78.867c-105.861,-55.111 -275.384,-113.955 -381.852,-247.182c-42.694,-53.425 -61.012,-105.417 -76.722,-153.961c-16.833,-52.014 -31.07,-100.267 -64.818,-143.111c-48.992,-70.66 -86.79,-104.092 -119.188,-122.663c16.311,2.423 31.221,6.684 44.907,12.543c50.795,21.747 84.41,65.158 111.011,115.233c47.9,90.168 73.797,201.462 123.235,263.6c98.27,123.513 238.419,178.118 335.537,231.818c30.198,16.698 56.015,33.191 74.258,52.196c16.18,16.856 26.048,35.658 26.378,58.793c0.056,3.928 -0.194,7.798 -0.745,11.603l-0.001,-0.002Z" style="fill:#7e4021;"/><path d="M770.755,3934.09c54.601,-37.515 114.968,-70.781 174.565,-99.559c8.283,-4 11.761,-13.972 7.761,-22.255c-4,-8.284 -13.973,-11.761 -22.256,-7.762c-61.099,29.504 -122.968,63.642 -178.946,102.102c-7.582,5.209 -9.508,15.593 -4.299,23.175c5.209,7.581 15.593,9.508 23.175,4.299Z" style="fill:#7e4021;"/><path d="M1193.1,4459.87c32.247,-36.064 72.26,-66.908 113.88,-92.942c7.798,-4.879 10.169,-15.171 5.291,-22.969c-4.878,-7.799 -15.17,-10.17 -22.968,-5.291c-44.275,27.695 -86.748,60.619 -121.052,98.983c-6.131,6.857 -5.542,17.402 1.315,23.534c6.857,6.131 17.402,5.542 23.534,-1.315Z" style="fill:#7e4021;"/><path d="M778.004,4064.42c73.156,-57.555 156.901,-106.473 240.995,-147.486c8.268,-4.032 11.706,-14.018 7.674,-22.285c-4.032,-8.268 -14.018,-11.707 -22.286,-7.675c-86.202,42.041 -172.004,92.251 -246.994,151.249c-7.229,5.687 -8.481,16.174 -2.793,23.404c5.688,7.229 16.175,8.481 23.404,2.793Z" style="fill:#7e4021;"/><path d="M887.243,4260.6c65.085,-54.621 140.723,-100.722 217.211,-139.177c8.218,-4.132 11.536,-14.158 7.404,-22.377c-4.132,-8.218 -14.159,-11.536 -22.377,-7.404c-78.779,39.606 -156.631,87.168 -223.666,143.424c-7.046,5.913 -7.966,16.435 -2.053,23.481c5.913,7.046 16.435,7.966 23.481,2.053Z" style="fill:#7e4021;"/><path d="M970.18,4340.44c62.09,-50.167 131.44,-95.859 200.255,-136.126c7.94,-4.646 10.614,-14.863 5.968,-22.802c-4.646,-7.94 -14.863,-10.614 -22.802,-5.968c-70.237,41.099 -140.997,87.765 -204.37,138.968c-7.155,5.781 -8.27,16.283 -2.489,23.438c5.781,7.155 16.283,8.271 23.438,2.49Z" style="fill:#7e4021;"/><path d="M1070.43,4393.56c48.522,-41.754 106.418,-75.19 165.652,-101.951c8.382,-3.787 12.113,-13.667 8.326,-22.05c-3.787,-8.383 -13.667,-12.114 -22.05,-8.327c-62.129,28.069 -122.776,63.267 -173.67,107.061c-6.972,6 -7.762,16.532 -1.762,23.505c6,6.972 16.532,7.762 23.504,1.762Z" style="fill:#7e4021;"/><path d="M786.284,4189.38c80.406,-71.534 179.718,-124.9 282.891,-164.92c8.576,-3.326 12.838,-12.989 9.511,-21.565c-3.326,-8.576 -12.989,-12.838 -21.565,-9.512c-106.903,41.467 -209.681,96.973 -292.994,171.093c-6.872,6.114 -7.488,16.658 -1.374,23.53c6.115,6.873 16.658,7.488 23.531,1.374Z" style="fill:#7e4021;"/><path d="M1323.33,3817.1c-87.618,-219.383 -404.093,-148.892 -453.378,-115.355c276.879,-34.079 278.278,272.562 376.126,395.544c161.179,202.581 386.489,183.709 439.685,347.001c-8.411,-229.462 136.612,-451.127 115.842,-566.778c-5.484,-30.535 -166.892,-71.532 -227.972,-74.653c-37.602,-1.921 -24.611,119.149 -144.433,111.737c-96.242,-5.954 -54.243,31.771 -105.87,-97.496Z" style="fill:#e0f0ff;"/><path d="M1370.48,3898.6c-0.938,-2.115 -2.605,-6.041 -3.925,-9.926c-4.949,-14.564 -12.095,-38.565 -27.749,-77.761l-0,0c-46.551,-116.556 -153.318,-157.02 -255.572,-162.979c-101.003,-5.886 -196.796,22.427 -222.661,40.027c-6.361,4.328 -8.932,12.449 -6.222,19.65c2.711,7.201 9.998,11.611 17.635,10.671c129.473,-15.936 194.35,48.136 238.484,130.224c47.681,88.685 73.132,197.025 122.564,259.155c82.413,103.583 180.998,150.859 266.003,192.803c78.675,38.821 145.702,71.708 170.877,148.983c2.574,7.903 10.578,12.701 18.761,11.248c8.184,-1.454 14.046,-8.715 13.741,-17.021c-4.971,-135.617 44.865,-268.385 80.793,-377.576c25.374,-77.117 43.468,-143.262 34.799,-191.537c-0.985,-5.483 -3.949,-11.449 -9.6,-17.2c-7.66,-7.794 -21.883,-16.282 -40.373,-24.182c-54.792,-23.41 -149.504,-44.719 -193.554,-46.97c-10.808,-0.552 -19.697,3.619 -27.329,12.046c-4.876,5.384 -9.304,13.003 -13.666,22.047c-14.546,30.155 -29.88,82.193 -103.259,77.654c-24.113,-1.492 -39.913,-0.367 -50.747,0.354c-3.194,0.212 -6.846,0.275 -9,0.29Zm202.608,-79.082c41.6,2.201 130.405,22.333 181.851,44.314c10.152,4.338 18.758,8.685 24.971,13.039c2.13,1.493 4.672,3.983 5.497,4.811c7.4,44.128 -10.819,103.965 -33.862,173.998c-31.215,94.87 -72.048,207.137 -81.012,323.789c-26.81,-35.263 -64.374,-60.686 -108.223,-84.213c-90.21,-48.403 -208.213,-88.973 -303.192,-208.349c-48.416,-60.853 -72.588,-167.323 -119.289,-254.185c-37.331,-69.435 -87.919,-127.141 -171.909,-144.779c33.548,-5.787 73.035,-9.083 113.374,-6.732c90.211,5.257 185.488,39.237 226.556,142.066l0,-0c18.011,45.097 24.583,69.806 29.638,83.126c3.405,8.969 6.906,14.342 10.657,17.852c5.16,4.829 11.144,7.372 20.153,7.756c9.705,0.412 26.366,-2.858 59.871,-0.785c32.969,2.039 57.093,-4.769 75.428,-15.713c27.148,-16.204 41.753,-42.014 52.538,-64.925c4.05,-8.604 7.516,-16.673 11.17,-23.195c1.24,-2.214 2.477,-4.213 3.816,-5.89c0.552,-0.692 1.576,-1.636 1.967,-1.985Z" style="fill:#7e4021;"/><path d="M1323.33,3817.1c-87.618,-219.383 -404.093,-148.892 -453.378,-115.355c145.982,-17.968 215.386,58.779 262.722,153.386c10.48,20.946 84.539,-22.462 190.656,-38.031Z" style="fill:#fff;"/><path d="M1325.75,3833.59c5.047,-0.74 9.477,-3.751 12.023,-8.171c2.546,-4.421 2.928,-9.763 1.036,-14.501c-46.551,-116.556 -153.318,-157.02 -255.572,-162.979c-101.003,-5.886 -196.796,22.427 -222.661,40.027c-6.361,4.328 -8.932,12.449 -6.222,19.65c2.711,7.201 9.998,11.611 17.635,10.671c136.765,-16.834 201.434,55.669 245.781,144.301c3.368,6.733 8.897,11.358 17.024,13.553c6.36,1.717 15.451,1.64 26.969,-0.717c31.878,-6.522 90.113,-30.995 163.987,-41.834Zm-180.057,10.345c-37.853,-74.395 -89.261,-137.419 -177.743,-155.992c33.542,-5.784 73.019,-9.078 113.347,-6.727c84.389,4.918 173.212,34.971 217.944,123.007l-0,0c-54.722,10.196 -99.659,26.501 -129.989,35.006c-7.119,1.996 -13.328,3.536 -18.564,4.331c-1.586,0.241 -3.527,0.339 -4.995,0.375Z" style="fill:#7e4021;"/><path d="M1350.27,3927.21l1.052,2.316c6.306,14.811 11.29,34.74 3.431,49.431c-4.339,8.111 -1.277,18.219 6.834,22.558c8.111,4.339 18.218,1.277 22.558,-6.834c12.41,-23.198 7.803,-54.826 -2.154,-78.213c-0.372,-0.872 -5.264,-10.066 -7.162,-11.806c-5.206,-4.772 -10.624,-4.909 -14.347,-4.27c-9.066,1.554 -15.165,10.176 -13.611,19.243c0.493,2.874 1.696,5.449 3.399,7.575Z" style="fill:#7e4021;"/><path d="M1411.48,3939.25c1.911,3.273 3.675,6.641 5.275,10.075c5.538,11.89 11.303,25.838 11.228,39.103c-0.051,9.199 7.375,16.709 16.573,16.76c9.199,0.052 16.709,-7.375 16.76,-16.573c0.101,-18.018 -6.822,-37.215 -14.345,-53.366c-2.116,-4.542 -4.458,-8.992 -6.996,-13.313c-0.59,-1.005 -2.17,-3.033 -3.526,-4.715c-1.691,-4.41 -5.237,-8.075 -10.039,-9.759c-7.731,-2.71 -12.517,0.02 -14.843,1.445c-5.419,3.32 -9.331,8.694 -7.76,17.392c0.261,1.444 0.801,3.4 2.036,5.598c0.797,1.418 4.859,6.404 5.637,7.353Zm6.863,0.413l0.149,0.019l-0.576,-0.093l0.427,0.074Zm-0.528,-0.092c-0.815,-0.153 -1.628,-0.37 -2.433,-0.653c0.862,0.303 1.673,0.514 2.433,0.653Z" style="fill:#7e4021;"/><path d="M1487.88,3904.26c-2.091,-2.215 -4.815,-3.879 -7.982,-4.684c-8.916,-2.265 -17.993,3.135 -20.257,12.051c-0.908,3.575 -0.872,7.782 1.506,12.237c1.161,2.176 9.905,9.13 9.905,9.13c0,-0 -0.933,-0.661 -1.167,-0.85c11.437,9.231 20.947,22.451 28.855,34.723c4.982,7.732 15.305,9.964 23.037,4.982c7.733,-4.983 9.965,-15.306 4.982,-23.038c-9.763,-15.151 -21.819,-31.21 -35.938,-42.606c-0.345,-0.278 -1.82,-1.231 -2.941,-1.945Z" style="fill:#7e4021;"/><path d="M1541.03,3896.06c10.246,6.441 19.793,14.103 29.553,21.241c7.425,5.43 17.862,3.811 23.292,-3.614c5.43,-7.425 3.81,-17.862 -3.615,-23.292c-10.585,-7.741 -20.975,-16.005 -32.111,-22.948c-0.926,-0.578 -10.891,-5.325 -12.602,-6.139c-2.536,-1.486 -5.496,-2.319 -8.646,-2.274c-9.198,0.134 -16.557,7.709 -16.424,16.907c0.014,0.937 -0.285,9.637 9.137,14.661c1.523,0.812 9.871,4.734 11.416,5.458Z" style="fill:#7e4021;"/><path d="M1307.02,4510.9c4.468,-4.663 10.16,-10.356 15.82,-15.376c31.502,-27.936 81.042,-65.552 102.61,-74.416c8.509,-3.497 12.577,-13.243 9.08,-21.751c-3.496,-8.508 -13.243,-12.577 -21.751,-9.08c-29.883,12.281 -109.532,74.39 -134.84,102.267c-4.789,5.276 -7.947,9.785 -9.48,12.921c-2.039,4.168 -2.47,7.781 -2.341,10.476c0.307,6.433 3.232,11.12 8.194,14.342c47.954,31.139 125.291,52.268 185.702,47.045c40.471,-3.499 73.395,-19.028 89.102,-47.699c10.505,-19.173 13.838,-44.792 5.007,-78.13c-2.355,-8.891 -11.486,-14.198 -20.378,-11.843c-8.892,2.355 -14.199,11.487 -11.844,20.379c6.048,22.831 5.176,40.447 -2.018,53.578c-10.843,19.791 -34.804,28.09 -62.74,30.505c-47.823,4.135 -107.592,-10.406 -150.123,-33.218Z" style="fill:#7e4021;"/><path d="M2007.97,2629.36c-92.469,219.144 -213.312,599.63 -416.913,1171.51c23.594,7.187 71.171,6.212 181.614,50.325c34.705,15.508 291.836,-796.85 419.502,-1154.16" style="fill:#ffdab8;"/><path d="M1769.35,3831.97c-83.291,-32.4 -129.316,-38.573 -156.255,-43.303c199.627,-561.547 318.803,-936.13 410.239,-1152.83c3.576,-8.475 -0.401,-18.259 -8.876,-21.835c-8.475,-3.576 -18.259,0.401 -21.835,8.876c-92.54,219.313 -213.502,600.081 -417.259,1172.39c-1.528,4.29 -1.233,9.019 0.816,13.087c2.048,4.067 5.672,7.119 10.029,8.446c23.404,7.129 70.61,6.076 180.091,49.781c5.9,2.497 14.281,2.889 22.985,-5.268c8.974,-8.409 24.551,-37.852 43.488,-83.523c87.744,-211.612 272.895,-789.103 375.103,-1075.16c3.095,-8.662 -1.425,-18.207 -10.088,-21.302c-8.662,-3.095 -18.207,1.425 -21.302,10.087c-102.058,285.638 -286.888,862.303 -374.504,1073.61c-12.38,29.857 -26.653,56.261 -32.632,66.937Z" style="fill:#7e4021;"/><path d="M3107.22,2434.21c-13.939,-3.735 -28.288,4.55 -32.023,18.489c-3.735,13.939 4.549,28.288 18.488,32.023c13.94,3.735 28.289,-4.549 32.024,-18.488c3.735,-13.939 -4.55,-28.289 -18.489,-32.024Z" style="fill:#7e4021;"/><path d="M2947.41,2321.39c7.215,-12.498 2.927,-28.502 -9.571,-35.717c-12.497,-7.216 -28.502,-2.927 -35.717,9.57c-7.216,12.497 -2.927,28.502 9.57,35.717c12.498,7.216 28.502,2.927 35.718,-9.57Z" style="fill:#7e4021;"/><path d="M1368.39,254.186c0.476,14.423 12.573,25.746 26.996,25.269c14.423,-0.477 25.745,-12.573 25.269,-26.996c-0.477,-14.423 -12.574,-25.746 -26.997,-25.269c-14.423,0.477 -25.745,12.573 -25.268,26.996Z" style="fill:#7e4021;"/><path d="M2876.32,2543.31c-13.939,-3.735 -28.288,4.549 -32.023,18.489c-3.735,13.939 4.549,28.288 18.488,32.023c13.94,3.735 28.289,-4.55 32.024,-18.489c3.735,-13.939 -4.55,-28.288 -18.489,-32.023Z" style="fill:#7e4021;"/><path d="M3197.75,2245.77c13.808,-4.194 21.614,-18.809 17.42,-32.617c-4.193,-13.808 -18.808,-21.614 -32.616,-17.42c-13.808,4.193 -21.614,18.808 -17.421,32.616c4.194,13.808 18.809,21.614 32.617,17.421Z" style="fill:#7e4021;"/><path d="M1538.75,256.718c10.204,10.204 26.773,10.204 36.977,-0c10.204,-10.204 10.204,-26.773 -0,-36.978c-10.204,-10.204 -26.773,-10.204 -36.977,0c-10.204,10.205 -10.204,26.774 -0,36.978Z" style="fill:#7e4021;"/><path d="M3041.05,2561.13c-13.939,-3.735 -28.288,4.55 -32.023,18.489c-3.735,13.939 4.55,28.288 18.489,32.023c13.939,3.735 28.288,-4.55 32.023,-18.489c3.735,-13.939 -4.55,-28.288 -18.489,-32.023Z" style="fill:#7e4021;"/><path d="M3048.47,2317.68c13.808,-4.193 21.614,-18.808 17.421,-32.617c-4.194,-13.808 -18.809,-21.614 -32.617,-17.42c-13.808,4.193 -21.614,18.808 -17.421,32.616c4.194,13.809 18.809,21.614 32.617,17.421Z" style="fill:#7e4021;"/><path d="M2969.05,2675.61c7.216,-12.497 2.927,-28.502 -9.57,-35.717c-12.497,-7.216 -28.502,-2.927 -35.717,9.57c-7.216,12.498 -2.927,28.502 9.57,35.717c12.498,7.216 28.502,2.927 35.717,-9.57Z" style="fill:#7e4021;"/><path d="M2754.51,2429.89c0.477,14.423 12.574,25.746 26.997,25.269c14.422,-0.477 25.745,-12.573 25.268,-26.996c-0.476,-14.423 -12.573,-25.746 -26.996,-25.269c-14.423,0.477 -25.746,12.574 -25.269,26.996Z" style="fill:#7e4021;"/><path d="M2750.94,2714.83c10.205,10.204 26.773,10.204 36.978,0c10.204,-10.204 10.204,-26.773 -0,-36.977c-10.205,-10.204 -26.773,-10.204 -36.978,0c-10.204,10.204 -10.204,26.773 0,36.977Z" style="fill:#7e4021;"/><path d="M1319.87,322.108c-13.939,-3.735 -28.288,4.55 -32.023,18.489c-3.735,13.939 4.549,28.288 18.488,32.023c13.939,3.735 28.288,-4.549 32.023,-18.488c3.735,-13.94 -4.549,-28.289 -18.488,-32.024Z" style="fill:#7e4021;"/><path d="M2618.3,2715.89c7.216,-12.497 2.927,-28.502 -9.57,-35.717c-12.498,-7.215 -28.502,-2.927 -35.717,9.57c-7.216,12.498 -2.927,28.502 9.57,35.718c12.498,7.215 28.502,2.927 35.717,-9.571Z" style="fill:#7e4021;"/><path d="M1375.13,412.492c-13.939,-3.735 -28.288,4.549 -32.023,18.488c-3.735,13.939 4.549,28.288 18.488,32.023c13.939,3.735 28.289,-4.549 32.023,-18.488c3.735,-13.939 -4.549,-28.288 -18.488,-32.023Z" style="fill:#7e4021;"/><path d="M1570.8,371.215c7.215,-12.497 2.927,-28.501 -9.571,-35.717c-12.497,-7.215 -28.501,-2.927 -35.717,9.571c-7.215,12.497 -2.927,28.501 9.571,35.717c12.497,7.215 28.501,2.927 35.717,-9.571Z" style="fill:#7e4021;"/><path d="M2739.91,2594.72c10.204,10.204 26.773,10.204 36.977,-0c10.204,-10.204 10.204,-26.773 0,-36.977c-10.204,-10.205 -26.773,-10.205 -36.977,-0c-10.204,10.204 -10.204,26.773 0,36.977Z" style="fill:#7e4021;"/><path d="M3286.4,2130.05c-14.055,-3.273 -28.123,5.481 -31.395,19.536c-3.273,14.055 5.481,28.123 19.536,31.395c14.055,3.273 28.123,-5.481 31.395,-19.536c3.273,-14.055 -5.481,-28.123 -19.536,-31.395Z" style="fill:#7e4021;"/><path d="M3013.14,2412.3c-13.939,-3.735 -28.288,4.549 -32.023,18.488c-3.735,13.939 4.549,28.288 18.488,32.023c13.94,3.735 28.289,-4.549 32.024,-18.488c3.735,-13.939 -4.55,-28.288 -18.489,-32.023Z" style="fill:#7e4021;"/><path d="M3197.47,2384.89c13.808,-4.193 21.614,-18.808 17.42,-32.616c-4.193,-13.808 -18.808,-21.614 -32.616,-17.421c-13.808,4.194 -21.614,18.809 -17.421,32.617c4.194,13.808 18.809,21.614 32.617,17.42Z" style="fill:#7e4021;"/><path d="M3060.46,2159.57c7.215,-12.497 2.927,-28.502 -9.571,-35.717c-12.497,-7.216 -28.502,-2.927 -35.717,9.57c-7.215,12.498 -2.927,28.502 9.57,35.717c12.498,7.216 28.502,2.928 35.718,-9.57Z" style="fill:#7e4021;"/><path d="M1408.1,348.728c10.204,10.204 26.773,10.204 36.977,-0c10.204,-10.204 10.204,-26.773 0,-36.977c-10.204,-10.204 -26.773,-10.204 -36.977,-0c-10.204,10.204 -10.204,26.773 -0,36.977Z" style="fill:#7e4021;"/><path d="M3476.78,1231.11c29.922,-20.847 75.137,-23.98 111.113,-22.98c75.143,2.089 143.508,38.135 193.083,93.865c201.829,226.888 38.721,467.597 -165.926,628.284c-61.712,48.456 -256.027,122.243 -252.596,72.692c3.796,-54.82 11.132,-107.495 12.905,-117.014c5.766,-30.953 5.856,-92.433 24.148,-102.112c106.238,-56.213 322.451,-167.156 268.549,-301.484c-50.529,-125.92 -227.127,-49.946 -226.751,-55.185c1.823,-25.402 6.501,-61.034 12.407,-88.508c8.261,-38.426 14.16,-69.274 23.068,-107.558Z" style="fill:#f7bf9a;"/><path d="M3467.25,1217.44c-3.383,2.356 -5.772,5.882 -6.706,9.897c-8.931,38.383 -14.848,69.309 -23.129,107.833c-6.061,28.192 -10.866,64.752 -12.737,90.818c-0.346,4.826 1.144,8.838 4.03,12.194c1.625,1.89 3.862,3.717 7.098,4.886c1.532,0.554 6.664,1.685 14.515,-0.321c13.798,-3.525 56.03,-17.522 100.295,-16.856c40.015,0.603 82.267,13.583 101.969,62.682c19.077,47.541 -1.587,91.349 -37.466,130.494c-59.571,64.995 -160.981,117.019 -223.41,150.052c-8.478,4.486 -16.013,15.174 -20.425,30.631c-6.789,23.786 -8.2,61.084 -12.312,83.16c-1.802,9.674 -9.291,63.202 -13.148,118.915c-0.578,8.345 1.706,15.032 5.811,20.403c3.661,4.789 9.033,8.672 16.311,11.059c9.01,2.955 22.136,3.585 38.03,1.526c62.151,-8.049 174.496,-56.19 219.364,-91.42c212.188,-166.61 377.352,-417.221 168.086,-652.47c-52.629,-59.163 -125.302,-97.23 -205.072,-99.448c-39.272,-1.092 -88.442,3.209 -121.104,25.965Zm-87.988,784.169c3.772,-53.016 10.762,-103.377 12.479,-112.595c3.45,-18.519 4.85,-47.998 9.367,-70.701c1.244,-6.25 2.69,-11.903 4.661,-16.367c0.581,-1.316 1.77,-3.16 2.108,-3.67c65.11,-34.446 169.923,-89.158 231.816,-156.686c45.226,-49.343 67.875,-105.504 43.828,-165.431c-25.775,-64.231 -80.054,-82.809 -132.403,-83.597c-35.313,-0.532 -69.473,7.296 -91.07,13.015c2.304,-20.804 5.818,-44.157 9.955,-63.401c7.761,-36.102 13.43,-65.497 21.488,-100.701l0.001,-0c27.054,-15.855 65.268,-17.532 95.935,-16.679c70.514,1.96 134.571,35.984 181.093,88.282c194.399,218.535 33.347,449.325 -163.766,604.098c-41.529,32.608 -145.532,77.13 -203.059,84.58c-4.449,0.576 -8.59,0.918 -12.361,0.974c-3.412,0.052 -7.662,-0.653 -10.072,-1.121Z" style="fill:#7e4021;"/><path d="M3659.22,1514.21c3.756,29.262 3.679,60.292 0.007,89.52c-10.447,83.159 -60.997,143.405 -126.705,191.879c-7.402,5.461 -8.978,15.904 -3.517,23.307c5.461,7.402 15.904,8.978 23.306,3.517c73.206,-54.006 128.351,-121.899 139.989,-214.548c4.016,-31.971 4.09,-65.911 -0.018,-97.919c-1.172,-9.124 -9.53,-15.58 -18.653,-14.409c-9.124,1.171 -15.581,9.529 -14.409,18.653Z" style="fill:#7e4021;"/><path d="M1113.68,2192.35c-3.022,17.603 2.333,40.243 12.049,63.162c12.701,29.957 32.352,60.798 42.649,79.37c4.46,8.045 14.613,10.956 22.658,6.495c8.045,-4.46 10.955,-14.613 6.495,-22.658c-9.897,-17.85 -28.906,-47.426 -41.113,-76.218c-6.89,-16.252 -12.028,-32.029 -9.885,-44.511c1.556,-9.066 -4.541,-17.69 -13.607,-19.246c-9.066,-1.556 -17.69,4.54 -19.246,13.606Z" style="fill:#7e4021;"/><path d="M1254.83,2384.92l-0.118,-0.147c-5.954,-7.011 -16.48,-7.871 -23.492,-1.917c-2.578,2.189 -11.548,12.522 -1.602,23.985c1.848,2.13 12.944,11.289 13.58,11.788c13.125,10.304 26.174,20.745 39.548,30.722c7.373,5.5 17.824,3.979 23.325,-3.394c5.5,-7.373 3.979,-17.824 -3.394,-23.324c-13.155,-9.814 -25.987,-20.089 -38.897,-30.223l-8.95,-7.49Zm3.816,11.464c-0.216,4.44 -2.199,8.781 -5.851,11.882c3.347,-2.843 5.672,-6.658 5.851,-11.882Z" style="fill:#7e4021;"/><path d="M3243.23,1107.39c32.897,-11.645 78.204,-7.941 113.016,-14.118c9.057,-1.607 15.106,-10.265 13.499,-19.322c-1.608,-9.057 -10.266,-15.106 -19.323,-13.499c-36.472,6.472 -83.848,3.316 -118.315,15.517c-8.672,3.069 -13.22,12.601 -10.15,21.273c3.069,8.671 12.601,13.219 21.273,10.149Z" style="fill:#7e4021;"/><path d="M3333.63,1134.89c-1.111,-0.046 -2.244,0.019 -3.385,0.206c-4.103,0.671 -5.955,1.768 -6.297,1.949c-10.297,5.453 -9.36,14.103 -8.532,18.11c0.255,1.235 3.24,13.83 17.17,13.292c1.812,-0.07 14.775,-1.554 19.779,-1.955c11.588,-0.93 23.156,-2.108 34.64,-3.94c9.083,-1.449 15.282,-10.001 13.832,-19.084c-1.449,-9.084 -10.001,-15.282 -19.084,-13.833c-10.626,1.695 -21.33,2.77 -32.052,3.63c-3.462,0.277 -11.944,1.178 -16.071,1.625Zm11.957,27.495c-2.261,2.646 -5.358,4.599 -8.97,5.411c4.401,-0.925 7.204,-2.976 8.97,-5.411Z" style="fill:#7e4021;"/><path d="M2915.41,1804.26c16.737,-3.77 259.75,-24.848 400.57,-77.389c69.741,-26.02 143.902,-59.98 211.765,-90.611c33.513,-15.127 73.254,-45.984 109.819,-52.842c56.66,-10.626 130.012,69.836 103.251,130.072c-6.464,14.551 -33.831,35.508 -39.404,40.06c-162.835,133.019 -367.427,196.278 -506.167,233.791c-146.963,39.736 -262.543,37.245 -293.827,29.289" style="fill:#ffdab8;"/><path d="M2919.07,1820.52c16.828,-3.79 261.137,-25.202 402.733,-78.032c70.078,-26.147 144.605,-60.257 212.796,-91.036c32.433,-14.64 70.647,-45.015 106.035,-51.652c23.14,-4.34 49.035,11.297 67.066,32.793c17.939,21.385 28.754,49.656 17.881,74.131c-1.922,4.326 -6.629,9.174 -11.492,13.939c-9.353,9.166 -20.037,17.377 -23.225,19.981c-160.803,131.359 -362.964,193.564 -499.973,230.609c-142.771,38.603 -254.978,36.955 -285.369,29.225c-8.915,-2.267 -17.994,3.13 -20.261,12.045c-2.267,8.914 3.13,17.993 12.045,20.26c32.176,8.183 151.13,11.517 302.285,-29.352c140.471,-37.981 347.495,-102.294 512.361,-236.972c6.334,-5.174 36.744,-29.664 44.091,-46.202c15.891,-35.768 3.412,-77.833 -22.804,-109.086c-26.126,-31.145 -65.223,-50.421 -98.75,-44.133c-37.744,7.078 -79.011,38.418 -113.604,54.032c-67.534,30.483 -141.331,64.292 -210.734,90.187c-140.045,52.252 -381.762,72.996 -398.406,76.745c-8.974,2.021 -14.618,10.948 -12.597,19.922c2.022,8.973 10.948,14.618 19.922,12.596Z" style="fill:#7e4021;"/><path d="M3639.94,1493.12c31.06,-1.502 153.727,85.92 164.298,235.979c1.364,19.357 -9.895,44.566 -26.542,55.517c-4.547,2.991 -9.642,4.737 -15.078,5.38c-45.263,5.355 -98.109,-25.338 -143.754,-82.06c-50.282,-62.484 -85.086,-209.684 21.076,-214.816Z" style="fill:#fff;"/><path d="M3639.14,1476.47c-26.097,1.262 -45.085,9.968 -58.555,22.969c-13.456,12.988 -21.544,30.57 -24.851,50.831c-8.758,53.652 17.451,127.478 50.151,168.113c50.061,62.21 109.053,94.035 158.696,88.162c8.039,-0.951 15.556,-3.584 22.279,-8.007c21.203,-13.948 35.746,-45.958 34.009,-70.612c-7.826,-111.084 -73.79,-189.681 -123.9,-226.315c-24.605,-17.988 -46.538,-25.686 -57.829,-25.141l0,0Zm1.61,33.295c2.027,-0.098 4.679,0.875 7.949,2.144c7.975,3.098 17.825,8.736 28.598,16.611c44.658,32.649 103.346,102.75 110.321,201.749c0.99,14.06 -6.985,32.467 -19.077,40.421c-2.37,1.559 -5.043,2.418 -7.876,2.753c-40.892,4.837 -87.575,-24.714 -128.811,-75.957c-23.226,-28.863 -42.873,-77.293 -44.459,-119.098c-0.832,-21.959 3.045,-42.133 16.339,-54.965c8.45,-8.155 20.646,-12.867 37.016,-13.658Z" style="fill:#7e4021;"/><path d="M3734.78,1716.22c76.094,51.957 207.457,20.532 309.268,93.732c62.035,44.601 90.175,61.745 150.122,116.05c64.4,58.339 142.765,39.377 164.844,12.126c39.663,-48.954 5.665,-105.749 10.286,-106.589c43.109,19.032 88.898,5.259 113.63,-33.321c44.521,-69.453 -18.127,-122.465 -17.195,-125.073c48.957,-4.879 105.313,-1.279 119.176,-57.634c13.714,-55.743 -16.508,-86.329 -66.292,-110.691c74.964,19.843 125.278,-18.732 120.244,-74.347c-11.092,-122.541 -383.743,-95.885 -496.611,-175.54c-71.888,-50.733 195.08,-117.03 125.949,-210.769c-80.293,-108.875 -323.627,85.695 -417.637,163.398c-116.87,96.597 -218.431,132.853 -223.423,303.103c-1.749,59.645 26.98,150.482 107.639,205.555Z" style="fill:#fff;"/><path d="M4391.88,1855.47c41.42,6.494 81.396,-11.322 105.079,-48.267c32.633,-50.907 16.205,-94.267 -0.061,-119.983c16.224,-1.404 32.235,-3.281 46.487,-7.668c27.333,-8.415 49.073,-24.967 57.708,-60.068c6.552,-26.632 4.298,-48.433 -4.079,-66.897c-4.561,-10.051 -11.066,-19.161 -19.254,-27.508c15.491,-2.533 29.017,-7.858 40.179,-15.248c26.374,-17.461 40.635,-46.471 37.521,-80.869c-2.073,-22.903 -13.825,-41.892 -33.558,-57.504c-17.153,-13.571 -40.748,-24.643 -68.71,-33.745c-72.847,-23.711 -176.807,-34.648 -265.537,-51.643c-55.953,-10.718 -105.67,-23.502 -135.795,-44.763c-2.72,-1.919 -4.851,-3.324 -5.345,-5.361c-0.227,-0.938 0.428,-1.784 0.938,-2.774c1.122,-2.178 2.778,-4.354 4.766,-6.611c7.623,-8.652 19.501,-17.619 32.9,-27.181c34.47,-24.598 77.89,-52.459 98.041,-83.167c16.67,-25.401 20.065,-52.644 -1.547,-81.95c-28.045,-38.028 -72.696,-46.088 -125.089,-33.736c-107.184,25.269 -249.407,138.658 -316.58,194.179c-46.861,38.732 -91.257,67.8 -127.994,99.643c-58.245,50.488 -98.297,107.588 -101.471,215.819c-1.869,63.756 28.682,160.938 114.901,219.808l0,-0c39.957,27.282 94.211,33.458 152.055,41.637c52.549,7.431 108.315,16.943 156.882,51.862c61.421,44.16 89.307,61.103 148.661,114.871c50.629,45.864 109.068,48.682 148.005,36.051c18.467,-5.99 32.746,-15.625 40.979,-25.786c24.964,-30.812 24.16,-68.726 19.918,-93.141Zm-647.704,-153.023c-75.098,-51.277 -102.006,-135.769 -100.378,-191.302c2.817,-96.069 38.285,-146.793 89.985,-191.608c36.56,-31.69 80.762,-60.592 127.397,-99.138c55.525,-45.893 163.839,-133.39 258.781,-172.744c29.684,-12.305 57.893,-19.912 82.456,-19.116c21.29,0.69 39.517,8.082 52.369,25.508c15.128,20.514 6.529,38.98 -9.18,56.125c-20.82,22.722 -53.397,43.198 -79.849,62.075c-20.336,14.512 -37.253,28.502 -45.426,41.308c-6.316,9.896 -8.368,19.662 -6.496,28.96c1.762,8.749 7.151,17.802 18.805,26.026c28.53,20.135 72.671,34.235 123.675,45.191c72.617,15.599 159.572,25.366 231.883,41.224c38.366,8.415 72.477,18.439 97.465,32.394c20.636,11.525 34.85,25.293 36.599,44.617c4.075,45.017 -38.7,72.794 -99.381,56.733c-8.287,-2.194 -16.886,2.256 -19.881,10.288c-2.995,8.032 0.591,17.026 8.291,20.794c25.861,12.654 46.259,26.503 55.368,46.578c5.651,12.455 6.485,27.197 2.066,45.161c-6.431,26.143 -25.288,34.889 -47.042,39.085c-18.278,3.526 -38.521,4.044 -57.603,5.946c-6.408,0.639 -11.875,4.912 -14.042,10.976c-0.655,1.832 -2.838,9.733 4.238,18.406c7.641,9.363 48.377,50.62 14.62,103.28c-20.202,31.516 -57.652,42.616 -92.867,27.069c-3.048,-1.346 -6.431,-1.747 -9.71,-1.151c-5.145,0.935 -9.068,3.641 -11.746,8.25c-1.336,2.299 -3.135,6.541 -2.036,12.868c0.717,4.125 4.991,14.715 7.579,28.769c3.172,17.222 3.542,40.891 -14.054,62.609c-6.942,8.567 -21.317,15.359 -38.882,18.37c-29.495,5.056 -67.823,-1.557 -101.823,-32.357c-60.54,-54.842 -88.933,-72.188 -151.581,-117.23c-53.245,-38.282 -114.065,-49.657 -171.674,-57.803c-52.316,-7.397 -101.787,-11.486 -137.925,-36.161l-0.001,0Z" style="fill:#7e4021;"/><path d="M4552.84,1501.99c-19.003,-11.96 -78.956,-33.191 -93.867,-39.323c-99.368,-40.865 -183.822,-91.315 -292.683,-90.705c-9.199,0.051 -16.625,7.561 -16.573,16.759c0.051,9.199 7.561,16.625 16.759,16.573c104.233,-0.583 184.675,49.074 279.819,88.201c14.077,5.789 70.85,25.415 88.79,36.706c7.785,4.9 18.083,2.558 22.983,-5.228c4.9,-7.785 2.557,-18.083 -5.228,-22.983Z" style="fill:#7e4021;"/><path d="M4485.48,1663.49c-14.011,-8.282 -28.695,-23.758 -43.089,-32.976c-103.7,-66.413 -184.923,-114.711 -307.504,-138.83c-9.026,-1.776 -17.795,4.11 -19.571,13.135c-1.776,9.026 4.11,17.795 13.136,19.571c118.066,23.231 196.081,70.227 295.962,134.194c14.708,9.42 29.786,25.138 44.103,33.601c7.919,4.681 18.148,2.052 22.829,-5.866c4.681,-7.919 2.052,-18.148 -5.866,-22.829Z" style="fill:#7e4021;"/><path d="M4147.1,1358.58c0.174,7.637 -0.114,15.224 -0.786,22.834c-2.242,25.402 -7.38,51.435 -14.574,75.872c-19.767,67.145 -66.93,128.521 -126.841,164.652c-7.877,4.75 -10.415,15.002 -5.665,22.879c4.75,7.877 15.002,10.415 22.879,5.665c66.877,-40.331 119.538,-108.831 141.604,-183.783c7.808,-26.523 13.368,-54.783 15.802,-82.353c0.78,-8.839 1.107,-17.653 0.906,-26.523c-0.209,-9.196 -7.845,-16.493 -17.041,-16.284c-9.196,0.209 -16.493,7.845 -16.284,17.041Z" style="fill:#7e4021;"/><path d="M4383.39,1823.93c-20.362,-22.659 -66.835,-59.324 -90.205,-78.753c-85.923,-71.43 -120.156,-99.866 -219.55,-151.219c-8.172,-4.223 -18.235,-1.016 -22.457,7.156c-4.223,8.173 -1.016,18.235 7.156,22.458c96.707,49.965 129.942,77.738 213.542,147.238c22.428,18.645 67.18,53.655 86.721,75.4c6.148,6.842 16.695,7.405 23.537,1.257c6.841,-6.149 7.404,-16.695 1.256,-23.537Z" style="fill:#7e4021;"/><path d="M1701.79,1684.7c72.731,58.287 140.997,102.163 212.056,106.536c108.266,6.662 211.736,-33.506 275.409,31.127c52.358,53.148 -2.215,157.041 -60.104,200.615c-212.578,160.011 -495.091,58.321 -577.45,-154.897c-60.294,-156.093 32.047,-277.979 150.089,-183.381Z" style="fill:#fff;"/><path d="M1712.21,1671.7c-54.629,-43.78 -104.887,-45.175 -140.602,-22.301c-21.526,13.786 -38.289,36.932 -47.536,67.013c-12.819,41.696 -11.234,97.326 12.078,157.679c86.023,222.702 380.988,329.336 603.021,162.208c37.551,-28.265 73.724,-80.063 84.497,-129.345c7.912,-36.192 2.399,-70.964 -22.543,-96.283c-35.154,-35.684 -80.958,-43.515 -133.253,-42.267c-46.925,1.119 -99.369,9.502 -153.005,6.202c-68.057,-4.188 -132.999,-47.082 -202.657,-102.906l-0,-0Zm127.023,119.049c-10.123,22.499 -31.633,68.964 -39.301,85.131c-25.606,53.984 -49.867,108.349 -73.872,163.032c-0.173,0.395 -0.359,0.779 -0.558,1.152c49.107,26.796 104.658,42.455 161.956,44.385c4.52,-70.229 6.468,-153.536 11.975,-223.042c1.287,-16.249 4.453,-37.171 2.971,-54.437c-21.182,-2.376 -42.186,-7.975 -63.171,-16.221Zm180.064,13.816c-26.887,2.029 -54.933,4.315 -83.481,4.086c0.744,18.199 -1.849,38.917 -3.154,55.389c-5.427,68.5 -7.385,150.427 -11.775,219.968c46.93,-2.823 94.433,-15.033 139.977,-38.016c-9.77,-56.321 -31.716,-182.723 -41.567,-241.427Zm72.378,224.016c9.28,-5.829 18.431,-12.125 27.45,-18.914c31.916,-24.024 62.822,-67.944 71.979,-109.831c5.375,-24.591 3.222,-48.569 -13.725,-65.771c-28.522,-28.952 -66.283,-33.35 -108.712,-32.338c-5.247,0.126 -10.563,0.338 -15.943,0.613c9.424,56.017 28.65,166.866 38.951,226.241Zm-345.881,-289.875c-32.808,32.068 -121.089,122.698 -163.053,157.568c26.906,51.408 66.611,94.462 114.061,126.362c23.721,-54.005 47.715,-107.707 73.012,-161.041c7.623,-16.071 29.048,-62.349 39.04,-84.563c-20.911,-10.616 -41.877,-23.58 -63.06,-38.326Zm-27.318,-19.86c-8.979,-6.784 -18.015,-13.845 -27.112,-21.135l0,-0c-30.452,-24.405 -58.541,-33.167 -82.068,-28.295c-22.234,4.605 -39.308,21.583 -49.426,45.856c-15.311,36.728 -14.867,89.227 7.375,146.808c0.354,0.917 0.712,1.832 1.073,2.742c41.338,-35.778 116.445,-112.658 150.158,-145.976Z" style="fill:#7e4021;"/><path d="M1548.51,911.464c-0,0 224.22,51.782 268.817,277.487c44.596,225.705 -213.559,584.978 -539.119,338.63c-325.578,-246.348 -4.446,-723.425 270.302,-616.117Z" style="fill:#fdfdfe;"/><path d="M1553.55,895.541c-116.1,-44.753 -240.299,7.461 -325.184,104.519c-126.252,144.359 -164.751,386.045 39.791,540.812c102.393,77.479 198.628,97.115 281.639,81.232c97.002,-18.559 176.547,-86.101 227.448,-170.135c50.719,-83.733 72.771,-183.595 56.439,-266.249c-44.67,-226.078 -261.489,-285.472 -280.137,-290.181l0.004,0.002Zm44.224,51.125c0.699,2.397 1.233,4.851 1.598,7.36c14.587,32.615 150.25,360.809 -166.613,632.215c39.009,9.282 76.119,9.754 110.773,3.124c87.754,-16.79 159.152,-78.643 205.201,-154.665c46.231,-76.324 67.136,-167.179 52.249,-242.519c-28.908,-146.306 -137.005,-215.937 -203.208,-245.515Z" style="fill:#7e4021;"/><path d="M2577.76,1175.32c0,0 224.221,51.782 268.818,277.487c44.596,225.704 -213.559,584.978 -539.12,338.63c-325.577,-246.349 -4.446,-723.425 270.302,-616.117Z" style="fill:#fdfdfe;"/><path d="M2582.79,1159.39c-116.1,-44.752 -240.3,7.462 -325.184,104.52c-126.252,144.359 -164.751,386.045 39.791,540.812c102.392,77.479 198.628,97.114 281.639,81.232c97.002,-18.559 176.546,-86.101 227.448,-170.135c50.719,-83.733 72.77,-183.595 56.439,-266.249c-44.67,-226.079 -261.489,-285.472 -280.138,-290.181l0.005,0.001Zm44.223,51.126c0.7,2.397 1.233,4.851 1.598,7.36c14.588,32.615 150.251,360.808 -166.613,632.214c39.009,9.283 76.12,9.755 110.774,3.125c87.754,-16.79 159.152,-78.643 205.201,-154.666c46.231,-76.323 67.135,-167.178 52.249,-242.518c-28.908,-146.306 -137.005,-215.937 -203.209,-245.515Z" style="fill:#7e4021;"/><path d="M3096.55,1088.9c-2.709,0.289 -9.398,0.941 -14.805,0.981c-21.502,0.16 -50.214,-2.231 -54.702,-2.246c-9.199,-0.032 -16.692,7.411 -16.724,16.609c-0.031,9.199 7.411,16.692 16.61,16.724c5.889,0.02 52.141,3.816 72.243,1.336c6.261,-0.772 10.972,-2.361 13.748,-3.935c4.375,-2.48 6.859,-5.759 8.268,-8.876c3.789,-8.382 0.061,-18.264 -8.321,-22.053c-5.51,-2.491 -11.668,-1.733 -16.317,1.46Z" style="fill:#7e4021;"/></g></g></svg>