<?xml version="1.0" encoding="UTF-8" standalone="no"?><!DOCTYPE svg PUBLIC "-//W3C//DTD SVG 1.1//EN" "http://www.w3.org/Graphics/SVG/1.1/DTD/svg11.dtd"><svg width="100%" height="100%" viewBox="0 0 2942 2074" version="1.1" xmlns="http://www.w3.org/2000/svg" xmlns:xlink="http://www.w3.org/1999/xlink" xml:space="preserve" xmlns:serif="http://www.serif.com/" style="fill-rule:evenodd;clip-rule:evenodd;stroke-linejoin:round;stroke-miterlimit:2;"><g id="Affogato"><path d="M171.447,135.031c-35.956,49.252 -56.552,82.44 -79.626,140.417c-45.106,113.338 -70.158,235.789 -83.079,358.675c-37.809,359.573 62.409,765.969 242.154,1065.68c112.06,186.853 283.678,283.828 472.408,331.504c186.198,47.036 389.066,45.884 566.349,36.816c193.056,-9.876 399.165,-26.258 576.515,-121.223c87.093,-46.635 162.792,-122.344 223.065,-205.947c110.816,-153.707 187.834,-340.105 242.108,-527.027c38.867,-133.854 58.835,-274.961 57.017,-415.85c-1.396,-108.228 -13.799,-291.605 -59.979,-442.454c-31.842,-104.014 -80.283,-192.41 -150.301,-233.5c-78.588,-46.119 -180.749,-52.541 -266.598,-65.122c-191.862,-28.117 -386.249,-39.993 -579.622,-44.547c-244.711,-5.763 -656.675,-20.203 -919.54,23.221c-69.142,11.421 -128.159,26.913 -171.63,47.343c-31.209,14.668 -54.709,32.103 -69.241,52.009Zm26.922,19.655c11.764,-16.114 31.235,-29.623 56.497,-41.496c41.236,-19.38 97.297,-33.789 162.885,-44.624c261.086,-43.129 670.268,-28.508 913.323,-22.784c192.021,4.522 385.052,16.284 575.573,44.204c81.878,11.999 179.608,16.904 254.56,60.889c63.947,37.528 106.217,119.515 135.299,214.509c45.203,147.66 57.155,327.186 58.522,433.127c1.774,137.595 -17.74,275.401 -55.698,406.126c-53.213,183.265 -128.487,366.126 -237.136,516.827c-57.292,79.469 -128.976,151.726 -211.761,196.055c-172.975,92.622 -374.19,107.687 -562.483,117.319c-174.188,8.91 -373.535,10.371 -556.482,-35.844c-180.413,-45.575 -344.864,-137.712 -451.985,-316.33c-176.271,-293.922 -274.669,-692.434 -237.591,-1045.06c12.602,-119.848 36.909,-239.3 80.9,-349.835c21.877,-54.97 41.486,-86.391 75.577,-133.088Z" style="fill:#7e4021;"/><path d="M2324.98,431.519c-6.598,3.75 -9.829,11.485 -7.86,18.815c16.583,61.712 29.831,175.005 38.811,265.751c0.557,5.635 3.937,10.601 8.975,13.187c5.037,2.585 11.043,2.436 15.946,-0.396c50.26,-29.029 121.338,-64.977 186.175,-71.02c39.337,-3.667 76.33,3.908 103.136,33.877c20.834,23.292 26.936,64.177 21.205,112.729c-9.296,78.748 -51.12,176.72 -124.954,259.962c-86.152,97.128 -203.548,159.452 -273.529,187.781c-4.287,1.735 -7.66,5.175 -9.313,9.495c-28.016,73.247 -86.829,224.01 -96.371,253.635c-2.813,8.732 -1.605,14.328 -1.275,15.334c2.664,8.139 8.414,10.842 14.14,11.449c11.441,1.213 46.428,-5.133 94.768,-21.893c106.293,-36.855 282.078,-122.813 410.29,-271.256c165.182,-191.248 243.045,-405.098 235.566,-572.415c-5.16,-115.445 -50.682,-209.197 -134.755,-261.046c-202.503,-124.884 -424.011,-16.355 -480.955,16.011Zm-99.172,1074.52c18.093,-49.514 61.862,-161.902 86.323,-225.71c73.803,-30.822 191.828,-95.262 279.22,-193.788c78.942,-89 123.181,-193.978 133.12,-278.173c7.093,-60.084 -3.68,-110.035 -29.463,-138.86c-34.208,-38.244 -80.875,-49.523 -131.075,-44.844c-60.328,5.623 -125.914,34.849 -177.396,62.812c-8.436,-81.352 -20.045,-174.331 -34.016,-233.077l-0,0c66.356,-35.452 258.919,-119.676 435.917,-10.521c75.164,46.354 114.339,130.951 118.952,234.163c7.182,160.668 -68.874,365.489 -227.493,549.137c-123.705,143.227 -293.425,225.991 -395.983,261.551c-23.81,8.255 -43.688,14.077 -58.106,17.31Z" style="fill:#7e4021;"/><path d="M272.003,249.911c-32.369,42.036 -50.902,70.37 -71.674,119.853c-40.518,96.523 -63.031,200.804 -74.638,305.459c-34.073,307.221 165.756,1140.6 1038.92,1168.02c930.055,29.212 1120.85,-894.392 1083.17,-1211.62c-11.018,-92.754 -32.955,-192.937 -71.301,-270.904c-26.695,-54.276 -61.476,-97.884 -105.361,-122.301c-70.517,-39.234 -162.188,-44.747 -239.22,-55.45c-171.894,-23.883 -346.051,-33.972 -519.298,-37.84c-219.242,-4.895 -588.328,-17.153 -823.834,19.731c-62.049,9.718 -115.012,22.911 -154.023,40.294c-28.288,12.604 -49.564,27.652 -62.736,44.758Zm26.41,20.337c10.383,-13.483 27.596,-24.713 49.893,-34.648c36.863,-16.426 86.98,-28.626 145.614,-37.809c233.817,-36.619 600.262,-24.197 817.932,-19.338c171.964,3.84 344.833,13.825 515.455,37.531c73.206,10.171 160.585,14.277 227.6,51.563c38.485,21.412 68.247,60.286 91.656,107.883c36.809,74.84 57.536,171.091 68.113,260.125c36.513,307.366 -147.881,1202.68 -1049.02,1174.37c-845.813,-26.566 -1039.84,-833.432 -1006.84,-1131.03c11.255,-101.482 32.954,-202.634 72.244,-296.231c19.492,-46.436 36.973,-72.971 67.348,-112.418Z" style="fill:#7e4021;"/><path d="M2034.01,1392.49c48.107,-74.364 -1739.39,-70.935 -1688.78,3.248c155.872,228.463 414.003,418.102 819.906,430.852c437.61,13.744 708.918,-186.834 868.875,-434.1Z" style="fill:#9d5e3e;"/><path d="M2048,1401.54c2.857,-4.417 3.832,-8.856 3.594,-13.139c-0.297,-5.366 -2.539,-11.118 -8.438,-16.234c-7.727,-6.702 -28.991,-14.111 -62.079,-19.549c-163.451,-26.859 -649.183,-36.074 -1049.74,-28.153c-268.278,5.305 -498.501,18.549 -569.424,38.803c-14.786,4.222 -24.104,9.676 -28.357,14.357c-3.791,4.174 -5.51,8.619 -5.946,12.929c-0.479,4.745 0.508,9.68 3.848,14.575c158.414,232.187 420.629,425.159 833.151,438.116c444.992,13.977 720.736,-190.267 883.392,-441.705Zm-34.814,-7.692c-158.099,238.27 -423.457,429.4 -847.532,416.08c-393.054,-12.345 -645.37,-193.078 -799.426,-413.116c8.784,-2.941 21.133,-5.662 36.613,-8.28c94.101,-15.915 297.247,-26.155 529.154,-30.741c398.242,-7.875 881.171,1.016 1043.68,27.72c15.926,2.617 28.584,5.357 37.514,8.337Z" style="fill:#7e4021;"/><ellipse cx="1186.84" cy="1372.79" rx="850.185" ry="169.85" style="fill:#c48464;"/><path d="M1186.84,1186.27c-246.721,-0 -469.167,20.989 -625.28,54.431c-97.323,20.848 -169.363,46.989 -206.881,75.375c-23.554,17.821 -34.691,37.42 -34.691,56.711c0,19.291 11.138,38.89 34.692,56.711c37.518,28.386 109.557,54.527 206.88,75.375c156.113,33.442 378.559,54.431 625.28,54.431c246.72,-0 469.167,-20.989 625.28,-54.431c97.323,-20.848 169.362,-46.989 206.88,-75.375c23.554,-17.822 34.691,-37.42 34.691,-56.711c0,-19.292 -11.137,-38.89 -34.691,-56.711c-37.518,-28.386 -109.558,-54.527 -206.88,-75.375c-156.113,-33.442 -378.56,-54.431 -625.28,-54.431Zm-0,33.333c201.188,0 386.069,14.036 531.337,37.504c122.643,19.813 216.678,46.016 267.338,76.574c12.461,7.516 22.073,15.136 28.282,23.138c4.076,5.253 6.561,10.488 6.561,15.968c0,5.48 -2.485,10.714 -6.561,15.968c-6.208,8.001 -15.82,15.622 -28.281,23.138c-50.66,30.557 -144.696,56.761 -267.339,76.574c-145.268,23.468 -330.149,37.504 -531.337,37.504c-201.189,-0 -386.069,-14.036 -531.337,-37.504c-122.643,-19.813 -216.679,-46.017 -267.339,-76.574c-12.461,-7.516 -22.073,-15.137 -28.281,-23.138c-4.076,-5.253 -6.562,-10.488 -6.562,-15.968c0,-5.48 2.485,-10.715 6.561,-15.968c6.209,-8.001 15.821,-15.622 28.281,-23.138c50.66,-30.557 144.696,-56.761 267.34,-76.574c145.268,-23.468 330.148,-37.504 531.337,-37.504Z" style="fill:#7e4021;"/><path d="M564.093,1398.73c-37.875,-5.685 -92.445,-50.213 -99.192,-57.985c-18.395,-21.19 -30.653,-49.57 -38.021,-76.33c-27.341,-99.29 -62.463,-147.365 -105.089,-236.17c-58.648,-122.183 -25.601,-279.403 21.591,-384.819c26.173,-58.465 -14.638,-140.106 33.69,-183.487c59.719,-53.607 35.831,-156.173 189.956,-227.704c101.932,-47.308 175.52,-103.732 342.105,-183.765c133.297,-64.041 383.27,-14.7 528.652,10.288c136.798,23.512 274.259,52.779 392.977,193.388c46.901,55.549 75.774,117.394 116.113,175.908c32.795,47.571 11.764,157.507 45.912,204.562c57.295,78.949 48.51,161.309 50.568,252.539c1.264,56.04 -49.182,139.645 -23.252,226.724c47.246,158.659 -86.575,237.252 -238.882,291.648c-109.243,39.015 -246.625,37.644 -358.46,37.644c-117.27,0 -263.057,-20.681 -380.567,-13.769c-172.379,10.14 -381.886,-14.229 -478.101,-28.672Z" style="fill:#ffe6d8;"/><path d="M561.619,1415.21c96.909,14.547 307.931,39.041 481.553,28.828c117.21,-6.895 262.62,13.798 379.589,13.798c113.596,-0 253.102,1.014 364.066,-38.615c161.366,-57.631 299.306,-144.005 249.25,-312.101c-14.613,-49.073 -2.766,-96.936 8.286,-138.773c8.298,-31.414 16.189,-59.856 15.655,-83.569c-2.137,-94.722 5.746,-179.982 -53.742,-261.954c-15.615,-21.516 -17.493,-57.66 -20.338,-93.612c-3.364,-42.528 -7.602,-84.888 -25.341,-110.62c-40.65,-58.964 -69.839,-121.224 -117.101,-177.201c-121.807,-144.267 -262.53,-174.937 -402.888,-199.061c-87.872,-15.103 -213.684,-38.968 -329.272,-41.764c-79.409,-1.922 -154.07,6.287 -209.42,32.879c-166.49,79.988 -240.031,136.389 -341.905,183.67c-97.881,45.428 -127.922,102.69 -149.954,153.48c-12.851,29.627 -21.995,57.081 -44.118,76.939c-27.908,25.052 -31.708,60.661 -30.681,98.937c0.823,30.649 5.014,63.109 -7.088,90.143c-48.905,109.242 -82.181,272.223 -21.405,398.841c42.137,87.784 77.02,135.234 104.046,233.383c8.006,29.073 21.519,59.808 41.504,82.831c7.424,8.552 67.627,57.285 109.304,63.541l-0,-0Zm4.948,-32.964c-34.073,-5.115 -83.011,-45.437 -89.08,-52.429c-16.805,-19.358 -27.807,-45.382 -34.539,-69.829c-27.655,-100.431 -63.015,-149.132 -106.132,-238.957c-56.519,-117.748 -23.702,-269.207 21.777,-370.797c14.072,-31.433 10.944,-69.022 9.987,-104.657c-0.753,-28.018 -0.803,-54.9 19.626,-73.238c25.653,-23.028 37.528,-54.123 52.431,-88.479c19.599,-45.179 46.338,-96.1 133.407,-136.509c101.991,-47.335 175.627,-103.781 342.307,-183.86c51.287,-24.64 120.599,-31.382 194.179,-29.602c113.894,2.756 237.846,26.411 324.432,41.293c133.238,22.9 267.437,50.764 383.065,187.714c46.54,55.121 75.097,116.553 115.126,174.616c15.058,21.843 16.7,58.228 19.556,94.329c3.376,42.677 8.054,85.021 26.589,110.562c55.104,75.93 45.416,155.385 47.395,243.126c0.606,26.879 -11.592,60.284 -20.429,97.495c-9.846,41.46 -15.991,87.075 -2.134,133.61c25.93,87.078 -8.148,147.653 -69.347,193.039c-43.403,32.188 -99.882,56.983 -159.167,78.156c-107.523,38.401 -242.782,36.674 -352.855,36.674c-117.571,-0 -263.734,-20.671 -381.546,-13.741c-171.134,10.067 -379.127,-14.177 -474.648,-28.516l-0,-0Z" style="fill:#7e4021;"/><path d="M407.038,465.595c8.856,7.617 18.563,14.19 27.476,21.777c21.875,18.621 27.273,42.709 32.305,70.14c7.034,38.347 12.416,74.324 43.797,100.75c4.599,3.874 10.968,7.814 16.961,12.071c3.433,2.44 6.968,4.729 8.666,7.785c1.757,3.163 0.879,7.482 0.381,11.786c-0.945,8.17 -2.84,16.434 -3.394,22.805c-6.612,76.043 40.465,127.567 104.248,161.838c8.103,4.354 18.216,1.31 22.57,-6.793c4.354,-8.103 1.31,-18.216 -6.793,-22.57c-51.681,-27.769 -92.175,-67.973 -86.817,-129.587c0.663,-7.622 3.251,-17.962 3.804,-27.597c0.558,-9.703 -0.842,-18.837 -4.861,-26.071c-3.213,-5.784 -8.465,-11.171 -14.692,-15.962c-6.236,-4.798 -13.606,-8.995 -18.602,-13.202c-25,-21.052 -26.878,-50.718 -32.482,-81.267c-6.484,-35.349 -15.295,-65.512 -43.485,-89.509c-8.971,-7.637 -18.761,-14.23 -27.652,-21.927c-1.664,-1.44 -5.878,-3.881 -9.167,-5.696c-4.141,-7.239 -13.155,-10.385 -21.007,-7.025c-6.568,2.811 -9.011,7.238 -10.215,10.699c-1.443,4.145 -1.449,8.561 0.678,13.149c1.084,2.338 3.238,5.452 7.088,8.146c2.588,1.811 10.33,5.815 11.193,6.26Zm5.05,-7.92l-0.681,0.312c0.235,-0.101 0.462,-0.204 0.681,-0.312Z" style="fill:#7e4021;"/><path d="M542.805,681.164c42.669,24.663 73.076,24.06 98.645,21.011c18.909,-2.255 34.356,-7.854 51.65,2.904c7.811,4.859 18.097,2.462 22.955,-5.349c4.859,-7.811 2.462,-18.096 -5.348,-22.955c-20.54,-12.777 -39.108,-12.192 -60.133,-9.422c-23.051,3.038 -50.001,8.7 -91.087,-15.049c-7.964,-4.603 -18.167,-1.874 -22.771,6.089c-4.603,7.964 -1.875,18.167 6.089,22.771Z" style="fill:#7e4021;"/><path d="M789.72,1143.37c-0.331,-0.292 -1.908,-1.703 -2.75,-2.697c-2.57,-3.034 -5.002,-6.862 -7.389,-10.869c-6.18,-10.37 -12.018,-21.75 -17.36,-28.512c-5.703,-7.217 -16.193,-8.447 -23.41,-2.745c-7.218,5.703 -8.448,16.192 -2.745,23.41c6.946,8.792 14.566,26.129 23.086,37.293c6.013,7.878 12.806,13.271 19.372,15.521c39.425,13.507 83.108,23.074 124.967,22.588c13.906,-0.162 29.787,-2.323 45.513,-3.01c12.913,-0.564 25.75,-0.29 36.666,4.486c10.878,4.759 20.483,11.812 30.438,18.208c12.387,7.959 25.238,15.005 40.226,18.16c18.252,3.843 35.019,-1.321 51.449,-8.119c11.179,-4.625 22.046,-10.424 33.895,-10.169c8.149,0.175 16.192,3.722 24.3,7.289c11.241,4.945 22.488,10.259 33.56,12.636c55.55,11.923 118.14,3.967 173.222,-7.562c9.004,-1.884 14.783,-10.724 12.899,-19.727c-1.885,-9.004 -10.724,-14.783 -19.728,-12.899c-50.695,10.611 -108.272,18.57 -159.398,7.597c-8.989,-1.93 -18.006,-6.541 -27.133,-10.556c-12.26,-5.394 -24.684,-9.839 -37.005,-10.104c-16.417,-0.353 -31.868,6.286 -47.356,12.694c-10.238,4.236 -20.465,8.696 -31.838,6.302c-10.898,-2.295 -20.068,-7.799 -29.075,-13.586c-11.437,-7.348 -22.598,-15.235 -35.095,-20.702c-12.526,-5.481 -26.729,-7.419 -41.408,-7.468c-18.563,-0.061 -37.952,3.006 -54.519,3.199c-37.987,0.441 -77.583,-8.425 -113.384,-20.658Z" style="fill:#7e4021;"/><path d="M1239.93,819.297c53.682,5.268 115.072,-8.915 156.367,-45.193c14.991,-13.17 27.018,-11.781 39.876,-11.057c13.158,0.741 26.967,1.151 43.358,-4.634c11.403,-4.025 20.693,-10.893 29.601,-18.352c8.991,-7.53 17.218,-16.267 30.039,-18.783c16.846,-3.306 32.921,-2.647 48.94,-2.925c18.902,-0.327 37.712,-1.811 57.361,-9.53c8.561,-3.363 12.782,-13.045 9.418,-21.607c-3.363,-8.561 -13.045,-12.781 -21.607,-9.418c-15.65,6.149 -30.693,6.967 -45.748,7.227c-17.937,0.311 -35.921,-0.158 -54.784,3.544c-16.165,3.173 -28.156,11.766 -39.498,21.28c-7.725,6.479 -14.931,13.642 -24.816,17.131c-15.078,5.322 -27.253,2.712 -39.154,2.37c-17.372,-0.499 -34.383,1.612 -54.986,19.712c-34.567,30.368 -86.175,41.471 -131.111,37.061c-9.155,-0.899 -17.316,5.804 -18.215,14.959c-0.898,9.155 5.805,17.316 14.959,18.215Z" style="fill:#7e4021;"/><path d="M1938.22,441.021c-14.746,27.696 -50.669,34.984 -63.309,38.786c-6.642,1.997 -14.11,1.75 -21.24,2.448c-7.377,0.721 -14.494,2.131 -20.932,5.11c-11.276,5.217 -23.392,17.679 -35.301,32.9c-14.026,17.925 -28.273,40.039 -43.324,51.038c-7.427,5.427 -9.05,15.863 -3.623,23.29c5.427,7.427 15.863,9.05 23.29,3.623c14.498,-10.595 28.866,-29.663 42.548,-47.792c10.719,-14.203 20.386,-28.171 30.407,-32.807c5.397,-2.498 11.78,-2.342 18.038,-2.795c6.776,-0.489 13.498,-1.218 19.737,-3.094c16.974,-5.105 63.331,-17.85 83.132,-55.042c4.323,-8.12 1.24,-18.222 -6.879,-22.544c-8.12,-4.323 -18.221,-1.241 -22.544,6.879Z" style="fill:#7e4021;"/><path d="M1838.98,484.188c-7.902,-0.027 -23.607,-4.723 -30.942,-7.531c-30.045,-11.501 -64.562,-27.204 -97.507,-17.119c-8.796,2.693 -13.751,12.02 -11.058,20.816c2.692,8.795 12.019,13.75 20.815,11.058c11.609,-3.554 23.429,-1.896 35.006,1.288c14.122,3.885 27.912,10.144 40.826,15.087c10.1,3.867 31.869,9.697 42.748,9.734c9.199,0.031 16.692,-7.412 16.723,-16.611c0.03,-9.198 -7.413,-16.691 -16.611,-16.722Z" style="fill:#7e4021;"/><path d="M1577.13,1051c3.016,0.137 19.362,0.842 23.66,0.335c21.39,-2.522 48.683,-13.474 63.256,-29.869c4.338,-4.88 7.284,-11.278 9.473,-18.017c0.856,-2.637 1.611,-5.314 2.451,-7.817c0.237,-0.707 0.643,-1.694 0.965,-2.443c2.339,-0.508 8.306,-1.781 12.041,-2.45c8.101,-1.45 15.798,-3.858 21.422,-7.997c15.833,-11.651 38.904,-24.37 52.752,-37.974c7.07,-6.946 12.576,-14.775 18.414,-22.312c4.242,-5.477 8.643,-10.835 14.947,-14.87c7.748,-4.958 10.012,-15.274 5.054,-23.022c-4.959,-7.748 -15.275,-10.012 -23.022,-5.054c-9.699,6.208 -16.805,14.108 -23.332,22.534c-4.93,6.364 -9.451,13.08 -15.422,18.946c-12.842,12.617 -34.463,24.099 -49.147,34.904c-1.125,0.828 -2.696,1.025 -4.269,1.382c-3.746,0.85 -7.754,1.365 -11.474,2.059c-8.993,1.677 -16.655,4.85 -21.457,9.653c-4.199,4.199 -7.284,10.409 -9.569,17.553c-1.388,4.338 -1.859,9.539 -4.74,12.78c-9.643,10.847 -28.093,17.241 -42.246,18.91c-3.731,0.44 -17.24,-0.497 -18.993,-0.562c-4.693,-0.175 -7.169,1.233 -7.407,1.336c-5.433,2.331 -7.597,6.092 -8.725,8.698c-2.149,4.967 -2.157,10.167 1.184,15.485c0.243,0.387 2.934,6.733 12.471,7.722c0.575,0.06 1.146,0.089 1.713,0.09Zm12.647,-5.813c-0.628,0.731 -1.318,1.405 -2.059,2.015c0.804,-0.648 1.483,-1.328 2.059,-2.015Zm3.25,-15.878c0.836,2.452 1.002,4.873 0.622,7.25l0.065,-0.507c0.244,-2.346 -0.013,-4.63 -0.687,-6.743Zm-2.154,-4.403c-0.905,-1.645 -4.016,-6.322 -12.017,-7.151c5.055,0.524 9.35,3.261 12.017,7.151Z" style="fill:#7e4021;"/><path d="M904.384,357.643c268.641,20.538 617.555,22.546 884.903,-11.449c9.125,-1.16 15.591,-9.511 14.431,-18.636c-1.161,-9.125 -9.511,-15.591 -18.636,-14.431c-265.309,33.736 -611.565,31.661 -878.157,11.279c-9.172,-0.701 -17.187,6.176 -17.888,15.348c-0.702,9.172 6.175,17.187 15.347,17.889Z" style="fill:#7e4021;"/><path d="M629.145,327.223c37.198,7.481 124.995,15.607 156.489,17.081c9.189,0.429 16.998,-6.682 17.428,-15.87c0.429,-9.189 -6.682,-16.997 -15.87,-17.427c-30.484,-1.426 -115.471,-9.222 -151.475,-16.463c-9.018,-1.814 -17.812,4.036 -19.625,13.054c-1.814,9.018 4.035,17.811 13.053,19.625Z" style="fill:#7e4021;"/><path d="M1947.43,320.19c24.894,-3.716 107.169,-13.722 154.235,-38.904c23.906,-12.791 39.095,-30.059 41.111,-49.974c1.373,-13.561 -2.962,-29.289 -17.232,-46.682c-5.835,-7.112 -16.346,-8.148 -23.457,-2.314c-7.111,5.835 -8.148,16.346 -2.313,23.457c6.959,8.482 10.508,15.569 9.838,22.182c-1.048,10.362 -11.235,17.285 -23.672,23.94c-43.709,23.385 -120.313,31.876 -143.43,35.327c-9.098,1.358 -15.382,9.847 -14.024,18.944c1.358,9.098 9.847,15.382 18.944,14.024Z" style="fill:#7e4021;"/></g></svg>