<?xml version="1.0" encoding="UTF-8" standalone="no"?><!DOCTYPE svg PUBLIC "-//W3C//DTD SVG 1.1//EN" "http://www.w3.org/Graphics/SVG/1.1/DTD/svg11.dtd"><svg width="100%" height="100%" viewBox="0 0 3878 3742" version="1.1" xmlns="http://www.w3.org/2000/svg" xmlns:xlink="http://www.w3.org/1999/xlink" xml:space="preserve" xmlns:serif="http://www.serif.com/" style="fill-rule:evenodd;clip-rule:evenodd;stroke-linejoin:round;stroke-miterlimit:2;"><g id="Books"><path d="M3816.08,2983.73c56.374,1.855 60.546,-45.801 8.855,-79.107c-166.924,-107.556 -909.214,-500.604 -1034.05,-527.953c-326.097,-71.443 -2044.67,-37.11 -2295.08,23.313c-93.401,22.538 -188.408,183.046 -376.508,468.438c-113.513,172.227 -163.272,494.329 13.085,672.761c164.266,166.199 843.765,159.205 1644.69,170.964c972.369,14.277 1936.24,18.704 1974.51,-0.151c17.421,-8.582 12.149,-88.255 -3.932,-90.77c-254.634,-39.822 -1428.43,2.557 -1966.96,-14.449c-503.091,-15.887 -1028.45,40.372 -1514.43,-121.62c-86.444,-28.814 -111.639,-150.092 -104.548,-264.525c6.204,-100.103 96.026,-207.691 187.617,-237.036c277.337,-88.855 2876.89,-19.271 3466.74,0.135Z" style="fill:#c48464;"/><path d="M3815.53,3000.39c31.288,1.029 49.972,-11.262 57.757,-26.545c5.25,-10.307 6.185,-22.747 1.714,-35.983c-5.215,-15.44 -18.471,-32.705 -41.041,-47.248c-167.771,-108.101 -914.041,-502.735 -1039.51,-530.223c-327.158,-71.675 -2051.33,-37.228 -2302.55,23.393c-39.943,9.638 -80.836,42.003 -127.587,97.947c-65.866,78.817 -145.601,205.576 -258.928,377.52c-69.881,106.027 -116.287,267.395 -103.087,419.085c8.914,102.436 44.917,200.384 118.234,274.564c50.937,51.535 149.389,88.012 285.195,112.682c307.188,55.802 809.333,54.983 1371.1,63.231c778.188,11.426 1550.93,16.538 1848.51,8.471c52.708,-1.429 90.685,-3.292 111.388,-5.576c11.728,-1.293 19.151,-3.246 22.225,-4.76c6.261,-3.084 12.279,-9.879 15.743,-20.435c4.657,-14.196 5.497,-37.39 2.823,-56.975c-1.989,-14.562 -6.151,-27.137 -10.936,-33.929c-4.729,-6.711 -10.64,-9.956 -16.351,-10.849c-254.899,-39.863 -1429.92,2.383 -1969.01,-14.641c-501.502,-15.836 -1025.24,40.709 -1509.68,-120.772c-30.326,-10.109 -51.694,-33.572 -66.456,-64.057c-24.149,-49.868 -30.797,-117.955 -26.727,-183.626c5.818,-93.877 90.173,-194.675 176.067,-222.195c82.659,-26.483 372.984,-38.284 754.717,-42.03c896.319,-8.795 2293.6,29.37 2706.39,42.951l0,0Zm-75.46,636.554c1.224,3.621 3.605,11.155 4.418,17.103c1.732,12.69 1.834,27.394 -0.424,38.093c-0.335,1.585 -1.035,3.628 -1.556,5.027c-2.351,0.424 -6.031,1.033 -9.439,1.409c-20.19,2.227 -57.232,3.993 -108.636,5.387c-297.352,8.06 -1069.51,2.938 -1847.12,-8.479c-559.522,-8.215 -1059.67,-7.12 -1365.63,-62.699c-126.975,-23.066 -219.821,-55.133 -267.445,-103.317c-84.921,-85.92 -114.857,-206.614 -110.443,-326.377c4.467,-121.16 44.123,-241.597 99.42,-325.496c112.392,-170.526 191.351,-296.322 256.673,-374.489c40.71,-48.714 75.048,-78.526 109.829,-86.919c249.59,-60.227 1962.57,-94.444 2287.6,-23.235c124.2,27.21 862.511,418.674 1028.59,525.683c12.528,8.072 21.243,16.94 25.727,25.706c3.038,5.939 4.312,11.562 1.129,15.664c-4.365,5.626 -13.44,7.487 -26.136,7.07l-0,-0c-472.054,-15.531 -2230.77,-63.174 -3057.42,-36.105c-208.891,6.84 -358.867,18.786 -414.952,36.755c-97.289,31.171 -192.577,145.547 -199.166,251.877c-4.441,71.648 3.648,145.809 29.995,200.216c18.901,39.033 47.087,68.209 85.917,81.152c487.51,162.503 1014.49,106.529 1519.17,122.466c534.522,16.88 1695.56,-24.981 1959.9,13.508Z" style="fill:#7e4021;"/><path d="M2856.76,2459.56c-5.675,-5.416 -14.584,-6.212 -21.194,-1.477c-7.478,5.356 -9.2,15.776 -3.844,23.254c1.464,2.044 5.492,5.771 12.051,9.166c12.884,6.671 41.06,17.226 46.829,20.069c40.129,19.777 77.945,41.416 115.421,65.811c7.709,5.018 18.042,2.833 23.06,-4.876c5.019,-7.709 2.834,-18.042 -4.875,-23.06c-38.596,-25.124 -77.543,-47.407 -118.87,-67.774c-5.947,-2.931 -45.183,-19.666 -48.578,-21.113Z" style="fill:#7e4021;"/><path d="M3077.14,2615.73c0.48,0.293 0.923,0.549 1.187,0.675c10.316,4.922 20.511,9.989 30.626,15.321c20.329,10.716 41.014,20.818 61.002,32.162c8,4.541 18.181,1.732 22.722,-6.268c4.54,-8 1.732,-18.181 -6.268,-22.721c-20.289,-11.515 -41.278,-21.784 -61.912,-32.661c-10.508,-5.538 -21.098,-10.804 -31.814,-15.917c0.429,0.205 1.656,0.931 1.656,0.931c0,0 -9.656,-3.715 -10.987,-3.689c-4.114,0.079 -7.282,1.506 -9.746,3.365c-3.119,2.351 -5.552,5.642 -6.397,10.451c-0.344,1.957 -0.775,5.288 1.21,9.769c1.781,4.022 4.963,6.99 8.721,8.582Zm23.136,-14.082c0.22,-2.03 0.073,-4.719 -1.38,-7.999c1.153,2.604 1.585,5.345 1.38,7.999Z" style="fill:#7e4021;"/><path d="M3753.84,2981.73c22.687,0.712 -37.604,635.287 -57.368,633.547c-332.988,-29.314 -1407.42,7.549 -1915.77,-8.504c-503.091,-15.887 -1028.45,40.372 -1514.43,-121.62c-86.444,-28.814 -111.639,-150.092 -104.548,-264.525c6.204,-100.103 96.026,-207.691 187.617,-237.036c268.517,-86.029 2713.88,-23.537 3404.5,-1.862Z" style="fill:#ffe6d8;"/><path d="M3754.36,2965.08c-483.564,-15.177 -1827.18,-50.356 -2681.95,-40.583c-368.728,4.215 -647.052,17.247 -728.155,43.231c-97.289,31.171 -192.577,145.547 -199.166,251.877c-4.441,71.648 3.648,145.809 29.995,200.216c18.901,39.033 47.087,68.209 85.917,81.152c487.51,162.503 1014.49,106.529 1519.17,122.466c508.105,16.046 1582.01,-20.852 1914.84,8.449c3.95,0.348 8.214,-0.457 12.385,-3.619c2.475,-1.877 6.773,-7.04 9.717,-16.658c15.77,-51.516 44.563,-322.009 54.714,-491.387c3.953,-65.961 4.882,-116.921 1.624,-134.778c-2.969,-16.273 -13.974,-20.206 -19.087,-20.366Zm-13.236,32.939c0.49,5.687 1.026,13.693 1.067,21.656c0.208,40.147 -3.684,108.396 -9.67,184.575c-12.231,155.638 -32.994,344.506 -46.091,393.475c-345.658,-27.553 -1402.3,8.279 -1905.21,-7.603c-501.502,-15.836 -1025.24,40.709 -1509.68,-120.772c-30.326,-10.109 -51.694,-33.572 -66.456,-64.057c-24.149,-49.868 -30.797,-117.955 -26.727,-183.626c5.818,-93.877 90.173,-194.675 176.067,-222.195c80.007,-25.633 354.625,-37.485 718.366,-41.644c847.228,-9.686 2174.96,24.819 2668.34,40.191Z" style="fill:#7e4021;"/><path d="M431.55,3098.21c198.161,-14.886 411.234,-4.069 609.859,-9.887c9.195,-0.269 16.441,-7.953 16.171,-17.147c-0.269,-9.195 -7.952,-16.441 -17.147,-16.172c-199.121,5.832 -412.724,-4.957 -611.379,9.966c-9.173,0.689 -16.061,8.695 -15.372,17.868c0.689,9.173 8.696,16.061 17.868,15.372Z" style="fill:#7e4021;"/><path d="M1173.19,3084.89c71.538,-11.755 155.595,-3.826 227.766,-4.769c9.198,-0.12 16.568,-7.685 16.448,-16.883c-0.12,-9.198 -7.686,-16.568 -16.883,-16.447c-73.748,0.964 -159.635,-6.805 -232.736,5.207c-9.077,1.492 -15.235,10.072 -13.744,19.149c1.492,9.077 10.072,15.235 19.149,13.743Z" style="fill:#7e4021;"/><path d="M882.313,3246.05c81.875,-6.444 179.117,-3.161 264.294,-7.352c193.109,-9.504 399.486,1.635 592.752,-1.847c9.197,-0.166 16.53,-7.768 16.364,-16.965c-0.166,-9.197 -7.767,-16.529 -16.964,-16.363c-193.604,3.488 -400.343,-7.638 -593.79,1.882c-85.492,4.207 -183.093,0.947 -265.272,7.414c-9.17,0.722 -16.029,8.753 -15.307,17.923c0.721,9.171 8.752,16.03 17.923,15.308Z" style="fill:#7e4021;"/><path d="M1999.07,3195.63c-2.613,-0.557 -5.397,-0.491 -8.139,0.313c-8.827,2.589 -13.891,11.857 -11.302,20.684c0.538,1.833 4.077,11.438 16.627,12.281c10.021,0.673 58.504,-1.807 60.801,-1.878c168.549,-5.181 338.23,-2.371 506.79,1.396c9.196,0.206 16.829,-7.094 17.034,-16.29c0.206,-9.196 -7.093,-16.829 -16.29,-17.035c-169.148,-3.78 -339.421,-6.588 -508.558,-1.389l-56.963,1.918Z" style="fill:#7e4021;"/><path d="M3742.87,3085.14c-90.36,-3.665 -183.002,-2.02 -273.394,-5.093c-9.193,-0.313 -16.911,6.897 -17.223,16.09c-0.313,9.194 6.897,16.911 16.09,17.224c90.32,3.07 182.889,1.423 273.176,5.085c9.191,0.372 16.955,-6.787 17.328,-15.978c0.373,-9.191 -6.786,-16.956 -15.977,-17.328Z" style="fill:#7e4021;"/><path d="M3366.38,3079.06c-30.313,0.479 -90.94,1.44 -127.155,1.321c-9.198,-0.03 -16.691,7.414 -16.721,16.612c-0.03,9.199 7.413,16.691 16.612,16.721c36.396,0.12 97.326,-0.843 127.791,-1.325c9.198,-0.146 16.547,-7.731 16.401,-16.929c-0.145,-9.197 -7.731,-16.546 -16.928,-16.4Z" style="fill:#7e4021;"/><path d="M3551.52,3278.58c0.516,0.051 1.039,0.076 1.568,0.076c9.199,-0 16.667,-7.468 16.667,-16.667c-0,-0.551 -2.099,-16.411 -17.781,-16.742c-8.56,-0.18 -51.395,0.13 -52.092,0.135c-118.61,0.883 -237.226,3.62 -355.828,5.345c-9.197,0.134 -16.556,7.71 -16.422,16.908c0.134,9.197 7.71,16.556 16.907,16.422c118.522,-1.724 237.06,-4.46 355.591,-5.342c0.684,-0.005 42.737,-0.319 51.141,-0.142l0.249,0.007Z" style="fill:#7e4021;"/><path d="M314.269,3286.08c65.851,-2.902 146.496,-1.12 212.329,-4.436c9.187,-0.462 16.27,-8.297 15.807,-17.483c-0.463,-9.187 -8.297,-16.27 -17.484,-15.808c-65.767,3.312 -146.334,1.527 -212.12,4.426c-9.19,0.405 -16.322,8.195 -15.917,17.384c0.405,9.19 8.195,16.322 17.385,15.917Z" style="fill:#7e4021;"/><path d="M445.104,3376.13c4.477,-0.016 13.504,-0.023 16.884,0.106c66.979,2.547 133.813,3.634 200.851,3.317c137.66,-0.651 274.959,-2.35 412.471,-9.128c9.187,-0.453 16.279,-8.28 15.826,-17.468c-0.453,-9.187 -8.28,-16.278 -17.467,-15.825c-137.017,6.754 -273.822,8.439 -410.988,9.088c-66.562,0.314 -132.923,-0.765 -199.427,-3.293c-6.224,-0.237 -22.407,-0.189 -24.656,0.086c-13.38,1.636 -14.69,13.438 -14.833,15.383c-0.066,0.895 -0.224,16.778 16.796,18.026c1.558,0.114 3.083,0.01 4.543,-0.292Z" style="fill:#7e4021;"/><path d="M1179.9,3536.31c64.477,-3.592 128.99,-6.389 193.522,-8.784c209.724,-7.782 419.528,-10.27 629.354,-13.212c9.197,-0.129 16.56,-7.701 16.431,-16.898c-0.129,-9.198 -7.701,-16.561 -16.898,-16.432c-210.082,2.945 -420.143,5.44 -630.123,13.232c-64.739,2.402 -129.457,5.209 -194.14,8.812c-9.185,0.512 -16.226,8.384 -15.714,17.568c0.512,9.185 8.384,16.226 17.568,15.714Z" style="fill:#7e4021;"/><path d="M2258.78,3498.63c26.651,0.572 301.531,1.283 331.325,-0.006c9.19,-0.397 16.328,-8.181 15.931,-17.371c-0.397,-9.19 -8.181,-16.328 -17.371,-15.931c-29.6,1.28 -302.692,0.55 -329.17,-0.018c-9.196,-0.197 -16.823,7.109 -17.02,16.306c-0.197,9.196 7.109,16.823 16.305,17.02Z" style="fill:#7e4021;"/><path d="M3700.49,3471.93c5.411,1.722 11.567,0.633 16.122,-3.405c6.883,-6.102 7.517,-16.644 1.414,-23.527c-1.251,-1.412 -3.304,-3.342 -6.831,-4.693c-1.909,-0.732 -9.246,-1.958 -21.178,-2.42c-89.1,-3.452 -516.555,2.314 -565.509,0.602c-9.193,-0.322 -16.917,6.881 -17.239,16.074c-0.321,9.193 6.881,16.917 16.074,17.239c43.544,1.522 386.351,-2.859 524.613,-1.427c26.78,0.277 49.067,1.377 52.534,1.557Z" style="fill:#7e4021;"/><path d="M718.258,2369.2c-26.823,43.556 -61.459,103.81 -87.964,147.562c-85.146,140.548 -166.434,303.426 -253.722,442.293c-4.895,7.788 -2.547,18.085 5.241,22.981c7.788,4.895 18.085,2.546 22.98,-5.242c87.382,-139.016 168.773,-302.061 254.011,-442.76c26.468,-43.691 61.052,-103.861 87.837,-147.355c4.823,-7.833 2.38,-18.108 -5.452,-22.931c-7.833,-4.824 -18.108,-2.381 -22.931,5.452Z" style="fill:#7e4021;"/><path d="M3192.39,2696.36c28.095,1.173 -36.59,-206.209 -33.697,-421.696c2.759,-205.518 74.708,-419.661 35.922,-416.795c-238.134,17.598 -734.125,-8.191 -1070.63,-1.248c-429.425,8.861 -1567.69,33.263 -1641.67,77.187c-147.722,87.71 -191.49,393.092 -160.822,548.624c14.323,72.641 13.788,184.037 128.163,220.886c68.106,21.942 1498.83,37.539 1679.04,21.521c148.188,-13.172 747.325,-41.694 1063.69,-28.479Z" style="fill:#ebccb8;"/><path d="M3191.69,2713.01c7.407,0.309 13.442,-2.482 18.066,-8.58c3.755,-4.952 6.85,-15.483 6.293,-31.375c-2.078,-59.265 -43.005,-226.125 -40.695,-398.17c2.21,-164.66 48.695,-334.858 47.342,-394.877c-0.65,-28.839 -14.382,-39.866 -29.314,-38.762c-237.937,17.583 -733.518,-8.227 -1069.75,-1.29c-343.786,7.094 -1141.55,24.158 -1484.81,53.199c-60.96,5.157 -107.788,10.739 -135.556,16.653c-14.188,3.022 -24.09,6.476 -29.464,9.667c-62.086,36.863 -107.405,109.825 -136.523,195.162c-42.554,124.715 -50.979,275.486 -32.142,371.017c5.796,29.396 9.24,65.054 18.628,99.66c15.265,56.269 45.519,109.619 120.777,133.865c13.958,4.497 83.737,9.224 187.981,12.994c407.468,14.735 1353.28,22.098 1497.64,9.265c147.885,-13.145 745.799,-41.616 1061.52,-28.428Zm-2.8,-838.036c0.213,1.531 0.402,3.27 0.455,4.854c0.236,7.058 -0.334,15.864 -1.439,26.185c-8.057,75.237 -43.943,223.959 -45.882,368.425c-2.038,151.76 29.132,299.535 38.387,374.13c1.445,11.653 1.77,23.541 1.812,30.712c-319.668,-12.172 -908.195,15.906 -1055.01,28.956c-143.964,12.797 -1087.15,5.32 -1493.49,-9.374c-99.209,-3.588 -165.681,-7.13 -178.965,-11.41c-61.993,-19.973 -86.253,-64.514 -98.828,-110.865c-9.171,-33.808 -12.432,-68.664 -18.095,-97.381c-17.964,-91.107 -9.597,-234.866 30.987,-353.805c26.307,-77.1 65.9,-143.959 121.993,-177.264c5.002,-2.971 15.898,-5.323 31.649,-8.084c27.608,-4.839 68.34,-9.384 119.163,-13.684c342.769,-28.998 1139.4,-46.003 1482.69,-53.087c333.551,-6.882 823.668,18.328 1064.57,1.692Z" style="fill:#7e4021;"/><path d="M3280.4,1766.38c14.293,13.632 42.728,72.771 0.928,79.119c-194.138,29.482 -788.071,3.501 -1157.34,11.12c-429.425,8.861 -1567.69,33.263 -1641.67,77.187c-147.722,87.71 -191.49,393.092 -160.822,548.624c14.323,72.641 13.788,184.037 128.163,220.886c68.106,21.942 1493.42,24.599 1674.32,27.127c168.277,2.351 940.408,-15.356 1142.38,-16.089c42.561,-0.154 28.21,62.033 15.986,78.252c-43.006,57.063 -1199.59,37.008 -2030.08,46.601c-196.233,2.267 -752.197,27.472 -914.717,-47.235c-88.221,-40.553 -138.779,-168.957 -151.527,-254.509c-28.892,-193.875 9.427,-576.951 195.543,-708.689c134.803,-95.417 1685.68,-128.889 1726.28,-130.036c44.974,-1.27 1156.52,52.345 1172.56,67.642Z" style="fill:#fff;"/><path d="M3291.9,1754.32c-1.363,-1.3 -4.185,-3.505 -9.199,-4.932c-5.127,-1.459 -17.551,-3.317 -36.108,-5.231c-192.536,-19.864 -1098.67,-63.223 -1139.22,-62.078c-32.51,0.919 -1032.61,22.581 -1500.44,80.1c-70.936,8.722 -129.76,18.296 -171.367,28.702c-30.123,7.534 -51.777,15.902 -63.628,24.291c-77.143,54.603 -130.375,150.503 -163.854,259.232c-49.241,159.92 -56.158,347.324 -38.545,465.516c7.943,53.301 30.057,122.605 66.233,178.627c25.023,38.749 56.802,71.094 94.818,88.569c49.961,22.966 136.133,37.114 237.826,45.05c232.066,18.111 546.381,5.298 684.044,3.708c664.733,-7.679 1538.28,3.598 1883.14,-20.804c61.894,-4.379 107.163,-10.033 131.793,-16.956c15.319,-4.306 24.415,-10.377 28.257,-15.476c9.101,-12.075 19.404,-44.631 14.581,-68.744c-2.024,-10.121 -6.47,-18.875 -13.394,-25.264c-7.097,-6.551 -16.911,-10.991 -30.543,-10.941c-201.922,0.732 -973.856,18.441 -1142.09,16.09c-144.694,-2.022 -1085.68,-4.124 -1491.15,-16.118c-98.809,-2.922 -165.023,-5.931 -178.298,-10.208c-61.993,-19.973 -86.253,-64.514 -98.828,-110.865c-9.171,-33.808 -12.432,-68.664 -18.095,-97.381c-17.964,-91.107 -9.597,-234.866 30.987,-353.805c26.307,-77.1 65.9,-143.959 121.993,-177.264c5.002,-2.971 15.898,-5.323 31.649,-8.084c27.608,-4.839 68.34,-9.384 119.163,-13.684c342.769,-28.998 1139.4,-46.003 1482.69,-53.087c369.963,-7.633 965.003,18.232 1159.5,-11.305c13.816,-2.098 22.667,-8.267 28.313,-16.045c5.462,-7.525 7.977,-17.044 7.693,-27.549c-0.651,-24.092 -17.452,-54.068 -27.934,-64.064Zm-20.564,26.852c4.072,5.124 8.718,13.69 11.885,22.666c1.665,4.718 2.911,9.575 3.229,14.162c0.232,3.335 0.466,6.588 -1.592,8.718c-1.305,1.352 -3.383,1.902 -6.034,2.304c-193.776,29.427 -786.602,3.33 -1155.19,10.935c-343.786,7.094 -1141.55,24.158 -1484.81,53.199c-60.96,5.157 -107.788,10.739 -135.556,16.653c-14.188,3.022 -24.09,6.476 -29.464,9.667c-62.086,36.863 -107.405,109.825 -136.523,195.162c-42.554,124.715 -50.979,275.486 -32.142,371.017c5.796,29.396 9.24,65.054 18.628,99.66c15.265,56.269 45.519,109.619 120.777,133.865c13.967,4.5 83.571,8.725 187.534,11.8c405.61,11.998 1346.92,14.106 1491.66,16.129c168.32,2.352 940.65,-15.354 1142.68,-16.087c3.4,-0.012 6.045,0.469 7.815,2.103c3.541,3.268 3.931,8.799 3.996,14.41c0.151,12.958 -4.093,27.482 -8.593,34.185c-1.738,0.702 -12.111,4.795 -21.749,6.859c-24.931,5.341 -63.96,9.655 -114.636,13.241c-344.501,24.376 -1217.14,13.052 -1881.18,20.722c-137.063,1.584 -450.01,14.424 -681.065,-3.608c-96.787,-7.554 -178.947,-20.246 -226.498,-42.104c-32.561,-14.968 -59.306,-43.177 -80.737,-76.366c-33.504,-51.883 -53.911,-116.094 -61.267,-165.457c-17.056,-114.456 -10.251,-295.928 37.434,-450.794c31.139,-101.129 79.503,-191.047 151.254,-241.834c9.718,-6.878 27.756,-12.983 52.458,-19.161c40.628,-10.161 98.08,-19.438 167.347,-27.954c466.855,-57.399 1464.87,-78.948 1497.31,-79.865c35.921,-1.015 753.347,33.091 1047.08,54.573c56.656,4.144 105.145,9.885 115.942,11.2Z" style="fill:#7e4021;"/><path d="M512.444,1927.07c-43.724,25.176 -151.695,131.421 -176.05,322.698c-13.125,103.081 -1.69,214.54 24.628,315.401c25.595,98.085 81.748,134.63 80.366,134.346c-54.858,-11.281 -98.096,-43.1 -133.868,-232.682c-18.589,-98.52 2.136,-255.702 22.988,-343.639c31.373,-132.307 144.228,-198.687 181.936,-196.124Z" style="fill:#7e4021;"/><path d="M520.76,1941.51c6.359,-3.661 9.575,-11.05 7.922,-18.199c-1.653,-7.148 -7.787,-12.375 -15.108,-12.873c-13.352,-0.908 -34.953,4.674 -59.281,18.318c-50.976,28.591 -116.723,92.415 -140.002,190.588c-21.271,89.708 -42.112,250.072 -23.148,350.576c38.17,202.296 88.351,233.878 146.887,245.916c11.333,2.331 16.146,-4.81 18.117,-8.539c0.301,-0.569 5.941,-12.718 -5.628,-21.89c-7.753,-6.147 -51.904,-42.185 -73.37,-124.45c-25.792,-98.845 -37.084,-208.068 -24.222,-309.088c23.377,-183.594 125.865,-286.195 167.833,-310.359Zm-201.613,487.348c0.691,7.562 1.552,14.909 2.602,22.001c-0.955,-7.319 -1.824,-14.656 -2.602,-22.001Zm91.674,-422.794c-27.43,29.929 -52.088,70.331 -64.096,120.971c-1.166,4.92 -2.334,10.062 -3.488,15.403c17.961,-55.31 42.456,-100.703 67.584,-136.374Z" style="fill:#7e4021;"/><path d="M453.573,2618.96c126.139,3.283 471.759,6.428 814.661,9.05c9.199,0.071 16.724,-7.34 16.794,-16.539c0.07,-9.198 -7.34,-16.723 -16.539,-16.793c-342.644,-2.62 -688.004,-5.76 -814.049,-9.04c-9.195,-0.24 -16.855,7.031 -17.095,16.227c-0.239,9.195 7.032,16.855 16.228,17.095Z" style="fill:#7e4021;"/><path d="M1890.14,2632.49c112.67,0.826 191.102,1.475 211.676,1.91c36.021,0.762 173.29,-2.944 340.562,-10.267c263.097,-11.517 600.402,-32.023 734.782,-57.866c9.033,-1.737 14.957,-10.481 13.22,-19.514c-1.737,-9.033 -10.482,-14.956 -19.515,-13.219c-133.492,25.671 -468.585,45.857 -729.945,57.298c-166.21,7.276 -302.607,10.999 -338.399,10.242c-20.619,-0.436 -99.222,-1.089 -212.137,-1.916c-9.199,-0.068 -16.721,7.346 -16.788,16.544c-0.068,9.198 7.345,16.721 16.544,16.788Z" style="fill:#7e4021;"/><path d="M2111.91,2737.55c112.272,4.501 854.225,-52.5 1074.11,-94.785c9.033,-1.737 14.957,-10.481 13.22,-19.514c-1.737,-9.033 -10.481,-14.957 -19.515,-13.22c-218.321,41.985 -955.001,98.681 -1066.48,94.213c-9.191,-0.369 -16.952,6.794 -17.321,15.985c-0.368,9.191 6.795,16.953 15.986,17.321Z" style="fill:#7e4021;"/><path d="M2115.67,2222.94c-0.941,-0.44 -2.005,-0.829 -3.208,-1.139c-0.762,-0.196 -6.197,-0.747 -15.906,-0.788c-108.099,-0.459 -927.399,11.309 -1382.6,12.858c-9.198,0.031 -16.641,7.525 -16.61,16.723c0.032,9.199 7.525,16.642 16.724,16.61c449.2,-1.528 1253.03,-13.013 1377.78,-12.861l0.764,0.31c0.802,0.294 4.703,1.217 11.576,1.419c33.246,0.975 191.571,-0.109 378.341,-4.582c9.196,-0.22 16.483,-7.865 16.263,-17.061c-0.221,-9.196 -7.865,-16.483 -17.061,-16.263c-170.762,4.089 -317.634,5.355 -366.059,4.774Z" style="fill:#7e4021;"/><path d="M2782.22,2241.64c162.126,-7.092 308.574,-17.2 380.07,-30.949c9.033,-1.738 14.956,-10.482 13.219,-19.515c-1.737,-9.033 -10.481,-14.956 -19.514,-13.219c-70.583,13.574 -215.176,23.38 -375.231,30.382c-9.19,0.402 -16.325,8.189 -15.923,17.379c0.402,9.19 8.19,16.324 17.379,15.922Z" style="fill:#7e4021;"/><path d="M436.521,2527.7c42.727,1.112 111.514,2.22 197.38,3.302c9.197,0.116 16.759,-7.258 16.875,-16.455c0.116,-9.198 -7.258,-16.76 -16.455,-16.876c-85.672,-1.079 -154.302,-2.184 -196.933,-3.293c-9.195,-0.24 -16.855,7.032 -17.095,16.227c-0.239,9.196 7.032,16.856 16.228,17.095Z" style="fill:#7e4021;"/><path d="M800.918,2532.88c392.185,3.982 956.273,7.409 1193.09,9.104c9.198,0.066 16.72,-7.348 16.785,-16.547c0.066,-9.198 -7.348,-16.719 -16.547,-16.785c-236.797,-1.695 -800.839,-5.122 -1192.99,-9.104c-9.198,-0.093 -16.742,7.298 -16.835,16.497c-0.093,9.198 7.298,16.741 16.497,16.835Z" style="fill:#7e4021;"/><path d="M2273.79,2539.77c260.461,-7.503 727.785,-28.099 893.222,-59.913c9.033,-1.738 14.957,-10.482 13.22,-19.515c-1.737,-9.033 -10.481,-14.956 -19.515,-13.219c-164.446,31.624 -628.986,51.869 -887.887,59.327c-9.195,0.265 -16.445,7.945 -16.18,17.14c0.265,9.194 7.945,16.444 17.14,16.18Z" style="fill:#7e4021;"/><path d="M456.664,2172.65c111.477,2.901 393.242,0.928 693.379,-2.513c9.198,-0.106 16.58,-7.659 16.474,-16.857c-0.105,-9.198 -7.658,-16.58 -16.856,-16.474c-299.596,3.435 -580.854,5.418 -692.13,2.522c-9.196,-0.24 -16.855,7.032 -17.095,16.227c-0.239,9.196 7.032,16.855 16.228,17.095Z" style="fill:#7e4021;"/><path d="M1337.12,2167.84c368.933,-4.776 718.281,-10.684 768.495,-11.432c92.639,-1.379 841.687,12.735 1061.39,-29.515c9.033,-1.737 14.957,-10.481 13.22,-19.514c-1.737,-9.033 -10.481,-14.957 -19.515,-13.22c-218.5,42.02 -963.459,27.547 -1055.59,28.919c-50.21,0.748 -399.529,6.656 -768.431,11.432c-9.198,0.119 -16.569,7.683 -16.449,16.881c0.119,9.197 7.683,16.568 16.881,16.449Z" style="fill:#7e4021;"/><path d="M427.044,2428.89c133.596,3.478 527.076,9.109 899.375,13.869c9.198,0.118 16.761,-7.254 16.879,-16.452c0.117,-9.198 -7.255,-16.761 -16.453,-16.878c-372.117,-4.758 -765.403,-10.385 -898.934,-13.861c-9.195,-0.239 -16.855,7.032 -17.094,16.228c-0.24,9.195 7.032,16.855 16.227,17.094Z" style="fill:#7e4021;"/><path d="M1644.75,2446.69c245.283,2.913 434.539,4.877 457.545,4.711c29.958,-0.217 128.568,-2.443 255.692,-6.792c9.193,-0.314 16.402,-8.033 16.087,-17.226c-0.314,-9.193 -8.033,-16.402 -17.226,-16.087c-126.678,4.332 -224.941,6.557 -254.794,6.772c-22.973,0.166 -211.966,-1.8 -456.908,-4.709c-9.198,-0.109 -16.754,7.27 -16.863,16.468c-0.109,9.198 7.269,16.754 16.467,16.863Z" style="fill:#7e4021;"/><path d="M2595.35,2435.11c131.788,-6.11 268.143,-13.983 379.898,-23.692c9.164,-0.796 15.958,-8.883 15.161,-18.047c-0.796,-9.164 -8.882,-15.957 -18.046,-15.161c-111.36,9.674 -247.234,17.514 -378.557,23.603c-9.188,0.426 -16.303,8.232 -15.877,17.42c0.426,9.189 8.232,16.303 17.421,15.877Z" style="fill:#7e4021;"/><path d="M517.463,2070.18c156.761,4.08 636.694,0.392 1030.07,-4.552c9.198,-0.116 16.572,-7.677 16.456,-16.875c-0.116,-9.198 -7.677,-16.571 -16.875,-16.456c-392.885,4.938 -872.218,8.636 -1028.78,4.561c-9.196,-0.239 -16.856,7.032 -17.095,16.227c-0.24,9.196 7.032,16.856 16.227,17.095Z" style="fill:#7e4021;"/><path d="M1958.07,2059.39c82.049,-1.573 137.808,-3.012 153.653,-4.074c53.027,-3.554 326.719,3.974 591.013,2.909c9.198,-0.037 16.636,-7.535 16.599,-16.733c-0.037,-9.199 -7.535,-16.637 -16.733,-16.6c-265.23,1.068 -539.894,-6.401 -593.109,-2.834c-15.68,1.051 -70.862,2.448 -152.062,4.005c-9.197,0.176 -16.52,7.786 -16.344,16.983c0.176,9.197 7.786,16.52 16.983,16.344Z" style="fill:#7e4021;"/><path d="M430.233,2339.01c217.867,5.671 1113.41,14.26 1501.55,15.999c9.198,0.041 16.699,-7.394 16.741,-16.592c0.041,-9.199 -7.394,-16.7 -16.592,-16.741c-387.948,-1.738 -1283.06,-10.32 -1500.83,-15.988c-9.196,-0.239 -16.856,7.032 -17.095,16.227c-0.239,9.196 7.032,16.856 16.227,17.095Z" style="fill:#7e4021;"/><path d="M2248.54,2350.84c249.684,-7.65 740.235,-25.778 912.166,-58.842c9.033,-1.737 14.957,-10.481 13.22,-19.514c-1.737,-9.033 -10.481,-14.957 -19.515,-13.22c-170.934,32.872 -658.656,50.652 -906.891,58.258c-9.195,0.282 -16.431,7.975 -16.149,17.17c0.282,9.194 7.975,16.43 17.169,16.148Z" style="fill:#7e4021;"/><path d="M551.341,1990.8c81.074,2.111 244.044,-0.941 435.183,-6.191c9.195,-0.253 16.455,-7.923 16.202,-17.118c-0.252,-9.195 -7.923,-16.455 -17.118,-16.203c-190.355,5.229 -352.658,8.292 -433.4,6.19c-9.195,-0.239 -16.855,7.032 -17.094,16.228c-0.24,9.195 7.032,16.855 16.227,17.094Z" style="fill:#7e4021;"/><path d="M1152.37,1979.76c417.943,-12.869 891.811,-31.533 947.653,-29.573c33.877,1.189 172.688,5.286 327.962,7.212c9.198,0.114 16.758,-7.261 16.872,-16.459c0.114,-9.198 -7.261,-16.758 -16.458,-16.872c-154.917,-1.922 -293.408,-6.008 -327.207,-7.194c-55.971,-1.964 -530.937,16.67 -949.848,29.569c-9.195,0.283 -16.429,7.977 -16.146,17.171c0.283,9.194 7.977,16.429 17.172,16.146Z" style="fill:#7e4021;"/><path d="M2667.05,1958.62c213.792,-0.682 429.793,-7.001 530.486,-26.365c9.033,-1.737 14.956,-10.481 13.219,-19.514c-1.737,-9.033 -10.481,-14.956 -19.514,-13.219c-99.516,19.137 -313.005,25.091 -524.297,25.764c-9.198,0.03 -16.643,7.522 -16.613,16.72c0.029,9.199 7.521,16.643 16.719,16.614Z" style="fill:#7e4021;"/><path d="M2089.03,1976.17c-8.877,112.295 -2.717,224.536 -0.165,322.794c0.239,9.196 7.898,16.467 17.094,16.228c9.195,-0.239 16.467,-7.898 16.228,-17.093c-2.525,-97.195 -8.708,-208.223 0.073,-319.303c0.724,-9.169 -6.132,-17.203 -15.302,-17.928c-9.17,-0.725 -17.203,6.132 -17.928,15.302Z" style="fill:#7e4021;"/><path d="M2090.68,2482.39c-0.091,18.038 -0.191,36.076 -0.191,54.115c-0,58.246 0.602,116.487 1.841,174.721c0.196,9.196 7.821,16.504 17.017,16.308c9.197,-0.196 16.504,-7.821 16.309,-17.017c-1.234,-57.998 -1.834,-116.003 -1.834,-174.012c-0,-17.982 0.1,-35.965 0.191,-53.947c0.046,-9.198 -7.384,-16.704 -16.582,-16.75c-9.199,-0.047 -16.705,7.383 -16.751,16.582Z" style="fill:#7e4021;"/><path d="M440.42,2136.03c-0.996,2.494 -3.15,7.915 -3.388,8.637c-14.96,45.352 -27.208,91.886 -36.084,138.799c-20.472,108.212 -2.433,221.584 32.866,324.767c2.977,8.704 12.461,13.352 21.164,10.375c8.704,-2.978 13.352,-12.461 10.375,-21.164c-33.459,-97.803 -51.057,-205.212 -31.652,-307.781c8.58,-45.352 20.417,-90.336 34.864,-134.179c0.688,-1.669 4.775,-11.726 5.33,-15.905c1.104,-8.322 -2.585,-13.822 -5.775,-16.649c-6.884,-6.101 -17.426,-5.465 -23.527,1.42c-2.961,3.341 -4.335,7.543 -4.173,11.68Z" style="fill:#7e4021;"/><path d="M488.377,2051.72c-4.037,3.313 -6.457,8.471 -6.055,14.072c0.658,9.175 8.642,16.089 17.817,15.431c2.349,-0.169 7.213,-0.978 11.937,-5.89c4.731,-4.92 19.22,-28.879 21.951,-32.78c5.275,-7.536 3.439,-17.936 -4.097,-23.212c-7.535,-5.275 -17.936,-3.439 -23.211,4.097c-2.176,3.108 -16.033,24.683 -18.342,28.282Z" style="fill:#7e4021;"/><path d="M3105.25,1732.5c-0.696,-0.759 -76.173,42.516 -116.121,60.603c-121.769,55.134 -325.467,155.652 -344.246,158.466c-95.335,14.284 -852.239,-62.622 -1193.76,-79.122c-168.654,-8.149 -958.746,-66.543 -951.33,-69.995c87.368,-40.672 507.4,-218.169 599.96,-217.296c141.677,1.337 284.554,18.14 425.947,26.65c216.256,13.015 432.999,18.582 649.444,27.734c279.181,11.804 924.459,25.981 930.102,92.96Z" style="fill:#ee909d;"/><path d="M3110.81,1748.21c0.38,-0.133 0.756,-0.281 1.129,-0.445c6.531,-2.861 10.518,-9.56 9.919,-16.664c-0.666,-7.91 -4.826,-16.108 -14.128,-23.29c-12.211,-9.428 -36.755,-18.435 -71.051,-25.855c-177.598,-38.427 -636.744,-49.593 -860.826,-59.068c-216.346,-9.148 -432.989,-14.709 -649.147,-27.719c-141.672,-8.526 -284.833,-25.34 -426.79,-26.679c-28.74,-0.271 -88.103,15.593 -159.402,39.744c-161.35,54.653 -386.361,150.53 -447.749,179.108c-9.642,4.488 -10.224,12.127 -9.544,17.326c0.43,3.293 1.751,8.823 8.661,12.562c0.795,0.43 2.787,1.435 6.21,2.046c2.782,0.496 9.761,1.312 20.377,2.343c124.214,12.061 779.935,60.135 931.855,67.475c342.446,16.545 1101.43,93.28 1197.03,78.958c4.248,-0.637 17.008,-5.317 35.575,-13.5c65.689,-28.951 215.613,-102.137 313.075,-146.266c36.154,-16.369 101.259,-53.231 114.425,-59.889l0.381,-0.187Zm-33.715,-19.715c-25.29,13.813 -68.078,37.309 -94.84,49.426c-97.368,44.085 -247.143,117.205 -312.77,146.129c-14.264,6.287 -23.806,10.547 -27.07,11.036c-95.077,14.245 -849.895,-62.831 -1190.48,-79.286c-138.857,-6.709 -699.331,-47.507 -888.127,-63.593c93.993,-40.769 260.529,-109.426 387.403,-152.401c66.48,-22.519 121.596,-38.237 148.393,-37.984c141.397,1.334 283.989,18.128 425.103,26.62c216.355,13.022 433.196,18.593 649.741,27.75c222.607,9.412 678.756,20.17 855.185,58.343c19.887,4.303 36.008,8.877 47.465,13.96Zm24.794,20.326c0.302,0.061 0.611,0.114 0.927,0.161l0.01,-0.001l-0.937,-0.16Zm-8.283,-4.402c1.858,1.849 4.414,3.589 8.078,4.357c-2.991,-0.652 -5.804,-2.129 -8.078,-4.357Z" style="fill:#7e4021;"/><path d="M3101.56,1225.65c-0.187,-0.156 7.125,3.986 10.81,8.15c5.686,6.426 9.16,14.821 12.075,22.769c8.599,23.443 9.486,48.923 9.542,73.646c0.235,102.972 -1.529,206.061 -12.296,308.517c-2.777,26.428 -5.548,52.966 -10.558,79.088c-0.152,0.794 -1.208,8.609 -2.427,8.492c-8.168,-0.778 -20.496,-12.911 -27.051,-17.148c-6.677,-4.318 -23.307,-8.477 -28.133,-14.166c-5.919,-6.975 2.74,-76.074 3.475,-86.269c5.772,-80.029 11.275,-160.085 17.084,-240.118c1.621,-22.338 -4.014,-100.771 -6.755,-110.446c-0.537,-1.896 5.72,-17.036 34.234,-32.515Z" style="fill:#f8a5b0;"/><path d="M3091.09,1212.39c-26.47,14.979 -35.823,30.255 -38.526,36.704c-2.839,6.774 -1.826,11.687 -1.281,13.61c2.598,9.17 7.703,83.524 6.167,104.697c-5.809,80.035 -11.313,160.093 -17.084,240.125c-0.602,8.351 -6.298,55.305 -5.49,77.406c0.395,10.776 3.566,18.06 5.929,20.845c2.608,3.074 6.884,6.248 12.261,8.908c6.395,3.164 15.24,5.696 19.532,8.471c4.698,3.037 12.32,10.001 19.323,14.2c5.373,3.222 10.705,5.116 15.197,5.544c4.638,0.442 9.889,-0.657 14.374,-5.681c1.226,-1.373 2.847,-3.719 3.959,-6.997c1.015,-2.991 1.898,-8.513 2.042,-9.267c5.099,-26.584 7.939,-53.589 10.765,-80.486c10.829,-103.047 12.624,-206.729 12.388,-310.296c-0.061,-26.649 -1.292,-54.078 -10.561,-79.347c-3.614,-9.852 -8.194,-20.11 -15.242,-28.075c-4.729,-5.344 -13.557,-10.781 -15.099,-11.629c-3.364,-1.852 -5.668,-1.957 -5.972,-1.998c-5.985,-0.806 -9.996,0.967 -12.682,3.266Zm9.581,33.389c3.831,4.767 6.041,10.859 8.119,16.526c7.929,21.616 8.471,45.147 8.523,67.944c0.233,102.378 -1.501,204.872 -12.205,306.737c-2.213,21.054 -4.408,42.18 -7.785,63.104c-2.509,-1.973 -4.786,-3.736 -6.627,-4.927c-3.975,-2.57 -10.833,-5.269 -17.496,-7.996c-1.31,-0.537 -2.986,-1.329 -4.437,-2.046c0.867,-13.645 4.301,-67.589 4.85,-75.197c5.771,-80.027 11.274,-160.08 17.083,-240.11c1.495,-20.609 -3.059,-86.581 -6.149,-109.385c2.274,-2.749 7.698,-8.715 16.124,-14.65Zm15.473,-28.18l0.045,0.085l-0.002,-0.01l-0.043,-0.075Zm-0.131,-0.231c-0.971,-1.705 -2.251,-3.245 -3.802,-4.534c2.204,1.833 3.253,3.537 3.802,4.534Z" style="fill:#7e4021;"/><path d="M592.507,1298.65c1.244,-1.282 5.812,8.211 6.248,9.377c9.212,24.647 13.02,51.677 15.656,77.725c1.55,15.32 1.362,30.91 -0.638,46.174c-3.46,26.405 -43.545,321.499 -38.598,329.038c5.519,8.409 343.604,24.999 496.188,27.114c206.749,2.865 1520.75,113.006 1557.78,108.376c71.233,-8.904 217.657,-99.252 285.974,-132.939c7.146,-3.523 137.359,-68.674 138.282,-73.287c5.216,-26.079 -1.464,-60.325 0.638,-87.483c8.23,-106.36 15.966,-211.683 12.52,-318.511c-0.184,-5.711 2.406,-26.897 -3.11,-30.942c-6.056,-4.441 -32.514,4.628 -39.395,5.343c-49.239,5.119 -99.545,2.972 -148.968,3.748c-190.069,2.986 -380.113,6.506 -570.194,9.171c-328.58,4.608 -656.93,9.134 -985.517,12.202c-206.317,1.926 -520.912,32.584 -726.87,14.894Z" style="fill:#ffe6d8;"/><path d="M596.555,1282.26c205.524,17.18 517.662,-13.254 722.666,-15.168c328.562,-3.068 656.886,-7.594 985.44,-12.201c190.071,-2.665 380.106,-6.185 570.165,-9.17c48.938,-0.769 98.751,1.407 147.506,-3.661c4.787,-0.498 19.102,-5.082 29.328,-6.262c9.786,-1.13 17.615,1.099 21.647,4.056c4.316,3.165 8.435,9.551 9.712,18.466c1.231,8.594 0.061,21.071 0.2,25.379c3.466,107.439 -4.284,213.366 -12.561,320.334c-2.15,27.774 4.422,62.794 -0.912,89.465c-0.332,1.658 -2.557,8.285 -11.273,13.854c-22.096,14.119 -129.472,67.904 -135.981,71.114c-69.504,34.271 -218.807,125.469 -291.278,134.528c-37.089,4.636 -1353.03,-105.38 -1560.08,-108.249c-137.947,-1.912 -426.826,-15.667 -487.265,-24.544c-7.788,-1.144 -12.873,-2.614 -15.042,-3.631c-4.168,-1.955 -6.348,-4.577 -7.584,-6.46c-0.915,-1.394 -2.156,-3.682 -2.743,-7.162c-0.353,-2.087 -0.54,-6.625 -0.18,-13.222c2.93,-53.748 35.803,-296.105 38.929,-319.963c1.834,-13.993 2.003,-28.287 0.582,-42.331c-2.481,-24.511 -5.932,-49.965 -14.545,-73.183l-1.519,-2.865c-2.152,-1.804 -3.848,-4.162 -4.87,-6.899c-2.252,-6.028 -0.833,-12.815 3.647,-17.435c4.411,-4.549 9.734,-6.405 16.013,-4.79Zm2453.27,-11.787c-0.004,5.55 0.01,12.171 0.079,14.3c3.426,106.217 -4.296,210.937 -12.479,316.688c-1.892,24.451 3.718,54.781 0.621,79.335c-26.102,15.753 -124.157,64.747 -130.295,67.773c-67.13,33.101 -210.675,122.6 -280.67,131.349c-36.982,4.623 -1349.04,-105.643 -1555.49,-108.503c-121.723,-1.687 -361.834,-12.604 -455.826,-21.201c-8.815,-0.806 -17.432,-1.888 -23.752,-2.756c0.343,-5.479 0.849,-12.488 1.529,-19.452c7.825,-80.1 33.99,-272.827 36.753,-293.913c2.166,-16.534 2.374,-33.422 0.695,-50.017c-2.247,-22.201 -5.385,-45.062 -11.64,-66.731c206.041,12.965 502.636,-15.077 700.179,-16.922c328.614,-3.067 656.99,-7.594 985.596,-12.202c190.09,-2.665 380.143,-6.186 570.221,-9.171c49.909,-0.784 100.708,1.334 150.43,-3.836c3.383,-0.351 15.712,-2.939 24.045,-4.741Z" style="fill:#7e4021;"/><path d="M625.808,1415.54c2.1,0.07 9.992,0.356 19.121,0.873c128.231,7.261 781.341,55.179 873.564,62.034c9.173,0.682 17.174,-6.212 17.856,-15.386c0.682,-9.173 -6.212,-17.174 -15.386,-17.856c-92.284,-6.859 -745.833,-54.807 -874.15,-62.072c-14.713,-0.833 -23.412,-0.945 -24.835,-0.751c-9.846,1.34 -12.519,8.215 -13.353,10.25c-2.01,4.906 -2.011,10.109 1.461,15.437c3.533,5.423 9.696,8.109 15.722,7.471Zm14.516,-13.001c-0.801,3.662 -2.83,7.056 -5.945,9.508c3.805,-2.894 5.297,-6.449 5.945,-9.508Zm0.128,-0.657l-0.039,0.211l0.026,-0.128l0.013,-0.083Zm0.145,-0.962l-0.066,0.485l0.027,-0.167l0.039,-0.318Zm0.016,-0.125c0.422,-3.515 -0.183,-7.215 -2.6,-10.923c2.19,3.361 3.011,7.221 2.6,10.923Z" style="fill:#7e4021;"/><path d="M1610.45,1484.29c53.777,5.668 200.149,15.47 224.132,16.31c9.193,0.323 16.918,-6.879 17.24,-16.072c0.322,-9.193 -6.88,-16.918 -16.073,-17.24c-23.734,-0.832 -168.587,-10.539 -221.805,-16.148c-9.148,-0.964 -17.358,5.68 -18.322,14.828c-0.964,9.148 5.68,17.358 14.828,18.322Z" style="fill:#7e4021;"/><path d="M701.197,1543.85c53.777,5.667 200.149,15.47 224.132,16.31c9.193,0.323 16.918,-6.879 17.24,-16.072c0.322,-9.193 -6.88,-16.918 -16.073,-17.241c-23.734,-0.831 -168.587,-10.538 -221.805,-16.147c-9.148,-0.964 -17.358,5.68 -18.322,14.828c-0.964,9.148 5.68,17.358 14.828,18.322Z" style="fill:#7e4021;"/><path d="M992.629,1565.17c18.783,1.98 48.85,4.466 81.06,6.897c9.172,0.692 17.181,-6.193 17.873,-15.365c0.693,-9.173 -6.192,-17.182 -15.365,-17.874c-31.818,-2.401 -61.52,-4.852 -80.074,-6.808c-9.148,-0.964 -17.358,5.68 -18.322,14.828c-0.964,9.148 5.68,17.358 14.828,18.322Z" style="fill:#7e4021;"/><path d="M1317.58,1678.68c18.782,1.98 48.85,4.466 81.059,6.897c9.173,0.692 17.182,-6.193 17.874,-15.365c0.692,-9.173 -6.193,-17.182 -15.365,-17.874c-31.818,-2.401 -61.52,-4.852 -80.074,-6.808c-9.148,-0.964 -17.358,5.68 -18.322,14.828c-0.964,9.148 5.68,17.358 14.828,18.322Z" style="fill:#7e4021;"/><path d="M594.482,1658.83c53.777,5.668 200.149,15.471 224.132,16.311c9.193,0.322 16.918,-6.88 17.24,-16.073c0.322,-9.193 -6.879,-16.918 -16.072,-17.24c-23.735,-0.831 -168.587,-10.538 -221.806,-16.147c-9.148,-0.964 -17.358,5.68 -18.322,14.828c-0.964,9.148 5.68,17.357 14.828,18.321Z" style="fill:#7e4021;"/><path d="M1857.97,1603.74c2.048,0.552 6.112,1.642 6.537,1.733c22.55,4.834 45.487,6.135 68.411,8.125c209.23,18.162 419.639,28.465 628.302,52.679c9.137,1.06 17.417,-5.497 18.477,-14.634c1.06,-9.138 -5.497,-17.417 -14.635,-18.477c-208.982,-24.252 -419.711,-34.587 -629.261,-52.777c-21.414,-1.859 -42.855,-2.952 -63.927,-7.431c-1.369,-0.394 -7.564,-2.145 -10.501,-2.551c-2.861,-0.396 -5.239,-0.228 -6.807,0.056c-6.693,1.213 -10.219,5.165 -12.14,8.732c-4.361,8.1 -1.325,18.216 6.774,22.576c2.79,1.503 5.82,2.127 8.77,1.969Zm12.753,-7.046c-0.897,1.277 -1.949,2.395 -3.118,3.343c1.268,-1.002 2.293,-2.138 3.118,-3.343Zm0.531,-0.802l-0.254,0.397l0.155,-0.227l0.099,-0.17Z" style="fill:#7e4021;"/><path d="M2640.62,1622.89c-2.716,1.561 -5.019,3.906 -6.536,6.908c-4.148,8.21 -0.85,18.243 7.36,22.392c0.006,0.003 0.012,0.006 0.019,0.009c2.289,1.157 7.201,3.239 13.815,0.567c0.911,-0.367 4.844,-2.853 4.844,-2.853c-0,-0 -0.516,0.366 -0.568,0.401c58.206,-39.318 126.086,-69.267 188.494,-101.121c8.193,-4.182 11.449,-14.229 7.268,-22.422c-4.182,-8.193 -14.229,-11.45 -22.422,-7.268c-63.594,32.459 -132.686,63.124 -191.999,103.19l-0.275,0.197Z" style="fill:#7e4021;"/><path d="M2889.28,1488.38c-1.898,0.592 -3.72,1.542 -5.368,2.854c-12.328,9.815 -4.845,21.352 -3.919,22.739c1.825,2.731 7.418,9.95 18.562,6.759c1.138,-0.326 8.39,-4.133 11.238,-5.525c6.849,-3.348 13.588,-6.909 20.491,-10.151c15.981,-7.504 32.108,-14.714 48.268,-21.824c8.419,-3.705 12.247,-13.548 8.543,-21.968c-3.705,-8.419 -13.548,-12.247 -21.968,-8.543c-16.409,7.22 -32.785,14.543 -49.012,22.164c-7.061,3.315 -13.955,6.951 -20.961,10.375c-1.179,0.577 -3.971,2.082 -5.874,3.12Z" style="fill:#7e4021;"/><path d="M2778.3,1675.16c-4.796,2.446 -8.322,7.167 -8.995,12.912c-1.392,11.882 10.422,16.846 18.826,17.416c8.405,0.571 23.27,-9.859 31.6,-13.991c19.223,-9.536 38.371,-19.17 57.864,-28.153c58.09,-26.769 116.479,-57.507 176.408,-79.98c8.613,-3.23 12.983,-12.845 9.754,-21.458c-3.23,-8.613 -12.845,-12.983 -21.458,-9.753c-60.682,22.756 -119.835,53.812 -178.654,80.917c-19.783,9.116 -39.218,18.888 -58.727,28.565c-8.884,4.408 -18.025,8.548 -26.618,13.525Z" style="fill:#7e4021;"/><path d="M2640.68,1501.56c-12.711,96.463 -29.162,265.722 -29.402,331.822c-0.033,9.199 7.408,16.694 16.607,16.727c9.198,0.034 16.693,-7.407 16.727,-16.606c0.236,-65.259 16.566,-232.354 29.115,-327.588c1.202,-9.12 -5.227,-17.5 -14.346,-18.702c-9.12,-1.201 -17.5,5.227 -18.701,14.347Z" style="fill:#7e4021;"/><path d="M2614.25,1905.76c0.133,1.127 0.3,2.206 0.469,2.787c1.063,3.663 2.164,7.311 3.272,10.96c2.938,9.675 5.825,19.356 8.882,28.995c2.78,8.769 12.156,13.63 20.924,10.85c8.769,-2.78 13.63,-12.156 10.85,-20.925c-3.015,-9.509 -5.863,-19.061 -8.761,-28.606c-1.068,-3.518 -2.13,-7.036 -3.156,-10.568c0.168,0.577 0.447,2.26 0.447,2.26c-0,0 -2.894,-11.301 -4.29,-12.951c-3.208,-3.795 -7.155,-5.56 -11.432,-5.935c-3.404,-0.299 -8.19,-0.036 -13.138,4.557c-5.242,4.866 -6.645,12.328 -4.067,18.576Zm13.603,10.2c3.777,0.71 8.318,0.132 13.141,-4.346c-3.683,3.42 -8.505,4.854 -13.141,4.346Z" style="fill:#7e4021;"/><path d="M3114.58,1240.3c-0.695,-0.759 -34.589,2.707 -74.537,20.794c-121.77,55.134 -311.941,179.521 -330.72,182.334c-95.336,14.284 -852.24,-62.622 -1193.76,-79.122c-168.653,-8.148 -958.746,-66.543 -951.329,-69.995c87.367,-40.671 507.4,-218.169 599.96,-217.296c141.677,1.337 284.554,18.14 425.947,26.65c216.256,13.016 432.998,18.582 649.444,27.734c279.18,11.805 869.35,41.923 874.992,108.901Z" style="fill:#f8bcc4;"/><path d="M3113.48,1256.92c2.61,0.179 5.28,-0.26 7.788,-1.359c6.531,-2.862 10.518,-9.56 9.92,-16.665c-0.65,-7.714 -4.497,-15.668 -12.854,-22.881c-11.354,-9.798 -34.061,-19.473 -65.922,-27.762c-163.614,-42.565 -587.806,-64.026 -812.12,-73.511c-216.347,-9.148 -432.99,-14.709 -649.147,-27.718c-141.673,-8.527 -284.834,-25.34 -426.791,-26.68c-28.739,-0.271 -88.102,15.594 -159.402,39.744c-161.35,54.653 -386.36,150.531 -447.749,179.108c-9.641,4.488 -10.223,12.127 -9.544,17.326c0.431,3.293 1.752,8.823 8.661,12.562c0.795,0.43 2.788,1.435 6.211,2.046c2.782,0.497 9.76,1.312 20.377,2.343c124.213,12.061 779.934,60.135 931.854,67.475c342.446,16.545 1101.43,93.281 1197.03,78.958c4.432,-0.664 17.284,-6.375 35.629,-16.713c61.931,-34.899 202.495,-123.002 299.496,-166.921c30.846,-13.966 62.781,-18.815 66.563,-19.352Zm-37.444,-26.441c-12.541,3.418 -27.288,8.373 -42.868,15.427c-97.83,44.295 -239.651,133.05 -302.111,168.247c-11.48,6.469 -23.318,12.112 -24.964,12.89c-98.238,13.742 -850.02,-62.977 -1189.72,-79.389c-138.857,-6.709 -699.332,-47.507 -888.127,-63.593c93.992,-40.769 260.528,-109.426 387.402,-152.401c66.48,-22.519 121.597,-38.237 148.394,-37.984c141.396,1.334 283.989,18.128 425.102,26.621c216.356,13.021 433.197,18.593 649.742,27.749c222.374,9.403 642.936,30.27 805.135,72.467c12.355,3.214 23.114,6.512 32.017,9.966Z" style="fill:#7e4021;"/><path d="M2701.04,1403.2c28.354,-13.535 54.679,-34.904 83.144,-49.317c8.206,-4.155 11.496,-14.191 7.34,-22.398c-4.155,-8.206 -14.191,-11.496 -22.398,-7.34c-28.236,14.297 -54.319,35.547 -82.446,48.973c-8.301,3.963 -11.823,13.919 -7.861,22.221c3.963,8.301 13.92,11.823 22.221,7.861Z" style="fill:#7e4021;"/><path d="M2835.48,1328.12c1.249,-0.674 6.105,-3.264 9.34,-4.605c6.196,-2.569 12.324,-4.759 15.278,-6.168c8.303,-3.959 11.829,-13.915 7.869,-22.218c-3.96,-8.302 -13.915,-11.828 -22.218,-7.869c-4.517,2.155 -16.59,6.162 -24.678,10.62c-6.806,3.752 -11.51,8.452 -13.631,12.379c-4.37,8.094 -1.347,18.213 6.747,22.584c7.378,3.984 16.44,1.824 21.293,-4.723Z" style="fill:#7e4021;"/><ellipse cx="1902.89" cy="249.482" rx="685.953" ry="232.781" style="fill:#a8ccf1;"/><path d="M1902.89,0.034c-214.105,0 -405.664,33.189 -533.043,84.966c-64.432,26.19 -112.774,57.436 -140.569,91.196c-19.159,23.269 -29.007,47.954 -29.007,73.286c-0,25.332 9.848,50.017 29.007,73.286c27.795,33.76 76.137,65.006 140.569,91.196c127.379,51.777 318.938,84.966 533.043,84.966c214.105,-0 405.665,-33.189 533.044,-84.966c64.432,-26.19 112.773,-57.436 140.569,-91.196c19.158,-23.269 29.007,-47.954 29.007,-73.286c-0,-25.332 -9.849,-50.017 -29.007,-73.286c-27.796,-33.76 -76.137,-65.006 -140.569,-91.196c-127.379,-51.777 -318.939,-84.966 -533.044,-84.966Zm0,33.334c172.405,-0 329.893,21.775 449.662,57.769c81.873,24.605 145.869,55.582 183.925,91.138c22.59,21.106 35.699,43.466 35.699,67.207c0,23.741 -13.108,46.101 -35.699,67.207c-38.056,35.556 -102.052,66.533 -183.925,91.138c-119.769,35.994 -277.257,57.769 -449.662,57.769c-172.405,0 -329.893,-21.775 -449.661,-57.769c-81.874,-24.605 -145.869,-55.582 -183.926,-91.138c-22.59,-21.106 -35.699,-43.466 -35.699,-67.207c0,-23.741 13.109,-46.101 35.699,-67.207c38.056,-35.556 102.052,-66.533 183.926,-91.138c119.768,-35.994 277.256,-57.769 449.661,-57.769Z" style="fill:#7e4021;"/><ellipse cx="1904.67" cy="396.073" rx="534.601" ry="181.419" style="fill:#9d5e3e;"/><path d="M1904.67,197.988c-167.423,-0 -317.208,26.001 -416.815,66.489c-50.908,20.693 -89.045,45.469 -111.007,72.143c-15.534,18.868 -23.445,38.913 -23.445,59.453c-0,20.541 7.911,40.586 23.445,59.454c21.962,26.674 60.099,51.45 111.007,72.143c99.607,40.488 249.392,66.489 416.815,66.489c167.423,0 317.209,-26.001 416.815,-66.489c50.908,-20.693 89.046,-45.469 111.008,-72.143c15.534,-18.868 23.445,-38.913 23.445,-59.454c-0,-20.54 -7.911,-40.585 -23.445,-59.453c-21.962,-26.674 -60.1,-51.45 -111.008,-72.143c-99.606,-40.488 -249.392,-66.489 -416.815,-66.489Zm0,33.333c133.958,-0 256.328,16.9 349.388,44.867c63.142,18.976 112.541,42.773 141.891,70.194c16.739,15.64 26.655,32.1 26.655,49.691c0,17.592 -9.916,34.052 -26.655,49.691c-29.349,27.422 -78.749,51.219 -141.891,70.194c-93.06,27.967 -215.43,44.868 -349.388,44.868c-133.958,-0 -256.328,-16.901 -349.387,-44.868c-63.142,-18.975 -112.542,-42.772 -141.891,-70.193c-16.739,-15.64 -26.656,-32.1 -26.656,-49.692c0,-17.591 9.917,-34.051 26.656,-49.691c29.349,-27.421 78.749,-51.218 141.891,-70.194c93.059,-27.967 215.429,-44.867 349.387,-44.867Z" style="fill:#7e4021;"/><path d="M1902.89,1291.55c592.872,-0.957 784.169,-582.107 685.953,-1042.07c3.984,128.413 -307.365,232.781 -685.953,232.781c-378.587,-0 -685.953,-104.306 -685.953,-232.781c-115.656,548.091 140.555,1042.95 685.953,1042.07Z" style="fill:#e0f0ff;"/><path d="M1902.92,1308.22c299.017,-0.483 498.21,-145.227 611.516,-348.088c115.953,-207.599 141.402,-476.726 90.709,-714.129c-1.801,-8.437 -9.742,-14.104 -18.306,-13.066c-8.563,1.039 -14.919,8.441 -14.652,17.063c0.737,23.734 -12.106,46.065 -34.634,67.151c-37.879,35.455 -102.123,66.327 -184.311,90.859c-120.209,35.88 -278.265,57.587 -450.349,57.587c-172.405,0 -329.893,-21.775 -449.661,-57.769c-81.874,-24.605 -145.869,-55.582 -183.926,-91.138c-22.59,-21.106 -35.699,-43.466 -35.699,-67.207c0,-8.535 -6.448,-15.691 -14.937,-16.577c-8.488,-0.886 -16.275,4.785 -18.037,13.136c-56.672,268.562 -25.077,524.501 84.492,717.547c118.648,209.044 328.405,345.098 617.795,344.631l0,-0Zm-0.054,-33.333c-275.65,0.444 -475.737,-128.633 -588.752,-327.752c-97.756,-172.234 -130.612,-396.309 -92.115,-633.912c2.255,3.207 4.683,6.39 7.282,9.546c27.795,33.76 76.137,65.006 140.569,91.196c127.379,51.777 318.938,84.966 533.043,84.966c213.611,-0 406.033,-33.056 533.812,-84.636c64.842,-26.175 113.375,-57.438 140.91,-91.195c2.219,-2.721 4.308,-5.46 6.267,-8.218c32.727,213.577 3.652,446.019 -98.548,628.996c-107.88,193.146 -297.769,330.549 -582.468,331.009l0,-0Z" style="fill:#7e4021;"/><path d="M2395.74,911.557c-5.916,12.365 -12.368,24.499 -19.504,36.205c-20.454,33.555 -43.514,64.533 -71.654,92.019c-6.58,6.427 -6.705,16.988 -0.277,23.569c6.427,6.58 16.988,6.704 23.568,0.277c30.144,-29.443 54.915,-62.572 76.825,-98.515c7.722,-12.667 14.711,-25.791 21.112,-39.171c3.969,-8.298 0.455,-18.258 -7.843,-22.227c-8.298,-3.969 -18.258,-0.455 -22.227,7.843Z" style="fill:#7e4021;"/><path d="M2243.94,1096.27c-16.036,16.622 -51.707,36.554 -69.808,43.599c-8.572,3.337 -12.823,13.005 -9.486,21.578c3.337,8.572 13.005,12.822 21.577,9.486c21.244,-8.269 62.886,-32.011 81.706,-51.519c6.387,-6.62 6.198,-17.179 -0.422,-23.566c-6.62,-6.387 -17.18,-6.197 -23.567,0.422Z" style="fill:#7e4021;"/><path d="M2811.33,329.454c-97.381,-9.862 -228.859,95.583 -177.788,170.894c52.231,77.02 100.216,-42.811 141.901,12.875c10.334,13.804 14.448,32.511 13.944,49.518c-0.439,14.817 -3.428,30.002 -7.731,44.154c-21.075,69.305 -70.453,122.719 -133.224,156.687c-25.159,13.614 -44.09,22.274 -66.974,40.64c-41.399,33.225 -50.109,108.498 0.665,123.241c189.199,54.938 382.677,-176.871 404.137,-353.144c16.55,-135.939 -56.253,-232.847 -174.93,-244.865Z" style="fill:#e0f0ff;"/><path d="M2813,312.872c-63.575,-6.438 -140.69,31.887 -180.06,81.599c-29.04,36.67 -37.795,78.964 -13.201,115.231c13.501,19.908 27.356,28.935 40.396,32.341c19.27,5.032 38.35,-2.522 56.483,-12.736c6.757,-3.806 13.388,-7.866 19.913,-10.935c5.526,-2.599 10.736,-5.028 15.968,-3.359c3.37,1.074 6.357,3.875 9.593,8.198c8.126,10.856 11.023,25.662 10.627,39.036c-0.396,13.359 -3.138,27.041 -7.018,39.799c-19.777,65.037 -66.304,115.002 -125.21,146.878c-26.122,14.135 -45.713,23.231 -69.474,42.3c-29.486,23.664 -44.776,65.389 -39.452,98.689c4.002,25.033 18.716,45.662 45.902,53.556c80.644,23.417 162.186,-1.32 232.266,-52.339c102.331,-74.498 179.706,-205.085 193.062,-314.797c17.858,-146.679 -61.742,-250.494 -189.794,-263.461l-0.001,-0Zm-3.358,33.164c109.303,11.068 175.307,101.067 160.064,226.269c-12.395,101.815 -84.626,222.741 -179.592,291.877c-61.452,44.737 -132.637,67.809 -203.352,47.276c-17.363,-5.042 -23.58,-21.038 -22.892,-38.01c0.824,-20.343 11.04,-42.608 28.011,-56.227c22.008,-17.664 40.278,-25.888 64.474,-38.981c66.636,-36.059 118.864,-92.924 141.237,-166.496c4.728,-15.545 7.964,-32.234 8.445,-48.51c0.611,-20.639 -4.72,-43.246 -17.26,-59.999c-9.782,-13.067 -20.199,-18.982 -30.442,-21.106c-14.042,-2.913 -28.832,1.945 -43.758,10.035c-9.225,5 -18.639,11.183 -28.304,15.137c-6.323,2.587 -12.731,4.363 -19.317,1.993c-6.589,-2.37 -12.833,-8.279 -19.629,-18.3c-16.27,-23.994 -7.468,-51.568 11.745,-75.828c32.996,-41.664 97.287,-74.526 150.57,-69.13l0,-0Z" style="fill:#7e4021;"/></g></svg>