<?xml version="1.0" encoding="UTF-8" standalone="no"?><!DOCTYPE svg PUBLIC "-//W3C//DTD SVG 1.1//EN" "http://www.w3.org/Graphics/SVG/1.1/DTD/svg11.dtd"><svg width="100%" height="100%" viewBox="0 0 3574 2243" version="1.1" xmlns="http://www.w3.org/2000/svg" xmlns:xlink="http://www.w3.org/1999/xlink" xml:space="preserve" xmlns:serif="http://www.serif.com/" style="fill-rule:evenodd;clip-rule:evenodd;stroke-linejoin:round;stroke-miterlimit:2;"><g id="Cappuccino"><path d="M208.226,140.201c-43.711,53.398 -68.749,89.387 -96.799,152.245c-54.921,123.07 -85.417,256.033 -101.15,389.473c-46.032,390.416 75.917,831.693 294.754,1157.12c135.895,202.085 343.992,307.089 572.867,358.651c226.162,50.952 472.58,49.659 687.915,39.835c234.311,-10.689 484.508,-28.317 699.757,-131.108c105.627,-50.441 197.367,-132.371 270.468,-222.798c134.861,-166.824 228.562,-369.127 294.614,-572c47.33,-145.371 71.642,-298.62 69.429,-451.631c-1.7,-117.536 -16.802,-316.679 -73.036,-480.501c-38.609,-112.475 -96.988,-208.135 -181.887,-252.568c-95.137,-49.791 -218.881,-56.585 -322.809,-70.168c-233.365,-30.499 -469.801,-43.378 -705.004,-48.317c-297.655,-6.252 -798.749,-21.955 -1118.49,25.149c-83.642,12.322 -155.054,29.003 -207.64,51.044c-37.385,15.67 -65.586,34.309 -82.994,55.575l-0,0Zm25.793,21.115c14.606,-17.843 38.72,-32.8 70.086,-45.947c50.538,-21.183 119.229,-36.967 199.614,-48.81c318.145,-46.87 816.752,-31.02 1112.93,-24.8c233.994,4.914 469.218,17.701 701.385,48.043c100.269,13.105 219.883,18.61 311.672,66.649c78.197,40.926 130.254,130.261 165.815,233.858c55.02,160.284 69.571,355.162 71.234,470.16c2.16,149.353 -21.596,298.934 -67.795,440.829c-64.809,199.058 -156.515,397.677 -288.84,561.365c-70.03,86.627 -157.721,165.352 -258.91,213.674c-211.253,100.882 -456.951,117.398 -686.912,127.889c-212.562,9.697 -455.821,11.24 -679.07,-39.055c-220.538,-49.684 -421.588,-150.01 -552.533,-344.734c-214.594,-319.116 -334.449,-751.768 -289.31,-1134.62c15.341,-130.11 44.935,-259.793 98.485,-379.792c26.675,-59.775 50.586,-93.935 92.153,-144.714l0,-0Z" style="fill:#7e4021;"/><path d="M2829.03,462.866c-7.203,3.652 -10.752,11.942 -8.423,19.674c20.185,66.99 36.309,189.977 47.239,288.484c0.605,5.452 3.854,10.257 8.688,12.849c4.833,2.593 10.633,2.641 15.509,0.13c61.714,-31.789 149.06,-71.048 228.672,-77.666c49.386,-4.105 95.768,4.374 129.421,37.929c25.4,25.324 33.076,69.804 26.088,122.591c-11.332,85.617 -62.379,192.071 -152.39,282.574c-105.329,105.904 -248.857,173.837 -334.415,204.726c-4.341,1.567 -7.838,4.865 -9.658,9.107c-34.106,79.525 -105.707,243.211 -117.324,275.375c-3.445,9.541 -1.955,15.777 -1.552,16.876c2.77,7.544 8.197,10.352 14.147,10.915c13.664,1.293 55.352,-5.691 113.082,-23.543c128.978,-39.882 342.271,-132.936 497.846,-293.575c200.995,-207.538 295.648,-439.722 286.548,-621.291c-6.261,-124.917 -61.046,-226.503 -163.052,-282.606c-244.391,-134.413 -511.704,-17.384 -580.426,17.451Zm-127.769,1168.11c21.519,-52.737 76.163,-177.843 106.296,-247.957c89.393,-33.13 233.412,-102.998 339.911,-210.078c95.985,-96.509 149.716,-210.407 161.801,-301.706c8.626,-65.163 -4.243,-119.309 -35.597,-150.57c-40.628,-40.509 -96.098,-52.499 -155.718,-47.543c-75.023,6.236 -156.725,39.506 -219.672,70.428c-10.316,-89.299 -24.627,-192.32 -41.9,-256.996c80.279,-38.447 318.321,-132.205 537.01,-11.927c91.857,50.52 140.187,142.577 145.824,255.066c8.748,174.541 -83.986,396.929 -277.201,596.434c-151.122,156.041 -358.461,246.178 -483.749,284.919c-32.262,9.976 -58.769,16.646 -77.005,19.93Z" style="fill:#7e4021;"/><path d="M325.962,300.88c-38.194,44.235 -42.846,49.002 -67.356,101.074c-48.58,103.211 -75.493,214.735 -89.41,326.643c-40.832,328.34 198.917,1218.79 1245.3,1248.1c1114.69,31.224 1343.08,-956.219 1297.91,-1295.3c-21.909,-164.48 -82.553,-359.543 -207.904,-421.74c-83.718,-41.541 -189.601,-38.265 -281.054,-49.597c-208.497,-25.835 -419.739,-36.733 -629.878,-40.917c-379.94,-7.565 -1148.12,-6.646 -1267.61,131.737Z" style="fill:#ffe6d8;"/><path d="M313.347,289.988c-39.616,45.883 -44.398,50.856 -69.82,104.868c-49.334,104.811 -76.738,218.042 -90.87,331.684c-41.403,332.922 200.388,1237.09 1261.37,1266.81c1130.1,31.656 1360.69,-970.392 1314.9,-1314.16c-13.407,-100.649 -41.202,-212.477 -88.774,-299.577c-32.862,-60.17 -75.254,-108.601 -128.243,-134.893c-85.348,-42.35 -193.178,-39.655 -286.413,-51.207c-209.066,-25.905 -420.883,-36.845 -631.595,-41.04c-266.748,-5.312 -724.298,-6.362 -1015.93,41.038c-76.262,12.395 -141.339,28.16 -189.118,47.851c-34.162,14.079 -59.825,30.454 -75.51,48.619l-0,0Zm25.23,21.785c12.992,-15.047 34.685,-27.924 62.981,-39.585c45.908,-18.92 108.489,-33.859 181.764,-45.769c289.901,-47.118 744.747,-45.892 1009.92,-40.613c209.565,4.173 420.232,15.03 628.161,40.794c89.673,11.111 193.607,7.255 275.695,47.986c47.293,23.467 84.475,67.31 113.805,121.011c45.717,83.706 72.102,191.274 84.986,288.001c44.541,334.39 -181.642,1307.23 -1280.92,1276.43c-1031.78,-28.902 -1269.49,-905.62 -1229.23,-1229.38c13.702,-110.173 40.123,-219.989 87.951,-321.601c23.597,-50.133 28.12,-54.692 64.891,-97.279l0,-0Z" style="fill:#7e4021;"/><path d="M325.962,300.88c-38.194,44.235 -42.846,49.002 -67.356,101.074c-11.53,24.496 -64.798,171.749 -72.071,220.806c-6.349,42.828 593.87,178.945 1363.3,173.315c769.292,-5.63 1159.61,-98.454 1156.04,-139.762c-11.381,-131.697 -79.818,-328.327 -201.367,-396.656c-81.467,-45.798 -178.776,-94.814 -270.229,-106.146c-157.152,-19.473 -263.915,-53.15 -422.538,-59.172c-51.826,-1.967 -157.928,27.875 -209.677,26.844c-56.961,-1.134 -99.61,-7.007 -163.097,-23.701c-95.681,-25.159 -218.962,-49.047 -332.67,-55.647c-152.552,-8.855 -336.419,84.125 -481.639,84.047c-139.238,-0.074 -260.335,130.577 -298.689,174.998Z" style="fill:#fff;"/><path d="M313.347,289.988c-39.616,45.883 -44.398,50.856 -69.82,104.868c-11.772,25.009 -66.053,175.376 -73.478,225.46c-0.994,6.698 1.088,15.682 11.233,23.999c9.935,8.144 32.096,18.479 65.605,29.315c175.738,56.823 685.023,143.634 1303.07,139.111c618.575,-4.527 993.321,-65.604 1116.66,-110.927c25.019,-9.194 40.742,-18.533 47.86,-26.198c6.659,-7.169 8.546,-14.436 8.001,-20.738c-7.002,-81.016 -35.071,-185.996 -83.318,-272.152c-32.961,-58.86 -75.403,-108.881 -126.486,-137.598c-83.272,-46.812 -182.869,-96.575 -276.348,-108.157c-157.674,-19.538 -264.804,-53.244 -423.955,-59.287c-51.898,-1.97 -158.155,27.868 -209.977,26.836c-55.598,-1.107 -97.223,-6.862 -159.191,-23.157c-96.621,-25.406 -221.117,-49.501 -335.942,-56.166c-77.905,-4.523 -163.854,16.663 -248.819,39.264c-81.705,21.733 -162.462,44.793 -233.777,44.755c-144.794,-0.078 -271.428,134.579 -311.313,180.772Zm2375.56,363.829c-1.572,1.261 -4.337,3.358 -6.991,4.869c-6.636,3.779 -15.585,7.718 -26.801,11.84c-122.084,44.863 -493.113,104.402 -1105.4,108.882c-613.04,4.486 -1118.25,-81.131 -1292.57,-137.495c-19.885,-6.43 -35.264,-12.398 -45.725,-17.823c-2.66,-1.38 -5.472,-3.235 -7.42,-4.601c9.956,-52.817 58.818,-187.341 69.689,-210.437c23.597,-50.133 28.12,-54.692 64.891,-97.279c36.824,-42.65 152.381,-169.295 286.065,-169.224c73.906,0.039 157.692,-23.352 242.364,-45.875c81.411,-21.656 163.672,-42.533 238.319,-38.2c112.59,6.535 234.655,30.214 329.396,55.127c65.007,17.093 108.68,23.084 167.004,24.246c51.677,1.029 157.624,-28.818 209.377,-26.853c158.095,6.002 264.491,39.649 421.12,59.057c89.428,11.081 184.449,59.35 264.112,104.134c46.156,25.947 83.956,71.645 113.738,124.827c45.092,80.523 71.628,178.347 78.835,254.805Z" style="fill:#7e4021;"/><path d="M2586.75,1312.68c9.326,-19.427 -2299.55,-13.68 -2289.45,6.279c164.037,324.118 500.549,640.458 1117.2,657.731c656.318,18.384 1005.38,-316.376 1172.25,-664.01Z" style="fill:#9d5e3e;"/><path d="M2601.77,1319.89c1.675,-3.489 2.03,-6.986 1.38,-10.45c-0.599,-3.191 -2.092,-6.817 -5.882,-9.973c-1.363,-1.135 -4.11,-3.044 -8.857,-4.141c-4.424,-1.023 -15.062,-2.119 -31.287,-3.004c-184.389,-10.058 -1160.53,-10.445 -1768.18,-3.861c-261.517,2.834 -455.066,7.082 -488.942,12.263c-9.289,1.421 -13.8,5.341 -15.106,6.813c-5.529,6.231 -5.653,12.661 -2.472,18.946c166.195,328.38 506.845,649.365 1131.6,666.865c665.153,18.632 1018.62,-321.144 1187.75,-673.458Zm-40.148,6.123c-168.439,335.457 -512.131,651.789 -1146.66,634.015c-595.518,-16.682 -926.561,-315.535 -1092.16,-628.073c60.852,-4.305 237.33,-7.679 466.503,-10.162c606.908,-6.577 1581.84,-6.233 1766.01,3.813c2.135,0.117 4.257,0.254 6.313,0.407Z" style="fill:#7e4021;"/><ellipse cx="1439.56" cy="1299.13" rx="1146.84" ry="145.39" style="fill:#c48464;"/><path d="M1439.56,1137.07c-322.177,-0 -613.583,16.858 -822.426,43.961c-158.093,20.517 -269.64,47.686 -313.534,76.996c-19.303,12.889 -27.542,27.502 -27.542,41.099c0,13.598 8.239,28.21 27.542,41.1c43.894,29.309 155.441,56.478 313.534,76.995c208.843,27.103 500.249,43.961 822.426,43.961c322.177,0 613.583,-16.858 822.426,-43.961c158.093,-20.517 269.64,-47.686 313.534,-76.995c19.303,-12.89 27.542,-27.502 27.542,-41.1c-0,-13.597 -8.239,-28.21 -27.542,-41.099c-43.894,-29.31 -155.441,-56.479 -313.534,-76.996c-208.843,-27.103 -500.249,-43.961 -822.426,-43.961Zm0,33.333c320.496,0 610.383,16.723 818.136,43.684c123.245,15.995 217.259,35.425 270.921,57.303c14.177,5.779 25.307,11.598 32.998,17.693c4.5,3.567 8.114,6.317 8.114,10.043c-0,3.727 -3.614,6.476 -8.114,10.043c-7.69,6.095 -18.821,11.914 -32.997,17.693c-53.662,21.878 -147.676,41.308 -270.922,57.303c-207.753,26.961 -497.64,43.684 -818.136,43.684c-320.496,0 -610.383,-16.723 -818.136,-43.684c-123.245,-15.995 -217.259,-35.425 -270.921,-57.302c-14.177,-5.78 -25.307,-11.599 -32.998,-17.694c-4.5,-3.567 -8.114,-6.316 -8.114,-10.043c0,-3.726 3.614,-6.476 8.114,-10.043c7.69,-6.094 18.821,-11.913 32.997,-17.693c53.662,-21.878 147.676,-41.308 270.922,-57.303c207.753,-26.961 497.64,-43.684 818.136,-43.684Z" style="fill:#7e4021;"/><path d="M2584.02,363.038c0,3.775 -3.644,6.573 -8.204,10.187c-7.744,6.137 -18.952,11.998 -33.228,17.818c-54.001,22.016 -148.61,41.571 -272.635,57.666c-209.051,27.13 -500.749,43.958 -823.247,43.958c-322.498,-0 -614.196,-16.828 -823.247,-43.958c-124.025,-16.095 -218.634,-35.65 -272.635,-57.666c-14.276,-5.82 -25.484,-11.681 -33.229,-17.818c-4.559,-3.614 -8.204,-6.412 -8.204,-10.187c0,-9.199 -7.468,-16.667 -16.666,-16.667c-9.199,0 -16.667,7.468 -16.667,16.667c0,10.15 4.278,20.526 14.094,30.341c9.688,9.686 25.786,19.439 48.087,28.531c55.661,22.693 153.091,43.265 280.93,59.856c210.141,27.271 503.357,44.234 827.537,44.234c324.179,0 617.396,-16.963 827.537,-44.234c127.838,-16.591 225.267,-37.163 280.929,-59.856c22.301,-9.092 38.399,-18.845 48.087,-28.531c9.817,-9.814 14.094,-20.191 14.094,-30.341c0,-9.199 -7.468,-16.667 -16.666,-16.667c-9.199,0 -16.667,7.468 -16.667,16.667Z" style="fill:#7e4021;"/><path d="M1097.46,380.374c326.723,22.276 751.076,24.467 1076.23,-12.406c9.14,-1.036 15.719,-9.298 14.682,-18.438c-1.036,-9.14 -9.298,-15.719 -18.438,-14.683c-323.331,36.666 -745.309,34.423 -1070.2,12.271c-9.178,-0.626 -17.136,6.317 -17.762,15.494c-0.626,9.177 6.317,17.136 15.494,17.762Z" style="fill:#7e4021;"/><path d="M763.016,347.425c45.094,8.088 151.531,16.865 189.712,18.457c9.19,0.384 16.963,-6.767 17.347,-15.957c0.383,-9.191 -6.767,-16.964 -15.958,-17.347c-37.274,-1.555 -141.192,-10.067 -185.217,-17.963c-9.054,-1.623 -17.723,4.409 -19.347,13.463c-1.624,9.054 4.409,17.723 13.463,19.347Z" style="fill:#7e4021;"/><path d="M2366.1,339.748c30.041,-3.999 129.375,-14.675 186.173,-41.777c28.392,-13.547 46.425,-32.194 48.819,-53.288c1.662,-14.644 -3.495,-31.768 -20.774,-50.549c-6.228,-6.769 -16.78,-7.209 -23.55,-0.981c-6.769,6.228 -7.209,16.78 -0.981,23.55c8.572,9.317 13.009,16.956 12.184,24.221c-0.519,4.579 -3.347,8.47 -7.175,12.185c-5.729,5.559 -13.653,10.376 -22.878,14.778c-53.714,25.63 -147.806,35.038 -176.217,38.819c-9.118,1.214 -15.535,9.602 -14.321,18.721c1.213,9.118 9.602,15.535 18.72,14.321Z" style="fill:#7e4021;"/></g></svg>