<?xml version="1.0" encoding="UTF-8" standalone="no"?><!DOCTYPE svg PUBLIC "-//W3C//DTD SVG 1.1//EN" "http://www.w3.org/Graphics/SVG/1.1/DTD/svg11.dtd"><svg width="100%" height="100%" viewBox="0 0 4380 3665" version="1.1" xmlns="http://www.w3.org/2000/svg" xmlns:xlink="http://www.w3.org/1999/xlink" xml:space="preserve" xmlns:serif="http://www.serif.com/" style="fill-rule:evenodd;clip-rule:evenodd;stroke-linejoin:round;stroke-miterlimit:2;"><g id="Carry-Tray-2-Cups" serif:id="Carry Tray-2 Cups"><path d="M3847.51,1382.79c-172.49,-139.413 -554.719,-53.877 -653.877,-19.804c-318.745,109.53 -529.109,295.386 -1038.45,452.046c-403.097,123.981 -786.554,92.174 -1122.23,128.399c-215.263,23.23 -722.791,98.415 -887.961,218.606c-128.043,93.174 -135.083,251.976 -81.55,390.272c47.245,122.049 147.656,222.148 242.935,308.55c108.471,98.366 171.392,152.735 315.079,192.21c719.271,197.603 1298.49,-368.087 1836.32,-522.543c390.286,-112.082 1146.58,-11.464 1523.05,-193.026c612.791,-295.532 427.977,-501.051 -133.32,-954.71Z" style="fill:#e3b198;"/><path d="M3857.99,1369.83c-71.611,-57.878 -177.83,-79.186 -286.365,-80.714c-159.208,-2.241 -323.019,37.36 -383.405,58.11c-318.593,109.478 -528.836,295.293 -1037.93,451.878c-401.967,123.634 -784.382,91.635 -1119.11,127.758c-151.352,16.333 -446.539,58.28 -666.938,123.36c-96.227,28.414 -178.339,61.445 -229.042,98.341c-134.548,97.908 -143.539,264.442 -87.285,409.764c48.166,124.431 150.143,226.792 247.281,314.88c110.743,100.426 175.164,155.633 321.86,195.935c363.714,99.922 692.094,7.447 997.46,-130.125c301.174,-135.683 579.644,-315.438 847.878,-392.47c194.137,-55.752 479.329,-58.333 762.778,-69.824c287.424,-11.653 573.016,-32.629 762.909,-124.209c124.27,-59.932 216.109,-116.344 279.095,-171.718c65.765,-57.815 100.683,-115.086 109.594,-173.87c10.674,-70.411 -15.904,-143.93 -75.67,-224.789c-85.43,-115.583 -239.615,-247.842 -443.102,-412.307l-0,-0Zm-20.953,25.924c200.647,162.17 353.011,292.227 437.249,406.196c53.349,72.178 79.047,137.129 69.519,199.98c-7.923,52.267 -40.171,102.426 -98.645,153.832c-61.252,53.848 -150.72,108.447 -271.567,166.728c-186.58,89.982 -467.369,109.477 -749.779,120.927c-286.385,11.611 -574.481,14.762 -770.629,71.092c-269.603,77.424 -549.658,257.742 -852.369,394.117c-298.518,134.486 -619.381,226.055 -974.938,128.373c-140.678,-38.648 -202.098,-92.178 -308.298,-188.484c-93.42,-84.716 -192.265,-182.553 -238.588,-302.221c-50.815,-131.271 -45.726,-282.337 75.813,-370.778c64.839,-47.183 183.602,-86.863 316.097,-119.475c201.724,-49.651 435.19,-82.154 563.846,-96.038c336.612,-36.326 721.111,-4.711 1125.34,-129.039c509.585,-156.734 720.07,-342.631 1038.97,-452.214c58.603,-20.138 217.593,-58.478 372.103,-56.304c100.611,1.417 199.498,19.655 265.881,73.308l-0,0Z" style="fill:#7e4021;"/><path d="M1951.52,2121.3c196.328,-36.117 397.581,-70.196 573.534,-177.386c7.856,-4.786 10.349,-15.049 5.563,-22.905c-4.786,-7.855 -15.049,-10.348 -22.904,-5.562c-172.413,105.033 -369.847,137.68 -562.224,173.069c-9.047,1.665 -15.041,10.361 -13.376,19.407c1.664,9.047 10.36,15.041 19.407,13.377Z" style="fill:#7e4021;"/><path d="M3905.44,2360.53c8.059,-62.164 69.78,-158.894 84.421,-178.415c45.556,-60.741 98.94,-118.309 128.801,-174.264c21.895,-41.03 31.436,-81.454 19.882,-121.59c-11.978,-41.61 -47.314,-83.954 -120.17,-125.902c-7.972,-4.589 -18.17,-1.844 -22.76,6.128c-4.59,7.972 -1.844,18.17 6.128,22.76c62.458,35.961 94.501,70.564 104.77,106.235c9.209,31.991 0.194,63.971 -17.258,96.675c-29.159,54.641 -81.574,110.644 -126.059,169.958c-15.898,21.196 -82.061,126.63 -90.811,194.13c-1.183,9.122 5.263,17.488 14.385,18.671c9.123,1.182 17.489,-5.264 18.671,-14.386Z" style="fill:#7e4021;"/><path d="M566.63,3004.21c-6.592,-20.9 -13.756,-41.508 -21.945,-61.844c-19.898,-49.409 -46.427,-96.426 -76.148,-140.557c-40.426,-60.027 -102.445,-133.31 -142.101,-205.882c-27.568,-50.452 -44.758,-100.237 -31.951,-144.394c12.781,-44.064 55.561,-80.525 142.823,-107.329c8.794,-2.701 13.74,-12.032 11.039,-20.826c-2.701,-8.793 -12.033,-13.739 -20.826,-11.038c-102.592,31.513 -150.024,78.102 -165.05,129.907c-14.997,51.709 2.431,110.584 34.714,169.664c40.144,73.466 102.78,147.752 143.704,208.518c28.423,42.203 53.847,87.138 72.876,134.389c7.867,19.537 14.742,39.339 21.075,59.418c2.767,8.773 12.135,13.649 20.908,10.882c8.773,-2.767 13.649,-12.135 10.882,-20.908Z" style="fill:#7e4021;"/><path d="M3274.19,1109.46c522.762,7.15 753.342,-92.692 882.193,-187.428c39.165,-28.795 91.362,-129.035 48.528,-257.259c-8.226,178.1 -442.635,302.939 -969.479,278.606c-526.844,-24.333 -947.897,-188.683 -939.671,-366.783c-22.798,96.785 -16.771,191.366 16.958,232.115c108.888,131.554 339.897,292.247 961.471,300.749Z" style="fill:#ffe6d8;"/><path d="M3273.97,1126.13c237.725,3.251 415.446,-15.546 550.836,-45.84c166.358,-37.224 269.46,-91.89 341.457,-144.825c25.859,-19.013 57.766,-66.073 68.003,-131.59c6.496,-41.573 4.406,-90.657 -13.541,-144.378c-2.543,-7.613 -10.152,-12.332 -18.102,-11.227c-7.951,1.105 -13.984,7.721 -14.354,15.739c-1.597,34.576 -21.958,66.448 -56.462,95.65c-55.888,47.298 -147.839,86.666 -264.566,115.786c-169.446,42.271 -390.539,62.397 -631.033,51.29c-240.494,-11.108 -458.791,-51.528 -623.62,-109.238c-113.545,-39.755 -201.476,-87.431 -252.766,-139.68c-31.666,-32.257 -49.002,-65.871 -47.405,-100.447c0.397,-8.598 -5.819,-16.085 -14.344,-17.275c-8.525,-1.191 -16.554,4.307 -18.527,12.685c-12.34,52.386 -16.463,104.156 -12.681,147.683c3.692,42.473 15.207,77.358 33.022,98.88c62.582,75.609 164.424,160.919 354.612,222.439c146.116,47.264 345.012,80.594 619.47,84.348l0.001,-0Zm0.455,-33.33c-270.098,-3.695 -465.872,-36.22 -609.667,-82.733c-181.728,-58.784 -279.395,-139.732 -339.193,-211.978c-14.432,-17.435 -22.501,-46.105 -25.491,-80.513c-1.68,-19.325 -1.649,-40.398 0.092,-62.446c3.959,6.791 8.463,13.536 13.504,20.226c36.092,47.902 100.635,93.516 187.455,133.386c173.363,79.614 436.792,137.585 733.545,151.291c296.753,13.706 564.403,-19.737 744.367,-83.032c90.126,-31.698 158.599,-71.168 198.953,-115.539c9.722,-10.69 17.869,-21.689 24.394,-32.958c3.029,25.303 2.285,48.873 -1.052,70.225c-8.486,54.314 -33.377,94.119 -54.815,109.88c-69.339,50.981 -168.773,103.303 -328.99,139.152c-133.485,29.868 -308.72,48.244 -543.102,45.039l0,-0Z" style="fill:#7e4021;"/><path d="M1191.05,1612.67c522.762,7.15 753.342,-92.692 882.192,-187.428c39.166,-28.796 91.363,-129.035 48.528,-257.259c-8.226,178.1 -442.635,302.939 -969.479,278.606c-526.844,-24.334 -947.896,-188.683 -939.67,-366.783c-22.799,96.785 -16.771,191.366 16.957,232.115c108.889,131.554 339.898,292.247 961.472,300.749Z" style="fill:#ffe6d8;"/><path d="M1190.82,1629.34c237.725,3.251 415.447,-15.546 550.837,-45.84c166.357,-37.224 269.459,-91.89 341.456,-144.825c25.86,-19.013 57.766,-66.073 68.004,-131.59c6.495,-41.573 4.405,-90.657 -13.541,-144.378c-2.543,-7.613 -10.152,-12.332 -18.103,-11.227c-7.95,1.105 -13.983,7.721 -14.354,15.739c-1.597,34.576 -21.957,66.448 -56.461,95.649c-55.888,47.299 -147.839,86.667 -264.566,115.786c-169.447,42.271 -390.54,62.398 -631.034,51.291c-240.494,-11.108 -458.79,-51.529 -623.619,-109.239c-113.545,-39.754 -201.476,-87.43 -252.766,-139.679c-31.666,-32.257 -49.002,-65.871 -47.405,-100.447c0.397,-8.598 -5.819,-16.085 -14.344,-17.275c-8.525,-1.191 -16.554,4.306 -18.528,12.685c-12.34,52.386 -16.463,104.156 -12.68,147.682c3.691,42.474 15.207,77.358 33.021,98.881c62.582,75.609 164.425,160.919 354.613,222.439c146.116,47.264 345.012,80.594 619.47,84.348l0,-0Zm0.456,-33.331c-270.099,-3.694 -465.872,-36.219 -609.667,-82.733c-181.728,-58.783 -279.395,-139.732 -339.194,-211.977c-14.431,-17.436 -22.5,-46.105 -25.491,-80.513c-1.679,-19.325 -1.649,-40.398 0.093,-62.446c3.959,6.791 8.463,13.536 13.503,20.226c36.092,47.902 100.636,93.515 187.455,133.386c173.364,79.614 436.792,137.585 733.545,151.29c296.753,13.706 564.404,-19.736 744.368,-83.031c90.125,-31.698 158.599,-71.168 198.952,-115.539c9.722,-10.69 17.869,-21.689 24.394,-32.958c3.029,25.303 2.285,48.873 -1.051,70.225c-8.487,54.314 -33.378,94.118 -54.815,109.88c-69.339,50.981 -168.773,103.302 -328.99,139.152c-133.486,29.868 -308.721,48.244 -543.102,45.038l-0,0Z" style="fill:#7e4021;"/><path d="M3274.19,1109.46c456.631,6.245 690.328,-69.143 828.023,-151.456c12.223,-7.307 -106.472,1059.38 -253.335,1515.06c-73.393,227.716 -1166.08,139.812 -1199.28,32.288c-97.139,-314.576 -280.89,-1635.15 -240.194,-1604.28c137.822,104.546 384.907,201.821 864.783,208.385Z" style="fill:#c48464;"/><path d="M3274.42,1092.8c-225.08,-3.079 -398.579,-26.187 -533.414,-60.734c-148.864,-38.141 -250.155,-90.127 -321.524,-144.264c-6.394,-4.85 -12.51,-4.74 -17.766,-2.759c-3.797,1.432 -8.545,4.571 -11.371,11.791c-2.498,6.382 -3.985,23.767 -2.999,50.455c2.838,76.804 21.103,241.775 47.436,438.57c53.873,402.616 141.515,938.594 198.896,1124.42c2.621,8.488 9.129,17.395 20.287,25.648c11.689,8.646 29.225,17.238 51.79,25.298c126.444,45.163 420.953,78.322 680.523,69.9c137.311,-4.456 264.857,-20.608 352.97,-52.258c67.083,-24.095 111.799,-58.186 125.495,-100.681c71.616,-222.205 136.634,-589.253 183.051,-906.957c34.974,-239.38 59.413,-450.702 68.25,-550.673c2.482,-28.07 3.729,-47.583 3.704,-56.78c-0.017,-6.205 -1,-10.058 -1.601,-11.582c-2.646,-6.699 -7.369,-9.031 -10.706,-10.093c-4.303,-1.368 -8.956,-1.276 -13.778,1.606c-71.83,42.94 -170.28,83.839 -313.903,111.971c-128.354,25.142 -292.457,40.037 -505.34,37.126Zm-854.188,-163.237c72.562,50.671 172.061,98.81 312.5,134.793c136.816,35.055 312.847,58.65 541.232,61.774c215.778,2.951 382.105,-12.26 512.204,-37.744c132.276,-25.91 227.436,-62.49 299.144,-101.558c-1.244,18.081 -3.558,44.058 -6.831,76.545c-19.128,189.815 -71.009,599.452 -139.106,957.736c-32.382,170.371 -68.41,329.103 -106.359,446.847c-11.215,34.799 -50.101,59.804 -105.035,79.536c-85.554,30.731 -209.46,45.987 -342.785,50.313c-214.214,6.951 -452.644,-14.582 -597.362,-47.952c-41.103,-9.478 -74.46,-19.822 -97.136,-30.846c-8.141,-3.958 -14.772,-7.916 -19.617,-12.017c-2.678,-2.267 -4.838,-4.233 -5.554,-6.55c-28.408,-91.999 -64.197,-270.432 -99.638,-475.785c-62.677,-363.172 -124.095,-810.329 -141.061,-1014.37c-2.893,-34.793 -4.552,-62.276 -4.596,-80.719Z" style="fill:#7e4021;"/><path d="M2429.26,1210.66c92.641,64.671 385.826,174.334 806.48,201.168c409.611,26.129 746.935,-13.708 829.164,-87.978c-33.748,263.296 -87.336,620.044 -150.44,900.903c-10.688,47.571 -337.227,138.739 -673.167,128.695c-322.148,-9.632 -654.189,-117.947 -667.567,-190.128c-54.475,-293.909 -112.227,-684.189 -144.47,-952.66Z" style="fill:#ee909d;"/><path d="M2438.8,1196.99c-5.387,-3.761 -12.481,-4.005 -18.115,-0.625c-5.634,3.381 -8.756,9.755 -7.973,16.279c16.477,137.194 39.608,306.165 65.56,477.857c24.889,164.655 52.373,331.813 79.07,475.852c2.97,16.024 17.362,34.661 43.528,52.607c43.058,29.531 119.789,60.857 215.137,87.188c121.856,33.651 274.392,59.458 424.792,63.955c150.879,4.511 299.878,-11.211 419.716,-34.285c117.124,-22.551 206.696,-52.504 244.398,-77.218c15.849,-10.39 23.84,-21.419 25.813,-30.197c31.069,-138.281 59.84,-294.918 85.079,-449.788c26.11,-160.217 48.441,-318.541 65.63,-452.65c0.887,-6.918 -2.628,-13.656 -8.808,-16.888c-6.18,-3.232 -13.719,-2.274 -18.895,2.401c-16.95,15.309 -45.773,28.629 -84.212,40.467c-57.519,17.713 -135.758,31.351 -229.168,40.112c-140.106,13.141 -314.053,15.222 -503.551,3.134c-193.96,-12.373 -360.645,-42.453 -492.792,-77.581c-150.922,-40.12 -256.424,-86.564 -305.209,-120.62Zm11.199,46.102c58.095,32.619 155.396,72.161 285.446,106.732c133.876,35.588 302.736,66.098 499.234,78.632c191.468,12.215 367.223,10.066 508.785,-3.211c96.152,-9.018 176.661,-23.21 235.867,-41.443c25.302,-7.792 46.852,-16.43 64.328,-25.693c-16.439,125.602 -37.032,269.59 -60.753,415.145c-25.102,154.03 -53.705,309.816 -84.6,447.378c-0.379,0.474 -2.551,3.152 -4.4,4.732c-6.528,5.58 -16.617,11.399 -29.679,17.523c-43.628,20.454 -118.007,42.484 -210.015,60.199c-117.753,22.673 -264.161,38.131 -412.417,33.699c-147.611,-4.414 -297.319,-29.741 -416.915,-62.768c-90.833,-25.084 -164.137,-54.413 -205.157,-82.547c-9.571,-6.564 -17.249,-12.965 -22.68,-19.258c-3.607,-4.18 -6.204,-8.04 -6.926,-11.934c-26.635,-143.707 -54.054,-310.482 -78.886,-474.759c-23.767,-157.233 -45.163,-312.178 -61.232,-442.427Z" style="fill:#7e4021;"/><path d="M3393.42,2093.7c189.428,-188.878 89.608,-361.896 27.905,-442.548c-175.311,-229.144 -497.552,-127.437 -584.672,109.759c-121.552,330.943 285.529,603.24 556.767,332.789Z" style="fill:#fee4a8;"/><path d="M3405.18,2105.5c79.484,-79.253 109.924,-156.097 114.291,-224.891c6.546,-103.104 -46.113,-188.866 -84.918,-239.586c-183.914,-240.39 -522.157,-134.697 -613.552,114.14c-76.627,208.625 46.76,395.037 219.234,449.435c114.674,36.168 251.259,14.259 364.945,-99.098l0,0Zm-23.536,-23.604c-103.304,103.005 -227.18,123.777 -331.383,90.912c-155.841,-49.152 -267.208,-217.646 -197.971,-406.153c82.845,-225.556 389.082,-323.277 555.79,-105.378c35.24,46.062 84.069,123.586 78.125,217.221c-3.959,62.366 -32.502,131.548 -104.561,203.398l0,-0Z" style="fill:#7e4021;"/><path d="M3367.62,2004.26c-8.168,21.731 -35.332,31.657 -60.621,22.152c-25.289,-9.506 -39.189,-34.866 -31.021,-56.598c8.168,-21.731 35.332,-31.657 60.621,-22.152c25.289,9.506 39.189,34.866 31.021,56.598Z" style="fill:#f8a5b0;"/><path d="M2999.86,1911.7c-1.974,23.132 -25.432,40.046 -52.351,37.749c-26.918,-2.298 -47.17,-22.943 -45.196,-46.075c1.975,-23.132 25.432,-40.047 52.351,-37.749c26.919,2.298 47.171,22.943 45.196,46.075Z" style="fill:#f8a5b0;"/><path d="M3382.64,1829.49c-18.066,-7.281 -40.404,2.284 -48.877,23.307c-8.473,21.024 0.99,43.405 19.056,50.686c18.066,7.282 40.404,-2.283 48.877,-23.307c8.473,-21.023 -0.99,-43.405 -19.056,-50.686l0,0Zm-415.337,-77.497c-18.065,-7.281 -40.404,2.283 -48.877,23.307c-8.473,21.024 0.99,43.405 19.056,50.686c18.066,7.281 40.404,-2.283 48.877,-23.307c8.473,-21.023 -0.989,-43.405 -19.055,-50.686l-0.001,-0Z" style="fill:#7e4021;"/><path d="M3064.26,1902.64c-10.238,34.046 14.16,77.27 51.824,83.907c40.085,7.063 80.245,-21.359 86.556,-59.73c1.492,-9.076 -4.665,-17.657 -13.742,-19.15c-9.076,-1.493 -17.657,4.665 -19.15,13.741c-3.466,21.076 -25.862,36.191 -47.879,32.311c-18.634,-3.283 -30.753,-24.636 -25.687,-41.48c2.649,-8.809 -2.352,-18.111 -11.161,-20.76c-8.809,-2.649 -18.112,2.352 -20.761,11.161Z" style="fill:#7e4021;"/><path d="M1191.05,1612.67c456.63,6.245 690.327,-69.143 828.023,-151.456c12.223,-7.307 -106.472,1059.38 -253.336,1515.06c-73.393,227.716 -1166.07,139.811 -1199.28,32.288c-97.139,-314.576 -280.889,-1635.15 -240.193,-1604.28c137.822,104.546 384.907,201.821 864.783,208.385Z" style="fill:#c48464;"/><path d="M1191.27,1596.01c-225.08,-3.078 -398.579,-26.186 -533.415,-60.733c-148.864,-38.142 -250.155,-90.127 -321.524,-144.264c-6.394,-4.851 -12.51,-4.74 -17.766,-2.759c-3.797,1.431 -8.544,4.571 -11.37,11.79c-2.498,6.383 -3.985,23.768 -2.999,50.456c2.837,76.804 21.103,241.775 47.435,438.569c53.874,402.617 141.516,938.594 198.897,1124.42c2.621,8.488 9.128,17.395 20.287,25.648c11.689,8.645 29.225,17.238 51.79,25.298c126.444,45.163 420.952,78.322 680.522,69.899c137.311,-4.455 264.858,-20.607 352.971,-52.257c67.083,-24.095 111.798,-58.186 125.494,-100.681c71.617,-222.206 136.635,-589.253 183.052,-906.957c34.973,-239.38 59.412,-450.702 68.25,-550.673c2.482,-28.07 3.728,-47.583 3.704,-56.781c-0.017,-6.204 -1,-10.058 -1.602,-11.581c-2.645,-6.699 -7.368,-9.032 -10.706,-10.093c-4.302,-1.368 -8.956,-1.276 -13.777,1.606c-71.831,42.94 -170.28,83.839 -313.903,111.971c-128.354,25.142 -292.458,40.037 -505.34,37.125l-0,0Zm-854.189,-163.237c72.562,50.671 172.061,98.811 312.501,134.794c136.816,35.055 312.846,58.65 541.232,61.774l0,-0c215.777,2.951 382.104,-12.26 512.203,-37.744c132.277,-25.91 227.436,-62.49 299.145,-101.559c-1.244,18.082 -3.558,44.059 -6.832,76.546c-19.128,189.815 -71.008,599.452 -139.106,957.735c-32.382,170.372 -68.409,329.104 -106.358,446.848c-11.216,34.799 -50.102,59.804 -105.035,79.536c-85.555,30.73 -209.461,45.986 -342.785,50.313c-214.215,6.95 -452.645,-14.582 -597.362,-47.952c-41.104,-9.478 -74.46,-19.822 -97.136,-30.847c-8.142,-3.957 -14.772,-7.916 -19.617,-12.016c-2.678,-2.267 -4.838,-4.233 -5.554,-6.55c-28.409,-91.999 -64.198,-270.432 -99.638,-475.785c-62.677,-363.172 -124.095,-810.329 -141.062,-1014.37c-2.893,-34.793 -4.551,-62.277 -4.596,-80.72Z" style="fill:#7e4021;"/><path d="M348.688,1728.68c94.972,61.197 380.337,159.93 801.696,171.172c410.297,10.947 759.295,-33.479 838.718,-110.742c-49.865,317.21 -112.538,706.746 -165.201,989.748c-8.92,47.934 -261.359,170.243 -604.94,185.489c-321.975,14.286 -686.222,-87.435 -702.263,-159.072c-65.319,-291.69 -125.85,-809.503 -168.01,-1076.6Z" style="fill:#d8bef1;"/><path d="M357.716,1714.67c-5.523,-3.559 -12.621,-3.541 -18.126,0.046c-5.505,3.586 -8.389,10.072 -7.365,16.562c29.116,184.456 66.994,488.488 109.159,755.039c18.952,119.804 38.775,232.06 59.05,322.6c3.555,15.879 19.607,34.377 48.256,51.609c46.46,27.945 127.912,56.593 227.176,78.972c130.404,29.399 291.787,48.246 443.834,41.499c149.888,-6.651 282.616,-33.475 385.818,-65.695c88.286,-27.563 155.164,-59.216 193.242,-85.618c25.977,-18.012 39.256,-35.573 41.527,-47.777c21.911,-117.747 45.554,-253.922 69.287,-395.662c33.336,-199.09 66.851,-409.166 95.992,-594.547c1.115,-7.088 -2.432,-14.093 -8.804,-17.39c-6.372,-3.298 -14.139,-2.147 -19.282,2.855c-16.367,15.923 -45.335,29.868 -84.3,42.548c-58,18.876 -137.316,34.066 -231.735,45.05c-142.905,16.624 -320.124,23.513 -510.616,18.43c-193.475,-5.162 -358.087,-28.873 -488.492,-58.909c-150.06,-34.563 -254.44,-77.277 -304.621,-109.612Zm12.746,45.715c58.653,30.553 155.065,66.592 284.394,96.38c132.166,30.441 298.996,54.516 495.083,59.748c192.262,5.13 371.125,-1.863 515.358,-18.642c97.065,-11.291 178.573,-27.058 238.199,-46.463c24.766,-8.06 45.894,-16.866 63.055,-26.219c-27.658,175.514 -58.833,370.291 -89.853,555.551c-23.697,141.528 -47.304,277.499 -69.182,395.069c-0.507,2.724 -3.107,5.468 -6.431,8.967c-5.153,5.425 -12.33,11.283 -21.318,17.515c-36.264,25.144 -100.106,54.943 -184.183,81.193c-100.938,31.513 -230.762,57.708 -377.361,64.213c-149.032,6.612 -307.209,-11.901 -435.027,-40.717c-94.888,-21.392 -172.913,-48.305 -217.325,-75.019c-10.466,-6.294 -18.926,-12.486 -25.002,-18.627c-4.056,-4.098 -7.041,-7.829 -7.908,-11.7c-20.144,-89.958 -39.823,-201.493 -58.653,-320.525c-39.646,-250.624 -75.501,-534.384 -103.846,-720.724Z" style="fill:#7e4021;"/><path d="M1382.17,2585.14c93.976,24.828 202.499,10.462 222.451,-105.135c11.598,-67.193 -1.756,-116.082 -28.978,-149.647c-25.623,-31.594 -63.962,-49.956 -107.668,-56.533c-40.807,-6.14 -86.339,-1.957 -129.712,10.704c63.02,-84.313 96.838,-209.458 -18.47,-267.909c-60.819,-30.829 -111.473,-32.43 -151.556,-16.273c-37.728,15.208 -66.545,46.459 -85.674,86.303c-17.86,37.202 -18.391,112.848 -13.729,155.216c-41.62,-94.097 -185.91,-182.195 -275.663,-89.152c-47.34,49.074 -63.755,97.022 -60.089,140.083c3.451,40.532 24.855,77.259 57.319,107.251c30.312,28.003 70.331,50.119 113.326,64.009c-99.499,34.353 -197.776,118.89 -135.214,232.02c32.998,59.67 74.006,89.45 116.243,98.598c39.757,8.612 81.152,-1.056 119.359,-23.274c35.674,-20.744 68.573,-52.499 94.483,-89.514c3.599,105.201 55.527,223.98 182.047,197.421c66.731,-14.007 107.246,-44.455 128.402,-82.139c19.913,-35.471 22.836,-77.879 12.826,-120.928c-7.183,-30.89 -21.062,-62.124 -39.703,-91.101Z" style="fill:#fed7dc;"/><path d="M1414.84,2608.89c92.809,13.763 186.858,-13.953 206.205,-126.043c12.644,-73.256 -2.779,-126.387 -32.457,-162.98c-28.162,-34.724 -70.098,-55.287 -118.133,-62.516c-30.205,-4.545 -62.867,-3.782 -95.473,1.691c51.227,-88.959 63.114,-201.131 -47.654,-257.28c-66.306,-33.612 -121.623,-34.481 -165.322,-16.866c-41.466,16.715 -73.444,50.757 -94.467,94.548c-11.768,24.51 -16.715,64.758 -17.583,102.473c-25.193,-29.543 -58.472,-54.978 -94.423,-70.152c-58.757,-24.8 -124.127,-22.687 -174.358,29.385c-51.61,53.502 -68.696,106.122 -64.699,153.068c3.793,44.547 26.936,85.116 62.615,118.079c22.436,20.727 49.887,38.444 79.937,52.232c-92.352,44.821 -165.198,130.946 -105.1,239.621c35.976,65.054 81.252,96.847 127.3,106.821c43.695,9.465 89.273,-0.736 131.265,-25.155c26.405,-15.355 51.406,-36.388 73.415,-61.059c15.706,101.445 76.624,196.382 198.161,170.87c72.753,-15.272 116.446,-49.208 139.511,-90.292c21.886,-38.985 25.528,-85.549 14.526,-132.862c-4.95,-21.288 -12.884,-42.741 -23.266,-63.583l-0,-0Zm-28.413,-39.857c-6.648,-1.756 -13.692,0.751 -17.736,6.312c-4.045,5.562 -4.258,13.036 -0.538,18.819c17.573,27.318 30.715,56.738 37.486,85.858c9.019,38.785 6.815,77.038 -11.126,108.995c-19.247,34.285 -56.58,61.243 -117.292,73.987c-114.67,24.071 -158.704,-86.331 -161.966,-181.68c-0.245,-7.165 -5.045,-13.371 -11.919,-15.409c-6.874,-2.038 -14.281,0.548 -18.392,6.422c-24.483,34.977 -55.497,65.061 -89.207,84.664c-34.423,20.017 -71.634,29.151 -107.453,21.392c-38.427,-8.323 -75.164,-36.087 -105.186,-90.374c-56.703,-102.535 35.887,-177.066 126.068,-208.201c6.777,-2.34 11.298,-8.751 11.227,-15.921c-0.072,-7.169 -4.72,-13.489 -11.543,-15.693c-40.627,-13.125 -78.496,-33.929 -107.139,-60.391c-29.248,-27.021 -48.913,-59.906 -52.022,-96.423c-3.335,-39.177 12.407,-82.45 55.477,-127.098c39.523,-40.972 91.173,-41.331 137.405,-21.817c48.607,20.515 91.752,62.576 111.021,106.14c3.326,7.519 11.637,11.489 19.576,9.351c7.938,-2.137 13.132,-9.744 12.233,-17.916c-4.389,-39.884 -4.626,-111.159 12.187,-146.18c17.234,-35.897 42.889,-64.356 76.88,-78.058c36.467,-14.7 82.456,-12.368 137.789,15.681c104.509,52.977 69.774,166.648 12.657,243.065c-4.293,5.742 -4.432,13.587 -0.345,19.478c4.086,5.89 11.482,8.508 18.364,6.499c40.985,-11.963 84.001,-16.024 122.562,-10.221c39.377,5.925 74.118,22.085 97.203,50.549c24.767,30.538 36.051,75.182 25.499,136.314c-17.978,104.157 -117.094,114.227 -201.77,91.856Z" style="fill:#7e4021;"/><path d="M1318.51,2618.45c129.481,-129.105 61.251,-247.369 19.074,-302.497c-119.831,-156.628 -340.094,-87.108 -399.644,75.024c-83.086,226.212 195.169,412.337 380.57,227.473Z" style="fill:#fee4a8;"/><path d="M1330.27,2630.26c55.506,-55.345 76.613,-109.083 79.662,-157.122c4.569,-71.975 -32.031,-131.899 -59.119,-167.305c-128.435,-167.874 -364.701,-94.368 -428.526,79.405c-53.546,145.786 32.695,276.041 153.219,314.053c80.042,25.245 175.413,10.09 254.764,-69.031Zm-23.536,-23.605c-68.969,68.77 -151.632,82.789 -221.201,60.847c-103.892,-32.767 -178.113,-145.104 -131.956,-270.772c55.274,-150.492 259.534,-216.026 370.762,-70.643c23.524,30.748 56.295,82.435 52.327,144.939c-2.642,41.613 -21.851,87.689 -69.932,135.629Z" style="fill:#7e4021;"/><path d="M1300.88,2557.32c-5.583,14.855 -24.15,21.639 -41.436,15.142c-17.287,-6.497 -26.788,-23.832 -21.204,-38.686c5.583,-14.855 24.15,-21.64 41.436,-15.142c17.286,6.497 26.787,23.832 21.204,38.686Z" style="fill:#f8a5b0;"/><path d="M1049.49,2494.05c-1.349,15.812 -17.383,27.374 -35.783,25.803c-18.4,-1.57 -32.243,-15.682 -30.893,-31.494c1.349,-15.811 17.383,-27.373 35.783,-25.803c18.4,1.571 32.243,15.683 30.893,31.494Z" style="fill:#f8a5b0;"/><path d="M1313.11,2432.97c-14.836,-5.979 -33.316,1.588 -40.274,18.852c-6.958,17.264 1.111,35.53 15.946,41.509c14.836,5.98 33.315,-1.587 40.273,-18.851c6.958,-17.264 -1.11,-35.53 -15.945,-41.51Zm-283.898,-52.972c-14.836,-5.979 -33.315,1.588 -40.273,18.852c-6.958,17.264 1.11,35.53 15.945,41.509c14.836,5.979 33.315,-1.587 40.273,-18.851c6.959,-17.264 -1.11,-35.531 -15.945,-41.51Z" style="fill:#7e4021;"/><path d="M1088.46,2486.35c-7.817,25.993 10.803,58.999 39.559,64.066c30.259,5.332 60.52,-16.2 65.284,-45.165c1.492,-9.077 -4.665,-17.658 -13.741,-19.151c-9.077,-1.492 -17.658,4.665 -19.151,13.741c-1.919,11.67 -14.416,19.896 -26.607,17.748c-9.725,-1.714 -16.066,-12.849 -13.423,-21.64c2.649,-8.809 -2.352,-18.111 -11.161,-20.76c-8.808,-2.649 -18.111,2.352 -20.76,11.161Z" style="fill:#7e4021;"/><path d="M3265.24,297.995c526.844,24.333 947.896,188.683 939.671,366.782c-8.226,178.1 -442.635,302.939 -969.479,278.606c-526.844,-24.333 -947.897,-188.683 -939.671,-366.783c8.226,-178.099 442.635,-302.938 969.479,-278.605Z" style="fill:#ffdab8;"/><path d="M3266.01,281.346c-296.753,-13.706 -564.404,19.736 -744.368,83.031c-90.125,31.698 -158.598,71.168 -198.952,115.54c-27.148,29.85 -42.016,62.116 -43.577,95.914c-1.561,33.799 10.27,67.298 34.551,99.524c36.092,47.902 100.635,93.516 187.455,133.386c173.363,79.614 436.792,137.585 733.545,151.291c296.753,13.706 564.403,-19.737 744.367,-83.032c90.126,-31.698 158.599,-71.168 198.953,-115.539c27.148,-29.851 42.015,-62.117 43.576,-95.915c1.561,-33.798 -10.269,-67.297 -34.55,-99.524c-36.092,-47.901 -100.635,-93.515 -187.455,-133.385c-173.364,-79.614 -436.792,-137.585 -733.545,-151.291l-0,-0Zm-1.538,33.298c240.494,11.107 458.791,51.528 623.619,109.238c113.546,39.754 201.476,87.431 252.767,139.679c31.666,32.258 49.002,65.871 47.405,100.447c-1.597,34.576 -21.958,66.448 -56.462,95.65c-55.888,47.298 -147.839,86.666 -264.566,115.786c-169.446,42.271 -390.539,62.397 -631.033,51.29c-240.494,-11.108 -458.791,-51.528 -623.62,-109.238c-113.545,-39.755 -201.476,-87.431 -252.766,-139.68c-31.666,-32.257 -49.002,-65.871 -47.405,-100.447c1.597,-34.575 21.957,-66.448 56.461,-95.649c55.889,-47.299 147.84,-86.667 264.566,-115.786c169.447,-42.271 390.54,-62.398 631.034,-51.29l0,-0Z" style="fill:#7e4021;"/><path d="M1182.1,801.202c526.844,24.333 947.896,188.682 939.67,366.782c-8.226,178.1 -442.635,302.939 -969.479,278.606c-526.844,-24.334 -947.896,-188.683 -939.67,-366.783c8.226,-178.099 442.634,-302.938 969.479,-278.605Z" style="fill:#ffdab8;"/><path d="M1182.86,784.553c-296.753,-13.706 -564.403,19.736 -744.367,83.031c-90.126,31.698 -158.599,71.168 -198.952,115.539c-27.148,29.851 -42.016,62.117 -43.577,95.915c-1.561,33.798 10.269,67.298 34.55,99.524c36.092,47.902 100.636,93.515 187.455,133.386c173.364,79.614 436.792,137.585 733.545,151.29c296.753,13.706 564.404,-19.736 744.368,-83.031c90.125,-31.698 158.599,-71.168 198.952,-115.539c27.148,-29.851 42.016,-62.117 43.577,-95.915c1.561,-33.798 -10.269,-67.298 -34.55,-99.524c-36.092,-47.902 -100.636,-93.515 -187.455,-133.385c-173.364,-79.614 -436.792,-137.585 -733.545,-151.291l-0.001,-0Zm-1.537,33.298c240.494,11.107 458.79,51.528 623.619,109.238c113.545,39.754 201.476,87.43 252.766,139.679c31.666,32.257 49.002,65.871 47.405,100.447c-1.597,34.576 -21.957,66.448 -56.461,95.649c-55.888,47.299 -147.839,86.667 -264.566,115.786c-169.447,42.271 -390.54,62.398 -631.034,51.291c-240.494,-11.108 -458.79,-51.529 -623.619,-109.239c-113.545,-39.754 -201.476,-87.43 -252.766,-139.679c-31.666,-32.257 -49.002,-65.871 -47.405,-100.447c1.597,-34.576 21.957,-66.448 56.461,-95.649c55.888,-47.299 147.839,-86.667 264.566,-115.786c169.446,-42.271 390.539,-62.398 631.033,-51.29l0.001,-0Z" style="fill:#7e4021;"/><path d="M3282.18,72.806c61.596,1.187 121.58,4.525 179.253,9.774c63.702,5.797 73.476,-54.979 130.703,-64.482c44.353,-7.365 144.987,16.102 177.081,39.637c51.784,37.974 41.077,86.698 76.78,98.3c158.434,51.486 256.646,122.035 255.18,198.095c-2.823,146.503 -374.387,258.328 -829.227,249.563c-454.841,-8.766 -821.821,-134.823 -818.998,-281.325c2.823,-146.502 374.388,-258.327 829.228,-249.562Z" style="fill:#fff;"/><path d="M3282.5,56.143c-254.41,-4.903 -482.985,27.767 -636.753,82.859c-77.762,27.861 -136.732,61.747 -171.433,99.031c-24.544,26.37 -37.461,54.703 -38.026,84.014c-0.565,29.311 11.251,58.12 34.761,85.417c33.239,38.593 90.86,74.726 167.491,105.562c151.531,60.975 378.677,102.427 633.087,107.33c254.411,4.903 482.985,-27.768 636.753,-82.86c77.763,-27.86 136.732,-61.747 171.433,-99.03c24.545,-26.371 37.462,-54.703 38.027,-84.014c0.837,-43.455 -26.039,-86.213 -77.616,-124.412c-45.204,-33.479 -109.747,-64.076 -189.077,-89.856c-10.671,-3.467 -14.294,-12.645 -19.054,-23.026c-5.824,-12.7 -11.837,-27.391 -22.444,-42.159c-7.496,-10.436 -17.196,-20.892 -30.577,-30.704c-17.556,-12.874 -54.028,-26.183 -92.062,-34.658c-36.501,-8.134 -74.321,-11.847 -97.605,-7.981c-23.039,3.826 -39.63,14.501 -54.355,26.914c-12.748,10.747 -23.702,23.086 -38.084,30.926c-9.148,4.986 -19.901,7.771 -34.024,6.486c-29.48,-2.683 -59.559,-4.87 -90.147,-6.53c-29.649,-1.608 -59.775,-2.721 -90.295,-3.309l0,-0Zm-0.642,33.327c30.126,0.58 59.864,1.679 89.132,3.267c30.175,1.637 59.849,3.794 88.931,6.441c22.023,2.004 38.734,-2.639 52.999,-10.415c13.473,-7.344 24.611,-17.768 36.129,-28.143c12.512,-11.271 25.517,-22.71 45.816,-26.08c20.266,-3.366 53.125,0.552 84.895,7.632c32.756,7.299 64.48,17.916 79.6,29.003c21.52,15.781 30.605,33.807 37.693,49.374c5.17,11.356 9.552,21.652 15.372,29.931c6.897,9.811 15.594,17.238 28.42,21.406c75.267,24.459 136.652,53.177 179.54,84.941c40.895,30.287 64.792,62.528 64.128,96.982c-0.547,28.359 -17.928,54.662 -47.508,79.209c-47.677,39.565 -126.101,73.358 -225.75,99.379c-144.531,37.74 -333.164,58.598 -538.985,54.632c-205.821,-3.966 -393.511,-32.076 -536.48,-75.357c-98.574,-29.841 -175.638,-66.631 -221.754,-108.003c-28.612,-25.669 -44.968,-52.621 -44.421,-80.98c0.546,-28.358 17.928,-54.661 47.508,-79.208c47.676,-39.565 126.1,-73.359 225.75,-99.379c144.531,-37.741 333.164,-58.599 538.985,-54.632l-0,-0Z" style="fill:#7e4021;"/><path d="M1199.03,576.013c61.595,1.187 121.579,4.525 179.252,9.773c63.702,5.798 73.719,-53.62 130.703,-64.481c46.47,-8.858 162.297,18.326 191.402,44.056c46.634,41.224 17.155,72.468 52.858,84.07c158.434,51.486 266.248,131.846 264.782,207.906c-2.823,146.502 -374.388,258.327 -829.228,249.562c-454.84,-8.765 -821.82,-134.822 -818.997,-281.324c2.823,-146.502 374.388,-258.327 829.228,-249.562Z" style="fill:#fff;"/><path d="M1199.35,559.349c-254.41,-4.902 -482.985,27.768 -636.753,82.86c-77.762,27.861 -136.732,61.747 -171.433,99.03c-24.545,26.371 -37.462,54.704 -38.027,84.015c-0.565,29.311 11.251,58.12 34.762,85.417c33.239,38.592 90.859,74.726 167.49,105.561c151.531,60.976 378.678,102.428 633.088,107.331c254.41,4.903 482.985,-27.768 636.753,-82.86c77.762,-27.861 136.732,-61.747 171.433,-99.03c24.545,-26.371 37.462,-54.703 38.027,-84.015c0.825,-42.827 -27.989,-87.904 -81.117,-128.378c-47.689,-36.33 -115.1,-69.677 -195.178,-95.7c-8.101,-2.632 -8.956,-7.755 -10.241,-13.925c-2.305,-11.063 -4.538,-24.247 -13.391,-39.227c-5.105,-8.638 -12.4,-17.885 -23.338,-27.554c-16.209,-14.33 -56.937,-29.874 -99.832,-39.516c-39.971,-8.986 -81.613,-13.022 -105.729,-8.425c-22.72,4.33 -39.136,15.067 -53.73,27.341c-12.758,10.73 -23.733,22.906 -38.141,30.591c-9.204,4.909 -20.019,7.614 -34.201,6.323c-29.48,-2.682 -59.56,-4.87 -90.147,-6.529c-29.649,-1.609 -59.776,-2.722 -90.295,-3.31Zm-0.642,33.327c30.126,0.581 59.864,1.679 89.131,3.267c30.175,1.637 59.849,3.795 88.932,6.442c21.965,1.999 38.654,-2.506 52.909,-10.109c13.568,-7.237 24.784,-17.559 36.377,-27.921c12.606,-11.269 25.71,-22.802 46.048,-26.678c21.041,-4.011 57.302,0.363 92.177,8.202c36.305,8.162 71.346,19.841 85.066,31.969c21.141,18.689 23.397,35.03 25.951,47.53c1.637,8.011 3.6,14.967 7.21,20.937c4.735,7.829 11.977,14.545 25.584,18.967c75.963,24.685 140.041,56.051 185.28,90.514c42.66,32.498 68.652,66.832 67.989,101.22c-0.546,28.359 -17.928,54.661 -47.508,79.209c-47.676,39.564 -126.1,73.358 -225.75,99.379c-144.531,37.74 -333.164,58.598 -538.985,54.632c-205.821,-3.967 -393.51,-32.076 -536.48,-75.357c-98.573,-29.841 -175.637,-66.631 -221.754,-108.003c-28.612,-25.669 -44.967,-52.621 -44.421,-80.98c0.547,-28.359 17.929,-54.661 47.508,-79.208c47.677,-39.565 126.101,-73.359 225.751,-99.38c144.53,-37.74 333.163,-58.598 538.985,-54.632Z" style="fill:#7e4021;"/><path d="M3669.31,68.538c45.185,7.923 79.491,27.92 76.562,44.628c-2.93,16.707 -41.993,23.84 -87.178,15.917c-45.185,-7.922 -79.491,-27.919 -76.562,-44.627c2.93,-16.708 41.993,-23.841 87.178,-15.918Z" style="fill:#7e4021;"/><path d="M1586.16,571.745c45.185,7.922 79.491,27.919 76.561,44.627c-2.929,16.708 -41.992,23.841 -87.177,15.918c-45.185,-7.923 -79.492,-27.92 -76.562,-44.628c2.929,-16.708 41.992,-23.84 87.178,-15.917Z" style="fill:#7e4021;"/><path d="M3287.39,165.967c-200.696,-3.868 -381.476,16.112 -505.809,50.724c-63.928,17.797 -113.271,39.705 -143.682,63.91c-25.689,20.446 -38.671,43.157 -39.117,66.309c-0.447,23.152 11.651,46.346 36.533,67.767c29.456,25.359 77.919,49.152 141.114,69.398c122.906,39.377 302.783,66.307 503.478,70.174c200.696,3.868 381.476,-16.112 505.809,-50.724c63.928,-17.797 113.271,-39.705 143.682,-63.91c25.689,-20.446 38.671,-43.157 39.117,-66.309c0.446,-23.152 -11.651,-46.346 -36.533,-67.767c-29.456,-25.359 -77.919,-49.152 -141.114,-69.398c-122.907,-39.377 -302.783,-66.307 -503.478,-70.174l-0,-0Zm-0.642,33.327c162.343,3.128 310.834,21.489 425.603,49.493c79.523,19.404 142.615,43.243 182.173,70.085c25.434,17.257 41.034,34.582 40.664,53.792c-0.37,19.209 -16.627,35.92 -42.707,52.185c-40.563,25.298 -104.526,46.689 -184.737,63.014c-115.763,23.562 -264.851,36.188 -427.195,33.059c-162.343,-3.128 -310.834,-21.489 -425.603,-49.493c-79.523,-19.404 -142.615,-43.243 -182.173,-70.085c-25.434,-17.257 -41.034,-34.582 -40.664,-53.792c0.37,-19.209 16.626,-35.92 42.706,-52.185c40.563,-25.298 104.526,-46.688 184.738,-63.014c115.763,-23.562 264.851,-36.188 427.194,-33.059l0.001,-0Z" style="fill:#7e4021;"/><path d="M1204.24,669.174c-200.695,-3.868 -381.475,16.111 -505.808,50.724c-63.928,17.797 -113.272,39.705 -143.683,63.91c-25.688,20.446 -38.671,43.157 -39.117,66.309c-0.446,23.152 11.652,46.346 36.533,67.767c29.456,25.359 77.919,49.152 141.114,69.398c122.907,39.377 302.784,66.307 503.479,70.174c200.695,3.868 381.476,-16.112 505.808,-50.724c63.928,-17.797 113.272,-39.705 143.683,-63.91c25.688,-20.446 38.671,-43.157 39.117,-66.309c0.446,-23.152 -11.652,-46.346 -36.533,-67.767c-29.456,-25.359 -77.919,-49.152 -141.114,-69.398c-122.907,-39.377 -302.783,-66.307 -503.479,-70.174l0,-0Zm-0.642,33.327c162.344,3.128 310.835,21.489 425.604,49.493c79.523,19.404 142.614,43.243 182.173,70.084c25.433,17.258 41.034,34.583 40.664,53.792c-0.37,19.21 -16.627,35.921 -42.707,52.186c-40.563,25.298 -104.526,46.688 -184.737,63.014c-115.763,23.562 -264.851,36.187 -427.195,33.059c-162.344,-3.128 -310.834,-21.489 -425.604,-49.493c-79.523,-19.404 -142.614,-43.243 -182.173,-70.085c-25.433,-17.257 -41.034,-34.582 -40.664,-53.792c0.37,-19.209 16.627,-35.92 42.707,-52.185c40.563,-25.298 104.526,-46.689 184.737,-63.014c115.763,-23.562 264.851,-36.188 427.195,-33.059l0,-0Z" style="fill:#7e4021;"/><path d="M3281.76,843.725c330.695,6.373 661.603,-28.719 790.99,-196.947c48.573,-63.153 29.364,-216.07 28.424,-292.648c-2.823,146.503 -374.387,258.328 -829.227,249.563c-454.841,-8.766 -821.821,-134.823 -818.998,-281.325c-8.578,57.668 -20.723,223.045 16.766,279.84c118.228,179.116 466.708,234.862 812.045,241.517Z" style="fill:#ffe6d8;"/><path d="M3281.44,860.388c178.867,3.447 357.786,-5.25 505.379,-40.133c130.769,-30.906 237.137,-82.696 299.144,-163.316c17.238,-22.413 27.21,-54.953 32.082,-91.808c9.394,-71.059 0.439,-158.803 -0.204,-211.205c-0.112,-9.102 -7.505,-16.43 -16.607,-16.462c-9.103,-0.032 -16.547,7.245 -16.722,16.345c-0.547,28.359 -17.928,54.662 -47.508,79.209c-47.677,39.565 -126.101,73.358 -225.75,99.379c-144.531,37.74 -333.164,58.598 -538.985,54.632c-205.821,-3.966 -393.511,-32.076 -536.48,-75.357c-98.574,-29.841 -175.638,-66.631 -221.754,-108.003c-28.612,-25.669 -44.968,-52.621 -44.421,-80.98c0.169,-8.788 -6.515,-16.197 -15.274,-16.929c-8.759,-0.733 -16.582,5.462 -17.875,14.156c-5.158,34.675 -11.584,107.546 -8.145,173.378c2.528,48.39 10.916,92.993 27.486,118.096c57.118,86.533 165.702,146.061 302.164,184.724c151.686,42.976 338.02,60.701 523.469,64.274l0.001,0Zm0.642,-33.327c-182.449,-3.516 -365.795,-20.738 -515.026,-63.018c-127.55,-36.138 -230.043,-90.134 -283.43,-171.016c-14.19,-21.497 -19.853,-60.034 -22.018,-101.472c-1.658,-31.747 -0.933,-65.195 0.829,-94.861c2.67,3.615 5.541,7.205 8.611,10.77c33.239,38.593 90.86,74.726 167.491,105.562c151.531,60.975 378.677,102.427 633.087,107.33c254.411,4.903 482.985,-27.768 636.753,-82.86c77.763,-27.86 136.732,-61.747 171.433,-99.03c2.738,-2.941 5.331,-5.907 7.778,-8.895c1.419,32.832 2.348,68.705 0.159,102.576c-2.694,41.695 -9.646,80.336 -28.209,104.47c-57.955,75.353 -158.161,122.312 -280.388,151.199c-145.161,34.307 -321.15,42.635 -497.07,39.245l-0,0Z" style="fill:#7e4021;"/><path d="M1198.62,1346.93c330.695,6.372 661.603,-28.719 790.991,-196.947c48.573,-63.154 29.364,-216.07 28.424,-292.648c-2.823,146.502 -374.388,258.327 -829.228,249.562c-454.84,-8.765 -821.82,-134.822 -818.997,-281.324c-8.579,57.667 -20.724,223.044 16.765,279.84c118.229,179.116 466.708,234.862 812.045,241.517Z" style="fill:#ffe6d8;"/><path d="M1198.29,1363.6c178.867,3.447 357.787,-5.251 505.379,-40.133c130.77,-30.906 237.138,-82.697 299.144,-163.316c17.239,-22.414 27.21,-54.953 32.082,-91.808c9.394,-71.059 0.44,-158.804 -0.204,-211.205c-0.111,-9.102 -7.505,-16.43 -16.607,-16.462c-9.102,-0.032 -16.546,7.245 -16.722,16.345c-0.546,28.359 -17.928,54.661 -47.508,79.209c-47.676,39.564 -126.1,73.358 -225.75,99.379c-144.531,37.74 -333.164,58.598 -538.985,54.632c-205.821,-3.967 -393.51,-32.076 -536.48,-75.357c-98.573,-29.841 -175.637,-66.631 -221.754,-108.003c-28.612,-25.669 -44.967,-52.621 -44.421,-80.98c0.17,-8.788 -6.515,-16.197 -15.274,-16.93c-8.759,-0.732 -16.581,5.463 -17.874,14.157c-5.159,34.675 -11.584,107.546 -8.145,173.378c2.528,48.39 10.916,92.993 27.486,118.096c57.117,86.533 165.702,146.061 302.164,184.724c151.685,42.976 338.02,60.701 523.469,64.274l0,0Zm0.642,-33.327c-182.448,-3.516 -365.794,-20.738 -515.025,-63.018c-127.55,-36.138 -230.043,-90.134 -283.431,-171.016c-14.189,-21.497 -19.852,-60.034 -22.017,-101.472c-1.659,-31.747 -0.933,-65.196 0.828,-94.861c2.67,3.614 5.541,7.205 8.612,10.77c33.239,38.592 90.859,74.726 167.49,105.561c151.531,60.976 378.678,102.428 633.088,107.331c254.41,4.903 482.985,-27.768 636.753,-82.86c77.762,-27.861 136.732,-61.747 171.433,-99.03c2.737,-2.941 5.33,-5.907 7.777,-8.895c1.42,32.832 2.349,68.704 0.16,102.576c-2.695,41.694 -9.647,80.336 -28.209,104.47c-57.956,75.353 -158.162,122.312 -280.389,151.199c-145.16,34.307 -321.15,42.635 -497.07,39.245l0,0Z" style="fill:#7e4021;"/><path d="M3980.83,2337.5c206.688,-89.474 -339.087,718.882 -437.563,757.833c-114.056,45.113 -169.729,-28.059 -287.035,-24.232c-129.552,4.226 -149.44,104.077 -284.759,88.768c-93.954,-10.63 -229.831,-237.028 -312.744,-278.213c-192.976,-95.856 -721.817,90.674 -861.497,301.961c-83.07,125.655 -163.778,362.243 -271.505,411.866c-106.717,49.158 -200.57,-22.327 -294.152,-17.69c-118.42,5.867 -150.542,58.248 -232.329,69.167c-171.161,22.852 -393.56,-252.589 -553.957,-431.819c-205.068,-229.146 -344.139,-511.415 -381.843,-662.832c47.245,122.049 147.656,222.148 242.935,308.55c108.471,98.366 171.392,152.735 315.079,192.21c719.271,197.603 1298.49,-368.087 1836.32,-522.543c390.286,-112.082 1139.48,-26.982 1523.05,-193.026Z" style="fill:#ebccb8;"/><path d="M3974.21,2322.21c-190.295,82.377 -471.353,102.01 -753.175,115.396c-285.456,13.558 -571.73,20.584 -767.852,76.906c-269.603,77.424 -549.658,257.742 -852.369,394.117c-298.518,134.486 -619.381,226.055 -974.938,128.373c-140.678,-38.648 -202.098,-92.178 -308.298,-188.484c-93.42,-84.716 -192.265,-182.553 -238.588,-302.221c-3.176,-8.206 -12.185,-12.529 -20.574,-9.872c-8.389,2.656 -13.268,11.377 -11.141,19.916c38.098,153.004 178.378,438.373 385.596,669.92c96.824,108.193 216.202,251.138 333.331,343.293c81.772,64.337 163.118,103.562 235.251,93.931c34.621,-4.622 60.884,-16.108 87.895,-28.812c36.69,-17.258 74.96,-36.855 143.052,-40.229c45.315,-2.245 90.623,14.342 137.593,25.138c51.926,11.934 105.581,17.359 162.708,-8.956c45.49,-20.954 87.16,-72.809 125.507,-136.795c54.362,-90.711 103.2,-205.798 152.928,-281.018c82.129,-124.232 302.115,-238.749 505.358,-290.98c133.657,-34.349 260.204,-42.31 334.821,-5.246c18.609,9.244 39.851,28.728 62.939,52.74c36.999,38.482 77.905,88.488 118.3,131.32c27.929,29.615 55.7,55.836 81.796,73.097c19.306,12.769 37.965,20.735 55.25,22.691c72.605,8.214 114.325,-14.148 155.19,-39.449c35.894,-22.223 70.93,-47.231 131.986,-49.222c56.613,-1.847 98.289,15.22 139.637,26.972c46.058,13.09 91.672,20.352 152.985,-3.9c8.318,-3.29 19.571,-10.953 32.803,-22.871c26.805,-24.142 64.049,-66.891 105.808,-120.313c138.142,-176.718 326.178,-470.846 352.386,-585.723c3.349,-14.677 4.183,-26.928 2.772,-36.274c-1.358,-8.993 -4.747,-15.958 -9.492,-21.067c-9.981,-10.746 -29.215,-15.473 -59.465,-2.378l-0,-0Zm35.129,25.305c0.154,0.347 0.402,0.943 0.514,1.363c0.381,1.437 0.562,3.062 0.632,4.852c0.225,5.756 -0.749,12.726 -2.588,20.785c-25.655,112.448 -210.929,399.626 -346.149,572.609c-34.617,44.283 -65.951,81.049 -90.53,105.346c-14.442,14.276 -25.873,24.123 -34.08,27.369c-52.743,20.862 -91.993,14.094 -131.612,2.833c-44.329,-12.599 -89.142,-30.204 -149.837,-28.224c-68.496,2.234 -108.178,29.266 -148.446,54.197c-35.298,21.854 -71.182,41.763 -133.896,34.668c-12.781,-1.446 -26.332,-7.928 -40.608,-17.371c-24.275,-16.056 -49.955,-40.617 -75.935,-68.165c-40.469,-42.91 -81.455,-93.001 -118.522,-131.553c-26.29,-27.343 -50.948,-48.964 -72.138,-59.49c-79.764,-39.621 -215.071,-33.903 -357.947,2.815c-211.555,54.367 -439.38,175.569 -524.867,304.881c-49.957,75.567 -99.102,191.138 -153.714,282.265c-34.304,57.241 -70.167,104.91 -110.861,123.655c-49.591,22.843 -96.22,17.105 -141.295,6.745c-50.032,-11.498 -98.441,-28.335 -146.709,-25.943c-62.002,3.071 -101.422,18.281 -136.037,34.191c-31.555,14.504 -58.637,29.891 -97.672,35.102c-64.799,8.652 -136.772,-29.293 -210.229,-87.088c-115.711,-91.039 -233.451,-232.442 -329.103,-339.325c-142.518,-159.251 -252.943,-344.36 -318.981,-492.36c46.926,59.155 102.439,112.554 156.457,161.538c110.743,100.426 175.164,155.633 321.86,195.935c363.714,99.922 692.094,7.447 997.46,-130.125c301.174,-135.683 579.644,-315.438 847.878,-392.47c194.163,-55.759 477.628,-62.225 760.232,-75.648c286.238,-13.596 571.56,-34.435 764.836,-118.102l0,-0c6.586,-2.851 12.178,-4.669 16.907,-5.317c1.763,-0.241 4.188,-0.045 4.98,0.032Z" style="fill:#7e4021;"/><path d="M2785.57,2859.84c6.579,11.386 13.226,22.738 19.958,34.034c20.325,34.097 43.512,66.136 69.026,96.536c5.914,7.046 16.435,7.965 23.481,2.052c7.046,-5.914 7.965,-16.435 2.052,-23.481c-24.364,-29.03 -46.518,-59.615 -65.926,-92.174c-6.656,-11.166 -13.226,-22.388 -19.729,-33.643c-4.602,-7.965 -14.805,-10.695 -22.769,-6.093c-7.965,4.602 -10.695,14.805 -6.093,22.769Z" style="fill:#7e4021;"/><path d="M2918.53,3044.78c12.685,13.465 38.088,40.363 46.591,47.876c6.892,6.092 17.434,5.441 23.525,-1.452c6.091,-6.893 5.441,-17.434 -1.452,-23.525c-8.115,-7.171 -32.295,-32.905 -44.402,-45.756c-6.308,-6.696 -16.864,-7.01 -23.56,-0.703c-6.695,6.308 -7.01,16.865 -0.702,23.56Z" style="fill:#7e4021;"/><path d="M4352.73,2035.92c9.16,306.445 -189.802,464.617 -643.315,529.498c-382.463,54.718 -1100.42,25.29 -1378.51,168.412c-452.558,232.909 -854.535,460.132 -1205.46,496.476c-699.513,72.446 -967.55,-250.401 -1048.73,-410.974c-48.03,-95.006 -80.8,-251.896 -43.741,-452.481c-4.7,60.958 7.126,125.159 30.468,185.461c47.245,122.049 147.656,222.148 242.935,308.55c108.471,98.366 171.392,152.735 315.079,192.21c719.271,197.603 1298.49,-368.087 1836.32,-522.543c390.286,-112.082 1146.58,-11.464 1523.05,-193.026c221.816,-106.976 339.124,-202.157 371.898,-301.583Z" style="fill:#fff;"/><path d="M4369.39,2035.42c-0.242,-8.087 -6.256,-14.832 -14.263,-15.995c-8.007,-1.163 -15.692,3.592 -18.225,11.276c-15.568,47.227 -51.634,93.117 -109.728,140.233c-60.362,48.956 -144.103,98.756 -253.581,151.555c-186.58,89.982 -467.369,109.477 -749.779,120.927c-286.385,11.611 -574.481,14.762 -770.629,71.092c-269.603,77.424 -549.658,257.742 -852.369,394.117c-298.518,134.486 -619.381,226.055 -974.938,128.373c-140.678,-38.648 -202.098,-92.178 -308.298,-188.484c-93.42,-84.716 -192.265,-182.553 -238.588,-302.221c-22.426,-57.935 -33.909,-119.596 -29.393,-178.163c0.681,-8.836 -5.672,-16.66 -14.46,-17.808c-8.788,-1.147 -16.937,4.784 -18.547,13.499c-37.927,205.282 -3.898,365.798 45.256,463.029c82.527,163.246 354.157,493.685 1065.32,420.032c352.573,-36.515 756.68,-264.23 1211.37,-498.235c109.843,-56.531 289.278,-85.342 489.111,-103.572c303.847,-27.719 654.435,-30.298 884.134,-63.16c465.406,-66.583 667.014,-232.013 657.613,-546.495Zm-35.372,72.402c-23.364,251.496 -222.049,383.167 -626.962,441.096c-229.257,32.798 -579.178,35.296 -882.441,62.961c-204.908,18.693 -388.704,49.163 -501.337,107.13c-450.428,231.813 -850.277,458.544 -1199.55,494.717c-687.868,71.24 -952.31,-244.015 -1032.13,-401.915c-34.409,-68.063 -60.534,-168.675 -57.724,-294.785c4.075,13.908 8.77,27.7 14.035,41.3c48.166,124.431 150.143,226.792 247.281,314.88c110.743,100.426 175.164,155.633 321.86,195.935c363.714,99.922 692.094,7.447 997.46,-130.125c301.174,-135.683 579.644,-315.438 847.878,-392.47c194.137,-55.752 479.329,-58.333 762.778,-69.824c287.424,-11.653 573.016,-32.629 762.909,-124.209c177.993,-85.841 289.604,-165.327 345.945,-244.69l-0,-0.001Z" style="fill:#7e4021;"/><path d="M2282.6,2543.37c-8.768,-4.338 -114.497,-98.661 -230.346,-31.814c-129.909,74.961 -115.148,215.448 -72.405,282.191c59.248,92.515 142.578,174.278 240.296,217.775c39.434,17.553 97.762,47.663 142.46,34.253c76.524,-22.957 126.284,-114.595 160.058,-179.437c234.403,-450.014 -155.539,-542.731 -240.063,-322.968Z" style="fill:#ffce7b;"/><path d="M2275.55,2518.07c-9.674,-6.535 -23.046,-14.966 -37.006,-21.931c-47.299,-23.597 -118.972,-42.657 -194.611,0.989c-140.659,81.163 -124.391,233.349 -78.111,305.614c60.996,95.245 146.953,179.233 247.554,224.013c24.428,10.874 55.926,26.297 87.146,34c23.204,5.724 46.301,7.165 66.881,0.991c33.44,-10.032 62.386,-31.801 87.224,-59.168c35.08,-38.653 61.98,-88.512 82.826,-128.533c97.991,-188.127 88.734,-316.812 40.111,-388.443c-73.452,-108.208 -238.397,-95.235 -302.014,32.468Zm-0.333,40.245c4.201,2.079 9.084,2.292 13.45,0.588c4.367,-1.704 7.814,-5.168 9.497,-9.543c45.473,-118.229 189.247,-137.219 251.82,-45.037c44.428,65.451 47.442,182.428 -42.094,354.323c-19.684,37.788 -44.823,85.033 -77.947,121.53c-20.632,22.734 -44.34,41.309 -72.119,49.642c-15.18,4.554 -32.202,2.796 -49.317,-1.426c-29.257,-7.218 -58.684,-21.9 -81.576,-32.09c-94.836,-42.213 -175.538,-121.75 -233.039,-211.537c-39.206,-61.219 -52.459,-190.008 66.7,-258.766c63.38,-36.571 123.438,-19.805 163.071,-0.033c29.003,14.47 48.044,30.613 51.554,32.349Z" style="fill:#7e4021;"/></g></svg>