<?xml version="1.0" encoding="UTF-8" standalone="no"?><!DOCTYPE svg PUBLIC "-//W3C//DTD SVG 1.1//EN" "http://www.w3.org/Graphics/SVG/1.1/DTD/svg11.dtd"><svg width="100%" height="100%" viewBox="0 0 4230 4402" version="1.1" xmlns="http://www.w3.org/2000/svg" xmlns:xlink="http://www.w3.org/1999/xlink" xml:space="preserve" xmlns:serif="http://www.serif.com/" style="fill-rule:evenodd;clip-rule:evenodd;stroke-linejoin:round;stroke-miterlimit:2;"><g id="Carry-Tray-4-Cups" serif:id="Carry Tray-4 Cups"><path d="M189.482,2372.08c-4.748,-0.394 1625.71,1079.38 1721.05,1068.01c80.511,-9.595 804.757,-316.89 1387.86,-601.344c416.125,-202.996 756.749,-421.558 756.749,-388.059c-553.533,-343.824 -1620.2,-822.877 -1770.3,-789.857c-327.533,72.054 -1856.41,465.285 -2095.37,711.247Z" style="fill:#e3b198;"/><path d="M4046.73,2465.07c-5.084,1.618 -14.697,4.863 -23.491,8.826c-100.453,45.268 -384.844,217.541 -717.536,379.836c-585.234,285.493 -1312.39,593.284 -1393.2,602.914c-6.58,0.784 -19.122,-1.513 -36.505,-8.425c-32.165,-12.788 -86.308,-41.182 -155.935,-80.908c-392.85,-224.136 -1286.01,-811.532 -1495.37,-951.25c-26.653,-17.787 -42.411,-28.471 -44.946,-30.396c-12.975,-9.855 -3.733,-23.47 -3.038,-24.298c0.501,-0.596 1.081,-1.23 1.756,-1.855l-0.02,0.019c73.303,-74.566 262.6,-163.125 501.326,-251.558c552.85,-204.797 1371.91,-412.908 1601.5,-463.416c14.925,-3.283 38.073,-2.437 68.252,2.924c64.4,11.439 163.94,43.002 285.179,88.828c397.725,150.334 1031.26,454.392 1420.3,694.691c6.175,1.064 10.216,4.154 12.881,7.7c2.376,3.161 3.928,7.078 3.928,11.992c-0,6.051 -3.279,11.626 -8.567,14.566c-5.161,2.87 -11.443,2.79 -16.515,-0.19Zm-35.989,-22.093l-1.197,0.529c-100.579,45.325 -385.348,217.769 -718.456,380.268c-580.978,283.416 -1302.31,590.213 -1382.53,599.773c-3.724,0.444 -10.408,-2.389 -20.246,-6.301c-31.311,-12.449 -83.952,-40.214 -151.732,-78.885c-392.332,-223.841 -1284.3,-810.49 -1493.39,-950.025c-10.731,-7.161 -20.059,-13.443 -27.276,-18.333c79.506,-69.703 256.438,-149.647 475.43,-230.77c551.324,-204.232 1368.13,-411.75 1597.08,-462.119c16.578,-3.647 45.233,0.182 83.835,9.079c62.375,14.378 148.672,42.753 250.649,81.298c387.126,146.328 998.584,438.875 1387.83,675.486Zm-3809.22,-59.368l-0.087,0.089c-3.234,3.329 -7.697,5.147 -12.306,5.047c6.273,0.218 10.055,-2.602 12.393,-5.136Z" style="fill:#7e4021;"/><path d="M2187.7,1122.66c522.762,7.15 753.342,-92.692 882.193,-187.428c39.165,-28.795 91.362,-129.035 48.527,-257.259c-8.226,178.1 -442.634,302.939 -969.479,278.606c-526.844,-24.333 -947.896,-188.683 -939.67,-366.783c-22.798,96.785 -16.771,191.366 16.957,232.115c108.889,131.554 339.898,292.247 961.472,300.749Z" style="fill:#ffe6d8;"/><path d="M2187.47,1139.33c237.725,3.251 415.447,-15.546 550.837,-45.84c166.358,-37.224 269.459,-91.89 341.456,-144.825c25.86,-19.013 57.766,-66.073 68.004,-131.59c6.496,-41.573 4.405,-90.657 -13.541,-144.378c-2.543,-7.613 -10.152,-12.332 -18.103,-11.227c-7.95,1.105 -13.983,7.721 -14.354,15.739c-1.597,34.576 -21.957,66.448 -56.461,95.65c-55.888,47.298 -147.839,86.666 -264.566,115.786c-169.446,42.271 -390.54,62.397 -631.034,51.29c-240.494,-11.108 -458.79,-51.528 -623.619,-109.238c-113.545,-39.755 -201.476,-87.431 -252.766,-139.68c-31.666,-32.257 -49.002,-65.871 -47.405,-100.447c0.397,-8.598 -5.819,-16.085 -14.344,-17.275c-8.525,-1.191 -16.554,4.307 -18.528,12.685c-12.34,52.386 -16.463,104.156 -12.68,147.683c3.691,42.473 15.207,77.358 33.021,98.88c62.583,75.609 164.425,160.919 354.613,222.439c146.116,47.264 345.012,80.594 619.47,84.348l0,-0Zm0.456,-33.33c-270.099,-3.695 -465.872,-36.22 -609.667,-82.733c-181.728,-58.784 -279.395,-139.732 -339.193,-211.978c-14.432,-17.435 -22.501,-46.105 -25.492,-80.513c-1.679,-19.325 -1.649,-40.398 0.093,-62.446c3.959,6.791 8.463,13.536 13.503,20.226c36.092,47.902 100.636,93.516 187.455,133.386c173.364,79.614 436.793,137.585 733.546,151.291c296.752,13.706 564.403,-19.737 744.367,-83.032c90.126,-31.698 158.599,-71.168 198.952,-115.539c9.722,-10.69 17.869,-21.689 24.394,-32.958c3.029,25.303 2.285,48.873 -1.051,70.225c-8.487,54.314 -33.377,94.119 -54.815,109.88c-69.339,50.981 -168.773,103.303 -328.99,139.152c-133.486,29.868 -308.72,48.244 -543.102,45.039l-0,-0Z" style="fill:#7e4021;"/><path d="M2187.7,1122.66c456.63,6.245 690.328,-69.143 828.023,-151.456c12.223,-7.307 -151.959,1333.86 -298.823,1789.54c-73.392,227.716 -1024.73,205.714 -1093.06,29.93c-119.285,-306.864 -341.618,-1907.27 -300.922,-1876.4c137.822,104.546 384.907,201.821 864.783,208.385Z" style="fill:#c48464;"/><path d="M2187.93,1106c-225.08,-3.079 -398.579,-26.187 -533.415,-60.734c-148.864,-38.141 -250.155,-90.127 -321.524,-144.264c-5.727,-4.345 -11.291,-4.515 -16.093,-3.135c-4.167,1.198 -11.972,5.63 -14.237,18.49c-1.871,10.623 -1.644,35.712 0.901,72.579c8.578,124.233 41.624,389.87 84.846,682.39c66.569,450.53 157.436,964.705 219.898,1125.39c11.912,30.642 46.863,58.424 99.457,80.26c106.917,44.388 288.966,68.221 470.068,66.658c153.242,-1.322 305.737,-20.803 411.396,-60.513c75.764,-28.474 127.758,-68.3 143.538,-117.26c73.65,-228.513 151.741,-679.134 209.77,-1071.58c41.436,-280.231 72.675,-530.749 84.85,-649.21c3.363,-32.72 5.273,-55.539 5.595,-66.369c0.171,-5.754 -0.28,-9.455 -0.667,-11.019c-2.161,-8.747 -8.124,-11.316 -11.299,-12.348c-4.3,-1.397 -8.977,-1.339 -13.841,1.568c-71.831,42.94 -170.28,83.839 -313.903,111.971c-128.354,25.142 -292.458,40.037 -505.34,37.126l-0,-0Zm-853.236,-162.571c72.485,50.428 171.726,98.303 311.548,134.127c136.816,35.055 312.846,58.65 541.232,61.774l0,-0c215.777,2.951 382.104,-12.26 512.203,-37.744c131.861,-25.828 226.837,-62.26 298.48,-101.196c-1.803,21.526 -5.127,53.992 -9.779,95.297c-25.527,226.647 -90.958,717.483 -166.683,1131.01c-38.858,212.202 -80.387,403.995 -120.656,528.938c-13.335,41.374 -59.514,72.221 -123.537,96.283c-102.706,38.6 -251.001,57.098 -399.959,58.384c-176.03,1.519 -353.078,-20.967 -457.001,-64.112c-41.92,-17.405 -71.673,-37.127 -81.167,-61.551c-36.1,-92.867 -81.534,-304.909 -126.355,-554.07c-75.678,-420.704 -149.181,-946.864 -171.527,-1187.32c-4.07,-43.792 -6.477,-77.889 -6.799,-99.826Z" style="fill:#7e4021;"/><path d="M1342.76,1223.85c92.641,64.671 385.826,174.334 806.479,201.168c409.611,26.129 746.935,-13.708 829.164,-87.978c-33.747,263.296 -87.335,620.044 -150.439,900.903c-10.688,47.571 -337.227,138.739 -673.168,128.695c-322.148,-9.632 -654.188,-117.947 -667.566,-190.128c-54.475,-293.909 -112.228,-684.189 -144.47,-952.66Z" style="fill:#ee909d;"/><path d="M1352.3,1210.19c-5.387,-3.761 -12.482,-4.005 -18.115,-0.625c-5.634,3.381 -8.756,9.755 -7.973,16.279c16.477,137.194 39.607,306.165 65.56,477.857c24.889,164.655 52.373,331.813 79.07,475.852c2.97,16.024 17.361,34.661 43.527,52.607c43.059,29.531 119.79,60.857 215.138,87.188c121.856,33.651 274.391,59.458 424.791,63.955c150.879,4.511 299.879,-11.211 419.716,-34.285c117.125,-22.551 206.697,-52.504 244.398,-77.218c15.849,-10.39 23.841,-21.419 25.813,-30.197c31.069,-138.281 59.841,-294.918 85.08,-449.788c26.11,-160.217 48.441,-318.541 65.63,-452.65c0.886,-6.918 -2.628,-13.656 -8.808,-16.888c-6.18,-3.232 -13.719,-2.274 -18.895,2.401c-16.95,15.309 -45.773,28.629 -84.212,40.467c-57.519,17.713 -135.758,31.351 -229.169,40.112c-140.105,13.141 -314.052,15.222 -503.551,3.134c-193.96,-12.373 -360.645,-42.453 -492.791,-77.581c-150.923,-40.12 -256.424,-86.564 -305.209,-120.62Zm11.199,46.102c58.094,32.619 155.395,72.161 285.446,106.732c133.876,35.588 302.736,66.098 499.233,78.632c191.469,12.215 367.224,10.066 508.786,-3.211c96.152,-9.018 176.66,-23.21 235.867,-41.443c25.301,-7.792 46.852,-16.43 64.328,-25.693c-16.44,125.602 -37.033,269.59 -60.753,415.145c-25.102,154.03 -53.706,309.816 -84.6,447.378c-0.379,0.474 -2.551,3.152 -4.4,4.732c-6.528,5.58 -16.618,11.399 -29.68,17.523c-43.628,20.454 -118.006,42.484 -210.014,60.199c-117.754,22.673 -264.162,38.131 -412.417,33.699c-147.611,-4.414 -297.319,-29.741 -416.915,-62.768c-90.833,-25.084 -164.138,-54.413 -205.157,-82.547c-9.571,-6.564 -17.25,-12.965 -22.68,-19.258c-3.607,-4.18 -6.204,-8.04 -6.926,-11.934c-26.635,-143.707 -54.055,-310.482 -78.886,-474.759c-23.767,-157.233 -45.164,-312.178 -61.232,-442.427Z" style="fill:#7e4021;"/><path d="M2178.75,311.191c526.844,24.333 947.896,188.683 939.67,366.782c-8.226,178.1 -442.634,302.939 -969.479,278.606c-526.844,-24.333 -947.896,-188.683 -939.67,-366.783c8.226,-178.099 442.635,-302.938 969.479,-278.605Z" style="fill:#ffdab8;"/><path d="M2179.51,294.542c-296.752,-13.706 -564.403,19.736 -744.367,83.031c-90.125,31.698 -158.599,71.168 -198.952,115.54c-27.148,29.85 -42.016,62.116 -43.577,95.914c-1.561,33.799 10.269,67.298 34.55,99.524c36.092,47.902 100.636,93.516 187.455,133.386c173.364,79.614 436.793,137.585 733.546,151.291c296.752,13.706 564.403,-19.737 744.367,-83.032c90.126,-31.698 158.599,-71.168 198.952,-115.539c27.148,-29.851 42.016,-62.117 43.577,-95.915c1.561,-33.798 -10.269,-67.297 -34.55,-99.524c-36.092,-47.901 -100.636,-93.515 -187.455,-133.385c-173.364,-79.614 -436.792,-137.585 -733.545,-151.291l-0.001,-0Zm-1.537,33.298c240.494,11.107 458.79,51.528 623.619,109.238c113.545,39.754 201.476,87.431 252.766,139.679c31.666,32.258 49.002,65.871 47.405,100.447c-1.597,34.576 -21.957,66.448 -56.461,95.65c-55.888,47.298 -147.839,86.666 -264.566,115.786c-169.446,42.271 -390.54,62.397 -631.034,51.29c-240.494,-11.108 -458.79,-51.528 -623.619,-109.238c-113.545,-39.755 -201.476,-87.431 -252.766,-139.68c-31.666,-32.257 -49.002,-65.871 -47.405,-100.447c1.597,-34.575 21.957,-66.448 56.461,-95.649c55.888,-47.299 147.839,-86.667 264.566,-115.786c169.447,-42.271 390.54,-62.398 631.034,-51.29l-0,-0Z" style="fill:#7e4021;"/><path d="M2195.68,86.002c61.595,1.187 121.579,4.525 179.252,9.774c63.702,5.797 73.476,-54.979 130.704,-64.482c44.353,-7.365 144.987,16.103 177.081,39.637c51.784,37.974 41.077,86.698 76.78,98.3c158.434,51.486 256.646,122.035 255.18,198.095c-2.823,146.503 -374.388,258.328 -829.228,249.563c-454.84,-8.766 -821.82,-134.823 -818.997,-281.325c2.823,-146.502 374.388,-258.327 829.228,-249.562Z" style="fill:#fff;"/><path d="M2196.01,69.339c-254.41,-4.903 -482.985,27.767 -636.753,82.859c-77.762,27.861 -136.732,61.747 -171.433,99.031c-24.545,26.37 -37.462,54.703 -38.027,84.014c-0.564,29.311 11.252,58.12 34.762,85.417c33.239,38.593 90.859,74.726 167.49,105.562c151.532,60.975 378.678,102.427 633.088,107.33c254.41,4.903 482.985,-27.768 636.753,-82.86c77.762,-27.86 136.732,-61.747 171.433,-99.03c24.545,-26.371 37.462,-54.703 38.027,-84.014c0.837,-43.455 -26.039,-86.213 -77.617,-124.412c-45.203,-33.479 -109.746,-64.076 -189.076,-89.856c-10.672,-3.467 -14.294,-12.645 -19.055,-23.026c-5.824,-12.7 -11.836,-27.391 -22.443,-42.159c-7.496,-10.436 -17.196,-20.892 -30.577,-30.704c-17.556,-12.874 -54.028,-26.183 -92.062,-34.658c-36.501,-8.134 -74.321,-11.847 -97.606,-7.981c-23.038,3.826 -39.63,14.501 -54.354,26.914c-12.748,10.747 -23.702,23.086 -38.084,30.926c-9.148,4.986 -19.901,7.771 -34.024,6.486c-29.48,-2.683 -59.56,-4.87 -90.147,-6.53c-29.649,-1.608 -59.776,-2.721 -90.295,-3.309Zm-0.642,33.327c30.126,0.58 59.864,1.679 89.131,3.267c30.175,1.637 59.849,3.794 88.932,6.441c22.023,2.004 38.733,-2.639 52.999,-10.415c13.473,-7.344 24.61,-17.768 36.129,-28.143c12.512,-11.271 25.517,-22.71 45.816,-26.08c20.266,-3.366 53.125,0.553 84.895,7.632c32.756,7.299 64.48,17.916 79.6,29.003c21.519,15.781 30.605,33.807 37.693,49.374c5.17,11.356 9.551,21.652 15.371,29.931c6.897,9.811 15.594,17.238 28.421,21.406c75.267,24.459 136.651,53.177 179.54,84.941c40.895,30.287 64.791,62.528 64.127,96.982c-0.546,28.359 -17.928,54.662 -47.508,79.209c-47.676,39.565 -126.1,73.358 -225.75,99.379c-144.53,37.74 -333.164,58.598 -538.985,54.632c-205.821,-3.966 -393.51,-32.076 -536.48,-75.357c-98.573,-29.841 -175.637,-66.631 -221.754,-108.003c-28.612,-25.669 -44.967,-52.621 -44.42,-80.98c0.546,-28.358 17.928,-54.661 47.508,-79.208c47.676,-39.565 126.1,-73.359 225.75,-99.379c144.53,-37.741 333.164,-58.599 538.985,-54.632Z" style="fill:#7e4021;"/><path d="M2582.81,81.734c45.185,7.923 79.491,27.92 76.562,44.628c-2.93,16.707 -41.993,23.84 -87.178,15.917c-45.185,-7.922 -79.492,-27.919 -76.562,-44.627c2.93,-16.708 41.993,-23.841 87.178,-15.918Z" style="fill:#7e4021;"/><path d="M2200.89,179.163c-200.695,-3.868 -381.475,16.112 -505.808,50.724c-63.928,17.797 -113.271,39.705 -143.683,63.91c-25.688,20.446 -38.671,43.157 -39.117,66.309c-0.446,23.152 11.652,46.346 36.533,67.767c29.456,25.359 77.919,49.152 141.114,69.398c122.907,39.377 302.784,66.307 503.479,70.174c200.695,3.868 381.476,-16.112 505.808,-50.724c63.928,-17.797 113.272,-39.705 143.683,-63.91c25.688,-20.446 38.671,-43.157 39.117,-66.309c0.446,-23.152 -11.652,-46.346 -36.533,-67.767c-29.456,-25.359 -77.919,-49.152 -141.114,-69.398c-122.907,-39.377 -302.783,-66.307 -503.479,-70.174l0,-0Zm-0.642,33.327c162.344,3.128 310.835,21.489 425.604,49.493c79.523,19.404 142.615,43.243 182.173,70.085c25.434,17.257 41.034,34.582 40.664,53.792c-0.37,19.209 -16.627,35.92 -42.707,52.185c-40.563,25.298 -104.526,46.689 -184.737,63.014c-115.763,23.562 -264.851,36.188 -427.195,33.059c-162.344,-3.128 -310.834,-21.489 -425.604,-49.493c-79.523,-19.404 -142.614,-43.243 -182.173,-70.085c-25.433,-17.257 -41.034,-34.582 -40.664,-53.792c0.371,-19.209 16.627,-35.92 42.707,-52.185c40.563,-25.298 104.526,-46.688 184.737,-63.014c115.763,-23.562 264.851,-36.187 427.195,-33.059l0,-0Z" style="fill:#7e4021;"/><path d="M2195.27,856.921c330.696,6.373 661.603,-28.719 790.991,-196.947c48.573,-63.153 29.364,-216.07 28.424,-292.648c-2.823,146.503 -374.388,258.328 -829.228,249.563c-454.84,-8.766 -821.82,-134.823 -818.997,-281.325c-8.579,57.668 -20.723,223.045 16.766,279.84c118.228,179.116 466.707,234.862 812.044,241.517Z" style="fill:#ffe6d8;"/><path d="M2194.95,873.584c178.867,3.447 357.787,-5.25 505.379,-40.133c130.77,-30.906 237.138,-82.696 299.144,-163.316c17.239,-22.413 27.21,-54.953 32.082,-91.808c9.394,-71.059 0.44,-158.803 -0.204,-211.205c-0.111,-9.102 -7.504,-16.43 -16.607,-16.462c-9.102,-0.032 -16.546,7.245 -16.722,16.345c-0.546,28.359 -17.928,54.662 -47.508,79.209c-47.676,39.565 -126.1,73.358 -225.75,99.379c-144.53,37.74 -333.164,58.598 -538.985,54.632c-205.821,-3.966 -393.51,-32.076 -536.48,-75.357c-98.573,-29.841 -175.637,-66.631 -221.754,-108.003c-28.612,-25.669 -44.967,-52.621 -44.42,-80.98c0.169,-8.788 -6.515,-16.197 -15.274,-16.929c-8.759,-0.733 -16.582,5.462 -17.875,14.156c-5.159,34.675 -11.584,107.546 -8.145,173.378c2.528,48.39 10.916,92.993 27.486,118.096c57.117,86.533 165.702,146.061 302.164,184.724c151.685,42.976 338.02,60.701 523.469,64.274l0,0Zm0.642,-33.327c-182.448,-3.516 -365.794,-20.738 -515.025,-63.018c-127.55,-36.138 -230.043,-90.134 -283.431,-171.016c-14.189,-21.497 -19.852,-60.034 -22.017,-101.472c-1.659,-31.747 -0.933,-65.195 0.828,-94.861c2.671,3.615 5.541,7.205 8.612,10.77c33.239,38.593 90.859,74.726 167.49,105.562c151.532,60.975 378.678,102.427 633.088,107.33c254.41,4.903 482.985,-27.768 636.753,-82.86c77.762,-27.86 136.732,-61.747 171.433,-99.03c2.738,-2.941 5.33,-5.907 7.778,-8.895c1.419,32.832 2.348,68.705 0.159,102.576c-2.695,41.695 -9.647,80.336 -28.209,104.47c-57.956,75.353 -158.162,122.312 -280.388,151.199c-145.161,34.307 -321.151,42.635 -497.071,39.245l0,0Z" style="fill:#7e4021;"/><path d="M3266.15,1755c522.762,7.15 753.342,-92.691 882.193,-187.427c39.165,-28.796 91.362,-129.036 48.527,-257.259c-8.226,178.099 -442.634,302.938 -969.479,278.605c-526.844,-24.333 -947.896,-188.683 -939.67,-366.782c-22.798,96.784 -16.771,191.365 16.957,232.115c108.889,131.554 339.898,292.246 961.472,300.748Z" style="fill:#ffe6d8;"/><path d="M3265.92,1771.67c237.725,3.252 415.447,-15.545 550.837,-45.84c166.357,-37.223 269.459,-91.889 341.456,-144.824c25.86,-19.014 57.766,-66.073 68.004,-131.591c6.496,-41.573 4.405,-90.656 -13.541,-144.377c-2.543,-7.614 -10.152,-12.332 -18.103,-11.227c-7.95,1.105 -13.983,7.72 -14.354,15.739c-1.597,34.575 -21.957,66.448 -56.461,95.649c-55.888,47.299 -147.839,86.667 -264.566,115.786c-169.447,42.271 -390.54,62.398 -631.034,51.29c-240.494,-11.107 -458.79,-51.528 -623.619,-109.238c-113.545,-39.754 -201.476,-87.431 -252.766,-139.679c-31.666,-32.258 -49.002,-65.871 -47.405,-100.447c0.397,-8.599 -5.819,-16.085 -14.344,-17.276c-8.525,-1.19 -16.554,4.307 -18.528,12.685c-12.34,52.387 -16.463,104.156 -12.68,147.683c3.691,42.474 15.207,77.358 33.021,98.881c62.583,75.609 164.425,160.918 354.613,222.438c146.116,47.265 345.012,80.594 619.47,84.348l0,0Zm0.456,-33.33c-270.099,-3.694 -465.872,-36.219 -609.667,-82.733c-181.728,-58.784 -279.395,-139.732 -339.193,-211.977c-14.432,-17.436 -22.501,-46.105 -25.492,-80.513c-1.679,-19.326 -1.649,-40.398 0.093,-62.447c3.959,6.792 8.463,13.537 13.503,20.227c36.092,47.901 100.636,93.515 187.455,133.385c173.364,79.614 436.793,137.585 733.545,151.291c296.753,13.706 564.404,-19.736 744.368,-83.031c90.125,-31.698 158.599,-71.168 198.952,-115.54c9.722,-10.689 17.869,-21.689 24.394,-32.957c3.029,25.303 2.285,48.872 -1.051,70.224c-8.487,54.314 -33.377,94.119 -54.815,109.881c-69.339,50.981 -168.773,103.302 -328.99,139.151c-133.486,29.869 -308.721,48.245 -543.102,45.039l-0,0Z" style="fill:#7e4021;"/><path d="M3266.15,1755c456.63,6.246 690.328,-69.143 828.023,-151.456c12.223,-7.306 -151.959,1333.86 -298.823,1789.54c-73.393,227.716 -1024.73,205.715 -1093.06,29.93c-119.285,-306.863 -341.618,-1907.27 -300.922,-1876.4c137.822,104.545 384.907,201.82 864.783,208.384Z" style="fill:#c48464;"/><path d="M3266.38,1738.34c-225.08,-3.079 -398.579,-26.186 -533.415,-60.734c-148.864,-38.141 -250.155,-90.126 -321.524,-144.264c-5.727,-4.344 -11.291,-4.515 -16.093,-3.134c-4.167,1.198 -11.972,5.629 -14.237,18.489c-1.871,10.624 -1.644,35.712 0.901,72.579c8.578,124.234 41.624,389.87 84.846,682.391c66.569,450.53 157.436,964.705 219.898,1125.39c11.912,30.641 46.863,58.424 99.457,80.259c106.917,44.389 288.966,68.221 470.068,66.658c153.242,-1.322 305.737,-20.803 411.396,-60.513c75.764,-28.474 127.758,-68.3 143.538,-117.26c73.65,-228.513 151.74,-679.134 209.77,-1071.58c41.436,-280.23 72.675,-530.749 84.85,-649.209c3.363,-32.72 5.273,-55.539 5.595,-66.37c0.171,-5.754 -0.281,-9.454 -0.667,-11.019c-2.161,-8.747 -8.124,-11.316 -11.299,-12.347c-4.3,-1.398 -8.977,-1.34 -13.841,1.568c-71.831,42.94 -170.28,83.838 -313.903,111.971c-128.354,25.142 -292.458,40.037 -505.34,37.125l-0,0Zm-853.236,-162.571c72.485,50.428 171.726,98.303 311.548,134.128c136.816,35.054 312.846,58.649 541.232,61.773l0,0c215.777,2.952 382.104,-12.26 512.203,-37.743c131.861,-25.829 226.837,-62.26 298.48,-101.197c-1.803,21.527 -5.128,53.992 -9.78,95.298c-25.526,226.646 -90.957,717.483 -166.682,1131.01c-38.858,212.201 -80.387,403.995 -120.656,528.938c-13.335,41.374 -59.514,72.221 -123.538,96.283c-102.705,38.599 -251,57.098 -399.958,58.383c-176.03,1.519 -353.078,-20.966 -457.001,-64.112c-41.92,-17.404 -71.673,-37.127 -81.167,-61.55c-36.1,-92.868 -81.535,-304.91 -126.355,-554.071c-75.678,-420.704 -149.181,-946.864 -171.527,-1187.32c-4.07,-43.792 -6.477,-77.888 -6.799,-99.826Z" style="fill:#7e4021;"/><path d="M2421.21,1856.2c92.641,64.671 385.826,174.333 806.479,201.167c409.611,26.13 746.935,-13.707 829.164,-87.977c-33.747,263.296 -87.335,620.043 -150.439,900.902c-10.688,47.571 -337.227,138.74 -673.168,128.695c-322.148,-9.632 -654.188,-117.946 -667.567,-190.128c-54.474,-293.909 -112.227,-684.189 -144.469,-952.659Z" style="fill:#d8bef1;"/><path d="M2430.75,1842.53c-5.387,-3.761 -12.482,-4.006 -18.115,-0.625c-5.634,3.38 -8.756,9.755 -7.973,16.278c16.477,137.194 39.607,306.165 65.56,477.857c24.889,164.656 52.373,331.814 79.07,475.852c2.97,16.024 17.361,34.661 43.527,52.607c43.059,29.532 119.79,60.858 215.138,87.188c121.856,33.651 274.391,59.459 424.791,63.956c150.879,4.511 299.879,-11.211 419.716,-34.285c117.125,-22.552 206.697,-52.505 244.398,-77.219c15.849,-10.389 23.841,-21.419 25.813,-30.197c31.069,-138.281 59.841,-294.917 85.08,-449.787c26.11,-160.217 48.441,-318.541 65.63,-452.651c0.886,-6.917 -2.628,-13.655 -8.808,-16.887c-6.18,-3.232 -13.719,-2.275 -18.895,2.4c-16.95,15.309 -45.773,28.63 -84.213,40.467c-57.518,17.714 -135.757,31.351 -229.168,40.113c-140.105,13.141 -314.052,15.222 -503.551,3.133c-193.96,-12.373 -360.645,-42.453 -492.791,-77.581c-150.923,-40.119 -256.424,-86.563 -305.209,-120.619Zm11.199,46.102c58.094,32.618 155.395,72.161 285.446,106.732c133.876,35.587 302.736,66.097 499.233,78.632c191.469,12.214 367.224,10.066 508.786,-3.212c96.152,-9.018 176.66,-23.21 235.867,-41.443c25.301,-7.792 46.852,-16.43 64.328,-25.692c-16.44,125.601 -37.033,269.59 -60.753,415.144c-25.102,154.03 -53.706,309.816 -84.6,447.379c-0.379,0.474 -2.551,3.151 -4.4,4.731c-6.528,5.581 -16.618,11.4 -29.68,17.524c-43.628,20.454 -118.006,42.483 -210.014,60.199c-117.754,22.672 -264.162,38.131 -412.417,33.698c-147.611,-4.413 -297.319,-29.74 -416.915,-62.767c-90.833,-25.084 -164.138,-54.414 -205.157,-82.547c-9.571,-6.564 -17.25,-12.966 -22.68,-19.258c-3.607,-4.18 -6.204,-8.041 -6.926,-11.934c-26.635,-143.708 -54.055,-310.482 -78.886,-474.76c-23.767,-157.232 -45.164,-312.177 -61.232,-442.426Z" style="fill:#7e4021;"/><path d="M3183.33,2281.41c-14.423,102.251 121.628,164.937 115.815,164.422c-22.898,-2.031 -40.933,-24.357 -81.188,-34.614c-43.876,-11.18 -103.382,-20.382 -137.663,29.25c-29.819,43.172 -13.95,101.875 10.653,123.007c55.981,48.084 144.328,35.216 208.023,15.993c1.418,-0.428 6.163,-2.74 7.588,-1.359c2.909,2.822 -13.087,8.595 -48.404,25.401c-31.061,14.781 -103.891,93.951 -43.843,154.35c74.426,74.861 120.662,-11.444 150.225,-55.603c13.383,-19.991 33.648,-72.978 32.955,-70.974c-25.738,74.341 -13.45,153.428 59.894,175.79c63.263,19.289 110.554,-24.994 101.218,-81.471c-6.373,-38.557 -18.049,-50.398 -41.825,-81.083c-1.342,-1.731 -12.434,-13.098 -9.747,-15.744c0.194,-0.192 123.238,81.62 193.514,11.847c54.599,-54.209 -8.246,-122.989 -45.263,-129.222c-16.408,-2.763 -33.094,-4.597 -49.728,-5.197c-7.684,-0.277 -19.727,0.253 -23.066,-0.336c16.884,-5.695 169.657,-38.108 152.334,-129.359c-11.681,-61.534 -99.775,-76.095 -137.694,-54.392c-24.053,13.767 -43.894,32.774 -64.154,51.408c-0.299,0.275 -5.063,4.869 -5.517,3.838c-6.698,-15.199 129.279,-132.101 35.576,-208.523c-65.127,-53.117 -151.306,7.926 -149.103,92.868c0.552,21.276 4.452,42.333 6.562,63.513c0.128,1.29 -0.578,17.814 -0.763,17.298c-28.786,-80.25 -91.814,-132.55 -138.138,-134.699c-43.201,-2.004 -92.532,32.979 -98.261,73.591Z" style="fill:#fff;"/><path d="M3397.4,2265.93c-13.964,-18.683 -29.562,-34.264 -45.455,-46.203c-23.705,-17.81 -48.276,-27.566 -69.584,-28.554c-30.197,-1.401 -63.083,12.412 -85.906,34.143c-15.897,15.137 -26.842,33.997 -29.631,53.768c-5.885,41.722 9.867,77.777 32.729,106.625c1.391,1.755 2.808,3.482 4.251,5.183c-46.891,-9.421 -102.944,-9.528 -137.226,40.106c-20.893,30.247 -22.874,66.979 -14.674,96.891c5.67,20.684 16.26,37.993 28.18,48.231c37.907,32.559 89.535,39.979 139.676,35.848c-12.067,11.899 -24.095,27.13 -32.605,44.163c-17.567,35.159 -20.829,77.108 15.334,113.482c26.919,27.076 51.332,35.516 72.508,34.235c20.242,-1.224 38.377,-11.568 54.141,-26.675c16.049,-15.379 29.656,-35.8 41.108,-53.29c6.505,46.054 32.516,83.963 82.275,99.135c38.032,11.595 71.145,3.353 93.465,-15.547c22.745,-19.26 34.777,-49.986 29.058,-84.585c-3.815,-23.077 -9.231,-37.442 -17.637,-51.24c16.17,5.877 34.43,10.877 53.152,12.868c35.551,3.782 72.507,-3.053 101.726,-32.062c40.28,-39.993 29.354,-86.413 3.713,-118.824c-15.349,-19.402 -36.152,-33.139 -53.268,-37.639c13.858,-6.217 27.881,-13.684 40.432,-22.553c33.32,-23.545 56.301,-56.472 48.031,-100.034c-7.051,-37.145 -36.44,-60.836 -70.514,-71.242c-31.825,-9.718 -67.179,-7.36 -89.5,4.227c25.535,-47.548 37.903,-105.183 -17.615,-150.462c-76.311,-62.237 -178.879,6.688 -176.298,106.216l0.134,3.789Zm-197.569,17.81c2.281,-16.17 13.759,-30.871 28.451,-41.679c15.364,-11.303 34.544,-18.425 52.534,-17.591c15.752,0.731 33.583,8.741 51.108,21.907c28.719,21.576 56.073,57.049 72.115,101.771c1.254,3.498 3.133,5.484 4.458,6.693c6.382,5.825 13.006,5.983 19.683,2.061c0.744,-0.437 7.184,-3.573 8.188,-12.928c0.298,-2.779 0.844,-19.009 0.705,-20.404c-2.07,-20.775 -5.943,-41.425 -6.485,-62.293c-1.825,-70.383 67.944,-123.533 121.908,-79.521c32.32,26.36 30.699,58.731 19.129,88.168c-8.873,22.574 -23.276,43.664 -35.283,60.44c-12.218,17.07 -21.979,30.625 -24.424,37.863c-2.267,6.713 -1.388,12.064 0.284,15.858c2.815,6.387 7.822,10.06 15.431,10.096c2.196,0.01 5.851,-0.461 9.748,-2.855c2.465,-1.514 6.535,-5.222 6.873,-5.533c19.343,-17.791 38.185,-36.065 61.15,-49.21c15.783,-9.033 42.044,-9.718 65.539,-2.543c22.378,6.834 42.871,21.184 47.502,45.579c5.59,29.446 -11.996,50.679 -34.519,66.594c-40.206,28.411 -97.042,40.583 -106.768,43.864c-7.217,2.434 -11.865,9.451 -11.292,17.046c0.572,7.594 6.221,13.835 13.721,15.159c3.672,0.648 16.913,0.274 25.364,0.579c15.909,0.573 31.868,2.334 47.56,4.976c11.744,1.978 26.319,12.535 37.346,26.473c16.067,20.309 24.183,49.426 -1.058,74.487c-21.381,21.228 -48.699,25.338 -74.715,22.571c-43.096,-4.584 -83.286,-27.703 -94.882,-34.695c-2.46,-1.483 -3.918,-2.383 -4.199,-2.535c-11.272,-6.1 -18.838,1.945 -19.67,2.764c-4.376,4.309 -7.257,11.057 -4.189,19.851c1.992,5.712 11.037,16.145 12.456,17.976c21.651,27.943 32.753,38.482 38.557,73.593c3.616,21.879 -3.329,41.532 -17.712,53.711c-14.809,12.54 -36.969,16.794 -62.202,9.1c-63.974,-19.505 -71.455,-89.552 -49.006,-154.395c2.232,-6.447 -21.278,-36.738 -31.634,-10.639c-2.765,6.969 -19.425,49.718 -30.92,66.888c-11.328,16.922 -25.084,40.398 -42.229,57.775c-10.384,10.523 -21.882,18.992 -35.469,19.813c-13.96,0.845 -29.112,-6.614 -46.857,-24.464c-23.887,-24.026 -20.757,-51.859 -9.155,-75.082c12.66,-25.339 34.858,-46.052 48.34,-52.467c30.898,-14.704 47.956,-22.328 52.042,-26.112c4.979,-4.613 6.065,-9.445 6.191,-13.013c0.167,-4.736 -1.27,-9.296 -5.389,-13.29c-2.905,-2.818 -6.88,-4.851 -11.951,-5.111c-3.693,-0.189 -12.534,2.635 -12.534,2.635c-0,-0 0.344,-0.116 0.48,-0.157c-30.365,9.164 -66.592,16.906 -101.913,16.534c-33.078,-0.349 -65.444,-7.748 -90.436,-29.214c-7.763,-6.669 -14.059,-18.286 -17.752,-31.757c-5.844,-21.32 -4.938,-47.576 9.954,-69.135c29.703,-43.004 81.817,-32.259 119.834,-22.572c22.392,5.706 37.291,15.613 50.274,22.894c11.607,6.508 22.171,11.162 33.557,12.171c2.479,0.22 4.339,-0.111 5.621,-0.429c7.665,-1.904 10.729,-6.912 12.076,-11.702c0.929,-3.309 1.321,-7.769 -1.607,-12.867c-0.469,-0.817 -2.662,-4.222 -8.206,-7.578c-10.029,-6.072 -51.261,-28.746 -79.877,-64.853c-17.48,-22.057 -30.346,-49.367 -25.846,-81.266Z" style="fill:#7e4021;"/><path d="M3285.74,2465.81c-14.734,69.185 38.489,126.171 70.382,143.81c20.505,11.341 44.262,15.739 67.694,17.705c112.259,9.422 192.039,-108.184 132.162,-208.308c-89.894,-150.319 -250.178,-47.399 -270.238,46.793Z" style="fill:#fed7dc;"/><path d="M3269.44,2462.34c-16.56,77.759 42.772,142.042 78.617,161.867c22.547,12.47 48.601,17.566 74.366,19.729c125.755,10.554 214.935,-121.31 147.86,-233.472c-30.025,-50.206 -67.554,-74.461 -105.354,-81.793c-44.169,-8.567 -89.452,6.232 -125.52,32.854c-35.792,26.417 -62.2,64.336 -69.969,100.815l-0,0Zm32.602,6.944c6.273,-29.456 28.261,-59.609 57.162,-80.94c28.623,-21.126 64.326,-33.749 99.378,-26.949c30.105,5.839 59.18,26.191 83.093,66.178c52.678,88.088 -17.7,191.435 -116.464,183.146c-21.099,-1.771 -42.558,-5.47 -61.022,-15.682c-27.941,-15.453 -75.056,-65.14 -62.147,-125.753l0,-0Z" style="fill:#7e4021;"/><path d="M3257.2,943.532c526.844,24.333 947.896,188.683 939.67,366.783c-8.226,178.099 -442.634,302.938 -969.479,278.605c-526.844,-24.333 -947.896,-188.683 -939.67,-366.782c8.226,-178.1 442.634,-302.939 969.479,-278.606Z" style="fill:#ffdab8;"/><path d="M3257.97,926.883c-296.752,-13.706 -564.403,19.737 -744.367,83.032c-90.125,31.698 -158.599,71.168 -198.952,115.539c-27.148,29.851 -42.016,62.117 -43.577,95.915c-1.561,33.798 10.269,67.298 34.55,99.524c36.092,47.901 100.636,93.515 187.455,133.385c173.364,79.614 436.793,137.585 733.545,151.291c296.753,13.706 564.404,-19.736 744.368,-83.031c90.125,-31.698 158.599,-71.168 198.952,-115.54c27.148,-29.85 42.016,-62.116 43.577,-95.914c1.561,-33.798 -10.269,-67.298 -34.55,-99.524c-36.092,-47.902 -100.636,-93.516 -187.455,-133.386c-173.364,-79.614 -436.792,-137.585 -733.545,-151.291l-0.001,0Zm-1.537,33.298c240.494,11.108 458.79,51.528 623.619,109.238c113.545,39.755 201.476,87.431 252.766,139.68c31.666,32.257 49.002,65.871 47.405,100.447c-1.597,34.575 -21.957,66.448 -56.461,95.649c-55.888,47.299 -147.839,86.667 -264.566,115.786c-169.447,42.271 -390.54,62.398 -631.034,51.29c-240.494,-11.107 -458.79,-51.528 -623.619,-109.238c-113.545,-39.754 -201.476,-87.431 -252.766,-139.679c-31.666,-32.258 -49.002,-65.871 -47.405,-100.447c1.597,-34.576 21.957,-66.448 56.461,-95.649c55.888,-47.299 147.839,-86.667 264.566,-115.787c169.447,-42.271 390.54,-62.397 631.033,-51.29l0.001,0Z" style="fill:#7e4021;"/><path d="M3274.14,718.344c61.595,1.187 121.579,4.525 179.252,9.773c63.702,5.797 73.476,-54.979 130.703,-64.482c44.354,-7.365 144.988,16.103 177.082,39.638c51.784,37.973 41.077,86.697 76.78,98.3c158.434,51.486 256.646,122.035 255.18,198.095c-2.823,146.502 -374.388,258.327 -829.228,249.562c-454.84,-8.765 -821.82,-134.822 -818.997,-281.324c2.823,-146.502 374.388,-258.327 829.228,-249.562Z" style="fill:#fff;"/><path d="M3274.46,701.68c-254.41,-4.903 -482.985,27.768 -636.753,82.86c-77.762,27.861 -136.732,61.747 -171.433,99.03c-24.545,26.371 -37.462,54.703 -38.027,84.015c-0.565,29.311 11.251,58.12 34.762,85.417c33.239,38.592 90.859,74.725 167.49,105.561c151.531,60.975 378.678,102.428 633.088,107.331c254.41,4.902 482.985,-27.768 636.753,-82.86c77.762,-27.861 136.732,-61.747 171.433,-99.03c24.545,-26.371 37.462,-54.704 38.027,-84.015c0.837,-43.454 -26.039,-86.213 -77.617,-124.412c-45.204,-33.478 -109.746,-64.075 -189.076,-89.855c-10.672,-3.468 -14.294,-12.646 -19.055,-23.027c-5.824,-12.699 -11.836,-27.391 -22.443,-42.159c-7.496,-10.436 -17.196,-20.891 -30.578,-30.704c-17.555,-12.873 -54.027,-26.182 -92.061,-34.658c-36.501,-8.134 -74.321,-11.847 -97.606,-7.98c-23.038,3.826 -39.63,14.5 -54.354,26.913c-12.748,10.747 -23.702,23.087 -38.084,30.926c-9.148,4.987 -19.901,7.771 -34.024,6.486c-29.48,-2.683 -59.56,-4.87 -90.147,-6.529c-29.649,-1.609 -59.776,-2.722 -90.295,-3.31Zm-0.642,33.327c30.126,0.581 59.864,1.679 89.131,3.267c30.175,1.637 59.849,3.795 88.932,6.441c22.023,2.004 38.733,-2.638 52.999,-10.414c13.473,-7.345 24.61,-17.769 36.128,-28.144c12.513,-11.271 25.518,-22.709 45.817,-26.08c20.266,-3.365 53.125,0.553 84.895,7.633c32.756,7.299 64.48,17.915 79.6,29.003c21.519,15.78 30.604,33.807 37.693,49.374c5.17,11.355 9.551,21.652 15.371,29.93c6.897,9.812 15.594,17.238 28.421,21.406c75.267,24.46 136.651,53.177 179.539,84.941c40.896,30.288 64.792,62.528 64.128,96.983c-0.546,28.358 -17.928,54.661 -47.508,79.208c-47.676,39.565 -126.1,73.359 -225.75,99.38c-144.531,37.74 -333.164,58.598 -538.985,54.631c-205.821,-3.966 -393.51,-32.076 -536.48,-75.356c-98.573,-29.841 -175.637,-66.631 -221.754,-108.004c-28.612,-25.668 -44.967,-52.621 -44.421,-80.979c0.547,-28.359 17.929,-54.661 47.509,-79.209c47.676,-39.564 126.1,-73.358 225.75,-99.379c144.53,-37.74 333.163,-58.598 538.985,-54.632Z" style="fill:#7e4021;"/><path d="M3661.26,714.075c45.185,7.923 79.491,27.92 76.561,44.628c-2.929,16.708 -41.992,23.84 -87.177,15.918c-45.185,-7.923 -79.492,-27.92 -76.562,-44.628c2.929,-16.708 41.993,-23.84 87.178,-15.918Z" style="fill:#7e4021;"/><path d="M3279.34,811.504c-200.695,-3.867 -381.475,16.112 -505.808,50.725c-63.928,17.797 -113.272,39.705 -143.683,63.91c-25.688,20.446 -38.671,43.157 -39.117,66.309c-0.446,23.152 11.652,46.346 36.533,67.766c29.456,25.359 77.919,49.152 141.114,69.399c122.907,39.377 302.784,66.306 503.479,70.174c200.695,3.867 381.476,-16.112 505.808,-50.725c63.928,-17.796 113.272,-39.704 143.683,-63.909c25.688,-20.447 38.671,-43.158 39.117,-66.31c0.446,-23.151 -11.652,-46.346 -36.533,-67.766c-29.456,-25.359 -77.919,-49.152 -141.114,-69.399c-122.907,-39.377 -302.783,-66.306 -503.479,-70.174l0,0Zm-0.642,33.327c162.344,3.129 310.835,21.489 425.604,49.493c79.523,19.404 142.614,43.244 182.173,70.085c25.433,17.258 41.034,34.583 40.664,53.792c-0.37,19.21 -16.627,35.921 -42.707,52.186c-40.563,25.297 -104.526,46.688 -184.737,63.014c-115.763,23.561 -264.851,36.187 -427.195,33.059c-162.344,-3.129 -310.834,-21.489 -425.604,-49.493c-79.523,-19.404 -142.614,-43.243 -182.173,-70.085c-25.433,-17.258 -41.034,-34.583 -40.664,-53.792c0.371,-19.209 16.627,-35.921 42.707,-52.186c40.563,-25.297 104.526,-46.688 184.737,-63.014c115.763,-23.561 264.851,-36.187 427.195,-33.059l0,0Z" style="fill:#7e4021;"/><path d="M3273.72,1489.26c330.696,6.373 661.603,-28.719 790.991,-196.946c48.573,-63.154 29.364,-216.071 28.424,-292.648c-2.823,146.502 -374.388,258.327 -829.228,249.562c-454.84,-8.765 -821.82,-134.822 -818.997,-281.324c-8.579,57.667 -20.724,223.044 16.766,279.84c118.228,179.116 466.707,234.861 812.044,241.516Z" style="fill:#ffe6d8;"/><path d="M3273.4,1505.93c178.867,3.447 357.787,-5.251 505.379,-40.133c130.77,-30.906 237.138,-82.697 299.144,-163.316c17.239,-22.414 27.21,-54.954 32.082,-91.808c9.394,-71.06 0.44,-158.804 -0.204,-211.206c-0.111,-9.101 -7.505,-16.43 -16.607,-16.462c-9.102,-0.031 -16.546,7.245 -16.722,16.346c-0.546,28.358 -17.928,54.661 -47.508,79.208c-47.676,39.565 -126.1,73.359 -225.75,99.38c-144.531,37.74 -333.164,58.598 -538.985,54.631c-205.821,-3.966 -393.51,-32.076 -536.48,-75.356c-98.573,-29.841 -175.637,-66.631 -221.754,-108.004c-28.612,-25.668 -44.967,-52.621 -44.421,-80.979c0.17,-8.788 -6.515,-16.197 -15.274,-16.93c-8.759,-0.733 -16.581,5.462 -17.874,14.156c-5.159,34.675 -11.584,107.547 -8.145,173.378c2.528,48.39 10.916,92.993 27.486,118.096c57.117,86.533 165.702,146.062 302.164,184.724c151.685,42.976 338.02,60.701 523.469,64.275l0,-0Zm0.642,-33.327c-182.448,-3.516 -365.794,-20.738 -515.025,-63.019c-127.55,-36.137 -230.043,-90.133 -283.431,-171.015c-14.189,-21.497 -19.852,-60.034 -22.017,-101.473c-1.659,-31.746 -0.933,-65.195 0.828,-94.861c2.67,3.615 5.541,7.206 8.612,10.771c33.239,38.592 90.859,74.725 167.49,105.561c151.531,60.975 378.678,102.428 633.088,107.331c254.41,4.902 482.985,-27.768 636.753,-82.86c77.762,-27.861 136.732,-61.747 171.433,-99.03c2.737,-2.942 5.33,-5.907 7.777,-8.896c1.42,32.832 2.349,68.705 0.16,102.577c-2.695,41.694 -9.647,80.335 -28.209,104.47c-57.956,75.353 -158.162,122.311 -280.388,151.198c-145.161,34.308 -321.151,42.636 -497.071,39.246l0,-0Z" style="fill:#7e4021;"/><path d="M1391.1,44.491c37.503,-60.853 376.94,148.201 549.665,221.989c113.416,48.451 29.636,-118.591 119.401,-225.728c87.384,-104.296 590.522,157.089 696.248,316.262c71.251,107.272 -35.466,344.131 21.803,390.489c197.588,159.943 370.959,129.561 376.57,243.121c11.922,241.28 8.083,2180.48 5.41,2351.91c-153.74,-14.13 -516.205,-282.406 -646.61,-365.691c-149.156,-95.26 -915.563,-557.9 -992.932,-688.428c-93.208,-157.251 -188.91,-2147.61 -129.555,-2243.92Zm818.47,219.052c-39.365,42.365 16.962,115.208 86.047,156.993c70.849,42.85 227.683,119.298 267.496,53.551c32.18,-53.142 -28.32,-111.476 -123.295,-170.951c-119.063,-74.56 -200.623,-71.476 -230.248,-39.593Z" style="fill:#e3b198;"/><path d="M1376.91,35.747c-5.928,9.619 -11.529,36.066 -14.797,76.721c-6.899,85.819 -7.596,240.645 -3.485,429.824c9.566,440.143 45.05,1066.78 87.876,1440.94c18.739,163.724 39.807,279.922 59.813,313.674c23.756,40.08 110.445,111.384 225.046,193.319c261.506,186.966 668.744,433.912 773.252,500.657c91.505,58.441 297.024,207.702 464.943,296.885c74.195,39.405 141.446,66.976 189.112,71.357c4.621,0.424 9.21,-1.097 12.662,-4.197c3.452,-3.101 5.456,-7.5 5.528,-12.14c2.675,-171.501 6.5,-2111.6 -5.428,-2352.99c-2.574,-52.103 -34.34,-79.175 -87.953,-102.982c-69.203,-30.731 -177.759,-57.548 -294.776,-152.27c-6.303,-5.102 -8.778,-13.966 -10.269,-24.874c-3.095,-22.641 0.028,-52.905 4.415,-86.605c7.027,-53.982 17.515,-116.202 15.495,-171.461c-1.447,-39.575 -9.379,-75.709 -28.048,-103.816c-75.397,-113.514 -348.718,-278.808 -536.74,-330.869c-50.046,-13.857 -94.264,-19.669 -127.569,-15.252c-25.84,3.428 -45.728,13.016 -58.598,28.377c-47.372,56.54 -49.954,128.587 -54.654,180.407c-1.218,13.433 -2.565,25.288 -5.409,34.681c-1.645,5.429 -3.242,9.988 -7.146,12.102c-2.394,1.296 -5.439,1.403 -9.206,1.01c-6.467,-0.674 -14.221,-3.063 -23.662,-7.096c-121.122,-51.742 -324.103,-169.827 -447.861,-215.145c-34.225,-12.532 -62.909,-19.498 -82.926,-19.128c-19.433,0.36 -32.554,7.41 -39.615,18.867Zm28.377,17.489c1.076,-1.745 3.307,-2.053 5.832,-2.499c4.015,-0.709 8.742,-0.686 14.102,-0.184c16.541,1.548 37.932,7.661 62.769,16.756c123.321,45.158 325.533,162.938 446.227,214.498c29.516,12.609 48.987,11.7 61.835,4.744c13.615,-7.372 22.135,-22.639 26.266,-44.669c4.514,-24.075 4.633,-57.671 10.361,-93.324c5.258,-32.731 15.424,-67.458 40.261,-97.102c8.105,-9.674 21.156,-14.581 37.43,-16.74c29.859,-3.96 69.422,1.909 114.291,14.333c181.091,50.142 445.25,207.857 517.869,317.187c15.532,23.384 21.299,53.667 22.503,86.591c1.955,53.487 -8.437,113.689 -15.239,165.94c-4.832,37.122 -7.795,70.482 -4.387,95.422c2.846,20.823 10.292,36.53 22.323,46.268c120.088,97.209 231.202,125.29 302.221,156.826c39.883,17.711 66.273,35.404 68.189,74.163c11.575,234.262 8.271,2069.85 5.623,2331.84c-42.73,-8.427 -98.054,-32.81 -158.57,-64.95c-167.107,-88.751 -371.574,-237.381 -462.637,-295.539c-104.309,-66.618 -510.796,-313.068 -771.806,-499.68c-109.335,-78.17 -193.094,-144.962 -215.758,-183.199c-19.142,-32.294 -37.441,-143.819 -55.371,-300.468c-42.735,-373.369 -78.122,-998.671 -87.667,-1437.88c-4.079,-187.685 -3.459,-341.288 3.385,-426.43c1.694,-21.074 3.742,-37.796 6.248,-49.592c1.209,-5.691 2.218,-9.905 3.7,-12.31Zm792.072,198.962c-20.338,21.888 -22.126,49.934 -9.768,79.333c15.462,36.782 54.741,76.255 99.4,103.266c51.457,31.122 146.853,78.746 213.494,81.469c34.464,1.408 61.93,-8.851 76.883,-33.546c16.175,-26.711 14.45,-54.486 -1.962,-82.959c-20.572,-35.691 -66.904,-73.278 -126.743,-110.751c-75.151,-47.061 -136.322,-64.091 -179.788,-63.442c-33.233,0.496 -57.219,11.244 -71.516,26.63Zm24.419,22.69c9.407,-10.123 25.73,-15.664 47.595,-15.99c39.171,-0.585 93.873,15.952 161.598,58.363c45.605,28.559 83.109,56.625 105.172,84.15c17.802,22.207 25.18,43.455 12.712,64.043c-5.509,9.098 -14.496,13.889 -25.358,16.09c-13.827,2.8 -30.337,1.586 -48.118,-1.916c-58.742,-11.569 -129.911,-48.419 -171.137,-73.354c-38.245,-23.131 -72.681,-56.16 -85.922,-87.66c-6.782,-16.133 -7.702,-31.715 3.458,-43.726Z" style="fill:#7e4021;"/><path d="M2726.98,764.394c3.813,-2.287 26.915,-16.119 37.788,-22.116c8.055,-4.443 10.987,-14.589 6.544,-22.644c-4.442,-8.055 -14.588,-10.987 -22.643,-6.544c-13.29,7.33 -38.294,21.877 -42.754,25.362c-11.483,8.975 -5.837,20.549 -4.494,22.687c4.89,7.79 15.186,10.144 22.977,5.253c0.942,-0.591 1.804,-1.261 2.582,-1.998Zm4.696,-7.991c1.497,-5.358 0.062,-9.664 -2.024,-12.988c2.526,4.025 3.119,8.718 2.024,12.988Z" style="fill:#7e4021;"/><path d="M2733.15,424.576c3.813,-2.288 26.914,-16.119 37.788,-22.117c8.054,-4.442 10.987,-14.588 6.544,-22.643c-4.442,-8.055 -14.589,-10.987 -22.643,-6.544c-13.29,7.33 -38.294,21.877 -42.754,25.362c-11.484,8.975 -5.837,20.549 -4.495,22.687c4.891,7.79 15.187,10.144 22.978,5.253c0.941,-0.591 1.804,-1.261 2.582,-1.998Zm4.695,-7.991c1.498,-5.358 0.063,-9.664 -2.024,-12.988c2.527,4.025 3.12,8.718 2.024,12.988Z" style="fill:#7e4021;"/><path d="M3104.07,981.835c3.813,-2.287 26.914,-16.118 37.788,-22.116c8.054,-4.442 10.987,-14.589 6.544,-22.643c-4.442,-8.055 -14.589,-10.987 -22.643,-6.545c-13.29,7.331 -38.294,21.878 -42.754,25.363c-11.484,8.975 -5.837,20.548 -4.495,22.686c4.891,7.791 15.187,10.145 22.978,5.254c0.941,-0.591 1.804,-1.262 2.582,-1.999Zm4.695,-7.99c1.498,-5.359 0.063,-9.665 -2.024,-12.988c2.527,4.024 3.12,8.718 2.024,12.988Z" style="fill:#7e4021;"/><path d="M1336.86,63.777c37.504,-60.854 376.94,148.201 549.666,221.988c113.415,48.451 29.635,-118.59 119.4,-225.727c87.384,-104.297 590.523,157.088 696.248,316.262c71.251,107.271 -35.466,344.13 21.804,390.488c197.588,159.943 370.958,129.562 376.569,243.121c11.923,241.28 8.084,2180.48 5.41,2351.91c-153.74,-14.13 -516.205,-282.406 -646.61,-365.691c-149.156,-95.26 -915.563,-557.9 -992.931,-688.428c-93.208,-157.251 -188.91,-2147.61 -129.556,-2243.92Zm818.47,219.051c-39.365,42.365 16.962,115.209 86.048,156.993c70.848,42.85 227.682,119.299 267.495,53.551c32.18,-53.142 -28.32,-111.476 -123.295,-170.951c-119.063,-74.56 -200.622,-71.476 -230.248,-39.593Z" style="fill:#e3b198;"/><path d="M1322.67,55.032c-5.928,9.619 -11.529,36.066 -14.797,76.721c-6.898,85.819 -7.596,240.645 -3.484,429.824c9.565,440.143 45.049,1066.78 87.875,1440.94c18.74,163.724 39.807,279.922 59.813,313.674c23.757,40.08 110.445,111.384 225.046,193.319c261.506,186.966 668.744,433.913 773.252,500.657c91.505,58.441 297.024,207.703 464.943,296.885c74.195,39.405 141.446,66.976 189.113,71.357c4.62,0.425 9.209,-1.096 12.661,-4.197c3.453,-3.101 5.456,-7.5 5.529,-12.14c2.675,-171.501 6.499,-2111.6 -5.428,-2352.99c-2.575,-52.103 -34.34,-79.174 -87.954,-102.982c-69.203,-30.73 -177.758,-57.547 -294.776,-152.27c-6.302,-5.102 -8.778,-13.966 -10.269,-24.874c-3.094,-22.641 0.028,-52.905 4.415,-86.605c7.027,-53.982 17.516,-116.202 15.495,-171.461c-1.447,-39.574 -9.378,-75.709 -28.048,-103.816c-75.397,-113.513 -348.718,-278.808 -536.74,-330.869c-50.046,-13.857 -94.264,-19.668 -127.569,-15.251c-25.84,3.427 -45.728,13.015 -58.597,28.376c-47.373,56.541 -49.955,128.587 -54.655,180.408c-1.218,13.433 -2.564,25.287 -5.409,34.68c-1.644,5.429 -3.241,9.988 -7.145,12.102c-2.394,1.296 -5.44,1.404 -9.207,1.011c-6.466,-0.675 -14.221,-3.063 -23.662,-7.096c-121.121,-51.743 -324.102,-169.828 -447.86,-215.145c-34.226,-12.533 -62.91,-19.499 -82.926,-19.129c-19.434,0.36 -32.555,7.41 -39.616,18.867Zm28.378,17.489c1.075,-1.745 3.306,-2.053 5.831,-2.499c4.015,-0.709 8.743,-0.686 14.102,-0.184c16.541,1.548 37.932,7.662 62.769,16.756c123.321,45.158 325.533,162.938 446.227,214.498c29.516,12.609 48.988,11.701 61.835,4.744c13.615,-7.372 22.135,-22.639 26.266,-44.669c4.514,-24.075 4.634,-57.671 10.361,-93.324c5.259,-32.731 15.424,-67.458 40.261,-97.102c8.105,-9.673 21.156,-14.581 37.43,-16.739c29.86,-3.961 69.423,1.908 114.292,14.332c181.091,50.142 445.25,207.858 517.868,317.187c15.532,23.384 21.299,53.667 22.503,86.591c1.956,53.487 -8.437,113.69 -15.238,165.94c-4.833,37.122 -7.796,70.482 -4.387,95.422c2.846,20.823 10.291,36.53 22.322,46.269c120.088,97.208 231.202,125.289 302.221,156.826c39.883,17.71 66.274,35.403 68.189,74.162c11.575,234.262 8.272,2069.85 5.623,2331.84c-42.73,-8.427 -98.054,-32.81 -158.57,-64.95c-167.107,-88.751 -371.574,-237.38 -462.636,-295.538c-104.31,-66.619 -510.796,-313.069 -771.807,-499.68c-109.335,-78.17 -193.093,-144.962 -215.758,-183.2c-19.142,-32.294 -37.441,-143.819 -55.371,-300.468c-42.735,-373.368 -78.122,-998.671 -87.667,-1437.88c-4.079,-187.685 -3.459,-341.288 3.385,-426.429c1.694,-21.075 3.743,-37.797 6.248,-49.593c1.209,-5.691 2.218,-9.905 3.701,-12.31Zm792.072,198.963c-20.339,21.888 -22.127,49.933 -9.769,79.332c15.462,36.783 54.742,76.256 99.4,103.266c51.458,31.122 146.853,78.747 213.495,81.469c34.463,1.408 61.929,-8.851 76.883,-33.546c16.174,-26.711 14.449,-54.486 -1.962,-82.959c-20.572,-35.691 -66.904,-73.278 -126.744,-110.75c-75.151,-47.062 -136.321,-64.092 -179.787,-63.443c-33.233,0.497 -57.22,11.244 -71.516,26.631Zm24.418,22.689c9.407,-10.123 25.73,-15.663 47.595,-15.99c39.172,-0.585 93.873,15.953 161.599,58.364c45.605,28.558 83.108,56.624 105.172,84.149c17.801,22.207 25.179,43.455 12.712,64.044c-5.509,9.097 -14.496,13.889 -25.359,16.089c-13.827,2.8 -30.337,1.587 -48.117,-1.915c-58.742,-11.57 -129.911,-48.42 -171.138,-73.354c-38.245,-23.132 -72.681,-56.161 -85.922,-87.661c-6.781,-16.133 -7.702,-31.715 3.458,-43.726Z" style="fill:#7e4021;"/><path d="M1008.72,1552.37c522.762,7.15 753.342,-92.691 882.192,-187.427c39.165,-28.796 91.363,-129.036 48.528,-257.26c-8.226,178.1 -442.635,302.939 -969.479,278.606c-526.844,-24.333 -947.896,-188.683 -939.67,-366.782c-22.799,96.784 -16.771,191.365 16.957,232.114c108.889,131.554 339.898,292.247 961.472,300.749Z" style="fill:#ffe6d8;"/><path d="M1008.49,1569.03c237.725,3.252 415.446,-15.545 550.836,-45.84c166.358,-37.223 269.46,-91.889 341.457,-144.825c25.86,-19.013 57.766,-66.073 68.004,-131.59c6.495,-41.573 4.405,-90.656 -13.541,-144.377c-2.543,-7.614 -10.152,-12.333 -18.103,-11.227c-7.95,1.105 -13.984,7.72 -14.354,15.739c-1.597,34.575 -21.957,66.448 -56.461,95.649c-55.888,47.298 -147.84,86.667 -264.566,115.786c-169.447,42.271 -390.54,62.398 -631.034,51.29c-240.494,-11.107 -458.79,-51.528 -623.619,-109.238c-113.545,-39.755 -201.476,-87.431 -252.766,-139.679c-31.666,-32.258 -49.002,-65.871 -47.405,-100.447c0.397,-8.599 -5.819,-16.085 -14.344,-17.276c-8.525,-1.19 -16.554,4.307 -18.528,12.685c-12.34,52.386 -16.463,104.156 -12.68,147.683c3.691,42.474 15.207,77.358 33.021,98.881c62.582,75.608 164.425,160.918 354.613,222.438c146.116,47.265 345.011,80.594 619.47,84.348l0,0Zm0.456,-33.33c-270.099,-3.695 -465.872,-36.22 -609.667,-82.733c-181.728,-58.784 -279.395,-139.732 -339.194,-211.978c-14.431,-17.435 -22.501,-46.104 -25.491,-80.512c-1.679,-19.326 -1.649,-40.399 0.092,-62.447c3.96,6.792 8.464,13.536 13.504,20.226c36.092,47.902 100.636,93.516 187.455,133.386c173.364,79.614 436.792,137.585 733.545,151.291c296.753,13.706 564.404,-19.736 744.368,-83.031c90.125,-31.698 158.599,-71.169 198.952,-115.54c9.722,-10.689 17.869,-21.689 24.394,-32.958c3.029,25.303 2.285,48.873 -1.051,70.225c-8.487,54.314 -33.378,94.119 -54.815,109.881c-69.339,50.981 -168.774,103.302 -328.99,139.151c-133.486,29.868 -308.721,48.245 -543.102,45.039l-0,-0Z" style="fill:#7e4021;"/><path d="M1008.72,1552.37c456.63,6.246 690.327,-69.143 828.023,-151.456c12.223,-7.307 -151.959,1333.86 -298.823,1789.54c-73.393,227.716 -1024.73,205.714 -1093.06,29.93c-119.285,-306.863 -341.617,-1907.27 -300.921,-1876.4c137.821,104.545 384.907,201.82 864.783,208.384Z" style="fill:#c48464;"/><path d="M1008.95,1535.7c-225.08,-3.079 -398.579,-26.187 -533.415,-60.734c-148.864,-38.141 -250.155,-90.126 -321.524,-144.264c-5.727,-4.345 -11.291,-4.515 -16.093,-3.135c-4.167,1.199 -11.972,5.63 -14.237,18.49c-1.871,10.623 -1.644,35.712 0.901,72.579c8.578,124.234 41.624,389.87 84.846,682.391c66.569,450.53 157.436,964.705 219.898,1125.39c11.911,30.642 46.863,58.425 99.457,80.26c106.916,44.388 288.966,68.221 470.068,66.658c153.241,-1.322 305.737,-20.803 411.396,-60.513c75.764,-28.474 127.758,-68.3 143.538,-117.26c73.65,-228.513 151.74,-679.134 209.77,-1071.58c41.436,-280.231 72.675,-530.749 84.85,-649.209c3.362,-32.721 5.273,-55.54 5.595,-66.37c0.171,-5.754 -0.281,-9.454 -0.667,-11.019c-2.161,-8.747 -8.124,-11.316 -11.299,-12.348c-4.3,-1.397 -8.977,-1.339 -13.841,1.569c-71.831,42.94 -170.28,83.838 -313.903,111.971c-128.354,25.141 -292.458,40.037 -505.34,37.125l-0,-0Zm-853.236,-162.571c72.485,50.428 171.726,98.303 311.548,134.128c136.816,35.054 312.846,58.649 541.232,61.773l0,0c215.777,2.951 382.104,-12.26 512.203,-37.744c131.861,-25.828 226.837,-62.259 298.479,-101.196c-1.802,21.526 -5.127,53.992 -9.779,95.298c-25.526,226.646 -90.957,717.483 -166.682,1131.01c-38.858,212.201 -80.387,403.994 -120.656,528.938c-13.335,41.374 -59.514,72.22 -123.538,96.282c-102.705,38.6 -251.001,57.099 -399.958,58.384c-176.03,1.519 -353.079,-20.967 -457.001,-64.112c-41.92,-17.404 -71.673,-37.127 -81.167,-61.551c-36.1,-92.867 -81.535,-304.909 -126.355,-554.07c-75.678,-420.704 -149.181,-946.864 -171.527,-1187.32c-4.07,-43.792 -6.477,-77.888 -6.799,-99.826Z" style="fill:#7e4021;"/><path d="M163.781,1653.56c92.641,64.671 385.826,174.333 806.479,201.167c409.611,26.13 746.935,-13.708 829.164,-87.978c-33.747,263.297 -87.336,620.044 -150.439,900.903c-10.689,47.571 -337.227,138.74 -673.168,128.695c-322.148,-9.632 -654.188,-117.946 -667.567,-190.128c-54.474,-293.909 -112.227,-684.189 -144.469,-952.659Z" style="fill:#a9c966;"/><path d="M173.321,1639.89c-5.388,-3.761 -12.482,-4.006 -18.116,-0.626c-5.633,3.381 -8.755,9.756 -7.972,16.279c16.476,137.194 39.607,306.165 65.56,477.857c24.889,164.656 52.373,331.814 79.07,475.852c2.97,16.024 17.361,34.661 43.527,52.607c43.059,29.532 119.79,60.858 215.138,87.188c121.855,33.651 274.391,59.459 424.791,63.955c150.879,4.512 299.879,-11.211 419.716,-34.284c117.125,-22.552 206.697,-52.505 244.398,-77.219c15.849,-10.389 23.841,-21.419 25.813,-30.197c31.069,-138.281 59.841,-294.918 85.08,-449.788c26.11,-160.216 48.441,-318.54 65.63,-452.65c0.886,-6.917 -2.628,-13.656 -8.808,-16.888c-6.18,-3.232 -13.719,-2.274 -18.895,2.401c-16.95,15.309 -45.773,28.629 -84.213,40.467c-57.518,17.713 -135.757,31.351 -229.168,40.112c-140.105,13.141 -314.052,15.222 -503.551,3.134c-193.96,-12.373 -360.645,-42.453 -492.792,-77.581c-150.922,-40.119 -256.423,-86.563 -305.208,-120.619Zm11.199,46.102c58.094,32.618 155.395,72.16 285.446,106.732c133.875,35.587 302.735,66.097 499.233,78.632c191.469,12.214 367.224,10.066 508.786,-3.212c96.152,-9.018 176.66,-23.21 235.867,-41.443c25.301,-7.792 46.851,-16.43 64.328,-25.692c-16.44,125.601 -37.033,269.589 -60.754,415.144c-25.102,154.03 -53.705,309.816 -84.599,447.378c-0.379,0.474 -2.551,3.152 -4.4,4.732c-6.528,5.58 -16.618,11.4 -29.68,17.523c-43.628,20.454 -118.007,42.484 -210.014,60.199c-117.754,22.673 -264.162,38.132 -412.418,33.699c-147.611,-4.414 -297.318,-29.741 -416.914,-62.767c-90.833,-25.084 -164.138,-54.414 -205.157,-82.547c-9.571,-6.565 -17.25,-12.966 -22.68,-19.258c-3.607,-4.18 -6.204,-8.041 -6.926,-11.934c-26.636,-143.708 -54.055,-310.483 -78.886,-474.76c-23.767,-157.232 -45.164,-312.177 -61.232,-442.426Z" style="fill:#7e4021;"/><path d="M1026.21,2563.64c189.428,-188.878 89.608,-361.897 27.904,-442.548c-175.31,-229.144 -497.551,-127.437 -584.671,109.758c-121.552,330.944 285.528,603.241 556.767,332.79Z" style="fill:#fee4a8;"/><path d="M1037.98,2575.44c79.484,-79.253 109.924,-156.098 114.291,-224.891c6.546,-103.105 -46.113,-188.866 -84.918,-239.586c-183.914,-240.39 -522.157,-134.697 -613.553,114.139c-76.626,208.626 46.761,395.038 219.235,449.435c114.674,36.168 251.259,14.259 364.945,-99.097l0,-0Zm-23.536,-23.605c-103.305,103.005 -227.18,123.778 -331.383,90.913c-155.841,-49.152 -267.208,-217.647 -197.971,-406.153c82.844,-225.556 389.082,-323.277 555.789,-105.378c35.241,46.062 84.07,123.586 78.126,217.22c-3.959,62.367 -32.502,131.549 -104.561,203.398l0,0Z" style="fill:#7e4021;"/><path d="M1000.42,2474.2c-8.168,21.732 -35.332,31.658 -60.621,22.152c-25.289,-9.505 -39.189,-34.866 -31.021,-56.597c8.168,-21.732 35.331,-31.658 60.621,-22.152c25.289,9.505 39.189,34.866 31.021,56.597Z" style="fill:#f8a5b0;"/><path d="M632.655,2381.64c-1.974,23.132 -25.432,40.047 -52.351,37.749c-26.919,-2.297 -47.17,-22.943 -45.196,-46.075c1.975,-23.131 25.432,-40.046 52.351,-37.749c26.919,2.298 47.17,22.944 45.196,46.075Z" style="fill:#f8a5b0;"/><path d="M1015.43,2299.43c-18.066,-7.281 -40.404,2.283 -48.877,23.307c-8.474,21.023 0.989,43.405 19.055,50.686c18.066,7.281 40.405,-2.283 48.878,-23.307c8.473,-21.024 -0.99,-43.405 -19.056,-50.686Zm-415.337,-77.497c-18.066,-7.282 -40.404,2.283 -48.877,23.307c-8.473,21.023 0.99,43.405 19.056,50.686c18.066,7.281 40.404,-2.284 48.877,-23.307c8.473,-21.024 -0.99,-43.405 -19.056,-50.686Z" style="fill:#7e4021;"/><path d="M697.056,2372.58c-10.238,34.047 14.159,77.271 51.824,83.907c40.085,7.064 80.245,-21.358 86.555,-59.729c1.493,-9.077 -4.664,-17.658 -13.741,-19.15c-9.076,-1.493 -17.657,4.664 -19.15,13.741c-3.466,21.075 -25.862,36.19 -47.879,32.311c-18.634,-3.283 -30.753,-24.637 -25.688,-41.48c2.65,-8.809 -2.351,-18.111 -11.16,-20.76c-8.809,-2.65 -18.112,2.351 -20.761,11.16Z" style="fill:#7e4021;"/><path d="M999.768,740.897c526.845,24.333 947.897,188.683 939.671,366.782c-8.226,178.1 -442.635,302.939 -969.479,278.606c-526.844,-24.333 -947.896,-188.683 -939.67,-366.782c8.225,-178.1 442.634,-302.939 969.478,-278.606Z" style="fill:#ffdab8;"/><path d="M1000.54,724.248c-296.753,-13.706 -564.403,19.737 -744.367,83.032c-90.126,31.697 -158.599,71.168 -198.952,115.539c-27.148,29.851 -42.016,62.117 -43.577,95.915c-1.561,33.798 10.269,67.297 34.55,99.523c36.092,47.902 100.636,93.516 187.455,133.386c173.364,79.614 436.792,137.585 733.545,151.291c296.753,13.706 564.404,-19.736 744.368,-83.031c90.125,-31.698 158.599,-71.169 198.952,-115.54c27.148,-29.85 42.016,-62.117 43.577,-95.915c1.561,-33.798 -10.27,-67.297 -34.551,-99.523c-36.092,-47.902 -100.635,-93.516 -187.455,-133.386c-173.363,-79.614 -436.792,-137.585 -733.544,-151.291l-0.001,0Zm-1.537,33.298c240.494,11.108 458.79,51.528 623.619,109.238c113.545,39.755 201.476,87.431 252.766,139.68c31.666,32.257 49.002,65.871 47.405,100.447c-1.597,34.575 -21.957,66.448 -56.461,95.649c-55.888,47.298 -147.84,86.667 -264.566,115.786c-169.447,42.271 -390.54,62.398 -631.034,51.29c-240.494,-11.107 -458.79,-51.528 -623.619,-109.238c-113.545,-39.755 -201.476,-87.431 -252.766,-139.679c-31.666,-32.258 -49.002,-65.871 -47.405,-100.447c1.597,-34.576 21.957,-66.449 56.461,-95.65c55.888,-47.298 147.839,-86.667 264.566,-115.786c169.446,-42.271 390.539,-62.397 631.033,-51.29l0.001,0Z" style="fill:#7e4021;"/><path d="M1016.71,515.708c61.595,1.187 121.579,4.525 179.252,9.774c63.702,5.797 73.476,-54.979 130.703,-64.482c44.354,-7.365 144.988,16.103 177.082,39.637c51.784,37.974 41.076,86.698 76.78,98.3c158.434,51.486 256.646,122.036 255.18,198.096c-2.823,146.502 -374.388,258.327 -829.228,249.562c-454.84,-8.765 -821.82,-134.822 -818.997,-281.325c2.823,-146.502 374.387,-258.327 829.228,-249.562Z" style="fill:#fff;"/><path d="M1017.03,499.045c-254.41,-4.903 -482.985,27.768 -636.753,82.86c-77.762,27.86 -136.732,61.747 -171.433,99.03c-24.545,26.371 -37.462,54.703 -38.027,84.014c-0.565,29.311 11.251,58.121 34.762,85.417c33.239,38.593 90.859,74.726 167.49,105.562c151.531,60.975 378.678,102.428 633.088,107.33c254.41,4.903 482.985,-27.767 636.753,-82.859c77.762,-27.861 136.732,-61.747 171.433,-99.031c24.544,-26.371 37.462,-54.703 38.026,-84.014c0.838,-43.454 -26.038,-86.213 -77.616,-124.412c-45.204,-33.479 -109.746,-64.076 -189.076,-89.855c-10.672,-3.468 -14.294,-12.646 -19.055,-23.027c-5.824,-12.699 -11.836,-27.391 -22.443,-42.159c-7.496,-10.436 -17.197,-20.891 -30.578,-30.704c-17.555,-12.874 -54.027,-26.183 -92.061,-34.658c-36.501,-8.134 -74.321,-11.847 -97.606,-7.98c-23.038,3.825 -39.63,14.5 -54.354,26.913c-12.748,10.747 -23.703,23.087 -38.084,30.926c-9.148,4.986 -19.902,7.771 -34.024,6.486c-29.48,-2.683 -59.56,-4.87 -90.147,-6.53c-29.649,-1.608 -59.776,-2.721 -90.295,-3.309Zm-0.643,33.327c30.127,0.581 59.865,1.679 89.132,3.267c30.175,1.637 59.849,3.794 88.932,6.441c22.023,2.004 38.733,-2.639 52.999,-10.415c13.473,-7.344 24.61,-17.768 36.128,-28.143c12.513,-11.271 25.518,-22.709 45.817,-26.08c20.266,-3.366 53.125,0.553 84.895,7.632c32.756,7.3 64.48,17.916 79.6,29.004c21.519,15.78 30.604,33.807 37.692,49.374c5.171,11.355 9.552,21.652 15.372,29.93c6.897,9.811 15.594,17.238 28.421,21.406c75.267,24.459 136.651,53.177 179.539,84.941c40.896,30.288 64.792,62.528 64.128,96.983c-0.546,28.358 -17.928,54.661 -47.508,79.208c-47.676,39.565 -126.1,73.358 -225.75,99.379c-144.531,37.741 -333.164,58.599 -538.985,54.632c-205.821,-3.966 -393.51,-32.076 -536.48,-75.356c-98.573,-29.841 -175.637,-66.631 -221.754,-108.004c-28.612,-25.668 -44.967,-52.621 -44.421,-80.979c0.547,-28.359 17.928,-54.662 47.508,-79.209c47.677,-39.565 126.101,-73.358 225.751,-99.379c144.53,-37.74 333.163,-58.598 538.984,-54.632Z" style="fill:#7e4021;"/><path d="M1403.83,511.44c45.185,7.923 79.491,27.92 76.561,44.628c-2.929,16.708 -41.992,23.84 -87.177,15.918c-45.186,-7.923 -79.492,-27.92 -76.562,-44.628c2.929,-16.708 41.992,-23.841 87.178,-15.918Z" style="fill:#7e4021;"/><path d="M1021.92,608.869c-200.695,-3.867 -381.476,16.112 -505.808,50.725c-63.928,17.796 -113.272,39.704 -143.683,63.909c-25.688,20.447 -38.671,43.158 -39.117,66.31c-0.446,23.151 11.652,46.346 36.533,67.766c29.456,25.359 77.919,49.152 141.114,69.399c122.907,39.377 302.783,66.306 503.479,70.174c200.695,3.867 381.475,-16.112 505.808,-50.725c63.928,-17.797 113.272,-39.705 143.683,-63.91c25.688,-20.446 38.671,-43.157 39.117,-66.309c0.446,-23.152 -11.652,-46.346 -36.533,-67.767c-29.456,-25.358 -77.919,-49.151 -141.114,-69.398c-122.907,-39.377 -302.783,-66.306 -503.479,-70.174l0,0Zm-0.642,33.327c162.344,3.129 310.834,21.489 425.604,49.493c79.523,19.404 142.614,43.243 182.173,70.085c25.433,17.258 41.034,34.583 40.664,53.792c-0.37,19.209 -16.627,35.921 -42.707,52.186c-40.563,25.297 -104.526,46.688 -184.737,63.013c-115.763,23.562 -264.851,36.188 -427.195,33.059c-162.344,-3.128 -310.835,-21.488 -425.604,-49.493c-79.523,-19.403 -142.614,-43.243 -182.173,-70.084c-25.433,-17.258 -41.034,-34.583 -40.664,-53.792c0.37,-19.21 16.627,-35.921 42.707,-52.186c40.563,-25.297 104.526,-46.688 184.737,-63.014c115.763,-23.561 264.851,-36.187 427.195,-33.059l0,0Z" style="fill:#7e4021;"/><path d="M1016.29,1286.63c330.695,6.373 661.603,-28.719 790.991,-196.947c48.573,-63.153 29.364,-216.07 28.424,-292.647c-2.823,146.502 -374.388,258.327 -829.228,249.562c-454.84,-8.765 -821.82,-134.822 -818.997,-281.325c-8.579,57.668 -20.724,223.045 16.765,279.841c118.229,179.115 466.708,234.861 812.045,241.516Z" style="fill:#ffe6d8;"/><path d="M1015.97,1303.29c178.867,3.447 357.787,-5.251 505.379,-40.133c130.769,-30.906 237.138,-82.697 299.144,-163.317c17.239,-22.413 27.21,-54.953 32.082,-91.808c9.394,-71.059 0.44,-158.803 -0.204,-211.205c-0.111,-9.101 -7.505,-16.43 -16.607,-16.462c-9.102,-0.032 -16.546,7.245 -16.722,16.346c-0.546,28.358 -17.928,54.661 -47.508,79.208c-47.676,39.565 -126.1,73.358 -225.75,99.379c-144.531,37.741 -333.164,58.599 -538.985,54.632c-205.821,-3.966 -393.51,-32.076 -536.48,-75.356c-98.573,-29.841 -175.637,-66.631 -221.754,-108.004c-28.612,-25.668 -44.967,-52.621 -44.421,-80.979c0.17,-8.788 -6.515,-16.197 -15.274,-16.93c-8.759,-0.733 -16.581,5.462 -17.874,14.156c-5.159,34.675 -11.584,107.547 -8.145,173.378c2.528,48.39 10.916,92.993 27.486,118.096c57.117,86.533 165.702,146.062 302.164,184.724c151.685,42.976 338.02,60.701 523.469,64.275l0,-0Zm0.642,-33.327c-182.448,-3.516 -365.794,-20.738 -515.025,-63.019c-127.55,-36.138 -230.043,-90.134 -283.431,-171.016c-14.189,-21.496 -19.853,-60.034 -22.017,-101.472c-1.659,-31.746 -0.933,-65.195 0.828,-94.861c2.67,3.615 5.541,7.206 8.612,10.77c33.239,38.593 90.859,74.726 167.49,105.562c151.531,60.975 378.678,102.428 633.088,107.33c254.41,4.903 482.985,-27.767 636.753,-82.859c77.762,-27.861 136.732,-61.747 171.433,-99.031c2.737,-2.941 5.33,-5.906 7.777,-8.895c1.419,32.832 2.349,68.705 0.16,102.577c-2.695,41.694 -9.647,80.335 -28.209,104.469c-57.956,75.354 -158.162,122.312 -280.389,151.199c-145.16,34.307 -321.15,42.636 -497.07,39.246l0,-0Z" style="fill:#7e4021;"/><path d="M2087.17,2184.71c522.761,7.151 753.342,-92.691 882.192,-187.427c39.165,-28.796 91.363,-129.035 48.528,-257.259c-8.226,178.1 -442.635,302.939 -969.479,278.605c-526.844,-24.333 -947.896,-188.682 -939.67,-366.782c-22.799,96.785 -16.771,191.366 16.957,232.115c108.889,131.554 339.897,292.247 961.472,300.748Z" style="fill:#ffe6d8;"/><path d="M2086.94,2201.37c237.725,3.251 415.446,-15.546 550.836,-45.84c166.358,-37.224 269.46,-91.89 341.457,-144.825c25.86,-19.013 57.766,-66.073 68.003,-131.591c6.496,-41.572 4.406,-90.656 -13.54,-144.377c-2.543,-7.613 -10.152,-12.332 -18.103,-11.227c-7.95,1.105 -13.984,7.721 -14.354,15.739c-1.597,34.576 -21.957,66.448 -56.461,95.649c-55.888,47.299 -147.84,86.667 -264.566,115.786c-169.447,42.271 -390.54,62.398 -631.034,51.291c-240.494,-11.108 -458.79,-51.529 -623.619,-109.239c-113.545,-39.754 -201.476,-87.43 -252.767,-139.679c-31.665,-32.257 -49.001,-65.871 -47.404,-100.447c0.397,-8.598 -5.819,-16.085 -14.344,-17.275c-8.525,-1.191 -16.554,4.306 -18.528,12.685c-12.34,52.386 -16.463,104.156 -12.68,147.682c3.691,42.474 15.207,77.358 33.021,98.881c62.582,75.609 164.425,160.918 354.613,222.439c146.116,47.264 345.011,80.594 619.47,84.348l0,-0Zm0.456,-33.331c-270.099,-3.694 -465.873,-36.219 -609.667,-82.733c-181.728,-58.783 -279.395,-139.732 -339.194,-211.977c-14.431,-17.436 -22.501,-46.105 -25.491,-80.513c-1.68,-19.326 -1.649,-40.398 0.092,-62.446c3.96,6.791 8.464,13.536 13.504,20.226c36.092,47.902 100.636,93.515 187.455,133.386c173.364,79.613 436.792,137.584 733.545,151.29c296.753,13.706 564.404,-19.736 744.368,-83.031c90.125,-31.698 158.598,-71.168 198.952,-115.539c9.722,-10.69 17.869,-21.689 24.394,-32.958c3.029,25.303 2.285,48.873 -1.051,70.224c-8.487,54.315 -33.378,94.119 -54.815,109.881c-69.339,50.981 -168.774,103.302 -328.99,139.152c-133.486,29.868 -308.721,48.244 -543.102,45.038l-0,0Z" style="fill:#7e4021;"/><path d="M2087.17,2184.71c456.63,6.246 690.327,-69.142 828.023,-151.455c12.223,-7.307 -151.959,1333.86 -298.823,1789.54c-73.393,227.716 -1024.73,205.714 -1093.06,29.929c-119.285,-306.863 -341.617,-1907.27 -300.921,-1876.4c137.821,104.546 384.906,201.821 864.783,208.384Z" style="fill:#c48464;"/><path d="M2087.4,2168.04c-225.08,-3.078 -398.579,-26.186 -533.415,-60.733c-148.864,-38.142 -250.155,-90.127 -321.524,-144.264c-5.727,-4.345 -11.291,-4.516 -16.093,-3.135c-4.167,1.198 -11.972,5.629 -14.237,18.49c-1.871,10.623 -1.645,35.712 0.901,72.579c8.578,124.233 41.624,389.869 84.846,682.39c66.569,450.53 157.436,964.705 219.898,1125.39c11.911,30.642 46.863,58.424 99.457,80.26c106.916,44.388 288.966,68.22 470.068,66.658c153.241,-1.323 305.737,-20.803 411.396,-60.513c75.764,-28.474 127.758,-68.3 143.538,-117.261c73.649,-228.513 151.74,-679.133 209.77,-1071.58c41.436,-280.231 72.675,-530.75 84.85,-649.21c3.362,-32.72 5.273,-55.539 5.595,-66.369c0.171,-5.755 -0.281,-9.455 -0.667,-11.019c-2.161,-8.748 -8.124,-11.316 -11.299,-12.348c-4.3,-1.397 -8.977,-1.339 -13.841,1.568c-71.831,42.94 -170.28,83.839 -313.903,111.971c-128.354,25.142 -292.458,40.037 -505.34,37.125l-0,0Zm-853.236,-162.57c72.485,50.428 171.726,98.302 311.548,134.127c136.816,35.055 312.846,58.65 541.232,61.774l0,-0c215.777,2.951 382.104,-12.261 512.203,-37.744c131.86,-25.829 226.837,-62.26 298.479,-101.196c-1.802,21.526 -5.127,53.992 -9.779,95.297c-25.526,226.646 -90.958,717.483 -166.682,1131.01c-38.858,212.201 -80.387,403.995 -120.656,528.938c-13.335,41.374 -59.514,72.221 -123.538,96.283c-102.705,38.6 -251.001,57.098 -399.958,58.384c-176.031,1.519 -353.079,-20.967 -457.001,-64.113c-41.92,-17.404 -71.673,-37.127 -81.167,-61.55c-36.1,-92.867 -81.535,-304.909 -126.355,-554.071c-75.678,-420.703 -149.181,-946.864 -171.527,-1187.31c-4.07,-43.792 -6.477,-77.889 -6.799,-99.826Z" style="fill:#7e4021;"/><path d="M1242.23,2285.9c92.641,64.671 385.826,174.333 806.479,201.167c409.611,26.13 746.935,-13.707 829.164,-87.977c-33.747,263.296 -87.336,620.044 -150.439,900.903c-10.689,47.571 -337.227,138.739 -673.168,128.695c-322.148,-9.632 -654.188,-117.947 -667.567,-190.129c-54.474,-293.908 -112.227,-684.189 -144.469,-952.659Z" style="fill:#a8ccf1;"/><path d="M1251.77,2272.24c-5.388,-3.761 -12.482,-4.006 -18.116,-0.625c-5.633,3.38 -8.756,9.755 -7.972,16.278c16.476,137.195 39.607,306.166 65.56,477.858c24.888,164.655 52.373,331.813 79.07,475.852c2.97,16.023 17.361,34.66 43.527,52.606c43.059,29.532 119.79,60.858 215.138,87.189c121.855,33.65 274.391,59.458 424.791,63.955c150.879,4.511 299.879,-11.211 419.716,-34.285c117.125,-22.552 206.697,-52.504 244.398,-77.218c15.849,-10.39 23.841,-21.419 25.813,-30.198c31.069,-138.281 59.841,-294.917 85.08,-449.787c26.11,-160.217 48.44,-318.541 65.63,-452.65c0.886,-6.918 -2.628,-13.656 -8.808,-16.888c-6.18,-3.232 -13.719,-2.274 -18.895,2.4c-16.95,15.31 -45.773,28.63 -84.213,40.468c-57.518,17.713 -135.757,31.351 -229.168,40.112c-140.105,13.141 -314.052,15.222 -503.551,3.134c-193.96,-12.373 -360.645,-42.453 -492.792,-77.582c-150.922,-40.119 -256.423,-86.563 -305.208,-120.619Zm11.199,46.102c58.094,32.618 155.395,72.161 285.446,106.732c133.875,35.588 302.735,66.097 499.233,78.632c191.469,12.214 367.224,10.066 508.786,-3.211c96.152,-9.019 176.66,-23.211 235.866,-41.444c25.302,-7.792 46.852,-16.43 64.329,-25.692c-16.44,125.602 -37.033,269.59 -60.754,415.144c-25.102,154.03 -53.705,309.817 -84.599,447.379c-0.379,0.474 -2.552,3.151 -4.4,4.732c-6.528,5.58 -16.618,11.399 -29.68,17.523c-43.628,20.454 -118.007,42.483 -210.014,60.199c-117.754,22.673 -264.162,38.131 -412.418,33.698c-147.611,-4.413 -297.318,-29.74 -416.914,-62.767c-90.833,-25.084 -164.138,-54.414 -205.157,-82.547c-9.571,-6.564 -17.25,-12.965 -22.68,-19.258c-3.607,-4.18 -6.204,-8.04 -6.926,-11.934c-26.636,-143.708 -54.055,-310.482 -78.887,-474.759c-23.766,-157.233 -45.163,-312.178 -61.231,-442.427Z" style="fill:#7e4021;"/><path d="M2423.8,3072.96c25.491,-240.56 -148.857,-456.236 -389.417,-481.727c-240.56,-25.49 -456.236,148.858 -481.727,389.418l108.893,11.538c19.118,-180.42 180.875,-311.181 361.295,-292.063c180.42,19.118 311.181,180.875 292.063,361.295l108.893,11.539Z" style="fill:#f8a5b0;"/><path d="M2422.05,3089.54c9.154,0.969 17.36,-5.665 18.33,-14.818c26.461,-249.713 -154.522,-473.596 -404.235,-500.057c-249.713,-26.46 -473.596,154.522 -500.057,404.235c-0.97,9.154 5.665,17.361 14.818,18.33l108.893,11.539c9.154,0.97 17.36,-5.664 18.33,-14.818c18.148,-171.266 171.699,-295.393 342.965,-277.245c171.266,18.148 295.393,171.698 277.245,342.965c-0.969,9.153 5.665,17.36 14.818,18.33l108.893,11.539Zm-13.383,-34.939l-75.817,-8.033c10.626,-182.793 -124.227,-343.511 -308.244,-363.01c-184.016,-19.499 -349.557,109.389 -377.475,290.349c-0,-0 -75.817,-8.034 -75.817,-8.034c32.409,-222.801 235.463,-381.992 461.319,-358.06c225.855,23.932 391.038,222.143 376.034,446.789l-0,-0.001Z" style="fill:#7e4021;"/><path d="M2320.61,3062.03c19.452,-183.569 -113.592,-348.15 -297.161,-367.602c-183.57,-19.452 -348.151,113.592 -367.603,297.162l121.558,12.881c12.337,-116.436 116.729,-200.823 233.164,-188.485c116.435,12.337 200.823,116.729 188.485,233.164l121.557,12.88Z" style="fill:#ffce7b;"/><path d="M2318.86,3078.6c9.154,0.97 17.36,-5.664 18.33,-14.817c20.422,-192.723 -119.256,-365.511 -311.979,-385.933c-192.723,-20.421 -365.511,119.257 -385.933,311.98c-0.97,9.153 5.664,17.36 14.818,18.33l121.557,12.88c9.154,0.97 17.361,-5.664 18.331,-14.817c11.367,-107.282 107.552,-185.036 214.834,-173.668c107.281,11.368 185.035,107.553 173.667,214.835c-0.97,9.153 5.664,17.36 14.818,18.33c-0,-0 121.557,12.88 121.557,12.88Zm-13.489,-34.949l-88.577,-9.386c3.999,-118.751 -84.449,-222.14 -204.464,-234.857c-120.015,-12.718 -228.167,69.84 -249.143,186.791c-0,0 -88.577,-9.385 -88.577,-9.385c26.285,-165.799 178.232,-283.709 347.088,-265.816c168.857,17.892 292.719,165.028 283.673,332.653l0,-0Z" style="fill:#7e4021;"/><path d="M2215.73,3050.91c13.314,-125.643 -77.747,-238.289 -203.39,-251.603c-125.643,-13.313 -238.29,77.748 -251.603,203.391l113.748,12.053c6.657,-62.821 62.98,-108.352 125.801,-101.695c62.822,6.657 108.352,62.98 101.696,125.801l113.748,12.053Z" style="fill:#dae1a4;"/><path d="M2213.97,3067.49c9.153,0.97 17.36,-5.664 18.33,-14.817c14.283,-134.797 -83.412,-255.65 -218.208,-269.933c-134.797,-14.284 -255.65,83.411 -269.933,218.208c-0.97,9.153 5.664,17.36 14.817,18.33l113.749,12.053c9.153,0.97 17.36,-5.664 18.33,-14.818c5.687,-53.668 53.803,-92.564 107.471,-86.877c53.668,5.686 92.565,53.803 86.878,107.471c-0.97,9.154 5.664,17.36 14.817,18.33c0,0 113.749,12.053 113.749,12.053Zm-13.703,-34.972l-81.003,-8.583c-1.345,-65.012 -50.865,-120.415 -117.225,-127.447c-66.361,-7.032 -126.392,36.763 -141.332,100.05c0,-0 -81.003,-8.584 -81.003,-8.584c19.975,-107.847 119.964,-183.819 230.875,-172.067c110.912,11.753 192.758,106.993 189.688,216.631l-0,0Z" style="fill:#7e4021;"/><path d="M1679.54,2953.62c-35.136,-42.201 -93.407,-46.567 -126.473,-7.135c-10.123,12.071 -24.558,41.795 -24.558,41.795c0,0 -67.141,20.35 -73.444,68.304c-2.56,19.475 1.361,41.757 14.376,56.99c27.849,32.595 76.54,32.872 76.54,32.872c-0,-0 6.831,54.32 64.662,75.313c1.336,0.485 2.68,0.948 4.037,1.371c6.966,2.17 13.953,3.184 21.222,3.601c47.267,2.712 80.673,-35.152 80.673,-35.152c0,0 28.623,26.657 70.641,27.425c39.098,0.714 60.028,-17.091 63.799,-21.009c35.653,-37.052 2.506,-68.85 2.506,-68.85c0,-0 57.273,-18.948 58.452,-61.123c0.179,-6.412 -0.774,-12.472 -2.747,-18.575c-4.909,-15.185 -14.837,-28.396 -27.583,-37.973c-20.23,-15.2 -63.598,-23.465 -63.598,-23.465c0,-0 -18.782,-42.064 -62.332,-56.001c-20.06,-6.419 -58.052,3.049 -76.173,21.612Z" style="fill:#fff;"/><path d="M1681.12,2931.14c-42.587,-39.182 -104.436,-38.758 -140.825,4.634c-7.962,9.494 -18.464,29.013 -23.632,39.016c-9.569,3.643 -27.358,11.42 -43.304,23.915c-17.07,13.376 -31.701,31.977 -34.82,55.706c-3.15,23.963 2.214,51.244 18.23,69.989c22.646,26.505 57.03,34.868 75.779,37.503c6.184,20.182 23.923,57.921 72.407,75.522c1.577,0.572 3.164,1.117 4.766,1.616c8.283,2.581 16.582,3.833 25.226,4.329c37.331,2.141 67.286,-17.335 82.722,-30.117c13.863,9.197 38.428,21.851 69.241,22.414c46.84,0.856 71.596,-21.423 76.113,-26.117c13.948,-14.495 19.429,-28.575 20.817,-40.903c1.422,-12.622 -1.629,-23.698 -5.661,-32.314c7.377,-3.932 15.873,-9.242 23.646,-16.001c14.488,-12.601 26.195,-29.956 26.807,-51.845c0.233,-8.341 -0.982,-16.229 -3.548,-24.167c-5.962,-18.443 -17.949,-34.539 -33.43,-46.172c-16.817,-12.635 -47.933,-21.205 -62.534,-24.72c-8.473,-14.463 -30.268,-45.115 -68.329,-57.295c-10.17,-3.254 -23.969,-3.669 -38.347,-1.031c-14.36,2.635 -29.233,8.272 -41.324,16.038Zm-14.39,33.143c3.02,3.626 7.435,5.803 12.15,5.99c4.715,0.186 9.289,-1.635 12.585,-5.012c7.194,-7.369 18.482,-12.651 29.812,-15.735c10.802,-2.941 21.762,-4.075 29.355,-1.645c36.477,11.673 52.194,46.922 52.194,46.922c2.223,4.979 6.742,8.556 12.098,9.577c0,-0 38.72,6.903 56.706,20.417c10.012,7.523 17.881,17.848 21.737,29.776c1.379,4.266 2.07,8.5 1.944,12.983c-0.331,11.854 -7.515,20.8 -15.361,27.624c-14.196,12.346 -31.665,18.141 -31.665,18.141c-5.549,1.835 -9.73,6.443 -11.02,12.144c-1.29,5.7 0.5,11.66 4.717,15.706c0,-0 10.303,9.82 8.734,23.746c-0.741,6.581 -4.266,13.782 -11.712,21.52c-3.025,3.144 -20.12,16.475 -51.485,15.902c-35.407,-0.647 -59.586,-22.957 -59.586,-22.957c-3.292,-3.066 -7.683,-4.671 -12.175,-4.451c-4.493,0.221 -8.706,2.248 -11.682,5.62c0,0 -27.782,31.802 -67.22,29.54c-5.896,-0.338 -11.57,-1.114 -17.22,-2.874c-1.111,-0.347 -2.212,-0.728 -3.307,-1.125c-47.709,-17.319 -53.813,-61.727 -53.813,-61.727c-1.044,-8.299 -8.077,-14.539 -16.442,-14.587c0,0 -40.747,0.14 -63.962,-27.031c-10.017,-11.724 -12.494,-29.005 -10.524,-43.992c1.924,-14.636 11.802,-25.562 22.331,-33.812c18.191,-14.255 39.424,-20.714 39.424,-20.714c4.446,-1.347 8.128,-4.49 10.158,-8.669c-0,-0 13.065,-27.312 22.335,-38.367c26.402,-31.484 72.841,-26.605 100.894,7.09Z" style="fill:#7e4021;"/><path d="M2168.12,3007.49c-23.081,-16.201 -56.599,-23.104 -84.193,7.238c-25.986,28.574 -6.084,54.842 -6.084,54.842c0,0 -56.331,32.227 -36.058,81.932c24.327,59.644 91.786,43.942 91.786,43.942c-0,0 2.979,35.745 28.618,50.577c44.326,25.644 81.868,-7.398 81.868,-7.398c-0,-0 77.676,55.378 125.142,19.387c32.853,-24.911 21.951,-62.605 21.951,-62.605c0,0 64.559,-1.806 80.769,-43.203c25.675,-65.569 -48.088,-90.994 -48.088,-90.994c-0,0 3.661,-46.54 -49.632,-70.593c-41.928,-18.924 -75.648,8.263 -75.648,8.263c-0,-0 -16.845,-34.947 -62.97,-35.634c-29.455,-0.438 -58.284,20.294 -67.461,44.246Z" style="fill:#fff;"/><path d="M2161.87,2984.69c-27.367,-12.693 -61.375,-12.934 -90.264,18.832c-21.577,23.726 -19.819,46.354 -14.946,60.679c-5.353,4.322 -11.644,10.113 -17.394,17.219c-14.785,18.268 -25.881,44.568 -12.904,76.385c21.08,51.684 68.725,57.012 94.195,55.846c4.371,14.729 13.752,35.499 33.295,46.805c39.009,22.567 73.761,8.298 90.56,-1.808c11.855,7.147 32.94,18.435 56.189,24.261c26.553,6.653 55.497,5.965 78.677,-11.61c25.214,-19.119 30.254,-44.137 30.227,-61.179c9.516,-1.578 21.68,-4.415 33.551,-9.498c18.636,-7.981 36.187,-21.384 44.391,-42.335c24.705,-63.092 -24.542,-96.412 -47.392,-108.013c-2.163,-18.571 -12.593,-53.901 -58.991,-74.842c-32.6,-14.714 -61.151,-6.624 -77.733,1.31c-11.235,-12.92 -32.487,-29.633 -67.493,-30.155c-29.272,-0.435 -57.946,16.186 -73.968,38.103Zm-3.316,36.449c4.203,2.951 9.532,3.798 14.444,2.298c4.911,-1.5 8.857,-5.181 10.694,-9.977c7.006,-18.283 29.165,-33.878 51.649,-33.543c34.979,0.521 48.205,26.205 48.205,26.205c2.209,4.582 6.389,7.905 11.351,9.023c4.962,1.118 10.164,-0.092 14.123,-3.284c0,-0 26.021,-20.63 58.332,-6.047c41.502,18.731 39.873,54.095 39.873,54.095c-0.596,7.572 4.003,14.589 11.184,17.064c-0,0 57.685,18.886 37.999,69.16c-4.765,12.17 -15.65,19.211 -26.475,23.847c-19.126,8.191 -39.24,8.773 -39.24,8.773c-5.155,0.144 -9.954,2.667 -12.995,6.832c-3.041,4.166 -3.982,9.504 -2.549,14.459c-0,-0 7.499,26.867 -16.011,44.694c-14.798,11.22 -33.483,10.085 -50.434,5.837c-29.598,-7.417 -54.963,-25.515 -54.963,-25.515c-6.304,-4.495 -14.874,-4.056 -20.687,1.06c0,-0 -28.673,25.058 -62.51,5.483c-18.839,-10.899 -20.355,-37.535 -20.355,-37.535c-0.402,-4.825 -2.883,-9.237 -6.797,-12.088c-3.914,-2.851 -8.874,-3.858 -13.59,-2.76c-0,-0 -53.416,12.97 -72.575,-34.004c-7.297,-17.89 -0.364,-32.554 7.95,-42.826c9.461,-11.691 20.952,-18.345 20.952,-18.345c4.16,-2.38 7.095,-6.437 8.053,-11.133c0.959,-4.696 -0.151,-9.578 -3.045,-13.399c-0,0 -10.861,-15.981 5.129,-33.564c20.4,-22.431 45.224,-16.787 62.288,-4.81Z" style="fill:#7e4021;"/><path d="M2078.22,1373.24c526.845,24.333 947.897,188.682 939.671,366.782c-8.226,178.1 -442.635,302.939 -969.479,278.605c-526.844,-24.333 -947.896,-188.682 -939.67,-366.782c8.225,-178.099 442.634,-302.938 969.478,-278.605Z" style="fill:#ffdab8;"/><path d="M2078.99,1356.59c-296.753,-13.706 -564.403,19.736 -744.367,83.031c-90.126,31.698 -158.599,71.168 -198.953,115.539c-27.147,29.851 -42.015,62.117 -43.576,95.915c-1.561,33.798 10.269,67.298 34.55,99.524c36.092,47.902 100.636,93.515 187.455,133.386c173.364,79.613 436.792,137.584 733.545,151.29c296.753,13.706 564.404,-19.736 744.368,-83.031c90.125,-31.698 158.598,-71.168 198.952,-115.539c27.148,-29.851 42.016,-62.117 43.577,-95.915c1.561,-33.798 -10.27,-67.298 -34.551,-99.524c-36.092,-47.902 -100.635,-93.515 -187.455,-133.386c-173.363,-79.613 -436.792,-137.584 -733.544,-151.29l-0.001,-0Zm-1.537,33.298c240.494,11.107 458.79,51.528 623.619,109.238c113.545,39.754 201.476,87.43 252.766,139.679c31.666,32.257 49.002,65.871 47.405,100.447c-1.597,34.576 -21.957,66.448 -56.461,95.649c-55.888,47.299 -147.84,86.667 -264.566,115.786c-169.447,42.271 -390.54,62.398 -631.034,51.291c-240.494,-11.108 -458.79,-51.529 -623.619,-109.239c-113.545,-39.754 -201.476,-87.43 -252.767,-139.679c-31.665,-32.257 -49.001,-65.871 -47.404,-100.447c1.596,-34.576 21.957,-66.448 56.461,-95.649c55.888,-47.299 147.839,-86.667 264.566,-115.786c169.446,-42.271 390.539,-62.398 631.033,-51.29l0.001,-0Z" style="fill:#7e4021;"/><path d="M2095.16,1148.05c61.595,1.187 121.579,4.525 179.252,9.773c63.702,5.798 73.476,-54.978 130.703,-64.481c44.354,-7.365 144.988,16.102 177.081,39.637c51.785,37.973 41.077,86.698 76.781,98.3c158.434,51.486 256.646,122.035 255.18,198.095c-2.823,146.502 -374.388,258.327 -829.228,249.562c-454.84,-8.765 -821.82,-134.822 -818.997,-281.324c2.823,-146.502 374.387,-258.327 829.228,-249.562Z" style="fill:#fff;"/><path d="M2095.48,1131.39c-254.411,-4.902 -482.985,27.768 -636.753,82.86c-77.762,27.861 -136.732,61.747 -171.433,99.03c-24.545,26.371 -37.462,54.704 -38.027,84.015c-0.565,29.311 11.251,58.12 34.762,85.417c33.239,38.592 90.859,74.725 167.49,105.561c151.531,60.976 378.678,102.428 633.088,107.331c254.41,4.902 482.985,-27.768 636.753,-82.86c77.762,-27.861 136.732,-61.747 171.433,-99.03c24.544,-26.371 37.462,-54.703 38.026,-84.015c0.838,-43.454 -26.038,-86.212 -77.616,-124.411c-45.204,-33.479 -109.746,-64.076 -189.077,-89.856c-10.671,-3.468 -14.293,-12.645 -19.054,-23.026c-5.824,-12.7 -11.836,-27.392 -22.443,-42.159c-7.496,-10.436 -17.197,-20.892 -30.578,-30.704c-17.556,-12.874 -54.027,-26.183 -92.061,-34.659c-36.501,-8.133 -74.322,-11.846 -97.606,-7.98c-23.038,3.826 -39.63,14.501 -54.354,26.914c-12.748,10.746 -23.703,23.086 -38.084,30.925c-9.148,4.987 -19.902,7.772 -34.025,6.486c-29.479,-2.682 -59.559,-4.87 -90.146,-6.529c-29.649,-1.609 -59.776,-2.722 -90.295,-3.31Zm-0.643,33.327c30.127,0.581 59.865,1.679 89.132,3.267c30.175,1.637 59.849,3.795 88.931,6.441c22.024,2.005 38.734,-2.638 53,-10.414c13.473,-7.344 24.61,-17.769 36.128,-28.144c12.513,-11.27 25.517,-22.709 45.817,-26.08c20.266,-3.365 53.125,0.553 84.895,7.633c32.756,7.299 64.48,17.916 79.6,29.003c21.519,15.781 30.604,33.807 37.692,49.374c5.171,11.355 9.552,21.652 15.372,29.931c6.897,9.811 15.594,17.238 28.421,21.406c75.267,24.459 136.651,53.177 179.539,84.94c40.896,30.288 64.792,62.529 64.128,96.983c-0.546,28.359 -17.928,54.661 -47.508,79.209c-47.676,39.564 -126.1,73.358 -225.75,99.379c-144.531,37.74 -333.164,58.598 -538.985,54.632c-205.821,-3.967 -393.51,-32.076 -536.48,-75.357c-98.574,-29.841 -175.637,-66.631 -221.754,-108.003c-28.612,-25.669 -44.967,-52.622 -44.421,-80.98c0.547,-28.359 17.928,-54.661 47.508,-79.208c47.677,-39.565 126.101,-73.359 225.751,-99.38c144.53,-37.74 333.163,-58.598 538.984,-54.632Z" style="fill:#7e4021;"/><path d="M2482.28,1143.78c45.185,7.922 79.491,27.919 76.561,44.627c-2.929,16.708 -41.992,23.841 -87.177,15.918c-45.186,-7.923 -79.492,-27.92 -76.562,-44.628c2.929,-16.708 41.992,-23.84 87.178,-15.917Z" style="fill:#7e4021;"/><path d="M2100.37,1241.21c-200.695,-3.868 -381.476,16.111 -505.808,50.724c-63.928,17.797 -113.272,39.705 -143.683,63.91c-25.688,20.446 -38.671,43.157 -39.117,66.309c-0.446,23.152 11.652,46.346 36.533,67.767c29.456,25.359 77.919,49.151 141.114,69.398c122.907,39.377 302.783,66.307 503.479,70.174c200.695,3.868 381.475,-16.112 505.808,-50.724c63.928,-17.797 113.272,-39.705 143.683,-63.91c25.688,-20.446 38.671,-43.157 39.117,-66.309c0.446,-23.152 -11.652,-46.346 -36.533,-67.767c-29.456,-25.359 -77.919,-49.152 -141.114,-69.398c-122.907,-39.377 -302.784,-66.307 -503.479,-70.174l0,-0Zm-0.642,33.327c162.344,3.128 310.834,21.489 425.604,49.493c79.523,19.404 142.614,43.243 182.173,70.084c25.433,17.258 41.034,34.583 40.664,53.792c-0.371,19.21 -16.627,35.921 -42.707,52.186c-40.563,25.298 -104.526,46.688 -184.737,63.014c-115.763,23.561 -264.851,36.187 -427.195,33.059c-162.344,-3.129 -310.835,-21.489 -425.604,-49.493c-79.523,-19.404 -142.615,-43.243 -182.173,-70.085c-25.434,-17.257 -41.034,-34.582 -40.664,-53.792c0.37,-19.209 16.627,-35.92 42.707,-52.185c40.563,-25.298 104.526,-46.689 184.737,-63.014c115.763,-23.562 264.851,-36.188 427.195,-33.059l-0,-0Z" style="fill:#7e4021;"/><path d="M2094.74,1918.97c330.695,6.372 661.603,-28.719 790.991,-196.947c48.573,-63.154 29.364,-216.07 28.424,-292.648c-2.823,146.502 -374.388,258.327 -829.228,249.562c-454.84,-8.765 -821.82,-134.822 -818.997,-281.324c-8.579,57.667 -20.724,223.044 16.765,279.84c118.229,179.116 466.708,234.862 812.045,241.517Z" style="fill:#ffe6d8;"/><path d="M2094.42,1935.63c178.867,3.447 357.787,-5.251 505.379,-40.133c130.769,-30.906 237.138,-82.697 299.144,-163.316c17.239,-22.414 27.21,-54.954 32.082,-91.808c9.394,-71.06 0.439,-158.804 -0.204,-211.205c-0.112,-9.102 -7.505,-16.431 -16.607,-16.462c-9.102,-0.032 -16.546,7.245 -16.722,16.345c-0.546,28.359 -17.928,54.661 -47.508,79.209c-47.676,39.564 -126.1,73.358 -225.75,99.379c-144.531,37.74 -333.164,58.598 -538.985,54.632c-205.821,-3.967 -393.51,-32.076 -536.48,-75.357c-98.574,-29.841 -175.637,-66.631 -221.754,-108.003c-28.612,-25.669 -44.967,-52.622 -44.421,-80.98c0.17,-8.788 -6.515,-16.197 -15.274,-16.93c-8.759,-0.733 -16.581,5.463 -17.875,14.157c-5.158,34.675 -11.583,107.546 -8.144,173.377c2.528,48.39 10.916,92.994 27.486,118.097c57.117,86.532 165.702,146.061 302.164,184.724c151.685,42.976 338.02,60.7 523.469,64.274l-0,0Zm0.642,-33.327c-182.448,-3.516 -365.794,-20.738 -515.025,-63.018c-127.55,-36.138 -230.043,-90.134 -283.431,-171.016c-14.189,-21.497 -19.853,-60.034 -22.017,-101.473c-1.659,-31.746 -0.933,-65.195 0.828,-94.86c2.67,3.614 5.541,7.205 8.612,10.77c33.239,38.592 90.859,74.725 167.49,105.561c151.531,60.976 378.678,102.428 633.088,107.331c254.41,4.902 482.985,-27.768 636.753,-82.86c77.762,-27.861 136.732,-61.747 171.433,-99.03c2.737,-2.941 5.33,-5.907 7.777,-8.895c1.419,32.832 2.349,68.704 0.16,102.576c-2.695,41.694 -9.647,80.336 -28.209,104.47c-57.956,75.353 -158.162,122.311 -280.389,151.199c-145.16,34.307 -321.15,42.635 -497.07,39.245l0,0Z" style="fill:#7e4021;"/><path d="M189.482,2372.08c-4.748,-0.394 1625.71,1054.66 1721.05,1043.3c80.511,-9.594 804.757,-292.177 1387.86,-576.631c416.125,-202.996 756.749,-421.558 756.749,-388.059c-0,163.133 -107.37,791.52 -176.37,928.843c-45.258,90.07 -978.654,633.178 -1227.25,731.327c-100.283,39.594 -644.614,282.707 -733.16,274.078c-144.984,-14.13 -486.804,-282.406 -609.782,-365.691c-140.66,-95.26 -863.416,-557.9 -936.377,-688.428c-87.9,-157.251 -160.68,-826.272 -182.726,-958.739Z" style="fill:#ebccb8;"/><path d="M173.291,2376.37c-1.779,-7.554 3.069,-14.607 3.569,-15.185c2.345,-2.715 6.482,-6.341 14.001,-5.716c3.455,0.287 6.622,1.623 9.164,3.706c2.302,1.54 19.206,12.837 43.021,28.366c209.087,136.333 1101.06,709.54 1493.39,928.132c67.785,37.767 120.431,64.875 151.744,77.011c9.895,3.834 16.636,6.591 20.381,6.145c80.215,-9.559 801.567,-291.654 1382.53,-575.061c333.108,-162.499 617.877,-334.943 718.456,-380.268c21.698,-9.778 36.835,-13.48 43.73,-12.752c7.161,0.756 11.704,4.081 14.61,7.948c2.376,3.161 3.928,7.078 3.928,11.992c-0,164.459 -108.583,797.887 -178.145,936.326c-3.273,6.514 -10.141,15.205 -20.711,25.416c-20.878,20.168 -57.579,48.379 -105.797,81.996c-270.897,188.864 -910.031,553.176 -1109.51,631.934c-70.256,27.739 -358.28,155.272 -555.165,226.34c-87.624,31.63 -158.125,51.515 -185.733,48.824c-45.1,-4.395 -108.769,-32.01 -178.97,-71.546c-158.382,-89.197 -352.233,-238.483 -438.541,-296.933c-98.561,-66.749 -482.626,-313.711 -729.252,-500.688c-108.142,-81.987 -189.91,-153.303 -212.328,-193.408c-26.883,-48.094 -52.718,-143.043 -75.846,-256.193c-52.69,-257.771 -92.882,-611.223 -108.522,-706.386Zm38.289,30.425l13.26,8.668c209.362,136.513 1102.52,710.449 1495.37,929.329c69.623,38.791 123.76,66.507 155.923,78.972c17.326,6.715 29.812,8.945 36.37,8.164c80.808,-9.63 807.947,-292.701 1393.2,-578.202c332.692,-162.295 617.083,-334.568 717.536,-379.836c5.033,-2.268 10.335,-4.301 14.903,-5.924c-6.545,184.654 -108.051,772.315 -174.26,904.082c-3.056,6.083 -11.286,14.266 -23.258,24.855c-20.929,18.51 -52.676,42.395 -92.529,70.179c-269.255,187.72 -904.418,549.993 -1102.69,628.274c-70.14,27.693 -357.68,155.04 -554.241,225.991c-80.997,29.237 -145.663,49.488 -171.183,47.001c-41.89,-4.083 -100.641,-30.692 -165.846,-67.414c-157.561,-88.736 -350.345,-237.341 -436.206,-295.489c-98.363,-66.615 -481.676,-313.049 -727.805,-499.65c-103.04,-78.118 -182.011,-144.898 -203.37,-183.11c-25.857,-46.257 -50.04,-137.776 -72.285,-246.605c-47.337,-231.584 -84.54,-540.534 -102.891,-669.285Zm-6.204,-39.724c0.235,0.735 0.417,1.493 0.546,2.271l0.369,2.291c-0.081,-1.421 -0.367,-2.941 -0.915,-4.562Z" style="fill:#7e4021;"/><path d="M189.482,2372.08c-4.748,-0.394 1625.71,1054.66 1721.05,1043.3c80.511,-9.594 804.757,-292.177 1387.86,-576.631c416.125,-202.996 756.749,-421.558 756.749,-388.059c-0,14.896 -0.895,33.671 -2.575,55.598c-814.791,463.047 -2005.13,954.557 -2147.27,966.719c-100.434,8.595 -1677.69,-1014.94 -1707.07,-1041.45c-3.465,-25.087 -6.396,-45.337 -8.749,-59.475Z" style="fill:#e3b198;"/><path d="M173.302,2376.41c-1.809,-7.569 3.057,-14.649 3.558,-15.229c2.345,-2.715 6.482,-6.341 14.001,-5.716c3.455,0.287 6.622,1.623 9.164,3.706c2.302,1.54 19.206,12.837 43.021,28.366c209.087,136.333 1101.06,709.54 1493.39,928.132c67.785,37.767 120.431,64.875 151.744,77.011c9.895,3.834 16.636,6.591 20.381,6.145c80.215,-9.559 801.567,-291.654 1382.53,-575.061c333.108,-162.499 617.877,-334.943 718.456,-380.268c21.698,-9.778 36.835,-13.48 43.73,-12.752c7.161,0.756 11.704,4.081 14.61,7.948c2.376,3.161 3.928,7.078 3.928,11.992c-0,15.237 -0.906,34.443 -2.624,56.871c-0.423,5.525 -3.565,10.479 -8.383,13.217c-571.033,324.519 -1326.3,663.011 -1776.88,841.071c-195.234,77.152 -334.038,124.071 -377.199,127.764c-7.37,0.631 -21.474,-2.396 -41.048,-10.318c-37.749,-15.276 -101.188,-48.533 -181.872,-94.252c-457.079,-259.004 -1473.19,-919.859 -1496.74,-941.115c-2.913,-2.63 -4.806,-6.204 -5.343,-10.092c-3.31,-23.964 -6.127,-43.48 -8.419,-57.42Zm38.29,30.389l13.248,8.66c209.362,136.513 1102.52,710.449 1495.37,929.329c69.623,38.791 123.76,66.507 155.923,78.972c17.326,6.715 29.812,8.945 36.37,8.164c80.808,-9.63 807.947,-292.701 1393.2,-578.202c332.692,-162.295 617.083,-334.568 717.536,-379.836c5.028,-2.266 10.324,-4.297 14.891,-5.92c-0.305,8.56 -0.823,17.995 -1.533,28.217c-568.743,322.406 -1317.45,657.826 -1764.92,834.659c-190.518,75.289 -325.672,121.949 -367.79,125.553c-4.687,0.401 -13.252,-2.967 -25.702,-8.005c-36.945,-14.951 -98.977,-47.609 -177.942,-92.354c-442.169,-250.556 -1409.88,-878.354 -1486.43,-933.5l-2.216,-15.737Zm-6.216,-39.732c0.235,0.735 0.417,1.493 0.546,2.271l0.365,2.238c-0.084,-1.405 -0.37,-2.907 -0.911,-4.509Z" style="fill:#7e4021;"/><path d="M1885.43,3581.15c-0.329,51.031 0.414,102.06 0.729,153.087c1.113,180.165 5.074,339.388 7.345,519.528c0.116,9.198 7.677,16.571 16.875,16.455c9.198,-0.116 16.571,-7.677 16.455,-16.875c-2.27,-180.066 -6.23,-339.223 -7.342,-519.314c-0.314,-50.886 -1.057,-101.776 -0.73,-152.666c0.06,-9.199 -7.36,-16.715 -16.559,-16.774c-9.198,-0.059 -16.714,7.361 -16.773,16.559Z" style="fill:#7e4021;"/></g></svg>