<?xml version="1.0" encoding="UTF-8" standalone="no"?><!DOCTYPE svg PUBLIC "-//W3C//DTD SVG 1.1//EN" "http://www.w3.org/Graphics/SVG/1.1/DTD/svg11.dtd"><svg width="100%" height="100%" viewBox="0 0 2125 3587" version="1.1" xmlns="http://www.w3.org/2000/svg" xmlns:xlink="http://www.w3.org/1999/xlink" xml:space="preserve" xmlns:serif="http://www.serif.com/" style="fill-rule:evenodd;clip-rule:evenodd;stroke-linejoin:round;stroke-miterlimit:2;"><g id="Chemex"><path d="M1044.21,0.719c-299.256,-0 -568.922,27.014 -757.469,70.017c-117.11,26.71 -203.43,60.09 -247.674,96.416c-25.781,21.167 -38.312,44.042 -38.312,66.897c-0,22.855 12.53,45.73 38.312,66.897c44.243,36.326 130.564,69.706 247.674,96.416c188.547,43.004 458.213,70.018 757.469,70.018c299.256,-0 568.922,-27.014 757.469,-70.018c117.11,-26.71 203.43,-60.09 247.674,-96.415c25.781,-21.168 38.312,-44.043 38.312,-66.898c0,-22.855 -12.531,-45.729 -38.312,-66.897c-44.243,-36.325 -130.564,-69.705 -247.674,-96.416c-188.547,-43.003 -458.213,-70.017 -757.469,-70.017Zm-0,33.333c244.318,0 468.736,18.095 644.676,48.314c148.948,25.582 262.766,59.481 323.279,98.896c26.205,17.068 42.167,33.887 42.167,52.787c-0,18.901 -15.962,35.719 -42.167,52.788c-60.513,39.414 -174.331,73.313 -323.279,98.896c-175.94,30.218 -400.358,48.313 -644.676,48.313c-244.318,0 -468.737,-18.095 -644.676,-48.313c-148.949,-25.583 -262.766,-59.482 -323.279,-98.896c-26.205,-17.069 -42.167,-33.887 -42.167,-52.788c0,-18.9 15.962,-35.719 42.167,-52.787c60.513,-39.415 174.33,-73.314 323.279,-98.896c175.939,-30.219 400.358,-48.314 644.676,-48.314Z" style="fill:#7e4021;"/><path d="M2052.66,244.536c0.738,-4.212 1.327,-8.313 1.767,-12.309c0.967,-8.797 8.642,-15.304 17.479,-14.819c8.837,0.484 15.754,7.791 15.754,16.641c0,5.705 -0.78,11.411 -2.353,17.089c-11.197,61.411 -50.058,143.733 -100.657,240.062c-83.877,159.682 -199.787,359.357 -267.095,567.431c-40.026,123.734 -62.855,250.435 -50.75,373.306c44.778,454.511 320.986,899.949 420.935,1293.05c53.459,210.254 56.958,405.792 -47.221,580.403c-61.14,102.475 -131.383,165.865 -249.984,205.681c-146.431,49.159 -368.875,61.567 -746.09,66.996l-0,-0c-89.321,1.286 -332.111,16.285 -544.174,-40.139c-126.74,-33.721 -242.371,-93.047 -310.2,-194.139c-73.624,-109.728 -90.734,-243.816 -73.219,-393.755c26.569,-227.438 133.041,-492.037 235.156,-761.641c97.777,-258.147 191.56,-520.931 204.692,-759.739c7.631,-138.782 -22.15,-267.693 -71.121,-386.518c-89.585,-217.374 -243.116,-401.23 -352.562,-550.324c-70.454,-95.975 -122.431,-178.551 -131.223,-246.396c-0.7,-3.783 -1.044,-7.572 -1.044,-11.362c-0,-8.994 7.136,-16.365 16.125,-16.658c8.989,-0.292 16.589,6.601 17.173,15.576c0.172,2.649 0.424,5.321 0.76,8.011c3.384,16.14 18.481,30.903 41.442,45.859c60.513,39.414 174.33,73.313 323.279,98.896c175.939,30.218 400.358,48.313 644.676,48.313c244.318,0 468.736,-18.095 644.676,-48.313c148.948,-25.583 262.766,-59.482 323.279,-98.896c21.262,-13.85 35.782,-27.535 40.5,-42.301Zm-20.297,68.86c-18.032,47.002 -45.376,101.674 -77.223,162.303c-84.636,161.129 -201.383,362.714 -269.3,572.672c-41.471,128.201 -64.75,259.527 -52.208,386.834c44.942,456.173 321.488,903.458 421.802,1297.99c51.118,201.045 56.075,388.147 -43.541,555.11c-56.77,95.15 -121.843,154.19 -231.966,191.16c-144.43,48.487 -363.904,59.911 -735.962,65.266l0,0c-87.83,1.264 -326.6,16.46 -535.123,-39.021c-118.625,-31.562 -227.605,-85.881 -291.091,-180.499c-69.386,-103.412 -84.298,-230.006 -67.791,-371.316c26.297,-225.11 132.15,-486.856 233.221,-753.701c99.041,-261.487 193.501,-527.818 206.802,-769.716c7.918,-143.986 -22.778,-277.768 -73.586,-401.049c-90.687,-220.05 -245.717,-406.419 -356.51,-557.348c-42.467,-57.851 -78.547,-110.091 -101.099,-156.898c47.879,30.797 126.32,58.999 227.948,82.178c188.547,43.004 458.213,70.018 757.469,70.018c299.256,-0 568.922,-27.014 757.469,-70.018c103.595,-23.628 183.097,-52.475 230.689,-83.966Z" style="fill:#7e4021;"/><path d="M1044.21,3561.4c669.24,-9.632 848.075,-40.083 982.001,-264.551c139.404,-233.651 80.179,-505.731 -28.996,-800.356c-107.638,-232.105 -1671.58,-263.65 -1740.98,-5.402c-118.425,330.219 -193.429,633.103 -52.32,843.41c178.203,265.591 700.045,228.918 840.294,226.899Z" style="fill:#c48464;"/><path d="M1044.45,3578.06c377.215,-5.429 599.659,-17.837 746.09,-66.996c118.601,-39.816 188.844,-103.206 249.984,-205.681c60.847,-101.985 84.977,-211.068 83.876,-326.053c-1.468,-153.276 -48.035,-317.209 -111.557,-488.634c-0.153,-0.413 -0.323,-0.82 -0.508,-1.22c-7.648,-16.492 -21.431,-32.329 -41.066,-47.035c-28.196,-21.119 -69.036,-40.36 -119.805,-57.272c-168.359,-56.086 -448.672,-87.965 -728.27,-91.798c-282.985,-3.879 -565.179,21.029 -729.969,77.648c-51.619,17.736 -92.052,38.774 -118.324,62.623c-17.771,16.132 -29.383,33.725 -34.575,52.437c-65.426,182.5 -117.497,356.764 -127.903,511.865c-8.765,130.645 11.954,247.921 77.653,345.838c67.829,101.092 183.46,160.418 310.2,194.139c212.063,56.424 454.853,41.425 544.174,40.139l0,-0Zm-0.48,-33.33c-87.83,1.264 -326.6,16.46 -535.123,-39.021c-118.625,-31.562 -227.605,-85.881 -291.091,-180.499c-61.711,-91.973 -80.307,-202.322 -72.074,-325.034c10.235,-152.567 61.852,-323.917 126.242,-503.464c0.154,-0.428 0.29,-0.862 0.407,-1.301c4.713,-17.534 18.093,-33.077 37.801,-47.493c23.333,-17.066 55.245,-32.085 93.926,-45.375c162.228,-55.738 440.095,-79.66 718.679,-75.841c275.707,3.779 552.173,34.786 718.191,90.091c46.695,15.555 84.424,32.903 110.358,52.327c14.292,10.705 24.825,21.837 30.543,33.814c61.951,167.276 107.807,327.135 109.239,476.715c1.042,108.83 -21.579,212.129 -79.17,308.655c-56.77,95.15 -121.843,154.19 -231.966,191.16c-144.43,48.487 -363.904,59.911 -735.962,65.266l0,0Z" style="fill:#7e4021;"/><path d="M488.299,1851.63c-9.8,59.812 183.882,175.413 645.558,174.371c446.773,-1.008 639.146,-121.106 608.507,-185.411c-44.251,-134.073 -78.657,-270.141 -92.142,-407.021c-17.841,-181.094 38.465,-370.411 115.262,-546.805c78.788,-180.967 -621.414,-240.034 -1032.68,-159.393c-216.991,42.548 -314.339,131.707 -259.827,245.554c66.106,138.061 109.511,290.411 100.371,456.637c-7.412,134.78 -40.263,277.17 -85.046,422.068Z" style="fill:#f7bf9a;"/><path d="M472.376,1846.71c-0.226,0.729 -0.401,1.473 -0.524,2.226c-2.433,14.85 2.953,32.815 19.585,51.305c24.077,26.767 74.236,57.157 153.884,82.63c106.395,34.026 266.909,60.298 488.573,59.798c214.393,-0.484 370.861,-28.268 472.843,-64.083c79.093,-27.775 126.424,-61.376 144.823,-90.625c12.124,-19.276 13.475,-37.619 6.332,-53.499c-21.69,-65.789 -40.993,-132.064 -56.571,-198.682c-15.818,-67.645 -27.794,-135.642 -34.513,-203.844c-8.904,-90.381 1.114,-182.844 22.946,-274.668c21.251,-89.385 53.702,-178.154 91.011,-263.85c17.793,-40.869 4.488,-77.126 -34.6,-107.662c-44.537,-34.793 -126.071,-62.2 -228.03,-80.676c-226.034,-40.958 -553.931,-40.065 -788.541,5.937c-110.718,21.71 -191.108,55.771 -237.708,98.193c-52.322,47.632 -65.174,105.691 -33.944,170.914c33.153,69.24 60.53,142.123 78.2,218.611c16.942,73.333 24.956,149.986 20.561,229.913c-3.77,68.56 -14.219,139.111 -29.493,210.969c-14.465,68.06 -33.259,137.282 -54.834,207.093Zm32.263,8.495c21.704,-70.335 40.6,-140.08 55.176,-208.658c15.643,-73.593 26.31,-145.853 30.171,-216.069c4.574,-83.171 -3.737,-162.937 -21.366,-239.246c-18.226,-78.894 -46.417,-154.086 -80.614,-225.504c-24.1,-50.332 -14.057,-95.111 26.32,-131.869c43.359,-39.472 118.664,-69.931 221.682,-90.131c195.125,-38.26 455.781,-44.787 666.184,-21.606c125.799,13.86 233.49,38.104 297.463,73.099c42.819,23.422 65.507,50.532 50.548,84.891c-45.896,105.418 -84.5,215.418 -104.723,325.55c-14.126,76.933 -19.293,153.941 -11.845,229.542c6.862,69.647 19.075,139.087 35.228,208.166c15.873,67.879 35.549,135.41 57.674,202.445c0.219,0.664 0.48,1.314 0.781,1.945c4.402,9.238 -0.463,19.618 -10.547,31.179c-26.465,30.343 -87.645,62.257 -184.491,87.331c-97.179,25.161 -229.427,42.684 -398.461,43.065c-175.167,0.395 -311.398,-16.088 -412.269,-39.995c-99.959,-23.692 -164.464,-54.225 -196.716,-82.893c-8.156,-7.249 -14.042,-14.19 -17.445,-20.847c-1.903,-3.721 -3.014,-7.171 -2.75,-10.392l0,-0.003Z" style="fill:#7e4021;"/><path d="M640.362,810.036c-33.871,17.299 -62.164,37.943 -68.527,67.377c-11.204,51.824 23.522,85.901 77.19,106.069c68.82,25.861 168.825,29.161 206.64,32.024c114.78,8.692 449.754,6.121 659.276,-43.144c55.537,-13.058 102.445,-29.515 134.822,-49.571c24.342,-15.079 40.872,-32.532 48.545,-51.639c3.428,-8.536 -0.719,-18.249 -9.255,-21.677c-8.536,-3.428 -18.249,0.719 -21.677,9.255c-5.427,13.514 -17.95,25.059 -35.166,35.724c-29.958,18.557 -73.511,33.377 -124.899,45.46c-206.294,48.506 -536.117,50.912 -649.129,42.354c-36.113,-2.735 -131.709,-5.291 -197.431,-29.989c-36.07,-13.555 -63.866,-32.992 -56.336,-67.822c1.955,-9.039 7.912,-16.21 15.59,-22.713c9.769,-8.273 22.285,-15.263 35.518,-22.022c8.192,-4.184 11.446,-14.231 7.262,-22.423c-4.183,-8.192 -14.231,-11.447 -22.423,-7.263Z" style="fill:#7e4021;"/><path d="M551.158,1336.58c-22.579,29.075 -28.936,55.362 -25.85,78.119c2.94,21.678 14.631,40.676 31.567,56.416c22.842,21.229 55.427,36.498 85.044,44.932c18.982,5.406 38.248,10.063 57.611,13.882c229.018,45.167 539.952,71.039 768.028,17.673c32.321,-7.563 119.165,-35.417 170.925,-81.886c38.713,-34.756 58.722,-79.213 32.452,-132.416c-4.073,-8.248 -14.076,-11.638 -22.323,-7.565c-8.248,4.072 -11.638,14.075 -7.565,22.323c18.521,37.509 2.461,68.351 -24.832,92.854c-47.243,42.414 -126.751,67.33 -156.252,74.233c-223.908,52.391 -529.149,26.423 -753.984,-17.92c-18.462,-3.641 -36.831,-8.082 -54.93,-13.236c-24.826,-7.07 -52.335,-19.496 -71.481,-37.29c-11.057,-10.277 -19.31,-22.327 -21.229,-36.48c-2.121,-15.635 3.632,-33.217 19.146,-53.194c5.642,-7.265 4.324,-17.744 -2.941,-23.386c-7.265,-5.642 -17.744,-4.324 -23.386,2.941Z" style="fill:#7e4021;"/><circle cx="1140.9" cy="1559.39" r="139.491" style="fill:#ffe6d8;"/><path d="M1140.9,1403.24c-43.093,-0 -82.134,17.49 -110.401,45.756c-28.266,28.267 -45.757,67.308 -45.757,110.401c0,43.094 17.491,82.135 45.757,110.401c28.267,28.267 67.308,45.757 110.401,45.757c43.093,0 82.134,-17.49 110.401,-45.757c28.266,-28.266 45.757,-67.307 45.757,-110.401c-0,-43.093 -17.491,-82.134 -45.757,-110.401c-28.267,-28.266 -67.308,-45.756 -110.401,-45.756Zm0,33.333c33.894,-0 64.598,13.761 86.831,35.994c22.232,22.232 35.993,52.936 35.993,86.83c0,33.894 -13.761,64.599 -35.993,86.831c-22.233,22.232 -52.937,35.994 -86.831,35.994c-33.894,-0 -64.598,-13.762 -86.831,-35.994c-22.232,-22.232 -35.993,-52.937 -35.993,-86.831c-0,-33.894 13.761,-64.598 35.993,-86.83c22.233,-22.233 52.937,-35.994 86.831,-35.994Z" style="fill:#7e4021;"/><path d="M1093.53,1748.47c2.695,4.948 5.684,9.792 6.129,14.536c3.765,40.166 -16.168,96.393 -36.122,130.86c-4.609,7.961 -1.888,18.166 6.073,22.775c7.96,4.608 18.165,1.887 22.774,-6.074c22.933,-39.61 44.79,-104.513 40.462,-150.672c-0.446,-4.766 -2.018,-9.745 -4.142,-14.772c7.092,-1.905 12.816,-4.618 16.763,-7.791c6.893,-5.542 10.255,-12.599 10.078,-20.951c-0.271,-12.729 -10.996,-23.02 -28.123,-23.352c-10.352,-0.201 -22.592,3.379 -29.905,8.863c-4.989,3.741 -8.219,8.39 -9.743,13.283c-24.352,-0.649 -50.358,-4.618 -56.875,-7.477c-35.149,-15.419 -56.796,-53.043 -54.489,-90.841c0.209,-3.428 1.862,-15.768 5.104,-27.411c1.295,-4.648 4.34,-11.224 5.714,-14.085c6.694,-1.237 12.222,-6.534 13.414,-13.633c1.523,-9.072 -4.605,-17.673 -13.677,-19.196c-11.12,-1.868 -22.468,4.06 -29.985,18.1c-9.037,16.874 -13.448,47.746 -13.842,54.194c-3.138,51.409 26.564,102.426 74.37,123.397c8.547,3.75 44.64,9.901 76.022,10.247Z" style="fill:#7e4021;"/><path d="M1305.97,1575.59c4.477,19.342 -0.107,40.301 -4.135,59.388c-9.169,43.439 -30.838,88.288 -67.559,114.783c-19.904,14.361 -42.146,18.709 -62.398,11.97c-3.645,-20.715 -8.676,-42.018 -15.586,-57.171c-11.521,-25.261 -29.281,-35.392 -48.492,-27.573c-16.301,6.634 -21.445,19.271 -19.358,34.649c2.821,20.781 25.93,49.679 33.662,57.291c6.305,6.209 12.959,11.431 19.875,15.678c3.087,21.538 4.615,40.261 5.429,46.532c4.895,37.688 17.25,72.523 27.383,107.727c9.311,32.345 16.725,65.025 12.654,101.113c-3.816,33.831 -18.382,63.746 -34.239,93.321c-17.352,32.363 -36.285,64.309 -47.316,99.407c-2.758,8.776 2.128,18.14 10.903,20.897c8.776,2.758 18.139,-2.127 20.897,-10.902c10.406,-33.11 28.524,-63.122 44.893,-93.651c17.863,-33.316 33.687,-67.226 37.986,-105.336c4.59,-40.689 -3.247,-77.6 -13.745,-114.07c-9.675,-33.611 -21.687,-66.815 -26.36,-102.799c-0.597,-4.595 -1.617,-15.425 -3.313,-29.191c25.495,3.865 52.236,-3.26 76.629,-20.861c43.343,-31.272 69.847,-83.658 80.669,-134.93c5.011,-23.739 9.568,-49.879 3.964,-73.929l-0.817,-3.249l-0.024,-0.665c-0.565,-9.181 -8.477,-16.177 -17.659,-15.612c-5.99,0.369 -13.77,3.158 -15.552,14.161c-0.205,1.263 -0.379,3.517 0.057,6.304c0.296,1.894 1.238,5.54 1.552,6.718Zm-182.281,138.287c0.318,0.903 0.668,1.76 1.03,2.5c0.662,1.352 1.382,2.705 2.146,4.047c-0.993,-2.366 -2.048,-4.561 -3.176,-6.547Z" style="fill:#7e4021;"/><ellipse cx="1106.61" cy="3400.61" rx="803.958" ry="169.644" style="fill:#9d5e3e;"/><path d="M1106.61,3214.3c-234.631,-0 -446.06,21.196 -593.889,54.913c-92.425,21.08 -160.498,47.554 -195.416,76.222c-21.218,17.421 -31.32,36.366 -31.32,55.175c0,18.809 10.102,37.755 31.32,55.175c34.917,28.668 102.991,55.143 195.416,76.223c147.829,33.717 359.258,54.913 593.889,54.913c234.631,0 446.06,-21.196 593.89,-54.913c92.424,-21.08 160.498,-47.554 195.415,-76.223c21.218,-17.42 31.32,-36.366 31.32,-55.175c-0,-18.809 -10.102,-37.754 -31.319,-55.174c-34.918,-28.669 -102.992,-55.143 -195.416,-76.223c-147.83,-33.717 -359.259,-54.913 -593.89,-54.913Zm0,33.333c191.065,-0 366.568,14.145 504.158,37.776c115.982,19.921 204.641,46.21 251.76,76.9c19.204,12.508 31.374,24.451 31.374,38.301c-0,13.851 -12.17,25.793 -31.374,38.301c-47.119,30.691 -135.778,56.98 -251.76,76.9c-137.59,23.632 -313.093,37.777 -504.158,37.777c-191.065,-0 -366.568,-14.145 -504.158,-37.777c-115.982,-19.92 -204.641,-46.209 -251.76,-76.9c-19.203,-12.508 -31.373,-24.45 -31.373,-38.301c-0,-13.85 12.17,-25.793 31.373,-38.301c47.119,-30.69 135.778,-56.979 251.76,-76.9c137.59,-23.631 313.093,-37.776 504.158,-37.776Z" style="fill:#7e4021;"/><ellipse cx="1122.78" cy="2485.7" rx="858.524" ry="181.158" style="fill:#cc967f;"/><path d="M1122.78,2287.88c-250.456,0 -476.146,22.621 -633.946,58.612c-98.47,22.459 -171.011,50.624 -208.213,81.167c-22.335,18.338 -33.032,38.246 -33.032,58.046c0,19.8 10.697,39.707 33.032,58.045c37.201,30.544 109.743,58.709 208.213,81.168c157.8,35.991 383.49,58.612 633.946,58.612c250.456,-0 476.145,-22.621 633.946,-58.612c98.469,-22.459 171.011,-50.624 208.212,-81.168c22.335,-18.337 33.032,-38.245 33.032,-58.045c0,-19.8 -10.697,-39.708 -33.031,-58.045c-37.202,-30.544 -109.744,-58.709 -208.213,-81.168c-157.801,-35.991 -383.49,-58.612 -633.946,-58.612Zm-0,33.334c204.105,-0 391.586,15.112 538.568,40.356c124.054,21.307 218.873,49.46 269.273,82.287c20.917,13.624 34.016,26.761 34.016,41.848c-0,15.087 -13.099,28.224 -34.016,41.848c-50.4,32.827 -145.219,60.98 -269.273,82.287c-146.982,25.244 -334.463,40.356 -538.568,40.356c-204.106,0 -391.587,-15.112 -538.568,-40.356c-124.054,-21.307 -218.874,-49.46 -269.273,-82.287c-20.918,-13.624 -34.017,-26.761 -34.017,-41.848c0,-15.087 13.099,-28.224 34.017,-41.848c50.399,-32.827 145.219,-60.98 269.273,-82.287c146.981,-25.244 334.462,-40.356 538.568,-40.356Z" style="fill:#7e4021;"/><path d="M269.279,2712.88c-30.841,68.848 -56.799,205.362 -59.055,290.908c-0.242,9.195 7.027,16.857 16.222,17.1c9.195,0.242 16.858,-7.026 17.1,-16.222c2.157,-81.778 26.671,-212.342 56.154,-278.159c3.761,-8.395 -0.002,-18.263 -8.397,-22.024c-8.394,-3.76 -18.263,0.002 -22.024,8.397Z" style="fill:#7e4021;"/><path d="M205.292,3077.3c-0.795,54.435 16.235,117.31 30.173,135.595c5.576,7.315 16.043,8.728 23.358,3.151c7.316,-5.576 8.728,-16.043 3.152,-23.358c-11.765,-15.434 -24.024,-68.955 -23.354,-114.901c0.135,-9.198 -7.224,-16.774 -16.421,-16.908c-9.198,-0.134 -16.774,7.224 -16.908,16.421Z" style="fill:#7e4021;"/></g></svg>