<?xml version="1.0" encoding="UTF-8" standalone="no"?><!DOCTYPE svg PUBLIC "-//W3C//DTD SVG 1.1//EN" "http://www.w3.org/Graphics/SVG/1.1/DTD/svg11.dtd"><svg width="100%" height="100%" viewBox="0 0 2600 5128" version="1.1" xmlns="http://www.w3.org/2000/svg" xmlns:xlink="http://www.w3.org/1999/xlink" xml:space="preserve" xmlns:serif="http://www.serif.com/" style="fill-rule:evenodd;clip-rule:evenodd;stroke-linejoin:round;stroke-miterlimit:2;"><g id="Coffee-to-go-05" serif:id="Coffee to go-05"><path d="M1927.25,2928.8c27.105,-12.899 70.008,-4.005 86.319,7.468c43.315,30.468 50.658,123.944 101.65,172.571c68.907,65.71 157.598,107.218 225.565,174.664c26.789,26.583 57.495,68.251 34.118,106.53c-23.76,38.905 -78.852,43.867 -113.619,69.078c-24.303,17.623 -39.421,50.066 -66.223,63.449c-52.007,25.97 -94.944,-46.739 -110.969,-84.497c-25.065,-59.057 -35.745,-122.191 -76.29,-173.826c-39.414,-50.195 -79.852,-90.159 -133.914,-119.681c-46.762,-25.535 -67.4,-59.056 -54.457,-97.793c12.898,-38.604 64.872,-97.525 107.82,-117.963Z" style="fill:#fff;"/><path d="M1920.09,2913.75c-46.453,22.107 -102.514,85.977 -116.466,127.732c-15.398,46.083 6.647,87.324 62.277,117.702c52.044,28.42 90.852,67.025 128.793,115.346c39.614,50.449 49.567,112.343 74.057,170.045c10.496,24.731 31.921,62.95 59.363,83.643c21.878,16.497 47.236,22.815 74.394,9.253c15.37,-7.674 27.651,-20.516 39.312,-34.264c9.294,-10.956 18.142,-22.549 29.249,-30.603c16.472,-11.945 37.868,-18.865 57.851,-27.635c24.277,-10.654 46.532,-23.856 60.208,-46.25c14.808,-24.247 13.065,-49.548 2.799,-73.016c-8.937,-20.432 -24.628,-39.371 -39.401,-54.031c-68.046,-67.523 -156.817,-109.109 -225.803,-174.895c-29.012,-27.666 -42.508,-70.979 -58.027,-107.174c-12.285,-28.652 -26.028,-53.245 -45.536,-66.967c-9.746,-6.855 -27.305,-13.332 -46.607,-15.776c-19.337,-2.449 -40.239,-0.83 -56.463,6.89l0,0Zm14.324,30.099c10.882,-5.178 24.981,-5.562 37.952,-3.92c13.004,1.647 25.05,5.352 31.616,9.971c19.495,13.713 29.849,42.227 42.112,72.162c14.504,35.402 30.484,72.956 57.625,98.838c68.827,65.634 157.439,107.065 225.328,174.433c12.015,11.923 25.072,27.11 32.341,43.728c5.941,13.583 7.863,28.251 -0.708,42.285c-10.085,16.514 -27.252,25.243 -45.155,33.099c-22.196,9.741 -45.729,17.907 -64.024,31.174c-13.197,9.569 -24.058,23.008 -35.1,36.025c-8.675,10.227 -17.352,20.296 -28.785,26.005c-18.896,9.436 -35.642,-0.819 -49.623,-15.099c-17.719,-18.099 -31.178,-43.61 -38.558,-60.998c-25.641,-60.415 -37.047,-124.787 -78.524,-177.608c-40.885,-52.069 -82.953,-93.391 -139.034,-124.015c-37.924,-20.71 -57.135,-46.468 -46.638,-77.884c11.846,-35.454 59.732,-89.425 99.175,-108.196l-0,0Z" style="fill:#7e4021;"/><path d="M2171.32,3342.21c57.066,-32.339 195.167,22.702 214.901,69.114c39.042,91.819 -40.823,175.244 -53.174,261.762c-14.158,99.184 -45.73,256.007 -41.358,367.847c4.729,120.997 54.704,158.416 25.076,270.185c-43.354,163.548 -358.421,131.453 -353.989,-57.971c2.117,-90.479 74.75,-136.927 128.341,-251.148c45.982,-98.004 51.307,-249.916 53.021,-329.529c3.009,-139.837 -103.586,-256.154 27.182,-330.26Z" style="fill:#fff;"/><path d="M2163.1,3327.71c-29.438,16.683 -47.946,35.524 -59.135,55.84c-16.716,30.351 -17.235,64.51 -10.558,102.06c9.759,54.876 35.544,117.769 34.065,186.502c-1.678,77.971 -6.413,226.826 -51.446,322.809c-26.359,56.178 -57.485,95.636 -82.197,132.229c-27.004,39.987 -46.58,76.979 -47.718,125.608c-2.433,103.984 81.694,165.897 173.513,178.258c91.951,12.378 189.415,-25.719 213.248,-115.626c15.739,-59.375 10.395,-99.002 0.428,-139.854c-9.16,-37.541 -22.652,-76.184 -24.96,-135.253c-4.336,-110.933 27.16,-266.461 41.204,-364.841c6.006,-42.074 28.736,-83.287 44.911,-125.254c18.191,-47.198 28.454,-95.167 7.101,-145.385c-4.831,-11.362 -15.077,-23.475 -29.548,-34.743c-18.954,-14.759 -45.411,-28.592 -73.711,-38.546c-49.098,-17.268 -103.449,-21.795 -135.197,-3.804l0,0Zm16.434,29.001c9.248,-5.241 21.195,-7.323 34.402,-7.521c22.672,-0.342 48.753,5.135 73.301,13.769c24.65,8.67 47.783,20.547 64.292,33.402c9.174,7.143 16.288,14.282 19.352,21.486c17.69,41.603 7.541,81.252 -7.529,120.353c-17.085,44.33 -40.463,88.088 -46.807,132.532c-14.274,99.989 -45.92,258.105 -41.513,370.853c2.42,61.928 16.281,102.493 25.884,141.853c8.796,36.049 13.625,71.016 -0.264,123.411c-19.523,73.648 -101.259,101.271 -176.581,91.132c-75.448,-10.157 -146.635,-58.999 -144.636,-144.443c0.98,-41.851 18.778,-73.32 42.018,-107.733c25.532,-37.807 57.517,-78.683 84.75,-136.726c46.93,-100.025 52.845,-254.994 54.594,-336.249c1.531,-71.104 -24.476,-136.287 -34.571,-193.056c-5.235,-29.439 -6.169,-56.347 6.937,-80.143c8.692,-15.783 23.502,-29.96 46.371,-42.92Z" style="fill:#7e4021;"/><path d="M2099.02,2334.47c15.159,75.812 -206.584,2067.92 -295.35,2237.12c-53.758,102.466 -376.222,204.611 -670,201.435c-313.952,-3.395 -600.041,-118.585 -648.441,-208.443c-85.389,-158.528 -236.738,-1729.33 -315.784,-2228.66c124.613,41.077 302.063,78.901 420.299,87.892c368.737,28.042 931.968,29.249 1278.66,-31.204c71.486,-12.465 158.253,-32.385 230.615,-58.139Z" style="fill:#d9905f;"/><path d="M2115.36,2331.2c-0.949,-4.745 -3.913,-8.844 -8.123,-11.23c-4.21,-2.387 -9.249,-2.826 -13.808,-1.204c-71.505,25.449 -157.251,45.105 -227.89,57.422c-345.574,60.258 -906.988,58.956 -1274.53,31.005c-117.126,-8.908 -292.903,-46.411 -416.345,-87.103c-5.519,-1.819 -11.587,-0.632 -16.015,3.132c-4.427,3.765 -6.573,9.563 -5.665,15.303c55.325,349.482 146.068,1223.92 224.823,1771.5c34.175,237.619 66.815,414.311 92.749,462.459c15.567,28.901 53.479,60.959 108.841,90.78c122.205,65.824 331.2,124.016 554.094,126.425c208.446,2.254 431.102,-47.993 564.649,-113.855c60.492,-29.833 103.012,-63.57 120.29,-96.502c35.747,-68.138 93.684,-429.788 148.44,-844.285c65.311,-494.395 127.162,-1064.24 144.633,-1295.71c4.554,-60.34 5.76,-98.645 3.861,-108.138Zm-32.193,26.303c-0.49,17.232 -2.256,44.199 -4.907,79.326c-17.446,231.136 -79.223,800.162 -144.44,1293.85c-54.018,408.906 -109.646,765.945 -144.912,833.164c-14.978,28.549 -53.075,56.231 -105.516,82.093c-129.956,64.091 -346.702,112.612 -549.545,110.419c-216.639,-2.342 -419.871,-58.463 -538.647,-122.441c-47.918,-25.811 -81.827,-52.225 -95.301,-77.24c-25.299,-46.968 -55.765,-219.603 -89.102,-451.398c-76.842,-534.281 -165.106,-1379.66 -220.756,-1745.29c123.568,38.181 287.041,71.975 398.436,80.447c369.928,28.132 934.975,29.244 1282.79,-31.404c65.397,-11.403 143.427,-28.996 211.902,-51.523l0,-0Z" style="fill:#7e4021;"/><path d="M1301.72,3927.64c-13.345,5.278 -27.04,14.918 -46.882,33.812c-18.142,17.275 -35.983,34.866 -53.877,52.395c-14.043,13.757 -103.498,97.478 -137.221,139.819c-7.113,8.931 -11.957,16.474 -14.103,21.636c-2.291,5.51 -2.494,10.126 -1.959,13.443c0.765,4.737 4.666,13.349 12.351,24.129c13.22,18.545 38.484,47.476 67.472,78.432c49.219,52.56 109.19,111.077 137.898,134.26c9.756,7.878 17.289,12.089 20.848,13.078c33.006,9.173 164.42,20.281 207.377,10.573c2.965,-0.67 8.375,-3.005 15.35,-7.605c10.948,-7.219 28.539,-20.982 49.333,-38.469c47.507,-39.952 112.213,-99.595 152,-142.999c18.426,-20.101 31.623,-37.197 36.567,-47.804c1.584,-3.399 2.617,-8.236 1.017,-14.459c-1.726,-6.713 -9.409,-19.679 -22.398,-35.967c-38.561,-48.357 -125.336,-135.644 -188.345,-185.969c-29.732,-23.746 -55.249,-39.039 -69.121,-41.269c-37.041,-5.954 -77.035,-11.755 -109.32,-13.014c-24.005,-0.936 -44.141,0.897 -56.987,5.978Zm412.128,275.678c-5.425,8.674 -15.462,20.501 -28.113,34.302c-38.964,42.506 -102.358,100.886 -148.883,140.012c-23.333,19.623 -49.431,37.856 -51.442,39.255c-40.041,8.518 -157.517,-1.745 -189.245,-10.095c-1.636,-1.179 -11.953,-8.686 -21.32,-16.883c-30.706,-26.87 -80.868,-76.381 -123.013,-121.387c-27.745,-29.628 -52.008,-57.248 -64.661,-74.997c-1.837,-2.578 -3.713,-5.655 -5.019,-7.895c3.698,-5.215 12.78,-17.706 21.888,-27.874c39.249,-43.82 108.166,-108.261 120.247,-120.097c17.782,-17.419 35.509,-34.901 53.537,-52.067c15.481,-14.741 25.743,-22.837 36.155,-26.955c9.771,-3.864 25.17,-4.379 43.429,-3.667c31.108,1.213 69.637,6.88 105.329,12.617c10.976,1.764 30.083,15.614 53.608,34.403c61.239,48.911 145.609,133.709 183.087,180.706c6.184,7.755 11.713,16.29 14.416,20.622Z" style="fill:#7e4021;"/><path d="M1959.43,2869.82c-2.455,9.932 -8.309,24.297 -16.034,41.351c-23.791,52.525 -65.854,127.744 -97.882,179.412c-16.063,25.913 -35.186,51.366 -36.661,53.322c-35.413,20.571 -150.323,47.413 -183.02,49.338c-1.438,-0.431 -9.402,-2.857 -16.126,-5.541c-25.582,-10.212 -68.883,-30.957 -113.107,-53.816c-8.172,-4.223 -18.235,-1.018 -22.459,7.153c-4.224,8.172 -1.019,18.235 7.153,22.459c45.368,23.45 89.811,44.685 116.054,55.162c14.468,5.775 24.893,8.126 29.019,7.937c34.221,-1.56 162.56,-31.926 200.359,-54.527c2.609,-1.56 7.022,-5.464 12.218,-12.007c8.156,-10.269 20.587,-28.825 34.901,-51.918c32.705,-52.76 75.621,-129.586 99.915,-183.221c11.25,-24.839 18.467,-45.195 19.863,-56.813c0.447,-3.724 -0.077,-8.642 -3.536,-14.058c-3.73,-5.841 -15.068,-15.77 -32.484,-27.204c-51.702,-33.945 -161.343,-89.872 -236.89,-118.074c-35.648,-13.308 -64.659,-19.894 -78.535,-17.694c-37.054,5.877 -76.866,12.818 -107.937,21.674c-23.104,6.586 -41.667,14.598 -52.293,23.427c-11.038,9.171 -21.05,22.596 -34.022,46.729c-11.861,22.065 -23.337,44.337 -34.883,66.567c-7.893,15.197 -53.828,98.929 -77.789,153.482c-3.699,8.422 0.135,18.263 8.557,21.962c8.422,3.699 18.263,-0.135 21.962,-8.557c23.659,-53.865 69.058,-136.518 76.852,-151.523c11.473,-22.09 22.875,-44.222 34.661,-66.148c10.121,-18.829 17.352,-29.719 25.964,-36.874c8.082,-6.715 22.555,-11.999 40.128,-17.008c29.94,-8.534 68.317,-15.147 104.021,-20.809c10.98,-1.741 33.45,5.471 61.656,16c73.424,27.41 180.005,81.72 230.254,114.71c8.291,5.444 16.203,11.832 20.121,15.107Z" style="fill:#7e4021;"/><path d="M986.905,3260.75c-1.32,14.289 1.093,30.862 8.985,57.1c7.216,23.989 14.85,47.852 22.404,71.735c5.929,18.743 40.207,136.372 62.747,185.585c4.754,10.381 9.295,18.11 12.93,22.357c3.881,4.533 7.907,6.8 11.108,7.82c4.572,1.458 14.018,1.868 27.106,-0.117c22.517,-3.417 59.741,-12.886 100.454,-24.762c69.126,-20.165 148.424,-47.232 182.075,-62.37c11.436,-5.145 18.596,-9.963 21.087,-12.692c23.094,-25.301 92.372,-137.522 103.118,-180.231c0.742,-2.949 1.102,-8.83 0.15,-17.131c-1.495,-13.028 -5.826,-34.939 -12.033,-61.39c-14.181,-60.432 -38.159,-145.103 -58.907,-200.207c-9.608,-25.519 -18.899,-45.016 -26.128,-54.218c-2.317,-2.95 -6.165,-6.056 -12.44,-7.44c-6.768,-1.493 -21.806,-0.497 -42.206,3.733c-60.561,12.557 -177.635,50.538 -250.998,84.016c-34.616,15.797 -59.787,31.653 -68.043,43.021c-22.046,30.356 -45.289,63.416 -60.998,91.649c-11.68,20.993 -19.14,39.786 -20.411,53.542Zm432.127,-243.134c5.287,8.758 11.305,23.056 17.902,40.577c20.318,53.964 43.762,136.894 57.65,196.077c6.965,29.681 11.441,61.201 11.781,63.627c-10.489,39.57 -72.717,139.739 -94.5,164.272c-1.791,0.927 -13.15,6.74 -24.694,11.393c-37.844,15.255 -104.675,37.639 -163.867,54.906c-38.966,11.367 -74.568,20.536 -96.119,23.805c-3.13,0.475 -6.722,0.759 -9.311,0.912c-2.982,-5.655 -10.022,-19.401 -14.979,-32.12c-21.362,-54.812 -47.718,-145.407 -52.819,-161.533c-7.508,-23.733 -15.095,-47.445 -22.265,-71.283c-6.157,-20.471 -8.744,-33.284 -7.714,-44.433c0.966,-10.463 7.464,-24.434 16.348,-40.401c15.136,-27.205 37.597,-59.018 58.84,-88.268c6.532,-8.995 27.521,-19.785 54.911,-32.284c71.3,-32.537 185.067,-69.498 243.926,-81.702c9.712,-2.014 19.824,-3.091 24.91,-3.545Z" style="fill:#7e4021;"/><path d="M1001.03,3189.78c13.975,-3.261 28.937,-10.786 51.339,-26.562c20.481,-14.424 40.711,-29.204 60.986,-43.916c15.91,-11.546 116.689,-81.225 156.263,-118.155c8.347,-7.79 14.247,-14.54 17.127,-19.33c3.076,-5.115 3.955,-9.651 3.912,-13.01c-0.061,-4.798 -2.655,-13.89 -8.674,-25.681c-10.353,-20.285 -31.096,-52.613 -55.224,-87.489c-40.968,-59.217 -91.697,-125.906 -116.69,-153.053c-8.493,-9.225 -15.326,-14.496 -18.702,-15.998c-31.301,-13.919 -159.659,-44.203 -203.576,-40.908c-3.032,0.227 -8.726,1.743 -16.301,5.269c-11.889,5.533 -31.31,16.564 -54.446,30.808c-52.859,32.544 -125.621,82.039 -171.35,119.13c-21.177,17.178 -36.741,32.151 -43.189,41.917c-2.067,3.13 -3.799,7.762 -3.13,14.153c0.721,6.893 6.417,20.847 16.874,38.866c31.043,53.495 104.06,152.577 158.998,211.609c25.922,27.854 48.918,46.728 62.311,50.971c35.766,11.328 74.475,22.938 106.225,28.924c23.607,4.451 43.794,5.594 57.247,2.455Zm75.85,-473.143c1.445,1.406 10.549,10.347 18.61,19.83c26.428,31.088 68.776,87.428 103.856,138.135c23.094,33.38 43.038,64.263 52.948,83.678c1.439,2.82 2.843,6.139 3.806,8.546c-4.424,4.615 -15.242,15.637 -25.744,24.358c-45.258,37.582 -122.89,91.206 -136.579,101.139c-20.146,14.62 -40.248,29.309 -60.601,43.641c-17.478,12.309 -28.818,18.81 -39.721,21.355c-10.232,2.388 -25.54,0.636 -43.496,-2.75c-30.594,-5.768 -67.872,-17.03 -102.335,-27.946c-10.598,-3.357 -27.465,-19.862 -47.976,-41.902c-53.393,-57.372 -124.398,-153.64 -154.569,-205.63c-4.978,-8.579 -9.194,-17.833 -11.232,-22.515c6.64,-7.783 18.305,-18.009 32.845,-29.802c44.783,-36.324 116.063,-84.764 167.828,-116.634c25.962,-15.984 54.454,-30.188 56.648,-31.276c40.858,-2.547 155.554,24.854 185.712,37.773Z" style="fill:#7e4021;"/><path d="M1480.46,4162.9c-1.791,2.547 -4.214,5.86 -6.366,8.396c-8.259,9.734 -18.144,19.6 -20.768,22.365c-35.38,37.273 -76.517,68.408 -107.677,109.63c-5.547,7.338 -4.093,17.798 3.245,23.345c7.338,5.547 17.799,4.093 23.346,-3.245c30.404,-40.222 70.74,-70.412 105.262,-106.781c4.32,-4.552 26.132,-26.61 33.787,-39.636c4.628,-7.877 5.197,-14.937 4.278,-19.141c-0.799,-3.654 -4.997,-11.466 -12.877,-20.759c-21.424,-25.27 -72.401,-73.52 -81.645,-82.924c-0.342,-0.347 -42.94,-35.565 -51.198,-42.813l-0.338,-0.302c-5.953,-6.204 -15.788,-6.884 -22.558,-1.345c-0.521,0.426 -12.071,15.306 0.906,26.698c7.955,6.983 49.088,40.795 49.416,41.13c7.962,8.099 47.407,45.438 71.269,71.312c4.32,4.684 8.948,10.344 11.918,14.07Zm-106.387,-138.559c-0.443,4.212 -2.482,8.258 -6.016,11.149c3.254,-2.662 5.513,-6.251 6.016,-11.149Zm-1.426,-8.718c1.258,2.73 1.727,5.708 1.439,8.61l0.012,-0.102c0.171,-1.844 0.28,-4.86 -1.451,-8.508Z" style="fill:#7e4021;"/><path d="M1725.06,2904.08c-0.91,2.978 -2.18,6.881 -3.435,9.96c-4.818,11.822 -11.139,24.276 -12.772,27.721c-22.014,46.436 -51.411,88.834 -68.186,137.708c-2.986,8.7 1.653,18.188 10.354,21.175c8.7,2.986 18.188,-1.654 21.174,-10.354c16.369,-47.69 45.298,-88.939 66.778,-134.25c2.689,-5.671 16.547,-33.424 19.765,-48.186c1.946,-8.927 0.288,-15.812 -1.895,-19.521c-1.897,-3.224 -8.319,-9.34 -18.7,-15.718c-28.228,-17.342 -91.695,-47.319 -103.408,-53.377c-0.433,-0.224 -51.88,-20.426 -61.984,-24.742l-0.416,-0.182c-7.588,-4.042 -17.146,-1.625 -21.855,5.746c-0.362,0.568 -6.704,18.304 9.175,25.089c9.733,4.158 59.35,23.481 59.767,23.697c10.087,5.217 59.199,28.417 89.931,45.574c5.564,3.106 11.724,7.043 15.707,9.66Zm-144.244,-98.543c0.891,4.141 0.213,8.621 -2.245,12.469c2.263,-3.544 3.292,-7.658 2.245,-12.469Zm-4.069,-7.84c2.045,2.203 3.418,4.887 4.048,7.734l-0.021,-0.101c-0.412,-1.806 -1.247,-4.705 -4.027,-7.633Z" style="fill:#7e4021;"/><path d="M1091.93,3237.94c-8.225,2.508 -13.273,10.975 -11.391,19.517c0.145,0.658 8.202,17.684 24.228,11.253c9.823,-3.942 58.571,-25.363 59.018,-25.505c10.822,-3.444 61.954,-21.766 95.816,-31.366c6.131,-1.737 13.271,-3.309 17.938,-4.275c1.462,2.748 3.324,6.406 4.614,9.471c4.952,11.766 9.289,25.042 10.57,28.633c17.269,48.402 26.462,99.168 49.16,145.589c4.041,8.264 14.03,11.692 22.294,7.652c8.263,-4.041 11.692,-14.03 7.651,-22.294c-22.148,-45.296 -30.859,-94.919 -47.71,-142.148c-2.109,-5.911 -11.934,-35.335 -20.097,-48.049c-4.936,-7.688 -10.977,-11.384 -15.143,-12.463c-3.621,-0.939 -12.487,-0.722 -24.338,2.109c-32.223,7.697 -98.297,31.378 -110.863,35.377c-0.464,0.148 -51.128,22.241 -61.325,26.334l-0.422,0.165Zm13.932,1.939c3.559,2.299 6.247,5.945 7.229,10.404c-0.905,-4.106 -3.086,-7.742 -7.229,-10.404Zm-8.421,-2.666c3.004,0.111 5.872,1.038 8.331,2.606l-0.086,-0.057c-1.568,-0.985 -4.208,-2.445 -8.245,-2.549Z" style="fill:#7e4021;"/><path d="M946.221,3097.34c4.977,7.011 14.606,9.127 22.116,4.643c0.578,-0.346 14.187,-13.369 3.024,-26.542c-6.843,-8.075 -42.565,-47.561 -42.842,-47.94c-6.686,-9.181 -40.221,-51.907 -60.025,-81.004c-3.585,-5.268 -7.332,-11.546 -9.723,-15.668c2.146,-2.256 5.029,-5.178 7.53,-7.37c9.599,-8.415 20.825,-16.724 23.827,-19.074c40.469,-31.673 85.733,-56.431 122.607,-92.63c6.565,-6.444 6.662,-17.005 0.218,-23.569c-6.444,-6.564 -17.005,-6.662 -23.569,-0.218c-35.981,35.322 -80.312,59.262 -119.8,90.168c-4.942,3.868 -29.756,22.484 -39.241,34.246c-5.735,7.111 -7.334,14.011 -7.042,18.304c0.254,3.732 3.259,12.076 9.689,22.426c17.481,28.141 60.821,83.353 68.584,94.012c0.287,0.394 37.253,41.485 44.357,49.867l0.29,0.349Zm-2.589,-13.728l-0.027,0.1c-0.44,1.799 -0.991,4.765 0.185,8.628c-0.843,-2.885 -0.869,-5.899 -0.158,-8.728Zm0.028,-0.104c1.057,-4.102 3.668,-7.804 7.588,-10.145c-3.61,2.155 -6.371,5.374 -7.588,10.145Z" style="fill:#7e4021;"/><path d="M1497.76,4177.59c10.58,1.008 28.549,2.508 38.366,6.219c24.683,9.332 50.262,18.054 75.831,24.638c8.908,2.293 18.003,-3.077 20.297,-11.985c2.293,-8.908 -3.077,-18.002 -11.985,-20.296c-24.4,-6.283 -48.801,-14.631 -72.356,-23.536c-12.048,-4.555 -34.005,-6.986 -46.991,-8.223c-9.157,-0.873 -17.3,5.853 -18.173,15.011c-0.872,9.157 5.854,17.299 15.011,18.172Z" style="fill:#7e4021;"/><path d="M1746.07,2912.66c10.367,-2.336 27.911,-6.506 38.395,-6.036c26.362,1.182 53.385,1.504 79.733,-0.201c9.179,-0.594 16.15,-8.529 15.555,-17.709c-0.594,-9.179 -8.529,-16.149 -17.708,-15.555c-25.143,1.628 -50.931,1.293 -76.087,0.165c-12.869,-0.577 -34.491,3.951 -47.216,6.819c-8.974,2.022 -14.618,10.949 -12.595,19.923c2.022,8.973 10.949,14.617 19.923,12.594Z" style="fill:#7e4021;"/><path d="M1217.85,2107.6l-247.985,-14.452l-204.262,2280.79c-0,0 30.672,76.989 121.206,83.486c82.335,5.908 126.089,-61.339 126.089,-61.339l204.952,-2288.49Z" style="fill:#c48464;"/><path d="M1234.45,2109.09c0.403,-4.492 -1.033,-8.955 -3.978,-12.371c-2.946,-3.416 -7.15,-5.492 -11.652,-5.754l-247.985,-14.451c-8.988,-0.524 -16.767,6.185 -17.57,15.152c0,-0 -204.263,2280.79 -204.263,2280.79c-0.233,2.605 0.15,5.227 1.118,7.656c-0,-0 34.074,86.662 135.496,93.941c92.277,6.622 141.252,-68.873 141.252,-68.873c1.485,-2.282 2.388,-4.892 2.631,-7.603c-0,0 204.951,-2288.49 204.951,-2288.49Zm-34.734,14.152l-203.014,2266.86c-9.158,12.086 -46.385,55.18 -108.7,50.708c-69.042,-4.955 -98.726,-56.196 -105.406,-69.754c-0.001,-0.001 202.429,-2260.32 202.429,-2260.32c52.431,3.055 214.691,12.511 214.691,12.511l0,-0Z" style="fill:#7e4021;"/><path d="M1082.62,3204.2c9.691,0.868 17.75,4.922 25.209,10.112c0.165,0.115 -8.326,94.362 -9.502,94.726c-6.534,2.024 -18.125,3.552 -25.356,2.905c-29.732,-2.663 -51.709,-28.964 -49.046,-58.696c2.662,-29.733 28.963,-51.71 58.695,-49.047Z" style="fill:#a8b54b;"/><path d="M1084.1,3187.6c-38.894,-3.483 -73.299,25.266 -76.783,64.16c-3.483,38.894 25.266,73.299 64.161,76.783c9.06,0.811 23.587,-1.048 31.774,-3.585c2.278,-0.706 7.989,-2.549 10.822,-10.388c0.365,-1.011 1.395,-6.025 2.261,-13.626c2.51,-22.032 7.172,-73.437 7.982,-83.565c0.931,-11.637 -6.837,-16.651 -6.975,-16.747c-9.805,-6.823 -20.503,-11.891 -33.242,-13.032l0,-0Zm6.253,35.716c-1.546,17.606 -4.843,53.31 -6.896,71.738c-3.233,0.373 -6.476,0.515 -9.006,0.288c-20.57,-1.842 -35.775,-20.038 -33.933,-40.609c1.842,-20.57 20.038,-35.775 40.609,-33.933l-0,0c3.347,0.3 6.384,1.22 9.226,2.516Z" style="fill:#7e4021;"/><path d="M879.968,3605.87c-28.03,-10.268 -42.451,-41.36 -32.184,-69.39c10.267,-28.03 41.36,-42.452 69.39,-32.184c28.03,10.267 42.451,41.36 32.184,69.39c-10.267,28.03 -41.36,42.451 -69.39,32.184Z" style="fill:#86a8cb;"/><path d="M874.235,3621.52c36.668,13.432 77.341,-5.433 90.773,-42.101c13.431,-36.667 -5.434,-77.341 -42.101,-90.772c-36.668,-13.431 -77.342,5.434 -90.773,42.101c-13.431,36.668 5.434,77.341 42.101,90.772l0,0Zm11.465,-31.299c-19.392,-7.104 -29.37,-28.615 -22.266,-48.008c7.103,-19.393 28.615,-29.37 48.008,-22.266c19.392,7.103 29.37,28.615 22.266,48.007c-7.103,19.393 -28.615,29.37 -48.008,22.267l0,-0Z" style="fill:#7e4021;"/><path d="M987.533,3766.15c-28.03,-10.268 -42.451,-41.36 -32.184,-69.39c10.267,-28.03 41.36,-42.452 69.39,-32.184c28.03,10.267 42.451,41.36 32.184,69.39c-10.267,28.03 -41.36,42.451 -69.39,32.184Z" style="fill:#edaf5f;"/><path d="M981.8,3781.8c36.668,13.431 77.342,-5.433 90.773,-42.101c13.431,-36.667 -5.434,-77.341 -42.101,-90.772c-36.668,-13.431 -77.342,5.434 -90.773,42.101c-13.431,36.667 5.434,77.341 42.101,90.772l0,0Zm11.465,-31.299c-19.392,-7.104 -29.37,-28.615 -22.266,-48.008c7.103,-19.393 28.615,-29.37 48.008,-22.266c19.392,7.103 29.37,28.615 22.266,48.007c-7.103,19.393 -28.615,29.37 -48.008,22.267l0,-0Z" style="fill:#7e4021;"/><path d="M906.888,4197.45c-28.03,-10.267 -42.451,-41.36 -32.184,-69.39c10.268,-28.03 41.36,-42.451 69.39,-32.183c28.031,10.267 42.452,41.359 32.184,69.389c-10.267,28.031 -41.36,42.452 -69.39,32.184Z" style="fill:#ee909d;"/><path d="M901.156,4213.1c36.667,13.431 77.341,-5.434 90.772,-42.101c13.431,-36.667 -5.434,-77.341 -42.101,-90.772c-36.667,-13.431 -77.341,5.433 -90.772,42.101c-13.431,36.667 5.433,77.341 42.101,90.772Zm11.465,-31.299c-19.393,-7.104 -29.37,-28.616 -22.267,-48.008c7.104,-19.393 28.615,-29.37 48.008,-22.267c19.393,7.104 29.37,28.615 22.266,48.008c-7.103,19.393 -28.615,29.37 -48.007,22.267Z" style="fill:#7e4021;"/><path d="M912.375,4320.7c29.733,2.663 51.71,28.964 49.047,58.696c-2.663,29.732 -28.963,51.709 -58.696,49.047c-29.732,-2.663 -51.709,-28.964 -49.046,-58.696c2.662,-29.732 28.963,-51.71 58.695,-49.047Z" style="fill:#a8b54b;"/><path d="M913.862,4304.1c-38.894,-3.483 -73.299,25.266 -76.783,64.16c-3.483,38.894 25.266,73.3 64.161,76.783c38.894,3.483 73.299,-25.266 76.782,-64.16c3.483,-38.895 -25.266,-73.3 -64.16,-76.783Zm-2.973,33.2c20.57,1.843 35.775,20.039 33.933,40.609c-1.842,20.571 -20.039,35.776 -40.609,33.933c-20.571,-1.842 -35.775,-20.038 -33.933,-40.608c1.842,-20.571 20.038,-35.776 40.609,-33.934Z" style="fill:#7e4021;"/><path d="M918.937,2742.67c-10.153,-3.07 -0.156,-113.256 9.649,-107.743c29.732,2.663 51.71,28.964 49.047,58.696c-2.663,29.732 -28.964,51.709 -58.696,49.047Z" style="fill:#ee909d;"/><path d="M914.113,2758.62c1.088,0.329 2.206,0.545 3.337,0.647c38.895,3.483 73.3,-25.266 76.783,-64.16c3.417,-38.15 -24.177,-71.98 -61.937,-76.549c-3.444,-0.918 -6.897,-0.695 -10.336,0.495c-2.983,1.032 -6.414,3.058 -9.365,7.058c-1.856,2.516 -4.044,6.938 -5.782,13.043c-6.239,21.916 -10.713,75.16 -7.805,96.931c0.907,6.792 2.816,11.689 4.59,14.445c2.991,4.647 6.841,6.979 10.515,8.09Zm23.686,-104.514c14.872,6.011 24.738,21.227 23.234,38.027c-1.475,16.465 -13.427,29.492 -28.688,33.081c-0.164,-12.198 -0.12,-34.216 1.764,-49.899c0.879,-7.319 2.427,-15.32 3.69,-21.209Zm-13.493,-3.078l0.005,0.001l-0.258,-0.073l0.253,0.072Zm-0.665,-0.188c-1.076,-0.324 -2.15,-0.785 -3.223,-1.388c1.025,0.576 2.105,1.041 3.223,1.388Z" style="fill:#7e4021;"/><path d="M815.52,3918.57c-10.153,-3.07 -0.155,-113.255 9.649,-107.742c29.733,2.663 51.71,28.963 49.047,58.696c-2.663,29.732 -28.963,51.709 -58.696,49.046Z" style="fill:#a692ba;"/><path d="M810.696,3934.52c1.088,0.328 2.206,0.545 3.338,0.647c38.894,3.483 73.299,-25.266 76.782,-64.161c3.417,-38.149 -24.176,-71.98 -61.937,-76.548c-3.443,-0.919 -6.896,-0.695 -10.335,0.495c-2.984,1.032 -6.415,3.057 -9.366,7.058c-1.856,2.516 -4.044,6.938 -5.782,13.043c-6.239,21.916 -10.712,75.16 -7.805,96.931c0.907,6.792 2.816,11.689 4.59,14.445c2.992,4.647 6.841,6.979 10.515,8.09Zm23.686,-104.515c14.872,6.012 24.738,21.228 23.234,38.028c-1.475,16.465 -13.426,29.492 -28.688,33.081c-0.163,-12.198 -0.12,-34.216 1.764,-49.9c0.879,-7.319 2.428,-15.319 3.69,-21.209Zm-13.493,-3.077l0.005,0.001l-0.258,-0.073l0.253,0.072Zm-0.665,-0.188c-1.076,-0.324 -2.15,-0.785 -3.223,-1.388c1.025,0.576 2.106,1.041 3.223,1.388Z" style="fill:#7e4021;"/><path d="M1159.83,2661.11c10.152,3.07 0.155,113.255 -9.65,107.742c-29.732,-2.663 -51.709,-28.963 -49.046,-58.696c2.662,-29.732 28.963,-51.709 58.696,-49.046Z" style="fill:#edaf5f;"/><path d="M1164.65,2645.15c-1.087,-0.328 -2.205,-0.545 -3.337,-0.646c-38.894,-3.484 -73.299,25.265 -76.782,64.16c-3.417,38.149 24.176,71.98 61.936,76.548c3.444,0.919 6.897,0.695 10.336,-0.495c2.983,-1.032 6.415,-3.057 9.366,-7.058c1.856,-2.515 4.043,-6.937 5.781,-13.043c6.239,-21.916 10.713,-75.16 7.806,-96.931c-0.907,-6.791 -2.816,-11.689 -4.59,-14.445c-2.992,-4.647 -6.841,-6.978 -10.516,-8.09Zm-9.527,107.78c1.075,0.324 2.15,0.785 3.223,1.389c-1.025,-0.577 -2.106,-1.042 -3.223,-1.389Zm-0.67,-0.189l0.258,0.073l-0.254,-0.072l-0.004,-0.001Zm-8.034,-74.185c0.163,12.198 0.119,34.216 -1.764,49.9c-0.88,7.319 -2.428,15.319 -3.69,21.209c-14.873,-6.012 -24.739,-21.228 -23.234,-38.028c1.474,-16.464 13.426,-29.492 28.688,-33.081Z" style="fill:#7e4021;"/><path d="M1002.05,2928.99c-28.03,-10.267 -42.451,-41.359 -32.183,-69.389c10.267,-28.031 41.359,-42.452 69.39,-32.184c28.03,10.267 42.451,41.36 32.183,69.39c-10.267,28.03 -41.36,42.451 -69.39,32.183Z" style="fill:#a692ba;"/><path d="M996.318,2944.64c36.667,13.431 77.341,-5.433 90.772,-42.101c13.431,-36.667 -5.434,-77.341 -42.101,-90.772c-36.667,-13.431 -77.341,5.434 -90.772,42.101c-13.431,36.667 5.433,77.341 42.101,90.772l-0,0Zm11.465,-31.299c-19.393,-7.104 -29.37,-28.615 -22.267,-48.008c7.104,-19.393 28.615,-29.37 48.008,-22.266c19.393,7.103 29.37,28.615 22.267,48.007c-7.104,19.393 -28.615,29.37 -48.008,22.267l-0,-0Z" style="fill:#7e4021;"/><path d="M1298.46,3198.77c5.679,-8.983 15.135,-24.337 22.881,-31.418c19.476,-17.805 38.813,-36.685 56.238,-56.522c6.07,-6.911 5.388,-17.45 -1.523,-23.521c-6.911,-6.071 -17.45,-5.388 -23.521,1.522c-16.628,18.93 -35.099,36.928 -53.685,53.919c-9.507,8.691 -21.595,27.182 -28.565,38.208c-4.916,7.775 -2.594,18.079 5.181,22.994c7.776,4.915 18.079,2.593 22.994,-5.182Z" style="fill:#7e4021;"/><path d="M843.823,2913.76c-10.317,-2.55 -27.872,-6.673 -37.037,-11.785c-23.046,-12.855 -47.067,-25.238 -71.392,-35.505c-8.475,-3.577 -18.259,0.4 -21.836,8.874c-3.577,8.475 0.399,18.259 8.874,21.836c23.213,9.798 46.124,21.638 68.116,33.906c11.249,6.275 32.611,11.903 45.275,15.033c8.93,2.208 17.972,-3.249 20.179,-12.179c2.208,-8.93 -3.249,-17.972 -12.179,-20.18Z" style="fill:#7e4021;"/><path d="M1738.93,3930.83c4.104,-0.591 7.841,-2.69 10.48,-5.888c16.251,-19.692 50.265,-39.157 76.997,-60.958c21.537,-17.563 38.469,-36.858 43.615,-57.346c4.665,-18.569 3.542,-40.431 -0.321,-62.918c-5.138,-29.911 -15.098,-61.069 -18.72,-85.513c-4.147,-27.983 -2.59,-69.244 -7.03,-106.247c-3.356,-27.967 -10.286,-53.604 -23.564,-71.391c-5.395,-7.226 -15.221,-13.931 -29.231,-18.841c-16.188,-5.673 -38.846,-9.578 -65.111,-11.731c-68.242,-5.593 -161.818,0.209 -224.626,11.736c-28.915,5.306 -51.643,12.129 -63.674,19.209c-42.439,24.977 -67.762,50.255 -82.541,77.087c-15.072,27.365 -19.396,56.593 -18.375,89.787c1.238,40.226 10.545,86.756 14.944,143.822c1.648,21.368 -0.932,71.666 6.657,108.149c4.055,19.496 11.388,35.395 21.627,44.361c2.954,2.587 7.376,5.125 13.413,6.984c8.572,2.64 21.914,4.327 38.622,4.929c85.603,3.08 269.014,-19.785 306.838,-25.231Zm-337.435,-12.244c-3.175,-3.061 -5.266,-7.777 -7.129,-13.218c-2.703,-7.891 -4.46,-17.215 -5.69,-27.075c-4.111,-32.953 -2.296,-71.418 -3.668,-89.217c-3.294,-42.732 -9.356,-79.544 -12.708,-112.223c-3.58,-34.912 -4.284,-64.712 6.912,-91.918c11.079,-26.922 33.916,-50.828 75.44,-75.265c9.934,-5.847 28.909,-10.77 52.784,-15.152c60.365,-11.078 150.299,-16.675 215.886,-11.299c22.897,1.877 42.697,5.02 56.809,9.966c6.203,2.174 11.156,4.125 13.544,7.324c10.248,13.728 14.59,33.838 17.18,55.423c4.478,37.322 2.97,78.937 7.152,107.161c3.076,20.756 10.579,46.276 16.038,71.841c4.813,22.536 8.293,45.094 3.648,63.583c-4.732,18.838 -25.04,34.6 -46.079,50.282c-23.197,17.292 -48.045,33.737 -63.419,49.878l0,-0c-41.287,5.673 -173.455,21.847 -260.074,24.086c-22.577,0.584 -41.935,0.251 -55.451,-1.602c-4.486,-0.615 -10.057,-2.24 -11.175,-2.575Z" style="fill:#7e4021;"/><path d="M740.762,3035.05c-4.785,-3.941 -13.44,-8.182 -24.926,-11.651c-21.509,-6.495 -54.539,-11.531 -84.614,-12.611c-17.703,-0.636 -34.404,0.119 -47.325,2.547c-10.998,2.066 -19.683,5.57 -25.333,9.802c-9.846,7.374 -72.078,72.69 -98.99,105.649c-18.054,22.111 -48.328,51.582 -71.694,82.083c-17.244,22.508 -30.661,45.75 -34.804,67.224c-1.708,8.854 -0.046,20.633 5.76,34.296c6.709,15.787 19.084,35.165 35.182,56.029c41.827,54.211 109.139,119.473 159.962,158.136c23.397,17.799 43.747,30.005 57.084,34.129c46.571,14.401 80.822,18.042 108.706,13.67c33.882,-5.312 59.068,-22.137 85.071,-48.224c23.346,-23.42 47.667,-54.742 81.936,-91.167c14.672,-15.595 59.501,-57.481 84.888,-93.624c13.189,-18.776 20.906,-36.77 20.645,-49.986c-0.078,-3.926 -1.179,-8.904 -3.871,-14.618c-3.822,-8.114 -11.561,-19.113 -22.369,-31.868c-55.377,-65.351 -195.808,-185.525 -225.308,-209.816Zm218.213,257.669c-0.138,3.391 -1.692,7.224 -3.731,11.49c-4.77,9.982 -12.724,21.168 -21.894,32.529c-24.888,30.835 -58.659,62.425 -70.851,75.384c-33.999,36.138 -58.103,67.238 -81.266,90.475c-20.505,20.571 -39.908,34.636 -66.626,38.825c-24.06,3.772 -53.511,-0.158 -93.695,-12.585c-11.012,-3.405 -27.432,-14.116 -46.75,-28.812c-48.845,-37.159 -113.553,-99.867 -153.753,-151.969c-14.034,-18.189 -25.046,-34.942 -30.895,-48.704c-2.57,-6.05 -4.464,-11.025 -3.708,-14.945c3.307,-17.141 14.77,-35.299 28.535,-53.267c23.145,-30.212 53.169,-59.37 71.053,-81.272c25.411,-31.121 83.856,-93.088 93.152,-100.051c2.515,-1.884 6.609,-2.802 11.506,-3.722c10.912,-2.05 25.024,-2.532 39.974,-1.995c23.326,0.837 48.626,4.231 67.634,8.892c10.103,2.478 18.219,4.748 21.913,7.79c25.378,20.897 134.312,113.907 197.619,179.878c15.637,16.295 28.428,30.828 36.161,42.067c2.565,3.727 5.114,8.934 5.622,9.992Z" style="fill:#7e4021;"/><path d="M1751.03,3777.59c6.277,0.912 12.8,-1.821 16.439,-7.506c3.242,-5.066 3.203,-9.853 1.873,-14.072c-1.063,-3.372 -3.814,-9.472 -12.56,-11.395c-2.681,-0.59 -19.386,0.835 -20.167,0.972c-18.173,3.181 -36.254,7.19 -54.297,11.027c-12.907,2.745 -110.643,32.186 -141.634,39.689c-0.758,-1.076 -1.541,-2.254 -2.178,-3.353c-5.506,-9.492 -11.546,-23.653 -17.867,-40.426c-26.012,-69.023 -55.473,-180.299 -64.781,-209.297c-2.812,-8.758 -12.205,-13.586 -20.964,-10.775c-8.758,2.812 -13.586,12.205 -10.775,20.964c10.76,33.517 48.278,175.677 76.638,238.569c5.691,12.621 11.232,22.362 16.068,28.258c3.498,4.266 7.031,7.079 10.167,8.748c1.219,0.649 6.888,2.911 15.975,0.987c24.183,-5.12 132.639,-37.857 146.285,-40.76c17.649,-3.753 35.333,-7.685 53.11,-10.797c0.285,-0.049 6.192,-0.603 8.668,-0.833Zm-12.485,-9.001c-2.552,-5.08 -2.437,-11.34 0.847,-16.473c-3.894,6.085 -3.566,11.57 -0.847,16.473Z" style="fill:#7e4021;"/><path d="M774.648,3270.04c-0.725,2.012 -1.761,4.651 -2.882,6.825c-4.197,8.137 -10.647,17.921 -18.455,28.724c-39.429,54.558 -111.64,132.649 -126.993,159.387c-4.581,7.977 -1.823,18.173 6.154,22.753c7.977,4.58 18.172,1.823 22.753,-6.154c15.092,-26.284 86.344,-102.831 125.103,-156.461c12.95,-17.92 22.416,-33.674 26.222,-44.77c2.805,-8.178 2.964,-15.011 1.681,-20.038c-0.277,-1.086 -2.011,-5.674 -7.406,-11.213c-18.018,-18.499 -104.983,-96.661 -116.533,-104.947c-14.662,-10.518 -29.479,-20.941 -43.751,-31.985c-7.274,-5.63 -17.751,-4.294 -23.381,2.98c-5.629,7.275 -4.294,17.752 2.981,23.381c14.591,11.292 29.732,21.956 44.721,32.709c10.689,7.669 88.393,77.598 109.786,98.809Z" style="fill:#7e4021;"/><path d="M1516.01,3810.57c-3.065,2.179 -7.887,5.567 -9.905,6.827c-10.338,6.46 -21.115,12.155 -31.855,17.906c-8.109,4.342 -11.168,14.451 -6.826,22.56c4.342,8.109 14.451,11.168 22.56,6.826c11.395,-6.101 22.816,-12.169 33.784,-19.023c5.234,-3.27 18.044,-12.783 19.511,-14.616c6.752,-8.433 3.305,-15.918 1.47,-19.054c-1.024,-1.75 -8.087,-12.984 -22.504,-6.379c-2.537,1.163 -4.643,2.884 -6.235,4.953Zm17.336,26.336l-0.27,0.069l0.047,-0.009l0.223,-0.06Zm1.014,-0.296l-0.499,0.156l0.215,-0.058l0.284,-0.098Zm0.861,-0.307l-0.436,0.161l0.293,-0.101l0.143,-0.06Z" style="fill:#7e4021;"/><path d="M792.233,3286.04c11.865,3.326 44.571,4.888 56.181,8.998c8.671,3.07 18.203,-1.477 21.273,-10.149c3.07,-8.671 -1.478,-18.203 -10.149,-21.273c-12.059,-4.269 -45.98,-6.216 -58.306,-9.672c-8.857,-2.483 -18.064,2.691 -20.547,11.548c-2.484,8.857 2.691,18.064 11.548,20.548Z" style="fill:#7e4021;"/><path d="M1007.71,3530.04c-23.868,-5.321 -144.569,-19.674 -201.322,-15.525c-11.795,0.862 -21.221,2.638 -27.341,5.023c-4.832,1.883 -8.357,4.336 -10.774,6.819c-29.331,30.126 -87.102,153.804 -118.592,234.295c-14.357,36.701 -22.876,65.162 -22.729,73.356c0.059,3.321 0.943,7.411 3.321,11.95c2.654,5.067 7.946,11.781 15.456,19.314c34.779,34.882 122.803,95.919 139.288,107.793c60.75,43.76 85.762,65.421 122.235,73.578c24.447,5.467 54.21,4.92 103.608,-0.19c66.614,-6.89 99.505,-13.258 123.755,-31.517c23.932,-18.019 39.836,-48.403 70.322,-106.717c6.647,-12.713 42.258,-94.947 53.908,-135.603c4.083,-14.248 4.637,-25.05 3.364,-29.579c-2.843,-10.115 -11.539,-24.26 -22.375,-38.662c-13.896,-18.468 -31.159,-37.863 -38.734,-48.675c-5.189,-7.408 -31.799,-28.678 -64.608,-51.374c-47.772,-33.046 -108.512,-69.766 -128.782,-74.286Zm221.946,220.559c-0.615,2.774 -3.762,16.579 -7.872,28.633c-14.078,41.296 -40.821,102.898 -46.387,113.543c-27.016,51.676 -39.624,79.564 -60.832,95.532c-20.89,15.729 -49.75,19.054 -107.135,24.99c-44.295,4.582 -70.981,5.719 -92.903,0.816c-33.08,-7.397 -54.931,-28.408 -110.028,-68.095c-14.059,-10.127 -81.588,-56.837 -120.955,-91.141c-9.982,-8.699 -20.439,-20.569 -23.095,-23.64c1.248,-8.79 9.366,-30.557 20.275,-58.441c29.572,-75.592 82.35,-191.88 110.477,-222.173c1.183,-0.35 4.564,-1.312 7.3,-1.74c8.396,-1.315 19.627,-1.812 32.48,-1.803c58.717,0.042 149.519,11.045 169.475,15.495c18.539,4.134 73.38,38.94 117.073,69.165c28.17,19.486 51.815,36.725 56.27,43.085c7.713,11.01 25.251,30.788 39.4,49.592c7.351,9.77 13.946,19.021 16.457,26.182Z" style="fill:#7e4021;"/><path d="M649.551,4455.46c19.629,14.584 124.011,76.867 177.531,96.201c11.122,4.018 20.454,6.236 27.015,6.551c5.18,0.25 9.399,-0.554 12.618,-1.837c39.059,-15.563 142.208,-104.973 203.759,-165.652c28.064,-27.667 47.439,-50.188 50.644,-57.731c1.298,-3.057 2.157,-7.152 1.836,-12.267c-0.359,-5.708 -2.457,-13.995 -6.247,-23.935c-17.55,-46.025 -73.069,-137.629 -83.286,-155.189c-37.651,-64.714 -51.668,-94.687 -81.654,-116.996c-20.098,-14.952 -47.502,-26.579 -94.695,-42.038c-63.643,-20.847 -96.275,-28.432 -125.86,-21.638c-29.197,6.706 -56.1,27.975 -107.699,68.808c-11.25,8.903 -77.275,69.493 -104.479,101.876c-9.533,11.347 -14.44,20.987 -15.123,25.641c-1.524,10.396 0.654,26.857 4.682,44.424c5.167,22.527 13.03,47.273 15.543,60.234c1.721,8.879 17.356,39.145 38.072,73.238c30.163,49.643 70.673,107.924 87.343,120.31Zm439.847,-133.585c-4.721,7.519 -21.003,24.09 -42.326,45.11c-57.804,56.986 -153.381,141.683 -191.41,157.887c-1.222,-0.162 -4.702,-0.661 -7.376,-1.384c-8.203,-2.22 -18.662,-6.342 -30.396,-11.587c-53.605,-23.961 -132.047,-71.004 -148.459,-83.198c-15.247,-11.328 -51.148,-65.457 -78.737,-110.862c-17.786,-29.272 -32.356,-54.649 -33.834,-62.273c-2.558,-13.196 -10.517,-38.404 -15.777,-61.341c-2.733,-11.918 -4.986,-23.053 -4.362,-30.615c1.692,-2.284 10.19,-13.608 18.854,-22.943c29.682,-31.977 79.203,-77.338 88.623,-84.793c45.726,-36.185 68.602,-56.517 94.475,-62.459c25.486,-5.853 53.198,2.868 108.022,20.827c42.319,13.862 67.153,23.697 85.175,37.105c27.196,20.233 38.592,48.323 72.739,107.015c8.714,14.976 51.354,85.146 73.329,132.513c5.572,12.011 10.286,27.111 11.46,30.998Z" style="fill:#7e4021;"/><path d="M943.988,4023.29l1.66,-4.669c10.855,-30.211 21.238,-60.529 31.313,-91.011c13.858,-41.925 20.207,-72.731 27.701,-96.715c6.353,-20.333 13.295,-35.118 28.956,-47.517c14.651,-11.599 36.119,-21.18 69.182,-31.835c8.756,-2.822 13.573,-12.221 10.751,-20.976c-2.822,-8.755 -12.22,-13.572 -20.976,-10.751c-38.206,12.314 -62.717,24.024 -79.647,37.427c-21.185,16.772 -31.489,36.207 -40.083,63.711c-7.453,23.853 -13.75,54.497 -27.533,96.195c-9.985,30.211 -20.276,60.259 -31.034,90.2c-0.227,0.631 -2.972,7.657 -3.69,11.738c-0.752,4.281 -0.161,7.79 0.553,9.947c2.165,6.542 6.663,9.957 12.134,11.334c8.92,2.246 17.985,-3.174 20.231,-12.094c0.421,-1.672 0.572,-3.348 0.482,-4.984Zm-4.217,-10.187l0.132,0.155l-0.023,-0.03l-0.109,-0.125Zm-0.027,-0.031c-2.19,-2.609 -5.057,-4.204 -8.332,-5.029c3.341,0.841 6.191,2.64 8.332,5.029Z" style="fill:#7e4021;"/><path d="M908.703,4030.97l-3.418,3.587c-22.222,23.168 -44.057,46.625 -65.677,70.357c-29.737,32.643 -48.085,58.19 -64.7,77.039c-14.086,15.981 -26.45,26.655 -45.804,31.597c-18.106,4.624 -41.615,4.627 -76.151,0.887c-9.145,-0.99 -17.373,5.631 -18.363,14.776c-0.991,9.145 5.63,17.374 14.775,18.364c39.909,4.321 67.064,3.613 87.986,-1.73c26.18,-6.685 43.508,-20.236 62.563,-41.853c16.524,-18.747 34.76,-44.166 64.336,-76.632c21.427,-23.521 43.067,-46.77 65.09,-69.73c0.465,-0.484 5.835,-5.782 8.152,-9.217c2.431,-3.602 3.321,-7.047 3.548,-9.308c0.688,-6.856 -2.028,-11.808 -6.463,-15.295c-7.232,-5.685 -17.718,-4.429 -23.403,2.802c-1.066,1.356 -1.887,2.825 -2.471,4.356Zm-0.287,11.061c0.936,3.274 2.905,5.899 5.56,7.986c-2.709,-2.129 -4.579,-4.932 -5.56,-7.986Zm-0.061,-0.199l0.049,0.159l-0.058,-0.195l0.009,0.036Z" style="fill:#7e4021;"/><path d="M1004.89,3763.94c-31.681,-16.177 -60.294,-46.735 -87.439,-69.343c-7.068,-5.887 -17.586,-4.927 -23.472,2.141c-5.887,7.068 -4.928,17.586 2.14,23.473c28.938,24.1 59.839,56.171 93.612,73.416c8.193,4.184 18.24,0.929 22.423,-7.264c4.183,-8.192 0.928,-18.24 -7.264,-22.423Z" style="fill:#7e4021;"/><path d="M747.424,4243.01c22.341,27.681 36.021,67.246 51.6,98.951c4.057,8.256 14.053,11.665 22.309,7.609c8.256,-4.057 11.665,-14.053 7.608,-22.309c-16.608,-33.799 -31.761,-75.677 -55.579,-105.186c-5.777,-7.158 -16.279,-8.279 -23.437,-2.502c-7.158,5.778 -8.279,16.279 -2.501,23.437Z" style="fill:#7e4021;"/><path d="M285.972,1938.78c-71.775,13.784 -162.888,33.902 -203.506,89.814c-71.491,98.408 -73.492,208.286 -55.438,236.406c36.761,57.26 374.646,144.508 562.715,158.81c368.737,28.042 931.968,29.249 1278.66,-31.204c141.087,-24.601 341.701,-78.245 373.614,-148.453c14.951,-32.892 3.795,-98.913 -3.309,-131.643c-9.294,-42.82 -37.624,-98.115 -93.585,-120.717c-294.517,-118.948 -1674.87,-88.402 -1859.15,-53.013Z" style="fill:#d8bef1;"/><path d="M282.829,1922.41c-44.289,8.505 -95.699,19.49 -138.794,39.23c-30.685,14.055 -57.207,32.59 -75.053,57.155c-52.681,72.516 -69.274,151.031 -68.115,201.717c0.564,24.68 5.658,43.4 12.136,53.489c5.388,8.392 15.737,17.699 30.766,26.929c19.161,11.768 46.597,24.202 79.645,36.533c125.022,46.65 332.113,92.852 465.065,102.963c369.928,28.132 934.975,29.244 1282.79,-31.404c100.361,-17.5 230.302,-49.666 310.393,-91.739c37.828,-19.871 64.809,-42.648 75.531,-66.236c6.839,-15.046 9.337,-36.089 8.829,-58.397c-0.691,-30.406 -6.594,-63.272 -11.023,-83.678c-10.243,-47.187 -41.964,-107.73 -103.631,-132.636c-89.308,-36.069 -277.333,-58.963 -501.922,-71.781c-520.012,-29.678 -1237.23,-6.992 -1366.62,17.855l-0,-0Zm6.286,32.735c128.609,-24.698 841.535,-46.811 1358.43,-17.311c219.799,12.545 403.935,34.11 491.338,69.41c50.255,20.297 75.192,70.344 83.539,108.798c4.095,18.87 9.634,49.25 10.274,77.366c0.38,16.707 -0.729,32.577 -5.851,43.846c-4.181,9.198 -12.144,17.84 -22.632,26.302c-18.204,14.687 -43.692,28.239 -73.335,40.737c-77.158,32.531 -181.828,57.33 -265.337,71.891c-345.574,60.258 -906.988,58.956 -1274.53,31.005c-130.345,-9.913 -333.37,-55.221 -455.94,-100.956c-30.618,-11.425 -56.101,-22.804 -73.854,-33.707c-9.583,-5.886 -16.724,-11.182 -20.16,-16.534c-6.101,-9.502 -8.273,-30.204 -6.28,-56.769c3.362,-44.796 20.438,-104.759 61.177,-160.836c14.649,-20.165 36.779,-34.904 61.967,-46.442c40.713,-18.649 89.357,-28.765 131.198,-36.8l0,-0Z" style="fill:#7e4021;"/><path d="M103.449,2092.27c39.621,43.201 83.531,79.484 140.569,100.963c185.874,69.995 364.676,89.583 564.008,92.833c9.198,0.15 16.786,-7.196 16.936,-16.393c0.15,-9.197 -7.195,-16.786 -16.393,-16.936c-195.356,-3.185 -370.637,-22.1 -552.804,-90.699c-51.941,-19.559 -91.669,-52.958 -127.75,-92.298c-6.217,-6.779 -16.769,-7.235 -23.548,-1.018c-6.779,6.217 -7.235,16.769 -1.018,23.548Z" style="fill:#7e4021;"/><path d="M923.724,2291.47c35.041,-2.044 176.667,0.977 198.648,0.66c177.862,-2.567 360.025,5.349 536.545,-19.697c9.107,-1.293 15.452,-9.736 14.16,-18.843c-1.292,-9.107 -9.736,-15.452 -18.843,-14.16c-175.136,24.85 -355.876,16.823 -532.343,19.37c-22.143,0.319 -164.809,-2.665 -200.108,-0.607c-9.183,0.536 -16.203,8.426 -15.668,17.609c0.536,9.183 8.426,16.204 17.609,15.668Z" style="fill:#7e4021;"/><path d="M1960.62,2219.64c46.249,-9.581 119.045,-32.716 174.616,-69.217c39.659,-26.05 70.366,-59.109 79.692,-97.966c2.147,-8.945 -3.372,-17.949 -12.317,-20.096c-8.945,-2.147 -17.949,3.372 -20.096,12.317c-7.519,31.328 -33.605,56.882 -65.579,77.884c-51.877,34.075 -119.904,55.493 -163.078,64.438c-9.007,1.866 -14.805,10.694 -12.939,19.701c1.866,9.008 10.694,14.806 19.701,12.939Z" style="fill:#7e4021;"/><path d="M177.628,2035.22c-11.189,-13.279 7.611,-183.553 27.406,-217.969c63.66,-110.681 253.732,-149.753 366.113,-169.25c370.984,-64.361 978.922,-92.904 1337.33,36.912c36.755,13.313 74.863,30.824 100.659,61.378c51.241,60.694 56.188,280.56 48.964,287.776c-73.516,73.435 -238.907,157.37 -1046.31,159.67c-258.124,0.735 -645.247,-44.699 -834.157,-158.517Z" style="fill:#e9d4ff;"/><path d="M164.883,2045.96c1.178,1.399 2.578,2.593 4.144,3.537c190.9,115.017 581.963,161.651 842.806,160.908c405.344,-1.155 649.525,-22.912 801.603,-53.486c156.852,-31.534 218.376,-73.036 256.441,-111.059c1.53,-1.528 3.838,-4.425 5.15,-9.428c1.151,-4.391 2.154,-14.642 2.338,-29.024c0.568,-44.354 -5.01,-133.077 -22.765,-199.364c-8.183,-30.548 -19.199,-56.476 -32.73,-72.504c-27.675,-32.779 -68.285,-52.013 -107.719,-66.296c-360.694,-130.645 -972.5,-102.436 -1345.85,-37.663c-68.61,11.903 -165.641,31.115 -246.311,68.795c-56.156,26.231 -104.346,61.527 -131.401,108.566c-5.281,9.182 -10.824,26.962 -15.532,49.042c-10.118,47.451 -17.642,115.962 -17.439,152.865c0.059,10.743 0.854,19.172 2.139,24.357c1.26,5.087 3.296,8.58 5.129,10.754Zm1878.13,-20.442c-35.76,34.431 -94.527,70.249 -236.148,98.721c-150.847,30.327 -393.065,51.687 -795.128,52.833c-252.826,0.72 -630.861,-42.618 -819.811,-152.757c-0.37,-6.202 -1.099,-21.353 -0.41,-34.666c2.806,-54.268 14.722,-141.063 27.964,-164.087c23.873,-41.507 67.062,-71.839 116.613,-94.984c77.891,-36.383 171.655,-54.661 237.902,-66.154c368.616,-63.951 972.686,-92.827 1328.8,36.161c34.079,12.343 69.683,28.13 93.6,56.458c15.066,17.846 25.103,50.921 32.485,87.524c11.797,58.491 15.615,126.047 15.15,162.415c-0.095,7.345 -0.681,14.799 -1.021,18.536Z" style="fill:#7e4021;"/><ellipse cx="1117.51" cy="1775.05" rx="181.28" ry="52.065" style="fill:#9d5e3e;"/><path d="M1117.51,1706.31c-56.584,-0 -107.35,7.338 -141.866,18.704c-19.316,6.361 -33.93,14.252 -42.79,22.516c-9.185,8.566 -13.291,18.085 -13.291,27.511c0,9.427 4.106,18.946 13.29,27.512c8.861,8.264 23.475,16.155 42.791,22.515c34.516,11.366 85.282,18.705 141.866,18.705c56.584,0 107.349,-7.339 141.865,-18.705c19.317,-6.36 33.93,-14.251 42.791,-22.515c9.184,-8.566 13.29,-18.085 13.29,-27.512c0,-9.426 -4.106,-18.945 -13.29,-27.511c-8.861,-8.264 -23.474,-16.155 -42.791,-22.516c-34.516,-11.366 -85.281,-18.704 -141.865,-18.704Zm-0,33.333c43.364,0 83.074,4.477 113.676,11.986c19.775,4.852 35.517,10.746 45.219,17.809c1.719,1.252 3.199,2.512 4.363,3.835c0.576,0.655 1.355,1.063 1.355,1.768c0,0.706 -0.779,1.114 -1.355,1.769c-1.164,1.323 -2.644,2.583 -4.363,3.835c-9.701,7.063 -25.444,12.957 -45.219,17.809c-30.602,7.508 -70.312,11.986 -113.676,11.986c-43.364,-0 -83.075,-4.478 -113.677,-11.986c-19.775,-4.852 -35.517,-10.746 -45.218,-17.809c-1.72,-1.252 -3.199,-2.512 -4.363,-3.835c-0.576,-0.655 -1.356,-1.063 -1.356,-1.769c0,-0.705 0.78,-1.113 1.356,-1.768c1.164,-1.323 2.643,-2.583 4.363,-3.835c9.701,-7.063 25.443,-12.957 45.218,-17.809c30.602,-7.509 70.313,-11.986 113.677,-11.986Z" style="fill:#7e4021;"/><path d="M1989.61,1751.82c29.762,40.906 10.936,94.576 -85.791,129.064c-242.064,86.309 -1029.82,151.959 -1415.75,7.898c-8.617,-3.217 -18.225,1.168 -21.442,9.786c-3.217,8.618 1.168,18.226 9.785,21.443c392.159,146.386 1192.63,79.972 1438.61,-7.729c61.96,-22.092 96.498,-52.42 111.499,-82.796c16.58,-33.572 11.122,-68.317 -9.948,-97.277c-5.412,-7.438 -15.845,-9.083 -23.283,-3.671c-7.438,5.412 -9.083,15.844 -3.672,23.282Z" style="fill:#7e4021;"/><path d="M346.807,1839.09c-7.787,-2.68 -15.096,-6.243 -22.406,-10.011c-11.199,-5.774 -28.432,-15.055 -40.678,-27.911c-9.122,-9.577 -15.52,-21.467 -9.351,-35.915c3.612,-8.46 -0.324,-18.26 -8.784,-21.872c-8.459,-3.613 -18.26,0.323 -21.872,8.783c-9.997,23.413 -5.086,43.824 6.824,60.975c14.765,21.262 41.827,36.926 58.587,45.567c8.742,4.507 17.516,8.696 26.83,11.902c8.697,2.995 18.19,-1.636 21.184,-10.334c2.994,-8.697 -1.637,-18.189 -10.334,-21.184Z" style="fill:#7e4021;"/><path d="M720.76,1665.16c-25.34,-1.42 -51.46,2.266 -76.392,6.304c-27.819,4.506 -72.866,11.942 -109.56,27.445c-27.682,11.695 -50.525,28.284 -61.171,50.049c-11.633,23.782 -3.27,44.194 17.746,60.545c34.825,27.095 111.626,41.263 133.289,44.52c9.097,1.368 17.592,-4.906 18.96,-14.003c1.368,-9.096 -4.907,-17.591 -14.003,-18.959c-13.98,-2.103 -53.494,-8.861 -86.392,-21.5c-14.607,-5.611 -27.947,-12.17 -36.055,-20.496c-4.304,-4.42 -6.534,-9.467 -3.602,-15.461c7.51,-15.354 24.672,-25.739 44.2,-33.99c34.113,-14.412 76.056,-21.057 101.918,-25.245c22.589,-3.659 46.237,-7.215 69.197,-5.928c9.184,0.515 17.059,-6.524 17.573,-15.708c0.515,-9.184 -6.523,-17.058 -15.708,-17.573Z" style="fill:#7e4021;"/><path d="M1396.18,104.687c-0,0 -29.502,-76.733 -120.938,-86.316c-90.741,-9.511 -126.358,64.169 -126.358,64.169l-155.447,1730.69c0,0 63.538,14.733 125.407,12.391c74.317,-2.814 121.69,-14.826 121.69,-14.826l155.646,-1706.11Z" style="fill:#ffe6d8;"/><path d="M1412.77,106.201c0.232,-2.545 -0.124,-5.109 -1.041,-7.495c0,0 -32.611,-86.205 -134.757,-96.911c-103.003,-10.796 -143.1,73.491 -143.1,73.491c-0.875,1.809 -1.415,3.762 -1.595,5.763l-155.447,1730.69c-0.744,8.284 4.733,15.849 12.836,17.727c-0,0 65.765,15.234 129.802,12.809c76.439,-2.894 125.155,-15.325 125.155,-15.325c6.85,-1.736 11.86,-7.604 12.502,-14.641l155.645,-1706.11Zm-33.587,1.264c-8.141,89.239 -140.633,1541.56 -154.144,1689.65c-17.88,3.563 -55.826,9.917 -106.832,11.848c-42.235,1.599 -85.275,-5.056 -106.844,-9.086c0,-0 153.807,-1712.43 153.807,-1712.43c6.591,-11.356 38.97,-59.771 108.327,-52.501c70.109,7.348 99.236,59.045 105.686,72.517l0,0.001Z" style="fill:#7e4021;"/><path d="M1339.84,445.313c9.691,0.867 17.75,4.921 25.208,10.111c0.166,0.116 -8.326,94.362 -9.501,94.726c-6.535,2.025 -18.125,3.553 -25.356,2.905c-29.732,-2.663 -51.709,-28.963 -49.047,-58.696c2.663,-29.732 28.964,-51.709 58.696,-49.046Z" style="fill:#f8bcc4;"/><path d="M1341.33,428.712c-38.895,-3.483 -73.3,25.266 -76.783,64.161c-3.483,38.894 25.266,73.299 64.16,76.782c9.06,0.812 23.588,-1.048 31.775,-3.584c2.278,-0.706 7.988,-2.55 10.821,-10.389c0.366,-1.011 1.396,-6.025 2.262,-13.625c2.51,-22.033 7.172,-73.437 7.982,-83.565c0.93,-11.637 -6.838,-16.652 -6.976,-16.748c-9.804,-6.823 -20.502,-11.891 -33.241,-13.032l-0,0Zm6.253,35.716c-1.547,17.606 -4.844,53.31 -6.896,71.738c-3.234,0.374 -6.476,0.515 -9.006,0.289c-20.571,-1.842 -35.776,-20.039 -33.933,-40.609c1.842,-20.571 20.038,-35.775 40.608,-33.933l0,-0c3.348,0.3 6.385,1.22 9.227,2.515Z" style="fill:#7e4021;"/><path d="M1229.61,1280.93c29.733,2.663 51.71,28.963 49.047,58.696c-2.663,29.732 -28.963,51.709 -58.696,49.046c-29.732,-2.662 -51.709,-28.963 -49.046,-58.695c2.662,-29.733 28.963,-51.71 58.695,-49.047Z" style="fill:#a8ccf1;"/><path d="M1231.1,1264.33c-38.894,-3.484 -73.299,25.266 -76.783,64.16c-3.483,38.894 25.266,73.299 64.16,76.783c38.895,3.483 73.3,-25.266 76.783,-64.161c3.483,-38.894 -25.266,-73.299 -64.16,-76.782l-0,-0Zm-2.973,33.2c20.57,1.842 35.775,20.039 33.933,40.609c-1.843,20.57 -20.039,35.775 -40.609,33.933c-20.571,-1.842 -35.775,-20.038 -33.933,-40.609c1.842,-20.57 20.038,-35.775 40.609,-33.933l-0,0Z" style="fill:#7e4021;"/><path d="M1087.94,1518.55c29.733,2.662 51.71,28.963 49.047,58.695c-2.663,29.733 -28.963,51.71 -58.696,49.047c-29.732,-2.663 -51.709,-28.963 -49.046,-58.696c2.662,-29.732 28.963,-51.709 58.695,-49.046Z" style="fill:#dae1a4;"/><path d="M1089.43,1501.95c-38.894,-3.483 -73.299,25.266 -76.783,64.161c-3.483,38.894 25.266,73.299 64.161,76.782c38.894,3.484 73.299,-25.266 76.782,-64.16c3.484,-38.894 -25.266,-73.299 -64.16,-76.783l0,0Zm-2.973,33.201c20.57,1.842 35.775,20.038 33.933,40.609c-1.842,20.57 -20.039,35.775 -40.609,33.933c-20.57,-1.842 -35.775,-20.039 -33.933,-40.609c1.842,-20.571 20.038,-35.775 40.609,-33.933l-0,-0Z" style="fill:#7e4021;"/><path d="M1244.05,1696.1c10.153,3.07 0.156,113.255 -9.649,107.742c-29.733,-2.663 -51.71,-28.963 -49.047,-58.696c2.663,-29.732 28.964,-51.709 58.696,-49.046Z" style="fill:#ffce7b;"/><path d="M1248.87,1680.15c-1.088,-0.328 -2.206,-0.545 -3.337,-0.646c-38.895,-3.484 -73.3,25.265 -76.783,64.16c-3.417,38.149 24.176,71.98 61.937,76.548c3.443,0.919 6.896,0.695 10.335,-0.495c2.984,-1.032 6.415,-3.057 9.366,-7.058c1.856,-2.515 4.044,-6.937 5.782,-13.043c6.239,-21.916 10.712,-75.16 7.805,-96.931c-0.907,-6.791 -2.816,-11.689 -4.59,-14.445c-2.991,-4.647 -6.841,-6.978 -10.515,-8.09Zm-9.528,107.78c1.076,0.324 2.15,0.785 3.223,1.389c-1.025,-0.577 -2.106,-1.042 -3.223,-1.389Zm-0.67,-0.189l0.258,0.073l-0.253,-0.072l-0.005,-0.001Zm-8.034,-74.185c0.164,12.198 0.12,34.216 -1.764,49.9c-0.879,7.319 -2.428,15.319 -3.69,21.209c-14.872,-6.012 -24.738,-21.228 -23.234,-38.028c1.475,-16.464 13.426,-29.492 28.688,-33.081Z" style="fill:#7e4021;"/><path d="M1213.31,677.827c29.732,2.662 51.71,28.963 49.047,58.695c-2.663,29.733 -28.964,51.71 -58.696,49.047c-29.732,-2.663 -51.709,-28.963 -49.047,-58.696c2.663,-29.732 28.964,-51.709 58.696,-49.046Z" style="fill:#d8bef1;"/><path d="M1214.79,661.226c-38.894,-3.483 -73.3,25.266 -76.783,64.161c-3.483,38.894 25.266,73.299 64.16,76.782c38.895,3.484 73.3,-25.266 76.783,-64.16c3.483,-38.894 -25.266,-73.299 -64.16,-76.783l-0,0Zm-2.973,33.201c20.57,1.842 35.775,20.038 33.933,40.609c-1.843,20.57 -20.039,35.775 -40.609,33.933c-20.571,-1.842 -35.776,-20.039 -33.933,-40.609c1.842,-20.57 20.038,-35.775 40.608,-33.933l0.001,-0Z" style="fill:#7e4021;"/><path d="M1206.43,270.182c29.733,2.663 51.71,28.963 49.047,58.696c-2.663,29.732 -28.963,51.709 -58.696,49.046c-29.732,-2.663 -51.709,-28.963 -49.046,-58.696c2.662,-29.732 28.963,-51.709 58.695,-49.046Z" style="fill:#ffce7b;"/><path d="M1207.91,253.582c-38.894,-3.484 -73.299,25.265 -76.783,64.16c-3.483,38.894 25.266,73.299 64.161,76.782c38.894,3.484 73.299,-25.266 76.782,-64.16c3.484,-38.894 -25.266,-73.299 -64.16,-76.782Zm-2.973,33.2c20.57,1.842 35.775,20.038 33.933,40.609c-1.842,20.57 -20.039,35.775 -40.609,33.933c-20.57,-1.842 -35.775,-20.039 -33.933,-40.609c1.842,-20.57 20.038,-35.775 40.609,-33.933Z" style="fill:#7e4021;"/><path d="M1145.91,1030.87c29.732,2.662 51.709,28.963 49.047,58.695c-2.663,29.733 -28.964,51.71 -58.696,49.047c-29.733,-2.663 -51.71,-28.963 -49.047,-58.696c2.663,-29.732 28.964,-51.709 58.696,-49.046Z" style="fill:#ffce7b;"/><path d="M1147.39,1014.27c-38.895,-3.483 -73.3,25.266 -76.783,64.161c-3.483,38.894 25.266,73.299 64.16,76.782c38.894,3.484 73.299,-25.266 76.783,-64.16c3.483,-38.894 -25.266,-73.299 -64.16,-76.783l-0,0Zm-2.974,33.201c20.571,1.842 35.776,20.038 33.933,40.609c-1.842,20.57 -20.038,35.775 -40.609,33.933c-20.57,-1.842 -35.775,-20.039 -33.933,-40.609c1.843,-20.57 20.039,-35.775 40.609,-33.933l0,-0Z" style="fill:#7e4021;"/><path d="M1325.44,869.698c3.002,2.017 -6.11,105.554 -9.649,107.743c-29.733,-2.663 -51.71,-28.964 -49.047,-58.696c2.663,-29.732 28.942,-51.454 58.696,-49.047Z" style="fill:#dae1a4;"/><path d="M1334.73,855.863c-2.369,-1.591 -5.106,-2.547 -7.95,-2.777c-38.883,-3.146 -73.16,25.318 -76.64,64.172c-3.483,38.895 25.266,73.3 64.16,76.783c3.59,0.322 7.188,-0.53 10.253,-2.426c1.666,-1.029 6.309,-4.414 8.341,-12.463c3.227,-12.783 8.839,-71.348 9.688,-97.136c0.331,-10.026 -0.886,-16.801 -1.619,-18.543c-1.697,-4.031 -4.215,-6.254 -6.233,-7.61Zm-25.732,32.245c-0.964,19.162 -3.651,49.535 -6.093,68.43c-12.794,-6.88 -20.942,-20.93 -19.565,-36.306c1.375,-15.353 11.87,-27.581 25.658,-32.124Z" style="fill:#7e4021;"/><path d="M1272.94,25.552c38.037,3.406 67.405,23.077 65.54,43.9c-1.865,20.822 -34.26,34.962 -72.297,31.555c-38.038,-3.406 -67.405,-23.077 -65.54,-43.9c1.864,-20.822 34.26,-34.962 72.297,-31.555Z" style="fill:#7e4021;"/><path d="M1134.29,84.965c2.031,11.778 12.716,24.765 16.649,28.682c20.001,19.921 44.097,31.066 71.217,37.477c8.952,2.116 17.937,-3.433 20.054,-12.385c2.116,-8.952 -3.434,-17.938 -12.386,-20.054c-21.007,-4.966 -39.869,-13.224 -55.362,-28.656c-1.541,-1.534 -6.528,-6.114 -7.323,-10.727c-1.563,-9.065 -10.191,-15.156 -19.256,-13.593c-9.065,1.562 -15.156,10.191 -13.593,19.256Z" style="fill:#7e4021;"/><path d="M1287.97,162.939c34.832,5.651 68.837,-1.132 91.121,-14.978c18.008,-11.188 28.825,-27.005 30.156,-44.697c0.691,-9.172 -6.196,-17.18 -15.369,-17.87c-9.172,-0.691 -17.18,6.196 -17.87,15.368c-0.588,7.815 -6.555,13.944 -14.509,18.886c-16.645,10.342 -42.173,14.609 -68.191,10.388c-9.08,-1.473 -17.648,4.703 -19.121,13.782c-1.473,9.08 4.703,17.648 13.783,19.121Z" style="fill:#7e4021;"/><path d="M2426.38,4392.81c198.443,45.331 204.033,395.48 39.893,343.979c-11.657,-3.657 -22.729,-9.87 -32.691,-17.204c-25.428,-18.718 -44.458,-42.969 -72.386,-58.651c-44.6,-25.043 -95.105,-35.826 -138.264,-64.176c-16.182,-10.63 -29.57,-24.591 -38.803,-41.529c-76.68,-140.672 148.66,-183.798 242.251,-162.419Z" style="fill:#fff;"/><path d="M2430.09,4376.57c-59.627,-13.62 -169.564,-2.288 -230.428,40.985c-22.511,16.004 -38.592,36.261 -44.901,60.525c-6.24,23.996 -3.137,52.353 14.732,85.134c10.548,19.35 25.8,35.338 44.287,47.482c43.485,28.564 94.317,39.546 139.254,64.779c27.318,15.339 45.793,39.231 70.666,57.541c11.44,8.421 24.195,15.483 37.582,19.684c31.436,9.863 57.64,6.821 78.561,-4.468c30.258,-16.327 50.08,-51.193 56.91,-94.623c15.912,-101.178 -38.601,-247.785 -166.663,-277.039l0,0Zm-7.423,32.497c110.071,25.143 154.834,152.4 141.157,239.364c-5.006,31.833 -17.631,58.498 -39.81,70.466c-14.036,7.573 -31.663,8.615 -52.753,1.998c-9.927,-3.114 -19.317,-8.479 -27.8,-14.724c-25.984,-19.128 -45.568,-43.736 -74.107,-59.761c-44.262,-24.854 -94.441,-35.438 -137.273,-63.574c-13.878,-9.116 -25.402,-21.05 -33.32,-35.576c-12.805,-23.491 -16.211,-43.595 -11.74,-60.791c6.856,-26.364 31.158,-44.797 61.087,-57.953c55.162,-24.248 130.394,-29.538 174.559,-19.449l-0,-0Z" style="fill:#7e4021;"/><path d="M2461.54,4555.99c131.866,161.273 -111.649,435.65 -210.796,291.421c-7.041,-10.243 -11.788,-22.091 -14.823,-34.098c-7.749,-30.651 -6.289,-61.511 -18.256,-91.403c-19.109,-47.736 -53.204,-88.198 -68.78,-137.575c-5.84,-18.514 -7.01,-37.827 -2.636,-56.8c36.32,-157.573 253.099,-47.607 315.291,28.455Z" style="fill:#fff;"/><path d="M2474.44,4545.44c-39.443,-48.239 -137.761,-109.28 -218.356,-114.498c-29.279,-1.896 -56.325,3.395 -78.236,17.822c-22.096,14.547 -39.405,38.418 -47.843,75.027c-5.047,21.898 -3.757,44.19 2.983,65.558c15.701,49.776 49.938,90.633 69.201,138.755c11.684,29.186 10.005,59.367 17.57,89.293c3.516,13.906 9.093,27.593 17.248,39.455c18.816,27.373 42.257,41.685 67.316,46.218c35.898,6.494 76.117,-7.786 111.863,-36.491c85.038,-68.287 143.54,-216.832 58.254,-321.139l-0,-0Zm-25.806,21.1c72.955,89.225 19.423,215.635 -53.319,274.049c-44.366,35.626 -97.384,46.047 -130.839,-2.62c-5.928,-8.623 -9.844,-18.632 -12.4,-28.741c-7.931,-31.376 -6.692,-62.913 -18.941,-93.512c-18.954,-47.35 -52.909,-87.417 -68.358,-136.395c-4.94,-15.66 -5.99,-31.994 -2.29,-48.043c6.09,-26.421 17.744,-44.174 33.691,-54.673c16.13,-10.62 36.199,-13.795 57.753,-12.399c71.901,4.655 159.515,59.298 194.703,102.333l0,0.001Z" style="fill:#7e4021;"/><path d="M2240.3,4608.36c207.281,20.794 229.103,386.998 57.011,355.121c-12.221,-2.264 -23.956,-7.286 -34.593,-13.63c-27.152,-16.194 -47.941,-39.047 -77.54,-51.723c-47.267,-20.242 -99.987,-24.744 -145.915,-48.645c-17.221,-8.962 -31.705,-21.791 -42.028,-38.3c-85.738,-137.103 145.305,-212.631 243.065,-202.823Z" style="fill:#fff;"/><path d="M2241.96,4591.78c-62,-6.22 -174.684,20.139 -235.363,73.439c-22.044,19.363 -37.427,42.228 -42.72,67.923c-5.337,25.911 -0.697,55.029 19.223,86.882c11.915,19.053 28.59,33.904 48.465,44.247c46.3,24.095 99.399,28.776 147.048,49.182c28.899,12.376 49.053,34.904 75.564,50.716c12.319,7.348 25.94,13.082 40.094,15.703c32.661,6.05 59.356,-0.405 80.281,-14.919c29.976,-20.791 48.317,-59.327 53.296,-104.901c11.845,-108.418 -51.825,-254.823 -185.888,-268.272Zm-3.328,33.167c114.679,11.505 166.212,138.744 156.08,231.485c-6.18,56.563 -36.3,101.421 -94.369,90.665c-10.289,-1.906 -20.136,-6.215 -29.092,-11.556c-27.794,-16.577 -49.218,-39.754 -79.516,-52.729c-46.884,-20.079 -99.226,-24.402 -144.782,-48.11c-14.567,-7.58 -26.859,-18.387 -35.591,-32.352c-14.377,-22.989 -18.689,-43.783 -14.837,-62.483c3.896,-18.915 15.843,-35.351 32.07,-49.605c54.134,-47.55 154.725,-70.864 210.037,-65.315Z" style="fill:#7e4021;"/><path d="M2197.09,4025.7c52.328,-31.988 150.048,72.591 160.194,90.503c28.184,49.758 60.937,99.805 66.172,158.174c3.349,37.332 -5.386,72.147 -19.278,106.502c-19.842,49.07 -52.122,98.991 -90.398,136.21c-129.603,126.022 -301.468,-378.433 -116.69,-491.389Z" style="fill:#fff;"/><path d="M2188.4,4011.48c-56.062,34.271 -83.071,101.191 -88.027,177.672c-7.115,109.816 30.879,238.83 82.748,308.659c24.886,33.504 53.548,53.58 81.557,55.79c20.346,1.606 41.046,-5.429 60.724,-24.563c39.884,-38.783 73.555,-90.779 94.23,-141.911c14.895,-36.836 24.017,-74.21 20.427,-114.239c-5.449,-60.757 -38.933,-113.106 -68.27,-164.899c-7.646,-13.498 -61.263,-72.976 -112.2,-95.478c-25.875,-11.43 -51.158,-13.276 -71.188,-1.031l-0.001,-0Zm17.386,28.44c6.901,-4.219 15.062,-4.309 23.656,-2.501c11.335,2.384 23.256,8.119 34.974,15.346c37.497,23.127 72.721,61.683 78.369,71.653c27.032,47.722 59.053,95.467 64.074,151.448c3.107,34.636 -5.241,66.892 -18.129,98.765c-19.008,47.008 -49.899,94.854 -86.566,130.509c-9.651,9.384 -19.405,14.488 -29.389,15.244c-9.957,0.754 -19.822,-2.782 -29.518,-9.116c-24.079,-15.731 -46.264,-47.559 -64.632,-87.184c-34.596,-74.636 -54.682,-176.97 -41.979,-261.043c7.982,-52.828 28.805,-98.464 69.14,-123.121Z" style="fill:#7e4021;"/><path d="M2060.41,4150.77c45.323,-41.319 161.079,42.864 174.433,58.53c37.097,43.52 78.735,86.46 94.928,142.782c10.357,36.022 8.373,71.861 1.239,108.225c-10.191,51.939 -32.434,107.07 -62.97,150.864c-103.393,148.284 -367.675,-314.498 -207.63,-460.401Z" style="fill:#fff;"/><path d="M2049.18,4138.46c-48.559,44.268 -62.407,115.091 -52.79,191.126c13.809,109.177 75.547,228.662 139.7,287.406c30.78,28.185 62.725,42.47 90.646,39.336c20.282,-2.276 39.275,-13.103 54.974,-35.618c31.818,-45.633 55.033,-103.065 65.652,-157.187c7.65,-38.991 9.53,-77.415 -1.575,-116.04c-16.856,-58.626 -59.647,-103.687 -98.262,-148.987c-10.063,-11.806 -73.973,-60.055 -128.25,-72.504c-27.571,-6.324 -52.746,-3.348 -70.095,12.468l-0,-0Zm22.456,24.633c5.978,-5.449 13.973,-7.083 22.755,-6.935c11.581,0.195 24.373,3.569 37.247,8.446c41.198,15.607 83.086,46.795 90.519,55.515c35.58,41.74 76.063,82.557 91.594,136.575c9.609,33.421 7.521,66.674 0.902,100.411c-9.763,49.757 -31.034,102.587 -60.286,144.54c-7.699,11.042 -16.31,17.901 -25.97,20.534c-9.635,2.625 -19.991,1.022 -30.711,-3.362c-26.622,-10.886 -54.433,-37.937 -79.972,-73.367c-48.104,-66.734 -87.204,-163.413 -90.652,-248.37c-2.166,-53.384 9.638,-102.138 44.574,-133.987Z" style="fill:#7e4021;"/><path d="M2001.38,4268.67c45.323,-41.319 161.079,42.864 174.433,58.531c37.097,43.52 78.734,86.46 94.928,142.781c10.357,36.023 8.373,71.862 1.238,108.225c-10.19,51.94 -32.433,107.071 -62.969,150.864c-103.393,148.285 -367.675,-314.498 -207.63,-460.401Z" style="fill:#fff;"/><path d="M1990.15,4256.35c-48.558,44.268 -62.406,115.092 -52.789,191.127c13.809,109.176 75.547,228.662 139.7,287.405c30.78,28.185 62.725,42.47 90.646,39.336c20.282,-2.276 39.275,-13.103 54.974,-35.618c31.818,-45.633 55.033,-103.065 65.652,-157.187c7.65,-38.99 9.53,-77.415 -1.575,-116.039c-16.856,-58.626 -59.647,-103.687 -98.262,-148.988c-10.063,-11.806 -73.973,-60.054 -128.25,-72.504c-27.571,-6.324 -52.747,-3.348 -70.096,12.468l0,0Zm22.457,24.634c5.978,-5.45 13.973,-7.084 22.754,-6.936c11.581,0.195 24.374,3.569 37.248,8.446c41.198,15.607 83.086,46.795 90.519,55.516c35.58,41.74 76.063,82.557 91.594,136.574c9.609,33.421 7.521,66.674 0.901,100.411c-9.762,49.757 -31.033,102.587 -60.285,144.54c-7.7,11.043 -16.311,17.902 -25.97,20.534c-9.635,2.626 -19.991,1.022 -30.711,-3.361c-26.622,-10.887 -54.433,-37.938 -79.972,-73.368c-48.104,-66.734 -87.205,-163.413 -90.652,-248.37c-2.166,-53.384 9.638,-102.137 44.574,-133.986Z" style="fill:#7e4021;"/><path d="M1973.5,4792.95c161.273,-131.866 435.65,111.649 291.421,210.796c-10.243,7.041 -22.091,11.788 -34.098,14.823c-30.651,7.748 -61.511,6.289 -91.403,18.255c-47.736,19.11 -88.198,53.205 -137.575,68.78c-18.514,5.84 -37.827,7.01 -56.8,2.637c-157.572,-36.321 -47.607,-253.099 28.455,-315.291Z" style="fill:#fff;"/><path d="M1962.95,4780.05c-48.239,39.443 -109.28,137.761 -114.498,218.356c-1.895,29.279 3.396,56.325 17.822,78.236c14.547,22.096 38.418,39.404 75.027,47.843c21.898,5.047 44.19,3.757 65.558,-2.983c49.776,-15.701 90.633,-49.938 138.755,-69.202c29.186,-11.683 59.367,-10.004 89.294,-17.57c13.906,-3.515 27.592,-9.092 39.455,-17.247c27.372,-18.816 41.684,-42.258 46.217,-67.316c6.494,-35.898 -7.786,-76.117 -36.49,-111.863c-68.288,-85.038 -216.833,-143.541 -321.14,-58.254l-0,0Zm21.1,25.805c89.225,-72.954 215.635,-19.422 274.049,53.32c35.626,44.366 46.048,97.384 -2.619,130.839c-8.624,5.928 -18.633,9.844 -28.742,12.4c-31.375,7.931 -62.913,6.691 -93.512,18.941c-47.35,18.954 -87.417,52.909 -136.395,68.358c-15.66,4.94 -31.994,5.99 -48.043,2.29c-26.421,-6.09 -44.174,-17.744 -54.673,-33.691c-10.62,-16.13 -13.795,-36.199 -12.399,-57.753c4.655,-71.901 59.298,-159.516 102.334,-194.703l-0,-0.001Z" style="fill:#7e4021;"/><path d="M1862.94,4375.27c38.067,-32.422 131.873,-2.076 149.937,4.674c35.51,13.27 69.771,32.694 99.191,56.661c89.663,73.044 48.012,159.575 39.876,254.101c-6.883,79.973 24.191,149.79 -78.821,185.746c-59.593,20.801 -178.734,5.49 -232.194,-25.296c-188.04,-108.287 -50.754,-413.909 22.011,-475.886Z" style="fill:#fff;"/><path d="M1852.14,4362.58c-45.561,38.806 -116.128,168.823 -122.292,291.294c-4.253,84.478 21.556,164.954 102.77,211.723c56.635,32.614 182.872,48.625 246.003,26.589c35.186,-12.282 56.302,-28.524 69.297,-47.016c13.211,-18.8 18.214,-40.27 19.618,-63.902c1.61,-27.088 -1.72,-57.303 1.02,-89.135c3.248,-37.741 11.858,-74.204 15.282,-109.041c5.668,-57.672 -1.971,-111.129 -61.237,-159.411c-30.813,-25.102 -66.692,-45.453 -103.884,-59.351c-11.438,-4.274 -51.659,-17.483 -90.678,-19.999c-29.331,-1.892 -57.779,2.816 -75.899,18.249Zm21.613,25.377c12.34,-10.51 32.166,-11.65 52.141,-10.362c34.927,2.253 70.917,14.134 81.155,17.96c33.829,12.641 66.472,31.138 94.498,53.97c48.33,39.372 53.74,83.277 49.118,130.307c-3.437,34.964 -12.06,71.563 -15.32,109.442c-2.767,32.147 0.542,62.661 -1.083,90.017c-1.023,17.202 -4.001,33.029 -13.617,46.713c-9.832,13.993 -26.386,25.418 -53.009,34.71c-56.054,19.566 -168.098,4.955 -218.383,-24.003c-69.22,-39.861 -89.738,-109.161 -86.114,-181.162c5.65,-112.248 68.856,-232.026 110.614,-267.592Z" style="fill:#7e4021;"/><path d="M1125.55,2536.07c16.391,-38.857 39.84,-68.09 45.112,-75.983c17.293,-25.89 44.793,-43.084 75.496,-28.786c40.136,18.691 67.356,57.233 106.494,78.33c30.613,16.501 63.868,28.416 97.044,38.607c60.072,18.452 229.103,46.978 195.134,143.738c-8.625,24.566 -31.18,42.347 -45.659,63.432c-16.469,23.983 -17.385,63.377 -38.539,82.606c-73.038,66.39 -176.291,-110.68 -222.945,-142.847c-63.4,-43.713 -250.304,-68.618 -212.137,-159.097Z" style="fill:#fff;"/><path d="M1110.19,2529.59c-18.882,44.763 4.12,77.792 46.725,103.28c51.38,30.739 133.483,49.936 171.308,76.016c10.416,7.182 23.676,22.314 39.041,40.03c25.402,29.288 55.648,65.356 86.401,89.805c40.641,32.31 82.549,44.007 118.174,11.624c10.383,-9.438 17.184,-22.6 22.431,-37.161c5.93,-16.457 9.502,-35.04 18.637,-48.344c15.283,-22.255 38.542,-41.415 47.645,-67.345c16.535,-47.099 -5.079,-81.483 -43.299,-106.541c-48.417,-31.744 -125.623,-47.272 -162.666,-58.65c-32.138,-9.872 -64.375,-21.362 -94.03,-37.346c-18.471,-9.957 -34.036,-24.156 -49.812,-37.945c-17.904,-15.649 -36.058,-30.812 -57.554,-40.822c-38.921,-18.126 -74.469,1.817 -96.391,34.637c-5.461,8.175 -29.634,38.518 -46.61,78.762Zm30.713,12.956c15.806,-37.47 38.531,-65.592 43.615,-73.203c12.676,-18.977 32.097,-33.415 54.601,-22.935c18.64,8.68 34.164,22.133 49.689,35.703c17.652,15.428 35.266,31.049 55.933,42.189c31.57,17.017 65.844,29.358 100.058,39.868c35.044,10.764 108.374,24.632 154.178,54.662c24.602,16.131 40.768,37.305 30.124,67.624c-3.65,10.397 -10.453,19.229 -17.67,27.822c-8.876,10.567 -18.466,20.721 -26.002,31.695c-9.083,13.226 -14.192,30.572 -19.632,47.392c-3.991,12.342 -7.818,24.535 -16.379,32.316c-22.842,20.764 -48.951,7.666 -75.01,-13.051c-29.237,-23.244 -57.812,-57.708 -81.962,-85.552c-17.669,-20.373 -33.323,-37.374 -45.302,-45.632c-38.254,-26.376 -121.154,-46.092 -173.116,-77.179c-26.326,-15.75 -44.793,-34.059 -33.125,-61.719Z" style="fill:#7e4021;"/><path d="M1632.83,2697.89c24.421,-17.453 68.22,-16.224 86.29,-7.789c47.988,22.397 71.615,113.135 130.347,152.063c79.365,52.603 173.962,77.91 252.707,132.387c31.036,21.471 68.576,57.107 52.276,98.893c-16.567,42.47 -69.934,57.019 -99.74,87.939c-20.834,21.612 -30.027,56.204 -54.066,74.082c-46.645,34.69 -101.671,-29.359 -124.071,-63.721c-35.036,-53.745 -56.625,-114.026 -105.599,-157.749c-47.608,-42.502 -94.429,-74.752 -152.832,-94.333c-50.516,-16.936 -76.715,-46.317 -70.768,-86.724c5.927,-40.268 46.759,-107.392 85.456,-135.048Z" style="fill:#fff;"/><path d="M1623.14,2684.33c-41.855,29.912 -85.843,102.626 -92.254,146.181c-7.075,48.069 21.862,84.804 81.959,104.952c56.222,18.85 101.2,50.049 147.03,90.964c47.85,42.718 68.506,101.907 102.737,154.418c14.672,22.507 42.47,56.374 73.116,71.933c24.433,12.403 50.506,14.174 74.863,-3.941c13.785,-10.252 23.624,-25.049 32.693,-40.629c7.227,-12.416 13.905,-25.382 23.426,-35.259c14.121,-14.649 33.972,-25.216 52.106,-37.355c22.032,-14.748 41.626,-31.648 51.162,-56.094c10.325,-26.469 4.17,-51.072 -10.053,-72.376c-12.383,-18.547 -31.152,-34.439 -48.268,-46.281c-78.836,-54.539 -173.525,-79.908 -252.981,-132.572c-33.416,-22.148 -54.3,-62.422 -75.928,-95.334c-17.121,-26.052 -34.965,-47.853 -56.578,-57.94c-10.797,-5.039 -29.22,-8.336 -48.652,-7.356c-19.466,0.982 -39.76,6.242 -54.378,16.689l-0,-0Zm19.382,27.119c9.804,-7.007 23.618,-9.858 36.675,-10.517c13.092,-0.66 25.601,0.875 32.875,4.27c21.599,10.081 36.793,36.336 54.118,63.656c20.489,32.309 42.809,66.477 74.07,87.197c79.273,52.543 173.779,77.787 252.432,132.201c13.921,9.631 29.439,22.292 39.511,37.377c8.231,12.33 12.696,26.434 6.721,41.754c-7.032,18.027 -22.402,29.631 -38.65,40.507c-20.142,13.483 -41.878,25.65 -57.562,41.921c-11.313,11.735 -19.649,26.871 -28.236,41.624c-6.747,11.589 -13.522,23.025 -23.777,30.651c-16.948,12.605 -35.233,5.446 -51.502,-6.16c-20.619,-14.71 -38.345,-37.464 -48.661,-53.289c-35.841,-54.979 -58.362,-116.353 -108.462,-161.079c-49.385,-44.09 -98.049,-77.391 -158.633,-97.703c-40.969,-13.735 -64.4,-35.725 -59.577,-68.495c5.444,-36.982 43.119,-98.516 78.657,-123.915l0.001,0Z" style="fill:#7e4021;"/><path d="M1945.63,3062.08c50.507,-41.848 196.122,-11.885 223.693,30.345c54.543,83.546 -9.45,179.688 -6.432,267.031c3.46,100.13 -0.112,260.059 23.81,369.398c25.882,118.291 81.646,146.363 72.084,261.597c-13.992,168.617 -329.804,192.289 -358.669,5.024c-13.788,-89.447 49.571,-147.916 82.294,-269.767c28.078,-104.55 6.671,-255.041 -5.607,-333.72c-21.567,-138.196 -146.914,-234.011 -31.173,-329.908Z" style="fill:#fff;"/><path d="M1935,3049.25c-26.055,21.588 -40.971,43.384 -48.422,65.347c-11.133,32.814 -5.652,66.534 7.509,102.33c19.233,52.313 55.652,109.708 66.252,177.635c12.026,77.055 33.477,224.434 5.979,326.827c-16.095,59.931 -39.817,104.238 -57.727,144.598c-19.57,44.104 -32.354,83.956 -24.943,132.031c15.845,102.799 109.528,148.994 202.092,145.056c92.696,-3.944 181.966,-58.547 189.658,-151.241c5.08,-61.215 -7.133,-99.29 -24.112,-137.76c-15.603,-35.353 -35.664,-71.029 -48.299,-128.777c-23.729,-108.452 -20.003,-267.094 -23.435,-366.412c-1.468,-42.475 13.681,-87.037 22.243,-131.19c9.629,-49.657 11.318,-98.683 -18.513,-144.376c-6.749,-10.339 -18.961,-20.467 -35.184,-29.021c-21.249,-11.205 -49.722,-20.184 -79.33,-25.018c-51.365,-8.388 -105.668,-3.31 -133.768,19.971l0,0Zm21.267,25.668c8.185,-6.781 19.581,-10.927 32.549,-13.439c22.26,-4.313 48.898,-3.497 74.58,0.697c25.788,4.211 50.646,11.846 69.154,21.606c10.285,5.423 18.541,11.203 22.821,17.758c24.713,37.855 21.677,78.669 13.7,119.808c-9.044,46.64 -24.383,93.82 -22.833,138.688c3.488,100.942 0.069,262.157 24.186,372.384c13.246,60.544 34.008,98.048 50.367,135.113c14.983,33.947 25.871,67.525 21.388,121.543c-6.301,75.932 -81.923,117.464 -157.856,120.695c-76.06,3.236 -154.711,-32.361 -167.731,-116.831c-6.377,-41.373 5.625,-75.477 22.468,-113.433c18.503,-41.699 42.822,-87.553 59.451,-149.472c28.656,-106.708 7.295,-260.311 -5.237,-340.613c-10.966,-70.27 -48.005,-129.88 -67.901,-183.998c-10.319,-28.064 -15.957,-54.391 -7.229,-80.117c5.789,-17.063 17.881,-33.618 38.123,-50.389l0,-0Z" style="fill:#7e4021;"/><path d="M668.412,3138.61c-7.017,-41.585 -2.915,-78.835 -2.701,-88.324c0.702,-31.127 14.682,-60.392 48.263,-64.8c43.898,-5.763 87.548,12.156 131.895,8.959c34.686,-2.501 69.143,-10.29 102.607,-19.491c60.593,-16.661 218.537,-83.284 241.79,16.595c5.903,25.357 -3.59,52.464 -4.495,78.025c-1.03,29.076 19.335,62.81 11.801,90.387c-26.011,95.213 -208.151,1.192 -264.78,-0.919c-76.956,-2.87 -248.04,76.399 -264.38,-20.432Z" style="fill:#fff;"/><path d="M651.978,3141.38c8.084,47.905 45.216,63.435 94.845,62.084c59.85,-1.63 139.435,-29.483 185.348,-27.77c12.643,0.471 31.951,6.126 54.423,12.831c37.15,11.086 82.026,25.293 121.096,29.424c51.631,5.459 93.272,-7.156 105.96,-53.598c3.697,-13.535 2.375,-28.292 -1.011,-43.394c-3.826,-17.07 -10.783,-34.668 -10.212,-50.796c0.956,-26.98 10.303,-55.629 4.071,-82.395c-11.318,-48.617 -48.007,-66.034 -93.704,-66.673c-57.89,-0.808 -131.372,27.514 -168.737,37.788c-32.417,8.913 -65.785,16.514 -99.387,18.937c-20.929,1.509 -41.682,-2.121 -62.394,-5.293c-23.505,-3.598 -46.96,-6.654 -70.471,-3.567c-42.57,5.588 -61.867,41.49 -62.756,80.949c-0.222,9.828 -4.339,48.404 2.929,91.473Zm32.868,-5.546c-6.767,-40.101 -2.679,-76.025 -2.472,-85.176c0.514,-22.815 9.156,-45.419 33.77,-48.65c20.387,-2.677 40.705,0.346 61.087,3.467c23.174,3.548 46.419,7.278 69.836,5.59c35.772,-2.579 71.317,-10.555 105.828,-20.044c35.347,-9.719 104.669,-37.363 159.434,-36.598c29.416,0.411 54.418,9.606 61.704,40.902c2.499,10.732 1.498,21.835 0.018,32.959c-1.821,13.68 -4.465,27.394 -4.936,40.697c-0.568,16.035 4.427,33.414 8.862,50.527c3.254,12.556 6.566,24.899 3.518,36.058c-8.135,29.778 -37.195,32.735 -70.301,29.235c-37.144,-3.928 -79.749,-17.678 -115.069,-28.217c-25.841,-7.711 -48.173,-13.658 -62.712,-14.201c-46.434,-1.731 -126.968,26.112 -187.497,27.76c-30.667,0.835 -56.074,-4.707 -61.07,-34.309Z" style="fill:#7e4021;"/><path d="M1192.37,2987.33c15.996,-25.4 56.999,-40.844 76.918,-39.878c52.896,2.563 109.115,77.602 178.213,91.397c93.372,18.642 190.51,6.252 284.017,26.863c36.855,8.123 85.091,26.895 85.824,71.742c0.745,45.58 -43.142,79.25 -59.024,119.152c-11.101,27.892 -6.514,63.389 -21.995,89.036c-30.04,49.768 -105.218,11.317 -138.959,-12.006c-52.776,-36.481 -95.579,-84.102 -157.461,-106.029c-60.154,-21.315 -115.7,-33.44 -177.169,-29.452c-53.167,3.449 -88.539,-13.827 -98.332,-53.477c-9.759,-39.515 2.621,-117.102 27.968,-157.348Z" style="fill:#fff;"/><path d="M1178.27,2978.45c-27.415,43.531 -40.601,127.486 -30.046,170.226c11.65,47.17 52.341,70.216 115.592,66.113c59.173,-3.839 112.615,8.01 170.524,28.53c60.46,21.423 101.987,68.386 153.55,104.029c22.1,15.277 60.65,36.1 94.906,38.898c27.31,2.231 52.112,-6.001 67.799,-31.989c8.878,-14.707 12.382,-32.128 14.878,-49.982c1.988,-14.228 3.26,-28.757 8.334,-41.504c7.524,-18.904 21.896,-36.199 34.086,-54.3c14.808,-21.991 26.546,-45.052 26.117,-71.288c-0.464,-28.408 -15.475,-48.849 -36.705,-63.183c-18.483,-12.479 -41.872,-20.082 -62.197,-24.562c-93.615,-20.635 -190.861,-8.267 -284.341,-26.931c-39.313,-7.849 -73.89,-37.218 -106.368,-59.492c-25.709,-17.632 -50.478,-31.054 -74.301,-32.209c-11.901,-0.576 -30.201,3.347 -47.816,11.611c-17.645,8.278 -34.438,20.83 -44.012,36.033Zm28.206,17.763c6.422,-10.197 18.128,-18.066 29.964,-23.619c11.867,-5.567 24.026,-8.882 32.045,-8.493c23.807,1.153 47.81,19.702 74.189,38.429c31.194,22.148 64.789,45.323 101.567,52.666c93.265,18.62 190.293,6.207 283.692,26.794c16.531,3.643 35.687,9.487 50.72,19.636c12.287,8.296 21.759,19.66 22.028,36.102c0.316,19.347 -9.516,35.907 -20.437,52.124c-13.539,20.105 -29.05,39.595 -37.408,60.593c-6.028,15.145 -8.013,32.31 -10.376,49.216c-1.856,13.28 -3.799,26.43 -10.402,37.371c-10.915,18.082 -30.55,18.379 -50.001,13.796c-24.654,-5.809 -49.675,-20.159 -65.213,-30.9c-53.988,-37.319 -98.068,-85.598 -161.371,-108.029c-62.401,-22.111 -120.051,-34.51 -183.815,-30.374c-43.119,2.797 -73.131,-8.685 -81.073,-40.842c-8.962,-36.29 2.613,-107.507 25.891,-144.47Z" style="fill:#7e4021;"/><path d="M1619.77,3205.99c30.905,-57.854 177.025,-85.249 218.531,-56.6c82.113,56.678 59.281,169.891 95.141,249.59c41.109,91.367 98.35,240.744 161.886,332.888c68.738,99.689 130.979,104.56 165.754,214.836c50.885,161.364 -232.459,302.835 -330.071,140.436c-46.624,-77.569 -10.117,-155.673 -25.96,-280.842c-13.593,-107.398 -90.38,-238.584 -131.531,-306.758c-72.28,-119.745 -224.571,-160.974 -153.75,-293.55Z" style="fill:#fff;"/><path d="M1605.07,3198.14c-15.943,29.845 -21.497,55.666 -20.079,78.815c2.119,34.586 19.958,63.721 45.691,91.87c37.606,41.138 93.043,80.473 128.571,139.331c40.302,66.768 115.951,195.055 129.265,300.237c7.792,61.564 2.609,111.554 1.312,155.689c-1.417,48.231 1.839,89.956 26.898,131.647c53.584,89.149 157.782,96.439 241.966,57.751c84.303,-38.743 146.257,-123.078 118.284,-211.785c-18.474,-58.582 -44.192,-89.199 -74.471,-118.378c-27.826,-26.814 -59.901,-52.24 -93.457,-100.907c-63.021,-91.396 -119.632,-239.64 -160.408,-330.266c-17.439,-38.758 -20.288,-85.738 -29.08,-129.847c-9.886,-49.606 -26.883,-95.622 -71.792,-126.621c-10.162,-7.013 -25.299,-11.764 -43.552,-13.54c-23.91,-2.327 -53.663,0.143 -82.898,6.877c-50.717,11.682 -99.056,36.94 -116.25,69.127l0,0Zm29.402,15.706c5.008,-9.375 13.987,-17.527 25.038,-24.762c18.97,-12.419 43.935,-21.748 69.293,-27.589c25.463,-5.865 51.361,-8.209 72.186,-6.183c11.573,1.126 21.403,3.35 27.845,7.797c37.206,25.681 49.847,64.607 58.038,105.704c9.286,46.592 12.951,96.068 31.372,137.008c41.443,92.109 99.312,242.619 163.364,335.511c35.181,51.022 68.596,77.875 97.769,105.988c26.719,25.748 49.509,52.705 65.811,104.4c22.914,72.665 -31.356,139.735 -100.414,171.472c-69.174,31.79 -155.446,28.619 -199.477,-44.635c-21.565,-35.879 -23.368,-71.988 -22.148,-113.495c1.34,-45.601 6.489,-97.248 -1.562,-160.854c-13.874,-109.614 -91.797,-243.697 -133.797,-313.278c-36.753,-60.887 -93.602,-102.039 -132.506,-144.596c-20.175,-22.069 -35.361,-44.302 -37.022,-71.417c-1.101,-17.984 3.824,-37.885 16.21,-61.071l-0,-0Z" style="fill:#7e4021;"/><path d="M349.146,3147.1c-27.299,-29.599 16.373,-52.175 58.315,-58.553c28.679,-4.361 54.907,-8.698 80.688,-21.623c62.861,-31.514 111.685,-84.032 162.197,-7.339c15.346,23.301 30.701,55.207 28.974,83.784c-6.725,111.285 -296.863,39.848 -330.174,3.731Z" style="fill:#fff;"/><path d="M336.894,3158.39c7.993,8.667 28.516,19.909 56.676,29.828c59.731,21.039 155.265,39.121 220.492,28.292c47.394,-7.868 79.407,-30.988 81.894,-72.144c1.932,-31.964 -14.526,-67.895 -31.691,-93.957c-18.239,-27.693 -36.935,-40.617 -55.319,-45.198c-18.763,-4.674 -37.962,-0.737 -57.915,8.212c-21.855,9.8 -44.98,25.873 -70.351,38.592c-24.176,12.12 -48.832,15.956 -75.724,20.046c-24.028,3.654 -48.387,12.383 -62.993,24.002c-10.158,8.08 -16.169,17.769 -17.62,27.933c-1.492,10.454 1.366,22.266 12.551,34.394Zm24.503,-22.599c-2.493,-2.704 -4.388,-4.753 -4.055,-7.084c0.372,-2.608 2.764,-4.483 5.372,-6.557c10.891,-8.664 29.337,-14.41 47.253,-17.135c30.465,-4.632 58.264,-9.471 85.651,-23.201c24.918,-12.492 47.589,-28.351 69.052,-37.976c12.539,-5.623 24.427,-9.22 36.217,-6.282c12.168,3.032 23.467,12.857 35.54,31.187c13.529,20.542 27.779,48.419 26.257,73.612c-0.95,15.708 -10.354,25.925 -24.255,32.547c-17.817,8.489 -42.042,11.582 -68.641,11.581c-59.701,-0.002 -130.878,-16.316 -174.842,-33.277c-16.256,-6.271 -28.547,-11.992 -33.549,-17.415Z" style="fill:#7e4021;"/><path d="M559.516,3572.74c-14.724,-39.519 -17.71,-76.876 -19.287,-86.235c-5.173,-30.702 3.046,-62.076 35.196,-72.73c42.026,-13.927 88.27,-4.55 131.221,-16.042c33.595,-8.988 65.968,-23.126 97.1,-38.466c56.371,-27.774 198.942,-122.951 240.589,-29.239c10.573,23.792 6.355,52.202 10.28,77.476c4.465,28.749 30.818,58.044 28.613,86.547c-7.614,98.408 -204.202,40.373 -260.216,48.964c-76.118,11.674 -229.212,121.745 -263.496,29.725Z" style="fill:#fff;"/><path d="M543.898,3578.56c16.961,45.525 56.354,53.783 104.84,43.11c58.473,-12.872 131.387,-55.215 176.801,-62.18c12.506,-1.918 32.533,-0.001 55.866,2.352c38.573,3.891 85.322,9.392 124.47,6.091c51.736,-4.363 90.256,-24.594 93.97,-72.595c1.082,-13.989 -2.996,-28.232 -9.165,-42.427c-6.972,-16.043 -17.119,-32.016 -19.596,-47.963c-4.142,-26.678 -0.358,-56.574 -11.519,-81.687c-20.272,-45.616 -59.584,-55.812 -104.584,-47.833c-57.007,10.108 -123.84,51.763 -158.601,68.89c-30.159,14.859 -61.498,28.609 -94.042,37.316c-20.271,5.424 -41.336,5.767 -62.275,6.553c-23.762,0.892 -47.373,2.309 -69.881,9.768c-40.756,13.506 -52.946,52.4 -46.388,91.32c1.633,9.694 4.855,48.355 20.104,89.285l-0,-0Zm31.236,-11.638c-14.198,-38.108 -16.949,-74.16 -18.47,-83.185c-3.792,-22.504 0.439,-46.332 24.003,-54.14c19.518,-6.468 40.042,-7.326 60.647,-8.1c23.427,-0.88 46.96,-1.594 69.64,-7.662c34.646,-9.27 68.052,-23.797 100.158,-39.616c32.885,-16.203 95.76,-56.407 149.689,-65.97c28.967,-5.136 55.254,-0.815 68.303,28.549c4.475,10.069 5.583,21.163 6.225,32.366c0.788,13.778 0.774,27.744 2.817,40.899c2.462,15.854 10.641,31.982 18.219,47.953c5.561,11.719 11.138,23.217 10.246,34.751c-2.381,30.777 -30.365,39.153 -63.537,41.951c-37.219,3.138 -81.651,-2.342 -118.324,-6.041c-26.831,-2.706 -49.883,-4.341 -64.264,-2.135c-45.929,7.044 -119.779,49.556 -178.914,62.574c-29.961,6.595 -55.958,5.937 -66.438,-22.194l-0,0Z" style="fill:#7e4021;"/><path d="M1068.67,3306.19c15.452,-25.734 56.118,-42.047 76.053,-41.506c52.938,1.436 110.742,75.261 180.118,87.582c93.748,16.65 190.599,2.195 284.524,20.81c37.02,7.337 85.645,25.077 87.333,69.898c1.715,45.554 -41.445,80.151 -56.474,120.382c-10.505,28.122 -5.163,63.514 -20.094,89.485c-28.974,50.395 -104.954,13.554 -139.184,-9.046c-53.54,-35.348 -97.348,-82.047 -159.682,-102.652c-60.595,-20.03 -116.386,-30.969 -177.756,-25.673c-53.082,4.58 -88.814,-11.939 -99.449,-51.372c-10.598,-39.298 0.128,-117.13 24.611,-157.908Z" style="fill:#fff;"/><path d="M1054.38,3297.61c-26.482,44.105 -37.878,128.322 -26.415,170.827c12.652,46.911 53.824,69.085 116.974,63.637c59.078,-5.098 112.76,5.611 171.092,24.893c60.903,20.131 103.42,66.199 155.73,100.736c22.421,14.803 61.405,34.801 95.713,36.869c27.351,1.648 51.973,-7.109 67.103,-33.425c8.562,-14.894 11.695,-32.385 13.81,-50.288c1.685,-14.267 2.647,-28.82 7.448,-41.672c7.12,-19.06 21.121,-36.657 32.922,-55.014c14.338,-22.301 25.581,-45.606 24.594,-71.827c-1.069,-28.392 -16.512,-48.509 -38.042,-62.387c-18.744,-12.083 -42.29,-19.187 -62.705,-23.233c-94.034,-18.637 -190.994,-4.202 -284.85,-20.87c-39.472,-7.011 -74.666,-35.637 -107.611,-57.215c-26.079,-17.08 -51.128,-29.972 -74.97,-30.619c-11.911,-0.323 -30.123,3.989 -47.558,12.626c-17.465,8.652 -33.987,21.558 -43.235,36.962Zm28.577,17.159c6.204,-10.332 17.74,-18.448 29.455,-24.252c11.746,-5.819 23.832,-9.392 31.857,-9.174c23.826,0.647 48.219,18.68 74.99,36.842c31.659,21.478 65.739,43.932 102.666,50.49c93.64,16.631 190.382,2.155 284.198,20.748c16.605,3.291 35.881,8.726 51.126,18.553c12.461,8.032 22.173,19.192 22.792,35.624c0.728,19.336 -8.75,36.101 -19.323,52.547c-13.107,20.389 -28.2,40.205 -36.109,61.376c-5.704,15.27 -7.323,32.473 -9.326,49.425c-1.573,13.318 -3.235,26.506 -9.604,37.584c-10.528,18.311 -30.151,19.026 -49.696,14.858c-24.772,-5.283 -50.092,-19.097 -65.856,-29.504c-54.77,-36.161 -99.868,-83.491 -163.634,-104.569c-62.858,-20.777 -120.758,-31.946 -184.42,-26.453c-43.05,3.714 -73.299,-7.126 -81.924,-39.107c-9.734,-36.091 0.323,-107.539 22.808,-144.988Z" style="fill:#7e4021;"/><path d="M1484.63,3559.34c19.457,-62.64 157.802,-117.064 203.961,-96.744c91.318,40.2 90.216,155.686 140.444,227.206c57.582,81.99 141.93,217.913 221.683,296.443c86.282,84.959 148.327,78.021 203.248,179.775c80.365,148.892 -171.265,341.195 -297.715,200.085c-60.399,-67.4 -39.254,-150.981 -78.387,-270.928c-33.577,-102.915 -133.696,-217.292 -186.95,-276.496c-93.539,-103.99 -250.869,-115.799 -206.284,-259.341Z" style="fill:#fff;"/><path d="M1468.71,3554.39c-10.037,32.314 -10.629,58.718 -4.877,81.186c8.595,33.568 31.601,58.822 62.175,81.621c44.682,33.32 106.534,61.511 152.511,112.624c52.156,57.983 150.612,169.727 183.496,270.52c19.247,58.994 23.572,109.065 30.61,152.656c7.692,47.634 18.748,88 51.21,124.225c69.415,77.462 173.122,64.998 248.512,11.147c75.499,-53.927 120.461,-148.421 76.282,-230.272c-29.176,-54.054 -60.2,-79.28 -95.433,-102.233c-32.378,-21.094 -68.667,-40.025 -110.788,-81.501c-79.106,-77.892 -162.624,-212.822 -219.738,-294.146c-24.426,-34.781 -36.072,-80.383 -53.013,-122.047c-19.052,-46.856 -44.411,-88.848 -94.355,-110.834c-11.3,-4.975 -27.061,-6.789 -45.323,-5.096c-23.92,2.218 -52.675,10.247 -80.119,22.366c-47.609,21.025 -90.326,54.935 -101.15,89.784l-0,0Zm31.833,9.888c3.153,-10.151 10.436,-19.847 19.927,-29.034c16.292,-15.77 39.052,-29.633 62.856,-40.146c23.903,-10.555 48.897,-17.735 69.731,-19.667c11.578,-1.074 21.65,-0.741 28.815,2.413c41.376,18.215 61.122,54.063 76.907,92.882c17.894,44.009 30.811,91.91 56.613,128.648c58.049,82.656 143.228,219.574 223.628,298.741c44.161,43.483 82.035,63.562 115.981,85.678c31.09,20.255 58.549,42.437 84.295,90.137c36.189,67.049 -4.478,143.14 -66.323,187.315c-61.949,44.249 -147.275,57.383 -204.314,-6.268c-27.937,-31.176 -36.507,-66.3 -43.127,-107.294c-7.272,-45.037 -11.942,-96.729 -31.827,-157.681c-34.27,-105.039 -136.051,-222.048 -190.404,-282.473c-47.562,-52.876 -111.144,-82.585 -157.366,-117.053c-23.97,-17.875 -43.072,-36.85 -49.81,-63.167c-4.469,-17.455 -3.38,-37.928 4.418,-63.031l-0,-0Z" style="fill:#7e4021;"/><path d="M838.519,2409.05c-11.241,-38.665 37.916,-39.404 78.303,-26.416c27.616,8.881 53.026,16.69 81.866,16.614c70.317,-0.186 137.434,-25.431 148.46,65.737c3.35,27.699 2.871,63.104 -11.414,87.915c-55.63,96.616 -283.497,-96.67 -297.215,-143.85Z" style="fill:#fff;"/><path d="M822.515,2413.7c3.292,11.321 16.651,30.534 37.436,51.966c44.088,45.46 121.544,104.234 184.758,123.618c45.932,14.085 84.895,7.66 105.468,-28.071c15.978,-27.751 17.264,-67.251 13.517,-98.232c-3.981,-32.92 -14.955,-52.823 -29.37,-65.119c-14.71,-12.548 -33.652,-17.582 -55.502,-18.468c-23.932,-0.969 -51.797,3.109 -80.178,3.184c-27.044,0.072 -50.824,-7.486 -76.72,-15.813c-23.137,-7.441 -48.833,-10.486 -67.087,-6.597c-12.694,2.705 -22.394,8.698 -28.224,17.149c-5.996,8.693 -8.704,20.541 -4.098,36.383Zm32.008,-9.306c-1.026,-3.532 -1.809,-6.211 -0.472,-8.149c1.497,-2.169 4.474,-2.781 7.732,-3.475c13.611,-2.9 32.685,0.179 49.937,5.727c29.335,9.435 56.376,17.496 87.012,17.415c27.873,-0.074 55.237,-4.164 78.741,-3.212c13.73,0.557 25.975,2.637 35.219,10.522c9.541,8.139 15.274,21.971 17.91,43.761c2.953,24.419 3.282,55.725 -9.312,77.597c-7.852,13.638 -20.825,18.591 -36.221,18.322c-19.733,-0.344 -42.797,-8.374 -66.606,-20.233c-53.439,-26.616 -109.88,-72.949 -141.673,-107.731c-11.755,-12.86 -20.207,-23.46 -22.267,-30.544Z" style="fill:#7e4021;"/><path d="M739.345,4179.3c-15.106,-34.232 -20.869,-67.569 -22.958,-75.847c-6.855,-27.155 -3.339,-56.113 20.724,-68.573c31.456,-16.288 68.342,-11.99 100.742,-26.171c25.343,-11.091 49.26,-26.706 72.1,-43.29c41.355,-30.027 143.657,-128.4 184.721,-47.827c10.425,20.456 9.754,46.39 15.136,68.774c6.123,25.462 29.347,49.456 30.252,75.293c3.123,89.205 -155.353,54.587 -198.196,67.327c-58.22,17.312 -167.349,130.024 -202.521,50.314Z" style="fill:#fff;"/><path d="M724.096,4186.02c7.638,17.309 18.273,27.546 30.356,33.084c16.936,7.763 37.879,6.059 60.513,-2.518c23.228,-8.801 48.77,-24.728 72.988,-39.924c21.788,-13.672 42.301,-26.844 58.664,-31.71c9.231,-2.745 24.467,-2.693 42.218,-2.664c30.757,0.049 68.103,0.772 98.643,-5.775c41.322,-8.858 70.818,-30.383 69.24,-75.446c-0.537,-15.361 -7.203,-30.349 -15.151,-45.107c-5.991,-11.122 -12.808,-22.091 -15.552,-33.5c-5.679,-23.617 -5.492,-50.862 -16.492,-72.445c-8.473,-16.626 -19.257,-27.076 -31.129,-33.193c-17.58,-9.057 -38.199,-8.736 -59.743,-1.703c-43.907,14.334 -92.737,58.105 -118.491,76.805c-21.867,15.877 -44.726,30.889 -68.989,41.508c-14.887,6.515 -30.85,8.591 -46.659,11.103c-18.962,3.014 -37.728,6.558 -55.064,15.535c-30.973,16.038 -38.044,52.501 -29.221,87.453c2.163,8.571 8.23,43.055 23.869,78.497l0,-0Zm30.497,-13.457c-14.572,-33.023 -20.031,-65.212 -22.047,-73.198c-4.896,-19.4 -4.962,-40.793 12.229,-49.694c14.12,-7.312 29.525,-9.761 44.969,-12.216c18.599,-2.956 37.278,-5.821 54.792,-13.486c26.422,-11.565 51.396,-27.782 75.209,-45.072c23.873,-17.334 68.551,-58.804 109.25,-72.09c12.304,-4.017 24.092,-5.526 34.132,-0.353c6.54,3.369 12.03,9.538 16.698,18.697c9.851,19.331 8.694,43.95 13.781,65.103c3.379,14.053 11.234,27.812 18.613,41.512c5.422,10.066 10.82,19.99 11.186,30.468c0.922,26.327 -18.771,36.511 -42.914,41.686c-28.355,6.079 -63.047,5.08 -91.603,5.035c-21.791,-0.035 -40.439,0.676 -51.772,4.046c-15.084,4.486 -33.434,14.706 -52.986,26.76c-26.273,16.198 -55.087,35.845 -80.976,45.655c-13.072,4.953 -25.033,7.869 -34.814,3.386c-5.725,-2.625 -10.128,-8.037 -13.747,-16.239l-0,-0Z" style="fill:#7e4021;"/><path d="M1071.13,3945.1c4.095,-26.83 29.531,-54.595 44.435,-61.09c39.576,-17.249 103.393,24.132 158.235,10.226c74.108,-18.791 141.643,-64.585 216.443,-81.8c29.481,-6.785 70.515,-8.945 84.543,27.819c14.257,37.365 -7.812,81.235 -7.46,119.998c0.246,27.096 14.289,54.728 10.646,81.574c-7.068,52.092 -73.787,47.866 -105.556,40.96c-49.691,-10.802 -95.418,-34.454 -147.412,-29.905c-50.542,4.422 -94.939,14.747 -138.835,40.543c-37.968,22.314 -69.115,20.998 -88.226,-8.158c-19.046,-29.056 -33.301,-97.654 -26.813,-140.167Z" style="fill:#fff;"/><path d="M1054.65,3942.59c-7.03,46.064 8.713,120.336 29.35,151.819c10.169,15.513 23.112,24.823 37.959,28.844c20.253,5.484 45.095,0.74 72.65,-15.454c41.669,-24.488 83.866,-34.111 131.844,-38.309c50.281,-4.399 94.364,19.142 142.418,29.588c17.68,3.843 45.09,6.769 69.058,1.659c28.309,-6.037 51.909,-22.424 56.555,-56.664c2.084,-15.366 -0.592,-30.984 -4.124,-46.61c-2.823,-12.483 -6.26,-24.967 -6.372,-37.356c-0.167,-18.396 5.178,-37.975 8.681,-57.416c4.245,-23.554 5.882,-46.89 -2.315,-68.373c-17.437,-45.696 -67.209,-46.553 -103.853,-38.119c-74.918,17.242 -142.577,63.065 -216.802,81.886c-30.475,7.728 -63.85,-3.868 -93.665,-10.218c-25.278,-5.384 -48.487,-7.257 -67.132,0.869c-18.08,7.88 -49.284,41.306 -54.252,73.854Zm32.952,5.029c3.223,-21.113 22.89,-43.214 34.618,-48.325c7.442,-3.244 16.064,-3.348 25.396,-2.418c11.746,1.171 24.424,4.178 37.565,7.232c30.315,7.046 62.762,13.882 92.711,6.288c73.991,-18.761 141.404,-64.525 216.085,-81.713c12.575,-2.894 27.6,-5.07 40.992,-2.334c10.38,2.121 19.603,7.697 24.241,19.853c6.061,15.884 3.792,33.162 0.654,50.577c-3.879,21.526 -9.393,43.263 -9.208,63.63c0.133,14.707 3.841,29.587 7.191,44.405c2.64,11.676 5.164,23.296 3.606,34.777c-2.423,17.859 -15.71,25.397 -30.476,28.545c-19.1,4.073 -40.935,1.432 -55.025,-1.631c-51.329,-11.158 -98.697,-34.92 -152.404,-30.221c-53.107,4.647 -99.705,15.672 -145.827,42.777c-28.243,16.598 -51.627,18.762 -65.843,-2.925c-17.455,-26.629 -30.222,-89.555 -24.276,-128.517Z" style="fill:#7e4021;"/><path d="M1426.02,3927.94c15.274,-54.815 135.703,-114.274 177.047,-101.606c81.793,25.062 84.313,122.733 130.796,178.258c53.289,63.654 131.827,170.264 204.575,228.834c78.703,63.365 133.241,51.458 184.78,132.067c75.414,117.954 -140.805,304.933 -256.65,198.046c-55.333,-51.055 -39.203,-123.725 -77.361,-221.242c-32.74,-83.672 -124.542,-170.541 -173.323,-215.367c-85.682,-78.736 -224.865,-73.381 -189.864,-198.99Z" style="fill:#fff;"/><path d="M1409.97,3923.47c-10.205,36.621 -6.951,63.663 4.087,85.112c10.827,21.039 29.665,36.954 53.191,50.798c40.246,23.684 95.445,41.305 137.364,79.826c47.46,43.611 137.227,127.763 169.079,209.168c18.676,47.729 23.952,89.407 31.444,125.371c8.404,40.341 19.756,74.017 50.136,102.047c64.197,59.233 156.361,39.309 221.872,-14.032c65.883,-53.644 102.15,-139.505 60.121,-205.24c-27.846,-43.555 -56.44,-62.187 -88.766,-78.418c-29.024,-14.573 -61.423,-26.915 -99.603,-57.654c-71.977,-57.95 -149.523,-163.571 -202.247,-226.55c-22.403,-26.762 -33.866,-63.858 -49.93,-97.105c-18.67,-38.643 -42.943,-72.35 -88.763,-86.39c-10.321,-3.162 -24.594,-3.241 -40.972,0.032c-21.076,4.212 -46.256,13.809 -70.146,26.744c-41.574,22.509 -78.329,55.649 -86.867,86.291l-0,-0Zm32.11,8.947c2.43,-8.722 8.495,-17.412 16.445,-25.941c13.881,-14.891 33.522,-28.798 54.183,-39.985c20.731,-11.224 42.518,-19.714 60.807,-23.369c9.869,-1.972 18.455,-2.754 24.674,-0.848c35.976,11.023 53.856,38.679 68.516,69.02c17.265,35.736 30.304,75.237 54.384,104.001c53.853,64.329 133.383,171.926 206.901,231.117c40.524,32.626 74.745,46.012 105.551,61.479c27.503,13.81 51.948,29.529 75.64,66.584c33.396,52.234 -0.733,118.811 -53.084,161.436c-52.714,42.921 -126.567,63.044 -178.222,15.383c-24.955,-23.026 -33.203,-51.209 -40.107,-84.348c-7.815,-37.514 -13.553,-80.93 -33.035,-130.718c-33.627,-85.939 -127.464,-175.526 -177.567,-221.566c-43.763,-40.215 -100.996,-59.284 -143.012,-84.01c-17.607,-10.361 -32.355,-21.578 -40.459,-37.323c-7.893,-15.338 -8.912,-34.724 -1.615,-60.912Z" style="fill:#7e4021;"/><path d="M266.052,3581.52c-28.31,-28.634 14.553,-52.711 56.249,-60.54c28.51,-5.354 54.571,-10.599 79.889,-24.41c61.729,-33.676 108.702,-87.856 161.844,-12.962c16.146,22.754 32.598,54.108 31.864,82.728c-2.86,111.451 -295.302,50.124 -329.846,15.184Z" style="fill:#fff;"/><path d="M254.2,3593.24c8.289,8.384 29.189,18.908 57.676,27.844c60.425,18.954 156.529,33.71 221.341,20.624c47.093,-9.507 78.284,-33.725 79.342,-74.942c0.821,-32.011 -16.873,-67.35 -34.933,-92.801c-19.188,-27.043 -38.321,-39.311 -56.854,-43.251c-18.913,-4.021 -37.963,0.581 -57.595,10.216c-21.501,10.553 -44.055,27.419 -68.969,41.011c-23.741,12.951 -48.249,17.64 -74.983,22.66c-23.887,4.486 -47.928,14.055 -62.122,26.174c-9.871,8.427 -15.542,18.319 -16.64,28.527c-1.129,10.5 2.138,22.206 13.737,33.938Zm23.704,-23.435c-2.586,-2.616 -4.55,-4.598 -4.299,-6.939c0.282,-2.62 2.608,-4.577 5.141,-6.74c10.584,-9.036 28.82,-15.419 46.631,-18.764c30.286,-5.687 57.9,-11.487 84.794,-26.159c24.469,-13.349 46.577,-29.985 67.693,-40.35c12.336,-6.054 24.092,-10.061 35.977,-7.534c12.266,2.608 23.899,12.035 36.6,29.936c14.234,20.06 29.443,47.425 28.796,72.656c-0.404,15.732 -9.448,26.268 -23.111,33.369c-17.512,9.102 -41.615,13.034 -68.198,13.956c-59.665,2.069 -131.365,-11.766 -175.892,-27.191c-16.463,-5.704 -28.945,-10.994 -34.132,-16.24l-0,-0Z" style="fill:#7e4021;"/><path d="M431.463,4186.4c-24.307,-27.12 15.479,-46.974 53.492,-52.202c25.993,-3.575 49.768,-7.16 73.25,-18.517c57.254,-27.691 102.085,-74.557 146.779,-4.549c13.579,21.27 27.054,50.322 25.125,76.144c-7.514,100.555 -268.985,32.216 -298.646,-0.876Z" style="fill:#fff;"/><path d="M419.052,4197.53c7.211,8.045 25.834,18.68 51.507,28.136c53.96,19.874 140.469,37.494 199.83,28.505c43.821,-6.636 73.506,-27.716 76.34,-65.647c2.183,-29.205 -12.339,-62.297 -27.697,-86.355c-16.427,-25.73 -33.519,-37.811 -50.382,-42.269c-17.24,-4.557 -35.002,-1.232 -53.52,6.758c-19.909,8.59 -41.051,22.838 -64.182,34.025c-21.865,10.575 -44.061,13.681 -68.264,17.01c-22.069,3.035 -44.495,10.755 -58.034,21.213c-9.655,7.459 -15.393,16.513 -16.893,26.047c-1.545,9.824 0.925,21.007 11.295,32.577Zm24.822,-22.248c-1.821,-2.032 -3.46,-3.423 -3.189,-5.148c0.315,-1.999 2.319,-3.285 4.343,-4.849c9.782,-7.556 26.253,-12.377 42.198,-14.57c27.783,-3.821 53.136,-7.885 78.235,-20.024c22.674,-10.966 43.359,-25.007 62.875,-33.427c11.056,-4.77 21.502,-7.858 31.796,-5.137c10.67,2.82 20.409,11.697 30.804,27.979c11.801,18.486 24.229,43.493 22.553,65.934c-1.014,13.569 -9.331,22.24 -21.431,27.794c-16.042,7.365 -37.751,9.785 -61.538,9.445c-53.796,-0.768 -117.723,-16.383 -157.121,-32.23c-14.314,-5.758 -25.165,-10.903 -29.525,-15.767Z" style="fill:#7e4021;"/></g></svg>