<?xml version="1.0" encoding="UTF-8" standalone="no"?><!DOCTYPE svg PUBLIC "-//W3C//DTD SVG 1.1//EN" "http://www.w3.org/Graphics/SVG/1.1/DTD/svg11.dtd"><svg width="100%" height="100%" viewBox="0 0 2615 3098" version="1.1" xmlns="http://www.w3.org/2000/svg" xmlns:xlink="http://www.w3.org/1999/xlink" xml:space="preserve" xmlns:serif="http://www.serif.com/" style="fill-rule:evenodd;clip-rule:evenodd;stroke-linejoin:round;stroke-miterlimit:2;"><g id="Coffee-Bag-01" serif:id="Coffee Bag-01"><path d="M487.283,1506.02c-15.568,31.583 -84.909,53.348 -114.92,62.008c-159.052,45.899 -248.434,-94.956 -306.364,-265.222c-51.844,-152.378 -88.052,-325.78 28.769,-451.067c240.296,-257.709 610.609,-411.65 913.69,-582.236c580.391,-326.669 997.899,-448.74 1245.14,335.486c49.756,157.821 46.306,324.774 95.616,482.35c72.261,230.92 289.195,701.895 242.246,941.584c-50.117,255.862 -621.811,634.406 -835.16,748.659c-230.462,123.416 -1336.14,449.413 -1445.32,229.166c-55.524,-112.009 112.448,-423.477 96.503,-595.34c-37.923,-408.737 -44.91,-628.262 79.797,-905.388Z" style="fill:#ebccb8;"/><path d="M447.03,1558.51c-99.733,253.131 -91.672,471.477 -56.14,854.442c9.427,101.601 -47.094,252.569 -81.434,381.046c-14.31,53.539 -24.915,103.327 -26.286,144.506c-0.996,29.915 2.944,55.605 12.881,75.651c14.859,29.976 45.362,51.897 89.103,65.498c59.36,18.457 144.363,22.083 243.847,14.675c379.266,-28.239 972.892,-215.146 1135.17,-302.049c150.271,-80.472 477.179,-291.306 677.121,-498.836c87.822,-91.155 151.022,-182.155 166.527,-261.312c19.17,-97.87 -4.158,-233.588 -44.496,-376.217c-59.318,-209.741 -154.811,-434.89 -198.2,-573.547c-49.313,-157.588 -45.867,-324.552 -95.627,-482.385c-100.902,-320.048 -231.012,-491.178 -387.021,-561.152c-118.072,-52.959 -251.64,-48.611 -400.514,-5.135c-145.643,42.532 -306.303,122.581 -481.677,221.288c-304.502,171.387 -676.281,326.477 -917.705,585.395c-121.198,129.981 -86.144,309.714 -32.357,467.801c29.84,87.706 68.14,167.643 119.103,219.937c53.749,55.152 121.253,80.866 207.66,55.931c16.631,-4.8 44.829,-13.514 70.046,-25.537Zm55.452,-45.646c3.73,-8.29 0.13,-18.04 -8.094,-21.916c-8.223,-3.875 -18.035,-0.446 -22.054,7.708c-4.977,10.096 -17.437,18.209 -31.403,25.626c-25.108,13.334 -55.942,22.761 -73.189,27.738c-72.645,20.964 -129.358,-0.801 -174.546,-47.168c-47.973,-49.226 -83.329,-124.849 -111.418,-207.409c-49.903,-146.673 -87.268,-313.737 25.18,-434.333c239.169,-256.5 608.016,-409.292 909.674,-579.078c172.861,-97.294 331.117,-176.418 474.672,-218.34c140.325,-40.979 266.237,-46.366 377.529,3.552c149.811,67.194 271.978,233.427 368.872,540.761c49.752,157.81 46.299,324.751 95.605,482.316c43.323,138.447 138.709,363.242 197.937,572.665c38.693,136.814 62.248,266.857 43.859,360.738c-14.566,74.361 -75.319,158.96 -157.82,244.592c-197.477,204.971 -520.434,413.098 -668.852,492.578c-160.37,85.881 -747.1,270.285 -1121.91,298.193c-94.421,7.03 -175.136,4.254 -231.475,-13.264c-33.397,-10.385 -57.79,-25.586 -69.135,-48.473c-7.831,-15.797 -10.216,-36.161 -9.431,-59.737c1.3,-39.055 11.602,-86.23 25.174,-137.008c35.365,-132.314 92.13,-288.097 82.422,-392.732c-37.569,-404.928 -45.144,-622.465 78.401,-897.009Z" style="fill:#7e4021;"/><path d="M963.541,2685.6c13.877,-3.962 28.359,4.086 32.322,17.962c3.962,13.876 -4.086,28.359 -17.963,32.322c-13.876,3.962 -28.358,-4.087 -32.321,-17.963c-3.962,-13.876 4.086,-28.358 17.962,-32.321Z" style="fill:#7e4021;"/><path d="M1131.85,2580.87c-7.419,-12.378 -3.393,-28.45 8.985,-35.869c12.378,-7.419 28.45,-3.393 35.869,8.985c7.419,12.378 3.393,28.45 -8.985,35.869c-12.377,7.419 -28.45,3.393 -35.869,-8.985Z" style="fill:#7e4021;"/><path d="M2006.23,680.622c-7.418,-12.378 -3.392,-28.45 8.985,-35.869c12.378,-7.419 28.451,-3.393 35.869,8.985c7.419,12.377 3.393,28.45 -8.985,35.869c-12.377,7.419 -28.45,3.393 -35.869,-8.985Z" style="fill:#7e4021;"/><path d="M1182.3,2802.47c13.876,-3.963 28.359,4.086 32.321,17.962c3.963,13.876 -4.086,28.359 -17.962,32.322c-13.876,3.962 -28.359,-4.087 -32.321,-17.963c-3.963,-13.876 4.086,-28.359 17.962,-32.321Z" style="fill:#7e4021;"/><path d="M2068.89,859.544c13.876,-3.963 28.359,4.086 32.322,17.962c3.962,13.876 -4.087,28.359 -17.963,32.321c-13.876,3.963 -28.359,-4.086 -32.321,-17.962c-3.963,-13.876 4.086,-28.359 17.962,-32.321Z" style="fill:#7e4021;"/><path d="M930.57,2512.5c-13.874,-3.967 -21.918,-18.452 -17.951,-32.327c3.967,-13.875 18.452,-21.919 32.327,-17.952c13.875,3.967 21.919,18.453 17.952,32.327c-3.967,13.875 -18.453,21.919 -32.328,17.952Z" style="fill:#7e4021;"/><path d="M1042.14,2822.11c13.876,-3.962 28.359,4.086 32.322,17.962c3.962,13.876 -4.087,28.359 -17.963,32.322c-13.876,3.962 -28.359,-4.087 -32.321,-17.963c-3.962,-13.876 4.086,-28.358 17.962,-32.321Z" style="fill:#7e4021;"/><path d="M1030.75,2578.81c-13.875,-3.967 -21.919,-18.453 -17.952,-32.328c3.967,-13.874 18.452,-21.918 32.327,-17.951c13.875,3.967 21.919,18.452 17.952,32.327c-3.967,13.875 -18.453,21.919 -32.327,17.952Z" style="fill:#7e4021;"/><path d="M1113.79,2915.8c-7.419,-12.377 -3.393,-28.45 8.985,-35.868c12.377,-7.419 28.45,-3.393 35.869,8.984c7.419,12.378 3.393,28.451 -8.985,35.869c-12.378,7.419 -28.45,3.393 -35.869,-8.985Z" style="fill:#7e4021;"/><path d="M1326.5,2686.2c-0.241,14.429 -12.151,25.948 -26.58,25.707c-14.429,-0.241 -25.948,-12.151 -25.707,-26.58c0.241,-14.429 12.151,-25.947 26.58,-25.707c14.428,0.241 25.947,12.151 25.707,26.58Z" style="fill:#7e4021;"/><path d="M2200.89,785.949c-0.241,14.428 -12.151,25.947 -26.58,25.707c-14.429,-0.241 -25.947,-12.151 -25.707,-26.58c0.241,-14.429 12.151,-25.948 26.58,-25.707c14.429,0.241 25.947,12.151 25.707,26.58Z" style="fill:#7e4021;"/><path d="M2102.94,513.68c-0.24,14.429 -12.15,25.948 -26.579,25.707c-14.429,-0.241 -25.948,-12.151 -25.707,-26.58c0.241,-14.428 12.151,-25.947 26.579,-25.707c14.429,0.241 25.948,12.151 25.707,26.58Z" style="fill:#7e4021;"/><path d="M2183.32,699.947c-10.035,10.37 -26.602,10.641 -36.972,0.605c-10.369,-10.036 -10.64,-26.602 -0.605,-36.972c10.036,-10.37 26.603,-10.641 36.973,-0.605c10.369,10.036 10.64,26.603 0.604,36.972Z" style="fill:#7e4021;"/><path d="M1343.8,2850.77c-10.036,10.37 -26.603,10.641 -36.972,0.605c-10.37,-10.036 -10.641,-26.603 -0.605,-36.972c10.036,-10.37 26.602,-10.641 36.972,-0.605c10.37,10.036 10.641,26.603 0.605,36.972Z" style="fill:#7e4021;"/><path d="M2218.18,950.517c-10.036,10.37 -26.603,10.641 -36.972,0.605c-10.37,-10.036 -10.641,-26.603 -0.605,-36.972c10.036,-10.37 26.603,-10.641 36.972,-0.605c10.37,10.036 10.641,26.602 0.605,36.972Z" style="fill:#7e4021;"/><path d="M1067.62,2672.84c13.876,-3.963 28.358,4.086 32.321,17.962c3.962,13.876 -4.086,28.359 -17.962,32.321c-13.877,3.963 -28.359,-4.086 -32.322,-17.962c-3.962,-13.876 4.086,-28.359 17.963,-32.321Z" style="fill:#7e4021;"/><path d="M854.394,2625.29c-13.875,-3.967 -21.919,-18.452 -17.952,-32.327c3.967,-13.875 18.452,-21.919 32.327,-17.952c13.875,3.967 21.919,18.453 17.952,32.327c-3.967,13.875 -18.452,21.919 -32.327,17.952Z" style="fill:#7e4021;"/><path d="M1016.17,2420.92c-7.419,-12.378 -3.393,-28.45 8.985,-35.869c12.378,-7.419 28.45,-3.393 35.869,8.985c7.419,12.378 3.393,28.45 -8.985,35.869c-12.377,7.419 -28.45,3.393 -35.869,-8.985Z" style="fill:#7e4021;"/><path d="M1500.51,1306.99c-8.492,-16.731 -24.312,-32.71 -37.967,-43.534c-22.009,-17.447 -50.264,-30.298 -78.177,-33.906c-116.12,-15.008 -199.084,123.877 -197.248,224.372c3.812,208.715 242.427,256.403 404.152,292.108c27.004,5.962 90.601,30.756 117.724,19.313c45.477,-19.185 59.638,-116.051 69.441,-156.066c26.33,-107.465 83.36,-273.507 23.978,-387.042c-94.476,-180.63 -329.545,-80.339 -301.903,84.755Z" style="fill:#d9905f;"/><path d="M1482.94,1258.96c-3.385,-3.091 -6.768,-5.962 -10.048,-8.562c-24.313,-19.273 -55.559,-33.388 -86.394,-37.374c-51.655,-6.676 -97.565,13.6 -133.745,48.004c-52.131,49.573 -83.48,128.787 -82.303,193.201c2.032,111.291 66.049,180.067 151.733,225.363c81.657,43.168 183.308,64.572 265.49,82.716c16.289,3.596 45.826,13.987 72.735,19.256c21.654,4.24 41.895,4.692 55.06,-0.862c21.656,-9.136 38.409,-32.206 50.189,-60.684c15.189,-36.722 22.943,-82.202 28.962,-106.772c15.981,-65.229 43.01,-151.819 49.207,-235.44c4.322,-58.328 -1.507,-115.224 -26.649,-163.293c-31.083,-59.428 -76.373,-90.729 -123.268,-101.102c-95.134,-21.043 -198.046,45.042 -210.969,145.549l0,0Zm2.704,55.576c3.726,7.34 12.251,10.861 20.07,8.289c7.819,-2.572 12.589,-10.466 11.23,-18.584c-17.292,-103.272 80.606,-178.005 169.766,-158.283c38.626,8.544 75.328,35.054 100.93,84.004c22.365,42.76 26.789,93.494 22.944,145.38c-6.055,81.699 -32.727,166.243 -48.34,229.972c-5.745,23.448 -12.894,66.918 -27.389,101.963c-8.015,19.375 -17.61,36.497 -32.343,42.713c-8.539,3.603 -21.653,1.612 -35.698,-1.138c-26.625,-5.213 -55.839,-15.535 -71.955,-19.094c-79.543,-17.561 -178.062,-37.853 -257.097,-79.635c-75.009,-39.653 -132.205,-99.077 -133.984,-196.503c-1.027,-56.18 26.478,-125.2 71.945,-168.437c28.886,-27.468 65.261,-44.431 106.502,-39.101c24.992,3.231 50.255,14.817 69.961,30.438c11.972,9.489 26.013,23.348 33.458,38.016Z" style="fill:#7e4021;"/><path d="M552.273,2727.15c-22.07,31.575 -134.086,162.568 -202.655,222.248c-2.128,1.852 -34.386,31.149 -36.41,32.987c-0.598,0.411 -1.172,0.869 -1.721,1.371c-6.79,6.205 -7.265,16.756 -1.06,23.546c0.621,0.68 12.235,10.647 24.079,0.732c5.987,-5.013 34.771,-31.556 36.996,-33.492c70.977,-61.777 187.192,-197.961 208.69,-229.142c3.291,-4.773 4.954,-8.312 5.497,-10.011c1.305,-4.085 0.922,-7.256 0.449,-9.331c-5.74,-25.165 -13.344,-76.482 -15.687,-102.213c-13.041,-143.239 0.414,-216.779 -6.469,-326.918c-9.479,-151.66 -71.926,-284.888 -57.975,-436.19c13.876,-150.488 80.35,-336.997 15.756,-621.031c-2.04,-8.97 -10.978,-14.596 -19.948,-12.556c-8.969,2.04 -14.595,10.978 -12.556,19.948c63.51,279.264 -2.801,462.617 -16.444,610.578c-14.113,153.051 48.31,287.918 57.898,441.33c6.904,110.458 -6.537,184.209 6.542,327.861c2.261,24.833 9.24,72.51 15.018,100.283Zm-232.755,252.556c5.517,-1.078 11.449,0.66 15.515,5.11c-2.754,-3.014 -7.553,-6.805 -15.515,-5.11Zm-0.172,0.034l-0.119,0.029l0.229,-0.051l-0.11,0.022Z" style="fill:#7e4021;"/><path d="M561.587,2746.28c21.109,20.195 50.526,35.758 72.579,54.895c55.989,48.585 228.888,187.383 404.121,198.483c9.18,0.581 17.105,-6.4 17.687,-15.58c0.581,-9.18 -6.4,-17.106 -15.58,-17.687c-166.95,-10.575 -331.038,-144.103 -384.381,-190.392c-21.663,-18.799 -50.648,-33.968 -71.383,-53.805c-6.647,-6.359 -17.206,-6.125 -23.565,0.522c-6.359,6.646 -6.125,17.205 0.522,23.564Z" style="fill:#7e4021;"/><path d="M1082.68,2979.45c-1.089,-0.654 -3.668,-2.23 -6.174,-3.883c-30.333,-20.012 -131.127,-94.159 -209.815,-192.057c-51.236,-63.745 -93.396,-137.564 -98.637,-213.151c-19.446,-280.434 -61.189,-381.345 -93.526,-472.306c-20.868,-58.701 -37.725,-113.114 -41.47,-211.879c-8.85,-233.418 19.051,-435.795 -46.556,-670.456c-46.602,-166.686 -103.127,-283.422 -165.315,-353.829c-43.772,-49.556 -90.699,-76.782 -139.111,-83.686c-79.454,-11.332 -164.765,32.447 -249.111,130.416c-6.001,6.971 -5.214,17.503 1.757,23.505c6.971,6.001 17.503,5.214 23.504,-1.757c74.826,-86.911 148.657,-129.217 219.144,-119.165c41.551,5.926 81.265,30.22 118.834,72.754c59.82,67.725 113.368,180.399 158.196,340.737c64.847,231.946 36.601,432.027 45.349,662.744c3.919,103.377 21.529,160.339 43.371,221.781c31.729,89.252 72.6,188.283 91.68,463.446c5.686,81.998 50.329,162.578 105.91,231.729c81.54,101.446 186.007,178.259 217.439,198.998c7.766,5.124 12.855,7.366 13.949,7.655c8.996,2.376 14.054,-2.156 16.282,-4.419c6.454,-6.554 6.373,-17.115 -0.181,-23.569c-1.633,-1.608 -3.514,-2.81 -5.519,-3.608Zm-17.267,3.04l-0.106,0.1l0.413,-0.36l-0.307,0.26Zm6.098,-3.456c-2.251,0.686 -4.062,1.753 -5.54,2.985c1.677,-1.372 3.562,-2.368 5.54,-2.985Zm0.269,-0.084l-0.065,0.021l0.246,-0.069l-0.181,0.048Z" style="fill:#7e4021;"/><path d="M2452.36,1730.08c5.613,75.435 42.474,148.176 49.985,224.793c0.898,9.154 9.059,15.858 18.214,14.961c9.154,-0.898 15.858,-9.059 14.961,-18.214c-7.487,-76.359 -44.324,-148.833 -49.919,-224.013c-0.682,-9.174 -8.684,-16.067 -17.857,-15.384c-9.173,0.682 -16.067,8.684 -15.384,17.857Z" style="fill:#7e4021;"/><path d="M2488.35,2021.42c-14.013,26.056 -22.346,55.492 -37.517,81.876c-4.585,7.974 -1.833,18.171 6.141,22.756c7.974,4.585 18.171,1.834 22.756,-6.141c15.33,-26.66 23.817,-56.373 37.977,-82.701c4.357,-8.102 1.317,-18.216 -6.784,-22.573c-8.101,-4.357 -18.216,-1.318 -22.573,6.783Z" style="fill:#7e4021;"/><path d="M1428.3,192.313c6.366,-10.995 24.965,-20.436 47.88,-29.918c61.192,-25.32 154.058,-43.662 186.317,-42.289c9.191,0.391 16.97,-6.753 17.361,-15.943c0.391,-9.191 -6.753,-16.969 -15.943,-17.361c-34.685,-1.476 -134.687,17.568 -200.48,44.792c-31.519,13.042 -55.224,28.892 -63.982,44.016c-4.609,7.96 -1.889,18.165 6.072,22.774c7.96,4.61 18.165,1.889 22.775,-6.071Z" style="fill:#7e4021;"/><path d="M1762.36,90.983c-5.446,-6.811 -15.338,-8.298 -22.575,-3.219c-7.529,5.284 -9.352,15.687 -4.068,23.217c4.205,5.991 14.552,12.379 28.724,16.626c21.976,6.586 54.995,10.498 66.302,14.568c8.655,3.116 18.211,-1.381 21.327,-10.036c3.115,-8.655 -1.382,-18.211 -10.037,-21.326c-10.124,-3.645 -36.867,-7.381 -58.767,-12.665c-8.689,-2.097 -19.723,-6.669 -20.906,-7.165Z" style="fill:#7e4021;"/><path d="M457.251,1527.28c-3.507,1.481 -6.526,4.167 -8.374,7.83c-4.143,8.213 -0.839,18.244 7.374,22.387c5.213,2.63 11.11,3.073 17.513,-0.271c3.606,-1.883 8.814,-6.695 13.579,-14.853c15.327,-26.237 38.878,-99.944 40.588,-105.549c8.678,-28.444 9.85,-72.089 4.729,-123.58c-11.473,-115.372 -53.659,-271.69 -101.635,-378.871c-18.118,-40.476 -37.171,-74.06 -55.621,-96.313c-14.443,-17.42 -29.122,-28.259 -42.632,-32.177c-26.195,-7.596 -57.076,5.439 -84.922,38.267c-54.403,64.136 -101.543,206.213 -84.006,361.35c10.581,93.601 47.922,166.55 91.631,199.736c33.449,25.395 70.757,29.58 105.642,7.049c22.451,-14.5 28.479,-36.406 22.907,-66.764c-9.535,-51.95 -58.258,-135.17 -66.399,-248.27c-0.66,-9.175 -8.645,-16.088 -17.82,-15.427c-9.175,0.66 -16.087,8.645 -15.427,17.82c7.142,99.229 44.353,176.108 61.063,229.514c3.895,12.45 6.632,23.416 7.097,32.941c0.465,9.519 -1.651,17.112 -9.506,22.185c-22.284,14.393 -46.034,10.625 -67.401,-5.597c-38.514,-29.241 -69.341,-94.456 -78.664,-176.931c-16.29,-144.102 25.77,-276.47 76.303,-336.043c9.564,-11.275 19.294,-19.773 29.023,-24.633c7.305,-3.649 14.441,-5.141 21.196,-3.182c8.573,2.486 17.089,10.382 26.254,21.436c16.955,20.451 34.207,51.461 50.857,88.658c40.032,89.433 75.905,214.016 92.378,318.511c10.635,67.458 13.544,126.264 3.071,160.595c-1.275,4.177 -15.261,48.365 -28.235,79.082c-3.451,8.17 -8.404,17.249 -10.563,21.1Zm13.081,0.025l0.027,0.011l-0.009,-0.004l-0.018,-0.007Z" style="fill:#7e4021;"/></g></svg>