<?xml version="1.0" encoding="UTF-8" standalone="no"?><!DOCTYPE svg PUBLIC "-//W3C//DTD SVG 1.1//EN" "http://www.w3.org/Graphics/SVG/1.1/DTD/svg11.dtd"><svg width="100%" height="100%" viewBox="0 0 2460 3381" version="1.1" xmlns="http://www.w3.org/2000/svg" xmlns:xlink="http://www.w3.org/1999/xlink" xml:space="preserve" xmlns:serif="http://www.serif.com/" style="fill-rule:evenodd;clip-rule:evenodd;stroke-linejoin:round;stroke-miterlimit:2;"><g id="Coffee-Bag-02" serif:id="Coffee Bag-02"><path d="M1545.77,3359.45c128.129,13.64 330.238,-2.966 408.59,-42.879c102.636,-52.282 120.238,-19.389 196.747,-15.293c221.378,11.85 234.822,-81.819 262.473,-247.729c23.682,-142.092 66.041,-1143.94 -37.666,-1761.12c-34.381,-204.603 -215.341,-335.023 -188.953,-446.535c35.997,-152.115 -2.778,-291.757 -135.066,-374.42c-96.476,-60.285 -355.65,-30.778 -344.334,249.089c5.702,141.025 -20.706,522.118 -42.852,688.289c-93.974,705.122 -124.608,1641.06 -118.939,1950.6Z" style="fill:#e3b198;"/><path d="M1529.11,3359.76c0.154,8.404 6.541,15.378 14.899,16.267c131.08,13.954 337.765,-3.77 417.92,-44.601c66.27,-33.758 94.045,-29.38 128.989,-22.203c16.937,3.479 35.358,7.42 59.302,8.701c93.985,5.031 152.435,-9.013 190.888,-37.559c29.887,-22.188 48.36,-53.258 61.269,-92.714c11.959,-36.555 19.193,-80.635 27.647,-131.358c23.756,-142.536 66.361,-1147.51 -37.67,-1766.62c-21.02,-125.09 -95.301,-223.21 -145.961,-306.041c-30.429,-49.753 -52.9,-92.943 -43.209,-133.894c37.753,-159.534 -3.713,-305.697 -142.453,-392.392c-72.57,-45.348 -230.933,-44.018 -315.174,64.377c-35.563,45.76 -58.239,110.646 -54.645,199.519c5.678,140.436 -20.666,519.937 -42.719,685.414c-94.095,706.028 -124.76,1643.17 -119.083,1953.11Zm33.09,-15.477c-4.458,-323.28 26.639,-1239.96 119.034,-1933.23c22.238,-166.864 48.71,-549.551 42.984,-691.165c-3.196,-79.048 16.027,-137.016 47.659,-177.717c72.546,-93.349 208.694,-95.616 271.19,-56.564c125.837,78.632 161.921,211.752 127.68,356.448c-11.422,48.265 11.345,100.322 47.21,158.962c48.774,79.748 121.287,173.739 141.524,294.173c103.384,615.254 61.272,1613.97 37.663,1755.62c-8.137,48.824 -14.936,91.287 -26.448,126.473c-10.564,32.287 -25,58.158 -49.457,76.315c-34.008,25.246 -86.116,35.487 -169.237,31.038c-29.811,-1.596 -50.427,-7.765 -70.849,-11.232c-34.041,-5.779 -67.696,-5.638 -134.354,28.317c-73.622,37.503 -259.156,53.264 -384.599,42.559l-0,0Z" style="fill:#7e4021;"/><path d="M2040.12,3293.03c39.822,-64.086 60.511,-150.863 67.533,-224.908c16.377,-172.668 -36.751,-350.094 -48.197,-522.733c-0.609,-9.179 -8.554,-16.136 -17.733,-15.528c-9.178,0.609 -16.136,8.555 -15.527,17.733c11.329,170.888 64.484,346.463 48.273,517.38c-6.567,69.242 -25.424,150.535 -62.661,210.464c-4.855,7.813 -2.453,18.098 5.36,22.952c7.813,4.855 18.098,2.453 22.952,-5.36Z" style="fill:#7e4021;"/><path d="M2048.63,2334.59c-0.302,-15.252 -0.979,-30.513 -1.948,-45.736c-2.588,-40.694 -4.958,-81.407 -7.251,-122.119c-7.154,-126.976 3.11,-250.879 7.403,-377.509c0.312,-9.193 -6.899,-16.91 -16.093,-17.222c-9.193,-0.311 -16.91,6.9 -17.221,16.093c-4.327,127.636 -14.58,252.527 -7.37,380.513c2.298,40.792 4.672,81.586 7.266,122.36c0.938,14.738 1.595,29.513 1.887,44.279c0.182,9.196 7.796,16.515 16.993,16.334c9.197,-0.182 16.516,-7.797 16.334,-16.993Z" style="fill:#7e4021;"/><path d="M2076.57,488.223c-193.609,-144.357 -1422.51,-612.463 -1679.39,-428.272c-205.041,147.025 -68.608,323.795 -44.805,412.984c20.415,76.499 -230.429,198.291 -280.805,452.288c-121.575,612.98 -2.116,1737.64 10.391,1875.21c36.079,396.877 1179.16,548.484 1487.56,560.127c314.749,11.881 86.373,-1773.46 137.328,-2058.37c27.598,-154.308 127.169,-339.598 235.29,-400.559c-127.122,36.866 -288.739,-108.231 -173.788,-334.945c47.357,-93.4 154.591,-116.893 308.212,-78.472Z" style="fill:#ebccb8;"/><path d="M2072.53,504.391c7.705,1.927 15.699,-1.85 19.103,-9.026c3.403,-7.176 1.271,-15.756 -5.097,-20.504c-136.309,-101.633 -782.674,-363.292 -1246.94,-447.315c-120.413,-21.792 -228.682,-31.623 -312.907,-24.01c-58.887,5.323 -106.416,19.356 -139.21,42.871c-65.521,46.982 -97.885,97.137 -110.995,146.448c-13.129,49.385 -6.854,98.26 6.347,143.219c16.455,56.04 43.957,105.58 53.452,141.159c2.082,7.801 -0.916,16.092 -6.05,25.479c-7.049,12.885 -18.408,26.918 -32.391,42.527c-71.312,79.603 -206.643,195.402 -242.609,376.742c-121.883,614.532 -2.398,1742.05 10.14,1879.97c11.255,123.797 124.236,226.399 288.163,307.248c369.936,182.454 998.274,259.829 1215.37,268.024c43.637,1.648 79.43,-24.972 106.637,-76.542c36.048,-68.327 57.886,-182.892 69.439,-324.275c43.985,-538.256 -57.349,-1472.02 -21.713,-1671.27c26.757,-149.608 122.241,-329.872 227.069,-388.976c7.37,-4.156 10.457,-13.174 7.179,-20.975c-3.278,-7.8 -11.881,-11.907 -20.007,-9.55c-80.437,23.327 -175.264,-35.139 -189.813,-141.892c-6.525,-47.872 2.915,-105.178 35.532,-169.509c44.315,-87.4 145.551,-105.794 289.303,-69.841Zm-80.651,-48.219c-116.025,-11.384 -197.678,22.709 -238.382,102.986c-36.353,71.699 -46.102,135.729 -38.83,189.085c14,102.721 90.53,166.901 170.273,174.891c-91.589,82.781 -170.281,240.795 -194.486,376.131c-35.703,199.622 65.371,1135.15 21.303,1674.42c-11.088,135.696 -31.099,245.855 -65.698,311.435c-19.898,37.717 -43.983,59.992 -75.898,58.787c-214.672,-8.104 -836.082,-84.194 -1201.88,-264.61c-151.397,-74.669 -259.316,-166.036 -269.71,-280.371c-12.475,-137.221 -131.908,-1259.04 -10.641,-1870.46c34.561,-174.257 166.214,-284.492 234.741,-360.985c19.449,-21.71 34.108,-41.091 41.486,-58.347c6.203,-14.505 7.674,-27.975 4.333,-40.496c-9.547,-35.773 -37.13,-85.61 -53.675,-141.955c-11.548,-39.331 -17.601,-82.061 -6.115,-125.264c11.505,-43.277 40.701,-86.69 98.204,-127.923c28.857,-20.691 70.971,-32.078 122.786,-36.762c81.827,-7.396 186.988,2.441 303.971,23.613c400.419,72.467 938.12,277.89 1158.23,395.825l-0.002,-0Z" style="fill:#7e4021;"/><path d="M1372.75,2247.13c0,-97.556 -79.203,-197.344 -176.759,-222.7l-732.236,-190.315c-97.556,-25.356 -176.759,33.261 -176.759,130.817l-0,353.518c-0,97.556 79.203,197.345 176.759,222.701l732.236,190.315c97.556,25.356 176.759,-33.262 176.759,-130.818l0,-353.518Z" style="fill:#fff;"/><path d="M1389.42,2247.13c0,-52.863 -21.415,-106.426 -56.327,-149.937c-34.166,-42.583 -81.171,-75.448 -132.906,-88.894c-0,0 -732.237,-190.315 -732.237,-190.315c-53.588,-13.928 -102.123,-4.573 -137.625,20.996c-36.741,26.461 -59.993,70.495 -59.993,125.952l0,353.518c0,52.864 21.415,106.427 56.327,149.938c34.166,42.582 81.172,75.447 132.906,88.893c0,0 732.237,190.316 732.237,190.316c53.588,13.928 102.124,4.573 137.626,-20.996c36.74,-26.461 59.992,-70.495 59.992,-125.953l0,-353.518Zm-33.333,0l-0,353.518c-0,43.384 -17.399,78.204 -46.14,98.904c-28.278,20.366 -67.076,26.877 -109.76,15.783c-0,0 -732.237,-190.315 -732.237,-190.315c-44.946,-11.682 -85.609,-40.497 -115.292,-77.492c-30.093,-37.506 -48.993,-83.51 -48.993,-129.078c0,0 0,-353.518 0,-353.518c0,-43.383 17.399,-78.204 46.14,-98.904c28.278,-20.366 67.076,-26.877 109.76,-15.783c0,0 732.237,190.316 732.237,190.316c44.947,11.682 85.609,40.497 115.292,77.492c30.093,37.506 48.993,83.51 48.993,129.077Z" style="fill:#7e4021;"/><path d="M376.016,2279.03c-0.269,-20.206 46.396,-25.493 105.754,11.861c68.434,43.066 130.553,19.502 130.871,43.365c0.587,44.069 -51.951,67.474 -117.249,52.234c-65.299,-15.24 -118.789,-63.392 -119.376,-107.46Z" style="fill:#7e4021;"/><path d="M703.408,2366.59c-0.269,-20.206 46.396,-25.493 105.754,11.862c68.434,43.066 130.553,19.502 130.871,43.365c0.587,44.068 -51.951,67.473 -117.249,52.233c-65.298,-15.24 -118.789,-63.391 -119.376,-107.46Z" style="fill:#7e4021;"/><path d="M1030.8,2454.16c-0.269,-20.206 46.396,-25.493 105.754,11.861c68.434,43.066 130.553,19.502 130.871,43.365c0.587,44.069 -51.951,67.474 -117.249,52.234c-65.298,-15.24 -118.789,-63.392 -119.376,-107.46Z" style="fill:#7e4021;"/><path d="M611.905,2279.01c0.269,20.205 -46.396,25.493 -105.754,-11.862c-68.434,-43.066 -130.553,-19.502 -130.871,-43.365c-0.587,-44.069 51.951,-67.474 117.249,-52.233c65.299,15.24 118.789,63.391 119.376,107.46Z" style="fill:#7e4021;"/><path d="M939.297,2366.57c0.269,20.206 -46.396,25.493 -105.754,-11.861c-68.434,-43.066 -130.553,-19.502 -130.871,-43.365c-0.587,-44.069 51.951,-67.474 117.249,-52.234c65.299,15.24 118.789,63.392 119.376,107.46Z" style="fill:#7e4021;"/><path d="M1266.69,2454.13c0.269,20.205 -46.396,25.493 -105.754,-11.862c-68.433,-43.066 -130.553,-19.502 -130.871,-43.365c-0.587,-44.069 51.951,-67.474 117.249,-52.233c65.299,15.24 118.789,63.391 119.376,107.46Z" style="fill:#7e4021;"/><path d="M1372.75,2247.13c0,-97.556 -79.203,-197.344 -176.759,-222.7l-732.236,-190.315c-97.556,-25.356 -176.759,33.261 -176.759,130.817l1085.75,282.198Z" style="fill:#d9905f;"/><path d="M1368.56,2263.26c4.994,1.298 10.307,0.21 14.388,-2.946c4.082,-3.157 6.471,-8.025 6.471,-13.185c0,-52.863 -21.415,-106.426 -56.327,-149.937c-34.166,-42.583 -81.171,-75.448 -132.906,-88.894c-0,0 -732.237,-190.315 -732.237,-190.315c-53.588,-13.928 -102.123,-4.573 -137.625,20.996c-36.741,26.461 -59.993,70.495 -59.993,125.952c0,7.59 5.128,14.222 12.474,16.131l1085.76,282.198Zm-13.901,-38.054l-1050.48,-273.029c3.077,-37.453 19.757,-67.52 45.623,-86.15c28.278,-20.366 67.076,-26.877 109.76,-15.783c0,0 732.237,190.316 732.237,190.316c44.947,11.682 85.609,40.497 115.292,77.492c25.267,31.49 42.642,68.971 47.566,107.154l-0,0Z" style="fill:#7e4021;"/><path d="M1116.62,107.672c-10.205,-1.739 -51.1,10.008 -60.478,13.167c-20.884,7.033 -41.527,17.957 -59.631,30.397c-51.462,35.364 -92.242,84.102 -124.739,136.98c-6.942,11.296 -14.615,24.564 -20.837,36.254c-10.386,19.517 -19.541,39.584 -28.031,59.987c-8.819,21.194 -16.889,42.679 -24.107,64.472c-66.18,199.814 -32.299,413.5 -108.108,603.796c-3.559,8.935 -18.331,36.118 -3.457,42.42c50.306,21.317 155.15,-91.908 206.498,-95.773c62.56,-4.709 88.686,192.801 116.33,195.565c16.44,1.644 33.845,-20.988 42.14,-32.049c93.143,-124.19 59.547,-274.73 78.395,-418.228c9.257,-70.478 29.723,-140.343 58.585,-205.283c52.902,-119.029 158.115,-248.821 267.195,-321.192c4.224,-2.802 -335.556,-109.503 -339.755,-110.513Z" style="fill:#edaf5f;"/><path d="M1120.52,91.468c-0.363,-0.088 -0.729,-0.163 -1.097,-0.225c-4.199,-0.716 -12.226,-0.262 -21.698,1.534c-16.912,3.208 -40.01,9.946 -46.901,12.267c-22.321,7.517 -44.4,19.16 -63.75,32.456c-53.381,36.683 -95.791,87.139 -129.5,141.99c-7.113,11.575 -14.975,25.171 -21.35,37.15c-10.633,19.982 -20.013,40.524 -28.706,61.414c-8.978,21.576 -17.192,43.449 -24.541,65.635c-33.497,101.136 -41.827,205.758 -51.22,309.2c-9.132,100.575 -19.242,200.019 -56.549,293.668c-3.013,7.562 -11.752,26.208 -11.105,39.165c0.563,11.294 5.656,20.12 16.629,24.769c11.046,4.681 23.988,5.167 38.26,1.765c17.041,-4.062 36.527,-13.917 56.625,-26.317c27.528,-16.985 56.515,-38.757 81.943,-53.952c14.311,-8.552 27.044,-15.214 37.423,-15.996c9.775,-0.735 16.855,7.961 24.239,18.818c16.305,23.977 28.983,61.338 40.197,94.131c9.63,28.162 18.38,53.24 26.624,66.214c6.993,11.003 15.414,15.672 22.36,16.367c10.445,1.044 21.478,-3.126 31.389,-10.776c10.615,-8.193 20.099,-20.331 25.744,-27.857c48.603,-64.805 64.495,-136.366 70.339,-210.565c5.578,-70.812 1.86,-144.03 11.246,-215.492c9.05,-68.902 29.075,-137.199 57.291,-200.685c51.722,-116.373 154.532,-243.317 261.179,-314.073c4.304,-2.855 6.322,-6.622 7.138,-10.531c0.687,-3.289 0.601,-7.139 -1.618,-11.306c-0.771,-1.448 -2.081,-3.5 -4.644,-5.489c-1.089,-0.845 -5.346,-3.214 -12.655,-5.931c-52.301,-19.449 -329.492,-106.434 -333.292,-107.348Zm-6.685,32.743c17.443,5.244 228.541,71.589 307.313,98.448c-101.961,76.249 -197.333,197.756 -247.196,309.949c-29.508,66.393 -50.416,137.826 -59.88,209.882c-9.461,72.035 -5.805,145.836 -11.427,217.216c-5.356,67.993 -19.237,133.796 -63.776,193.182c-3.685,4.913 -9.343,12.44 -15.956,18.513c-2.13,1.956 -4.354,3.761 -6.66,5.148c-0.546,0.329 -1.079,0.672 -1.61,0.969c-1.659,-2.697 -4.275,-7.154 -6.038,-11.156c-8.452,-19.174 -17.405,-48.604 -27.945,-77.689c-11.387,-31.42 -24.751,-62.332 -40.579,-81.612c-13.879,-16.906 -30.06,-25.629 -47.6,-24.309c-14.27,1.074 -32.342,8.863 -52.019,20.621c-25.551,15.268 -54.687,37.131 -82.348,54.198c-14.138,8.723 -27.811,16.174 -40.317,20.369c-7.296,2.448 -13.991,4.005 -19.842,3.052c0.37,-1.885 0.891,-4.235 1.444,-5.828c2.299,-6.626 5.41,-12.844 6.776,-16.271c38.501,-96.647 49.355,-199.194 58.779,-302.989c9.164,-100.928 16.983,-203.057 49.666,-301.734c7.088,-21.401 15.014,-42.498 23.674,-63.31c8.287,-19.917 17.218,-39.509 27.356,-58.56c6.068,-11.401 13.553,-24.341 20.323,-35.357c31.285,-50.907 70.437,-97.926 119.98,-131.97c16.858,-11.585 36.063,-21.79 55.51,-28.339c6.24,-2.102 27.157,-8.202 42.473,-11.107c3.636,-0.69 8.401,-1.174 9.899,-1.316Z" style="fill:#7e4021;"/><path d="M227.453,838.597c-32.344,71.886 -68.173,130.372 -80.618,212.153c-1.384,9.094 4.876,17.6 13.97,18.984c9.094,1.384 17.6,-4.876 18.984,-13.97c11.951,-78.536 47.002,-134.456 78.062,-203.49c3.774,-8.388 0.028,-18.263 -8.361,-22.037c-8.388,-3.775 -18.263,-0.028 -22.037,8.36Z" style="fill:#7e4021;"/><path d="M132.32,1152.36c-0.085,1.265 -1.916,28.647 -4.996,88.708c-0.471,9.187 6.605,17.028 15.792,17.499c9.186,0.471 17.027,-6.605 17.498,-15.791c3.154,-61.514 4.789,-84.687 4.998,-88.745c0.672,-13.039 -9.482,-16.591 -9.824,-16.744c-8.397,-3.755 -18.263,0.014 -22.018,8.411c-0.969,2.167 -1.437,4.431 -1.45,6.662Z" style="fill:#7e4021;"/><path d="M341.498,475.949c26.545,33.917 83.081,69.754 153.562,103.808c158.454,76.559 388.104,146.694 483.585,178.323c8.732,2.892 18.17,-1.849 21.062,-10.581c2.893,-8.732 -1.848,-18.169 -10.58,-21.062c-94.678,-31.362 -322.445,-100.779 -479.565,-176.693c-64.766,-31.293 -117.422,-63.173 -141.814,-94.339c-5.669,-7.244 -16.153,-8.522 -23.397,-2.853c-7.244,5.669 -8.522,16.153 -2.853,23.397Z" style="fill:#7e4021;"/><path d="M1242.67,842.166c129.817,60.939 280.943,66.197 412.485,121.583c8.477,3.57 18.258,-0.415 21.828,-8.893c3.569,-8.478 -0.415,-18.259 -8.893,-21.828c-131.134,-55.214 -281.841,-60.287 -411.256,-121.036c-8.327,-3.909 -18.26,-0.322 -22.169,8.005c-3.909,8.327 -0.322,18.261 8.005,22.169Z" style="fill:#7e4021;"/><path d="M1918.09,922.961c46.165,-2.212 105.581,-35.656 129.837,-72.403c42.683,-64.666 39.326,-123.278 10.876,-164.053c-38.665,-55.415 -106.316,-41.468 -139.048,-8.595c-14.692,14.756 -22.176,33.141 -19.716,50.674c1.707,12.163 8.019,24.364 21.202,34.931c7.177,5.753 17.675,4.597 23.428,-2.58c5.754,-7.177 4.598,-17.675 -2.579,-23.428c-5.257,-4.214 -8.36,-8.706 -9.041,-13.555c-1.121,-7.99 3.632,-15.799 10.327,-22.523c20.72,-20.809 63.615,-30.929 88.09,4.15c21.998,31.527 21.644,76.616 -11.359,126.616c-19.332,29.289 -66.818,55.708 -103.613,57.471c-9.188,0.44 -16.29,8.257 -15.85,17.446c0.441,9.188 8.258,16.29 17.446,15.849Z" style="fill:#7e4021;"/></g></svg>