<?xml version="1.0" encoding="UTF-8" standalone="no"?><!DOCTYPE svg PUBLIC "-//W3C//DTD SVG 1.1//EN" "http://www.w3.org/Graphics/SVG/1.1/DTD/svg11.dtd"><svg width="100%" height="100%" viewBox="0 0 1715 2076" version="1.1" xmlns="http://www.w3.org/2000/svg" xmlns:xlink="http://www.w3.org/1999/xlink" xml:space="preserve" xmlns:serif="http://www.serif.com/" style="fill-rule:evenodd;clip-rule:evenodd;stroke-linejoin:round;stroke-miterlimit:2;"><g id="Coffee-Bean-05" serif:id="Coffee Bean-05"><path d="M1476.06,213.746c-220.064,-323.599 -733.612,-209.825 -992.109,62.592c-253.618,267.274 -762.5,1181.34 -240.087,1533.01c626.338,421.63 1807.6,-749.479 1232.2,-1595.6Z" style="fill:#c48464;"/><path d="M1489.84,204.374c-91.148,-134.031 -230.752,-195.914 -382.795,-203.492c-224.799,-11.206 -476.885,97.159 -635.186,263.983c-153.637,161.91 -400.047,558.91 -458.67,927.295c-39.773,249.93 6.659,486.477 221.366,631.011c256.062,172.372 603.229,86.602 889.578,-136.503c426.599,-332.379 716.163,-966.956 365.707,-1482.29l0,-0Zm-27.563,18.745c340.03,500.007 55.278,1114.76 -358.631,1437.26c-273.991,213.476 -605.466,300.078 -850.476,135.145c-203.224,-136.804 -244.708,-361.557 -207.062,-598.12c57.504,-361.354 299.226,-750.77 449.931,-909.589c151.896,-160.075 393.643,-264.388 609.347,-253.636c141.626,7.059 271.987,64.096 356.891,188.945l-0,-0Z" style="fill:#7e4021;"/><path d="M1476.06,213.746c281.534,340.493 292.846,824.111 46.103,1289.22c-247.403,466.353 -661.374,592.441 -945.693,547.535c-429.221,-67.792 -539.756,-440.893 -543.025,-549.133c27.913,121.866 93.209,229.078 210.419,307.98c626.338,421.63 1807.6,-749.479 1232.2,-1595.6Z" style="fill:#9d5e3e;"/><path d="M1488.9,203.126c-5.672,-6.86 -15.734,-8.052 -22.852,-2.708c-7.118,5.345 -8.78,15.34 -3.774,22.701c340.03,500.007 55.278,1114.76 -358.631,1437.26c-273.991,213.476 -605.466,300.078 -850.476,135.145c-113.359,-76.309 -176.485,-180.014 -203.481,-297.875c-1.914,-8.36 -9.861,-13.902 -18.368,-12.81c-8.506,1.092 -14.796,8.461 -14.537,17.034c3.359,111.216 116.061,495.437 557.084,565.093c289.348,45.7 711.237,-81.586 963.016,-556.187c250.279,-471.772 237.587,-962.276 -47.981,-1307.65Zm133.767,300.434c106.87,296.432 66.455,649.116 -115.232,991.592c-243.028,458.105 -649.079,582.996 -928.37,538.884c-247.563,-39.101 -386.418,-182.336 -459.096,-314.391c31.154,38.139 69.083,72.897 114.583,103.526c256.062,172.372 603.229,86.602 889.578,-136.503c346.739,-270.156 602.946,-739.958 498.538,-1183.11l-0.001,-0.003Z" style="fill:#7e4021;"/><path d="M1216.79,193.251c-31.239,8.822 -70.215,30.635 -99.875,65.215c-47.388,55.25 -76.411,132.5 -94.581,201.08c-2.356,8.891 2.95,18.023 11.842,20.379c8.891,2.356 18.023,-2.95 20.379,-11.842c16.956,-63.994 43.441,-136.359 87.662,-187.915c24.867,-28.993 57.44,-47.442 83.632,-54.838c8.852,-2.5 14.01,-11.716 11.51,-20.569c-2.5,-8.852 -11.716,-14.01 -20.569,-11.51Z" style="fill:#7e4021;"/><path d="M1001.08,572.819c-4.177,16.569 -5.786,34.258 -7.677,51.184c-4.337,38.819 -5.211,77.947 -4.796,116.977c0.098,9.198 7.645,16.586 16.843,16.489c9.198,-0.098 16.586,-7.645 16.489,-16.843c-0.401,-37.677 0.405,-75.449 4.591,-112.922c1.726,-15.449 3.06,-31.614 6.872,-46.737c2.248,-8.919 -3.168,-17.986 -12.087,-20.235c-8.92,-2.248 -17.987,3.168 -20.235,12.087Z" style="fill:#7e4021;"/><path d="M118.363,1486.66c20.95,81.238 58.223,119.189 104.949,137.787c86.401,34.389 167.678,20.478 245.968,-14.53c8.397,-3.754 12.166,-13.62 8.412,-22.018c-3.755,-8.397 -13.621,-12.166 -22.019,-8.411c-70.055,31.325 -142.722,44.761 -220.034,13.989c-38.61,-15.367 -67.688,-48.015 -84.999,-115.14c-2.297,-8.908 -11.393,-14.274 -20.3,-11.977c-8.907,2.297 -14.274,11.393 -11.977,20.3Z" style="fill:#fff;"/><path d="M567.642,1553.07c19.882,-19.065 77.273,-54.782 94.42,-76.217c5.747,-7.182 4.58,-17.679 -2.603,-23.426c-7.182,-5.746 -17.679,-4.58 -23.426,2.603c-16.535,20.67 -72.289,54.596 -91.462,72.981c-6.639,6.367 -6.861,16.926 -0.494,23.565c6.367,6.64 16.926,6.861 23.565,0.494Z" style="fill:#fff;"/><path d="M1336.14,65.485c-68.488,-28.719 -152.767,6.556 -200.609,33.73c-124.656,70.805 -211.684,217.315 -235.729,355.57c-31.721,182.398 -10.405,342.107 -0.097,492.814c15.021,219.619 5.846,419.682 -239.534,644.832c-115.557,106.03 -353.865,178.785 -533.054,71.918c-7.9,-4.712 -18.139,-2.123 -22.851,5.777c-4.712,7.901 -2.123,18.14 5.777,22.852c192.447,114.774 448.556,37.89 572.664,-75.986c255.685,-234.605 265.905,-442.825 250.253,-671.667c-10.14,-148.266 -31.525,-305.386 -0.317,-484.829c22.441,-129.036 103.007,-266.213 219.351,-332.297c40.972,-23.272 112.602,-56.569 171.256,-31.974c8.483,3.558 18.258,-0.442 21.815,-8.925c3.558,-8.482 -0.442,-18.258 -8.925,-21.815Z" style="fill:#7e4021;"/></g></svg>