<?xml version="1.0" encoding="UTF-8" standalone="no"?><!DOCTYPE svg PUBLIC "-//W3C//DTD SVG 1.1//EN" "http://www.w3.org/Graphics/SVG/1.1/DTD/svg11.dtd"><svg width="100%" height="100%" viewBox="0 0 2043 1795" version="1.1" xmlns="http://www.w3.org/2000/svg" xmlns:xlink="http://www.w3.org/1999/xlink" xml:space="preserve" xmlns:serif="http://www.serif.com/" style="fill-rule:evenodd;clip-rule:evenodd;stroke-linejoin:round;stroke-miterlimit:2;"><g id="Coffee-Bean-07" serif:id="Coffee Bean-07"><path d="M165.987,1332.05c-10.563,-48.971 -89.345,-42.274 -113.279,-98.77c-99.957,-235.949 23.577,-518.22 211.294,-676.508c184.94,-155.947 440.022,-182.158 657.772,-269.371c305.317,-122.284 668.912,-479.986 954.625,-100.088c87.159,115.892 114.072,270.042 88.286,411.076c-91.84,502.308 -699.107,786.261 -1147.04,883.598c-144.706,31.445 -599.999,89.565 -651.657,-149.937Z" style="fill:#9d5e3e;"/><path d="M149.695,1335.56c22.063,102.291 111.803,155.351 222.973,178.112c158.606,32.473 360.34,3.758 448.515,-15.403c271.104,-58.912 599.986,-185.769 839.791,-387.131c161.518,-135.625 282.667,-304.993 320.105,-509.756c26.607,-145.52 -1.429,-304.515 -91.36,-424.092c-74.365,-98.88 -154.098,-149.344 -236.384,-168.061c-82.002,-18.652 -166.884,-5.625 -252.365,24.06c-165.013,57.306 -332.515,177.406 -485.393,238.635c-108.532,43.469 -226.38,71.695 -340.127,108.526c-116.168,37.615 -228.051,84.193 -322.192,163.575c-192.945,162.697 -318.638,453.23 -215.896,695.751c13.705,32.351 42.301,47.554 69.795,60.735c10.887,5.219 21.466,10.099 29.851,16.576c6.122,4.729 10.939,10.366 12.687,18.472l0,0.001Zm32.584,-7.029c-5.321,-24.67 -23.298,-39.133 -46.193,-50.948c-13.197,-6.811 -28.08,-12.852 -41.37,-21.354c-10.999,-7.037 -20.909,-15.877 -26.662,-29.456c-97.173,-229.377 24.203,-503.385 206.692,-657.265c90.799,-76.565 198.927,-121.066 310.972,-157.346c114.467,-37.064 233.034,-65.55 342.253,-109.294c152.439,-61.054 319.394,-180.948 483.935,-238.09c79.296,-27.538 157.966,-40.349 234.036,-23.046c75.787,17.239 148.645,64.524 217.137,155.594c84.388,112.206 110.177,261.511 85.211,398.06c-36.034,197.083 -153.292,359.687 -308.751,490.225c-235.659,197.88 -559.017,322.191 -825.435,380.085c-85.471,18.573 -281.007,46.798 -434.75,15.32c-97.068,-19.874 -177.81,-63.169 -197.075,-152.485l0,0Z" style="fill:#7e4021;"/><path d="M349.782,1393.17c-8.025,-4.473 -13.525,-14.262 -18.024,-24.435c-7.965,-18.006 -11.779,-38.276 -11.895,-45.203c-1.237,-73.982 49.895,-135.652 102.554,-182.162c6.895,-6.089 7.548,-16.63 1.459,-23.525c-6.089,-6.894 -16.631,-7.548 -23.525,-1.459c-59.662,52.694 -115.218,123.884 -113.817,207.703c0.149,8.887 4.521,35.028 14.739,58.129c7.624,17.238 18.681,32.487 32.279,40.068c8.035,4.478 18.194,1.592 22.673,-6.443c4.479,-8.035 1.592,-18.194 -6.443,-22.673Z" style="fill:#7e4021;"/><path d="M1275.95,250.766c7.484,-4.058 14.846,-8.322 22.255,-12.514c21.317,-12.064 42.338,-24.626 63.586,-36.808c59.179,-33.926 119.115,-65.818 189.274,-61.003c9.177,0.63 17.139,-6.309 17.769,-15.486c0.63,-9.177 -6.309,-17.139 -15.486,-17.769c-76.965,-5.282 -143.217,28.123 -208.135,65.34c-21.195,12.151 -42.162,24.682 -63.425,36.715c-7.233,4.093 -14.418,8.26 -21.725,12.221c-8.087,4.384 -11.093,14.509 -6.709,22.595c4.384,8.087 14.509,11.093 22.596,6.709Z" style="fill:#fff;"/><path d="M1632.57,144.602c22.067,0.658 60.555,16.606 73.617,23.891c8.034,4.481 18.194,1.596 22.674,-6.438c4.481,-8.034 1.596,-18.193 -6.438,-22.674c-15.73,-8.772 -62.29,-27.306 -88.86,-28.097c-9.195,-0.274 -16.882,6.969 -17.156,16.163c-0.274,9.195 6.969,16.882 16.163,17.155Z" style="fill:#fff;"/><path d="M491.452,1078.94l0.006,-0.006c16.679,-15.08 90.684,-52.127 101.092,-57.127c8.292,-3.983 11.789,-13.948 7.806,-22.24c-3.983,-8.291 -13.948,-11.789 -22.24,-7.806c-9.86,4.737 -73.098,36.768 -99.519,55.104c-5.979,4.149 -10.38,7.901 -12.815,10.686c-2.96,3.386 -4.382,6.609 -5.031,9.074c-2.341,8.895 2.98,18.018 11.876,20.36c7.529,1.982 15.221,-1.526 18.825,-8.045Z" style="fill:#7e4021;"/><path d="M165.987,1332.05c-10.563,-48.971 -89.345,-42.274 -113.279,-98.77c71.162,235.504 139.839,431.364 460.186,518.652c421.041,114.726 950.771,-170.497 1212.85,-410.544c360.293,-330.01 340.409,-697.419 226.189,-1002.07c24.667,83.57 28.361,173.722 12.757,259.071c-91.84,502.308 -699.107,786.261 -1147.04,883.598c-144.706,31.445 -599.999,89.565 -651.657,-149.937Z" style="fill:#7e4021;"/><path d="M182.279,1328.54c-5.321,-24.67 -23.298,-39.133 -46.193,-50.948c-13.197,-6.811 -28.08,-12.852 -41.37,-21.354c-10.999,-7.037 -20.909,-15.877 -26.662,-29.456c-3.455,-8.155 -12.686,-12.184 -21.015,-9.171c-8.33,3.013 -12.847,12.015 -10.285,20.494c72.815,240.974 143.972,440.596 471.758,529.912c426.312,116.161 963.13,-171.283 1228.49,-414.335c366.834,-336.002 346.831,-710.029 230.537,-1020.21c-3.15,-8.401 -12.385,-12.801 -20.894,-9.954c-8.509,2.847 -13.237,11.918 -10.697,20.524c23.932,81.08 27.487,168.548 12.347,251.354c-36.034,197.083 -153.292,359.687 -308.751,490.225c-235.659,197.88 -559.017,322.191 -825.435,380.085c-85.471,18.573 -281.007,46.798 -434.75,15.32c-97.068,-19.874 -177.81,-63.169 -197.075,-152.485l0,0Zm-32.584,7.029c22.063,102.291 111.803,155.351 222.973,178.112c158.606,32.473 360.34,3.758 448.515,-15.403c271.104,-58.912 599.986,-185.769 839.791,-387.131c161.518,-135.625 282.667,-304.993 320.105,-509.756c4.381,-23.959 7.282,-48.284 8.671,-72.74c51.979,256.565 8.694,540.356 -275.268,800.451c-258.794,237.042 -781.436,520.043 -1197.21,406.754c-284.207,-77.441 -364.885,-243.017 -429.377,-445.105c6.344,3.496 12.831,6.688 19.258,9.769c10.887,5.219 21.466,10.099 29.851,16.576c6.122,4.729 10.939,10.366 12.687,18.472l0,0.001Z" style="fill:#7e4021;"/><path d="M1809.45,135.084c-11.978,45.339 -51.433,152.218 -75.347,192.336c-81.29,136.372 -201.241,245.349 -342.047,317.853c-234.348,120.67 -473.425,142.554 -689.028,202.51c-220.738,61.385 -417.38,161.644 -561.516,439.942c-4.23,8.168 -1.034,18.234 7.135,22.464c8.168,4.231 18.234,1.034 22.464,-7.134c138.757,-267.912 328.348,-364.064 540.848,-423.157c217.635,-60.521 458.799,-83.182 695.357,-204.99c146.34,-75.353 270.935,-188.689 355.42,-330.421c24.987,-41.919 66.426,-153.514 78.942,-200.889c2.35,-8.893 -2.963,-18.021 -11.857,-20.371c-8.893,-2.349 -18.021,2.963 -20.371,11.857Z" style="fill:#7e4021;"/></g></svg>