<?xml version="1.0" encoding="UTF-8" standalone="no"?><!DOCTYPE svg PUBLIC "-//W3C//DTD SVG 1.1//EN" "http://www.w3.org/Graphics/SVG/1.1/DTD/svg11.dtd"><svg width="100%" height="100%" viewBox="0 0 2307 1955" version="1.1" xmlns="http://www.w3.org/2000/svg" xmlns:xlink="http://www.w3.org/1999/xlink" xml:space="preserve" xmlns:serif="http://www.serif.com/" style="fill-rule:evenodd;clip-rule:evenodd;stroke-linejoin:round;stroke-miterlimit:2;"><g id="Coffee-Bean-03" serif:id="Coffee Bean-03"><path d="M1282.08,20.744c-353.579,33.291 -830.989,328.576 -1012.18,574.525c-257.06,348.937 -428.602,989.104 52.17,1230.89c661.954,332.899 1769.64,-109.386 1949.53,-944.845c144.304,-670.187 -614.829,-895.844 -989.518,-860.567Z" style="fill:#d9905f;"/><path d="M1280.52,4.151c-357.718,33.68 -840.725,332.405 -1024.04,581.233c-130.249,176.802 -238.695,427.44 -253.816,664.45c-15.343,240.493 64.736,466.903 311.917,591.211c335.088,168.518 783.013,141.545 1169.91,-34c386.889,-175.54 712.336,-499.317 803.396,-922.226c73.982,-343.589 -83.511,-573.277 -307.635,-712.498c-221.861,-137.815 -509.582,-186.073 -699.738,-168.17l-0,0Zm3.125,33.187c184.533,-17.374 463.723,29.558 679.024,163.298c213.039,132.335 362.961,350.57 292.638,677.167c-88.83,412.551 -407.169,727.646 -784.582,898.887c-377.405,171.238 -814.297,198.958 -1141.16,34.576c-233.592,-117.474 -308.127,-332.038 -293.627,-559.309c14.722,-230.753 120.577,-474.668 247.387,-646.803c179.069,-243.07 650.881,-534.916 1000.32,-567.816l0.001,-0Z" style="fill:#7e4021;"/><path d="M225.298,1749.72c71.98,-214.844 245.489,-512.064 425.017,-615.793c188.021,-108.636 394.37,-113.354 601.529,-136.855c318.732,-36.159 639.773,-114.078 903.22,-654.551c4.031,-8.268 0.59,-18.254 -7.679,-22.284c-8.268,-4.03 -18.254,-0.59 -22.284,7.679c-255.87,524.926 -567.45,600.916 -877.015,636.035c-211.706,24.017 -422.299,30.093 -614.447,141.114c-185.172,106.99 -365.705,412.467 -439.948,634.066c-2.922,8.722 1.787,18.176 10.509,21.098c8.722,2.922 18.175,-1.787 21.098,-10.509Z" style="fill:#7e4021;"/></g></svg>