<?xml version="1.0" encoding="UTF-8" standalone="no"?><!DOCTYPE svg PUBLIC "-//W3C//DTD SVG 1.1//EN" "http://www.w3.org/Graphics/SVG/1.1/DTD/svg11.dtd"><svg width="100%" height="100%" viewBox="0 0 1974 2978" version="1.1" xmlns="http://www.w3.org/2000/svg" xmlns:xlink="http://www.w3.org/1999/xlink" xml:space="preserve" xmlns:serif="http://www.serif.com/" style="fill-rule:evenodd;clip-rule:evenodd;stroke-linejoin:round;stroke-miterlimit:2;"><g id="Coffee-to-go-05" serif:id="Coffee to go-05"><path d="M1009.64,1110.33c522.762,7.151 753.342,-92.691 882.193,-187.427c39.165,-28.796 91.362,-129.035 48.528,-257.259c-8.226,178.1 -442.635,302.939 -969.479,278.605c-526.844,-24.333 -947.897,-188.682 -939.671,-366.782c-22.798,96.785 -16.771,191.366 16.958,232.115c108.888,131.554 339.897,292.247 961.471,300.748Z" style="fill:#ffe6d8;"/><path d="M1009.41,1126.99c237.725,3.251 415.446,-15.546 550.836,-45.84c166.358,-37.224 269.46,-91.89 341.457,-144.825c25.859,-19.013 57.766,-66.073 68.003,-131.591c6.496,-41.572 4.406,-90.656 -13.541,-144.377c-2.543,-7.613 -10.152,-12.332 -18.102,-11.227c-7.951,1.105 -13.984,7.721 -14.354,15.739c-1.597,34.576 -21.958,66.448 -56.462,95.649c-55.888,47.299 -147.839,86.667 -264.566,115.786c-169.446,42.271 -390.539,62.398 -631.033,51.291c-240.494,-11.108 -458.791,-51.529 -623.62,-109.239c-113.545,-39.754 -201.476,-87.43 -252.766,-139.679c-31.666,-32.257 -49.002,-65.871 -47.405,-100.447c0.397,-8.598 -5.819,-16.085 -14.344,-17.275c-8.525,-1.191 -16.554,4.306 -18.527,12.685c-12.34,52.386 -16.463,104.156 -12.681,147.682c3.692,42.474 15.207,77.358 33.022,98.881c62.582,75.609 164.424,160.919 354.612,222.439c146.116,47.264 345.012,80.594 619.47,84.348l0.001,-0Zm0.455,-33.331c-270.098,-3.694 -465.872,-36.219 -609.667,-82.733c-181.728,-58.783 -279.395,-139.732 -339.193,-211.977c-14.432,-17.436 -22.501,-46.105 -25.491,-80.513c-1.68,-19.326 -1.649,-40.398 0.092,-62.446c3.959,6.791 8.463,13.536 13.504,20.226c36.092,47.902 100.635,93.515 187.455,133.386c173.363,79.613 436.792,137.584 733.545,151.29c296.753,13.706 564.403,-19.736 744.367,-83.031c90.126,-31.698 158.599,-71.168 198.953,-115.539c9.722,-10.69 17.869,-21.689 24.394,-32.958c3.029,25.303 2.285,48.873 -1.052,70.224c-8.486,54.315 -33.377,94.119 -54.815,109.881c-69.339,50.981 -168.773,103.302 -328.99,139.152c-133.485,29.868 -308.72,48.244 -543.102,45.038l0,0Z" style="fill:#7e4021;"/><path d="M1009.64,1110.33c456.631,6.246 690.328,-69.142 828.023,-151.455c12.223,-7.307 -159.517,1376.62 -306.381,1832.3c-40.384,125.3 -272.522,177.887 -545.923,168.756c-223.469,-7.463 -494.923,-50.265 -541.971,-177.316c-114.331,-308.744 -339.227,-1911.53 -298.531,-1880.66c137.822,104.546 384.907,201.821 864.783,208.384Z" style="fill:#c48464;"/><path d="M1009.87,1093.66c-225.08,-3.078 -398.579,-26.186 -533.414,-60.733c-148.864,-38.142 -250.155,-90.127 -321.524,-144.264c-5.767,-4.375 -11.362,-4.523 -16.185,-3.107c-4.142,1.216 -11.911,5.677 -14.141,18.525c-1.848,10.648 -1.577,35.772 1.02,72.686c8.756,124.449 42.113,390.519 85.385,683.582c66.629,451.262 156.898,966.417 216.75,1128.04c23.794,64.256 100.22,110.138 200.758,139.491c105.571,30.822 237.61,44.732 356.285,48.695c137.618,4.597 264.915,-6.364 363.255,-33.969c105.043,-29.487 177.375,-78.962 199.088,-146.331c73.905,-229.304 154.192,-693.073 214.183,-1097.22c42.547,-286.639 74.917,-543.236 87.642,-664.566c3.509,-33.451 5.527,-56.788 5.904,-67.873c0.195,-5.725 -0.203,-9.42 -0.566,-10.994c-1.926,-8.358 -7.43,-11.096 -10.314,-12.249c-4.604,-1.841 -9.618,-1.958 -14.883,1.189c-71.83,42.94 -170.28,83.839 -313.903,111.971c-128.354,25.142 -292.457,40.037 -505.34,37.125Zm-853.18,-162.532c72.474,50.411 171.701,98.272 311.492,134.089c136.816,35.055 312.847,58.65 541.232,61.774c215.778,2.951 382.105,-12.26 512.204,-37.744c131.801,-25.817 226.751,-62.227 298.38,-101.143c-1.892,22.046 -5.387,55.525 -10.272,98.221c-26.586,232.334 -94.271,735.688 -171.356,1157.98c-39.947,218.84 -82.376,415.859 -122.949,541.744c-18.97,58.857 -84.599,98.702 -176.371,124.463c-95.593,26.834 -219.359,37.215 -353.133,32.748c-115.926,-3.872 -244.931,-17.271 -348.056,-47.379c-49.076,-14.328 -92.198,-32.374 -124.804,-55.23c-25.788,-18.077 -44.851,-39.031 -54.038,-63.838c-34.614,-93.476 -79.283,-306.217 -123.725,-556.065c-75.009,-421.689 -149.005,-948.735 -171.662,-1189.61c-4.127,-43.872 -6.585,-78.033 -6.942,-100.018Z" style="fill:#7e4021;"/><path d="M167.283,1226.34c94.971,61.197 380.337,159.93 801.695,171.172c410.298,10.947 759.295,-33.479 838.718,-110.742c-49.865,317.21 -112.538,706.746 -165.2,989.748c-8.92,47.934 -261.359,170.243 -604.94,185.489c-321.976,14.286 -686.222,-87.435 -702.264,-159.072c-65.318,-291.69 -125.85,-809.503 -168.009,-1076.6Z" style="fill:#f8a5b0;"/><path d="M176.31,1212.33c-5.523,-3.559 -12.621,-3.541 -18.126,0.046c-5.505,3.586 -5.771,11.405 -4.746,17.895c29.115,184.455 64.375,487.155 106.541,753.706c18.951,119.804 38.774,232.06 59.049,322.6c3.556,15.879 19.607,34.377 48.256,51.609c46.46,27.945 127.912,56.593 227.176,78.971c130.404,29.4 291.787,48.247 443.835,41.5c149.887,-6.651 282.616,-33.475 385.817,-65.695c88.287,-27.563 155.165,-59.216 193.243,-85.618c25.977,-18.012 44.148,-36.541 46.419,-48.745c21.911,-117.747 44.75,-252.484 68.483,-394.225c33.336,-199.09 56.326,-409.65 85.468,-595.031c1.114,-7.088 -2.432,-14.093 -8.804,-17.39c-6.372,-3.298 -14.139,-2.148 -19.282,2.855c-16.367,15.922 -38.9,29.883 -77.864,42.563c-58.001,18.876 -137.316,34.066 -231.736,45.05c-142.905,16.624 -320.123,23.513 -510.616,18.43c-193.475,-5.162 -358.086,-28.874 -488.491,-58.909c-150.061,-34.563 -254.441,-77.277 -304.622,-109.612Zm12.746,45.715c58.653,30.553 155.066,66.592 284.394,96.379c132.166,30.442 298.996,54.517 495.084,59.749c192.262,5.13 371.125,-1.863 515.357,-18.642c97.065,-11.291 178.573,-27.058 238.199,-46.463c24.767,-8.06 39.458,-16.881 56.62,-26.234c-27.658,175.514 -48.309,370.775 -79.329,556.036c-23.697,141.527 -46.5,276.061 -68.378,393.631c-0.507,2.724 -3.107,5.468 -6.431,8.967c-5.153,5.425 -17.222,12.251 -26.211,18.483c-36.263,25.144 -100.105,54.943 -184.183,81.193c-100.938,31.513 -230.761,57.708 -377.361,64.212c-149.031,6.613 -307.209,-11.9 -435.026,-40.716c-94.889,-21.392 -172.914,-48.306 -217.326,-75.019c-10.465,-6.294 -18.925,-12.486 -25.002,-18.627c-4.055,-4.098 -7.04,-7.829 -7.907,-11.701c-20.144,-89.957 -39.824,-201.492 -58.653,-320.524c-39.646,-250.624 -75.502,-534.384 -103.847,-720.724Z" style="fill:#7e4021;"/><path d="M1531.45,2435.01c-2.26,10.18 -4.45,20.373 -6.599,30.577c-6.316,29.997 -12.701,59.995 -19.351,89.919c-1.995,8.98 3.675,17.89 12.655,19.886c8.979,1.995 17.889,-3.675 19.885,-12.654c6.677,-30.046 13.087,-60.164 19.429,-90.282c2.124,-10.086 4.289,-20.16 6.522,-30.222c1.994,-8.979 -3.678,-17.889 -12.658,-19.882c-8.98,-1.994 -17.889,3.678 -19.883,12.658Z" style="fill:#7e4021;"/><path d="M1523.01,2620.76c1.797,-4.996 1.181,-10.764 -2.155,-15.393c-5.378,-7.463 -15.803,-9.155 -23.266,-3.777c-0.56,0.404 -5.179,3.744 -7.15,12.029c-3.106,13.056 -15.137,76.12 -16.984,83.214c-2.317,8.902 3.029,18.01 11.931,20.327c8.902,2.317 18.011,-3.029 20.328,-11.931c1.861,-7.153 14.022,-70.732 17.154,-83.896l0.142,-0.573Z" style="fill:#7e4021;"/><path d="M1200.76,2082.8c93.975,24.828 202.498,10.462 222.45,-105.135c11.598,-67.193 -1.756,-116.082 -28.978,-149.647c-25.623,-31.594 -63.962,-49.956 -107.667,-56.533c-40.808,-6.14 -86.34,-1.957 -129.712,10.704c63.02,-84.313 96.837,-209.458 -18.471,-267.909c-60.818,-30.829 -111.473,-32.43 -151.555,-16.273c-37.729,15.208 -66.545,46.459 -85.674,86.303c-17.861,37.202 -18.391,112.848 -13.729,155.216c-41.621,-94.097 -185.911,-182.195 -275.664,-89.152c-47.339,49.074 -63.754,97.022 -60.088,140.083c3.451,40.532 24.855,77.259 57.319,107.251c30.311,28.003 70.331,50.119 113.325,64.009c-99.499,34.353 -197.775,118.89 -135.213,232.02c32.998,59.67 74.006,89.45 116.243,98.598c39.756,8.611 81.152,-1.056 119.359,-23.274c35.674,-20.744 68.572,-52.499 94.482,-89.514c3.6,105.201 55.528,223.98 182.047,197.421c66.732,-14.007 107.247,-44.455 128.402,-82.139c19.913,-35.471 22.837,-77.88 12.826,-120.928c-7.182,-30.89 -21.062,-62.124 -39.702,-91.101Z" style="fill:#fed7dc;"/><path d="M1233.43,2106.55c92.81,13.763 186.858,-13.953 206.205,-126.043c12.644,-73.256 -2.779,-126.387 -32.457,-162.98c-28.162,-34.724 -70.097,-55.288 -118.132,-62.516c-30.205,-4.545 -62.868,-3.782 -95.474,1.691c51.227,-88.959 63.114,-201.131 -47.653,-257.281c-66.306,-33.611 -121.624,-34.48 -165.322,-16.865c-41.467,16.715 -73.444,50.757 -94.468,94.547c-11.767,24.511 -16.714,64.758 -17.583,102.474c-25.192,-29.543 -58.471,-54.978 -94.422,-70.152c-58.758,-24.8 -124.128,-22.687 -174.358,29.384c-51.611,53.503 -68.697,106.123 -64.7,153.069c3.793,44.547 26.936,85.116 62.616,118.079c22.436,20.727 49.886,38.444 79.936,52.232c-92.352,44.821 -165.198,130.946 -105.099,239.621c35.975,65.054 81.252,96.847 127.299,106.821c43.696,9.464 89.274,-0.736 131.266,-25.155c26.405,-15.355 51.405,-36.388 73.415,-61.059c15.706,101.445 76.623,196.382 198.16,170.87c72.753,-15.272 116.447,-49.208 139.511,-90.292c21.886,-38.985 25.529,-85.549 14.527,-132.862c-4.95,-21.288 -12.884,-42.741 -23.267,-63.583l0,-0Zm-28.412,-39.857c-6.648,-1.756 -13.693,0.751 -17.737,6.312c-4.044,5.562 -4.257,13.036 -0.537,18.819c17.573,27.318 30.714,56.738 37.486,85.858c9.018,38.785 6.815,77.038 -11.126,108.995c-19.247,34.285 -56.58,61.243 -117.293,73.987c-114.67,24.071 -158.703,-86.332 -161.966,-181.68c-0.245,-7.165 -5.045,-13.371 -11.919,-15.409c-6.873,-2.038 -14.28,0.548 -18.392,6.422c-24.483,34.977 -55.497,65.061 -89.207,84.664c-34.422,20.017 -71.634,29.151 -107.452,21.392c-38.427,-8.323 -75.165,-36.087 -105.186,-90.374c-56.703,-102.535 35.887,-177.066 126.067,-208.201c6.777,-2.34 11.299,-8.751 11.227,-15.921c-0.072,-7.169 -4.72,-13.489 -11.542,-15.693c-40.628,-13.125 -78.497,-33.929 -107.14,-60.391c-29.248,-27.021 -48.912,-59.906 -52.022,-96.423c-3.335,-39.177 12.408,-82.45 55.477,-127.098c39.524,-40.972 91.173,-41.331 137.406,-21.817c48.606,20.515 91.752,62.576 111.02,106.14c3.326,7.518 11.637,11.489 19.576,9.351c7.939,-2.137 13.133,-9.744 12.233,-17.916c-4.388,-39.884 -4.626,-111.159 12.188,-146.18c17.234,-35.897 42.888,-64.356 76.88,-78.058c36.467,-14.7 82.456,-12.368 137.789,15.681c104.509,52.977 69.774,166.648 12.656,243.065c-4.292,5.742 -4.431,13.587 -0.345,19.477c4.087,5.891 11.482,8.509 18.365,6.5c40.984,-11.964 84.001,-16.024 122.562,-10.222c39.376,5.926 74.118,22.085 97.203,50.55c24.766,30.538 36.05,75.182 25.499,136.314c-17.978,104.157 -117.095,114.227 -201.77,91.856Z" style="fill:#7e4021;"/><path d="M1137.1,2116.11c129.481,-129.105 61.25,-247.369 19.073,-302.497c-119.831,-156.629 -340.094,-87.108 -399.644,75.024c-83.085,226.212 195.169,412.337 380.571,227.473Z" style="fill:#fee4a8;"/><path d="M1148.87,2127.91c55.505,-55.344 76.612,-109.082 79.662,-157.121c4.569,-71.975 -32.031,-131.899 -59.12,-167.305c-128.435,-167.875 -364.7,-94.368 -428.525,79.405c-53.546,145.786 32.695,276.041 153.219,314.053c80.041,25.245 175.412,10.09 254.764,-69.031l-0,-0.001Zm-23.536,-23.604c-68.97,68.77 -151.633,82.789 -221.202,60.847c-103.891,-32.767 -178.112,-145.104 -131.956,-270.772c55.275,-150.492 259.534,-216.027 370.762,-70.643c23.525,30.748 56.295,82.434 52.327,144.939c-2.641,41.613 -21.851,87.689 -69.931,135.629l-0,0Z" style="fill:#7e4021;"/><path d="M1119.47,2054.98c-5.583,14.855 -24.15,21.639 -41.436,15.142c-17.286,-6.497 -26.787,-23.832 -21.204,-38.686c5.583,-14.855 24.15,-21.64 41.436,-15.142c17.287,6.497 26.788,23.832 21.204,38.686Z" style="fill:#f8a5b0;"/><path d="M868.089,1991.71c-1.35,15.812 -17.384,27.374 -35.784,25.803c-18.4,-1.571 -32.242,-15.683 -30.893,-31.494c1.35,-15.811 17.384,-27.373 35.784,-25.803c18.4,1.571 32.243,15.683 30.893,31.494Z" style="fill:#f8a5b0;"/><path d="M1131.7,1930.63c-14.835,-5.979 -33.315,1.588 -40.273,18.852c-6.958,17.264 1.11,35.53 15.945,41.509c14.836,5.98 33.316,-1.587 40.274,-18.851c6.958,-17.264 -1.111,-35.53 -15.946,-41.51Zm-283.898,-52.972c-14.835,-5.979 -33.315,1.587 -40.273,18.852c-6.958,17.264 1.11,35.53 15.946,41.509c14.835,5.979 33.315,-1.587 40.273,-18.851c6.958,-17.264 -1.11,-35.531 -15.946,-41.51Z" style="fill:#7e4021;"/><path d="M907.059,1984c-7.817,25.994 10.802,59 39.559,64.067c30.258,5.332 60.52,-16.201 65.283,-45.165c1.493,-9.077 -4.664,-17.658 -13.741,-19.151c-9.077,-1.492 -17.658,4.665 -19.15,13.741c-1.92,11.67 -14.417,19.896 -26.608,17.748c-9.725,-1.714 -16.066,-12.849 -13.422,-21.64c2.649,-8.809 -2.352,-18.111 -11.161,-20.76c-8.809,-2.649 -18.111,2.352 -20.76,11.16Z" style="fill:#7e4021;"/><path d="M1000.69,298.86c526.844,24.333 947.896,188.682 939.671,366.782c-8.226,178.1 -442.635,302.939 -969.479,278.605c-526.844,-24.333 -947.897,-188.682 -939.671,-366.782c8.226,-178.099 442.635,-302.938 969.479,-278.605Z" style="fill:#ffdab8;"/><path d="M1001.46,282.211c-296.753,-13.706 -564.404,19.736 -744.368,83.031c-90.125,31.698 -158.598,71.168 -198.952,115.539c-27.148,29.851 -42.016,62.117 -43.577,95.915c-1.561,33.798 10.27,67.298 34.551,99.524c36.092,47.902 100.635,93.515 187.455,133.386c173.363,79.613 436.792,137.584 733.545,151.29c296.753,13.706 564.403,-19.736 744.367,-83.031c90.126,-31.698 158.599,-71.168 198.953,-115.539c27.148,-29.851 42.015,-62.117 43.576,-95.915c1.561,-33.798 -10.269,-67.298 -34.55,-99.524c-36.092,-47.902 -100.635,-93.515 -187.455,-133.385c-173.364,-79.614 -436.792,-137.585 -733.545,-151.291l-0,-0Zm-1.538,33.298c240.494,11.107 458.791,51.528 623.619,109.238c113.546,39.754 201.476,87.43 252.767,139.679c31.666,32.257 49.002,65.871 47.405,100.447c-1.597,34.576 -21.958,66.448 -56.462,95.649c-55.888,47.299 -147.839,86.667 -264.566,115.786c-169.446,42.271 -390.539,62.398 -631.033,51.291c-240.494,-11.108 -458.791,-51.529 -623.62,-109.239c-113.545,-39.754 -201.476,-87.43 -252.766,-139.679c-31.666,-32.257 -49.002,-65.871 -47.405,-100.447c1.597,-34.576 21.957,-66.448 56.461,-95.649c55.889,-47.299 147.84,-86.667 264.566,-115.786c169.447,-42.271 390.54,-62.398 631.034,-51.29l0,-0Z" style="fill:#7e4021;"/><path d="M1017.63,73.671c61.596,1.187 121.58,4.525 179.253,9.773c63.702,5.798 73.718,-53.62 130.703,-64.481c46.47,-8.858 162.296,18.326 191.402,44.056c46.633,41.224 17.154,72.467 52.857,84.07c158.434,51.486 266.248,131.846 264.782,207.906c-2.823,146.502 -374.387,258.327 -829.227,249.562c-454.841,-8.765 -821.821,-134.822 -818.998,-281.324c2.823,-146.502 374.388,-258.327 829.228,-249.562Z" style="fill:#fff;"/><path d="M1017.95,57.007c-254.41,-4.902 -482.985,27.768 -636.753,82.86c-77.762,27.861 -136.732,61.747 -171.433,99.03c-24.544,26.371 -37.461,54.704 -38.026,84.015c-0.565,29.311 11.251,58.12 34.761,85.417c33.239,38.592 90.86,74.725 167.491,105.561c151.531,60.976 378.677,102.428 633.087,107.331c254.411,4.903 482.985,-27.768 636.753,-82.86c77.763,-27.861 136.732,-61.747 171.433,-99.03c24.545,-26.371 37.462,-54.703 38.027,-84.015c0.825,-42.827 -27.988,-87.904 -81.116,-128.378c-47.69,-36.33 -115.101,-69.677 -195.179,-95.7c-8.1,-2.632 -8.955,-7.755 -10.241,-13.925c-2.305,-11.063 -4.537,-24.248 -13.39,-39.227c-5.105,-8.638 -12.401,-17.885 -23.338,-27.554c-16.21,-14.33 -56.938,-29.874 -99.833,-39.516c-39.971,-8.986 -81.613,-13.022 -105.729,-8.425c-22.719,4.33 -39.135,15.067 -53.73,27.341c-12.758,10.73 -23.733,22.906 -38.141,30.591c-9.204,4.909 -20.018,7.614 -34.201,6.323c-29.48,-2.682 -59.559,-4.87 -90.147,-6.529c-29.649,-1.609 -59.775,-2.722 -90.295,-3.31l0,0Zm-0.642,33.327c30.126,0.581 59.864,1.679 89.132,3.267c30.175,1.637 59.849,3.795 88.931,6.442c21.965,1.998 38.654,-2.506 52.909,-10.109c13.569,-7.237 24.785,-17.559 36.377,-27.922c12.606,-11.268 25.71,-22.801 46.048,-26.677c21.042,-4.011 57.303,0.363 92.178,8.202c36.305,8.161 71.346,19.841 85.065,31.969c21.141,18.689 23.397,35.03 25.952,47.53c1.637,8.011 3.599,14.967 7.209,20.936c4.735,7.83 11.978,14.546 25.584,18.968c75.963,24.685 140.042,56.05 185.281,90.514c42.659,32.498 68.651,66.831 67.989,101.22c-0.547,28.359 -17.928,54.661 -47.508,79.209c-47.677,39.564 -126.101,73.358 -225.75,99.379c-144.531,37.74 -333.164,58.598 -538.985,54.632c-205.821,-3.967 -393.511,-32.076 -536.48,-75.357c-98.574,-29.841 -175.638,-66.631 -221.754,-108.003c-28.612,-25.669 -44.968,-52.622 -44.421,-80.98c0.546,-28.359 17.928,-54.661 47.508,-79.208c47.676,-39.565 126.1,-73.359 225.75,-99.38c144.531,-37.74 333.164,-58.598 538.985,-54.632l-0,0Z" style="fill:#7e4021;"/><path d="M1404.75,69.403c45.185,7.922 79.491,27.919 76.562,44.627c-2.93,16.708 -41.993,23.841 -87.178,15.918c-45.185,-7.923 -79.491,-27.92 -76.562,-44.628c2.93,-16.708 41.993,-23.84 87.178,-15.917Z" style="fill:#7e4021;"/><path d="M1022.84,166.832c-200.696,-3.868 -381.476,16.111 -505.809,50.724c-63.928,17.797 -113.271,39.705 -143.682,63.91c-25.689,20.446 -38.671,43.157 -39.117,66.309c-0.447,23.152 11.651,46.346 36.533,67.767c29.456,25.359 77.919,49.151 141.114,69.398c122.906,39.377 302.783,66.307 503.478,70.174c200.696,3.868 381.476,-16.112 505.809,-50.724c63.928,-17.797 113.271,-39.705 143.682,-63.91c25.689,-20.446 38.671,-43.157 39.117,-66.309c0.446,-23.152 -11.651,-46.346 -36.533,-67.767c-29.456,-25.359 -77.919,-49.152 -141.114,-69.398c-122.907,-39.377 -302.783,-66.307 -503.478,-70.174l-0,-0Zm-0.642,33.327c162.343,3.128 310.834,21.489 425.603,49.493c79.523,19.404 142.615,43.243 182.173,70.084c25.434,17.258 41.034,34.583 40.664,53.792c-0.37,19.21 -16.627,35.921 -42.707,52.186c-40.563,25.298 -104.526,46.688 -184.737,63.014c-115.763,23.562 -264.851,36.187 -427.195,33.059c-162.343,-3.129 -310.834,-21.489 -425.603,-49.493c-79.523,-19.404 -142.615,-43.243 -182.173,-70.085c-25.434,-17.257 -41.034,-34.582 -40.664,-53.792c0.37,-19.209 16.626,-35.92 42.706,-52.185c40.563,-25.298 104.526,-46.689 184.738,-63.014c115.763,-23.562 264.851,-36.188 427.194,-33.059l0.001,-0Z" style="fill:#7e4021;"/><path d="M1017.21,844.59c330.695,6.372 661.603,-28.719 790.99,-196.947c48.573,-63.154 29.364,-216.07 28.424,-292.648c-2.823,146.502 -374.387,258.327 -829.227,249.562c-454.841,-8.765 -821.821,-134.822 -818.998,-281.324c-8.578,57.667 -20.723,223.044 16.766,279.84c118.228,179.116 466.708,234.862 812.045,241.517Z" style="fill:#ffe6d8;"/><path d="M1016.89,861.253c178.867,3.447 357.786,-5.251 505.379,-40.133c130.769,-30.906 237.137,-82.697 299.144,-163.316c17.238,-22.414 27.21,-54.954 32.082,-91.808c9.394,-71.06 0.439,-158.804 -0.204,-211.205c-0.112,-9.102 -7.505,-16.43 -16.607,-16.462c-9.103,-0.032 -16.547,7.245 -16.722,16.345c-0.547,28.359 -17.928,54.661 -47.508,79.209c-47.677,39.564 -126.101,73.358 -225.75,99.379c-144.531,37.74 -333.164,58.598 -538.985,54.632c-205.821,-3.967 -393.511,-32.076 -536.48,-75.357c-98.574,-29.841 -175.638,-66.631 -221.754,-108.003c-28.612,-25.669 -44.968,-52.622 -44.421,-80.98c0.169,-8.788 -6.515,-16.197 -15.274,-16.93c-8.759,-0.733 -16.582,5.463 -17.875,14.157c-5.158,34.675 -11.584,107.546 -8.145,173.378c2.528,48.39 10.916,92.993 27.486,118.096c57.118,86.532 165.702,146.061 302.164,184.724c151.686,42.976 338.02,60.7 523.469,64.274l0.001,0Zm0.642,-33.327c-182.449,-3.516 -365.795,-20.738 -515.026,-63.018c-127.55,-36.138 -230.043,-90.134 -283.43,-171.016c-14.19,-21.497 -19.853,-60.034 -22.018,-101.472c-1.658,-31.747 -0.933,-65.196 0.829,-94.861c2.67,3.614 5.541,7.205 8.611,10.77c33.239,38.592 90.86,74.725 167.491,105.561c151.531,60.976 378.677,102.428 633.087,107.331c254.411,4.903 482.985,-27.768 636.753,-82.86c77.763,-27.861 136.732,-61.747 171.433,-99.03c2.738,-2.941 5.331,-5.907 7.778,-8.895c1.419,32.832 2.348,68.704 0.159,102.576c-2.694,41.694 -9.646,80.336 -28.209,104.47c-57.955,75.353 -158.161,122.311 -280.388,151.199c-145.161,34.307 -321.15,42.635 -497.07,39.245l-0,0Z" style="fill:#7e4021;"/></g></svg>