<?xml version="1.0" encoding="UTF-8" standalone="no"?><!DOCTYPE svg PUBLIC "-//W3C//DTD SVG 1.1//EN" "http://www.w3.org/Graphics/SVG/1.1/DTD/svg11.dtd"><svg width="100%" height="100%" viewBox="0 0 2412 5029" version="1.1" xmlns="http://www.w3.org/2000/svg" xmlns:xlink="http://www.w3.org/1999/xlink" xml:space="preserve" xmlns:serif="http://www.serif.com/" style="fill-rule:evenodd;clip-rule:evenodd;stroke-linejoin:round;stroke-miterlimit:2;"><g id="Coffee-to-go-04" serif:id="Coffee to go-04"><path d="M2234.43,2414.69c16.144,80.739 -220.012,2202.33 -314.548,2382.53c-57.252,109.126 -400.676,217.91 -713.548,214.527c-334.358,-3.614 -639.042,-126.292 -690.589,-221.991c-90.938,-168.832 -252.124,-1841.74 -336.308,-2373.51c132.712,43.747 321.696,84.028 447.617,93.604c392.704,29.865 992.543,31.151 1361.77,-33.232c76.132,-13.275 168.539,-34.49 245.605,-61.918Z" style="fill:#d9905f;"/><path d="M2250.77,2411.42c-0.949,-4.745 -3.914,-8.843 -8.123,-11.23c-4.21,-2.387 -9.25,-2.826 -13.809,-1.203c-76.208,27.122 -167.594,48.073 -242.879,61.2c-368.108,64.187 -966.131,62.807 -1357.64,33.033c-124.811,-9.492 -312.121,-49.454 -443.663,-92.815c-5.519,-1.82 -11.588,-0.633 -16.015,3.132c-4.427,3.764 -6.573,9.563 -5.665,15.303c58.922,372.2 155.564,1303.48 239.438,1886.65c36.369,252.875 71.06,440.919 98.659,492.159c16.511,30.653 56.757,64.611 115.475,96.24c130.037,70.043 352.429,131.949 589.607,134.513c221.812,2.398 458.748,-51.058 600.858,-121.143c64.163,-31.643 109.303,-67.377 127.629,-102.307c38.056,-72.537 99.683,-457.543 157.974,-898.8c69.553,-526.507 135.422,-1133.36 154.027,-1379.86c4.838,-64.098 6.147,-104.787 4.131,-114.872Zm-32.115,26.294c-0.457,18.331 -2.353,47.624 -5.255,86.07c-18.58,246.169 -84.375,852.208 -153.834,1378.01c-57.553,435.666 -116.872,816.061 -154.446,887.679c-16.026,30.547 -56.743,60.225 -112.854,87.897c-138.52,68.315 -369.546,120.045 -585.755,117.708c-230.924,-2.497 -447.552,-62.333 -574.159,-130.529c-51.275,-27.619 -87.518,-55.933 -101.936,-82.701c-26.964,-50.059 -59.481,-234.046 -95.012,-481.096c-81.957,-569.841 -176.112,-1471.97 -235.364,-1860.43c131.717,40.849 306.681,77.086 425.747,86.141c393.895,29.955 995.551,31.146 1365.9,-33.432c70.061,-12.216 153.748,-31.107 226.97,-55.311l0,-0Z" style="fill:#7e4021;"/><path d="M1385.71,4112.43c-14.117,5.583 -28.59,15.8 -49.581,35.787c-19.317,18.394 -38.313,37.125 -57.367,55.79c-14.946,14.642 -110.159,103.744 -146.051,148.808c-7.492,9.407 -12.606,17.345 -14.867,22.783c-2.339,5.628 -2.564,10.34 -2.017,13.728c0.802,4.959 4.922,13.956 12.966,25.241c14.061,19.724 40.935,50.494 71.767,83.418c52.379,55.935 116.199,118.213 146.751,142.884c10.216,8.251 18.085,12.692 21.813,13.728c35.066,9.746 174.687,21.561 220.326,11.248c3.091,-0.699 8.72,-3.154 15.991,-7.948c11.637,-7.674 30.334,-22.305 52.438,-40.894c50.563,-42.522 119.432,-106.001 161.778,-152.196c19.523,-21.298 33.522,-39.399 38.76,-50.637c1.608,-3.449 2.64,-8.357 1.017,-14.672c-1.82,-7.077 -9.957,-20.725 -23.652,-37.899c-41.033,-51.455 -133.369,-144.335 -200.416,-197.886c-31.462,-25.128 -58.431,-41.368 -73.109,-43.727c-39.406,-6.335 -81.952,-12.508 -116.296,-13.848c-25.379,-0.989 -46.67,0.921 -60.251,6.292Zm439.767,292.616c-5.735,9.34 -16.608,22.2 -30.391,37.236c-41.524,45.298 -109.081,107.514 -158.662,149.21c-25.216,21.206 -53.465,40.877 -55.082,42c-42.648,9.171 -168.644,-1.831 -202.367,-10.765c-1.634,-1.171 -12.843,-9.287 -22.999,-18.174c-32.72,-28.633 -86.175,-81.392 -131.086,-129.352c-29.588,-31.597 -55.46,-61.054 -68.954,-79.983c-2.211,-3.102 -4.35,-6.651 -5.738,-9.07c3.763,-5.342 13.748,-19.176 23.778,-30.375c41.817,-46.687 115.24,-115.345 128.112,-127.954c18.941,-18.556 37.825,-37.177 57.027,-55.462c16.63,-15.834 27.671,-24.507 38.854,-28.93c10.506,-4.155 27.06,-4.746 46.692,-3.981c33.169,1.294 74.249,7.333 112.305,13.45c11.783,1.895 32.342,16.692 57.597,36.863c65.277,52.136 155.209,142.527 195.158,192.622c6.853,8.594 12.935,18.094 15.756,22.665Z" style="fill:#7e4021;"/><path d="M2086.96,2984.48c-2.542,10.662 -8.869,26.269 -17.285,44.849c-25.354,55.976 -70.179,136.135 -104.311,191.197c-17.359,28.004 -38.078,55.493 -39.265,57.064c-37.692,22.007 -160.955,50.804 -195.715,52.789c-1.444,-0.423 -9.765,-2.908 -17.476,-5.986c-27.266,-10.885 -73.418,-32.993 -120.554,-57.357c-8.172,-4.224 -18.235,-1.019 -22.459,7.153c-4.224,8.171 -1.019,18.235 7.153,22.458c48.28,24.956 95.574,47.555 123.502,58.704c15.189,6.063 26.121,8.575 30.454,8.377c36.357,-1.658 172.715,-33.906 212.874,-57.919c2.72,-1.626 7.305,-5.711 12.721,-12.531c8.67,-10.916 21.881,-30.643 37.097,-55.189c34.808,-56.154 80.487,-137.922 106.343,-195.007c11.92,-26.317 19.586,-47.878 21.065,-60.188c0.454,-3.779 -0.094,-8.764 -3.603,-14.259c-3.933,-6.159 -15.915,-16.595 -34.277,-28.65c-55.015,-36.12 -171.683,-95.63 -252.072,-125.639c-37.722,-14.082 -68.407,-21.117 -83.091,-18.789c-39.418,6.251 -81.771,13.633 -114.825,23.055c-24.426,6.962 -44.063,15.407 -55.297,24.74c-11.676,9.702 -22.248,23.917 -35.971,49.447c-12.629,23.494 -24.849,47.209 -37.143,70.88c-8.403,16.178 -57.306,105.318 -82.815,163.394c-3.699,8.422 0.136,18.263 8.558,21.962c8.422,3.699 18.263,-0.135 21.962,-8.557c25.206,-57.388 73.573,-145.449 81.876,-161.435c12.222,-23.531 24.368,-47.106 36.922,-70.462c10.872,-20.225 18.663,-31.905 27.914,-39.59c8.689,-7.22 24.236,-12.937 43.131,-18.322c31.922,-9.099 72.84,-16.153 110.909,-22.19c11.787,-1.869 35.932,5.791 66.212,17.095c78.266,29.217 191.874,87.11 245.436,122.275c9.188,6.033 17.926,13.167 22.03,16.631Z" style="fill:#7e4021;"/><path d="M1051.11,3401.28c-1.396,15.117 1.18,32.644 9.528,60.4c7.683,25.543 15.812,50.953 23.856,76.384c6.31,19.948 42.788,145.144 66.777,197.523c5.007,10.934 9.779,19.083 13.609,23.556c3.964,4.63 8.067,6.959 11.336,8.001c4.786,1.526 14.674,1.915 28.376,-0.164c23.949,-3.634 63.54,-13.708 106.842,-26.34c73.565,-21.46 157.957,-50.262 193.769,-66.372c11.976,-5.388 19.493,-10.402 22.101,-13.259c24.537,-26.881 98.153,-146.104 109.571,-191.48c0.773,-3.073 1.126,-9.204 0.133,-17.856c-1.588,-13.849 -6.195,-37.14 -12.793,-65.256c-15.093,-64.32 -40.612,-154.438 -62.694,-213.086c-10.181,-27.038 -20.005,-47.705 -27.665,-57.455c-2.351,-2.993 -6.263,-6.131 -12.63,-7.535c-7.136,-1.574 -22.988,-0.481 -44.496,3.979c-64.443,13.361 -189.019,53.778 -267.082,89.401c-36.631,16.716 -63.303,33.439 -72.04,45.469c-23.452,32.293 -48.181,67.461 -64.892,97.496c-12.348,22.194 -20.262,42.051 -21.606,56.594Zm459.725,-260.139c5.741,9.336 12.303,24.846 19.49,43.935c21.653,57.509 46.638,145.886 61.438,208.956c7.527,32.076 12.314,66.165 12.586,68.115c-11.085,42.191 -77.821,149.627 -101.026,175.676c-1.784,0.928 -14.087,7.262 -26.604,12.308c-40.327,16.255 -111.544,40.109 -174.62,58.509c-41.555,12.123 -79.524,21.897 -102.507,25.384c-3.766,0.571 -7.898,0.876 -10.684,1.021c-3.066,-5.77 -10.897,-20.928 -16.356,-34.936c-22.76,-58.397 -50.842,-154.918 -56.277,-172.098c-7.996,-25.281 -16.078,-50.54 -23.716,-75.932c-6.614,-21.989 -9.363,-35.757 -8.257,-47.732c1.039,-11.25 7.99,-26.286 17.543,-43.455c16.139,-29.006 40.085,-62.927 62.734,-94.115c7.013,-9.656 29.503,-21.312 58.907,-34.731c76.002,-34.682 197.271,-74.079 260.011,-87.087c10.763,-2.232 21.986,-3.366 27.338,-3.818Z" style="fill:#7e4021;"/><path d="M1064.83,3324.55c14.784,-3.45 30.6,-11.43 54.298,-28.119c21.809,-15.358 43.349,-31.096 64.937,-46.762c16.934,-12.288 124.198,-86.444 166.318,-125.749c8.792,-8.205 15.017,-15.307 18.051,-20.353c3.141,-5.224 4.055,-9.852 4.011,-13.284c-0.064,-5.023 -2.819,-14.527 -9.119,-26.871c-11.012,-21.575 -33.077,-55.957 -58.74,-93.052c-43.599,-63.02 -97.583,-133.993 -124.18,-162.883c-8.895,-9.661 -16.027,-15.21 -19.561,-16.782c-33.256,-14.789 -169.628,-46.977 -216.287,-43.477c-3.16,0.237 -9.088,1.839 -16.984,5.514c-12.639,5.881 -33.282,17.609 -57.875,32.75c-56.259,34.638 -133.702,87.316 -182.372,126.793c-22.439,18.2 -38.944,34.05 -45.775,44.396c-2.097,3.176 -3.839,7.88 -3.16,14.364c0.76,7.268 6.805,21.963 17.83,40.962c33.033,56.922 110.73,162.353 169.188,225.168c27.431,29.475 51.723,49.499 65.896,53.989c38.048,12.051 79.227,24.405 113.002,30.773c24.959,4.706 46.299,5.942 60.522,2.623l0,0Zm81.591,-503.777c1.443,1.399 11.34,11.072 20.081,21.354c28.161,33.128 73.289,93.164 110.671,147.198c24.628,35.599 45.895,68.536 56.463,89.241c1.732,3.393 3.326,7.217 4.344,9.814c-4.506,4.732 -16.414,16.95 -27.981,26.555c-48.218,40.04 -130.927,97.173 -145.511,107.756c-21.46,15.573 -42.873,31.219 -64.553,46.487c-18.773,13.221 -30.968,20.178 -42.68,22.911l-0,0c-11.002,2.568 -27.464,0.722 -46.771,-2.918c-32.619,-6.15 -72.367,-18.156 -109.112,-29.795c-11.378,-3.603 -29.541,-21.259 -51.56,-44.92c-56.914,-61.155 -132.599,-163.771 -164.759,-219.19c-5.517,-9.507 -10.139,-19.797 -12.258,-24.732c7.045,-8.397 19.688,-19.522 35.53,-32.371c47.724,-38.71 123.685,-90.332 178.85,-124.296c28.057,-17.273 58.888,-32.583 60.653,-33.456c43.532,-2.81 166.547,26.573 198.593,40.362Z" style="fill:#7e4021;"/><path d="M1577.01,4361.91c-1.971,2.846 -4.794,6.763 -7.294,9.709c-8.812,10.386 -19.358,20.914 -22.158,23.865c-37.652,39.665 -81.437,72.794 -114.598,116.662c-5.547,7.338 -4.092,17.799 3.246,23.345c7.338,5.547 17.798,4.093 23.345,-3.245c32.406,-42.869 75.389,-75.052 112.183,-113.814c4.581,-4.826 27.718,-28.204 35.834,-42.016c4.744,-8.072 5.374,-15.295 4.432,-19.604c-0.834,-3.814 -5.258,-11.94 -13.481,-21.64c-22.803,-26.895 -77.06,-78.245 -86.899,-88.254c-0.363,-0.369 -45.683,-37.83 -54.467,-45.541l-0.398,-0.355c-5.95,-6.232 -15.805,-6.922 -22.586,-1.375c-0.523,0.428 -12.025,15.353 0.994,26.781c8.481,7.445 52.335,43.501 52.686,43.858c8.481,8.628 50.504,48.408 75.924,75.971c5.072,5.5 10.144,11.742 13.237,15.653Zm-115.721,-147.6c-0.445,4.209 -2.484,8.249 -6.014,11.137c3.251,-2.66 5.509,-6.244 6.014,-11.137Zm-1.421,-8.723c1.255,2.728 1.723,5.702 1.436,8.601l0.011,-0.1c0.171,-1.843 0.281,-4.856 -1.447,-8.501Z" style="fill:#7e4021;"/><path d="M1837.42,3020.85c-0.986,3.319 -2.449,7.92 -3.907,11.498c-5.14,12.614 -11.884,25.903 -13.626,29.578c-23.428,49.418 -54.721,94.534 -72.572,146.546c-2.986,8.701 1.653,18.189 10.353,21.175c8.701,2.986 18.189,-1.653 21.175,-10.354c17.445,-50.828 48.27,-94.795 71.164,-143.088c2.85,-6.012 17.558,-35.433 20.969,-51.085c1.994,-9.148 0.344,-16.209 -1.892,-20.009c-1.98,-3.365 -8.715,-9.71 -19.55,-16.366c-30.043,-18.458 -97.594,-50.36 -110.06,-56.807c-0.46,-0.238 -55.192,-21.725 -65.94,-26.317l-0.489,-0.214c-7.594,-4.069 -17.174,-1.656 -21.891,5.727c-0.364,0.57 -6.646,18.334 9.284,25.14c10.378,4.434 63.279,25.042 63.723,25.271c10.747,5.559 63.067,30.275 95.807,48.553c6.532,3.646 13.295,7.999 17.452,10.752Zm-155.928,-104.227c0.887,4.138 0.208,8.612 -2.248,12.457c2.262,-3.54 3.291,-7.65 2.248,-12.457Zm-4.067,-7.847c2.042,2.202 3.413,4.883 4.043,7.727l-0.02,-0.099c-0.412,-1.804 -1.246,-4.702 -4.023,-7.628Z" style="fill:#7e4021;"/><path d="M1162.24,3377.92c-8.248,2.492 -13.316,10.973 -11.43,19.528c0.145,0.66 8.264,17.664 24.341,11.212c10.474,-4.203 62.452,-27.038 62.929,-27.19c11.529,-3.668 66.002,-23.187 102.077,-33.413c7.198,-2.041 15.057,-3.746 19.944,-4.738c1.649,3.044 3.868,7.332 5.367,10.893c5.285,12.554 9.913,26.719 11.28,30.55c18.378,51.51 28.152,105.539 52.308,154.94c4.04,8.264 14.03,11.692 22.293,7.652c8.264,-4.041 11.692,-14.03 7.652,-22.294c-23.606,-48.277 -32.899,-101.162 -50.858,-151.499c-2.236,-6.267 -12.64,-37.471 -21.295,-50.951c-5.059,-7.878 -11.218,-11.704 -15.487,-12.81c-3.78,-0.979 -13.028,-0.703 -25.397,2.251c-34.295,8.193 -104.618,33.4 -117.992,37.656c-0.494,0.157 -54.388,23.665 -65.236,28.018l-0.496,0.195Zm13.904,1.957c3.553,2.299 6.236,5.943 7.218,10.398c-0.904,-4.103 -3.082,-7.736 -7.218,-10.398Zm-8.425,-2.673c3.001,0.113 5.866,1.04 8.322,2.605l-0.084,-0.055c-1.567,-0.985 -4.205,-2.444 -8.238,-2.55Z" style="fill:#7e4021;"/><path d="M1007.56,3226.49c4.97,7.038 14.617,9.167 22.139,4.676c0.581,-0.347 14.149,-13.421 2.95,-26.637c-7.297,-8.61 -45.381,-50.714 -45.676,-51.118c-7.122,-9.781 -42.848,-55.299 -63.946,-86.297c-4.209,-6.184 -8.31,-13.103 -10.795,-17.426c2.367,-2.526 5.735,-5.987 8.64,-8.534c10.242,-8.979 22.22,-17.845 25.423,-20.351c43.067,-33.708 91.243,-60.048 130.485,-98.572c6.564,-6.443 6.662,-17.005 0.218,-23.569c-6.444,-6.564 -17.005,-6.662 -23.569,-0.218c-38.349,37.647 -85.592,63.169 -127.679,96.109c-5.239,4.101 -31.559,23.828 -41.615,36.298c-5.877,7.289 -7.561,14.341 -7.262,18.741c0.264,3.895 3.447,12.583 10.158,23.385c18.606,29.952 64.735,88.712 72.998,100.057c0.305,0.419 39.633,44.129 47.19,53.046l0.341,0.41Zm-2.566,-13.692l-0.027,0.097c-0.439,1.798 -0.99,4.762 0.184,8.622c-0.841,-2.883 -0.867,-5.894 -0.157,-8.719Zm0.032,-0.119c1.058,-4.097 3.668,-7.794 7.585,-10.133c-3.607,2.154 -6.367,5.368 -7.585,10.133Z" style="fill:#7e4021;"/><path d="M1594.19,4376.54c11.346,1.081 30.613,2.709 41.14,6.689c26.251,9.925 53.454,19.201 80.648,26.203c8.908,2.294 18.002,-3.076 20.296,-11.984c2.294,-8.908 -3.076,-18.003 -11.984,-20.297c-26.024,-6.701 -52.05,-15.603 -77.172,-25.101c-12.759,-4.824 -36.014,-7.382 -49.766,-8.693c-9.157,-0.872 -17.3,5.854 -18.172,15.011c-0.873,9.157 5.853,17.3 15.01,18.172Z" style="fill:#7e4021;"/><path d="M1858.3,3029.41c11.118,-2.506 29.934,-6.959 41.177,-6.455c28.037,1.257 56.776,1.601 84.798,-0.213c9.179,-0.594 16.149,-8.529 15.555,-17.708c-0.594,-9.179 -8.529,-16.149 -17.708,-15.555c-26.817,1.736 -54.321,1.379 -81.152,0.176c-13.627,-0.61 -36.522,4.2 -49.998,7.237c-8.974,2.022 -14.617,10.949 -12.595,19.923c2.022,8.973 10.949,14.617 19.923,12.595Z" style="fill:#7e4021;"/><path d="M1339.83,1446.69c-0,0 -27.377,-71.005 -112.028,-79.796c-84.007,-8.724 -116.912,59.512 -116.912,59.512l-279.411,3153.63c0,0 28.461,71.241 112.274,77.176c76.222,5.397 116.666,-56.892 116.666,-56.892l279.411,-3153.63Z" style="fill:#c48464;"/><path d="M1356.43,1448.16c0.225,-2.536 -0.134,-5.091 -1.05,-7.467c-0,0 -30.495,-80.474 -125.857,-90.378c-96.27,-9.997 -133.646,68.851 -133.646,68.851c-0.874,1.811 -1.412,3.765 -1.59,5.768l-279.41,3153.63c-0.231,2.604 0.154,5.226 1.124,7.654c-0,0 31.872,80.912 126.574,87.618c86.164,6.101 131.821,-64.441 131.821,-64.441c1.483,-2.283 2.383,-4.894 2.624,-7.605l279.41,-3153.63Zm-33.584,1.356c-11.228,126.734 -267.113,3014.83 -278.629,3144.8c-8.682,11.395 -42.648,50.272 -99.288,46.262c-62.783,-4.446 -90.08,-50.7 -96.459,-63.479c11.39,-128.56 268.63,-3031.95 278.716,-3145.79c6.262,-10.709 35.862,-54.39 98.894,-47.845c63.808,6.627 90.617,53.362 96.766,66.046l0,0Z" style="fill:#7e4021;"/><path d="M1380.92,3334.6c6.09,-9.633 16.247,-26.087 24.553,-33.68c20.714,-18.937 41.278,-39.015 59.81,-60.112c6.071,-6.911 5.389,-17.45 -1.522,-23.521c-6.911,-6.071 -17.451,-5.388 -23.521,1.523c-17.735,20.189 -37.435,39.385 -57.258,57.507c-10.068,9.204 -22.856,28.795 -30.237,40.471c-4.916,7.776 -2.594,18.079 5.182,22.994c7.775,4.915 18.078,2.593 22.993,-5.182Z" style="fill:#7e4021;"/><path d="M897.39,3032.69c-11.064,-2.735 -29.884,-7.174 -39.712,-12.657c-24.51,-13.671 -50.056,-26.841 -75.926,-37.76c-8.475,-3.577 -18.259,0.399 -21.836,8.874c-3.577,8.475 0.399,18.259 8.874,21.836c24.758,10.45 49.194,23.077 72.649,36.161c11.913,6.645 34.54,12.59 47.951,15.906c8.929,2.207 17.971,-3.25 20.179,-12.18c2.208,-8.93 -3.25,-17.972 -12.179,-20.18Z" style="fill:#7e4021;"/><path d="M1850.78,4113.74c4.104,-0.591 7.841,-2.691 10.48,-5.888c17.342,-21.015 53.625,-41.806 82.153,-65.071c22.733,-18.539 40.651,-38.871 46.084,-60.498c4.934,-19.644 3.727,-42.771 -0.359,-66.56c-5.474,-31.863 -16.083,-65.056 -19.942,-91.095c-4.417,-29.81 -2.76,-73.765 -7.49,-113.183c-3.55,-29.577 -10.846,-56.701 -24.889,-75.512c-5.646,-7.564 -15.954,-14.551 -30.62,-19.692c-17.173,-6.018 -41.211,-10.152 -69.073,-12.435c-72.592,-5.95 -172.131,0.222 -238.942,12.484c-30.631,5.621 -54.715,12.825 -67.459,20.326c-44.983,26.473 -71.843,53.246 -87.507,81.686c-15.957,28.973 -20.517,59.923 -19.435,95.067c1.318,42.827 11.229,92.365 15.912,153.12c1.753,22.73 -1.002,76.233 7.07,115.041c4.263,20.493 11.924,37.226 22.687,46.65c3.057,2.678 7.64,5.293 13.889,7.218c9.067,2.792 23.181,4.566 40.853,5.202c91.112,3.278 286.33,-21.064 326.588,-26.86Zm-10.756,-32.15c-43.565,5.998 -184.921,23.321 -277.473,25.714c-24.116,0.623 -44.793,0.263 -59.23,-1.717c-5.043,-0.691 -11.33,-2.573 -12.341,-2.883c-3.58,-3.362 -5.952,-8.59 -8.03,-14.658c-2.901,-8.468 -4.791,-18.471 -6.111,-29.052c-4.38,-35.114 -2.449,-76.101 -3.911,-95.067c-4.637,-60.149 -14.525,-109.184 -15.83,-151.583c-0.885,-28.776 2.25,-54.238 15.316,-77.961c13.36,-24.256 36.851,-46.461 75.216,-69.04c10.647,-6.266 30.978,-11.571 56.569,-16.268c64.367,-11.813 160.265,-17.78 230.202,-12.047c24.495,2.007 45.674,5.38 60.771,10.671c6.859,2.404 12.293,4.637 14.934,8.174c11.013,14.752 15.72,36.348 18.504,59.544c4.768,39.738 3.16,84.046 7.613,114.097c3.273,22.086 11.259,49.24 17.068,76.442c5.163,24.175 8.859,48.374 3.877,68.206c-5.09,20.261 -26.85,37.289 -49.477,54.155c-24.789,18.478 -51.363,36.032 -67.667,53.273Z" style="fill:#7e4021;"/><path d="M787.202,3161.65c-5.023,-4.135 -14.116,-8.565 -26.172,-12.206c-22.837,-6.897 -57.907,-12.24 -89.839,-13.386c-18.764,-0.673 -36.466,0.121 -50.162,2.695c-11.515,2.163 -20.615,5.811 -26.53,10.241c-10.468,7.84 -76.622,77.293 -105.234,112.335c-19.223,23.541 -51.456,54.917 -76.334,87.391c-18.251,23.824 -32.477,48.411 -36.862,71.14c-1.788,9.268 -0.01,21.593 6.068,35.896c7.117,16.747 20.252,37.3 37.329,59.433c44.493,57.666 116.096,127.086 170.157,168.214c24.785,18.855 46.331,31.805 60.459,36.174c49.39,15.274 85.712,19.16 115.284,14.524c35.851,-5.621 62.486,-23.45 90.001,-51.053c24.857,-24.937 50.752,-58.287 87.24,-97.07c15.608,-16.59 63.302,-61.142 90.308,-99.59c13.882,-19.764 22.065,-38.68 21.79,-52.591c-0.08,-4.064 -1.234,-9.213 -4.02,-15.128c-4.042,-8.582 -12.237,-20.21 -23.669,-33.701c-58.942,-69.557 -208.416,-197.463 -239.814,-223.318Zm234.171,273.392c-0.092,3.794 -1.792,8.101 -4.082,12.894c-5.111,10.695 -13.627,22.684 -23.452,34.856c-26.526,32.863 -62.516,66.534 -75.51,80.345c-36.218,38.497 -61.896,71.626 -86.57,96.378c-22.017,22.088 -42.869,37.157 -71.557,41.655c-25.747,4.037 -57.269,-0.14 -100.272,-13.438c-11.803,-3.65 -29.418,-15.106 -50.125,-30.858c-52.084,-39.623 -121.082,-106.49 -163.948,-162.047c-15.013,-19.458 -26.785,-37.385 -33.042,-52.108c-2.842,-6.689 -4.852,-12.21 -4.016,-16.545c3.549,-18.396 15.82,-37.899 30.593,-57.183c24.657,-32.185 56.641,-63.248 75.692,-86.58c27.112,-33.204 89.478,-99.308 99.397,-106.737c2.781,-2.082 7.291,-3.144 12.703,-4.161c11.686,-2.196 26.8,-2.718 42.811,-2.143c24.918,0.895 51.945,4.522 72.25,9.501c10.967,2.69 19.757,5.209 23.768,8.512c27.039,22.265 143.104,121.365 210.556,191.656c16.703,17.406 30.363,32.932 38.623,44.937c2.886,4.195 5.73,10.112 6.181,11.066Z" style="fill:#7e4021;"/><path d="M1863.87,3950.53c6.308,0.959 12.885,-1.772 16.544,-7.49c3.243,-5.068 3.205,-9.856 1.875,-14.077c-1.064,-3.375 -3.821,-9.479 -12.576,-11.404c-2.8,-0.616 -20.242,0.902 -21.058,1.045c-19.342,3.385 -38.585,7.652 -57.788,11.736c-13.842,2.944 -119.292,34.717 -151.519,42.431c-0.957,-1.328 -1.989,-2.846 -2.803,-4.249c-5.886,-10.148 -12.347,-25.285 -19.105,-43.215c-27.709,-73.527 -59.094,-192.062 -69.01,-222.952c-2.811,-8.758 -12.205,-13.586 -20.963,-10.775c-8.758,2.812 -13.586,12.205 -10.775,20.963c11.454,35.68 51.386,187.013 81.575,253.962c6.011,13.331 11.855,23.626 16.962,29.853c3.615,4.408 7.259,7.323 10.499,9.047c1.243,0.661 7.022,2.908 16.281,0.948c25.754,-5.453 141.259,-40.318 155.792,-43.409c18.809,-4 37.655,-8.19 56.6,-11.506c0.312,-0.055 6.82,-0.662 9.469,-0.908Zm-12.478,-9.181c-2.45,-5.047 -2.296,-11.211 0.946,-16.277c-3.843,6.005 -3.573,11.425 -0.946,16.277Z" style="fill:#7e4021;"/><path d="M825.299,3410.86c-0.371,1.172 -0.827,2.485 -1.301,3.56c-4.144,9.406 -11.995,21.495 -21.865,35.152c-41.971,58.074 -118.844,141.191 -135.186,169.652c-4.581,7.977 -1.823,18.172 6.154,22.753c7.977,4.58 18.172,1.822 22.753,-6.155c16.081,-28.006 91.995,-109.579 133.295,-166.725c13.713,-18.974 23.751,-35.647 27.78,-47.396c2.901,-8.458 3.092,-15.523 1.765,-20.721c-0.283,-1.112 -2.091,-5.786 -7.613,-11.455c-19.167,-19.678 -111.676,-102.829 -123.963,-111.643c-15.626,-11.209 -31.416,-22.318 -46.626,-34.088c-7.275,-5.63 -17.751,-4.294 -23.381,2.98c-5.629,7.275 -4.294,17.752 2.981,23.381c15.529,12.017 31.643,23.368 47.596,34.812c11.49,8.242 95.602,83.95 117.611,105.893Z" style="fill:#7e4021;"/><path d="M1614.29,3987.52c-3.29,2.341 -8.546,6.037 -10.734,7.404c-11.031,6.892 -22.529,12.97 -33.989,19.105c-8.109,4.342 -11.168,14.451 -6.826,22.561c4.342,8.109 14.451,11.168 22.56,6.826c12.115,-6.487 24.257,-12.937 35.918,-20.224c5.496,-3.434 18.966,-13.4 20.507,-15.324c6.757,-8.44 3.313,-15.93 1.477,-19.068c-1.028,-1.756 -8.123,-12.98 -22.581,-6.356c-2.587,1.186 -4.726,2.952 -6.332,5.076Zm18.404,25.931l-0.39,0.122l0.163,-0.044l0.227,-0.078Zm0.899,-0.319l-0.391,0.144l0.261,-0.09l0.13,-0.054Z" style="fill:#7e4021;"/><path d="M842.999,3427.08c12.651,3.547 47.523,5.223 59.901,9.605c8.671,3.07 18.204,-1.478 21.274,-10.149c3.07,-8.671 -1.478,-18.203 -10.149,-21.273c-12.829,-4.542 -48.915,-6.603 -62.027,-10.279c-8.857,-2.483 -18.064,2.691 -20.547,11.548c-2.484,8.857 2.691,18.064 11.548,20.548Z" style="fill:#7e4021;"/><path d="M1071.95,3689.03c-25.381,-5.659 -153.739,-20.923 -214.093,-16.511c-12.424,0.908 -22.356,2.766 -28.803,5.278c-4.972,1.938 -8.605,4.454 -11.092,7.009c-31.189,32.035 -92.582,163.57 -126.067,249.163c-15.213,38.886 -24.288,69.027 -24.132,77.71c0.06,3.402 0.976,7.591 3.413,12.243c2.791,5.33 8.368,12.383 16.269,20.307c37.004,37.114 130.667,102.051 148.206,114.685c64.515,46.472 91.05,69.52 129.784,78.182c25.953,5.804 57.552,5.203 109.994,-0.222c70.644,-7.307 105.542,-13.991 131.259,-33.354c25.399,-19.124 42.229,-51.402 74.584,-113.29c7.069,-13.52 44.941,-100.975 57.331,-144.213c4.268,-14.892 4.912,-26.176 3.581,-30.909c-3.003,-10.683 -12.209,-25.609 -23.652,-40.817c-14.807,-19.68 -33.202,-40.348 -41.274,-51.87c-5.502,-7.855 -33.745,-30.376 -68.535,-54.443c-50.745,-35.103 -115.241,-74.147 -136.773,-78.948Zm237.707,233.71c-0.61,2.8 -3.984,17.852 -8.457,30.971c-15.012,44.036 -43.533,109.724 -49.468,121.076c-28.885,55.25 -42.419,85.032 -65.094,102.104c-22.357,16.833 -53.225,20.474 -114.639,26.827c-47.34,4.896 -75.861,6.088 -99.289,0.848c-35.34,-7.903 -58.715,-30.3 -117.576,-72.699c-14.983,-10.792 -86.944,-60.571 -128.896,-97.127c-10.974,-9.564 -22.458,-22.709 -25.007,-25.677c1.175,-9.212 9.887,-32.739 21.706,-62.95c31.6,-80.774 88.079,-205.087 118.039,-237.132c1.221,-0.374 5.103,-1.521 8.235,-2.011c8.986,-1.408 21.004,-1.943 34.759,-1.933c62.616,0.045 159.446,11.783 180.726,16.528c19.801,4.415 78.397,41.545 125.063,73.827c30.151,20.857 55.43,39.348 60.199,46.155c8.209,11.719 26.878,32.77 41.938,52.785c7.983,10.609 15.11,20.666 17.761,28.408Z" style="fill:#7e4021;"/><path d="M1000.25,4750.82c22.807,-12.495 129.33,-85.717 171.77,-128.854c8.737,-8.881 14.974,-16.83 18.161,-22.972c2.458,-4.736 3.527,-9.024 3.711,-12.585c2.298,-44.651 -38.358,-183.998 -69.671,-270.409c-14.227,-39.258 -27.295,-67.894 -33.141,-74.316c-2.29,-2.517 -5.742,-5.06 -10.643,-6.948c-5.614,-2.163 -14.458,-3.783 -25.623,-4.525c-52.295,-3.473 -165.522,9.532 -187.038,11.611c-79.141,7.648 -114.288,7.837 -149.109,26.885c-23.332,12.763 -46.678,34.064 -82.506,72.742c-48.262,52.103 -70.076,80.152 -76.625,111.67c-6.467,31.129 2.184,66.488 18.706,134.341c3.61,14.824 32.856,105.528 52.074,146.194c6.619,14.006 13.58,22.91 17.703,25.589c9.306,6.046 26.071,11.187 44.705,15.065c24.111,5.017 51.57,8.411 65.238,11.743c9.318,2.272 45.4,0.56 87.422,-4.311c61.293,-7.104 135.519,-20.321 154.866,-30.92Zm67.407,-485.088c5.196,7.697 14.172,31.125 25.225,61.625c29.55,81.545 69.134,212.224 67.765,256.071c-0.67,1.087 -2.831,4.51 -4.861,6.946c-5.824,6.986 -14.501,15.318 -24.844,24.386c-47.08,41.281 -127.586,96.351 -146.708,106.826c-17.792,9.747 -86.322,20.509 -142.688,27.043c-36.418,4.221 -67.614,7.006 -75.689,5.037c-13.901,-3.389 -41.819,-6.889 -66.342,-11.992c-12.998,-2.705 -24.989,-5.56 -32.09,-9.629c-1.388,-2.506 -8.785,-16.043 -14.08,-28.852c-17.775,-42.995 -39.685,-111.173 -42.716,-123.619c-14.75,-60.575 -24.23,-91.885 -18.456,-119.674c5.693,-27.401 26.486,-50.504 68.443,-95.799c32.341,-34.915 52.986,-54.629 74.048,-66.15c31.77,-17.379 64.112,-15.972 136.318,-22.95c18.379,-1.777 105.298,-11.852 160.942,-12.063c14.557,-0.055 31.859,2.246 35.733,2.794Z" style="fill:#7e4021;"/><path d="M1003.23,4213.16l1.844,-5.215c11.558,-32.166 22.613,-64.446 33.34,-96.9c14.756,-44.644 21.516,-77.447 29.495,-102.984c6.839,-21.888 14.342,-37.786 31.201,-51.133c15.677,-12.412 38.64,-22.684 74.019,-34.086c8.755,-2.821 13.572,-12.22 10.75,-20.975c-2.821,-8.756 -12.22,-13.573 -20.975,-10.751c-40.523,13.06 -66.528,25.461 -84.485,39.678c-22.382,17.719 -33.246,38.266 -42.326,67.325c-7.939,25.408 -14.647,58.049 -29.328,102.465c-10.638,32.183 -21.6,64.193 -33.06,96.089c-0.238,0.663 -3.129,8.037 -3.882,12.322c-0.762,4.331 -0.173,7.882 0.55,10.065c2.169,6.556 6.675,9.981 12.158,11.361c8.921,2.246 17.986,-3.174 20.231,-12.094c0.437,-1.734 0.583,-3.474 0.468,-5.167Zm-4.329,-10.141c-2.173,-2.547 -5.005,-4.11 -8.233,-4.923c3.292,0.829 6.106,2.586 8.233,4.923Z" style="fill:#7e4021;"/><path d="M706.07,4311.63l2.055,5.136c12.538,31.796 25.53,63.346 38.883,94.812c18.368,43.282 34.933,72.391 45.787,96.846c9.303,20.96 14.155,37.856 10.293,59.009c-3.591,19.671 -14.068,42.54 -33.13,74.452c-4.717,7.897 -2.135,18.138 5.762,22.855c7.897,4.717 18.138,2.136 22.855,-5.761c21.833,-36.552 33.191,-63.029 37.304,-85.559c5.127,-28.084 -0.266,-50.692 -12.617,-78.519c-10.799,-24.33 -27.295,-53.283 -45.569,-96.345c-13.242,-31.202 -26.125,-62.488 -38.559,-94.018c-0.258,-0.655 -2.952,-8.104 -5.213,-11.821c-2.286,-3.757 -5.071,-6.037 -7.055,-7.2c-5.956,-3.495 -11.601,-3.095 -16.632,-0.515c-8.184,4.199 -11.421,14.252 -7.222,22.437c0.816,1.591 1.853,2.995 3.058,4.191Zm9.944,4.764c3.314,0.48 6.472,-0.214 9.434,-1.733c-3.02,1.549 -6.294,2.086 -9.434,1.733Z" style="fill:#7e4021;"/><path d="M1068.69,3938.05c-33.809,-17.264 -64.355,-49.858 -93.323,-73.983c-7.068,-5.887 -17.586,-4.928 -23.473,2.141c-5.886,7.068 -4.927,17.586 2.141,23.472c30.76,25.619 63.595,59.725 99.496,78.057c8.192,4.183 18.24,0.928 22.423,-7.265c4.183,-8.192 0.928,-18.239 -7.264,-22.422Z" style="fill:#7e4021;"/><path d="M838.407,4561.56c36.795,-9.335 81.255,-4.998 118.94,-5.982c9.195,-0.241 16.466,-7.901 16.225,-17.097c-0.24,-9.195 -7.9,-16.466 -17.096,-16.225c-40.017,1.045 -87.194,-2.918 -126.266,6.995c-8.917,2.262 -14.319,11.337 -12.057,20.253c2.262,8.916 11.338,14.318 20.254,12.056Z" style="fill:#7e4021;"/><path d="M298.517,2006.13c-76.441,14.68 -168.452,23.264 -211.711,82.81c-76.138,104.804 -78.268,221.824 -59.041,251.771c39.151,60.982 398.997,153.901 599.29,169.133c392.704,29.865 992.543,31.151 1361.77,-33.232c150.258,-26.2 363.911,-83.331 397.898,-158.102c15.923,-35.03 4.042,-105.342 -3.524,-140.2c-9.898,-45.603 -52.325,-107.043 -99.668,-128.563c-162.102,-73.682 -348.01,-58.988 -520.542,-73.438c-179.336,-15.021 -359.349,-23.826 -539.072,-32.865c-306.101,-15.393 -729.143,24.996 -925.401,62.686Z" style="fill:#f8a5b0;"/><path d="M295.373,1989.76c-46.817,8.99 -99.319,15.901 -143.397,32.993c-31.888,12.364 -59.487,30.005 -78.654,56.388c-55.934,76.993 -73.565,160.351 -72.336,214.167c0.595,26.021 5.924,45.767 12.754,56.405c5.674,8.839 16.593,18.62 32.421,28.341c20.361,12.505 49.517,25.713 84.634,38.816c133.068,49.652 353.487,98.828 494.996,109.59c393.895,29.955 995.551,31.146 1365.9,-33.432c106.78,-18.619 245.036,-52.83 330.25,-97.594c40.023,-21.024 68.614,-45.073 79.958,-70.03c7.227,-15.901 9.843,-38.144 9.306,-61.72c-0.734,-32.308 -7.009,-67.229 -11.716,-88.912c-10.808,-49.795 -57.364,-116.703 -109.058,-140.2c-163.845,-74.475 -351.661,-60.269 -526.048,-74.875c-179.52,-15.036 -359.718,-23.854 -539.626,-32.901c-307.418,-15.46 -732.279,25.112 -929.381,62.964l-0.001,-0Zm6.287,32.735c195.414,-37.528 616.637,-77.736 921.421,-62.408c179.539,9.029 359.367,17.822 538.518,32.827c170.677,14.296 354.677,-0.887 515.037,72.003c42.991,19.542 81.288,75.514 90.277,116.926c4.372,20.146 10.283,52.581 10.966,82.599c0.408,17.975 -0.817,35.044 -6.328,47.169c-4.513,9.928 -13.088,19.272 -24.409,28.406c-19.453,15.695 -46.684,30.185 -78.361,43.54c-82.242,34.674 -193.807,61.113 -282.818,76.633c-368.108,64.187 -966.131,62.807 -1357.64,33.033c-138.901,-10.564 -355.255,-58.846 -485.871,-107.583c-32.687,-12.197 -59.89,-24.35 -78.842,-35.99c-10.384,-6.377 -18.094,-12.148 -21.816,-17.946c-6.57,-10.233 -9.003,-32.517 -6.856,-61.125c3.591,-47.862 21.829,-111.931 65.356,-171.846c19.542,-26.899 50.43,-41.744 84.731,-52.066c37.428,-11.263 78.959,-16.936 116.639,-24.172l0,-0Z" style="fill:#7e4021;"/><path d="M104.995,2167.54c8.653,18.05 26.088,35.242 48.611,50.497c30.622,20.739 70.777,38.395 106.855,51.818c147.539,54.894 382.993,95.436 595.146,98.894c9.197,0.15 16.786,-7.195 16.936,-16.393c0.15,-9.197 -7.195,-16.786 -16.393,-16.936c-208.189,-3.393 -439.284,-42.938 -584.066,-96.806c-33.662,-12.524 -71.213,-28.825 -99.785,-48.176c-16.94,-11.474 -30.738,-23.733 -37.247,-37.309c-3.976,-8.294 -13.939,-11.8 -22.233,-7.823c-8.295,3.976 -11.801,13.939 -7.824,22.234Z" style="fill:#7e4021;"/><path d="M969.319,2370.85c187.642,13.246 588.627,29.477 819.912,-14.107c9.039,-1.703 14.995,-10.425 13.292,-19.465c-1.704,-9.039 -10.426,-14.995 -19.465,-13.292c-228.88,43.131 -625.701,26.722 -811.392,13.613c-9.176,-0.648 -17.151,6.276 -17.799,15.452c-0.648,9.176 6.276,17.151 15.452,17.799Z" style="fill:#7e4021;"/><path d="M2089.02,2287.25c59.689,-15.875 138.521,-41.669 192.593,-80.905c39.593,-28.73 66.025,-64.789 66.974,-108.225c0.2,-9.197 -7.103,-16.826 -16.299,-17.027c-9.197,-0.2 -16.826,7.103 -17.027,16.299c-0.728,33.357 -22.82,59.911 -53.225,81.974c-50.92,36.949 -125.374,60.721 -181.584,75.671c-8.889,2.364 -14.187,11.501 -11.823,20.39c2.365,8.89 11.502,14.187 20.391,11.823Z" style="fill:#7e4021;"/><path d="M188.154,2095.99c-11.916,-14.142 8.105,-195.484 29.187,-232.137c67.797,-117.875 270.224,-159.486 389.909,-180.25c395.098,-68.545 1042.55,-98.943 1424.25,39.311c39.145,14.178 79.73,32.827 107.202,65.367c54.572,64.639 59.84,298.796 52.146,306.481c-37.26,37.22 -241.792,151.84 -858.86,167.783c-639.636,16.527 -1038.39,-103.027 -1143.84,-166.555Z" style="fill:#f8bcc4;"/><path d="M175.408,2106.73c1.178,1.398 2.578,2.593 4.144,3.537c106.289,64.038 508.097,185.599 1152.87,168.941c372.781,-9.632 596.002,-55.233 723.059,-98.106c88.169,-29.751 131.53,-58.945 147.15,-74.548c1.548,-1.546 3.874,-4.484 5.202,-9.549c1.216,-4.636 2.26,-15.462 2.455,-30.649c0.516,-40.354 -3.721,-115.313 -16.811,-180.216c-9.209,-45.661 -23.241,-86.348 -42.036,-108.61c-29.351,-34.765 -72.438,-55.137 -114.261,-70.286c-383.99,-139.083 -1035.31,-109.018 -1432.78,-40.061c-72.994,12.663 -176.225,33.093 -262.047,73.181c-59.592,27.834 -110.751,65.264 -139.462,115.181c-5.59,9.718 -11.438,28.543 -16.421,51.914c-10.761,50.464 -18.764,123.323 -18.549,162.569c0.062,11.329 0.892,20.218 2.246,25.686c1.29,5.208 3.363,8.79 5.239,11.016Zm2000.43,-20.738c-16.539,14.587 -56.338,38.329 -131.013,63.526c-125.326,42.289 -345.561,86.867 -713.262,96.367c-623.714,16.115 -1016.69,-97.194 -1129.23,-160.917c-0.42,-6.337 -1.264,-22.237 -0.471,-37.567c2.997,-57.959 15.782,-150.647 29.925,-175.237c25.528,-44.384 71.687,-76.85 124.673,-101.599c83.044,-38.79 183.009,-58.286 253.638,-70.54c392.729,-68.134 1036.31,-98.865 1415.73,38.56c36.468,13.209 74.55,30.134 100.143,60.448c16.132,19.108 26.927,54.505 34.831,93.697c12.58,62.376 16.652,134.417 16.155,173.2c-0.102,7.973 -0.753,16.066 -1.12,20.062Z" style="fill:#7e4021;"/><ellipse cx="1189.12" cy="1818.91" rx="193.063" ry="55.449" style="fill:#9d5e3e;"/><path d="M1189.12,1746.8c-60.126,-0 -114.071,7.788 -150.748,19.866c-20.386,6.713 -35.82,15.02 -45.171,23.742c-9.522,8.881 -13.81,18.734 -13.81,28.508c-0,9.773 4.288,19.626 13.81,28.507c9.351,8.722 24.785,17.029 45.171,23.742c36.677,12.078 90.622,19.866 150.748,19.866c60.126,0 114.071,-7.788 150.748,-19.866c20.386,-6.713 35.82,-15.02 45.172,-23.742c9.521,-8.881 13.81,-18.734 13.81,-28.507c-0,-9.774 -4.289,-19.627 -13.81,-28.508c-9.352,-8.722 -24.786,-17.029 -45.172,-23.742c-36.677,-12.078 -90.622,-19.866 -150.748,-19.866Zm0,33.333c46.281,0 88.663,4.782 121.324,12.796c21.23,5.209 38.121,11.56 48.537,19.143c1.901,1.384 3.534,2.781 4.822,4.245c0.805,0.914 1.713,1.612 1.713,2.599c0,0.986 -0.908,1.684 -1.713,2.598c-1.288,1.464 -2.92,2.861 -4.822,4.245c-10.416,7.583 -27.307,13.934 -48.537,19.143c-32.661,8.014 -75.043,12.796 -121.324,12.796c-46.281,-0 -88.663,-4.782 -121.323,-12.796c-21.23,-5.209 -38.122,-11.56 -48.537,-19.143c-1.902,-1.384 -3.535,-2.781 -4.823,-4.245c-0.804,-0.914 -1.713,-1.612 -1.713,-2.598c0,-0.987 0.909,-1.685 1.713,-2.599c1.288,-1.464 2.921,-2.861 4.823,-4.245c10.415,-7.583 27.307,-13.934 48.537,-19.143c32.66,-8.014 75.042,-12.796 121.323,-12.796Z" style="fill:#7e4021;"/><path d="M2116.91,1790.24c6.872,16.211 10.492,34.97 4.805,54.161c-9.329,31.481 -42.169,62.213 -115.986,87.686c-237.559,81.978 -926.554,185.156 -1451.49,1.068c-8.681,-3.044 -18.199,1.532 -21.243,10.212c-3.044,8.68 1.532,18.199 10.212,21.243c532.862,186.866 1232.26,82.202 1473.4,-1.013c73.521,-25.371 111.216,-57.575 128.425,-89.039c18.676,-34.146 14.757,-68.585 2.573,-97.328c-3.59,-8.469 -13.38,-12.43 -21.849,-8.84c-8.47,3.59 -12.431,13.381 -8.841,21.85Z" style="fill:#7e4021;"/><path d="M367.976,1888.14c-8.342,-2.872 -16.175,-6.687 -24.005,-10.724c-12.009,-6.191 -30.48,-16.155 -43.611,-29.94c-10.006,-10.506 -16.938,-23.572 -10.171,-39.422c3.612,-8.46 -0.323,-18.26 -8.783,-21.872c-8.46,-3.613 -18.261,0.323 -21.873,8.783c-10.476,24.535 -5.319,45.923 7.162,63.895c15.621,22.494 44.269,39.042 62.001,48.184c9.264,4.776 18.561,9.217 28.43,12.614c8.698,2.995 18.19,-1.636 21.184,-10.334c2.994,-8.697 -1.636,-18.189 -10.334,-21.184Z" style="fill:#7e4021;"/><path d="M766.528,1702.97c-26.911,-1.508 -54.648,2.413 -81.124,6.701c-29.564,4.789 -77.438,12.682 -116.433,29.157c-29.216,12.343 -53.36,29.81 -64.596,52.781c-12.137,24.813 -3.335,46.089 18.592,63.149c36.954,28.75 118.462,43.741 141.449,47.198c9.096,1.368 17.592,-4.907 18.96,-14.003c1.367,-9.096 -4.907,-17.592 -14.003,-18.96c-14.926,-2.244 -57.112,-9.463 -92.235,-22.956c-15.719,-6.039 -30.06,-13.124 -38.786,-22.085c-4.921,-5.053 -7.386,-10.843 -4.033,-17.697c8.1,-16.561 26.562,-27.823 47.624,-36.721c36.414,-15.385 81.185,-22.487 108.791,-26.958c24.133,-3.909 49.399,-7.7 73.928,-6.325c9.185,0.515 17.059,-6.524 17.574,-15.708c0.514,-9.184 -6.524,-17.058 -15.708,-17.573Z" style="fill:#7e4021;"/><path d="M1445.25,94.654c0,-0 -28.737,-68.817 -114.317,-76.565c-84.929,-7.69 -117.082,59.005 -117.082,59.005l-135.217,1781.89c0,0 60.469,11.771 109.691,13.409c62.489,2.079 122.956,-12.301 122.956,-12.301l133.969,-1765.43Z" style="fill:#fee4a8;"/><path d="M1461.87,95.915c0.199,-2.623 -0.226,-5.256 -1.239,-7.684c-0,0 -31.919,-78.024 -128.194,-86.741c-97.214,-8.802 -133.598,68.366 -133.598,68.366c-0.903,1.875 -1.448,3.902 -1.605,5.977l-135.218,1781.89c-0.639,8.431 5.135,16.005 13.435,17.621c-0,-0 61.919,12.029 112.321,13.706c64.73,2.154 127.367,-12.744 127.367,-12.744c7.054,-1.677 12.214,-7.723 12.762,-14.953l133.969,-1765.43Zm-33.577,1.944c0,0 -120.75,1591.25 -132.683,1748.5c-20.058,3.889 -62.877,10.837 -106.73,9.377c-33.342,-1.109 -71.969,-6.993 -92.487,-10.49c-0,-0 127.133,-1675.36 133.806,-1763.3c6.322,-10.651 35.64,-53.012 99.233,-47.255c64.367,5.828 92.287,50.684 98.861,63.172l0,0Z" style="fill:#7e4021;"/><path d="M1693.28,1053.43c17.643,-232.497 -156.531,-435.276 -389.029,-452.919c-232.497,-17.643 -435.276,156.531 -452.919,389.029l105.243,7.986c13.232,-174.373 165.317,-305.004 339.69,-291.771c174.373,13.232 305.003,165.316 291.771,339.689l105.244,7.986Z" style="fill:#f3859b;"/><path d="M1692.02,1070.05c9.178,0.697 17.183,-6.179 17.88,-15.358c18.339,-241.675 -162.711,-452.459 -404.387,-470.799c-241.676,-18.339 -452.46,162.711 -470.799,404.387c-0.697,9.178 6.179,17.183 15.358,17.88l105.243,7.986c9.179,0.696 17.184,-6.179 17.88,-15.358c12.536,-165.195 156.615,-288.949 321.81,-276.414c165.194,12.536 288.949,156.615 276.413,321.81c-0.696,9.178 6.18,17.183 15.358,17.88l105.244,7.986Zm-14.432,-34.524l-72.079,-5.47c4.684,-176.487 -130.003,-327.414 -307.982,-340.919c-177.979,-13.506 -333.899,115.368 -355.9,290.541c-0,0 -72.079,-5.47 -72.079,-5.47c25.078,-214.951 215.69,-373.601 433.443,-357.077c217.753,16.524 382.242,202.12 374.597,418.395l-0,-0Z" style="fill:#7e4021;"/><path d="M1593.55,1045.86c13.463,-177.417 -119.448,-332.156 -296.865,-345.619c-177.417,-13.464 -332.157,119.447 -345.62,296.865l117.484,8.915c8.539,-112.533 106.688,-196.836 219.221,-188.297c112.533,8.54 196.836,106.688 188.297,219.221l117.483,8.915Z" style="fill:#e5bdff;"/><path d="M1592.29,1062.48c9.179,0.697 17.184,-6.179 17.88,-15.358c14.16,-186.595 -125.627,-349.34 -312.223,-363.499c-186.596,-14.16 -349.34,125.627 -363.5,312.223c-0.696,9.178 6.18,17.183 15.358,17.88l117.484,8.915c9.178,0.696 17.183,-6.18 17.88,-15.358c7.843,-103.355 97.986,-180.782 201.341,-172.939c103.354,7.843 180.782,97.986 172.939,201.341c-0.697,9.178 6.179,17.184 15.358,17.88l117.483,8.915Zm-14.542,-34.533l-84.417,-6.405c0.151,-114.594 -88.178,-211.624 -204.299,-220.436c-116.121,-8.812 -218.08,73.779 -235.223,187.083c0,-0 -84.417,-6.406 -84.417,-6.406c20.81,-159.856 163.37,-277.266 326.033,-264.923c162.663,12.344 285.873,149.922 282.323,311.087l-0,0Z" style="fill:#7e4021;"/><path d="M1492.18,1038.17c9.215,-121.432 -81.755,-227.342 -203.187,-236.557c-121.432,-9.215 -227.343,81.755 -236.558,203.187l109.937,8.343c4.607,-60.716 57.562,-106.202 118.278,-101.594c60.716,4.607 106.201,57.562 101.594,118.278l109.936,8.343Z" style="fill:#94c2ff;"/><path d="M1490.92,1054.79c9.178,0.696 17.184,-6.18 17.88,-15.358c9.911,-130.61 -87.935,-244.526 -218.545,-254.437c-130.611,-9.911 -244.526,87.935 -254.437,218.545c-0.697,9.178 6.179,17.184 15.357,17.88l109.937,8.343c9.178,0.696 17.183,-6.18 17.88,-15.358c3.91,-51.538 48.86,-90.147 100.398,-86.236c51.538,3.911 90.147,48.861 86.236,100.398c-0.696,9.179 6.179,17.184 15.358,17.88l109.936,8.343Zm-14.766,-34.55l-77.11,-5.851c-3.43,-62.659 -52.87,-114.582 -117.132,-119.458c-64.261,-4.876 -120.97,38.992 -133.816,100.415c0,-0 -77.11,-5.852 -77.11,-5.852c16.383,-103.839 110.088,-179.355 216.747,-171.261c106.658,8.093 187.894,96.885 188.421,202.007l-0,0Z" style="fill:#7e4021;"/><path d="M972.801,959.84c-35.064,-39.648 -91.33,-42.179 -122.054,-3.239c-9.406,11.921 -22.458,40.974 -22.458,40.974c-0,-0 -64.102,21.536 -68.796,67.918c-1.906,18.836 2.512,40.191 15.489,54.493c27.768,30.603 74.686,29.469 74.686,29.469c0,0 8.143,52.138 64.464,70.701c1.301,0.429 2.609,0.837 3.928,1.205c6.774,1.891 13.535,2.667 20.55,2.86c45.617,1.253 76.713,-36.187 76.713,-36.187c0,0 28.343,24.86 68.847,24.392c37.688,-0.436 57.342,-18.192 60.862,-22.076c33.285,-36.721 0.435,-66.404 0.435,-66.404c0,-0 54.634,-19.902 54.558,-60.568c-0.012,-6.183 -1.104,-11.995 -3.18,-17.817c-5.166,-14.489 -15.111,-26.932 -27.667,-35.792c-19.927,-14.063 -61.947,-20.779 -61.947,-20.779c0,-0 -19.304,-39.986 -61.663,-52.162c-19.511,-5.608 -55.842,4.606 -72.767,23.012Z" style="fill:#fff;"/><path d="M973.723,937.38c-42.402,-36.447 -102.127,-34.111 -136.061,8.898c-7.368,9.338 -16.875,28.301 -21.615,38.173c-9.203,3.838 -26.034,11.846 -40.977,24.291c-16.177,13.474 -29.82,31.956 -32.159,55.073c-2.362,23.34 3.647,49.648 19.728,67.37c22.538,24.84 55.764,32.029 74.085,34.101c6.681,19.466 25.021,55.152 72.191,70.699c1.544,0.509 3.098,0.992 4.664,1.429c8.103,2.261 16.182,3.237 24.574,3.467c35.935,0.987 64.224,-18.423 78.908,-31.252c13.756,8.481 37.732,19.804 67.301,19.462c45.431,-0.525 68.776,-22.866 73.019,-27.548c13.135,-14.491 18.042,-28.339 19.034,-40.36c0.996,-12.076 -2.143,-22.583 -6.195,-30.779c6.912,-3.989 14.781,-9.282 21.941,-15.894c13.713,-12.665 24.57,-29.876 24.53,-51.164c-0.015,-8.112 -1.424,-15.743 -4.147,-23.382c-6.316,-17.715 -18.405,-32.98 -33.756,-43.813c-16.53,-11.665 -46.609,-19.045 -60.932,-22.06c-8.725,-13.855 -30.68,-42.645 -67.684,-53.281c-9.971,-2.866 -23.383,-2.88 -37.268,0.099c-13.68,2.935 -27.758,8.73 -39.181,16.471Zm-13.407,33.501c3.127,3.535 7.605,5.579 12.323,5.625c4.719,0.046 9.236,-1.911 12.43,-5.385c6.654,-7.235 17.28,-12.583 28.002,-15.848c10.199,-3.106 20.597,-4.524 27.892,-2.427c35.222,10.124 51.259,43.39 51.259,43.39c2.371,4.911 6.994,8.351 12.379,9.212c-0,-0 37.333,5.493 54.967,17.938c9.761,6.888 17.562,16.508 21.578,27.772c1.428,4.005 2.204,7.998 2.212,12.251c0.021,11.249 -6.565,19.92 -13.812,26.612c-13.232,12.221 -29.783,18.265 -29.783,18.265c-5.492,2 -9.534,6.731 -10.654,12.467c-1.119,5.737 0.848,11.64 5.184,15.559c0,-0 9.988,8.963 8.902,22.131c-0.517,6.257 -3.674,13.171 -10.512,20.714c-2.798,3.087 -18.75,16.257 -48.706,16.603c-33.893,0.392 -57.664,-20.255 -57.664,-20.255c-3.381,-2.967 -7.818,-4.44 -12.302,-4.086c-4.485,0.355 -8.635,2.506 -11.509,5.966c0,0 -25.656,31.213 -63.434,30.175c-5.64,-0.155 -11.081,-0.732 -16.527,-2.252c-1.072,-0.299 -2.135,-0.632 -3.192,-0.981c-46.094,-15.192 -53.214,-57.444 -53.214,-57.444c-1.291,-8.264 -8.507,-14.292 -16.869,-14.09c-0,0 -38.967,1.313 -61.941,-24.006c-9.875,-10.884 -12.701,-27.283 -11.25,-41.616c1.416,-13.992 10.536,-24.66 20.328,-32.816c17.028,-14.183 37.194,-20.982 37.194,-20.982c4.404,-1.479 7.991,-4.73 9.895,-8.968c-0,-0 11.755,-26.601 20.339,-37.48c24.3,-30.798 68.753,-27.401 96.485,3.956Z" style="fill:#7e4021;"/><path d="M1445.07,997.701c-22.703,-14.945 -55.194,-20.632 -80.907,9.394c-24.214,28.276 -4.284,53.012 -4.284,53.012c-0,0 -53.345,32.668 -32.384,79.973c25.151,56.764 89.692,39.697 89.692,39.697c0,0 3.898,34.352 29.026,47.905c43.443,23.432 78.662,-9.481 78.662,-9.481c0,-0 76.429,51.121 121.124,15.081c30.936,-24.946 19.349,-60.947 19.349,-60.947c0,-0 62.146,-3.597 76.574,-43.946c22.851,-63.909 -48.946,-86.285 -48.946,-86.285c0,0 2.19,-44.944 -49.847,-66.585c-40.938,-17.026 -72.644,10.135 -72.644,10.135c-0,0 -17.233,-33.184 -61.693,-32.52c-28.39,0.424 -55.569,21.227 -63.722,44.567Z" style="fill:#fff;"/><path d="M1438.17,975.161c-26.86,-11.339 -59.681,-10.421 -86.668,21.093c-20.119,23.494 -17.977,45.277 -12.912,59.104c-4.989,4.309 -10.777,10.004 -16.028,16.903c-13.832,18.173 -23.835,44.042 -10.307,74.571c21.801,49.203 67.714,53.261 92.492,51.481c4.731,14.142 14.446,33.733 33.552,44.038c38.251,20.631 71.373,6.109 87.502,-4.175c11.72,6.573 32.254,16.732 54.685,21.647c25.947,5.685 53.998,4.152 75.973,-13.567c23.69,-19.102 28.019,-43.245 27.6,-59.788c9.086,-1.816 20.555,-4.894 31.69,-10.061c17.864,-8.29 34.505,-21.825 41.864,-42.407c22.046,-61.655 -26.149,-92.569 -48.779,-103.303c-2.716,-18.045 -13.983,-51.717 -59.306,-70.567c-31.77,-13.213 -59.03,-4.805 -74.951,3.31c-11.353,-12.165 -32.376,-27.474 -66.036,-26.971c-28.229,0.422 -55.395,17.165 -70.371,38.692Zm-2.266,36.461c4.29,2.824 9.641,3.512 14.506,1.866c4.865,-1.646 8.699,-5.443 10.392,-10.291c6.152,-17.61 26.817,-33.078 48.237,-33.398c33.312,-0.498 46.653,23.537 46.653,23.537c2.344,4.514 6.621,7.71 11.615,8.68c4.993,0.969 10.156,-0.395 14.019,-3.704c-0,-0 24.205,-20.379 55.401,-7.404c40.093,16.674 39.6,50.386 39.6,50.386c-0.369,7.586 4.437,14.462 11.689,16.722c-0,0 55.532,16.318 38.21,64.761c-4.184,11.702 -14.351,18.68 -24.508,23.393c-18.085,8.392 -37.334,9.526 -37.334,9.526c-5.149,0.298 -9.87,2.963 -12.786,7.217c-2.915,4.254 -3.697,9.618 -2.117,14.528c0,-0 7.863,25.281 -13.945,42.866c-13.787,11.117 -31.637,10.522 -47.916,6.955c-28.618,-6.271 -53.48,-22.915 -53.48,-22.915c-6.436,-4.305 -14.989,-3.61 -20.646,1.677c-0,-0 -26.593,24.668 -59.371,6.989c-18.213,-9.823 -20.377,-35.115 -20.377,-35.115c-0.546,-4.811 -3.157,-9.147 -7.155,-11.88c-3.997,-2.732 -8.985,-3.592 -13.666,-2.354c-0,0 -50.586,13.919 -70.195,-30.335c-7.434,-16.778 -1.245,-30.893 6.357,-40.881c8.707,-11.44 19.494,-18.127 19.494,-18.127c4.088,-2.504 6.9,-6.646 7.718,-11.369c0.818,-4.722 -0.437,-9.569 -3.444,-13.302c-0,0 -10.586,-14.722 3.965,-31.714c18.758,-21.905 42.522,-17.216 59.084,-6.314Z" style="fill:#7e4021;"/><path d="M1328.89,24.578c35.592,2.701 63.332,20.132 61.907,38.901c-1.424,18.77 -31.477,31.815 -67.069,29.114c-35.592,-2.7 -63.332,-20.132 -61.908,-38.901c1.425,-18.77 31.477,-31.815 67.07,-29.114Z" style="fill:#7e4021;"/><path d="M1199.2,79.919c2.148,10.945 12.616,22.991 16.476,26.598c19.101,17.848 41.908,27.735 67.49,33.279c8.99,1.948 17.87,-3.77 19.818,-12.76c1.948,-8.99 -3.769,-17.87 -12.759,-19.818c-19.56,-4.238 -37.186,-11.41 -51.791,-25.056c-1.337,-1.25 -5.78,-4.868 -6.524,-8.661c-1.771,-9.026 -10.537,-14.917 -19.563,-13.146c-9.027,1.771 -14.917,10.537 -13.147,19.564Z" style="fill:#7e4021;"/><path d="M1344.88,149.807c32.809,4.778 64.65,-1.736 85.371,-14.488c17.211,-10.592 27.274,-25.546 28.281,-42.023c0.561,-9.181 -6.438,-17.091 -15.62,-17.652c-9.181,-0.56 -17.091,6.438 -17.652,15.62c-0.398,6.516 -5.674,11.478 -12.48,15.667c-15.283,9.405 -38.897,13.415 -63.096,9.89c-9.102,-1.325 -17.569,4.988 -18.894,14.091c-1.326,9.102 4.988,17.569 14.09,18.895Z" style="fill:#7e4021;"/></g></svg>