<?xml version="1.0" encoding="UTF-8" standalone="no"?><!DOCTYPE svg PUBLIC "-//W3C//DTD SVG 1.1//EN" "http://www.w3.org/Graphics/SVG/1.1/DTD/svg11.dtd"><svg width="100%" height="100%" viewBox="0 0 2277 3895" version="1.1" xmlns="http://www.w3.org/2000/svg" xmlns:xlink="http://www.w3.org/1999/xlink" xml:space="preserve" xmlns:serif="http://www.serif.com/" style="fill-rule:evenodd;clip-rule:evenodd;stroke-linejoin:round;stroke-miterlimit:2;"><g id="Coffee-Canister" serif:id="Coffee Canister"><path d="M2180.87,469.727c-0,-0 -32.297,-404.868 -1105.97,-402.961c-1009.32,1.794 -1058.18,402.961 -1058.18,402.961l0,335.732l42.515,62.468l-42.515,66.157l0,2505.85c0,0 5.302,446.389 1074.11,437.396c1106.73,-9.312 1090.05,-437.396 1090.05,-437.396l-0,-2503.22l-38.196,-57.248l38.196,-58.96l-0,-350.784Z" style="fill:#edaf5f;"/><path d="M2197.54,469.727c0,-0.443 -0.017,-0.885 -0.052,-1.326c-0,0 -13.145,-198.669 -377.441,-322.28c-164.417,-55.789 -401.965,-96.631 -745.174,-96.021c-329.587,0.585 -557.55,43.62 -715.183,101.265c-338.462,123.772 -359.513,316.347 -359.513,316.347c-0.082,0.668 -0.123,1.341 -0.123,2.015c0,-0 0,335.732 0,335.732c0,3.345 1.007,6.612 2.889,9.378l36.312,53.354c-0,0 -36.555,56.882 -36.555,56.882c-1.727,2.688 -2.646,5.816 -2.646,9.011l0,2505.85c0,0.066 0.001,0.132 0.002,0.198c-0,0 0.137,215.633 348.001,349.978c160.277,61.899 396.032,106.805 742.911,103.886c349.849,-2.943 588.251,-47.636 750.743,-107.293c358.844,-131.746 356.122,-338.101 355.829,-347.113c0,0.023 0,-2502.87 0,-2502.87c0,-3.292 -0.975,-6.511 -2.802,-9.25l-32.114,-48.133c-0,0 32.238,-49.763 32.238,-49.763c1.748,-2.699 2.678,-5.846 2.678,-9.062c0,0 0,-350.784 0,-350.784Zm-33.333,0.859c0,0 0,302.541 0,344.998c0,0 -35.517,54.826 -35.517,54.826c-3.616,5.582 -3.567,12.779 0.124,18.311l35.393,53.048c0,0 0,2498.16 0,2498.16c0,0.217 0.004,0.433 0.013,0.649c-0,0 4.65,190.498 -333.997,314.829c-160.053,58.762 -394.938,102.353 -739.536,105.252c-341.108,2.87 -573.011,-40.779 -730.621,-101.649c-318.545,-123.022 -326.544,-315.155 -326.678,-319.213c-0,-22.192 -0,-2378.97 -0,-2500.83c-0,0 39.869,-62.039 39.869,-62.039c3.614,-5.624 3.518,-12.862 -0.243,-18.388l-39.626,-58.224c-0,-0 -0,-307.343 -0,-329.358c2.152,-12.679 35.695,-177.839 337.75,-288.297c155.11,-56.722 379.482,-98.662 703.794,-99.238c338.227,-0.601 572.374,39.274 734.405,94.254c327.882,111.255 353.623,282.737 354.869,292.892l0.001,0.007Z" style="fill:#7e4021;"/><path d="M2080.95,2307.26l-0.002,-0.003c-0,-0 0.021,1.246 0.042,2.718c0.25,17.207 1.377,105.445 1.377,150.853c0,9.199 7.468,16.667 16.667,16.667c9.198,-0 16.667,-7.468 16.667,-16.667c-0,-45.553 -1.13,-134.074 -1.381,-151.337c-0.18,-12.377 -8.367,-17.138 -8.388,-17.151c-7.969,-4.594 -18.169,-1.854 -22.764,6.115c-1.6,2.774 -2.31,5.82 -2.218,8.805Z" style="fill:#7e4021;"/><path d="M2085.5,2529.59c-0.256,23.147 -1.236,60.628 0.476,91.519c0.508,9.184 8.378,16.228 17.563,15.719c9.184,-0.509 16.228,-8.379 15.719,-17.563c-1.67,-30.145 -0.676,-66.719 -0.427,-89.308c0.102,-9.198 -7.284,-16.748 -16.482,-16.849c-9.198,-0.102 -16.748,7.284 -16.849,16.482Z" style="fill:#7e4021;"/><path d="M1522.48,1716.08c-3.842,-216.171 -278.189,-372.73 -676.422,-367.984c-398.714,4.752 -633.96,170.162 -629.723,365.843c10.619,490.379 7.732,954.926 0,1320.95c-2.278,107.838 122.848,358.54 648.262,355.431c537.004,-3.178 651.752,-234.026 657.883,-355.431c18.85,-373.316 8.749,-826.437 -0,-1318.81Z" style="fill:#ffe6d8;"/><path d="M1539.15,1715.78c-1.991,-112.037 -72.095,-209.55 -193.865,-278.307c-121.159,-68.413 -294.058,-108.494 -499.419,-106.047c-201.181,2.398 -361.403,45.349 -471.436,111.924c-116.015,70.194 -177.006,166.843 -174.752,270.946c4.939,228.068 6.955,450.546 6.92,660.113c-0.041,240.788 -2.788,464.532 -6.92,660.129c-1.393,65.965 41.037,183.63 186.338,269.298c101.507,59.847 254.16,104.48 478.686,103.151c229.206,-1.356 382.697,-43.939 484.229,-101.51c145.108,-82.281 186.46,-195.687 190.2,-269.746c8.189,-162.175 10.927,-339.387 10.683,-528.321c-0.319,-246.373 -5.708,-512.705 -10.664,-791.63Zm-33.328,0.593c4.952,278.731 10.34,544.878 10.658,791.08c0.244,188.318 -2.478,364.951 -10.64,526.597c-3.377,66.872 -42.323,168.134 -173.351,242.43c-98.087,55.618 -246.555,95.864 -467.984,97.175c-216.403,1.28 -363.725,-40.851 -461.559,-98.534c-130.436,-76.903 -171.193,-180.663 -169.942,-239.879c4.136,-195.804 6.887,-419.784 6.927,-660.827c0.035,-209.798 -1.983,-432.521 -6.927,-660.841c-2.022,-93.359 54.639,-178.755 158.681,-241.705c106.057,-64.168 260.669,-104.801 454.578,-107.112c198.397,-2.364 365.583,35.649 482.633,101.742c109.92,62.066 175.128,148.738 176.926,249.874Z" style="fill:#7e4021;"/><path d="M398.685,2296.39c-13.824,19.539 -21.72,32.717 -30.591,55.717c-16.972,44.001 -26.435,91.533 -31.297,139.242c-14.168,139.028 23.365,296.164 90.72,412.049c84.371,145.161 257.856,152.625 393.152,145.484c72.826,-3.844 150.509,-10.522 217.41,-47.485c33.485,-18.5 62.686,-48.436 85.86,-81.602c41.543,-59.457 70.491,-131.526 90.837,-203.83c14.608,-51.909 22.109,-106.63 21.426,-161.267c-0.523,-41.899 -5.232,-112.884 -22.559,-171.283c-12.586,-42.421 -32.384,-78.08 -60.06,-94.838c-30.197,-18.285 -69.346,-21.234 -102.333,-26.222c-71.269,-10.776 -143.475,-15.339 -215.305,-17.084c-90.883,-2.209 -243.879,-7.647 -341.504,8.993c-26.686,4.549 -49.437,10.812 -66.215,18.948c-13.379,6.488 -23.311,14.373 -29.541,23.178Zm27.211,19.253c3.478,-4.916 9.405,-8.816 16.875,-12.438c14.491,-7.027 34.221,-12.153 57.271,-16.081c95.79,-16.328 245.918,-10.697 335.093,-8.53c70.437,1.712 141.245,6.153 211.132,16.72c28.93,4.375 63.568,5.74 90.051,21.776c21.781,13.189 35.463,42.421 45.368,75.806c16.408,55.301 20.69,122.543 21.186,162.219c0.643,51.437 -6.431,102.952 -20.183,151.82c-19.332,68.698 -46.603,137.277 -86.074,193.768c-20.226,28.947 -45.43,55.371 -74.656,71.518c-62.42,34.487 -135.099,39.787 -203.047,43.374c-124.199,6.555 -285.125,4.308 -362.576,-128.948c-64.068,-110.228 -99.854,-259.677 -86.377,-391.919c4.56,-44.747 13.317,-89.355 29.235,-130.626c7.722,-20.02 14.669,-31.451 26.702,-48.459Z" style="fill:#7e4021;"/><path d="M1196.9,2406.34c-6.433,3.773 -9.577,11.36 -7.697,18.577c6.025,23.136 10.783,65.616 14.045,99.636c0.546,5.686 3.964,10.696 9.059,13.277c5.096,2.581 11.158,2.373 16.064,-0.551c14.731,-8.778 34.515,-19.357 53.918,-23.859c14.789,-3.432 29.548,-3.809 39.418,7.577c6.259,7.22 7.108,20.053 5.387,35.102c-3.243,28.345 -17.958,63.554 -43.714,93.516c-30.558,35.548 -72.23,58.315 -97.052,68.683c-4.264,1.781 -7.597,5.252 -9.204,9.586c-10.395,28.044 -32.207,85.77 -35.747,97.113c-2.119,6.785 -0.705,11.144 -0.457,11.926c2.625,8.273 8.454,10.933 14.095,11.55c4.782,0.524 19.539,-1.67 39.746,-8.899c40.418,-14.46 107.231,-48.225 155.983,-106.466c62.893,-75.135 92.187,-159.283 89.34,-225.016c-2.068,-47.724 -20.848,-86.217 -54.532,-107.65c-79.423,-50.539 -166.319,-7.2 -188.652,5.898Zm-14.252,402.156c7.139,-19.353 16.637,-44.601 23.255,-62.366c28.388,-12.809 70.879,-37.706 102.754,-74.785c30.64,-35.644 47.696,-77.738 51.554,-111.457c3.014,-26.345 -2.361,-48.087 -13.317,-60.726c-15.02,-17.326 -35.378,-22.785 -57.419,-20.665c-18.462,1.776 -38.229,9.277 -55.607,17.84c-2.597,-23.75 -5.818,-48.402 -9.516,-66.998l0,-0c27.358,-13.784 87.564,-36.245 143.305,-0.775c25.101,15.973 37.584,45.407 39.125,80.971c2.564,59.195 -24.961,134.516 -81.598,202.177c-44.243,52.854 -104.972,83.355 -141.651,96.477l-0.885,0.307Z" style="fill:#7e4021;"/><path d="M444.079,2358.68c-11.58,15.518 -12.991,17.19 -20.423,35.458c-14.73,36.208 -22.891,75.332 -27.11,114.59c-12.381,115.186 60.314,427.565 377.592,437.847c337.991,10.954 407.241,-335.453 393.546,-454.405c-6.643,-57.702 -25.031,-126.132 -63.039,-147.952c-25.385,-14.573 -57.49,-13.424 -85.22,-17.399c-63.22,-9.063 -127.271,-12.886 -190.989,-14.354c-115.203,-2.654 -348.128,-2.331 -384.357,46.215Z" style="fill:#d9905f;"/><path d="M430.722,2348.71c-12.779,17.124 -14.303,18.988 -22.504,39.145c-15.311,37.635 -23.857,78.285 -28.244,119.09c-12.904,120.053 62.938,445.569 393.624,456.286c352.174,11.414 424.913,-349.025 410.643,-472.969c-4.188,-36.383 -12.965,-76.788 -27.829,-108.274c-11.05,-23.409 -25.651,-41.997 -43.469,-52.226c-27.202,-15.616 -61.438,-15.183 -91.153,-19.443c-63.876,-9.157 -128.591,-13.035 -192.97,-14.518c-81.553,-1.879 -221.436,-2.162 -310.596,14.604c-24.336,4.577 -45.074,10.487 -60.321,17.757c-12.371,5.899 -21.501,12.937 -27.181,20.548Zm26.715,19.936c3.016,-4.042 8.242,-7.263 14.812,-10.396c13.16,-6.274 31.13,-11.135 52.135,-15.085c87.168,-16.392 223.937,-15.877 303.669,-14.04c63.055,1.453 126.443,5.221 189.007,14.19c25.747,3.691 55.717,1.824 79.287,15.355c12.59,7.228 22.114,21.008 29.922,37.548c13.423,28.436 21.075,64.997 24.858,97.856c13.12,113.961 -52.642,446.336 -376.449,435.841c-303.87,-9.848 -373.419,-309.09 -361.561,-419.408c4.053,-37.712 11.827,-75.309 25.977,-110.091c6.663,-16.377 7.96,-17.857 18.343,-31.77Z" style="fill:#7e4021;"/><path d="M444.079,2358.68c-11.58,15.518 -12.991,17.19 -20.423,35.458c-3.496,8.593 -45.292,118.816 -19.318,215.906c4.53,16.933 177.535,62.632 410.837,60.656c233.261,-1.974 336.5,-24.305 341.655,-49.03c32.63,-156.492 -15.33,-253.481 -52.185,-277.452c-24.703,-16.066 -54.208,-33.262 -81.938,-37.237c-47.651,-6.831 -80.023,-18.646 -128.12,-20.758c-15.714,-0.69 -47.886,9.778 -63.577,9.417c-17.271,-0.398 -30.203,-2.458 -49.453,-8.315c-29.012,-8.826 -66.393,-17.206 -100.871,-19.521c-46.256,-3.107 -102.007,29.512 -146.04,29.485c-42.219,-0.027 -78.937,45.808 -90.567,61.391Z" style="fill:#fff;"/><path d="M430.722,2348.71c-12.779,17.124 -14.303,18.988 -22.504,39.145c-3.667,9.014 -47.226,124.654 -19.98,226.494c0.922,3.446 3.144,7.795 8.101,11.887c4.27,3.526 12.359,7.958 24.21,12.409c54.914,20.621 205.226,50.324 394.767,48.719c165.934,-1.404 267.091,-13.303 314.667,-28.72c14.635,-4.742 24.883,-10.09 31.263,-15.318c7.12,-5.835 10.641,-12.218 11.9,-18.256c20.439,-98.026 10.19,-173.673 -9.271,-223.924c-14.085,-36.368 -33.435,-60.035 -50.143,-70.901c-26.669,-17.346 -58.722,-35.472 -88.66,-39.764c-48.252,-6.917 -81.05,-18.772 -129.753,-20.911c-8.867,-0.389 -22.412,2.113 -35.918,4.918c-10.561,2.193 -21.084,4.647 -28.007,4.488c-15.713,-0.362 -27.473,-2.27 -44.986,-7.598c-30.084,-9.152 -68.853,-17.804 -104.605,-20.205c-24.99,-1.679 -52.617,5.899 -79.873,14.287c-23.533,7.243 -46.733,15.173 -67.273,15.16c-20.308,-0.013 -39.708,8.384 -56.391,20.161c-22.558,15.924 -39.98,37.794 -47.544,47.929Zm710.099,268.057c-1.903,1.213 -11.175,6.947 -21.113,10.167c-46.056,14.924 -144.043,25.738 -304.674,27.098c-161.195,1.365 -293.24,-20.206 -359.485,-39.077c-16.086,-4.582 -31.209,-11.288 -36.233,-13.606c-22.325,-91.242 16.506,-192.889 19.778,-200.933c6.663,-16.377 7.96,-17.857 18.343,-31.77c6.392,-8.565 20.988,-27.175 40.052,-40.633c11.065,-7.811 23.678,-14.068 37.147,-14.06c23.493,0.015 50.184,-8.351 77.099,-16.634c23.193,-7.138 46.569,-14.316 67.835,-12.888c33.204,2.23 69.196,10.337 97.136,18.837c20.987,6.385 35.091,8.598 53.92,9.032c8.769,0.202 22.176,-2.397 35.553,-5.175c10.432,-2.167 20.829,-4.554 27.677,-4.254c47.49,2.086 79.436,13.861 126.486,20.606c25.523,3.659 52.479,19.923 75.215,34.711c12.778,8.31 26.463,27.182 37.234,54.996c17.721,45.758 26.343,114.542 8.03,203.583Z" style="fill:#7e4021;"/><path d="M1117.59,2376.68c-1.796,1.153 -6.59,4.109 -11.115,5.925c-21.696,8.71 -59.702,16.063 -108.528,21.691c-58.965,6.797 -133.297,10.839 -214.035,10.839c-80.739,0 -155.071,-4.042 -214.036,-10.839c-48.825,-5.628 -86.832,-12.98 -108.528,-21.691c-4.524,-1.816 -9.318,-4.772 -11.115,-5.925c-1.716,-7.371 -8.334,-12.867 -16.225,-12.867c-9.199,-0 -16.667,7.468 -16.667,16.667c-0,8.147 4.191,17.383 15.728,25.024c11.105,7.356 31.779,14.615 60.236,20.599c64.01,13.459 170.343,22.366 290.607,22.366c120.263,-0 226.596,-8.907 290.606,-22.366c28.458,-5.984 49.131,-13.243 60.236,-20.599c11.538,-7.641 15.728,-16.877 15.728,-25.024c0,-9.199 -7.468,-16.667 -16.666,-16.667c-7.892,-0 -14.51,5.496 -16.226,12.867Z" style="fill:#7e4021;"/><path d="M651.517,2025.77c-21.707,-27.473 -60.51,-24.301 -79.421,-1.551c-16.651,20.032 -23.561,59.49 8.82,85.612c27.21,21.949 58.694,12.89 90.08,23.274c35.571,11.769 67.939,31.053 67.939,31.053c0,-0 -4.772,-32.613 -0.208,-67.205c5.966,-45.21 31.163,-78.578 10.455,-118.346c-14.252,-27.369 -49.808,-37.481 -75.127,-24.732c-24.6,12.386 -37.749,41.041 -22.538,71.895Z" style="fill:#f8a5b0;"/><path d="M628.556,1991.65c-25.231,-6.505 -52.889,2.2 -69.277,21.917c-21.244,25.558 -30.142,75.909 11.173,109.237c16.319,13.164 33.774,17.424 52.002,19.556c14.109,1.65 28.736,1.749 43.307,6.57c33.846,11.198 64.644,29.547 64.644,29.547c5.525,3.291 12.449,3.111 17.795,-0.464c5.345,-3.574 8.158,-9.905 7.226,-16.268c0,0 -4.428,-30.383 -0.175,-62.611c2.904,-22.011 10.591,-41.115 14.931,-59.581c5.358,-22.799 6.23,-44.738 -6.218,-68.643c-18.47,-35.469 -64.591,-48.443 -97.405,-31.92c-20.703,10.424 -35.401,29.579 -38.002,52.66l-0.001,-0Zm9.884,44.454c5.286,6.69 14.769,8.312 21.978,3.758c7.209,-4.553 9.818,-13.813 6.048,-21.461c-10.474,-21.245 -1.854,-41.11 15.084,-49.639c17.826,-8.976 42.815,-1.725 52.849,17.543c8.262,15.865 6.889,30.491 3.334,45.622c-4.574,19.462 -12.468,39.648 -15.529,62.847c-1.918,14.53 -2.29,28.733 -2.036,40.621c-12.384,-6 -27.848,-12.789 -43.937,-18.112c-16.815,-5.563 -33.623,-6.127 -49.905,-8.031c-12.165,-1.423 -24.054,-3.607 -34.945,-12.393c-23.449,-18.915 -18.525,-47.479 -6.468,-61.985c12.746,-15.334 38.896,-17.287 53.527,1.23Z" style="fill:#7e4021;"/><path d="M678.732,1646.36c-15.935,-46.254 -68.569,-59.995 -104.014,-38.729c-31.209,18.724 -58.547,67.564 -27.911,116.966c25.742,41.512 71.443,44.109 108.035,72.299c41.47,31.948 75.246,72.328 75.246,72.328c0,-0 8.77,-45.21 30.767,-88.717c28.748,-56.862 77.388,-89.225 68.448,-151.231c-6.152,-42.673 -48.367,-72.43 -87.644,-67.313c-38.159,4.971 -68.735,36.684 -62.927,84.397Z" style="fill:#ee909d;"/><path d="M667.094,1601.13c-28.627,-23.389 -70.088,-26.306 -100.95,-7.789c-37.371,22.422 -70.186,80.886 -33.501,140.042c14.709,23.72 34.852,36.645 56.813,47.344c18.234,8.883 37.854,16 55.214,29.374c40.031,30.84 72.635,69.818 72.635,69.818c4.125,4.933 10.721,7.051 16.947,5.445c6.227,-1.607 10.974,-6.652 12.198,-12.964c0,-0 8.358,-42.993 29.279,-84.371c14.104,-27.897 33.174,-49.727 47.535,-72.245c16.754,-26.27 27.652,-53.395 22.535,-88.884c-7.455,-51.713 -58.697,-87.663 -106.293,-81.462c-32.519,4.237 -60.711,24.221 -72.412,55.692l0,0Zm-4.119,50.661c2.777,8.061 11.191,12.726 19.499,10.812c8.309,-1.914 13.833,-9.791 12.803,-18.255c-4.514,-37.078 18.881,-61.993 48.535,-65.856c30.957,-4.033 64.146,19.53 68.995,53.164c3.823,26.518 -5.129,46.576 -17.647,66.205c-14.911,23.38 -34.534,46.163 -49.179,75.128c-11.219,22.19 -19.154,44.804 -24.345,62.183c-14.21,-14.798 -34.344,-34.313 -56.623,-51.477c-19.232,-14.816 -40.758,-23.093 -60.958,-32.934c-16.473,-8.026 -32.05,-17.153 -43.084,-34.945c-24.587,-39.648 -2.725,-78.864 22.322,-93.891c27.175,-16.305 67.464,-5.597 79.682,29.866Z" style="fill:#7e4021;"/><path d="M1047.48,1899.87c29.92,-61.459 -8.542,-127.014 -64.579,-140.991c-49.341,-12.307 -124.591,8.978 -143.088,88.064c-15.543,66.454 27.069,114.148 35.406,178.146c9.447,72.532 2.964,145.8 2.964,145.8c0,0 53.311,-36.032 118.016,-57.32c84.566,-27.822 164.604,-11.785 216.994,-81.907c36.055,-48.259 23.707,-119.359 -20.172,-153.084c-42.631,-32.766 -104.17,-31.608 -145.541,21.292Z" style="fill:#f8bcc4;"/><path d="M1074.6,1854.26c-0.657,-52.831 -38.386,-99.263 -87.668,-111.556c-56.312,-14.046 -142.239,10.179 -163.35,100.44c-8.566,36.623 -1.525,68.117 9.224,99.232c9.395,27.196 21.868,54.036 25.884,84.863c9.213,70.73 2.89,142.178 2.89,142.178c-0.567,6.406 2.602,12.566 8.142,15.829c5.541,3.264 12.465,3.05 17.792,-0.551c0,-0 51.453,-34.754 113.892,-55.297c41.714,-13.724 82.333,-16.529 118.962,-24.652c40.974,-9.086 77.266,-24.42 106.174,-63.112c41.522,-55.575 27.165,-137.436 -23.367,-176.274c-36.904,-28.364 -86.066,-35.055 -128.575,-11.1l-0,0Zm-42.108,38.312c-3.732,7.666 -1.076,16.913 6.155,21.431c7.232,4.517 16.706,2.848 21.959,-3.868c34.771,-44.461 86.427,-45.884 122.256,-18.346c37.227,28.612 47.566,88.951 16.977,129.894c-23.483,31.431 -53.403,43.139 -86.687,50.52c-37.629,8.345 -79.312,11.433 -122.164,25.531c-37.874,12.461 -71.974,29.808 -94.456,42.529c0.954,-28.792 0.961,-73.194 -4.788,-117.329c-4.321,-33.171 -17.322,-62.178 -27.432,-91.442c-8.756,-25.345 -15.25,-50.925 -8.273,-80.756c15.884,-67.911 80.458,-86.257 122.826,-75.689c46.68,11.643 78.551,66.329 53.627,117.525Z" style="fill:#7e4021;"/><path d="M2259.91,290.422c-1.189,-20.84 -104.239,-30.972 -130.266,-63.196c-33.362,-41.306 -42.873,-214.519 -68.347,-210.235c-17.954,3.019 -13.079,174.182 -34.153,208.44c-26.041,42.332 -115.342,41.081 -119.172,65.396c-3.754,23.826 80.332,12.955 118.987,83.038c40.564,73.542 39.429,215.241 61.977,214.238c14.824,-0.66 18.356,-76.991 19.377,-83.319c10.476,-64.875 6.985,-87.436 32.566,-139.857c25.11,-51.457 120.117,-55.484 119.031,-74.505Z" style="fill:#fff;"/><path d="M2276.55,289.472c-0.311,-5.433 -2.465,-10.872 -7.177,-15.872c-4.985,-5.289 -14.599,-10.74 -27.342,-15.53c-19.29,-7.25 -47.038,-14.329 -70.056,-23.691c-12.427,-5.054 -23.499,-10.362 -29.365,-17.625c-9.624,-11.916 -16.353,-36.261 -22.749,-63.39c-10.828,-45.92 -19.202,-99.515 -29.3,-126.047c-3.614,-9.495 -7.875,-16.289 -11.925,-20.157c-6.29,-6.008 -13.188,-7.768 -20.103,-6.605c-4.762,0.801 -9.826,3.343 -13.908,9.204c-2.99,4.293 -6.046,12.46 -8.138,23.74c-5.226,28.172 -7.472,81.284 -12.062,125.253c-2.693,25.799 -5.478,48.195 -11.476,57.946c-7.338,11.928 -21.387,18.881 -36.068,24.599c-18.115,7.056 -37.598,11.738 -52.105,17.022c-9.781,3.563 -17.68,7.632 -22.884,12.126c-6.004,5.186 -9.348,11.213 -10.384,17.789c-2.157,13.695 6.275,25.746 27.516,33.457c23.419,8.502 68.846,15.813 93.341,60.223c31.97,57.961 37.165,159.017 49.531,196.566c2.853,8.665 6.396,14.899 9.884,18.623c5.396,5.763 11.552,7.932 17.896,7.65c7.597,-0.338 16.749,-5.584 22.21,-18.447c8.975,-21.135 12.021,-73.537 12.881,-78.866c10.12,-62.676 6.376,-84.558 31.09,-135.204c7.185,-14.724 21.832,-24.161 37.198,-31.573c18.306,-8.83 38.041,-14.551 52.231,-19.884c12.069,-4.535 20.884,-9.627 25.194,-14.506c4.609,-5.217 6.406,-10.904 6.07,-16.801Zm-210.366,-227.339c7.67,30.976 14.842,74.193 24.019,110.272c7.201,28.306 16.089,52.433 26.476,65.294c7.61,9.422 20.343,17.711 35.751,24.585c19.482,8.692 43.483,15.547 63.469,22.025c5.782,1.874 11.194,3.706 15.977,5.564c-3.764,1.537 -7.843,3.118 -11.608,4.42c-18.9,6.531 -41.834,14.597 -60.683,26.992c-14.333,9.424 -26.355,21.312 -33.685,36.333c-26.447,54.198 -23.21,77.436 -34.04,144.509c-0.49,3.03 -1.542,22.252 -4.169,41.392c-9.485,-48.561 -18.81,-128.158 -46.138,-177.704c-25.774,-46.728 -69.203,-61.796 -99.337,-71.512c-3.02,-0.974 -6.359,-2.193 -9.42,-3.37c4.747,-1.911 10.258,-3.682 16.19,-5.511c18.356,-5.66 40.209,-11.737 58.348,-21.366c14.23,-7.554 26.26,-17.301 34.006,-29.893c5.18,-8.421 9.533,-23.762 12.563,-43.01c5.893,-37.438 8.243,-91.434 12.281,-129.02Z" style="fill:#7e4021;"/><path d="M47.253,877.058c50.508,40.103 161.831,93.209 408.374,126.928c152.891,20.91 358.571,34.61 635.268,33.477c277.808,-1.138 487.315,-15.102 644.645,-35.368c242.568,-31.246 362.73,-78.012 418.252,-115.834c7.602,-5.179 9.569,-15.556 4.391,-23.158c-5.179,-7.602 -15.556,-9.569 -23.158,-4.391c-53.545,36.476 -169.811,80.19 -403.743,110.323c-156.324,20.136 -364.493,33.964 -640.524,35.095c-274.669,1.125 -478.844,-12.413 -630.615,-33.17c-236.436,-32.336 -343.725,-81.549 -392.162,-120.007c-7.204,-5.72 -17.697,-4.515 -23.417,2.689c-5.719,7.204 -4.514,17.696 2.689,23.416Z" style="fill:#7e4021;"/><path d="M202.374,559.769c79.927,25.032 193.036,48.554 353.135,64.709c139.498,14.075 314.882,22.59 535.386,21.687c206.618,-0.846 375.439,-8.786 513.102,-21.135c145.242,-13.029 255.938,-30.983 339.831,-50.7c8.955,-2.105 14.516,-11.083 12.412,-20.038c-2.105,-8.954 -11.083,-14.516 -20.038,-12.411c-82.743,19.446 -191.932,37.099 -335.183,49.949c-136.901,12.281 -304.787,20.16 -510.261,21.002c-219.068,0.897 -393.312,-7.535 -531.903,-21.519c-157.088,-15.851 -268.095,-38.792 -346.519,-63.353c-8.778,-2.75 -18.137,2.145 -20.886,10.923c-2.749,8.779 2.145,18.137 10.924,20.886Z" style="fill:#7e4021;"/><path d="M114.153,1028.76c11.686,5.525 24.64,11.095 39.001,16.649c12.182,4.711 25.382,9.412 39.688,14.067c8.747,2.846 18.159,-1.945 21.005,-10.692c2.847,-8.747 -1.944,-18.16 -10.691,-21.006c-13.69,-4.454 -26.322,-8.951 -37.979,-13.459c-13.542,-5.237 -25.758,-10.484 -36.777,-15.694c-8.316,-3.932 -18.26,-0.372 -22.191,7.944c-3.932,8.316 -0.372,18.259 7.944,22.191Z" style="fill:#7e4021;"/><path d="M280.081,1087.91c27.65,5.882 57.835,11.515 90.788,16.8c28.313,4.54 58.673,8.825 91.229,12.791c9.131,1.113 17.447,-5.397 18.56,-14.528c1.112,-9.131 -5.398,-17.448 -14.529,-18.56c-32.111,-3.912 -62.056,-8.138 -89.981,-12.616c-32.352,-5.189 -61.986,-10.716 -89.131,-16.491c-8.997,-1.914 -17.856,3.837 -19.77,12.834c-1.914,8.998 3.837,17.856 12.834,19.77Z" style="fill:#7e4021;"/><path d="M565.514,1128.22c50.15,4.905 104.85,9.096 164.513,12.402c51.153,2.834 105.959,5.017 164.677,6.44c9.196,0.223 16.842,-7.062 17.065,-16.258c0.223,-9.196 -7.062,-16.843 -16.258,-17.066c-58.348,-1.414 -112.809,-3.582 -163.64,-6.398c-59.155,-3.278 -113.39,-7.432 -163.113,-12.295c-9.155,-0.895 -17.314,5.811 -18.21,14.966c-0.895,9.155 5.811,17.314 14.966,18.209Z" style="fill:#7e4021;"/><path d="M1090.89,1148.91c97.71,-0.4 186.964,-2.386 268.462,-5.675c100.825,-4.068 189.796,-10.13 268.241,-17.649c9.156,-0.877 15.878,-9.024 15,-18.18c-0.877,-9.157 -9.024,-15.879 -18.181,-15.001c-77.907,7.467 -166.269,13.484 -266.404,17.524c-81.132,3.274 -169.984,5.25 -267.255,5.648c-9.198,0.038 -16.636,7.536 -16.598,16.735c0.038,9.198 7.536,16.636 16.735,16.598Z" style="fill:#7e4021;"/><path d="M1711.26,1116.57c78.396,-9.453 144.53,-20.452 200.194,-32.264c52.637,-11.169 95.974,-23.079 131.512,-35.104c8.713,-2.948 13.393,-12.416 10.445,-21.129c-2.948,-8.714 -12.416,-13.394 -21.129,-10.446c-34.519,11.68 -76.62,23.223 -127.747,34.072c-54.849,11.638 -120.017,22.463 -197.265,31.777c-9.133,1.101 -15.653,9.41 -14.552,18.542c1.101,9.133 9.41,15.653 18.542,14.552Z" style="fill:#7e4021;"/><path d="M13.883,796.661c52.076,40.103 166.942,93.202 421.419,126.884c157.523,20.85 369.316,34.499 654.081,33.368c286.014,-1.136 501.797,-15.063 663.909,-35.284c250.285,-31.219 374.242,-77.967 431.482,-115.787c7.674,-5.071 9.788,-15.418 4.718,-23.093c-5.071,-7.675 -15.419,-9.789 -23.094,-4.718c-55.302,36.54 -175.42,80.359 -417.232,110.521c-161.137,20.099 -375.623,33.899 -659.915,35.028c-282.802,1.123 -493.138,-12.374 -649.575,-33.08c-244.534,-32.366 -355.413,-81.713 -405.455,-120.249c-7.288,-5.613 -17.761,-4.252 -23.374,3.036c-5.612,7.288 -4.252,17.761 3.036,23.374Z" style="fill:#7e4021;"/><path d="M3.834,3455.62c49.78,83.453 156.213,191.544 385.794,265.483c162.082,52.201 386.383,87.585 696.843,84.901c306.954,-2.655 533.512,-37.24 699.914,-86.377c231.071,-68.234 347.614,-165.044 402.867,-244.518c5.251,-7.553 3.382,-17.947 -4.17,-23.198c-7.553,-5.251 -17.948,-3.382 -23.199,4.17c-52.669,75.757 -164.673,166.534 -384.938,231.577c-164.219,48.493 -387.834,82.394 -690.762,85.014c-305.762,2.644 -526.708,-31.887 -686.336,-83.297c-218.077,-70.234 -320.101,-171.561 -367.386,-250.831c-4.712,-7.9 -14.952,-10.488 -22.852,-5.776c-7.9,4.713 -10.487,14.952 -5.775,22.852Z" style="fill:#7e4021;"/></g></svg>