<?xml version="1.0" encoding="UTF-8" standalone="no"?><!DOCTYPE svg PUBLIC "-//W3C//DTD SVG 1.1//EN" "http://www.w3.org/Graphics/SVG/1.1/DTD/svg11.dtd"><svg width="100%" height="100%" viewBox="0 0 1447 1649" version="1.1" xmlns="http://www.w3.org/2000/svg" xmlns:xlink="http://www.w3.org/1999/xlink" xml:space="preserve" xmlns:serif="http://www.serif.com/" style="fill-rule:evenodd;clip-rule:evenodd;stroke-linejoin:round;stroke-miterlimit:2;"><g id="Coffee-Bean-02" serif:id="Coffee Bean-02"><path d="M1112.01,1486.9c58.185,-9.841 113.906,-48.061 155.282,-88.312c126.154,-122.72 173.565,-298.988 160.739,-470.729c-27.762,-371.748 -439.145,-1036.25 -909.017,-889.98c-125.099,38.943 -149.172,172.86 -221.391,170.434c-70.113,-2.355 -162.967,61.404 -219.361,147.145c-218.717,332.539 188.612,1125.62 627.452,1259.26c136.5,41.569 295.176,11.501 406.296,-127.813Z" style="fill:#c48464;"/><path d="M1121.1,1502.16c59.131,-11.957 115.638,-50.601 157.81,-91.625c129.728,-126.199 178.927,-307.31 165.738,-483.918c-16.906,-226.377 -173.72,-559.854 -399.678,-758.241c-152.944,-134.282 -337.241,-206.7 -530.914,-146.41c-78.747,24.513 -119.944,84.163 -156.183,127.999c-10.53,12.737 -20.532,23.975 -31.31,31.815c-8.663,6.3 -17.768,10.233 -28.385,9.876c-74.416,-2.5 -173.99,63.64 -233.845,154.644c-89.845,136.601 -78.587,348.872 -1.773,563.207c113.96,317.986 370.85,639.705 638.294,721.15c140.898,42.908 304.45,12.771 420.246,-128.497Zm-11.873,-31.694c-4.044,0.684 -7.693,2.835 -10.25,6.041c-106.235,133.189 -257.913,162.004 -388.412,122.262c-259.164,-78.923 -506.194,-392.366 -616.626,-700.507c-72.782,-203.085 -86.886,-404.214 -1.757,-533.645c32.3,-49.109 77.071,-90.725 122.223,-115.625c28.596,-15.77 57.222,-24.876 82.654,-24.021c33.702,1.132 59.639,-21.27 86.505,-53.768c32.846,-39.73 69.027,-95.192 140.4,-117.41c182.226,-56.726 355.109,13.287 499.013,139.632c219.313,192.553 372.021,515.955 388.43,735.675c12.462,166.874 -33.162,338.299 -155.74,457.542c-39.083,38.019 -91.481,74.53 -146.44,83.824Z" style="fill:#7e4021;"/><path d="M1121.04,1500.86c24.876,-48.059 24.037,-90.663 17.11,-138.053c-13.205,-90.339 -48.025,-163.422 -88.174,-242.017c-38.898,-76.147 -82.828,-157.677 -115.452,-266.862c-2.633,-8.813 -11.926,-13.831 -20.74,-11.197c-8.814,2.633 -13.831,11.926 -11.198,20.74c33.303,111.459 77.998,194.75 117.706,272.483c38.458,75.285 72.226,145.139 84.875,231.675c5.912,40.439 7.498,76.899 -13.73,117.909c-4.228,8.169 -1.029,18.234 7.141,22.462c8.169,4.229 18.234,1.03 22.462,-7.14Z" style="fill:#7e4021;"/><path d="M290.767,225.512c173.311,-6.136 249.729,97.397 349.844,238.358c5.327,7.5 15.74,9.264 23.239,3.938c7.5,-5.327 9.264,-15.74 3.938,-23.239c-107.528,-151.399 -192.057,-258.96 -378.201,-252.37c-9.193,0.326 -16.392,8.053 -16.066,17.246c0.325,9.193 8.053,16.392 17.246,16.067Z" style="fill:#7e4021;"/></g></svg>