<?xml version="1.0" encoding="UTF-8" standalone="no"?><!DOCTYPE svg PUBLIC "-//W3C//DTD SVG 1.1//EN" "http://www.w3.org/Graphics/SVG/1.1/DTD/svg11.dtd"><svg width="100%" height="100%" viewBox="0 0 2513 3614" version="1.1" xmlns="http://www.w3.org/2000/svg" xmlns:xlink="http://www.w3.org/1999/xlink" xml:space="preserve" xmlns:serif="http://www.serif.com/" style="fill-rule:evenodd;clip-rule:evenodd;stroke-linejoin:round;stroke-miterlimit:2;"><g id="Coffee-Bag-04-Pink" serif:id="Coffee Bag-04-Pink"><path d="M890.893,3584.45c-103.535,32.7 -336.352,-3.829 -414.704,-43.741c-102.635,-52.283 -120.738,-24.942 -196.747,-15.294c-131.952,16.749 -229.311,39.645 -256.963,-126.265c-30.295,-181.771 77.475,-469.57 106.403,-652.782c81.668,-517.229 202.148,-800.406 209.942,-1325.3c6.215,-418.53 69.944,-824.378 173.58,-906.618c4.978,-3.95 64.501,568.918 78.799,737.136c62.678,737.391 306.694,1950.38 299.69,2332.87Z" style="fill:#f8a5b0;"/><path d="M895.912,3600.34c6.826,-2.156 11.513,-8.43 11.644,-15.588c7.01,-382.767 -237.022,-1596.66 -299.746,-2334.58c-12.887,-151.607 -62.467,-631.436 -75.886,-723.003c-1.24,-8.462 -2.299,-14.039 -2.962,-16.336c-1.069,-3.706 -2.622,-5.809 -3.436,-6.815c-3.635,-4.493 -7.83,-5.749 -11.077,-6.138c-4.268,-0.512 -8.481,0.398 -12.406,3.512c-32.831,26.054 -62.816,82.353 -87.561,161.052c-55.021,174.997 -87.945,463.547 -92.323,758.374c-7.781,523.977 -128.215,806.631 -209.74,1322.95c-17.331,109.765 -63.032,257.119 -90.263,396.65c-18.601,95.314 -28.515,187.081 -16.117,261.472c12.19,73.138 38.048,112.241 72.344,132.544c20.936,12.394 45.393,17.917 72.974,19.018c37.695,1.504 81.655,-5.343 130.184,-11.503c72.249,-9.171 89.525,-36.085 187.083,13.61c80.724,41.121 320.619,78.474 427.288,44.784Zm-394.483,-3050.11c16.164,124.169 61.016,559.798 73.167,702.758c61.972,729.079 301.503,1923.41 299.771,2318.78l-0,0c-105.207,25.883 -317.412,-8.623 -390.613,-45.911c-107.715,-54.87 -126.639,-27.103 -206.41,-16.977c-45.238,5.742 -86.316,12.331 -121.777,11.36c-31.403,-0.859 -58.082,-7.629 -78.215,-28.933c-18.174,-19.231 -30.855,-49.431 -38.433,-94.898c-11.838,-71.026 -1.807,-158.605 15.953,-249.607c27.312,-139.943 73.09,-287.747 90.473,-397.836c81.811,-518.136 202.336,-801.836 210.144,-1327.65c4.323,-291.115 36.464,-576.077 90.792,-748.871c16.56,-52.668 34.739,-94.653 55.148,-122.205Z" style="fill:#7e4021;"/><path d="M418.742,3499.57c-37.238,-59.928 -56.094,-141.222 -62.661,-210.463c-16.211,-170.917 36.943,-346.492 48.273,-517.381c0.609,-9.178 -6.349,-17.124 -15.528,-17.732c-9.178,-0.609 -17.124,6.349 -17.732,15.527c-11.446,172.639 -64.575,350.065 -48.198,522.733c7.023,74.045 27.712,160.822 67.533,224.909c4.855,7.813 15.14,10.215 22.953,5.36c7.813,-4.855 10.215,-15.14 5.36,-22.953Z" style="fill:#7e4021;"/><path d="M415.251,2559.38c0.292,-14.766 0.949,-29.541 1.887,-44.278c2.593,-40.774 4.967,-81.569 7.265,-122.36c7.211,-127.987 -3.042,-252.877 -7.369,-380.514c-0.312,-9.193 -8.029,-16.404 -17.222,-16.092c-9.193,0.311 -16.404,8.028 -16.092,17.221c4.292,126.63 14.556,250.533 7.403,377.51c-2.294,40.711 -4.663,81.425 -7.252,122.118c-0.968,15.223 -1.645,30.484 -1.947,45.736c-0.182,9.197 7.137,16.811 16.334,16.993c9.197,0.182 16.811,-7.137 16.993,-16.334Z" style="fill:#7e4021;"/><path d="M481.004,569.427c34.504,-188.129 822.526,-381.266 1280.35,-505.532c80.781,-21.927 224.247,-82.184 299.321,-16.495c155.045,135.665 32.565,617.637 51.462,805.154c67.989,674.66 401.091,1718.98 383.402,1913.56c-36.08,396.877 -1326.11,806.942 -1634.52,818.584c-314.748,11.881 -242.104,-872.552 -303.325,-1342.64c-38.052,-292.18 -109.845,-720.959 -115.384,-1016.37c-4.181,-222.991 -1.416,-437.559 38.695,-656.256Z" style="fill:#f8bcc4;"/><path d="M464.61,566.42c-40.313,219.805 -43.167,435.455 -38.964,659.576c5.549,295.944 77.4,725.503 115.52,1018.21c42.963,329.9 20.524,863.31 111.212,1149.6c41.574,131.242 108.011,211.368 209.269,207.546c217.206,-8.2 918.47,-212.481 1332.06,-471.477c107.622,-67.394 195.855,-138.604 251.72,-210.831c38.766,-50.119 62.123,-100.952 66.711,-151.422c5.381,-59.185 -20.743,-195.998 -62.523,-376.885c-96.019,-415.717 -273.365,-1068.22 -320.894,-1539.85c-11.302,-112.149 28.303,-329.952 28.273,-515.468c-0.012,-76.433 -6.725,-147.517 -25.689,-204.21c-13.339,-39.879 -32.781,-72.833 -59.654,-96.347c-33.32,-29.154 -78.549,-36.854 -126.844,-32.956c-66.341,5.355 -138.569,32.541 -187.818,45.909c-321.318,87.215 -804.812,208.406 -1077.88,337.884c-71.938,34.11 -129.502,68.98 -166.433,103.789c-27.06,25.506 -43.388,51.45 -48.063,76.937l0,0Zm32.787,6.013c3.607,-19.665 17.259,-39.013 38.139,-58.693c34.976,-32.967 89.721,-65.623 157.851,-97.927c271.643,-128.801 752.697,-249.075 1072.33,-335.834c47.689,-12.944 117.531,-39.667 181.769,-44.853c38.76,-3.129 75.47,1.418 102.211,24.817c22.742,19.899 38.705,48.088 49.993,81.835c17.978,53.745 23.956,121.183 23.968,193.641c0.03,186.71 -39.48,405.935 -28.105,518.806c47.656,472.893 225.304,1127.18 321.581,1544.01c40.632,175.919 67.038,308.806 61.805,366.366c-4.071,44.781 -25.486,89.577 -59.882,134.046c-53.875,69.654 -139.256,137.98 -243.044,202.974c-408.561,255.847 -1101.06,458.319 -1315.63,466.418c-87.607,3.307 -140.265,-70.753 -176.234,-184.302c-90.228,-284.838 -67.189,-815.611 -109.935,-1143.84c-37.983,-291.654 -109.718,-719.651 -115.247,-1014.53c-4.16,-221.862 -1.483,-435.348 38.424,-652.937l-0,-0.001Z" style="fill:#7e4021;"/><path d="M494.881,1776.86c-11.943,-50.46 -22.531,-224.078 -30.137,-292.924c44.406,-20.862 104.13,-49.12 151.039,-66.589c608.036,-226.434 1246.53,83.466 1426.11,692.182l-275.237,102.498c-134.686,-456.536 -613.554,-688.962 -1069.58,-519.136c-53.369,19.875 -154.499,55.461 -202.192,83.969Z" style="fill:#fee4a8;"/><path d="M478.663,1780.7c1.223,5.169 4.838,9.445 9.731,11.513c4.893,2.068 10.479,1.679 15.038,-1.046c47.034,-28.114 146.827,-63.057 199.458,-82.656c446.678,-166.344 915.854,61.056 1047.78,508.233c1.307,4.433 4.397,8.124 8.531,10.191c4.133,2.067 8.94,2.325 13.271,0.712l275.236,-102.499c8.205,-3.055 12.647,-11.937 10.17,-20.334c-182.343,-618.076 -830.525,-933.001 -1447.91,-703.085c-47.301,17.615 -107.534,46.087 -152.31,67.123c-6.452,3.031 -10.261,9.83 -9.479,16.915c7.659,69.322 18.459,244.124 30.485,294.933Zm28.414,-29.421c-9.565,-62.537 -17.996,-191.692 -24.526,-257.295c42.603,-20.019 96.21,-45.064 139.048,-61.017c593.715,-221.101 1217.04,76.895 1399.81,666.406c-0,0 -243.994,90.864 -243.994,90.864c-144.227,-454.596 -626.5,-684.141 -1086.16,-512.964c-47.261,17.6 -131.417,47.469 -184.18,74.006l0,0Z" style="fill:#7e4021;"/><path d="M547.783,2124.4c-2.219,-11.787 -43.352,-230.638 -51.932,-344.777c44.178,-25.333 148.145,-82.984 196.965,-101.164c463.988,-172.791 951.216,63.692 1088.25,528.199l-307.247,114.42c-86.921,-294.63 -395.961,-444.627 -690.262,-335.029c-61.063,22.74 -186.729,99.076 -235.777,138.351Z" style="fill:#dae1a4;"/><path d="M531.405,2127.49c1.082,5.751 5.102,10.512 10.589,12.545c5.488,2.032 11.639,1.038 16.207,-2.62c48.099,-38.515 171.293,-113.441 231.176,-135.741c284.951,-106.116 584.3,38.856 668.459,324.126c1.308,4.432 4.398,8.123 8.531,10.19c4.134,2.067 8.94,2.325 13.271,0.712l307.248,-114.419c8.204,-3.055 12.646,-11.938 10.169,-20.335c-139.799,-473.866 -636.718,-715.374 -1110.06,-539.102c-49.422,18.405 -154.716,76.679 -199.439,102.324c-5.571,3.195 -8.811,9.305 -8.329,15.708c8.625,114.746 49.942,334.763 52.174,346.612Zm27.88,-32.544c-11.151,-61.151 -37.82,-212.641 -45.963,-306.099c47.508,-26.997 140.212,-77.969 185.31,-94.763c449.665,-167.456 921.728,57.132 1061.92,502.436c-0,-0 -214.284,79.8 -276.063,102.806c-96.383,-292.7 -408.824,-439.836 -706.746,-328.89c-54.53,20.307 -159.628,82.49 -218.459,124.51l-0,0Z" style="fill:#7e4021;"/><path d="M584.214,2518.2c-9.241,-130.007 -43.178,-405.752 -38.138,-435.951c58.503,-51.555 149.028,-110.072 225.038,-138.378c317.574,-118.265 651.054,43.594 744.848,361.523l-287.509,107.069c-46.897,-158.965 -213.637,-239.894 -372.424,-180.762c-118.432,44.105 -257.976,167.7 -271.815,286.499Z" style="fill:#a8ccf1;"/><path d="M567.59,2519.38c0.609,8.581 7.649,15.288 16.249,15.481c8.6,0.194 15.935,-6.189 16.93,-14.734c5.196,-44.607 29.664,-89.744 63.8,-130.728c52.691,-63.261 128.636,-116.518 197.276,-142.08c149.438,-55.651 306.486,20.254 350.622,169.859c1.308,4.432 4.398,8.123 8.531,10.19c4.134,2.067 8.94,2.325 13.271,0.712l287.51,-107.069c8.204,-3.055 12.646,-11.937 10.169,-20.334c-96.556,-327.289 -439.727,-494.173 -766.65,-372.426c-77.755,28.956 -170.396,88.755 -230.241,141.493c-2.876,2.533 -4.79,5.98 -5.421,9.76c-5.084,30.468 28.63,308.712 37.954,439.876Zm26.2,-84.207c-12.473,-130.423 -32.977,-305.365 -31.715,-344.758c57.226,-49.284 142.714,-104.06 214.856,-130.926c303.244,-112.929 621.554,37.054 718.452,335.782c-0,0 -256.473,95.512 -256.473,95.512c-56.177,-157.062 -226.306,-235.176 -388.698,-174.702c-73.477,27.364 -154.852,84.266 -211.255,151.985c-17.888,21.476 -33.248,44.047 -45.166,67.107l-0.001,0Z" style="fill:#7e4021;"/><path d="M1619.85,2014.1c86.891,-123.378 238.921,-152.98 330.253,-58.005c27.96,29.074 69.34,103.902 69.34,103.902c0,-0 178.239,33.583 200.532,159.537c9.053,51.149 1.478,111.785 -30.757,156.424c-68.973,95.514 -196.415,111.256 -196.415,111.256c-0,0 -11.325,146.979 -160.197,220.792c-3.438,1.704 -6.901,3.354 -10.402,4.899c-17.977,7.936 -36.145,12.794 -55.128,16.146c-123.419,21.797 -215.451,-68.892 -215.451,-68.892c-0,-0 -71.717,79.916 -181.631,94.913c-102.274,13.953 -159.222,-27.083 -169.567,-36.372c-97.818,-87.831 -14.876,-182.853 -14.876,-182.853c-0,-0 -152.231,-32.886 -160.411,-145.003c-1.244,-17.046 0.519,-33.504 4.947,-50.386c11.018,-42.014 35.415,-80.306 67.629,-109.778c51.127,-46.774 163.67,-82.18 163.67,-82.18c-0,-0 44.093,-117.975 156.428,-168.566c51.742,-23.302 152.351,-9.758 202.036,34.166Z" style="fill:#fff;"/><path d="M1616.61,1990.54c-26.004,-17.745 -60.055,-29.788 -94.406,-35.203c-41.355,-6.52 -82.948,-3.343 -111.229,9.393c-101.008,45.49 -149.789,142.553 -162.038,170.347c-26.558,9.073 -117.4,42.071 -162.466,83.299c-34.569,31.626 -60.678,72.762 -72.501,117.847c-4.905,18.704 -6.825,36.941 -5.447,55.826c3.663,50.219 32.67,86.521 66.718,111.67c29.262,21.613 62.083,34.767 83.52,41.803c-12.431,21.246 -27.557,56.908 -21.143,97.54c4.411,27.935 18.735,58.452 51.679,88.032c11.177,10.036 72.45,55.561 182.955,40.484c89.326,-12.187 154.744,-65.011 180.152,-88.711c30.411,24.567 113.565,80.959 217.576,62.59c20.306,-3.587 39.73,-8.823 58.96,-17.312c3.726,-1.645 7.414,-3.399 11.074,-5.214c130.268,-64.588 160.904,-182.234 167.633,-221.382c35.353,-7.032 135.668,-33.555 195.088,-115.84c34.861,-48.275 43.447,-113.771 33.657,-169.087c-9.778,-55.246 -46.433,-94.635 -87.48,-121.595c-46.962,-30.844 -99.268,-45.168 -118.629,-49.724c-11.078,-19.356 -44.372,-76.03 -68.162,-100.768c-94.762,-98.541 -250.626,-74.784 -345.511,46.005Zm-7.794,36.04c3.551,3.139 8.271,4.618 12.978,4.066c4.708,-0.551 8.958,-3.081 11.687,-6.956c80.262,-113.965 220.25,-143.779 304.614,-56.05c26.991,28.068 66.768,100.416 66.768,100.416c2.403,4.345 6.619,7.393 11.499,8.312c0,0 60.929,11.499 114.251,46.521c33.818,22.211 64.899,54.025 72.956,99.543c8.315,46.984 1.752,102.758 -27.858,143.762c-64.903,89.877 -184.947,104.472 -184.947,104.472c-7.869,0.973 -13.965,7.355 -14.574,15.261c0,0 -11.093,137.781 -150.983,207.14c-3.216,1.594 -6.454,3.138 -9.729,4.584c-16.723,7.382 -33.637,11.862 -51.295,14.98c-115.079,20.324 -200.855,-64.351 -200.855,-64.351c-3.245,-3.197 -7.656,-4.927 -12.21,-4.787c-4.553,0.14 -8.85,2.137 -11.892,5.527c-0,0 -67.729,75.375 -171.48,89.531c-94.048,12.831 -146.666,-23.718 -156.179,-32.259c-25.748,-23.119 -37.576,-46.594 -41.023,-68.428c-7.983,-50.564 27.568,-91.064 27.568,-91.064c3.879,-4.444 5.12,-10.608 3.263,-16.206c-1.856,-5.599 -6.534,-9.8 -12.3,-11.045c0,-0 -51.318,-11.095 -94.03,-42.643c-26.765,-19.769 -50.397,-47.805 -53.277,-87.282c-1.11,-15.206 0.496,-29.885 4.445,-44.945c10.213,-38.943 32.899,-74.392 62.758,-101.709c49.117,-44.935 157.421,-78.579 157.421,-78.579c4.898,-1.541 8.813,-5.254 10.61,-10.063c0,-0 41.592,-111.435 147.661,-159.204c23.462,-10.566 58.042,-12.269 92.35,-6.861c34.588,5.453 69.089,18.237 91.803,38.317Z" style="fill:#7e4021;"/><path d="M1465.92,2403.01c27.471,85.47 102.646,109.635 171.797,92.19c67.782,-17.1 128.975,-75.126 131.621,-153.26c0.311,-9.193 -6.9,-16.91 -16.093,-17.221c-9.193,-0.312 -16.91,6.899 -17.221,16.093c-2.122,62.644 -52.117,108.357 -106.461,122.067c-52.976,13.364 -110.863,-4.592 -131.908,-70.069c-2.815,-8.757 -12.21,-13.582 -20.967,-10.767c-8.758,2.815 -13.582,12.21 -10.768,20.967Z" style="fill:#7d3f21;"/><path d="M1492.96,2218.25c1.644,25.923 3.594,51.808 5.245,77.726c0.584,9.18 8.512,16.159 17.692,15.574c9.18,-0.584 16.158,-8.512 15.574,-17.692c-1.65,-25.915 -3.601,-51.797 -5.244,-77.717c-0.582,-9.18 -8.508,-16.161 -17.688,-15.579c-9.18,0.582 -16.161,8.508 -15.579,17.688Z" style="fill:#7d3f21;"/><path d="M1676.3,2177.13c1.643,25.922 3.594,51.808 5.244,77.726c0.584,9.18 8.512,16.158 17.692,15.574c9.18,-0.585 16.158,-8.512 15.574,-17.692c-1.65,-25.916 -3.601,-51.798 -5.244,-77.717c-0.582,-9.181 -8.508,-16.161 -17.688,-15.579c-9.18,0.582 -16.16,8.507 -15.578,17.688Z" style="fill:#7d3f21;"/><path d="M743.752,3315.01c1.53,11.411 4.321,22.635 8.113,33.499c8.045,23.05 20.288,45.479 34.63,65.176c45.216,62.099 123.543,80.317 194.384,72.387c9.141,-1.023 15.732,-9.276 14.709,-18.417c-1.023,-9.142 -9.276,-15.732 -18.417,-14.709c-59.424,6.652 -125.8,-6.791 -163.729,-58.881c-12.448,-17.096 -23.123,-36.536 -30.106,-56.541c-3.05,-8.74 -5.316,-17.764 -6.546,-26.943c-1.222,-9.117 -9.616,-15.526 -18.734,-14.304c-9.117,1.222 -15.526,9.616 -14.304,18.733Z" style="fill:#7e4021;"/><path d="M1071.51,3470.51c27.717,-3.084 93.566,-26.12 121.308,-29.01c9.149,-0.953 15.803,-9.155 14.85,-18.304c-0.953,-9.149 -9.154,-15.803 -18.304,-14.85c-27.793,2.895 -93.771,25.946 -121.54,29.035c-9.142,1.017 -15.738,9.265 -14.721,18.407c1.017,9.143 9.265,15.739 18.407,14.722Z" style="fill:#7e4021;"/><path d="M758.47,1121.31c82.499,-10.587 564.56,-147.138 720.144,-194.677c8.797,-2.688 13.757,-12.013 11.069,-20.81c-2.688,-8.797 -12.012,-13.757 -20.809,-11.069c-154.414,47.182 -632.769,182.987 -714.646,193.494c-9.124,1.171 -15.581,9.528 -14.41,18.652c1.171,9.124 9.529,15.581 18.652,14.41Z" style="fill:#7e4021;"/><path d="M1628.64,889.112c98.889,-35.056 236.33,-67.918 304.339,-96.607c8.475,-3.575 12.453,-13.359 8.878,-21.834c-3.575,-8.475 -13.359,-12.454 -21.834,-8.878c-67.595,28.513 -204.235,61.059 -302.521,95.902c-8.67,3.073 -13.213,12.607 -10.14,21.277c3.074,8.67 12.608,13.214 21.278,10.14Z" style="fill:#7e4021;"/></g></svg>