<?xml version="1.0" encoding="UTF-8" standalone="no"?><!DOCTYPE svg PUBLIC "-//W3C//DTD SVG 1.1//EN" "http://www.w3.org/Graphics/SVG/1.1/DTD/svg11.dtd"><svg width="100%" height="100%" viewBox="0 0 1462 1722" version="1.1" xmlns="http://www.w3.org/2000/svg" xmlns:xlink="http://www.w3.org/1999/xlink" xml:space="preserve" xmlns:serif="http://www.serif.com/" style="fill-rule:evenodd;clip-rule:evenodd;stroke-linejoin:round;stroke-miterlimit:2;"><g id="Coffee-Bean-09" serif:id="Coffee Bean-09"><path d="M1084.56,46.102c-142.258,-18.582 -154.188,23.347 -258.979,15.363c-54.649,-4.163 -74.139,-29.209 -177.943,-41.804c-260.24,-31.577 -484.881,261.592 -576.036,486.837c-160.386,396.315 53.424,1009.81 346.915,1152.39c103.771,50.412 162.534,8.901 236.797,13.219c94.656,5.504 139.516,63.021 314.985,11.312c235.016,-69.258 406.95,-389.551 452.05,-618.567c74.477,-378.191 -36.431,-979.386 -337.789,-1018.75Z" style="fill:#d9905f;"/><path d="M1086.71,29.576c-73.908,-9.654 -113.96,-3.514 -149.147,3.927c-32.485,6.87 -60.462,15.173 -110.725,11.344c-20.276,-1.545 -35.312,-6.281 -52.244,-12.045c-28.138,-9.579 -60.956,-21.921 -124.958,-29.687c-108.407,-13.154 -211.053,27.269 -301.073,96.165c-131.993,101.023 -236.742,263.386 -292.42,400.966c-97.797,241.658 -59.305,562.813 52.052,812.339c74.856,167.735 182.73,302.854 303.03,361.296c66.247,32.183 115.234,29.303 160.908,22.725c27.504,-3.962 53.655,-9.518 82.205,-7.858c36.698,2.133 65.639,12.499 98.084,20.764c52.281,13.317 112.957,22.201 222.579,-10.104c97.036,-28.596 183.914,-98.296 255.901,-187.197c106.351,-131.339 180.28,-304.441 207.791,-444.137c45.255,-229.806 22.834,-540.908 -68.196,-761.638c-62.539,-151.645 -157.982,-260.426 -283.787,-276.86l0,0Zm-4.317,33.053c115.285,15.059 199.979,117.551 257.288,256.515c88.74,215.176 110.423,518.466 66.306,742.49c-26.61,135.123 -98.12,302.56 -200.99,429.6c-67.493,83.351 -148.441,149.389 -239.418,176.2c-100.941,29.746 -156.789,22.038 -204.929,9.776c-34.503,-8.789 -65.351,-19.47 -104.378,-21.74c-30.861,-1.794 -59.16,3.861 -88.891,8.143c-40.18,5.787 -83.312,8.597 -141.59,-19.714c-114.493,-55.622 -215.913,-185.26 -287.156,-344.899c-107.792,-241.536 -146.258,-552.329 -51.593,-786.249c53.709,-132.714 154.456,-289.551 281.781,-387c82.86,-63.418 177.013,-101.653 276.798,-89.545c60.563,7.349 91.604,19.086 118.231,28.151c19.578,6.664 37.01,11.941 60.453,13.727c44.014,3.353 72.43,-1.64 100.241,-7.637c38.35,-8.27 75.451,-18.581 157.847,-7.818l-0,-0Z" style="fill:#7e4021;"/><path d="M765.307,218.16c-38.02,69.219 -125.278,176.856 -126.851,309.077c-1.036,87.12 31.568,147.908 56.68,209.079c22.91,55.81 38.84,112.079 8.719,193.458c-61.681,166.64 -176.897,298.673 -56.362,602.196c3.395,8.549 13.092,12.733 21.641,9.338c8.549,-3.395 12.733,-13.092 9.338,-21.641c-115.803,-291.61 -2.616,-418.223 56.643,-578.322c33.89,-91.559 16.634,-154.897 -9.143,-217.687c-23.575,-57.429 -55.158,-114.233 -54.185,-196.024c1.498,-125.875 86.541,-227.529 122.737,-293.427c4.428,-8.062 1.478,-18.203 -6.585,-22.632c-8.062,-4.428 -18.203,-1.478 -22.632,6.585Z" style="fill:#7e4021;"/><path d="M72.314,802.548c-0.949,14.382 -1.374,28.765 -1.205,43.179c0.479,40.896 9.88,116.814 19.119,156.57c2.082,8.96 11.047,14.543 20.007,12.461c8.96,-2.082 14.543,-11.047 12.461,-20.007c-8.817,-37.939 -17.799,-110.387 -18.256,-149.414c-0.159,-13.551 0.243,-27.074 1.135,-40.594c0.606,-9.179 -6.354,-17.122 -15.533,-17.728c-9.179,-0.605 -17.122,6.355 -17.728,15.533Z" style="fill:#7e4021;"/><path d="M102.047,1066.36c4.513,17.172 9.467,34.253 15.481,50.963c3.115,8.655 12.671,13.153 21.326,10.038c8.655,-3.115 13.153,-12.671 10.038,-21.326c-5.682,-15.785 -10.343,-31.926 -14.606,-48.147c-2.338,-8.897 -11.459,-14.221 -20.355,-11.883c-8.897,2.338 -14.222,11.459 -11.884,20.355Z" style="fill:#7e4021;"/></g></svg>