<?xml version="1.0" encoding="UTF-8" standalone="no"?><!DOCTYPE svg PUBLIC "-//W3C//DTD SVG 1.1//EN" "http://www.w3.org/Graphics/SVG/1.1/DTD/svg11.dtd"><svg width="100%" height="100%" viewBox="0 0 1813 2136" version="1.1" xmlns="http://www.w3.org/2000/svg" xmlns:xlink="http://www.w3.org/1999/xlink" xml:space="preserve" xmlns:serif="http://www.serif.com/" style="fill-rule:evenodd;clip-rule:evenodd;stroke-linejoin:round;stroke-miterlimit:2;"><g id="Cortado"><path d="M95.447,135.545c-33.251,48.832 -55.403,123.711 -69.549,206.954c-20.689,121.742 -24.759,261.531 -24.998,360.289c-1.141,471.897 40.424,747.722 210.834,1124.28c36.926,81.596 125.33,199.879 195.391,235.688c118.292,60.461 402.23,85.67 650.275,65.534c166.872,-13.547 317.355,-47.99 391.64,-103.923c89.882,-67.676 145.706,-191.773 193.69,-289.704c151.474,-309.145 186.618,-916.719 163.831,-1283.79c-6.893,-111.038 -19.137,-200.223 -34.815,-252.918c-7.671,-25.783 -16.759,-43.59 -25.786,-52.742c-35.683,-36.178 -105.606,-63.874 -190.896,-83.898c-191.285,-44.907 -461.006,-54.273 -569.533,-58.802c-165.681,-6.914 -494.657,4.476 -702.604,49.296c-54.754,11.802 -101.274,25.995 -134.688,42.598c-24.736,12.292 -42.66,26.255 -52.792,41.135l-0,-0Zm27.552,18.761c7.583,-11.136 21.561,-20.846 40.073,-30.045c31.458,-15.631 75.33,-28.753 126.879,-39.864c205.453,-44.283 530.496,-55.408 694.19,-48.577c107.336,4.479 374.118,13.534 563.304,57.949c77.771,18.258 142.246,41.865 174.783,74.854c9.154,9.281 16.454,31.102 23.709,62.275c12.196,52.406 21.605,129.423 27.354,222.043c22.488,362.24 -11.012,961.975 -160.494,1267.05c-45.859,93.594 -97.906,213.064 -183.807,277.742c-70.901,53.385 -215.018,84.398 -374.287,97.328c-241.164,19.578 -517.397,-3.208 -632.408,-61.991c-65.034,-33.24 -145.916,-144.008 -180.193,-219.751c-168.304,-371.904 -208.996,-644.388 -207.869,-1110.45c0.236,-97.248 4.155,-234.905 24.527,-354.785c13.228,-77.837 33.148,-148.117 64.239,-193.778l0,-0Z" style="fill:#7e4021;"/><path d="M219.124,232.83c-28.24,43.081 -47.102,109.134 -59.116,182.574c-17.521,107.093 -20.971,230.062 -21.173,316.937c-0.97,416.405 50.144,639.308 208.557,894.481c133.634,215.259 406.892,280.85 595.026,275.863c188.415,-4.995 414.222,-93.413 533.96,-305.631c147.864,-262.067 197.754,-779.145 188.674,-1092.55c-2.751,-94.963 -10.962,-171.385 -23.222,-216.783c-6.13,-22.703 -13.842,-38.443 -21.674,-46.692c-30.456,-32.076 -90.064,-56.737 -162.861,-74.49c-162.07,-39.524 -390.593,-47.787 -482.545,-51.773c-140.392,-6.086 -419.156,3.952 -595.364,43.404c-46.622,10.439 -86.224,23.012 -114.675,37.697c-21.38,11.036 -36.829,23.598 -45.587,36.958Zm27.878,18.274c6.233,-9.509 17.78,-17.756 32.998,-25.611c26.445,-13.65 63.335,-25.088 106.669,-34.79c173.622,-38.873 448.305,-48.626 586.638,-42.63c90.717,3.933 316.196,11.862 476.091,50.856c65.19,15.897 119.312,36.333 146.585,65.057c7.551,7.953 13.011,26.319 18.332,52.36c9.151,44.79 15.136,110.379 17.418,189.129c8.934,308.362 -38.899,817.344 -184.386,1075.2c-113.346,200.889 -327.456,283.961 -505.812,288.689c-178.636,4.735 -438.936,-55.73 -565.824,-260.122c-155.249,-250.079 -204.493,-468.73 -203.543,-876.822c0.199,-85.42 3.509,-206.334 20.736,-311.633c11.15,-68.156 27.89,-129.701 54.098,-169.682Z" style="fill:#7e4021;"/><path d="M572.394,656.884c-112.506,-21.821 -216.034,15.795 -274.751,11.692c-89.018,-6.219 -141.94,-22.71 -142.142,63.804c-0.96,412.249 49.219,633.026 206.05,885.651c130.261,209.826 397.041,272.854 580.426,267.993c183.385,-4.861 403.344,-90.607 519.885,-297.16c113.552,-201.253 168.479,-554.178 183.318,-847.563c4.919,-97.242 -59.149,-46.132 -123.593,-65.273c-139.368,-41.395 -150.413,11.076 -329.56,-22.139c-192.16,-35.629 -195.647,-1.235 -326.125,-6.891c-199.09,-8.63 -172.069,33.439 -293.508,9.886Z" style="fill:#fff;"/><path d="M575.567,640.522c-69.546,-13.489 -135.765,-5.152 -190.677,2.938c-34.118,5.026 -63.534,10.066 -86.085,8.49c-38.479,-2.688 -70.414,-7.07 -94.519,-4.85c-20.509,1.888 -36.24,8.399 -47.397,21.237c-11.022,12.681 -17.981,32.574 -18.054,64.004c-0.97,416.405 50.144,639.308 208.557,894.481c133.634,215.259 406.892,280.85 595.026,275.863c188.415,-4.995 414.222,-93.413 533.96,-305.631c114.551,-203.024 170.478,-558.944 185.448,-854.911c1.853,-36.633 -6.288,-55.954 -17.702,-66.466c-8.714,-8.026 -19.982,-11.901 -33.475,-12.92c-22.52,-1.699 -53.382,6.482 -84.316,-2.706c-72.58,-21.557 -111.742,-18.71 -156.087,-14.761c-41.506,3.696 -87.859,8.402 -175.18,-7.789c-193.529,-35.882 -197.036,-1.458 -328.442,-7.154c-101.761,-4.411 -145.732,4.192 -179.784,10.831c-31.509,6.143 -53.837,10.484 -111.273,-0.656l0,-0Zm-6.346,32.723c64.003,12.414 88.885,7.496 123.997,0.651c32.57,-6.35 74.633,-14.466 171.962,-10.247c129.55,5.616 133.016,-28.748 323.809,6.627c91.825,17.025 140.568,12.103 184.214,8.216c40.806,-3.634 76.85,-6.325 143.639,13.513c27.697,8.226 55.309,4.812 78.159,3.916c10.869,-0.426 20.347,-1.431 26.541,4.274c2.512,2.314 4.066,5.839 5.246,10.618c1.835,7.433 2.381,17.11 1.747,29.646c-14.708,290.803 -68.636,640.734 -181.188,840.215c-113.346,200.889 -327.456,283.961 -505.812,288.689c-178.636,4.735 -438.936,-55.73 -565.824,-260.122c-155.249,-250.079 -204.493,-468.73 -203.543,-876.822c0.048,-20.491 2.694,-33.948 9.88,-42.216c6.381,-7.342 16.14,-9.363 28.23,-10.138c22.415,-1.438 51.491,2.712 86.204,5.137c24.422,1.707 56.318,-3.322 93.266,-8.765c51.687,-7.615 114.011,-15.888 179.473,-3.192l-0,0Z" style="fill:#7e4021;"/><path d="M1592.08,1191.8c-32.425,5.966 -325.233,88.026 -665.22,82.725c-364.929,-5.69 -678.916,-72.994 -735.9,-78.418c31.069,155.409 84.916,283.913 170.592,421.922c130.261,209.826 397.041,272.854 580.426,267.993c183.385,-4.861 403.344,-90.607 519.885,-297.16c57.762,-102.374 100.355,-243.995 130.217,-397.062Z" style="fill:#9d5e3e;"/><path d="M1608.44,1194.99c1.055,-5.411 -0.633,-10.994 -4.511,-14.913c-3.877,-3.919 -9.442,-5.667 -14.864,-4.669c-32.266,5.937 -323.623,87.726 -661.945,82.451c-364.277,-5.68 -677.697,-72.93 -734.58,-78.344c-5.246,-0.5 -10.42,1.512 -13.952,5.425c-3.531,3.913 -5.003,9.265 -3.97,14.433c31.474,157.437 85.981,287.636 172.776,427.446c133.634,215.259 406.892,280.85 595.026,275.863c188.415,-4.995 414.222,-93.413 533.96,-305.631c58.498,-103.678 101.816,-247.044 132.06,-402.061Zm-37.766,18.792c-29.15,141.423 -69.48,271.456 -123.325,366.889c-113.346,200.889 -327.456,283.961 -505.812,288.689c-178.636,4.735 -438.936,-55.73 -565.824,-260.122c-80.309,-129.364 -132.321,-250.25 -163.615,-393.474c93.884,14.472 383.247,70.259 714.503,75.424c298.519,4.655 560.855,-57.611 644.073,-77.406l0,-0Z" style="fill:#7e4021;"/><path d="M637.6,311.763c219.869,14.991 505.439,16.454 724.25,-8.359c9.14,-1.037 15.719,-9.299 14.683,-18.439c-1.037,-9.14 -9.299,-15.719 -18.439,-14.682c-216.991,24.607 -500.186,23.09 -718.227,8.224c-9.177,-0.626 -17.136,6.317 -17.762,15.494c-0.625,9.178 6.317,17.136 15.495,17.762Z" style="fill:#7e4021;"/><path d="M412.249,289.547c30.48,5.467 102.423,11.409 128.23,12.485c9.191,0.384 16.963,-6.767 17.347,-15.957c0.383,-9.191 -6.767,-16.964 -15.958,-17.347c-24.901,-1.039 -94.324,-6.716 -123.735,-11.991c-9.054,-1.623 -17.723,4.409 -19.347,13.463c-1.624,9.054 4.408,17.723 13.463,19.347Z" style="fill:#7e4021;"/><path d="M1491.27,284.426c14.053,-1.87 50.813,-5.851 84.626,-14.259c24.82,-6.172 47.981,-15.033 61.537,-26.359c10.506,-8.777 16.179,-19.21 16.67,-30.625c0.448,-10.418 -3.478,-22.592 -15.569,-35.734c-6.228,-6.769 -16.78,-7.209 -23.55,-0.981c-6.769,6.228 -7.209,16.78 -0.981,23.55c4.347,4.724 7.198,8.276 6.78,11.96c-0.215,1.89 -1.618,3.349 -3.198,4.882c-3.478,3.375 -8.321,6.249 -13.922,8.921c-35.592,16.983 -97.966,23.097 -116.791,25.603c-9.118,1.214 -15.536,9.602 -14.322,18.72c1.214,9.118 9.602,15.536 18.72,14.322Z" style="fill:#7e4021;"/></g></svg>