<?xml version="1.0" encoding="UTF-8" standalone="no"?><!DOCTYPE svg PUBLIC "-//W3C//DTD SVG 1.1//EN" "http://www.w3.org/Graphics/SVG/1.1/DTD/svg11.dtd"><svg width="100%" height="100%" viewBox="0 0 2891 4875" version="1.1" xmlns="http://www.w3.org/2000/svg" xmlns:xlink="http://www.w3.org/1999/xlink" xml:space="preserve" xmlns:serif="http://www.serif.com/" style="fill-rule:evenodd;clip-rule:evenodd;stroke-linejoin:round;stroke-miterlimit:2;"><g id="Cup-and-Saucer-Purple" serif:id="Cup and Saucer-Purple"><path d="M1939.5,4684.49c8.917,-9.315 -401.328,28.071 -1060.61,0.443c53.125,48.218 17.883,119.289 54.124,136.771c43.901,21.178 255.108,36.115 460.635,35.941c237.663,-0.201 454.091,-10.073 483.619,-42.331c28.918,-31.591 1.956,-67.857 62.234,-130.824Z" style="fill:#d8bef1;"/><path d="M1951.54,4696.02c3.465,-3.62 4.52,-7.439 4.734,-10.7c0.301,-4.586 -0.927,-9.241 -5.181,-13.336c-1.425,-1.372 -3.759,-3.211 -7.612,-4.327c-2.003,-0.58 -6.493,-1.228 -13.461,-1.332c-65.865,-0.982 -457.331,26.816 -1050.43,1.961c-7.01,-0.294 -13.453,3.833 -16.117,10.324c-2.663,6.49 -0.977,13.954 4.218,18.669c28.113,25.517 26.877,58.751 29.327,84.217c2.502,26.001 9.175,45.778 28.756,55.224c14.026,6.766 43.998,13.339 85.119,18.654c90.61,11.71 238.09,19.065 382.772,18.943c167.41,-0.142 324.345,-5.136 413.634,-19.203c24.204,-3.813 43.67,-8.358 57.418,-13.527c11.785,-4.43 20.014,-9.735 24.847,-15.014c13.935,-15.224 17.711,-31.092 21.139,-49.816c3.86,-21.083 8.134,-46.571 40.84,-80.737l0,-0Zm-46.417,3.98c-19.678,28.309 -23.613,51.101 -27.211,70.755c-2.264,12.364 -3.737,23.258 -12.939,33.311c-2.256,2.465 -6.488,4.252 -11.989,6.32c-12.172,4.576 -29.447,8.425 -50.876,11.801c-88.173,13.891 -243.156,18.657 -408.475,18.797c-143.055,0.121 -288.879,-7.09 -378.471,-18.669c-36.109,-4.666 -62.592,-9.676 -74.908,-15.617c-4.459,-2.151 -6.117,-6.372 -7.408,-11.232c-2.413,-9.086 -2.879,-20.172 -3.965,-32.125c-1.756,-19.325 -4.851,-40.382 -15.208,-60.317c523,20.364 882.97,-0 991.45,-3.024Z" style="fill:#7e4021;"/><path d="M1385.79,4360.41c567.489,-0 1118.55,-1.127 1324.04,60.597c67.149,20.17 51.665,66.381 40.192,110.057c-23.929,91.096 -611.29,170.654 -1364.23,170.654c-752.939,-0 -1355.33,-76.889 -1364.23,-170.654c-3.308,-34.87 -15.363,-91.044 16.988,-105.603c159.994,-72.005 720.942,-65.051 1347.24,-65.051Z" style="fill:#e9d4ff;"/><path d="M1385.79,4343.74c-358.117,-0 -694.884,-2.262 -947.66,9.23c-192.417,8.748 -336.782,25.948 -406.421,57.289c-15.725,7.077 -24.82,20.481 -28.955,37.701c-6.036,25.136 -0.133,59.932 2.215,84.675c1.01,10.647 6.487,21.543 17.537,31.855c11.644,10.869 30.384,21.734 55.908,31.961c66.093,26.483 180.654,50.507 330.91,69.943c247.369,31.998 592.371,51.987 976.466,51.987c386.142,0 728.832,-20.902 974.649,-53.523c149.381,-19.824 263.3,-44.118 330.079,-70.521c24.899,-9.845 43.612,-20.186 55.837,-30.529c10.957,-9.271 17.291,-19.026 19.783,-28.513c4.536,-17.269 9.514,-34.941 10.516,-51.4c0.894,-14.694 -1.251,-28.547 -8.102,-40.922c-8.505,-15.364 -24.502,-29.091 -53.931,-37.931c-83.552,-25.098 -223.645,-40.106 -398.64,-48.844c-257.356,-12.851 -590.84,-12.458 -930.191,-12.458Zm-0,33.333c338.745,0 671.632,-0.411 928.529,12.417c171.494,8.563 308.832,22.88 390.712,47.476c23.479,7.052 34.472,17.07 37.462,30.481c4.004,17.962 -3.222,38.925 -8.595,59.379c-1.054,4.012 -4.439,7.614 -9.072,11.534c-10.151,8.589 -25.89,16.804 -46.563,24.978c-65.172,25.767 -176.423,49.129 -322.209,68.476c-244.71,32.475 -585.86,53.234 -970.264,53.234c-382.411,-0 -725.905,-19.854 -972.19,-51.711c-146.531,-18.955 -258.333,-42.001 -322.788,-67.828c-17.222,-6.9 -30.847,-13.887 -40.476,-21.15c-6.795,-5.125 -11.676,-9.53 -12.183,-14.873c-1.778,-18.741 -6.41,-43.922 -4.414,-64.83c0.999,-10.466 2.946,-20.083 11.65,-24c67.527,-30.39 207.675,-45.904 394.255,-54.387c252.372,-11.474 588.601,-9.196 946.146,-9.196Z" style="fill:#7e4021;"/><ellipse cx="1385.79" cy="4439.93" rx="1364.23" ry="170.654" style="fill:#d8bef1;"/><path d="M1385.79,4252.61c-382.848,-0 -729.152,19.75 -977.441,51.515c-150.679,19.277 -265.59,43.141 -331.359,69.51c-25.927,10.395 -44.706,21.494 -56.023,32.569c-11.15,10.911 -16.073,22.438 -16.073,33.726c0,11.288 4.923,22.815 16.073,33.727c11.317,11.075 30.095,22.174 56.023,32.569c65.769,26.369 180.68,50.232 331.359,69.509c248.289,31.765 594.593,51.516 977.441,51.516c382.847,0 729.151,-19.751 977.44,-51.516c150.679,-19.277 265.59,-43.14 331.36,-69.509c25.927,-10.395 44.705,-21.494 56.022,-32.569c11.15,-10.911 16.073,-22.439 16.073,-33.727c-0,-11.287 -4.923,-22.815 -16.073,-33.726c-11.317,-11.075 -30.095,-22.174 -56.022,-32.569c-65.77,-26.369 -180.681,-50.233 -331.36,-69.51c-248.289,-31.765 -594.593,-51.515 -977.44,-51.515Zm-0,33.333c381.19,0 725.996,19.619 973.21,51.246c146.924,18.797 259.054,41.673 323.185,67.385c17.266,6.923 30.82,13.922 40.218,21.222c6.322,4.91 10.948,9.003 10.948,14.134c0,5.132 -4.626,9.225 -10.948,14.135c-9.398,7.3 -22.952,14.299 -40.218,21.222c-64.131,25.712 -176.261,48.588 -323.185,67.385c-247.214,31.627 -592.02,51.246 -973.21,51.246c-381.19,-0 -725.997,-19.619 -973.211,-51.246c-146.924,-18.797 -259.054,-41.673 -323.185,-67.385c-17.266,-6.923 -30.82,-13.922 -40.218,-21.222c-6.321,-4.91 -10.948,-9.003 -10.948,-14.135c-0,-5.131 4.627,-9.224 10.948,-14.134c9.398,-7.3 22.952,-14.299 40.218,-21.222c64.131,-25.712 176.261,-48.588 323.185,-67.385c247.214,-31.627 592.021,-51.246 973.211,-51.246Z" style="fill:#7e4021;"/><path d="M2444.33,3171.27c35.708,-5.148 124.2,-6.79 159.119,1.711c110.185,26.824 209.578,94.027 247.255,200.441c78.011,220.337 -50.271,439.965 -262.098,507.027c-66.752,21.132 -255.003,57.838 -291.142,29.104c30.812,-71.951 74.611,-187.008 83.789,-226.355c93.557,-10.999 245.951,-6.566 252.518,-142.103c7.4,-152.722 -185.238,-110.036 -204.774,-135.29c-2.152,-31.855 22.573,-202.335 15.333,-234.535Z" style="fill:#d8bef1;"/><path d="M2441.95,3154.78c-4.598,0.663 -8.711,3.215 -11.347,7.041c-2.636,3.826 -3.555,8.578 -2.536,13.111c2.726,12.122 0.13,45.047 -3.227,82.134c-5.445,60.159 -13.788,130.417 -12.474,149.868c0.223,3.3 1.422,6.459 3.446,9.075c4.051,5.237 11.781,10.019 23.333,12.661c15.947,3.647 42.167,4.479 70.31,8.211c31.587,4.189 66.316,11.771 87.882,35.576c13.652,15.07 21.29,36.776 19.785,67.837c-2.874,59.327 -38.046,87.716 -82.356,102.781c-49.513,16.834 -109.7,18.196 -155.461,23.576c-6.976,0.82 -12.69,5.926 -14.285,12.767c-9.067,38.872 -52.44,152.499 -82.879,223.58c-2.956,6.904 -0.93,14.932 4.949,19.606c5.963,4.742 14.772,8.592 26.108,10.934c13.392,2.767 30.963,3.69 50.997,3.059c73.387,-2.313 181.778,-25.164 229.439,-40.253c220.72,-69.877 354.065,-298.891 272.779,-528.478c-39.551,-111.709 -143.356,-182.914 -259.024,-211.073c-36.306,-8.839 -128.312,-7.366 -165.439,-2.013Zm3.621,240.953c0.927,-31.308 10.742,-108.555 14.853,-164.394c1.298,-17.632 1.945,-33.319 1.743,-45.298l-0,-0c39.759,-3.513 108.103,-3.978 137.338,3.139c104.703,25.49 199.684,88.691 235.486,189.811c74.736,211.087 -48.483,421.328 -251.417,485.574c-45.791,14.497 -149.922,36.493 -220.429,38.715c-16.967,0.535 -31.86,-0.042 -43.202,-2.386c-0.221,-0.045 -0.44,-0.091 -0.658,-0.137c27.776,-66.349 62.604,-158.274 75.161,-202.237c46.113,-4.769 103.301,-7.651 151.051,-23.886c56.919,-19.353 101.227,-56.516 104.919,-132.727c2.048,-42.248 -9.806,-71.333 -28.375,-91.83c-26.767,-29.545 -69.001,-41.041 -108.204,-46.24c-23.445,-3.109 -45.526,-4.063 -61.116,-6.508c-2.341,-0.367 -4.972,-1.005 -7.15,-1.596Z" style="fill:#7e4021;"/><path d="M797.136,4358.55c-5.297,3.467 -12.026,10.672 -16.629,20.344c-6.615,13.9 -8.978,32.511 1.354,49.954c9.35,15.785 28.797,28.035 53.901,36.295c48.881,16.083 120.419,18.811 153.563,24.187c9.08,1.473 17.647,-4.703 19.12,-13.783c1.473,-9.08 -4.703,-17.647 -13.783,-19.12c-27.694,-4.492 -82.92,-6.866 -128.14,-17.345c-13.85,-3.21 -26.704,-7.165 -37.236,-12.36c-8.28,-4.084 -15.082,-8.678 -18.745,-14.862c-3.855,-6.507 -2.403,-13.456 0.065,-18.642c1.454,-3.056 3.116,-5.685 4.789,-6.781c7.696,-5.039 9.853,-15.378 4.814,-23.073c-5.039,-7.696 -15.378,-9.853 -23.073,-4.814Z" style="fill:#7e4021;"/><path d="M1995.25,4386.44c1.674,1.096 3.336,3.725 4.79,6.781c2.468,5.186 3.919,12.135 0.065,18.642c-3.689,6.227 -10.701,10.905 -19.225,15.123c-10.815,5.352 -24.013,9.504 -38.132,12.883c-45.647,10.924 -100.469,13.598 -123.273,16.576c-9.121,1.191 -15.559,9.564 -14.368,18.685c1.192,9.121 9.564,15.559 18.685,14.368c27.56,-3.6 100.212,-7.11 150.305,-23.885c25.494,-8.537 45.381,-21.05 54.688,-36.762c10.332,-17.443 7.969,-36.054 1.353,-49.954c-4.603,-9.672 -11.332,-16.877 -16.628,-20.344c-7.696,-5.039 -18.035,-2.882 -23.074,4.814c-5.038,7.695 -2.881,18.034 4.814,23.073Z" style="fill:#7e4021;"/><path d="M1394.13,2858.75c-81.309,-45.549 -194.206,-166.175 -130.816,-292.593c48.464,-96.651 149.09,-114.82 145.203,-213.635c-5.712,-145.198 -525.247,-155.082 -485.112,-457.938c51.064,-385.316 636.665,-241.224 604.785,-426.133c-31.323,-181.679 -553.7,56.976 -878.668,-166.096c-421.351,-289.232 -137.928,-1078.95 842.8,-1284.83c18.688,-3.923 -517.276,457.223 -336.787,738.444c183.544,285.982 757.73,47.167 1270.17,412.542c94.755,67.561 172.071,167.444 165.651,289.418c-30.139,572.651 -998.015,254.133 -1005.35,486.546c-5.27,167.011 535.571,-54.928 571.801,332.005c33.853,361.539 -724.731,264.172 -763.682,582.27Z" style="fill:#f8bcc4;"/><path d="M1385.99,2873.29c4.847,2.715 10.727,2.837 15.682,0.326c4.954,-2.512 8.332,-7.327 9.007,-12.84c9.076,-74.119 61.026,-123.262 131.921,-161.711c75.234,-40.803 171.635,-69.304 265.737,-99.279c96.852,-30.851 191.278,-63.34 259.447,-110.862c72.019,-50.207 115.73,-116.792 106.629,-213.998c-22.749,-242.944 -233.408,-259.777 -398.854,-269.511c-51.199,-3.012 -97.534,-5.412 -130.787,-15.388c-25.783,-7.735 -42.89,-19.866 -42.096,-45.026c0.959,-30.389 23.562,-47.782 58.357,-59.946c62.778,-21.948 162.787,-25.39 274.146,-30.675c143.406,-6.806 305.101,-16.298 433.285,-67.256c132.441,-52.652 230.087,-148.569 239.547,-328.319c6.728,-127.826 -73.317,-233.062 -172.619,-303.864c-310.246,-221.207 -642.71,-223.684 -899.213,-252.007c-163.642,-18.07 -295.719,-45.509 -366.612,-155.967c-61.843,-96.358 -33.386,-214.768 25.076,-326.872c91.241,-174.96 257.402,-334.69 299.932,-378.883c6.069,-6.306 9.946,-10.747 11.442,-12.939c2.061,-3.021 2.782,-5.53 3.097,-7.047c1.306,-6.3 -0.767,-10.754 -3.195,-13.876c-2.747,-3.531 -7.781,-8.075 -17.015,-6.136c-596.451,125.213 -937.34,464.932 -1023.26,778.827c-58.513,213.772 -0.066,416.259 174.451,536.055c198.089,135.976 468.172,104.504 659.582,96.3c60.933,-2.612 113.507,-2.852 152.357,6.623c32.571,7.944 54.641,22.707 59.737,52.264c4.997,28.982 -10.508,46.967 -37.001,60.705c-32.763,16.987 -80.605,27.623 -134.446,39.069c-84.782,18.024 -183.833,37.611 -265.661,81.844c-84.826,45.854 -151.619,117.584 -167.775,239.493c-12.913,97.437 27.827,166.75 91.867,220.034c60.884,50.657 143.45,86.445 218.391,118.705c57.252,24.646 109.895,47.03 143.229,73.403c18.417,14.571 30.756,29.896 31.493,48.642c1.721,43.736 -20.548,69.197 -47.75,94.847c-31.994,30.169 -70.467,60.346 -95.697,110.661c-34.55,68.903 -21.52,136.256 11.688,192.56c32.052,54.345 83.107,98.083 125.88,122.044Zm57.784,-2827.84c-64.867,66.227 -199.397,207.186 -278.687,359.228c-64.388,123.467 -91.684,254.166 -23.573,360.29c75.945,118.33 215.702,151.738 391.006,171.095c251.909,27.816 578.832,28.771 883.52,246.015c90.21,64.32 164.796,158.85 158.684,274.972c-8.623,163.841 -97.854,251.104 -218.574,299.095c-124.979,49.685 -282.731,58.3 -422.551,64.936c-115.221,5.469 -218.611,9.796 -283.567,32.505c-50.38,17.613 -79.284,46.36 -80.673,90.361c-1.081,34.242 15.349,55.985 44.584,69.946c35.626,17.013 93.82,20.922 159.658,24.795c150.769,8.87 346.893,17.951 367.623,239.343c7.825,83.564 -30.591,140.384 -92.503,183.545c-65.762,45.845 -157.069,76.684 -250.501,106.446c-115.876,36.911 -234.937,72.181 -316.028,129.084c-50.132,35.18 -86.159,78.523 -100.022,134.639l-0,0c-33.533,-22.734 -69.364,-56.77 -93.348,-97.435c-27.721,-47.001 -39.443,-103.169 -10.603,-160.686c23.234,-46.335 59.305,-73.568 88.769,-101.35c34.257,-32.303 60.356,-65.329 58.189,-120.41c-1.091,-27.724 -16.881,-51.923 -44.119,-73.473c-35.14,-27.801 -90.377,-51.897 -150.731,-77.878c-72.066,-31.023 -151.703,-64.998 -210.251,-113.712c-55.391,-46.088 -91.311,-105.753 -80.142,-190.031c17.437,-131.577 101.052,-197.682 198.93,-237.086c67.884,-27.329 142.603,-42.039 208.392,-56.025c57.272,-12.176 108.008,-24.012 142.858,-42.082c41.127,-21.325 62.263,-50.971 54.507,-95.96c-5.709,-33.111 -24.615,-54.911 -54.349,-68.657c-26.107,-12.07 -61.458,-17.587 -103.703,-19.006c-92.453,-3.104 -219.781,12.866 -352.446,10.094c-129.409,-2.704 -264.15,-23.233 -375.163,-99.437c-162.564,-111.59 -215.67,-300.642 -161.164,-499.773c81.085,-296.234 397.592,-613.384 945.978,-743.388Z" style="fill:#7e4021;"/><path d="M1394.13,2858.75c-81.309,-45.549 -194.206,-166.175 -130.816,-292.593c48.464,-96.651 149.09,-114.82 145.203,-213.635c-5.712,-145.198 -525.247,-155.082 -485.112,-457.938c51.064,-385.316 636.665,-241.224 604.785,-426.133c-31.323,-181.679 -553.7,56.976 -878.668,-166.096c-421.351,-289.232 -137.928,-1078.95 842.8,-1284.83c-399.837,186.962 -900.401,588.515 -764.832,990.295c71.123,210.782 408.568,250.675 703.632,250.295c191.262,-0.245 340.157,77.395 319.354,230.547c-37.284,274.483 -577.911,166.004 -622.867,413.929c-48.485,267.383 446.688,202.57 487.749,422.189c30.698,164.187 -458.312,199.391 -221.228,533.97Z" style="fill:#a8ccf1;"/><path d="M1385.99,2873.29c6.798,3.809 15.327,2.398 20.538,-3.395c5.211,-5.793 5.712,-14.424 1.207,-20.781c-53.317,-75.243 -68.585,-133.958 -59.661,-182.433c13.513,-73.403 80.682,-121.591 143.933,-165.703c46.113,-32.16 90.708,-62.095 116.457,-95.332c19.677,-25.399 29.107,-52.78 23.283,-83.929c-11.183,-59.814 -52.514,-100.898 -108.553,-132.475c-52.174,-29.4 -117.278,-50.653 -179.589,-73.308c-47.856,-17.4 -94.026,-35.604 -130.622,-59.668c-50.745,-33.368 -82.062,-78.494 -68.969,-150.701c10.266,-56.616 49.536,-92.282 102.139,-118.757c56.651,-28.511 128.471,-46.322 200.005,-65.102c74.194,-19.478 148.073,-39.999 205.852,-72.958c61.255,-34.942 104.904,-83.616 114.987,-157.843c22.098,-162.683 -132.725,-249.717 -335.89,-249.456c-174.847,0.225 -364.808,-13.532 -503.936,-69.808c-88.974,-35.989 -156.931,-89.273 -183.883,-169.149c-52.529,-155.68 -5.583,-311.144 93.393,-453.464c151.701,-218.133 425.251,-405.372 662.707,-516.405c7.667,-3.585 11.429,-12.347 8.75,-20.375c-2.68,-8.028 -10.951,-12.773 -19.234,-11.034c-596.451,125.213 -937.34,464.932 -1023.26,778.827c-58.513,213.772 -0.066,416.259 174.451,536.055c198.089,135.976 468.172,104.504 659.582,96.3c60.933,-2.612 113.507,-2.852 152.357,6.623c32.571,7.944 54.641,22.707 59.737,52.264c4.997,28.982 -10.508,46.967 -37.001,60.705c-32.763,16.987 -80.605,27.623 -134.446,39.069c-84.782,18.024 -183.833,37.611 -265.661,81.844c-84.826,45.854 -151.619,117.584 -167.775,239.493c-12.913,97.437 27.827,166.75 91.867,220.034c60.884,50.657 143.45,86.445 218.391,118.705c57.252,24.646 109.895,47.03 143.229,73.403c18.417,14.571 30.756,29.896 31.493,48.642c1.721,43.736 -20.548,69.197 -47.75,94.847c-31.994,30.169 -70.467,60.346 -95.697,110.661c-34.55,68.903 -21.52,136.256 11.688,192.56c32.052,54.345 83.107,98.083 125.88,122.044Zm-48.65,-78.141c-18.212,-17.698 -35.194,-38.244 -48.518,-60.836c-27.721,-47.001 -39.443,-103.169 -10.603,-160.686c23.234,-46.335 59.305,-73.568 88.769,-101.35c34.257,-32.303 60.356,-65.329 58.189,-120.41c-1.091,-27.724 -16.881,-51.923 -44.119,-73.473c-35.14,-27.801 -90.377,-51.897 -150.731,-77.878c-72.066,-31.023 -151.703,-64.998 -210.251,-113.712c-55.391,-46.088 -91.311,-105.753 -80.142,-190.031c17.437,-131.577 101.052,-197.682 198.93,-237.086c67.884,-27.329 142.603,-42.039 208.392,-56.025c57.272,-12.176 108.008,-24.012 142.858,-42.082c41.127,-21.325 62.263,-50.971 54.507,-95.96c-5.709,-33.111 -24.615,-54.911 -54.349,-68.657c-26.107,-12.07 -61.458,-17.587 -103.703,-19.006c-92.453,-3.104 -219.781,12.866 -352.446,10.094c-129.409,-2.704 -264.15,-23.233 -375.163,-99.437c-162.564,-111.59 -215.67,-300.642 -161.164,-499.773c76.695,-280.197 364.012,-579.106 859.009,-720.679c-206.801,114.944 -419.499,277.794 -547.49,461.834c-105.376,151.521 -153.536,317.408 -97.611,483.153c29.947,88.75 104.109,149.406 202.968,189.393c142.617,57.687 337.247,72.47 516.477,72.24c91.912,-0.118 173.763,17.98 230.017,55.005c53.075,34.932 82.233,87.195 72.801,156.632c-8.56,63.015 -46.47,103.711 -98.473,133.376c-55.481,31.647 -126.558,50.967 -197.801,69.67c-73.902,19.402 -147.999,38.113 -206.525,67.568c-62.575,31.493 -107.74,75.236 -119.952,142.585c-15.998,88.223 21.452,143.73 83.453,184.5c38.569,25.361 87.11,44.805 137.546,63.143c60.554,22.016 123.912,42.45 174.615,71.021c46.842,26.395 82.804,59.563 92.152,109.561c5.125,27.412 -8.229,50.064 -29.491,71.723c-24.841,25.304 -60.323,48.805 -96.552,74.071c-70.485,49.158 -142.588,105.21 -157.648,187.009c-7.036,38.222 -1.991,82.432 22.048,134.503l0.001,0Z" style="fill:#7e4021;"/><path d="M1394.13,2858.75c-9.934,-136.899 62.509,-217.256 152.34,-285.659c209.841,-159.788 380.743,-170.892 371.811,-281.362c-11.158,-138.018 -250.491,-113.912 -426.799,-219.889c-70.078,-42.124 -134.262,-120.891 -84.858,-221.137c80.238,-162.81 418.531,-128.876 645.265,-183.827c135.192,-32.765 218.393,-147.797 164.712,-304.114c-95.607,-278.406 -818.011,-143.554 -1076.07,-324.223c-418.665,-293.106 -2.94,-839.185 351.795,-1021.01c16.993,-8.71 -517.276,457.223 -336.787,738.444c183.544,285.982 757.73,47.167 1270.17,412.542c94.755,67.561 172.071,167.444 165.651,289.418c-30.139,572.651 -998.015,254.133 -1005.35,486.546c-5.27,167.011 535.571,-54.928 571.801,332.005c33.853,361.539 -724.731,264.172 -763.682,582.27Z" style="fill:#fee4a8;"/><path d="M1377.51,2859.96c0.621,8.556 7.635,15.244 16.211,15.455c8.576,0.212 15.912,-6.12 16.955,-14.635c9.076,-74.119 61.026,-123.262 131.921,-161.711c75.234,-40.803 171.635,-69.304 265.737,-99.279c96.852,-30.851 191.278,-63.34 259.447,-110.862c72.019,-50.207 115.73,-116.792 106.629,-213.998c-22.749,-242.944 -233.408,-259.777 -398.854,-269.511c-51.199,-3.012 -97.534,-5.412 -130.787,-15.388c-25.783,-7.735 -42.89,-19.866 -42.096,-45.026c0.959,-30.389 23.562,-47.782 58.357,-59.946c62.778,-21.948 162.787,-25.39 274.146,-30.675c143.406,-6.806 305.101,-16.298 433.285,-67.256c132.441,-52.652 230.087,-148.569 239.547,-328.319c6.728,-127.826 -73.317,-233.062 -172.619,-303.864c-310.246,-221.207 -642.71,-223.684 -899.213,-252.007c-163.642,-18.07 -295.719,-45.509 -366.612,-155.967c-61.862,-96.389 -33.609,-215.43 24.68,-328.113c90.852,-175.635 256.561,-335.967 299.621,-378.506c8.992,-8.884 13.493,-14.767 14.001,-15.884c2.326,-5.116 1.584,-9.138 0.879,-11.602c-1.173,-4.106 -3.546,-7.182 -6.904,-9.384c-2.072,-1.359 -8.192,-5.36 -17.118,-0.785c-180.189,92.361 -375.822,277.277 -473.288,476.28c-99.623,203.405 -97.831,421.041 119.536,573.219c63.64,44.554 154.617,70.854 257.721,88.412c150.605,25.646 327.465,33.07 479.642,56.269c82.734,12.613 158.055,29.832 217.33,57.69c56.044,26.339 97.475,62.063 115.177,113.612c24.956,72.67 18.702,135.778 -10.111,184.491c-28.832,48.747 -79.873,82.77 -142.764,98.013c-135.956,32.95 -312.053,33.897 -448.495,64.548c-96.672,21.716 -173.705,58.939 -207.794,128.109c-54.098,109.769 14.486,196.663 91.221,242.788c106.722,64.15 236.221,81.375 325.266,114.71c51.852,19.412 89.575,43.589 93.508,92.238c3.065,37.916 -20.268,61.036 -58.844,85.291c-67.718,42.577 -180.02,85.193 -306.452,181.468c-94.226,71.75 -169.286,156.529 -158.866,300.125Zm11.397,-2760.01c-69.656,74.749 -163.366,185.855 -224.27,303.595c-64.158,124.028 -91.217,255.337 -23.126,361.431c75.945,118.33 215.702,151.738 391.006,171.095c251.909,27.816 578.832,28.771 883.52,246.015c90.21,64.32 164.796,158.85 158.684,274.972c-8.623,163.841 -97.854,251.104 -218.574,299.095c-124.979,49.685 -282.731,58.3 -422.551,64.936c-115.221,5.469 -218.611,9.796 -283.567,32.505c-50.38,17.613 -79.284,46.36 -80.673,90.361c-1.081,34.242 15.349,55.985 44.584,69.946c35.626,17.013 93.82,20.922 159.658,24.795c150.769,8.87 346.893,17.951 367.623,239.343c7.825,83.564 -30.591,140.384 -92.503,183.545c-65.762,45.845 -157.069,76.684 -250.501,106.446c-115.876,36.911 -234.937,72.181 -316.028,129.084c-23.043,16.17 -43.106,34.065 -59.406,54.132l-0,0.001c23.102,-69.726 74.713,-119.908 133.787,-164.891c125.376,-95.471 236.848,-137.548 304,-179.769c51.351,-32.286 78.407,-65.724 74.327,-116.196c-4.995,-61.779 -49.199,-96.118 -115.046,-120.769c-87.483,-32.751 -214.932,-49.038 -319.78,-112.062c-63.425,-38.124 -123.208,-108.755 -78.494,-199.484c30.103,-61.082 99.831,-91.144 185.2,-110.322c136.61,-30.688 312.917,-31.684 449.041,-64.675c72.301,-17.523 130.456,-57.397 163.603,-113.438c33.165,-56.073 41.672,-128.639 12.946,-212.287c-20.54,-59.814 -67.495,-102.391 -132.524,-132.954c-61.797,-29.043 -140.233,-47.325 -226.485,-60.474c-151.995,-23.172 -328.646,-30.562 -479.07,-56.178c-97.583,-16.617 -183.968,-40.689 -244.2,-82.857c-201.298,-140.928 -200.975,-342.884 -108.718,-531.252c74.569,-152.25 208.51,-295.934 347.537,-393.689Z" style="fill:#7e4021;"/><path d="M358.655,2907.07c-22.92,33.95 -27.152,408.493 -25.33,447.318c28.967,617.224 176.078,631.945 545.563,967.3c53.125,48.218 17.883,119.289 54.124,136.771c43.901,21.178 255.108,36.115 460.635,35.941c237.663,-0.201 454.091,-10.073 483.619,-42.331c28.918,-31.591 1.956,-67.857 62.234,-130.824c120.699,-126.085 381.713,-279.194 468.195,-772.177c34.396,-196.075 48.679,-614.838 -2.883,-642.655c-99.979,-53.936 -1979.35,-98.304 -2046.16,0.657Z" style="fill:#e9d4ff;"/><path d="M344.842,2897.75c-5.219,7.73 -10.73,30.721 -14.361,63.311c-12.846,115.276 -15.272,362.846 -13.804,394.114c11.739,250.129 43.055,402.511 99.854,517.165c84.903,171.386 227.334,258.548 451.156,461.695c28.113,25.517 26.877,58.751 29.327,84.217c2.502,26.001 9.175,45.778 28.756,55.224c14.026,6.766 43.998,13.339 85.119,18.654c90.61,11.71 238.09,19.065 382.772,18.943c167.41,-0.142 324.345,-5.136 413.634,-19.203c24.204,-3.813 43.67,-8.358 57.418,-13.527c11.785,-4.43 20.014,-9.735 24.847,-15.014c13.935,-15.224 17.711,-31.092 21.139,-49.816c3.86,-21.083 8.134,-46.571 40.84,-80.737c121.991,-127.434 385.165,-282.564 472.572,-780.822c27.784,-158.38 42.387,-460.668 20.535,-589.625c-3.569,-21.06 -8.212,-37.826 -13.663,-49.229c-5.221,-10.923 -11.742,-17.834 -18.258,-21.349c-16.626,-8.969 -80.456,-18.658 -176.482,-26.549c-370.132,-30.415 -1234.47,-48.11 -1649.94,-17.996c-92.415,6.698 -162.965,15.899 -201.66,27.626c-21.451,6.5 -34.525,15.096 -39.805,22.918Zm27.627,18.651c1.416,-2.098 4.833,-3.326 9.201,-5.186c7.532,-3.206 17.52,-6.155 29.722,-8.965c39.493,-9.096 100.647,-16.241 177.325,-21.798c414.172,-30.02 1275.82,-12.349 1644.8,17.972c54.845,4.506 98.708,9.278 128.44,14.232c17.397,2.899 29.389,5.434 34.946,8.432c0.934,0.504 1.435,1.734 2.229,3.048c2.075,3.434 3.896,7.905 5.62,13.246c6.27,19.42 10.527,48.695 13.31,84.357c11.231,143.864 -2.892,388.287 -26.779,524.455c-85.556,487.709 -344.41,638.796 -463.819,763.532c-39.626,41.394 -44.873,72.241 -49.549,97.785c-2.264,12.364 -3.737,23.258 -12.939,33.311c-2.256,2.465 -6.488,4.252 -11.989,6.32c-12.172,4.576 -29.447,8.425 -50.876,11.801c-88.173,13.891 -243.156,18.657 -408.475,18.797c-143.055,0.121 -288.879,-7.09 -378.471,-18.669c-36.109,-4.666 -62.592,-9.676 -74.908,-15.617c-4.459,-2.151 -6.117,-6.372 -7.408,-11.232c-2.413,-9.086 -2.879,-20.172 -3.965,-32.125c-2.689,-29.604 -8.523,-63.273 -38.791,-90.745c-219.561,-199.28 -360.402,-283.686 -443.689,-451.809c-55.328,-111.684 -84.992,-260.28 -96.426,-503.93c-1.269,-27.02 0.442,-217.591 9.381,-341.079c2.262,-31.254 4.971,-58.145 8.25,-76.807c1.659,-9.445 2.821,-16.299 4.864,-19.326Z" style="fill:#7e4021;"/><path d="M1403.41,3385.5c85.728,-0 161.45,43.176 206.59,108.951c15.288,22.276 -63.827,-66.244 -171.769,-21.291c-59.5,24.78 -101.027,88.113 -102.595,150.846c-0.872,34.894 1.022,129.495 121.104,170.356c99.667,33.914 176.907,-57.645 166.578,-38.73c-42.493,77.808 -125.079,130.639 -219.908,130.639c-138.191,-0 -250.385,-112.194 -250.385,-250.386c-0,-138.191 112.194,-250.385 250.385,-250.385Z" style="fill:#ffe6d8;"/><path d="M1403.41,3368.83c-73.695,0 -140.46,29.913 -188.799,78.253c-48.34,48.339 -78.253,115.104 -78.253,188.799c0,73.696 29.913,140.46 78.253,188.8c48.339,48.339 115.104,78.252 188.799,78.252c49.82,0 96.471,-13.675 136.406,-37.465c41.133,-24.504 75.136,-59.748 98.129,-101.852c3.546,-6.493 3.05,-11.119 2.75,-12.987c-0.834,-5.204 -3.474,-8.658 -6.798,-11.06c-2.946,-2.129 -8.901,-5.414 -17.464,-1.543c-2.135,0.965 -7.332,4.658 -14.85,10.084c-22.683,16.371 -75.938,52.09 -139.474,30.47c-41.254,-14.038 -67.354,-34.778 -83.587,-57.203c-26.579,-36.716 -26.715,-77.331 -26.225,-96.959c0.71,-28.408 10.602,-56.923 26.983,-81.128c16.185,-23.914 38.738,-43.662 65.359,-54.748c67.769,-28.224 122.948,2.052 145.849,16.317c5.991,3.732 10.197,6.539 12.319,7.631c5.34,2.748 9.473,2.39 11.457,2.081c4.781,-0.746 8.139,-3.077 10.574,-6.11c1.982,-2.467 3.543,-5.662 3.709,-9.949c0.063,-1.638 -0.07,-6.597 -4.805,-13.496c-24.459,-35.64 -57.341,-65.056 -95.763,-85.371c-37.201,-19.67 -79.594,-30.816 -124.569,-30.816Zm139.751,79.762c-30.965,-7.439 -69.152,-8.389 -111.337,9.179c-32.585,13.571 -60.339,37.566 -80.149,66.837c-19.973,29.511 -31.835,64.343 -32.701,98.978c-0.594,23.795 0.325,72.827 32.547,117.338c19.471,26.899 50.367,52.375 99.85,69.213c41.644,14.171 79.768,8.771 110.505,-2.536c-11.953,11.048 -25.061,20.856 -39.119,29.231c-34.94,20.814 -75.759,32.769 -119.347,32.769c-64.496,-0 -122.924,-26.184 -165.229,-68.489c-42.305,-42.306 -68.489,-100.734 -68.489,-165.23c-0,-64.496 26.184,-122.924 68.489,-165.229c42.305,-42.306 100.733,-68.49 165.229,-68.49c39.349,0 76.441,9.742 108.988,26.95c10.781,5.701 21.063,12.219 30.763,19.479Z" style="fill:#7d3f21;"/><path d="M1790.86,4040.56c-3.724,-35.151 -8.672,-97.311 -28.175,-130.82c-19.504,-33.51 -55.229,-44.083 -76.143,-48.408c21.727,-6.693 56.639,-14.899 76.143,-48.408c19.503,-33.509 24.086,-89.261 28.175,-130.821c5.983,37.026 8.672,97.312 28.175,130.821c19.504,33.509 54.641,45.742 76.143,48.408c-21.803,5.595 -56.639,14.898 -76.143,48.408c-19.503,33.509 -23.809,95.685 -28.175,130.82Z" style="fill:#fff;"/><path d="M1774.29,4042.31c0.892,8.42 7.956,14.833 16.423,14.91c8.468,0.076 15.646,-6.208 16.69,-14.611c4.15,-33.393 7.504,-92.644 26.041,-124.491c16.733,-28.75 47.175,-35.848 65.881,-40.649c7.757,-1.991 13.001,-9.217 12.49,-17.208c-0.512,-7.992 -6.635,-14.49 -14.583,-15.475c-17.974,-2.228 -47.484,-12.24 -63.788,-40.252c-18.626,-32.001 -20.413,-89.737 -26.127,-125.095c-1.336,-8.268 -8.6,-14.26 -16.971,-14c-8.371,0.26 -15.248,6.692 -16.069,15.026c-3.873,39.368 -7.518,92.327 -25.993,124.069c-16.898,29.033 -47.82,35.065 -66.644,40.863c-7.271,2.24 -12.103,9.119 -11.742,16.719c0.361,7.599 5.822,13.99 13.273,15.531c17.77,3.675 48.541,11.998 65.113,40.471c18.493,31.772 22.475,90.862 26.006,124.192Zm16.631,-106.454c-3.687,-12.953 -8.21,-24.854 -13.828,-34.506c-11.071,-19.021 -26.583,-31.778 -42.347,-40.42c15.73,-8.297 31.179,-20.44 42.347,-39.628c5.769,-9.911 10.352,-21.658 14.057,-34.397c3.482,12.863 7.839,24.697 13.485,34.397c10.85,18.641 25.825,31.675 41.235,40.542c-15.361,8.447 -30.329,20.768 -41.235,39.506c-5.617,9.649 -10.088,21.552 -13.714,34.506l-0,-0Z" style="fill:#7e4021;"/><path d="M849.132,3643.24c-4.066,-30.564 -7.151,-80.244 -23.234,-107.876c-16.083,-27.632 -45.732,-36.433 -62.788,-39.918c17.749,-3.581 46.705,-12.286 62.788,-39.918c16.083,-27.632 19.601,-74.887 23.234,-107.876c3.675,32.686 7.15,80.244 23.233,107.876c16.084,27.632 44.455,36.287 62.789,39.918c-17.875,6.371 -46.705,12.286 -62.789,39.918c-16.083,27.632 -17.732,77.164 -23.233,107.876Z" style="fill:#fff;"/><path d="M832.611,3645.43c1.083,8.141 7.935,14.28 16.146,14.465c8.211,0.184 15.332,-5.64 16.78,-13.724c5.216,-29.114 5.987,-76.237 21.233,-102.431c13.631,-23.42 38.829,-27.203 53.98,-32.603c7.063,-2.518 11.576,-9.443 11.026,-16.922c-0.551,-7.479 -6.028,-13.669 -13.384,-15.126c-14.96,-2.963 -38.499,-9.406 -51.622,-31.953c-15.088,-25.922 -17.628,-70.69 -21.076,-101.354c-0.949,-8.439 -8.09,-14.815 -16.581,-14.805c-8.492,0.01 -15.618,6.402 -16.548,14.842c-3.406,30.938 -5.989,75.404 -21.072,101.317c-13.135,22.568 -37.183,29.04 -51.679,31.964c-7.77,1.568 -13.361,8.391 -13.371,16.317c-0.01,7.926 5.564,14.763 13.33,16.35c13.939,2.849 38.577,9.391 51.72,31.973c15.138,26.007 17.291,72.923 21.118,101.69Zm16.598,-98.037c-2.503,-7.526 -5.434,-14.455 -8.907,-20.421c-8.232,-14.144 -19.391,-24.237 -31.038,-31.471c11.635,-7.231 22.744,-17.347 31.038,-31.597c3.42,-5.875 6.333,-12.579 8.837,-19.825c2.499,7.252 5.408,13.958 8.822,19.825c8.5,14.604 19.821,24.854 31.681,32.109c-11.827,6.816 -23.207,16.399 -31.681,30.959c-3.473,5.966 -6.339,12.896 -8.752,20.422l-0,-0.001Z" style="fill:#7e4021;"/><path d="M1087.18,3449.19c-4.293,-47.819 -11.368,-127.576 -36.938,-171.507c-25.57,-43.931 -72.263,-56.33 -99.824,-63.464c28.827,-10.589 74.254,-19.532 99.824,-63.463c25.57,-43.931 31.479,-122.82 36.938,-171.507c5.029,48.062 11.369,127.576 36.938,171.507c25.57,43.931 72.481,58.797 99.824,63.463c-27.822,6.171 -74.254,19.533 -99.824,63.464c-25.569,43.931 -32.016,123.149 -36.938,171.507Z" style="fill:#fff;"/><path d="M1070.58,3450.68c0.768,8.555 7.912,15.125 16.501,15.176c8.589,0.051 15.81,-6.434 16.68,-14.979c4.725,-46.428 10.213,-122.633 34.762,-164.81c22.686,-38.978 64.343,-50.101 89.028,-55.576c7.779,-1.726 13.249,-8.716 13.053,-16.682c-0.196,-7.966 -6.003,-14.678 -13.858,-16.019c-24.083,-4.11 -65.703,-16.725 -88.223,-55.418c-24.556,-42.189 -29.938,-118.701 -34.767,-164.857c-0.885,-8.463 -8.004,-14.901 -16.514,-14.932c-8.51,-0.032 -15.677,6.353 -16.625,14.809c-5.246,46.791 -10.206,122.76 -34.779,164.98c-23.151,39.775 -65.068,46.615 -91.167,56.203c-6.844,2.514 -11.259,9.185 -10.899,16.467c0.36,7.282 5.411,13.485 12.47,15.312c24.582,6.363 66.79,16.53 89.596,55.713c24.52,42.128 30.625,118.757 34.742,164.613Zm16.668,-119.245c-5.514,-23.411 -12.798,-45.293 -22.602,-62.136c-16.484,-28.322 -40.698,-45.117 -64.082,-55.768c23.394,-10.301 47.439,-25.796 64.082,-54.391c9.929,-17.057 17.104,-39.166 22.494,-62.808c5.441,23.658 12.669,45.79 22.574,62.808c15.717,27.004 38.547,44.339 61.005,55.347c-22.443,10.823 -45.223,27.697 -61.005,54.812c-9.823,16.876 -17.027,38.739 -22.466,62.136l-0,0Z" style="fill:#7e4021;"/></g></svg>