<?xml version="1.0" encoding="UTF-8" standalone="no"?><!DOCTYPE svg PUBLIC "-//W3C//DTD SVG 1.1//EN" "http://www.w3.org/Graphics/SVG/1.1/DTD/svg11.dtd"><svg width="100%" height="100%" viewBox="0 0 2961 2203" version="1.1" xmlns="http://www.w3.org/2000/svg" xmlns:xlink="http://www.w3.org/1999/xlink" xml:space="preserve" xmlns:serif="http://www.serif.com/" style="fill-rule:evenodd;clip-rule:evenodd;stroke-linejoin:round;stroke-miterlimit:2;"><g id="Cup-Cat"><path d="M1322.6,23.071c601.677,39.854 1077.25,267.126 1061.35,507.207c-15.902,240.082 -517.298,402.642 -1118.97,362.788c-601.677,-39.854 -1077.25,-267.125 -1061.35,-507.207c15.903,-240.082 517.299,-402.641 1118.98,-362.788Z" style="fill:#ffe6d8;"/><path d="M1323.7,6.441c-287.594,-19.05 -552.444,7.915 -753.152,67.213c-115.724,34.19 -210.306,79.238 -276.22,132.215c-65.402,52.564 -102.985,113.237 -107.334,178.888c-4.348,65.652 24.904,130.752 82.801,191.483c58.352,61.208 146.165,118.338 256.369,167.492c191.133,85.252 450.112,146.915 737.707,165.964c287.595,19.05 552.445,-7.915 753.153,-67.213c115.724,-34.19 210.306,-79.238 276.22,-132.214c65.401,-52.565 102.985,-113.238 107.334,-178.889c4.348,-65.652 -24.904,-130.752 -82.802,-191.483c-58.351,-61.208 -146.164,-118.338 -256.368,-167.492c-191.133,-85.252 -450.112,-146.914 -737.707,-165.964l-0.001,-0Zm-2.202,33.26c283.138,18.755 538.16,79.215 726.332,163.146c105.561,47.084 189.927,101.421 245.82,160.05c50.473,52.944 77.458,109.047 73.667,166.28c-3.791,57.233 -37.94,109.286 -94.955,155.11c-63.138,50.745 -153.934,93.479 -264.783,126.229c-197.598,58.379 -458.366,84.674 -741.505,65.92c-283.138,-18.755 -538.16,-79.215 -726.332,-163.146c-105.561,-47.084 -189.927,-101.421 -245.82,-160.05c-50.473,-52.944 -77.458,-109.047 -73.667,-166.279c3.791,-57.233 37.94,-109.287 94.955,-155.111c63.138,-50.745 153.933,-93.479 264.783,-126.229c197.598,-58.378 458.366,-84.674 741.504,-65.92l0.001,0Z" style="fill:#7e4021;"/><path d="M390.785,1982.97c220.116,213.918 1386.83,314.452 1674.93,16.991c277.885,-286.912 310.656,-1125.84 318.231,-1469.69c-15.902,240.082 -517.298,402.642 -1118.97,362.788c-601.677,-39.854 -1077.25,-267.125 -1061.35,-507.207c-29.192,490.164 -118.182,1300.37 187.158,1597.11Z" style="fill:#fff;"/><path d="M186.991,384.868l0.006,-0.111c0.607,-9.163 8.512,-16.108 17.677,-15.532c9.165,0.577 16.137,8.458 15.591,17.625l-0.011,0.181c-3.766,57.207 23.218,113.286 73.671,166.209c55.893,58.629 140.259,112.966 245.82,160.05c188.172,83.931 443.194,144.391 726.332,163.146c283.139,18.754 543.907,-7.541 741.505,-65.92c110.849,-32.75 201.645,-75.484 264.783,-126.229c57.015,-45.824 91.164,-97.877 94.955,-155.11c0.599,-9.042 8.312,-15.949 17.365,-15.549c9.053,0.399 16.128,7.958 15.928,17.017c-4.492,203.86 -17.863,581.173 -85.545,915.144c-47.416,233.97 -121.958,446.601 -237.378,565.77c-53.252,54.983 -135.373,97.185 -235.968,127.508c-169.228,51.011 -391.321,68.923 -612.396,61.823c-222.39,-7.143 -443.722,-39.547 -608.926,-88.49c-109.99,-32.585 -195.391,-72.926 -241.231,-117.475l0,-0c-135.193,-131.387 -195.625,-361.242 -216.982,-620.576c-27.321,-331.761 8.268,-711.841 24.803,-989.481l0.001,0Zm26.092,114.172c13.787,26.304 32.81,52.124 56.715,77.2c58.352,61.208 146.165,118.338 256.369,167.492c191.133,85.252 450.112,146.915 737.707,165.964c287.595,19.05 552.445,-7.915 753.153,-67.213c115.724,-34.19 210.306,-79.238 276.22,-132.214c29.608,-23.797 53.515,-49.256 71.218,-76.086c-6.937,211.954 -25.106,523.921 -82.066,804.985c-45.974,226.857 -116.742,433.655 -228.652,549.201c-49.928,51.549 -127.332,90.354 -221.647,118.784c-166.264,50.117 -384.5,67.397 -601.704,60.421c-219.315,-7.044 -437.606,-38.868 -600.526,-87.134c-103.474,-30.655 -184.346,-67.51 -227.469,-109.419l-0.001,-0c-130.407,-126.736 -186.391,-349.255 -206.992,-599.407c-23.669,-287.423 0.235,-611.282 17.675,-872.574Z" style="fill:#7e4021;"/><path d="M390.785,1982.97c220.116,213.918 1386.83,314.452 1674.93,16.991c101.551,-104.85 176.937,-299.438 223.752,-500.626c10.138,-43.568 -83.261,-186.86 -282.206,-243.485c-299.13,-85.141 -539.923,5.575 -732.809,292.983c37.424,-132.81 -65.814,-485.658 -134.268,-497.522c-70.946,-12.297 -95.385,175.794 -164.382,144.553c-126.403,-57.236 -265.456,-38.812 -331.908,-6.184c-69.059,33.907 -99.959,-175.753 -161.881,-163.426c-69.372,13.81 -186.579,233.126 -209.589,441.238c-18.789,169.942 -6.752,375.425 118.357,515.478Z" style="fill:#f7bf9a;"/><path d="M378.355,1994.08c0.262,0.293 0.533,0.576 0.814,0.849c45.84,44.549 131.241,84.89 241.231,117.475c165.204,48.943 386.536,81.347 608.926,88.49c221.075,7.1 443.168,-10.812 612.396,-61.823c100.595,-30.323 182.716,-72.525 235.968,-127.508c46.227,-47.728 87.3,-113.506 122.735,-190.048c43.725,-94.451 78.983,-205.386 105.279,-318.396c2.293,-9.852 1.222,-23.708 -4.631,-40.122c-10.357,-29.042 -36.045,-68.447 -77.791,-107.211c-48.529,-45.061 -118.921,-89.622 -211.454,-115.959c-158.822,-45.205 -301.611,-41.744 -429.871,12.605c-103.563,43.884 -197.801,121.1 -283.169,233.589c1.165,-74.579 -16.341,-172.415 -41.97,-257.336c-20.541,-68.067 -46.236,-127.783 -70.771,-160.953c-14.51,-19.617 -29.757,-30.539 -43.013,-32.836c-21.479,-3.723 -40.237,5.105 -56.769,22.271c-23.314,24.207 -42.272,67.057 -63.089,97.807c-5.363,7.922 -10.819,14.942 -16.678,20.188c-7.06,6.322 -14.674,9.666 -23.817,5.526c-57.274,-25.934 -117.039,-36.957 -171.967,-38.289c-71.572,-1.736 -134.929,13.064 -174.162,32.327c-12.179,5.98 -21.32,-2.862 -30.666,-14.627c-24.993,-31.461 -45.785,-87.892 -69.798,-120.047c-17.032,-22.808 -36.61,-34.261 -57.325,-30.137c-17.143,3.413 -37.338,16.704 -57.904,39.133c-25.738,28.072 -53.253,70.855 -78.378,122.505c-40.583,83.429 -75.124,190.148 -86.619,294.115c-11.561,104.569 -11.519,222.332 18.263,330.663c19.859,72.234 52.899,140.286 104.23,197.749Zm24.461,-22.653c-59.677,-67.009 -92.462,-149.542 -108.347,-235.625c-16.463,-89.22 -14.783,-182.287 -5.475,-266.471c11.069,-100.113 44.383,-202.861 83.462,-283.197c23.466,-48.238 48.934,-88.341 72.973,-114.559c14.495,-15.809 27.758,-26.563 39.842,-28.968c4.857,-0.967 9.024,1.66 13.246,5.293c5.592,4.814 10.829,11.601 16.017,19.467c24.285,36.82 46.256,94.495 72.811,122.163c18.903,19.695 39.993,26.855 63.898,15.118c35.721,-17.539 93.499,-30.506 158.663,-28.926c50.789,1.232 106.067,11.352 159.025,35.331c23.478,10.631 43.524,4.323 61.511,-12.628c23.107,-21.775 42.409,-65.238 64.238,-98.071c6.671,-10.034 13.551,-18.96 21.154,-25.268c6.49,-5.383 13.419,-8.749 21.507,-7.347c3.304,0.573 6.482,3.021 10.011,6.23c5.74,5.219 11.543,12.573 17.449,21.58c27.142,41.395 54.555,115.184 74.037,193.445c23.693,95.175 35.988,197.084 19.576,255.326c-2.221,7.884 1.615,16.214 9.051,19.65c7.436,3.436 16.266,0.959 20.83,-5.842c91.013,-135.612 192.684,-226.705 306.668,-275.005c121.65,-51.548 257.102,-54.112 407.74,-11.236c69.726,19.846 126.073,50.655 169.095,83.935c50.108,38.761 82.043,80.648 95.376,111.989c4.948,11.63 7.6,21.154 6.064,27.753c-25.761,110.712 -60.227,219.417 -103.063,311.947c-33.689,72.774 -72.478,135.483 -116.428,180.862c-49.928,51.549 -127.332,90.354 -221.647,118.784c-166.264,50.117 -384.5,67.397 -601.704,60.421c-219.315,-7.044 -437.606,-38.868 -600.526,-87.134c-103.137,-30.555 -183.82,-67.271 -227.048,-109.011l-0.006,-0.006Z" style="fill:#7e4021;"/><path d="M1592.22,1918.75c-21.589,5.345 -56.481,15.288 -83.046,29.093c-31.079,16.15 -58.261,40.198 -68.808,75.641c-10.285,34.566 -6.809,62.72 5.28,85.24c11.939,22.242 32.676,39.227 58.885,50.973c47.837,21.438 114.541,25.367 171.606,16.163c9.081,-1.465 15.265,-10.027 13.8,-19.108c-1.465,-9.081 -10.027,-15.265 -19.108,-13.8c-50.746,8.185 -110.127,5.39 -152.666,-13.674c-18.979,-8.505 -34.502,-20.213 -43.148,-36.32c-8.497,-15.828 -9.929,-35.671 -2.7,-59.967c8.809,-29.603 34.202,-47.523 60.643,-59.682c29.593,-13.608 61.131,-19.92 78.631,-24.301c11.464,-2.87 18.748,-6.54 21.206,-8.881c5.164,-4.919 6.206,-10.382 5.544,-15.377c-0.367,-2.774 -1.437,-6.172 -3.847,-9.885c-2.201,-3.391 -6.299,-7.916 -11.94,-13.353c-23.706,-22.845 -82.077,-70.06 -85.592,-147.285c-4.727,-103.851 52.775,-296.333 237.188,-300.409c9.196,-0.204 16.497,-7.835 16.294,-17.031c-0.203,-9.197 -7.835,-16.498 -17.031,-16.295c-207.318,4.583 -275.064,218.501 -269.75,335.251c3.542,77.803 53.839,130.046 84.821,159.418c1.238,1.173 2.495,2.381 3.738,3.589Z" style="fill:#7e4021;"/><path d="M421.145,1099.56c4.11,0.792 7.542,3.981 10.812,7.279c5.038,5.081 9.301,11.113 12.723,15.984c21.375,30.432 37.174,61.716 41.33,99.118c1.016,9.142 9.263,15.74 18.405,14.724c9.143,-1.015 15.74,-9.263 14.724,-18.405c-4.795,-43.162 -22.515,-79.477 -47.182,-114.596c-5.34,-7.603 -12.449,-17.221 -20.757,-24.455c-7.16,-6.233 -15.231,-10.739 -23.749,-12.38c-9.032,-1.74 -17.778,4.18 -19.519,13.212c-1.74,9.033 4.18,17.779 13.213,19.519Z" style="fill:#7e4021;"/><path d="M1140.19,1227.16c-0.015,-14.056 0.492,-28.221 2.626,-42.126c4.328,-28.199 17.038,-49.855 44.875,-58.206c8.81,-2.643 13.818,-11.942 11.174,-20.753c-2.643,-8.811 -11.942,-13.818 -20.753,-11.175c-41.309,12.393 -61.822,43.232 -68.243,85.077c-2.393,15.588 -3.029,31.462 -3.013,47.218c0.01,9.198 7.486,16.658 16.685,16.649c9.198,-0.01 16.658,-7.486 16.649,-16.684Z" style="fill:#7e4021;"/><path d="M459.279,1765.22c26.576,40.367 75.858,75.685 136.896,100.955c26.197,10.845 54.892,18.353 81.118,26.794c23.319,7.505 44.635,15.457 59.097,28.568c26.779,24.279 37.001,48.575 33.787,70.948c-2.988,20.8 -17.161,39.089 -37.027,53.156c-32.607,23.09 -80.594,34.689 -127.576,26.108c-9.049,-1.653 -17.737,4.352 -19.39,13.4c-1.653,9.049 4.352,17.738 13.401,19.39c56.312,10.286 113.745,-4.019 152.829,-31.694c27.929,-19.777 46.557,-46.377 50.758,-75.621c4.488,-31.249 -6.989,-66.47 -44.393,-100.382c-14.264,-12.932 -33.631,-22.39 -55.585,-30.288c-29.332,-10.551 -63.573,-18.47 -94.269,-31.178c-54.025,-22.366 -98.282,-52.756 -121.805,-88.486c-5.058,-7.683 -15.402,-9.814 -23.085,-4.756c-7.683,5.059 -9.814,15.403 -4.756,23.086Z" style="fill:#7e4021;"/><path d="M1166.11,1860.39c-94.389,47.464 -161.192,40.364 -217.022,38.254c-42.112,-1.592 -78.602,-0.152 -115.339,22.715c-64.778,40.321 -77.08,112.31 -45.014,170.198c20.595,37.178 59.965,68.723 116.403,80.806c8.995,1.926 17.861,-3.814 19.786,-12.808c1.926,-8.995 -3.813,-17.861 -12.808,-19.787c-45.447,-9.73 -77.638,-34.425 -94.222,-64.363c-23.702,-42.788 -14.41,-95.944 33.47,-125.747c30.65,-19.078 61.331,-19.032 96.465,-17.704c60.036,2.269 131.757,9.256 233.256,-41.783c8.218,-4.133 11.535,-14.16 7.402,-22.378c-4.132,-8.218 -14.159,-11.535 -22.377,-7.403Z" style="fill:#7e4021;"/><path d="M926,1391.54c-6.191,36.576 4.646,95.807 26.741,124.725c37.992,49.725 116.946,50.854 159.288,6.694c36.646,-38.22 36.907,-85.567 32.461,-135.1c-0.822,-9.162 -8.928,-15.932 -18.089,-15.11c-9.162,0.822 -15.933,8.928 -15.111,18.09c3.568,39.754 6.09,78.375 -23.321,109.05c-28.899,30.139 -82.812,30.076 -108.741,-3.861c-17.494,-22.897 -25.264,-69.965 -20.362,-98.925c1.535,-9.069 -4.582,-17.679 -13.652,-19.214c-9.069,-1.535 -17.679,4.582 -19.214,13.651Z" style="fill:#7e4021;"/><path d="M634.688,1397.1c4.902,28.96 -2.868,76.028 -20.362,98.925c-25.929,33.937 -79.842,34 -108.74,3.861c-29.412,-30.675 -26.89,-69.296 -23.322,-109.05c0.822,-9.162 -5.949,-17.268 -15.111,-18.09c-9.161,-0.822 -17.267,5.948 -18.089,15.11c-4.445,49.533 -4.185,96.88 32.461,135.1c42.342,44.16 121.296,43.031 159.288,-6.694c22.095,-28.918 32.932,-88.149 26.741,-124.725c-1.535,-9.069 -10.145,-15.186 -19.214,-13.651c-9.07,1.535 -15.187,10.145 -13.652,19.214Z" style="fill:#7e4021;"/><path d="M779.895,1630.41c-1.021,6.706 -3.191,15.687 -7.182,23.991c-3.851,8.015 -9.235,15.957 -18.559,17.693c-12.317,2.294 -23.55,-5.17 -28.498,-21.011c-2.742,-8.781 -12.097,-13.682 -20.877,-10.94c-8.781,2.743 -13.682,12.098 -10.94,20.878c11.122,35.607 38.733,48.999 66.418,43.843c14.716,-2.741 26.048,-11.232 34.363,-22.424c5.459,8.214 12.383,15.162 20.479,18.694c39.537,17.243 79.562,-8.702 81.044,-50.191c0.328,-9.193 -6.869,-16.923 -16.061,-17.251c-9.193,-0.328 -16.923,6.869 -17.251,16.061c-0.625,17.504 -17.725,28.102 -34.406,20.827c-3.554,-1.55 -5.937,-5.281 -8.044,-9.093c-3.048,-5.515 -5.033,-11.757 -5.975,-16.892c-0.315,-1.719 -0.44,-9.352 -0.537,-14.566c2.086,-1.155 4.233,-2.51 6.404,-4.071c13.579,-9.76 29.663,-27.85 36.944,-43.721c7.04,-15.347 5.853,-29.403 -1.816,-38.457c-6.835,-8.069 -19.675,-14.917 -34.83,-18.542c-20.419,-4.885 -44.682,-4.156 -59.204,2.207c-10.218,4.477 -16.723,11.624 -19.292,20.079c-1.809,5.951 -1.873,12.91 1.285,20.864c4.328,10.899 13.055,37.622 25.291,52.158c3.474,4.127 7.251,7.436 11.244,9.864Z" style="fill:#7e4021;"/><path d="M2124.04,1725.51c-13.137,54.182 -50.346,129.582 -87.316,160.555c-7.051,5.907 -7.98,16.427 -2.073,23.479c5.908,7.051 16.428,7.979 23.479,2.072c41.178,-34.497 83.672,-117.903 98.304,-178.252c2.168,-8.939 -3.33,-17.957 -12.27,-20.124c-8.939,-2.168 -17.957,3.33 -20.124,12.27Z" style="fill:#7e4021;"/><path d="M1994.59,1935.83c-22.855,22.566 -53.393,43 -78.86,54.474c-8.387,3.779 -12.128,13.655 -8.349,22.042c3.778,8.387 13.655,12.128 22.041,8.349c28.601,-12.886 62.92,-35.802 88.588,-61.145c6.546,-6.463 6.613,-17.024 0.15,-23.57c-6.463,-6.545 -17.024,-6.612 -23.57,-0.15Z" style="fill:#7e4021;"/><path d="M2374.2,782.244c-4.531,-5.478 122.849,24.755 189.592,38.006c131.423,26.091 238.077,116.538 308.585,232.834c150.738,248.628 58.386,606.538 -224.181,704.988c-171.855,59.876 -378.744,12.331 -416.657,-56.373c32.174,-103.884 47.711,-156.288 59.199,-219.017c83.093,7.899 231.484,73.639 378.282,-73.588c32.944,-33.04 61.71,-110.058 51.444,-156.191c-49.772,-223.671 -371.902,-157.773 -367.753,-201.885c5.526,-58.762 16.017,-228.244 21.489,-268.774Z" style="fill:#f7bf9a;"/><path d="M2357.41,782.084c-5.554,44.022 -15.845,209.417 -21.296,267.374c-0.966,10.278 3.303,19.25 14.89,25.668c11.548,6.396 36.226,9.993 68.209,13.259c46.874,4.788 111.266,10.528 168.129,34.323c53.837,22.529 100.813,61.746 116.85,133.815c3.616,16.249 1.376,36.826 -4.042,57.559c-8.445,32.318 -24.848,65.104 -42.935,83.244c-97.595,97.881 -196.002,96.425 -273.29,84.305c-35.259,-5.53 -66.41,-13.145 -91.613,-15.541c-8.608,-0.819 -16.413,5.083 -17.971,13.589c-11.388,62.181 -26.833,114.114 -58.726,217.089c-1.34,4.329 -0.861,9.016 1.328,12.984c12.761,23.124 41.949,44.981 82.654,61.219c87.54,34.922 229.685,46.18 354.079,2.84c292.457,-101.896 388.964,-472.038 232.95,-729.368c-72.958,-120.336 -183.604,-213.543 -319.591,-240.541c-60.795,-12.069 -171.333,-37.886 -189.483,-38.922c-9.257,-0.529 -14.009,3.821 -15.5,5.392c-3.074,3.239 -4.479,6.964 -4.628,10.994c-0.009,0.236 -0.013,0.477 -0.014,0.723l0,-0.005Zm31.449,18.961c33.78,7.123 124.055,26.097 171.685,35.553c126.857,25.185 229.519,112.87 297.578,225.126c145.463,239.927 57.266,585.604 -215.413,680.609c-99.767,34.76 -211.738,32.091 -293.276,10.045c-46.783,-12.649 -83.561,-30.863 -99.704,-53.09c28.312,-91.529 43.416,-142.734 54.449,-198.154c88.203,13.007 232.971,63.819 376.642,-80.272c21.445,-21.508 41.567,-60.033 51.581,-98.352c6.888,-26.358 8.925,-52.569 4.329,-73.227c-18.804,-84.502 -73.396,-130.909 -136.521,-157.325c-60.1,-25.15 -128.065,-31.674 -177.61,-36.734c-18.967,-1.937 -35.034,-3.614 -46.474,-6.301c-2.153,-0.506 -4.533,-1.286 -6.315,-1.918c5.021,-56.289 13.513,-189.978 19.049,-245.96Zm1.346,-23.435c-0.626,-2.169 -1.695,-4.211 -3.165,-5.988c1.693,2.047 2.651,4.079 3.165,5.988Z" style="fill:#7e4021;"/><path d="M1297.05,388.635c547.731,36.281 942.644,214.04 875.509,262.061c-169.716,121.395 -515.322,190.009 -907.8,164.012c-393.532,-26.067 -727.805,-140.206 -879.458,-283.464c-59.423,-56.134 364.017,-178.889 911.749,-142.609Z" style="fill:#c48464;"/><path d="M1298.15,372.005c-267.398,-17.712 -505.357,2.285 -672.681,33.978c-89.665,16.983 -159.269,37.42 -202.701,57.17c-23.659,10.759 -40.074,21.761 -48.94,31.712c-8.735,9.803 -11.596,19.658 -10.566,28.473c0.813,6.951 4.014,13.807 10.593,20.021c73.573,69.5 189.178,132.552 333.552,182.115c157.115,53.937 348.483,92.102 556.249,105.864c207.343,13.734 401.703,1.222 564.357,-31.372c149.247,-29.908 271.973,-76.869 354.241,-135.715c7.097,-5.076 11.215,-11.157 13.147,-17.627c2.595,-8.686 1.427,-18.872 -5.517,-29.861c-7.096,-11.227 -21.614,-24.577 -43.514,-38.638c-39.716,-25.497 -105.279,-55.167 -191.397,-84.011c-159.457,-53.409 -390.137,-104.444 -656.823,-122.109l0,0Zm864.825,265.042l-0.113,0.093c-79.236,56.676 -197.654,101.337 -341.398,130.142c-160.13,32.089 -351.479,44.316 -555.605,30.796c-204.54,-13.549 -392.954,-51.032 -547.629,-104.132c-138.869,-47.673 -250.394,-107.762 -321.242,-174.591c0.297,-0.488 0.661,-1.043 0.995,-1.455c1.479,-1.826 3.425,-3.657 5.762,-5.551c6.97,-5.647 16.92,-11.409 29.527,-17.331c55.178,-25.916 157.639,-52.799 292.199,-71.628c155.324,-21.734 353.049,-32.526 570.476,-18.124l0,-0c216.611,14.347 409.179,50.939 558.338,92.831c130.087,36.534 226.887,76.893 277.085,110.037c6.475,4.276 12.13,8.41 16.918,12.392c3.851,3.202 7.109,6.274 9.723,9.23c1.846,2.09 3.339,4.065 4.381,5.978c0.199,0.367 0.413,0.872 0.583,1.313Z" style="fill:#7e4021;"/><path d="M2182.28,664.508c0.009,-0.005 45.063,-25.504 78.846,-62.238c24.845,-27.015 42.858,-60.087 38.226,-93.479c-1.264,-9.111 -9.688,-15.482 -18.799,-14.218c-9.111,1.264 -15.482,9.687 -14.218,18.799c3.334,24.036 -11.86,46.888 -29.744,66.334c-30.297,32.943 -70.72,55.787 -70.72,55.787c-8.007,4.528 -10.831,14.705 -6.303,22.712c4.528,8.007 14.705,10.831 22.712,6.303Zm-0,-0c-0,-0 -0,-0 -0,-0Z" style="fill:#7e4021;"/><path d="M401.539,523.696c-34.994,-28.683 -59.89,-57.683 -73.851,-85.043c-12.314,-24.132 -16.008,-46.568 -8.935,-65.531c3.215,-8.619 -1.172,-18.226 -9.791,-21.44c-8.619,-3.215 -18.226,1.172 -21.44,9.791c-8.07,21.637 -7.56,46.561 2.143,73.282c13.056,35.956 43.353,75.878 90.744,114.721c7.115,5.831 17.625,4.789 23.456,-2.325c5.831,-7.114 4.789,-17.624 -2.326,-23.455Z" style="fill:#7e4021;"/><path d="M189.683,511.423c-31.056,56.441 -39.245,128.531 31.883,159.924c41.344,18.248 74.926,17.511 100.88,5.397c24.431,-11.403 42.395,-33.107 53.642,-60.155c10.501,-25.254 15.123,-55.205 13.947,-85.127c44.095,54.062 119.136,95.904 175.238,31.144c29.591,-34.157 38.754,-66.473 34.801,-94.841c-3.721,-26.703 -19.189,-50.251 -41.737,-68.95c-21.054,-17.458 -48.324,-30.676 -77.271,-38.344c64.633,-26.264 126.677,-85.697 81.261,-158.351c-23.954,-38.321 -52.15,-56.576 -80.428,-61.134c-26.617,-4.289 -53.671,3.576 -78.17,19.635c-22.874,14.995 -43.522,37.177 -59.357,62.593c-6.112,-69.497 -44.691,-146.266 -127.483,-124.204c-43.668,11.637 -69.402,33.224 -82.067,58.914c-11.922,24.182 -12.353,52.353 -4.202,80.489c7.611,26.27 22.747,52.524 42.388,75.129c-68.225,-14.579 -152.941,-0.261 -156.18,85.359c-1.709,45.16 11.364,76.101 32.198,95.756c19.612,18.501 46.412,27.19 75.701,27.666c21.016,0.342 43.329,-3.567 64.956,-10.9Z" style="fill:#fff;"/><path d="M160.266,536.093c-20.615,57.667 -13.924,120.272 54.571,150.502c46.973,20.732 85.17,19.015 114.659,5.252c28.082,-13.108 49.053,-37.768 61.981,-68.859c6.647,-15.984 11.155,-33.698 13.499,-52.13c50.611,44.161 119.5,64.295 172.894,2.661c33.619,-38.808 43.203,-75.823 38.712,-108.054c-4.278,-30.695 -21.687,-57.986 -47.607,-79.479c-13.325,-11.05 -28.933,-20.564 -45.862,-28.221c57.083,-35.401 96.571,-95.332 53.347,-164.48c-27.216,-43.538 -59.782,-63.575 -91.909,-68.753c-30.596,-4.931 -61.798,3.691 -89.959,22.151c-14.477,9.49 -28.158,21.613 -40.452,35.545c-17.064,-64.966 -62.747,-120.32 -141.543,-99.323c-49.613,13.222 -78.335,38.462 -92.724,67.65c-13.704,27.796 -14.631,60.154 -5.261,92.496c4.817,16.627 12.385,33.266 22.089,49.11c-67.111,-2.778 -133.445,24.622 -136.528,106.11c-1.941,51.308 13.745,86.178 37.417,108.509c22.542,21.266 53.199,31.661 86.866,32.208c11.663,0.189 23.697,-0.81 35.81,-2.895l0,-0Zm44.019,-16.636c3.315,-6.025 2.589,-13.467 -1.827,-18.738c-4.415,-5.271 -11.615,-7.289 -18.127,-5.08c-19.758,6.699 -40.133,10.332 -59.333,10.02c-24.912,-0.405 -47.854,-7.39 -64.535,-23.125c-17.999,-16.981 -28.457,-43.988 -26.981,-83.003c2.782,-73.531 77.451,-82.21 136.043,-69.69c7.012,1.498 14.195,-1.655 17.838,-7.83c3.643,-6.176 2.929,-13.988 -1.774,-19.4c-18.009,-20.727 -31.982,-44.748 -38.96,-68.836c-6.933,-23.931 -6.999,-47.913 3.141,-68.481c10.942,-22.194 33.685,-40.126 71.411,-50.179c71.102,-18.948 101.339,49.875 106.588,109.559c0.628,7.142 5.753,13.082 12.726,14.75c6.973,1.667 14.231,-1.311 18.022,-7.396c14.52,-23.305 33.375,-43.719 54.349,-57.468c20.838,-13.659 43.742,-20.768 66.381,-17.119c24.43,3.937 48.253,20.406 68.947,53.513c39.004,62.396 -17.895,111.521 -73.403,134.076c-6.642,2.699 -10.813,9.343 -10.358,16.498c0.455,7.155 5.434,13.218 12.365,15.054c26.543,7.031 51.595,19.054 70.9,35.063c19.179,15.904 32.704,35.708 35.869,58.42c3.415,24.508 -5.327,52.119 -30.891,81.628c-48.181,55.616 -111.857,15.664 -149.726,-30.766c-4.532,-5.555 -12.108,-7.591 -18.814,-5.053c-6.705,2.537 -11.037,9.078 -10.755,16.242c1.078,27.437 -3.053,54.917 -12.682,78.074c-9.567,23.005 -24.522,41.753 -45.302,51.452c-22.423,10.465 -51.383,10.222 -87.101,-5.542c-60.514,-26.708 -50.432,-88.624 -24.011,-136.643Z" style="fill:#7e4021;"/><path d="M178.485,465.138c62.226,103.992 149.23,79.109 191.452,60.841c119.958,-51.903 110.625,-204.702 15.933,-269.03c-132.119,-89.751 -296.485,59.286 -207.385,208.189Z" style="fill:#ffce7b;"/><path d="M164.184,473.696c27.582,46.096 59.924,68.921 91.359,78.926c47.073,14.981 92.987,0.779 121.012,-11.347c132.954,-57.526 123.631,-226.816 18.68,-298.112c-88.136,-59.873 -189.164,-24.1 -234.498,49.803c-30.055,48.993 -35.958,114.878 3.447,180.73l-0,0Zm28.603,-17.115c-31.876,-53.272 -27.95,-106.552 -3.637,-146.185c36.215,-59.037 116.947,-87.489 187.354,-39.66c84.436,57.359 93.779,193.665 -13.186,239.946c-22.641,9.797 -59.635,22.279 -97.666,10.176c-25.299,-8.052 -50.666,-27.179 -72.865,-64.277l0,-0Z" style="fill:#7e4021;"/></g></svg>