<?xml version="1.0" encoding="UTF-8" standalone="no"?><!DOCTYPE svg PUBLIC "-//W3C//DTD SVG 1.1//EN" "http://www.w3.org/Graphics/SVG/1.1/DTD/svg11.dtd"><svg width="100%" height="100%" viewBox="0 0 1852 1062" version="1.1" xmlns="http://www.w3.org/2000/svg" xmlns:xlink="http://www.w3.org/1999/xlink" xml:space="preserve" xmlns:serif="http://www.serif.com/" style="fill-rule:evenodd;clip-rule:evenodd;stroke-linejoin:round;stroke-miterlimit:2;"><g id="Cup-Mini"><path d="M707.42,17.229c380.852,0 690.056,39.538 690.056,88.238c-0,31.079 -125.93,909.367 -316.046,925.088c-107.788,8.914 -236.209,14.09 -374.01,14.09c-118.595,-0 -230.242,-3.834 -327.768,-10.584c-215.67,-14.928 -362.288,-895.059 -362.288,-928.594c-0,-48.7 309.204,-88.238 690.056,-88.238Z" style="fill:#f7bf9a;"/><path d="M707.42,0.562c-194.274,0 -369.986,10.268 -495.88,26.757c-96.659,12.661 -164.736,29.784 -191.486,47.869c-13.911,9.404 -19.357,20.36 -19.357,30.279c0,22.809 66.897,433.886 177.376,703.93c33.135,80.991 70.363,149.386 110.508,191.763c28.44,30.021 58.753,47.37 89.92,49.527c51.266,3.549 106.418,6.295 164.424,8.106c52.731,1.646 107.822,2.519 164.495,2.519c65.06,-0 128.035,-1.151 187.75,-3.301c67.233,-2.42 130.336,-6.108 187.634,-10.846c29.437,-2.434 58.261,-21.756 84.848,-55.357c34.735,-43.897 66.816,-112.896 95.283,-193.787c94.784,-269.337 151.208,-671.621 151.208,-692.554c-0,-9.919 -5.446,-20.875 -19.357,-30.279c-26.75,-18.085 -94.827,-35.208 -191.487,-47.869c-125.894,-16.489 -301.605,-26.757 -495.879,-26.757Zm673.339,106.277c-1.866,32.65 -57.568,419.547 -149.267,680.116c-27.02,76.782 -57.009,142.502 -89.979,184.169c-19.658,24.843 -39.692,41.022 -61.456,42.821c-56.825,4.699 -119.408,8.354 -186.087,10.755c-59.333,2.136 -121.906,3.278 -186.55,3.278c-56.314,0 -111.057,-0.867 -163.455,-2.502c-57.561,-1.797 -112.29,-4.521 -163.163,-8.042c-23.835,-1.65 -46.272,-16.239 -68.022,-39.198c-37.924,-40.033 -72.554,-104.951 -103.855,-181.461c-106.788,-261.021 -172.76,-656.021 -174.843,-689.938c0.937,-0.919 3.381,-3.236 5.512,-4.609c6.498,-4.186 15.681,-8.144 27.221,-12.059c44.475,-15.089 120.939,-28.026 218.76,-37.768c116.485,-11.601 262.901,-18.505 421.845,-18.505c158.943,-0 305.36,6.904 421.845,18.505c97.82,9.742 174.284,22.679 218.76,37.768c11.54,3.915 20.722,7.873 27.221,12.059c2.132,1.373 4.578,3.693 5.513,4.611Z" style="fill:#7e4021;"/><path d="M192.447,480.504c-0.088,-1.806 -0.478,-3.628 -1.195,-5.398c-3.454,-8.526 -13.18,-12.643 -21.705,-9.19c-1.049,0.425 -12.089,5.514 -10.161,18.991c0.98,6.849 8.103,40.644 9.941,48.968c11.574,52.413 26.4,104.464 46.281,154.379c3.403,8.545 13.105,12.72 21.651,9.316c8.545,-3.404 12.72,-13.105 9.316,-21.651c-19.217,-48.246 -33.511,-98.57 -44.699,-149.231c-1.653,-7.486 -8.685,-42.482 -9.429,-46.184Zm-1.477,7.753c-1.572,3.471 -4.331,6.409 -7.993,8.148c2.825,-1.301 5.979,-3.595 7.993,-8.148Zm0.331,-0.781l-0.021,0.053l0.019,-0.044l0.002,-0.009Z" style="fill:#7e4021;"/><path d="M240.222,757.683c1.069,2.531 7.032,16.64 7.493,17.639c9.302,20.118 19.427,39.913 31.073,58.779c4.832,7.827 15.109,10.259 22.937,5.427c7.827,-4.831 10.259,-15.109 5.428,-22.936c-10.946,-17.732 -20.439,-36.35 -29.181,-55.259c-0.56,-1.209 -6.906,-16.752 -8.55,-19.812c-5.513,-10.263 -15.147,-9.354 -16.765,-9.185c-9.149,0.96 -15.797,9.166 -14.838,18.315c0.271,2.581 1.119,4.964 2.403,7.032Z" style="fill:#7e4021;"/><path d="M1587.88,267.092c136.118,0 246.628,110.51 246.628,246.628c-0,136.117 -110.51,246.627 -246.628,246.627c-136.117,0 -246.627,-110.51 -246.627,-246.627c-0,-136.118 110.51,-246.628 246.627,-246.628Zm0,123.314c68.059,0 123.314,55.255 123.314,123.314c0,68.059 -55.255,123.314 -123.314,123.314c-68.058,-0 -123.313,-55.255 -123.313,-123.314c-0,-68.059 55.255,-123.314 123.313,-123.314Z" style="fill:#f7bf9a;"/><path d="M1587.88,250.426c-72.658,-0 -138.483,29.492 -186.143,77.151c-47.659,47.659 -77.151,113.484 -77.151,186.143c0,72.658 29.492,138.483 77.151,186.143c47.66,47.659 113.485,77.151 186.143,77.151c72.659,0 138.484,-29.492 186.143,-77.151c47.66,-47.66 77.151,-113.485 77.151,-186.143c0,-72.659 -29.491,-138.484 -77.151,-186.143c-47.659,-47.659 -113.484,-77.151 -186.143,-77.151Zm0,33.333c63.459,-0 120.948,25.763 162.573,67.388c41.625,41.625 67.388,99.114 67.388,162.573c0,63.459 -25.763,120.947 -67.388,162.573c-41.625,41.625 -99.114,67.388 -162.573,67.388c-63.459,-0 -120.947,-25.763 -162.572,-67.388c-41.625,-41.626 -67.389,-99.114 -67.389,-162.573c0,-63.459 25.764,-120.948 67.389,-162.573c41.625,-41.625 99.113,-67.388 162.572,-67.388Zm0,89.98c-38.629,0 -73.625,15.679 -98.964,41.017c-25.338,25.338 -41.016,60.335 -41.016,98.964c-0,38.629 15.678,73.626 41.016,98.964c25.339,25.338 60.335,41.016 98.964,41.016c38.629,0 73.626,-15.678 98.964,-41.016c25.339,-25.338 41.017,-60.335 41.017,-98.964c-0,-38.629 -15.678,-73.626 -41.017,-98.964c-25.338,-25.338 -60.335,-41.017 -98.964,-41.017Zm0,33.334c29.43,-0 56.09,11.949 75.394,31.253c19.304,19.304 31.253,45.964 31.253,75.394c0,29.429 -11.949,56.09 -31.253,75.394c-19.304,19.304 -45.964,31.253 -75.394,31.253c-29.429,-0 -56.09,-11.949 -75.393,-31.253c-19.304,-19.304 -31.254,-45.965 -31.254,-75.394c0,-29.43 11.95,-56.09 31.254,-75.394c19.303,-19.304 45.964,-31.253 75.393,-31.253Z" style="fill:#7e4021;"/></g></svg>