<?xml version="1.0" encoding="UTF-8" standalone="no"?><!DOCTYPE svg PUBLIC "-//W3C//DTD SVG 1.1//EN" "http://www.w3.org/Graphics/SVG/1.1/DTD/svg11.dtd"><svg width="100%" height="100%" viewBox="0 0 2831 2183" version="1.1" xmlns="http://www.w3.org/2000/svg" xmlns:xlink="http://www.w3.org/1999/xlink" xml:space="preserve" xmlns:serif="http://www.serif.com/" style="fill-rule:evenodd;clip-rule:evenodd;stroke-linejoin:round;stroke-miterlimit:2;"><g id="Cup-Green"><path d="M440.921,1088.04c2.489,-36.855 -17.927,-297.825 -58.326,-287.989c-127.48,31.034 -289.029,80.028 -341.245,240.78c-83.544,257.198 61.59,498.923 303.235,586.607c124.458,45.161 315.698,50.004 357.509,16.76c-35.647,-83.244 -86.321,-216.36 -96.939,-261.883c-108.242,-12.725 -308.441,9.439 -312.824,-147.494c-4.031,-144.311 121.749,-153.392 148.59,-146.781Z" style="fill:#bbc470;"/><path d="M436.935,1104.22c4.783,1.178 9.841,0.18 13.818,-2.725c3.977,-2.906 6.465,-7.421 6.797,-12.335c1.781,-26.376 -7.798,-165.041 -27.941,-242.409c-6.954,-26.708 -16.035,-46.606 -25.122,-55.229c-8.1,-7.686 -16.937,-9.834 -25.835,-7.668c-132.394,32.231 -298.924,84.875 -353.153,251.825c-86.474,266.219 63.281,516.664 313.401,607.423c89.318,32.41 212.183,44.581 292.566,37.267c37.87,-3.445 66.865,-11.889 81.001,-23.129c5.878,-4.674 7.905,-12.702 4.948,-19.606c-35.275,-82.374 -85.522,-214.06 -96.029,-259.108c-1.596,-6.84 -7.309,-11.947 -14.285,-12.767c-53.56,-6.296 -129.887,-3.803 -193.35,-19.306c-56.677,-13.847 -102.823,-42.75 -104.76,-112.1c-1.08,-38.667 7.835,-66.578 22.107,-86.388c32.068,-44.507 89.679,-47.725 105.837,-43.745Zm-54.368,-287.004c1.322,1.894 3.434,5.091 4.756,7.95c3.632,7.857 6.94,18.124 10.028,29.984c16.515,63.431 25.768,169.933 26.997,214.911l0,-0c-32.279,0.344 -86.904,12.076 -120.294,58.419c-17.689,24.55 -29.721,58.883 -28.383,106.803c2.446,87.588 58.588,126.063 130.17,143.551c60.46,14.77 132.328,13.819 186.098,18.849c14.319,50.949 56.322,161.64 89.039,239.416c-12.452,5.018 -30.736,8.091 -52.532,10.074c-76.429,6.954 -193.252,-4.589 -278.176,-35.405c-233.17,-84.609 -373.682,-317.613 -293.068,-565.791c49.662,-152.889 203.398,-198.905 325.365,-228.761Z" style="fill:#7e4021;"/><path d="M407.801,272.148c-26.517,39.278 -31.414,472.608 -29.306,517.526c33.514,714.1 654.671,1244.24 686.317,1278.38c50.035,53.979 302.642,97.648 540.427,97.447c274.966,-0.233 517.987,-48.716 567.073,-104.716c32.661,-37.263 506.08,-475.517 606.135,-1045.88c39.795,-226.85 56.32,-711.341 -3.335,-743.523c-115.672,-62.401 -2290.02,-113.734 -2367.31,0.76Z" style="fill:#dae1a4;"/><path d="M393.987,262.822c-5.937,8.795 -12.051,34.991 -16.183,72.073c-14.848,133.249 -17.653,419.418 -15.957,455.561c33.777,719.704 658.848,1254.52 690.742,1288.93c16.279,17.563 51.912,34.983 101.37,49.55c107.538,31.673 283.079,53.377 451.294,53.234c194.52,-0.164 373.2,-24.392 479.929,-58.224c49.155,-15.581 83.671,-33.927 99.663,-52.172c32.904,-37.539 509.221,-479.395 610.018,-1053.98c32.103,-183 49.005,-532.276 23.756,-681.28c-4.078,-24.067 -9.359,-43.234 -15.588,-56.265c-5.74,-12.008 -12.843,-19.661 -20.006,-23.525c-19.137,-10.324 -92.627,-21.329 -203.155,-30.411c-428.135,-35.182 -1427.92,-55.653 -1908.5,-20.82c-106.658,7.731 -188.084,18.323 -232.742,31.857c-24.005,7.274 -38.734,16.723 -44.644,25.476Zm27.627,18.651c1.138,-1.686 3.505,-2.889 6.441,-4.43c5.223,-2.742 12.018,-5.304 20.243,-7.796c43.257,-13.109 122.175,-23.023 225.485,-30.511c479.28,-34.74 1476.38,-14.293 1903.36,20.794c73.958,6.078 130.64,12.556 164.264,19.307c12.32,2.473 21.103,4.689 25.795,7.22c1.417,0.764 2.371,2.482 3.575,4.476c2.488,4.116 4.686,9.471 6.754,15.874c7.298,22.607 12.277,56.682 15.517,98.197c13.007,166.624 -3.348,449.716 -31.014,607.427c-99.313,566.132 -569.833,1000.78 -602.253,1037.77c-13.46,15.356 -43.298,29.255 -84.668,42.369c-104.486,33.121 -279.452,56.505 -469.885,56.666c-164.684,0.139 -336.568,-20.868 -441.848,-51.876c-41.753,-12.298 -72.598,-25.408 -86.341,-40.234c-31.398,-33.874 -648.642,-559.337 -681.892,-1267.83c-1.469,-31.286 0.507,-251.941 10.858,-394.924c2.625,-36.267 5.772,-67.47 9.577,-89.126c2.01,-11.44 3.561,-19.704 6.035,-23.37Z" style="fill:#7e4021;"/><path d="M2382.02,1609.44c-10.669,19.088 -21.294,38.174 -32.259,57.096c-33.904,58.507 -78.266,115.942 -118.732,170.226c-5.497,7.375 -3.973,17.825 3.402,23.323c7.375,5.498 17.826,3.974 23.323,-3.401c41.215,-55.289 86.316,-113.845 120.848,-173.435c11.051,-19.071 21.762,-38.307 32.515,-57.545c4.488,-8.029 1.613,-18.192 -6.417,-22.68c-8.029,-4.488 -18.192,-1.613 -22.68,6.416Z" style="fill:#7e4021;"/><path d="M2181.59,1907.95c-4.17,5.46 -8.651,10.716 -13.141,15.912c-17.2,19.908 -34.189,39.97 -51.901,59.428c-6.192,6.803 -5.697,17.352 1.106,23.544c6.802,6.192 17.352,5.697 23.544,-1.106c17.906,-19.671 35.086,-39.948 52.474,-60.073c4.928,-5.703 9.833,-11.481 14.41,-17.474c5.583,-7.311 4.18,-17.779 -3.13,-23.362c-7.311,-5.583 -17.779,-4.18 -23.362,3.131Z" style="fill:#7e4021;"/><ellipse cx="1593.3" cy="284.039" rx="1191.15" ry="267.275" style="fill:#bbc470;"/><path d="M1593.3,0.097c-349.135,0 -663.537,33.711 -882.354,87.304c-110.917,27.166 -197.574,59.628 -252.484,95.168c-48.478,31.376 -72.98,66.412 -72.98,101.47c0,35.058 24.503,70.094 72.98,101.47c54.91,35.54 141.567,68.001 252.484,95.167c218.817,53.593 533.219,87.304 882.354,87.304c349.135,0 663.536,-33.711 882.354,-87.304c110.916,-27.166 197.574,-59.628 252.484,-95.167c48.477,-31.376 72.979,-66.412 72.979,-101.47c-0,-35.058 -24.502,-70.094 -72.98,-101.471c-54.91,-35.539 -141.567,-68.001 -252.483,-95.167c-218.818,-53.593 -533.219,-87.304 -882.354,-87.304Zm-0,33.334c345.99,-0 657.577,33.237 874.424,86.347c106.364,26.05 189.646,56.694 242.302,90.774c36.252,23.464 57.757,47.27 57.757,73.487c0,26.217 -21.506,50.023 -57.758,73.487c-52.656,34.08 -135.938,64.723 -242.301,90.774c-216.847,53.11 -528.434,86.347 -874.424,86.347c-345.991,-0 -657.578,-33.237 -874.425,-86.347c-106.363,-26.051 -189.646,-56.694 -242.302,-90.775c-36.251,-23.463 -57.757,-47.269 -57.757,-73.486c-0,-26.217 21.506,-50.024 57.758,-73.487c52.656,-34.081 135.938,-64.724 242.301,-90.774c216.847,-53.11 528.434,-86.347 874.425,-86.347Z" style="fill:#7e4021;"/><path d="M1613.85,266.51c469.247,0 864.155,40.755 977.163,155.665c21.189,21.546 -419.932,131.861 -977.163,131.861c-557.23,0 -966.028,-95.66 -988.898,-117.295c87.544,-123.98 495.331,-170.231 988.898,-170.231Z" style="fill:#c48464;"/><path d="M1613.85,249.843c-280.564,0 -533.528,14.961 -716.219,50.448c-86.681,16.838 -157.767,38.392 -208.954,64.938c-35.1,18.204 -61.148,38.969 -77.339,61.898c-4.781,6.77 -3.86,16.025 2.16,21.721c4.193,3.966 18.831,11.073 43.746,18.477c59.261,17.609 184.454,44.33 356.206,66.175c163.434,20.788 369.184,37.203 600.4,37.203c273.326,0 518.826,-26.443 695.966,-56.007c129.924,-21.684 223.357,-45.17 264.64,-61.149c13.434,-5.2 22.178,-10.199 26.326,-13.933c6.295,-5.667 7.728,-11.71 7.626,-16.229c-0.104,-4.593 -1.686,-9.006 -5.512,-12.896c-49.143,-49.97 -149.446,-87.454 -285.776,-112.857c-182.373,-33.982 -430.295,-47.789 -703.27,-47.789Zm951.407,171.494c-5.671,2.303 -12.603,4.775 -20.724,7.41c-71.134,23.076 -228.55,56.691 -436.345,80.425c-144.49,16.504 -313.26,28.198 -494.338,28.198c-185.114,-0 -353.79,-10.593 -497.261,-25.516c-210.565,-21.902 -366.694,-53.093 -440.492,-73.783c-9.459,-2.652 -17.514,-5.115 -24.095,-7.362c13.231,-12.988 30.758,-24.862 52.021,-35.889c48.961,-25.392 117.052,-45.701 199.964,-61.807c181.067,-35.172 431.793,-49.836 709.863,-49.836c224.276,-0 431.509,9.314 598.867,31.676c164.18,21.937 289.483,55.427 352.54,106.484Z" style="fill:#7e4021;"/></g></svg>