<?xml version="1.0" encoding="UTF-8" standalone="no"?><!DOCTYPE svg PUBLIC "-//W3C//DTD SVG 1.1//EN" "http://www.w3.org/Graphics/SVG/1.1/DTD/svg11.dtd"><svg width="100%" height="100%" viewBox="0 0 1854 2133" version="1.1" xmlns="http://www.w3.org/2000/svg" xmlns:xlink="http://www.w3.org/1999/xlink" xml:space="preserve" xmlns:serif="http://www.serif.com/" style="fill-rule:evenodd;clip-rule:evenodd;stroke-linejoin:round;stroke-miterlimit:2;"><g id="Dirty-Coffee" serif:id="Dirty Coffee"><path d="M1.052,177.356c-5.536,55.833 16.018,101.347 44.933,154.915c62.268,115.356 156.612,272.446 33.486,692.357c-101.338,345.604 -70.515,579.374 1.806,735.55c73.272,158.232 189.505,237.8 258.469,273.487c141.449,73.195 458.962,111.261 737.069,95.479c187.051,-10.614 356.16,-45.991 443.322,-109.415c150.226,-109.314 400.848,-379.847 227.531,-928.789c-119.731,-379.218 6.308,-626.703 70.777,-774.874c17.599,-40.448 30.645,-74.01 34.131,-101.094c2.792,-21.688 -0.258,-39.859 -9.922,-54.932c-29.395,-45.845 -103.572,-79.336 -199.131,-101.577c-211.619,-49.253 -529.3,-49.27 -650.354,-53.796c-184.881,-6.914 -582.984,-11.168 -811.11,46.237c-61.163,15.391 -110.434,35.455 -141.364,60.433c-23.6,19.059 -37.181,41.189 -39.643,66.018l0,0.001Zm33.171,3.288c2.112,-21.303 17.844,-38.516 42.009,-53.726c28.126,-17.703 67.357,-31.961 113.961,-43.688c225.481,-56.74 618.993,-52.086 801.731,-45.253c119.874,4.482 434.486,4.178 644.043,52.952c52.35,12.184 98.004,27.365 131.908,46.718c20.714,11.825 36.879,25.04 46.718,40.385c7.475,11.657 6.863,26.495 2.772,44.597c-5.078,22.466 -15.959,49.05 -29.486,80.138c-66.403,152.618 -195.321,407.611 -71.998,798.209c166.282,526.658 -71.229,786.924 -215.356,891.8c-83.589,60.824 -246.216,92.909 -425.599,103.089c-271.545,15.409 -581.749,-20.336 -719.86,-91.805c-65.008,-33.639 -174.473,-108.735 -243.542,-257.889c-70.021,-151.21 -98.182,-377.549 -0.067,-712.164c127.623,-435.246 28.403,-598 -36.139,-717.57c-25.433,-47.116 -45.964,-86.683 -41.095,-135.793Z" style="fill:#7e4021;"/><path d="M212.655,245.956c-15.969,138.615 204,221.377 63.094,719.622c-156.913,554.847 92.81,750.613 198.208,807.162c183.279,98.334 746.979,116.399 914.895,-10.286c115.786,-87.357 307.798,-303.841 174.213,-742.519c-136.582,-448.522 126.626,-674.529 76.194,-756.08c-72.806,-117.73 -522.37,-115.24 -657.758,-120.49c-206.581,-8.009 -755.277,-15.202 -768.846,102.591Z" style="fill:#ffe6d8;"/><path d="M196.097,244.049c-5.141,44.634 11.647,84.104 34.793,131.607c49.317,101.215 125.497,243.54 28.822,585.386c-79.963,282.749 -55.51,474.003 1.556,601.775c58.049,129.973 150.174,195.295 204.809,224.609c111.687,59.923 362.365,91.254 581.955,78.334c148.065,-8.711 281.862,-37.948 350.858,-90.002c118.675,-89.535 317.037,-311.054 180.119,-760.678c-93.928,-308.451 5.011,-509.749 55.587,-630.269c13.963,-33.273 24.276,-60.89 27.042,-83.169c2.282,-18.384 -0.303,-33.777 -8.204,-46.553c-23.479,-37.967 -82.534,-65.97 -158.86,-84.388c-166.741,-40.238 -417.045,-40.292 -512.427,-43.99c-145.538,-5.642 -459.785,-10.709 -639.924,27.318c-48.696,10.28 -87.932,23.943 -112.57,41.004c-20.186,13.979 -31.438,30.636 -33.556,49.016Zm33.115,3.815c1.14,-9.9 8.546,-17.898 19.418,-25.426c21.935,-15.19 57.124,-26.642 100.478,-35.795c177.833,-37.54 488.072,-32.194 631.747,-26.623c94.162,3.65 341.293,3.361 505.899,43.084c40.762,9.836 76.325,22.059 102.724,37.683c15.766,9.332 28.117,19.724 35.606,31.834c5.558,8.988 4.865,20.438 1.822,34.396c-3.966,18.194 -12.482,39.719 -23.047,64.895c-52.384,124.83 -154.024,333.398 -56.737,652.878c130.251,427.734 -55.41,639.182 -168.308,724.359c-65.338,49.294 -192.523,75.086 -332.74,83.336c-212.83,12.522 -455.989,-16.354 -564.238,-74.432c-50.762,-27.235 -136.198,-88.07 -190.132,-208.829c-54.917,-122.96 -76.868,-307.012 0.083,-579.111c100.593,-355.697 20.384,-503.741 -30.932,-609.058c-19.984,-41.013 -36.083,-74.655 -31.643,-113.191Z" style="fill:#7e4021;"/><path d="M1388.85,1762.45c89.613,-64.911 -188.335,-2.189 -435.469,2.805c-175.997,3.556 -452.212,-51.941 -535.725,-50.978c-42.089,0.485 38.033,48.659 56.299,58.459c183.279,98.334 746.979,116.399 914.895,-10.286Z" style="fill:#9d5e3e;"/><path d="M1398.76,1775.86c12.94,-9.396 19.56,-17.587 21.997,-23.404c2.707,-6.464 2.418,-12.177 0.536,-17.135c-1.721,-4.532 -5.008,-8.836 -10.687,-12.1c-5.494,-3.159 -15.174,-5.657 -28.71,-6.371c-66.737,-3.519 -255.368,28.244 -428.849,31.749c-175.951,3.556 -452.09,-51.942 -535.581,-50.98c-14.196,0.164 -21.263,5.526 -24.49,9.862c-4.903,6.588 -6.427,16.288 1.092,27.231c11.257,16.383 57.995,45.199 72.009,52.718c111.687,59.923 362.365,91.254 581.955,78.334c147.977,-8.706 281.702,-37.913 350.734,-89.908l-0.006,0.004Zm-958.948,-44.216c102.507,6.346 351.084,53.572 513.908,50.282c148.489,-3.001 308.089,-26.789 392.626,-31.318c12.19,-0.653 22.718,-0.911 31.289,-0.586c-65.66,48.729 -192.171,74.265 -331.561,82.467c-212.83,12.522 -455.989,-16.354 -564.238,-74.432c-7.347,-3.942 -25.143,-14.372 -40.331,-25.174c-0.556,-0.395 -1.122,-0.81 -1.693,-1.239Z" style="fill:#7e4021;"/><path d="M215.426,251.937c-19.754,25.666 26.784,103.971 54.332,156.508c124.424,237.282 205.068,-39.06 205.474,143.238c0.357,160.587 -43.989,401.014 -42.574,514.409c0.722,57.875 -3.671,153.235 51.061,165.96c57.44,13.355 72.577,-96.008 74.179,-111.438c10.501,-101.148 -25.222,-226.907 15.743,-322.61c25.603,-59.814 71.481,-24.935 86.344,20.647c7.223,22.148 8.743,138.522 26.521,137.267c63.416,-4.476 51.256,-218.301 93.732,-186.736c33.99,25.259 33.175,113.003 35.179,149.195c8.701,157.121 -26.241,313.177 -29.185,469.99c-0.885,47.178 -1.674,183.746 58.613,202.176c14.956,4.572 29.135,-2.279 40.084,-12.171c54.97,-49.66 33.464,-135.138 23.917,-198.785c-29.544,-196.958 -22.13,-396.695 2.846,-593.875c7.678,-60.616 22.858,-167.175 92.581,-190.187c89.893,-29.67 72.257,137.891 111.351,144.956c61.797,11.168 1.332,-205.605 80.653,-140.657c14.027,11.485 22.805,29.054 29.851,45.352c7.547,17.456 12.287,35.819 15.38,54.555c4.668,28.284 6.115,57.055 6.66,85.678c2.54,133.354 -28.75,267.334 -17.378,400.357c2.174,25.423 19.916,121.415 66.727,95.609c55.992,-30.868 57.727,-140.73 60.913,-194.305c7.96,-133.851 -40.877,-523.407 41.287,-610.882c78.895,-83.996 90.504,118.832 195.594,-60.835c18.073,-30.897 53.284,-92.212 33.172,-131.116c-17.523,-33.896 -216.372,-47.62 -250.011,-51.71c-254.549,-30.95 -1123.66,-31.76 -1163.05,19.41Z" style="fill:#c48464;"/><path d="M453.86,502.816c0.551,1.463 1.182,3.319 1.551,4.984c2.124,9.567 3.109,23.695 3.154,43.92c0.358,160.64 -43.987,401.148 -42.572,514.58c0.449,36.06 -0.695,86.107 10.34,123.251c8.966,30.183 25.9,52.292 53.611,58.735c30.837,7.17 53.627,-10.152 68.766,-37.078c18.255,-32.467 24.729,-78.885 25.766,-88.873c5.329,-51.335 -0.945,-108.919 -3.48,-165.81c-2.383,-53.459 -1.57,-106.32 17.967,-151.963c6.265,-14.635 12.388,-22.249 20.614,-21.637c4.773,0.355 9.318,3.235 13.655,7.067c9.012,7.963 16.523,20.379 20.908,33.826c5.777,17.718 7.905,95.737 17.627,125.593c3.086,9.477 7.582,15.702 11.621,18.774c4.47,3.401 9.295,4.711 14.292,4.359c20.663,-1.459 37.196,-17.363 48.483,-43.029c12.869,-29.264 20.014,-71.879 27.296,-106.054c2.912,-13.664 5.807,-25.84 9.335,-34.757c0.349,-0.883 0.803,-1.846 1.279,-2.778c8.424,8.872 12.928,23.684 16.355,39.74c7.105,33.288 7.178,72.497 8.348,93.633c8.678,156.71 -26.272,312.352 -29.208,468.755c-0.549,29.261 -0.9,91.773 12.238,141.228c10.16,38.244 29.25,68.36 58.166,77.2c20.813,6.362 40.893,-1.977 56.129,-15.742c31.133,-28.126 41.305,-66.125 41.646,-106.374c0.309,-36.416 -7.527,-74.637 -12.419,-107.252c-29.316,-195.442 -21.886,-393.644 2.898,-589.307c4.422,-34.908 11.18,-85.753 30.538,-125.564c11.393,-23.432 27.101,-43.092 50.733,-50.892c8.889,-2.933 16.221,-3.501 22.385,-1.552c9.392,2.971 15.408,11.327 20.495,21.268c7.579,14.812 12.416,33.357 16.904,50.919c6.172,24.15 12.114,46.607 20.71,59.089c6.222,9.036 13.933,14.228 22.669,15.807c9.049,1.636 16.629,0.287 23.059,-2.94c8.53,-4.282 15.385,-12.371 19.925,-23.952c7.506,-19.146 8.754,-50.371 10.375,-79.065c0.484,-8.572 1.044,-16.887 1.948,-24.455c0.876,-7.337 2.005,-13.888 3.915,-19.008c0.287,-0.77 0.775,-1.734 1.198,-2.516c2.527,1.212 8.152,4.099 12.638,7.773c11.999,9.825 19.085,25.129 25.112,39.071c7.006,16.205 11.363,33.262 14.234,50.655c4.537,27.492 5.911,55.46 6.441,83.282c2.547,133.719 -28.724,268.07 -17.321,401.459c1.427,16.684 9.267,61.072 26.144,87.883c8.847,14.056 20.326,23.575 33.35,26.411c9.491,2.067 20.148,0.961 31.885,-5.51c25.928,-14.293 42.688,-42.618 52.643,-76.152c13.281,-44.733 14.893,-98.665 16.861,-131.759c5.566,-93.582 -16.712,-312.308 -2.404,-465.088c5.706,-60.926 16.294,-110.984 39.202,-135.372c8.697,-9.26 15.89,-14.358 22.761,-15.792c6.517,-1.361 12.092,1.313 17.544,4.632c8.878,5.405 17.28,12.912 26.1,18.956c13.982,9.582 28.924,15.713 46.056,12.903c21.539,-3.532 49.71,-23.562 85.372,-84.53c11.428,-19.538 29.196,-50.691 37.134,-81.284c6.124,-23.605 6.269,-46.92 -3.544,-65.901c-2.672,-5.169 -7.475,-10.419 -14.696,-15.048c-11.063,-7.09 -29.382,-13.54 -51.606,-18.852c-67.232,-16.072 -172.728,-23.81 -196.502,-26.701c-204.349,-24.846 -803.392,-30.357 -1055.07,-5.268c-45.58,4.543 -80.122,10.229 -99.567,16.773c-12.338,4.152 -19.998,9.565 -23.63,14.285c-8.338,10.833 -10.37,28.157 -5.159,49.341c8.901,36.188 38.078,87.195 57.939,125.071c41.158,78.49 79.679,104.309 111.062,109.804c22.7,3.975 42.857,-2.232 59.972,-10.194l27.828,-12.978Zm665.285,221.336c-0.37,-0.381 -1.234,-1.304 -1.701,-1.982c-1.613,-2.343 -2.995,-5.26 -4.326,-8.56c-6.737,-16.703 -11.285,-41.257 -18.156,-64.17c-9.891,-32.984 -25.547,-61.837 -51.439,-70.893c-12.119,-4.239 -26.71,-4.712 -44.474,1.151c-32.149,10.61 -54.763,36.092 -70.262,67.968c-20.98,43.147 -28.838,98.12 -33.63,135.952c-25.168,198.696 -32.564,399.969 -2.793,598.441c4.655,31.033 12.345,67.374 12.051,102.024c-0.261,30.819 -6.82,60.386 -30.659,81.922c-6.673,6.029 -14.924,11.386 -24.039,8.6c-8.471,-2.59 -14.959,-8.825 -20.34,-16.888c-6.742,-10.101 -11.626,-22.957 -15.355,-36.994c-12.281,-46.229 -11.639,-104.691 -11.126,-132.044c2.951,-157.222 37.886,-313.692 29.163,-471.223c-1.235,-22.295 -1.537,-63.634 -9.032,-98.748c-5.828,-27.305 -16.566,-50.803 -32.848,-62.903c-9.015,-6.699 -17.292,-7.519 -24.443,-5.625c-6.423,1.7 -12.752,6.131 -17.904,14.145c-3.925,6.105 -7.499,14.982 -10.609,25.836c-8.907,31.092 -15.006,81.244 -28.027,117.044c-3.651,10.038 -7.759,18.83 -12.986,25.15c-1.106,1.338 -2.243,2.562 -3.45,3.595c-0.783,-2.605 -1.586,-5.554 -2.111,-8.195c-7.121,-35.788 -9.675,-98.499 -14.818,-114.271c-6.317,-19.371 -17.546,-37 -30.528,-48.471c-10.328,-9.126 -21.885,-14.483 -33.252,-15.329c-18.731,-1.394 -39.466,8.433 -53.732,41.761c-21.428,50.061 -23.237,107.93 -20.624,166.564c2.46,55.202 8.797,111.072 3.626,160.884c-0.886,8.528 -6.08,48.257 -21.666,75.978c-7.438,13.228 -17.012,24.47 -32.162,20.948c-16.089,-3.741 -24.001,-18.236 -29.207,-35.761c-10.218,-34.393 -8.546,-80.784 -8.963,-114.174c-1.414,-113.357 42.933,-353.704 42.575,-514.238c-0.064,-28.782 -2.273,-47.106 -5.866,-58.216c-4.068,-12.577 -10.503,-18.893 -17.084,-22.138c-9.551,-4.709 -22.528,-2.921 -37.771,4.615c-15.115,7.473 -34.964,21.52 -59.368,17.247c-25.55,-4.473 -53.783,-28.549 -87.29,-92.449c-16.198,-30.891 -39.187,-70.827 -50.732,-103.303c-3.366,-9.469 -5.749,-18.181 -6.323,-25.654c-0.277,-3.594 -0.558,-6.756 0.767,-9.035c1.447,-0.662 9.214,-4.14 16.091,-5.955c18.961,-5.004 47.908,-9.238 84.4,-12.875c249.928,-24.915 844.809,-19.485 1047.74,5.189c23.321,2.836 126.826,10.265 192.776,26.03c13.161,3.147 24.735,6.59 33.606,10.475c2.961,1.296 5.576,2.621 7.763,4.022c1.316,0.844 2.586,1.35 3.073,2.292c6.279,12.146 4.808,27.117 0.889,42.221c-7.125,27.463 -23.383,55.287 -33.642,72.826c-14.8,25.303 -27.512,42.607 -38.872,53.87c-8.832,8.757 -16.171,13.457 -23.121,14.596c-5.658,0.928 -10.633,-0.934 -15.403,-3.523c-7.321,-3.973 -14.151,-9.697 -21.099,-14.947c-15.919,-12.027 -32.588,-21.184 -51.858,-18.255c-12.547,1.908 -26.902,8.956 -43.003,26.099c-26.393,28.098 -41.52,84.892 -48.094,155.085c-14.343,153.151 7.897,372.408 2.318,466.217c-1.856,31.197 -3.022,82.082 -15.541,124.251c-7.246,24.405 -17.912,46.046 -36.782,56.448c-3.248,1.791 -6.072,2.704 -8.699,2.132c-5.161,-1.125 -8.727,-6.029 -12.233,-11.599c-13.983,-22.214 -19.96,-59.142 -21.141,-72.966c-11.342,-132.658 19.968,-266.266 17.435,-399.254c-0.561,-29.425 -2.081,-58.999 -6.88,-88.075c-3.314,-20.08 -8.437,-39.747 -16.526,-58.455c-8.065,-18.656 -18.534,-38.487 -34.59,-51.634c-19.055,-15.602 -33.756,-17.639 -43.677,-14.719c-7.937,2.336 -14.57,7.799 -19.36,16.619c-4.376,8.056 -7.276,19.842 -8.93,33.69c-2.279,19.082 -2.545,42.683 -4.415,63.703c-0.985,11.076 -2.364,21.355 -5.066,29.452c-1.474,4.413 -2.246,8.823 -6.243,8.479Z" style="fill:#7e4021;"/><path d="M212.655,245.956c-8.311,72.14 404.174,151.493 783.042,150.446c475.871,-1.314 667.747,-93.438 643.562,-132.547c-72.806,-117.73 -522.37,-115.24 -657.758,-120.49c-206.581,-8.009 -755.277,-15.202 -768.846,102.591Z" style="fill:#e3b198;"/><path d="M196.097,244.049c-1.521,13.206 4.448,27.488 20.217,40.781c16.594,13.988 45.719,28.214 84.879,41.426c143.403,48.384 427.265,87.551 694.55,86.813c337.375,-0.932 533.701,-47.695 612.797,-88.796c23.994,-12.468 38.257,-25.28 44.418,-35.982c7.074,-12.287 6.447,-23.546 0.476,-33.202c-23.479,-37.967 -82.534,-65.97 -158.86,-84.388c-166.741,-40.238 -417.045,-40.292 -512.427,-43.99c-145.538,-5.642 -459.785,-10.709 -639.924,27.318c-48.696,10.28 -87.932,23.943 -112.57,41.004c-20.186,13.979 -31.438,30.636 -33.556,49.016l0,-0Zm1428.08,27.149c-0.855,1.317 -2.78,4.135 -4.79,6.064c-5.82,5.583 -14.577,11.386 -26.213,17.433c-77.096,40.062 -268.675,84.132 -597.519,85.041c-263.13,0.726 -542.628,-37.433 -683.802,-85.064c-34.018,-11.478 -59.636,-23.177 -74.051,-35.329c-2.849,-2.401 -5.173,-4.753 -6.824,-7.158c-1.028,-1.498 -1.933,-2.836 -1.762,-4.321l-0,-0.001c1.14,-9.899 8.546,-17.897 19.418,-25.425c21.935,-15.19 57.124,-26.642 100.478,-35.795c177.833,-37.54 488.072,-32.194 631.747,-26.623c94.162,3.65 341.293,3.361 505.899,43.084c40.762,9.836 76.325,22.059 102.724,37.683c15.145,8.964 27.138,18.906 34.695,30.411Z" style="fill:#7e4021;"/><path d="M779.498,303.197c211.421,14.415 486.018,15.82 696.421,-8.04c9.14,-1.036 15.719,-9.298 14.682,-18.438c-1.036,-9.14 -9.298,-15.719 -18.438,-14.683c-208.583,23.654 -480.806,22.195 -690.398,7.905c-9.177,-0.626 -17.136,6.317 -17.761,15.494c-0.626,9.177 6.317,17.136 15.494,17.762Z" style="fill:#7e4021;"/><path d="M562.772,281.829c29.325,5.26 98.541,10.977 123.37,12.013c9.19,0.384 16.963,-6.767 17.346,-15.957c0.384,-9.191 -6.766,-16.964 -15.957,-17.347c-23.923,-0.998 -90.619,-6.451 -118.874,-11.518c-9.054,-1.624 -17.723,4.408 -19.347,13.462c-1.624,9.054 4.408,17.724 13.462,19.347Z" style="fill:#7e4021;"/><path d="M1600.36,276.91c13.522,-1.8 48.894,-5.631 81.431,-13.722c23.968,-5.96 46.328,-14.535 59.419,-25.472c10.257,-8.569 15.778,-18.765 16.257,-29.91c0.436,-10.147 -3.36,-22.017 -15.137,-34.818c-6.228,-6.769 -16.78,-7.209 -23.55,-0.981c-6.77,6.228 -7.209,16.78 -0.981,23.55c4.013,4.362 6.738,7.589 6.352,10.99c-0.27,2.377 -2.368,4.012 -4.638,5.856c-3.13,2.543 -7.046,4.802 -11.459,6.907c-34.159,16.3 -94.025,22.153 -112.093,24.558c-9.118,1.214 -15.535,9.602 -14.321,18.721c1.213,9.118 9.602,15.535 18.72,14.321Z" style="fill:#7e4021;"/></g></svg>