<?xml version="1.0" encoding="UTF-8" standalone="no"?><!DOCTYPE svg PUBLIC "-//W3C//DTD SVG 1.1//EN" "http://www.w3.org/Graphics/SVG/1.1/DTD/svg11.dtd"><svg width="100%" height="100%" viewBox="0 0 1813 2135" version="1.1" xmlns="http://www.w3.org/2000/svg" xmlns:xlink="http://www.w3.org/1999/xlink" xml:space="preserve" xmlns:serif="http://www.serif.com/" style="fill-rule:evenodd;clip-rule:evenodd;stroke-linejoin:round;stroke-miterlimit:2;"><g id="Double-Espresso" serif:id="Double Espresso"><path d="M94.9,134.98c-33.251,48.832 -55.403,123.71 -69.549,206.954c-20.689,121.742 -24.759,261.531 -24.998,360.289c-1.141,471.897 40.424,747.722 210.834,1124.28c36.926,81.597 125.33,199.88 195.391,235.689c118.292,60.461 402.23,85.67 650.275,65.534c166.872,-13.547 317.354,-47.99 391.64,-103.923c89.882,-67.676 145.706,-191.774 193.69,-289.705c151.474,-309.144 186.618,-916.719 163.831,-1283.79c-6.894,-111.038 -19.138,-200.223 -34.815,-252.919c-7.671,-25.782 -16.759,-43.589 -25.786,-52.741c-35.683,-36.179 -105.606,-63.875 -190.896,-83.898c-191.285,-44.908 -461.006,-54.273 -569.533,-58.802c-165.681,-6.914 -494.657,4.476 -702.604,49.296c-54.754,11.802 -101.274,25.995 -134.688,42.598c-24.736,12.292 -42.66,26.255 -52.792,41.135Zm27.552,18.761c7.583,-11.136 21.561,-20.846 40.073,-30.045c31.458,-15.631 75.33,-28.753 126.879,-39.864c205.453,-44.283 530.496,-55.408 694.19,-48.577c107.336,4.479 374.118,13.534 563.304,57.949c77.771,18.258 142.246,41.865 174.783,74.854c9.154,9.281 16.454,31.101 23.709,62.275c12.196,52.406 21.605,129.423 27.354,222.043c22.488,362.24 -11.012,961.975 -160.494,1267.05c-45.859,93.594 -97.906,213.063 -183.807,277.742c-70.901,53.384 -215.018,84.398 -374.287,97.328c-241.164,19.578 -517.397,-3.208 -632.408,-61.991c-65.034,-33.24 -145.916,-144.008 -180.193,-219.751c-168.304,-371.904 -208.996,-644.388 -207.869,-1110.45c0.236,-97.248 4.155,-234.905 24.527,-354.785c13.228,-77.838 33.148,-148.118 64.239,-193.778Z" style="fill:#7e4021;"/><path d="M218.577,232.264c-28.24,43.082 -47.102,109.135 -59.116,182.575c-17.521,107.093 -20.971,230.062 -21.173,316.937c-0.97,416.405 50.144,639.308 208.557,894.481c133.634,215.259 406.892,280.85 595.026,275.862c188.415,-4.994 414.222,-93.412 533.96,-305.63c147.864,-262.067 197.754,-779.145 188.674,-1092.55c-2.751,-94.963 -10.962,-171.385 -23.222,-216.784c-6.13,-22.702 -13.842,-38.443 -21.674,-46.691c-30.456,-32.076 -90.064,-56.737 -162.861,-74.49c-162.07,-39.524 -390.593,-47.787 -482.545,-51.773c-140.392,-6.086 -419.156,3.952 -595.364,43.404c-46.622,10.438 -86.224,23.012 -114.675,37.697c-21.38,11.036 -36.829,23.598 -45.587,36.957Zm27.878,18.275c6.233,-9.509 17.78,-17.757 32.998,-25.612c26.445,-13.649 63.335,-25.087 106.669,-34.789c173.622,-38.873 448.305,-48.626 586.638,-42.63c90.717,3.933 316.196,11.862 476.091,50.855c65.19,15.898 119.312,36.333 146.585,65.058c7.551,7.952 13.011,26.319 18.332,52.36c9.151,44.79 15.136,110.379 17.417,189.129c8.935,308.362 -38.898,817.344 -184.385,1075.2c-113.346,200.889 -327.456,283.961 -505.812,288.689c-178.636,4.735 -438.936,-55.731 -565.824,-260.123c-155.25,-250.078 -204.493,-468.729 -203.543,-876.821c0.199,-85.42 3.509,-206.334 20.736,-311.634c11.149,-68.155 27.89,-129.7 54.098,-169.681Z" style="fill:#7e4021;"/><path d="M1641.07,800.971c-525.252,-117.95 -1486.02,-16.126 -1485.63,9.226c5.567,362.84 58.98,571.142 205.568,807.269c130.261,209.826 397.041,272.854 580.426,267.993c183.385,-4.861 403.344,-90.607 519.885,-297.16c105.877,-187.651 160.787,-507.167 179.755,-787.328Z" style="fill:#9d5e3e;"/><path d="M1657.7,802.097c0.556,-8.203 -4.954,-15.586 -12.977,-17.387c-158.527,-35.599 -356.48,-51.37 -555.936,-55.217c-418.476,-8.073 -843.523,36.36 -924.152,58.274c-11.631,3.161 -18.297,7.293 -20.695,9.799c-4.129,4.316 -5.228,8.898 -5.167,12.886c5.627,366.712 59.921,577.158 208.074,815.805c133.634,215.259 406.892,280.85 595.026,275.862c188.415,-4.994 414.222,-93.412 533.96,-305.63c106.841,-189.361 162.727,-511.679 181.867,-794.392Zm-1485.42,18.064c14.993,-4.384 45.961,-9.641 89.307,-15.464c258.561,-34.735 942.083,-80.401 1361.86,9.471l0.001,0c-19.662,274.116 -73.531,583.189 -176.643,765.941c-113.346,200.889 -327.456,283.961 -505.812,288.689c-178.636,4.735 -438.936,-55.731 -565.824,-260.123c-143.646,-231.388 -196.549,-435.846 -202.884,-788.514Z" style="fill:#7e4021;"/><ellipse cx="892.365" cy="786.192" rx="734.407" ry="160.791" style="fill:#c48464;"/><path d="M892.365,608.735c-215.287,-0 -409.208,20.262 -544.43,52.447c-84.838,20.193 -147.088,45.612 -178.683,73.049c-18.939,16.446 -27.961,34.235 -27.961,51.961c-0,17.727 9.022,35.515 27.961,51.962c31.595,27.437 93.845,52.855 178.683,73.048c135.222,32.186 329.143,52.448 544.43,52.448c215.287,-0 409.207,-20.262 544.43,-52.448c84.838,-20.193 147.087,-45.611 178.683,-73.048c18.939,-16.447 27.961,-34.235 27.961,-51.962c-0,-17.726 -9.022,-35.515 -27.961,-51.961c-31.596,-27.437 -93.845,-52.856 -178.683,-73.049c-135.223,-32.185 -329.143,-52.447 -544.43,-52.447Zm-0,33.333c175.014,0 335.723,13.487 461.511,36.01c105.765,18.937 186.453,43.862 228.914,73.015c16.681,11.452 27.315,22.442 27.315,35.099c0,12.657 -10.634,23.647 -27.315,35.1c-42.461,29.153 -123.149,54.077 -228.914,73.015c-125.788,22.523 -286.497,36.009 -461.511,36.009c-175.014,0 -335.723,-13.486 -461.511,-36.009c-105.766,-18.938 -186.454,-43.862 -228.915,-73.015c-16.681,-11.453 -27.315,-22.443 -27.315,-35.1c0,-12.657 10.635,-23.647 27.316,-35.1c42.461,-29.153 123.148,-54.077 228.914,-73.014c125.788,-22.523 286.497,-36.01 461.511,-36.01Z" style="fill:#7e4021;"/><path d="M637.053,311.198c219.869,14.991 505.439,16.454 724.25,-8.359c9.14,-1.037 15.719,-9.299 14.683,-18.439c-1.037,-9.14 -9.299,-15.719 -18.439,-14.682c-216.991,24.607 -500.187,23.09 -718.227,8.224c-9.177,-0.626 -17.136,6.317 -17.762,15.494c-0.625,9.177 6.317,17.136 15.495,17.762Z" style="fill:#7e4021;"/><path d="M411.702,288.982c30.48,5.467 102.423,11.408 128.23,12.485c9.191,0.383 16.963,-6.767 17.347,-15.957c0.383,-9.191 -6.767,-16.964 -15.958,-17.347c-24.901,-1.039 -94.324,-6.716 -123.735,-11.991c-9.054,-1.624 -17.723,4.409 -19.347,13.463c-1.624,9.054 4.408,17.723 13.463,19.347Z" style="fill:#7e4021;"/><path d="M1490.72,283.861c14.052,-1.871 50.813,-5.851 84.626,-14.259c24.82,-6.172 47.981,-15.034 61.537,-26.359c10.506,-8.777 16.179,-19.21 16.67,-30.626c0.448,-10.417 -3.478,-22.591 -15.569,-35.733c-6.228,-6.77 -16.78,-7.209 -23.55,-0.981c-6.769,6.228 -7.209,16.78 -0.981,23.549c4.347,4.725 7.198,8.277 6.78,11.961c-0.215,1.89 -1.618,3.349 -3.198,4.882c-3.478,3.375 -8.321,6.249 -13.922,8.921c-35.592,16.983 -97.966,23.097 -116.791,25.603c-9.118,1.214 -15.536,9.602 -14.322,18.72c1.214,9.118 9.602,15.536 18.72,14.322Z" style="fill:#7e4021;"/></g></svg>