<?xml version="1.0" encoding="UTF-8" standalone="no"?><!DOCTYPE svg PUBLIC "-//W3C//DTD SVG 1.1//EN" "http://www.w3.org/Graphics/SVG/1.1/DTD/svg11.dtd"><svg width="100%" height="100%" viewBox="0 0 2941 2069" version="1.1" xmlns="http://www.w3.org/2000/svg" xmlns:xlink="http://www.w3.org/1999/xlink" xml:space="preserve" xmlns:serif="http://www.serif.com/" style="fill-rule:evenodd;clip-rule:evenodd;stroke-linejoin:round;stroke-miterlimit:2;"><g id="Hielo"><path d="M170.718,130.318c-35.956,49.252 -56.553,82.44 -79.626,140.417c-45.107,113.338 -70.158,235.789 -83.079,358.676c-37.809,359.572 62.408,765.968 242.154,1065.68c112.059,186.853 283.678,283.829 472.408,331.504c186.197,47.036 389.066,45.885 566.349,36.816c193.056,-9.876 399.165,-26.258 576.515,-121.223c87.092,-46.635 162.791,-122.343 223.065,-205.947c110.816,-153.707 187.833,-340.105 242.108,-527.026c38.866,-133.855 58.834,-274.961 57.017,-415.851c-1.396,-108.228 -13.8,-291.605 -59.98,-442.454c-31.841,-104.013 -80.282,-192.41 -150.3,-233.5c-78.588,-46.119 -180.749,-52.541 -266.598,-65.122c-191.862,-28.116 -386.249,-39.993 -579.622,-44.547c-244.712,-5.763 -656.675,-20.203 -919.54,23.221c-69.142,11.422 -128.16,26.913 -171.63,47.344c-31.209,14.667 -54.709,32.102 -69.241,52.008l-0,0Zm26.922,19.655c11.764,-16.114 31.234,-29.623 56.497,-41.496c41.236,-19.38 97.297,-33.789 162.885,-44.624c261.085,-43.129 670.267,-28.508 913.322,-22.784c192.022,4.522 385.053,16.284 575.574,44.204c81.877,11.999 179.607,16.904 254.56,60.89c63.947,37.527 106.217,119.514 135.298,214.508c45.204,147.66 57.156,327.187 58.522,433.127c1.775,137.595 -17.739,275.401 -55.697,406.126c-53.213,183.266 -128.488,366.126 -237.136,516.828c-57.293,79.468 -128.976,151.726 -211.761,196.054c-172.975,92.622 -374.19,107.687 -562.483,117.319c-174.188,8.91 -373.536,10.371 -556.482,-35.844c-180.413,-45.575 -344.864,-137.712 -451.985,-316.33c-176.271,-293.921 -274.669,-692.434 -237.591,-1045.06c12.602,-119.848 36.908,-239.3 80.899,-349.835c21.877,-54.97 41.487,-86.391 75.578,-133.088l-0,-0Z" style="fill:#7e4021;"/><path d="M2324.25,426.806c-6.598,3.75 -9.83,11.485 -7.86,18.815c16.583,61.712 29.831,175.005 38.81,265.752c0.558,5.634 3.938,10.6 8.976,13.186c5.037,2.586 11.043,2.437 15.946,-0.395c50.26,-29.029 121.338,-64.978 186.174,-71.021c39.338,-3.667 76.331,3.908 103.137,33.877c20.834,23.292 26.936,64.178 21.205,112.729c-9.296,78.748 -51.12,176.72 -124.954,259.962c-86.152,97.128 -203.549,159.452 -273.529,187.781c-4.287,1.736 -7.66,5.175 -9.313,9.495c-28.016,73.247 -86.829,224.01 -96.372,253.635c-2.812,8.732 -1.604,14.328 -1.275,15.334c2.665,8.14 8.414,10.842 14.14,11.449c11.441,1.214 46.429,-5.132 94.769,-21.893c106.293,-36.855 282.078,-122.812 410.29,-271.256c165.182,-191.247 243.045,-405.098 235.566,-572.415c-5.16,-115.445 -50.682,-209.197 -134.755,-261.045c-202.504,-124.885 -424.012,-16.356 -480.955,16.01Zm-99.172,1074.52c18.093,-49.515 61.862,-161.903 86.323,-225.711c73.803,-30.822 191.828,-95.262 279.22,-193.788c78.941,-89 123.181,-193.978 133.12,-278.173c7.093,-60.084 -3.681,-110.035 -29.463,-138.859c-34.209,-38.245 -80.876,-49.523 -131.075,-44.844c-60.328,5.623 -125.914,34.848 -177.396,62.811c-8.436,-81.352 -20.045,-174.331 -34.016,-233.076l-0,-0.001c66.355,-35.452 258.919,-119.676 435.917,-10.521c75.164,46.354 114.339,130.951 118.952,234.163c7.182,160.668 -68.875,365.49 -227.493,549.138c-123.706,143.226 -293.425,225.991 -395.983,261.55c-23.81,8.256 -43.688,14.077 -58.106,17.311Z" style="fill:#7e4021;"/><path d="M271.273,245.199c-32.368,42.035 -50.901,70.369 -71.673,119.852c-40.518,96.523 -63.031,200.804 -74.638,305.459c-34.073,307.221 165.756,1140.6 1038.92,1168.02c930.055,29.212 1120.85,-894.392 1083.17,-1211.62c-11.018,-92.754 -32.955,-192.937 -71.302,-270.904c-26.694,-54.276 -61.475,-97.884 -105.361,-122.3c-70.516,-39.234 -162.187,-44.748 -239.219,-55.451c-171.895,-23.882 -346.051,-33.971 -519.298,-37.839c-219.242,-4.895 -588.328,-17.153 -823.834,19.731c-62.049,9.717 -115.013,22.91 -154.023,40.293c-28.288,12.604 -49.564,27.652 -62.737,44.759Zm26.411,20.336c10.382,-13.483 27.596,-24.713 49.892,-34.648c36.864,-16.425 86.981,-28.626 145.615,-37.809c233.817,-36.619 600.262,-24.197 817.932,-19.337c171.964,3.839 344.833,13.825 515.454,37.53c73.207,10.171 160.586,14.277 227.601,51.563c38.485,21.412 68.247,60.286 91.656,107.883c36.809,74.841 57.536,171.091 68.113,260.125c36.512,307.366 -147.881,1202.68 -1049.02,1174.37c-845.813,-26.566 -1039.84,-833.431 -1006.84,-1131.03c11.255,-101.483 32.954,-202.635 72.243,-296.232c19.493,-46.436 36.974,-72.971 67.349,-112.418Z" style="fill:#7e4021;"/><path d="M2033.28,1387.77c48.106,-74.364 -1739.39,-70.934 -1688.78,3.249c155.873,228.462 414.004,418.102 819.907,430.851c437.61,13.745 708.918,-186.833 868.875,-434.1Z" style="fill:#9d5e3e;"/><path d="M2047.27,1396.83c2.857,-4.416 3.832,-8.856 3.594,-13.139c-0.297,-5.365 -2.539,-11.118 -8.438,-16.234c-7.728,-6.702 -28.991,-14.111 -62.079,-19.548c-163.451,-26.86 -649.183,-36.075 -1049.74,-28.154c-268.279,5.305 -498.501,18.549 -569.424,38.803c-14.786,4.222 -24.105,9.676 -28.357,14.357c-3.791,4.174 -5.51,8.619 -5.946,12.929c-0.479,4.745 0.508,9.68 3.848,14.575c158.414,232.188 420.629,425.159 833.15,438.116c444.993,13.977 720.737,-190.267 883.393,-441.705Zm-34.815,-7.692c-158.098,238.27 -423.456,429.4 -847.531,416.08c-393.055,-12.345 -645.37,-193.078 -799.426,-413.116c8.784,-2.941 21.133,-5.662 36.613,-8.28c94.101,-15.915 297.247,-26.155 529.154,-30.74c398.241,-7.875 881.171,1.015 1043.68,27.719c15.926,2.617 28.584,5.357 37.513,8.337Z" style="fill:#7e4021;"/><ellipse cx="1186.11" cy="1368.08" rx="850.185" ry="169.85" style="fill:#c48464;"/><path d="M1186.11,1181.56c-246.72,0 -469.167,20.989 -625.28,54.431c-97.322,20.848 -169.362,46.989 -206.88,75.375c-23.554,17.822 -34.691,37.42 -34.691,56.711c-0,19.292 11.137,38.89 34.692,56.711c37.517,28.386 109.557,54.527 206.879,75.375c156.113,33.442 378.56,54.431 625.28,54.431c246.721,0 469.168,-20.989 625.281,-54.431c97.322,-20.848 169.362,-46.989 206.88,-75.375c23.554,-17.821 34.691,-37.42 34.691,-56.711c0,-19.291 -11.137,-38.89 -34.692,-56.711c-37.517,-28.386 -109.557,-54.527 -206.879,-75.375c-156.113,-33.442 -378.56,-54.431 -625.281,-54.431Zm0,33.333c201.189,0 386.069,14.036 531.338,37.504c122.642,19.813 216.678,46.017 267.338,76.574c12.461,7.516 22.073,15.137 28.281,23.138c4.077,5.253 6.562,10.488 6.562,15.968c-0,5.48 -2.485,10.715 -6.561,15.968c-6.209,8.001 -15.82,15.622 -28.281,23.138c-50.66,30.557 -144.696,56.761 -267.339,76.574c-145.269,23.468 -330.149,37.504 -531.338,37.504c-201.188,-0 -386.069,-14.036 -531.337,-37.504c-122.642,-19.813 -216.678,-46.017 -267.338,-76.574c-12.461,-7.516 -22.073,-15.137 -28.282,-23.138c-4.076,-5.253 -6.561,-10.488 -6.561,-15.968c0,-5.48 2.485,-10.714 6.561,-15.968c6.209,-8.001 15.82,-15.622 28.281,-23.138c50.66,-30.557 144.696,-56.761 267.339,-76.574c145.268,-23.468 330.149,-37.504 531.337,-37.504Z" style="fill:#7e4021;"/><path d="M579.302,1383.76c2.122,6.195 7.676,10.573 14.196,11.19c-0,0 68.283,6.468 138.184,2.669c71.991,-3.913 140.228,-30.179 211.928,-36.54c44.742,-3.969 89.184,-0.078 133.888,2.103c9.333,0.455 28.032,0.083 28.032,0.083c9.149,-0.189 16.434,-7.719 16.322,-16.868c-0,-0 -0.136,-10.975 -0.27,-16.46c-1.146,-46.984 -0.704,-93.95 -1.59,-140.925c-0.786,-41.64 -2.388,-90.662 -20.415,-129.186c-9.46,-20.216 -42.812,-50.35 -83.768,-78.495c-59.639,-40.985 -134.76,-78.369 -166.208,-80.321c-19.212,-1.193 -48.58,4.96 -82.358,16.647c-47.698,16.504 -104.941,43.77 -154.025,73.272c-33.214,19.964 -62.706,40.991 -83.251,60.376c-15.459,14.586 -26.031,28.664 -30.689,40.805c-10.053,26.204 -8.27,59.526 0.233,93.77c11.716,47.192 35.743,96.341 51.975,128.179c12.154,23.838 27.816,69.701 27.816,69.701Zm508.942,-53.682c-3.346,-0.012 -6.605,-0.067 -9.122,-0.19c-46.229,-2.255 -92.19,-6.116 -138.457,-2.012c-71.322,6.327 -139.18,32.566 -210.792,36.458c-51.175,2.782 -101.45,-0.142 -122.687,-1.71l-0,-0c-5.643,-15.701 -16.794,-45.643 -26.003,-63.706c-15.342,-30.092 -38.247,-76.466 -49.321,-121.07c-6.693,-26.956 -9.375,-53.172 -1.462,-73.798c3.309,-8.626 11.459,-18.137 22.442,-28.5c19.116,-18.036 46.645,-37.476 77.548,-56.051c47.092,-28.305 101.99,-54.507 147.753,-70.341c28.53,-9.872 53.166,-15.886 69.393,-14.879c28.441,1.765 95.457,37.457 149.394,74.523c34.764,23.89 64.426,47.993 72.456,65.152c16.122,34.453 16.576,78.446 17.278,115.686c0.884,46.811 0.452,93.613 1.58,140.438Z" style="fill:#7e4021;"/><path d="M1153.59,640.244c-11.677,9.701 -22.249,23.916 -35.972,49.447c-12.629,23.494 -24.849,47.209 -37.143,70.879c-9.643,18.568 -72.377,132.888 -92.452,186.889c-4.19,11.272 -6.578,20.408 -7.033,26.279c-0.471,6.077 0.783,10.625 2.358,13.674c2.306,4.463 9.023,11.73 20.181,19.949c19.504,14.365 54.623,35.236 94.174,56.923c67.193,36.844 147.233,76.152 183.948,90.083c12.277,4.659 21.138,6.429 25.003,6.253c36.358,-1.658 172.716,-33.907 212.875,-57.919c2.719,-1.626 7.304,-5.712 12.72,-12.532c8.67,-10.916 21.881,-30.642 37.097,-55.189c34.809,-56.153 80.487,-137.921 106.343,-195.006c11.92,-26.318 19.587,-47.878 21.065,-60.189c0.454,-3.778 -0.094,-8.764 -3.603,-14.259c-3.932,-6.159 -15.915,-16.594 -34.277,-28.65c-55.015,-36.119 -171.683,-95.629 -252.072,-125.639c-37.722,-14.082 -68.407,-21.117 -83.09,-18.788c-39.419,6.251 -81.772,13.633 -114.826,23.055c-24.425,6.962 -44.063,15.406 -55.296,24.74Zm509.02,141.128c-2.541,10.661 -8.869,26.269 -17.285,44.849c-25.353,55.975 -70.179,136.135 -104.31,191.197c-17.359,28.004 -38.078,55.493 -39.266,57.064c-37.672,21.995 -160.829,50.774 -195.657,52.786c-1.918,-0.605 -15.097,-4.827 -27.515,-10.11c-40.01,-17.021 -107.235,-50.511 -164.848,-82.102c-37.956,-20.812 -71.715,-40.749 -90.432,-54.534c-3.067,-2.259 -6.204,-4.966 -8.277,-6.833c1.913,-6.248 7.093,-22.504 13.138,-36.269c25.2,-57.387 73.593,-145.494 81.899,-161.486c12.221,-23.53 24.367,-47.106 36.921,-70.461c10.872,-20.225 18.664,-31.905 27.914,-39.591c8.69,-7.22 24.236,-12.936 43.131,-18.322c31.923,-9.099 72.841,-16.152 110.91,-22.189c11.787,-1.87 35.931,5.79 66.212,17.094c78.265,29.217 191.873,87.11 245.435,122.276c9.189,6.032 17.926,13.166 22.03,16.631Z" style="fill:#7e4021;"/><path d="M1413.07,817.748c-0.986,3.318 -2.448,7.92 -3.907,11.498c-5.14,12.613 -11.883,25.902 -13.626,29.577c-23.428,49.418 -54.72,94.534 -72.572,146.547c-2.986,8.7 1.653,18.188 10.354,21.174c8.7,2.987 18.188,-1.653 21.174,-10.353c17.445,-50.828 48.27,-94.796 71.164,-143.088c2.85,-6.013 17.558,-35.433 20.97,-51.085c1.994,-9.148 0.343,-16.209 -1.893,-20.01c-1.98,-3.365 -8.715,-9.709 -19.55,-16.366c-30.043,-18.457 -97.593,-50.359 -110.059,-56.807c-0.461,-0.238 -55.192,-21.724 -65.941,-26.317l-0.489,-0.213c-7.594,-4.069 -17.174,-1.656 -21.891,5.726c-0.364,0.57 -6.646,18.335 9.284,25.14c10.378,4.434 63.279,25.042 63.723,25.272c10.747,5.558 63.067,30.275 95.807,48.552c6.532,3.647 13.295,7.999 17.452,10.753Zm-155.927,-104.227c0.886,4.138 0.207,8.612 -2.248,12.456c2.261,-3.54 3.29,-7.649 2.248,-12.456Zm-4.068,-7.847c2.042,2.201 3.413,4.882 4.043,7.726l-0.02,-0.098c-0.412,-1.805 -1.246,-4.702 -4.023,-7.628Z" style="fill:#7e4021;"/><path d="M1433.95,826.303c11.118,-2.505 29.935,-6.958 41.177,-6.454c28.037,1.257 56.776,1.601 84.798,-0.213c9.179,-0.594 16.149,-8.529 15.555,-17.708c-0.594,-9.18 -8.529,-16.15 -17.708,-15.556c-26.817,1.736 -54.321,1.38 -81.152,0.177c-13.627,-0.611 -36.522,4.199 -49.998,7.236c-8.973,2.023 -14.617,10.95 -12.595,19.923c2.023,8.974 10.95,14.618 19.923,12.595Z" style="fill:#7e4021;"/><path d="M1818.25,1399.18c-0.15,-1.249 -1.187,-10.056 -1.623,-17.944c-2.689,-48.62 -2.413,-158.098 -2.599,-177.343c-0.099,-10.301 2.524,-34.684 -0.709,-51.879c-2.25,-11.963 -7.522,-21.148 -14.582,-26.104c-7.986,-5.608 -21.668,-10.322 -38.076,-13.61c-32.27,-6.465 -76.274,-8.646 -96.645,-10.985c-34.919,-4.01 -150.416,-20.716 -170.947,-17.834c-11.27,1.582 -35.185,10.843 -64.017,24.426c-63.609,29.968 -153.184,80.414 -179.541,101.7c-8.186,6.611 -14.556,20.47 -17.301,38.417c-4.747,31.036 -1.17,75.948 -0.538,92.761c0.555,14.749 1.885,29.471 2.202,44.227c0.058,2.702 0.174,8.106 0.174,8.106c0.101,4.689 2.173,9.119 5.707,12.202c3.534,3.083 8.204,4.534 12.863,3.997c0,0 8.173,-0.999 12.272,-0.878c19.504,0.575 39.192,1.956 58.659,3.242c52.515,3.468 105.726,3.342 158.35,3.861c73.868,0.729 247.228,7.656 321.079,6.069c5.712,-0.123 10.964,-3.163 13.914,-8.055c2.632,-4.364 3.107,-9.66 1.358,-14.376Zm-39.401,-246.481c0.376,1.235 2.107,7.118 2.468,11.18c1.309,14.74 -0.698,32.266 -0.62,40.336c0.187,19.41 -0.065,129.825 2.647,178.862c0.105,1.883 0.226,3.694 0.361,5.429l0,-0c-80.924,0.336 -233.485,-5.625 -301.478,-6.295c-52.002,-0.513 -104.586,-0.363 -156.481,-3.791c-19.534,-1.29 -39.286,-2.666 -58.862,-3.266c-0.518,-11.877 -1.455,-23.741 -1.902,-35.623c-0.511,-13.58 -3.239,-46.612 -1.173,-74.19c0.615,-8.203 1.634,-15.876 3.414,-22.175c0.925,-3.273 1.464,-6.199 3.231,-7.626c25.343,-20.468 111.644,-68.664 172.805,-97.478c24.642,-11.61 44.811,-20.219 54.444,-21.571c19.53,-2.742 129.293,14.125 162.51,17.939c17.082,1.962 51.157,3.747 80.424,8.206c16.027,2.442 30.545,5.146 38.212,10.063Z" style="fill:#7e4021;"/><path d="M1508.84,1173.74c0.133,-1.123 0.151,-2.276 0.045,-3.447c-0.828,-9.161 -8.938,-15.927 -18.099,-15.098c-1.107,0.1 -14.717,2.449 -15.261,16.956c-0.216,5.773 0.464,34.593 0.484,36.907c0.326,37.751 -1.041,75.599 -0.23,113.327c0.198,9.197 7.824,16.502 17.021,16.305c9.196,-0.198 16.502,-7.824 16.305,-17.021c-0.808,-37.585 0.561,-75.291 0.236,-112.899l-0.501,-35.03Zm-2.95,7.67c-2.719,3.849 -7.046,6.525 -12.103,6.983c3.733,-0.338 8.47,-1.702 12.103,-6.983Z" style="fill:#7e4021;"/><path d="M1786.61,1421.62c18.344,-0.384 41.921,3.534 60.175,1.584c9.147,-0.976 15.779,-9.195 14.803,-18.342c-0.977,-9.146 -9.196,-15.779 -18.342,-14.803c-17.395,1.858 -39.854,-2.131 -57.334,-1.765c-9.196,0.193 -16.506,7.816 -16.314,17.012c0.193,9.197 7.816,16.507 17.012,16.314Z" style="fill:#7e4021;"/><path d="M1304.66,1377.21c-15.613,-1.309 -29.275,0.066 -42.138,0.678c-9.894,0.47 -19.205,0.573 -28.762,-3.022c-8.609,-3.238 -18.228,1.122 -21.467,9.732c-3.239,8.609 1.122,18.229 9.731,21.467c14.009,5.27 27.579,5.808 42.081,5.118c11.531,-0.548 23.775,-1.929 37.771,-0.756c9.166,0.769 17.232,-6.049 18,-15.216c0.769,-9.166 -6.049,-17.232 -15.216,-18.001Z" style="fill:#7e4021;"/><path d="M1088.51,1363.68c38.002,1.397 59.856,5.801 92.069,-3.32c8.851,-2.506 14.002,-11.726 11.496,-20.576c-2.506,-8.851 -11.727,-14.002 -20.577,-11.496c-28.598,8.097 -48.027,3.321 -81.764,2.082c-9.193,-0.338 -16.93,6.851 -17.268,16.043c-0.337,9.192 6.851,16.93 16.044,17.267Z" style="fill:#7e4021;"/><path d="M823.934,921.391c-1.128,3.629 -2.297,7.238 -3.291,10.91c-2.883,10.654 -5.804,21.229 -8.036,32.048c-6.877,33.346 -10.262,67.616 -9.773,101.68c1.383,96.301 18.987,189.632 35.042,284.18c1.54,9.068 10.153,15.181 19.222,13.641c9.069,-1.54 15.181,-10.153 13.641,-19.222c-15.768,-92.857 -33.217,-184.498 -34.575,-279.078c-0.454,-31.647 2.7,-63.486 9.09,-94.468c2.094,-10.155 4.86,-20.075 7.566,-30.075c0.909,-3.361 1.995,-6.66 3.026,-9.983c0.108,-0.347 0.261,-0.992 0.411,-1.683c1.922,-4.073 2.196,-8.908 0.362,-13.404c-2.961,-7.257 -7.991,-9.049 -10.745,-9.889c-5.608,-1.711 -11.607,-1.152 -16.974,4.415c-0.979,1.016 -2.094,2.416 -3.042,4.342c-0.475,0.966 -1.538,5.065 -1.924,6.586Zm4.993,12.133c-1.314,-1.421 -2.398,-3.098 -3.171,-4.994c0.909,2.23 2.048,3.823 3.171,4.994Z" style="fill:#7e4021;"/><path d="M599.803,1362.6c-14.568,-1.086 -27.949,-0.348 -39.598,0.043c-8.719,0.292 -16.171,0.734 -21.89,-1.238c-8.696,-2.998 -18.19,1.627 -21.189,10.324c-2.999,8.696 1.627,18.19 10.323,21.189c7.385,2.546 16.497,3.351 27.067,3.21c12.113,-0.162 26.673,-1.489 42.81,-0.287c9.173,0.683 17.175,-6.209 17.859,-15.383c0.683,-9.173 -6.209,-17.175 -15.382,-17.858Z" style="fill:#7e4021;"/><path d="M903.655,352.93c268.64,20.538 617.555,22.546 884.902,-11.449c9.125,-1.16 15.592,-9.51 14.432,-18.636c-1.161,-9.125 -9.511,-15.591 -18.636,-14.431c-265.309,33.736 -611.565,31.661 -878.157,11.279c-9.172,-0.701 -17.187,6.176 -17.889,15.348c-0.701,9.172 6.176,17.188 15.348,17.889Z" style="fill:#7e4021;"/><path d="M628.416,322.51c37.198,7.481 124.995,15.608 156.489,17.081c9.189,0.43 16.997,-6.681 17.427,-15.87c0.43,-9.188 -6.681,-16.997 -15.869,-17.427c-30.484,-1.426 -115.471,-9.222 -151.475,-16.463c-9.018,-1.813 -17.812,4.036 -19.625,13.054c-1.814,9.018 4.035,17.812 13.053,19.625Z" style="fill:#7e4021;"/><path d="M1946.7,315.477c24.894,-3.715 107.168,-13.722 154.235,-38.904c23.906,-12.791 39.095,-30.058 41.111,-49.974c1.373,-13.561 -2.962,-29.289 -17.233,-46.682c-5.834,-7.112 -16.345,-8.148 -23.456,-2.313c-7.111,5.834 -8.148,16.345 -2.313,23.456c6.959,8.482 10.508,15.569 9.838,22.182c-1.049,10.362 -11.235,17.285 -23.673,23.94c-43.708,23.385 -120.312,31.877 -143.43,35.327c-9.097,1.358 -15.381,9.847 -14.023,18.945c1.358,9.097 9.846,15.381 18.944,14.023Z" style="fill:#7e4021;"/></g></svg>