<?xml version="1.0" encoding="UTF-8" standalone="no"?><!DOCTYPE svg PUBLIC "-//W3C//DTD SVG 1.1//EN" "http://www.w3.org/Graphics/SVG/1.1/DTD/svg11.dtd"><svg width="100%" height="100%" viewBox="0 0 2682 4773" version="1.1" xmlns="http://www.w3.org/2000/svg" xmlns:xlink="http://www.w3.org/1999/xlink" xml:space="preserve" xmlns:serif="http://www.serif.com/" style="fill-rule:evenodd;clip-rule:evenodd;stroke-linejoin:round;stroke-miterlimit:2;"><g id="Juice"><path d="M257.547,2025.5c-7.188,-1.473 -14.493,1.928 -17.994,8.376c-8.645,15.927 -18.401,31.136 -26.795,40.241c-34.453,37.372 -71.705,71.318 -103.746,111.016c-89.075,110.357 -105.829,240.901 -108.084,379.249c-4.339,266.126 18.409,532.936 21.571,799.095c2.081,175.081 -40.49,587.846 -4.495,884.666c15.92,131.276 47.85,240.199 103.633,298.795c83.511,87.721 197.316,142.001 314.565,166.685c112.521,23.688 462.758,72.273 790.697,56.139c221.298,-10.888 432.314,-51.816 555.562,-147.759c82.285,-64.056 108.948,-158.861 129.124,-248.412c9.517,-42.241 17.646,-83.152 30.53,-118.342c11.84,-32.339 27.568,-59.728 53.54,-77.583c82.116,-56.456 189.546,-56.646 294,-63.552c111.936,-7.4 220.451,-22.214 296.64,-107.147c53.568,-59.715 79.013,-155.707 89.19,-261.65c14.749,-153.526 -1.715,-328.043 -1.969,-435.792c-0.396,-168.13 10.266,-369.836 -30.224,-542.677c-41.605,-177.601 -136.441,-325.132 -348.04,-379.197c-115.03,-29.391 -237.825,-9.749 -350.969,-39.636c-64.546,-17.05 -95.376,-78.096 -128.436,-141.798c-36.978,-71.253 -75.695,-146.253 -151.249,-183.272c-4.208,-2.062 -9.089,-2.257 -13.448,-0.538c-69.758,27.512 -298.947,64.765 -385.689,72.023c-426.837,35.714 -705.11,-6.88 -1007.91,-68.93Zm5.199,35.083c301.074,61.305 580.242,102.645 1005.5,67.064c86.1,-7.204 309.091,-43.652 387.95,-71.553c64.769,34.864 97.355,102.44 130.07,165.477c37.673,72.591 75.957,139.242 149.509,158.671c113.23,29.91 236.113,10.292 351.231,39.705c197.392,50.435 285.024,188.826 323.836,354.503c39.927,170.437 28.955,369.363 29.346,535.154c0.252,106.941 16.76,280.15 2.122,432.525c-9.414,97.993 -31.275,187.346 -80.823,242.58c-70.151,78.202 -170.961,89.331 -274.025,96.144c-110.545,7.308 -223.782,9.597 -310.686,69.344c-49.167,33.803 -69.915,94.909 -86.309,165.31c-22.218,95.418 -36.956,208.946 -128.477,280.192c-118.96,92.606 -323.124,130.261 -536.724,140.77c-324.409,15.961 -670.882,-32.031 -782.192,-55.464c-110.735,-23.313 -218.418,-74.203 -297.289,-157.051c-52.106,-54.733 -79.815,-157.201 -94.685,-279.824c-35.848,-295.607 6.807,-706.683 4.735,-881.049c-3.158,-265.846 -25.907,-532.342 -21.573,-798.156c2.132,-130.758 16.505,-254.553 100.693,-358.856c31.58,-39.126 68.359,-72.525 102.316,-109.358c7.895,-8.564 16.969,-21.645 25.48,-36.128Zm1836.41,584.213c-27.174,-0.245 -119.608,0.394 -175.402,68.541c-23.929,29.228 -41.481,70.897 -43.72,130.69c-3.74,99.856 -28.47,437.132 -13.037,683.308c6.8,108.461 21.906,199.58 48.851,247.054c50.472,88.928 153.206,113.136 250.436,106.615c61.827,-4.147 170.31,-33.617 209.881,-153.754c21.075,-63.981 32.294,-261.339 30.62,-462.666c-1.673,-201.271 -16.222,-406.435 -44.768,-486.14c-24.925,-69.595 -74.526,-103.063 -126.961,-119.112c-49.67,-15.203 -101.911,-14.23 -135.899,-14.536l-0.001,-0Zm-0.3,33.332c31.613,0.284 80.247,-1.062 126.444,13.078c43.432,13.294 84.69,40.831 105.336,98.477c27.897,77.894 41.182,278.481 42.817,475.178c1.635,196.641 -8.364,389.469 -28.948,451.961c-33.909,102.946 -127.472,127.37 -180.451,130.923c-84.626,5.676 -175.287,-12.41 -219.217,-89.809c-25.348,-44.661 -38.175,-130.652 -44.572,-232.686c-15.358,-244.977 9.358,-580.606 13.079,-679.976c1.894,-50.583 15.958,-86.095 36.202,-110.821c47.28,-57.747 126.283,-56.533 149.31,-56.325l0,-0Z" style="fill:#7e4021;"/><path d="M2355.15,2649.05c-2.62,-4.426 -7.247,-7.583 -12.755,-8.11c-4.396,-0.421 -7.659,0.779 -10.142,2.237c-3.753,2.203 -6.435,5.49 -7.684,10.016c-0.629,2.281 -0.983,5.419 0.003,9.033c0.761,2.794 3.541,7.189 5.45,8.954c8.241,7.622 15.704,15.553 22.016,24.916c13.014,19.307 25.185,39.563 33.251,61.457c3.18,8.632 12.77,13.058 21.401,9.878c8.631,-3.18 13.057,-12.77 9.877,-21.401c-8.988,-24.396 -22.388,-47.054 -36.889,-68.566c-7.129,-10.575 -15.378,-19.73 -24.528,-28.414Zm-8.944,24.246c-2.176,0.753 -4.545,1.059 -6.985,0.825c2.754,0.264 5.052,-0.129 6.985,-0.825Z" style="fill:#7e4021;"/><path d="M2427.75,2804.06c-0.444,-5.978 -4.108,-11.515 -9.983,-14.065c-1.109,-0.481 -25.34,-1.649 -23.171,17.594c0.306,2.717 2.499,16.826 3.3,21.751c2.994,18.4 4.727,36.84 7.404,55.25c1.323,9.103 9.788,15.419 18.891,14.095c9.103,-1.324 15.419,-9.788 14.095,-18.891c-2.703,-18.596 -4.465,-37.221 -7.489,-55.807c-0.692,-4.252 -2.771,-18.084 -3.047,-19.927Zm-10.372,16.669c-3.997,1.62 -8.617,1.695 -12.882,-0.156c4.515,1.959 8.753,1.774 12.689,0.239l0.193,-0.083Zm8.251,-7.224c-1.78,3.148 -4.477,5.528 -7.599,6.946c2.577,-1.134 5.482,-3.102 7.599,-6.946Zm0.296,-0.555l-0.229,0.435l0.133,-0.237l0.096,-0.198Zm0.366,-0.752l-0.053,0.113l0.05,-0.101l0.003,-0.012Z" style="fill:#7e4021;"/><path d="M85.2,2369.38c-2.079,3.547 -2.855,7.864 -1.852,12.18c2.082,8.96 11.047,14.544 20.006,12.462c6.378,-1.482 10.44,-5.205 12.888,-10.575c1.006,-2.208 1.634,-7.833 1.876,-10.388c14.251,-36.796 34.56,-71.865 55.895,-104.873c4.993,-7.726 2.775,-18.051 -4.951,-23.045c-7.725,-4.993 -18.051,-2.775 -23.044,4.951c-22.853,35.357 -44.481,73.011 -59.583,112.473c-0.591,1.544 -0.99,4.421 -1.235,6.815Zm9.433,-7.504l-0.04,0.014l0.087,-0.027l-0.047,0.013Z" style="fill:#7e4021;"/><path d="M203.928,2228.12c7.302,-4.46 14.97,-12.589 22.068,-22.14c8.409,-11.316 16.265,-24.702 22.52,-32.745c5.648,-7.261 4.338,-17.741 -2.923,-23.388c-7.261,-5.647 -17.741,-4.337 -23.388,2.924c-6.371,8.19 -14.4,21.802 -22.964,33.327c-4.219,5.677 -8.347,10.924 -12.687,13.575c-7.85,4.794 -10.331,15.06 -5.536,22.911c4.794,7.85 15.06,10.33 22.91,5.536Z" style="fill:#7e4021;"/><path d="M1785,1507.72c8.155,-63.877 -245.823,-91.651 -385.737,-104.685c-296.292,-27.602 -562.099,-8.533 -859.902,8.049c-52.767,2.938 -355.834,28.63 -353.41,101.499c1.912,57.494 318.256,76.229 360.553,78.848c169.859,10.518 1224.23,28.03 1238.5,-83.711Z" style="fill:#bbc470;"/><path d="M1801.53,1509.83c1.57,-12.296 -2.315,-23.968 -11.812,-34.655c-10.206,-11.484 -28.197,-22.209 -52.039,-31.339c-81.769,-31.311 -237.618,-48.151 -336.872,-57.397c-297.144,-27.681 -563.715,-8.626 -862.375,8.003c-37.54,2.09 -199.705,15.674 -292.797,48.942c-26.304,9.4 -47.37,20.64 -60.013,33.083c-11.317,11.138 -16.766,23.557 -16.33,36.669c0.375,11.298 6.777,22.602 20.316,32.136c13.584,9.565 35.693,18.166 62.821,25.317c97.4,25.677 263.105,35.622 293.043,37.476c136.381,8.445 840.902,21.248 1124.59,-31.334c52.787,-9.784 91.653,-22.365 111.396,-36.816c12.449,-9.111 18.73,-19.558 20.074,-30.085Zm-33.065,-4.221c-0.24,1.883 -1.856,3.307 -3.705,4.987c-2.656,2.412 -6.082,4.676 -10.158,6.901c-19.141,10.451 -50.45,19.014 -90.617,26.459c-281.632,52.201 -981.059,39.223 -1116.45,30.839c-29.278,-1.813 -191.354,-11.328 -286.606,-36.438c-19.04,-5.019 -35.265,-10.575 -46.749,-16.992c-3.631,-2.029 -6.712,-4.09 -9.063,-6.308c-1.151,-1.086 -2.466,-1.797 -2.507,-3.029c-0.205,-6.163 4.696,-10.932 11.185,-15.945c10.381,-8.02 25.356,-14.983 43.061,-21.31c90.097,-32.198 247.099,-45.027 283.432,-47.05c296.948,-16.533 561.99,-35.617 857.43,-8.094c96.626,9.001 248.44,24.854 328.044,55.337c15.137,5.796 27.45,11.961 35.595,18.991c4.334,3.74 7.681,7.188 7.111,11.652Z" style="fill:#7e4021;"/><path d="M845.909,1450.79c27.887,-155.416 64.884,-309.838 101.618,-463.333c23.51,-98.24 219.555,-953.106 251.883,-970.347c9.368,-4.997 135.786,33.95 154.777,41.211c17.497,6.69 3.173,38.691 0.592,51.513c-38.718,192.299 -90.833,382.047 -141.751,571.385c-18.427,68.519 -171.145,767.649 -192.879,793.187c-30.202,35.487 -182.01,19.682 -174.24,-23.616Z" style="fill:#f8bcc4;"/><path d="M829.504,1447.85c-3.481,19.399 10.725,38.307 38.803,49.356c33.326,13.113 86.249,17.254 122.875,9.281c18.719,-4.076 33.451,-11.63 41.659,-21.275c1.914,-2.249 5.049,-7.807 8.264,-16.761c5.207,-14.507 12.741,-40.899 21.804,-75.543c50.806,-194.215 151.475,-652.55 166.214,-707.357c51.01,-189.68 103.206,-379.775 141.995,-572.423c2.046,-10.166 9.772,-31.13 7.928,-45.3c-1.529,-11.752 -7.401,-20.672 -18.907,-25.071c-15.486,-5.921 -101.054,-32.516 -139.552,-40.308c-9.752,-1.974 -17.158,-2.663 -20.954,-2.332c-3.588,0.313 -6.237,1.315 -8.067,2.291c-2.909,1.552 -7.368,5.316 -11.407,12.668c-7.449,13.558 -19.099,47.588 -33.099,95.466c-67.554,231.029 -196.917,794.375 -215.742,873.04c-36.808,153.804 -73.87,308.539 -101.814,464.268Zm379.06,-1413.76c30.863,4.973 116.443,31.461 137.339,38.949c0.006,1.626 -0.045,4.27 -0.336,6.042c-1.682,10.225 -5.863,21.191 -7.127,27.47c-38.648,191.951 -90.681,381.352 -141.507,570.346c-14.744,54.825 -115.45,513.302 -166.272,707.578c-10.551,40.335 -22.918,77.167 -23.807,79.802c-5.507,5.795 -16.081,8.643 -28.356,10.719c-24.068,4.069 -54.612,2.627 -79.52,-3.191c-12.612,-2.946 -23.732,-6.897 -31.278,-12.176c-1.557,-1.089 -2.925,-2.215 -4.016,-3.435c-0.712,-0.797 -1.547,-1.472 -1.371,-2.454c27.832,-155.102 64.763,-309.211 101.423,-462.397c18.791,-78.52 147.888,-640.838 215.318,-871.443c11.411,-39.027 24.654,-73.544 29.51,-85.81Z" style="fill:#7e4021;"/><path d="M789.072,1966.38c-1.15,3.22 -167.066,579.318 -162.873,581.044c70.203,-7.976 176.836,-2.696 183.469,-7.329c18.194,-27.095 160.956,-570.298 155.671,-570.41c-71.616,-1.52 -152.09,-3.661 -176.267,-3.305Z" style="fill:#f8bcc4;"/><path d="M788.827,1949.71c-6.953,0.102 -13.112,4.511 -15.451,11.059c-1.038,2.907 -135.931,471.103 -159.828,565.978c-3.11,12.344 -4.155,19.958 -4.058,21.496c0.627,9.963 7.174,13.274 10.363,14.588c2.602,1.071 5.432,1.466 8.227,1.148c55.751,-6.333 134.646,-4.193 167.345,-5.459c8.38,-0.325 14.371,-1.037 17.304,-1.826c3.005,-0.808 5.1,-1.975 6.482,-2.94c1.689,-1.18 3.145,-2.663 4.294,-4.373c3.533,-5.262 11.927,-28.389 22.454,-63.07c39.127,-128.9 117.484,-426.943 133.074,-497.782c2.834,-12.881 3.018,-20.782 2.71,-22.208c-1.162,-5.368 -4.07,-8.209 -6.242,-9.869c-2.963,-2.263 -6.25,-3.359 -9.809,-3.435c-71.859,-1.525 -152.606,-3.664 -176.865,-3.307Zm156.628,36.2c-17.622,77.847 -93.249,365.061 -131.392,490.719c-6.847,22.556 -12.092,39.575 -15.54,48.389c-25,1.632 -94.184,-0.319 -151.082,3.749c25.038,-97.098 133.9,-476.028 154.101,-545.745l0,-0c29.34,0.192 87.519,1.649 143.913,2.888Z" style="fill:#7e4021;"/><path d="M1785,1507.72c1.746,65.944 20.061,313.777 -28.688,347.96c-84.401,59.181 -368.535,113.538 -814.9,110.436c-297.568,-2.069 -713.173,-32.629 -742.874,-124.397c-10.072,-31.119 -28.472,-256.404 -12.587,-329.136c1.912,57.494 318.256,76.229 360.553,78.848c169.859,10.518 1224.23,28.03 1238.5,-83.711Z" style="fill:#dae1a4;"/><path d="M1801.66,1507.28c-0.231,-8.706 -7.126,-15.767 -15.824,-16.204c-8.698,-0.438 -16.267,5.895 -17.37,14.535c-0.24,1.883 -1.856,3.307 -3.705,4.987c-2.656,2.412 -6.082,4.676 -10.158,6.901c-19.141,10.451 -50.45,19.014 -90.617,26.459c-281.632,52.201 -981.059,39.223 -1116.45,30.839c-29.278,-1.813 -191.354,-11.328 -286.606,-36.438c-19.04,-5.019 -35.265,-10.575 -46.749,-16.992c-3.631,-2.029 -6.712,-4.09 -9.063,-6.308c-1.151,-1.086 -2.466,-1.797 -2.507,-3.029c-0.28,-8.402 -6.773,-15.28 -15.145,-16.043c-8.372,-0.764 -16.002,4.828 -17.796,13.041c-16.304,74.652 2.675,305.884 13.013,337.824c4.523,13.974 15.514,27.329 33.035,39.138c21.87,14.74 54.782,27.753 95.817,38.775c152.143,40.865 420.059,56.56 629.764,58.018c269.261,1.871 479.8,-17.125 623.482,-45.416c98.466,-19.389 166.21,-43.575 201.102,-68.04c7.946,-5.572 15.051,-14.984 20.57,-27.986c6.572,-15.481 11.308,-36.732 14.421,-61.339c11.332,-89.574 2.022,-226.128 0.789,-272.722Zm-31.762,39.757c2.668,60.71 6.707,159.192 -2.097,228.782c-2.66,21.032 -6.417,39.265 -12.034,52.498c-2.609,6.146 -5.267,11.083 -9.024,13.717c-32.63,22.88 -96.321,44.496 -188.405,62.627c-142.142,27.989 -350.435,46.641 -616.811,44.789c-206.891,-1.438 -471.246,-16.56 -621.348,-56.878c-36.685,-9.853 -66.283,-21.046 -85.835,-34.224c-10.099,-6.806 -17.343,-13.705 -19.95,-21.76c-8.536,-26.374 -23.146,-195.998 -16.578,-286.213c13.554,7.533 32.402,14.36 54.614,20.216c97.4,25.677 263.105,35.622 293.043,37.476c136.381,8.445 840.902,21.248 1124.59,-31.334c43.913,-8.139 78.192,-18.215 99.837,-29.696Z" style="fill:#7e4021;"/><path d="M256.292,1619.83c0.849,-4.16 0.117,-8.643 -2.395,-12.47c-3.417,-5.205 -7.728,-6.73 -11.203,-7.313c-3.697,-0.62 -7.465,-0.108 -11.141,2.025c-1.51,0.877 -3.141,2.129 -4.623,3.964c-1.342,1.663 -3.438,6.558 -3.711,9.007c-0.453,4.058 0.152,8.551 0.357,12.613c0.322,6.407 0.681,12.812 1.038,19.218c1.131,20.327 2.768,40.619 4.365,60.914c0.721,9.17 8.751,16.03 17.922,15.309c9.17,-0.722 16.029,-8.752 15.308,-17.923c-1.576,-20.041 -3.197,-40.079 -4.314,-60.152c-0.353,-6.347 -0.708,-12.694 -1.028,-19.043c-0.1,-1.978 -0.59,-4.122 -0.575,-6.149Zm-14.226,13.21l-0.186,0.02l0.162,-0.016l0.024,-0.004Zm0.719,-0.108l-0.209,0.033l0.163,-0.024l0.046,-0.009Zm0.652,-0.126l-0.007,0.001l0.007,-0.001Zm-16.887,-6.411c2.888,4.004 6.335,5.572 9.351,6.27c-3.64,-0.912 -6.983,-3.049 -9.351,-6.27Z" style="fill:#7e4021;"/><path d="M266.393,1766.85c0.047,-1.007 -0.002,-2.032 -0.15,-3.065c-1.3,-9.107 -9.748,-15.444 -18.854,-14.145c-2.304,0.329 -14.34,3.09 -14.38,16.888c-0.008,2.792 1.738,16.537 1.837,17.364c1.29,10.777 2.469,21.569 3.704,32.353c1.048,9.138 9.317,15.708 18.456,14.661c9.139,-1.048 15.708,-9.317 14.661,-18.456c-1.242,-10.839 -2.427,-21.686 -3.724,-32.518l-1.55,-13.082Zm-2.656,8.329c-2.526,3.914 -6.67,6.751 -11.638,7.46c3.925,-0.56 8.403,-2.301 11.638,-7.46Z" style="fill:#7e4021;"/><path d="M247.79,1866.27c-7.048,-3.684 -15.716,-1.876 -20.703,4.318c-10.277,12.765 -31.187,37.057 -41.68,64.33c-8.162,21.216 -10.186,44.06 0.153,65.685c10.195,21.323 33.28,42.491 79.316,58.019c185.908,62.706 577.607,88.438 913.8,70.325c225.668,-12.159 426.362,-44.432 524.356,-97.327c25.199,-13.602 38.599,-29.457 44.893,-45.714c6.121,-15.809 5.689,-32.46 1.011,-49.299c-5.891,-21.203 -18.866,-42.855 -30.658,-62.853c-4.155,-7.047 -12.81,-10.036 -20.428,-7.057c-121.408,47.485 -381.097,85.356 -756.32,82.748c-247.416,-1.719 -577.458,-22.396 -693.74,-83.175Zm-3.124,35.496c128.457,57.66 451.958,79.311 696.633,81.012c368.208,2.559 626.872,-34.091 755.373,-80.058c6.544,11.189 12.934,22.741 17.331,34.309c4.777,12.568 7.393,25.075 2.837,36.842c-4.034,10.419 -13.491,19.699 -29.641,28.416c-95.326,51.455 -290.794,81.547 -510.317,93.374c-331.592,17.866 -717.988,-6.776 -901.353,-68.624c-33.953,-11.453 -52.377,-25.085 -59.896,-40.812c-7.989,-16.71 -2.321,-34.479 5.762,-50.106c6.87,-13.281 15.888,-25.189 23.271,-34.353Z" style="fill:#7e4021;"/><path d="M1774.15,2619.01c-7.681,-101.346 -1676.25,-108.355 -1678.28,16.057c-4.01,245.926 17.025,492.483 19.947,738.439c2.742,230.794 -78.845,909.182 87.418,1083.83c75.073,78.857 177.471,127.479 282.872,149.669c172.468,36.309 952.218,136.128 1232.16,-81.796c77.312,-81.543 52.858,-366.316 58.878,-759.437c6.468,-422.38 15.766,-899.18 -2.996,-1146.76Z" style="fill:#ffce7b;"/><path d="M1790.77,2617.75c-0.571,-7.526 -4.464,-15.513 -13.594,-22.532c-11.474,-8.819 -34.795,-17.542 -68.239,-24.838c-172.71,-37.672 -637.248,-52.707 -1024.17,-40.558c-226.416,7.109 -426.317,23.613 -526.171,49.954c-28.099,7.412 -48.814,15.906 -61.062,24.785c-12.776,9.261 -18.159,19.936 -18.326,30.234c-4.013,246.081 17.021,492.796 19.945,738.908c1.924,161.913 -37.435,543.635 -4.147,818.131c14.759,121.709 44.442,222.666 96.16,276.991c77.392,81.294 182.852,131.611 291.51,154.487c104.086,21.913 428.07,66.858 731.427,51.934c204.911,-10.082 400.283,-48.049 514.403,-136.888c0.66,-0.514 1.281,-1.077 1.857,-1.684c32.668,-34.455 49.708,-102.818 56.916,-199.558c10.252,-137.605 2.914,-334.811 6.532,-571.091c6.476,-422.937 15.745,-900.367 -3.042,-1148.28Zm-33.076,4.752c18.52,247.877 9.228,722.457 2.788,1143.01c-3.605,235.466 3.774,431.994 -6.443,569.124c-6.378,85.598 -18.447,147.135 -47.033,178.21c-109.982,84.923 -297.941,119.431 -494.54,129.104c-299.827,14.751 -620.047,-29.602 -722.922,-51.26c-102.145,-21.504 -201.481,-68.43 -274.234,-144.851c-48.041,-50.463 -73.502,-144.965 -87.212,-258.021c-33.141,-273.283 6.303,-653.316 4.387,-814.514c-2.918,-245.603 -23.921,-491.806 -19.956,-737.379c0.268,-0.373 0.974,-1.32 1.534,-1.867c1.957,-1.911 4.577,-3.705 7.735,-5.513c10.458,-5.986 25.814,-11.401 45.301,-16.541c98.433,-25.966 295.523,-41.86 518.715,-48.868c383.836,-12.052 844.686,2.437 1016.02,39.809c20.021,4.367 35.845,8.96 46.739,13.982c3.633,1.675 7.596,4.457 9.122,5.572Z" style="fill:#7e4021;"/><path d="M490.913,4152.68c107.924,-39.626 396.132,-60.475 451.256,-62.637c9.192,-0.36 16.362,-8.115 16.001,-17.307c-0.36,-9.191 -8.115,-16.361 -17.307,-16.001c-56.379,2.211 -351.06,24.127 -461.439,64.654c-8.635,3.17 -13.071,12.755 -9.901,21.39c3.171,8.635 12.755,13.071 21.39,9.901Z" style="fill:#7e4021;"/><path d="M1028.8,4085.63c106.013,-1.741 164.379,6.535 226.177,30.13c8.594,3.281 18.235,-1.032 21.516,-9.626c3.281,-8.593 -1.032,-18.234 -9.626,-21.515c-65.215,-24.9 -126.739,-34.155 -238.614,-32.318c-9.197,0.151 -16.542,7.74 -16.391,16.938c0.151,9.197 7.741,16.542 16.938,16.391Z" style="fill:#7e4021;"/><path d="M628.72,2541.88c-1.15,3.221 -463.762,1708.73 -459.569,1710.45c-11.135,92.943 125.26,97.553 171.255,29.057c18.194,-27.095 469.865,-1736.09 464.58,-1736.21c-71.615,-1.52 -152.09,-3.661 -176.266,-3.306Z" style="fill:#edaf5f;"/><path d="M628.475,2525.22c-6.954,0.102 -13.112,4.51 -15.451,11.059c-1.036,2.901 -376.23,1385.84 -448.189,1663.66c-7.462,28.811 -11.699,46.182 -12.171,49.495c-0.109,0.769 -0.177,1.508 -0.208,2.218c-2.448,22.594 2.5,40.886 11.897,55.149c14.112,21.417 38.894,34.081 67.189,37.178c44.15,4.831 96.298,-13.969 122.701,-53.288c0.946,-1.409 3.064,-5.82 5.573,-13.297c6.987,-20.823 22.358,-74.17 43.413,-149.865c104.713,-376.46 351.091,-1308.57 406.691,-1530.37c7.269,-28.998 11.299,-46.416 11.654,-49.613c1.834,-16.541 -13.659,-18.958 -16.234,-19.012c-71.859,-1.525 -152.607,-3.664 -176.865,-3.307Zm155.87,36.183c-1.775,7.458 -4.069,16.917 -6.758,27.644c-55.57,221.686 -301.816,1153.29 -406.472,1529.55c-18.251,65.615 -32.177,114.283 -40.011,139.244c-2.267,7.222 -4.564,13.602 -5.114,15.112c-19.77,28.588 -58.377,41.442 -90.822,37.891c-17.856,-1.954 -34.075,-8.866 -42.98,-22.382c-5.771,-8.758 -8.163,-20.154 -6.488,-34.135l0.057,-0.576c0.669,-2.821 5,-20.949 11.347,-45.453c68.139,-263.075 408.559,-1518.81 444.28,-1649.76l0,-0c29.271,0.196 86.932,1.638 142.961,2.87Z" style="fill:#7e4021;"/></g></svg>