<?xml version="1.0" encoding="UTF-8" standalone="no"?><!DOCTYPE svg PUBLIC "-//W3C//DTD SVG 1.1//EN" "http://www.w3.org/Graphics/SVG/1.1/DTD/svg11.dtd"><svg width="100%" height="100%" viewBox="0 0 3258 2901" version="1.1" xmlns="http://www.w3.org/2000/svg" xmlns:xlink="http://www.w3.org/1999/xlink" xml:space="preserve" xmlns:serif="http://www.serif.com/" style="fill-rule:evenodd;clip-rule:evenodd;stroke-linejoin:round;stroke-miterlimit:2;"><g id="Kettle"><path d="M10.102,1732.27c-36.976,322.026 106.092,660.845 433.345,890.376c232.507,163.078 558.363,271.037 978.928,277.419c362.309,5.497 677.308,-100.45 917.66,-261.975c313.904,-210.953 500.263,-516.889 500.762,-794.115c0.591,-328.258 -152.597,-538.463 -320.001,-701.347c-143.58,-139.703 -297.961,-243.486 -369.445,-359.176c-74.468,-120.521 -52.072,-252.459 171.363,-455.926c46.795,-42.613 67.376,-83.419 68.79,-120.106c1.302,-33.777 -13.185,-64.962 -41.067,-92.257c-40.399,-39.547 -110.318,-71.226 -197.141,-90.954c-181.659,-41.276 -438.099,-31.371 -642.427,57.954c-192.816,84.294 -390.972,70.683 -569.06,56.636c-150.068,-11.837 -286.349,-23.623 -394.72,17.253c-74.359,28.047 -136.18,80.219 -180.771,173.295l-11.897,24.832l27.517,-0.974c62.193,-2.203 154.338,21.829 226.938,76.759c60.128,45.494 106.779,112.529 110.638,204.241c2.768,65.774 -46.204,122.987 -116.731,188.345c-110.081,102.013 -273.308,220.193 -401.739,402.343c-92.109,130.635 -166.434,293.942 -190.942,507.377l0,0Zm33.116,3.803c23.762,-206.944 95.761,-365.31 185.068,-491.971c126.862,-179.925 288.419,-296.337 397.155,-397.103c79.318,-73.505 130.49,-140.221 127.377,-214.195c-4.331,-102.935 -56.343,-178.361 -123.83,-229.422c-69.162,-52.329 -154.659,-78.686 -220.493,-83.005c61.607,-109.858 153.809,-147.832 265.049,-157.109c100.463,-8.379 215.973,6.059 338.959,14.18c163.361,10.787 339.562,10.519 511.719,-64.743c197.729,-86.441 445.896,-95.934 621.688,-55.991c66.001,14.996 121.679,36.875 160.057,64.607c33.446,24.169 53.478,52.393 52.228,84.816c-1.151,29.888 -19.802,62.028 -57.925,96.744c-242.533,220.858 -258.109,367.27 -177.276,498.092c72.609,117.511 228.718,223.645 374.556,365.545c161.764,157.396 310.485,360.2 309.914,677.397c-0.482,268.009 -182.554,562.569 -486.022,766.509c-235.335,158.153 -543.814,261.694 -898.561,256.311c-412.474,-6.259 -732.259,-111.438 -960.293,-271.379c-315.993,-221.634 -455.074,-548.338 -419.37,-859.283l0,-0Z" style="fill:#7e4021;"/><path d="M132.048,1390.54c73.055,-139.237 725.919,284.696 1353.52,305.977c708.347,24.019 1138.34,-382.531 1196.6,-319.33c100.821,109.379 142.29,286.491 141.966,466.76c-0.869,482.67 -577.659,1051.95 -1401.5,1039.45c-923.668,-14.015 -1407.04,-523.836 -1405.78,-1027.55c0.102,-40.689 6.872,-258.844 115.203,-465.316Z" style="fill:#d9905f;"/><path d="M117.289,1382.8c-41.095,78.324 -67.84,158.294 -85.2,229.94c-29.158,120.333 -31.846,217.154 -31.91,243.078c-0.746,298.674 165.354,599.827 490.579,801.67c231.011,143.371 542.588,236.679 931.617,242.582c362.309,5.497 677.308,-100.45 917.66,-261.975c313.904,-210.953 500.263,-516.889 500.762,-794.115c0.19,-105.215 -13.689,-209.361 -44.822,-300.088c-23.562,-68.662 -57.021,-129.683 -101.555,-177.998c-7.606,-8.252 -18.703,-12.72 -33.941,-11.971c-13.995,0.688 -32.807,6.204 -56.113,15.953c-106.527,44.561 -319.765,179.989 -624.36,256.697c-144.515,36.394 -309.696,59.535 -493.873,53.29c-485.034,-16.447 -985.088,-274.343 -1219.76,-324.996c-44.651,-9.638 -80.455,-11.746 -105.702,-4.918c-20.291,5.488 -34.744,16.396 -43.378,32.85l0,0.001Zm29.518,15.486c5.956,-11.352 17.899,-16.409 34.011,-18.299c20.54,-2.409 46.957,0.65 78.518,7.463c235.771,50.89 738.369,309.204 1225.67,325.727c187.633,6.363 355.915,-17.203 503.142,-54.28c306.837,-77.272 521.774,-213.382 629.084,-258.27c15.62,-6.534 28.697,-11.063 39.253,-12.784c3.849,-0.627 7.233,-0.884 10.156,-0.496c1.315,0.174 2.503,0.306 3.271,1.139c51.394,55.757 86.642,129.809 108.641,212.809c20.064,75.698 29.064,158.817 28.913,242.625c-0.482,268.009 -182.554,562.569 -486.022,766.509c-235.335,158.153 -543.814,261.694 -898.561,256.311c-381.843,-5.794 -687.802,-96.852 -914.546,-237.575c-313.995,-194.873 -475.543,-484.903 -474.823,-773.264c0.062,-25.097 2.745,-118.817 30.972,-235.311c16.783,-69.262 42.595,-146.586 82.323,-222.303l-0,-0.001Z" style="fill:#7e4021;"/><ellipse cx="1408.45" cy="1405.44" rx="1280.97" ry="317.143" style="fill:#d9905f;"/><path d="M1408.45,1071.63c-379.587,-0 -721,40.883 -956.639,105.693c-119.374,32.832 -211.92,72.03 -269.387,114.89c-47.362,35.324 -71.609,73.988 -71.609,113.227c-0,39.238 24.246,77.902 71.609,113.226c57.466,42.86 150.012,82.058 269.387,114.891c235.639,64.809 577.052,105.693 956.639,105.693c379.588,-0 721.001,-40.884 956.639,-105.693c119.375,-32.833 211.921,-72.03 269.388,-114.89c47.362,-35.325 71.609,-73.989 71.609,-113.227c-0,-39.239 -24.246,-77.903 -71.609,-113.227c-57.466,-42.86 -150.012,-82.058 -269.388,-114.89c-235.638,-64.81 -577.051,-105.693 -956.639,-105.693Zm0,33.333c309.954,0 594.242,27.386 815.388,72.963c154.974,31.94 278.702,72.649 357.863,119.342c57.318,33.809 91.052,69.233 91.052,108.172c-0,38.939 -33.734,74.363 -91.053,108.172c-79.161,46.692 -202.888,87.401 -357.862,119.341c-221.146,45.578 -505.434,72.963 -815.388,72.963c-309.953,0 -594.241,-27.385 -815.387,-72.963c-154.974,-31.94 -278.702,-72.649 -357.863,-119.341c-57.319,-33.809 -91.052,-69.234 -91.052,-108.172c0,-38.939 33.734,-74.364 91.053,-108.173c79.161,-46.692 202.888,-87.401 357.862,-119.341c221.146,-45.577 505.434,-72.963 815.387,-72.963Z" style="fill:#7e4021;"/><path d="M2707.11,2125.22c13.946,-44.839 23.147,-91.442 29.669,-137.886c7.745,-55.161 8.196,-123.932 4.473,-179.47c-0.615,-9.178 -8.566,-16.129 -17.744,-15.514c-9.178,0.615 -16.129,8.566 -15.514,17.744c3.58,53.413 3.224,119.555 -4.225,172.605c-6.272,44.668 -15.076,89.498 -28.489,132.621c-2.732,8.784 2.182,18.133 10.965,20.865c8.784,2.732 18.133,-2.182 20.865,-10.965Z" style="fill:#7e4021;"/><path d="M2736.59,1728.83c0.847,-9.935 -1.92,-25.903 -4.43,-38.613c-4.088,-20.704 -8.525,-41.542 -13.86,-61.955c-2.326,-8.899 -11.44,-14.236 -20.34,-11.91c-8.899,2.326 -14.236,11.44 -11.91,20.339c5.165,19.763 9.45,39.94 13.409,59.984c1.91,9.675 4.563,21.762 3.918,29.324c-0.781,9.165 6.026,17.241 15.191,18.022c9.165,0.781 17.241,-6.026 18.022,-15.191Z" style="fill:#7e4021;"/><path d="M2184.27,807.478c205.36,-78.107 465.512,-144.469 681.092,56.008c207.548,193.007 -120.425,491.302 121.273,565.591c76.535,23.525 157.361,-53.505 194.62,-124.242c168.929,-320.721 -49.123,-650.747 -315.522,-796.198c-221.75,-121.074 -564.033,-89.376 -782.134,40.719c-137.261,81.874 -47.854,314.612 100.671,258.122Z" style="fill:#86a8cb;"/><path d="M2190.19,823.056c200.104,-76.108 453.754,-142.711 663.817,52.635c57.958,53.897 70.752,116.726 66.759,179.988c-4.246,67.286 -26.8,135.125 -37.851,194.767c-9.802,52.898 -10.231,99.845 12.871,136.078c15.774,24.741 42.47,45.121 85.947,58.484c34.948,10.742 70.757,3.654 103.776,-14.53c46.118,-25.399 86.724,-72.762 110.487,-117.876c173.527,-329.451 -48.631,-669.183 -322.281,-818.594c-226.427,-123.627 -575.957,-91.804 -798.659,41.034c-76.409,45.577 -90.291,132.968 -63.838,201.28c26.941,69.573 94.766,118.761 178.972,86.734l-0,0Zm-11.85,-31.156c-64.321,24.464 -115.459,-14.472 -136.038,-67.615c-21.067,-54.404 -11.022,-124.318 49.83,-160.616c213.501,-127.35 548.536,-158.924 765.61,-40.404c259.148,141.493 473.093,461.81 308.762,773.803c-20.948,39.769 -56.421,81.822 -97.075,104.211c-24.831,13.675 -51.622,19.945 -77.903,11.867c-36.887,-11.338 -59.047,-27.973 -70.671,-49.738c-11.848,-22.187 -12.853,-48.978 -9.479,-78.656c3.183,-27.995 10.437,-58.376 18.021,-90.073c27.136,-113.413 56.299,-242.044 -52.691,-343.398c-221.099,-205.609 -487.748,-139.487 -698.366,-59.381l-0,0Z" style="fill:#7e4021;"/><path d="M2918.37,1387.73c-15.871,-21.015 -26.791,-50.781 -22.656,-96.48c4.44,-49.069 24.893,-177.449 93.487,-179.262c34.12,-0.902 42.704,39.494 40.871,65.799c-2.334,33.479 -37.703,162.625 -28.859,145.171c25.468,-50.267 59.482,-100.881 109.134,-129.945c18.287,-10.705 50.762,-23.121 72.348,0.06c31.248,33.555 6.842,100.205 -16.141,136.92c-22.651,36.183 -70.664,81.79 -108.064,94.555c-67.988,23.205 -119.751,-9.845 -140.12,-36.818Z" style="fill:#fff;"/><path d="M3036,1236.85c5.364,-24.066 9.898,-46.465 10.696,-57.911c1.092,-15.663 -1.109,-35.489 -8.471,-51.297c-8.95,-19.22 -24.766,-32.974 -49.467,-32.322c-33.357,0.882 -58.586,24.83 -75.714,58.932c-22.117,44.035 -31.143,104.677 -33.931,135.49c-4.635,51.23 8.163,84.467 25.955,108.025l-0,0.001c23.114,30.607 81.651,68.879 158.804,42.546c40.302,-13.756 92.398,-62.493 116.807,-101.485c14.993,-23.951 30.358,-59.685 33.06,-92.267c2.07,-24.95 -3.239,-48.092 -18.848,-64.854c-27.753,-29.804 -69.454,-16.848 -92.965,-3.086c-25.545,14.953 -47.265,35.23 -65.926,58.228Zm-104.332,140.829c-13.95,-18.472 -22.992,-44.765 -19.357,-84.934c2.54,-28.071 10.371,-83.415 30.52,-123.532c11.059,-22.017 25.272,-40.002 46.808,-40.571c9.425,-0.249 14.954,5.739 18.369,13.072c5.002,10.741 6.177,24.265 5.435,34.908c-1.65,23.675 -20.277,96.028 -27.249,128.31c-2.321,10.747 -3.181,18.237 -2.998,20.46c0.555,6.778 4.023,10.216 6.088,11.939c4.006,3.341 8.634,4.619 13.947,3.596c1.926,-0.37 8.383,-1.634 12.847,-10.444c24.058,-47.484 55.783,-95.638 102.687,-123.094c7.466,-4.37 17.77,-9.247 28.468,-10.508c8.108,-0.956 16.584,0.371 23.263,7.543c9.392,10.086 11.269,24.37 10.024,39.382c-2.269,27.353 -15.508,57.229 -28.095,77.336c-20.894,33.376 -64.823,75.851 -99.321,87.625c-58.826,20.079 -103.812,-7.75 -121.436,-31.088l-0,0Z" style="fill:#7e4021;"/><path d="M2918.37,1387.73c-9.976,-13.21 -17.997,-29.878 -21.551,-51.787c-1.056,-6.515 49.225,-37.604 106.284,-18.157c56.807,19.362 73.966,100.42 55.387,106.762c-67.988,23.205 -119.751,-9.845 -140.12,-36.818Z" style="fill:#ffce7b;"/><path d="M2905.07,1397.77c23.114,30.607 81.651,68.879 158.804,42.546c6.261,-2.137 11.624,-6.743 14.976,-14.262c2.66,-5.966 4.076,-14.681 3.216,-25.082c-2.642,-31.958 -26.911,-83.058 -73.586,-98.966c-52.639,-17.941 -100.198,2.06 -116.523,14.366c-10.934,8.242 -12.242,18.21 -11.589,22.234c4.062,25.043 13.299,44.064 24.702,59.163l-0,0.001Zm143.418,12.48c-56.555,17.137 -99.657,-9.845 -116.818,-32.569l-0,0c-7.274,-9.632 -13.284,-21.431 -16.789,-36.301c3.514,-2.111 8.913,-5.073 14.378,-7.04c17.091,-6.153 41.928,-9.829 68.467,-0.783c28.256,9.63 44.158,38.106 49.448,60.135c1.373,5.716 1.406,12.963 1.314,16.558Z" style="fill:#7e4021;"/><path d="M3173.47,845.733c-1.902,-75.881 -104.081,-176.089 -104.9,-175.699c-0.672,0.321 -60.096,-45.597 -110.187,-49.662c-38.412,-3.117 -85.831,16.365 -88.543,47.256c-7.646,87.072 162.346,76.065 162.458,79.11c0.092,2.476 -68.136,50.257 -98.408,81.838c-27.675,28.871 -47.453,77.15 4.067,97.923c63.264,25.508 149.632,-93.889 149.541,-93.64c-8.007,21.861 -10.747,57.266 -10.533,80.203c0.295,31.715 15.981,157.184 75.556,128.044c50.215,-24.561 20.988,-193.801 20.949,-195.373Z" style="fill:#fff;"/><path d="M2987.95,760.812c-21.958,17.015 -49.581,39.016 -66.083,56.231c-13.536,14.121 -25.242,32.356 -30.064,50.404c-3.775,14.131 -3.471,28.213 2.062,40.871c5.767,13.196 17.302,25.346 37.868,33.638c27.569,11.116 59.152,1.299 87.781,-18.109c15.049,-10.201 29.295,-22.869 41.537,-35.138c-0.583,8.854 -0.811,17.26 -0.743,24.508c0.19,20.428 6.552,77.037 25.246,112.339c9.327,17.613 21.948,30.143 36.814,34.635c10.931,3.303 23.408,2.772 37.485,-4.113c18.98,-9.283 31.182,-33.796 35.841,-65.266c8.801,-59.443 -5.525,-144.374 -5.554,-145.497c-0.75,-29.93 -15.218,-63.506 -34.139,-93.959c-26.846,-43.209 -62.065,-80.173 -72.74,-90.516c-3.467,-3.359 -5.865,-4.977 -6.378,-5.27l-0.296,-0.161l-0.482,-0.326c-11.329,-7.763 -68.038,-47.402 -116.365,-51.323c-26.695,-2.167 -57.108,5.253 -77.876,19.135c-16.539,11.054 -27.117,26.179 -28.618,43.275c-3.468,39.5 20.727,63.947 54.848,78.004c24.96,10.283 55.41,14.641 79.856,16.638Zm70.761,-77.314c0.366,0.34 0.886,0.827 1.356,1.282c9.925,9.617 42.66,43.994 67.621,84.167c15.618,25.137 28.51,52.499 29.13,77.204c0.027,1.078 14.359,82.662 5.902,139.779c-1.584,10.701 -3.95,20.453 -7.655,28.285c-2.527,5.342 -5.455,9.766 -9.857,11.92c-4.992,2.441 -9.323,3.318 -13.199,2.147c-7.351,-2.221 -12.385,-9.616 -16.997,-18.325c-16.134,-30.469 -21.208,-79.42 -21.372,-97.05c-0.198,-21.245 2.101,-54.068 9.517,-74.316c2.063,-5.635 0.688,-9.569 0.016,-11.419c-2.387,-6.575 -7.049,-10.032 -13.599,-10.851c-0.331,-0.042 -8.689,-2.2 -15.306,6.411c-0.148,0.192 -0.992,1.338 -2.452,3.245c-8.255,10.783 -37.327,47.448 -71.006,70.279c-18.689,12.669 -38.615,22.042 -56.612,14.785c-10.352,-4.173 -16.887,-9.431 -19.79,-16.072c-3.347,-7.659 -1.761,-16.373 1.571,-24.878c4.267,-10.891 11.741,-21.416 19.952,-29.982c26.924,-28.087 84.296,-69.062 95.422,-78.776c7.602,-6.637 7.665,-13.707 7.609,-15.211c-0.153,-4.155 -1.568,-8.709 -6.309,-12.495c-0.985,-0.787 -5.717,-3.759 -14.391,-4.143c-15.703,-0.696 -68.89,-0.235 -107.47,-16.13c-20.048,-8.259 -36.378,-21.061 -34.341,-44.269c0.67,-7.626 6.558,-13.546 13.935,-18.477c15.092,-10.087 37.26,-15.198 56.658,-13.624c41.838,3.395 90.411,38.875 100.218,45.596c0.487,0.333 0.97,0.641 1.449,0.918Z" style="fill:#7e4021;"/><path d="M3099.41,827.123c-79.637,-21.967 -87.076,-112.993 -37.425,-149.908c9.453,-7.028 44.354,29.448 68.631,67.778c23.204,36.636 36.083,75.026 33.923,76.193c-17.741,9.588 -39.913,12.892 -65.129,5.937Z" style="fill:#ffce7b;"/><path d="M3094.98,843.189c30.009,8.278 56.371,4.07 77.485,-7.341c2.965,-1.603 9.965,-6.416 8.865,-17.706c-0.789,-8.092 -13.796,-46.01 -36.633,-82.067c-21.393,-33.777 -51.048,-65.549 -67.077,-73.223c-11.002,-5.267 -19.86,-3.263 -25.578,0.988c-59.263,44.06 -52.115,153.131 42.938,179.349l-0,0Zm-28.247,-148.245c13.377,8.824 33.825,33.738 49.804,58.966c12.93,20.416 22.947,44.415 27.996,57.579c-11.924,3.507 -25.645,3.717 -40.69,-0.433l0,-0c-61.291,-16.906 -71.134,-84.123 -37.11,-116.112Z" style="fill:#7e4021;"/><path d="M2582.82,727.808c11.208,1.372 73.977,8.235 124.89,-11.723c59.872,-23.469 103.114,-73.975 75.813,-109.876c-46.266,-60.837 -182.318,51.244 -212.216,48.479c-0.219,-0.021 31.209,-27.954 46.33,-47.996c18.524,-24.553 78.299,-118.872 26.791,-144.15c-65.016,-31.907 -131.381,92.943 -143.994,152.64c-0.351,1.658 -20.394,-164.537 -88.424,-152.004c-72.207,13.303 -32.994,111.526 -21.002,146.58c7.713,22.548 21.01,44.381 20.281,44.898c-0.599,0.424 -55.208,-39.957 -104.522,-35.472c-37.817,3.44 -80.575,30.337 -78.008,60.784c7.235,85.821 168.168,50.332 171.04,49.456c42.495,-12.959 111.133,-10.417 183.021,-1.616Z" style="fill:#fff;"/><path d="M2504.48,553.83c-7.37,-27.139 -18.386,-57.828 -33.985,-78.558c-16.077,-21.366 -36.748,-33.045 -61.504,-28.484c-38.08,7.015 -52.847,31.774 -55.617,62.122c-3.368,36.885 14.179,83.774 21.865,106.243l0.545,1.56c-20.808,-8.887 -46.285,-16.332 -70.526,-14.127c-26.336,2.396 -54.669,14.746 -72.532,31.753c-14.255,13.572 -22,30.109 -20.574,47.029c3.602,42.719 36.329,62.934 76.306,69.764c51.594,8.815 114.358,-5.203 116.203,-5.766c40.896,-12.472 106.954,-9.485 176.135,-1.015c11.938,1.462 78.77,8.509 132.997,-12.748c40.202,-15.76 73.212,-43.023 86.982,-70.5c11.247,-22.443 10.988,-45.294 -3.985,-64.983c-22.672,-29.812 -62.517,-29.414 -105.024,-14c-17.888,6.486 -36.262,15.356 -53.462,24.217c13.471,-19.943 33.573,-54.564 40.542,-85.548c7.116,-31.641 0.88,-59.491 -27.074,-73.209c-32.416,-15.908 -65.783,-2.911 -94.341,26.003c-21.089,21.352 -39.559,51.358 -52.951,80.247Zm80.367,157.435c-74.596,-9.133 -145.813,-11.23 -189.909,2.217c-1.601,0.489 -56.087,12.443 -100.867,4.793c-24.297,-4.151 -46.514,-13.744 -48.703,-39.708c-0.628,-7.447 4.069,-14.113 10.343,-20.087c12.918,-12.298 33.522,-20.965 52.566,-22.697c39.995,-3.638 83.557,26.342 92.322,31.921c10.916,6.95 19.721,0.98 20.326,0.551c1.967,-1.393 10.67,-8.368 5.598,-20.709c-1.657,-4.031 -12.947,-23.309 -19.745,-43.182c-5.694,-16.644 -18.06,-48.23 -20.222,-77.289c-1.029,-13.836 -0.112,-27.13 7.39,-36.477c4.461,-5.558 11.379,-9.241 21.084,-11.029c9.008,-1.659 16.423,2.387 22.861,8.81c5.898,5.884 10.971,13.648 15.477,22.289c19.109,36.645 27.535,88.333 29.887,102.967c0.832,5.179 1.822,8.069 1.958,8.372c4.188,9.329 11.787,9.784 14.859,9.85c4.187,0.089 8.397,-1.141 12.13,-4.865c1.346,-1.344 3.574,-3.796 4.539,-8.365c7.085,-33.53 32.233,-89.046 64.406,-121.62c17.288,-17.504 36.316,-29.133 55.94,-19.503c13.3,6.527 12.624,20.916 9.238,35.97c-7.316,32.528 -31.657,69.481 -41.992,83.18c-13.006,17.239 -38.706,40.519 -43.549,45.03c-1.988,1.852 -2.912,3.134 -3.057,3.337c-6.775,9.53 -1.58,17.089 -0.039,19.274c2.491,3.531 6.208,6.445 12.085,6.988c7.155,0.662 19.209,-2.523 33.99,-9.524c25.577,-12.116 63.445,-35.277 99.366,-48.302c15.109,-5.479 29.768,-9.205 42.716,-8.651c9.752,0.417 18.343,3.512 24.412,11.492c9.112,11.982 4.601,26.195 -5.332,39.577c-13.305,17.923 -36.533,34.202 -63.297,44.693c-47.597,18.658 -106.303,11.98 -116.781,10.697Z" style="fill:#7e4021;"/><path d="M2576.58,730.794c-15.916,-2.262 -41.094,-1.406 -82.375,-0.431c-41.819,0.988 -73.509,7.656 -90.943,7.177c-5.486,-48.189 26.794,-110.102 92.015,-107.844c67.894,2.352 94,64.315 81.303,101.098Z" style="fill:#ffce7b;"/><path d="M2574.23,747.294c7.904,1.124 15.495,-3.515 18.1,-11.062c15.315,-44.365 -14.591,-120.356 -96.48,-123.192c-76.829,-2.661 -115.614,69.619 -109.151,126.385c0.939,8.248 7.804,14.547 16.102,14.775c17.595,0.483 49.586,-6.178 91.793,-7.175c39.908,-0.943 64.25,-1.917 79.636,0.269Zm-11.109,-34.287c-16.133,-0.627 -38.335,-0.038 -69.314,0.694c-30.894,0.73 -56.206,4.627 -74.243,6.365c2.763,-36.294 28.348,-75.333 75.133,-73.713c46.824,1.622 69.797,37.984 68.424,66.654l0,0Z" style="fill:#7e4021;"/><path d="M2146.76,806.963c-210.817,225.693 -1257.6,127.62 -1476.07,-28.422c11.642,-13.751 37.158,-47.625 45.283,-61.284c34.219,-57.526 18.336,-153.909 -14.46,-210.642c131.247,78.509 476.727,134.342 789.715,137.105c414.7,3.662 549.185,-101.825 649.785,-120.747c-65.275,114.631 -52.383,198.778 5.742,283.99Z" style="fill:#e0f0ff;"/><path d="M2158.94,818.34l9.106,-9.749l-7.517,-11.02c-29.069,-42.615 -46.371,-84.826 -46.509,-131.39c-0.121,-40.801 12.878,-84.728 41.482,-134.96l17.812,-31.281l-35.376,6.654c-66.939,12.59 -148.882,63.515 -318.414,95.097c-84.411,15.725 -190.749,26.576 -328.143,25.363c-162.602,-1.435 -334.026,-17.27 -479.272,-43.207c-131.001,-23.394 -240.537,-54.748 -302.034,-91.535l-55.144,-32.985l32.159,55.629c15.228,26.343 26.477,61.846 30.12,97.484c3.571,34.933 0.02,70.114 -15.555,96.296c-3.949,6.638 -12.229,18.256 -20.844,29.816c-8.468,11.361 -17.275,22.652 -22.835,29.22l-11.694,13.812l14.727,10.519c50.664,36.188 144.675,69.768 262.556,96.703c181.147,41.393 419.282,67.889 639.961,67.55c161.642,-0.248 313.95,-14.952 427.997,-48.446c73.765,-21.663 131.823,-51.464 167.417,-89.57Zm-33.602,-13.604c-32.768,30.088 -82.297,53.303 -143.21,71.192c-111.549,32.76 -260.552,46.853 -418.653,47.095c-218.099,0.334 -453.454,-25.804 -632.483,-66.712c-101.745,-23.249 -185.094,-50.989 -235.8,-81.633c5.412,-6.946 11.398,-14.857 16.959,-22.45c7.672,-10.475 14.536,-20.373 18.152,-26.451c18.911,-31.79 24.403,-74.311 20.067,-116.727c-2.33,-22.791 -7.452,-45.517 -14.569,-66.37c66.139,29.067 161.005,54.437 270.448,73.981c146.933,26.239 320.347,42.273 484.838,43.725c140.075,1.237 248.483,-9.893 334.541,-25.925c141.307,-26.324 221.773,-66.08 283.416,-85.886c-19.703,42.634 -28.465,81.341 -28.357,117.704c0.145,48.864 16.249,93.739 44.651,138.457l-0,-0Z" style="fill:#7e4021;"/><path d="M407.973,351.212c188.223,-80.024 452.108,-39.079 524.118,-25.455c74.286,14.054 146.441,37.441 219.891,55.095c136.669,32.85 428.999,116.71 709.259,103.498c190.081,-8.96 374.452,-62.58 503.11,-204.316c6.183,-6.811 5.673,-17.36 -1.138,-23.542c-6.811,-6.183 -17.36,-5.673 -23.543,1.138c-122.614,135.077 -298.847,184.885 -479.999,193.424c-276.589,13.038 -565.02,-70.193 -699.899,-102.612c-73.978,-17.781 -146.665,-41.283 -221.484,-55.438c-74.661,-14.125 -348.205,-55.438 -543.357,27.532c-8.465,3.599 -12.416,13.393 -8.817,21.859c3.599,8.465 13.394,12.416 21.859,8.817Z" style="fill:#7e4021;"/></g></svg>