<?xml version="1.0" encoding="UTF-8" standalone="no"?><!DOCTYPE svg PUBLIC "-//W3C//DTD SVG 1.1//EN" "http://www.w3.org/Graphics/SVG/1.1/DTD/svg11.dtd"><svg width="100%" height="100%" viewBox="0 0 3336 3628" version="1.1" xmlns="http://www.w3.org/2000/svg" xmlns:xlink="http://www.w3.org/1999/xlink" xml:space="preserve" xmlns:serif="http://www.serif.com/" style="fill-rule:evenodd;clip-rule:evenodd;stroke-linejoin:round;stroke-miterlimit:2;"><g id="Kettle"><path d="M3191.47,1745.37c-1.466,1.127 -18.863,-69.958 -19.462,-74.814c-9.585,-77.705 -19.089,-160.259 -12.646,-238.449c8.266,-100.321 36.441,-197.111 65.058,-293.143c127.696,-428.516 206.496,-889.644 -304.03,-1046.55c-317.682,-97.636 -740.765,-23.837 -1067.72,-13.011c-310.328,10.276 -854.314,-56.765 -1111.38,140.738c-263.8,202.676 -126.534,562.064 -65.737,813.817c26.912,111.437 30.329,224.521 28.145,338.609c-0.768,40.147 -47.198,343.098 -2.712,363.694c16.354,7.571 60.123,-95.958 64.091,-105.408c52.597,-125.278 58.937,-286.191 48.604,-419.688c-25.206,-325.665 -301.269,-823.608 197.883,-946.87c208.555,-51.501 416.772,0.825 782.447,49.642c200.2,26.727 450.499,-14.202 602.43,-58.124c158.798,-45.908 398.699,-51.978 524.125,-19.663c108.42,27.934 194.161,113.889 232.306,218.126c116.718,318.952 -274.109,1017.47 38.603,1291.09Z" style="fill:#c48464;"/><path d="M3180.49,1757.83l-0.002,0.087c-81.449,-71.267 -117.635,-169.956 -127.177,-283.461c-9.269,-110.26 6.662,-234.686 28.941,-360.534c26.327,-148.716 61.498,-299.455 72.817,-430.589c7.335,-84.983 4.754,-161.522 -17.861,-223.323c-36.288,-99.164 -117.668,-181.139 -220.813,-207.713c-123.325,-31.774 -359.199,-25.605 -515.338,19.534c-153.65,44.419 -406.797,85.663 -609.264,58.634c-362.799,-48.434 -569.331,-101.078 -776.246,-49.982c-119.452,29.498 -192.932,80.762 -234.973,146.912c-42.123,66.28 -52.642,146.93 -47.956,233.54c9.766,180.478 85.074,386.231 97.668,548.951c10.524,135.971 3.718,299.826 -49.854,427.426c-3.322,7.913 -33.63,78.672 -54.253,102.67c-4.999,5.818 -9.982,9.537 -14.104,11.342c-6.652,2.912 -12.747,2.548 -18.103,0.068c-6.472,-2.997 -12.454,-8.757 -16.937,-17.819c-4.331,-8.754 -7.571,-21.469 -9.48,-37.173c-10.945,-90.028 18.849,-291.796 19.468,-324.145c2.156,-112.659 -1.108,-224.336 -27.683,-334.377c-30.603,-126.724 -80.289,-280.573 -89.29,-428.211c-9.276,-152.129 24.246,-297.612 161.074,-402.735c104.988,-80.662 256.657,-118.701 421.371,-135.269c242.373,-24.378 513.119,-2.735 699.613,-8.91c328.629,-10.882 753.866,-84.399 1073.17,13.736c521.286,160.212 445.494,629.692 315.107,1067.24c-28.289,94.93 -56.25,190.584 -64.421,289.752c-6.351,77.075 3.129,158.445 12.577,235.041c0.483,3.917 15.796,62.223 17.543,68.868c1.412,2.573 2.131,5.507 2.036,8.51c-0.157,4.986 -2.539,9.641 -6.493,12.684c-3.909,3.008 -8.255,4.042 -13.005,3.235c-0.98,-0.166 -4.617,-0.894 -8.133,-3.988Zm-22.359,-73.023c-43.921,-59.26 -64.804,-132.252 -71.604,-213.144c-9.048,-107.636 6.799,-229.077 28.548,-351.931c26.506,-149.725 61.808,-301.507 73.204,-433.533c7.807,-90.456 4.304,-171.863 -19.768,-237.644c-40,-109.309 -130.103,-199.244 -243.799,-228.537c-127.527,-32.857 -371.453,-26.886 -532.912,19.791c-150.211,43.424 -397.662,84.04 -595.596,57.615c-368.552,-49.201 -578.452,-101.208 -788.648,-49.302c-130.125,32.133 -209.317,89.334 -255.114,161.394c-45.714,71.928 -58.194,159.229 -53.108,253.221c9.779,180.725 85.106,386.777 97.718,549.721c10.141,131.023 4.268,288.994 -47.355,411.95c-2.435,5.8 -20.233,47.992 -37.074,76.565c-2.374,4.027 -5.36,8.276 -8.012,11.819l-0.023,-0.071c-4.099,-13.397 -5.756,-33.316 -6.127,-56.77c-1.557,-98.459 21.352,-255.013 21.889,-283.058c2.211,-115.517 -1.359,-230.008 -28.608,-342.84c-30.194,-125.029 -79.54,-276.751 -88.421,-422.414c-8.607,-141.173 21.137,-276.722 148.111,-374.274c100.666,-77.342 246.465,-112.65 404.399,-128.536c241.599,-24.3 511.481,-2.606 697.38,-8.761c325.288,-10.771 746.217,-84.853 1062.28,12.284c499.775,153.601 417.96,606.365 292.954,1025.86c-28.946,97.136 -57.336,195.061 -65.697,296.534c-6.534,79.307 2.994,163.044 12.716,241.858c0.14,1.139 1.157,5.747 2.671,12.206Z" style="fill:#7e4021;"/><path d="M1646.72,72.899c-1.856,-12.424 -6.801,-20.829 -12.928,-26.567c-9.235,-8.65 -21.969,-11.671 -35.473,-10.284c-17.31,1.777 -35.733,11.004 -43.75,16.854c-20.876,15.231 -33.476,39.726 -41.508,63.612c-18.656,55.482 -22.784,120.395 7.85,173.759c15.513,27.021 46.788,37.919 71.854,34.577c19.723,-2.63 35.27,-13.806 40.613,-30.333c2.829,-8.753 -1.979,-18.156 -10.732,-20.985c-8.753,-2.83 -18.156,1.979 -20.985,10.732c-1.612,4.985 -7.351,6.752 -13.301,7.545c-13.389,1.785 -30.254,-3.699 -38.54,-18.132c-25.826,-44.986 -20.891,-99.767 -5.164,-146.539c5.899,-17.543 14.228,-36.122 29.56,-47.308c5.042,-3.679 16.621,-9.505 27.508,-10.623c3.435,-0.353 6.933,-0.746 9.282,1.454c1.591,1.49 2.265,3.937 2.747,7.164c1.359,9.097 9.849,15.38 18.946,14.021c9.098,-1.36 15.38,-9.849 14.021,-18.947Z" style="fill:#7e4021;"/><path d="M2466.99,37.904c-1.856,-12.424 -6.801,-20.829 -12.928,-26.568c-9.236,-8.649 -21.969,-11.67 -35.474,-10.283c-17.309,1.777 -35.732,11.004 -43.749,16.854c-20.877,15.231 -33.476,39.725 -41.508,63.611c-18.656,55.483 -22.785,120.395 7.85,173.759c15.512,27.022 46.787,37.92 71.854,34.578c19.723,-2.63 35.27,-13.806 40.613,-30.333c2.829,-8.753 -1.98,-18.156 -10.732,-20.985c-8.753,-2.83 -18.156,1.979 -20.985,10.732c-1.612,4.985 -7.351,6.752 -13.301,7.545c-13.389,1.785 -30.255,-3.699 -38.54,-18.132c-25.826,-44.987 -20.891,-99.767 -5.164,-146.54c5.899,-17.542 14.228,-36.121 29.559,-47.307c5.043,-3.679 16.621,-9.505 27.508,-10.623c3.436,-0.353 6.934,-0.746 9.283,1.454c1.591,1.49 2.265,3.937 2.747,7.163c1.359,9.098 9.848,15.381 18.946,14.021c9.098,-1.359 15.38,-9.848 14.021,-18.946Z" style="fill:#7e4021;"/><path d="M1808.89,75.011c-2.289,-16.749 -9.468,-26.644 -17.972,-32.505c-8.642,-5.956 -19.39,-7.919 -30.617,-6.658c-17.466,1.961 -36.073,12.101 -44.162,18.555c-20.632,16.458 -33.133,42.957 -41.071,68.768c-18.436,59.947 -22.592,130.092 7.681,187.751c15.579,29.672 47.183,41.23 72.358,37.56c19.586,-2.855 35.229,-14.53 40.535,-32.475c2.608,-8.821 -2.436,-18.1 -11.257,-20.708c-8.821,-2.608 -18.1,2.436 -20.709,11.257c-1.643,5.56 -7.31,8.057 -13.378,8.941c-13.28,1.936 -29.818,-4.418 -38.036,-20.071c-26.187,-49.876 -21.281,-110.601 -5.333,-162.457c5.993,-19.486 14.42,-40.083 29.997,-52.509c4.062,-3.24 12.38,-7.906 21.142,-10.304c4.993,-1.367 10.291,-2.931 14.057,-0.115c2.261,1.69 3.117,4.935 3.738,9.483c1.245,9.114 9.656,15.502 18.77,14.257c9.114,-1.245 15.502,-9.656 14.257,-18.77Z" style="fill:#7e4021;"/><path d="M2304.09,45.221c-2.363,-17.29 -9.957,-26.93 -18.74,-32.3c-8.783,-5.371 -19.731,-6.614 -31.141,-4.427c-16.95,3.25 -35.053,14.344 -42.899,20.603c-20.632,16.459 -33.133,42.958 -41.071,68.769c-18.436,59.947 -22.592,130.092 7.681,187.75c15.579,29.672 47.183,41.231 72.357,37.561c19.587,-2.855 35.23,-14.53 40.536,-32.475c2.608,-8.821 -2.436,-18.1 -11.257,-20.708c-8.822,-2.608 -18.101,2.436 -20.709,11.257c-1.643,5.56 -7.31,8.056 -13.378,8.941c-13.28,1.936 -29.818,-4.418 -38.036,-20.071c-26.187,-49.876 -21.281,-110.601 -5.333,-162.457c5.993,-19.486 14.42,-40.083 29.997,-52.509c3.234,-2.58 9.007,-6.359 15.609,-9.477c4.82,-2.278 10.102,-4.282 15.119,-4.796c1.975,-0.202 3.961,-0.579 5.372,0.651c1.777,1.549 2.342,4.365 2.867,8.201c1.245,9.114 9.655,15.502 18.769,14.257c9.114,-1.245 15.502,-9.656 14.257,-18.77Z" style="fill:#7e4021;"/><path d="M1967.65,70.464c-1.704,-13.634 -6.321,-22.901 -11.945,-29.197c-10.117,-11.328 -24.317,-14.533 -39.172,-12.124c-16.898,2.74 -34.425,13.274 -42.22,20.073c-20.39,17.784 -32.778,46.459 -40.623,74.349c-18.247,64.872 -22.435,140.787 7.527,203.182c15.627,32.541 47.593,44.775 72.844,40.75c19.41,-3.093 35.165,-15.306 40.422,-34.749c2.402,-8.88 -2.858,-18.039 -11.738,-20.44c-8.879,-2.401 -18.038,2.859 -20.439,11.739c-1.688,6.243 -7.259,9.539 -13.491,10.532c-13.207,2.105 -29.377,-5.243 -37.55,-22.262c-26.497,-55.18 -21.624,-122.356 -5.487,-179.727c6.086,-21.637 14.626,-44.456 30.445,-58.253c4.028,-3.513 12.271,-8.591 20.959,-11.191c4.653,-1.393 9.6,-3.076 13.11,-0.208c2.562,2.094 3.578,6.025 4.282,11.66c1.14,9.128 9.477,15.612 18.605,14.471c9.127,-1.141 15.612,-9.477 14.471,-18.605Z" style="fill:#7e4021;"/><path d="M2131.33,57.698c-1.74,-13.928 -6.561,-23.122 -12.334,-29.186c-10.326,-10.846 -24.826,-13.356 -39.991,-9.882c-16.537,3.788 -33.715,15.064 -41.304,21.683c-20.39,17.784 -32.778,46.46 -40.622,74.349c-18.247,64.872 -22.436,140.787 7.526,203.182c15.627,32.541 47.593,44.775 72.845,40.75c19.409,-3.093 35.164,-15.305 40.422,-34.749c2.401,-8.88 -2.859,-18.038 -11.738,-20.44c-8.88,-2.401 -18.039,2.859 -20.44,11.739c-1.688,6.243 -7.259,9.539 -13.491,10.533c-13.206,2.104 -29.377,-5.244 -37.549,-22.263c-26.498,-55.179 -21.624,-122.356 -5.487,-179.727c6.086,-21.637 14.626,-44.456 30.444,-58.253c4.213,-3.674 12.844,-9.536 21.975,-12.853c2.713,-0.986 5.468,-1.752 8.14,-2.007c1.727,-0.164 3.452,-0.384 4.775,0.605c2.388,1.785 3.1,5.425 3.753,10.652c1.141,9.128 9.477,15.612 18.605,14.472c9.128,-1.141 15.612,-9.478 14.471,-18.605Z" style="fill:#7e4021;"/><path d="M2993.71,1661.12c-5.568,-4.595 13.896,-4.193 21.066,-5.028c23.832,-2.778 47.743,-1.745 71.625,-0.229c86.851,5.514 144.527,112.944 73.61,181.969c-38.839,37.804 -353.743,118.338 -301.045,-31.176c22.277,-63.205 81.835,-106.281 134.744,-145.536Z" style="fill:#ffe6d8;"/><path d="M2977.58,1652.34c-53.825,40.006 -111.841,84.945 -134.34,148.779c-10.565,29.975 -8.083,52.552 1.631,69.168c13.934,23.832 45.214,36.832 85.009,39.454c60.313,3.974 140.814,-14.012 191.963,-33.339c24.006,-9.07 41.842,-18.891 49.786,-26.623c81.92,-79.736 16.147,-204.176 -84.179,-210.546c-24.878,-1.58 -49.785,-2.586 -74.61,0.307c-5.053,0.589 -15.635,0.783 -21.003,2.055c-4.996,1.184 -8.401,3.456 -10.337,5.322c-1.758,1.695 -3.042,3.515 -3.92,5.423Zm27.122,21.297c4.099,-0.291 9.611,-0.71 11.997,-0.988c22.838,-2.662 45.752,-1.603 68.639,-0.15c73.377,4.659 122.956,95.076 63.041,153.393c-6.039,5.878 -20.07,12.433 -38.319,19.329c-47.44,17.926 -122.047,34.945 -177.988,31.259c-14.624,-0.964 -27.879,-3.326 -38.731,-7.771c-8.625,-3.534 -15.624,-8.285 -19.694,-15.246c-5.795,-9.913 -5.272,-23.381 1.031,-41.264c21.189,-60.118 78.631,-100.353 128.956,-137.691c0.371,-0.275 0.729,-0.564 1.068,-0.871Z" style="fill:#7e4021;"/><path d="M911.216,1661.12c5.568,-4.595 -13.896,-4.193 -21.066,-5.028c-23.832,-2.778 -47.742,-1.745 -71.625,-0.229c-86.851,5.514 -144.527,112.944 -73.61,181.969c38.839,37.804 353.743,118.338 301.045,-31.176c-22.277,-63.205 -81.835,-106.281 -134.744,-145.536Z" style="fill:#ffe6d8;"/><path d="M927.339,1652.34c-0.878,-1.908 -2.162,-3.728 -3.92,-5.423c-1.936,-1.866 -5.341,-4.138 -10.337,-5.322c-5.368,-1.272 -15.95,-1.466 -21.003,-2.055c-24.825,-2.893 -49.732,-1.887 -74.61,-0.307c-100.326,6.37 -166.099,130.81 -84.179,210.546c7.944,7.732 25.78,17.553 49.787,26.623c51.148,19.327 131.649,37.313 191.962,33.339c39.795,-2.622 71.075,-15.622 85.009,-39.454c9.715,-16.616 12.196,-39.193 1.631,-69.168c-22.499,-63.834 -80.514,-108.773 -134.34,-148.779Zm-27.122,21.297c0.34,0.307 0.697,0.596 1.068,0.871c50.326,37.338 107.767,77.573 128.956,137.691c6.303,17.883 6.826,31.351 1.031,41.264c-4.07,6.961 -11.069,11.712 -19.694,15.246c-10.852,4.445 -24.107,6.807 -38.731,7.771c-55.94,3.686 -130.548,-13.333 -177.988,-31.259c-18.249,-6.896 -32.28,-13.451 -38.319,-19.329c-59.915,-58.317 -10.336,-148.734 63.042,-153.393c22.886,-1.453 45.8,-2.512 68.638,0.15c2.386,0.278 7.898,0.697 11.997,0.988Zm-1.141,-23.929l-0.051,0.058l0.08,-0.088l-0.029,0.03Zm0.72,-0.725l-0.198,0.199l0.246,-0.242l-0.048,0.043Z" style="fill:#7e4021;"/><path d="M2373.81,1422.17c-146.486,-23.574 -377.169,-24.735 -444.313,-26.647c-273.613,-7.793 -459.491,-3.071 -731.077,42.549c-156.455,26.28 -294.018,59.633 -329.222,181.293c-35.038,121.082 91.825,130.716 101.381,200.906c9.323,68.478 -166.857,239.176 -201.36,314.054c-117.29,254.545 -175.222,549.697 -110.43,822.297c147.604,621.016 832.578,676.143 1365.67,648.828c372.37,-19.08 748.445,-33.33 1019.5,-315.45c328.451,-341.857 260.326,-769.586 61.669,-1167.4c-95.64,-191.52 -270.477,-265.107 -186.676,-332.394c113.421,-91.07 155.445,-151.847 84.803,-221.803c-112.831,-111.736 -450.902,-117.419 -629.945,-146.233Z" style="fill:#fff;"/><path d="M2376.46,1405.71c-147.204,-23.689 -379.014,-24.931 -446.487,-26.852c-274.824,-7.828 -461.523,-3.05 -734.311,42.772c-79.811,13.406 -154.755,28.8 -214.283,56.174c-63.002,28.97 -109.183,71.242 -128.189,136.923c-19.99,69.08 6.123,106.392 38.677,136.421c14.101,13.007 29.598,24.419 42.141,36.939c10.015,9.996 18.173,20.579 20.059,34.428c1.165,8.557 -2.003,19.02 -7.209,31.032c-9.599,22.144 -26.661,48.127 -46.643,75.444c-52.746,72.108 -125.147,152.816 -146.131,198.354c-118.828,257.882 -177.149,556.953 -111.508,833.126c75.319,316.89 287.482,489.645 549.08,579.448c258.279,88.663 565.085,95.932 833.657,82.171c376.618,-19.298 756.518,-35.21 1030.67,-320.548c333.824,-347.449 266.468,-782.072 64.562,-1186.39c-57.98,-116.104 -144.527,-189.493 -186.391,-244.167c-13.213,-17.257 -22.276,-31.518 -20.423,-45.325c1.069,-7.959 6.419,-15.038 15.662,-22.46c49.432,-39.691 85.577,-74.057 105.698,-105.693c15.231,-23.947 21.756,-46.772 19.527,-69.206c-2.351,-23.665 -14.546,-47.397 -39.13,-71.743c-46.931,-46.475 -130.985,-76.145 -227.293,-95.928c-139.164,-28.587 -304.119,-37.599 -411.731,-54.917l0,0Zm-5.296,32.91c107.24,17.258 271.636,26.17 410.32,54.658c88.926,18.268 167.211,44.049 210.545,86.962c17.804,17.631 27.712,34.216 29.415,51.354c1.679,16.897 -4.733,33.794 -17.082,51.971c-19.174,28.222 -52.086,58.506 -95.843,93.64c-17.58,14.116 -25.797,28.88 -27.829,44.018c-2.797,20.843 7.048,43.973 26.994,70.023c41.004,53.552 126.246,125.075 183.035,238.795c195.408,391.308 264.303,812.14 -58.776,1148.41c-267.965,278.902 -640.213,291.489 -1008.34,310.352c-264.519,13.554 -566.746,6.917 -821.128,-80.409c-251.062,-86.186 -455.188,-251.501 -527.473,-555.628c-63.942,-269.026 -6.401,-560.259 109.352,-811.468c23.952,-51.981 116.998,-150.345 167.351,-228.086c24.529,-37.872 38.539,-72.033 35.386,-95.191c-4.371,-32.11 -28.841,-54.152 -55.708,-76.69c-30.805,-25.842 -64.556,-53.823 -46.177,-117.336c16.198,-55.979 56.4,-91.212 110.095,-115.904c57.168,-26.287 129.233,-40.71 205.878,-53.585c270.384,-45.418 455.44,-50.084 727.841,-42.326c66.815,1.903 296.372,2.985 442.14,26.443l0,0Z" style="fill:#7e4021;"/><path d="M3199.12,2438.1c19.68,-82.337 -61.762,-219.612 -62.756,-219.426c-0.817,0.153 -51.721,-66.359 -104.549,-85.085c-40.512,-14.36 -97.205,-6.939 -108.974,25.581c-33.176,91.666 153.21,128.481 152.459,131.796c-0.61,2.695 -87.836,34.66 -129.51,60.032c-38.099,23.195 -73.243,69.572 -23.659,106.716c60.888,45.612 188.176,-58.353 188.006,-58.111c-14.89,21.271 -27.983,58.65 -34.321,83.435c-8.763,34.27 -27.786,174.005 44.775,159.656c61.16,-12.094 78.122,-202.888 78.529,-204.594Z" style="fill:#fff;"/><path d="M3028.77,2293.27c-29.119,12.243 -67.771,28.958 -91.646,43.493c-18.363,11.18 -35.959,27.227 -46.173,45.036c-7.89,13.757 -11.523,28.592 -9.249,43.398c2.375,15.467 11.153,31.41 30.438,45.857c26.055,19.518 62.257,17.834 98.019,5.341c20.755,-7.25 41.321,-17.914 58.971,-28.454c-3.893,11.08 -7.121,21.823 -9.46,30.969c-5.605,21.917 -14.917,84.312 -4.947,127.411c4.878,21.088 14.549,37.813 28.901,46.673c10.475,6.467 23.628,9.328 40.201,6.051c22.623,-4.474 42.197,-27.071 55.931,-58.961c26.456,-61.43 35.285,-156.893 35.575,-158.109c7.693,-32.183 1.709,-72.149 -9.86,-110.047c-16.504,-54.066 -43.781,-103.814 -52.294,-117.968c-2.631,-4.372 -4.623,-6.69 -5.068,-7.128l-0.313,-0.296l-0.495,-0.569c-9.919,-11.531 -59.302,-70.145 -109.917,-88.086c-27.757,-9.839 -62.17,-10.557 -88.159,-1.669c-20.392,6.973 -35.728,19.805 -42.055,37.287c-14.729,40.696 4.086,73.213 36.14,97.605c25.267,19.227 59.05,33.058 85.46,42.166Zm94.616,-64.108c0.31,0.488 0.796,1.265 1.227,1.98c7.975,13.259 33.516,59.869 48.977,110.518c9.741,31.911 15.798,65.467 9.321,92.566c-0.28,1.173 -8.245,93.404 -33.77,152.673c-4.854,11.272 -10.304,21.267 -16.648,28.776c-4.566,5.404 -9.379,9.532 -15.134,10.67c-6.651,1.315 -12.021,0.88 -16.224,-1.715c-7.671,-4.736 -11.329,-14.55 -13.936,-25.822c-8.737,-37.769 -0.146,-92.433 4.765,-111.64c5.919,-23.145 17.922,-58.142 31.828,-78.005c3.441,-4.917 3.122,-9.072 2.948,-11.033c-0.619,-6.967 -4.237,-11.505 -10.357,-13.978c-0.31,-0.126 -7.834,-4.357 -16.443,2.268c-0.214,0.165 -1.451,1.158 -3.569,2.794c-12.053,9.31 -54.127,40.665 -97.204,55.713c-24.425,8.532 -49.247,12.78 -67.042,-0.551c-10.47,-7.843 -16.187,-15.841 -17.476,-24.238c-1.49,-9.7 2.822,-19.148 9.168,-27.795c7.861,-10.713 19.128,-20.099 30.641,-27.108c37.111,-22.593 110.772,-50.375 125.564,-57.669c9.216,-4.544 11.196,-11.423 11.534,-12.918c0.919,-4.058 0.72,-8.827 -2.893,-13.708c-0.777,-1.049 -4.773,-5.204 -13.356,-7.897c-16.818,-5.275 -74.576,-20.131 -111.812,-48.466c-19.94,-15.174 -34.144,-34.418 -24.981,-59.734c3.091,-8.543 11.533,-13.684 21.497,-17.091c19.528,-6.678 45.38,-5.846 66.236,1.547c44.479,15.766 87.066,68.272 95.783,78.405c0.448,0.521 0.9,1.007 1.356,1.458Z" style="fill:#7e4021;"/><path d="M3124.62,2396.83c-79.551,-46.483 -61.503,-146.731 2.588,-172.303c12.202,-4.869 39.376,44.444 54.567,92.711c14.52,46.136 17.409,91.204 14.747,91.844c-21.869,5.255 -46.715,2.466 -71.902,-12.252Z" style="fill:#ffce7b;"/><path d="M3116.21,2411.22c29.481,17.227 58.608,20.218 84.205,14.067c3.304,-0.794 11.329,-3.706 13.179,-14.99c1.455,-8.868 -1.758,-53.058 -15.922,-98.062c-13.259,-42.129 -35.811,-84.511 -50.747,-97.25c-9.633,-8.216 -19.026,-8.679 -25.894,-5.938c-75.215,30.01 -98.178,147.623 -4.821,202.173l0,0Zm11.147,-168.458c1.853,2.08 4.316,4.999 6.11,7.675c11.243,16.774 23.812,44.489 32.409,71.805c8.473,26.919 12.377,57.13 13.932,72.499c-14.758,0.805 -30.671,-2.888 -46.781,-12.301l0,0c-63.182,-36.918 -53.524,-114.884 -5.67,-139.678Z" style="fill:#7e4021;"/><path d="M833.259,3269.97c24.726,80.965 164.469,158.094 165.232,157.431c0.627,-0.546 78.203,31.03 133.24,20.425c42.205,-8.132 87.333,-43.241 81.014,-77.243c-17.812,-95.843 -197.176,-33.204 -198.207,-36.442c-0.839,-2.633 58.188,-74.367 81.276,-117.349c21.106,-39.295 27.926,-97.082 -33.64,-104.002c-75.602,-8.498 -132.714,145.61 -132.69,145.315c2.068,-25.883 -5.571,-64.744 -12.656,-89.326c-9.798,-33.989 -64.157,-164.115 -119.46,-114.997c-46.613,41.4 35.379,214.511 35.891,216.188Z" style="fill:#fff;"/><path d="M994.781,3443.66l0.716,0.239c14.392,4.92 86.657,30.455 139.388,20.295c28.917,-5.572 58.955,-22.38 76.864,-43.205c14.052,-16.339 20.779,-35.17 17.382,-53.449c-7.908,-42.551 -40.598,-61.063 -80.591,-65.863c-31.524,-3.784 -67.659,1.397 -95.044,6.917c18.908,-25.303 43.774,-59.289 57,-83.914c10.174,-18.939 17.22,-41.687 17.009,-62.216c-0.163,-15.859 -4.543,-30.491 -14.001,-42.106c-9.881,-12.135 -25.523,-21.437 -49.469,-24.128c-32.351,-3.637 -62.715,16.148 -87.226,45.031c-14.226,16.761 -26.56,36.372 -36.441,54.398c-2.254,-11.525 -4.911,-22.424 -7.526,-31.494c-6.266,-21.738 -29.833,-80.257 -60.255,-112.372c-14.886,-15.714 -31.694,-25.238 -48.556,-25.61c-12.308,-0.272 -25.099,3.921 -37.73,15.14c-17.242,15.314 -22.678,44.712 -18.371,79.165c8.295,66.368 49.024,153.157 49.389,154.352c9.665,31.648 35.064,63.079 64.231,89.901c41.61,38.263 90.324,67.348 104.832,75.241c4.483,2.439 7.374,3.428 7.98,3.581l0.419,0.097Zm9.591,-31.872c-0.514,-0.264 -1.327,-0.687 -2.06,-1.086c-13.592,-7.395 -59.219,-34.653 -98.199,-70.498c-24.56,-22.584 -46.776,-48.451 -54.914,-75.099c-0.352,-1.154 -40.19,-84.717 -48.193,-148.751c-1.523,-12.178 -1.885,-23.557 -0.217,-33.244c1.201,-6.973 3.261,-12.969 7.647,-16.865c5.069,-4.502 9.92,-6.846 14.858,-6.737c9.013,0.199 17.137,6.81 25.093,15.209c26.661,28.144 46.935,79.631 52.426,98.68c6.617,22.956 13.989,59.212 12.057,83.382c-0.478,5.982 1.902,9.403 3.045,11.006c4.061,5.694 9.48,7.776 16.009,6.809c0.331,-0.049 8.962,-0.211 13.03,-10.283c0.101,-0.25 0.665,-1.733 1.663,-4.216c5.679,-14.132 26.081,-62.476 55.606,-97.266c16.741,-19.725 35.994,-35.958 58.089,-33.475c13.001,1.461 21.98,5.463 27.344,12.051c6.196,7.61 7.262,17.94 6.17,28.61c-1.354,13.218 -6.317,27.018 -12.695,38.892c-20.559,38.275 -70.008,99.533 -79.07,113.313c-5.646,8.586 -3.869,15.52 -3.404,16.981c1.263,3.964 3.849,7.976 9.436,10.355c1.202,0.511 6.751,2.071 15.516,0.045c17.174,-3.967 74.501,-20.405 120.959,-14.828c24.879,2.986 46.871,12.387 51.791,38.858c1.66,8.931 -3.016,17.639 -9.882,25.623c-13.458,15.648 -36.171,28.022 -57.899,32.209c-46.338,8.928 -109.65,-14.781 -122.298,-19.105c-0.65,-0.222 -1.286,-0.413 -1.908,-0.57Z" style="fill:#7e4021;"/><path d="M918.399,3267.83c92.136,-0.202 127.339,95.381 85.023,149.888c-8.056,10.377 -56.461,-18.384 -94.002,-52.312c-35.884,-32.43 -61.198,-69.829 -59.226,-71.729c16.197,-15.606 39.033,-25.783 68.205,-25.847Z" style="fill:#ffce7b;"/><path d="M918.363,3251.17c-34.145,0.074 -60.776,12.245 -79.733,30.511c-2.447,2.358 -7.892,8.933 -3.774,19.6c3.237,8.384 28.385,44.862 63.389,76.496c32.767,29.613 73.676,54.739 93.007,58.16c12.466,2.206 20.8,-2.151 25.335,-7.993c49.66,-63.966 9.902,-177.012 -98.224,-176.774l-0,-0Zm75.695,150.906c-2.651,-0.855 -6.253,-2.125 -9.154,-3.524c-18.19,-8.771 -43.063,-26.304 -64.31,-45.505c-20.937,-18.922 -39.603,-42.996 -48.727,-55.462c12.319,-8.167 27.911,-13.041 46.569,-13.082l0,-0c73.177,-0.161 104.331,71.959 75.622,117.573Z" style="fill:#7e4021;"/><path d="M2049.12,2989.64c45.707,79.91 175.798,49.735 171.422,52.548c-17.24,11.08 -42.143,5.206 -76.105,19.975c-37.017,16.097 -83.963,42.127 -80.995,95.821c2.582,46.705 45.835,79.388 74.713,80.832c65.708,3.285 120.913,-54.05 155.279,-102.394c0.765,-1.076 2.844,-5.297 4.603,-5.102c3.591,0.398 -4.523,13.205 -20.219,44.34c-13.805,27.383 -21.853,122.947 53.448,132.686c93.332,12.071 78.747,-73.989 75.445,-121.249c-1.495,-21.395 -16.17,-69.794 -15.563,-68.003c22.487,66.432 74.355,115.431 138.24,91.11c55.104,-20.978 64.223,-78.011 26.789,-112.696c-25.557,-23.679 -40.252,-25.64 -73.766,-34.266c-1.891,-0.487 -15.916,-2.433 -15.469,-5.765c0.033,-0.241 131.411,-9.838 142.794,-97.386c8.844,-68.02 -73.008,-82.134 -102.49,-66.3c-13.068,7.019 -25.824,14.844 -37.87,23.51c-5.564,4.003 -13.758,10.957 -16.432,12.366c8.782,-13.237 98.693,-119.542 36.632,-174.359c-41.85,-36.965 -111.862,0.91 -126.716,36.917c-9.422,22.84 -13.014,47.07 -17.105,71.266c-0.061,0.357 -0.906,6.197 -1.79,5.718c-13.022,-7.047 18.893,-163.693 -88.871,-166.331c-74.901,-1.834 -102.256,88.254 -54.294,146.887c12.014,14.686 26.266,27.39 39.325,41.157c0.795,0.838 9.326,12.864 8.914,12.602c-64.126,-40.804 -137.101,-43.209 -170.908,-19.413c-31.528,22.193 -47.165,73.79 -29.011,105.529Z" style="fill:#ffc6d3;"/><path d="M2186.52,2858.59c-18.306,-4.569 -36.071,-6.596 -52.344,-6.346c-26.849,0.413 -49.836,7.115 -65.633,18.234c-22.417,15.78 -38.331,43.94 -42.608,72.198c-2.991,19.768 -0.307,39.448 8.723,55.235c18.917,33.073 50.127,50.144 82.452,58.087l0.983,0.236c-37.269,19.429 -74.186,50.229 -71.287,102.666c1.841,33.295 20.817,60.738 43.323,77.619c15.62,11.716 32.911,18.224 47.198,18.939c43.386,2.169 82.978,-19.359 115.728,-48.364c-1.458,14.011 -1.276,29.657 1.731,44.773c6.977,35.075 28.062,67.018 74.348,73.004c34.457,4.457 56.695,-3.203 71.208,-15.934c13.904,-12.198 21.244,-29.766 24.161,-49.467c2.683,-18.118 1.575,-38.121 0.22,-55.746c29.792,27.056 68.192,38.196 110.6,22.052c33.806,-12.869 52.965,-37.302 58.472,-63.334c5.623,-26.577 -2.839,-55.439 -26.286,-77.163c-13.761,-12.751 -24.607,-19.893 -36.422,-24.97c13.351,-4.579 27.307,-10.632 40.197,-18.601c27.553,-17.035 50.175,-42.478 54.984,-79.472c6.673,-51.322 -27.082,-78.701 -63.666,-87.723c-19.729,-4.865 -40.076,-3.888 -54.746,0.997c5.554,-10.856 10.546,-22.407 14.112,-34.102c10.818,-35.479 8.859,-71.91 -21.353,-98.595c-25.79,-22.78 -60.129,-23.516 -90.438,-11.994c-26.025,9.895 -48.452,28.869 -59.267,48.017c-8.935,-46.393 -32.834,-91.092 -95.403,-92.624c-88.596,-2.169 -124.218,102.437 -68.987,172.378Zm-122.928,122.771c-7.003,-12.244 -6.866,-28.36 -2.56,-43.514c4.534,-15.957 13.89,-31.095 26.698,-40.111c11.249,-7.918 27.839,-11.868 46.959,-12.162c31.721,-0.488 70.006,9.481 105.408,32.007c3.135,1.995 5.836,2.413 7.624,2.556c8.612,0.691 13.943,-3.243 16.815,-10.434c0.319,-0.8 3.493,-7.212 -1.436,-15.201c-1.335,-2.164 -10,-14.129 -10.878,-15.054c-12.779,-13.472 -26.761,-25.869 -38.516,-40.239c-38.743,-47.363 -19.517,-121.155 40.985,-119.673c36.185,0.885 52.234,24.017 59.957,50.358c6.04,20.603 7.393,43.168 8.096,61.416c0.729,18.947 1.32,34.021 3.581,40.54c2.263,6.52 6.161,10.091 9.713,12.013c6.128,3.317 12.324,3.152 18.348,-1.475c1.723,-1.323 4.304,-3.9 5.898,-8.134c0.949,-2.52 1.838,-7.567 1.909,-7.988c3.884,-22.969 7.135,-46.008 16.079,-67.689c6.031,-14.62 23.78,-29.008 43.75,-36.6c18.879,-7.177 40.462,-8.37 56.526,5.819c19.443,17.174 18.498,41.057 11.536,63.89c-12.735,41.769 -45.989,81.176 -51.023,88.762c-4.211,6.347 -3.584,14.741 1.524,20.391c5.107,5.65 13.395,7.119 20.133,3.569c2.974,-1.567 12.21,-9.131 18.397,-13.582c11.456,-8.243 23.593,-15.68 36.022,-22.356c9.057,-4.864 24.588,-5.267 39.483,-1.593c21.603,5.327 42.534,20.756 38.593,51.061c-3.386,26.042 -20.062,43.426 -39.458,55.418c-32.577,20.141 -73.171,25.745 -85.056,27.143c-15.008,1.765 -18.25,14.606 -18.27,14.758c-0.806,6.007 0.992,13.028 8.703,18.03c4.659,3.023 17.071,5.562 19.13,6.092c30.155,7.761 43.598,9.045 66.592,30.351c13.989,12.961 19.684,29.956 16.33,45.813c-3.471,16.403 -16.419,30.972 -37.721,39.081c-54.731,20.836 -97.258,-23.965 -116.524,-80.878c-2.187,-6.461 -39.357,-16.091 -31.547,10.873c1.849,6.382 13.422,45.367 14.698,63.636c1.258,18.013 4.397,41.938 1.827,63.432c-1.509,12.62 -4.759,24.474 -13.557,32.192c-9.079,7.964 -23.396,10.722 -44.951,7.934c-29.017,-3.753 -41.556,-24.46 -45.93,-46.449c-4.836,-24.309 -0.655,-50.54 5.226,-62.205c13.876,-27.524 21.745,-42.399 22.564,-47.348c1.094,-6.616 -1.004,-11.041 -3.066,-13.902c-2.753,-3.821 -6.658,-6.53 -12.325,-7.158c-3.98,-0.441 -8.323,0.371 -12.444,3.243c-2.875,2.003 -7.887,9.224 -7.887,9.224c-0,-0 0.219,-0.331 0.308,-0.456c-16.286,22.909 -37.441,48.014 -62.378,66.937c-23.148,17.567 -49.579,29.912 -78.485,28.467c-8.815,-0.441 -19.224,-5.084 -28.862,-12.313c-15.379,-11.535 -28.784,-30.041 -30.042,-52.793c-1.175,-21.253 7.696,-36.962 20.356,-49.02c14.562,-13.869 33.791,-23.268 50.645,-30.597c18.711,-8.137 34.471,-9.265 47.47,-11.212c12.012,-1.798 22.222,-4.386 30.999,-10.027c2.089,-1.342 3.352,-2.741 4.167,-3.775c4.889,-6.2 4.24,-12.033 2.369,-16.642c-0.455,-1.119 -5.838,-11.793 -19.967,-10.157c-10.309,1.194 -51.455,7.73 -91.063,-2.002c-23.909,-5.875 -47.479,-17.804 -61.472,-42.267Z" style="fill:#7e4021;"/><path d="M2222.02,3063.59c27.421,56.788 96.05,67.851 128.154,62.851c20.642,-3.214 39.78,-13.096 57.361,-24.514c84.229,-54.699 76.172,-181.135 -20.714,-218.952c-145.457,-56.776 -202.135,103.301 -164.801,180.615Z" style="fill:#ffdfe6;"/><path d="M2207.01,3070.84c31.233,64.681 109.162,77.768 145.728,72.073c22.947,-3.574 44.329,-14.312 63.873,-27.005c95.587,-62.075 86.22,-205.54 -23.731,-248.456c-49.185,-19.198 -89.366,-15.665 -120.379,0.014c-36.246,18.325 -60.397,53.904 -71.397,92.848c-10.906,38.612 -8.722,80.233 5.906,110.526Zm30.017,-14.494c-11.505,-23.827 -12.422,-56.602 -3.844,-86.972c8.484,-30.039 26.399,-58.025 54.357,-72.16c24.019,-12.143 55.128,-13.579 93.22,1.289c83.821,32.718 90.568,142.126 17.697,189.45c-15.618,10.142 -32.512,19.167 -50.848,22.023c-27.643,4.305 -86.971,-4.734 -110.582,-53.63Z" style="fill:#7e4021;"/><path d="M1323.94,2908.64c53.464,56.865 154.771,6.299 151.717,9.483c-12.026,12.54 -33.72,12.613 -58.806,31.496c-27.344,20.581 -60.914,51.313 -47.865,94.999c11.351,38 53.467,56.408 77.563,51.897c54.827,-10.264 89.025,-68.439 107.817,-115.085c0.418,-1.038 1.299,-4.929 2.787,-5.116c3.04,-0.381 -1.122,11.781 -7.917,40.552c-5.976,25.304 6.257,105.689 70.268,98.852c79.339,-8.475 50.321,-76.554 38.267,-114.87c-5.456,-17.345 -27.112,-54.355 -26.259,-52.998c31.658,50.335 84.099,80.496 131.973,47.829c41.293,-28.177 37.552,-77.003 -0.163,-98.211c-25.747,-14.478 -38.251,-13.194 -67.587,-13.689c-1.656,-0.028 -13.604,1.137 -13.893,-1.699c-0.021,-0.205 106.41,-34.058 98.51,-108.492c-6.138,-57.83 -76.414,-53.307 -97.596,-34.43c-9.389,8.367 -18.363,17.337 -26.584,26.861c-3.797,4.4 -9.18,11.751 -11.107,13.441c4.628,-12.649 57.773,-118.053 -4.221,-150.998c-41.805,-22.215 -92.055,22.837 -97.193,55.458c-3.259,20.693 -1.437,41.381 -0.033,62.139c0.021,0.307 0.476,5.288 -0.347,5.068c-12.128,-3.239 -16.742,-138.701 -106.117,-119.599c-62.12,13.277 -66.889,92.958 -15.766,131.834c12.805,9.737 27.065,17.397 40.55,26.17c0.822,0.534 10.23,8.766 9.839,8.631c-60.93,-20.983 -121.576,-8.558 -144.752,17.738c-21.615,24.523 -24.321,70.154 -3.085,92.739Z" style="fill:#e0f0ff;"/><path d="M1530.76,2668.53c-17.355,-35.023 -46.46,-64.126 -97.095,-53.304c-73.338,15.674 -84.338,106.404 -29.206,155.754c-13.664,0.357 -26.534,2.152 -38.152,5.123c-22.626,5.787 -40.681,16.168 -51.791,28.774c-15.798,17.925 -23.611,45.013 -21.501,69.833c1.487,17.484 7.843,33.714 18.777,45.343l0,-0c21.191,22.539 48.614,31.13 75.714,32.279c-25.515,23.639 -46.801,55.851 -34.494,97.052c8.321,27.859 29.957,47.303 52.469,57.048c15.715,6.802 31.798,8.77 44.13,6.462c34.83,-6.521 62.605,-30.125 83.847,-58.797c1.811,10.319 4.876,21.118 9.522,31.213c13.102,28.465 37.626,51.319 78.289,46.976c30.278,-3.234 47.598,-14.442 57.369,-28.255c9.395,-13.281 12.151,-29.795 10.611,-47.245c-1.199,-13.585 -5.061,-27.79 -9.097,-40.735c29.343,14.163 62.006,14.35 92.722,-6.609c26.174,-17.86 37.432,-42.628 36.813,-65.928c-0.633,-23.857 -13.724,-46.813 -38.201,-60.577c-11.574,-6.509 -20.738,-10.253 -29.689,-12.435c8.564,-5.795 17.103,-12.534 24.756,-20.238c19.869,-20.003 33.795,-46.15 30.368,-78.439c-4.801,-45.237 -39.2,-61.804 -72.32,-62.028c-15.291,-0.103 -30.076,3.604 -41.234,9.2c1.835,-8.467 3.183,-17.181 3.708,-25.784c1.976,-32.393 -7.269,-62.921 -38.415,-79.472c-26.635,-14.154 -56.07,-7.898 -79.555,8.111c-17.862,12.176 -31.789,29.915 -38.345,46.678Zm-194.683,228.69c-7.757,-8.25 -10.545,-20.893 -10.016,-33.53c0.563,-13.47 5.045,-27.223 13.462,-36.773c7.433,-8.433 19.907,-14.648 35.044,-18.52c25.653,-6.562 58.664,-5.883 91.778,5.52c3.513,1.21 6.237,0.987 8.008,0.711c8.536,-1.334 12.804,-6.402 13.922,-14.064c0.124,-0.849 1.73,-7.81 -4.905,-14.413c-1.579,-1.571 -11.412,-9.984 -12.348,-10.593c-13.144,-8.551 -27.07,-15.976 -39.551,-25.467c-39.535,-30.064 -38.879,-92.001 9.161,-102.268c28.66,-6.126 45.601,9.179 56.649,28.465c8.94,15.607 14.428,33.735 18.56,48.465c4.436,15.812 8.043,28.366 11.263,33.401c3.594,5.62 8.09,8.064 11.861,9.072c6.718,1.794 12.693,0.196 17.463,-5.693c1.154,-1.425 2.421,-3.448 3.209,-6.212c0.716,-2.512 0.642,-9.841 0.605,-10.391c-1.321,-19.516 -3.197,-38.966 -0.132,-58.42c1.999,-12.696 13.424,-27.336 27.77,-37.115c13.381,-9.122 29.962,-14.284 45.138,-6.219c18.459,9.81 21.956,28.809 20.785,48.008c-2.234,36.644 -21.765,75.356 -24.395,82.545c-2.617,7.152 -0.052,15.169 6.23,19.475c6.283,4.305 14.685,3.804 20.411,-1.218c2.181,-1.913 8.436,-10.1 12.735,-15.081c7.747,-8.974 16.207,-17.424 25.055,-25.308c6.155,-5.485 18.234,-8.55 30.536,-8.467c17.691,0.119 36.834,8.05 39.399,32.213c2.261,21.306 -7.76,38.23 -20.871,51.43c-22.552,22.705 -54.462,35.132 -63.848,38.581c-13.896,5.106 -13.814,18.264 -13.799,18.413c0.605,5.929 3.893,12.264 12.413,15.282c4.649,1.647 15.891,1.359 17.78,1.39c25.868,0.437 36.996,-1.214 59.699,11.553c13.239,7.444 20.875,19.503 21.218,32.407c0.357,13.462 -7.157,27.19 -22.28,37.509c-39.786,27.148 -82.16,-1.104 -108.471,-42.935c-3.63,-5.773 -42.087,-6.601 -28.216,17.797c2.758,4.85 19.854,34.408 24.469,49.075c4.553,14.475 11.825,33.406 13.93,51.474c1.172,10.051 1.007,19.856 -4.373,27.462c-5.597,7.912 -16.354,12.508 -33.696,14.36c-23.35,2.494 -36.946,-11.423 -44.469,-27.769c-8.513,-18.494 -10.275,-40.235 -7.808,-50.679c6.109,-25.868 9.624,-39.943 9.317,-44.258c-0.469,-6.586 -3.516,-10.331 -6.146,-12.598c-3.54,-3.051 -7.933,-4.768 -13.547,-4.064c-3.92,0.491 -7.905,2.259 -11.2,5.962c-2.167,2.436 -5.188,10.033 -5.188,10.033c0,-0 0.15,-0.412 0.213,-0.569c-8.817,21.886 -21.167,46.524 -37.825,66.848c-15.236,18.587 -34.071,33.678 -57.599,38.082c-6.946,1.301 -15.902,-0.456 -24.755,-4.288c-14.336,-6.205 -28.472,-18.255 -33.771,-35.997c-6.005,-20.105 1.386,-36.505 12.371,-49.921c8.684,-10.605 19.598,-19.504 29.546,-26.992c13.601,-10.237 26.183,-14.187 36.352,-18.292c9.916,-4.002 18.103,-8.354 24.461,-14.984c1.713,-1.786 2.612,-3.436 3.163,-4.628c3.309,-7.164 1.319,-12.683 -1.572,-16.727c-0.692,-0.968 -8.248,-10.146 -21.402,-5.34c-8.169,2.985 -40.417,16.377 -74.595,16.175c-20.215,-0.12 -41.348,-5.057 -57.198,-21.915Z" style="fill:#7e4021;"/><path d="M1481.1,2935.47c33.822,41.409 92.593,36.981 118.077,26.52c16.385,-6.726 30.214,-18.653 42.456,-31.538c58.65,-61.731 27.043,-164.392 -60.31,-176.444c-131.143,-18.095 -146.271,125.085 -100.223,181.462Z" style="fill:#fed7dc;"/><path d="M1468.19,2946.02c39.367,48.198 107.653,43.571 137.315,31.395c18.543,-7.612 34.354,-20.894 48.209,-35.476c67.978,-71.55 31.131,-190.465 -70.115,-204.435c-45.242,-6.242 -78.309,4.92 -101.24,24.358c-26.807,22.723 -40.022,57.499 -41.431,92.485c-1.395,34.642 8.873,69.16 27.262,91.673l-0,-0Zm25.816,-21.086c-13.846,-16.952 -20.822,-43.162 -19.772,-69.246c1.037,-25.74 9.956,-51.681 29.679,-68.399c16.952,-14.369 41.684,-21.379 75.13,-16.764c73.46,10.135 99.827,96.541 50.505,148.454c-10.629,11.188 -22.475,21.76 -36.702,27.6c-21.307,8.746 -70.561,12.976 -98.84,-21.645l-0,-0Z" style="fill:#7e4021;"/><path d="M2466.4,3221.17c-11.653,35.539 -8.326,78.772 36.342,92.476c25.964,7.966 45.312,5.227 58.974,-3.724c12.86,-8.425 20.826,-22.505 24.307,-39.286c3.251,-15.669 2.574,-33.714 -1.455,-51.345c31.563,28.976 79.664,48.597 104.879,6.416c13.3,-22.248 14.987,-42.004 9.525,-58.525c-5.14,-15.551 -16.725,-28.428 -31.864,-37.95c-14.135,-8.89 -31.393,-14.844 -49,-17.397c34.459,-19.979 63.708,-59.414 29.301,-99.305c-18.148,-21.04 -36.505,-29.911 -53.377,-30.67c-15.88,-0.713 -30.654,5.798 -43.032,16.984c-11.558,10.444 -21.023,24.99 -27.342,41.121c-11.312,-40.718 -42.224,-83.513 -87.659,-64.776c-23.965,9.883 -36.44,24.426 -40.894,40.501c-4.192,15.132 -1.289,31.836 6.575,47.931c7.343,15.028 19.038,29.53 32.932,41.563c-41.107,-3.95 -88.522,10.335 -80.817,61.238c4.064,26.848 15.09,44.266 29.345,54.471c13.417,9.606 29.896,12.912 46.896,11.185c12.199,-1.24 24.672,-5.084 36.364,-10.908Z" style="fill:#fff;"/><path d="M2444.29,3246.63c-2.771,35.327 10.743,69.817 53.559,82.953c32.171,9.87 56.067,5.374 72.996,-5.717c16.412,-10.752 27.049,-28.425 31.492,-49.842c1.327,-6.396 2.096,-13.141 2.324,-20.088c35.139,18.671 75.345,20.042 99.087,-19.674c16.406,-27.445 17.781,-51.928 11.044,-72.308c-6.31,-19.087 -20.234,-35.14 -38.816,-46.827c-6.623,-4.166 -13.846,-7.775 -21.452,-10.78c15.426,-16.079 25.712,-36.072 24.891,-57.195c-0.568,-14.625 -6.117,-30.115 -19.39,-45.504c-22.031,-25.542 -44.768,-35.514 -65.249,-36.434c-20.229,-0.909 -39.189,7.019 -54.956,21.267c-4.989,4.509 -9.657,9.669 -13.927,15.337c-19.672,-35.001 -53.487,-59.67 -96.254,-42.034c-30.049,12.393 -45.016,31.302 -50.6,51.459c-5.216,18.825 -2.122,39.675 7.661,59.698c3.192,6.531 7.102,12.983 11.601,19.222c-21.847,4.113 -41.369,14.064 -52.205,30.77c-7.855,12.111 -11.836,27.831 -8.785,47.986c4.915,32.468 18.883,53.187 36.121,65.529c16.696,11.953 37.13,16.363 58.284,14.214c4.173,-0.424 8.375,-1.106 12.574,-2.032l-0,0Zm37.942,-20.264c2.095,-6.387 0.148,-13.406 -4.938,-17.802c-5.085,-4.395 -12.313,-5.306 -18.329,-2.309c-9.851,4.906 -20.342,8.2 -30.618,9.244c-12.847,1.305 -25.371,-0.895 -35.51,-8.155c-11.273,-8.07 -19.354,-22.182 -22.568,-43.414c-5.744,-37.946 32.1,-45.097 62.744,-42.152c7.219,0.693 14.058,-3.361 16.914,-10.027c2.856,-6.666 1.074,-14.414 -4.408,-19.162c-12.148,-10.521 -22.449,-23.142 -28.869,-36.282c-5.946,-12.169 -8.658,-24.724 -5.488,-36.164c3.324,-11.998 13.299,-22.167 31.186,-29.543c15.68,-6.466 28.843,-2.253 39.073,7.028c12.64,11.468 21.35,29.438 26.174,46.801c1.919,6.91 8.044,11.817 15.205,12.184c7.162,0.367 13.756,-3.889 16.372,-10.566c5.341,-13.635 13.227,-26.006 22.997,-34.834c8.991,-8.125 19.575,-13.218 31.11,-12.7c13.266,0.596 27.235,8.363 41.504,24.906c25.962,30.099 0.96,58.926 -25.04,74c-6.137,3.558 -9.349,10.612 -8.005,17.578c1.345,6.965 6.952,12.316 13.973,13.335c15.268,2.214 30.261,7.302 42.519,15.011c11.697,7.357 20.941,17.058 24.913,29.073c4.186,12.664 2.189,27.688 -8.006,44.742c-10.247,17.142 -26.272,18.606 -41.913,13.283c-13.323,-4.536 -26.463,-13.393 -37.39,-23.425c-5.375,-4.934 -13.335,-5.799 -19.644,-2.133c-6.309,3.666 -9.5,11.01 -7.875,18.123c3.472,15.195 4.185,30.743 1.384,44.247c-2.521,12.149 -7.811,22.631 -17.121,28.731c-10.401,6.814 -25.187,7.795 -44.953,1.731c-34.046,-10.445 -34.275,-44.261 -25.393,-71.349Z" style="fill:#7e4021;"/><path d="M2454.74,3194.54c47.64,57.287 95.197,36.591 117.583,22.882c63.602,-38.95 41.105,-128.755 -20.882,-160.337c-86.487,-44.064 -164.916,55.426 -96.701,137.455Z" style="fill:#ffce7b;"/><path d="M2441.92,3205.2c22.254,26.761 44.799,38.484 65.147,42.453c31.099,6.066 57.972,-6.226 73.955,-16.014c75.003,-45.932 51.079,-152.156 -22.02,-189.4c-51.826,-26.405 -101.097,-9.11 -127.333,26.386c-25.754,34.846 -29.875,88.323 10.251,136.575Zm25.63,-21.313c-22.631,-27.213 -26.524,-56.587 -17.591,-79.888c12.929,-33.726 52.381,-53.218 93.911,-32.059c50.892,25.929 71.961,99.294 19.744,131.273c-10.882,6.663 -28.993,15.853 -50.166,11.723c-14.501,-2.828 -30.039,-11.978 -45.898,-31.049Z" style="fill:#7e4021;"/><path d="M2165.05,2331.35c-9.315,48.299 1.483,101.8 60.045,105.667c34.04,2.247 58.084,-7.014 73.992,-22.399c14.973,-14.481 22.897,-34.621 24.74,-56.821c1.721,-20.728 -1.886,-43.272 -9.667,-64.289c44.322,27.053 108.126,37.348 133.574,-23.395c13.422,-32.038 12.543,-57.45 3.119,-76.637c-8.87,-18.06 -25.479,-30.816 -46.071,-38.275c-19.226,-6.964 -41.952,-9.288 -64.602,-7.222c40.52,-35.529 71.487,-94.022 21.905,-133.98c-26.152,-21.076 -50.712,-26.749 -72.158,-22.64c-20.187,3.868 -37.872,16.511 -51.816,34.328c-13.02,16.635 -22.768,37.814 -28.298,60.045c-20.51,-47.934 -66.115,-92.603 -120.701,-55.343c-28.791,19.653 -42.346,41.73 -45.526,63.332c-2.993,20.333 3.224,40.52 15.62,58.448c11.575,16.741 28.572,31.512 47.972,42.51c-52.572,7.36 -110.341,39.601 -92.838,101.457c9.231,32.625 25.827,51.272 45.404,59.858c18.427,8.082 39.766,7.302 60.995,0.022c15.233,-5.224 30.417,-13.815 44.311,-24.666Z" style="fill:#ffa7bb;"/><path d="M2145.45,2363.58c0.751,45.775 22.329,86.359 78.548,90.071c39.98,2.64 67.992,-8.979 86.676,-27.048c17.807,-17.221 27.572,-41.022 29.764,-67.423c0.953,-11.477 0.459,-23.46 -1.345,-35.483c47.056,16.368 99.882,10.461 124.014,-47.14c15.831,-37.788 13.822,-67.794 2.707,-90.424c-10.715,-21.818 -30.479,-37.588 -55.355,-46.598c-10.159,-3.68 -21.195,-6.222 -32.683,-7.63c30.704,-40.941 41.632,-93.112 -5.232,-130.879c-30.989,-24.975 -60.339,-30.901 -85.753,-26.032c-23.985,4.596 -45.236,19.255 -61.804,40.424c-7.101,9.073 -13.342,19.359 -18.576,30.405c-28.938,-40.211 -74.908,-64.544 -126.694,-29.195c-33.72,23.016 -48.894,49.371 -52.618,74.67c-3.598,24.44 3.499,48.804 18.4,70.354c6.281,9.084 13.974,17.67 22.71,25.504c-47.911,17.186 -86.465,55 -69.905,113.521c10.976,38.79 31.47,60.376 54.747,70.585c22.084,9.685 47.654,9.248 73.096,0.523c6.465,-2.217 12.926,-4.973 19.303,-8.205l0,-0Zm35.967,-29.07c1.315,-6.823 -1.739,-13.746 -7.666,-17.373c-5.927,-3.626 -13.482,-3.196 -18.958,1.081c-12.383,9.671 -25.884,17.381 -39.459,22.036c-17.019,5.837 -34.123,6.96 -48.895,0.481c-15.881,-6.965 -28.572,-22.668 -36.061,-49.133c-14.357,-50.738 35.988,-74.376 79.112,-80.413c7.07,-0.99 12.725,-6.373 14.061,-13.386c1.337,-7.013 -1.942,-14.098 -8.152,-17.619c-17.149,-9.722 -32.251,-22.691 -42.483,-37.489c-9.893,-14.308 -15.228,-30.316 -12.84,-46.543c2.637,-17.907 14.566,-35.702 38.433,-51.993c44.141,-30.131 79.397,9.372 95.982,48.133c2.817,6.583 9.523,10.631 16.659,10.057c7.137,-0.574 13.11,-5.642 14.838,-12.59c4.95,-19.903 13.593,-38.903 25.249,-53.796c11.321,-14.466 25.438,-25.091 41.827,-28.231c17.481,-3.349 37.247,2.068 58.564,19.248c22.585,18.201 22.681,41.567 12.879,63.095c-7.672,16.851 -20.867,32.709 -35.314,45.377c-5.427,4.759 -7.174,12.471 -4.327,19.105c2.847,6.633 9.641,10.68 16.83,10.024c20.124,-1.836 40.329,0.107 57.411,6.295c16.309,5.907 29.762,15.648 36.788,29.952c7.733,15.746 7.484,36.555 -3.532,62.849c-20.76,49.552 -73.362,37.678 -109.519,15.609c-6.059,-3.698 -13.795,-3.153 -19.275,1.358c-5.481,4.511 -7.502,11.998 -5.038,18.655c6.916,18.679 10.217,38.701 8.688,57.124c-1.494,18 -7.577,34.477 -19.718,46.219c-13.133,12.701 -33.204,19.604 -61.307,17.748c-46.668,-3.081 -52.201,-47.39 -44.777,-85.88Z" style="fill:#7e4021;"/><path d="M2146.25,2301.28c68.964,57.916 125.934,17.55 152.146,-6.452c74.472,-68.193 32.338,-174.648 -50.846,-195.853c-116.061,-29.586 -200.047,119.376 -101.3,202.305Z" style="fill:#ffce7b;"/><path d="M2135.53,2314.05c31.67,26.596 61.331,34.637 87.216,33.55c38.388,-1.611 69.052,-24.126 86.903,-40.473c85.264,-78.075 37.255,-200.018 -57.984,-224.296c-132.731,-33.835 -229.066,136.379 -116.135,231.219l0,-0Zm21.437,-25.526c-84.565,-71.018 -12.928,-198.729 86.464,-173.392c71.13,18.132 107.387,109.101 43.707,167.411c-13.603,12.457 -36.537,30.525 -65.79,31.753c-19.21,0.806 -40.879,-6.035 -64.381,-25.772l-0,-0Z" style="fill:#7e4021;"/><path d="M1673.07,3601.3c43.112,1.351 193.301,11.438 237.595,4.392c47.2,-26.006 89.999,-76.49 50.147,-126.158c-21.019,-26.196 -43.79,-37.008 -65.618,-37.597c-20.547,-0.555 -40.533,7.998 -57.976,22.407c-16.286,13.454 -30.353,32.047 -40.524,52.574c-9.745,-51.218 -44.701,-104.634 -106.012,-79.957c-32.338,13.016 -50.315,31.671 -58.056,52.086c-7.287,19.217 -5.548,40.268 2.712,60.439c7.713,18.835 21.144,36.909 37.732,51.814Z" style="fill:#ffa7bb;"/><path d="M1661.92,3613.7c2.925,2.629 6.687,4.139 10.618,4.262c43.681,1.368 195.857,11.331 240.735,4.193c1.902,-0.303 3.738,-0.933 5.425,-1.862c55.946,-30.825 102.34,-92.315 55.104,-151.186c-24.908,-31.043 -52.302,-43.13 -78.168,-43.828c-24.413,-0.659 -48.315,9.098 -69.04,26.219c-8.883,7.337 -17.186,16.045 -24.668,25.709c-19.635,-45.483 -59.312,-79.115 -117.477,-55.704c-37.873,15.244 -58.35,37.728 -67.417,61.638c-8.759,23.099 -7.056,48.418 2.873,72.664c8.607,21.02 23.502,41.26 42.015,57.895Zm17.964,-28.826c-12.69,-12.332 -22.996,-26.717 -29.132,-41.701c-6.592,-16.097 -8.368,-32.877 -2.552,-48.213c6.417,-16.924 21.888,-31.745 48.695,-42.535c49.579,-19.955 75.536,26.194 83.416,67.611c1.338,7.033 7.019,12.426 14.113,13.397c7.093,0.971 14.015,-2.697 17.194,-9.112c9.106,-18.377 21.624,-35.08 36.205,-47.124c14.162,-11.699 30.23,-19.047 46.911,-18.597c17.793,0.48 35.935,10.014 53.069,31.368c18.153,22.624 13.232,45.466 -0.961,64.389c-10.54,14.052 -25.743,26.164 -41.645,35.287c-44.812,5.847 -177.129,-2.833 -225.313,-4.77l-0,-0Z" style="fill:#7e4021;"/><path d="M1668.88,3603.56c22.421,2.222 176.327,5.219 223.66,4.167c-9.019,-30.371 -31.259,-54.403 -61.836,-69.777c-68.604,-34.495 -140.081,5.518 -161.824,65.61Z" style="fill:#ffce7b;"/><path d="M1653.21,3597.89c-1.75,4.835 -1.169,10.208 1.573,14.558c2.742,4.35 7.338,7.191 12.456,7.698c22.622,2.242 177.914,5.306 225.673,4.245c5.194,-0.116 10.037,-2.647 13.097,-6.844c3.061,-4.198 3.988,-9.583 2.51,-14.563c-10.298,-34.679 -35.411,-62.368 -70.326,-79.924c-78.397,-39.418 -160.136,6.161 -184.983,74.83Zm41.862,-9.635c25.635,-39.103 77.773,-60.742 128.147,-35.414c18.636,9.37 33.804,22.362 43.803,38.442c-48.362,0.017 -129.732,-1.472 -171.95,-3.028Z" style="fill:#7e4021;"/><path d="M1216.55,2146.7c13.348,0.703 88.033,3.672 146.522,-24.061c68.782,-32.614 115.715,-95.793 80.537,-135.955c-59.612,-68.057 -211.105,75.431 -246.637,74.611c-0.261,-0.006 34.567,-35.564 50.784,-60.469c19.866,-30.51 82.737,-146.781 19.844,-172.417c-79.389,-32.359 -147.543,120.505 -157.554,192.032c-0.278,1.987 -37.545,-192.631 -116.856,-172.265c-84.18,21.616 -29.837,134.4 -12.809,174.813c10.954,25.996 28.442,50.691 27.624,51.36c-0.673,0.55 -68.464,-42.668 -126.332,-33.336c-44.376,7.156 -92.668,42.417 -87.146,78.161c15.566,100.753 205.051,40.991 206.026,44.409c0.793,2.779 -64.857,62.748 -92.758,105.468c-34.333,52.568 -28.224,115.199 35.911,124.394c78.756,11.291 143.161,-145.636 143.127,-145.328c-2.987,26.989 -1.846,64.769 3.161,91.05c10.359,54.373 43.875,134.003 115.321,104.356c51.868,-21.523 17.696,-112.69 1.658,-154.763c-7.641,-20.043 -30.81,-56.642 -29.131,-57.379c1.873,-0.821 142.177,168.631 205.244,97.127c66.017,-74.849 -108.971,-170.338 -166.536,-181.808Z" style="fill:#fff;"/><path d="M1109.68,1956.74c-10.875,-32.988 -27.113,-72.112 -48.746,-97.065c-19.902,-22.958 -44.18,-34.759 -71.884,-27.645c-42.731,10.973 -57.537,40.3 -58.296,75.012c-0.949,43.397 23.467,96.769 34.273,122.416c1.15,2.728 2.401,5.506 3.716,8.282c-26.052,-9.795 -59.192,-18.107 -89.718,-13.184c-30.24,4.876 -62.003,21.392 -81.283,42.474c-15.038,16.445 -22.616,35.686 -19.681,54.685c6.853,44.36 40.197,64.537 81.503,70.777c30.799,4.653 66.1,1.168 94.1,-3.333c-20.454,21.349 -45.21,48.409 -59.818,70.775c-24.244,37.12 -29.824,78.732 -15.329,108.237c10.342,21.053 30.514,37.136 62.828,41.769c33.456,4.796 65.49,-14.531 91.799,-43.268c14.106,-15.409 26.621,-33.343 36.984,-50.283c0.836,9.245 2.005,18.055 3.499,25.894c5.643,29.62 17.898,65.992 38.167,91.049c23.069,28.517 55.619,43.963 99.914,25.582c27.306,-11.331 38.044,-36.476 37.888,-67.136c-0.14,-27.467 -9.427,-59.648 -18.36,-85.296c17.342,14.733 36.621,29.093 55.894,39.435c40.269,21.611 80.467,25.35 108.46,-6.387c32.651,-37.019 20.522,-78.504 -13.821,-115.407c-23.213,-24.944 -56.763,-47.604 -88.661,-64.531l-0,0c24.936,-3.611 52.39,-10.176 77.109,-21.896c45.422,-21.538 81.654,-55.762 95.435,-88.782c10.964,-26.271 8.981,-52.114 -9.501,-73.214c-28.376,-32.397 -74.086,-28.219 -121.623,-7.159c-24.274,10.754 -49.073,25.493 -71.491,39.337c13.206,-20.807 40.364,-71.006 46.948,-113.969c5.578,-36.396 -3.351,-67.593 -36.089,-80.937c-38.366,-15.638 -75.407,2.225 -105.802,37.586c-24.703,28.738 -45.036,68.972 -58.414,106.182Zm107.752,173.313c-8.727,-0.46 -16.327,5.9 -17.414,14.572c-1.087,8.671 4.709,16.71 13.28,18.417c32.54,6.484 104.818,41.612 144.07,83.789c21.237,22.821 33.414,47.758 13.223,70.649c-13.934,15.799 -33.208,13.92 -53.093,5.952c-25.364,-10.162 -51.659,-30.456 -73.672,-50.07c-27.88,-24.843 -49.041,-48.959 -53.539,-53.293c-8.826,-8.504 -17.826,-4.528 -19.138,-3.952c-3.219,1.412 -14.156,8.417 -8.624,22.573c2.593,6.632 22.018,38.005 28.879,56.004c9.085,23.833 24.691,64.262 24.859,97.253c0.082,15.955 -3.121,30.283 -17.331,36.179c-27.15,11.267 -47.082,1.721 -61.222,-15.759c-16.94,-20.94 -26.623,-51.569 -31.339,-76.322c-4.734,-24.852 -5.792,-60.577 -2.967,-86.098c0.636,-5.755 -1.478,-9.177 -2.528,-10.818c-3.709,-5.796 -8.909,-8.071 -15.171,-7.644c-0.348,0.024 -9.515,-0.425 -14.109,9.882c-0.113,0.255 -0.749,1.766 -1.869,4.295c-6.375,14.39 -29.209,63.591 -61.169,98.501c-18.292,19.98 -39.221,36.116 -62.482,32.781c-18.999,-2.724 -31.56,-11.093 -37.641,-23.471c-10.141,-20.642 -3.642,-49.341 13.319,-75.311c24.729,-37.863 79.699,-89.371 89.851,-101.312c7.131,-8.388 5.474,-16.111 4.981,-17.842c-1.142,-4.002 -3.606,-8.092 -9.12,-10.641c-1.204,-0.556 -6.79,-2.271 -15.749,-0.486c-18.115,3.608 -78.69,18.977 -127.174,11.652c-26.254,-3.966 -49.183,-14.711 -53.539,-42.907c-1.484,-9.604 3.736,-18.789 11.337,-27.101c14.671,-16.043 38.978,-28.35 61.99,-32.061c47.731,-7.697 102.592,24.503 113.583,30.475c11.553,6.277 20.064,-0.215 20.647,-0.692c1.878,-1.535 10.059,-9.153 4.11,-21.186c-2.294,-4.64 -17.24,-26.559 -26.926,-49.546c-8.152,-19.347 -25.441,-55.947 -30.412,-90.367c-2.466,-17.078 -2.247,-33.622 6.258,-45.865c5.177,-7.452 13.578,-12.842 25.749,-15.967c9.32,-2.394 17.702,0.009 25.262,5.143c9.835,6.679 18.331,17.416 25.928,29.811c25.761,42.032 40.084,102.833 44.089,120.053c1.296,5.572 2.545,8.657 2.715,8.976c4.824,9.019 12.437,8.949 15.507,8.802c4.183,-0.2 8.298,-1.719 11.764,-5.692c1.251,-1.434 3.304,-4.035 3.951,-8.661c5.683,-40.601 31.114,-108.928 66.816,-150.462c19.94,-23.196 42.773,-38.705 67.942,-28.446c17.616,7.18 18.724,25.435 15.723,45.02c-6.048,39.467 -32.03,85.648 -43.243,102.869c-14.049,21.576 -42.684,51.395 -48.072,57.159c-1.942,2.077 -2.825,3.475 -2.961,3.698c-6.101,9.976 -0.396,17.158 1.292,19.231c2.729,3.351 6.638,6.001 12.539,6.137c8.176,0.189 21.559,-4.526 37.79,-13.638c29.278,-16.435 72.203,-46.937 113.648,-65.298c17.793,-7.884 35.205,-13.557 50.894,-13.972c12.49,-0.33 23.697,2.963 32.153,12.617c9.663,11.032 9.546,24.676 3.813,38.412c-11.262,26.984 -41.835,53.901 -78.954,71.502c-55.271,26.207 -125.89,23.141 -138.504,22.476Z" style="fill:#7e4021;"/><path d="M1098.94,2235.96c-132.18,-3.739 -127.324,-203.363 6.203,-197.959c139.605,5.649 125.109,201.673 -6.203,197.959Z" style="fill:#ffce7b;"/><path d="M1098.47,2252.62c107.063,3.028 147.211,-108.086 106.036,-177.197c-17.637,-29.603 -49.932,-52.102 -98.688,-54.075c-156,-6.313 -161.774,226.903 -7.348,231.272l0,-0Zm0.942,-33.32c-109.934,-3.11 -105.997,-169.14 5.058,-164.646c35.009,1.417 58.736,16.574 71.4,37.83c29.526,49.559 0.317,128.988 -76.457,126.816l-0.001,-0Z" style="fill:#7e4021;"/><path d="M3163.58,2880.02c0.21,-0.547 0.392,-1.11 0.545,-1.689c2.352,-8.893 -2.959,-18.022 -11.852,-20.374c-3.623,-0.958 -16.387,-2.231 -20.595,12.007c-1.207,4.083 -3.251,25.692 -3.622,27.761c-3.479,19.385 -9.212,38.578 -15.553,57.195c-19.976,58.646 -44.394,113.754 -81.721,163.523c-5.519,7.359 -4.025,17.814 3.334,23.333c7.358,5.52 17.814,4.026 23.333,-3.333c39.463,-52.617 65.488,-110.773 86.607,-172.775c6.878,-20.193 13.035,-41.028 16.809,-62.055c0.3,-1.669 1.627,-16.94 2.715,-23.593Zm-8.721,9.24c-3.367,1.523 -7.259,1.941 -11.107,0.923c3.619,0.957 7.358,0.845 11.107,-0.923Zm0.298,-0.139l-0.094,0.046l0.047,-0.022l0.047,-0.024Z" style="fill:#7e4021;"/><path d="M2973.51,3175.19c-1.176,0.824 -2.438,1.75 -2.969,2.267c-23.684,23.108 -54.435,39.854 -81.98,57.784c-7.709,5.018 -9.894,15.351 -4.875,23.061c5.018,7.709 15.351,9.894 23.06,4.875c29.334,-19.094 61.852,-37.252 87.073,-61.861c-0.357,0.349 -1.532,1.283 -1.532,1.283c-0,-0 7.735,-6.975 8.295,-8.063c2.194,-4.27 2.165,-8.16 1.444,-11.351c-0.976,-4.317 -3.343,-8.429 -8.627,-11.166c-1.555,-0.805 -4.423,-2.197 -9.18,-1.842c-4.228,0.316 -7.971,2.187 -10.709,5.013Zm4.707,26.613c1.743,0.933 4.187,1.759 7.571,1.657c-2.699,0.056 -5.276,-0.542 -7.571,-1.657Z" style="fill:#7e4021;"/><path d="M666.999,2923.49c-10.428,7.945 -54.783,-15.428 -59.507,-20.115c-126.356,-125.376 -175.478,-317.452 -234.561,-479.586c-74.105,-203.356 -131.732,-439.423 -319.828,-565.992c-19.063,-12.828 -40.193,-22.657 -35.225,-48.487c6.871,-35.732 53.217,-55.42 81.537,-70.037c188.82,-97.456 214.627,-24.173 314.232,90.55c53.328,61.423 110.039,117.961 170.43,172.399c43.592,39.294 166.714,95.619 191.358,146.496c76.755,158.462 58.741,306.989 18.1,456.991c-24.396,90.045 -86.177,287.031 -126.536,317.781Z" style="fill:#fff;"/><path d="M677.099,2936.75c13.388,-10.2 29.708,-36.439 45.604,-71.569c33.879,-74.876 69.671,-191.449 86.919,-255.11c41.677,-153.826 59.524,-306.114 -19.188,-468.615c-10.782,-22.26 -38.202,-46.095 -70.992,-68.688c-44.325,-30.541 -98.424,-59.683 -124.206,-82.923c-59.884,-53.98 -116.123,-110.038 -169.003,-170.945c-30.139,-34.713 -53.605,-65.641 -76.794,-89.309c-25.61,-26.139 -51.215,-43.787 -83.395,-49.951c-40.985,-7.852 -93.911,3.349 -174.274,44.826c-17.929,9.254 -42.6,20.615 -61.12,36.223c-14.731,12.415 -25.678,27.481 -29.139,45.476c-4.391,22.833 4.547,37.379 18.876,49.284c6.891,5.726 15.308,10.725 23.412,16.178c91.484,61.56 150.989,149.946 196.885,247.471c46.968,99.804 79.703,209.182 116.587,310.4c59.883,164.328 110.416,358.638 238.481,485.71c3.908,3.878 30.466,19.201 50.454,24.45c13.584,3.567 25.032,1.559 30.893,-2.908Zm-17.773,-28.587c-2.997,-0.652 -10.112,-2.303 -14.979,-4.223c-10.371,-4.092 -24.122,-12.036 -25.647,-12.924c-124.249,-123.68 -171.908,-313.214 -230.11,-472.931c-75.267,-206.546 -135.135,-445.558 -326.182,-574.113c-7.147,-4.809 -14.642,-9.112 -20.719,-14.161c-5.126,-4.259 -9.015,-9.182 -7.445,-17.351c2.644,-13.744 13.634,-23.812 25.932,-32.44c15.34,-10.764 33.294,-18.92 46.883,-25.934c70.698,-36.489 116.657,-48.615 152.714,-41.708c25.601,4.904 45.482,19.747 65.856,40.541c22.795,23.266 45.808,53.713 75.433,87.834c53.776,61.938 110.958,118.957 171.856,173.851c26.529,23.913 82.002,54.187 127.611,85.613c27.169,18.719 50.972,37.326 59.906,55.77c74.798,154.423 56.619,299.188 17.014,445.367c-16.907,62.401 -51.907,176.693 -85.115,250.086c-11.903,26.305 -22.853,47.22 -33.008,56.723Z" style="fill:#7e4021;"/><path d="M186.217,1788.53c-77.582,24.444 -173.307,46.612 -168.339,20.782c6.871,-35.732 53.217,-55.42 81.537,-70.037c75.979,-39.215 125.564,-50.785 164.183,-43.133c57.355,11.364 4.345,66.638 -77.381,92.388Z" style="fill:#ffe6d8;"/><path d="M191.226,1804.42c54.39,-17.137 96.374,-47.524 108.269,-70.646c6.764,-13.149 6.237,-25.225 0.002,-35.061c-5.042,-7.955 -15.106,-15.448 -32.66,-18.926c-41.104,-8.144 -94.199,2.934 -175.067,44.672c-17.929,9.254 -42.6,20.615 -61.12,36.223c-14.731,12.415 -25.678,27.481 -29.139,45.476c-1.25,6.502 -0.09,11.983 2.523,16.625c3.038,5.396 8.609,10.214 17.548,12.689c8.753,2.424 22.791,2.651 40.159,0.486c34.742,-4.329 85.033,-17.532 129.485,-31.538Zm79.424,-88.307c-0.854,1.79 -3.31,6.654 -6.08,9.79c-14.909,16.884 -45.983,34.948 -83.361,46.725c-45.351,14.289 -97.037,27.896 -130.106,30.966c-4.687,0.435 -9.847,0.347 -13.896,0.14c4.679,-9.471 13.431,-17.03 22.969,-23.721c15.34,-10.764 33.294,-18.92 46.883,-25.934c71.095,-36.694 117.163,-48.754 153.3,-41.594c3.512,0.696 6.439,1.559 8.775,2.702c0.479,0.234 1.061,0.612 1.516,0.926Z" style="fill:#7e4021;"/><path d="M1094.61,1772.94c-1.707,-0.891 -3.597,-1.498 -5.616,-1.752c-9.127,-1.148 -17.469,5.33 -18.617,14.456c-0.404,3.215 -0.434,13.831 11.797,18.386c6.878,2.561 42.243,8.294 44.231,8.657c101.327,18.467 202.585,36.955 304.532,51.784c7.301,1.062 14.606,2.104 21.921,3.061c392.265,51.316 817.05,33.449 1204.43,-46.896c9.007,-1.868 14.803,-10.697 12.935,-19.704c-1.868,-9.007 -10.698,-14.803 -19.704,-12.935c-383.811,79.605 -804.683,97.327 -1193.34,46.483c-7.157,-0.936 -14.304,-1.956 -21.447,-2.995c-101.553,-14.771 -202.419,-33.196 -303.353,-51.591l-37.772,-6.954Zm8.924,16.027l-0.084,0.838c0.035,-0.278 0.064,-0.557 0.084,-0.838Zm-1.312,-7.824c1.033,2.386 1.516,5.042 1.314,7.788c0.197,-2.49 -0.117,-5.121 -1.314,-7.788Z" style="fill:#7e4021;"/><path d="M2774.8,1794.37c20.136,0.491 41.581,-9.252 59.986,-16.37c8.579,-3.318 12.851,-12.977 9.533,-21.557c-3.318,-8.579 -12.978,-12.851 -21.557,-9.533c-14.57,5.635 -31.209,14.525 -47.15,14.137c-9.196,-0.225 -16.844,7.059 -17.068,16.255c-0.224,9.196 7.06,16.844 16.256,17.068Z" style="fill:#7e4021;"/><path d="M1203.14,1679.89c-10.815,-6.862 16.64,-52.506 21.033,-59.671c97.504,-159.024 329.123,-133.1 478.007,-209.45c67.192,-34.457 -88.378,-91.119 -55.101,-190.32c55.755,-166.214 403.937,-184.205 508.597,-93.612c175.484,151.898 -58.92,242.424 -15.119,299.449c66.744,86.892 447.148,29.917 524.096,216.824c4.004,9.726 10.566,29.779 7.03,40.386c-21.486,64.46 -296.16,78.066 -349.491,82.65c-208.66,17.935 -408.93,11.489 -617.396,-0.816c-156.168,-9.218 -355.007,-23.114 -501.656,-85.44Z" style="fill:#ffe6d8;"/><path d="M1194.21,1693.97c0.768,0.487 1.575,0.91 2.411,1.266c148.286,63.021 349.284,77.417 507.194,86.739c209.279,12.353 410.331,18.788 619.805,0.783c37.769,-3.246 185.244,-11.121 277.799,-37.829c25.602,-7.388 47.204,-16.342 61.978,-26.697c12.469,-8.739 20.546,-18.802 24.099,-29.459c1.691,-5.075 2.239,-11.482 1.577,-18.417c-1.128,-11.813 -5.744,-25.658 -9.008,-33.584c-20.834,-50.606 -61.826,-85.103 -113.298,-109.254c-48.772,-22.885 -107.074,-36.479 -165.087,-46.731c-67.318,-11.897 -134.191,-19.267 -184.062,-32.621c-29.162,-7.808 -52.224,-16.9 -63.842,-32.026c-4.641,-6.042 -1.301,-12.599 2.932,-20.178c7.653,-13.702 20.794,-28.823 33.945,-45.731c27.364,-35.182 53.864,-77.25 46.543,-126.682c-4.839,-32.673 -24.39,-69.297 -70.611,-109.306c-26.942,-23.321 -68.743,-40.373 -117.827,-49.689c-70.888,-13.454 -157.153,-11.123 -232.972,8.944c-87.494,23.157 -160.588,70.35 -184.508,141.658c-11.702,34.887 -3.874,65.335 11.244,91.89c13.376,23.495 32.729,43.683 46.781,60.944c4.618,5.673 8.598,10.921 11.183,15.879c1.161,2.226 2.346,4.124 2.05,6.056c-0.104,0.683 -0.753,1.122 -1.408,1.729c-1.636,1.515 -3.83,2.895 -6.552,4.292c-73.428,37.655 -167.344,49.788 -254.839,72.416c-92.976,24.046 -178.671,59.81 -229.772,143.152c-3.969,6.473 -23.942,41.054 -25.786,58.477c-1.248,11.8 3.414,19.779 10.031,23.979Zm25.336,-25.328c4.906,-10.727 16.442,-35.799 18.836,-39.704c46.405,-75.684 125.269,-106.468 209.701,-128.304c89.912,-23.253 186.247,-36.332 261.703,-75.028c17.277,-8.859 24.042,-19.814 25.699,-30.635c2.08,-13.576 -5.762,-30.129 -20.331,-48.025c-13.044,-16.024 -31.248,-34.581 -43.664,-56.391c-10.675,-18.751 -16.872,-40.165 -8.609,-64.798c20.686,-61.668 85.767,-100.009 161.433,-120.036c71.022,-18.797 151.826,-21.021 218.228,-8.418c42.443,8.055 78.931,21.978 102.227,42.143c43.985,38.072 60.374,71.148 60.347,101.154c-0.02,21.969 -8.741,41.763 -19.934,59.828c-12.502,20.178 -28.181,38.267 -40.724,54.589c-10.401,13.536 -18.74,26.146 -22.85,37.654c-5.676,15.895 -4.551,30.385 5.733,43.774c15.082,19.635 43.8,33.785 81.655,43.921c50.642,13.559 118.526,21.165 186.883,33.246c55.05,9.728 110.448,22.367 156.729,44.082c43.581,20.449 78.994,48.92 96.634,91.768c2.05,4.98 4.922,13.122 6.211,20.803c0.503,2.992 1.125,5.851 0.42,7.967c-2.17,6.511 -8.921,11.491 -17.686,16.556c-12.032,6.954 -27.887,12.885 -46.01,18.114c-90.412,26.09 -234.516,33.474 -271.411,36.645c-207.846,17.866 -407.335,11.409 -614.987,-0.848c-150.952,-8.91 -342.276,-21.909 -486.233,-80.057Z" style="fill:#7e4021;"/><path d="M1705.79,1206.45c-12.782,14.86 -15.425,28.301 -13.372,39.605c2.054,11.315 9.354,21.421 20.318,29.5c24.098,17.758 67.648,25.742 72.157,26.442c67.056,10.405 136.147,10.774 203.811,8.196c69.231,-2.637 113.988,-16.434 178.358,-44.369c8.438,-3.662 12.316,-13.485 8.654,-21.924c-3.662,-8.438 -13.485,-12.316 -21.924,-8.654c-60.06,26.064 -101.761,39.177 -166.357,41.638c-65.544,2.497 -132.475,2.253 -197.431,-7.826c-2.473,-0.384 -19.271,-3.313 -36.073,-9.544c-8.001,-2.968 -16.065,-6.642 -22.186,-11.37c-3.26,-2.518 -6.335,-4.96 -6.591,-8.524c-0.25,-3.48 2.088,-6.993 5.907,-11.433c5.999,-6.974 5.207,-17.506 -1.767,-23.504c-6.974,-5.998 -17.505,-5.207 -23.504,1.767Z" style="fill:#7e4021;"/><path d="M2781.51,1581.87c13.506,-1.507 27.712,5.075 38.325,14.291c12.817,11.13 22.843,27.204 9.259,37.77c-46.627,36.265 -141.578,48.941 -199.704,63.472c-8.924,2.231 -14.358,11.288 -12.127,20.212c2.231,8.924 11.287,14.357 20.211,12.126c61.909,-15.477 162.424,-30.874 212.085,-69.499c22.179,-17.25 23.842,-41.186 12.678,-63.401c-14.014,-27.887 -50.992,-51.828 -84.422,-48.099c-9.142,1.019 -15.736,9.269 -14.716,18.411c1.019,9.142 9.269,15.736 18.411,14.717Z" style="fill:#7e4021;"/><path d="M1620.4,1430.05c-22.076,21.863 -29.247,41.61 -28.304,58.217c1.004,17.679 11.159,33.282 27.87,46.021c39.237,29.909 118.075,44.233 143.989,48.552c9.073,1.512 17.667,-4.626 19.18,-13.7c1.512,-9.073 -4.627,-17.667 -13.7,-19.18c-19.626,-3.271 -72.843,-12.258 -110.656,-30.952c-9.992,-4.94 -18.857,-10.501 -25.251,-17.038c-4.547,-4.649 -7.817,-9.686 -8.152,-15.593c-0.547,-9.623 5.687,-19.974 18.48,-32.643c6.535,-6.473 6.587,-17.034 0.114,-23.57c-6.473,-6.536 -17.034,-6.587 -23.57,-0.114Z" style="fill:#7e4021;"/><path d="M1042.18,1608.39c1.022,-1.14 2.967,-3.186 4.809,-4.518c10.143,-7.336 27.797,-14.64 54.761,-22.482c8.833,-2.568 13.919,-11.825 11.35,-20.657c-2.569,-8.833 -11.825,-13.919 -20.658,-11.35c-34.527,10.041 -55.976,20.203 -67.716,29.548c-10.997,8.754 -15.434,17.938 -16.319,26.23c-1.297,12.149 5.145,25.143 20.515,36.133c39.359,28.144 149.618,50.355 183.099,61.349c8.74,2.869 18.165,-1.896 21.035,-10.636c2.869,-8.739 -1.896,-18.165 -10.636,-21.034c-26.913,-8.837 -105.449,-24.595 -152.839,-45.351c-8.374,-3.667 -15.681,-7.445 -21.271,-11.442c-2.326,-1.664 -4.907,-4.422 -6.13,-5.79Z" style="fill:#7e4021;"/></g></svg>