<?xml version="1.0" encoding="UTF-8" standalone="no"?><!DOCTYPE svg PUBLIC "-//W3C//DTD SVG 1.1//EN" "http://www.w3.org/Graphics/SVG/1.1/DTD/svg11.dtd"><svg width="100%" height="100%" viewBox="0 0 2959 3766" version="1.1" xmlns="http://www.w3.org/2000/svg" xmlns:xlink="http://www.w3.org/1999/xlink" xml:space="preserve" xmlns:serif="http://www.serif.com/" style="fill-rule:evenodd;clip-rule:evenodd;stroke-linejoin:round;stroke-miterlimit:2;"><g id="Latte"><path d="M116.904,227.832c-40.749,62.909 -67.785,159.426 -85.121,266.667c-25.512,157.814 -30.516,339.024 -30.811,467.045c-1.406,610.971 192.625,1934.94 414.612,2416.51c40.882,88.687 110.617,207.348 212.608,276.881c109.823,74.871 306.993,113.719 505.459,110.462c198.595,-3.26 398.1,-48.708 512.52,-139.274c110.504,-87.467 178.993,-248.001 237.986,-374.571c213.094,-457.193 327.584,-2029.92 309.668,-2699.29c-3.165,-118.263 -10.528,-208.582 -22.014,-260.053c-5.775,-25.882 -13.401,-43.016 -21.024,-51.14c-43.743,-46.625 -129.525,-82.078 -234.082,-107.883c-236.161,-58.284 -569.16,-70.419 -703.148,-76.297c-204.535,-8.973 -610.662,5.796 -867.374,63.963c-67.333,15.256 -124.544,33.575 -165.634,55.039c-29.79,15.561 -51.443,33.103 -63.645,51.941l-0,-0Zm27.977,18.121c9.686,-14.954 27.453,-28.164 51.102,-40.517c39.067,-20.407 93.547,-37.569 157.566,-52.075c254.097,-57.575 656.096,-72.052 858.547,-63.171c132.74,5.824 462.661,17.617 696.622,75.358c96.924,23.921 177.21,55.107 217.76,98.328c5.215,5.558 8.849,17.887 12.8,35.592c11.204,50.207 18.138,138.328 21.226,253.686c17.815,665.612 -94.66,2229.68 -306.56,2684.32c-56.962,122.212 -121.762,278.061 -228.461,362.516c-109.827,86.93 -301.756,128.953 -492.379,132.082c-190.752,3.131 -380.581,-32.714 -486.135,-104.675c-96.798,-65.992 -162.312,-179.122 -201.113,-263.294c-220.688,-478.752 -412.948,-1795.08 -411.551,-2402.48c0.292,-126.582 5.159,-305.761 30.384,-461.802c16.488,-101.995 41.437,-194.033 80.192,-253.865l-0,0Z" style="fill:#7e4021;"/><path d="M303.209,350.292c-82.18,133.854 -93.249,447.136 -93.653,632.238c-1.159,531.468 165.007,1795.36 348.038,2214.26c32.945,75.403 100.288,198.165 201.26,251.053c202.282,105.954 598.33,124.229 783.765,-30.623c89.805,-74.995 159.718,-196.449 237.976,-467.948c155.447,-539.291 271.309,-2485.94 182.869,-2585.39c-116.174,-130.637 -608.028,-148.813 -765.574,-156.105c-240.391,-11.126 -819.266,19.678 -894.681,142.513Z" style="fill:#ffe6d8;"/><path d="M289.005,341.572c-33.785,55.029 -56.248,139.452 -70.622,233.259c-21.106,137.749 -25.25,295.919 -25.493,407.663c-1.163,533.091 165.842,1800.79 349.431,2220.97c34.075,77.988 104.366,204.443 208.799,259.144c123.743,64.815 318.556,97.746 495.484,79.381c119.238,-12.378 230.249,-48.135 306.698,-111.976c91.465,-76.381 163.603,-199.605 243.308,-476.124c124.621,-432.349 224.052,-1767.3 213.383,-2335.02c-1.889,-100.548 -7.304,-177.308 -16.465,-221.238c-4.706,-22.569 -11.158,-37.567 -17.609,-44.821c-36.472,-41.012 -107.901,-72.307 -195.076,-95.005c-195.535,-50.913 -471.244,-61.539 -582.183,-66.674c-169.37,-7.839 -505.673,5.079 -718.251,55.896c-56.023,13.392 -103.613,29.497 -137.801,48.338c-25.11,13.838 -43.317,29.455 -53.603,46.208Zm28.407,17.44c7.815,-12.729 22.205,-23.94 41.285,-34.455c32.096,-17.688 76.867,-32.538 129.462,-45.111c209.824,-50.159 541.783,-62.756 708.96,-55.018c109.626,5.074 382.103,15.323 575.325,65.633c79.437,20.684 145.332,47.527 178.566,84.899c4.165,4.683 6.849,14.904 9.887,29.474c8.904,42.701 13.932,117.328 15.769,215.06c10.623,565.315 -87.992,1894.64 -212.086,2325.16c-76.811,266.48 -144.499,386.163 -232.644,459.771c-71.899,60.041 -176.632,92.765 -288.774,104.405c-170.142,17.662 -357.578,-13.423 -476.575,-75.753c-97.512,-51.075 -161.904,-170.143 -193.721,-242.962c-182.472,-417.626 -347.799,-1677.7 -346.643,-2207.55c0.241,-110.378 4.261,-266.621 25.109,-402.687c13.597,-88.736 34.121,-168.813 66.08,-220.867Z" style="fill:#7e4021;"/><path d="M303.209,350.292c-82.18,133.854 -93.249,447.136 -93.653,632.238c129.231,46.882 500.313,133.522 886.544,137.043c355.62,3.242 725.957,-70.934 890.225,-155.824c30.299,-309.911 5.909,-567.513 -22.861,-599.865c-42.231,-47.489 -61.983,-170.954 -150.306,-234.03c-61.642,-44.021 -183.153,-34.196 -257.193,-51.82c-111.711,-26.592 -232.32,-64.721 -292.51,-60.068c-98.956,7.65 -137.52,25.277 -234.173,11.485c-98.758,-14.091 -188.305,38.74 -279.489,32.363c-84.669,-5.921 -170.884,86.064 -241.546,100.734c-108.019,22.425 -179.547,146.224 -205.038,187.744Z" style="fill:#fff;"/><path d="M289.005,341.572c-33.785,55.029 -56.248,139.452 -70.622,233.259c-21.106,137.749 -25.25,295.919 -25.493,407.663c-0.016,7.026 4.377,13.307 10.982,15.704c130.041,47.175 503.426,134.498 892.076,138.041c358.771,3.27 732.305,-72.041 898.028,-157.683c5.022,-2.595 8.386,-7.559 8.936,-13.185c21.373,-218.611 15.651,-411.393 0.405,-518.57c-4.059,-28.528 -8.837,-51.184 -13.906,-66.942c-4.19,-13.029 -9.026,-22.028 -13.492,-27.05c-20.329,-22.86 -34.808,-64.233 -55.273,-107.254c-22.41,-47.112 -51.244,-96.014 -97.802,-129.264c-26.548,-18.958 -63.257,-29.09 -103.034,-35.099c-54.943,-8.299 -115.942,-8.888 -159.986,-19.372c-113.626,-27.048 -236.431,-65.204 -297.654,-60.471c-97.424,7.531 -135.377,25.181 -230.533,11.603c-51.484,-7.346 -100.594,2.445 -148.689,13.548c-44.488,10.271 -88.022,21.763 -131.992,18.688c-45.463,-3.179 -91.639,19.034 -135.636,44.904c-39.261,23.085 -76.604,49.108 -110.461,56.137c-46.303,9.613 -86.51,36.326 -119.645,68.107c-47.648,45.7 -80.496,101.643 -96.209,127.236Zm28.407,17.44c14.876,-24.23 45.765,-77.353 90.876,-120.62c28.704,-27.531 63.234,-51.198 103.346,-59.525c36.807,-7.641 77.9,-34.945 120.581,-60.041c37.945,-22.311 77.206,-43.128 116.415,-40.386c47.214,3.302 94.045,-8.432 141.816,-19.461c44.164,-10.195 89.206,-19.774 136.482,-13.028c98.149,14.005 137.324,-3.6 237.811,-11.368c59.159,-4.573 177.571,33.528 287.366,59.664c37.586,8.947 87.208,11.034 135.269,16.363c44.266,4.909 87.277,12.225 116.098,32.808c50.47,36.043 76.893,93.165 99.073,142.565c16.34,36.393 30.687,68.986 48.465,88.977c2.44,2.743 4.38,7.989 6.669,15.106c4.65,14.454 8.914,35.261 12.637,61.43c14.8,104.044 20.311,290.018 0.297,501.52c-166.625,82.407 -527.593,153.052 -874.361,149.891c-373.359,-3.404 -732.492,-84.835 -869.989,-132.153c0.504,-109.531 4.954,-259.594 25.069,-390.875c13.597,-88.736 34.121,-168.813 66.08,-220.867Z" style="fill:#7e4021;"/><path d="M1866.4,2492.98c-415.408,5.795 -1292.35,52.127 -1491.3,5.185c54.143,292.612 117.243,549.303 182.487,698.627c32.945,75.403 100.288,198.165 201.26,251.053c202.282,105.954 598.33,124.229 783.765,-30.623c89.805,-74.995 159.718,-196.449 237.976,-467.948c30.548,-105.98 59.568,-266.312 85.808,-456.294Z" style="fill:#9d5e3e;"/><path d="M1882.91,2495.26c0.665,-4.813 -0.804,-9.676 -4.021,-13.317c-3.217,-3.641 -7.863,-5.696 -12.721,-5.628c-414.278,5.779 -1288.83,52.443 -1487.24,5.629c-5.481,-1.293 -11.244,0.269 -15.322,4.153c-4.078,3.883 -5.919,9.564 -4.894,15.101c54.428,294.154 118.015,552.157 183.602,702.267c34.075,77.988 104.366,204.443 208.799,259.144c123.743,64.815 318.556,97.746 495.484,79.381c119.238,-12.378 230.249,-48.135 306.698,-111.976c91.465,-76.381 163.603,-199.605 243.308,-476.124c30.705,-106.525 59.928,-267.671 86.303,-458.63Zm-35.701,14.679c-25.392,180.587 -53.277,332.881 -82.632,434.719c-76.811,266.48 -144.499,386.163 -232.644,459.771c-71.899,60.041 -176.632,92.765 -288.774,104.405c-170.142,17.662 -357.578,-13.423 -476.575,-75.753c-97.512,-51.075 -161.904,-170.143 -193.721,-242.962c-63.104,-144.427 -124.047,-389.867 -176.88,-670.911c235.031,38.302 1043.21,-2.625 1451.23,-9.269l-0,0Z" style="fill:#7e4021;"/><ellipse cx="1118.78" cy="2492.01" rx="734.01" ry="160.704" style="fill:#c48464;"/><path d="M1118.78,2314.64c-215.171,-0 -408.988,20.251 -544.137,52.419c-84.794,20.183 -147.011,45.588 -178.591,73.011c-18.931,16.439 -27.948,34.221 -27.948,51.94c-0,17.719 9.017,35.501 27.948,51.94c31.58,27.423 93.797,52.828 178.591,73.011c135.149,32.168 328.966,52.419 544.137,52.419c215.172,0 408.988,-20.251 544.137,-52.419c84.794,-20.183 147.012,-45.588 178.591,-73.011c18.931,-16.439 27.948,-34.221 27.948,-51.94c0,-17.719 -9.017,-35.501 -27.948,-51.94c-31.579,-27.423 -93.797,-52.828 -178.591,-73.011c-135.149,-32.168 -328.965,-52.419 -544.137,-52.419Zm0,33.333c174.919,0 335.54,13.479 461.26,35.99c105.706,18.927 186.349,43.837 228.787,72.974c16.668,11.444 27.296,22.425 27.296,35.073c0,12.648 -10.628,23.629 -27.297,35.073c-42.437,29.137 -123.08,54.047 -228.786,72.974c-125.72,22.511 -286.341,35.99 -461.26,35.99c-174.918,-0 -335.54,-13.479 -461.26,-35.99c-105.706,-18.927 -186.349,-43.837 -228.787,-72.974c-16.668,-11.444 -27.296,-22.425 -27.296,-35.073c0,-12.648 10.628,-23.629 27.297,-35.073c42.437,-29.137 123.08,-54.047 228.786,-72.974c125.72,-22.511 286.342,-35.99 461.26,-35.99Z" style="fill:#7e4021;"/><path d="M1972.95,471.73c-0,15.706 -12.809,29.642 -33.508,43.854c-50.294,34.531 -145.835,64.149 -271.11,86.58c-148.478,26.586 -338.177,42.511 -544.761,42.511c-206.583,-0 -396.282,-15.925 -544.76,-42.511c-125.276,-22.431 -220.817,-52.049 -271.111,-86.58c-20.699,-14.212 -33.507,-28.148 -33.507,-43.854c-0,-9.198 -7.468,-16.667 -16.667,-16.667c-9.198,0 -16.667,7.469 -16.667,16.667c0,20.161 10.404,40.315 31.944,59.02c37.027,32.153 110.023,61.827 209.444,85.491c159.288,37.913 387.722,61.767 641.324,61.767c253.602,0 482.036,-23.854 641.324,-61.767c99.421,-23.664 172.418,-53.338 209.444,-85.491c21.54,-18.705 31.944,-38.859 31.944,-59.02c0,-9.198 -7.468,-16.667 -16.666,-16.667c-9.199,0 -16.667,7.469 -16.667,16.667Z" style="fill:#7e4021;"/><path d="M2137.55,1475.88c0.392,5.644 3.62,10.704 8.573,13.437c4.954,2.734 10.956,2.768 15.94,0.091c39.015,-20.957 156.867,-88.221 271.573,-112.005c71.831,-14.894 142.618,-13.409 188.898,32.734c26.619,26.541 34.737,73.143 27.414,128.467c-11.836,89.421 -65.136,200.615 -159.148,295.14c-133.693,134.423 -321.794,212.198 -392.638,230.925c-2.335,0.617 -9.818,3.226 -12.846,13.817c-3.728,13.039 -11.27,78.614 -17.973,148.266c-4.969,51.63 -14.508,108.084 -16.396,128.764c-0.554,6.065 -0.337,10.247 0.034,12.149c0.8,4.111 2.58,6.695 3.958,8.297c3.269,3.798 7.183,5.441 11.245,5.825c14.39,1.361 54.125,-6.819 108.999,-26.969c121.247,-44.524 321.661,-146.291 483.694,-313.598c209.474,-216.294 308.158,-458.255 298.673,-647.483c-6.516,-130.024 -63.52,-235.775 -169.695,-294.17c-295.287,-162.406 -622.664,27.792 -622.664,27.792c-4.797,2.796 -7.888,7.796 -8.242,13.337c0,0 -20.387,320.968 -19.399,335.184Zm-51.426,871.151c3.546,-25.148 10.432,-75.864 14.399,-117.085c5.305,-55.124 13.318,-116.132 15.968,-135.803c79.906,-23.503 264.904,-103.127 397.943,-236.893c99.986,-100.531 155.971,-219.169 168.559,-314.272c8.962,-67.7 -4.35,-123.968 -36.924,-156.446c-53.867,-53.708 -135.593,-59.104 -219.2,-41.768c-99.337,20.597 -201.067,72.509 -255.07,101.488l-0,-0c3.532,-70.108 15.094,-251.579 17.831,-294.318c49.326,-26.376 328.247,-162.811 582.161,-23.16c96.027,52.814 146.574,149.036 152.468,266.631c9.132,182.2 -87.634,414.366 -289.327,622.625c-157.857,162.995 -353.117,262.121 -471.239,305.497c-33.455,12.285 -60.236,20.251 -77.569,23.504Z" style="fill:#7e4021;"/><path d="M783.98,411.902c271.508,19.46 624.148,21.366 894.349,-10.845c9.134,-1.089 15.666,-9.389 14.577,-18.523c-1.089,-9.134 -9.389,-15.665 -18.522,-14.576c-268.29,31.983 -618.434,30.018 -888.021,10.696c-9.175,-0.658 -17.158,6.257 -17.815,15.432c-0.658,9.175 6.257,17.158 15.432,17.816Z" style="fill:#7e4021;"/><path d="M505.868,383.088c37.563,7.083 126.222,14.774 158.026,16.169c9.189,0.403 16.977,-6.731 17.38,-15.92c0.403,-9.19 -6.73,-16.978 -15.92,-17.381c-30.853,-1.353 -116.87,-8.753 -153.311,-15.624c-9.039,-1.704 -17.761,4.251 -19.466,13.29c-1.704,9.04 4.251,17.762 13.291,19.466Z" style="fill:#7e4021;"/><path d="M1838.18,376.413c25.116,-3.514 108.14,-12.967 155.626,-36.786c24.412,-12.246 39.786,-29.069 41.844,-48.136c1.421,-13.16 -2.941,-28.522 -17.712,-45.4c-6.058,-6.922 -16.596,-7.624 -23.518,-1.566c-6.922,6.058 -7.624,16.596 -1.566,23.518c6.696,7.651 10.3,13.904 9.656,19.87c-0.389,3.595 -2.545,6.643 -5.404,9.559c-4.564,4.656 -10.896,8.673 -18.246,12.36c-44.283,22.212 -121.878,30.292 -145.299,33.57c-9.11,1.274 -15.471,9.705 -14.196,18.815c1.274,9.11 9.705,15.471 18.815,14.196Z" style="fill:#7e4021;"/></g></svg>