<?xml version="1.0" encoding="UTF-8" standalone="no"?><!DOCTYPE svg PUBLIC "-//W3C//DTD SVG 1.1//EN" "http://www.w3.org/Graphics/SVG/1.1/DTD/svg11.dtd"><svg width="100%" height="100%" viewBox="0 0 1813 2135" version="1.1" xmlns="http://www.w3.org/2000/svg" xmlns:xlink="http://www.w3.org/1999/xlink" xml:space="preserve" xmlns:serif="http://www.serif.com/" style="fill-rule:evenodd;clip-rule:evenodd;stroke-linejoin:round;stroke-miterlimit:2;"><g id="Lungo"><path d="M94.648,134.98c-33.251,48.832 -55.402,123.71 -69.549,206.954c-20.688,121.742 -24.759,261.531 -24.997,360.289c-1.142,471.897 40.423,747.722 210.833,1124.28c36.927,81.597 125.331,199.88 195.391,235.689c118.293,60.461 402.231,85.67 650.276,65.534c166.871,-13.547 317.354,-47.99 391.639,-103.923c89.882,-67.676 145.707,-191.774 193.69,-289.705c151.474,-309.144 186.619,-916.719 163.831,-1283.79c-6.893,-111.038 -19.137,-200.223 -34.815,-252.919c-7.671,-25.782 -16.759,-43.589 -25.786,-52.741c-35.682,-36.179 -105.606,-63.875 -190.896,-83.898c-191.285,-44.908 -461.005,-54.273 -569.533,-58.802c-165.68,-6.914 -494.657,4.476 -702.603,49.296c-54.754,11.802 -101.274,25.995 -134.688,42.598c-24.737,12.292 -42.66,26.255 -52.793,41.135Zm27.553,18.761c7.582,-11.136 21.561,-20.846 40.073,-30.045c31.457,-15.631 75.33,-28.753 126.878,-39.864c205.454,-44.283 530.496,-55.408 694.19,-48.577c107.337,4.479 374.119,13.534 563.305,57.949c77.771,18.258 142.245,41.865 174.782,74.854c9.154,9.281 16.455,31.101 23.71,62.275c12.196,52.406 21.604,129.423 27.354,222.043c22.488,362.24 -11.013,961.975 -160.495,1267.05c-45.859,93.594 -97.906,213.063 -183.807,277.742c-70.901,53.384 -215.017,84.398 -374.286,97.328c-241.164,19.578 -517.397,-3.208 -632.409,-61.991c-65.033,-33.24 -145.915,-144.008 -180.192,-219.751c-168.305,-371.904 -208.996,-644.388 -207.869,-1110.45c0.235,-97.248 4.154,-234.905 24.526,-354.785c13.228,-77.838 33.148,-148.118 64.24,-193.778Z" style="fill:#7e4021;"/><path d="M891.825,138.625c-199.089,-8.631 -652.765,78.775 -677.644,136.141c-50.59,116.655 -59.188,332.376 -59.478,457.049c-0.96,412.249 49.219,633.026 206.05,885.651c130.261,209.826 397.04,272.854 580.425,267.993c183.385,-4.861 403.344,-90.607 519.886,-297.16c209.536,-371.373 220.616,-1243.04 147.386,-1320.2c-110.113,-116.011 -586.147,-123.822 -716.625,-129.478Z" style="fill:#9d5e3e;"/><path d="M892.547,121.974c-140.699,-6.1 -407.359,35.19 -563.297,80.45c-48.328,14.027 -86.27,28.65 -107.411,42.175c-12.324,7.884 -19.772,16.211 -22.948,23.535c-51.328,118.355 -60.56,337.152 -60.855,463.642c-0.97,416.405 50.145,639.308 208.557,894.481c133.634,215.259 406.892,280.85 595.027,275.862c188.414,-4.994 414.222,-93.412 533.959,-305.63c147.877,-262.089 198.323,-771.223 189.592,-1079.86c-2.646,-93.558 -10.779,-168.856 -23.001,-213.713c-6.112,-22.432 -13.797,-38.032 -21.632,-46.287c-34.659,-36.515 -103.459,-63.749 -187.069,-82.834c-186.979,-42.681 -449.078,-47.84 -540.922,-51.821Zm-1.444,33.302c90.826,3.937 350.041,8.808 534.948,51.016c75.771,17.297 138.901,40.193 170.31,73.285c7.542,7.945 13,26.089 18.289,51.751c9.101,44.167 15.009,108.731 17.201,186.244c8.589,303.625 -39.828,804.704 -185.303,1062.54c-113.345,200.889 -327.455,283.961 -505.811,288.689c-178.637,4.735 -438.937,-55.731 -565.824,-260.123c-155.25,-250.078 -204.494,-468.729 -203.544,-876.821c0.286,-122.857 8.249,-335.502 58.103,-450.457c0.653,-1.505 2.294,-2.774 4.233,-4.361c3.725,-3.052 8.656,-6.123 14.605,-9.288c20.499,-10.908 51.883,-22.182 90.232,-33.312c152.975,-44.4 414.535,-85.144 552.561,-79.16l0,-0Z" style="fill:#7e4021;"/><ellipse cx="915.774" cy="289.171" rx="703.155" ry="153.948" style="fill:#c48464;"/><path d="M915.774,118.556c-206.191,0 -391.918,19.41 -521.427,50.235c-81.375,19.369 -141.074,43.777 -171.38,70.094c-18.322,15.911 -27.015,33.138 -27.015,50.286c-0,17.149 8.693,34.376 27.015,50.286c30.306,26.317 90.005,50.725 171.38,70.094c129.509,30.826 315.236,50.235 521.427,50.235c206.19,0 391.917,-19.409 521.426,-50.235c81.376,-19.369 141.074,-43.777 171.38,-70.094c18.322,-15.91 27.015,-33.137 27.015,-50.286c0,-17.148 -8.693,-34.375 -27.015,-50.286c-30.306,-26.317 -90.004,-50.725 -171.38,-70.094c-129.509,-30.825 -315.236,-50.235 -521.426,-50.235Zm-0,33.334c167.518,-0 321.345,12.907 441.746,34.465c101.134,18.109 178.295,41.919 218.897,69.795c15.727,10.798 25.845,21.088 25.845,33.021c-0,11.934 -10.118,22.224 -25.845,33.022c-40.602,27.876 -117.763,51.686 -218.897,69.794c-120.401,21.558 -274.228,34.466 -441.746,34.466c-167.519,-0 -321.346,-12.908 -441.747,-34.466c-101.134,-18.108 -178.295,-41.918 -218.897,-69.794c-15.727,-10.798 -25.845,-21.089 -25.845,-33.022c0,-11.933 10.118,-22.223 25.846,-33.021c40.601,-27.876 117.762,-51.686 218.896,-69.795c120.401,-21.558 274.228,-34.465 441.747,-34.465Z" style="fill:#7e4021;"/><path d="M636.801,311.198c219.869,14.991 505.439,16.454 724.251,-8.359c9.14,-1.037 15.719,-9.299 14.682,-18.439c-1.036,-9.14 -9.298,-15.719 -18.438,-14.682c-216.991,24.607 -500.187,23.09 -718.227,8.224c-9.178,-0.626 -17.136,6.317 -17.762,15.494c-0.626,9.177 6.317,17.136 15.494,17.762Z" style="fill:#7e4021;"/><path d="M411.45,288.982c30.481,5.467 102.423,11.408 128.23,12.485c9.191,0.383 16.964,-6.767 17.347,-15.957c0.384,-9.191 -6.767,-16.964 -15.957,-17.347c-24.902,-1.039 -94.325,-6.716 -123.735,-11.991c-9.055,-1.624 -17.724,4.409 -19.348,13.463c-1.623,9.054 4.409,17.723 13.463,19.347Z" style="fill:#7e4021;"/><path d="M1490.47,283.861c14.052,-1.871 50.812,-5.851 84.626,-14.259c24.819,-6.172 47.98,-15.034 61.536,-26.359c10.506,-8.777 16.179,-19.21 16.67,-30.626c0.448,-10.417 -3.478,-22.591 -15.568,-35.733c-6.228,-6.77 -16.781,-7.209 -23.55,-0.981c-6.77,6.228 -7.209,16.78 -0.981,23.549c4.346,4.725 7.197,8.277 6.779,11.961c-0.214,1.89 -1.618,3.349 -3.197,4.882c-3.478,3.375 -8.322,6.249 -13.922,8.921c-35.592,16.983 -97.966,23.097 -116.792,25.603c-9.118,1.214 -15.535,9.602 -14.321,18.72c1.213,9.118 9.602,15.536 18.72,14.322Z" style="fill:#7e4021;"/></g></svg>