<?xml version="1.0" encoding="UTF-8" standalone="no"?><!DOCTYPE svg PUBLIC "-//W3C//DTD SVG 1.1//EN" "http://www.w3.org/Graphics/SVG/1.1/DTD/svg11.dtd"><svg width="100%" height="100%" viewBox="0 0 2489 4032" version="1.1" xmlns="http://www.w3.org/2000/svg" xmlns:xlink="http://www.w3.org/1999/xlink" xml:space="preserve" xmlns:serif="http://www.serif.com/" style="fill-rule:evenodd;clip-rule:evenodd;stroke-linejoin:round;stroke-miterlimit:2;"><g id="Mazagran"><path d="M18.561,175.17c-5.467,55.143 15.81,100.098 44.367,153.003c61.434,113.811 154.504,268.797 33.028,683.083c-199.356,679.886 -71.786,1113.55 253.746,1393.84c138.767,119.483 361.356,176.67 584.584,172.18c223.017,-4.485 446.279,-70.481 586.662,-194.843c378.178,-335.02 391.559,-767.683 221.678,-1305.74c-118.132,-374.154 6.23,-618.333 69.838,-764.526c17.377,-39.939 30.256,-73.081 33.699,-99.823c2.762,-21.461 -0.262,-39.441 -9.825,-54.356c-29.03,-45.276 -102.275,-78.371 -196.646,-100.336c-208.849,-48.609 -522.37,-48.627 -641.839,-53.094c-182.464,-6.823 -575.359,-11.019 -800.501,45.635c-60.396,15.198 -109.047,35.016 -139.589,59.68c-23.342,18.85 -36.767,40.742 -39.202,65.299l0,0Zm33.171,3.289c2.078,-20.963 17.576,-37.888 41.355,-52.855c27.74,-17.461 66.434,-31.521 112.399,-43.087c222.497,-55.989 610.802,-51.394 791.121,-44.651c118.29,4.423 428.742,4.121 635.529,52.25c51.638,12.018 96.671,26.99 130.113,46.08c20.407,11.649 36.336,24.665 46.028,39.782c7.348,11.46 6.728,26.047 2.706,43.844c-5.008,22.159 -15.742,48.38 -29.085,79.044c-65.542,150.639 -192.783,402.327 -71.059,787.861c165.25,523.39 155.873,944.87 -211.994,1270.76c-135.165,119.739 -350.503,182.149 -565.23,186.468c-214.515,4.314 -428.812,-49.295 -562.164,-164.114c-317.281,-273.188 -437.812,-696.547 -243.509,-1359.2c125.973,-429.62 28.027,-590.271 -35.681,-708.295c-25.075,-46.454 -45.33,-85.462 -40.529,-133.881l-0,-0Z" style="fill:#7e4021;"/><path d="M1713.72,1096.71c17.252,69.705 44.716,146.378 45.166,152.861c0.343,4.935 2.86,9.462 6.869,12.358c24.948,18.015 51.209,21.035 78.792,15.177c24.351,-5.172 49.909,-17.723 76.409,-32.167c29.168,-15.898 59.646,-34.124 91.394,-45.118c43.668,-15.122 89.854,-15.545 138.12,27.703c36.292,32.519 63.539,112.269 77.573,204.948c21.439,141.575 10.955,314.145 -57.735,402.907c-61.554,79.539 -213.311,193.171 -373.185,116.028c-8.284,-3.998 -18.256,-0.517 -22.253,7.768c-3.998,8.284 -0.517,18.256 7.768,22.253c177.003,85.408 345.883,-37.588 414.031,-125.649c73.092,-94.449 87.144,-277.652 64.332,-428.297c-15.467,-102.137 -48.291,-188.946 -88.286,-224.783c-81.866,-73.354 -158.773,-45.636 -229.408,-8.009c-31.575,16.82 -61.673,35.583 -90.26,45.451c-22.267,7.686 -43.457,9.767 -63.345,-2.295c-7.208,-24.276 -28.805,-89.265 -43.625,-149.144c-2.21,-8.93 -11.254,-14.385 -20.183,-12.175c-8.929,2.21 -14.384,11.254 -12.174,20.183Z" style="fill:#7e4021;"/><path d="M1693.73,2170.28c65.624,40.499 179.3,90.939 316.446,64.353c90.685,-17.58 191.969,-68.847 296.196,-180.256c173.484,-185.438 212.552,-499.067 161.967,-745.199c-34.299,-166.892 -110.381,-302.175 -210.848,-348.769c-275.973,-127.989 -553.823,7.059 -553.823,7.059c-6.232,3.031 -9.939,9.6 -9.31,16.501c-0,0 4.961,54.559 19.362,112.746c2.21,8.929 11.253,14.384 20.183,12.174c8.929,-2.21 14.384,-11.253 12.174,-20.182c-9.81,-39.637 -15.045,-77.511 -17.244,-96.002c51.626,-22.054 283.822,-109.1 514.634,-2.056c93.132,43.192 160.426,170.531 192.222,325.239c48.556,236.265 12.87,537.713 -153.659,715.717c-98.05,104.807 -192.886,153.766 -278.198,170.304c-126.851,24.591 -231.897,-22.536 -292.596,-59.995c-7.827,-4.831 -18.105,-2.398 -22.936,5.43c-4.831,7.828 -2.398,18.105 5.43,22.936Z" style="fill:#7e4021;"/><path d="M538.006,2508.23c-0.041,0.87 -0.184,3.352 -0.504,4.951c-0.942,4.706 -2.567,9.926 -4.099,15.617c-7.318,27.19 -13.487,62.709 30.299,102.638c49.093,44.769 136.315,73.38 234.247,85.41c144.29,17.726 311.546,0.088 409.048,-47.991c40.622,-20.031 61.003,-44.562 69.523,-68.505c13.288,-37.34 -1.856,-75.074 -22.335,-99.68c-4.905,-5.892 -13.196,-7.679 -20.092,-4.33c-0,0 -113.267,54.441 -339.716,49.161c-141.522,-3.3 -338.487,-63.621 -338.487,-63.621c-7.136,-2.181 -14.852,0.646 -18.889,6.922c-3.887,6.044 -3.45,13.867 1.005,19.428Zm31.931,12.419c57.649,16.19 208.542,55.492 323.663,58.176c191.635,4.469 305.646,-32.685 342.155,-47.016c10.224,15.963 16.736,36.641 9.361,57.366c-6.339,17.812 -22.64,34.881 -52.861,49.784c-92.993,45.856 -252.625,61.708 -390.242,44.803c-90.008,-11.057 -170.73,-35.81 -215.851,-76.956c-13.843,-12.624 -20.689,-24.36 -23.16,-35.411c-3.909,-17.474 2.395,-32.683 5.579,-44.838c0.529,-2.018 0.982,-3.988 1.356,-5.908l-0,-0Z" style="fill:#7e4021;"/><path d="M593.186,2619.85c-5.096,-3.178 -11.507,-3.368 -16.783,-0.498c-29.314,15.945 -62.021,58.784 -52.964,104.457c3.85,19.413 15.026,39.666 37.957,58.407c57.275,46.811 146.418,74.607 243.551,85.236c143.662,15.722 304.564,-5.787 402.05,-53.858c30.85,-15.213 48.67,-34.763 58.086,-55.248c21.841,-47.516 -2.415,-102.314 -25.545,-130.106c-5.588,-6.714 -15.412,-7.975 -22.514,-2.888c-0,-0 -98.203,69.154 -322.719,64.886c-193.217,-3.673 -301.119,-70.388 -301.119,-70.388Zm-8.304,33.578c31.021,16.627 138.473,66.9 308.789,70.137c188.524,3.584 293.03,-42.828 328.662,-62.517c14.106,21.777 25.836,54.283 12.463,83.376c-6.8,14.796 -20.26,28.287 -42.541,39.274c-93.008,45.863 -246.62,65.618 -383.682,50.619c-90.017,-9.851 -173.004,-34.53 -226.083,-77.91c-15.517,-12.683 -23.749,-25.945 -26.355,-39.082c-5.247,-26.46 11.476,-51.057 28.747,-63.896l0,-0.001Z" style="fill:#7e4021;"/><path d="M1150.36,3283.2c146.265,24.371 271.715,68.464 360.448,125.49c84.304,54.18 135.324,119.411 135.324,190.899c-0,42.905 -18.642,83.702 -51.742,121.216c-39.75,45.051 -100.005,85.149 -175.251,118.341c-137.632,60.71 -324.906,97.905 -531.091,97.905c-206.184,-0 -393.458,-37.195 -531.09,-97.905c-75.246,-33.191 -135.501,-73.29 -175.251,-118.34c-33.1,-37.515 -51.742,-78.312 -51.742,-121.217c-0,-71.056 50.42,-135.936 133.817,-189.927c87.905,-56.909 212.285,-101.041 357.451,-125.705c9.069,-1.54 15.181,-10.154 13.64,-19.223c-1.541,-9.068 -10.154,-15.18 -19.223,-13.639c-150.316,25.538 -278.96,71.658 -369.983,130.585c-94.764,61.35 -149.035,137.168 -149.035,217.909c-0,105.164 93.293,202.31 246.873,270.055c141.135,62.255 333.112,100.74 544.543,100.74c211.432,0 403.409,-38.485 544.544,-100.74c153.58,-67.745 246.873,-164.891 246.873,-270.055c0,-81.19 -54.89,-157.408 -150.636,-218.941c-91.856,-59.034 -221.576,-105.099 -372.991,-130.329c-9.073,-1.511 -17.667,4.628 -19.179,13.701c-1.512,9.074 4.627,17.668 13.701,19.18Z" style="fill:#7e4021;"/><path d="M1646.13,3603.1c-0,106.87 -82.252,202.577 -212.971,273.354c-138.609,75.048 -331.722,121.405 -545.113,121.405c-213.39,0 -406.503,-46.357 -545.112,-121.405c-130.719,-70.777 -212.971,-166.484 -212.971,-273.354c-0,-9.199 -7.468,-16.667 -16.667,-16.667c-9.198,0 -16.666,7.468 -16.666,16.667c-0,117.318 86.934,224.97 230.433,302.667c142.67,77.247 341.34,125.426 560.983,125.426c219.644,-0 418.313,-48.179 560.984,-125.426c143.499,-77.697 230.433,-185.349 230.433,-302.667c0,-9.199 -7.468,-16.667 -16.666,-16.667c-9.199,0 -16.667,7.468 -16.667,16.667Z" style="fill:#7e4021;"/><path d="M965.556,2850.95c-7.774,92.686 11.476,176.169 41.289,245.915c43.216,101.102 108.697,173.231 145.641,202.886c63.395,50.887 126.346,79.657 165.896,111.417c20.992,16.858 34.932,34.191 34.932,58.59c-0,25.769 -11.364,50.202 -31.244,72.733c-24.685,27.977 -62.158,52.796 -108.886,73.408c-86.532,38.169 -204.286,61.491 -333.918,61.491c-129.632,0 -247.386,-23.322 -333.918,-61.491c-46.727,-20.612 -84.201,-45.431 -108.885,-73.407c-19.881,-22.532 -31.245,-46.965 -31.245,-72.734c0,-25.272 15.047,-43.06 37.507,-60.349c42.036,-32.358 108.557,-61.465 174.472,-113.097c56.572,-44.313 118.59,-99.048 159.821,-194.049c26.925,-62.04 45.008,-141.407 46.391,-246.681c0.121,-9.198 -7.248,-16.764 -16.446,-16.885c-9.198,-0.121 -16.763,7.249 -16.884,16.447c-1.311,99.771 -18.121,175.051 -43.639,233.848c-38.544,88.81 -96.913,139.654 -149.798,181.079c-65.826,51.563 -132.271,80.609 -174.25,112.924c-31.734,24.428 -50.507,51.056 -50.507,86.763c0,68.502 59.97,132.51 160.01,176.639c90.035,39.715 212.492,64.327 347.371,64.327c134.879,-0 257.336,-24.612 347.371,-64.327c100.04,-44.129 160.01,-108.137 160.01,-176.639c0,-34.679 -17.557,-60.62 -47.393,-84.58c-39.552,-31.762 -102.505,-60.533 -165.902,-111.421c-34.551,-27.735 -95.44,-95.441 -135.857,-189.994c-27.888,-65.244 -45.995,-143.323 -38.722,-230.027c0.768,-9.166 -6.049,-17.232 -15.216,-18.001c-9.166,-0.769 -17.232,6.049 -18.001,15.215Z" style="fill:#7e4021;"/><path d="M211.041,240.983c-5.079,44.087 11.493,83.076 34.355,129.996c48.656,99.857 123.807,240.272 28.429,577.53c-156.895,554.782 -132.186,1003.05 127.588,1265.79c137.97,139.546 341.912,205.621 542.17,199.543c200.467,-6.084 396.924,-84.473 519.768,-232.281c287.691,-346.155 246.437,-740.997 112.836,-1179.73c-92.671,-304.321 4.949,-502.923 54.848,-621.829c13.789,-32.858 23.97,-60.132 26.701,-82.133c2.259,-18.198 -0.306,-33.436 -8.127,-46.083c-23.192,-37.502 -81.513,-65.182 -156.905,-83.376c-164.561,-39.711 -411.594,-39.767 -505.729,-43.416c-143.635,-5.569 -453.774,-10.567 -631.558,26.963c-48.091,10.151 -86.838,23.65 -111.169,40.499c-19.982,13.837 -31.111,30.332 -33.207,48.526Zm33.114,3.814c1.119,-9.713 8.402,-17.549 19.07,-24.936c21.628,-14.977 56.328,-26.265 99.077,-35.289c175.478,-37.043 481.609,-31.766 623.382,-26.269c92.914,3.602 336.773,3.315 499.201,42.512c40.201,9.701 75.276,21.753 101.311,37.163c15.525,9.188 27.689,19.417 35.063,31.341c5.459,8.828 4.759,20.073 1.771,33.782c-3.912,17.944 -12.312,39.173 -22.732,64.003c-51.707,123.216 -152.028,329.088 -55.999,644.438c130.054,427.083 173.469,811.748 -106.583,1148.71c-116.936,140.699 -304.319,214.478 -495.145,220.269c-191.035,5.798 -385.838,-56.542 -517.455,-189.661c-252.999,-255.887 -272.02,-692.966 -119.216,-1233.28c99.296,-351.109 20.115,-497.243 -30.539,-601.202c-19.7,-40.431 -35.582,-73.591 -31.206,-111.581Z" style="fill:#7e4021;"/><path d="M1611.94,1195.28c-7.373,-30.881 -367.213,-71.411 -708.7,-68.244c-343.17,3.183 -667.979,50.148 -668.691,53.702c-88.527,442.421 -41.1,799.525 178.714,1021.85c269.586,272.664 797.49,256.834 1037.27,-31.673c242.032,-291.217 246.93,-617.47 161.409,-975.632Z" style="fill:#ffce7b;"/><path d="M1628.15,1191.4c-1.156,-4.843 -4.514,-10.703 -12.095,-15.698c-7.703,-5.075 -22.635,-10.685 -43.916,-15.882c-107.483,-26.247 -394.172,-52.008 -669.055,-49.458c-310.18,2.876 -605.42,41.416 -661.888,51.688c-9.157,1.666 -14.223,3.724 -15.273,4.371c-5.736,3.535 -7.148,8.191 -7.717,11.038c-89.854,449.048 -39.902,811.183 183.204,1036.84c137.97,139.546 341.912,205.621 542.17,199.543c200.467,-6.084 396.924,-84.473 519.768,-232.281c245.674,-295.6 251.61,-626.603 164.802,-990.156l0,-0Zm-31.451,11.836c83.229,351.185 78.473,671.298 -158.986,957.014c-116.936,140.699 -304.319,214.478 -495.145,220.269c-191.035,5.798 -385.838,-56.542 -517.455,-189.661c-214.767,-217.218 -260.685,-565.369 -176.311,-996.298c59.849,-10.612 349.957,-48.041 654.591,-50.867c271.497,-2.518 554.679,22.585 660.839,48.509c14.3,3.492 27.996,9.117 32.467,11.034Z" style="fill:#7e4021;"/><ellipse cx="921.565" cy="1161.97" rx="681.123" ry="149.125" style="fill:#edaf5f;"/><path d="M921.565,996.176c-199.778,-0 -379.728,18.808 -505.208,48.675c-78.935,18.788 -136.835,42.484 -166.232,68.012c-17.887,15.532 -26.349,32.363 -26.349,49.104c0,16.741 8.462,33.572 26.349,49.104c29.397,25.528 87.297,49.224 166.232,68.012c125.48,29.867 305.43,48.675 505.208,48.675c199.779,0 379.728,-18.808 505.209,-48.675c78.935,-18.788 136.835,-42.484 166.232,-68.012c17.887,-15.532 26.349,-32.363 26.349,-49.104c-0,-16.741 -8.462,-33.572 -26.349,-49.104c-29.397,-25.528 -87.297,-49.224 -166.232,-68.012c-125.481,-29.867 -305.43,-48.675 -505.209,-48.675Zm0,33.333c162.235,0 311.21,12.499 427.814,33.378c97.868,17.523 172.543,40.548 211.834,67.524c15.055,10.336 24.808,20.133 24.808,31.556c0,11.423 -9.753,21.22 -24.808,31.556c-39.291,26.976 -113.966,50.001 -211.834,67.524c-116.604,20.878 -265.579,33.378 -427.814,33.378c-162.234,-0 -311.209,-12.5 -427.813,-33.378c-97.868,-17.523 -172.543,-40.548 -211.834,-67.524c-15.055,-10.336 -24.808,-20.133 -24.808,-31.556c-0,-11.423 9.753,-21.22 24.808,-31.556c39.291,-26.976 113.966,-50.001 211.834,-67.524c116.604,-20.879 265.579,-33.378 427.813,-33.378Z" style="fill:#7e4021;"/><path d="M387.882,1155.69c2.123,6.195 7.677,10.574 14.196,11.191c0,-0 68.283,6.467 138.184,2.668c71.991,-3.912 140.229,-30.179 211.928,-36.539c44.742,-3.969 89.185,-0.078 133.888,2.103c9.333,0.455 28.032,0.082 28.032,0.082c9.149,-0.189 16.434,-7.718 16.322,-16.868c-0,0 -0.135,-10.974 -0.269,-16.46c-1.146,-46.984 -0.705,-93.95 -1.591,-140.925c-0.786,-41.64 -2.388,-90.662 -20.415,-129.185c-9.459,-20.216 -42.812,-50.35 -83.768,-78.496c-59.639,-40.984 -134.76,-78.369 -166.208,-80.321c-19.211,-1.192 -48.579,4.96 -82.357,16.647c-47.699,16.504 -104.942,43.77 -154.026,73.273c-33.214,19.964 -62.706,40.991 -83.251,60.375c-15.459,14.586 -26.031,28.665 -30.688,40.805c-10.053,26.204 -8.27,59.526 0.232,93.771c11.717,47.192 35.743,96.34 51.976,128.178c12.153,23.838 27.815,69.701 27.815,69.701Zm508.942,-53.682c-3.346,-0.012 -6.605,-0.066 -9.122,-0.189c-46.228,-2.255 -92.189,-6.116 -138.457,-2.012c-71.322,6.327 -139.18,32.566 -210.791,36.458c-51.176,2.781 -101.451,-0.142 -122.688,-1.711l-0,0c-5.643,-15.7 -16.794,-45.643 -26.003,-63.705c-15.342,-30.092 -38.247,-76.466 -49.321,-121.071c-6.693,-26.955 -9.375,-53.171 -1.462,-73.798c3.31,-8.625 11.46,-18.137 22.443,-28.5c19.115,-18.036 46.644,-37.476 77.547,-56.05c47.092,-28.305 101.99,-54.508 147.753,-70.342c28.531,-9.871 53.166,-15.886 69.393,-14.878c28.442,1.765 95.457,37.457 149.394,74.523c34.764,23.89 64.427,47.993 72.456,65.152c16.122,34.453 16.576,78.446 17.279,115.686c0.883,46.811 0.451,93.612 1.579,140.437Z" style="fill:#7e4021;"/><path d="M926.463,359.808c-12.833,8.11 -25.155,20.838 -42.066,44.378c-15.562,21.663 -30.746,43.598 -45.999,65.48c-11.965,17.164 -88.961,122.408 -115.852,173.357c-5.613,10.636 -9.163,19.387 -10.374,25.149c-1.253,5.965 -0.598,10.637 0.57,13.864c1.708,4.724 7.429,12.799 17.43,22.392c17.482,16.768 49.606,42.007 86.019,68.628c61.862,45.226 136.145,94.558 170.749,113.122c11.572,6.208 20.129,9.11 23.984,9.435c36.267,3.059 175.651,-11.279 218.579,-29.894c2.907,-1.261 7.981,-4.719 14.234,-10.781c10.009,-9.703 25.662,-27.554 43.925,-49.927c41.78,-51.178 97.652,-126.35 130.676,-179.61c15.225,-24.555 25.616,-44.942 28.674,-56.958c0.939,-3.688 1.041,-8.703 -1.728,-14.605c-3.103,-6.616 -13.634,-18.514 -30.282,-32.844c-49.881,-42.933 -157.87,-117.035 -233.701,-157.192c-35.584,-18.844 -65.101,-29.789 -79.962,-29.38c-39.896,1.1 -82.848,2.941 -116.843,8.007c-25.121,3.744 -45.686,9.578 -58.033,17.379Zm486.487,205.791c-3.899,10.243 -12.193,24.901 -22.942,42.236c-32.381,52.225 -87.199,125.913 -128.167,176.097c-20.836,25.523 -44.937,50.101 -46.318,51.505c-40.2,16.936 -166.046,29.542 -200.842,27.031c-1.823,-0.848 -14.345,-6.739 -25.976,-13.584c-37.471,-22.053 -99.799,-63.959 -152.841,-102.737c-34.945,-25.548 -65.841,-49.684 -82.618,-65.775c-2.749,-2.637 -5.509,-5.727 -7.323,-7.846c2.705,-5.948 9.944,-21.397 17.719,-34.265c32.412,-53.644 91.796,-134.751 102.101,-149.534c15.163,-21.752 30.256,-43.558 45.726,-65.093c13.397,-18.649 22.634,-29.222 32.801,-35.647c9.551,-6.035 25.706,-9.692 45.139,-12.589c32.831,-4.892 74.318,-6.593 112.848,-7.655c11.93,-0.329 34.881,10.39 63.444,25.517c73.829,39.096 178.993,111.199 227.556,152.998c8.331,7.171 16.072,15.375 19.693,19.341Z" style="fill:#7e4021;"/><path d="M1160.8,569.388c-1.407,3.162 -3.452,7.536 -5.361,10.896c-6.729,11.842 -15.135,24.147 -17.338,27.566c-29.624,45.972 -66.49,86.661 -90.92,135.927c-4.087,8.241 -0.714,18.249 7.527,22.336c8.241,4.086 18.249,0.714 22.336,-7.527c23.874,-48.145 60.127,-87.755 89.077,-132.68c3.604,-5.593 21.994,-32.864 27.401,-47.943c3.161,-8.814 2.438,-16.028 0.712,-20.087c-1.528,-3.592 -7.385,-10.755 -17.268,-18.757c-27.403,-22.189 -90.259,-62.561 -101.786,-70.567c-0.426,-0.296 -51.918,-28.682 -61.982,-34.626l-0.458,-0.275c-7.004,-5.018 -16.815,-3.864 -22.447,2.846c-0.435,0.518 -8.963,17.32 5.953,26.13c9.718,5.739 59.508,33.017 59.919,33.303c9.938,6.901 58.62,38.178 88.721,60.538c6.005,4.461 12.149,9.651 15.914,12.92Zm-141.134,-123.523c0.344,4.218 -0.908,8.567 -3.841,12.061c2.701,-3.218 4.253,-7.16 3.841,-12.061Zm-3.018,-8.307c1.74,2.447 2.753,5.283 3.009,8.185l-0.007,-0.101c-0.175,-1.843 -0.627,-4.823 -3.002,-8.084Z" style="fill:#7e4021;"/><path d="M1180.4,580.573c11.349,-1.047 30.583,-3.028 41.666,-1.074c27.638,4.874 56.092,8.932 84.113,10.759c9.179,0.598 17.117,-6.368 17.715,-15.547c0.598,-9.18 -6.368,-17.118 -15.547,-17.716c-26.816,-1.748 -54.043,-5.659 -80.493,-10.323c-13.433,-2.368 -36.758,-0.56 -50.514,0.708c-9.16,0.844 -15.911,8.967 -15.066,18.126c0.844,9.16 8.966,15.911 18.126,15.067Z" style="fill:#7e4021;"/><path d="M1487.18,1171.11c-0.15,-1.248 -1.187,-10.056 -1.623,-17.943c-2.69,-48.621 -2.413,-158.098 -2.599,-177.343c-0.099,-10.302 2.523,-34.684 -0.71,-51.88c-2.249,-11.963 -7.522,-21.147 -14.581,-26.104c-7.986,-5.607 -21.668,-10.322 -38.077,-13.609c-32.269,-6.466 -76.273,-8.647 -96.645,-10.986c-34.918,-4.009 -150.415,-20.715 -170.946,-17.833c-11.27,1.581 -35.185,10.842 -64.017,24.426c-63.61,29.967 -153.184,80.413 -179.541,101.7c-8.186,6.611 -14.557,20.47 -17.302,38.417c-4.746,31.036 -1.17,75.947 -0.537,92.76c0.555,14.75 1.885,29.472 2.202,44.228c0.058,2.702 0.174,8.106 0.174,8.106c0.101,4.689 2.172,9.118 5.707,12.202c3.534,3.083 8.204,4.534 12.863,3.997c0,-0 8.172,-1 12.271,-0.879c19.505,0.575 39.193,1.956 58.66,3.242c52.515,3.469 105.726,3.343 158.349,3.862c73.869,0.728 247.229,7.655 321.08,6.069c5.712,-0.123 10.963,-3.163 13.914,-8.056c2.632,-4.364 3.106,-9.659 1.358,-14.376Zm-39.401,-246.481c0.376,1.236 2.107,7.118 2.468,11.181c1.309,14.74 -0.698,32.265 -0.621,40.336c0.188,19.409 -0.064,129.824 2.648,178.862c0.104,1.883 0.226,3.694 0.361,5.428l-0,0c-80.925,0.337 -233.485,-5.624 -301.478,-6.295c-52.002,-0.513 -104.586,-0.363 -156.482,-3.791c-19.533,-1.29 -39.286,-2.665 -58.861,-3.265c-0.518,-11.877 -1.455,-23.741 -1.902,-35.623c-0.511,-13.58 -3.239,-46.612 -1.173,-74.19c0.614,-8.204 1.634,-15.876 3.414,-22.175c0.925,-3.273 1.464,-6.199 3.231,-7.627c25.343,-20.467 111.643,-68.664 172.804,-97.478c24.642,-11.609 44.812,-20.219 54.444,-21.571c19.531,-2.741 129.294,14.126 162.511,17.94c17.082,1.961 51.157,3.747 80.424,8.206c16.027,2.441 30.545,5.146 38.212,10.062Z" style="fill:#7e4021;"/><path d="M1177.77,945.663c0.133,-1.122 0.151,-2.276 0.045,-3.447c-0.828,-9.161 -8.939,-15.926 -18.1,-15.098c-1.106,0.1 -14.716,2.449 -15.26,16.957c-0.216,5.773 0.464,34.592 0.484,36.906c0.326,37.752 -1.041,75.6 -0.23,113.328c0.197,9.196 7.824,16.502 17.021,16.304c9.196,-0.197 16.502,-7.824 16.304,-17.02c-0.807,-37.586 0.562,-75.291 0.237,-112.9l-0.501,-35.03Zm-2.95,7.671c-2.719,3.849 -7.046,6.525 -12.103,6.982c3.732,-0.337 8.47,-1.701 12.103,-6.982Z" style="fill:#7e4021;"/><path d="M1455.54,1193.55c18.344,-0.384 41.921,3.533 60.175,1.584c9.146,-0.977 15.779,-9.196 14.802,-18.342c-0.976,-9.147 -9.195,-15.78 -18.342,-14.803c-17.394,1.857 -39.853,-2.131 -57.333,-1.765c-9.197,0.193 -16.507,7.815 -16.314,17.012c0.193,9.197 7.815,16.507 17.012,16.314Z" style="fill:#7e4021;"/><path d="M973.59,1149.14c-15.614,-1.309 -29.275,0.065 -42.139,0.677c-9.893,0.471 -19.204,0.574 -28.761,-3.021c-8.609,-3.239 -18.229,1.122 -21.467,9.731c-3.239,8.61 1.121,18.229 9.731,21.468c14.009,5.269 27.579,5.808 42.081,5.118c11.531,-0.548 23.774,-1.93 37.77,-0.756c9.167,0.768 17.233,-6.05 18.001,-15.216c0.768,-9.167 -6.05,-17.233 -15.216,-18.001Z" style="fill:#7e4021;"/><path d="M632.514,693.317c-1.128,3.63 -2.297,7.239 -3.291,10.911c-2.882,10.654 -5.804,21.229 -8.035,32.047c-6.878,33.347 -10.262,67.617 -9.773,101.68c1.382,96.302 18.986,189.632 35.041,284.18c1.54,9.069 10.153,15.181 19.222,13.641c9.069,-1.54 15.181,-10.153 13.641,-19.221c-15.768,-92.857 -33.217,-184.499 -34.574,-279.078c-0.455,-31.648 2.699,-63.487 9.089,-94.468c2.094,-10.155 4.86,-20.075 7.566,-30.075c0.909,-3.361 1.995,-6.66 3.027,-9.984c0.107,-0.346 0.26,-0.991 0.41,-1.682c1.922,-4.074 2.196,-8.909 0.362,-13.404c-2.961,-7.257 -7.991,-9.049 -10.745,-9.889c-5.608,-1.711 -11.607,-1.153 -16.974,4.415c-0.978,1.015 -2.094,2.416 -3.041,4.342c-0.475,0.966 -1.539,5.064 -1.925,6.585Zm4.993,12.134c-1.314,-1.422 -2.397,-3.099 -3.171,-4.994c0.91,2.229 2.048,3.823 3.171,4.994Z" style="fill:#7e4021;"/><path d="M408.383,1134.52c-14.568,-1.085 -27.949,-0.348 -39.598,0.043c-8.719,0.293 -16.171,0.735 -21.889,-1.237c-8.696,-2.999 -18.191,1.627 -21.19,10.323c-2.998,8.696 1.627,18.191 10.323,21.189c7.385,2.547 16.498,3.351 27.067,3.21c12.113,-0.162 26.673,-1.489 42.81,-0.287c9.174,0.684 17.176,-6.209 17.859,-15.382c0.684,-9.173 -6.209,-17.175 -15.382,-17.859Z" style="fill:#7e4021;"/><path d="M1662.31,1576.09c-50.117,21.154 -351.151,69.517 -794.187,61.308c-363.992,-6.744 -675.688,-71.192 -675.588,-57.492c1.899,259.238 71.69,471.934 220.726,622.671c269.586,272.664 797.49,256.834 1037.27,-31.673c153.32,-184.477 211.482,-383.013 211.781,-594.814Z" style="fill:#9d5e3e;"/><path d="M1678.98,1576.12c0.008,-5.59 -2.787,-10.812 -7.443,-13.906c-4.657,-3.093 -10.554,-3.646 -15.704,-1.473c-49.685,20.972 -348.182,68.137 -787.397,59.999c-327.666,-6.071 -612.964,-58.881 -666.673,-59.396c-11.123,-0.106 -17.484,3.26 -19.771,5.241c-4.443,3.849 -6.156,8.488 -6.119,13.449c1.935,264.158 73.675,480.669 225.54,634.267c137.97,139.546 341.912,205.621 542.17,199.543c200.467,-6.084 396.924,-84.473 519.768,-232.281c156.065,-187.78 215.325,-389.85 215.629,-605.443Zm-1469.57,19.134c4.853,0.263 10.749,0.676 16.648,1.302c91.597,9.723 349.907,52.104 641.759,57.512c401.043,7.43 686.673,-31.726 777.568,-55.257l0,0c-4.325,199.495 -62.595,386.889 -207.67,561.446c-116.936,140.699 -304.319,214.478 -495.145,220.269c-191.035,5.798 -385.838,-56.542 -517.455,-189.661c-143.239,-144.874 -211.261,-348.302 -215.705,-595.611Z" style="fill:#7e4021;"/><path d="M1409.95,2214.59c14.285,-13.788 -782.884,-19.845 -996.688,-12.005c255.262,258.176 742.119,257.701 996.688,12.005Z" style="fill:#c48464;"/><path d="M1421.53,2226.58c4.893,-4.722 5.753,-9.921 5.135,-14.59c-0.478,-3.613 -2.02,-7.886 -6.688,-11.458c-1.319,-1.009 -3.429,-2.322 -6.599,-3.312c-3.261,-1.019 -10.248,-2.191 -20.577,-3.129c-120.913,-10.986 -787.303,-15.234 -980.144,-8.163c-6.609,0.242 -12.449,4.369 -14.884,10.516c-2.436,6.148 -1.007,13.155 3.643,17.857c261.262,264.244 759.561,263.75 1020.11,12.279Zm-48.986,-0.588l-918.551,-7.917c246.689,216.693 673.956,215.822 918.551,7.917Z" style="fill:#7e4021;"/><path d="M786.969,299.596c208.651,14.226 479.652,15.613 687.299,-7.934c9.14,-1.037 15.719,-9.299 14.682,-18.439c-1.036,-9.14 -9.298,-15.719 -18.438,-14.682c-205.827,23.341 -474.453,21.901 -681.275,7.799c-9.178,-0.626 -17.136,6.317 -17.762,15.494c-0.626,9.178 6.317,17.136 15.494,17.762Z" style="fill:#7e4021;"/><path d="M573.071,278.507c28.946,5.192 97.268,10.836 121.776,11.858c9.19,0.383 16.963,-6.767 17.347,-15.958c0.383,-9.19 -6.767,-16.963 -15.958,-17.346c-23.602,-0.985 -89.404,-6.364 -117.281,-11.364c-9.054,-1.624 -17.723,4.409 -19.347,13.463c-1.624,9.054 4.409,17.723 13.463,19.347Z" style="fill:#7e4021;"/><path d="M1597.07,273.654c13.348,-1.777 48.265,-5.56 80.384,-13.546c23.689,-5.891 45.786,-14.372 58.725,-25.182c10.175,-8.501 15.646,-18.619 16.121,-29.675c0.433,-10.058 -3.321,-21.828 -14.995,-34.518c-6.228,-6.769 -16.781,-7.209 -23.55,-0.981c-6.77,6.228 -7.209,16.78 -0.981,23.55c3.904,4.244 6.587,7.364 6.212,10.673c-0.261,2.294 -2.307,3.854 -4.497,5.633c-3.077,2.5 -6.928,4.719 -11.265,6.789c-33.689,16.075 -92.734,21.843 -110.552,24.215c-9.119,1.214 -15.536,9.602 -14.322,18.72c1.213,9.119 9.602,15.536 18.72,14.322Z" style="fill:#7e4021;"/></g></svg>