<?xml version="1.0" encoding="UTF-8" standalone="no"?><!DOCTYPE svg PUBLIC "-//W3C//DTD SVG 1.1//EN" "http://www.w3.org/Graphics/SVG/1.1/DTD/svg11.dtd"><svg width="100%" height="100%" viewBox="0 0 2476 4368" version="1.1" xmlns="http://www.w3.org/2000/svg" xmlns:xlink="http://www.w3.org/1999/xlink" xml:space="preserve" xmlns:serif="http://www.serif.com/" style="fill-rule:evenodd;clip-rule:evenodd;stroke-linejoin:round;stroke-miterlimit:2;"><g id="Milkshake"><path d="M34.822,900.533c-17.853,18.375 -27.773,46.565 -31.856,87.375c-5.448,54.445 -1.305,133.427 0.282,243.214c4.65,321.655 35.211,612.655 97.604,933.775c23.891,122.962 73.405,191.387 119.638,263.839c43.994,68.942 84.697,141.801 93.938,274.591c19.096,274.409 55.09,677.172 75.674,951.628c10.474,139.658 20.257,251.209 37.839,340.439c18.128,91.996 44.758,160.804 87.921,212.717c43.585,52.419 104.054,87.991 190.799,111.959c83.739,23.137 192.61,35.564 335.274,42.843c131.762,6.723 357.726,11.502 540.518,-36.284c126.091,-32.963 231.484,-91.413 275.731,-188.52c55.679,-122.195 90.291,-333.689 114.649,-566.603c36.175,-345.907 50.266,-739.375 80.798,-953.102c12.49,-87.432 57.432,-150.291 102.808,-216.601c48.076,-70.256 96.8,-144.075 113.903,-250.377c57.106,-354.935 67.927,-762.346 73.002,-1122.71c0.487,-34.575 0.273,-74.099 -20.389,-103.894c-33.888,-48.867 -121.676,-92.115 -242.794,-126.239c-272.387,-76.744 -715.71,-113.387 -1059.7,-102.451c-374.874,11.919 -663.323,62.564 -831.962,121.906c-75.109,26.429 -127.056,55.094 -153.679,82.496Zm23.907,23.228c32.769,-33.728 107.957,-67.79 218.8,-98.596c171.354,-47.623 426.301,-85.617 743.993,-95.717c340.702,-10.832 779.815,25.207 1049.6,101.218c111.247,31.343 193.315,68.266 224.442,113.15c16.716,24.106 14.844,56.458 14.45,84.43c-5.054,358.813 -15.721,764.477 -72.582,1117.88c-16.198,100.679 -62.969,170.308 -108.502,236.848c-48.235,70.487 -95.02,137.771 -108.297,230.711c-30.573,214.008 -44.73,607.988 -80.952,954.349c-23.907,228.599 -57.182,436.317 -111.83,556.249c-40.476,88.83 -138.485,139.938 -253.829,170.091c-179.358,46.889 -401.102,41.84 -530.388,35.244c-139.597,-7.122 -246.157,-19.043 -328.096,-41.683c-78.932,-21.809 -134.386,-53.442 -174.045,-101.14c-40.08,-48.205 -64.014,-112.425 -80.847,-197.85c-17.378,-88.192 -26.951,-198.455 -37.304,-336.488c-20.58,-274.404 -56.568,-677.092 -75.661,-951.449c-9.765,-140.314 -52.605,-217.36 -99.091,-290.208c-44.247,-69.339 -92.152,-134.587 -115.017,-252.266c-62,-319.1 -92.374,-608.268 -96.995,-927.899c-1.563,-108.072 -5.807,-185.819 -0.445,-239.413c3.124,-31.222 8.938,-53.409 22.596,-67.466Z" style="fill:#7e4021;"/><path d="M269.611,1043.96c-31.482,36.695 -23.57,124.181 -21.472,288.519c3.705,290.248 28.058,552.833 77.773,842.598c37.373,217.829 155.734,242.005 170.926,489.22c15.262,248.373 44.03,612.922 60.482,861.337c33.294,502.733 57.183,600.836 508.412,626.907c173.882,10.047 554.987,15.705 639.636,-194.681c110.232,-273.97 114.456,-1048.87 155.158,-1371.52c20.596,-163.274 146.636,-235.614 173.254,-422.974c45.548,-320.597 54.136,-688.597 58.184,-1014.1c0.352,-28.307 1.014,-60.842 -13.924,-85.236c-86.61,-141.437 -638.812,-214.604 -1029.73,-200.529c-425.47,15.319 -710.86,101.38 -778.703,180.459Z" style="fill:#f8bcc4;"/><path d="M256.961,1033.11c-14.333,16.706 -22.437,42.363 -25.715,79.467c-4.353,49.274 -1.041,120.756 0.227,220.117c3.717,291.145 28.143,554.543 78.012,845.204c19.109,111.375 58.709,173.329 95.688,238.953c35.15,62.38 67.646,128.319 75.029,248.47c15.265,248.396 44.035,612.978 60.488,861.416c10.063,151.959 19.369,267.216 39.608,354.839c21.142,91.53 54.422,153.836 111.014,197.065c73.55,56.182 188.295,79.843 373.459,90.541c105.721,6.109 287.02,10.39 433.686,-33.031c101.72,-30.115 186.678,-83.352 222.373,-172.068c110.57,-274.809 115.405,-1052.01 156.231,-1375.66c9.974,-79.067 45.864,-135.956 82.098,-195.921c38.46,-63.647 77.441,-130.492 91.122,-226.794c45.644,-321.274 54.292,-690.048 58.348,-1016.24c0.39,-31.321 0.153,-67.156 -16.375,-94.147c-27.37,-44.695 -98.063,-84.311 -195.881,-115.522c-218.143,-69.604 -573.174,-102.878 -848.659,-92.959c-257.17,9.26 -463.521,44.288 -602.231,87.945c-95.903,30.185 -160.17,65.27 -188.522,98.318Zm25.299,21.704c25.923,-30.216 85.543,-60.627 173.231,-88.226c136.673,-43.017 340.028,-77.306 593.422,-86.429c271.796,-9.786 622.106,22.731 837.328,91.403c87.914,28.051 152.987,61.004 177.586,101.174c13.349,21.799 11.786,51.028 11.472,76.324c-4.04,324.815 -12.568,692.041 -58.02,1011.96c-12.936,91.057 -50.284,154.063 -86.649,214.244c-38.59,63.863 -76.018,124.781 -86.64,208.988c-40.577,321.668 -44.19,1094.26 -154.084,1367.39c-32.025,79.594 -109.65,125.529 -200.912,152.548c-142.804,42.278 -319.363,37.663 -422.301,31.716c-175.821,-10.159 -285.308,-30.406 -355.147,-83.754c-50.95,-38.919 -79.736,-95.672 -98.769,-178.076c-19.936,-86.31 -28.914,-199.86 -38.827,-349.541c-16.45,-248.392 -45.216,-612.908 -60.477,-861.258c-7.808,-127.063 -42.088,-196.82 -79.26,-262.788c-35.344,-62.725 -73.61,-121.774 -91.875,-228.227c-49.561,-288.869 -73.84,-550.642 -77.534,-839.992c-1.249,-97.845 -4.64,-168.236 -0.354,-216.759c2.483,-28.1 6.955,-48.044 17.81,-60.696Z" style="fill:#7e4021;"/><path d="M575.537,2566.95c19.741,-39.812 56.133,-87.601 118.455,-80.997c54.756,5.802 89.659,46.493 113.288,98.372c38.471,84.464 46.95,198.803 51.048,263.548c25.354,400.603 23.669,818.588 43.942,1181.3c0.513,9.185 8.386,16.224 17.57,15.711c9.185,-0.513 16.224,-8.387 15.711,-17.571c-20.277,-362.787 -18.597,-780.86 -43.957,-1181.55c-4.281,-67.653 -13.78,-187.002 -53.979,-275.26c-28.818,-63.272 -73.329,-110.627 -140.111,-117.703c-78.8,-8.35 -126.871,48.999 -151.831,99.337c-4.086,8.242 -0.713,18.25 7.528,22.336c8.241,4.086 18.249,0.713 22.336,-7.528Z" style="fill:#7e4021;"/><path d="M1026.7,4030.46c9.004,-157.754 -44.186,-1213.88 11.829,-1445.48c25.807,-106.704 113.256,-135.505 181.313,-122.764c28.215,5.282 53.148,17.474 68.177,34.566c60.456,68.755 65.562,125.753 62.697,272.685c-7.764,398.276 -17.154,862.288 -21.682,1260.78c-0.105,9.198 7.278,16.751 16.476,16.855c9.198,0.105 16.751,-7.278 16.855,-16.476c4.527,-398.406 13.916,-862.319 21.678,-1260.51c3.11,-159.513 -5.358,-220.704 -70.991,-295.346c-19.301,-21.95 -50.843,-38.536 -87.076,-45.319c-82.318,-15.411 -188.631,18.628 -219.847,147.692c-56.245,232.552 -3.667,1293.02 -12.708,1451.42c-0.524,9.184 6.507,17.065 15.69,17.589c9.184,0.525 17.065,-6.506 17.589,-15.69Z" style="fill:#7e4021;"/><path d="M1793.53,2552.14c-24.96,-50.338 -73.031,-107.687 -151.831,-99.337c-66.781,7.076 -111.292,54.431 -140.111,117.703c-40.198,88.258 -49.697,207.607 -53.979,275.26c-25.36,400.685 -23.68,818.758 -43.957,1181.55c-0.513,9.184 6.527,17.058 15.711,17.571c9.184,0.513 17.057,-6.526 17.571,-15.711c20.273,-362.712 18.587,-780.697 43.942,-1181.3c4.098,-64.745 12.576,-179.084 51.047,-263.548c23.629,-51.879 58.533,-92.57 113.289,-98.372c62.322,-6.604 98.714,41.185 118.455,80.997c4.086,8.241 14.094,11.614 22.335,7.528c8.242,-4.086 11.615,-14.094 7.528,-22.336Z" style="fill:#7e4021;"/><path d="M1174.56,698.137c-333.994,-0 -634.844,31.39 -844.627,81.322c-130.019,30.947 -225.564,69.55 -273.986,111.599c-26.997,23.444 -40.302,48.56 -40.302,73.829c0,25.268 13.305,50.385 40.302,73.829c48.422,42.049 143.967,80.652 273.986,111.599c209.783,49.932 510.633,81.322 844.627,81.322c333.995,-0 634.845,-31.39 844.627,-81.322c130.02,-30.947 225.565,-69.55 273.987,-111.599c26.997,-23.444 40.301,-48.561 40.301,-73.829c0,-25.269 -13.304,-50.385 -40.301,-73.829c-48.422,-42.049 -143.967,-80.652 -273.987,-111.599c-209.782,-49.932 -510.632,-81.322 -844.627,-81.322Zm0,33.333c330.936,0 629.048,30.941 836.909,80.416c101.925,24.26 181.868,52.797 232.654,84.549c35.046,21.911 56.019,43.936 56.019,68.452c0,24.516 -20.973,46.541 -56.019,68.452c-50.786,31.752 -130.729,60.288 -232.654,84.548c-207.861,49.475 -505.973,80.416 -836.909,80.416c-330.936,0 -629.047,-30.941 -836.908,-80.416c-101.925,-24.26 -181.868,-52.796 -232.654,-84.548c-35.046,-21.911 -56.019,-43.936 -56.019,-68.452c-0,-24.516 20.973,-46.541 56.019,-68.452c50.786,-31.752 130.729,-60.289 232.654,-84.549c207.861,-49.475 505.972,-80.416 836.908,-80.416Z" style="fill:#7e4021;"/><path d="M1466.51,1027.76c6.785,-41.244 175.574,-608.248 261.449,-782.389c60.895,-123.485 115.349,-190.019 236.815,-220.193c133.511,-33.166 349.503,40.289 486.502,131.619c29.428,19.619 -36.596,145.942 -63.919,157.941c-31.292,13.742 -221.708,-137.105 -368.899,-69.707c-167.748,76.81 -286.642,728.835 -301.661,785.006c-10.387,38.845 -258.489,47.59 -250.287,-2.277Z" style="fill:#fff;"/><path d="M1450.06,1025.06c-1.961,11.922 2.384,22.634 13.429,31.291c9.869,7.736 27.091,13.979 48.693,17.668c51.705,8.828 130.493,5.046 175.716,-7.71c13.407,-3.781 24.15,-8.496 31.25,-13.588c7.697,-5.519 12.038,-11.99 13.745,-18.373c10.474,-39.174 71.53,-369.264 164.62,-590.018c23.374,-55.428 48.691,-103.864 75.873,-138.534c16.727,-21.336 33.929,-37.33 52.006,-45.607c48.003,-21.98 100.961,-18.517 150.748,-5.969c52.324,13.188 101.305,36.569 138.513,53.897c24.238,11.288 43.944,20.042 56.961,22.896c9.685,2.124 17.24,1.273 22.439,-1.01c7.379,-3.24 17.558,-12.33 27.728,-25.904c19.591,-26.148 41.801,-69.635 50.004,-102.795c3.544,-14.325 4.427,-27.048 2.528,-36.496c-1.998,-9.938 -6.842,-17.236 -13.797,-21.873c-140.644,-93.76 -362.703,-167.975 -499.766,-133.927c-126.724,31.48 -184.213,100.165 -247.744,228.997c-86.385,175.176 -256.122,745.566 -262.946,787.055Zm991.186,-854.904c0.196,0.945 0.78,3.964 0.755,6.13c-0.058,4.991 -1.027,10.759 -2.574,17.013c-7.251,29.314 -27.004,67.698 -44.322,90.813c-5.132,6.85 -9.475,12.442 -13.305,14.757c-1.397,-0.218 -4.841,-0.798 -7.388,-1.573c-11.443,-3.48 -27.027,-10.706 -45.687,-19.396c-46.732,-21.764 -111.326,-52.331 -178.282,-63.01c-46.779,-7.46 -94.658,-5.279 -138.929,14.992c-22.183,10.157 -43.833,29.164 -64.361,55.348c-28.701,36.609 -55.674,87.621 -80.354,146.148c-92.887,220.271 -154.366,548.519 -165.796,593.148c-0.634,0.528 -2.093,1.694 -3.212,2.351c-4.763,2.797 -11.263,5.185 -18.942,7.351c-41.449,11.69 -113.667,15.025 -161.057,6.933c-10.608,-1.811 -19.88,-4.16 -27.02,-7.275c-2.877,-1.255 -6.274,-3.719 -7.578,-4.705c9.649,-50.271 175.146,-604.954 259.708,-776.434c58.259,-118.14 109.677,-182.521 225.885,-211.389c129.713,-32.222 339.086,40.135 472.459,128.798Z" style="fill:#7e4021;"/><path d="M1983.95,241.182c-1.079,-0.384 -2.172,-0.814 -3.151,-1.273c-6.4,-2.994 -13.724,-7.497 -21.639,-12.97c-50.264,-34.757 -121.465,-106.969 -131.16,-117.294c-6.297,-6.706 -16.853,-7.038 -23.559,-0.741c-6.706,6.296 -7.038,16.852 -0.741,23.558c11.615,12.37 107.721,109.141 158.736,135.549c10.074,5.215 18.957,7.919 25.8,8.259c8.461,0.422 15.135,-2.147 20.143,-6.692c5.303,-4.812 8.697,-11.552 9.369,-20.352c0.857,-11.213 -3.781,-28.007 -12.995,-47.18c-25.927,-53.952 -86.874,-132.497 -102.045,-150.283c-5.969,-6.999 -16.497,-7.835 -23.496,-1.865c-6.999,5.969 -7.834,16.497 -1.865,23.496c14.455,16.947 72.659,91.687 97.361,143.09c4.486,9.335 7.851,17.746 9.242,24.698Z" style="fill:#7e4021;"/><path d="M1962.05,38.884c35.37,56.78 53.531,127.847 56.942,194.369c0.471,9.186 8.312,16.262 17.499,15.791c9.186,-0.471 16.262,-8.312 15.791,-17.499c-3.692,-72 -23.656,-148.83 -61.939,-210.286c-4.864,-7.807 -15.151,-10.198 -22.959,-5.334c-7.807,4.863 -10.198,15.151 -5.334,22.959Z" style="fill:#7e4021;"/><path d="M2417.47,200.145c-9.692,5.509 -16.595,13.377 -22.733,20.97c-3.767,4.66 -7.35,9.422 -10.188,14.554c-4.168,7.538 -2.006,38.068 28.789,35.604c24.66,-1.974 44.912,-94.307 4.132,-71.128Z" style="fill:#7e4021;"/><path d="M2409.23,185.655c-11.633,6.613 -20.091,15.869 -27.458,24.982c-4.384,5.423 -8.509,10.994 -11.812,16.966c-2.322,4.2 -4.35,12.134 -3.438,21.212c1.114,11.086 6.362,23.716 17.594,31.624c7.223,5.085 17.076,8.525 30.548,7.447c8.38,-0.671 17.26,-5.692 24.478,-15.151c10.892,-14.274 18.769,-39.989 18.249,-58.6c-0.475,-17.009 -8.314,-28.702 -18.952,-32.693c-6.945,-2.605 -16.732,-2.878 -29.209,4.213Zm14.852,29.956c0.039,2.562 -0.199,5.341 -0.626,8.206c-1.237,8.294 -4.092,17.24 -7.931,24.198c-1.372,2.487 -4.065,5.632 -5.033,6.727c-2.964,0.099 -5.309,-0.308 -7.054,-1.468c-3.539,-2.352 -3.713,-8.972 -3.701,-10.591c2.269,-3.893 5.066,-7.514 7.957,-11.09c4.559,-5.64 9.496,-11.63 16.388,-15.982Z" style="fill:#7e4021;"/><path d="M2356.62,184.19c16.315,-21.154 39.034,-28.968 57.59,-27.307c9.864,0.883 18.615,4.12 22.836,10.388c5.137,7.631 15.503,9.654 23.133,4.517c7.63,-5.138 9.654,-15.504 4.517,-23.134c-6.975,-10.358 -18.762,-18.471 -33.529,-22.49c-29.637,-8.065 -72.178,0.372 -100.942,37.67c-5.618,7.284 -4.265,17.758 3.019,23.376c7.284,5.617 17.758,4.264 23.376,-3.02Z" style="fill:#7e4021;"/><path d="M1416.24,967.534c-24.21,2.159 -49.28,11.491 -66.1,24.665c-13.736,10.759 -22.149,24.214 -23.459,38.311c-1.927,20.748 10.579,40.98 30.505,57.007c25.19,20.26 61.41,34.067 79.097,36.571c9.108,1.289 17.549,-5.059 18.838,-14.167c1.289,-9.107 -5.059,-17.548 -14.166,-18.837c-14.1,-1.996 -42.796,-13.39 -62.878,-29.542c-10.279,-8.268 -19.2,-17.245 -18.205,-27.949c0.542,-5.843 5.129,-10.692 10.823,-15.152c12.31,-9.642 30.787,-16.125 48.506,-17.705c9.162,-0.817 15.937,-8.919 15.12,-18.082c-0.817,-9.162 -8.919,-15.937 -18.081,-15.12Z" style="fill:#7e4021;"/><path d="M1616.06,1134c7.733,0.468 15.786,-0.363 23.485,-0.94c14.469,-1.083 28.951,-1.816 43.431,-2.721c44.964,-2.807 99.025,-8.033 137.369,-34.147c25.027,-17.043 32.084,-61.127 3.467,-86.808c-6.846,-6.143 -17.392,-5.573 -23.536,1.274c-6.143,6.846 -5.573,17.392 1.273,23.535c11.348,10.183 9.957,27.69 0.033,34.448c-33.586,22.873 -81.298,25.97 -120.683,28.43c-14.618,0.913 -29.237,1.655 -43.843,2.749c-6.225,0.466 -12.73,1.286 -18.983,0.907c-9.182,-0.555 -17.087,6.448 -17.643,15.63c-0.555,9.182 6.448,17.087 15.63,17.643Z" style="fill:#7e4021;"/></g></svg>