<?xml version="1.0" encoding="UTF-8" standalone="no"?><!DOCTYPE svg PUBLIC "-//W3C//DTD SVG 1.1//EN" "http://www.w3.org/Graphics/SVG/1.1/DTD/svg11.dtd"><svg width="100%" height="100%" viewBox="0 0 2710 2750" version="1.1" xmlns="http://www.w3.org/2000/svg" xmlns:xlink="http://www.w3.org/1999/xlink" xml:space="preserve" xmlns:serif="http://www.serif.com/" style="fill-rule:evenodd;clip-rule:evenodd;stroke-linejoin:round;stroke-miterlimit:2;"><g id="Mug-Rainbow"><path d="M958.167,853.829c269.768,0 778.374,-20.362 905.062,-154.939c4.727,1022.51 -50.373,1699.83 -50.373,1763.53c-0,149.426 -381.754,270.741 -851.968,270.741c-470.214,0 -851.968,-121.315 -851.968,-270.741c-0,-66.571 -32.07,-886.774 -29.857,-1737.48c187.543,80.431 618.377,128.891 879.104,128.891Z" style="fill:#e0f0ff;"/><path d="M958.167,837.162c-147.395,0 -349.415,-15.575 -530.652,-43.69c-136.859,-21.232 -261.821,-49.516 -341.883,-83.851c-5.142,-2.206 -11.048,-1.683 -15.724,1.39c-4.675,3.074 -7.497,8.289 -7.511,13.884c-0.793,304.72 2.811,605.527 7.765,869.217c8.875,472.408 22.091,825.589 22.091,868.309c0,30.064 12.947,59.373 38.104,86.872c35.291,38.574 95.64,74.15 175.434,103.971c157.736,58.95 392.758,96.565 655.097,96.565c262.338,0 497.36,-37.615 655.096,-96.565c79.794,-29.821 140.144,-65.397 175.435,-103.972c25.157,-27.498 38.103,-56.807 38.103,-86.871c0,-42.867 24.983,-363.791 39.853,-880.866c7.223,-251.148 12.066,-548.517 10.521,-882.742c-0.032,-6.819 -4.213,-12.93 -10.558,-15.43c-6.344,-2.499 -13.57,-0.882 -18.244,4.083c-20.094,21.345 -50.605,39.36 -88.384,54.999c-65.964,27.307 -153.529,46.836 -249.028,60.876c-188.622,27.732 -407.955,33.821 -555.515,33.821Zm0,33.334c173.838,-0 446.345,-8.488 653.104,-50.174c98.803,-19.92 182.735,-47.954 235.434,-85.419c1.049,319.209 -3.696,603.899 -10.649,845.694c-14.886,517.636 -39.867,838.911 -39.867,881.824c0,29.196 -17.715,56.578 -48.252,82.399c-48.756,41.227 -129.299,77.183 -231.882,105.62c-148.544,41.177 -342.762,66.056 -555.167,66.056c-212.405,-0 -406.624,-24.879 -555.168,-66.056c-102.582,-28.437 -183.125,-64.392 -231.881,-105.619c-30.538,-25.822 -48.253,-53.204 -48.253,-82.4c0,-42.75 -13.215,-396.186 -22.097,-868.936c-4.817,-256.372 -8.356,-547.861 -7.814,-843.897c81.854,31.017 199.216,57.041 326.73,76.823c182.982,28.386 386.948,44.085 535.762,44.085Z" style="fill:#7e4021;"/><path d="M1274.85,981.41c14.058,0.836 27.836,1.962 41.97,1.751c45.69,-0.68 105.239,-8.813 149.333,-20.738c8.88,-2.402 14.139,-11.56 11.738,-20.44c-2.401,-8.88 -11.56,-14.139 -20.44,-11.738c-41.671,11.27 -97.948,18.944 -141.127,19.587c-13.302,0.198 -26.266,-0.91 -39.496,-1.696c-9.183,-0.546 -17.081,6.466 -17.626,15.648c-0.546,9.183 6.466,17.081 15.648,17.626Z" style="fill:#7e4021;"/><path d="M1546.74,945.927c4.176,-0.861 8.359,-1.689 12.526,-2.59c14.064,-3.042 27.964,-6.854 41.564,-11.555c8.694,-3.005 13.313,-12.504 10.307,-21.197c-3.005,-8.694 -12.503,-13.313 -21.197,-10.307c-12.342,4.266 -24.958,7.718 -37.72,10.478c-4.062,0.879 -8.141,1.685 -12.211,2.524c-9.009,1.858 -14.815,10.68 -12.958,19.69c1.858,9.009 10.68,14.815 19.689,12.957Z" style="fill:#7e4021;"/><path d="M93.257,1393.08c-3.901,-47.518 -9.609,-207.823 -7.078,-270.895c42.979,-9.646 88.412,-22.262 133.191,-28.368c580.423,-79.144 1115.11,327.223 1194.25,907.646l-262.738,35.826c-59.358,-435.318 -460.371,-740.093 -895.689,-680.735c-50.945,6.947 -114.943,20.714 -161.938,36.526Z" style="fill:#f8a5b0;"/><path d="M76.646,1394.44c0.42,5.108 3.166,9.74 7.448,12.558c4.281,2.818 9.621,3.509 14.478,1.875c46.105,-15.513 108.895,-28.994 158.875,-35.809c426.197,-58.115 818.809,240.275 876.924,666.472c1.243,9.121 9.645,15.506 18.765,14.262l262.738,-35.825c9.12,-1.244 15.505,-9.646 14.262,-18.766c-80.388,-589.543 -623.475,-1002.3 -1213.02,-921.908c-45.246,6.169 -91.161,18.874 -134.589,28.62c-7.366,1.653 -12.701,8.051 -13.004,15.594c-2.549,63.545 3.191,225.052 7.121,272.927Zm31.8,-23.632c-3.412,-57.916 -7.249,-174.735 -5.989,-235.261c38.747,-9.053 79.215,-19.773 119.164,-25.22c565.788,-77.149 1087.42,314.403 1173.11,876.887c-0,0 -229.747,31.328 -229.747,31.328c-68.355,-435.616 -473.116,-738.355 -912.036,-678.506c-44.824,6.112 -99.56,17.424 -144.498,30.772l-0,0Z" style="fill:#7e4021;"/><path d="M87.453,1707.97c-0.396,-10.984 -0.426,-199.591 0.638,-326.052c43.385,-13.687 118.625,-32.778 165.228,-39.133c442.917,-60.394 850.932,249.702 911.326,692.619l-293.294,39.993c-38.307,-280.936 -297.104,-477.625 -578.04,-439.317c-58.29,7.948 -156.168,46.729 -205.858,71.89Z" style="fill:#dae1a4;"/><path d="M70.797,1708.57c0.205,5.681 3.291,10.866 8.187,13.754c4.896,2.889 10.926,3.083 15.998,0.515c48.431,-24.524 143.768,-62.499 200.581,-70.246c271.815,-37.063 522.21,153.24 559.274,425.055c1.244,9.121 9.645,15.506 18.766,14.262l293.294,-39.992c9.12,-1.244 15.505,-9.645 14.262,-18.766c-61.638,-452.037 -478.054,-768.518 -930.092,-706.88c-47.38,6.46 -123.882,25.836 -167.991,39.752c-6.886,2.172 -11.591,8.533 -11.651,15.754c-1.066,126.748 -1.025,315.783 -0.628,326.792Zm33.126,-26.964c-0.167,-55.429 -0.028,-187.47 0.736,-287.34c43.514,-13.027 108.991,-29.251 150.912,-34.967c428.278,-58.398 823.237,236.892 890.138,661.866c0,0 -260.351,35.501 -260.351,35.501c-47.232,-281.225 -309.768,-475.898 -594.298,-437.1c-51.419,7.011 -132.927,37.291 -187.137,62.04l0,0Z" style="fill:#7e4021;"/><path d="M95.695,2070.69c-4.321,-99.387 -4.783,-326.376 -7.69,-407.196c59.912,-34.219 127.263,-57.743 199.821,-67.637c303.152,-41.336 582.415,170.907 623.751,474.058l-274.452,37.424c-20.668,-151.576 -160.3,-257.698 -311.876,-237.03c-113.053,15.416 -200.821,97.011 -229.554,200.381Z" style="fill:#a8ccf1;"/><path d="M79.044,2071.41c0.356,8.19 6.614,14.904 14.758,15.835c8.144,0.931 15.755,-4.197 17.951,-12.095c27.005,-97.153 109.494,-173.841 215.748,-188.33c142.456,-19.424 273.686,80.312 293.11,222.767c1.244,9.121 9.645,15.506 18.766,14.262l274.452,-37.423c9.12,-1.243 15.506,-9.645 14.262,-18.765c-42.58,-312.272 -330.244,-530.901 -642.516,-488.321c-74.744,10.192 -144.12,34.429 -205.836,69.679c-5.381,3.073 -8.613,8.878 -8.39,15.071c2.908,80.845 3.373,307.903 7.695,407.32Zm31.073,-76.505c-2.265,-105.892 -3.068,-252.444 -5.124,-321.815c55.896,-30.551 118.21,-51.603 185.085,-60.722c288.507,-39.34 554.706,158.116 602.482,443.317c0,-0 -185.299,25.266 -241.634,32.948c-29.425,-151.846 -172.774,-255.997 -327.928,-234.84c-92.312,12.587 -168.721,66.793 -212.881,141.111l-0,0.001Z" style="fill:#7e4021;"/><path d="M1045.25,1830.63c95.378,-92.656 236.814,-88.302 306.38,15.09c21.296,31.651 48.471,106.913 48.471,106.913c0,0 156.491,66.138 159.433,183.225c1.194,47.548 -13.934,100.205 -49.163,133.567c-75.379,71.386 -192.701,59.627 -192.701,59.627c0,0 -30.31,129.065 -174.932,164.862c-3.339,0.827 -6.694,1.599 -10.069,2.271c-17.33,3.449 -34.413,4.109 -52.025,3.258c-114.513,-5.532 -185.297,-105.236 -185.297,-105.236c-0,0 -75.729,56.89 -177.108,48.017c-94.333,-8.256 -140.193,-56.474 -148.273,-66.872c-76.402,-98.321 11.533,-166.436 11.533,-166.436c0,-0 -133.082,-60.243 -125.16,-162.104c1.205,-15.486 5.046,-29.838 11.353,-44.029c15.696,-35.316 42.975,-64.594 76.113,-84.405c52.594,-31.442 159.137,-40.278 159.137,-40.278c-0,-0 55.962,-96.502 164.392,-118.95c49.943,-10.34 139.015,22.155 177.916,71.48Z" style="fill:#fff;"/><path d="M1046.42,1807.01c-26.018,-25.816 -64.101,-46.358 -101.366,-57.359c-29.742,-8.781 -58.912,-11.417 -81.096,-6.825c-96.868,20.055 -154.503,95.486 -170.7,119.511c-26.827,2.974 -112.057,14.266 -158.002,41.732c-36.074,21.566 -65.705,53.498 -82.791,91.942c-7.091,15.954 -11.385,32.096 -12.739,49.506c-3.558,45.749 17.639,84.252 45.048,113.71c23.239,24.975 50.76,43.251 69.166,53.925c-14.26,17.016 -32.084,45.77 -31.84,82.997c0.171,25.927 8.91,56.227 34.709,89.426c8.74,11.249 57.935,64.318 159.98,73.249c81.74,7.154 147.797,-25.926 175.066,-42.418c24.409,28.31 91.792,95.034 187.987,99.681c18.988,0.917 37.401,0.159 56.083,-3.559c3.627,-0.722 7.232,-1.55 10.821,-2.438c125.569,-31.082 170.493,-128.03 183.042,-163.799c34.728,0.667 127.664,-3.796 192.046,-64.767c38.583,-36.538 55.672,-94.014 54.364,-146.088c-1.292,-51.42 -28.995,-94.168 -62.448,-126.621c-38.253,-37.11 -83.608,-60.511 -100.438,-68.48c-7.351,-19.503 -29.716,-76.969 -47.851,-103.922c-72.309,-107.469 -216.233,-117.445 -319.041,-29.403Zm-14.253,33.938c2.922,3.706 7.278,5.998 11.986,6.31c4.709,0.311 9.329,-1.388 12.714,-4.676c87.437,-84.943 217.163,-82.345 280.938,12.439c20.556,30.551 46.623,103.27 46.623,103.27c1.578,4.37 4.908,7.883 9.188,9.691c-0,0 53.506,22.638 96.925,64.759c27.487,26.666 51.273,61.281 52.334,103.532c1.081,43.024 -12.084,90.86 -43.961,121.048c-70.199,66.48 -179.579,55.145 -179.579,55.145c-8.323,-0.834 -15.975,4.63 -17.887,12.773c-0,-0 -28.544,119.284 -162.711,152.494c-3.091,0.765 -6.195,1.481 -9.318,2.103c-15.977,3.18 -31.73,3.741 -47.968,2.956c-106.681,-5.153 -172.511,-98.236 -172.511,-98.236c-2.604,-3.668 -6.58,-6.127 -11.025,-6.82c-4.444,-0.692 -8.98,0.441 -12.576,3.143c0,-0 -70.851,53.035 -165.644,44.739c-86.625,-7.582 -129.146,-50.947 -136.566,-60.496c-20.044,-25.794 -27.564,-49.048 -27.696,-69.192c-0.299,-45.568 36.275,-73.841 36.275,-73.841c4.621,-3.58 7.029,-9.317 6.347,-15.122c-0.682,-5.805 -4.355,-10.828 -9.68,-13.238c0,0 -44.886,-20.334 -79.197,-57.209c-21.413,-23.013 -38.999,-52.678 -36.219,-88.418c1.055,-13.563 4.443,-26.125 9.966,-38.553c14.306,-32.187 39.233,-58.813 69.435,-76.869c50.184,-30.001 151.962,-37.973 151.962,-37.973c5.434,-0.451 10.305,-3.532 13.04,-8.249c0,0 52.196,-90.048 153.354,-110.99c22.464,-4.651 53.648,0.883 83.671,12.575c30.534,11.891 59.984,30.341 77.78,52.905Z" style="fill:#7e4021;"/><path d="M851.596,2148.32c15.766,98.25 105.544,131.775 180.864,111.93c50.375,-13.272 93.817,-50.428 104.503,-107.109c1.705,-9.039 -4.251,-17.762 -13.29,-19.466c-9.039,-1.704 -17.762,4.251 -19.466,13.29c-8.144,43.2 -41.846,70.937 -80.239,81.052c-57.832,15.237 -127.355,-9.542 -139.46,-84.978c-1.458,-9.083 -10.015,-15.273 -19.097,-13.816c-9.082,1.458 -15.273,10.015 -13.815,19.097Z" style="fill:#7d3f21;"/><path d="M901.263,1988.35c-2.056,23.501 -3.829,47.031 -5.878,70.53c-0.799,9.164 5.992,17.252 15.156,18.051c9.164,0.799 17.253,-5.992 18.052,-15.156c2.048,-23.495 3.821,-47.022 5.876,-70.52c0.802,-9.164 -5.987,-17.254 -15.151,-18.056c-9.163,-0.801 -17.254,5.988 -18.055,15.151Z" style="fill:#7d3f21;"/><path d="M1072.57,1988.76c-2.056,23.501 -3.828,47.031 -5.877,70.53c-0.799,9.164 5.992,17.252 15.156,18.051c9.163,0.799 17.252,-5.992 18.051,-15.156c2.049,-23.495 3.821,-47.023 5.877,-70.52c0.801,-9.164 -5.988,-17.254 -15.151,-18.056c-9.164,-0.801 -17.254,5.987 -18.056,15.151Z" style="fill:#7d3f21;"/><ellipse cx="969.124" cy="617.598" rx="951.794" ry="287.106" style="fill:#fff;"/><path d="M969.124,313.825c-290.368,-0 -550.748,39.178 -726.686,100.755c-89.104,31.185 -156.885,68.403 -197.054,108.84c-29.534,29.732 -44.721,61.563 -44.721,94.178c0,32.614 15.187,64.446 44.721,94.177c40.169,40.438 107.95,77.656 197.054,108.841c175.938,61.576 436.318,100.755 726.686,100.755c290.368,-0 550.747,-39.179 726.686,-100.755c89.104,-31.185 156.884,-68.403 197.054,-108.841c29.534,-29.731 44.721,-61.563 44.721,-94.177c-0,-32.615 -15.187,-64.446 -44.721,-94.178c-40.17,-40.437 -107.95,-77.655 -197.054,-108.84c-175.939,-61.577 -436.318,-100.755 -726.686,-100.755Zm-0,33.333c235.702,0 451.379,26.011 617.015,69.113c114.972,29.919 205.577,67.837 261.144,111.309c36.015,28.177 56.968,58.031 56.968,90.018c0,31.986 -20.953,61.841 -56.968,90.017c-55.567,43.473 -146.171,81.391 -261.144,111.309c-165.636,43.103 -381.313,69.113 -617.015,69.113c-235.702,0 -451.38,-26.01 -617.016,-69.113c-114.972,-29.918 -205.576,-67.836 -261.143,-111.309c-36.015,-28.176 -56.969,-58.031 -56.969,-90.017c0,-31.987 20.953,-61.841 56.968,-90.017c55.568,-43.473 146.172,-81.391 261.144,-111.31c165.636,-43.102 381.314,-69.113 617.016,-69.113Z" style="fill:#7e4021;"/><path d="M937.433,33.326c7.19,-10.414 19.036,-16.631 31.691,-16.631c12.654,-0 24.501,6.217 31.69,16.631l78.292,113.406c0.926,1.341 2.072,2.515 3.39,3.473c1.318,0.957 2.789,1.685 4.351,2.151l132.049,39.415c12.126,3.62 21.699,12.965 25.61,25c3.91,12.036 1.658,25.224 -6.024,35.279l-83.662,109.505c-0.99,1.294 -1.752,2.747 -2.256,4.297c-0.503,1.55 -0.74,3.173 -0.701,4.802l3.319,137.767c0.305,12.65 -5.625,24.643 -15.863,32.081c-10.237,7.439 -23.476,9.372 -35.413,5.173l-129.998,-45.729c-1.537,-0.541 -3.155,-0.817 -4.784,-0.817c-1.63,0 -3.247,0.276 -4.784,0.817l-129.998,45.729c-11.937,4.199 -25.176,2.266 -35.414,-5.173c-10.237,-7.438 -16.167,-19.431 -15.862,-32.081l3.319,-137.767c0.039,-1.629 -0.198,-3.252 -0.702,-4.802c-0.503,-1.55 -1.266,-3.003 -2.255,-4.297l-83.662,-109.505c-7.683,-10.055 -9.935,-23.243 -6.024,-35.279c3.91,-12.035 13.484,-21.38 25.61,-25l132.049,-39.415c1.561,-0.466 3.032,-1.194 4.35,-2.151c1.319,-0.958 2.465,-2.132 3.391,-3.473l78.291,-113.406Z" style="fill:#fee4a8;"/><path d="M845.876,136.612l-131.291,39.189c-8.687,2.593 -16.46,7.237 -22.761,13.388c-6.302,6.152 -11.132,13.81 -13.933,22.432c-2.802,8.622 -3.396,17.657 -1.913,26.337c1.482,8.681 5.04,17.007 10.544,24.211l83.182,108.875l-3.3,136.975c-0.219,9.063 1.796,17.891 5.699,25.784c3.903,7.894 9.695,14.854 17.029,20.183c7.334,5.329 15.743,8.686 24.457,9.958c8.714,1.273 17.732,0.462 26.284,-2.547l129.251,-45.466l129.251,45.466c8.552,3.009 17.57,3.82 26.284,2.547c8.713,-1.272 17.122,-4.629 24.457,-9.958c7.334,-5.329 13.125,-12.289 17.028,-20.183c3.903,-7.893 5.918,-16.721 5.7,-25.784l-3.3,-136.975l83.182,-108.875c5.503,-7.204 9.062,-15.53 10.544,-24.211c1.482,-8.68 0.888,-17.715 -1.913,-26.337c-2.802,-8.622 -7.632,-16.28 -13.933,-22.432c-6.301,-6.151 -14.074,-10.795 -22.761,-13.388l-131.291,-39.189l-77.842,-112.755c-5.15,-7.461 -11.969,-13.418 -19.767,-17.51c-7.797,-4.092 -16.574,-6.319 -25.639,-6.319c-9.066,0 -17.842,2.227 -25.64,6.319c-7.797,4.092 -14.616,10.049 -19.766,17.51l-77.842,112.755Zm105.273,-93.818c2.039,-2.953 4.738,-5.311 7.825,-6.931c3.087,-1.62 6.561,-2.502 10.15,-2.502c3.589,0 7.063,0.882 10.15,2.502c3.086,1.62 5.786,3.978 7.825,6.931c-0,0 78.291,113.407 78.291,113.407c0.998,1.445 2.115,2.801 3.338,4.053c1.222,1.253 2.551,2.402 3.972,3.434c1.421,1.033 2.924,1.941 4.493,2.717c1.569,0.776 3.204,1.419 4.887,1.921c-0,0 132.049,39.416 132.049,39.416c3.439,1.026 6.516,2.865 9.01,5.3c2.495,2.435 4.407,5.467 5.516,8.88c1.109,3.413 1.344,6.99 0.757,10.426c-0.586,3.436 -1.995,6.732 -4.174,9.584c0,-0 -83.662,109.504 -83.662,109.504c-1.067,1.396 -2.011,2.877 -2.824,4.427c-0.813,1.55 -1.496,3.168 -2.039,4.839c-0.542,1.67 -0.942,3.381 -1.195,5.113c-0.253,1.731 -0.359,3.485 -0.317,5.241c0,-0 3.319,137.766 3.319,137.766c0.087,3.588 -0.711,7.082 -2.256,10.207c-1.545,3.125 -3.838,5.88 -6.741,7.99c-2.904,2.109 -6.232,3.438 -9.682,3.942c-3.449,0.504 -7.019,0.183 -10.405,-1.008c0,-0 -129.998,-45.729 -129.998,-45.729c-1.657,-0.583 -3.357,-1.023 -5.082,-1.318c-1.726,-0.295 -3.476,-0.443 -5.232,-0.443c-1.757,-0 -3.507,0.148 -5.232,0.443c-1.725,0.295 -3.426,0.735 -5.083,1.318c0,-0 -129.998,45.729 -129.998,45.729c-3.385,1.191 -6.955,1.512 -10.404,1.008c-3.45,-0.504 -6.779,-1.833 -9.682,-3.942c-2.904,-2.11 -5.196,-4.865 -6.741,-7.99c-1.545,-3.125 -2.343,-6.619 -2.257,-10.207c0,0 3.32,-137.766 3.32,-137.766c0.042,-1.756 -0.065,-3.51 -0.318,-5.241c-0.253,-1.732 -0.652,-3.443 -1.195,-5.113c-0.543,-1.671 -1.225,-3.289 -2.038,-4.839c-0.814,-1.55 -1.758,-3.031 -2.824,-4.427c-0,0 -83.662,-109.504 -83.662,-109.504c-2.179,-2.852 -3.588,-6.148 -4.175,-9.584c-0.586,-3.436 -0.351,-7.013 0.758,-10.426c1.109,-3.413 3.021,-6.445 5.515,-8.88c2.495,-2.435 5.572,-4.274 9.011,-5.3c-0,-0 132.049,-39.416 132.049,-39.416c1.683,-0.502 3.317,-1.145 4.886,-1.921c1.569,-0.776 3.073,-1.684 4.494,-2.717c1.421,-1.032 2.749,-2.181 3.972,-3.434c1.222,-1.252 2.339,-2.608 3.337,-4.053c0,-0 78.292,-113.407 78.292,-113.407Z" style="fill:#7e4021;"/><path d="M281.749,500.395c-40.238,12.04 -79.495,28.768 -105.759,50.191c-20.263,16.527 -33.114,36.025 -35.669,57.857c-2.943,25.144 8.521,46.688 30.381,64.996c26.761,22.412 70.463,40.185 114.493,56.427c8.631,3.183 18.222,-1.239 21.405,-9.869c3.183,-8.63 -1.239,-18.221 -9.869,-21.405c-40.107,-14.794 -80.251,-30.293 -104.627,-50.708c-12.24,-10.251 -20.323,-21.488 -18.675,-35.566c1.615,-13.806 10.816,-25.45 23.63,-35.901c23.344,-19.041 58.482,-33.387 94.245,-44.088c8.812,-2.637 13.826,-11.932 11.189,-20.745c-2.636,-8.812 -11.932,-13.826 -20.744,-11.189Z" style="fill:#7e4021;"/><path d="M375.918,756.376c38.439,10.238 121.605,23.012 153.544,28.248c9.077,1.488 17.655,-4.673 19.143,-13.751c1.488,-9.077 -4.673,-17.655 -13.751,-19.143c-31.272,-5.126 -112.72,-17.54 -150.356,-27.565c-8.889,-2.367 -18.027,2.927 -20.395,11.816c-2.368,8.888 2.927,18.027 11.815,20.395Z" style="fill:#7e4021;"/><path d="M1825.59,886.05c108.353,-113.742 301.82,-133.187 405.315,-127.307c202.257,11.491 420.418,145.407 455.753,410.123c55.05,412.405 -255.46,584.742 -447.729,686.353c-144.613,76.426 -143.302,193.703 -281.012,215.766c-132.553,21.236 -233.16,-149.227 -111.525,-287.186c135.234,-153.383 554.981,-105.32 554.981,-504.959c-0,-82.357 -23.259,-185.699 -97.774,-223.551c-108.722,-55.227 -252.961,29.507 -367.683,72.828c-129.276,48.817 -241.263,-104.619 -110.326,-242.067Z" style="fill:#e0f0ff;"/><path d="M1813.52,874.554c-57.319,60.17 -71.063,123.496 -59.112,173.98c18.595,78.546 99.341,128.425 187.393,95.175c57.063,-21.548 121.45,-53.439 185.107,-73.032c59.603,-18.345 118.507,-26.249 169.14,-0.528c26.608,13.516 45.666,36.6 59.232,63.884c21.676,43.597 29.424,97.816 29.424,144.807c0,230.415 -146.283,305.088 -290.516,360.489c-102.833,39.5 -204.71,70.397 -260.3,133.448c-39.439,44.732 -57,92.738 -58.756,137.251c-4.215,106.824 82.276,193.938 185.419,177.414c73.757,-11.817 110.593,-48.642 148.044,-93.235c33.801,-40.247 68.215,-87.309 138.119,-124.252c196.718,-103.963 512.786,-281.347 456.463,-703.294c-36.559,-273.884 -262.067,-412.669 -471.329,-424.558c-106.895,-6.073 -306.415,14.973 -418.328,132.451l0,-0Zm24.135,22.991c104.794,-110.005 292.207,-127.849 392.302,-122.162c195.254,11.093 406.068,140.139 440.179,395.688c53.776,402.864 -251.175,570.152 -438.997,669.413c-74.709,39.482 -111.945,89.272 -148.069,132.286c-32.475,38.667 -63.837,71.512 -127.792,81.758c-119.187,19.095 -205.757,-135.658 -96.387,-259.707c52.598,-59.657 149.951,-87.002 247.249,-124.375c155.964,-59.907 311.898,-142.452 311.898,-391.606c-0,-51.837 -8.999,-111.555 -32.91,-159.648c-16.827,-33.842 -40.979,-61.997 -73.983,-78.762c-46.873,-23.81 -99.825,-24.073 -154.462,-12.122c-76.807,16.802 -157.128,57.962 -226.657,84.217c-67.08,25.33 -129.015,-11.832 -143.181,-71.67c-9.89,-41.775 3.379,-93.519 50.81,-143.309l0,-0.001Z" style="fill:#7e4021;"/><path d="M1714.74,2108.33c-4.762,61.102 -7.331,122.337 -10.894,183.511c-0.535,9.183 6.486,17.073 15.669,17.608c9.183,0.535 17.073,-6.486 17.607,-15.669c3.552,-60.957 6.106,-121.975 10.851,-182.86c0.714,-9.171 -6.151,-17.197 -15.322,-17.911c-9.17,-0.715 -17.196,6.15 -17.911,15.321Z" style="fill:#7e4021;"/><path d="M1699.03,2376.94c-5.029,29.643 -3.592,62.37 -4.751,92.394c-0.354,9.192 6.82,16.942 16.012,17.297c9.192,0.355 16.942,-6.82 17.297,-16.012c1.105,-28.626 -0.489,-59.841 4.306,-88.104c1.538,-9.069 -4.575,-17.681 -13.644,-19.22c-9.069,-1.538 -17.681,4.576 -19.22,13.645Z" style="fill:#7e4021;"/></g></svg>