<?xml version="1.0" encoding="UTF-8" standalone="no"?><!DOCTYPE svg PUBLIC "-//W3C//DTD SVG 1.1//EN" "http://www.w3.org/Graphics/SVG/1.1/DTD/svg11.dtd"><svg width="100%" height="100%" viewBox="0 0 2989 2969" version="1.1" xmlns="http://www.w3.org/2000/svg" xmlns:xlink="http://www.w3.org/1999/xlink" xml:space="preserve" xmlns:serif="http://www.serif.com/" style="fill-rule:evenodd;clip-rule:evenodd;stroke-linejoin:round;stroke-miterlimit:2;"><g id="Mug-Dots"><path d="M585.498,283.714c0,-0 -20.045,2009.99 -5.998,2326.31c9.091,204.713 359.124,351.283 1213.12,341.565c939.027,-10.686 1146.13,-176.284 1166.6,-354.097c15.452,-134.22 12.219,-2311.8 12.219,-2311.8l-2385.94,-1.979Z" style="fill:#fff;"/><path d="M585.512,267.047c-9.145,-0.007 -16.588,7.356 -16.679,16.501c-0,-0 -20.035,2010.77 -5.983,2327.22c3.858,86.896 63.938,165.367 194.645,225.852c186.062,86.102 519.293,137.512 1035.31,131.639c472.426,-5.376 760.69,-50.088 933.469,-115.452c180.453,-68.268 238.747,-159.972 249.503,-253.404c15.464,-134.332 12.328,-2313.73 12.328,-2313.73c-0.014,-9.189 -7.463,-16.634 -16.653,-16.642l-2385.94,-1.979Zm16.49,33.347l2352.79,1.952c0.269,201.36 2.513,2166.02 -12.133,2293.24c-9.714,84.385 -65.202,164.381 -228.183,226.039c-170.649,64.559 -455.451,107.988 -922.053,113.298c-508.773,5.79 -837.481,-43.666 -1020.93,-128.559c-115.643,-53.514 -171.93,-120.199 -175.344,-197.08c-13.294,-299.374 3.976,-2116.34 5.852,-2308.89l-0,0Z" style="fill:#7e4021;"/><circle cx="1438.41" cy="2244.51" r="153.182" style="fill:#ffce7b;"/><path d="M1438.41,2414.36c93.742,0 169.848,-76.106 169.848,-169.848c0,-93.742 -76.106,-169.848 -169.848,-169.848c-93.742,-0 -169.849,76.106 -169.849,169.848c0,93.742 76.107,169.848 169.849,169.848Zm-0,-33.333c-75.345,0 -136.515,-61.17 -136.515,-136.515c-0,-75.345 61.17,-136.515 136.515,-136.515c75.344,0 136.515,61.17 136.515,136.515c-0,75.345 -61.171,136.515 -136.515,136.515Z" style="fill:#7e4021;"/><circle cx="1501.56" cy="1567.04" r="153.182" style="fill:#f8bcc4;"/><path d="M1501.56,1736.89c93.742,0 169.849,-76.106 169.849,-169.848c-0,-93.742 -76.107,-169.849 -169.849,-169.849c-93.741,0 -169.848,76.107 -169.848,169.849c0,93.742 76.107,169.848 169.848,169.848Zm0,-33.333c-75.344,-0 -136.515,-61.171 -136.515,-136.515c0,-75.345 61.171,-136.515 136.515,-136.515c75.345,-0 136.515,61.17 136.515,136.515c0,75.344 -61.17,136.515 -136.515,136.515Z" style="fill:#7e4021;"/><circle cx="1862.28" cy="2689.64" r="153.182" style="fill:#f8bcc4;"/><path d="M1862.28,2859.49c93.742,-0 169.848,-76.107 169.848,-169.849c0,-93.742 -76.106,-169.848 -169.848,-169.848c-93.742,-0 -169.848,76.106 -169.848,169.848c-0,93.742 76.106,169.849 169.848,169.849Zm0,-33.334c-75.345,0 -136.515,-61.17 -136.515,-136.515c0,-75.344 61.17,-136.515 136.515,-136.515c75.345,0 136.515,61.171 136.515,136.515c0,75.345 -61.17,136.515 -136.515,136.515Z" style="fill:#7e4021;"/><circle cx="2578.69" cy="2479.16" r="153.182" style="fill:#f8bcc4;"/><path d="M2578.69,2649.01c93.741,0 169.848,-76.106 169.848,-169.848c-0,-93.742 -76.107,-169.849 -169.848,-169.849c-93.742,0 -169.849,76.107 -169.849,169.849c0,93.742 76.107,169.848 169.849,169.848Zm-0,-33.333c-75.345,-0 -136.515,-61.171 -136.515,-136.515c-0,-75.345 61.17,-136.515 136.515,-136.515c75.344,-0 136.515,61.17 136.515,136.515c-0,75.344 -61.171,136.515 -136.515,136.515Z" style="fill:#7e4021;"/><circle cx="2060.88" cy="2053.69" r="153.182" style="fill:#a8ccf1;"/><path d="M2060.88,2223.54c93.742,-0 169.849,-76.107 169.849,-169.849c-0,-93.741 -76.107,-169.848 -169.849,-169.848c-93.741,0 -169.848,76.107 -169.848,169.848c0,93.742 76.107,169.849 169.848,169.849Zm0,-33.334c-75.344,0 -136.515,-61.17 -136.515,-136.515c0,-75.344 61.171,-136.515 136.515,-136.515c75.345,0 136.515,61.171 136.515,136.515c0,75.345 -61.17,136.515 -136.515,136.515Z" style="fill:#7e4021;"/><circle cx="2801.21" cy="1859.35" r="153.182" style="fill:#ffce7b;"/><path d="M2801.21,2029.2c93.742,-0 169.848,-76.107 169.848,-169.849c0,-93.741 -76.106,-169.848 -169.848,-169.848c-93.742,0 -169.849,76.107 -169.849,169.848c0,93.742 76.107,169.849 169.849,169.849Zm-0,-33.334c-75.345,0 -136.515,-61.17 -136.515,-136.515c-0,-75.344 61.17,-136.515 136.515,-136.515c75.344,0 136.515,61.171 136.515,136.515c-0,75.345 -61.171,136.515 -136.515,136.515Z" style="fill:#7e4021;"/><path d="M2959.79,1300.46c-84.543,0 -153.182,-68.638 -153.182,-153.181c0,-84.544 68.639,-153.182 153.182,-153.182c11.873,4.399 6.5,265.014 -0,306.363Z" style="fill:#a8ccf1;"/><path d="M2959.79,1317.13c8.205,-0 15.19,-5.973 16.464,-14.079c5.269,-33.516 9.907,-209.213 5.352,-280.433c-1.083,-16.925 -3.168,-28.801 -5.195,-33.45c-2.927,-6.717 -7.527,-9.473 -10.831,-10.697c-1.853,-0.686 -3.814,-1.038 -5.79,-1.038c-93.742,0 -169.848,76.107 -169.848,169.849c-0,93.741 76.106,169.848 169.848,169.848Zm-12.766,-305.763c0.503,3.996 1.024,8.811 1.317,13.378c3.963,61.967 0.938,205.141 -3.411,258.251l0,-0c-68.366,-7.415 -121.655,-65.391 -121.655,-135.714c-0,-71.043 54.384,-129.484 123.749,-135.915Z" style="fill:#7e4021;"/><path d="M590.615,1292.5c84.543,-0 153.182,68.638 153.182,153.181c-0,84.544 -68.639,153.182 -153.182,153.182c-11.873,-4.398 -6.5,-265.014 -0,-306.363Z" style="fill:#f8bcc4;"/><path d="M590.615,1275.83c-8.206,0 -15.19,5.973 -16.465,14.079c-5.268,33.516 -9.906,209.213 -5.351,280.434c1.082,16.924 3.168,28.8 5.194,33.449c2.928,6.717 7.528,9.473 10.832,10.697c1.853,0.686 3.814,1.038 5.79,1.038c93.742,-0 169.848,-76.107 169.848,-169.849c0,-93.741 -76.106,-169.848 -169.848,-169.848Zm12.766,305.763c-0.503,-3.996 -1.025,-8.811 -1.317,-13.378c-3.963,-61.966 -0.938,-205.141 3.411,-258.25l-0,-0c68.366,7.414 121.655,65.39 121.655,135.713c-0,71.043 -54.384,129.484 -123.749,135.915Z" style="fill:#7e4021;"/><circle cx="2485.88" cy="818.415" r="153.182" style="fill:#f8bcc4;"/><path d="M2485.88,988.264c93.742,-0 169.848,-76.107 169.848,-169.849c0,-93.742 -76.106,-169.848 -169.848,-169.848c-93.742,-0 -169.848,76.106 -169.848,169.848c-0,93.742 76.106,169.849 169.848,169.849Zm0,-33.334c-75.345,0 -136.515,-61.17 -136.515,-136.515c0,-75.344 61.17,-136.515 136.515,-136.515c75.345,0 136.515,61.171 136.515,136.515c0,75.345 -61.17,136.515 -136.515,136.515Z" style="fill:#7e4021;"/><circle cx="2354.25" cy="1454.27" r="153.182" style="fill:#dae1a4;"/><path d="M2354.25,1624.12c93.741,-0 169.848,-76.107 169.848,-169.849c-0,-93.741 -76.107,-169.848 -169.848,-169.848c-93.742,0 -169.849,76.107 -169.849,169.848c0,93.742 76.107,169.849 169.849,169.849Zm-0,-33.334c-75.345,0 -136.515,-61.17 -136.515,-136.515c-0,-75.344 61.17,-136.515 136.515,-136.515c75.344,0 136.515,61.171 136.515,136.515c-0,75.345 -61.171,136.515 -136.515,136.515Z" style="fill:#7e4021;"/><circle cx="1068.83" cy="990.349" r="153.182" style="fill:#dae1a4;"/><path d="M1068.83,1160.2c93.742,-0 169.849,-76.107 169.849,-169.849c-0,-93.742 -76.107,-169.848 -169.849,-169.848c-93.742,-0 -169.848,76.106 -169.848,169.848c0,93.742 76.106,169.849 169.848,169.849Zm0,-33.334c-75.344,0 -136.515,-61.17 -136.515,-136.515c0,-75.344 61.171,-136.515 136.515,-136.515c75.345,0 136.515,61.171 136.515,136.515c0,75.345 -61.17,136.515 -136.515,136.515Z" style="fill:#7e4021;"/><circle cx="976.865" cy="1912.52" r="153.182" style="fill:#a8ccf1;"/><path d="M976.865,2082.37c93.742,-0 169.849,-76.107 169.849,-169.849c-0,-93.742 -76.107,-169.848 -169.849,-169.848c-93.742,-0 -169.848,76.106 -169.848,169.848c-0,93.742 76.106,169.849 169.848,169.849Zm0,-33.334c-75.344,0 -136.515,-61.17 -136.515,-136.515c0,-75.344 61.171,-136.515 136.515,-136.515c75.345,0 136.515,61.171 136.515,136.515c0,75.345 -61.17,136.515 -136.515,136.515Z" style="fill:#7e4021;"/><circle cx="886.599" cy="2598.54" r="153.182" style="fill:#dae1a4;"/><path d="M886.599,2768.38c93.742,-0 169.848,-76.107 169.848,-169.848c0,-93.742 -76.106,-169.849 -169.848,-169.849c-93.742,0 -169.848,76.107 -169.848,169.849c-0,93.741 76.106,169.848 169.848,169.848Zm-0,-33.333c-75.345,-0 -136.515,-61.171 -136.515,-136.515c-0,-75.345 61.17,-136.515 136.515,-136.515c75.345,-0 136.515,61.17 136.515,136.515c-0,75.344 -61.17,136.515 -136.515,136.515Z" style="fill:#7e4021;"/><circle cx="1772.46" cy="1032.75" r="153.182" style="fill:#ffce7b;"/><path d="M1772.46,1202.59c93.742,0 169.849,-76.106 169.849,-169.848c-0,-93.742 -76.107,-169.848 -169.849,-169.848c-93.741,-0 -169.848,76.106 -169.848,169.848c0,93.742 76.107,169.848 169.848,169.848Zm0,-33.333c-75.344,0 -136.515,-61.17 -136.515,-136.515c0,-75.345 61.171,-136.515 136.515,-136.515c75.345,0 136.515,61.17 136.515,136.515c0,75.345 -61.17,136.515 -136.515,136.515Z" style="fill:#7e4021;"/><path d="M713.12,527.507c85.866,39.933 182.44,80.996 281.066,89.39c9.166,0.78 17.24,-6.028 18.02,-15.193c0.78,-9.166 -6.027,-17.24 -15.193,-18.02c-94.745,-8.064 -187.35,-48.04 -269.836,-86.401c-8.341,-3.879 -18.262,-0.257 -22.141,8.084c-3.879,8.34 -0.256,18.261 8.084,22.14Z" style="fill:#7e4021;"/><path d="M1076.77,630.475c48.696,11.118 93.022,12.937 135.364,13.619c9.198,0.148 16.785,-7.198 16.933,-16.396c0.149,-9.197 -7.198,-16.785 -16.396,-16.933c-40.184,-0.647 -82.266,-2.236 -128.481,-12.787c-8.968,-2.048 -17.911,3.571 -19.959,12.539c-2.047,8.967 3.571,17.91 12.539,19.958Z" style="fill:#7e4021;"/><path d="M2843.27,2225.08c-0.829,15.197 -4.603,235.421 -5.017,257.133c-0.175,9.197 7.15,16.806 16.347,16.981c9.196,0.175 16.805,-7.149 16.981,-16.346c0.411,-21.613 4.148,-240.826 4.973,-255.954c0.501,-9.184 -6.55,-17.048 -15.734,-17.549c-9.185,-0.501 -17.049,6.55 -17.55,15.735Z" style="fill:#7e4021;"/><path d="M2834.49,2562.17c-0.844,17.934 -2.292,35.813 -5.584,53.487c-6.635,35.622 -17.689,77.065 -54.749,91.477c-8.573,3.334 -12.827,13.002 -9.493,21.575c3.334,8.573 13.002,12.826 21.575,9.492c48.23,-18.756 66.802,-70.082 75.437,-116.44c3.571,-19.175 5.194,-38.567 6.11,-58.024c0.433,-9.188 -6.676,-16.999 -15.864,-17.432c-9.189,-0.432 -17,6.676 -17.432,15.865Z" style="fill:#7e4021;"/><path d="M576.873,832.624c-18.118,0.495 -112.356,-11.582 -182.943,-11.592c-103.605,-0.014 -264.655,1.789 -316.799,115.447c-35.923,78.3 -49.569,170.375 -54.926,255.634c-8.871,141.201 -15.523,762.004 56.285,887.877c30.6,53.637 63.39,82.357 155.467,98.541c34.786,6.114 311.974,22.574 337.75,-3.762c15.525,-15.862 9.307,-204.402 4.263,-252.744c-75.75,8.267 -291.096,41.732 -295.517,-50.202c-5.315,-110.553 -26.119,-588.047 -11.823,-716.711c11.444,-102.999 303.738,-6.483 308.064,-58.943c1.246,-15.101 -2.533,-220.6 0.179,-263.545Z" style="fill:#fff;"/><path d="M593.507,833.675c0.295,-4.673 -1.389,-9.254 -4.64,-12.623c-3.251,-3.37 -7.769,-5.216 -12.449,-5.088c-18.073,0.493 -112.075,-11.589 -182.486,-11.599c-63.87,-0.008 -148.948,0.989 -218.395,26.746c-49.239,18.261 -90.763,48.74 -113.555,98.418c-36.758,80.122 -50.929,174.296 -56.411,261.539c-6.234,99.227 -11.378,434.378 10.824,669.882c9.772,103.655 25.408,188.366 47.619,227.298c32.953,57.764 67.899,89.269 167.058,106.698c28.266,4.968 214.105,16.705 300.714,7.488c16.829,-1.791 30.242,-4.496 38.795,-7.873c5.929,-2.342 10.215,-5.251 13.037,-8.134c2.158,-2.205 4.495,-5.645 6.302,-10.574c2.135,-5.824 3.976,-15.153 5.248,-27.047c6.292,-58.836 1.476,-189.235 -2.621,-228.51c-0.46,-4.41 -2.659,-8.455 -6.109,-11.24c-3.45,-2.785 -7.868,-4.08 -12.276,-3.599c-44.587,4.865 -138.464,18.862 -207.377,9.615c-20.69,-2.777 -38.982,-7.527 -52.195,-15.974c-10.225,-6.537 -16.885,-15.503 -17.489,-28.075c-5.296,-110.146 -26.15,-585.88 -11.906,-714.071c1.958,-17.621 16.825,-25.465 36.241,-30.137c39.468,-9.495 97.007,-4.093 146.979,-0.281c43.033,3.283 80.989,5.006 100.529,-1.5c15.605,-5.196 23.326,-14.949 24.361,-27.496c1.246,-15.118 -2.514,-220.866 0.202,-263.863Zm-33.884,14.718c-1.347,61.75 1.359,219.902 0.569,244.14c-1.769,0.668 -5.249,1.885 -8.112,2.365c-18.732,3.135 -48.27,0.906 -81.13,-1.601c-53.485,-4.08 -115.068,-9.054 -157.311,1.11c-35.089,8.442 -58.035,27.019 -61.574,58.864c-14.348,129.139 6.406,608.392 11.741,719.353c1.669,34.716 25.714,56.671 63.261,68.093c64.828,19.722 173.433,6.82 233.735,-0.189c3.029,43.007 5.698,126.293 2.979,180.962c-0.878,17.668 -4.038,36.183 -5.042,41.719c-2.217,0.821 -6.32,2.244 -9.792,2.983c-13.541,2.885 -33.017,4.574 -55.672,5.507c-91.254,3.756 -232.417,-5.362 -256.432,-9.583c-84.996,-14.939 -115.63,-40.872 -143.876,-90.385c-20.875,-36.591 -34.201,-116.489 -43.385,-213.91c-22.03,-233.668 -16.928,-566.209 -10.743,-664.663c5.232,-83.275 18.354,-173.251 53.44,-249.729c23.873,-52.036 73.232,-77.694 127.925,-91.114c58.391,-14.328 123.083,-14.623 173.724,-14.616c57.44,0.007 130.505,7.964 165.695,10.694Z" style="fill:#7e4021;"/><ellipse cx="1776.86" cy="284.165" rx="1191.15" ry="267.275" style="fill:#ffe6d8;"/><path d="M1776.86,0.224c-349.135,-0 -663.536,33.711 -882.354,87.304c-110.917,27.166 -197.574,59.628 -252.484,95.167c-48.477,31.376 -72.979,66.412 -72.979,101.47c0,35.059 24.502,70.095 72.98,101.471c54.91,35.539 141.567,68.001 252.483,95.167c218.818,53.593 533.219,87.304 882.354,87.304c349.135,-0 663.537,-33.711 882.354,-87.304c110.917,-27.166 197.574,-59.628 252.484,-95.168c48.478,-31.376 72.98,-66.412 72.98,-101.47c-0,-35.058 -24.503,-70.094 -72.98,-101.47c-54.91,-35.54 -141.567,-68.001 -252.484,-95.167c-218.817,-53.593 -533.219,-87.304 -882.354,-87.304Zm0,33.333c345.991,0 657.578,33.237 874.425,86.347c106.363,26.051 189.646,56.694 242.302,90.775c36.251,23.463 57.757,47.27 57.757,73.486c0,26.217 -21.506,50.024 -57.758,73.487c-52.656,34.081 -135.938,64.724 -242.301,90.774c-216.847,53.111 -528.434,86.347 -874.425,86.347c-345.99,0 -657.577,-33.236 -874.424,-86.347c-106.364,-26.05 -189.646,-56.693 -242.302,-90.774c-36.252,-23.463 -57.758,-47.27 -57.758,-73.487c0,-26.217 21.506,-50.023 57.759,-73.487c52.655,-34.08 135.938,-64.723 242.301,-90.774c216.847,-53.11 528.434,-86.347 874.424,-86.347Z" style="fill:#7e4021;"/><path d="M1797.4,266.637c469.247,-0 864.154,40.755 977.163,155.665c21.189,21.545 -419.933,131.861 -977.163,131.861c-557.23,0 -966.028,-95.66 -988.898,-117.296c87.544,-123.979 495.331,-170.23 988.898,-170.23Z" style="fill:#c48464;"/><path d="M1797.4,249.97c-280.564,-0 -533.528,14.96 -716.219,50.448c-86.681,16.838 -157.767,38.391 -208.954,64.938c-35.1,18.203 -61.149,38.968 -77.34,61.898c-4.78,6.77 -3.86,16.025 2.161,21.72c4.193,3.967 18.831,11.074 43.746,18.477c59.261,17.61 184.454,44.331 356.205,66.176c163.435,20.787 369.184,37.203 600.401,37.203c273.326,-0 518.826,-26.444 695.966,-56.008c129.924,-21.684 223.357,-45.17 264.64,-61.149c13.433,-5.199 22.178,-10.199 26.326,-13.933c6.294,-5.667 7.727,-11.71 7.625,-16.229c-0.103,-4.592 -1.685,-9.006 -5.511,-12.895c-49.143,-49.971 -149.446,-87.455 -285.776,-112.858c-182.373,-33.982 -430.295,-47.788 -703.27,-47.788Zm951.407,171.493c-5.671,2.303 -12.603,4.776 -20.724,7.41c-71.134,23.076 -228.55,56.692 -436.345,80.426c-144.491,16.503 -313.26,28.197 -494.338,28.197c-185.114,0 -353.79,-10.592 -497.262,-25.515c-210.564,-21.902 -366.693,-53.093 -440.491,-73.784c-9.459,-2.652 -17.514,-5.115 -24.095,-7.361c13.23,-12.988 30.758,-24.862 52.021,-35.89c48.961,-25.392 117.051,-45.701 199.964,-61.806c181.067,-35.172 431.793,-49.837 709.863,-49.837c224.275,0 431.508,9.315 598.866,31.677c164.18,21.937 289.484,55.427 352.541,106.483Z" style="fill:#7e4021;"/></g></svg>