<?xml version="1.0" encoding="UTF-8" standalone="no"?><!DOCTYPE svg PUBLIC "-//W3C//DTD SVG 1.1//EN" "http://www.w3.org/Graphics/SVG/1.1/DTD/svg11.dtd"><svg width="100%" height="100%" viewBox="0 0 3578 3903" version="1.1" xmlns="http://www.w3.org/2000/svg" xmlns:xlink="http://www.w3.org/1999/xlink" xml:space="preserve" xmlns:serif="http://www.serif.com/" style="fill-rule:evenodd;clip-rule:evenodd;stroke-linejoin:round;stroke-miterlimit:2;"><g id="Mug-Beige"><g><path d="M3223.34,2837.72c-4.114,-1.828 -699.166,556.978 -1580.47,552.703c-967.538,-4.694 -1223.66,-632.697 -1239.34,-626.318c-267.178,108.713 -532.876,362.221 -292.657,604.794c861.533,869.978 3157.8,545.909 3243.38,-265.481c13.568,-128.645 -72.931,-239.932 -130.913,-265.698Z" style="fill:#ffe6d8;"/><path d="M3230.11,2822.48c-1.744,-0.774 -7.192,-3.382 -14.77,0.547c-1.761,0.913 -9.695,6.562 -23.21,16.316c-122.756,88.597 -760.97,538.228 -1549.18,534.404c-860.635,-4.175 -1152.05,-506.723 -1212.96,-602.72c-7.261,-11.445 -12.735,-18.09 -15.437,-20.051c-6.915,-5.019 -13.051,-4.049 -17.304,-2.318c-109.107,44.395 -217.89,112.567 -293.554,194.091c-70.261,75.701 -111.92,163.011 -101.896,253.585c6.696,60.505 36.38,122.835 97.231,184.284c520.507,525.609 1560.83,619.87 2328.64,433.511c308.106,-74.782 572.254,-194.733 741.883,-349.253c115.258,-104.992 187.18,-226.057 201.277,-359.719c14.464,-137.143 -78.907,-255.208 -140.719,-282.677Zm-2831.68,-38.22c6.491,10.237 19.177,30.074 33.243,51.284c105.792,159.52 427.925,567.737 1211.12,571.536c798.141,3.872 1444.55,-450.994 1568.85,-540.708l13.009,-9.348c53.612,30.192 125.088,130.336 113.032,244.637c-13.287,125.984 -81.937,239.612 -190.575,338.573c-166.215,151.411 -425.39,268.225 -727.298,341.502c-757.225,183.79 -1783.76,93.791 -2297.09,-424.573c-54.453,-54.988 -81.793,-110.352 -87.785,-164.496c-9.009,-81.4 30.052,-159.208 93.197,-227.243c69.929,-75.344 169.506,-138.569 270.297,-181.164Z" style="fill:#7d3f21;"/><path d="M534.82,2635.51c-53.159,16.618 -98.866,27.263 -131.29,40.456c-267.178,108.714 -532.876,362.221 -292.657,604.795c861.533,869.978 3157.8,545.909 3243.38,-265.481c13.568,-128.645 -72.931,-239.932 -130.913,-265.698c-7.965,-3.54 -125.236,81.495 -313.211,76.839c-205.124,-5.08 -213.054,-96.429 -235.086,-96.429c-0.741,0 -100.107,137.584 -170.377,207.082c-311.897,308.469 -860.265,409.349 -1266.92,271.29c-400.436,-135.947 -635.296,-477.603 -702.924,-572.854Z" style="fill:#ebccb8;"/><path d="M548.41,2625.86c-4.179,-5.886 -11.673,-8.413 -18.563,-6.259c-53.696,16.787 -99.847,27.6 -132.598,40.927c-109.107,44.395 -217.89,112.567 -293.554,194.09c-70.261,75.702 -111.92,163.012 -101.896,253.586c6.696,60.505 36.38,122.835 97.231,184.283c520.507,525.61 1560.83,619.87 2328.64,433.512c308.106,-74.782 572.254,-194.733 741.883,-349.253c115.258,-104.992 187.18,-226.057 201.277,-359.719c14.464,-137.143 -78.907,-255.209 -140.719,-282.677c-2.481,-1.102 -6.266,-2.152 -11.45,-1.136c-3.329,0.652 -10.259,3.551 -20.285,8.502c-39.061,19.287 -141.402,71.669 -287.833,68.043c-154.712,-3.832 -190.807,-58.776 -209.544,-80.977c-9.208,-10.909 -17.789,-15.458 -25.954,-15.458c-1.449,0 -6.624,-0.35 -11.903,4.989c-0.354,0.358 -1.949,2.237 -4.461,5.569c-17.111,22.704 -103.07,139.367 -165.733,201.341c-307.678,304.297 -848.687,403.55 -1249.84,267.358c-395.907,-134.41 -627.829,-472.547 -694.692,-566.721Zm2129.64,127.742c1.936,2.24 4.033,4.692 5.947,6.973c24.184,28.812 73.487,78.737 225.713,82.507c168.382,4.17 281.341,-61.727 312.151,-75.702c53.875,28.221 128.077,129.859 115.811,246.151c-13.287,125.983 -81.937,239.612 -190.575,338.573c-166.215,151.411 -425.39,268.224 -727.298,341.502c-757.225,183.79 -1783.76,93.791 -2297.09,-424.574c-54.453,-54.987 -81.793,-110.351 -87.785,-164.495c-9.009,-81.4 30.052,-159.208 93.197,-227.243c72.563,-78.182 177.049,-143.315 281.685,-185.891c29.712,-12.09 70.711,-21.966 118.384,-36.418l0,0c76.572,108.037 311.979,436.005 704.191,569.16c412.154,139.926 967.882,37.419 1284,-275.222c57.441,-56.81 134.192,-158.664 161.671,-195.321Z" style="fill:#7d3f21;"/><path d="M1071.27,3146.85c-11.952,27.496 -4.135,54.556 14.001,78.434c22.985,30.262 63.126,55.148 87.059,67.605c68.296,35.545 191.091,62.513 332.147,73.518c210.156,16.395 460.875,-2.374 630.174,-77.575c8.406,-3.734 12.2,-13.591 8.466,-21.997c-3.734,-8.407 -13.591,-12.2 -21.998,-8.466c-164.941,73.265 -409.302,90.778 -614.05,74.805c-135.547,-10.574 -253.721,-35.696 -319.349,-69.854c-20.769,-10.809 -55.959,-31.938 -75.904,-58.197c-10.489,-13.81 -16.888,-29.083 -9.976,-44.985c3.667,-8.436 -0.205,-18.262 -8.641,-21.929c-8.436,-3.667 -18.262,0.205 -21.929,8.641Z" style="fill:#7d3f21;"/><path d="M3260.89,2114.25c-65.966,-33.88 -130.231,20.55 -131.163,25.611c-11.346,61.622 -59.197,142.913 -133.022,97.203c-134.763,-83.438 80.246,-417.731 352.85,-304.64c66.819,27.72 128.625,75.477 163.618,137.791c152.339,271.272 -86.979,600.729 -330.741,706.3c-147.741,63.985 -396.337,84.971 -495.466,-33.239c-7.925,-9.451 89.307,-179.23 96.172,-180.992c25.837,-6.63 67.471,6.618 93.862,7.803c123.844,5.559 247.808,-25.499 343.962,-104.58c96.51,-79.373 161.431,-288.852 39.928,-351.257Z" style="fill:#ffe6d8;"/><path d="M3145.28,2147.16c12.485,-11.708 59.691,-42.897 107.997,-18.086l0,-0c42.645,21.903 58.186,64.931 57.181,112.564c-1.62,76.85 -45.431,166.049 -100.08,210.994c-92.96,76.454 -212.899,106.178 -332.629,100.803c-15.476,-0.695 -36.304,-5.711 -55.954,-8.151c-15.675,-1.947 -30.711,-2.247 -42.797,0.854c-1.867,0.479 -5.058,1.593 -8.443,4.905c-1.991,1.948 -5.88,6.992 -10.803,14.529c-20.028,30.663 -64.641,109.431 -81.766,148.766c-5.51,12.657 -8.106,22.365 -8.143,26.92c-0.048,6.039 2.154,10.101 4.355,12.725c42.157,50.272 109.413,77.564 185.389,87.025c110.089,13.707 238.429,-9.772 329.471,-49.201c124.952,-54.115 248.833,-165.538 321.886,-298.27c74.031,-134.51 95.898,-290.568 16.763,-431.485c-36.775,-65.486 -101.542,-115.893 -171.764,-145.024c-201.929,-83.772 -373.849,64.742 -410.001,191.49c-16.917,59.314 -4.723,113.792 41.991,142.715c21.558,13.348 41.408,17.372 59.149,15.385c26.405,-2.956 48.809,-19.586 65.702,-43.009c16.073,-22.287 27.165,-50.654 32.496,-76.449Zm-440.859,590.736c11.257,-33.001 70.004,-135.893 87.487,-160.366c10.318,-1.433 22.83,0.24 35.397,2.192c17.583,2.732 35.25,6.398 48.949,7.013c127.959,5.744 255.949,-26.65 355.297,-108.358c61.163,-50.302 110.419,-150.027 112.233,-236.036c1.286,-60.942 -20.718,-114.896 -75.278,-142.918l0,-0c-60.469,-31.058 -119.792,1.939 -141.609,19.632c-5.673,4.601 -9.188,8.585 -10.594,10.681c-1.951,2.906 -2.657,5.432 -2.965,7.105c-4.123,22.395 -13.466,47.685 -27.59,67.27c-11.093,15.381 -25.036,27.44 -42.375,29.381c-11.422,1.279 -24.014,-2.007 -37.893,-10.6c-22.018,-13.632 -32.275,-35.644 -33.344,-61.108c-1.193,-28.444 8.584,-60.85 26.525,-92.315c55.626,-97.554 190.257,-185.645 344.509,-121.652c63.418,26.309 122.261,71.416 155.473,130.557c73.204,130.355 51.582,274.661 -16.902,399.091c-69.462,126.208 -187.12,232.299 -305.931,283.754c-86.247,37.353 -207.813,59.697 -312.104,46.711c-64.201,-7.994 -121.899,-29.229 -159.285,-70.034Z" style="fill:#7d3f21;"/><path d="M3463.94,2279.19l0.176,4.041c1.101,20.486 -1.888,41.498 -5.611,61.609c-8.682,46.91 -27.31,86.412 -56.176,124.919c-5.517,7.36 -4.02,17.815 3.34,23.333c7.36,5.517 17.815,4.021 23.332,-3.34c32.07,-42.782 52.635,-86.728 62.281,-138.846c4.196,-22.669 7.361,-46.373 6.119,-69.465c-0.165,-3.074 -0.936,-10.97 -1.319,-12.081c-3.413,-9.908 -11.27,-11.118 -15.009,-11.299c-2.07,-0.1 -14.844,-0.658 -17.388,14.332c-0.396,2.333 -0.286,4.636 0.255,6.797Zm32.179,0.641l-0.005,0.014l0.003,-0.008l0.002,-0.006Zm0.243,-0.935l-0.065,0.263l0.052,-0.198l0.013,-0.065Z" style="fill:#7d3f21;"/><path d="M3335.86,2546.82c-4.548,12.822 -17.421,23.162 -26.268,33.303c-6.047,6.932 -5.328,17.469 1.603,23.516c6.932,6.047 17.469,5.328 23.516,-1.603c11.429,-13.101 26.688,-27.507 32.564,-44.071c3.076,-8.67 -1.465,-18.205 -10.134,-21.28c-8.67,-3.076 -18.205,1.465 -21.281,10.135Z" style="fill:#7d3f21;"/><path d="M193.667,1645.11c12.432,314.602 226.677,1632.47 1441.12,1627.5c1252.2,-5.117 1399.73,-1412.53 1385.66,-1637.2c-18.07,-288.597 -588.074,-418.338 -1234.54,-461.705c-551.657,-37.008 -1606.5,110.608 -1592.24,471.397Z" style="fill:#ffe6d8;"/><path d="M177.014,1645.77c12.563,317.941 230.509,1648.53 1457.84,1643.51c760.391,-3.107 1118.69,-516.625 1280.28,-976.464c107.473,-305.842 127.633,-587.703 121.952,-678.44c-7.556,-120.671 -105.59,-216.472 -265.96,-288.854c-231.49,-104.482 -593.917,-162.265 -984.096,-188.44c-388.558,-26.066 -1025.15,39.264 -1367.25,205.106c-153.083,74.211 -247.251,169.865 -242.757,283.579Zm33.307,-1.316c-1.969,-49.841 18.657,-95.083 56.107,-136.178c39.448,-43.286 97.21,-81.829 167.884,-116.091c337.875,-163.794 966.72,-227.585 1350.48,-201.841c385.577,25.866 743.854,82.313 972.614,185.563c146.47,66.108 239.504,150.343 246.404,260.555c5.573,88.993 -14.724,365.342 -120.131,665.306c-157.733,448.87 -506.712,951.149 -1248.96,954.182c-1201.55,4.91 -1412.1,-1300.23 -1424.39,-1611.5l0,0Z" style="fill:#7d3f21;"/><path d="M2477.22,2934.87c81.504,-22.887 161.777,-160.848 161.13,-161.626c-0.531,-0.639 32.793,-77.48 23.437,-132.743c-7.175,-42.379 -41.253,-88.29 -75.389,-82.742c-96.223,15.638 -37.659,196.374 -40.92,197.332c-2.651,0.778 -73.031,-59.858 -115.48,-83.912c-38.806,-21.991 -96.424,-30.117 -104.736,31.277c-10.207,75.39 142.568,135.976 142.274,135.946c-25.829,-2.654 -64.854,4.103 -89.59,10.631c-34.202,9.025 -165.525,60.424 -117.671,116.825c40.334,47.538 215.257,-30.514 216.945,-30.988Z" style="fill:#fff;"/><path d="M2520.82,2715.57c-24.868,-19.476 -58.283,-45.104 -82.602,-58.885c-18.704,-10.599 -41.286,-18.159 -61.815,-18.413c-15.858,-0.196 -30.586,3.851 -42.412,13.044c-12.355,9.604 -22.009,25.032 -25.242,48.91c-4.368,32.261 14.725,63.065 43.045,88.224c16.435,14.601 35.761,27.376 53.56,37.663c-11.574,1.992 -22.53,4.402 -31.657,6.811c-21.874,5.772 -80.911,28.008 -113.707,57.696c-16.047,14.526 -25.949,31.114 -26.703,47.964c-0.55,12.298 3.352,25.181 14.282,38.063c14.92,17.584 44.187,23.684 78.729,20.158c66.538,-6.791 154.226,-45.544 155.431,-45.883l-0,0c31.858,-8.946 63.856,-33.626 91.331,-62.179c39.195,-40.733 69.376,-88.776 77.596,-103.102c2.539,-4.426 3.594,-7.294 3.76,-7.897l0.106,-0.417l0.255,-0.71c5.246,-14.277 32.41,-85.946 23.446,-138.892c-4.917,-29.037 -21.04,-59.447 -41.454,-77.824c-16.017,-14.418 -34.691,-21.569 -53.042,-18.587c-42.719,6.943 -61.966,39.206 -67.671,79.079c-4.496,31.431 -0.134,67.674 4.764,95.177Zm102.055,51.448c-0.275,0.507 -0.717,1.31 -1.132,2.034c-7.7,13.421 -35.984,58.42 -72.702,96.579c-23.135,24.042 -49.498,45.666 -76.324,53.199c-1.16,0.326 -85.604,38.262 -149.803,44.814c-12.21,1.246 -23.593,1.351 -33.241,-0.536c-6.943,-1.358 -12.891,-3.553 -16.687,-8.027c-4.386,-5.169 -6.62,-10.072 -6.399,-15.007c0.403,-9.006 7.196,-16.978 15.773,-24.742c28.741,-26.017 80.673,-45.12 99.842,-50.178c23.099,-6.096 59.513,-12.645 83.633,-10.167c5.97,0.613 9.444,-1.688 11.072,-2.795c5.785,-3.931 7.988,-9.301 7.17,-15.851c-0.041,-0.332 -0.008,-8.964 -9.985,-13.259c-0.248,-0.107 -1.718,-0.704 -4.178,-1.758c-13.999,-5.997 -61.869,-27.489 -95.982,-57.794c-19.341,-17.183 -35.134,-36.798 -32.151,-58.832c1.755,-12.964 5.959,-21.85 12.666,-27.064c7.748,-6.022 18.1,-6.854 28.742,-5.52c13.185,1.652 26.868,6.926 38.595,13.571c37.8,21.421 97.923,72.244 111.495,81.615c8.455,5.839 15.428,4.22 16.899,3.788c3.992,-1.173 8.061,-3.668 10.566,-9.2c0.538,-1.189 2.223,-6.702 0.397,-15.511c-3.579,-17.258 -18.714,-74.943 -12.087,-121.263c3.548,-24.805 13.445,-46.579 40.02,-50.898c8.967,-1.457 17.567,3.414 25.393,10.46c15.339,13.808 27.196,36.795 30.89,58.613c7.878,46.528 -17.259,109.287 -21.868,121.834c-0.237,0.645 -0.442,1.276 -0.614,1.895Z" style="fill:#7e4021;"/><path d="M2477.01,2849.7c1.883,-92.116 98.239,-125.146 151.774,-81.607c10.192,8.289 -19.658,56.03 -54.427,92.794c-33.234,35.14 -71.196,59.6 -73.051,57.587c-15.235,-16.546 -24.893,-39.607 -24.296,-68.774Z" style="fill:#ffce7b;"/><path d="M2460.34,2849.37c-0.698,34.138 10.867,61.037 28.7,80.403c2.301,2.5 8.751,8.092 19.508,4.216c8.456,-3.046 45.494,-27.362 77.912,-61.64c30.348,-32.089 56.393,-72.419 60.251,-91.667c2.487,-12.413 -1.68,-20.844 -7.417,-25.51c-62.826,-51.095 -176.743,-13.906 -178.954,94.198Zm152.582,-72.26c-0.915,2.631 -2.267,6.203 -3.731,9.072c-9.18,17.987 -27.272,42.457 -46.949,63.263c-19.391,20.503 -43.882,38.62 -56.55,47.459c-7.887,-12.5 -12.407,-28.199 -12.025,-46.853c1.496,-73.162 74.302,-102.676 119.255,-72.941Z" style="fill:#7e4021;"/><path d="M718.084,2359.41c1.548,92.046 130.081,128.287 124.891,128.643c-20.446,1.402 -39.437,-15.744 -76.312,-19.167c-40.194,-3.731 -93.873,-3.542 -117.143,44.938c-20.242,42.17 1.911,91.65 26.52,106.829c55.994,34.539 131.995,10.899 185.402,-14.904c1.189,-0.574 5.045,-3.271 6.492,-2.253c2.955,2.079 -10.326,9.392 -39.082,29.111c-25.291,17.343 -78.389,97.204 -17.098,142.021c75.967,55.548 104.653,-26.89 124.531,-69.894c8.999,-19.467 19.461,-68.949 19.129,-67.087c-12.304,69.047 9.536,136.974 77.235,146.445c58.393,8.169 93.865,-37.413 77.774,-85.843c-10.984,-33.063 -22.916,-41.862 -48.127,-65.569c-1.422,-1.338 -12.774,-9.801 -10.777,-12.505c0.145,-0.196 119.89,54.698 172.049,-16.533c40.524,-55.341 -24.399,-107.148 -57.862,-107.479c-14.833,-0.146 -29.782,0.563 -44.512,2.353c-6.805,0.827 -17.335,2.972 -20.357,2.918c14.073,-7.367 144.08,-57.196 116.111,-135.132c-18.86,-52.556 -98.459,-53.102 -128.824,-28.708c-19.262,15.474 -34.084,34.975 -49.327,54.206c-0.226,0.284 -3.78,4.993 -4.324,4.148c-8.015,-12.45 95.428,-134.335 2.27,-188.571c-64.749,-37.696 -132.127,28.063 -118.351,102.551c3.451,18.657 9.819,36.656 14.628,55.012c0.293,1.118 1.974,15.766 1.739,15.338c-36.53,-66.653 -99.316,-103.923 -140.406,-99.36c-38.32,4.255 -76.883,41.933 -76.269,78.492Z" style="fill:#e0f0ff;"/><path d="M901.621,2310.78c-13.84,-12.824 -28.43,-23.16 -42.81,-30.781c-23.725,-12.575 -47.097,-17.779 -66.297,-15.647c-27.246,3.026 -54.76,20.034 -72.123,42.734c-12.147,15.881 -19.277,34.419 -18.971,52.603c0.641,38.096 19.763,68.093 44.261,90.628l0.748,0.68c-42.019,-0.932 -89.209,8.269 -111.935,55.614c-14.429,30.062 -11.024,63.253 0.563,88.889c8.042,17.793 20.057,31.827 32.233,39.337c36.972,22.806 82.037,23.019 124.711,13.383c-8.029,11.575 -15.408,25.372 -20.057,40.067c-10.787,34.096 -7.702,72.246 29.972,99.794c28.047,20.508 51.224,24.511 70.075,20.348c18.061,-3.989 32.958,-15.846 45.007,-31.704c11.08,-14.584 19.747,-32.646 27.053,-48.742c13.068,38.063 41.349,66.327 86.288,72.614c35.824,5.012 64.386,-7.166 81.754,-27.323c17.733,-20.579 24.225,-49.948 14.147,-80.281c-5.915,-17.804 -11.977,-29.288 -19.884,-39.43c13.905,2.421 29.051,3.842 44.186,3.07c32.351,-1.651 64.433,-13.047 86.473,-43.145c30.576,-41.756 14.189,-82.012 -13.521,-107.545c-14.943,-13.77 -33.243,-22.717 -48.452,-25.506c10.098,-6.835 20.038,-14.552 28.798,-23.082c26.574,-25.876 42.411,-58.743 28.795,-96.684c-11.622,-32.388 -41.358,-49.578 -73.468,-54.085c-27.572,-3.87 -56.366,1.95 -75.07,13.518c14.525,-44.958 15.121,-95.641 -38.968,-127.131c-76.588,-44.59 -158.205,29.908 -143.508,117.807Zm-166.872,48.349c-0.238,-14.104 7.647,-28.159 18.722,-39.363c11.662,-11.798 27.154,-20.556 42.721,-22.284c13.673,-1.518 30.114,3.014 47.009,11.969c28.031,14.857 56.775,42.039 76.943,78.836c1.786,3.259 3.951,4.927 5.449,5.913c7.213,4.756 13.781,3.877 19.762,-1.041c0.665,-0.547 6.536,-4.636 6.066,-14.012c-0.127,-2.539 -1.955,-17.199 -2.279,-18.433c-4.706,-17.961 -10.985,-35.561 -14.361,-53.818c-11.128,-60.169 41.274,-115.567 93.577,-85.116c31.28,18.211 34.198,46.213 28.273,73.016c-4.634,20.964 -14.321,41.389 -22.498,57.717c-8.49,16.955 -15.236,30.447 -16.395,37.25c-1.16,6.803 0.535,11.811 2.721,15.206c3.772,5.859 9.281,8.701 16.789,7.549c2.147,-0.33 5.651,-1.344 9.088,-4.286c2.045,-1.751 5.256,-5.745 5.522,-6.08c14.47,-18.256 28.42,-36.877 46.704,-51.566c12.329,-9.905 34.815,-13.96 55.972,-10.991c20,2.808 39.488,12.162 46.727,32.335c8.763,24.418 -3.574,44.891 -20.676,61.544c-31.285,30.464 -79.412,48.971 -87.478,53.194c-6.748,3.532 -10.243,11.189 -8.49,18.601c1.753,7.412 8.308,12.693 15.923,12.829c3.36,0.059 15.098,-2.118 22.665,-3.038c14.01,-1.702 28.228,-2.371 42.336,-2.232c10.28,0.102 24.083,7.232 35.365,17.628c16.363,15.077 27.27,38.682 9.215,63.339c-15.515,21.188 -38.504,28.386 -61.278,29.548c-38.251,1.951 -76.522,-12.698 -87.61,-17.199c-14.001,-5.684 -23.029,4.005 -23.12,4.128c-3.601,4.876 -5.408,11.895 -1.062,19.994c2.626,4.893 12.279,13.098 13.828,14.555c22.684,21.33 33.844,28.933 43.728,58.682c6.013,18.097 2.814,35.734 -7.766,48.012c-10.944,12.701 -29.31,19.228 -51.883,16.07c-57.999,-8.114 -73.677,-67.862 -63.136,-127.015c1.197,-6.716 -26.734,-33.064 -32.882,-5.674c-1.456,6.484 -10.099,46.221 -17.783,62.844c-7.577,16.391 -16.354,38.868 -28.963,56.463c-7.404,10.332 -15.963,19.153 -27.391,21.677c-11.792,2.604 -25.667,-1.878 -43.212,-14.707c-23.618,-17.27 -24.628,-41.456 -17.866,-62.832c7.476,-23.631 23.778,-44.601 34.553,-51.99c25.421,-17.432 39.483,-26.675 42.585,-30.617c4.146,-5.27 4.44,-10.158 4.012,-13.659c-0.571,-4.675 -2.687,-8.93 -7.351,-12.211c-3.274,-2.304 -7.471,-3.685 -12.467,-3.154c-3.484,0.37 -11.355,4.282 -11.355,4.282c-0,0 0.351,-0.184 0.49,-0.251c-25.309,12.228 -55.943,24.032 -86.912,28.599c-28.749,4.239 -57.858,2.321 -82.49,-12.873c-7.512,-4.634 -14.396,-13.717 -19.358,-24.695c-7.918,-17.519 -10.747,-40.194 -0.887,-60.737c9.211,-19.189 24.553,-28.68 41.457,-33.146c19.443,-5.136 40.821,-4.107 59.12,-2.408c20.316,1.885 34.671,8.49 46.999,13.048c11.392,4.212 21.586,6.864 31.995,6.15c2.477,-0.17 4.257,-0.787 5.47,-1.3c7.271,-3.077 9.514,-8.501 10.094,-13.441c0.141,-1.2 0.567,-13.147 -12.602,-18.521c-9.609,-3.921 -48.813,-18.019 -78.83,-45.632c-18.12,-16.668 -33.026,-38.478 -33.499,-66.656Z" style="fill:#7e4021;"/><path d="M833.956,2507.52c-3.334,62.974 51.472,105.736 82.013,116.823c19.636,7.129 41.168,7.692 62.074,6.158c100.163,-7.346 154.025,-122.02 87.349,-201.841c-100.101,-119.836 -226.898,-6.876 -231.436,78.86Z" style="fill:#fed7dc;"/><path d="M817.312,2506.64c-3.797,71.726 58.184,120.742 92.969,133.371c21.83,7.925 45.74,8.818 68.982,7.113c113.669,-8.337 174.587,-138.563 98.92,-229.147c-33.848,-40.522 -70.76,-56.787 -105.491,-57.991c-40.59,-1.407 -78.896,18.133 -107.299,46.958c-28.161,28.58 -46.302,66.102 -48.081,99.696Zm33.287,1.762c1.399,-26.423 16.388,-55.584 38.537,-78.063c21.909,-22.233 51.092,-38.125 82.401,-37.039c26.898,0.932 54.85,14.664 81.064,46.046c57.684,69.058 10.879,168.178 -75.777,174.534c-18.571,1.362 -37.724,1.131 -55.168,-5.202c-26.296,-9.546 -73.927,-46.054 -71.057,-100.276Z" style="fill:#7e4021;"/><path d="M1846.7,2157.37c-21.531,75.023 73.726,136.229 69.429,135.233c-16.927,-3.924 -28.083,-22.529 -57.137,-34.433c-31.67,-12.975 -75.245,-26.11 -106.116,7.442c-26.853,29.185 -21.137,74.792 -4.939,93.193c36.855,41.869 104.336,41.512 154.032,33.809c1.106,-0.171 4.9,-1.404 5.822,-0.22c1.881,2.417 -10.698,5.06 -38.898,13.932c-24.802,7.803 -87.628,59.418 -49.021,110.932c47.851,63.85 91.519,4.101 118.284,-25.85c12.116,-13.558 32.848,-51.093 32.119,-49.666c-27.07,52.945 -26.175,113.434 26.377,137.872c45.33,21.079 85.377,-7.103 84.318,-50.358c-0.723,-29.53 -8.22,-39.619 -22.795,-65.083c-0.822,-1.437 -7.932,-11.11 -5.643,-12.809c0.165,-0.122 83.679,74.033 143.607,29.184c46.56,-34.845 6.739,-92.927 -20.315,-101.479c-11.992,-3.79 -24.289,-6.915 -36.677,-9.11c-5.723,-1.014 -14.793,-1.881 -17.23,-2.673c13.236,-2.49 130.993,-10.714 127.606,-80.837c-2.284,-47.286 -66.696,-67.433 -97.358,-55.168c-19.449,7.779 -36.296,19.924 -53.417,31.745c-0.253,0.174 -4.301,3.113 -4.533,2.293c-3.418,-12.08 110.637,-85.309 48.52,-152.35c-43.173,-46.597 -114.088,-9.952 -121.357,53.861c-1.82,15.984 -1.112,32.155 -1.756,48.23c-0.039,0.979 -2.302,13.274 -2.386,12.868c-13.123,-63.091 -54.81,-108.855 -89.26,-115.327c-32.127,-6.036 -72.725,14.971 -81.276,44.769Z" style="fill:#f8bcc4;"/><path d="M2006.18,2156.18c-7.293,-11.56 -15.416,-21.703 -23.91,-30.168c-16.543,-16.486 -34.696,-26.693 -51.21,-29.795c-23.482,-4.412 -50.756,2.725 -71.008,17.23c-14.265,10.218 -24.962,23.979 -29.365,39.322c-8.534,29.736 -1.896,57.695 10.974,81.572c-33.361,-9.84 -71.928,-11.662 -101.043,19.982c-19.686,21.397 -25.333,49.932 -22.197,74.261c2.19,16.984 8.723,31.812 17.012,41.229c23.414,26.598 57.9,38.398 93.403,41.992c-7.943,6.833 -15.656,14.989 -21.955,24.144c-17.763,25.815 -24.865,58.576 -0.339,91.301c18.261,24.366 36.749,33.519 53.616,34.854c16.218,1.283 31.819,-4.793 46.027,-15.039c11.062,-7.977 21.295,-18.559 30.356,-28.647c2.832,32.459 19.373,60.625 53.091,76.304c28.732,13.362 55.774,10.372 75.481,-2.074c20.179,-12.743 33.213,-35.731 32.526,-63.804c-0.325,-13.275 -1.794,-23.065 -4.495,-31.872c9.359,4.396 19.517,8.288 30.051,10.926c27.35,6.847 56.941,5.444 82.937,-14.011c36.421,-27.257 33.07,-65.29 16.327,-93.867c-7.73,-13.194 -18.476,-24.004 -28.991,-30.731c8.215,-2.753 16.393,-6.05 24.054,-9.998c28.849,-14.866 50.357,-38.42 48.655,-73.65c-1.455,-30.127 -21.883,-52.224 -47.65,-64.221c-19.597,-9.124 -41.963,-12.022 -59.721,-9.085c21.225,-32.823 31.353,-72.716 -3.838,-110.698c-50.97,-55.011 -134.567,-18.071 -148.788,54.543Zm-143.453,5.783c3.123,-10.884 12.563,-19.745 23.693,-25.752c11.864,-6.404 25.975,-9.584 38.486,-7.234c11.048,2.075 22.767,9.617 33.835,20.646c18.756,18.691 35.052,47.407 42.184,81.695c0.757,3.638 2.341,5.865 3.485,7.246c5.511,6.654 12.048,7.73 19.204,4.774c0.794,-0.328 7.597,-2.507 9.879,-11.587c0.543,-2.16 2.745,-14.911 2.79,-16.028c0.627,-15.668 -0.112,-31.432 1.662,-47.01c5.621,-49.349 59.184,-80.455 92.572,-44.421c19.919,21.498 15.428,43.882 4.503,63.238c-8.841,15.664 -21.614,29.649 -32.159,40.732c-11.321,11.898 -20.265,21.416 -22.946,26.758c-2.992,5.963 -2.793,11.076 -1.73,14.833c1.893,6.69 6.321,11.008 13.821,12.096c1.814,0.263 4.201,0.318 6.979,-0.419c2.525,-0.669 8.785,-4.48 9.239,-4.793c16.097,-11.114 31.852,-22.672 50.138,-29.986c11.933,-4.773 30.357,-2.44 46.096,4.888c14.682,6.835 27.596,18.445 28.425,35.611c1.008,20.879 -13.532,33.6 -30.63,42.41c-32.633,16.817 -75.889,19.827 -83.411,21.243c-7.485,1.408 -13.063,7.711 -13.551,15.312c-0.488,7.601 4.24,14.565 11.483,16.918c2.76,0.897 12.994,2.085 19.472,3.233c11.674,2.069 23.261,5.019 34.561,8.591c7.861,2.485 16.672,11.298 22.891,21.913c8.943,15.265 11.916,35.771 -7.539,50.33c-17.153,12.838 -36.821,12.88 -54.869,8.362c-31.044,-7.772 -58.041,-28.84 -65.803,-35.143c-11.494,-9.331 -22.759,-2.532 -22.88,-2.443c-4.786,3.552 -8.549,9.617 -6.786,18.481c0.962,4.838 6.958,14.352 7.896,15.991c12.852,22.454 19.961,31.173 20.599,57.212c0.371,15.184 -6.088,27.912 -17.001,34.805c-11.387,7.19 -27.027,7.752 -43.628,0.032c-43.674,-20.309 -41.062,-71.171 -18.566,-115.172c3.105,-6.071 -15.848,-39.544 -29.722,-15.148c-2.758,4.85 -19.418,34.656 -29.663,46.122c-10.111,11.314 -22.662,27.243 -37.113,38.291c-8.039,6.146 -16.549,11.019 -25.837,10.284c-9.661,-0.764 -19.111,-7.658 -29.57,-21.615c-14.083,-18.791 -9.075,-37.591 1.125,-52.415c11.541,-16.772 29.324,-29.403 39.561,-32.624c25.355,-7.977 39.248,-12.153 42.799,-14.623c5.42,-3.771 7.08,-8.304 7.683,-11.724c0.812,-4.602 0.041,-9.255 -3.434,-13.72c-2.426,-3.117 -5.983,-5.638 -10.85,-6.576c-3.202,-0.618 -11.275,0.671 -11.275,0.671c-0,0 0.43,-0.082 0.598,-0.108c-23.317,3.614 -50.806,5.599 -76.789,1.675c-23.765,-3.589 -46.364,-12.059 -62.18,-30.027c-4.67,-5.304 -7.739,-13.899 -8.973,-23.466c-1.997,-15.493 1.13,-33.803 13.667,-47.429c14.207,-15.441 32.081,-17.475 49.227,-14.895c13.555,2.04 26.783,6.87 38.305,11.59c15.752,6.454 25.58,15.247 34.307,21.887c8.51,6.475 16.436,11.285 25.385,13.36c2.411,0.559 4.288,0.488 5.594,0.351c7.849,-0.819 11.575,-5.351 13.572,-9.904c0.478,-1.09 4.502,-12.275 -6.355,-21.122c-6.742,-5.494 -34.74,-26.361 -52.043,-55.836c-10.233,-17.433 -16.796,-38.119 -10.413,-60.361Z" style="fill:#7e4021;"/><path d="M1904,2306.15c-18.292,50.241 15.565,98.484 37.586,115.035c14.158,10.642 31.479,16.428 48.812,20.359c83.04,18.838 155.103,-60.818 120.795,-142.05c-51.507,-121.955 -182.289,-61.743 -207.193,6.656Z" style="fill:#fed7dc;"/><path d="M1888.34,2300.45c-21.291,58.477 17.602,114.795 43.233,134.06c16.024,12.044 35.522,18.84 55.139,23.29c96.247,21.834 179.6,-70.637 139.836,-164.788c-17.77,-42.073 -44.27,-64.783 -72.7,-74.55c-33.235,-11.419 -69.879,-4.994 -100.665,11.685c-30.484,16.515 -54.898,42.989 -64.843,70.303l0,0Zm31.322,11.405c7.488,-20.567 26.446,-39.965 49.399,-52.399c22.65,-12.271 49.504,-17.87 73.956,-9.47c21.017,7.221 39.687,24.892 52.824,55.995c28.851,68.312 -31.922,135.153 -101.755,119.312c-15.05,-3.414 -30.192,-8.189 -42.486,-17.429c-18.411,-13.838 -47.232,-54.004 -31.938,-96.009Z" style="fill:#7e4021;"/><path d="M455.163,2215.05c5.995,36.918 28.831,73.778 74.797,65.406c26.719,-4.866 42.64,-16.196 50.656,-30.427c7.545,-13.395 8.144,-29.56 3.518,-46.063c-4.319,-15.409 -13.218,-31.121 -24.903,-44.925c41.353,11.216 93.089,6.519 96.082,-42.532c1.58,-25.872 -6.008,-44.191 -18.455,-56.35c-11.716,-11.445 -27.925,-17.553 -45.747,-19.046c-16.64,-1.394 -34.702,1.255 -51.512,7.084c21.412,-33.587 29.251,-82.056 -19.646,-101.656c-25.791,-10.338 -46.172,-9.774 -61.502,-2.689c-14.431,6.67 -24.555,19.245 -30.403,34.871c-5.46,14.589 -7.176,31.858 -5.369,49.088c-28.77,-30.955 -75.899,-54.742 -107.629,-17.21c-16.736,19.797 -21.125,38.447 -17.688,54.77c3.236,15.365 13.495,28.863 27.88,39.539c13.431,9.968 30.485,17.468 48.356,21.764c-38.319,15.395 -73.855,49.885 -43.604,91.542c15.955,21.972 33.756,32.369 51.107,34.876c16.331,2.36 32.485,-2.283 46.787,-11.634c10.262,-6.71 19.57,-15.859 27.275,-26.408Z" style="fill:#fff;"/><path d="M447.24,2247.82c13.785,32.644 41.646,57.057 85.707,49.032c33.106,-6.03 52.258,-21.011 62.191,-38.644c9.629,-17.095 10.948,-37.68 5.044,-58.741c-1.763,-6.291 -4.182,-12.634 -7.173,-18.907c39.788,0.42 76.121,-16.851 78.94,-63.037c1.948,-31.915 -8.09,-54.288 -23.444,-69.287c-14.381,-14.048 -34.127,-21.9 -56.002,-23.733c-7.797,-0.653 -15.871,-0.536 -24.006,0.293c6.303,-21.372 6.244,-43.856 -4.199,-62.236c-7.23,-12.724 -19.28,-23.928 -38.144,-31.49c-31.309,-12.55 -56.085,-10.949 -74.695,-2.348c-18.381,8.495 -31.571,24.255 -39.02,44.157c-2.358,6.299 -4.129,13.027 -5.315,20.024c-33.564,-22.034 -74.936,-28.39 -104.802,6.937c-20.985,24.823 -25.579,48.497 -21.269,68.965c4.025,19.114 16.36,36.206 34.256,49.488c5.837,4.332 12.277,8.262 19.141,11.734c-17.509,13.699 -30.268,31.512 -32.208,51.331c-1.406,14.366 2.288,30.156 14.266,46.65c19.295,26.572 41.226,38.547 62.209,41.579c20.322,2.936 40.495,-2.544 58.292,-14.18c3.51,-2.296 6.928,-4.834 10.231,-7.586l0,-0.001Zm24.374,-35.442c-1.077,-6.635 -6.034,-11.973 -12.571,-13.538c-6.537,-1.564 -13.374,0.951 -17.339,6.379c-6.491,8.886 -14.292,16.636 -22.937,22.289c-10.808,7.067 -22.941,10.871 -35.283,9.088c-13.721,-1.983 -27.386,-10.798 -40.004,-28.174c-22.551,-31.054 7.766,-54.807 36.332,-66.284c6.729,-2.704 10.938,-9.449 10.409,-16.682c-0.53,-7.233 -5.676,-13.293 -12.727,-14.988c-15.626,-3.757 -30.576,-10.227 -42.32,-18.943c-10.876,-8.071 -19.057,-17.973 -21.503,-29.589c-2.566,-12.183 1.616,-25.8 14.107,-40.575c10.95,-12.953 24.577,-15.265 37.929,-11.728c16.498,4.371 32.496,16.323 44.764,29.523c4.882,5.253 12.576,6.794 19.105,3.826c6.528,-2.967 10.426,-9.778 9.679,-16.91c-1.528,-14.564 -0.213,-29.176 4.402,-41.508c4.248,-11.35 11.305,-20.74 21.786,-25.584c12.054,-5.571 28.03,-5.098 48.308,3.03c36.895,14.789 27.95,51.884 11.794,77.227c-3.813,5.982 -3.422,13.723 0.975,19.29c4.398,5.567 11.837,7.74 18.54,5.416c14.577,-5.055 30.23,-7.432 44.66,-6.223c13.77,1.154 26.44,5.517 35.492,14.36c9.541,9.321 14.676,23.581 13.466,43.413c-1.217,19.934 -14.774,28.603 -31.11,31.068c-13.917,2.099 -29.659,0.276 -43.974,-3.607c-7.043,-1.91 -14.509,0.983 -18.425,7.14c-3.917,6.157 -3.373,14.145 1.341,19.714c10.071,11.897 17.854,25.375 21.576,38.655c3.349,11.947 3.471,23.688 -1.992,33.386c-6.102,10.834 -18.78,18.504 -39.12,22.209c-35.036,6.381 -50.791,-23.541 -55.36,-51.68Z" style="fill:#7e4021;"/><path d="M432.566,2196.77c68.648,28.963 101.361,-11.284 114.935,-33.752c38.567,-63.835 -22.707,-133.236 -92.275,-132.775c-97.063,0.643 -120.955,125.056 -22.66,166.527Z" style="fill:#ffce7b;"/><path d="M426.087,2212.12c32.068,13.529 57.478,13.572 77.372,7.739c30.406,-8.915 48.616,-32.188 58.307,-48.229c45.481,-75.278 -24.612,-158.603 -106.65,-158.059c-58.164,0.385 -93.963,38.4 -100.937,81.985c-6.846,42.786 14.087,92.169 71.908,116.564l0,-0Zm12.958,-30.712c-32.61,-13.758 -49.575,-38.052 -52.358,-62.851c-4.028,-35.893 22.042,-71.345 68.649,-71.654c57.116,-0.378 109.564,55.081 77.9,107.49c-6.598,10.921 -18.455,27.41 -39.156,33.48c-14.177,4.156 -32.182,3.177 -55.035,-6.465l-0,0Z" style="fill:#7e4021;"/><path d="M2542.02,2298.35c-24.779,28.015 -38.85,69.029 -3.265,99.307c20.684,17.599 39.534,22.749 55.624,19.942c15.146,-2.641 28.037,-12.414 37.881,-26.443c9.192,-13.099 15.719,-29.936 19.004,-47.721c17.502,39.11 53.896,76.18 93.758,47.439c21.025,-15.159 30.4,-32.632 31.93,-49.964c1.44,-16.315 -4.096,-32.729 -14.224,-47.468c-9.457,-13.763 -22.945,-26.066 -38.1,-35.385c39.554,-4.694 82.033,-29.316 66.243,-79.573c-8.329,-26.508 -21.669,-41.926 -36.86,-49.306c-14.3,-6.946 -30.444,-6.82 -46.241,-1.453c-14.749,5.012 -29.202,14.618 -41.394,26.926c5.743,-41.868 -5.686,-93.407 -54.828,-94.202c-25.919,-0.419 -43.134,7.993 -53.592,20.988c-9.843,12.233 -13.795,28.721 -12.95,46.614c0.789,16.708 5.782,34.657 13.773,51.209c-36.179,-19.911 -85.375,-25.578 -98.464,24.213c-6.904,26.261 -3.68,46.622 5.365,61.639c8.514,14.135 22.336,23.699 38.63,28.847c11.691,3.695 24.666,5.106 37.71,4.391Z" style="fill:#fff;"/><path d="M2511.64,2312.97c-16.538,31.338 -17.793,68.36 16.316,97.382c25.63,21.807 49.352,27.145 69.289,23.668c19.329,-3.371 36.097,-15.384 48.66,-33.289c3.753,-5.347 7.131,-11.236 10.092,-17.524c24.868,31.063 61.241,48.25 98.774,21.188c25.936,-18.701 36.897,-40.636 38.785,-62.018c1.767,-20.025 -4.658,-40.28 -17.09,-58.372c-4.431,-6.449 -9.634,-12.624 -15.427,-18.396c20.533,-8.654 37.898,-22.935 45.513,-42.656c5.271,-13.653 6.313,-30.074 0.221,-49.463c-10.11,-32.179 -27.037,-50.342 -45.478,-59.301c-18.213,-8.848 -38.763,-9.079 -58.884,-2.242c-6.368,2.163 -12.698,5.052 -18.864,8.564c-4.197,-39.93 -25.473,-75.977 -71.727,-76.724c-32.501,-0.526 -53.734,10.908 -66.846,27.204c-12.246,15.218 -17.666,35.588 -16.614,57.849c0.343,7.261 1.377,14.734 3.036,22.245c-21.689,-4.878 -43.555,-3.475 -60.123,7.572c-12.01,8.009 -21.892,20.865 -27.075,40.58c-8.349,31.759 -3.732,56.316 7.207,74.477c10.595,17.589 27.61,29.733 47.885,36.14c3.999,1.263 8.128,2.301 12.35,3.115l-0,0.001Zm42.866,-3.576c4.453,-5.035 5.446,-12.252 2.518,-18.302c-2.928,-6.051 -9.204,-9.75 -15.915,-9.382c-10.988,0.603 -21.926,-0.528 -31.776,-3.641c-12.313,-3.891 -22.94,-10.872 -29.374,-21.554c-7.153,-11.876 -8.983,-28.035 -3.523,-48.803c9.757,-37.117 47.338,-28.692 74.309,-13.848c6.353,3.496 14.239,2.483 19.502,-2.506c5.263,-4.99 6.696,-12.81 3.543,-19.341c-6.986,-14.473 -11.444,-30.142 -12.134,-44.75c-0.639,-13.529 1.845,-26.13 9.287,-35.379c7.805,-9.7 20.992,-15.085 40.338,-14.772c16.959,0.274 27.376,9.357 33.092,21.931c7.064,15.537 7.942,35.488 5.493,53.341c-0.975,7.105 2.705,14.036 9.135,17.21c6.431,3.174 14.171,1.879 19.218,-3.216c10.305,-10.403 22.447,-18.638 34.915,-22.874c11.474,-3.898 23.21,-4.382 33.596,0.664c11.944,5.802 21.694,18.467 28.242,39.309c11.914,37.921 -22.461,54.486 -52.306,58.027c-7.045,0.836 -12.788,6.04 -14.313,12.968c-1.525,6.929 1.503,14.063 7.547,17.78c13.142,8.082 24.892,18.692 33.093,30.627c7.826,11.388 12.471,23.958 11.358,36.563c-1.172,13.287 -8.958,26.29 -25.075,37.911c-16.199,11.68 -31.493,6.676 -43.745,-4.408c-10.436,-9.442 -18.993,-22.781 -25.052,-36.32c-2.98,-6.66 -9.947,-10.607 -17.192,-9.74c-7.245,0.866 -13.084,6.345 -14.41,13.521c-2.831,15.327 -8.336,29.885 -16.257,41.175c-7.127,10.156 -16.138,17.685 -27.102,19.597c-12.25,2.137 -26.214,-2.819 -41.961,-16.217c-27.123,-23.078 -13.938,-54.218 4.949,-75.571Z" style="fill:#7e4021;"/><path d="M2541.87,2269.28c21.048,71.472 72.913,71.309 98.898,67.589c73.829,-10.568 88.748,-101.937 44.343,-155.491c-61.956,-74.721 -173.381,-14.438 -143.241,87.902Z" style="fill:#ffce7b;"/><path d="M2525.88,2273.99c9.832,33.387 25.888,53.082 42.999,64.787c26.153,17.889 55.696,17.248 74.249,14.593c87.063,-12.463 107.176,-119.474 54.811,-182.628c-37.126,-44.776 -89.218,-48.414 -127.369,-26.215c-37.451,21.793 -62.419,69.262 -44.69,129.463Zm31.975,-9.417c-9.998,-33.951 -1.937,-62.465 15.496,-80.32c25.231,-25.845 69.178,-28.114 98.928,7.765c36.457,43.968 26.739,119.678 -33.874,128.355c-12.631,1.808 -32.901,3.071 -50.706,-9.109c-12.194,-8.341 -22.837,-22.898 -29.844,-46.691Z" style="fill:#7e4021;"/><path d="M1654.03,2772.68c19.375,-9.744 43.685,-250.446 -39.736,-224.495c-77.003,23.956 -32.589,195.554 -48.516,222.652c-0.117,0.199 -22.761,-45.877 -29.849,-59.018c-15.285,-28.338 -72.791,-133.336 -119.666,-95.782c-59.169,47.403 63.696,180.098 71.536,202.604c0.584,1.676 -139.462,-45.545 -174.375,17.897c-31.205,56.704 104.748,83.498 143.5,85.048c1.403,0.056 19.641,-0.812 19.806,0.109c0.136,0.756 -44.631,35.272 -62.329,83.994c-13.572,37.363 -7.116,89.847 22.874,100.965c84.536,31.341 119.924,-140.767 122.984,-140.049c2.488,0.583 31.423,81.481 54.588,120.205c21.177,35.401 63.814,68.237 98.523,22.647c42.62,-55.982 -43.473,-168.84 -43.25,-168.682c19.565,13.924 44.899,20.694 67.775,26.734c31.631,8.351 160.723,26.948 147.975,-40.261c-10.745,-56.648 -127.031,-56.09 -169.209,-62.8c-1.621,-0.258 -27.871,-4.011 -27.717,-5.626c0.171,-1.8 191.469,-37.256 163.374,-116.754c-29.409,-83.218 -159.918,-3.415 -198.288,30.612Z" style="fill:#fff;"/><path d="M1551.63,2705.86l-1.038,-1.954c-9.676,-17.938 -35.632,-64.819 -65.336,-91.035c-25.582,-22.578 -53.865,-30.316 -79.42,-9.842c-23.051,18.467 -26.802,46.481 -17.718,78.031c10.263,35.649 37.419,76.383 58.972,106.706l3.793,5.281c-20.841,-4.014 -46.834,-7.466 -71.288,-6.086c-34.448,1.943 -65.508,13.791 -80.778,41.54c-5.639,10.247 -7.37,19.91 -6.447,28.872c1.323,12.848 8.321,24.704 20.056,34.854c28.597,24.734 89.494,39.46 125.781,44.298c-14.093,15.934 -30.196,37.922 -39.477,63.473c-9.393,25.858 -10.302,58 -2.189,82.343c6.434,19.302 18.477,33.838 34.934,39.94c38.108,14.128 68.815,-3.208 91.954,-33.13c17.302,-22.375 30.056,-52.062 38.703,-76.025c11.001,26.664 25.594,60.821 38.406,82.239c10.314,17.241 25.193,33.789 41.761,43.464c12.922,7.545 26.896,11.06 40.881,9.024c14.588,-2.124 29.694,-10.24 43.444,-28.301c18.42,-24.193 18.327,-57.101 8.739,-89.476c-5.44,-18.369 -13.785,-36.504 -22.204,-52.14c6.892,2.065 13.776,3.917 20.475,5.686c20.331,5.368 78.259,14.458 118.39,5.503c19.908,-4.443 35.705,-13.489 44.159,-26.949c6.204,-9.875 9.038,-22.31 6.056,-38.035c-5.359,-28.253 -30.231,-46.844 -63.365,-57.417c-22.586,-7.207 -48.976,-10.919 -72.406,-13.494c20.241,-7.36 41.44,-16.637 59.033,-27.912c34.87,-22.348 55.304,-52.646 42.525,-88.805c-14.938,-42.269 -49.703,-52.846 -90.019,-45.841c-31.155,5.413 -65.803,22.255 -93.558,39.479c5.153,-34.346 7.385,-80.903 1.946,-119.299c-3.501,-24.718 -10.382,-46.164 -20.667,-60.112c-13.298,-18.036 -31.647,-26.168 -56.391,-18.47c-36.855,11.465 -53.115,49.649 -57.399,95.274c-2.417,25.745 -1.397,53.691 -0.308,78.316Zm91.43,54.267c0.811,-2.366 5.015,-14.924 6.969,-25.632c5.793,-31.754 8.884,-79.984 3.362,-118.969c-2.145,-15.143 -5.513,-28.819 -10.882,-39.132c-3.219,-6.184 -6.837,-11.155 -12.211,-12.896c-3.206,-1.039 -6.866,-0.704 -11.059,0.601c-14.087,4.382 -21.976,16.098 -27.036,30.645c-6.38,18.346 -8.174,41.022 -8.411,63.761c-0.36,34.62 3.019,69.433 2.347,91.868c-0.398,13.289 -2.685,23.271 -5.998,28.908c-3.131,5.326 -7.7,7.807 -13.24,8.184c-2.057,0.14 -8.647,0.797 -14.254,-6.352c-0.165,-0.211 -1.133,-1.496 -2.375,-3.916c-3.798,-7.398 -22.673,-45.702 -29.018,-57.467c-8.666,-16.067 -31.451,-58.387 -58.055,-81.868c-12.01,-10.599 -24.524,-18.431 -36.521,-8.819c-7.508,6.015 -10.016,14.355 -9.793,23.707c0.305,12.751 5.132,27.021 11.867,41.615c15.906,34.469 42.762,70.09 58.952,92.906c8.43,11.88 14.161,21.099 15.829,25.887c1.567,4.499 1.083,8.468 -0.36,11.924c-1.473,3.527 -4.23,7.496 -10.272,9.451c-0.672,0.218 -5.439,1.42 -13.091,-0.565c-12.878,-3.341 -57.904,-16.008 -98.337,-13.727c-22.273,1.257 -43.579,6.39 -53.453,24.331c-4.931,8.961 -0.946,16.252 6.212,22.443c7.838,6.78 18.805,12.417 30.895,17.256c32.965,13.193 74.171,19.929 92.457,20.66c1.404,0.056 17.975,-0.479 21.409,0.112c11.249,1.935 13.596,10.693 14.137,13.712c0.138,0.775 1.83,9.058 -6.491,16.547c-6.739,6.065 -41.9,35.666 -56.579,76.076c-6.893,18.977 -7.85,42.558 -1.896,60.423c2.949,8.847 7.355,16.428 14.899,19.225c22.772,8.443 40.169,-4.385 53.997,-22.266c26.371,-34.102 40.445,-87.218 45.425,-102.675c2.689,-8.345 6.826,-12.174 7.854,-12.923c4.906,-3.573 9.673,-3.734 13.721,-2.784c1.473,0.345 8.292,2.303 12.706,11.434c6.633,13.721 31.768,81.988 52.378,116.441c6.317,10.56 14.799,20.919 24.523,28.172c7.671,5.72 16.046,9.704 24.71,8.442c7.51,-1.093 14.647,-6.209 21.726,-15.506c12.274,-16.123 9.688,-38.245 3.299,-59.82c-11.33,-38.259 -36.916,-75.281 -44.521,-85.875c-1.366,-1.904 -2.197,-3.015 -2.333,-3.206c-7.518,-10.578 0.002,-19.381 0.259,-19.722c3.027,-4.012 7.288,-6.666 13.404,-6.63c1.893,0.011 5.44,0.151 9.567,3.088c17.964,12.784 41.361,18.652 62.365,24.197c17.627,4.654 67.828,12.963 102.621,5.199c10.075,-2.249 18.914,-5.335 23.193,-12.146c2.283,-3.635 2.63,-8.305 1.532,-14.093c-3.242,-17.093 -20.702,-25.476 -40.748,-31.873c-39.017,-12.45 -89.933,-13.632 -114.705,-17.574c-1.677,-0.267 -26.212,-4.177 -30.989,-6.231c-10.707,-4.606 -11.057,-13.686 -10.701,-17.43c0.135,-1.417 0.992,-11.195 12.647,-14.745c5.278,-1.608 32.987,-7.567 64.144,-18.401c24.42,-8.491 51.201,-19.947 69.81,-35.04c14.027,-11.376 23.568,-24.694 17.651,-41.439c-8.595,-24.319 -29.69,-28.137 -52.885,-24.107c-44.586,7.748 -97.076,42.521 -118.631,61.636l-0.043,-0.063c-1.267,1.128 -2.466,1.95 -3.527,2.483c-7.478,3.761 -16.587,1.391 -21.284,-5.538c-4.697,-6.929 -3.526,-16.267 2.738,-21.821l0.094,-0.083Z" style="fill:#7e4021;"/><path d="M1658.52,2921.75c-59.78,100.506 -211.908,10.834 -150.262,-89.996c64.453,-105.419 209.65,-9.849 150.262,89.996Z" style="fill:#ffce7b;"/><path d="M1672.84,2930.27c49.316,-82.912 -20.537,-163.198 -92.966,-161.097c-31.022,0.9 -62.916,16.392 -85.84,53.888c-73.379,120.018 107.648,226.842 178.806,107.209Zm-28.649,-17.04c-48.404,81.379 -171.633,8.859 -121.718,-72.782c15.748,-25.758 37.057,-37.337 58.368,-37.956c49.679,-1.441 97.177,53.867 63.35,110.738Z" style="fill:#7e4021;"/><ellipse cx="1609.15" cy="1624.09" rx="1417.47" ry="467.895" style="fill:#ebccb8;"/><path d="M1609.15,1139.53c-437.652,0 -829.47,65.456 -1091.04,168.062c-130.233,51.087 -228.503,111.683 -285.283,177.636c-37.95,44.081 -57.812,90.791 -57.812,138.864c-0,48.075 19.863,94.784 57.813,138.865c56.779,65.953 155.049,126.55 285.282,177.636c261.573,102.606 653.391,168.062 1091.04,168.062c437.652,-0 829.471,-65.456 1091.04,-168.062c130.233,-51.087 228.504,-111.683 285.283,-177.636c37.95,-44.081 57.812,-90.791 57.812,-138.865c0,-48.074 -19.862,-94.783 -57.812,-138.864c-56.78,-65.953 -155.05,-126.55 -285.283,-177.636c-261.572,-102.606 -653.391,-168.062 -1091.04,-168.062Zm0,33.334c356.63,-0 682.532,43.705 930.997,115.866c172.507,50.1 307.427,113.653 388.38,186.156c52.097,46.66 81.428,96.607 81.428,149.206c0,52.6 -29.331,102.548 -81.429,149.208c-80.953,72.502 -215.873,136.055 -388.379,186.155c-248.465,72.161 -574.367,115.866 -930.997,115.866c-356.63,0 -682.532,-43.705 -930.997,-115.866c-172.507,-50.1 -307.427,-113.653 -388.379,-186.156c-52.098,-46.66 -81.429,-96.607 -81.429,-149.207c0,-52.599 29.331,-102.547 81.429,-149.207c80.953,-72.502 215.873,-136.055 388.379,-186.155c248.465,-72.161 574.367,-115.866 930.997,-115.866Z" style="fill:#7e4021;"/><path d="M2889.44,1635.05c-3.249,2.937 -5.339,7.142 -5.478,11.859c-0.488,16.679 11.885,19.865 14.495,20.281c3.976,0.634 11.345,0.703 16.945,-7.517c1.013,-1.487 2.7,-4.849 4.284,-9.669c3.74,-11.384 9.454,-35.293 11.295,-45.994c10.665,-61.978 -14.466,-99.285 -62.352,-135.924c-7.306,-5.589 -17.775,-4.196 -23.365,3.109c-5.589,7.306 -4.196,17.775 3.109,23.365c36.86,28.202 57.966,56.091 49.758,103.797c-1.436,8.344 -5.487,25.766 -8.691,36.693Z" style="fill:#7d3f21;"/><path d="M2771.61,1430.71c2.707,7.759 10.815,12.511 19.083,10.81c9.01,-1.854 14.82,-10.674 12.966,-19.684c-1.415,-6.872 -5.951,-13.523 -13.277,-18.832c-9.111,-6.602 -23.775,-11.379 -30.777,-14.442c-8.428,-3.687 -18.263,0.161 -21.95,8.589c-3.687,8.427 0.162,18.262 8.589,21.949c4.345,1.901 12.155,4.405 19.141,7.786c2.098,1.015 5.127,3.064 6.225,3.824Z" style="fill:#7d3f21;"/><path d="M362.512,1835.06c-2.639,-18.43 76.645,-374.099 1144.82,-418.03c958.248,-39.409 1353.72,325.234 1353.16,423.253c-60.446,43.311 -418.834,258.406 -1156.82,262.94c-416.9,2.562 -1139.9,-74.342 -1341.16,-268.163Z" style="fill:#c48464;"/><path d="M346.014,1837.42c0.526,3.674 2.264,7.067 4.937,9.641c61.829,59.544 171.478,108.862 306.588,147.89c309.259,89.334 753.078,126.737 1046.24,124.935c744.241,-4.573 1105.46,-222.38 1166.42,-266.058c4.341,-3.111 6.929,-8.113 6.959,-13.454c0.08,-14.024 -5.936,-32.886 -19.8,-54.684c-18.17,-28.571 -50.242,-63.561 -97.513,-100.623c-178.038,-139.59 -576.382,-312.528 -1253.2,-284.692c-647.448,26.627 -934.902,167.993 -1060.99,279.754c-61.543,54.552 -85.897,102.929 -94.797,129.563c-4.955,14.828 -5.282,24.692 -4.847,27.728Zm34.157,-8.683c0.552,-2.491 1.325,-5.549 2.305,-8.48c7.946,-23.778 30.349,-66.481 85.293,-115.184c123.534,-109.501 405.885,-245.304 1040.24,-271.393c664.728,-27.338 1056.41,140.522 1231.26,277.619c43.475,34.085 73.242,66.003 89.954,92.279c6.96,10.945 11.648,20.552 13.587,28.661c-79.078,53.026 -434.874,249.987 -1139.25,254.315c-249.124,1.53 -608,-25.409 -898.534,-88.917c-185.988,-40.656 -343.88,-95.689 -424.865,-168.9Z" style="fill:#7d3f21;"/><path d="M1462.83,1660.38l0.066,-0.128c21.539,-41.646 32.978,-89.563 34.577,-136.24c2.882,-84.146 -31.659,-144.767 -70.431,-203.451c-35.656,-53.967 -75.192,-106.086 -85.95,-177.093c-13.321,-87.918 11.046,-167.967 36.507,-247.636c26.891,-84.143 55.01,-167.89 47.62,-258.835c-9.69,-119.263 -66.162,-175.039 -123.657,-187.258c-88.756,-18.862 -188.262,64.965 -151.88,197.502c2.435,8.87 11.614,14.095 20.484,11.66c8.871,-2.435 14.095,-11.614 11.66,-20.484c-28.121,-102.441 44.205,-170.652 112.807,-156.072c47.409,10.075 89.372,59.009 97.362,157.351c7.028,86.488 -20.575,165.97 -46.147,245.989c-27.003,84.493 -51.841,169.535 -37.714,262.776c11.54,76.162 52.852,132.59 91.096,190.475c35.128,53.167 67.54,107.699 64.929,183.935c-1.432,41.813 -11.577,84.762 -30.871,122.068c-1.216,2.351 -3.593,7.851 -3.926,9.991c-0.404,2.6 -0.179,4.778 0.189,6.447c1.351,6.124 5.021,9.777 9.685,11.826c2.97,1.304 7.916,2.919 14.624,-0.46c4.999,-2.519 8.181,-7.218 8.97,-12.363Zm-18.156,-19.102c-1.498,0.12 -3.182,0.498 -5.031,1.327c1.635,-0.722 3.331,-1.159 5.031,-1.327Z" style="fill:#7e4021;"/><path d="M1607.74,1244.89c-8.507,-1.85 -15.187,-8.934 -21.25,-16.586c-8.092,-10.21 -14.634,-22.102 -20.016,-31.148c-59.097,-99.337 -42.189,-189.724 -10.496,-279.229c33.855,-95.61 83.869,-190.463 87.403,-292.944c4.007,-116.214 -54.962,-218.568 -96.796,-323.154c-39.54,-98.849 -25.365,-226.534 90.482,-261.889c54.144,-16.525 128.465,-2.465 152.228,54.394c13.126,31.409 9.539,66.046 -7.355,95.294c-16.934,29.32 -36.567,44.588 -56.476,49.665c-28.627,7.3 -56.571,-6.498 -72.854,-24.125c-5.823,-6.302 -10.182,-13.089 -12.114,-19.687c-1.12,-3.823 -1.599,-7.511 0.241,-10.477c1.797,-2.896 5.331,-4.663 10.153,-6.04c8.845,-2.528 13.974,-11.76 11.447,-20.605c-2.527,-8.844 -11.759,-13.973 -20.604,-11.446c-18.681,5.337 -28.729,16.075 -33.066,28.316c-4.136,11.674 -2.939,25.655 3.684,39.652c14.986,31.67 59.328,64.128 107.312,59.207c31.111,-3.19 64.435,-21.551 91.142,-67.789c22.122,-38.3 26.434,-83.688 9.245,-124.818c-30.314,-72.537 -123.64,-94.504 -192.713,-73.423c-136.255,41.584 -158.207,189.888 -111.702,306.151c40.144,100.358 98.278,198.108 94.432,309.626c-3.417,99.095 -52.774,190.515 -85.511,282.966c-34.898,98.556 -51.802,198.014 13.271,307.398c7.353,12.359 16.836,29.233 28.722,42.041c9.816,10.578 21.3,18.438 34.109,21.223c8.989,1.954 17.873,-3.757 19.827,-12.746c1.955,-8.989 -3.756,-17.873 -12.745,-19.827Z" style="fill:#7e4021;"/><path d="M1824.89,1675.93c0.395,-2.812 3.678,-25.734 8.44,-48.257c14.98,-70.86 41.025,-187.678 28.578,-241.298c-23.189,-99.888 -74.687,-177.865 -110.325,-258.575c-33.626,-76.152 -52.317,-154.963 -13.451,-259.903c3.195,-8.626 -1.214,-18.223 -9.84,-21.418c-8.626,-3.195 -18.223,1.215 -21.418,9.841c-42.607,115.04 -22.646,201.464 14.216,284.944c34.849,78.922 85.673,154.973 108.348,252.649c11.714,50.462 -14.622,160.177 -28.721,226.865c-4.536,21.457 -7.926,38.759 -8.879,48.918c-0.758,8.08 0.284,13.673 1.43,16.456c3.501,8.506 13.249,12.57 21.755,9.069c7.694,-3.167 11.754,-11.444 9.867,-19.291Z" style="fill:#7e4021;"/><path d="M1758.63,762.679c17.938,-17.105 28.119,-49.32 31.364,-85.612c4.459,-49.86 -2.959,-107.195 -11.754,-135.18c-2.758,-8.775 -12.121,-13.66 -20.897,-10.902c-8.775,2.758 -13.661,12.121 -10.903,20.897c7.951,25.295 14.384,77.146 10.353,122.216c-2.415,27.005 -7.819,51.73 -21.167,64.458c-6.657,6.348 -6.907,16.906 -0.559,23.564c6.348,6.657 16.906,6.907 23.563,0.559Z" style="fill:#7e4021;"/><path d="M1229.82,1010.22c4.524,-5.466 5.202,-13.45 1.134,-19.71c-3.985,-6.134 -9.293,-7.805 -14.346,-7.782c-3.586,0.016 -9.089,0.954 -13.68,6.899c-1.205,1.56 -3.183,5.119 -4.933,10.166c-3.944,11.381 -9.492,34.502 -10.006,37.413c-11.433,64.794 -5.348,131.145 10.028,194.845c2.158,8.941 11.17,14.449 20.112,12.29c8.942,-2.158 14.449,-11.17 12.291,-20.112c-14.303,-59.253 -20.24,-120.958 -9.604,-181.23c0.416,-2.358 7.162,-26.267 9.004,-32.779Zm-26.265,-0.754c2.406,3.355 5.274,5.131 8.241,5.959c-3.209,-1.045 -6.119,-3.066 -8.241,-5.959Z" style="fill:#7e4021;"/><path d="M1886.75,992.894c-12.687,-11.504 -17.154,-28.53 -17.359,-48.458c-0.243,-23.588 5.651,-50.918 14.5,-79.627c28.524,-92.538 86.891,-198.25 93.419,-246.491c11.103,-82.034 -14.272,-155.834 -52.381,-226.855c-4.349,-8.106 -14.461,-11.155 -22.566,-6.806c-8.106,4.349 -11.155,14.461 -6.806,22.566c34.748,64.758 58.844,131.825 48.721,206.624c-6.394,47.25 -64.304,150.507 -92.241,241.143c-12.079,39.188 -18.654,76.223 -14.91,106.229c2.863,22.945 11.557,42.156 27.233,56.369c6.814,6.178 17.363,5.662 23.542,-1.152c6.179,-6.815 5.663,-17.363 -1.152,-23.542Z" style="fill:#7e4021;"/></g></g></svg>