<?xml version="1.0" encoding="UTF-8" standalone="no"?><!DOCTYPE svg PUBLIC "-//W3C//DTD SVG 1.1//EN" "http://www.w3.org/Graphics/SVG/1.1/DTD/svg11.dtd"><svg width="100%" height="100%" viewBox="0 0 1813 2194" version="1.1" xmlns="http://www.w3.org/2000/svg" xmlns:xlink="http://www.w3.org/1999/xlink" xml:space="preserve" xmlns:serif="http://www.serif.com/" style="fill-rule:evenodd;clip-rule:evenodd;stroke-linejoin:round;stroke-miterlimit:2;"><g id="Piccolo-Latte" serif:id="Piccolo Latte"><path d="M95.195,194.267c-33.251,48.833 -55.402,123.711 -69.549,206.955c-20.688,121.742 -24.759,261.53 -24.997,360.289c-1.142,471.897 40.423,747.721 210.833,1124.28c36.927,81.597 125.331,199.88 195.391,235.689c118.293,60.46 402.231,85.67 650.276,65.533c166.871,-13.546 317.354,-47.99 391.639,-103.922c89.882,-67.676 145.707,-191.774 193.691,-289.705c151.473,-309.144 186.618,-916.719 163.83,-1283.79c-6.893,-111.038 -19.137,-200.223 -34.815,-252.918c-7.671,-25.783 -16.759,-43.589 -25.786,-52.742c-35.682,-36.178 -105.606,-63.874 -190.896,-83.897c-191.285,-44.908 -461.005,-54.274 -569.533,-58.803c-165.68,-6.914 -494.657,4.476 -702.603,49.297c-54.754,11.801 -101.274,25.995 -134.688,42.598c-24.737,12.291 -42.66,26.254 -52.792,41.134l-0.001,0Zm27.553,18.761c7.582,-11.135 21.561,-20.846 40.073,-30.044c31.457,-15.631 75.33,-28.753 126.878,-39.864c205.454,-44.283 530.496,-55.409 694.19,-48.577c107.337,4.479 374.119,13.534 563.305,57.949c77.771,18.258 142.245,41.865 174.782,74.854c9.154,9.281 16.455,31.101 23.71,62.275c12.196,52.405 21.604,129.423 27.354,222.043c22.488,362.239 -11.013,961.974 -160.495,1267.05c-45.859,93.593 -97.905,213.063 -183.807,277.742c-70.901,53.384 -215.017,84.398 -374.286,97.327c-241.164,19.578 -517.397,-3.207 -632.408,-61.991c-65.034,-33.239 -145.916,-144.008 -180.193,-219.75c-168.305,-371.904 -208.996,-644.388 -207.869,-1110.45c0.235,-97.249 4.154,-234.906 24.527,-354.785c13.227,-77.838 33.147,-148.118 64.239,-193.779l-0,0Z" style="fill:#7e4021;"/><path d="M232.812,300.689c-68.061,103.828 -77.228,346.834 -77.562,490.414c-0.96,412.248 49.219,633.025 206.05,885.651c130.261,209.825 397.04,272.853 580.425,267.992c183.385,-4.861 403.344,-90.606 519.886,-297.159c209.537,-371.373 219.452,-1259.21 146.207,-1336.35c-96.215,-101.333 -503.563,-115.432 -634.041,-121.088c-199.089,-8.63 -678.508,15.264 -740.965,110.544Z" style="fill:#ffe6d8;"/><path d="M218.873,291.552c-28.24,43.081 -47.102,109.134 -59.117,182.574c-17.52,107.094 -20.971,230.062 -21.173,316.938c-0.97,416.405 50.145,639.308 208.557,894.48c133.634,215.26 406.893,280.85 595.027,275.863c188.414,-4.994 414.222,-93.412 533.959,-305.63c147.864,-262.068 197.754,-779.145 188.674,-1092.55c-2.751,-94.963 -10.962,-171.385 -23.221,-216.784c-6.131,-22.702 -13.843,-38.443 -21.675,-46.691c-30.456,-32.077 -90.063,-56.737 -162.86,-74.49c-162.07,-39.524 -390.593,-47.787 -482.545,-51.773c-140.393,-6.086 -419.157,3.952 -595.364,43.404c-46.622,10.438 -86.224,23.012 -114.675,37.697c-21.381,11.036 -36.83,23.598 -45.587,36.957Zm27.877,18.274c6.234,-9.509 17.78,-17.756 32.999,-25.611c26.444,-13.649 63.335,-25.087 106.669,-34.789c173.621,-38.873 448.305,-48.627 586.637,-42.63c90.718,3.932 316.197,11.862 476.091,50.855c65.19,15.898 119.312,36.333 146.586,65.057c7.551,7.953 13.011,26.319 18.331,52.36c9.151,44.791 15.136,110.379 17.418,189.129c8.934,308.362 -38.898,817.345 -184.386,1075.2c-113.345,200.888 -327.455,283.961 -505.811,288.689c-178.637,4.735 -438.936,-55.731 -565.824,-260.123c-155.25,-250.078 -204.494,-468.729 -203.544,-876.821c0.199,-85.421 3.51,-206.335 20.736,-311.634c11.15,-68.155 27.89,-129.701 54.098,-169.682Z" style="fill:#7e4021;"/><path d="M232.812,300.689c-27.22,41.524 -45.02,105.309 -56.602,176.091c-17.378,106.205 1236.55,265.876 1468,6.497c-6.504,-90.752 -19.141,-153.878 -36.39,-172.044c-96.215,-101.333 -503.563,-115.432 -634.041,-121.088c-199.089,-8.63 -678.508,15.264 -740.965,110.544Z" style="fill:#fff;"/><path d="M218.873,291.552c-28.236,43.074 -47.096,109.112 -59.111,182.537c-1.805,11.031 2.405,23.313 15.587,34.833c18.845,16.469 60.964,34.161 120.264,50.299c225.126,61.265 706.736,109.59 1039.37,61.424c146.425,-21.203 264.236,-61.912 321.664,-126.271c3,-3.362 4.511,-7.794 4.189,-12.288c-4.681,-65.311 -12.622,-116.679 -22.945,-148.043c-5.301,-16.106 -11.608,-27.573 -17.983,-34.286c-30.456,-32.077 -90.063,-56.737 -162.86,-74.49c-162.07,-39.524 -390.593,-47.787 -482.545,-51.773c-140.393,-6.086 -419.157,3.952 -595.364,43.404c-46.622,10.438 -86.224,23.012 -114.675,37.697c-21.381,11.036 -36.83,23.598 -45.587,36.957Zm-26.08,187.111c11.149,-67.824 27.859,-129.023 53.957,-168.837c6.234,-9.509 17.78,-17.756 32.999,-25.611c26.444,-13.649 63.335,-25.087 106.669,-34.789c173.621,-38.873 448.305,-48.627 586.637,-42.63c90.718,3.932 316.197,11.862 476.091,50.855c65.19,15.898 119.312,36.333 146.586,65.057c5.658,5.96 9.972,18.13 14.34,34.978c7.449,28.732 13.158,69.655 16.978,119.572c-55.29,57.076 -163.911,91.148 -296.848,110.397c-328.3,47.54 -803.641,-0.13 -1025.84,-60.598c-45.716,-12.441 -80.375,-25.174 -99.988,-37.964c-4.081,-2.66 -7.391,-5.236 -9.757,-7.861c-0.694,-0.769 -1.501,-2.032 -1.828,-2.569Z" style="fill:#7e4021;"/><path d="M1528.64,1493.81c-39.565,34.055 -270.083,148.349 -609.455,152.062c-303.624,3.321 -574.501,-90.915 -651.377,-144.54c25.77,58.645 56.694,116.159 93.487,175.426c130.261,209.825 397.04,272.853 580.425,267.992c183.385,-4.861 403.344,-90.606 519.886,-297.159c25.154,-44.583 47.432,-96.609 67.034,-153.781Z" style="fill:#9d5e3e;"/><path d="M1544.41,1499.21c2.44,-7.117 -0.191,-14.987 -6.421,-19.206c-6.231,-4.218 -14.515,-3.74 -20.218,1.169c-38.85,33.44 -265.523,144.383 -598.765,148.028c-299.011,3.271 -565.951,-88.733 -641.658,-141.544c-6.126,-4.273 -14.347,-3.949 -20.117,0.793c-5.771,4.742 -7.682,12.744 -4.677,19.582c26.076,59.34 57.355,117.541 94.585,177.511c133.634,215.26 406.893,280.85 595.027,275.863c188.414,-4.994 414.222,-93.412 533.959,-305.63c25.613,-45.394 48.326,-98.353 68.285,-156.566Zm-48.081,34.507c-14.982,38.484 -31.36,73.999 -49.235,105.679c-113.345,200.888 -327.455,283.961 -505.811,288.689c-178.637,4.735 -438.936,-55.731 -565.824,-260.123c-26.58,-42.816 -50.066,-84.703 -70.725,-126.779c112.826,54.376 351.559,124.227 614.637,121.349c280.089,-3.063 487.137,-80.958 576.958,-128.815l-0,-0Z" style="fill:#7e4021;"/><path d="M910.249,40.851c114.806,12.297 129.431,-21.874 219.732,-23.403c69.771,-1.181 147.312,42.573 199.219,49.338c73.469,9.576 134.048,68.867 174.374,96.866c41.443,28.775 108.933,132.006 108.933,155.119c-0,83.644 -310.17,151.553 -692.212,151.553c-382.042,-0 -692.212,-67.909 -692.212,-151.553c-0,-35.177 72.134,-173.099 156.634,-217.651c80.556,-42.473 175.995,-50.041 248.437,-28.06c99.946,30.326 152.76,-45.527 277.095,-32.209Z" style="fill:#fff;"/><path d="M912.024,24.279c-57.955,-6.208 -101.161,5.806 -140.429,18.555c-28.43,9.23 -54.54,18.999 -83.47,20.569c-15.568,0.844 -31.982,-0.785 -50.132,-6.292c-39.829,-12.085 -86.249,-15.782 -133.603,-10.114c-43.156,5.166 -87.082,18.098 -127.446,39.38c-38.726,20.418 -75.247,59.127 -103.909,99.755c-25.55,36.215 -44.891,73.808 -54.406,100.359c-4.896,13.661 -7.213,24.886 -7.213,32.28c0,16.946 8.579,33.977 26.684,49.699c29.855,25.926 88.66,49.98 168.823,69.06c127.509,30.35 310.366,49.46 513.372,49.46c203.006,0 385.863,-19.11 513.371,-49.46c80.164,-19.08 138.969,-43.134 168.824,-69.06c18.105,-15.722 26.684,-32.753 26.684,-49.699c-0,-5.416 -2.162,-14.228 -6.958,-25.036c-7.951,-17.916 -23.271,-43.609 -41.05,-68.677c-22.096,-31.157 -48.077,-61.203 -68.087,-75.096c-25.791,-17.907 -59.812,-48.37 -100.079,-70.901c-25.044,-14.013 -52.421,-24.993 -81.646,-28.802c-36.54,-4.762 -85.897,-28.289 -136.217,-40.852c-21.931,-5.476 -44.031,-8.985 -65.438,-8.623c-60.842,1.03 -87.918,16.443 -133.229,23.209c-21.585,3.223 -47.596,4.233 -84.446,0.286l-0,0Zm-3.55,33.144c28.127,3.013 50.492,3.323 69.468,2.058c58.95,-3.931 83.591,-24.205 152.321,-25.368c18.587,-0.315 37.757,2.88 56.8,7.635c51.669,12.9 102.463,36.675 139.983,41.565c24.97,3.254 48.28,12.864 69.677,24.837c39.21,21.94 72.231,51.755 97.345,69.192c17.741,12.319 40.317,39.373 59.909,66.999c16.305,22.992 30.479,46.484 37.771,62.915c2.256,5.083 4.092,8.968 4.092,11.515c0,11.68 -9.937,21.725 -25.33,32.294c-39.951,27.429 -115.877,50.849 -215.389,68.667c-118.515,21.22 -269.932,33.925 -434.826,33.925c-164.894,0 -316.312,-12.705 -434.827,-33.925c-99.511,-17.818 -175.438,-41.238 -215.388,-68.667c-15.393,-10.569 -25.33,-20.614 -25.33,-32.294c-0,-6.963 3.861,-18.577 9.938,-32.973c9.771,-23.151 25.676,-52.232 45.584,-80.451c25.569,-36.243 57.672,-71.27 92.218,-89.484c36.692,-19.346 76.631,-31.073 115.861,-35.769c42.515,-5.089 84.204,-1.936 119.964,8.914c22.304,6.768 42.483,8.717 61.615,7.679c31.832,-1.726 60.677,-11.993 91.958,-22.149c35.411,-11.497 74.323,-22.713 126.586,-17.115l-0,-0Z" style="fill:#7e4021;"/><path d="M637.348,370.486c219.869,14.991 505.44,16.454 724.251,-8.36c9.14,-1.036 15.719,-9.298 14.682,-18.438c-1.036,-9.14 -9.298,-15.719 -18.438,-14.683c-216.991,24.607 -500.187,23.091 -718.227,8.224c-9.178,-0.625 -17.136,6.318 -17.762,15.495c-0.626,9.177 6.317,17.136 15.494,17.762Z" style="fill:#7e4021;"/><path d="M411.997,348.27c30.481,5.466 102.423,11.408 128.231,12.485c9.19,0.383 16.963,-6.767 17.346,-15.958c0.384,-9.19 -6.767,-16.963 -15.957,-17.347c-24.902,-1.038 -94.325,-6.715 -123.735,-11.99c-9.055,-1.624 -17.724,4.408 -19.348,13.463c-1.623,9.054 4.409,17.723 13.463,19.347Z" style="fill:#7e4021;"/><path d="M1491.02,343.149c14.052,-1.871 50.812,-5.851 84.626,-14.26c24.819,-6.171 47.98,-15.033 61.536,-26.358c10.506,-8.777 16.179,-19.211 16.67,-30.626c0.448,-10.417 -3.478,-22.591 -15.568,-35.733c-6.228,-6.77 -16.781,-7.21 -23.55,-0.982c-6.77,6.228 -7.209,16.781 -0.981,23.55c4.346,4.725 7.197,8.276 6.779,11.96c-0.214,1.89 -1.618,3.35 -3.197,4.883c-3.478,3.375 -8.322,6.248 -13.922,8.921c-35.592,16.983 -97.966,23.097 -116.792,25.603c-9.118,1.214 -15.535,9.602 -14.321,18.72c1.213,9.118 9.602,15.535 18.72,14.322Z" style="fill:#7e4021;"/></g></svg>