<?xml version="1.0" encoding="UTF-8" standalone="no"?><!DOCTYPE svg PUBLIC "-//W3C//DTD SVG 1.1//EN" "http://www.w3.org/Graphics/SVG/1.1/DTD/svg11.dtd"><svg width="100%" height="100%" viewBox="0 0 3574 2243" version="1.1" xmlns="http://www.w3.org/2000/svg" xmlns:xlink="http://www.w3.org/1999/xlink" xml:space="preserve" xmlns:serif="http://www.serif.com/" style="fill-rule:evenodd;clip-rule:evenodd;stroke-linejoin:round;stroke-miterlimit:2;"><g id="Red-eye" serif:id="Red eye"><path d="M208.447,140.032c-43.711,53.398 -68.749,89.387 -96.799,152.244c-54.921,123.071 -85.417,256.034 -101.15,389.473c-46.031,390.417 75.917,831.694 294.754,1157.12c135.895,202.086 343.993,307.089 572.867,358.652c226.163,50.951 472.58,49.659 687.915,39.835c234.312,-10.689 484.508,-28.318 699.757,-131.108c105.628,-50.441 197.367,-132.371 270.468,-222.798c134.861,-166.825 228.562,-369.127 294.614,-572c47.33,-145.372 71.642,-298.62 69.429,-451.632c-1.7,-117.535 -16.802,-316.679 -73.036,-480.5c-38.609,-112.475 -96.988,-208.135 -181.887,-252.568c-95.137,-49.792 -218.881,-56.585 -322.808,-70.168c-233.365,-30.499 -469.802,-43.378 -705.004,-48.318c-297.656,-6.251 -798.75,-21.955 -1118.49,25.15c-83.642,12.322 -155.053,29.003 -207.64,51.044c-37.384,15.67 -65.586,34.309 -82.994,55.575l0,0Zm25.794,21.114c14.606,-17.842 38.719,-32.8 70.085,-45.947c50.539,-21.182 119.229,-36.967 199.614,-48.809c318.145,-46.87 816.752,-31.021 1112.93,-24.801c233.994,4.915 469.218,17.702 701.384,48.044c100.269,13.105 219.883,18.61 311.672,66.649c78.197,40.926 130.254,130.26 165.815,233.857c55.021,160.285 69.571,355.163 71.234,470.16c2.16,149.354 -21.596,298.934 -67.795,440.83c-64.809,199.058 -156.515,397.677 -288.84,561.364c-70.03,86.628 -157.72,165.352 -258.91,213.675c-211.253,100.882 -456.951,117.397 -686.912,127.888c-212.562,9.697 -455.82,11.241 -679.07,-39.054c-220.537,-49.685 -421.587,-150.01 -552.532,-344.735c-214.594,-319.116 -334.45,-751.768 -289.311,-1134.62c15.341,-130.109 44.935,-259.792 98.486,-379.792c26.674,-59.774 50.585,-93.935 92.152,-144.714l0.001,0Z" style="fill:#7e4021;"/><path d="M2829.25,462.697c-7.203,3.651 -10.752,11.942 -8.422,19.674c20.184,66.99 36.308,189.977 47.239,288.484c0.605,5.451 3.853,10.256 8.687,12.849c4.834,2.593 10.633,2.641 15.51,0.129c61.713,-31.788 149.059,-71.048 228.671,-77.665c49.386,-4.106 95.768,4.374 129.422,37.929c25.399,25.324 33.075,69.804 26.088,122.591c-11.333,85.616 -62.379,192.071 -152.391,282.574c-105.329,105.903 -248.857,173.837 -334.414,204.725c-4.342,1.568 -7.839,4.865 -9.658,9.107c-34.107,79.526 -105.707,243.212 -117.324,275.376c-3.446,9.541 -1.956,15.777 -1.553,16.875c2.77,7.544 8.197,10.353 14.148,10.916c13.663,1.292 55.351,-5.692 113.081,-23.543c128.978,-39.882 342.271,-132.936 497.846,-293.575c200.995,-207.538 295.648,-439.723 286.548,-621.292c-6.261,-124.917 -61.046,-226.503 -163.051,-282.605c-244.392,-134.413 -511.705,-17.385 -580.427,17.451Zm-127.769,1168.11c21.519,-52.737 76.163,-177.843 106.297,-247.958c89.392,-33.13 233.411,-102.997 339.91,-210.077c95.986,-96.509 149.717,-210.407 161.802,-301.706c8.625,-65.163 -4.244,-119.309 -35.598,-150.57c-40.628,-40.509 -96.098,-52.499 -155.718,-47.543c-75.023,6.236 -156.724,39.506 -219.672,70.428c-10.316,-89.299 -24.627,-192.32 -41.9,-256.996c80.28,-38.448 318.321,-132.205 537.011,-11.928c91.857,50.521 140.186,142.578 145.824,255.067c8.748,174.54 -83.987,396.929 -277.202,596.433c-151.122,156.042 -358.461,246.178 -483.748,284.92c-32.263,9.976 -58.77,16.646 -77.006,19.93Z" style="fill:#7e4021;"/><path d="M343.454,275.691c-38.194,44.235 -60.117,74.022 -84.626,126.093c-48.581,103.212 -75.494,214.736 -89.411,326.643c-40.832,328.341 198.918,1218.79 1245.3,1248.1c1114.69,31.224 1343.08,-956.219 1297.91,-1295.3c-21.909,-164.48 -79.443,-351.045 -204.793,-413.243c-83.719,-41.54 -192.711,-46.763 -284.165,-58.095c-208.497,-25.834 -419.739,-36.732 -629.878,-40.916c-379.94,-7.565 -1130.85,-31.666 -1250.34,106.717Z" style="fill:#c48464;"/><path d="M330.838,264.799c-39.331,45.553 -61.85,76.265 -87.09,129.888c-49.334,104.81 -76.737,218.042 -90.87,331.683c-41.402,332.923 200.388,1237.09 1261.37,1266.81c1130.1,31.655 1360.69,-970.392 1314.9,-1314.16c-13.415,-100.709 -40.105,-209.476 -86.791,-294.131c-32.25,-58.478 -74.097,-105.534 -127.115,-131.842c-85.327,-42.338 -196.313,-48.155 -289.523,-59.705c-209.066,-25.905 -420.884,-36.844 -631.596,-41.04c-266.66,-5.309 -715.576,-18.642 -1002.02,21.367c-75.024,10.479 -139.078,24.674 -186.246,43.417c-33.801,13.432 -59.28,29.475 -75.019,47.705l-0.001,-0Zm25.231,21.784c12.936,-14.983 34.317,-27.471 62.099,-38.511c45.205,-17.964 106.646,-31.34 178.547,-41.382c284.933,-39.798 731.488,-26.334 996.743,-21.053c209.566,4.173 420.232,15.03 628.161,40.794c89.696,11.114 196.696,15.742 278.806,56.484c47.262,23.451 83.993,65.95 112.742,118.08c44.812,81.256 70.062,185.767 82.938,282.434c44.542,334.39 -181.641,1307.23 -1280.92,1276.43c-1031.78,-28.901 -1269.49,-905.62 -1229.23,-1229.38c13.701,-110.173 40.122,-219.989 87.95,-321.602c23.78,-50.52 45.106,-79.382 82.162,-122.299l-0,0Z" style="fill:#7e4021;"/><path d="M2613.26,1254.17c94.388,-223.603 -2435.09,-201.098 -2344.11,4.721c152.022,343.922 490.943,699.293 1145.57,717.63c692.995,19.411 1043.43,-354.893 1198.55,-722.351Z" style="fill:#7e4021;"/><path d="M2628.62,1260.65c8.402,-19.904 3.941,-38.792 -14.004,-56.087c-19.446,-18.742 -58.602,-36.151 -114.047,-50.734c-202.001,-53.133 -629.974,-77.392 -1058.17,-75c-490.268,2.739 -980.735,40.823 -1133.91,108.637c-21.958,9.721 -37.609,20.384 -46.72,31.189c-12.549,14.884 -15.081,30.621 -7.853,46.973c154.023,348.447 497.105,708.972 1160.34,727.551c702.307,19.672 1057.17,-360.134 1214.37,-732.529Zm-30.709,-12.964c-153.03,362.52 -499.042,731.323 -1182.72,712.172c-646.008,-18.095 -980.767,-368.311 -1130.79,-707.707c-1.584,-3.585 -0.83,-6.988 1.509,-10.283c3.014,-4.249 7.775,-8.216 13.897,-12.212c19.38,-12.653 50.735,-24.042 91.769,-34.665c201.221,-52.091 626.227,-80.456 1051.01,-82.829c424.679,-2.373 849.167,21.208 1049.51,73.904c40.698,10.704 71.755,22.37 90.851,35.613c11.98,8.309 19.164,16.074 14.971,26.007Z" style="fill:#7e4021;"/><ellipse cx="1437.99" cy="1235.9" rx="1169.94" ry="208.447" style="fill:#9d5e3e;"/><path d="M1437.99,1010.79c-335.696,0 -638.675,25.205 -852.758,65.502c-132.048,24.855 -230.735,55.814 -283.62,89.721c-33.99,21.792 -50.229,46.181 -50.229,69.891c0,23.711 16.239,48.099 50.229,69.892c52.885,33.907 151.572,64.865 283.62,89.721c214.083,40.297 517.062,65.501 852.758,65.501c335.697,0 638.675,-25.204 852.758,-65.501c132.048,-24.856 230.735,-55.814 283.621,-89.721c33.99,-21.793 50.228,-46.181 50.228,-69.892c0,-23.71 -16.238,-48.099 -50.228,-69.891c-52.886,-33.907 -151.573,-64.866 -283.621,-89.721c-214.083,-40.297 -517.061,-65.502 -852.758,-65.502Zm0,33.333c333.266,0 634.059,24.921 846.592,64.927c126.415,23.795 221.166,52.563 271.796,85.024c21.51,13.791 34.886,26.825 34.886,41.83c0,15.005 -13.376,28.039 -34.886,41.83c-50.63,32.461 -145.381,61.229 -271.796,85.025c-212.533,40.005 -513.326,64.926 -846.592,64.926c-333.266,-0 -634.059,-24.921 -846.592,-64.926c-126.415,-23.796 -221.166,-52.564 -271.795,-85.025c-21.511,-13.791 -34.887,-26.825 -34.887,-41.83c0,-15.005 13.376,-28.039 34.887,-41.83c50.629,-32.461 145.38,-61.229 271.795,-85.024c212.533,-40.006 513.326,-64.927 846.592,-64.927Z" style="fill:#7e4021;"/><path d="M1097.68,380.205c326.722,22.276 751.076,24.466 1076.23,-12.406c9.14,-1.037 15.719,-9.299 14.682,-18.439c-1.036,-9.14 -9.298,-15.719 -18.438,-14.682c-323.33,36.666 -745.309,34.422 -1070.2,12.27c-9.177,-0.625 -17.136,6.318 -17.762,15.495c-0.626,9.177 6.317,17.136 15.495,17.762Z" style="fill:#7e4021;"/><path d="M763.237,347.256c45.095,8.088 151.532,16.864 189.712,18.457c9.191,0.383 16.964,-6.767 17.347,-15.957c0.383,-9.191 -6.767,-16.964 -15.957,-17.347c-37.275,-1.555 -141.193,-10.067 -185.217,-17.963c-9.055,-1.624 -17.724,4.409 -19.348,13.463c-1.623,9.054 4.409,17.723 13.463,19.347Z" style="fill:#7e4021;"/><path d="M2366.33,339.579c30.041,-3.999 129.375,-14.676 186.173,-41.777c28.392,-13.548 46.425,-32.195 48.819,-53.288c1.662,-14.644 -3.495,-31.768 -20.774,-50.549c-6.228,-6.77 -16.78,-7.209 -23.549,-0.981c-6.77,6.228 -7.21,16.78 -0.982,23.549c8.573,9.318 13.009,16.957 12.185,24.221c-0.52,4.58 -3.348,8.471 -7.176,12.185c-5.728,5.56 -13.653,10.377 -22.877,14.779c-53.715,25.63 -147.807,35.037 -176.217,38.819c-9.118,1.214 -15.536,9.602 -14.322,18.72c1.214,9.118 9.602,15.536 18.72,14.322Z" style="fill:#7e4021;"/></g></svg>