<?xml version="1.0" encoding="UTF-8" standalone="no"?><!DOCTYPE svg PUBLIC "-//W3C//DTD SVG 1.1//EN" "http://www.w3.org/Graphics/SVG/1.1/DTD/svg11.dtd"><svg width="100%" height="100%" viewBox="0 0 1813 2135" version="1.1" xmlns="http://www.w3.org/2000/svg" xmlns:xlink="http://www.w3.org/1999/xlink" xml:space="preserve" xmlns:serif="http://www.serif.com/" style="fill-rule:evenodd;clip-rule:evenodd;stroke-linejoin:round;stroke-miterlimit:2;"><g id="Ristretto"><path d="M95.274,134.98c-33.251,48.832 -55.403,123.71 -69.549,206.954c-20.689,121.742 -24.759,261.531 -24.998,360.289c-1.141,471.897 40.424,747.722 210.834,1124.28c36.927,81.597 125.331,199.88 195.391,235.689c118.293,60.461 402.231,85.67 650.276,65.534c166.871,-13.547 317.354,-47.99 391.639,-103.923c89.882,-67.676 145.706,-191.774 193.69,-289.705c151.474,-309.144 186.619,-916.719 163.831,-1283.79c-6.893,-111.038 -19.137,-200.223 -34.815,-252.919c-7.671,-25.782 -16.759,-43.589 -25.786,-52.741c-35.683,-36.179 -105.606,-63.875 -190.896,-83.898c-191.285,-44.908 -461.006,-54.273 -569.533,-58.802c-165.68,-6.914 -494.657,4.476 -702.603,49.296c-54.755,11.802 -101.275,25.995 -134.688,42.598c-24.737,12.292 -42.661,26.255 -52.793,41.135Zm27.553,18.761c7.582,-11.136 21.56,-20.846 40.073,-30.045c31.457,-15.631 75.329,-28.753 126.878,-39.864c205.453,-44.283 530.496,-55.408 694.19,-48.577c107.337,4.479 374.119,13.534 563.305,57.949c77.771,18.258 142.245,41.865 174.782,74.854c9.154,9.281 16.455,31.101 23.709,62.275c12.197,52.406 21.605,129.423 27.355,222.043c22.488,362.24 -11.013,961.975 -160.495,1267.05c-45.859,93.594 -97.906,213.063 -183.807,277.742c-70.901,53.384 -215.017,84.398 -374.286,97.328c-241.165,19.578 -517.398,-3.208 -632.409,-61.991c-65.033,-33.24 -145.915,-144.008 -180.193,-219.751c-168.304,-371.904 -208.996,-644.388 -207.868,-1110.45c0.235,-97.248 4.154,-234.905 24.526,-354.785c13.228,-77.838 33.148,-148.118 64.24,-193.778Z" style="fill:#7e4021;"/><path d="M218.952,232.264c-28.241,43.082 -47.103,109.135 -59.117,182.575c-17.52,107.093 -20.971,230.062 -21.173,316.937c-0.97,416.405 50.144,639.308 208.557,894.481c133.634,215.259 406.892,280.85 595.027,275.862c188.414,-4.994 414.221,-93.412 533.959,-305.63c147.864,-262.067 197.754,-779.145 188.674,-1092.55c-2.751,-94.963 -10.962,-171.385 -23.221,-216.784c-6.131,-22.702 -13.843,-38.443 -21.675,-46.691c-30.456,-32.076 -90.064,-56.737 -162.861,-74.49c-162.07,-39.524 -390.592,-47.787 -482.544,-51.773c-140.393,-6.086 -419.157,3.952 -595.365,43.404c-46.622,10.438 -86.223,23.012 -114.674,37.697c-21.381,11.036 -36.83,23.598 -45.587,36.957Zm27.877,18.275c6.233,-9.509 17.78,-17.757 32.998,-25.612c26.445,-13.649 63.335,-25.087 106.669,-34.789c173.622,-38.873 448.306,-48.626 586.638,-42.63c90.718,3.933 316.197,11.862 476.091,50.855c65.19,15.898 119.312,36.333 146.585,65.058c7.551,7.952 13.011,26.319 18.332,52.36c9.151,44.79 15.136,110.379 17.418,189.129c8.934,308.362 -38.899,817.344 -184.386,1075.2c-113.346,200.889 -327.456,283.961 -505.812,288.689c-178.636,4.735 -438.936,-55.731 -565.823,-260.123c-155.25,-250.078 -204.494,-468.729 -203.544,-876.821c0.199,-85.42 3.509,-206.334 20.736,-311.634c11.15,-68.155 27.89,-129.7 54.098,-169.681Z" style="fill:#7e4021;"/><path d="M1528.72,1434.52c25.41,-74.112 -1295.07,-70.393 -1260.83,7.522c25.77,58.645 56.693,116.159 93.487,175.426c130.26,209.826 397.04,272.854 580.425,267.993c183.385,-4.861 403.344,-90.607 519.886,-297.16c25.154,-44.583 47.432,-96.608 67.034,-153.781Z" style="fill:#9d5e3e;"/><path d="M1544.49,1439.92c2.91,-8.49 1.49,-17 -6.299,-24.848c-6.913,-6.965 -23.998,-14.537 -50.3,-20.178c-124.818,-26.769 -486.258,-35.842 -784.144,-27.169c-200.29,5.831 -372.028,20.144 -425.628,41.561c-26.059,10.412 -30.885,27.167 -25.485,39.455c26.075,59.34 57.355,117.542 94.585,177.512c133.634,215.259 406.892,280.85 595.027,275.862c188.414,-4.994 414.221,-93.412 533.959,-305.63c25.612,-45.394 48.326,-98.353 68.285,-156.565Zm-34.053,-3.56c-18.621,53.292 -39.636,101.869 -63.263,143.745c-113.346,200.889 -327.456,283.961 -505.812,288.689c-178.636,4.735 -438.936,-55.731 -565.823,-260.123c-34.914,-56.239 -64.488,-110.876 -89.329,-166.446c1.106,-0.587 2.322,-1.184 3.474,-1.659c6.1,-2.518 14.036,-4.875 23.603,-7.155c69.956,-16.671 220.033,-27.377 391.43,-32.367c294.856,-8.584 652.636,-0.055 776.184,26.442c9.948,2.133 18.255,4.358 24.719,6.742c1.606,0.592 3.324,1.385 4.817,2.132Z" style="fill:#7e4021;"/><ellipse cx="896.23" cy="1417.33" rx="636.726" ry="139.404" style="fill:#c48464;"/><path d="M896.23,1261.26c-186.856,-0 -355.166,17.597 -472.531,45.532c-74.016,17.617 -128.292,39.878 -155.857,63.815c-17.009,14.771 -25.005,30.804 -25.005,46.724c-0,15.92 7.996,31.954 25.005,46.724c27.565,23.937 81.841,46.198 155.857,63.815c117.365,27.935 285.675,45.532 472.531,45.532c186.856,0 355.166,-17.597 472.53,-45.532c74.017,-17.617 128.292,-39.878 155.858,-63.815c17.009,-14.77 25.005,-30.804 25.005,-46.724c-0,-15.92 -7.996,-31.953 -25.005,-46.724c-27.566,-23.937 -81.841,-46.198 -155.858,-63.815c-117.364,-27.935 -285.674,-45.532 -472.53,-45.532Zm-0,33.333c151.587,0 290.786,11.677 399.736,31.185c91.289,16.346 160.954,37.787 197.604,62.949c13.7,9.407 22.719,18.209 22.719,28.604c0,10.396 -9.019,19.198 -22.72,28.604c-36.649,25.162 -106.315,46.603 -197.603,62.949c-108.95,19.508 -248.149,31.185 -399.736,31.185c-151.588,-0 -290.786,-11.677 -399.737,-31.185c-91.288,-16.346 -160.954,-37.787 -197.603,-62.949c-13.7,-9.407 -22.72,-18.209 -22.72,-28.604c0,-10.395 9.02,-19.197 22.72,-28.604c36.65,-25.162 106.315,-46.603 197.603,-62.949c108.951,-19.508 248.149,-31.185 399.737,-31.185Z" style="fill:#7e4021;"/><path d="M637.427,311.198c219.869,14.991 505.439,16.454 724.25,-8.359c9.14,-1.037 15.719,-9.299 14.683,-18.439c-1.037,-9.14 -9.299,-15.719 -18.439,-14.682c-216.991,24.607 -500.186,23.09 -718.227,8.224c-9.177,-0.626 -17.136,6.317 -17.761,15.494c-0.626,9.177 6.317,17.136 15.494,17.762Z" style="fill:#7e4021;"/><path d="M412.076,288.982c30.48,5.467 102.423,11.408 128.23,12.485c9.191,0.383 16.964,-6.767 17.347,-15.957c0.383,-9.191 -6.767,-16.964 -15.957,-17.347c-24.902,-1.039 -94.325,-6.716 -123.736,-11.991c-9.054,-1.624 -17.723,4.409 -19.347,13.463c-1.624,9.054 4.409,17.723 13.463,19.347Z" style="fill:#7e4021;"/><path d="M1491.09,283.861c14.053,-1.871 50.813,-5.851 84.627,-14.259c24.819,-6.172 47.98,-15.034 61.536,-26.359c10.506,-8.777 16.179,-19.21 16.67,-30.626c0.448,-10.417 -3.478,-22.591 -15.569,-35.733c-6.228,-6.77 -16.78,-7.209 -23.549,-0.981c-6.77,6.228 -7.21,16.78 -0.982,23.549c4.347,4.725 7.198,8.277 6.78,11.961c-0.215,1.89 -1.618,3.349 -3.198,4.882c-3.478,3.375 -8.321,6.249 -13.921,8.921c-35.593,16.983 -97.967,23.097 -116.792,25.603c-9.118,1.214 -15.535,9.602 -14.322,18.72c1.214,9.118 9.602,15.536 18.72,14.322Z" style="fill:#7e4021;"/></g></svg>