<?xml version="1.0" encoding="UTF-8" standalone="no"?><!DOCTYPE svg PUBLIC "-//W3C//DTD SVG 1.1//EN" "http://www.w3.org/Graphics/SVG/1.1/DTD/svg11.dtd"><svg width="100%" height="100%" viewBox="0 0 1854 2690" version="1.1" xmlns="http://www.w3.org/2000/svg" xmlns:xlink="http://www.w3.org/1999/xlink" xml:space="preserve" xmlns:serif="http://www.serif.com/" style="fill-rule:evenodd;clip-rule:evenodd;stroke-linejoin:round;stroke-miterlimit:2;"><g id="Vienna"><path d="M1.023,734.361c-5.536,55.833 16.018,101.347 44.933,154.915c62.267,115.356 156.611,272.445 33.485,692.357c-101.338,345.604 -70.514,579.374 1.806,735.55c73.273,158.232 189.505,237.8 258.47,273.487c141.448,73.195 458.962,111.261 737.068,95.479c187.051,-10.614 356.16,-45.991 443.323,-109.415c150.226,-109.314 400.848,-379.847 227.53,-928.789c-119.73,-379.218 6.308,-626.703 70.777,-774.874c17.599,-40.448 30.646,-74.01 34.132,-101.094c2.791,-21.688 -0.258,-39.859 -9.922,-54.932c-29.396,-45.845 -103.573,-79.336 -199.131,-101.577c-211.62,-49.253 -529.3,-49.27 -650.354,-53.796c-184.882,-6.914 -582.984,-11.168 -811.11,46.237c-61.164,15.391 -110.434,35.455 -141.364,60.433c-23.601,19.059 -37.182,41.189 -39.643,66.018l-0,0.001Zm33.17,3.288c2.112,-21.303 17.844,-38.516 42.01,-53.726c28.126,-17.703 67.357,-31.961 113.961,-43.688c225.481,-56.74 618.993,-52.086 801.73,-45.253c119.875,4.482 434.486,4.178 644.043,52.952c52.351,12.184 98.005,27.365 131.908,46.718c20.714,11.825 36.88,25.04 46.719,40.385c7.474,11.657 6.863,26.495 2.771,44.597c-5.078,22.466 -15.959,49.05 -29.485,80.138c-66.404,152.618 -195.322,407.611 -71.999,798.209c166.282,526.658 -71.228,786.924 -215.356,891.8c-83.589,60.824 -246.215,92.909 -425.599,103.088c-271.544,15.41 -581.749,-20.335 -719.86,-91.804c-65.008,-33.639 -174.473,-108.735 -243.541,-257.889c-70.021,-151.21 -98.183,-377.549 -0.067,-712.164c127.622,-435.246 28.402,-598.001 -36.14,-717.57c-25.432,-47.116 -45.964,-86.683 -41.095,-135.793l0,0Z" style="fill:#7e4021;"/><path d="M196.068,801.054c-5.142,44.634 11.646,84.104 34.792,131.607c49.318,101.215 125.498,243.54 28.822,585.386c-79.963,282.749 -55.509,474.003 1.557,601.775c58.049,129.973 150.173,195.295 204.809,224.609c111.686,59.923 362.364,91.254 581.955,78.334c148.065,-8.711 281.862,-37.948 350.857,-90.002c118.676,-89.535 317.037,-311.054 180.12,-760.678c-93.929,-308.451 5.01,-509.749 55.586,-630.269c13.963,-33.273 24.276,-60.89 27.042,-83.169c2.282,-18.384 -0.303,-33.777 -8.204,-46.553c-23.479,-37.967 -82.534,-65.97 -158.86,-84.388c-166.74,-40.238 -417.045,-40.292 -512.427,-43.99c-145.538,-5.642 -459.785,-10.709 -639.923,27.318c-48.696,10.28 -87.933,23.943 -112.571,41.004c-20.186,13.979 -31.438,30.636 -33.555,49.016l-0,-0Zm33.114,3.814c1.141,-9.899 8.546,-17.897 19.418,-25.425c21.935,-15.19 57.125,-26.643 100.479,-35.795c177.833,-37.54 488.072,-32.194 631.747,-26.623c94.161,3.65 341.292,3.361 505.899,43.084c40.762,9.836 76.325,22.059 102.723,37.683c15.767,9.332 28.117,19.724 35.606,31.834c5.559,8.988 4.865,20.438 1.823,34.396c-3.967,18.194 -12.482,39.719 -23.047,64.895c-52.385,124.83 -154.025,333.398 -56.738,652.878c130.252,427.734 -55.41,639.182 -168.308,724.359c-65.338,49.294 -192.523,75.086 -332.739,83.335c-212.83,12.523 -455.99,-16.353 -564.238,-74.431c-50.763,-27.235 -136.199,-88.07 -190.132,-208.829c-54.917,-122.96 -76.868,-307.012 0.082,-579.111c100.593,-355.697 20.384,-503.741 -30.931,-609.058c-19.984,-41.013 -36.083,-74.655 -31.644,-113.191l0,-0.001Z" style="fill:#7e4021;"/><path d="M1534.92,1190.14c35.414,-200.022 -1245.8,-232.401 -1219.35,-65.244c14.805,93.573 10.716,218.872 -39.853,397.686c-156.914,554.847 92.809,750.613 198.207,807.162c183.279,98.334 746.979,116.399 914.895,-10.287c115.787,-87.356 307.798,-303.84 174.214,-742.518c-46.946,-154.165 -46.66,-282.041 -28.112,-386.799Z" style="fill:#9d5e3e;"/><path d="M1551.34,1193.05c3.379,-19.081 -1.834,-37.14 -15.244,-53.903c-16.536,-20.669 -47.043,-39.742 -88.63,-56.05c-149.868,-58.768 -449.999,-87.066 -704.253,-81.711c-170.969,3.6 -321.259,22.748 -392.408,56.876c-38.734,18.58 -55.793,43.303 -51.689,69.244c14.54,91.899 10.236,214.929 -39.429,390.545c-79.963,282.749 -55.509,474.003 1.557,601.775c58.049,129.973 150.173,195.295 204.809,224.609c111.686,59.923 362.364,91.254 581.955,78.334c148.065,-8.711 281.862,-37.948 350.857,-90.002c118.676,-89.535 317.037,-311.054 180.12,-760.678c-46.005,-151.074 -45.82,-276.381 -27.645,-379.039Zm-32.822,-5.811c-18.92,106.858 -19.308,237.305 28.579,394.56c130.252,427.734 -55.41,639.182 -168.308,724.359c-65.338,49.294 -192.523,75.086 -332.739,83.335c-212.83,12.523 -455.99,-16.353 -564.238,-74.431c-50.763,-27.235 -136.199,-88.07 -190.132,-208.829c-54.917,-122.96 -76.868,-307.012 0.082,-579.111c51.474,-182.011 55.347,-309.58 40.278,-404.825c-0.836,-5.286 1.241,-10.051 5.068,-14.583c6.03,-7.141 15.678,-13.432 28.114,-19.397c68.629,-32.92 213.777,-50.132 378.693,-53.605c249.574,-5.256 544.272,21.731 691.382,79.418c29.432,11.542 52.683,24.129 67.695,38.247c11.477,10.794 17.78,22.131 15.526,34.862Z" style="fill:#7e4021;"/><path d="M325.707,1084.97c-9.425,-17.141 -46.876,-188.186 6.943,-293.951c64.33,-126.421 174.879,-136.816 180.337,-161.922c10.366,-47.685 -15.339,-95.211 42.829,-180.306c72.823,-106.532 165.212,-106.113 309.125,-197.253c155.025,-98.178 65.923,-251.639 145.145,-233.052c76.951,18.053 207.32,57.602 286.328,141.25c109.564,115.998 76.057,185.618 99.861,230.153c9.286,17.374 114.005,65.124 195.985,187.064c71.028,105.648 72.314,254.287 39.504,326.95c-79.676,176.459 -85.759,202.123 -97.656,254.127c-244.587,29.414 -325.597,-146.418 -566.101,-74.646c-309.907,92.483 -381.515,-99.089 -642.3,1.586Z" style="fill:#fff;"/><path d="M497.045,623.893c-2.146,1.45 -11.922,7.954 -20.842,12.512c-40.346,20.612 -111.127,54.136 -158.407,147.052c-33.748,66.322 -33.762,157.136 -25.762,223.101c5.494,45.301 15.01,79.057 19.069,86.438c4.02,7.31 12.824,10.522 20.607,7.518c125.958,-48.626 206.236,-26.248 292.44,-3.307c91.617,24.381 189.539,49.617 348.623,2.143c115.659,-34.515 192.937,-9.102 270.737,21.012c83.139,32.181 166.892,69.328 292.588,54.212c6.984,-0.84 12.688,-5.974 14.257,-12.831c11.752,-51.372 17.892,-76.673 96.599,-250.985c34.424,-76.239 33.66,-232.261 -40.863,-343.108c-58.879,-87.58 -129.103,-137.951 -169.259,-166.351c-12.41,-8.778 -24.816,-18.78 -26.17,-19.877c-8.411,-16.222 -8.15,-36.175 -11.778,-60.811c-6.336,-43.02 -21.048,-98.947 -90.353,-172.323c-81.376,-86.155 -215.381,-127.438 -294.638,-146.032c-18.288,-4.291 -30.579,-1.169 -39.353,5.275c-8.423,6.187 -14.25,16.436 -17.652,30.661c-3.309,13.839 -4.666,32.369 -7.859,53.449c-6.719,44.361 -22.668,101.268 -93.005,145.812c-71.317,45.165 -129.897,67.585 -179.64,91.97c-52.771,25.87 -96.043,53.953 -134.327,109.959c-37.545,54.924 -42.482,95.341 -42.934,129.933c-0.256,19.617 1.386,37.124 -2.078,54.578Zm-161.176,439.558c-3.451,-13.408 -7.604,-35.014 -10.744,-60.907c-7.31,-60.269 -8.455,-143.374 22.379,-203.97c42.782,-84.074 107.357,-113.834 143.864,-132.486c11.214,-5.729 20.145,-10.706 25.967,-15.498c6.924,-5.699 10.612,-11.857 11.938,-17.956c3.373,-15.514 3.365,-31.003 3.209,-47.591c-0.314,-33.18 -0.762,-71.472 37.094,-126.85c34.538,-50.527 73.872,-75.501 121.48,-98.84c50.636,-24.823 110.206,-47.764 182.803,-93.739c99.157,-62.797 105.341,-146.409 112.092,-199.292c1.303,-10.21 2.53,-19.044 4.947,-25.899c0.983,-2.787 1.617,-5.329 3.864,-6.304c2.82,-1.225 6.526,-0.582 11.518,0.589c74.645,17.512 201.377,55.327 278.018,136.469c72.756,77.028 79.123,132.443 84.071,173.284c2.517,20.766 5.169,38.243 13.207,53.281c1.49,2.789 4.131,6.211 8.225,9.935c5.691,5.174 15.31,12.015 27.784,20.836c38.118,26.96 104.951,74.598 160.844,157.734c67.533,100.451 69.34,241.705 38.145,310.794c-74.536,165.074 -85.33,199.812 -96.045,245.686c-112.495,10.687 -188.931,-24.012 -264.987,-53.451c-83.978,-32.506 -167.456,-59.124 -292.301,-21.867c-150.824,45.009 -243.659,20.701 -330.519,-2.414c-88.531,-23.56 -171.212,-45.753 -296.853,-1.544l0,-0Z" style="fill:#7e4021;"/><path d="M498.874,661.791c18.455,-10.768 43.593,-13.724 70.157,-13.963c44.403,-0.4 92.654,7.396 125.814,8.225c81.151,2.029 167.31,-12.738 238.289,-57.179c7.797,-4.882 10.163,-15.175 5.282,-22.971c-4.882,-7.797 -15.175,-10.163 -22.971,-5.282c-65.42,40.961 -144.972,53.979 -219.767,52.109c-33.457,-0.836 -82.146,-8.638 -126.947,-8.234c-32.906,0.297 -63.795,5.166 -86.655,18.503c-7.945,4.636 -10.632,14.85 -5.996,22.795c4.635,7.945 14.849,10.632 22.794,5.997Z" style="fill:#7e4021;"/><path d="M1363.78,306.581c-0.17,3.54 -1.263,26.078 -1.48,27.326c-11.36,65.341 -44.921,108.34 -101.986,132.159c-8.489,3.544 -12.504,13.312 -8.961,21.801c3.544,8.489 13.312,12.504 21.801,8.961c68.022,-28.394 108.445,-79.325 121.987,-157.211c0.291,-1.676 2.122,-28.999 1.985,-34.354c-0.214,-8.373 -4.908,-12.169 -5.773,-12.927c-4.446,-3.892 -9.279,-4.764 -14.13,-3.836c-8.56,1.637 -14.335,9.568 -13.443,18.081Z" style="fill:#7e4021;"/><path d="M779.468,860.202c211.421,14.415 486.018,15.82 696.421,-8.04c9.14,-1.036 15.719,-9.298 14.683,-18.438c-1.037,-9.14 -9.299,-15.719 -18.439,-14.683c-208.583,23.654 -480.805,22.195 -690.397,7.904c-9.177,-0.625 -17.136,6.318 -17.762,15.495c-0.626,9.177 6.317,17.136 15.494,17.762Z" style="fill:#7e4021;"/><path d="M562.743,838.834c29.325,5.26 98.54,10.977 123.369,12.013c9.191,0.383 16.964,-6.767 17.347,-15.957c0.383,-9.191 -6.767,-16.964 -15.958,-17.347c-23.923,-0.998 -90.618,-6.451 -118.874,-11.518c-9.054,-1.624 -17.723,4.408 -19.347,13.462c-1.624,9.054 4.409,17.723 13.463,19.347Z" style="fill:#7e4021;"/><path d="M1600.33,833.915c13.522,-1.8 48.894,-5.631 81.431,-13.722c23.969,-5.96 46.328,-14.535 59.419,-25.472c10.258,-8.569 15.778,-18.765 16.258,-29.91c0.436,-10.147 -3.361,-22.017 -15.138,-34.818c-6.228,-6.769 -16.78,-7.209 -23.55,-0.981c-6.769,6.228 -7.209,16.78 -0.981,23.55c4.014,4.362 6.739,7.589 6.353,10.99c-0.27,2.377 -2.369,4.012 -4.638,5.856c-3.131,2.543 -7.047,4.802 -11.459,6.907c-34.16,16.3 -94.026,22.153 -112.093,24.558c-9.118,1.214 -15.536,9.602 -14.322,18.721c1.214,9.118 9.602,15.535 18.72,14.321Z" style="fill:#7e4021;"/></g></svg>